<?xml version="1.0" encoding="UTF-8"?>
<svg id="Camada_1" xmlns="http://www.w3.org/2000/svg" version="1.1" viewBox="0 0 595.3 841.9">
  <!-- Generator: Adobe Illustrator 29.0.0, SVG Export Plug-In . SVG Version: 2.1.0 Build 186)  -->
  <g>
    <path d="M0,0v841h595V0H0ZM223.2,317c-5.6-.1-6.7,30.8-8.2,34.5s-14.4,14-18.2,16.6c-19.6,13.4-47.3,20.1-70.5,17.5,3.7-19.3,1.1-38.4-2-57.6l55-3.2,46.1-40.5c1.4-.4.7-.5,2.3,1.6,1.6,2.1,9.3,10.8,10.7,15.2,1.4,4.4-.4,6.3,1.7,16.2,2.1,9.9,5.9,7.6,13.7,17.2,7.8,9.6,6.1,18,22.5,18.4,13.7.3,13.2-7.2,20.8-13.9,4.8-4.2,12.2-5.9,16.9-10.9,6.1-6.5,6-15.3,10.6-22.2,2.5-3.7,7-6.6,9.8-10.1,4.2-5.4,7.5-12.6,8-19.4,22.9,7.7,41.8,23.9,61.4,37.6l3.3-.3,37.6-17.4,13.9,58.9c-.4,3-10.1,6.1-13,7-28.8,9-56.7,1.3-80.1-16.4-2.7-2.1-16.6-16.7-19.4-13.9-.5,6.2,8.1,9.7,9.7,15.6,1.2,4.4,3.2,29,1.7,32.1-.4.9-1.3,1.5-2.2,1.8l-46.6,5.2c-21.2.1-42.4.4-63.5-2.1-4.6-.6-22.7-3-25.8-4.4-1.4-.7,2,14.6.3-4-1.7-18.6,3-37.6,5.7-55.9.4-1,3.4-3.1-2.2-3.2ZM219,232c.2-9.8,4.9-10.5,10.5-24.4,5.6-13.9,5.5-30,15-42.6,23.3-30.8,89.3-23.3,106.7,10.5,5.9,11.6,5.4,25.3,9.6,37.1,2.3,6.3,10.2,14.7,11.2,19.6,1.9,8.9-5.1,18-2.3,27.2s25.7,19.4,12.9,32.7l-37.7-21.8-4.4-25.2c5.2-3.3,9-5.3,12-10.9,7.5-14.1,1.3-29.6-16.1-22.5h0v-22c-18.7-6.1-39.3-5.6-46.3-27.8-2.1,0-9.7,10.5-13.4,13.4-3.7,2.9-8.5,5.6-12.7,7.2-4.2,1.6-16.7,3.8-19.1,5.7-2.4,1.9-3.8,13-4.8,20s-.8,20-2.4,25.5c-.4,1.3-2-.3-7.6,10.3-5.6,10.6-6.4,22.8-6.3,34.5l-12.3,9.6c-4.1-6.1-4.9-18-1.7-24.5,2.1-4.4,8.1-7.4,9.7-14.1,1.6-6.7-.8-7.7-.6-17.5ZM321.5,241.9c-12,7.5-19.4-8.5-30.1-5.2-1.6.5.9,1-4.4,3.6-5.3,2.6-10.6,1.5-15.1-1.9v-.2c-.5-.8,5.7-10.6,6.5-12.8.8-2.2,5.2-16.1,0-14.9-5.1,6.3-4.8,15.3-11,20.9-1.8,1.6-15.4,8.4-17.2,8.8-1.8.4-3.8,1.3-5.7-1.8-1.9-3.1-.9-16.2-.5-20.3.4-4.1,3.4-23.6,5.4-25.4,2-1.8,17.9-5.3,24.1-8.7s10.9-8.6,16.2-13.1c6.5,17.2,26.1,18.1,41.4,22.8-.8,14.8,4.5,38.2-9.6,48.2ZM266.6,239.7h0c3.1,6.9,10.1,8.8,17.3,7.5,4.9-.9,4.7-5.4,13.1-4.8,8.4.6,10.2,10.5,23.1,6.3,5.6-1.8,8.5-7.4,12.7-11.1,3.2-.1,5.8,31.2,5.4,35.1-1.8,19.1-11,18.8-18.6,31.1-5.3,8.6-4.1,16.8-13.2,23.6-3.2,2.3-1.8-1.1-11.4,6.5-9.6,7.6-7.4,15.4-23.8,12.9-9-1.4-9-10.6-13.5-16.3-2.7-3.4-6.3-3.2-10.4-9.5-4.1-6.3-1.7-15-4.5-22.4-1.9-5-6.8-7.7-9.5-12.3-7.9-13.4-4.2-33,5-44.8,10.8,10.4,17.3.6,28.2-1.8ZM344.6,214.8c11.8,2.1,3.2,23.4-6.2,23.7-1.2-6.8-6.6-26,6.2-23.7ZM468.8,292.7c.2,3.6-1.8,11.3,2.4,10.5s2.3-16.7,1.7-19.8c7.5-4.2,25.1-20.4,33.7-16.6.5.2,2.4,1.8,1.5,2.5-6,4.4-15.4,8.2-20.9,12.9-1.7,1.4-2.9,2.6-2.5,5h0c0,.1,32.3-12.9,32.3-12.9l1.5,1.5c-1.9,4.5-26,13.6-27.6,16.6-3.8,13.7,22.3-11,27.6-8.2,0,1.1,0,2-.5,3-15.2,18.6-39.5,32.1-62.2,39.8-.8-9.6-6.2-21.7-4.9-31.2,1-7.8,12.6-26.1,20.8-28.4,1.7,1.8-5,12.5-5,15.4s1.9,6.3,2.1,9.9ZM462.9,351.8l-5-19.8,9.9-3h.1c1.2,1.3-.9,21-5,22.8ZM221.1,386.7c46,7.3,93.2,6.5,139.2,0h.1c11.2,39.4,18.2,81.1,23.8,121.8,3.3,24.7,6.5,49.9,5.9,74.8-41.8,17.9-138.2,16.7-181.9,4.6-4.3-1.2-14.4-3.3-15-7.9-.6-4.6.5-15.8,1-20.9.2-2.6,1.7-4.7,1.9-7,5.6-55.5,10.7-111.3,25-165.4ZM339.9,631.1c-6.7.7-5,11.3-12.4,11-3.6-3.7,10.1-11.1,3.4-12.9s-8.9,12.2-12,12.7c-.9.2-5.5,2.1-4.3-2.2,1.2-4.3,8.3-6.6,7.9-11.5-6.1-1-11.1,4.1-11.9,9.9l-3.8-1.1c-1.2-8.7,9.4-12.2,14.8-17.2,7.1-6.6,7.7-10.6,6.9-20.4l38.8-4,1.5,25.9-29.9,20.8c-1.4,0-1.4-.7-.5-2.5.9-1.8,7.7-9.2,1.5-8.5ZM215,622.7c-3.5-2.5-12.8,9.5-15.4,11.5l-2.4-3.3c2.4-4.2,8.6-5.1,7.9-10.6-7.2-1.8-8.6,7.9-14.9,7.9,4-16.1,31.4-12.8,33.8-31.4l34.4,3.5c1.6,2.4,1.1,15.4-2.1,20.9s-13,5-22.1,7.8c-9.1,2.8-17.9,8.3-28.1,7.2h-.1c-1.1-1,2.8-4.7,5.5-7,2.7-2.3,6.8-1.3,3.5-6.5ZM217.2,596.2c.1,1.8,2.1-2.5-.5,5.4s-31.4,10.7-31.4,25.3,7.6,10.2,11.3,11.7c14.4,5.9,34-1.2,48.2-5.9,13.7-4.6,17.3-5,19.1-20.7.4-3.8-1.3-8.6,1.5-11.4h57.2c6,17.4-21.8,20-21.4,35.3.2,10.7,9.7,8.3,18.9,9.4s16.6,3.7,25.6-.3c4-1.8,25.6-17.2,27.5-20.3,5.1-8.3-.3-21,.2-30.1,5.9-1.2,19.4-4.6,22.7-9.7,1.7-2.7-.4-14.4-.9-18.3h194v94.4c-14.6,6.7-28.6,1.9-40.3-7.6-4.8,2.9,3.3.7-13.7,9.8s-38.7,9-56.1,1c-6.5-2.9-11.5-7.9-17.8-11.1-21.2,18.3-45.5,24.5-72.1,13.4-7.5-3.1-13.3-8.3-20.4-11.4-34.4,24-78.1,23.2-111.7-1.8-33.1,23.6-77.5,24.3-110.4,0-28.6,20.1-66.3,21.8-94.4-.2-6,1.6-6.7,5.6-17.3,7.5s-21.3-.2-28.9-8v-86h182.2c0,0,1.5,20,1.5,20,8.1,6,18.2,6.4,27.4,9.6ZM509.2,407.5c1.5-.4,4.7-10.8,5.9-13,11.2-21.5,36.5-28.4,57.9-17,3,1.6,16.2,11.7,16.2,14.6v56.2h-158.5c-.7,0-4.6-3.1-5-4-4.4-9.8,8.3-22.2,17.8-21.8,3.2.2,8.2,4.1,11.3,3.9.6-1.6,2-4.8,5-10.6,9.7-19,33.6-20.9,49.4-8.3ZM426.6,106.5c2.6,0,11.6,3.4,12.4,2.8,3.4-22.4,24.3-37.6,45.3-23.9.8-.6,1.2-1.4,1.7-2.3,6.2-11.6-4.9-15.3,19-28.7,23.9-13.4,52.2,1.3,55.4,28,8.8-2.2,15.8-5.2,24.2.2.8.5,4.6,4,4.6,4.3v41.3h-177c-3.7-9.6,4-21.7,14.4-21.7ZM6.1,87.9h.2c5.2-5.6,16.2-12.8,24.2-12.1,2.1.2,9.1,4,10.6,2.7,5-51.3,74.7-52.8,79.6-1,10.5-2.7,17.4-5.6,28.4-2,12.4,4,17.6,15.6,18.4,27.8,5.3.2,8.6-3.9,14.3-4,12.8-.3,24.2,20.2,9.9,26.9H6.1v-38.3ZM6,132.1h185.6c3.5,0,8.9-5.4,10.2-8.7,4.5-11.4-1.7-24.1-13-28.3-6.6-2.4-10-1.8-16.6-.2-3.8-22.6-27.4-31.5-47.7-24.4-2.1-25.4-29.6-42.4-53.7-36.3-16.8,4.2-31.5,18.7-33.9,36.2-7.6-1.3-14.5-.3-21.5,2.9-3,1.4-5.9,4.6-9.3,5.2V6.9h583v71.4c-7.9-4.6-16.2-6.1-24.9-3-10.1-44.3-73.6-41.3-82.6,2-20.1-9.3-42.4,3.3-46.7,24.4-4.3,0-7.8-1.1-12.3-.3-12.8,1.9-24.3,22.4-12.2,31.6h178.6v248.5c-4.7-2.5-8.4-6.6-13.2-9.1-26.4-13.8-58.5-2.8-68.2,25.5-1.7-.5-4.4-1.3-8.6-2.4-20.6-5.4-40.7,2-46.2,23.8-15.2-6.9-34.6,5.2-33.6,22.1.2,4.2,4.8,11.7,9.2,11.7h160.7v107.4h-193.5l-1.5-2.5c-2.9-36.3-7-72.3-14.2-108-5.9-29.5-14.6-55.5-16.6-85.8-.3-4.5-1.5-9.8-2-14.4.7-.9,11.9,7.7,13.6,8.7,21.1,12.3,46.5,16.4,70.2,9.9,16.5-4.6,25.5-11.4,27.5-29.2.4-3.7-.8-11.6,1-13.9,12.1-5.5,48.5-25.3,50.4-39.1.4-2.7-1.8-3.9-1.6-6.4.2-3.2,4.7-6.9-1.6-10.4-4.3-2.4-8.3-.3-11.8-7.1-6.6-8.8-32,13.3-33.3,11.9,3.1-10.1-.5-17-10.9-10.4-7.9,5-15.7,25.3-17.1,26.1-.9.6-4,0-5.9.6-7.2,2.2-19.1,11.8-27.4,15.3-1.7.7-4.3,2.6-7.1,3-2.8.4-15.6-11.2-19-13.4,3.4-8.3,3.5-17.6-1.7-25.2-2.5-3.7-10.7-9.2-11.9-12.9-2.1-6.5,1.9-11.5,2.5-17.4,1.4-13.6-6.7-17.3-10.7-28.1-3.5-9.7-3.5-21-6.9-30.9-15.7-46.2-95.9-57-122.1-16-8.5,13.3-8,29-14,42.7-3.4,8-10,13.8-10.2,23.4-.2,5.4,3,11.8,1.3,17.4-1.1,3.6-3.4,1.7-8.7,12.2s-2.4,21.8.7,32.5l-30.9,26.8c-18.6-1.4-40.3,6.8-58.6,3.9-6.4-1-13.1-9.5-23.7-14-10.6-4.5-12,4.7-6.7,12.1-7.8.3-22.6-3.2-28.8,2.5-4,3.7.3,6.5-.2,8.8s-6,3.1-2.7,8c.7,1.2,2.3-.7,2.9,2.3.6,3-2.9,6.3,1.2,10.9,6.9,7.7,41.5,10.4,52.3,11.3,2.1,7.9,3,16.5,7.4,23.5,24.8,5.5,52.7,0,74.6-12.8,7.8-4.5,14.3-10.6,21.6-15.7.1,5.4,0,10.9,0,16.4.1,13.3-2,18.4-4.6,31.1-10.2,50.3-16.3,101.2-21.2,152.3H6.1v-266.4h118.9c3.1,0,7.5-3.5,8.2-6.7,3.8-16.5-16.1-30.4-30.6-22.2-5.1-17.3-22.8-21.8-38.8-16.9-2.8-10.3-10.5-19.4-23.4-23.8-12.9-4.4-21.7-2.3-34.4,1v-93.4ZM120.4,379.4c-.3-4.5-2.6-8.8-3.9-13.1l6-.5v15.9c-3.6.3-1.8,1.7-2.1-2.3ZM121.6,361.2c-2.2,1.6-32.1-2.8-37.1-3.8-1.7-.3-27.3-6.5-22.7-10.6,5.1-1.5,26.8,4.6,29.4,1l.4-3c-1.1-1.7-24.9-2.5-29.8-4.5-1.6-.6-2.4.2-2-2.4,8.5,0,17-.2,25.4,0h0c.4-.1,1.9,1.8,3-.1l.5-5c-6.8-.8-14.4-1.1-21.1-2.3-.9-.2-6.8-.6-4.8-2.7,10.8-2.8,21.9.3,32.8,1-.3,8.8,1.6,19.9,12.9,17.9,1-4.3.2-.9-4.7-5.3-4.9-4.4-2.5-13.5-3.8-15.6-1.3-2.1-11.9-4.1-10.4-10.9,6.4,4.7,23.1,10,28.1,14.9,3.1,2.9,7.1,28,3.8,31.4ZM53.3,240.6c2.4,2.7,5.6,13.6,9.1,14.8s4.9-1.7,7.3-2.4c15.3-4.5,27.2,5.6,29.9,20.4,6.4-1.7,9-5.8,16.2-4.7,10.8,1.7,15.7,19.6,11.2,19.6H6.1v-54.2h0c15.1-11.4,35.3-7.2,47.3,6.5ZM6,661c15.5,8,30.4,7.9,45.1-1.8,28.6,20.4,66.7,19.9,95.5,0,32.3,23.9,76.6,22.7,109.7.8,9,4.2,17.3,9.8,26.8,13,29.4,9.8,60.1,4.9,85.8-11.8,7,3.9,13.5,8.7,21,11.5,25.1,9.4,51.6,4.5,71.4-13.4,25.7,20.7,61.6,22.2,87.6,1.1,11.8,8.6,26.4,12.7,40.3,6.6h0v61.6c-15.5,2.2-27.4-6.3-39.2-14.8-24.4,24.8-63.8,22.7-89.7,1.2-28.5,24.1-68,23.1-96.5-.3-28,22.1-65.8,22.9-93.5,0-28.1,22.4-65.6,22.8-93.6,0-8.2,2.9-2.1,4.6-23.4,11.4s-40,2.9-58.2-9.4c-18.9,12.5-41.7,14.5-58.9-1.9-9.2,5.7-17.9,17.5-30.2,11.3v-65.1ZM6.6,733.7c1.2-1.8,8,0,13.5-1.4s11.6-7.3,16.4-10.2c17.3,13.7,39.8,13.5,57.7,1.1,25.8,17.1,57.1,14.6,82.4-2.2,27.6,22,65.2,20.6,93.7.9,7.1,3.4,13.4,8.2,20.9,10.9,24.8,9,51.8,3.8,72.7-11.7,28.6,22.6,67.6,22.6,96.7.8,26.4,20,64.7,20.9,90.2-1.1,4.6,4.1,18.1,12.8,24,12.8h14.4v52.8c-9.2-.7-14.7-7.1-22.4-10.9-2.1.1-6.3,5.8-8.5,7.4-26.1,19.5-56.3,11.7-80-7.1-4.8,3.1-8.4,7-13.5,10.1-27,16.5-58,9.6-81-10.4-18.1,15.1-36.6,22.9-60.7,21-17.5-1.4-30.6-10.9-44.3-20.6-1.2,1-5,3.6-14.6,9.4-26.4,16-56.8,15.7-83.2,0-2.6-1.5-10.3-9.5-14.1-9.7-.1,0-.2,0-.3,0-2.2,1.6-6.8,4.7-16.2,10.3-29.4,17.6-64.1,12-89-10.4-15.8,11.5-36.8,18.6-55.3,9.3l.5-51.1ZM589.3,834.9H6.2v-42.7c19.5,4.7,38.5,1.2,55.1-9.8,23,19,53.2,24.3,81.2,13.2,8.7-3.4,16.1-9.2,24.4-13.4,33,26.5,78,26.5,111.2.2,30.9,24.7,76.1,27.2,105.6-1.1,26.6,24.7,67.5,25,94.7,1,21.5,16.3,50.5,23.7,75.3,9.7,4.9-2.8,8.5-6.8,13.3-9.6,7.1,3.6,13.8,9.1,22.2,8.8h0s0,43.7,0,43.7Z"/>
    <path d="M166.6,775.6c4.4-3.3-1.8-.4,0,0h0Z"/>
    <path d="M278.4,775.6c.1,0,.3.2.4.3,2.1-1.8-3.7,1.2-.4-.3Z"/>
    <path d="M456.1,426c-.4.3-.8.4-1.3.4-1.3,3.6,1.7-.7,1.3-.4Z"/>
  </g>
  <path d="M595.1,841c2.1,1.9-597.1,1.9-595,0h595Z" fill="#fff"/>
  <g>
    <path d="M361.4,350c.1,1.1.2.7.2,0-.1,0-.2,0-.2,0Z" fill="#fff"/>
    <path d="M361.6,350c.2,0,.4.1.7.3-.5-5.1-.6-1.9-.7-.3Z" fill="#fff"/>
    <path d="M422.7,101.6c4.6-.8,8,.3,12.3.3,4.3-21,26.6-33.7,46.7-24.4,9-43.4,72.5-46.4,82.6-2,8.8-3.1,17-1.6,24.9,3V6.9H6.1v71.8c3.4-.7,2.3-2,9.3-5.2s13.9-4.2,21.5-2.9c4.1-13.7,9.8-30.1,33.9-36.2,24.1-6.1,51.6,10.9,53.7,36.3,20.3-7.2,43.9,1.8,47.7,24.4,6.6-1.7,10-2.3,16.6.2,11.3,4.2,17.5,16.9,13,28.3-1.3,3.3-6.7,8.7-10.2,8.7H6v93.4c12.7-3.2,24.2-4.4,34.4-1,10.2,3.4,20.6,13.4,23.4,23.8,16.1-4.9,33.7-.4,38.8,16.9,14.5-8.2,34.4,5.8,30.6,22.2-.7,3.2-5.5,6-8.6,6l-118.5.7v266.4h183.2c4.9-51.1,11-102,21.2-152.3,2.5-12.7,4.6-17.8,4.6-31.1v-16.4c-7.3,5.1-8.7,7.9-22.8,15.9-21.1,12.1-48.5,18.1-73.4,12.6-4.5-7-5.4-15.6-7.4-23.5-10.7-.9-45.4-3.6-52.3-11.3-4.1-4.6-.6-8-1.2-11,0-.3-.2-1-.3-1.4,0,0,0,0,0-.1,0,0,0,0,0,0,0,0,0,0,0,0-1.1-1-2.9-.9-2.3-.7-.6-1.1-1.3-2.2-1.1-3.3.5-2.1,3.4-2.9,3.7-4.7.4-2.6-3.8-5.1.2-8.8,6.2-5.7,21-2.1,28.8-2.5-5.2-7.4-3.9-16.6,6.7-12.1,6.6,2.8,17.2,13,23.7,14,18.3,2.9,40-5.2,58.6-3.9l30.9-26.8c-3.2-10.6-6-22-.7-32.5,2.1-4,7-6.7,8.7-12.2,1.7-5.5-1.5-7.7-1.3-17.4.2-9.7,6.7-15.4,10.2-23.4,5.9-13.8,5.5-29.4,14-42.7,26.2-41,106.4-30.3,122.1,16,3.3,9.9,3.3,21.3,6.9,30.9,4,10.9,12.1,14.6,10.7,28.1-.6,5.8-4.5,10.9-2.5,17.4,1.1,3.7,6.7,5.3,11.9,12.9,5.2,7.6,5.1,16.9,1.7,25.2,3.4,2.2,16.2,13.8,19,13.4,1.2-.2,5.5-2.3,7.1-3,8.3-3.5,20.2-13.1,27.4-15.3,2-.6,4.6.2,5.9-.6,1.3-.8,6.7-19.5,17.1-26.1,10.4-6.6,14,.3,10.9,10.4,1.2,1.4,26.7-20.7,33.3-11.9,3.5,6.9,5.5,3.6,11.8,7.1s1.8,7.9,1.6,10.4,2,3.7,1.6,6.4c-1.9,13.8-38.3,33.5-50.4,39.1-1.8,2.3-1,13.9-1,13.9-1.9,17.8-11,24.7-27.5,29.2-23.7,6.4-49.1,2.4-70.2-9.9-1.4-.8-11.1-10-14-11.3.2,2.4,1.9,9.7,2.4,17,2,30.3,10.7,56.3,16.6,85.8,7.1,35.7,11.3,71.7,14.2,108l1.5,2.5h193.5v-107.4h-160.7c-4.4,0-9.9-8.5-9.2-11.7,3.9-16.5,18.4-29,33.6-22.1,5.4-21.8,25.5-29.2,46.2-23.8,3,.8,5.2,3.2,8.4,2.9,9.5-28.7,41.9-39.9,68.4-26,4.7,2.5,8.5,6.6,13.2,9.1v-248.5h-178.6c-.5,0-3.2-3.4-3.7-4.3-5.3-10.7,4.9-25.4,15.9-27.3Z" fill="#fff"/>
  </g>
  <path d="M395.1,566.5c.6,3.9,2.5,16.9.9,18.3-4.7,3.9-16.8,8.5-22.7,9.7-.5,9.1,4.9,21.8-.2,30.1-1.9,3.1-19.8,16.9-28.7,20.9-8.9,4-17.8.5-24.4-.3-6.6-.8-18.7,1.4-18.9-9.4-.4-15.3,27.4-17.9,21.4-35.3h-57.2c-2.8,2.7-2.5.2-4.3,16s-2.6,8.8-16.3,16.1c-14.2,4.7-33.7,11.9-48.2,5.9-3.7-1.6-11.3-10.2-11.3-11.7,0-14.6,28.5-16.5,31.4-25.3.5-1.8,1.4-4.1,1.4-5.9-9.2-3.2-20.2-3.1-28.3-9.1l-1.5-19.9h0c0,0-182.1,0-182.1,0v86c7.6,7.8,18.3,9.9,28.9,8,8.2.6,11.3-5.9,17.3-7.5,28.1,22,65.8,20.3,94.4.2,32.9,24.3,77.3,23.6,110.4,0,33.6,25,77.3,25.8,111.7,1.8,7.1,3.1,12.9,8.3,20.4,11.4,26.6,11,50.9,4.9,72.1-13.4,6.3,3.2,11.4,8.1,17.8,11.1,17.4,8,39.1,8,56.1-1,5-2.7,11.1-5.1,13.7-9.8,11.7,9.5,25.7,14.3,40.3,7.6v-94.4h-194ZM147.5,607.8c-16.4,13.2-38,11.2-55.3.8-17.6,12.3-41.8,11.4-57.2-3.8.8-.7,1.6-2,2.7-2.3h0c2.8-.8,8.4,4.4,11.7,5.8,15.1,6.3,30.6,2.5,43.8-6,11.1,8.2,26.2,13.7,39.5,7.7s6.9,1.2,13.4-7.6c0,0,2.9,3.4,1.4,5.4ZM499.3,618.2c-4.4-1.2-11.4-5.9-16-5.9s-8.3,3-15.1,5.1c-9.5,2.9-18.6,3-28.2.4-3.8-1-19-7-19-10.9l1.6-2.5h0c5.8,1,10.3,5.5,15.4,7.5,15.4,5.9,32.5,1.6,46.3-6.1,14.3,8.7,33,12,48.9,5.8,5.1-2,12.4-9.4,16.2-4.7-12.8,13.3-32.7,15.8-50.1,11.3Z" fill="#fff"/>
  <path d="M360.3,386.9c11.2,39.4,18.2,81.2,23.8,121.8,3.4,24.7,6.5,49.8,5.9,74.8-41.7,17.9-138.2,16.8-181.9,4.6-4.3-1.2-14.4-3.1-15-7.9s.5-15.8,1-20.9,1.7-4.7,1.9-7c5.6-55.6,10.7-111.3,25-165.4,46,7.3,93.2,6.6,139.2,0h.1ZM249.7,401.9l-3.8-1.2c-5.8,31-7,62.6-10,93.9-3,31.3-2.6,11.4-2.9,17s-.8,15.6,1.5,16.4l3.5-2.5,11.8-123.6h-.1ZM330.4,404.9h-3.9c0-.1,12,84.3,12,84.3,3.3.5,4.6.3,4.6-3.2-.1-10.4-3.2-27.9-4.8-38.8-2-14.2-4-28.5-7.9-42.3h0Z" fill="#fff"/>
  <path d="M589.2,733.6v52.7c-9.2-.7-14.7-7.1-22.4-10.9-2.1,0-6.3,5.7-8.5,7.4-26.1,19.4-56.3,11.7-80-7.1-4.9,3.1-8.5,7-13.5,10.1-27,16.5-58,9.6-81-10.4-18.1,15.1-36.6,22.8-60.7,21-17.7-1.4-29.3-9.3-43.1-19.1-5.2,2.3-10.6,4.8-15.8,7.9-26.4,16-56.8,15.7-83.2,0-2.6-1.5-10.9-7.8-12.2-7.9-3.9-.2-14.5,6.1-18.4,8.5-29.3,17.6-64.1,12.1-89-10.4-15.8,11.5-36.8,18.6-55.3,9.3l.5-51.1c1.2-1.8,10.1-.5,13.5-1.4,5.4-1.4,11.6-7.2,16.4-10.2,17.3,13.6,39.8,13.5,57.7,1.1,25.8,17.2,57.1,14.6,82.4-2.2,27.6,22,65.2,20.6,93.7.9,7.1,3.5,13.4,8.2,20.9,10.9,24.8,9,51.7,3.8,72.7-11.7,28.6,22.6,67.6,22.7,96.7.8,26.4,20.1,64.7,20.9,90.2-1.1,4.6,4.1,18.2,12.8,24,12.8h14.4Z" fill="#fff"/>
  <path d="M589.2,667v61.6c-15.5,2.2-27.4-6.3-39.2-14.8-24.4,24.9-63.8,22.7-89.7,1.2-28.5,24-68,23.1-96.5-.3-27.9,22.1-65.8,22.9-93.5,0-28.1,22.4-64.5,24.8-92.5,2-8.1,3-15.9,6.6-24.5,9.4-21.3,6.9-40,2.9-58.2-9.4-18.8,12.5-41.6,14.5-58.9-1.9-9.2,5.7-17.9,17.5-30.2,11.3v-65.1c15.5,8,30.4,7.9,45.1-1.8,28.6,20.4,66.7,19.9,95.5,0,32.3,23.9,76.6,22.7,109.7.8,9,4.2,17.3,9.8,26.8,13,29.4,9.8,60.1,4.9,85.8-11.8,6.9,3.9,13.5,8.7,21,11.5,25.1,9.4,51.6,4.5,71.4-13.4,25.7,20.7,61.6,22.2,87.6,1.1,11.8,8.6,26.4,12.7,40.3,6.6h0Z" fill="#fff"/>
  <path d="M589.2,791.2v43.7H6.1v-42.7c19.5,4.7,38.5,1.2,55.1-9.8,23.1,19,53.2,24.3,81.2,13.2,8.7-3.4,16.2-9.2,24.4-13.4,33,26.4,78.1,26.4,111.2.2,30.9,24.7,76.1,27.2,105.6-1.1,26.6,24.7,67.4,25,94.7,1,21.5,16.2,49.5,23,74,8.6s9.8-5.6,14.6-8.5c7.1,3.6,13.8,9.1,22.2,8.8h.1Z" fill="#fff"/>
  <g>
    <path d="M445,296.5l-37.6,17.4-3.3.3c-19.6-13.7-38.9-31-61.8-38.7-.5,6.8-3.6,14.2-7.8,19.5-2.8,3.5-7.2,6.8-9.7,10.5-4.6,6.8-4.4,15.6-10.5,22.1-4.7,5-11,4.8-18.5,11.4-7.5,6.6-7.2,12.7-20.9,12.4-16.5-.4-12.2-7.5-20-17.1-5.4-6.6-12.3-6.9-14.4-16.8-1-4.6-.3-11.8-1.7-16.2-.3-.9-9.2-13.1-10.7-15.2-.7-.8-1.5-3-2.8-2.6l-46.3,41.2-55.1,3.2c3.1,19.1,5.5,38.6,1.8,57.9,23.1,2.6,51.9-4.1,71.5-17.5,3.8-2.6,16.2-11.9,18.2-16.6s2.6-34.5,8.2-34.5,2.2,2,1.9,3c-2.7,18.3-7.9,37.1-6.2,55.8,0,1.4-.5,6.7,3,7.3s2.3-1.1,23.3,1.4,42.3,2.2,63.5,2.1l46.6-5.2c.9-.3.6,1.4,2.2-1.8s-.5-27.7-1.7-32.1c-1.6-5.9-10.2-9.4-9.7-15.6,2.7-2.8,16.7,11.8,19.4,13.9,23.4,17.7,51.3,25.3,80.1,16.4,2.9-.9,12.7-4,13-7l-13.9-58.9Z" fill="#fff"/>
    <polygon points="444.9 296.2 445 296.5 445.2 296.4 444.9 296.2" fill="#fff"/>
  </g>
  <path d="M6.1,87.9c5.2-5.7,16.2-12.9,24.2-12.2,8,.7,9.2,4,10.6,2.7,5.1-51.3,74.7-52.7,79.6-1,10.5-2.7,17.4-5.6,28.4-2,12.5,4,17.7,15.6,18.4,27.8,5.3.3,8.7-3.8,14.3-4,12.8-.3,24.3,20.2,9.9,26.9H5.9v-38.3h.2Z" fill="#fff"/>
  <path d="M585.8,83.2c-7.9-6.2-16.4-4-25.2-1.7-2.3-26-31.9-40.6-55.8-27.2-14.1,7.9-17.7,10.3-19,28.7-.5.9-1.4,1-2.2,1.6-20.9-13.7-41.4,2.2-44.8,24.6-.8.5-2.1-2.9-12.4-2.8s-18.1,12.1-14.4,21.7l177.8.7.7-41.3s-1.5-1.7-4.8-4.3Z" fill="#fff"/>
  <g>
    <path d="M572.8,377.5c-21.3-11.5-46.6-4.6-57.9,17-1.1,2.3-4.3,12.7-5.9,13-15.8-12.5-39.7-10.7-49.4,8.3-1,2-2.9,7.4-5.6,9.4s-1.2-2.3-10.7-2.7-22.2,12-17.8,21.8c.4.9,4.4,4,5,4h158.5v-56.2c0-2.9-13.2-13-16.2-14.6Z" fill="#fff"/>
    <polygon points="589.2 448.3 589 448.3 589 448.3 589.2 448.3" fill="#fff"/>
  </g>
  <path d="M266.6,239.7c3.1,7,11.9,9.8,18.4,6.8s5.4-4.5,11.4-4.5,10.9,10.9,23.7,6.8c5.6-1.8,8.5-7.5,12.7-11.1,3.1,0,5.7,31.2,5.4,35.1-1.8,19.1-11.1,18.8-18.6,31.1-5.3,8.6-4,16.8-13.2,23.6-3.1,2.3-8.1,3.9-11.4,6.5-9.6,7.5-7.4,15.4-23.8,12.9-9-1.4-9-10.7-13.5-16.3s-7.9-5.6-10.4-9.5c-4.1-6.3-1.6-15-4.5-22.4s-6.8-7.7-9.5-12.3c-7.9-13.4-4.2-32.9,5-44.8,10.8,10.3,17.3.6,28.2-1.8h0ZM297.6,253.5c-3.6-1.9-5,1.4-7.9,2.5-5.7,2.1-10.7,3.6-16.9,2-3.5-.9-10.5-7.2-13.3-6.4-5,6.8,7.2,11.3,12.8,11.9s25.3.4,25.3-9.9h0Z" fill="#fff"/>
  <path d="M336.4,211.7v-21.9c-18.7-6.1-39.3-5.6-46.3-27.8-2.1,0-10.5,11.1-13.4,13.4s-8.3,5.5-12.7,7.2-16.7,4-19.1,5.7-4.3,16.2-4.8,20c-1,6.9-.7,20-2.4,25.5s-6.2,7.6-7.6,10.3c-5.6,10.6-6.5,22.7-6.3,34.5l-12.3,9.6c-4.1-6.1-4.9-18-1.7-24.5s8.4-8.5,9.7-14.1-.7-11.6-.6-17.5c.2-9.8,7.1-16,10.5-24.4,5.6-14,5.5-30.1,15-42.6,23.3-30.8,89.3-23.3,106.7,10.5,6,11.6,5.4,25.3,9.6,37.1,2.3,6.3,10.2,14.7,11.2,19.6,1.9,8.9-5.1,17.8-2.3,27.2,2.8,9.4,25.6,19.4,12.9,32.7l-37.7-21.8-4.4-25.2c5.2-3.2,9.1-5.2,12-10.9,7.5-14.1,1.3-29.6-16.1-22.5h.1Z" fill="#fff"/>
  <path d="M6.1,234.1c15.1-11.5,35.2-7.3,47.3,6.5,2.4,2.7,8.3,14.5,9.1,14.8,3.5,1.2,5-1.7,7.3-2.4,15.3-4.5,27.1,5.6,29.9,20.4,6.3-1.7,9-5.9,16.2-4.7,10.8,1.7,15.6,19.6,11.2,19.6H6.1v-54.2h0Z" fill="#fff"/>
  <path d="M271.9,238.4c-.6-.8,5.5-10.6,6.4-12.8s5.2-16.1,0-14.9c-5,6.3-4.7,15.2-11,20.9s-15.2,8.4-17.2,8.8-4.7-.2-5.7-1.8c-1.9-3.2-.9-16.1-.5-20.3s3.2-23.5,5.4-25.4,18.8-5.8,24.1-8.7,10.9-8.6,16.2-13.1c6.5,17.2,26.1,18.1,41.4,22.8-.8,14.8,4.5,38.2-9.6,48.2-12.1,7.5-19.4-8.5-30.1-5.2-1.6.5-2.6,2.7-4.4,3.6-5.3,2.6-10.6,1.5-15.1-1.9v-.2ZM249.9,211.7c1.3,1,6.8-5.2,8.7-5.7,3-.9,14.9,1.8,13.2-3.7-2-6.1-27.9-1.2-21.8,9.4h-.1ZM315.9,212.3c.9.7,1.8,1.3,3,1.2,1.3-.6,2.6-1.8,2.6-3.3.2-7.7-23.8-13.6-25.8-7.9-1.3,6.8,7.5,3.7,12.1,4.6s5.6,3.6,8,5.4h0ZM255.8,218.6l-3.8,1.2c-2.3,16.2,16,15.4,17.8.8l-4-.6c-2.6,1.3-2.4,7.2-6.5,6.6-3.4-.3-2.4-5.6-3.5-8h0ZM311.6,221.7c-.8,4.2-2.9,6.7-7.5,5.9s-2.4-4.5-3.3-6.7c-2.2-5.8-7.7.8-4,8s22.9,4.1,17.7-6.8l-3-.4h0Z" fill="#fff"/>
  <path d="M484.7,287.2l32.3-13,1.5,1.5c-1.9,4.5-26,13.7-27.6,16.6-3.7,13.8,22.3-10.9,27.6-8.2,0,1.1,0,2-.5,3-15.2,18.6-39.5,32-62.2,39.8-.8-9.7-6.2-21.7-4.9-31.2,1-7.9,12.6-26.1,20.8-28.4,1.7,1.8-5,12.2-5,15.4s1.9,6.4,2.1,9.9-2.9,11.4,2.4,10.5,2.3-16.6,1.7-19.8c7.5-4.1,25.1-20.3,33.7-16.6s2.4,1.8,1.5,2.5c-6,4.4-15.4,8.2-20.9,12.9s-2.9,2.5-2.5,5h0Z" fill="#fff"/>
  <path d="M367.3,595.4l1.5,25.9-29.9,20.8c-1.4,0-1.2-1.2-.5-2.5.9-1.8,7.7-9.1,1.5-8.5-6.7.7-5,11.3-12.4,11-3.6-3.7,9.5-11.2,3.4-12.9s-9,11.8-12,12.7c-4.7,1.4-4.8-.3-4.3-2.2,1.2-4.3,8.3-6.5,7.9-11.5-6.2-1-11.2,4.1-11.9,9.9l-3.8-1.1c-1.2-8.7,9.4-12.3,14.8-17.2,7.2-6.6,7.7-10.6,6.9-20.4l38.8-4Z" fill="#fff"/>
  <path d="M206.1,636.2c-1.1-1,4.5-6.2,5.5-7,2.7-2.3,6.8-1.3,3.5-6.5-3.6-2.5-12.9,9.5-15.4,11.5l-2.4-3.3c2.4-4.2,8.5-5.1,7.9-10.6-7.3-1.8-8.6,7.9-14.9,7.9,4-16.1,31.4-12.8,33.8-31.4l34.4,3.5c1.6,2.3-.5,18.1-2.1,20.9-3.2,5.4-16,5.9-22.1,7.8-9.1,2.8-17.9,8.4-28.1,7.2h-.1Z" fill="#fff"/>
  <path d="M85.3,337.8c1.1-.1,1.9,1.7,2.8,0l.6-4.9c-6.8-.8-14.4-1.1-21.1-2.3s-6.7-.8-4.8-2.9c10.8-2.9,22.2.3,33.1,1,0,8.6,2,19,12.5,17.9,1-4.2-4.1-2.3-5.2-4.9-4.8-4.4-1.9-13.6-3.2-15.8s-12.3-4.1-10.7-10.9c6.4-1,24,9.6,28.8,14.9,3.1,3,7.1,28.3,3.9,31.7-2.2,1.5-32.5-3-37.5-4s-27.3-6.7-22.7-10.8c5.1-1.4,26.6,4.3,29.4,1.2l.4-3c-1.1-1.8-25.4-2.3-30.2-4.3s-2.1-.2-1.7-2.7c8.4.1,17.2-.3,25.7,0h0Z" fill="#fff"/>
  <path d="M338.4,238.5c-1.1-6.8-6.5-26,6.2-23.7,11.8,2.1,3.2,23.4-6.2,23.7Z" fill="#fff"/>
  <path d="M467.8,329c1.3,1.3-.9,21.1-5,22.9l-5-19.8,9.9-3h.1Z" fill="#fff"/>
  <path d="M122.5,365.8v15.9c-4.2,2.3-1.6-.8-2.1-2.3-1.5-4.3-2.6-8.7-3.9-13.1l6-.5Z" fill="#fff"/>
  <path d="M422.6,604.4c5.8.9,10.3,5.4,15.4,7.4,15.3,5.9,32.5,1.6,46.3-6.1,14.3,8.7,33,12,48.9,5.8,5.1-2,12.4-9.4,16.2-4.7-12.8,13.3-32.7,15.9-50.1,11.3-4.4-1.2-12.4-5.9-16-5.9s-10.4,4.6-15,6c-9.6,2.8-18.7,2.2-28.3-.5s-19-7-19-10.9l1.6-2.5h0Z"/>
  <path d="M37.7,602.5c2.8-.8,8.3,4.4,11.7,5.8,15.1,6.3,30.6,2.5,43.8-6,11.1,8.2,26.1,11.7,39.5,7.7,13.4-4,12.4-7.5,13.4-7.6,2.9-.2,2.9,3.4,1.4,5.4-16.4,13.2-38,11.2-55.3.8-17.6,12.3-41.8,11.4-57.2-3.8.8-.8,1.6-2,2.7-2.3h0Z"/>
  <path d="M249.7,401.7l-11.8,123.6-3.5,2.5c-2.3-.7-1.6-13.5-1.5-16.4.3-5.6,2.5-12.3,2.9-17,3-31.3,4.2-62.9,10-93.9l3.8,1.2h.1Z"/>
  <path d="M330.4,404.7c3.9,13.8,5.9,28.1,7.9,42.3,1.5,11,4.6,28.4,4.8,38.8,0,3.5-1.3,3.7-4.6,3.2l-12-84.4h3.9Z"/>
  <path d="M297.6,253.5c0,10.3-17.5,10.7-25.3,9.9s-17.9-5-12.8-11.9c2.8-.8,9.8,5.6,13.3,6.4,6.2,1.6,11.2,0,16.9-2,2.9-1.1,4.3-4.3,7.9-2.5h0Z"/>
  <path d="M315.9,212.3c-2.4-1.8-3.8-4.6-8-5.4s-13.4,2.3-12.1-4.6c1.9-5.7,26,.2,25.8,7.9s-1.3,2.7-2.6,3.3c-1.2.1-2.1-.5-3-1.2h0Z"/>
  <path d="M311.6,221.7l3,.4c5.1,10.9-13.5,15.1-17.7,6.8s1.8-13.7,4-8-1.7,5.8,3.3,6.7,6.6-1.8,7.5-5.9h0Z"/>
  <path d="M249.9,211.7c-6.1-10.6,19.9-15.5,21.8-9.4,1.8,5.4-10.2,2.8-13.2,3.7s-7.3,6.8-8.7,5.7h.1Z"/>
  <path d="M255.8,218.6c1.1,2.4,0,7.7,3.5,8,4.1.6,3.8-5.3,6.5-6.6l4,.6c-1.7,14.5-20.1,15.3-17.8-.8l3.8-1.2h0Z"/>
</svg>