<?xml version="1.0" encoding="UTF-8"?>
<svg id="Camada_1" xmlns="http://www.w3.org/2000/svg" version="1.1" viewBox="0 0 595.3 841.9">
  <!-- Generator: Adobe Illustrator 29.0.0, SVG Export Plug-In . SVG Version: 2.1.0 Build 186)  -->
  <path d="M597-1.6H-.4v844.2h597.4V-1.6ZM-6.8-3.7v850.6" fill="#fff"/>
  <path d="M569.9,390.6l-6.7,2.7-3.9,9.4c-4-5.5-3.7-10.5-11.9-11.7l.7-1.2c6.5-1.4,9.9-3.9,11.2-10.5l4,8,7.3,2.1-.7,1.2h0Z" fill="#ff0"/>
  <path d="M453.4,572.4c48.1-28.3,69,1.1,107.7,24.8,9.6,5.9,19.6,11.2,29.4,16.7v15.7c-63.5-10.9-127.7-18.7-192.3-20.2v-5.8c20.6-6.6,37-20.5,55.2-31.2h0Z" fill="#fff"/>
  <path d="M556,313.5l-1.6-5.6-4.9-2.9c5.6-.3,5.2-3.7,7.6-7.4,1.1-.3,1.8,5.4,2.8,6.2.5.4,4.8,1.1,4.7,1.5-4.2,2.1-6.4,3.2-7,8.2h-1.6Z" fill="#ff0"/>
  <path d="M559.2,402.7l3.9-9.4,6.7-2.7.7-1.2-7.3-2.1-4-8c-1.3,6.6-4.7,9.1-11.2,10.5l-.7,1.2c8.2,1.2,7.9,6.2,11.9,11.7h0ZM565.8,384.5c23.3,6.9,3.4,7.8-.2,12.1-1.5,1.9-3.2,10.6-5.8,11.4-6.2,1.1-6.1-9.1-8.4-11.5-1.4-1.5-7.5-2.7-9.4-4.2-4.7-5.8,7.2-5.7,10.5-7.8,5-13.3,8.6-15,13.3,0h0Z"/>
  <path d="M556,313.5h1.6c.6-5.1,2.9-6.1,7-8.2,0-.4-4.2-1-4.7-1.5-1-.8-1.7-6.5-2.8-6.2-2.4,3.7-1.9,7.2-7.6,7.4l4.9,2.9,1.6,5.6h0ZM562.4,300.5c2.2,1.8,9.3,1.4,8.7,5.2-.4,2.6-7,2.9-8.7,4.8s-2.1,9.3-5.6,9.3-3.9-7.8-5.7-9.8c-3.5-3.7-18.7-3.8.4-9.4l3.5-9.3h4.1l3.3,9.2h0Z"/>
  <path d="M546.1,163c-1.5-2.2-2.8-7.6-4.7-9.7-1.4-1.6-5.5-2.6-7.6-3.4,1.8-2.3,5.6-1.4,7.6-3.4.9-.9,4-9.3,4.6-9.3l4.1,9.3,9.7,2.4c-1.9,2.9-6.3,2.1-8.6,5-1.7,2.1-2.7,7.2-3.8,9.8-1.2.3-.9-.2-1.2-.7h-.1Z" fill="#ff0"/>
  <path d="M546.1,168.9c-4.8-1.7-5-10.5-7.5-13-1.9-1.9-10-3.3-10.9-5.5-2-4.6,8.9-4.5,11.1-7.1,2.5-2.7,3-14.7,8.6-12.2,2.2.9,3.8,10.1,5.5,12.3,2.3,1.2,13.3,2.3,12.6,6-1.5,3.7-8.9,4.2-11.1,6.6-2.4,2.6-3.3,14.4-8.2,12.9h-.1ZM541.4,153.3c1.9,2.1,3.2,7.5,4.7,9.7.3.5,0,1,1.2.7,1.1-2.6,2.1-7.7,3.8-9.8,2.3-2.9,6.7-2.1,8.6-5l-9.7-2.4-4.1-9.3c-.5,0-3.7,8.4-4.6,9.3-1.9,2-5.8,1.1-7.6,3.4,2,.8,6.2,1.9,7.6,3.4h.1Z"/>
  <path d="M534.1,808.8c10.9,8.9,28.7,9.8,38.5-1l-2.2-1.7c-11.6,8.4-25.5,8.2-36-2-1.9-.4-2.2,1.1-3,1.6-5.9,4.2-8,6.6-16.2,6.5-6.9,0-10.7-3.7-16.4-6l-1,1.2c7.2,11.3,27.3,10.5,36.3,1.4h0ZM465,756.1c10.9,4.3,23.9,1.7,32.5-5.8,10.3,12.5,30.1,12.1,41.6,1.5,7.6,4.6,19.1,6.3,27,1.6,1.2-.7,6.2-4.3,4.5-5.9-1.5-1.4-7.2,3.5-9.4,4.3-8.1,2.7-15.4,0-22.1-4.7-9.3,8.9-23.4,12.7-34.6,4.7-1.9-1.4-4.9-5.9-6.7-6.1-3.3,1.3-5.5,4.2-8.7,5.9-7,3.7-16.3,4.2-23.6.9-2.6-1.2-4.7-4.2-7.4-4.3-4.2,1.6,5.1,7.4,6.8,8h.1v-.1ZM387.1,791.9c-6.9,3.6-14.3,3.6-21.6,1-2.2-.8-8.8-5.7-9.7-5.3-3.9,1.8,3.1,6.2,4.7,7.1,12.2,6.6,27.2,4.2,36.6-5.7,9.4,9.8,25.3,10.9,37.1,4.7,1.7-.9,9.3-6.1,6.3-8.2-2.1-1.4-5.1,3.3-6.9,4.5-8.1,5.1-21.6,5.2-29.7.2-2.6-1.6-4.8-5.9-7.9-5.3-.8.2-6.7,5.8-9,7.1h.1v-.1ZM243.3,765.6c7.4,4.7,16.2,6.9,24.8,4.2,2.1-.6,10-4.5,8.3-7.4l-2.1-.4c-9.5,8.5-21.5,6-30.9-1.2-3.8,1.3-6.3,4.6-10,6.1-6.3,2.6-13.2,2.2-19.5,0-3.3-1.3-13.8-10.3-11.7-2.5,12.5,9.7,28.1,11.1,41.1,1.2h0ZM68,739.1c-9.1,8.6-22.4,10.8-33.7,4.8-1.3-.7-4.7-4.2-5.8-3.8l-.7,2.8c10.1,11.7,29.8,9.5,41.2.5,9.5,8.5,25.1,10.4,36.6,4.6,1.6-.8,10.8-7.5,6.5-8.9-1.3-.4-7.2,5.2-9.7,6.3-11.4,5-23.6,2-32.6-6l-1.7-.2h-.1v-.1ZM103.5,701.8c21.9-.5,37.3,14.4,58.3,15.9,19.8,1.4,36.8-9.7,55.6-8.5,19.8,1.2,37.5,16.3,58.3,18,20.9,1.7,32.8-6.4,51.5-10.9,33.1-8,56.9,11.6,89.8,8.8,22.1-1.9,37.7-18.4,59-21.6,20.1-3,37,7.4,57.1.9,6.8-2.2,12-6.5,18.1-9.3,11.7-5.3,27-7,39.4-3.5v145H6.1v-137.1c14.7,3.5,26.2,12.4,41.8,13.3,19.9,1.2,36.3-10.8,55.6-11.2v.2ZM173,803.2c-7.9,4.1-15.7,4.7-24,1-3-1.3-8.1-6.6-10.4-6.2-3.4,2.2-5.1,5.3-8.8,7.3-7,3.8-15.5,4-22.4,0-3.5-2-5.8-6.9-10-5.3-6.3,5.4-15.4,6.4-23,3.2-1.6-.6-7.1-5.3-7.4-1.8-.2,2.9,7.4,5.9,9.7,6.4,8,1.9,15.4.2,22.3-3.9,11.9,10.8,29.4,10.7,40.1-1.6,11.3,9.8,29.9,11.2,40.4,0l-.4-2.1c-2.7-.7-4,1.9-6.2,3h.1Z" fill="#fff"/>
  <path d="M538.2,659.8c-2.5-4.6,10.5-15.8,12.3-12.7,1.4,2.4-5.8,7.1-7.3,8.6s-1.8,5.5-5,4h0v.1Z"/>
  <path d="M508.6,429.9c8.8,1.6,17.8,3.9,25.6,8.4,2.2,2.4-.5,5-3.2,4.8-1.3,0-7.6-3.7-10-4.5-4.3-1.4-9.5-2.3-14-2.9l1.7-5.8h-.1Z" fill="#fff"/>
  <path d="M572.7,807.8c-9.9,10.8-27.6,9.9-38.5,1-9,9.1-29.2,10-36.3-1.4l1-1.2c5.7,2.4,9.5,5.9,16.4,6,8.2.2,10.3-2.3,16.2-6.5.8-.6,1.1-2,3-1.6,10.4,10.2,24.4,10.3,36,2l2.2,1.7h0Z"/>
  <path d="M476.5,267.2c7.1,2.1,14.9,4.1,21.9.5,1.4-.7,5.3-3.5,3.1-5-1.9-1.3-4.8,1.8-6.7,2.5-5.5,1.9-10.1.7-15.4-1.1l4.8-11.3c-.6-1.8-11.1-3.4-10.7-7.2,28.3-11.6,19.7-46.3-.3-61.7-3.2-2.4-6.8-4-10-6.4,27.5-6.6,53,6.3,67.7,29,19.5,30.1,8.7,70.6-23.3,87.3-19.9,10.4-46.5,10.7-64.4-3.6,13.3-3.2,25.2-12.3,33.3-22.9h0v-.1ZM519.1,236.2c1-2.1,1.4-5.6-2-4.9-2.5.6-4.5,13.4-12.6,7.7-3.8-2.6-1.4-8.1-3.2-9.6-1.3-1.3-2.6.8-2.9,2-2.4,10,9.9,17.1,17.4,9.2.4-.4,3.1-4.1,3.3-4.4h0Z" fill="#fff"/>
  <path d="M530.7,660.4c-1.5-.9-.5-16,4-15.9,1.5.4,0,11.8-.4,13.4-.5,1.7-1.7,2.9-3.6,2.5Z"/>
  <path d="M520.2,646.5c3.9,2.7,5.8,7.5,6.1,12.1-2.8,6-4.2-3.2-5.4-5.4-.8-1.5-2.3-2.4-2.6-3-.7-1.1-.9-2.2-.7-3.5l2.5-.2h.1Z"/>
  <path d="M502.6,348c4.9,2.5,8.2,3.2,8.6,9.6l1.1-.7c1.2-5,3.4-7.3,8.6-8.3-1.2-1.6-4.9-1-6.3-2.3-.8-.8-2-4.9-2.3-6.2l-4,6.4-5.7,1.6h0v-.1ZM514.4,361.5c-4.9,7.5-6.3-5.5-8-7.4-1.6-1.7-13.1-3.7-8.1-8l7.9-3.1,3.4-7.6c6-3.8,5.6,5.8,7.9,7.7,1.8,1.6,7.4,1.3,8.8,4.1,1.3,4.1-7.1,4.7-8.8,6.6-1,1.1-2,5.9-3.1,7.6h0v.1Z"/>
  <path d="M511.8,420.8c1.2-.9,25.9,6,26.7,10.6.8,1.3-.7,3.7-2.1,3.6-7.8-4.5-16.7-6.6-25.4-8.5l-.8-1.1,1.6-4.6h0Z" fill="#fff"/>
  <path d="M511.2,357.6c-.4-6.4-3.7-7.1-8.6-9.6l5.7-1.6,4-6.4c.3,1.3,1.5,5.5,2.3,6.2,1.4,1.3,5.1.6,6.3,2.3-5.2,1-7.4,3.3-8.6,8.3l-1.1.7h0v.1Z" fill="#ff0"/>
  <path d="M489.9,420.8c5,.7,11.9-9.9,11.9-14.4,7.3,2.3,15,4.2,22.1,6.9,2.4.9,9.9,3.7,11.3,5.3,1.2,1.3,2.5,5.2,0,5.3-3.9-1.5-7.8-3.2-11.8-4.4-4-1.2-10.4-.4-11.2-4.9h-2.2l-9.2,24.4.9,1.3c2.3-.2,2.6-1.7,5.3-1.5,2.6.2,19.1,4.6,19.2,7.1.2,3.5-6.4,4-8.9,4-14.2,0-31.2-7.2-42.9-14.7l-.5-29.6c1.8-3.7,16.6-9.1,21-11.2,3.1-1.5,7.3-6.6,10.5-2.6l.8,1.5c-1.6,1.4-2.4,3.6-3.8,5.4-.9,1.1-3.8,3.1-4,3.5-1.3,2.3-.7,6.9-3.1,10.3-.9,1.3-10.5,7.6-5.6,8.4h.2v-.1Z" fill="#fff"/>
  <path d="M457.7,176.1c26.4-11.2,56.7,2,73.1,23.5,7.1,9.3,9.9,17.5,13.3,28.2v22.6c-7.8,41.3-53.1,66-93.3,49-2.9-1.3-11.9-5.8-12.7-8.7l.3-2.4c17.5-5.1,34-16.7,41-33.7-3.5-1.6-11.6-4.8-10.1-9.7.5-1.6,13.3-8.1,16.3-14.7,6.7-14.5-2.7-33.3-14.3-42.8-2.6-2.1-13.7-7.6-14-9.7,0-.6,0-1.1.4-1.5h0v-.1ZM473.1,183.8c20,15.4,28.6,50,.3,61.7-.4,3.8,10.1,5.5,10.7,7.2l-4.8,11.3c5.3,1.8,9.9,3,15.4,1.1,2-.7,4.8-3.8,6.7-2.5,2.2,1.5-1.7,4.3-3.1,5-7,3.6-14.9,1.6-21.9-.5-8.1,10.6-20,19.7-33.3,22.9,17.9,14.3,44.4,14,64.4,3.6,32-16.7,42.8-57.1,23.3-87.3-14.7-22.7-40.1-35.6-67.7-29,3.1,2.4,6.8,3.9,10,6.4h0v.1Z"/>
  <path d="M498.4,231.5c.3-1.2,1.6-3.3,2.9-2,1.8,1.5-.6,7,3.2,9.6,8.1,5.7,10.1-7.2,12.6-7.7,3.4-.8,3,2.8,2,4.9-.2.4-2.9,4-3.3,4.4-7.5,7.9-19.8.9-17.4-9.2h0Z"/>
  <path d="M570.6,747.5c1.7,1.7-3.3,5.3-4.5,5.9-7.9,4.6-19.4,2.9-27-1.6-11.5,10.6-31.3,11-41.6-1.5-8.6,7.5-21.6,10.2-32.5,5.8-1.7-.7-11.1-6.5-6.8-8,2.7,0,4.8,3.1,7.4,4.3,7.3,3.3,16.6,2.8,23.6-.9,3.2-1.7,5.4-4.5,8.7-5.9,1.8.2,4.8,4.8,6.7,6.1,11.2,8.1,25.3,4.2,34.6-4.7,6.6,4.6,13.9,7.4,22.1,4.7,2.2-.7,8-5.7,9.4-4.3h-.1v.1Z"/>
  <path d="M552.6,503.8c18.6-6,31.4,22.3,6.9,24.3-33.6,2.8-71.2-2.2-105.3,0-14.2-1.4-8.7-18.6,4.8-16.5,2.9.5,4.9,3.5,7.8,3.1.8-2.9-.5-5.1.8-8.3,3.3-8.2,15.4-10.8,22.4-5.7,2.1,1.5,3.3,5.3,6.5,4.2,1.4-2.9,1.1-5.9,2.1-9.1,6.3-19.6,34.9-22,44.5-3.7,1,1.9,2.1,3.5,2.3,5.9.2,2-1.1,8.8.4,9.2,2.5-.5,4.3-2.8,6.6-3.6h0l.2.2h0Z" fill="#fff"/>
  <path d="M465.1,676.9l-2.4.5c-.8-5.7,4-13.8,10.3-13.8,1.9,1.9-8.3,10.1-7.8,13.3h-.1Z"/>
  <path d="M416.9,87.5c.2.3,2.2,1.8,2.7,2.4l151.2.9c7.6-.6,8.4-9.8,7.8-15.7-1.6-15.7-19.7-22.7-32.3-13.8-1.4,1-3.3,4.8-5.4,3.7-1.9-.9,0-7,0-9.6-1.3-29.9-49.8-36.6-61-8.3-1,2.6-.5,11.7-4.1,9.2-10.7-15.6-31.8-2.6-26.2,14.1-1.8,4.3-4.3-.3-6.3-1.2-6.5-3.2-11.7-2.9-18,.6-5.2,2.9-11.4,11.8-8.4,17.7h0ZM572.3,57.5c11.6,6.8,16.7,32.3.4,36.8l-149.8.3-7-2.1c-12.5-17.4,12.2-34.7,28.9-27.1,0-13.6,11.9-22.6,25.3-18.8,2.1.6,3.3,2.3,5.5,2.3,8.6-31.8,56.2-31.2,67.7-1.3,1.1,2.8,2.3,5.9,1.9,9.3,8.9-3.7,18.5-4.4,27.1.6h0Z"/>
  <path d="M578.6,75.2c.6,5.9-.2,15.1-7.8,15.7l-151.2-.9c-.4-.6-2.5-2.1-2.7-2.4-3-5.9,3.2-14.8,8.4-17.7,6.3-3.5,11.5-3.8,18-.6,2,1,4.5,5.6,6.3,1.2-5.6-16.7,15.5-29.7,26.2-14.1,3.7,2.5,3.1-6.6,4.1-9.2,11.1-28.3,59.6-21.6,61,8.3,0,2.6-1.9,8.7,0,9.6,2.2,1.1,4-2.7,5.4-3.7,12.7-8.9,30.7-1.9,32.3,13.8h0Z" fill="#fff"/>
  <path d="M454.3,528.1c34-2.2,71.6,2.8,105.3,0,24.5-2,11.7-30.3-6.9-24.3-2.3.7-4.1,3.1-6.6,3.6-1.6-.4-.2-7.2-.4-9.2-.3-2.5-1.3-4.1-2.3-5.9-9.6-18.4-38.2-15.9-44.5,3.7-1,3.2-.7,6.2-2.1,9.1-3.2,1-4.5-2.8-6.5-4.2-7-5.1-19.1-2.5-22.4,5.7-1.3,3.2,0,5.3-.8,8.3-2.9.4-4.9-2.6-7.8-3.1-13.5-2.2-19,15.1-4.8,16.5l-.2-.2h0ZM549.5,501c13.9-5.8,30.2,4.6,26.7,20.2-1.6,7-8.6,9.6-15.1,10.1-35.2,2.8-74-2.1-109.6,0-20.7-4.9-4.9-29.6,11.3-22.3,1.5-6.5,5.8-11.8,12.6-13.6,7.3-2,12.5.2,19,3,5.4-30.9,53.5-28.6,55,2.6h.1Z"/>
  <path d="M454.3,677.4c-.7,0-1-.3-1.3-.9-1.1-2.7-.4-15.2,3.5-15.5l1.6,1.9c-1.4,2.6-.2,15-3.9,14.6h0l.1-.1Z"/>
  <path d="M444.1,128.6c3.7-.1,3.8,7.2,5.2,9.4,12.3,2.8,9.2,5.9-.7,8.9-1.7,2.1-2.2,8.8-5.3,9.2l-2.8-1.3c-1.4-1.9-1.8-6.7-3-8.2-1.2-1.4-6.4-2.7-7.8-5.1l.4-1.3,8.3-2.9c2.2-2.7,1.6-8,5.7-8.8h0v.1ZM438,142.5c3.4.5,3.5,4,4.2,6.8h1.6c.9-4.9,3-4.9,6.5-7.4l-3.8-1.3-2.4-5.6c-.9,3.1-2.7,6.8-6.7,6.4l.7,1.2h-.1v-.1Z"/>
  <path d="M437.8,352.8c1.3.3.9-.2,1.2-.7,1.3-1.8,1.7-6.1,3.1-7.5,1.1-1.2,8.9-3.8,9.1-4.8-6.3-2-11-2.2-11.9-9.8-1.2-.3-.9.2-1.2.7-1.1,1.6-1.8,6-3.1,7l-8.1,2.7c7.4,2,9,5.4,10.8,12.5h.1v-.1ZM439.4,358.4c-5.2,2.3-5.6-9.7-7.8-11.9-1.9-2-10.2-2.8-10-7.1.4-2.9,8.5-3.4,10.8-4.8,1.7-2.3,3.9-12.2,7.2-11.9,2.7.5,1.9,3.2,2.8,5,.6,1.3,2.5,5.4,3.3,6.1,2.2,2,15.3,3.5,10,8.2-2.1,1.7-8.4,3.3-9.9,5.1-1.8,2-2.9,9.4-6.2,11.4h-.2v-.1Z"/>
  <path d="M437.8,352.8c-1.8-7-3.4-10.5-10.8-12.5l8.1-2.7c1.3-1,2-5.4,3.1-7,.3-.5,0-1,1.2-.7.9,7.7,5.6,7.8,11.9,9.8-.2,1-8,3.6-9.1,4.8-1.4,1.4-1.9,5.7-3.1,7.5-.3.5,0,1-1.2.7h-.1v.1Z" fill="#ff0"/>
  <path d="M437.3,141.3c4,.4,5.8-3.2,6.7-6.4l2.4,5.6,3.8,1.3c-3.5,2.5-5.6,2.5-6.5,7.4h-1.6c-.6-2.7-.8-6.2-4.2-6.7l-.7-1.2h.1Z" fill="#ff0"/>
  <path d="M436.8,667.5v-2.3c4.1-1.9,13.9,9.8,10.8,12-2.5,1.7-3.2-2.5-4.1-3.4-1.9-2-5-3.8-6.7-6.2h0v-.1Z"/>
  <path d="M413.5,269.1c1.2,1.3,2.8,7.9,3.5,8.3,1.4.6,1.1-.3,1.4-.8,3.2-5.1,1.9-8.7,9.6-11.2-5.8-2.2-8.9-2.2-9.7-9.3h-1.6c-1.5,5.7-3.3,8.7-9.7,9-1.2.9,5.8,3.2,6.5,4h0ZM417.1,282.6c-4.5-.7-4.2-8.8-6.4-11-2.5-2.5-10.1-2-9.6-6.8.5-3.1,8.1-2.9,10.2-4.8,1.4-2.4,3.7-13.8,8.5-9.7,1.4,1.2,2.3,7.5,3.5,9.3,1.9,1.3,11.2,2.4,11.2,5.2-1.2,4.1-7.6,4.3-9.7,6.4-2.1,2.2-2.9,11.7-7.8,11.4h.1Z"/>
  <path d="M417,277.3c-.7-.3-2.3-6.9-3.5-8.3-.7-.7-7.7-3-6.5-4,6.5-.3,8.3-3.3,9.7-9h1.6c.8,7.1,3.9,7,9.7,9.3-7.8,2.5-6.4,6.1-9.6,11.2-.3.5,0,1.4-1.4.8h0Z" fill="#ff0"/>
  <path d="M410.8,194.2c0,.8-6.1,2.8-7,3.7-1.2,1.2-2.9,8.8-4,8.8l-3.7-8.9-7.9-3.3,8.5-2.8,3.1-7.3,3.6,7.3,7.4,2.5Z" fill="#ff0"/>
  <path d="M398.2,211.4l-5.2-10.8c-3.1-2-10.8-2.1-9.7-7.3.6-1.8,8.3-3.3,9.9-4.6,2.2-1.7,3.9-13.8,8.4-9.9,1.5,1.9,1.8,4.5,2.9,6.5.3.5,2.2,3.5,2.5,3.6,1.6,1.1,6.4,1.2,8.4,2.9,4.2,4-6.6,6.9-8.1,8.6-2.5,2.7-3.6,12.9-9.1,11h0ZM403.8,197.9c.9-.9,7.1-2.8,7-3.7l-7.4-2.5-3.6-7.3-3.1,7.3-8.5,2.8,7.9,3.3,3.7,8.9c1.1,0,2.8-7.6,4-8.8Z"/>
  <path d="M235.1,494c.7-3.3,1.5-6.7,2.6-10,29.9,10.6,63,9.8,94.4,8.5.4,23.7-.2,48.4,2.2,72,.3,2.9.7,10.4,2.7,12.2,4,3.6,28.5,4.1,29-3.1l-11.3-82.8-1-.9,16.5-5.3,1.2.8c3.6,11.5,5.3,23.5,7.7,35.3,5,24.3,10.1,50.9,13.4,75.2,1.5,11,4.4,29.1,3.8,39.7-.3,4.7-11.6,7.7-15.7,9-41,12.4-107.1,11.1-148.3-.4-3.7-1.1-16.8-4.4-17.8-8.1-1.1-2.1,1-3.5,1.1-4.1,4.9-44.9,10.3-93.8,19.5-138h0Z" fill="#fff"/>
  <path d="M376.3,129.6l-3.4-9.9-7.4-3.3,8.4-2.7,2.9-7.2,1.1-.7c0,1.7,2.4,7.9,3.4,8.9.9.9,6.8,1.6,6.9,2.5-4.4,2.6-6.6,2.2-9.1,7.1-.2.5-1.6,6.8-2.7,5.4h0l-.1-.1Z" fill="#ff0"/>
  <path d="M376.3,129.6c1.1,1.4,2.5-4.9,2.7-5.4,2.5-4.9,4.7-4.5,9.1-7.1,0-.9-6-1.6-6.9-2.5-1-1-3.3-7.2-3.4-8.9l-1.1.7-2.9,7.2-8.4,2.7,7.4,3.3,3.4,9.9h0l.1.1ZM375.7,135.3c-2.4-.6-4.1-10.3-5.6-12.5-2.3-2-8.5-2.6-9.6-5.5-1.7-4.4,8.5-4.6,10.6-6.8,3-3.2,2.4-15.5,9.4-9.7l3.4,10.7c1.9,1,9.5,2.9,10.1,4.8,1.2,4.1-8.1,5.1-10,7.2-1.9,2-2.9,13.3-8.3,11.9h0v-.1Z"/>
  <path d="M247.8,371c-.5,4.3-7.8,5.2-10.7,7.6-8.6-5.9-2.9-15.3.6-22.3s4.5-5.8,4.8-9.6c.1-1.9-1.2-7.6-1.7-10,0-.4-1-.2-1.1-1.1-1.5-10.9,7.8-19.6,10.1-28.9,2.9-11.6-.6-18.4,6.4-30.3,5.7-9.7,9.7-8.1,18.4-11.6,4.6-1.9,9.3-4.9,13.9-6.5,23.2-8.3,52.6-1.5,65.9,19.9,5.3,8.5,6.8,18.9,11.4,27.3,2.2,4.2,7.1,8.6,9.8,12.7,9.3,14.5,2.3,20.1,4.6,34.3,1.4,9,15.6,19.1,6.4,30.4l-25.2-15c1.3-6.4-.4-12.8-1.7-19,8.1-4.9,13.4-13.2,11.1-22.8-2.3-9.7-11.8-7.1-19-9.4-9.3-3-14.7-17.7-14.3-26.6-18.4,1.5-43.1.4-55.2-15.2-1.8-1.5-3.2,0-4.6,1.2-6.1,5.3-10.6,12.8-19.4,15.1l2,3.8c-1.5,4.6-2.7,9.3-3.5,14.1-1.1,6.3-1,12.9-1.9,18.8-.5,3.4-5.6,11.2-7.1,15.3-2.3,6.3-3.8,11.9-2.9,18.8.3,2.7,3.2,7.6,3.1,9h-.2,0Z" fill="#fff"/>
  <path d="M358,344.3l-1-11.9,5.3-4.3-1.4-1.7-4,1,.2-5.3c3.8-1.3,7.2.7,9.2,4,4.8,8.2-6.8,19.9-8.3,18.3h0v-.1Z" fill="#fff"/>
  <path d="M361.9,475.6c.7-.2,1.4-.5,2-.7-.6.3-1.3.5-2,.7Z" fill="#fff"/>
  <path d="M358.7,653.5c1.8.5,3.3,23.6,2.3,26.6,0,.2-.1.3-.2.5s-.3.3-.4.5c-.1,0-.3.3-.4.4s-.3.3-.5.4c-.5.4-1.1.7-1.8,1.1-.3.2-.6.3-.9.5-1.6.8-3.6,1.6-5.9,2.4-.4,0-.7.3-1.1.4-.3,0-.7.2-1.1.4-1.3.4-2.7.8-4,1.3-.5,0-1,.3-1.4.4-.5.2-1,.3-1.5.4h0c-.5,0-1,.3-1.6.4-.5,0-.9.3-1.4.4-.5,0-1.1.3-1.6.4-.9.2-1.8.5-2.7.7-.3,0-.6,0-.9.2-.6,0-1.2.3-1.8.4s-1.2.3-1.7.4c-1.1.2-2.2.5-3.3.7-.3,0-.5,0-.8.2-.5,0-1,.2-1.5.3h-.7c-.5,0-.9.2-1.4.2-2.9.4-5.1.6-6,.3-.6,0-.4-1.2-.2-1.5,1.3-2,9.5-6.3,9.9-7s.5-1.3-.3-1.9c-6.1-.5-12,5-14.6,10.1-1.4.8-7.5.4-6.3-2.4,2.1-3.9,5.5-5.9,9.2-7.9l-.3-2.4c-6.3,0-11.7,5.6-13.8,11-9.7-2.9-3.2-9.1,1.9-12.6,7.2-5.1,15.5-8.7,23.3-12.7v-9.3l33.6-3.2h0v-.2l-.1.1Z" fill="#fff"/>
  <path d="M360.7,680.6c-.1.2-.2.3-.4.5.2-.2.3-.3.4-.5Z" fill="#fff"/>
  <path d="M357.6,683c-.3.2-.6.3-.9.5.3-.2.6-.3.9-.5Z" fill="#fff"/>
  <path d="M355.8,787.6c.9-.4,7.5,4.5,9.7,5.3,7.3,2.6,14.7,2.6,21.6-1,2.4-1.3,8.2-6.9,9-7.1,3.1-.6,5.3,3.7,7.9,5.3,8.1,5,21.6,4.9,29.7-.2,1.8-1.1,4.8-5.9,6.9-4.5,2.9,2-4.7,7.3-6.3,8.2-11.8,6.3-27.7,5.1-37.1-4.7-9.4,9.9-24.4,12.3-36.6,5.7-1.6-.8-8.6-5.3-4.7-7.1h-.1v.1Z"/>
  <path d="M347.2,234c3.8-1.5,5.2-2.5,5.9-6.6,0,0,1.3.5,1.4.7.9,1.1.7,3.3,1.8,4.4l3.8,1.6c-3.5,1.5-4.6,2.5-5.4,6.3l-1.6.9-1.9-5.3-4-1.9h0v-.1Z" fill="#ff0"/>
  <path d="M354.9,247.5c-5.4,1.7-4.5-6.7-6.9-9-11.7-4-9.6-5.7.6-9.5l4.4-9c4.3-1.3,4.6,7.1,6.4,9.5l8.3,3.5c1.1,3.1-7,4.4-8.4,5.6-1.3,1.1-1.9,8-4.3,8.8h-.1v.1ZM354.7,240.3c.8-3.8,1.8-4.8,5.4-6.3l-3.8-1.6c-1-1-.9-3.3-1.8-4.4-.1-.2-1.4-.7-1.4-.7-.7,4.2-2.2,5.2-5.9,6.6l4,1.9,1.9,5.3,1.6-.9h0v.1Z"/>
  <path d="M355.6,477.3c-.9.2-1.7.4-2.7.6.9-.2,1.8-.4,2.7-.6Z" fill="#fff"/>
  <path d="M361.8,573.5c-4.6,2.2-10.9,2.4-16,1.9-3.7-.3-6.5-.5-7.2-4.6-3.5-25.6-2.4-52.7-2.8-78.5l14.6-1.9,11.4,83.1h0Z" fill="#fff"/>
  <path d="M350.8,685.8c-.4,0-.7.3-1.1.4.4,0,.8-.3,1.1-.4Z" fill="#fff"/>
  <path d="M323.4,156.5c3.1-4.8,2.9-12.1,8.5-15,4.1-.3,5.9,12.2,8,14.7l14.7,4.9c.3.5.3,2.4,0,3-.9,1.9-11.9,5.4-13.9,7.3-2.5,3.9-4.2,12.9-6.8,16.2,0,.1-.1.2-.2.3-.8.8-1.5,1-2.3.7-.1,0-.2-.1-.3-.2-.1,0-.2-.1-.3-.2-.1,0-.2-.2-.3-.3-.2-.2-.5-.5-.7-.8l-.3-.5c-1-1.4-2-3.4-2.8-5.5h0c-.2-.4-.4-.9-.6-1.3-.4-1-.8-2.1-1.2-3-.7-1.9-1.3-3.4-1.7-4-4.8-3.4-13.8-3.5-16.5-8.8,0-4.1,13.6-5.2,16.7-7.4h0v-.1ZM337.8,168.5l11-5.1-11.6-4-4.6-11.7c-1.3-1.5-3.1,6-3.3,6.5-.7,1.4-2.6,3.5-3.2,5.5l-13.5,4.3,13.5,5.9,6.2,11.9,5.5-13.2h0v-.1Z"/>
  <path d="M283.9,307.6c1.8-9.7-19.5-6.2-17.2,1.8l1.7.6c5.1-5,9.3-2.6,15.5-2.5h0v.1ZM323.4,311.6l2.6.2c3.9-8.5-15.1-12-16.6-6.4-1.3,5.1,12,.6,14,6.2h0ZM305.9,338.4c-6.2,0-11.1,7.7-18.8,3.1-4.1-2.8-2.5-6.5-.7-10.1,1.3-2.4,7.9-7.9,5.5-10-1.8-1.5-2.9.2-4,1.3-3.7,3.8-7.2,10.1-7.6,15.4-3.7,1-6.9,2.8-9.7,5.3-1.3,1.1-3,4.9-5,4.5-13.2-14.5-4.7-38.5-.9-55.4l16.7-12.8c13.2,13.8,34.7,15.1,52.9,14.6-.2,5.7,2.2,10.9,4.6,16,.8,1.7,2.8,2.8,2.5,5-2,8.6-3.7,22.8-10.3,29.2-7.4,7.1-7.7,1-13.6-2.5-2.7-1.6-8.3-3.6-11.4-3.7h-.2v.1ZM273.1,328.8c4.2,1.1,6.4-3.6,5.5-7,0-.1-1.6-2.3-1.7-2.4-1.9-1.5-4.6-.6-5.3,1.7-.9,1.8-.8,7,1.5,7.7h0ZM317.3,328.7c1.7-1.4,2-8.7-.8-9.8-8.2-2.6-5.7,14.9.8,9.8Z" fill="#fff"/>
  <path d="M329.3,154.2c.2-.4,2-8,3.3-6.5l4.6,11.7,11.6,4-11,5.1-5.5,13.2-6.2-11.9-13.5-5.9,13.5-4.3c.6-1.9,2.5-4,3.2-5.5h0v.1Z" fill="#f3e600"/>
  <path d="M334.2,82.6c-5.8,10.4-9.8-9.8-13-12.7-2.5-2.3-16.4-4.4-13.7-9.9l15.2-6.5c2.4-3.3,3.8-14,8.5-14.2,1.1,0,1.7,0,2.4.9,1.8,2.2,3.4,11.2,5.2,13,2.3,1.5,11,2.7,12.5,4.4.7,1.1.8,2.1.4,3-.1.2-.2.5-.4.7-2.2,3-9.5,4.7-11.7,6.6-2.3,4.4-3.1,10.6-5.5,14.8h.1v-.1ZM324.2,66.9c.5.5,6.4,13.8,7.3,13.3,1.8-3.6,2.7-12.3,4.9-15.1,2.3-2.9,7.8-2.8,10.2-5.6l-10.5-3.2-5.1-11.2-5.4,11.4-12.2,4.4-.7,1.2c2.7,1.6,9.7,2.8,11.6,4.8h-.1Z"/>
  <path d="M331.5,80.2c-.9.5-6.7-12.8-7.3-13.3-1.9-1.9-9-3.2-11.6-4.8l.7-1.2,12.2-4.4,5.4-11.4,5.1,11.2,10.5,3.2c-2.4,2.9-7.9,2.7-10.2,5.6-2.2,2.8-3.2,11.5-4.9,15.1h.1Z" fill="#ff0"/>
  <path d="M330.8,188.1s.2.2.3.2c0,0-.2-.1-.3-.2Z"/>
  <path d="M330.4,187.8c.1.1.2.2.3.3-.1,0-.2-.2-.3-.3Z"/>
  <path d="M329.4,186.5l.3.5c-.1-.1-.2-.3-.3-.5Z"/>
  <path d="M326.6,181.1c.9,2.1,1.8,4,2.8,5.5-1-1.4-2-3.4-2.8-5.5Z"/>
  <path d="M326,179.7c.2.4.4.9.6,1.3-.2-.4-.4-.9-.6-1.3Z"/>
  <path d="M316.6,318.9c2.7,1.1,2.5,8.5.8,9.8-6.5,5-9-12.4-.8-9.8Z"/>
  <path d="M323.4,311.6c-1.9-5.6-15.3-1.1-14-6.2,1.4-5.5,20.5-2,16.6,6.4l-2.6-.2h0Z"/>
  <path d="M538.2,659.8c3.2,1.4,3.5-2.5,5-4s8.7-6.3,7.3-8.6c-1.8-3.1-14.8,8.1-12.3,12.7h0v-.1ZM530.7,660.4c1.9.5,3.1-.7,3.6-2.5.5-1.6,1.9-13,.4-13.4-4.5-.2-5.4,15-4,15.9ZM518.4,650.1c.3.6,1.8,1.5,2.6,3,1.2,2.2,2.5,11.4,5.4,5.4-.3-4.6-2.2-9.4-6.1-12.1l-2.5.2c-.2,1.3,0,2.4.7,3.5h-.1ZM454.3,677.4c3.6.4,2.5-12,3.9-14.6l-1.6-1.9c-3.9.3-4.7,12.8-3.5,15.5.3.6.5.9,1.3.9h0l-.1.1ZM436.8,667.5c1.7,2.5,4.7,4.2,6.7,6.2.9,1,1.7,5.2,4.1,3.4,3.1-2.2-6.7-13.8-10.8-12v2.3h0v.1ZM134.8,640.7c3.7,2.8,7.4,5.4,9,10l2.1-.2c1.8-3.4-2.7-9.3-5.6-11-2.1-1.3-6.7-3.2-5.5,1.2ZM43.6,667.9c1.2,2.1,3.5,11.1,5.7,9.3l1.6-2.7c.3-1.1-.8-.7-.9-1-2.5-7.5-7-16.4-15.9-17.1v2.7c3.9,2.7,6.9,4.6,9.4,8.8h.1ZM68.7,677.2c2,1.4,4.6-3.5,6.3-5.1,2.7-2.5,6.2-4,9.5-5.6v-2.2c-1.1-.5-2.3-.3-3.4,0-4.1.7-14.5,7.9-12.3,12.9h-.1ZM66.7,657.2c1-1.7,1.2-3.1-1.9-2.5-5.4.8-11.5,18-8.2,22.7,2.7.8,3.5-9.4,4.3-11.7.7-1.9,1.8-3,2.7-4.5.2-.3.4-.6.7-.9.2-.2.4-.5.6-.7,0,0,.2-.3.3-.4.2-.3.4-.5.6-.8,0,0,.2-.3.3-.4.2-.3.4-.5.5-.8h.1ZM589.4,687.8c-11.9-2.7-26.8-1.3-38.1,3.3-6.3,2.6-12.4,7.7-19.1,9.9-17.8,6-35.5-2.8-54.2-1.3-23.7,1.8-40,21.1-65.2,22.4-24.7,1.2-48.2-13-71.8-11.7-20.2,1.1-38.7,14.1-59.3,13.8-23.7-.3-41-16.6-62.6-18.1-25.1-1.7-41.2,13-67.8,6.1-15.2-3.9-25.4-12.6-42.3-13.6-24.6-1.5-41.9,13.9-66.8,10-12.9-2-23-10.4-35.8-12.5v-62.6c10.6-1.8,21.3-3.4,31.9-5,6.4-.9,12.8-1.9,19.2-2.7,51.3-7,103.2-11.6,154.8-12.7.7,1-2.1,20.8-1.4,25.2v.3c0,.2.2.4.3.6,0,0,.1.2.2.3.2.2.3.4.5.6.3.3.7.6,1.1.9.3.2.6.4.9.6,2.3,1.4,5.6,2.7,9.5,3.9.4,0,.8.3,1.2.4.5,0,.9.3,1.4.4.3,0,.6.2.9.3,4.4,1.2,9.1,2.3,13.3,3.3.5,0,.9.2,1.4.3,3.2.7,6,1.3,8,1.9.3,0,.6.2.9.2.5,0,.9.3,1.3.4l-1.1,4.2c-8,2.7-33,12.3-35,20.8-2.2,9.4,11.5,12.4,18.6,12.8,8.2.5,40.9-4.7,49-7.4,2.1-.7,6.8-3,6.8-5.6v-21h30.8v7.4c-7.2,3.5-21.5,9.6-26.7,15.4-3.6,3.9-4.7,10.9.5,13.8,13.3,7.5,38.6,1.8,52.5-2.5,4.9-1.5,13.2-3.8,16-8.2,3.8-5.9,0-23.1-.7-30.2,7.8-2.1,30.2-5.5,35.1-11.4s-.2-21.1.5-28.4c64.3,3.2,129.4,8.1,192.1,21.5v53.1l-1.1.6h0l.2.2h.1ZM153.1,650.3c1.2,1,2.6.8,3-.8s.9-12.7-.2-13.6l-1.6-.4c-3.2.8-1.8,12.3-1.2,14.8ZM465.1,676.9c-.4-3.1,9.7-11.4,7.8-13.3-6.3,0-11,8.1-10.3,13.8l2.4-.5h.1ZM175.3,638.6l.3-2.1c-4.9-2.4-16.2,10.7-13.8,13.8h3.3c2.1-5,5.6-8.9,10.2-11.7h0Z" fill="#fff"/>
  <path d="M248.4,479.5c28.7,7.1,69.6,7,98.9,2.8,7.7-1.1,15.1-2.3,22.2-5.8l.8,1.8-1.3,2.2c-8.1,8.2-61.3,9.7-74,9.2-10.7-.4-48.1-3.5-55.2-9.9l-1.1-3.1c.3-.9,8.4,2.3,9.7,2.6h0v.2h0Z" fill="#fff"/>
  <path d="M282.4,111.3l7.6,3.4c-8.6,1.7-7.7,7-11.1,13.3l-4.3-9.5-7.8-4,7.9-2.9,4.3-8.5,3.5,8.2s-.1,0-.1,0Z" fill="#ff0"/>
  <path d="M284.3,480.8c-.7,0-1.4,0-2.1-.1.7,0,1.4,0,2.1.1Z" fill="#fff"/>
  <path d="M283.7,357.6c4.4,4.1,15.2,1.9,20.2-.3,2.3-1,3.7-3.6,6.4-2.9v2.8c-5.6,6.5-24.1,9.1-29.9,2.5-1-1.2-2.9-4.5-1.4-5.6,3-1.2,3.1,2.1,4.6,3.5h.1Z"/>
  <path d="M285.6,108.7c14.1,3.6,12.5,7.5.2,12.1l-5.9,12.5-2,.5c-2.6-.2-5-10.1-6.3-12.4-2.3-2.8-10.4-1.9-11.2-6.8.3-3.6,8.8-3.8,11-5.6,2.1-1.8,3-8.8,4.8-11.2,7.3-3.3,6.3,7.1,9.4,10.9ZM278.9,128c3.4-6.3,2.5-11.6,11.1-13.3l-7.6-3.4-3.5-8.2-4.3,8.5-7.9,2.9,7.8,4,4.3,9.5h.1Z"/>
  <path d="M279.4,480.5c-.6,0-1.2,0-1.8-.1.6,0,1.2.1,1.8.1Z" fill="#fff"/>
  <path d="M274.3,762.1l2.1.4c1.7,2.9-6.2,6.8-8.3,7.4-8.6,2.6-17.5.4-24.8-4.2-13,9.9-28.6,8.5-41.1-1.2-2.1-7.8,8.4,1.3,11.7,2.5,6.3,2.4,13.2,2.8,19.5,0,3.6-1.5,6.2-4.8,10-6.1,9.4,7.1,21.4,9.6,30.9,1.2h0Z"/>
  <path d="M277,480.3c-1,0-2-.2-3-.3,1,0,2,.2,3,.3Z" fill="#fff"/>
  <path d="M271.6,321.1c.7-2.2,3.4-3.2,5.3-1.7.1,0,1.7,2.2,1.7,2.4.8,3.4-1.3,8-5.5,7-2.3-.7-2.4-5.9-1.5-7.7h0Z"/>
  <path d="M270.5,222.9l1.1.8c1.6-6.6,2.8-10.9,10.1-12.6l.7-1.2-7.3-2.1-3.8-7.5c-1.1.3-2.4,6.6-3.5,7.7-1.4,1.3-6.6,1.2-8.1,3.5l7.6,2.9,3.2,8.6h0v-.1ZM273.1,194.6c2.1,1.5,2.7,8.3,4.2,9.9,2,2.2,10.9,1.1,10,6.1-.6,3.3-7.8,4.5-9.6,6.8-1.8,2.4-2.4,9.7-5.5,10.8l-1.9.2c-2.8-.4-5-9.5-6.8-11.5-1.8-1.9-9.9-3.1-9.6-6.3.3-3.4,8-3.7,10.4-5.6.4-.3.8-.8,1.1-1.3.2-.4.4-.7.6-1.2.2-.4.4-.9.6-1.3.1-.3.2-.6.4-.9.2-.6.5-1.3.7-1.9.2-.5.4-.9.6-1.3.1-.3.3-.5.4-.8,1-1.8,2.3-2.8,4.3-1.7h.1Z"/>
  <path d="M281.7,211.1c-7.3,1.7-8.6,6-10.1,12.6l-1.1-.8-3.2-8.6-7.6-2.9c1.4-2.2,6.6-2.1,8.1-3.5,1.2-1.1,2.4-7.4,3.5-7.7l3.8,7.5,7.3,2.1-.7,1.2h0v.1Z" fill="#ff0"/>
  <path d="M283.9,307.6c-6.2-.2-10.4-2.5-15.5,2.5l-1.7-.6c-2.3-8,19-11.5,17.2-1.8h0v-.1Z"/>
  <path d="M269.1,479.5c-1.3-.1-2.5-.3-3.7-.5,1.2.2,2.5.3,3.7.5Z" fill="#fff"/>
  <path d="M264.8,479c-.5,0-1-.1-1.5-.2.5,0,1,.1,1.5.2Z" fill="#fff"/>
  <path d="M280.5,359.7c5.8,6.6,24.3,4,29.9-2.5v-2.8c-2.7-.7-4.1,1.9-6.4,2.9-5.1,2.2-15.8,4.3-20.2.3-1.5-1.4-1.6-4.7-4.6-3.5-1.6,1.1.4,4.5,1.4,5.6h-.1ZM296.7,411.3c-12.2,7.6-26.5,1.6-28.5-12.6-5.1-.5-7.3.3-12.3-2.5-5.4-3.1-7.9-8.1-7.5-14.3.2-3.9,3.9-9.8,3.8-11.7,0-1.3-3-5.2-3.6-7.7-2.1-8.8,1.9-17.7,6.5-25,1,2.1,1.4,4.5,2.5,6.5,1,1.9,5.6,7.2,5.7,7.6.4,1.8-4.7,9.1,1.2,7.9,3.9-6.8,8-16.7,17.5-16.8,3.8,2.6,7.1,4.1,11.9,3.7,7.2-.5,8.6-5.9,17-2.9,5.2,1.8,9.3,5.3,12,10,1,1.8,1.9,7.4,4.4,7.1,4.6-.6-.4-6.3-.7-8.6,9-4,11.6-11.1,14.6-19.5.2-.4.9-.5,1.1-1.2,1.1-3.5,1.3-9.5,2.6-12.3.3-.6-.5-.8.8-.8s6.5,2.6,6.7,3c.3,8.1-.6,15.9,1.4,23.9.8,3.1,2.8,6.9,3.4,10.7,1.6,10,1,16.9-7.8,22.8,2.2,10.1-3.5,22.4-14.9,23-2.6.1-4.8-1-7.3-.3-2.6,5.1-4,10-9.9,12.6-7.2,3.2-14.2,1-20.6-2.7h0v.1Z" fill="#fff"/>
  <path d="M262.8,478.7c-.5,0-.9-.1-1.4-.2.5,0,.9.1,1.4.2Z" fill="#fff"/>
  <path d="M260.7,478.4c-.7-.1-1.5-.2-2.2-.4.7.1,1.5.3,2.2.4Z" fill="#fff"/>
  <path d="M257.3,477.8c.2,0,.4,0,.6.1-.2,0-.4,0-.6-.1Z" fill="#fff"/>
  <path d="M255.5,477.4c-.5,0-.9-.2-1.4-.3.5.1.9.2,1.4.3Z" fill="#fff"/>
  <path d="M252.9,476.9c-.4-.1-.9-.2-1.3-.3.4.1.9.2,1.3.3Z" fill="#fff"/>
  <path d="M250.1,652.2c.3,0,.6.2.9.2-.3,0-.6-.2-.9-.2Z" fill="#fff"/>
  <path d="M157.3,384.2c16.2,4.7,31.2,12.8,48.8,11.1,14.4-1.4,26.5-10.6,39.1-16.5.4,3-.5,7,0,9.8,1.4,8,11.6,13.6,19.2,14,5,10.6,11.6,16.6,24.2,15.5,2.6-.2,6.6-2.2,8-2.1,1.6,0,6.3,2.7,9.4,3,11.5,1.3,19.2-3.5,23.9-13.6,13.9.7,21.3-6.6,23.6-19.5.3-1.7-.3-4.8.2-5.9.4-.8,6.3-4.1,5.9-7,1.1-.7,7.8,3,9.3,3.8,15.9,8.5,29.4,21.5,47.3,26.2,17.3,4.6,35.4,1.6,52.9,1,2.5,18.5,2.7,38.2-2.3,56.2-1.2,2.6-11.2,2.9-14.1,3.1-29.1,1.5-55.3-5.8-79.6-21-1.3-1.6-1-12.1-1.8-15.2-.6-2-1.8-3.2-3.5-1.2.1,10.6,2.2,21.2,2.6,31.8.2,4.8.8,10.6-1.6,14.7-1.3.9-2.9,1.7-4.8,2.4-.6.2-1.3.5-2,.7-1.9.6-4,1.2-6.3,1.7-.9.2-1.7.4-2.7.6-17.8,3.5-45.1,4.4-68.6,3-.7,0-1.4,0-2.1-.1-.9,0-1.9-.1-2.8-.2-.6,0-1.2,0-1.8-.1h-.6c-1,0-2-.2-3-.3-1.7-.2-3.3-.3-4.9-.5-1.3-.1-2.5-.3-3.7-.5h-.6c-.5,0-1-.1-1.5-.2h-.6c-.5,0-.9-.1-1.4-.2-.2,0-.4,0-.6-.1-.7-.1-1.5-.2-2.2-.4h-.7c-.2-.2-.4-.2-.6-.2-.6-.1-1.2-.2-1.8-.4-.5,0-.9-.2-1.4-.3-.4,0-.8-.2-1.2-.3-.4-.1-.9-.2-1.3-.3-4.1-1-7.4-2.2-9.6-3.5-3.7-2.4-3.5-4.3-3.9-8.4-.9-12,1.6-27.2,3.4-38.7.4-2.6,3.7-18.2,2.8-19h-2.5c-2.5,1.8-4.6,18.3-5.1,22.2-.6,4.2-.9,8.4-1.1,12.6-29.9,11.6-64.6,9.1-93.4-4.3-1-3.3,3.4-21.3,4.6-25.7,2.7-9.6,7-18.3,10.6-27.6h0l-.1-.1Z" fill="#fff"/>
  <path d="M232.8,687c.3-4,14.2-6.3,12.2-9-6.9-1.9-12.3,3.8-16.7,8l-3.5-1.1c-1.9-4.9,10.2-6.1,7.8-9.5-4.4-1-10.2,3-11.1,7.5-.3-.2-.6-.4-.9-.7-1.5-1.4-1.3-3.1,0-4.9.2-.3.4-.5.6-.8.2-.3.5-.5.8-.8.8-.8,1.8-1.6,3-2.4,2.6-1.8,5.8-3.6,9.2-5.3.4-.2.9-.4,1.3-.6,4.1-2,8.4-3.7,11.9-5,.4-.2.9-.3,1.3-.5.3,0,.5-.2.8-.3s.7-.2,1-.4c.5-.2,1.1-.4,1.5-.5l.5-.2c.6-.2,1.1-.3,1.5-.4.3,0,.6,0,.8-.2l1.9-6.7,30.6,3.5-.3,19.9c-.7,3.4-8.7,4.4-11.7,4.9-6.8,1.3-14.8,2.7-21.6,3.7s-13.7,2.1-20.6,1.7h-.3v.1Z" fill="#fff"/>
  <path d="M240.6,650c.5,0,.9.2,1.4.3-.5,0-.9-.2-1.4-.3Z" fill="#fff"/>
  <path d="M232.2,158.1c1.3-1.4,1-3.7,2.4-5.1.3,0,1.5,4.7,2,5.2,1,.9,4,.4,4.7,1.7l-5.2,2.1-1.9,5.3-1.1-.7c-.4-4-2.4-5.9-6.4-6.2,1.4-1.1,4.1-1,5.4-2.4h.1v.1Z" fill="#ff0"/>
  <path d="M229.6,155.4c3.3-13.1,5.7-12.5,9.9-.3,2.1,1.1,7.9,1,7.9,4l-1.2,2.1c-1.5,1.3-6.3,2.4-7.3,3.5-1.5,1.6-1.6,8.7-4.8,9l-1.8-.6-3.7-8.4-6.2-2.4c-4.6-5.2,5.3-5,7-6.9h.2ZM233.2,166.6l1.1.7,1.9-5.3,5.2-2.1c-.7-1.3-3.8-.8-4.7-1.7s-1.7-5.2-2-5.2c-1.4,1.4-1.1,3.7-2.4,5.1-1.4,1.4-4.1,1.3-5.4,2.4,4.1.3,6,2.2,6.4,6.2h-.1v-.1Z"/>
  <path d="M226.4,646.5c.3,0,.6.2.9.3-.3,0-.6-.2-.9-.3Z" fill="#fff"/>
  <path d="M245.3,4.2c-122.6.2-232.3.5-238.9,0,6.5.3,116.3,0,238.9,0Z" fill="#fff"/>
  <path d="M221.9,675.6c.8-.8,1.8-1.6,3-2.4-1.2.8-2.2,1.6-3,2.4Z" fill="#fff"/>
  <path d="M221.1,676.4c-.2.3-.4.5-.6.8.2-.3.4-.5.6-.8Z" fill="#fff"/>
  <path d="M192.3,261.1c0,1.9,21.1,8,24.3,7.2,1.3-1.1-8.6-4.7-9.3-4.9-2.9-1-9.8-3-12.6-3s-1.6-.3-2.3.7h-.1ZM189.2,263.9c-1.8-4-.8-7,3.9-7.3,4.2-.3,25.3,5.5,26.8,9.2.9,2.1.9,5.2-1.7,6-6,1.9-23.2-4.7-29-7.9h0Z"/>
  <path d="M195,227.4c5.4,0,11.3-.7,16.5-2.1.6-.1,9.5-2.4,7.8-3.8-4.9-.2-9.7.4-14.5,1.4-.7.2-11.6,2.9-9.8,4.4h0v.1ZM207,229.9c-5,.8-12.5,2.9-16-1.5-3.1-7,17.6-10.1,21.8-10.4,3.9-.3,9.7-1.3,10.2,3.9.2,5.8-11.5,7.3-15.9,8h-.1Z"/>
  <path d="M179.9,197.6c1,1,20.3-12.1,20-15.9-1.2-1.2-20.3,12.1-20,15.9ZM179.1,201.4c-9.9-.2,2-12,4.8-14.3,3.1-2.5,15.4-11.5,19-8.4,1,.9.8,4.9.3,6.1-4.3,4.9-17.7,16.8-24.2,16.6h.1Z"/>
  <path d="M211.5,225.3c-5.2,1.3-11.1,2.1-16.5,2.1-1.8-1.5,9.1-4.3,9.8-4.4,4.7-1,9.6-1.6,14.5-1.4,1.7,1.4-7.2,3.6-7.8,3.8h0v-.1Z" fill="#fff"/>
  <path d="M216.6,268.3c-3.1.9-24.2-5.3-24.3-7.2.7-1.1,1.3-.8,2.3-.7,2.8,0,9.7,2,12.6,3,.7.2,10.6,3.9,9.3,4.9h.1Z" fill="#fff"/>
  <path d="M171.8,560.3c13.1,12.9,26.5,26.6,43.6,34.4l-2.4,14.8c-69.4,1.8-138.4,9.5-206.9,20.2v-18.3c16.4-9.7,32.5-20.1,47.2-32.2,15.2-12.5,27.3-27.1,41.3-40.6,34.1-33,53.2-1.9,77.2,21.8h0v-.1Z" fill="#fff"/>
  <path d="M173.9,290.1c3.6,1.1,6.7,3.9,9.5,6.4,1.5,1.3,10.1,9.8,8.9,11.2-1,1.1-7.9-4.3-8.9-5.3-1.3-1.2-10.5-11.2-9.4-12.2h-.1v-.1Z" fill="#fff"/>
  <path d="M187.3,310c.1,0,.2.1.3.2-.1,0-.2,0-.3-.2Z"/>
  <path d="M186.1,309.3c.1.1.3.2.4.3-.1,0-.3-.2-.4-.3Z"/>
  <path d="M183.2,307.1c.2.2.5.4.7.5-.2-.2-.5-.4-.7-.5Z"/>
  <path d="M182.7,306.7c.2.2.4.3.5.4-.2-.1-.4-.3-.5-.4Z"/>
  <path d="M181.4,305.6c.2.2.5.4.7.6-.2-.2-.5-.4-.7-.6Z"/>
  <path d="M199.8,181.7c.3,3.8-18.9,16.9-20,15.9-.3-3.8,18.8-17.1,20-15.9Z" fill="#fff"/>
  <path d="M123,296.5c38-.8,68.2-37.4,53.9-73.6-20-50.3-95.5-48.9-111.5,2.5-11.4,36.4,18.8,71.9,57.6,71.1ZM59,245.2c-4.3-64.3,85.8-86.6,117.9-31.9,21.4,36.5-4.7,80.3-45.4,86.1-34.9,5-70.1-18.9-72.5-54.3h0v.1Z"/>
  <path d="M100.9,240.6c-5.1-1-3.7-7.2-6.1-8.9h-2.2c-2,9.1,7.6,16.6,16,11.4,4.1-2.5,3.6-7.1,6-10.1.5-.5-1.1-2.1-1.2-2.2-1.2-.3-2.2-.4-3.1.6-.9,5-3.1,10.5-9.3,9.2h-.1ZM114.3,256.9c7.3,10.2,25.5,1.3,23.2-8.7-.7-3.1-8.5-10.7-11.8-9.5l-.3,2.8c2.9,2.4,8.4,4.8,8.1,9.1-.2,3.1-4.6,6.4-7.6,6.9-7.4,1.2-8.2-4-10-4s-3,1.5-1.6,3.4ZM65.3,225.4c16-51.3,91.6-52.7,111.5-2.5,14.3,36.1-15.9,72.8-53.9,73.6-38.8.8-69-34.7-57.6-71.1h0ZM156.3,232.6c.5-1.7,2.1-6.6-.5-7.3l-1.6.4c-1.4,4.9-1.6,9.7-7.6,11.2l-5.1-1.8-1.8-6c-1-.8-3.4-2.2-4.1-.3-1.2,13.2,16.6,16.8,20.6,3.8h.1Z" fill="#fff"/>
  <path d="M183.4,302.3c1.1,1,7.9,6.4,8.9,5.3,1.2-1.4-7.4-9.9-8.9-11.2-2.8-2.5-5.8-5.3-9.5-6.4-1.1,1.1,8.2,11.1,9.4,12.2h.1v.1ZM172.7,286.5c1.2-.3,2.2-.1,3.4.1,3.4.7,19.1,15.3,19.8,18.8.6,2.8-.4,5.4-3.4,6-1.6-.2-3.2-.5-4.7-1.1h-.2s-.2,0-.3-.2c-.2-.1-.5-.3-.7-.4-.1,0-.3-.2-.4-.3-.7-.4-1.4-1-2.2-1.6-.2-.2-.5-.4-.7-.5-.2-.2-.4-.3-.5-.4l-.5-.5c-.2-.2-.5-.4-.7-.6-.9-.8-1.7-1.6-2.6-2.5l-.4-.4c-.4-.4-.9-.9-1.3-1.3-.2-.2-.4-.4-.6-.6s-.4-.4-.5-.6c-.3-.3-.6-.7-.9-1-.3-.4-.7-.8-1-1.2-.4-.5-.8-1.1-1.2-1.6-.2-.3-.4-.5-.5-.8-2.6-4-3.4-7.7.2-9.1h0v-.2h-.1Z"/>
  <path d="M161.8,650.3c-2.4-3.1,8.9-16.2,13.8-13.8l-.3,2.1c-4.6,2.9-8.1,6.7-10.2,11.7h-3.3Z"/>
  <path d="M156.8,153.9c2.6-2.9,5-3.1,8-.6,1.4,1.8.4,6-.2,8-1.1,3.4-6.6,15.7-8.9,18-2,1.9-4,2.6-6.8,1.4-2.9-2.4-1.8-5-1-8,.9-3.6,6.6-16.2,9-18.8h-.1ZM152.9,176.7c2-1,9.7-20,8.6-21l-1.9.5c-3.5,4.9-4.9,10.8-7.2,16.3-.3.9-2.5,2.2-1.8,4.4l2.1-.3h.2v.1Z"/>
  <path d="M151.5,310.6c2.4,4.4,5.8,12,6.2,17,.3,4.5-1.4,8-6.4,5.2s-11.7-21.5-10.2-27l3.4-2.6c4.4,0,5.3,4.3,7,7.3h0v.1ZM151.2,328c.4.5,2,1.3,2.7,1.2.3-3.1-1.6-6-2.5-8.4-.7-2-4.3-13.3-6.4-13.1-1.2.7-.4,1.1-.4,1.9.1,3.7,4.3,15.6,6.5,18.4h.1Z"/>
  <path d="M153.1,650.3c-.6-2.5-2-14.1,1.2-14.8l1.6.4c1.1.9.6,12,.2,13.6-.4,1.7-1.8,1.8-3,.8Z"/>
  <path d="M152.5,172.5c2.2-5.5,3.6-11.4,7.2-16.3l1.9-.5c1.1,1-6.6,19.9-8.6,21l-2.1.3c-.8-2.2,1.4-3.5,1.8-4.4h-.2v-.1Z" fill="#fff"/>
  <path d="M150.3,38c.8.6,1.6,1.3,2.3,2-.7-.7-1.5-1.4-2.3-2Z"/>
  <path d="M147.8,36.3c.6.4,1.3.8,1.9,1.3-.6-.4-1.2-.9-1.9-1.3Z"/>
  <path d="M145.8,35.1c.5.2.9.5,1.3.7-.4-.3-.9-.5-1.3-.7Z"/>
  <path d="M143.8,650.8c-1.5-4.6-5.3-7.2-9-10-1.2-4.3,3.4-2.4,5.5-1.2,2.9,1.7,7.4,7.6,5.6,11l-2.1.2Z"/>
  <path d="M151.5,320.7c.9,2.4,2.8,5.3,2.5,8.4-.7.2-2.3-.7-2.7-1.2-2.3-2.8-6.4-14.8-6.5-18.4,0-.8-.8-1.2.4-1.9,2.1-.2,5.7,11.1,6.4,13.1h-.1Z" fill="#fff"/>
  <path d="M144.5,34.5c.5.2.9.4,1.3.7-.4-.2-.9-.5-1.3-.7Z"/>
  <path d="M142.4,33.5c.7.3,1.4.6,2.1.9-.7-.3-1.4-.6-2.1-.9Z"/>
  <path d="M155.8,225.3c2.7.6,1,5.5.5,7.3-3.9,13-21.8,9.4-20.6-3.8.7-1.8,3.1-.5,4.1.3l1.8,6,5.1,1.8c5.9-1.5,6.1-6.3,7.6-11.2l1.6-.4h-.1Z"/>
  <path d="M133.5,31.2c3.1.4,6.1,1.2,8.9,2.4-2.8-1.1-5.8-1.9-8.9-2.4h0Z"/>
  <path d="M103.1,365.4c8,2.1,16.1,6.7,24.4,8.4.3,2.9-.7,5.4-.6,8.5,0,1.7,2.2,13,5.4,10.6,1.2-3.8-1.6-7.5-1.7-11.7,0-2.7,1.8-6.8,1.6-8.4-.3-2.9-6.9-9.5-4.3-13.3h3.9c5.8,8.3,14.6,14.3,19.6,23.3.1.3,1,.4,1.2,1.2l-9.2,25c-12.9,3.9-26.2,2.5-38.6-2.4-4.5-1.8-19.8-9.9-20-14.9.7-3.8,2.9-2.6,5.7-1.8,2.1.6,14.2,5.8,15.1,6.9.3.5.2,1.5.6,2.1.4.7.8.6,1.5.5,1.2-.3,9.8-18.2,10.1-20.9l-1.7-2.1-23.2-9.6-.3-1.9c1.4-2.1,8.3-.2,10.4.4h0l.1.1Z" fill="#fff"/>
  <path d="M119.9,31.3c4.5-.7,9.1-.8,13.6-.2-4.4-.6-9.1-.6-13.6.2Z"/>
  <path d="M113.6,169.6c.2.5,2,1.8,2.4,2.5,1.2,0,.9-8.9.8-10.4,0-1.7-1.5-12.9-2.2-13.5h-1.5c-1.4,1-.5,18.7.6,21.3h-.1v.1ZM117.5,145.6c2.5,4.1,4.7,26.3,1.2,29.5-12.4,7.3-11.3-26.9-8.4-30.3,2-2.4,5.7-1.7,7.2.8Z"/>
  <path d="M115.9,253.4c1.8,0,2.6,5.2,10,4,3-.5,7.4-3.9,7.6-6.9.3-4.3-5.2-6.7-8.1-9.1l.3-2.8c3.3-1.2,11.1,6.4,11.8,9.5,2.3,10-15.9,19-23.2,8.7-1.3-1.9-.5-3.4,1.6-3.4Z"/>
  <path d="M114.3,32.6c1.7-.5,3.5-1,5.3-1.3-1.8.3-3.6.7-5.3,1.3Z"/>
  <path d="M114.5,148.3c.8.6,2.1,11.7,2.2,13.5,0,1.4.4,10.3-.8,10.4-.3-.7-2.2-2.1-2.4-2.5-1-2.6-1.9-20.3-.6-21.3h1.6v-.1Z" fill="#fff"/>
  <path d="M112.5,33.2c.5-.2.9-.3,1.4-.5-.5,0-.9.3-1.4.5Z"/>
  <path d="M94.8,231.7c2.5,1.7,1,7.8,6.1,8.9,6.2,1.3,8.4-4.2,9.3-9.2.9-1,1.9-.9,3.1-.6,0,0,1.7,1.6,1.2,2.2-2.4,3-1.9,7.6-6,10.1-8.4,5.2-18-2.3-16-11.3h2.3v-.1Z"/>
  <path d="M108.7,34.7c.7-.3,1.5-.7,2.3-1-.8.3-1.5.6-2.3,1Z"/>
  <path d="M107.2,35.5c.5-.3,1-.5,1.5-.7-.5.2-1,.5-1.5.7Z"/>
  <path d="M106.5,333.1c3-3.2,4-10,4.6-14.3.4-2.5,1.6-6.4,0-8.5-2.4-.1-6.2,20.1-4.6,22.8h0ZM105.8,337.3c-5.7-.9-2.4-17.7-1.2-21.7,1.3-4.7,3.2-11.2,9.6-8.4,3,1.8.9,13.9.2,17.2,0,.1-.7.3-.8.6-1,3.6-2,13.2-7.7,12.2h0l-.1.1Z"/>
  <path d="M106.5,333.1c-1.6-2.7,2.1-23,4.6-22.8,1.6,2.1.4,6,0,8.5-.6,4.3-1.6,11.2-4.6,14.3h0Z" fill="#fff"/>
  <path d="M103.9,37.3c.4-.2.7-.5,1.1-.7-.4.2-.8.5-1.1.7Z"/>
  <path d="M89.2,379.6c6.7,1.7,13.4,5.4,19.9,7.8l-2.3,5.7-22.8-9.3-1.1-4.1c.7-2.2,4.9-.5,6.4,0h-.1v-.1Z" fill="#fff"/>
  <path d="M149,804.2c8.3,3.7,16.1,3.1,24-1,2.2-1.2,3.5-3.7,6.2-3l.4,2.1c-10.6,11.2-29.2,9.9-40.4,0-10.6,12.4-28.2,12.4-40.1,1.6-6.9,4.1-14.3,5.8-22.3,3.9-2.3-.5-9.9-3.5-9.7-6.4.2-3.4,5.8,1.2,7.4,1.8,7.6,3.1,16.7,2.2,23-3.2,4.1-1.6,6.5,3.3,10,5.3,6.9,4,15.5,3.8,22.4,0,3.7-2,5.4-5.2,8.8-7.3,2.3-.3,7.4,4.9,10.4,6.2h-.1Z"/>
  <path d="M98.4,41.6c-.2.2-.4.4-.6.6.2-.2.4-.4.6-.6Z"/>
  <path d="M511,426.5c8.7,2,17.6,4,25.4,8.5,1.4,0,2.9-2.3,2.1-3.6-.8-4.6-25.5-11.4-26.7-10.6l-1.6,4.6.8,1.1h0ZM506.9,435.7c4.5.6,9.7,1.5,14,2.9,2.4.8,8.7,4.4,10,4.5,2.8.2,5.4-2.4,3.2-4.8-7.8-4.5-16.8-6.8-25.6-8.4l-1.7,5.8h.1ZM489.9,420.8c-4.9-.7,4.7-7.1,5.6-8.4,2.4-3.3,1.8-8,3.1-10.3.2-.4,3.1-2.4,4-3.5,1.4-1.8,2.1-3.9,3.8-5.4l-.8-1.5c-3.2-4-7.4,1.1-10.5,2.6-4.4,2.2-19.1,7.5-21,11.2l.5,29.6c11.7,7.5,28.7,14.6,42.9,14.7,2.5,0,9.1-.5,8.9-4-.2-2.5-16.6-7-19.2-7.1-2.7-.2-3,1.3-5.3,1.5l-.9-1.3,9.2-24.4h2.2c.8,4.5,7.1,3.7,11.2,4.9,4,1.2,7.9,2.9,11.8,4.4,2.5-.2,1.2-4,0-5.3-1.5-1.6-8.9-4.4-11.3-5.3-7.1-2.7-14.8-4.6-22.1-6.9,0,4.5-6.9,15.1-11.9,14.4h-.2v.1ZM533.1,704.5c-20,6.5-36.9-4-57.1-.9-21.3,3.2-36.8,19.7-59,21.6-32.9,2.8-56.8-16.8-89.8-8.8-18.7,4.5-30.6,12.6-51.5,10.9-20.8-1.7-38.5-16.8-58.3-18-18.8-1.2-35.8,9.9-55.6,8.5-21.1-1.5-36.4-16.4-58.3-15.9-19.2.4-35.6,12.4-55.6,11.2-15.6-.9-27.1-9.8-41.8-13.3v137.1h584.4v-145c-12.4-3.5-27.7-1.9-39.4,3.5-6.1,2.8-11.3,7.1-18.1,9.3h0v-.2h.1ZM362.3,328.1l-5.3,4.3,1,11.9c1.5,1.6,13.1-10.1,8.3-18.3-2-3.3-5.4-5.3-9.2-4l-.2,5.3,4-1,1.4,1.7h0v.1ZM335.8,492.3c.3,25.9-.7,52.9,2.8,78.5.7,4.1,3.5,4.3,7.2,4.6,5.1.4,11.3.2,16-1.9l-11.4-83.1-14.6,1.9h0ZM238.1,464.7c.3,4.1.2,6.1,3.9,8.4,2.3,1.3,5.5,2.5,9.6,3.5.4.1.8.2,1.3.3.4,0,.8.2,1.2.3.5.1.9.2,1.4.3.6.1,1.2.2,1.8.4.2,0,.4,0,.6.1h.7c.7.3,1.5.4,2.2.5.2,0,.4,0,.6.1.5,0,.9.1,1.4.2h.6c.5,0,1,.1,1.5.2h.6c1.2.2,2.5.3,3.7.5,1.6.2,3.3.4,4.9.5,1,0,2,.2,3,.3h.6c.6,0,1.2.1,1.8.1.9,0,1.9.1,2.8.2.7,0,1.4,0,2.1.1,23.5,1.4,50.8.5,68.6-3,.9-.2,1.8-.4,2.7-.6,2.3-.5,4.4-1.1,6.3-1.7.7-.2,1.4-.5,2-.7,1.9-.7,3.6-1.5,4.8-2.4,2.4-4.1,1.8-10,1.6-14.7-.4-10.6-2.5-21.2-2.6-31.8,1.7-2,2.9-.8,3.5,1.2.9,3.1.5,13.6,1.8,15.2,24.4,15.2,50.5,22.5,79.6,21,2.9-.2,13-.5,14.1-3.1,5-18,4.8-37.7,2.3-56.2-17.5.6-35.6,3.6-52.9-1-17.9-4.7-31.5-17.7-47.3-26.2-1.5-.8-8.2-4.4-9.3-3.8.4,2.8-5.5,6.1-5.9,7-.5,1.1,0,4.3-.2,5.9-2.2,13-9.7,20.2-23.6,19.5-4.7,10.1-12.4,14.9-23.9,13.6-3.1-.4-7.7-2.9-9.4-3-1.4,0-5.5,1.9-8,2.1-12.6,1.1-19.2-4.9-24.2-15.5-7.6-.4-17.9-6.1-19.2-14-.5-2.9.4-6.8,0-9.8-12.7,5.9-24.7,15.1-39.1,16.5-17.5,1.6-32.6-6.4-48.8-11.1-3.5,9.3-7.9,18-10.6,27.6-1.2,4.3-5.6,22.3-4.6,25.7,28.8,13.3,63.5,15.9,93.4,4.3.2-4.2.6-8.4,1.1-12.6.6-3.9,2.6-20.4,5.1-22.2h2.5c.9.8-2.4,16.4-2.8,19-1.7,11.5-4.3,26.7-3.4,38.7h0l.1.1ZM232.2,644.2c41.2,11.5,107.3,12.8,148.3.4,4.2-1.3,15.4-4.2,15.7-9,.6-10.6-2.3-28.7-3.8-39.7-3.3-24.3-8.4-50.9-13.4-75.2-2.4-11.8-4.1-23.8-7.7-35.3l-1.2-.8-16.5,5.3,1,.9,11.3,82.8c-.5,7.2-25,6.7-29,3.1-2-1.8-2.4-9.3-2.7-12.2-2.4-23.6-1.8-48.2-2.2-72-31.4,1.3-64.5,2.1-94.4-8.5-1.1,3.2-1.9,6.6-2.6,10-9.2,44.2-14.7,93.1-19.5,138,0,.6-2.2,2-1.1,4.1.9,3.7,14,7,17.8,8.1h0ZM221.4,682.7c.9-4.4,6.7-8.5,11.1-7.5,2.4,3.4-9.7,4.7-7.8,9.5l3.5,1.1c4.5-4.2,9.8-9.9,16.7-8,2,2.7-11.8,5-12.2,9,6.9.4,13.8-.7,20.6-1.7s14.8-2.4,21.6-3.7c3-.6,11-1.5,11.7-4.9l.3-19.9-30.6-3.5-1.9,6.7c-.2,0-.5,0-.8.2-.4,0-.9.3-1.5.4-.1,0-.3,0-.5.2-.5.2-1,.3-1.5.5-.3,0-.6.2-1,.4-.2,0-.5.2-.8.3-.4,0-.8.3-1.3.5-3.5,1.3-7.7,3.1-11.9,5-.4.2-.9.4-1.3.6-3.4,1.7-6.6,3.5-9.2,5.3-1.2.8-2.2,1.6-3,2.4-.3.3-.5.5-.8.8-.2.3-.4.5-.6.8-1.3,1.8-1.5,3.5,0,4.9.2.2.5.5.9.7h.3v-.1ZM325.9,684.9c-.4.7-8.5,5-9.9,7-.2.3-.4,1.5.2,1.5.9.2,3,0,6-.3.4,0,.9,0,1.4-.2h.7c.5,0,1-.2,1.5-.3.3,0,.5,0,.8-.2,1.1-.2,2.2-.4,3.3-.7.6,0,1.2-.3,1.7-.4s1.2-.3,1.8-.4.6,0,.9-.2c.9-.2,1.8-.4,2.7-.7.5,0,1.1-.3,1.6-.4.5,0,.9-.2,1.4-.4.5,0,1-.3,1.6-.4h0c.5,0,1-.3,1.5-.4.5,0,1-.3,1.4-.4,1.4-.4,2.7-.8,4-1.3.4,0,.7-.2,1.1-.4.4,0,.8-.3,1.1-.4,2.2-.8,4.3-1.6,5.9-2.4.3-.2.6-.3.9-.5.7-.4,1.3-.7,1.8-1.1.2,0,.4-.3.5-.4.2,0,.3-.3.4-.4.2-.2.3-.3.4-.5s.2-.3.2-.5c1.1-3.1-.5-26.1-2.3-26.6l-33.6,3.2v9.3c-7.8,4-16.1,7.6-23.3,12.7-5,3.5-11.5,9.7-1.9,12.6,2.1-5.4,7.6-11.1,13.8-11l.3,2.4c-3.8,2-7.1,4.1-9.2,7.9-1.2,2.8,4.8,3.2,6.3,2.4,2.5-5.1,8.5-10.6,14.6-10.1.7.6.6,1.2.3,1.9h0v.2l.1-.1ZM295.1,489.9c12.7.5,65.9-1,74-9.2l1.3-2.2-.8-1.8c-7.1,3.4-14.5,4.7-22.2,5.8-29.3,4.1-70.2,4.2-98.9-2.8-1.3-.3-9.4-3.6-9.7-2.6l1.1,3.1c7.2,6.4,44.6,9.5,55.2,9.9h0v-.2h0ZM354.5,278.1c-13.3-21.3-42.7-28.2-65.9-19.9-4.6,1.6-9.3,4.6-13.9,6.5-8.7,3.6-12.7,1.9-18.4,11.6-7,12-3.5,18.8-6.4,30.3-2.3,9.3-11.7,18-10.1,28.9.1.9,1,.7,1.1,1.1.4,2.3,1.8,8.1,1.7,10-.3,3.9-3.2,6.4-4.8,9.6-3.4,7-9.1,16.4-.6,22.3,2.8-2.4,10.2-3.3,10.7-7.6.1-1.3-2.7-6.3-3.1-9-.9-6.9.6-12.4,2.9-18.8,1.5-4.1,6.6-11.8,7.1-15.3.9-6,.8-12.5,1.9-18.8.8-4.7,2.1-9.5,3.5-14.1l-2-3.8c8.9-2.4,13.3-9.9,19.4-15.1,1.4-1.2,2.9-2.7,4.6-1.2,12.1,15.6,36.8,16.8,55.2,15.2-.5,8.9,5,23.6,14.3,26.6,7.2,2.3,16.8-.3,19,9.4,2.2,9.6-3,17.9-11.1,22.8,1.3,6.2,3,12.6,1.7,19l25.2,15c9.3-11.3-5-21.5-6.4-30.4-2.2-14.2,4.8-19.8-4.6-34.3-2.7-4.1-7.5-8.6-9.8-12.7-4.5-8.4-6-18.8-11.4-27.3h.2,0ZM268.2,398.6c2,14.3,16.3,20.3,28.5,12.6,6.4,3.8,13.4,5.9,20.6,2.7,5.8-2.6,7.2-7.5,9.9-12.6,2.5-.7,4.7.4,7.3.3,11.4-.6,17.2-12.9,14.9-23,8.9-6,9.5-12.9,7.8-22.8-.6-3.8-2.7-7.6-3.4-10.7-2-8-1.1-15.8-1.4-23.9-.2-.4-6.1-3-6.7-3-1.3,0-.6.2-.8.8-1.3,2.8-1.5,8.8-2.6,12.3-.2.7-.9.7-1.1,1.2-3,8.5-5.6,15.5-14.6,19.5.2,2.3,5.2,8,.7,8.6-2.5.3-3.4-5.3-4.4-7.1-2.7-4.7-6.7-8.2-12-10-8.4-2.9-9.8,2.4-17,2.9-4.8.3-8.2-1.1-11.9-3.7-9.4,0-13.5,9.9-17.5,16.8-5.9,1.2-.8-6.1-1.2-7.9-.1-.5-4.7-5.8-5.7-7.6-1.1-2.1-1.6-4.4-2.5-6.5-4.6,7.3-8.6,16.2-6.5,25,.6,2.5,3.5,6.3,3.6,7.7,0,1.9-3.6,7.8-3.8,11.7-.3,6.2,2.1,11.3,7.5,14.3,5,2.8,7.1,2,12.3,2.5h0v-.1ZM291.9,321.4c2.4,2.2-4.2,7.6-5.5,10-1.9,3.6-3.4,7.3.7,10.1,7.7,4.6,12.6-3.2,18.8-3.1,3.1,0,8.7,2.1,11.4,3.7,6,3.5,6.3,9.6,13.6,2.5,6.6-6.4,8.3-20.6,10.3-29.2.4-2.2-1.6-3.3-2.5-5-2.4-5-4.8-10.2-4.6-16-18.1.5-39.7-.9-52.9-14.6l-16.7,12.8c-3.8,16.9-12.3,40.9.9,55.4,2,.4,3.7-3.4,5-4.5,2.9-2.5,6-4.3,9.7-5.3.4-5.3,3.9-11.6,7.6-15.4,1.2-1.2,2.2-2.8,4-1.3h.2v-.1ZM94.6,538.5c-14,13.5-26.1,28.2-41.3,40.6-14.7,12.1-30.8,22.5-47.2,32.2v18.3c68.4-10.7,137.5-18.4,206.9-20.2l2.4-14.8c-17.1-7.8-30.5-21.4-43.6-34.4-24-23.7-43-54.8-77.2-21.8h0v.1ZM85.4,374.8l24.7,9.2c2,.4,3.4-4,2.3-5-5.2-1.4-19.8-10.2-24.4-9.2-1.9.4-4.3,3.4-2.6,4.9h0v.1ZM109.1,387.4c-6.5-2.4-13.2-6.1-19.9-7.8-1.5-.4-5.7-2.1-6.4,0l1.1,4.1,22.8,9.3,2.3-5.7h0l.1.1ZM132.4,392.9c-3.2,2.4-5.4-9-5.4-10.6,0-3.1.9-5.6.6-8.5-8.3-1.7-16.4-6.3-24.4-8.4-2.2-.6-9-2.5-10.4-.4l.3,1.9,23.2,9.6,1.7,2.1c-.3,2.7-8.9,20.6-10.1,20.9-.7.2-1.2.2-1.5-.5-.3-.6-.2-1.6-.6-2.1-.9-1.1-13-6.4-15.1-6.9-2.8-.8-5-2-5.7,1.8.2,5,15.5,13.1,20,14.9,12.4,4.9,25.6,6.3,38.6,2.4l9.2-25c-.2-.9-1.1-1-1.2-1.2-5-9-13.8-15-19.6-23.5h-3.9c-2.6,4,3.9,10.5,4.3,13.4.2,1.6-1.6,5.7-1.6,8.4,0,4.2,2.9,7.9,1.7,11.7h-.1ZM151.3,712.2c26.5,6.8,42.6-7.8,67.8-6.1,21.6,1.4,38.8,17.7,62.6,18.1,20.7.3,39.2-12.7,59.3-13.8,23.6-1.3,47.1,13,71.8,11.7,25.2-1.3,41.6-20.6,65.2-22.4,18.7-1.4,36.5,7.3,54.2,1.3,6.7-2.2,12.7-7.3,19.1-9.9,11.3-4.6,26.2-6,38.1-3.3l1.1-.6v-53.1c-62.7-13.4-127.8-18.3-192.1-21.5-.7,7.3,4.4,22.6-.5,28.4-4.9,5.9-27.3,9.3-35.1,11.4.7,7.1,4.6,24.3.7,30.2-2.8,4.3-11.1,6.6-16,8.2-14,4.3-39.2,10.1-52.5,2.5-5.3-3-4.1-9.9-.5-13.8,5.2-5.8,19.5-11.9,26.7-15.4v-7.4h-30.8v21c0,2.6-4.7,4.8-6.8,5.6-8.1,2.7-40.8,7.9-49,7.4-7.1-.5-20.7-3.4-18.6-12.8,2-8.5,27-18.1,35-20.8l1.1-4.2c-.4,0-.8-.2-1.3-.4-.3,0-.6-.2-.9-.2-2.1-.5-4.9-1.1-8-1.9-.5,0-.9-.2-1.4-.3-4.2-1-8.9-2.1-13.3-3.3-.3,0-.6-.2-.9-.3-.5,0-.9-.3-1.4-.4-.4,0-.8-.3-1.2-.4-3.8-1.2-7.2-2.5-9.5-3.9-.3-.2-.6-.4-.9-.6-.4-.3-.8-.6-1.1-.9-.2-.2-.4-.4-.5-.6,0,0-.1-.2-.2-.3-.1-.2-.2-.4-.3-.6v-.3c-.8-4.4,2.1-24.2,1.4-25.2-51.6,1.1-103.4,5.7-154.8,12.7-6.4.9-12.8,1.8-19.2,2.7-10.7,1.6-21.3,3.2-31.9,5h0v62.6c12.7,2.1,22.8,10.5,35.7,12.5,24.9,3.9,42.2-11.4,66.8-10,16.9,1,27.2,9.7,42.3,13.6h0l-.2-.2h0ZM152.4,376c1,1.1,2.5,3.4,2.7,4.9,2.4-.7,3.7-.4,6,.2,10.7,2.6,22.2,9.4,33.6,10.5,14.4,1.4,25.6-3.9,38-10.1-.7-3-3.1-4.5-3.6-7.8-2.1-12.7,8.1-18.7,8.9-27.1.2-2.4-1.8-6.9-2-10-1.3-17.2,9.7-22.9,11.3-38.3,1.3-13.3.2-21.2,11.6-31.1,6-5.1,8.9-3.7,14.9-6.1,24.5-9.8,38.6-16.2,64.8-2.7,22.8,11.8,21.5,27.2,32.1,46.5,6,11,14.3,13.3,14.4,28.4,0,4.9-2,10.2-1.5,15.3.8,7.9,9.6,15.3,10.1,23.5.3,5.3-.7,8.6-3.8,12.8l.8,1.3c4.1,1.9,7.6,5,11.6,7.2,16.7,8.8,32.4,9.2,51,8.2,6.3-.3,13.8-3.3,19.4,0,6.4-5.1,14.5-7.4,21.8-11,4.5-2.2,8.2-7.3,14-2.2,3.4,3.8.4,11.3-3.5,13.6v1.1c8.5,4.1,25.4,6.5,32.4,12.2,5.3,4.4,2.2,6.7,2.7,11.2.2,2.3,4.3,2.4,2.2,8.5-.7,2.1-2.6,2.7-3,3.4-.8,1.5,0,3.1-1.6,5.3-2.4,3.4-5.6,2.3-7.3,3.4-1.8,1.3-.7,5.3-7.3,6.1-16.6,2-34.7-5.5-48.8-13.3l-4.3,24.2c-25.7,5.9-55.5,2.6-79.5-8.3-2.1-1-16.3-9.2-17.1-8.4.3,6.4,1.5,13.5,1.1,19.9-.3,5.3-.8,4.4-.2,9.8.8,8,3.3,16,5.1,24.1,7.4,32.2,13.9,65.5,17.5,98.2l1.4.3c43.5-14.4,70.9-61.3,121.3-34.5,14.6,7.7,28.9,19.7,43.3,28.6,9.1,5.6,18.5,10.8,28,15.7V5.1h-.9c-13.3-1.2-179-1-330.5-.8h-13.8c-122.6.2-232.3.4-238.9,0h-.2v602.5c27.4-15,51.2-35,73.1-56.8,13.3-13.3,26-33.2,48.4-29.1,21.3,3.9,44.7,36.1,60.8,50.6,5.2,4.7,19.9,16.9,25.9,19.1.7.3,1.4.4,2.1.3,3.7-25.3,6.5-50.9,10.8-76.1,1.4-8.2,3.4-18.1,5.2-26.9,1.2-5.8,3.2-8.5,2.9-15.2-.1-2.3-1.1-4.5-1.1-6.9-.1-6.5.3-12.9.6-19.4-31.7,10.6-65.2,7.4-95.6-5.5-2.9-2-1-12-.3-15.4,0-.4.9-.4,1.1-1.2.8-3.6,1.5-7.3,2.1-10.9-14.1,3.5-30.6,1.2-43.5-5.2-7.2-3.5-21.1-11.5-16.3-21-6.6-4.2-2.8-7.1-1.4-11.5.7-2.2,0-3.9,1.6-6.4,1.6-2.4,3.5-2,4.9-3.2,1.2-1,1.7-3.7,4.2-4.9,7.9-4,24.8,6.5,33.3,7.5-2.2-5.7-2.8-13.3,5.1-13.9,2.5,0,4,1.4,5.7,3,4.9,4.7,12.2,13,16.7,18.2h-.5ZM597-1.6v844.2H-.4V-1.6h597.4ZM590.5,629.6v-15.7c-9.8-5.6-19.8-10.8-29.4-16.7-38.7-23.7-59.6-53.1-107.7-24.8-18.2,10.7-34.5,24.6-55.2,31.2v5.8c64.6,1.5,128.8,9.3,192.3,20.2h0Z"/>
  <path d="M85.4,374.8c-1.7-1.5.6-4.6,2.6-4.9,4.6-1,19.2,7.8,24.4,9.2,1.1,1-.3,5.4-2.3,5l-24.7-9.2h0v-.1Z" fill="#fff"/>
  <path d="M551.1,310c1.8,2,1.8,9.8,5.7,9.8s4-7.4,5.6-9.3c1.7-1.9,8.3-2.2,8.7-4.8.6-3.8-6.5-3.5-8.7-5.2l-3.3-9.2h-4.1l-3.5,9.3c-19.1,5.6-3.9,5.7-.4,9.4h0ZM576.2,521.2c3.4-15.6-12.8-26-26.7-20.2-1.6-31.3-49.6-33.6-55-2.6-6.5-2.9-11.7-5-19-3-6.8,1.8-11.1,7.1-12.6,13.6-16.2-7.2-32,17.4-11.3,22.3,35.6-2.1,74.4,2.8,109.6,0,6.5-.5,13.5-3.1,15.1-10.1h-.1ZM527.7,150.4c.9,2.1,9,3.5,10.9,5.5,2.5,2.5,2.7,11.4,7.5,13,4.9,1.4,5.8-10.4,8.2-12.9,2.2-2.4,9.6-2.8,11.1-6.6.7-3.7-10.2-4.8-12.6-6-1.8-2.3-3.3-11.4-5.5-12.3-5.6-2.4-6.1,9.6-8.6,12.2-2.2,2.6-13.1,2.6-11.1,7.1h.1ZM506.3,354.1c1.8,1.9,3.1,14.9,8,7.4,1.1-1.7,2.1-6.5,3.1-7.6,1.7-1.9,10.1-2.5,8.8-6.6-1.4-2.9-7-2.5-8.8-4.1-2.2-1.9-1.8-11.6-7.9-7.7l-3.4,7.6-7.9,3.1c-5,4.2,6.4,6.2,8.1,8h0v-.1ZM450.8,299.4c40.2,17.1,85.5-7.7,93.3-49v-22.6c-3.4-10.7-6.1-18.9-13.3-28.2-16.4-21.5-46.7-34.7-73.1-23.5-.5.4-.5.9-.4,1.5.2,2.1,11.3,7.6,14,9.7,11.6,9.4,21,28.2,14.3,42.8-3.1,6.7-15.9,13.2-16.3,14.7-1.5,4.9,6.6,8.1,10.1,9.7-7.1,17-23.5,28.6-41,33.7l-.3,2.4c.9,2.9,9.8,7.5,12.7,8.7h0v.1ZM437.5,146.7c1.2,1.5,1.7,6.3,3,8.2l2.8,1.3c3.1-.4,3.6-7.1,5.3-9.2,9.9-3,12.9-6.1.7-8.9-1.4-2.2-1.5-9.6-5.2-9.4-4.2.8-3.6,6-5.7,8.8l-8.3,2.9-.4,1.3c1.4,2.4,6.6,3.7,7.8,5.1h0v-.1ZM431.6,346.4c2.3,2.3,2.6,14.2,7.8,11.9,3.3-2,4.5-9.4,6.2-11.4,1.5-1.7,7.8-3.4,9.9-5.1,5.3-4.7-7.8-6.2-10-8.2-.8-.7-2.7-4.8-3.3-6.1-.9-1.9,0-4.5-2.8-5-3.3-.4-5.5,9.5-7.2,11.9-2.3,1.4-10.4,2-10.8,4.8-.2,4.3,8,5.2,10,7.1h.2v.1ZM410.7,271.6c2.2,2.2,1.9,10.3,6.4,11,4.8.3,5.7-9.2,7.8-11.4,2.1-2.1,8.6-2.3,9.7-6.4,0-2.7-9.3-3.9-11.2-5.2-1.2-1.8-2.2-8.1-3.5-9.3-4.8-4.2-7.2,7.3-8.5,9.7-2.1,2-9.7,1.7-10.2,4.8-.5,4.8,7.1,4.3,9.6,6.8h-.1ZM398.2,211.4c5.5,1.9,6.6-8.3,9.1-11,1.5-1.6,12.3-4.6,8.1-8.6-1.9-1.7-6.8-1.8-8.4-2.9-.3-.2-2.2-3.1-2.5-3.6-1.1-2-1.4-4.6-2.9-6.5-4.5-3.9-6.2,8.1-8.4,9.9-1.6,1.3-9.3,2.8-9.9,4.6-1.2,5.2,6.5,5.3,9.7,7.3l5.2,10.8h0ZM360.5,117.3c1.1,2.9,7.3,3.5,9.6,5.5,1.6,2.3,3.2,11.9,5.6,12.5,5.4,1.4,6.4-9.8,8.3-11.9s11.3-3.1,10-7.2c-.6-1.9-8.1-3.7-10.1-4.8l-3.4-10.7c-7-5.7-6.4,6.5-9.4,9.7-2.2,2.1-12.3,2.3-10.6,6.8h0v.1ZM348,238.5c2.3,2.3,1.5,10.6,6.9,9,2.4-.8,3.1-7.7,4.3-8.8,1.4-1.2,9.5-2.5,8.4-5.6l-8.3-3.5c-1.8-2.4-2-10.8-6.4-9.5l-4.4,9c-10.1,3.8-12.2,5.5-.6,9.5h.1v-.1ZM263.5,217c1.8,1.9,3.9,11,6.8,11.5l1.9-.2c3.2-1.1,3.7-8.4,5.5-10.8,1.8-2.3,9-3.6,9.6-6.8.9-5-7.9-3.9-10-6.1-1.5-1.6-2.2-8.4-4.2-9.9-2-1.1-3.3,0-4.3,1.7-.2.3-.3.5-.4.8-.2.4-.4.9-.6,1.3-.3.6-.5,1.2-.7,1.9-.1.3-.2.6-.4.9-.2.5-.4.9-.6,1.3-.2.4-.4.8-.6,1.2-.3.6-.7,1.1-1.1,1.3-2.4,1.9-10.1,2.2-10.4,5.6-.3,3.2,7.8,4.4,9.6,6.3h-.1ZM71.5,172.3c2,3.3,12.2,17.7,16,10.1,1.3-4.5-3.1-11-5.6-15-2.5-3.9-7.3-11.9-12.8-10.6-6.2,1.5.6,12.5,2.4,15.5ZM321.2,69.9c3.2,2.9,7.2,23.1,13,12.7,2.3-4.2,3.2-10.4,5.5-14.8,2.1-2,9.4-3.7,11.7-6.6.2-.2.3-.4.4-.7.4-.9.3-1.9-.4-3-1.5-1.7-10.2-2.9-12.5-4.4-1.8-1.7-3.4-10.8-5.2-13-.7-.9-1.3-1-2.4-.9-4.7.2-6.1,11-8.5,14.2l-15.2,6.5c-2.7,5.5,11.2,7.5,13.7,9.9h-.1v.1ZM190.9,228.4c3.5,4.3,11.1,2.3,16,1.5,4.4-.7,16.2-2.2,15.9-8-.5-5.2-6.3-4.2-10.2-3.9-4.1.3-24.8,3.5-21.8,10.4h.1ZM232.4,173.1l1.8.6c3.3-.3,3.4-7.4,4.8-9,1-1,5.8-2.2,7.3-3.5l1.2-2.1c0-3-5.8-2.9-7.9-4-4.2-12.3-6.6-12.8-9.9.3-1.7,1.9-11.6,1.6-7,6.9l6.2,2.4,3.7,8.4h-.2ZM58.5,317.4c1,4,4.4,4,7.5,2.2,4.1-2.4,19.1-19.7,15-24.6-4.6-3.2-8.2,1.2-11.2,4.4-3,3.1-11.8,13.9-11.3,18h0ZM271.6,121.4c1.3,2.3,3.7,12.2,6.3,12.4l2-.5,5.9-12.5c12.4-4.6,13.9-8.5-.2-12.1-3.1-3.8-2.1-14.2-9.4-10.9-1.9,2.4-2.7,9.4-4.8,11.2-2.2,1.8-10.7,2-11,5.6.8,4.9,8.9,4,11.2,6.8ZM33.7,193.7c.9,3.8,18.2,13.5,22.1,14.4,5,1.2,8-1.7,5.3-6.3s-20.1-15.1-25.4-13.5c-2.1.6-2.4,3.7-2,5.5h0v-.1ZM23.2,242.2c4.2,1.2,21,1.8,25,.4,3-1.1,4.7-4.5,2.5-7-3.2-3.7-27-4.1-30.3.4-1.8,2.5,0,5.4,2.8,6.2h0ZM67,366.2c1.3-4.5-7.6-5.4-10.6-6.6l-5-12.9c-5.6-2.3-6.6,9.9-8.6,12.8l-9.3,3.9c-4,5.8,7.5,5.9,9.6,8.6,1.6,2,3.3,11.8,6.1,12.6,6.3,1.2,5.6-9,8.2-12.4,1.9-2.4,8.9-3.5,9.6-6h0ZM105.8,337.3c5.8.9,6.8-8.6,7.7-12.2,0-.3.8-.5.8-.6.8-3.3,2.8-15.5-.2-17.2-6.4-2.8-8.3,3.7-9.6,8.4-1.2,4-4.5,20.8,1.2,21.7h0l.1-.1ZM113,465.4c-.3-14.3-15.6-19.5-27.5-13.3-5.4-29.8-51.1-27.6-52.4,3.2-18.2-8.4-31.5,21.5-12.9,29,32.7-.4,69.3,3.3,101.7.8,5.5-.4,10.3-1.9,10.5-8.3.4-10.9-10.5-13.4-19.5-11.4h.1ZM59,245.2c2.4,35.4,37.6,59.2,72.5,54.3,40.7-5.8,66.8-49.6,45.4-86.1-32.1-54.8-122.2-32.4-117.9,31.9h0v-.1ZM565.7,396.6c3.5-4.3,23.5-5.2.2-12.1-4.6-15-8.2-13.3-13.3,0-3.3,2.1-15.2,2-10.5,7.8,1.9,1.5,8.1,2.7,9.4,4.2,2.2,2.4,2.1,12.5,8.4,11.5,2.6-.8,4.2-9.5,5.8-11.4h0ZM189.2,263.9c5.8,3.1,23,9.7,29,7.9,2.6-.8,2.6-3.9,1.7-6-1.6-3.7-22.6-9.5-26.8-9.2-4.7.3-5.7,3.3-3.9,7.3h0ZM187.8,310.2c1.5.7,3.1.9,4.7,1.1,3-.5,4-3.2,3.4-6-.8-3.4-16.4-18-19.8-18.8-1.2-.3-2.2-.4-3.4-.1-3.7,1.4-2.8,5.1-.2,9.1.2.3.3.5.5.8.4.5.8,1.1,1.2,1.6.3.4.6.8,1,1.2.3.3.6.7.9,1,.2.2.4.4.5.6s.4.4.6.6c.4.4.9.9,1.3,1.3l.4.4c.9.9,1.8,1.7,2.6,2.5.2.2.5.4.7.6l.5.5c.2.2.4.3.5.4.2.2.5.4.7.5.8.7,1.6,1.2,2.2,1.6.1.1.3.2.4.3.3.2.5.3.7.4s.2.1.3.2h.2v.2h.1ZM164.5,161.3c.6-2,1.6-6.2.2-8-3-2.5-5.4-2.3-8,.6-2.4,2.6-8.1,15.2-9,18.8-.7,3-1.8,5.6,1,8,2.8,1.3,4.8.6,6.8-1.4,2.4-2.3,7.9-14.6,8.9-18h.1ZM162.1,60.6c-.8-8.9-4.3-15.7-9.5-20.6-.7-.7-1.5-1.4-2.3-2-.2-.2-.4-.3-.6-.5-.6-.4-1.2-.9-1.9-1.3-.2,0-.4-.3-.6-.4-.4-.3-.9-.5-1.3-.7-.4-.2-.9-.5-1.3-.7-.7-.3-1.4-.6-2.1-.9-2.8-1.1-5.8-1.9-8.9-2.4-4.4-.7-9.1-.6-13.6.2h-.3c-1.8.3-3.6.7-5.3,1.3h-.4c-.5,0-.9.3-1.4.5s-1,.4-1.6.6c-.8.3-1.5.6-2.3,1h0c-.5.2-1,.5-1.5.7-.7.4-1.5.8-2.2,1.2-.4.2-.8.5-1.1.7-2,1.2-3.8,2.6-5.5,4.2-.2.2-.4.4-.6.6-1,1-1.9,2-2.8,3.1-.3.4-.7.9-1,1.3-.2.2-.3.5-.5.7-.3.5-.6.9-.9,1.4s-.6,1-.8,1.5-.5,1-.8,1.5c-1.4,2.8-2.3,6-2.9,9.3-.2,1.2.2,6.3,0,6.5-19.1-10.1-39.7,3.7-35.6,25-4.1-1-8.4-1.5-12.7-1.1-15.1,1.5-24.4,22.4-5.4,26l186.2-.5c15.3-6.1,13.7-23.3,2.7-33-7.1-6.3-19.1-7.9-27.8-4.2,1.5-18.2-18.1-28.5-33.5-19.1h.1v.1ZM161.1,381.1c-2.3-.6-3.6-.9-6-.2-.3-1.5-1.7-3.8-2.7-4.9-4.5-5.3-11.8-13.5-16.7-18.2-1.6-1.6-3.2-3-5.7-3-8,.6-7.3,8.2-5.1,13.9-8.5-1-25.4-11.5-33.3-7.5-2.5,1.2-3,3.9-4.2,4.9-1.4,1.2-3.3.8-4.9,3.2-1.6,2.4-.9,4.2-1.6,6.4-1.5,4.4-5.2,7.3,1.4,11.5-4.8,9.5,9.2,17.5,16.3,21,13,6.4,29.4,8.7,43.5,5.2-.6,3.6-1.3,7.3-2.1,10.9-.2.8-1,.8-1.1,1.2-.7,3.3-2.6,13.4.3,15.4,30.4,12.9,63.9,16.1,95.6,5.5-.2,6.5-.7,12.9-.6,19.4,0,2.4,1,4.6,1.1,6.9.3,6.8-1.7,9.4-2.9,15.2-1.8,8.8-3.8,18.6-5.2,26.9-4.4,25.2-7.2,50.8-10.8,76.1-.8,0-1.4,0-2.1-.3-6-2.2-20.7-14.4-25.9-19.1-16.1-14.5-39.6-46.7-60.8-50.6-22.4-4.1-35.1,15.8-48.4,29.1-21.9,21.8-45.8,41.9-73.1,56.8V4.3h.2c6.5.4,116.3,0,238.9,0h13.8c151.5-.2,317.2-.3,330.5.8h.9v604.3c-9.5-4.9-18.9-10.1-28-15.7-14.3-8.8-28.7-20.8-43.3-28.6-50.4-26.8-77.8,20.1-121.3,34.5l-1.4-.3c-3.6-32.7-10.1-66-17.5-98.2-1.8-8-4.3-16.1-5.1-24.1-.6-5.5-.1-4.6.2-9.8.4-6.4-.7-13.5-1.1-19.9.8-.8,15,7.5,17.1,8.4,24,10.9,53.8,14.2,79.5,8.3l4.3-24.2c14.1,7.8,32.2,15.3,48.8,13.3,6.6-.8,5.4-4.9,7.3-6.1,1.7-1.1,4.9,0,7.3-3.4,1.6-2.3.8-3.8,1.6-5.3.4-.7,2.2-1.3,3-3.4,2.1-6.1-1.9-6.3-2.2-8.5-.5-4.4,2.6-6.8-2.7-11.2-7-5.7-23.9-8.1-32.4-12.2v-1.1c4-2.3,6.9-9.8,3.5-13.6-5.7-5-9.5,0-14,2.2-7.3,3.6-15.3,5.9-21.8,11-5.5-3.3-13.1-.3-19.4,0-18.6,1-34.3.6-51-8.2-4-2.1-7.5-5.2-11.6-7.2l-.8-1.3c3.1-4.2,4.1-7.5,3.8-12.8-.5-8.2-9.3-15.6-10.1-23.5-.5-5,1.5-10.3,1.5-15.3,0-15.1-8.3-17.4-14.4-28.4-10.6-19.3-9.3-34.7-32.1-46.5-26.2-13.5-40.3-7.1-64.8,2.7-5.9,2.4-8.9,1-14.9,6.1-11.4,9.9-10.3,17.7-11.6,31.1-1.6,15.4-12.6,21-11.3,38.3.2,3,2.3,7.6,2,10-.9,8.4-11,14.4-8.9,27.1.5,3.3,2.9,4.8,3.6,7.8-12.4,6.2-23.6,11.5-38,10.1-11.4-1.1-22.9-7.8-33.6-10.5h0l.5.2v-.1ZM151.3,332.8c5,2.8,6.7-.7,6.4-5.2-.4-5-3.8-12.6-6.2-17-1.6-3-2.6-7.3-7-7.3l-3.4,2.6c-1.6,5.4,5.1,24.1,10.2,27h0v-.1ZM572.7,94.3c16.3-4.5,11.2-30.1-.4-36.8-8.7-5-18.2-4.3-27.1-.6.3-3.4-.8-6.4-1.9-9.3-11.5-29.9-59.1-30.5-67.7,1.3-2.2,0-3.4-1.7-5.5-2.3-13.3-3.8-25.4,5.2-25.3,18.8-16.6-7.6-41.4,9.7-28.9,27.1l7,2.1,149.8-.3ZM354.6,164.1c.3-.6.3-2.5,0-3l-14.7-4.9c-2.1-2.5-4-15.1-8-14.7-5.6,2.9-5.4,10.2-8.5,15-3.1,2.2-16.7,3.3-16.7,7.4,2.6,5.3,11.7,5.4,16.5,8.8.4.7,1,2.2,1.7,4,.4.9.7,2,1.2,3,.2.4.4.9.6,1.3h0c.9,2.1,1.8,4.1,2.8,5.5.1.2.2.3.3.5.2.3.5.6.7.8.1.1.2.2.3.3,0,0,.2.1.3.2.1,0,.2.1.3.2.3.1.6.2.9.2.7,0,1-.4,1.4-.8,0,0,.1-.2.2-.3,2.6-3.2,4.3-12.3,6.8-16.2,2.1-1.9,13-5.4,13.9-7.3h0ZM203.3,184.8c.5-1.3.7-5.2-.3-6.1-3.6-3.1-16,5.9-19,8.4-2.8,2.3-14.8,14.1-4.8,14.3,6.5.2,19.8-11.7,24.2-16.6h-.1ZM118.7,175.2c3.5-3.3,1.3-25.5-1.2-29.5-1.5-2.4-5.2-3.1-7.2-.8-2.9,3.4-4,37.6,8.4,30.3ZM39.9,284.9c3.2-1.3,26.4-13,16.2-17.2-1.1-.6-2.1-.4-3.2-.3-4.8.4-22.4,9.1-23.8,13.8-2.6,8.3,6.5,5.4,10.8,3.7h0Z" fill="#fff"/>
  <path d="M62.8,316.7c.6.7,4.3-3,4.8-3.5,1.4-1.4,11.4-14,10.3-15.1-.3-.3-2.2.6-2.6.8-1.9,1.2-10.9,13.2-12.1,15.6-.4.8-.5,1.2-.4,2.1h0v.1ZM69.8,299.4c3-3.2,6.5-7.6,11.2-4.4,4.1,4.8-10.9,22.1-15,24.6-3.1,1.9-6.6,1.9-7.5-2.2-.4-4.1,8.4-14.8,11.3-18h0Z"/>
  <path d="M161,67.7c4.6-6,11.4-8.4,18.8-6.3,6.1,1.8,12,9,12,15.3s-2.6,8.1-1.1,9.1c2.7.8,4.3-1.9,6.8-3,9.5-4.1,22.3-.2,27.4,8.7,5.5,9.6,2.8,22.3-10,22.7H37.7c-8.7,0-12.2-6.4-7.3-13.6,4.7-6.9,13.5-6.8,20.6-4.4,1.8.6,3.5,3.1,5.5,1.5.5-4-1.1-7.3-.9-11.5.8-15.1,16.6-23.5,29.9-15.6,1.5.9,5.6,6,7.4,3.9l.5-1.5c-10.1-32.6,39-52.8,58.7-27.8,4.8,6.1,7.5,15.1,6.1,22.7l2.7-.3h0l.1.1Z" fill="#fff"/>
  <path d="M79.3,176.4c-2.3-2.8-8.6-11.4-8.9-14.6-.3-3.4,5,2.8,5.7,3.7,1.3,1.6,8.9,13.5,7.8,14.7-2.1,0-3.3-2.3-4.5-3.8h-.1Z" fill="#fff"/>
  <path d="M70.4,161.7c.3,3.2,6.6,11.9,8.9,14.6,1.2,1.4,2.5,3.7,4.5,3.8,1.1-1.2-6.5-13.1-7.8-14.7-.7-.9-6-7.1-5.7-3.7h.1ZM81.9,167.4c2.5,3.9,6.8,10.4,5.6,15-3.8,7.6-13.9-6.8-16-10.1-1.8-2.9-8.6-14-2.4-15.5,5.5-1.3,10.3,6.7,12.8,10.6Z"/>
  <path d="M74.9,672.1c-1.7,1.5-4.3,6.5-6.3,5.1-2.2-5,8.2-12.3,12.3-12.9,1.1-.2,2.3-.4,3.4,0v2.2c-3.3,1.6-6.7,3.1-9.4,5.6h0Z"/>
  <path d="M66.7,657.2c-.2.3-.3.5-.5.8.2-.3.4-.5.5-.8Z"/>
  <path d="M65.9,658.4c-.2.3-.4.5-.6.8.2-.3.4-.5.6-.8Z"/>
  <path d="M64.9,659.6c-.2.3-.4.5-.6.7.2-.2.4-.5.6-.7Z"/>
  <path d="M67.6,313.2c-.5.5-4.2,4.2-4.8,3.5,0-.9,0-1.3.4-2.1,1.2-2.4,10.2-14.4,12.1-15.6.4-.3,2.4-1.1,2.6-.8,1.1,1.2-8.9,13.7-10.3,15.1h0v-.1Z" fill="#fff"/>
  <path d="M37.8,193.4c6,4.7,12.6,9.1,20.1,11.1,1.8-1.7-18.4-14.6-20.5-12.7l.4,1.6h0ZM35.6,188.2c5.3-1.5,22.7,8.9,25.4,13.5s-.3,7.5-5.3,6.3c-3.9-.9-21.2-10.6-22.1-14.4-.4-1.8,0-4.8,2-5.5h0v.1Z"/>
  <path d="M64.8,654.7c3.1-.6,2.9.8,1.9,2.5-.2.3-.3.5-.5.8,0,0-.2.3-.3.4-.2.3-.4.5-.6.8,0,0-.2.3-.3.4-.2.3-.4.5-.6.7-.3.4-.5.7-.7.9-.9,1.5-2,2.5-2.7,4.5-.8,2.2-1.6,12.5-4.3,11.7-3.3-4.7,2.8-22,8.2-22.7h-.1Z"/>
  <path d="M93,74.7c-1.8,2.1-5.9-3-7.4-3.9-13.3-8-29.1.4-29.9,15.6-.2,4.2,1.3,7.5.9,11.5-2,1.6-3.7-.9-5.5-1.5-7.2-2.4-15.9-2.5-20.6,4.4-4.9,7.2-1.4,13.5,7.3,13.6h177c12.8-.4,15.5-13,10-22.7-5.1-8.9-17.9-12.8-27.4-8.7-2.4,1-4,3.8-6.8,3-1.4-1,1.2-7,1.1-9.1,0-6.3-5.9-13.5-12-15.3-7.4-2.1-14.2.3-18.8,6.3l-2.7.3c1.3-7.6-1.3-16.6-6.1-22.7-19.7-25-68.8-4.8-58.7,27.8l-.5,1.5h0l.1-.1ZM162.1,60.6c15.3-9.4,35,.9,33.5,19.1,8.7-3.7,20.7-2.1,27.8,4.2,11,9.7,12.6,26.9-2.7,33l-186.2.5c-19-3.7-9.6-24.5,5.4-26,4.3-.4,8.6,0,12.7,1.1-4.1-21.3,16.5-35.1,35.6-25,.2-.3-.2-5.3,0-6.5.5-3.4,1.5-6.5,2.9-9.3.2-.5.5-1,.8-1.5s.6-1,.8-1.5.6-1,.9-1.4c.2-.2.3-.5.5-.7.3-.5.7-.9,1-1.3.9-1.1,1.8-2.1,2.8-3.1.2-.2.4-.4.6-.6,1.7-1.6,3.5-3,5.5-4.2.4-.2.7-.5,1.1-.7.7-.4,1.4-.8,2.2-1.2.5-.3,1-.5,1.5-.7h0c.7-.3,1.5-.7,2.3-1,.5-.2,1-.4,1.6-.6.5-.2.9-.3,1.4-.5h.4c1.8-.5,3.5-1,5.3-1.3h.3c4.5-.7,9.1-.8,13.6-.2,3.1.5,6.1,1.2,8.9,2.4.7.3,1.4.6,2.1.9.5.2.9.5,1.3.7.5.2.9.5,1.3.7.2,0,.4.3.6.4.6.4,1.3.8,1.9,1.3.2.2.4.3.6.5.8.6,1.6,1.3,2.3,2,5.1,4.9,8.7,11.7,9.5,20.6h-.1v-.1Z"/>
  <path d="M56.2,267.7c10.1,4.2-13,16-16.2,17.2-4.3,1.7-13.4,4.5-10.8-3.7,1.5-4.7,19-13.4,23.8-13.8,1.1,0,2.1-.4,3.2.3h0ZM32.6,283.2c.6.6,7.8-2.5,9-3.1,1-.5,14.1-7.8,12.6-9.1-1.5-1.3-19.1,8.1-20.9,10.3-.5.6-.8,1.2-.7,1.9h0Z"/>
  <path d="M50.8,235.5c2.2,2.5.5,6-2.5,7-4,1.4-20.7.8-25-.4-2.7-.8-4.6-3.7-2.8-6.2,3.3-4.5,27.1-4.1,30.3-.4h0ZM47.1,239.1c1.3-1.9-7.1-2.6-7.8-2.7-4.7-.4-11.3-.5-15.4,1.9,2.8,1.4,22.4,2,23.2.8Z"/>
  <path d="M45.5,369c2.1,2.6,2.4,7.1,4.2,9.7.3.5,0,1,1.2.7,1.4-2.2,2-8.3,3.4-9.9.8-.9,7.4-3.3,7.4-4.1l-8.1-3.2c-1.5-2.3-1.5-6.7-3.5-8.5-.3-.3,0-.9-.5-.8-1.8.8-2.2,8-4,9.8-1.7,1.7-5.7,1.2-7,3.4l7,2.9h-.1ZM56.4,359.6c2.9,1.2,11.9,2.1,10.6,6.6-.7,2.4-7.7,3.5-9.6,6-2.6,3.4-2,13.6-8.2,12.4-2.7-.8-4.5-10.6-6.1-12.6-2.1-2.6-13.6-2.8-9.6-8.6l9.3-3.9c2-2.9,3-15.1,8.6-12.8l5,12.9h0Z"/>
  <path d="M45.5,362.6c1.9-1.8,2.2-9,4-9.8.4,0,.2.5.5.8,2,1.8,2,6.3,3.5,8.5l8.1,3.2c0,.9-6.6,3.2-7.4,4.1-1.4,1.6-2,7.7-3.4,9.9-1.2.3-.9-.2-1.2-.7-1.8-2.5-2.1-7.1-4.2-9.7l-7-2.9c1.3-2.2,5.4-1.7,7-3.4h.1Z" fill="#ff0"/>
  <path d="M34.1,656.4c8.8.8,13.4,9.6,15.9,17.1,0,.2,1.2,0,.9,1l-1.6,2.7c-2.3,1.8-4.5-7.2-5.7-9.3-2.5-4.2-5.6-6-9.4-8.8v-2.7h-.1Z"/>
  <path d="M57.9,204.6c-7.5-2-14.1-6.5-20.1-11.1l-.4-1.6c2.1-1.9,22.3,11.1,20.5,12.7h0Z" fill="#fff"/>
  <path d="M23.9,238.3c4.1-2.4,10.7-2.2,15.4-1.9.7,0,9.1.8,7.8,2.7-.8,1.2-20.4.6-23.2-.8Z" fill="#fff"/>
  <path d="M32.6,283.2c0-.8.3-1.4.7-1.9,1.7-2.1,19.4-11.6,20.9-10.3,1.5,1.3-11.6,8.6-12.6,9.1-1.2.6-8.4,3.7-9,3.1h0Z" fill="#fff"/>
  <path d="M34.3,743.9c11.2,6,24.5,3.7,33.7-4.8l1.7.2c9,8,21.2,11,32.6,6,2.5-1.1,8.5-6.7,9.7-6.3,4.3,1.4-4.9,8.1-6.5,8.9-11.5,5.8-27,4-36.6-4.6-11.3,8.9-31,11.2-41.2-.5l.7-2.8c1.2-.3,4.5,3.1,5.8,3.8h.1v.1Z"/>
  <path d="M20.1,484.3c-18.6-7.5-5.2-37.3,12.9-29,1.2-30.8,47-32.9,52.4-3.2,11.9-6.3,27.2-1,27.5,13.3,8.9-1.9,19.8.5,19.5,11.4-.2,6.3-5.1,7.8-10.5,8.3-32.4,2.4-69.1-1.2-101.7-.8h-.1ZM37.4,462c-2.3,2.4-3.5-1.7-5.2-2.9-13.3-9-25.1,18.4-9,22.1,30.8-.6,65.4,3.1,95.9.7,3.8-.3,9.5-.7,9.5-5.6-1.1-9.2-10.5-8.8-17.2-5.3l-1.6-.3c1.3-13.4-9.5-22.1-22.1-15-1.2.7-3.4,4.1-4.9,3.2-1.9-6.2-1.3-12.4-6.5-17.5-10.9-10.7-30.3-8.6-36.9,5.5-.5,1-1.8,3.5-1.9,3.7-.7,2.9.5,8.2,0,11.4h-.1Z"/>
  <path d="M32.2,459.1c1.7,1.2,2.9,5.3,5.2,2.9.5-3.2-.7-8.5,0-11.4,0-.2,1.4-2.7,1.9-3.7,6.7-14.1,26-16.2,36.9-5.5,5.2,5.1,4.7,11.3,6.5,17.5,1.6.9,3.7-2.5,4.9-3.2,12.6-7,23.5,1.6,22.1,15l1.6.3c6.7-3.5,16.1-3.9,17.2,5.3,0,4.9-5.7,5.3-9.5,5.6-30.5,2.4-65.1-1.3-95.9-.7-16.1-3.8-4.3-31.1,9-22.1h.1Z" fill="#fff"/>
  <path d="M6.2,4.3h0Z" fill="#fff"/>
</svg>