<?xml version="1.0" encoding="UTF-8"?>
<svg id="Camada_1" xmlns="http://www.w3.org/2000/svg" version="1.1" viewBox="0 0 595.3 841.9">
  <!-- Generator: Adobe Illustrator 29.0.0, SVG Export Plug-In . SVG Version: 2.1.0 Build 186)  -->
  <path d="M595,0v844.9H0V0h595ZM588.4,11.9H6.6v821.2h581.8V11.9h0Z"/>
  <path d="M588.4,11.9v821.2H6.6V11.9h581.8,0ZM582.5,104.2V18.1c.2-3.4-569.8.4-570.6-1v171.8l13.9,3.6c2.7-11.4,7.9-20.4,19.6-24.2,20.6-6.7,41,4.6,41.7,26.9,14.7-8.1,33.1-.5,33,17.1,12.7-4.6,27.8,7.5,21.2,20.9-1.6,3.2-9.8,7.4-13,7.4H11.9v97.6c20.1-.9,37.3,13.2,38.9,33,18.1-12.2,43.5-2.2,44.2,20.5,16.3-7.4,36.2,2.3,35.6,21.1,30.8-14.3,52.6,28,12.9,31H11.9v52.1c15.2-.2,29.5-9.7,44.5-10.6,17.5-1.1,31.6,9.1,48.2,9.9,13.6.7,26.8-4.9,40.1-6.7l1-1c2.1-22.4,27.7-37.7,47.9-26,6.5-12.9,18.4-18.8,32.5-19.8.7-12.6,5.5-26.2,6.7-38.5.7-6.8-.6-13.1-1.3-19.8-.4-3.5.2-7.4,0-10.9-17.6,6.1-33.9,5.5-51.6.5-8.9-2.5-29.3-10.8-33.9-18.9-5.7-10.1.4-29.7,2.9-40.5-10.2-5.4-36.2-29.1-32.1-41.5l6.1-8.4c8.6.7,4.4-5.5,10-6.5,9.4-1.6,19.2,12.1,24.4,18.4.2-4.5.3-7,3.7-10.2,11.9-1.8,11.6,16.6,14.5,24.4l33.9,27.4,15.4-5.5c-.3-6.6,4.9-13.5,5.4-19.3.6-6.7-3.2-11.5-2.4-18.9,1-9.9,9.2-17.5,10.6-26.3,1.1-6.7.1-13.8,1.2-20.6,6.3-40.9,65-53,94.6-30.1,2,1.5,2.5,4.1,3.7,4.9,1.8,1.3,6.9,2.6,9.8,4.7,19.1,14.2,8.6,30,15.8,45.6,2.9,6.3,6.8,7.8,7.9,16.5.8,6.7-1.5,12-1.2,17.6.5,8.8,10.3,17.4,4.7,28l14.5,5,32.2-23.9c2.3-6.9,3.9-29.8,15.9-23.7l2.2,9.6c4.5-6.2,18.2-24,27-17.7,1.7,1.2,1.5,3.8,2.6,4.6,1.4,1,5.2.4,6.8,2.8,1.1,1.6.5,3.5,1,4.3.4.6,2.5,0,3.4,2.9,2,5.8-7.7,19-11.5,23.3-6.1,6.8-14.2,12.5-21.6,17.8,2.9,10.2,5.9,26.3,1.9,36.4-3,7.7-19.2,15.5-26.7,18.1-21,7.4-41.8,5.9-61.8-3.4-.6,4.5.3,9,0,13.5-.5,6.9-1.8,14.2-1.9,21.1,0,6.4,4.4,16.5,4.6,23.4l18,3.4c8.7-17.4,31.3-25.4,48.2-14.1,4-2.5,6-6.8,9.6-10,24.5-21.9,57.1-20.5,80.9,1.5,16.9-11.4,40.2-7.1,48,12.6l14.2-4.2v-44.5h-103.2c-6.4,0-11.8-3.5-15.4-8.5l-.7-4.4c2.6-14.4,15.8-20,29-14.2-.2-22.3,25.3-33,43.5-23.1-1.5-25.3,23.4-42.3,46.8-40.9v-151h-158c-4.6,0-14.3-2.6-17.1-6.6-7.5-17.9,16.5-30,31.3-23,1.5-18.5,23.2-27.3,38.2-16.5,2.5-31.1,50.2-37.2,60.4-7.9,1.3,3.7,1.2,7.1,2.7,10.5,16.1-11.6,40.5-3.8,42.5,17.2h0ZM582.5,127v-20.1h-3.7c1.9-22.4-27.4-29.5-40.8-13.9-2.7-4-1.4-9.3-3.1-14.7-5.1-16.2-25-21.4-39.7-14.9-10.9,4.8-15.3,14.9-16.2,26.3-16.3-15.1-37.7-4.8-38.3,16.5-11.6-9.3-29.2-2.9-32.3,11.6,1.9,10.1,14.7,9.6,22.8,10.1,49.3,3,99.6-2.1,149,.1l2.3-1h0ZM11.9,192.6v44.9l118.1-.3c16.5-3.1,10.3-23.1-4.3-22.9-3.5,0-5.7,2-8.9,1.7l-.5-1.8c4.2-18-19.3-24.9-31.4-13.7l-1-1.6c3.7-38.7-56.8-39.6-54.7-.3-3.4.1-4.2-3-7.7-4.5-3.1-1.3-6-1.8-9.4-1.5ZM333.6,200.1c-26.9-24.4-87.4-10.9-91.5,29.2-2.1,20.1-.6,17.3-8.5,35.6-5.9,13.7,0,15.5,0,26.3,0,6-4.9,12-5.3,18.2l13.1-5.7c-3.7-10.8-1.7-22,1.8-32.5,1.8-5.2,6.6-12.2,7.4-17s1.1-34.6,3.4-36.1c2.4.5,2.8,3.3,5.5,4.4,9.3,4,17.1-3.5,23.9-8.7,7.9,12.1,24.5,1.2,32.3-5.9l1.5,1.1c-.6,11.7,9.3,19.9,19.9,22.4-.5,7.3,0,15.8,2.2,22.8,1.9,6,5.8,8.9,8,14.4,4.4,10.8,4.9,23.1,1.7,34.2l23,9.3c4.7-8.7-3.6-15.3-4.6-22.7-.9-6.4,1.7-12.4,1.2-18.4-.6-8.6-7.5-14-9.5-21.5-4.7-17.8,3.3-31.9-18.3-43.7-6.6-3.6-2.9-1.6-7.3-5.6h0ZM314.6,213.7c-9.8,4.8-21.9,13.6-32,4.6-8.1,7.2-16,9.6-26.8,6.9-1.4,1.1-3,32.4-2.6,36.4.4,4.7,1.4,10.3,6.8,11.4l17-6.2,10.2-20.1c1.2.8,1.1,1.5.9,2.8-.5,3.4-10,18.4-7.1,21.3,6.9,4.6,12.7-3.5,17.4-3.6,3.7-.1,10.6,2.2,14,3.9,3.1,1.5,8.8,7.4,11.6,6.6,5.7-3.8,11-13.4,11.6-20.1.7-7.7-3.3-16.2-1.9-24.3-9.1-2.6-18.1-9.5-19.2-19.5h0ZM148.2,268.7c-2.4-2.6-10.2-9.2-13.8-8.7-2.6.5-3.2,2.8-1.8,4.9,6,4,11.4,9.2,14.6,15.8l-1.6,1c-3.6-4.1-12.7-16-18.4-15.8-2.6,0-5,1.6-3.1,4.3,2.9,2.7,14.3,11.9,15.5,14.8.6,1.3.5,1.7-.6,2.6-7.4-3.1-10.2-15.3-19.5-14.5,1.5,15.3,15.2,26.2,26.4,35.2,2.1,1.7,5.9,3.2,8.2,5,4.2,3.4,6.8,8.1,11.2,11.2,6.9-16.6,10.5-39,.3-55.1-.5-.6-1-1.2-1.8-1.6-4.5,1.7-2.2,7.1-2.9,10.8-.7,3.9-4.2,5.3-4.3,9.6,0,1.5,2.1,8.4,0,7.9-6.5-4.6-.4-12.7-1.1-16.6-.3-1.5-6-9.3-7.4-10.8h0ZM339.1,319.5c.5-4.2-.4-9.2,0-13.5l4,1.3c8.8-14.9,5.8-34.3-4.9-47.5-1.3,8.8-6,16-13.2,21.1,2.4,10.7-4,.5-6.2-1.6-4.8-4.5-15.2-10.8-22-8.8-5.6,1.7-4.4,5.5-15,3.5-4.3-.8-5-3.5-5.7-3.7-2.6-.8-9.2,2-11.6,3.4-4.4,2.6-5.9,7.1-10.4,7.8l3.3-6.6c-4.8-1.7-5.9-7.6-6.9-11.9-5.5,11.2-11.4,25.7-6.6,38.2,2.1,5.4,4.2,1.6,2.9,10.1-1.1,6.7-2.3,9.8,1.9,16.8s9.2,3.4,11.7,5.4c1,10.4,14.2,19.2,24,14.2,2.4-1.2,2.4-3.4,5-3.6,11,12.7,26.1,4.1,29.4-10.2,12.4,5.4,19.1-2.8,20.5-14.5h0ZM449.9,285.6c-2.2-2.3,12.8-15.6,15.5-16.5v-2.7c-10.4-4.8-17.9,10.9-24,16.9l1.9,11.8-3.7,5.6c-2-3,.2-6.6-.5-10.7-.5-2.9-3.4-5.8-3.6-7.5l-1.3-9.4c-5.8,2.1-7.8,11.3-8.6,16.9-2,12.9,0,26.9,4.8,39,4.3-2.1,6.5-6.7,10.2-9.6,8.2-6.5,17.9-11.1,25.1-19.1,2.4-2.6,14.7-19.9,11.9-22.8-8.3.2-12.8,12.5-20.5,14.5-2.4-2.3,14.9-15.6,15.5-17.2,2.6-6.8-6.2-3.2-9.2-1.3-5.1,3.3-7.7,10.4-13.5,11.9h0ZM582.5,284.9h-10.9c-14.5,0-32.9,19-33.2,33.4,0,2.3,2.3,8.4.3,9.5-2.6-.9-3.4-2.8-6.5-4.1-8.6-3.5-22.2-2.5-29.2,4-1.5,1.5-7.6,10.4-7.6,12.2v9.9l-1.3.7c-15.5-15.3-42.5,11.4-17.3,18.6l105.7-.2v-84.1ZM245.7,330.1c-4.3-6.5-3.8-14.1-2.5-21.5l-.8-1.3-28,12.2.3,6.9c-4.6-3-7.8-7.7-11.9-11.2-3.3-2.8-23.1-19-25.2-19.6-.9-.3-1.9-.2-2.8-.2-1.4,21.3-8.7,44.4-23.1,60.3,22.1,17.1,53.8,23.5,80.4,13.5,0-3.8,3.3-34.1,5.7-34.2l-3.6,47,3.7,9.1c24.5,5.9,52.5,7.8,77.7,6.6,6.4-.3,35.3-3.3,39.5-6.1,3.4-2.2,2.6-17.2,2.4-21.4-.3-10.1-2.2-20.7-3.4-30.2l1.7-1.1,4.6,27c26.6,15.6,59.5,10.5,83.4-7.6-14.9-13.9-21-37.4-21.8-57.4l-1-1.6c-13,8-26.1,17.4-36.9,28.3l-1.3-2.1,2.3-3.5-37.5-16.7c0,2.7-4.9,5.8-5.3,7-1.2,3.4-.7,9.8-2.1,14.4-3,9.6-9.8,13.5-19.8,11.9-5.2,13.7-20,19.9-32,9.8-10.5,8.3-28.6,1.3-30.1-12-5.7-1-9.4-1.2-12.8-6.3h0ZM158.7,322.1c-.8-.9-6.2-6.8-7-6.2-1.9,6.1-2.5,12.4-3.3,18.6,0,.5-1.2.3-1.3,1.4-.3,2.7-.5,16.8,3,16.8,6.3-6.6,11.2-15,13.9-23.7,0-1.4-4.1-5.8-5.2-7.1h0ZM444.3,320.6l-12.1,12.8c.5,3.8,9.5,22.9,13.4,22.1,4.8-3.1,1.6-34.7-1.3-35h0ZM11.9,341.6v99.6h130.3c4.8,0,16-3.2,18.7-7.7,6.1-19.1-20.4-26.4-32.6-14.8-1.7-.2-.2-6.9-.4-8.8-.6-7.4-8.8-16.2-16.2-17.4s-13,.9-19.9,3.8c-.2-6-.3-10.8-3.2-16.3-6.3-12-25.2-14.6-35.7-6.4-2.8,2.2-1.8,5.2-6,4.2,3.7-21.4-14.1-37.8-35-36.3h0ZM356.8,395.2c-1-.7-19,3.4-22.1,3.8-31.6,4-65.9,2-96.9-4.6l-2.2,3.6c1.6,14.2,81.1,13.1,93.9,10.9,6.2-.6,27.5-2.1,28.1-9.6l-.8-4.2h0ZM582.5,493.4v-72.6l-15.4,4.5c-10.3-22.6-27.1-24.5-47.5-13.1-26.6-26.5-66.7-22.2-87.9,8.5-4.5-.2-7.3-3.7-12.1-4.9-15.7-3.9-30.7,4.9-36.3,19.4l-17.4-3.9-1.6,1,9.8,61h14.1c4.3-14,16.3-25.1,29.9-30.2,3.3-1.2,11.7-2.3,13.8-3.7,1.1-.7,7-8.5,9.4-10.7,16.8-14.7,45.4-22.5,67.3-17.8,3.8.8,11.2,3,7.6,8.3-8.4,7-19,12.8-23.6,23.3-5.7,13-1.8,9.7,5.7,16.3,4.2,3.7,7.7,8.2,12.2,11.6,13.9-1.5,25.5-6.1,39.7-4.1,4.5.6,30.5,8.7,32.2,7.1h0ZM261.2,411l-25.4-5.4c-6.2,23.2-8.1,47.6-10.9,71.4,0,.5-1.2.3-1.4,1.4-.2,1.9-1.1,12.5,0,13.3,31.1-10,55.6,10.1,87.1,3.9,8.8-1.7,17.6-6.1,26.7-6.9,11.3-1,21.7,1.9,32.6,4.4l1.4-.8-15.2-85.3-32.2,5.2,3.9,50.7c-1.9.2-2.2-1.7-2.6-3-1.7-6.5-2.6-17.9-3.4-24.3-.4-3.1-.9-21.9-1.6-22.8h-29.4s-.6,53.2-.6,53.2c-.9,1.7-2.5,3.8-3.3.6l.6-53.7-23.7-1.3-5.9,48.8c-2.6.6-3.1-2.4-3.1-4.3-.2-6.1,1.8-12.8,2.5-18,1.2-9.1,2-18.2,3.9-27.2h0ZM487.5,470.9c.2-6.5,4.4-14.5,8.7-19.4,2.9-3.2,16.8-12.2,17.4-13.6s.6-1.3,0-2c-21.5-8.4-54.5.3-71.3,15.5-1.2,1.1-8,7.8-5.2,8.3,18-1.5,34.4,3.9,50.5,11.2h0ZM225.6,445.2c-14-.2-25.6,8.2-30.7,21.1-18.5-14.5-44.1-.3-45.8,21.8,24.1-.2,45.8,14.5,70.2,5.3l6.4-48.2h0ZM518.7,509.6c-20.4-37.7-74.3-64.9-112.7-36.7-15,11-13,27.3-23.9,35.5-4.1,3.1-17.9,8.8-19.5,12.8-2.9,6.7,4.7,9.8,9.9,10.9,14.7,3,35.4-3.7,45.9-14.5l-1.5-4.7,1.5-.9,8.7,6.5-.7,2c-1.5,0-3.3-2-4.6-2-.7,0-7.9,7-10.2,8.4-10.1,6.1-23,9.6-34.7,8.1l-1,1.3c20.2,8.5,38.9-2.2,59-.6,2.4.2,15.4,3.2,16.2,2.6.3-1.4-8.9-15.8-4.9-15.8,8.7,17.7,22.9,33.3,44.2,33.7l2.3-1c.7-.8.6-1.7.6-2.6,0-1.4-5.2-15.7-6.2-17.7s-5.5-8.6-7-10.2c-3.1-3.3-7.2-4.9-10.5-7.9l.3-1.6c4.2-1.3,14.9,10,17,13.4,3.4,5.3,4.5,13.1,7.1,17.2,1.5,2.4,3.3,2.1,4.9,3.7,10.8,10.9,20.6,23,24.6,38.1l-1.4,1.7c-14.4,3-34.8,14.6-31.5,31.9l2,.7c9.9-8.8,26.7-6,33.4-18.7l1.9-.8c2.6,15.1,20.1,15.9,28.3,27.1,2.6,1.7,3.9-.1,4.8-2.5,2.6-6.7-.5-17.4-3.9-23.4-5.4-9.5-14.9-12.7-24.9-15.4,5.2-27.7-.6-54.2-13.6-78.3h0ZM11.9,498.6v308l51.3-13.6c4.6-17.4,23.4-23,39.7-20.3,13.2-14.8,31.8-19,49.7-9.5,7.9,4.2,11.3,9.7,16.6,16.4l67.6-2.7c2.4-9.9-6-13.2-9.6-20.4-1.6-3.2-1.6-7-3.6-9.1l5.7-10.6,8.6-.2c6.7,3.3,8.5,21.7,13.2,23.1,1.5.4,3.3,0,4.8.2,2-9.1-5.3-13.6-7.1-21.6-6.4-29.5,38.9-36.5,45.6-10,2.8,10.8-3,15.8-2.8,25.9l1.2,2.2,5.2-2.1c.8-7.7,3.1-19.5,13.5-18,13.2,1.8,4.7,19.5,5,25.3.4,6.2,7.8,13.3,1.3,21.8l1.1.9c30.8,3,61.8,9.9,92.9,8.7,33.5-1.2,65.9-14.5,99.9-11.2-2.2-7.2-9.8-15.5-.7-20.8,6.4-1.8,10,3.2,13.2,7.6-.9-8.8,3.1-26.2,14.2-26.4,17.6-.3,3.7,28.9,5,30.3,5-3.9,13.6-8.4,17.4-.5,1.3,5-5.7,11.2-8.2,15l29.7,7.9v-298.8c-12.1.5-23.5-6.3-35.3-7.3-12-1-23,2.8-34.7,4.6,19,26.2,28.2,59.5,23.1,91.9,6.4,2.8,13.4,4.9,18.7,9.7,7.4,6.7,16,27.9,8.7,36-6.1,6.9-11.9-3.5-16.3-6.7-6.8-4.8-16.3-7.3-20.8-15.6-7,6.9-16.6,7.6-25.2,11.1-4.3,1.8-13.6,10.8-14.1-1.5-.7-16.1,20.1-28.5,33.5-32.3-4.8-13.2-13.3-24.4-22.6-34.7l-4.4,6.8c-11.2,2.4-22.6-3.5-31.4-9.8-4.9-3.4-6.2-8.4-14.1-7.6l-3.7,25.5c-5.9,8.3-14.5-.5-18.4-6.1-4.2-6-7.1-13.2-7.4-20.6-13.7,2.3-29.1,5.2-42.4-.9-2.2-1-3.9-2.9-5.9-4-3.3-1.9-9.2-2.7-10.3-7.5-3.9-16,24-15.8,26.8-29l-1-1.4c-12.5,1.7-24.5-4.2-36.3-5.3-19.5-1.8-37.1,9.6-58,8.5-16.3-.9-31.8-9.1-48.2-8.6-15.5.5-29.8,8.8-46.2,8-10.9-.5-21.9-5.3-32.5-7.1-23.4-4-39,7-61.2,5.8-15.1-.8-29-10-43.5-10-16,0-31.6,10.8-47.8,10.6h0ZM443,546.5c.5-1.8,1-3.6,1.6-5.4l-1.1-1.5-22-.3c1.3,10.4,6.2,25.7,18.1,27.2,2.3-.9,1.8-15.6,2.5-19.2,0-.5,1-.6,1-.8h0ZM290,724.4c-11.4-20.4-48.5-7.6-36.4,18.3,2.1,4.4,5.7,6.3,6.1,11.7.6,7.6-5.9,15.8.8,23.5l19.8,1.6c-5.1-6-8-9.8-7.2-18.1.3-3.9,2.6-7.6,1.9-11.8-.6-3.7-11.4-11.7-8.9-14.9,3.7-2.5,3.3,2.3,5.1,4.9,2.6,3.7,5.8,6.5,7.8,10.8-6,13.3-2.9,20,6,30.2l13.2,1c.4-4.8.8-9.8-1-14.5-2-5.1-9.4-9.3-9.5-15-.1-5.2,4-9,4.6-14.4.4-4.4,0-9.4-2.2-13.3h0ZM245.6,758.9c-3.3-4.7-3.8-19.2-10.5-20.2-11.4-.3-8.2,13-3.9,19,1.4,1.9,3.6,2.9,4.8,4.4,3.3,4.4,4.4,9.2,4.2,14.6l15.7.4-1.6-14.2-8.8-4.1h0ZM301.2,768.6l.5,13,13.4.8c5.7-8.7-1.5-14.6-1.2-22.3.2-6.7,6.4-14.7-.8-20.2-15.4-4.4-6.1,15.8-16.9,19.7l5,9h0ZM541.3,768.8c1.5-4.8,6.1-18.9,1.7-22.6-16.7-5.9-15.6,21.4-16.6,31.4l-2-.4c-2.2-5.3-5-15.6-12.7-13.5-4.2,7.4,5.8,23.2,12.3,26.6,5.9,3,14.4,1.7,20.2-1.2,3.4-1.7,18.8-15.2,12.6-18.4-8.4-1.9-12.9,6.9-18.1,11.6l-2.4.6c-1.3-1.5,4.4-12.2,5-14.1h0ZM127.8,761.3c-7.5,1-17.5,6.1-21.6,12.7,7.2,4.6,13.1,8.8,14.4,17.8,13.5,2.6,63.4,5.2,38.6-20.1-7.7-7.9-20.6-11.8-31.5-10.4h0ZM111.9,781.8c-10.8-10.3-31-8.5-41.1,2-11.2,11.6,6.3,13,14.7,13.6,10.6.8,45,2.3,26.5-15.6h0ZM582.5,827.7v-29.3c-7.9-2.7-24.9-9.2-32.8-8.8-2.6.1-8.1,4.3-12.7,4.9-6.1.9-13.5,0-18.5-4-1.9-1.5-2.8-4.3-4-5.2-9.6-7-75.3,8.1-90.7,9.5-48.4,4.5-105.7-9.5-155-13.2-20.8-1.5-42.5-2.6-63.3-2-8.2.2-26.9.5-34.1,2.2-.4,0-2.2,1.1-2.3,1.3.4,14.8-27.1,13.2-37.4,13.1-2.8,0-8.9-1.7-11.2-1.4-1.6.2-2.5,2.3-4.3,3-8.4,3-23,3-32,2.3-7-.5-15.8-4.2-21.8-3.9-6.9.3-20.3,4.2-27.4,6.2-7.8,2.2-15.6,4.9-23.1,7.9v17.5h440.6l1.3,2.6v-15.5c0-4.5,17.3-3,20.1-2.3.1,1.6,2.3,2.4,2.3,2.6v13.2l6.2-.7c.6,3.2,2.2,2.9,2.7,0h25.6l1.4,2.7c1.4-5.3,5.5-1.6,8.5-1.6.5,0,1.5-1.1,2.7-1.1,4.7,0,9.7-.4,13.9,2l-.3-1.3c1-.6,9-.8,10.9-.7,3.5,0,.3,2.5,3.3,2.1l7.8-2.1,1.4,2.7,2.7-2.7h19.5s0,0,0,0Z"/>
  <path d="M582.5,104.2c-2-20.9-26.4-28.8-42.5-17.2-1.4-3.4-1.4-6.8-2.7-10.5-10.2-29.3-57.9-23.2-60.4,7.9-15-10.8-36.7-2-38.2,16.5-14.9-7-38.9,5.2-31.3,23,2.8,4,12.5,6.6,17.1,6.6h158v151c-23.5-1.4-48.4,15.6-46.8,40.9-18.3-9.9-43.7.8-43.5,23.1-13.2-5.8-26.4-.2-29,14.2l.7,4.4c3.7,5,9,8.5,15.4,8.5h103.2v44.5l-14.2,4.2c-7.8-19.6-31.1-24-48-12.6-23.8-22-56.4-23.4-80.9-1.5-3.5,3.2-5.5,7.5-9.6,10-17-11.3-39.5-3.3-48.2,14.1l-18-3.4c-.2-6.9-4.6-17-4.6-23.4,0-6.8,1.4-14.2,1.9-21.1.3-4.5-.6-9,0-13.5,20,9.3,40.8,10.8,61.8,3.4,7.6-2.7,23.7-10.5,26.7-18.1,4-10.1,1-26.2-1.9-36.4,7.3-5.3,15.5-11,21.6-17.8,3.8-4.3,13.4-17.5,11.5-23.3-1-2.9-3-2.2-3.4-2.9-.5-.8.1-2.6-1-4.3-1.6-2.4-5.4-1.8-6.8-2.8-1.1-.8-.9-3.4-2.6-4.6-8.8-6.3-22.5,11.5-27,17.7l-2.2-9.6c-12.1-6-13.6,16.8-15.9,23.7l-32.2,23.9-14.5-5c5.6-10.7-4.2-19.2-4.7-28-.3-5.6,2-10.9,1.2-17.6-1.1-8.8-5-10.3-7.9-16.6-7.1-15.6,3.4-31.4-15.8-45.6-2.9-2.1-8.1-3.4-9.8-4.7-1.1-.9-1.7-3.4-3.7-4.9-29.6-22.9-88.3-10.8-94.6,30.1-1.1,6.8,0,13.9-1.2,20.6-1.4,8.8-9.6,16.4-10.6,26.3-.8,7.5,3,12.2,2.4,18.9-.5,5.8-5.7,12.7-5.4,19.3l-15.4,5.5-33.9-27.4c-2.9-7.7-2.5-26.1-14.5-24.4-3.4,3.2-3.5,5.7-3.7,10.2-5.2-6.4-14.9-20.1-24.4-18.4-5.6,1-1.4,7.2-10,6.5l-6.1,8.4c-4.1,12.4,21.9,36.1,32.1,41.5-2.5,10.8-8.6,30.4-2.9,40.5,4.5,8.1,25,16.4,33.9,18.9,17.7,5,34,5.6,51.6-.5.3,3.5-.4,7.4,0,10.9.7,6.6,2,12.9,1.3,19.8-1.3,12.3-6,25.9-6.7,38.5-14.1,1.1-26,7-32.5,19.8-20.2-11.7-45.9,3.7-47.9,26l-1,1c-13.3,1.9-26.5,7.4-40.1,6.7-16.6-.8-30.6-11-48.2-9.9-15,.9-29.3,10.4-44.5,10.6v-52.1h131.6c39.8-3,17.9-45.3-12.9-31,.6-18.8-19.3-28.5-35.6-21.1-.7-22.7-26.1-32.6-44.2-20.5-1.7-19.8-18.8-33.8-38.9-33v-97.6h116.4c3.2,0,11.4-4.3,13-7.4,6.5-13.4-8.5-25.5-21.2-20.9.1-17.7-18.3-25.2-33-17.1-.7-22.2-21.1-33.5-41.7-26.9-11.8,3.8-16.9,12.9-19.6,24.2l-13.9-3.6V17.1c1,1,570.5-1.9,570.6,1v86.1h0ZM377.1,53.6c-5.8-8.1-7.8,7.1-9.7,9.4-3,3.6-9.5,2.6-11.2,7.3-.4,3.8,8.3,4.3,10.6,6.7,5.9,6,3.4,25,14.5-.8l9.9-6-1.8-2.8c-11.5-.7-8.6-8.6-12.3-13.7h0ZM136.2,86.7c-.6.5-.9,1.9-1.9,1.7-8.3-11.3-25.2-23.4-38.3-28.3-22.7-8.3-19.6,8-9.4,20.7-8.8,7.1-1.1,16.8,5.8,21.7v7.8c0,0,8.7,7.7,8.7,7.7-9.3,3.3-19.4-4.5-28.9-6.4-18.7-3.7-22.4,6.2-6.1,14-4.1,1.4-6.8,3.8-4.5,8.5l13.1,3c-1.3,3.6-3.4,6.1,0,9.6l2.4,1,19.9-7.8c20.8,15,56,10,66-15.1,1.1-2.7,1.5-7.6,2.5-9.4.9-1.5,6.1-3.8,8.5-6.7,2.9-3.5,4.6-8,5.4-12.5,4.1-2.9,10.8-3.3,12.8-8.6-2.8-3.3-11.5-2.1-13.9-3.6-.5-.3-3.8-7.7-6.6-9.9-7.3-6.1-18.4-5.8-25.7,0-4,3.2-6.4,9.5-9.6,12.5h0ZM344,102c-6.3-11.8-16.2-13.8-28.9-11.7-6.5-9.5-26.5-23.2-38.3-21-1.6.3-2.8.9-3.4,2.6-.2,6.4,5.5,9.2,9.6,12.9l-5.2,4.1,2,5.4c-2.2,2.1-25-21.3-31.9-16.5-3.1,5,0,9.5,2.2,13.9l-3,1.3c-1.9,6.5,3.6,11.4,7.5,15.6-7.1,8.6,8,15.6,14.6,18.1-3.7,3.1-17.6,5.9-17,12.1.3,3.2,4.4,4.3,7.1,3.7-12.3,11.7-.7,13.4,9.8,7.5,2.6-1.5,5.9-5.4,8-6.5,4.7-2.4,15,3.8,21,2.9l-9.9,5.3,1.1,2.6c8.3,0,10.8-8.9,18.7-8.5-.7,5.1-5.8,6.9-9.2,9.6,1.6,3.1,6.6-.9,8.2-2.4,1.3-1.2,4.8-7.4,5.2-7.6,6.8-4.5,14.2-3.9,21.4-12.3,2.9-3.4,3.7-8.1,5.5-10.7,1-1.5,6.3-5.3,8-6.7-.6-5.5-.4-8.7-3.1-13.6h0ZM213.5,126.8c-.4-.5-2.2-1.4-2.8-1.5l-2.8.8-4.4,11.1-11,6.2c-.9,4.9,7.8,4.5,10.2,6.9,5.4,4.8,4.5,26.1,14.2.3,4.5-5.2,22.3-3.8.7-13.2-2.6-2.8-2.5-8.7-4.1-10.7h0ZM486.6,157.2c-2.6-3.6-9.3-2.5-12.9-1.7-3.8.9-13.3,6-15.7,6.1-2.2.1-7.1-2.2-9.9-2.5-8.7-1-16.4,1.4-24.3,4.6-6.1-.9-26.2-14.6-30.6-6.9-3.4,6.1,3.6,9.5,3.8,11.2,0,.7-1.2,1.8-1.3,3.2-.4,9.3,7.1,8.7,7.9,11.4l-2,6.1c-3.5,2.1-28.8-11.2-33.9-3.8-4.4,6.4,7.1,15.1,12.9,15.8l-.7,1.6c-2.7,1.2-5,2.8-3.7,6.1,4.2,5.3,8.4,7,15,8.1l-1,4.6c1.1,4.9,8.9,6.8,13.2,7.2,4.6.5,15.4-1.3,18.3-.5,1.3.4,6,4.7,8.1,5.8,8.4,4.5,16.7,7.1,26,8.9l7.1,10.8,2.8-.9-6.6-10.2,5.5.6,5.9,8.1,5.8.5v-2c-4.1,0-7.1-3.4-8.5-6.9l11.9-1.3c3.4,5,12.2,12.9,18.6,11.4,3.8-1.2,3.9-3.8,3.1-7.1,7.8,2,13.4-2.8,7.8-10.1-.6-.9-9.8-7.3-8.5-8.3,5.8-.6,10.9-2.2,11.2-8.9,9.5,1.2,24.3-5,11.3-13.8.5-1.4,13.2-2.5,13.2-11.2,0-1.5-.3-2.8-1.4-3.9-2-1.9-5.9-.7-7.2-2.6,10.1-4.4,20.1-22.9.6-19.8l-42.8,20.1-4.7-17.5c.2-1.8,10.5-5.4,5.8-12h0ZM199.9,195.2c-2.5-14-19.4-25.9-33.3-20.3-6.2,2.5-7.5,10.1-15.1,10l-1.2,5.5,3.9,2.7c-1,9.1,4.1,19,11.4,24.2,2.1,1.5,8.7,3.9,9.2,4.6,2,2.6,1.5,10.4,8.2,10.9l.9-1.6-5.8-9,7.8.8c1.3,3.9,3.7,8.9,8.7,7.8l-5.3-8.6c7.5-3.1,11.9,5.6,19.2,3.6,2.2-4.5-2.2-7.1-4-10.5,19.2-6.6,13.7-19.5-4.6-20.2ZM556.6,265.6c1.7-1.5,2.4-8.4,4.1-10.7,2.4-3.2,11.4-3.9,11.1-7.8l-10.7-6.4-4-10.5c-6.7-5.2-6.9,6.9-9.5,10.2-2.3,2.9-6.7,2.9-9.6,4.9-4.1,6.6,5.9,5.6,8.9,8.3,2.3,2.1,4.8,16.5,9.8,12h0ZM82.3,295c-5.8-7.1-8.2,9.2-10.3,11.2-1.5,1.4-6.6,2.2-8.6,3.5l-1.4,2c-.8,4.1,7.9,4.8,10.6,7.9,3.4,3.9,2.1,14.9,9.7,9.4l3.9-10.3c21.9-9.8,3.7-8-.4-13.6-1.7-2.3-2.3-8.6-3.5-10.1h0Z" fill="#fff" stroke="#000" stroke-linecap="round" stroke-linejoin="round" stroke-width=".5"/>
  <path d="M11.9,498.6c16.2.2,31.8-10.5,47.8-10.6,14.5,0,28.4,9.1,43.5,10,22.1,1.2,37.8-9.8,61.2-5.8,10.6,1.8,21.6,6.5,32.5,7.1,16.4.8,30.7-7.5,46.2-8,16.4-.5,31.9,7.8,48.2,8.6,20.9,1.1,38.5-10.3,58-8.5,11.7,1.1,23.8,7,36.3,5.3l1,1.4c-2.8,13.2-30.7,13-26.8,29,1.2,4.8,7,5.6,10.3,7.5,1.9,1.1,3.7,3,5.9,4,13.2,6.1,28.6,3.1,42.4.9.3,7.4,3.2,14.6,7.4,20.6,3.9,5.6,12.5,14.4,18.4,6.1l3.7-25.5c8-.8,9.3,4.2,14.1,7.6,8.9,6.3,20.2,12.2,31.4,9.8l4.4-6.8c9.3,10.3,17.7,21.5,22.6,34.7-13.3,3.8-34.1,16.1-33.5,32.3.5,12.4,9.8,3.3,14.1,1.5,8.6-3.5,18.2-4.2,25.2-11.1,4.5,8.3,13.9,10.7,20.8,15.6,4.4,3.1,10.2,13.6,16.3,6.7,7.2-8.2-1.3-29.4-8.7-36-5.3-4.8-12.4-6.8-18.7-9.7,5-32.4-4.2-65.7-23.1-91.9,11.7-1.8,22.6-5.6,34.7-4.6,11.7.9,23.2,7.8,35.3,7.3v298.8l-29.7-7.9c2.4-3.8,9.4-10,8.2-15-3.8-7.9-12.3-3.4-17.4.5-1.2-1.5,12.6-30.6-5-30.3-11.1.2-15.1,17.6-14.2,26.4-3.3-4.4-6.9-9.5-13.2-7.6-9.1,5.4-1.5,13.7.7,20.8-34-3.2-66.4,10-99.9,11.2-31.1,1.2-62.1-5.7-92.9-8.7l-1.1-.9c6.5-8.5-.9-15.6-1.3-21.8-.4-5.8,8.1-23.4-5-25.3-10.4-1.5-12.7,10.3-13.5,18l-5.2,2.1-1.2-2.2c-.2-10.1,5.6-15.1,2.8-25.9-6.8-26.5-52-19.5-45.6,10,1.7,8.1,9.1,12.5,7.1,21.6-1.5,0-3.3.3-4.8-.2-4.7-1.4-6.5-19.7-13.2-23.1l-8.6.2-5.7,10.6c2,2.1,2,5.9,3.6,9.1,3.6,7.2,12,10.5,9.6,20.4l-67.6,2.7c-5.4-6.7-8.8-12.2-16.6-16.4-17.8-9.5-36.5-5.3-49.7,9.5-16.4-2.8-35.2,2.8-39.7,20.3l-51.3,13.6v-308h0ZM36.6,601.5c3,.5,7-.3,10.2,0l-7.2,11.5c7.5,17,30.4.1,36-10.8l18.3,1.2c.7.5.7.5.7,1.3,0,1.2-10.1,12.7-10.2,19.5-.3,16.6,19.8,4.6,25.7-.7,8.3-7.4,10.8-14.8,10-26l14.4-5.7c6.4-1.1,22,32.3,29.7,15.8,5.8-12.4-2.9-27.1-15.7-30v-1.5c.4-5.6,10.6-5.8,15.6-8.8,17.4-10.7,16.6-35.5.5-46.9-18.4-13.1-48.3-5.4-51.8,18.5-31.6-7.5-73.2,13.5-71.5,49.5-1.4,3.2-17.6,4.9-9.3,11.2,1,.7,3.5,1.8,4.6,2h0ZM306.5,533.8c-9.2-10.4-29.7-9.8-41.3-3.9-4.5,2.3-7.1,6.3-11,8.8-9.9,6.2-17.7,6.9-24.3,18.6-13.7,24,8.3,39.9,29.9,44,4.8.9,11.4.7,15.5,1.7,8,1.9,9.6,7.1,21.1,5,8.4-1.5,6-6.8,9.4-10.4,3.7-4,16-8.8,19.8-14.5,14.2,14.8,35.5,6.2,15.5-11.5,11.1-5.2,17.1-26.2-1.9-21-5.6,1.5-9.8,5.6-14.9,8.1-1.7-3.2-10.5-8-11.6-10.3-2.3-4.4-1.5-9.2-6.1-14.5h0ZM398.7,574.2c-5.2-11-19.8-2.7-15,6.7,3.7,7.4,19.4,2.5,15-6.7ZM378.4,603.7c-6.3-5.8-17.9,1.7-13.3,9,6,9.2,21.4-1.4,13.3-9ZM464,630.3c-28.8-36.4-108.8-13.8-78.2,48.2,1.7,3.5,4,3.5,2.7,9-10.1,11.9-27.4,8.3-37.2,21.6-6.3,8.6-8,28.8,5.3,31.6,7.1.7,7.4-2.8,10.1-7.7-1.8-4.5-2.2-8.9,1-13.4,4.1-5.5,10.4-6.5,16.8-7.3-2.7,14,5.8,26.7-9.1,36.1-1.6,3.7-1,7.2,3.1,8.5,16.2,2.7,23.8-15.6,24.8-28.7,2.4,4.6,9.4,10.6,10.1,15.7.9,6.4-4,12.8-2,19.1,1.5,3.2,8.2,3.4,11.1,2.2,6.4-2.5,6.9-8.9,9.6-14.2v-5.2c-2.1-2.2-2.3-6.6-3.5-9.9-4-10.6-11.9-20-4.5-32.1,1.3,9.7,5.8,19.3,12.8,26.1,5.7,5.5,15.4,9.3,16.9,17.9.9,5.5-2.3,17.2,8,15,7.4-1.6,9.8-12,9.1-18.4-1.6-15.1-17.1-19.8-22.3-32.1,4.3,3.5,9.2,6.9,14.3,9.2,7.1,3.1,20.7,4.6,24.8,11.5,2.8,4.6,0,13.4,8,13l5.7-2.2c10.5-15-5.1-28.4-17.8-34.7,14.2.9,24.1-16.3,36.5-15.1,5,.5,10.2,4.7,14.1-1.9,1.2-10-8.8-14.4-17.4-14.1-9.3.4-16.9,8.1-25.2,11.1-10.9,3.9-20.8,3.7-31.2-1.5l-.3-2.9c15-15.1,17.3-37.4,3.9-54.4h0ZM200.5,706.4v10.2c7.2,10.5,16.3-4.4,18.3-11.4,2.7-9.8-.4-11.5,6.1-20.4,1.4-1.9,6.2-10.1,6.9-10.7,4.3-3.5,11.6-3.8,15.7-11.3,2.8-5.2.7-7,1.1-11.4.2-2.5,1.9-4.5,1.7-7.6-.7-9.8-12.3-8.8-18.8-5.5-9.1-19.2-41.2-21-58.5-13-30.2,14-28.8,50.8-53.1,67-9,6-18.3,8.5-29.2,7.7-4-12.8-13.7-23.8-27.8-25.1-4.4-.4-14.7-.6-14.9,5.6l19.8,27.1c-6,4.6-8.5,11.8-12.7,17.7-2.4,3.4-12.1,10.7-7.1,14.6s19.1-.4,24.3-3.3c9.3-5.2,14.2-13.8,20.2-22,21.7,9.7,46.5,11.5,69.6,6.6l-1.5,10.4c2.9,7.3,18.2-1.4,22.2-4.5,2.2-1.7,7.4-7.1,9.2-9.3,2.9-3.6,3.6-9.3,8.3-11.2h0ZM332.8,656.7c-7.4-8.1-12.2-13-24.7-9.3-7,2.1-8.4,7-12.6,9.8-1.7,1.2-5.7,1.7-7.7,2.9-8.2,5-9.3,18.6.3,22.3,18.6,6.8,29.2,10.8,44.7-4.4l11.6,2.5,1.5-1.2c1.7-4.9-3.6-6.3-4.9-10.1l7.2-10.1-.3-2.2c-1.9-3.7-10.3.6-13.2,1.4-.7,0-1.5-1.1-2-1.6h0Z" fill="#fff"/>
  <path d="M582.5,827.7h-19.5s-2.7,2.6-2.7,2.6l-1.4-2.7-7.8,2.1c-3,.5.2-2-3.3-2.1-1.9,0-9.8.2-10.9.7l.3,1.3c-4.2-2.5-9.1-2-13.9-2-1.2,0-2.1,1.1-2.7,1.1-3,0-7.1-3.7-8.5,1.6l-1.4-2.7h-25.6c-.5,2.9-2.1,3.2-2.7,0l-6.2.7v-13.2c0-.2-2.2-1-2.3-2.6-2.8-.7-20.1-2.2-20.1,2.3v15.5l-1.3-2.6H11.9v-17.5c7.5-3,15.3-5.7,23.1-7.9,7.1-2,20.5-6,27.4-6.2,6-.2,14.8,3.4,21.8,3.9,9,.7,23.6.7,32-2.3,1.8-.7,2.7-2.7,4.3-3,2.2-.3,8.3,1.3,11.1,1.4,10.4.2,37.8,1.7,37.4-13.1,0-.2,1.9-1.2,2.3-1.3,7.1-1.7,25.9-2,34.1-2.2,20.9-.6,42.6.5,63.3,2,49.3,3.6,106.6,17.7,155,13.2,15.4-1.4,81-16.5,90.7-9.5,1.2.9,2.2,3.7,4,5.2,5,4.1,12.3,4.9,18.5,4,4.7-.7,10.1-4.8,12.7-4.9,7.8-.4,24.9,6.2,32.8,8.8v29.3h0Z" fill="#fff"/>
  <path d="M245.7,330.1c3.4,5.2,7.1,5.4,12.8,6.3,1.5,13.3,19.7,20.2,30.1,12,12,10,26.8,3.9,32-9.8,9.9,1.6,16.8-2.3,19.8-11.9,1.4-4.6,1-10.9,2.1-14.4.4-1.2,5.2-4.3,5.3-7l37.5,16.7-2.3,3.5,1.3,2.1c10.8-11,23.9-20.4,36.9-28.3l1,1.6c.8,20,6.8,43.5,21.8,57.4-23.9,18.1-56.8,23.2-83.4,7.6l-4.6-27-1.7,1.1c1.2,9.5,3,20.1,3.4,30.2.1,4.1.9,19.1-2.4,21.4-4.2,2.8-33.1,5.8-39.5,6.1-25.2,1.2-53.3-.7-77.7-6.6l-3.7-9.1,3.6-47c-2.4,0-5.8,30.4-5.7,34.2-26.5,10-58.2,3.6-80.4-13.5,14.4-16,21.7-39,23.1-60.3.9,0,1.9-.1,2.8.2,2.1.6,22,16.9,25.2,19.6,4.1,3.5,7.3,8.2,11.9,11.2l-.3-6.9,28-12.2.8,1.3c-1.3,7.4-1.8,15,2.5,21.5h0Z" fill="#fff"/>
  <path d="M582.5,493.4c-1.6,1.6-27.7-6.5-32.2-7.1-14.2-1.9-25.8,2.7-39.7,4.1-4.6-3.3-8-7.9-12.2-11.6-7.5-6.6-11.5-3.3-5.7-16.3,4.6-10.4,15.2-16.3,23.6-23.3,3.7-5.3-3.8-7.5-7.6-8.3-21.9-4.7-50.5,3.2-67.3,17.8-2.4,2.1-8.4,10-9.4,10.7-2.1,1.4-10.5,2.4-13.8,3.7-13.6,5.1-25.6,16.2-29.9,30.2h-14.1c0,0-9.8-61-9.8-61l1.6-1,17.4,3.9c5.6-14.5,20.7-23.3,36.3-19.4,4.8,1.2,7.6,4.6,12.1,4.9,21.2-30.6,61.3-35,87.9-8.5,8.9-4.3,15.2-7.9,25.6-6.6,11.3,1.5,17.4,10.3,21.9,19.6l15.4-4.5v72.6h0Z" fill="#fff"/>
  <path d="M518.7,509.6c13.1,24.1,18.8,50.7,13.6,78.3,10,2.7,19.5,5.9,24.9,15.4,3.4,6.1,6.5,16.7,3.9,23.4-.9,2.4-2.2,4.2-4.8,2.5-8.2-11.1-25.7-12-28.3-27.1l-1.9.8c-6.7,12.7-23.5,10-33.4,18.7l-2-.7c-3.3-17.3,17.2-28.9,31.5-31.9l1.4-1.7c-4-15.1-13.8-27.2-24.6-38.1-1.5-1.6-3.3-1.3-4.9-3.7-2.6-4.1-3.7-11.9-7.1-17.2-2.2-3.4-12.8-14.7-17-13.4l-.3,1.6c3.3,3.1,7.4,4.6,10.5,7.9,1.5,1.6,6,8.2,7,10.2s6.1,16.3,6.2,17.7c0,1,.1,1.8-.6,2.6l-2.3,1c-21.3-.3-35.6-15.9-44.2-33.7-4,0,5.2,14.4,4.9,15.8-.7.6-13.8-2.4-16.2-2.6-20.1-1.6-38.9,9.1-59,.6l1-1.3c11.7,1.5,24.6-2,34.7-8.1,2.2-1.3,9.5-8.4,10.2-8.4,1.3,0,3.1,1.9,4.6,2l.7-2-8.7-6.5-1.5.9,1.5,4.7c-10.5,10.8-31.1,17.5-45.9,14.5-5.2-1.1-12.8-4.2-9.9-10.9,1.6-4.1,15.4-9.7,19.5-12.8,10.9-8.1,8.9-24.5,23.9-35.5,38.4-28.2,92.3-1.1,112.7,36.7h0ZM419.7,494.9c-3.4,3-.5,7.7,4.1,7.6,8.6-.3,2.6-13.5-4.1-7.6Z" fill="#fff"/>
  <path d="M261.2,411c-2,9-2.7,18.1-3.9,27.2-.7,5.1-2.7,11.9-2.5,18,0,1.9.5,4.9,3.1,4.3l5.9-48.8,23.7,1.3-.6,53.7c.9,3.2,2.5,1.1,3.3-.6l.6-53.1h29.4c.7.9,1.2,19.7,1.6,22.8.8,6.5,1.7,17.8,3.4,24.3.3,1.3.7,3.2,2.6,3l-3.9-50.7,32.2-5.2,15.2,85.3-1.4.8c-10.9-2.4-21.3-5.3-32.6-4.4-9.1.8-17.9,5.2-26.7,6.9-31.5,6.2-56-13.9-87.1-3.9-1.1-.8-.2-11.4,0-13.3.1-1.1,1.3-.9,1.4-1.4,2.8-23.9,4.6-48.3,10.9-71.4l25.4,5.4h0Z" fill="#fff"/>
  <path d="M11.9,341.6c20.9-1.5,38.6,14.9,35,36.3,4.2,1,3.1-2,6-4.2,10.5-8.2,29.4-5.5,35.7,6.4,2.9,5.5,2.9,10.3,3.2,16.3,6.9-2.8,12.1-5,19.9-3.8s15.6,10,16.2,17.4c.2,1.9-1.3,8.6.4,8.8,12.2-11.7,38.7-4.4,32.6,14.8-2.7,4.5-13.9,7.7-18.7,7.7H11.9v-99.6Z" fill="#fff"/>
  <path d="M582.5,127l-2.3,1c-49.4-2.2-99.8,2.9-149-.1-8.1-.5-20.9,0-22.8-10.1,3.1-14.4,20.6-20.8,32.3-11.6.6-21.2,22-31.6,38.3-16.5,1-11.4,5.3-21.5,16.2-26.3,14.7-6.5,34.6-1.3,39.7,14.9,1.7,5.4.4,10.7,3.1,14.7,13.4-15.7,42.8-8.5,40.8,13.9h3.7s0,20.1,0,20.1h0Z" fill="#fff"/>
  <path d="M339.1,319.5c-1.3,11.7-8.1,19.9-20.5,14.5-3.2,14.4-18.4,22.9-29.4,10.2-2.6.2-2.6,2.4-5,3.6-9.7,5-23-3.7-24-14.2-2.5-2-7.5,1.6-11.7-5.4s-3-10-1.9-16.8c1.3-8.4-.8-4.7-2.9-10.1-4.9-12.5,1.1-27,6.6-38.2,1,4.3,2.1,10.2,6.9,11.9l-3.3,6.6c4.4-.7,6-5.2,10.3-7.8,2.4-1.4,9-4.2,11.6-3.4.7.2,1.5,2.9,5.7,3.7,10.6,2,9.4-1.8,15-3.5,6.8-2,17.2,4.2,22,8.8,2.2,2.1,8.6,12.3,6.2,1.6,7.3-5.1,12-12.3,13.2-21.1,10.7,13.2,13.7,32.6,4.9,47.5l-4-1.3c-.4,4.3.5,9.3,0,13.5h0ZM270.8,281.6c-1.4.9-.7,1.5,0,2.6,5,7.2,30,7.2,35.9-.3l-1.6-1.6c-9.2,4.9-17.1,6.1-27.1,2.6-2.9-1-4.3-3.2-7.2-3.3h0ZM294.7,296.6l-.2-2.5c-5.7,2.4-9.3.3-14.8-.7.8,5.2,12.2,5.7,15,3.1h0Z" fill="#fff"/>
  <path d="M11.9,192.6c3.4-.3,6.3.2,9.4,1.5,3.5,1.5,4.4,4.6,7.7,4.5-2.1-39.2,58.4-38.4,54.7.3l1,1.6c12.2-11.2,35.6-4.4,31.4,13.7l.5,1.8c3.2.2,5.4-1.7,8.9-1.7,14.7-.3,20.9,19.7,4.3,22.9l-118.1.3v-44.9h0Z" fill="#fff"/>
  <path d="M582.5,284.9v84.1l-105.7.2c-25.2-7.3,1.8-33.9,17.3-18.6l1.3-.7v-9.9c0-1.9,6-10.8,7.6-12.2,6.9-6.5,20.6-7.5,29.2-4,3,1.2,3.8,3.2,6.5,4.1,2.1-1-.3-7.1-.3-9.5.3-14.4,18.8-33.4,33.2-33.4h10.9Z" fill="#fff"/>
  <path d="M333.6,200.1c4.3,3.9.7,2,7.3,5.6,21.6,11.8,13.6,25.9,18.3,43.7,2,7.6,8.9,12.9,9.5,21.5.4,6-2.1,12-1.2,18.4,1,7.4,9.3,14.1,4.6,22.7l-23-9.3c3.2-11.1,2.7-23.5-1.7-34.2-2.2-5.5-6.1-8.3-8-14.4-2.2-7-2.7-15.5-2.2-22.8-10.6-2.5-20.4-10.7-19.9-22.4l-1.5-1.1c-7.8,7.1-24.5,18-32.3,5.9-6.8,5.3-14.6,12.7-23.9,8.7-2.7-1.2-3.1-3.9-5.5-4.4-2.4,1.5-2.7,31.3-3.4,36.1s-5.6,11.8-7.4,17c-3.5,10.5-5.5,21.7-1.8,32.5l-13.1,5.7c.3-6.1,5.2-12.1,5.3-18.2.1-10.8-5.8-12.6,0-26.3,7.9-18.4,6.5-15.5,8.5-35.6,4.1-40,64.5-53.6,91.5-29.2h0Z" fill="#fff"/>
  <path d="M314.6,213.7c1.1,10,10.1,16.9,19.2,19.5-1.4,8,2.5,16.6,1.9,24.3-.6,6.7-6,16.3-11.6,20.1-2.8.8-8.5-5.1-11.6-6.6-3.4-1.7-10.3-4-14-3.9-4.8.1-10.5,8.2-17.4,3.6-2.8-2.8,6.6-17.9,7.1-21.3.2-1.3.3-2-.9-2.8l-10.2,20.1-17,6.2c-5.4-1.1-6.4-6.8-6.8-11.4-.4-4,1.2-35.2,2.6-36.4,10.8,2.7,18.6.4,26.8-6.9,10.1,9,22.2.2,32-4.6h0ZM277.7,232.8c.4-9.8-24.4.9-16.2,6.6,4.2-6.2,9.3-6.4,16.2-6.6ZM322.2,235.9c-4.3-5.8-11.8-9.4-17.9-3.9l1,2.2h9.7c3.5.7,4.8,9.1,8.7,5.9,2.3-1.9-.7-3.3-1.4-4.2h0ZM267.4,252.4c2.5,3.1,7.6,1.5,7.6-2.8,0-8.4-11.8-2.4-7.6,2.8ZM308.2,253.8c3.1,2.7,8.5-.4,6.3-5.2-3.6-7.9-11.3.9-6.3,5.2Z" fill="#fff"/>
  <path d="M225.6,445.2l-6.4,48.2c-24.3,9.2-46-5.5-70.1-5.3,1.7-22.1,27.4-36.2,45.8-21.8,5.1-12.9,16.7-21.4,30.7-21.1h0Z" fill="#fff"/>
  <path d="M290,724.4c2.2,3.9,2.6,8.9,2.2,13.3-.5,5.5-4.7,9.2-4.6,14.4.1,5.7,7.5,9.8,9.5,15,1.8,4.7,1.4,9.7,1,14.5l-13.2-1c-8.9-10.2-12-16.9-6-30.2-2-4.3-5.2-7.2-7.8-10.8-1.8-2.5-1.4-7.4-5.1-4.9-2.5,3.2,8.3,11.2,8.9,14.9.7,4.2-1.6,7.9-1.9,11.8-.7,8.4,2.1,12.1,7.2,18.1l-19.8-1.6c-6.7-7.7-.2-16-.8-23.5-.4-5.4-4.1-7.3-6.1-11.7-12.1-25.8,25-38.6,36.4-18.3h0Z" fill="#fff"/>
  <path d="M148.2,268.7c1.4,1.5,7.1,9.3,7.4,10.8.7,3.9-5.4,12,1.1,16.6,2.1.5-.1-6.4,0-7.9.2-4.3,3.6-5.7,4.3-9.6.7-3.7-1.6-9,2.9-10.8.8.4,1.2,1,1.7,1.6,10.1,16.1,6.5,38.5-.3,55.1-4.4-3.1-7-7.8-11.2-11.2-2.3-1.8-6.1-3.3-8.2-5-11.3-9-24.9-19.9-26.4-35.2,9.2-.8,12,11.4,19.5,14.5,1.2-.9,1.2-1.3.6-2.6-1.2-2.9-12.6-12.1-15.5-14.8-1.9-2.6.5-4.2,3.1-4.3,5.7-.2,14.8,11.7,18.4,15.8l1.6-1c-3.1-6.5-8.6-11.8-14.6-15.8-1.4-2.1-.7-4.3,1.8-4.9,3.6-.5,11.4,6.1,13.8,8.7h0Z" fill="#fff"/>
  <path d="M449.9,285.6c5.8-1.4,8.4-8.6,13.5-11.9,3-1.9,11.9-5.5,9.2,1.3-.6,1.5-17.9,14.9-15.5,17.2,7.6-2,12.1-14.3,20.5-14.5,2.9,2.9-9.5,20.2-11.9,22.8-7.2,8-16.9,12.5-25.1,19.1-3.7,2.9-5.9,7.4-10.2,9.6-4.8-12.1-6.8-26.1-4.8-39,.9-5.6,2.8-14.8,8.6-16.9l1.3,9.4c.2,1.7,3.1,4.6,3.6,7.5.7,4.1-1.5,7.7.5,10.7l3.7-5.6-1.9-11.8c6.1-6,13.6-21.7,24-16.9v2.7c-2.7.9-17.8,14.1-15.5,16.5h0Z" fill="#fff"/>
  <path d="M487.5,470.9c-16.1-7.3-32.5-12.7-50.5-11.2-2.8-.5,4-7.2,5.2-8.3,16.8-15.2,49.9-23.9,71.3-15.5.6.7.3,1.3,0,2-.6,1.5-14.5,10.4-17.4,13.6-4.3,4.8-8.5,12.8-8.7,19.4h0Z" fill="#fff"/>
  <path d="M127.8,761.3c10.8-1.4,23.8,2.5,31.5,10.4,24.9,25.3-25.1,22.7-38.6,20.1-1.4-9-7.3-13.2-14.4-17.8,4.1-6.6,14.1-11.7,21.6-12.7h0Z" fill="#fff"/>
  <path d="M356.8,395.2l.8,4.2c-.6,7.4-21.9,8.9-28.1,9.6-12.7,2.2-92.4,3.3-93.9-10.9l2.2-3.6c31.1,6.6,65.3,8.5,96.9,4.6,3.1-.4,21.1-4.5,22.1-3.8h0Z" fill="#fff"/>
  <path d="M541.3,768.8c-.6,1.9-6.3,12.6-5,14.1l2.4-.6c5.2-4.7,9.7-13.5,18.1-11.6,6.2,3.2-9.1,16.7-12.6,18.4-5.8,2.9-14.3,4.2-20.2,1.2-6.4-3.3-16.5-19.2-12.3-26.6,7.6-2.1,10.5,8.2,12.7,13.5l2,.4c1-10,0-37.3,16.6-31.4,4.5,3.6-.1,17.7-1.7,22.6h0Z" fill="#fff"/>
  <path d="M111.9,781.8c18.6,17.8-15.8,16.3-26.5,15.6-8.4-.6-25.9-2-14.7-13.6,10.1-10.4,30.3-12.3,41.1-2h0Z" fill="#fff"/>
  <path d="M301.2,768.6l-5-9c10.8-3.9,1.6-24.1,16.9-19.7,7.2,5.6,1,13.6.8,20.2-.3,7.7,6.9,13.6,1.2,22.3l-13.4-.8-.5-13h0Z" fill="#fff"/>
  <path d="M245.6,758.9l8.8,4.1,1.6,14.2-15.7-.4c.3-5.5-.8-10.3-4.2-14.6-1.2-1.5-3.4-2.5-4.8-4.4-4.4-6.1-7.6-19.3,3.9-19,6.7,1,7.2,15.5,10.5,20.2h0Z" fill="#fff"/>
  <path d="M443,546.5c0,.2-.9.3-1,.8-.7,3.6-.1,18.3-2.5,19.2-11.9-1.5-16.8-16.8-18.1-27.2l22,.3,1.1,1.5c-.6,1.8-1.1,3.6-1.6,5.4h0Z" fill="#fff"/>
  <path d="M158.7,322.1c1.2,1.3,5.2,5.7,5.2,7.1-2.7,8.7-7.6,17-13.9,23.7-3.5,0-3.3-14.2-3-16.8.1-1.2,1.3-.9,1.3-1.4.9-6.3,1.4-12.5,3.3-18.6.8-.6,6.2,5.3,7,6.2h0Z" fill="#fff"/>
  <path d="M444.3,320.6c3,.2,6.1,31.8,1.3,35-3.9.8-12.9-18.3-13.4-22.1l12.1-12.8h0Z" fill="#fff"/>
  <path d="M486.6,157.2c4.7,6.6-5.7,10.2-5.8,12l4.7,17.5,42.8-20.1c19.5-3.1,9.5,15.4-.6,19.8,1.3,1.9,5.2.7,7.2,2.6,1.1,1.1,1.4,2.4,1.4,3.9,0,8.7-12.7,9.9-13.2,11.2,13,8.8-1.7,15-11.3,13.8-.2,6.8-5.4,8.3-11.2,8.9-1.3,1.1,7.8,7.5,8.5,8.3,5.6,7.3,0,12.1-7.8,10.1.7,3.4.6,5.9-3.1,7.1-6.4,1.4-15.2-6.4-18.6-11.4l-11.9,1.3c1.4,3.6,4.5,6.9,8.5,6.9v2l-5.8-.5-5.9-8.1-5.5-.6,6.6,10.2-2.8.9-7.1-10.8c-9.4-1.8-17.7-4.4-26-8.9-2.1-1.1-6.8-5.5-8.1-5.8-2.9-.8-13.7,1-18.3.5-4.4-.4-12.1-2.3-13.2-7.2l1-4.6c-6.6-1.1-10.8-2.8-15-8.1-1.3-3.4,1-4.9,3.7-6.1l.7-1.6c-5.7-.7-17.3-9.4-12.9-15.8,5.1-7.3,30.4,6,33.9,3.8l2-6.1c-.8-2.6-8.3-2.1-7.9-11.4,0-1.4,1.4-2.5,1.3-3.2-.2-1.7-7.2-5.1-3.8-11.2,4.4-7.8,24.6,6,30.6,6.9,7.9-3.1,15.6-5.5,24.3-4.6,2.8.3,7.8,2.7,9.9,2.5,2.3-.1,11.9-5.2,15.7-6.1s10.3-1.9,12.9,1.7h0ZM476.9,199.2l5.9-10.2c.8-7.2-2.3-13.6-6.6-19.1l7.6-7.6c-.4-12.1-21,2.4-25.8,2.6-2.5.1-8-2.7-11.4-3.1-8.5-1-15.2,2.2-22.9,5.1-9.3-2.6-18.6-11.2-28.6-8.5-.7,6.2,5.5,6.6,7.9,10.8l-4.5,1.7v2.1c0,0,7.8,7.6,7.8,7.6-7.4,25.4,16.6,50.9,40.1,56.7,11.6,2.9,21.6,2.7,33.1-.2,5.2,5.1,10.6,13.7,19.1,12.2l-7.3-11.9c1.9-1.6,12.6,8.6,15.5,4.6,5-6.6-21.4-16.3-20.2-24.4,6.8,2.2,15.1,9,21.8,2.9l-3.3-4.6,1-1.6c5.8,1.1,12.8,1.3,18.1-1.7v-4s-8.6-5.2-8.6-5.2c.8-2.1,19.7-3.8,17.7-11.1-1-3.6-12.1-3.1-15.1-3.1v-1.9c4.8.8,27.8-17.8,14.2-18.5-5.2,0-42.7,18.4-47.5,22.4-1.3,1.1-7,9.2-8.2,7.9h0ZM379.6,186c-3-.3-6.5.2-9.6,0l-.4,2.6c1.1,6.1,17.3,11.7,17.5,13.5.4,2.8-8.2.5-7.8,5.2s13.7,6.2,17.4,7l.6,1.4-4.4,3.6.7,2c2.6,4.4,18.2,5.1,22.9,3.7l.9-1.1c-9.1-8.6-13.7-19.6-16.5-31.7-6.9-1.1-14.7-5.5-21.5-6.2h0Z"/>
  <path d="M344,102c2.6,4.9,2.5,8.2,3.1,13.6-1.7,1.4-6.9,5.2-8,6.7-1.8,2.6-2.6,7.2-5.5,10.7-7.1,8.4-14.5,7.8-21.4,12.3-.4.2-3.9,6.4-5.2,7.6-1.6,1.5-6.5,5.5-8.2,2.4,3.4-2.7,8.5-4.5,9.2-9.6-7.9-.4-10.4,8.5-18.7,8.5l-1.1-2.6,9.9-5.3c-6,.9-16.3-5.4-21-2.9-2.1,1.1-5.4,5-8,6.5-10.5,6-22.1,4.2-9.8-7.5-2.7.6-6.8-.5-7.1-3.7-.7-6.2,13.3-9,17-12.1-6.6-2.4-21.7-9.5-14.6-18.1-3.9-4.2-9.4-9.1-7.5-15.6l3-1.3c-2.1-4.4-5.3-8.9-2.2-13.9,6.9-4.7,29.7,18.6,31.9,16.5l-2-5.4,5.2-4.1c-4.1-3.7-9.8-6.4-9.6-12.9.6-1.7,1.7-2.2,3.4-2.6,11.8-2.2,31.8,11.5,38.3,21,12.7-2.2,22.5-.1,28.9,11.7h0ZM311,90.8c-6.8-10.3-22-19.2-34.6-18.2-2.4,2.1,14,12.6,12.5,16.5l-6.6-.7c-.6.6,1.1,7.6,1.7,8.5s12.7,8.9,13.4,8.5c3.3-5.2,8.4-11.3,14.6-13.1.6-1.6-.8-1.2-1-1.6h0ZM301.5,112.8c-1.8,1.8-8.2-6.3-9.9-7.5-7.2-5.2-16.9-9.8-24.7-14.9-5.4-3.6-9.9-10.4-17.5-9.9-.4,5.5,3.9,10.8,7.9,14.2l-.4,1.7-7.6-1.3c.3,6.9,6.8,10.8,11.9,14.3v2.2l-5.9.7c-3,3.9,16.7,13.2,19.8,14.2s7.1,0,9.2,2.7c-4,2.4-8.5-.1-13.2.6-2,.3-14.1,5.9-15.1,7.3l-.7,2,11.9-.3-9.2,11.9c8.8.2,14.5-7.7,21.5-11.7,19.4,9.7,45.9,5.2,56.2-15.1.2-1.4-3.5-1.3-4.9-2.2-7.1-4.4-2.2-16.5,4.6-15.8,1.3.1,7.3,5,7.6,4.6-2.2-19.3-24.3-23-37.2-10.5-2.2,2.2-3.2,5.6-5.9,7.2l1.6,5.9h0ZM342.4,114.8l-7.6-5.3c-10.5,2.7-.2,15.9,5.7,7.3l-7.9-.7v-2l9.9.7h0Z"/>
  <path d="M136.2,86.7c3.3-3,5.6-9.2,9.6-12.5,7.3-5.9,18.4-6.1,25.7,0,2.7,2.2,6.1,9.6,6.6,9.9,2.3,1.6,11,.3,13.9,3.6-2,5.3-8.7,5.7-12.8,8.6-.8,4.5-2.5,8.9-5.4,12.5-2.4,2.9-7.6,5.2-8.5,6.7-1.1,1.8-1.4,6.7-2.5,9.4-10.1,25.1-45.2,30.1-66,15.1l-19.9,7.8-2.4-1c-3.3-3.5-1.2-6,0-9.6l-13.1-3c-2.2-4.7.4-7.1,4.5-8.5-16.3-7.8-12.7-17.6,6.1-14,9.5,1.8,19.6,9.7,28.9,6.4l-8.6-7.7v-7.8c-7-4.9-14.7-14.6-5.9-21.7-10.1-12.7-13.2-29,9.4-20.7,13.2,4.8,30,17,38.3,28.3,1.1.2,1.4-1.2,1.9-1.7h0ZM136.9,96.5c-3-3.8-5.7-8.3-9-11.8-11.7-12.6-67.2-45.3-36.3-1.9v1.6l-5.3.3c-3.7,9.5,6.7,13.8,12.6,18.5l-3.7,1.6c-1.5,6,7.7,10.6,12.3,12.2,2.5.8,6.2-.4,7.8,2.4-3.5,2.1-6.3.2-10.1.8-3.3.5-7.1,2.6-9.9,2.5-5.6-.2-32.4-14.2-36.4-7.9v1.4c3.8,7.6,14.6,6.2,21.5,9.9l-1.1,1.8c-2.1.7-18.4-1.4-15.1,4.7,6.2,4.3,14,.3,20.8,1.6,2.3,1.3-4.7,2.9-5.3,3.3-1.9,1.1-4.9,3.3-3.8,5.9,1.8,4.5,17.7-5.5,20.7-6.8,19.1,13.4,50.2,12.1,62.1-10.2,2.1-3.8,2.4-9.3,3.9-12.2,1.3-2.5,5.5-3.8,7.3-5.6,10.2-9.9,7.7-32-7.1-35.6-11.8-2.8-21.2,8.5-24.9,18.3l3.9,9.2-2,.7c-1.3-1.4-1.7-3.2-2.9-4.7h0ZM186.7,88.4l-7.3-.7v4c.5.5,7.5-1,7.3-3.3h0Z"/>
  <path d="M199.9,195.2c18.3.7,23.8,13.6,4.6,20.2,1.9,3.4,6.2,6,4,10.5-7.4,2.1-11.7-6.7-19.2-3.6l5.3,8.6c-5,1.1-7.4-3.9-8.7-7.8l-7.8-.8,5.8,9-.9,1.6c-6.7-.6-6.2-8.3-8.2-10.9-.6-.7-7.1-3.1-9.2-4.6-7.3-5.2-12.3-15.2-11.4-24.2l-3.9-2.7,1.2-5.5c7.6.1,8.9-7.5,15.1-10,13.9-5.5,30.8,6.3,33.3,20.3ZM191.7,184.9c-18.1-20.7-45,.6-29.7,24.1,4,6.1,11.1,9.9,18.4,10.6,4.8.5,12.3-1.6,15-1.2,1.4.2,9.1,5.7,10.4,4.5-4.1-12.2-20.1-3.7-24.8-15.8-.2-8,9.2-10.4,15.5-11.9,1.1-1.7-3.5-8.8-4.8-10.2h0ZM152.4,186.7c-1.6,1.5,2.8,4.2,3.3,1.6.3-1.6-2.8-2.1-3.3-1.6ZM213.6,203.3c-6.5-5.8-16.7-6.8-24.5-2.7-2.9,1.6-7,4.8-3.7,8.1,6.1,4.8,16.3,5.1,23.2,1.6,2-1,6.3-4.5,4.9-7h0Z"/>
  <path d="M556.6,265.6c-5,4.5-7.4-9.9-9.8-12-3-2.8-13-1.7-8.9-8.3,2.9-2,7.3-1.9,9.6-4.9,2.7-3.4,2.8-15.4,9.5-10.2l4,10.5,10.7,6.4c.3,3.9-8.7,4.6-11.1,7.8-1.7,2.3-2.4,9.2-4.1,10.7h0ZM555.4,232.8l-1.5.8c-1.2,6.5-5.2,12.3-12.4,13,1.4,2.9,5.1,2.9,7.9,5.6,2.1,2,4,6.8,4.6,9.6l1.4-.9c1.5-7.5,4.8-11.5,12.5-12.9,1.6-1.6-5.8-2.8-6.4-3.1-4-2.1-5.8-7.8-6.1-12h0Z"/>
  <path d="M377.1,53.6c3.7,5.2.8,13,12.3,13.7l1.8,2.8-9.9,6c-11.1,25.9-8.6,6.8-14.5.8-2.3-2.4-11-2.9-10.6-6.7,1.7-4.6,8.3-3.7,11.2-7.3,1.9-2.3,3.9-17.5,9.7-9.4h0ZM376.2,62.4c-.6-1.1-1.6-6.3-2.6-6.3-2.9,7.8-4.4,12.3-13.5,13.8l.9,1.4c7.4,1.2,10.7,6,11.6,13.1,1.3,1.6,3-6.2,3.3-6.7,2.3-3.8,6.8-5.5,10.5-7.5-4.5-2.5-7.6-3.1-10.3-7.8h0Z"/>
  <path d="M213.5,126.8c1.6,2,1.6,8,4.1,10.7,21.6,9.3,3.9,8-.7,13.2-9.7,25.8-8.8,4.6-14.2-.3-2.4-2.5-11.1-2.1-10.2-6.9l11-6.2,4.4-11.1,2.8-.8c.6,0,2.4,1,2.8,1.5h0ZM212.7,135.6c-1.1-2-.8-5-2.9-6.3l-4,10.2-9.9,4.6c8.9,2.4,10.9,6.1,14.2,14.2,2.1-6.6,5.9-12.9,13.5-13.9l-.9-1.4c-5-.9-7.7-3.2-10-7.4h0Z"/>
  <path d="M82.3,295c1.2,1.5,1.8,7.8,3.5,10.1,4.1,5.6,22.3,3.8.4,13.6l-3.9,10.3c-7.6,5.5-6.3-5.5-9.7-9.4-2.7-3.1-11.3-3.8-10.6-7.9l1.4-2c2-1.3,7-2.1,8.6-3.5,2.2-2,4.5-18.3,10.3-11.2h0ZM79.8,298.1c-1.4-1.2-4.1,8.4-5.6,9.9-2.4,2.5-5.8,2-8.3,4.3,8.2,2.5,10.3,6.3,12.9,14.2,2.5-6.8,5.6-12.6,13.5-13.9-7.1-3.3-11.4-6.2-12.5-14.5h0Z"/>
  <path d="M464,630.3c13.4,16.9,11.1,39.2-3.9,54.4l.3,2.9c10.4,5.2,20.3,5.4,31.2,1.5,8.3-3,15.9-10.7,25.2-11.1,8.6-.4,18.6,4,17.4,14.1-3.9,6.5-9.1,2.3-14.1,1.9-12.5-1.2-22.3,16-36.5,15.1,12.7,6.2,28.4,19.7,17.8,34.7l-5.7,2.2c-8,.4-5.2-8.4-8-13-4.1-6.8-17.7-8.3-24.8-11.5-5.1-2.2-10-5.6-14.3-9.2,5.2,12.3,20.8,17,22.3,32.1.7,6.4-1.8,16.8-9.1,18.4-10.3,2.2-7-9.5-8-15-1.5-8.6-11.2-12.4-16.9-17.9-7-6.8-11.5-16.5-12.8-26.1-7.4,12.2.5,21.5,4.5,32.1,1.2,3.3,1.4,7.7,3.4,9.9v5.2c-2.6,5.2-3.1,11.7-9.5,14.2-2.9,1.2-9.6,1.1-11.1-2.2-2-6.3,2.9-12.7,2-19.1-.7-5.1-7.6-11-10.1-15.7-1,13.1-8.6,31.3-24.8,28.7-4.2-1.2-4.8-4.7-3.1-8.5,14.9-9.4,6.4-22.1,9.1-36.1-6.4.7-12.7,1.8-16.8,7.3-3.3,4.4-2.8,8.9-1,13.4-2.8,4.9-3,8.4-10.1,7.7-13.3-2.8-11.6-23-5.3-31.6,9.8-13.3,27.1-9.8,37.2-21.6,1.3-5.5-1-5.5-2.7-9-30.6-62,49.4-84.5,78.2-48.2h0ZM464,635.5c-24.4-38.3-105.7-18.5-75.5,40.4,2.9,5.7,5.3,9.8.7,15.5-7.4,9.1-25.9,7-35.5,19.4-5.6,7.2-7.1,25,4.3,27.3l3.6-1.6c3.6-9.6-2.5-15.5,8-22.4s21.1-3.7,32.1-14.5c.9-.8,5.5-9.7,7.5-7.7-4.9,11.8-9.5,19.3-4.3,32.3,3.8,9.5,12.8,12,11.5,24.6-.5,4.5-6.6,14.6,2.3,14.2,5.4-.2,8.9-6,9.6-10.9,2-25.3-22.5-27.5-2.9-57.6,1.4-.3,1.3,2.2,1.4,3.2,3.7,23.9,5.6,23.1,23,37.7,10.6,9,4.2,13.7,8.9,24.8h2.6c6.9-3,7.6-11.7,6.5-18.3-1.8-10.5-17.7-17.8-21.5-26.6-2.4-5.7-4-15.6-1.7-21.3l3.5,11.7c9.5,21.1,44.6,9.9,45.3,36.5,5.3,2.7,8.6-2,8.8-6.9.7-22-33.2-22.9-42.4-38-8-13.2.6-14.6,5.8-23.9,6.7-12.2,6.2-26.1-1.2-37.7h0ZM530.2,686.1c-10.8-15.1-33.5,6.5-47.1,8.2-8.9,1.1-14.9-1.2-23.2-2.8,2.2,6.1,13.4,15.8,19.9,15.8,11.2,0,18.7-7.3,27-12.4,9.4-5.8,13-2.9,23.1-2.5,2.9-.8,1.5-4.5.3-6.2h0ZM399.5,712.8c.3-2.7.6-5.7.6-8.4-9.1,6.7-13.9,4.5-13.5,17.5.1,5.3,2.4,9.2,2,14.3l-10,13.9c-.6,9.5,11.4,2.1,14.7-1.8,7.3-8.9,6.7-20.2,6.7-31,0-1.5-.9.2-.3-4.4h0Z"/>
  <path d="M36.6,601.5c-1.1-.2-3.7-1.2-4.6-2-8.3-6.3,7.8-8.1,9.3-11.2-1.7-35.9,39.9-56.9,71.5-49.5,3.4-23.9,33.4-31.6,51.8-18.5,16.1,11.5,16.9,36.2-.5,46.9-5,3.1-15.1,3.2-15.6,8.8v1.5c12.8,2.9,21.5,17.6,15.7,30-7.7,16.5-23.3-16.9-29.7-15.8l-14.4,5.7c.8,11.2-1.7,18.6-10,26-5.9,5.3-26,17.3-25.7.7.1-6.8,10.2-18.3,10.2-19.5,0-.8,0-.8-.7-1.3l-18.3-1.2c-5.6,10.9-28.5,27.8-36,10.8l7.2-11.5c-3.2-.3-7.2.5-10.2,0h0ZM169.1,530c-15.1-22.7-52.8-15.5-53.7,13.8-.5,15,13.1,28,.7,41l3.4,10.1c11.6-1.1,22.2-9.9,26.2-20.9l-1.8-4.8c22.1,1,39-18.5,25.3-39.2ZM103.9,562.3c.5.4.8,1.5,1.4,1.6l8-5.7-1.3-15.6-14.3-2-5.4,7c4.9,3.2,7.7,11.1,11.6,14.6ZM92.3,540.8c-.8-.7-12.6,2.5-14.4,3.1-.7.2-10.3,3.5-8.7,4.8,8,1.5,19.7.8,23.1-7.9h0ZM70.8,568.1c-.2.9-.9,5-.3,5.4,4.3,2.5,31.2-4.3,31.6-7.9l-11.7-15.9-13.9,3.3c-3.5,4-3.6,9.5-4.6,14.4,0,.5-1,.6-1,.7h0ZM71.6,555.7c.3-.9.9-1.7.9-2.8l-7.8-2.6c-3.6,1.8-16.4,14.3-14.2,18.1l16.8,4.6c0-6.3,2.4-11.7,4.4-17.4h0ZM112.2,581.7c8.6.9,7.4-19.4,2.9-19.8l-8,5.7,5.1,14.2ZM80.8,576.5c-3,.4-6.8-.3-9.9,0-3,0-1,15-1,17.5l.6,1.4c13.3.7,27.5-3.4,39-10.1l-5.1-16.1c-7.9,2.3-15.4,6.1-23.6,7.3h0ZM66.6,576.5l-19.7-5.2c-9.1,19,3.8,23.4,20.4,24.3l-.7-19.1h0ZM148.1,599.8c2.8,2.9,10.2,15.4,13.8,5.7,4.3-11.6-4.4-23.1-15.7-25.8l-7.8,10.9c3.7,2.5,6.6,6,9.7,9.2h0ZM113.4,587l-12.4,5.3c1.7,11.4-15.4,24.8-13.2,34.4s19.7-4,22.9-7.8c8.1-9.4,8.8-21.3,2.6-31.9h0ZM33,596.9c5.4,2.9,13.5,3.3,18.5-1l-8.2-5.5-10.2,6.5h0ZM98.3,594.3l-22.4,4.3c6.9,2.1,22.1,6.6,22.4-4.3ZM72.6,598.9l-17.1-1.7c-3.2,3.8-14.9,11.9-12.2,17.5,10,8,27.2-5.4,29.4-15.8h0Z"/>
  <path d="M200.5,706.4c-4.8,1.8-5.4,7.5-8.3,11.2-1.8,2.2-7,7.6-9.2,9.3-4,3-19.4,11.8-22.2,4.5l1.5-10.4c-23.1,4.9-48,3.1-69.6-6.6-6,8.2-10.9,16.8-20.2,22-5.2,2.9-19.2,7.3-24.3,3.3s4.7-11.2,7.1-14.6c4.1-5.9,6.7-13.1,12.6-17.7l-19.8-27.1c.2-6.2,10.4-6,14.9-5.6,14.1,1.3,23.8,12.3,27.8,25.1,10.9.8,20.2-1.7,29.2-7.7,24.3-16.2,22.8-53,53.1-67,17.3-8,49.3-6.2,58.5,13,6.5-3.3,18.1-4.3,18.8,5.5.2,3.1-1.5,5.1-1.7,7.6-.4,4.4,1.7,6.2-1.1,11.4-4,7.5-11.4,7.9-15.7,11.3-.7.6-5.5,8.8-6.9,10.7-6.5,9-3.4,10.6-6.1,20.4-2,7-11.1,21.9-18.3,11.4v-10.2h0ZM224.7,632.8c-10-9.9-33.4-10.8-46.1-6.6-28.9,9.4-30.2,40.4-47.7,59.8-10.7,11.9-25.7,19.1-42.1,16.5-4.6-15.7-18.2-28.8-35.7-24.4-4.5,3.4,6.2,11.4,8.1,14.2s3.1,7.6,5.1,10.1c2.8,3.5,6,2.5,8.2,5.6-9.5,2.3-9.5,9-13.9,15-1.5,2.2-11.1,12.3-10.2,13.7,6.1,4.3,17.3-.4,22.9-4.2,7.5-5,12.9-14,17.5-21.5,17.2,6.1,39.3,2.9,56.6-2.1,3.5-1,22.2-7.6,22.8-10.3.5-2.6-1-5.9,1-8.1,1.7-.2,1.6,2.6,1.7,3.6,1.1,13.4-5.8,19.8-8.9,30.7-.4,1.4-.7,2.8-.8,4.2l2.7,2.4c14.3-2.1,29.4-17.9,30.7-32,.5-5.5-.7-10.9-.5-16.4,4.5-3.3,20.6-14.4,21.5-19.4.4-1.8,0-3.1-1.2-4.5.2-2,10,1,12.1.9,10.3-.4,26.9-16.2,15.1-20.9-5.9-2.3-11.9,4-13.4,3.2-1.1-3.1-3.3-7.4-5.5-9.6h0ZM245.4,655.6c-7.9,6.1-14.9,8.6-25,6.6-1.8,9.7-13.4,16.1-20.8,21.7l-.3,19.1c9.9-5.8,18.6-14,25.7-22.9,1.5-1.9,4-7.8,4.8-8.5,1.2-1.1,4.8-1.3,6.6-2.3,4.5-2.4,9.7-8.4,9-13.7h0ZM217.7,693.2c-.5-.7-13,9.9-13.4,10.7-.9,2-1.2,12.9,1.3,13.6,9.1-3.4,11.8-15.4,12.1-24.3h0ZM168.2,703.8c-18.1,8.8-37.9,13.1-58,13.5,17.5,4.6,36.3,4.7,53.8.3l4.3-13.8h0Z"/>
  <path d="M306.5,533.8c4.7,5.3,3.9,10.1,6.1,14.5,1.2,2.3,10,7.2,11.6,10.3,5.1-2.5,9.3-6.5,14.9-8.1,19-5.2,13,15.8,1.9,21,20,17.8-1.3,26.3-15.5,11.5-3.8,5.7-16.1,10.5-19.8,14.5-3.4,3.7-1,8.9-9.4,10.4-11.5,2.1-13.1-3.1-21.1-5-4.1-1-10.7-.8-15.5-1.7-21.6-4.1-43.6-19.9-29.9-44,6.6-11.6,14.4-12.4,24.3-18.6,3.9-2.5,6.5-6.5,11-8.8,11.6-5.9,32.1-6.5,41.3,3.9h0ZM264.9,535.6c6.3-.3,12.8,0,19.1,0s18.1,5.9,23.7,9.2l.9-.9c-5.9-19.4-33.3-18.8-46.8-8,.7,1.1,2.4-.3,3-.3h0ZM289.2,548.5c-5.5-14.9-11.2-10-25.4-9.6,5.2,9,9.4,17.6,9.9,28.4l17.5-3.9c1.1-5.2-.4-10.3-2.1-14.8h0ZM267.4,554.4c-.9-2.6-4.6-13.6-7.3-14.1-11.6,2.4-24.5,10.2-29.2,21.4-10.2,25.4,12.3,6.8,12.4,12.4-.4,3.5-10.9,5.5-13.8,3.7.9,9.2,26.7,24.1,33.4,19.8,7.3-10.4,9.5-22.7,7.5-35.3-.6-3.5-2-5.2-3-7.9h0ZM288.3,598.9l15.8-4.3c6.4-11.8,8.1-25.4,4.8-38.5-3-11.9-7.9-12.8-19-15.9l-1,1.3c6.1,4.4,4,16.5,6,22,.3.9,3.4,2.5,4.4,4.2.8,1.3.9,4.2,2.1,5.9-1.4,2.4-1.5,5.2-3.1,7.5-1.4,2.1-4.1,2.9-5.2,4.7-1.9,3.2-2.1,9.6-5,13.1h0ZM322.1,562.4c-2.7-2.1-6.1-10.9-11.4-11,4.2,9.6,4.3,22.5,1.4,32.7-.4,1.4-3.7,4.8-2.7,7.5,6.1-3.3,13.2-8.4,15.2-15.2,3.4,1.9,3.6,5.9,7.3,8.2,2.2,1.4,11,4.3,13.2,2.7,3-6.9-4.2-11.5-8-15.9,24.6-19.3,4.4-26-11.9-8.5-1.1.5-2.2.2-3.1-.5h0ZM287.5,566.7c-2.1.2-12.2,2.6-13.1,4l-1,10.3c7.4,2.6,22.4,5.2,24.1-5.7,1.3-8.4-2.9-9.4-10-8.7h0ZM288.9,586.3l-16.5-1.9-6.6,15.1,18.9-.2,4.1-13h0ZM301.5,599.5l-19.8,3.6c5.7,3.2,17.8,4.5,19.8-3.6Z"/>
  <path d="M332.8,656.7c.5.5,1.3,1.7,2,1.6,3-.7,11.3-5,13.2-1.4l.3,2.2-7.2,10.1c1.3,3.9,6.6,5.2,4.9,10.1l-1.5,1.2-11.6-2.5c-15.5,15.2-26.1,11.3-44.7,4.4-9.6-3.8-8.5-17.4-.3-22.3,2-1.2,6-1.7,7.7-2.9,4.1-2.8,5.6-7.7,12.6-9.8,12.5-3.8,17.3,1.2,24.7,9.3h0ZM345,658.2l-12.1,4.5c-3.8-4.7-3.5-8.5-9.7-11.4-9-4.2-17.7-1.7-23.6,6,.1,1.4,4.5,3.1,6,5.7,3.7,6.8,1.4,16.8-6.1,19.9,10.9,5.2,25.5,2.2,31.5-8.9l11.4,4-4.6-8.9,7.3-10.9h0ZM301.9,663.1l-6.6-2.7c-30.4,10.9,10.5,36.5,8.5,6.3l-1.9-3.7h0Z"/>
  <path d="M398.7,574.2c4.4,9.3-11.2,14.1-15,6.7-4.8-9.4,9.7-17.7,15-6.7ZM394.9,573.4c-3.6-3.8-11.2.2-8.7,5.7,2.8,6.1,14.7.6,8.7-5.7Z"/>
  <path d="M378.4,603.7c8.2,7.6-7.3,18.2-13.3,9-4.7-7.3,7-14.8,13.3-9ZM375.7,605.8c-5.1-3.8-10.2,1.6-7.3,5.6,3.8,5.4,13.2-1.3,7.3-5.6Z"/>
  <path d="M419.7,494.9c6.8-6,12.7,7.3,4.1,7.6-4.6.1-7.5-4.6-4.1-7.6Z"/>
  <path d="M270.8,281.6c2.9.1,4.4,2.3,7.2,3.3,10,3.4,17.9,2.2,27.1-2.6l1.6,1.6c-6,7.5-30.9,7.5-35.9.3-.7-1.1-1.5-1.7,0-2.6h0Z"/>
  <path d="M294.7,296.6c-2.8,2.6-14.2,2.1-15-3.1,5.5,1,9.1,3.1,14.8.7l.2,2.5h0Z"/>
  <path d="M322.2,235.9c.7.9,3.7,2.4,1.4,4.2-3.9,3.1-5.2-5.2-8.7-5.9h-9.7s-1-2.3-1-2.3c6.2-5.4,13.7-1.9,17.9,3.9h0Z"/>
  <path d="M277.7,232.8c-6.9.1-12,.4-16.2,6.6-8.1-5.6,16.6-16.4,16.2-6.6Z"/>
  <path d="M308.2,253.8c-5-4.3,2.7-13.2,6.3-5.2,2.2,4.9-3.1,7.9-6.3,5.2Z"/>
  <path d="M267.4,252.4c-4.1-5.2,7.6-11.1,7.6-2.8s-5.1,5.9-7.6,2.8Z"/>
  <path d="M476.9,199.2c1.2,1.4,7-6.8,8.2-7.9,4.9-4.1,42.3-22.5,47.5-22.4,13.6.7-9.4,19.3-14.2,18.5v1.9c3,0,14.1-.4,15.1,3.1,2,7.2-16.9,8.9-17.7,11.1l8.6,5.2v4c-5.4,2.9-12.3,2.8-18.1,1.7l-1,1.6,3.3,4.6c-6.7,6.1-15-.7-21.8-2.9-1.2,8.1,25.1,17.8,20.2,24.4-3,4-13.6-6.3-15.5-4.6l7.3,11.9c-8.5,1.4-13.9-7.1-19.1-12.2-11.6,2.9-21.5,3-33.1.2-23.5-5.8-47.5-31.3-40.1-56.7l-7.9-7.6v-2.1c0,0,4.6-1.7,4.6-1.7-2.3-4.2-8.5-4.6-7.9-10.8,10-2.7,19.4,6,28.6,8.5,7.7-2.9,14.4-6.1,22.9-5.1,3.3.4,8.8,3.2,11.4,3.1,4.8-.3,25.4-14.7,25.8-2.6l-7.6,7.6c4.3,5.5,7.4,11.9,6.6,19.1l-5.9,10.2h0ZM410,195.5c5.9,12.7,12.8,9.9,23.6,8.5,1.9-.2,4.5,2.4,8-1.3,12.5,8.2,31.7,3,30-14.4-1.9-18.8-26.7-19.1-32.6-2.4-7-21-38.3-10.4-29,9.5h0ZM465,216.3l-2.6.3c-3.4,6.1-8.8,5.3-12.9.4-4.5,6.8-9.9,5.7-15.1.2l-1.7.8c1.4,4.2,5.9,7.1,10.2,6.9,2.7-.2,5.7-3,6.8-3.1,2-.2,5.2,3,10.1,1.5,1.5-.4,6.6-5.6,5.2-6.9h0ZM468.3,228.9c-5.3,3.8-8.5,4.9-14.8,2.6l-1,1.3c4.7,4.1,15.9,4.1,15.8-3.9h0Z" fill="#fff"/>
  <path d="M379.6,186c6.8.8,14.5,5.1,21.5,6.2,2.7,12,7.4,23.1,16.5,31.7l-.9,1.1c-4.6,1.4-20.3.7-22.9-3.7l-.7-2,4.4-3.6-.6-1.4c-3.7-.8-16.9-2.2-17.4-7s8.1-2.4,7.8-5.2c-.2-1.8-16.4-7.5-17.5-13.5l.4-2.6c3.1.2,6.6-.3,9.6,0h0Z" fill="#fff"/>
  <path d="M301.5,112.8l-1.6-5.9c2.8-1.7,3.7-5.1,5.9-7.2,13-12.5,35.1-8.7,37.2,10.5-.3.4-6.3-4.5-7.6-4.6-6.8-.7-11.7,11.4-4.6,15.8,1.4.9,5.1.8,4.9,2.2-10.3,20.3-36.8,24.7-56.2,15.1-7,4.1-12.7,11.9-21.5,11.7l9.2-11.9-11.9.3.7-2c1-1.3,13.1-7,15.1-7.3,4.8-.8,9.2,1.8,13.2-.6-2.1-2.6-6.2-1.7-9.2-2.7s-22.8-10.3-19.8-14.2l5.9-.7v-2.2c-5.1-3.5-11.6-7.4-11.9-14.3l7.6,1.3.4-1.7c-4.1-3.4-8.3-8.7-7.9-14.2,7.6-.5,12.1,6.3,17.5,9.9,7.8,5.1,17.5,9.7,24.7,14.9,1.7,1.2,8.1,9.4,9.9,7.5h0ZM319,107c-2.4.9-2.4,5.6,1.2,5.9,5.4.3,5.2-8.2-1.2-5.9Z" fill="#fff"/>
  <path d="M311,90.8c.2.4,1.6,0,1,1.6-6.2,1.8-11.3,8-14.6,13.1-.7.4-12.8-7.6-13.4-8.5s-2.3-8-1.7-8.5l6.6.7c1.4-3.9-14.9-14.3-12.5-16.5,12.5-1,27.8,7.9,34.6,18.2h0Z" fill="#fff"/>
  <path d="M342.4,114.8l-9.9-.7v2l7.9.7c-5.9,8.7-16.2-4.5-5.7-7.3l7.6,5.3h0Z" fill="#fff"/>
  <path d="M136.9,96.5c1.2,1.5,1.5,3.3,2.9,4.7l2-.7-3.9-9.2c3.7-9.8,13.1-21.2,24.9-18.3,14.8,3.6,17.4,25.6,7.1,35.6-1.8,1.8-6,3.1-7.3,5.6-1.5,2.9-1.9,8.4-3.9,12.2-11.9,22.2-43,23.5-62.1,10.2-3,1.3-18.9,11.3-20.7,6.8-1-2.6,1.9-4.8,3.8-5.9.6-.4,7.7-2,5.3-3.3-6.8-1.3-14.6,2.6-20.8-1.6-3.3-6.1,13-4,15.1-4.8l1.1-1.8c-6.9-3.7-17.7-2.2-21.5-9.9v-1.4c4.1-6.3,30.8,7.7,36.5,7.9,2.7,0,6.6-2,9.9-2.5,3.8-.6,6.7,1.3,10.1-.8-1.6-2.8-5.3-1.6-7.8-2.4-4.6-1.5-13.9-6.2-12.3-12.2l3.7-1.6c-5.8-4.7-16.2-9-12.6-18.5l5.3-.3v-1.6c-30.9-43.3,24.6-10.6,36.3,1.9,3.2,3.5,6,8,9,11.8h0ZM162.8,85.9c-2.2-2.3-9.1,1.9-5.1,5.4s8-2.3,5.1-5.4Z" fill="#fff"/>
  <path d="M186.7,88.4c.3,2.3-6.7,3.8-7.3,3.3v-4l7.3.7h0Z" fill="#fff"/>
  <path d="M191.7,184.9c1.3,1.5,5.9,8.6,4.8,10.2-6.3,1.5-15.7,3.9-15.5,11.9,4.6,12.1,20.7,3.7,24.8,15.8-1.3,1.2-9-4.3-10.4-4.5-2.7-.5-10.2,1.7-15,1.2-7.3-.7-14.4-4.4-18.4-10.6-15.2-23.5,11.6-44.8,29.7-24.1h0ZM172,193.8c3-3.1-1.3-8.1-4.9-5.2s1.7,8.4,4.9,5.2Z" fill="#fff"/>
  <path d="M213.6,203.3c1.4,2.5-2.9,6-4.9,7-6.9,3.5-17.1,3.2-23.2-1.6-3.3-3.2.8-6.5,3.7-8.1,7.7-4.1,17.9-3.1,24.5,2.7h0Z" fill="#fff"/>
  <path d="M152.4,186.7c.5-.4,3.6,0,3.3,1.6-.5,2.5-4.9-.2-3.3-1.6Z" fill="#fff"/>
  <path d="M555.4,232.8c.4,4.2,2.2,9.9,6.1,12,.6.3,8,1.6,6.4,3.1-7.7,1.4-11,5.4-12.5,12.9l-1.4.9c-.6-2.8-2.5-7.6-4.6-9.6-2.8-2.6-6.6-2.7-7.9-5.6,7.2-.7,11.1-6.6,12.4-13l1.5-.8h0Z" fill="#fff"/>
  <path d="M376.2,62.4c2.7,4.7,5.8,5.4,10.3,7.8-3.7,2-8.2,3.6-10.5,7.5-.3.5-2.1,8.3-3.3,6.7-.9-7.1-4.2-11.9-11.6-13.1l-.9-1.4c9.1-1.5,10.6-6.1,13.5-13.8,1,0,1.9,5.2,2.6,6.3h0Z" fill="#fff"/>
  <path d="M212.7,135.6c2.3,4.2,5,6.6,10,7.4l.9,1.4c-7.6,1-11.4,7.2-13.5,13.9-3.2-8.1-5.2-11.8-14.2-14.2l9.9-4.6,4-10.2c2.1,1.3,1.8,4.3,2.9,6.3h0Z" fill="#fff"/>
  <path d="M79.8,298.1c1.1,8.3,5.4,11.2,12.5,14.5-8,1.3-11,7.1-13.5,13.9-2.5-7.9-4.6-11.6-12.9-14.2,2.4-2.3,5.8-1.8,8.3-4.3,1.4-1.5,4.2-11.1,5.6-9.9h0Z" fill="#fff"/>
  <path d="M464,635.5c7.4,11.6,7.9,25.5,1.2,37.7-5.1,9.3-13.8,10.6-5.8,23.9,9.1,15.1,43.1,15.9,42.4,38-.2,4.9-3.5,9.6-8.8,6.9-.7-26.6-35.8-15.4-45.3-36.5l-3.5-11.7c-2.2,5.7-.7,15.6,1.7,21.3,3.8,8.9,19.7,16.2,21.5,26.6,1.1,6.6.4,15.3-6.5,18.3h-2.6c-4.7-11.1,1.8-15.7-8.9-24.7-17.4-14.6-19.2-13.8-23-37.7-.1-.9,0-3.5-1.4-3.2-19.6,30.2,4.9,32.3,2.9,57.6-.7,4.8-4.3,10.7-9.6,10.9-8.9.4-2.7-9.7-2.3-14.2,1.3-12.6-7.7-15.1-11.5-24.6-5.2-13-.6-20.6,4.3-32.3-2-2-6.6,6.8-7.5,7.7-10.9,10.7-22,7.8-32.1,14.5s-4.4,12.8-8,22.4l-3.6,1.6c-11.4-2.2-9.8-20.1-4.3-27.3,9.6-12.4,28.1-10.3,35.5-19.4,4.6-5.7,2.2-9.8-.7-15.5-30.3-58.9,51.1-78.7,75.5-40.4h0ZM404.2,644.6c-4.9-5-12,3.8-7.4,8.4s12.3-3.4,7.4-8.4ZM441.1,652.5c-6.2-4.5-11,3.4-7,8,4.5,5.3,12.4-4.2,7-8ZM408.8,663.7c-.8-.3-1.6-.3-2.4-.2,0,8.8,8.4,13,16.1,9.1l3.6-5-1.5-2.2c-.7,0-3.5,6.1-8.4,5.8-5.7-.3-5.3-6.9-7.3-7.5h0Z" fill="#fff"/>
  <path d="M530.2,686.1c1.2,1.7,2.5,5.4-.3,6.2-10.2-.4-13.7-3.3-23.1,2.5-8.3,5.2-15.8,12.4-27,12.4-6.5,0-17.6-9.7-19.9-15.8,8.4,1.6,14.3,3.9,23.2,2.8,13.7-1.7,36.4-23.3,47.2-8.2h0Z" fill="#fff"/>
  <path d="M399.5,712.8c-.6,4.7.3,2.9.3,4.4,0,10.8.6,22.1-6.7,31-3.2,4-15.3,11.4-14.7,1.8l10-13.9c.4-5.1-1.8-9-2-14.3-.3-13,4.5-10.8,13.5-17.5.1,2.7-.2,5.7-.6,8.4h0Z" fill="#fff"/>
  <path d="M169.1,530c13.7,20.7-3.2,40.2-25.3,39.2l1.8,4.8c-4,10.9-14.6,19.8-26.2,20.9l-3.4-10.1c12.4-13-1.2-26-.7-41,1-29.3,38.6-36.5,53.7-13.8ZM160.4,538.7c.9,1.7,5.6,2.5,5.8-1.5.4-6.3-8.4-3.7-5.8,1.5ZM135.3,545.4c.9,1.3,6.9,1.5,6.9-2.9,0-7.4-10-1.6-6.9,2.9ZM150.9,551.6h-2.4c1.6,9.7,15.4,5.5,15.8-2.4l-1.6-1.1c-2.1,4.7-8.3,9.5-11.8,3.5h0Z" fill="#fff"/>
  <path d="M113.4,587c6.1,10.7,5.4,22.5-2.6,31.9-3.3,3.8-20.7,17.2-22.9,7.8s14.9-23,13.2-34.4l12.4-5.3h0Z" fill="#fff"/>
  <path d="M80.8,576.5c8.2-1.2,15.7-5,23.6-7.3l5.1,16.1c-11.5,6.7-25.7,10.8-39,10.1l-.6-1.4c0-2.5-2.1-17.5,1-17.5,3.1-.3,6.9.4,9.9,0h0Z" fill="#fff"/>
  <path d="M70.8,568.1c0-.1.9-.2,1-.7,1.1-4.9,1.1-10.4,4.6-14.4l13.9-3.3,11.7,15.9c-.3,3.7-27.3,10.4-31.6,7.9-.7-.4,0-4.5.3-5.4h0Z" fill="#fff"/>
  <path d="M66.6,576.5l.7,19.1c-16.6-.9-29.5-5.3-20.4-24.3l19.7,5.2h0Z" fill="#fff"/>
  <path d="M148.1,599.8c-3.1-3.2-5.9-6.7-9.7-9.2l7.8-10.9c11.2,2.6,20,14.1,15.7,25.8-3.6,9.8-11-2.8-13.8-5.7h0Z" fill="#fff"/>
  <path d="M72.6,598.9c-2.1,10.4-19.3,23.9-29.4,15.8-2.6-5.6,9.1-13.7,12.2-17.5l17.1,1.7h0Z" fill="#fff"/>
  <path d="M103.9,562.3c-3.9-3.5-6.7-11.5-11.6-14.6l5.4-7,14.3,2,1.3,15.6-8,5.7c-.6-.1-.9-1.2-1.4-1.6Z" fill="#fff"/>
  <path d="M71.6,555.7c-1.9,5.7-4.3,11-4.4,17.4l-16.8-4.6c-2.2-3.8,10.7-16.3,14.2-18.1l7.8,2.6c0,1-.6,1.9-.9,2.8h0Z" fill="#fff"/>
  <path d="M112.2,581.7l-5.1-14.2,8-5.7c4.4.5,5.7,20.8-2.9,19.8Z" fill="#fff"/>
  <path d="M92.3,540.8c-3.4,8.7-15.1,9.3-23.1,7.9-1.6-1.3,8-4.5,8.7-4.8,1.8-.6,13.6-3.8,14.4-3.1h0Z" fill="#fff"/>
  <path d="M33,596.9l10.2-6.5,8.2,5.5c-4.9,4.2-13.1,3.8-18.5,1h0Z" fill="#fff"/>
  <path d="M98.3,594.3c-.3,10.9-15.5,6.4-22.4,4.3l22.4-4.3Z" fill="#fff"/>
  <path d="M224.7,632.8c2.3,2.3,4.5,6.6,5.5,9.6,1.4.9,7.5-5.5,13.4-3.2,11.8,4.7-4.9,20.6-15.1,20.9-2.1,0-11.9-2.9-12.1-.9,1.1,1.4,1.5,2.7,1.2,4.5-1,5-17.1,16.1-21.5,19.4-.1,5.5,1,10.9.5,16.4-1.3,14.2-16.4,29.9-30.7,32l-2.7-2.4c.1-1.4.4-2.8.8-4.2,3.1-10.9,10-17.3,8.9-30.7,0-1,0-3.8-1.7-3.6-2,2.2-.5,5.5-1,8.1-.5,2.8-19.3,9.3-22.8,10.3-17.3,5-39.4,8.2-56.6,2.1-4.6,7.5-10,16.4-17.5,21.5-5.6,3.8-16.8,8.5-22.9,4.2-.8-1.4,8.7-11.6,10.2-13.7,4.3-6,4.4-12.7,13.9-15-2.2-3.1-5.4-2.2-8.2-5.6-2-2.5-3.2-7.3-5.1-10.1s-12.6-10.8-8.1-14.2c17.5-4.4,31.2,8.7,35.7,24.4,16.3,2.6,31.4-4.6,42.1-16.5,17.4-19.5,18.8-50.5,47.7-59.8,12.7-4.1,36.1-3.2,46.1,6.6h0ZM210.2,644c-9.6.5-4.4,15,3.5,8.7,4.1-3.2,1.7-9-3.5-8.7Z" fill="#fff"/>
  <path d="M245.4,655.6c.7,5.4-4.6,11.3-9,13.7-1.8,1-5.4,1.2-6.6,2.3-.8.7-3.3,6.7-4.8,8.5-7.1,8.9-15.8,17.1-25.7,22.9l.3-19.1c7.4-5.6,19.1-12,20.8-21.7,10.1,2,17.1-.6,25-6.6h0Z" fill="#fff"/>
  <path d="M168.2,703.8l-4.3,13.8c-17.4,4.4-36.2,4.3-53.8-.3,20.1-.5,40-4.7,58-13.5h0Z" fill="#fff"/>
  <path d="M217.7,693.2c-.3,8.9-3,20.9-12.1,24.3-2.5-.7-2.1-11.7-1.3-13.6.4-.8,12.8-11.4,13.4-10.7h0Z" fill="#fff"/>
  <path d="M267.4,554.4c1,2.7,2.4,4.4,3,7.9,2,12.5-.2,24.9-7.5,35.3-6.7,4.3-32.4-10.7-33.4-19.8,2.9,1.8,13.4-.1,13.8-3.7-.1-5.6-22.6,13-12.4-12.4,4.7-11.2,17.6-19,29.2-21.4,2.7.5,6.4,11.5,7.3,14.1h0ZM256.2,563.7c-6.6-10.5-12,6.3-3.9,5.5,3.5-.4,2.6-2.9,4.9-4,.6-1.5-.8-1.2-1-1.5Z" fill="#fff"/>
  <path d="M322.1,562.4c.9.7,2,1.1,3.1.5,16.2-17.4,36.5-10.7,11.9,8.5,3.8,4.4,11,9,8,15.9-2.2,1.6-10.9-1.3-13.2-2.7-3.7-2.3-3.9-6.3-7.3-8.2-1.9,6.8-9.1,11.9-15.2,15.2-1-2.8,2.4-6.2,2.7-7.5,2.9-10.2,2.8-23.1-1.4-32.7,5.2.1,8.7,8.9,11.4,11h0Z" fill="#fff"/>
  <path d="M288.3,598.9c2.9-3.5,3.1-10,5-13.1,1.1-1.8,3.8-2.6,5.2-4.7,1.6-2.3,1.7-5.1,3.1-7.5-1.2-1.7-1.3-4.6-2.1-5.9-1.1-1.7-4.1-3.2-4.4-4.2-2-5.5,0-17.6-6-22l1-1.3c11.1,3.1,16.1,4,19,15.9,3.3,13.1,1.5,26.7-4.8,38.5l-15.8,4.3h0Z" fill="#fff"/>
  <path d="M289.2,548.5c1.7,4.5,3.1,9.6,2.1,14.8l-17.5,3.9c-.5-10.8-4.6-19.4-9.9-28.4,14.1-.4,19.8-5.3,25.4,9.6h0Z" fill="#fff"/>
  <path d="M287.5,566.7c7.1-.7,11.3.3,10,8.7-1.7,10.8-16.7,8.3-24.1,5.7l1-10.3c.9-1.4,11-3.8,13.1-4h0Z" fill="#fff"/>
  <path d="M264.9,535.6c-.5,0-2.3,1.4-3,.3,13.4-10.8,40.8-11.4,46.8,8l-.9.9c-5.7-3.3-17.3-9.2-23.7-9.2s-12.8-.3-19.1,0h0Z" fill="#fff"/>
  <polygon points="288.9 586.3 284.8 599.3 265.8 599.5 272.5 584.4 288.9 586.3" fill="#fff"/>
  <path d="M301.5,599.5c-2,8.1-14.1,6.8-19.8,3.6l19.8-3.6Z" fill="#fff"/>
  <path d="M345,658.2l-7.3,10.9,4.6,8.9-11.4-4c-5.9,11.1-20.6,14.1-31.5,8.9,7.4-3.1,9.8-13.2,6.1-19.9-1.4-2.6-5.9-4.3-6-5.7,5.9-7.8,14.7-10.2,23.6-6,6.1,2.9,5.9,6.7,9.7,11.4l12.1-4.5h0Z" fill="#fff"/>
  <path d="M301.9,663.1l1.9,3.7c2,30.2-38.9,4.6-8.5-6.3l6.6,2.7h0ZM292,668.2c-2.6.9-1.6,5,.7,5.7,5.6,1.7,5.3-7.9-.7-5.7Z" fill="#fff"/>
  <path d="M394.9,573.4c6,6.3-5.9,11.8-8.7,5.7-2.5-5.5,5.1-9.5,8.7-5.7Z" fill="#fff"/>
  <path d="M375.7,605.8c5.9,4.3-3.5,11-7.3,5.6-2.9-4,2.1-9.4,7.3-5.6Z" fill="#fff"/>
  <path d="M410,195.5c-9.3-19.9,22-30.5,29-9.5,5.9-16.7,30.7-16.4,32.6,2.4,1.8,17.4-17.4,22.6-30,14.4-3.5,3.6-6.1,1-8,1.3-10.8,1.4-17.7,4.2-23.6-8.5h0ZM464.8,180.3c-7.9-8.1-19.7-2.2-22.9,7.3l3,12.9c13.9,11.3,32.8-7.1,20-20.3h0ZM431.9,200.4c-.6-5.8,1.3-8.2,4-12.7-2-10.5-17-14.5-22.5-4.8-7,12.3,7,26,18.5,17.5h0ZM434.8,201.1l3.2.5c4.8-2.2,2.1-12.3-1.6-8.9l-1.5,8.5Z"/>
  <path d="M465,216.3c1.4,1.4-3.8,6.5-5.2,6.9-4.9,1.5-8.2-1.8-10.1-1.5-1.1.1-4.1,2.9-6.8,3.1-4.3.3-8.8-2.7-10.2-6.9l1.7-.8c5.2,5.5,10.6,6.6,15.1-.2,4.1,5,9.5,5.7,12.9-.4l2.6-.3h0Z"/>
  <path d="M468.3,228.9c.1,8-11.1,8-15.8,3.9l1-1.3c6.4,2.2,9.5,1.2,14.8-2.6h0Z"/>
  <path d="M319,107c6.4-2.3,6.5,6.2,1.2,5.9-3.6-.2-3.6-5-1.2-5.9Z"/>
  <path d="M162.8,85.9c2.9,3.2-1.1,9-5.1,5.4s2.9-7.7,5.1-5.4Z"/>
  <path d="M172,193.8c-3.1,3.2-8.5-2.2-4.9-5.2s7.9,2.1,4.9,5.2Z"/>
  <path d="M404.2,644.6c4.9,5-2.7,13.3-7.4,8.4s2.5-13.4,7.4-8.4Z"/>
  <path d="M441.1,652.5c5.3,3.8-2.5,13.3-7,8-3.9-4.6.8-12.5,7-8Z"/>
  <path d="M408.8,663.7c2,.7,1.6,7.2,7.3,7.5,4.9.3,7.7-5.7,8.4-5.8l1.5,2.2-3.6,5c-7.6,3.8-16-.4-16.1-9.1.9,0,1.6,0,2.4.2h0Z"/>
  <path d="M150.9,551.6c3.4,6,9.6,1.2,11.8-3.5l1.6,1.1c-.4,7.9-14.1,12.1-15.8,2.6h2.4c0-.1,0-.1,0-.1Z"/>
  <path d="M135.3,545.4c-3.2-4.5,6.9-10.3,6.9-2.9,0,4.4-6,4.2-6.9,2.9Z"/>
  <path d="M160.4,538.7c-2.6-5.2,6.2-7.8,5.8-1.5-.3,4-5,3.2-5.8,1.5Z"/>
  <path d="M210.2,644c5.2-.3,7.6,5.4,3.5,8.7-7.9,6.3-13.1-8.1-3.5-8.7Z"/>
  <path d="M256.2,563.7c.2.3,1.6,0,1,1.5-2.4,1.1-1.5,3.6-4.9,4-8,.8-2.6-16,4-5.5Z"/>
  <path d="M292,668.2c6-2.2,6.2,7.5.7,5.7-2.3-.7-3.3-4.8-.7-5.7Z"/>
  <path d="M464.8,180.3c12.9,13.2-6,31.5-20,20.3l-3-12.9c3.2-9.6,15-15.4,22.9-7.3h0ZM452,188.1c-1.7,1.6-1.4,6.3,2.1,6.5,7.2.5,2.5-10.8-2.1-6.5Z" fill="#fff"/>
  <path d="M431.9,200.4c-11.5,8.5-25.4-5.2-18.5-17.5,5.5-9.8,20.5-5.8,22.5,4.8-2.7,4.5-4.7,6.9-4,12.7h0ZM425.3,193.7c2-2.2.9-6.9-2.6-6.3-6.9,1.1-.8,10,2.6,6.3Z" fill="#fff"/>
  <path d="M434.8,201.1l1.5-8.5c3.7-3.3,6.4,6.8,1.6,8.9l-3.2-.5Z" fill="#fff"/>
  <path d="M452,188.1c4.6-4.3,9.4,6.9,2.1,6.5-3.5-.2-3.9-4.9-2.1-6.5Z"/>
  <path d="M425.3,193.7c-3.4,3.7-9.5-5.2-2.6-6.3,3.6-.6,4.6,4.1,2.6,6.3Z"/>
</svg>