<?xml version="1.0" encoding="UTF-8"?>
<svg id="Camada_1" xmlns="http://www.w3.org/2000/svg" version="1.1" viewBox="0 0 595.28 841.89">
  <!-- Generator: Adobe Illustrator 29.0.0, SVG Export Plug-In . SVG Version: 2.1.0 Build 186)  -->
  <path d="M.14,841.29V-.06h595v841.34H.14ZM591.19,3.23H3.43v548.84c23.22-10.41,47.35-18.81,72.22-24.41-.46-4.76-1.95-9.67-2.54-15.03-13.95,6.8-32.57.86-30.23-17.09-25.6-1.37-23.96-41.7,1.31-41.41-11.22-40.51,48.6-55.95,60.47-16.7,19.28-3.19,31.12,14.16,25.32,31.81-.46,1.39-2.79,4.61-2.84,5.06-.06.63,4.04,7.06,4.43,9.8,2.7,19.31-20.54,30.43-36.75,24.59l2.67,14.41c13.26-1.02,26.38-3.38,39.71-3.92,14.01-.57,28.42.61,42.3-.11l1.45-18.61c-17.79,8.32-42.06-4.8-38.63-25.46.68-4.08,6.29-7.42,6.37-10.02.04-1.31-2.43-5.85-2.59-8.57-.56-9.33,5.82-20.82,16.44-19.37-1.8-23.63,21.05-41.49,43.74-34.21,14.92,4.79,24.12,22.58,20.03,37.49,21.68-.78,28.7,30.43,14.47,43.07-1.58,1.4-6.38,3.34-6.9,4.28-.87,1.57-.61,5.67-1.81,8.05-4.66,9.21-19.96,10.82-28.12,5.74v21.03c25.84,2.52,51.55,10.19,75.6,19.72-3.65-6.27-8.91-13.28-9.23-20.67-.72-16.61,12.34-33.28,23.45-44.98,5.1-5.37,17.22-14.1,20.64-19.46,1.3-2.04,1.57-5.02,2.68-7.03,2.77-5.01,5.63-10.15,9.05-14.79-6.32-7.08-10.23-16.81-9.16-26.21.06-.56,2.37-2.78,1.79-5.27-.29-1.25-3.97-2.49-4.4-9.12-1.18-18.4,18.81-37.34,27.17-53.12,6.41-12.09,10.62-22.56,20.16-33.05.99-1.09,5.65-4.05,5.82-4.37.66-1.25-1.54-5.4-1.59-7.53-.23-9.63,11.78-17.54,19.67-20.73,59.36-23.95,161.5,49.69,131.19,116.04-1.42,3.12-5.66,8.12-6.17,10.27-1.9,8.12,1.87,14.95-4.65,22.96-4.95,6.09-8.54,4.4-14.55,6.19-.6.18-3,4.88-4.11,6.05-6.53,6.9-19,6.56-25.33-.32l-4.92,4.26,11.42,10.25c16.24,19.3,21.76,47.99,12.92,71.92-1.17,3.16-4.46,6.44-4.66,9.85-.11,1.79,1.54,14.23,2.04,16.28.07.3,2.35,1.35,1.28,3.76l43.07,1.31,5.58-17.09c-10.27,2.68-24.25-1.73-24.37-14.14-.02-2.15,2-7.28,1.91-7.79-.12-.66-4.26-4.89-4.68-5.86-3.92-8.91-.61-18.24,5.46-25.11,4.69-5.31,12.94-7.68,19.72-5.24,7.32-39.81,64.25-28.19,50.76,11.82,12.42,4.84,14.4,20.09,7.25,30.38-1.11,1.6-6.91,6.29-7.11,6.74-.45,1,.54,4.5.21,6.73-1.49,10.09-13.69,13.08-22.23,11.37-3.72-.74-5.11-3.71-8.5-4.31l-2.62,16.42,46.66,12.51v-287.9c-12.48,3.43-27.24,2.53-37.14-6.46-17.07,12.83-43.42,13.46-60.53.58-.92-.69-1.42-2.48-2.08-2.67-2.25-.67-8.67,1.74-11.7,1.96-13.96,1.03-36.87-2.33-42.3-17.49-9.09-25.35,16.63-43.1,39.36-35.08,3.91-33.18,42.43-47.19,68.98-27.87,5.71,4.16,13.87,14.34,13.87,21.63v10.19c12.69-5.14,24.42-.76,31.56,10.52V3.23ZM548.88,203.29c-16.5-17.96-51.17-15.65-63.42,6.12-3.83,6.81-3.42,12.69-5.37,19.61-2.81,1.63-3.89-1.3-5.45-1.79-32.31-10.22-52.01,31.32-18.86,43.18,12.24,4.38,24.75,3.26,36.98-.34,9.68,15.8,37.44,15.98,52.23,8.05,1.9-1.02,8.54-6.69,9.1-6.74,2.51-.22,2.72,2.95,4.29,4.25,8.18,6.82,22.74,7.31,32.41,3.74-.16-12.34,3-27.97-2.99-39.06-4.79-8.86-14.36-12.73-24.08-9.84-3.64,1.08-5.87,3.98-9.32,4.12-1.05-.58,1.92-9.36,1.94-11.49.05-6.13-3.28-15.26-7.45-19.81ZM502.04,322.42c-23.52-32.07-86.36-63.84-123.42-38.41-16.95,11.63-5.68,26.3,9.36,16.59,2.21-1.43,3.62-4.43,6.32-5.38,1.51.14,2.58,4.97,3.81,6.22,6.6,6.67,26.87,2.78,34.88-.4,3.52,3.12-2.05,4.26-3.03,6.69-4.43,11.07,14.98,14.3,22.2,14.28,2.58,0,15.37-2.22,16.48-.69,1.27,4.01-3.13,4.36-3.64,8.32-.89,6.98,5.92,11.22,11.44,13.45,1.63.66,4.94.17,5,2.27-8.43,6.71-15.7,30.77-11.06,39.94,3.51,6.94,9.82-2.44,15.27-4.16,4.4-1.4,9.87-1.59,13.45,1.75,12.15,11.37-1.84,34.14-16.21,36.24-2.21.32-8.99-.59-9.68.17.66,3.23-8.23,13.93-8.24,14.79-.06,4.2,10.69,4.63,13.49,4.27,9.73-1.25,7.92-10.36,10.19-11.52,7.85,1.39,14.46-1.23,17.41-8.87,2.76-7.17,0-11.45,1.32-17.09,1.08-4.65,6.86-11.01,8.7-16.93,6.77-21.81-1.08-43.88-14.01-61.53ZM426.17,307.57c-11.06.98-25.64,3.91-33.19-6.51-2.82,2.33-7.02,5.09-10.68,5.69-3.97.65-9.62-1.38-11.71-.57s-8.09,7.32-9.75,9.35c-7.39,9.06-20.95,32.44-21.47,43.6-.33,7,1.83,12.03,9.09,13.98,3.72,1,13.1.92,16.4-.92,1.37-.77,2.19-5.64,3.44-7.79,2.83-4.89,15.16-13.45,20.62-11.38,5.17,1.96-9.06,6.69-10.94,7.91-16.74,10.91-3,23.63,12.21,20.75,2.17-.41,5.06-2.3,6.8-2.45,5.87-.52,21.18,14.21,28.73,16.55,8.78,2.73,18.49,1.31,26.06-3.79,1.71-1.15,11.49-10.2,12.04-11.62,1.74-4.48,1.35-13.3,3.19-19.02,1.08-3.35,5.98-10.1,6.87-13.01.18-.58.55-1.42.24-1.94-9.02-2.87-15.9-11.52-11.79-21.09-12.69,1.16-39.13.95-36.16-17.75ZM336.1,359.49c-8.64,6.49-17.98,21.96-17.76,33.14.11,5.95,3.65,8.18,3.99,9.92.42,2.12-1.61,9.18-1.37,13.15s3.55,15.35,8.22,15.48c.41.01,7.37-2.48,7.71-2.7,1.7-1.08,3.2-4.18,6.34-5.66,6.85-3.23,7.55-.58,13.08.91,5.92,1.59,7.8.78,12.99,5.41,8.69,7.75,12.74,18.53,15.46,29.59,6.1-.66,10.79-4.28,15.55-7.79,14.14,12.3,28.45-2.19,37.47-13.16,2.55.89,3.5,3.04,7.2,3.16,14.07.48,21.92-16.5,26.53-27.27,1.65-.99,3.44,1.37,5.57,1.71,18.2,2.92,29.31-25.28,17.92-31.05s-20.59,18.89-29.34.53l-1.35-.39c-10.9,14.97-28.72,21.37-45.83,11.95-4.13-2.28-16.57-12.7-19.77-13.15-2.51-.36-6.79,2.1-9.77,2.44-8.16.94-19.24-1.94-22.36-10.49-12.88,4.57-33.92,2.43-30.5-15.72ZM214.89,411.65c-1.29-1.16-7.71-4.74-9.48-5.31-22.07-6.99-42.76,10.98-39.2,33.38-16.54.09-20.31,14.32-12.94,27.13-16.21,12.81-2.56,32.62,15.52,32.7,2.45.01,13.3-1.99,12.56-5.32-9.41-9.44-14.05-28.46,5.51-15.11.07-22.7,14.98-19.72,12.5,1.97,5.29-2.07,12.38-11.95,17.6-4.78,3.06,5.83-13.67,16.17-12.93,19.43.36,1.6,4.1,3.72,5.7,4.23,10.75,3.38,22.47-2.69,20.14-14.95,19.09-4.05,19.84-34.49,2.24-40.28-3.63-1.2-6.69-.23-10.12-1.07,1.86-10.25,1.26-24.53-7.09-32.01ZM98.54,431.34c-8.32-14.18-28.12-16.99-41.14-7.71-10.88,7.76-13.11,19.57-9.32,32.05-5.92,2.26-10.45.64-15.06,6.67-5.57,7.28-6.71,15.78-1.21,23.55,4.2,5.93,8.1,5.36,14.73,6.31.02,5.19-1.36,8.61,1.7,13.41,4.6,7.19,21.1,9.76,24.57.42-10.51-7.62-24.22-26.34.96-16.42-4.4-22.8,9.89-23.11,12.5-1.97,4.66-2.43,8.75-12.61,14.79-6.57,4.71,10.15-19.1,24.64,1.3,25.65,18.43.91,35.23-17.21,19.43-32.55,15.45-14.67.49-39.36-20.39-32.53-.02-3.27-1.21-7.51-2.85-10.31ZM353.63,426.75c-5.7-4.14-14.19.5-14.9,7.01,6.33-.24,9.33-6.69,17.09-3.28.4-.4-1.79-3.44-2.18-3.72ZM375.98,443.17c-.81-1.54-6.69-9.51-8.01-10.71s-9.08-6.1-10.18-5.26c3.26,10.19,13.21,17.32,13.51,28.92-2.67,3.76-5.91-8.84-6.74-10.36s-5.08-8-6.12-9.04c-3.25-3.25-7.88-4.92-12.08-2.36l-.4,1.35c8.03,5.8,13.83,16.92,14.45,26.97l-2.54-.09c-.26-5.43-9.62-23.37-14.36-24.75-3.27-.96-6.02.28-6.59,3.63-1.17,6.79,1.91,5.03,5.09,8.4,2.24,2.37,9.01,18.53,7.59,20.71-.61,1.03-2.33.4-2.81-.19-1.33-1.65-2.84-11.89-5.23-15.4-3.02-4.45-8.71-7.58-10.02.18-2.39,14.17,6.54,44.57,17.7,54.51,1.81,1.61,14.63,10.1,16.25,10.09.84,0,1.11-.22,1.4-1,2.14-6.93,4.74-13.86,7.81-20.42,1.55-3.3,7.4-10.72,8.04-14.34,1.63-9.1-2.38-32.46-6.76-40.84ZM329.23,451.23c1.03-1.87,4.03-4.47,4.13-4.76.49-1.46-.02-3.87.56-6.02.79-2.96,5.28-6.57,1.83-7.39-1.89-.28-6.43,3.83-7.8,5.36-7.33,8.21-11.82,27.03-12.88,37.74-.27,2.72.61,8.4-.12,10.4-.57,1.57-2.49,1.13-3.09,6.11-1.46,12.09,1.72,24.15,7.81,34.42,1.91,1.22,20.59-16.87,22.38-20.05-6.29-7.92-9.2-18.83-11.43-28.71-1.45-6.45-3.28-14.64-3.1-21.26.07-2.72.63-3.87,1.71-5.84ZM460.76,449.15c-8.28-7.24-8.89-4.42-18.5-4.85-1.75-.08-2.8-1.36-4.48-1.28-6.57,10.41-17.6,17.31-30.35,15.72-2.69-.33-6.01-2.7-7.73-2.51-2.77.3-9.78,6.68-14.22,5.87.89,3.54-.72,13.67,2.15,15.43l35.57,17.38,7.5-26.57,3.37-.4-7.7,28.63c.22,1.07,17.61,7.74,5.1,7.16l-42.38-21.94c-5.68,6.87-9.01,15.32-12.71,23.44-.31.67-1.19.83-1.43,1.38-2.11,4.78-10.94,29.27-9.13,32.85,31.33,18.57,86.61,31.41,107.56-8.2,13.54-25.61,9.93-62.38-12.63-82.1ZM571.05,466.39c-12.92-15.66-34.01-8.48-39.88,9.57-.53,1.62-1.02,8.15-2.12,8.41-18.75-10.43-34.36,18.4-18.15,29.99-1.66,3.83-3.61,5.14-3.2,9.76,1.16,13.2,23.69,13.55,22.92,6.75-.47-4.08-12.64-19.05-2.7-21.4,5.38-1.27,6.23,4.8,10.01,6.45,5.07-19.34,17.76-12.93,11.86,4.94,4.51-1.92,10.83-5.52,13.75.62.29,4.54-10.78,11.85-14.13,14.82,4.58,14.99,31.58,6.22,23.48-8.79,13.93-7.8,19.25-29.23-.1-33.29,3.07-7.79,5.15-17.64.8-25.44-.88-1.57-1.86-1.58-2.53-2.4ZM311.77,483.07c-4.93.07-16.16,11.74-19.96,10.45-.61-.21-1.2-.83-1.08-1.57.29-1.67,17.94-11.96,20.71-13.48l1.31-15.12c-15.17,15.46-43.71,38.45-37.33,62.95,5.37,20.64,26.76,26.85,45.15,18.48,1.67-.76,8.52-4.18,6.52-5.86-9-4.12-14.91-16.18-17.11-25.48-2.11-8.93-3.58-22.42,1.79-30.37ZM194.74,466.63c-3.43.41-2.75,5.18-3.32,7.4-.14.53-1.16.49-1.25.95-.31,1.59-.28,10.96-.68,11.37-3.79.72-4.18-3.23-6.22-5.28-1.03-1.04-6.71-5.54-6.94-2.28-.29,4.15,7.68,10.49,8.52,15.16.77,4.27-2.43,24.28-1.66,25.29l16.82,1.95c1.13-1.12-1.29-21.99-.5-25.81.75-3.62,15.9-15.98,13.64-18.23-6.85.29-9.36,8.23-15.79,9.58l-2.62-20.1ZM84.38,494.14c-.53-.34-1.87-10.22-2.53-12.25-.7-2.14-3.95-9.77-4.82-3.79-.44,3.01,1.44,17.22.68,18.1-5.83-.98-8.46-7.5-15.12-5.91l13.38,13.95,3.07,22.85,15.06-3.7c.83-2.47-4.15-18.03-3.69-22.19.3-2.69,9.17-15.81,7.02-18.15-5.5-.95-8.62,13.91-13.06,11.08ZM546.48,508.04c-5.04.36-5.73,15.55-8.2,15.69-4.78-1.71-4.37-13.59-10.78-9.39-.84,2.81,6.25,13.5,6.38,17.01.17,4.39-7.28,21.3-6.4,23.59l13.75,3.06c.8-.75,2.22-18.17,3.71-21.62,1.09-2.52,7.41-6.25,9.79-8.6,2.03-2,7.85-7.49.79-5.78-2.4.58-9.01,6.95-10.7,4.45-.09-2.93,3.69-17.04,1.66-18.41ZM364.12,528.18c.34-1.29,1.2-3.57.28-4.69l-19.09-12.17c1.22,19.86-12.84,34.08-30.93,39.24-6.37,37.35-13.6,73.35-18.95,111.04-1.31,9.19-3.33,18.99-4.03,28.84-.14,1.97-.98,9.02-.34,10.18,28.97,13.44,62.12,18.25,93.99,19.08,29.62.77,59.81.02,88.46-8.23,2.91-.84,18.79-6.03,19.95-7.5l-19.97-165.7c-21.74,30.3-61.8,25.09-92.47,12.59-3.87-1.58-14.75-6.35-17.55-8.75-3.01-2.58-1.12-9.63-.35-13.19.1-.47.95-.58.99-.75ZM342.67,513.3l-20.09,16.42c9.8,18.63,19.21-7.14,20.09-16.42ZM3.43,555.36v57.19l74.29-12.49c-7.01-12.85,4.35-32.11,18.08-19.73,2.61-10.75,10.36-19.29,22.39-15.14,5.87,2.03,8.22,6.59,8.85,12.52,7.77-11,21.55-8.18,25.3,4.58,8.46-5.43,20.94,3.5,17.43,13.16,30.45-.36,60.79,2.89,90.94,6.61,3.08-10.45,13.5-14.4,21.81-6.58,5.86-6.43,12.31-8.08,20.73-5.57l6.51-31c-.2-1.72-6.86-4.15-8.71-4.99-18.9-8.52-42.78-16.88-62.91-21.9-77.66-19.36-162.31-9.41-234.71,23.33ZM311.12,551.42h-3.63s-.97,1.3-.97,1.3l4.59,1.32v-2.62ZM591.19,574.42c-35.39-12.11-72.82-19.34-110.46-18.07l7.97,64.67,11.11,1.39c-.97-9.67,11.29-15.91,18.08-8.56,4.19-12.69,20-13.93,22.69.01,13.01-16.39,31.29-.26,20.39,16.6-.84,1.3-3.98,1.75-3.31,4.43l33.53,9.21v-69.67ZM121.56,571.33c-2.29-3.03-7.68-3.91-11.24-3.42-12.32,1.72-8.46,18.41-12,19.58-4.47-.06-3.13-6.12-8.75-7.5-10.14-2.5-13.54,12.58-8.45,19.3l84.78-4.21c2.81-7.49-4.56-13.26-11.51-10.05-1.55.71-2.34,3.38-5.01,2.55,1.42-9.09-9.09-17.55-16.68-11.09-2.78,2.37-2.61,8.08-6.63,8.44-1.24-.39-2.76-11.28-4.51-13.6ZM299.93,609.27l2.58-14.19c-.29-3.24-6.95-3.21-9.32-2.75-5.79,1.13-8.21,8.25-8.81,8.42-3.58,1.03-4.83-5.7-11.06-5.81-4.66-.09-11.97,6-7.76,8.27l34.36,6.06ZM3.43,616.82v221.18h587.77v-189.63c-32.79-11.94-67.17-19.88-101.92-23.68l7.77,80.08c-1.73,5.36-35.65,12.49-41.86,14.63-.61,1.94,1.76,4.49,1.82,4.75,1.05,4.54,1.02,10.74,2.67,14.96,1.39,3.55,6.52,7.95,8.56,11.3.98,1.61.91,3.8,1.71,5.37,1.99,3.89,5.92,4.66,3.5,10.84-4.37,11.18-37.21,21.66-48.46,23.2-12.43,1.7-36.63,1.43-46.76-6.75-7.27-5.88-4.94-10.95-.06-17.37-25.87,8.51-58.42,20.98-85.15,9.87-6.73-2.8-15.11-8.59-12.3-16.93,1.11-3.29,4.37-3.49,5.07-4.79.65-1.2.16-2.95.85-4.41,5.68-11.97,30.35-19.31,42.51-22.57l2.17-9.52c-14.98-3.97-30.44-7.37-43.9-15.2l11.23-89.93c-96.98-18.73-199.11-18.92-295.23,4.6ZM534.42,608.83c-7.21-6.9-14.49,5.7-15.26,11.64-3.63.69-1.6-2.63-4.29-4.91-5.46-4.63-12.84,1.01-10.83,7.55l48.54,9.7c3.11-1.85,4.97-4.08,6.57-7.29.8-1.6-.26-3.6,1.82-4.12-1.83-3.75-1.61-9.93-6.96-10.79-10.36-1.67-11.11,11.56-13.75,11.14-3.03-3.34-2.31-9.55-5.83-12.91ZM372.18,722.39l-36.48-4.62c-2.69.37-3.32,9.54-2.56,11.13.52,1.09,7.22,4.81,8.88,6.24,6.29,5.4,13.31,15.48,13.15,24,.54.56,13.45-2.89,15.11-3.63,11.53-5.2,2.5-10.82,1.39-19.11-.62-4.66.43-9.38.52-14ZM451.73,719.77l-38.05,3.21,1.39,13.73c15.88,2.89,32.99,13.9,37.08,30.32,4.56-1.66,13.74-5.75,13.51-11.5s-8.35-11.37-10.01-15.71c-1.09-2.85-3.06-19.5-3.92-20.05ZM410.27,723.76l-34.07-1.44c1.34,2.76-1.28,5.51-1.36,6.21-.81,6.66,1.71,8.54,3.51,14.33,1.3,4.19-.03,9.15,4.64,10.24,9.32-6.12,18.43-13.4,29.36-16.35l-2.08-12.99ZM337.42,763.72c12.3-1.88,17.83-.94,11.49-14.45-2.79-5.94-8.37-11.59-13.92-15.01-8.42-5.19-14.03-1.82-22.56,1.2-1.36,1.43,6.66,3.06,7.85,3.64,8.02,3.95,16.92,15.41,17.13,24.61ZM328.47,750.98c-2.27-2.84-5.42-6.39-8.59-8.18-1.36-.77-11.2-4.64-12.22-4.58-5.61.32-26.14,14.24-16.94,21.57-.74-6.21,6.06-12.01,11.85-12.19,2.78,1.99-3.84,4.68-5.29,5.92-5.97,5.13-3.69,9,3.3,10.86-1.94-8.96,7.79-15.32,15.78-13.79,1.69,2.17-9.12,5.28-10.97,7.43-1.69,1.96-1.71,5.19-1.48,7.64,10.18,2.59,20.79,1.31,30.84-1.31-.65-5.66-2.92-9.13-6.3-13.37ZM434.78,773.52c3.27-.45,13.48-2.74,13.81-6.17.86-8.81-17.18-21.9-24.59-24.79-10.22-3.98-15.06-1.93-24.12,3.42-.5,1,10.07,2.58,11.62,3.16,9.21,3.4,21.16,14.71,23.28,24.38ZM431.4,774.85c-1.22-8.97-12.02-18.42-19.9-21.77-2.14-.91-14.59-4.42-16.02-3.99-9.06,2.73-20.41,16.55-9.43,24.49-1.62-3.27,6.85-17,9.89-14.81s-3.29,5.97-4.24,7.63c-3.88,6.82-.29,10.31,6.64,11.02,2.98.05-.38-2.8-.42-2.99-.69-3.58,2.78-8.38,5.55-10.72,1.27-1.07,2.87-2.63,4.63-2.69l2.28,2.03c-5.04.61-12.13,12.08-6.58,14.81,2.7,1.32,26.34-1.1,27.59-3.01ZM284.83,758.47c-4.4,10.37,10.9,15.09,18.38,16.77,17.99,4.05,45.66-2.48,62.97-8.72,4.9-1.77,17.11-5.08,11.66-11.99-9.39,6.75-24.81,9.82-36.37,12.27-18.42,3.9-34.33,6.93-51.62-3.19l-5.03-5.14ZM469.55,759.79l-7.28,6.18c-19.83,11.23-45.57,19.29-68.38,13.76-5.68-1.37-12.04-3.15-14.73-8.76-6.33,9.94,9.65,14.24,16.73,15.46,19.9,3.44,45.01-1.07,62.45-11.25,4.84-2.82,15.28-9.08,11.21-15.4Z"/>
  <rect x=".14" y="841.29" width="595" height=".66" fill="#fff"/>
  <path d="M591.19,3.23v235.31c-7.14-11.28-18.87-15.65-31.56-10.52v-10.19c0-7.29-8.15-17.48-13.87-21.63-26.55-19.31-65.06-5.31-68.98,27.87-22.73-8.02-48.45,9.73-39.36,35.08,5.44,15.16,28.35,18.52,42.3,17.49,3.03-.22,9.46-2.63,11.7-1.96.66.2,1.16,1.98,2.08,2.67,17.11,12.88,43.47,12.25,60.53-.58,9.9,8.99,24.65,9.88,37.14,6.46v287.9l-46.66-12.51,2.62-16.42c3.39.6,4.78,3.57,8.5,4.31,8.54,1.7,20.74-1.28,22.23-11.37.33-2.23-.66-5.73-.21-6.73.2-.45,6-5.15,7.11-6.74,7.15-10.29,5.17-25.54-7.25-30.38,13.49-40.01-43.43-51.62-50.76-11.82-6.79-2.44-15.03-.07-19.72,5.24-6.07,6.87-9.38,16.21-5.46,25.11.43.97,4.56,5.2,4.68,5.86.09.51-1.93,5.64-1.91,7.79.11,12.4,14.1,16.82,24.37,14.14l-5.58,17.09-43.07-1.31c1.07-2.42-1.21-3.46-1.28-3.76-.5-2.05-2.15-14.49-2.04-16.28.21-3.4,3.5-6.68,4.66-9.85,8.84-23.93,3.32-52.62-12.92-71.92l-11.42-10.25,4.92-4.26c6.33,6.87,18.79,7.21,25.33.32,1.11-1.17,3.51-5.87,4.11-6.05,6.02-1.79,9.61-.1,14.55-6.19,6.51-8.01,2.75-14.84,4.65-22.96.5-2.15,4.74-7.15,6.17-10.27,30.3-66.36-71.84-140-131.19-116.04-7.89,3.18-19.9,11.09-19.67,20.73.05,2.13,2.24,6.28,1.59,7.53-.17.32-4.83,3.28-5.82,4.37-9.54,10.5-13.75,20.96-20.16,33.05-8.36,15.77-28.35,34.72-27.17,53.12.43,6.64,4.11,7.87,4.4,9.12.58,2.49-1.73,4.71-1.79,5.27-1.06,9.4,2.84,19.12,9.16,26.21-3.42,4.65-6.28,9.79-9.05,14.79-1.11,2.01-1.38,4.99-2.68,7.03-3.43,5.36-15.55,14.09-20.64,19.46-11.11,11.71-24.17,28.37-23.45,44.98.32,7.39,5.58,14.41,9.23,20.67-24.05-9.53-49.76-17.2-75.6-19.72v-21.03c8.16,5.09,23.46,3.47,28.12-5.74,1.2-2.38.95-6.48,1.81-8.05.52-.94,5.32-2.87,6.9-4.28,14.22-12.64,7.2-43.85-14.47-43.07,4.09-14.9-5.12-32.7-20.03-37.49-22.69-7.28-45.54,10.57-43.74,34.21-10.62-1.46-17,10.03-16.44,19.37.16,2.72,2.63,7.27,2.59,8.57-.08,2.59-5.7,5.94-6.37,10.02-3.43,20.66,20.84,33.78,38.63,25.46l-1.45,18.61c-13.88.72-28.29-.46-42.3.11-13.33.54-26.45,2.9-39.71,3.92l-2.67-14.41c16.21,5.84,39.45-5.28,36.75-24.59-.38-2.74-4.49-9.17-4.43-9.8.04-.45,2.38-3.67,2.84-5.06,5.8-17.65-6.04-35-25.32-31.81-11.87-39.25-71.69-23.81-60.47,16.7-25.27-.29-26.91,40.04-1.31,41.41-2.34,17.96,16.28,23.89,30.23,17.09.59,5.36,2.08,10.26,2.54,15.03-24.87,5.61-49.01,14.01-72.22,24.41V3.23h587.77ZM155.58,56.87c-15.52-39.76-77.86-30.23-81.75,13.83-.08.87.38,1.44.61,2.2-20.35-6.75-46.01,18.3-30.59,36.83,4.74,5.7,11.01,7.89,18.1,9.2-7.93,15.95,5.16,31.83,17.09,41.08l-9.18,4.6c-12.09,16.09,8.35,31.72,22.99,35.16-17.72,12.81-.35,28.79,15.09,31.9,3.87.78,7.91,1.07,11.87.96-4.46,6.82-.22,9.83,5.25,13.47.04,2.35-37.23,14.34-41.4,16.44-9.75,4.89-7.16,10.66-6.58,20.04-4.91-.52-9.5-1.47-14.25.54-15.92,6.74-24.38,69.35,1.8,64.24,4.92-.96,11.66-7.89,14.18-12.11,2.35-3.93,3.98-13.26,9.3-13.78,3.62-.35,5.28,5.84,7.12,8.37,2,2.75,4.73,4.56,6.2,7.62,0,1.77-3.22,3.09-4.19,4.45-8.01,11.24-4.01,36.19,4.84,46.14s20.9-.37,23.99-10.17c1.89-6.01-.02-14.67,6.05-16.96,11.32-4.26,24.99,13.23,34.7,13.06,6.98-.13,20.07-9.34,25.93-13.57,27.18-19.66,50.12-46.46,66.12-75.84.95-.27,7.81,9.66,9.21,11.15,4.32,4.6,17.92,15.92,23.84,16.95,5.36.93,11.52-5,14.64-8.39h1.29c3.18,8.26,17.04,16.28,18.43,2.61,3.98,1.42,9.37.05,9.87-4.6.67-.54,12.64,7.6,14.41-2.34,1.31-7.35-3.94-12.26-8.86-16.7-3.29-2.97-17.49-11.71-18.7-13.51-.86-1.29-.79-2.13-.67-3.6,13.13,4.36,44.68-7.43,28.27-23.66,8.86-1.91,19.19-5.99,26.6-11.21,7.82-5.52,18.86-18.14,7.52-25.87-15.81-10.78-46.09,3.04-63.71,4.2,6.5-6.98,11.86-13.73,14.78-23.01,13.1-1.72,22.57-12.04,21.49-25.52,16.06-5.74,22.01-25.99,12.53-40.02-1.01-1.5-5.16-5.51-5.28-5.89-.87-2.67.64-9.21-.16-12.88-.11-.51-3.3-8.14-3.9-9.36-6.83-13.94-23.01-22.01-38.37-20.14-12.6-21.07-42.52-28.64-65.77-25.44-20,2.75-43.6,16.82-52.37,35.4l-1.29-.43c-4.05-15.59-21.36-24.66-36.87-20.97-1.41.34-7.93,3.63-8.5,2.99.76-3.28-.83-5.26-1.7-7.49ZM490.2,82.52c-1.66-3.46-2.52-7.37-5.15-10.32-1.69-2.24-6.24,4.02-7.09,5.46-1.68,2.81-5.93,16-7.52,16.99-4.2,1.52-25.02,1.47-26.86,4.53-.69,1.15-.43,1.96.36,2.97,2.49,3.2,17.4,9.99,18.29,13.31.56,4.1-7.07,25.03-4.53,26.84.94.67,2.79.29,3.81-.23l20.84-11.98c2.08.08,15.45,9.85,18.87,11.43,1.47.68,5.06,2.73,6.21,1.1,1.07-1.51-4.19-22.76-5.65-25.98,3.02-3.36,18.53-12.2,19.6-15.29.24-.69.38-2.38.18-3.03-.8-2.64-22.13-2-25.68-3.39-1.13-.64-3.5-9.42-4.41-11.34-.32-.67-1.13-.83-1.24-1.08Z" fill="#fff"/>
  <path d="M3.43,616.82c96.12-23.52,198.25-23.33,295.23-4.6l-11.23,89.93c13.46,7.83,28.92,11.23,43.9,15.2l-2.17,9.52c-12.16,3.26-36.83,10.6-42.51,22.57-.69,1.46-.2,3.21-.85,4.41-.7,1.3-3.96,1.49-5.07,4.79-2.81,8.34,5.57,14.13,12.3,16.93,26.73,11.11,59.28-1.36,85.15-9.87-4.88,6.42-7.22,11.49.06,17.37,10.13,8.18,34.33,8.46,46.76,6.75,11.25-1.54,44.08-12.01,48.46-23.2,2.42-6.18-1.51-6.95-3.5-10.84-.81-1.58-.73-3.77-1.71-5.37-2.05-3.35-7.18-7.76-8.56-11.3-1.65-4.21-1.61-10.42-2.67-14.96-.06-.26-2.43-2.81-1.82-4.75,6.21-2.14,40.12-9.27,41.86-14.63l-7.77-80.08c34.75,3.8,69.13,11.74,101.92,23.68v189.63H3.43v-221.18ZM188.6,636.97c-.48.16-.75.54-1.07.89,6.61,3.06,6.04,8.15,9.52,13.46,3.5-.03-.84-16.86-8.45-14.35ZM201.39,649.28c4.2.96,2.82-2.83,4.01-5.38.52-1.11,4.94-6.75,2.17-7.02-1.89-.18-9.53,9.7-6.18,12.4ZM220.3,644.68c2.79-5.08-12.63.14-9.77,5.33l9.77-5.33ZM92.08,655.18c.69-1.28-.45-2.95-2.05-2.44-5.26.6-13.53,15.77-8.68,17.64,1.43.55,2.96-9.81,4.91-10.66.85-1.08,5.65-4.21,5.83-4.54ZM74.71,670.79c-2.16-6-6.38-14.61-14.08-11.89-.63,2.1,6.13,3.8,8.17,6.27s3.27,8.86,3.66,9.17c.27.21,2.96-.41,3.19-.75,1.18-1.72-.89-2.64-.94-2.8ZM93.46,671.02c-.79-4.49,10.45-5.67,9.89-8.18-1.09-4.91-18.78,6.43-9.89,8.18ZM555.03,697.34c-3.17-3.17-15.93,16.62-5.37,13.69-.71-6.11,4.53-8.79,5.37-13.69ZM541.88,713.11c.35-6.13-3.4-12.98-9.85-13.8-1.66,1.76,4.31,6.37,5.23,7.73,1.57,2.32.83,6.48,4.62,6.07ZM555.69,712.45l10.51-5.57c-.72-3.26-12,1.22-10.51,5.57ZM144.52,740.31c-1.15-1.68-5.67-6.05-7.62-6.53-2.15-.53-5.38-.45-4.57,2.29,9.05,1.72,12.26,11.9,13.43,19.78,2.1,1.92,2.96-.15,2.96-2.29,0-3.83-2-10.03-4.2-13.24ZM160.8,742.93c.98-1.05,5.5-3.48,5.67-4.53-.6-3.13-3.84-.86-5.58.35-3.11,2.16-7.77,8.41-8.17,12.22-.51,4.95,2.02,5.82,3.81,1.69,1.58-3.65.92-6.13,4.26-9.73ZM133.35,755.43c.69.69,3.09,4.56,4.17,1.33s-12.62-17.02-14.13-9.44c4.72,1.71,6.74,4.93,9.96,8.11ZM167.39,756.76c1.44-1.25,2.43-2.92,3.72-3.85,2.16-1.55,10.23-3.47,9.82-5.28-4.4-4.15-16.25,4.47-16.44,8.59s1.8,1.49,2.9.54ZM73.77,776.22c-1.95-2.07-13.64,10.73-11.18,14.46l3.19-.1c-.83-3.72,9.59-12.65,7.98-14.36ZM45.92,776.94c-4.28,1.44,5.79,6.22,7.09,7.88,1.19,1.52,2.77,7.59,4.64,7.17,4.71-1.05-5.08-17.29-11.73-15.05ZM488.79,800.38c1.26,1.05,3.25.28,5.12,2.43,2.08,2.4,1.75,6.68,4.25,8.88,3.99-.09-.95-14.49-7.25-14.36-1.67.03-3.91,1.57-2.12,3.05ZM504.42,810.39c2.23,1.28,4.39-4.34,5.94-5.56s8.19-2.3,6.24-4.98c-3.28-4.52-15.72,8.5-12.18,10.54Z" fill="#fff"/>
  <path d="M364.12,528.18c-.04.17-.89.28-.99.75-.77,3.56-2.66,10.6.35,13.19,2.8,2.4,13.68,7.17,17.55,8.75,30.68,12.5,70.74,17.71,92.47-12.59l19.97,165.7c-1.16,1.47-17.04,6.66-19.95,7.5-28.65,8.25-58.84,9-88.46,8.23-31.87-.83-65.02-5.64-93.99-19.08-.64-1.16.2-8.21.34-10.18.7-9.84,2.72-19.65,4.03-28.84,5.36-37.69,12.58-73.69,18.95-111.04,18.08-5.16,32.15-19.37,30.93-39.24l19.09,12.17c.91,1.12.05,3.4-.28,4.69Z" fill="#fff"/>
  <path d="M3.43,555.36c72.4-32.75,157.05-42.7,234.71-23.33,20.13,5.02,44.01,13.38,62.91,21.9,1.85.84,8.51,3.26,8.71,4.99l-6.51,31c-8.42-2.51-14.87-.86-20.73,5.57-8.31-7.82-18.73-3.87-21.81,6.58-30.16-3.72-60.49-6.97-90.94-6.61,3.51-9.67-8.97-18.59-17.43-13.16-3.75-12.76-17.53-15.58-25.3-4.58-.64-5.93-2.99-10.49-8.85-12.52-12.03-4.16-19.78,4.39-22.39,15.14-13.73-12.38-25.09,6.88-18.08,19.73l-74.29,12.49v-57.19Z" fill="#fff"/>
  <path d="M460.76,449.15c22.56,19.72,26.17,56.5,12.63,82.1-20.95,39.61-76.23,26.77-107.56,8.2-1.82-3.58,7.02-28.07,9.13-32.85.24-.55,1.12-.71,1.43-1.38,3.7-8.11,7.03-16.56,12.71-23.44l42.38,21.94c12.51.58-4.88-6.09-5.1-7.16l7.7-28.63-3.37.4-7.5,26.57-35.57-17.38c-2.87-1.76-1.25-11.89-2.15-15.43,4.44.81,11.45-5.57,14.22-5.87,1.72-.19,5.04,2.18,7.73,2.51,12.74,1.59,23.77-5.31,30.35-15.72,1.68-.08,2.73,1.2,4.48,1.28,9.61.43,10.22-2.39,18.5,4.85Z" fill="#fff"/>
  <path d="M548.88,203.29c4.17,4.54,7.51,13.68,7.45,19.81-.02,2.13-2.99,10.91-1.94,11.49,3.45-.14,5.68-3.04,9.32-4.12,9.72-2.89,19.29.98,24.08,9.84,6,11.09,2.83,26.72,2.99,39.06-9.66,3.58-24.22,3.08-32.41-3.74-1.57-1.31-1.78-4.48-4.29-4.25-.56.05-7.2,5.72-9.1,6.74-14.79,7.93-42.54,7.75-52.23-8.05-12.23,3.6-24.74,4.71-36.98.34-33.14-11.86-13.45-53.39,18.86-43.18,1.56.49,2.64,3.43,5.45,1.79,1.96-6.92,1.54-12.8,5.37-19.61,12.25-21.77,46.92-24.08,63.42-6.12Z" fill="#fff"/>
  <path d="M336.1,359.49c-3.42,18.15,17.62,20.29,30.5,15.72,3.12,8.55,14.2,11.43,22.36,10.49,2.97-.34,7.25-2.8,9.77-2.44,3.2.46,15.64,10.87,19.77,13.15,17.11,9.42,34.93,3.02,45.83-11.95l1.35.39c8.75,18.36,17.59-6.49,29.34-.53s.29,33.97-17.92,31.05c-2.13-.34-3.91-2.69-5.57-1.71-4.61,10.77-12.46,27.75-26.53,27.27-3.71-.13-4.65-2.27-7.2-3.16-9.02,10.97-23.33,25.46-37.47,13.16-4.76,3.51-9.45,7.13-15.55,7.79-2.73-11.06-6.78-21.84-15.46-29.59-5.19-4.63-7.07-3.82-12.99-5.41-5.53-1.49-6.23-4.14-13.08-.91-3.14,1.48-4.64,4.58-6.34,5.66-.35.22-7.3,2.71-7.71,2.7-4.67-.13-7.98-11.58-8.22-15.48s1.79-11.03,1.37-13.15c-.34-1.74-3.88-3.97-3.99-9.92-.21-11.19,9.13-26.65,17.76-33.14ZM363.35,391.4c-.62-.8-.35-2.34-1.94-2.37-4.31.01-1.33,6.83.33,8.91,7.74,9.74,27.53,11.49,34.76.5-.63-5.27-6.13,1.27-9.63,2.26-12.31,3.48-16.89-.81-23.51-9.3Z" fill="#fff"/>
  <path d="M426.17,307.57c-2.97,18.7,23.47,18.91,36.16,17.75-4.12,9.56,2.76,18.21,11.79,21.09.31.51-.07,1.36-.24,1.94-.89,2.91-5.79,9.66-6.87,13.01-1.84,5.71-1.45,14.54-3.19,19.02-.55,1.43-10.33,10.47-12.04,11.62-7.57,5.1-17.28,6.52-26.06,3.79-7.55-2.34-22.86-17.08-28.73-16.55-1.73.15-4.62,2.04-6.8,2.45-15.21,2.88-28.96-9.84-12.21-20.75,1.88-1.22,16.11-5.96,10.94-7.91-5.46-2.06-17.79,6.49-20.62,11.38-1.24,2.15-2.06,7.02-3.44,7.79-3.3,1.84-12.69,1.92-16.4.92-7.27-1.94-9.42-6.98-9.09-13.98.52-11.16,14.08-34.54,21.47-43.6,1.66-2.03,7.76-8.58,9.75-9.35s7.74,1.23,11.71.57c3.66-.6,7.86-3.36,10.68-5.69,7.56,10.42,22.13,7.49,33.19,6.51ZM370.15,322.86c-2.35.21-8.83,1.88-8.83,4.75,0,4.41,6.91,1.08,9.26.97,3.86-.19,10.67,2.67,10.13-2.8-.75-2.61-8.17-3.13-10.57-2.92ZM425.33,337.28c-1.02.33-1.66,1.15-1.81,2.2-.28,3.18,7.48,4.54,10.22,6.86,2.5,2.13,5.52,10.51,8.94,6.3s-10.9-17.44-17.35-15.37ZM378.84,349.63c-4.52-.89-6.29,3.44-10.83,3.31-7.94-.22-8.41-7.64-9.24-7.91-4.32-1.44-3.18,7.5,1.32,10.52,5.55,3.73,19.72,2.61,18.74-5.92ZM410.1,365.67c3.27,8.14,8.55,11.07,17.42,9.3,2.19-.44,9.01-3.36,6.91-6.32-2.76-1.8-5.58,1.72-8.68,1.98-7.66.66-10.38-4.11-12.47-10.44-2.11-.82-4.82,2.45-4.18,4.72.14.49.92.57,1,.76Z" fill="#fff"/>
  <path d="M502.04,322.42c12.94,17.64,20.79,39.72,14.01,61.53-1.84,5.92-7.62,12.28-8.7,16.93-1.31,5.64,1.44,9.93-1.32,17.09-2.94,7.64-9.56,10.26-17.41,8.87-2.28,1.16-.46,10.27-10.19,11.52-2.8.36-13.55-.07-13.49-4.27.01-.86,8.91-11.56,8.24-14.79.69-.76,7.47.15,9.68-.17,14.37-2.1,28.36-24.87,16.21-36.24-3.57-3.34-9.04-3.15-13.45-1.75-5.44,1.73-11.75,11.11-15.27,4.16-4.64-9.17,2.63-33.23,11.06-39.94-.06-2.1-3.37-1.61-5-2.27-5.52-2.23-12.33-6.47-11.44-13.45.51-3.97,4.91-4.31,3.64-8.32-1.1-1.53-13.9.68-16.48.69-7.21.02-26.62-3.21-22.2-14.28.97-2.43,6.55-3.57,3.03-6.69-8.01,3.18-28.28,7.07-34.88.4-1.23-1.25-2.31-6.08-3.81-6.22-2.7.95-4.1,3.95-6.32,5.38-15.04,9.71-26.31-4.96-9.36-16.59,37.07-25.43,99.91,6.34,123.42,38.41Z" fill="#fff"/>
  <path d="M591.19,574.42v69.67l-33.53-9.21c-.67-2.68,2.46-3.13,3.31-4.43,10.9-16.86-7.37-32.98-20.39-16.6-2.69-13.94-18.5-12.7-22.69-.01-6.79-7.35-19.05-1.11-18.08,8.56l-11.11-1.39-7.97-64.67c37.64-1.27,75.07,5.96,110.46,18.07Z" fill="#fff"/>
  <path d="M214.89,411.65c8.35,7.48,8.95,21.76,7.09,32.01,3.43.84,6.48-.13,10.12,1.07,17.6,5.79,16.85,36.24-2.24,40.28,2.33,12.26-9.39,18.33-20.14,14.95-1.6-.5-5.34-2.62-5.7-4.23-.73-3.26,15.99-13.6,12.93-19.43-5.23-7.17-12.31,2.71-17.6,4.78,2.48-21.69-12.43-24.67-12.5-1.97-19.57-13.34-14.93,5.67-5.51,15.11.75,3.33-10.1,5.33-12.56,5.32-18.07-.08-31.73-19.89-15.52-32.7-7.37-12.81-3.6-27.04,12.94-27.13-3.56-22.4,17.14-40.37,39.2-33.38,1.78.56,8.19,4.15,9.48,5.31Z" fill="#fff"/>
  <path d="M98.54,431.34c1.64,2.8,2.83,7.05,2.85,10.31,20.88-6.83,35.84,17.87,20.39,32.53,15.8,15.34-1,33.47-19.43,32.55-20.4-1.01,3.41-15.5-1.3-25.65-6.04-6.04-10.13,4.14-14.79,6.57-2.61-21.14-16.9-20.83-12.5,1.97-25.18-9.92-11.47,8.8-.96,16.42-3.47,9.34-19.97,6.77-24.57-.42-3.06-4.8-1.68-8.22-1.7-13.41-6.63-.95-10.53-.38-14.73-6.31-5.5-7.77-4.37-16.26,1.21-23.55,4.61-6.03,9.14-4.42,15.06-6.67-3.8-12.48-1.56-24.29,9.32-32.05,13.02-9.29,32.82-6.48,41.14,7.71Z" fill="#fff"/>
  <path d="M375.98,443.17c4.38,8.38,8.39,31.74,6.76,40.84-.65,3.62-6.5,11.04-8.04,14.34-3.07,6.56-5.67,13.49-7.81,20.42-.28.78-.56.99-1.4,1-1.61.01-14.44-8.48-16.25-10.09-11.16-9.94-20.09-40.34-17.7-54.51,1.31-7.76,6.99-4.63,10.02-.18,2.39,3.51,3.9,13.75,5.23,15.4.48.6,2.19,1.22,2.81.19,1.43-2.17-5.35-18.33-7.59-20.71-3.18-3.37-6.26-1.61-5.09-8.4.58-3.35,3.32-4.59,6.59-3.63,4.74,1.39,14.1,19.33,14.36,24.75l2.54.09c-.63-10.04-6.43-21.16-14.45-26.97l.4-1.35c4.2-2.56,8.83-.89,12.08,2.36,1.03,1.03,5.27,7.49,6.12,9.04s4.07,14.11,6.74,10.36c-.3-11.61-10.25-18.73-13.51-28.92,1.1-.84,8.91,4.11,10.18,5.26s7.2,9.17,8.01,10.71Z" fill="#fff"/>
  <path d="M311.77,483.07c-5.37,7.94-3.9,21.44-1.79,30.37,2.2,9.3,8.11,21.36,17.11,25.48,2,1.67-4.84,5.1-6.52,5.86-18.39,8.37-39.78,2.16-45.15-18.48-6.38-24.5,22.16-47.49,37.33-62.95l-1.31,15.12c-2.77,1.53-20.42,11.82-20.71,13.48-.13.73.46,1.36,1.08,1.57,3.8,1.29,15.02-10.38,19.96-10.45Z" fill="#fff"/>
  <path d="M121.56,571.33c1.75,2.32,3.27,13.2,4.51,13.6,4.02-.37,3.85-6.08,6.63-8.44,7.59-6.46,18.1,1.99,16.68,11.09,2.67.82,3.46-1.84,5.01-2.55,6.94-3.21,14.31,2.56,11.51,10.05l-84.78,4.21c-5.08-6.72-1.68-21.79,8.45-19.3,5.62,1.38,4.28,7.45,8.75,7.5,3.54-1.17-.31-17.86,12-19.58,3.56-.5,8.95.39,11.24,3.42Z" fill="#fff"/>
  <path d="M329.23,451.23c-1.08,1.97-1.64,3.12-1.71,5.84-.17,6.63,1.65,14.81,3.1,21.26,2.23,9.88,5.13,20.8,11.43,28.71-1.79,3.18-20.47,21.26-22.38,20.05-6.09-10.27-9.27-22.33-7.81-34.42.6-4.99,2.52-4.54,3.09-6.11.72-2-.15-7.68.12-10.4,1.06-10.71,5.55-29.53,12.88-37.74,1.37-1.53,5.91-5.64,7.8-5.36,3.45.81-1.03,4.43-1.83,7.39-.58,2.15-.07,4.56-.56,6.02-.1.3-3.1,2.89-4.13,4.76Z" fill="#fff"/>
  <path d="M451.73,719.77c.86.55,2.83,17.2,3.92,20.05,1.66,4.34,9.8,10.23,10.01,15.71s-8.95,9.84-13.51,11.5c-4.09-16.42-21.2-27.43-37.08-30.32l-1.39-13.73,38.05-3.21Z" fill="#fff"/>
  <path d="M372.18,722.39c-.09,4.63-1.15,9.34-.52,14,1.11,8.29,10.14,13.9-1.39,19.11-1.65.75-14.57,4.19-15.11,3.63.17-8.53-6.86-18.6-13.15-24-1.66-1.43-8.37-5.15-8.88-6.24-.75-1.59-.12-10.76,2.56-11.13l36.48,4.62Z" fill="#fff"/>
  <path d="M431.4,774.85c-1.25,1.91-24.89,4.34-27.59,3.01-5.55-2.72,1.54-14.2,6.58-14.81l-2.28-2.03c-1.76.06-3.36,1.61-4.63,2.69-2.77,2.34-6.24,7.14-5.55,10.72.04.18,3.4,3.04.42,2.99-6.93-.71-10.52-4.2-6.64-11.02.95-1.67,7.18-5.51,4.24-7.63s-11.51,11.54-9.89,14.81c-10.99-7.94.36-21.77,9.43-24.49,1.43-.43,13.88,3.08,16.02,3.99,7.88,3.35,18.67,12.8,19.9,21.77Z" fill="#fff"/>
  <path d="M534.42,608.83c3.52,3.37,2.8,9.57,5.83,12.91,2.63.43,3.39-12.81,13.75-11.14,5.35.86,5.13,7.05,6.96,10.79-2.08.52-1.02,2.52-1.82,4.12-1.6,3.21-3.46,5.44-6.57,7.29l-48.54-9.7c-2-6.54,5.38-12.17,10.83-7.55,2.7,2.28.66,5.6,4.29,4.91.77-5.94,8.04-18.54,15.26-11.64Z" fill="#fff"/>
  <path d="M328.47,750.98c3.38,4.24,5.65,7.71,6.3,13.37-10.05,2.62-20.66,3.9-30.84,1.31-.22-2.45-.2-5.68,1.48-7.64,1.85-2.15,12.66-5.26,10.97-7.43-8-1.53-17.72,4.83-15.78,13.79-6.99-1.86-9.27-5.73-3.3-10.86,1.45-1.25,8.07-3.94,5.29-5.92-5.79.17-12.59,5.97-11.85,12.19-9.2-7.32,11.33-21.25,16.94-21.57,1.01-.06,10.86,3.81,12.22,4.58,3.16,1.8,6.32,5.35,8.59,8.18Z" fill="#fff"/>
  <path d="M410.27,723.76l2.08,12.99c-10.93,2.94-20.04,10.22-29.36,16.35-4.67-1.09-3.34-6.05-4.64-10.24-1.8-5.79-4.32-7.67-3.51-14.33.09-.7,2.7-3.45,1.36-6.21l34.07,1.44Z" fill="#fff"/>
  <path d="M194.74,466.63l2.62,20.1c6.43-1.35,8.94-9.28,15.79-9.58,2.26,2.25-12.89,14.61-13.64,18.23-.79,3.82,1.63,24.69.5,25.81l-16.82-1.95c-.77-1,2.43-21.02,1.66-25.29-.84-4.67-8.81-11.01-8.52-15.16.23-3.26,5.91,1.24,6.94,2.28,2.03,2.05,2.43,6,6.22,5.28.4-.4.37-9.78.68-11.37.09-.46,1.11-.42,1.25-.95.57-2.22-.11-6.98,3.32-7.4Z" fill="#fff"/>
  <path d="M84.38,494.14c4.44,2.83,7.56-12.03,13.06-11.08,2.15,2.33-6.72,15.46-7.02,18.15-.46,4.16,4.52,19.72,3.69,22.19l-15.06,3.7-3.07-22.85-13.38-13.95c6.66-1.6,9.28,4.93,15.12,5.91.75-.88-1.12-15.09-.68-18.1.87-5.98,4.11,1.65,4.82,3.79s2.01,11.92,2.53,12.25Z" fill="#fff"/>
  <path d="M546.48,508.04c2.03,1.37-1.76,15.48-1.66,18.41,1.69,2.5,8.3-3.87,10.7-4.45,7.06-1.71,1.24,3.77-.79,5.78-2.39,2.35-8.71,6.08-9.79,8.6-1.48,3.45-2.91,20.87-3.71,21.62l-13.75-3.06c-.88-2.29,6.57-19.19,6.4-23.59-.13-3.51-7.22-14.21-6.38-17.01,6.41-4.2,6,7.68,10.78,9.39,2.47-.14,3.17-15.33,8.2-15.69Z" fill="#fff"/>
  <path d="M434.78,773.52c-2.11-9.67-14.07-20.97-23.28-24.38-1.55-.57-12.13-2.15-11.62-3.16,9.06-5.35,13.9-7.4,24.12-3.42,7.41,2.89,25.45,15.98,24.59,24.79-.33,3.43-10.54,5.72-13.81,6.17Z" fill="#fff"/>
  <path d="M469.55,759.79c4.08,6.33-6.37,12.58-11.21,15.4-17.44,10.18-42.55,14.69-62.45,11.25-7.08-1.23-23.07-5.52-16.73-15.46,2.69,5.61,9.05,7.38,14.73,8.76,22.82,5.53,48.55-2.53,68.38-13.76l7.28-6.18Z" fill="#fff"/>
  <path d="M284.83,758.47l5.03,5.14c17.29,10.13,33.19,7.09,51.62,3.19,11.56-2.45,26.98-5.52,36.37-12.27,5.44,6.91-6.76,10.22-11.66,11.99-17.32,6.24-44.98,12.77-62.97,8.72-7.48-1.68-22.78-6.4-18.38-16.77Z" fill="#fff"/>
  <path d="M337.42,763.72c-.21-9.2-9.12-20.66-17.13-24.61-1.19-.58-9.21-2.21-7.85-3.64,8.52-3.03,14.13-6.39,22.56-1.2,5.55,3.42,11.13,9.07,13.92,15.01,6.34,13.5.81,12.56-11.49,14.45Z" fill="#fff"/>
  <path d="M299.93,609.27l-34.36-6.06c-4.22-2.27,3.1-8.35,7.76-8.27,6.23.12,7.48,6.85,11.06,5.81.6-.17,3.01-7.3,8.81-8.42,2.37-.46,9.03-.49,9.32,2.75l-2.58,14.19Z" fill="#fff"/>
  <path d="M342.67,513.3c-.89,9.28-10.3,35.05-20.09,16.42l20.09-16.42Z" fill="#fff"/>
  <path d="M353.63,426.75c.39.28,2.58,3.33,2.18,3.72-7.76-3.41-10.75,3.05-17.09,3.28.71-6.51,9.2-11.15,14.9-7.01Z" fill="#fff"/>
  <polygon points="311.12 551.42 311.11 554.04 306.52 552.72 307.49 551.42 311.12 551.42" fill="#fff"/>
  <path d="M571.05,466.39c.67.82,1.66.82,2.53,2.4,4.35,7.81,2.27,17.65-.8,25.44,19.36,4.06,14.03,25.49.1,33.29,8.09,15.01-18.9,23.77-23.48,8.79,3.35-2.97,14.43-10.29,14.13-14.82-2.92-6.14-9.24-2.54-13.75-.62,5.89-17.87-6.79-24.28-11.86-4.94-3.78-1.65-4.64-7.73-10.01-6.45-9.94,2.36,2.23,17.32,2.7,21.4.78,6.8-21.76,6.46-22.92-6.75-.41-4.62,1.54-5.94,3.2-9.76-16.21-11.6-.59-40.42,18.15-29.99,1.1-.26,1.6-6.8,2.12-8.41,5.87-18.05,26.96-25.23,39.88-9.57Z" fill="#fff"/>
  <path d="M155.58,56.87c.87,2.23,2.46,4.21,1.7,7.49.58.64,7.09-2.66,8.5-2.99,15.5-3.7,32.82,5.37,36.87,20.97l1.29.43c8.77-18.58,32.36-32.65,52.37-35.4,23.25-3.2,53.16,4.37,65.77,25.44,15.36-1.87,31.54,6.2,38.37,20.14.6,1.23,3.79,8.86,3.9,9.36.8,3.66-.71,10.2.16,12.88.12.38,4.27,4.39,5.28,5.89,9.48,14.03,3.53,34.27-12.53,40.02,1.09,13.48-8.38,23.8-21.49,25.52-2.93,9.28-8.29,16.03-14.78,23.01,17.62-1.16,47.9-14.98,63.71-4.2,11.33,7.73.3,20.35-7.52,25.87-7.4,5.22-17.74,9.3-26.6,11.21,16.41,16.23-15.14,28.02-28.27,23.66-.13,1.46-.2,2.31.67,3.6,1.21,1.81,15.41,10.54,18.7,13.51,4.92,4.44,10.16,9.35,8.86,16.7-1.77,9.94-13.74,1.8-14.41,2.34-.49,4.65-5.88,6.02-9.87,4.6-1.39,13.66-15.25,5.64-18.43-2.62h-1.29c-3.12,3.4-9.28,9.33-14.64,8.4-5.92-1.03-19.52-12.35-23.84-16.95-1.4-1.49-8.25-11.42-9.21-11.15-15.99,29.38-38.93,56.18-66.12,75.84-5.86,4.24-18.95,13.45-25.93,13.57-9.72.17-23.39-17.32-34.7-13.06-6.06,2.28-4.15,10.95-6.05,16.96-3.09,9.8-15.19,20.06-23.99,10.17s-12.85-34.9-4.84-46.14c.97-1.36,4.2-2.69,4.19-4.45-1.47-3.07-4.2-4.87-6.2-7.62-1.84-2.53-3.49-8.72-7.12-8.37-5.32.51-6.95,9.85-9.3,13.78-2.52,4.22-9.26,11.15-14.18,12.11-26.19,5.11-17.72-57.5-1.8-64.24,4.75-2.01,9.35-1.06,14.25-.54-.58-9.38-3.17-15.15,6.58-20.04,4.17-2.09,41.44-14.09,41.4-16.44-5.46-3.64-9.7-6.65-5.25-13.47-3.96.11-7.99-.18-11.87-.96-15.44-3.11-32.81-19.09-15.09-31.9-14.65-3.44-35.08-19.07-22.99-35.16l9.18-4.6c-11.93-9.25-25.02-25.13-17.09-41.08-7.09-1.31-13.35-3.5-18.1-9.2-15.42-18.53,10.24-43.58,30.59-36.83-.22-.76-.68-1.33-.61-2.2,3.89-44.06,66.23-53.59,81.75-13.83ZM198.61,95.17c4.41-18.56-11.81-32.91-29.83-30.81-6.42.75-8.79,4.6-13.78,7.23-1.69-4.58-1.37-9.65-3.13-14.64-4.01-11.39-16.62-19.12-28.08-21.22-25.16-4.61-49.14,16.7-45.7,42.47l-1.84.52c-19.38-12.85-46.85,18.96-24.98,32.8,1.66,1.05,7.39,3.5,9.33,3.81,7.15,1.17,8.68-4.2,15.79-5.33,16.7-2.64,22.65,8.23,34.72,11.37,4.57,1.19,15.05,1.38,20.19,1.5,11.11.26,22.16-.76,33.26-.97,4.08-15.63,17.59-26.7,34.07-26.74ZM317.31,73.29c-15.17-25.43-57-27.92-81.59-15.62-18.94,9.47-25.64,20.9-34.37,38.73-.31.64.09,1.99-.02,2.81-17.64-.73-28.52,7.81-32.94,24.44-.13.5-1.12.55-1.22,1.01-.58,2.82.84,8.08,2.33,10.63,1.24,2.12,5.04,5.19,4.9,6.93-14.33,13.78-7.59,36.67,12.48,38.1.91,5.88,3.82,9.77,8.33,13.43l19.26-3.84-6.73-14.96c-14.47-2.8-22.74-13.63-19.26-28.44,2.58-11,15.53-17.93,25.9-11.4,5.45,3.43,3.66,8.91,13.03,3,4.62-2.91,11.08-15.6,10.03-20.04-.12-.49-1.14-.44-1.26-.93-.65-2.68-.3-5.09,2.93-4.8,1.92.17.47,5.45,2.61,6.61,7.86,8.62,20.77,7.38,31.11,4.76,2.72-.69,4.81-2.94,8.04-2.16.03,3.58-.82,5.54,2.13,8.06,8.96,7.63,24.08-4.39,28.89-12.2,1.07-1.73,4.98-13.85,7.96-8.85,1.08,1.81,2.13,6.16,3.64,8.83,4.43,7.85,15.63,19.27,25.36,18.57,1.37-.1,5.6-2.61,6.3-.26s-2.92,3.13-4.46,3.74c-2.94,14.7-7.74,28.74-13.88,42.33-.24,1.16-.08.91.88.89,10-.23,18.02-14.46,16.47-23.64,18.56-5.84,22.78-32.42,5.56-42.54,5.76-24.44-17.03-45.09-40.7-38.98.28-2.25-1.03-3.04-1.72-4.19ZM179.39,186.2c-16.92-18.77-67.1-66.15-90.49-71.56-6.56-1.52-14.3-2.14-19.74,2.62-15.01,13.13,2.7,34.53,15.3,42.57,2.38,1.52,13.59,5.84,14.27,7.09.15.28.26,1.35-.34,1.33-3.4,2.23-10.31-3.38-14.46-3.93-14.88-2-18.43,11.34-9.42,21.24,8.94,9.82,24.45,12.86,37.1,13.52,3.21,4.41-11.96,2.4-13.79,2.7-11.83,1.96-9.99,14.64-2.36,20.68,9.78,7.74,22,6.12,33.57,5.88l.33,1.68c-4.37,2.56-10.84,7.6-3.88,11.72,8.34,4.94,12.77-5.78,17.31-10.12,9.69-9.26,23.13-19.28,34.27-26.87,3.56-2.42,8.03-4.16,11.47-6.95.31-.67-7.98-10.32-9.13-11.6ZM318.97,115.65c-1.86-1.15-5.7,6.43-7.22,8.17-8.75,10.04-28.49,19.13-35.23,2.36-11.67,3.88-25.16,4.31-36.07-2.02-2.86,11.8-11.4,20.18-23.97,21.02-3.18-13.1-19.84-11.59-23.56,1.16-3.79,13,3.78,24.38,17.34,24.42,10.16,33.06,45.19,51.29,78.73,47.96,35.18-3.49,42.66-28.36,52.46-57.35,1.03-3.05,6.35-20.29,4.52-21.76-12.17-2.58-22.48-12.59-27-23.96ZM167.36,139.72c-2.98-4.67-2.78-8.79-4.14-13.94l-45.4-.29c-.21,1.11.58,1.69,1.28,2.32,7.81,7.05,18.72,13.77,27.01,20.98,2.92,2.54,13.89,14.54,16.21,15.35.51.18,1,.16,1.52.12-2.48-8.43.72-15.62,5.92-22.03-.04-1.71-1.95-1.8-2.4-2.51ZM236.01,209.77c-.33-.71-10.48-8.02-12.35-9.67-5.64-4.98-3.68-7.69-12.63-6.72-16.84,1.82-56.88,29.79-67.59,43.04-10.7,13.24.28,33.15,8.8,44.93,6.28,8.68,15.06,16.35,24.37,21.59,6.94-14.98,15.53-29.68,29.99-38.47-.24-5.24-20.34-19.02-19.76-21.64.69-3.15,6.07,1.83,7.22,1.34,2.96-3.51,6.98-7.12,9.87-10.56,2.2-2.61,6.74-10.55,8.5-11.88,1.12-.85,1.96-1.43,3.37-.64.99.75.52,1.42.34,2.34-.27,1.33-11.85,15.38-13.76,17.5-1.39,1.55-4.55,4.17-6.33,5.51v.96c6.14,1.92,11.79,14.14,15.17,16.39,2.77,1.84,11.8,2.84,16.59,5.76,5.62,3.42,11.79,11.47,10.02,18.36-.36,1.39-4.43,5.19-5.25,6.55-1.21,2-1.5,5.35-3.11,7.41-2.27,2.9-7.16,3.43-9.58,6.87-7.81,2.27-9.07-5.22-12.22-7.55-2.36-1.76-9.85-1.64-12.75-4.03-5.15,3.86-11.83,12.39-19.09,9.88-.91-.31-8.85-5.54-10-6.43-15.79-12.4-30.69-34.13-30.95-54.83-7.41,3.02-14.3,7.1-21.7,10.17-5.59,2.31-29.73,9.54-32.22,12.48-1.89,2.24-1.39,5.69-1.21,8.47,1.57,24.02,16.56,54.2,36.13,68.39,11.16,8.09,20.09,9.58,31.73,14.94,6.28,2.89,14.29,11.34,20.84,10.14,9.89-1.82,38.48-25.75,46.65-33.56,24.49-23.43,42.07-52.69,53.93-84.12.87-2.31,3-11.63,5-12.75.47-.27,2.65-.6,2.22.89-2.58,14.26-10.02,26.88-14.81,40.39,5.3,7.97,11.97,16.11,19.85,21.62,1.28.89,10.53,6.24,11.39,6.39,1.56.26,2.87-.46,4.18-1.13,4.99-2.58,22.8-23.37,25.32-28.58.52-1.08,1.57-3.78,1.12-4.83-10.65-7.59-21.91-15.82-29.29-26.8-5.39-8.02-7.73-18.03-13.83-25.49l-11.38-.87c-6.07,9.79-22.84,8.66-28.87-.24-.53-.78-3.49-6.19-3.75-6.89-.46-1.23.43-3.29-.18-4.64ZM341.61,240.78c9.4-3.75,18.04-3.69,28.46-9.36,15.94-8.67,24.14-26.82-.77-27.12-8.97-.11-45.69,7.25-55.04,10.09-4.16,1.26-8.48,4.23-13.51,5.55-4.73,1.24-9.68,2.19-14.6,2.16,3.61,11.23,10.07,23.51,18.05,32.24,1.2,1.31,12.46,11.38,13.29,11.7.45.17,1.54.42,1.54-.27-.02-1.34-.36-2.9,1.08-3.48,1.08-.44,12.11.84,15.51.4,14.81-1.93,24.16-16.39,4.45-20.22-.22-.24,1.45-1.65,1.56-1.69ZM240.11,212.91c1.41,11,16.78,15.96,24.31,8.21l-24.31-8.21ZM232.87,290.47c4.87-10.93-5.2-17.82-14.27-20.88-10.31-3.48-10.79-2.45-18.28,4.43-1.76,1.62-12.15,12.85-12.14,14.16.03,5.02,18.51,8.41,21.28,10.26,1.45.97,2.38,3.54,3.77,4.77,6.18,5.5,8.92-.97,7.66-7.01-.37-1.78-2.61-3.25-1.83-4.76,4.59-2.58,6.33,7,6.91,9.54,4.84-5.11.99-10.82.64-16.45,3.68-3.15,4.3,7.85,6.26,5.94ZM328.42,293.57c-2.42-2.33.62-3.79,3.26-2.96,1.88.59,5.55,7.5,8.41,9.35,5.22,3.38,8.57,1.69,6.74-4.77-1.21-4.26-12.99-14.23-17-16.52-1.13-.65-2.23-1.31-3.59-1.34.16,6.87-14.58,18.47-15.7,22.83-.76,2.95,7.26,13.67,11.39,9.36,2.33-2.94-.04-6.58.36-9.84,4.38.08,4.73,7.75,9.9,3,1.52-2.28.29-6.14-1.34-7.98-.73-.82-2.02-.73-2.45-1.14ZM86.52,314.54c-2.27-4.78-7.48-26.32-8.48-27.35-1.33-1.38-7.23-2.16-9.22-2.02-13.63.91-14.91,22.53-16.11,32.44-.06.48-1.23.26-1.34,1.41-.48,4.9.84,13.94,2.55,18.57,2.62,7.06,8.66,8.07,14.61,3.83.84-.6,6.71-6.62,7.24-7.41,3.66-5.45,3.71-16.45,12.48-15.95.75-2.01-1.46-2.99-1.72-3.53ZM190.04,294.53c-.11-.22-3.69-2.56-4.46-2.06l-3.97,10.49c1.06,1.01,9.79-5.73,8.44-8.42ZM130.31,357.52c-7.77-2.96-14.59-7.78-21.36-12.5-2.66-1.86-3.46-5.94-7.19-2.57-9.37,8.48-4.81,29.24.36,38.97,3.56,6.7,9.08,10.28,15.38,3.71,1.85-1.94,5.52-7.93,5.94-10.5,1.22-7.5-1.25-12.06,6.87-17.11Z"/>
  <path d="M490.2,82.52c.12.24.93.41,1.24,1.08.91,1.92,3.28,10.7,4.41,11.34,3.56,1.39,24.88.75,25.68,3.39.2.65.06,2.34-.18,3.03-1.07,3.09-16.57,11.93-19.6,15.29,1.47,3.21,6.72,24.46,5.65,25.98-1.15,1.63-4.74-.42-6.21-1.1-3.42-1.58-16.8-11.35-18.87-11.43l-20.84,11.98c-1.02.53-2.87.9-3.81.23-2.53-1.81,5.09-22.74,4.53-26.84-.89-3.32-15.79-10.11-18.29-13.31-.78-1.01-1.05-1.81-.36-2.97,1.84-3.06,22.66-3.01,26.86-4.53,1.59-.99,5.84-14.17,7.52-16.99.85-1.44,5.41-7.7,7.09-5.46,2.62,2.94,3.49,6.86,5.15,10.32ZM490.23,93.01c-.96-1.97-5.66-16.13-6.53-16.15l-10.58,20.96-24.6,2.7,18.32,13.61-5.82,23.85,21.37-11.89c3.43.74,19.69,13.36,21.36,11.89l-5.82-23.19,18.8-13.41.83-1.52c-4.39-.46-22.65.33-25.02-2.26-.17-.19-1.88-3.72-2.31-4.59Z"/>
  <path d="M144.52,740.31c2.21,3.21,4.21,9.41,4.2,13.24,0,2.14-.86,4.21-2.96,2.29-1.16-7.88-4.38-18.06-13.43-19.78-.81-2.74,2.42-2.81,4.57-2.29,1.95.48,6.47,4.85,7.62,6.53Z"/>
  <path d="M160.8,742.93c-3.34,3.6-2.68,6.08-4.26,9.73-1.79,4.14-4.33,3.27-3.81-1.69.39-3.81,5.06-10.07,8.17-12.22,1.74-1.21,4.98-3.47,5.58-.35-.17,1.05-4.69,3.47-5.67,4.53Z"/>
  <path d="M45.92,776.94c6.65-2.24,16.44,14,11.73,15.05-1.87.42-3.45-5.65-4.64-7.17-1.3-1.66-11.37-6.43-7.09-7.88Z"/>
  <path d="M74.71,670.79c.06.16,2.12,1.07.94,2.8-.23.34-2.92.96-3.19.75-.39-.31-1.66-6.75-3.66-9.17s-8.8-4.18-8.17-6.27c7.69-2.72,11.92,5.89,14.08,11.89Z"/>
  <path d="M92.08,655.18c-.17.33-4.98,3.46-5.83,4.54-1.95.85-3.48,11.21-4.91,10.66-4.85-1.88,3.43-17.05,8.68-17.64,1.6-.5,2.74,1.16,2.05,2.44Z"/>
  <path d="M167.39,756.76c-1.09.95-3.07,3.47-2.9-.54s12.04-12.74,16.44-8.59c.4,1.81-7.66,3.73-9.82,5.28-1.29.93-2.28,2.6-3.72,3.85Z"/>
  <path d="M133.35,755.43c-3.23-3.19-5.24-6.4-9.96-8.11,1.51-7.58,15.17,6.3,14.13,9.44s-3.47-.64-4.17-1.33Z"/>
  <path d="M73.77,776.22c1.61,1.71-8.82,10.64-7.98,14.36l-3.19.1c-2.46-3.73,9.23-16.53,11.18-14.46Z"/>
  <path d="M555.03,697.34c-.83,4.9-6.07,7.57-5.37,13.69-10.57,2.93,2.2-16.86,5.37-13.69Z"/>
  <path d="M488.79,800.38c-1.79-1.48.46-3.02,2.12-3.05,6.3-.13,11.23,14.27,7.25,14.36-2.5-2.2-2.17-6.47-4.25-8.88-1.86-2.15-3.86-1.38-5.12-2.43Z"/>
  <path d="M504.42,810.39c-3.54-2.04,8.9-15.06,12.18-10.54,1.95,2.68-4.66,3.74-6.24,4.98s-3.71,6.84-5.94,5.56Z"/>
  <path d="M188.6,636.97c7.61-2.51,11.95,14.32,8.45,14.35-3.47-5.31-2.91-10.4-9.52-13.46.31-.35.59-.73,1.07-.89Z"/>
  <path d="M541.88,713.11c-3.79.41-3.05-3.75-4.62-6.07-.92-1.36-6.89-5.97-5.23-7.73,6.46.82,10.2,7.66,9.85,13.8Z"/>
  <path d="M93.46,671.02c-8.89-1.75,8.8-13.09,9.89-8.18.56,2.51-10.68,3.69-9.89,8.18Z"/>
  <path d="M201.39,649.28c-3.35-2.7,4.29-12.58,6.18-12.4,2.77.27-1.65,5.91-2.17,7.02-1.19,2.55.19,6.34-4.01,5.38Z"/>
  <path d="M220.3,644.68l-9.77,5.33c-2.86-5.2,12.57-10.42,9.77-5.33Z"/>
  <path d="M555.69,712.45c-1.49-4.35,9.79-8.83,10.51-5.57l-10.51,5.57Z"/>
  <path d="M363.35,391.4c6.63,8.49,11.21,12.78,23.51,9.3,3.5-.99,9-7.53,9.63-2.26-7.23,10.99-27.02,9.24-34.76-.5-1.66-2.09-4.64-8.9-.33-8.91,1.59.03,1.32,1.57,1.94,2.37Z"/>
  <path d="M410.1,365.67c-.08-.19-.86-.27-1-.76-.64-2.27,2.07-5.54,4.18-4.72,2.09,6.33,4.81,11.1,12.47,10.44,3.1-.27,5.91-3.79,8.68-1.98,2.1,2.97-4.71,5.89-6.91,6.32-8.87,1.77-14.15-1.16-17.42-9.3Z"/>
  <path d="M425.33,337.28c6.45-2.07,20.84,11.08,17.35,15.37s-6.44-4.18-8.94-6.3c-2.73-2.32-10.5-3.68-10.22-6.86.15-1.06.79-1.88,1.81-2.2Z"/>
  <path d="M378.84,349.63c.98,8.54-13.19,9.65-18.74,5.92-4.5-3.01-5.63-11.96-1.32-10.52.82.27,1.29,7.69,9.24,7.91,4.54.13,6.31-4.2,10.83-3.31Z"/>
  <path d="M370.15,322.86c2.4-.21,9.81.31,10.57,2.92.54,5.46-6.28,2.6-10.13,2.8-2.36.12-9.26,3.44-9.26-.97,0-2.87,6.48-4.54,8.83-4.75Z"/>
  <path d="M236.01,209.77c.62,1.35-.27,3.41.18,4.64.26.7,3.22,6.1,3.75,6.89,6.03,8.91,22.8,10.04,28.87.24l11.38.87c6.1,7.46,8.44,17.47,13.83,25.49,7.37,10.98,18.64,19.22,29.29,26.8.45,1.05-.59,3.75-1.12,4.83-2.52,5.21-20.33,26-25.32,28.58-1.31.68-2.62,1.4-4.18,1.13-.86-.14-10.11-5.49-11.39-6.39-7.88-5.52-14.55-13.65-19.85-21.62,4.8-13.52,12.23-26.14,14.81-40.39.43-1.49-1.75-1.16-2.22-.89-1.99,1.13-4.12,10.44-5,12.75-11.86,31.43-29.44,60.69-53.93,84.12-8.17,7.82-36.76,31.74-46.65,33.56-6.55,1.2-14.56-7.24-20.84-10.14-11.64-5.36-20.57-6.86-31.73-14.94-19.57-14.19-34.56-44.37-36.13-68.39-.18-2.78-.69-6.23,1.21-8.47,2.49-2.95,26.63-10.17,32.22-12.48,7.41-3.07,14.29-7.15,21.7-10.17.26,20.71,15.16,42.43,30.95,54.83,1.14.9,9.09,6.12,10,6.43,7.26,2.51,13.94-6.03,19.09-9.88,2.9,2.38,10.38,2.27,12.75,4.03,3.14,2.34,4.4,9.82,12.22,7.55,2.42-3.44,7.31-3.96,9.58-6.87,1.61-2.06,1.91-5.41,3.11-7.41.82-1.36,4.9-5.16,5.25-6.55,1.77-6.9-4.4-14.95-10.02-18.36-4.8-2.92-13.83-3.92-16.59-5.76-3.38-2.25-9.03-14.47-15.17-16.39v-.96c1.78-1.34,4.94-3.96,6.33-5.51,1.9-2.13,13.49-16.18,13.76-17.5.19-.92.65-1.59-.34-2.34-1.41-.79-2.25-.21-3.37.64-1.76,1.33-6.3,9.27-8.5,11.88-2.89,3.43-6.9,7.04-9.87,10.56-1.16.49-6.54-4.5-7.22-1.34-.57,2.62,19.52,16.4,19.76,21.64-14.46,8.8-23.05,23.5-29.99,38.47-9.32-5.24-18.1-12.91-24.37-21.59-8.52-11.79-19.5-31.69-8.8-44.93,10.71-13.25,50.74-41.23,67.59-43.04,8.95-.97,6.99,1.75,12.63,6.72,1.87,1.65,12.02,8.96,12.35,9.67Z" fill="#fff"/>
  <path d="M317.31,73.29c.69,1.15,2,1.94,1.72,4.19,23.67-6.11,46.46,14.55,40.7,38.98,17.21,10.11,13,36.69-5.56,42.54,1.56,9.18-6.46,23.41-16.47,23.64-.96.02-1.13.27-.88-.89,6.14-13.59,10.94-27.63,13.88-42.33,1.54-.6,5.17-1.36,4.46-3.74s-4.93.16-6.3.26c-9.73.69-20.93-10.72-25.36-18.57-1.51-2.68-2.56-7.02-3.64-8.83-2.98-5-6.89,7.11-7.96,8.85-4.82,7.81-19.94,19.83-28.89,12.2-2.96-2.52-2.1-4.48-2.13-8.06-3.23-.78-5.31,1.47-8.04,2.16-10.34,2.62-23.25,3.86-31.11-4.76-2.13-1.16-.68-6.44-2.61-6.61-3.23-.29-3.58,2.12-2.93,4.8.12.49,1.14.44,1.26.93,1.05,4.44-5.41,17.12-10.03,20.04-9.37,5.91-7.58.43-13.03-3-10.38-6.53-23.32.41-25.9,11.4-3.48,14.8,4.79,25.64,19.26,28.44l6.73,14.96-19.26,3.84c-4.52-3.66-7.42-7.55-8.33-13.43-20.08-1.43-26.81-24.32-12.48-38.1.15-1.74-3.65-4.8-4.9-6.93-1.49-2.55-2.92-7.81-2.33-10.63.09-.45,1.08-.51,1.22-1.01,4.43-16.64,15.3-25.18,32.94-24.44.11-.82-.29-2.17.02-2.81,8.73-17.83,15.43-29.25,34.37-38.73,24.6-12.3,66.42-9.81,81.59,15.62Z" fill="#fff"/>
  <path d="M318.97,115.65c4.52,11.37,14.83,21.38,27,23.96,1.83,1.47-3.49,18.71-4.52,21.76-9.8,28.99-17.28,53.86-52.46,57.35-33.54,3.33-68.58-14.9-78.73-47.96-13.56-.04-21.13-11.42-17.34-24.42,3.72-12.75,20.38-14.26,23.56-1.16,12.57-.84,21.11-9.21,23.97-21.02,10.91,6.32,24.4,5.9,36.07,2.02,6.75,16.77,26.48,7.68,35.23-2.36,1.52-1.74,5.36-9.32,7.22-8.17ZM252.54,157.11c-5.02-3.16-4.67,10.62,4.18,13.23,5.53,1.63,15.94-.74,15.51-7.28-2.94-1.84-4.82,1.78-7.61,2.37-6.83,1.44-10.79-1.83-12.08-8.32ZM305.42,179.82c5.17,5.44,17.95,5.32,19.53-3.36l-1.04-1.67c-6.65,4.92-14.71,5.29-17.01-4.01-6.64-2.23-4.48,5.9-1.49,9.05ZM293.41,183.28c7.25,4.02,3.54-14.9-5.95-9.8-.5,3.87,3.58,2.41,5.2,5,.86,1.37.23,4.5.76,4.79ZM290.53,194.97c.9-1.13,1.43-2.95-.22-3.69-2.49-.88-10.49,6.23-15.24-1.15-.87-1.35-2.43-8.6-5.44-5.09-5.74,6.67,13.76,18.9,20.91,9.94Z" fill="#fff"/>
  <path d="M198.61,95.17c-16.48.04-29.98,11.1-34.07,26.74-11.1.22-22.15,1.23-33.26.97-5.14-.12-15.62-.32-20.19-1.5-12.06-3.14-18.02-14.01-34.72-11.37-7.1,1.12-8.64,6.5-15.79,5.33-1.93-.32-7.66-2.76-9.33-3.81-21.87-13.84,5.6-45.65,24.98-32.8l1.84-.52c-3.44-25.76,20.54-47.08,45.7-42.47,11.46,2.1,24.07,9.83,28.08,21.22,1.76,4.99,1.44,10.06,3.13,14.64,4.99-2.63,7.37-6.48,13.78-7.23,18.02-2.09,34.24,12.25,29.83,30.81Z" fill="#fff"/>
  <path d="M179.39,186.2c1.15,1.28,9.45,10.93,9.13,11.6-3.43,2.79-7.91,4.53-11.47,6.95-11.14,7.59-24.58,17.61-34.27,26.87-4.54,4.34-8.97,15.06-17.31,10.12-6.96-4.12-.49-9.16,3.88-11.72l-.33-1.68c-11.56.23-23.78,1.86-33.57-5.88-7.63-6.04-9.46-18.72,2.36-20.68,1.83-.3,17,1.71,13.79-2.7-12.66-.66-28.16-3.7-37.1-13.52-9.01-9.9-5.47-23.24,9.42-21.24,4.15.56,11.06,6.16,14.46,3.93.6.02.5-1.04.34-1.33-.68-1.24-11.89-5.57-14.27-7.09-12.6-8.04-30.3-29.44-15.3-42.57,5.43-4.75,13.18-4.13,19.74-2.62,23.39,5.41,73.57,52.79,90.49,71.56Z" fill="#fff"/>
  <path d="M341.61,240.78c-.11.04-1.78,1.46-1.56,1.69,19.71,3.82,10.36,18.29-4.45,20.22-3.4.44-14.43-.84-15.51-.4-1.44.58-1.1,2.14-1.08,3.48,0,.69-1.09.44-1.54.27-.83-.31-12.09-10.38-13.29-11.7-7.97-8.73-14.43-21-18.05-32.24,4.92.03,9.88-.93,14.6-2.16,5.04-1.32,9.36-4.29,13.51-5.55,9.36-2.84,46.07-10.2,55.04-10.09,24.91.29,16.71,18.45.77,27.12-10.42,5.67-19.06,5.61-28.46,9.36Z" fill="#fff"/>
  <path d="M86.52,314.54c.26.55,2.47,1.52,1.72,3.53-8.77-.5-8.81,10.49-12.48,15.95-.53.78-6.4,6.81-7.24,7.41-5.95,4.24-11.99,3.23-14.61-3.83-1.71-4.63-3.03-13.68-2.55-18.57.11-1.15,1.28-.93,1.34-1.41,1.19-9.91,2.48-31.53,16.11-32.44,2-.13,7.9.64,9.22,2.02.99,1.03,6.21,22.57,8.48,27.35Z" fill="#fff"/>
  <path d="M232.87,290.47c-1.96,1.92-2.58-9.09-6.26-5.94.35,5.63,4.2,11.34-.64,16.45-.58-2.53-2.32-12.12-6.91-9.54-.79,1.51,1.46,2.99,1.83,4.76,1.26,6.04-1.48,12.51-7.66,7.01-1.39-1.24-2.32-3.8-3.77-4.77-2.77-1.86-21.25-5.24-21.28-10.26,0-1.31,10.38-12.55,12.14-14.16,7.49-6.89,7.96-7.91,18.28-4.43,9.07,3.06,19.15,9.95,14.27,20.88Z" fill="#fff"/>
  <path d="M130.31,357.52c-8.12,5.05-5.65,9.61-6.87,17.11-.42,2.57-4.08,8.56-5.94,10.5-6.3,6.57-11.82,2.99-15.38-3.71-5.17-9.73-9.73-30.49-.36-38.97,3.73-3.37,4.53.71,7.19,2.57,6.76,4.73,13.58,9.54,21.36,12.5Z" fill="#fff"/>
  <path d="M167.36,139.72c.45.71,2.37.79,2.4,2.51-5.2,6.41-8.39,13.6-5.92,22.03-.52.04-1.01.06-1.52-.12-2.31-.81-13.29-12.81-16.21-15.35-8.29-7.2-19.2-13.93-27.01-20.98-.7-.63-1.5-1.22-1.28-2.32l45.4.29c1.36,5.15,1.16,9.26,4.14,13.94Z" fill="#fff"/>
  <path d="M328.42,293.57c.43.41,1.72.31,2.45,1.14,1.63,1.84,2.86,5.7,1.34,7.98-5.17,4.74-5.53-2.92-9.9-3-.4,3.26,1.97,6.9-.36,9.84-4.12,4.3-12.14-6.42-11.39-9.36,1.12-4.36,15.86-15.96,15.7-22.83,1.36.02,2.45.69,3.59,1.34,4.01,2.29,15.79,12.26,17,16.52,1.83,6.46-1.52,8.15-6.74,4.77-2.86-1.85-6.53-8.76-8.41-9.35-2.64-.83-5.68.63-3.26,2.96Z" fill="#fff"/>
  <path d="M240.11,212.91l24.31,8.21c-7.53,7.75-22.9,2.79-24.31-8.21Z" fill="#fff"/>
  <path d="M190.04,294.53c1.36,2.69-7.38,9.43-8.44,8.42l3.97-10.49c.77-.5,4.35,1.84,4.46,2.06Z" fill="#fff"/>
  <path d="M490.23,93.01c.42.87,2.13,4.4,2.31,4.59,2.38,2.59,20.63,1.8,25.02,2.26l-.83,1.52-18.8,13.41,5.82,23.19c-1.66,1.47-17.92-11.15-21.36-11.89l-21.37,11.89,5.82-23.85-18.32-13.61,24.6-2.7,10.58-20.96c.87.02,5.57,14.18,6.53,16.15Z" fill="#fff"/>
  <path d="M305.42,179.82c-2.99-3.15-5.15-11.27,1.49-9.05,2.3,9.3,10.35,8.93,17.01,4.01l1.04,1.67c-1.58,8.68-14.36,8.81-19.53,3.36Z"/>
  <path d="M252.54,157.11c1.29,6.49,5.25,9.76,12.08,8.32,2.79-.59,4.67-4.21,7.61-2.37.44,6.54-9.97,8.91-15.51,7.28-8.86-2.61-9.2-16.39-4.18-13.23Z"/>
  <path d="M290.53,194.97c-7.15,8.96-26.64-3.27-20.91-9.94,3.01-3.5,4.57,3.74,5.44,5.09,4.75,7.39,12.75.28,15.24,1.15,1.65.74,1.12,2.56.22,3.69Z"/>
  <path d="M293.41,183.28c-.53-.29.1-3.42-.76-4.79-1.62-2.59-5.7-1.14-5.2-5,9.5-5.11,13.21,13.82,5.95,9.8Z"/>
</svg>