<?xml version="1.0" encoding="UTF-8"?>
<svg id="Camada_1" xmlns="http://www.w3.org/2000/svg" version="1.1" viewBox="0 0 595.28 841.89">
  <!-- Generator: Adobe Illustrator 29.0.0, SVG Export Plug-In . SVG Version: 2.1.0 Build 186)  -->
  <path d="M.14-.06v841.34h595V-.06H.14ZM356.48,500.18l-4.97-1.97c1.15-19.55-17.54-26.07-34.17-25.01-4.19.26-13.97,3.54-16.34,3.31-1.67-.16-18.37-7.89-21.04-9.27-6.4-3.31-5.2-5.95-7.7-11.89-.2-.49-.98-.57-1.19-1.05-.28-.63-1.54-4.57-1.37-4.74l24.3,12.19c.86.65,3.33.2,3.3-.69-.05-1.65-26-12.73-28.93-15.76l-6.56-20.72,68.76,30.84,1.58-.93c-.79-1.96-12.54-6.04-15.12-7.24-18.65-8.7-37.12-17.82-55.89-26.29-1.71-3.41-2.76-6.84-3.74-10.72-2.86-11.29-4.53-23.43-6.11-34.97,37.51,16.19,73.83,34.87,109.76,54.25,2.22,1.2,8.05,2.46,7.81,5.05-.49,5.29-3.39,14.36-4.72,20.02v.03c-2.18,9.26-4.65,19.09-6.15,28.99-.83,5.49-1.74,11.01-1.51,16.57ZM331.95,484.9c3.25,1.32,9.81,7.05,11.28,10.41,1.47,3.36,2.98,7.33-2.24,7.52-4.38.16-6.79-4.14-9.99-5.81-1.84-.96-7.63-2.61-9.72-2.77-3.53-.27-16.98,2.03-17.44,6.26-.34,3.13,6.09,2.29,9.1,3.4.91.33,5.92,3.03,6.37,3.49,1.33,1.35,1.48,5.55-.1,6.6-6.33,4.19-24.83,1.95-31.76-1.04-3.72-1.6-7.28-2.52-5.22-7.04,2.77-6.09,7.1-15.44,11.86-20.49,10.28-10.89,36.92-12.8,48.38-2.82h-.02c2.17,1.89,4.98,6.95,5.66,9.79.3,1.24,1.57,5.02-.84,4.46-1.75-5.63-5.6-9.75-10.58-12.76-3.04-1.84-10.8-6.22-13.09-2.03,2.12,2.29,5.68,1.75,8.35,2.83ZM391.52,605.45c5.35,27.56,19.69,61.31,39.21,81.74.77.8,7.03,5.05,5.94,6.21-10.1-5.52-19.83-12.16-28.27-20.04-24.31-22.71-37.65-53.89-45.41-85.42-2.05-8.33-2.87-16.94-4.54-25.34,1.24-1.29,25.9,15.1,29.44,15.92h-.01c.84,8.99,1.92,18.04,3.64,26.93ZM590.86,717.07c-32.27-6.08-62.44-20.03-90.83-36.05-14.54-8.21-31.12-18.05-44.83-27.48-.95-.66-5.02-3.47-5.33-4.04-1.99-3.65-3.42-11.14-4.68-15.4-.15-.49-1.02-.42-1.31-1.47-.6-2.16-3.87-18.05-3.23-18.76,1.8.43,3.99,1.66,5.56,2.65,10.64,6.69,21.23,15.68,31.59,22.97,36.48,25.69,73.38,50.91,113.29,71.1l-.23,6.48ZM591.19,719.69h0v14.47c-6.75.9-14.51.98-21.39.68-54.36-2.4-88.31-26.59-114.61-72.72-1.03-1.82-1.65-4.55-2.72-6.51,1.13-.29,3.54,1.43,4.52,2.06,14,9.04,27.75,18.52,42.37,26.65,28.48,15.83,59.57,29.71,91.84,35.37ZM444.19,643.85h-.01c9.96,28.42,29,54.4,53.7,72.16,4.04,2.9,8.89,4.65,12.44,8.26-6.8-1.92-13.67-3.92-20.35-6.26-13.57-4.75-30.31-10.82-41.76-19.38-31.49-23.56-50.47-67.52-55.48-105.57-.49-3.77-.92-7.59-.74-11.41,15.32,8.86,29.96,18.8,44.71,28.58.52.63.99,1.31,1.17,2.12,1.15,5.18,1.26,11.69,2.43,17.29.9,4.29,2.45,10.1,3.89,14.21ZM363.3,601.81h-.01c.1.31,1.5.09,1.07,3.18l-1.3.33c-.09-.77-.43-1.42-.96-1.98-16.86-17.56-33.74-37.45-46.25-58.29-.6-1-3.93-6.86-3.42-7.43l43.46,22.65c.8,13.46,3.4,28.58,7.41,41.54ZM351.62,597.35c2.9,3.15,13.5,12.05,15,14.58,3.78,6.37,4.46,16.85,9.77,22.47l6.38,13.64-20.7-14.46c-32.3-27.04-60.48-60.36-80.07-97.45-1-1.89-1.86-4.25-1.79-6.4,7.14.28,11.9-6.28,16.4-10.85.44-.21,2.13.2,2.5.51h0c2,1.64,3.96,12.95,7.39,14.76,11.82,22.52,27.79,44.42,45.12,63.2ZM258.55,722.04c2.67,9.53-8.7,14.34-16.32,15.87-17.44,3.51-55.77-3.3-70.72-13.07-2.75-1.8-5.36-3.84-4.4-7.34,2.68-2.63,4.75.76,7.27,1.85,16.48,7.15,50.54,17.27,67.72,12.51,4.82-1.34,13.54-5.14,15.12-10.2h0s1.33.38,1.33.38ZM252.61,722.31h.02c.68-6.71-5.85-12.99-12.5-12.49l.39,2.03c9.18,2.28,15,13.34,2.58,16.38-1.65-3.12-.99-6.96-3.92-9.9-1.76-1.77-9.78-5.64-10.23-1.28,3.58,1.03,8.19,1.92,9.67,5.76,2.26,5.87.21,6.91-5.41,7.38-2.91.24-23.6-1.95-24.57-3.35.25-8.66,7.22-18.24,14.83-22.16,2.79-1.43,9.27-2.53,10.74-3.72.68-.56.86-.82,0-1.33-3.21-1.89-9.85,1.25-12.84,2.96-8.85,5.06-14.43,12.9-16.11,23.01l-11.54-3.26c-2.38-10.93,14.04-29.18,24.33-28.98,7.46.14,30.87,10.55,35.1,16.9,2.39,3.59,4.73,10.01-.54,12.05ZM212.51,691.76c-7.37,3.96-13.68,7.49-17.86,15.01-.73,1.31-4.34,8.91-4.47,9.45-.36,1.56.19,3.72-.69,5.45-3.85-1.92-16.43-4.73-18.06-8.56-1.98-4.64,2.91-9.66,4.08-13.64,1.44-4.88.41-10.87,1.49-15.93l35.5-4.61h.01v12.83ZM209.33,676.14c-40.21,8.57-95.12,8.74-135.04-1.3-7.72-1.94-19.3-5.38-25.96-9.54-1.81-1.14-4.68-2.67-4.17-5.02,2.7-15.02,4.62-30.22,7.31-45.23,3.53-19.7,8.42-41.93,13.05-61.48,2.38-10.04,4.33-20.2,7.26-30.1,1-.8,11.18,4.54,13.19,5.28,3.63,1.33,8.74,2.99,12.47,3.96,4.42,1.15,17.49,4.28,21.38,4.27,3.26,0,5.92-2.29,7.82-4.66,2.1-2.62,3.08-7.78,6.96-7.17.02.99-1.18.75-1.89,1.71-5.89,8-4.51,15.9,5.47,18.69,12.71,3.54,14.07-3.91,18.09-13.54,5.95.04,12.55-3.56,13.9-9.44,18.53.19,37.81-.38,55.16-7.3v.04c-.08.6-.09,1.16.24,1.7,4.69,7.7,9.11,43.93,10.85,55.24,4.19,27.22,8.27,57.73,9.94,86.02.09,1.57.17,3.25-.14,4.79-10.54,6.96-23.56,10.45-35.89,13.08ZM157.96,725.92c-.1,1.91-1.98,6.05-3.65,6.92-1.26.66-.93-1.08-1.06-1.55-.83-3.13-2.04-8.72-6.22-8.97-6.05-.37,1.57,3.99,2.02,4.61,4.32,5.97-.94,11.83-7.55,11.16,2.3-4.54-2.66-15.19-8.39-12.66-.92.41-1.01.15-.82,1.48,5.37,1.37,7.05,4.08,6.57,9.55-.38,4.35-3.62,3.69-7.23,4.26,1.09-3.61-2.8-12.17-6.9-11.88-4.44.32.97,3.62,1.63,4.33,1.91,2.06,2.77,4.9,1.6,7.63-3.3,2.36-18.83-2.1-23.29-2.71-.15-.91.21-1.64.51-2.45,3.12-8.38,16.63-19.72,24.96-23.03,3.17-1.26,12.37-3.46,15.47-2.62,3.38.91,8.03,6.53,9.97,9.42h0c1.54,2.31,2.56,3.09,2.38,6.51ZM160.78,732.99c1.52,5.81-4.74,10.03-9.28,12.15-13.39,6.25-36.72,6.01-50.74,1.81-6.4-1.92-27.97-11.73-29.98-18.02-.65-2.02-.34-6.53,2.33-6.61h.01c.64,3.14,5.03,5.94,7.69,7.77,20.03,13.81,55.33,21.81,75.77,5.01,1.29-1.06,3.2-5.93,4.2-2.11ZM139.17,707.83c-3.12.58-5.69.57-8.85,1.68-11.76,4.12-23.71,14.98-28.38,26.51-2,1.07-12.05-3.81-12.31-4.9.84-2.53,1.48-5.34,2.63-7.74,4.97-10.35,21.56-21.54,33.12-21.5,5.36.02,9.99,2.83,14.79,4.67.15,1.73.06,1.08-1,1.28ZM126.35,684.85l-1.6,13.85c-.68.98-4.12.51-5.67.9-10.09,2.51-23.23,11.08-28.35,20.29-.97,1.75-3.21,8.75-3.59,9.06-1.37,1.1-5.53-2.06-6.75-3.07-2.47-2.04-3.65-4.23-5.78-6.35-.89-2.12,1.36-5.88,2.57-7.93,1.85-3.13,5.67-6.76,6.93-9.51.6-1.32,3.13-8.13,3.43-9.18.41-1.46,1.51-10.84,2.02-11.34l36.81,3.28h-.02ZM90.48,327.99c-4.3-7.99-18.01-6.37-22.9.63-2.43,3.48-2.06,5.79-3.05,9.33-.15.55-1.12.47-1.25.95-.2.69,1.14,5,1.46,6.27,3.05,12.12,7.17,19.6,20.6,21.51-.06,4.4-.21,11.13.96,15.34.15.54,1.16.43,1.27.92.33,1.45-.4,3.27.67,4.8-6.13,0-8.19-5.09-8.57-10.49-14.92,3.66-22.52-11.91-17.98-24.69-12.13-10.4-10.01-27.38-.37-38.79-2.1-4.1-4.44-8.36-4.65-13.14-.24-5.37,2.95-14.99,6.65-18.96,3.01-3.24,10.8-6.1,12.23-7.81.85-1.01,2.25-5.41,3.46-7.39,8.86-14.53,31.93-25.63,48.01-29.57,32.76-8.02,74.7-4.35,98.89,21.44,1.65,1.75,4.67,6.92,5.95,7.85,1.28.93,4.86,1.53,6.72,2.48,4.39,2.25,7.16,6.3,9.69,10.36h0c4.42,7.09,5.23,12.26,3.48,20.77-.99,4.8-2.85,8.8-6.03,12.37-.99,1.11-4,4.36-5.27,4.59-1.38.14-.86-.08-.99-.99-.63-4.53-.75-9.2-2.04-13.62-.14-.49-1.02-.53-1.19-1.04-1.34-4.04-4.96-16.93-9.75-17.78-2.36-.42-6.23,2.1-9.12,2.45-9.37,1.14-18.37-.57-26.71-4.7-2.14-1.06-3.57-3.69-6.42-3.12,2.28,12.19-12.41,11.52-20.37,8.86-3.84-1.28-11.46-5.8-14.49-8.52-1.65-1.48-4.92-6.52-6.81-6.16-1.44.27-3.5,7.37-5.02,9.44-3.46,4.7-12.94,9.39-18.74,9.39-5.05,0-8.86-3.11-13.48-3.8.08,5.82,1.08,11.6.68,17.45-.77,11.18-4.77,21.76-3.96,33.49,1.43,20.65,16.49,32.46,37.06,29.83,8.41-1.07,13.4-5.76,20.8-8.12,8.27-2.64,8.71,2.3,15.91,4.44,8.27,2.46,18.84,2.81,24.49-4.81.78-1.05.71-2.54,1.16-3.11,1.84-2.36,13.53,5.77,16.3,6.74,12.24,4.28,21.91-3.62,23-15.74,1.28-1.92,4.28,5.57,4.63,6.53,3,8.18,4.65,21.13-1.33,28.3-1.1,1.32-3.71,2.36-4.28,3.61-.87,1.92-.09,5.21-.39,7.49-.63,4.77-8.07,17.39-12.92,18.63-2.6.67-5.95-.2-8.65.23-.43,4.03-3.03,7-5.74,9.74-13.27-5.54-26.94-13.21-41.91-11.7-11.59,1.17-17.34,7.62-20.56,18.37-7,.34-8.02-4.83-10.51-9.96-6.37,2.09-8.32,3.47-15.05,1.39-7.55-2.33-10-6.81-14.78-12.34l-4.02-10.6c-17.62.53-15.83-21.38-16.64-33.64l-.78-.58c-2.64.47-4.89.54-7.47-.38-14.73-5.26-19.64-35.11-.98-36.49,3.59-.27,7.16,1.73,9.02,4.78.36.59,3.79,12.56,5.07,7.33.26-1.04-2.27-8.73-2.99-10.06ZM194.1,147.17c43.22,10.02,86.3,20.73,128.86,33.2,46.16,13.53,92.02,28.83,135.67,49.06,11.84,5.49,23.26,11.96,35.25,17.01l-23.04,19.42c-71.02-38.61-149.01-62.26-227.3-81.69-10.87-2.7-22.08-4.39-32.91-7.2-3.49-.9-14.07-3.48-15.89-5.8-1.97-2.52-1.55-12.8-1.33-16.47.15-2.47,1.13-4.91.69-7.53ZM254.21,148.51c6.31.31,26.94-1.56,28-9.52.31-2.31-.28-5.19-.03-7.59h19.09c-2.87,13.64,18.81,15.91,27.91,16.45,9.1.54,37.03-1.09,43.1-8.24,2.55-3,1.1-5.69,3.04-8.17l19.96,2.58c.32,1.54-.2,1.05-.85,1.47-9.05,5.81-23.64,9.54-33.79,14.18-7.52,3.44-16.58,6.58-13.21,16.73,2.62,7.92,11.36,10.17,18.71,7.18,13.56-5.51,29-17.58,42.36-24.69,4.66-2.48,10.38-6.34,15.51-3.83,4.46,2.19,1.65,5.25,2.32,9.51,1.47,9.37,10.85,13.9,19.56,11.33,6.19-1.83,12.11-7.5,14.18-13.5l31.18,9.23c.26,1.69-.15,1.03-.93,1.38-11.31,5.05-23.21,8.85-33.75,15.62-5.87-2.56-11.74-6.03-18.34-6.42-9.37-.56-22.24,6.07-29.49,11.77-6.85,5.39-.55,5.15,3.61,6.91,12.26,5.19,24.54,11,36.61,16.64,6.13,2.87,14.71,9.54,21.42,8.5,2.33-.36,7.83-2.44,10.49-3.31,6.62-2.16,21.47-5.81,14.23-15.17-2.86-3.69-8.02-3.5-11.08-6.02-.71-.59-.89-.74-.02-1.32,2.04-1.36,13.83-4.37,17.1-5.26,6.4-1.75,22.37-6.56,28.05-6.84,1.4-.07,2.57-.05,3.87.58,11.59,6.28,28.95,9.84,39.73,16.8.3.19.87.71.67.96-1.26.23-2.58.62-3.73,1.21-25.79,13.16-49.82,29.42-72.89,46.82-18.74-8.98-37.25-18.31-56.39-26.44-77.08-32.75-158.96-53.75-240.41-72.85-.2-1.73.02-1.04.96-1.32,10.63-3.19,21.48-5.71,32.57-6.57-1.2,8.54,14.37,10.9,20.68,11.21ZM237.79,103.12c.56-.92.91-.53,1.67-.34,1.92.47,4.3,1.76,6.4,2.17,10.73,2.07,20.83,0,31.06-3.12h0c.11,2.06-.16,4.17.01,6.23.56,7.04,1.76,14.67,1.99,21.67.27,8.01,1.64,11.67-7.12,13.97-7.34,1.92-19.12,1.98-26.61.69-1.32-.23-6.47-2.46-7.12-3.4-.85-1.24-.31-2.34-.64-3.19-.26-.64-1.18-.26-1.33-1.43-.16-1.25-.18-6.07.07-7.15.12-.53,1.19-.17,1.35-1.39.56-4.27-.87-22.87.26-24.71ZM269.83,100.97c-7.96,1.99-27.1,3.52-32.66-3.45-.52-.65-1.91-1.02-.87-2.8.16-.27,4.59-2.6,5.33-2.88,8.26-3.14,23.18-3.44,31.5-.35,9.17,3.41,3.01,7.9-3.3,9.48ZM323.29,83.42c19.33,1.18,39.39-.46,57.52-7.22h0s-2.43,11.85-2.43,11.85c-6.97,1.4-13.91,3.63-20.99,4.5-13.74,1.69-30.22,1.73-43.96.07-5.24-.63-10.24-2.18-15.33-3.4-.89-.64-2.49-10.68-1.78-12.36,7.23,4.2,18.52,6.04,26.97,6.56ZM298.31,70.29c5.68-5.3,24.56-6.8,32.39-7.05h0c12.83-.42,35.04.56,46.63,6.23,2.72,1.34,3.11,3.05.18,4.41-16.51,7.67-55.55,8.36-72.83,3.15-3.18-.96-10.27-3.1-6.37-6.74ZM357.22,96l20.95-4.69h0c-.52,4.93-1.01,9.94-1.94,14.81-.23,1.21-1.22.94-1.31,1.45-1.78,9.66-2.47,19.9-4.41,29.6-4.3,4.21-10.81,5.4-16.66,6.06l3.37-47.23ZM352.98,125.97h-.01c-.08.17-.98.15-1.09.62l-1.42,17.21c-1.1.56-2.28.69-3.5.78-5.53.4-14.96.47-20.44,0-1.14-.1-2.76-.15-3.6-1-1.9-1.93-4-41.88-4.58-47.67l36.2.28.65,1.99-2.21,27.79ZM298.96,92.62l16.09,3.3h0c.18,3.38-.23,6.82.01,10.19.49,6.99,1.16,16.51,3.27,22.47l1.33,14.66c-1.44,1.2-13.89-3.44-14.69-5.4-1.13-14.03-5.01-28.37-6.34-42.26-.06-.7-.28-2.98.33-2.96ZM396.23,113.03c-1.33-2.17,1.04-2.48,2.96-3.01,17.26-4.75,40.43,6.24,43.35,24.96l-13.66,5.54h0c.41-4.04-12.83-9.11-9.86-3.94.45.77,7.87,2.76,7.81,5.98-4.06-.5-7.7-2.14-11.63-.12-15.95,7.36-30.6,17.18-45.91,25.75-1.33.18-.86-.04-.98-.96-.22-1.64.23-3.54-.04-5.23-.74-4.66-8.95-8.59-7.75-4.09.44,1.64,3.35,2.63,3.88,3.53.92,1.55,1.04,7.36-.19,8.59-4.8,2.96-12.7.78-14.02-5.06-1.14-5.04.86-6.61,4.76-9.13,10.41-6.72,29.26-11.63,41.41-17.75,5-2.52,17.88-8.94,18.61-14.96,1.16-9.55-17.01-7.29-18.74-10.1ZM433.4,159.01c-4.14.31-4.32-7.07-3.88-10.13.75-5.24,8.91-11.18,13.92-10.13.47.1,7.48,3.28,8.18,3.7,1.67,1,3.4,2.63,3.48,4.73-8.78-.87-19.52,2.26-21.7,11.83ZM455.7,150.53c-.04,9.04-12.9,15.22-20.27,10.8,1.75-8.73,12.18-12.98,20.27-10.8ZM482.65,203.99c-4.46,2.85-9.61,5.09-13.78,8.57l-2.87.35c-17.78-9.09-35.95-17.37-54.26-25.34l-.69-1.59c8.44-4.89,16.87-11.15,27.21-10.46,18.1,4.87,34.28,14.83,51.65,21.65,1.33,1.94-5.73,5.84-7.26,6.82ZM492.54,200.7c2.08-.47,1.61,3.53-.38,4.9-2.68,1.84-11.3,4.26-14.71,4.67h-.01l15.1-9.57ZM470.02,184.51c-.78-.34-10.37-3.43-9.66-4.46h.01c12.47-5.9,24.88-12.05,37.69-17.22,8.72-3.52,26.97-11.71,35.83-9.3,7.2,1.96,13.13,10.6,6.35,16.64-5.43,4.84-30.7,9.24-39.12,11.5-6.08,1.63-16.05,6.02-21.54,6.78-3.85.54-6.46-2.56-9.56-3.94ZM456.86,281.04c-4.12,4.32-9.29,8.97-13.18,13.45-3.05,3.51-5.43,7.59-8.61,10.99-22.41-11.92-45.37-23.07-68.72-33.08-35.56-15.25-72-28.94-108.7-41.2-.77-.26-1.01-.54-.98-1.37.08-2.35,1.75-8.77,2.45-11.37.29-1.07,1.18-.93,1.32-1.45,2.08-7.67,3.69-15.52,5.99-23.14,9.69,1.72,19.37,4.3,28.91,6.88,59.77,16.17,118.46,38.72,173.25,67.36,1.04,1.33-1.75,2.42-2.66,3.28-3.23,3.07-6.04,6.46-9.09,9.65h.02ZM304.78,368.15c12.5,5.54,24.79,7.92,37.72,12.9,12.93,4.98,24.89,12.44,37.57,17.97l-10.75,31.44c-37.8-22.11-78.07-39.58-117.41-58.76-1.33-5.76.04-12.61-2.63-18.27-.37-.78-2.81-2.22-2.54-4.17l-1.25-32.67c2.48-2.79,5.02-4.41,6.46-8.09l90.53,37.06,51.48,23.8h.02s-12.82,27.59-12.82,27.59c-8.92-4.84-18.13-9.85-27.49-13.92-20.26-8.81-41.13-12.34-60.63-23.52-.91-.53-7.94-6.56-8.18-3.64-.22,2.77,16.87,10.93,19.92,12.28ZM228.28,503.43c13.59,12.05,30.15,20.11,47.29,26l6.87,14.51h0c.11.2.83.33,1.05.73,3.99,7.33,7.13,13.01,11.86,19.74.58.83,4.31,6.33,3.93,6.73-20.54-8.22-41.99-13.84-63.5-19-1.33-1.08-2.66-13.12-3.21-15.86-1.33-6.64-4.27-15.8-4.88-22.07-.36-3.7,1.01-7.08.59-10.78ZM278.45,507.9c-1.49,5.72-2.1,12.01-2.83,17.88l-17.55-6.44c-5.88-2.83-25.65-14.99-28.77-19.88-1.93-3.01-.42-3.62-.37-6.22.18-10.31-.58-21.37-2-31.57,2.64-5.71,6.52-10.86,7.2-17.13.68-6.27-.13-9.85-5.25-13.68-2.1-1.57-11.65-5.56-12.16-6.27-.67-.94,2.63-7.3,3.18-7.75,1.48-1.22,5.47-1.11,7.11.12,2.21,1.65,6.7,8.77,8.9,11.48,10.56,12.99,19.95,28.7,34.53,37.12,8.25,4.77,18.02,8.67,26.87,12.25h.01c-1.43,2.22-3.83,3.29-5.59,5.24-4.63,5.12-11.53,18.13-13.28,24.85ZM280.22,513.96l11.17,3.95h.01c-1.48,4.6-6.73,9.28-11.84,8.54l.66-12.49ZM224.36,501.65c.08.28,3.62,2.67-.02,4.07l1.34.75c.87,3.22-4.09,6.49-6.8,7.58-2.71,1.09-5.97,1.72-8.85,2.32-12.53,2.62-25.48,3.35-38.27,3.48-.23-2.11,2.8-1.77,4.24-3.32,1.51-1.63,1.67-4.06,2.39-6.02.2-.56,1.12-.53,1.23-.98.28-1.21-.28-5.11.05-5.42.33-.31,3.84.31,4.93-3.28,1.92-6.34-1.35-14.15-4.85-19.31,4.26-8.2,6.82-17.81,12.36-25.11,10.15,3.55,20.82,14.96,31.56,6.27l.02-.02c.64.89.08,15.13.65,17.32.17.66,1.26.17,1.33.76l-1.34,2.63c2.03,1.81,1.78,11.41,1.38,14.5-.16,1.21-2.15.79-1.35,3.78ZM163.19,507.05c-1.65-1.4-10.19-6.52-11.18-3.27-.87,2.85,5.79,3.29,7.85,4.62,8.78,5.66,8.78,18.88-2.59,20.67.82-5.19-.92-6.59-5.63-7.85-7.22-1.94-13.68,1.53-20.94.56-4.79-.64-9.54-4.39-14.08-5.96-.63-1,.44-6.36.74-7.92,3.71-19.52,18.76-37.61,40.6-33.09,8.28,1.72,15.76,4.89,20.63,11.92h-.02c.74,1.05,1.29,1,2,2.91,1.48,3.98,3.92,12.23-2.88,11.76-.89-4.04-3.88-7.33-7.49-9.27-2.49-1.34-7.89-3.84-10.31-1.51-.41,2.1,7.74,3.4,9.45,4.35,3.07,1.71,6.46,7.2,6.63,10.75.19,4-1.7,10.97-6.87,10.21.37-3.09-3.61-6.93-5.91-8.88ZM132.35,532.21c.26-.61,1.06-.66,1.23-1.01.82-1.68,1.85-4.69,3.32-5.74,2.5-1.78,15.34-2.75,16.81-.34.55.91-3.93,12.72-4.85,14.27-3.39,5.73-11.7,4.56-15.53-.19h0c-1.86-2.33-2.35-3.71-.98-6.99ZM127.68,524.84c-2.15,3.81-4.76,8.81-9.85,8.83-1.1-4.81-1.64-9.5-1.31-14.46l11.16,5.63ZM208.3,459.36c.05,2.7-3.26-.49-4.75-1.19-11.3-5.28-22.42-11.51-34.09-15.88-5.26-1.97-11.87-2.99-16.46-5.89-1.93-7.8,3.38-18.5,10.86-21.35,18.23-6.96,42.84,8.95,59.15,16.1h.01l-.41,1.36c-7.3,3.84-13.39,11.15-14.54,19.51-.39,2.89.18,4.81.23,7.34ZM173.46,447.69l14.65,6.88-8.73,21.02-3.35,3.55c-4.78-3.84-10.26-4.51-15.45-6.97,2.47-4.64,4.13-10.39,6.53-14.94.31-.58,1.5-.77,1.91-1.51.95-1.7,2.48-7.65,4.44-8.03ZM225.42,457.2c-2.72,3.12-12.94,10.19-14.05,3.03-1.31-8.42,2.82-19.09,10.11-23.73,13.69-8.72,9.77,14.01,3.94,20.7ZM270.35,462.02c-1.22,1.37-10.44-8.14-11.42-9.28-7.65-8.94-14.9-19.79-22.53-29.07-2.51-3.05-4.88-6.26-7.4-9.31,1.4-1.49,3.14-2.38,4.55-3.92,3.59-3.89,6.9-8.89,8.21-14.14.73-2.91.59-7.69,1.42-9.71.1-.26,3.51-3.76,3.86-4.07.83-.72,1.11-.85,2.27-.68h0c1.97,13.1,4.43,27.15,7.94,39.71,3.51,12.56,9.17,24.79,12.65,37.31.29,1.05.6,2.05.45,3.16ZM393.26,366.43c-45.16-23.33-92.78-41.46-139.75-60.83,1.96-7.79,2.8-15.93.05-23.67-3.07-8.65-4.49-7.28-2.75-17.91.15-.91.15-3.56,1.42-3.12,22.43,7.88,46.26,12.24,67.45,23.29,10.15,5.3,19.33,12.71,29.97,17.37,8.97,3.93,18.76,6.28,27.66,10.47,1.81.85,8.88,6.39,10.06,4.72s-3.94-4.2-5.25-4.93c-10.28-5.76-21.13-8.09-31.8-12.9-10.67-4.81-19.97-12.29-30.22-17.77-21.22-11.33-45.53-15.77-68.16-23.57l3.95-23.64c1.1-.15,2.11.17,3.16.45,11.1,2.98,25.21,8.89,36.27,13.04,23.95,9,48.79,18.88,72.31,28.93,22.33,9.54,44.2,20.13,65.77,31.21h-.02s-11.17,15.9-11.17,15.9c-4.87,4.82-7.93,11.64-11.63,17.44l-15.76,25.74-1.56-.22ZM245.71,270.74c-3.07-3.26-6.25-5.82-10.72-6.72l1.2-19.11c.11-.48,1.15-.42,1.25-.95,3.3-18.31,6.42-36.74,10.96-54.76l15.38,3.35c-1.36,3.99-2.12,8.7-3.34,12.63-6.38,20.61-10.48,43.34-13.77,64.58-.13.87.44,1.16-.96.98ZM245.3,188.01h.01c.85,1.23-1.83,8.44-2.25,10.43-2.1,9.94-4.95,20.81-6.83,30.1-2.12,10.44-3.05,21.23-4.98,31.7-5.93-7.06-12.92-13.26-20.93-17.86-1.5-.86-9.42-4.37-9.6-4.91l9.16-56.76,35.42,7.3ZM193.37,340.81c5.32,4.32,8.06,14.29,1.99,18.97-6.69,5.15-18.19,3.12-24.64-1.61-.65-.47-.76-1.81-1.43-1.98-1.14-.28-6.33-.15-7.76.01-5.42.62-10.89,5.18-15.96,7.05-16.69,6.17-35.35-1.36-39.16-18.98-3.81-17.62,4.58-34.76,2.86-52.48,10.35,4.14,24.54.33,31.17-8.61.97-1.31,2.42-5.18,2.71-5.23,2.58-.41,6.5,4.63,8.9,6.23,9.41,6.29,30.61,12.85,35.47-1.6h.02c7.71,4.61,16.92,6.97,25.95,6.56,4.26-.19,8.21-1.98,12.38-2.55,5.59,6.14,8.24,15.24,9.57,23.34,1.83,11.16,3.86,24.95,2.62,36.65-.23,2.2-3.29,9.2-4.82,10.95-8.57,9.82-20.06-1.79-28.9-4.67l-.9-1.07c-1.03-5.71-8.72-18.03-15.59-17.29-1.55,3.57,3.31,4.52,5.52,6.31ZM96.11,399.2l7.22,1.07h-.01c.04,2.2.99,4.36,1.89,6.32,4.25,9.22,14.63,18.62,25.41,17.96,2.19-.13,4.3-1.17,6.5-1.24,3.1,5.34,5.74,8.28,12.17,9.22.51,2.06-.69,5.2.74,6.82,1.6,1.82,16.39,5.21,19.73,6.24.84,3.21-1.89,3.81-2.83,5.44-3.5,6.06-5.92,13.76-9.11,20.08-5.22.39-10.58-.51-15.67,1.1-2.12.68-5.5,3.42-7.43,3.42-1.83,0-20.82-4.23-21.42-5.15l3.21-27.86-.68-2.94-2.3.64-3.15,28.1-1.51,1.48c-1.33-.25-12-3.56-12.08-.97l1.61,1.7,31.25,7.51c-2.44,3.29-4.97,6.42-7.34,9.77-.49.7-1.47.95-1.87,1.56-7.39,11.37-9.37,30.59-5.91,43.54-14.84-2.35-30.78-6.86-43.85-14.33-11.88-6.79-21.39-17.93-22.54-32.02-2.78-34.16,19.79-69.77,47.97-87.46ZM236.18,555.36c22.64,5.19,45.33,11.12,66.63,20.47,1.32.88,1.65,2.5,2.64,3.61h.01c7.83,8.75,14.75,18.45,22.99,26.96.63.65,6.78,5.08,5.68,6.14-13.11-2.97-26.52-5.9-39.85-7.8-9.82-1.4-20.28-2.76-30.17-3.36-6.94-.42-14.04.72-20.89-.66l-7.04-45.36ZM363.09,469.74c18.37-89.29,63.91-166.1,135.75-222.63,28.45-22.4,59.36-41.56,92.35-56.55h0v19.72c-3.07,1.66-6.86,3.76-9.69,5.75-32.8,22.99-66.43,57.7-91.82,88.31-43.57,52.53-73.51,114.71-91.75,179.86l-6.27,34.37c-.76,1.25-4.77-1.24-6.04-1.88-8.8-4.44-17.07-10-26.12-13.98l-1.08-1.57,4.66-31.4ZM3.43,3.23h587.73v184.05c-3.76.48-12.22,7.09-15.29,6.48-3.93-1.96-8.34-4.44-12.32-6.15-7.75-3.33-16.33-7.05-24.15-10.04-1.35-.51-2.67-.89-4.13-.81,2.47-2.21,6.3-2.99,8.56-5.57,4.98-5.69,2.03-13.61-3.36-17.7-12.22-9.29-31.88,2.49-44.26,6.85l-36.1-11.16c-1.15-5.14-3.29-7.65-7.89-10.01-1.42-.73-5.43-1.43-6.05-2.5-.67-1.16-.34-4.8-1.04-6.72-6.25-17.06-27.2-26.84-44.79-23.35-3.33.67-9.15,1.94-8.26,6.55.84,4.34,10.26,4.3,13.82,5.29,3.07.86,7.4,2.49,5.46,6.4-.25.5-8.21,6.38-9.07,6.71-5.65,2.16-19.46-3.47-26.12-2.77-.05-1.18-.05-2.36.08-3.54,1.55-14.56,8.12-35.7,7.83-49.34-.11-5.15-1.44-7.16-5.95-9.23-16.75-7.71-64.92-9.54-80.65.19-.86.53-3.31,2.17-3.79,2.79-3.31,4.32-.54,15.42.29,20.68.35,2.17-1.01,4.36,1.29,5.4l4.64,32.39c-3.05-.81-16.73,2.03-18.12.04l-1.63-24.01c-.89-5.56,2.96-10.86-2.66-14.43-9-5.72-32.97-4.53-41.96,1.31-4.8,3.13-1.74,6.51-1.33,10.43l-.98,32.61c-10.93,1.62-21.91,3.54-32.43,7.01-1.75.58-7.3,2.06-8.32,2.85-1.23.95-.78,1.88-1.28,3.02-.1.21-.95.24-1.05.68-.92,3.87-.97,15.34-.71,19.61.42,6.89,4.68,8.31,10.68,10.36,1.94.66,6.14.36,6.49,2.77l-9.3,55.47c-6.27-1.32-12.4-3.48-18.77-4.45-35.32-5.38-83.64,3.98-104.1,35.9-.91,1.42-1.42,4.51-2.15,5.27-1.11,1.17-8.21,3.79-10.4,5.7-8.16,7.12-10.43,26.57-4.09,35.55-1.2,1.75-2.81,3.29-3.9,5.11-4.48,7.5-6.42,17.73-2.44,26.25.83,1.77,6.1,7.17,6.41,8.21.54,1.82-.76,6.25-.53,9.06.57,6.95,4.58,14.33,11.17,17.09,2.55,1.07,6.34.52,7.91,1.3,1.48.73,2.6,6.68,7.04,8.73,1.82.85,4.5.82,6.06,1.83.61.39,3.9,4.57,4.01,5.24.19,1.18-.46.85-.84,1.18-2.42,2.12-6.18,3.67-8.71,5.73-28.53,23.16-59.71,84.47-22.64,112.66,1.73,1.32,7.68,3.94,7.69,5.83-2.54,6.82-2.42,14.71-6.22,20.86-20.22,2.36-40.09,6.76-59.38,13.13V3.23ZM3.43,558.65h.01c18.16-4.74,36.75-10.75,55.57-12.48,1.01-.09,3.33-.59,2.96.98l-10.55,52.25-47.99,8.55v-49.3ZM591.2,838H3.43v-226.43l1.11-.84c15.31-3.16,30.61-6.58,46.21-8.02l-11.17,60.45c3.63,2.27,6.65,4.9,10.59,6.84,10.98,5.4,24.04,7.76,35.82,10.89-1.64,5.92-2.02,13.89-4.31,19.44-1.63,3.96-6.03,7.18-8.07,10.34-1.52,2.34-1.15,5.06-1.99,7.21-1.31,3.36-4.97,5.65-4.3,10.51,1.06,7.7,18.37,16.26,25.07,19.02,16.52,6.79,34.51,7.99,51.85,3.62,8.05-2.03,19.3-6.09,19.53-15.97.07-2.7-3.04-12.49-4.2-15.38-3.92-9.73-21.82-18.64-31.89-20.38l2.41-13.83,43.62-1.29c.49.49-.39,12.28-.8,14-.41,1.72-2.59,4.5-3.35,7.17-.54,1.9-.24,4.02-.89,5.63-.32.79-2.94,2.59-3.87,4.72-3.72,8.55,6.34,12.84,12.86,15.46,16.21,6.51,42.86,13.18,60.07,10.78,11.42-1.6,31.53-8.72,22.97-24.07-1.45-2.59-2.24-3.96-3.67-6.9-3.99-8.21-20.1-15.4-28.61-18.07-3.38-1.06-8.01-1.32-10.88-2.27-2.08-.69-.54-9.01-1.79-11.38,0-.59.24-.97.69-1.34,1-.83,13.08-3.6,15.77-4.6,6.15-2.29,11.11-4.65,15.52-9.46.67-.73,1.83-.46,1.58-1.36l-1.32-.43-1.31-23.56-3.19-33.44.52-.79c31.34.1,62.9,4.51,93.36,11.92,8.5,7,16.59,15.38,25.37,21.97,7.44,5.59,18.77,11.01,25.35,16.73,2.54,2.21,5.82,8.23,8.47,11.26,37.03,42.4,131.72,73.89,187.11,71.96,2.43-.08,4.93-1.16,7.53-.68v100.57ZM557.72,669.39c2.28,2.03,8.13,5.73,10.94,7.47,7.03,4.33,15.27,7.97,22.55,11.96v18.4c-7.52-3.54-14.92-7.6-22.14-11.72-62.89-35.91-118.43-82.72-180.4-120.03-25.65-15.44-52.5-28.81-79.1-42.52-2.8-4.19-5.41-8.22-6.99-13.06h10.19c.29,0,4.91-1.44,5.52-1.71,5.36-2.41,7.49-9.01,3.01-13.4l-10.18-5.92c6.38-1.15,14.22-1.46,19.95,2.06,2.87,1.76,3.62,4.73,7.97,5.18,5.08.52,7-1.59,9.96-5.19,12.08,5.35,23.44,12.36,35.06,18.67,61.42,33.36,118.06,71.99,173.76,114.18l33.37,21.85v30.56l.02.02c-6.8-4.48-14.38-7.69-21.39-11.81-3.52-2.07-8.45-6.57-11.97-7.75-2.63-.88-1.49,1.55-.13,2.76ZM520.29,563.45c-2.81-5.91-22.74-19.19-29.11-22.82-1.99-1.14-9-5.36-7.73-1.14,9.96,5.67,19.81,11.71,28.51,19.15,2.15,1.83,3.55,1.68,5.48,5.04,9.05,15.71-13.01,11.74-20.47,6.66l-56.3-37.11c-.7-1.11-.08-4.27.05-5.72,1.04-12.08,4.26-24.56,7.18-36.19.71-2.82,1.58-6.72,2.52-9.33.25-.69-.33-1.16.98-.84,2.44,1.65,5.32,2.56,7.84,4,18.49,10.58,38.23,23.52,56.17,35.21,25.94,16.91,51.17,34.95,75.78,53.73v49.63h0c-13.82-8.21-27.46-16.63-40.1-26.63l-1.96.66c-.06,1.56,7.69,7.15,9.37,8.37,10.48,7.63,22.12,13.69,32.69,21.21v23.99c-35.05-20.46-66.32-46.61-99.63-69.65-16.92-11.7-34.45-22.49-51.59-33.87v-10.85c2.19.68,4.69,2.3,6.66,3.53,15.62,9.74,37.91,28.4,53.83,34.92,10.3,4.22,27.15,3.39,19.84-11.95ZM591.19,301.32v31.88l-46.01-25.31,19.48-21.29,26.53,14.72ZM568.15,282.88c2.32-3.52,10.55-8.25,13.15-12.49l9.89-7.53v34.84h0l-23.69-12.84c-.15-.85.22-1.33.65-1.98ZM591.19,337.47v30.56h0c-11.31-8.18-22.61-17.52-35.83-22.34l-1,1.65c13.18,6.26,24.51,15.61,36.83,23.33v24.98l-75.6-47.04,27.37-37.81,48.23,26.67ZM562.35,380.1c9.82,6.22,19.78,12.58,28.84,19.81v24.65-.02c-5.79-3.52-12.6-9.15-18.62-11.95-4.06-1.89-5.16-.18-1.72,2.37,4.05,3,9.85,5.59,13.99,8.36,2.18,1.46,4.16,3.36,6.35,4.83v18.08c-3-1.05-6.35-2.78-9.12-4.35-9.25-5.24-20.41-13.2-28.04-20.58-8.61-8.31-14.34-18.47-24.42-25.56-3.16-2.22-8.96-6.41-12.72-5.69,2.03,3.35,7.32,5,10.48,7.27,11.73,8.42,18.63,21.12,29.32,30.5,9.59,8.41,22.83,16.07,34.5,21.05v37.47l-113.08-75.23c-.08-1.94,1.55-2.08,2.15-3.16,7.79-13.95,14.3-26.17,22.8-39.76,2.09-3.35,7.23-13.93,9.56-15.93,1-.85,1.74-.96,2.93-.32,15.4,9.69,31.43,18.42,46.8,28.16ZM538.02,453.07c12.45,8.18,25.55,16.81,37.61,25.5,5.3,3.82,10.8,7.62,15.56,12.05v36.48h-.01s-9.14-4.99-9.14-4.99c-10.67-8.04-24.35-14.16-34.58-22.61-11.83-9.78-17.72-23.96-32.76-30.35-.66-.28-4.76-2.4-4.39-.21.36,2.2,3.25,2.08,4.84,3.05,14.59,8.91,19.98,20.9,32.69,31.08,6.02,4.81,13.82,9.6,20.39,13.79,7.52,4.79,15.55,8.86,22.96,13.85v39.11c-16.97-12-33.49-24.71-50.68-36.42-28.47-19.38-58-37.48-87.63-55.02-.66-.34-1.04-.74-1.06-1.52-.02-.74,3.04-10.72,3.58-12.26.82-2.33,2.54-5.83,3.63-8.83,5.16-14.22,11.06-27.39,17.43-41.07,20.61,12.63,41.36,25.09,61.56,38.37ZM591.22,235.25c-2.95,1.18-5.47,3.06-8.25,4.57-.77.41-1.74.39-1.63,1.66-.03,4.34,8.28-2.86,9.88-2.95v20.05c-2,1.93-4.13,3.81-6.25,5.59-19.12,16.06-31.62,29.28-47.12,48.86-41.86,52.86-77.42,114.04-93.85,179.74-4.21,16.84-6.45,35.39-6.64,52.72l-42.8-24.64,3.39-20.89c16.5-75.3,52.52-145.96,103.2-204.56l7.22-6.9-4.75,12.69c-8.27,16.84-23.19,29.58-29.25,47.63-2.71,8.05-3.74,16.86-7.98,24.24-.47,1.68,2.1.91,2.86.23,2.31-2.05,7.22-23.2,9.34-28.1,9.1-21.02,30.49-37.49,33.68-62.31.67-.66,1.65-.94,2.27-1.67,19.01-22.21,42.08-41.78,64.89-60.01l11.76-7.63h.03s0,21.68,0,21.68Z"/>
  <rect x=".14" y="841.29" width="595" height=".66" fill="#fff"/>
  <path d="M591.19,3.23v184.04c-3.77.48-12.22,7.09-15.29,6.48-3.93-1.96-8.33-4.44-12.32-6.15-7.75-3.33-16.33-7.05-24.15-10.04-1.34-.51-2.67-.9-4.13-.81,2.47-2.21,6.29-2.99,8.56-5.57,4.99-5.69,2.03-13.6-3.36-17.7-12.22-9.29-31.88,2.49-44.26,6.85l-36.1-11.16c-1.15-5.14-3.29-7.65-7.89-10.01-1.42-.73-5.43-1.43-6.05-2.5-.67-1.16-.33-4.8-1.04-6.72-6.25-17.06-27.2-26.84-44.79-23.35-3.33.66-9.16,1.93-8.26,6.55.84,4.34,10.26,4.3,13.82,5.29,3.07.85,7.39,2.49,5.46,6.4-.25.51-8.22,6.38-9.07,6.71-5.65,2.16-19.46-3.47-26.12-2.77-.04-1.18-.04-2.36.08-3.54,1.55-14.56,8.11-35.7,7.83-49.34-.11-5.14-1.44-7.15-5.95-9.23-16.75-7.71-64.92-9.53-80.65.19-.85.53-3.31,2.17-3.79,2.79-3.31,4.31-.54,15.41.29,20.68.34,2.17-1.01,4.36,1.29,5.4l4.64,32.39c-3.06-.81-16.74,2.03-18.12.04l-1.63-24.01c-.89-5.56,2.96-10.86-2.66-14.43-9-5.72-32.98-4.54-41.96,1.31-4.8,3.12-1.74,6.51-1.33,10.43l-.98,32.61c-10.94,1.63-21.91,3.55-32.43,7.01-1.75.58-7.3,2.06-8.32,2.85-1.23.95-.78,1.88-1.28,3.02-.09.22-.94.24-1.05.68-.92,3.87-.97,15.34-.71,19.61.41,6.9,4.67,8.31,10.68,10.36,1.94.66,6.14.36,6.49,2.77l-9.3,55.47c-6.27-1.33-12.4-3.48-18.77-4.45-35.32-5.38-83.64,3.98-104.1,35.9-.91,1.42-1.43,4.5-2.15,5.27-1.11,1.17-8.21,3.8-10.4,5.7-8.16,7.12-10.43,26.57-4.09,35.55-1.19,1.75-2.81,3.29-3.9,5.11-4.48,7.5-6.42,17.73-2.44,26.25.83,1.78,6.1,7.17,6.41,8.21.54,1.81-.76,6.25-.53,9.06.57,6.95,4.58,14.34,11.17,17.09,2.55,1.07,6.33.52,7.91,1.3,1.48.73,2.61,6.68,7.04,8.73,1.82.84,4.5.82,6.06,1.83.61.39,3.9,4.57,4.01,5.24.19,1.17-.46.85-.84,1.18-2.42,2.11-6.18,3.67-8.71,5.73-28.54,23.15-59.72,84.46-22.64,112.66,1.73,1.32,7.68,3.93,7.69,5.83-2.54,6.82-2.42,14.71-6.22,20.86-20.23,2.37-40.09,6.76-59.38,13.13V3.23h587.77-.04ZM65.23,87.37h-9.53c-2.53,0-8.51,3.44-10.53,5.24-17.96,16.05-4.71,37.26,16.53,39.37,8.39.83,17.85-2.15,24.24-7.64,3.86,2.46,6.69,5.88,10.87,8.04,18.73,9.64,47.33,7.29,62.87-7.48,7.45,5.44,16.17,8.11,25.39,6.35,8.15-1.56,18.97-7.72,21.33-16.14,4.37-15.59-10.33-26.39-24.79-23.14.9-11.83-10.84-21.89-22.03-23-7.69-.76-13.22,1.7-20.04,4.6-.81-15.96-16.71-28.37-31.9-29.57-24.81-1.95-46.61,17.96-42.4,43.37h-.01ZM502.05,72.64c-3.22-6.01-4.15-11.59-8.73-1.95-1.17,2.46-1.43,5.33-3.56,6.98l-5.17,12.88c-6.54.96-14.03,1-20.46,2.23-2.1.4-4.49.91-5.72,2.87-.47,2.76,17.32,13.12,19.61,15.8l-5.84,25.2,4.57-.36,20.74-12.57,22.49,14.17c.94.31,2.11-.4,2.53-1.26.8-1.67-4.93-22.12-4.86-25.81.48-2.02,13.97-10.91,16.7-13.57.93-.91,2.91-2.88,2.94-4.3-.88-2.85-23.98-2.9-27.66-3.27-.93-.63-5.39-13.84-6.6-16.27-.26-.52-.9-.62-.99-.78h0Z" fill="#fff"/>
  <path d="M3.43,611.56l1.12-.85c15.31-3.16,30.61-6.58,46.21-8.02l-11.17,60.45c3.63,2.28,6.65,4.9,10.59,6.84,10.98,5.4,24.04,7.76,35.82,10.89-1.64,5.92-2.02,13.89-4.31,19.44-1.63,3.96-6.03,7.17-8.07,10.34-1.51,2.35-1.15,5.07-1.99,7.21-1.31,3.36-4.97,5.66-4.3,10.51,1.06,7.7,18.37,16.27,25.07,19.02,16.52,6.79,34.51,7.99,51.85,3.62,8.05-2.03,19.3-6.09,19.53-15.97.06-2.69-3.04-12.49-4.2-15.38-3.92-9.73-21.81-18.65-31.89-20.38l2.41-13.83,43.62-1.29c.5.49-.39,12.29-.8,14s-2.59,4.5-3.35,7.17c-.54,1.9-.24,4.02-.89,5.63-.32.79-2.94,2.59-3.87,4.72-3.72,8.56,6.34,12.84,12.86,15.46,16.2,6.51,42.86,13.18,60.07,10.78,11.42-1.59,31.53-8.72,22.97-24.07-1.45-2.59-2.24-3.96-3.67-6.9-3.99-8.2-20.1-15.4-28.61-18.07-3.38-1.06-8.01-1.31-10.88-2.27-2.08-.69-.54-9.01-1.79-11.38,0-.59.24-.97.69-1.34,1-.83,13.08-3.6,15.77-4.6,6.15-2.3,11.12-4.65,15.52-9.46.67-.73,1.83-.45,1.58-1.36l-1.32-.43-1.31-23.56-3.19-33.44.52-.79c31.34.1,62.89,4.51,93.36,11.92,8.5,7,16.58,15.38,25.37,21.97,7.44,5.58,18.77,11,25.35,16.73,2.54,2.21,5.82,8.23,8.47,11.26,37.03,42.4,131.72,73.89,187.11,71.96,2.43-.08,4.93-1.17,7.53-.68v100.57H3.43v-226.44.02ZM304.54,653.3c-6.17-2.45-10.91,15.37-7.55,16.42,3.48-.32,2.84-6.5,4.08-9.71,1.05-2.7,3.3-4.05,3.47-6.71h0ZM280.53,656.12l-1,.77c-1.87,2.43,4.26,4.47,5.93,6.6,1.8,2.29,1.79,4.98,3.01,6.85,1.91,2.95,3.17.72,2.87-2.18-.55-5.37-5.76-10.63-10.82-12.04h.01ZM309.36,666.66c1.25-1.26,5.71-2.75,5.73-4.48-.25-2.89-3.9-.65-5.64.29-3.36,1.83-6.39,4.44-4.9,8.57,3.01.54,3.34-2.89,4.81-4.38ZM363.33,701.67c-.81-1.04-1.51-2.19-2.59-3.01-3.74,1.08.51,5.62,1.34,8.53.78,2.75,1.01,5.61,1.07,8.45l2.15.72c3.28-4,.79-11.17-1.96-14.69h-.01ZM375.93,712.85c1.53-2.27,2.77-4.14,4.86-6,.95-.85,5.53-2.46,3.31-3.94-2.06-1.38-8.52,3.7-9.88,5.26-1.55,1.78-5.86,10.24-.66,9.54.02-2.39,1.42-3.45,2.37-4.86h0ZM355.82,717.71c1.49-5.87-4.75-12.39-10.52-12.83-2.18,2.6,1.72,3.18,3.32,4.59,2.1,1.86,3.34,4.74,4.98,6.82.63.79.93,1.69,2.22,1.42h0ZM456,770.73c-1.32-4.29-1.85-7.63-4.87-11.26-1.25-1.5-5.2-5.46-7.25-4l-.66,2.01c.2,1.85,2.62,1.45,4.36,2.92,3.95,3.33,5.16,11.66,6.3,16.38l3.2.09c-.21-1.69.34-3.89-.02-5.46-.11-.45-.99-.5-1.05-.69h-.01ZM467.15,770.5c.29-.45,3.4-3.56,4.06-4.15.92-.83,5.72-2.37,2.98-4.29-1.61-1.13-6.26,1.85-7.53,3.04-2.07,1.93-6.34,10.34-4.01,12.45.7.83.65.7,1.35.01,1.56-1.54,1.9-5.17,3.15-7.06ZM445.02,773.13c-.64-.94-4.83-5.03-5.9-5.6-1.93-1.04-3.46-1.46-5.72-1.18-.04,3.24,4.3,3.72,6.57,6.24,1.63,1.81,3.04,6.61,3.35,6.83.66.46,2.81.13,3.18-1.01s-.76-4.24-1.48-5.29h0ZM481.9,770.48c-3.56.52-7.98,3.83-9.05,7.37,2.33,2.8,4.06-1.35,5.98-2.56,2.25-1.41,5.68-1.48,7.51-3.67.8-1.83-3.52-1.27-4.44-1.14h0ZM272.12,782.33c-.31-.38-5.53-4.81-5.89-4.96-2.69-1.16-4.28.4-2.03,2.69,1.9,1.94,3.55,2.58,5.12,5.4s.89,6.26,4.97,5.87c.33-2.91-.27-6.69-2.17-9h0ZM292.7,777.53c-4.76-2.15-16.33,9.73-14.15,13.16,1.73,2.72,2.92-1.37,3.4-1.92,1.51-1.73,3.02-3.86,4.49-5.34,2.42-2.42,6.32-2.75,6.26-5.89h0ZM75.5,791.1c1.97-3.2,2.81-5.65,6.52-7.63l-.69-2c-4.51.61-12.54,9.65-9.87,13.83,1.8,2.82,2.5-2.66,2.78-3.16.42-.76,1.13-.83,1.26-1.05h0ZM64.3,792.9c.67,1.02.96,2.22,1.92,3.03,2.63-.28,1.25-3.45.63-5.24-1.5-4.33-5.42-7.76-10.17-7.25-.87.75,4.8,4.94,5.56,5.94.64.85,1.26,2.33,2.05,3.52h.01Z" fill="#fff"/>
  <path d="M224.33,515.27c-.07.6-.08,1.16.25,1.7,4.69,7.7,9.11,43.93,10.85,55.24,4.19,27.22,8.27,57.73,9.94,86.02.09,1.57.18,3.25-.14,4.79-10.54,6.96-23.56,10.45-35.89,13.08-40.21,8.57-95.12,8.73-135.04-1.3-7.72-1.94-19.3-5.39-25.96-9.54-1.82-1.13-4.69-2.66-4.17-5.02,2.7-15.02,4.62-30.21,7.31-45.23,3.53-19.69,8.41-41.92,13.05-61.48,2.38-10.04,4.33-20.19,7.26-30.1,1.01-.8,11.19,4.55,13.19,5.28,3.63,1.34,8.74,3,12.47,3.96,4.42,1.15,17.49,4.29,21.38,4.27,3.26-.01,5.92-2.3,7.82-4.66,2.1-2.62,3.08-7.78,6.96-7.17.02,1-1.18.75-1.89,1.71-5.89,8-4.51,15.91,5.47,18.69,12.7,3.54,14.06-3.91,18.09-13.54,5.95.05,12.55-3.56,13.9-9.44,18.53.2,37.81-.37,55.16-7.3v.04Z" fill="#fff"/>
  <path d="M248.27,279.03c4.42,7.1,5.23,12.27,3.48,20.78-.99,4.8-2.86,8.81-6.03,12.37-.99,1.11-4,4.36-5.27,4.59-1.37.14-.86-.08-.99-.99-.63-4.53-.75-9.2-2.04-13.62-.14-.49-1.02-.53-1.19-1.04-1.35-4.04-4.97-16.93-9.75-17.78-2.36-.42-6.23,2.1-9.12,2.45-9.37,1.14-18.37-.57-26.71-4.7-2.13-1.06-3.57-3.68-6.42-3.12,2.28,12.19-12.41,11.51-20.37,8.86-3.84-1.28-11.45-5.8-14.49-8.52-1.65-1.48-4.91-6.52-6.81-6.16-1.44.27-3.5,7.37-5.02,9.44-3.45,4.7-12.94,9.39-18.74,9.39-5.04,0-8.86-3.12-13.48-3.8.08,5.81,1.08,11.6.68,17.45-.77,11.17-4.78,21.76-3.96,33.49,1.43,20.66,16.49,32.47,37.06,29.83,8.41-1.08,13.4-5.76,20.8-8.12,8.27-2.64,8.71,2.3,15.91,4.44,8.27,2.46,18.84,2.81,24.49-4.81.78-1.06.71-2.54,1.16-3.11,1.83-2.36,13.53,5.77,16.3,6.74,12.23,4.28,21.91-3.62,23-15.74,1.28-1.92,4.28,5.56,4.63,6.53,3,8.18,4.65,21.13-1.33,28.3-1.1,1.32-3.71,2.36-4.28,3.61-.88,1.92-.09,5.21-.39,7.49-.63,4.77-8.07,17.39-12.92,18.63-2.6.66-5.95-.21-8.65.23-.42,4.03-3.03,7-5.74,9.74-13.27-5.53-26.94-13.21-41.91-11.7-11.59,1.17-17.34,7.62-20.56,18.37-7.01.35-8.03-4.83-10.51-9.96-6.37,2.09-8.32,3.46-15.05,1.39-7.55-2.33-10.01-6.81-14.78-12.34l-4.02-10.6c-17.62.53-15.83-21.38-16.64-33.64l-.78-.58c-2.64.47-4.88.54-7.47-.38-14.73-5.26-19.64-35.11-.98-36.49,3.58-.27,7.16,1.73,9.02,4.78.36.6,3.79,12.56,5.07,7.33.25-1.04-2.28-8.72-2.99-10.06-4.3-7.99-18.01-6.37-22.9.63-2.43,3.48-2.05,5.79-3.05,9.33-.15.55-1.11.47-1.25.95-.19.69,1.14,5,1.46,6.27,3.05,12.11,7.17,19.6,20.6,21.51-.06,4.4-.21,11.12.96,15.34.15.55,1.15.43,1.27.92.33,1.45-.4,3.27.67,4.8-6.13,0-8.19-5.1-8.57-10.49-14.92,3.66-22.52-11.91-17.98-24.69-12.13-10.4-10.02-27.38-.37-38.79-2.1-4.1-4.44-8.37-4.65-13.14-.23-5.37,2.96-14.99,6.65-18.96,3.01-3.24,10.81-6.1,12.23-7.81.85-1.02,2.25-5.41,3.46-7.39,8.85-14.53,31.93-25.63,48.01-29.57,32.75-8.02,74.7-4.35,98.89,21.44,1.65,1.76,4.62,6.88,5.95,7.85s4.86,1.53,6.72,2.48c4.39,2.25,7.17,6.3,9.69,10.36h0ZM167.37,374.36c-.83-.63-.76-2.32-3.13-1.76-2.75.64,1.21,5.37,2.22,6.3,7.8,7.14,23.63,8.03,31.17.24,1.02-1.05,5.2-6.72,1.49-6.42-1.6.13-5.55,5.14-8.16,6.32-10.84,4.9-15.44,1.58-23.59-4.68h0Z" fill="#fff"/>
  <path d="M591.19,686.17c-6.8-4.48-14.38-7.69-21.39-11.81-3.52-2.07-8.46-6.58-11.97-7.75-2.63-.88-1.49,1.55-.13,2.76,2.28,2.03,8.12,5.74,10.94,7.47,7.03,4.34,15.27,7.97,22.55,11.96v18.4c-7.52-3.54-14.92-7.6-22.14-11.72-62.89-35.91-118.43-82.72-180.4-120.03-25.65-15.44-52.5-28.81-79.1-42.52-2.8-4.19-5.41-8.22-6.99-13.06h10.19c.29,0,4.92-1.44,5.52-1.71,5.37-2.41,7.49-9.01,3.01-13.4l-10.18-5.92c6.39-1.15,14.22-1.46,19.95,2.06,2.88,1.76,3.62,4.73,7.97,5.18,5.08.53,7-1.59,9.96-5.19,12.08,5.35,23.44,12.36,35.06,18.67,61.43,33.35,118.06,71.98,173.76,114.18l33.37,21.85v30.56l.02.02ZM545.83,651.34c-12.36-3.44-23.48-10.38-33.85-17.76-13.67-9.74-26.21-23.36-40.89-31.42-12.47-6.85-26.41-11.47-38.93-18.26-21.4-11.62-34.76-30.81-55.1-43.51-13.48-8.42-28.92-15.8-43.59-21.82-1.03.96,4.24,3.76,4.81,4.06,11.17,6.01,22.9,10.88,33.78,17.49,21.39,13,35.39,32.8,57.39,45.17,17.61,9.9,37.26,15.73,53.58,27.94,16.59,12.41,32.69,29.01,52.3,37.11,2.31.95,10.43,4.87,10.51,1h-.01ZM432.55,564.7c-1.47.43-2.8,2.85-2.98,4.31-1.08,8.81,16.01,10.89,13.55-.03-.89-3.97-7.16-5.27-10.57-4.28h0Z" fill="#fff"/>
  <path d="M591.19,213.57v21.69c-2.94,1.18-5.46,3.06-8.25,4.57-.77.42-1.74.4-1.63,1.66-.04,4.34,8.28-2.86,9.88-2.95v20.05c-2,1.93-4.12,3.8-6.25,5.59-19.12,16.06-31.62,29.28-47.12,48.86-41.85,52.86-77.42,114.05-93.85,179.74-4.21,16.84-6.45,35.39-6.64,52.72l-42.8-24.64,3.39-20.89c16.49-75.3,52.52-145.96,103.2-204.56l7.22-6.9-4.75,12.69c-8.27,16.84-23.19,29.58-29.25,47.63-2.7,8.05-3.74,16.86-7.98,24.24-.47,1.68,2.1.91,2.86.23,2.31-2.05,7.22-23.2,9.34-28.1,9.1-21.02,30.49-37.5,33.68-62.31.68-.66,1.65-.95,2.27-1.67,19.01-22.2,42.08-41.78,64.89-60.01l11.76-7.63h.03ZM577.38,237.89c-1.32-.28-1.76.29-2.66.95-8.81,6.51-17.18,15.92-25.3,23.35-1.47,1.8-14.95,10.59-14.77,11.51.36,1.88,4.7-.66,5.46-1.1,12.9-7.47,24.56-22.69,36.32-32.05l.95-2.66h0ZM529.9,298.51c-.53-.54-3.9-1.48-4.8-1.5-7.59-.24-9.01,12.34-.57,13.18,5.34.53,8.56-8.46,5.37-11.67h0ZM455.96,399.37c9.25,8.27,17.26-12.2,4.07-10.99-6.08.56-7.74,7.71-4.07,10.99ZM444.96,436.78c.85-1.38,4.3-6.53-.23-4.54-1.93.85-8.35,17.24-9.39,20.23-2.85,8.22-5.05,16.81-5.89,25.67-1.23,13.03.2,26.24-2.63,39.1l1.98-.44c.36-2.18.9-4.36,1.22-6.55,1.7-11.75.91-23.81,3.36-34.87,3.21-14.49,3.32-25.28,11.57-38.6h.01ZM421.21,503.81c-2.49-3.7-6.21-5.25-9.53-1.39-1.25,1.45-.73,3.33-2.61,4v1.24c2.78,3.2,5.37,8.19,10.22,4.33,2.46-1.95,3.61-4.27,2.92-7.44-.11-.51-.85-.52-1-.74h0Z" fill="#fff"/>
  <path d="M591.19,190.56v19.72c-3.08,1.67-6.86,3.77-9.69,5.75-32.8,22.99-66.43,57.7-91.82,88.31-43.57,52.52-73.51,114.7-91.75,179.86l-6.27,34.37c-.76,1.25-4.78-1.24-6.04-1.88-8.79-4.44-17.06-10-26.12-13.98l-1.08-1.57,4.66-31.4c18.37-89.29,63.91-166.09,135.75-222.63,28.46-22.4,59.36-41.55,92.35-56.55h.01ZM456.8,315.84c3.01-4.73,6-9.45,9.48-13.86,1.99-2.33,18.34-15.84,18.39-17.1.01-.31-1.37-1.55-1.97-.67l-16.43,14.47c-14.55,13.95-20.1,33.6-30.11,50.09-10.91,17.98-19.33,29.94-27.05,50-.42,1.08-2.36,8.29-2.01,8.7.87.21,2.92-1.97,3.23-2.5,4.02-7.05,6.27-19.49,10.38-27.57,5.25-10.33,13.23-20.06,19.13-30.2,6-10.3,10.56-21.3,16.95-31.36h0ZM398.99,423.69c.94-2.04,1.51-4.92-1.71-4.37-3.51,8.08-6.69,16.3-9.94,24.44-7.11,17.83-5.77,33.49-11.2,49.94-.23.7-3.43,2.7-.91,4.46,3.22.84,4.79-8.7,5.27-11.15.91-4.66.91-9.42,1.71-14.06,3.37-19.51,8.67-31.76,16.78-49.27h0Z" fill="#fff"/>
  <path d="M433.4,307.57l-11.17,15.91c-4.87,4.82-7.93,11.64-11.63,17.44l-15.76,25.74-1.56-.22c-45.16-23.33-92.78-41.47-139.75-60.83,1.96-7.79,2.8-15.94.05-23.67-3.07-8.65-4.5-7.28-2.75-17.91.15-.91.15-3.56,1.42-3.12,22.43,7.88,46.25,12.24,67.45,23.29,10.15,5.29,19.33,12.71,29.97,17.37,8.97,3.93,18.76,6.28,27.66,10.47,1.81.85,8.93,6.31,10.06,4.72,1.19-1.68-3.94-4.2-5.25-4.93-10.29-5.76-21.37-8.2-31.8-12.9s-19.97-12.29-30.22-17.77c-21.22-11.33-45.53-15.77-68.16-23.57l3.95-23.64c1.11-.15,2.11.17,3.16.45,11.1,2.98,25.21,8.88,36.27,13.04,23.95,9,48.79,18.88,72.31,28.93s44.2,20.13,65.77,31.21h-.02ZM312.9,306.06c7.36-7.4-11.66-15.97-17.41-16.73-12.47-1.66-16.95,10.01-5.42,15.27,4.45,2.03,19.32,4.98,22.82,1.46h.01Z" fill="#fff"/>
  <path d="M591.19,623.72c-13.83-8.22-27.47-16.63-40.1-26.63l-1.96.66c-.06,1.56,7.69,7.15,9.37,8.37,10.48,7.64,22.13,13.69,32.69,21.21v23.99c-35.05-20.46-66.32-46.61-99.63-69.65-16.92-11.71-34.45-22.49-51.59-33.87v-10.85c2.19.68,4.69,2.3,6.66,3.53,15.62,9.74,37.91,28.4,53.83,34.92,10.3,4.22,27.15,3.39,19.84-11.95-2.82-5.91-22.74-19.19-29.11-22.82-1.99-1.14-9-5.36-7.73-1.14,9.96,5.67,19.81,11.71,28.51,19.15,2.14,1.83,3.54,1.68,5.48,5.04,9.05,15.71-13.01,11.74-20.47,6.66l-56.3-37.11c-.69-1.11-.07-4.28.05-5.72,1.05-12.08,4.27-24.56,7.18-36.19.71-2.82,1.57-6.72,2.52-9.33.25-.69-.33-1.16.98-.84,2.44,1.66,5.32,2.56,7.84,4,18.49,10.58,38.23,23.52,56.17,35.21,25.94,16.91,51.16,34.95,75.78,53.73v49.63h-.01Z" fill="#fff"/>
  <path d="M301.25,131.4c-2.87,13.65,18.48,15.89,27.91,16.46s37.03-1.08,43.1-8.24c2.55-3.01,1.1-5.69,3.04-8.17l19.96,2.58c.32,1.54-.2,1.06-.85,1.47-9.05,5.81-23.64,9.55-33.79,14.18-7.52,3.44-16.58,6.58-13.21,16.73,2.63,7.91,11.36,10.17,18.71,7.18,13.56-5.52,29-17.58,42.36-24.69,4.66-2.48,10.38-6.34,15.51-3.83,4.47,2.19,1.66,5.26,2.32,9.51,1.47,9.37,10.85,13.9,19.56,11.33,6.2-1.83,12.12-7.51,14.18-13.5l31.18,9.23c.26,1.68-.14,1.02-.93,1.38-11.32,5.05-23.22,8.85-33.75,15.62-5.87-2.56-11.74-6.03-18.34-6.42-9.36-.55-22.24,6.08-29.49,11.77-6.85,5.38-.56,5.15,3.61,6.91,12.26,5.18,24.54,10.99,36.61,16.64,6.14,2.87,14.71,9.54,21.42,8.5,2.33-.36,7.83-2.44,10.49-3.31,6.62-2.16,21.46-5.81,14.23-15.17-2.85-3.69-8.02-3.5-11.08-6.02-.71-.59-.89-.74-.02-1.32,2.04-1.36,13.83-4.36,17.1-5.26,6.4-1.75,22.37-6.56,28.05-6.84,1.4-.07,2.58-.05,3.87.58,11.59,6.28,28.95,9.84,39.73,16.8.3.19.87.71.67.96-1.27.23-2.58.62-3.73,1.21-25.8,13.16-49.82,29.42-72.89,46.82-18.74-8.98-37.25-18.31-56.39-26.44-77.09-32.75-158.96-53.76-240.41-72.85-.2-1.73.03-1.04.96-1.32,10.62-3.18,21.48-5.71,32.57-6.57-1.2,8.53,14.42,10.91,20.68,11.21,6.26.3,26.95-1.56,28-9.52.31-2.31-.29-5.19-.03-7.59h19.09Z" fill="#fff"/>
  <path d="M591.19,527.1l-9.14-5c-10.67-8.04-24.36-14.16-34.58-22.61-11.84-9.77-17.72-23.96-32.76-30.35-.67-.28-4.76-2.4-4.39-.21.35,2.2,3.25,2.08,4.84,3.05,14.59,8.91,19.98,20.9,32.69,31.08,6.02,4.82,13.82,9.6,20.39,13.79,7.52,4.8,15.55,8.87,22.96,13.85v39.11c-16.97-12-33.49-24.72-50.68-36.42-28.48-19.39-58-37.49-87.63-55.02-.65-.34-1.03-.74-1.06-1.52-.02-.73,3.04-10.72,3.58-12.26.82-2.34,2.54-5.83,3.63-8.83,5.16-14.21,11.06-27.39,17.43-41.07,20.61,12.63,41.36,25.09,61.56,38.37,12.45,8.18,25.55,16.81,37.61,25.5,5.3,3.82,10.8,7.62,15.56,12.05v36.48h-.01Z" fill="#fff"/>
  <path d="M456.84,281.04c-4.12,4.31-9.28,8.96-13.18,13.45-3.05,3.51-5.42,7.59-8.61,10.99-22.4-11.92-45.37-23.06-68.72-33.08-35.56-15.25-71.99-28.94-108.7-41.2-.77-.26-1-.54-.98-1.37.08-2.34,1.75-8.77,2.45-11.37.29-1.08,1.18-.94,1.32-1.45,2.08-7.67,3.7-15.52,5.99-23.14,9.69,1.72,19.37,4.3,28.91,6.88,59.77,16.18,118.46,38.72,173.25,67.36,1.04,1.33-1.76,2.42-2.66,3.28-3.22,3.07-6.03,6.46-9.09,9.65h.02ZM397.24,259.57c.14-1.48-1.37-2.45-2.41-3.17-15.71-11-30.75-7.68-47.58-10.93-11.02-2.13-21.3-8.57-31.68-11.06-3.9-.93-2.7,1.43.36,2.94,6.28,3.1,16.05,6.74,22.8,8.75,14.71,4.38,29.05,2.27,43.18,7.44,2.47.91,13.83,7.29,15.33,6.03h0Z" fill="#fff"/>
  <path d="M103.33,400.27c.04,2.21.99,4.36,1.89,6.32,4.24,9.22,14.63,18.62,25.41,17.96,2.19-.13,4.29-1.17,6.5-1.24,3.1,5.34,5.75,8.28,12.17,9.22.5,2.06-.69,5.2.74,6.82,1.6,1.82,16.39,5.21,19.73,6.24.84,3.21-1.89,3.81-2.83,5.44-3.5,6.06-5.91,13.76-9.11,20.08-5.22.39-10.58-.51-15.67,1.1-2.12.67-5.51,3.41-7.43,3.42s-20.81-4.22-21.42-5.15l3.21-27.86-.68-2.94-2.3.64-3.15,28.1-1.51,1.48c-1.33-.26-11.99-3.56-12.08-.97l1.61,1.7,31.25,7.51c-2.44,3.28-4.97,6.42-7.34,9.77-.49.7-1.48.95-1.87,1.56-7.38,11.37-9.37,30.59-5.91,43.54-14.83-2.35-30.77-6.86-43.85-14.33-11.89-6.79-21.4-17.93-22.54-32.02-2.78-34.17,19.78-69.77,47.97-87.46l7.22,1.07h-.01Z" fill="#fff"/>
  <path d="M393.96,369.36l-12.82,27.59c-8.91-4.84-18.13-9.85-27.49-13.92-20.26-8.81-41.13-12.34-60.63-23.52-.91-.52-7.95-6.55-8.18-3.64s16.87,10.93,19.92,12.28c12.5,5.54,25.21,8.08,37.72,12.9s24.9,12.44,37.57,17.97l-10.75,31.44c-37.8-22.11-78.07-39.58-117.41-58.76-1.32-5.76.04-12.61-2.63-18.27-.37-.78-2.81-2.22-2.54-4.17l-1.25-32.67c2.49-2.79,5.02-4.41,6.46-8.09l90.53,37.06,51.48,23.8h.02Z" fill="#fff"/>
  <path d="M187.52,282.58c7.71,4.62,16.93,6.97,25.95,6.56,4.26-.19,8.21-1.98,12.38-2.55,5.59,6.14,8.24,15.24,9.57,23.34,1.83,11.16,3.86,24.95,2.62,36.65-.23,2.2-3.3,9.2-4.82,10.95-8.57,9.81-20.05-1.8-28.9-4.67l-.9-1.07c-1.02-5.7-8.72-18.03-15.59-17.29-1.55,3.57,3.31,4.52,5.52,6.31,5.33,4.32,8.07,14.29,1.99,18.97-6.69,5.15-18.19,3.12-24.64-1.61-.64-.47-.75-1.81-1.43-1.98-1.14-.28-6.33-.15-7.76.01-5.42.62-10.89,5.18-15.96,7.05-16.69,6.17-35.26-.96-39.16-18.98s4.58-34.76,2.86-52.48c10.35,4.15,24.54.33,31.17-8.61.97-1.31,2.42-5.18,2.71-5.23,2.58-.41,6.5,4.63,8.9,6.23,9.41,6.29,30.6,12.85,35.47-1.6h.02ZM206.4,307.05c-2.03.44-3.16,1.8-2.14,3.81.79,1.55,7.85,1.85,10.34,2.82,2.2.86,4.52,2.66,6.11,4.39,4.1-3.36,1.69-5.72-1.84-8.01-2.94-1.9-9.01-3.77-12.47-3.02h0ZM129.82,324.49c3.02,3.01,7.42-4.44,10.57-5.87,2.42-1.1,12.1-1.77,10.01-5.8-1.29-2.49-7.25-1.08-9.55-.31-2.92.99-14.75,8.27-11.03,11.98h0ZM201.12,333.92c-2.77.7-1.63,4.39-.36,6.08,3.01,3.99,10.45,5.26,15.04,4.06,5.41-1.41,8.47-10.14,3.59-9.59-1.66.19-2.05,3.63-4.33,4.92-2.58,1.46-6.39,1.51-8.83-.26-1.9-1.38-2.59-5.84-5.12-5.2h.01ZM159.81,336.58c-2.55-1.58-2.61,1.39-3.18,2.06-3.99,4.65-7.72,8.21-14.3,5.23-1.74-.79-5.13-6.28-7.12-3.47s3.47,6.56,5.82,7.4c5.81,2.08,12.17,1.05,16.6-3.4,1.32-1.32,4.24-6.54,2.18-7.82h0Z" fill="#fff"/>
  <path d="M591.19,424.56c-5.79-3.52-12.6-9.15-18.62-11.95-4.06-1.89-5.16-.17-1.72,2.37,4.05,3,9.85,5.59,13.99,8.36,2.18,1.45,4.16,3.36,6.35,4.83v18.08c-3.01-1.05-6.35-2.78-9.12-4.35-9.26-5.24-20.41-13.21-28.04-20.58-8.6-8.32-14.34-18.47-24.42-25.56-3.16-2.22-8.95-6.41-12.72-5.69,2.03,3.35,7.32,4.99,10.48,7.27,11.73,8.42,18.63,21.12,29.32,30.5,9.58,8.41,22.82,16.07,34.5,21.05v37.47l-113.08-75.23c-.08-1.94,1.55-2.08,2.15-3.16,7.8-13.95,14.3-26.17,22.8-39.76,2.1-3.35,7.23-13.93,9.56-15.93,1-.85,1.74-.96,2.93-.32,15.4,9.69,31.43,18.42,46.8,28.16,9.81,6.22,19.77,12.59,28.84,19.81v24.65-.02Z" fill="#fff"/>
  <path d="M493.89,246.44l-23.05,19.43c-71.02-38.61-149.01-62.26-227.3-81.69-10.87-2.7-22.08-4.38-32.91-7.2-3.49-.91-14.08-3.48-15.89-5.8-1.97-2.52-1.55-12.8-1.33-16.47.15-2.48,1.12-4.91.69-7.53,43.21,10.01,86.3,20.72,128.86,33.2,46.17,13.53,92.02,28.83,135.67,49.06,11.84,5.49,23.27,11.96,35.26,17.01h0Z" fill="#fff"/>
  <path d="M364.14,454.59c-2.18,9.26-4.65,19.09-6.15,28.99-.83,5.49-1.74,11.01-1.51,16.57l-4.97-1.97c1.15-19.54-17.54-26.06-34.17-25.01-4.19.27-13.97,3.54-16.34,3.31-1.66-.16-18.37-7.89-21.04-9.27-6.39-3.31-5.2-5.94-7.7-11.89-.21-.49-.98-.57-1.19-1.05-.28-.63-1.54-4.56-1.37-4.74l24.3,12.19c.86.66,3.33.21,3.3-.69-.05-1.65-26-12.72-28.93-15.76l-6.56-20.72,68.76,30.84,1.58-.93c-.79-1.95-12.54-6.03-15.12-7.24-18.65-8.7-37.13-17.82-55.89-26.29-1.71-3.41-2.76-6.84-3.74-10.72-2.86-11.28-4.53-23.43-6.11-34.97,37.52,16.19,73.84,34.88,109.76,54.25,2.21,1.19,8.05,2.45,7.81,5.05-.49,5.3-3.39,14.36-4.72,20.02v.03Z" fill="#fff"/>
  <path d="M444.19,643.85c9.96,28.43,29,54.41,53.7,72.17,4.04,2.9,8.89,4.65,12.44,8.26-6.81-1.93-13.67-3.93-20.35-6.26-13.57-4.75-30.31-10.82-41.76-19.38-31.49-23.56-50.47-67.52-55.48-105.57-.5-3.77-.92-7.59-.74-11.41,15.32,8.86,29.96,18.81,44.71,28.58.52.63.99,1.31,1.17,2.12,1.15,5.18,1.26,11.69,2.43,17.29.89,4.28,2.45,10.1,3.89,14.21h-.01ZM409.31,610.37c-.22-.73-1.05-9.77-2.86-7.68-.02,1.39-.08,2.79.08,4.19.84,7.66,5.1,18.03,8.35,25.17,2.08,4.56,7.19,13.84,12.12,15.48,11.78,3.91,8.19-11.99,6.34-18.04-.16-.51-1.07-.53-1.35-1.43-1.11-3.53-2.16-7.22-2.54-10.92-2.03-.08-2.13-.38-1.91,1.58.57,5.1,2.93,11.09,4.26,16.13.46,1.74,1.52,4.18,1.58,4.43.62,2.53-1.34,7.07-4.09,6.68-6.94-.97-13.53-16.74-15.62-22.57-1.47-4.1-3.23-9.31-4.36-13.04v.02ZM445.09,665.92c-.13-.23-4.05-3.01-4.42-3.13-1.53-.5-3.14-.48-4.67,0-2.59.83-4.46,5.23-3.89,7.78.06.28,3.56,3.67,4.1,3.91,4.01,1.73,5.95-.81,7.74-3.62.26-.4,1.04-.47,1.11-.64.35-.83.44-3.61.04-4.31h0Z" fill="#fff"/>
  <path d="M297.31,477.81c-1.43,2.22-3.83,3.29-5.59,5.24-4.63,5.12-11.53,18.13-13.28,24.85-1.49,5.72-2.1,12.01-2.83,17.88l-17.55-6.44c-5.88-2.83-25.65-14.99-28.77-19.88-1.92-3.02-.41-3.62-.37-6.22.18-10.31-.59-21.37-2-31.57,2.64-5.7,6.49-10.62,7.2-17.13s-.13-9.85-5.25-13.68c-2.1-1.57-11.65-5.56-12.16-6.27-.67-.94,2.63-7.3,3.18-7.75,1.48-1.23,5.46-1.11,7.11.12,2.21,1.65,6.7,8.77,8.9,11.48,10.56,12.99,19.95,28.7,34.53,37.12,8.25,4.76,18.02,8.67,26.87,12.25h.01Z" fill="#fff"/>
  <path d="M591.19,368.03c-11.31-8.2-22.61-17.53-35.83-22.35l-1,1.65c13.18,6.26,24.51,15.61,36.83,23.33v24.98l-75.6-47.04,27.37-37.81,48.23,26.67v30.56h0Z" fill="#fff"/>
  <path d="M591.09,710.59l-.23,6.48c-32.27-6.08-62.44-20.03-90.83-36.05-14.54-8.21-31.13-18.05-44.83-27.48-.95-.66-5.02-3.47-5.33-4.04-1.99-3.65-3.42-11.14-4.68-15.4-.14-.49-1.02-.42-1.31-1.47-.6-2.17-3.87-18.06-3.23-18.76,1.8.43,3.99,1.66,5.56,2.65,10.64,6.69,21.23,15.68,31.59,22.97,36.48,25.69,73.38,50.92,113.29,71.1Z" fill="#fff"/>
  <path d="M591.19,719.69v14.46c-6.75.91-14.51.99-21.39.68-54.37-2.4-88.31-26.59-114.61-72.72-1.04-1.82-1.65-4.54-2.72-6.51,1.13-.29,3.54,1.42,4.52,2.06,14,9.05,27.75,18.53,42.37,26.65,28.48,15.83,59.57,29.71,91.84,35.37h0ZM573.44,725.61c-14.4-3.56-28.81-7.39-42.09-14.13-6.91-3.51-14.84-9.72-21.86-12.33-1.05-.39-1.97-.67-3.11-.5-.38,1.53,1.38,1.84,2.43,2.48,15.07,9.18,30.28,17.51,47.39,22.31,2.09.58,15.44,4.09,16.27,3.97.69-.1,1.14-1.07.96-1.8h0Z" fill="#fff"/>
  <path d="M305.45,579.44c7.84,8.75,14.75,18.45,22.99,26.96.64.66,6.79,5.08,5.68,6.14-13.11-2.97-26.52-5.91-39.85-7.8-9.82-1.4-20.28-2.76-30.17-3.36-6.94-.42-14.04.73-20.89-.66l-7.04-45.36c22.65,5.19,45.34,11.12,66.63,20.47,1.32.88,1.65,2.5,2.64,3.61h.01Z" fill="#fff"/>
  <path d="M299.11,519.39c2,1.65,3.96,12.96,7.39,14.77,11.82,22.52,27.79,44.42,45.12,63.2,2.91,3.15,13.5,12.05,15,14.58,3.78,6.36,4.46,16.85,9.77,22.47l6.38,13.64-20.7-14.46c-32.3-27.04-60.49-60.35-80.07-97.45-1-1.89-1.86-4.25-1.79-6.4,7.13.29,11.9-6.28,16.4-10.85.44-.21,2.13.2,2.5.51h0Z" fill="#fff"/>
  <path d="M3.43,558.65c18.17-4.73,36.75-10.75,55.57-12.48,1.01-.09,3.34-.59,2.96.98l-10.55,52.25-47.99,8.55v-49.3h.01Z" fill="#fff"/>
  <path d="M223.67,462.68c.64.89.08,15.13.65,17.32.17.66,1.26.16,1.33.76l-1.34,2.63c2.03,1.81,1.78,11.41,1.38,14.5-.16,1.21-2.15.78-1.35,3.78.07.28,3.62,2.67-.02,4.07l1.34.75c.87,3.22-4.11,6.5-6.8,7.58s-5.97,1.72-8.85,2.32c-12.53,2.61-25.48,3.34-38.27,3.48-.23-2.11,2.8-1.77,4.24-3.32,1.52-1.63,1.68-4.07,2.39-6.02.2-.56,1.13-.52,1.23-.98.28-1.21-.29-5.09.05-5.42s3.85.31,4.93-3.28c1.92-6.35-1.35-14.15-4.85-19.31,4.26-8.2,6.83-17.81,12.36-25.11,10.15,3.55,20.82,14.96,31.56,6.27l.02-.02Z" fill="#fff"/>
  <path d="M178.59,486.73c.73,1.06,1.28,1.01,2,2.92,1.48,3.98,3.92,12.23-2.88,11.76-.9-4.04-3.89-7.33-7.49-9.27-2.49-1.34-7.89-3.84-10.31-1.51-.41,2.1,7.73,3.39,9.45,4.35,3.07,1.71,6.46,7.2,6.63,10.75.19,4-1.71,10.96-6.87,10.21.36-3.09-3.62-6.94-5.91-8.88-1.65-1.4-10.19-6.52-11.18-3.27-.87,2.86,5.79,3.29,7.85,4.62,8.77,5.66,8.77,18.88-2.59,20.67.82-5.19-.92-6.58-5.63-7.85-7.22-1.94-13.69,1.53-20.94.56-4.8-.64-9.54-4.39-14.08-5.96-.63-1,.44-6.36.74-7.92,3.72-19.52,18.76-37.61,40.6-33.09,8.28,1.71,15.76,4.89,20.63,11.92h-.02Z" fill="#fff"/>
  <path d="M387.89,578.52c.84,8.98,1.92,18.03,3.64,26.92,5.34,27.57,19.69,61.32,39.21,81.74.77.81,7.03,5.05,5.94,6.21-10.1-5.52-19.83-12.16-28.27-20.04-24.32-22.7-37.65-53.89-45.41-85.42-2.05-8.34-2.87-16.94-4.54-25.34,1.24-1.29,25.89,15.1,29.44,15.92h-.01Z" fill="#fff"/>
  <path d="M245.3,188.01c.85,1.22-1.83,8.43-2.25,10.42-2.09,9.94-4.94,20.81-6.83,30.1-2.12,10.44-3.05,21.23-4.98,31.7-5.93-7.05-12.92-13.26-20.93-17.86-1.5-.86-9.42-4.37-9.6-4.91l9.16-56.76,35.42,7.3h.01Z" fill="#fff"/>
  <path d="M282.44,543.94c.11.2.83.33,1.05.73,3.98,7.33,7.12,13.01,11.86,19.74.58.83,4.31,6.33,3.93,6.73-20.54-8.21-41.99-13.83-63.5-19-1.33-1.07-2.66-13.12-3.21-15.86-1.33-6.64-4.26-15.81-4.88-22.07-.36-3.7,1.01-7.08.59-10.78,13.59,12.05,30.16,20.11,47.29,26l6.87,14.51h0Z" fill="#fff"/>
  <path d="M223.01,431.15l-.41,1.36c-7.3,3.83-13.39,11.14-14.54,19.51-.4,2.89.18,4.81.23,7.34.05,2.7-3.26-.49-4.75-1.19-11.3-5.28-22.41-11.51-34.09-15.88-5.26-1.97-11.87-2.99-16.46-5.89-1.93-7.81,3.39-18.5,10.86-21.35,18.24-6.95,42.84,8.95,59.15,16.1h0Z" fill="#fff"/>
  <path d="M428.88,140.52c.4-4.03-12.84-9.1-9.86-3.93.45.77,7.87,2.76,7.81,5.98-4.06-.5-7.7-2.13-11.63-.12-15.95,7.36-30.6,17.18-45.91,25.75-1.33.17-.86-.05-.98-.96-.21-1.64.23-3.54-.04-5.23-.74-4.66-8.95-8.6-7.75-4.09.44,1.64,3.35,2.63,3.88,3.53.92,1.55,1.04,7.36-.19,8.59-4.81,2.96-12.7.78-14.02-5.06-1.14-5.04.86-6.61,4.76-9.13,10.41-6.73,29.27-11.63,41.41-17.75,5-2.52,17.88-8.94,18.61-14.96,1.16-9.55-17.02-7.29-18.74-10.1-1.33-2.17,1.04-2.48,2.96-3.01,17.27-4.76,40.43,6.24,43.35,24.96l-13.66,5.54h0Z" fill="#fff"/>
  <path d="M276.92,101.83c.11,2.06-.15,4.17.01,6.23.56,7.04,1.76,14.67,1.99,21.67.27,8.01,1.64,11.66-7.12,13.97-7.34,1.93-19.12,1.99-26.61.69-1.32-.23-6.47-2.46-7.12-3.4-.85-1.24-.31-2.34-.64-3.19-.25-.64-1.17-.26-1.33-1.43-.16-1.25-.19-6.07.07-7.15.13-.53,1.19-.18,1.35-1.39.56-4.27-.87-22.88.26-24.71.57-.92.91-.53,1.67-.34,1.92.47,4.3,1.76,6.4,2.17,10.73,2.07,20.83,0,31.06-3.12h0Z" fill="#fff"/>
  <path d="M352.98,125.97c-.08.17-.98.16-1.09.63l-1.42,17.21c-1.1.56-2.28.69-3.5.78-5.53.4-14.96.47-20.44,0-1.14-.1-2.77-.15-3.6-1-1.9-1.93-4.01-41.89-4.58-47.67l36.2.28.65,1.99-2.21,27.79h-.01Z" fill="#fff"/>
  <path d="M342.47,482.61c2.17,1.89,4.97,6.95,5.66,9.79.3,1.25,1.57,5.02-.84,4.46-1.75-5.64-5.6-9.76-10.58-12.76-3.04-1.84-10.81-6.23-13.09-2.03,2.13,2.29,5.68,1.74,8.35,2.83,3.25,1.32,9.87,7.19,11.28,10.41s2.99,7.32-2.24,7.52c-4.39.16-6.79-4.14-9.99-5.81-1.84-.96-7.63-2.61-9.72-2.77-3.53-.27-16.98,2.03-17.44,6.26-.34,3.13,6.08,2.29,9.1,3.4.91.33,5.91,3.03,6.37,3.49,1.32,1.36,1.48,5.56-.1,6.6-6.33,4.19-24.83,1.95-31.76-1.04-3.72-1.61-7.28-2.52-5.22-7.04,2.77-6.09,7.09-15.44,11.86-20.49,10.28-10.9,36.92-12.81,48.38-2.82h-.02Z" fill="#fff"/>
  <path d="M489.91,197.17c1.33,1.93-5.72,5.83-7.26,6.82-4.46,2.85-9.61,5.09-13.78,8.57l-2.87.35c-17.78-9.08-35.94-17.36-54.26-25.34l-.69-1.59c8.44-4.88,16.87-11.14,27.21-10.46,18.1,4.88,34.28,14.84,51.65,21.65h0Z" fill="#fff"/>
  <path d="M460.36,180.05c12.47-5.9,24.88-12.05,37.69-17.21,8.72-3.52,26.97-11.71,35.83-9.3,7.21,1.96,13.13,10.6,6.35,16.64-5.43,4.84-30.7,9.24-39.12,11.5-6.07,1.63-16.05,6.02-21.54,6.78-3.85.53-6.46-2.57-9.56-3.94-.78-.34-10.38-3.43-9.66-4.46h.01Z" fill="#fff"/>
  <path d="M252.61,722.31c.69-6.71-5.85-12.98-12.5-12.48l.39,2.03c9.19,2.27,15,13.33,2.58,16.38-1.64-3.12-.99-6.96-3.92-9.9-1.76-1.77-9.78-5.64-10.23-1.28,3.58,1.04,8.19,1.93,9.67,5.76,2.26,5.86.21,6.9-5.41,7.38-2.91.25-23.59-1.95-24.57-3.35.25-8.66,7.22-18.24,14.83-22.16,2.79-1.44,9.27-2.53,10.74-3.72.69-.56.87-.82,0-1.33-3.2-1.89-9.84,1.25-12.84,2.96-8.85,5.06-14.43,12.9-16.11,23.01l-11.54-3.26c-2.38-10.93,14.04-29.18,24.33-28.98,7.46.14,30.88,10.55,35.1,16.9,2.38,3.58,4.73,10.01-.54,12.05h.02Z" fill="#fff"/>
  <polygon points="591.19 333.2 545.18 307.89 564.66 286.59 591.19 301.32 591.19 333.2" fill="#fff"/>
  <path d="M126.37,684.85l-1.6,13.85c-.68.98-4.13.52-5.67.9-10.09,2.51-23.23,11.08-28.35,20.29-.97,1.75-3.21,8.75-3.59,9.06-1.37,1.1-5.52-2.07-6.75-3.07-2.47-2.04-3.65-4.23-5.78-6.35-.9-2.12,1.35-5.88,2.57-7.93,1.85-3.13,5.67-6.75,6.93-9.51.6-1.32,3.13-8.13,3.43-9.18.42-1.46,1.51-10.83,2.02-11.34l36.81,3.28h-.02Z" fill="#fff"/>
  <path d="M263.78,192.55c-1.36,3.99-2.12,8.69-3.34,12.63-6.38,20.62-10.48,43.35-13.77,64.58-.14.88.43,1.17-.96.98-3.07-3.26-6.25-5.82-10.72-6.72l1.2-19.11c.11-.48,1.16-.42,1.25-.95,3.3-18.31,6.42-36.75,10.96-54.76l15.38,3.35h0Z" fill="#fff"/>
  <path d="M249.31,381.84c1.97,13.1,4.38,26.97,7.94,39.72s9.16,24.78,12.65,37.31c.29,1.05.6,2.05.45,3.16-1.22,1.37-10.45-8.13-11.42-9.28-7.65-8.94-14.9-19.8-22.53-29.07-2.51-3.05-4.88-6.26-7.4-9.31,1.4-1.49,3.14-2.39,4.55-3.92,3.59-3.9,6.9-8.9,8.21-14.14.73-2.91.59-7.69,1.42-9.71.11-.26,3.51-3.76,3.86-4.07.83-.73,1.11-.85,2.27-.68h0Z" fill="#fff"/>
  <path d="M330.7,63.24c12.82-.41,35.04.57,46.63,6.24,2.73,1.33,3.11,3.05.18,4.41-16.51,7.67-55.55,8.36-72.83,3.15-3.18-.96-10.28-3.1-6.37-6.74,5.68-5.3,24.56-6.8,32.39-7.05h0Z" fill="#fff"/>
  <path d="M363.3,601.81c.1.31,1.5.09,1.07,3.18l-1.3.33c-.08-.77-.42-1.42-.96-1.98-16.86-17.56-33.74-37.45-46.25-58.29-.6-1-3.94-6.86-3.42-7.43l43.46,22.65c.8,13.46,3.39,28.58,7.41,41.54h-.01Z" fill="#fff"/>
  <path d="M155.58,719.41c1.54,2.3,2.56,3.08,2.38,6.5-.1,1.91-1.99,6.05-3.65,6.92-1.26.66-.94-1.07-1.06-1.55-.83-3.13-2.03-8.72-6.22-8.97-6.05-.36,1.57,3.99,2.02,4.61,4.32,5.97-.93,11.83-7.55,11.16,2.3-4.53-2.65-15.19-8.39-12.66-.92.41-1.01.15-.82,1.48,5.37,1.37,7.05,4.09,6.57,9.55-.38,4.35-3.62,3.69-7.23,4.26,1.09-3.61-2.8-12.18-6.9-11.88-4.43.32.97,3.62,1.63,4.33,1.9,2.05,2.77,4.89,1.6,7.63-3.3,2.36-18.83-2.09-23.29-2.71-.16-.9.2-1.64.51-2.45,3.12-8.39,16.62-19.72,24.96-23.03,3.17-1.26,12.38-3.46,15.47-2.62,3.38.92,8.03,6.53,9.97,9.42h0Z" fill="#fff"/>
  <path d="M212.5,678.93v12.82c-7.37,3.96-13.68,7.49-17.86,15.01-.73,1.3-4.34,8.91-4.47,9.45-.36,1.56.19,3.72-.69,5.45-3.84-1.91-16.43-4.73-18.06-8.56-1.97-4.64,2.91-9.66,4.08-13.64,1.44-4.88.41-10.87,1.49-15.93l35.5-4.61h0Z" fill="#fff"/>
  <path d="M380.81,76.2l-2.43,11.84c-6.97,1.4-13.91,3.63-20.99,4.5-13.74,1.69-30.22,1.74-43.96.07-5.24-.63-10.24-2.18-15.33-3.4-.89-.64-2.49-10.68-1.78-12.36,7.23,4.21,18.52,6.05,26.97,6.56,19.33,1.18,39.39-.46,57.52-7.22h0Z" fill="#fff"/>
  <path d="M378.17,91.31c-.52,4.92-1.01,9.93-1.94,14.8-.23,1.21-1.22.94-1.31,1.45-1.78,9.67-2.48,19.91-4.41,29.6-4.3,4.22-10.81,5.4-16.66,6.06l3.37-47.23,20.95-4.69h0Z" fill="#fff"/>
  <path d="M315.05,95.92c.18,3.37-.22,6.81.01,10.18.49,7,1.16,16.52,3.27,22.47l1.33,14.66c-1.43,1.2-13.89-3.44-14.69-5.4-1.13-14.03-5.01-28.38-6.34-42.26-.07-.7-.28-2.98.33-2.96l16.09,3.3h0Z" fill="#fff"/>
  <path d="M140.17,706.55c.15,1.73.07,1.08-1,1.28-3.12.58-5.69.57-8.85,1.68-11.75,4.12-23.7,14.98-28.38,26.51-2.01,1.08-12.06-3.81-12.31-4.9.84-2.53,1.48-5.34,2.63-7.74,4.97-10.35,21.55-21.55,33.12-21.5,5.36.02,9.99,2.83,14.79,4.67h0Z" fill="#fff"/>
  <path d="M257.22,721.66l1.33.37c2.66,9.53-8.71,14.34-16.32,15.87-17.43,3.51-55.76-3.3-70.72-13.07-2.76-1.8-5.37-3.84-4.4-7.34,2.67-2.63,4.75.76,7.27,1.85,16.48,7.15,50.54,17.27,67.72,12.51,4.82-1.33,13.54-5.14,15.12-10.2h0Z" fill="#fff"/>
  <path d="M73.11,722.32c.64,3.13,5.03,5.93,7.69,7.76,20.03,13.8,55.33,21.8,75.77,5.01,1.29-1.06,3.2-5.94,4.2-2.11,1.53,5.82-4.73,10.03-9.28,12.15-13.39,6.25-36.72,6.01-50.74,1.81-6.39-1.92-27.97-11.73-29.98-18.02-.65-2.02-.34-6.52,2.33-6.61h0Z" fill="#fff"/>
  <path d="M179.38,475.59l-3.35,3.55c-4.78-3.84-10.26-4.51-15.45-6.97,2.47-4.64,4.12-10.38,6.53-14.94.31-.58,1.5-.78,1.91-1.51.95-1.7,2.48-7.65,4.44-8.03l14.65,6.88-8.73,21.02h0Z" fill="#fff"/>
  <path d="M591.19,297.7l-23.69-12.84c-.15-.86.22-1.33.65-1.98,2.32-3.51,10.56-8.24,13.15-12.49l9.89-7.53v34.84h0Z" fill="#fff"/>
  <path d="M237.17,97.52c-.52-.65-1.9-1.02-.87-2.8.15-.26,4.58-2.59,5.33-2.88,8.26-3.14,23.18-3.44,31.5-.35,9.17,3.41,3.01,7.9-3.3,9.48-7.96,1.99-27.09,3.52-32.66-3.45h0Z" fill="#fff"/>
  <path d="M225.42,457.2c-2.72,3.12-12.95,10.19-14.05,3.03-1.3-8.42,2.82-19.09,10.11-23.73,13.69-8.71,9.77,14.01,3.94,20.7Z" fill="#fff"/>
  <path d="M133.33,539.2c-1.87-2.32-2.35-3.7-.98-6.98.26-.61,1.06-.66,1.23-1.01.82-1.68,1.85-4.69,3.32-5.74,2.5-1.79,15.34-2.76,16.81-.34.55.91-3.93,12.72-4.85,14.27-3.39,5.73-11.7,4.56-15.53-.19h0Z" fill="#fff"/>
  <path d="M455.1,147.18c-8.79-.87-19.52,2.26-21.7,11.83-4.14.31-4.32-7.07-3.88-10.13.75-5.24,8.91-11.19,13.92-10.13.47.1,7.47,3.28,8.18,3.7,1.67,1,3.4,2.63,3.48,4.73h0Z" fill="#fff"/>
  <path d="M455.7,150.53c-.04,9.04-12.9,15.22-20.27,10.8,1.75-8.72,12.19-12.98,20.27-10.8Z" fill="#fff"/>
  <path d="M117.83,533.67c-1.1-4.81-1.64-9.5-1.31-14.46l11.16,5.63c-2.16,3.81-4.76,8.81-9.85,8.83Z" fill="#fff"/>
  <path d="M291.39,517.91c-1.47,4.6-6.72,9.28-11.84,8.54l.66-12.49,11.17,3.95h0Z" fill="#fff"/>
  <path d="M477.45,210.27l15.1-9.57c2.08-.47,1.61,3.53-.38,4.9-2.68,1.84-11.3,4.26-14.71,4.67h-.01Z" fill="#fff"/>
  <path d="M65.23,87.37c-4.22-25.42,17.59-45.32,42.4-43.37,15.19,1.19,31.1,13.61,31.9,29.57,6.82-2.89,12.35-5.36,20.04-4.6,11.2,1.11,22.94,11.17,22.03,23,14.46-3.25,29.16,7.55,24.79,23.14-2.36,8.42-13.18,14.58-21.33,16.14-9.22,1.76-17.94-.91-25.39-6.35-15.54,14.77-44.14,17.12-62.87,7.48-4.18-2.15-7.01-5.58-10.87-8.04-6.39,5.49-15.85,8.47-24.24,7.64-21.24-2.11-34.49-23.32-16.53-39.37,2.02-1.81,8-5.24,10.53-5.24h9.54ZM126.8,55.39c-17.81-17.17-51.83-6.67-57.81,17-1.88,7.44-1.14,12.28.8,19.52-3.46,1.08-6.94-1.4-10.8-1.31-14.99.32-23.69,18.32-14.12,29.94,7.35,8.93,22.51,10.06,32.66,5.74,2.51-1.07,7.99-6.39,9.59-5.98,1.24.32,6.42,6.71,8.97,8.18,17.9,10.31,44.48,8.16,60.46-4.7.89-.71,1.35-2.55,2.48-2.84,1.8-.46,4.66,3.07,6.31,4.03,9.09,5.26,23.54,4.67,31.68-2.13,3.15-2.64,6.88-8.78,6.94-12.83.02-1.35-.58-4.19-1.14-5.39-.15-.32-3.75-5.4-4.11-5.77-3.62-3.66-11.04-5.12-15.8-3.26-1.83.72-4.66,4.14-5.28.64-.34-1.91.64-3.5.6-5.17-.19-8.16-6.29-15.32-13.88-17.67-8.05-2.5-14.18-.97-21.54,2.49-1.29.61-5.08,3.71-5.93,3.32-2.22-1.03-.56-3.08-.72-4.57-.74-7.32-4.03-14.08-9.37-19.23h0Z"/>
  <path d="M502.05,72.64c.09.17.73.26.99.78,1.21,2.43,5.68,15.64,6.6,16.27,3.68.37,26.77.42,27.66,3.27-.03,1.42-2.01,3.39-2.94,4.3-2.73,2.66-16.22,11.55-16.7,13.57-.07,3.7,5.66,24.14,4.86,25.81-.41.86-1.59,1.57-2.53,1.26l-22.49-14.17-20.74,12.57-4.57.36,5.84-25.2c-2.29-2.68-20.09-13.04-19.61-15.8,1.23-1.95,3.62-2.47,5.72-2.87,6.42-1.22,13.91-1.27,20.46-2.23l5.17-12.88c2.13-1.65,2.4-4.53,3.56-6.98,4.58-9.65,5.51-4.07,8.73,1.95h0ZM502.05,81.2c-1.62-3.58-2.95-7.33-4.54-10.92l-10.37,22.83-23.49,3.47c.98,2.41,3.69,2.81,5.47,4.05,1.64,1.14,12.2,8.52,12.5,9.24.95,2.22-.87,9.21-1.6,11.82-.13.46-.99.41-1.31,1.47-.34,1.17-2.21,9.17-1.91,9.56l20.71-12.47,21.36,12.46-4.5-23.18,14.68-11.67,3.63-3.92-24.55-.77c-1.6-.55-4.12-9.08-5.1-11.19-.21-.46-.89-.59-.98-.79h0Z"/>
  <path d="M456,770.73c.06.18.94.23,1.05.69.37,1.57-.19,3.77.02,5.46l-3.2-.09c-1.14-4.73-2.35-13.06-6.3-16.38-1.74-1.47-4.16-1.07-4.36-2.92l.66-2.01c2.05-1.46,6,2.5,7.25,4,3.02,3.63,3.55,6.97,4.87,11.26h.01Z"/>
  <path d="M467.15,770.5c-1.25,1.89-1.59,5.52-3.15,7.06-.7.69-.65.82-1.35-.01-2.33-2.11,1.94-10.52,4.01-12.45,1.27-1.18,5.92-4.17,7.53-3.04,2.73,1.92-2.07,3.47-2.98,4.29-.65.59-3.76,3.7-4.06,4.15Z"/>
  <path d="M363.33,701.67c2.76,3.52,5.24,10.7,1.96,14.69l-2.15-.72c-.06-2.85-.28-5.7-1.07-8.45-.83-2.91-5.08-7.45-1.34-8.53,1.08.82,1.78,1.97,2.59,3.01h.01Z"/>
  <path d="M280.53,656.12c5.06,1.4,10.27,6.67,10.82,12.04.3,2.9-.96,5.13-2.87,2.18-1.22-1.88-1.21-4.56-3.01-6.85-1.68-2.13-7.8-4.17-5.93-6.6l1-.77h-.01Z"/>
  <path d="M375.93,712.85c-.95,1.41-2.35,2.47-2.37,4.86-5.2.7-.9-7.76.66-9.54,1.36-1.56,7.82-6.63,9.88-5.26,2.21,1.48-2.36,3.09-3.31,3.94-2.09,1.86-3.33,3.73-4.86,6h0Z"/>
  <path d="M292.7,777.53c.06,3.14-3.84,3.47-6.26,5.89-1.48,1.48-2.98,3.6-4.49,5.34-.48.55-1.67,4.64-3.4,1.92-2.18-3.43,9.39-15.3,14.15-13.16h0Z"/>
  <path d="M304.54,653.3c-.17,2.67-2.42,4.01-3.47,6.71-1.25,3.21-.6,9.39-4.08,9.71-3.36-1.05,1.38-18.88,7.55-16.42h0Z"/>
  <path d="M445.02,773.13c.72,1.05,1.85,4.13,1.48,5.29s-2.52,1.48-3.18,1.01c-.31-.22-1.72-5.02-3.35-6.83-2.27-2.53-6.61-3-6.57-6.24,2.26-.29,3.79.14,5.72,1.18,1.06.57,5.25,4.65,5.9,5.6h0Z"/>
  <path d="M272.12,782.33c1.9,2.31,2.5,6.08,2.17,9-4.08.39-3.37-3-4.97-5.87s-3.22-3.45-5.12-5.4c-2.25-2.29-.66-3.86,2.03-2.69.35.15,5.58,4.58,5.89,4.96h0Z"/>
  <path d="M355.82,717.71c-1.29.27-1.59-.62-2.22-1.42-1.64-2.08-2.88-4.96-4.98-6.82-1.6-1.41-5.5-1.99-3.32-4.59,5.77.44,12.01,6.95,10.52,12.83h0Z"/>
  <path d="M75.5,791.1c-.13.22-.84.29-1.26,1.05-.28.5-.98,5.98-2.78,3.16-2.67-4.17,5.36-13.22,9.87-13.83l.69,2c-3.71,1.98-4.54,4.44-6.52,7.63h0Z"/>
  <path d="M64.3,792.9c-.79-1.19-1.41-2.67-2.05-3.52-.76-1-6.43-5.19-5.56-5.94,4.75-.51,8.66,2.92,10.17,7.25.62,1.79,2,4.96-.63,5.24-.96-.81-1.25-2.01-1.92-3.03h-.01Z"/>
  <path d="M309.36,666.66c-1.48,1.49-1.81,4.93-4.81,4.38-1.48-4.13,1.54-6.73,4.9-8.57,1.74-.95,5.39-3.18,5.64-.29-.02,1.73-4.48,3.22-5.73,4.48Z"/>
  <path d="M481.9,770.48c.91-.13,5.24-.69,4.44,1.14-1.83,2.2-5.26,2.26-7.51,3.67-1.92,1.21-3.65,5.36-5.98,2.56,1.07-3.54,5.49-6.85,9.05-7.37h0Z"/>
  <path d="M167.37,374.36c8.15,6.26,12.75,9.58,23.59,4.68,2.61-1.18,6.56-6.19,8.16-6.32,3.71-.3-.47,5.37-1.49,6.42-7.54,7.78-23.37,6.9-31.17-.24-1.01-.93-4.97-5.65-2.22-6.3,2.37-.55,2.31,1.13,3.13,1.76h0Z"/>
  <path d="M545.83,651.34c-.07,3.86-8.2-.05-10.51-1-19.6-8.1-35.71-24.69-52.3-37.11-16.32-12.21-35.97-18.04-53.58-27.94-21.99-12.36-35.99-32.17-57.39-45.17-10.89-6.61-22.61-11.49-33.78-17.49-.56-.3-5.84-3.1-4.81-4.06,14.67,6.02,30.11,13.4,43.59,21.82,20.34,12.7,33.7,31.89,55.1,43.51,12.52,6.79,26.46,11.42,38.93,18.26,14.68,8.06,27.22,21.69,40.89,31.42,10.36,7.38,21.48,14.33,33.85,17.76h.01Z"/>
  <path d="M432.55,564.7c3.41-1,9.68.3,10.57,4.28,2.46,10.92-14.62,8.84-13.55.03.18-1.45,1.51-3.88,2.98-4.31h0ZM434.48,567.26c-1.54.51-1.51,3.79-.44,4.88,1.6,1.11,4.63,1.65,5.99.04l.52-1.89c-1.1-1.92-3.84-3.77-6.08-3.02h.01Z"/>
  <path d="M444.96,436.78c-8.25,13.32-8.37,24.11-11.57,38.6-2.45,11.06-1.66,23.12-3.36,34.87-.32,2.18-.86,4.37-1.22,6.55l-1.98.44c2.83-12.86,1.41-26.07,2.63-39.1.83-8.86,3.04-17.45,5.89-25.67,1.04-2.99,7.46-19.38,9.39-20.23,4.53-1.99,1.08,3.16.23,4.54h-.01Z"/>
  <path d="M577.38,237.89l-.95,2.66c-11.76,9.36-23.41,24.58-36.32,32.05-.76.44-5.1,2.99-5.46,1.1-.18-.92,13.31-9.71,14.77-11.51,8.11-7.43,16.49-16.84,25.3-23.35.9-.67,1.33-1.23,2.66-.95h0Z"/>
  <path d="M455.96,399.37c-3.67-3.28-2.02-10.44,4.07-10.99,13.19-1.21,5.18,19.27-4.07,10.99ZM459.49,391.11c-2.93.92-1.87,7.21,1.76,7.05,4.23-1.82,2.63-8.43-1.76-7.05Z"/>
  <path d="M421.21,503.81c.15.22.89.23,1,.74.69,3.17-.46,5.49-2.92,7.44-4.85,3.86-7.44-1.13-10.21-4.33v-1.24c1.88-.67,1.36-2.55,2.61-4,3.32-3.86,7.04-2.31,9.53,1.39h0ZM418.19,504.19c-2.78-1.74-7.26,2.09-4.35,5,3.71,3.71,6.92-3.38,4.35-5Z"/>
  <path d="M529.9,298.51c3.19,3.21-.03,12.2-5.37,11.67-8.44-.83-7.02-13.41.57-13.18.9.03,4.27.97,4.8,1.5h0ZM522.99,300.51c-.85.79-1.89,3.78-1.01,4.9l1.28,1.4c8.29.81,4.52-10.73-.27-6.31h0Z"/>
  <path d="M456.8,315.84c-6.39,10.06-10.96,21.06-16.95,31.36-5.9,10.14-13.88,19.88-19.13,30.2-4.11,8.08-6.37,20.52-10.38,27.57-.3.53-2.36,2.7-3.23,2.5-.35-.4,1.59-7.61,2.01-8.7,7.71-20.06,16.13-32.02,27.05-50,10.01-16.49,15.55-36.14,30.11-50.09l16.43-14.47c.6-.88,1.98.36,1.97.67-.05,1.25-16.4,14.77-18.39,17.1-3.48,4.41-6.47,9.12-9.48,13.86h0Z"/>
  <path d="M398.99,423.69c-8.11,17.51-13.41,29.76-16.78,49.27-.8,4.64-.81,9.4-1.71,14.06-.48,2.45-2.05,11.99-5.27,11.15-2.51-1.77.68-3.76.91-4.46,5.42-16.46,4.08-32.11,11.2-49.94,3.25-8.15,6.43-16.37,9.94-24.44,3.23-.55,2.66,2.33,1.71,4.37h0Z"/>
  <path d="M312.9,306.06c-3.5,3.52-18.37.57-22.82-1.46-11.53-5.26-7.05-16.93,5.42-15.27,5.74.76,24.76,9.33,17.41,16.73h-.01ZM290.56,291.95c-2.13.38-4.27,1.75-4.42,4.16-.49,7.64,18.08,9.79,23.31,8.81s-.12-6.54-2.36-8.12c-4.06-2.88-11.58-5.74-16.54-4.84h.01Z"/>
  <path d="M397.24,259.57c-1.5,1.26-12.85-5.13-15.33-6.03-14.13-5.17-28.47-3.06-43.18-7.44-6.75-2.01-16.52-5.65-22.8-8.75-3.06-1.51-4.26-3.87-.36-2.94,10.38,2.49,20.66,8.93,31.68,11.06,16.83,3.25,31.87-.07,47.58,10.93,1.04.73,2.54,1.7,2.41,3.17h0Z"/>
  <path d="M159.81,336.58c2.06,1.28-.87,6.49-2.18,7.82-4.43,4.45-10.78,5.48-16.6,3.4-2.35-.84-7.89-4.49-5.82-7.4s5.38,2.69,7.12,3.47c6.58,2.98,10.3-.59,14.3-5.23.57-.67.63-3.64,3.18-2.06h0Z"/>
  <path d="M129.82,324.49c-3.72-3.71,8.11-10.99,11.03-11.98,2.29-.78,8.26-2.19,9.55.31,2.09,4.03-7.59,4.7-10.01,5.8-3.15,1.43-7.55,8.88-10.57,5.87h0Z"/>
  <path d="M201.12,333.92c2.53-.64,3.22,3.83,5.12,5.2,2.44,1.77,6.25,1.72,8.83.26,2.28-1.29,2.67-4.73,4.33-4.92,4.87-.54,1.81,8.19-3.59,9.59-4.59,1.2-12.03-.07-15.04-4.06-1.27-1.69-2.41-5.38.36-6.08h-.01Z"/>
  <path d="M206.4,307.05c3.46-.75,9.53,1.12,12.47,3.02,3.54,2.28,5.95,4.64,1.84,8.01-1.59-1.74-3.91-3.53-6.11-4.39-2.49-.97-9.54-1.27-10.34-2.82-1.02-2.01.11-3.37,2.14-3.81h0Z"/>
  <path d="M409.31,610.37c1.13,3.72,2.89,8.93,4.36,13.04,2.09,5.83,8.68,21.6,15.62,22.57,2.76.39,4.71-4.16,4.09-6.68-.06-.26-1.13-2.7-1.58-4.43-1.33-5.04-3.68-11.03-4.26-16.13-.22-1.96-.12-1.66,1.91-1.58.38,3.7,1.43,7.39,2.54,10.92.28.91,1.19.92,1.35,1.43,1.84,6.04,5.44,21.95-6.34,18.04-4.94-1.64-10.05-10.92-12.12-15.48-3.25-7.14-7.51-17.51-8.35-25.17-.15-1.4-.1-2.8-.08-4.19,1.81-2.09,2.64,6.94,2.86,7.68v-.02Z"/>
  <path d="M445.09,665.92c.4.7.31,3.47-.04,4.31-.07.17-.85.24-1.11.64-1.79,2.81-3.73,5.35-7.74,3.62-.54-.23-4.03-3.63-4.1-3.91-.57-2.55,1.3-6.96,3.89-7.78,1.53-.49,3.14-.5,4.67,0,.37.12,4.28,2.89,4.42,3.13h0ZM436.83,665.94c-2.55,1.46-1.64,7.59,3.14,5.43,4.49-2.04.59-7.55-3.14-5.43Z"/>
  <path d="M573.44,725.61c.18.73-.27,1.7-.96,1.8-.83.12-14.19-3.38-16.27-3.97-17.11-4.8-32.32-13.13-47.39-22.31-1.05-.64-2.82-.94-2.43-2.48,1.14-.16,2.06.11,3.11.5,7.01,2.61,14.95,8.82,21.86,12.33,13.27,6.74,27.69,10.57,42.09,14.13h0Z"/>
  <path d="M126.8,55.39c5.35,5.15,8.63,11.91,9.37,19.23.15,1.49-1.5,3.54.72,4.57.85.39,4.64-2.71,5.93-3.32,7.36-3.46,13.49-4.99,21.54-2.49,7.59,2.35,13.7,9.51,13.88,17.67.04,1.67-.94,3.26-.6,5.17.62,3.51,3.45.08,5.28-.64,4.76-1.86,12.17-.4,15.8,3.26.36.37,3.96,5.45,4.11,5.77.56,1.2,1.16,4.04,1.14,5.39-.05,4.05-3.78,10.2-6.94,12.83-8.14,6.8-22.59,7.39-31.68,2.13-1.66-.96-4.51-4.49-6.31-4.03-1.13.29-1.59,2.13-2.48,2.84-15.98,12.86-42.56,15-60.46,4.7-2.56-1.47-7.73-7.87-8.97-8.18-1.6-.41-7.08,4.91-9.59,5.98-10.15,4.32-25.31,3.19-32.66-5.74-9.56-11.62-.87-29.62,14.12-29.94,3.86-.08,7.34,2.4,10.8,1.31-1.94-7.25-2.68-12.09-.8-19.52,5.99-23.67,40-34.17,57.81-17h0Z" fill="#fff"/>
  <path d="M502.05,81.2c.09.2.76.32.98.79.98,2.11,3.5,10.65,5.1,11.19l24.55.77-3.63,3.92-14.68,11.67,4.5,23.18-21.36-12.46-20.71,12.47c-.3-.4,1.57-8.39,1.91-9.56.31-1.06,1.18-1.01,1.31-1.47.73-2.62,2.55-9.6,1.6-11.82-.31-.71-10.87-8.09-12.5-9.24-1.78-1.24-4.49-1.64-5.47-4.05l23.49-3.47,10.37-22.83c1.59,3.59,2.92,7.33,4.54,10.92h0Z" fill="#fff"/>
  <path d="M434.48,567.26c2.24-.74,4.98,1.1,6.08,3.02l-.52,1.89c-1.36,1.61-4.39,1.07-5.99-.04-1.07-1.09-1.11-4.36.44-4.88h-.01Z" fill="#fff"/>
  <path d="M459.49,391.11c4.39-1.38,5.99,5.23,1.76,7.05-3.63.16-4.69-6.13-1.76-7.05Z" fill="#fff"/>
  <path d="M418.19,504.19c2.58,1.62-.64,8.71-4.35,5-2.91-2.91,1.56-6.74,4.35-5Z" fill="#fff"/>
  <path d="M522.99,300.51c4.79-4.43,8.56,7.12.27,6.31l-1.28-1.4c-.87-1.13.16-4.12,1.01-4.9h0Z" fill="#fff"/>
  <path d="M290.56,291.95c4.96-.9,12.48,1.97,16.54,4.84,2.24,1.59,7.66,7.13,2.36,8.12s-23.81-1.16-23.31-8.81c.16-2.41,2.29-3.78,4.42-4.16h-.01Z" fill="#fff"/>
  <path d="M436.83,665.94c3.73-2.13,7.62,3.39,3.14,5.43-4.77,2.17-5.69-3.97-3.14-5.43Z" fill="#fff"/>
</svg>