<?xml version="1.0" encoding="UTF-8"?>
<svg id="Camada_1" xmlns="http://www.w3.org/2000/svg" version="1.1" viewBox="0 0 595.28 841.89">
  <!-- Generator: Adobe Illustrator 29.0.0, SVG Export Plug-In . SVG Version: 2.1.0 Build 186)  -->
  <g>
    <path d="M596-.11v843H0V-.11h596ZM591,4.89H5v341c16.88-.66,32.58,7.03,42.99,19.99,2.74-35.63,11.07-70.72,18.94-105.52-5.36-7.42-6.2-17.97-4.85-26.9.74-4.91,5.14-10.17,6.44-14.56,4.08-13.75,4.88-24.56,11.78-38.22,24.78-49.01,80.26-64.57,118.01-19.54,4.26,5.08,8.14,10.01,12.21,14.72,7.77,8.98,8.6,17.01,8.51,28.55-.11,13.1,2.99,24.38,3.05,36.96.03,6.13-2.43,14.22-2.14,19.97.94,18.5,7.63,44.6,9.93,64.16,1.89,16.07,2.89,32.26,4.13,48.38,10.95-7.74,24.66-13.83,37.98-8-14.82-39-22.5-80.75-25.03-122.46-1.24-20.36-2.16-46.83.17-66.9.53-4.54,1.15-8.59,6.42-9.58,9.89-1.85,20.16,1.24,27.44,7.94v-51l-15.42-.88-.11-8.16,47.02-81.97,109.06-1.04,122.74,2.26c4.64,1.38,17.75,29.61,20.57,35.43,4.76,9.83,10.42,21.6,14.32,31.68,5.35,13.87,12.35,25.46-10.17,22.67v80l22-4V4.89ZM545.74,38.15l-227.75-3.75,12.68,22.32c75.34,1.38,150.85,2.77,226.33,2.16.95-.7-10.38-19.94-11.26-20.73ZM314.5,34.91l-47.53,85.51,14.54-.52,41.04-70.07-8.05-14.92ZM357.99,201.89l.77-90.27-34.26-59.73c-8.67,13.33-17.71,26.62-25.51,40.49-2.99,5.33-13.53,23.07-14.5,27.5-1.27,5.78-2.62,51.13-1.5,56.53.45,2.16,2.55,2.37,3.73,4.26,1.01,1.61,1.09,4.27,1.82,5.18s19.28,6.04,22.23,6.77c15.22,3.76,31.86,5.68,47.23,9.26ZM570,87.88l-11.49-25-225.5-2.99,14.72,27,222.28.98ZM571.83,91.06l-222.83-1.16,18.7,29.05c60.33,2.01,121.27,1.25,181.84,1.91,5.2.06,31.8,3.77,33.35-1.63l-11.06-28.16ZM567,203.89v-78.5l-3.45-1.55c-56.94-1.71-115.32,1.22-172.09-.91-4.41-.17-20.1-.48-22.75-1.25-2.79-.81-4.2-5.82-7.71-5.79v85.5c6.24,2.09,14.59,3.58,21.52,4.48,60.9,7.94,123.85,7.44,184.48-1.98ZM188.39,154.49c-30.63-29.62-74.91-18.46-98.22,14.07-9.6,13.4-15.64,29.03-18.16,45.33,33.54-31.82,82.19-53.75,128.98-43,1.56-1.49-11.03-14.87-12.6-16.39ZM268,169.89h-16.5c-2.56,4.25-3.21,11.44-3.54,16.46-3.78,57,5.84,138.26,31.51,189.56,1.61,3.21,13.48,24.96,14.73,25.77s11.31,1.49,13.32,1.2c1.37-.19,1.73.57,1.46-1.48-36.95-69.88-46.84-153.2-40.99-231.52ZM210.67,180.21c-12.23-13.97-50.84-8.54-67.12-4.27-30.48,8-93.31,39.81-76.54,79.94,20.59-33.26,60.9-57.09,99.62-61.87,16.84-2.08,36.86-2.39,49.36,10.86,3.07-3.82-1.89-20.76-5.31-24.67ZM325.99,406.88c-36.19-67.96-42.41-147.19-41.21-223.28.04-2.84-13.5-13.17-14.78-11.71-4.46,56.86.68,116.62,17.28,171.21,4.03,13.26,10.12,30.62,15.84,43.16.99,2.18,8.32,16.81,9.12,17.38,1.66,1.19,10.92,1.52,13.75,3.23ZM591,202.89c-100.71,18.43-205.5,13-304-14v31c67.71,20.05,140.7,28.5,211.54,26.04,26.02-.9,56.12-3.63,81.68-8.32,3.48-.64,7.92-1.06,10.78-3.22v-31.5ZM177.05,398.93c.78-.59,10.5,3.59,17.92-4.57,6.52-7.17,3.84-13.83,6.52-19.48.82-1.73,4.78-2.78,6.53-4.47,7.41-7.16,11.66-16.68,11.97-27.06.18-6.26-2.95-12.97-2.89-16.98.04-2.65,3.9-8.71,4.66-12.22,4.26-19.69-2.47-33.03-3.74-50.79-.94-13.16,1.77-25.27-.28-39.73-1.66-11.72-2.73-20.66-15.05-24.95-38.83-13.55-122.13,21.55-134.06,62.35-7.49,25.6-22.07,100.7-19.63,125.34.67,6.82,3.62,15.7,9.49,19.49,5.62-9.83,10.45-20.27,17.54-29.19,3.01-3.78,18.97-17.45,19.39-18.73.16-.49-.4-8.51-.64-9.35-.44-1.5-5.71-6.35-7.18-9.82-3.91-9.26-3-19.78-.77-29.32-3.21-2.99-6.31-1.6-9.9-5.01-9.16-8.69-8.62-37.22,6.18-36.05,6.38.5,8.44,9.55,8.85,15,1.55,20.24-16.44,48.36,5.06,62.16-1.02,10.65.7,28.73,11.04,34.74,1.9,1.1,8.38,2.38,8.73,2.77.41.47,1.72,8.76,3.54,11.95,4.9,8.57,15.31,12.18,23.15,4.87,6.17,10.68,19.43,15.75,29.39,6.37,2.46-2.32,3.83-7.09,4.16-7.35ZM591,238.89c-100.31,17.27-206.47,13.33-303.99-16l2.57,37.12c70.18,20.26,145.78,27.01,218.96,23.92,27.65-1.17,55.28-5.48,82.46-10.04v-35ZM591,276.89c-52.7,9.51-106.94,11.71-160.54,9.04-47.99-2.39-95.31-9.71-141.48-22.52l5.25,34.25c29.6,7.71,61.76,14.85,92.28,18.22,4.99.55,30.76,3.04,33,1.03,1.49-1.34,6.07-12.73,7.17-13.05l74.32,1.03v15c30.31.54,60.32-4.7,90-9.99v-33ZM80.74,271.05c-13.83,2.4-7.15,38.68,5.63,34.76,3.62-1.11,8.05-37.13-5.63-34.76ZM417,320.9c-41.33-1.28-81.96-10.44-121.99-20.01l5.08,32.9c32.45,7.46,65.1,14.08,98.22,17.99l18.69-30.88ZM497,306.89h-70l-8,14.99,68.55,3.08,1.33-.19,8.12-17.88ZM230.99,377.89c-.17-21.14-1.86-42.47-5.14-63.35-.21-1.35-.31-5.43-1.84-5.65,1.88,5.93-4,13.84-4.05,18.48-.07,6.53,3.15,13.95,1.95,22.93-.39,2.89-3.75,9.44-3.55,11.11.13,1.1,10.81,14.4,12.63,16.48ZM500,327.39c.67-5.42-.49-11.94,0-17.5l-102.98,193.51,14.92.45c12.45-26.14,25.47-52.07,38.68-77.83,14.06-27.41,30.75-55.74,43.54-83.46,2.05-4.44,5.26-10.54,5.83-15.17ZM591,343.89v-32c-28.73,8.88-59.37,8.62-89.07,12.43-.45,11.87-7.69,20.42-11.94,31.06,33.95-1.12,67.72-4.76,101.01-11.49ZM485.99,327.9l-69.32-2.04c-1.37,2.65-10.99,17.75-9.68,19.03l68.34,3.91,10.65-20.9ZM396.99,353.9c-32.05-2.47-63.87-9.15-94.98-17.01l8.98,29.51c13.28,2.7,26.48,6.66,39.77,9.23,6.04,1.17,24.26,5.26,28.9,5.22,1.4-.01,1.73.09,2.85-.94s15.6-25.02,14.49-26.01ZM591,346.89c-33.69,6.42-67.83,11.57-102.32,10.96l-14.7,28.52c.06,1.15,5.34,1.63,6.52,1.62,15.54-.2,35.37-1.66,50.98-3.12,19.98-1.86,39.75-5.91,59.52-8.98v-29ZM474,351.9l-68.47-3.99c-3.15.49-12.48,18.03-11.52,18.97l69.32,5.04,10.68-20.03ZM5,348.89v301l27.04-5.57.02-20.81c-10.07-4.02-18.89-13.72-22.12-24.07-3.85-12.34-.33-22.59,11.59-10.59,5.12,5.16,7.43,12.23,11.47,18.03v-28.5c-12.67-8.01-25.2-24.26-23.01-40.02.3-2.18.77-5.28,3.54-5.55,12.58,3.85,14.31,18.47,20.47,28.07v-14.5c0-7.17-7.24-23.64-7.07-36.03.09-6.43,4.18-34.91,13.26-19.17,11.96,20.73-4.85,47.34-4.19,68.69,4.51-5.93,9.91-28.59,20.78-23.34,9.09,4.4-7.85,30.07-12.15,34.98-2.81,3.2-9.64,5.62-9.64,10.86v25.5l6.36-13.14c6.26-10.64,20.23-14.8,16.52,2.52-2.52,11.78-11.7,22.53-22.4,27.6l-1.48,19.01,26.85-3.14c2.19-42.61,4.16-85.25,11.18-127.36-29.34-26.58-27.33-70.63-13.98-104.91-7.47-4-10.39-13.06-11.08-21.06-1.25-14.46,4.24-17.54-8.96-28.04-8.94-7.12-21.49-11.39-33.01-10.49ZM99,441.39c-1-5.94.74-14.26,0-20.5,2.02-.07,1.96-.49,2,1.48.11,4.92-1.79,9.75-.76,15.78,1.88,10.97,10.83,12.44,19.09,16.91,2.14,1.16,5.57,5.12,7.39,5.61,2.67.73,5.73-.19,8.54.46,10.42,2.43,17.95,10.5,20.76,20.76,6.3-2.09,9.54-2.54,15.87-.4,1.5.51,3.74,3.1,4.61,3.1.72,0,10.04-6.54,12.3-7.4,12.22-4.68,21.91-3.01,34.2-.29l-5.48-63.99,4.22,13.75,3.2,27.8c12.54,11.48,30.09,17.69,47.06,17.44v-16.5c0-2.42,5.46-15.92,6.83-19.17s7.27-10.58,5.68-13.32-16.95-8.82-20.84-11.18c-20.45-12.43-32.69-29.38-47.18-47.82-.07,4.89-12.8,11.29-13.33,12.15-.37.6-1.14,10.23-2.67,13.83-1.9,4.44-8.53,11.78-13.2,12.8-2.76.6-8.73-.43-10.12.38-.37.21-.99,3.16-2.15,4.34-9.89,10.05-24.53,8.73-31.58-3.58-8.47,6.02-19.85,2.56-24.85-6.02-1.49-2.55-3.27-12.3-3.77-12.74-.65-.56-3.86-.27-5.39-1.1-8.1-4.4-11.85-12.22-13.44-21.08-3.73-3.04-21.48,20.18-23.79,23.7-17.35,26.34-27.65,66.96-16.98,97.58,5.2,14.91,25.39,41.61,43.02,27.74,4.47-3.52.66-6.97.88-10.63.86-14.49,8.17-35.24,23.89-38.4,3.45-3.58-14.54-9.69-16.51-10.98-2.63-1.73-6.97-7.43-7.49-10.51ZM274.69,370.2c-3.51-4.27-17.63-3.88-22.75-2.87-4.39.87-19.55,8.43-18.78,13.83.5,3.51,21.09,22.48,24.84,23.3l34-2.59c-3.14-4.66-6.46-9.34-9.17-14.32-2.18-4.01-6.13-14.91-8.15-17.36ZM312,369.9c4.57,7.77,10.63,30.48,16.44,36.05,5.28,5.06,22.7,7.15,29.25,12.77l22.23-34.45-1.59-2.21-66.32-12.17ZM461,374.89l-68.5-5.01c-2.4.52-13.56,19.04-12.49,20l68.44,7c3.74-.3,13.51-21.11,12.56-21.99ZM591,397.89v-20c-38.85,7.86-78.62,12.09-118.36,12.14l-15.64,28.85c13.13-.39,26.4.55,39.54.05,5.95-.23,34.01-1.84,37.41-3.59,2.78-1.44,5.38-7.76,9.88-10.12,11.7-6.13,18.68,2.48,24.16,11.67,1.17-11.31,11-21.18,23.01-19ZM447.97,399.93l-69.29-7.93-13.68,22.89,70.41,9.82c2.03-3.06,13.75-22.89,12.55-24.77ZM591,400.89c-14.87-1.88-19.45,10.35-23.52,21.99l-4.65-9.33c-10.41-16.39-29.84-.14-29.84,13.84v17.5c-6.71-11.24-24.28,2.39-20.54,8.98.84,1.48,14.7,8.59,17.47,10.59,20.07,14.41,38.42,35.76,51.07,56.93,3.58,5.99,5.98,12.8,9.99,18.51v-139ZM357,420.91c-29.35-13.67-62.77-19.77-94.99-14,7.79,7.39,23.07,7.12,26.03,18.98,17.65-3.84,43.62,14.03,37.52,34.06-.44,1.44-6.98,9.67-5.55,10.94l9.51-.98,27.49-49ZM433.99,426.9l-71.32-9.04-11.68,21.03,71.35,10.89,11.65-22.88ZM533,418.9c-25.28,3.88-50.8,2.81-76.32,3.17l-11.67,22.82c22.34-2.56,44-.04,64.95,7.97,2.13-10.11,9.03-18.66,20.04-13.97l3-19.99ZM315.65,437.25c-5.12-4.59-23.03-12.11-29.33-8.03s-15.96,35.68-10.76,42.62c1.99,2.65,11.62,9.83,15.45,7.58,6.66-7.69-4.92-11.46-1.32-19.32,3.98-8.7,17.64,14.59,22.37,11.35,2.5-1.69-2.29-10.5-3.67-12.43-3.03-4.23-8.24-4.89-8.37-9.12,8.15.98,12.07,10.85,14.94,17.55,7.49,1.63,3.23-9.42,1.08-13.08-2.35-4.01-5.34-6.58-10.02-7.49-.64-4.03,5.13-1.53,6.95-.44,4.31,2.6,5.56,8.17,7.82,12.16.62,1.09-.11,1.74,2.21,1.29,3.3-7.59-1.62-17.51-7.34-22.64ZM421,452.9l-70.51-12.03c-3.21.38-11.2,18.34-14.46,21.53l73.29,12.53,11.68-22.02ZM591,836.89v-291.5c0-2.45-16.79-30.41-19.58-34.42-29.65-42.62-74.72-73.26-129.01-62.16l-29.41,57.08c12.27-11.97,22.74-15.1,37.98-5.46,1.72,1.09,2.67,4.74,5.79,5.25,8.05,1.31,12.61-3.91,22.16,3.77,3.69,2.96,13.06,17.67,13.06,21.94v17c0,4.82,8.9-5.27,10.08-5.92,5.09-2.81,12.24-4.19,17.97-3.12,3.37.63,7.95,4.13,9.59,4.3,2.98.31,7.55-2.8,13.63-1.52,9.24,1.94,11.21,11.48,12.93,12.57,1.91,1.21,10.74,1.68,14.74,4.76,5.18,3.98,9.15,18.51,9.09,24.89-.04,3.69-3.02,11.15-2.97,13.05.04,1.7,4.61,9.26,5.46,12.49,4.6,17.54-1.24,20.88-3.45,34.58-1.82,11.23,1.39,19.15-7.07,29.93-4.01,5.1-8.67,4.88-10.74,6.75-1.02.93-1.24,4.43-2.4,6.11-4.6,6.63-11.08,8.81-18.84,6.65-1.9,2.05,5,37.43,7.43,42.06,1.73,3.3,4.83,4.86,6.41,7.59,8.1,14.04-8.95,25.28-21.19,18.19-9.05-5.24-11.72-31.3-15.68-40.85-1.45.76-4.24.97-4.85,2.63-.35.94-2.22,18.05-2.21,19.88.04,8.37,14.99,19.69-.57,27.34-30.36,14.93-25.61-36.09-25.34-51.85l-17-3c-.25,7.17-3.44,15.28-1.98,22.48,1.03,5.07,13.65,10.02,5.49,19.55-2.68,3.13-8.56,3.52-9.33,4.16-1.82,1.54-.72,11.02-11.12,13.39-30.24,6.88-23.65-34.72-26.08-53.08-.18-1.38.58-1.75-1.47-1.48-1.48.43-6.28,4.64-6.96,6.05-.47.99-3.5,16.27-3.5,17.56-.02,3.59,3.82,7.94,4.81,12,5.98,24.29-28.73,25.2-33.77,7.78-1.65-5.68-1.34-13.96-1.14-19.94.14-4.29,4.05-26.66,2.1-28.02-8.47-5.9-13.65,13.72-14,19.21-.45,7.13,9.15,14.8.87,22.78-5.24,5.06-11.24,3.25-17.83,3.67-.67,14.1-11.37,15.89-23.58,14.87-3.36-.28-9.83-2.89-11.87-2.72-1.93.16-6.47,3.14-10.27,3.63-15.19,1.96-33.15-1.89-30.39-20.88-7.04,2.41-22.56.68-27.57-4.92-6.49-7.25.87-27.39-1.61-35.39-.71-2.29-8.97-6.54-9.8-5.7-2.34,14.33-2.05,30.15-4.14,44.37-.98,6.66-2.24,12.92-9.14,15.86-2.24.96-7.31,1.01-8.48,2.01-1.74,1.49-2.62,10.32-9.19,12.31-7.56,2.3-28.79.69-34.99-5.11-5.77-5.39-4.31-33.67-5.07-42.93s-2.94-17.59-2.99-26.51c-2.54-1.1-2.84,6.77-2.98,8.51-1.34,17.57,7.92,48.14-22.01,37.48.01,12.29-5.77,16.61-17.46,17.04-19.92.73-35.47-8.11-31.63-29.97-5.46-.39-18.47-7.29-20.4-12.09-2.78-6.91,2.87-25.73-.51-29.49-4.7-5.24-7.01.38-7.01-11.99v-14.5c-9.97,14.04-9.66-6.43-8.72-14.22.77-6.36,3.58-11.9,5.71-17.78-18.09,2.52-37.1,3.26-53.99,10.49v182.5h586ZM287,482.91c-4.38-.29-7.49-5.29-10.96-6.55-6.25-2.27-17.65-2.79-25.04-4.96-10.44-3.05-18.06-7.57-26.99-13.5l2,21.99c22.34-12.89,39.52,1.51,48.5,21.99l12.49-18.98ZM296.01,476.89l8.97-5.5c-2.1-1.71-10.32-12.18-12.97-9.5-1.1,6.12,5.65,8.57,4.01,14.99ZM138.01,477.9c7.73,2.23,7.5,11.19,10.47,17.01,13.65,4.53,3.73-18.94-.95-24.04-13.4-14.6-31.62-7.72-40.06,7.98-2.94,5.47-7.19,18.36-6.22,24.29s22.39,21.55,22.8,8.22c.35-11.33-10.13-11.13-10.01-11.98,10.1-8.45,11.27,13.5,17.48,13.53,7.67.04,2.85-17.78-.48-21.54-2.44-2.75-7.97-1.81-3.52-6.46,8.34,4.38,10.55,13.32,10.94,22.03,8.4,4.04,8.09-5.56,7.3-11.3-1.01-7.3-5.59-11.32-7.73-17.75ZM408,477.9l-72.6-11.96-4.38,4.45c.05.91,11.31,5.5,13.31,6.66,2.13,1.24,6.61,6.27,8.39,6.69s6.71-2.48,9.78-2.85c15.73-1.92,24.81,6.89,33,18.98l12.5-21.97ZM320,691.89v16c10.39-7.37,16.77-22.72,19.7-34.8,2.85-11.78,2.3-21.08-3.19-32.17-5.55,3.5-14.53,7.45-20.5,3.46-1.12-4.96,18.52.41,19.82-7.13.85-4.95-17.12-11.37-15.82-19.34,3.35,1.21,4.98,5.35,7.79,7.94,6.79,6.27,8.18,3.48,11.72,15.03,7.15,23.3,13.63,70.37,45.07,73.93,17.07,1.93,26.89-18.47,18.41-22.41-5.49-2.55-11.06,2.02-18.89-5.11-29.13-26.51-3.49-93.08-5.07-125.93-1.1-22.96-11-57.02-27.01-73.99-21.38-22.65-52.25-17.95-69.85,6.19-1.08,1.48-6.37,10.29-6.59,11.31-.31,1.43,5.97,23.3,6.4,28.54,2.09,25.44.56,56.91-16.88,76.79,12.55,20.45,32.03,2.77,31.92-15.32,2.99,1,.39,10.58-.51,13-4.05,11.02-18.09,19.39-28.43,10.42-2.89-2.51-2.86-8.47-7.93-5.26-2,18.88-3.52,46.35,5.64,63.54,7.31,13.72,16.49,3.25,22.55,7.21,5.43,7.89,1.42,17.11-4.84,23.09-2.03,1.94-6.11,2.07-6.47,5.52l2.04,50.91c1.43,7,7.36,10.34,13.92,11.57l4.66-17.09c4.31-1.94,7.88-.62,8.85,4.08,3.65-5.15,3.73-10.73,11.48-6.48-.99-1.03-1-2.62-1.02-3.97-.24-15.44-1.24-35.06.02-50.08.22-2.68.48-8.05,3.03-9.47ZM236.63,491.25c-14.04-14.82-33.53-18.55-51.87-9.1-34.88,17.98-46.89,93.23-28.3,124.77,11.46,19.44,24.67,7.67,32.52-7.03-3.62,21.19-24.83,28.43-35.54,7.04-17.36-34.68-6.4-92.74,20.55-120.52-3.02-3.97-13.16-4.87-16.37-1.63-2.22,2.23,2.56,18.39-8.62,14.11.35,4.36-1.18,9.12-5.08,11.47-3.09,1.86-4.32.36-5.89,1.03-3.81,1.65-4.91,8.86-12.03,1.5-1.62,11.39-10.4,6.01-17.36,3.06-15.6,20.78-22.69,49.64-23.7,75.39-1.6,40.91,11.91,76.86,10.09,117.09-.56,12.38-6.98,42.01-1.91,51.84,2.82,5.47,10.35,8.01,15.87,9.62-1.5-8.92,6.31-25.93,13.5-12,2.16-4.2,5.64-9.38,10.59-5.57,2.1,1.62,1.92,4.63,3.91,5.57.5-12.79-.62-25.75-.03-38.53.17-3.78,2.99-13.78,2.63-16-.42-2.57-8.32-5.66-6.08-9.47,5.77,5.6,10.56,8.59,18.5,10.5,4.89,1.18,8.64,3.59,11.98-1.48,1.85,12.39,3.83,25.03,4.99,37.51.74,7.93-.44,31.71,3.51,36.49,1.55,1.88,9.32,6.26,11.56,4.58,1.81-5.74.92-13.81,7.71-16.39,4.35.16,7.54,2.17,7.26,6.8l6.72-7.85,7.26,3.85-9.98-67.99c2.75-1.06,2.25,2.85,3.48,2.97,2.18.21,9.85-9.47,11.32-11.68,7.95-11.98,15.95-33.71,8.67-47.28-1.07-2-8.48-6.54-11.12-10.88-2.32-3.81-3.9-8.69-4.35-13.14,4.54,1.64,3.54,8.27,6.56,12.93,2.65,4.08,9.48,7.36,11.21,10.79,8.55,16.97,4.35,39.7,22.24,56.76,11.63,11.1,37.45,11.26,37.65-8.15.12-10.93-9.6-2.49-16.03-5.47-14.68-6.82-16.17-43.31-15.69-57.41.52-15,4.52-29.91,5.09-44.91,1.08-28.82-4.87-71.51-25.4-93.18ZM267.61,603.51c14.22-17.76,14.2-61.24,9.94-82.67-3.76-18.92-15.93-47.02-39.82-42.72-1.53.28-8.15,2.87-6.64,5.18,10.21,7.47,16.97,18.76,21.67,30.34,7.49,18.45,11.98,47.89,11.22,67.74-.25,6.51-3.73,19.53-3.04,25.01.59,4.71,4.78-.51,6.67-2.87ZM387.4,494.5c-9.66-10.32-18.4-14.41-32.39-8.6,6.47,9.54,12.41,19.15,16.48,30.01,11.19,29.84,12.69,62.37,3.52,92.97,7.62-.69,14.5-9.97,17.88-16.61,12.86-25.34,14.79-76.11-5.48-97.77ZM35.99,541.89c3.86-15.06,11.11-39.9-1.47-52-5.31,1.11-4.93,26.82-4.55,31.53.5,6.22,2.23,15.62,6.02,20.46ZM473.99,649.88c16.83,1.27,23.07-20.97,22.04-34.53-.31-4.05-3.24-10.31-3.01-12.9.84-9.48,9.91-15.4,7.89-31.98-1.34-10.97-9.33-15.66-10.71-20.3-.98-3.31.88-6.24.56-9.46-1.31-13.18-8.52-32.4-24.31-32.85-3.5-.1-6.8,1.99-10.74.82-2.08-.62-6.88-6.32-9.36-7.64-11.74-6.28-24.19-2.41-31.98,7.72-5.42-2.55-10.32-3.45-16.37-2.86,3.81,5.22,3.14,17.49,5.49,22,.74,1.41,6.77,3.71,9.05,5.95s2.87,4.86,5.12,6.96c13.06-5.66,27.17-5.87,38.85,3.06,7.05-19.44,28.19-17.74,24.26,5.28-1.2,7.02-5.3,8-8.73,13.21,11.46,25.34,10.31,72.44-16.71,87.35-33.24,18.34-65.93-15.78-64.82-48.82-1.3,4.79-15.52,11.21-16.26,12.24-.58.79-2.33,16.14-2.32,18.26.04,9,4.47,13.58,12.94,15.63-.84,10.76,4.79,24.63,16.27,27.23,3.44.78,7.88.01,10.2.8.9.3,6.83,8.27,10.72,10.28,8.99,4.64,13.53,2.03,21.64-2.25,2.08-1.1,4.31-4.31,5.25-4.64,1.61-.55,7.81,1.05,11.35.23,10.03-2.34,15.41-19.59,13.7-28.79ZM102.64,511.06c-.79.15-5.15,4.6-7.33,5.65-6.6,3.19-14.08,3.2-19.82-1.79-2.62.23-7.01,40.61-7.48,45.5-2.5,25.72-2.59,51.72-4.53,77.46,1.6-1.33,2.19-3.3,2.81-5.18,3.88-11.9,6.04-26.32,10-39,3.55-11.38,7.38-22.79,11.01-33.99,4.46-13.77,7.45-25.6,14.5-38.5.99-1.8,4.91-5.79,5.09-6.98.25-1.71-2.91-3.41-4.25-3.16ZM405.01,551.89l9.82-9.65c.42-2.32-6.43-9.68-9.31-9.4-2.09-.18-1.33.14-1.54,1.52-.78,5.02,2.23,12.02,1.03,17.52ZM473.69,557.56c6.82-5.31,8.01-25.86-4.09-24.66-4.51.45-10.27,7.99-9.62,12.43.19,1.31,10.2,13.36,11.37,13.39.93-.14,1.62-.59,2.34-1.15ZM32.99,573.88c.44-3.79-.78-7.2-1.73-10.75-1.41-5.28-11.02-29.16-17.65-27.19-6.38,13.37,7.48,31.88,19.38,37.94ZM45.66,566.55c5.52-6.4,13.42-19.38,8.72-27.59-1.34-.43-2.21.18-3.34.5-5.46,1.54-16.37,28.63-15.02,35.44,2.84-2.21,7.39-5.73,9.64-8.34ZM428.78,540.17c-6.56.86-14.86,5.93-19.32,10.68-7.03,7.49-6.62,19.81-9.31,29.69-2.33,8.53-6.76,13.1-6.93,22.85-.83,46.95,60.73,69.24,78.52,22.74,12.49-32.65,2.55-91.93-42.95-85.96ZM555.14,557.75c-1.05-.68-1.84-9.38-9.59-11.91-7.51-2.46-13.51,1.2-16.65.56s-6.74-5.27-12.43-5.56c-5.02-.26-14.66,4.29-17.99,8-5.35,5.97-.14,6.51,1.84,12.23,2.12,6.11,2.38,18.62,1.43,25.05-.81,5.43-6.44,13.38-6.73,16.31-.24,2.44,2.49,7.78,2.88,11.07,1.32,11.16-2.67,29.67-12.41,36.37-1.93,1.33-8.27,3.29-8.53,3.68-.34.51-1.94,10.9-1.77,11.63,1.25,5.63,14.12,6.96,18.26,3.75,2.54,6.27,2.37,13.27,9.07,17.96,7.52,5.26,14.86.99,15.54,1.42,1.36.86,3.49,7.53,7.63,8.34,11.22,2.19,12.22-6.42,14.8-6.5.47-.02,3.14,2.12,7.03,1.78,10.08-.87,8.89-9.52,11.73-12.81.77-.89,8.26-3.18,10.79-6,4.65-5.18,6.51-14.98,7.08-21.73.21-2.51-1.3-5.13-1.1-6.99.39-3.58,6.87-11.35,7.07-20.01.26-11.1-7.61-20.51-8.03-26.04-.24-3.23,2.57-8.49,2.86-12.08.72-8.87-4.68-25.91-14.63-28.14-2.29-.51-7.16.26-8.13-.37ZM84.5,579.89v1l.5-.5-.5-.5ZM72,637.89c1.92-19.37,13.74-36.13,11.99-56-3.7,4.35-5.3,11.11-7.01,16.48s-10.04,34.74-8.87,37.85l3.88,1.67ZM31.99,620.89c.58-6.83-1.97-14.3-5.18-20.31-1.96-3.67-10.83-16.86-15.88-13.26-3.19,13.49,10.05,27.76,21.06,33.57ZM35.01,621.89c9.4-2.83,23.24-22.04,20.8-31.27-1.19-4.48-5.49-1.17-7.83.74-7.82,6.36-12.32,20.73-12.96,30.52ZM92.85,704.74c4.06-21.32-3.58-42.56-6.71-63.49l-3.12-35.35c-2.71,9.1-9.1,22.13-9.04,31.55.1,13.84,8.95,29.92-3.01,43.91-2.44,2.85-6.55,4.35-6.8,4.69-.41.54-.4,7.14-.14,8.33,1.42,6.6,22.52,11.52,28.83,10.37ZM63.99,668.9c.5,2.49-1.65,14.71,2.48,13.99,10.56-5.36,12.69-42.54.83-43.85-6.31-.7-16.41,32.74-11.29,38.85,2.61,2.37,5.69-11.64,7.98-8.99ZM382.83,649.05c-.36-.49-9.36-3.45-10.8-5.67,1.69,11.66,2.92,24.72,8.81,35.18,6.2,11.02,12.28,9.69,23.74,11.26,9.04,12.3-2.79,28.67-17.56,27.08,1.08,18.87-14.69,57.35,17,56l-.51-12,2.95,10.05,3.94,1.01c3.64-3.69-.52-8,.11-12.06l4.49,7.99c3.67-7.44-2.61-13.11-3.75-18.72-1.53-7.51,3.87-31.1,6.64-38.95.54-1.52-.85-2.85,2.12-2.32l-1.98,12.99,9.98-7.99c0,2.68-2.74,3.64-2.95,6.54-.66,9.21,2.19,40.45,6.77,48.14,3.87,6.5,9.61,5.33,16.19,5.31l-2.51-13.99c3.48,3.3,4.02,7.8,4.52,12.35,7.63,1.96,4.03-9.22,1.01-12.86,3.29-3.68,5.52,5.24,5.99,7.5,1.66.27,1.06-2.41,1.03-3.52-.31-9.66-7.54-14.27-8.07-24.93-.85-17.15,4.89-37,3.53-54.54-4.04-4.51-6.71,2.54-9.75,4.23-5.93,3.3-16.34,4-22.45.97-3.5-1.73-7.87-7.9-9.31-8.69-1.64-.9-8.08-.73-11.97-2.03-7.84-2.62-15-11.14-16.78-19.22-.53-2.43.27-8.16-.41-9.1ZM217.99,768.89c-.04-6.33,4.89-20.03,12.51-13.03l1.5-2.47c-.94-21.38,7.34-48.29,5.05-69.06-.69-6.2-4.82-12.87-5.07-19.44l-11.17,26.31-14.41,16.14c2.63,12.06,2,24.63,3.84,36.79.79,5.25,3.52,19.09,5.49,23.5.62,1.39.19,1.54,2.25,1.25ZM343.99,665.89c-2.62-.33-1.56.11-2.03,1.45-1.31,3.79-1.34,8.92-2.7,13.31-4.13,13.28-10.17,23.25-20.26,32.73l.94,57.89,11.06,2.62c-.38-3.11.56-8.42,2.95-10.56,2.82-2.51,5.35-.73,6.89-1.62,1.76-1.01,1.57-11.64,9.16-3.83l1.03-70.52-7.03-21.48ZM486,709.39c1.75,6.87,0,32.86,0,42,0,8.2,6.39,19.49,15.99,18.5l-1.98-12c5.26,3.7.06,16.09,9.87,8.35l-.87-9.35c2.64-.23,2.45,9.49,4.97,7,3.72-3.67-3.69-10.94-4.53-13.95-2.98-10.73,2.66-29.75,3.56-41.04,3.84,1.15-1.18,8.84,0,9.99l8.99-2.98c-3.43,4.2-2.29,6.02-1.34,10.84,2.37,12.01,8.91,43.08,26.42,32.51l-4.08-11.36c5.21-.24,5.04,6.11,6.01,9.99,11.6-7.79-1.49-14.24-4.74-22.77-4.32-11.34-4.55-25.26-6.28-37.23-4,.38-5.9,2.56-10.41,1.96-6.14-.82-8.85-7.43-10.18-7.77-1.73-.44-7.06,1.72-11.47.37-6.79-2.07-12.66-12.74-12.96-19.56-8.43,3.1-13.09-.09-19.97-3.99-1.97,7.8-8.44,12.07-16.04,13.48-1.97,1.67-.69,11.6-1,15-1.25,13.59-4.63,30.54-2.98,44.01.81,6.58,6.38,9.81,7.11,16.38l5.89.12-2-8.99,3.02.66.99,6.33c6.88-6.84-1.97-9.61-4.05-12.73-2.75-4.13-1.39-12.63-.84-17.65.62-5.61,4.08-9.59.88-14.62,6.36,2.35,11.3,5.72,18.42,5.86l1.59-8.86c.63-.03,1.9,1.16,1.99,1.5ZM246.66,698.2c-.3-.49-1.87-.87-2.49-1.94-1.52-2.67-3.06-6.22-5.17-8.36l-.86,19.84,8.35,4.13c2.57-.33,1.77-11.05.16-13.66ZM374.99,713.91c-11.12-3.67-15.93-14.83-22.98-23.02l-.07,63.56c.21,5.25,6.3,4.5,10.06,4.45l-2-15c2.88-.55,1.62.79,2.25,2.19,1.55,3.39,2.83,8.02,2.75,11.81,12.92-3.08,4.44-11.16,3.23-17.73-1.76-9.53,3.42-17.83,6.76-26.25ZM73.53,703.89c-5.1,10.03.6,19.09,10.87,21.91,2.27-4.56,11.7-12.87,8.16-17.98-1.16-1.67-15.77-.22-19.03-3.93ZM158.99,743.89l.9-34.36-17.88-5.64c-1.34,5.25-2.67,11.05-3.05,16.46-.33,4.68-.76,28.97.21,31.87.83,2.47,5.46,3.06,7.75,2.58.89-5.63,1.69-10.66,5.68-14.99l6.39,4.08ZM273.85,711.04c-8.21.75-16.32-1.57-22.35-7.13l-1.36,1.62c3.46,13.87-11.68,45.09,8.85,47.36-.07-3.77.55-8.23,3.64-10.86,5.66-4.82,6.86,3.34,9.34,1.85,7.07-8.59,2.51-22.18,1.87-32.85ZM91.99,727.88l-.49-7.99-4.5,6.98,4.99,1.01ZM89.99,740.89l.12-9.56-17.61-10.41c-6.71,11.83,8.49,17.9,17.49,19.97ZM272.01,753.89l4.85-1.64-1.35-9.33c-3.23,2.56-3.46,7.17-3.49,10.97ZM149.01,755.88l9.56-4.01c1.2-2.46-2.68-10.02-6.43-7.83l-3.13,11.84ZM270,754.89c-.21-3.57,1.55-10.27-3.56-11.02l-3.45.5-2.99,9.52,10,1.01ZM131.88,754.03c-8.44-1.01-8.11,10.91-7.87,16.87,11.29-.81,13.57-7.59,7.87-16.87ZM120.99,771.89c-.36-5.05,1.5-11.04-2.43-15.06-5.54-4.79-8.93,12.72-7.57,14.07l10,.99ZM220.01,768.88c5.26-.08,12.37-5.05,9.05-10.55-6.61-2.78-8.34,5.75-9.05,10.55ZM315.9,758c-9.35-.86-6.55,10.77-6.89,16.89,9.42-2.11,10.66-8.76,6.89-16.89ZM306.01,775.9c.19-5.86.68-13.69-5.46-16.99-3.66.59-5.08,13.75-4.55,16.99h10.01ZM343,771.89c7.36,2.68,7.55-11.87,4.39-12.92-7.07-1.3-3.68,8.27-4.39,12.92ZM332.99,773.89l8.59-.95c1.36-3.85-2.98-10.92-7.11-7.07l-1.48,8.03ZM209.73,768.16l-3.09-.97c-5.56.39-4.77,11.68-4.64,15.71,9.29.08,12.79-7.05,7.73-14.73ZM199,783.89c.25-5.57-.1-12.05-4.68-15.89l-3.33.37c-3.08,1.53-5.36,11.99-3.56,14.58l11.56.94Z"/>
    <path d="M591,836.89H5v-182.5c16.89-7.23,35.91-7.98,53.99-10.49-2.13,5.88-4.95,11.42-5.71,17.78-.94,7.79-1.25,28.26,8.72,14.22v14.5c0,12.37,2.31,6.75,7.01,11.99,3.38,3.76-2.27,22.58.51,29.49,1.93,4.8,14.94,11.7,20.4,12.09-3.84,21.86,11.71,30.7,31.63,29.97,11.69-.43,17.47-4.75,17.46-17.04,29.93,10.66,20.66-19.91,22.01-37.48.13-1.74.44-9.61,2.98-8.51.05,8.92,2.26,17.66,2.99,26.51s-.69,37.53,5.07,42.93c6.21,5.81,27.43,7.41,34.99,5.11,6.58-2,7.45-10.83,9.19-12.31,1.17-1,6.24-1.06,8.48-2.01,6.9-2.95,8.16-9.21,9.14-15.86,2.09-14.22,1.8-30.04,4.14-44.37.83-.85,9.09,3.41,9.8,5.7,2.48,8-4.87,28.13,1.61,35.39,5.01,5.61,20.53,7.34,27.57,4.92-2.76,18.99,15.2,22.84,30.39,20.88,3.8-.49,8.34-3.47,10.27-3.63,2.04-.17,8.51,2.44,11.87,2.72,12.21,1.02,22.91-.77,23.58-14.87,6.59-.42,12.59,1.38,17.83-3.67,8.28-7.99-1.32-15.65-.87-22.78.35-5.49,5.53-25.11,14-19.21,1.95,1.36-1.95,23.74-2.1,28.02-.2,5.98-.51,14.26,1.14,19.94,5.05,17.42,39.75,16.51,33.77-7.78-1-4.06-4.83-8.4-4.81-12,0-1.29,3.03-16.57,3.5-17.56.68-1.41,5.48-5.61,6.96-6.05,2.05-.27,1.29.1,1.47,1.48,2.43,18.36-4.17,59.96,26.08,53.08,10.4-2.37,9.3-11.85,11.12-13.39.77-.65,6.65-1.04,9.33-4.16,8.16-9.52-4.46-14.48-5.49-19.55-1.46-7.2,1.73-15.31,1.98-22.48l17,3c-.27,15.76-5.02,66.78,25.34,51.85,15.56-7.65.6-18.96.57-27.34,0-1.83,1.87-18.94,2.21-19.88.61-1.66,3.4-1.87,4.85-2.63,3.96,9.55,6.63,35.61,15.68,40.85,12.24,7.09,29.3-4.15,21.19-18.19-1.58-2.73-4.68-4.29-6.41-7.59-2.43-4.63-9.33-40.01-7.43-42.06,7.76,2.16,14.25-.02,18.84-6.65,1.17-1.68,1.38-5.18,2.4-6.11,2.07-1.87,6.73-1.65,10.74-6.75,8.46-10.77,5.26-18.7,7.07-29.93,2.21-13.7,8.05-17.04,3.45-34.58-.85-3.23-5.42-10.79-5.46-12.49-.05-1.89,2.93-9.35,2.97-13.05.07-6.37-3.9-20.9-9.09-24.89-4-3.08-12.83-3.55-14.74-4.76-1.72-1.09-3.69-10.63-12.93-12.57-6.08-1.27-10.66,1.83-13.63,1.52-1.64-.17-6.22-3.67-9.59-4.3-5.73-1.07-12.88.31-17.97,3.12-1.18.65-10.08,10.74-10.08,5.92v-17c0-4.26-9.38-18.97-13.06-21.94-9.55-7.68-14.11-2.46-22.16-3.77-3.11-.51-4.06-4.16-5.79-5.25-15.24-9.64-25.7-6.51-37.98,5.46l29.41-57.08c54.29-11.1,99.36,19.54,129.01,62.16,2.79,4.01,19.58,31.97,19.58,34.42v291.5ZM54.01,778.88c.53-9.09,7.32-48.83-10.28-44.8-11.26,2.57-6.92,28.62-4.74,36.8-3.1-4.97-9.61-16.18-16.7-13.27-14.06,5.77,9.58,33.48,13.73,40.27l1.99-.5c.91-4.12-20.44-24.25-17.84-33.75,3.78-13.79,17.42,10.18,19.31,14.27.38.81,4.02,15.8,6.51,12.98-1.56-14.16-8.29-29.14-7.03-43.54.44-5.02,1.91-11.16,8.3-10.3,11.98,3.12,1.99,43.62,3.22,52.87.86,1.54,1.82.52,2.54-.49,1.57-2.19,2.74-8.58,4.78-12.22s10.02-14.7,14.73-9.38c8.05,9.09-10.78,21.37-14.04,27.08-.69,1.21-1.46,3.39.98,2.98,8-9.54,22.93-20.27,13.84-34.06-8.09-5.11-15.99,9.76-19.31,15.07ZM566.01,803.89l-1.95-13.56c-4.91-3.48-9.39,5.77-9.07,9.55-2.69-2.16-4.71-9.05-9.11-8.53l-1.97,1.2c-2.07,3.56,1.07,21.16,3.1,23.33.98,1.05,1.95.38,1.92-1.41-.03-1.62-8.11-29.21.93-17.95,1.68.98,4.06,12.11,5.62,11.35,2.13-1.04,1.53-17.62,6.55-14.52,4.73,2.92-.83,14.14,1.97,16.04l8.99-5.51-1.98,12.99c2.44.68,2.87-2.43,3.43-4.03,2.91-8.29,0-16.3-8.43-8.97Z" fill="#fff"/>
    <path d="M591,4.89v195l-22,4v-80c22.52,2.79,15.53-8.81,10.17-22.67-3.89-10.08-9.56-21.86-14.32-31.68-2.82-5.82-15.93-34.05-20.57-35.43l-122.74-2.26-109.06,1.04-47.02,81.97.11,8.16,15.42.88v51c-7.28-6.7-17.56-9.79-27.44-7.94-5.27.98-5.89,5.04-6.42,9.58-2.33,20.07-1.41,46.54-.17,66.9,2.53,41.71,10.2,83.46,25.03,122.46-13.32-5.83-27.03.26-37.98,8-1.24-16.12-2.24-32.31-4.13-48.38-2.3-19.57-8.98-45.66-9.93-64.16-.29-5.76,2.16-13.85,2.14-19.97-.06-12.58-3.15-23.86-3.05-36.96.09-11.54-.74-19.57-8.51-28.55-4.07-4.71-7.96-9.64-12.21-14.72-37.76-45.03-93.23-29.47-118.01,19.54-6.9,13.65-7.7,24.46-11.78,38.22-1.3,4.39-5.7,9.65-6.44,14.56-1.35,8.94-.51,19.48,4.85,26.9-7.86,34.8-16.2,69.89-18.94,105.52-10.41-12.97-26.1-20.66-42.99-19.99V4.89h586ZM122.01,37.88c-6.58-40.5-45.99-20.66-42.01,12-31.16-16.55-38.82,44.47-13.03,51.54,12.68,3.47,75.37,2.96,90.57,1.51,24.07-2.29,19.28-50.11-7.53-42.05,1.67-12.18-7.47-31.05-22.06-26.55-2.41.74-3.31,3.68-5.94,3.55Z" fill="#fff"/>
    <path d="M236.63,491.25c20.53,21.66,26.48,64.36,25.4,93.18-.56,15.01-4.57,29.91-5.09,44.91-.48,14.1,1.01,50.58,15.69,57.41,6.43,2.99,16.15-5.46,16.03,5.47-.2,19.41-26.03,19.25-37.65,8.15-17.88-17.07-13.69-39.79-22.24-56.76-1.73-3.43-8.56-6.71-11.21-10.79-3.02-4.65-2.03-11.29-6.56-12.93.45,4.45,2.03,9.33,4.35,13.14,2.64,4.34,10.05,8.88,11.12,10.88,7.28,13.57-.72,35.29-8.67,47.28-1.46,2.21-9.13,11.89-11.32,11.68-1.24-.12-.74-4.03-3.48-2.97l9.98,67.99-7.26-3.85-6.72,7.85c.28-4.63-2.9-6.64-7.26-6.8-6.79,2.58-5.9,10.65-7.71,16.39-2.24,1.68-10.01-2.7-11.56-4.58-3.95-4.78-2.77-28.56-3.51-36.49-1.16-12.48-3.14-25.12-4.99-37.51-3.34,5.07-7.09,2.66-11.98,1.48-7.94-1.92-12.73-4.9-18.5-10.5-2.25,3.81,5.65,6.9,6.08,9.47.37,2.23-2.45,12.23-2.63,16-.59,12.78.52,25.74.03,38.53-1.98-.94-1.81-3.95-3.91-5.57-4.95-3.82-8.43,1.37-10.59,5.57-7.2-13.93-15,3.08-13.5,12-5.52-1.61-13.05-4.15-15.87-9.62-5.07-9.83,1.35-39.46,1.91-51.84,1.82-40.23-11.69-76.18-10.09-117.09,1.01-25.75,8.1-54.61,23.7-75.39,6.96,2.95,15.74,8.33,17.36-3.06,7.11,7.36,8.22.15,12.03-1.5,1.57-.68,2.8.82,5.89-1.03,3.9-2.35,5.44-7.11,5.08-11.47,11.18,4.29,6.4-11.87,8.62-14.11,3.21-3.23,13.35-2.33,16.37,1.63-26.95,27.78-37.91,85.84-20.55,120.52,10.71,21.39,31.92,14.14,35.54-7.04-7.86,14.7-21.06,26.47-32.52,7.03-18.6-31.54-6.58-106.79,28.3-124.77,18.34-9.46,37.83-5.72,51.87,9.1ZM249.98,562.89c-4.66-3.7-5.39,13.34-2.47,13.99,5.64-2.21,3.13-9.66,2.47-13.99ZM212.75,568.11l-2.87-.72c-3.28.77-5.79,12.87-1.22,14.39,6.34,2.11,6.42-10.23,4.09-13.66Z" fill="#fff"/>
    <path d="M99,441.39c.52,3.08,4.86,8.78,7.49,10.51,1.97,1.29,19.96,7.4,16.51,10.98-15.72,3.16-23.03,23.91-23.89,38.4-.22,3.65,3.59,7.11-.88,10.63-17.63,13.87-37.82-12.83-43.02-27.74-10.67-30.62-.38-71.24,16.98-97.58,2.32-3.51,20.07-26.73,23.79-23.7,1.59,8.86,5.34,16.68,13.44,21.08,1.53.83,4.74.54,5.39,1.1.5.44,2.28,10.19,3.77,12.74,5.01,8.57,16.38,12.04,24.85,6.02,7.05,12.31,21.7,13.63,31.58,3.58,1.16-1.18,1.78-4.13,2.15-4.34,1.39-.82,7.36.22,10.12-.38,4.67-1.02,11.31-8.35,13.2-12.8,1.54-3.6,2.31-13.23,2.67-13.83.53-.86,13.26-7.27,13.33-12.15,14.49,18.44,26.73,35.39,47.18,47.82,3.89,2.36,19.29,8.51,20.84,11.18s-4.25,9.93-5.68,13.32-6.83,16.75-6.83,19.17v16.5c-16.97.25-34.52-5.96-47.06-17.44l-3.2-27.8-4.22-13.75,5.48,63.99c-12.29-2.72-21.98-4.39-34.2.29-2.26.87-11.58,7.4-12.3,7.4-.87,0-3.11-2.59-4.61-3.1-6.33-2.14-9.57-1.69-15.87.4-2.81-10.27-10.34-18.34-20.76-20.76-2.81-.66-5.87.27-8.54-.46-1.82-.5-5.25-4.46-7.39-5.61-8.26-4.46-17.21-5.94-19.09-16.91-1.03-6.03.87-10.86.76-15.78-.05-1.97.02-1.55-2-1.48.74,6.24-1,14.56,0,20.5Z" fill="#fff"/>
    <path d="M177.05,398.93c-.34.26-1.7,5.03-4.16,7.35-9.96,9.38-23.22,4.31-29.39-6.37-7.84,7.3-18.25,3.7-23.15-4.87-1.83-3.2-3.13-11.49-3.54-11.95-.35-.4-6.83-1.67-8.73-2.77-10.34-6.02-12.07-24.09-11.04-34.74-21.5-13.8-3.51-41.92-5.06-62.16-.42-5.45-2.47-14.5-8.85-15-14.8-1.17-15.35,27.36-6.18,36.05,3.59,3.41,6.7,2.03,9.9,5.01-2.23,9.53-3.14,20.06.77,29.32,1.47,3.47,6.74,8.32,7.18,9.82.24.83.81,8.85.64,9.35-.42,1.28-16.39,14.95-19.39,18.73-7.09,8.93-11.92,19.36-17.54,29.19-5.87-3.8-8.82-12.67-9.49-19.49-2.43-24.64,12.15-99.74,19.63-125.34,11.93-40.8,95.23-75.9,134.06-62.35,12.31,4.3,13.39,13.24,15.05,24.95,2.05,14.46-.67,26.57.28,39.73,1.27,17.75,8,31.1,3.74,50.79-.76,3.51-4.61,9.57-4.66,12.22-.07,4.01,3.07,10.72,2.89,16.98-.31,10.38-4.56,19.9-11.97,27.06-1.75,1.69-5.71,2.74-6.53,4.47-2.68,5.65,0,12.3-6.52,19.48-7.41,8.16-17.14,3.98-17.92,4.57ZM129.64,228.53c-3.88,3.53-13.3,10.25-17.96,12.54-2.87,1.41-7.6,1.48-9.26,2.74-5.19,3.95-5.96,29.14-5.39,35.57,1.18,13.32,11.66,42.19,28.79,37.84,4.16-1.06,9.85-7.88,14.5-10.51,2.72-1.54,8.52-4.5,11.46-4.59,5.68-.17,9.2,6.94,19.51,4.57,6.43-1.48,5.19-8.87,9.21-9.77,9.62-2.17,19.79,7.99,24.06,5.07,6.96-4.76,10.08-25.65,10.22-33.57.12-6.36-2.84-44.32-6.75-47.09-3.35-.22-5.6.74-9.26.34-6.45-.71-13.35-6.89-18.03-6.54s-13.78,7.8-19.31,8.72c-8.82,1.47-17.22-1.48-25.75-2.82-1.44.46-4.46,6.08-6.05,7.52ZM180.99,317.9l-8.96,10.53c-8.11,5.47-20.79,2.46-23.13-7.45-7.32-1.28,2.73,9.46,4.76,10.74,12.11,7.63,25.21-.79,27.33-13.83Z" fill="#fff"/>
    <path d="M567,203.89c-60.63,9.42-123.58,9.92-184.48,1.98-6.93-.9-15.28-2.39-21.52-4.48v-85.5c3.51-.03,4.92,4.97,7.71,5.79,2.65.77,18.34,1.08,22.75,1.25,56.77,2.14,115.15-.8,172.09.91l3.45,1.55v78.5ZM394,156.39c-1.55,9.59,1.15,22.96,0,33l2.53,1.55,29.03-1.98c.45-13.35,5.13-52.62-17.08-50.1-7.46.85-13.42,10.96-14.48,17.53ZM496,161.39c-.94,8.43.7,18.38,0,27l1.5,1.5h29c.98-.62,1.3-1.39,1.5-2.5,1.09-6.11,1.42-18.69.98-24.98-.71-10.15-3.66-24.28-16.5-23.6-10.71.57-15.47,13.58-16.47,22.57Z" fill="#fff"/>
    <path d="M5,348.89c11.52-.9,24.07,3.37,33.01,10.49,13.19,10.5,7.71,13.59,8.96,28.04.69,8,3.62,17.06,11.08,21.06-13.35,34.27-15.36,78.33,13.98,104.91-7.02,42.11-8.99,84.74-11.18,127.36l-26.85,3.14,1.48-19.01c10.7-5.07,19.88-15.82,22.4-27.6,3.71-17.32-10.26-13.16-16.52-2.52l-6.36,13.14v-25.5c0-5.24,6.83-7.66,9.64-10.86,4.3-4.91,21.24-30.59,12.15-34.98-10.86-5.25-16.26,17.41-20.78,23.34-.66-21.36,16.15-47.96,4.19-68.69-9.08-15.75-13.17,12.73-13.26,19.17-.17,12.4,7.07,28.86,7.07,36.03v14.5c-6.16-9.6-7.89-24.21-20.47-28.07-2.77.27-3.24,3.37-3.54,5.55-2.19,15.76,10.35,32.01,23.01,40.02v28.5c-4.04-5.8-6.34-12.88-11.47-18.03-11.92-12-15.43-1.75-11.59,10.59,3.23,10.35,12.05,20.04,22.12,24.07l-.02,20.81-27.04,5.57v-301Z" fill="#fff"/>
    <path d="M591,238.89v35c-27.18,4.55-54.81,8.87-82.46,10.04-73.18,3.1-148.78-3.66-218.96-23.92l-2.57-37.12c97.52,29.33,203.68,33.27,303.99,16Z" fill="#fff"/>
    <path d="M591,202.89v31.5c-2.86,2.16-7.3,2.58-10.78,3.22-25.56,4.69-55.66,7.41-81.68,8.32-70.84,2.46-143.83-5.99-211.54-26.04v-31c98.5,27,203.29,32.43,304,14Z" fill="#fff"/>
    <path d="M591,276.89v33c-29.67,5.29-59.69,10.54-90,9.99v-15s-74.32-1.03-74.32-1.03c-1.1.32-5.68,11.71-7.17,13.05-2.24,2.01-28.01-.48-33-1.03-30.52-3.38-62.68-10.51-92.28-18.22l-5.25-34.25c46.17,12.81,93.49,20.13,141.48,22.52,53.6,2.67,107.83.47,160.54-9.04Z" fill="#fff"/>
    <path d="M473.99,649.88c1.71,9.2-3.67,26.45-13.7,28.79-3.54.82-9.74-.78-11.35-.23-.94.32-3.17,3.54-5.25,4.64-8.11,4.28-12.65,6.89-21.64,2.25-3.89-2.01-9.82-9.98-10.72-10.28-2.32-.78-6.77-.02-10.2-.8-11.47-2.6-17.11-16.47-16.27-27.23-8.47-2.06-12.9-6.64-12.94-15.63,0-2.12,1.74-17.47,2.32-18.26.75-1.02,14.97-7.45,16.26-12.24-1.11,33.04,31.58,67.16,64.82,48.82,27.02-14.91,28.17-62.01,16.71-87.35,3.43-5.22,7.53-6.2,8.73-13.21,3.93-23.02-17.21-24.72-24.26-5.28-11.68-8.93-25.78-8.72-38.85-3.06-2.25-2.1-2.77-4.64-5.12-6.96s-8.31-4.54-9.05-5.95c-2.35-4.5-1.68-16.77-5.49-22,6.05-.6,10.95.3,16.37,2.86,7.79-10.13,20.23-14,31.98-7.72,2.48,1.32,7.28,7.02,9.36,7.64,3.94,1.18,7.24-.91,10.74-.82,15.8.45,23.01,19.67,24.31,32.85.32,3.22-1.54,6.15-.56,9.46,1.38,4.65,9.37,9.34,10.71,20.3,2.02,16.58-7.04,22.49-7.89,31.98-.23,2.59,2.7,8.85,3.01,12.9,1.03,13.57-5.2,35.8-22.04,34.53Z" fill="#fff"/>
    <path d="M428.78,540.17c45.5-5.97,55.44,53.31,42.95,85.96-17.79,46.5-79.35,24.21-78.52-22.74.17-9.75,4.6-14.32,6.93-22.85,2.69-9.87,2.29-22.2,9.31-29.69,4.46-4.75,12.76-9.82,19.32-10.68ZM419.02,595.88c4.16,2.61,7.41-9.62,2.39-11.9l-2.48.49.09,11.41ZM456.01,596.88c9.45,1.09,5.72-17.35.9-12.39-2.18,4.19-2.58,7.87-.9,12.39ZM458.99,620.9c-1.79-2.05-5.33,10.23-7.99,11.49-3.95,1.88-7.92-.12-8.8-4.23-1.64-7.66,4.68-6.48,7.35-12.21,8.05-17.25-16.01-13.22-16.62-11.44-2.8,11.3,11.58,16.96,3.65,27.46-4.3,3.21-9.23-2.42-11.46-5.72-.37-.55-2.32-9.21-3.16-4.86-.15,5.91,5.22,14.4,11.53,14.41,3.15,0,4.97-3.99,6.81-3.79,1.59.18,3.77,3.88,7.17,3.94,7.11.12,11.24-9.02,11.51-15.07Z" fill="#fff"/>
    <path d="M571.83,91.06l11.06,28.16c-1.55,5.39-28.15,1.68-33.35,1.63-60.56-.66-121.5.1-181.84-1.91l-18.7-29.05,222.83,1.16Z" fill="#fff"/>
    <path d="M357.99,201.89c-15.38-3.59-32.01-5.5-47.23-9.26-2.95-.73-21.5-5.86-22.23-6.77s-.81-3.57-1.82-5.18c-1.18-1.89-3.28-2.1-3.73-4.26-1.12-5.41.23-50.76,1.5-56.53.98-4.43,11.51-22.17,14.5-27.5,7.8-13.87,16.84-27.16,25.51-40.49l34.26,59.73-.77,90.27ZM303,161.89l32.06.56c2.74-13.73,3.84-55.03-6.53-64.59-9.74-8.98-18.91,3.14-22.02,12.04-.55,1.57-3.51,13.55-3.51,14.49v37.5Z" fill="#fff"/>
    <path d="M555.14,557.75c.97.63,5.85-.14,8.13.37,9.95,2.23,15.35,19.27,14.63,28.14-.29,3.59-3.11,8.85-2.86,12.08.42,5.54,8.28,14.95,8.03,26.04-.2,8.66-6.68,16.43-7.07,20.01-.2,1.86,1.31,4.48,1.1,6.99-.57,6.75-2.43,16.56-7.08,21.73-2.53,2.82-10.02,5.11-10.79,6-2.84,3.29-1.65,11.94-11.73,12.81-3.89.34-6.56-1.8-7.03-1.78-2.58.09-3.58,8.7-14.8,6.5-4.15-.81-6.27-7.48-7.63-8.34-.69-.44-8.03,3.84-15.54-1.42-6.7-4.69-6.53-11.69-9.07-17.96-4.14,3.21-17.01,1.88-18.26-3.75-.16-.73,1.44-11.12,1.77-11.63.26-.4,6.6-2.36,8.53-3.68,9.73-6.7,13.73-25.21,12.41-36.37-.39-3.28-3.12-8.63-2.88-11.07.29-2.93,5.92-10.88,6.73-16.31.96-6.43.69-18.94-1.43-25.05-1.99-5.72-7.2-6.26-1.84-12.23,3.33-3.72,12.98-8.26,17.99-8,5.69.29,9.42,4.95,12.43,5.56s9.15-3.02,16.65-.56c7.75,2.54,8.53,11.23,9.59,11.91ZM552.99,584.89c-5.29-3.82-12.92-7.53-19.49-7.79-2-.08-5.34,1.91-6.54,1.31-1.85-.93-3.17-8.21-9.54-8.5-10.24-.46-12.48,11.58-11.32,19.39.48,3.22,2.96,6.31,2.96,9.09,0,3-4.93,12.07-5.79,16.26-5,24.32,5.35,61.18,36.15,57.15,20.05-2.63,27.69-28.07,27.68-45.41,0-6.28-3.28-16.95-2.96-22.06.23-3.66,7.7-6.95,6.67-15.67-1.28-10.85-14.55-16.22-17.82-3.77Z" fill="#fff"/>
    <polygon points="570 87.88 347.72 86.9 333 59.9 558.51 62.88 570 87.88" fill="#fff"/>
    <path d="M591,400.89v139c-4.01-5.7-6.41-12.51-9.99-18.51-12.65-21.16-31-42.51-51.07-56.93-2.78-1.99-16.64-9.11-17.47-10.59-3.74-6.59,13.83-20.22,20.54-8.98v-17.5c0-13.97,19.43-30.22,29.84-13.84l4.65,9.33c4.06-11.64,8.64-23.87,23.52-21.99Z" fill="#fff"/>
    <path d="M486,709.39c-.09-.34-1.36-1.53-1.99-1.5l-1.59,8.86c-7.12-.14-12.06-3.51-18.42-5.86,3.2,5.03-.26,9.01-.88,14.62-.55,5.02-1.91,13.51.84,17.65,2.08,3.12,10.93,5.89,4.05,12.73l-.99-6.33-3.02-.66,2,8.99-5.89-.12c-.74-6.56-6.31-9.8-7.11-16.38-1.65-13.47,1.73-30.43,2.98-44.01.31-3.4-.97-13.33,1-15,7.6-1.4,14.07-5.67,16.04-13.48,6.88,3.9,11.54,7.09,19.97,3.99.3,6.82,6.16,17.49,12.96,19.56,4.41,1.35,9.74-.81,11.47-.37,1.33.34,4.04,6.95,10.18,7.77,4.51.6,6.4-1.58,10.41-1.96,1.73,11.97,1.96,25.89,6.28,37.23,3.25,8.53,16.34,14.98,4.74,22.77-.97-3.88-.8-10.23-6.01-9.99l4.08,11.36c-17.51,10.57-24.05-20.51-26.42-32.51-.95-4.81-2.09-6.63,1.34-10.84l-8.99,2.98c-1.17-1.15,3.85-8.85,0-9.99-.9,11.29-6.53,30.31-3.56,41.04.84,3.01,8.25,10.28,4.53,13.95-2.53,2.49-2.34-7.23-4.97-7l.87,9.35c-9.81,7.73-4.61-4.65-9.87-8.35l1.98,12c-9.6.99-15.99-10.3-15.99-18.5,0-9.14,1.75-35.13,0-42Z" fill="#fff"/>
    <path d="M545.74,38.15c.88.79,12.2,20.03,11.26,20.73-75.48.6-150.98-.78-226.33-2.16l-12.68-22.32,227.75,3.75Z" fill="#fff"/>
    <path d="M382.83,649.05c.68.94-.12,6.67.41,9.1,1.78,8.07,8.94,16.6,16.78,19.22,3.89,1.3,10.34,1.12,11.97,2.03,1.43.79,5.8,6.96,9.31,8.69,6.11,3.02,16.52,2.33,22.45-.97,3.04-1.69,5.71-8.74,9.75-4.23,1.36,17.54-4.38,37.39-3.53,54.54.53,10.66,7.76,15.28,8.07,24.93.04,1.11.64,3.79-1.03,3.52-.47-2.26-2.7-11.18-5.99-7.5,3.02,3.64,6.62,14.82-1.01,12.86-.5-4.55-1.04-9.06-4.52-12.35l2.51,13.99c-6.58.03-12.32,1.2-16.19-5.31-4.58-7.7-7.43-38.94-6.77-48.14.21-2.9,2.95-3.85,2.95-6.54l-9.98,7.99,1.98-12.99c-2.97-.53-1.58.8-2.12,2.32-2.77,7.85-8.17,31.44-6.64,38.95,1.15,5.62,7.42,11.29,3.75,18.72l-4.49-7.99c-.63,4.05,3.53,8.37-.11,12.06l-3.94-1.01-2.95-10.05.51,12c-31.69,1.35-15.92-37.12-17-56,14.77,1.59,26.6-14.77,17.56-27.08-11.46-1.57-17.54-.25-23.74-11.26s-7.11-23.52-8.81-35.18c1.44,2.22,10.45,5.18,10.8,5.67Z" fill="#fff"/>
    <path d="M268,169.89c-5.85,78.32,4.03,161.64,40.99,231.52.27,2.05-.1,1.29-1.46,1.48-2.01.28-12.02-.36-13.32-1.2s-13.12-22.56-14.73-25.77c-25.67-51.3-35.3-132.56-31.51-189.56.33-5.02.98-12.21,3.54-16.46h16.5Z" fill="#fff"/>
    <path d="M188.39,154.49c1.57,1.52,14.17,14.9,12.6,16.39-46.79-10.74-95.45,11.18-128.98,43,2.52-16.3,8.56-31.93,18.16-45.33,23.31-32.53,67.59-43.69,98.22-14.07Z" fill="#fff"/>
    <path d="M210.67,180.21c3.42,3.91,8.38,20.85,5.31,24.67-12.5-13.26-32.52-12.94-49.36-10.86-38.72,4.77-79.03,28.61-99.62,61.87-16.77-40.13,46.07-71.94,76.54-79.94,16.28-4.28,54.89-9.71,67.12,4.27Z" fill="#fff"/>
    <path d="M417,320.9l-18.69,30.88c-33.13-3.91-65.77-10.53-98.22-17.99l-5.08-32.9c40.03,9.56,80.66,18.72,121.99,20.01Z" fill="#fff"/>
    <path d="M325.99,406.88c-2.83-1.71-12.09-2.04-13.75-3.23-.8-.57-8.13-15.2-9.12-17.38-5.72-12.54-11.81-29.91-15.84-43.16-16.6-54.59-21.74-114.34-17.28-171.21,1.28-1.46,14.82,8.88,14.78,11.71-1.19,76.09,5.02,155.31,41.21,223.28Z" fill="#fff"/>
    <path d="M591,397.89c-12.01-2.18-21.84,7.69-23.01,19-5.48-9.19-12.46-17.81-24.16-11.67-4.5,2.36-7.1,8.68-9.88,10.12-3.39,1.75-31.46,3.36-37.41,3.59-13.13.5-26.4-.44-39.54-.05l15.64-28.85c39.74-.05,79.52-4.28,118.36-12.14v20Z" fill="#fff"/>
    <path d="M591,346.89v29c-19.78,3.07-39.54,7.12-59.52,8.98-15.61,1.45-35.44,2.92-50.98,3.12-1.18.01-6.47-.47-6.52-1.62l14.7-28.52c34.49.61,68.63-4.54,102.32-10.96Z" fill="#fff"/>
    <path d="M591,343.89c-33.29,6.73-67.06,10.37-101.01,11.49,4.25-10.64,11.49-19.19,11.94-31.06,29.7-3.81,60.34-3.55,89.07-12.43v32Z" fill="#fff"/>
    <path d="M387.4,494.5c20.27,21.66,18.34,72.43,5.48,97.77-3.37,6.64-10.26,15.92-17.88,16.61,9.17-30.6,7.66-63.13-3.52-92.97-4.07-10.85-10-20.46-16.48-30.01,14-5.81,22.74-1.72,32.39,8.6Z" fill="#fff"/>
    <path d="M267.61,603.51c-1.89,2.36-6.08,7.58-6.67,2.87-.68-5.48,2.79-18.5,3.04-25.01.76-19.85-3.74-49.29-11.22-67.74-4.7-11.58-11.46-22.87-21.67-30.34-1.52-2.3,5.1-4.9,6.64-5.18,23.89-4.3,36.06,23.81,39.82,42.72,4.26,21.43,4.28,64.92-9.94,82.67Z" fill="#fff"/>
    <path d="M396.99,353.9c1.11.99-13.4,24.99-14.49,26.01s-1.45.93-2.85.94c-4.63.04-22.85-4.05-28.9-5.22-13.29-2.57-26.49-6.53-39.77-9.23l-8.98-29.51c31.11,7.86,62.93,14.54,94.98,17.01Z" fill="#fff"/>
    <path d="M343.99,665.89l7.03,21.48-1.03,70.52c-7.59-7.81-7.4,2.82-9.16,3.83-1.54.88-4.07-.9-6.89,1.62-2.39,2.13-3.33,7.45-2.95,10.56l-11.06-2.62-.94-57.89c10.09-9.48,16.13-19.45,20.26-32.73,1.37-4.39,1.39-9.52,2.7-13.31.46-1.34-.6-1.78,2.03-1.45Z" fill="#fff"/>
    <path d="M357,420.91l-27.49,49-9.51.98c-1.43-1.26,5.12-9.5,5.55-10.94,6.1-20.03-19.88-37.9-37.52-34.06-2.96-11.87-18.23-11.59-26.03-18.98,32.22-5.76,65.64.33,94.99,14Z" fill="#fff"/>
    <path d="M533,418.9l-3,19.99c-11.01-4.69-17.91,3.87-20.04,13.97-20.96-8.01-42.61-10.53-64.95-7.97l11.67-22.82c25.53-.35,51.05.72,76.32-3.17Z" fill="#fff"/>
    <path d="M138.01,477.9c2.13,6.44,6.72,10.45,7.73,17.75.79,5.74,1.1,15.34-7.3,11.3-.4-8.71-2.6-17.66-10.94-22.03-4.45,4.65,1.09,3.71,3.52,6.46,3.33,3.76,8.15,21.59.48,21.54-6.2-.03-7.38-21.98-17.48-13.53-.12.85,10.36.65,10.01,11.98-.41,13.33-21.84-2.31-22.8-8.22s3.28-18.82,6.22-24.29c8.44-15.7,26.66-22.58,40.06-7.98,4.68,5.1,14.61,28.57.95,24.04-2.97-5.83-2.74-14.78-10.47-17.01Z" fill="#fff"/>
    <path d="M312,369.9l66.32,12.17,1.59,2.21-22.23,34.45c-6.55-5.62-23.97-7.71-29.25-12.77-5.8-5.57-11.87-28.28-16.44-36.05Z" fill="#fff"/>
    <path d="M217.99,768.89c-2.06.29-1.63.13-2.25-1.25-1.98-4.42-4.7-18.25-5.49-23.5-1.84-12.16-1.21-24.73-3.84-36.79l14.41-16.14,11.17-26.31c.25,6.57,4.38,13.24,5.07,19.44,2.3,20.77-5.99,47.68-5.05,69.06l-1.5,2.47c-7.62-7-12.55,6.69-12.51,13.03Z" fill="#fff"/>
    <path d="M421,452.9l-11.68,22.02-73.29-12.53c3.26-3.18,11.25-21.15,14.46-21.53l70.51,12.03Z" fill="#fff"/>
    <path d="M447.97,399.93c1.2,1.89-10.52,21.72-12.55,24.77l-70.41-9.82,13.68-22.89,69.29,7.93Z" fill="#fff"/>
    <polygon points="433.99 426.9 422.35 449.78 351 438.88 362.68 417.85 433.99 426.9" fill="#fff"/>
    <path d="M461,374.89c.95.88-8.82,21.69-12.56,21.99l-68.44-7c-1.06-.95,10.09-19.48,12.49-20l68.5,5.01Z" fill="#fff"/>
    <path d="M315.65,437.25c5.72,5.13,10.63,15.05,7.34,22.64-2.32.45-1.59-.19-2.21-1.29-2.26-4-3.51-9.57-7.82-12.16-1.82-1.09-7.58-3.59-6.95.44,4.67.91,7.67,3.49,10.02,7.49,2.15,3.66,6.41,14.71-1.08,13.08-2.87-6.7-6.79-16.57-14.94-17.55.13,4.23,5.34,4.89,8.37,9.12,1.38,1.93,6.17,10.74,3.67,12.43-4.73,3.24-18.39-20.05-22.37-11.35-3.59,7.85,7.98,11.63,1.32,19.32-3.83,2.25-13.46-4.92-15.45-7.58-5.2-6.94,4.29-38.43,10.76-42.62s24.21,3.45,29.33,8.03Z" fill="#fff"/>
    <path d="M474,351.9l-10.68,20.03-69.32-5.04c-.96-.94,8.37-18.48,11.52-18.97l68.47,3.99Z" fill="#fff"/>
    <path d="M274.69,370.2c2.02,2.45,5.96,13.35,8.15,17.36,2.71,4.98,6.03,9.66,9.17,14.32l-34,2.59c-3.75-.82-24.33-19.79-24.84-23.3-.78-5.4,14.39-12.96,18.78-13.83,5.11-1.01,19.23-1.4,22.75,2.87Z" fill="#fff"/>
    <path d="M485.99,327.9l-10.65,20.9-68.34-3.91c-1.31-1.28,8.31-16.38,9.68-19.03l69.32,2.04Z" fill="#fff"/>
    <path d="M92.85,704.74c-6.31,1.16-27.41-3.77-28.83-10.37-.25-1.19-.26-7.79.14-8.33.26-.34,4.37-1.84,6.8-4.69,11.96-13.99,3.11-30.07,3.01-43.91-.07-9.42,6.33-22.45,9.04-31.55l3.12,35.35c3.13,20.93,10.77,42.17,6.71,63.49Z" fill="#fff"/>
    <polygon points="314.5 34.91 322.55 49.83 281.51 119.9 266.97 120.42 314.5 34.91" fill="#fff"/>
    <polygon points="497 306.89 488.88 324.77 487.55 324.96 419 321.88 427 306.89 497 306.89" fill="#fff"/>
    <path d="M374.99,713.91c-3.34,8.42-8.52,16.72-6.76,26.25,1.21,6.57,9.68,14.66-3.23,17.73.08-3.78-1.19-8.42-2.75-11.81-.64-1.39.63-2.74-2.25-2.19l2,15c-3.77.06-9.85.81-10.06-4.45l.07-63.56c7.05,8.19,11.86,19.35,22.98,23.02Z" fill="#fff"/>
    <path d="M273.85,711.04c.64,10.66,5.2,24.25-1.87,32.85-2.49,1.49-3.68-6.68-9.34-1.85-3.09,2.63-3.71,7.09-3.64,10.86-20.54-2.28-5.4-33.49-8.85-47.36l1.36-1.62c6.03,5.56,14.13,7.88,22.35,7.13Z" fill="#fff"/>
    <path d="M408,477.9l-12.5,21.97c-8.19-12.09-17.27-20.89-33-18.98-3.07.37-8.07,3.25-9.78,2.85s-6.26-5.45-8.39-6.69c-2-1.17-13.26-5.75-13.31-6.66l4.38-4.45,72.6,11.96Z" fill="#fff"/>
    <path d="M158.99,743.89l-6.39-4.08c-3.99,4.32-4.79,9.35-5.68,14.99-2.28.48-6.92-.11-7.75-2.58-.97-2.89-.53-27.19-.21-31.87.38-5.41,1.72-11.21,3.05-16.46l17.88,5.64-.9,34.36Z" fill="#fff"/>
    <path d="M287,482.91l-12.49,18.98c-8.98-20.49-26.16-34.89-48.5-21.99l-2-21.99c8.92,5.93,16.55,10.45,26.99,13.5,7.4,2.16,18.8,2.68,25.04,4.96,3.46,1.26,6.57,6.26,10.96,6.55Z" fill="#fff"/>
    <path d="M63.99,668.9c-2.29-2.65-5.37,11.36-7.98,8.99-5.12-6.11,4.98-39.54,11.29-38.85,11.86,1.31,9.73,38.49-.83,43.85-4.13.72-1.98-11.5-2.48-13.99Z" fill="#fff"/>
    <path d="M80.74,271.05c13.67-2.37,9.25,33.65,5.63,34.76-12.78,3.91-19.46-32.37-5.63-34.76Z" fill="#fff"/>
    <path d="M230.99,377.89c-1.82-2.08-12.5-15.39-12.63-16.48-.2-1.67,3.16-8.22,3.55-11.11,1.2-8.98-2.02-16.4-1.95-22.93.05-4.64,5.93-12.55,4.05-18.48,1.53.21,1.63,4.3,1.84,5.65,3.28,20.87,4.97,42.2,5.14,63.35Z" fill="#fff"/>
    <path d="M35.99,541.89c-3.79-4.84-5.52-14.24-6.02-20.46-.38-4.72-.77-30.42,4.55-31.53,12.58,12.09,5.34,36.93,1.47,52Z" fill="#fff"/>
    <path d="M32.99,573.88c-11.9-6.06-25.76-24.57-19.38-37.94,6.63-1.98,16.23,21.91,17.65,27.19.95,3.55,2.17,6.97,1.73,10.75Z" fill="#fff"/>
    <path d="M31.99,620.89c-11.01-5.81-24.25-20.07-21.06-33.57,5.05-3.6,13.91,9.59,15.88,13.26,3.21,6,5.76,13.47,5.18,20.31Z" fill="#fff"/>
    <path d="M473.69,557.56c-.72.56-1.42,1.01-2.34,1.15-1.17-.03-11.18-12.08-11.37-13.39-.64-4.44,5.12-11.98,9.62-12.43,12.1-1.2,10.91,19.36,4.09,24.66Z" fill="#fff"/>
    <path d="M35.01,621.89c.64-9.79,5.15-24.16,12.96-30.52,2.34-1.91,6.65-5.22,7.83-.74,2.45,9.22-11.4,28.44-20.8,31.27Z" fill="#fff"/>
    <path d="M45.66,566.55c-2.26,2.62-6.8,6.14-9.64,8.34-1.35-6.81,9.56-33.9,15.02-35.44,1.13-.32,2-.93,3.34-.5,4.7,8.21-3.2,21.19-8.72,27.59Z" fill="#fff"/>
    <path d="M73.53,703.89c3.25,3.72,17.87,2.26,19.03,3.93,3.55,5.11-5.89,13.43-8.16,17.98-10.27-2.82-15.97-11.88-10.87-21.91Z" fill="#fff"/>
    <path d="M72,637.89l-3.88-1.67c-1.17-3.11,7.18-32.54,8.87-37.85s3.31-12.13,7.01-16.48c1.75,19.87-10.08,36.64-11.99,56Z" fill="#fff"/>
    <path d="M89.99,740.89c-9-2.07-24.2-8.15-17.49-19.97l17.61,10.41-.12,9.56Z" fill="#fff"/>
    <path d="M199,783.89l-11.56-.94c-1.8-2.59.48-13.05,3.56-14.58l3.33-.37c4.58,3.84,4.93,10.32,4.68,15.89Z" fill="#fff"/>
    <path d="M246.66,698.2c1.61,2.61,2.42,13.33-.16,13.66l-8.35-4.13.86-19.84c2.11,2.14,3.64,5.69,5.17,8.36.61,1.08,2.19,1.46,2.49,1.94Z" fill="#fff"/>
    <path d="M131.88,754.03c5.7,9.27,3.42,16.05-7.87,16.87-.24-5.96-.57-17.88,7.87-16.87Z" fill="#fff"/>
    <path d="M306.01,775.9h-10.01c-.53-3.24.88-16.4,4.55-16.99,6.14,3.31,5.65,11.13,5.46,16.99Z" fill="#fff"/>
    <path d="M120.99,771.89l-10-.99c-1.35-1.35,2.03-18.87,7.57-14.07,3.92,4.03,2.06,10.01,2.43,15.06Z" fill="#fff"/>
    <path d="M209.73,768.16c5.07,7.68,1.57,14.81-7.73,14.73-.13-4.03-.92-15.31,4.64-15.71l3.09.97Z" fill="#fff"/>
    <path d="M405.01,551.89c1.2-5.5-1.81-12.5-1.03-17.52.22-1.38-.55-1.7,1.54-1.52,2.88-.28,9.73,7.08,9.31,9.4l-9.82,9.65Z" fill="#fff"/>
    <path d="M315.9,758c3.77,8.13,2.53,14.79-6.89,16.89.34-6.12-2.46-17.75,6.89-16.89Z" fill="#fff"/>
    <path d="M296.01,476.89c1.64-6.42-5.11-8.88-4.01-14.99,2.66-2.69,10.87,7.79,12.97,9.5l-8.97,5.5Z" fill="#fff"/>
    <path d="M270,754.89l-10-1.01,2.99-9.52,3.45-.5c5.12.76,3.35,7.45,3.56,11.02Z" fill="#fff"/>
    <path d="M149.01,755.88l3.13-11.84c3.75-2.18,7.63,5.37,6.43,7.83l-9.56,4.01Z" fill="#fff"/>
    <path d="M220.01,768.88c.71-4.8,2.44-13.33,9.05-10.55,3.31,5.5-3.79,10.47-9.05,10.55Z" fill="#fff"/>
    <path d="M343,771.89c.71-4.64-2.69-14.22,4.39-12.92,3.16,1.04,2.97,15.6-4.39,12.92Z" fill="#fff"/>
    <path d="M332.99,773.89l1.48-8.03c4.13-3.85,8.47,3.22,7.11,7.07l-8.59.95Z" fill="#fff"/>
    <path d="M272.01,753.89c.03-3.81.27-8.41,3.49-10.97l1.35,9.33-4.85,1.64Z" fill="#fff"/>
    <polygon points="91.99 727.88 87 726.88 91.51 719.9 91.99 727.88" fill="#fff"/>
    <path d="M102.64,511.06c1.34-.25,4.51,1.46,4.25,3.16-.18,1.2-4.1,5.18-5.09,6.98-7.06,12.9-10.04,24.73-14.5,38.5-3.63,11.19-7.46,22.61-11.01,33.99-3.96,12.69-6.12,27.1-10,39-.61,1.88-1.21,3.85-2.81,5.18,1.94-25.74,2.03-51.74,4.53-77.46.47-4.88,4.87-45.27,7.48-45.5,5.73,4.99,13.21,4.99,19.82,1.79,2.17-1.05,6.54-5.5,7.33-5.65Z" fill="#fff"/>
    <path d="M320,691.89c-2.55,1.41-2.81,6.79-3.03,9.47-1.25,15.02-.25,34.63-.02,50.08.02,1.35.03,2.94,1.02,3.97-7.75-4.25-7.83,1.34-11.48,6.48-.96-4.7-4.54-6.02-8.85-4.08l-4.66,17.09c-6.56-1.23-12.49-4.57-13.92-11.57l-2.04-50.91c.36-3.45,4.44-3.58,6.47-5.52,6.25-5.98,10.27-15.19,4.84-23.09-6.05-3.96-15.24,6.51-22.55-7.21-9.16-17.19-7.64-44.66-5.64-63.54,5.07-3.21,5.04,2.75,7.93,5.26,10.33,8.98,24.37.6,28.43-10.42.89-2.42,3.5-12,.51-13,.11,18.09-19.37,35.77-31.92,15.32,17.44-19.88,18.98-51.35,16.88-76.79-.43-5.24-6.71-27.11-6.4-28.54.22-1.02,5.52-9.84,6.59-11.31,17.6-24.15,48.48-28.84,69.85-6.19,16.02,16.97,25.91,51.03,27.01,73.99,1.57,32.85-24.06,99.42,5.07,125.93,7.83,7.13,13.4,2.56,18.89,5.11,8.48,3.93-1.34,24.34-18.41,22.41-31.44-3.56-37.92-50.63-45.07-73.93-3.54-11.55-4.93-8.76-11.72-15.03-2.81-2.59-4.44-6.74-7.79-7.94-1.3,7.98,16.67,14.39,15.82,19.34-1.3,7.54-20.94,2.18-19.82,7.13,5.97,3.99,14.95.04,20.5-3.46,5.49,11.09,6.04,20.39,3.19,32.17-2.93,12.09-9.31,27.44-19.7,34.8v-16ZM368.9,560.99c-9.19-2.59-6.59,17.25-.31,11.99,2.58-3.19,1.57-8.26.31-11.99ZM323.61,562.97c-3.12,1.03-2.12,14.58,1.87,13.91s5.33-16.29-1.87-13.91Z" fill="#fff"/>
    <path d="M500,327.39c-.57,4.63-3.78,10.73-5.83,15.17-12.8,27.71-29.49,56.05-43.54,83.46-13.21,25.76-26.23,51.69-38.68,77.83l-14.92-.45,102.98-193.51c-.49,5.56.67,12.08,0,17.5Z" fill="#fff"/>
    <polygon points="84.5 579.89 85 580.39 84.5 580.89 84.5 579.89" fill="#fff"/>
    <path d="M54.01,778.88c3.32-5.3,11.22-20.17,19.31-15.07,9.1,13.79-5.83,24.53-13.84,34.06-2.44.41-1.67-1.77-.98-2.98,3.25-5.71,22.08-17.99,14.04-27.08-4.71-5.32-12.63,5.64-14.73,9.38s-3.22,10.03-4.78,12.22c-.73,1.01-1.68,2.04-2.54.49-1.23-9.24,8.76-49.74-3.22-52.87-6.39-.86-7.86,5.28-8.3,10.3-1.26,14.4,5.47,29.38,7.03,43.54-2.49,2.82-6.13-12.17-6.51-12.98-1.89-4.09-15.53-28.06-19.31-14.27-2.61,9.5,18.75,29.62,17.84,33.75l-1.99.5c-4.16-6.78-27.79-34.5-13.73-40.27,7.1-2.91,13.6,8.3,16.7,13.27-2.18-8.18-6.52-34.23,4.74-36.8,17.6-4.03,10.81,35.71,10.28,44.8Z"/>
    <path d="M566.01,803.89c8.43-7.33,11.34.68,8.43,8.97-.56,1.6-.99,4.71-3.43,4.03l1.98-12.99-8.99,5.51c-2.8-1.91,2.76-13.12-1.97-16.04-5.01-3.1-4.42,13.48-6.55,14.52-1.56.76-3.94-10.37-5.62-11.35-9.04-11.26-.95,16.33-.93,17.95.03,1.79-.95,2.46-1.92,1.41-2.03-2.17-5.17-19.77-3.1-23.33l1.97-1.2c4.39-.51,6.42,6.38,9.11,8.53-.32-3.78,4.17-13.03,9.07-9.55l1.95,13.56Z"/>
    <path d="M122.01,37.88c2.63.13,3.53-2.8,5.94-3.55,14.59-4.5,23.74,14.37,22.06,26.55,26.81-8.06,31.61,39.75,7.53,42.05-15.2,1.45-77.89,1.96-90.57-1.51-25.79-7.06-18.13-68.09,13.03-51.54-3.98-32.66,35.43-52.5,42.01-12ZM82,39.39c-.72,4.98.53,11.34,0,16.5-17.01-16.11-28.71,2.99-28.04,20.55.6,15.74,9.65,22.34,24.5,23.5,26.23,2.05,55.31-1.45,81.84-.25,16.69-5.31,13.55-37.56-4.54-36.58-4.44.24-5.3,3.48-8.74,4.78,3.46-12.12-1.92-34.73-18.3-30.78-4.35,1.05-4.55,7.45-8.24,4.81.62-31.15-34.54-29.65-38.47-2.53Z"/>
    <path d="M212.75,568.11c2.33,3.43,2.25,15.77-4.09,13.66-4.57-1.52-2.06-13.62,1.22-14.39l2.87.72Z"/>
    <path d="M249.98,562.89c.66,4.34,3.17,11.79-2.47,13.99-2.92-.65-2.2-17.69,2.47-13.99Z"/>
    <path d="M323.61,562.97c7.2-2.38,6.04,13.21,1.87,13.91s-4.99-12.88-1.87-13.91Z"/>
    <path d="M368.9,560.99c1.25,3.73,2.27,8.8-.31,11.99-6.27,5.26-8.88-14.58.31-11.99Z"/>
    <path d="M129.64,228.53c1.59-1.44,4.61-7.06,6.05-7.52,8.53,1.34,16.93,4.29,25.75,2.82,5.53-.92,14.76-8.38,19.31-8.72s11.59,5.83,18.03,6.54c3.66.4,5.91-.56,9.26-.34,3.91,2.77,6.87,40.72,6.75,47.09-.14,7.92-3.26,28.81-10.22,33.57-4.27,2.92-14.45-7.23-24.06-5.07-4.02.9-2.78,8.3-9.21,9.77-10.31,2.37-13.83-4.74-19.51-4.57-2.94.09-8.74,3.05-11.46,4.59-4.65,2.63-10.34,9.46-14.5,10.51-17.12,4.35-27.61-24.53-28.79-37.84-.57-6.43.2-31.62,5.39-35.57,1.66-1.26,6.39-1.33,9.26-2.74,4.66-2.29,14.08-9.01,17.96-12.54ZM207.99,224.9c-4.03-.12-8.03.35-12.04-.46-4.41-.89-10.8-6.48-14.45-6.47-3.33,0-14.46,7.95-21.09,8.82-7.11.93-21.41-3.33-23.83-2.72-.55.14-5.83,6.86-7.57,8.32-2.93,2.46-10.71,8.87-13.64,10.36s-10.2,2.54-11.88,4.12c-4.68,4.39-5.04,26.98-4.36,33.38,1.1,10.44,11.99,37.02,25.13,34.45,6.35-1.24,16.89-15.47,28.34-15.78,5.19-.14,11.1,9.51,19.93,3.97,11.77-7.38-4.67-28.83-3.52-30.01,7.75,2.97,7.38,13.87,9.99,20.52,2.83,2.2,5.64.16,9.22.7,10.53,1.59,14.23,12.65,20.33-3.19,7.69-19.97,1.09-45.41-.55-66.02Z"/>
    <path d="M180.99,317.9c-2.12,13.04-15.21,21.45-27.33,13.83-2.03-1.28-12.08-12.02-4.76-10.74,2.34,9.91,15.03,12.92,23.13,7.45l8.96-10.53Z"/>
    <path d="M496,161.39c1.01-8.99,5.77-22.01,16.47-22.57,12.84-.68,15.8,13.45,16.5,23.6.44,6.29.11,18.87-.98,24.98-.2,1.11-.52,1.88-1.5,2.5h-29l-1.5-1.5c.7-8.62-.94-18.57,0-27ZM526,186.89v-32.5c0-.45-2.59-5.98-3.16-6.84-9.51-14.38-24.84.44-24.84,12.84v26c8.08,3.6,18.92-1.11,28,.5Z"/>
    <path d="M394,156.39c1.06-6.57,7.03-16.68,14.48-17.53,22.21-2.53,17.53,36.74,17.08,50.1l-29.03,1.98-2.53-1.55c1.15-10.04-1.55-23.41,0-33ZM396,165.39c-.58,7.26.42,15.17,0,22.5l27.94-1.06c2.32-12.39,3.38-51.03-18-44.49-7.35,2.25-9.43,16.58-9.94,23.05Z"/>
    <path d="M458.99,620.9c-.27,6.05-4.4,15.19-11.51,15.07-3.4-.06-5.59-3.76-7.17-3.94-1.84-.21-3.66,3.79-6.81,3.79-6.32,0-11.68-8.5-11.53-14.41.83-4.35,2.78,4.31,3.16,4.86,2.24,3.29,7.16,8.93,11.46,5.72,7.93-10.5-6.46-16.16-3.65-27.46.61-1.79,24.66-5.81,16.62,11.44-2.68,5.74-8.99,4.55-7.35,12.21.88,4.11,4.84,6.11,8.8,4.23,2.66-1.26,6.2-13.55,7.99-11.49ZM444.78,618.65c.3-.16,3.61-5.17,3.78-5.71,2.79-8.72-7.89-6.9-13.57-7.06-1.42,5.22,3.14,16.22,9.79,12.77Z"/>
    <path d="M456.01,596.88c-1.68-4.52-1.28-8.2.9-12.39,4.82-4.96,8.55,13.48-.9,12.39Z"/>
    <path d="M419.02,595.88l-.09-11.41,2.48-.49c5.02,2.28,1.77,14.51-2.39,11.9Z"/>
    <path d="M303,161.89v-37.5c0-.94,2.96-12.92,3.51-14.49,3.11-8.9,12.28-21.02,22.02-12.04,10.38,9.57,9.27,50.86,6.53,64.59l-32.06-.56ZM334,159.89c2.22,0,.49-40.24-.26-44.24-4.61-24.6-21.08-22.27-26.27.21-1.94,8.41-2.21,21.57-2.51,30.49-.14,4.09-.9,10.49,1.54,13.54h27.5Z"/>
    <path d="M552.99,584.89c3.27-12.45,16.54-7.08,17.82,3.77,1.03,8.73-6.44,12.01-6.67,15.67-.32,5.11,2.96,15.78,2.96,22.06,0,17.34-7.64,42.78-27.68,45.41-30.8,4.04-41.15-32.83-36.15-57.15.86-4.2,5.79-13.27,5.79-16.26,0-2.78-2.49-5.87-2.96-9.09-1.16-7.81,1.08-19.85,11.32-19.39,6.37.29,7.69,7.56,9.54,8.5,1.19.6,4.53-1.39,6.54-1.31,6.58.26,14.2,3.97,19.49,7.79ZM511.98,594.88l11.96-14.63c-3.54-12.3-16.73-7.7-16.72,4.14,0,1.81,1.79,12.26,4.75,10.49ZM511.57,655.32c6.89,9.44,14.89,14.65,26.97,13.6,35.59-3.09,34.97-88.94-5.03-88.11-14.06.29-24.7,20.24-27.88,32.21-3.9,14.66-3.04,29.99,5.94,42.31ZM562.01,600.89c10.45-3.58,6.22-26.25-4.99-18.48-7.3,5.07,5.96,11.92,4.99,18.48Z"/>
    <path d="M82,39.39c3.93-27.11,39.09-28.62,38.47,2.53,3.69,2.63,3.89-3.76,8.24-4.81,16.38-3.96,21.75,18.65,18.3,30.78,3.44-1.3,4.3-4.54,8.74-4.78,18.1-.98,21.23,31.26,4.54,36.58-26.53-1.2-55.6,2.3-81.84.25-14.85-1.16-23.9-7.76-24.5-23.5-.67-17.56,11.03-36.66,28.04-20.55.53-5.16-.72-11.52,0-16.5Z" fill="#fff"/>
    <path d="M207.99,224.9c-4.03-.12-8.03.35-12.04-.46-4.41-.89-10.8-6.48-14.45-6.47-3.33,0-14.46,7.95-21.09,8.82-7.11.93-21.41-3.33-23.83-2.72-.55.14-5.83,6.86-7.57,8.32-2.93,2.46-10.71,8.87-13.64,10.36-2.81,1.43-10.2,2.54-11.88,4.12-4.68,4.39-5.04,26.98-4.36,33.38,1.1,10.44,11.99,37.02,25.13,34.45,6.35-1.24,16.89-15.47,28.34-15.78,5.19-.14,11.1,9.51,19.93,3.97,11.77-7.38-4.67-28.83-3.52-30.01,7.75,2.97,7.38,13.87,9.99,20.52,2.83,2.2,5.64.16,9.22.7,10.53,1.59,14.23,12.65,20.33-3.19,7.69-19.97,1.09-45.41-.55-66.02ZM122.98,256.89c-6.04-.77,2.21-10.55,4.52-12,8.89-5.58,16.41,1.15,10.43,1.61-7.02-2.4-13.7,3.62-14.95,10.38ZM196.99,277.89c-3.06-3.32-2.56-9.1-9.32-7.05-1.73.52-2.27,7.45-3.16,9.04-5.39-13.93,13.72-18.98,12.48-1.99ZM201,242.37l-2.01,1.04c-3.44-7.38-9.31-5.52-15.99-4.52,1.72-9.87,19.1-2.37,17.99,3.49Z" fill="#fff"/>
    <path d="M526,186.89c-9.08-1.61-19.92,3.1-28-.5v-26c0-12.4,15.33-27.22,24.84-12.84.57.86,3.16,6.39,3.16,6.84v32.5Z" fill="#fff"/>
    <path d="M396,165.39c.51-6.47,2.59-20.8,9.94-23.05,21.38-6.55,20.32,32.1,18,44.49l-27.94,1.06c.42-7.33-.58-15.24,0-22.5Z" fill="#fff"/>
    <path d="M444.78,618.65c-6.65,3.45-11.21-7.55-9.79-12.77,5.68.16,16.36-1.67,13.57,7.06-.17.54-3.48,5.55-3.78,5.71Z" fill="#fff"/>
    <path d="M334,159.89h-27.5c-2.44-3.05-1.68-9.45-1.54-13.54.3-8.92.57-22.08,2.51-30.49,5.19-22.48,21.66-24.81,26.27-.21.75,4,2.48,44.24.26,44.24Z" fill="#fff"/>
    <path d="M511.57,655.32c-8.98-12.31-9.85-27.64-5.94-42.31,3.19-11.96,13.83-31.92,27.88-32.21,40-.82,40.62,85.03,5.03,88.11-12.08,1.05-20.09-4.16-26.97-13.6ZM521.02,624.88c5.5.56,6.8-7.37,2.45-9.98-4.52,1.36-3.66,6.71-2.45,9.98ZM554.89,619.01c-5.6-3.78-6.31,8.22-3.38,8.87,3.27-.08,4.34-7.08,3.38-8.87ZM540.23,649.11c.88-1.69,17.16-12.79,1.17-15.11-17.6-2.56-2.92,12.75-4.57,18.17-.98,3.22-6.14,3.5-8.84,2.22-2.43-1.15-3.54-7.52-6.99-7.49,1.07,7.6,9.56,16.41,16.5,9.05,4.56,8.72,13.8,1.98,13.49-6.05-3.59,0-2.96,6.6-7.48,6.63-3.41.02-4.57-4.94-3.28-7.42Z" fill="#fff"/>
    <path d="M511.98,594.88c-2.97,1.77-4.75-8.68-4.75-10.49-.01-11.84,13.18-16.44,16.72-4.14l-11.96,14.63Z" fill="#fff"/>
    <path d="M562.01,600.89c.98-6.56-12.29-13.41-4.99-18.48,11.21-7.77,15.44,14.9,4.99,18.48Z" fill="#fff"/>
    <path d="M122.98,256.89c-6.04-.77,2.21-10.55,4.52-12,8.89-5.58,16.41,1.15,10.43,1.61-7.02-2.4-13.7,3.62-14.95,10.38Z"/>
    <path d="M183.01,238.88c1.72-9.87,19.1-2.37,17.99,3.49l-2.01,1.04c-3.44-7.38-9.31-5.52-15.99-4.52Z"/>
    <path d="M196.99,277.89c-3.06-3.32-2.56-9.1-9.32-7.05-1.73.52-2.27,7.45-3.16,9.04-5.39-13.93,13.72-18.98,12.48-1.99Z"/>
    <path d="M540.23,649.11c-1.29,2.48-.14,7.44,3.28,7.42,4.52-.03,3.89-6.64,7.48-6.63.31,8.04-8.93,14.78-13.49,6.05-6.94,7.35-15.42-1.45-16.5-9.05,3.44-.02,4.56,6.35,6.99,7.49,2.69,1.27,7.86.99,8.84-2.22,1.65-5.42-13.03-20.73,4.57-18.17,15.99,2.32-.29,13.42-1.17,15.11ZM545.01,636.89l-9.54-.04c-1.43,2.23,1.78,9.83,4.99,9.08,3.66-.31,5.07-6.02,4.55-9.05Z"/>
    <path d="M521.02,624.88c-1.22-3.27-2.07-8.62,2.45-9.98,4.35,2.61,3.05,10.54-2.45,9.98Z"/>
    <path d="M554.89,619.01c.96,1.79-.11,8.79-3.38,8.87-2.93-.65-2.23-12.65,3.38-8.87Z"/>
    <path d="M545.01,636.89c.52,3.02-.89,8.73-4.55,9.05-3.21.75-6.42-6.85-4.99-9.08l9.54.04Z" fill="#fff"/>
  </g>
  <path d="M146.77,281.68c-3.06-3.32-2.56-9.1-9.32-7.05-1.73.52-2.27,7.45-3.16,9.04-5.39-13.93,13.72-18.98,12.48-1.99Z"/>
</svg>