<?xml version="1.0" encoding="UTF-8"?>
<svg id="Camada_1" xmlns="http://www.w3.org/2000/svg" version="1.1" viewBox="0 0 595.28 841.89">
  <!-- Generator: Adobe Illustrator 29.0.0, SVG Export Plug-In . SVG Version: 2.1.0 Build 186)  -->
  <g>
    <path d="M.14,841.29V-.06h595v841.34H.14ZM591.19,3.23H3.43v587.63c15.54,3.36,28.92-2.84,41.8-10.53,12.05,7.07,26.85,13.76,41.03,8.87-26.25-33.39-38.11-70.74-43.96-112.47-2.23-15.93-5.51-39.03-4.02-55.11,1.3-13.99,17.79-16.91,27.57-9.85,2.89,2.09,3.43,7.15,5.08,8.06,1.35.75,20.99,5.38,21.9,4.72l-10.84-54.53c-11.98,7.76-38.48,11.85-48.35-.33-2.9-3.58-3-6.9-5.29-10.5,1.71-16.71,12.91-34.01,28.53-41.89,2.76-1.39,5.86-2.02,8.71-3.15.33-.44-2.02-7.74-2.7-8.54-1.54-1.79-3.93-1.17-4.75-5.12-2.1-10,9.88-15.28,14.98-9.07.73.89,2.86,6.78,2.58,7.75-.14.49-1.36.55-1.68,2.41-.34,1.98,3.46,11.32,4.8,11.75,1.59.51,6.25.69,6.95-1.33-.45-2.87,2.5-8.3,1.8-10.55-.16-.52-2.93-1.71-3.63-4.39-2.72-10.39,12.7-14.93,18.75-6.92,5.46,7.23-1.41,9-2.49,12.63-.88,2.96.65,7.44-.79,10.7,6.44-6.88,16.56-14.17,26.48-9.72,11.75,5.27,3.21,22.51-6.1,25.16,4.2,4.3,5.26,10.59,5.94,16.42.22,1.9-.74,5.24-.37,6.25.26.7,2.71,2.51,3.52,3.75,4.67,7.16,7.49,13.8,3.38,21.56,6.38,4.44,10.18,12.04,10.53,19.74.08,1.85-1.36,5.17-.95,7,.23,1.02,4.74,4.95,5.9,7.79,2.28,5.59.62,10.18,1.93,14.5.62,2.03,4.91,5.29,5.07,8.4l14.35,1.43v-95.31s-13.48,0-13.48,0c-2.32,0-3.96-7.38-1.16-9.07,18.2-19.87,34.85-41.58,53.93-60.42,57.29-1.85,115.04-.69,172.39.14,18.89,18.21,34.41,39.74,52.62,58.68,3.16,1.93,3.02,10.67-.34,10.67h-13.81l-.99.99v36.15c4.14,2.12,10.38-.28,15.13,0,2.81-5.04,3.44-7.94,8.73-10.99,1.19-.69,2.89-.26,4.13-1.12,2.6-1.82,2.1-8.77,9.95-12.4,10.24-4.73,13.25.22,20.19-.17,4.74-.26,7.17-3.68,15-2.44,8.77,1.38,9.66,8.05,13.64,10.03,2.28,1.14,6.34.73,9.53,2.96,4.7,3.28,5.54,9.33,3.9,14.5,7.7,1.97,22.35,9.15,21.44,18.69-.39,4.13-5.28,6.85-9.12,7.19-3.52.31-7.87-1.95-10.63-.61v11.17c0,6.2-9.5,14.53-14.46,17.41,11.55,1.36,35.43-9.24,45.4-6.27,7.23,2.15,4.26,21.86,3.9,28.29-2.15,38.12-10.12,75.47-28.11,109.29l-18.55,26.45c16.02,3.67,30.74.03,44.37-8.51,6.25,3.39,17.16,10.49,24.33,10.49h14.14V3.23ZM157.6,337.14h38.79l35.81-62.14c.17-1.4-.08-.79-.95-.96-2.24-.44-20.87-.78-22.3.07-.52.31-7.14,7.56-8.28,8.81-14.53,15.89-27.84,33.09-42.36,49.01l-1.69,3.61c-.09.59.54,1.45.99,1.6ZM200.66,337.14h49.31l15.79-62.76c-10.05-1.07-20.04-.28-30.14-.22l-34.96,62.99ZM297.31,337.14v-62.77l-2.29-1.04-26.33,1.35-15.43,62.46h44.05ZM358.34,274.15l-23.21-.8-1.69,1.69,15.07,61.71,44.79.38-8.03-13.96-26.92-49.02ZM377.19,273.38c-4.23-.68-10.03.5-14.46,0l34.82,63.81,34.26-.66c.47-.65.3-1.47.17-2.19-.3-1.63-18.25-22.65-20.94-25.78-7.39-8.58-16.15-18.79-23.9-27.05-2.37-2.53-6.8-7.62-9.95-8.13ZM330.84,274.04h-29.26l-.99,63.1c4.89-.84,43.84,1.9,45.37-.01l-15.12-63.09ZM89.1,298.8c3.42,3.16,11.21,1.87,12.17-2.9,1.5-7.48-11.38-9.51-13.69-2.44-.33,1.75.2,4.13,1.52,5.34ZM66.39,291.89c-6.61.89-8.03,11.23-.16,11.09,8.77-.15,6.8-11.98.16-11.09ZM96.12,302.96l-5.61.62c.28,14.88-2.63,14.39-16.12,12.24l-2.93-10.92-4.65.65,2.29,11.8c-21.28-1.31-53.18,45.73-25.38,55.43,8.07,2.81,13.19-2.72,16.72-9.42,6.91-1.72-1.52,9.98-5.06,9.94-1.72,1.72,3.53,1.34,4.26,1.29,13.33-.9,24.65-9.15,34.19-17.73,3.96,4.6-8.26,9.32-8.56,12.14l5.73,28.83c3.28,2.65,7.12,1.35,11.5,2.96,11.48,4.22,14.19,17.13,8.11,27.05l8.16,1.37c1.53-6.09,6.8-11.19,12.86-13.24-2.48-5.24-3.34-16.23-5.84-20.72-1.47-2.65-8.57-1.34-12.33-2.14-17.84-3.8-15.15-27.37,1.75-30,.56-.29.6-.75.67-1.31.14-1.05-4.42-18.2-5.17-20.47-.29-.86-1.21-.99-1.36-1.43-.6-1.7-4.05-9.65-3.93-10.19.5-2.23,8.43-1.96,11.46-3.07,19.23-7.04,11.51-30.64-7.92-17.77-3.1,2.05-8.1,9.76-8.88,10.19-7.91,4.32-2.42-14.39-3.94-16.1ZM120.74,338.17c-.93-2.53-2.14-5.03-3.58-7.32-.79-.46-6.03.15-5.8,1.86l28.88,99.66,11.11,1.38c-6.35-6.01-3-14.99-6.37-21.5-.72-1.4-6.54-6.68-6.68-7.2-.77-2.99,2.63-9.18-.08-16.34-1.78-4.7-9.08-9.32-9.26-9.98-.43-1.6,1.86-9.14,1.18-13.49-1.01-6.51-6.46-9.08-7.43-12.29-1.44-4.73.4-8.32-1.98-14.77ZM415.65,340.43h-243.92v23.66l35.73-.11,1-.97c-.64-6.33,3.62-10.05,9.62-10.76,49.53,2.92,103.56-3.88,152.56-.03,7.84.62,12.26,3.17,11.47,11.87h33.53v-23.67ZM501.95,363.26c-.75-.63-2.2-4.36-4.1-6.08-4.02-3.64-9.56-4.36-14.76-3.56-1.98.31-5.99,2.96-6.62,3-.76.05-4.81-2.08-6.63-2.33-7.05-.94-14.9,1.23-18.51,7.66-.8,1.42-1,4.44-1.83,5.4-1.02,1.18-5.55,1.7-7.51,3.01-3.58,2.38-7.16,10.26-4.27,14.07.96,1.26,3.31.84,3.38,2.99-2.99,3.75-8.68,8.49-10.64,12.82-8.51,18.85,11.26,23.87,21.37,8.22.94-1.45,4.78-8.8,5.17-10.09.79-2.66.2-10.61,2.44-11.25,2.07-.48,1.96,1.73,3.37,2.44,5.52,2.75,13.35-.86,15.73-6.37,5.14,1.77,5.53,4.31,11.72,3.87,8.15-.57,7.29-5.97,9.52-6.93.67-.29,3.8,1.68,5.61,1.69,2.74,0,10.1-4.45,10.67-7.08.93-4.31-2.5-9.22-6.36-10.38-2.31-.7-5.99.35-7.76-1.12ZM379.49,392.35v-30.56c0-3.61-3.45-6.23-6.9-6.24l-151.9-.69c-4.77.03-9.5,2.3-9.5,7.59v27.28c5.11-8.73,8.13-18.9,19.08-22.01,5.51-1.56,17.55-2.36,22.98-.64s12.22,7.12,13.17,13.02l1.31.43c8.92-24.09,44.37-26.98,57.74-4.8,1.2,2,2.74,8.6,4.75,7.76,15.04-17.9,40.56-11.35,49.3,8.87ZM326.89,404.84c4.66-23.36-11.17-46.32-36.69-40.3-18.56,4.38-25.39,24.35-21.8,41.62l4.03-4.87,4-17.33c5.97-1.29,10.2-1.76,15.3-5.41,1.89-1.35,5.57-5.98,7.24-5.99,5.24,7.7,11.75,10.72,21.05,11.23,3.62,6.64.73,15.71,6.88,21.05ZM117.08,366.14c-21.85,3.42-13.1,30.79,7.33,23.86l-7.33-23.86ZM207.89,367.38h-35.17l-.99.99v26.29l.99.99h35.83l-.66-28.26ZM415.65,395.64v-27.28l-.99-.99h-31.89l-.66,28.26h33.53ZM260.25,374.85c-1.75-1.83-7.82-5.32-10.27-5.83-2.82-.59-17.02.89-19.88,1.82-17.04,5.57-19.66,40.15-18.28,54.74.36,3.83,1.31,7.16,5.97,6.6,1.96-5.37,5.4-9.13,9.82-12.54-7.93-5.04-9.42-14.17-8.51-22.99s2.99-5.91,9.32-9.09,9.7-6.57,12.04-12.95c2.68,2.06,3.92,5.53,6.95,7.49,4.78,3.11,12.28,3.95,17.69,5.65-.2-4.25-1.91-9.83-4.84-12.9ZM375.17,393.4c-4.99-11.68-13.12-19.29-26.85-17.42-10.21,1.39-30.57,19.42-6.72,17.59,6.84-.52,10.83-3.59,15.88-7.77,3.06,9.39,7.88,12.86,17.32,15.19.63,8.98.37,17.34-5.77,24.46,3.52,4.58,8.47,12.24,9.74,1.33,1.17-10.06.35-24.17-3.59-33.39ZM318.27,385.86c-8.34.76-14.83-3.02-19.98-9.27-5.13,5.57-12.41,9.2-20.04,9.21.66,3.44-4.39,16.52-1.32,18.07,1.27.65,14.29-3.9,15.13-4.6,1.48-1.24.62-10.54,5.9-10.2,1.71,1.06-4.14,12.18-1.35,14.18,2.3,1.64,7.23-2.43,10.2-2.38,4.07.07,10.02,6.23,12.77,1.6,1.72-2.9-.97-12.85-1.31-16.61ZM260.26,415.78c4.29-4.6,7.57-21.15,2.44-25.31-3.87-3.15-18.04-2.92-21.61-9.94-4.44,5.87-10.83,10.14-18.15,11.56-2.59,11.01-1.65,20.12,8.41,26.43,8.54,5.36,21.83,4.85,28.9-2.74ZM418.28,382.82v56.53c1.37,1.53,4.27,1.08,6.27,1.01,9.02-.32,19.78-1.25,28.89-2.01,10.2-.85,20.48-2.14,30.59-3.6-13.97-1.92-24.15-9.53-31.26-21.36-25.6,22.25-36.92-8.74-16.2-25.96l-3.58-6.82-13.59.55c-.46.14-1.04,1.26-1.12,1.66ZM513.12,383.69c.13.22,1.3.44,1.71,1.17,1.49,2.64,4.82,13.23,5.36,13.73,2.07,1.92,13.11,2.98,15.05-.06,4.9-7.69-12.73-17.99-18.68-17.94-1.49.01-4.49,1.29-3.44,3.09ZM485.67,431.79c3.4.39,7.38-.28,10.85,0-1.65-2.14-8.07-3.01-8.57-5.6-1.47-7.54,9.63,3.91,11.86,2.3-1.44-1.66-.1-8.5-.69-9.16-.29-.33-7-.59-5.88-5.29,2.28-.59,2.92,2.05,4.41,2.49,3.65,1.09,6.46-1.06,8.07-4.15l1.32.68c-1.68,6.14-6.08,6.34-3.27,14.44.24.68-.56,1.19.96.98,1.31-.18,8.67-7.01,9.55-8.38,6.31-9.88,3.31-27.61-4.57-35.94-2.38.97-6.62-.41-8.29-.11-.59.1-5.01,5.47-10,6.14-5.85.79-9.46-2.54-11.68-2.43-1.15.05-4.95,4.48-8.02,5.09-3.35.67-7.35.05-10.69-.5-.08,5.45-2.01,12.18-5.65,16.38,1.76,4.67,5.62,10.67,9.65,14.13,4.95,4.25,14.16,8.19,20.65,8.93ZM329.25,414.3c4.28,11.61,14.57,16.02,26.61,13.92,12.97-2.27,16.5-12.31,16.31-24.26-6.99-3.19-12.64-5.43-16.03-12.92-7.62,5.46-16.2,6.4-25.29,4.6-1.05,5.02-.5,10.26-1.35,15.31-.22,1.33-1.88-1.08-.25,3.35ZM382.12,398.93v30.56c0,2.64-6.42,7.71-9.51,6.93-48.08-2.71-98.96,3.66-146.67.66-18.06-1.13-18.2-5.51-18.08-22.74.03-4.88,2.05-11.77.36-16.07h-35.5l-.89,37.09,1.55,1.03c75.15,5.97,152.79,9.76,228.16,5.29,4.44-.26,10.28-.41,14.11-1.67v-41.08h-33.53ZM109.56,412.46c-3.2-8.15-9.59-10.52-18.03-10.24l4.33,23.08,10.79,1.59c2.37-4.57,4.92-7.81,3.99-13.2-.21-1.19-1-1.04-1.07-1.23ZM322.86,404.94c-1.62-.85-3.39,2.3-5.56,2.52-3.71.37-6.84-3.35-10.46-3.34-4.54,0-6.82,4.69-12.77,1.65-1.11-.57-1.83-2.21-2.71-2.59-3.32-1.41-8.33,4.04-12.22,4.26-2.65.15-4.45-2.11-5.13-1.94-.23.06-3.14,3.22-3.22,3.44-1.75,4.42,6,17.54,9.97,20,9.75,6.04,30.43,4.93,38.54-3.77,4.18-4.48,9.24-15.39,3.57-20.24ZM74.7,498.58c-4.03-18.55-5.71-37.63-6.87-56.58-.78-12.69,4.54-31.07-14.74-30.6-9.15.22-10.42,5.68-10.91,13.46-3.84,60.82,17.85,141.3,65.75,181.47,5,4.19,26.6,19.2,32.05,19.88,3.73.47,10-3.07,13.99-3.15.26-1.11-.38-1.32-.99-1.96-4.41-4.56-15.29-10.15-21.03-15.13-31.77-27.55-48.56-67.41-57.26-107.39ZM266.08,412.09l-5.55,7.56,4.89,4.25c5.46-3.62,3.22-6.99.66-11.8ZM133.44,420.13c-2.91-3.38-11.22,6.24-11.01,9.68l14.47,1.97c-1.3-2.25-2.12-10.1-3.45-11.65ZM327.49,419.36c-.66-.35-1.83.5-1.92.95-.22,1.19,9.84,11.04,11.01,13.3l35.68.81-5.72-6.46c-13.75,6.48-30.78,5.37-39.04-8.6ZM221.04,433.76h37.15c.46,0,5.63-6.63,5.51-7.46-5.42-7.55-8.43-2.15-14.22-1.24-6.75,1.05-12.9-.13-18.92-3.1-4.16,2.89-8.5,6.53-9.51,11.81ZM550.93,456.6c.83-.9,1.88-22.19,1.51-24.52-.19-1.18-.31-1.84-1.28-2.66l-2.33-.96c-68.67,12.37-138.56,17.14-208.42,17.81-76.79.74-156.24-2.82-231.91-15.34-12.73-2.11-25.48-4.59-38-7.69.25,6.42-.36,12.96,0,19.37.15,2.59.33,10.1,2.12,11.03,58.18,13.36,118.09,19.27,177.66,21.55,56.75,2.17,116.25,2.31,172.96-.66,42.89-2.24,86.22-6.91,127.69-17.94ZM284.16,434.41c-5.79-2.65-8.77-7.15-13.49-10.99-.79.07-7.4,8.38-7.54,9.37-.19,1.33.06.85.96.97,6.23.83,13.63-.89,20.07.65ZM332.15,434.42c1.19-1.04-7.14-10.2-8.81-9.91-2.68,4.99-7.83,6.9-12.22,9.9h21.03ZM504.74,431.79v.66l.33-.33-.33-.33ZM551.08,459.4c-30.83,7.99-62.56,12.97-94.35,15.76-110.97,9.73-250.12,7.19-359.42-13.33-6.99-1.31-15.89-4.4-22.63-4.99-1.05-.09-3.24-.72-2.9.91l4.73,33.09c21.08,6.07,42.88,9.63,64.64,12.61,5.52-5.56,7.76-12.04,15.03-16.56,20.87-12.96,50.68-.89,54.38,23.74l48.98,2.55c3.44-.28,3.31-4.65,4.9-7.45,16.36-28.8,60.27-24.24,68.45,8.14l46.19-.68c10.8-33.14,55.57-35.37,69.24-3.16,33.31-1.23,66.55-6.78,98.24-16.88l4.53-33.76ZM201.57,499.25c-20.84-29.14-62.1-10.67-58.11,22.59l10.19-11.17,9.24-5.26c1.33-2.26-4.49-7.92.05-11.73,2.03-1.71,6.12-1.62,7.87.49,2.13,2.57.29,11.5,4.86,10.26-.72-4.97,1.37-12.06,7.75-10.43,7.59,1.93-.01,11.23.8,12.08,4.27-1.47,12.15-4.65,13.86,1.64s-6.57,9.11-6.67,10.49l7.59,21.39c10.48-8.58,11.45-26.45,4.97-37.81-.8-1.4-1.87-1.78-2.4-2.52ZM295.34,556.68v-10.85c0-.35,1.02-1.4.66-2.3h-11.51c-11.52,0-24.6-12.51-15.79-23.68,2.06-2.61,4.88-3.08,6.85-4.99,2.35-2.29,3.12-5.42,6.33-8.13,7.47-6.31,17.24-6.87,25.75-2.11,10.65,5.96,11.21,31.06,17.94,34,2.46,1.08,5.02-8.19,5.21-9.96,2.47-23.46-15.68-42.21-39.53-38.21-39.33,6.6-36.97,66.08,4.1,66.22ZM447.13,528.73c1.46-5.21-.88-14.76-2.93-18.99-18.16-37.51-71.19-16.07-62.08,23.28l9.19-5.93c-5.58-7.17-1.12-7.59.94-12.53,1.23-2.95,1.06-6.1,3.39-9.1,3.06-3.94,10.14-6.32,14.99-5.9,4.06.36,6.38,3.43,8.13,3.74,1.18.21,2.41-.68,3.7-.48,5.43.84,4.32,2.4,7.34,5.21,3.32,3.09,7.11,3.33,4.92,9.86M140.83,506.73l-63.11-11.84,8.71,34.68c16.97,4.74,34.25,9.43,51.65,12.45,3.24.56,8.97,1.79,11.95,1.88.92.03,1.17.56,1.97-.7-3.06-4.18-7.6-3.59-9.37-9-2.76-8.44-2.84-18.72-1.79-27.47ZM177.56,507.29c-12.58,2.64-3.28-14.75-12.8-11.81-3.19,3.22,2.47,8.39.74,11.25-22.75,6.8-31.72,42.95,3.09,28.73,2.82-1.15,5.06-4.15,8.4-3.76.79,2.81-3.06,2.89-3.27,4.88-.11,1.01,4.51,12.76,5.56,12.88,1.57.18,12.28-3.17,12.83-4.3-.44-1.7-2.89-1.38-4.22-2.99-5.85-7.1,2.25-13.64,2.25-16.63,0-3.67-2.74-6.47-5.25-8.62.35-1.87,11.02-1.8,10.58-7.89-.35-4.95-8.45-1.09-11.17.01-8.37-1.11,3.31-11.37-1.74-12.2-4.51-.63-2.47,7.44-5,10.46ZM545.82,496.87c-31.3,8.66-63.35,15.36-95.99,16.43,2.48,14.23-.26,27.39-11.16,37.14.66.99,1.18.96,2.25,1.01,5.88.25,19.74-1.85,26.32-2.67,23.68-2.94,47.21-8.53,69.64-16.48,2.17-1.71,10.17-34.08,8.93-35.43ZM428.35,511.13c-.83-.99-.98-2.76-1.86-3.73-2.77-3.02-5.92-1.34-9.03-2.15-1.61-.42-3.05-2.5-5.57-2.97-4.81-.9-11.79,1.43-14.54,5.53-1.88,2.8-.87,5.08-1.89,7.31-.77,1.68-5.03,3.35-4.04,6.9.86,3.09,10.08,4.75,12.63,3.13.81-.52.09-1.82.77-2.04,3.32-1.07,6.8,4.53,13.97.22,1.3-.78,1.68-2.71,3.12-2.87s2.39,1.78,5.08,1.26c3.08-.59,6.31-5.96,4.49-8.81-.85-1.33-2.77-1.35-3.14-1.79ZM288.1,540.9h10.52v15.78l11.83-1.98c.79-1.14-4.74-5.48-5.27-6.39-4.17-7.15-2.07-18.43-.69-26.18,1.16-.57,2.73-.58,3.27.81.31.79-1.52,12.74-1.16,16.24.53,5.15,2.48,8.79,5.84,12.59,3.32,1.77,10.19-5.83,11.72-8.73-5.44-8.7-9.82-15.89-11.55-26.3-3.77-12.73-20.63-15.59-29.98-6.61-2.22,2.14-2.86,5.04-4.61,6.89-3.43,3.63-8.26,2.89-8.94,9.83-.72,7.44,7.48,13.42,14.6,11.93,4.54-.95,6.62-7.08,11.65-4.44l-7.23,6.56ZM260.39,516.68l-49.21-2.73c1.31,9.4-1.88,18.93-7.53,26.32l-10.21,9.18,80.86,4.6-6.46-6.35c-3.82-4.72-7.8-15.44-8.71-20.88-.74-4.39,1.95-6.1,1.27-10.13ZM378.18,530.71c-.49-3.68,0-9.2,0-13.15,0-.15,1.25-.87.33-.99l-45.03.67c2.45,15.37-4.02,27.28-15.13,37.13l73.64-.99c-6.25-5.78-12.64-13.91-13.81-22.67ZM428.34,523.67c-2.78,1.05-3.98.05-5.97.55-2.19.55-4.34,2.95-7.2,3.37-3.71.55-5.9-1.04-8.52-.96-1.75.06-3.57,1.68-5.82,1.8-2.45.13-4.38-1.12-7.05-.55-1.69.36-11.68,3.67-11.65,5.12,7.23,16.14,24.33,27.26,41.85,22.45,8.41-2.31,17.59-10.81,21.01-18.75M192.33,541.98c6.99,4.48.93-9.2-.54-11.58-4.72,2.55-3.57,8.94.54,11.58ZM535.31,536.31c-25.47,7.91-51.41,13.11-77.92,16.42-6.64.83-15.35.23-21.64,1.37s-10.31,5.28-18.47,5.86c-10.84.77-15.72-3.91-24.34-3.96-7.84-.05-17.03,1.27-24.93,1.37-17.04.22-38.24-1.71-54.62-.05-7.39.75-11.68,3.24-20.39,2.69-5.58-.35-9.74-2.77-14.43-3.32-13.15-1.55-29.14-.43-42.76-1.29-15.4-.97-32.88-3.8-47.95-3.99-9.15-.12-12.67,2.23-22.55-.46-13.24-3.62-24.44-5.35-37.75-8.27-9.1-1.99-29.96-9.05-37.49-9.24-.76-.02-1.06-.69-1.84.59,3.79,11.24,8.99,21.59,14.83,31.83,21.78,7.78,46.06,12.35,69.09,15.72,60,8.78,124.63,11.47,185.34,9.98,53.94-1.32,110.51-6.54,162-22.74,6.65-10.16,11.77-21.02,15.81-32.49ZM171.7,537.64l-17.06,4.24c3.47,3.37,14.79,8.97,19.28,7.48,2.37-.79-2.16-9.43-2.22-11.72ZM516.24,573.11c-30.58,9.2-62.5,14.7-94.35,17.74-61.15,5.83-126.79,5.51-188.01.66-42.86-3.4-85.88-9.13-127.24-20.69,9.96,14.72,22.2,29.1,36.52,39.73,3.35,2.49,13.78,10.35,17.4,9.6,3.2-.66,11.94-7.81,14.1-7.6,30.98,21.53,75.36,23.11,105.87,0,6.53,3.86,11.33,7.64,18.58,10.35,24.43,9.15,52.28,5.35,72.26-11.62,20.56,17.58,50.71,18.08,72.25,1.9l17.69,7.89c21.68-11.43,41.43-27.39,54.92-47.97ZM3.43,594.14v27.28c21.99,10.18,47.03,3.69,66.74-8.63,17.82,12.1,36.85,17.19,58.5,15.52.96-.07,5.55-.3,5.61-1.62-17.3-8.07-32.17-20.54-45.17-34.4-15.69,4.56-30.22-.31-43.86-8.01-12.8,7.67-26.52,12.93-41.8,9.87ZM591.19,594.8h-14.14c-6.97,0-18.34-6.22-24.33-9.83-14.45,8.85-30.66,11.3-47.18,7.31-5.42,3.46-9.09,9.03-13.97,13.03-7.66,6.27-16.83,10.97-25.11,16.29-.62.4-1.19-.1-.85,1.45,22.8,6.76,46.39,2.99,65.41-11.18,16.72,13.83,38.91,18.69,60.16,14.48v-31.55ZM591.19,628.98c-21.07,4.25-43.1,0-60.16-13.17-25.49,18.26-59.65,16.7-86.11,1.29-4.2,1.12-7.54,4.01-11.53,5.62-21.01,8.45-42.99,6.05-61.5-6.93-27.5,18.95-63.59,19.96-91.24.81-31.37,21.42-75.21,20.19-106.51-.66-31.61,19.96-72.97,20.93-104.65.59-19.93,12.12-43.7,16.45-66.07,8.49v42.4c26.25,12.86,58.64,7.27,81.73-9.4,26.28,18.03,56.07,19.19,84.63,5.48,2.64-1.27,10.73-7.08,12.75-6.93,28.64,22.2,71.52,25.45,103.61,8.9,2.71-1.4,13.05-8.95,14.78-8.96,8.68,5.8,16.63,10.99,26.78,14.05,27.25,8.2,56.16,3.01,78.53-14.54,24.85,19.79,60.17,22.93,88.32,8.13,2.31-1.22,12.09-8.37,13.43-8.26,23.09,19.06,55.74,21.98,83.21,11.21v-38.12ZM591.19,670.39c-27.89,11.33-59.57,7.59-83.72-10.4-30.33,22.25-70.72,22.25-101.3.52-30.82,22.57-74.5,22.89-105.23.03-34.71,24.01-85.04,25.71-119.01-.45-29.2,19.54-67.14,22.45-96.66,1.78-24.14,16.2-54.54,20.78-81.85,9.83v50.28c10.33,4.3,24.62,3.99,35.63,2.1,12.17-2.09,23.43-7.72,33.72-14.24,4.87,1.78,8.44,5.7,12.9,8.12,22.6,12.23,49.93,14.95,74.37,6.81,10.8-3.6,19.64-9.4,29.04-15.61,12.29,9.44,26.19,16.35,41.68,18.87,27.16,4.43,54.28-2.46,76.18-18.77,28.72,22.97,73.14,27.16,105.2,8.57,2.36-1.37,11.55-8.82,12.99-8.7,31.03,25.6,79.09,26.4,110.48.95,2.02-.11,9.41,6.09,12.02,7.45,12.53,6.52,29.63,9.22,43.55,8.06v-55.21ZM591.19,728.89c-19.37,1-39.25-3.47-54.89-15.12-32.56,24.25-79.1,24.36-111.11-.64-34.43,26.07-83.67,25.76-118.23.12-35.18,24.5-84.15,26.66-118.48-.58-26.52,21.33-64.63,25.4-95.89,12.19-7.05-2.98-12.95-7.81-19.84-11.01-20.68,12.36-45.61,18.53-69.34,11.76v52.26c26.02,14.88,58.66,14.71,84.06-1.41,2.09-1.32,10.84-8.91,12.16-8.67,32.76,29.54,85.77,31.52,123.15,9.21,2.34-1.4,11.6-9.07,12.36-9.04,2.94.11,8.77,6.36,11.83,8.29,34.75,21.93,87.69,17.79,119.08-8.58,1.82-.12,5.98,4.53,7.94,5.82,31.65,20.85,74.89,21.97,107.07,1.43,2.33-1.49,8.13-7.3,9.85-7.31,3.87,1.81,6.77,5.08,10.52,7.3,26.94,15.95,60.81,17.19,89.75,5.91v-51.93ZM591.19,784.1c-32.85,12.37-71.99,8.76-100.26-12.51-35.51,28.26-89.19,27.83-124.9.02-30.52,23.65-74.78,28.1-110.11,12.79-7.8-3.38-13.68-8.14-20.75-12.56-34.9,28.51-89.86,30.4-127.7,6.51-2.16-1.37-6.39-6.15-8.38-6.15-7.22,4.95-14.02,10.04-22.23,13.34-24.11,9.68-50.12,7.07-73.43-3.41v55.87h587.77v-53.9Z"/>
    <rect x=".14" y="841.29" width="595" height=".66" fill="#fff"/>
    <path d="M591.19,3.23v588.28h-14.14c-7.17,0-18.08-7.1-24.33-10.49-13.63,8.54-28.35,12.18-44.37,8.51l18.55-26.45c17.99-33.82,25.96-71.17,28.11-109.29.36-6.42,3.33-26.14-3.9-28.29-9.97-2.97-33.85,7.63-45.4,6.27,4.96-2.88,14.46-11.21,14.46-17.41v-11.17c2.76-1.34,7.11.92,10.63.61,3.85-.34,8.73-3.06,9.12-7.19.91-9.54-13.74-16.72-21.44-18.69,1.63-5.18.8-11.22-3.9-14.5-3.19-2.22-7.25-1.82-9.53-2.96-3.98-1.98-4.87-8.65-13.64-10.03-7.83-1.24-10.26,2.18-15,2.44-6.94.38-9.95-4.57-20.19.17-7.85,3.63-7.35,10.58-9.95,12.4-1.24.87-2.94.44-4.13,1.12-5.29,3.06-5.92,5.95-8.73,10.99-4.75-.28-10.99,2.11-15.13,0v-36.15l.99-.99h13.81c3.36,0,3.5-8.74.34-10.67-18.21-18.94-33.73-40.47-52.62-58.68-57.36-.83-115.1-1.99-172.39-.14-19.08,18.84-35.74,40.55-53.93,60.42-2.8,1.69-1.17,9.07,1.16,9.07h13.48v95.31s-14.36-1.43-14.36-1.43c-.17-3.11-4.46-6.37-5.07-8.4-1.32-4.32.35-8.91-1.93-14.5-1.16-2.84-5.67-6.77-5.9-7.79-.41-1.83,1.03-5.15.95-7-.35-7.7-4.14-15.3-10.53-19.74,4.11-7.75,1.29-14.39-3.38-21.56-.81-1.24-3.25-3.04-3.52-3.75-.38-1.01.59-4.35.37-6.25-.67-5.83-1.74-12.11-5.94-16.42,9.32-2.65,17.86-19.89,6.1-25.16-9.93-4.45-20.05,2.84-26.48,9.72,1.44-3.27-.09-7.74.79-10.7,1.07-3.63,7.95-5.39,2.49-12.63-6.05-8.01-21.47-3.47-18.75,6.92.7,2.69,3.47,3.88,3.63,4.39.7,2.26-2.25,7.68-1.8,10.55-.7,2.03-5.36,1.85-6.95,1.33-1.34-.43-5.14-9.77-4.8-11.75.32-1.85,1.54-1.92,1.68-2.41.28-.97-1.85-6.86-2.58-7.75-5.1-6.21-17.07-.94-14.98,9.07.83,3.95,3.21,3.33,4.75,5.12.68.79,3.03,8.09,2.7,8.54-2.86,1.13-5.96,1.75-8.71,3.15-15.62,7.88-26.83,25.18-28.53,41.89,2.28,3.59,2.39,6.92,5.29,10.5,9.86,12.18,36.36,8.09,48.35.33l10.84,54.53c-.9.66-20.54-3.97-21.9-4.72-1.65-.92-2.19-5.98-5.08-8.06-9.79-7.06-26.27-4.14-27.57,9.85-1.49,16.08,1.79,39.18,4.02,55.11,5.85,41.73,17.71,79.08,43.96,112.47-14.18,4.89-28.98-1.8-41.03-8.87-12.88,7.68-26.27,13.89-41.8,10.53V3.23h587.77ZM305.46,59.51c-8.08-11.28-10.52-3.31-14.83,5.4-3.78.68-14.65-.19-14.36,5.64-.11,3.33,7.96,7.73,8.46,9.4,1.1,3.74-5.63,16.15,4.72,14.39,2.81-.48,7.68-4.72,9.62-4.84,2.46-.16,8.07,5.7,12.89,4.31,5.65-2.67,1.04-10.4,1.9-13.85.8-3.19,10.87-6.3,8.32-11.85-1.34-4.1-11.42-2.07-13.89-3.69-.24-.15-1.84-3.56-2.81-4.91ZM218.91,76.69c-2.34,1.67-12.06.29-12.66,5.33-.51,4.26,6.11,7.35,8.81,9.74-3.01,23.86,6.9,8.51,13.54,8.03,3.24-.23,9.42,5.09,13.22,2.11,2.95-2.32-.8-10.5-.28-12.75.56-2.45,9.65-6.76,5.17-11.33-3.05-3.11-9.04-.37-12.12-2.34-2.04-1.3-3.28-8.92-7.95-9.21-5.61-.35-5.57,8.9-7.72,10.43ZM375.18,69.31c-7.59-7.47-9.2,5.78-12.31,6.67-4.37,1.25-15.59-2.25-12.6,6.75.76,2.28,4.85,3.89,5.4,5.77,1.12,3.83-2.65,8.27-.69,12.51,2.35,5.11,10.63-1.32,13.6-1.15,2.77.16,8.1,7.03,12.19,4.92,4.28-2.84,1.03-8.6,2.14-12.34.83-2.82,9.66-4.62,8.43-10.64-.83-4.04-10.38-2.66-12.51-4.62-1.18-1.09-.98-5.23-3.65-7.86ZM433.19,98.09c-6.46-7.01-10.35,6.7-13.37,7.55-4.48,1.27-17.59-3.03-14.33,6.67.92,2.72,6.19,6.28,6.53,7.83.82,3.8-4.17,7.89-2.95,12.1.07.24,2.44,2,2.67,2.07,5.28,1.6,9.03-3.26,13.41-2.88,3.3.28,9.82,9.04,14.47,3.89l1.12-12.35c3.87-1.48,9.98-4.08,9.72-8.92s-10.82-3.81-13.12-5.98c-1.46-1.38-2.38-8.05-4.16-9.98ZM178.56,115.39c-9.02-12.93-22.22-18.94-38.04-18.15-20.85,1.04-42.98,16.79-43.73,38.77-19.44-3.8-38.5,8-41.4,27.95-11.39-.49-20.86,7.35-20.91,19.04-.07,17.07,18.96,24.85,33.69,23.98,2.2-.13,6.83-1.93,8.32-1.62.94.19,5.75,4.1,8.01,5.05,14.2,5.95,32.25,3.51,42.86-8,16.58,15.91,47.28,14.93,63.81-.7,19.4,10.72,50.33,7.31,64.72-10.16,9.33-11.33,8.32-26.53-2.86-36.25-6.24-5.43-15.47-6.99-23.44-5.49-.33-22.46-27.1-33.22-46.01-24.32-.42-4.1-2.9-7.07-5.01-10.11ZM352.14,131.15c-12.69-16.09-38.92-10.09-40.98,10.48-17.63-.46-27.93,22.2-9.7,30.65,7.88,3.65,48.99,2.74,59.28,1.83,34.74-3.06,26.05-41.37,2.05-38.04-2.43.34-4.35,2.21-6.92,1.87-.05-3.24-2.12-4.75-3.72-6.78ZM513.22,155.47c-20.51-28.29-67.59-22.47-79.79,10.5-6.39-1.82-11.9-3.03-18.69-2.28-11.31,1.25-24.44,11.26-24.07,23.59-13.38-3.38-33.08,4.93-35.34,19.55-4.75,30.69,35.42,40.16,57.02,27.77,13.75,19.07,45.63,19.03,62.92,4.7,14.83,14.2,41.08,14.88,54.56-1.35,17.44,7.22,35.76,1.78,41.05-17.28.14-.5,1.14-.56,1.22-1,.99-5.6-.93-11.99-4.29-16.56-2.98-4.07-7.78-5.96-12.77-5.97,1.26-18.76-18.27-27.21-34.22-23.93-1.03-7.42-3.42-11.97-7.6-17.73ZM292.05,205.35c-1.22,6.29.91,16.28,0,23.01.63.96,1.87,1.33,2.89.93,2.55-1.01.24-20.87.42-24.47l-2.64-1.11c.14.67-.59,1.26-.67,1.65ZM203.29,249.39v-24.32c0-.55-1.42-1.21-2.26-.94-2.32.75-2.03,18.91-1.72,22.01.25,2.48,1.06,5.98,3.98,3.26ZM245.37,225.07v23.66c1.03,1.34,1.63,1.29,2.63,0v-23.66c-1.03-1.34-1.63-1.29-2.63,0ZM56.02,227.04c-.82,2.37,0,20.13,0,24.32,0,.2,1.33,1.21,1.64,1.63,2.26-.06,1.77-12.57,1.68-14.81-.05-1.09-1.13-17.52-3.32-11.14ZM152.01,231.31v22.68c1.03,1.34,1.63,1.29,2.63,0v-21.03c0-.24-.74-1.03-.73-1.58l-1.9-.06ZM337.41,257.93v-24.32c-1.03-1.34-1.63-1.29-2.63,0v23.66c0,.27.84,1,.67,1.64l1.96-.98ZM104.01,239.86c-.68.03-1.43-.21-2.01.29-1.07.94-1.1,25.6-.65,28.34.31,1.88,1.64,3.77,2.74,1.36l-.08-29.98ZM546.49,284.88v-23.66c-1.02-1.29-2.08-1.57-3.03-.03-.54.87-.48,18.04-.29,20.43.21,2.64.2,6.13,3.32,3.26ZM420.25,260.89h-1.97c-.27,3.53-1.54,25.26,0,26.29l1.96-.98v-25.31ZM494.55,274.37v24.32c1.03,1.34,1.63,1.29,2.63,0v-24.32c-1.03-1.34-1.63-1.29-2.63,0ZM140.18,280.28c-.84,2.45,0,20.67,0,24.98,0,.65,1.87,1.75,2.52-.11.52-1.46.48-22.55.1-24.2-.45-1.98-2.11-2.17-2.62-.67ZM455.76,325.97c5.79,2.95,4.18-14.31,3.98-18.11-.17-3.19.16-12.63-3.98-8.84v26.95ZM524.86,342.31c2.42,1.45,2.93-.66,3.23-2.86.47-3.5.53-16.35.02-19.76-.14-.91-.02-1.79-1.08-2.23l-2.26,1.07.09,23.78ZM557.01,356.86c-.82.83-1.04,21.01-.69,23.37.21,1.42.49,2.06,1.68,2.91,2.36-.11,2.08-24.54,1.33-25.63-.62-.9-1.37-.66-2.31-.65Z" fill="#fff"/>
    <path d="M591.19,728.89v51.93c-28.93,11.28-62.81,10.04-89.75-5.91-3.75-2.22-6.65-5.49-10.52-7.3-1.73,0-7.52,5.82-9.85,7.31-32.17,20.54-75.41,19.42-107.07-1.43-1.97-1.3-6.12-5.95-7.94-5.82-31.39,26.37-84.32,30.51-119.08,8.58-3.06-1.93-8.9-8.18-11.83-8.29-.77-.03-10.02,7.64-12.36,9.04-37.38,22.31-90.39,20.33-123.15-9.21-1.32-.24-10.07,7.35-12.16,8.67-25.4,16.12-58.04,16.29-84.06,1.41v-52.26c23.73,6.77,48.66.6,69.34-11.76,6.89,3.19,12.79,8.03,19.84,11.01,31.26,13.21,69.37,9.14,95.89-12.19,34.33,27.24,83.3,25.09,118.48.58,34.55,25.65,83.8,25.95,118.23-.12,32.01,25,78.55,24.89,111.11.64,15.64,11.65,35.52,16.12,54.89,15.12Z" fill="#fff"/>
    <path d="M591.19,784.1v53.9H3.43v-55.87c23.31,10.48,49.32,13.09,73.43,3.41,8.21-3.3,15.01-8.38,22.23-13.34,1.99,0,6.22,4.78,8.38,6.15,37.84,23.89,92.8,22,127.7-6.51,7.08,4.42,12.96,9.18,20.75,12.56,35.33,15.3,79.59,10.85,110.11-12.79,35.71,27.81,89.4,28.25,124.9-.02,28.27,21.27,67.41,24.87,100.26,12.51Z" fill="#fff"/>
    <path d="M591.19,670.39v55.21c-13.92,1.16-31.02-1.55-43.55-8.06-2.61-1.36-10-7.56-12.02-7.45-31.39,25.45-79.46,24.65-110.48-.95-1.44-.12-10.62,7.33-12.99,8.7-32.06,18.59-76.48,14.4-105.2-8.57-21.9,16.31-49.02,23.19-76.18,18.77-15.49-2.52-29.39-9.43-41.68-18.87-9.4,6.22-18.24,12.02-29.04,15.61-24.45,8.14-51.78,5.42-74.37-6.81-4.46-2.41-8.03-6.34-12.9-8.12-10.29,6.52-21.55,12.15-33.72,14.24-11.02,1.89-25.3,2.2-35.63-2.1v-50.28c27.31,10.95,57.71,6.37,81.85-9.83,29.51,20.66,67.46,17.75,96.66-1.78,33.97,26.17,84.3,24.47,119.01.45,30.73,22.85,74.41,22.53,105.23-.03,30.58,21.73,70.96,21.73,101.3-.52,24.15,17.98,55.84,21.72,83.72,10.4Z" fill="#fff"/>
    <path d="M591.19,628.98v38.12c-27.47,10.77-60.12,7.85-83.21-11.21-1.34-.11-11.11,7.05-13.43,8.26-28.16,14.8-63.48,11.66-88.32-8.13-22.37,17.55-51.28,22.74-78.53,14.54-10.16-3.06-18.1-8.25-26.78-14.05-1.73,0-12.06,7.56-14.78,8.96-32.09,16.55-74.97,13.3-103.61-8.9-2.02-.14-10.1,5.66-12.75,6.93-28.56,13.71-58.35,12.55-84.63-5.48-23.09,16.68-55.48,22.26-81.73,9.4v-42.4c22.37,7.96,46.13,3.63,66.07-8.49,31.68,20.34,73.04,19.37,104.65-.59,31.3,20.85,75.14,22.07,106.51.66,27.66,19.15,63.74,18.14,91.24-.81,18.51,12.98,40.49,15.38,61.5,6.93,4-1.61,7.34-4.5,11.53-5.62,26.47,15.41,60.63,16.97,86.11-1.29,17.06,13.16,39.09,17.42,60.16,13.17Z" fill="#fff"/>
    <path d="M550.93,456.6c-41.47,11.03-84.8,15.69-127.69,17.94-56.71,2.96-116.21,2.83-172.96.66-59.57-2.28-119.47-8.19-177.66-21.55-1.8-.93-1.97-8.43-2.12-11.03-.37-6.42.24-12.95,0-19.37,12.51,3.1,25.26,5.58,38,7.69,75.67,12.52,155.12,16.07,231.91,15.34,69.86-.67,139.76-5.43,208.42-17.81l2.33.96c.97.82,1.09,1.48,1.28,2.66.38,2.33-.67,23.62-1.51,24.52Z" fill="#fff"/>
    <path d="M535.31,536.31c-4.04,11.48-9.16,22.34-15.81,32.49-51.49,16.2-108.06,21.42-162,22.74-60.71,1.49-125.34-1.19-185.34-9.98-23.03-3.37-47.3-7.94-69.09-15.72-5.84-10.24-11.04-20.58-14.83-31.83.78-1.28,1.08-.6,1.84-.59,7.53.19,28.39,7.25,37.49,9.24,13.31,2.91,24.52,4.65,37.75,8.27,9.87,2.7,13.4.34,22.55.46,15.07.2,32.55,3.03,47.95,3.99,13.62.86,29.61-.26,42.76,1.29,4.69.55,8.85,2.97,14.43,3.32,8.71.55,13-1.94,20.39-2.69,16.38-1.65,37.58.27,54.62.05,7.89-.1,17.09-1.42,24.93-1.37,8.62.06,13.5,4.73,24.34,3.96,8.16-.58,12.27-4.73,18.47-5.86s15-.54,21.64-1.37c26.5-3.31,52.45-8.5,77.92-16.42Z" fill="#fff"/>
    <path d="M551.08,459.4l-4.53,33.76c-31.69,10.1-64.93,15.65-98.24,16.88-13.67-32.2-58.44-29.97-69.24,3.16l-46.19.68c-8.17-32.38-52.09-36.95-68.45-8.14-1.59,2.81-1.46,7.18-4.9,7.45l-48.98-2.55c-3.7-24.63-33.51-36.7-54.38-23.74-7.27,4.52-9.51,11-15.03,16.56-21.76-2.98-43.56-6.54-64.64-12.61l-4.73-33.09c-.33-1.63,1.86-1,2.9-.91,6.74.59,15.64,3.68,22.63,4.99,109.31,20.52,248.45,23.06,359.42,13.33,31.79-2.79,63.52-7.78,94.35-15.76Z" fill="#fff"/>
    <path d="M516.24,573.11c-13.49,20.58-33.24,36.54-54.92,47.97l-17.69-7.89c-21.54,16.17-51.7,15.67-72.25-1.9-19.98,16.98-47.83,20.77-72.26,11.62-7.25-2.72-12.05-6.49-18.58-10.35-30.51,23.11-74.89,21.52-105.87,0-2.16-.2-10.9,6.94-14.1,7.6-3.61.75-14.04-7.12-17.4-9.6-14.32-10.63-26.57-25.01-36.52-39.73,41.36,11.56,84.38,17.29,127.24,20.69,61.22,4.85,126.87,5.18,188.01-.66,31.85-3.04,63.77-8.54,94.35-17.74Z" fill="#fff"/>
    <path d="M74.7,498.58c8.7,39.98,25.49,79.84,57.26,107.39,5.74,4.98,16.61,10.57,21.03,15.13.61.63,1.26.84.99,1.96-3.99.08-10.26,3.62-13.99,3.15-5.45-.68-27.06-15.69-32.05-19.88-47.9-40.18-69.59-120.66-65.75-181.47.49-7.78,1.76-13.23,10.91-13.46,19.28-.47,13.96,17.91,14.74,30.6,1.16,18.94,2.84,38.03,6.87,56.58Z" fill="#fff"/>
    <path d="M96.12,302.96c1.52,1.71-3.97,20.42,3.94,16.1.78-.43,5.78-8.13,8.88-10.19,19.42-12.87,27.14,10.74,7.92,17.77-3.03,1.11-10.96.84-11.46,3.07-.12.53,3.33,8.49,3.93,10.19.16.44,1.08.57,1.36,1.43.76,2.27,5.31,19.42,5.17,20.47-.07.56-.11,1.02-.67,1.31-16.9,2.63-19.59,26.2-1.75,30,3.75.8,10.86-.51,12.33,2.14,2.5,4.5,3.36,15.48,5.84,20.72-6.06,2.05-11.33,7.14-12.86,13.24l-8.16-1.37c6.08-9.92,3.37-22.83-8.11-27.05-4.39-1.61-8.23-.32-11.5-2.96l-5.73-28.83c.3-2.82,12.52-7.54,8.56-12.14-9.54,8.58-20.86,16.83-34.19,17.73-.73.05-5.98.43-4.26-1.29,3.54.04,11.97-11.66,5.06-9.94-3.52,6.7-8.65,12.23-16.72,9.42-27.8-9.7,4.1-56.74,25.38-55.43l-2.29-11.8,4.65-.65,2.93,10.92c13.5,2.15,16.4,2.64,16.12-12.24l5.61-.62ZM74.91,339.91c-4.63,1.36-2.94,12.56,3.49,6.79,3.75-3.36,1.03-8.12-3.49-6.79ZM42.21,356.2c-2.51-.32-4.89.3-4.59,3.28,2.51.32,4.89-.3,4.59-3.28ZM47.48,359.48c.89.02,1.8.17,2.62-.33,3.8-2.29-3.31-5.71-2.62.33Z" fill="#fff"/>
    <path d="M382.12,398.93h33.53v41.08c-3.83,1.26-9.67,1.4-14.11,1.67-75.36,4.47-153,.68-228.16-5.29l-1.55-1.03.89-37.09h35.5c1.69,4.3-.33,11.19-.36,16.07-.12,17.23.02,21.61,18.08,22.74,47.71,2.99,98.59-3.38,146.67-.66,3.09.78,9.51-4.29,9.51-6.93v-30.56Z" fill="#fff"/>
    <path d="M415.65,340.43v23.66h-33.53c.79-8.69-3.63-11.25-11.47-11.86-49.01-3.85-103.04,2.95-152.56.03-6,.7-10.27,4.43-9.62,10.76l-1,.97-35.73.11v-23.66h243.92Z" fill="#fff"/>
    <path d="M545.82,496.87c1.24,1.35-6.77,33.72-8.93,35.43-22.43,7.95-45.96,13.54-69.64,16.48-6.58.82-20.44,2.92-26.32,2.67-1.07-.05-1.59-.02-2.25-1.01,10.9-9.75,13.64-22.91,11.16-37.14,32.64-1.07,64.69-7.77,95.99-16.43Z" fill="#fff"/>
    <path d="M3.43,594.14c15.28,3.06,29.01-2.2,41.8-9.87,13.64,7.7,28.17,12.57,43.86,8.01,13,13.86,27.87,26.33,45.17,34.4-.06,1.32-4.64,1.55-5.61,1.62-21.64,1.67-40.68-3.43-58.5-15.52-19.71,12.32-44.75,18.81-66.74,8.63v-27.28Z" fill="#fff"/>
    <path d="M591.19,594.8v31.55c-21.24,4.21-43.44-.65-60.16-14.48-19.03,14.17-42.62,17.94-65.41,11.18-.34-1.55.22-1.05.85-1.45,8.29-5.32,17.45-10.02,25.11-16.29,4.88-3.99,8.55-9.56,13.97-13.03,16.52,3.99,32.73,1.54,47.18-7.31,5.99,3.61,17.36,9.83,24.33,9.83h14.14Z" fill="#fff"/>
    <path d="M379.49,392.35c-8.74-20.22-34.26-26.77-49.3-8.87-2.01.83-3.54-5.76-4.75-7.76-13.36-22.18-48.82-19.3-57.74,4.8l-1.31-.43c-.95-5.9-7.78-11.31-13.17-13.02s-17.47-.92-22.98.64c-10.95,3.11-13.96,13.28-19.08,22.01v-27.28c0-5.29,4.74-7.56,9.5-7.59l151.9.69c3.46.01,6.9,2.63,6.9,6.24v30.56Z" fill="#fff"/>
    <path d="M501.95,363.26c1.77,1.47,5.44.43,7.76,1.12,3.85,1.16,7.29,6.07,6.36,10.38-.57,2.63-7.92,7.09-10.67,7.08-1.81,0-4.94-1.97-5.61-1.69-2.24.95-1.37,6.35-9.52,6.93-6.19.44-6.58-2.1-11.72-3.87-2.38,5.51-10.21,9.12-15.73,6.37-1.42-.7-1.31-2.92-3.37-2.44-2.24.64-1.65,8.58-2.44,11.25-.38,1.29-4.23,8.64-5.17,10.09-10.12,15.65-29.89,10.63-21.37-8.22,1.95-4.33,7.65-9.07,10.64-12.82-.07-2.15-2.43-1.73-3.38-2.99-2.88-3.81.69-11.69,4.27-14.07,1.96-1.31,6.49-1.83,7.51-3.01.83-.96,1.03-3.98,1.83-5.4,3.61-6.43,11.46-8.61,18.51-7.66,1.82.24,5.87,2.38,6.63,2.33.63-.04,4.65-2.69,6.62-3,5.2-.81,10.74-.08,14.76,3.56,1.9,1.72,3.35,5.46,4.1,6.08Z" fill="#fff"/>
    <path d="M200.66,337.14l34.96-62.99c10.1-.06,20.09-.85,30.14.22l-15.79,62.76h-49.31Z" fill="#fff"/>
    <path d="M330.84,274.04l15.12,63.09c-1.53,1.91-40.48-.82-45.37.01l.99-63.1h29.26Z" fill="#fff"/>
    <polygon points="297.31 337.14 253.26 337.14 268.69 274.67 295.02 273.32 297.31 274.37 297.31 337.14" fill="#fff"/>
    <polygon points="358.34 274.15 385.26 323.17 393.3 337.13 348.51 336.76 333.44 275.05 335.13 273.35 358.34 274.15" fill="#fff"/>
    <path d="M260.39,516.68c.69,4.03-2,5.74-1.27,10.13.91,5.43,4.89,16.16,8.71,20.88l6.46,6.35-80.86-4.6,10.21-9.18c5.65-7.39,8.84-16.91,7.53-26.32l49.21,2.73Z" fill="#fff"/>
    <path d="M157.6,337.14c-.45-.15-1.08-1.02-.99-1.6l1.69-3.61c14.52-15.92,27.83-33.13,42.36-49.01,1.14-1.25,7.76-8.5,8.28-8.81,1.43-.85,20.06-.51,22.3-.07.88.17,1.12-.44.95.96l-35.81,62.14h-38.79Z" fill="#fff"/>
    <path d="M140.83,506.73c-1.04,8.75-.97,19.03,1.79,27.47,1.77,5.41,6.31,4.82,9.37,9-.8,1.26-1.05.72-1.97.7-2.98-.09-8.71-1.32-11.95-1.88-17.4-3.02-34.68-7.71-51.65-12.45l-8.71-34.68,63.11,11.84Z" fill="#fff"/>
    <path d="M485.67,431.79c-6.49-.74-15.7-4.68-20.65-8.93-4.03-3.46-7.89-9.46-9.65-14.13,3.64-4.19,5.57-10.93,5.65-16.38,3.34.55,7.34,1.17,10.69.5,3.07-.61,6.87-5.03,8.02-5.09,2.22-.1,5.83,3.23,11.68,2.43,4.99-.68,9.41-6.04,10-6.14,1.67-.3,5.91,1.08,8.29.11,7.88,8.33,10.88,26.06,4.57,35.94-.88,1.37-8.24,8.2-9.55,8.38-1.52.21-.73-.3-.96-.98-2.81-8.1,1.6-8.3,3.27-14.44l-1.32-.68c-1.61,3.09-4.43,5.24-8.07,4.15-1.49-.44-2.13-3.07-4.41-2.49-1.12,4.7,5.59,4.96,5.88,5.29.59.66-.75,7.5.69,9.16-2.23,1.6-13.33-9.85-11.86-2.3.5,2.59,6.92,3.46,8.57,5.6-3.47-.28-7.45.39-10.85,0ZM506.13,397.66c-1.87.72-1.93,8.43,1.77,7.76,2.55-.59,2.24-5.93.47-7.5l-2.24-.26ZM477.27,401c-3.31.74-4.2,7.93.45,7.79,5.14-.16,4.21-8.84-.45-7.79Z" fill="#fff"/>
    <path d="M378.18,530.71c1.17,8.76,7.55,16.89,13.81,22.67l-73.64.99c11.12-9.85,17.59-21.75,15.13-37.13l45.03-.67c.92.12-.33.84-.33.99,0,3.94-.49,9.47,0,13.15Z" fill="#fff"/>
    <path d="M377.19,273.38c3.16.51,7.58,5.6,9.95,8.13,7.75,8.26,16.51,18.47,23.9,27.05,2.69,3.12,20.64,24.14,20.94,25.78.13.72.3,1.54-.17,2.19l-34.26.66-34.82-63.81c4.43.5,10.23-.68,14.46,0Z" fill="#fff"/>
    <path d="M295.34,556.68c-41.08-.14-43.43-59.61-4.1-66.22,23.85-4,42,14.75,39.53,38.21-.19,1.77-2.74,11.04-5.21,9.96-6.73-2.94-7.28-28.05-17.94-34-8.51-4.76-18.28-4.19-25.75,2.11-3.21,2.71-3.98,5.85-6.33,8.13-1.96,1.91-4.79,2.37-6.85,4.99-8.81,11.17,4.27,23.68,15.79,23.68h11.51c.36.9-.66,1.95-.66,2.3v10.85Z" fill="#fff"/>
    <path d="M288.1,540.9l7.23-6.56c-5.03-2.65-7.11,3.49-11.65,4.44-7.12,1.49-15.32-4.48-14.6-11.93.68-6.94,5.51-6.2,8.94-9.83,1.75-1.85,2.39-4.76,4.61-6.89,9.35-8.99,26.21-6.13,29.98,6.61,1.73,10.42,6.11,17.6,11.55,26.3-1.53,2.89-8.4,10.49-11.72,8.73-3.36-3.79-5.31-7.43-5.84-12.59-.36-3.5,1.47-15.44,1.16-16.24-.54-1.39-2.11-1.38-3.27-.81-1.38,7.75-3.48,19.03.69,26.18.53.91,6.06,5.25,5.27,6.39l-11.83,1.98v-15.78h-10.52ZM288.2,517.99c-.94,1.89-1.81,5.02.18,6.54,4.08,3.11,6.64-8.53-.18-6.54Z" fill="#fff"/>
    <path d="M418.28,382.82c.08-.4.66-1.52,1.12-1.66l13.59-.55,3.58,6.82c-20.72,17.22-9.4,48.21,16.2,25.96,7.11,11.84,17.29,19.45,31.26,21.36-10.11,1.46-20.39,2.76-30.59,3.6-9.11.76-19.87,1.69-28.89,2.01-2,.07-4.91.52-6.27-1.01v-56.53Z" fill="#fff"/>
    <path d="M177.56,507.29c2.53-3.01.49-11.08,5-10.46,5.05.83-6.63,11.09,1.74,12.2,2.71-1.1,10.82-4.96,11.17-.01.43,6.09-10.23,6.02-10.58,7.89,2.51,2.15,5.26,4.94,5.25,8.62,0,3-8.1,9.54-2.25,16.63,1.33,1.61,3.79,1.29,4.22,2.99-.55,1.13-11.26,4.48-12.83,4.3-1.05-.12-5.66-11.87-5.56-12.88.21-1.99,4.06-2.06,3.27-4.88-3.33-.39-5.58,2.61-8.4,3.76-34.81,14.23-25.84-21.93-3.09-28.73,1.72-2.86-3.94-8.03-.74-11.25,9.52-2.94.22,14.45,12.8,11.81ZM169.57,517.35c-4.65-.06-5.45,7.35-.27,5.69,2.74-.87,2.97-5.66.27-5.69ZM150.03,525.79c-1.46-1.61-3.84,2.83-1.63,3.28,1.6.32,2.07-2.79,1.63-3.28ZM153.98,528.42c-1.44-1.53-2.66,1.52-1.96,3.28,1.74.64,2.52-2.68,1.96-3.28Z" fill="#fff"/>
    <path d="M260.26,415.78c-7.08,7.59-20.36,8.1-28.9,2.74-10.07-6.32-11-15.42-8.41-26.43,7.32-1.41,13.72-5.69,18.15-11.56,3.57,7.02,17.74,6.79,21.61,9.94,5.12,4.17,1.84,20.71-2.44,25.31ZM256.38,395.15c-2.75-2.9-5.69,3.2-2.45,4.79,2.37,1.16,4.33-2.81,2.45-4.79ZM231.07,397.11c-1.81,1.9.68,6.03,3.12,4.8,3.66-1.85-.89-7.13-3.12-4.8ZM243.08,401.56c-2.12.55-.5,4.57,1.94,3.94,2.12-.55.5-4.57-1.94-3.94ZM238.8,409.45c.06,7.23,11.62,6.99,13.12.32-1.91-2.44-2.18.64-3.78,1.46-4.42,2.28-5.71-.05-9.34-1.78Z" fill="#fff"/>
    <path d="M322.86,404.94c5.68,4.85.61,15.75-3.57,20.24-8.1,8.7-28.79,9.81-38.54,3.77-3.97-2.46-11.72-15.58-9.97-20,.09-.22,3-3.38,3.22-3.44.68-.17,2.48,2.09,5.13,1.94,3.89-.22,8.91-5.67,12.22-4.26.87.37,1.6,2.02,2.71,2.59,5.95,3.04,8.23-1.65,12.77-1.65,3.62,0,6.75,3.72,10.46,3.34,2.17-.22,3.94-3.37,5.56-2.52ZM307.82,410.1c-2.49-2.42-7.7,7.78-14.8,3.3-2.12-1.34-2.24-4.8-5.57-3.95-1.23,15.03,24.9,5.05,20.37.66Z" fill="#fff"/>
    <path d="M201.57,499.25c.53.74,1.6,1.12,2.4,2.52,6.49,11.36,5.52,29.23-4.97,37.81l-7.59-21.39c.11-1.38,8.45-3.97,6.67-10.49s-9.59-3.11-13.86-1.64c-.81-.85,6.78-10.14-.8-12.08-6.37-1.63-8.47,5.46-7.75,10.43-4.58,1.24-2.73-7.68-4.86-10.26-1.75-2.11-5.83-2.2-7.87-.49-4.54,3.82,1.28,9.47-.05,11.73l-9.24,5.26-10.19,11.17c-3.99-33.27,37.26-51.74,58.11-22.59Z" fill="#fff"/>
    <path d="M329.25,414.3c-1.63-4.43.02-2.02.25-3.35.85-5.05.3-10.28,1.35-15.31,9.09,1.79,17.68.85,25.29-4.6,3.4,7.49,9.04,9.73,16.03,12.92.19,11.95-3.34,21.99-16.31,24.26-12.05,2.11-22.33-2.31-26.61-13.92ZM336.86,406.06c1.33,2.14,8.02.2,4.79-3.79-2.75-3.4-6.5,1.05-4.79,3.79ZM364.2,405.66c-3.29-3.21-7.48,2.71-3.31,4.29,3.92,1.48,5.2-2.44,3.31-4.29ZM347.28,408.8c-1.34,2.08,3.62,5.14,4.5,1.52.78-3.19-4.17-2.03-4.5-1.52ZM343.01,414.7c-3.33.64,1.53,6.47,4.75,7.08,2.75.52,11.58-.95,8.32-4.41-2.62.21-4.91,1.73-7.67,1.15-2.19-.46-4.19-4.05-5.4-3.82Z" fill="#fff"/>
    <polygon points="207.89 367.38 208.55 395.64 172.72 395.64 171.73 394.65 171.73 368.36 172.72 367.38 207.89 367.38" fill="#fff"/>
    <polygon points="415.65 395.64 382.12 395.64 382.78 367.38 414.67 367.38 415.65 368.36 415.65 395.64" fill="#fff"/>
    <path d="M260.25,374.85c2.93,3.07,4.64,8.65,4.84,12.9-5.4-1.69-12.9-2.54-17.69-5.65-3.03-1.97-4.28-5.43-6.95-7.49-2.35,6.38-6.03,9.93-12.04,12.95-6.33,3.17-8.39,0-9.32,9.09s.59,17.95,8.51,22.99c-4.42,3.41-7.85,7.18-9.82,12.54-4.66.56-5.61-2.77-5.97-6.6-1.38-14.59,1.24-49.17,18.28-54.74,2.86-.93,17.07-2.41,19.88-1.82,2.45.51,8.53,4.01,10.27,5.83Z" fill="#fff"/>
    <path d="M326.89,404.84c-6.15-5.34-3.26-14.41-6.88-21.05-9.3-.51-15.81-3.53-21.05-11.23-1.67,0-5.35,4.64-7.24,5.99-5.1,3.65-9.33,4.12-15.3,5.41l-4,17.33-4.03,4.87c-3.58-17.27,3.24-37.24,21.8-41.62,25.52-6.01,41.35,16.95,36.69,40.3Z" fill="#fff"/>
    <path d="M120.74,338.17c2.38,6.45.54,10.04,1.98,14.77.97,3.21,6.42,5.77,7.43,12.29.68,4.36-1.61,11.89-1.18,13.49.18.67,7.48,5.29,9.26,9.98,2.71,7.16-.69,13.35.08,16.34.13.52,5.95,5.81,6.68,7.2,3.37,6.51.02,15.49,6.37,21.5l-11.11-1.38-28.88-99.66c-.23-1.71,5.01-2.32,5.8-1.86,1.44,2.29,2.65,4.79,3.58,7.32Z" fill="#fff"/>
    <path d="M375.17,393.4c3.94,9.22,4.76,23.33,3.59,33.39-1.27,10.91-6.22,3.25-9.74-1.33,6.14-7.12,6.4-15.48,5.77-24.46-9.43-2.33-14.25-5.8-17.32-15.19-5.05,4.19-9.04,7.25-15.88,7.77-23.85,1.83-3.49-16.2,6.72-17.59,13.72-1.87,21.85,5.74,26.85,17.42Z" fill="#fff"/>
    <path d="M318.27,385.86c.34,3.76,3.04,13.71,1.31,16.61-2.75,4.63-8.7-1.54-12.77-1.6-2.97-.05-7.91,4.03-10.2,2.38-2.79-2,3.07-13.12,1.35-14.18-5.28-.34-4.42,8.96-5.9,10.2-.84.7-13.85,5.24-15.13,4.6-3.07-1.55,1.98-14.63,1.32-18.07,7.62,0,14.91-3.64,20.04-9.21,5.14,6.25,11.63,10.03,19.98,9.27ZM288.59,394.82c2.14-2.23.04-6.38-3.11-4.79-3.48,1.75.33,7.69,3.11,4.79ZM308,391.2c-2.17,2.3.02,6.35,3.12,4.79,3.71-1.88-.42-7.64-3.12-4.79Z" fill="#fff"/>
    <path d="M221.04,433.76c1.01-5.28,5.35-8.92,9.51-11.81,6.03,2.98,12.17,4.16,18.92,3.1,5.79-.9,8.79-6.3,14.22,1.24.12.83-5.05,7.46-5.51,7.46h-37.15Z" fill="#fff"/>
    <path d="M117.08,366.14l7.33,23.86c-20.44,6.93-29.18-20.44-7.33-23.86Z" fill="#fff"/>
    <path d="M109.56,412.46c.07.18.87.03,1.07,1.23.93,5.39-1.62,8.63-3.99,13.2l-10.79-1.59-4.33-23.08c8.44-.28,14.83,2.1,18.03,10.24Z" fill="#fff"/>
    <path d="M513.12,383.69c-1.04-1.8,1.95-3.08,3.44-3.09,5.95-.06,23.59,10.25,18.68,17.94-1.94,3.04-12.98,1.98-15.05.06-.54-.5-3.87-11.1-5.36-13.73-.41-.73-1.59-.96-1.71-1.17Z" fill="#fff"/>
    <path d="M327.49,419.36c8.26,13.96,25.29,15.07,39.04,8.6l5.72,6.46-35.68-.81c-1.16-2.26-11.23-12.1-11.01-13.3.08-.45,1.25-1.3,1.92-.95Z" fill="#fff"/>
    <path d="M171.7,537.64c.06,2.29,4.59,10.93,2.22,11.72-4.49,1.49-15.81-4.11-19.28-7.48l17.06-4.24Z" fill="#fff"/>
    <path d="M89.1,298.8c-1.32-1.22-1.85-3.59-1.52-5.34,2.3-7.07,15.18-5.04,13.69,2.44-.96,4.78-8.75,6.06-12.17,2.9Z" fill="#fff"/>
    <path d="M133.44,420.13c1.33,1.55,2.15,9.39,3.45,11.65l-14.47-1.97c-.2-3.44,8.11-13.06,11.01-9.68Z" fill="#fff"/>
    <path d="M284.16,434.41c-6.43-1.54-13.84.18-20.07-.65-.9-.12-1.15.36-.96-.97.14-.99,6.75-9.3,7.54-9.37,4.72,3.84,7.69,8.34,13.49,10.99Z" fill="#fff"/>
    <path d="M332.15,434.42h-21.03c4.39-3,9.54-4.92,12.22-9.91,1.67-.3,10,8.87,8.81,9.91Z" fill="#fff"/>
    <path d="M66.39,291.89c6.64-.89,8.61,10.94-.16,11.09-7.86.14-6.45-10.2.16-11.09Z" fill="#fff"/>
    <path d="M192.33,541.98c-4.11-2.64-5.26-9.03-.54-11.58,1.47,2.38,7.53,16.06.54,11.58Z" fill="#fff"/>
    <path d="M266.08,412.09c2.56,4.81,4.8,8.18-.66,11.8l-4.89-4.25,5.55-7.56Z" fill="#fff"/>
    <polygon points="504.74 431.79 505.07 432.12 504.74 432.45 504.74 431.79" fill="#fff"/>
    <path d="M178.56,115.39c2.12,3.04,4.59,6.01,5.01,10.11,18.91-8.9,45.68,1.86,46.01,24.32,7.97-1.5,17.2.06,23.44,5.49,11.18,9.72,12.19,24.92,2.86,36.25-14.39,17.47-45.32,20.88-64.72,10.16-16.54,15.63-47.23,16.61-63.81.7-10.61,11.51-28.66,13.95-42.86,8-2.26-.95-7.07-4.86-8.01-5.05-1.49-.31-6.12,1.49-8.32,1.62-14.73.87-33.77-6.91-33.69-23.98.05-11.69,9.52-19.53,20.91-19.04,2.9-19.95,21.97-31.75,41.4-27.95.75-21.98,22.88-37.73,43.73-38.77,15.83-.79,29.02,5.21,38.04,18.15ZM178.59,122.59c-15.21-29.05-56.35-28.72-73.14-2.57-4.23,6.59-3.84,12.72-5.66,20-1.62,1.35-5.7-1.17-7.94-1.39-16.6-1.66-33.98,11.45-32.54,28.92-20.19-3.63-29.02,17.88-13.16,30.57,6.29,5.03,16.06,6.45,23.94,5.52,2.25-.27,4.49-2.24,6.59-1.93,1.19.17,5.77,4.44,7.81,5.4,11.85,5.57,28.44,4.16,38.53-4.45,1.3-1.11,2.49-4.96,4.34-4.92,14,17.21,48.32,17.77,61.94.01,7.66,2.63,14.23,6.56,22.85,7.28,19.88,1.65,49.85-9.99,46.21-34.37-1.71-11.42-13.82-19.73-25.09-18.17-2.17.3-5.28,2.7-6.99,1.61,1.1-21.54-18.18-32.53-37.96-26.83-2.45.71-3.83,2.62-6.32,2.78-1.29-2.52-2.08-4.95-3.4-7.47Z"/>
    <path d="M513.22,155.47c4.18,5.76,6.57,10.31,7.6,17.73,15.95-3.28,35.48,5.17,34.22,23.93,4.99,0,9.79,1.9,12.77,5.97,3.36,4.58,5.28,10.96,4.29,16.56-.08.44-1.08.51-1.22,1-5.29,19.07-23.61,24.5-41.05,17.28-13.48,16.23-39.73,15.56-54.56,1.35-17.29,14.33-49.17,14.37-62.92-4.7-21.6,12.38-61.77,2.91-57.02-27.77,2.26-14.62,21.97-22.93,35.34-19.55-.37-12.33,12.76-22.34,24.07-23.59,6.79-.75,12.3.46,18.69,2.28,12.2-32.97,59.28-38.78,79.79-10.5ZM513.21,162.05c-17.94-33.2-66.98-26.41-77.81,8.5-2.79,1.32-4.59-1.44-7.08-2.18-17.02-5.04-34.58,3.75-34.98,22.58-4.37.38-8.43-1.22-12.85-1.02-16.4.75-30.2,21.19-18.12,35.18,11.77,13.63,35.34,14.57,50.22,5.68,14.11,19.32,46.96,20.42,63.21,3.19,8.4,10.69,20.68,14.56,33.9,12.18,7.22-1.3,16.29-5.8,18.77-12.91,10.44,6.26,23.93,6.55,33.15-2.23,11.07-10.54,8.15-33.24-10.48-31.29,2.96-16.39-11.85-25.29-26.62-23.55-1.76.21-5.19,2.51-6.35,1.63-.92-6.43-1.96-10.19-4.96-15.75Z"/>
    <path d="M352.14,131.15c1.6,2.03,3.67,3.55,3.72,6.78,2.58.35,4.5-1.53,6.92-1.87,24-3.33,32.69,34.98-2.05,38.04-10.29.91-51.4,1.82-59.28-1.83-18.23-8.45-7.93-31.11,9.7-30.65,2.06-20.58,28.29-26.57,40.98-10.48ZM352.17,137.7c-5.78-10.63-14.87-16.02-27.04-11.02-8.34,3.42-10.42,10.55-10.69,18.91-18.08-4.58-27.49,20.19-7.3,24.96,7.36,1.74,52.23,1.04,59.24-.67,26.97-6.56,10.16-43-11.48-26.66-1.64-1.63-1.53-3.32-2.72-5.52Z"/>
    <path d="M305.46,59.51c.97,1.35,2.57,4.75,2.81,4.91,2.48,1.62,12.56-.41,13.89,3.69,2.55,5.55-7.52,8.66-8.32,11.85-.86,3.45,3.76,11.17-1.9,13.85-4.81,1.39-10.42-4.47-12.89-4.31-1.94.12-6.81,4.36-9.62,4.84-10.34,1.77-3.61-10.64-4.72-14.39-.49-1.67-8.57-6.07-8.46-9.4-.29-5.83,10.58-4.96,14.36-5.64,4.31-8.7,6.75-16.67,14.83-5.4ZM319.66,68.97c-2.87-1.02-12.7-.81-14.44-2.33-1.38-1.2-2.61-8.71-5.61-10.15-1.81-.03-4.97,9.7-6.9,10.84-1.5.89-13.04,1.21-13.17,2.65.56,3.7,7.4,5.22,8.42,8.66.97,3.25-1.23,7.71-1.19,11.03.01,1.36-.49,1.56,1.02,1.67,2.58.19,8.22-5.14,11.17-5.34,3.32-.22,8.29,4.86,12.18,4.38,1.96-1.46-1.24-9.16-.57-11.72.57-2.17,10.65-8.09,9.1-9.68Z"/>
    <path d="M433.19,98.09c1.78,1.93,2.71,8.6,4.16,9.98,2.3,2.17,12.84,1,13.12,5.98s-5.84,7.44-9.72,8.92l-1.12,12.35c-4.65,5.15-11.17-3.61-14.47-3.89-4.39-.38-8.13,4.48-13.41,2.88-.23-.07-2.6-1.83-2.67-2.07-1.21-4.21,3.77-8.3,2.95-12.1-.34-1.55-5.61-5.11-6.53-7.83-3.26-9.7,9.84-5.4,14.33-6.67,3.02-.86,6.91-14.57,13.37-7.55ZM432.38,104.18c-5.78-11.45-6.77,2.7-10.15,4.55s-10.95-2.1-14.45,1.31c-.09.6,7.44,7.92,7.77,9.34.49,2.12-3.65,8.92-2.53,12.03,4.41.63,8.54-3.73,12.76-3.28,2.43.26,9.31,7.92,11.24,5.25,2.01-3.34-.54-8.3.67-11.16s9.9-4.07,9.51-8.55c-.4-.6-10.01-1.55-11.84-2.96-1.23-.96-1.96-4.48-3-6.52Z"/>
    <path d="M375.18,69.31c2.67,2.63,2.48,6.78,3.65,7.86,2.13,1.96,11.68.58,12.51,4.62,1.23,6.01-7.59,7.82-8.43,10.64-1.11,3.74,2.14,9.5-2.14,12.34-4.09,2.12-9.42-4.76-12.19-4.92-2.97-.17-11.25,6.26-13.6,1.15-1.96-4.24,1.81-8.69.69-12.51-.55-1.88-4.65-3.48-5.4-5.77-2.99-9,8.23-5.5,12.6-6.75,3.1-.89,4.72-14.14,12.31-6.67ZM364.7,79.48h-11.51c-.26,3.67,5.5,6.42,5.91,9.58.38,2.98-2.54,7.47-1.96,10.79,1.28,1.33,9.82-3.94,11.4-3.8,1.7.15,7.26,5.89,10.6,5.8,1.41-.04.84.07,1.01-.99.47-3.11-1.28-8.45-.56-10.43.6-1.63,9.89-5.38,8.17-7.7-3.88-2.03-10.83-1.08-13.06-5.41-.82-1.59-1.23-6.54-2.87-7.01-3.19-.92-5.12,7.6-7.14,9.16Z"/>
    <path d="M218.91,76.69c2.15-1.53,2.11-10.78,7.72-10.43,4.68.29,5.92,7.91,7.95,9.21,3.08,1.96,9.07-.77,12.12,2.34,4.49,4.57-4.6,8.88-5.17,11.33-.52,2.25,3.22,10.44.28,12.75-3.8,2.99-9.99-2.34-13.22-2.11-6.63.48-16.55,15.83-13.54-8.03-2.7-2.39-9.32-5.48-8.81-9.74.6-5.04,10.32-3.66,12.66-5.33ZM245.37,80.14l-12.5-1.64c-9.49-19.31-7.83-1.82-12.1,1.03-1.4.93-12.28,1.05-11.55,3.54,1.48,2.86,7.77,4.46,8.71,7.09.76,2.14-1.86,11.19.17,11.66,2.8-.46,8.22-5.85,10.5-5.87,1.98-.02,8.29,4.49,11.51,3.89,1.12-1.28-2.26-9.59-1.85-11.37.28-1.21,7.74-7.32,7.12-8.34Z"/>
    <path d="M455.76,325.97v-26.95c4.14-3.79,3.81,5.65,3.98,8.84.2,3.8,1.81,21.06-3.98,18.11Z"/>
    <path d="M203.29,249.39c-2.92,2.72-3.72-.77-3.98-3.26-.31-3.1-.6-21.26,1.72-22.01.84-.27,2.26.39,2.26.94v24.32Z"/>
    <path d="M104.01,239.86l.08,29.98c-1.09,2.41-2.43.52-2.74-1.36-.45-2.74-.42-27.4.65-28.34.57-.5,1.32-.26,2.01-.29Z"/>
    <path d="M292.05,205.35c.08-.39.81-.97.67-1.65l2.64,1.11c-.19,3.61,2.13,23.47-.42,24.47-1.02.4-2.26.03-2.89-.93.91-6.73-1.22-16.71,0-23.01Z"/>
    <path d="M546.49,284.88c-3.12,2.88-3.11-.62-3.32-3.26-.19-2.39-.25-19.56.29-20.43.95-1.54,2.01-1.27,3.03.03v23.66Z"/>
    <path d="M557.01,356.86c.94-.02,1.69-.25,2.31.65.76,1.09,1.04,25.52-1.33,25.63-1.19-.85-1.46-1.49-1.68-2.91-.35-2.36-.13-22.54.69-23.37Z"/>
    <path d="M524.86,342.31l-.09-23.78,2.26-1.07c1.06.44.94,1.31,1.08,2.23.51,3.41.45,16.26-.02,19.76-.3,2.2-.8,4.31-3.23,2.86Z"/>
    <path d="M56.02,227.04c2.19-6.37,3.27,10.05,3.32,11.14.09,2.24.59,14.75-1.68,14.81-.31-.42-1.64-1.42-1.64-1.63,0-4.19-.82-21.95,0-24.32Z"/>
    <path d="M140.18,280.28c.52-1.51,2.17-1.31,2.62.67.38,1.66.42,22.75-.1,24.2-.66,1.85-2.52.76-2.52.11,0-4.3-.84-22.53,0-24.98Z"/>
    <path d="M494.55,274.37c1-1.29,1.6-1.34,2.63,0v24.32c-1,1.29-1.6,1.34-2.63,0v-24.32Z"/>
    <path d="M337.41,257.93l-1.96.98c.18-.64-.67-1.37-.67-1.64v-23.66c1-1.29,1.6-1.34,2.63,0v24.32Z"/>
    <path d="M245.37,225.07c1-1.29,1.6-1.34,2.63,0v23.66c-1,1.29-1.6,1.34-2.63,0v-23.66Z"/>
    <path d="M420.25,260.89v25.31l-1.96.98c-1.54-1.03-.27-22.76,0-26.29h1.97Z"/>
    <path d="M152.01,231.31l1.9.06c-.01.55.73,1.34.73,1.58v21.03c-1,1.29-1.6,1.34-2.63,0v-22.68Z"/>
    <path d="M74.91,339.91c4.52-1.33,7.24,3.43,3.49,6.79-6.44,5.77-8.13-5.43-3.49-6.79Z"/>
    <path d="M42.21,356.2c.3,2.98-2.08,3.6-4.59,3.28-.3-2.98,2.08-3.6,4.59-3.28Z"/>
    <path d="M47.48,359.48c-.69-6.03,6.43-2.62,2.62-.33-.82.49-1.74.35-2.62.33Z"/>
    <path d="M477.27,401c4.66-1.05,5.59,7.63.45,7.79-4.64.14-3.75-7.04-.45-7.79Z"/>
    <path d="M506.13,397.66l2.24.26c1.77,1.57,2.08,6.91-.47,7.5-3.69.67-3.63-7.04-1.77-7.76Z"/>
    <path d="M288.2,517.99c6.83-1.99,4.26,9.65.18,6.54-1.99-1.52-1.12-4.65-.18-6.54Z"/>
    <path d="M169.57,517.35c2.7.03,2.47,4.82-.27,5.69-5.18,1.65-4.38-5.75.27-5.69Z"/>
    <path d="M150.03,525.79c.44.49-.03,3.6-1.63,3.28-2.21-.45.17-4.89,1.63-3.28Z"/>
    <path d="M153.98,528.42c.56.59-.22,3.92-1.96,3.28-.69-1.76.53-4.81,1.96-3.28Z"/>
    <path d="M414.39,539.14"/>
    <path d="M414.99,534.33"/>
    <path d="M425.52,544.18"/>
    <path d="M427.48,540.91"/>
    <path d="M238.8,409.45c3.63,1.73,4.92,4.06,9.34,1.78,1.61-.83,1.87-3.91,3.78-1.46-1.51,6.68-13.06,6.91-13.12-.32Z"/>
    <path d="M231.07,397.11c2.22-2.32,6.78,2.95,3.12,4.8-2.43,1.23-4.93-2.91-3.12-4.8Z"/>
    <path d="M256.38,395.15c1.88,1.99-.08,5.95-2.45,4.79-3.24-1.59-.3-7.7,2.45-4.79Z"/>
    <path d="M243.08,401.56c2.45-.63,4.07,3.39,1.94,3.94-2.45.63-4.07-3.39-1.94-3.94Z"/>
    <path d="M307.82,410.1c4.53,4.39-21.6,14.38-20.37-.66,3.33-.85,3.45,2.62,5.57,3.95,7.11,4.49,12.31-5.71,14.8-3.3Z"/>
    <path d="M343.01,414.7c1.22-.23,3.21,3.36,5.4,3.82,2.76.58,5.05-.95,7.67-1.15,3.27,3.46-5.57,4.93-8.32,4.41-3.22-.61-8.08-6.44-4.75-7.08Z"/>
    <path d="M336.86,406.06c-1.7-2.75,2.04-7.19,4.79-3.79,3.23,3.99-3.47,5.93-4.79,3.79Z"/>
    <path d="M364.2,405.66c1.89,1.85.61,5.77-3.31,4.29-4.18-1.58.02-7.5,3.31-4.29Z"/>
    <path d="M347.28,408.8c.33-.51,5.28-1.67,4.5,1.52-.88,3.63-5.84.56-4.5-1.52Z"/>
    <path d="M308,391.2c2.7-2.86,6.83,2.91,3.12,4.79-3.1,1.57-5.28-2.49-3.12-4.79Z"/>
    <path d="M288.59,394.82c-2.78,2.9-6.59-3.04-3.11-4.79,3.16-1.59,5.25,2.56,3.11,4.79Z"/>
    <path d="M178.59,122.59c1.32,2.52,2.12,4.96,3.4,7.47,2.49-.17,3.87-2.08,6.32-2.78,19.78-5.7,39.06,5.29,37.96,26.83,1.71,1.09,4.82-1.31,6.99-1.61,11.27-1.56,23.39,6.75,25.09,18.17,3.64,24.38-26.34,36.02-46.21,34.37-8.62-.71-15.19-4.65-22.85-7.28-13.62,17.75-47.93,17.19-61.94-.01-1.85-.04-3.04,3.81-4.34,4.92-10.09,8.61-26.68,10.02-38.53,4.45-2.04-.96-6.62-5.23-7.81-5.4-2.11-.31-4.34,1.67-6.59,1.93-7.89.93-17.65-.48-23.94-5.52-15.87-12.69-7.03-34.2,13.16-30.57-1.43-17.47,15.94-30.58,32.54-28.92,2.24.22,6.32,2.74,7.94,1.39,1.81-7.29,1.43-13.41,5.66-20,16.79-26.15,57.93-26.49,73.14,2.57Z" fill="#fff"/>
    <path d="M513.21,162.05c3.01,5.56,4.04,9.32,4.96,15.75,1.15.88,4.59-1.42,6.35-1.63,14.77-1.74,29.58,7.16,26.62,23.55,18.63-1.95,21.54,20.75,10.48,31.29-9.22,8.79-22.71,8.5-33.15,2.23-2.48,7.11-11.55,11.61-18.77,12.91-13.22,2.37-25.5-1.5-33.9-12.18-16.26,17.23-49.1,16.14-63.21-3.19-14.88,8.9-38.45,7.95-50.22-5.68-12.08-13.98,1.72-34.42,18.12-35.18,4.42-.2,8.47,1.4,12.85,1.02.4-18.83,17.96-27.61,34.98-22.58,2.49.74,4.29,3.49,7.08,2.18,10.83-34.9,59.87-41.69,77.81-8.5Z" fill="#fff"/>
    <path d="M352.17,137.7c1.19,2.2,1.08,3.89,2.72,5.52,21.64-16.34,38.45,20.1,11.48,26.66-7.01,1.71-51.88,2.41-59.24.67-20.18-4.76-10.77-29.54,7.3-24.96.28-8.36,2.35-15.49,10.69-18.91,12.17-4.99,21.26.39,27.04,11.02Z" fill="#fff"/>
    <path d="M319.66,68.97c1.56,1.6-8.53,7.51-9.1,9.68-.67,2.56,2.53,10.26.57,11.72-3.89.48-8.87-4.6-12.18-4.38-2.95.19-8.59,5.53-11.17,5.34-1.5-.11-1-.31-1.02-1.67-.03-3.32,2.16-7.79,1.19-11.03-1.03-3.44-7.87-4.96-8.42-8.66.13-1.44,11.68-1.76,13.17-2.65,1.92-1.14,5.08-10.87,6.9-10.84,3,1.45,4.23,8.95,5.61,10.15,1.74,1.52,11.57,1.3,14.44,2.33Z" fill="#fff"/>
    <path d="M432.38,104.18c1.03,2.05,1.76,5.57,3,6.52,1.82,1.41,11.43,2.36,11.84,2.96.38,4.48-8.28,5.64-9.51,8.55s1.34,7.82-.67,11.16c-1.92,2.68-8.81-4.98-11.24-5.25-4.22-.46-8.35,3.91-12.76,3.28-1.13-3.11,3.02-9.91,2.53-12.03-.33-1.42-7.85-8.74-7.77-9.34,3.5-3.4,10.94.63,14.45-1.31s4.37-16,10.15-4.55Z" fill="#fff"/>
    <path d="M364.7,79.48c2.02-1.56,3.95-10.08,7.14-9.16,1.64.47,2.05,5.42,2.87,7.01,2.23,4.33,9.18,3.38,13.06,5.41,1.72,2.32-7.57,6.07-8.17,7.7-.73,1.98,1.03,7.32.56,10.43-.16,1.06.4.96-1.01.99-3.34.08-8.9-5.66-10.6-5.8-1.58-.14-10.12,5.13-11.4,3.8-.58-3.32,2.35-7.81,1.96-10.79-.41-3.16-6.17-5.91-5.91-9.58h11.51Z" fill="#fff"/>
    <path d="M245.37,80.14c.62,1.02-6.84,7.13-7.12,8.34-.41,1.78,2.97,10.09,1.85,11.37-3.21.6-9.52-3.91-11.51-3.89-2.28.02-7.7,5.41-10.5,5.87-2.03-.47.6-9.52-.17-11.66-.94-2.64-7.23-4.23-8.71-7.09-.73-2.5,10.16-2.61,11.55-3.54,4.26-2.86,2.6-20.34,12.1-1.03l12.5,1.64Z" fill="#fff"/>
  </g>
  <ellipse cx="414.57" cy="523.52" rx="33.45" ry="33.68" fill="#fff"/>
</svg>