<?xml version="1.0" encoding="UTF-8"?>
<svg id="Camada_1" xmlns="http://www.w3.org/2000/svg" version="1.1" viewBox="0 0 595.28 841.89">
  <!-- Generator: Adobe Illustrator 29.0.0, SVG Export Plug-In . SVG Version: 2.1.0 Build 186)  -->
  <path d="M595.14-.06v842H.14V-.06h595ZM589.86,5.71H6.38v107.05c19.12-8.68,43.75-.84,51.6,19.22,1.05.22,5.24-4.05,6.58-4.94,28.41-18.79,64.29,1.55,60.34,35.63,28.21-8.78,57.56,12.66,47.02,43.2,32.59,3.26,42.44,51.28,9.6,62.42,1.81,6.34,7.1,10.21,8.03,17.16,2.49,18.51-10.2,29.99-27.03,33.69-.52.72.8,6.41.8,7.94,0,15.85-15.85,27.75-31.01,26.66-2.73-.2-7.09-2.07-9.48-1.35-1.38.41-6.16,6.44-8.05,7.79-7.63,5.4-19.49,5.35-28.27,3.63l-.97,11.05c9.58.06,18.12,4.26,24.23,11.51,11.79-13.48,28.34-15.84,44.86-10.07,1.7-9.6,8.69-20.14,19.68-18.72-.5-17.01,14.24-29.63,30.74-29.49,2.08-14.13,9.73-24.24,24.91-24.53,3.64-11.78,9.66-15.46,22.01-13.26,3.59-16.45,23.05-18.92,26.92-1.08,9.84-2.29,16.73,1.16,20.98,10.2,2.58-.44,6.36.69,8.58.58,2.53-.12,5.81-8.02,7.84-9.87-8.23-5.83-14.48-12.12-13.86-23.03.26-4.52,3.59-9.37,3.24-13.31-.4-4.58-5.09-8.39-7.04-12.2-7.2-14.08,1.07-30.64-.04-45.56-.71-9.58-5.63-18.58-6.24-28.32-1.13-17.8,6.14-39.38,24.48-45.58,4.2-1.42,9.42-1.24,13.27-3.05,3.46-1.62,7.68-6.97,11.24-9.4,26.49-18.08,65.7-7.07,84.59,17.05,6.23,7.96,10.38,18.19,17.07,25.64,12.34,13.74,35.99,17.13,35.03,39.82-.1,2.41-1.06,5.23-.99,7.69.26,9.6,12.21,13.73,17.66,20.3l10.22-1.58c1.86-16.45,16.65-24.87,32.14-19.2,3.13,1.15,5.56,3.52,8.64,4.55,5.37-18.36,25.1-30.9,44.15-27.36v-75.37h-173.46c-2.45,0-10.18-2.15-12.4-3.44-12.33-7.2,2.89-22.4,11.35-25.45,5.51-1.98,10.01-1.31,15.68-.88v-7.92c0-14.91,20.25-26.21,33.84-25.22,6.06.44,9.19,3.45,14.57,4.77,11.6-33.66,64.65-37.47,72.51,1,11.24-8.12,26.22-9.63,37.9-1.44V5.71ZM589.86,96.43v-45.84c-7.62-10.33-25.16-10.2-34.33-2.18-1.59,1.38-4.16,6.35-7.11,5.26-.87-.32-1.12-7.18-1.51-9.08-5.79-28.33-46.12-29.53-59.94-6.2-2.8,4.73-3.08,9.1-5.4,13.91-3.68-.32-5.19-4.21-8.77-6.05-12.16-6.22-32.2.92-35.79,14.64-1.41,5.39.45,7.52.72,12.27.58,9.97-6.12,2.58-10.78,2.15-7.55-.7-25.59,8.46-20.61,17.26,1.01,1.79,6.27,3.86,8.13,3.86h175.38ZM327.39,236.61v18.96c0,5.6,10.24,25.36,15.39,28.77,10.69,7.09,5.07-7.79,13.4-6.45-1.93,11.26,1.96,23.37,11.08,30.44,6.96,5.4,19.14,6.95,20.12,17.56,9.03-4.44,10.03-11.1,12.45-19.95,3.4-1.91,8.16-2.03,11.3-4.54,1.17-.94,6-8.91,6-9.84v-18.96c5.78,2.43,9.23-2.34,11.61-6.87,11.85-22.57-6.8-54.67-13.05-76.89-2.32-8.24-7.1-19.26,5.98-18.98,15.14.32,19.63,19.77,11.03,30.21-1.6,1.94-3.54,2.78-5.05,4.6l7.97,25.2c13.58,4.13,27.4,8.1,39.55,15.64,10.41,6.46,17.42,14.62,24.78,24.23,3.26.63,3.35-10.2,3.05-12.22-1.02-7.01-9.06-7.72-9.93-10.71-.67-7.37,1.44-14.38-2.41-21.11-4.15-7.26-14.81-11.38-17.6-18.88-3.67-9.9,3.87-16.92-4.37-27.79-5.53-7.3-15.09-10.19-22.01-15.9-17.63-14.53-22.39-37.23-44.08-49.03-16.48-8.97-43.13-11.55-58.82.36-2.57,1.95-4.74,5.23-7.24,7.16-9.24,7.16-20.87,3.92-30.73,14.39-19.6,20.8,1.14,49.07-2.51,72.85-1.05,6.83-4.29,12.4-3.7,19.8.78,9.83,11.12,16.71,10.98,26.81-.09,6.43-4.59,11.42-2.51,18.47,1.01,3.41,7.55,11.55,11.31,10.58,1.2-.31,8.1-11.63,8.02-13.09-7.15-13.03-2.49-28.07-4.91-41.68-1.2-6.76-5.35-13.88-7.32-20.52-2.16-7.29-2.96-14.97-5.03-22.29,5.27-9.27,16.85-18.29,18.18-29.38.6-4.99-2.4-15.22,4.4-15.32,4.94,7.37,12.17,13,20.63,15.83,19.38,6.46,47.39-.45,53.68,25.5,2.32,9.55,3.08,28.23-6.32,34.41-11.24,7.38-21.86-3.48-32.54-.87-2.89.7-7.04,7.11-11.01,8.67s-9.85.47-12.44,1.96c-4.81,2.78-6.77,16.32-17.31,8.84ZM6.38,119.72v230.18c9.31,1.12,18.33.63,27.32-1.94l-2.13-19.18c-1.31-2.85-15.83-2.68-15.04-8.29.67-4.75,6.63.15,8.65.75,8.55,2.53,15.35-2.21,22.92-5.21,4.68,5.79,6.16,13.68,10.56,19.72.94,1.3,2.52,4.07,4.32,3.37,2.61-1.07,12.12-26.13,11.55-28.23-.16-.58-4.37-2.21-2.68-4.7,8.07.14,16.77-1.54,22.32-7.91,2.39-2.74,5.98-11.07,7.66-12.5,1.37-1.16,4.12-1.21,4.57.68,1.65,6.94-14.52,18.49-12.7,26.94.82.88,11.3-6.82,12.48-7.92,10.32-9.57,8.7-19.61,27.12-20.87,22.48-1.55,9.28,17.36-2.55,20.49-2.75.73-6.29.28-8.5,1.57s-8.76,12.04-11.73,15.15c-3.44,3.59-8.83,8.03-12.75,11.25-1.69,1.39-4.76,2.47-6,4.08-1.62,2.1-5.6,18.66-4.56,20.42,11.83,5.86,25.74-.08,32.74-10.5,16.68,4.94,37.32-.83,37.13-21.43-.03-2.79-2.96-9.5-1.36-11.16.96-.99,14.03-3.19,17.64-5.15,11.29-6.13,14.07-24.82,5.26-34.08-1.59-1.67-7.78-4.5-7.13-7.11,3.25-2.34,7.51-2.93,11.3-5.06,27.79-15.59,10.78-53.9-18.07-52.89,13.86-31.95-14.47-53.87-44.15-40.04-2.93-1.4-.36-12.39-.48-15.38-1.13-27.42-36.36-37.78-55.66-21.15-1.65,1.42-5.02,6.68-6.93,6.51-4.65-3.93-5.99-10.62-10.1-15.39-9.05-10.52-29.75-13.76-41.03-5.04ZM348.5,222.2c6.45,1.21,9.01-5.14,13.28-8.07,9.67-6.65,22.16,1.78,32.54.39,4.92-.66,4.35-3.84,6.06-7.38.36-.74,1.57-.69,1.87-1.97,2.09-8.94-.49-18.22-4.1-26.16-7.09-15.6-28.91-11.02-42.93-14.66-7.5-1.95-14.16-6.26-20.63-10.31-.61,5.28-2.06,9.75-4.56,14.41-3.19,5.96-11.57,13.77-13.62,18.54-.42.98-.51,1.05-.45,2.19.18,3.7,4.09,17.23,5.32,21.61,1.49,5.28,3.27,11.41,5.85,16.23,6.18,11.53,6.82,4.32,12-1.94.93-1.12,2.83-1.75,3.12-2.28.8-1.47,1.1-10.72.91-12.77-.4-4.31-3.31-9.32-.91-13.52,3.77-1.52,4.67,3.03,5.36,5.71,1.6,6.25,1.78,13.59.9,19.98ZM425.28,197.72c7.65-.82,7.52-16.53,3.04-20.09-1.7-1.35-6.91-3.21-8.97-2.4-.42.09-.59.34-.74.72-1.02,2.63,7.16,17.63,6.67,21.77ZM589.86,181.88c-13.87-2.93-29.89,4.59-36.55,16.96-2.67,4.97-3.81,10.87-5.68,16.16-1.41,1.13-6.99-6.42-8.13-7.46-8-7.21-21.22-6.03-26.66,3.61-.66,1.18-2.63,5.42-2.63,6.49v6.96h-12.47c1.83,5.34.37,11.06,1.02,16.5.64,5.3,3.08,4.36,5.95,7.49,7,7.63,4.98,17.49-.03,25.5l16.56,30.46,8.64,2.63c.88-.89-11.15-19.95-5.43-23.47,3.59-1.17,5.98,11.1,6.98,13.52,1.23,2.96,2.56,6.03,4.13,8.83.57,1.02,7.25,11.89,8.71,10.24-.87-9.63-.51-19.41-1.44-29.03-1.7-17.47-4.72-14.45-11.41-27.47-.55-1.07-3.06-5.2-.37-5.41,5.29.51,6,5.35,8.77,8.5.29.34-.01.9,1.1.61v-9.84c0-.49.84-4.25,1.19-4.57l4.09-.47c-.87,7.32,1.78,13.75,8.4,17.27.75-2.15,8.37-13.43,11.06-9.61,2.89,4.1-7.65,11.62-6.98,16.35,3.26-2.16,13.81-9.54,17.42-7.24,2.89,4.36-4.77,5.29-7.5,6.85-12.79,7.35-14.4,13.23-13.28,27.5.78,9.96,3.7,19.62,4.8,29.53,12.23-7.54,14.55-23.31,17.73-36.26l4.03.21c2.42,1.76-2.62,16.12-3.05,19.24,4.36-1,8.07-3.7,11.04-6.96v-123.61ZM452.69,295.24c1.47-.36,2.39.07,3.49.94,4.95,3.89,14.61,41.03,13.67,47.68-.76,5.37-19.83,32.87-24.23,38.65-1.33,1.75-8.89,8.97-8.34,10.79,13.4,5.34,26.93,11.35,35.6,23.46,5.19,7.25,7.57,16.2,13.57,22.9,33.33-31.93,49.25-72.02,35.28-117.85-11.58-37.99-42.03-80.24-84.46-84.71,2.88,14.29.34,28.2-9.82,38.89-.84.88-3.72,2.54-4.08,3.24-2.92,5.66.82,14.12-5.37,22.34-3.53,4.68-10.89,6.01-12.62,8.49-1.34,1.92-1.14,5.6-2.43,8.13-2.81,5.5-12.47,14.55-19.29,12.39-1.71-13.54-17.61-14.39-25.05-23.18-3.96-4.68-5.18-11.08-8.17-16.31-5.73-.64-9.98-.6-14.16-5.03-1.1-1.17-5.55-8.84-7.41-7.66-7.11,14.65-16.94,27.72-25.36,41.6-6.33,10.44-7.23,18.35-19.45,24.22-3.42,1.65-40.6,13.88-40.14,16,19.73,14.15,24.87,39.09,35.09,59.71,24.05-6.51,43.96-26.47,57.91-46.35,2.03-2.9,7.32-10.02,8.02-13.1.86-3.75-3.04-15.9-3.94-20.56-1.52-7.9-4.09-17.25-1.51-24.97,1.47-.44,2.33.03,3.29,1.1,2.23,2.49,4.85,29.25,5.9,34.9,4.58,24.43,9.84,39.98,37.04,42.63,7.57.74,39.55,1.55,44.83-1.7,4.99-3.07,21.76-28.28,25.84-34.63,1.64-2.55,7.68-11.24,8.14-13.46,1.1-5.26-3.29-20.69-5.15-26.31-1.06-3.21-9.38-20.53-6.67-22.24ZM553.39,269.27l-6.72-4.1,3.61,120.26c2.64-1.04,11.56.18,13.23-2.12,1.21-1.67-.72-14.76-1.15-17.66-2.64-17.78-7.66-35.77-10.27-53.57-2.1-14.33-3.54-28.82,1.29-42.8ZM269.16,282.86c-2.79-2.52-7.45-.86-9.43,1.99-2.84,4.08-1.37,9.75-3.83,13.95-1.56.95-12.02-6.82-17.71-1.42-3.35,3.18-1.95,11.4-3.6,12.72-2.13,1.72-5.4-.72-7.28-.98-10.84-1.47-19.95,14.94-17.48,24.44-11.23-1.41-26.43,2.96-29.53,15.35-.83,3.33-.18,11.48-1.91,13.45-2.5,2.83-8.28-1.88-13.2,2.64-2.08,1.91-6.89,10.67-6.14,13.35.94,3.36,11.13,6.99,7.06,12.3-3.92.18-5.59-3.98-8.43-6.11-11.21-8.38-31.38-8.05-41.44,2.06-1.68,1.69-5.06,8.04-7.44,7.92-1.95-.1-6.86-7.96-8.61-9.6-4.03-3.76-9.7-4.61-15.05-4.24-2.66,14.9.57,30.06.89,45.06,1.88-.48,7.36-.21,8.63-1.21,1.34-1.06,2.12-7.89,6.86-11.38,10.59-7.8,15.87-2.21,25.43-3.84,4.12-.71,7.44-4.95,12.16-5.6,10.73-1.47,13.46,4.77,21.07,5.13,2.26.11,4.94-.66,7.62-.31,3.18.41,6.38,3.5,9.06,2.73,1.25-.36,12.77-13.46,12.83-14.54l-5.24-2.93c-4.66-3.61-11.1-11.75-5.82-17.25,1.74-1.81,5.38-2.81,7.32-4.54,1.74-1.54,2.62-4.18,5.01-5.69,5.86-3.71,13.29-1.75,19.73-3.07,7.69-15.79,24.28-26.64,42.11-20.55,3.02,1.03,6.07,4.02,9.08,3.88,3.37-.16,22.71-8.14,25.65-10.39,5.63-4.31,9.08-14.03,12.44-20.2.96-1.76,6.61-10.06,6.29-10.9-1.24-3.23-10.46,1.15-11,.67-1.07-12.67-10.67-14.58-20.17-7.89-1.59-.69-2.77-12.15-5.91-14.99ZM117.7,300.93h6.96c5.65,0,13.18-4.87,15.11-10.33.25-3.13-25.37,2.33-22.07,10.33ZM66.83,450.22c.25-8.17,4-14.72,10.07-19.93,2.41-2.07,6.08-1.86,3.9-6.76-.49-1.1-1.46-1.1-1.98-2.34-2.3-5.39-1.78-24.66-1.45-31.23.52-10.21,4.58-49.04,10.58-55.66,2.93-3.23,9.7-7.5,13.43-11.04,2.29-2.17,14.36-14.93,14.81-16.91.23-.99-.45-1.61-1.24-2-8.87,5.02-15.62,17.12-27.01,16.75l1.92-12.96c-.39-.36-8.96,2.98-9.58,3.61-1.56,1.6-6.02,18.05-7.76,21.99-2.32,5.22-5.27,10.43-9.76,14.09-4.12.39-14.34-20.38-16.56-24.13l-9.63,2.97c8.66,41.15.1,83.15-2.36,124.52,10.75-1.75,21.75-1.88,32.62-.96ZM544.75,357.1c-.42-6.02.66-12.01.5-18.02-.07-2.7-.83-12.54-1.72-14.6-.35-.82-9.29-10.57-10.12-11-1.09-.56-8.67-1.95-9.3-1.49,3.48,12.65,7.77,25.27,8.23,38.56l12.4,6.56ZM589.86,313.89c-3.78,2.71-11.01,2.89-14.38,5.54-4.16,3.27-6.9,13.56-12.89,16.35l2.8,16.52c8.43-4.86,16.71-4.35,24.47,1.44v-39.84ZM217.02,364.78h18.47c.1,0,1.06-1.05,1.63-1.04-2.69-9.19,10.68-11.17,16.85-13.37-12.02-11.51-32.71.7-36.95,14.41ZM5.9,355.18v31.92c3.61,1.12,6.59,2.17,9.92,4,2.27,1.25,8.79,6.91,9.75,7.08,1.63.28,7.81-4.7,8.15-6.29l.97-38.63c-9.63,2.2-18.95,3.58-28.79,1.92ZM589.86,385.42v-24.24c0-5.08-19.05-10.71-22.49-3.3-2.5,5.4,1.94,18.84,2.31,24.93l20.19,2.61ZM541.22,360.64c-2.02-2.02-6.04-3.8-8.94-3.54.91,12.47-3.64,24.19-6.71,36l19.13-6.78c.33-7.34,2.26-19.95-3.47-25.69ZM219.47,400.74c4.19.38,7.42-2.88,11.29-3.74,7.61-1.69,13.02.24,20.66-4.3,12.59-7.47.07-18.89-7.31-24.57-14.29,4.04-30.41-1.19-44.53,1.03-2.78.44-6.62,1.04-7.5,4.25,7.32,3.05,31.11,2.47,35.51,8.89,4.62,6.74-10.75,11.34-8.11,18.44ZM349.46,407.03c-.25-8.03,4.58-16.25,3.83-24.24-.43-4.56-4.28-10.3-6.7-14.17l-20.4,26.41-17.99,16.54,13.42,10.34c2.75-13.4,15.67-17.11,27.84-14.88ZM211.26,382.07c-4.17-.79-8.99-.68-13.07-1.57-6.2-1.35-12.6-7.24-16.69,1.79l3.13.79,26.63-1ZM223.26,384.95l-7.68-1.92c2.28,2.27,2.34,3.88-.84,5.19-6.34-.36-13.24-.78-19.57-.42-2.02.11-6.38.45-8.14.98-.65.2-.87-.37-.72.95,9.47,2.87,19.52.81,29.02,3.36l7.92-8.15ZM589.86,391.66c-22.91-6.6-48.48-1.69-68.62,10.43.25,11.88,3.8,23.4,5.62,35.08,7.94,50.85,12.07,102.29,17.42,153.48-.3,7.16-15.72,13.91-22.07,14.15.71,8.55,6.19,15.69-.23,23.53-4.52,5.52-38.14,23.1-44.8,22.24-2.27-.29-3.77-2.03-6.11-2.52-5.81-1.2-13.59.49-19.13-1.51-2.54-.92-3.48-3.17-5.54-4.06-3.53-1.53-8.99.2-10.67-5.16-3.86-12.32,16.19-18.95,23.14-25.31-22.28.34-44.56-.52-66.7-2.89v6.96c0,5.99,7.97,17.17,11.14,21.97,3.06,4.64,6.31,20.97,9.27,23.85,8.42,4.89,27.5,7.02,34.31,13.2,8.65,7.84-2.77,17.89-4.13,24.71-.84,4.21,1.65,6.61-1.25,10.75-1.28,1.83-3.35,2.25-4.25,3.43-1.17,1.52-1.01,3.76-2.85,5.79-2.3,2.53-16.78,11.86-19.93,12.22-6.8.78-12.7-3.33-18.95-5.04-10.45-2.86-30.01-2.56-33.86-15.09-.4-1.31-.1-2.79-.53-4.27-1.27-4.3-20.54-18.49-25.11-22.88-2.21-2.13-11.91-13.91-13.74-14.06-26.51,13.16-51.71,30.61-82.96,28.23-4.63-.35-17.46-4.4-20.5-3.77-4.04.85-4.45,7.72-6.71,9.68-2.62,2.27-11.15,4.02-14.76,5.34-2.51.92-2.09,2.92-6.24,1.94-3.49-.82-10-7.66-14.06-9.93-5.09-2.85-10.73-4.39-15.82-7.7-4.1-2.66-7.78-6.25-12.08-9.04-16.19-10.46-37.14-17.86-45.29-37.26-9.4-22.38-2.55-76.66,17.53-92.74,1.41-1.13,18.46-11.15,17.91-12.08-6.32-3.96-9.64,1.5-14.97,3.02-10.76,3.07-11.17-1.46-19.33-3.99-7.45-2.31-14.01-.72-19.91-7.45-1.78-2.04-5.23-9.81-6.27-10.52s-5.01-.96-6.88-1.76c-3.89-1.66-9.13-8.69-9.77-12.78-.71-4.48,1.44-11.22.73-14.16-.4-1.62-4.36-5.51-5.42-7.55-4.63-8.98-2.14-18.56,3.63-26.16.66-.87,6.45-5.92,5.26-6.97-17.52-1.61-35.2,1.02-52.02,5.8-2.75.78-6.3,1.36-8.44,3.08v371.32h583.96v-443.56ZM433.91,398.39c-25.41.09-53.22,5.62-75.81-9.12-13.2,62.93-17.09,127.38-20.64,191.53,12.35-1.38,24.84-1.82,35.03,6.48,5.22,4.25,7.74,10.63,12.61,15.23,41,5.24,86.18,7.77,127.03.15,5.96-1.11,25.42-5.33,26.75-12.12-5.26-60.1-11.71-120.29-22.44-179.66-7.81,7.22-11.8,17.44-18.94,25.45-2.07,2.32-9.48,9.62-12.05,10.51-7.89,2.72-19.49-6.56-26.35-9.89-2.87.27-11.04,20.57-20.28,21.37-2.27.2-3.6-1.51-5.57-1.34-2.18.18-3.38,2.62-6.71,2.37-1.3-.1-10.22-3.2-11.45-3.94-3.56-2.13-3.11-4.89-4.94-7.53-2.31-3.32-6.06-2.75-6.89-8.47-1.54-10.57,5.95-23.19,13.91-29.68,5.21-4.24,12.06-6.38,16.75-11.32ZM260.68,392.14c-2.05.54-5.48,2.96-5.74,5.09-.66,5.38,12.54,16.99,16.78,20.35l-11.04-25.44ZM5.9,394.3v38.4c.33.45.5.61,1.09.63,3.02.1,9.09-2.61,13.05-2.8,3.76-.19,6.74.55,10.31,1.44-.02-2.5,3.8-32.11,2.19-32.14-2.4.97-4.92,7.35-7.57,6.65-3.91-3.43-6.73-8.16-11.42-10.69-1.21-.65-7.03-3.31-7.64-1.48ZM305.64,415.82c-3.72-3.01-7.36,2-10.56,3.76-4.12,2.26-14.2,7.4-18.65,7.02-8.86-.77-22.23-19.56-27.26-26.56-4.7.78-9.86.54-14.5,1.36-5.46.96-9.92,4.88-15.5,4.19-6.03-.74-2.95-5.63-5.04-7.43s-15.86-3.01-18.21-1.45l-15.29,17.83c3.2,4.26,2.86,9.49,4.5,14.07,1.09,3.06,3.88,5.66,4.43,9.01.72,4.42-.95,7.96-.89,11.88.13,8.16,12.08,22.24,15.81,30.31,8.07,17.48,6.53,35.12-7.13,49.13,46.6-9.59,59.67,45.16,88.55,67.68,9.6,7.48,7.13,3.92,15.44-.85,9.17-5.27,19.72-9.53,29.84-12.63l12.96-145.82c-11.9-3.57-26.19-9.67-35.69-17.82-1.17-1-1.94-2.98-2.8-3.67ZM437.75,452.63c2.07,2.36,17.87-19.21,19.21-20.86,3.2-3.98,11.77-9.93,8.36-16.08-1.9-3.42-20.18-14.87-23.99-14.94-1.97-.04-14.48,8.25-16.88,10.02-5.63,4.14-10.72,8.59-13.65,15.14-1.58,3.52-4.55,11.64-1.35,14.49,2.39-3.18,2.85-7.14,4.72-10.65,1.47-2.76,10.73-15.65,14.51-12.92,3.1,2.24-5.39,8.96-6.73,10.61-3.71,4.59-8.5,14.77-6.68,20.58.59,1.89,2.31,3.88,4.52,3.19.35-5.14,2.31-10.06,4.61-14.59,1.53-3.01,7.4-13.44,11.61-11.77,2.77,3.74-3.41,8.29-5.36,11.3s-3.47,6.64-4.18,10.22c-.45,2.27-1.73,6.56.49,8.04,5.24.53,12.35-22.89,19.21-23.42l2.07,1.34c1.16,3.82-11.27,14.72-10.47,20.29ZM137.93,445.02c10.85,1.91,18.56.46,20.05-11.88,9.84,2.48,26.93,2.85,19.64-12.38-4.21-8.8-14.13-5.57-21.66-7.14-4.84-1.01-8.67-5.22-14.51-5.15-6.54.08-10.33,6.67-14.04,7.1-2.75.31-8.36-2.33-11.87-2.3-9.15.07-13.83,6.8-15.8,14.9-8.58,2.42-16.5,1.98-22.59,9.56-5.05,6.3-5.17,13.06-4.14,20.79-9.3,6.21-17.08,18.35-9.74,29.1,1.29,1.89,5.33,4.54,5.85,6.64.72,2.91-1.06,3.97-1.58,6.33-1.63,7.4,1.15,14.12,8.01,17.48,2.54,1.25,6.99,1.59,8.6,2.92,2.69,2.21,2.72,9.06,7.89,12.75,6.21,4.44,11.46,1.57,17.06,3.58,2.57.92,3.34,4.49,6.98,5.02s8.13-1.21,11.23-3.09c.17-.78-9.03-8.53-10.44-8.79-2.72-.5-8.47,2.02-12.37,1.86-22.71-.94-24.36-34.72-3.88-34.04,5.06.17,11.97,7.39,12.23-3.71.15-6.4-7.87-18.75-7.63-21.05.3-2.8,7.86-4.36,7.66-9.58-.07-1.88-2.56-4.34-.97-6.33,1.5-1.88,6.45.51,8.5.72,9.75.97,14.61-4.77,17.54-13.31ZM347.41,412.43c-3.9-4.66-24.27,3.28-19.96,12.06,2.04,4.15,13.47,6.31,17.69,7.5-.38-3.78,4.37-17.06,2.27-19.56ZM471.28,422.93c-.84-.45-1.3.13-1.8.71-.86,1.01-5.04,9.28-4.64,10.24.81,1.95,14.74,8.53,15.61,7.7-1.13-2.27-8.26-18.16-9.17-18.65ZM5.9,440.39v17.28l21.98-5.14,1.9-14.5c-.52-2.48-12.2-1.96-14.51-1.72-3.16.33-7.21,1.75-9.37,4.07ZM118.18,464.15c.74,5.16-4.54,7.25-6.23,11.32,3.41,8.93,9.82,19.53,2.64,28.54-6.53,8.19-8.05-1.02-13.93-1.01-12.13.02-12.64,19.23.46,23.58,7.46,2.48,11.93-2.36,17.18-1.36,3.12.59,12.21,9.1,16.22,11.15,25.7,13.15,71.2-5.03,70.04-37.43-.4-11.14-17.88-43.07-24.77-52.98-5.88-8.47-7.91-6.56-17.9-7.19-1.71,10.63-11.04,12.84-20.35,11.56-2.06,1.9-2.37,4.52-4.19,6.85-4.42,5.65-12.32,7.59-19.18,6.97ZM263.09,600.96c-9.07-6.22-15.62-13.5-21.98-22.41-4.93-6.9-12.71-18.63-16.02-26.22-5.67-13,6.78-.32,9.41,3.07,9.7,12.55,14.12,27.74,26.67,38.61,3.73,3.23,17.12,11.42,21.59,12.49,2.34.56,4.64-.01,5.08-2.67-23.81-14.23-34.42-45.51-55.5-61.62-30.98-23.68-52.79,8.03-84.88,3.55l-.96,6.24c-3,.42-3.39-1.81-4.61-3.88-3.17-.69-20.06,13.8-22.51,16.84-12.96,16.08-18.49,63.83-10.39,82.41s29.76,22.81,44.85,33.38c4.47,3.13,6.78,7.45,11.23,10.37,4.9,3.22,10.93,4.32,15.83,7.2,1.33.78,11.66,9.38,12.62,8.25,1.23-6.56-11.22-9.56-10.07-15.09,1.01-4.81,8.63,3.11,10.05,4.79,1.34,1.59,5.7,10.48,7.73,7.7,2.31-7.64-7.57-10.3-11.06-14.94-.69-.92-2.15-2.33-.99-3.36,3.48-2.33,13.17,6.71,14.91,9.6,1.59,2.64,1.23,6.45,5.26,6.02,1.95-11.18-12.18-12.36-12.48-21.61,2.69-2.69,16.41,9.84,15.84,13.92,4.72-1.25-1.01-9.22-2.87-11.29-8.44-9.4-17.87-8.53-28.8-11.51-7.67-2.1-11.36-6.07-17.05-11.27-3.81-3.48-22.7-21.66-24.16-24.79-1.23-2.65.96-16.63,1.46-20.51.42-3.27,3.27-23.53,4.48-24.8s4.71-.21,5.05,1.71c.91,5.13-5.12,15.92-3.63,23.28,1.12,5.57,14.65,22.8,18.97,27.59,2.89,3.2,21.39,20.43,24.28,20.84l5.71-12.46c14.11-25.92,38.81-42,66.95-49.44ZM400.97,649.76c-8.53-18.02-20.61-55.24-39.87-63.09-16.96-6.91-46.01,6.04-60.73,15.34-3.08,1.95-11.14,9.32-13.63,9.88-5.84,1.32-9.38-4.1-14.21-5.74-5.58-1.9-11.97.64-17.37,2.48-27.13,9.25-53.65,30.59-59.74,59.74,5.27,2.28,11.21,4.53,15.38,8.66,3.75,3.71,6.77,11.26,11.32,13.64,8.77,4.59,31.65,3.25,41.46,1.27,22.11-4.47,39.44-19.77,60.57-26.59,6.3,6.18,12.15,12.84,18.58,18.9,3.74,3.52,22.38,18.24,23.54,20.61,1.38,2.81-.82,7.97,3.08,10.36l44.57,11.48,1.74-.69c-1.15-1.45-9.76-5.13-6.43-7.98s13.64,7.8,15.04,4.07c.61-4.26-9.54-4.5-8.42-8.35,1.71-5.82,11.04,3.41,14.36,2.44l.73-3.04c-.94-3.22-13.69-1.73-10.51-8.3,5.61-1.23,10.55,2.23,15.56,4.04,1.73-1.21,2.16-2.42,1-4.23-2.81-4.37-28.01-9.4-34.17-11.42-7.9-2.58-8.77-3.79-14.01-9.98-12.77-15.1-32.33-50.71-50.98-56.52-21.77-6.79-39.85,4.77-59.65,5.41-2.95.1-7.28-1.2-3.83-4.33,6.41-5.81,48.17-8.43,57.62-7.69,28.5,2.23,47.93,48.19,66.46,66l38.23,11.68c1.07-.07,3.27-2.48,2.8-3.72-2.69-3.14-9.09-2.64-8.42-8.17l12.93,2.87.3-1.93c-.95-3.16-10.96-3.45-11.3-5.56,1.89-4.02,6.29-1.59,9.57-1.87-10.15-6.3-21.99-8.86-33.07-13-3.6-4.53-4.69-10.35-7.12-15.45-.34-.7-1.27-1.01-1.38-1.24ZM516.9,607.23l-47.99,5c-5.61,4.76-26.69,13.29-27.77,20.7-.5,3.39,1.52,5.17,4.76,3.8,2.45-1.04,8.98-17.9,12.41-7.29-4.06,3.22-12.68,13.61-1.35,12.12,1.71-5.29,5.64-11.69,11.98-11.3.94,5.26-6.04,6.65-6.52,11.52,7.78,6.68,10.02-9.88,17.11-8.44,4.31.88-4.15,9.18-5.3,10.6,2.15,3.06,4.07,2.27,7.16,1.42,5.33-1.47,32.37-15.68,35.79-19.4,5.52-6.02.28-12.05-.27-18.71ZM145.05,623.04c.47,3.99-1.49,8.6,1.19,12.01,13.16,10.63,22.33,27.5,39.84,31.66-6.61-6.92-15.38-11.68-21.85-18.94-6.96-7.8-11.06-18.01-19.18-24.73Z"/>
  <path d="M589.86,391.66v443.56H5.9v-371.32c2.14-1.73,5.68-2.3,8.44-3.08,16.82-4.77,34.51-7.4,52.02-5.8,1.2,1.05-4.6,6.1-5.26,6.97-5.77,7.6-8.26,17.18-3.63,26.16,1.05,2.04,5.02,5.93,5.42,7.55.72,2.93-1.43,9.67-.73,14.16.65,4.1,5.89,11.12,9.77,12.78,1.87.8,5.81,1.02,6.88,1.76s4.49,8.49,6.27,10.52c5.89,6.73,12.46,5.14,19.91,7.45,8.16,2.53,8.57,7.06,19.33,3.99,5.33-1.52,8.65-6.98,14.97-3.02.55.93-16.5,10.95-17.91,12.08-20.08,16.08-26.93,70.36-17.53,92.74,8.15,19.4,29.09,26.8,45.29,37.26,4.31,2.78,7.98,6.38,12.08,9.04,5.09,3.3,10.73,4.85,15.82,7.7,4.07,2.27,10.58,9.11,14.06,9.93,4.15.98,3.73-1.02,6.24-1.94,3.61-1.33,12.14-3.07,14.76-5.34,2.27-1.96,2.68-8.84,6.71-9.68,3.05-.64,15.87,3.41,20.5,3.77,31.24,2.38,56.44-15.07,82.96-28.23,1.84.15,11.53,11.93,13.74,14.06,4.57,4.39,23.85,18.58,25.11,22.88.43,1.47.13,2.96.53,4.27,3.85,12.53,23.41,12.23,33.86,15.09,6.25,1.71,12.15,5.82,18.95,5.04,3.15-.36,17.63-9.69,19.93-12.22,1.84-2.03,1.68-4.26,2.85-5.79.9-1.18,2.97-1.6,4.25-3.43,2.9-4.14.42-6.54,1.25-10.75,1.36-6.82,12.77-16.88,4.13-24.71-6.82-6.18-25.9-8.31-34.31-13.2-2.96-2.89-6.21-19.21-9.27-23.85-3.17-4.81-11.14-15.98-11.14-21.97v-6.96c22.14,2.37,44.42,3.22,66.7,2.89-6.95,6.36-27,12.99-23.14,25.31,1.68,5.36,7.14,3.63,10.67,5.16,2.05.89,3,3.14,5.54,4.06,5.53,2,13.32.3,19.13,1.51,2.34.48,3.84,2.23,6.11,2.52,6.66.86,40.28-16.72,44.8-22.24,6.42-7.83.95-14.97.23-23.53,6.35-.25,21.77-7,22.07-14.15-5.35-51.19-9.48-102.63-17.42-153.48-1.82-11.67-5.37-23.2-5.62-35.08,20.14-12.11,45.72-17.02,68.62-10.43ZM551.95,429.59c.45-3.84-1.69-17.59-7.41-16.29-.5.3-.62.47-.66,1.06-.05.74,3.53,13.7,3.99,14.28s3.87,1.18,4.08.96ZM553.87,418.78c-.47,3.15.34,7.28,0,10.56.51.63.74.86,1.6.65,2.6-.64,4.15-13.38,4.65-16-3.31-1.25-5.8,1.8-6.25,4.79ZM572.11,417.59c-6.82-1.4-9.23,5.44-9.12,11.04,5.3.65,8.54-6.61,9.12-11.04ZM570.19,467.03c.93-7.12,3.78-20.42-8.16-15.11-5.44,2.42-8.4,9.41-8.16,15.11-4.77-1.63-8.31-5.9-13.91-4.8l5.75,21.24c1.68,2.67,25.73,3,28.54.82,1.11-.87,4.52-8.57,5.06-10.3,4.67-14.89-8.07-5.88-9.12-6.97ZM36.61,501.59c-.41-3.94-1.71-9.7-6.72-9.12l3.63,15.78c1.81-.83,4.02-.08,5.71-.43,2.29-.47,5.64-11.23,6.94-13.68-5.67-3.01-6.77,4.44-9.56,7.45ZM22.08,494.97c-.67.1-1.42.53-1.71,1.19-1.38,3.81,7.06,17.16,8.47,9.88.3-1.56-3.04-9.2-4-10.19-.56-.58-1.96-1-2.77-.87ZM568.1,513.7c-3.62.31-8.67,13.82-4.31,16.64l1.61-.17c.77-.47,4.65-13.06,4.7-14.55.05-1.4-.71-1.77-2-1.91ZM549.67,514.67c-1.92,1.61,2.96,5.66,3.62,6.95.96,1.9,1.65,9.87,4.89,8.55,5.75-3.53-3.86-19.4-8.51-15.5ZM572.93,519.45c-3.52.76-7.05,9.83-3.86,10.89,2.74.91,5.43-7.54,7.79-8.9-.56-1.89-2.1-2.39-3.93-2ZM39.47,567.86c-3.78,12.2,15.23,11.37,10.33,22.53-5.06-8.19-35.39-24.06-27.47-2.27,6.77,18.64,36.77,22.93,51.45,11.39,10.53-8.28,19.31-29.59-3.1-21.34-6.32,2.33-12.35,7.28-15.6,13.18-2.93-3.56-.01-10.62,2.25-14.06,4.29-6.53,4.01-1.92,9.8-1.83,11.58.17,14.58-12.12,6.98-19.45,5.33-6.59,2.6-17.74-6.53-18.43-2.62-.2-7.21,1.22-8.91.79-2.17-.55-5.03-6.99-9.46-7.86-9.44-1.85-12.62,6.92-11.7,14.72-15.78,3.36-15.41,22.68,1.96,22.63ZM575.93,584.18c-2.77-4.28-11.89,9.73-10.55,12.94-1.39-1.81-7.46-10.83-10.1-8.92-1.49,1.07,2.9,12.01,4.07,12.79,1.27.85,6.22.83,5.56-1.48.18-.17,2.36,2.55,4.59,1,1.45-1.01,5.42-13.82,6.42-16.34ZM575.79,601.78c1.39-.98,8.27-11.32,6.87-12.58-5.42-2.49-10.57,7.28-9.6,11.52.32,1.41,1.56,1.89,2.73,1.06ZM58.7,630.7c-4.2-7.98-17.85-6.03-24.17-1.34-4.25,3.16-10.42,12.86-3.2,16,5.52,2.4,18.41,2.24,23.99,0,1.91-.76,4.64-3.46,6.48-3.64,2.97-.28,7.17,2.25,10.54,2.45,6.69.4,15.83-1.29,12.97-10.09-2.49-7.64-14.82-9.86-21.44-6.58-2.09,1.03-3.07,3.09-5.16,3.2ZM549.46,626.07c-6.38.59-15.95,4.98-18.56,11.19-6.38,15.21,23.19,13.63,31.23,12.04,15.86-3.13,7.85-19.04-3.19-22.44-3.24-1-6.11-1.1-9.48-.79ZM515,716.17v24c-6.61-10.77-20.03-20.79-33.28-20.1-8.24.43-7.76,4.5-5.93,11.08,6.34,22.88,34.01,31.26,55.04,25.58,15.08-4.08,31.82-17.89,28.26-35.23-16.01-3.56-28.1,6.64-37.86,17.71v-25.44c9.29,5.1,25.34,2.09,27.23-9.96,1.09-6.92-1.69-9.33-6.6-13.32,17.7-11.05,3.02-30.09-13.91-21.85-2.37-18.19-29.84-16.61-28.32,2.4-18.97-3.28-27.55,18.52-8.15,25.93-8.49,11.34-1.26,25.42,13.19,23.99,4.73-.47,6.42-2.88,10.32-4.79ZM99.46,681.61v-7.92c0-2.42-4.35-7.51-6.47-8.89-11.76-7.74-30.14-1.31-30.01,13.93-22.48-15.05-39.97,19.56-14.88,28.56-7.02,7.95-7.85,20.8,2.4,26.4-.48.7-.86.73-1.65.75-3.6.07-16.19-5.14-17.5,1.69-2.19,11.43,12.7,25.59,22.02,30.23,24.88,12.39,68.38,3.98,68.64-29.54h-9.84c-4.12,0-13.43,3.31-17.18,5.38-7,3.86-11.2,10.62-17.13,15.75v-24.96c15.53,13.05,38.13-.2,28.79-20.16,25.64-2.97,16.46-36.8-7.2-31.21ZM303.75,716.29c-2.12-1.94-4.61,1.58-5.38,3.25-.98,2.13-3.53,13.55-1.38,14.35,4.03,1.5,3.26-5.6,3.64-7.29.47-2.13,5.2-8.41,3.12-10.32ZM294.28,733.94c.93-7.71-4.5-17.18-12.96-16.8.78,6.78,9.55,9.17,8.15,16.8h4.8ZM311.43,720.58c-3.27.45-9.37,8.86-8.9,12.05.19,1.3,2.12,3.01,3.41,2.68s7.95-12.7,7.49-14.04c-.44-.98-1.15-.81-2-.7ZM179.6,724.81c-9.42-1.3-14.17,6.25-17.04,13.91-4.77-4.94-10.48-10.62-17.99-10.07.7,8.37,8.58,14.29,7.67,23.04l32.07.87c1.97-6.03,8.04-10.53,7.31-17.39-4.26-1.56-9.12-.4-12.98,1.63l.96-12ZM286.44,764.97c4.43-4.54-.18-11.38-4.66-13.97-5.52-3.19-12.06-2.62-17.89-.8-10.29-16.85-29.89-17.94-45.91-8.36-11.28,6.74-13.6,18.38.5,23.52,15.25,5.55,23.22-.24,36.69.22,3.89.13,6.32,2.87,9.65,3.35,5.18.75,17.76,0,21.62-3.96ZM381.61,756.01l3.75-15.61c-9.83-2.9-16.63,7.52-21.27,14.65-2.71-3.23-4.66-8.07-7.96-10.75-2.03-1.65-14.01-7.54-12.34-1.59.19.66,1.13,1.18,1.44,1.93,2.08,4.92,3.76,10.34,4.22,15.7-2.93-2.05-13.42-9.83-16.82-7.47-2.27,1.58,4.23,11.04,5.05,13.24,1.75,4.64.4,10.41,6.23,11.04,13.25,1.43,28.94-1.4,42.4-1.06l13.04-24.88c-6.97-2.07-11.9,2.03-17.75,4.79ZM477.14,780.94c-8.04-23.18-35.22-29.09-49.85-7.79-.87,1.27-2.84,6.03-3.09,6.27-.43.41-9.46,2.49-11.39,3.25-14.1,5.5-27.45,21.37-4.43,25.54,18.37,3.33,24.9-3.23,40.18-4.65,13.85-1.29,39.34,3.7,50.95-3.27,7.16-4.3,4.23-14.95-1.93-18.92-6.41-4.13-13.72-3.16-20.44-.43ZM139.66,773.9c-9.28,1.17-26.46,13.57-15.72,22.68,9.61,8.16,24,1.44,34.28,3.15,4.76.79,6.38,3.61,13.49,3.35,15.75-.58,16.14-15.04,3.69-17.66-3-.63-9.8-.09-11.62-.86-.85-.36-4.04-5.21-5.54-6.46-4.99-4.17-12.31-5-18.58-4.21ZM553.74,798.13c1.46-1.32,1.96-7.71,2.78-9.94.57-1.56,5.32-7.66,2.79-8.58-6.55-2.37-10.25,12.34-9.17,16.86.41,1.7,2.02,3.09,3.61,1.65ZM542.83,798.74l4.11-.45c.99-5.26-1.37-10.95-5.3-14.44-2.78-2.47-9.25-5.56-7.23.99.87,2.81,11.03,7.39,8.42,13.9ZM568.64,783.96c-1.03.24-7.83,6.29-8.45,7.41-1.51,2.71-1.97,8.55,2.45,7.28.78-.22,9.09-12.1,9.25-12.88.27-1.32-2-2.1-3.25-1.81ZM309.57,806.83c.28-.44-.09-1.73.18-2.45,1.56-4.18,8.32-11.34,8.82-14.28.15-.9,0-1.15-.74-1.66-6.38-1.13-14.08,13.66-12.89,18.11.02,1.88,4.43.62,4.64.28ZM303.37,806.89c1.97-7.43-4-19.67-12.93-17.51l-.75,2.63c6.68,3.46,8.65,6.99,9.95,14.33l3.73.55ZM58.61,810.19c.16-.25.29-3.19.69-4.35,1.29-3.65,3.93-7.02,3.15-11.11-.46-1.17-2.32-.95-3.28-.54-2.88,1.24-5.88,14.23-5.28,17.51.18.2,4.59-1.3,4.72-1.51ZM50.93,811.63c3.22-2.01-5.1-20.27-11.32-16.6-2.64,2.34,3.97,6.94,4.87,8.55,1.24,2.22.89,6.87,3.61,7.91.6.23,2.36.44,2.84.14ZM323.9,794.53c-3.94.77-12.95,10.97-8.19,13.77,2.31,1.36,6.21-6.01,7.81-7.91.85-1,2.08-1.04,2.64-1.68,2.12-2.41,1.7-4.96-2.26-4.18ZM233.73,796.49c-5.97.48-16.87,5.89-17.2,12.59-.64,12.95,47.02,12.81,34.2-5.89-3.84-5.6-10.55-7.22-17-6.7ZM71.04,796.91c-3,.66-14.52,14.9-6.48,15.68,2.35-.61,4.42-7.27,5.89-9.03,1.68-2.02,5.29-1.95,2.85-5.77l-1.06-.91c-.41-.16-.79-.06-1.2.03Z" fill="#fff"/>
  <path d="M589.86,5.71v36.96c-11.68-8.19-26.66-6.68-37.9,1.44-7.86-38.47-60.91-34.66-72.51-1-5.38-1.32-8.51-4.33-14.57-4.77-13.59-.99-33.84,10.31-33.84,25.22v7.92c-5.67-.44-10.17-1.11-15.68.88-8.47,3.05-23.68,18.25-11.35,25.45,2.21,1.29,9.95,3.44,12.4,3.44h173.46v75.37c-19.05-3.54-38.78,9-44.15,27.36-3.08-1.03-5.5-3.41-8.64-4.55-15.48-5.67-30.28,2.76-32.14,19.2l-10.22,1.58c-5.45-6.57-17.39-10.7-17.66-20.3-.07-2.46.89-5.29.99-7.69.96-22.7-22.69-26.08-35.03-39.82-6.69-7.45-10.84-17.68-17.07-25.64-18.89-24.11-58.1-35.12-84.59-17.05-3.56,2.43-7.78,7.78-11.24,9.4-3.85,1.81-9.07,1.63-13.27,3.05-18.34,6.2-25.6,27.78-24.48,45.58.62,9.74,5.53,18.74,6.24,28.32,1.11,14.92-7.16,31.49.04,45.56,1.95,3.81,6.64,7.62,7.04,12.2.35,3.94-2.98,8.79-3.24,13.31-.62,10.91,5.63,17.19,13.86,23.03-2.03,1.85-5.31,9.74-7.84,9.87-2.23.11-6.01-1.02-8.58-.58-4.25-9.03-11.14-12.49-20.98-10.2-3.86-17.84-23.32-15.37-26.92,1.08-12.35-2.19-18.37,1.49-22.01,13.26-15.18.28-22.83,10.4-24.91,24.53-16.5-.14-31.24,12.48-30.74,29.49-10.98-1.42-17.98,9.12-19.68,18.72-16.52-5.77-33.07-3.41-44.86,10.07-6.11-7.25-14.66-11.45-24.23-11.51l.97-11.05c8.78,1.72,20.64,1.77,28.27-3.63,1.9-1.34,6.67-7.37,8.05-7.79,2.39-.71,6.75,1.16,9.48,1.35,15.15,1.09,31-10.81,31.01-26.66,0-1.53-1.32-7.22-.8-7.94,16.83-3.71,29.52-15.18,27.03-33.69-.93-6.95-6.23-10.82-8.03-17.16,32.84-11.13,22.99-59.15-9.6-62.42,10.54-30.54-18.81-51.98-47.02-43.2,3.95-34.09-31.92-54.42-60.34-35.63-1.34.89-5.53,5.16-6.58,4.94-7.86-20.06-32.48-27.91-51.6-19.22V5.71h583.48ZM109.92,23.13c-13.16,1.26-23.43,10.21-29.46,21.42-9.6-5.29-19.99-5.32-28.93,1.3-6.8,5.03-7.88,11.01-11.57,18.19-10.03-1.09-18.98,4.05-19.23,14.88s6.53,11.81,15.16,12.71c37.54,3.94,79.19.16,117.05-.49,9.9-.17,55.09,5.67,44.01-16.63-3.73-7.5-10.48-5.56-13.26-8.34-1.51-1.51-3.74-9.42-5.62-12.14-6.65-9.6-20.45-9.52-29.84-4.23-3.81-4.66-5.51-10.4-9.44-15.03-7.14-8.41-17.88-12.69-28.87-11.64ZM300.11,83.54c2.79.13,7.55-.2,8.08-3.71.73-4.84-5.85-4.72-8.61-6.69-2.56-1.83-3.1-5.06-7.11-6.33-9.63-3.04-14.55,1.22-20.5,8.01-1-3.34-.94-6.65-1.82-10.17-2.08-8.42-9.04-17.06-17.61-19.35-9.57-2.56-15.07,4.1-13.41,13.42.34,1.93,1.81,2.34,2.41,3.83.7,1.74.28,3.89,1.4,5.56-4.76.04-22.1-16.08-24.37-6.37-2.1,8.99,8.21,20.62,14.29,26.3-9.2.19-20.99,9.08-5.76,12.24-6.14,19.96,16.45,8.9,24.3,3.46,17.44,10.45,45.52,1.2,48.7-20.2ZM177.2,128.12c3.91-20.87-19.17-18.44-22.08-1.92-5.01-1.94-8-5.37-13.94-4.11-4.37.93-3.29,2.79-1.83,5.97,9.24-2.81,11.38,4.79,16.47,10.17,3.87-1.55,2.63-6.16,3.35-9.17,1.12-4.65,5.72-12.98,11.68-10.22,2.23,1.04.27,9.34-.48,11.34-.42,1.13-5.43,8.05-.26,7.47,4.46-.5,7.13-5.68,14.88-4.14,6.45,1.28,4.47,10.18,10.83,8.45,1.28-10.06-9.91-15.99-18.63-13.84ZM523.7,133.84c-6.03-12.42-27.18-9.31-35.09-.68-1.45,1.58-3.94,7.38-4.45,7.79-2.42,1.92-9.28-1.34-14.99,3.48-6.9,5.83-6.43,16.24,2.86,19.24,11.74,3.78,46.54,2.92,60.02,2.39,8.31-.33,26.84.08,24.66-12.71-.92-5.38-5.77-4.09-7.2-5.76-1.2-1.39-1.16-7.19-4.04-10.84-5.88-7.47-13.88-5.65-21.77-2.92ZM217,158.83c-12.73-9.64-32.35.13-30.15,16.52,1.02,7.62,7.22,8.67,13.63,9.41,5.42.63,12.2.81,17.73.99,10.41.34,40,1.17,48.56-2.34,11.24-4.6,3.21-17.03-6.27-17.3-.98-.03-4.55.96-5.12.66-.85-.45-4.22-9.91-8.26-12.84-9.54-6.92-24.3-6.43-30.12,4.9ZM260.08,220.89c-4.19-4.81-15.73,7.56-15.23,12.35-5.75-4.05-11.54-9.25-19.19-7.19.25,5.72,2.01,3.8,5.54,5.25,3.09,1.27,7.75,3.87,9.55,6.77,2.19,3.53,1.97,17.24,7.19,16.31,3.77-2.5,4-8.28,8.36-10.88,2.58-1.54,12.03-2.54,12.72-4.14l.12-1.81c-5.84-6.77-14.53,2.35-20.44,4.81-.26-4.57,1.83-11.55,5.25-14.66,1.63-1.48,8.9-3.63,6.13-6.81Z" fill="#fff"/>
  <path d="M433.91,398.39c-4.69,4.93-11.54,7.07-16.75,11.32-7.97,6.49-15.45,19.1-13.91,29.68.83,5.72,4.58,5.14,6.89,8.47,1.84,2.64,1.39,5.4,4.94,7.53,1.23.74,10.16,3.84,11.45,3.94,3.33.25,4.53-2.19,6.71-2.37,1.98-.17,3.31,1.54,5.57,1.34,9.23-.8,17.41-21.1,20.28-21.37,6.86,3.33,18.46,12.61,26.35,9.89,2.57-.89,9.98-8.19,12.05-10.51,7.15-8.01,11.13-18.22,18.94-25.45,10.74,59.37,17.18,119.57,22.44,179.66-1.33,6.79-20.79,11.01-26.75,12.12-40.85,7.62-86.03,5.09-127.03-.15-4.86-4.6-7.38-10.98-12.61-15.23-10.2-8.3-22.68-7.86-35.03-6.48,3.55-64.16,7.44-128.6,20.64-191.53,22.59,14.74,50.41,9.21,75.81,9.12ZM380.1,472.38h-3.7c-2.01,1.2,2.73,28.21,3.44,32.18,2.7,15.16,6.55,32.91,13.99,46.49,1.62,2.97,3.92,7.94,8.07,6.61s-1.15-5.22-1.79-6.17c-2.85-4.21-5.69-11.2-7.47-16.05-7.41-20.21-9.17-41.93-12.54-63.06ZM457.79,493.07c-.32-.37-3.83-1.53-4.67-1.55-2.09,1.33,2.78,18.63,3.58,21.59,3.09,11.44,17.15,52.47,29.01,55.94,9.54,2.79-2.88-10.3-3.8-11.55-9.65-13.16-14.85-26.16-19.07-41.89-.86-3.19-4.3-21.67-5.05-22.55Z" fill="#fff"/>
  <path d="M452.69,295.24c-2.71,1.71,5.6,19.03,6.67,22.24,1.86,5.62,6.25,21.04,5.15,26.31-.46,2.22-6.5,10.91-8.14,13.46-4.09,6.35-20.85,31.56-25.84,34.63-5.28,3.25-37.26,2.43-44.83,1.7-27.2-2.65-32.47-18.2-37.04-42.63-1.06-5.65-3.68-32.41-5.9-34.9-.96-1.07-1.82-1.54-3.29-1.1-2.58,7.72,0,17.07,1.51,24.97.9,4.66,4.8,16.82,3.94,20.56-.7,3.08-5.99,10.2-8.02,13.1-13.95,19.88-33.85,39.85-57.91,46.35-10.23-20.62-15.36-45.56-35.09-59.71-.46-2.11,36.72-14.35,40.14-16,12.23-5.88,13.12-13.78,19.45-24.22,8.41-13.88,18.24-26.95,25.36-41.6,1.86-1.18,6.31,6.5,7.41,7.66,4.19,4.43,8.43,4.39,14.16,5.03,2.99,5.24,4.21,11.64,8.17,16.31,7.45,8.79,23.34,9.64,25.05,23.18,6.83,2.15,16.48-6.89,19.29-12.39,1.29-2.53,1.09-6.2,2.43-8.13,1.73-2.48,9.1-3.81,12.62-8.49,6.19-8.22,2.45-16.68,5.37-22.34.37-.71,3.24-2.36,4.08-3.24,10.16-10.69,12.71-24.6,9.82-38.89,42.43,4.47,72.88,46.72,84.46,84.71,13.97,45.83-1.94,85.92-35.28,117.85-6-6.7-8.38-15.65-13.57-22.9-8.67-12.12-22.2-18.12-35.6-23.46-.55-1.82,7.01-9.04,8.34-10.79,4.4-5.77,23.47-33.28,24.23-38.65.94-6.65-8.72-43.79-13.67-47.68-1.11-.87-2.03-1.29-3.49-.94Z" fill="#fff"/>
  <path d="M6.38,119.72c11.28-8.73,31.98-5.48,41.03,5.04,4.1,4.77,5.45,11.47,10.1,15.39,1.9.17,5.28-5.09,6.93-6.51,19.31-16.64,54.53-6.28,55.66,21.15.12,2.99-2.44,13.98.48,15.38,29.68-13.83,58,8.09,44.15,40.04,28.86-1.01,45.86,37.3,18.07,52.89-3.79,2.12-8.05,2.72-11.3,5.06-.65,2.61,5.54,5.44,7.13,7.11,8.8,9.26,6.03,27.95-5.26,34.08-3.61,1.96-16.69,4.15-17.64,5.15-1.6,1.66,1.33,8.37,1.36,11.16.2,20.6-20.45,26.37-37.13,21.43-7,10.42-20.91,16.35-32.74,10.5-1.04-1.76,2.94-18.32,4.56-20.42,1.24-1.61,4.3-2.69,6-4.08,3.92-3.22,9.31-7.66,12.75-11.25,2.97-3.1,9.48-13.83,11.73-15.15s5.76-.85,8.5-1.57c11.84-3.13,25.03-22.03,2.55-20.49-18.42,1.27-16.8,11.31-27.12,20.87-1.18,1.09-11.66,8.79-12.48,7.92-1.83-8.45,14.35-20,12.7-26.94-.45-1.89-3.2-1.84-4.57-.68-1.68,1.42-5.28,9.76-7.66,12.5-5.55,6.37-14.25,8.04-22.32,7.91-1.69,2.48,2.52,4.11,2.68,4.7.57,2.1-8.94,27.16-11.55,28.23-1.8.7-3.37-2.07-4.32-3.37-4.4-6.04-5.88-13.93-10.56-19.72-7.57,3-14.37,7.74-22.92,5.21-2.02-.6-7.98-5.51-8.65-.75-.79,5.61,13.73,5.43,15.04,8.29l2.13,19.18c-8.99,2.57-18.01,3.07-27.32,1.94V119.72ZM41.89,174.2c-22.7-.48-22.9,25.75-8.38,37.42,12.28,9.88,32.5,6.15,40.43-7.52,9.54-16.44.63-35.24-19.1-34.46-3.79-13.81-15.01-7.44-12.95,4.56ZM127.78,217.88c-.49-.71,4.29-3.92,5.26-5.05,2.99-3.45,5.46-9.85,5.76-14.4.31-4.82.51-5.8-4.6-6.42-10.1-1.22-18.45,4.29-21.54,13.86-4.88-3.35-16-13.68-17.88-2.51-1.04,6.18.94,11.51,4.13,16.61-26.41,21.46,5,54.42,31.23,37.96,14.75-9.26,15.73-34.67-2.36-40.05ZM24.37,230.85c-2.27-.31-5.09.22-7.44,0v10.32c0,5.13,5.74,13.46,9.59,16.8-21.32,15.49-5.62,45.34,18.96,42.96,21.26-2.06,35.92-35.19,9.36-41.76,8.71-15.33,4.07-26.2-11.74-11.99-4.37-6.46-10.32-15.17-18.73-16.32Z" fill="#fff"/>
  <path d="M305.64,415.82c.86.7,1.63,2.67,2.8,3.67,9.49,8.15,23.78,14.26,35.69,17.82l-12.96,145.82c-10.11,3.11-20.67,7.37-29.84,12.63-8.3,4.77-5.84,8.33-15.44.85-28.87-22.52-41.94-77.26-88.55-67.68,13.65-14.01,15.19-31.65,7.13-49.13-3.73-8.08-15.68-22.15-15.81-30.31-.06-3.92,1.6-7.46.89-11.88-.55-3.36-3.33-5.96-4.43-9.01-1.64-4.59-1.29-9.82-4.5-14.07l15.29-17.83c2.35-1.56,16.06-.4,18.21,1.45s-.99,6.69,5.04,7.43c5.58.68,10.04-3.23,15.5-4.19,4.64-.82,9.8-.57,14.5-1.36,5.02,7,18.4,25.79,27.26,26.56,4.45.39,14.53-4.75,18.65-7.02,3.2-1.76,6.84-6.77,10.56-3.76ZM197.42,435.27c1.65,2.85,7.16-5.37,8-6.5,1.88-2.53,9.14-12.78,9.9-15.05.63-1.9.56-3.71-1.78-3.26-3.18.61-18.63,19.6-16.12,24.81ZM235.74,415.67c-1.57,0-3.1-.3-4.34.83s-4.58,11.72-5.39,14.15c-3.18,9.47-7.04,21.27-8.83,31.01-.38,2.09-2.35,9.8-.03,10.81,2.92,1.28,5.58-9.28,6.25-11.31,4.9-14.89,8.35-30.35,12.34-45.5ZM253.49,495.35v-78.49c0-1.4-4.8-1.4-4.8,0v78.49h4.8ZM277.43,438.76l-3.79-.06c-.25,5.47,1.64,10.74,3.02,15.95,4.07,15.36,9.93,30.26,13.85,45.67l4.25,1.27-17.32-62.83ZM318.27,465.59c1.08-2.43-5.42-20.54-7.86-11.9-.55,1.94,3.86,16.73,5.29,17.13l6.42.33c.36-3.53,13.15-16.43,3.36-13.93l-7.22,8.38ZM310.59,471.35c.28-4.92-1.78-13.94-8.16-12.96-.47.43,3.37,11.7,3.79,12.18s4.17.99,4.37.78ZM259.25,513.11c-7.45-.76-7.49,8.93-9.36,13.92-1.47-4.44-6.4-13.14-11.97-11.98s4.93,8.41,5.7,9.62c1.09,1.71,1.8,8.13,2.16,8.4,3.54-.24,6.3.23,9.57-1.3-1.08-6.91,3.85-12.04,3.9-18.67ZM308.08,515.64c-12.27,1.68-23.4,19.4-3.98,21.01,7.85.65,26.84.4,21.94-12.35-2.58-6.71-11.3-9.58-17.96-8.67ZM269.67,518.5c-2.2.49-5.82,4.53-6.97,6.46-.79,1.32-3.66,6.67-1.52,7.61,2.87,1.26,6.84-6.13,8.37-7.96,1.36-1.62,5.76-3.06,3.42-5.79-.84-.66-2.3-.55-3.3-.33ZM300.38,556.88c-3.29.86-8.87,16.67-3.94,18.63.9-.13,5.86-16.23,5.91-17.15.08-1.47-.58-1.79-1.97-1.47ZM291.4,574.08c.83-6.53-2.7-14.79-10.08-14.88,2.66,4.43,3.66,15.67,10.08,14.88ZM312.44,562.15c-3.64-2.12-14.28,7.43-12.88,11.93,1.06-.22,4.08.35,4.73-.08.1-.07.22-1.28.76-1.86,1.22-1.33,10.27-8.31,7.4-9.99Z" fill="#fff"/>
  <path d="M327.39,236.61c10.54,7.47,12.5-6.06,17.31-8.84,2.59-1.49,8.65-.47,12.44-1.96s8.12-7.97,11.01-8.67c10.68-2.6,21.3,8.26,32.54.87,9.41-6.18,8.64-24.86,6.32-34.41-6.29-25.95-34.3-19.04-53.68-25.5-8.46-2.82-15.69-8.46-20.63-15.83-6.8.1-3.8,10.33-4.4,15.32-1.33,11.09-12.91,20.11-18.18,29.38,2.07,7.32,2.87,15,5.03,22.29,1.97,6.64,6.11,13.77,7.32,20.52,2.42,13.6-2.23,28.65,4.91,41.68.08,1.46-6.82,12.78-8.02,13.09-3.77.97-10.3-7.17-11.31-10.58-2.09-7.05,2.42-12.05,2.51-18.47.14-10.11-10.2-16.98-10.98-26.81-.59-7.39,2.65-12.96,3.7-19.8,3.65-23.78-17.08-52.06,2.51-72.85,9.86-10.46,21.49-7.23,30.73-14.39,2.5-1.94,4.67-5.21,7.24-7.16,15.69-11.91,42.33-9.33,58.82-.36,21.69,11.8,26.45,34.49,44.08,49.03,6.93,5.71,16.48,8.6,22.01,15.9,8.24,10.87.7,17.89,4.37,27.79,2.78,7.5,13.44,11.62,17.6,18.88,3.85,6.73,1.74,13.74,2.41,21.11.87,2.98,8.91,3.7,9.93,10.71.29,2.02.21,12.85-3.05,12.22-7.36-9.61-14.37-17.77-24.78-24.23-12.15-7.54-25.97-11.51-39.55-15.64l-7.97-25.2c1.51-1.82,3.45-2.67,5.05-4.6,8.6-10.44,4.12-29.89-11.03-30.21-13.08-.28-8.29,10.75-5.98,18.98,6.25,22.22,24.9,54.31,13.05,76.89-2.38,4.53-5.82,9.3-11.61,6.87v18.96c0,.93-4.82,8.9-6,9.84-3.14,2.5-7.9,2.62-11.3,4.54-2.42,8.84-3.41,15.51-12.45,19.95-.98-10.61-13.16-12.16-20.12-17.56-9.11-7.07-13.01-19.18-11.08-30.44-8.34-1.34-2.71,13.54-13.4,6.45-5.14-3.41-15.39-23.17-15.39-28.77v-18.96ZM393.96,225.17c-2.09.42-3.67,3.32-5.9,3.73-4.29.77-7.78-1.3-11.86-1.82-1.79.5-2.62,7.39-8.86,8.46-4.53.78-10.74-1.3-14.54-.15-2.19.66-14.44,13.14-4.76,10.6,2.59-.68,4.64-4.37,7.54-4.94,5.5-1.07,9.73,1.14,15.64-1.64,1.98-.93,6.28-4.97,7.81-5.19,1.81-.27,4.71.96,6.62.9,3.76-.13,13.43-4.21,10.89-9.35-.72-.8-1.6-.78-2.57-.59Z" fill="#fff"/>
  <path d="M400.97,649.76c.11.23,1.05.53,1.38,1.24,2.44,5.1,3.52,10.92,7.12,15.45,11.08,4.14,22.91,6.7,33.07,13-3.28.28-7.68-2.16-9.57,1.87.34,2.11,10.34,2.4,11.3,5.56l-.3,1.93-12.93-2.87c-.67,5.54,5.72,5.04,8.42,8.17.47,1.24-1.73,3.65-2.8,3.72l-38.23-11.68c-18.53-17.81-37.96-63.77-66.46-66-9.45-.74-51.21,1.88-57.62,7.69-3.44,3.12.88,4.42,3.83,4.33,19.8-.64,37.88-12.19,59.65-5.41,18.66,5.82,38.21,41.42,50.98,56.52,5.24,6.2,6.11,7.4,14.01,9.98,6.17,2.02,31.37,7.05,34.17,11.42,1.16,1.81.72,3.01-1,4.23-5.01-1.81-9.95-5.27-15.56-4.04-3.18,6.57,9.57,5.07,10.51,8.3l-.73,3.04c-3.32.98-12.66-8.26-14.36-2.44-1.13,3.85,9.03,4.09,8.42,8.35-1.39,3.72-11.69-6.95-15.04-4.07s5.28,6.53,6.43,7.98l-1.74.69-44.57-11.48c-3.9-2.38-1.7-7.55-3.08-10.36-1.16-2.37-19.8-17.09-23.54-20.61-6.43-6.05-12.28-12.71-18.58-18.9-21.13,6.82-38.46,22.12-60.57,26.59-9.81,1.98-32.69,3.32-41.46-1.27-4.54-2.38-7.56-9.93-11.32-13.64-4.17-4.13-10.11-6.38-15.38-8.66,6.1-29.15,32.61-50.49,59.74-59.74,5.4-1.84,11.79-4.38,17.37-2.48,4.82,1.64,8.37,7.06,14.21,5.74,2.49-.56,10.55-7.93,13.63-9.88,14.72-9.3,43.77-22.26,60.73-15.34,19.26,7.85,31.34,45.07,39.87,63.09Z" fill="#fff"/>
  <path d="M263.09,600.96c-28.14,7.44-52.83,23.52-66.95,49.44l-5.71,12.46c-2.88-.41-21.39-17.65-24.28-20.84-4.32-4.78-17.85-22.02-18.97-27.59-1.49-7.36,4.55-18.15,3.63-23.28-.34-1.92-3.82-3.02-5.05-1.71s-4.06,21.53-4.48,24.8c-.49,3.88-2.69,17.86-1.46,20.51,1.46,3.14,20.35,21.31,24.16,24.79,5.69,5.19,9.38,9.17,17.05,11.27,10.93,2.98,20.36,2.11,28.8,11.51,1.86,2.07,7.59,10.04,2.87,11.29.56-4.08-13.15-16.62-15.84-13.92.29,9.24,14.42,10.42,12.48,21.61-4.03.43-3.67-3.38-5.26-6.02-1.74-2.88-11.42-11.93-14.91-9.6-1.16,1.03.3,2.44.99,3.36,3.49,4.64,13.37,7.3,11.06,14.94-2.04,2.78-6.39-6.12-7.73-7.7-1.42-1.68-9.05-9.6-10.05-4.79-1.16,5.53,11.29,8.53,10.07,15.09-.96,1.13-11.29-7.47-12.62-8.25-4.9-2.89-10.93-3.99-15.83-7.2-4.45-2.92-6.76-7.24-11.23-10.37-15.09-10.57-36.53-14.28-44.85-33.38s-2.57-66.33,10.39-82.41c2.45-3.03,19.34-17.52,22.51-16.84,1.22,2.07,1.61,4.3,4.61,3.88l.96-6.24c32.1,4.48,53.9-27.23,84.88-3.55,21.08,16.12,31.69,47.39,55.5,61.62-.44,2.66-2.74,3.23-5.08,2.67-4.47-1.08-17.85-9.26-21.59-12.49-12.55-10.86-16.97-26.06-26.67-38.61-2.62-3.39-15.08-16.07-9.41-3.07,3.31,7.58,11.09,19.32,16.02,26.22,6.36,8.9,12.91,16.18,21.98,22.41ZM178.18,595.18c8.66-.7,6.44-7.43-1.46-6.22l1.46,6.22Z" fill="#fff"/>
  <path d="M589.86,96.43h-175.38c-1.87,0-7.12-2.07-8.13-3.86-4.98-8.8,13.06-17.96,20.61-17.26,4.66.43,11.36,7.81,10.78-2.15-.27-4.74-2.13-6.88-.72-12.27,3.59-13.72,23.62-20.86,35.79-14.64,3.59,1.83,5.09,5.73,8.77,6.05,2.32-4.81,2.6-9.17,5.4-13.91,13.82-23.33,54.15-22.14,59.94,6.2.39,1.91.64,8.76,1.51,9.08,2.94,1.09,5.52-3.88,7.11-5.26,9.17-8.01,26.71-8.15,34.33,2.18v45.84Z" fill="#fff"/>
  <path d="M589.86,181.88v123.61c-2.96,3.25-6.67,5.95-11.04,6.96.43-3.11,5.46-17.48,3.05-19.24l-4.03-.21c-3.18,12.95-5.5,28.72-17.73,36.26-1.09-9.91-4.02-19.57-4.8-29.53-1.12-14.28.49-20.16,13.28-27.5,2.73-1.57,10.39-2.5,7.5-6.85-3.61-2.3-14.17,5.08-17.42,7.24-.66-4.73,9.87-12.25,6.98-16.35-2.69-3.82-10.31,7.46-11.06,9.61-6.62-3.52-9.27-9.95-8.4-17.27l-4.09.47c-.35.32-1.19,4.09-1.19,4.57v9.84c-1.12.29-.81-.27-1.1-.61-2.77-3.15-3.48-7.99-8.77-8.5-2.69.21-.18,4.34.37,5.41,6.69,13.01,9.71,10,11.41,27.47.94,9.62.57,19.41,1.44,29.03-1.46,1.66-8.14-9.21-8.71-10.24-1.57-2.8-2.9-5.86-4.13-8.83-1-2.42-3.39-14.69-6.98-13.52-5.72,3.51,6.31,22.57,5.43,23.47l-8.64-2.63-16.56-30.46c5.01-8.01,7.03-17.87.03-25.5-2.87-3.13-5.31-2.19-5.95-7.49-.66-5.44.8-11.16-1.02-16.49h12.47v-6.97c0-1.07,1.97-5.31,2.63-6.49,5.43-9.64,18.66-10.83,26.66-3.61,1.15,1.03,6.72,8.58,8.13,7.46,1.87-5.3,3.01-11.19,5.68-16.16,6.66-12.37,22.68-19.9,36.55-16.96Z" fill="#fff"/>
  <path d="M269.16,282.86c3.14,2.84,4.33,14.3,5.91,14.99,9.5-6.69,19.1-4.78,20.17,7.89.54.49,9.76-3.9,11-.67.32.84-5.33,9.15-6.29,10.9-3.36,6.17-6.8,15.89-12.44,20.2-2.93,2.24-22.27,10.23-25.65,10.39-3.01.14-6.06-2.85-9.08-3.88-17.83-6.09-34.42,4.76-42.11,20.55-6.43,1.32-13.87-.64-19.73,3.07-2.39,1.51-3.27,4.15-5.01,5.69-1.95,1.73-5.58,2.72-7.32,4.54-5.28,5.5,1.16,13.64,5.82,17.25l5.24,2.93c-.07,1.08-11.58,14.18-12.83,14.54-2.68.77-5.88-2.32-9.06-2.73-2.68-.35-5.36.42-7.62.31-7.61-.36-10.34-6.6-21.07-5.13-4.72.65-8.04,4.9-12.16,5.6-9.55,1.64-14.84-3.95-25.43,3.84-4.74,3.49-5.51,10.32-6.86,11.38-1.27,1-6.75.73-8.63,1.21-.32-14.99-3.55-30.15-.89-45.06,5.35-.37,11.03.48,15.05,4.24,1.75,1.64,6.67,9.5,8.61,9.6,2.37.12,5.75-6.23,7.44-7.92,10.05-10.11,30.23-10.45,41.44-2.06,2.84,2.13,4.51,6.29,8.43,6.11,4.07-5.31-6.12-8.94-7.06-12.3-.75-2.68,4.06-11.43,6.14-13.35,4.92-4.52,10.7.2,13.2-2.64,1.74-1.97,1.08-10.12,1.91-13.45,3.1-12.39,18.3-16.76,29.53-15.35-2.47-9.5,6.64-25.91,17.48-24.44,1.89.26,5.15,2.7,7.28.98,1.64-1.33.25-9.55,3.6-12.72,5.69-5.4,16.15,2.37,17.71,1.42,2.47-4.2.99-9.87,3.83-13.95,1.98-2.85,6.64-4.52,9.43-1.99Z" fill="#fff"/>
  <path d="M118.18,464.15c6.87.62,14.76-1.32,19.18-6.97,1.82-2.33,2.12-4.95,4.19-6.85,9.31,1.28,18.63-.93,20.35-11.56,9.99.63,12.02-1.28,17.9,7.19,6.89,9.91,24.37,41.84,24.77,52.98,1.15,32.4-44.34,50.58-70.04,37.43-4.01-2.05-13.1-10.55-16.22-11.15-5.26-1-9.72,3.84-17.18,1.36-13.09-4.36-12.59-23.56-.46-23.58,5.88,0,7.4,9.2,13.93,1.01,7.18-9.01.77-19.6-2.64-28.54,1.69-4.07,6.97-6.17,6.23-11.32ZM164.36,457.79c2.41,2.42,7.48-1.97,9.83-2.17s6.4,2.36,8.24-.41c2.93-4.43-8.55-5.75-11.49-5.25s-9.94,4.46-6.57,7.83ZM137.27,465.21c-4.98.27-16.63,8.78-13.37,15.07,4.56.79,6.31-4.67,9.39-7,1.52-1.15,6.2-2.81,6.99-4.05,1.55-2.45-.61-4.15-3.01-4.02ZM175.76,479.52c4.49,1.13,10.84-1.41,12.37-6.12.59-1.82,1.45-5.62-.87-6.61-3.22-1.38-3.13,4.1-5.27,5.75-3.21,2.48-10.71-.92-7.9,6.48l-6.25-3.71c-7.16,6.67,10.65,8.83,9.64,17.18-.31,2.53-5.84,7.44-.53,9.14,9.54-3.83,6.62-17.55-1.18-22.12ZM133.05,490.55c-.93,8.3,11.43,6.38,16,3.28,2.95-2,7.61-8.9,3.01-11.01-4.11-1.88-3.41,2.48-4.87,4.82-3.71,5.93-13.28,2.05-14.13,2.9ZM98.38,508.43c-2.29.44-5.35,3.55-2.61,4.83,1.33.62,4-.8,5.81-.61,1.46.15,7.42,3.67,8.41,1.13,1.44-3.67-8.79-5.89-11.61-5.34ZM184.88,509.27c-3.73-1.18-6.04,2.35-8.91,2.85s-13.01-2.41-12.13,2.56c1.03,5.81,23.15,3.53,21.04-5.4Z" fill="#fff"/>
  <path d="M137.93,445.02c-2.93,8.54-7.79,14.28-17.54,13.31-2.05-.2-7-2.6-8.5-.72-1.58,1.99.9,4.45.97,6.33.2,5.22-7.36,6.78-7.66,9.58-.24,2.3,7.78,14.66,7.63,21.05-.26,11.1-7.17,3.87-12.23,3.71-20.49-.67-18.84,33.1,3.88,34.04,3.9.16,9.65-2.35,12.37-1.86,1.41.26,10.6,8,10.44,8.79-3.1,1.88-7.56,3.62-11.23,3.09s-4.4-4.1-6.98-5.02c-5.59-2-10.85.86-17.06-3.58-5.17-3.69-5.2-10.54-7.89-12.75-1.61-1.32-6.06-1.67-8.6-2.92-6.86-3.37-9.64-10.08-8.01-17.48.52-2.36,2.31-3.42,1.58-6.33-.52-2.09-4.56-4.74-5.85-6.64-7.33-10.75.45-22.89,9.74-29.1-1.04-7.74-.92-14.5,4.14-20.79,6.09-7.59,14.01-7.14,22.59-9.56,1.98-8.1,6.65-14.83,15.8-14.9,3.51-.03,9.12,2.61,11.87,2.3,3.71-.43,7.5-7.02,14.04-7.1,5.84-.07,9.67,4.14,14.51,5.15,7.52,1.57,17.44-1.66,21.66,7.14,7.29,15.22-9.8,14.85-19.64,12.38-1.49,12.34-9.2,13.79-20.05,11.88Z" fill="#fff"/>
  <path d="M66.83,450.22c-10.87-.92-21.87-.78-32.62.96,2.46-41.37,11.02-83.37,2.36-124.52l9.63-2.97c2.22,3.75,12.44,24.53,16.56,24.13,4.49-3.66,7.44-8.87,9.76-14.09,1.75-3.94,6.2-20.39,7.76-21.99.62-.63,9.18-3.98,9.58-3.61l-1.92,12.96c11.39.37,18.14-11.73,27.01-16.75.79.39,1.47,1.01,1.24,2-.45,1.98-12.52,14.74-14.81,16.91-3.73,3.54-10.5,7.81-13.43,11.04-6,6.62-10.06,45.45-10.58,55.66-.34,6.57-.85,25.84,1.45,31.23.53,1.24,1.5,1.24,1.98,2.34,2.18,4.91-1.5,4.7-3.9,6.76-6.07,5.21-9.82,11.76-10.07,19.93ZM53.88,377.74l-3.81.03c-.27,4.61-1.78,9.56-1.97,14.11-.08,1.81-.61,7.08,1.72,7.49.74.13,1.31-.09,1.93-.48,2.82-1.76,1.19-17.35,2.13-21.15ZM68.63,424.66c1.02-1.21.97-18.55-.1-19.57-.43-.41-.82-.59-1.43-.49-4.99.49-5.2,17.71-2.06,20.54.89.8,2.95.29,3.58-.48Z" fill="#fff"/>
  <path d="M348.5,222.2c.88-6.39.7-13.73-.9-19.98-.69-2.68-1.59-7.23-5.36-5.71-2.39,4.2.52,9.21.91,13.52.19,2.05-.11,11.3-.91,12.77-.29.53-2.19,1.16-3.12,2.28-5.17,6.26-5.82,13.47-12,1.94-2.58-4.82-4.36-10.94-5.85-16.23-1.23-4.38-5.13-17.91-5.32-21.61-.06-1.13.03-1.21.45-2.19,2.05-4.78,10.42-12.58,13.62-18.54,2.49-4.66,3.95-9.13,4.56-14.41,6.47,4.06,13.13,8.37,20.63,10.31,14.02,3.64,35.84-.95,42.93,14.66,3.61,7.94,6.18,17.22,4.1,26.16-.3,1.29-1.51,1.23-1.87,1.97-1.71,3.54-1.14,6.72-6.06,7.38-10.38,1.39-22.87-7.04-32.54-.39-4.26,2.93-6.83,9.28-13.28,8.07ZM368.49,171.03c-2.83.15-7.61,1.76-8.37,4.78.34,3.94,9.81,1.5,12.61,1.76,1.95.18,6.85,2.75,8.16.48,3.13-5.42-9.31-7.17-12.4-7.01ZM323.52,195.79c.63-6.11,10.96-5.55,9.65-11.77-3.58-2.39-17.59,4.66-14.38,10.55l4.73,1.22ZM368.77,191.12c-.84.89-.73,5.03-.55,6.32.74,5.48,4.51,7.82,9.84,6.09,2.92-4.09,1.78-12.73-3.93-13.44-1.25-.16-4.53.17-5.35,1.03ZM330.61,201.19c-5.96,1.39-3.75,17.46,5.52,13.2,5.33-2.45,2.11-14.99-5.52-13.2Z" fill="#fff"/>
  <path d="M516.9,607.23c.56,6.66,5.79,12.7.27,18.71-3.41,3.73-30.46,17.93-35.79,19.4-3.09.85-5.01,1.65-7.16-1.42,1.15-1.42,9.62-9.72,5.3-10.6-7.09-1.44-9.32,15.12-17.11,8.44.48-4.87,7.46-6.26,6.52-11.52-6.34-.39-10.27,6.01-11.98,11.3-11.32,1.49-2.71-8.9,1.35-12.12-3.43-10.61-9.96,6.25-12.41,7.29-3.24,1.38-5.26-.4-4.76-3.8,1.09-7.41,22.17-15.94,27.77-20.7l47.99-5Z" fill="#fff"/>
  <path d="M437.75,452.63c-.79-5.57,11.64-16.47,10.47-20.29l-2.07-1.34c-6.86.53-13.97,23.96-19.21,23.42-2.22-1.49-.94-5.77-.49-8.04.71-3.58,2.2-7.18,4.18-10.22s8.14-7.56,5.36-11.3c-4.21-1.67-10.09,8.76-11.61,11.77-2.3,4.53-4.26,9.45-4.61,14.59-2.21.69-3.93-1.3-4.52-3.19-1.82-5.8,2.97-15.98,6.68-20.58,1.34-1.66,9.83-8.37,6.73-10.61-3.78-2.73-13.03,10.15-14.51,12.92-1.86,3.5-2.33,7.47-4.72,10.65-3.19-2.86-.22-10.97,1.35-14.49,2.93-6.55,8.02-11,13.65-15.14,2.4-1.77,14.91-10.06,16.88-10.02,3.81.08,22.09,11.52,23.99,14.94,3.41,6.15-5.16,12.1-8.36,16.08-1.33,1.66-17.14,23.22-19.21,20.86Z" fill="#fff"/>
  <path d="M5.9,355.18c9.84,1.66,19.16.28,28.79-1.92l-.97,38.63c-.34,1.59-6.52,6.57-8.15,6.29-.97-.17-7.48-5.83-9.75-7.08-3.33-1.83-6.31-2.88-9.92-4v-31.92Z" fill="#fff"/>
  <path d="M219.47,400.74c-2.64-7.1,12.73-11.7,8.11-18.44s-28.19-5.83-35.51-8.89c.87-3.21,4.71-3.82,7.5-4.25,14.13-2.22,30.24,3.01,44.53-1.03,7.38,5.68,19.9,17.1,7.31,24.57-7.64,4.53-13.05,2.61-20.66,4.3-3.87.86-7.1,4.12-11.29,3.74Z" fill="#fff"/>
  <path d="M349.46,407.03c-12.17-2.23-25.09,1.48-27.84,14.88l-13.42-10.34,17.99-16.54,20.4-26.41c2.42,3.87,6.27,9.6,6.7,14.17.76,7.99-4.08,16.21-3.83,24.24Z" fill="#fff"/>
  <path d="M553.39,269.27c-4.83,13.98-3.4,28.47-1.29,42.8,2.61,17.8,7.63,35.79,10.27,53.57.43,2.9,2.35,15.99,1.15,17.66-1.67,2.31-10.59,1.08-13.23,2.12l-3.61-120.26,6.72,4.1Z" fill="#fff"/>
  <path d="M5.9,394.3c.61-1.83,6.43.82,7.64,1.48,4.69,2.53,7.52,7.26,11.42,10.69,2.65.7,5.17-5.68,7.57-6.65,1.61.04-2.21,29.64-2.19,32.14-3.57-.89-6.55-1.62-10.31-1.44-3.97.2-10.03,2.9-13.05,2.8-.58-.02-.75-.18-1.09-.63v-38.4Z" fill="#fff"/>
  <path d="M589.86,313.89v39.84c-7.76-5.79-16.04-6.3-24.47-1.44l-2.8-16.52c6-2.79,8.74-13.08,12.89-16.35,3.37-2.65,10.6-2.83,14.38-5.54Z" fill="#fff"/>
  <path d="M589.86,385.42l-20.19-2.61c-.36-6.1-4.81-19.54-2.31-24.93,3.44-7.41,22.49-1.79,22.49,3.3v24.24Z" fill="#fff"/>
  <path d="M544.75,357.1l-12.4-6.56c-.46-13.29-4.75-25.91-8.23-38.56.62-.46,8.2.93,9.3,1.49.83.43,9.77,10.18,10.12,11,.89,2.07,1.64,11.91,1.72,14.6.16,6.01-.92,12-.5,18.02Z" fill="#fff"/>
  <path d="M541.22,360.64c5.73,5.74,3.8,18.34,3.47,25.69l-19.13,6.78c3.07-11.81,7.63-23.54,6.71-36,2.9-.26,6.92,1.52,8.94,3.54Z" fill="#fff"/>
  <path d="M5.9,440.39c2.16-2.31,6.21-3.74,9.37-4.07,2.3-.24,13.99-.76,14.51,1.72l-1.9,14.5-21.98,5.14v-17.28Z" fill="#fff"/>
  <path d="M217.02,364.78c4.24-13.71,24.93-25.92,36.95-14.41-6.16,2.2-19.54,4.18-16.85,13.37-.57-.02-1.53,1.04-1.63,1.04h-18.47Z" fill="#fff"/>
  <path d="M347.41,412.43c2.1,2.5-2.65,15.78-2.27,19.56-4.22-1.19-15.65-3.35-17.69-7.5-4.31-8.77,16.06-16.71,19.96-12.06Z" fill="#fff"/>
  <path d="M425.28,197.72c.49-4.14-7.7-19.14-6.67-21.77.15-.38.32-.63.74-.72,2.07-.81,7.27,1.05,8.97,2.4,4.48,3.56,4.6,19.27-3.04,20.09Z" fill="#fff"/>
  <path d="M117.7,300.93c-3.3-8,22.32-13.46,22.07-10.33-1.93,5.46-9.46,10.33-15.11,10.33h-6.96Z" fill="#fff"/>
  <path d="M260.68,392.14l11.04,25.44c-4.24-3.37-17.44-14.97-16.78-20.35.26-2.13,3.69-4.54,5.74-5.09Z" fill="#fff"/>
  <path d="M223.26,384.95l-7.92,8.15c-9.5-2.56-19.55-.49-29.02-3.36-.15-1.32.07-.75.72-.95,1.76-.53,6.13-.87,8.14-.98,6.33-.36,13.23.05,19.57.42,3.18-1.32,3.12-2.92.84-5.19l7.68,1.92Z" fill="#fff"/>
  <path d="M471.28,422.93c.91.49,8.05,16.38,9.17,18.65-.87.83-14.8-5.74-15.61-7.7-.4-.97,3.77-9.23,4.64-10.24.5-.58.96-1.17,1.8-.71Z" fill="#fff"/>
  <path d="M211.26,382.07l-26.63,1-3.13-.79c4.09-9.02,10.5-3.14,16.69-1.79,4.08.89,8.89.79,13.07,1.57Z" fill="#fff"/>
  <path d="M145.05,623.04c8.11,6.73,12.22,16.94,19.18,24.73,6.48,7.25,15.24,12.02,21.85,18.94-17.51-4.16-26.69-21.04-39.84-31.66-2.67-3.41-.72-8.02-1.19-12.01Z" fill="#fff"/>
  <path d="M99.46,681.61c23.66-5.59,32.84,28.24,7.2,31.21,9.35,19.96-13.26,33.21-28.79,20.16v24.96c5.93-5.12,10.13-11.89,17.13-15.75,3.75-2.07,13.06-5.38,17.18-5.38h9.84c-.26,33.52-43.75,41.94-68.64,29.54-9.32-4.64-24.21-18.81-22.02-30.23,1.31-6.82,13.9-1.62,17.5-1.69.79-.01,1.18-.05,1.65-.75-10.25-5.61-9.42-18.45-2.4-26.4-25.09-9-7.6-43.61,14.88-28.56-.13-15.24,18.24-21.67,30.01-13.93,2.11,1.39,6.47,6.48,6.47,8.89v7.92ZM80.67,665.89c-10.07.49-15.18,11.27-10.24,19.57,1.68,2.83,7.03.16,10.56.48,2.42.22,6.44,2.89,8.06,2.33,8.63-8.99,5.65-23.06-8.39-22.38ZM62.51,704.17c-.99-5.01.81-10.37,4.19-14.16-3.98-8.47-18.34-14.69-24.17-4.63-4.69,8.09,1.64,16.53,10.14,17.35,3.98.38,6.31-1.59,9.84,1.44ZM94.19,707.53c5.57-1.25,10.67,1.44,16.1-.45,12.89-4.49,5.53-26.35-10.95-19.6-10.99,4.5-3.33,7.55-3.22,13.6.04,2.05-1.04,4.62-1.93,6.45ZM76.8,690.86c-12.9,1.4-12.43,19.26.88,20.95,16.51,2.1,16.98-22.9-.88-20.95ZM62.99,705.13c-7.46,4.06-17.37,6.27-15.01,17.18,1.94,8.98,15.01,9.73,20.77,3.69,1.86-1.95,3.63-7.68,7-7.42.99.08,2.51,4.65,3.45,6.1,5.95,9.16,17.79,13.84,23.4,1.59,4.05-8.86-3.58-11.24-7.79-17.33l-1.11-.21c-7.44,11.72-27.03,10.46-30.7-3.59ZM72.11,730.57c-3.49.74-5.74,3.62-9.47,4.2-3.4.53-7.19.07-10.48-.81-.69,0-1.2.45-1.16,1.16.03.62,8.91,4.77,10.72,6.09,3.76,2.73,6.6,6.42,10.4,9.04v-19.68ZM71.63,765.62c-2.47-16.47-18.33-27.73-34.55-27.84,1.81,16.79,18.49,27.82,34.55,27.84ZM116.74,742.1h-6.96c-4.33,0-13.11,4.13-16.56,6.96-2.2,1.8-12.16,14.25-12.46,16.34-.17,1.2,2.23.75,3.14.73,14.33-.26,29.52-9.57,32.84-24.03Z"/>
  <path d="M515,716.17c-3.91,1.91-5.59,4.32-10.32,4.79-14.45,1.43-21.68-12.65-13.19-23.99-19.4-7.41-10.82-29.21,8.15-25.93-1.52-19,25.95-20.58,28.32-2.4,16.93-8.24,31.61,10.8,13.91,21.85,4.91,3.99,7.69,6.4,6.6,13.32-1.89,12.05-17.94,15.06-27.23,9.96v25.44c9.76-11.07,21.84-21.27,37.86-17.71,3.56,17.34-13.18,31.16-28.26,35.23-21.03,5.68-48.7-2.7-55.04-25.58-1.82-6.58-2.31-10.66,5.93-11.08,13.24-.68,26.67,9.33,33.28,20.1v-24ZM523.16,678.25c2.82-8.77-5.17-24.22-15.24-15.96-5.12,4.2-1.4,10.43-2.04,15.97-6.56-.8-14.04-5.58-18.92,1.47-6.06,8.76,6.7,12.4,13.14,13.43-.04,5.65-6.49,6.38-7.12,12.28-1.32,12.3,15.09,13.97,20.41,5.05,1.71-2.87,1.41-6.44,4.48-8.47-15.62,1.67-21.25-21.7-3.54-23.21,17.01-1.46,20.1,19.49,4.02,22.98,4.51,6.85,10.15,12.7,18.9,8.58,4.06-1.91,7.25-6.05,6.5-10.71-1.03-6.38-12.5-6.04-11.87-9.56.51-2.9,12.01-3.19,12.88-10.14,1.08-8.68-8.48-11.34-14.37-6.7-2.4,1.89-2.9,5.73-7.23,5.01ZM514.91,682.67c-11.51,1.01-4.84,18.54,4.58,13.26,7.54-4.22,3.67-13.99-4.58-13.26ZM514.04,753.61c-1.25-10.34-8.81-19.83-17.74-24.73-4.28-2.35-11.39-5.44-15.9-2.9-1.18,1.56,2.28,8.85,3.33,10.67,5.97,10.38,18.69,16.3,30.31,16.96ZM554.35,725.29c-15.19.15-30.66,13.35-33.11,28.32,14.8-1.61,33.33-11.41,33.11-28.32Z"/>
  <path d="M39.47,567.86c-17.37.04-17.74-19.28-1.96-22.63-.92-7.8,2.26-16.57,11.7-14.72,4.43.87,7.29,7.3,9.46,7.86,1.7.43,6.28-.98,8.91-.79,9.13.69,11.87,11.84,6.53,18.43,7.6,7.33,4.6,19.62-6.98,19.45-5.79-.09-5.52-4.7-9.8,1.83-2.26,3.44-5.18,10.5-2.25,14.06,3.26-5.9,9.28-10.85,15.6-13.18,22.41-8.25,13.63,13.06,3.1,21.34-14.69,11.55-44.68,7.26-51.45-11.39-7.92-21.8,22.41-5.93,27.47,2.27,4.9-11.16-14.11-10.33-10.33-22.53ZM70.98,551.83c2.39-2.45.78-6.48-1.79-8.19-6.31-4.23-9.12,2.42-12.45,1.45-3.08-.9-3.51-8.61-7.65-9.66-4.61-1.16-7.24,2.82-6.62,7.09.35,2.37,3.13,5.04,1.08,7.56s-8.07-1.86-11.19,3.2c-4.83,7.82,7.5,12.26,13.15,7.37-2.15-6.97,1.28-13.43,9.09-13.33,5.79.08,7.51,3.67,9.11,8.52,1.03-3.85,4.92-1.59,7.27-4ZM57.12,558.6c4.32-4.13-3.54-10.39-6.54-4.39-2.51,5.02,4.72,6.12,6.54,4.39ZM71.47,569.59c5.19-5.19-2.58-12.99-8.18-12.83-1.39,6.06-6.22,8.82-12.2,6.91-1.32-.42-4.13-2.72-4.89-2.35-7.94,15.57,9.33,23.02,11.04,4.6,5.03-.27,9.08,8.82,14.23,3.68ZM77.87,582.24c-10.31.47-19.22,8.89-21.59,18.72,10.03-1.06,21.78-7.33,21.59-18.72ZM49.56,600.96c-4.22-8.75-11.57-18.91-22.34-17.76,1.65,10.57,12.35,17,22.34,17.76Z"/>
  <path d="M477.14,780.94c6.72-2.74,14.03-3.7,20.44.43,6.16,3.97,9.09,14.61,1.93,18.92-11.61,6.97-37.1,1.98-50.95,3.27-15.29,1.42-21.81,7.98-40.18,4.65-23.02-4.17-9.66-20.04,4.43-25.54,1.93-.75,10.96-2.84,11.39-3.25.25-.24,2.22-5,3.09-6.27,14.63-21.3,41.81-15.39,49.85,7.79ZM473.28,788.65c-2.5-25.54-31.85-32.32-43.64-8.79-.04.94,5.37,3.01,6.63,3.8,3.4,2.15,7.55,5.18,9.41,8.82,1.04,2.04.89,4.98,2.88,5.76,3.65,1.43,25.14.85,30.23.52,3.29-.21,15.36-1.2,17.63-2.52,4.61-2.67.19-10.54-4.07-12.05-7.84-2.77-12.03,2.96-19.08,4.45ZM421.82,785.93c-10.39.48-15.15,5.37-20.54,13.52,2.38,2.06,5.24,3.32,8.38,3.63,4.63.46,28.46.28,31.24-2.38.38-.36.65-.71.68-1.26-1.09-9.72-10.75-13.93-19.76-13.51Z"/>
  <path d="M381.61,756.01c5.85-2.77,10.78-6.87,17.75-4.79l-13.04,24.88c-13.46-.34-29.15,2.49-42.4,1.06-5.83-.63-4.49-6.41-6.23-11.04-.83-2.2-7.33-11.67-5.05-13.24,3.4-2.36,13.88,5.42,16.82,7.47-.46-5.36-2.14-10.78-4.22-15.7-.32-.75-1.26-1.27-1.44-1.93-1.67-5.95,10.31-.06,12.34,1.59,3.3,2.68,5.25,7.52,7.96,10.75,4.63-7.13,11.44-17.55,21.27-14.65l-3.75,15.61ZM365.53,770.9c.88.32,6.59,0,8.16,0l5.03-25.44c-8.28,4.72-9.41,14.59-12.67,22.62-.31.76-.72.75-1.26,1.17-.13.6.18,1.45.73,1.65ZM363.86,770.9c.23-2.05-1.42-2.85-2.06-4.9-.91-2.9-.74-6.67-2.16-9.36-1.16-2.21-5.15-5.17-6.81-7.34.79,7.22,4.39,14.3,1.91,21.6h9.12ZM390.25,757.46c-.47-.4-3.67,1.74-4.28,2.2-1.52,1.15-9.11,8.98-6.78,10.54,7.33,2.21,7.65-8.5,11.06-12.73ZM349.94,770.9c-1.46-4.5-5.14-8.16-9.11-10.56l3.88,10.51,5.22.05Z"/>
  <path d="M286.44,764.97c-3.86,3.96-16.45,4.71-21.62,3.96-3.33-.48-5.76-3.22-9.65-3.35-13.46-.46-21.43,5.34-36.69-.22-14.1-5.13-11.78-16.77-.5-23.52,16.02-9.58,35.62-8.49,45.91,8.36,5.83-1.83,12.37-2.39,17.89.8,4.48,2.59,9.09,9.42,4.66,13.97ZM234.19,741.27c-6.35.7-14.92,4.27-18.6,9.71-5.29,7.79,3.22,9.34,9.02,10.17,4.97.71,26.89,2.14,30.07-.83.37-.35,3.58-6.94,3.58-7.42,0-.91-1.48-3.27-2.06-4.14-4.67-7.01-14.2-8.35-22-7.48ZM270.64,753.26c-3.33.47-12.7,5.2-8.03,9.23,2.06,1.78,12.11,1.54,14.98,1.08,11.84-1.9.94-11.43-6.96-10.31Z"/>
  <path d="M139.66,773.9c6.27-.79,13.58.04,18.58,4.21,1.5,1.25,4.69,6.1,5.54,6.46,1.82.77,8.62.23,11.62.86,12.46,2.61,12.06,17.08-3.69,17.66-7.11.26-8.73-2.56-13.49-3.35-10.28-1.71-24.67,5.01-34.28-3.15-10.74-9.11,6.45-21.51,15.72-22.68ZM156.43,793.81c.22-.22,2.87-5.21,2.93-5.52.88-4.51-9.98-9.29-13.65-9.64-12.36-1.19-31.73,13.25-10.36,16.6,4.23.66,18.12,1.47,21.08-1.44ZM162.44,796.22c2.55,2.51,21.3,2.75,15.02-4.22-5.52-6.13-18.58.71-15.02,4.22Z"/>
  <path d="M570.19,467.03c1.05,1.09,13.78-7.93,9.12,6.97-.54,1.73-3.95,9.43-5.06,10.3-2.81,2.19-26.86,1.85-28.54-.82l-5.75-21.24c5.61-1.11,9.14,3.16,13.91,4.8-.24-5.71,2.73-12.7,8.16-15.11,11.93-5.31,9.09,7.99,8.16,15.11ZM557.71,470.15c-.27,3,.2,6.33,0,9.36l6.72.47,1.45-22.79c-5.83.77-7.71,7.97-8.17,12.95ZM554.83,479.5c-.49-.93-6.66-11.32-7.67-10.08,1.9,4.53.83,11.4,7.67,10.08ZM574.5,471.84c-.99-.85-7.13,7.66-8.63,8.15l5.19-.08,3.44-8.07Z"/>
  <path d="M179.6,724.81l-.96,12c3.87-2.03,8.72-3.19,12.98-1.63.73,6.87-5.34,11.36-7.31,17.39l-32.07-.87c.91-8.75-6.97-14.67-7.67-23.04,7.51-.56,13.22,5.12,17.99,10.07,2.87-7.66,7.62-15.22,17.04-13.91ZM166.64,746.9l6.03-.45,1.16-14.91c-5.16,2.88-7.12,9.74-7.19,15.36ZM161.36,746.89c.78-.65-5.09-8.57-6.71-8.64l2.14,8.17,4.57.47ZM184.87,740.18c-1.06-1.07-7.58,5.9-8.63,6.71,1.28-.26,4.82.42,5.68-.08.31-.18,2.64-5.72,2.96-6.63Z"/>
  <path d="M58.7,630.7c2.09-.1,3.06-2.16,5.16-3.2,6.63-3.27,18.95-1.06,21.44,6.58,2.87,8.8-6.28,10.49-12.97,10.09-3.37-.2-7.57-2.74-10.54-2.45-1.84.18-4.57,2.88-6.48,3.64-5.58,2.24-18.47,2.4-23.99,0-7.22-3.14-1.05-12.84,3.2-16,6.32-4.7,19.97-6.65,24.17,1.34ZM56.12,639.69c3.33-3.14-1.85-7.1-4.65-8.24-7.84-3.2-15.19,1.16-18.18,8.58.63,2.66,19.97,2.36,22.83-.34ZM69.14,631.31c-2.54.22-5.86,1.83-5.2,4.93,0,.67.36.81.82,1.13,1.43,1,16.43.94,16.47-.64-3.25-2.93-7.41-5.83-12.08-5.42Z"/>
  <path d="M549.46,626.07c3.37-.31,6.24-.21,9.48.79,11.03,3.4,19.05,19.31,3.19,22.44-8.04,1.59-37.61,3.17-31.23-12.04,2.61-6.21,12.18-10.6,18.56-11.19ZM564.76,643.05c5.65-5.08-6.83-11.4-11.12-11.85-11.9-1.24-29.64,11.94-8.63,13.91,3.81.36,17.02.4,19.75-2.06Z"/>
  <path d="M233.73,796.49c6.45-.52,13.16,1.1,17,6.7,12.83,18.7-34.83,18.84-34.2,5.89.33-6.7,11.23-12.11,17.2-12.59ZM235.15,801.76c-2.24.04-5.76.78-7.74,1.85-1.38.74-5.94,4.38-5.37,6.17,1.76,3.56,21.43,3.45,25.23,1.2,1.26-6.58-6.58-9.33-12.11-9.22Z"/>
  <path d="M575.93,584.18c-1,2.52-4.97,15.33-6.42,16.34-2.23,1.55-4.41-1.17-4.59-1,.66,2.31-4.29,2.33-5.56,1.48-1.17-.78-5.56-11.72-4.07-12.79,2.64-1.91,8.72,7.11,10.1,8.92-1.35-3.21,7.77-17.22,10.55-12.94Z"/>
  <path d="M36.61,501.59c2.79-3.01,3.89-10.45,9.56-7.45-1.3,2.45-4.65,13.2-6.94,13.68-1.69.35-3.9-.39-5.71.43l-3.63-15.78c5.01-.58,6.31,5.17,6.72,9.12Z"/>
  <path d="M309.57,806.83c-.21.34-4.62,1.6-4.64-.28-1.19-4.45,6.51-19.24,12.89-18.11.74.51.89.76.74,1.66-.5,2.94-7.25,10.1-8.82,14.28-.27.72.1,2.02-.18,2.45Z"/>
  <path d="M303.37,806.89l-3.73-.55c-1.3-7.34-3.27-10.87-9.95-14.33l.75-2.63c8.93-2.16,14.9,10.08,12.93,17.51Z"/>
  <path d="M542.83,798.74c2.62-6.51-7.55-11.09-8.42-13.9-2.02-6.55,4.45-3.46,7.23-.99,3.92,3.49,6.29,9.18,5.3,14.44l-4.11.45Z"/>
  <path d="M553.74,798.13c-1.59,1.44-3.2.05-3.61-1.65-1.08-4.52,2.62-19.24,9.17-16.86,2.53.92-2.22,7.02-2.79,8.58-.81,2.22-1.32,8.61-2.78,9.94Z"/>
  <path d="M294.28,733.94h-4.8c1.4-7.63-7.38-10.02-8.15-16.8,8.46-.38,13.89,9.09,12.96,16.8Z"/>
  <path d="M50.93,811.63c-.48.3-2.24.09-2.84-.14-2.71-1.04-2.37-5.69-3.61-7.91-.9-1.61-7.51-6.22-4.87-8.55,6.22-3.67,14.54,14.59,11.32,16.6Z"/>
  <path d="M568.64,783.96c1.25-.29,3.52.49,3.25,1.81-.16.78-8.47,12.66-9.25,12.88-4.42,1.27-3.97-4.57-2.45-7.28.62-1.12,7.42-7.17,8.45-7.41Z"/>
  <path d="M71.04,796.91c.41-.09.79-.19,1.2-.03l1.06.91c2.44,3.82-1.17,3.75-2.85,5.77-1.47,1.76-3.54,8.42-5.89,9.03-8.04-.78,3.47-15.03,6.48-15.68Z"/>
  <path d="M58.61,810.19c-.13.21-4.54,1.71-4.72,1.51-.59-3.27,2.4-16.27,5.28-17.51.96-.41,2.82-.64,3.28.54.78,4.09-1.86,7.47-3.15,11.11-.41,1.16-.53,4.09-.69,4.35Z"/>
  <path d="M549.67,514.67c4.65-3.9,14.26,11.96,8.51,15.5-3.24,1.32-3.93-6.65-4.89-8.55-.65-1.29-5.54-5.33-3.62-6.95Z"/>
  <path d="M323.9,794.53c3.96-.78,4.38,1.77,2.26,4.18-.56.64-1.8.68-2.64,1.68-1.6,1.89-5.5,9.26-7.81,7.91-4.76-2.8,4.25-12.99,8.19-13.77Z"/>
  <path d="M311.43,720.58c.84-.12,1.56-.28,2,.7.46,1.33-6.18,13.7-7.49,14.04s-3.22-1.37-3.41-2.68c-.47-3.19,5.63-11.6,8.9-12.05Z"/>
  <path d="M303.75,716.29c2.08,1.9-2.64,8.19-3.12,10.32-.38,1.69.39,8.79-3.64,7.29-2.15-.8.4-12.22,1.38-14.35.77-1.68,3.26-5.19,5.38-3.25Z"/>
  <path d="M568.1,513.7c1.29.15,2.05.52,2,1.91-.05,1.5-3.93,14.08-4.7,14.55l-1.61.17c-4.36-2.82.69-16.33,4.31-16.64Z"/>
  <path d="M551.95,429.59c-.21.22-3.64-.41-4.08-.96-.46-.58-4.04-13.54-3.99-14.28.04-.59.16-.76.66-1.06,5.72-1.3,7.86,12.45,7.41,16.29Z"/>
  <path d="M575.79,601.78c-1.16.82-2.41.35-2.73-1.06-.97-4.24,4.18-14.01,9.6-11.52,1.4,1.26-5.48,11.59-6.87,12.58Z"/>
  <path d="M553.87,418.78c.45-2.99,2.94-6.04,6.25-4.79-.49,2.63-2.04,15.36-4.65,16-.86.21-1.09-.02-1.6-.65.34-3.28-.47-7.41,0-10.56Z"/>
  <path d="M22.08,494.97c.8-.12,2.2.3,2.77.87.96.99,4.3,8.64,4,10.19-1.41,7.29-9.86-6.06-8.47-9.88.28-.66,1.03-1.08,1.71-1.19Z"/>
  <path d="M572.11,417.59c-.58,4.43-3.82,11.69-9.12,11.04-.11-5.6,2.3-12.45,9.12-11.04Z"/>
  <path d="M572.93,519.45c1.83-.39,3.37.1,3.93,2-2.36,1.36-5.06,9.81-7.79,8.9-3.18-1.06.35-10.14,3.86-10.89Z"/>
  <path d="M109.92,23.13c10.99-1.05,21.74,3.22,28.87,11.64,3.93,4.64,5.63,10.37,9.44,15.03,9.39-5.29,23.19-5.36,29.84,4.23,1.88,2.72,4.11,10.63,5.62,12.14,2.78,2.78,9.53.84,13.26,8.34,11.08,22.3-34.11,16.46-44.01,16.63-37.87.65-79.51,4.43-117.05.49-8.62-.9-15.39-2.24-15.16-12.71s9.2-15.97,19.23-14.88c3.69-7.18,4.77-13.16,11.57-18.19,8.94-6.62,19.33-6.58,28.93-1.3,6.03-11.21,16.3-20.16,29.46-21.42ZM179.17,71.89c-.36-13.27-13.29-26.96-26.61-18.1-2.93,1.95-5.46,7.55-8.74,1.86-2.05-3.55-2.36-7.65-5-11.8-8.43-13.23-24.04-19.32-38.73-12.31-8.98,4.28-11.99,12.46-16.3,20.68-5.15-.92-9.12-5.11-14.33-5.7-15.14-1.72-22.86,10.11-25.64,23.32-5.74-1.47-13.84-1.38-16.68,4.89-1.53,3.37-1.99,7.15,1.24,9.54,4.88,3.61,29.28,1.88,36.8,2.07,36.49.92,73.9,3.02,110.36.52,4.72-.32,16.51.04,17.28-6.23s-8.61-9.83-13.65-8.73Z"/>
  <path d="M300.11,83.54c-3.18,21.4-31.26,30.65-48.7,20.2-7.85,5.44-30.44,16.5-24.3-3.46-15.24-3.16-3.44-12.05,5.76-12.24-6.08-5.69-16.39-17.31-14.29-26.3,2.27-9.71,19.61,6.42,24.37,6.37-1.11-1.67-.7-3.82-1.4-5.56-.6-1.49-2.07-1.9-2.41-3.83-1.66-9.32,3.84-15.98,13.41-13.42,8.57,2.29,15.53,10.92,17.61,19.35.87,3.53.81,6.83,1.82,10.17,5.95-6.79,10.87-11.05,20.5-8.01,4.01,1.26,4.55,4.5,7.11,6.33,2.76,1.97,9.34,1.86,8.61,6.69-.53,3.51-5.28,3.84-8.08,3.71ZM230.94,95.47h8.64c1.3,6.22-7.57,5.76-7.67,11.04.36.37,8.88-2.18,9.94-2.78,2.54-1.43,8.9-10.8,11.54-8.14.97,5.47,6.81,7.81,11.86,8.05,12.21.6,32.78-10.86,30.37-25.1-1.24-7.32-9.28-9.74-15.01-5.16-2.23,1.78-12.96,18.17-15.08,7.9-2.28-11.1,2.77-19.42-8.8-27.68-14.19-10.14-11.56,3.94-8.26,13.07,2.54,7.05,7.77,13.15,9.35,20.64l-26.87,8.17ZM223.75,64.27c2.78,9.92,9.65,22.42,21.78,20.6,5.52-.83,4.07-4.66,1.21-7.84l-23-12.75Z"/>
  <path d="M523.7,133.84c7.89-2.73,15.89-4.56,21.77,2.92,2.88,3.65,2.84,9.45,4.04,10.84,1.43,1.67,6.28.37,7.2,5.76,2.18,12.78-16.34,12.38-24.66,12.71-13.48.53-48.28,1.39-60.02-2.39-9.3-2.99-9.77-13.41-2.86-19.24,5.71-4.82,12.58-1.56,14.99-3.48.51-.41,3.01-6.21,4.45-7.79,7.91-8.63,29.06-11.74,35.09.68ZM522.69,142.52c-6.68-19.38-32.17-11.75-36.52,5.25-5.95-2.42-12.43-3-15.7,3.72-4.35,8.94,11.86,8.89,17.41,9.29,11.06.8,23.94.81,35.06.48,4.64-.14,25.68-.69,28.07-3.6,5-6.1-5.83-3.58-6.53-4.54,1.74-15.82-10.43-21.76-21.79-10.59Z"/>
  <path d="M217,158.83c5.82-11.33,20.58-11.82,30.12-4.9,4.04,2.93,7.4,12.39,8.26,12.84.57.3,4.14-.69,5.12-.66,9.47.28,17.51,12.7,6.27,17.3-8.56,3.51-38.15,2.67-48.56,2.34-5.53-.18-12.3-.36-17.73-.99-6.41-.74-12.61-1.79-13.63-9.41-2.2-16.38,17.42-26.16,30.15-16.52ZM250.71,171.7c-.71-12.48-15.76-23.28-26.45-14.02-2.92,2.53-2.99,6.2-6.55,7.89-4.32-1.14-4.28-4.63-9.78-5.56-14.02-2.37-24.5,16.74-7.89,19.89,11.93,2.26,35.76,1.59,48.42,1.04,4.35-.19,23.01.24,17.24-7.68-3.32-4.55-13.3.38-15-1.56Z"/>
  <path d="M177.2,128.12c8.72-2.15,19.91,3.78,18.63,13.84-6.36,1.73-4.38-7.17-10.83-8.45-7.75-1.54-10.42,3.64-14.88,4.14-5.17.58-.16-6.35.26-7.47.75-2.01,2.71-10.31.48-11.34-5.96-2.76-10.56,5.57-11.68,10.22-.73,3.01.52,7.62-3.35,9.17-5.08-5.37-7.23-12.98-16.47-10.17-1.47-3.18-2.54-5.04,1.83-5.97,5.94-1.26,8.93,2.17,13.94,4.11,2.91-16.52,25.99-18.95,22.08,1.92Z"/>
  <path d="M260.08,220.89c2.77,3.18-4.5,5.33-6.13,6.81-3.43,3.11-5.51,10.09-5.25,14.66,5.92-2.46,14.6-11.58,20.44-4.81l-.12,1.81c-.69,1.6-10.14,2.6-12.72,4.14-4.36,2.6-4.59,8.37-8.36,10.88-5.22.94-5.01-12.77-7.19-16.31-1.79-2.9-6.46-5.5-9.55-6.77-3.53-1.45-5.3.47-5.54-5.25,7.65-2.06,13.43,3.15,19.19,7.19-.5-4.79,11.03-17.17,15.23-12.35Z"/>
  <path d="M380.1,472.38c3.37,21.13,5.13,42.85,12.54,63.06,1.78,4.85,4.62,11.84,7.47,16.05.64.95,6.02,4.81,1.79,6.17s-6.44-3.65-8.07-6.61c-7.44-13.58-11.29-31.32-13.99-46.49-.71-3.97-5.45-30.97-3.44-32.18h3.7Z"/>
  <path d="M457.79,493.07c.75.88,4.19,19.35,5.05,22.55,4.22,15.73,9.42,28.72,19.07,41.89.92,1.26,13.35,14.35,3.8,11.55-11.86-3.47-25.92-44.51-29.01-55.94-.8-2.96-5.67-20.26-3.58-21.59.84.02,4.35,1.17,4.67,1.55Z"/>
  <path d="M127.78,217.88c18.09,5.39,17.11,30.79,2.36,40.05-26.23,16.47-57.64-16.5-31.23-37.96-3.19-5.1-5.17-10.43-4.13-16.61,1.88-11.17,13-.84,17.88,2.51,3.09-9.57,11.44-15.08,21.54-13.86,5.11.62,4.92,1.59,4.6,6.42-.3,4.55-2.77,10.95-5.76,14.4-.97,1.12-5.76,4.34-5.26,5.05ZM133.53,197.24c-11.88-.94-18.13,9.11-16.79,20.16,8.37-3.21,17.22-10.36,16.79-20.16ZM110.98,219.81c.07-6.38-3.31-13.83-10.1-15.16-3.39,6.55,3,15.23,10.1,15.16ZM120.45,221.84c-2.98.58-3.88,3.75-5.88,4.19-6.41,1.41-11.48-4.96-17.42,3.22-13.22,18.19,18.38,38.99,34.23,21.28,9.04-10.1,3.69-31.57-10.93-28.69Z"/>
  <path d="M24.37,230.85c8.41,1.15,14.36,9.86,18.73,16.32,15.81-14.2,20.45-3.34,11.74,11.99,26.56,6.58,11.9,39.71-9.36,41.76-24.57,2.38-40.28-27.47-18.96-42.96-3.85-3.34-9.59-11.67-9.59-16.8v-10.32c2.35.22,5.17-.31,7.44,0ZM39.96,257.72c-2.22-9-6.42-20.37-17.27-21.12-1.47,10.33,7.29,19.92,17.27,21.12ZM53.4,246.21c-4.5,2.14-9.35,7.04-7.67,12.48,4.55-1.53,8.31-7.55,7.67-12.48ZM31.69,261.19c-4.09.57-8.42,5.97-9.36,9.86-3.45,14.24,8.11,25.34,22.18,24.11,22.67-1.99,25.75-34.83,4.45-31.08-1.88.33-3.43,1.96-5.34,1.8-3.35-.28-7.01-5.38-11.92-4.69Z"/>
  <path d="M41.89,174.2c-2.07-12,9.16-18.37,12.95-4.56,19.73-.78,28.65,18.02,19.1,34.46-7.93,13.67-28.15,17.4-40.43,7.52-14.52-11.67-14.31-37.91,8.38-37.42ZM48.95,173.11c1.13-1.35.6-4.51.12-6.11-2.91.74-1.68,4.37-1.91,6.72.19.22,1.55-.32,1.79-.61ZM56.15,175.28c-4.55.73-5.86,5.26-7.82,5.64-3.96.76-6.86-3.68-12.88-.9-16.23,7.49-1.6,36.09,20.27,31.32,23.33-5.09,20.09-39.22.43-36.05Z"/>
  <path d="M253.49,495.35h-4.8v-78.49c0-1.4,4.8-1.4,4.8,0v78.49Z"/>
  <path d="M308.08,515.64c6.66-.91,15.38,1.96,17.96,8.67,4.91,12.74-14.09,13-21.94,12.35-19.42-1.61-8.29-19.33,3.98-21.01ZM321.08,529.84c.29-.48.13-3.16-.04-3.9-1.03-4.54-8.51-6.09-12.49-5.51-3.25.47-13.62,6.57-8.77,9.98,2.23,1.57,20.15,1.33,21.29-.57Z"/>
  <path d="M235.74,415.67c-3.99,15.15-7.44,30.61-12.34,45.5-.67,2.03-3.33,12.59-6.25,11.31-2.32-1.02-.36-8.72.03-10.81,1.79-9.74,5.65-21.54,8.83-31.01.82-2.43,4.1-12.97,5.39-14.15s2.77-.83,4.34-.83Z"/>
  <path d="M277.43,438.76l17.32,62.83-4.25-1.27c-3.92-15.42-9.77-30.31-13.85-45.67-1.38-5.21-3.26-10.48-3.02-15.95l3.79.06Z"/>
  <path d="M259.25,513.11c-.05,6.62-4.98,11.76-3.9,18.67-3.27,1.53-6.03,1.05-9.57,1.3-.37-.27-1.07-6.69-2.16-8.4-.77-1.21-11.41-8.44-5.7-9.62s10.5,7.55,11.97,11.98c1.87-4.99,1.92-14.68,9.36-13.92Z"/>
  <path d="M318.27,465.59l7.22-8.38c9.79-2.5-3,10.4-3.36,13.93l-6.42-.33c-1.43-.4-5.84-15.19-5.29-17.13,2.44-8.64,8.94,9.47,7.86,11.9Z"/>
  <path d="M197.42,435.27c-2.51-5.21,12.93-24.2,16.12-24.81,2.35-.45,2.42,1.36,1.78,3.26-.76,2.27-8.02,12.53-9.9,15.05-.84,1.13-6.34,9.35-8,6.5Z"/>
  <path d="M269.67,518.5c1-.22,2.45-.33,3.3.33,2.34,2.73-2.06,4.17-3.42,5.79-1.53,1.82-5.49,9.22-8.37,7.96-2.15-.94.73-6.3,1.52-7.61,1.16-1.94,4.78-5.97,6.97-6.46Z"/>
  <path d="M291.4,574.08c-6.42.79-7.42-10.45-10.08-14.88,7.38.1,10.91,8.35,10.08,14.88Z"/>
  <path d="M312.44,562.15c2.88,1.67-6.18,8.66-7.4,9.99-.54.59-.66,1.8-.76,1.86-.65.43-3.66-.14-4.73.08-1.39-4.5,9.25-14.05,12.88-11.93Z"/>
  <path d="M300.38,556.88c1.4-.32,2.05,0,1.97,1.47-.05.93-5.01,17.03-5.91,17.15-4.94-1.96.65-17.76,3.94-18.63Z"/>
  <path d="M310.59,471.35c-.2.2-3.94-.3-4.37-.78s-4.26-11.75-3.79-12.18c6.37-.98,8.43,8.04,8.16,12.96Z"/>
  <path d="M393.96,225.17c.97-.2,1.85-.22,2.57.59,2.53,5.14-7.13,9.22-10.89,9.35-1.91.07-4.81-1.16-6.62-.9-1.53.22-5.83,4.26-7.81,5.19-5.91,2.78-10.13.57-15.64,1.64-2.9.56-4.94,4.26-7.54,4.94-9.68,2.54,2.57-9.93,4.76-10.6,3.81-1.16,10.02.92,14.54.15,6.23-1.07,7.07-7.96,8.86-8.46,4.09.53,7.57,2.6,11.86,1.82,2.23-.4,3.81-3.3,5.9-3.73Z"/>
  <path d="M178.18,595.18l-1.46-6.22c7.9-1.21,10.12,5.52,1.46,6.22Z"/>
  <path d="M175.76,479.52c7.8,4.57,10.73,18.28,1.18,22.12-5.31-1.7.22-6.6.53-9.14,1.01-8.35-16.8-10.52-9.64-17.18l6.25,3.71c-2.81-7.4,4.69-4,7.9-6.48,2.14-1.65,2.05-7.13,5.27-5.75,2.31.99,1.46,4.79.87,6.61-1.52,4.71-7.87,7.24-12.37,6.12Z"/>
  <path d="M133.05,490.55c.85-.86,10.42,3.03,14.13-2.9,1.46-2.34.76-6.7,4.87-4.82,4.61,2.11-.06,9-3.01,11.01-4.57,3.1-16.93,5.02-16-3.28Z"/>
  <path d="M137.27,465.21c2.4-.13,4.56,1.57,3.01,4.02-.78,1.24-5.46,2.9-6.99,4.05-3.08,2.33-4.83,7.79-9.39,7-3.26-6.28,8.39-14.8,13.37-15.07Z"/>
  <path d="M184.88,509.27c2.11,8.93-20.01,11.21-21.04,5.4-.88-4.97,9.26-2.06,12.13-2.56s5.18-4.03,8.91-2.85Z"/>
  <path d="M164.36,457.79c-3.36-3.37,3.63-7.33,6.57-7.83s14.42.83,11.49,5.25c-1.83,2.77-5.92.21-8.24.41s-7.42,4.59-9.83,2.17Z"/>
  <path d="M98.38,508.43c2.82-.55,13.05,1.68,11.61,5.34-1,2.54-6.95-.98-8.41-1.13-1.81-.19-4.48,1.23-5.81.61-2.74-1.28.32-4.38,2.61-4.83Z"/>
  <path d="M68.63,424.66c-.64.76-2.69,1.28-3.58.48-3.14-2.83-2.93-20.04,2.06-20.54.6-.1.99.08,1.43.49,1.07,1.01,1.12,18.35.1,19.57Z"/>
  <path d="M53.88,377.74c-.94,3.81.69,19.39-2.13,21.15-.62.39-1.19.6-1.93.48-2.33-.4-1.79-5.68-1.72-7.49.19-4.55,1.69-9.5,1.97-14.11l3.81-.03Z"/>
  <path d="M368.77,191.12c.82-.87,4.1-1.19,5.35-1.03,5.71.71,6.86,9.35,3.93,13.44-5.33,1.74-9.1-.61-9.84-6.09-.17-1.29-.29-5.43.55-6.32Z"/>
  <path d="M330.61,201.19c7.63-1.79,10.85,10.75,5.52,13.2-9.27,4.26-11.49-11.81-5.52-13.2Z"/>
  <path d="M368.49,171.03c3.09-.16,15.53,1.59,12.4,7.01-1.31,2.27-6.21-.3-8.16-.48-2.8-.26-12.28,2.18-12.61-1.76.76-3.02,5.53-4.63,8.37-4.78Z"/>
  <path d="M323.52,195.79l-4.73-1.22c-3.21-5.89,10.8-12.94,14.38-10.55,1.32,6.22-9.01,5.66-9.65,11.77Z"/>
  <path d="M62.99,705.13c3.67,14.05,23.27,15.31,30.7,3.59l1.11.21c4.22,6.09,11.85,8.47,7.79,17.33-5.61,12.25-17.45,7.58-23.4-1.59-.94-1.45-2.46-6.02-3.45-6.1-3.37-.26-5.14,5.47-7,7.42-5.76,6.04-18.83,5.29-20.77-3.69-2.36-10.92,7.55-13.12,15.01-17.18Z" fill="#fff"/>
  <path d="M71.63,765.62c-16.05-.02-32.73-11.04-34.55-27.84,16.22.11,32.07,11.37,34.55,27.84Z" fill="#fff"/>
  <path d="M80.67,665.89c14.03-.68,17.02,13.39,8.39,22.38-1.62.55-5.64-2.11-8.06-2.33-3.53-.32-8.88,2.36-10.56-.48-4.93-8.3.17-19.08,10.24-19.57Z" fill="#fff"/>
  <path d="M62.51,704.17c-3.52-3.03-5.86-1.06-9.84-1.44-8.5-.82-14.84-9.26-10.14-17.35,5.84-10.06,20.2-3.84,24.17,4.63-3.38,3.79-5.18,9.14-4.19,14.16Z" fill="#fff"/>
  <path d="M116.74,742.1c-3.32,14.46-18.51,23.77-32.84,24.03-.91.02-3.31.46-3.14-.73.3-2.08,10.27-14.54,12.46-16.34,3.45-2.82,12.22-6.96,16.56-6.96h6.96Z" fill="#fff"/>
  <path d="M94.19,707.53c.89-1.83,1.97-4.4,1.93-6.45-.12-6.04-7.78-9.1,3.22-13.6,16.49-6.75,23.84,15.11,10.95,19.6-5.42,1.89-10.53-.79-16.1.45Z" fill="#fff"/>
  <path d="M76.8,690.86c17.85-1.94,17.38,23.05.88,20.95-13.31-1.69-13.78-19.55-.88-20.95Z" fill="#fff"/>
  <path d="M72.11,730.57v19.68c-3.8-2.62-6.64-6.31-10.4-9.04-1.81-1.31-10.69-5.47-10.72-6.09-.04-.71.48-1.15,1.16-1.16,3.29.88,7.09,1.34,10.48.81,3.74-.58,5.98-3.46,9.47-4.2Z" fill="#fff"/>
  <path d="M523.16,678.25c4.34.72,4.84-3.12,7.23-5.01,5.89-4.64,15.45-1.99,14.37,6.7-.87,6.95-12.37,7.25-12.88,10.14-.62,3.52,10.85,3.18,11.87,9.56.75,4.67-2.43,8.8-6.5,10.71-8.75,4.12-14.39-1.73-18.9-8.58,16.08-3.49,12.99-24.44-4.02-22.98-17.71,1.52-12.09,24.89,3.54,23.21-3.07,2.04-2.78,5.61-4.48,8.47-5.31,8.92-21.73,7.24-20.41-5.05.63-5.9,7.09-6.63,7.12-12.28-6.45-1.03-19.21-4.67-13.14-13.43,4.88-7.05,12.37-2.27,18.92-1.47.64-5.54-3.08-11.76,2.04-15.97,10.06-8.25,18.06,7.19,15.24,15.96Z" fill="#fff"/>
  <path d="M514.04,753.61c-11.62-.66-24.34-6.58-30.31-16.96-1.05-1.83-4.51-9.11-3.33-10.67,4.51-2.53,11.62.56,15.9,2.9,8.93,4.9,16.49,14.39,17.74,24.73Z" fill="#fff"/>
  <path d="M554.35,725.29c.22,16.91-18.31,26.71-33.11,28.32,2.44-14.98,17.92-28.17,33.11-28.32Z" fill="#fff"/>
  <path d="M514.91,682.67c8.25-.73,12.12,9.05,4.58,13.26-9.42,5.27-16.09-12.25-4.58-13.26Z" fill="#fff"/>
  <path d="M70.98,551.83c-2.35,2.41-6.24.15-7.27,4-1.6-4.85-3.32-8.44-9.11-8.52-7.81-.1-11.24,6.37-9.09,13.33-5.66,4.89-17.98.45-13.15-7.37,3.13-5.06,9.12-.65,11.19-3.2s-.74-5.19-1.08-7.56c-.62-4.27,2.01-8.26,6.62-7.09,4.15,1.05,4.57,8.76,7.65,9.66,3.34.97,6.14-5.67,12.45-1.45,2.56,1.72,4.18,5.75,1.79,8.19Z" fill="#fff"/>
  <path d="M71.47,569.59c-5.15,5.15-9.2-3.94-14.23-3.68-1.71,18.42-18.98,10.97-11.04-4.6.76-.37,3.57,1.93,4.89,2.35,5.98,1.91,10.81-.85,12.2-6.91,5.6-.16,13.38,7.64,8.18,12.83Z" fill="#fff"/>
  <path d="M77.87,582.24c.19,11.39-11.56,17.66-21.59,18.72,2.37-9.83,11.28-18.25,21.59-18.72Z" fill="#fff"/>
  <path d="M49.56,600.96c-9.98-.76-20.69-7.19-22.34-17.76,10.77-1.14,18.12,9.02,22.34,17.76Z" fill="#fff"/>
  <path d="M57.12,558.6c-1.82,1.74-9.05.64-6.54-4.39,3-6.01,10.86.26,6.54,4.39Z" fill="#fff"/>
  <path d="M473.28,788.65c7.05-1.5,11.24-7.23,19.08-4.45,4.26,1.51,8.68,9.38,4.07,12.05-2.28,1.32-14.34,2.31-17.63,2.52-5.08.33-26.57.91-30.23-.52-2-.78-1.84-3.72-2.88-5.76-1.86-3.64-6.01-6.68-9.41-8.82-1.26-.8-6.67-2.86-6.63-3.8,11.79-23.53,41.15-16.75,43.64,8.79Z" fill="#fff"/>
  <path d="M421.82,785.93c9.01-.41,18.68,3.79,19.76,13.51-.04.55-.31.89-.68,1.26-2.77,2.66-26.61,2.84-31.24,2.38-3.14-.31-6-1.58-8.38-3.63,5.39-8.15,10.15-13.04,20.54-13.52Z" fill="#fff"/>
  <path d="M365.53,770.9c-.56-.2-.87-1.05-.73-1.65.53-.42.95-.41,1.26-1.17,3.25-8.03,4.38-17.9,12.67-22.62l-5.03,25.44c-1.56,0-7.28.32-8.16,0Z" fill="#fff"/>
  <path d="M363.86,770.9h-9.12c2.48-7.3-1.12-14.38-1.91-21.6,1.66,2.17,5.65,5.14,6.81,7.34,1.42,2.7,1.25,6.47,2.16,9.36.64,2.04,2.29,2.84,2.06,4.9Z" fill="#fff"/>
  <path d="M390.25,757.46c-3.41,4.24-3.73,14.95-11.06,12.73-2.33-1.55,5.26-9.38,6.78-10.54.61-.46,3.8-2.6,4.28-2.2Z" fill="#fff"/>
  <path d="M349.94,770.9l-5.22-.05-3.88-10.51c3.97,2.4,7.64,6.06,9.11,10.56Z" fill="#fff"/>
  <path d="M234.19,741.27c7.8-.86,17.33.48,22,7.48.58.87,2.06,3.24,2.06,4.14,0,.48-3.2,7.07-3.58,7.42-3.18,2.98-25.1,1.55-30.07.83-5.8-.83-14.3-2.38-9.02-10.17,3.69-5.44,12.26-9.01,18.6-9.71Z" fill="#fff"/>
  <path d="M270.64,753.26c7.9-1.11,18.79,8.42,6.96,10.31-2.87.46-12.92.7-14.98-1.08-4.67-4.03,4.7-8.76,8.03-9.23Z" fill="#fff"/>
  <path d="M156.43,793.81c-2.96,2.91-16.85,2.1-21.08,1.44-21.38-3.35-2.01-17.79,10.36-16.6,3.67.35,14.53,5.13,13.65,9.64-.06.31-2.71,5.3-2.93,5.52Z" fill="#fff"/>
  <path d="M162.44,796.22c-3.56-3.51,9.5-10.35,15.02-4.22,6.28,6.97-12.47,6.73-15.02,4.22Z" fill="#fff"/>
  <path d="M557.71,470.15c.45-4.99,2.33-12.18,8.17-12.95l-1.45,22.79-6.72-.47c.2-3.03-.27-6.37,0-9.36Z" fill="#fff"/>
  <path d="M554.83,479.5c-6.84,1.33-5.77-5.54-7.67-10.08,1.02-1.25,7.18,9.15,7.67,10.08Z" fill="#fff"/>
  <path d="M574.5,471.84l-3.44,8.07-5.19.08c1.5-.49,7.64-9,8.63-8.15Z" fill="#fff"/>
  <path d="M166.64,746.9c.07-5.62,2.04-12.49,7.19-15.36l-1.16,14.91-6.03.45Z" fill="#fff"/>
  <path d="M161.36,746.89l-4.57-.47-2.14-8.17c1.62.06,7.49,7.99,6.71,8.64Z" fill="#fff"/>
  <path d="M184.87,740.18c-.32.92-2.64,6.45-2.96,6.63-.86.5-4.4-.18-5.68.08,1.05-.81,7.57-7.78,8.63-6.71Z" fill="#fff"/>
  <path d="M56.12,639.69c-2.87,2.71-22.21,3-22.83.34,2.99-7.43,10.34-11.79,18.18-8.58,2.79,1.14,7.97,5.1,4.65,8.24Z" fill="#fff"/>
  <path d="M69.14,631.31c4.67-.41,8.84,2.49,12.08,5.42-.03,1.59-15.04,1.64-16.47.64-.46-.32-.82-.46-.82-1.13-.66-3.1,2.66-4.71,5.2-4.93Z" fill="#fff"/>
  <path d="M564.76,643.05c-2.73,2.46-15.94,2.42-19.75,2.06-21.01-1.97-3.28-15.15,8.63-13.91,4.29.45,16.77,6.77,11.12,11.85Z" fill="#fff"/>
  <path d="M235.15,801.76c5.53-.11,13.37,2.64,12.11,9.22-3.79,2.25-23.47,2.35-25.23-1.2-.57-1.79,4-5.42,5.37-6.17,1.98-1.07,5.51-1.81,7.74-1.85Z" fill="#fff"/>
  <path d="M179.17,71.89c5.04-1.11,14.4,2.64,13.65,8.73s-12.56,5.91-17.28,6.23c-36.47,2.5-73.87.4-110.36-.52-7.52-.19-31.92,1.54-36.8-2.07-3.23-2.39-2.76-6.17-1.24-9.54,2.84-6.26,10.94-6.36,16.68-4.89,2.79-13.21,10.51-25.04,25.64-23.32,5.2.59,9.17,4.78,14.33,5.7,4.31-8.21,7.32-16.4,16.3-20.68,14.69-7,30.3-.91,38.73,12.31,2.64,4.15,2.95,8.25,5,11.8,3.28,5.69,5.81.08,8.74-1.86,13.31-8.86,26.25,4.84,26.61,18.1Z" fill="#fff"/>
  <path d="M230.94,95.47l26.87-8.17c-1.58-7.49-6.81-13.59-9.35-20.64-3.29-9.13-5.93-23.21,8.26-13.07,11.57,8.27,6.51,16.58,8.8,27.68,2.11,10.27,12.85-6.12,15.08-7.9,5.73-4.58,13.77-2.16,15.01,5.16,2.41,14.24-18.16,25.7-30.37,25.1-5.04-.25-10.88-2.58-11.86-8.05-2.64-2.66-9,6.72-11.54,8.14-1.05.59-9.58,3.15-9.94,2.78.11-5.28,8.97-4.82,7.67-11.04h-8.64ZM284.07,74.94c-.55.16-.96.65-1.33,1.06-2.28,4.69,5.41,6.06,6.98,2.18,1.47-3.65-3.12-3.98-5.64-3.24Z" fill="#fff"/>
  <path d="M223.75,64.27l23,12.75c2.86,3.18,4.31,7.02-1.21,7.84-12.13,1.82-19-10.68-21.78-20.6Z" fill="#fff"/>
  <path d="M522.69,142.52c11.36-11.16,23.53-5.22,21.79,10.59.7.97,11.53-1.55,6.53,4.54-2.39,2.91-23.43,3.47-28.07,3.6-11.12.33-24,.32-35.06-.48-5.55-.4-21.76-.35-17.41-9.29,3.28-6.73,9.76-6.14,15.7-3.72,4.35-17,29.83-24.62,36.52-5.25Z" fill="#fff"/>
  <path d="M250.71,171.7c1.7,1.94,11.68-2.99,15,1.56,5.77,7.92-12.89,7.49-17.24,7.68-12.67.56-36.5,1.23-48.42-1.04-16.61-3.15-6.13-22.26,7.89-19.89,5.5.93,5.46,4.41,9.78,5.56,3.56-1.69,3.63-5.36,6.55-7.89,10.68-9.26,25.74,1.53,26.45,14.02Z" fill="#fff"/>
  <path d="M120.45,221.84c14.62-2.87,19.96,18.6,10.93,28.69-15.85,17.7-47.45-3.1-34.23-21.28,5.94-8.17,11.01-1.81,17.42-3.22,2-.44,2.91-3.61,5.88-4.19Z" fill="#fff"/>
  <path d="M133.53,197.24c.43,9.8-8.42,16.95-16.79,20.16-1.33-11.05,4.92-21.1,16.79-20.16Z" fill="#fff"/>
  <path d="M110.98,219.81c-7.1.07-13.48-8.61-10.1-15.16,6.78,1.34,10.16,8.79,10.1,15.16Z" fill="#fff"/>
  <path d="M31.69,261.19c4.91-.69,8.57,4.42,11.92,4.69,1.91.16,3.47-1.47,5.34-1.8,21.3-3.75,18.23,29.09-4.45,31.08-14.07,1.23-25.62-9.87-22.18-24.11.94-3.89,5.27-9.29,9.36-9.86Z" fill="#fff"/>
  <path d="M39.96,257.72c-9.99-1.2-18.74-10.79-17.27-21.12,10.85.75,15.05,12.12,17.27,21.12Z" fill="#fff"/>
  <path d="M53.4,246.21c.64,4.93-3.11,10.95-7.67,12.48-1.68-5.43,3.17-10.33,7.67-12.48Z" fill="#fff"/>
  <path d="M56.15,175.28c19.67-3.16,22.9,30.97-.43,36.05-21.86,4.77-36.5-23.83-20.27-31.32,6.02-2.78,8.92,1.67,12.88.9,1.96-.38,3.27-4.91,7.82-5.64Z" fill="#fff"/>
  <path d="M48.95,173.11c-.24.28-1.6.83-1.79.61.23-2.35-1-5.98,1.91-6.72.48,1.6,1.01,4.76-.12,6.11Z" fill="#fff"/>
  <path d="M321.08,529.84c-1.14,1.9-19.06,2.13-21.29.57-4.85-3.41,5.52-9.5,8.77-9.98,3.98-.58,11.46.98,12.49,5.51.17.74.33,3.42.04,3.9Z" fill="#fff"/>
  <path d="M284.07,74.94c2.53-.74,7.11-.41,5.64,3.24-1.57,3.89-9.25,2.51-6.98-2.18.37-.41.79-.9,1.33-1.06Z"/>
</svg>