<?xml version="1.0" encoding="UTF-8"?>
<svg id="Camada_1" xmlns="http://www.w3.org/2000/svg" version="1.1" viewBox="0 0 595.28 841.89">
  <!-- Generator: Adobe Illustrator 29.0.0, SVG Export Plug-In . SVG Version: 2.1.0 Build 186)  -->
  <path d="M.14,841.29V-.06h595v841.34H.14ZM591.19,3.23H3.43v672.09c16.88,6.62,38.19,2.12,52.24-8.9,2.38-1.86,5.78-7.62,8.44-6.57,6.51,15.68,23.56,23.56,39.91,23.02-26.42-19.12-48.38-45.16-58.53-76.55-9.67-29.9-14.84-76.23-11.08-107.72.69-5.81,2.95-9.37,8.49-11.37.64-12.65,1.19-25.42,2.61-38,3.82-33.68,12.13-69.81,18.99-102.74,2.89-13.85,4.53-29.9,9.98-43,.38-.91,3.57-2.14.97-3.18-3.07-1.23-7.88-.98-11.89-2.59-7.18-2.89-16.42-12.45-16.05-20.63.9-19.74,37.83-13.01,45.65-.42.98-.67.81-.99.74-1.98-.06-.74-2.56-11.13-2.81-11.67-.98-2.16-7.24-2.26-8.13-9.01-2.19-16.59,22.62-15.76,21.67-1.41-.17,2.5-2.96,5.83-3.01,6.65-.1,1.65,4.55,9.36,4.41,12.13l17.04-1.95c-.6-2.61,2.39-11.09,1.9-12.71-.1-.34-4.46-4.36-4.73-5.17-1.69-5.07-.06-9.69,4.2-12.63,9.25-6.37,19.61,1.7,16.74,12.14-.81,2.95-5.42,5.51-5.65,6.89-.38,2.28,1.64,8.46.7,11.49,7.4-10.37,18.44-20.52,32.37-18.24,7.03,1.15,12.85,10.22,10.94,17.06l-5.18,9.73c24.41-.17,48.94.22,73.29.04,22.47-.17,45.2-1.3,67.69-1.38,16.92-.06,36.77-3.14,50.35,8.22l24.03,25.38c2.74-1.07,4.99-2.91,7.71-4.12,10.25-4.53,12.58-8.58,21.28-13.56,40.4-23.14,104.64.95,114.3,47.85,1.96,9.52.28,17,1.17,25.25.26,2.44,2.78,4.05,3.27,5.18,4.53,10.47-.23,17.55-9.99,21.59-.46.79,3.19,12.22,3.88,14.07,8.01,21.55,29.82,32.52,21.89,59.33-3.86,13.06-17.75,19.99-29.09,25.45,11.32,15.24,12.63,36.7,11.8,55.21-1.57,35.2-12.44,70.96-32.03,100.09-1.28,1.91-10.86,12.78-10.64,14.2,16.92,19,44.97,20.29,63.41,2.43,1.51-1.46,3.82-6.94,6.46-5.99,5.05,10,17.37,15.6,28.04,17.12V3.23ZM130.63,240.22c-10.05.53-8.82,15.63,1.94,14.06,8.65-1.26,8-14.58-1.94-14.06ZM87.28,255.94c6.19,7.11,17.09.43,12.72-7.79-3.94-7.4-19.66-.19-12.72,7.79ZM143.7,265.07c-1.01,1.18-4.52,6.54-4.12,7.88l8.83,4.91c2.19-1.98,3.42-4.77,5.55-6.8.91-.87,9.16-8.19,9.88-4.57.28,1.41-11.9,9.72-12.22,12.77,4.17,9,18.18-.69,21.56-6.08,5.91-9.41,2.21-19.43-9.67-18.91-6.49.29-15.66,5.93-19.82,10.79ZM131.63,257.6l-3.37.38-1.81,11.08,5.83,1.69-.65-13.15ZM102.62,273.29l-3.54-11.1-4.93.02,2.97,12.48c1.19,1.61,4.03-1.34,5.5-1.4ZM168.21,301.87c-7.42-12.2-24.94-25.61-39.07-28.3-11.64-2.22-26.25.2-34.65,9.05-1.65.03-3.77-4.62-5.26-5.97-3.35-3.04-13.41-7.75-17.93-8.36-11.69-1.58-25.46,2.8-17.52,16.2,4.5,7.58,12.99,12.05,21.64,12.61,2.4.16,5.11-1.87,6.9.28l-7.88,18.04c17.66,1.5,19.46,20.7,5.03,29.05-1.11.64-5.4,1.74-5.59,1.97-.25.32-.85,5.86-1.71,7.82-1.72,3.93-5.26,4.47-6.61,6.54-.27.41-2.19,5.43-2.27,5.74-.73,2.79-4.9,26.05-4.68,27.43.09.55.13,1.04.67,1.35,13.53,1.6,13.68,18.29,1.99,23.63-1.7.77-7,1.57-7.45,2.43-1.79,10.17-3.82,19.77-5.03,30.45-.48,4.21-3.1,33.79-1.95,35.12l47.95,16.47c.94-4.57,2.48-8.34,5.02-12.17-14.84-14.36-14.68-36.4-8.3-54.87-26.03-6.95-15.71-46.33,11.17-37.48l2.64-33.04c-.59-2-18.91-7.43-10.95-11.59,7.14,6.37,16.26,10.15,25.09,13.73-26.32-34.85,30.03-63.93,56.85-42.05,1.47-1.93-6.34-21.18-8.12-24.1ZM387.37,312.18c-13.32-11.24-22.33-30.5-41.76-32.21-31.04-2.73-67,3.28-98.63.62-24.21,3.3-53.17-1.89-76.84,1.4-3.67.51-6.45,3.35-10.25,3.23-1.26,1.34,8.19,10.25,9.37,11.97,4.72,6.87,7.91,16.88,10.46,24.42.42,1.25,1.03,6.86,1.59,7.02l195.89-1.33c4.35-.71,4.35-12.48,10.16-13.85v-1.29ZM525.07,328.32c-16.5-33.78-59.64-49-94.65-37.21-3.77,1.27-17.97,8.26-19.37,11.54-.58,1.37,1.04.91,1.62.98,4.04.47,8.98.17,13.08.74,38.32,5.3,79.32,24.79,103.64,55.13,3.4,2.02,1.37-12.94,1.22-14.04-.88-6.34-2.78-11.45-5.55-17.12ZM525.82,387.39c1.52,1.33.5,2.23,3.29,1.07,9.93-4.12,5.84-15.96,1.47-22.61-20.26-30.82-77.12-57.45-113.26-58.98-20.49-.86-40.04,10.84-32.56,33.54,6.78-11.24,6.97-18.23,22.03-19.7,36.19-3.53,83.83,25.31,107.24,51.49,3.72,4.16,8.28,12.11,11.79,15.18ZM73.19,319.47c-2.11,7.59-5.02,16.53.31,23.47,14.78-2.11,17.14-24.86-.31-23.47ZM178.6,336.21c-9.99-29.01-71.98-10.03-61.45,21,4.23,12.48,16.99,14.54,28.61,13.44,16.38-1.55,39.12-16.22,32.85-34.43ZM490.97,361.19c.5-1.61,1.86-3.77.27-5.3-10.6-7.35-21.24-14.88-33.07-20.18-14.09-6.32-46.96-17.28-60.74-8.56-6.71,4.24-16.16,35.65-15.99,43.81.26,12.16,6.4,13.92,17.27,11.38,7.21-1.69,4.04-2.91,6.29-8.17,2.39-5.57,12.61-11.72,18.75-11.32l1.09,3.22c-11.26-.78-24.98,13.75-13.93,22.97,5.03,4.19,12.26,5.46,18.1,1.92,4.03-2.45,1.79-5.55,8.57-3.77,12.87,3.38,17.28,20.89,36.12,9,14.17-8.94,12.92-21.12,17.26-34.99ZM159.24,401.55v-16.1c0-1.14,1.54-5.1,2.07-6.48,6.93-18.11,32.48-28.97,48.89-16.21,12.86-13.11,32.44-18.38,50.61-15.75,3.47.5,12.17,4.02,13.87,3.87,1.34-.11,5.25-4.48,6.92-5.47,22.38-13.21,47.85-2.64,53.68,22.45.43,1.87-.31,4.69.49,6.08.36.63,5.33,2.47,5.94,2.39,1.65-.22,2.29-4.14,8.38-2.9,9.7,1.97,7.48,21.05,13.83,19.48,5.22-1.29,1.39-8.07.75-10.39-.36-1.3-1.63-4.69-1.66-4.96-.23-1.95,1.29-1.6,1.35-2.11,1.01-8.54.98-12.45,6.31-19.87,3.41-4.75,8.9-7.45,11.31-12.74l-2.47-12.28-197.9,1.32c8.98,30.46-23.56,44.14-49.01,42.09-8.33-.67-15.89-4.35-23.98-5.93l-2.66,31.72c3.96,2.47,7.46,3.71,9.9,8.07.82.38,14.85-4.46,17.48-4.91,8.26-1.41,17.53-1.3,25.91-1.37ZM69.82,342.4c-1.73-.36-1.38.68-1.74,1.84-1.06,3.36-1.22,7.77-1.53,11.31,4.71-2.89,4.23-8.36,3.27-13.15ZM322.05,351.18c-12.35-11.71-32.45-10.2-43.81,2.07,23.15,12.59,33.79,44.11,21.69,68.02,5.6.76,20-4.51,20.43-10.84.63-9.32-7.82-26.86,9.01-27.43-.45-2.96,2.73-6.48,3.16-8.39,1.46-6.5-5.81-18.99-10.49-23.43ZM403.81,383.81c-30.31,11.57-27.89-14.49-22.01-34.82-9.64,8.58-16.25,18.03-14.08,31.8.45,2.85,3.66,6.18,3.66,7.29,0,.48-3.91,6.09-4.58,8.35-2.03,6.87-1.39,17.29,5.65,21.04,2.49,1.33,5.18.8,7.01,2.92-5.59,14.22,12.81,27.38,25.67,22.58.09,13.37,19.79,14.85,29.38,10.64,3.74-1.64,8.8-7.91,10.18-8.27,2.8-.73,4.51,1.24,7.46,1.58,11.25,1.3,20.3-6.91,22.08-17.7,6.17,1.46,11.96.28,15.62-5.13-2.84-11.26-4.44-22.71-3.85-34.35-8.83,9.8-19.83,17.64-33.43,11.41-4.34-1.99-12.75-10.73-16.28-10.75-3.87,2.36-6.65,4.89-11.39,5.62-8.51,1.32-19.67-2.68-21.08-12.2ZM294.28,374.35c-17.43-30.04-55.92-31.53-80.99-10.16l3.15,5.54-.06,1.15c-3.24,3.44-3.84-1.16-5.51-2.88-21.13-21.65-58.05,7.96-47.21,34.2,1.75-.44,7.8,1.5,8.77.99.44-.23,3.31-6.41,5.56-8.22,11.83-9.52,32.64-5.28,33.88,11.47.58,7.84-3.59,17.05-11.86,18.77l6.32,13.18c2.1.73,6.78-1.27,8.6-2.54,2.18-1.53,4.08-5.9,5.78-5.38,2.62.8-.67,4.75-.04,5.91,2.2,3.99,25.92,10.19,31.27,7.88-1.84-3.52-4.58-5.1-5.88-8.9-.53-1.57-2.96-10.04.94-8.83,1.65.51.63,3.75,1.02,4.77.21.54,1.03.52,1.23,1,2,4.93,2.83,8.56,8.38,11.19,2.81.14,5.06-5.75,7.12-5.13,3.59,1.08-2.47,6.73-2.3,7.54,5.47,3.88,15.92,7.4,22.53,6.11,3.66-.72,5.19-4.46,8.58-5.88,5.82-2.43,13.61-1.45,19.2,1.2,5.45-2.81,4.56-16.3-1.95-16.24-4.3.04-6.77,3.32-12.68,1.51-4.84-1.48-12.33-9.78-10.6-15.18h2.45s3.36,6.48,3.36,6.48c11.19-14.25,9.6-34.62.93-49.55ZM514.03,377.47c-2.68-3.17-14.14-14.91-17.15-16.7-.81-.48-1.32-.84-2.33-.63-.64,4.35-1.76,8.59-2.53,12.92-3.9,21.88-3.86,52.28,14.04,69.23,10.11,9.57,27.55,15.71,27.93,32.22l-2.52-.11c-1.94-7.66-7.43-15.61-14.56-18.95,3.33,10.38,4.1,21.51,1.98,32.2,14.72-1.53,31.13-13.65,32.2-29.26,1.39-20.4-12.64-28.21-20.17-44.22-6.75-14.34-5.8-23.62-16.87-36.7ZM352.99,379.4c-.5-.67-3.83-2.73-4.79-2.83-8.8-.89,3.01,20.58-3.87,18.4-2.27-6.13-.94-12.55-6.94-16.77-10.08-.83-.33,19.12-1.94,20.72l-2.98-.63c.28-9.21-9.81-17.81-10.21-3.64-.54,19.22,7.68,40.41,30.93,32.19,5.5-1.94,12.63-7.22,11.16-13.64-.11-.5-1.22-.54-1.39-1.38-1.12-5.42-1.82-9.97-.55-15.53l-2.51.11c-2.33,6.91-10.11,5.93-11.69,13.67-.24,1.18,1.11,5.9-1.24,5.92-2.07.02-1.74-5.85-1.48-7.39,1.44-8.52,10.83-9.17,11.57-13.46.33-1.92-2.82-14.13-4.04-15.75ZM90.87,455.45v11.5c0,.15.79,2.3,1.03,2.35,6.08-1.6,12.4-2.75,18.71-1.71.64.58.95.87.32,1.67-.87,1.11-17.19,1.24-18.04,3.69,1.06,5.65,4.38,10.6,8.88,14.03,1.68.28,5.17-9.45,9.2-6.59,2.11,2.67-7.12,5.98-5.35,9.89,2.05,4.53,25.73,9.44,30.96,9.85,19.43,1.53,50.1-2.18,62.02-19.5.22-2.05-7.11-5.14-7.12-6.45-.03-4.93,8.96,2.95,9.84,2.3,2.03-4.5,4.5-9.1,3.85-14.36-1.86-1.45-12.79-.39-12.39-3.05.51-3.42,11.02-.52,13.14-.34l-1.37-13.08c-4.94-1.86-11.77,7.73-14.58,7.07l-1.64-1.54c-.29-2.9,12.54-8.32,14.91-9.96l-7.75-17.52c3.45-2.93,6.88-1.91,10.06-6.43,9.49-13.5-4.61-29.07-20.16-22.78-4.29,1.73-15.07,10.06-5.69,12.09l-.5,2.9c-14.94-6.05-32.64-5.66-48.23-2.35-6.22,1.32-10.73,4.01-16.65,5.63-9.07-20.56-42.93-11.96-33.24,11.39,2.79,6.72,8.14,7.88,14.34,10.03l-3.9,17.99c3.79-.94,20.2,2.55,21.05,6.24.1.42.24,1.62-.34,1.65-7.24-1.69-13.17-6.08-21.36-4.61ZM54.71,417.33c11.7-.49,18.18-17.83,3.2-18.02l-3.2,18.02ZM374.89,487.66h-11.51c-29.63,0-40.58-30.68-37.74-55.48.21-1.85,1.89-4.42,1.74-5.89-.21-2.09-5.47-6.98-5.1-10.28-4.58,3.69-9.66,7.32-15.61,8.37-4.42.78-12.69-1.79-5.72,5.46,2.44.42,6.66-2.43,9.27-2.63,10.72-.82,14.18,17.85,4.9,22.74,6.97,7.7,8.1,17.51-.03,24.87,1.9,3.49,4.46,5.64,6.46,9.31,6.37,11.69,6.51,23.79,2.72,36.38l47.91-7.31,2.72-25.55ZM367.66,418.64v10.19c0,4.48,6.95,14.37,12.5,9.85.04-.88-5-7.28-5.38-8.46-.77-2.4-.16-7.31-.66-8.18-.18-.32-5.49-2.94-6.46-3.4ZM364.28,425.99l-1.89-.4c-8.38,6.53-22.04,9.05-31.22,2.94-4.28,9.45-3.58,19.34-.65,28.9,6.4,20.92,25.07,29.01,45.94,26.33l11.4-39.18c-5.4-5.97-9.95.63-16.21-3.29-4.62-2.89-7.02-10.14-7.36-15.3ZM463.65,503.76c.51,5.44-.38,11.56,0,17.09,0,2.61,15.41-1.43,17.11-1.96,21.02-6.49,36.69-22.46,36.18-45.4-.12-5.27-2.69-18.56-5.57-22.69-1.85-2.64-8.91-6.5-11.82-9.87s-5.43-8.22-7-12.42c-5.61,2.18-9.75,5.66-16.33,4.66-1.2,9.26-10.47,16.31-19.44,17.04-3.48.28-8.73-1.55-10.37-1.21-1.99.41-6.5,5.86-9.79,7.36-6.78,3.09-15.89,3.16-22.93,1.06-2.9,14.41-9.19,30.72-9.25,45.66,0,1,.04,1.99.04,2.98l7.23-1.32c-3.64-14.06,7.61-23.94,19.88-27.77,5.16-1.61,11.41-2.92,16.8-4.24,6.01-1.46,22.16-2,24.16-9.37.56-2.07-.59-7.28,1.95-7.26,3.65.02,1.56,8.03.59,9.8-4.25,7.69-18.16,8.5-25.9,9.93-1.11,1.29,6.99,7.21,7.68,8.09,3.17,4.08,6.3,14.69,6.79,19.84ZM272.8,454.3c-2.65-2.14-12.79-4.14-15.96-7.41-11.6,2.04-22.84.19-33.41-4.67-1.44-.66-5.04-3.68-5.45-3.75-1.08-.19-7.55,4.44-10.09,3.18l1.32,17.09c6.5-4.31,14.82-6.56,22.15-2.76,2.22,1.15,5.93,5.97,7.64,5.91,10.34-5.13,22.18-5.3,33.55-5.21,1.27-.27.98-1.78.24-2.37ZM410.25,456.24c-3.58,0-8.08-8.62-9.06-9.03-.66-.28-8.48.21-10.45-.89-3.23,9.92-6.66,19.18-8.97,29.5-2.71,12.11-4.25,24.49-5.56,36.82l24-5.25,10.04-51.15ZM318.13,484.58c-1.09-1.77-7.68-8.06-7.69-9.74,18.27-15.77-7.33-37.73-21.37-21.38-3.48,4.05-1.43,7.35-1.89,7.93-.74.94-2.84.47-3.01.65-.34.36.73,5.5.7,6.89-.21,10.52-12.63,10.85-15.54.36-.62-2.23-.34-8.91-2.71-9.78l-4,.85c1.88,5.97,2.3,18.93-6.42,18.82-7.76-.1-8.91-10.89-10.85-16.49-11.7,7.4-8.91-1.71-17.37-4.65-11.96-4.16-21.82,4.99-20.03,17.4,1.21,8.41,9.92,7.63,10.36,10.01l-5.82,12.07c3.09-1.21,20.16,4.59,19.71,7.53-.09.59-1.88,2.04-2.81,1.6-2.13-2.48-15.31-7.18-17.61-5.55l-1.27,11.54c2.74-.1,17.42-3.76,18.43-.89.18.52-.14,1.53-.02,2.2l-17.75,1.98,1.38,6.5,40.69,1.38c.32-.27-3.27-7.23.33-7.89l4.72,7.78,14.89-.49.81-7.33c-6.09-1.07-9.88-1.57-13.01-7.37-.14-.25-1.93-5.13-1.83-5.4s1.19-.25,1.3-.79c.3-1.49-.16-2.96.47-4.68,7.41-20.08,32.99-6.82,26.82,10.38-3.06,8.54-15.14,4.27-8.57,14.52,7.11,1.11,17.2,3,14.23-7.52,5.83-3.84,4.65,4.56,3.89,8.13l19.06-1.32c-12.66-7.62-3.28-6.23,4.52-3.34l2-8.06c-.91-2.45-13.53-1.1-13.1-4.02.59-3.98,13.02.46,13.8-.34l-1.98-13.15c-5.24.91-7.99,4.41-11.59,7.83-6.02-2.76,6.87-10.84,10.28-11.12-1.03-1.54-1.24-3.49-2.19-5.04ZM283.5,455.46h-6.57c-2.19,2.05,6.57,4.43,6.57,0ZM278.72,460.89c-.92-.73-7.05-2.06-7.72-.5,2.8,4.32.33,13.42,7.57,13.54,3.29-.39,2.38-11.27.15-13.04ZM259.43,463.1c-.35-.78-.32-1.59-.57-2.39l-1.35-.69-8.12,2.38c1.09,2.88,1.68,12.26,4.98,13.3,5.79,1.83,6.77-7.68,6.16-11.42-.18-1.08-.99-.94-1.1-1.19ZM213.14,486.37c-3.89-1.47-6.45-4.97-8.2-8.57-4.77,8.02-10.94,14.64-19.77,18.37,3.05,8.1,6.63,15.83,6.96,24.33l16.41,1.98c-3.33-12.36-1.61-24.97,4.59-36.12ZM456.01,491.35c-1.89-3.83-6.06-10.98-10.3-12.38-9.4-3.09-26.2,5.18-30.18,14.15-1.19,2.68-3.7,9.42.77,10.31,1.89-7.09,8.45-11.7,14.15-15.76l.65,2.6c-3.75,3.6-12.05,10.24-12.18,15.49-.08,3.12.67,4.27,3.88,3.49-1.22-3.94,14.22-14.17,15.2-13.05.38,7.57-15.21,7.82-11.84,17.43,2.06,2.4,11.53-2.13,14.78-2.34,6.14-.4,12.25,3.48,18.12-.28,2.12-2.54-.42-15.26-1.8-18.58-.3-.73-1.15-.87-1.25-1.07ZM415.55,508.15c-18.86,3.26-37.36,8.49-56.28,11.55-91.76,14.85-209.79,9.07-297.31-23.18-5.95-2.19-16.67-10.43-22.15-3.38-4.33,5.56-1.2,23.03-2.22,30.24,23.29,11.48,48.36,19.18,73.66,25.1,93.57,21.87,207.08,22.77,299.81-3.3,11.43-3.21,26.9-7.5,37.45-12.51,9.2-4.37,4.04-7.5,4.56-16.01-7.59-5.09-24.14,4-29.5-.41-.95-.78-.93-2.29-1.51-2.77-1.63-1.35-6.2-1.06-6.5-5.32ZM282.45,495.95c-7.23-9.16-17.25-5.38-19.33,5.51,7.06-.89,14.61-2.31,21.69-.65.4-2.71-1.22-3.42-2.36-4.86ZM525.07,499.22c-1.67-2.91-3.33-8.2-7.25-6.36-1.34.63-8.5,12.49-10.77,14.87-10.6,11.13-34.18,20.27-49.32,16.09-.31,10.79.59,21.83-.61,32.58-4.04,36.34-14.98,76.29-34.66,107.92-2.81,4.52-9.55,11.54-11.74,15.95-.32.64-.5,1.22-.3,1.93,6.45,3.21,22.89,7.78,29.26,4.67.36-.18,4.83-4.97,5.56-5.81,15.81-18.07,32.55-48.62,39.12-71.78,2.89-10.19,3.83-20.93,6.97-30.79,1.44-.37,3.13-.23,3.23,1.53l-2.64,17.43,34.9-10.94c3.69-15.27,5.75-31.13,5.85-46.89-3.22.91-33.32,10.9-34.19,8.21-.28-1.7.69-2.08,1.97-2.63,3.23-1.39,9.9-2.11,13.81-3.28,2.46-.74,17.46-5.21,18.1-6.22.65-12.25-1.11-25.7-7.3-36.45ZM188.17,519.86c-1.34-7.58-2.29-15.77-6.89-22.25-24.97,9.08-54.62,9.17-78.18-3.99l-4.24,9.62.55,1.17c28.92,7.86,58.87,12.87,88.76,15.45ZM460.35,514.61c-7.44-.28-.89,8.47,0,5.58v-5.58ZM41.69,572.97c31.38,13.79,65.86,22.29,99.67,28.2,48.33,8.46,98.62,11.62,147.76,10.08,54.43-1.71,109.15-10.97,160.07-29.93l4.6-45.35-.98-1.63c-86.32,33.41-185.08,40-276.78,28.89-47.14-5.71-94.85-16.68-138.4-35.48.08,15.27.98,30.83,4.08,45.21ZM448.52,585.6c-42.96,15.18-88.2,24.47-133.8,27.59-81.19,5.57-176.03-1.84-253.13-28.23-3.76-1.29-15.18-6.93-17.76-7.22-1.29-.15-.85-.04-.97.96-1.11,9.19,7.75,30.17,11.17,39.29,30.55,15.02,65.63,23.93,99.17,29.86,78.37,13.86,171.81,14.53,248.79-6.57,7.12-1.95,27.3-7.31,32.68-10.71,3.35-2.11,7.97-21.85,9.33-26.69.13-.46,1.02-.49,1.29-1.5.56-2.07,3.82-16.16,3.23-16.78ZM524.78,591.52l-35.16,10.53c-3,16.11-10.72,30.37-16.77,45.34l33.21-11.16c8.79-13.67,15.38-28.7,18.72-44.71ZM433.4,634.9c-56.99,20.3-118.03,27.28-178.52,26.31-57.87-.93-117.37-9.36-172.24-27.62-6.82-2.27-18.18-8.16-24.22-9.33-.74-.14-.73-.99-1.73.45,7.55,13.55,17.08,27.26,28.22,38.16,3.67,3.59,21.82,18.84,25.67,19.73,5.23,1.2,19.73-4.23,24.43-7.17,2.24-1.4,7.02-6.78,8.54-6.65,2.73.24,2.88,3.75,4.49,5.91,13.92,18.69,39.45,22.2,59.86,11.82,6.06-3.08,10.07-7.55,14.8-12.22,5.02,5.27,7,10.31,13.52,14.78,19.78,13.54,47.35,8.22,64.36-7.18,1.88-1.71,4.2-6.84,6.98-6.9,2.04-.05,6.35,7.58,8.78,9.57,18.31,14.94,45.63,12.04,63.28-2.32,2.42-1.97,13.08-15.02,14.11-15.05l13.04,12.39c5.6-5.47,9.21-12.29,13.3-18.89,4.31-6.96,10.15-15.48,13.09-23.35.31-.84.28-1.57.22-2.43ZM490.18,657.48c4.28-4.94,9.48-9.5,11.59-16.01l-31.77,9.8-24.11,34.89c18.67-3.23,32.35-14.9,44.28-28.68ZM591.19,838v-159.4c-11.23-2.91-21.73-6.83-29.26-16.1-18.61,23.15-51.4,21.28-71.66,1.29-25.65,28-68.3,39.61-97.28,9.22-19.1,27.49-63.82,35.03-85.49,6.59-21.74,25.48-64.35,28.68-85.49.66h-.95c-.11.91-.59,1.72-1.28,2.32-19.87,17.37-53.38,17.8-71.73-1.99-2.19-2.36-2.69-5.44-5.58-6.74-22.26,18.93-63.81,17.36-80.19-8.7-15.54,14.77-38.05,20.67-58.86,14.44v41.41c17.85,4.85,35.65,1.45,49.98-10.17,1.9-1.54,4.18-5.66,6.23-5.67,2.29,2.55,4.09,5.53,6.54,7.96,13.43,13.35,35.21,15.85,52.28,8.18,8.15-3.66,14.35-10.14,20.74-16.12,1.97.03,3.07,5.66,4.26,7.42,14.72,21.75,48.77,26.17,70.5,12.82,1.34-.82,9.58-9.23,10.37-5.4.58,2.84-12.29,10.31-14.87,11.41-25.06,10.66-57.53,3.9-70.93-20.94-21.09,24.04-58.96,24.98-79.65.04-14.74,13.86-35.83,19.2-55.46,13.75v113.71h587.77Z"/>
  <rect x=".14" y="841.29" width="595" height=".66" fill="#fff"/>
  <path d="M591.19,3.23v671.1c-10.67-1.52-22.99-7.12-28.04-17.12-2.64-.96-4.95,4.52-6.46,5.99-18.44,17.86-46.49,16.57-63.41-2.43-.22-1.41,9.36-12.29,10.64-14.2,19.59-29.14,30.46-64.89,32.03-100.09.82-18.51-.49-39.97-11.8-55.21,11.34-5.46,25.23-12.38,29.09-25.45,7.93-26.81-13.88-37.78-21.89-59.33-.69-1.85-4.34-13.28-3.88-14.07,9.77-4.04,14.53-11.12,9.99-21.59-.49-1.14-3.01-2.74-3.27-5.18-.88-8.25.8-15.72-1.17-25.25-9.67-46.9-73.9-70.98-114.3-47.85-8.7,4.98-11.02,9.04-21.28,13.56-2.72,1.2-4.97,3.05-7.71,4.12l-24.03-25.38c-13.58-11.36-33.43-8.28-50.35-8.22-22.49.08-45.23,1.22-67.69,1.38-24.36.18-48.88-.21-73.29-.04l5.18-9.73c1.91-6.84-3.91-15.91-10.94-17.06-13.94-2.28-24.97,7.88-32.37,18.24.94-3.02-1.08-9.2-.7-11.49.23-1.38,4.84-3.94,5.65-6.89,2.87-10.44-7.5-18.51-16.74-12.14-4.26,2.93-5.89,7.56-4.2,12.63.27.82,4.63,4.84,4.73,5.17.48,1.62-2.5,10.1-1.9,12.71l-17.04,1.95c.14-2.77-4.51-10.47-4.41-12.13.05-.83,2.85-4.16,3.01-6.65.95-14.35-23.87-15.18-21.67,1.41.89,6.74,7.15,6.85,8.13,9.01.25.55,2.75,10.94,2.81,11.67.08.99.25,1.31-.74,1.98-7.81-12.59-44.74-19.31-45.65.42-.37,8.18,8.87,17.74,16.05,20.63,4.01,1.61,8.82,1.37,11.89,2.59,2.59,1.04-.6,2.27-.97,3.18-5.45,13.1-7.09,29.15-9.98,43-6.86,32.93-15.18,69.06-18.99,102.74-1.43,12.58-1.97,25.36-2.61,38-5.54,2-7.8,5.56-8.49,11.37-3.76,31.49,1.41,77.82,11.08,107.72,10.15,31.39,32.11,57.43,58.53,76.55-16.34.54-33.39-7.34-39.91-23.02-2.66-1.05-6.06,4.71-8.44,6.57-14.06,11.02-35.36,15.52-52.24,8.9V3.23h587.77ZM407.76,131.4h10.85c.2,0,.84-1.41,1.63-1.01,16.3,7.75,13.45,28.55,23.75,40.04,14.72,16.42,41.38,17.25,60.66,9.55,4.55,9.63,23.14,23.52,33.65,17.84,4.95-2.68,1.85-10.15,2.26-10.55,11.6,2.3,21.96-6.81,11.18-16.42,6.26-2.85,14.8-11.27,5.21-16.06-6.69-3.34-16.31,1.16-23.3,1.57-8.63.51-16.72-1.98-23.32-7.2,5.46-.76,11.99-2.56,16.88-5.16,5.81-3.09,15.66-10.85,11.31-18.1-1-1.66-2.8-1.15-2.54-3.03,9.69-3.25,27.11-24.85,9.21-28.6,7.79-8.76,16.07-34.12-4.61-28.61,4.82-9.07,6.15-31.96-9.88-23.34-8.87,14.62-17,30.29-29.91,41.75l-3.32-6.52c-5.32-7.11-10.96-.93-11.45-1.36-1.15-9.24-11.56-21.97-19.4-10.52-2.9-4.27-5.75-9.06-11.83-7.87l-5.27,7.87c-45.27-24.07-102.48-18.32-145.59,7.59-14.34,8.62-26.23,20.34-37.51,32.5,5.24-15.87-8.07-26.82-23.06-26.58-1.16-.81-.39-5.34-.78-7.11-4.2-19.42-30.21-23.19-44.22-11.68-11.11-34.49-68.77-33.88-75.28,3.3-16.58-10.81-41.38-2.34-43.4,18.39-18.38-2.79-37.31,15.75-23.92,32.82,9.49,12.1,30.29,11.12,41.98,2.66,12.81,13.27,37.98,14.29,49.69-.62h.96c11.71,14.73,39.1,15.36,51.29.68,6.61,5.42,14.15,8.47,22.68,9.18-3.1,5.46-6.11,10.54-6.64,17.01-42.21-8.41-46.52,50.69-2.23,45.43,4.58-.54,8.13-3.5,12.47-4.62,3.45,2.34,5.39,6.48,9.2,8.59,8.38,4.65,22.48,4.37,30.81-.15,3.11-1.69,4.92-4.95,8.57-5.68,12.34,14.19,31.08,10.74,42.87-2.12,16.64,12.01,46.06,2.62,43.6-20.59-1.57-14.81-16.35-20.13-29.5-17.5.6-11.86-8.44-20.04-19.05-23.34,26.11-29.2,71.36-39.64,107.81-24.64-3.32,3.69-6.84,8.29-7.24,13.47-.17,2.16.9,5.12.57,6.41-.68,2.65-8.68,6.93-5.82,12.31ZM432.38,162.68c-4.54-13.24-14.03-23.47-26.28-29.96.77-9.57-2.64-26.15-14.66-26.17-4.72,9.16,2.74,17.65,8.43,24.19-8.62-1.1-14.66-9.91-22.66-12.51-2.84-.92-14.21-2.75-15.8.02-3.71,6.47,12.46,12.1,17.11,12.48,3.83.31,9.08-1.35,11.08-1.12,1.79.2,4.4,3.58,6.98,3.11,1.14.88-.13,1.17-.98,1.31-2.86.46-6.63.1-9.56.97-4.22,1.26-13.38,7.81-6.16,11.45,8.57,4.32,20.65-3.06,26.88-8.94l7.57,4.74c-5.72.33-19.17,4.82-20.25,11.34-1.21,7.31,11.89,4.5,15.8,2.61,4.35-2.1,6.4-5.74,8.73-9.67,2.9,2.33,5.16,4.83,7.01,8.09.76,1.34,6.58,19.58,8.35,13.2.21-2.12-1.22-4.1-1.59-5.16ZM127.5,140.72c-2.9.77-13.24,16.56-13.99,20.23-2.92,14.43,13.25,16.51,17,3.85,2.38-8.03.04-15.95-.81-23.91-.65-.47-1.48-.36-2.21-.17ZM63.45,176.57c.97,1.35,5.51,3.49,7.31,3.43,7.4-.22,9.72-7.95,10.27-14.07.22-2.42,0-20.21-1.67-20.72-1.56.09-3.92,2.68-4.93,3.8-4.71,5.21-15.75,20.92-10.97,27.56ZM143.7,187.51c-4.06,5.67-13.43,22.71-1.18,24.7,9.3,1.5,11.61-6.5,12.15-14.05.23-3.17-.03-15.74-.69-18.43-.18-.72-.29-1.25-.99-1.65-.63-.14-1.1,0-1.65.31-.52.3-6.96,8.16-7.64,9.12ZM98.53,220.57c2.61-2.32,3.97-9.84,4.16-13.26.19-3.62-.07-12.35-.61-15.79-.15-.92-.04-1.76-1.06-2.26-3.96-1.15-17.08,19.79-17.38,24.66-.56,9.12,8.6,12.26,14.89,6.66ZM432.34,198.85c-8.72-8.26-15.06-10.69-27.52-9.58-10.48.93-24.36,8.87-25.33,20.36-10.02-3.51-22.65-.95-24.96,10.87-34.44-3.09-33.49,39.65,1.6,36.44,4.44-.41,8.51-2.17,12.53-3.91,11.6,11.68,31.68,13.25,42.72-.02,9.65,10.86,29.27,9.3,38.22-1.37,10.31,5.6,27.52,6.37,35.99-2.65,6.58-7.01,8.87-15.91,2.06-23.6-4.97-5.61-10.74-6.69-18.06-6.6-1.42-17.02-18.3-23.99-32.61-15.08-1.85-1.43-2.78-3.09-4.64-4.86ZM195.97,204.46c-1.85-1.27-7.42,5.48-8.73,7.19-4.16,5.4-6.33,11.08-8.9,16.86v2.32c2.33,2.57,2.85,6.19,7.04,6.92,15.67,2.74,12.38-24.53,10.59-33.29ZM282.45,215.14c-3.28,4.25-7.83,11.73-8.18,17.13-.88,13.52,16.27,14.39,17.8-1.92.32-3.37-.46-18-1.68-20.71-1.63-3.61-6.66,3.84-7.94,5.5ZM242.67,228.11c-1.15-2.15-5.61,2.74-6.51,3.72-4.91,5.36-17.62,25.47-6.29,29.77,16.5,6.26,13.83-25.12,12.8-33.49ZM527.97,259.04c-1.12-.18-3.07-.55-3.91.29-.76.76-4.64,12.31-4.89,14.02-1.09,7.3-.57,17.37,9.26,17,14.91-.56,3.5-24.82-.46-31.31Z" fill="#fff"/>
  <path d="M591.19,838H3.43v-113.71c19.63,5.45,40.72.11,55.46-13.75,20.69,24.94,58.56,24,79.65-.04,13.4,24.84,45.86,31.6,70.93,20.94,2.58-1.1,15.45-8.57,14.87-11.41-.78-3.83-9.02,4.57-10.37,5.4-21.73,13.36-55.78,8.94-70.5-12.82-1.19-1.75-2.29-7.38-4.26-7.42-6.39,5.98-12.58,12.46-20.74,16.12-17.07,7.66-38.85,5.17-52.28-8.18-2.45-2.44-4.26-5.41-6.54-7.96-2.05,0-4.34,4.13-6.23,5.67-14.33,11.62-32.13,15.02-49.98,10.17v-41.41c20.81,6.24,43.32.33,58.86-14.44,16.38,26.06,57.93,27.62,80.19,8.7,2.89,1.3,3.4,4.38,5.58,6.74,18.34,19.8,51.85,19.36,71.73,1.99.69-.6,1.17-1.41,1.28-2.33h.95c21.14,28.03,63.75,24.83,85.49-.65,21.68,28.44,66.39,20.9,85.49-6.59,28.98,30.39,71.63,18.78,97.28-9.22,20.25,19.99,53.05,21.85,71.66-1.29,7.53,9.27,18.03,13.19,29.26,16.1v159.4ZM488.46,704.75l-2.82-.25c-12.52,22.47-39.97,30.21-63.92,21.94-8.4-2.9-14.41-7.99-20.11-14.59-15.45,20.23-41.89,28.32-66.31,20.81-7.84-2.41-13.15-6.48-19.28-11.62-1.76-1.47-1.47-3.67-4.57-3.4-.75.07-8.75,8.08-11.42,9.69-9.36,5.65-19.12,7.43-29.99,6.8-1.98-.11-9.85-2.67-10.77-1.21-.11.57-.3,1.78-.13,2.17.26.57,10.77,2.88,12.21,2.99,15.27,1.24,29.69-6.08,40.75-15.78,25.19,24.15,67.2,21.31,89.41-5.23,23.11,23.95,67.31,20.35,85.47-7.89,19.19,22.21,57.55,21.82,75.85-1.11.15-5.54-10.59,5.89-12.19,6.9-18.98,11.99-49.46,9.62-62.19-10.23ZM488.08,758.57c2.01-1.03,8.55,6.16,10.87,7.65,16.9,10.93,42.41,10.69,57.07-3.82-.09-6.78-4.97.41-6.96,1.59-16.14,9.54-39.24,8.36-53.22-4.51-1.94-1.79-3.83-6.31-6.22-6.34s-6.62,6.31-8.87,8.3c-19.72,17.42-51.27,23.28-72.65,4.92-2.37-2.04-3.28-5.26-5.91-6.32-1.75.17-6.43,6.45-8.22,7.97-12.6,10.7-31.08,14.23-46.68,8.53-2.24-.82-10.86-6.4-11.5-6.23-3.73.98,2.56,5.45,3.68,6.16,13.45,8.58,35.13,7.12,48.82-.33,5.2-2.83,9-7.25,13.89-10.46,24.39,23.09,65.46,18.84,85.91-7.11ZM143.68,760.89c-1.25-1.41-2.26-6.11-4.84-5.46-.75.19-9.42,8.72-11.51,10.25-21.59,15.85-48.46,14.86-68.34-3.26-6.46,1.37,9.81,11.34,11.05,11.95,23.99,11.77,50.68,5.14,68.55-13.9,15.69,19.84,44.08,26.13,67.68,17.74,8.65-3.08,14.57-8.43,21.69-13.86,17.56,20.94,50.49,23.33,69.95,3.56l-2.59-1.96c-13.74,12.76-34.37,16.16-51.22,7.27-1.61-.85-7.34-4.7-8.61-5.85-1.57-1.42-6.02-8.22-6.83-8.26-5.04,2.8-8.74,7.92-13.87,11.17-22.09,14-53.7,10.16-71.11-9.4Z" fill="#fff"/>
  <path d="M41.69,572.97c-3.1-14.39-4-29.94-4.08-45.21,43.55,18.8,91.26,29.77,138.4,35.48,91.71,11.11,190.46,4.52,276.78-28.89l.98,1.63-4.6,45.35c-50.91,18.96-105.64,28.22-160.07,29.93-49.14,1.54-99.43-1.62-147.76-10.08-33.81-5.92-68.28-14.42-99.67-28.2ZM361.03,573.16l-28.25,2.22c-1.42,2.17-.9,3.27,1.64,3.68,1.93.31,10.62-.51,13.09-.78,1.65-.18,12.42-1.78,12.95-2.17.84-.63.75-2,.57-2.94Z" fill="#fff"/>
  <path d="M448.52,585.6c.58.62-2.68,14.71-3.23,16.78-.27,1.01-1.16,1.04-1.29,1.5-1.36,4.84-5.99,24.57-9.33,26.69-5.38,3.4-25.56,8.76-32.68,10.71-76.98,21.1-170.42,20.42-248.79,6.57-33.54-5.93-68.62-14.84-99.17-29.86-3.41-9.12-12.27-30.09-11.17-39.29.12-1-.33-1.11.97-.96,2.59.3,14,5.94,17.76,7.22,77.1,26.39,171.94,33.8,253.13,28.23,45.6-3.13,90.84-12.41,133.8-27.59ZM173.62,625.11l-42.47-5.82c-6.35,3.11,4.3,4.22,7.04,4.78,5.21,1.06,31.63,5.32,34.85,3.91.43-.19,1.05-.81,1.14-1.28l-.56-1.59Z" fill="#fff"/>
  <path d="M415.55,508.15c.31,4.27,4.87,3.98,6.5,5.32.58.48.56,1.99,1.51,2.77,5.37,4.41,21.91-4.68,29.5.41-.52,8.52,4.64,11.64-4.56,16.01-10.55,5.01-26.03,9.3-37.45,12.51-92.72,26.07-206.23,25.17-299.81,3.3-25.29-5.91-50.36-13.62-73.66-25.1,1.02-7.21-2.11-24.68,2.22-30.24,5.49-7.04,16.2,1.19,22.15,3.38,87.52,32.25,205.55,38.04,297.31,23.18,18.92-3.06,37.42-8.29,56.28-11.55Z" fill="#fff"/>
  <path d="M433.4,634.9c.07.86.09,1.59-.22,2.43-2.94,7.87-8.78,16.38-13.09,23.35-4.09,6.6-7.71,13.42-13.3,18.89l-13.04-12.39c-1.03.03-11.69,13.08-14.11,15.05-17.65,14.36-44.98,17.26-63.28,2.32-2.44-1.99-6.75-9.61-8.78-9.57-2.78.07-5.09,5.2-6.98,6.9-17.01,15.4-44.59,20.72-64.36,7.18-6.52-4.47-8.51-9.51-13.52-14.78-4.73,4.67-8.74,9.14-14.8,12.22-20.41,10.38-45.93,6.87-59.86-11.82-1.61-2.16-1.76-5.67-4.49-5.91-1.52-.13-6.3,5.24-8.54,6.65-4.7,2.94-19.2,8.37-24.43,7.17-3.85-.88-22-16.14-25.67-19.73-11.14-10.89-20.67-24.61-28.22-38.16.99-1.43.99-.59,1.73-.45,6.04,1.17,17.4,7.06,24.22,9.33,54.87,18.27,114.36,26.69,172.24,27.62,60.49.97,121.53-6.02,178.52-26.31Z" fill="#fff"/>
  <path d="M387.37,312.18v1.29c-5.81,1.36-5.8,13.13-10.15,13.85l-195.89,1.33c-.57-.17-1.17-5.77-1.59-7.02-2.55-7.54-5.75-17.55-10.46-24.42-1.18-1.72-10.63-10.63-9.37-11.97,3.8.12,6.58-2.72,10.25-3.23,23.67-3.29,52.63,1.9,76.84-1.4,31.63,2.67,67.59-3.35,98.63-.62,19.42,1.71,28.44,20.96,41.76,32.21Z" fill="#fff"/>
  <path d="M525.07,499.22c6.19,10.75,7.94,24.2,7.3,36.45-.65,1.01-15.64,5.48-18.1,6.22-3.91,1.17-10.58,1.89-13.81,3.28-1.28.55-2.25.93-1.97,2.63.87,2.69,30.97-7.29,34.19-8.21-.1,15.77-2.16,31.63-5.85,46.89l-34.9,10.94,2.64-17.43c-.11-1.76-1.8-1.9-3.23-1.53-3.14,9.86-4.08,20.6-6.97,30.79-6.56,23.16-23.31,53.71-39.12,71.78-.73.83-5.2,5.63-5.56,5.81-6.37,3.11-22.8-1.46-29.26-4.67-.2-.71-.02-1.29.3-1.93,2.19-4.41,8.93-11.43,11.74-15.95,19.68-31.63,30.62-71.58,34.66-107.92,1.19-10.75.3-21.79.61-32.58,15.14,4.19,38.72-4.95,49.32-16.09,2.27-2.39,9.43-14.24,10.77-14.87,3.92-1.84,5.57,3.46,7.25,6.36Z" fill="#fff"/>
  <path d="M294.28,374.35c8.66,14.93,10.26,35.3-.93,49.55l-3.36-6.47h-2.45c-1.73,5.4,5.76,13.69,10.6,15.17,5.91,1.81,8.38-1.48,12.68-1.51,6.51-.05,7.4,13.43,1.95,16.24-5.58-2.65-13.38-3.63-19.2-1.2-3.4,1.42-4.93,5.16-8.58,5.88-6.61,1.29-17.06-2.23-22.53-6.11-.17-.81,5.89-6.46,2.3-7.54-2.06-.62-4.31,5.28-7.12,5.13-5.55-2.63-6.39-6.26-8.38-11.19-.19-.48-1.02-.46-1.23-1-.4-1.03.63-4.26-1.02-4.77-3.9-1.21-1.47,7.26-.94,8.83,1.3,3.81,4.04,5.38,5.88,8.9-5.36,2.31-29.08-3.9-31.27-7.88-.64-1.15,2.66-5.1.04-5.91-1.7-.52-3.6,3.85-5.78,5.38-1.82,1.28-6.5,3.27-8.6,2.54l-6.32-13.18c8.27-1.72,12.44-10.93,11.86-18.77-1.23-16.75-22.05-20.98-33.88-11.47-2.25,1.81-5.12,7.98-5.56,8.22-.97.51-7.03-1.42-8.77-.99-10.84-26.24,26.09-55.85,47.21-34.2,1.68,1.72,2.27,6.31,5.51,2.88l.06-1.15-3.15-5.54c25.07-21.37,63.56-19.88,80.99,10.16ZM282.67,389.18c-4.88.63-4.35,8.73,1.11,8.42,6-.34,3.97-9.08-1.11-8.42ZM239.28,399.05c-5.65.61-5.09,9.03.39,8.9,5.75-.14,4.63-9.44-.39-8.9ZM259.27,410.66c1.26,1.96,7.67-3.05,10.27-3.67s10.24.75,9.3-2.41-8.72-1.26-10.97-.58-10.27,4.05-8.6,6.66Z" fill="#fff"/>
  <path d="M90.87,455.45c8.19-1.47,14.12,2.91,21.36,4.61.59-.03.44-1.23.34-1.65-.85-3.69-17.26-7.18-21.05-6.24l3.9-17.99c-6.2-2.15-11.55-3.31-14.34-10.03-9.69-23.34,24.18-31.94,33.24-11.39,5.92-1.62,10.42-4.31,16.65-5.63,15.59-3.31,33.29-3.7,48.23,2.35l.5-2.9c-9.38-2.03,1.4-10.36,5.69-12.09,15.55-6.28,29.65,9.28,20.16,22.78-3.17,4.51-6.61,3.5-10.06,6.43l7.75,17.52c-2.38,1.64-15.2,7.06-14.91,9.96l1.64,1.54c2.81.66,9.64-8.93,14.58-7.07l1.37,13.08c-2.12-.17-12.63-3.08-13.14.34-.4,2.66,10.53,1.6,12.39,3.05.65,5.26-1.82,9.86-3.85,14.36-.88.65-9.87-7.23-9.84-2.3,0,1.31,7.35,4.39,7.12,6.45-11.92,17.32-42.58,21.04-62.02,19.5-5.22-.41-28.9-5.31-30.96-9.85-1.77-3.91,7.46-7.22,5.35-9.89-4.04-2.87-7.52,6.86-9.2,6.59-4.51-3.43-7.82-8.38-8.88-14.03.85-2.45,17.17-2.57,18.04-3.69.63-.8.33-1.1-.32-1.67-6.31-1.03-12.63.11-18.71,1.71-.25-.05-1.03-2.19-1.03-2.35v-11.5ZM194.66,406.24c4.21,2.66-5.31,10.67-.89,11.14,5.19.54,9.33-17.58-3.65-14.2-5.4,1.41-7.21,8.58-3.65,6.86.8-2.13,6.21-5.05,8.18-3.81ZM105.33,416.67c.7-6.24-10.68-7.5-13.82-3.63-4.59,5.64,3.27,15.34,7.27,12.53s-8.72-3.97-4.67-9.93c3.16-4.64,9.9,2.39,11.22,1.03ZM179.45,467.46l-2.81-.2c.21,6.45-3.11,12.88-10.44,11.81-3.97-.58-5.06-2.51-5.02-6.21.1-9.22,9.52-4.86,12.33-13.99,4.39-14.25-12.76-28.35-25.39-18.82-14.19,10.7-6.49,27.45,10.18,27.84,1.36,7.54-2.96,14.01-11.14,13.11-8.97-.99-7.57-11.16-9.29-11.74-5.18-1.74-1.21,12.39,6.46,14.58,5.58,1.59,8.54.38,13.19-2.2.79-.44.96-1.81,1.5-1.92,2.54-.49,6.14,4.83,13.82,1.48,3.51-1.53,9.84-10.28,6.61-13.75ZM178.12,437.19c-3.5,1.12-2.44,9.69,3.49,8.14,4.85-1.27,3.14-10.27-3.49-8.14ZM124.59,450.65c3.92,3.06,9.4-1.93,6.11-5.77-3.72-4.34-10.83,2.09-6.11,5.77Z" fill="#fff"/>
  <path d="M159.24,401.55c-8.37.07-17.65-.04-25.91,1.37-2.63.45-16.65,5.29-17.48,4.91-2.44-4.37-5.94-5.6-9.9-8.07l2.66-31.72c8.08,1.58,15.64,5.26,23.98,5.93,25.44,2.05,57.99-11.63,49.01-42.09l197.9-1.32,2.47,12.28c-2.41,5.29-7.89,7.99-11.31,12.74-5.33,7.42-5.3,11.33-6.31,19.87-.06.51-1.59.17-1.35,2.11.03.27,1.3,3.66,1.66,4.96.64,2.32,4.48,9.09-.75,10.39-6.35,1.57-4.13-17.5-13.83-19.48-6.09-1.24-6.73,2.68-8.38,2.9-.61.08-5.58-1.76-5.94-2.39-.8-1.39-.06-4.22-.49-6.08-5.82-25.1-31.3-35.66-53.68-22.45-1.67.99-5.58,5.36-6.92,5.47-1.7.14-10.39-3.37-13.87-3.87-18.17-2.62-37.75,2.65-50.61,15.75-16.41-12.76-41.95-1.9-48.89,16.21-.53,1.37-2.07,5.34-2.07,6.48v16.1Z" fill="#fff"/>
  <path d="M403.81,383.81c1.41,9.52,12.57,13.51,21.08,12.2,4.74-.73,7.52-3.25,11.39-5.62,3.54.02,11.94,8.76,16.28,10.75,13.61,6.23,24.6-1.62,33.43-11.41-.58,11.65,1.02,23.1,3.85,34.35-3.66,5.41-9.45,6.59-15.62,5.13-1.78,10.79-10.83,18.99-22.08,17.7-2.95-.34-4.66-2.31-7.46-1.58-1.38.36-6.43,6.63-10.18,8.27-9.59,4.21-29.28,2.73-29.38-10.64-12.86,4.81-31.27-8.36-25.67-22.58-1.83-2.12-4.52-1.59-7.01-2.92-7.03-3.75-7.68-14.17-5.65-21.04.67-2.26,4.57-7.87,4.58-8.35,0-1.11-3.21-4.44-3.66-7.29-2.17-13.78,4.45-23.22,14.08-31.8-5.88,20.33-8.3,46.39,22.01,34.82ZM409.27,405.97c-1.13-1.29-1.52-6.78-4.85-3.98,2.06,12.06,13.79,14.43,23.93,9.31,1.7-.86,8.04-5.5,5.71-7.77s-4.61,3.04-6.07,4.12c-5.41,4.01-14.27,3.41-18.72-1.68Z" fill="#fff"/>
  <path d="M490.97,361.19c-4.34,13.87-3.08,26.05-17.26,34.99-18.84,11.88-23.25-5.62-36.12-9-6.78-1.78-4.54,1.32-8.57,3.77-5.83,3.54-13.07,2.28-18.1-1.92-11.05-9.21,2.67-23.75,13.93-22.97l-1.09-3.22c-6.15-.4-16.37,5.75-18.75,11.32-2.25,5.26.92,6.49-6.29,8.17-10.88,2.54-17.02.79-17.27-11.38-.17-8.15,9.28-39.56,15.99-43.81,13.78-8.72,46.65,2.25,60.74,8.56,11.82,5.3,22.47,12.83,33.07,20.18,1.59,1.53.23,3.69-.27,5.3ZM417.57,338.41c1.93-3.53-4.76-4.66-7.4-4.51-2.83.16-12.98,4.07-10.93,7.82,3.55,1.19,5.12-3.05,9.01-3.76,3.37-.62,6.08.44,9.32.45ZM474.82,361.46c.55-9.34-10.33-17.24-19.06-16.42-1.77,2.2,6.48,4.35,8.11,5.36,3.97,2.47,7.04,6.22,8.31,10.76l2.65.31ZM402.17,359.78c-1.61,0-4.82,2.03-5.32,3.62l.04,2.65c4.12,4.28,10.22,1.56,8.59-4.59-.45-.91-2.32-1.68-3.31-1.68ZM453.61,374.12c-4.42-3.72-9.01,2.52-5.45,6.43s9.68-2.88,5.45-6.43Z" fill="#fff"/>
  <path d="M318.13,484.58c.95,1.55,1.16,3.5,2.19,5.04-3.42.28-16.31,8.37-10.28,11.12,3.61-3.42,6.35-6.92,11.59-7.83l1.98,13.15c-.79.8-13.21-3.64-13.8.34-.43,2.93,12.18,1.58,13.1,4.02l-2,8.06c-7.8-2.89-17.18-4.28-4.52,3.34l-19.06,1.32c.76-3.57,1.94-11.97-3.89-8.13,2.97,10.52-7.12,8.62-14.23,7.52-6.58-10.25,5.5-5.98,8.57-14.52,6.17-17.2-19.41-30.46-26.82-10.38-.63,1.72-.17,3.2-.47,4.68-.11.54-1.21.53-1.3.79s1.7,5.15,1.83,5.4c3.14,5.79,6.93,6.3,13.01,7.37l-.81,7.33-14.89.49-4.72-7.78c-3.6.66,0,7.61-.33,7.89l-40.69-1.38-1.38-6.5,17.75-1.98c-.12-.68.2-1.69.02-2.2-1.01-2.87-15.69.78-18.43.89l1.27-11.54c2.29-1.62,15.47,3.07,17.61,5.55.93.44,2.72-1.01,2.81-1.6.45-2.94-16.62-8.74-19.71-7.53l5.82-12.07c-.45-2.38-9.16-1.6-10.36-10.01-1.79-12.42,8.07-21.56,20.03-17.4,8.46,2.94,5.67,12.05,17.37,4.65,1.94,5.6,3.09,16.39,10.85,16.49,8.72.11,8.3-12.85,6.42-18.82l4-.85c2.36.88,2.09,7.56,2.71,9.78,2.91,10.49,15.33,10.16,15.54-.36.03-1.39-1.03-6.54-.7-6.89.17-.18,2.26.29,3.01-.65.46-.59-1.58-3.88,1.89-7.93,14.04-16.35,39.64,5.62,21.37,21.38,0,1.67,6.6,7.97,7.69,9.74ZM304.54,469.25c1.72.14,3.84.19,4.46-1.77,1.03-4.63-.7-10.77-6.26-11.22-6.81-.54-11.86,8.65-5.89,6.99,1.66-.46,2.62-5.29,6.36-3.55s.93,9.17,1.33,9.55ZM228.93,471.88l.52-2.21c-3.48-4.7-13.99-4.1-13.71,3.18.15,3.93,6.81,10.81,7.91,4.32-3.19-.48-5.88-3.66-3.6-6.62,2.94-2.5,7.75,2.06,8.88,1.32ZM295.85,489.75c-6.38.72-4.24,10.07,2.29,8.31,3.87-1.04,3.46-8.95-2.29-8.31ZM245.21,495.67c-4.25.88-3.77,9.7,2.83,7.48,4.45-1.5,2.84-8.65-2.83-7.48Z" fill="#fff"/>
  <path d="M463.65,503.76c-.49-5.15-3.61-15.76-6.79-19.84-.68-.88-8.78-6.8-7.68-8.09,7.74-1.43,21.65-2.24,25.9-9.93.97-1.76,3.06-9.78-.59-9.8-2.53-.01-1.39,5.2-1.95,7.26-2,7.36-18.15,7.9-24.16,9.37-5.39,1.31-11.64,2.63-16.8,4.24-12.26,3.83-23.52,13.71-19.88,27.77l-7.23,1.32c0-.99-.04-1.99-.04-2.98.05-14.94,6.35-31.25,9.25-45.66,7.04,2.1,16.15,2.03,22.93-1.06,3.29-1.5,7.8-6.94,9.79-7.36,1.64-.34,6.89,1.5,10.37,1.21,8.96-.73,18.24-7.78,19.44-17.04,6.58,1,10.72-2.47,16.33-4.66,1.57,4.2,4.07,9.02,7,12.42s9.97,7.23,11.82,9.87c2.88,4.12,5.46,17.41,5.57,22.69.51,22.94-15.15,38.92-36.18,45.4-1.7.52-17.11,4.57-17.11,1.96-.38-5.53.51-11.65,0-17.09Z" fill="#fff"/>
  <path d="M514.03,377.47c11.07,13.09,10.12,22.36,16.87,36.7,7.53,16,21.56,23.82,20.17,44.22-1.06,15.61-17.48,27.73-32.2,29.26,2.13-10.69,1.35-21.82-1.98-32.2,7.13,3.34,12.63,11.29,14.56,18.95l2.52.11c-.38-16.51-17.82-22.65-27.93-32.22-17.9-16.95-17.94-47.35-14.04-69.23.77-4.34,1.89-8.57,2.53-12.92,1.01-.21,1.52.15,2.33.63,3.01,1.79,14.47,13.53,17.15,16.7Z" fill="#fff"/>
  <path d="M525.07,328.32c2.77,5.67,4.67,10.79,5.55,17.12.15,1.1,2.18,16.07-1.22,14.04-24.33-30.33-65.32-49.83-103.64-55.13-4.1-.57-9.04-.27-13.08-.74-.58-.07-2.21.4-1.62-.98,1.39-3.27,15.6-10.27,19.37-11.54,35.01-11.78,78.15,3.44,94.65,37.21Z" fill="#fff"/>
  <path d="M525.82,387.39c-3.51-3.06-8.07-11.01-11.79-15.18-23.42-26.19-71.05-55.02-107.24-51.49-15.06,1.47-15.25,8.45-22.03,19.7-7.48-22.7,12.06-34.41,32.56-33.54,36.15,1.52,93.01,28.16,113.26,58.98,4.37,6.64,8.46,18.49-1.47,22.61-2.79,1.16-1.77.25-3.29-1.07Z" fill="#fff"/>
  <path d="M364.28,425.99c.34,5.16,2.74,12.41,7.36,15.3,6.27,3.92,10.82-2.68,16.21,3.29l-11.4,39.18c-20.87,2.68-39.55-5.42-45.94-26.33-2.92-9.56-3.63-19.45.65-28.9,9.19,6.11,22.85,3.59,31.22-2.94l1.89.4Z" fill="#fff"/>
  <path d="M374.89,487.66l-2.72,25.55-47.91,7.31c3.79-12.59,3.64-24.69-2.72-36.38-2-3.67-4.56-5.82-6.46-9.31,8.13-7.36,7-17.16.03-24.87,9.28-4.89,5.83-23.56-4.9-22.74-2.6.2-6.82,3.04-9.27,2.63-6.97-7.25,1.31-4.68,5.72-5.46,5.96-1.05,11.04-4.68,15.61-8.37-.36,3.29,4.89,8.19,5.1,10.28.15,1.47-1.53,4.04-1.74,5.89-2.83,24.81,8.11,55.48,37.74,55.48h11.51Z" fill="#fff"/>
  <path d="M178.6,336.21c6.27,18.22-16.46,32.88-32.85,34.43-11.61,1.1-24.37-.96-28.61-13.44-10.52-31.03,51.47-50.01,61.45-21ZM158.69,342.95c4.53,2.83,7.32-6.78,3.38-7.71-3.21-.75-4.11,5.49-3.38,7.71ZM142.24,337.23c-3.78,2.39,4.52,9.8,6.82,5.83s-4.94-7.02-6.82-5.83ZM139.43,354.32c-.36-.25-2.06-.25-2.44,0-2.8,9.61,9.62,14.24,15.87,7.59.14-4.52-3.88-.79-5.82-.5-8.72,1.34-6.04-6-7.6-7.1Z" fill="#fff"/>
  <path d="M322.05,351.18c4.68,4.44,11.95,16.93,10.49,23.43-.43,1.91-3.61,5.43-3.16,8.39-16.83.57-8.38,18.11-9.01,27.43-.43,6.33-14.84,11.6-20.43,10.84,12.1-23.91,1.46-55.43-21.69-68.02,11.36-12.27,31.46-13.78,43.81-2.07Z" fill="#fff"/>
  <path d="M352.99,379.4c1.22,1.62,4.37,13.83,4.04,15.75-.73,4.29-10.13,4.94-11.57,13.46-.26,1.53-.58,7.4,1.48,7.39,2.35-.02,1-4.73,1.24-5.92,1.58-7.73,9.36-6.76,11.69-13.67l2.51-.11c-1.27,5.56-.57,10.11.55,15.53.17.84,1.28.88,1.39,1.38,1.46,6.41-5.66,11.69-11.16,13.64-23.25,8.22-31.47-12.97-30.93-32.19.4-14.18,10.49-5.57,10.21,3.64l2.98.63c1.61-1.6-8.13-21.55,1.94-20.72,6,4.22,4.67,10.65,6.94,16.77,6.88,2.18-4.93-19.28,3.87-18.4.96.1,4.29,2.16,4.79,2.83Z" fill="#fff"/>
  <path d="M410.25,456.24l-10.04,51.15-24,5.25c1.31-12.33,2.86-24.71,5.56-36.82,2.31-10.31,5.73-19.58,8.97-29.5,1.97,1.1,9.79.61,10.45.89.99.41,5.49,9.04,9.06,9.03Z" fill="#fff"/>
  <path d="M524.78,591.52c-3.34,16.01-9.93,31.04-18.72,44.71l-33.21,11.16c6.06-14.97,13.77-29.23,16.77-45.34l35.16-10.53Z" fill="#fff"/>
  <path d="M456.01,491.35c.1.21.94.34,1.25,1.07,1.37,3.32,3.92,16.04,1.8,18.58-5.87,3.77-11.98-.12-18.12.28-3.25.21-12.72,4.74-14.78,2.34-3.37-9.61,12.22-9.86,11.84-17.43-.98-1.12-16.42,9.11-15.2,13.05-3.21.78-3.96-.37-3.88-3.49.13-5.25,8.43-11.89,12.18-15.49l-.65-2.6c-5.7,4.05-12.26,8.66-14.15,15.76-4.47-.9-1.97-7.63-.77-10.31,3.98-8.97,20.78-17.24,30.18-14.15,4.25,1.4,8.42,8.55,10.3,12.38Z" fill="#fff"/>
  <path d="M188.17,519.86c-29.9-2.58-59.84-7.59-88.76-15.45l-.55-1.17,4.24-9.62c23.56,13.16,53.22,13.07,78.18,3.99,4.6,6.48,5.54,14.67,6.89,22.25Z" fill="#fff"/>
  <path d="M490.18,657.48c-11.93,13.78-25.61,25.45-44.28,28.68l24.11-34.89,31.77-9.8c-2.11,6.51-7.31,11.07-11.59,16.01Z" fill="#fff"/>
  <path d="M272.8,454.3c.74.6,1.03,2.11-.24,2.37-11.37-.09-23.21.08-33.55,5.21-1.71.06-5.41-4.76-7.64-5.91-7.33-3.8-15.65-1.55-22.15,2.76l-1.32-17.09c2.53,1.26,9.01-3.37,10.09-3.18.4.07,4.01,3.09,5.45,3.75,10.57,4.85,21.82,6.7,33.41,4.67,3.17,3.27,13.31,5.27,15.96,7.41Z" fill="#fff"/>
  <path d="M213.14,486.37c-6.2,11.16-7.92,23.76-4.59,36.12l-16.41-1.98c-.33-8.51-3.91-16.24-6.96-24.33,8.83-3.73,15-10.36,19.77-18.37,1.75,3.6,4.3,7.1,8.2,8.57Z" fill="#fff"/>
  <path d="M143.7,265.07c4.16-4.86,13.32-10.51,19.82-10.79,11.88-.52,15.58,9.5,9.67,18.91-3.38,5.39-17.39,15.08-21.56,6.08.32-3.05,12.51-11.36,12.22-12.77-.72-3.63-8.97,3.7-9.88,4.57-2.14,2.03-3.36,4.83-5.55,6.8l-8.83-4.91c-.4-1.35,3.11-6.7,4.12-7.88Z" fill="#fff"/>
  <path d="M73.19,319.47c17.46-1.39,15.09,21.36.31,23.47-5.34-6.94-2.42-15.88-.31-23.47Z" fill="#fff"/>
  <path d="M130.63,240.22c9.94-.52,10.59,12.79,1.94,14.06-10.76,1.57-11.98-13.53-1.94-14.06Z" fill="#fff"/>
  <path d="M87.28,255.94c-6.95-7.98,8.78-15.2,12.72-7.79,4.38,8.22-6.53,14.9-12.72,7.79Z" fill="#fff"/>
  <path d="M282.45,495.95c1.14,1.44,2.76,2.15,2.36,4.86-7.08-1.66-14.63-.24-21.69.65,2.08-10.89,12.1-14.67,19.33-5.51Z" fill="#fff"/>
  <path d="M54.71,417.33l3.2-18.02c14.98.19,8.5,17.53-3.2,18.02Z" fill="#fff"/>
  <path d="M259.43,463.1c.11.25.93.1,1.1,1.19.61,3.73-.37,13.24-6.16,11.42-3.3-1.04-3.89-10.42-4.98-13.3l8.12-2.38,1.35.69c.24.8.21,1.61.57,2.39Z" fill="#fff"/>
  <path d="M367.66,418.64c.97.46,6.28,3.08,6.46,3.4.5.87-.1,5.79.66,8.18.37,1.17,5.42,7.57,5.38,8.46-5.55,4.52-12.5-5.37-12.5-9.85v-10.19Z" fill="#fff"/>
  <path d="M278.72,460.89c2.23,1.77,3.14,12.65-.15,13.04-7.24-.12-4.77-9.22-7.57-13.54.67-1.55,6.8-.22,7.72.5Z" fill="#fff"/>
  <path d="M102.62,273.29c-1.46.06-4.3,3.01-5.5,1.4l-2.97-12.48,4.93-.02,3.54,11.1Z" fill="#fff"/>
  <polygon points="131.63 257.6 132.28 270.75 126.45 269.07 128.26 257.99 131.63 257.6" fill="#fff"/>
  <path d="M69.82,342.4c.95,4.78,1.43,10.26-3.27,13.15.31-3.54.47-7.95,1.53-11.31.36-1.16.02-2.2,1.74-1.84Z" fill="#fff"/>
  <path d="M460.35,514.61v5.58c-.89,2.89-7.44-5.86,0-5.58Z" fill="#fff"/>
  <path d="M283.5,455.46c0,4.43-8.76,2.05-6.57,0h6.57Z" fill="#fff"/>
  <path d="M168.21,301.87c1.78,2.92,9.58,22.17,8.12,24.1-26.83-21.88-83.18,7.2-56.85,42.05-8.83-3.58-17.94-7.36-25.09-13.73-7.96,4.16,10.36,9.59,10.95,11.59l-2.64,33.04c-26.88-8.86-37.2,30.53-11.17,37.48-6.38,18.47-6.55,40.51,8.3,54.87-2.54,3.83-4.08,7.6-5.02,12.17l-47.95-16.47c-1.16-1.33,1.47-30.91,1.95-35.12,1.21-10.67,3.24-20.27,5.03-30.45.45-.87,5.75-1.66,7.45-2.43,11.69-5.34,11.54-22.04-1.99-23.63-.53-.31-.58-.81-.67-1.35-.21-1.37,3.95-24.64,4.68-27.43.08-.31,2-5.33,2.27-5.74,1.35-2.08,4.89-2.61,6.61-6.54.86-1.96,1.46-7.51,1.71-7.82.18-.23,4.48-1.33,5.59-1.97,14.44-8.36,12.63-27.55-5.03-29.05l7.88-18.04c-1.79-2.15-4.5-.13-6.9-.28-8.64-.56-17.14-5.03-21.64-12.61-7.95-13.4,5.83-17.78,17.52-16.2,4.52.61,14.58,5.33,17.93,8.36,1.49,1.35,3.6,6,5.26,5.97,8.4-8.85,23.01-11.27,34.65-9.05,14.13,2.69,31.65,16.1,39.07,28.3ZM65.94,281.21c4.08.86,8.15,2.3,11.8,4.3,1.69.93,10.41,8.84,11.15,5.27.32-1.56-10.13-8.73-12.04-9.64-2.77-1.32-12.35-5.83-10.91.06ZM159.07,313.3c3.28-2.79.29-8.72-4.41-6.72-4.97,2.12-.3,10.71,4.41,6.72ZM109.75,312.31c-3.67,1.11-2.84,7.34-.44,9.35,5.99,5.03,9.72-12.15.44-9.35ZM78.86,367.52c-13.34,2.13-12.57,23.85,3.06,22.15s12.41-24.62-3.06-22.15ZM63.09,434.58c-12.58,2.23-11.18,24.26,4.94,22.02s13.22-25.24-4.94-22.02Z" fill="#fff"/>
  <path d="M407.76,131.4c-2.86-5.38,5.14-9.67,5.82-12.31.33-1.29-.74-4.25-.57-6.41.4-5.18,3.92-9.79,7.24-13.47-36.45-15-81.7-4.56-107.81,24.64,10.61,3.3,19.65,11.48,19.05,23.34,13.15-2.63,27.93,2.69,29.5,17.5,2.46,23.2-26.96,32.59-43.6,20.59-11.78,12.85-30.53,16.3-42.87,2.12-3.65.73-5.46,3.99-8.57,5.68-8.33,4.52-22.43,4.8-30.81.15-3.81-2.11-5.74-6.25-9.2-8.59-4.33,1.12-7.88,4.08-12.47,4.62-44.29,5.26-39.98-53.84,2.23-45.43.53-6.47,3.54-11.54,6.64-17.01-8.53-.7-16.07-3.76-22.68-9.18-12.19,14.68-39.58,14.05-51.29-.68h-.96c-11.7,14.91-36.88,13.89-49.69.62-11.69,8.47-32.5,9.44-41.98-2.66-13.39-17.07,5.54-35.61,23.92-32.82,2.02-20.73,26.82-29.2,43.4-18.39,6.51-37.18,64.18-37.79,75.28-3.3,14.02-11.51,40.03-7.74,44.22,11.68.38,1.77-.38,6.31.78,7.11,14.99-.24,28.3,10.71,23.06,26.58,11.28-12.15,23.16-23.87,37.51-32.5,43.12-25.92,100.32-31.67,145.59-7.59l5.27-7.87c6.08-1.19,8.93,3.6,11.83,7.87,7.84-11.45,18.24,1.28,19.4,10.52.49.43,6.13-5.74,11.45,1.36l3.32,6.52c12.91-11.45,21.04-27.13,29.91-41.75,16.03-8.62,14.7,14.28,9.88,23.34,20.67-5.52,12.4,19.85,4.61,28.61,17.9,3.75.48,25.34-9.21,28.6-.26,1.88,1.54,1.37,2.54,3.03,4.36,7.25-5.5,15.01-11.31,18.1-4.88,2.6-11.42,4.39-16.88,5.16,6.6,5.23,14.7,7.72,23.32,7.2,6.99-.41,16.61-4.91,23.3-1.57,9.6,4.79,1.06,13.21-5.21,16.06,10.78,9.61.42,18.73-11.18,16.42-.42.4,2.69,7.87-2.26,10.55-10.51,5.68-29.1-8.21-33.65-17.84-19.28,7.7-45.94,6.87-60.66-9.55-10.3-11.49-7.45-32.29-23.75-40.04-.79-.41-1.44,1.01-1.63,1.01h-10.85ZM191.22,53.41c-17.33-25.31-64.33-17.89-64.92,15.47-1.14,2.16-7.62-3.9-9.34-4.65-15.77-6.86-34.41,4.07-34.61,21.54-9.98-2.01-24.55,2.07-26.69,13.39-3.6,19.04,18.84,25.6,33.22,19.41,2.41-1.03,8.16-6.44,9.52-6.28,5.02,6.29,9.28,9.92,17.41,11.58,13.97,2.85,23.53-2.01,32.58-12.23,2.67,2.35,3.92,5.28,6.97,7.52,10.36,7.62,27.71,8.02,38,.02,2.61-2.03,3.22-4.47,5.66-6.23,2.27-.22,6.2,4.8,8.4,6.09,15.54,9.09,46.09,5.9,54.6-11.4s-6.81-26.35-21.97-24.51c-1.21-.86-.41-7.82-.67-9.84-1.04-8.02-10.35-15-18.19-15.99-10.76-1.36-17.01,3.64-25.45,9.03-1.64-4.57-1.64-8.7-4.53-12.92ZM537.01,66.07c1.73-4.66,5.74-17.94,1.57-21.73l-2.28-.96-2.63,1.26c-11.74,19.99-24.1,38.26-41.72,53.59-8.63,7.51-20.74,13.68-26.85,23.76-1.05,1.73-3.7,11.1-6.08,8.35-1.31-2.81,1.52-4.86,1.4-7.81s-7.4-16.3-9.63-18.7c-14.68-15.81-47.21,1.53-29.63,22.73,2.75,3.31,10.49,7.94,12.53,10.81,4.11,5.79,5.17,19.87,10.05,27.35,10.01,15.34,33.57,19.01,50.2,15.01,2.4-.58,15.8-6.9,16.41-6.27,1.72,1.79-2.77,3.97-2.66,4.91.34,2.8,11.21,12.7,14.04,14.27,4.17,2.31,14.51,6.07,16.18-.5.2-4.65-7.38-4.44-6.53-9.48,1.23-1.2,21.37,6.09,21.09-4.25-.19-6.99-12.14-3.45-8.77-9.57,5.21-1.22,12.03-1.99,13.33-8.27.23-2.89-4.11-3.2-6.25-3.26-8.97-.24-15.78,4.07-26.22,2.27-8.65-1.49-14.59-8.02-20.1-9.48-2.85-.76-13.01.99-8.79-3.48,13.56-.29,34.79-1.95,40.16-16.78-1.5-4.45-4.7-4.1-8.62-3.1l-.97-3.15c7.02-2.69,13.62-5.49,18.2-11.7,1.78-2.41,5.36-8.66,4.67-11.55-1.95-5.28-11.72,3.12-11.81-1.48-.01-.61,6.07-8.17,7.13-9.99.82-1.42,4.41-8.42,4.67-9.27.93-2.96,1.92-9.87-1.94-10.93-3.66-2.85-11.4,7.63-12.8,7.36-3.94-.75,2.09-8.34,2.69-9.96ZM453.12,92.62l-2.95-21.7c-60.29-36.47-145.37-12.64-185.06,43.06,5.84,1.91,11.05,3.56,15.96,7.45,1.58-.05,8.44-10.08,10.35-12.05,39.66-40.97,115.55-54.81,161.7-16.76ZM460.12,62.63c-7.86-6.43-6.56,7.96-6.32,12.57.31,5.98,1.9,9.19,3.21,14.02,2.44,9.05,5.12,18.03,7.63,27.06.72.04,9.09-8.6,10.54-9.82,3.64-3.06,20.52-14.97,21.66-17.79,1.59-3.94-2.77-14.23-7.61-10.23-1.85,1.52-1.35,6.07-4.57,4.7-.62-9.74-14.51-31.21-14.51-8.34l-3.23-.23c-1.69-3.28-3.96-9.62-6.79-11.94ZM456.06,100.86c-7.27-10.88-29.44-20.43-41.84-23.57-39.37-9.96-84.97,2.51-114.95,29.46-3.08,2.77-14.85,14.64-14.35,18.26.09.64,3.46,5.83,4.17,5.76,2.62-1.69,5.71-4.15,8.68-5.15,3.29-1.1,7.15-.8,9.59-1.59,1.9-.61,5.67-6.31,7.68-8.09,26.22-23.19,63.72-33.44,97.83-23.5,2.86.83,9.25,4.46,11.13,4.61,1.06.09,6.3-2.29,9.04-2.48,11.74-.79,22.54,6.07,26,17.1,1.39-.23,0-3.29-.2-4.07-.65-2.61-1.28-4.48-2.79-6.74ZM278.66,123.76c-3.43-2.81-14.89-7.96-19.02-7.35-1.06.16-7.55,5.51-10.35,6.75-7.51,3.34-20.81,2.6-24.97,7.43-3.47,4.03-5.6,12.64-5.25,17.9-6.61-1.29-11.1-2.81-18-1.23-17.14,3.92-21.9,27.08-5.71,35.78,11.23,6.03,23.32,2.2,33.21-4.3,6.67,21,35.68,17.74,46.03,1.45l1.53.67c5.07,16.65,26.7,15.23,36.94,3.46.9-1.04,1.85-4.14,2.42-4.31,2.64-.76,6.52,4.12,9.62,5.42,26.37,11.05,45.67-24.21,22.61-33.77-7.89-3.27-11.68-.94-19.56-.15-.66-7.61-.47-14.06-6.85-19.46-9.73-8.23-24.85-5.19-32.89,3.97-3.56-3.56-5.42-8.69-9.77-12.26ZM415.64,122.86c-1.47-1-4.43,4.57-3.93,5.91l5.91-.66-1.98-5.25Z"/>
  <path d="M432.34,198.85c1.87,1.77,2.79,3.43,4.64,4.86,14.31-8.9,31.19-1.94,32.61,15.08,7.32-.09,13.09.98,18.06,6.6,6.81,7.68,4.52,16.59-2.06,23.6-8.47,9.02-25.67,8.25-35.99,2.65-8.95,10.66-28.57,12.23-38.22,1.37-11.05,13.26-31.12,11.7-42.72.02-4.02,1.74-8.08,3.5-12.53,3.91-35.1,3.21-36.05-39.53-1.6-36.44,2.3-11.82,14.94-14.38,24.96-10.87.97-11.49,14.86-19.43,25.33-20.36,12.47-1.11,18.8,1.32,27.52,9.58ZM432.35,204.77c-8.29-11.99-20.24-15.36-34.44-10.58-9.29,3.12-14.74,10.73-16.81,20.04-6.51-4.75-19.66-4.2-22.68,4.24-.87,2.43.02,5.02-1.91,6.62-24.72-8.74-35.44,25.47-7.51,28.5,8.48.92,14.44-2.08,21.56-5.89,6.55,13.02,27.42,15.15,36.86,3.97,1.17-1.39.78-4.11,3.43-4.47,5.23,5.32,8.22,9.14,16.32,9.75,9.34.7,16.86-3.24,22.34-10.54,10.03,9.51,32.28,8.09,37.27-6.09,5.09-14.44-9.23-20.17-21.2-17.82-.29-10.39-3.58-19.14-15.45-19.45-8.42-.22-12.53,6.49-13.77,6.64-1.87.23-2.56-2.83-4.01-4.91Z"/>
  <path d="M432.38,162.68c.36,1.06,1.8,3.04,1.59,5.16-1.77,6.38-7.59-11.86-8.35-13.2-1.85-3.26-4.11-5.77-7.01-8.09-2.33,3.93-4.38,7.56-8.73,9.67-3.91,1.89-17.01,4.7-15.8-2.61,1.08-6.52,14.53-11.01,20.25-11.34l-7.57-4.74c-6.23,5.88-18.3,13.26-26.88,8.94-7.22-3.64,1.94-10.19,6.16-11.45,2.93-.87,6.7-.51,9.56-.97.84-.13,2.12-.42.98-1.31-2.58.46-5.19-2.91-6.98-3.11-2-.23-7.25,1.43-11.08,1.12-4.65-.37-20.82-6.01-17.11-12.48,1.59-2.77,12.96-.94,15.8-.02,8,2.6,14.03,11.4,22.66,12.51-5.69-6.54-13.15-15.03-8.43-24.19,12.02.02,15.44,16.6,14.66,26.17,12.25,6.49,21.74,16.71,26.28,29.96ZM398.18,114.03c-1.25-1.55-2.66-4.02-4.88-4.31-.88,8.07,4.15,14.21,9.85,19.06-.55-6.08-1.12-9.97-4.97-14.75ZM385.4,128.11c-.25-5.18-19.5-11.42-20.37-7.54,4.15,6.25,13.32,7.97,20.37,7.54ZM380.8,143.89c2.12-.2,4.09.79,6.21.68,2.72-.14,16.83-5.75,14.82-8.57-6.53,1.3-18.69-.08-21.03,7.88ZM414.99,145.87c-7.65-1.08-12.8,3.52-17.75,8.53,6.51,1.72,15.7-1.73,17.75-8.53Z"/>
  <path d="M98.53,220.57c-6.29,5.6-15.45,2.47-14.89-6.66.3-4.87,13.42-25.81,17.38-24.66,1.01.51.91,1.34,1.06,2.26.55,3.44.8,12.17.61,15.79-.18,3.42-1.55,10.94-4.16,13.26ZM98.51,212.02c1.37-5.12,1.09-11.03.58-16.21l-1.64-.65c-2.04,3.72-15.18,20.85-7.89,23.96,2.77,1.12,5.39.21,6.83-2.33.2-.35,2.04-4.52,2.11-4.78Z"/>
  <path d="M127.5,140.72c.73-.19,1.56-.3,2.21.17.84,7.96,3.18,15.88.81,23.91-3.75,12.66-19.92,10.58-17-3.85.74-3.67,11.08-19.46,13.99-20.23ZM120.73,154.03c-2.18,3.72-8.23,15.53.71,15.53,8.33,0,6.65-18.59,5.26-23.69-1.44,2.71-4.56,5.74-5.97,8.16Z"/>
  <path d="M242.67,228.11c1.03,8.36,3.7,39.75-12.8,33.49-11.33-4.3,1.38-24.41,6.29-29.77.9-.98,5.35-5.87,6.51-3.72ZM236.4,236.8c-2.69,2.96-11.69,19.18-5.71,21.34,11.57,4.18,9.71-18.21,9.41-24.2-1.03,1.02-2.77,1.83-3.71,2.86Z"/>
  <path d="M143.7,187.51c.69-.96,7.13-8.82,7.64-9.12.55-.31,1.02-.45,1.65-.31.7.4.81.93.99,1.65.67,2.69.92,15.26.69,18.43-.54,7.55-2.85,15.56-12.15,14.05-12.25-1.98-2.88-19.02,1.18-24.7ZM151.35,185.3c-4.91,1.67-15.93,20.21-9.2,23.33,4.93,2.29,9.2-3.91,9.2-7.88v-15.45Z"/>
  <path d="M195.97,204.46c1.79,8.76,5.08,36.03-10.59,33.29-4.19-.73-4.72-4.35-7.04-6.92v-2.32c2.56-5.78,4.74-11.45,8.9-16.86,1.32-1.71,6.89-8.46,8.73-7.19ZM194.09,225.73c.55-3.98,0-10.17,0-14.46,0-.08-.95-1.31-1.32-.67-3.88,3.16-14.68,18.95-8.27,22.73,5.33,3.14,8.97-3.15,9.58-7.6Z"/>
  <path d="M63.45,176.57c-4.78-6.64,6.26-22.35,10.97-27.56,1.01-1.12,3.36-3.7,4.93-3.8,1.67.51,1.89,18.3,1.67,20.72-.55,6.12-2.87,13.85-10.27,14.07-1.79.05-6.34-2.09-7.31-3.43ZM77.71,151.78c-1.22,0-3.12,2.21-3.84,3.06-2.83,3.34-12.32,18.91-4.88,21.13,11.72.94,9.3-16.59,8.72-24.18Z"/>
  <path d="M282.45,215.14c1.29-1.66,6.32-9.11,7.94-5.5,1.22,2.71,1.99,17.35,1.68,20.71-1.53,16.32-18.68,15.44-17.8,1.92.35-5.4,4.9-12.89,8.18-17.13ZM282.42,220.36c-2.39,3.6-8.88,17.29-1.24,18.22,9.99,1.22,7.72-17.01,6.61-23.06-.66-1.22-4.99,4.27-5.37,4.84Z"/>
  <path d="M527.97,259.04c3.96,6.49,15.37,30.75.46,31.31-9.83.37-10.35-9.7-9.26-17,.25-1.7,4.13-13.26,4.89-14.02.84-.84,2.79-.47,3.91-.29ZM527.39,264.19c-3.87-2.43-5.61,14.82-5.24,17.42.83,5.86,8.56,7.86,10.24,2.32,1.93-6.37-2.88-13.97-5-19.74Z"/>
  <path d="M488.46,704.75c12.73,19.85,43.21,22.22,62.19,10.23,1.59-1.01,12.33-12.44,12.19-6.9-18.3,22.93-56.66,23.32-75.85,1.11-18.16,28.24-62.36,31.84-85.47,7.89-22.21,26.54-64.22,29.37-89.41,5.23-11.07,9.71-25.49,17.02-40.75,15.78-1.44-.12-11.95-2.42-12.21-2.99-.17-.38.02-1.59.13-2.17.93-1.46,8.79,1.09,10.77,1.21,10.86.63,20.63-1.15,29.99-6.8,2.67-1.61,10.68-9.63,11.42-9.69,3.1-.27,2.81,1.93,4.57,3.4,6.13,5.14,11.44,9.2,19.28,11.62,24.42,7.52,50.87-.57,66.31-20.81,5.71,6.6,11.71,11.69,20.11,14.59,23.96,8.27,51.4.53,63.92-21.94l2.82.25Z"/>
  <path d="M143.68,760.89c17.41,19.56,49.02,23.4,71.11,9.4,5.13-3.25,8.82-8.37,13.87-11.17.81.04,5.26,6.84,6.83,8.26,1.27,1.15,7,5,8.61,5.85,16.86,8.89,37.49,5.49,51.22-7.27l2.59,1.96c-19.46,19.78-52.39,17.39-69.95-3.56-7.12,5.42-13.05,10.78-21.69,13.86-23.6,8.4-51.99,2.11-67.68-17.74-17.87,19.04-44.55,25.67-68.55,13.9-1.24-.61-17.51-10.58-11.05-11.95,19.88,18.12,46.75,19.11,68.34,3.26,2.09-1.53,10.76-10.06,11.51-10.25,2.58-.64,3.58,4.06,4.84,5.46Z"/>
  <path d="M488.08,758.57c-20.45,25.95-61.53,30.2-85.91,7.11-4.89,3.2-8.69,7.63-13.89,10.46-13.69,7.45-35.37,8.91-48.82.33-1.12-.71-7.41-5.18-3.68-6.16.64-.17,9.26,5.42,11.5,6.23,15.6,5.7,34.08,2.16,46.68-8.53,1.8-1.52,6.48-7.81,8.22-7.97,2.63,1.06,3.54,4.28,5.91,6.32,21.37,18.37,52.93,12.5,72.65-4.92,2.25-1.99,6.51-8.32,8.87-8.3s4.27,4.55,6.22,6.34c13.97,12.87,37.07,14.05,53.22,4.51,1.99-1.18,6.87-8.36,6.96-1.59-14.65,14.51-40.16,14.74-57.07,3.82-2.32-1.5-8.86-8.68-10.87-7.65Z"/>
  <path d="M361.03,573.16c.18.95.26,2.32-.57,2.94-.53.39-11.29,1.99-12.95,2.17-2.47.27-11.16,1.09-13.09.78-2.54-.41-3.06-1.51-1.64-3.68l28.25-2.22Z"/>
  <path d="M173.62,625.11l.56,1.59c-.09.47-.71,1.09-1.14,1.28-3.23,1.41-29.64-2.85-34.85-3.91-2.73-.56-13.39-1.67-7.04-4.78l42.47,5.82Z"/>
  <path d="M63.09,434.58c18.16-3.22,20.25,19.9,4.94,22.02-16.12,2.23-17.52-19.79-4.94-22.02ZM63.73,437.86c-9.75,2.01-7,18.77,5.46,15.31,8.55-2.37,6.9-17.86-5.46-15.31Z"/>
  <path d="M78.86,367.52c15.47-2.47,19.05,20.41,3.06,22.15s-16.4-20.02-3.06-22.15ZM87.34,383.57c7.54-9.35-8.12-18.03-13.86-8.92-5.62,8.93,7.9,16.31,13.86,8.92Z"/>
  <path d="M65.94,281.21c-1.44-5.89,8.14-1.39,10.91-.06,1.91.91,12.36,8.08,12.04,9.64-.74,3.57-9.46-4.35-11.15-5.27-3.65-2-7.72-3.45-11.8-4.3Z"/>
  <path d="M109.75,312.31c9.28-2.8,5.55,14.38-.44,9.35-2.39-2.01-3.23-8.24.44-9.35Z"/>
  <path d="M159.07,313.3c-4.7,4-9.38-4.59-4.41-6.72,4.7-2.01,7.69,3.93,4.41,6.72Z"/>
  <path d="M259.27,410.66c-1.67-2.61,6.42-6,8.6-6.66s10.05-2.52,10.97.58-6.79,1.82-9.3,2.41-9.01,5.63-10.27,3.67Z"/>
  <path d="M239.28,399.05c5.01-.54,6.14,8.77.39,8.9s-6.03-8.3-.39-8.9Z"/>
  <path d="M282.67,389.18c5.08-.65,7.11,8.09,1.11,8.42-5.46.31-6-7.79-1.11-8.42Z"/>
  <path d="M179.45,467.46c3.22,3.46-3.11,12.22-6.61,13.75-7.68,3.35-11.28-1.97-13.82-1.48-.54.1-.71,1.48-1.5,1.92-4.65,2.58-7.62,3.79-13.19,2.2-7.67-2.19-11.64-16.32-6.46-14.58,1.72.58.32,10.75,9.29,11.74,8.18.9,12.5-5.56,11.14-13.11-16.67-.39-24.37-17.14-10.18-27.84,12.64-9.53,29.78,4.57,25.39,18.82-2.81,9.13-12.23,4.77-12.33,13.99-.04,3.69,1.05,5.63,5.02,6.21,7.33,1.07,10.66-5.36,10.44-11.81l2.81.2ZM168.21,445.83c-8.46-10.05-23.07-5.42-23.43,7.65,8.42-1.93,17.01-2.22,25.64-1.97.25-2.12-.9-4.12-2.21-5.68Z"/>
  <path d="M105.33,416.67c-1.32,1.36-8.06-5.67-11.22-1.03-4.06,5.96,8.49,7.24,4.67,9.93s-11.86-6.89-7.27-12.53c3.15-3.87,14.52-2.61,13.82,3.63Z"/>
  <path d="M194.66,406.24c-1.98-1.25-7.38,1.68-8.18,3.81-3.56,1.71-1.75-5.45,3.65-6.86,12.98-3.38,8.84,14.74,3.65,14.2-4.42-.46,5.1-8.48.89-11.14Z"/>
  <path d="M178.12,437.19c6.63-2.12,8.34,6.87,3.49,8.14-5.93,1.55-6.99-7.02-3.49-8.14Z"/>
  <path d="M124.59,450.65c-4.71-3.68,2.39-10.12,6.11-5.77,3.29,3.84-2.2,8.84-6.11,5.77Z"/>
  <path d="M409.27,405.97c4.45,5.09,13.31,5.69,18.72,1.68,1.46-1.08,3.83-6.3,6.07-4.12s-4,6.91-5.71,7.77c-10.14,5.12-21.87,2.76-23.93-9.31,3.33-2.81,3.72,2.69,4.85,3.98Z"/>
  <path d="M474.82,361.46l-2.65-.31c-1.27-4.54-4.34-8.29-8.31-10.76-1.63-1.01-9.88-3.16-8.11-5.36,8.73-.82,19.61,7.09,19.06,16.42Z"/>
  <path d="M417.57,338.41c-3.24-.01-5.95-1.08-9.32-.45-3.88.72-5.45,4.96-9.01,3.76-2.06-3.75,8.09-7.66,10.93-7.82,2.65-.15,9.34.98,7.4,4.51Z"/>
  <path d="M402.17,359.78c1,0,2.86.77,3.31,1.68,1.63,6.16-4.47,8.88-8.59,4.59l-.04-2.65c.5-1.59,3.71-3.61,5.32-3.62Z"/>
  <path d="M453.61,374.12c4.23,3.56-1.98,10.25-5.45,6.43s1.03-10.15,5.45-6.43Z"/>
  <path d="M304.54,469.25c-.4-.38,2.32-7.85-1.33-9.55s-4.71,3.09-6.36,3.55c-5.96,1.66-.91-7.54,5.89-6.99,5.56.44,7.28,6.58,6.26,11.22-.62,1.96-2.74,1.91-4.46,1.77Z"/>
  <path d="M228.93,471.88c-1.13.74-5.94-3.83-8.88-1.32-2.28,2.96.42,6.14,3.6,6.62-1.1,6.48-7.76-.4-7.91-4.32-.27-7.28,10.23-7.88,13.71-3.18l-.52,2.21Z"/>
  <path d="M295.85,489.75c5.75-.64,6.15,7.26,2.29,8.31-6.53,1.76-8.67-7.59-2.29-8.31Z"/>
  <path d="M245.21,495.67c5.67-1.18,7.29,5.98,2.83,7.48-6.6,2.22-7.08-6.59-2.83-7.48Z"/>
  <path d="M139.43,354.32c1.56,1.1-1.12,8.43,7.6,7.1,1.94-.3,5.97-4.02,5.82.5-6.24,6.66-18.66,2.02-15.87-7.59.39-.25,2.08-.26,2.44,0Z"/>
  <path d="M142.24,337.23c1.88-1.19,9.07,1.95,6.82,5.83s-10.59-3.44-6.82-5.83Z"/>
  <path d="M158.69,342.95c-.72-2.22.17-8.46,3.38-7.71,3.94.92,1.14,10.53-3.38,7.71Z"/>
  <path d="M191.22,53.41c2.89,4.22,2.89,8.35,4.53,12.92,8.44-5.39,14.69-10.39,25.45-9.03,7.84.99,17.15,7.97,18.19,15.99.26,2.02-.54,8.98.67,9.84,15.16-1.84,30.14,7.93,21.97,24.51s-39.06,20.48-54.6,11.4c-2.2-1.29-6.14-6.31-8.4-6.09-2.44,1.77-3.04,4.2-5.66,6.23-10.29,8-27.64,7.6-38-.02-3.05-2.24-4.3-5.17-6.97-7.52-9.05,10.22-18.61,15.08-32.58,12.23-8.13-1.66-12.39-5.3-17.41-11.58-1.36-.15-7.12,5.25-9.52,6.28-14.38,6.19-36.82-.37-33.22-19.41,2.14-11.32,16.7-15.4,26.69-13.39.2-17.47,18.84-28.4,34.61-21.54,1.71.74,8.2,6.81,9.34,4.65.59-33.36,47.59-40.79,64.92-15.47Z" fill="#fff"/>
  <path d="M537.01,66.07c-.6,1.62-6.63,9.21-2.69,9.96,1.4.27,9.14-10.21,12.8-7.36,3.86,1.06,2.87,7.97,1.94,10.93-.27.85-3.86,7.86-4.67,9.27-1.05,1.82-7.14,9.38-7.13,9.99.09,4.59,9.86-3.8,11.81,1.48.7,2.89-2.89,9.14-4.67,11.55-4.58,6.21-11.18,9.02-18.2,11.7l.97,3.15c3.92-1,7.13-1.35,8.62,3.1-5.36,14.83-26.6,16.49-40.16,16.78-4.22,4.47,5.95,2.72,8.79,3.48,5.51,1.46,11.45,7.99,20.1,9.48,10.44,1.8,17.25-2.51,26.22-2.27,2.15.06,6.48.37,6.25,3.26-1.29,6.28-8.12,7.06-13.33,8.27-3.37,6.12,8.59,2.58,8.77,9.57.27,10.34-19.86,3.05-21.09,4.25-.85,5.04,6.73,4.83,6.53,9.48-1.68,6.57-12.02,2.81-16.18.5-2.83-1.57-13.71-11.47-14.04-14.27-.11-.94,4.38-3.12,2.66-4.91-.61-.63-14.01,5.69-16.41,6.27-16.62,4-40.19.33-50.2-15.01-4.88-7.48-5.94-21.56-10.05-27.35-2.04-2.87-9.78-7.49-12.53-10.81-17.58-21.19,14.95-38.54,29.63-22.73,2.23,2.4,9.52,15.75,9.63,18.7s-2.71,5-1.4,7.81c2.38,2.74,5.03-6.62,6.08-8.35,6.12-10.08,18.23-16.26,26.85-23.76,17.62-15.33,29.98-33.6,41.72-53.59l2.63-1.26,2.28.96c4.17,3.79.16,17.07-1.57,21.73ZM431.24,115.77c-3.06.98-2.25,6.39,1.21,7.07,7.14,1.41,6.61-9.58-1.21-7.07Z" fill="#fff"/>
  <path d="M278.66,123.76c4.35,3.58,6.21,8.7,9.77,12.26,8.03-9.17,23.16-12.21,32.89-3.97,6.38,5.4,6.19,11.85,6.85,19.46,7.88-.79,11.67-3.13,19.56.15,23.07,9.57,3.76,44.82-22.61,33.77-3.11-1.3-6.98-6.18-9.62-5.42-.57.16-1.52,3.27-2.42,4.31-10.24,11.77-31.87,13.19-36.94-3.46l-1.53-.67c-10.34,16.29-39.36,19.54-46.03-1.45-9.89,6.5-21.98,10.33-33.21,4.3-16.2-8.7-11.44-31.85,5.71-35.78,6.9-1.58,11.39-.05,18,1.23-.35-5.26,1.78-13.87,5.25-17.9,4.16-4.83,17.46-4.1,24.97-7.43,2.8-1.24,9.29-6.59,10.35-6.75,4.13-.61,15.59,4.53,19.02,7.35Z" fill="#fff"/>
  <path d="M453.12,92.62c-46.15-38.04-122.04-24.21-161.7,16.76-1.91,1.97-8.77,12-10.35,12.05-4.9-3.89-10.12-5.54-15.96-7.45,39.69-55.7,124.77-79.53,185.06-43.06l2.95,21.7Z" fill="#fff"/>
  <path d="M456.06,100.86c1.51,2.26,2.13,4.13,2.79,6.74.2.79,1.59,3.85.2,4.07-3.46-11.03-14.27-17.89-26-17.1-2.74.19-7.98,2.56-9.04,2.48-1.88-.16-8.27-3.78-11.13-4.61-34.12-9.94-71.62.31-97.83,23.5-2.01,1.78-5.79,7.48-7.68,8.09-2.44.78-6.3.48-9.59,1.59-2.97,1-6.06,3.46-8.68,5.15-.71.07-4.08-5.12-4.17-5.76-.5-3.63,11.27-15.49,14.35-18.26,29.98-26.94,75.58-39.41,114.95-29.46,12.41,3.14,34.58,12.69,41.84,23.57Z" fill="#fff"/>
  <path d="M460.12,62.63c2.83,2.32,5.1,8.66,6.79,11.94l3.23.23c0-22.87,13.9-1.4,14.51,8.34,3.22,1.38,2.73-3.17,4.57-4.7,4.85-4,9.21,6.29,7.61,10.23-1.14,2.82-18.02,14.73-21.66,17.79-1.45,1.22-9.82,9.86-10.54,9.82-2.51-9.03-5.19-18.01-7.63-27.06-1.3-4.83-2.9-8.04-3.21-14.02-.24-4.61-1.54-19,6.32-12.57Z" fill="#fff"/>
  <path d="M415.64,122.86l1.98,5.25-5.91.66c-.51-1.35,2.46-6.91,3.93-5.91Z" fill="#fff"/>
  <path d="M432.35,204.77c1.44,2.09,2.14,5.14,4.01,4.91,1.24-.15,5.35-6.87,13.77-6.64,11.87.31,15.16,9.06,15.45,19.45,11.98-2.35,26.29,3.37,21.2,17.82-4.99,14.18-27.24,15.6-37.27,6.09-5.48,7.3-13,11.24-22.34,10.54-8.1-.61-11.09-4.42-16.32-9.75-2.65.36-2.26,3.08-3.43,4.47-9.44,11.18-30.3,9.05-36.86-3.97-7.11,3.82-13.08,6.81-21.56,5.89-27.93-3.03-17.21-37.24,7.51-28.5,1.93-1.61,1.04-4.19,1.91-6.62,3.02-8.44,16.17-8.99,22.68-4.24,2.07-9.3,7.52-16.91,16.81-20.04,14.2-4.78,26.15-1.41,34.44,10.58Z" fill="#fff"/>
  <path d="M380.8,143.89c2.35-7.96,14.5-6.58,21.03-7.88,2,2.82-12.11,8.43-14.82,8.57-2.12.11-4.09-.88-6.21-.68Z" fill="#fff"/>
  <path d="M385.4,128.11c-7.06.42-16.22-1.29-20.37-7.54.88-3.88,20.12,2.37,20.37,7.54Z" fill="#fff"/>
  <path d="M414.99,145.87c-2.04,6.8-11.24,10.26-17.75,8.53,4.94-5.01,10.1-9.61,17.75-8.53Z" fill="#fff"/>
  <path d="M398.18,114.03c3.86,4.78,4.42,8.67,4.97,14.75-5.7-4.84-10.73-10.99-9.85-19.06,2.22.29,3.62,2.76,4.88,4.31Z" fill="#fff"/>
  <path d="M98.51,212.02c-.07.25-1.91,4.42-2.11,4.78-1.44,2.54-4.06,3.45-6.83,2.33-7.29-3.11,5.84-20.24,7.89-23.96l1.64.65c.51,5.18.79,11.09-.58,16.21Z" fill="#fff"/>
  <path d="M120.73,154.03c1.41-2.42,4.54-5.45,5.97-8.16,1.39,5.1,3.07,23.69-5.26,23.69-8.94,0-2.89-11.8-.71-15.53Z" fill="#fff"/>
  <path d="M236.4,236.8c.94-1.03,2.68-1.83,3.71-2.86.29,5.99,2.16,28.38-9.41,24.2-5.98-2.16,3.02-18.38,5.71-21.34Z" fill="#fff"/>
  <path d="M151.35,185.3v15.45c0,3.97-4.27,10.17-9.2,7.88-6.72-3.12,4.29-21.66,9.2-23.33Z" fill="#fff"/>
  <path d="M194.09,225.73c-.61,4.46-4.26,10.75-9.58,7.6-6.41-3.78,4.38-19.58,8.27-22.73.37-.64,1.32.59,1.32.67,0,4.29.55,10.48,0,14.46Z" fill="#fff"/>
  <path d="M77.71,151.78c.58,7.59,3,25.12-8.72,24.18-7.44-2.22,2.04-17.79,4.88-21.13.72-.85,2.63-3.06,3.84-3.06Z" fill="#fff"/>
  <path d="M282.42,220.36c.38-.57,4.71-6.06,5.37-4.84,1.11,6.05,3.39,24.28-6.61,23.06-7.64-.93-1.15-14.62,1.24-18.22Z" fill="#fff"/>
  <path d="M527.39,264.19c2.12,5.77,6.93,13.37,5,19.74-1.68,5.54-9.41,3.54-10.24-2.32-.37-2.6,1.37-19.85,5.24-17.42Z" fill="#fff"/>
  <path d="M63.73,437.86c12.36-2.55,14.01,12.94,5.46,15.31-12.47,3.45-15.22-13.3-5.46-15.31Z" fill="#fff"/>
  <path d="M87.34,383.57c-5.96,7.39-19.48,0-13.86-8.92,5.73-9.11,21.39-.42,13.86,8.92Z" fill="#fff"/>
  <path d="M168.21,445.83c1.31,1.56,2.46,3.56,2.21,5.68-8.63-.25-17.21.04-25.64,1.97.35-13.07,14.97-17.7,23.43-7.65Z" fill="#fff"/>
  <path d="M431.24,115.77c7.82-2.5,8.35,8.48,1.21,7.07-3.46-.68-4.27-6.1-1.21-7.07Z"/>
</svg>