<?xml version="1.0" encoding="UTF-8"?>
<svg id="Camada_1" xmlns="http://www.w3.org/2000/svg" version="1.1" viewBox="0 0 595.28 841.89">
  <!-- Generator: Adobe Illustrator 29.0.0, SVG Export Plug-In . SVG Version: 2.1.0 Build 186)  -->
  <path d="M595-.11v843H0V-.11h595ZM590,4.89H5v345c11.87-12.24,35.12-9.26,40.01,8,14.1-8.83,33.93-1.95,30.99,16.99,15.19-3.51,27.73,5.87,24,22,7.21-2.1,14.35-.61,19.51,4.99,1.49,1.62,3.72,7.5,4.97,7.01l27.49-18.48c-3.9-2.7-8.09-20.83-9.95-22.03-4.5-2.9-11.54.02-18.45-8.55-5.04-6.25-3-9.38-5.12-14.88-3.2-8.27-8.74-7.49-6.01-21.1,1.12-5.58,6.65-10.21,7.35-12.65,2.8-9.73-1.22-14.17,9.87-22.13,6.5-4.66,11.8-3.53,16.34-5.66.77-.36,5.71-7.09,8.07-8.93,21.37-16.72,66.5-20.51,90.3-7.44,5.9,3.24,24.26,16.1,28.05,20.95,8.91,11.4,9.1,23.93,5.65,37.48-.55,2.14-3.08,4.51-3.08,5.95,0,2.34,7.39,6.7,5.91,17.89-1.2,9.07-9.77,11.41-10.73,14.26-1.65,4.85-1.08,15.44-3.43,22.57-1.05,3.2-7.42,10.14-4.82,13.14l2.54.65c15.36-27.5,58.54-30.19,83.53-15.04-11.93-64.62,68.23-88.44,113-54l7.02-13.99c-11.22.36-29.06-26.09-11.52-28.03,8.26-.92,16.48,1.79,22.75,7,2.33,1.93,4.28,6.77,7.25,8.01,1.77-.56,6.26-11.89,6.35-13.76.13-2.71-2.59-4.82-2.8-7.86-.9-12.79,20.63-14.51,22.02-1.87,1.07,9.81-4.58,6.5-6.79,11.26-.81,1.75-2,8.49-.29,9.78l11.03,2.02c.91-2.97,6.09-9.3,6.57-11.51.41-1.87-.85-3.65-.52-5.41,3.65-19.78,33.66-4.92,19.01,6.92-2.01,1.63-5.06,1.76-6.13,3.13-.86,1.1-4.79,13.43-3.91,14.32,8-2.36,10.88-6.36,20.45-7.04,37.99-2.68,23.38,28.45-3.46,26.05,5.51,27.1,7.69,54.76,8.01,82.48.53,4.02,4.04,1.46,6.9,1.42-.67-8.56,7.76-13.63,15.58-11.88,4.02.9,4.61,5.31,11.52.97V4.89ZM270.7,332.58c9.85-10.33,6.24-39.37-5.79-48.11-3.66-2.66-7.56-2.88-10.26-4.74-4.74-3.27-6.7-7.11-12.78-10.22-23.53-12.01-60.01-8.24-81.74,6.02,1.04,31.43,29.81,27.22,51.65,19.62,4.48-1.56,18.6-10.19,19.71-10.3,4.33-.41-1.65,3.89-1.43,5.4,2.8,4.51,10.67,4.33,15.21,3.39s6.31-5.82,10.72-5.77c6,15,13.39,29.09,12.02,46,.09.12,2.39-.99,2.69-1.31ZM575,548.89h15v-48c-6.99,20.21-37.28,17.36-37.07-4.51.2-21.16,30.24-23.43,37.07-4.49v-19.5c-10.33-7.47-23.24-8-29.71-20.29-1.75-3.33-4.14-14.48-4.77-15.23-.86-1.02-7.5-1.71-10.47-3.53-13.19-8.07-7.08-26.09,6.8-28.59l-1.86-32.85c-21.78-.83-26.83-27.66-4.94-33.57,3.24-10.56-10.65-8.91-9.97-13.78.55-3.94,21.77-12.29,24.91-6.66l-20.97,6.51c10.23,11.36,47.72-10.28,25.21-17.24-12.85-3.97-22.32.39-31.91,8.59-8.89-.99-3.19-17.74-.4-21.17,1.77-2.17,7.61-1.01,8.88-5.41,3.16-10.92-13.43-11-14.8-3.71-.46,2.45.85,4.72.24,7.15-.84,3.29-7.31,10.06-8.44,14.09l-16.8-1.79c-.58-.58.62-15.36.94-16.38s8.07-1.42,6.86-8.91c-.82-5.08-9.6-5.84-13.36-2.78-4.79,4.67,1.19,9.1,1.34,11.34.06.9-5.07,16.43-5.68,17.1-.92,1.02-5.57,1.16-7.8,2.43-11.43,6.53-12.52,16.63-19.29,24.7-2.64,3.15-9.12,6.13-12.01,9.28-24.74,26.92,20.69,49.55,38.53,30.24,1.18-1.28,7.02-12.97,6.39-5.62-.44,5.16-4.35,6.79-6.92,10.58,10.83-.07,18.02-5.93,25.99-11.98,1.88,6.36-8.19,7.82-8.99,11.49-2.15,9.81.91,28.99-1.06,39.92,26.5,4.39,23.23,34.41-2.7,36.83l-.31,24.32c24.26-1.21,32.61,28.77,8.06,35.44,2.55,11.59,14.38,18.48,23.51,24.99.73.01.5-11.31.79-13.23.25-1.63.15-4.48,2.69-3.77v31c11.2-2.01,21.94-.84,32.98.97l1.03-18.97c5.38-.34,1.93,13.94,2.99,14.99ZM158.99,276.89c-4.53-.32-7.15,3.76-9.97,6.53l5.75,8.2c8.41,13.22-1,30.46-.72,40.61.2,7.16,11.52,31.32,17.42,35.67,7.6,5.61,20.75-9.22,31.16-8.98,5.49.13,18.09,12.37,26.06,2.67,6.93-8.44-6.35-21.56-9.46-29.46-.34-.87-2.14-3.01.28-3.25,2.64-.26,17.32,23.17,14.61,27.86,18.66,4.73,30.75,20.69,31.85-10.39.59-16.69-2.89-37.83-11.98-52.04-2.11-1.25-10.85,3.57-15.26,3.3s-11.51-5.62-13.07-5.55c-1.65.07-11.93,5.51-15.45,6.53-23.16,6.66-49.94,10.87-51.22-21.72ZM266.99,362.9c-2.92-.23-2.96,3.07-5.05,4.43-8.29,5.42-20.03-9.55-28.92-5.92-3.81,1.56-2.94,5.9-11.49,6.52-13.31.96-14.03-8.39-27.52-3.53-11.39,4.11-17.35,15.18-28.44,2.42-4.39-5.05-14.6-27.33-15.4-33.7-.36-2.83,3.27-11.3,3.69-15.87.52-5.73.03-28.01-6.56-30.16-8.14-2.65-21.35,6.52-23.07,14.53-.73,3.4.34,6.93-.68,10.32-.91,3.05-6.33,6.69-7.32,11.68s-1.02,13.72,3.27,17.25c5.08-6.35,15.17-15.91,23-7.98,2.51,26.48,3.05,54.52,26.6,71.4,38.33,27.48,98.85,11.29,97.9-41.4ZM470.42,303.47c2.15,1.17,4.03,3.1,6.25,4.21l5.3-3.29c-5-12.39-38.36-22.63-26.74-.24,1.95,3.76,12.61,11.97,16.28,9.83,6.76-3.94-6.6-12.19-10.51-13.11,3.16-3.67,7.55,1.58,9.42,2.59ZM350,363.39c-.67,4.69.49,10.64,0,15.5,2.89.53,1.62-.79,2.26-2.2,4.09-8.94,6.86-21.93,10.67-31.38,15.35-.54,28.65-6.73,42.06-13.43.09,21.19,26.64,22.84,34.97,36.54,4.41,7.25,2.72,14.9,6.52,22.5,2.76,2.7,10.75-5.17,17.06,2.91,8.2,10.49-2.97,23.82-14.34,24.82-4.23.37-8.78-1.9-11.16-1.26-2.76.75-6.48,6.27-9.59,7.5-4.63,8.04,21.04,15.25,25.42,17.6,15.96,8.58,25.99,25.47,31.14,42.38,5.32-3.74,6.58-13.94,3.86-19.37-1.12-2.24-4.85-3.65-4.96-4.28-.3-1.64,4.37-10.91,4.84-14.1,2.92-20.02-11.31-21.76-12.61-35.89-.9-9.77,3.25-20.33,1.87-30.37-32.25,4.51-52.49-27.9-21.01-47.02-24.33-21.28-66.44-21.01-90.49,1.07-6.15,5.65-15.33,20.28-16.51,28.45ZM141.99,365.89l-4.65-31.89c-23.48,2.52-15.84,31.25,4.65,31.89ZM269,335.39v22c0,.15,1.18,2.59,1.49,2.5,3.45-4.41,7.59-8.38,7.5-14.51-.05-3.73-4.58-14.72-9-9.99ZM402.99,336.89c-11.89,5.15-23.38,11.45-36.89,11.11-5.6,18.38-18.99,39.09-9.08,58.38,11.43,22.25,49.51,27.53,70.09,16.1,2.8-1.55,8.99-9.09,10.61-9.45,1.45-.32,6.47,2.22,10.77,1.87,13.94-1.14,18.36-19.07,8.97-20.98-7.63-1.55-11.84,6.77-15.94-5.04-1.5-4.32-.91-9.03-1.95-13.05-4.67-17.95-34.11-18.41-36.57-38.94ZM546.99,340.9c-18.55,4.61-16.13,27.16,3,27.99l-3-27.99ZM72.01,378.88c5.28-20.44-12.92-27.25-28.44-17.01-4.3-18.42-28.74-22.51-38.54-6.46l-.03,57.47,10.99,4,2.94-15.56c9.92-6.26,13.44,8.08,14.08,15.56,14.52-12.3,29.39-12.3,17,10,24.63-11.25,14.85,11.17,1.01,17.5l41.35,12.45,27.64-47.35c-3.96-11.81-13.55-10.32-24.01-8.6,5.13-18.68-5.88-28.65-24-22ZM504,377.89l-22,2c2.05,10.76-3.57,23.04-1.75,33.26.47,2.66,10.78,19.23,12.38,19.55.95.19,9.18-2.67,9.41-3.48l1.96-51.33ZM370.83,424.06c-.5-.85-11.19-7.14-14.86-12.64-7.63-11.44-1.8-19.58-14.44-26.56-26.04-14.39-77.18-5.21-77.55,31.53l11.53-18.48c2.37-.88.79,4.89,4.51,6.46,7.14,3.01,18.87-2.92,24.47-7.45,3.43,2.35-1.55,5.04-.37,8.26,5.19,6.84,13.74,5.49,20.34,1.72,2.65,12.12,8.82,11.41,19.53,10l2.87,27.43c6.15,1.45,13.95-1.49,16.14,6.58,2.25,1.15,10.76-21.78,7.81-26.83ZM154.82,394.05c-24.22,6.52-56.72,43.64-60.1,68.1-.17,1.2-1.32,1.32.77,2.72,5.94-4.56,14.35-5,21.2-2.17,2.77,1.14,6.23,5.11,7.78,5.18,2.09.09,12.93-7.05,18.41-4.1l4.11-28.9h2.99c1.6,1.72-3.94,26.39-2.86,30.29.47,1.7,4.64,3.64,6.29,5.79s3.35,7.55,3.72,7.78c.45.28,7.57.88,10.4,2.1,6.13,2.66,10.51,9.32,10.46,16.05,14.01,1.93,10.74-8.13,14.89-11.61,2.34-1.97,4.35-.83,5.88-1.63,1.09-.57.17-3.27,4.71-3.84,6.53-.82,10.31,3.9,14.1,4.12,2.1.12,1.47-2.35,3.04-2.88,11.59-3.94,13.22,15.78,16.03,16.76l30.21-5.06c.93-1.48-.12-18.55-1.11-21.11-1.08-2.81-5.56-6.33-7.24-10.76-6.6-17.4,1.16-22.63,3.42-36.55.34-2.11,1.24-18.15,1.05-19.91-1.03-9.97-13.88,4.53-16.65,6.31-28.46,18.25-71.9,10.76-91.51-16.68ZM30.01,426.88c.19-5.29-.76-23.26-7.51-24.02-2.1-.43-1.38.92-1.96,2.02-3.7,7.06-.96,16.95,1.46,24-5.14.24-4.24-6.97-9.04-10.45-1.69-1.23-6.87-3.85-7.84-.88-.15,6.92,4.43,16.83,10.54,20.18,1.58.87,27.15,6.09,28.6,5.95,5.29-.5,16.56-9.6,17.75-15.27-1.16-5.64-16.5,5.01-18.35,5.65-1.45.5-1.15,1.26-2.63-.67,3.93-6.67,9.72-13.37,9.97-21.5-5.37-.28-11.57,3.69-15.04,7.44-2.51,2.71-2.88,7.35-5.94,7.54ZM299.82,405.04c-1.85-.93-19.5,7.36-24.85,1.29-14.18,21.66-26.33,51.01.3,68.79,13.4,8.95,33.44,10.63,48.11,3.64,3.28-1.56,10.56-8.54,11.26-8.67,1.39-.26,7.12,2.25,11.77,1.7,18.93-2.26,20.77-30.98.12-21.9l-1.01-1.03c-3.19-9.34-5.24-19.05-4.53-28.98-6.34,2.04-11.29,1.33-16.02-3.48-1.3-1.32-1.83-4.37-2.04-4.5-.71-.46-9.3,3.35-16.5.04-3.76-1.73-6.19-6.7-6.62-6.91ZM590,406.89c-3.89-.74-4.58,1.3-6.5,3.98-6.07-11.54-20.24-5.02-16.98,7.02l-1.04.98c-2.35-.85-8.14-2.5-8.42,1.42-.23,3.29,2.7,19.44,3.78,23.26,4.62,16.34,14.85,18.46,29.16,24.34v-61ZM552.99,407.9c-15.77,3.95-14.83,24.57,2,24.99l-2-24.99ZM505,419.89l-2.02,27.51c.23,5.2,11.8-.89,13.54-2.49,10.15-9.36,1.8-26.28-11.52-25.02ZM387,429.9l-12.99-4.01v10c3.86-3.27,10.52-1.44,12.99-5.99ZM425.86,428.02c-6.86.7-13.43,3.44-20.38,3.84-6.42.37-21.92-4.31-18.28,8.3,3.84,13.3,38.12,6.76,45.8-1.79l-7.14-10.35ZM9.99,437.88l-4.98-7.99-.02,8h5ZM500.99,433.89l-8.97,2.03c4.25,5.47-4.16,21.48-3.85,23.32s5.69,7.03,5.73,13.03c.05,8.16-6.72,13.52-6.99,17.11s2.42,7.72,2.13,11.47l12.97.54c-5.7-22.46-1.67-44.78-1.02-67.48ZM383,435.88c-14.16.9-14.42,16.7-19.25,26.25-2.08,4.11-6.16,6.56-7.49,10.51-.48,1.44-3.99,17.82-3.85,18.77.12.79,7.52,9.74,8.98,12.59,3.34,6.55.96,14.57,13.15,10.91,4.53-13.28,6.07-25.01,17.46-34.54,24-20.08,70.39-14.03,84.04,15.98,7.09,15.59-.04,28.83,8.96,42.52,8.75-28.34-4.37-77.33-30.97-92.51-3.58-2.04-12.86-6.53-16.65-6.44-2.29.06-15.73,8.73-21.7,10.12-11.9,2.76-32.28,1.55-32.66-14.16ZM5,440.89v97c13.39.42,9.29-4.25,14.57-11.93,1.54-2.25,8.15-7.05,8.34-7.73.54-1.82-2.29-5.62-2.67-8.07-2.52-16.55,13.7-26.71,28.71-25.31.02-19.13,21.95-19.21,35.58-15.11,2.06-3.6,4.19-8.52.04-10.91-5.37-3.09-32.18-9.57-39.73-11.27-5.44-1.22-43.19-8.3-44.84-6.66ZM149.64,471.25c-7-7.48-19.33-5.13-26.11,1.64-8.74-14.02-24.23-11.67-33.01.76-12.53-8.15-37.2-4.02-31.51,15.23-3.93,1.04-5.9-1.31-10.39-.93-17.16,1.47-25.6,16.89-15.71,31.33-15.28,7.86-21.07,27.9-1.94,34.65-9.37,21.52,3.11,31.03,24.07,29.36,1.57,15.9,14.49,21.72,29.38,19.5,3.24-.48,9.23-4.3,10.94-3.99.39.07,3.23,4.4,5.33,5.9,7.33,5.26,15.51,5.58,23.72,2.07,4.29-1.84,10.02-9.44,11.32-9.74,1.68-.39,7.53,2.17,11.78,1.85,7.94-.59,16.18-6.67,18.73-14.29,1.01-3.02.25-6.98,1.26-8.74.34-.6,9.33-4.76,11.53-7.47,6.53-8.04,5.27-20.83-1.97-27.9,14.41-9.02,8.56-27.56-5-34.1,5.7-6.98,3.39-17.21-4.35-21.7-3.24-1.88-12.45-3.19-13.45-4.05-.85-.73-2.27-6.91-4.61-9.4ZM459.65,481.26c-19.55-14.69-54.51-13.14-70.18,6.61-6.75,8.51-15.8,36.77-14.38,47.43.48,3.59,3.39,8.09,3.57,11.22.35,6.15-4.78,14.3,1.33,20.89l19.98-13.02c-28.15-13.92-20.22-38.38-9.48-61.5,12.58-.96,22.94-3.88,33.93-9.97,5.51,14.96,17.36,20.03,32.51,21.02l1.05,19.95c20.43-2.4,14.69,21.31-1.63,22.95-2.81.28-5.49-1.34-7.63-.81-1.83.46-5.4,6.74-8.73,7.37l18.46,10.52,8.52,9.96c-1.62-7.89,13.28-17.09,14.5-20.01,3.99-9.56-3.94-17.75-4.88-26.17-2.11-18.9,1.52-32.57-16.95-46.45ZM352.99,472.9c-7.81,1.03-9.78,4.75-11.99,11.98l8.99,4.01,3-15.99ZM340.93,474.96c-3.74-3.76-14.28,4.65-11.94,6.93l8.98.55,2.95-7.47ZM270,477.39c.17,4.82-.12,9.69,0,14.5l18.01-7.5c-3.93.21-17.96-9.23-19.01-8.49-.26.74.99,1.16,1,1.49ZM503.65,479.98c-3.64,1.35,2.06,25.88,4.27,28.48,5.95,7.02,23.01-12.08,8.83-23.82-2.28-1.89-10.47-5.64-13.1-4.66ZM292.02,484.88c-2.83,18.85,32.14,10.7,33.97-3.99-10.08,5.91-22.66,6.07-33.97,3.99ZM568.74,482.11c-22.26,3.64-9.82,40.45,11.61,26.62,13.96-9.01,4.35-29.23-11.61-26.62ZM221.99,490.88c-.71.88-17.25-13.15-19.51-5.99l7.51,7.99-14.99-5.99c-3.06,5.31,11.91,10.21,8.99,12.99l-11.99-3.5c8.9,15.92,27.34,25.26,43.93,31.48l7.1-20.25c-.32-1.17-8.27-5.16-9.89-7.37-3.68-5.04-1.52-16.11-11.14-16.35v6.99ZM362.89,559.78c-.37-23.8,4.7-59.5-21.51-71.77-17.44-8.16-11.51,1.33-22.5,7.25-9.52,5.12-32.06,7.07-30.88-8.37-12.65,3.77-22.59,10.87-28.88,22.67l10.87,5.34,4.52-10,.48,10.49c20.15,5,40.42-.35,55.52-14.49,1.18,4.22-7.07,9.64-10.36,11.64-23.79,14.48-50.13,6.64-74.08-2.61l-9.48,31.07c36.45,16.11,82.98,20.88,112.91-10.09,3.22,2.4-4.23,8.5-6.03,9.95-20.58,16.64-53.67,17.77-78.48,13.02-2,9.77,5.48,9.27,12.8,10.7,28.35,5.55,57.54,3.23,85.09-4.81ZM453.99,506.9c-14.03-.92-24.84-7.51-31.46-19.87-8.91,5.12-19,8.6-29.38,9-7.21,16.94-16.87,37.18,1.09,51.1,14.02,10.87,43.98,12.75,52.79-5.24,16.12,10.17,32.3-17.2,8.09-15.11l-1.12-19.88ZM264,496.9l-24.99,4.97,16.53,7.78,8.46-12.75ZM186,516.89c2.18,1.14,16.29-.85,20,0-2.63-3.8-7.4-5.77-10.54-8.96-4.64-4.72-5.36-13.97-15.77-7.85-7.63,4.49-.17,7.68,2.83,10.79,1.63,1.69,3.17,5.86,3.48,6.02ZM503.88,505.02l-13.88-1.12c1.34,9.17,2.45,18.88.54,28.04-1.6,7.64-7.09,12.29-4.53,19.96l20.86-6.63c-.17-13.44,1.67-27.58-2.99-40.24ZM372.01,518.89c-.25-.25-5.75-.19-7-.99,2.22,4.68-1.59,14.56,5.99,13-.89-2.17,1.79-11.21,1.01-12.01ZM534.78,541.1c-.42-.85-13.17-8.23-15.8-10.69-3.68-3.44-5.9-8.44-9.97-11.52l1.97,27.52c5.41-1.26,18.23,8.66,21.08,8.07,3.3-.68,3.83-11.16,2.72-13.38ZM210.5,519.89c-6.61-1.05-15.6.77-22.5,0,6.35,7.63-5.66,19.86-5.72,21.48-.03.7,4.61,8.83,4.75,13.08.23,7.09-3.9,14.36-9.02,18.95-1.82,1.63-7.21,4-7.52,4.48-.74,1.15-1,6.7-2.3,9.7-2.84,6.6-8.85,12.16-16.19,13.31v15.5c.6,2.71,10.55-1.14,10.85-1.65.55-.91-.14-3.77.69-5.81,1.15-2.82,4.43-4.08,4.93-5.07,2.06-4.06-1.13-8.08,5.58-12.43,6.45-4.18,9.25-1.02,13.34-1.79,1.75-.33,6.02-5.78,12.11-5.78,3.28,0,6.6,2.65,9.25,2.81,5.89.35,9.61-4.39,17.95.02,3.18,1.68,3.95,4.85,5.35,5.65,1.61.93,4.11.36,5.7,1.3,8.38,4.95,7.42,14.33,8.4,15.1.51.4,11.07,2.06,12.86,2.14,1.03-7.24-6.46-7.88-8.7-14.79-1.26-3.88.04-9.79-.28-10.2-.23-.3-6.44-.8-7.04-2.7l3.6-34.31-14.13-7,2.57-10.99c-7.92-.82-17.49-9.89-24.5-11.01ZM367,533.89v63.5c0,.45,1.16,6.93,1.99,7.49,3.84-12.53.33-23.27,8.8-34.34-7.75-8.03-2.42-15.65-2.84-23.04-.15-2.59-4.04-17.5-7.95-13.62ZM5,540.89v68l23.62-29.48c-6.26-8.06-5.21-15.58-1.66-24.47-7.35-1.68-10.67-7.83-11.01-14.99l-10.95.94ZM261.8,552.07l-11.31-3.16c-3.22.47-3.76,28.26-3.54,32.31l13.04,3.67,1.8-32.82ZM488.99,616.89c-.22-19.29,9.91-38.62,24.11-51.4,2.95-2.65,15.72-7.93,11.26-11.45-10.82-8.55-32.69-4.25-42.83,3.89-7.27,5.83-19.33,26.16-11.65,34.38,1.06,1.14,7.56-.26,10.17,5.04,2.29,4.65.35,8.94-1.88,13.08l10.82,6.47ZM590,551.89h-15c-2.66,3.7,12.52,13.24,13.48,13,3.05-3.23.94-8.9,1.52-13ZM590,649.89v-82l-15.99,5.99c-.58-5.52,6.09-5.37,8.97-8.49-38.49-35.91-95.64,11.12-91.02,56.04.41,3.96,1.49,8.8,4.54,11.44l1.5-1.48,6-11.5c1.16,9.75-5.01,16.1-12.99,20.51-.75,1.65,2.65,1.84,3.56,4.42.68,1.91.43,4.08.42,6.07-2.35-2.67-6.38-8.62-4.99-10.99-1.72,1.49-8.05-.77-8.01,1.49.04,2.04,2.88,18.74,3.52,19.5,18.77,6,40.86-2.13,51-18.97,3.44,1.77-2.48,6.75-2.49,7.48,6.74,1.33,13.38-2.12,17.49-7.48,4.14,4.57-7.63,9.75-11.24,10.74-2.75.76-5.72-.22-8.51.49-9.43,2.4-13.76,11.8-31.21,12.79-3.2.18-14.02-1.55-14.53-1.03-.21.21.11,2.18-.01,2.99,21.29,3.43,48.01-3.71,66.94,8.58l13.07,11.43c.78-12.82,9.33-28.09,24.01-25.99l-.13-8.88c-24.39-5.77-26.66-40.15-18.37-59.1,2.28,1.42,1.07,2.31,1.03,3.98-.2,7.76-2.28,15.02-1.56,23.53,1,11.84,6.02,25.73,19.03,28.47ZM411.27,562.63c6.21,6.25,26.95-2.32,23.72-6.74-2.97,4.87-31.46-1.04-23.72,6.74ZM406.99,556.89c-11.71.42-22.03,9-27.81,18.69-5.3,8.88-6.86,12.17,4.8,15.32.28-1.38,5.44-21.12,8.01-17.99l-5,24.99,27,1.99c-2.41-7.39-1.43-22.24,8.51-23.08,6.57-.55,9.17,5.71,11.13,5.98,1.11.15,2.59-1.88,4.81-1.95,4.68-.14,11.28,3.36,15.03,6.09,4.5,3.27,5.91,9.35,12.53,6.96-2.49-6.23-.28-12.66-2.83-18.68-2.78-6.56-16.74-17.62-23.68-17.42-.78.02-6.07,5.74-9,7.11-9.28,4.33-23.68,5.89-23.51-8.01ZM362.99,562.89c-31.61,9.93-65.94,10.35-97.99,1.99l-1.08,10.34c30.7,11.32,67.41,9.77,98.09-.82l.98-11.51ZM362.99,576.89c-31.19,12.27-68.19,12.47-99.99,2,1.12,9.98-3.05,23.93-.99,33.47,1.51,6.99,22.11,13.43-3.89,23.15l-1.13,47.36c3.23.15,4.14-4.03,6.72-4.79,7.99-2.35,9.18,5.74,8.29,11.79.57.68,9.89-4.99,12.5,0s-2.63,6.07,9.34,4.85l5.99-14.39c-30.67-12.15-20.93-48.35,8.02-53.61,1.1-14.22,19.34-53.55,30.64-22.88,2.28-5.33,15.83-11.85,19-4.98,4.58,9.94-8.97,30.16-17.44,35.65,7.42,13.07,6.36,24.59-1.06,37.34,8.8,1.53,16.66,7.82,21.67,15.08l7.36-2.54-5.03-107.52ZM432.15,605.74c-1.62-7.74,4.49-21.16-5.41-25.09-13.56-5.38-11.99,17-7.17,24.27-7.06,3.41-13.02,6.99-19.1,11.95-2.98,2.44-5.05,6.51-7.51,8.49-5.92,4.76-16.82,7.2-20.15,15.84-9.78,25.34,29.19,40.75,40.69,17.7,1,1.05.67,3.98.26,5.26-.74,2.34-3.9,3.75-4.25,5.75,8.87-1.25,17.45-4.56,24.48-10.01,2.17,5.56-8.64,7.4-9.04,8.64-1.48,4.52,2.4,14.08,1.05,19.37,19.04,1.18,36.3-10.58,49.99-22.5l-4.47-5.41c-3.31,3.2-27.64,16.94-28.57,7.37-1.01-10.31,31.91-11.9,22.05-26.47-.98-.57-10.94,8.81-15.94,6.52-7.76-3.55,11.49-12.05,12.5-14.56l-3.54-7.45c7.91-7.37,22.08-14.47,18.56-27.57-12.12-5.16-21.82,4.65-29.21,12.94l-15.21-5.02ZM5,615.39c-1.42,7.28,1.05,18.72,0,26.5,19.32-45.09,80.79-23.22,61,23.99l14.99,3.01-.98-39.99,2,1.48,2,31.51,10.78-4.2c2.37-10.02,12.05-12.81,21.21-9.8v-21c5.42.04,2.62,18.4,4.01,19.99,7.94-6.41,14.95.51,21.95-3.54,1.97-1.77-4.16-4.52-3.94-8.87.34-6.79,9.84-11.1,10.77-14.31,1.24-4.26-2.06-12.24-.85-17.22-13.51-4.77-11.53.97-19.89,5.5-7.31,3.96-16.85,4.58-24.59,1.48-3.46-1.39-7.91-6.59-9.17-6.88-1.86-.43-13.01,3.92-18.48,3.62-11.49-.64-21.6-8.29-23.93-19.65l-20.4-4.82c-2.91.3-25.66,29-26.48,33.2ZM259.99,587.9l-7.98-1.01c-3.18,3.52,9.78,28.38,7.98,1.01ZM230.11,596.76c-1.28-.68-1.94-7.45-8.86-8.64-7.67-1.32-10,3.38-11.74,3.52-1.18.09-4.11-3.04-6.22-3.52-11.08-2.55-12.71,5.11-14.71,5.45-3.61.62-8.55-2.67-13.52.9-4.27,3.06-2.16,7.61-3.23,10.77-.93,2.75-14.24,7.22-1.34,15.67,9.59,6.28,16.3-3.77,18-3.83.49-.02,5.07,3.62,9.01,3.63,5.97,0,10.01-5.41,10.98-5.51.88-.08,6.06,2.73,9.03,2.7,5.07-.05,8.66-4.48,9.97-4.65,1.96-.25,6.03,2.87,10.8,1.44,7.21-2.17,5.51-14.63-2.01-17.58-3.19-1.25-5.89-.19-6.16-.34ZM450.01,588.89c2.27,2.36-7.85,18.08-3.51,17.98l10.39-10.69-6.88-7.29ZM384,593.9l-8.52-2.03c.31,6.51-5.29,14.27-6.25,19.75-1.58,9.02,1.2,18.27.78,27.27,1.1-2.5,9.47-8.61,9.82-9.67,1.62-4.8,1.5-21.18,2.28-27.72.31-2.61,1.57-5.01,1.89-7.6ZM312,625.89l13.05-.44c1.73-6.77,17.68-24.37,5.92-29.04-10.46-4.16-18.33,21.85-18.97,29.48ZM336.15,633.06c7.62-1.57,25.37-30.87,17.19-34.07-9.6-3.76-24.63,22.93-26.51,30.74-15.19-4.47-36.09,1.86-41.53,17.97-5.15,15.24,7.81,31.35,23.68,29.19-.59,3.38-4.02,3.13-6.44,6.05-7.2,8.71-3.16,16.29-3.66,25.28-.35,6.21-3.82,12.98-6.73,18.38l3.48,4.11c12.7-2.43,11.83-17.03,14.36-26.82,1.76-.25,2.61.46,2.77,2.25.48,5.53-4.25,17.5-5.78,23.29,6.93,9.36,15.09-4.74,17.46-11.58,1.72-4.95.56-10.26,4.04-13.96,4.5,3.53-5.51,22.74-4.49,23.99l11.56-5.96c-5.72-13.95,2.71-26.56,18.43-22.54-2.37,2.39-5.65,1.07-8.73,2.27-9.6,3.72-12.23,14.63-4.28,21.74l-12.97,6.98c53.24,16.92,45.34-49.52,6-57.5,6.97-8.69,9.82-16.31,7.15-27.64-1.15-4.87-4.82-7.41-5-12.18ZM414.99,603.9c-5.07.58-25.52-3.97-28.42-3.08-.49.15-1.75,5.79-1.58,6.05.51.79,16.36,3.27,18.5,3.07,3.59-.34,8.43-4.07,11.5-6.04ZM400,612.9l-15-3.01-1.99,18.01,7.71-3.27,9.28-11.72ZM245.74,612.05c-1.35.34-3.53,2.6-3.54,4.15,4.28,9.32,3.83,15.93,16.32,15.47,6.86-.25,11.69-5.87,7.02-11.81-2.52-3.2-15.98-8.78-19.79-7.81ZM476.53,613.89c-1.41.97-1.59,1.76-1.52,3.41.04,1.03,5.77,18.86,6.48,19.61,2.41,2.54,10.63.57,12.42-2.51-6.08-9.25-4.07-17.39-17.38-20.51ZM182.35,663.53c17.3,14.69,60.74,12.18,63.63-16.16.59-5.82-1.92-24.93-6.47-28.5-.92-.72-10.7-2.2-11.96-2.02-2.03.29-4.16,3.3-8.34,3.79-4.84.57-7.24-1.82-9.74-1.68-2,.11-5.65,3.67-10,3.95s-7.92-2.11-10.02-1.97c-1.76.12-11.29,7.32-16.31,5.09-5.17,12.63-1.11,28.74,9.2,37.5ZM163.82,618.04c-7.2-.88-26.24,11.67-20.9,19.42,5.36,7.78,26.07-2.94,26.73-12.09l-5.83-7.33ZM5,707.89v31c15.51,2.12,24.99,16.4,31.99,28.99-.14-10.59,3.35-20.28,7-29.99-6.03,3.98-19.41,2.23-17.84-7.25.54-3.28,4.71-4.47,4.85-7.74-18.09-5.49-3.82-20.06,9.99-14.01-1.66-17.32,21.44-17.55,19.01,0,16.6-7.42,25.76,14.01,6,15.01-.98.79,6.24,6.4,3.47,12.98-6.92,7.76-14.04,5.21-21.46.02-3.39,10.66-7.84,21.47-7,32.99,4.64-7.84,11.19-15.1,19.77-18.72,3.63-1.53,19.57-6.57,20.25-.78-4.08,17.79-23.41,26.14-39.91,27.62l-.13,11.89h-2.99s-1.05-12.96-1.05-12.96c-13.52-1.98-22.59-11.19-31.94-20.04.75,6.58-1.04,15.27-.06,21.54.55,3.49,3.47,5.09,3.08,8.94-.41,4.07-1.93.19-3.03-.48v49.99s584.99,0,584.99,0v-49c-17.17,5.8-16.58-15.57,0-10v-68.5c0-2.06-14.41-17.8-8.79-1.21.38,1.14,7.4,10.87,3.3,9.7-6.93-1.98-13.8-30.78,3.97-16.98.33-.04,1.51-3.31,1.51-3.51v-32.5c-10.43-3.28-16.5,5.12-19.76,13.74-5.47,14.48.28,20.08,3.29,34.22.97,4.55.72,13.66,1.64,16.36.66,1.92,6.85,4.24,8.77,11.23,1.31,4.76,1.95,21.73-5.2,19.25-8.25-5.74-11.18-13.18-9.65-23.22s4.67-11.47.95-24.17c-.46-1.59,1.02-2.93-2.03-2.41-.13,13.77-5.88,26.76-6.98,40.52-.86,10.66,3.92,42.6-9.5,44.49-15.08,2.13-15.85-5.55-17.53-18.01-1.57-2-4.34,8.57-5.53,9.96-3.75,4.37-15.55,5.39-19.89,1.98-4.8-3.77.02-34.17-.56-40.94-6.59,1.54-17.9-1.62-23.52-1.02-1.93.21-2.09.83-2.48,2.53-1.36,5.94-.34,20.63-1.02,27.97-.4,4.32-1.07,16.16-2.73,19.27-3.19,5.96-26.62,5.61-23.26-6.75-4.31,5.73-18.6,5.71-21.51-.98-1.95-4.48-2.26-23.22-2.52-29.48-.44-10.42,1.24-23.11.06-33.06-.96-8.12-5.75-18.83-6.92-28.08s-1.01-19.18-1.11-28.39c-12.92,3.79-28.14,5.55-41,.5l-9.99-7.01v18c0,.82,1.95,2.21.55,4.51l-9.43,5.3c2.26,1.94,3.7,11.44,4.83,12.23s6.68.69,9.74,2.26c9.72,4.96,6.47,19.73-5.33,21.16-2.53.31-4.96-1.16-6.67-.8-3.95.85-12.01,10.04-24.21,10.82-11.17.71-13.32-5.36-18.05-6.03-5.3-.74-8.55,7.68-17.85,2.92-1.13-.58-1.41-2.83-2.18-2.93-.99-.13-4.09,1.84-6.01,2-15.27,1.22-5.27-10.91-3.65-17.7,1.95-8.16,3.43-20.61-9.02-17.03-3.71,1.06-5.22,8.99-10.72,7.79l7.95-13.39-2.38-1.58-12.57,7.96c.15-2.59,2.89-17.32.44-18.03-6.57-1.92-11.11,10.96-8.45,16.03-3.54-.67-3.83-5.11-7.03-7.46-1.12-.82-5.1-3.01-6.5-1.57-4.05,6.59,7.71,13.91,5.52,16.03-8.54-1.02-10.79-12.99-7.85-19.84l10.85,1.85,2-50.5c-.49-3.82-5.12-2.29-8-2.49,3.02,14.63.39,30.02-13.89,37.15,2.43,4.78-.61,8.23-.8,12.17-.28,6.17,4.14,7.06-2.77,14.71-4.64,5.14-2.97,2.3-7.13,8.87-1.18,1.86-4.88,5.77-5.19,6.8-1.71,5.84,2.13,22.51-3.69,27.32-6.42,3.89-12.71,1.97-17.51-3.03,3.03,11.16-17,11.72-21.24,4.73-2.02-3.33-3.29-17.28-4.7-18.31-5.11,1.75-12.33-2.32-15.57-2.34-2.64-.01-8.52,3.99-12.36,3.06-2.04,6.39-1.71,15.67-9.41,18.09-7.98,2.51-11.84.08-14.73-7.23,2.85,11.49-16.07,14.56-21.57,8.05-6.05-7.17-1.27-25.5-3.93-30.07-.64-1.11-3.95-1.83-5.51-3.49-3.12-3.32-3.07-7.41-4.53-9.47-1.21-1.7-4.57-1.76-6.53-3.47-4.51-3.91-4.71-10.84-1.39-15.52,2.61-3.69,9.39-3.69,4.97-9.06-2.1-2.54-19.13-2.22-19.46-4.47,21-39.28-26.02-67.74-50.45-29.42-10.55,16.55-3.63,40.07-5.58,58.9,14.49-4.51,14.58,16.28,0,11ZM473.76,631.06c-1.12.05-7.45,2.31-7.72,3.4,1.98,8.5,5.6,10.35,12.82,4.95l-2.33-7.54c-.74-1.26-1.64-.85-2.77-.8ZM167.99,636.9c-2.27-.4-4.17.89-4.99,2.98l5-1.01v-1.98ZM160,640.9l-5.99,1.48c2.09,2.9,4.84,1.17,5.99-1.48ZM230.99,671.89c-17.09,7.04-43.6,4.04-55.42-11.08-2.91-3.72-7.3-17.47-8.21-17.83-5.43-2.1-7.48,4.7-9.78,4.88s-5.95-2.96-9.05-3.01c-5.15-.09-8.79,4.69-10.17,4.9-.95.15-5.63-3.36-10.73-2.8-6.94.76-6.47,5.81-7.17,6-3.02.79-7.99-5.53-17.03-2.14-5.68,2.13-5.78,8.47-7.41,9.59-1.29.88-4.42.53-7.51,2.49-8.52,5.39-2.44,13.99-3.57,15.9-.97,1.65-10.11.72-7.91,11.56,1.3,6.37,8.66,4.66,9.98,5.54.65.43-2.07,8.98,6.04,13.45,5.19,2.87,8.43.44,12.23,1.53.71.2,3.29,5.4,7.69,6.54,7.99,2.06,15.08-2.6,16.39-2.4,1.52.23,5.15,6.4,12.29,6.8s11.05-4.97,12.85-4.96c2.06,0,5.33,5.19,12.93,3.99,4.03-.64,7.41-5.42,9.3-5.81,1.75-.37,7.45,2.63,12.7,1.78,5.78-.94,7.63-6.49,9.2-6.79,3.35-.64,11.04,5.81,18.72-1.28,4.66-4.29,2.87-9.52,3.77-10.73.34-.46,7.98-1.56,9.46-6.07,1.68-5.14-2.2-7.74-2.2-9.55,0-1.28,4.39-7.2,2.61-10.5ZM480.99,656.88l-5.98,1.5c1.9,2.64,3.04,7.27,6.98,7.5l-1-9ZM432.5,715.89h20c5.2,8.46-12.28,8.43-17.49,8.01-2.72,2.38,11.81,14.55,14.5,14.99l2.48-7.99c.71,1.56,1.59,8.27,2.2,8.81,1.97,1.75,22.87,3.2,24.67,2.05l2.64-6.84,1.49,8.98,42.01-.02c.51-.37-4.95-11.04-.52-11.98l8.75,27.75c7.79,2.88,16.61,3.05,24.64,1.13l.11-12.88c-.8-.94-22.42,8.25-21.93-1.37.74-2.45,20.98-10.09,24.37-15.7,5.36-8.88,7.31-34.56-.42-42.92-1.71,8.89-9.2,35.53-19.74,36.79-1.46.17-5.08-.65-5.82-1.76-2.43-3.68,14.43-39.6,7.97-48.15l-10.42-1.88c.55,12-1.6,24.04-4.99,35.52-2.05,6.95-7.51,24.06-14.99,26-16.87,4.39-3.3-16.56-.99-23.98,2.63-8.5,7.31-26.71,6.04-35.05-.9-5.94-6.51-2.79-11.08-3.49-1.24,14.17-5.39,31.85-14.17,43.33-5.25,6.87-11.31,11.59-19.85,6.2-3.33-3.79,6.97-14.32,9.38-18.66,2.78-5.02,12.32-25.61,10.71-30.23-7.14-4.74-9.11,3.52-13.6,7.34-13.44,11.44-31.54,20.4-49.52,20.48-2,1.39.6,14.65,3.55,15.55ZM5.11,704.78c1.19,1.86,8.89,1.53,7.78-3.19-1.35-5.77-10.58-1.19-7.78,3.19ZM56.01,713.88c4.91-19.83-14.92-21.34-11.01,0-1.09,1.22-10.33-7.44-16.93-2.43-5.68,6.26,4.42,10.76,9.94,10.44l-.11,2.88c-5.63.64-13.42,9.1-4.93,11.66,8.34,2.52,12.39-6.4,16.4-5.63,1.92,5.81,9.56,9.89,15.22,6.16,7.27-4.8-5.54-12.62-4.56-14.07,7.05-.62,19.43-3.17,11.3-11.81-6.2-3.81-13.97,4.25-15.3,2.79ZM369.63,705.97c-2.88.88-.47,5.99-.53,8.42-.08,3.11-2.95,9.01,1.39,9.51,14.1-.54,12.19-17.14-.86-17.94ZM97,715.39v17c5.32,5.27,12.72.78,19.01,1.51l.06-11.56c-.02-2.37-4.34-1.82-6.77-3.25-3.82-2.24-7.34-8.33-12.29-3.7ZM197,716.39c-.97,3.27.7,10.64,0,14.5l16.93-.07,1.07-16.93c-4.23,2.61-16.71-1.81-17.99,2.5ZM175.38,720.29c-5.32,11.9,7.71,20.33,18.17,13.65l-.52-14.62c-5.29.86-10.67,1.38-15.44-1.48-.3.8-2.09,2.18-2.21,2.44ZM121,730.89h15.5l2.51-6.99c-7.59-1.98-9.61-6.34-17.96-2.96l-.05,9.95ZM454,782.89l-3.22-39.29-16.78-11.71.42,13.07c15.35.94,16.02,11.69-.44,9.93l.02,9.99c3.04.18,15.39,1.12,15.94,4.62-2.29,6.24-9.89,4.07-14.96,4.39l.15,6.86,18.86,2.14ZM34.99,773.89c-4.14-14.01-15.07-29.03-29.98-32-2.14,15.7,17.02,27.51,29.98,32ZM525.86,747.03c-1.13-.71-14.01-.01-14.74.98-.13,1.27-.36,6.64-.12,6.89.6.61,14.78-1.55,17-2.02-.84-1.09-1.67-5.55-2.14-5.85ZM77.99,750.9c-14.73-.61-29.35,9.61-34.99,22.98,14.95.14,30.02-8.76,34.99-22.98ZM477.99,752.89c-7.66,2.2-15.27-.43-22.99-1l1.05,12.94,21.95,1.06v-13ZM530.99,761.89l-21,2.99-.54,12.04c1.22,1.89,16.17,3.69,18.16,2.07l3.38-17.1ZM557,783.89v-14c-6.28,3.8-14.14,1.67-21,1.01l2.17,11.82c1.04,0,2.78,1.17,3.33,1.17h15.5ZM477,775.89h-16.5c-.53,0-2.12-1.57-3.49-.99l1.48,13.01,17.53-.5.98-11.52ZM582.72,780.1c-1.2.37-1.96,1.41-2.71,2.32l1.6,2.35c4.92,3.52,9.61-2.24,6.42-4.41-1.64-.74-3.6-.79-5.31-.26Z"/>
  <path d="M590,4.89v398c-6.9,4.33-7.49-.07-11.52-.97-7.82-1.75-16.25,3.32-15.58,11.88-2.85.04-6.36,2.61-6.9-1.42-.32-27.72-2.5-55.39-8.01-82.48,26.84,2.4,41.45-28.73,3.46-26.05-9.57.68-12.45,4.68-20.45,7.04-.87-.88,3.06-13.21,3.91-14.32,1.07-1.38,4.12-1.5,6.13-3.13,14.65-11.83-15.36-26.69-19.01-6.92-.33,1.77.93,3.54.52,5.41-.49,2.21-5.66,8.54-6.57,11.51l-11.03-2.02c-1.71-1.29-.52-8.03.29-9.78,2.21-4.75,7.86-1.45,6.79-11.26-1.38-12.64-22.92-10.92-22.02,1.87.21,3.05,2.93,5.15,2.8,7.86-.09,1.86-4.58,13.2-6.35,13.76-2.97-1.24-4.93-6.07-7.25-8.01-6.27-5.22-14.49-7.92-22.75-7-17.54,1.94.31,28.39,11.52,28.03l-7.02,13.99c-44.77-34.44-124.93-10.62-113,54-24.99-15.15-68.17-12.46-83.53,15.04l-2.54-.65c-2.6-3.01,3.77-9.94,4.82-13.14,2.34-7.13,1.78-17.72,3.43-22.57.97-2.85,9.54-5.19,10.73-14.26,1.48-11.2-5.91-15.55-5.91-17.89,0-1.44,2.53-3.81,3.08-5.95,3.45-13.55,3.25-26.08-5.65-37.48-3.79-4.85-22.15-17.72-28.05-20.95-23.8-13.07-68.93-9.28-90.3,7.44-2.35,1.84-7.3,8.57-8.07,8.93-4.54,2.13-9.84,1-16.34,5.66-11.09,7.96-7.08,12.4-9.87,22.13-.7,2.44-6.23,7.07-7.35,12.65-2.73,13.61,2.82,12.84,6.01,21.1,2.12,5.49.08,8.63,5.12,14.88,6.91,8.57,13.95,5.65,18.45,8.55,1.86,1.2,6.05,19.34,9.95,22.03l-27.49,18.48c-1.25.49-3.48-5.39-4.97-7.01-5.16-5.6-12.3-7.09-19.51-4.99,3.74-16.12-8.81-25.51-24-22,2.94-18.94-16.89-25.82-30.99-16.99-4.89-17.26-28.14-20.24-40.01-8V4.89h585ZM454.57,103.34C354.29,4.16,156.41,22.32,92.92,153.86c-24.91-8.34-56.46,8.78-52.93,37.02-40.73-4.14-47.66,46.77-6.47,51.98l174.35-.6c15.68-4.78,18.59-18.12,5.53-28.43,20.14-83.65,142.5-79.75,157.62,4.56-.31,2.17-11.67,8.29-12.95,16.06-2.89,17.67,17.57,20.68,30.37,21.48,56.91,3.56,118.08-2.23,175.39-.7,22.64-4.45,25.55-30.18,1.57-35.29,3.79-23.29-24.81-32.1-42.36-22.11-2.05-7.59-7.16-15.33-13.73-19.78-2.15-1.46-9.51-3.87-10.07-4.43-.81-.8-6.62-17.69-8.38-21.12-8.73-17.03-22.74-35.75-36.31-49.17ZM52.8,88.1c1.23,2.31-3.39,14.49.82,15.74s9.24-6.85,12.88-6.87c3.88-.02,8.71,6.38,12.85,4.8s-1.47-9.54-.22-13.21c.75-2.19,9.01-3.66,7.74-8.97-1.01-4.24-10.9-2.48-13.86-4.21-2.29-1.34-3.67-10.93-8.36-11.41-4.01,1.42-5.43,10-7.67,11.39-2.62,1.62-9.93.83-12.55,4.52-2.17,4.51,7.62,6.8,8.37,8.21ZM517.16,83.72c-.8-.45-4.47-12.28-7.58-11.79-4.23,2.02-5.1,9.9-8.18,11.86-6.52,4.17-24.24.54-2.92,12.04l-1.48,13.06c5.04,2.23,10.25-5.91,13.33-5.8,2.2.08,11.04,7.63,12.67,5.79,1.68-2.68-2.23-13.24-1.91-13.87.27-.53,9.08-4.07,8.72-7.64-.43-4.18-11.25-2.88-12.63-3.66ZM549.17,152.72c-.85-.59-2.2-10.95-7.22-5.38-3.13,3.47.37,6.2-8.81,6.68-2,4.4,3.11,4.1,3.73,6.55.71,2.83-3.56,5.82.15,7.87,7.7-3.35,8.54-1.52,15.98.45-1.64-8.77.49-7.47,5-13.48-1.65-2.89-7.57-1.82-8.83-2.68ZM292,186.89v-16c-3.54,3.39-2.37,12.2,0,16ZM261.49,184.91c2.33,3.84,6.08,8.23,10.49,9.49l-10.49-9.49ZM323,184.9c-4.6,1.79-7.74,6.01-10.98,9.5,4.59-1.66,8.01-5.82,10.98-9.5ZM260,210.89c-1.4-.58-14.03,0-17,0-.05,0-.05,1,0,1h17c.05,0,.05-.98,0-1ZM340,210.89c-1.44-.6-14.9,0-18,0-.05,0-.05,1,0,1h18c.05,0,.05-.98,0-1ZM272,227.9c-4.17,1.78-8.54,5.85-10.98,9.5l10.98-9.5ZM323,237.88l-10.98-9.5c2.43,3.65,6.81,7.72,10.98,9.5ZM292,252.89v-17c-3.3,3.3-2.85,13.19,0,17ZM68.17,286.72c-1.9-1.09-2.89-12.87-7.65-11.89-3.75.42-5.12,10.22-7.52,11.58-2.74,1.56-9.36-.69-12.56,2.47-1.04,4.47,8.3,5.69,8.62,6.64l-1.14,13.94c5.06,2.54,7.86-4.35,12.54-4.44s8.46,6.21,13.47,5.85c2.8-4.65-1.28-10.97,0-15.29.39-1.29,7.47-2.02,6.11-7.06-.72-2.68-10.26-.85-11.9-1.8ZM361.64,293.54c.76-.77,1.23-1.82,1.87-2.69l-.41-2.52c-2.42-2.78-7.79-.34-11.49-2.55-2.65-1.58-4.4-7.82-7.23-9.76-3.79-1.14-5.86,8.3-8.29,10.46-3.62,3.21-14.19,2.05-9.64,8.44l8.03,4.9c-4.3,22.06,5.48,6.36,11.01,6.18,3.32-.11,10.31,5.09,12.51,3.88,2.08-3.48-2.61-9.84-1.88-12.32.51-1.72,4.17-2.64,5.53-4.02Z" fill="#fff"/>
  <path d="M5,707.89c14.59,5.28,14.49-15.52,0-11,1.95-18.83-4.97-42.35,5.58-58.9,24.43-38.32,71.45-9.86,50.45,29.42.34,2.26,17.37,1.93,19.46,4.47,4.43,5.37-2.35,5.37-4.97,9.06-3.32,4.69-3.12,11.61,1.39,15.52,1.97,1.71,5.33,1.76,6.53,3.47,1.46,2.06,1.42,6.15,4.53,9.47,1.56,1.66,4.87,2.38,5.51,3.49,2.66,4.57-2.12,22.9,3.93,30.07,5.5,6.51,24.42,3.44,21.57-8.05,2.88,7.31,6.74,9.74,14.73,7.23,7.7-2.42,7.37-11.7,9.41-18.09,3.84.93,9.72-3.07,12.36-3.06,3.24.01,10.46,4.09,15.57,2.34,1.42,1.03,2.68,14.97,4.7,18.31,4.23,6.99,24.27,6.43,21.24-4.73,4.81,5,11.1,6.92,17.51,3.03,5.82-4.81,1.98-21.48,3.69-27.32.3-1.04,4.01-4.94,5.19-6.8,4.17-6.57,2.49-3.73,7.13-8.87,6.91-7.65,2.49-8.54,2.77-14.71.18-3.93,3.22-7.39.8-12.17,14.29-7.13,16.91-22.52,13.89-37.15,2.88.21,7.5-1.32,8,2.49l-2,50.5-10.85-1.85c-2.94,6.86-.7,18.82,7.85,19.84,2.18-2.12-9.58-9.44-5.52-16.03,1.4-1.43,5.38.75,6.5,1.57,3.2,2.35,3.49,6.79,7.03,7.46-2.66-5.08,1.88-17.95,8.45-16.03,2.45.71-.29,15.44-.44,18.03l12.57-7.96,2.38,1.58-7.95,13.39c5.49,1.2,7.01-6.72,10.72-7.79,12.45-3.58,10.97,8.87,9.02,17.03-1.62,6.79-11.62,18.92,3.65,17.7,1.92-.15,5.02-2.13,6.01-2,.77.1,1.04,2.35,2.18,2.93,9.3,4.76,12.55-3.66,17.85-2.92,4.73.66,6.88,6.74,18.05,6.03,12.21-.78,20.26-9.98,24.21-10.82,1.71-.37,4.14,1.1,6.67.8,11.8-1.43,15.05-16.19,5.33-21.16-3.07-1.57-8.64-1.49-9.74-2.26s-2.57-10.3-4.83-12.23l9.43-5.3c1.4-2.3-.55-3.69-.55-4.51v-18l9.99,7.01c12.86,5.04,28.08,3.29,41-.5.1,9.21-.03,19.27,1.11,28.39s5.96,19.96,6.92,28.08c1.18,9.95-.5,22.64-.06,33.06.26,6.26.57,25,2.52,29.48,2.91,6.69,17.2,6.71,21.51.98-3.36,12.35,20.07,12.71,23.26,6.75,1.66-3.1,2.33-14.95,2.73-19.27.68-7.34-.34-22.04,1.02-27.97.39-1.7.55-2.33,2.48-2.53,5.62-.6,16.93,2.56,23.52,1.02.58,6.76-4.24,37.17.56,40.94,4.34,3.41,16.15,2.4,19.89-1.98,1.19-1.39,3.96-11.96,5.53-9.96,1.68,12.47,2.46,20.14,17.53,18.01,13.42-1.89,8.64-33.83,9.5-44.49,1.1-13.75,6.85-26.75,6.98-40.52,3.05-.52,1.57.83,2.03,2.41,3.72,12.7.64,13.78-.95,24.17s1.4,17.48,9.65,23.22c7.15,2.48,6.51-14.49,5.2-19.25-1.92-6.99-8.11-9.31-8.77-11.23-.92-2.7-.67-11.81-1.64-16.36-3.01-14.15-8.76-19.74-3.29-34.22,3.26-8.63,9.32-17.03,19.76-13.74v32.5c0,.2-1.18,3.48-1.51,3.51-17.77-13.8-10.91,15-3.97,16.98,4.09,1.17-2.92-8.56-3.3-9.7-5.62-16.59,8.79-.85,8.79,1.21v68.5c-16.58-5.57-17.17,15.8,0,10v49H5v-49.99c1.11.67,2.63,4.55,3.04.48.39-3.85-2.53-5.45-3.08-8.94-.99-6.27.81-14.96.06-21.54,9.35,8.85,18.43,18.07,31.94,20.04l1.05,12.96h2.99s.13-11.89.13-11.89c16.5-1.48,35.83-9.83,39.91-27.62-.68-5.79-16.62-.75-20.25.78-8.58,3.61-15.13,10.88-19.77,18.72-.84-11.52,3.61-22.33,7-32.99,7.42,5.19,14.54,7.74,21.46-.02,2.77-6.58-4.45-12.18-3.47-12.98,19.76-1,10.6-22.44-6-15.01,2.43-17.55-20.68-17.31-19.01,0-13.82-6.05-28.09,8.52-9.99,14.01-.14,3.27-4.31,4.46-4.85,7.74-1.57,9.49,11.81,11.24,17.84,7.25-3.66,9.71-7.14,19.4-7,29.99-7-12.59-16.47-26.87-31.99-28.99v-31ZM32.02,657.89c-5.95-18.39-23.71-8.82-14.02,6.99-18.67,1.78-1.76,16.28,7.99,17.01,3.78-4.02-14.57-7.11-13.74-11.5.67-3.53,8-2.39,10.74-2.5-2.42-5.44-9.33-13.58-1.6-17.93,5.45,3.44,8.55,8.28,8.62,14.94l2.93-.05c-.73-3.48,10.13-10.95,12.06-8.95l-2.99,12.99c1.67.16,11.33-.92,10.83,2.32-1.47,8.76-12,6.21-14.83,11.68,12.44,2.95,28.49-16.13,9-18.01,6.52-14.66-6.12-13.51-14.98-6.99ZM399.99,694.9c-4.17-.8-3.53,6.98-1.49,6.97l1.49-6.97ZM394.99,702.88c.9-3.93-2.52-6.33-5.99-6.99-1.21,1.22,4.71,8.52,5.99,6.99ZM407.99,696.9c-3.47-.6-5.79,2.94-5.99,5.99,2.02,2,6.71-5.33,5.99-5.99ZM248,779.39c-.61,4.42.44,9.93,0,14.5-10.12-12.89-22.55-25.65-40.34-24.83l-1.51,2.13c15.02,39.27,72.67,44.94,89.85,4.23-9.67-4.44-26.54,2.94-34.47,9.49-1.53,1.26-9.55,11.17-10.52,9.97l3.52-28.96,2.49-.56c9.7,12.55,27.78.97,17.98-12.46,19.68-4.88,9.7-23.96-6.99-17.02,1.8-16.41-14.74-15.06-19.49-2.12-14.06-8.21-27.61,6.46-10.53,15.14-18.58,10.56-.57,25.11,14,15.99.56.61-3.72,12.49-3.99,14.49ZM395,761.89v20c-2.92-3.83-18.99-10.09-20.92-4.37,3.62,21.33,41.06,23.83,46.93,2.77-4.63-12.62-16.05.15-22.01,4.6v-20c20.05,9.21,13.07-10.48,14.02-11.94.15-.24,3.46-.91,5.05-2.5,7.49-7.47-2.65-15.95-11.06-12.56.61-4.05-3.21-9.87-7.51-10.11-5.43,0-8.5,4.85-7.5,10.1-11.99-5.59-22.24,3.65-10.01,12.5-13.17,11.09,2.23,18.17,13.02,11.5ZM173.76,771.65c1.71-1.82,1.62-7.12-.24-8.79-2.22-1.99-5.71-.12-7.59-1.4-1.51-1.03-5.05-16.66-12.96-2.57-4.83-5.03-13.01-3.74-13.71,3.65-.18,1.93,1.76,3.83,1.23,5.39-.93,2.74-6.62,2-5.5,8.41s10.11,6.43,14.99,4.56l-2,16.99c-3.19-2.69-17.39-11.27-16.99-1.59.67,16.41,42.08,16.3,37.56-3.47-7.18-3.49-12.73,1.66-17.55,6.06l1.99-16.99c5.93,3.93,17.77,5.73,18.81-3.75.27-2.46-2.03-4.92-1.82-5.24.11-.17,2.85-.28,3.76-1.25ZM340.11,762.78c-6.81-15.36-18.03-9.33-14.11,6.1-.51.61-13.2-7.23-14.03-.46-1.61,6.8,8.55,15.58,15.03,15.46-.23-5.09-7.8-4.9-10.85-10.63-6.49-12.17,13.9,3.68,14.86,2.63-6.12-19.4.01-28.75,9.52-6,1.93.86,5.22-11.63,10.87-9.94,4.57,1.37-1.12,12.28-.38,12.94,1.76.68,9.33-1.58,8.98,1.48-.53,4.64-9.99,5.31-10.98,9.52,6.7-.05,14.28-4.22,15.08-11.38l-9.08-2.62-.47-12.01c-3.52-3.2-10.6.55-11.69,4.81l-2.73.1ZM108.01,774.89c-.79-5.35-.17-12.66-7.38-12.73l-9.15,9.74c-3.75-1.91-6.28-4.73-10.5-1.53-4.11,4.55,2.38,19.89,10.02,17.51l-8.94-14.38c3.86-6.54,11.48,7.13,12.94,5.38-.31-5.51-.2-13.79,7.37-12.92l3.15,14.92,10.47-3.99c.43,5.14-3.67,9.12-6.99,12.51-.23,1.62-.06,1.65,1.5,1.5,3.85-.36,10.1-10.29,8.5-14.5-1-4.68-7.83-4.1-11-1.52ZM15.99,777.9c-3.2-.24-5.94,9.2-3.48,10.98,2.18.93,3.84-9.79,3.48-10.98ZM339.99,781.9c-1.29-1.7-2.78,1.38-1.98,2.99,1.25-.07,2.61-2.17,1.98-2.99ZM57.01,787.9l3.49,8.97c2.68.22,1.43-10.89-3.49-8.97ZM101,787.9h-3.99s0,1.98,0,1.98h2.48s1.51-1.98,1.51-1.98ZM69.99,788.9c-3.81.19-5.33,4.79-4.99,7.99,2.94.57,6.07-6.71,4.99-7.99ZM192.85,794.05l-3.81,1.29c3.97,11.51,8.47,10.41,3.81-1.29ZM204.99,794.9c-1.24-1.33-9.69,7.39-5.48,8.98l5.48-8.98ZM309.01,798.9c-.4,3.31.98,5.94,3.49,7.97,3.32-2.64.69-8.88-3.49-7.97ZM322.99,798.9c-3.15-1.92-8.19,6.46-4.48,6.99,2.24.32,4.98-6.49,4.48-6.99ZM500.99,809.88c.3-3.35-1.26-6.58-3.49-8.97-2.82-.22.6,9.66,3.49,8.97ZM301.8,802.14c-.87-.51-1.86-.2-2.79-.25-.56,3.29,2.57,4.87,4.49,6.97,3.18-.75-1.12-6.38-1.7-6.72ZM511.99,801.9c-4.06.41-5.63,4.41-4.99,7.99,2.81.71,5.64-7.26,4.99-7.99Z" fill="#fff"/>
  <path d="M575,548.89c-1.06-1.06,2.38-15.34-2.99-14.99l-1.03,18.97c-11.04-1.8-21.79-2.97-32.97-.97v-31c-2.56-.72-2.45,2.14-2.7,3.77-.3,1.92-.06,13.24-.79,13.23-9.13-6.5-20.96-13.4-23.51-24.99,24.55-6.67,16.2-36.65-8.06-35.44l.31-24.32c25.93-2.42,29.2-32.44,2.7-36.83,1.97-10.93-1.09-30.11,1.06-39.92.8-3.67,10.88-5.13,8.99-11.49-7.97,6.06-15.16,11.91-25.99,11.98,2.57-3.79,6.48-5.42,6.92-10.58.63-7.35-5.21,4.34-6.39,5.62-17.84,19.31-63.27-3.32-38.53-30.24,2.89-3.15,9.37-6.13,12.01-9.28,6.77-8.08,7.86-18.17,19.29-24.7,2.23-1.28,6.88-1.41,7.8-2.43.6-.67,5.74-16.2,5.68-17.1-.15-2.24-6.13-6.67-1.34-11.34,3.76-3.06,12.54-2.3,13.36,2.78,1.21,7.49-6.53,7.85-6.86,8.91s-1.53,15.8-.94,16.38l16.8,1.79c1.13-4.03,7.61-10.8,8.44-14.09.62-2.43-.7-4.7-.24-7.15,1.37-7.3,17.96-7.21,14.8,3.71-1.27,4.4-7.11,3.24-8.88,5.41-2.79,3.43-8.48,20.18.4,21.17,9.59-8.2,19.06-12.55,31.91-8.59,22.51,6.95-14.97,28.59-25.21,17.24l20.97-6.51c-3.13-5.63-24.36,2.72-24.91,6.66-.68,4.87,13.21,3.23,9.97,13.78-21.89,5.91-16.84,32.74,4.94,33.57l1.86,32.85c-13.88,2.5-20,20.52-6.8,28.59,2.97,1.82,9.6,2.51,10.47,3.53.64.75,3.02,11.9,4.77,15.23,6.46,12.29,19.38,12.83,29.71,20.29v19.5c-6.84-18.94-36.87-16.67-37.07,4.49-.21,21.87,30.08,24.72,37.07,4.51v48h-15ZM484.99,337.88c-.22-10.65-12.2-14.58-15.96-3.48l2.99,1.01c7.79-9.34,6.78,1.85,12.98,2.47ZM513.99,345.88c1.37-6.3-3.7-11.41-10.03-9.56-2.71.79-7.19,5.16-3.46,7.55.47-.03,2.8-5.87,7.54-4.55,4.35,1.2,1.57,6.45,5.95,6.57ZM453.01,359.88c2.57,2.67,6.34-5.14,2.48-5.99-2.76-.6-3,5.45-2.48,5.99ZM475.87,363.78c1.31-.74,1.22-4.87-2.36-3.88-2.96.82-1.84,6.24,2.36,3.88ZM525.73,383.13c-16.16,3.34-9.52,29.74,8.84,22.84,12.24-4.6,8.14-26.35-8.84-22.84ZM539.74,449.13c-17.13,2.72-12.51,27.94,5.49,25.54,16.38-2.18,15.8-28.91-5.49-25.54Z" fill="#fff"/>
  <path d="M154.82,394.05c19.61,27.43,63.05,34.93,91.51,16.68,2.77-1.78,15.62-16.29,16.65-6.31.18,1.76-.71,17.8-1.05,19.91-2.27,13.93-10.02,19.15-3.42,36.55,1.68,4.43,6.16,7.95,7.24,10.76.99,2.56,2.04,19.63,1.11,21.11l-30.21,5.06c-2.81-.98-4.44-20.7-16.03-16.76-1.56.53-.94,3.01-3.04,2.88-3.79-.22-7.57-4.93-14.1-4.12-4.54.57-3.62,3.26-4.71,3.84-1.53.8-3.54-.34-5.88,1.63-4.14,3.48-.87,13.55-14.89,11.61.05-6.72-4.33-13.39-10.46-16.05-2.82-1.22-9.95-1.82-10.4-2.1-.36-.23-2.13-5.72-3.72-7.78s-5.83-4.09-6.29-5.79c-1.07-3.9,4.47-28.57,2.86-30.29h-2.99s-4.11,28.89-4.11,28.89c-5.48-2.96-16.33,4.19-18.41,4.1-1.55-.07-5.02-4.03-7.78-5.18-6.85-2.83-15.26-2.38-21.2,2.17-2.09-1.4-.94-1.52-.77-2.72,3.38-24.46,35.88-61.58,60.1-68.1Z" fill="#fff"/>
  <path d="M590,649.89c-13.01-2.74-18.03-16.63-19.03-28.47-.72-8.51,1.36-15.77,1.56-23.53.04-1.67,1.25-2.56-1.03-3.98-8.29,18.95-6.02,53.33,18.37,59.1l.13,8.88c-14.68-2.1-23.23,13.17-24.01,25.99l-13.07-11.43c-18.93-12.28-45.65-5.14-66.94-8.58.13-.81-.19-2.78.01-2.99.51-.52,11.33,1.21,14.53,1.03,17.45-.99,21.78-10.38,31.21-12.79,2.79-.71,5.76.27,8.51-.49,3.61-.99,15.38-6.16,11.24-10.74-4.12,5.36-10.75,8.81-17.49,7.48.01-.73,5.94-5.71,2.49-7.48-10.14,16.84-32.23,24.98-51,18.97-.64-.76-3.48-17.46-3.52-19.5-.04-2.26,6.29,0,8.01-1.49-1.39,2.37,2.64,8.32,4.99,10.99,0-1.98.26-4.15-.42-6.07-.91-2.58-4.31-2.77-3.56-4.42,7.97-4.41,14.15-10.76,12.99-20.51l-6,11.5-1.5,1.48c-3.05-2.64-4.13-7.47-4.54-11.44-4.62-44.92,52.53-91.95,91.02-56.04-2.88,3.12-9.55,2.97-8.97,8.49l15.99-5.99v82ZM512.02,606.89c5.39.16,1.44-7.43-1.05-8.51-4.3-1.87-9.95,2.97-8.96,7.51l6.43-4.05,3.58,5.04ZM544.5,608.34c-6.79-.12-9.48,8.3-4.5,6.06,1.29-.58,2.25-3.6,5.37-2.44l4.13,5.91c4.14-3.71-.33-9.45-5-9.53ZM523,632.88c-3.23-5.23-8.41-5.48-13.99-4.98l1.5,1.97,12.5,3.01ZM505.77,639.13c-1.32-.7-5.85-1.12-4.77,1.75,4.38-.45,5.08,4.03,7.99,6.01.84-1.77-2.28-7.26-3.22-7.76Z" fill="#fff"/>
  <path d="M149.64,471.25c2.33,2.49,3.76,8.67,4.61,9.4,1,.85,10.21,2.17,13.45,4.05,7.74,4.49,10.05,14.72,4.35,21.7,13.57,6.54,19.41,25.08,5,34.1,7.23,7.07,8.5,19.86,1.97,27.9-2.2,2.7-11.19,6.87-11.53,7.47-1,1.76-.25,5.72-1.26,8.74-2.55,7.62-10.79,13.7-18.73,14.29-4.25.32-10.1-2.24-11.78-1.85-1.3.3-7.02,7.9-11.32,9.74-8.21,3.51-16.38,3.18-23.72-2.07-2.1-1.51-4.94-5.83-5.33-5.9-1.71-.31-7.71,3.51-10.94,3.99-14.88,2.22-27.81-3.6-29.38-19.5-20.96,1.66-33.44-7.84-24.07-29.36-19.13-6.75-13.34-26.8,1.94-34.65-9.9-14.44-1.46-29.85,15.71-31.33,4.49-.39,6.46,1.97,10.39.93-5.68-19.26,18.98-23.38,31.51-15.23,8.79-12.43,24.27-14.78,33.01-.76,6.77-6.77,19.11-9.12,26.11-1.64ZM60,525.9c-28.37,80.05,134.05,75.4,98.2-1.71-1.23-2.65-7.21-10.4-7.2-11.82.02-2.92,7.94-5.38,6.81-14.71-1.94-15.92-29.93-17.82-30.81-.77-13-3.34-25.58-2.47-38.42,1.06-2.76.76-9.14,4.99-11.1,4.9-2.07-.09-5.96-5.03-9.19-5.76-22.6-5.07-32.83,24.78-8.28,28.8Z" fill="#fff"/>
  <path d="M230.99,671.89c1.78,3.29-2.61,9.21-2.61,10.5,0,1.81,3.89,4.41,2.2,9.55-1.48,4.51-9.12,5.61-9.46,6.07-.9,1.21.88,6.44-3.77,10.73-7.69,7.09-15.37.63-18.72,1.28-1.57.3-3.42,5.85-9.2,6.79-5.25.85-10.96-2.15-12.7-1.78-1.88.39-5.26,5.17-9.3,5.81-7.6,1.2-10.87-3.98-12.93-3.99-1.8,0-5.83,5.36-12.85,4.96s-10.77-6.57-12.29-6.8c-1.3-.2-8.4,4.46-16.39,2.4-4.4-1.14-6.98-6.33-7.69-6.54-3.8-1.1-7.04,1.33-12.23-1.53-8.11-4.47-5.39-13.02-6.04-13.45-1.33-.89-8.69.82-9.98-5.54-2.21-10.84,6.93-9.91,7.91-11.56,1.13-1.91-4.95-10.51,3.57-15.9,3.09-1.96,6.22-1.6,7.51-2.49,1.63-1.12,1.73-7.46,7.41-9.59,9.04-3.39,14.02,2.93,17.03,2.14.69-.18.22-5.23,7.17-6,5.11-.56,9.78,2.95,10.73,2.8,1.37-.21,5.01-5,10.17-4.9,3.1.06,6.65,3.2,9.05,3.01s4.35-6.98,9.78-4.88c.92.35,5.31,14.11,8.21,17.83,11.82,15.12,38.33,18.12,55.42,11.08Z" fill="#fff"/>
  <path d="M362.89,559.78c-27.56,8.04-56.74,10.36-85.09,4.81-7.32-1.43-14.81-.93-12.8-10.7,24.81,4.75,57.9,3.61,78.48-13.02,1.8-1.45,9.25-7.55,6.03-9.95-29.93,30.97-76.46,26.2-112.91,10.09l9.48-31.07c23.96,9.25,50.3,17.08,74.08,2.61,3.29-2,11.54-7.42,10.36-11.64-15.1,14.14-35.36,19.49-55.52,14.49l-.48-10.49-4.52,10-10.87-5.34c6.29-11.8,16.23-18.9,28.88-22.67-1.18,15.44,21.36,13.5,30.88,8.37,11-5.92,5.07-15.41,22.5-7.25,26.21,12.27,21.15,47.97,21.51,71.77Z" fill="#fff"/>
  <path d="M72.01,378.88c18.12-6.65,29.13,3.32,24,22,10.45-1.72,20.05-3.2,24.01,8.6l-27.64,47.35-41.35-12.45c13.84-6.33,23.62-28.75-1.01-17.5,12.39-22.3-2.48-22.3-17-10-.64-7.49-4.16-21.82-14.08-15.56l-2.94,15.56-10.99-4,.03-57.47c9.8-16.05,34.24-11.97,38.54,6.46,15.52-10.25,33.72-3.43,28.44,17.01Z" fill="#fff"/>
  <path d="M158.99,276.89c1.29,32.58,28.06,28.37,51.22,21.72,3.52-1.01,13.81-6.46,15.45-6.53,1.56-.07,8.5,5.27,13.07,5.55s13.15-4.55,15.26-3.3c9.1,14.21,12.58,35.35,11.98,52.04-1.1,31.08-13.19,15.12-31.85,10.39,2.7-4.69-11.98-28.12-14.61-27.86-2.42.24-.62,2.38-.28,3.25,3.11,7.9,16.39,21.02,9.46,29.46-7.97,9.7-20.56-2.54-26.06-2.67-10.41-.24-23.56,14.59-31.16,8.98-5.9-4.36-17.22-28.52-17.42-35.67-.28-10.16,9.13-27.39.72-40.61l-5.75-8.2c2.83-2.76,5.45-6.85,9.97-6.53ZM192,316.9c-6.47-2.28-14.32,1.18-18,6.97,1.93-.51,18.93-5.47,18-6.97ZM238,317.88c2.54,1.18,5.92.55,8.24,1.28,1.5.47,9.74,5.41,9.74,2.24-3.74-5-13.19-8.28-17.97-3.51ZM239.8,337.14c-.86-.52-1.87-.18-2.79-.24.21,7.04,7.23,10.96,13.75,8.24,2.43-1.02,5.91-5.39,2.75-7.22-7.69,10.98-9.79,1.59-13.7-.77ZM198.99,337.9c-8,5.32-11.64,11.27-18.5,0-4.68,12.58,19.62,13.1,18.5,0Z" fill="#fff"/>
  <path d="M266.99,362.9c.95,52.69-59.57,68.88-97.9,41.4-23.55-16.89-24.09-44.93-26.6-71.4-7.83-7.93-17.92,1.63-23,7.98-4.28-3.53-4.25-12.3-3.27-17.25s6.41-8.63,7.32-11.68c1.02-3.39-.05-6.92.68-10.32,1.72-8.01,14.93-17.18,23.07-14.53,6.59,2.15,7.08,24.43,6.56,30.16-.42,4.57-4.04,13.04-3.69,15.87.8,6.37,11.01,28.65,15.4,33.7,11.09,12.76,17.05,1.69,28.44-2.42,13.49-4.87,14.21,4.49,27.52,3.53,8.56-.62,7.69-4.96,11.49-6.52,8.89-3.63,20.63,11.34,28.92,5.92,2.09-1.37,2.13-4.66,5.05-4.43ZM200.9,371c-.53-.39-2.02,0-2.89-.1,3.26,15.43,29.66,15.93,36.99,3.49-3.6-2.34-5.3,2.32-7.64,3.36-7.15,3.16-15.77,3.34-22.58-.91-2.41-1.5-3.59-5.63-3.88-5.84Z" fill="#fff"/>
  <path d="M362.99,576.89l5.03,107.52-7.36,2.54c-5.01-7.27-12.87-13.56-21.67-15.08,7.42-12.75,8.49-24.27,1.06-37.34,8.47-5.48,22.02-25.7,17.44-35.65-3.17-6.87-16.72-.35-19,4.98-11.3-30.66-29.54,8.66-30.64,22.88-28.95,5.26-38.68,41.45-8.02,53.61l-5.99,14.39c-11.98,1.22-6.83-.05-9.34-4.85s-11.93.67-12.5,0c.9-6.05-.29-14.14-8.29-11.79-2.58.76-3.49,4.95-6.72,4.79l1.13-47.36c26-9.72,5.4-16.16,3.89-23.15-2.07-9.55,2.11-23.49.99-33.47,31.8,10.47,68.8,10.27,99.99-2Z" fill="#fff"/>
  <path d="M402.99,336.89c2.46,20.53,31.9,20.98,36.57,38.94,1.04,4.02.45,8.72,1.95,13.05,4.11,11.81,8.31,3.49,15.94,5.04,9.39,1.9,4.97,19.84-8.97,20.98-4.3.35-9.32-2.19-10.77-1.87-1.61.36-7.8,7.89-10.61,9.45-20.58,11.43-58.66,6.15-70.09-16.1-9.91-19.29,3.48-40,9.08-58.38,13.51.35,25-5.96,36.89-11.11ZM382.91,354.99c-1.28-1.7-15.04-2.17-14.91,2.9h14.99c-.11-.86.28-2.42-.08-2.9ZM427.99,370.88c-.52-6.7-8.96-9.91-14.99-8.99l14.99,8.99ZM377.02,374.88l2.95-1.49c-1.62-6.63-12.58-7.57-14.84-1.87-2.29,5.76,3.78.16,4.08.05,3.74-1.34,7.03-1.2,7.81,3.31ZM391.99,374.9c-13.85,2.77-21.48,17.69-2,15.98,3.16-3.11-8.65.08-8.04-6.43.49-5.18,9.25-4.62,10.03-9.55ZM422.99,386.88c1.37-7.27-4.41-11.32-11.27-9.78-5.01,1.12-6.13,6.99-3.24,5.78,2.16-2.17,4.18-4.59,7.54-3.6,4.58,1.36,2.5,7.16,6.97,7.6ZM375.01,396.9c1.75,13.18,22.39,14.31,28.97,4.49-.07-3.11-8.22,2.21-9.54,2.43-2.01.35-5.89.37-7.88.01-5.67-1.02-6.51-6.34-11.55-6.93Z" fill="#fff"/>
  <path d="M336.15,633.06c.18,4.77,3.85,7.31,5,12.18,2.68,11.33-.18,18.95-7.15,27.64,39.35,7.98,47.24,74.42-6,57.5l12.97-6.98c-7.95-7.11-5.32-18.02,4.28-21.74,3.08-1.19,6.36.13,8.73-2.27-15.71-4.02-24.15,8.59-18.43,22.54l-11.56,5.96c-1.01-1.25,9-20.47,4.49-23.99-3.48,3.7-2.31,9.01-4.04,13.96-2.38,6.83-10.54,20.93-17.46,11.58,1.53-5.79,6.26-17.75,5.78-23.29-.16-1.79-1.01-2.5-2.77-2.25-2.53,9.79-1.66,24.39-14.36,26.82l-3.48-4.11c2.91-5.4,6.38-12.17,6.73-18.38.5-8.99-3.54-16.57,3.66-25.28,2.41-2.92,5.84-2.67,6.44-6.05-15.87,2.16-28.83-13.95-23.68-29.19,5.44-16.11,26.34-22.45,41.53-17.97,1.88-7.81,16.9-34.49,26.51-30.74,8.18,3.2-9.58,32.5-17.19,34.07ZM299.99,650.88c.13-6.45-7.89-7.68-9.98-2.48-1.55,3.85,5.19-.51,5.5-.49.88.07,1.27,4.39,4.48,2.96ZM326.99,656.89c.47-9.42-6.68-10.35-10.97-2.5,2.98,3.89,4.18-2.63,8.45-1.56l2.52,4.06ZM307.99,656.9c-5.66,2.61-4.99,1.49-9.99-1l.98,8.99-5.49-3.98c-3.96,1.79,3.26,7.85,5.44,8.53,3.94,1.22,12.76,1.05,12.05-4.55-4.98.46-10.33,5.45-9.05-2.38.47-1.33,7.65-.88,6.05-5.62Z" fill="#fff"/>
  <path d="M432.15,605.74l15.21,5.02c7.39-8.29,17.09-18.11,29.21-12.94,3.52,13.1-10.66,20.2-18.56,27.57l3.54,7.45c-1.02,2.51-20.27,11.01-12.5,14.56,5,2.29,14.97-7.09,15.94-6.52,9.86,14.57-23.05,16.16-22.05,26.47.93,9.57,25.26-4.17,28.57-7.37l4.47,5.41c-13.69,11.92-30.94,23.68-49.99,22.5,1.36-5.28-2.53-14.85-1.05-19.37.41-1.24,11.21-3.08,9.04-8.64-7.03,5.45-15.6,8.77-24.48,10.01.35-2,3.51-3.41,4.25-5.75.4-1.28.74-4.21-.26-5.26-11.5,23.05-50.47,7.64-40.69-17.7,3.33-8.64,14.23-11.08,20.15-15.84,2.46-1.98,4.53-6.05,7.51-8.49,6.07-4.96,12.04-8.54,19.1-11.95-4.83-7.26-6.4-29.65,7.17-24.27,9.9,3.93,3.79,17.36,5.41,25.09ZM429,602.88c.58-.6-4.64-14.23-6.98-14.99-.66,2.03,3.72,18.34,6.98,14.99ZM466.99,604.9c-.94-1.03-16.58,9.16-13.99,11.99,2.25-.95,16.21-9.56,13.99-11.99ZM406,631.88c2.79,2.96,7-5.97.95-8.5-5.62-2.35-16.58,8.31-.96,2.51.97,1.28-.21,5.76.01,5.99ZM421.01,640.89l6.43-2.99,3.06,5.97c5.53-5.68-3.67-10.51-8.09-7.06l-1.39,4.09ZM380.99,642.9c-2.86-2.9-6.1,5.82-2.49,5.97,1.29.05,3.48-4.97,2.49-5.97ZM396.99,652.9c-.74-.67-5.48.05-4.99,2.48.68,3.36,7.44-.26,4.99-2.48Z" fill="#fff"/>
  <path d="M432.5,715.89c-2.95-.91-5.56-14.17-3.55-15.55,17.98-.07,36.08-9.04,49.52-20.48,4.5-3.83,6.47-12.08,13.6-7.34,1.61,4.63-7.93,25.22-10.71,30.23-2.41,4.35-12.71,14.88-9.38,18.66,8.54,5.4,14.6.67,19.85-6.2,8.78-11.48,12.93-29.17,14.17-43.33,4.57.69,10.18-2.45,11.08,3.49,1.27,8.34-3.41,26.56-6.04,35.05-2.3,7.43-15.88,28.38.99,23.98,7.47-1.95,12.94-19.06,14.99-26,3.38-11.48,5.53-23.52,4.99-35.52l10.42,1.88c6.46,8.55-10.39,44.48-7.97,48.15.74,1.12,4.36,1.94,5.82,1.76,10.54-1.26,18.03-27.9,19.74-36.79,7.73,8.36,5.78,34.04.42,42.92-3.39,5.61-23.62,13.25-24.37,15.7-.49,9.62,21.12.43,21.93,1.37l-.11,12.88c-8.03,1.93-16.86,1.75-24.64-1.13l-8.75-27.75c-4.44.94,1.02,11.61.52,11.98l-42.01.02-1.49-8.98-2.64,6.84c-1.8,1.15-22.7-.3-24.67-2.05-.61-.54-1.49-7.26-2.2-8.81l-2.48,7.99c-2.69-.44-17.22-12.6-14.5-14.99,5.22.43,22.69.46,17.49-8.01h-20Z" fill="#fff"/>
  <path d="M5,615.39c.82-4.2,23.57-32.89,26.48-33.2l20.4,4.82c2.33,11.36,12.45,19.02,23.93,19.65,5.47.3,16.61-4.05,18.48-3.62,1.26.29,5.72,5.49,9.17,6.88,7.73,3.1,17.28,2.48,24.59-1.48,8.36-4.53,6.38-10.27,19.89-5.5-1.21,4.98,2.09,12.96.85,17.22-.93,3.2-10.42,7.51-10.77,14.31-.22,4.35,5.9,7.1,3.94,8.87-7.01,4.05-14.02-2.87-21.95,3.54-1.39-1.59,1.41-19.95-4.01-19.99v21c-9.17-3.01-18.84-.22-21.21,9.8l-10.78,4.2-2-31.51-2-1.48.98,39.99-14.99-3.01c19.78-47.21-41.69-69.08-61-23.99,1.05-7.78-1.42-19.22,0-26.5Z" fill="#fff"/>
  <path d="M299.82,405.04c.43.22,2.86,5.18,6.62,6.91,7.19,3.31,15.79-.5,16.5-.04.21.13.74,3.18,2.04,4.5,4.72,4.81,9.68,5.52,16.02,3.48-.71,9.92,1.34,19.64,4.53,28.98l1.01,1.03c20.65-9.08,18.81,19.64-.12,21.9-4.64.55-10.38-1.96-11.77-1.7-.7.13-7.98,7.11-11.26,8.67-14.67,6.98-34.71,5.3-48.11-3.64-26.62-17.78-14.48-47.14-.3-68.79,5.34,6.07,23-2.22,24.85-1.29ZM287.99,418.88c-1.3-6.38-9.28-6.1-12.97-1.49l12.97,1.49ZM333.99,434.89c1.02-7.03-9.11-14.12-14.97-9.5,5.82,3.08,10.43,4.27,14.97,9.5ZM284.99,435.88c.88-6.56-5.07-9.45-10.73-7.24-2.21.86-6.08,4.48-2.77,6.22,6.98-6.25,7.06-2.25,13.5,1.02ZM297.01,436.89c-3.93-1.37-10.85,1.9-11.86,5.72-1.39,5.28,8.54,10.62,10.86,4.28-3.31.43-8.64.26-6.9-4.39,1.38-3.68,9.76-.5,7.91-5.62ZM326.99,447.88c2.29-11.28-13.08-15.57-14.98-3.99.32.42,4.21-4.78,9.76-2.35,2.77,1.22,1.14,6.5,5.22,6.34ZM308,458.9c-11.16,5.57-21.85,7.14-26.99-6.53l-2,1.03c1.63,13.79,21.75,16.76,29,5.5Z" fill="#fff"/>
  <path d="M350,363.39c1.17-8.17,10.36-22.8,16.51-28.45,24.05-22.09,66.17-22.35,90.49-1.07-31.48,19.12-11.25,51.53,21.01,47.02,1.38,10.05-2.77,20.6-1.87,30.37,1.3,14.13,15.54,15.87,12.61,35.89-.47,3.19-5.14,12.46-4.84,14.1.11.63,3.84,2.04,4.96,4.28,2.72,5.43,1.46,15.63-3.86,19.37-5.15-16.91-15.18-33.8-31.14-42.38-4.38-2.35-30.05-9.57-25.42-17.6,3.1-1.23,6.83-6.76,9.59-7.5,2.38-.65,6.93,1.63,11.16,1.26,11.37-.99,22.53-14.33,14.34-24.82-6.32-8.08-14.31-.21-17.06-2.91-3.8-7.61-2.1-15.26-6.52-22.5-8.34-13.69-34.88-15.34-34.97-36.54-13.41,6.7-26.71,12.89-42.06,13.43-3.81,9.45-6.58,22.44-10.67,31.38-.64,1.4.63,2.72-2.26,2.2.49-4.86-.67-10.81,0-15.5Z" fill="#fff"/>
  <path d="M383,435.88c.38,15.71,20.77,16.92,32.66,14.16,5.98-1.39,19.41-10.06,21.7-10.12,3.8-.09,13.08,4.4,16.65,6.44,26.6,15.18,39.72,64.17,30.97,92.51-9.01-13.69-1.88-26.93-8.96-42.52-13.64-30.01-60.03-36.07-84.04-15.98-11.39,9.53-12.93,21.26-17.46,34.54-12.19,3.66-9.82-4.37-13.15-10.91-1.45-2.85-8.86-11.8-8.98-12.59-.14-.95,3.37-17.33,3.85-18.77,1.33-3.95,5.41-6.4,7.49-10.51,4.83-9.55,5.09-25.35,19.25-26.25Z" fill="#fff"/>
  <path d="M210.5,519.89c7.02,1.12,16.58,10.19,24.5,11.01l-2.57,10.99,14.13,7-3.6,34.31c.6,1.9,6.81,2.41,7.04,2.7.32.41-.97,6.32.28,10.2,2.24,6.91,9.74,7.55,8.7,14.79-1.78-.08-12.34-1.74-12.86-2.14-.98-.77-.02-10.15-8.4-15.1-1.59-.94-4.09-.36-5.7-1.3-1.39-.81-2.16-3.98-5.35-5.65-8.34-4.4-12.06.33-17.95-.02-2.65-.16-5.97-2.8-9.25-2.81-6.09,0-10.36,5.44-12.11,5.78-4.09.78-6.89-2.39-13.34,1.79-6.7,4.35-3.52,8.36-5.58,12.43-.5.99-3.79,2.25-4.93,5.07-.83,2.04-.14,4.9-.69,5.81-.3.5-10.25,4.35-10.85,1.65v-15.5c7.33-1.15,13.34-6.71,16.19-13.31,1.3-3.01,1.56-8.56,2.3-9.7.31-.48,5.71-2.85,7.52-4.48,5.12-4.59,9.25-11.85,9.02-18.95-.14-4.26-4.78-12.39-4.75-13.08.07-1.61,12.07-13.84,5.72-21.48,6.9.77,15.89-1.05,22.5,0Z" fill="#fff"/>
  <path d="M5,440.89c1.65-1.64,39.4,5.44,44.84,6.66,7.55,1.69,34.36,8.17,39.73,11.27,4.15,2.39,2.02,7.32-.04,10.91-13.63-4.1-35.56-4.02-35.58,15.11-15.01-1.4-31.22,8.77-28.71,25.31.37,2.45,3.2,6.25,2.67,8.07-.2.68-6.8,5.48-8.34,7.73-5.28,7.68-1.18,12.35-14.57,11.93v-97ZM26.99,461.9c-6.19-.57-10.56,13.23-4,12-.97-5.01,2.72-7.77,4-12ZM12.01,464.9l4.49,9.97c3.08-2.01-2.68-11.94-4.49-9.97ZM36.99,467.9c-1.36-1.29-9.44,5.68-7.99,6.99,2.42,1.34,9.09-5.95,7.99-6.99Z" fill="#fff"/>
  <path d="M453.99,506.9l1.12,19.88c24.22-2.08,8.04,25.28-8.09,15.11-8.81,17.99-38.77,16.11-52.79,5.24-17.96-13.92-8.3-34.16-1.09-51.1,10.39-.4,20.47-3.88,29.38-9,6.63,12.36,17.44,18.95,31.46,19.87ZM408.99,501.89l-.97-3.52c-3.46-1.01-7.73-1.3-10,2.02l10.97,1.5ZM445.99,513.88c-.55-5.82-6.82-8.38-11.99-6.98l11.99,6.98ZM394.01,513.88c4.47-1.8,7.43-4.2,9.99,1.52,2.88,1.83,2.87-7.14-3.57-7.5-3.19-.18-7.07,2.51-6.41,5.97ZM414.01,523.9l-5-2.49,7.51-4.51c3.06-4.48-14.76.77-9.63,7.56,1.76,1.81,7.54,3.58,7.11-.56ZM437.71,518.18c-3.2-3.12-10.33-3.04-9.7,2.71,7.37-2.81,6.07.11,10.48,4,2.71-.39.21-5.74-.77-6.7ZM424.99,532.9c-8.96,5.28-18.44,6.71-22.99-4.52-3.88.36-1.63,5.48.48,7.53,8.57,8.34,26.12.74,22.51-3.01Z" fill="#fff"/>
  <path d="M459.65,481.26c18.47,13.88,14.84,27.55,16.95,46.45.94,8.42,8.87,16.6,4.88,26.17-1.22,2.92-16.11,12.12-14.5,20.01l-8.52-9.96-18.46-10.52c3.33-.63,6.89-6.91,8.73-7.37,2.14-.53,4.82,1.1,7.63.81,16.32-1.65,22.06-25.36,1.63-22.95l-1.05-19.95c-15.15-.98-27-6.05-32.51-21.02-10.99,6.09-21.36,9.01-33.93,9.97-10.74,23.12-18.68,47.57,9.48,61.5l-19.98,13.02c-6.11-6.59-.98-14.74-1.33-20.89-.18-3.13-3.1-7.63-3.57-11.22-1.41-10.66,7.63-38.93,14.38-47.43,15.67-19.75,50.63-21.3,70.18-6.61Z" fill="#fff"/>
  <path d="M270.7,332.58c-.3.31-2.6,1.43-2.69,1.31,1.37-16.91-6.02-31-12.02-46-4.41-.06-6,4.78-10.72,5.77s-12.41,1.13-15.21-3.39c-.22-1.5,5.76-5.81,1.43-5.4-1.11.11-15.23,8.74-19.71,10.3-21.84,7.6-50.61,11.81-51.65-19.62,21.73-14.27,58.21-18.03,81.74-6.02,6.08,3.11,8.04,6.95,12.78,10.22,2.7,1.86,6.61,2.08,10.26,4.74,12.03,8.74,15.64,37.77,5.79,48.11Z" fill="#fff"/>
  <path d="M182.35,663.53c-10.32-8.76-14.38-24.87-9.2-37.5,5.02,2.22,14.54-4.97,16.31-5.09,2.1-.14,5.69,2.25,10.02,1.97s8-3.84,10-3.95c2.49-.14,4.9,2.25,9.74,1.68,4.18-.49,6.31-3.5,8.34-3.79,1.26-.18,11.04,1.29,11.96,2.02,4.55,3.57,7.06,22.68,6.47,28.5-2.89,28.34-46.33,30.85-63.63,16.16ZM235.99,633.88c.61-4.42-3.75-5.34-7.27-4.79-6.05.94-4.65,13.73,1.76,1.97l5.51,2.83ZM197.99,638.88c-1.23-11.81-17.3-2.99-9.99,3.52,1.61-1.27.35-6.05,4.53-6.57,2.32-.29,1.75,4.31,5.46,3.05ZM219,656.9c-3.94-8.12,6.24-8.48,2.5-13.98-4.63,6.35-7.76,3.76-13.49.98-1.32,5.19,5.65,4.81,6.78,6.22s1.53,6.18-.79,7.28c-4.65,2.21-11.6-5.28-11.99-1.99-.79,6.83,17.63,5.18,21.44,4.42,3.3-.66,10.29-5.51,6.06-8.92-3.04,3.05-5.62,6.65-10.5,5.98Z" fill="#fff"/>
  <path d="M370.83,424.06c2.95,5.05-5.56,27.99-7.81,26.83-2.19-8.06-9.99-5.12-16.14-6.58l-2.87-27.43c-10.71,1.41-16.88,2.13-19.53-10-6.61,3.78-15.15,5.13-20.34-1.72-1.19-3.22,3.8-5.91.37-8.26-5.6,4.52-17.33,10.46-24.47,7.45-3.72-1.57-2.14-7.34-4.51-6.46l-11.53,18.48c.37-36.74,51.51-45.92,77.55-31.53,12.63,6.98,6.8,15.12,14.44,26.56,3.67,5.5,14.36,11.79,14.86,12.64Z" fill="#fff"/>
  <path d="M406.99,556.89c-.17,13.9,14.23,12.34,23.51,8.01,2.93-1.37,8.22-7.09,9-7.11,6.93-.2,20.89,10.85,23.68,17.42,2.55,6.01.34,12.44,2.83,18.68-6.62,2.39-8.03-3.69-12.53-6.96-3.74-2.72-10.35-6.23-15.03-6.09-2.22.07-3.7,2.1-4.81,1.95-1.96-.27-4.57-6.53-11.13-5.98-9.94.83-10.92,15.69-8.51,23.08l-27-1.99,5-24.99c-2.57-3.13-7.73,16.61-8.01,17.99-11.66-3.14-10.11-6.44-4.8-15.32,5.78-9.68,16.1-18.27,27.81-18.69Z" fill="#fff"/>
  <path d="M230.11,596.76c.27.14,2.97-.91,6.16.34,7.51,2.94,9.22,15.41,2.01,17.58-4.77,1.43-8.84-1.68-10.8-1.44-1.31.17-4.9,4.6-9.97,4.65-2.97.03-8.15-2.78-9.03-2.7-.97.09-5.01,5.51-10.98,5.51-3.94,0-8.52-3.65-9.01-3.63-1.69.06-8.4,10.12-18,3.83-12.9-8.44.41-12.92,1.34-15.67,1.07-3.16-1.04-7.71,3.23-10.77,4.97-3.56,9.91-.28,13.52-.9,1.99-.34,3.63-8,14.71-5.45,2.11.49,5.04,3.62,6.22,3.52,1.74-.14,4.08-4.83,11.74-3.52,6.92,1.19,7.58,7.96,8.86,8.64Z" fill="#fff"/>
  <path d="M488.99,616.89l-10.82-6.47c2.23-4.14,4.17-8.43,1.88-13.08-2.61-5.3-9.1-3.9-10.17-5.04-7.68-8.21,4.38-28.54,11.65-34.38,10.14-8.14,32.01-12.43,42.83-3.89,4.46,3.52-8.31,8.8-11.26,11.45-14.2,12.78-24.33,32.11-24.11,51.4Z" fill="#fff"/>
  <path d="M590,406.89v61c-14.31-5.88-24.54-8-29.16-24.34-1.08-3.82-4.01-19.97-3.78-23.26.28-3.92,6.06-2.27,8.42-1.42l1.04-.98c-3.26-12.05,10.91-18.56,16.98-7.02,1.92-2.68,2.61-4.72,6.5-3.98Z" fill="#fff"/>
  <path d="M221.99,490.88v-6.99c9.64.24,7.47,11.31,11.15,16.35,1.62,2.21,9.57,6.21,9.89,7.37l-7.1,20.25c-16.59-6.21-35.02-15.56-43.93-31.48l11.99,3.5c2.92-2.78-12.05-7.68-8.99-12.99l14.99,5.99-7.51-7.99c2.26-7.16,18.8,6.87,19.51,5.99Z" fill="#fff"/>
  <path d="M362.99,562.89l-.98,11.51c-30.68,10.59-67.39,12.14-98.09.82l1.08-10.34c32.04,8.35,66.38,7.94,97.99-1.99Z" fill="#fff"/>
  <path d="M30.01,426.88c3.06-.19,3.43-4.83,5.94-7.54,3.48-3.76,9.68-7.72,15.04-7.44-.25,8.13-6.04,14.83-9.97,21.5,1.47,1.93,1.17,1.17,2.63.67,1.85-.64,17.2-11.3,18.35-5.65-1.19,5.67-12.46,14.77-17.75,15.27-1.45.14-27.02-5.08-28.6-5.95-6.11-3.36-10.69-13.26-10.54-20.18.97-2.97,6.16-.35,7.84.88,4.79,3.49,3.9,10.69,9.04,10.45-2.41-7.05-5.16-16.94-1.46-24,.58-1.1-.14-2.45,1.96-2.02,6.75.76,7.7,18.73,7.51,24.02Z" fill="#fff"/>
  <path d="M504,377.89l-1.96,51.33c-.24.8-8.46,3.67-9.41,3.48-1.6-.32-11.91-16.88-12.38-19.55-1.82-10.22,3.8-22.5,1.75-33.26l22-2Z" fill="#fff"/>
  <path d="M5,540.89l10.95-.94c.34,7.16,3.66,13.31,11.01,14.99-3.55,8.89-4.59,16.41,1.66,24.47l-23.62,29.48v-68Z" fill="#fff"/>
  <path d="M56.01,713.88c1.33,1.46,9.1-6.6,15.3-2.79,8.13,8.64-4.25,11.19-11.3,11.81-.97,1.45,11.84,9.27,4.56,14.07-5.66,3.73-13.3-.35-15.22-6.16-4.01-.77-8.06,8.15-16.4,5.63-8.49-2.56-.7-11.02,4.93-11.66l.11-2.88c-5.52.32-15.61-4.18-9.94-10.44,6.6-5.01,15.84,3.65,16.93,2.43-3.91-21.34,15.92-19.83,11.01,0ZM48.76,715.08c-18.63,2.21,5.23,26.18,9.05,4.55-1.63-3.26-5.5-4.97-9.05-4.55Z" fill="#fff"/>
  <path d="M503.88,505.02c4.65,12.66,2.81,26.81,2.99,40.24l-20.86,6.63c-2.56-7.67,2.94-12.31,4.53-19.96,1.91-9.15.8-18.86-.54-28.04l13.88,1.12Z" fill="#fff"/>
  <path d="M568.74,482.11c15.95-2.61,25.57,17.62,11.61,26.62-21.42,13.82-33.86-22.99-11.61-26.62Z" fill="#fff"/>
  <path d="M425.86,428.02l7.14,10.35c-7.67,8.55-41.96,15.09-45.8,1.79-3.64-12.61,11.86-7.93,18.28-8.3,6.95-.4,13.52-3.14,20.38-3.84Z" fill="#fff"/>
  <path d="M500.99,433.89c-.65,22.7-4.68,45.02,1.02,67.48l-12.97-.54c.29-3.75-2.4-7.95-2.13-11.47s7.04-8.94,6.99-17.11c-.04-5.99-5.42-11.19-5.73-13.03s8.1-17.85,3.85-23.32l8.97-2.03Z" fill="#fff"/>
  <path d="M454,782.89l-18.86-2.14-.15-6.86c5.07-.31,12.67,1.85,14.96-4.39-.55-3.5-12.9-4.44-15.94-4.62l-.02-9.99c16.46,1.76,15.79-8.99.44-9.93l-.42-13.07,16.78,11.71,3.22,39.29Z" fill="#fff"/>
  <path d="M261.8,552.07l-1.8,32.82-13.04-3.67c-.22-4.05.32-31.84,3.54-32.31l11.31,3.16Z" fill="#fff"/>
  <path d="M534.78,541.1c1.1,2.22.58,12.69-2.72,13.38-2.84.59-15.67-9.33-21.08-8.07l-1.97-27.52c4.07,3.08,6.29,8.08,9.97,11.52,2.63,2.46,15.38,9.84,15.8,10.69Z" fill="#fff"/>
  <path d="M312,625.89c.64-7.63,8.5-33.65,18.97-29.48,11.76,4.68-4.18,22.27-5.92,29.04l-13.05.44Z" fill="#fff"/>
  <path d="M141.99,365.89c-20.49-.64-28.13-29.37-4.65-31.89l4.65,31.89Z" fill="#fff"/>
  <path d="M503.65,479.98c2.63-.98,10.82,2.77,13.1,4.66,14.18,11.74-2.88,30.85-8.83,23.82-2.21-2.61-7.91-27.13-4.27-28.48Z" fill="#fff"/>
  <path d="M384,593.9c-.32,2.6-1.58,4.99-1.89,7.6-.78,6.54-.67,22.92-2.28,27.72-.36,1.05-8.72,7.17-9.82,9.67.42-9-2.37-18.25-.78-27.27.96-5.48,6.57-13.23,6.25-19.75l8.52,2.03Z" fill="#fff"/>
  <path d="M367,533.89c3.91-3.89,7.81,11.03,7.95,13.62.42,7.39-4.91,15.01,2.84,23.04-8.47,11.06-4.97,21.81-8.8,34.34-.83-.56-1.99-7.04-1.99-7.49v-63.5Z" fill="#fff"/>
  <path d="M505,419.89c13.32-1.25,21.67,15.67,11.52,25.02-1.73,1.6-13.3,7.69-13.54,2.49l2.02-27.51Z" fill="#fff"/>
  <path d="M470.42,303.47c-1.86-1.01-6.26-6.26-9.42-2.59,3.91.92,17.26,9.17,10.51,13.11-3.67,2.14-14.33-6.08-16.28-9.83-11.61-22.4,21.75-12.15,26.74.24l-5.3,3.29c-2.23-1.1-4.1-3.04-6.25-4.21Z" fill="#fff"/>
  <path d="M163.82,618.04l5.83,7.33c-.66,9.15-21.37,19.87-26.73,12.09-5.34-7.74,13.71-20.3,20.9-19.42Z" fill="#fff"/>
  <path d="M34.99,773.89c-12.95-4.49-32.11-16.3-29.98-32,14.91,2.97,25.84,17.99,29.98,32Z" fill="#fff"/>
  <path d="M77.99,750.9c-4.98,14.22-20.04,23.12-34.99,22.98,5.64-13.37,20.27-23.59,34.99-22.98Z" fill="#fff"/>
  <path d="M245.74,612.05c3.81-.97,17.28,4.61,19.79,7.81,4.67,5.94-.15,11.56-7.02,11.81-12.48.46-12.03-6.15-16.32-15.47.01-1.55,2.19-3.81,3.54-4.15Z" fill="#fff"/>
  <path d="M97,715.39c4.96-4.63,8.47,1.46,12.29,3.7,2.43,1.43,6.75.88,6.77,3.25l-.06,11.56c-6.29-.73-13.68,3.76-19.01-1.51v-17Z" fill="#fff"/>
  <path d="M530.99,761.89l-3.38,17.1c-1.99,1.62-16.93-.18-18.16-2.07l.54-12.04,21-2.99Z" fill="#fff"/>
  <path d="M546.99,340.9l3,27.99c-19.13-.83-21.55-23.37-3-27.99Z" fill="#fff"/>
  <path d="M197,716.39c1.28-4.3,13.76.11,17.99-2.5l-1.07,16.93-16.93.07c.7-3.86-.97-11.23,0-14.5Z" fill="#fff"/>
  <path d="M175.38,720.29c.12-.27,1.9-1.64,2.21-2.44,4.77,2.86,10.15,2.34,15.44,1.48l.52,14.62c-10.45,6.68-23.48-1.75-18.17-13.65Z" fill="#fff"/>
  <path d="M186,516.89c-.31-.16-1.85-4.33-3.48-6.02-3-3.11-10.46-6.3-2.83-10.79,10.41-6.12,11.14,3.13,15.77,7.85,3.14,3.19,7.91,5.16,10.54,8.96-3.71-.85-17.82,1.14-20,0Z" fill="#fff"/>
  <path d="M477.99,752.89v13s-21.93-1.06-21.93-1.06l-1.05-12.94c7.71.57,15.33,3.19,22.99,1Z" fill="#fff"/>
  <path d="M292.02,484.88c11.32,2.07,23.89,1.91,33.97-3.99-1.83,14.69-36.8,22.84-33.97,3.99Z" fill="#fff"/>
  <path d="M477,775.89l-.98,11.52-17.53.5-1.48-13.01c1.37-.57,2.96.99,3.49.99h16.5Z" fill="#fff"/>
  <path d="M476.53,613.89c13.31,3.11,11.3,11.26,17.38,20.51-1.79,3.08-10.01,5.05-12.42,2.51-.71-.75-6.44-18.57-6.48-19.61-.06-1.65.11-2.44,1.52-3.41Z" fill="#fff"/>
  <path d="M557,783.89h-15.5c-.55,0-2.29-1.17-3.33-1.17l-2.17-11.82c6.85.66,14.72,2.79,21-1.01v14Z" fill="#fff"/>
  <path d="M552.99,407.9l2,24.99c-16.83-.42-17.77-21.04-2-24.99Z" fill="#fff"/>
  <path d="M414.99,603.9c-3.07,1.97-7.91,5.7-11.5,6.04-2.13.2-17.99-2.28-18.5-3.07-.17-.26,1.1-5.91,1.58-6.05,2.9-.88,23.35,3.66,28.42,3.08Z" fill="#fff"/>
  <path d="M369.63,705.97c13.05.79,14.96,17.4.86,17.94-4.33-.5-1.46-6.4-1.39-9.51.06-2.43-2.35-7.55.53-8.42Z" fill="#fff"/>
  <path d="M269,335.39c4.42-4.74,8.94,6.26,9,9.99.08,6.13-4.05,10.1-7.5,14.51-.32.1-1.49-2.35-1.49-2.5v-22Z" fill="#fff"/>
  <path d="M121,730.89l.05-9.95c8.35-3.37,10.37.98,17.96,2.96l-2.51,6.99h-15.5Z" fill="#fff"/>
  <polygon points="400 612.9 390.73 624.62 383.01 627.89 385.01 609.88 400 612.9" fill="#fff"/>
  <polygon points="264 496.9 255.54 509.65 239.01 501.87 264 496.9" fill="#fff"/>
  <path d="M590,551.89c-.58,4.1,1.53,9.78-1.52,13-.96.23-16.13-9.3-13.48-13h15Z" fill="#fff"/>
  <path d="M270,477.39c-.01-.33-1.26-.75-1-1.49,1.05-.74,15.08,8.7,19.01,8.49l-18.01,7.5c-.12-4.81.17-9.68,0-14.5Z" fill="#fff"/>
  <path d="M411.27,562.63c-7.74-7.78,20.75-1.87,23.72-6.74,3.23,4.42-17.51,12.99-23.72,6.74Z" fill="#fff"/>
  <path d="M525.86,747.03c.47.3,1.31,4.75,2.14,5.85-2.22.47-16.41,2.63-17,2.02-.24-.25,0-5.62.12-6.89.73-.99,13.6-1.68,14.74-.98Z" fill="#fff"/>
  <path d="M352.99,472.9l-3,15.99-8.99-4.01c2.22-7.23,4.19-10.95,11.99-11.98Z" fill="#fff"/>
  <path d="M473.76,631.06c1.13-.05,2.03-.46,2.77.8l2.33,7.54c-7.21,5.41-10.84,3.55-12.82-4.95.27-1.08,6.6-3.35,7.72-3.4Z" fill="#fff"/>
  <path d="M450.01,588.89l6.88,7.29-10.39,10.69c-4.34.1,5.78-15.62,3.51-17.98Z" fill="#fff"/>
  <path d="M259.99,587.9c1.8,27.37-11.16,2.51-7.98-1.01l7.98,1.01Z" fill="#fff"/>
  <path d="M340.93,474.96l-2.95,7.47-8.98-.55c-2.34-2.27,8.19-10.69,11.94-6.93Z" fill="#fff"/>
  <path d="M372.01,518.89c.78.79-1.9,9.84-1.01,12.01-7.58,1.56-3.77-8.32-5.99-13,1.25.8,6.75.74,7,.99Z" fill="#fff"/>
  <path d="M387,429.9c-2.47,4.55-9.12,2.72-12.99,5.99v-10s12.99,4.01,12.99,4.01Z" fill="#fff"/>
  <path d="M5.11,704.78c-2.8-4.38,6.43-8.96,7.78-3.19,1.1,4.72-6.59,5.05-7.78,3.19Z" fill="#fff"/>
  <path d="M582.72,780.1c1.7-.52,3.66-.48,5.31.26,3.19,2.17-1.5,7.94-6.42,4.41l-1.6-2.35c.75-.92,1.51-1.95,2.71-2.32Z" fill="#fff"/>
  <path d="M480.99,656.88l1,9c-3.95-.23-5.09-4.86-6.98-7.5l5.98-1.5Z" fill="#fff"/>
  <polygon points="9.99 437.88 4.99 437.9 5.01 429.9 9.99 437.88" fill="#fff"/>
  <path d="M160,640.9c-1.15,2.66-3.91,4.39-5.99,1.48l5.99-1.48Z" fill="#fff"/>
  <path d="M167.99,636.9v1.98s-4.99,1.01-4.99,1.01c.82-2.09,2.72-3.38,4.99-2.98Z" fill="#fff"/>
  <path d="M454.57,103.34c13.56,13.42,27.58,32.14,36.31,49.17,1.76,3.43,7.57,20.32,8.38,21.12.57.55,7.92,2.97,10.07,4.43,6.56,4.45,11.68,12.19,13.73,19.78,17.55-10,46.15-1.19,42.36,22.11,23.98,5.11,21.07,30.84-1.57,35.29-57.31-1.52-118.48,4.27-175.39.7-12.8-.8-33.27-3.82-30.37-21.48,1.27-7.77,12.64-13.89,12.95-16.06-15.12-84.31-137.48-88.21-157.62-4.56,13.06,10.31,10.16,23.65-5.53,28.43l-174.35.6c-41.19-5.21-34.26-56.12,6.47-51.98-3.53-28.24,28.02-45.37,52.93-37.02C156.41,22.32,354.29,4.16,454.57,103.34ZM477.5,170.89c4.58-.45,10.25,0,15,0,.45,0,2.94,2.65,2.46-.45-1.5-9.7-19.79-37.96-26.57-46.44C381.89,15.81,195.44,15.29,112.17,127.56c-2.87,3.87-15.02,21.92-15.79,25.31q-.32,1.4.51,2.56c2.37,3.34,16.67,8.55,17.12,16.44l2.05-.61c64.12-140.55,290.39-139.61,352.01,2.57.65.32,7.58-2.77,9.42-2.95ZM446.99,197.89c.07-5.59,4.31-11.66,7.97-15.54,2.46-2.61,9.3-4.86,8.89-8.72-.73-6.8-19.98-34.55-25.34-40.76C353.99,34.88,170.46,53.18,118.02,175.4c10.2-5.57,23.87-7.09,33.96-.51,17.68-41.09,62.97-69.18,105.84-77.68,68.68-13.61,141.74,14.62,174.53,77.82,1.18,2.28,9.68,27.67,14.64,22.86ZM409.43,147.45c-68.66-75.62-206.85-64.77-254.41,27.96,6.83,7.77,11.18,13.13,11.96,24.03,3.07-1.41,9.02-.82,11.37-1.7,1.03-.39,7.83-16.61,9.48-19.52,47.23-83.22,187.52-72.15,216.66,20.66,8.86-6.59,19.67-8.52,30.51-6-3.84-17.33-13.9-32.59-25.57-45.43ZM393.87,216.76l6.97-17.09c-33.9-98.49-181.86-99.86-217.86-2.35,5.34,1.89,10.27,3.63,14.5,7.61,4.6,4.34,4.91,10.73,12.43,8.85,20.33-88.06,148-83.65,165.12,4.12,6.62-2.41,12.08-1.62,18.85-1.14ZM157.67,183.21c-7.06-8.44-20.5-10.83-30.68-7.83-2.93.86-10.99,6.93-12.41,6.49-11.76-42.06-75.82-32.08-70.55,12.55-35.39-8.34-51.75,38.09-11.52,44.47,15.22,2.41,32.56,1.09,47.99,1.11,42.37.05,85.01-1.81,127.55-1.55,13.6-3.49,13.54-19.99-.86-22.35-2.21-.36-5.88.94-6.14.78-.25-.15-1.18-3.96-2.22-5.33-10.33-13.5-20.85-13.79-35.83-6.67.67-7.57-.29-15.65-5.33-21.68ZM365.36,246.53c4.07,3.66,13.71,4.98,19.1,5.4,57.4,4.46,122.69-1.68,180.57-.5,20.63-7.02,16.8-25.86-3.62-29.48,4.54-16.48-10.83-26.72-25.83-24.96-6.3.74-9.63,4.95-15.06,6.9-2.41-8.07-3.04-14.33-9.63-20.4-19.25-17.73-60.44-9.02-60.9,20.4-6.72-2.37-11.51-8.02-19.5-9-11.7-1.44-26.4,3.41-30.7,15.3-1.52,4.2-.78,7.99-2.32,11.7-8.32-3.12-14.27-3.77-22.76-.78-9.88,3.48-18.44,17.25-9.36,25.42Z"/>
  <path d="M52.8,88.1c-.75-1.4-10.54-3.69-8.37-8.21,2.62-3.69,9.93-2.9,12.55-4.52,2.24-1.38,3.66-9.97,7.67-11.39,4.68.48,6.06,10.06,8.36,11.41,2.96,1.73,12.84-.03,13.86,4.21,1.27,5.31-6.99,6.78-7.74,8.97-1.25,3.66,4.44,11.6.22,13.21s-8.97-4.82-12.85-4.8c-3.65.02-8.87,8.07-12.88,6.87s.41-13.43-.82-15.74ZM65.98,68.9c-2.31-1.89-5.1,8.94-6.22,9.75-1.3.93-10.21,1.42-10.75,2.25,9.39,6.45,8.61,7.97,6.01,18.98,9.99-6.31,10.83-9.31,21.98-2l-1.87-10.32,7.86-6.19c1.08-2.67-8.76-.94-10.99-1.98-1.89-.88-4.87-8.25-6.02-10.49Z"/>
  <path d="M517.16,83.72c1.38.78,12.21-.53,12.63,3.66.36,3.57-8.45,7.11-8.72,7.64-.32.63,3.59,11.19,1.91,13.87-1.62,1.84-10.46-5.71-12.67-5.79-3.08-.11-8.29,8.03-13.33,5.8l1.48-13.06c-21.32-11.49-3.6-7.87,2.92-12.04,3.08-1.97,3.95-9.84,8.18-11.86,3.11-.49,6.78,11.34,7.58,11.79ZM510.98,76.89c-2.76-1.84-4.89,7.8-6.42,9.06-2.55,2.1-10.81,1.26-11.56,3.44,9.04,2.89,8.51,6.83,8,15.49.96,1.18,8.61-5.83,9.51-5.8.49.01,6.39,4.88,8.48,4.8-1.01-9.77-2.64-10.06,5.99-15.5-8.57-2.25-11.7-1.66-13.99-11.5Z"/>
  <path d="M68.17,286.72c1.65.94,11.18-.89,11.9,1.8,1.36,5.04-5.72,5.77-6.11,7.06-1.29,4.32,2.79,10.64,0,15.29-5.01.36-8.66-5.94-13.47-5.85s-7.48,6.98-12.54,4.44l1.14-13.94c-.32-.96-9.66-2.17-8.62-6.64,3.2-3.15,9.81-.91,12.56-2.47,2.39-1.36,3.76-11.16,7.52-11.58,4.75-.98,5.74,10.81,7.65,11.89ZM75.99,288.9c-11.9,1.99-10.12-2.67-15.98-10-3.1,11.49-3.34,8.95-12.54,10-7.72.88,4.67,4.55,5.4,6.68,1.14,3.33-2.17,6.97-1.87,10.31,9.21-5.29,10.74-3.73,19.99,0-2.8-9.93,0-9.93,5-16.99Z"/>
  <path d="M361.64,293.54c-1.36,1.39-5.02,2.31-5.53,4.02-.74,2.48,3.96,8.84,1.88,12.32-2.2,1.22-9.19-3.99-12.51-3.88-5.52.18-15.3,15.88-11.01-6.18l-8.03-4.9c-4.54-6.39,6.03-5.24,9.64-8.44,2.43-2.15,4.5-11.59,8.29-10.46,2.83,1.94,4.58,8.18,7.23,9.76,3.7,2.2,9.08-.23,11.49,2.55l.41,2.52c-.64.87-1.11,1.92-1.87,2.69ZM358.99,288.9c-10.48,1.56-9.85-1.32-15.48-8-4.36,9.68-5.3,7.7-14.49,11.49,7.49,4.09,10.01,5.09,6.98,14.49,7.55-3.05,9.82-5.72,17.99-.99-4.48-11.1,1.85-8.88,5.01-16.99Z"/>
  <path d="M549.17,152.72c1.26.87,7.17-.21,8.83,2.68-4.52,6.01-6.64,4.72-5,13.48-7.44-1.97-8.27-3.8-15.98-.45-3.71-2.04.56-5.03-.15-7.87-.62-2.45-5.73-2.15-3.73-6.55,9.18-.48,5.68-3.22,8.81-6.68,5.02-5.57,6.37,4.79,7.22,5.38ZM546.24,154.66c-1.11-1.03-.42-3.85-2.22-3.76.04,4.03-2.18,5.35-6.01,5,3.68,2.79,3.44,3.36,2.49,7.96,3.26-3.44,4.99-.6,8.51.02-2.29-5.03,1.44-5,4-7.98-1.97-.07-5.24.16-6.76-1.25Z"/>
  <path d="M292,252.89c-2.85-3.81-3.3-13.7,0-17v17Z"/>
  <path d="M292,186.89c-2.37-3.8-3.54-12.61,0-16v16Z"/>
  <path d="M323,237.88c-4.17-1.78-8.54-5.85-10.98-9.5l10.98,9.5Z"/>
  <path d="M272,227.9l-10.98,9.5c2.43-3.65,6.81-7.72,10.98-9.5Z"/>
  <path d="M340,210.89s.05,1,0,1h-18c-.05,0-.05-1,0-1,3.1,0,16.56-.6,18,0Z"/>
  <path d="M260,210.89s.05,1,0,1h-17c-.05,0-.05-1,0-1,2.97,0,15.6-.58,17,0Z"/>
  <path d="M261.49,184.91l10.49,9.49c-4.41-1.26-8.16-5.65-10.49-9.49Z"/>
  <path d="M323,184.9c-2.97,3.68-6.39,7.84-10.98,9.5,3.23-3.48,6.38-7.71,10.98-9.5Z"/>
  <path d="M248,779.39c.28-2,4.56-13.88,3.99-14.49-14.57,9.12-32.58-5.43-14-15.99-17.08-8.69-3.54-23.35,10.53-15.14,4.75-12.94,21.29-14.29,19.49,2.12,16.69-6.94,26.67,12.14,6.99,17.02,9.8,13.43-8.28,25.01-17.98,12.46l-2.49.56-3.52,28.96c.97,1.2,8.99-8.7,10.52-9.97,7.93-6.56,24.8-13.94,34.47-9.49-17.17,40.71-74.83,35.04-89.85-4.23l1.51-2.13c17.78-.81,30.21,11.95,40.34,24.83.44-4.57-.61-10.08,0-14.5ZM265.01,739.89c3.7-19.07-14.5-15.57-13.01,0-1.35,1.6-9.14-10.04-15.99-4.48-9.46,7.69,9.82,13.19,8.99,14.47-4.43.39-13.38,5.36-10.9,10.33,6.49,9.15,13.89,2.11,21.26-1.25,3.79,12.65,25.38,8.98,17.64-2.56-1.9-2.84-5.83-2.76-5-6.49,22.19.85,17.58-18.25-2.99-10.01ZM247,799.88c-7.6-13.3-20.6-27.4-37-27.98,5.52,15.1,20.94,27.14,37,27.98ZM292,776.9c-16.44-.22-30.41,8.97-38.98,22.49.39,5.18,20.83-3.17,23.33-4.65,6.26-3.7,12.79-11.14,15.65-17.84Z"/>
  <path d="M395,761.89c-10.79,6.67-26.19-.41-13.02-11.5-12.23-8.86-1.97-18.09,10.01-12.5-.99-5.25,2.07-10.11,7.5-10.1,4.29.24,8.12,6.06,7.51,10.11,8.41-3.39,18.55,5.09,11.06,12.56-1.59,1.59-4.89,2.26-5.05,2.5-.95,1.46,6.03,21.15-14.02,11.94v20c5.96-4.45,17.37-17.22,22.01-4.6-5.86,21.05-43.3,18.56-46.93-2.77,1.93-5.72,18,.54,20.92,4.37v-20ZM407.01,749.9c4.08.03,8.09.95,10.5-3.04,1.52-8.76-8.22-8.05-13.01-2.99-3.02-.38,1.07-11.61-4.19-12.88-6.32-1.52-4.57,10.24-6.86,10.89-14.14-7.02-18.77,1.35-4.47,8.51,0,1.16-14.82,5.62-5,11.09l14.01-4.59c-.19,7.15,15.42,10.22,13.83,1.72-.67-3.6-5.5-4.81-4.81-8.72ZM391.63,783.26c-3.54-3.54-8.62-5.36-13.63-5.36.37,10.08,10.2,12.34,17.98,14.99,1.44-1.96-2.77-8.04-4.36-9.63ZM417.97,778.94c-8.81-3.16-16.07,6.21-17.96,13.95,7.38-1.7,17.2-5.22,17.96-13.95Z"/>
  <path d="M173.76,771.65c-.91.97-3.65,1.09-3.76,1.25-.21.32,2.09,2.78,1.82,5.24-1.04,9.48-12.88,7.68-18.81,3.75l-1.99,16.99c4.82-4.4,10.36-9.56,17.55-6.06,4.52,19.76-36.89,19.88-37.56,3.47-.4-9.67,13.8-1.09,16.99,1.59l2-16.99c-4.88,1.87-13.85,1.95-14.99-4.56s4.56-5.66,5.5-8.41c.53-1.56-1.41-3.46-1.23-5.39.7-7.38,8.88-8.68,13.71-3.65,7.9-14.1,11.44,1.54,12.96,2.57,1.88,1.28,5.37-.59,7.59,1.4,1.86,1.67,1.95,6.98.24,8.79ZM165,771.9c10.66-1.98,8.74-9.33-2.01-6.49-1.67-1.08,2.03-10.31-5.3-8.58-1.82.43-2.48,6.78-4.21,8.05-1.85.98-1.51-4.63-5.46-5.58-7.95-1.91-4.01,7.32-1.03,10.58-12.5,1.7-11.62,10.74,1.36,8.86l1.13-1.8-.55-7.62c7.93-7.75,17.95,3.52,7.07,9.06,1.78,5.89,12.26,6.35,12.76-.14.32-4.07-4.16-3.13-3.77-6.34ZM156.89,775.78c4.03-2.5-2.21-9.35-5.44-4.94-2.14,2.92,3.1,6.4,5.44,4.94ZM141.67,796.22c-2.04-1.6-5.05-2.53-7.67-2.33.34,6.55,5.2,10.84,11.48,11.99,3.34-.47-2.84-8.9-3.81-9.67ZM152.01,805.88c5.9-.65,13.48-3.69,13.97-10.43-1.38-5.08-15.94,5.48-13.97,10.43Z"/>
  <path d="M32.02,657.89c8.86-6.52,21.5-7.67,14.98,6.99,19.5,1.87,3.45,20.96-9,18.01,2.84-5.47,13.37-2.92,14.83-11.68.49-3.24-9.16-2.16-10.83-2.32l2.99-12.99c-1.93-2-12.79,5.47-12.06,8.95l-2.93.05c-.06-6.66-3.17-11.5-8.62-14.94-7.73,4.34-.81,12.49,1.6,17.93-2.74.11-10.07-1.03-10.74,2.5-.83,4.39,17.52,7.48,13.74,11.5-9.76-.72-26.66-15.23-7.99-17.01-9.69-15.81,8.07-25.38,14.02-6.99Z"/>
  <path d="M340.11,762.78l2.73-.1c1.1-4.26,8.17-8.01,11.69-4.81l.47,12.01,9.08,2.62c-.8,7.16-8.38,11.33-15.08,11.38.99-4.21,10.44-4.88,10.98-9.52.35-3.06-7.22-.81-8.98-1.48-.74-.66,4.95-11.57.38-12.94-5.65-1.7-8.94,10.79-10.87,9.94-9.51-22.74-15.64-13.4-9.52,6-.96,1.05-21.34-14.8-14.86-2.63,3.06,5.73,10.63,5.54,10.85,10.63-6.48.12-16.64-8.66-15.03-15.46.83-6.76,13.52,1.07,14.03.46-3.92-15.43,7.3-21.47,14.11-6.1Z"/>
  <path d="M108.01,774.89c3.17-2.58,10-3.15,11,1.52,1.6,4.21-4.65,14.14-8.5,14.5-1.56.15-1.73.12-1.5-1.5,3.32-3.39,7.41-7.36,6.99-12.51l-10.47,3.99-3.15-14.92c-7.57-.87-7.69,7.41-7.37,12.92-1.46,1.76-9.07-11.91-12.94-5.38l8.94,14.38c-7.64,2.38-14.14-12.97-10.02-17.51,4.23-3.2,6.76-.38,10.5,1.53l9.15-9.74c7.21.07,6.6,7.38,7.38,12.73Z"/>
  <path d="M192.85,794.05c4.67,11.71.16,12.81-3.81,1.29l3.81-1.29Z"/>
  <path d="M15.99,777.9c.37,1.2-1.3,11.92-3.48,10.98-2.46-1.78.28-11.22,3.48-10.98Z"/>
  <path d="M57.01,787.9c4.93-1.92,6.18,9.2,3.49,8.97l-3.49-8.97Z"/>
  <path d="M309.01,798.9c4.19-.91,6.82,5.33,3.49,7.97-2.51-2.03-3.89-4.66-3.49-7.97Z"/>
  <path d="M204.99,794.9l-5.48,8.98c-4.21-1.59,4.24-10.31,5.48-8.98Z"/>
  <path d="M69.99,788.9c1.09,1.28-2.05,8.56-4.99,7.99-.35-3.2,1.17-7.8,4.99-7.99Z"/>
  <path d="M322.99,798.9c.5.49-2.24,7.31-4.48,6.99-3.71-.53,1.33-8.91,4.48-6.99Z"/>
  <path d="M511.99,801.9c.65.73-2.18,8.7-4.99,7.99-.64-3.58.93-7.57,4.99-7.99Z"/>
  <path d="M394.99,702.88c-1.28,1.53-7.19-5.77-5.99-6.99,3.47.66,6.88,3.06,5.99,6.99Z"/>
  <path d="M500.99,809.88c-2.89.69-6.31-9.19-3.49-8.97,2.24,2.39,3.8,5.63,3.49,8.97Z"/>
  <path d="M301.8,802.14c.59.35,4.89,5.97,1.7,6.72-1.92-2.1-5.06-3.68-4.49-6.97.93.05,1.92-.27,2.79.25Z"/>
  <path d="M407.99,696.9c.72.66-3.97,7.99-5.99,5.99.2-3.05,2.52-6.58,5.99-5.99Z"/>
  <path d="M399.99,694.9l-1.49,6.97c-2.03.01-2.67-7.77,1.49-6.97Z"/>
  <polygon points="101 787.9 99.49 789.88 97.01 789.88 97.01 787.9 101 787.9"/>
  <path d="M339.99,781.9c.62.82-.74,2.93-1.98,2.99-.8-1.61.69-4.69,1.98-2.99Z"/>
  <path d="M539.74,449.13c21.29-3.37,21.87,23.35,5.49,25.54-18,2.4-22.62-22.82-5.49-25.54ZM550.67,454.21c-7.78-8.36-24.78,3.28-15.7,14.2s24.96-4.24,15.7-14.2Z"/>
  <path d="M525.73,383.13c16.99-3.51,21.08,18.24,8.84,22.84-18.36,6.9-25-19.5-8.84-22.84ZM535.68,388.21c-8.41-9.73-22.35,4.54-12.72,13.22s20.03-4.77,12.72-13.22Z"/>
  <path d="M484.99,337.88c-6.19-.62-5.19-11.81-12.98-2.47l-2.99-1.01c3.76-11.1,15.74-7.17,15.96,3.48Z"/>
  <path d="M513.99,345.88c-4.38-.12-1.61-5.36-5.95-6.57-4.74-1.31-7.07,4.52-7.54,4.55-3.73-2.39.75-6.76,3.46-7.55,6.33-1.84,11.41,3.26,10.03,9.56Z"/>
  <path d="M453.01,359.88c-.52-.54-.28-6.59,2.48-5.99,3.86.85.09,8.66-2.48,5.99Z"/>
  <path d="M475.87,363.78c-4.2,2.36-5.32-3.06-2.36-3.88,3.58-.99,3.67,3.14,2.36,3.88Z"/>
  <path d="M544.5,608.34c4.67.08,9.14,5.82,5,9.53l-4.13-5.91c-3.12-1.16-4.09,1.86-5.37,2.44-4.99,2.24-2.29-6.17,4.5-6.06Z"/>
  <path d="M512.02,606.89l-3.58-5.04-6.43,4.05c-.99-4.54,4.65-9.38,8.96-7.51,2.49,1.08,6.44,8.67,1.05,8.51Z"/>
  <path d="M523,632.88l-12.5-3.01-1.5-1.97c5.59-.5,10.76-.25,13.99,4.98Z"/>
  <path d="M505.77,639.13c.94.5,4.06,5.99,3.22,7.76-2.9-1.98-3.61-6.47-7.99-6.01-1.08-2.87,3.45-2.44,4.77-1.75Z"/>
  <path d="M60,525.9c-24.55-4.02-14.31-33.87,8.28-28.8,3.23.73,7.12,5.66,9.19,5.76,1.96.09,8.33-4.14,11.1-4.9,12.85-3.54,25.42-4.4,38.42-1.06.88-17.04,28.87-15.15,30.81.77,1.14,9.33-6.79,11.78-6.81,14.71,0,1.42,5.97,9.17,7.2,11.82,35.85,77.11-126.57,81.76-98.2,1.71ZM146.04,509.94c13.09-4.23,9.16-22.29-4.56-22.08-11.66.18-10.93,12.14-13.11,12.97-17.72-5.6-37.27-3.02-52.85,7.08-16.46-23.29-42.33,10.9-11.51,15.99-9.65,29.23,1.39,50.18,31.8,55.69,32.24,5.84,76.55-10.07,61.07-50.07-2.85-7.37-8.92-12.43-10.83-19.58Z"/>
  <path d="M198.99,337.9c1.12,13.1-23.18,12.58-18.5,0,6.85,11.27,10.5,5.32,18.5,0Z"/>
  <path d="M239.8,337.14c3.91,2.36,6.01,11.75,13.7.77,3.16,1.83-.32,6.21-2.75,7.22-6.51,2.72-13.54-1.2-13.75-8.24.92.06,1.93-.28,2.79.24Z"/>
  <path d="M192,316.9c.93,1.51-16.07,6.47-18,6.97,3.67-5.8,11.52-9.25,18-6.97Z"/>
  <path d="M238,317.88c4.79-4.77,14.23-1.48,17.97,3.51,0,3.17-8.24-1.77-9.74-2.24-2.32-.72-5.7-.1-8.24-1.28Z"/>
  <path d="M200.9,371c.28.21,1.47,4.33,3.88,5.84,6.8,4.25,15.43,4.07,22.58.91,2.34-1.04,4.04-5.7,7.64-3.36-7.33,12.44-33.73,11.94-36.99-3.49.88.11,2.36-.29,2.89.1Z"/>
  <path d="M375.01,396.9c5.03.59,5.88,5.91,11.55,6.93,1.99.36,5.87.34,7.88-.01,1.32-.23,9.47-5.54,9.54-2.43-6.57,9.82-27.22,8.69-28.97-4.49Z"/>
  <path d="M391.99,374.9c-.79,4.93-9.55,4.37-10.03,9.55-.61,6.5,11.2,3.31,8.04,6.43-19.48,1.71-11.85-13.21,2-15.98Z"/>
  <path d="M422.99,386.88c-4.47-.44-2.39-6.25-6.97-7.6-3.36-.99-5.38,1.43-7.54,3.6-2.89,1.21-1.77-4.66,3.24-5.78,6.86-1.54,12.64,2.52,11.27,9.78Z"/>
  <path d="M377.02,374.88c-.78-4.5-4.07-4.64-7.81-3.31-.29.11-6.36,5.71-4.08-.05,2.26-5.7,13.22-4.76,14.84,1.87l-2.95,1.49Z"/>
  <path d="M427.99,370.88l-14.99-8.99c6.03-.92,14.47,2.29,14.99,8.99Z"/>
  <path d="M382.91,354.99c.36.47-.03,2.04.08,2.9h-14.99c-.14-5.07,13.63-4.6,14.91-2.9Z"/>
  <path d="M307.99,656.9c1.59,4.74-5.58,4.3-6.05,5.62-1.28,7.83,4.08,2.84,9.05,2.38.71,5.59-8.1,5.77-12.05,4.55-2.18-.68-9.41-6.74-5.44-8.53l5.49,3.98-.98-8.99c5,2.49,4.33,3.61,9.99,1Z"/>
  <path d="M326.99,656.89l-2.52-4.06c-4.27-1.07-5.47,5.46-8.45,1.56,4.28-7.85,11.43-6.92,10.97,2.5Z"/>
  <path d="M299.99,650.88c-3.21,1.43-3.59-2.89-4.48-2.96-.31-.02-7.06,4.34-5.5.49,2.1-5.2,10.11-3.97,9.98,2.48Z"/>
  <path d="M466.99,604.9c2.23,2.43-11.74,11.04-13.99,11.99-2.59-2.83,13.04-13.02,13.99-11.99Z"/>
  <path d="M406,631.88c-.22-.23.96-4.72-.01-5.99-15.61,5.8-4.66-4.87.96-2.51,6.05,2.53,1.84,11.46-.95,8.5Z"/>
  <path d="M421.01,640.89l1.39-4.09c4.43-3.44,13.62,1.38,8.09,7.06l-3.06-5.97-6.43,2.99Z"/>
  <path d="M429,602.88c-3.26,3.34-7.65-12.96-6.98-14.99,2.34.77,7.57,14.39,6.98,14.99Z"/>
  <path d="M380.99,642.9c.99,1.01-1.2,6.03-2.49,5.97-3.61-.15-.36-8.88,2.49-5.97Z"/>
  <path d="M396.99,652.9c2.45,2.22-4.31,5.84-4.99,2.48-.49-2.43,4.24-3.15,4.99-2.48Z"/>
  <path d="M308,458.9c-7.25,11.26-27.37,8.29-29-5.5l2-1.03c5.14,13.67,15.83,12.1,26.99,6.53Z"/>
  <path d="M297.01,436.89c1.85,5.12-6.54,1.93-7.91,5.62-1.74,4.65,3.6,4.82,6.9,4.39-2.31,6.34-12.25,1-10.86-4.28,1.01-3.83,7.94-7.1,11.86-5.72Z"/>
  <path d="M326.99,447.88c-4.08.15-2.45-5.12-5.22-6.34-5.55-2.43-9.45,2.77-9.76,2.35,1.9-11.58,17.28-7.29,14.98,3.99Z"/>
  <path d="M284.99,435.88c-6.44-3.27-6.52-7.27-13.5-1.02-3.31-1.74.56-5.36,2.77-6.22,5.66-2.21,11.61.69,10.73,7.24Z"/>
  <path d="M333.99,434.89c-4.54-5.23-9.15-6.42-14.97-9.5,5.85-4.62,15.98,2.47,14.97,9.5Z"/>
  <path d="M287.99,418.88l-12.97-1.49c3.69-4.6,11.67-4.89,12.97,1.49Z"/>
  <path d="M26.99,461.9c-1.28,4.24-4.97,6.99-4,12-6.56,1.23-2.19-12.57,4-12Z"/>
  <path d="M12.01,464.9c1.81-1.97,7.57,7.96,4.49,9.97l-4.49-9.97Z"/>
  <path d="M36.99,467.9c1.1,1.04-5.57,8.33-7.99,6.99-1.45-1.31,6.63-8.28,7.99-6.99Z"/>
  <path d="M424.99,532.9c3.61,3.75-13.94,11.35-22.51,3.01-2.11-2.05-4.36-7.17-.48-7.53,4.55,11.23,14.03,9.8,22.99,4.52Z"/>
  <path d="M414.01,523.9c.42,4.15-5.36,2.37-7.11.56-5.13-6.79,12.68-12.04,9.63-7.56l-7.51,4.51,5,2.49Z"/>
  <path d="M437.71,518.18c.99.96,3.48,6.32.77,6.7-4.4-3.89-3.11-6.81-10.48-4-.62-5.74,6.5-5.83,9.7-2.71Z"/>
  <path d="M394.01,513.88c-.65-3.46,3.22-6.15,6.41-5.97,6.44.36,6.45,9.33,3.57,7.5-2.55-5.73-5.52-3.32-9.99-1.52Z"/>
  <path d="M445.99,513.88l-11.99-6.98c5.17-1.4,11.44,1.16,11.99,6.98Z"/>
  <path d="M408.99,501.89l-10.97-1.5c2.27-3.32,6.54-3.03,10-2.02l.97,3.52Z"/>
  <path d="M219,656.9c4.87.66,7.46-2.94,10.5-5.98,4.23,3.41-2.76,8.26-6.06,8.92-3.8.76-22.23,2.4-21.44-4.42.38-3.29,7.33,4.2,11.99,1.99,2.32-1.1,1.9-5.91.79-7.28s-8.1-1.03-6.78-6.22c5.73,2.78,8.86,5.37,13.49-.98,3.75,5.5-6.44,5.86-2.5,13.98Z"/>
  <path d="M197.99,638.88c-3.71,1.26-3.14-3.34-5.46-3.05-4.18.52-2.92,5.3-4.53,6.57-7.31-6.51,8.76-15.33,9.99-3.52Z"/>
  <path d="M235.99,633.88l-5.51-2.83c-6.41,11.77-7.81-1.02-1.76-1.97,3.52-.55,7.88.37,7.27,4.79Z"/>
  <path d="M48.76,715.08c3.55-.42,7.43,1.29,9.05,4.55-3.83,21.63-27.69-2.34-9.05-4.55ZM53.75,718.15c-3.38-3.26-11.28.57-8.29,5.74s12.73-1.46,8.29-5.74Z"/>
  <path d="M157.67,183.21c5.04,6.02,6,14.1,5.33,21.68,14.97-7.12,25.5-6.83,35.83,6.67,1.04,1.36,1.97,5.17,2.22,5.33.26.16,3.94-1.14,6.14-.78,14.39,2.36,14.46,18.86.86,22.35-42.54-.27-85.18,1.6-127.55,1.55-15.44-.02-32.77,1.3-47.99-1.11-40.24-6.38-23.87-52.8,11.52-44.47-5.27-44.63,58.79-54.61,70.55-12.55,1.42.44,9.48-5.62,12.41-6.49,10.18-3,23.62-.61,30.68,7.83Z" fill="#fff"/>
  <path d="M365.36,246.53c-9.08-8.17-.52-21.94,9.36-25.42,8.49-2.99,14.43-2.34,22.76.78,1.54-3.71.8-7.5,2.32-11.7,4.3-11.89,19-16.74,30.7-15.3,7.98.98,12.78,6.62,19.5,9,.46-29.42,41.65-38.13,60.9-20.4,6.59,6.07,7.22,12.32,9.63,20.4,5.44-1.96,8.76-6.16,15.06-6.9,15-1.76,30.37,8.48,25.83,24.96,20.42,3.62,24.25,22.46,3.62,29.48-57.88-1.19-123.17,4.96-180.57.5-5.4-.42-15.03-1.74-19.1-5.4Z" fill="#fff"/>
  <path d="M477.5,170.89c-1.84.18-8.77,3.27-9.42,2.95-61.62-142.17-287.89-143.12-352.01-2.57l-2.05.61c-.45-7.9-14.76-13.1-17.12-16.44q-.83-1.17-.51-2.56c.77-3.39,12.91-21.44,15.79-25.31,83.27-112.27,269.72-111.75,356.22-3.56,6.78,8.48,25.06,36.74,26.57,46.44.48,3.1-2.01.45-2.46.45-4.75,0-10.42-.45-15,0Z" fill="#fff"/>
  <path d="M409.43,147.45c11.66,12.85,21.73,28.1,25.57,45.43-10.84-2.52-21.64-.59-30.51,6-29.13-92.8-169.42-103.88-216.66-20.66-1.65,2.91-8.46,19.13-9.48,19.52-2.35.89-8.3.3-11.37,1.7-.79-10.91-5.13-16.27-11.96-24.03,47.56-92.73,185.75-103.58,254.41-27.96Z" fill="#fff"/>
  <path d="M393.87,216.76c-6.77-.48-12.23-1.27-18.85,1.14-17.12-87.77-144.79-92.18-165.12-4.12-7.52,1.88-7.83-4.52-12.43-8.85-4.23-3.98-9.16-5.72-14.5-7.61,36-97.51,183.96-96.14,217.86,2.35l-6.97,17.09Z" fill="#fff"/>
  <path d="M446.99,197.89c-4.96,4.81-13.45-20.58-14.64-22.86-32.79-63.2-105.86-91.43-174.53-77.82-42.86,8.5-88.16,36.58-105.84,77.68-10.09-6.58-23.76-5.06-33.96.51,52.43-122.22,235.96-140.52,320.49-42.52,5.36,6.21,24.61,33.96,25.34,40.76.41,3.86-6.42,6.11-8.89,8.72-3.66,3.87-7.9,9.94-7.97,15.54Z" fill="#fff"/>
  <path d="M65.98,68.9c1.15,2.25,4.13,9.61,6.02,10.49,2.23,1.05,12.07-.69,10.99,1.98l-7.86,6.19,1.87,10.32c-11.15-7.3-11.99-4.31-21.98,2,2.6-11.02,3.38-12.53-6.01-18.98.55-.83,9.45-1.32,10.75-2.25,1.13-.81,3.91-11.64,6.22-9.75Z" fill="#fff"/>
  <path d="M510.98,76.89c2.3,9.84,5.43,9.25,13.99,11.5-8.63,5.44-7,5.73-5.99,15.5-2.08.07-7.99-4.79-8.48-4.8-.89-.03-8.55,6.98-9.51,5.8.51-8.65,1.04-12.6-8-15.49.75-2.18,9.01-1.33,11.56-3.44,1.53-1.26,3.65-10.91,6.42-9.06Z" fill="#fff"/>
  <path d="M75.99,288.9c-5,7.06-7.8,7.06-5,16.99-9.25-3.73-10.78-5.29-19.99,0-.31-3.34,3-6.98,1.87-10.31-.73-2.14-13.11-5.8-5.4-6.68,9.2-1.05,9.43,1.49,12.54-10,5.86,7.33,4.08,11.99,15.98,10Z" fill="#fff"/>
  <path d="M358.99,288.9c-3.15,8.11-9.49,5.9-5.01,16.99-8.16-4.73-10.44-2.06-17.99.99,3.03-9.41.51-10.4-6.98-14.49,9.19-3.79,10.13-1.82,14.49-11.49,5.62,6.68,5,9.56,15.48,8Z" fill="#fff"/>
  <path d="M546.24,154.66c1.51,1.4,4.78,1.17,6.76,1.25-2.56,2.98-6.29,2.95-4,7.98-3.52-.62-5.25-3.46-8.51-.02.96-4.61,1.19-5.17-2.49-7.96,3.83.35,6.05-.97,6.01-5,1.8-.09,1.11,2.73,2.22,3.76Z" fill="#fff"/>
  <path d="M265.01,739.89c20.57-8.25,25.18,10.86,2.99,10.01-.82,3.74,3.1,3.65,5,6.49,7.73,11.54-13.85,15.22-17.64,2.56-7.36,3.37-14.77,10.41-21.26,1.25-2.49-4.97,6.47-9.94,10.9-10.33.83-1.28-18.45-6.78-8.99-14.47,6.84-5.56,14.64,6.08,15.99,4.48-1.49-15.57,16.71-19.07,13.01,0ZM253.71,742.11c-9.06,2.12-7.25,15.27,2.55,14.56,11.9-.87,11.55-17.86-2.55-14.56Z" fill="#fff"/>
  <path d="M292,776.9c-2.86,6.7-9.39,14.15-15.65,17.84-2.5,1.48-22.94,9.83-23.33,4.65,8.57-13.52,22.53-22.71,38.98-22.49Z" fill="#fff"/>
  <path d="M247,799.88c-16.06-.84-31.48-12.87-37-27.98,16.4.58,29.4,14.68,37,27.98Z" fill="#fff"/>
  <path d="M407.01,749.9c-.69,3.91,4.14,5.12,4.81,8.72,1.58,8.5-14.02,5.43-13.83-1.72l-14.01,4.59c-9.82-5.47,5-9.93,5-11.09-14.3-7.15-9.67-15.52,4.47-8.51,2.29-.65.55-12.41,6.86-10.89,5.26,1.26,1.17,12.5,4.19,12.88,4.79-5.06,14.53-5.77,13.01,2.99-2.41,3.99-6.42,3.07-10.5,3.04ZM403.76,753.65c7.77-7.72-10.7-16.22-10.76-4.26-.03,6.18,7.81,7.19,10.76,4.26Z" fill="#fff"/>
  <path d="M391.63,783.26c1.59,1.59,5.8,7.68,4.36,9.63-7.78-2.65-17.61-4.91-17.98-14.99,5,0,10.09,1.82,13.63,5.36Z" fill="#fff"/>
  <path d="M417.97,778.94c-.77,8.72-10.58,12.25-17.96,13.95,1.89-7.74,9.15-17.11,17.96-13.95Z" fill="#fff"/>
  <path d="M165,771.9c-.39,3.2,4.09,2.27,3.77,6.34-.51,6.49-10.98,6.03-12.76.14,10.88-5.54.86-16.81-7.07-9.06l.55,7.62-1.13,1.8c-12.98,1.87-13.86-7.16-1.36-8.86-2.98-3.26-6.92-12.48,1.03-10.58,3.95.95,3.61,6.56,5.46,5.58,1.72-1.26,2.39-7.62,4.21-8.05,7.34-1.73,3.64,7.5,5.3,8.58,10.74-2.84,12.67,4.51,2.01,6.49Z" fill="#fff"/>
  <path d="M152.01,805.88c-1.96-4.95,12.59-15.51,13.97-10.43-.49,6.73-8.07,9.78-13.97,10.43Z" fill="#fff"/>
  <path d="M141.67,796.22c.97.76,7.15,9.2,3.81,9.67-6.28-1.15-11.13-5.44-11.48-11.99,2.61-.2,5.63.72,7.67,2.33Z" fill="#fff"/>
  <path d="M156.89,775.78c-2.34,1.46-7.59-2.02-5.44-4.94,3.23-4.41,9.47,2.44,5.44,4.94Z" fill="#fff"/>
  <path d="M550.67,454.21c9.26,9.96-6.53,25.22-15.7,14.2s7.91-22.56,15.7-14.2Z" fill="#fff"/>
  <path d="M535.68,388.21c7.31,8.46-3.5,21.54-12.72,13.22s4.31-22.96,12.72-13.22Z" fill="#fff"/>
  <path d="M146.04,509.94c1.91,7.15,7.98,12.21,10.83,19.58,15.48,40-28.83,55.9-61.07,50.07-30.41-5.5-41.46-26.45-31.8-55.69-30.82-5.09-4.94-39.28,11.51-15.99,15.58-10.11,35.13-12.68,52.85-7.08,2.19-.83,1.46-12.79,13.11-12.97,13.72-.21,17.66,17.85,4.56,22.08ZM144.99,496.9c-5.48-.86-6.85,3.23-9.97,6.49,3.54,4.13,6.23-4.95,9.97-6.49ZM69.99,515.88l-1.99-6.5-10-.49c-.57,3.37,4.24,1.4,7.39,3.1,2.51,1.35,1.66,4.38,4.59,3.89ZM142.99,531.88c-7.69-16.73-20.23,4.99-12.51,3,1.93-.5.23-10.32,12.51-3ZM96.99,537.88c-1-9.62-14.86-7.04-13.99,2,4.27,1.06,2.37-2.03,3.98-3.47,4.65-4.15,8.81,2.72,10.01,1.47ZM127.69,545.6c10.62-13.5-31.83-7.24-22.24,1.34,2.3,2.06,9.41,3.18,12.55,2.94l-.16,12.85c-4.95,2.25-12.02,3.66-16.53-.17-1.86-1.58-1.78-6.6-5.33-4.17.95,8.35,10.29,10.61,17.45,9.42,3.75-.63,8.23-2.09,12.94-2.97,6.5-1.22,10.59-5.13,10.62-11.95-5.32,2.49-5.44,10.37-13.33,9.06l-2.72-12.38c.31-1.09,5.55-2.45,6.75-3.98Z" fill="#fff"/>
  <path d="M53.75,718.15c4.44,4.28-5.24,11.02-8.29,5.74s4.91-9,8.29-5.74Z" fill="#fff"/>
  <path d="M253.71,742.11c14.1-3.31,14.45,13.69,2.55,14.56-9.8.71-11.61-12.44-2.55-14.56ZM253.71,745.1c-8.73,2.78,4.31,16.58,8.39,3.29.59-4.25-5.4-4.24-8.39-3.29Z"/>
  <path d="M403.76,753.65c-2.95,2.93-10.79,1.92-10.76-4.26.06-11.97,18.53-3.46,10.76,4.26ZM401.9,750.79c1.22-2.07-.68-6.39-3.94-4.44-4.86,2.91,2.16,7.46,3.94,4.44Z"/>
  <path d="M127.69,545.6c-1.2,1.52-6.43,2.88-6.75,3.98l2.72,12.38c7.89,1.31,8.01-6.57,13.33-9.06-.04,6.81-4.12,10.73-10.62,11.95-4.71.88-9.19,2.35-12.94,2.97-7.16,1.19-16.5-1.07-17.45-9.42,3.55-2.43,3.48,2.59,5.33,4.17,4.51,3.83,11.58,2.42,16.53.17l.16-12.85c-3.14.24-10.25-.88-12.55-2.94-9.6-8.58,32.86-14.84,22.24-1.34Z"/>
  <path d="M142.99,531.88c-12.28-7.32-10.58,2.5-12.51,3-7.72,1.99,4.82-19.73,12.51-3Z"/>
  <path d="M96.99,537.88c-1.2,1.25-5.36-5.62-10.01-1.47-1.61,1.44.29,4.54-3.98,3.47-.87-9.04,12.99-11.62,13.99-2Z"/>
  <path d="M69.99,515.88c-2.94.49-2.08-2.54-4.59-3.89-3.16-1.7-7.96.27-7.39-3.1l10,.49,1.99,6.5Z"/>
  <path d="M144.99,496.9c-3.74,1.54-6.43,10.62-9.97,6.49,3.12-3.26,4.49-7.35,9.97-6.49Z"/>
  <path d="M253.71,745.1c2.99-.95,8.98-.97,8.39,3.29-4.08,13.29-17.11-.51-8.39-3.29Z" fill="#fff"/>
  <path d="M401.9,750.79c-1.78,3.02-8.8-1.53-3.94-4.44,3.26-1.95,5.15,2.37,3.94,4.44Z" fill="#fff"/>
</svg>