<?xml version="1.0" encoding="UTF-8"?>
<svg id="Camada_1" xmlns="http://www.w3.org/2000/svg" version="1.1" viewBox="0 0 595.28 841.89">
  <!-- Generator: Adobe Illustrator 29.0.0, SVG Export Plug-In . SVG Version: 2.1.0 Build 186)  -->
  <path d="M596.95.44v842H1.95V.44h595ZM591.96,5.44H6.94v549.35c3.55-.61,10.82,1.61,12.82-1.66,1.58-2.58,1.71-12.65,2.43-16.55,3.02-16.45,7.16-33.46,12.69-49.23,1.42-4.03,5.4-10.64,6.02-13.96.39-2.09.2-1.4-1.01-1.01-2.6.83-6.29,2.11-8.66,3.33-2.71,1.39-12.59,9.45-13.78,9.17-5.36-1.26,3.92-17.67,7.97-18.98l8.48-5.48c-1.95-3.99-18.64-3.55-22.3-4.67-1.03-.31-1.86-1.18-1.7-2.34,6.9-10.92,23.45-9.24,33.5-3.52l-11.49-14.96c10.19-1.1,21.23.89,21.97,12.98,8.94-5.21,16.88-8.25,26.95-3.5,1.6.75,6.08,3.76,3.4,5.57-5.89,1.78-14.05,2.29-18.39,6.91,11.02,1.7,23.08,9.27,20.96,21.98-1.23,1.28-18.78-11.12-22.95-9.98.6,2.86,2.91,4.39,4.17,7.3,3.5,8.04,1.69,14.29-2.18,21.65,12.15.25,12.81,14.02,10.75,23.25-.89,4.01-7.51,9.3-5.3,12.72l3.05,1.93c11.41-24.85,22.83-46.12,50.4-55.38,3.42-1.15,20.62-4.09,21.49-5.46,3.62-5.63-3.37-5.63-6.56-7.49-7.67-4.47-7.5-4.29-15.75-7.21-13.23-4.68-14.08-11.41-21.71-20.23-2.4-2.77-6.95-4.06-9.85-8.13-1.91-2.67-4.27-8.33-4.49-11.57-.25-3.65,1.98-7.66,1.65-9.69-.26-1.59-3.7-4.83-4.75-7.11-12.41-26.82.93-49.24,23.69-63.27,26.68-16.45,48.79-27.68,81.65-25.15,41.68,3.22,90.82,37.85,63.39,83.4,6.48,7.6,7.51,15.23,3.52,24.46-2.64,6.12-8.25,7.08-9.95,10.03-1.47,2.55-2.02,8.38-3.35,11.63-6.72,16.52-21.28,24.75-37.13,30.79-.69,2.9,9.54,3.28,11.98,3.98,7.94,2.26,15.48,5.95,22.47,10.25.62-.05,7.76-7.44,8.99-8.74,24.29-25.61,46.54-53.25,71.32-78.44,5.03-5.11,15.3-18.73,22.57-14.52l38.35,40.49c11.11-3.32,22.27-7.84,33.97-8.48.26-1.45-1.89-1.29-2.96-1.51-5.31-1.07-10.76-1.54-16.01-2.97-5.79-1.58-26.13-7.62-25.77-14.71,8.1-38.82,13.65-78.58,25.58-116.35,3.74-4.92,7.38-9.9,12.7-13.26,2.86-1.8,17.66-7.41,18.22-8.24.61-.91.2-3.12.98-4.49,8.13-14.36,33.06-16.13,44.83-4.92,1.36,1.29,1.83,4.05,3.41,5.09,2.44,1.61,11.8,2.18,15.69,3.28,21.13,5.96,45.17,18.77,47.86,43.01,1.13,10.19-3.21,18.23-2.71,27.66.58,10.9,6.53,24.39,7.99,35.49,4.5-4.14,6.03-9.3,10.96-13.49,9.72-8.28,22.97-9.71,34.95-6.48V5.44h0ZM466.09,287.04c2.4-15.12,19.71-29.73-3.14-37.17-7.82-2.54-13.85-1.88-21.43,1.09-17.73,6.94-10.47,20.41-6.34,34.69l30.91,1.39ZM502.11,269.11c1.72-2.18-22.27-8.81-24.85-6.87l-8.01,24.77,14.94,1.62c3.51-7.75,8.69-17.95,17.92-19.52ZM428.23,266.12l-13.5,4.97c-1.51,6,.43,12.16,1.54,18.01l15.54-2.94-3.58-20.04h0ZM526.07,282.1c-13.93-18.86-35.73-14.27-38.94,9l24.31,5.92c4.23-5.41,7.26-13.25,14.63-14.92ZM412.25,273.13c-6.13-.87-18.95,20.41-16.96,22.97l17.53-6.95-.58-16.02h0ZM539.05,310.07c-1.43-10.03-3.23-19.31-10.96-26.49-3.42-1.5-14.97,12.56-13.59,14.55l24.54,11.94h.01ZM536.04,327.06l1.86-13.27c-.58-1.96-8.35-6.27-10.54-7.5-30.78-17.32-89.59-24.88-122.62-12.21-8.79,3.37-12.78,5.33-10.94,16.02,46.45-12.93,99.88-5.48,142.24,16.97h0ZM525.72,366.66c14.15-15.94,2.15-40.79-14.52-24.02-2.36,2.37-3.33,7.78-7.13,5.93-2.68-1.71-3.75-12.55-4-15.98-.35-4.83,1.86-16.54-2.22-18.76-3.86-2.1-19.35-4.71-24.47-5.48-22.92-3.48-49.13-4.13-71.62,1.72-.74,3.2-1.81,6.39-2.36,9.62-2.48,14.33-5.01,37.65-2.99,51.69.66,4.62,2.6,8.93,2.88,13.61,3.97,1.04,3.05-2.97,5.15-6.34,4-6.41,10.56-7.86,17.37-9.58-.9-12.65,5.52-22.21,10.92-33.02,1.64,5.63-3.41,10.08-5.37,14.6s-7.89,17.4.32,18.41c12.22,1.51,18.37-2.75,31.18,2.77,14.77,6.36,19.48,19.88,16.31,35.13,15.51-7.11,24.47-22.37,30.91-37.51,2.11-1.36,4.95,3.6,8.4,3.54,3.02-.06,9.26-4.08,11.25-6.32h-.01ZM398.28,311.08c-11.03,1.18-8.02,18.12-11.97,25.96,2.33-.73,7.19,2.19,8.53.05.7-1.11,4.32-25.03,3.45-26.01h-.01ZM502.11,315.07v22.47c0,.84,2.54,8.01,3.51,8.48l8.57-8.38c7.32-5.94,18.82-.67,19.99,8.27l3.89-.38-3.2-16.27-32.75-14.19h-.01ZM251.32,397.76c.55-.31,5.12-9.32,5.67-10.79,14.3-37.87-30.4-65.9-63-68.76-33.03-2.9-53.63,5.33-80.56,22.02-20.85,12.92-34.33,24.55-30.39,52.02.41,2.87,4.78,16.26,8.11,15.65,7.65-9.24,20.45-5.04,26.09,4.04,2.94-.03,10.11-26.23,8.49-30.44l-8.98-.49c12.74-1.27,25.73-3.88,34.96-13.47,1.76-1.82,6.84-10.36,7.47-10.51,4-.96.24,11.14,7.73,14.22,8.94,3.67,25.61-4.88,31.61-11.8,1.59-1.83,5.09-10.75,7.05-9.4,5.97,13.42,26.09,22.2,39.67,16.19,2.05-.91,2.86-3.4,5.27-3.2.62,4.1-8.4,5.8-8.87,7.56l4.88,27.4c1.45-.15,3.58.46,4.79-.22v-.02ZM394.28,340.05c-2.32.67-7.2-2.16-8.52-.06l-4.42,22.98,11.95,2.04.99-24.96h0ZM544.9,377.86c1.23-1.97-4.83-28.13-6.8-29.37-1.01-.63-1.93-.5-3.03-.46-1.08,12.95-7.37,25.33-21.57,26.88l-1.41,5.08c10.97,0,22.09.53,32.81-2.13ZM591.96,350.03c-12.05-2.34-24.28-1.77-34,6.46-1.61,1.36-9.82,12.11-10.41,13.56-.45,1.12-.82,2.09-.51,3.32,1.41,9.25,7.99,24.49,7.67,33.3-.42,11.32-33.5,12.86-41.64,14.77,13.25,3.13,27.29,6.09,38.27,14.65,8.78,6.85,14.3,17.29,20.83,26.1l19.77,42.64v-154.82l.02.02ZM232.21,458.55c15.93-16.47,15.18-41.75,12.2-62.94-.77-5.46-2.61-17.97-4.35-22.62-1.83-4.9-7.19-2.45-11.76-3.22-5.2-.87-12.96-5.53-17.19-8.78-1.63-1.25-5.94-6.99-7.49-5.96-3.85,12.67-28.75,22.81-39.67,17.19-4.58-2.36-3.15-5.66-5.77-9.18-7.05,10.06-17.42,15.44-29.22,18.19-2.02,12.25-3.24,24.93-11.71,34.71-5.85-10.94-22.72-17.32-26.77-1.8-4.07,15.59,12.51,29.06,27.23,23.8,4.85,16.55,19.24,28.05,35.2,33.24,23.57,7.67,61.14,6.16,79.3-12.62h0ZM394.16,368.14l-12.89-2.72-3.83,21.45,23.84,5.11c-4.25-7.13-7.01-15.47-7.11-23.83h-.01ZM419.99,371.24c-11.37,1.76-21.18,14.36-14.55,25.06,10.73,17.33,44.46,20.74,61.7,14.12,12.55-4.82,6.14-26.49-2.64-33.26-9.61-7.4-32.79-7.74-44.51-5.93h0ZM426.25,412.95c-2.95,11.35-1.27,16.88,10.02,20.43,16.07,5.06,37.54,2.89,50.78-8.03,9.85-8.13,3.75-12.59,6.26-20.7.61-1.95,3.04-2.36,4.21-3.78,6.55-8,11.48-16.52,13.11-26.92-.89-.59-2.5-2.11-3.54-1.5-.77.45-6.56,13.3-8.16,15.85-15.48,24.67-45.35,32.74-72.67,24.66h0ZM545.9,380.14c-11.4.17-22.96,2.25-34.16.92l-10.62,20.9c16.22.32,32.53.15,48.34-3.87,2.25-1.52-2.59-15.3-3.56-17.95ZM353.75,401.59c-2.55-2.66-11.26-14.08-14.39-13.23-33.1,32.39-63.67,67.66-95.09,101.83l-.27,1.69c13.8,12.23,20.82,29.8,26.51,46.92.98-.32,3.24-4.43,3.42-5.04,3-9.87-4.47-7.55-5.32-10.58.03-10.93,6.47-15.42,13.73-21.95-.16-2.98-3.31-5.23-3.81-7.91-.88-4.66,1.75-8.92,1.53-10.92-.11-1.01-1.8-1.73-1.43-3.74.61-3.33,5.82-10.51,9.26-11.83,9.56-3.7,17.44,1.82,20.06,11.04,3.29,11.59-2.44,11.98-6.45,21.37,7.72,4.9,15.13,8.96,13.93,19.59l6.02-8.53c-3.91-5.99.06-9.43.01-13.96-.07-5.85-5.44-6.71,1.91-14,5.47-5.42,14.03-6.87,18.85.18.84,1.23,4.11,11.87,4.1,12.83-.05,2.48-3.27,5.77-5.95,5.51l1.1,5.9,6.85,1.06c4.19-28.12,5.22-60.7,32-77.42-8.27-10.14-17.49-19.34-26.57-28.81h0ZM424.08,412.12c-9.28-3.41-16.99-8.79-21.81-17.63l-25.94-5.51c-2.22,12.49-5.19,13.12,6.63,18.84s27.08,8.39,39.87,10.07c2.69.36,1.25-4.09,1.26-5.78h-.01ZM247.54,428.93c12.11-3.5,14.71-27,0-28.96.16,9.78,1.57,19.22,0,28.96ZM550.97,400c-15.76,4.5-31.22,3.86-47.41,4.01-1.64.01-3.67-1.01-4.83-.8-4.8.87-3.56,9.55-3.67,13.12,13.66,4.16,31.33,2.28,44.98-1.88,8.23-2.51,15.04-3.96,10.93-14.45ZM456.19,452.91c20.13-1.23,41.04-11.91,49.9-30.42l-11.28-3.6c-7.3,13.15-24.24,18.84-38.62,19.04v14.98ZM423.21,420.98l-15.93,1.97c-2.83,7.71,10.36,24.67,17.44,24.01,1.65-.15,8.84-10.75,8.55-12.49-5.64-2.5-10.35-6.72-10.07-13.5h.01ZM524.08,425.94c-4.29.76-12.64-4.63-15.99-2.53-.79.5-3.55,6.24-5,7.99-5.47,6.58-12.37,11.85-19.5,16.48-.57,1.2,5.58,11.96,8.02,12,2.67.05,14.52-9.54,17.02-11.95s17.39-19.96,15.45-21.99ZM404.16,425.06c-1.53-.99-15.27,2.8-15.77,4.51,1.85,14.62,12.61,26.61,25.27,33.26l9.56-13.42c-9.95-5.06-17.38-13-19.06-24.35ZM457.43,542.52c3.21,1.39,43.76-1.85,50.05-2.84,2.42-.38,9.64-1.54,11.09-2.89,3.63-3.35,7.94-30.39,11.2-36.5-19.01-9.42-15.07-35.8-5.9-51.09,2.91-4.84,8.17-9.81,11.58-14.38.86-1.15,3.22-3.31,1.6-4.4-2.11-1.43-7.32-1.73-10-3.07-25.76,49.61-104.42,66.88-137.27,15.56-2.64-.65-8.61,10.89-9.51,13.44-4.49,12.75-4.3,25.92-3.96,39.01.35,13.78,1.34,27.44,3.9,41.04.7.9,1.57,1.15,2.64,1.36,5.79,1.16,26.94,3.8,31.86,2.98,14.86-2.48,28.91-4.19,42.72,1.78h0ZM375.19,574.63c3.44-6.21.96-12.57,1.19-18.29.38-9.39.78-14.81.02-24.11-1.98-24.22-8.09-62.26,5.08-83.65,4.74-7.69,9.24-7.03,4.82-18.64-26.38,12.27-30.83,41.6-34.79,67.56-2.95,19.3-6.39,44.51-7.11,63.79-.08,2.26-.67,7.78.96,9.01,2.22,1.66,28.08,5.46,29.84,4.33h0ZM555.03,571.76c7.57-6.7,16.04-13.08,22.98-20.45,2.43-2.58,12.45-14.16,13.41-16.55s1.01-21.06.48-24.37c-1.14-7.13-20.46-45.19-25.26-52.63-3.92-6.08-19.16-26.56-26.9-24.9-1.41.3-15.52,20.33-16.85,23.34-4.98,11.3-7.43,31.79,4.18,39.65.34-2.98-7.42-10.39-2.98-11.5l21.49,35.52,3.46-.05-19.96,27.95c12.17,2.31,23.07,11.8,25.97,23.98h-.02ZM454.19,437.93l-18.29-1.9-7.64,12.29c.98,3.27,21.25,5.53,24.94,4.59l.99-14.98h0ZM51.87,450.91c.74-9.35-6.58-14.79-15.47-13.99,2.08,4.14,6.42,7.21,8.91,11.06.62.95,3.23,5.25,2.56,5.92-10.15-4.14-18.19-9.66-29.48-5.03-1.33.55-7.04,3.66-5.45,5.03,9.13.55,19.41,2.11,26.95,7.5-10.02,2.7-20.68,9.21-21.95,20.47l15.29-9.17,12.66-3.81-6.98,14.97,7.89-.09,3.59-10.87c6,6.02,10.43,13.27,13.97,20.95,7.49-9.96,1.34-20.52-6.48-27.95,10.04-.15,18.17,6.32,26.95,9.97.4-11.89-14.86-17.63-24.95-17.98,5.19-5.81,13.84-6.48,20.5-8.96,1.24-.46,1.84.7,1.46-2-6.98-2.92-13.11-3.52-20.24-.79-3.9,1.49-5.96,4.54-9.7,4.77h-.03ZM124.16,454.49c-1.64-2.18-7.53-12.62-8.35-13.08-.62-.35-7.77,1.31-10.02-.49-2.61,2.73,16.53,20.97,21.95,17.48-.72-1.55-2.79-2.86-3.58-3.91h0ZM481.07,448.96l-24.44,6.89,1.51,15.63c10.77.44,20.17-5.14,29.95-8.63l-7.02-13.89h0ZM454.2,454.9c-10.21,1.4-19.4-2.6-29.28-3.86l-8.66,13.84c12.33,5.21,25.44,7.76,38.93,7l-.99-16.98ZM304.44,474.88c-3.53-9.31-15.14-10.22-20.95-2.48-.42,2.26.99,1.37,2.47,1.48,6.12.45,12.38,0,18.48.99h0ZM204.6,474.88c-18.46,4.31-37.13,3.62-54.89-3-1.09,7.31-2.52,8.22,2.98,13.49,7.05,6.75,22.63,14.58,32.47,13.5,8.78-.96,22.63-14.12,19.44-23.99ZM305.43,479.87c3.07-2.59-11.3-4.89-12.49-4.97-3.86-.25-8.45-.32-11.46,2.48l23.95,2.49h0ZM63.84,496.84l-12.96-19.96c-5.6,19.9-9.78,40.29-11.98,60.92l9.04-8.42,5.93-2.58c-.86-6.41-8.27-5.02-5.78-13.26.33-1.11,5.37-10.79,6.23-11.74,2.25-2.47,6.24-4.44,9.53-4.96h-.01ZM145.66,477.92l-12.86,3.57c5.99,31.12,3.25,62.83,1.92,94.27l20.98,1c-.3-13.88,1.25-27.6,1.04-41.5-.18-11.93-.77-33.43-3.25-44.69-1.02-4.64-8.34-6.98-7.83-12.65h0ZM219.41,482.05l-12.77-2.14c-4.12,12.85.84,26.3,1.95,39.42,1.6,19.05.63,38.35,2.01,57.42l16.97-1c.51-31.45-1.04-63.07-8.17-93.72v.02ZM301.43,480.89l-18.85-.91-.1,10.88c1.77.63,2.5-1.68,3.46-1.66.69.01,1.75,1.54,3.05,1.66,1.67.15,3.28-1.14,4.93-.99s2.93,2.49,4.88,1.95c3.06-.84,2.83-8.34,2.62-10.92h.01ZM342.37,486.86c-1.3-5.01-6.46-7.76-11.41-6.95-1.68.27-7.05,2.69-3.18,4.07,1.4.5,14.04,3.37,14.59,2.88ZM132.72,575.76c.53-31.61,4.92-63.96-3-94.88l-13.81,6.59c4.2,14.04,5.27,31.17,3.82,45.84-.62,6.23-7.66,36.56-5.54,39.54l18.53,2.92h0ZM303.45,488.86c1.4,1.61,6.33-5.24,2.49-6.97l-2.49,6.97ZM246.39,572.62c-1.48-27.48-4.72-54.89-9.04-82.06-.94-2.55-13.5-7.95-14.78-6.68,5.36,29.93,7.87,60.44,7.98,90.89l15.83-2.15h0ZM45.87,485.87l-7.87.11c-.29,3.96-3.72,6.8-3.11,10.87h8.98l2-10.98h0ZM342.37,489.88c-6.25-1.61-15.48-6.82-20.95-1.51,5.88-.03,11.75,2.03,17.49,2.48,1.1.09,3.71.75,3.46-.97h0ZM104.63,618.57c4.19-36.38,12.79-72.5,13.11-109.21l-3.99-21.49c-21.27,10.16-31.81,34.59-39.67,55.68-8.07,21.63-14.66,46.01-16.08,69.02,14.89,4.85,30.98,6.62,46.63,5.99h0ZM182.65,500.84l-7.81-.68-19.14-9.3c3.08,27.93,4.02,56.44,2.25,84.44l1.38,1.31,25.38.71.79-1.2-2.85-75.28h0ZM187.63,577.76c5.75-1.29,13.12-.17,18.47-1,.94-.15,2.05-.39,2.24-1.46l-.75-38.99-4.99-45.46-17.02,10.6,2.06,76.3h0ZM282.47,494.85c.23-1.22-1.46-5.11-1.98-3.98-.23,1.22,1.46,5.11,1.98,3.98ZM303.44,490.87c-2.96-.46-1.76,3.15-5.49,2.9-1.77-.12-3-1.6-4.16-1.71-2.3-.22-4.65,3.49-8.3-.2-3.24,3.66-.11,14,5,12.61,2.21-.6,14.23-12.27,12.95-13.6h0ZM336.27,502.72l3.68-8.89-16.54-2.97,1.04,10.97c3.08,1.21,2.54-2.15,4.42-2.09,3.51.12,4.05,3.81,7.4,2.97h0ZM246.18,496.21c-.63-.6-7.03-6.1-6.61-2.89,2.13,16.31,5.41,32.57,6.95,49,1.64,17.51.81,35.59,2.08,52.76.21,2.81,2.28,17.19,3.11,18.94.39.82.42,1.22,1.44,1.58,2.92,1.02,18.08-2.56,21.86-3.85,2.82-.96,10.2-3.23,10.36-6.45-2.63-14.73-6.16-29.35-10.18-43.74-5.53-19.79-14.05-51.09-29.02-65.35h0ZM344.37,493.86c-2.04-.97-4.73,4.27-3.98,4.98h1.48c1.72-1.32,2.9-2.67,2.51-4.98h-.01ZM42.88,498.86l-9.04.43-2.94,10.54,9.06.58,2.92-11.56h0ZM74.83,505.83c-4.77-8.51-17.42-8.53-20.96,1,6.96-1.74,13.84-3.14,20.96-1ZM291.47,506.83c5.4.94,8.94-1.28,8.97-6.98l-8.97,6.98ZM323.56,503.61l-1.14-1.76c-.94,8.25,7.78,16.37,14.49,8.01,1.22-1.51,4.76-6.83.99-7.01-3.91,6.08-5.75-.5-8.14-.9-1.3-.22-3.74,3.17-6.2,1.66h0ZM293.46,528.81c9.72.16,19.97,2.74,19.95-10.48-.02-7.92-3.78-12.02-10.48-15.43-4.87,9.36-13.08,7-18.95-.04-6.14,5.59-13.5,9.78-13.56,19.31l6.06,2.65c-.92-4.03,4.53-7.13,4.02-9.49-.07-.31-3.33-.83-2.01-3.49,2.68.19,4.33,2.74,6.95,3.52,2.91.86,13.84,2.15,16.4,1.33,1.88-.61.71-3.7,3.59-2.85v5.98l-10.98-1-.99,9.99h0ZM521.08,536.31v14.48c2.24.18,3.63-2.09,4.96-3.53,3.43-3.69,14.5-17.31,16.67-21.28.69-1.26,1.44-1.85,1.35-3.57-.05-1.05-9.3-15.52-10.71-17.3-.63-.8.02-1.84-2.27-1.26l-10,32.46h0ZM75.82,509.84c-.82-6.46-26.52-1.97-22.95,2,1.57-.25,5.37-2,6.48-2h16.47ZM347.25,509.96c-.4-.47-4.92-1.13-6.1-.91-3.29.6-5.3,6.49-10.33,6.77-3.07.17-7.21-4.04-9.25-2.85-4.89,7.07-12.33,26.39.84,27.83-.91-3.42-2.57-13.78,1.01-15.52,6.89-.84,13.32.95,19.91.5l.06-4.95,2.97,2c-.43-2.61,2.27-11.25.88-12.87h0ZM75.82,511.85c-6.17-.11-12.38-.17-18.46,1.02-1.3.25-1.75-.75-1.48,1.43.17,1.44,1.9,6.45,2.97,7.1,1.78.94,3.49-.64,5.29-.4,1.32.18,2.72,1.96,4.06,1.69,1.58-.32,2.68-4.01,6.63-1.87v-5.99l-3.98-.49,4.98-2.49h0ZM39.89,512.84l-9.85.13-2.14,12.86,9.88-.11,2.1-12.87h.01ZM72.82,522.83c-2.12-.39-3.51,2.08-5.49,1.97-1.48-.09-2.42-1.8-3.94-1.88-1.41-.07-2.92,1.26-4.84.78-3.93-.98-3.36-8.9-5.67-10.39-3.7-2.4-5.83,8.43.95,5.51,2.79,12.47,14.08,21.05,18.99,4.01ZM285.7,529.53c6.79,2.58,6.63-10.76,5.82-11.23-5.56-1.65-13.89.59-13.05,7.52,4.69-2.19,6.08,3.28,7.23,3.71h0ZM37.88,527.82l-11.84.13-.71,9.92c3.59,2.1,7.71,1.03,11.55.92l1-10.97ZM336.39,526.83c-6.84.01-13.77-.18-13.06,8.49.43,5.21,5.68,5.68,9.62,3.5-2.12-6.16-.63-7.54,3.44-11.99ZM276.99,527.82v1c.65-.33.65-.67,0-1ZM346.37,527.82c-4.43-.55-8.11.9-11.76,3.2l.22,5.86c8.37,3.55,11.66-.94,11.54-9.05h0ZM67.85,550.79c2.91-3.72,9.31-14.26,1.5-15.99-7,5.66-11.56.62-15.06-5.9-17.24,3.67-26.09,37.18.58,28.88l-2.07-9.91-4.89-1.55,3.45-4.52c.37,10.4,7.83-1.89,10.48.01-.12,5.35,6.05,3.32,6.02,8.98h-.01ZM294.36,530.93c-3.04-1.84-4.96,1.35-8.31.9-2.29-.31-4.36-3.78-6.57-2.59-5.3,5.56-10.92,16.86.59,18.46,16.56,2.3,14.92-2.26,14.28-16.78h.01ZM313.42,528.82l-6.06,1.58,4.07,21.4h2.99c-.86-3.2.91-6.96.92-9.62,0-4.35-3.97-8.73-1.91-13.35h-.01ZM279.67,570.59c4.88,1.7,26.93,2.17,29.28-1.8,1.61-5.46-.98-35.16-4.47-37.56l-8.02-.4c5.15,19.29-5.8,22.24-21.96,16.97l5.17,22.79h0ZM65.84,534.82l-5.98-1c-1.39.63,4.33,2.75,5.98,1.98v-.98ZM591.96,682.63v-144.83c-17.4,24.02-42.46,40.65-63.75,60.61l8.84,84.22h54.91ZM318.92,576.76c6.78,1.15,16.34-.84,23.46,0l1.48-37.97c-8.72,1.79-17.42,3.61-26.39,3.07-.89,10.93-3.5,22.28-1.05,33.14.39.73,1.82,1.65,2.49,1.76h0ZM414.25,566.77c.12-4.81-.16-9.66.01-14.47.09-2.61,2.47-6.88,0-9.01-2.87-2.47-28.31-2.02-33.94-4.49-.83,4.31-2.31,20.99-.03,23.5l33.96,4.47ZM35.9,540.8l-11.04-.58-2.52,13.6,13.55.96c-2.11-4.89.31-8.98,0-13.98h.01ZM423.74,569.77c9.34,1.05,20.4-.78,29.95,0,3.63,0,3.2-26.37,1.28-27.76-7.9-2.04-16.17-1.02-24.28-1.17-4.01-.07-10.66-3.25-13.21,1.68-1.57,3.03-2.06,24.64-.29,25.81,2.14-.1,4.92,1.25,6.55,1.43h0ZM519.08,539.8l-60.9,4.99v22.97l33.22-1.22c3.83-1.54,7.96-3.97,11.9-5.07,3.7-1.03,9.53-.97,12.11-1.87.67-.24,3.66-4.04,3.66-4.32v-15.48h.01ZM59.33,545.06c-4.49,2.79-6.06,6.68-1.84,10.59,10.86,1.86,10.93-7.46,1.84-10.59ZM551.73,575.46c5.97-7.15-15.97-29.62-25.64-25.16-2.58,1.19-4.59,7.06-6.99,8.99l13.5,8.44c3.44,4.75,8.05,9.65,7.46,16.01l11.67-8.29h0ZM313.43,554.79c-1.78-.06-2.13-.52-2,1.49.23,3.75,2.03,7.71.8,11.8-.59,1.98-3.48,2.66-3.82,5.25-.53,4.06,4.53,16.08-2.49,17.4-2.62.49-11.5.47-13-1.94-2.33-3.74,4.21-5.45,4.56-6.73.41-1.5-.1-7.96-1.68-8.32l-5.33.04.98,9.96-7.5,2.98c.39,4.42,5.24,18.5,3.31,21.82-.48.83-5.16,1.95-5.6,3.79-.31,1.3,1.68,6.58,1.8,8.92.44,8.25.8,17.35-3.15,24.77s-4.34,4.21-10.06,5.91c-1.56.46-3,2.48-4.4,2.62-3.18.32-6.38-7.1-5.33-9.85-2.6-.29-3.58,3-4.78,4.72l11.23,79.32-.68,1.61-25.68,7.28-.03,53.37c.82,4.24,18.39,12.01,22.95,15.99,7.19,6.27,7.61,10.53-2.03,13.97-14.56,5.2-44.75,2.58-59.66-2.18-3.08-.98-8.2-1.77-8.2-5.78v-70.42l-41.04-.42-6.89,53.8c1.11,7.07,39.19,26.65,12.42,31.44-13.53,2.42-29.95,1.07-43.13-2.63-5.33-1.5-19.19-5.41-19.09-11.64.16-10.39,3.82-24.17,4.89-35.1,1.33-13.6,1.65-27.33,3.05-40.92-.56-3.1-10.59-4.26-14.29-5.75-1.62-.65-7.22-2.92-7.55-4.34l13.62-78.6-3.8-2.71c1.9,4.26,1.11,15.31-4.57,16.02-2.86.36-3.76-1.54-5.09-1.74-5.16-.76-3.17.48-9.38-1.74-6.97-2.49-8.46-1.02-11.69-9.28-4.33-11.08-1.52-21.48.85-32.59-.29-1.45-6.48-1.46-7.11-5.17-.72-4.19,6.21-28.26,5.04-29.43-3.16.27-6.7-1.19-8.88,1.6-.79,1.01-4.8,10.03-4.95,11.14-.42,3.01,5.06,6,1.37,9.25-4.19,3.68-16.33-2.2-16.47-6.49-.08-2.32,7.71-13.21,8.03-16.94-10.47-2.73.73-20.05-.49-22.53-.77-1.56-2.46-1.85-4.02-2.05-8.79-1.13-18.54,2.14-27.5,1.05v279.67h443.26c-1.76-12.23,26.69-23.96,27.93-30.49-.42-26.42-3.31-53.2-7.9-78.95l-43.9-1.35c-2.52,13.27-2.86,26.91-4.09,40.36-1.33,14.45-3.91,25.73-2.97,40.94.27,4.36,4.12,12.03.54,15.56-4.46,4.4-38.44,11.11-45.99,11.91-12.67,1.35-26.19,2.21-38.28-2.13-2.56-11.34,9.69-18.11,17.9-23.25,3.38-2.12,19.99-10.11,20.72-12.23l1.21-75.58c-.58-2.49-18.36-1.84-19.58-9.59-.61-3.91,1.2-15.57,1.7-20.41,1.66-16.19,5.36-32.32,5.86-48.57-8.6-1.74-13.43,2.91-19.95-4.52-6.88-7.84-7.89-19.9-7-29.92.36-4.04,5.15-17.96,4.91-18.9-.28-1.1-2.77-1.5-3.71-3.3s-.92-5.14-1.26-7.23l-6.37-.07c.73,12.81-5.94,13.62-16.96,11.12l-.44-4.97,6.89-2.76-.15-3.27c-2.82-.07-5.88-1.4-5.88-4.6v-19.48h-.03ZM67.84,555.8l-6.07,2.57,2.58,7.4,3.49-9.97h0ZM59.85,557.78c-6.73,2.12-12.76,4.61-19.93,2-8.69,22.47,2.21,20.54,20.84,19.87.08-3.19,2.84-7.5,2.66-10.41-.18-2.75-4.65-7.59-3.56-11.46h0ZM514.08,592.75c1.93,1.91-15.94,12.03-12.51,17,.9,1.31,2.28,1.15,3.56.55,14.56-12.16,50.46-23.04,21.95-44.05-16.89-12.44-43.04,3.87-49.78,21.18,3.97,8.59,12-5.35,17.28-8.7,1.59-1.01,5.03-4.05,6.5-1.47-5.62,1.22-22.95,20.74-16.98,25,4.7,3.35,15.09-17.74,21.99-15.5-5.01,5.44-21,13.38-12.34,21.81,4.12.76,14.62-15.6,20.32-15.83h.01ZM402.28,567.77l-22.96-3-6.98,40.95c1.27,1.64,19.85-19.01,21.37-21.06,1.71-2.31,10.45-15.07,8.58-16.89h0ZM454.19,651.67h-35.44c-.38,0-7.14-1.33-7.49-1.49-1.1-.51-1.89-1.81-1.99-3.03l7.04-75.86c-.61-4.25-6.5-1.61-9.58-3.26l-9.72,89.38c.59,1.25,1.4,1.8,2.55,2.47,9.74,5.69,43.32,5.77,55.12,4.75,3.02-.26,10.68-1.2,12-3.98l-4.46-90.46-9.06,2.22,1.04,79.25h-.01ZM488.13,568.78l-21.96.99c1.6,10.83,9.14,19.1,12.99,28.96,1.9,1.83,3.31-6.1,3.97-6.99-5.47,2.4-8.7-.14-7.58-6.03,1.33-6.94,8.68-11.62,12.58-16.94h0ZM450.2,571.76c-7.48-.19-15.02.25-22.51.05-2.26-.06-8.29-2.24-9.56-.45l-5.88,77.33,39.94,1-2-77.92h.01ZM288.47,573.76l-7.99-.99,2.12,7.86,5.87.13v-7ZM306.43,572.76l-6.87,1.11c-.19,1.89-.71,6.41.82,7.44l7.04,1.43-.99-9.99h0ZM375.32,576.77c-3.43-.15-6.93.28-10.36-.13-3.18-.38-18.85-4.11-19.96-3.79-3.04.88-1.09,11.38-1.66,14.23.68,2.83,24.79,6.71,28.35,5.53,2.23-.74,2.45-12.77,3.63-15.83h0ZM246.53,574.77c-25.1,4.28-51.81,5.62-77.41,5.04-11.98-.27-25.94-.98-37.88-2.05-6.16-.56-12.46-1.59-18.47-2.98l-2.07,16.39c.31,1.31,23.52,3.34,26.54,3.57,32.72,2.44,69.23,2.1,101.8-2,14.67-1.85,6.09-6.68,7.49-17.96h0ZM368.34,629.69c11.33-3.81,29.15-11.92,31.84-24.57,2-9.43.72-20.75,3.09-30.36l-11.46,15.99c-3.2,5.85-16.92,14.05-19.35,18.59-1.06,1.98-4.81,19.58-4.11,20.35h-.01ZM531.06,643.68l-1.43-14.04c-.95-1.33-11.23-1.58-13.79-2.19-16.94-3.99-28.46-13.79-38.1-27.8l-12.56-22.88c.71,12.34-2.03,29.47,5.96,39.47,13.73,17.19,38.01,27.72,59.92,27.44ZM326.24,578.91c-1.04-.63-3.45.03-4.83-.15l.14,3.86c4.25,3.06,7.9-1.77,4.69-3.71h0ZM341.37,585.74l.76-5.53-3.75-1.45c-.01,2.76-.95,7.13,2.98,6.98h0ZM47.88,581.76l-6.95-1-6.03,12.97,8.82.84c.63-2.09,5.43-11.58,4.16-12.81ZM285.47,582.76h-2.98v.98h2.98v-.98ZM307.43,584.76c-3.8-1.2-10.3-2.47-11.97,2.47.54,2.5,12.79,2.82,11.97-2.47ZM318.14,584.97c-1.47.33-2.73,1.12-3.69,2.27-.02,2.5,12.17,2.01,13.94-1,.04-2.12-8.5-1.67-10.24-1.28h-.01ZM372.33,594.75l-29.89-3.94c-2.04,8.27-5.72,18.8-4.95,27.3.55,6.03,5.3,19.1,11.13,21.82,8.72,4.07,2.68-4.48,1.7-7.69-2.31-7.57-3.67-14.49-2.95-22.51,1.22-1.61,1.81,0,1.99,1.47.82,6.53-.07,11.82,2.27,18.72,3.33,9.83,14.09,17.99,12.72,2.27-.61-7-5.65-14.74-4-22.48h2.99c-.17,5.12-.09,10.23,1.31,15.19.29,1.03.23,3.03,1.67,2.79l6-32.95h.01ZM129.74,595.73l-19.08-1.42c-1.44,4.14-2.1,24.33-4.88,25.9-1.18.67-2.68.48-4,.5,2.74,9.13,8.83,25.29-4.02,28.66l-12.96,75.71c.02,1.28.73,1.71,1.61,2.4,2.51,1.98,23.63,8.05,25.26,7.01,5.89-46.21,13.42-92.32,18.07-138.76h0ZM246.55,734.57c3.28-1.65,16.76-3.67,17.79-6.65l-17.73-133.74-13.11,1c-2.2,14.74,1.87,30.87,2.08,46l10.98,93.4h0ZM45.88,602.72c2.78-6.44-11.62-8.46-12.97-5.47-.61,1.35,5.24,4.38,6.24,4.72,2.31.78,4.31,1,6.73.76h0ZM229.46,595.85l-18.87.88,8.66,141.88c3.39.07,25.06-2.7,25.36-4.65l-15.15-138.1h0ZM153.7,597.73l-21.09-.42-18.85,138.25c7.88-.07,16.83,2.84,24.45,3.07,1.81.06,4.66.42,5.36-1.71l10.13-139.2h0ZM183.64,739.57l1-139.34-1.46-2.24-26.51-.26-11.01,140.15c.2.66,2.24,1.69,2.53,1.69h35.45ZM208.6,597.74h-21.46l-1.5,1.5v140.33h29.95l-6.99-141.83ZM526.06,599.73c-1.6-1.6-17.37,12.18-20.7,12.83-5.31,1.04-5.57-3.45-6.82-3.74-1.68-.38-4.05,2.5-7.14,1.25l-3.3-5.34c-5.66.14,2.04,6.61,3.54,7.95,10.18,9.1,23.6,14.6,37.41,14.02l-3.01-26.97h.02ZM279.47,612.71l-26.88,5.06c-.88.91,1.46,22.85,2.07,25.28.32,1.29,1.17,1.99,2.35.61,3.39-3.97,2.34-9.5,5.5-12.97,1.56,6.62-5.32,22.75,5.85,20.81,3.12-6.85,5.94-14.09,5.15-21.8,1.27-1.67,1.81.11,1.99,1.47.77,5.69-1.38,13.43-4,18.49,4.78,1.07,7.2-4.19,8.46-8.01,2.98-9.08,1.62-19.78-.48-28.94h0ZM467.18,615.71c.88,8.43.48,17.02,1,25.46.87,14.2,8.3,22.73-10.62,25.36-13.9,1.93-40.83,1.55-54.09-2.58-5.5-1.71-9.34-3.58-9.27-9.79.07-5.48,5.45-37.56,4.06-39.45-9.03,6.98-18.51,13.38-29.51,16.91-1.59,1.44-2.8,11.62-3.28,14.7-1.89,12.13-3.6,25.72-5.01,37.94-1.12,9.68-2.46,19.46-1.96,29.18,2.65,4.22,39.46,8.5,46.27,9.14,29.44,2.76,64.4,3.46,93.82,1,5.19-.43,37.57-4.37,39.27-7.15l-6.82-70.74c-25.17.8-47.12-12.37-63.87-29.97h.01ZM77.82,652.17c-.58-4.46.42-9.89,0-14.48l2.67,14.8c1.57,4.62,2.9,8.83,8.63,6.25,4.32-2.8-.55-18.31,1.16-23.07,2.1-3.75,2.88,5.85,3.26,6.76,1.07,2.58,5.23,5.51,7.82,3.34,3.85-3.22.19-20.23-1.71-24.94l-34.24-3.98c-2.14.53-4.4,13.77-4.54,16.35-.4,7.3.83,21.45,9.96,22.45-1.94-4.58-3.71-10.64-3.9-15.61-.07-1.91-.51-3.04,1.41-4.33,2.23.01,1.36,9.98,1.74,12.23.73,4.4,4.37,11.88,9.74,10.72.74-2.34-1.8-4.99-1.99-6.49h-.01ZM591.96,684.63h-53.91c-1.43,8.41,3.97,23.74,1.78,31.25-1.79,6.12-17.24,4.99-17.8,7.37l2.03,78.75c1.04,7.12,6.89,18.31,1.52,24.48l-15.49,9.97h81.86v-151.82h0ZM379.32,831.46c7.09-.97,14.07-2.6,20.96-4.5,3.3-.91,17.99-4.79,18.81-7.15,1.15-3.31-1.58-11.82-1.82-15.83-1.46-23.84,5.27-51,7.02-74.94l-.47-2.52-45.5-4.93c-.3,13.8.4,27.69.05,41.5-.06,2.36-1,4.55-1.08,6.91-.21,6.07,1.53,25.4-1.99,28.98-.87.88-21.58,10.91-19.94,12.5,10.57,1.62,22.67,8.38,23.96,19.99h0ZM520.07,722.59l-46.66,5.45,7.82,76.96c.1,1.22-.47,2.06-1.04,3.04-2.01,3.49-8.43,6.32-11.03,9.42,13.5-.57,29.03,4.97,34.57,18.07,2.82.6,18.57-7.98,20.4-10.5,3.54-4.87-1.37-14.92-1.99-20.13-2.47-20.98-.2-43.73-1.04-64.88-.22-5.55-1.91-11.57-1.05-17.44h.02ZM105.77,736.57c-1.38,25.62-3.8,51.07-8.01,76.35.6,4.77,14.18,8.53,18.49,9.59,1.97-.24,5.65-6.82,7.96-9.06,3.17-3.08,8.11-6.17,12.25-7.72,2.01-.75,12.27-2.86,12.22-3.74-5.12-3.06-5.2-4.2-5.01-10.03l6.76-49.95-44.66-5.45h0ZM238.55,738.57l-42.91,4.01,1.97,72.42,25.37,5.55c3.15-10.44,11.77-18.84,22.57-21.06.21-2.99-3.71-2.54-6-5.47-1.05-1.34-1.64-2.34-1.92-4.07-1.21-7.32,2.75-49.57.94-51.38h-.02ZM266.37,816.32c2.71-4.69-14.66-16.1-19.21-15.79-8.17.54-19.61,11.47-21.54,19.46.65,1,1.29,1.29,2.45,1.49,5.57.95,35.58-.44,38.3-5.15h0ZM162.33,814.82c-.86-.99-10-9.53-10.66-9.83-7.41-3.42-29.6,9.11-31.89,17.99.07,1.41,15.2,3.43,17.4,3.53,4.1.19,27.41-1.31,28.44-4.65.05-2.37-1.81-5.33-3.29-7.03h0ZM377.32,831.45c-1.43-9.38-15.96-18.67-24.66-18.69-4.94-.02-26.4,17.71-8.79,19.7,3.87.44,32.18.27,33.44-1.01h.01ZM501.11,836.45c-1.88-12.64-25.64-19.52-35.67-16.21-3.99,1.32-11.62,8.58-12.08,12.97-.13,1.2.26,3.24,1.33,3.24h46.42Z"/>
  <polygon points="1.95 842.44 .95 842.44 .95 -.56 596.95 -.56 596.95 .44 1.94 .44 1.95 842.44"/>
  <path d="M591.96,5.44v342.59c-11.98-3.23-25.23-1.79-34.95,6.48-4.93,4.19-6.46,9.35-10.96,13.49-1.46-11.1-7.42-24.59-7.99-35.49-.5-9.42,3.84-17.47,2.71-27.66-2.69-24.23-26.73-37.05-47.86-43.01-3.88-1.1-13.24-1.67-15.69-3.28-1.58-1.04-2.05-3.8-3.41-5.09-11.77-11.2-36.69-9.43-44.83,4.92-.78,1.37-.36,3.58-.98,4.49-.56.83-15.37,6.44-18.22,8.24-5.32,3.36-8.96,8.34-12.7,13.26-11.94,37.77-17.49,77.53-25.58,116.35-.36,7.09,19.99,13.14,25.77,14.71,5.26,1.43,10.7,1.9,16.01,2.97,1.07.22,3.22.06,2.96,1.51-11.7.64-22.86,5.16-33.97,8.48l-38.35-40.49c-7.26-4.21-17.54,9.4-22.57,14.52-24.78,25.19-47.02,52.83-71.32,78.44-1.23,1.3-8.36,8.69-8.99,8.74-6.99-4.31-14.53-8-22.47-10.25-2.44-.69-12.67-1.07-11.98-3.98,15.85-6.04,30.41-14.27,37.13-30.79,1.32-3.26,1.88-9.09,3.35-11.63,1.7-2.94,7.3-3.91,9.95-10.03,3.99-9.24,2.96-16.86-3.52-24.46,27.43-45.55-21.71-80.18-63.39-83.4-32.86-2.53-54.97,8.7-81.65,25.15-22.76,14.03-36.1,36.45-23.69,63.27,1.05,2.28,4.49,5.51,4.75,7.11.33,2.03-1.9,6.04-1.65,9.69.22,3.24,2.58,8.9,4.49,11.57,2.9,4.06,7.45,5.36,9.85,8.13,7.63,8.82,8.48,15.55,21.71,20.23,8.25,2.92,8.08,2.74,15.75,7.21,3.19,1.86,10.18,1.86,6.56,7.49-.88,1.37-18.08,4.31-21.49,5.46-27.57,9.26-38.99,30.53-50.4,55.38l-3.05-1.93c-2.21-3.43,4.41-8.72,5.3-12.72,2.06-9.23,1.4-23-10.75-23.25,3.87-7.36,5.67-13.61,2.18-21.65-1.27-2.91-3.57-4.44-4.17-7.3,4.17-1.14,21.72,11.26,22.95,9.98,2.12-12.71-9.94-20.28-20.96-21.98,4.34-4.62,12.49-5.13,18.39-6.91,2.68-1.81-1.8-4.82-3.4-5.57-10.08-4.74-18.01-1.7-26.95,3.5-.74-12.09-11.78-14.08-21.97-12.98l11.49,14.96c-10.05-5.72-26.6-7.41-33.5,3.52-.16,1.16.67,2.03,1.7,2.34,3.65,1.11,20.35.68,22.3,4.67l-8.48,5.48c-4.05,1.31-13.33,17.72-7.97,18.98,1.19.28,11.07-7.78,13.78-9.17,2.37-1.22,6.06-2.51,8.66-3.33,1.21-.38,1.4-1.07,1.01,1.01-.62,3.32-4.6,9.93-6.02,13.96-5.54,15.77-9.68,32.77-12.69,49.23-.72,3.9-.85,13.97-2.43,16.55-2,3.27-9.26,1.05-12.82,1.66V5.44h585.02ZM63.84,43.89v55.93c4.48,4.66,11.83.33,17.83,1.36l1.14-15.85c18,1.74,33.43-6.01,30.84-26.35-1.29-10.14-10.69-16.6-20.36-17.58-3.8-.38-25.23-.53-27.42.5-.78.36-1.36,1.38-2.01,1.98h-.02ZM447.98,42.68c-35.04,4.4-32.46,60.53,3.88,61.26,42.86.86,40.81-66.87-3.88-61.26ZM136.48,101.07c.81-1.98,1.11-4.08,1.28-6.21.67-8.65,1.38-40.63-.26-47.75-1.4-6.08-16.93-4.44-18.25-1.73l-.3,53.25c1.48,4.95,13.61,4.5,17.53,2.44ZM163.18,43.39h-17.47l-.8,56.23c1.25,4.26,14.87,3.74,17.77.2v-24.47c5.59,4.51,12.58,22.72,17.58,25.86,2.51,1.58,13.88,1.85,15.96.2,1.54-1.22,1.29-2.85,1.46-4.53,1.18-12.07.96-35.79,0-48.05-.15-1.92-.59-3.62-1.05-5.45h-14.48l-1.5,1.5v23.47c-2.34.6-1.67-.55-2.29-1.27-5.86-6.81-9.6-16.5-15.18-23.7h0ZM233.56,99.83v-39.45c5.08-.42,14.16,2.13,15.76-4.71.65-2.76.87-10.39-2.01-11.61-7.98-3.39-33.29,1.14-43.17-.63-5.3-.12-4.02,14.2-2.28,15.71l12.07,1.2c3.56.8.41,35.73,2.1,41.06,1.07,1.54,16.5,2.13,17.53-1.56h0ZM299.3,101.18l-.1-6.11-17.2-50.71-22.51-.49c-1.35.81-2.37,5.25-3,6.99-4,11.14-11.56,33.22-13.71,44.2-.39,2-.53,4.11-.1,6.11,9.03,2.19,19.66,3.73,18.87-8.8l16.76.12,4.38,9.16c2.36,1.03,15.56,1.19,16.6-.48h.01ZM321.91,43.39c-3.72-1.05-11.66.77-15.97,0l-1.5,1.5v54.93c2.18,4.12,17.97,3.64,17.97-1v-23.47c5.42,4.58,12.57,22.72,17.58,25.86,2.65,1.66,15.3,1.93,17.39-.37l-.03-57.46h-16.97c.32.98-1,2.16-1,2.5v22.47c-2.4.53-1.62-.42-2.23-1.3-2.9-4.21-11.47-22.6-15.24-23.67h0ZM367.04,43.59c-2.16.64-2.48,2.29-2.74,4.25-1.35,10.17-.95,37.38,0,48.04.15,1.67.23,4.3,1.52,5.47,2.48,2.27,26.09.78,30.72-.28,31.71-7.28,29.74-52.65-.98-57.43-4.01-.62-25.35-.97-28.51-.04h0ZM518.96,57.52c-4.97-3.05-7.51,8.96-9.84,10.36-2.08,1.25-9.83.14-12.9,2.57-1.82,6.01,7.3,6.93,7.91,11.45.53,3.9-3.25,8.37-3.01,12.4,5.08,2.69,10.26-3.03,14.47-3.03,3.99,0,8.81,5.06,13.47,4.06,1.04-3.83-1.34-9.82-.61-13.04s8.62-4.14,8.12-9.03l-1.25-1.92c-3.04-1.17-9.45-.99-11.82-2.91-2.01-1.63-3.42-10.23-4.55-10.92h.01ZM115.66,160.36c.51,2.32,1.35,7.91,3.76,8.72,2.7.92,16.3,1.09,17.15-2.53,1.36-5.77-14.83-41.14-15.76-49.8-3.56-7.57-15.33-3.57-22.36-4.28-2.46.84-5,10.3-5.92,13.06-3.36,10.02-8.1,23.51-10.43,33.52-3.4,14.65,2.08,9.49,14.05,10.06l4.26-8.72s15.25-.03,15.25-.03ZM163.68,169.24h14.48c3.55-2.88-.05-12.19,1.93-15.05,3.44-1.95,7.78-.43,11.81-1.17,19.15-3.51,25.03-28.98,6.73-38.23-6.37-3.22-23.15-3.27-30.52-2.55-3.68.36-4.94.42-5.48,4.51-1.36,10.4-.86,36.1,0,47.04.15,1.92.59,3.62,1.05,5.45h0ZM206.11,169.24c3.29,1.01,11.05-.74,14.97,0l4.11-9.05,14.73.19c2.57.89.93,7.85,6.14,8.84,3.63.69,8.95-.28,12.81-.12l1.67-2.38-16.57-52.35c-2.27-2.83-13.23-2.49-16.97-2.12-4.41.43-5.51,1.74-7.22,5.76-3.45,8.09-13.57,38.24-14.76,46.19-.23,1.57-1.05,4.38,1.08,5.04h0ZM280.48,113.31l-16.04-.57c-4.32,17.91-.84,37.17-.49,55.57.71,1.02,1.94.85,3.01.98,3.49.42,29.73.32,31.5-.54,3.53-1.72,1.97-12.09.99-15.49h-17.47l-1.5-1.5v-38.45ZM338.25,160.38c.8,11.87,9.69,9.59,18.66,7.93,1.2-3.37.09-6.97-.83-10.28-3.87-13.83-10.69-27.1-13.64-41.29-1.08-6.79-20.72-5.34-23.47-2.38-.9.97-1.51,2.7-2.02,3.97-6.11,14.97-9.42,32.95-15.37,48.21.89,3.69,13.26,3.26,16.34,2.7,3.82-.7,3.26-6.02,4.63-8.86h15.71-.01ZM368.11,113.54c-1.62-1.68-17.87-3.12-17.75,2.3l16.39,52.5,20.9.74c1.87-.64,3.56-6.45,4.36-8.62,5.27-14.26,8.63-30.85,13.15-45.5-1.05-3.79-14.48-3.3-17.62-1.41l-10.21,33.71-9.23-33.72h.01ZM410.76,169.24h14.48c2.01-2.64-.32-18.01,2.5-17.96l11.98,17.96h15.47c3.6-4.63-9.44-18.39-8.97-20.4,17.61-10.99,11.34-33.56-8.76-36.27-5.64-.76-19.19-1-24.76-.32-4.22.52-4.17,3.73-4.47,7.51-.88,10.76-.93,30.31,0,41.02.16,1.88.86,7.91,2.53,8.46ZM459.68,169.24c3.26,1.02,11.07-.74,14.97,0l2.95-8.04,16.42-.85c.71,2.91,1.12,8.25,4.59,8.89,2.85.52,14.15,1.14,14.5-2.51l-15.94-52.71c-5.71-2.51-20.27-3.95-23.53,2.27-2.75,5.26-14.43,41.83-15.24,47.71-.23,1.62-.66,4.63,1.28,5.24ZM50.44,223.6c6.33,8.36,14.42,11.81,24.84,12.6,150.23-1.05,300.79,1.92,450.82-1.5,26.48-9.51,27.19-43.09.24-52.25-153.03-2.02-306.75-2.05-459.77.02-17.98,4.36-27.64,25.95-16.14,41.13h.01ZM139.42,286.39c-4.96-6.25-12.3-2.72-15.68-4.77-1.31-.8-2.4-5.23-3.97-7.02-6.52-7.44-15.64-2.65-19.02-4.94-1-.68-1.38-3.93-2.49-5.5-10.69-15.05-38.9-13.49-43.5,5.84-14.76-2.97-28.89,11.93-19.87,25.59,4.26,6.45,12.81,6.56,19.52,6.53,2.09-.01,4.32-1.21,5.94-1.05,1.89.18,3.35,2.65,5.49,3.52,7.3,2.97,14.27,4.49,22.24,3.24,4.67-.73,10.74-5.42,13.29-5.75,3.95-.52,13.93,2.69,20.93,2.04,7.69-.72,24.97-7.85,17.13-17.73h0ZM261.48,270.08c.76-6.63-7.62-3.6-10.93-6.47-2.96-2.56-3.64-14.57-10-6.97-1.47,1.76-2.55,5.89-3.66,6.58-3.05,1.88-10.29.13-11.36,4.44-.87,3.76,5.79,3.68,6.86,7.16,1.29,4.17-1.87,7.12-1.81,9.86.14,5.95,10.08-1.43,12.54-1.56,3.16-.17,8.44,3.91,12.39,2.99-.21-8.24-4.65-13.17,5.96-16.02h.01ZM190.54,282.2c-.61-.99-6.25-.79-7.89-1.59-2.09-1.01-2.64-5.19-4.42-6.56-4.94-3.82-5.13,4.87-7.22,6.15-2.43,1.49-7.29.3-9.33,3.44,4.75,6.23,7.2,6.77,4.99,15.45,3.67,1.37,7.62-2.19,10.41-2,2.38.17,5.35,3.13,8.56,2,.39-.38-.44-7.27.19-9.31.7-2.27,7.05-3.84,4.71-7.59h0ZM331.14,277.36c-4.58.76-7.09,3.52-10.21,6.57-15.88-12.62-32.46,2.02-18.99,19.16,2.9,3.69,15.77,14.54,20.05,14.97s18.97-14.5,21.25-18.62c5.73-10.36,1.78-24.37-12.09-22.08h-.01ZM61.81,353.07c-9.31.46-8.09-3.84-11.9-7.57-5.28-5.16-5.2,3.94-7.43,5.63-1.9,1.43-4.97.58-7.34,1.65-6.29,2.83,2.85,5.76,3.6,7.92,1.09,3.14-2.32,8.14.11,9.87s5.93-2.4,8.6-2.54c3.44-.19,6.62,4,10.34,1.92.83-2.66-1.43-5.76-.79-8.2s6.45-4.34,4.81-8.68ZM303.7,355.77c-1.62-1.33-2.09-8.55-6.67-7.8-.98.16-3.07,6.48-4.61,7.52-2.26,1.53-6.87.47-8.94,3.05-.45,2.01,5.12,4.91,5.8,7.2.91,3.06-1.92,7.39.16,8.8,2.49,1.69,5.92-2.36,8.59-2.53,2.39-.15,3.92,1.74,5.99,1.99,7.35.87,2.27-5.23,3.39-9.27.34-1.23,6.11-2.8,5-6.17-.7-2.24-7.02-1.39-8.72-2.79h.01Z" fill="#fff"/>
  <path d="M313.43,554.79v19.48c0,3.2,3.06,4.53,5.88,4.6l.15,3.27-6.89,2.76.44,4.97c11.03,2.5,17.69,1.69,16.96-11.12l6.37.07c.34,2.09.33,5.43,1.26,7.23s3.43,2.2,3.71,3.3c.24.95-4.55,14.86-4.91,18.9-.9,10.02.12,22.08,7,29.92,6.51,7.42,11.35,2.78,19.95,4.52-.5,16.26-4.21,32.38-5.86,48.57-.49,4.83-2.31,16.5-1.7,20.41,1.22,7.75,19,7.1,19.58,9.59l-1.21,75.58c-.73,2.13-17.34,10.12-20.72,12.23-8.21,5.14-20.46,11.91-17.9,23.25,12.09,4.34,25.61,3.48,38.28,2.13,7.56-.8,41.53-7.51,45.99-11.91,3.58-3.53-.27-11.2-.54-15.56-.94-15.21,1.64-26.49,2.97-40.94,1.24-13.45,1.58-27.09,4.09-40.36l43.9,1.35c4.58,25.75,7.48,52.53,7.9,78.95-1.24,6.53-29.69,18.26-27.93,30.49H6.94v-279.67c8.97,1.09,18.72-2.18,27.5-1.05,1.55.2,3.25.5,4.02,2.05,1.22,2.48-9.98,19.8.49,22.53-.32,3.73-8.11,14.62-8.03,16.94.14,4.28,12.28,10.17,16.47,6.49,3.7-3.25-1.78-6.25-1.37-9.25.15-1.1,4.16-10.13,4.95-11.14,2.18-2.79,5.73-1.33,8.88-1.6,1.18,1.17-5.75,25.24-5.04,29.43.64,3.71,6.82,3.72,7.11,5.17-2.37,11.1-5.18,21.51-.85,32.59,3.23,8.26,4.72,6.79,11.69,9.28,6.21,2.22,4.22.98,9.38,1.74,1.33.19,2.23,2.1,5.09,1.74,5.67-.71,6.47-11.76,4.57-16.02l3.8,2.71-13.62,78.6c.33,1.42,5.93,3.69,7.55,4.34,3.7,1.49,13.73,2.65,14.29,5.75-1.4,13.6-1.72,27.32-3.05,40.92-1.07,10.92-4.73,24.71-4.89,35.1-.1,6.22,13.76,10.14,19.09,11.64,13.18,3.7,29.6,5.05,43.13,2.63,26.77-4.79-11.3-24.36-12.42-31.44l6.89-53.8,41.04.42v70.42c0,4.01,5.12,4.8,8.2,5.78,14.91,4.76,45.1,7.38,59.66,2.18,9.64-3.44,9.22-7.7,2.03-13.97-4.56-3.98-22.13-11.75-22.95-15.99l.03-53.37,25.68-7.28.68-1.61-11.23-79.32c1.2-1.72,2.18-5.01,4.78-4.72-1.05,2.75,2.15,10.17,5.33,9.85,1.41-.14,2.85-2.16,4.4-2.62,5.72-1.7,6.14,1.45,10.06-5.91s3.59-16.52,3.15-24.77c-.12-2.34-2.11-7.62-1.8-8.92.44-1.83,5.11-2.96,5.6-3.79,1.92-3.32-2.92-17.39-3.31-21.82l7.5-2.98-.98-9.96,5.33-.04c1.58.36,2.1,6.82,1.68,8.32-.35,1.28-6.9,2.99-4.56,6.73,1.5,2.41,10.38,2.43,13,1.94,7.03-1.31,1.96-13.34,2.49-17.4.34-2.58,3.22-3.27,3.82-5.25,1.23-4.09-.57-8.05-.8-11.8-.12-2,.23-1.55,2-1.49h.03ZM322.41,612.72h-14.97l1.41,1.93,13.57-1.93h-.01ZM27.9,631.71c-1.4-.72-2.66.63-1.99.98,1.4.72,2.66-.63,1.99-.98ZM38.88,631.71h-2.98v.98h2.98v-.98ZM320.41,662.67c-3.78.19-7.68-.32-11.46,0-1.21.1-5.34.37-5.5,1.97l16.96-1.98h0ZM59.85,680.65l-15.97-1c.55,2.23,1.45,1.35,2.75,1.34,4.05-.01,6.01.32,9.75.63,1.09.09,3.72.73,3.47-.98h0ZM318.41,712.61h-3.98v.98h3.98v-.98ZM47.87,737.56c-2.2-3.75-8.36-1.37-11.97-1.98l11.97,1.98ZM323.4,774.53l-10.97.98c3.42-.63,6.44.55,9.57.94,1.97.25,1.44-.22,1.4-1.92ZM67.83,787.52c-3.29-.41-8.63-2.62-10.97.98,2.48-.05,5,.11,7.49.01,1.21-.05,3.71.75,3.48-.99Z" fill="#fff"/>
  <path d="M467.18,615.71c16.75,17.61,38.7,30.77,63.87,29.97l6.82,70.74c-1.7,2.78-34.08,6.71-39.27,7.15-29.42,2.47-64.39,1.77-93.82-1-6.8-.64-43.62-4.92-46.27-9.14-.51-9.72.84-19.5,1.96-29.18,1.41-12.22,3.12-25.81,5.01-37.94.48-3.08,1.69-13.26,3.28-14.7,11.01-3.53,20.48-9.93,29.51-16.91,1.38,1.9-4,33.98-4.06,39.45-.08,6.21,3.76,8.07,9.27,9.79,13.26,4.13,40.19,4.51,54.09,2.58,18.91-2.63,11.48-11.15,10.62-25.36-.52-8.44-.12-17.03-1-25.46h-.01Z" fill="#fff"/>
  <path d="M232.21,458.55c-18.16,18.78-55.73,20.29-79.3,12.62-15.95-5.19-30.34-16.68-35.2-33.24-14.73,5.26-31.3-8.21-27.23-23.8,4.05-15.52,20.92-9.14,26.77,1.8,8.47-9.78,9.69-22.45,11.71-34.71,11.8-2.75,22.17-8.13,29.22-18.19,2.62,3.52,1.2,6.82,5.77,9.18,10.91,5.62,35.82-4.52,39.67-17.19,1.55-1.03,5.86,4.71,7.49,5.96,4.22,3.25,11.99,7.91,17.19,8.78,4.57.76,9.93-1.68,11.76,3.22,1.74,4.64,3.58,17.16,4.35,22.62,2.98,21.2,3.73,46.47-12.2,62.94h0ZM231.29,384.24c-5.38-5.26-24.52-2.76-23.66,2.25.46,2.69,10.43-.68,13.46-.57,1.61.06,16.25,4.22,10.2-1.69h0ZM167.55,385.11c-2.57-3.15-24.09-.19-21.83,7.87,8.02-2.51,12.97-6.63,21.96-4l-.12-3.87h0ZM227.56,411.96c1.79-11.03-13.74-15.4-16.75-4.28-.47,1.72-1.28,6.25,1.78,5.29-.27-3.06,1.68-8.75,4.87-9.49,7.17-.62,6.45,4.56,10.1,8.48h0ZM169.66,415.95c1.01-5.86-.76-11.76-7.5-12.05-9.26-.4-11.22,12.1-7.97,12.03,2.41-2.12.94-5.45,3.02-7.94,2.56-3.05,7.03-2.36,9.49.44l2.95,7.51h0ZM111.75,427.94c.89-8.5-3.79-16.27-12.96-15.98l8,5.47,4.97,10.5h-.01ZM203.3,429.62c5.22-5.89-.21-15.46-7.67-15.66,3.86,4.09,11.35,9.42,4.51,14.99-2.77,2.26-6.63.77-6.5,3.98,2.92.54,7.75-1.14,9.67-3.3h0ZM210.6,441.93c-4.01-.02-6.08,3.5-9.75,4.72-6.41,2.12-17.06,1.58-23.21-1.22-3.39-1.54-4.47-4.91-7.97-5.5-.42,1.86,1.03,2.37,1.99,3.49,7.51,8.76,32.11,9.11,38.93-1.49h0Z" fill="#fff"/>
  <path d="M457.43,542.52c-13.8-5.96-27.86-4.26-42.72-1.78-4.91.82-26.07-1.82-31.86-2.98-1.07-.21-1.94-.46-2.64-1.36-2.56-13.59-3.54-27.26-3.9-41.04s-.53-26.26,3.96-39.01c.9-2.56,6.87-14.1,9.51-13.44,32.84,51.32,111.51,34.05,137.27-15.56,2.69,1.34,7.89,1.65,10,3.07,1.62,1.09-.73,3.25-1.6,4.4-3.42,4.57-8.68,9.53-11.58,14.38-9.17,15.28-13.11,41.66,5.9,51.09-3.26,6.11-7.57,33.15-11.2,36.5-1.46,1.34-8.67,2.5-11.09,2.89-6.29.99-46.84,4.23-50.05,2.84h0Z" fill="#fff"/>
  <path d="M591.96,684.63v151.82h-81.86l15.49-9.97c5.37-6.17-.48-17.36-1.52-24.48l-2.03-78.75c.56-2.38,16.01-1.24,17.8-7.37,2.19-7.51-3.21-22.84-1.78-31.25h53.91,0ZM575.98,713.61c-1.4-.72-2.66.63-1.99.98,1.4.72,2.66-.63,1.99-.98ZM551.03,749.56h14.97l-8.48-2.08-6.5,2.08h.01Z" fill="#fff"/>
  <path d="M251.32,397.76c-1.21.68-3.34.07-4.79.22l-4.88-27.4c.46-1.76,9.48-3.46,8.87-7.56-2.41-.2-3.22,2.3-5.27,3.2-13.57,6.01-33.7-2.77-39.67-16.19-1.96-1.35-5.46,7.57-7.05,9.4-6.01,6.92-22.67,15.47-31.61,11.8-7.49-3.07-3.72-15.18-7.73-14.22-.63.15-5.71,8.69-7.47,10.51-9.23,9.59-22.22,12.2-34.96,13.47l8.98.49c1.62,4.21-5.55,30.41-8.49,30.44-5.64-9.08-18.43-13.29-26.09-4.04-3.33.61-7.7-12.78-8.11-15.65-3.94-27.47,9.54-39.1,30.39-52.02,26.93-16.69,47.52-24.92,80.56-22.02,32.6,2.86,77.31,30.89,63,68.76-.56,1.47-5.13,10.49-5.67,10.79v.02Z" fill="#fff"/>
  <path d="M525.72,366.66c-1.99,2.24-8.23,6.27-11.25,6.32-3.45.06-6.29-4.9-8.4-3.54-6.44,15.14-15.4,30.4-30.91,37.51,3.17-15.24-1.53-28.76-16.31-35.13-12.8-5.51-18.96-1.26-31.18-2.77-8.21-1.01-2.29-13.88-.32-18.41s7.01-8.97,5.37-14.6c-5.4,10.81-11.82,20.37-10.92,33.02-6.82,1.73-13.37,3.17-17.37,9.58-2.1,3.37-1.18,7.38-5.15,6.34-.28-4.68-2.21-8.99-2.88-13.61-2.02-14.05.51-37.36,2.99-51.69.56-3.23,1.62-6.42,2.36-9.62,22.49-5.85,48.7-5.19,71.62-1.72,5.12.78,20.61,3.38,24.47,5.48,4.07,2.22,1.87,13.92,2.22,18.76.25,3.44,1.32,14.27,4,15.98,3.81,1.85,4.78-3.56,7.13-5.93,16.67-16.77,28.67,8.08,14.52,24.02h.01ZM403.39,324.95l23.84-1.34c1.71-1.54,1.28-4.32-.41-5.63-2.61-2.03-28.33-2.98-23.43,6.98h0ZM451.2,324.06h17.47c3.23,0,17.82,8.23,14.28-1.29-2.41-6.47-33.34-10.46-31.75,1.29ZM414.95,336.17c-4.75,1.26-4.67,10.38-2.22,13.88,7.37,6.93,9.32-15.76,2.22-13.88ZM461.87,336.14c-4.12,1.06-5.46,11.32-1.25,13.95,8.87,5.54,8.64-15.85,1.25-13.95ZM517.41,349.35c1.31-1.56,7.57-4.11,7.64-4.82.3-2.98-6.94.87-7.99,1.97-2.6,2.74-4.54,8.75-3.96,12.51,3.09-2.21,1.73-6.58,4.31-9.67h0Z" fill="#fff"/>
  <path d="M353.75,401.59c9.07,9.47,18.3,18.67,26.57,28.81-26.78,16.72-27.8,49.29-32,77.42l-6.85-1.06-1.1-5.9c2.68.26,5.91-3.03,5.95-5.51.02-.97-3.25-11.6-4.1-12.83-4.82-7.05-13.38-5.61-18.85-.18-7.35,7.28-1.98,8.15-1.91,14,.05,4.53-3.93,7.98-.01,13.96l-6.02,8.53c1.2-10.63-6.21-14.69-13.93-19.59,4.02-9.39,9.74-9.78,6.45-21.37-2.61-9.22-10.49-14.75-20.06-11.04-3.43,1.33-8.64,8.51-9.26,11.83-.37,2.01,1.32,2.73,1.43,3.74.22,2.01-2.41,6.27-1.53,10.92.51,2.68,3.65,4.93,3.81,7.91-7.27,6.53-13.7,11.02-13.73,21.95.85,3.03,8.32.72,5.32,10.58-.18.61-2.44,4.72-3.42,5.04-5.69-17.12-12.71-34.69-26.51-46.92l.27-1.69c31.42-34.17,61.99-69.44,95.09-101.83,3.13-.85,11.83,10.57,14.39,13.23ZM338.38,415.96c-3.35.28-7.24-.43-10.5-.01-1.46.19-3.1.77-1.47,1.99,2.12.08,4.23.07,6.36-.12,1.09-.1,5.51-.46,5.61-1.86h0ZM328.4,438.92h-14.97v1h14.97v-1ZM336.39,458.9h-18.97v1h18.97v-1Z" fill="#fff"/>
  <path d="M591.96,682.63h-54.91l-8.84-84.22c21.3-19.96,46.36-36.59,63.75-60.61v144.83h0ZM577.98,605.73c-.42-.32-9.7-.52-9.97,1.98.63.13,13.45.65,9.97-1.98ZM556.01,635.7h-2.98v.98h2.98v-.98ZM565,635.7c-1.4-.72-2.66.63-1.99.98,1.4.72,2.66-.63,1.99-.98Z" fill="#fff"/>
  <path d="M555.03,571.76c-2.9-12.18-13.8-21.67-25.97-23.98l19.96-27.95-3.46.05-21.49-35.52c-4.44,1.11,3.32,8.52,2.98,11.5-11.61-7.86-9.15-28.34-4.18-39.65,1.33-3.02,15.44-23.04,16.85-23.34,7.75-1.66,22.98,18.82,26.9,24.9,4.8,7.44,24.12,45.5,25.26,52.63.53,3.3.52,21.87-.48,24.37s-10.98,13.97-13.41,16.55c-6.93,7.36-15.41,13.75-22.98,20.45h.02Z" fill="#fff"/>
  <path d="M591.96,350.03v154.82l-19.77-42.64c-6.53-8.82-12.05-19.26-20.83-26.1-10.99-8.56-25.03-11.52-38.27-14.65,8.14-1.91,41.22-3.45,41.64-14.77.33-8.81-6.26-24.05-7.67-33.3-.31-1.23.05-2.2.51-3.32.59-1.44,8.8-12.2,10.41-13.56,9.72-8.23,21.94-8.8,34-6.46l-.02-.02Z" fill="#fff"/>
  <path d="M104.63,618.57c-15.65.63-31.74-1.15-46.63-5.99,1.42-23.02,8.01-47.4,16.08-69.02,7.87-21.09,18.4-45.52,39.67-55.68l3.99,21.49c-.32,36.71-8.92,72.84-13.11,109.21h0Z" fill="#fff"/>
  <path d="M183.64,739.57h-35.44c-.29,0-2.33-1.02-2.53-1.69l11.01-140.15,26.51.26,1.46,2.24-1,139.34h0Z" fill="#fff"/>
  <path d="M379.32,831.46c-1.29-11.61-13.4-18.37-23.96-19.99-1.64-1.59,19.07-11.62,19.94-12.5,3.51-3.58,1.78-22.91,1.99-28.98.08-2.36,1.02-4.55,1.08-6.91.35-13.81-.34-27.69-.05-41.5l45.5,4.93.47,2.52c-1.75,23.94-8.48,51.11-7.02,74.94.25,4.01,2.97,12.52,1.82,15.83-.82,2.37-15.51,6.25-18.81,7.15-6.89,1.9-13.87,3.53-20.96,4.5h0Z" fill="#fff"/>
  <path d="M520.07,722.59c-.87,5.87.82,11.88,1.05,17.44.84,21.15-1.43,43.9,1.04,64.88.61,5.21,5.53,15.26,1.99,20.13-1.83,2.52-17.58,11.09-20.4,10.5-5.54-13.1-21.07-18.64-34.57-18.07,2.6-3.1,9.01-5.93,11.03-9.42.57-.99,1.15-1.82,1.04-3.04l-7.82-76.96,46.66-5.45h-.02Z" fill="#fff"/>
  <polygon points="208.6 597.74 215.59 739.57 185.64 739.57 185.64 599.23 187.14 597.74 208.6 597.74" fill="#fff"/>
  <path d="M153.7,597.73l-10.13,139.2c-.7,2.12-3.55,1.76-5.36,1.71-7.61-.23-16.56-3.14-24.45-3.07l18.85-138.25,21.09.42h0Z" fill="#fff"/>
  <path d="M129.74,595.73c-4.65,46.44-12.18,92.54-18.07,138.76-1.63,1.04-22.75-5.03-25.26-7.01-.88-.69-1.59-1.13-1.61-2.4l12.96-75.71c12.85-3.36,6.76-19.52,4.02-28.66,1.31-.02,2.82.16,4-.5,2.78-1.57,3.44-21.76,4.88-25.9l19.08,1.42h0Z" fill="#fff"/>
  <path d="M105.77,736.57l44.66,5.45-6.76,49.95c-.19,5.82-.1,6.97,5.01,10.03.05.87-10.21,2.98-12.22,3.74-4.14,1.55-9.08,4.65-12.25,7.72-2.31,2.24-5.99,8.82-7.96,9.06-4.31-1.06-17.89-4.82-18.49-9.59,4.21-25.28,6.63-50.74,8.01-76.35h0Z" fill="#fff"/>
  <path d="M375.19,574.63c-1.76,1.13-27.62-2.68-29.84-4.33-1.63-1.22-1.04-6.75-.96-9.01.73-19.28,4.17-44.49,7.11-63.79,3.96-25.96,8.41-55.29,34.79-67.56,4.43,11.61-.08,10.95-4.82,18.64-13.17,21.39-7.06,59.43-5.08,83.65.76,9.3.36,14.72-.02,24.11-.23,5.72,2.25,12.08-1.19,18.29h0Z" fill="#fff"/>
  <path d="M238.55,738.57c1.82,1.81-2.15,44.07-.94,51.38.29,1.73.88,2.73,1.92,4.07,2.29,2.93,6.22,2.47,6,5.47-10.8,2.22-19.42,10.62-22.57,21.06l-25.37-5.55-1.97-72.42,42.91-4.01h.02Z" fill="#fff"/>
  <path d="M229.46,595.85l15.15,138.1c-.3,1.96-21.96,4.72-25.36,4.65l-8.66-141.88,18.87-.88h0Z" fill="#fff"/>
  <path d="M246.18,496.21c14.97,14.27,23.49,45.57,29.02,65.35,4.02,14.39,7.55,29.01,10.18,43.74-.16,3.22-7.55,5.49-10.36,6.45-3.78,1.29-18.94,4.87-21.86,3.85-1.02-.36-1.05-.76-1.44-1.58-.84-1.76-2.9-16.13-3.11-18.94-1.27-17.17-.44-35.25-2.08-52.76-1.54-16.42-4.82-32.69-6.95-49-.42-3.21,5.98,2.29,6.61,2.89h0Z" fill="#fff"/>
  <path d="M450.2,571.76l2,77.92-39.94-1,5.88-77.33c1.27-1.78,7.3.39,9.56.45,7.49.21,15.03-.23,22.51-.05h-.01Z" fill="#fff"/>
  <path d="M454.19,651.67l-1.04-79.25,9.06-2.22,4.46,90.46c-1.32,2.78-8.98,3.72-12,3.98-11.8,1.01-45.37.94-55.12-4.75-1.14-.67-1.96-1.22-2.55-2.47l9.72-89.38c3.08,1.65,8.97-.99,9.58,3.26l-7.04,75.86c.1,1.21.89,2.51,1.99,3.03.35.16,7.11,1.49,7.49,1.49h35.45Z" fill="#fff"/>
  <path d="M419.99,371.24c11.72-1.81,34.9-1.47,44.51,5.93,8.79,6.76,15.2,28.44,2.64,33.26-17.24,6.62-50.97,3.2-61.7-14.12-6.63-10.7,3.18-23.3,14.55-25.06h0ZM454.19,381c-12.84,2.65-23.65,3.2-35.94-2,8.06,7.28,22.54,6.8,32.49,4.03,1.37-.38,3.1-.13,3.45-2.04h0Z" fill="#fff"/>
  <path d="M246.55,734.57l-10.98-93.4c-.2-15.13-4.27-31.26-2.08-46l13.11-1,17.73,133.74c-1.03,2.98-14.51,5-17.79,6.65h0Z" fill="#fff"/>
  <path d="M536.04,327.06c-42.36-22.45-95.79-29.9-142.24-16.97-1.83-10.69,2.16-12.65,10.94-16.02,33.02-12.67,91.83-5.11,122.62,12.21,2.19,1.23,9.96,5.54,10.54,7.5l-1.86,13.27h0Z" fill="#fff"/>
  <path d="M246.53,574.77c-1.41,11.28,7.18,16.11-7.49,17.96-32.57,4.1-69.08,4.44-101.8,2-3.02-.23-26.23-2.26-26.54-3.57l2.07-16.39c6.02,1.39,12.32,2.43,18.47,2.98,11.94,1.08,25.9,1.78,37.88,2.05,25.6.58,52.31-.76,77.41-5.04h0Z" fill="#fff"/>
  <path d="M182.65,500.84l2.85,75.28-.79,1.2-25.38-.71-1.38-1.31c1.77-28,.83-56.5-2.25-84.44l19.14,9.3,7.81.68h0Z" fill="#fff"/>
  <path d="M145.66,477.92c-.51,5.67,6.81,8.01,7.83,12.65,2.48,11.26,3.07,32.76,3.25,44.69.21,13.9-1.34,27.63-1.04,41.5l-20.98-1c1.33-31.45,4.07-63.16-1.92-94.27l12.86-3.57h0Z" fill="#fff"/>
  <path d="M514.08,592.75c-5.7.23-16.19,16.58-20.32,15.83-8.66-8.43,7.33-16.38,12.34-21.81-6.9-2.23-17.29,18.86-21.99,15.5-5.97-4.26,11.36-23.78,16.98-25-1.46-2.57-4.91.46-6.5,1.47-5.28,3.35-13.31,17.29-17.28,8.7,6.73-17.32,32.89-33.63,49.78-21.18,28.51,21.01-7.39,31.89-21.95,44.05-1.29.6-2.66.76-3.56-.55-3.43-4.96,14.43-15.09,12.51-17h-.01Z" fill="#fff"/>
  <path d="M219.41,482.05c7.13,30.65,8.67,62.27,8.17,93.72l-16.97,1c-1.38-19.07-.41-38.37-2.01-57.42-1.1-13.13-6.07-26.57-1.95-39.42l12.77,2.14v-.02Z" fill="#fff"/>
  <path d="M187.63,577.76l-2.06-76.3,17.02-10.6,4.99,45.46.75,38.99c-.18,1.06-1.3,1.31-2.24,1.46-5.35.83-12.73-.29-18.47,1h0Z" fill="#fff"/>
  <path d="M426.25,412.95c27.32,8.08,57.19,0,72.67-24.66,1.6-2.55,7.39-15.4,8.16-15.85,1.04-.61,2.66.91,3.54,1.5-1.62,10.4-6.56,18.93-13.11,26.92-1.17,1.43-3.6,1.83-4.21,3.78-2.52,8.11,3.59,12.57-6.26,20.7-13.23,10.92-34.71,13.09-50.78,8.03-11.29-3.55-12.97-9.09-10.02-20.43h0Z" fill="#fff"/>
  <path d="M51.87,450.91c3.74-.23,5.81-3.28,9.7-4.77,7.12-2.72,13.26-2.13,20.24.79.38,2.7-.22,1.54-1.46,2-6.66,2.48-15.31,3.15-20.5,8.96,10.09.35,25.35,6.1,24.95,17.98-8.78-3.65-16.91-10.12-26.95-9.97,7.83,7.43,13.97,17.99,6.48,27.95-3.54-7.68-7.97-14.93-13.97-20.95l-3.59,10.87-7.89.09,6.98-14.97-12.66,3.81-15.29,9.17c1.27-11.25,11.93-17.76,21.95-20.47-7.54-5.4-17.81-6.95-26.95-7.5-1.59-1.37,4.12-4.48,5.45-5.03,11.29-4.63,19.33.89,29.48,5.03.67-.67-1.94-4.97-2.56-5.92-2.49-3.85-6.84-6.92-8.91-11.06,8.9-.8,16.22,4.64,15.47,13.99h.03Z" fill="#fff"/>
  <path d="M132.72,575.76l-18.53-2.92c-2.13-2.98,4.92-33.31,5.54-39.54,1.45-14.66.38-31.79-3.82-45.84l13.81-6.59c7.92,30.93,3.53,63.28,3,94.88h0Z" fill="#fff"/>
  <path d="M466.09,287.04l-30.91-1.39c-4.13-14.27-11.39-27.74,6.34-34.69,7.58-2.97,13.61-3.63,21.43-1.09,22.85,7.43,5.54,22.04,3.14,37.17h0Z" fill="#fff"/>
  <path d="M519.08,539.8v15.48c0,.28-2.99,4.09-3.66,4.32-2.58.9-8.41.83-12.11,1.87-3.95,1.1-8.07,3.53-11.9,5.07l-33.22,1.22v-22.97l60.9-4.99h-.01Z" fill="#fff"/>
  <path d="M246.39,572.62l-15.83,2.15c-.11-30.45-2.62-60.96-7.98-90.89,1.27-1.27,13.84,4.14,14.78,6.68,4.32,27.17,7.56,54.58,9.04,82.06h0Z" fill="#fff"/>
  <path d="M77.82,652.17c.19,1.5,2.73,4.15,1.99,6.49-5.37,1.16-9.01-6.32-9.74-10.72-.37-2.25.5-12.21-1.74-12.23-1.92,1.29-1.48,2.42-1.41,4.33.19,4.97,1.96,11.03,3.9,15.61-9.13-1-10.36-15.15-9.96-22.45.14-2.58,2.4-15.82,4.54-16.35l34.24,3.98c1.9,4.71,5.56,21.73,1.71,24.94-2.6,2.17-6.75-.77-7.82-3.34-.38-.91-1.16-10.52-3.26-6.76-1.71,4.76,3.16,20.27-1.16,23.07-5.73,2.58-7.06-1.64-8.63-6.25l-2.67-14.8c.42,4.59-.58,10.02,0,14.48h.01Z" fill="#fff"/>
  <path d="M531.06,643.68c-21.9.28-46.18-10.25-59.92-27.44-7.99-10-5.25-27.13-5.96-39.47l12.56,22.88c9.64,14.01,21.16,23.81,38.1,27.8,2.56.6,12.84.86,13.79,2.19l1.43,14.04Z" fill="#fff"/>
  <path d="M372.33,594.75l-6,32.95c-1.44.23-1.38-1.76-1.67-2.79-1.41-4.96-1.48-10.07-1.31-15.19h-2.99c-1.65,7.74,3.4,15.48,4,22.48,1.36,15.72-9.39,7.55-12.72-2.27-2.34-6.91-1.45-12.2-2.27-18.72-.18-1.47-.77-3.08-1.99-1.47-.72,8.02.64,14.94,2.95,22.51.98,3.21,7.02,11.76-1.7,7.69-5.83-2.72-10.59-15.79-11.13-21.82-.77-8.5,2.91-19.03,4.95-27.3l29.89,3.94h-.01Z" fill="#fff"/>
  <path d="M423.74,569.77c-1.63-.18-4.42-1.54-6.55-1.43-1.77-1.17-1.28-22.78.29-25.81,2.55-4.93,9.2-1.76,13.21-1.68,8.11.15,16.38-.87,24.28,1.17,1.92,1.38,2.35,27.76-1.28,27.76-9.55-.78-20.61,1.05-29.95,0h0Z" fill="#fff"/>
  <path d="M318.92,576.76c-.68-.11-2.1-1.03-2.49-1.76-2.45-10.86.15-22.22,1.05-33.14,8.97.54,17.67-1.28,26.39-3.07l-1.48,37.97c-7.12-.84-16.68,1.15-23.46,0h0Z" fill="#fff"/>
  <path d="M204.6,474.88c3.19,9.87-10.66,23.03-19.44,23.99-9.84,1.08-25.42-6.74-32.47-13.5-5.5-5.27-4.06-6.18-2.98-13.49,17.77,6.62,36.43,7.31,54.89,3Z" fill="#fff"/>
  <path d="M279.67,570.59l-5.17-22.79c16.16,5.27,27.11,2.31,21.96-16.97l8.02.4c3.5,2.41,6.09,32.11,4.47,37.56-2.35,3.97-24.4,3.5-29.28,1.8h0Z" fill="#fff"/>
  <path d="M545.9,380.14c.96,2.65,5.81,16.43,3.56,17.95-15.81,4.03-32.11,4.19-48.34,3.87l10.62-20.9c11.2,1.32,22.76-.75,34.16-.92Z" fill="#fff"/>
  <path d="M414.25,566.77l-33.96-4.47c-2.28-2.51-.8-19.19.03-23.5,5.63,2.47,31.08,2.02,33.94,4.49,2.47,2.13.1,6.4,0,9.01-.17,4.82.1,9.67-.01,14.47Z" fill="#fff"/>
  <path d="M279.47,612.71c2.1,9.16,3.46,19.86.48,28.94-1.25,3.82-3.67,9.08-8.46,8.01,2.61-5.06,4.77-12.79,4-18.49-.18-1.36-.73-3.14-1.99-1.47.79,7.72-2.02,14.95-5.15,21.8-11.17,1.94-4.29-14.19-5.85-20.81-3.16,3.46-2.11,9-5.5,12.97-1.18,1.38-2.03.67-2.35-.61-.61-2.44-2.95-24.37-2.07-25.28l26.88-5.06h0Z" fill="#fff"/>
  <path d="M368.34,629.69c-.7-.77,3.05-18.37,4.11-20.35,2.43-4.54,16.16-12.74,19.35-18.59l11.46-15.99c-2.36,9.6-1.09,20.93-3.09,30.36-2.69,12.65-20.51,20.76-31.84,24.57h.01Z" fill="#fff"/>
  <path d="M550.97,400c4.12,10.49-2.7,11.93-10.93,14.45-13.65,4.17-31.32,6.04-44.98,1.88.12-3.57-1.12-12.25,3.67-13.12,1.16-.21,3.19.81,4.83.8,16.19-.14,31.65.49,47.41-4.01Z" fill="#fff"/>
  <path d="M424.08,412.12c0,1.69,1.44,6.13-1.26,5.78-12.79-1.69-28.23-4.45-39.87-10.07s-8.84-6.34-6.63-18.84l25.94,5.51c4.82,8.84,12.53,14.22,21.81,17.63h.01Z" fill="#fff"/>
  <path d="M456.19,452.91v-14.98c14.38-.2,31.32-5.9,38.62-19.04l11.28,3.6c-8.87,18.51-29.77,29.19-49.9,30.42Z" fill="#fff"/>
  <path d="M162.33,814.82c1.47,1.69,3.33,4.66,3.29,7.03-1.03,3.35-24.34,4.84-28.44,4.65-2.2-.1-17.34-2.11-17.4-3.53,2.29-8.87,24.49-21.41,31.89-17.99.66.3,9.8,8.85,10.66,9.83h0Z" fill="#fff"/>
  <path d="M524.08,425.94c1.94,2.03-12.94,19.58-15.45,21.99s-14.35,11.99-17.02,11.95c-2.44-.04-8.59-10.81-8.02-12,7.13-4.63,14.03-9.9,19.5-16.48,1.46-1.75,4.21-7.49,5-7.99,3.35-2.1,11.71,3.29,15.99,2.53Z" fill="#fff"/>
  <path d="M526.07,282.1c-7.36,1.67-10.4,9.51-14.63,14.92l-24.31-5.92c3.21-23.27,25.01-27.86,38.94-9Z" fill="#fff"/>
  <path d="M404.16,425.06c1.67,11.34,9.1,19.29,19.06,24.35l-9.56,13.42c-12.66-6.65-23.42-18.63-25.27-33.26.5-1.71,14.24-5.5,15.77-4.51Z" fill="#fff"/>
  <path d="M501.11,836.45h-46.42c-1.07,0-1.46-2.04-1.33-3.24.47-4.39,8.09-11.65,12.08-12.97,10.03-3.31,33.79,3.57,35.67,16.21h0Z" fill="#fff"/>
  <path d="M293.46,528.81l.99-9.99,10.98,1v-5.98c-2.89-.85-1.72,2.25-3.59,2.85-2.56.82-13.49-.46-16.4-1.33-2.62-.78-4.27-3.33-6.95-3.52-1.31,2.66,1.95,3.18,2.01,3.49.5,2.36-4.94,5.46-4.02,9.49l-6.06-2.65c.06-9.53,7.42-13.72,13.56-19.31,5.88,7.03,14.08,9.39,18.95.04,6.69,3.4,10.46,7.51,10.48,15.43.03,13.22-10.22,10.65-19.95,10.48h0Z" fill="#fff"/>
  <path d="M502.11,315.07l32.75,14.19,3.2,16.27-3.89.38c-1.17-8.93-12.66-14.2-19.99-8.27l-8.57,8.38c-.97-.47-3.51-7.65-3.51-8.48v-22.47h.01Z" fill="#fff"/>
  <path d="M454.2,454.9l.99,16.98c-13.49.76-26.6-1.8-38.93-7l8.66-13.84c9.87,1.26,19.07,5.26,29.28,3.86Z" fill="#fff"/>
  <path d="M402.28,567.77c1.87,1.82-6.87,14.58-8.58,16.89-1.52,2.05-20.1,22.7-21.37,21.06l6.98-40.95,22.96,3h0Z" fill="#fff"/>
  <path d="M266.37,816.32c-2.72,4.71-32.73,6.1-38.3,5.15-1.16-.2-1.8-.48-2.45-1.49,1.93-7.99,13.37-18.92,21.54-19.46,4.55-.3,21.92,11.1,19.21,15.79h0Z" fill="#fff"/>
  <path d="M377.32,831.45c-1.26,1.28-29.57,1.45-33.44,1.01-17.61-2,3.85-19.72,8.79-19.7,8.7.03,23.23,9.31,24.66,18.69h-.01Z" fill="#fff"/>
  <path d="M526.06,599.73l3.01,26.97c-13.81.58-27.23-4.92-37.41-14.02-1.5-1.34-9.21-7.82-3.54-7.95l3.3,5.34c3.08,1.24,5.46-1.63,7.14-1.25,1.25.28,1.51,4.77,6.82,3.74,3.33-.65,19.1-14.43,20.7-12.83h-.02Z" fill="#fff"/>
  <path d="M551.73,575.46l-11.67,8.29c.6-6.36-4.02-11.26-7.46-16.01l-13.5-8.44c2.4-1.93,4.41-7.8,6.99-8.99,9.67-4.46,31.61,18.01,25.64,25.16h0Z" fill="#fff"/>
  <path d="M67.85,550.79c.04-5.67-6.14-3.64-6.02-8.98-2.65-1.9-10.11,10.39-10.48-.01l-3.45,4.52,4.89,1.55,2.07,9.91c-26.67,8.31-17.82-25.21-.58-28.88,3.51,6.52,8.07,11.56,15.06,5.9,7.81,1.73,1.41,12.27-1.5,15.99h.01Z" fill="#fff"/>
  <path d="M521.08,536.31l10-32.46c2.3-.58,1.64.46,2.27,1.26,1.41,1.78,10.65,16.25,10.71,17.3.09,1.73-.66,2.31-1.35,3.57-2.16,3.97-13.24,17.59-16.67,21.28-1.33,1.43-2.72,3.71-4.96,3.53v-14.48h0Z" fill="#fff"/>
  <path d="M63.84,496.84c-3.29.52-7.28,2.49-9.53,4.96-.86.95-5.9,10.63-6.23,11.74-2.49,8.24,4.91,6.85,5.78,13.26l-5.93,2.58-9.04,8.42c2.2-20.62,6.38-41.02,11.98-60.92l12.96,19.96h.01Z" fill="#fff"/>
  <path d="M502.11,269.11c-9.24,1.57-14.42,11.77-17.92,19.52l-14.94-1.62,8.01-24.77c2.58-1.94,26.57,4.7,24.85,6.87Z" fill="#fff"/>
  <path d="M375.32,576.77c-1.18,3.06-1.39,15.09-3.63,15.83-3.56,1.19-27.67-2.7-28.35-5.53.57-2.85-1.38-13.35,1.66-14.23,1.11-.32,16.78,3.41,19.96,3.79,3.43.41,6.93-.03,10.36.13h0Z" fill="#fff"/>
  <path d="M544.9,377.86c-10.72,2.66-21.84,2.13-32.81,2.13l1.41-5.08c14.19-1.54,20.49-13.93,21.57-26.88,1.1-.05,2.02-.18,3.03.46,1.98,1.24,8.03,27.41,6.8,29.37Z" fill="#fff"/>
  <path d="M481.07,448.96l7.02,13.89c-9.78,3.49-19.18,9.07-29.95,8.63l-1.51-15.63,24.44-6.89h0Z" fill="#fff"/>
  <path d="M59.85,557.78c-1.09,3.88,3.38,8.71,3.56,11.46.19,2.91-2.58,7.22-2.66,10.41-18.63.66-29.53,2.6-20.84-19.87,7.17,2.61,13.21.12,19.93-2h0Z" fill="#fff"/>
  <path d="M347.25,509.96c1.38,1.62-1.31,10.26-.88,12.87l-2.97-2-.06,4.95c-6.59.45-13.02-1.34-19.91-.5-3.58,1.74-1.92,12.1-1.01,15.52-13.18-1.44-5.74-20.75-.84-27.83,2.05-1.2,6.18,3.02,9.25,2.85,5.02-.28,7.03-6.17,10.33-6.77,1.18-.22,5.7.45,6.1.91h0Z" fill="#fff"/>
  <path d="M423.21,420.98c-.29,6.78,4.43,10.99,10.07,13.5.28,1.74-6.9,12.34-8.55,12.49-7.09.66-20.27-16.31-17.44-24.01l15.93-1.97h-.01Z" fill="#fff"/>
  <path d="M394.16,368.14c.11,8.36,2.86,16.71,7.11,23.83l-23.84-5.11,3.83-21.45,12.89,2.72h.01Z" fill="#fff"/>
  <path d="M454.19,437.93l-.99,14.98c-3.69.93-23.95-1.33-24.94-4.59l7.64-12.29,18.29,1.9h0Z" fill="#fff"/>
  <path d="M539.05,310.07l-24.54-11.94c-1.38-2,10.17-16.06,13.59-14.55,7.73,7.18,9.53,16.46,10.96,26.49h-.01Z" fill="#fff"/>
  <path d="M294.36,530.93c.63,14.51,2.28,19.08-14.28,16.78-11.51-1.6-5.89-12.9-.59-18.46,2.21-1.19,4.27,2.28,6.57,2.59,3.34.45,5.26-2.74,8.31-.9h-.01Z" fill="#fff"/>
  <path d="M428.23,266.12l3.58,20.04-15.54,2.94c-1.11-5.86-3.05-12.01-1.54-18.01l13.5-4.97h0Z" fill="#fff"/>
  <path d="M394.28,340.05l-.99,24.96-11.95-2.04,4.42-22.98c1.31-2.1,6.19.73,8.52.06h0Z" fill="#fff"/>
  <path d="M247.54,428.93c1.58-9.74.16-19.19,0-28.96,14.71,1.96,12.1,25.46,0,28.96Z" fill="#fff"/>
  <path d="M412.25,273.13l.58,16.02-17.53,6.95c-1.99-2.56,10.83-23.84,16.96-22.97h0Z" fill="#fff"/>
  <path d="M488.13,568.78c-3.9,5.31-11.25,10-12.58,16.94-1.13,5.88,2.11,8.43,7.58,6.03-.66.89-2.07,8.82-3.97,6.99-3.85-9.86-11.39-18.13-12.99-28.96l21.96-.99h0Z" fill="#fff"/>
  <path d="M301.43,480.89c.21,2.58.44,10.08-2.62,10.92-1.96.54-3.17-1.79-4.88-1.95s-3.26,1.14-4.93.99c-1.3-.12-2.36-1.65-3.05-1.66-.96-.02-1.69,2.29-3.46,1.66l.1-10.88,18.85.91h-.01ZM287.47,483.86c-.85-2.18-1.66-2.37-2.99-.48l2.99.48ZM296.45,482.88h-4.98v.98h4.98v-.98Z" fill="#fff"/>
  <path d="M398.28,311.08c.87.98-2.75,24.9-3.45,26.01-1.33,2.13-6.2-.78-8.53-.05,3.95-7.84.94-24.77,11.97-25.96h.01Z" fill="#fff"/>
  <path d="M35.9,540.8c.3,5-2.12,9.09,0,13.98l-13.55-.96,2.52-13.6,11.04.58h-.01Z" fill="#fff"/>
  <path d="M75.82,511.85l-4.98,2.49,4,.49v5.99c-3.96-2.14-5.06,1.55-6.64,1.87-1.34.27-2.74-1.51-4.06-1.69-1.8-.24-3.52,1.34-5.29.4-1.06-.65-2.8-5.66-2.97-7.1-.26-2.18.18-1.18,1.48-1.43,6.08-1.19,12.29-1.13,18.46-1.02h0ZM64.84,513.84h-3.98v1.99h3.98v-1.99Z" fill="#fff"/>
  <path d="M124.16,454.49c.79,1.05,2.86,2.36,3.58,3.91-5.42,3.49-24.57-14.75-21.95-17.48,2.25,1.79,9.4.14,10.02.49.82.46,6.72,10.9,8.35,13.08h0Z" fill="#fff"/>
  <path d="M72.82,522.83c-4.91,17.04-16.2,8.46-18.99-4.01-6.78,2.92-4.64-7.91-.95-5.51,2.31,1.5,1.74,9.42,5.67,10.39,1.92.48,3.43-.86,4.84-.78,1.52.08,2.46,1.79,3.94,1.88,1.98.12,3.37-2.35,5.49-1.97ZM66.83,526.83h-2.98v.98h2.98v-.98Z" fill="#fff"/>
  <path d="M336.27,502.72c-3.34.84-3.88-2.86-7.4-2.97-1.88-.06-1.34,3.3-4.42,2.09l-1.04-10.97,16.54,2.97-3.68,8.89h0ZM328.4,493.87h-3.99v1.98c1.86.26,3.45,0,3.99-1.98ZM336.38,493.86c-1.09-1.09-3.07.9-1.99,1.99s3.07-.9,1.99-1.99Z" fill="#fff"/>
  <polygon points="39.89 512.84 37.78 525.71 27.9 525.82 30.04 512.97 39.89 512.84" fill="#fff"/>
  <path d="M303.44,490.87c1.28,1.34-10.74,13-12.95,13.6-5.11,1.39-8.25-8.95-5-12.61,3.65,3.69,6-.02,8.3.2,1.16.11,2.39,1.59,4.16,1.71,3.73.25,2.54-3.36,5.49-2.9h0ZM287.47,495.87c1.27,3.26,6.29,2.64,5.98-1.01l-5.98,1.01Z" fill="#fff"/>
  <path d="M37.88,527.82l-1,10.97c-3.84.11-7.97,1.18-11.55-.92l.71-9.92,11.84-.13Z" fill="#fff"/>
  <path d="M285.7,529.53c-1.15-.44-2.53-5.91-7.23-3.71-.84-6.93,7.48-9.17,13.05-7.52.81.47.97,13.81-5.82,11.23h0Z" fill="#fff"/>
  <path d="M323.56,503.61c2.46,1.52,4.9-1.87,6.2-1.66,2.39.4,4.23,6.97,8.14.9,3.77.18.23,5.5-.99,7.01-6.71,8.36-15.44.23-14.49-8.01l1.14,1.76h0ZM332.39,507.83c-.97-2.81-4.54-1.92-6.99-1.98.97,2.81,4.54,1.92,6.99,1.98ZM330.39,509.84c-1.09-1.09-3.07.9-1.99,1.99s3.07-.9,1.99-1.99Z" fill="#fff"/>
  <path d="M336.39,526.83c-4.07,4.45-5.56,5.84-3.44,11.99-3.94,2.18-9.2,1.71-9.62-3.5-.71-8.67,6.22-8.48,13.06-8.49Z" fill="#fff"/>
  <path d="M304.44,474.88c-6.1-1-12.36-.55-18.48-.99-1.48-.11-2.89.78-2.47-1.48,5.81-7.74,17.42-6.83,20.95,2.48h0Z" fill="#fff"/>
  <polygon points="42.88 498.86 39.96 510.42 30.9 509.83 33.84 499.29 42.88 498.86" fill="#fff"/>
  <path d="M47.88,581.76c1.27,1.23-3.53,10.73-4.16,12.81l-8.82-.84,6.03-12.97,6.95,1Z" fill="#fff"/>
  <path d="M313.42,528.82c-2.06,4.62,1.92,9.01,1.91,13.35,0,2.66-1.78,6.41-.92,9.62h-2.99l-4.07-21.4,6.06-1.58h.01Z" fill="#fff"/>
  <path d="M346.37,527.82c.12,8.11-3.17,12.6-11.54,9.05l-.22-5.86c3.65-2.29,7.33-3.74,11.76-3.2h0Z" fill="#fff"/>
  <path d="M45.87,485.87l-2,10.97h-8.98c-.61-4.06,2.82-6.9,3.11-10.86l7.87-.11h0Z" fill="#fff"/>
  <path d="M59.33,545.06c9.09,3.13,9.02,12.45-1.84,10.59-4.22-3.91-2.65-7.8,1.84-10.59Z" fill="#fff"/>
  <path d="M74.83,505.83c-7.13-2.14-14-.74-20.96,1,3.54-9.53,16.2-9.51,20.96-1Z" fill="#fff"/>
  <path d="M342.37,486.86c-.56.49-13.19-2.37-14.59-2.88-3.86-1.38,1.51-3.8,3.18-4.07,4.95-.81,10.11,1.94,11.41,6.95Z" fill="#fff"/>
  <path d="M305.43,479.87l-23.95-2.49c3.01-2.8,7.6-2.73,11.46-2.48,1.19.08,15.56,2.38,12.49,4.97h0Z" fill="#fff"/>
  <path d="M45.88,602.72c-2.42.24-4.42.02-6.73-.76-1-.34-6.85-3.37-6.24-4.72,1.35-2.98,15.74-.97,12.97,5.47h0Z" fill="#fff"/>
  <path d="M75.82,509.84h-16.47c-1.11,0-4.91,1.75-6.48,2-3.57-3.97,22.13-8.45,22.95-2Z" fill="#fff"/>
  <path d="M306.43,572.76l.99,9.99-7.04-1.43c-1.53-1.03-1.01-5.55-.82-7.44l6.87-1.11h0Z" fill="#fff"/>
  <path d="M342.37,489.88c.25,1.71-2.36,1.05-3.46.97-5.74-.45-11.61-2.5-17.49-2.48,5.47-5.31,14.71-.1,20.95,1.51h0Z" fill="#fff"/>
  <path d="M307.43,584.76c.82,5.29-11.43,4.97-11.97,2.47,1.67-4.94,8.17-3.67,11.97-2.47Z" fill="#fff"/>
  <polygon points="288.47 573.76 288.47 580.76 282.61 580.63 280.49 572.77 288.47 573.76" fill="#fff"/>
  <path d="M318.14,584.97c1.74-.39,10.28-.85,10.24,1.28-1.76,3.01-13.95,3.5-13.94,1,.96-1.16,2.22-1.94,3.69-2.27h.01Z" fill="#fff"/>
  <polygon points="67.84 555.8 64.35 565.77 61.77 558.36 67.84 555.8" fill="#fff"/>
  <path d="M291.47,506.83l8.97-6.98c-.03,5.7-3.57,7.92-8.97,6.98Z" fill="#fff"/>
  <path d="M326.24,578.91c3.22,1.94-.43,6.77-4.69,3.71l-.14-3.86c1.38.18,3.79-.48,4.83.15h0Z" fill="#fff"/>
  <path d="M341.37,585.74c-3.94.15-3-4.22-2.98-6.98l3.75,1.45-.76,5.53h0Z" fill="#fff"/>
  <path d="M303.45,488.86l2.49-6.97c3.84,1.73-1.09,8.58-2.49,6.97Z" fill="#fff"/>
  <path d="M344.37,493.86c.39,2.32-.79,3.66-2.51,4.98h-1.48c-.74-.71,1.94-5.95,3.98-4.98h.01Z" fill="#fff"/>
  <path d="M65.84,534.82v.98c-1.65.77-7.37-1.35-5.98-1.98l5.98,1Z" fill="#fff"/>
  <rect x="282.48" y="582.76" width="2.98" height=".98" fill="#fff"/>
  <path d="M282.47,494.85c-.52,1.13-2.21-2.76-1.98-3.98.52-1.13,2.21,2.76,1.98,3.98Z" fill="#fff"/>
  <path d="M276.99,527.82c.65.33.65.67,0,1v-1Z" fill="#fff"/>
  <path d="M50.44,223.6c-11.5-15.18-1.84-36.77,16.14-41.13,153.02-2.07,306.74-2.04,459.77-.02,26.94,9.16,26.24,42.74-.24,52.25-150.02,3.42-300.59.45-450.82,1.5-10.42-.79-18.51-4.24-24.84-12.6h0ZM74.62,183.52c-32.23,1.51-37.33,43.44-4.29,49.65h451.25c33.02-6.44,28.18-48.74-5.01-49.93l-441.95.28h0Z"/>
  <path d="M163.18,43.39c5.58,7.2,9.32,16.89,15.18,23.7.62.72-.04,1.87,2.29,1.27v-23.47l1.5-1.5h14.48c.46,1.83.9,3.52,1.05,5.45.97,12.26,1.19,35.98,0,48.05-.16,1.68.08,3.32-1.46,4.53-2.09,1.64-13.45,1.37-15.96-.2-5-3.14-11.99-21.35-17.58-25.86v24.47c-2.89,3.54-16.51,4.06-17.77-.2l.8-56.23h17.47ZM147.7,45.39v53.94h11.98v-30.96c1.81-.35,2.48.89,3.43,2.06,6.38,7.88,11.39,20.41,17.53,28.9h13.98l.74-51.21-1.4-2.77-11.31.04v31.96c-2.34.47-1.6-.27-2.24-1.29-6.2-9.8-11.78-20.05-18.14-29.76l-14.56-.92h0Z"/>
  <path d="M321.91,43.39c3.77,1.06,12.34,19.46,15.24,23.67.61.89-.17,1.84,2.23,1.3v-22.47c0-.33,1.32-1.52,1-2.5h16.97l.03,57.46c-2.09,2.3-14.74,2.03-17.39.37-5-3.14-12.16-21.29-17.58-25.86v23.47c0,4.64-15.79,5.12-17.97,1v-54.93l1.5-1.5c4.31.77,12.25-1.05,15.97,0h0ZM342.38,77.35c-1.79.37-1.97-.52-2.84-1.66-4.11-5.45-13.62-26.54-17.56-29.37-2.19-1.57-13.11-1.81-15.54.57v52.44h12.98v-30.96c1.87-.42,1.93.63,2.83,1.66,6.76,7.83,11.84,21,18.64,29.3h14.48v-53.94c-4.14.57-9.8-1.5-12.98,1.5v30.46h-.01Z"/>
  <path d="M368.11,113.54l9.23,33.72,10.21-33.71c3.14-1.89,16.57-2.38,17.62,1.41-4.53,14.65-7.88,31.24-13.15,45.5-.8,2.17-2.5,7.98-4.36,8.62l-20.9-.74-16.39-52.5c-.12-5.42,16.13-3.98,17.75-2.3h-.01ZM366.2,115.44l-12.85-.13,14.17,50.25c1.21,2.35,15.66,2.37,18.11,1.53,2.79-.95,15.38-45.5,16.64-51.77l-12.85.13-11.13,39.82c-1.33-.11-1.62-1.43-2.04-2.44-2.08-4.93-8.43-36.33-10.06-37.38h.01Z"/>
  <path d="M410.76,169.24c-1.67-.54-2.37-6.57-2.53-8.46-.93-10.72-.88-30.27,0-41.02.31-3.78.26-6.99,4.47-7.51,5.57-.68,19.12-.45,24.76.32,20.11,2.71,26.37,25.28,8.76,36.27-.47,2.01,12.57,15.78,8.97,20.4h-15.47l-11.98-17.96c-2.82-.05-.49,15.32-2.5,17.96h-14.48ZM440.71,115.31c-8.51-1.41-20.53,1.05-29.45,0v51.94h12.98v-17.98c9.49-3.24,11.42,14.78,16.97,17.48,2.95,1.44,8.6,0,11.98.49l-9.74-18.49c13.93-7.01,13.65-30.72-2.74-33.44h0Z"/>
  <path d="M139.42,286.39c7.84,9.88-9.43,17.02-17.13,17.73-7.01.65-16.98-2.57-20.93-2.04-2.55.34-8.63,5.02-13.29,5.75-7.96,1.25-14.94-.27-22.24-3.24-2.14-.87-3.6-3.33-5.49-3.52-1.62-.16-3.85,1.04-5.94,1.05-6.71.03-15.26-.08-19.52-6.53-9.02-13.67,5.11-28.56,19.87-25.59,4.6-19.33,32.8-20.89,43.5-5.84,1.11,1.56,1.49,4.82,2.49,5.5,3.38,2.29,12.51-2.5,19.02,4.94,1.57,1.79,2.65,6.22,3.97,7.02,3.38,2.06,10.72-1.48,15.68,4.77h0ZM98.95,270.96c-.3-.19-1.97-4.76-3.16-6.32-9.91-12.99-36.44-10.85-39.06,7.35-11.85-1.53-24.42,4.77-21.59,18.39,1.48,7.13,9.46,10.75,16.14,10.6,2.99-.06,7.11-2.31,10.04-1.91,2.52.34,9.25,6.14,16.13,6.91,13.34,1.49,17.23-5.56,23.84-5.97,3.15-.19,6.69,1.83,10.01,2.07,7.67.56,26.95.72,27.01-10.47.05-9.28-11.93-6.17-15.56-7.97-1.66-.83-3.14-6.42-5.46-8.52-6.61-6.01-15.89-2.62-18.32-4.15h-.02Z"/>
  <path d="M299.3,101.18c-1.04,1.67-14.24,1.51-16.6.48l-4.38-9.16-16.76-.12c.79,12.52-9.84,10.99-18.87,8.8-.43-2-.29-4.11.1-6.11,2.15-10.98,9.71-33.06,13.71-44.2.62-1.74,1.65-6.18,3-6.99l22.51.49,17.2,50.71.1,6.11h-.01ZM283.48,99.33h13.98l-18.43-54.01c-4.36.87-15.86-1.58-18.57,1.51l-15.86,50.93c.64,2.68,9.85,1.39,12.29,1.43l3.77-8.71c3.71.31,18.53-1.34,20.34.84.97,1.17,2.13,7.77,2.48,8.01Z"/>
  <path d="M233.56,99.83c-1.03,3.69-16.46,3.1-17.53,1.56-1.69-5.33,1.46-40.26-2.1-41.06l-12.07-1.2c-1.75-1.51-3.02-15.83,2.28-15.71,9.88,1.78,35.19-2.76,43.17.63,2.87,1.22,2.65,8.85,2.01,11.61-1.6,6.84-10.68,4.28-15.76,4.71v39.45h0ZM246.54,57.38c1.04-3.99,2.55-9.17-1.5-11.99h-40.93c-2.66,1.27-1.52,11.15-.36,11.85,2.1.7,13.84-.33,13.84,1.63v40.45h12.98v-40.45l1.5-1.5h14.48,0Z"/>
  <path d="M206.11,169.24c-2.12-.65-1.31-3.47-1.08-5.04,1.19-7.95,11.31-38.1,14.76-46.19,1.71-4.02,2.81-5.33,7.22-5.76,3.74-.36,14.7-.71,16.97,2.12l16.57,52.35-1.67,2.38c-3.86-.17-9.18.81-12.81.12-5.21-.99-3.57-7.95-6.14-8.84l-14.73-.19-4.11,9.05c-3.92-.74-11.69,1.01-14.97,0h0ZM207.6,167.24l12-.48,3.46-8.52,18.5-.5,4.61,9.37,11.93-.84-16.53-50.49-18.51.49-15.45,50.96h-.01Z"/>
  <path d="M367.04,43.59c3.16-.93,24.5-.59,28.51.04,30.73,4.79,32.69,50.16.98,57.43-4.62,1.06-28.23,2.55-30.72.28-1.29-1.18-1.37-3.8-1.52-5.47-.95-10.65-1.35-37.86,0-48.04.26-1.95.58-3.61,2.74-4.25h0ZM367.34,99.33h26.46c22.21,0,32.85-35.03,12.81-48.78-1.18-.81-10.13-5.16-10.82-5.16h-28.45v53.94h0Z"/>
  <path d="M459.68,169.24c-1.94-.61-1.51-3.62-1.28-5.24.82-5.88,12.49-42.46,15.24-47.71,3.26-6.22,17.83-4.78,23.53-2.27l15.94,52.71c-.35,3.65-11.65,3.04-14.5,2.51-3.47-.64-3.88-5.98-4.59-8.89l-16.42.85-2.95,8.04c-3.9-.74-11.72,1.02-14.97,0h0ZM511.1,167.25l-15.44-50.97-19.4-.86-15.08,51.83,12.02-.46,2.84-8.95c.53-.79,16.57-1.04,18.42-.42,2.68.91,3.06,7.21,3.75,9.72l12.88.1h0Z"/>
  <path d="M115.66,160.36l-15.25.03-4.26,8.72c-11.97-.57-17.44,4.59-14.05-10.06,2.32-10.01,7.07-23.5,10.43-33.52.92-2.75,3.46-12.21,5.92-13.06,7.03.7,18.8-3.29,22.36,4.28.92,8.66,17.12,44.04,15.76,49.8-.86,3.62-14.45,3.45-17.15,2.53-2.41-.82-3.24-6.41-3.76-8.72h0ZM117.61,115.45l-19.72-.04-15.08,51.83,11.99-.49c2.88-1.44,1.4-6.47,3.45-8.53,1.33-1.33,15.83-1.5,17.84-.81,3.02,1.04,2.81,8.16,4.61,9.37l13.02.46-16.12-51.8h.01Z"/>
  <path d="M338.25,160.38h-15.71c-1.37,2.84-.81,8.16-4.63,8.86-3.09.56-15.45.99-16.34-2.7,5.95-15.26,9.26-33.24,15.37-48.21.52-1.27,1.12-3,2.02-3.97,2.75-2.95,22.39-4.41,23.47,2.38,2.95,14.19,9.78,27.46,13.64,41.29.93,3.31,2.04,6.91.83,10.28-8.97,1.66-17.87,3.94-18.66-7.93h.01ZM339.22,115.48l-18.67-.04-15.14,51.34c11.03,1.83,12.76,1.29,15.99-9.04,10.54-.6,19.43-4.03,21.12,9.36l12.84.14-16.14-51.77h0Z"/>
  <path d="M63.84,43.89c.65-.6,1.24-1.62,2.01-1.98,2.2-1.03,23.62-.89,27.42-.5,9.67.98,19.07,7.44,20.36,17.58,2.59,20.34-12.84,28.09-30.84,26.35l-1.14,15.85c-6-1.03-13.34,3.3-17.83-1.36v-55.93h.02ZM95.29,43.39c-8.21-1.37-19.83,1.02-28.45,0v55.93l13.04-.44.93-15.55c14.01,1.17,31.79-3.06,31.02-20.49-.39-8.9-7.66-17.98-16.54-19.46h0Z"/>
  <path d="M447.98,42.68c44.69-5.62,46.74,62.11,3.88,61.26-36.34-.73-38.92-56.85-3.88-61.26ZM446.97,44.65c-28.17,4.2-29.75,52.07,0,56.41,44.25,6.46,44.48-63.05,0-56.41Z"/>
  <path d="M163.68,169.24c-.46-1.83-.9-3.52-1.05-5.45-.86-10.94-1.36-36.63,0-47.04.53-4.09,1.8-4.15,5.48-4.51,7.37-.72,24.14-.67,30.52,2.55,18.29,9.25,12.41,34.71-6.73,38.23-4.02.74-8.37-.78-11.81,1.17-1.99,2.86,1.61,12.17-1.93,15.05h-14.48ZM164.68,115.31v50.44c3.18,3,8.84.92,12.98,1.5v-14.48c0-.33,1.32-1.52,1-2.5h14.48c1.34,0,7.77-3.61,9.03-4.95,9.45-10.02,5.05-27.94-9.12-29.92-4.44-.62-10.2-.04-14.87-.1-4.26-.05-8.68-1.14-13.49,0h0Z"/>
  <path d="M136.48,101.07c-3.93,2.06-16.05,2.51-17.53-2.44l.3-53.25c1.32-2.71,16.85-4.36,18.25,1.73,1.64,7.12.93,39.1.26,47.75-.16,2.13-.47,4.23-1.28,6.21ZM134.73,45.39h-12.98v53.94h12.98v-53.94Z"/>
  <path d="M280.48,113.31v38.45l1.5,1.5h17.47c.97,3.39,2.54,13.76-.99,15.49-1.77.86-28.01.97-31.5.54-1.07-.13-2.3.04-3.01-.98-.35-18.39-3.82-37.66.49-55.57l16.04.57ZM264.51,116.81v48.94l1.5,1.5h31.45c.3-3.84,2.76-8.82-.5-11.99h-18.47v-37.46c0-.29-1.02-2.33-1.69-2.53-2.51.4-11.47-1.11-12.29,1.53h0Z"/>
  <path d="M518.96,57.52c1.13.69,2.54,9.29,4.55,10.92,2.37,1.91,8.78,1.74,11.82,2.91l1.25,1.92c.49,4.89-7.38,5.78-8.12,9.03s1.65,9.21.61,13.04c-4.67,1-9.48-4.05-13.47-4.06-4.21,0-9.39,5.73-14.47,3.03-.24-4.03,3.54-8.5,3.01-12.4-.61-4.52-9.73-5.45-7.91-11.45,3.07-2.43,10.82-1.32,12.9-2.57,2.33-1.41,4.87-13.41,9.84-10.36h-.01ZM534.05,73.37c-12.4-.25-12.43-3.14-17.47-12.98-5.41,8.59-5.36,12.79-17.47,10.97-.88,3.83,4.33,4.44,6.04,7.43,2.78,4.86-.73,8.69-1.04,13.53,3.75.77,8.65-3.92,11.47-3.92,1.72,0,11.04,5.49,11.47,4.92-2.88-11.45-1.36-12.73,7-19.97v.02Z"/>
  <path d="M331.14,277.36c13.87-2.29,17.83,11.72,12.09,22.08-2.28,4.11-16.86,19.06-21.25,18.62s-17.15-11.28-20.05-14.97c-13.47-17.14,3.11-31.78,18.99-19.16,3.12-3.05,5.63-5.82,10.21-6.57h.01ZM319,285.56c-5.2-3.55-8.66-6.32-15.27-2.65-4.5,2.5-4.96,6.88-4.22,11.62.98,6.32,16.97,21.18,23.3,20.54,4.04-.41,16.49-13.39,18.77-17.27,9.62-16.32-11.13-26.73-19.73-10.66l-1.88-.02c-.55-.13-.58-1.29-.97-1.55h0Z"/>
  <path d="M261.48,270.08c-10.61,2.86-6.17,7.79-5.96,16.02-3.95.92-9.24-3.17-12.39-2.99-2.46.14-12.4,7.51-12.54,1.56-.06-2.73,3.09-5.69,1.81-9.86-1.07-3.48-7.73-3.4-6.86-7.16,1.08-4.32,8.32-2.56,11.36-4.44,1.11-.68,2.18-4.82,3.66-6.58,6.36-7.6,7.04,4.41,10,6.97,3.32,2.86,11.69-.16,10.93,6.47h-.01ZM259.51,268.14c-2.68-.26-7.7-.33-9.96-1.53-3.29-1.75-1.9-9.56-6.99-9.46-2.37,7.06-6.04,10.99-13.99,9.99-.23,3.79,5.96,3.46,6.85,6.7.83,3.04-2.53,7.85-1.85,11.28.35.46,8.32-4.92,10.47-4.92,2.71,0,6.02,4.02,9.48,2.92.92-2.6-2.15-6.52-1.79-8.35.56-2.88,6.25-4.65,7.78-6.62h0Z"/>
  <path d="M61.81,353.07c1.64,4.33-4.14,6.14-4.81,8.68s1.61,5.53.79,8.2c-3.72,2.08-6.9-2.11-10.34-1.92-2.68.15-6.21,4.25-8.6,2.54s.98-6.73-.11-9.87c-.75-2.16-9.89-5.08-3.6-7.92,2.37-1.07,5.44-.21,7.34-1.65,2.23-1.69,2.15-10.79,7.43-5.63,3.81,3.73,2.59,8.03,11.9,7.57ZM59.85,355.03c-7.62.51-8.76-3.12-12.97-8-.55,7.33-5.15,7.1-10.99,8.48,6.23,4.28,6.31,5.01,4.99,12.49,6.15-2.6,7.31-3.66,13.46.02-.39-7.37-.08-8.23,5.5-12.98h.01Z"/>
  <path d="M303.7,355.77c1.7,1.39,8.02.55,8.72,2.79,1.1,3.37-4.66,4.94-5,6.17-1.12,4.04,3.95,10.15-3.39,9.27-2.07-.25-3.6-2.13-5.99-1.99-2.67.16-6.1,4.21-8.59,2.53-2.08-1.41.75-5.74-.16-8.8-.68-2.29-6.25-5.18-5.8-7.2,2.08-2.58,6.68-1.52,8.94-3.05,1.54-1.04,3.63-7.36,4.61-7.52,4.58-.74,5.05,6.47,6.67,7.8h-.01ZM301.71,357.76c-.59-.49-2.96-7.75-4.24-6.73-.64,6.44-4.79,8.74-10.99,8,5.06,5.34,6.53,6.16,5,13.97,5.25-3.71,8.24-3.15,13.96-1,.46-2.42-1.44-4.97-.85-7.26.71-2.72,4.64-3.53,5.84-5.71-2.14-.03-7.16.03-8.72-1.27Z"/>
  <path d="M190.54,282.2c2.34,3.75-4.02,5.32-4.71,7.59-.63,2.04.21,8.93-.19,9.31-3.21,1.12-6.18-1.84-8.56-2-2.79-.2-6.74,3.37-10.41,2,2.21-8.68-.24-9.22-4.99-15.45,2.04-3.14,6.89-1.95,9.33-3.44,2.09-1.28,2.28-9.97,7.22-6.15,1.78,1.37,2.33,5.56,4.42,6.56,1.65.8,7.28.6,7.89,1.59h0ZM177.64,276.12c-3.56-.4-3.43,5.31-5.97,6.5-2.25,1.06-5.24-.45-6.98,1.99,5.65,3.92,5.52,5.53,4.98,12.48,5.52-2.5,8.43-2.51,13.97,0,.08-2.67-1.7-5.59-1.03-8.27.29-1.17,5.85-2.74,5.02-5.7-6.19.64-8.95-.8-9.99-6.99h0Z"/>
  <path d="M320.41,662.67l-16.96,1.98c.16-1.61,4.29-1.87,5.5-1.97,3.78-.32,7.68.18,11.46,0h0Z"/>
  <path d="M59.85,680.65c.25,1.71-2.38,1.07-3.47.98-3.74-.32-5.7-.65-9.75-.63-1.3,0-2.2.88-2.75-1.34l15.97,1h0Z"/>
  <polygon points="322.41 612.72 308.84 614.64 307.44 612.72 322.41 612.72"/>
  <path d="M67.83,787.52c.24,1.74-2.27.94-3.48.99-2.49.1-5.01-.06-7.49-.01,2.34-3.59,7.68-1.39,10.97-.98Z"/>
  <path d="M323.4,774.53c.04,1.7.57,2.17-1.4,1.92-3.13-.39-6.15-1.57-9.57-.94l10.97-.98Z"/>
  <path d="M47.87,737.56l-11.97-1.98c3.61.6,9.77-1.77,11.97,1.98Z"/>
  <rect x="314.43" y="712.61" width="3.98" height=".98"/>
  <rect x="35.9" y="631.71" width="2.98" height=".98"/>
  <path d="M27.9,631.71c.68.35-.58,1.7-1.99.98-.68-.35.58-1.7,1.99-.98Z"/>
  <path d="M231.29,384.24c6.04,5.9-8.6,1.75-10.2,1.69-3.02-.11-12.99,3.26-13.46.57-.86-5.01,18.28-7.51,23.66-2.25h0Z"/>
  <path d="M167.55,385.11l.12,3.87c-8.99-2.64-13.93,1.49-21.96,4-2.25-8.06,19.27-11.02,21.83-7.87h.01Z"/>
  <path d="M210.6,441.93c-6.83,10.6-31.42,10.25-38.93,1.49-.96-1.12-2.41-1.63-1.99-3.49,3.5.6,4.58,3.96,7.97,5.5,6.15,2.8,16.8,3.33,23.21,1.22,3.68-1.21,5.74-4.74,9.75-4.72h-.01Z"/>
  <path d="M203.3,429.62c-1.92,2.16-6.75,3.84-9.67,3.3-.13-3.2,3.73-1.72,6.5-3.98,6.84-5.57-.65-10.89-4.51-14.99,7.47.2,12.89,9.77,7.67,15.66h0Z"/>
  <path d="M227.56,411.96c-3.65-3.92-2.94-9.1-10.1-8.48-3.18.74-5.13,6.43-4.87,9.49-3.06.96-2.24-3.57-1.78-5.29,3.01-11.12,18.54-6.75,16.75,4.28h0Z"/>
  <path d="M169.66,415.95l-2.95-7.51c-2.46-2.8-6.92-3.49-9.49-.44-2.09,2.48-.62,5.82-3.02,7.94-3.26.06-1.29-12.44,7.97-12.03,6.74.29,8.5,6.19,7.5,12.05h0Z"/>
  <path d="M111.75,427.94l-4.97-10.5-8-5.47c9.17-.3,13.85,7.48,12.96,15.98h.01Z"/>
  <polygon points="551.03 749.56 557.52 747.47 566 749.56 551.03 749.56"/>
  <path d="M575.98,713.61c.68.35-.58,1.7-1.99.98-.68-.35.58-1.7,1.99-.98Z"/>
  <path d="M451.2,324.06c-1.6-11.75,29.34-7.76,31.75-1.29,3.54,9.52-11.04,1.29-14.28,1.29h-17.47Z"/>
  <path d="M403.39,324.95c-4.9-9.96,20.83-9.01,23.43-6.98,1.69,1.31,2.12,4.09.41,5.63l-23.84,1.34h0Z"/>
  <path d="M461.87,336.14c7.39-1.9,7.62,19.49-1.25,13.95-4.21-2.63-2.87-12.88,1.25-13.95Z"/>
  <path d="M414.95,336.17c7.1-1.88,5.16,20.81-2.22,13.88-2.46-3.5-2.54-12.62,2.22-13.88Z"/>
  <path d="M517.41,349.35c-2.58,3.09-1.22,7.46-4.31,9.67-.58-3.76,1.36-9.77,3.96-12.51,1.05-1.1,8.3-4.95,7.99-1.97-.07.71-6.33,3.25-7.64,4.82h0Z"/>
  <path d="M338.38,415.96c-.11,1.4-4.52,1.76-5.61,1.86-2.13.19-4.24.2-6.36.12-1.62-1.23.02-1.81,1.47-1.99,3.26-.42,7.15.29,10.5.01h0Z"/>
  <rect x="317.42" y="458.9" width="18.97" height="1"/>
  <rect x="313.43" y="438.92" width="14.97" height="1"/>
  <path d="M577.98,605.73c3.48,2.63-9.34,2.11-9.97,1.98.27-2.5,9.56-2.3,9.97-1.98Z"/>
  <rect x="553.03" y="635.7" width="2.98" height=".98"/>
  <path d="M565,635.7c.68.35-.58,1.7-1.99.98-.68-.35.58-1.7,1.99-.98Z"/>
  <path d="M454.19,381c-.35,1.9-2.08,1.66-3.45,2.04-9.95,2.77-24.43,3.24-32.49-4.03,12.28,5.2,23.1,4.65,35.94,2h0Z"/>
  <rect x="291.47" y="482.88" width="4.98" height=".98"/>
  <path d="M287.47,483.86l-2.99-.48c1.33-1.89,2.14-1.69,2.99.48Z"/>
  <rect x="60.86" y="513.84" width="3.98" height="1.99"/>
  <rect x="63.85" y="526.83" width="2.98" height=".98"/>
  <path d="M328.4,493.87c-.53,1.99-2.13,2.24-3.99,1.98v-1.99h3.99Z"/>
  <path d="M336.38,493.86c1.09,1.09-.9,3.08-1.99,1.99s.9-3.08,1.99-1.99Z"/>
  <path d="M287.47,495.87l5.98-1.01c.31,3.65-4.71,4.27-5.98,1.01Z"/>
  <path d="M332.39,507.83c-2.44-.06-6.02.84-6.99-1.98,2.44.06,6.02-.84,6.99,1.98Z"/>
  <path d="M330.39,509.84c1.09,1.09-.9,3.08-1.99,1.99s.9-3.08,1.99-1.99Z"/>
  <path d="M74.62,183.52l441.95-.28c33.19,1.19,38.04,43.48,5.01,49.93H70.33c-33.04-6.21-27.94-48.15,4.29-49.65h0ZM129.74,199.2c2.24.79,8.49-1.9,7.98-4.47-.69-3.46-9.45,3.21-7.98,4.47ZM174.66,202.21c-8.79-1.56-14.82,3.07-12.78,12.26,1.87,8.41,9.45,4.45,15.18,5.55l1.13-.79.3-23.37-3.83-1.65v7.99h0ZM233.08,194.22c-2.29.51-1.59,4.99-.02,4.97,2.11-.03,3.61-5.77.02-4.97ZM243.54,194.21h-2.99v25.97h2.99v-25.97ZM248.54,195.71c-1,3.66,0,17.91,0,22.97,0,.61,2.06,1.92,2.99,1.49-1.79-19.37,13.08-21.19,9.99,0h2.99c.04-9.99,2.41-23.38-11.97-15.99,2.04-2.75-2.22-14.98-4-8.49h0ZM480.15,218.68v-22.97c0-.69-2.26-2.49-3.53-.53-1.17,1.82-.16,5.8-.48,8.02-15.02-7.22-18.04,18.42-4.57,16.99,1.55-.17,3.18-1.72,4.07-1.64,1.34.11,2.44,3.3,4.5.14h.01ZM81.81,195.21l-3.84,1.66c-2.24,7.23,5.32,24.77-8.14,19.32-1.69,5.97,11.97,4.92,11.97.5v-21.47h0ZM227.57,195.21h-14.48c-.99.63-1.29,1.38-1.5,2.5-.51,2.78-.5,17.17,0,19.97.39,2.18,1.32,2.81,3.49,2.5,1.54-.21-.79-9,1.44-10.56l11.04-.44c.07-4.97-8.68-1.86-11.04-3.44-3.41-9.77,3.64-7.46,11.05-7.55v-2.99h0ZM346.38,207.19c-1.72.08-9.98-.7-9.97,1.5l7.97,3.02c-10.04,18.22-22.19-11.98-7.4-13.5,2.86-.3,9.23,4.75,9.37,1.5.23-5.34-16.82-8.63-19.5,4.43-3.95,19.31,22.6,23.12,19.53,3.05ZM92.52,202.42c-7.45,1.67-7.55,15.17-.77,17.31,15.69,4.96,16.74-20.88.77-17.31ZM110.77,208.18c-.55-5.99,9.87.03,8.98-4.46-4.03-4.36-15.95-.06-12.05,5.78,2.21,3.31,11.17,1.45,9.07,7.69l-10-.48c.82,4.28,10.63,4.07,12.74,2.24,4.44-7.97-2.8-8.64-8.73-10.76h-.01ZM127.74,212.2l11.33-.15c5.95-1.96-3.04-15.89-12.38-7.39-7.63,6.95-.03,18.6,10.6,14.59,1.8-.68,5.01-3.58,1.9-4.07-1.53-.24-10.56,6.73-11.45-2.98ZM187.34,202.42c-9,2.67-6.87,21.45,7.34,17.31,1.86-.54,5.61-4.04,2.41-4.55-1.51-.24-7.74,5.59-11.43-1.49,3.6-3.98,15.32,2.26,12.53-6.54-1.47-4.64-6.5-6.02-10.85-4.73ZM231.56,202.2v16.48c0,.61,2.05,1.92,2.98,1.49.85-.61,3.6-20.57-2.98-17.97ZM270.76,217.93c1.39,1.5,6.03,2.5,8.13,2.24,9.92-1.25,9.88-20.1-3.84-17.9-6.83,1.1-8.29,11.36-4.3,15.66h0ZM299.69,211.43l-1.09,5.03c3.02,7.1,8.95,1.88,11.32,2.09,1.34.12,2.59,3.34,4.46.09-1.44-11.54.23-19.79-14.93-15.42-.29,5.45,8.18-.65,9.97,3.49,1.92,4.45-7.73,2.76-9.73,4.72ZM356.07,202.43c-6.93,1.64-7.43,14.15-.45,16.99,14.83,6.04,17.16-20.95.45-16.99ZM378.33,215.19c.94-1.49-6.76-18.55-8-11.46-.16.93,5.76,16.16,8.49,16.52,3.08,0,9.32-17.23,8.48-18.04-6.27-.6-4.36,10.25-8.97,12.98h0ZM394.3,212.2c4.64-.58,13.97,2.59,11.55-5.05-3.42-10.79-20.37-3.09-15.3,8.25,4.05,9.04,18.17,3.4,14.72-.2-4.58,2.35-10.86,4.1-10.97-3ZM410.26,203.7v14.98c0,.37,1.51,1.7,2.48,1.49,2.93-.64.55-10.55,2-12.99,1.34-2.26,6.31-1.56,6.51-2.49,1.19-5.62-5.85-.83-6.51-.85-1.2-.03-2.45-3.33-4.48-.14h0ZM424.24,202.2v17.98h2.99c.25-5.3-2.1-14.49,5.58-14.99,6.91-.45.88,14.13,4.92,14.98,3.78.79,2.67-11.9,2.03-14.03-2.19-7.23-10.41-1.8-15.52-3.95h0ZM445.45,218.94c3.33,3.3,7.79-.52,9.23-.4,1.33.11,2.59,3.35,4.46.09-1.76-10.89,1.29-19.96-13.93-15.42-2.93,3.04,7.92,1.58,8.82,2.14.23.14,1.24,2.86,1.2,3.24-.18,1.82-8.07,1.16-9.78,2.83-1.56,1.53-1.53,5.99,0,7.51h0ZM489.85,202.42c-7.93,1.78-7.82,15.89.01,17.58,15.04,3.23,15.46-21.06-.01-17.58ZM506.1,202.2v17.98c2.32.13,1.77.35,2-1.48.66-5.29-1.9-9.44,4.05-12.97,1.28-.76,3.73-.14,3.94-1.03,1.25-5.45-5.38-.76-6.51-.84s-1.69-2.24-3.49-1.65h0ZM144.71,224.17c2.34,2.63,7.9-10.94-1-7.98,1.34,3.24,2.18,4.33,1,7.98Z" fill="#fff"/>
  <path d="M147.7,45.39l14.56.92c6.37,9.7,11.94,19.96,18.14,29.76.64,1.01-.1,1.76,2.24,1.29v-31.96l11.31-.04,1.4,2.77-.74,51.21h-13.98c-6.14-8.5-11.15-21.02-17.53-28.9-.95-1.18-1.62-2.41-3.43-2.06v30.96h-11.98v-53.94h0Z" fill="#fff"/>
  <path d="M342.38,77.35v-30.46c3.18-3,8.84-.92,12.98-1.5v53.94h-14.48c-6.79-8.3-11.88-21.47-18.64-29.3-.89-1.04-.96-2.09-2.83-1.66v30.96h-12.98v-52.44c2.43-2.38,13.35-2.14,15.54-.57,3.95,2.84,13.45,23.93,17.56,29.37.86,1.14,1.05,2.03,2.84,1.66h.01Z" fill="#fff"/>
  <path d="M366.2,115.44c1.62,1.05,7.98,32.45,10.06,37.38.43,1.01.71,2.32,2.04,2.44l11.13-39.82,12.85-.13c-1.25,6.27-13.85,50.82-16.64,51.77-2.45.84-16.9.82-18.11-1.53l-14.17-50.25,12.85.13h-.01Z" fill="#fff"/>
  <path d="M440.71,115.31c16.38,2.72,16.66,26.43,2.74,33.44l9.74,18.49c-3.38-.48-9.03.95-11.98-.49-5.55-2.7-7.47-20.73-16.97-17.48v17.98h-12.98v-51.94c8.93,1.05,20.94-1.41,29.45,0h0ZM424.24,139.28c21.41,3.42,21.04-17.91,0-14.98v14.98Z" fill="#fff"/>
  <path d="M98.95,270.96c2.43,1.52,11.71-1.86,18.32,4.15,2.32,2.11,3.79,7.7,5.46,8.52,3.63,1.81,15.6-1.31,15.56,7.97-.06,11.19-19.34,11.04-27.01,10.47-3.31-.24-6.86-2.26-10.01-2.07-6.62.4-10.5,7.46-23.84,5.97-6.88-.77-13.61-6.56-16.13-6.91-2.92-.4-7.04,1.85-10.04,1.91-6.68.14-14.65-3.48-16.14-10.6-2.83-13.62,9.74-19.92,21.59-18.39,2.62-18.19,29.15-20.33,39.06-7.35,1.19,1.56,2.86,6.13,3.16,6.32h.02Z" fill="#fff"/>
  <path d="M283.48,99.33c-.35-.23-1.51-6.83-2.48-8.01-1.81-2.18-16.63-.53-20.34-.84l-3.77,8.71c-2.44-.04-11.64,1.25-12.29-1.43l15.86-50.93c2.71-3.09,14.21-.63,18.57-1.51l18.43,54.01h-13.98ZM269.51,57.38l-4.88,21.33c.85,2.55,12.93,2.85,12.7-.65-3-6.56-3.41-14.99-7.83-20.68h0Z" fill="#fff"/>
  <path d="M246.54,57.38h-14.48l-1.5,1.5v40.45h-12.98v-40.45c0-1.96-11.74-.93-13.84-1.63-1.16-.7-2.29-10.58.36-11.85h40.93c4.05,2.82,2.54,8,1.5,11.99h0Z" fill="#fff"/>
  <path d="M207.6,167.24l15.45-50.96,18.51-.49,16.53,50.49-11.93.84-4.61-9.37-18.5.5-3.46,8.52-12,.48h.01ZM225.57,147.27h13.98l-6.5-20.99c-1.81-.2-1.96,1.3-2.46,2.53-2.25,5.47-3.25,12.71-5.01,18.46h0Z" fill="#fff"/>
  <path d="M367.34,99.33v-53.94h28.45c.69,0,9.63,4.35,10.82,5.16,20.03,13.74,9.4,48.78-12.81,48.78h-26.46ZM380.31,88.34c15.12,1.74,23.66-3.48,22.03-19.54-.95-9.3-14.4-15.23-22.03-10.92v30.46Z" fill="#fff"/>
  <path d="M511.1,167.25l-12.88-.1c-.69-2.51-1.07-8.82-3.75-9.72-1.85-.63-17.89-.37-18.42.42l-2.84,8.95-12.02.46,15.08-51.83,19.4.86,15.44,50.97h0ZM487.13,126.3c-2.02-.38-2.39.91-3.06,2.42-.77,1.72-5.61,17.89-4.92,18.55h12.98l-5-20.97Z" fill="#fff"/>
  <path d="M117.61,115.45l16.12,51.8-13.02-.46c-1.8-1.2-1.59-8.33-4.61-9.37-2.01-.69-16.51-.53-17.84.81-2.06,2.06-.57,7.09-3.45,8.53l-11.99.49,15.08-51.83,19.72.04h-.01ZM108.75,126.29c-.26-.22-2.16.13-2.97,0-.07,7.27-3.44,13.99-4.99,20.98h12.98c-.41-2.74-4.18-20.28-5.01-20.97h-.01Z" fill="#fff"/>
  <path d="M339.22,115.48l16.14,51.77-12.84-.14c-1.69-13.39-10.58-9.97-21.12-9.36-3.23,10.33-4.96,10.87-15.99,9.04l15.14-51.34,18.67.04h0ZM330.38,126.3c-2.7-.37-1.54.22-2,1.46-.86,2.33-5.68,18.78-4.98,19.51h12.98l-6-20.97Z" fill="#fff"/>
  <path d="M95.29,43.39c8.88,1.48,16.15,10.56,16.54,19.46.77,17.42-17.01,21.66-31.02,20.49l-.93,15.55-13.04.44v-55.93c8.62,1.02,20.24-1.37,28.45,0h0ZM80.82,55.38v15.48c5.68,3.46,15.58,1.8,16.06-5.95.71-11.46-7.3-9.55-16.06-9.53Z" fill="#fff"/>
  <path d="M446.97,44.65c44.48-6.64,44.25,62.87,0,56.41-29.74-4.34-28.16-52.21,0-56.41ZM451.83,55.7c-14.52.84-17.69,27.83-3.87,33.37,19.98,8,24.44-34.55,3.87-33.37Z" fill="#fff"/>
  <path d="M164.68,115.31c4.81-1.15,9.23-.06,13.49,0,4.67.06,10.43-.52,14.87.1,14.17,1.98,18.57,19.9,9.12,29.92-1.26,1.34-7.69,4.95-9.03,4.95h-14.48c.32.98-1,2.16-1,2.5v14.48c-4.14-.57-9.8,1.5-12.98-1.5v-50.44h0ZM179.29,124.44c-2.92.97-1.56,11.98-1.2,14.9,7.88,3.02,18.29-.23,15.32-10.34-1.2-4.08-10.7-5.7-14.12-4.56h0Z" fill="#fff"/>
  <rect x="121.75" y="45.39" width="12.98" height="53.94" fill="#fff"/>
  <path d="M264.51,116.81c.82-2.64,9.78-1.14,12.29-1.53.66.2,1.69,2.25,1.69,2.53v37.46h18.47c3.26,3.17.8,8.15.5,11.99h-31.45l-1.5-1.5v-48.94h0Z" fill="#fff"/>
  <path d="M534.05,73.37c-8.36,7.24-9.87,8.51-7,19.97-.43.57-9.75-4.92-11.47-4.92-2.83,0-7.72,4.68-11.47,3.92.31-4.85,3.82-8.67,1.04-13.53-1.71-2.99-6.92-3.6-6.04-7.43,12.12,1.82,12.06-2.38,17.47-10.97,5.04,9.83,5.07,12.72,17.47,12.98v-.02Z" fill="#fff"/>
  <path d="M319,285.56c.39.27.42,1.42.97,1.55l1.88.02c8.6-16.07,29.35-5.66,19.73,10.66-2.28,3.87-14.73,16.86-18.77,17.27-6.33.65-22.32-14.21-23.3-20.54-.74-4.74-.28-9.12,4.22-11.62,6.61-3.67,10.06-.9,15.27,2.65h0Z" fill="#fff"/>
  <path d="M259.51,268.14c-1.53,1.97-7.22,3.74-7.78,6.62-.36,1.83,2.71,5.75,1.79,8.35-3.46,1.1-6.77-2.92-9.48-2.92-2.15,0-10.13,5.38-10.47,4.92-.68-3.43,2.68-8.23,1.85-11.28-.89-3.24-7.07-2.91-6.85-6.7,7.95,1,11.62-2.93,13.99-9.99,5.08-.1,3.7,7.72,6.99,9.46,2.26,1.2,7.27,1.27,9.96,1.53h0Z" fill="#fff"/>
  <path d="M59.85,355.03c-5.58,4.75-5.89,5.62-5.5,12.98-6.16-3.68-7.31-2.61-13.46-.02,1.31-7.48,1.24-8.21-4.99-12.49,5.84-1.39,10.44-1.15,10.99-8.48,4.21,4.88,5.34,8.5,12.97,8h-.01Z" fill="#fff"/>
  <path d="M301.71,357.76c1.56,1.3,6.58,1.24,8.72,1.27-1.2,2.18-5.13,2.99-5.84,5.71-.6,2.29,1.31,4.84.85,7.26-5.72-2.15-8.71-2.71-13.96,1,1.52-7.81.05-8.63-5-13.97,6.2.75,10.35-1.55,10.99-8,1.28-1.02,3.65,6.24,4.24,6.73Z" fill="#fff"/>
  <path d="M177.64,276.12c1.04,6.19,3.81,7.64,9.99,6.99.83,2.96-4.72,4.53-5.02,5.7-.67,2.68,1.1,5.6,1.03,8.27-5.53-2.51-8.44-2.5-13.97,0,.54-6.95.67-8.56-4.98-12.48,1.74-2.43,4.73-.93,6.98-1.99,2.53-1.19,2.41-6.9,5.97-6.5h0Z" fill="#fff"/>
  <path d="M346.38,207.19c3.07,20.07-23.47,16.26-19.53-3.05,2.67-13.06,19.72-9.77,19.5-4.43-.14,3.25-6.5-1.8-9.37-1.5-14.79,1.53-2.64,31.73,7.4,13.5l-7.97-3.02c0-2.2,8.25-1.42,9.97-1.5Z"/>
  <path d="M174.66,202.21v-7.99l3.83,1.65-.3,23.37-1.13.79c-5.73-1.1-13.31,2.86-15.18-5.55-2.04-9.19,3.99-13.82,12.78-12.26h0ZM168.36,205.39c-5.29,1.64-4.2,13.92,3.59,11.63,3.92-1.16,5.56-14.46-3.59-11.63Z"/>
  <path d="M480.15,218.68c-2.06,3.16-3.16-.03-4.5-.14-.89-.07-2.53,1.48-4.07,1.64-13.47,1.44-10.45-24.21,4.57-16.99.31-2.23-.69-6.2.48-8.02,1.26-1.96,3.53-.16,3.53.53v22.97h-.01ZM468.31,217.04c9.59,3.57,11.68-13.52,2.4-11.83-5.17.94-3.92,8.16-2.4,11.83Z"/>
  <path d="M227.57,195.21v2.99c-7.41.09-14.46-2.22-11.05,7.55,2.36,1.58,11.11-1.53,11.04,3.44l-11.04.44c-2.23,1.55.1,10.34-1.44,10.56-2.17.3-3.1-.32-3.49-2.5-.5-2.8-.51-17.19,0-19.97.2-1.12.51-1.87,1.5-2.5h14.48Z"/>
  <path d="M248.54,195.71c1.78-6.49,6.04,5.74,4,8.49,14.38-7.39,12,6,11.97,15.99h-2.99c3.09-21.2-11.78-19.38-9.99,0-.93.43-2.99-.89-2.99-1.49,0-5.06-1-19.32,0-22.97h0Z"/>
  <path d="M187.34,202.42c4.35-1.29,9.38.09,10.85,4.73,2.79,8.8-8.93,2.56-12.53,6.54,3.69,7.08,9.92,1.25,11.43,1.49,3.2.51-.55,4.01-2.41,4.55-14.21,4.14-16.33-14.64-7.34-17.31ZM194.63,210.19c2.09-7.35-9.15-5.89-8.96-1.49.09,2.14,7.34,1.47,8.96,1.49Z"/>
  <path d="M127.74,212.2c.89,9.71,9.92,2.74,11.45,2.98,3.11.49-.1,3.39-1.9,4.07-10.63,4.01-18.23-7.64-10.6-14.59,9.33-8.5,18.33,5.43,12.38,7.39,0,0-11.33.15-11.33.15ZM136.73,210.19l-.12-3.37c-1.21-3.63-11.05-1.48-8.36,3.38h8.48Z"/>
  <path d="M489.85,202.42c15.47-3.48,15.06,20.8.01,17.58-7.84-1.68-7.94-15.79-.01-17.58ZM490.84,205.37c-3.95,1.17-3.95,10.47,0,11.64,9.36,2.77,9.37-14.41,0-11.64Z"/>
  <path d="M92.52,202.42c15.97-3.57,14.92,22.27-.77,17.31-6.78-2.14-6.68-15.65.77-17.31ZM93.52,205.38c-5,1.46-4.61,8.71-.73,11.31,8.06,3.92,9.34-9.83,4.28-11.32-1.19-.38-2.36-.34-3.56,0h.01Z"/>
  <path d="M299.69,211.43c2-1.96,11.65-.27,9.73-4.72-1.79-4.14-10.26,1.96-9.97-3.49,15.16-4.37,13.49,3.89,14.93,15.42-1.87,3.25-3.12.03-4.46-.09-2.37-.21-8.3,5.01-11.32-2.09l1.09-5.03ZM309.43,211.19c-4.61-.61-7.62.93-6.99,5.99,5.49.51,7.81.16,6.99-5.99Z"/>
  <path d="M394.3,212.2c.11,7.1,6.39,5.34,10.97,3,3.45,3.6-10.67,9.24-14.72.2-5.08-11.33,11.87-19.04,15.3-8.25,2.42,7.63-6.91,4.46-11.55,5.05ZM393.3,210.19c2.12-.17,4.46.28,6.53.05,9.08-.99-5.09-11.28-6.53-.05Z"/>
  <path d="M356.07,202.43c16.7-3.96,14.37,23.03-.45,16.99-6.98-2.84-6.47-15.35.45-16.99ZM358.07,205.39c-6.63,1.95-4.07,13.82,3.6,11.66,3.6-1.23,3.58-10.49,0-11.71-1.21-.36-2.4-.3-3.6.05Z"/>
  <path d="M270.76,217.93c-3.99-4.31-2.53-14.56,4.3-15.66,13.72-2.21,13.76,16.65,3.84,17.9-2.11.26-6.74-.74-8.13-2.24h0ZM273.75,206.46c-5.14,4.59,1.47,13.4,6.75,10.24,5.34-5.04-.16-16.13-6.75-10.24Z"/>
  <path d="M424.24,202.2c5.11,2.15,13.33-3.28,15.52,3.95.65,2.13,1.75,14.82-2.03,14.03-4.05-.85,1.98-15.44-4.92-14.98-7.68.5-5.33,9.69-5.58,14.99h-2.99v-17.98h0Z"/>
  <path d="M445.45,218.94c-1.54-1.53-1.56-5.99,0-7.51,1.71-1.67,9.6-1.01,9.78-2.83.04-.38-.97-3.09-1.2-3.24-.9-.56-11.75.9-8.82-2.14,15.22-4.54,12.17,4.53,13.93,15.42-1.87,3.25-3.14.02-4.46-.09-1.44-.12-5.9,3.7-9.23.4h0ZM455.18,211.2c-2.22-.81-8.52,1.93-7.98,4.47,4.48,3.59,9.32,1.7,7.98-4.47Z"/>
  <path d="M110.77,208.18c5.93,2.12,13.17,2.79,8.73,10.76-2.11,1.82-11.92,2.03-12.74-2.24l10,.48c2.1-6.24-6.85-4.37-9.07-7.69-3.9-5.84,8.02-10.14,12.05-5.78.9,4.5-9.52-1.53-8.98,4.46h0Z"/>
  <path d="M378.33,215.19c4.61-2.73,2.7-13.58,8.97-12.98.84.8-5.4,18.04-8.48,18.04-2.73-.36-8.65-15.59-8.49-16.52,1.24-7.09,8.94,9.97,8,11.46Z"/>
  <path d="M81.81,195.21v21.47c0,4.43-13.66,5.47-11.97-.5,13.46,5.45,5.89-12.09,8.14-19.32l3.84-1.66h0Z"/>
  <path d="M410.26,203.7c2.03-3.19,3.28.11,4.48.14.66.02,7.69-4.77,6.51.85-.2.93-5.17.24-6.51,2.49-1.45,2.44.94,12.36-2,12.99-.97.21-2.48-1.13-2.48-1.49v-14.98h0Z"/>
  <rect x="240.55" y="194.21" width="2.99" height="25.97"/>
  <path d="M231.56,202.2c6.58-2.6,3.84,17.37,2.98,17.97-.93.43-2.98-.89-2.98-1.49v-16.48Z"/>
  <path d="M506.1,202.2c1.8-.59,2.41,1.58,3.49,1.65s7.76-4.61,6.51.84c-.21.9-2.66.27-3.94,1.03-5.95,3.54-3.4,7.69-4.05,12.97-.23,1.83.32,1.61-2,1.48v-17.98h0Z"/>
  <path d="M144.71,224.17c1.18-3.64.34-4.73-1-7.98,8.89-2.96,3.34,10.61,1,7.98Z"/>
  <path d="M129.74,199.2c-1.47-1.27,7.29-7.94,7.98-4.47.51,2.58-5.74,5.27-7.98,4.47Z"/>
  <path d="M233.08,194.22c3.6-.8,2.1,4.94-.02,4.97-1.57.02-2.27-4.46.02-4.97Z"/>
  <path d="M424.24,139.28v-14.98c21.04-2.93,21.41,18.4,0,14.98ZM426.88,126.42c-2.68.89-1.79,7.53-1.21,9.93,16.75,6.17,13.62-14.06,1.21-9.93Z"/>
  <path d="M269.51,57.38c4.42,5.69,4.82,14.12,7.83,20.68.23,3.5-11.85,3.2-12.7.65l4.88-21.33h0ZM274.49,77.34l-4.98-11.97-2.01,11.98h6.99Z"/>
  <path d="M225.57,147.27c1.76-5.74,2.76-12.98,5.01-18.46.51-1.23.65-2.73,2.46-2.53l6.5,20.99h-13.98,0ZM236.55,145.27c.49-.44-3.13-11.42-4.98-11.98l-3,11.98h7.98Z"/>
  <path d="M380.31,88.34v-30.46c7.62-4.31,21.08,1.62,22.03,10.92,1.64,16.06-6.91,21.28-22.03,19.54ZM382.31,59.37v25.47c5.42,4.12,15.11-.37,17.2-6.76,4.24-12.96-4.51-20.85-17.2-18.71Z"/>
  <path d="M487.13,126.3l5,20.97h-12.98c-.7-.66,4.15-16.82,4.92-18.55.67-1.51,1.04-2.8,3.06-2.42ZM490.12,145.27l-4.98-11.97-3,11.97h7.98Z"/>
  <path d="M108.75,126.29c.83.69,4.6,18.23,5.01,20.97h-12.98c1.55-6.99,4.92-13.71,4.99-20.98.82.14,2.71-.21,2.97,0h.01ZM110.77,145.27c.12-2.48-.59-4.86-1.29-7.2-.37-1.23-1.22-4.6-2.69-4.78l-3,11.97h6.99,0Z"/>
  <path d="M330.38,126.3l6,20.96h-12.98c-.7-.72,4.11-17.16,4.98-19.5.46-1.25-.7-1.84,2-1.46ZM333.39,145.27l-3.98-11.97-3.01,11.97h6.99Z"/>
  <path d="M80.82,55.38c8.76-.02,16.77-1.94,16.06,9.53-.48,7.75-10.38,9.42-16.06,5.95v-15.48ZM82.81,69.37c16.38,2.9,16.36-14.91,0-12v12Z"/>
  <path d="M451.83,55.7c20.57-1.19,16.11,41.37-3.87,33.37-13.83-5.54-10.65-32.53,3.87-33.37ZM459.85,61.69c-9.14-11.15-22.34,4.29-17.34,17.86,7.66,20.76,29.65-2.83,17.34-17.86Z"/>
  <path d="M179.29,124.44c3.42-1.14,12.92.48,14.12,4.56,2.98,10.11-7.44,13.36-15.32,10.34-.36-2.92-1.72-13.93,1.2-14.9ZM181.29,126.42c-1.95.65-4.56,12.17,2.81,11.9,12.8-.46,7.63-15.38-2.81-11.9Z"/>
  <path d="M168.36,205.39c9.15-2.83,7.51,10.47,3.59,11.63-7.79,2.3-8.88-9.99-3.59-11.63Z" fill="#fff"/>
  <path d="M468.31,217.04c-1.52-3.68-2.77-10.89,2.4-11.83,9.28-1.69,7.19,15.4-2.4,11.83Z" fill="#fff"/>
  <path d="M194.63,210.19c-1.62-.02-8.87.65-8.96-1.49-.18-4.4,11.05-5.86,8.96,1.49Z" fill="#fff"/>
  <path d="M136.73,210.19h-8.48c-2.69-4.85,7.15-7,8.36-3.37l.12,3.37Z" fill="#fff"/>
  <path d="M490.84,205.37c9.37-2.76,9.36,14.41,0,11.64-3.95-1.17-3.95-10.48,0-11.64Z" fill="#fff"/>
  <path d="M93.52,205.38c1.19-.35,2.36-.39,3.56,0,5.06,1.49,3.77,15.25-4.28,11.32-3.89-2.61-4.27-9.86.73-11.31h-.01Z" fill="#fff"/>
  <path d="M309.43,211.19c.83,6.15-1.5,6.49-6.99,5.99-.63-5.06,2.38-6.6,6.99-5.99Z" fill="#fff"/>
  <path d="M393.3,210.19c1.45-11.23,15.61-.93,6.53.05-2.08.23-4.41-.23-6.53-.05Z" fill="#fff"/>
  <path d="M358.07,205.39c1.2-.35,2.39-.41,3.6-.05,3.58,1.22,3.6,10.48,0,11.71-7.67,2.15-10.23-9.71-3.6-11.66Z" fill="#fff"/>
  <path d="M273.75,206.46c6.59-5.89,12.09,5.2,6.75,10.24-5.28,3.16-11.89-5.65-6.75-10.24Z" fill="#fff"/>
  <path d="M455.18,211.2c1.35,6.17-3.5,8.06-7.98,4.47-.54-2.54,5.75-5.29,7.98-4.47Z" fill="#fff"/>
  <path d="M426.88,126.42c12.41-4.13,15.54,16.09-1.21,9.93-.58-2.4-1.47-9.04,1.21-9.93Z" fill="#fff"/>
  <polygon points="274.49 77.34 267.5 77.35 269.51 65.37 274.49 77.34" fill="#fff"/>
  <path d="M236.55,145.27h-7.98l3-11.98c1.85.56,5.47,11.54,4.98,11.98Z" fill="#fff"/>
  <path d="M382.31,59.37c12.7-2.14,21.44,5.74,17.2,18.71-2.09,6.39-11.79,10.88-17.2,6.76v-25.47Z" fill="#fff"/>
  <polygon points="490.12 145.27 482.15 145.27 485.15 133.29 490.12 145.27" fill="#fff"/>
  <path d="M110.77,145.27h-6.99l3-11.97c1.48.18,2.33,3.55,2.69,4.78.7,2.34,1.41,4.71,1.29,7.2h0Z" fill="#fff"/>
  <polygon points="333.39 145.27 326.4 145.27 329.41 133.29 333.39 145.27" fill="#fff"/>
  <path d="M82.81,69.37v-12c16.36-2.91,16.38,14.9,0,12Z" fill="#fff"/>
  <path d="M459.85,61.69c12.31,15.02-9.68,38.62-17.34,17.86-5.01-13.56,8.2-29,17.34-17.86Z" fill="#fff"/>
  <path d="M181.29,126.42c10.44-3.48,15.61,11.44,2.81,11.9-7.37.26-4.76-11.25-2.81-11.9Z" fill="#fff"/>
</svg>