<?xml version="1.0" encoding="UTF-8"?>
<svg id="Camada_1" xmlns="http://www.w3.org/2000/svg" version="1.1" viewBox="0 0 595.28 841.89">
  <!-- Generator: Adobe Illustrator 29.0.0, SVG Export Plug-In . SVG Version: 2.1.0 Build 186)  -->
  <path d="M.14.94h594v840.01H.14V.94ZM110.77,5.92H5.12l.13,8.34,103.11,27.48c1.8.07,2.08-1,2.39-2.45,2.16-9.95-3.02-23.11,0-33.37ZM198.47,5.92h-84.72v53.81l60.68.88c2.02-20.73,7.85-40.7,24.04-54.68ZM483.52,297.88l27.76-15.58,7.62-148.84c-8.46-3.57-2.55-11.82-3.89-16.95-.42-1.62-4.2-5.67-5.44-8.6-5.74-13.54-5.7-24.78-9.61-37.23-4.71-14.99-31.56-22.83-.54-33.37l-14.34-30.48-279.16-.94c-20.04,9.18-26.76,34.98-29.42,55.27,30.13,4.3,9.94,14.84,3.65,27.58-5.23,10.57-4.79,26.09-7.7,38.14-.69,2.87-3.9,7.25-3.83,9.09s2.32,3.21,2.74,5.18c1.56,7.32-3.33,8.33-3.84,13.75,2.45,27.49,1.67,55.2,3.01,82.73.75,15.45,1.33,59.27,10.46,70.25,1.45,1.74,28.72,19.93,32.11,21.7,2.24,1.17,4.4,2.56,6.89,3.18,20.89-10.95,42.15-19.94,66.18-20.94-13.85-5.14-22.89-12.72-28.94-26.35-1.27-2.86-2.15-10.73-3.47-12.47-1.79-2.37-8.26-4.08-10.52-10.41-2.67-7.49.43-13.69-.46-18.65-.46-2.57-3.93-6.41-4.44-11.32-.35-3.36-.27-20.52.25-23.68,1.12-6.86,6.16-8.06,8.92-12.99,14.58-26.01,5.99-51.76,9.89-79.79,10.34-74.3,104.08-102.31,159.8-55.39,23.61,19.88,30.05,45.34,31.48,75.15,2.28,47.6-1.44,97.3-.48,145.1-2.24,3.13-36.89,1.51-42.74,1.89-3.48,7.04-7.31,10.63-14.59,13.52-2.28.9-5.24-.1-6.81.68-.4.2-2.96,5.35-5.24,7.21-4.29,3.49-10.16,4.12-14.89,6.52,22.84,2.37,42.79,14.67,62.26,25.9l35.43-24.37c5.67-7.06,3.33-32.73,16.36-30.42,7.05,2.53,5.5,9.93,5.56,15.95ZM589.16,5.92h-100.66l14.67,31.75c28.43-3.79,57.28-7.28,85.99-4.84V5.92ZM5.12,18.88v40.85l72.25,15.96c-5.04-17.12,21.24-12.84,31.77-15.1,2.73-1.03,2.35-15.51-.12-16.79L5.12,18.88ZM589.16,35.82c-23.44-.65-47.87-.93-71.24,2.01-5.07.64-29.73,4.16-30.47,9.46-.26,1.88,9.42,14.71,11.07,15.88,2.69,1.9,5.52,1.22,8.29,2.67,4.29,2.24,10.41,10.92,11.6,15.81,2.05-6.18.78-13.73,3.59-19.8,6.94-14.96,21.43,17.31,22.32,23.79,4.09-6.32,6.64-31.15,18.2-27.69,5.36,1.61,9.14,18.49,9.7,23.71,3.65-4.46,4.88-10.17,8.55-14.86,1.73-2.21,8.38-7,8.38-7.56v-23.42ZM444.64,279.95l.05-155.99c-4.94-91.04-129.72-114.74-174.27-37.62-15.93,27.59-8.94,53.01-13.15,83l13.99-7.65c-2.01-35.11.08-66.75,28.84-90.52,46.63-38.55,130.59-5.35,130.59,57.82v135.52l-1.49,1.49h-17.94c-1.01,0-8.73,10.89-5.48,13.95h38.87ZM427.7,262.51V125c0-31.66-32.76-61.11-62.57-65.98-65.34-10.67-96.1,41.09-91.95,99.85.11,1.5-.36,1.74,1.51,1.5,4.88-4.56,11.53-7.82,18.22-8.69s13.7-1.11,20.1-1.83c18.83-2.14,17.39,1.12,32.68,4.35,10,2.11,15.59-.86,26.12,6.76,2.41,1.74,17.58,15.37,19.4,17.47,8.83,10.2,4.72,21.49,7.79,32.07.76,2.63,5.94,6.32,7.48,12.45,1.9,7.6-.97,11.5-.39,16.54s9.48,16.04,5.67,23.53c3.34-1.3,14.73,2.77,15.94-.49ZM544.31,116.53c-1.43-7.27.79-15.23-.25-22.18-.74-4.94-13.15-34.5-17.19-34.6-8.58,6.51-1.93,52.52,3.15,55.87l14.29.91ZM567.23,116.53c5.63-14.32,4.67-34.66-1.51-48.81-1.25-2.87-2.76-7.21-5.98-8.04-7.48.19-17.21,49.3-12.45,56.86h19.93ZM68.91,256.03h26.41l6.45-103.1c-6.07-5.94-.96-12.66-1.2-16.81-.07-1.26-5.41-12.73-6.29-16.57-2.45-10.62-3.39-33.78-14.21-39.6L5.12,62.72v193.31h30.9c-7.94-4.86-13.68-10.79-16.47-19.9-10.26-33.4,20.44-35.54,18.47-61.31-.38-4.99-3.74-9.64-3.84-14.7,1.7-6.75,27.49-5.61,32.44-2.94,7.19,3.88.17,10.68-.61,16.73-2.72,21.08,16.54,24.74,19.4,41.21,2.95,17.03-2.98,30.73-16.5,40.91ZM188.26,66.96c-5.23-5.14-60.89-4.72-71.05-4.27-5.89.26-34.21,2.12-37.07,5.29-4.77,5.29,14.55,21.01,11.7,28.62,3.39-2.61,1.26-7.51,4.54-10.91,7.17-7.43,18.81,16,19.38,21.86,2.99-6.02,2.68-21.4,9.98-24.39,10.24-4.19,14.46,20.27,16.42,26.4,1.84-6.58,13.77-37.03,21.46-22.46,2.98,5.65.79,10.99,3.45,16.47l22.14-33.56-.96-3.06ZM589.16,110.05c2.82-11.39-2.11-34.63,0-47.33-17.6,12.84-14.31,34.97-17.94,53.81,5.32.8,16.37-.14,17.94-6.48ZM526.37,116.52c-5.29-17-5.58-40.54-23.91-48.81,1.66,12.97,3.12,27.24,9.26,39.06,3.52,6.77,5.87,11.33,14.65,9.76ZM139.67,135.46c3.65,0-2.07-47.95-11.46-49.85-5.7,0-8.25,20.14-8.46,24.46-.36,7.56-.31,19.25,4.47,25.39h15.45ZM119.73,135.46c-3.6-14.59-4.85-31.49-14.52-43.77-13.29-16.88-9.64,22.32-8.14,29.07,3.22,14.52,7.99,17.71,22.66,14.7ZM157.31,86.77c-12.03,12.8-13.74,30.5-14.39,47.24l12.67,1.95c4.58-2.41,7.7-21.84,7.97-26.93.23-4.19,1.29-24.49-6.26-22.26ZM173.55,100.59c-2.56-.61-1.75.78-2.58,1.86-5.47,7.15-8.13,22.13-10.55,31.36-.26.98-1.28,2.14.71,2.63,9.61,2.38,12.71-29.44,12.42-35.85ZM589.16,117.53c-10.64,5.21-66.43-1.05-71.28,2.97-2.24,1.86-1.17,8.2,1.09,9.91,8.67,6.6,57.51,1.86,70.19,1.07v-13.95ZM589.16,133.47c-22.01,2.7-44.94,5.44-66.76,0l-8.03,147.9c6.85.85,9.44,2.08,7.02,9.53,3.74-1.86,12.06-.69,11.85,4.49-.07,1.7-1.67,3.21-1.62,4,.1,1.55,4.81,3.12,4.81,6.96.51,3.13-4.18,4.64-4.16,6.99s2.78,1.49,3.16,3.96c1.78,11.58-17.3,18.23-25.02,23.18-.87,6.09-1.63,12.51-2.03,18.64-.46,7.15-1.94,28.09-1.02,33.97s7.6,4.21,12.02,4.43c-3.68-14.02,17.61-35.21,15.91-46.26-.54-3.53-4.78-6.83-3-11.86,1.46-4.82,42.44-4.86,48.4-.7,6.25,4.36-.13,8.5-1.09,11.96-1.8,6.48,6.3,17.29,9.53,22.95v-240.14ZM113.56,137.75c-8.89.73-20.21,1.99-8.24,11.62h59.74c3.97-.83,5.65-6.69,2.58-9.49l-2.57-1.41c-17.12-.24-34.36-2.14-51.5-.72ZM165.58,152.4h-61.79l-9.98,233.68c6.87-.38,13.19,8.29,17,9.94,8.36,3.64,50.09.04,59.97-2.77,1.28-.36,2.63-.47,3.79-1.19,2.73-2.61.16-31.31-.95-36.93-.56-1.14-17.37-16.54-18.72-17.16-4.14-1.88-13.06-2.28-18.74-4.18-8.84-2.95-29.91-14.64-29.44-25.5.16-3.77,2.92-2.98,3.15-4.07.5-2.38-3.32-5.46-2.91-8.6.48-3.64,4.59-4.36,5.31-5.72,2.86-5.43-1.41-10.71,11.46-6.96l2-5.5c7.71-4.09,23.85,12.64,31.4,14.47,3.21.2-.78-4.99-.32-8.22,1.14-8.11,8.27-8.08,13.77-3.75l-4.98-127.54ZM393.81,192.25c.14-10.66-8.98-14.16-15.47-19.9s-7.49-9.82-17.64-13.26-33.07-7.44-44.13-6.7c-3.34.22-6,2.49-8.1,2.67-7.49.63-12.36-1.88-21.27.85-5.82,1.78-8.11,5.6-12.07,7.86-5.99,3.41-17.42,5.51-18.84,15.05-.53,3.59,7.73-1.02,9.56-1.41,43.01-9.11,88.59-4.97,127.95,14.83ZM66.42,159.38h-29.4c.04,5.01,3.24,8.46,3.87,13.57,1.81,14.67-5.1,21.31-12.84,32.26,5.11,1.03,47.37,2.27,47.81-1.48-7.95-9.53-14.57-16.29-12.84-29.81.4-3.1,6.22-13.77,3.39-14.54ZM395.8,208.2c1.46-12.19-5.86-14.95-15.26-19.1-24.67-10.91-59.1-14.41-85.87-12.76-7.61.47-34.45,3.74-39.44,8.4-2.02,1.89-7.38,12.92-3.45,13.46,46.56-16.96,99.11-8.05,144.02,10ZM370.07,277.13c-.72.42-5.47,11.62-7.74,14.68-3.7,4.99-8.43,8.84-13.34,12.55,7.29,4.7,23.71,3.44,29.42-3.45,1.57-1.9,2.74-6.15,3.42-6.61,1.61-1.09,10.06,2.06,16.51-5.36s2.39-10.27,3.6-15.25c.74-3.04,7.71-6.33,7.81-15.17.09-7.61-6.56-15.14-6.94-18.99-.23-2.37,1.86-5.16,2.01-7.95,1.27-23.17-28.25-28.76-45.87-32.86-20.08-4.68-41.67-7.25-62.34-6.51-10.27.37-48.01,4.84-53.69,13.08s.41,10.9.39,14.35c-.01,2.22-3.6,4.15-2.89,10.86.52,4.93,5.22,10.8,5.59,13.2.35,2.24-1.68,5.62-1.57,7.93.3,6.36,1.87,13.36,7.37,17.33,2.31.43,1.3-1.02,1.48-2.46,1.43-11.69-1.98-28.67-.97-41.85.52-6.86,2.3-13.8,3.98-20.44,4.21-.58,7.35,4.01,10.66,4.76,12.34,2.8,19.72-9.62,21.2-8.74,5.16,11.58,20.82,6.58,27.44-1.06,2.68.06,2.55,3.61,4.23,5.08,8.6,7.53,16.34,5.48,26.15,1.95.67,7.97,9.63,12.4,16.95,12.97-2.8,4.54-4.67,11.91-1.03,16.46,1.35,1.69,4.62,2.21,4.86,2.62.84,1.48-.43,7.37,1.18,9.8,1.63,1.06,9.84-8.04,14.8-8.45,16.04-1.33,18,31.49-.02,36.7-3.62,1.05-11.21,0-12.63.83ZM357.94,220.16c-6.4,2.42-12.71-9.25-14.64-9.86-1.63-.52-11.88,1.49-16.52.65-5.47-.99-10.36-7.41-11.2-7.48-2.08-.17-9.63,8.26-21.51,5.3-3.02-.75-4.73-3.68-7.41-3.68-2,0-1.76,2.27-3.09,2.96-9.88,5.09-16.17,3.59-26.3.15-3.83,22.88-6.62,67.02,7.97,86.19,23.28,30.59,95.18,20.45,102.75-21.32,7.33,2.03,12.99,2.52,19.06-3.07,9.74-8.96,6.34-32.55-8.47-25.69-3.83,1.77-8.11,11.37-13.38,4.46-2.2-2.89-.52-6.39-1.52-8.46-.21-.43-2.82-1.19-3.78-2.68-4.21-6.47-3.13-10.16-1.97-17.46ZM26.52,206.6c-13.62,14.65-3.4,44.83,16.61,48.79,31.38,6.21,49.74-22.08,35.27-48.29-17.21,1.83-34.77,3.56-51.88-.5ZM95.82,259.02H5.12v19.93l90.7-4.48v-15.44ZM5.12,281.94v165.41s1,.05,1,0v-17.44c0-5.26,7.39-18.48,11-22.88,17.64-21.49,46.54-27.93,73.24-23.4l4.88-104.7-90.11,3.01ZM223.38,334.75c-2.46,1.26-2.85,2.2-5.64,1.25-2.54-.86-37.25-24.33-38.71-26.15-3.32-4.13-8.65-34.68-17.44-29.44-4.58,4.01.29,10.2-.08,14.06-.2,2.07-4.98,6.34-5.49,11.36-.47,4.66,3.08,7.55,1.1,10.96-6.84-7.38-4.14-13.78.4-21.42-6.3-1.95-23.38-17.32-29.14-15.33-2.17.75-1.88,2.97-.92,4.64l17.2,14.19c-6.43.08-23.05-18.08-27.96-14.52-3.99,12.11,15.53,15.53,20.99,23.48-3.54-.51-7.5-3.05-10.5-4.94-3.36-2.12-14.98-14.47-17.33-8.36-3.1,8.75,21.22,19.34,21.87,20.78.39.87.41,3.12-1.48,2.47-4.55-.31-24.29-20.63-19.7-6.22,2.22,6.98,18.12,16.61,24.88,18.97,6.36,2.23,15.94,2.05,20.18,3.73,2.62,1.04,26.59,25.68,32.55,30.19,15.72,11.91,30.79,18.79,50.17,8.55-5.7-12.43-12.79-24.54-14.94-38.26ZM480.81,300.61c-1.23-3.76,1.62-15.21-3.97-16.57-3.32-.81-5.11,4.25-6.01,6.65-.84,2.25-7.27,25.23-7.29,26.61-.12,7.4,10.61,23.21,17.7,25.2,10.63,2.98,46.8-9.52,50.65-20.65,5.05-14.6-15.35,4.24-19.47,3.45,3.56-5.83,20.76-11.84,20.93-19.03.24-10.61-18.97,6.26-22.86,6.66l.92,6.87c-2.29.62-1.67-.52-2.29-1.25-3.09-3.6-5.14-10.58-8.51-14.44l.85-2.72c3.17-1.89,20.94-11.5,17.93-16.46-13.02-1.43-21.76,11.71-33.88,13.96,1.63,7.89,9.52,14.39,1.49,21.89-2.23-4.78,1.27-6.99-.76-13.17-1.09-3.33-5.29-6.58-5.43-7.01ZM507.54,310.75c2.25,1.31,21.91-10.99,22.67-13.56,3.46-11.77-22.92,3.24-25.62,5.81l2.95,7.74ZM343.62,319.44c2.57-2.52,10.11-12.11,2.7-13.42-1.15-.2-17.25,6.71-22.05,7.53-9.22,1.57-18.86,2.03-28.12.29l.99,6.96c-4.2.67-2.53-5.49-2.99-5.97h-4.98c4.71,24.22,41.16,17.66,54.45,4.62ZM370.89,314.83l-18.87-3.97c-8.71,24.68-60.52,35.37-65.86,3.98l-12.79,1.12c-6.75,30.78,27.73,37.82,51.05,34.6,21.71-2.99,37.67-15.84,46.47-35.73ZM398.79,378.6c1.18-15.76,10.14-30.59,18.91-43.36-7.33-4.33-14.75-8.83-22.54-12.3-4.09-1.82-18.43-8.97-21.79-6.14-1.31,1.1-6.82,12.36-9.43,15.49-15.32,18.41-41.89,25.91-65.05,21.13-17.01-3.51-33.83-17.65-28.67-36.6-15.68,2.28-30.35,8.8-43.91,16.61,2.78,15.17,10.21,29.05,17.65,42.25,1.22.32,12.98-5.11,13.4-5.7,2.75-3.89.28-17.67,3.88-22.27l-1.05,58.17c38.8,11.69,82.99,11.41,121.72,0l-.18-30.61c-2.36-.7-18.38-11.41-8.15-7.84,3.09,1.08,23.32,13.26,25.2,11.18ZM460.58,316.82c-6.17,2.61-30.54,23.64-35.12,22.74-1.38-.27-2.78-2.4-4.41-2.67-4.43-.34-21.37,33.24-17.8,38.76,6.55,2.13,14.22,6.39,21.1,6.82,20.09,1.27,41.2-23.96,56.19-35.24l-.05-1.98c-10.86-5.62-19.04-15.98-19.92-28.42ZM571.72,338.74c-4.85-1.19-20.65,0-26.91,0-.58,0-2.21,1.43-3.49,1.01-2.76,3.42,26.79,3.83,30.91,1.5,1.55-.83.28-2.31-.52-2.51ZM538.32,339.73c-6.95,1.4-.64,7.46-.04,10.51,1.81,9.31-6.87,16.85-8.91,25.36,18.73,1.8,38.72,4.34,56.78-1.48-5.38-10.36-14.98-19.87-5.06-31.07-5.17-7.26-4.12-1.13-6.1,0-4.87,2.77-30.6,3.44-35.02.53-1.55-1.02-1.73-2.13-1.65-3.84ZM507.42,341.73c-5.78,3.03-15.62,1.78-20.67,3.74-5.67,2.19-28.34,24.9-37.2,30.57s-14.55,9.1-25.32,8.52c-4.52-.24-16.7-5-18.01-4.92-.73.05-.59,2.34-2.07,2.82-5.65,1.84-14.72-5.51-20.29-6.85l1.42,34.94,119.17,2.93,2.98-71.75ZM257.26,372.62c-2.73,1.69-9.65,5.9-12.55,5.99s-3.51-2.4-4.85-2.62c-2.32-.38-13.35,4.14-17.06,4.51-19.05,1.88-31.94-12.23-46.26-21.83l.99,49.82,80.74,1-1.01-36.87ZM528.96,376.85c-11.55,14.59-7.64,39.88,3.37,54.07,17.63,4.02,26.62,21.13,43.78,7.87,15.47-11.95,15.61-38.62,13.06-56.73-.23-1.64-.43-3.18-1.51-4.53-19.81,2.1-39.02,4.53-58.7-.69ZM402.77,380.58v-2.98h-.97l-.02,2.48.99.5ZM106.78,397.52c3.17-4.52-23.6-12.5-26.5-12.85-33.52-4.03-76.1,21.11-71.7,58.73,1.22,1.67,1.61.25,2.8-.24,12.41-5.1,30.12-19.07,43.9-25.87,16.42-8.1,33.74-15.13,51.49-19.77ZM175.55,395.54l-54.83,4.49c2.79,3.11,3.06,8.72,4.27,11.19s7.13,7.14,7.36,12.26c14.79.07,29.87-1.44,43.19-8.02v-19.93ZM116.49,399.79c-2.99-2.57-10.77.42-14.48,1.44-32.82,9.01-67.54,30.15-95.41,49.13-1.33,3,3.38,12.29,7.49,10.53,34.54-19.8,70.12-37.8,107.64-51.43-1.41-1.86-3.98-8.59-5.24-9.67ZM507.43,398.52v18.43c0,4.61,17.28,11.8,17.95,8.96l-6.42-24.47-11.53-2.92ZM381.85,409.49c-39.34,10.52-82.22,10.54-121.59,0l1.61,20.04c38.62,12.89,81.8,11.56,119.98-2.11v-17.94ZM115.75,834.97h214.78c2.42-7.03,11.16-21.32,12.01-27.84.25-1.91-2.8-3.79-3.3-5.8-3.06-12.2,20.66-59.07,29.69-69.46,2.3-2.64,15.74-13.8,15.85-14.88.07-.62-1.08-5.57-1.43-5.58-43.64,31.23-50.29-5.85-41.37-42.85-17.02.31-52.11-.7-32.86-26.39,5.5-7.34,27.3-19.28,29.35-24.47,1.86-4.71.89-17.35,1.52-22.89h-34.88l2.99,40.36c-2.35,9.88-47.9,18.1-57.27,18.47s-29.5-.13-31.2-11.75c-3.32-22.66,39.01-30.29,40.63-37.61l-.47-17.47c-21.24-4.44-17.08-19.61-16.51-37.37,1.06-33.31,5.88-68.44,11.3-101.3.92-5.58,4.15-13.23,4.59-18.33.51-5.85-1.66-11.49-.91-17.35l-80.73-.98c3.04,2.87,9.95,4.88,10.8,9.69,2.75,15.73-39.58,19.01-49.67,18.21,13.21,10.47,28.13,21.91,6.09,33.54-.23.7,1.71,10.75,2.1,11.57.55,1.12,12.02,7.63,14.79,10.16,6.06,5.53,12.95,17.85,13.9,25.93.72,6.12-1.63,18.21-.59,22.43.72,2.89,15.41,20.01,18.53,25.4,15.52,26.77,14.68,50.63-19.53,58.25,2.64,9.97.77,14.04-9.35,17.06,2.86,11.76,3.59,23.58-2.92,34.21,8.29,8.33,16.66,11.06,20.62,23.24s3.47,28.76-1.77,41.12c3.87,3.66,13.1-4.99,13.8-7.69.4-1.58-2.09-15.9-1.88-20.73.37-8.28,2.07-24.96,13.48-15.41,4.38-6.88,13.63-24.82,23.72-21.71,1.84.57,3.03,3.4,4.19,3.5,1.46.13,6.22-3.92,10.09-.82,2.24,1.73.73,5.37,1.85,7.11,1.02,1.59,4.83.73,5.87,3.18,1.11,2.63.1,5.73.87,8.03.55,1.66,2.72,2.72,3.32,4.64,2.76,8.78-7.77,32.04-13.54,39.39-1.86,2.37-8.59,7.13-8.84,7.66-.4.87,1.24,3.46.94,5.27-3.71,22.49-31.85,58.66-51.34,70.33-23.01,13.78-40.4,7.88-59.32-8.99.19,3.93-10.51,16.4-7.99,18.93ZM123.53,412.66l-46.41,19.23c8.52,14.43,2.78,45.18,23.86,50.65,14.54,3.78,14.68-6.04,25.91-8.61,4.3-.98,10.91.15,13.21-.61,1.04-.34.26-2.49.77-2.78,2.68-1.58,6.99-2.02,9.72-4.8,11.08-11.32-14.67-21.15-18.34-27.41-3.06-5.23-2.42-19.79-8.71-25.67ZM384.84,414.47v14.45c0,2.25,5.75,17.73,6.67,22.22,3.2,15.58,17.2,108.47,10.29,116.3-.58.66-1.82.99-2.02-.02.62-46.18-4.46-92.63-16.95-137.01-12.75,4.53-26.21,8.37-39.86,8.96l3.85,87.05c-1.37,3.75-30.08,6.02-34.6,2.49l-.14-5.84c-10.03-.27-21.32,1.41-30.42-3.97l8.49-79.71-28.34-6.92c-12.82,46.58-16.19,96.66-15.35,145.25,35.51,17.11,76.63,14.92,114.95,11.03,1.87-.19,5.11,1.09,5.36.98.44-.19,3.48-6.14,6.12-7.33,10.16-4.57,22.82-11.93,33.8-14.04,26.4-5.07,58.06,6.67,72.83,29.45l15.91-17.44-12.16-15.21c-28.59,3.56-49.18-11.85-40.68-42.02-17.57-4.48-12.72-15.44-3.47-25.99,2.44-2.79,8.45-5.91,9.92-9.01,1.7-3.57,1.05-8.98,2.19-12.75,1.86-6.11,7.76-23.99,12.76-27.1,14.11-8.75,29.11-18.45,46.86-18.91l17.49.54c-5.69-1.08-16.04-2.34-19.96-6.96-1.99-2.35-1.35-6-4.45-6.51l-119.11-1.98ZM149.14,426.43c-5.13.6-11.19-.44-16.44,0l2.58,10.03c10.78.2,21.64-.19,32.16-2.7,5.5-1.32,18.5-4.51,18.07-11.74-5.76-12.2-9.55-3.28-17.25-.4-4.3,1.61-14.68,4.29-19.11,4.81ZM589.16,584.86v-158.44c-5.55,9.76-13.35,18.54-24.91,20.94,8.37,7.37,15.31,18.2,16.83,29.5.58,4.32-.68,10.04.13,13.82.95,4.38,4.64,2.85,2.03,11.05-1.17,3.68-3.77,4.72-4.82,7.13-1.8,4.12-2.52,8.69-4.83,13.1-6.53,12.48-16,21.62-28.13,28.63.53,7.69,6.28,5.76,11.49,8.2,13.17,6.15,23.68,14.33,32.22,26.08ZM74.87,432.4l-62.6,32.06c-.25,10.37-.17,20.86-1.18,31.21-.62,6.36-8.44,45.7-1.46,47.34,9.05-7.15,17.92-10.98,29.13-13.7,5.91-1.43,12.73-.48,18.87-3.06,11.77-4.95,16.13-17.81,12.3-29.61-9.44,3.01-15.76,3.79-23.49-3.41-19.39-18.05,3.76-40.25,13.98-26.93,4.78,6.23,9.39,23.58,14.65,32.19,11.85,19.37,40.47,35.76,62.17,23.6-4.53-12.45,5.32-17.28,6.44-27.38,1.58-14.23-.54-21.16-16.03-18.02-13.07,2.66-11.3,14.64-28.11,8.29-23.25-8.79-15.27-34.69-24.67-52.57ZM579.19,490.19c3.38-52.11-70.59-74.79-105.63-43.32l49.33,15.42,56.3,27.9ZM315.07,441.39l-22.9-2.01-5.92,57.74,25.85,2.06,2.97-57.79ZM340,440.38h-20.43l-4.53,86.12c.82,2.58,28.73,1.19,29.87-2.04l-4.91-84.08ZM578.02,506l3.2-9.3c-.86-4.25-35.57-21.54-41.54-24.29-15.28-7.06-56.07-23.47-71.69-22.87-3.76.14-10.19,10.1-7.41,12.27,28.58,7.7,56.84,16.81,83.95,28.67,4.71,2.06,31.33,16.64,33.48,15.53ZM5.12,457.32v58.79l2.88-11.56c-.76-14.84,6.48-35.03-2.88-47.23ZM517.04,515.75c-10.56,8.4-13.94-7.94-13.57-16.05.33-7.25,4.15-13.47,4.54-20.49l-46.99-14.83c-7.06.53-6.89,20.19-8.95,24.79-1.33,2.98-11.05,9.48-13.71,13.27-8.02,11.43-6.28,15.16,7.18,18.75-6.44,30.28,6.22,44.52,37.2,40.5,13.3-1.73,30.21-13.26,30.66-27.64,22.27,17.74,38.93-30.32,14.7-26.7-6.29.94-7.63,5.66-11.08,8.4ZM45.3,467.6c-11.7,10.09,7.9,36.9,23.19,25.63-4.23-8.04-9.26-37.65-23.19-25.63ZM560.65,535.43c7.4-7.76,12.28-15.89,15.1-26.32-7.58-3.78-61.91-30.41-65.26-27.81-3.25,5.4-8.88,37.94,3.24,33.67,2.68-.94,6.16-10.18,15.25-10.77,21.66-1.42,16.25,29.62.54,35.3,7.98,17.69,22.11,5.41,31.14-4.07ZM153.64,524.07c-.11-3.42-9.35-23.48-13.47-14.93-2.26,6.92,1.61,14.72,1.51,21.35-.09,5.48-2.74,10.67-2.03,17.02,1.98,17.79,23.59,15.07,30.1,1.16,10.41-22.24-.25-51.4-23.1-60.47-1.78,6.7,4.76,7.87,8.79,12.63,3.15,3.73,10.03,12.54,7.16,17.25.02-3.57-14.08-23.34-16.95-20.91-3.26,9.27,1.01,6.95,4.41,12.03,1.47,2.19,8.95,14.68,3.57,14.87ZM312.09,502.16l-26.91-2-.94,17.89c2.29-.83,6.43,2.04,7.42,2.04h20.43v-17.94ZM113.68,528.14c-15.34-2.56-28.54-12.36-38.31-23.98l-2.91,12.01-8.5,9.49c-.78,4.24,33.9,24.63,40.55,24.11,4.52-.21,9.9-17.09,9.17-21.63ZM137.67,526.07c-.34-.39-3.81,1.29-4.98,1l4.49,4.97c.76.06.68-5.74.49-5.97ZM109.46,549.66c-7.27,6.53-28.8-7.36-35.87-11.83-2.64-1.67-11.5-9.58-13.18-9.77-21.62,5.65-46.1,4.49-55.33,29.36,3.05,30.32-3.91,68.36-.02,97.76,1.25,9.48,19.42,14.68,27.97,14.37-6.46-5.87-5.56-16.25-8.25-23.12-4.77-12.16-4.78-4.22-5.61-20.2-1-19.22-1.56-27.79,11.37-43.36,2.1-2.53,12.54-11.18,12.95-11.96,1.8-3.46-1.29-8.81,2.03-11.93l1.97,8.95c18.77-13.16,49.6-20.09,70.4-8.59,6.04,3.34,8.42,5.02,14.8,8.13,8.22,4,7.39,12.26,9.53,16.35,2.7,5.17,6.3,8.54,8.91,15.04,1.06,2.65,1.92,10.52,2.75,11.69.43.6,10.22,6.7,12.22,8.22,3.6,2.74,1.37,5.18,7.93,4.99,7.44-.21,19.7-7.08,23.22-13.73,11.12-20.99-10.6-47.36-23.19-63.01l-5.93,8.99c-6.7,6.45-14.66,8.45-23.45,4.95-.49,14.97,10.96,26.55,14.93,39.85-8.32-8.26-13.78-20.84-17.23-32.08-1.13-3.66-.13-6.89-.91-10.06s-4-5.53-4.68-10.27.46-9.46.78-14.22c-7.22-4.42-11.96-6.28-20.8-5.11-.18,5.15-3.64,17.32-7.3,20.6ZM527.22,540.18c-.5-.32-11.39-1.1-11.87-.75-2.75,9.73-9.47,15.17-17.86,20.03-2.14,1.24-10.12,3.79-10.55,4.41-1.99,2.87,7.41,10.47,8.56,13.53l49.8-20.94c-2.92-7.21-7-4.8-12.44-8.47-3.43-2.31-5.21-7.55-5.62-7.82ZM5.13,549.98c3.84-1.67.66-5.98.97-8.96l-.97,8.96ZM123.72,568.9c1.86-2.83-12.95-10.09-15.51-10.88-37.82-11.59-96.73,24.72-86.14,68.68,31.7-22.71,65.09-43.72,101.65-57.8ZM588.98,678.36l.12-87.96c-6.47-12.42-27.43-31.77-42.2-30.37-5.56.53-21.05,6.65-26.74,9.16-14.9,6.59-29.13,15.88-37.47,30.33,1.38,5.81,4.12,10.06,5.33,16.2s1.85,15.13,2.44,21.51c.31,3.42-3.76,11.37-6.99,13.08-.1,1.1-.15,2.42.5,3.35,1.48,2.08,27.14,7.3,31.26,5.76,2.78-1.59,9.71-31.62,12.06-34.07,1.03-1.07,1.82-.6,3.06-.62-4.03,11.59-6.96,26.07-13.21,36.61-.45.75-2.8.64-3.47,1.5-2.69,3.44-4.09,16.58-9.23,20.66,27.22,9.26,58.56,6.8,84.54-5.14ZM129.49,570.09c-7.46.09-39.97,17.05-48.3,21.58-8.99,4.89-18.94,10.77-27.55,16.3-4.81,3.1-30.03,20.05-31.67,23.2-1.99,3.85,2.15,12.5,7.07,11.09,35.53-21.46,70.59-43.93,108.65-60.87,3.06-3.1-3.9-8.77-6.05-11.01-.68-.53-1.4-.3-2.16-.29ZM485.46,631.65c5.92-50.87-67.36-79.23-103.6-48.28l103.6,48.28ZM161.63,641.72c18.12-3.27,8.84-14.73.35-22.87-2.94-2.82-8.3-4.29-10.38-7.56-3.15-4.96-5.87-23.08-11.94-25.97l-46.84,21.48c9.14,10.15,10.3,29.99-2.49,37.5-25.79-25.41-33.89,20.05-10.02,22.31,5.36.51,8.64-1.23,13.5-1.55-9.1,4.48-6.02,5.25-9.19,11.74-2.53,5.19-10.81,9.76-16.65,9.76l-.05,3.88,44.25,13.94,6.41-11.46c-.27-1.48-17.48-6.49-17.79-11.42,5.57.46,10.07,5.63,15.13,7.28,2.23.73,15.67,3.13,17.08,2.75.85-.23,4.78-11.28,12.62-6.05-.37-3.21.19-5.7,3.04-7.48,4.91-2.06,7.37,6.1,12.73-5.16,4.35-9.14,1.95-21.5.22-31.14ZM374.61,585.02l-7.56,11.2c29.42,13.78,59.39,29.42,89.59,41.92,4.33,1.79,20.5,9.01,23.64,9.35,4.93.53,9.69-11.51,3.93-13.01-36.58-16.3-71.63-36.49-109.6-49.46ZM302.13,593.82l-38.87-5.97-1.57,20.93c12.43,5.07,27.31,13.51,26.48,28.89,1.49,1.57,15.87-5.89,16.75-8.67l-2.8-35.18ZM364.91,591.84l-22.48,2.92-3.42,27.96,13.94,3c1.04-5.33,2.67-10.64,4.82-15.63,3.1-7.19,7.74-9.84,7.15-18.25ZM412.74,620.75l-45.14-19.83c-7.33,1.85-9.39,23.32-11.95,27.49-.57.93-5.64,3.55-7.2,5.25-5.05,5.48-10.41,11.38-11.28,19.24,5.81,9.07,17.69,5.98,26.8,8.13,8.48,2.01,13.24,9.53,22.57,5.73,17.64-7.2,16.93-32.11,26.21-46.01ZM83.85,669.56c-24.07,3.3-30.1-40.84-2.7-34.66,5.05,1.14,7.68,8.86,12.13,3.72,5.6-6.45,5.03-24.74-3.1-29.73l-62.19,38.27c-1.46,25,46.34,55.25,55.85,22.4ZM256.27,635.67c-7.7-6.62-18.11-.73-16.51,9.04,1.69,2.38,32.39-.24,33.36-3.64-.89-10.98-20.43-24.38-30.21-23.32-5.91.64-29.65,18.98-16.53,23.9-2.27-3.77,6.35-13.99,8.98-11.94-3.34,3.89-6.81,7.68-6.05,13.32l7.04,1.62c-1.62-10.02,15.85-22.91,19.93-8.98ZM480.42,649.73l-64.65-26.54c-7.7,2.98-7.84,35.59-26.25,45.56-12.7,6.87-15.62-2.13-27.38-4.88-5.6-1.31-10.37-1.69-16.11-1.22-6.79,23.27-13.7,72.92,26.53,52.92,12.69-6.31,26.27-20.44,32.76-33.01,5.67-10.98,9.08-41.52,22.86-40.97,23.76.96,9.15,39.26-10.38,36.99-1.2,31.97,9.73,50.91,44.27,46.76,45.9-5.53,16.5-47.4,18.36-75.6ZM340,660.58c-8.4-7.18-4.51-14.81.96-22.42-.23-2.24-15.53-4.7-17.92-4.08-6.72,1.74-24.94,22.04-7.96,23.53.07-6.01,2.9-14.04,9.97-13.95-.96,3.39-4.13,3.67-5.66,7.78-.65,1.75-1.95,6.97-.16,8.01,8.98,5.25,6.96-9.85,13.79-10.81l-3.98,11.95h10.96ZM412.79,673.48c15.12,8.85,33.92-18.64,20.81-27.25-14.92-9.8-18.84,18.58-20.81,27.25ZM510.43,662.59c-4.77,1.61-24.6-6.67-26.49-4.02l7.05,32.89c10.38-5.77,18.48-17.02,19.44-28.87ZM5.12,661.59v74.73c1.49.16,1.77-2.58,1.89-3.58,1.54-12.53.96-26.86,2.11-39.75.37-4.2,4.21-23.13,3.78-24.84-.21-.83-6.56-5.25-7.78-6.56ZM64.91,686.5c-5.69.03-11.17-1.74-16.17-4.26-3.72-1.87-8.75-7.26-11.5-8.43-5.76-2.46-15.71-1-22.15-4.26l-5.98,57.79,23-24.32c6.67-4.31,12.4-9.21,20.05-11.84,1.21-.42,15.89-2.01,12.75-4.68ZM416.75,677.55l-5.98-2.01c-2.05,7.6-7.18,16.19-12.13,22.26s-15.06,9.75-11.8,18.6l30.9-8.97c-.9-9.86-3.84-19.97-.99-29.88ZM217.41,705.42c1.6-4.35,3.65-8.51,5.81-12.61,1.67-3.18,13.71-18.29.4-12.63-7.18,3.05-19.56,26.96-21.18,35.21-2.6.4-2.04-.42-1.98-2.48.13-4.42,3.97-8.07,3.04-12.78l-4.59-.8c-4.06,3.13-4.23,24.22-2.96,29.04,1.81,6.85,8.95,5.1,14.7,7.23,7.73,2.87,15.84,6.21,21.2,12.66,10.09-6.97,24.06-32.55,21.41-44.31-2.38-10.56-10.51,16.33-12.93,13.44-.77-6.69,11.95-19.93,9.29-25.66-4.6-9.94-16.23,18.8-19.27,19.2-3.73-1.79,23.26-34.07,7.95-29.98-5.74,1.54-11.79,11.28-14.74,16.2-1.79,2.98-1.76,9.26-6.17,8.27ZM163.6,710.41c-1.47-6.42-2.69-13.07-5.24-19.19-1.4-3.36-4.27-12.05-8.78-10.26-4.07,3.03,7.38,25.8,5.03,31.44-2.47.42-1.85-.31-2.45-1.98-2.57-7.17-2.15-25.78-14.05-21.98l4.53,32.94c-4.03.97-2.9-2.31-4.97-4.49-2.69-2.84-5.62-6.7-9.97-6.47-.68,6.18,5.88,9.96,9.36,15.04,3.87,5.65,7.38,11.74,10.74,17.7l31.23-2.83c5.08-16.03,6.5-39.89-8.48-50.83,1.18,5.05,4.28,11.52,4.88,16.53.24,1.99,1.1,5.16-1.89,4.39-2.64-9.22-3.86-28.43-15.95-28.89,2.56,7.69,6.66,16.6,7.72,24.65.26,2,1.39,4.94-1.73,4.23ZM504.44,704.43c27.16,10.66,58.56,10.75,84.72-2.49v-20.43c-26.27,11.57-57.24,13.51-84.72,4.98v17.94ZM494.46,723.37c1.08-4.38,12.79-33.38,6.47-34.88l-10.32,6.64c2.38,8.22-.53,15.3-3.94,22.61l7.79,5.63ZM167.57,780.16c-2.07.36-2.8-1.31-3.82-2.65-14.6-19.17-21.65-49.91-42.54-65.08-12.46-9.06-48.44-21.64-63.33-19.5-20.96,3.01-43.21,30.39-52.55,48.1l-.26,80.32c28.91,12.48,66.87,15.89,97.93,10.35,13.01-2.32,14.39-5.59,18.5-18.02-13.71-15.66-23.42-34.65-30.52-54.12l1.82-1.31c18.19,47.32,56.15,102.23,106.69,50.35,8.46-8.69,30.62-40.55,31.92-51.82,1.48-12.8-25.36-20.52-35.27-20.28l-32.13,34.73,3.55,8.93ZM134.59,694.57l-12.87-.6-5.55,12.47c1.68.57,7.11,4.81,8.07,4.73.85-.08,1.84-2.23,3.2-2.57,6.07-1.5,6.86,2.42,11.23,4.8l-4.07-18.84ZM589.16,834.97v-129.54c-20.94,8.7-44.59,11.13-66.95,6.65-4.36-.87-15.48-5.49-17.47-5.49-2.68,0-8.77,18.19-8.1,21.02.34,1.47,13.76,18.57,16.15,22.79,14.03,24.8,21.92,56.26,23.55,84.57h52.82ZM533.35,834.97c-3.4-41.56-16.09-87.93-49.33-115.32-20.34,13.78-53.95,13.91-65.77-11.1-18.77,5.56-35.45,10.72-48.35,26.28-8.91,10.75-26.9,48.57-28.66,62.06-.7,5.34,4.29,7.18,8.72,9.7,14.62,8.32,31.53,10.74,48.18,9.28,5.03-1.78,7.76-34.97,10.38-41.49.6-1.5-.58-2.7,2.24-2.18-1.1,7.28-4.96,41.97-9.24,45.56-1.11.93-3.45.33-5.16,2.32-2.37,2.77-3.32,11.65-6.53,14.89h143.52ZM183.52,745.3c-10.64-2.86-22.42-3.16-32.91.52l12.48,23.36,20.43-23.88ZM392.82,819.03h-15.45c-8.53,0-24.56-7.09-31.89-11.94l-11.46,27.88h52.82l5.98-15.94ZM5.12,834.97h34.88c-5.24-2.26-11.22-2.2-16.72-3.71-5.98-1.63-12.9-3.91-18.15-7.25v10.96ZM112.75,832.98l-9.96,1.98h8.49s1.47-1.98,1.47-1.98Z"/>
  <polygon points=".14 .94 .14 -.06 595.14 -.06 595.14 841.94 .14 841.94 .14 840.95 594.14 840.95 594.14 .94 .14 .94"/>
  <path d="M483.52,297.88c-.05-6.02,1.5-13.42-5.56-15.95-13.03-2.31-10.69,23.36-16.36,30.42l-35.43,24.37c-19.46-11.23-39.41-23.53-62.26-25.9,4.73-2.4,10.6-3.03,14.89-6.52,2.28-1.85,4.84-7.01,5.24-7.21,1.57-.77,4.53.23,6.81-.68,7.28-2.89,11.11-6.48,14.59-13.52,5.86-.37,40.5,1.25,42.74-1.89-.96-47.79,2.76-97.5.48-145.1-1.42-29.8-7.87-55.27-31.48-75.15-55.72-46.92-149.47-18.91-159.8,55.39-3.9,28.04,4.69,53.78-9.89,79.79-2.77,4.94-7.81,6.13-8.92,12.99-.51,3.15-.6,20.32-.25,23.68.52,4.91,3.98,8.75,4.44,11.32.89,4.96-2.2,11.16.46,18.65,2.26,6.33,8.73,8.04,10.52,10.41,1.32,1.75,2.2,9.61,3.47,12.47,6.05,13.64,15.09,21.21,28.94,26.35-24.03,1.01-45.29,9.99-66.18,20.94-2.49-.62-4.66-2.01-6.89-3.18-3.39-1.77-30.66-19.96-32.11-21.7-9.13-10.98-9.71-54.81-10.46-70.25-1.33-27.54-.55-55.24-3.01-82.73.51-5.41,5.4-6.43,3.84-13.75-.42-1.97-2.67-3.39-2.74-5.18s3.14-6.22,3.83-9.09c2.91-12.05,2.48-27.56,7.7-38.14,6.3-12.74,26.48-23.28-3.65-27.58,2.65-20.29,9.38-46.09,29.42-55.27l279.16.94,14.34,30.48c-31.03,10.54-4.17,18.37.54,33.37,3.91,12.45,3.87,23.69,9.61,37.23,1.24,2.92,5.02,6.98,5.44,8.6,1.34,5.13-4.57,13.38,3.89,16.95l-7.62,148.84-27.76,15.58Z" fill="#fff"/>
  <path d="M115.75,834.97c-2.53-2.53,8.18-15,7.99-18.93,18.92,16.87,36.31,22.77,59.32,8.99,19.49-11.67,47.63-47.84,51.34-70.33.3-1.82-1.34-4.41-.94-5.27.25-.53,6.98-5.28,8.84-7.66,5.77-7.36,16.3-30.62,13.54-39.39-.6-1.91-2.77-2.98-3.32-4.64-.77-2.3.25-5.4-.87-8.03-1.04-2.45-4.85-1.59-5.87-3.18-1.12-1.75.39-5.38-1.85-7.11-3.86-3.1-8.62.95-10.09.82-1.16-.1-2.35-2.93-4.19-3.5-10.09-3.12-19.34,14.83-23.72,21.71-11.41-9.54-13.11,7.13-13.48,15.41-.22,4.83,2.28,19.15,1.88,20.73-.69,2.71-9.93,11.36-13.8,7.69,5.24-12.36,5.92-28.36,1.77-41.12s-12.33-14.91-20.62-23.24c6.51-10.62,5.78-22.44,2.92-34.21,10.12-3.02,12-7.09,9.35-17.06,34.21-7.61,35.05-31.48,19.53-58.25-3.12-5.39-17.81-22.5-18.53-25.4-1.04-4.22,1.31-16.31.59-22.43-.95-8.08-7.85-20.4-13.9-25.93-2.77-2.53-14.24-9.03-14.79-10.16-.4-.81-2.33-10.87-2.1-11.57,22.05-11.64,7.13-23.08-6.09-33.54,10.09.8,52.42-2.47,49.67-18.21-.84-4.82-7.75-6.83-10.8-9.69l80.73.98c-.75,5.87,1.42,11.51.91,17.35-.44,5.1-3.67,12.75-4.59,18.33-5.42,32.86-10.24,67.98-11.3,101.3-.57,17.77-4.73,32.93,16.51,37.37l.47,17.47c-1.62,7.32-43.96,14.95-40.63,37.61,1.7,11.62,21.82,12.12,31.2,11.75s54.92-8.59,57.27-18.47l-2.99-40.36h34.88c-.63,5.55.34,18.19-1.52,22.89-2.05,5.18-23.85,17.13-29.35,24.47-19.26,25.69,15.84,26.7,32.86,26.39-8.92,37-2.26,74.08,41.37,42.85.35,0,1.5,4.96,1.43,5.58-.12,1.08-13.56,12.24-15.85,14.88-9.04,10.38-32.75,57.26-29.69,69.46.5,2.01,3.55,3.89,3.3,5.8-.85,6.52-9.59,20.81-12.01,27.84H115.75ZM190.48,461.31l-2.87,2.34c2.87,1.81,5.99,17.05,8.35,16.58,4.67-.93-4.62-16.6-5.48-18.92ZM205.44,464.3c-4.07-4.03-7.52,13.27-4.96,15.93,2.73,1.72,4.33-14.07,4.96-15.93ZM215.41,468.28c-3.94,1.1-7.89,7.19-7.96,10.95,2.27,2.41,7.84-8.94,7.96-10.95ZM296.14,749.28c1.99-2.15-6.92-22.44-11.44-21.92-2.02.23-.99,1.48-.57,2.52,2.2,5.35,9.61,11,9,18.73-.1,1.16,2.9.78,3.01.67ZM303.62,731.36c-2.15.06-7.55,14.65-3.97,16.91,1.97.43,3.99-10.51,4.68-13.25.44-1.76,1.56-2.09-.71-3.66ZM307.11,748.27l11.93-11.45c-.64-.47-2.12-2.47-2.47-2.47-.87,0-11.74,10.82-9.46,13.92Z" fill="#fff"/>
  <path d="M384.84,414.47l119.11,1.98c3.1.51,2.46,4.16,4.45,6.51,3.92,4.62,14.27,5.88,19.96,6.96l-17.49-.54c-17.75.46-32.74,10.16-46.86,18.91-5.01,3.1-10.91,20.99-12.76,27.1-1.15,3.78-.5,9.19-2.19,12.75-1.48,3.11-7.48,6.22-9.92,9.01-9.25,10.55-14.1,21.52,3.47,25.99-8.5,30.17,12.09,45.57,40.68,42.02l12.16,15.21-15.91,17.44c-14.78-22.78-46.43-34.52-72.83-29.45-10.97,2.11-23.64,9.46-33.8,14.04-2.64,1.19-5.68,7.14-6.12,7.33-.25.11-3.49-1.17-5.36-.98-38.32,3.89-79.44,6.07-114.95-11.03-.84-48.58,2.52-98.66,15.35-145.25l28.34,6.92-8.49,79.71c9.1,5.38,20.39,3.7,30.42,3.97l.14,5.84c4.52,3.53,33.23,1.26,34.6-2.49l-3.85-87.05c13.65-.59,27.1-4.43,39.86-8.96,12.5,44.37,17.57,90.82,16.95,137.01.19,1.01,1.43.68,2.02.02,6.91-7.83-7.09-100.72-10.29-116.3-.92-4.49-6.67-19.98-6.67-22.22v-14.45Z" fill="#fff"/>
  <path d="M167.57,780.16l-3.55-8.93,32.13-34.73c9.91-.25,36.75,7.48,35.27,20.28-1.3,11.27-23.46,43.14-31.92,51.82-50.54,51.89-88.5-3.03-106.69-50.35l-1.82,1.31c7.1,19.47,16.81,38.46,30.52,54.12-4.12,12.43-5.49,15.7-18.5,18.02-31.06,5.54-69.03,2.12-97.93-10.35l.26-80.32c9.33-17.71,31.59-45.08,52.55-48.1,14.88-2.14,50.86,10.44,63.33,19.5,20.89,15.17,27.94,45.92,42.54,65.08,1.02,1.34,1.75,3.01,3.82,2.65Z" fill="#fff"/>
  <path d="M533.35,834.97h-143.52c3.22-3.24,4.16-12.12,6.53-14.89,1.71-2,4.05-1.39,5.16-2.32,4.28-3.59,8.14-38.28,9.24-45.56-2.82-.51-1.64.68-2.24,2.18-2.61,6.52-5.34,39.71-10.38,41.49-16.65,1.45-33.56-.97-48.18-9.28-4.42-2.52-9.41-4.36-8.72-9.7,1.76-13.49,19.75-51.31,28.66-62.06,12.91-15.56,29.58-20.73,48.35-26.28,11.82,25.01,45.43,24.88,65.77,11.1,33.24,27.4,45.93,73.76,49.33,115.32Z" fill="#fff"/>
  <path d="M589.16,133.47v240.14c-3.23-5.66-11.33-16.47-9.53-22.95.96-3.46,7.34-7.6,1.09-11.96-5.96-4.16-46.95-4.12-48.4.7-1.78,5.04,2.46,8.33,3,11.86,1.69,11.05-19.59,32.24-15.91,46.26-4.42-.22-11.14,1.24-12.02-4.43s.56-26.82,1.02-33.97c.39-6.13,1.16-12.55,2.03-18.64,7.72-4.95,26.8-11.6,25.02-23.18-.38-2.47-3.14-1.61-3.16-3.96s4.67-3.86,4.16-6.99c0-3.84-4.72-5.41-4.81-6.96-.05-.79,1.55-2.3,1.62-4,.2-5.18-8.11-6.36-11.85-4.49,2.42-7.45-.17-8.68-7.02-9.53l8.03-147.9c21.83,5.44,44.75,2.7,66.76,0Z" fill="#fff"/>
  <path d="M427.7,262.51c-1.21,3.26-12.6-.8-15.94.49,3.81-7.49-5.1-18.63-5.67-23.53s2.29-8.94.39-16.54c-1.54-6.13-6.71-9.82-7.48-12.45-3.06-10.58,1.04-21.87-7.79-32.07-1.82-2.1-16.99-15.73-19.4-17.47-10.53-7.62-16.12-4.65-26.12-6.76-15.3-3.23-13.85-6.49-32.68-4.35-6.4.73-13.29.94-20.1,1.83s-13.34,4.13-18.22,8.69c-1.88.25-1.41,0-1.51-1.5-4.15-58.76,26.61-110.52,91.95-99.85,29.81,4.87,62.57,34.33,62.57,65.98v137.51ZM372.86,85.68c-5.62-.89-7.56-5.93-10.44-9.99-1.16-.06-4.21,7.27-5.77,8.64-1.38,1.22-6.25,1.21-5.69,3.78l11.44,10.47c2.44-4.57,4.83-8.22,10.03-9.91l.43-2.99ZM325.04,116.54c-6.84-.07-6.98-5.99-11.44-8.98-1.83,7.39-6.02,6.91-10.48,11.44,6.55,2.35,7.44,6.91,11.44,11.47,2.65-4.89,4.05-9.15,10.03-10.91l.45-3.02ZM395.76,122.54l-2.99.42c-1.76,6.35-7.64,7.86-11.89,12,2.09,2.8,5.48,2.64,8.01,4.93,2.27,2.06,4.18,10.37,7.02,6.93s1.69-11,9.62-10.6l1.21-2.27c-4.99-3.34-9.93-4.48-10.97-11.42Z" fill="#fff"/>
  <path d="M165.58,152.4l4.98,127.54c-5.49-4.33-12.63-4.36-13.77,3.75-.45,3.23,3.53,8.42.32,8.22-7.55-1.83-23.69-18.56-31.4-14.47l-2,5.5c-12.87-3.75-8.6,1.53-11.46,6.96-.72,1.36-4.83,2.08-5.31,5.72-.41,3.14,3.41,6.22,2.91,8.6-.23,1.09-2.98.3-3.15,4.07-.47,10.86,20.6,22.55,29.44,25.5,5.68,1.9,14.6,2.3,18.74,4.18,1.35.61,18.16,16.02,18.72,17.16,1.11,5.62,3.68,34.32.95,36.93-1.16.72-2.51.83-3.79,1.19-9.87,2.82-51.6,6.41-59.97,2.77-3.8-1.65-10.13-10.32-17-9.94l9.98-233.68h61.79Z" fill="#fff"/>
  <path d="M68.91,256.03c13.52-10.18,19.45-23.88,16.5-40.91-2.85-16.47-22.12-20.13-19.4-41.21.78-6.05,7.8-12.86.61-16.73-4.95-2.67-30.74-3.82-32.44,2.94.1,5.06,3.46,9.71,3.84,14.7,1.97,25.77-28.73,27.92-18.47,61.31,2.8,9.11,8.54,15.04,16.47,19.9H5.12V62.72l74.95,17.23c10.81,5.82,11.76,28.98,14.21,39.6.88,3.84,6.22,15.31,6.29,16.57.23,4.15-4.87,10.87,1.2,16.81l-6.45,103.1h-26.41Z" fill="#fff"/>
  <path d="M398.79,378.6c-1.88,2.08-22.11-10.1-25.2-11.18-10.23-3.56,5.79,7.15,8.15,7.84l.18,30.61c-38.73,11.41-82.92,11.69-121.72,0l1.05-58.17c-3.6,4.6-1.13,18.38-3.88,22.27-.42.59-12.19,6.02-13.4,5.7-7.45-13.2-14.87-27.08-17.65-42.25,13.57-7.81,28.23-14.33,43.91-16.61-5.16,18.95,11.67,33.09,28.67,36.6,23.16,4.78,49.73-2.72,65.05-21.13,2.61-3.14,8.13-14.39,9.43-15.49,3.36-2.83,17.7,4.32,21.79,6.14,7.79,3.47,15.21,7.97,22.54,12.3-8.77,12.77-17.73,27.6-18.91,43.36Z" fill="#fff"/>
  <path d="M588.98,678.36c-25.98,11.94-57.31,14.4-84.54,5.14,5.14-4.08,6.53-17.22,9.23-20.66.67-.85,3.02-.74,3.47-1.5,6.25-10.54,9.18-25.02,13.21-36.61-1.24.02-2.03-.45-3.06.62-2.35,2.45-9.28,32.48-12.06,34.07-4.12,1.54-29.78-3.68-31.26-5.76-.66-.93-.61-2.25-.5-3.35,3.23-1.71,7.31-9.66,6.99-13.08-.59-6.38-1.18-15.11-2.44-21.51s-3.95-10.39-5.33-16.2c8.33-14.45,22.56-23.74,37.47-30.33,5.68-2.51,21.18-8.63,26.74-9.16,14.77-1.4,35.74,17.95,42.2,30.37l-.12,87.96Z" fill="#fff"/>
  <path d="M5.12,281.94l90.11-3.01-4.88,104.7c-26.7-4.53-55.61,1.91-73.24,23.4-3.61,4.4-11,17.62-11,22.88v17.44s-1,.05-1,0v-165.41Z" fill="#fff"/>
  <path d="M357.94,220.16c-1.17,7.3-2.24,10.99,1.97,17.46.97,1.48,3.58,2.25,3.78,2.68,1.01,2.07-.68,5.57,1.52,8.46,5.26,6.91,9.54-2.68,13.38-4.46,14.81-6.85,18.21,16.73,8.47,25.69-6.07,5.59-11.73,5.1-19.06,3.07-7.58,41.77-79.47,51.91-102.75,21.32-14.59-19.18-11.8-63.31-7.97-86.19,10.13,3.44,16.42,4.94,26.3-.15,1.34-.69,1.09-2.96,3.09-2.96,2.68,0,4.39,2.93,7.41,3.68,11.88,2.95,19.43-5.47,21.51-5.3.83.07,5.73,6.48,11.2,7.48,4.64.84,14.89-1.17,16.52-.65,1.93.62,8.24,12.28,14.64,9.86ZM343.98,227.13c3.35-12.56-32.55-13.42-23.35-5.86.94.77,20.44,5.36,23.35,5.86ZM260.34,228.06c4.35,2.2,7.74-1.42,11.61-2.69,3.16-1.04,9.28,1.55,9.18-4.57-1.63-5.68-23.34-.97-20.79,7.26ZM274.87,236.33c-7.05.56-7.39,16.21.87,16.69,8.03-1.98,6.05-17.24-.87-16.69ZM324.35,249.76c7.71,10,14.81-10.98,5.94-13.47-7.49-2.1-9.38,9-5.94,13.47ZM298.13,240.1c-2.71.36-5.93,6.49-6.85,8.59-2.8,6.4-6.19,12.71.95,17.73,4.07,2.87,9.02,4.1,12.86.08l-12.24-2.43c-5.48-5.23,4.96-17.88,5.28-23.97ZM323.8,276.21c-11.59-2.54-23.27,8.73-35.14.8-5.29,6.7,6.06,16.67,12.22,17.64,10.42,1.64,27.34-6.07,22.92-18.44Z" fill="#fff"/>
  <path d="M589.16,834.97h-52.82c-1.63-28.31-9.52-59.76-23.55-84.57-2.39-4.22-15.8-21.32-16.15-22.79-.66-2.83,5.42-21.02,8.1-21.02,1.99,0,13.11,4.62,17.47,5.49,22.36,4.48,46.01,2.05,66.95-6.65v129.54Z" fill="#fff"/>
  <path d="M480.42,649.73c-1.85,28.2,27.55,70.07-18.36,75.6-34.54,4.16-45.47-14.79-44.27-46.76,19.54,2.27,34.15-36.04,10.38-36.99-13.77-.55-17.19,29.99-22.86,40.97-6.49,12.57-20.07,26.7-32.76,33.01-40.23,20-33.31-29.66-26.53-52.92,5.74-.46,10.51-.08,16.11,1.22,11.76,2.75,14.68,11.75,27.38,4.88,18.42-9.96,18.55-42.57,26.25-45.56l64.65,26.54ZM352.21,678.26l14.19,7.29c10.34-7.4-16.82-22.35-14.19-7.29Z" fill="#fff"/>
  <path d="M109.46,549.66c3.65-3.28,7.11-15.45,7.3-20.6,8.84-1.18,13.58.69,20.8,5.11-.32,4.76-1.48,9.36-.78,14.22s3.9,7.08,4.68,10.27-.22,6.39.91,10.06c3.45,11.25,8.91,23.83,17.23,32.08-3.97-13.3-15.42-24.88-14.93-39.85,8.78,3.5,16.75,1.5,23.45-4.95l5.93-8.99c12.58,15.65,34.3,42.02,23.19,63.01-3.52,6.65-15.78,13.52-23.22,13.73-6.57.19-4.33-2.25-7.93-4.99-1.99-1.52-11.79-7.62-12.22-8.22-.83-1.17-1.69-9.04-2.75-11.69-2.61-6.5-6.21-9.87-8.91-15.04-2.14-4.09-1.31-12.36-9.53-16.35-6.38-3.1-8.75-4.78-14.8-8.13-20.8-11.5-51.63-4.57-70.4,8.59l-1.97-8.95c-3.32,3.12-.23,8.47-2.03,11.93-.41.78-10.85,9.44-12.95,11.96-12.93,15.57-12.37,24.14-11.37,43.36.83,15.98.84,8.05,5.61,20.2,2.7,6.87,1.8,17.26,8.25,23.12-8.55.31-26.71-4.89-27.97-14.37-3.89-29.39,3.08-67.43.02-97.76,9.23-24.87,33.71-23.71,55.33-29.36,1.67.2,10.54,8.11,13.18,9.77,7.07,4.47,28.6,18.36,35.87,11.83Z" fill="#fff"/>
  <path d="M74.87,432.4c9.4,17.88,1.43,43.78,24.67,52.57,16.81,6.35,15.03-5.63,28.11-8.29,15.49-3.15,17.61,3.78,16.03,18.02-1.12,10.1-10.96,14.93-6.44,27.38-21.7,12.16-50.33-4.23-62.17-23.6-5.27-8.61-9.87-25.95-14.65-32.19-10.22-13.32-33.37,8.88-13.98,26.93,7.73,7.2,14.05,6.42,23.49,3.41,3.83,11.8-.53,24.66-12.3,29.61-6.14,2.58-12.96,1.62-18.87,3.06-11.21,2.72-20.08,6.55-29.13,13.7-6.98-1.64.84-40.98,1.46-47.34,1.01-10.34.94-20.83,1.18-31.21l62.6-32.06ZM138.53,494.06c4.14-6.95-12.01-7.54-15.29.15-4.39,10.29,14.75.76,15.29-.15Z" fill="#fff"/>
  <path d="M161.63,641.72c1.73,9.64,4.13,22-.22,31.14-5.36,11.26-7.82,3.1-12.73,5.16-2.85,1.78-3.41,4.27-3.04,7.48-7.85-5.23-11.77,5.83-12.62,6.05-1.41.37-14.85-2.03-17.08-2.75-5.06-1.65-9.56-6.82-15.13-7.28.31,4.93,17.52,9.94,17.79,11.42l-6.41,11.46-44.25-13.94.05-3.88c5.84,0,14.12-4.57,16.65-9.76,3.16-6.49.09-7.26,9.19-11.74-4.86.31-8.15,2.05-13.5,1.55-23.87-2.26-15.77-47.72,10.02-22.31,12.79-7.51,11.63-27.35,2.49-37.5l46.84-21.48c6.07,2.89,8.79,21.01,11.94,25.97,2.08,3.27,7.44,4.74,10.38,7.56,8.49,8.14,17.77,19.6-.35,22.87ZM121.46,610.49c.95-.87,2.49-4.55,4.7-6.75,1.5-1.49,11.8-5.55,5.5-8.42-5.76-2.63-17.11,7.99-15.76,13.74.62,2.65,3.66,3.17,5.56,1.43ZM132.42,611.94c-6.2,1.93-1.23,17.23,6.26,13.29,4.67-2.46,1.02-15.56-6.26-13.29ZM137.83,668.41c1.75,2.81,18.6-1.64,19.62-5.56,3.18-12.25-24.71-7.68-19.62,5.56Z" fill="#fff"/>
  <path d="M444.64,279.95h-38.87c-3.25-3.06,4.47-13.95,5.48-13.95h17.94l1.49-1.49v-135.52c0-63.17-83.96-96.37-130.59-57.82-28.76,23.77-30.85,55.41-28.84,90.52l-13.99,7.65c4.21-29.98-2.78-55.41,13.15-83,44.55-77.12,169.33-53.42,174.27,37.62l-.05,155.99Z" fill="#fff"/>
  <path d="M517.04,515.75c3.44-2.74,4.78-7.46,11.08-8.4,24.23-3.62,7.57,44.43-14.7,26.7-.45,14.38-17.36,25.91-30.66,27.64-30.98,4.02-43.64-10.22-37.2-40.5-13.46-3.59-15.21-7.32-7.18-18.75,2.66-3.79,12.37-10.29,13.71-13.27,2.06-4.6,1.88-24.26,8.95-24.79l46.99,14.83c-.4,7.02-4.21,13.24-4.54,20.49-.37,8.11,3.01,24.45,13.57,16.05ZM479.14,482.63c.95.61,5.53,6.93,7.27,1.94,2.47-7.11-16.56-16.18-19.4-10.32-1.35,2.77,8.94,6.32,12.13,8.38ZM467.31,487.34c-4.87.56-7.29,10.03-4.82,13.41,10.6,8.51,14-14.47,4.82-13.41ZM451.87,536.78c3.84.15,21.25,7.11,21.69.8.6-8.69-26.19-14.91-21.69-.8Z" fill="#fff"/>
  <path d="M223.38,334.75c2.14,13.72,9.24,25.83,14.94,38.26-19.38,10.23-34.45,3.36-50.17-8.55-5.95-4.51-29.93-29.15-32.55-30.19-4.25-1.69-13.82-1.51-20.18-3.73-6.76-2.37-22.66-12-24.88-18.97-4.59-14.41,15.16,5.91,19.7,6.22,1.89.65,1.87-1.59,1.48-2.47-.64-1.44-24.97-12.03-21.87-20.78,2.34-6.12,13.96,6.23,17.33,8.36,2.99,1.89,6.96,4.43,10.5,4.94-5.46-7.96-24.98-11.37-20.99-23.48,4.91-3.56,21.53,14.6,27.96,14.52l-17.2-14.19c-.96-1.67-1.25-3.89.92-4.64,5.76-1.99,22.84,13.38,29.14,15.33-4.54,7.64-7.24,14.04-.4,21.42,1.98-3.41-1.57-6.31-1.1-10.96.51-5.01,5.29-9.28,5.49-11.36.38-3.85-4.49-10.05.08-14.06,8.79-5.24,14.12,25.3,17.44,29.44,1.46,1.82,36.16,25.29,38.71,26.15,2.79.95,3.19,0,5.64-1.25Z" fill="#fff"/>
  <path d="M507.42,341.73l-2.98,71.75-119.17-2.93-1.42-34.94c5.57,1.34,14.65,8.69,20.29,6.85,1.49-.48,1.35-2.77,2.07-2.82,1.31-.08,13.49,4.68,18.01,4.92,10.77.58,16.78-3.06,25.32-8.52s31.53-28.37,37.2-30.57c5.06-1.96,14.89-.71,20.67-3.74Z" fill="#fff"/>
  <path d="M370.07,277.13c1.42-.82,9.01.22,12.63-.83,18.02-5.21,16.06-38.03.02-36.7-4.96.41-13.17,9.51-14.8,8.45-1.6-2.43-.33-8.32-1.18-9.8-.24-.41-3.51-.93-4.86-2.62-3.64-4.55-1.77-11.92,1.03-16.46-7.32-.57-16.28-5-16.95-12.97-9.81,3.53-17.55,5.57-26.15-1.95-1.68-1.47-1.55-5.02-4.23-5.08-6.62,7.65-22.28,12.65-27.44,1.06-1.48-.88-8.85,11.54-21.2,8.74-3.31-.75-6.45-5.34-10.66-4.76-1.68,6.64-3.46,13.58-3.98,20.44-1,13.18,2.4,30.16.97,41.85-.18,1.44.83,2.89-1.48,2.46-5.5-3.97-7.07-10.97-7.37-17.33-.11-2.31,1.91-5.7,1.57-7.93-.37-2.4-5.07-8.27-5.59-13.2-.71-6.71,2.88-8.64,2.89-10.86.02-3.45-6.31-5.76-.39-14.35s43.42-12.72,53.69-13.08c20.67-.74,42.26,1.82,62.34,6.51,17.62,4.11,47.14,9.7,45.87,32.86-.15,2.79-2.24,5.57-2.01,7.95.37,3.85,7.02,11.38,6.94,18.99-.1,8.84-7.07,12.12-7.81,15.17-1.21,4.98,2.6,8.11-3.6,15.25s-14.9,4.27-16.51,5.36c-.68.46-1.84,4.71-3.42,6.61-5.7,6.89-22.13,8.15-29.42,3.45,4.91-3.7,9.64-7.56,13.34-12.55,2.27-3.06,7.02-14.26,7.74-14.68Z" fill="#fff"/>
  <path d="M198.47,5.92c-16.19,13.98-22.02,33.95-24.04,54.68l-60.68-.88V5.92h84.72Z" fill="#fff"/>
  <path d="M5.12,18.88l103.89,24.92c2.47,1.28,2.85,15.76.12,16.79-10.53,2.25-36.81-2.02-31.77,15.1L5.12,59.73V18.88Z" fill="#fff"/>
  <path d="M528.96,376.85c19.67,5.22,38.89,2.8,58.7.69,1.08,1.35,1.28,2.88,1.51,4.53,2.56,18.1,2.41,44.77-13.06,56.73-17.16,13.26-26.15-3.85-43.78-7.87-11.01-14.19-14.92-39.48-3.37-54.07ZM537.33,388.57c-.25-.44-4.4-.74-4.87.11-3.33,6.11,7.37,4.31,4.87-.11ZM585.17,387.57c-2.04-2.23-7.93,4.82,0,4.97-.18-1.12.31-4.64,0-4.97ZM549.3,389.56c-1.04.67-1.6,6.11,2.47,4.97,3.46-.97.5-6.87-2.47-4.97ZM570.22,393.54c2.61-2.46-4.99-6.4-5.95-2.49-.62,2.55,5.11,3.28,5.95,2.49Z" fill="#fff"/>
  <path d="M123.53,412.66c6.3,5.88,5.65,20.44,8.71,25.67,3.67,6.26,29.42,16.09,18.34,27.41-2.72,2.78-7.03,3.22-9.72,4.8-.5.29.28,2.44-.77,2.78-2.3.76-8.91-.38-13.21.61-11.24,2.57-11.37,12.39-25.91,8.61-21.08-5.48-15.34-36.22-23.86-50.65l46.41-19.23ZM110.53,421.61c-5.83.85-18.94,14.73-12.19,16.77,1.3.39,13.48-11.39,16.97-11.95,1.56-3.26-1.56-5.29-4.77-4.82ZM114.47,438.56c-1.24.39-2.1,1.3-2.51,2.53-1.49,4.66,1.55,11.95,7.05,11.11,5.1-1.45,3.24-16.07-4.54-13.64Z" fill="#fff"/>
  <path d="M123.72,568.9c-36.56,14.09-69.95,35.09-101.65,57.8-10.6-43.96,48.31-80.27,86.14-68.68,2.57.79,17.37,8.05,15.51,10.88Z" fill="#fff"/>
  <path d="M485.46,631.65l-103.6-48.28c36.25-30.95,109.53-2.59,103.6,48.28Z" fill="#fff"/>
  <path d="M589.16,35.82v23.42c0,.56-6.65,5.35-8.38,7.56-3.67,4.69-4.9,10.4-8.55,14.86-.57-5.22-4.35-22.1-9.7-23.71-11.56-3.47-14.12,21.37-18.2,27.69-.89-6.48-15.38-38.75-22.32-23.79-2.82,6.07-1.54,13.62-3.59,19.8-1.19-4.89-7.31-13.57-11.6-15.81-2.77-1.45-5.61-.77-8.29-2.67-1.65-1.17-11.33-13.99-11.07-15.88.74-5.3,25.4-8.82,30.47-9.46,23.37-2.94,47.8-2.67,71.24-2.01Z" fill="#fff"/>
  <path d="M412.74,620.75c-9.28,13.9-8.57,38.82-26.21,46.01-9.33,3.81-14.09-3.72-22.57-5.73-9.1-2.15-20.98.94-26.8-8.13.86-7.87,6.23-13.77,11.28-19.24,1.56-1.7,6.63-4.32,7.2-5.25,2.56-4.17,4.62-25.64,11.95-27.49l45.14,19.83ZM383.41,621.2c8.58,6.87,8.3-3.11.77-8.27-9.15-6.28-17.85-1.1-12.63,1.92,6.97.2,7.69,3.02,11.85,6.35ZM374.63,625.96c-7.15-5.59-12.35,9.88-8.04,12.78,6.93,4.68,11.52-7.88,8.04-12.78Z" fill="#fff"/>
  <path d="M188.26,66.96l.96,3.06-22.14,33.56c-2.67-5.47-.47-10.81-3.45-16.47-7.69-14.57-19.61,15.88-21.46,22.46-1.96-6.13-6.18-30.59-16.42-26.4-7.3,2.99-6.99,18.36-9.98,24.39-.57-5.86-12.2-29.29-19.38-21.86-3.28,3.4-1.16,8.3-4.54,10.91,2.85-7.61-16.47-23.34-11.7-28.62,2.86-3.17,31.18-5.03,37.07-5.29,10.16-.45,65.82-.87,71.05,4.27Z" fill="#fff"/>
  <path d="M460.58,316.82c.87,12.44,9.06,22.8,19.92,28.42l.05,1.98c-14.99,11.28-36.11,36.51-56.19,35.24-6.88-.44-14.56-4.69-21.1-6.82-3.56-5.51,13.37-39.1,17.8-38.76,1.63.27,3.03,2.4,4.41,2.67,4.58.9,28.95-20.13,35.12-22.74Z" fill="#fff"/>
  <path d="M257.26,372.62l1.01,36.87-80.74-1-.99-49.82c14.31,9.59,27.21,23.7,46.26,21.83,3.71-.37,14.74-4.89,17.06-4.51,1.34.22,1.84,2.71,4.85,2.62s9.82-4.31,12.55-5.99Z" fill="#fff"/>
  <path d="M589.16,5.92v26.9c-28.71-2.44-57.57,1.05-85.99,4.84l-14.67-31.75h100.66Z" fill="#fff"/>
  <path d="M579.19,490.19l-56.3-27.9-49.33-15.42c35.04-31.47,109.01-8.78,105.63,43.32Z" fill="#fff"/>
  <path d="M26.52,206.6c17.1,4.06,34.67,2.33,51.88.5,14.47,26.22-3.89,54.5-35.27,48.29-20.01-3.96-30.23-34.15-16.61-48.79ZM26.56,217.18c-2.65.75-1.34,4.9,1.97,3.96,2.65-.75,1.34-4.9-1.97-3.96ZM78.87,221.15c1.67-1.54-2.45-5.64-3.97-3.97-2.01,2.19,1.8,5.98,3.97,3.97ZM41.01,222.15l5.95-1.49c-1.73-2.57-6.1-2.14-5.95,1.49ZM58.94,222.15c.48.45,5.24.23,5.96-1.49-2.41-3.48-8.5-.9-5.96,1.49Z" fill="#fff"/>
  <path d="M381.85,409.49v17.94c-38.18,13.67-81.36,14.99-119.98,2.11l-1.61-20.04c39.37,10.54,82.25,10.51,121.59,0Z" fill="#fff"/>
  <path d="M589.16,584.86c-8.53-11.76-19.05-19.93-32.22-26.08-5.21-2.43-10.96-.5-11.49-8.2,12.14-7.01,21.6-16.14,28.13-28.63,2.31-4.42,3.03-8.98,4.83-13.1,1.05-2.41,3.65-3.45,4.82-7.13,2.61-8.2-1.08-6.67-2.03-11.05-.82-3.78.44-9.5-.13-13.82-1.51-11.29-8.46-22.12-16.83-29.5,11.57-2.4,19.37-11.18,24.91-20.94v158.44Z" fill="#fff"/>
  <path d="M217.41,705.42c4.4.99,4.37-5.29,6.17-8.27,2.95-4.91,9-14.66,14.74-16.2,15.3-4.09-11.68,28.18-7.95,29.98,3.04-.4,14.66-29.14,19.27-19.2,2.65,5.73-10.06,18.97-9.29,25.66,2.42,2.89,10.55-23.99,12.93-13.44,2.65,11.76-11.32,37.34-21.41,44.31-5.36-6.45-13.47-9.8-21.2-12.66-5.75-2.13-12.89-.37-14.7-7.23-1.27-4.82-1.11-25.91,2.96-29.04l4.59.8c.93,4.71-2.92,8.36-3.04,12.78-.06,2.05-.61,2.87,1.98,2.48,1.62-8.25,14.01-32.16,21.18-35.21,13.31-5.66,1.27,9.45-.4,12.63-2.16,4.1-4.21,8.26-5.81,12.61Z" fill="#fff"/>
  <path d="M106.78,397.52c-17.76,4.64-35.08,11.67-51.49,19.77-13.78,6.8-31.49,20.77-43.9,25.87-1.19.49-1.58,1.91-2.8.24-4.4-37.63,38.18-62.76,71.7-58.73,2.9.35,29.67,8.33,26.5,12.85Z" fill="#fff"/>
  <path d="M83.85,669.56c-9.51,32.85-57.31,2.6-55.85-22.4l62.19-38.27c8.12,4.99,8.7,23.27,3.1,29.73-4.46,5.14-7.08-2.58-12.13-3.72-27.39-6.18-21.37,37.97,2.7,34.66Z" fill="#fff"/>
  <path d="M480.81,300.61c.14.42,4.34,3.68,5.43,7.01,2.03,6.18-1.48,8.39.76,13.17,8.03-7.5.14-14-1.49-21.89,12.12-2.25,20.86-15.38,33.88-13.96,3.01,4.96-14.76,14.56-17.93,16.46l-.85,2.72c3.37,3.86,5.42,10.84,8.51,14.44.62.72,0,1.87,2.29,1.25l-.92-6.87c3.89-.41,23.1-17.27,22.86-6.66-.16,7.19-17.37,13.2-20.93,19.03,4.12.79,24.52-18.05,19.47-3.45-3.85,11.13-40.02,23.63-50.65,20.65-7.09-1.99-17.82-17.8-17.7-25.2.02-1.38,6.45-24.36,7.29-26.61.9-2.41,2.69-7.46,6.01-6.65,5.59,1.36,2.74,12.81,3.97,16.57Z" fill="#fff"/>
  <path d="M110.77,5.92c-3.03,10.26,2.15,23.42,0,33.37-.31,1.45-.59,2.52-2.39,2.45L5.25,14.26l-.13-8.34h105.64Z" fill="#fff"/>
  <path d="M340,440.38l4.91,84.08c-1.14,3.23-29.05,4.61-29.87,2.04l4.53-86.12h20.43Z" fill="#fff"/>
  <path d="M393.81,192.25c-39.37-19.8-84.94-23.94-127.95-14.83-1.83.39-10.1,5-9.56,1.41,1.42-9.54,12.85-11.64,18.84-15.05,3.96-2.26,6.25-6.08,12.07-7.86,8.91-2.73,13.78-.22,21.27-.85,2.11-.18,4.76-2.45,8.1-2.67,11.06-.74,33.62,3.13,44.13,6.7s10.91,7.31,17.64,13.26,15.61,9.24,15.47,19.9Z" fill="#fff"/>
  <path d="M163.6,710.41c3.12.71,2-2.23,1.73-4.23-1.06-8.05-5.16-16.96-7.72-24.65,12.09.46,13.31,19.67,15.95,28.89,2.99.77,2.13-2.4,1.89-4.39-.61-5.01-3.7-11.48-4.88-16.53,14.98,10.94,13.56,34.8,8.48,50.83l-31.23,2.83c-3.36-5.96-6.87-12.05-10.74-17.7-3.48-5.08-10.05-8.86-9.36-15.04,4.35-.24,7.28,3.63,9.97,6.47,2.07,2.19.94,5.46,4.97,4.49l-4.53-32.94c11.9-3.8,11.47,14.81,14.05,21.98.6,1.67-.02,2.4,2.45,1.98,2.36-5.64-9.1-28.41-5.03-31.44,4.51-1.79,7.38,6.9,8.78,10.26,2.55,6.12,3.77,12.76,5.24,19.19Z" fill="#fff"/>
  <path d="M560.65,535.43c-9.03,9.47-23.16,21.75-31.14,4.07,15.71-5.68,21.12-36.72-.54-35.3-9.09.6-12.56,9.83-15.25,10.77-12.12,4.27-6.5-28.28-3.24-33.67,3.36-2.6,57.68,24.03,65.26,27.81-2.81,10.43-7.7,18.56-15.1,26.32Z" fill="#fff"/>
  <path d="M129.49,570.09c.76,0,1.48-.23,2.16.29,2.15,2.24,9.11,7.91,6.05,11.01-38.05,16.94-73.11,39.41-108.65,60.87-4.91,1.41-9.06-7.25-7.07-11.09,1.63-3.15,26.85-20.1,31.67-23.2,8.61-5.54,18.55-11.41,27.55-16.3,8.32-4.52,40.84-21.49,48.3-21.58Z" fill="#fff"/>
  <path d="M370.89,314.83c-8.8,19.89-24.77,32.74-46.47,35.73-23.32,3.21-57.8-3.83-51.05-34.6l12.79-1.12c5.34,31.39,57.16,20.7,65.86-3.98l18.87,3.97Z" fill="#fff"/>
  <path d="M374.61,585.02c37.97,12.97,73.03,33.16,109.6,49.46,5.76,1.5,1,13.54-3.93,13.01-3.14-.34-19.32-7.56-23.64-9.35-30.2-12.49-60.17-28.13-89.59-41.92l7.56-11.2Z" fill="#fff"/>
  <path d="M395.8,208.2c-44.91-18.05-97.46-26.96-144.02-10-3.92-.54,1.43-11.57,3.45-13.46,4.99-4.66,31.83-7.93,39.44-8.4,26.77-1.65,61.2,1.85,85.87,12.76,9.41,4.16,16.73,6.92,15.26,19.1Z" fill="#fff"/>
  <path d="M578.02,506c-2.15,1.11-28.77-13.47-33.48-15.53-27.11-11.86-55.37-20.97-83.95-28.67-2.78-2.17,3.65-12.13,7.41-12.27,15.62-.6,56.41,15.81,71.69,22.87,5.97,2.76,40.68,20.04,41.54,24.29l-3.2,9.3Z" fill="#fff"/>
  <path d="M116.49,399.79c1.26,1.08,3.83,7.82,5.24,9.67-37.52,13.62-73.1,31.62-107.64,51.43-4.12,1.76-8.82-7.53-7.49-10.53,27.87-18.98,62.59-40.12,95.41-49.13,3.71-1.02,11.49-4.01,14.48-1.44Z" fill="#fff"/>
  <path d="M504.44,704.43v-17.94c27.48,8.53,58.44,6.59,84.72-4.98v20.43c-26.15,13.24-57.55,13.15-84.72,2.49Z" fill="#fff"/>
  <path d="M153.64,524.07c5.37-.19-2.11-12.68-3.57-14.87-3.4-5.07-7.67-2.75-4.41-12.03,2.87-2.43,16.97,17.35,16.95,20.91,2.87-4.71-4.01-13.53-7.16-17.25-4.03-4.76-10.57-5.93-8.79-12.63,22.85,9.07,33.5,38.23,23.1,60.47-6.51,13.91-28.13,16.63-30.1-1.16-.71-6.35,1.94-11.54,2.03-17.02.1-6.63-3.77-14.43-1.51-21.35,4.12-8.55,13.35,11.51,13.47,14.93Z" fill="#fff"/>
  <polygon points="95.82 259.02 95.82 274.47 5.12 278.95 5.12 259.02 95.82 259.02" fill="#fff"/>
  <path d="M538.32,339.73c-.08,1.71.1,2.82,1.65,3.84,4.42,2.91,30.15,2.24,35.02-.53,1.98-1.13.93-7.25,6.1,0-9.93,11.2-.32,20.71,5.06,31.07-18.05,5.82-38.05,3.28-56.78,1.48,2.04-8.5,10.72-16.04,8.91-25.36-.59-3.06-6.91-9.11.04-10.51Z" fill="#fff"/>
  <polygon points="315.07 441.39 312.09 499.17 286.24 497.11 292.16 439.38 315.07 441.39" fill="#fff"/>
  <path d="M66.42,159.38c2.83.77-3,11.43-3.39,14.54-1.73,13.52,4.89,20.28,12.84,29.81-.44,3.74-42.71,2.5-47.81,1.48,7.74-10.95,14.65-17.58,12.84-32.26-.63-5.11-3.83-8.55-3.87-13.57h29.4Z" fill="#fff"/>
  <path d="M302.13,593.82l2.8,35.18c-.88,2.78-15.26,10.24-16.75,8.67.83-15.38-14.05-23.82-26.48-28.89l1.57-20.93,38.87,5.97Z" fill="#fff"/>
  <path d="M64.91,686.5c3.14,2.67-11.54,4.26-12.75,4.68-7.65,2.63-13.38,7.53-20.05,11.84l-23,24.32,5.98-57.79c6.44,3.26,16.39,1.8,22.15,4.26,2.75,1.18,7.78,6.56,11.5,8.43,5.01,2.52,10.48,4.29,16.17,4.26Z" fill="#fff"/>
  <path d="M175.55,395.54v19.93c-13.31,6.58-28.39,8.09-43.19,8.02-.23-5.12-6.19-9.87-7.36-12.26s-1.48-8.07-4.27-11.19l54.83-4.49Z" fill="#fff"/>
  <path d="M113.68,528.14c.73,4.53-4.65,21.41-9.17,21.63-6.65.53-41.32-19.87-40.55-24.11l8.5-9.49,2.91-12.01c9.77,11.62,22.97,21.42,38.31,23.98Z" fill="#fff"/>
  <path d="M567.23,116.53h-19.93c-4.77-7.55,4.96-56.67,12.45-56.86,3.22.83,4.73,5.17,5.98,8.04,6.18,14.15,7.14,34.49,1.51,48.81Z" fill="#fff"/>
  <path d="M392.82,819.03l-5.98,15.94h-52.82l11.46-27.88c7.34,4.85,23.37,11.94,31.89,11.94h15.45Z" fill="#fff"/>
  <path d="M527.22,540.18c.41.27,2.2,5.51,5.62,7.82,5.45,3.67,9.52,1.26,12.44,8.47l-49.8,20.94c-1.14-3.05-10.55-10.66-8.56-13.53.43-.62,8.41-3.17,10.55-4.41,8.39-4.86,15.11-10.3,17.86-20.03.48-.35,11.37.42,11.87.75Z" fill="#fff"/>
  <path d="M589.16,117.53v13.95c-12.69.79-61.52,5.53-70.19-1.07-2.25-1.71-3.33-8.06-1.09-9.91,4.85-4.02,60.64,2.24,71.28-2.97Z" fill="#fff"/>
  <path d="M256.27,635.67c-4.08-13.93-21.55-1.04-19.93,8.98l-7.04-1.62c-.77-5.64,2.71-9.43,6.05-13.32-2.63-2.05-11.24,8.17-8.98,11.94-13.12-4.91,10.63-23.26,16.53-23.9,9.79-1.06,29.32,12.34,30.21,23.32-.96,3.4-31.67,6.01-33.36,3.64-1.6-9.77,8.81-15.67,16.51-9.04Z" fill="#fff"/>
  <path d="M544.31,116.53l-14.29-.91c-5.08-3.35-11.73-49.36-3.15-55.87,4.04.1,16.45,29.66,17.19,34.6,1.04,6.95-1.17,14.91.25,22.18Z" fill="#fff"/>
  <path d="M139.67,135.46h-15.45c-4.78-6.14-4.83-17.83-4.47-25.39.21-4.31,2.76-24.47,8.46-24.46,9.38,1.89,15.11,49.85,11.46,49.85Z" fill="#fff"/>
  <path d="M343.62,319.44c-13.29,13.04-49.73,19.6-54.45-4.61h4.98c.45.48-1.22,6.63,2.99,5.97l-.99-6.96c9.26,1.74,18.9,1.28,28.12-.29,4.8-.82,20.91-7.73,22.05-7.53,7.41,1.32-.13,10.9-2.7,13.42Z" fill="#fff"/>
  <path d="M113.56,137.75c17.14-1.41,34.38.48,51.5.72l2.57,1.41c3.08,2.79,1.39,8.66-2.58,9.49h-59.74c-11.97-9.64-.65-10.9,8.24-11.63Z" fill="#fff"/>
  <path d="M119.73,135.46c-14.67,3.01-19.44-.18-22.66-14.7-1.5-6.74-5.15-45.95,8.14-29.07,9.67,12.28,10.92,29.18,14.52,43.77Z" fill="#fff"/>
  <path d="M157.31,86.77c7.55-2.22,6.49,18.08,6.26,22.26-.28,5.09-3.39,24.52-7.97,26.93l-12.67-1.95c.65-16.74,2.36-34.44,14.39-47.24Z" fill="#fff"/>
  <path d="M589.16,110.05c-1.57,6.34-12.63,7.28-17.94,6.48,3.64-18.85.35-40.97,17.94-53.81-2.11,12.7,2.82,35.95,0,47.33Z" fill="#fff"/>
  <path d="M416.75,677.55c-2.85,9.91.09,20.02.99,29.88l-30.9,8.97c-3.26-8.85,6.84-12.52,11.8-18.6s10.08-14.66,12.13-22.26l5.98,2.01Z" fill="#fff"/>
  <path d="M149.14,426.43c4.43-.52,14.81-3.2,19.11-4.81,7.7-2.89,11.49-11.8,17.25.4.43,7.23-12.57,10.42-18.07,11.74-10.51,2.51-21.37,2.9-32.16,2.7l-2.58-10.03c5.25-.44,11.31.6,16.44,0Z" fill="#fff"/>
  <path d="M510.43,662.59c-.96,11.85-9.06,23.1-19.44,28.87l-7.05-32.89c1.89-2.65,21.72,5.63,26.49,4.02Z" fill="#fff"/>
  <path d="M364.91,591.84c.59,8.41-4.06,11.06-7.15,18.25-2.15,4.99-3.77,10.29-4.82,15.63l-13.94-3,3.42-27.96,22.48-2.92Z" fill="#fff"/>
  <path d="M526.37,116.52c-8.77,1.57-11.13-2.98-14.65-9.76-6.14-11.81-7.6-26.09-9.26-39.06,18.33,8.28,18.62,31.82,23.91,48.81Z" fill="#fff"/>
  <path d="M340,660.58h-10.96s3.98-11.94,3.98-11.94c-6.84.95-4.81,16.05-13.79,10.81-1.78-1.04-.49-6.26.16-8.01,1.53-4.11,4.69-4.39,5.66-7.78-7.07-.09-9.9,7.94-9.97,13.95-16.98-1.48,1.24-21.78,7.96-23.53,2.39-.62,17.69,1.84,17.92,4.08-5.46,7.61-9.36,15.24-.96,22.42Z" fill="#fff"/>
  <path d="M45.3,467.6c13.93-12.02,18.96,17.59,23.19,25.63-15.29,11.27-34.89-15.54-23.19-25.63Z" fill="#fff"/>
  <path d="M412.79,673.48c1.97-8.67,5.89-37.05,20.81-27.25,13.11,8.61-5.68,36.1-20.81,27.25Z" fill="#fff"/>
  <path d="M312.09,502.16v17.94h-20.43c-.98,0-5.12-2.88-7.42-2.04l.94-17.89,26.91,2Z" fill="#fff"/>
  <path d="M183.52,745.3l-20.43,23.88-12.48-23.36c10.49-3.68,22.28-3.38,32.91-.52Z" fill="#fff"/>
  <path d="M507.43,398.52l11.53,2.92,6.42,24.47c-.67,2.85-17.95-4.34-17.95-8.96v-18.43Z" fill="#fff"/>
  <path d="M494.46,723.37l-7.79-5.63c3.41-7.31,6.32-14.4,3.94-22.61l10.32-6.64c6.32,1.5-5.38,30.5-6.47,34.88Z" fill="#fff"/>
  <path d="M5.12,661.59c1.23,1.3,7.57,5.73,7.78,6.56.43,1.71-3.41,20.64-3.78,24.84-1.14,12.89-.56,27.22-2.11,39.75-.12,1.01-.41,3.74-1.89,3.58v-74.73Z" fill="#fff"/>
  <path d="M134.59,694.57l4.07,18.84c-4.37-2.38-5.16-6.3-11.23-4.8-1.36.34-2.34,2.49-3.2,2.57-.96.09-6.38-4.15-8.07-4.73l5.55-12.47,12.87.6Z" fill="#fff"/>
  <path d="M507.54,310.75l-2.95-7.74c2.7-2.57,29.08-17.58,25.62-5.81-.76,2.57-20.41,14.87-22.67,13.56Z" fill="#fff"/>
  <path d="M173.55,100.59c.28,6.42-2.81,38.23-12.42,35.85-1.99-.49-.97-1.65-.71-2.63,2.42-9.22,5.08-24.2,10.55-31.36.83-1.09.02-2.47,2.58-1.86Z" fill="#fff"/>
  <path d="M5.12,457.32c9.36,12.19,2.12,32.39,2.88,47.23l-2.88,11.56v-58.79Z" fill="#fff"/>
  <path d="M5.12,834.97v-10.96c5.26,3.34,12.18,5.62,18.16,7.25,5.51,1.5,11.49,1.45,16.72,3.71H5.12Z" fill="#fff"/>
  <path d="M571.72,338.74c.8.2,2.06,1.68.52,2.51-4.12,2.32-33.67,1.92-30.91-1.5,1.28.43,2.9-1.01,3.49-1.01,6.26,0,22.06-1.19,26.91,0Z" fill="#fff"/>
  <path d="M137.67,526.07c.2.23.28,6.03-.49,5.97l-4.49-4.97c1.17.28,4.64-1.39,4.98-1Z" fill="#fff"/>
  <polygon points="112.75 832.98 111.28 834.97 102.8 834.96 112.75 832.98" fill="#fff"/>
  <path d="M5.13,549.98l.97-8.96c-.31,2.98,2.86,7.3-.97,8.96Z" fill="#fff"/>
  <polygon points="402.77 380.58 401.78 380.08 401.8 377.6 402.77 377.6 402.77 380.58" fill="#fff"/>
  <path d="M296.14,749.28c-.1.11-3.11.49-3.01-.67.62-7.73-6.79-13.38-9-18.73-.43-1.03-1.45-2.28.57-2.52,4.52-.52,13.43,19.77,11.44,21.92Z"/>
  <path d="M190.48,461.31c.87,2.32,10.15,17.99,5.48,18.92-2.36.47-5.48-14.78-8.35-16.58l2.87-2.34Z"/>
  <path d="M205.44,464.3c-.64,1.87-2.24,17.65-4.96,15.93-2.56-2.67.89-19.96,4.96-15.93Z"/>
  <path d="M303.62,731.36c2.27,1.57,1.15,1.9.71,3.66-.69,2.74-2.71,13.67-4.68,13.25-3.58-2.27,1.82-16.85,3.97-16.91Z"/>
  <path d="M307.11,748.27c-2.28-3.1,8.59-13.93,9.46-13.92.35,0,1.83,2,2.47,2.47l-11.93,11.45Z"/>
  <path d="M215.41,468.28c-.12,2.01-5.69,13.36-7.96,10.95.07-3.76,4.02-9.85,7.96-10.95Z"/>
  <path d="M395.76,122.54c1.04,6.94,5.98,8.07,10.97,11.42l-1.21,2.27c-7.93-.4-6.84,7.23-9.62,10.6s-4.75-4.88-7.02-6.93c-2.52-2.29-5.92-2.13-8.01-4.93,4.25-4.14,10.13-5.65,11.89-12l2.99-.42ZM394.8,142.44c-.15-4.5,2.77-6.19,5.97-8.47l-6.45-6.47-8.47,7.45,8.95,7.49Z"/>
  <path d="M372.86,85.68l-.43,2.99c-5.19,1.7-7.59,5.34-10.03,9.91l-11.44-10.47c-.56-2.56,4.3-2.56,5.69-3.78,1.56-1.37,4.61-8.7,5.77-8.64,2.88,4.06,4.81,9.09,10.44,9.99ZM367.9,86.65l-5.48-4.98-5.48,5.45,5.95,5.48,5-5.95Z"/>
  <path d="M325.04,116.54l-.45,3.02c-5.97,1.76-7.38,6.02-10.03,10.91-4-4.56-4.89-9.12-11.44-11.47,4.45-4.53,8.65-4.05,10.48-11.44,4.47,2.98,4.6,8.9,11.44,8.98ZM316.39,120.8c.49-.76,3.11-.85,2.65-2.73-4.72-5.97-4.63-4.22-9.94-.03l4.99,6.46c1.5-.02,1.39-2.3,2.29-3.7Z"/>
  <path d="M323.8,276.21c4.42,12.37-12.5,20.08-22.92,18.44-6.16-.97-17.51-10.94-12.22-17.64,11.87,7.93,23.55-3.34,35.14-.8ZM301.13,292.9c6.57.13,12.92-2.25,17.91-6.47-.01-3.75-19.95.08-17.91,6.47Z"/>
  <path d="M343.98,227.13c-2.91-.5-22.41-5.08-23.35-5.86-9.2-7.56,26.7-6.7,23.35,5.86Z"/>
  <path d="M274.87,236.33c6.93-.55,8.9,14.71.87,16.69-8.27-.48-7.92-16.13-.87-16.69Z"/>
  <path d="M324.35,249.76c-3.45-4.48-1.56-15.58,5.94-13.47,8.87,2.49,1.77,23.48-5.94,13.47Z"/>
  <path d="M260.34,228.06c-2.55-8.22,19.15-12.94,20.79-7.26.1,6.11-6.02,3.53-9.18,4.57-3.87,1.27-7.27,4.89-11.61,2.69Z"/>
  <path d="M298.13,240.1c-.32,6.09-10.75,18.74-5.28,23.97l12.24,2.43c-3.83,4.03-8.78,2.79-12.86-.08-7.14-5.02-3.75-11.33-.95-17.73.92-2.1,4.14-8.23,6.85-8.59Z"/>
  <path d="M352.21,678.26c-2.64-15.06,24.53-.11,14.19,7.29l-14.19-7.29Z"/>
  <path d="M138.53,494.06c-.54.91-19.69,10.44-15.29.15,3.28-7.69,19.44-7.1,15.29-.15Z"/>
  <path d="M137.83,668.41c-5.09-13.24,22.8-17.82,19.62-5.56-1.02,3.93-17.87,8.38-19.62,5.56Z"/>
  <path d="M121.46,610.49c-1.9,1.75-4.94,1.22-5.56-1.43-1.35-5.74,10-16.36,15.76-13.74,6.3,2.87-4,6.93-5.5,8.42-2.21,2.19-3.75,5.88-4.7,6.75Z"/>
  <path d="M132.42,611.94c7.28-2.27,10.93,10.84,6.26,13.29-7.49,3.94-12.46-11.36-6.26-13.29Z"/>
  <path d="M451.87,536.78c-4.5-14.11,22.29-7.89,21.69.8-.44,6.31-17.85-.65-21.69-.8Z"/>
  <path d="M467.31,487.34c9.18-1.06,5.78,21.92-4.82,13.41-2.47-3.38-.05-12.85,4.82-13.41Z"/>
  <path d="M479.14,482.63c-3.19-2.06-13.47-5.61-12.13-8.38,2.85-5.86,21.87,3.21,19.4,10.32-1.74,4.99-6.32-1.33-7.27-1.94Z"/>
  <path d="M549.3,389.56c2.97-1.91,5.93,4,2.47,4.97-4.07,1.14-3.51-4.3-2.47-4.97Z"/>
  <path d="M570.22,393.54c-.84.79-6.57.06-5.95-2.49.96-3.91,8.56.03,5.95,2.49Z"/>
  <path d="M537.33,388.57c2.51,4.42-8.19,6.22-4.87.11.46-.85,4.62-.55,4.87-.11Z"/>
  <path d="M585.17,387.57c.31.33-.18,3.85,0,4.97-7.93-.15-2.04-7.2,0-4.97Z"/>
  <path d="M110.53,421.61c3.21-.47,6.33,1.56,4.77,4.82-3.49.56-15.67,12.34-16.97,11.95-6.75-2.04,6.36-15.92,12.19-16.77Z"/>
  <path d="M114.47,438.56c7.78-2.43,9.64,12.19,4.54,13.64-5.5.84-8.54-6.45-7.05-11.11.41-1.23,1.26-2.14,2.51-2.53Z"/>
  <path d="M383.41,621.2c-4.16-3.33-4.88-6.15-11.85-6.35-5.22-3.02,3.47-8.2,12.63-1.92,7.53,5.16,7.81,15.14-.77,8.27Z"/>
  <path d="M374.63,625.96c3.48,4.9-1.11,17.46-8.04,12.78-4.31-2.91.89-18.38,8.04-12.78Z"/>
  <path d="M26.56,217.18c3.31-.94,4.62,3.21,1.97,3.96-3.31.94-4.62-3.21-1.97-3.96Z"/>
  <path d="M58.94,222.15c-2.54-2.39,3.55-4.97,5.96-1.49-.71,1.72-5.48,1.94-5.96,1.49Z"/>
  <path d="M78.87,221.15c-2.18,2-5.98-1.78-3.97-3.97,1.53-1.67,5.65,2.44,3.97,3.97Z"/>
  <path d="M41.01,222.15c-.15-3.63,4.23-4.06,5.95-1.49l-5.95,1.49Z"/>
  <path d="M394.8,142.44l-8.95-7.49,8.47-7.45,6.45,6.47c-3.2,2.28-6.12,3.96-5.97,8.47Z" fill="#fff"/>
  <polygon points="367.9 86.65 362.9 92.61 356.94 87.13 362.42 81.68 367.9 86.65" fill="#fff"/>
  <path d="M316.39,120.8c-.9,1.4-.79,3.68-2.29,3.7l-4.99-6.46c5.31-4.19,5.22-5.95,9.94.03.46,1.89-2.16,1.97-2.65,2.73Z" fill="#fff"/>
  <path d="M301.13,292.9c-2.04-6.39,17.9-10.22,17.91-6.47-4.99,4.22-11.34,6.6-17.91,6.47Z" fill="#fff"/>
</svg>