<?xml version="1.0" encoding="UTF-8"?>
<svg id="Camada_1" xmlns="http://www.w3.org/2000/svg" version="1.1" viewBox="0 0 595.28 841.89">
  <!-- Generator: Adobe Illustrator 29.0.0, SVG Export Plug-In . SVG Version: 2.1.0 Build 186)  -->
  <path d="M.14,841.29V-.06h595v841.34H.14ZM591.19,3.23H3.43v436.45c56.86-21.23,106.68,16.84,150.34,47.81,20.99-9.27,42.54-17.57,66.01-13.9l1.92-18.79c-21.64,10.92-47.68,3.88-68.16-6.45-2.43-1.23-14.32-7.7-14.53-9.77-.57-5.6,6.36-16.81,7.74-22.55-10.77,2.41-39.85-9.15-41.29-20.89-.35-2.84,1.35-3.97,1.19-5.69-.13-1.49-2.03-2.43-2.04-5.3-.02-5.17,3.51-4.36,3.99-4.95.97-1.21-3.14-3.56.35-7.2,2.66-2.78,5.4-1.32,6.92-2.28.68-.43.88-2.65,1.63-3.63,4.73-6.28,20.01,4.04,25.3,6.56v-10.19c0-.5,3.52-4.19,4.1-4.44,9.29-3.99,15.98,17.91,16.29,24.49,2.07-2,3.81-2.52,6.73-1.8l33.05,15.38c13.43-12.24,25.63-20.39,43.57-24.55,3.66-.85,23.47-3.09,24.17-4.09.46-.67.33-1.83.25-2.64-4.45-.99-8.69-2.86-12.92-4.5-1.39-.54-3.21-2.3-4.13-2.5-1.61-.34-3.69,1.41-5.66,1.65-5.58.67-13.58-1.13-17.26-5.63-1.23-1.5-1.93-4.39-2.74-5.15-1-.94-4.02-1.2-5.72-2.17-6.55-3.74-8.73-11.16-5.45-17.87-8.73-.68-17.14-11.82-17.77-20.03-.23-3.05,1.38-10.95,1.19-11.79-.09-.39-4.28-4-5.24-5.85-2.99-5.74-3.18-12.36-.99-18.35.75-2.06,4.18-6.36,4.21-6.75.03-.34-1.57-4.4-1.68-6.01-.71-10.28,1.65-15.6,8.79-22.58.76-.75,3.34-1.86,3.47-2.11.51-.97,0-4.55.44-6.47,2.36-10.53,10.95-15.4,20.7-18.08,1.28-.35,4.21-.09,4.57-.36.16-.12.24-2.14,1.1-3.17,10.89-12.91,27.11-19.08,43.21-11.95,11.29-9.06,26.72-10.44,39.21-2.83,1.83,1.11,4.16,4.19,4.46,4.26,1.34.3,6.2-1.78,8.43-2,8.99-.9,21.95,2.38,27.42,10.03.94,1.32,2.81,5.85,3.13,6.07.65.45,6.67,1.8,8.9,2.93,4.72,2.4,9.37,7.53,11.01,12.65.8,2.5,1,9.19,1.24,9.61.13.22,3.39,1.57,4.43,2.47,5.45,4.73,7.42,12.49,6.58,19.6-.26,2.22-2.57,6.83-2.41,8.51.12,1.21,2.62,3.95,3.31,5.82,2,5.41,2.48,12.23.14,17.61-.8,1.85-3.29,3.41-3.45,5.02-.13,1.26,1.57,5.19,1.72,7.22.4,5.43-1.62,13.5-5.01,17.83-1.77,2.26-9.67,7.13-9.92,7.83-1.09,3.15.77,7.97-.89,12.28-2.1,5.42-10.4,6.53-11.56,7.81-.54.59-.67,3.45-1.44,4.62-2.01,3.08-9.05,6.72-12.85,7.03-3.54.29-6.67-1.34-8.37-1.18-4.64.44-14.66,8.23-20.8,7.85l-.09,2.55c19.38-.17,38.87,6.08,54.23,17.77,4.57,3.48,8,8.16,13.04,11.04l35.28-16.66,6.62.07c2.3-5.97,7.02-27.6,16.66-22.64,1.09.56,3.04,3.15,3.04,4.18v10.19c6.4-1.26,19.23-12.09,25.33-7.25,1.73,1.37,2.11,4.36,2.38,4.53.7.44,2.99-.24,5.14,1.1,3.61,2.25,1.82,6.04,2.8,8.05.35.72,2.91.7,3.18,4.43.23,3.22-1.65,4.21-1.88,6.04-.21,1.73.84,3.91.48,6.38-1.46,9.97-30.1,22.85-40.06,20.76,1.44,4.93,6.99,18.56,4.93,23-.71,1.53-17.16,9.8-19.9,10.99-14.51,6.32-30.38,10.84-46.42,9.3-6.09-.59-11.63-3.18-17.5-4.51l4.34,27.65c18.05-3.5,34.73,5.1,50.89,11.53,25.22-18.91,50.3-39.27,77.37-55.49,26.89-16.11,56.67-29.08,88.95-24.46V109.06l-46.98.03c-32.89-3.82-71.83,3.1-103.91-.69-4.96-.59-11.3-3.19-12.49-8.54-3.65-16.3,15.68-27.99,29.91-22.35-1.77-23.27,24.46-36.16,42.73-23.01,1.46-7.07,6.64-14.5,13.02-18.21,18.22-10.6,45.4-5.51,53.72,14.91,6.45-5.39,15.52-9.28,24-7.22V3.23ZM591.19,105.77v-58.5c-7.22-2.23-14.93,1.04-20.7,5.27-1.63,1.2-3.54,5.15-5.26,4.59-6.75-32.05-59.76-30.61-62.19,3.23-3.88.55-5.5-4.31-8.68-5.99-10.19-5.37-25.8.12-30.82,10.2-3.2,6.43-1.92,11.47-2.48,17.9-.97.73-5.13-1.89-7.01-2.26-8.15-1.62-17.69,1.6-21.93,8.97-6.78,11.8,3.53,15.77,13.47,16.57,18.72,1.51,44.71-.07,64.38.05,27.07.16,54.16-.19,81.23-.03ZM320.99,201.08c-7.47-14.48-31.69-13.57-41.17-1.36-12.08-8.75-30.09-4.07-39.05,6.95-1.12,1.37-2.41,5.39-3.29,5.91-1.48.87-6.82.78-9.09,1.43-5.94,1.7-13.09,7.39-15.18,13.23-1.02,2.87-.15,8.96-.38,9.37-.18.33-5.08,3.02-6.25,4.24-6.41,6.68-9.44,17.75-3.36,25.55-9.05,5.42-9.84,22.58-.32,27.41,3.44-6.03,8.84-7.7,15.55-6.33,5.07,1.03,6.91,6.99,11.49,1.7,6.58-7.6,2.65-15.59-.98-23.28,5.78-2.5,11.25-1.52,14.54-7.84,3.99-7.66.31-9.15-.76-16.22,4.05,1.45,6.79,5.88,11.16,6.91,8.68,2.06,18.98-1.54,24.1-8.85,2.68.76,4.51,2.77,7.29,3.76,9.38,3.33,15.24-.58,22.77-5.69,7.72,8.51,20.96,9.43,29.68,1.91,3.77,10.62,14.23,13.38,24.68,12.12.76.48-1.03,7.41-.97,9.23.25,7.75,6.65,9.84,6.89,11.83.18,1.52-1.72,3.74-2.02,5.89-.54,3.92.57,8.35,1.34,12.17,5.04-3.92,8.69-5.87,15.1-3.6,1.89.67,6.16,4.48,7.25,3.99,4.02-4.54,3.82-13.9,1.34-19.14-.97-2.04-3.83-3.69-3.99-5.26s2.1-5.24,2.57-7.28c2.52-10.94-1.68-17.76-10.73-23.22,1.84-8.5-4.97-19.21-12.91-22.01-1.64-.58-6.43-.72-7.06-1.15-.32-.22-1.94-5.61-3.05-7.14-6.54-8.98-26.12-12.03-35.19-5.23ZM363.29,290.27c-.86-6.15.32-11.95-.24-16.49-.5-4.08-8.05-11.2-3.97-17.82l-.94-.94c-8.4,1.73-16.94-3.2-21.82-9.83-9.21,3.87-20.81,4.73-28.14-3.17-9.52,7.18-19.57,7.9-30.15,2.41-3.01,4.02-10.53,7.8-15.4,8.42-5.49.7-9.55-1.22-14.62-2.45.8,8.96-5.41,16.43-14.47,17.1l3.95,12.8c-2.15.62-1.07,3.14-1.95,5.31-1.79,4.42-4.74,8.42-9.47,10.01-6.37-5.1-15.31-9.93-20.42-.45-8.76,16.26,7.27,39.87,24.58,26.53,1.47.46,4.22,11.8,5.73,14.64,20.56,38.56,105.65,40.88,123.45-1.81,6.87-16.47,6.22-27.41,3.86-44.23ZM387.17,293.97c-5-6.2-13.59-5.72-18.11.86l-1.43,28.85c15.25,7.14,28.44-18.67,19.54-29.71ZM236.38,343.5c-3.41-4.6-4.97-10.84-7.41-15.95l-9.07,1.86c-1.82,4.62-.83,10.84,3.45,13.65,1.89,1.24,8.81,2.61,9.28,3.25.57.78-.47,2.28.07,3.78,1.66,4.59,12.82,8.18,17.28,5.79-1.17-1.16-2.69-1.5-3.96-2.62-2.23-1.95-8.03-7.59-9.63-9.76ZM373.48,328.03l-7.79-.75c-3.13,11.81-10,21.5-19.73,28.91,6,1.39,13.07-1.36,15.83-6.84.78-1.55.33-4.02,1.23-4.68.71-.52,3.93-.54,5.42-1.16,5.96-2.48,6.89-9.9,5.04-15.48ZM155.58,368.41c-8.63-15.03-9.62-5.02-9.59,6.42-.35,1.11-1.23,1.11-2.19,1.13-2.98.07-13.78-7.83-18.22-8.81-2.94-.65-8.4-.3-5.14,3.84,1.19,1.51,14.51,6.87,14.45,8.54-.92,1.31-2.1,1.14-3.46.86-2.96-.62-19.56-14.19-19.62-4.8-.02,3.09,2.73,4.66,4.99,6.26,1.42,1,13.67,6.44,11.52,8.52-4.51.43-15.69-9.88-19.29-8.47-1.68.66-1.37,3.56-.47,4.91,2.1,3.15,16.96,10.13,17.13,11.14.14.83-.5,1.17-1.02,1.63l-14.47-7.22c-5.59,3.27,6.67,11.95,9.88,13.82,7.79,4.53,19.73,8.12,28.57,5.53,1.66-6.46,11.79-18.71,12.51-24.34.66-5.18-3.03-14.45-5.61-18.95ZM447.12,360.89c-4.27-2.66-9.01,9.11-9.96,11.88-1.41,4.1-2.18,8.91-2.96,13.19l12.99,27.11c7.6.9,16.11-1.43,22.83-4.82,3.06-1.54,19.15-11.51,15.32-15.9-1.65.11-15.37,10.19-15.76,6.25-.23-2.3,12.77-7.38,15.13-9.84,1.42-1.48,4.07-5.36,1.28-6.63-4.49-.69-16.75,9.96-19.95,8.85-.61-.21-1.19-.86-1.07-1.58.36-2.1,23.06-9.19,18.36-15.07-3.71-4.64-16.83,6.88-21.64,7.22-.27-.38-1.31-1.15-1.32-1.36-.01-2.5,19.08-7.41,14.28-12.64-1.8-1.96-8.93,1.51-11.25,2.53s-13.6,8.26-14.87,7.15l-1.41-16.34ZM297.32,414.7l6.66-25.87c2.65-2.88,15.08-5.58,17.04-8.6.84-1.29.98-7.16.51-8.48-.1-.29-3.78-4.32-4.17-4.41-2.18-.5-8.94,1.27-11.81,1.37-10.27.34-20.53-.66-30.59-2.66.2,6.08-5.63,3.38-3.93,10.05.18.69,5.14,5.06,6.2,5.75,3.67,2.4,13.73,5.22,15.39,8.28,1.16,2.13.88,4.77,1.46,6.96.14.53,1.13.52,1.23.98,1.07,4.85.84,11.54,2.01,16.62ZM260.27,601.18c2.59-26.56,1.83-55.51,2.83-82.32,1.82-48.87,3.63-97.76,5.24-146.64l-.91-1.39c-2.32,1.02-8.25,0-8.91,2.78-3.64,57.07-7.47,114.45-11.84,170.89-1.64,21.12-4.18,42.26-4.59,63.45l16.76,1.98c.73-.19.18-6.72.36-8.09.06-.43,1.06-.53,1.07-.66ZM340.27,457.89c-1.99-27.56-3.04-55.24-4.97-82.81-1.15-4.6-7.19-2.19-10.37-3.76l9.2,238.6,17.13-2.39-8.57-120.22c-.69-9.73-1.77-20.45-2.42-29.43ZM255.88,372.64l-14.62,3.28c-2.02,7.7-1.57,17.08-2.48,25.3-4.36,39.33-9.9,80.88-14.5,120.26-3.12,26.71-5.63,53.49-9.21,80.14l23.38,5.67,17.43-234.66ZM353.03,377.4c-4.93-2.1-10.15-4.34-15.62-4.11.55,10.41,1.83,20.83,2.62,31.24,4.88,64.15,7.79,131.07,13.83,195.19.15,1.56.63,7.78,1.6,8.05l23.42-5.49-25.85-224.88ZM237.48,377.24c-.61-.66-12.34,5.42-13.74,6.3-3.12,1.97-14,10.22-16.19,12.73-.57.65-1.22.91-.96,1.98,1.97-.36,5.25,3.24,3.94,4.61-1.22,1.28-21.1-10.71-23.02-9.57-7.82,14.54-13.17,29.39-18.87,44.89-.26.71-1.27.83-1.45,1.34-1.05,2.91-1.43,6.17-2.65,9.06.11,1.7,8.57,4.53,10.53,5.18,9.39,3.1,20.57,4.7,30.45,3.56,2.89-.33,14.62-4.02,16.42-5.77s.31-15.45,4.92-10.8c.36.93-.86,17.37-1.15,19.65-3.18,24.8-8.76,52.38-12.5,77.03-3.09,20.38-6.04,40.88-8.28,61.33l5.92,2.6,26.64-224.15ZM409.36,393.37c-.45-.41-.88-1.56-1.25-1.6l-23.64,11.68c-2.93-1.59.92-3.77.92-4.19.01-2.02-23.77-21.23-28.91-20.04l24.98,222.16,6.26-1.95c.9-1.41-.03-8.04-.4-10.04-4.18-22.96-8.91-48.76-12.39-71.98-3.74-24.96-6.99-50.02-9.91-75.09l3,.62c.66,7.65.38,8.33,7.18,11.23,17.04,7.28,38.73,2.14,54.62-5.93.61-1.04-.96-5.75-1.36-7.22-1.81-6.77-15.58-44.42-19.11-47.63ZM294.24,419.11c-.89-4-3.36-26.71-4.52-28.05l-18.71-9.23-3.01,85.48c.49.63,5.39,1.23,6.6,1.32,6.54.48,46.34.17,49.67-2.97l-2.29-81.21-1.66-.32c-1.76,2.01-12.31,4.72-13.22,6.01-.49.69-.3,2.13-.66,3-2.59,6.35-3.12,15.05-4.84,22.24-.9,3.74-2.23,7.38-2.99,11.15-4.06.45-2.73-4.5-3.31-6.76-.12-.49-1.04-.51-1.07-.66ZM432.35,390.13c-1.1-1.71-2.89-6.7-5.19-6.74l-14.87,7.32,22.05,56.23c2.76-2.2,16.42-7.01,16.81-10.22.28-2.34-4.76-17.68-5.98-20.82-2.78-7.19-8.53-19.1-12.83-25.77ZM184.83,391.13c-3.22-.77-16.04-8.52-18.25-7.21-9.16,17.64-19.26,35.31-24.37,54.38l19.7,9.66c4.86-14.33,9.79-28.62,16.02-42.54.46-1.02,1.37-1.19,1.64-1.77.76-1.65,5.61-11.82,5.26-12.52ZM591.19,417.99c-10.73-1.86-21.65-1.04-32.35.85-35.79,6.34-75.4,35.31-104.36,56.7-22.29,16.46-49.37,36.23-70.06,54.19-1.84,1.6-2.9,2.34-3.03,4.92-.1,1.98,2.13,14.97,3.12,15.37l93.59,5.34c-4.89-15.52,12.29-24.3,23.66-13.81,2.22-3.08,2.62-7.18,4.35-10.44,9.31-17.55,33.12-13.41,34.46,6.5,11.46-13.51,29.67-6.37,26.95,11.83,10.53-3.56,18.62,3.4,16.4,13.98-.07.32-3.36,3.86-2.32,5.77l9.59,2.6v-153.81ZM3.43,443.29v131.13l24.99-5.27c-2.71-7.31-3.98-17.18,4.8-20.5,6.41-2.42,10.16-.64,15.58,2.76-.23-23.92,32.78-28.09,37.82-3.94,9.64-9.6,25.74-4.73,24.7,9.43l.9.92,95.65-5.78c.02-4.36,4.79-19.78,2.66-22.63-38.2-21.22-71.36-52.23-109.34-73.42-30.46-16.99-63.75-26.26-97.75-12.7ZM267.8,479.7c18.48,2.56,38.77,3.57,56.81-1.87.36-1.63,1.02-8.72-.73-9.15-17.85,4.26-36.84,2.53-55.08,1.95-1.98.73-.85,7.08-1,9.07ZM219.06,476.5c-21.32-3.53-43.03,3.73-61.77,13.46l54.55,36.48,7.22-49.94ZM325.58,493.58v-11.5c-.47-.6-.69-.86-1.5-.87-3.39-.06-11.45,2.77-15.94,3.16-12.77,1.12-27.89.44-40.41-1.96l-.56,12.39c19.13,3.41,39.37,2.72,58.41-1.22ZM422.22,496.87c-15.02-6.14-31.3-14.26-47.91-10.45l6.5,41.99,41.41-31.54ZM325.57,496.86c-19.28,3.79-39.08,4.39-58.51,1.32l-6.01,136.3c-.63,1.69-7.61,1.19-9.47,1.1-12.42-.56-25.31-3.5-37.11-7.25-1.27.95-3.51,20.03-2.54,21.59,22.92,9.08,47.86,13.03,72.52,13.93,32.38,1.19,66.8-1.03,96.68-13.83l-1.65-21.7c-14.83,5.19-30.99,7.61-46.75,6.19l-7.16-137.65ZM537.28,545.5v-11.17c0-.06-1.01.12-1.1-.19-1.65-5.43-3.58-9.77-9.91-10.83-13.53-2.26-20.99,12.75-21.91,24.12-4.82,1.06-4.38-5.14-9.34-6.69-11.18-3.48-16.63,5.85-11.87,15.3l93.31,12.42c5.34-4.15,6.37-14.75-1.44-17.04l-11.13,2.64c-.33-6.02,2.29-13.96-3.37-18.32s-13.01-1.3-17.31,3.53c-.94,1.05-4.31,7.88-5.93,6.23ZM52.73,547.15c-.54,3.65.39,8.37,0,12.16-4.15,1.91-4.44-3.82-7.26-6.21-11.07-9.39-20.63,6.05-12.03,15.33l73.91-11.4c1.17-7.83-3.68-12.72-11.51-11.47-5.53.88-7.19,7.55-12.2,9.15.69-12.64-6.1-22.83-19.9-20.22-5.25.99-10.26,7.58-11,12.66ZM591.19,838v-262.59c-13.58-4.05-27.91-6.48-41.94-8.68-54.14-8.46-109.72-12.12-164.5-14-.68.68,1.01,12.61,1.37,14.63.09.5,1.14.49,1.22.99,2.84,17.14,4.66,34.54,7.28,51.72-.65,3.5-8.78,6.53-11.79,7.67.87,8.02,2.74,16.13,1.6,24.25-7.2,3.94-15.24,6.28-23.27,7.96l-.1,20.59c10.09,3.73,29.98,11.4,33.41,22.54.3.97,1.92,7.43,2.09,8.44,2.26,13.48-22.13,16.5-31.23,16.1-10.04-.44-41.61-9.31-48.06-16.7-3.76-4.31-1.71-16.87-.18-22.24.3-1.04,1.91-.45,1.91-4.14v-17.42l-40.15.29c-.7.49-1.5,16.18-1.29,17.13.35,1.6,2.22,1.6,3.02,4.22,1.34,4.37,2.38,16.67.18,20.65-3.13,5.65-25.35,14.57-31.96,16.03-11.73,2.6-43.05,3.48-45.9-12.29-.81-4.49,1.21-3.79,1.98-5.99.82-2.35.75-3.98,2.07-6.48,3.9-7.38,20.96-17.37,29.14-19.83l-.54-19.9c-4.87-2.14-24.53-6.13-27.04-9.89-1.75-2.62,2.19-19.31,1.93-23.59l-12.13-6.97,8.93-65.79c-68.49,1.87-136.94,8.54-203.82,23.01v260.29h587.77ZM259.18,612.55c-18.36-1.72-36.91-4.09-54.25-10.49-2.54,5.01-1.43,11.42-3.67,16.06l.51,1.07c4.03,5.57,34.55,12.16,42.04,13,2.96.33,10.63,1.31,13.07.74,1.28-.3,1.34-.36,1.64-1.64,1.04-4.38-.16-13.78.66-18.73ZM389.35,602.69c-17.82,5.68-36.47,9.33-55.23,9.86l.95,19.11c8,3.38,52.41-5.47,55.63-11.02,1.95-3.36-1.91-13.64-1.35-17.94ZM275.62,666.44l-36.16-5.26c-.73.46-.22,16.52.09,17.32.7,1.83,7.36.89,9.81,1.37,6.91,1.36,15.06,8.55,19.02,14.17-.08-3.16,3.35-3.96,4.63-5.57,3.23-4.05,1.86-16.65,2.62-22.04ZM357.8,661.19l-35.08,5.35c-1.1.35-1.08,1.25-1.13,2.2-.27,4.65,1.54,11.85.85,16.96,2.95,3.65,7.22,4.91,8.74,9.66,5.2-8.99,16.31-14.88,26.63-15.1v-19.06ZM256.56,711.14c9.48-4.02,15.13-4.14,9.21-15.46-8.48-16.22-29.78-16.19-42.74-5.24,13.75.82,30.16,5.3,33.54,20.7ZM376.2,690.12c-4.58-1.59-8.89-5.45-13.76-6.29-14.32-2.48-29.84,6.94-32.18,21.62l13.73,5.69c1.13-9.35,7.39-14.84,15.64-18.22l16.58-2.8ZM277.58,689.45c-6.15,1.8-8.58,7.67-6.57,13.81,9.01-1.96,7.71-6.21,6.57-13.81ZM320.32,689.45c-1.03,7.35-2.37,12.19,6.2,14.43,4.12-4.98-.12-13.53-6.2-14.43ZM389.36,709.83c6.41-5.09-2.6-15.15-8.38-16.28-8.84-1.72-22.93,1.09-29.42,7.74-1.76,1.8-5.4,7.75-4.97,10.16.59,3.29,18.15,6.44,21.26,5.47,5.01-1.57.13-12.32-5.45-11.04-.06-1.18,2.95-.73,3.56-.6,5.6,1.16,7.11,6.07,5.64,11.12,10.68.5,8.3-9.14,1.97-13.47,6.44-1.01,7.44,6.13,8.87,10.83,6.83-3.52,2.91-10.16-.65-14.45,5.11,1.18,8.48,4.99,7.56,10.52ZM230.4,715.57c2.31,2.42,21.66-.23,22.74-3.58-.45-14.26-23.48-20.48-34.92-17.8-4.65,1.09-13.37,10.33-7.71,14.98,0-4.78,3.33-8.83,7.89-9.85-2.86,4.38-7.27,10.23-.97,13.79,1.69.01.8-2.82,1.48-4.42,1.31-3.13,4.25-7.08,8.04-6.74-1.36,3.5-4.39,3.14-5.46,7.34-1.62,6.33,1.19,6.63,6.78,6.45-1.95-5.99,3.27-11.22,9.2-11.16l-6.35,5.14-.73,5.85ZM278.9,702.6c-21.24,14.35-49.29,25.2-72,7.24l-.98.97c.88,13.63,23.49,14.33,33.78,13.39,9.63-.89,26.04-7.19,34.17-12.51,3.7-2.42,5.81-4.18,5.04-9.09ZM393.95,711.15c-6.04,2.13-11.37,6.17-17.73,7.57-19.85,4.39-39.83-6.81-57.21-14.8-.13,1.97-.14,3.52,1,5.24,3.47,5.28,33.12,14.32,40.1,15.12,9.95,1.14,33.44.64,33.84-13.13Z"/>
  <rect x=".14" y="841.29" width="595" height=".66" fill="#fff"/>
  <path d="M590.96,3.23v40.75c-8.48-2.07-17.55,1.82-24,7.22-8.32-20.43-35.5-25.51-53.72-14.91-6.38,3.71-11.56,11.14-13.02,18.21-18.28-13.15-44.5-.26-42.73,23.01-14.23-5.64-33.56,6.05-29.91,22.35,1.2,5.36,7.54,7.96,12.49,8.54,32.08,3.79,71.03-3.13,103.91.69l46.98-.03v305.64c-32.28-4.62-62.06,8.35-88.95,24.46-27.08,16.22-52.15,36.58-77.37,55.49-16.16-6.44-32.84-15.04-50.89-11.53l-4.34-27.65c5.87,1.33,11.41,3.93,17.5,4.51,16.04,1.54,31.9-2.98,46.42-9.3,2.74-1.19,19.19-9.46,19.9-10.99,2.06-4.44-3.49-18.07-4.93-23,9.96,2.09,38.6-10.79,40.06-20.76.36-2.47-.69-4.66-.48-6.38.23-1.83,2.11-2.82,1.88-6.04-.27-3.73-2.83-3.71-3.18-4.43-.98-2.02.82-5.8-2.8-8.05-2.15-1.34-4.44-.66-5.14-1.1-.27-.17-.65-3.15-2.38-4.53-6.09-4.84-18.93,5.98-25.33,7.25v-10.19c0-1.03-1.96-3.63-3.04-4.18-9.64-4.96-14.36,16.67-16.66,22.64l-6.62-.07-35.28,16.66c-5.03-2.88-8.46-7.56-13.04-11.04-15.35-11.69-34.84-17.94-54.23-17.77l.09-2.55c6.14.38,16.15-7.41,20.8-7.85,1.7-.16,4.83,1.47,8.37,1.18,3.8-.31,10.84-3.95,12.85-7.03.77-1.18.91-4.03,1.44-4.62,1.16-1.28,9.47-2.39,11.56-7.81,1.67-4.31-.2-9.13.89-12.28.24-.7,8.15-5.57,9.92-7.83,3.38-4.32,5.4-12.4,5.01-17.83-.15-2.04-1.85-5.97-1.72-7.22.16-1.61,2.65-3.17,3.45-5.02,2.34-5.38,1.86-12.2-.14-17.61-.69-1.87-3.19-4.61-3.31-5.82-.17-1.69,2.14-6.29,2.41-8.51.84-7.1-1.13-14.87-6.58-19.6-1.04-.9-4.3-2.25-4.43-2.47-.24-.42-.44-7.11-1.24-9.61-1.64-5.12-6.29-10.25-11.01-12.65-2.23-1.13-8.25-2.49-8.9-2.93-.32-.22-2.19-4.76-3.13-6.07-5.48-7.65-18.43-10.93-27.42-10.03-2.22.22-7.08,2.31-8.43,2-.3-.07-2.63-3.14-4.46-4.26-12.49-7.61-27.92-6.23-39.21,2.83-16.1-7.13-32.32-.96-43.21,11.95-.86,1.02-.94,3.05-1.1,3.17-.36.27-3.3.01-4.57.36-9.75,2.68-18.34,7.56-20.7,18.08-.43,1.92.07,5.5-.44,6.47-.13.25-2.71,1.37-3.47,2.11-7.14,6.99-9.5,12.31-8.79,22.58.11,1.61,1.71,5.67,1.68,6.01-.03.4-3.46,4.69-4.21,6.75-2.19,5.99-2,12.62.99,18.35.96,1.85,5.16,5.45,5.24,5.85.19.84-1.42,8.74-1.19,11.79.63,8.21,9.04,19.35,17.77,20.03-3.27,6.71-1.1,14.13,5.45,17.87,1.7.97,4.72,1.23,5.72,2.17.81.76,1.51,3.65,2.74,5.15,3.68,4.5,11.68,6.3,17.26,5.63,1.97-.24,4.05-1.99,5.66-1.65.92.2,2.74,1.96,4.13,2.5,4.23,1.65,8.47,3.52,12.92,4.5.09.81.21,1.97-.25,2.64-.7,1.01-20.52,3.25-24.17,4.09-17.94,4.16-30.14,12.31-43.57,24.55l-33.05-15.38c-2.93-.72-4.67-.2-6.73,1.8-.3-6.58-7-28.48-16.29-24.49-.58.25-4.1,3.94-4.1,4.44v10.19c-5.29-2.52-20.57-12.84-25.3-6.56-.74.99-.94,3.2-1.63,3.63-1.52.95-4.26-.5-6.92,2.28-3.49,3.64.61,5.99-.35,7.2-.48.6-4.01-.22-3.99,4.95.01,2.87,1.91,3.81,2.04,5.3.15,1.73-1.54,2.85-1.19,5.69,1.44,11.74,30.52,23.3,41.29,20.89-1.38,5.74-8.32,16.95-7.74,22.55.21,2.07,12.09,8.54,14.53,9.77,20.48,10.33,46.52,17.37,68.16,6.45l-1.92,18.79c-23.47-3.67-45.01,4.63-66.01,13.9-43.66-30.97-93.48-69.04-150.34-47.81V3.23h587.77ZM316.85,66.9c-.19-.34-.25-.96-.62-1.62-4.6-8.34-11.09-29.16-25.03-20.26-2.63,1.67-8.26,9.77-9.8,12.52s-7.14,17.23-8.44,18.05c-8.27,1.45-35.86,3.65-39.93,11.18-.8,1.49-1.23,3.1-1.03,4.81,4.84,11.57,17.04,17.64,24.8,27.09-.59,12.78-14.04,46.24,10.54,39.88,10.57-2.74,19.97-10.46,30.06-14.38,18.49,9.5,49.53,33.01,43.69-7.67-.07-.48-1.19-.47-1.26-.94-.92-5.79-1.33-11.73-2.57-17.49,7.8-6.87,37.5-27.31,17.84-35.79-9.3-4.01-22.23-4.58-32.23-6.55-2.11-.96-4.72-6.52-6.01-8.81ZM132.31,63.45c-1.06-1.87-1.9-3.92-3.27-5.61-17.24-21.1-56.84-11.62-55.5,17.68-16.84-10.03-38.8,3.56-35.78,23.03-.78,1.08-6.31.53-8.3.93-6.85,1.36-11.52,7.45-13.11,13.79,4.11,6.75,8.68,7.14,16.08,7.63,47.14,3.14,97.26-2.81,144.69-.66,27.6-2.62,19.57-39.86-6.26-33.55.75-6.54-2.79-12.88-7.55-17.1-7.53-6.66-20.54-6.86-27.63.66-.92-2.57-2.15-4.68-3.36-6.81ZM432.11,135.1c-8.41-14.35-15.59-1.53-21.74,6.71-21.03-1.62-26.7,5.51-11.37,20.95-3.24,9.13-8.66,23.03,6.83,21.17,3.34-.4,10.28-4.51,11.9-4.49,2.47.02,10.01,6.48,13.59,7.4,14.48,3.72,7.83-11.06,9.89-18.15.96-3.3,13.9-7.94,12.34-15.89-.93-4.74-13.13-7.37-17.06-8.6-1.64-3.38-2.55-5.99-4.37-9.1ZM190.05,145.06c-3.69-7.9-12.33-17.82-19.23-6.78-1.09,1.75-3.81,9.26-4.73,10.07-2.32,2.04-14.69,2.23-17.11,7.53-3.6,7.85,8.42,11.28,11.9,16.11-3.69,22.35,6.77,22.4,21.58,10.8,6.5,2.37,14.75,6.98,21.22,2.14,2.32-6.31-.41-11.9-2.6-17.56,4.79-3.76,10.4-10.64,9.59-16.93-1.6-4.75-16.26-5.15-20.61-5.37ZM524.82,176.5c-3.29-7.51-4.82-21.23-16.06-12.56-2.38,1.84-10.43,11.49-11.17,11.84-4.34,2.06-23.3-3.72-24.35,5.91-.85,7.84,6.32,12.16,9.22,18.47-.91,6.78-6.02,11.86-5.22,18.94,1.16,10.24,20.08,3.1,25.91,1.04,17.59,15.46,28.26,16.54,26.97-11.17,22.72-12.14,21.78-21.37-3.48-27.74.35-2.33-1.39-3.69-1.84-4.72ZM97.49,173.2c-4.18-4.1-7.01-11.78-14.78-9.29-3.98,1.27-6.94,12.02-7.34,15.98-5.3,2.46-20.76,5.6-19.45,13.45.97,5.81,10.52,8.35,14.03,12.35-.54,9.55-2,24.83,12.13,18.7,2.86-1.24,10.96-7.93,11.65-8.08,2.13-.49,10.65,2.98,14.31,3.19,16.19.91,8.03-12.78,5.1-21.92,2.2-4.01,9.14-11.57,9.1-15.9-.06-8.49-16.98-5.79-22.57-6.24-.69-.79-1.43-1.5-2.18-2.23ZM107.07,263.52c-5.01-32.13-24.05-13.04-18.42,9.2l-7.4-3.83c-8.7,4.8-5.87,18.19-3.77,26.18-1.83,1.41-8.49-7.41-11.86,2.28-2.38,6.82-1.33,15.39,2.66,21.38-16.58-7.53-12.67,17.07-7.77,25.19,1.58,2.62,7.01,7.11,9.8,8.61,2.32,1.24,4.49,2.25,7.18,2.36-1.09,5.25-1.24,10.65-2.02,15.94-.08.54-1.17.28-1.32,1.44-1.06,8.15-1.34,16.48-1.26,24.69l3.19-1.08,4.05-40.32c8.26-.32,16-2.3,22.65-7.26,7-5.22,21.15-22.64,3.63-23.32,7.38-4.2,26.27-23.14,7.23-24.32,4.56-1.97,19.48-20.63,10.17-22.66l-5.58-.36c5.29-5.15,11.93-16.49,9.57-24.01-2.81-8.97-17.63,7.4-20.73,9.89ZM505.49,272.72c5.75-23.9-12.35-39.47-19.08-9.21-7.99-10.04-25.38-23.43-19.67,1.46l8.5,13c-4.09-1.55-9.57.84-8.59,5.62,4.09,5.64,5.9,14.06,13.19,16.75l-.32,1.31c-16.44.19.1,20.31,7.56,23.01-1.28,1.17-3.55.57-5.45,1.44-.29.13-3,2.77-3.06,2.98-.87,3.22.92,3.21,1.21,4,3.29,8.92,6.6,13.2,15.27,17.46,6.51,3.2,12.15,3.75,19.05,5.44l4.55,38.01c3.23,5.09,2.69-4.16,2.61-6.55-.36-10.54-2.62-22.15-4.56-32.5,12.49-3.28,21.54-16.77,21-29.28-.32-7.35-3.95-10.44-11.16-6.92,2.74-4.42,5.96-23.69.19-25.5-3.82-.98-7.07,1.12-10.05,3.15,4.41-9.04,4.24-36.76-11.18-23.66Z" fill="#fff"/>
  <path d="M591.19,838H3.43v-260.29c66.88-14.47,135.32-21.14,203.82-23.01l-8.93,65.79,12.13,6.97c.26,4.28-3.69,20.96-1.93,23.59,2.51,3.76,22.17,7.75,27.04,9.89l.54,19.9c-8.18,2.47-25.24,12.45-29.14,19.83-1.32,2.5-1.25,4.13-2.07,6.48-.77,2.2-2.79,1.5-1.98,5.99,2.86,15.77,34.17,14.89,45.9,12.29,6.61-1.46,28.83-10.38,31.96-16.03,2.2-3.98,1.15-16.28-.18-20.65-.8-2.62-2.67-2.63-3.02-4.22-.21-.95.58-16.64,1.29-17.13l40.15-.29v17.42c0,3.7-1.62,3.11-1.91,4.14-1.54,5.38-3.58,17.94.18,22.24,6.45,7.39,38.01,16.26,48.06,16.7,9.1.4,33.48-2.61,31.23-16.1-.17-1.01-1.79-7.46-2.09-8.44-3.43-11.15-23.32-18.82-33.41-22.54l.1-20.59c8.03-1.68,16.06-4.02,23.27-7.96,1.15-8.12-.72-16.23-1.6-24.25,3.01-1.14,11.14-4.17,11.79-7.67-2.62-17.19-4.44-34.58-7.28-51.72-.08-.5-1.13-.49-1.22-.99-.36-2.02-2.04-13.95-1.37-14.63,54.79,1.88,110.36,5.54,164.5,14,14.04,2.19,28.37,4.63,41.94,8.68v262.59ZM451.15,587.57c-3.55-3.4-6.3,14.1-3.6,15.77,3.08.67,2.85-13.98,3.6-15.77ZM440.65,602.69c1.14.19,1.87-.48,1.94-1.6.16-2.49-6.94-13.68-10.15-12.86-3.03.78,2.22,4.03,3.23,5.31,1.92,2.45,4.04,6.14,4.99,9.15ZM124.39,591.52c-3.24-2.08-2.69,5.72-2.64,6.92.08,2.12.33,10.33,2.97,10.17,2.13-1.7.4-16.62-.33-17.09ZM456.79,601.78c1.17-1.41,1.83-3.44,3.22-5.03,1.17-1.34,6.29-3.52,2.97-4.94-2.38-1.02-12.51,7.56-9.54,11.56.76,1.33,2.9-1.04,3.36-1.59ZM138.86,593.49c-4.52-1.4-13.2,12.68-9.52,13.79,2.66.8,2.28-2.97,3-4.08,1.1-1.71,7.96-8.22,6.52-9.72ZM119.13,609.91c2.6-2.67-10.7-17.45-10.88-9.16,3.6-.6,9.2,10.88,10.88,9.16ZM522.16,634.9c-3.38-3.42-5.51,15.2-3.94,17.08.92.18,1.56-.23,1.85-1.1,1.16-3.42.81-11.92,2.08-15.98ZM511.64,652.65c1.41-4.04-6.51-19.23-11.19-16.12-2.22,1.48,3.4,4.46,4.31,5.57,2.33,2.85,3.91,6.61,4.85,10.15l2.03.4ZM527.28,652.49c.38-.22,3.4-6.06,4.76-7.39,1.2-1.18,6.51-3.31,5.25-4.62-4-4.14-14.01,10.64-12.49,12.16.1.1,2.01.12,2.48-.15ZM76.31,664.37c.66-.45,1.92-14.24.4-15.67-4.47-1.1-2.93,12.94-2.85,15.68h2.45ZM63.51,658.31c1.71,2.47,3.36,3.79,4.02,7.47l1.93-.62c-.43-7.01-5.6-14.72-12.78-15.8-.44,2.77,2.49,3.21,3.97,4.9,1.11,1.27,1.91,2.69,2.86,4.06ZM88.73,654.11c-5.22.7-10.36,11.84-6.74,11.67,1.49-1.32,1.68-3.48,2.95-4.93.83-.94,8.6-5.99,4.93-6.89-.4-.12-.76.1-1.13.15ZM451.81,703.25c1.81-4.48-6.61-17.51-10.83-16.43-3.55.91,4.27,6.27,4.82,7,1.15,1.51,4.08,11.39,6.01,9.43ZM457.07,692.41c-.47,3.51.35,7.88,0,11.5,1.37.1,1.84.24,2.48-1.13.57-1.22,2.12-14.91,1.46-15.3-2.53-.3-3.66,2.88-3.94,4.93ZM467.96,699.68c1.23-1.3,6.77-6.15,6.86-6.62.81-4.57-8.21,1.93-9.49,3.66-.69.93-2.7,4.94-2.02,5.88,2.25,2.01,3.1-1.27,4.66-2.92ZM146.09,745.98v-16.76c-.77-1.52-2.66-.42-3.16.79-.92,2.26-2.89,19.55,3.16,15.97ZM161.87,731.52c-1.08-1.07-6.32,3.4-7.13,4.37-1.18,1.43-5.61,8.78-3.05,10.08,1.89.96,2.68-4.07,3.6-5.4.78-1.13,7.77-7.86,6.57-9.05ZM133.37,742.91c.67.85,2.83,7.07,4.12,3.3s-8.05-13.49-12.07-14.03c-2.96,2.58.82,3.07,2.39,4.61,1.78,1.74,4.04,4.19,5.56,6.12ZM522.49,757.83c-3.01-.07-5.97,16.17-2.63,18.37.83-.04,3.56-15.25,3.59-16.15.02-.77-.19-2.2-.96-2.22ZM512.29,776.87c2.04-2.09-6.54-19.83-12.48-17.08.24,3.56,4.29,4.57,6.46,7.67,1.08,1.54,4.05,11.43,6.02,9.42ZM537.28,764.39c-4.41-2.66-13.07,10.31-11.17,12.48,2.85-.42,3.82-3.98,5.58-5.92,1.19-1.32,6.53-5.25,5.59-6.56ZM373.25,767.67c-2.08.44-4.42,15.11-1.97,17.08,2.25.5,3.67-12.94,3.63-14.82-.02-1.04-.38-2.53-1.66-2.26ZM52.49,780.4c.44.83,1.9,9.57,3.88,6.36,2.31-3.74-4.91-16.58-10.21-16.45-1.45,1.52,5.48,8.5,6.32,10.1ZM66.54,770.96c-5.71-1.81-5.36,15.28-4.59,15.77.83-.07,2.3-.31,2.63-1.14,1.14-2.86.76-11.05,1.96-14.64ZM364.14,779.72c-.37-.7-6.25-7.28-7.03-7.75-1.31-.78-2.32-1.24-3.91-1.01l.11,2.51c4.26-.34,8.58,11.69,10.08,11.94,2.53.43,1.48-4.31.74-5.69ZM390.01,772.93c-3.99-2.16-13.85,10.56-12.48,11.82,3.76.58,4.56-3.57,6.88-5.93,1.14-1.16,7.01-4.45,5.61-5.89ZM81,776.22c-3.48-1.27-13.16,8.84-11.51,11.17,1.91,2.69,3.72-2.29,4.67-3.22,1.39-1.36,8.57-6.14,6.83-7.95ZM232.86,780.16l-2.54.07.59,17.67c.93.03,1.7.26,2.31-.64.74-1.08.27-16.51-.36-17.1ZM220.14,786.32c-1.36-1.29-5.85-4.58-4.91-.69,1.57,2.01,3.47,3.47,4.91,5.62,2.01,2.99,2.19,7.97,6.16,7.31,2.05-2.02-4.52-10.71-6.16-12.25ZM249.31,786.09c-4.81-3.75-12.89,10.78-11.17,12.47,3.26.48,3.34-3.91,4.97-5.87l6.2-6.61Z" fill="#fff"/>
  <path d="M591.19,417.99v153.81l-9.59-2.6c-1.03-1.91,2.26-5.45,2.32-5.77,2.22-10.59-5.87-17.54-16.4-13.98,2.72-18.2-15.49-25.35-26.95-11.83-1.34-19.91-25.15-24.06-34.46-6.5-1.73,3.27-2.14,7.36-4.35,10.44-11.36-10.5-28.55-1.72-23.66,13.81l-93.59-5.34c-.99-.39-3.22-13.39-3.12-15.37.14-2.58,1.19-3.32,3.03-4.92,20.69-17.96,47.77-37.73,70.06-54.19,28.96-21.39,68.57-50.36,104.36-56.7,10.69-1.89,21.61-2.72,32.35-.85Z" fill="#fff"/>
  <path d="M3.43,443.29c34.01-13.57,67.3-4.3,97.75,12.7,37.97,21.19,71.13,52.2,109.34,73.42,2.14,2.86-2.64,18.27-2.66,22.63l-95.65,5.78-.9-.92c1.04-14.16-15.06-19.03-24.7-9.43-5.04-24.14-38.05-19.98-37.82,3.94-5.42-3.39-9.17-5.17-15.58-2.76-8.78,3.31-7.51,13.19-4.8,20.5l-24.99,5.27v-131.13Z" fill="#fff"/>
  <path d="M325.57,496.86l7.16,137.65c15.76,1.42,31.92-1,46.75-6.19l1.65,21.7c-29.88,12.8-64.3,15.02-96.68,13.83-24.66-.9-49.6-4.85-72.52-13.93-.97-1.56,1.28-20.65,2.54-21.59,11.8,3.76,24.7,6.69,37.11,7.25,1.86.08,8.84.58,9.47-1.1l6.01-136.3c19.42,3.07,39.22,2.48,58.51-1.32Z" fill="#fff"/>
  <path d="M363.29,290.27c2.36,16.82,3.01,27.76-3.86,44.23-17.8,42.68-102.89,40.37-123.45,1.81-1.51-2.83-4.26-14.18-5.73-14.64-17.31,13.35-33.34-10.26-24.58-26.53,5.1-9.48,14.05-4.65,20.42.45,4.73-1.59,7.68-5.59,9.47-10.01.88-2.17-.21-4.69,1.95-5.31l-3.95-12.8c9.05-.66,15.26-8.13,14.47-17.1,5.07,1.23,9.13,3.15,14.62,2.45,4.87-.62,12.39-4.39,15.4-8.42,10.58,5.5,20.63,4.77,30.15-2.41,7.33,7.89,18.94,7.03,28.14,3.17,4.88,6.63,13.42,11.57,21.82,9.83l.94.94c-4.08,6.63,3.47,13.74,3.97,17.82.56,4.54-.63,10.35.24,16.49ZM278.74,265.97c3.47-3.83-4.9-6.73-8.54-6.25-2.58.34-13,6.46-13.83,8.6-3.11,7.99,8.45.96,10.83.27,2.86-.84,10.04-.97,11.54-2.61ZM324.74,260.38c-2.62.63-4.36,3.99-2.06,5.72l21.14,5.49c2.84-1.08.67-4.5-.79-6.12-3.45-3.82-13.41-6.27-18.29-5.09ZM268.85,281.41c-6.49,1.51-7.57,13.22-2.46,17.29,11.46,9.13,17.5-20.79,2.46-17.29ZM330.67,281.42c-8.02,1.39-7.06,16.75.15,18.6,11.3,2.9,12.44-20.78-.15-18.6ZM301.25,314.13c9.78,1.06,16.5-5.09,11.07-14.68-1.11-1.97-8.07-10.94-9.75-6.04,8.09,6.37,14.82,17.46-1.22,18.2l-.11,2.52ZM224.6,306.66c-2.18-3.14-12.76-8.81-14.07-4.68-1,3.16,5.35,2.06,7.6,2.9,3,1.11,3.55,5.47,7.51,3.33.55-1.61-.77-1.17-1.04-1.55ZM318.09,330.97c5.79-11.1-3.24-5.01-8.04-4.42-2.97.36-8.09.32-11.12.1-4.69-.35-16.52-4.74-18.43-4.61-.85.06-1.21.26-1.51,1.08.84,21.24,29.21,26.82,39.1,7.85Z" fill="#fff"/>
  <path d="M320.99,201.08c9.07-6.8,28.65-3.75,35.19,5.23,1.12,1.53,2.73,6.92,3.05,7.14.63.43,5.42.57,7.06,1.15,7.93,2.8,14.75,13.51,12.91,22.01,9.06,5.46,13.25,12.28,10.73,23.22-.47,2.04-2.73,5.74-2.57,7.28s3.03,3.22,3.99,5.26c2.48,5.24,2.68,14.6-1.34,19.14-1.09.5-5.36-3.32-7.25-3.99-6.41-2.26-10.06-.32-15.1,3.6-.76-3.82-1.87-8.25-1.34-12.17.3-2.15,2.2-4.38,2.02-5.89-.24-1.99-6.64-4.08-6.89-11.83-.06-1.83,1.73-8.76.97-9.23-10.45,1.26-20.92-1.5-24.68-12.12-8.72,7.52-21.96,6.6-29.68-1.91-7.53,5.11-13.39,9.02-22.77,5.69-2.78-.99-4.6-3-7.29-3.76-5.12,7.31-15.43,10.91-24.1,8.85-4.37-1.04-7.11-5.46-11.16-6.91,1.07,7.06,4.75,8.56.76,16.22-3.29,6.32-8.76,5.34-14.54,7.84,3.63,7.7,7.56,15.68.98,23.28-4.58,5.29-6.42-.67-11.49-1.7-6.71-1.37-12.11.3-15.55,6.33-9.52-4.83-8.73-21.98.32-27.41-6.07-7.8-3.04-18.88,3.36-25.55,1.17-1.22,6.07-3.91,6.25-4.24.23-.41-.65-6.5.38-9.37,2.08-5.85,9.24-11.53,15.18-13.23,2.27-.65,7.61-.57,9.09-1.43.88-.52,2.18-4.54,3.29-5.91,8.96-11.02,26.97-15.7,39.05-6.95,9.48-12.21,33.7-13.12,41.17,1.36Z" fill="#fff"/>
  <path d="M591.19,105.77c-27.07-.16-54.16.2-81.23.03-19.67-.12-45.67,1.46-64.38-.05-9.94-.8-20.25-4.77-13.47-16.57,4.24-7.37,13.78-10.59,21.93-8.97,1.88.37,6.04,2.98,7.01,2.26.56-6.44-.72-11.47,2.48-17.9,5.02-10.08,20.63-15.57,30.82-10.2,3.19,1.68,4.8,6.54,8.68,5.99,2.44-33.84,55.44-35.28,62.19-3.23,1.72.56,3.63-3.39,5.26-4.59,5.77-4.23,13.48-7.5,20.7-5.27v58.5Z" fill="#fff"/>
  <path d="M353.03,377.4l25.85,224.88-23.42,5.49c-.97-.26-1.45-6.49-1.6-8.05-6.05-64.12-8.95-131.04-13.83-195.19-.79-10.41-2.07-20.83-2.62-31.24,5.47-.22,10.69,2.01,15.62,4.11Z" fill="#fff"/>
  <path d="M237.48,377.24l-26.64,224.15-5.92-2.6c2.24-20.45,5.19-40.95,8.28-61.33,3.74-24.64,9.32-52.23,12.5-77.03.29-2.29,1.51-18.72,1.15-19.65-4.62-4.66-3.05,8.99-4.92,10.8s-13.54,5.44-16.42,5.77c-9.88,1.14-21.07-.46-30.45-3.56-1.96-.65-10.42-3.48-10.53-5.18,1.23-2.89,1.6-6.15,2.65-9.06.18-.51,1.19-.64,1.45-1.34,5.7-15.51,11.05-30.36,18.87-44.89,1.92-1.14,21.8,10.85,23.02,9.57,1.31-1.37-1.97-4.97-3.94-4.61-.25-1.07.39-1.33.96-1.98,2.2-2.51,13.07-10.76,16.19-12.73,1.4-.88,13.13-6.96,13.74-6.3Z" fill="#fff"/>
  <path d="M255.88,372.64l-17.43,234.66-23.38-5.67c3.58-26.65,6.09-53.43,9.21-80.14,4.6-39.38,10.13-80.94,14.5-120.26.91-8.21.46-17.59,2.48-25.3l14.62-3.28Z" fill="#fff"/>
  <path d="M409.36,393.37c3.53,3.21,17.3,40.86,19.11,47.63.39,1.48,1.96,6.18,1.36,7.22-15.89,8.07-37.58,13.21-54.62,5.93-6.8-2.9-6.51-3.58-7.18-11.23l-3-.62c2.91,25.07,6.17,50.13,9.91,75.09,3.48,23.22,8.22,49.02,12.39,71.98.37,2.01,1.3,8.64.4,10.04l-6.26,1.95-24.98-222.16c5.14-1.18,28.93,18.02,28.91,20.04,0,.43-3.86,2.61-.92,4.19l23.64-11.68c.37.04.8,1.19,1.25,1.6Z" fill="#fff"/>
  <path d="M294.24,419.11c.03.14.94.17,1.07.66.58,2.26-.76,7.21,3.31,6.76.76-3.77,2.09-7.42,2.99-11.15,1.72-7.19,2.26-15.89,4.84-22.24.35-.87.17-2.31.66-3,.91-1.29,11.46-4,13.22-6.01l1.66.32,2.29,81.21c-3.33,3.14-43.13,3.46-49.67,2.97-1.21-.09-6.11-.68-6.6-1.32l3.01-85.48,18.71,9.23c1.15,1.35,3.63,24.06,4.52,28.05Z" fill="#fff"/>
  <path d="M340.27,457.89c.65,8.98,1.73,19.7,2.42,29.43l8.57,120.22-17.13,2.39-9.2-238.6c3.18,1.57,9.22-.84,10.37,3.76,1.93,27.58,2.98,55.25,4.97,82.81Z" fill="#fff"/>
  <path d="M260.27,601.18c-.01.13-1.01.23-1.07.66-.18,1.37.36,7.9-.36,8.09l-16.76-1.98c.41-21.19,2.96-42.33,4.59-63.45,4.37-56.44,8.2-113.82,11.84-170.89.67-2.77,6.59-1.76,8.91-2.78l.91,1.39c-1.61,48.88-3.42,97.77-5.24,146.64-1,26.81-.24,55.77-2.83,82.32Z" fill="#fff"/>
  <path d="M537.28,545.5c1.62,1.65,5-5.17,5.93-6.23,4.29-4.83,11.5-8.01,17.31-3.53s3.05,12.3,3.37,18.32l11.13-2.64c7.81,2.29,6.78,12.89,1.44,17.04l-93.31-12.42c-4.76-9.44.69-18.77,11.87-15.3,4.96,1.54,4.52,7.74,9.34,6.69.91-11.37,8.37-26.37,21.91-24.12,6.32,1.05,8.25,5.39,9.91,10.83.09.3,1.1.13,1.1.19v11.17Z" fill="#fff"/>
  <path d="M219.06,476.5l-7.22,49.94-54.55-36.48c18.74-9.73,40.46-17,61.77-13.46Z" fill="#fff"/>
  <path d="M155.58,368.41c2.58,4.5,6.27,13.77,5.61,18.95-.72,5.63-10.85,17.88-12.51,24.34-8.85,2.59-20.78-1-28.57-5.53-3.22-1.87-15.47-10.55-9.88-13.82l14.47,7.22c.52-.45,1.16-.79,1.02-1.63-.17-1.01-15.03-7.99-17.13-11.14-.9-1.34-1.21-4.25.47-4.91,3.6-1.41,14.78,8.9,19.29,8.47,2.15-2.08-10.1-7.52-11.52-8.52-2.27-1.59-5.01-3.17-4.99-6.26.06-9.39,16.65,4.18,19.62,4.8,1.36.28,2.54.45,3.46-.86.06-1.67-13.26-7.03-14.45-8.54-3.27-4.14,2.2-4.49,5.14-3.84,4.44.98,15.24,8.88,18.22,8.81.95-.02,1.84-.02,2.19-1.13-.03-11.45.96-21.46,9.59-6.42Z" fill="#fff"/>
  <path d="M447.12,360.89l1.41,16.34c1.27,1.11,12.61-6.16,14.87-7.15s9.45-4.49,11.25-2.53c4.81,5.23-14.29,10.14-14.28,12.64,0,.21,1.04.98,1.32,1.36,4.81-.34,17.93-11.86,21.64-7.22,4.7,5.88-18.01,12.97-18.36,15.07-.12.72.47,1.37,1.07,1.58,3.2,1.11,15.46-9.55,19.95-8.85,2.8,1.27.14,5.15-1.28,6.63-2.36,2.46-15.36,7.54-15.13,9.84.39,3.95,14.1-6.13,15.76-6.25,3.83,4.39-12.26,14.36-15.32,15.9-6.72,3.39-15.24,5.72-22.83,4.82l-12.99-27.11c.78-4.28,1.55-9.09,2.96-13.19.95-2.77,5.68-14.54,9.96-11.88Z" fill="#fff"/>
  <path d="M52.73,547.15c.74-5.08,5.75-11.67,11-12.66,13.8-2.61,20.59,7.58,19.9,20.22,5.01-1.6,6.68-8.27,12.2-9.15,7.83-1.25,12.67,3.64,11.51,11.47l-73.91,11.4c-8.6-9.29.96-24.73,12.03-15.33,2.82,2.39,3.12,8.12,7.26,6.21.39-3.79-.54-8.51,0-12.16Z" fill="#fff"/>
  <path d="M184.83,391.13c.35.7-4.5,10.87-5.26,12.52-.27.58-1.18.75-1.64,1.77-6.23,13.92-11.16,28.21-16.02,42.54l-19.7-9.66c5.11-19.07,15.21-36.73,24.37-54.38,2.21-1.3,15.03,6.44,18.25,7.21Z" fill="#fff"/>
  <path d="M432.35,390.13c4.29,6.66,10.05,18.58,12.83,25.77,1.21,3.14,6.26,18.48,5.98,20.82-.39,3.21-14.05,8.03-16.81,10.22l-22.05-56.23,14.87-7.32c2.3.04,4.09,5.03,5.19,6.74Z" fill="#fff"/>
  <path d="M259.18,612.55c-.82,4.96.37,14.35-.66,18.73-.3,1.28-.36,1.34-1.64,1.64-2.43.57-10.1-.41-13.07-.74-7.5-.84-38.02-7.43-42.04-13l-.51-1.07c2.24-4.64,1.13-11.05,3.67-16.06,17.34,6.39,35.89,8.77,54.25,10.49Z" fill="#fff"/>
  <path d="M389.35,602.69c-.56,4.31,3.3,14.59,1.35,17.94-3.22,5.55-47.63,14.4-55.63,11.02l-.95-19.11c18.76-.53,37.41-4.18,55.23-9.86Z" fill="#fff"/>
  <path d="M422.22,496.87l-41.41,31.54-6.5-41.99c16.61-3.81,32.89,4.31,47.91,10.45Z" fill="#fff"/>
  <path d="M297.32,414.7c-1.17-5.08-.94-11.77-2.01-16.62-.1-.46-1.09-.45-1.23-.98-.57-2.19-.3-4.83-1.46-6.96-1.66-3.06-11.71-5.89-15.39-8.28-1.06-.69-6.03-5.06-6.2-5.75-1.7-6.67,4.12-3.97,3.93-10.05,10.06,2,20.32,3,30.59,2.66,2.86-.1,9.62-1.87,11.81-1.37.38.09,4.07,4.12,4.17,4.41.47,1.32.33,7.19-.51,8.48-1.97,3.02-14.39,5.72-17.04,8.6l-6.66,25.87Z" fill="#fff"/>
  <path d="M357.8,661.19v19.06c-10.31.22-21.43,6.12-26.63,15.1-1.51-4.75-5.79-6.01-8.74-9.66.69-5.11-1.13-12.31-.85-16.96.06-.95.04-1.86,1.13-2.2l35.08-5.35Z" fill="#fff"/>
  <path d="M275.62,666.44c-.76,5.38.61,17.98-2.62,22.04-1.28,1.61-4.71,2.41-4.63,5.57-3.96-5.62-12.11-12.81-19.02-14.17-2.44-.48-9.11.46-9.81-1.37-.31-.81-.82-16.86-.09-17.32l36.16,5.26Z" fill="#fff"/>
  <path d="M325.58,493.58c-19.04,3.93-39.28,4.62-58.41,1.22l.56-12.39c12.52,2.4,27.65,3.08,40.41,1.96,4.49-.39,12.55-3.22,15.94-3.16.81.01,1.03.27,1.5.87v11.5Z" fill="#fff"/>
  <path d="M389.36,709.83c.92-5.53-2.46-9.34-7.56-10.52,3.56,4.29,7.48,10.93.65,14.45-1.42-4.7-2.43-11.84-8.87-10.83,6.33,4.33,8.7,13.98-1.97,13.47,1.47-5.06-.04-9.96-5.64-11.12-.61-.13-3.62-.58-3.56.6,5.58-1.28,10.46,9.47,5.45,11.04-3.11.98-20.67-2.17-21.26-5.47-.43-2.4,3.21-8.36,4.97-10.16,6.49-6.65,20.58-9.46,29.42-7.74,5.78,1.12,14.79,11.18,8.38,16.28Z" fill="#fff"/>
  <path d="M230.4,715.57l.73-5.85,6.35-5.14c-5.94-.06-11.15,5.18-9.2,11.16-5.59.18-8.4-.12-6.78-6.45,1.08-4.2,4.1-3.85,5.46-7.34-3.79-.34-6.73,3.62-8.04,6.74-.67,1.6.21,4.43-1.48,4.42-6.3-3.57-1.89-9.41.97-13.79-4.57,1.03-7.89,5.07-7.89,9.85-5.66-4.65,3.05-13.89,7.71-14.98,11.43-2.68,34.47,3.54,34.92,17.8-1.08,3.35-20.43,6.01-22.74,3.58Z" fill="#fff"/>
  <path d="M387.17,293.97c8.9,11.04-4.29,36.84-19.54,29.71l1.43-28.85c4.52-6.58,13.11-7.06,18.11-.86ZM381.46,299.68c-3.54-.54-12.14,5.16-11.16,8.83s4.1-2.71,4.64-3.2c1.22-1.11,8.12-3.94,6.52-5.63Z" fill="#fff"/>
  <path d="M267.8,479.7c.15-1.99-.98-8.34,1-9.07,18.24.58,37.22,2.31,55.08-1.95,1.75.43,1.09,7.52.73,9.15-18.04,5.44-38.33,4.43-56.81,1.87Z" fill="#fff"/>
  <path d="M256.56,711.14c-3.37-15.4-19.78-19.88-33.54-20.7,12.96-10.95,34.26-10.97,42.74,5.24,5.92,11.32.27,11.44-9.21,15.46Z" fill="#fff"/>
  <path d="M376.2,690.12l-16.58,2.8c-8.25,3.38-14.51,8.88-15.64,18.22l-13.73-5.69c2.34-14.68,17.86-24.11,32.18-21.62,4.87.85,9.18,4.7,13.76,6.29Z" fill="#fff"/>
  <path d="M393.95,711.15c-.4,13.77-23.9,14.27-33.84,13.13-6.98-.8-36.63-9.84-40.1-15.12-1.13-1.72-1.12-3.28-1-5.24,17.39,7.99,37.36,19.2,57.21,14.8,6.36-1.41,11.69-5.45,17.73-7.57Z" fill="#fff"/>
  <path d="M278.9,702.6c.77,4.91-1.34,6.67-5.04,9.09-8.13,5.32-24.54,11.62-34.17,12.51-10.29.95-32.9.25-33.78-13.39l.98-.97c22.71,17.96,50.77,7.11,72-7.24Z" fill="#fff"/>
  <path d="M236.38,343.5c1.6,2.16,7.4,7.8,9.63,9.76,1.27,1.11,2.79,1.45,3.96,2.62-4.46,2.4-15.63-1.19-17.28-5.79-.54-1.49.51-3-.07-3.78-.47-.64-7.38-2.01-9.28-3.25-4.28-2.81-5.27-9.02-3.45-13.65l9.07-1.86c2.45,5.11,4.01,11.35,7.41,15.95Z" fill="#fff"/>
  <path d="M373.48,328.03c1.85,5.58.92,13-5.04,15.48-1.49.62-4.7.64-5.42,1.16-.9.66-.45,3.14-1.23,4.68-2.76,5.48-9.83,8.23-15.83,6.84,9.73-7.42,16.6-17.11,19.73-28.91l7.79.75Z" fill="#fff"/>
  <path d="M320.32,689.45c6.07.9,10.32,9.45,6.2,14.43-8.57-2.24-7.23-7.08-6.2-14.43Z" fill="#fff"/>
  <path d="M277.58,689.45c1.14,7.59,2.44,11.85-6.57,13.81-2.01-6.13.41-12,6.57-13.81Z" fill="#fff"/>
  <path d="M537.92,325.65c-.32-7.35-3.95-10.44-11.16-6.92,2.74-4.42,5.96-23.69.19-25.5-3.82-.98-7.07,1.12-10.05,3.15,4.41-9.04,4.24-36.76-11.18-23.66,5.75-23.9-12.35-39.47-19.08-9.21-7.99-10.04-25.38-23.43-19.67,1.46l8.5,13c-4.09-1.55-9.57.84-8.59,5.62,4.09,5.64,5.9,14.06,13.19,16.75l-.32,1.31c-16.44.19.1,20.31,7.56,23.01-1.28,1.17-3.55.57-5.45,1.44-.29.13-3,2.77-3.06,2.98-.87,3.22.92,3.21,1.21,4,3.29,8.92,6.6,13.2,15.27,17.46,6.51,3.2,12.15,3.75,19.05,5.44l4.55,38.01c3.23,5.09,2.69-4.16,2.61-6.55-.36-10.54-2.62-22.15-4.56-32.5,12.49-3.28,21.54-16.77,21-29.28ZM511.95,272.34c6.92-.4,4.18,17.49,2.05,21.82-1.21,2.47-7.46,9.97-10.05,10.7-2.07-.63-2.62-2.97-2.82-4.87-1.08-10.44,1.82-21.65,10.82-27.66ZM507.59,331.33s-.39-.08-.98-.2c.5.05.9.14.98.2ZM490.01,262.08c.13-.52,1.02-.57,1.17-1.06,2.16-6.89,6.26-18.7,10.86-4.97,1.36,4.06,2.02,8.06,1.02,12.92-.09.46-1.09.44-1.23.98-1.21,4.54-1.62,9.93-6.31,12.62-1-.15-3.51-9.36-4.09-10.98-.26-.74-1.35-.7-1.74-2.21-.62-2.41-.28-4.95.31-7.3ZM470.23,253.66c11.74,6.51,15.26,14.35,19.98,26.03.2.49,2.21,1.83,1.71,3.86-11.89-2.21-24.52-17.31-21.7-29.9ZM472.07,286.32c-.49-1.34-2.1-5.04-.12-5.64,3.82-1.16,17.08,6.49,19.98,9.46,3.55,3.64,5.57,9.68,7.22,14.45-.4,1.83-7.7-.71-9.19-1.3-6.96-2.75-15.24-9.77-17.88-16.96ZM476.14,304.93c9.84-1.16,18.4,3.62,24.72,10.8,3.01,3.41,5.46,6.67,5.52,11.55-12.22.87-28.77-9.58-30.25-22.34ZM482.77,329.32c12.99-2.69,29.59,8.02,29.53,22.28-12.96-.69-27.87-8.12-29.53-22.28ZM510.64,331.19l.19-.09c-.16.77.05,1.01-.19.09ZM509.67,327.28c-1.04-5.54-1-10.74.62-16.14,1.13-3.76,11.88-18.42,15.65-14.59,6.84,6.96-5.48,31.33-16.27,30.73ZM516.25,351.6c-1.19-7.14-.46-13.9,2.94-20.39,2-3.81,13.2-16.5,14.76-7.5,2.04,11.74-5.76,25.48-17.7,27.89Z"/>
  <path d="M124.05,278l-5.58-.36c5.29-5.15,11.93-16.49,9.57-24.01-2.81-8.97-17.63,7.4-20.73,9.89-5.01-32.13-24.05-13.04-18.42,9.2l-7.4-3.83c-8.7,4.8-5.87,18.19-3.77,26.18-1.83,1.41-8.49-7.41-11.86,2.28-2.38,6.82-1.33,15.39,2.66,21.38-16.58-7.53-12.67,17.07-7.77,25.19,1.58,2.62,7.01,7.11,9.8,8.61,2.32,1.24,4.49,2.25,7.18,2.36-1.09,5.25-1.24,10.65-2.02,15.94-.08.54-1.17.28-1.32,1.44-1.06,8.15-1.34,16.48-1.26,24.69l3.19-1.08,4.05-40.32c8.26-.32,16-2.3,22.65-7.26,7-5.22,21.15-22.64,3.63-23.32,7.38-4.2,26.27-23.14,7.23-24.32,4.56-1.97,19.48-20.63,10.17-22.66ZM125.05,254.32c.63,5.02-1.06,9.93-3.53,14.21-3.83,6.64-11.39,13.16-18.82,15.36,3.4-12.52,9.86-24.45,22.35-29.57ZM91.98,257.74c4.11-17.19,12.48-1.78,12.7,7.47.14,5.99-3.77,11.48-4.62,17.38-8.41-4.05-10.09-16.44-8.08-24.85ZM79.8,275.13c2.18-3.51,3.36-2.66,6.18-.81,7.44,4.88,9.78,22.73,4.52,29.95-9.72-2.58-15.39-21.59-10.7-29.14ZM84.29,304.94l.68.31c-.47-.14-.75-.25-.68-.31ZM70.46,296.02c12.1,4.15,15.72,19.18,13.16,30.6-12.38-3.02-21.37-19.53-13.16-30.6ZM77.95,351.65c-13.9-2.61-21.52-17.94-16.88-30.98,6.64-.28,10.54,6.06,13.59,10.98.32.51,1.35.68,2.09,2.17,2.4,4.86,3.92,12.84,1.2,17.82ZM110.17,328.69c2.06.81.88,4.75.18,6.23-.15.31-3.55,4.98-4.01,5.52-6.49,7.72-15.3,11.31-25.33,11.81,2.31-14.51,14.85-23.68,29.16-23.56ZM118.45,304.96c-1.97,13.32-18.28,22.35-30.87,22.32,2.06-13.97,17.18-24.33,30.87-22.32ZM94.81,304.93c1.91-14.07,14.5-22.45,27.89-24.23l1.02,1.5c-.65,2.04-1.13,4.19-2.2,6.06-4.47,7.83-17.39,16.87-26.71,16.67Z"/>
  <path d="M132.54,63.45c1.21,2.13,2.44,4.24,3.36,6.81,7.09-7.52,20.1-7.32,27.63-.66,4.76,4.22,8.3,10.56,7.55,17.1,25.83-6.31,33.86,30.92,6.26,33.55-47.43-2.15-97.55,3.81-144.69.66-7.41-.49-11.97-.88-16.08-7.63,1.59-6.35,6.26-12.44,13.11-13.79,1.99-.39,7.52.15,8.3-.93-3.02-19.47,18.95-33.06,35.78-23.03-1.34-29.31,38.27-38.79,55.5-17.68,1.38,1.69,2.21,3.74,3.27,5.61ZM77.72,67.98c-.6,3.9.44,9.07,0,13.15l-1.31.67c-16.73-15.09-39.94-.75-33.54,21.35-.84.84-15.48-4.13-20.4,5.57-4.18,8.25,3.67,9.09,10.17,9.58,46.3,3.46,96.67-2.71,143.34-.71,18.76.65,19.27-28.05,1.34-28.3-4.24-.06-7.2,2.51-10.57,1.38-1.06-1.77,1.78-5.3,1.7-5.59-.16-.58-1.15-.12-1.32-.78-.59-2.41-.25-4.16-1.51-6.93-4.38-9.69-18.91-12.37-26.7-5.37-1.49,1.34-4.53,8.07-6.65,5.2-.72-11.92-6.14-22.29-18.05-26-13.23-4.12-34.09.96-36.51,16.79Z"/>
  <path d="M355.34,82.26c-9.3-4.01-22.23-4.58-32.23-6.55-.27-.12-.44-.15-.54-.1-1.92-3.25-5.82-9.82-6.1-10.33-4.6-8.34-11.09-29.16-25.03-20.26-2.63,1.67-8.26,9.77-9.8,12.52-1.56,2.77-7.14,17.23-8.44,18.05-8.27,1.45-35.86,3.65-39.93,11.18-.8,1.49-1.23,3.1-1.03,4.81,4.84,11.57,17.04,17.64,24.8,27.09-.59,12.78-14.04,46.24,10.54,39.88,10.57-2.74,19.97-10.46,30.06-14.38,18.49,9.5,49.53,33.01,43.69-7.67-.06-.39-2.46-13.52-3.42-18.78,8.37-7.19,36.76-27.09,17.42-35.43ZM334.71,117.25c-.77,9.21,6.74,27.19,3.18,35.33-3.12,7.15-17.16.51-22.09-1.87-3.79-1.84-14.98-9.92-18.15-9.99-3.28-.08-20.11,10.69-25.35,12.68-15.7,5.99-16.56,3.56-15.79-12.5.34-7.06,2.58-12.49,3.93-18.54.17-.77.48-4.66.27-5.26-.33-.96-11.95-10.83-13.72-12.64-1.87-1.9-10.06-10.13-10.86-11.66-.7-1.34-.8-2.55-.21-3.96,2.76-6.56,33.2-8.08,39.66-11.03l13.4-25.38c1.8-2.84,5.92-6.89,9.62-6.21,1.88.35,6.54,4.3,7.69,5.85,5.09,6.88,8.09,18.97,13.67,26.11,10.19,2.9,21.14,2.94,31.24,6.23,10.5,3.41,9.34,7.08,2.63,14.45-3.27,3.59-18.08,15.31-19.13,18.4ZM337.59,116.41c-.02-.1-.04-.21-.07-.32.02-.02.04.12.07.32Z"/>
  <path d="M525.06,176.5c.45,1.03,2.18,2.39,1.84,4.72,25.26,6.37,26.2,15.61,3.48,27.74,1.29,27.71-9.38,26.64-26.97,11.17-5.84,2.05-24.75,9.2-25.91-1.04-.8-7.08,4.31-12.16,5.22-18.94-2.91-6.31-10.08-10.63-9.22-18.47,1.05-9.63,20.01-3.86,24.35-5.91.74-.35,8.78-10,11.17-11.84,11.24-8.67,12.77,5.06,16.06,12.56ZM525.89,225.2c1.95-4.54.88-13.24,1.87-18.19,3.39-3.12,16.51-8.82,15.92-14.06-.51-4.48-16.19-7.31-19.86-9.64-1.54-3.4-3.7-15.86-6.54-17.78-6.37-4.3-13.73,11.39-18.6,13.71-7.2.81-14.88-1.22-21.73,1.61-3.72,3.59,9.24,15.21,9.43,19.23.22,4.8-7.6,14.58-3.71,21.08,7.5,1.38,14.18-3.36,21.35-4.3,4.55,1.89,18.04,17.26,21.88,8.33Z"/>
  <path d="M97.73,173.2c.75.74,1.49,1.44,2.18,2.23,5.58.46,22.51-2.25,22.57,6.24.03,4.33-6.9,11.89-9.1,15.9,2.93,9.14,11.09,22.83-5.1,21.92-3.66-.21-12.18-3.68-14.31-3.19-.69.16-8.79,6.84-11.65,8.08-14.13,6.13-12.67-9.16-12.13-18.7-3.51-4-13.06-6.53-14.03-12.35-1.31-7.85,14.16-10.99,19.45-13.45.4-3.97,3.36-14.71,7.34-15.98,7.77-2.49,10.6,5.19,14.78,9.29ZM117.72,180.14c-6.21-2.72-13.24-.77-19.82-1.54-11.6-16.62-16.11-15.12-20.33,4.58-3.27,1.19-18.28,5.03-18.28,9.02,2.99,5.57,9.97,7.09,14.03,11.69.05,3.42-.91,15.83,1.27,18.06,4.45,4.56,15.66-8.65,19.3-9.03,4.95-.52,13.76,5.89,20.03,2.99,2.8-1.97-3.15-15.69-4.71-18.43,2.32-3.03,10.69-13.75,8.51-17.33Z"/>
  <path d="M432.35,135.1c1.82,3.11,2.73,5.72,4.37,9.1,3.93,1.24,16.13,3.86,17.06,8.6,1.55,7.95-11.38,12.59-12.34,15.89-2.06,7.09,4.6,21.87-9.89,18.15-3.58-.92-11.12-7.37-13.59-7.4-1.61-.02-8.56,4.09-11.9,4.49-15.48,1.86-10.06-12.04-6.83-21.17-15.33-15.44-9.66-22.57,11.37-20.95,6.15-8.24,13.33-21.06,21.74-6.71ZM432.33,144.31c-1.53-2.69-2.96-12.35-7.15-12.32-4.48.03-10.06,10.04-12.6,13.1-3.67.71-15.73-1.12-18.04,1.7-3.49,4.24,8.08,13.04,8.5,15.98.39,2.7-5.94,15.29-2.55,17.65,4.78,2.88,15.62-5.37,18.69-4.82,3.22.58,14.05,12.33,18.51,7.74,2.08-2.14.58-13.33.43-16.61.7-2.57,12.68-7.25,12.26-12.51-.39-4.87-15.14-4.8-18.04-9.91Z"/>
  <path d="M190.28,145.06c4.35.21,19.01.61,20.61,5.37.8,6.29-4.8,13.18-9.59,16.93,2.18,5.67,4.92,11.26,2.6,17.56-6.47,4.85-14.72.23-21.22-2.14-14.81,11.6-25.26,11.54-21.58-10.8-3.48-4.83-15.5-8.26-11.9-16.11,2.43-5.29,14.8-5.49,17.11-7.53.91-.8,3.63-8.32,4.73-10.07,6.91-11.03,15.55-1.12,19.23,6.78ZM176.81,136.8c-4.57,1.38-5.76,12.87-7.36,14.35-.69.64-11.38,2.75-14.16,4.25-10.07,5.43,6.86,10.28,8.64,14.43-2.53,33.58,9.61,10.13,18.7,9.57,2.82-.17,16.16,7.84,17.92,2.84s-3.8-12.81-2.9-16.03c.72-2.6,11.29-8.93,9.96-14.42-1.74-3.67-16.28-2.06-19.45-3.61-2.24-1.09-4.81-13.35-11.35-11.38Z"/>
  <path d="M146.09,745.98c-6.05,3.58-4.07-13.71-3.16-15.97.49-1.21,2.38-2.31,3.16-.79v16.76Z"/>
  <path d="M512.29,776.87c-1.98,2.02-4.95-7.88-6.02-9.42-2.17-3.09-6.22-4.11-6.46-7.67,5.95-2.75,14.53,15,12.48,17.08Z"/>
  <path d="M52.49,780.4c-.84-1.6-7.77-8.57-6.32-10.1,5.3-.13,12.52,12.72,10.21,16.45-1.99,3.21-3.44-5.52-3.88-6.36Z"/>
  <path d="M63.51,658.31c-.95-1.37-1.74-2.79-2.86-4.06-1.47-1.68-4.41-2.13-3.97-4.9,7.18,1.08,12.35,8.8,12.78,15.8l-1.93.62c-.66-3.69-2.31-5-4.02-7.47Z"/>
  <path d="M451.81,703.25c-1.93,1.96-4.86-7.92-6.01-9.43-.55-.73-8.38-6.08-4.82-7,4.22-1.08,12.64,11.95,10.83,16.43Z"/>
  <path d="M511.64,652.65l-2.03-.4c-.93-3.54-2.52-7.3-4.85-10.15-.91-1.11-6.53-4.09-4.31-5.57,4.68-3.11,12.59,12.08,11.19,16.12Z"/>
  <path d="M133.37,742.91c-1.52-1.93-3.78-4.39-5.56-6.12-1.57-1.53-5.35-2.03-2.39-4.61,4.02.54,13.33,10.39,12.07,14.03s-3.46-2.45-4.12-3.3Z"/>
  <path d="M124.39,591.52c.73.47,2.47,15.39.33,17.09-2.64.16-2.9-8.05-2.97-10.17-.04-1.2-.6-9,2.64-6.92Z"/>
  <path d="M220.14,786.32c1.63,1.54,8.2,10.23,6.16,12.25-3.97.66-4.15-4.32-6.16-7.31-1.44-2.15-3.34-3.61-4.91-5.62-.94-3.89,3.55-.6,4.91.69Z"/>
  <path d="M364.14,779.72c.74,1.38,1.79,6.12-.74,5.69-1.51-.25-5.82-12.28-10.08-11.94l-.11-2.51c1.59-.23,2.6.23,3.91,1.01.78.47,6.66,7.05,7.03,7.75Z"/>
  <path d="M76.31,664.37h-2.45c-.08-2.73-1.62-16.77,2.85-15.67,1.52,1.43.26,15.22-.4,15.67Z"/>
  <path d="M138.86,593.49c1.44,1.5-5.42,8-6.52,9.72-.71,1.11-.33,4.88-3,4.08-3.68-1.11,5-15.2,9.52-13.79Z"/>
  <path d="M373.25,767.67c1.28-.27,1.64,1.23,1.66,2.26.04,1.88-1.38,15.32-3.63,14.82-2.45-1.97-.11-16.64,1.97-17.08Z"/>
  <path d="M232.86,780.16c.63.59,1.1,16.02.36,17.1-.62.9-1.38.67-2.31.64l-.59-17.67,2.54-.07Z"/>
  <path d="M161.87,731.52c1.19,1.19-5.79,7.92-6.57,9.05-.92,1.33-1.71,6.37-3.6,5.4-2.55-1.3,1.87-8.65,3.05-10.08.81-.97,6.05-5.44,7.13-4.37Z"/>
  <path d="M456.79,601.78c-.46.56-2.6,2.92-3.36,1.59-2.97-4,7.16-12.58,9.54-11.56,3.32,1.42-1.79,3.59-2.97,4.94-1.38,1.59-2.05,3.61-3.22,5.03Z"/>
  <path d="M66.54,770.96c-1.2,3.59-.83,11.77-1.96,14.64-.33.83-1.8,1.07-2.63,1.14-.77-.49-1.12-17.58,4.59-15.77Z"/>
  <path d="M457.07,692.41c.28-2.05,1.41-5.23,3.94-4.93.67.39-.88,14.08-1.46,15.3-.64,1.37-1.11,1.23-2.48,1.13.35-3.62-.47-7.99,0-11.5Z"/>
  <path d="M522.49,757.83c.76.02.98,1.45.96,2.22-.03.9-2.76,16.11-3.59,16.15-3.34-2.2-.38-18.44,2.63-18.37Z"/>
  <path d="M467.96,699.68c-1.56,1.65-2.41,4.93-4.66,2.92-.68-.95,1.33-4.95,2.02-5.88,1.29-1.73,10.3-8.23,9.49-3.66-.08.47-5.63,5.32-6.86,6.62Z"/>
  <path d="M81,776.22c1.74,1.81-5.44,6.59-6.83,7.95-.96.93-2.77,5.91-4.67,3.22-1.65-2.33,8.03-12.44,11.51-11.17Z"/>
  <path d="M527.28,652.49c-.47.27-2.38.25-2.48.15-1.52-1.52,8.49-16.3,12.49-12.16,1.26,1.31-4.05,3.44-5.25,4.62-1.36,1.34-4.38,7.17-4.76,7.39Z"/>
  <path d="M451.15,587.57c-.75,1.79-.52,16.44-3.6,15.77-2.7-1.67.05-19.17,3.6-15.77Z"/>
  <path d="M537.28,764.39c.94,1.3-4.4,5.24-5.59,6.56-1.75,1.94-2.73,5.5-5.58,5.92-1.9-2.17,6.76-15.13,11.17-12.48Z"/>
  <path d="M249.31,786.09l-6.2,6.61c-1.63,1.96-1.71,6.35-4.97,5.87-1.72-1.7,6.36-16.23,11.17-12.47Z"/>
  <path d="M119.13,609.91c-1.68,1.72-7.28-9.76-10.88-9.16.18-8.29,13.48,6.49,10.88,9.16Z"/>
  <path d="M390.01,772.93c1.41,1.44-4.47,4.73-5.61,5.89-2.32,2.36-3.12,6.52-6.88,5.93-1.36-1.26,8.5-13.98,12.48-11.82Z"/>
  <path d="M440.65,602.69c-.95-3.01-3.07-6.7-4.99-9.15-1-1.28-6.26-4.53-3.23-5.31,3.21-.82,10.32,10.37,10.15,12.86-.07,1.12-.8,1.79-1.94,1.6Z"/>
  <path d="M522.16,634.9c-1.27,4.07-.92,12.56-2.08,15.98-.29.87-.93,1.28-1.85,1.1-1.57-1.89.55-20.5,3.94-17.08Z"/>
  <path d="M88.73,654.11c.38-.05.73-.27,1.13-.15,3.67.9-4.1,5.95-4.93,6.89-1.27,1.44-1.46,3.61-2.95,4.93-3.62.17,1.52-10.97,6.74-11.67Z"/>
  <path d="M318.09,330.97c-9.9,18.97-38.26,13.39-39.1-7.85.3-.82.66-1.02,1.51-1.08,1.91-.13,13.74,4.25,18.43,4.61,3.03.23,8.16.26,11.12-.1,4.8-.58,13.83-6.68,8.04,4.42ZM307.17,336.49l-22.35-5.26c2.22,5.44,10.36,8.97,15.91,8.39.66-.07,7.92-1.93,6.44-3.13Z"/>
  <path d="M268.85,281.41c15.04-3.49,9,26.42-2.46,17.29-5.11-4.07-4.03-15.79,2.46-17.29Z"/>
  <path d="M330.67,281.42c12.6-2.18,11.45,21.5.15,18.6-7.21-1.85-8.17-17.21-.15-18.6Z"/>
  <path d="M278.74,265.97c-1.49,1.65-8.68,1.78-11.54,2.61-2.38.7-13.94,7.72-10.83-.27.83-2.14,11.25-8.26,13.83-8.6,3.63-.48,12.01,2.43,8.54,6.25Z"/>
  <path d="M324.74,260.38c4.88-1.18,14.84,1.27,18.29,5.09,1.46,1.62,3.63,5.03.79,6.12l-21.14-5.49c-2.3-1.73-.56-5.09,2.06-5.72Z"/>
  <path d="M301.25,314.13l.11-2.52c16.04-.73,9.31-11.83,1.22-18.2,1.67-4.9,8.64,4.07,9.75,6.04,5.42,9.59-1.29,15.74-11.07,14.68Z"/>
  <path d="M224.6,306.66c.27.38,1.59-.06,1.04,1.55-3.95,2.14-4.51-2.22-7.51-3.33-2.26-.84-8.61.26-7.6-2.9,1.31-4.13,11.89,1.53,14.07,4.68Z"/>
  <path d="M381.46,299.68c1.6,1.69-5.31,4.53-6.52,5.63-.54.49-3.65,6.95-4.64,3.2s7.63-9.37,11.16-8.83Z"/>
  <path d="M512.3,351.6c-12.96-.69-27.87-8.12-29.53-22.28,12.99-2.69,29.59,8.02,29.53,22.28Z" fill="#fff"/>
  <path d="M525.94,296.55c6.84,6.96-5.48,31.33-16.27,30.73-1.04-5.54-1-10.74.62-16.14,1.13-3.76,11.88-18.42,15.65-14.59Z" fill="#fff"/>
  <path d="M516.25,351.6c-1.19-7.14-.46-13.9,2.94-20.39,2-3.81,13.2-16.5,14.76-7.5,2.04,11.74-5.76,25.48-17.7,27.89Z" fill="#fff"/>
  <path d="M500.86,315.73c3.01,3.41,5.46,6.67,5.52,11.55-12.22.87-28.77-9.58-30.25-22.34,9.84-1.16,18.4,3.62,24.72,10.8Z" fill="#fff"/>
  <path d="M514.01,294.16c-1.21,2.47-7.46,9.97-10.05,10.7-2.07-.63-2.62-2.97-2.82-4.87-1.08-10.44,1.82-21.65,10.82-27.66,6.92-.4,4.18,17.49,2.05,21.82Z" fill="#fff"/>
  <path d="M471.95,280.67c3.82-1.16,17.08,6.49,19.98,9.46,3.55,3.64,5.57,9.68,7.22,14.45-.4,1.83-7.7-.71-9.19-1.3-6.96-2.75-15.24-9.77-17.88-16.96-.49-1.34-2.1-5.04-.12-5.64Z" fill="#fff"/>
  <path d="M502.04,256.05c1.36,4.06,2.02,8.06,1.02,12.92-.09.46-1.09.44-1.23.98-1.21,4.54-1.62,9.93-6.31,12.62-1-.15-3.51-9.36-4.09-10.98-.26-.74-1.35-.7-1.74-2.21-.62-2.41-.28-4.95.31-7.3.13-.52,1.02-.57,1.17-1.06,2.16-6.89,6.26-18.7,10.86-4.97Z" fill="#fff"/>
  <path d="M490.21,279.7c.2.49,2.21,1.83,1.71,3.86-11.89-2.21-24.52-17.31-21.7-29.9,11.74,6.51,15.26,14.35,19.98,26.03Z" fill="#fff"/>
  <path d="M74.66,331.66c.32.51,1.35.68,2.09,2.17,2.4,4.86,3.92,12.84,1.2,17.82-13.9-2.61-21.52-17.94-16.88-30.98,6.64-.28,10.54,6.06,13.59,10.98Z" fill="#fff"/>
  <path d="M110.34,334.92c-.15.31-3.55,4.98-4.01,5.52-6.49,7.72-15.3,11.31-25.33,11.81,2.31-14.51,14.85-23.68,29.16-23.56,2.06.81.88,4.75.18,6.23Z" fill="#fff"/>
  <path d="M118.45,304.96c-1.97,13.32-18.28,22.35-30.87,22.32,2.06-13.97,17.18-24.33,30.87-22.32Z" fill="#fff"/>
  <path d="M83.63,326.62c-12.38-3.02-21.37-19.53-13.16-30.6,12.1,4.15,15.72,19.18,13.16,30.6Z" fill="#fff"/>
  <path d="M85.98,274.32c7.44,4.88,9.78,22.73,4.52,29.95-9.72-2.58-15.39-21.59-10.7-29.14,2.18-3.51,3.36-2.66,6.18-.81Z" fill="#fff"/>
  <path d="M121.52,288.26c-4.47,7.83-17.39,16.87-26.71,16.67,1.91-14.07,14.5-22.45,27.89-24.23l1.02,1.5c-.65,2.04-1.13,4.19-2.2,6.06Z" fill="#fff"/>
  <path d="M100.06,282.58c-8.41-4.05-10.09-16.44-8.08-24.85,4.11-17.19,12.48-1.78,12.7,7.47.14,5.99-3.77,11.48-4.62,17.38Z" fill="#fff"/>
  <path d="M121.52,268.53c-3.83,6.64-11.39,13.16-18.82,15.36,3.4-12.52,9.86-24.45,22.35-29.57.63,5.02-1.06,9.93-3.53,14.21Z" fill="#fff"/>
  <path d="M92.18,310.84"/>
  <path d="M77.72,67.98c2.43-15.82,23.28-20.9,36.51-16.79,11.91,3.71,17.33,14.08,18.05,26,2.12,2.88,5.16-3.86,6.65-5.2,7.8-7,22.32-4.32,26.7,5.37,1.25,2.77.92,4.51,1.51,6.93.16.66,1.15.2,1.32.78.08.29-2.76,3.82-1.7,5.59,3.37,1.14,6.33-1.44,10.57-1.38,17.93.25,17.42,28.95-1.34,28.3-46.67-2.01-97.04,4.16-143.34.71-6.5-.49-14.36-1.33-10.17-9.58,4.92-9.7,19.56-4.73,20.4-5.57-6.4-22.1,16.81-36.44,33.54-21.35l1.31-.67c.44-4.07-.6-9.24,0-13.15Z" fill="#fff"/>
  <path d="M306.3,52.08c5.09,6.88,8.09,18.97,13.67,26.11,10.19,2.9,21.14,2.94,31.24,6.23s9.34,7.08,2.63,14.45c-3.27,3.59-18.08,15.31-19.13,18.4-.77,9.21,6.74,27.19,3.18,35.33-3.12,7.15-17.16.51-22.09-1.87-3.79-1.84-14.98-9.92-18.15-9.99s-20.11,10.69-25.35,12.68c-15.7,5.99-16.56,3.56-15.79-12.5.34-7.06,2.58-12.49,3.93-18.54.17-.77.48-4.66.27-5.26-.33-.96-11.95-10.83-13.72-12.64-1.87-1.9-10.06-10.13-10.86-11.66-.7-1.34-.8-2.55-.21-3.96,2.76-6.56,33.2-8.08,39.66-11.03l13.4-25.38c1.8-2.84,5.92-6.89,9.62-6.21,1.88.35,6.54,4.3,7.69,5.85ZM283.26,101.59c1.73-3.6,1.65-7.43-2.89-8.19-6.06-1.02-6.59,10.37-.52,11.09.69.03,3.29-2.66,3.41-2.9ZM312.65,103.58c5.38,6.09,11.57-9,2.56-10.19-5.2-.69-5.09,7.34-2.56,10.19ZM286.56,109.13c-4.95,4.03,7.12,7.77,10.46,7.82,2.87.04,12.33-2.6,12.13-6.29-.23-4.26-6.14,1.02-7.19,1.39-4.8,1.67-11.43.08-15.39-2.92Z" fill="#fff"/>
  <path d="M525.89,225.2c-3.84,8.94-17.33-6.44-21.88-8.33-7.17.94-13.85,5.68-21.35,4.3-3.89-6.5,3.93-16.27,3.71-21.08-.19-4.01-13.14-15.64-9.43-19.23,6.85-2.82,14.52-.8,21.73-1.61,4.87-2.32,12.23-18.02,18.6-13.71,2.84,1.92,5,14.38,6.54,17.78,3.67,2.33,19.36,5.16,19.86,9.64.59,5.24-12.54,10.94-15.92,14.06-.99,4.95.08,13.65-1.87,18.19ZM497,188.05c-3.34.94-3.46,7.59-.17,7.74,3.05.15,6.19-5.45,2.97-7.54-.9-.47-1.84-.47-2.8-.2ZM519.35,191.99c-2.58.8-2.59,6.19,0,7,5.45,1.72,5.82-8.81,0-7ZM501.76,199.13c-5.82,2.3,2.9,6.38,5.66,6.5,2.11.09,4.54-1.48,6.81-1.31,1.01-5.4-3.9-1.02-6.78-1.27-1.4-.12-5.56-2.23-5.69-3.92Z" fill="#fff"/>
  <path d="M117.72,180.14c2.18,3.59-6.19,14.3-8.51,17.33,1.56,2.74,7.51,16.46,4.71,18.43-6.27,2.9-15.08-3.51-20.03-2.99-3.64.38-14.85,13.59-19.3,9.03-2.18-2.23-1.21-14.64-1.27-18.06-4.05-4.6-11.04-6.12-14.03-11.69,0-3.99,15.01-7.83,18.28-9.02,4.22-19.7,8.73-21.2,20.33-4.58,6.58.77,13.61-1.18,19.82,1.54ZM97.6,191.07c.78,1.59,5.07,3.17,5.78-.2,1.31-6.2-8.5-5.39-5.78.2ZM78.46,197.04c3.44,2,5.79-5.33,2.07-6.38-4.28-1.21-3.61,5.48-2.07,6.38ZM97.73,198.19c-.47-.45-.96-1.61-1.26-1.69-1.15-.28-2.58,3.32-4.1,3.78-.7.21-12.72-1.05-6.59,2.32,4.75,2.61,9.63-.21,12.97-3.51.24-.95-.57-.48-1.02-.9Z" fill="#fff"/>
  <path d="M432.33,144.31c2.9,5.1,17.65,5.03,18.04,9.91.42,5.26-11.56,9.95-12.26,12.51.15,3.28,1.65,14.47-.43,16.61-4.46,4.58-15.29-7.17-18.51-7.74s-13.91,7.71-18.69,4.82c-3.39-2.35,2.94-14.94,2.55-17.65-.42-2.94-11.99-11.74-8.5-15.98,2.31-2.81,14.37-.99,18.04-1.7,2.54-3.06,8.12-13.07,12.6-13.1,4.19-.03,5.62,9.63,7.15,12.32ZM409.24,157.53c1.85,1.89,6.02.32,4.97-3.3-1.51-5.19-8.63-.44-4.97,3.3ZM430.58,153.85c-2.39.57-2.63,5.51,0,6.36,5.37,1.72,4.43-7.41,0-6.36ZM427.48,162.96c-2.53.07-5.01,1.07-7.59.69-1.88-.28-5.04-4.23-5.56-1.66-.9,4.45,9.97,7.24,13.03,3.48l.12-2.51Z" fill="#fff"/>
  <path d="M176.81,136.8c6.53-1.96,9.1,10.29,11.35,11.38,3.17,1.54,17.71-.07,19.45,3.61,1.33,5.5-9.23,11.82-9.96,14.42-.9,3.22,4.7,10.91,2.9,16.03s-15.1-3.02-17.92-2.84c-9.08.56-21.23,24.01-18.7-9.57-1.77-4.16-18.71-9-8.64-14.43,2.78-1.5,13.47-3.61,14.16-4.25,1.6-1.48,2.79-12.97,7.36-14.35ZM187.61,161.54c4.79,2.97,7.58-6.68,1.59-5.83-3,.43-2.75,5.11-1.59,5.83ZM170.88,157.77c-3.53.83-1.59,9.22,2.19,5.55,2.53-2.46.22-6.11-2.19-5.55ZM187.51,164.93c-5.01,1.74-6.98,3.39-12.48,1.31-.88,6.58,13.53,4.81,12.48-1.31Z" fill="#fff"/>
  <path d="M307.17,336.49c1.48,1.2-5.77,3.06-6.44,3.13-5.55.58-13.69-2.95-15.91-8.39l22.35,5.26Z" fill="#fff"/>
  <path d="M286.56,109.13c3.97,3,10.59,4.58,15.39,2.92,1.05-.36,6.96-5.64,7.19-1.39.2,3.69-9.26,6.33-12.13,6.29-3.34-.05-15.41-3.79-10.46-7.82Z"/>
  <path d="M312.65,103.58c-2.52-2.86-2.63-10.88,2.56-10.19,9,1.19,2.82,16.28-2.56,10.19Z"/>
  <path d="M283.26,101.59c-.12.24-2.72,2.94-3.41,2.9-6.07-.72-5.54-12.11.52-11.09,4.54.76,4.62,4.59,2.89,8.19Z"/>
  <path d="M497,188.05c.96-.27,1.9-.27,2.8.2,3.21,2.09.08,7.69-2.97,7.54-3.29-.16-3.17-6.8.17-7.74Z"/>
  <path d="M501.76,199.13c.13,1.68,4.29,3.79,5.69,3.92,2.89.26,7.79-4.13,6.78,1.27-2.27-.17-4.7,1.4-6.81,1.31-2.76-.12-11.48-4.2-5.66-6.5Z"/>
  <path d="M519.35,191.99c5.81-1.81,5.44,8.72,0,7-2.58-.81-2.57-6.2,0-7Z"/>
  <path d="M97.73,198.19c.44.42,1.25-.05,1.02.9-3.34,3.3-8.23,6.11-12.97,3.51-6.13-3.37,5.89-2.11,6.59-2.32,1.52-.46,2.95-4.06,4.1-3.78.31.08.79,1.24,1.26,1.69Z"/>
  <path d="M97.6,191.07c-2.72-5.59,7.09-6.4,5.78-.2-.71,3.37-5.01,1.79-5.78.2Z"/>
  <path d="M78.46,197.04c-1.53-.89-2.21-7.58,2.07-6.38,3.72,1.05,1.37,8.38-2.07,6.38Z"/>
  <path d="M427.48,162.96l-.12,2.51c-3.05,3.76-13.93.97-13.03-3.48.52-2.57,3.67,1.39,5.56,1.66,2.58.38,5.06-.62,7.59-.69Z"/>
  <path d="M409.24,157.53c-3.66-3.74,3.46-8.49,4.97-3.3,1.05,3.62-3.12,5.18-4.97,3.3Z"/>
  <path d="M430.58,153.85c4.43-1.05,5.38,8.08,0,6.36-2.63-.84-2.39-5.79,0-6.36Z"/>
  <path d="M187.51,164.93c1.05,6.13-13.37,7.9-12.48,1.31,5.51,2.08,7.48.42,12.48-1.31Z"/>
  <path d="M187.61,161.54c-1.16-.72-1.42-5.4,1.59-5.83,5.99-.86,3.2,8.79-1.59,5.83Z"/>
  <path d="M170.88,157.77c2.41-.56,4.73,3.09,2.19,5.55-3.78,3.67-5.72-4.72-2.19-5.55Z"/>
</svg>