<?xml version="1.0" encoding="UTF-8"?>
<svg id="Camada_1" xmlns="http://www.w3.org/2000/svg" version="1.1" viewBox="0 0 595.28 841.89">
  <!-- Generator: Adobe Illustrator 29.0.0, SVG Export Plug-In . SVG Version: 2.1.0 Build 186)  -->
  <path d="M.14,841.29V-.06h595v841.34H.14ZM591.19,3.23H3.43v51.93c8.82-6.16,18.94-7.44,28.26-1.32,5.11-32.14,59.78-31.85,64.45.66,13.61-6.26,31.6-.09,31.55,16.43,9.62-2.51,26.59,2.87,22.5,15.6-1.77,5.52-12.64,6.75-17.59,7.39l-129.18.67v95.97c9.78-1.85,19.22-3.36,29.28-2.65,28.4,2,52.04,19.32,75.09,34.08,10.62-3.42,22.16-8.17,33.38-9.07,38.51-3.08,71.24,20.99,102.6,39.41,3.75.41,12.15-4.78,16.06-6.23,10.75-4,24.4-8.72,35.84-9.52,31.92-2.22,63.6,20.26,88.06,38.13l8.03-10.19c-8.79-14-.72-31.73,12.51-39.65,4.69-2.81,9.85-3.85,15.02-5.36.85-13.71,9.82-25.75,22.2-31.7,9.04-4.35,19.73-5.26,29.37-2.5,8.56-30.43,54.81-38.29,73.43-13.11,15.34-7.43,33.38-5.83,46.9,4.56v-55.21l-165.25-.9c-23.92-6.29,1.1-21.14,13.09-20.78-3.72-23.79,24.47-37.39,44.33-28.29-1.05-14.9,10.5-28.3,23.69-33.83,18.91-7.93,40.97-3.24,52.32,14.17,9.85-7.4,18.89-12.84,31.82-12.54V3.23ZM3.43,59.76v31.55l126.58-.63c5.63-.45,23.48-2.24,16.54-11.66-4.62-6.26-15.55-5.3-22.18-4.43-.57-3.94.62-5.98-1.1-10.05-4.21-9.95-16.04-11.29-24.73-6.64-2.09,1.12-2.73,4.31-5.6,2.41,1.62-24.31-29.06-34.25-47.37-22.51-8.34,5.35-8.6,12.74-11.59,21.3-7-4.39-15.4-8.48-23.8-4.75-.47.21-6.61,5-6.75,5.41ZM487.31,66c-.41,3.01.3,6.74,0,9.86l-1.51.89c-18.86-12.5-49.61,1.42-43.47,25.76-.78,1.06-6.34.52-8.32.92-4.63.92-21.27,8.22-12.15,12.89,7.02,3.59,18.07,1.84,25.64,1.91,47.89.41,95.81-.24,143.69.03V42.67c-8-.03-16.65,2.04-23.24,6.68-1.96,1.38-7.78,8.14-9.29,7.81-13.31-30.52-66.87-24.19-71.36,8.85ZM591.19,312.16v-130.47c-12.54-11.79-32.88-13.95-47.58-4.96-17.03-26.91-63.27-18.52-70.76,12.23-24.03-7.61-50.23,7.52-50.26,33.85-22.92-.02-37.39,22.16-26.77,42.92-20,11.32-8.63,42.98,11.24,46.13,2.84.45,8.82-.25,10.56.61,1.33.66,1.46,3.34,2.61,4.63,3.73,4.19,11.13,6.11,16.45,4.25-4.93-7.71-.48-19.6-1.99-26.59-.51-2.36-4.28-4.5-4.6-9.24-.24-3.6,2.13-7.42,1.87-9.69-.19-1.69-3.11-5.33-3.22-6.07-.15-.92,2.46-6.62,3.07-7.5,2.97-4.32,6.06-2.44,7.86-3.97,1.37-1.16,1.29-5.71,5.35-8.45,6.06-4.09,11.03-1,12.7-1.73s4.84-5.91,9.98-7.14c8.95-2.14,12.26,3.38,15.21,3.35s6.08-2.98,12.52-2.4c6.79.61,8,4.23,10.74,5.03,3.8,1.11,7.51-.58,12.25,2.21,5.64,3.32,5.38,8.08,7.67,10.74,1.35,1.56,6.19,2.7,8.43,6.03,3.93,5.83.59,9.96,1.52,13.55.43,1.67,4.97,5.81,5.09,8.74.24,6.14-8.24,10.39-8.35,11.11-.53,3.27,4.36,3.78,6.71,3.57,8.7-.79,14.3-7.81,21.1-11.76,1,.3.86,6.98,4.6,9.22,5.61,3.36,14.81-.75,16.05.06.89,5.45,4.56,10.03,9.94,11.75ZM3.43,193.85v112.4c.53-.08,1.83.13,1.97,0,.36-.35-.91-7.33-.49-10.02,1.62-10.5,11.31-16.63,21.44-14.39,4.38-10.45,15.19-16.03,26.19-11.86,1.56.59,3.51,2.74,4.46,2.75,1.12.02,5.66-3.09,7.56-3.63,14.67-4.17,29.24,2.95,29.61,18.75,12.01-3.02,22.64,2.13,23.01,15.12,12.27-3.11,20.78,5.7,20.38,17.75,8.25-2.08,14.16,1.36,18.8,7.94,5-2.66,9.27-3.5,14.77-1.64,2.62-10.96,9.76-15.39,20.34-10.25-.28-10.83,7.98-18.45,19.06-15.13,6.4-25.91,33.7-14.07,33.52,8.27,7.43-1.6,16.64.31,16.46,9.49,11.5-4.5,19.48.32,18.4,13.15,15.47-2.64,24.3,10.79,19.1,24.94,17.11,3.06,34.21,6.21,51.26,9.55,10,1.95,36.69,9.71,44.86,8.72,25.24-3.06,37.84-30.3,61.64-35.66-7.21-2.8-14.35-7.75-17.21-15.33-8.39.04-15.18.77-20.95-6.34-.75-.92-.53-2.83-1.25-3.35-1.08-.77-8.37-.08-10.73-.45-10.8-1.68-22.06-15.49-24.13-25.3-.53-2.51-.6-10.5,1.28-12-25.63-18.46-56.26-40.47-89.65-37.39-15.65,1.45-31.32,9.48-45.78,15.04,8.2,5.96,17.04,11.18,25.3,17.09,9.41,6.73,23.1,15.79,31.56,23,.82.7,5.66,4.78,2.65,5.24-26.15-18.18-51.78-37.23-79.04-53.76-24.57-14.9-54.3-32.74-84.05-31.05-11.45.65-22.25,4.84-33.13,7.96l.1,1.81c5.22,4.27,41.29,28.26,41.93,32,.15.85-.78,1.77-1.63,1.63-3.68-3.8-7.98-7.02-12.24-10.12-14.98-10.93-30.87-23.23-46.31-33.23-26.84-17.38-56.38-31.05-89.06-21.72ZM501.75,273.41c-7.03,2.19-14.64,1.34-19.37-4.61-3.83,3.84-9.63,4.7-14.83,3.64-2.43-.49-6.37-3.54-8.3-3.5-2.61.04-7.99,6.19-13.35,1.83-6.38,14.96-11.14,34.58-5.39,50.41,9.49,26.14,62.08,24.22,71.11-2.16,2.52.16,4.95.66,7.52.33,13.94-1.82,15.62-24.59.36-20.66-2.07.53-6.01,4.82-7.92,3.36-.27-3.86-2.65-3.32-4.19-5.02-2.79-3.09-2.35-10.87,1.63-12.82l-.09-1.53c-4.66-1.04-6.85-4.66-7.19-9.25ZM3.43,309.53v23.66c50.53-.81,100.95,1.84,151.22,5.92.79-13.03-8.51-18.14-20.41-14.08-.84-4.56.82-12.63-3.32-16.43-4.87-4.46-11.33-3.82-17.07-1.98-.66-11.44-3.28-18.99-16.46-16.39-2.41.47-4.12,3.33-7.16,1.53-.8-1.79,1.18-1.92,1.28-2.39.54-2.78-1.75-8.53-3.28-11.03-4.34-7.08-14.2-8.61-21.69-6.6-3.15.85-7.35,4.89-8.93,4.95-1.92.07-4.6-4.05-9.14-4.61-10.76-1.32-17.14,3.89-19.37,14.18-5.84-1.04-8.57-3.06-14.42.02-7.96,4.19-7.75,16.19-4.71,23.55-1.88,2.71-4.01-.82-6.54-.28ZM239.45,314.13v-10.19c0-2.79-3.84-9.73-6.25-11.5-10.81-7.91-20.37,3.55-20.1,14.39-1.91,1.23-8.38-6.81-14.68-.54-3.97,3.95-2.31,15.97-4.02,16.37-2.76-.12-4.86-3.7-6.85-4.3-9.38-2.86-13.65,5.42-13.87,13.49-5.14-1.36-10.44-5.33-15.14-.36l-.62,8.26,135.07,16.99c7.21-7.98,1-21.3-9.83-21.62-2.57-.08-4.94,1.56-7.54,1.34,2.64-12.95-4.82-21.24-16.11-11.19-2.79-4.04.27-10.16-6.64-12.41-6.93-2.26-7.81,2.18-13.41,1.25ZM558.97,296.39l-14.14,9.19-.97,25.64c7.22,1.27,26.3-22.3,23.58-26.86-4.02-1.58-8.19-2.87-8.47-7.97ZM577.9,303.76c-.69-.12-7.33,1.6-7.61,1.97-.3.39-.54,3.18-1.13,4.45-5.53,11.96-14.08,21.56-26.94,25.67l-1.36-.66,1.03-29.62-7.86.04c-.26,4.95-3.2,11.05-7.25,14.11-1.83,1.38-4.08,1.62-5.25,2.63-2.92,2.52-4.44,10.03-11.8,8.94l-.06,1.88c-3.32-1.48-6.44.86-7.88,3.94,20.91,4.34,38.15,16.43,51.27,32.87.43-4.44-1.08-14.19.13-17.95.38-1.18,9.68-9.58,11.34-11.65,2.56-3.21,17.61-28.23,17.32-30.42-.05-.37-3.58-6.15-3.95-6.22ZM591.19,316.11l-7.26-2.99-10.51,21.06c5.71,2.86,11.77,2.44,17.76,1v-19.06ZM3.43,336.48v243.86c2,.36,1.02-.61,1.39-1.54,3.89-9.67,6.42-17.13,13.74-25.07,10.91-11.82,27.4-17.98,42.72-21.71-9.61-7.36-15.67-17.08-19.7-28.28-13.59-.33-25.34-6.97-25.4-21.77,0-2.33.94-8.09,2.01-10.1s3.39-2.49,3.65-4.29c.17-1.2-1.11-8.27-1.36-10.34-3.53-28.74,10.65-49.8,36.64-63.45,43.37-22.79,124.72-9.49,109.67,54.43-1.21,5.15-6.94,12.37-7.21,14.35-.71,5.28,1.28,14.91.95,21.46-.35,7.07-1.97,14.9-3.91,21.71l1.34.73c16.8-1.93,33.69,2.04,48.94,8.79-2.3-7.67-4.1-15.25-5.65-23.15-.1-.51-1.15-.53-1.23-.98-.98-5.56-.14-16.34-1.46-20.79-1.22-4.09-8.35-7.05-9.73-17.19-4.43-32.6,35.8-57.45,64.11-60.78,34.23-4.03,74.9,14.1,85.59,48.48,6.35,20.42,5.03,46.22,18.04,64.14,3.57,4.92,13.94,11.19.84,14.19.94,4.83.57,8.81-1.59,13.16,33.35,14.1,44.36,50.28,36.25,83.91-1.34,5.58-6.79,14.93-7.19,19.82-.24,2.86,1.18,6.76,1.2,9.64.11,13.09-.87,16.27,3.16,29.02,14.21,44.92,18.1,90.46,19.85,137.94.3,8.27-1.09,17.57.96,25.33h181.13v-168.93h-93.03c-5.27,0-16.09-2.9-17.27-9.03-2.4-12.43,6.24-21.09,18.26-21.21-3.88-14.87,8.42-25.68,23.01-21.69-5.37-13.03,6.23-24.06,19.1-19.99,1.1-14.25,13.4-20.76,25.27-12.21,3.6-11.14,15.49-15.01,24.67-7.23v-150.19l-18.08-6.89c-.15,1.81-2.87,4.66-2.97,4.94-.14.43,3.02,5.91,3.3,8.52.38,3.59.03,11.95-1.95,14.97-.6.92-10.63,6.1-11.69,6.29-1.97.35-3.42-.75-5.05-.55-1.38.17-2.33,1.77-4.05,1.97-6.55.77-6.55-7.31-7.51-11.83-3.16,2.91-13.78,5.56-11.8-1.5.12-.43,1.34-.74,1.86-2.17.7-1.89,3.46-9.06,3.35-10.44-.12-1.57-1.61-2.51-1.89-4.04-1.23-6.75-1.66-10.54-3.46-16.94-1.43-5.07-2.46-10.1-4.82-14.87-1.07.75-1.02,1.76-1.01,2.91.06,32.42,4.74,63.95,20.25,92.23.68,1.24,1.94,1.07,2.19,2.48.32,1.83-1.97,3.74-3.42,5.17-3.07,3.02-7.32,5.38-11.14,7.33,1.74,7.97,8.91,12.31,12.47,19.1.78,1.49.15,3.79,2.02,3.57-1.89,1.96-2.37,4.57-4.05,6.77-8.45,11.1-28.65,18.04-41.96,13.92-18.89-5.85,8.25-23.16,7.89-24.97-4.31-1.91-7.17-12.86-11.36-13.29-4.61-.47-12.34,1.13-17.2,1.16-8.79.04-17.49-.31-26.25-.73l-8.24,33.3c-2.9,2.28-20.69.19-25.26-.51-6.66-1.02-27.75-5.24-27.7-13.77.07-10.86,18.17-14.65,26.6-14.37l1.97-9.86c-4.46-.87-10.33-1.26-13.69-4.39-.96-2.69,3.45-25.05,4.54-29.3,4.35-16.88,12.94-34.99,17.1-52.07,1.53-6.3,2-13.04,3.23-19.41-8.89,4.73-17.21,9.58-27.2,11.91-5.52,1.29-17.8,4.79-19.17-2.73-6.35,1.78-23.71,12.4-29.22,7.56-1.06-.93-1.22-2.85-1.36-2.94-.44-.28-2.15,1.31-3.64.08-1.69-1.41-.39-4.18-1.22-5.38-.57-.82-3.58-.31-4.91-3.03-1.07-2.18.66-3.42.41-5.04-.12-.8-1.42-1.68-1.65-2.86-1.95-10,11.23-11.36,18.01-13.3-2.9-14.28,13.36-2.84,19.99-6.62-1.22-1.52-4.52-1.96-6.43-2.44-30.26-7.62-65-12.89-96-17.73-91.58-14.3-184.7-22.25-277.58-21.23ZM591.19,338.45c-7.35,2.42-13.75-.18-20.94-1.21-1.49,6.36-13.25,13.25-13.95,18.59-2.3,17.58,1.9,19.6,7.22,33.1,3.67,9.33,5.56,19.61,8.93,29.06l18.74,5.91v-85.45ZM498.49,339.78c-11.3,1.78-21.88,4.93-33.53,2.62-1.7,6.95,9.08,9.64,13.99,12.39,6.53-5.16,18.1-5.66,19.54-15.01ZM509.01,342.41l-6.82-1.27c-3.03,1.15-6.22,19.58-6.89,23.37-7.29,41.02-6.72,88.97,5.92,128.67,1.61,5.07,2.45,10.56,5.16,15.19,4.06,2.35,35.2-7.1,37.5-14.49-2.38-9.7-5.57-3.87-11.02-1.77-5.69,2.19-11.76,3.28-17.49,5.36-6.54-12.78-10.24-26.29-12.74-40.55-5.48-31.26-5.77-61.2.01-92.3.67-3.59,3.13-18.75,4.19-20.77.8-1.53,2.22-.09,2.19-1.44ZM523.7,429.63c-1.4-11.98.95-28.43-.92-38.88-.38-2.14-2.46-4.09-3.21-6.65-3.26-11.11.21-24.5,3.17-35.35-.52-1.8-12.51-6.28-13.07-5.7-2.11,11.71-5.19,23.37-6.48,35.26-3.36,30.79-1.88,72.82,7.79,101.8.79,2.38,3.48,11.68,4.99,12.76,2.81,2,20.1-3.93,23.01-7.19-7.99-18.53-11.7-35.29-14.21-55.4-.05-.43-1.06-.52-1.07-.66ZM461.45,356.01c.45-3.87,0-7.8.6-11.66-.62-.83-4.93-.92-5.85-.66-1.55.45-2.1,16.04-2.44,18.62-2.64,20.22-4.63,42.83-9.12,62.77-4.2,18.68-11.05,35.69-15.9,53.67-.71,2.62-1.49,13.47-3.53,13.89l-12.76-1.6c-.44,3.36-3.03,7.58.57,9.44,2.57,1.33,19.48,4.22,21,2.92,1.6-13.45,4.69-25.76,8.12-38.88,1.68-6.42,4.4-12.5,6.06-18.91,7.66-29.53,9.75-59.58,13.25-89.59ZM445.67,409.91c3.48-21.1,3.24-42.81,6.81-63.92l-1-1.6-8.21,4.43c-2.53,15.12-2.9,31.32-5.29,46.35-4.8,30.1-16.95,59.03-23.71,89.35-.08.34-2.63,1.35-.84,3.21l10.73,2.55c4.14-23.57,13.87-44.99,18.79-68.32.79-3.76,2.23-9.07,2.72-12.04ZM495.2,349.63l-16.33,8.32c-1.2,9.09-.57,18.45-1.37,27.54-.1,1.19-1.3.7-1.42,1.89-.38,3.98.51,8.19-.61,12.2h6.58s1.96-33.7,1.96-33.7c.33-1.15,6.28-3.09,7.55-4.46.89-.96,4.06-11.34,3.63-11.78ZM547.57,368.26c-2.86-3.61-16.34-16.09-20.17-17.63-.66-.27-1.21-.49-1.94-.35-2.34,8.33-5.81,18.54-4.44,27.76.72,4.83,9.27,17.62,11.6,23.38,1.39,3.44,1.8,7.23,3.1,10.68,10.27.68,19.8-3.22,29.18-6.62-2.73-6.52-4.22-13.7-7.12-20.16-1.94-4.33-7.34-13.45-10.21-17.07ZM440.63,350.95c-12.66,7.23-22.05,20.16-36.8,24.34,1.74,5.13,4.74,8.84,6.37,14.29,1.21,4.05,1.96,8.35,2.67,12.51.27,1.6-1.23,3.16.56,4.01,5.04-1.26,18.44-7.05,20.47-11.6,2.26-5.05,1.96-17.29,2.81-23.37.07-.49,1.2-.48,1.26-.94.86-6.13.43-13.16,2.65-19.25ZM473.51,399.59l2.51-41.61c-.34-2.11-10.63-7.53-11.06-7.03.51,3.22-1.6,7.69-.54,10.73.57,1.63,4.43,2.49,5.15,3.39,1.23,1.55.33,13.65.05,16.48-.12,1.19-1.3.7-1.42,1.89-.54,5.26-.52,10.85-.61,16.15h5.92ZM491.26,364.75c-.32-.39-3.06,1.32-3.27,1.65-1.16,1.77-2.5,19.56-2.63,23.01s.06,6.8,0,10.18h2.62s3.29-34.84,3.29-34.84ZM464.96,399.59l2-31.25c-.04-1.99-1.31-3.2-3.31-2.93-.94,8.87-.82,18.54-1.92,27.32-.15,1.16-1.26.92-1.34,1.41-.29,1.7.13,3.69-.03,5.45h4.61ZM392.64,398.6c.46,3.77-.34,8.29,0,12.16,4.47-.12,11.12-.77,15.28-2.18,1.14-.39,1.61.09,1.86-1.42,1.82-10.91-4.94-20.99-8.64-30.56l-17.05,4.27c2.27,5.2,7.87,12.15,8.55,17.73ZM387.88,405.32c.84-13.39-4.04-25.4-19.25-25.47l-1.58,1.08c-.95,2.86,6.19,9.29,8.83,10.09-2.75,4.84-7.18-2.48-9.36-3.14-4.31-1.29-18.47,3.83-19.24,8.1-.69,3.86,12.25-1.26,13.79-1.01,3.1,3.42-12.39,4.26-11.88,8.86.57,5.05,11.3-3.7,13.86-1.97,1.38.94.41,1.56-.34,2.31-2.5,2.53-9.62,1.83-8.87,7.23,1.05,1.09,11.31-6.28,13.16-4.95,3.43,2.48-6.84,4.66-7.23,7.25,2.04,2.5,5.02,1.22,7.67.45,2.16-.63,19.69-8.02,20.43-8.84ZM161.46,415.12c-24.6-52.11-143.85-32.12-138.33,40.02.23,3.03,1.13,6.02,1.48,9.04l.89,1.04c7.97-2.79,14.61.6,20.44,5.94,12.12-8.84,10.68-26.14,8.77-39.38,22.04,4.75,45.47,5.94,67.85,2.43,9.02-1.41,17.47-5.09,26.37-6.28,3.66,4.76,6.71,9.79,8.03,15.65.26,1.17,1.44,14.06,2.93,13.17,6.95-10.97,7.61-28.62,2.83-40.58-.29-.74-1.17-.88-1.26-1.06ZM459.04,412.07h27.94l.99-9.21-28.28-.66-.65,9.86ZM566.2,408.12c-9.63,3.43-19.19,6.69-29.62,6.86-1.33.94.09,10.18,1.05,11.52,3.11,4.34,26.75.93,30.15-2.67,2.49-2.64-1.94-11.88-1.58-15.71ZM457.08,424.56l29.81-.09c1.96-.75.89-6.17.99-8.03l-29.08-1.78-1.72,9.9ZM461.57,427.29l-5.24-.37c-3.51,12.84-6.97,25.68-10.5,38.53-.18.64-1.92,3.29-2.52,5.51-2.97,11.12-4.44,22.55-6.63,33.8l15.78,1.98c.37-5.89-.49-12.3-.05-18.12.73-9.82,2.68-22.24,4.1-32.72,1.29-9.55,3.26-19.17,5.05-28.6ZM470.88,427.19h-6.57c-3.74,23.63-8.8,46.78-9.25,71.29-.22,12.05,1.32,8.73,12.53,9.57-1.17-17.57-.7-35.4.6-52.96.09-1.18,1.32-.71,1.41-1.89.68-8.62.53-17.39,1.27-26.01ZM484.22,506.57c-1.61-5.11-3-17.5-3.47-23.2-1.46-17.75-.71-36.73,0-54.54-.6-2.91-4.94-1.26-7.24-1.65l-2.62,79.87.97,1.46,13.48-1.14c.3-1.03-1-.44-1.12-.8ZM492.17,473.63c-3-14.67-4.05-30.38-4.29-45.36l-4.51-1.08c-.59,13.79-1.25,27.96-.69,41.77.35,8.55,1.37,17.74,2.75,25.52.76,4.29,1.44,8.63,2.63,12.81l13.72-.57c-1.82-6.29-4.15-12.42-5.87-18.78-1.18-4.37-2.96-10.48-3.74-14.31ZM567.49,427.86c-9.33,3.09-19.03,4.55-28.88,3.94l-3.29,13.14,9.19-3.65c5,10.42,6.72,21.81,9.88,1.03l3.23,1.07c-.46,2.68-.99,5.77-.6,8.48.13.9-.37,1.14.98.96,3.9.15,4.59-8.59,4.27-11.45l3.2.71c1.24,1.83-1.76,6.87.42,7.46,5.27-2.2,4.16-17.18,1.62-21.67ZM153.57,445.37c-.7-2.58-3.15-13.5-5.91-14.09-28.71,9.98-60.02,10.59-89.67,4.45,1.42,13.81,1.33,31.58-12.15,39.43-2.5.1-5.83-8.32-15.14-7.93-7.32.31-8.58,4.87-10.24,10.71-.16.55-1.15.54-1.23.98-.74,4.05,1.22,9.36,3.38,12.88,5.23,8.53,12.9,7.27,21.57,9.33,8.18,27.09,35.17,41.54,62.65,39.76,9.44-17.79,26.38-29.39,45.92-33.92,2.43-6.75,4.08-13.02,4.55-20.29.88-13.61-.31-28.77-3.72-41.33ZM209.79,435.16c-.36-.26-1.28-.06-1.84-.04-7.1,15.79-6.33,35.93-3.98,52.85.82,5.94,5.14,24.76,8.26,29.21,1,1.43,11.1,7.51,13.77,9.9,2.04,1.83,5.37,5.25,7.14,7.32,1.74,2.04,4.7,8.13,6.11,9.01,4.48,2.79,16.86,2.02,22.15,1.35,23.67-3.02,47.05-18.88,49.02-44.33,8.47.18,16.36-.9,20.35-9.24,9.63-20.16-10.9-33.73-22.28-13.7-2.92,1.41-7.38-3.4-9.21-5.27-7.18-7.34-9.76-17.1-9.19-27.3-10.43-.75-21.36-.49-30.9-5.25-1.14,1.21,7.5,6.95,5.88,9.16-11.4,2.21-22.74-1.68-32.18-7.84,8.34,14.29-11.12,7.83-17.04,2.89-3.1-2.58-5.62-8.42-6.05-8.73ZM445.82,537.54c1.12-.83,4.57-24.24,4.39-27.58l-25.35-3.9-1.02,9.2c9.48,4.35,16.3,11.45,16.89,22.25.42.25,4.79.24,5.09.02ZM529.98,506.77l-24.91,5.53c1.02,1.47,6.38,10.12,7.22,10.53,1.48.7,4.88.48,7.21,1.33,3.52,1.28,6.72,3.5,10.18,4.9l6.04-12.81-5.75-9.48ZM436.96,534.1c-4.96-10.97-10.34-17.88-23.93-14.88,3.13,2.09,7.65,4.35,9.74,7.64,1.34,2.11,2.25,6.7,2.74,7.15,1.22,1.14,11.17,2.89,12.5,1.62.59-1.49-.91-1.24-1.04-1.54ZM309.79,519.21c-1.21-.88-5.13,6.54-6.14,7.66-8.73,9.65-22.44,17.02-35.27,19.29-.09,2.72,3.28,2.89,4.64,4.22,6.75,6.59,11.18,15.96,12.46,25.35l4.28-15.1c11.55-7.98,24.04-17.22,27.16-31.76l-7.14-9.67ZM540.33,521.42c-.62-.6-2.13-1.83-3.07-1.27-2.33,5.04-7.31,11.12-.97,14.82l6.82-8.36c.14-1.1-2-4.45-2.78-5.2ZM421.19,531.46c-3.77-8.44-15.23-14.72-21.9-5.87-.54,2.28,3.52,3.28,5.17,3.83,5.38,1.78,11.94,2.44,17.43,4.27,1.45-1.3-.62-2.05-.7-2.22ZM504.41,533.01c4.21.19,10,1.65,13.6,3.82,2.19,1.32,4.32,4.86,6.7,5.08,1.98.18,7.07-3.83,9.27-4.62-7.53-6.62-23.2-17.67-29.57-4.28ZM370.05,544.43c-2.27-1.96-14.38-10-16.69-10.59-3.04-.77-9.61.7-13.63.48-6.48-.37-12.48-3.14-18.76-4.31-4.48,9.46-8.79,17.01-16.77,24.03-1.95,1.71-10.35,6.89-11.13,7.94-2.38,3.23-2.39,16.21-3.94,20.38-4.13,11.15-8.38-13.68-8.98-15.28-1-2.65-5.31-9.69-7.27-11.93-10.78-12.3-17.72-4.45-31.44-8.32l1.97,10.51,6.57-1.96c.1,3.04-3.65,3.74-4.65,6.85-1.88,5.84-2.07,42.02,1.65,45.16,18-1.67,35.2,2.99,52.38,7.48,9.47-7.73,20.88-12.96,33.15-14.12,1.93-2.6,1.07-6.2,1.64-8.76.11-.49,1.17-.44,1.27-.93.43-2.18,1.38-16.06,2-16.63.15-.13,1.43.08,1.96,0l-2.36,26.33c7.22,1.15,15.27,3.77,19.76,9.85.38.52,2.78,5.13,2.84,5.73.57,6.36-5.48,5.38-7.16,7.66-1.32,1.79.19,4.37-4.07,5.79-3.04,1.02-4.5.23-7.33-.77-4.6,13.85-15.06,1.05-21.46-2.93-13.47-8.37-49.47-16.43-65.35-16.14-5.51.1-13.96,1.24-18.75,3.92,35.58,10.06,55.59,46.44,94.97,49.34,62.01,4.56,78.86-84.84,39.57-118.76ZM442.6,542.21l-1.1-1.85-44.92-9.97c3.03,7.75,43.53,13.82,46.02,11.82ZM99.27,561.79l4.76-17.29c-14.32.32-27.32-4.51-40.12-10.17.18,9.89,9.6,18.94,17.96,23.12,2.48,1.24,15.88,6.42,17.4,4.34ZM520.84,544.18c-2.89-6.28-11.58-7.22-17.42-8.94-15.22,11.74,9.92,11.4,17.42,8.94ZM41.23,586.26c2.9-.4,6.53.29,9.53,0,.36-3.08-2.09-7.48-1.98-10.19.04-1-.24-1.13.98-.97,4.44,1.15,3.83,10.73,5.6,12.15.81.66,5.11,1.03,6.77,1.78,4.65,2.08,10.49,5.95,14.28,9.39,7.03,6.39,3.91,10.5,15.12,4.93-1.01-2.94-2.35-5.3-2.98-8.51-1.11-5.65-1.27-12.74,1.65-17.94,2.17-3.85,9.02-5.46,7.29-11.28-15.57-3.1-33.89-12.03-36.51-29.33-1.54-2.07-15.8,3.31-18.55,4.5-58.48,25.54-45.41,127.77,17.25,120.45,4.23-.49,9.73-7.93,13.6-10.73,4.25-3.08,10-6.06,14.96-7.73-1.92-3.83-6.32-3.2-7.5-8.46-1.62-7.24,3.92-10.2,7.19-15.83.72-1.24,5.58-11.85,4.92-12.5l-26.75,9.73c-6.78,2.12-16.55,12.09-23.91,9.68-2.72-.89-2.38-3.45-3.23-3.99-1.27-.81-3.69.24-5.93-1.31-2.58-1.79-1.39-4.24-2.12-5.44-.68-1.11-6.57-.8-6.41-6.31.05-1.84,2.04-3.9,1.98-4.65-.04-.45-4.45-1.43-1.94-7.85,1.79-4.57,12.12-8.95,16.7-9.59ZM194.08,552.74c-16.76,7.69-35.49,7.83-52.25,0-.82.19-2.03,11.81-2.87,14.21-.15.42-3.58,6.78-3.91,7.29-1.81,2.74-12.94,15.03-16.25,11.37-3.4-14.99-25.04-18.41-27.09-.15-1.86,16.55,7.92,25.47,24.14,23.81-3.08,44.43,66.73,67.9,94.37,37.49,12.54-13.8,25.11-63.05,19.89-80.41-.76-2.52-8.16-9.1-8.79-12.94-.97-.31-6.8,4.52-8.37,5.37-6.91,3.73-17.57,6.62-24.75,2.76l5.88-8.8ZM591.19,665.79v-83.15c0-2.59-7.76-6.2-10.18-6.24-7.49-.14-11.8,8.78-10.86,15.12-4.66.5-5.86-5.25-10.69-6.73-5.96-1.82-13.44,2.36-14.23,8.43-.27,2.1.85,9.15-.4,9.47-16.47-9.42-24.15,3.85-18.07,19.06-18.18-7.08-28.02,2.28-23.01,21.04-3.67-.51-6.64-1.1-10.4-.21-7.7,1.83-14.4,16.93-4.97,21.17,1.51.68,7.04,2.04,8.47,2.04h94.35ZM229.6,612.54l14.39-4.97c-2.41-8.87-1.84-18.14-1.91-27.23-1.55,3.16-7.64,9.55-8.59,12.11-.44,1.17-1.74,5.43-1.9,6.1-.93,3.82-.92,9.88-1.99,13.99ZM79.65,607.91c1.8-3.06-13.56-13.83-16.6-15.2-8.19-3.71-20.72-5.2-28.95-1.08-2.28,1.14-9.01,6.26-6.94,9.02,3.14,1.54,4.39-1.67,6.7-2.69,5.78-2.55,13.23-5.01,19.48-3.1l.05,1.91c-6.06-1.24-27.75,5.23-24.89,13.36,1.41,4,4.43-.93,5.88-1.79,3.04-1.81,19.11-8.77,21.34-6.34,2.58,2.8-4.17,2.53-5.13,2.83-3.87,1.24-20.45,6.37-16.63,12.34s18.57-10.15,24.67-7.91c2.1,2.01-7.85,4.78-9.24,5.54-2.13,1.18-8.39,4.99-6.9,7.63,2.77,4.12,16.53-6.51,20.11-8.23,5.26-2.52,11.59-4.12,17.04-6.3ZM334.15,609.28c4-2.12,15.89,11.9,19.21,11.05,5.12-1.31,1.41-8.37-1.46-10.76-9.3-7.76-24.82-5.76-35.32-1.74-1.67.64-12.06,5.97-12.54,6.83-.32.57-.12,1.23-.16,1.84,5.11.75,11.24,3.1,15.71,5.67,3.07,1.76,15.97,14.9,18.38,8.35,2.09-5.41-11.48-11.37-12.74-13.99-2.36-4.95,6.38.91,7.13,1.42,3.33,2.26,12.13,12.78,16.07,8.91,4.36-4.29-11.5-13.97-14.67-15.6-.18-.32.31-1.91.4-1.96ZM285.45,649.98l-.65-2.25c-9.66-6.39-18.22-15.14-27.9-21.4-4.12-2.66-25.21-14.51-28.67-9.4-2.37,8.34-5.83,18.2-10.32,25.67-1,1.66-3.32,2.1-3.42,4.47,17.76,17.22,50.19,12.9,70.96,2.9ZM3.43,624.38v132.77l1.32-.97c2.01-24.77,5.87-49.47,14.1-72.7.4-1.14,1.39-1.24,1.61-1.8,3.76-9.48-2.14-18.93.64-29.25-9.76-6.65-11.76-16.89-16.18-26.62-.42-.93.41-1.79-1.49-1.44ZM118.48,634.9v13.47c0,11.34,26.46,27.94,37.15,27.99,5.35.02,16.86-7.47,19.39-12.53-22.78.43-43.3-11.02-56.54-28.93ZM115.19,638.18c-14.92,2.54-30.61,7.23-42.68,16.82-31.44,24.99-32.46,76.16-6.23,105.36s78.26,7,104.72-12.84c.84-2.2-4.48-18.03-6.15-20.63-1.04-1.61-6.47-7.51-7.99-7.69-12.4,3.06-25.14,5.68-36.86,10.87-7.28,3.22-26.38,17.28-33.7,9.63-2.38-2.48-.19-6.19-.7-6.86-.37-.47-4.87.39-5.65-3.94-.52-2.88,1.78-4.53,1.63-5.51-.11-.69-1.99-1.83-2.4-3.52-3.19-13.2,19.73-16.73,28.79-16.62l-3.29-19.07c.69.07,1.64-.18,2.22.08,1.94.88,4.23,16.51,4.93,19.39,11,3.15,22.21,7.52,30.09,15.95,5.67-1.87,13.23-2.05,18.68-3.49,4.92-1.3,10.29-5.27,15.71-6.64,7.44-1.89,15.54-2.29,23.02-.3-.25-.82.68-1.91.68-2.3v-20.7c0-.12,1.85-.42,2.23-.6,3.03.73.59,23.13,2.04,26.23.48,1.02,4.72,3.25,5.94,4.58,1.3,1.41,4.69,7.2,5.58,7.61,1.99.93,8.75-2.38,9.19,1.61-8.99,1.69-18.04,3.61-26.33,7.54-2.62,1.24-23.6,13.65-24.5,14.77-.81,1.01-.32,2.55-1.37,3.41-1.27,1.03-8.38,1.76-8.95,5.83,26.27,11.8,78.13,25.77,81.51-17.42,1.94-24.78-16.56-62.37-35.14-78.55-1.76-1.53-3.69-2.97-5.59-4.33-5.24,1.37-10.3,3.83-15.79,5.33-2.6.71-7.4.65-9.07,1.41-.38.17-4.38,5.48-5.46,6.41-3.6,3.08-10.97,8.63-15.54,9.44-13,2.3-43.56-16.54-43.56-31.06v-10.19ZM381.68,643.91c-.41-.95.1-2.01-.54-2.43-20.1,34.35-62.23,29.02-91.37,9.91-12.64,6.97-25.98,10.19-40.46,10.8,1.07,2.62,1.56,6.81,4.13,8.36,3.47,2.1,19.86,5.07,24.57,5.67,18.63,2.36,41.66,1.71,60.29-.67,14.94-1.91,31.44-6.01,44.04-14.3.62-.87.74-14.34.49-16.21-.15-1.12-1.06-.92-1.15-1.14ZM247.59,667.52c-.88-1.78-1.23-3.65-2.19-5.37-12.32-.89-23.89-3.78-33.32-12.09l-4.79,3.62c-.68,2.23,1.87,1.99,2.91,2.9,8.18,7.26,17.67,18.19,22.87,27.79,3.23,5.96,4.91,12.99,8.7,18.22l4.6-23c.87-4.81,5.01-5.78,2.48-11-.33-.68-1.16-.89-1.25-1.07ZM58.65,664.47h-10.85c-6.87,0-18.47-5.46-23.67-9.84-2.8.11,1.26,17.98,1.08,20.26l23.91,5.42,9.53-15.84ZM234.19,838h170.94c-.11-25.49-.59-51.16-2.64-76.56-2.07-25.65-6.3-50.52-13.24-74.87-.84-2.95-5.02-21.05-6.85-21.43-17.29,9.91-38.06,13.65-57.83,15.1-24.57,1.8-49.63.42-73.27-6.54-.89,3.96-1.73,7.99-2.73,11.93-4.76,18.73-4.03,21.84-1.2,40.79,1.84,12.31,1.39,26.93-8.77,36.79l-4.42,74.78ZM4.74,838h42.08c1.91-15.8,6.4-31.88,11.88-46.8.83-2.25,4.75-7.9,5.06-10.86.1-.94-1-17.7-1.2-18.88-.54-3.03-3.75-5.05-5.32-7.82-4.82-8.51-8.98-17.57-10.87-27.27-2.8-14.42-3.01-28.99,2.42-42.84-8.06-.35-15.63-2.84-23.27-5.18-1.75.44-4.32,10.4-5.07,12.52-6.69,18.96-10.29,41-12.41,61.34-2.96,28.42-3.17,57.19-3.3,85.77ZM137.54,719.04c-14.13-9.88-31-17.15-47.98-9.53-2.84,1.27-11.09,6.05-7.24,9.86,2.02,2,8.22-2.49,11.02-3.45,4.25-1.47,10.9-3.88,14.61-.5,0,.89-8.76,1.55-10.48,2-2.43.64-8.74,3.53-10.75,5.03-2.2,1.65-2.41,3.39-4.39,4.49,1.13.76,1.62,2.9,2.37,3.2,3.94,1.55,22.15-13.02,27.85-6.17-8.04,2.55-22.96,3.69-24.92,13.42,11.56,3.93,23.16-6.67,33.69-11.24,3.91-1.7,11.89-3.31,14.72-5.01.87-.52,1.78-.78,1.51-2.09ZM211.84,725.6c-3.71-10.05-13.3-15.58-23.99-15.1-3.54.16-24.14,5.07-24.63,8.28,5.42,8.03,10.3,15.68,9.83,25.88,12.9-6.36,24.18-16.58,38.79-19.06ZM65.23,765.04v9.53c0,.27,1.26,4.64,1.45,4.8,34.4,8.99,70.67,10.99,105.94,5.95,6.52-.93,18.83-2.62,24.62-4.96,3.16-1.28,4.91-4.58,5.41-7.76l-1-1.01c-14.34-1.83-27.98-6.67-40.79-13.17-23.71,12.81-53.06,26.05-80.04,15.66-5.75-2.21-10.26-6.21-15.61-9.04ZM217.76,838h13.15l3.61-71c-9.06,4.61-18.39,5.71-28.49,5.37-6.06,10.71,2.01,21.78,4.97,32.63,2.28,8.35,4.1,17.74,6.07,25.6.52,2.06.53,5.2.7,7.39ZM50.1,838h163.71c-2.67-15.85-5.55-32.09-11-47.17-1.04-2.88-2.58-5.17-3.47-8.05-43.1,11.51-89.44,10.91-132.39-.53-2.86.58-12.15,31.97-13.25,36.66-.8,3.4-2.42,8.62-2.9,11.02-.19.97-.98,7.78-.69,8.06Z"/>
  <rect x=".14" y="841.29" width="595" height=".66" fill="#fff"/>
  <path d="M591.19,3.23v36.15c-12.94-.3-21.98,5.14-31.82,12.54-11.35-17.4-33.41-22.1-52.32-14.17-13.18,5.53-24.73,18.94-23.69,33.83-19.87-9.1-48.05,4.5-44.33,28.29-11.99-.36-37.01,14.48-13.09,20.78l165.25.9v55.21c-13.51-10.39-31.56-11.99-46.9-4.56-18.62-25.18-64.87-17.32-73.43,13.11-9.64-2.76-20.34-1.85-29.37,2.5-12.38,5.96-21.35,17.99-22.2,31.7-5.17,1.51-10.32,2.55-15.02,5.36-13.23,7.92-21.3,25.65-12.51,39.65l-8.03,10.19c-24.46-17.87-56.14-40.35-88.06-38.13-11.44.79-25.1,5.52-35.84,9.52-3.91,1.45-12.31,6.64-16.06,6.23-31.36-18.42-64.1-42.5-102.6-39.41-11.22.9-22.76,5.65-33.38,9.07-23.05-14.77-46.69-32.08-75.09-34.08-10.06-.71-19.5.8-29.28,2.65v-95.97l129.18-.67c4.94-.65,15.81-1.87,17.59-7.39,4.09-12.73-12.88-18.11-22.5-15.6.04-16.51-17.95-22.69-31.55-16.43-4.67-32.52-59.34-32.81-64.45-.66-9.32-6.12-19.44-4.84-28.26,1.32V3.23h587.77ZM340.73,132.69c-1.64-12.32-14.49-20.07-26.02-20.99-15.7-1.26-38.06,7.21-37.79,25.62-14.35-6.99-35.96,3.88-32.71,21.2,1.68,8.97,15,11.11,22.53,11.65,39.79,2.85,82.83-2.13,122.96.04,31.62-4.09,7.6-28.33-12.19-22.38-.47-12.36-12-19.97-23.91-18.97-5.27.45-8.01,3.15-12.88,3.82Z" fill="#fff"/>
  <path d="M3.43,336.48c92.88-1.02,186,6.93,277.58,21.23,31,4.84,65.74,10.11,96,17.73,1.91.48,5.2.92,6.43,2.44-6.62,3.78-22.89-7.67-19.99,6.62-6.78,1.94-19.96,3.3-18.01,13.3.23,1.18,1.53,2.06,1.65,2.86.25,1.63-1.48,2.86-.41,5.04,1.33,2.72,4.34,2.22,4.91,3.03.83,1.2-.47,3.97,1.22,5.38,1.49,1.23,3.2-.36,3.64-.08.14.09.3,2,1.36,2.94,5.51,4.85,22.87-5.78,29.22-7.56,1.37,7.52,13.65,4.02,19.17,2.73,9.98-2.33,18.31-7.19,27.2-11.91-1.23,6.37-1.7,13.11-3.23,19.41-4.16,17.08-12.75,35.2-17.1,52.07-1.09,4.24-5.5,26.61-4.54,29.3,3.36,3.13,9.24,3.52,13.69,4.39l-1.97,9.86c-8.43-.28-26.54,3.51-26.6,14.37-.05,8.54,21.04,12.75,27.7,13.77,4.57.7,22.36,2.79,25.26.51l8.24-33.3c8.76.42,17.46.77,26.25.73,4.86-.02,12.6-1.63,17.2-1.16,4.2.43,7.05,11.38,11.36,13.29.36,1.81-26.77,19.12-7.89,24.97,13.31,4.12,33.51-2.82,41.96-13.92,1.68-2.2,2.16-4.81,4.05-6.77-1.87.23-1.24-2.07-2.02-3.57-3.55-6.79-10.73-11.12-12.47-19.1,3.81-1.95,8.07-4.3,11.14-7.33,1.45-1.43,3.75-3.34,3.42-5.17-.25-1.41-1.51-1.25-2.19-2.48-15.51-28.28-20.2-59.81-20.25-92.23,0-1.15-.05-2.16,1.01-2.91,2.36,4.77,3.39,9.8,4.82,14.87,1.8,6.4,2.24,10.19,3.46,16.94.28,1.53,1.77,2.47,1.89,4.04.11,1.38-2.66,8.55-3.35,10.44-.53,1.43-1.75,1.74-1.86,2.17-1.98,7.06,8.64,4.41,11.8,1.5.96,4.51.96,12.6,7.51,11.83,1.72-.2,2.67-1.8,4.05-1.97,1.62-.2,3.07.9,5.05.55,1.06-.19,11.09-5.37,11.69-6.29,1.98-3.02,2.33-11.37,1.95-14.97-.28-2.6-3.44-8.08-3.3-8.52.09-.28,2.81-3.13,2.97-4.94l18.08,6.89v150.19c-9.17-7.78-21.07-3.91-24.67,7.23-11.87-8.55-24.17-2.04-25.27,12.21-12.87-4.06-24.47,6.96-19.1,19.99-14.58-3.98-26.88,6.82-23.01,21.69-12.01.12-20.65,8.78-18.26,21.21,1.18,6.13,12,9.03,17.27,9.03h93.03v168.93h-181.13c-2.05-7.76-.66-17.06-.96-25.33-1.75-47.48-5.63-93.02-19.85-137.94-4.03-12.75-3.06-15.93-3.16-29.02-.02-2.88-1.44-6.79-1.2-9.64.4-4.89,5.85-14.24,7.19-19.82,8.11-33.63-2.91-69.81-36.25-83.91,2.16-4.36,2.53-8.33,1.59-13.16,13.1-3,2.73-9.27-.84-14.19-13-17.92-11.68-43.71-18.04-64.14-10.7-34.38-51.36-52.51-85.59-48.48-28.31,3.33-68.54,28.18-64.11,60.78,1.38,10.14,8.51,13.1,9.73,17.19,1.33,4.45.49,15.23,1.46,20.79.08.45,1.13.47,1.23.98,1.55,7.9,3.35,15.48,5.65,23.15-15.25-6.75-32.13-10.72-48.94-8.79l-1.34-.73c1.94-6.81,3.56-14.65,3.91-21.71.33-6.55-1.66-16.18-.95-21.46.27-1.99,6-9.2,7.21-14.35,15.05-63.93-66.31-77.22-109.67-54.43-25.99,13.66-40.18,34.71-36.64,63.45.25,2.07,1.54,9.14,1.36,10.34-.26,1.8-2.55,2.24-3.65,4.29s-2.02,7.77-2.01,10.1c.06,14.8,11.81,21.45,25.4,21.77,4.03,11.2,10.08,20.91,19.7,28.28-15.32,3.74-31.81,9.89-42.72,21.71-7.32,7.94-9.85,15.4-13.74,25.07-.37.93.61,1.89-1.39,1.54v-243.86ZM35.28,371.68c-.35-.7-2.96-4.79-3.28-4.94l-1.63.32c-.37,2.02,3.59,15.2,6.58,12.16.61-3.56-.33-4.87-1.67-7.53ZM44.04,378.38c.24-.33,2.4-7.23,2.48-7.71.19-1.12.41-1.17-.71-1.99-6.23.04-5.55,14.91-1.78,9.7ZM193.43,378.55c-4.83-1.06-4.9,10.16-2.95,11.17l1.63-.45c1.43-3.32,1.59-6.6,1.32-10.71ZM184.5,385.51c-1.08-1.8-2.42-4.72-4.87-4.32-.44.43,3.24,11.28,6.57,9.19.77-2.83-.87-3.5-1.69-4.87ZM201.04,387.49c7.22-8.71-6.2-3.46-4.97,2.89,2.1.31,3.74-1.41,4.97-2.89ZM381.46,454.14c-2.62-2.83-7.17,12.39-.66,10.52l.66-10.52ZM373.86,462.42c-1-2.51-2.23-7.27-5.54-6.96l3.61,9.89c4.73,1.04,2.6-1.26,1.93-2.93ZM390.66,458.75c-2.44-2.93-11.32,8.39-3.62,5.24l3.62-5.24ZM574.77,494.89c.57.38,2.3-.06,2.56-1.07.3-1.68-3.52-13.06-5.86-10.75.54,1.55,2.78,11.48,3.29,11.83ZM584.61,483.72c-2.87-3.03-7.09,12.9-2.94,11.78,1.62-.44,2.78-9.74,2.94-11.78ZM441.95,596.11c1.25-1.35-2.61-12.59-6.57-11.82-.9,2.8,1.93,4.46,2.57,5.78,1.05,2.15.6,6.62,3.99,6.04ZM449.18,584.94c-1.46-1.81-6.12,9.31-4.21,10.59,4.24,3.75,3.96-7.91,4.21-10.59ZM460.35,588.23c-3.59-1.52-9.01,9.02-5.58,9.18.62.03,6.54-8.23,5.58-9.18ZM454.89,698.2c-.48-.44-3.42-1.86-3.73-1.52-.71,2.67,2.15,3.42,2.84,4.78s2.84,11.36,5.05,9.01c.34-3.32-1.75-10.08-4.15-12.28ZM466.23,711.1c.15-3.59,1.8-9.08,1.89-12.32.02-.8.08-1.82-.86-2.1-3.69-1.1-4.36,11.78-3.02,14.07l1.99.34ZM478.11,700.63c-3.86-2.02-9.85,9.28-6.89,9.85,1.69-.59,7.81-8.91,6.89-9.85ZM562.54,729.27c-7.45-8.02-26.07-7.06-31.42,2.97-2.89,5.41.24,6.78,4.97,8.03,5.08,1.34,28.16,2.36,29.85-3.47.48-3.34-1.44-5.41-3.41-7.52ZM508.79,774.45c-4.71-7.8-15.77-10.83-24.36-10-14.21,1.38-34.22,17.88-9.29,21.29,6.89.94,42.37,3.15,33.65-11.29ZM550.42,817.62c-.02-3.99,2.05-8.92,2.37-12.47.09-1.03.41-1.21-.73-1.98-3.73-.64-6.49,17.49-1.64,14.45ZM540.34,808.63c-.54-.89-5.34-5.82-6.34-4.81.66,1.8,5.86,16.59,8.54,13.8-.07-2.82-.73-6.57-2.19-8.99ZM563.32,808.84c1.01-1.56,1.04-2.63-1.37-2.4-2.91.28-7.83,9.18-4.63,11.82,2.99-1.06,2.21-3.92,3.52-6.34.83-1.53,1.93-2.24,2.48-3.09Z" fill="#fff"/>
  <path d="M3.43,193.85c32.68-9.33,62.22,4.34,89.06,21.72,15.45,10,31.34,22.3,46.31,33.23,4.25,3.11,8.55,6.32,12.24,10.12.85.14,1.78-.78,1.63-1.63-.64-3.74-36.71-27.73-41.93-32l-.1-1.81c10.88-3.12,21.68-7.31,33.13-7.96,29.75-1.69,59.48,16.14,84.05,31.05,27.26,16.53,52.89,35.58,79.04,53.76,3.02-.46-1.83-4.54-2.65-5.24-8.46-7.21-22.15-16.28-31.56-23-8.26-5.9-17.1-11.12-25.3-17.09,14.46-5.56,30.13-13.59,45.78-15.04,33.39-3.09,64.02,18.92,89.65,37.39-1.88,1.5-1.81,9.49-1.28,12,2.07,9.8,13.33,23.62,24.13,25.3,2.36.37,9.64-.32,10.73.45.73.52.51,2.43,1.25,3.35,5.77,7.11,12.56,6.37,20.95,6.34,2.86,7.58,10,12.53,17.21,15.33-23.8,5.36-36.4,32.6-61.64,35.66-8.17.99-34.87-6.77-44.86-8.72-17.06-3.33-34.16-6.49-51.26-9.55,5.2-14.15-3.63-27.58-19.1-24.94,1.07-12.83-6.9-17.65-18.4-13.15.18-9.18-9.03-11.09-16.46-9.49.17-22.34-27.12-34.18-33.52-8.27-11.08-3.32-19.34,4.3-19.06,15.13-10.58-5.15-17.73-.72-20.34,10.25-5.5-1.85-9.76-1.02-14.77,1.64-4.64-6.58-10.55-10.02-18.8-7.94.4-12.05-8.11-20.86-20.38-17.75-.37-12.99-11-18.13-23.01-15.12-.37-15.8-14.94-22.92-29.61-18.75-1.9.54-6.44,3.65-7.56,3.63-.95-.02-2.89-2.16-4.46-2.75-11-4.17-21.81,1.41-26.19,11.86-10.13-2.24-19.82,3.89-21.44,14.39-.42,2.7.85,9.67.49,10.02-.14.14-1.44-.08-1.97,0v-112.4Z" fill="#fff"/>
  <path d="M234.19,838l4.42-74.78c10.16-9.87,10.61-24.49,8.77-36.79-2.83-18.95-3.56-22.06,1.2-40.79,1-3.94,1.84-7.97,2.73-11.93,23.64,6.96,48.7,8.34,73.27,6.54,19.77-1.45,40.53-5.18,57.83-15.1,1.82.38,6.01,18.48,6.85,21.43,6.94,24.35,11.16,49.22,13.24,74.87,2.05,25.4,2.53,51.07,2.64,76.56h-170.94Z" fill="#fff"/>
  <path d="M591.19,312.16c-5.38-1.72-9.05-6.3-9.94-11.75-1.24-.81-10.45,3.3-16.05-.06-3.74-2.24-3.6-8.92-4.6-9.22-6.8,3.96-12.4,10.97-21.1,11.76-2.35.21-7.24-.29-6.71-3.57.12-.72,8.59-4.97,8.35-11.11-.11-2.94-4.65-7.07-5.09-8.74-.93-3.59,2.41-7.72-1.52-13.55-2.25-3.33-7.09-4.47-8.43-6.03-2.29-2.66-2.03-7.43-7.67-10.74-4.75-2.79-8.45-1.1-12.25-2.21-2.74-.8-3.96-4.42-10.74-5.03-6.45-.58-9.61,2.37-12.52,2.4s-6.26-5.49-15.21-3.35c-5.14,1.23-8.35,6.43-9.98,7.14s-6.65-2.37-12.7,1.73c-4.06,2.74-3.99,7.3-5.35,8.45-1.8,1.53-4.89-.35-7.86,3.97-.61.88-3.21,6.58-3.07,7.5.12.74,3.03,4.38,3.22,6.07.26,2.27-2.11,6.09-1.87,9.69.32,4.74,4.1,6.88,4.6,9.24,1.51,6.99-2.94,18.89,1.99,26.59-5.32,1.86-12.72-.06-16.45-4.25-1.14-1.28-1.27-3.96-2.61-4.63-1.74-.86-7.72-.16-10.56-.61-19.87-3.15-31.24-34.81-11.24-46.13-10.63-20.76,3.85-42.95,26.77-42.92.03-26.33,26.22-41.46,50.26-33.85,7.48-30.75,53.72-39.14,70.76-12.23,14.71-8.98,35.04-6.82,47.58,4.96v130.47Z" fill="#fff"/>
  <path d="M115.19,638.18v10.19c0,14.52,30.56,33.36,43.56,31.06,4.57-.81,11.94-6.36,15.54-9.44,1.09-.93,5.08-6.23,5.46-6.41,1.67-.76,6.47-.7,9.07-1.41,5.49-1.5,10.55-3.96,15.79-5.33,1.9,1.36,3.84,2.8,5.59,4.33,18.58,16.18,37.08,53.77,35.14,78.55-3.38,43.19-55.24,29.22-81.51,17.42.57-4.08,7.68-4.8,8.95-5.83,1.05-.86.56-2.4,1.37-3.41.89-1.12,21.88-13.53,24.5-14.77,8.29-3.93,17.34-5.85,26.33-7.54-.44-3.98-7.2-.68-9.19-1.61-.89-.41-4.28-6.2-5.58-7.61-1.22-1.33-5.46-3.56-5.94-4.58-1.46-3.11.99-25.51-2.04-26.23-.38.18-2.23.48-2.23.6v20.7c0,.38-.93,1.48-.68,2.3-7.48-1.99-15.58-1.58-23.02.3-5.42,1.37-10.8,5.34-15.71,6.64-5.45,1.44-13.01,1.62-18.68,3.49-7.88-8.43-19.09-12.8-30.09-15.95-.7-2.88-3-18.51-4.93-19.39-.58-.26-1.53-.01-2.22-.08l3.29,19.07c-9.05-.11-31.97,3.42-28.79,16.62.41,1.69,2.29,2.83,2.4,3.52.15.98-2.14,2.63-1.63,5.51.78,4.33,5.28,3.47,5.65,3.94.52.66-1.67,4.37.7,6.86,7.32,7.65,26.42-6.41,33.7-9.63,11.72-5.19,24.46-7.81,36.86-10.87,1.52.17,6.95,6.08,7.99,7.69,1.68,2.6,6.99,18.42,6.15,20.63-26.45,19.83-77.79,42.81-104.72,12.84s-25.21-80.37,6.23-105.36c12.06-9.59,27.76-14.28,42.68-16.82Z" fill="#fff"/>
  <path d="M370.05,544.43c39.29,33.92,22.44,123.32-39.57,118.76-39.38-2.9-59.39-39.28-94.97-49.34,4.79-2.68,13.24-3.82,18.75-3.92,15.88-.28,51.89,7.77,65.35,16.14,6.41,3.98,16.87,16.78,21.46,2.93,2.83.99,4.29,1.79,7.33.77,4.25-1.42,2.75-4,4.07-5.79,1.67-2.27,7.73-1.3,7.16-7.66-.05-.59-2.46-5.21-2.84-5.73-4.5-6.08-12.54-8.7-19.76-9.85l2.36-26.33c-.53.08-1.82-.13-1.96,0-.62.56-1.57,14.45-2,16.63-.1.49-1.16.44-1.27.93-.57,2.56.28,6.16-1.64,8.76-12.27,1.17-23.67,6.39-33.15,14.12-17.18-4.49-34.38-9.16-52.38-7.48-3.72-3.14-3.53-39.32-1.65-45.16,1-3.11,4.74-3.82,4.65-6.85l-6.57,1.96-1.97-10.51c13.73,3.88,20.66-3.97,31.44,8.32,1.96,2.24,6.27,9.28,7.27,11.93.6,1.59,4.85,26.43,8.98,15.28,1.55-4.17,1.56-17.15,3.94-20.38.77-1.05,9.18-6.23,11.13-7.94,7.98-7.02,12.3-14.57,16.77-24.03,6.28,1.18,12.28,3.95,18.76,4.31,4.02.23,10.59-1.25,13.63-.48,2.3.58,14.42,8.63,16.69,10.59Z" fill="#fff"/>
  <path d="M487.31,66c4.49-33.03,58.05-39.36,71.36-8.85,1.51.33,7.32-6.43,9.29-7.81,6.59-4.64,15.24-6.7,23.24-6.68v75.59c-47.88-.28-95.8.38-143.69-.03-7.56-.07-18.61,1.68-25.64-1.91-9.11-4.66,7.52-11.97,12.15-12.89,1.98-.39,7.54.14,8.32-.92-6.15-24.34,24.6-38.26,43.47-25.76l1.51-.89c.3-3.12-.41-6.85,0-9.86Z" fill="#fff"/>
  <path d="M194.08,552.74l-5.88,8.8c7.18,3.86,17.84.97,24.75-2.76,1.57-.85,7.4-5.68,8.37-5.37.63,3.84,8.03,10.41,8.79,12.94,5.22,17.36-7.35,66.6-19.89,80.41-27.64,30.41-97.45,6.94-94.37-37.49-16.22,1.66-26-7.26-24.14-23.81,2.05-18.26,23.69-14.84,27.09.15,3.31,3.66,14.44-8.63,16.25-11.37.33-.51,3.76-6.88,3.91-7.29.84-2.4,2.05-14.01,2.87-14.21,16.76,7.83,35.49,7.69,52.25,0ZM152.01,571.79l.65,3.63c7.22,1.16,17.36,8.06,24.19,8.73,2.66.26,3.37-.68,2.49-3.19-3.63-1.29-25.49-11-27.32-9.17ZM223.61,585c-.69-1.08-17.65.02-19.96.62-1.1.29-4.26,2.07-3.66,3.58,1.01,2.54,22.15.18,23.36-1.63l.26-2.57ZM163.69,587.06c-7.19,1.1-8.11,15.82,2.4,14.3,9.3-1.35,8.36-15.94-2.4-14.3ZM216.08,599.79c-8.09-14.73-18.71,8.96-7.87,9.54,6.2.33,5.7-4.34,8.89-7.68.45-1.65-.79-1.46-1.02-1.86ZM192.33,601.84c-.49-1.03-.07-2.23-.32-3.31-3.45-3.54-3.59,2.3-3.02,4.99,1.29,6.04,9.7,7.12,7.43,14.32-1.27,4.03-8.8,4.32-12.21,4.87-2.36,3.61,7.72,2.44,9.71,1.82,3.22-1,8.54-7.31,7.37-10.84-2.17-4.07-7.09-7.94-8.95-11.85ZM161.21,638.18c6.45-.1,11.14-2.02,17.64-.21,1.58.44,8.92,5.53,8.48.53-.25-2.76-10.74-4.84-13.26-4.95-3.57-.15-12.69.12-12.86,4.62Z" fill="#fff"/>
  <path d="M153.57,445.37c3.41,12.56,4.6,27.73,3.72,41.33-.47,7.27-2.12,13.54-4.55,20.29-19.53,4.53-36.48,16.13-45.92,33.92-27.48,1.78-54.47-12.67-62.65-39.76-8.67-2.06-16.33-.8-21.57-9.33-2.16-3.52-4.11-8.84-3.38-12.88.08-.44,1.07-.43,1.23-.98,1.67-5.84,2.92-10.4,10.24-10.71,9.32-.4,12.64,8.03,15.14,7.93,13.48-7.86,13.57-25.62,12.15-39.43,29.64,6.14,60.96,5.53,89.67-4.45,2.76.59,5.21,11.5,5.91,14.09ZM151.97,458.78c-.92-1.08-25.7,1.11-26.91,2.25-1.08,1.03-1.08,2.93.43,3.51s25.69-2.17,26.43-3.28c.23-.34.21-2.3.05-2.49ZM99.38,461.42c-8.08-.84-16.5-1.9-24.62-2.08-2.65-.06-5.09.14-4.23,3.3,4.9.09,25.65,3.5,28.48.75.68-.67.45-1.17.37-1.98ZM152.01,470.57c-4.08.38-23.52-.19-25.61,1.67-.88.78-.77,1.17-.68,2.27h8.55c-1.04,5.84,4.74,11.48,9.91,6.95,2.34-2.05,3.32-5.19,1.27-7.6,2.12-.82,6.35-.23,6.57-3.29ZM74.43,476.49h10.52c-2.43,13.05,13,10.25,9.86-1.31l3.79-.49.81-1.48-24.98.65v2.63ZM116.94,475.94l-1.48,1.9c6.03,9.62,18.35,12.13,2.02,20.98l-.31,1.64c.82,2.88,12.9-1.93,12.52-9.82-.27-5.45-7.93-12.46-12.75-14.71ZM100.28,516.13c-4.51,5.41,8.24.56,9.33.47,3.7-.31,5.73.55,9.17,1.33,2.9-.42,1.68-3.15-.47-4.13-4.03-1.84-15.08-1.21-18.03,2.33Z" fill="#fff"/>
  <path d="M209.79,435.16c.44.31,2.96,6.15,6.05,8.73,5.92,4.94,25.38,11.39,17.04-2.89,9.44,6.16,20.78,10.05,32.18,7.84,1.62-2.22-7.02-7.96-5.88-9.16,9.54,4.77,20.47,4.51,30.9,5.25-.57,10.19,2.01,19.96,9.19,27.3,1.83,1.87,6.29,6.67,9.21,5.27,11.38-20.03,31.91-6.46,22.28,13.7-3.98,8.33-11.87,9.42-20.35,9.24-1.98,25.45-25.35,41.31-49.02,44.33-5.28.67-17.67,1.44-22.15-1.35-1.41-.88-4.37-6.97-6.11-9.01-1.77-2.08-5.1-5.49-7.14-7.32-2.67-2.39-12.77-8.47-13.77-9.9-3.11-4.46-7.43-23.28-8.26-29.21-2.35-16.92-3.12-37.07,3.98-52.85.56-.02,1.48-.22,1.84.04ZM273.49,466.81c-2.41.21-16.91,4.09-18.47,5.19-1.9,1.34-1.58,3.34.56,3.84,4.55,1.06,20.64-5.94,25.95-6.92.64-2.62-6.69-2.22-8.03-2.1ZM207.98,473.79c4.68-.1,9.3.27,13.95.83,2.34.29,12.14,4.02,12.3.23.15-3.28-14.62-5.5-17.44-5.62-3.13-.13-10.57.59-8.81,4.55ZM260.03,480.62c-5.3,5.29,2.69,16.54,9.65,11.94,5.41-6.03-3.44-18.14-9.65-11.94ZM231.85,486.74c-5.89-13.04-18.33.42-10.16,8.49,5.14,5.08,8.75-2.52,11.17-6.07v-1.69c-.13-.46-.92-.53-1.01-.73ZM240.51,495.95c1.14-2.2,5.36-8.17.95-8.92-3.4,5.98-13.64,17.64-5.24,23.26,3.62,2.42,12.28,3,14.32-1.37-.24-3.98-10.81,2.25-13.39-2.19-2.38-4.1,1.95-8.07,3.36-10.78ZM261.53,521.47c-13.15-8.41-24.31,4.38-15.2,10.9,4.24,3.03,17.89,3.26,18.81-2.94.48-3.23-.95-6.26-3.61-7.97Z" fill="#fff"/>
  <path d="M50.1,838c-.29-.29.5-7.09.69-8.06.48-2.4,2.1-7.61,2.9-11.02,1.1-4.69,10.39-36.08,13.25-36.66,42.94,11.44,89.28,12.03,132.39.53.89,2.88,2.43,5.17,3.47,8.05,5.46,15.07,8.33,31.32,11,47.17H50.1Z" fill="#fff"/>
  <path d="M4.74,838c.13-28.57.33-57.35,3.3-85.77,2.12-20.34,5.72-42.38,12.41-61.34.75-2.13,3.31-12.09,5.07-12.52,7.64,2.33,15.21,4.82,23.27,5.18-5.43,13.85-5.22,28.41-2.42,42.84,1.89,9.7,6.05,18.76,10.87,27.27,1.57,2.77,4.78,4.78,5.32,7.82.21,1.17,1.3,17.93,1.2,18.88-.31,2.96-4.23,8.6-5.06,10.86-5.49,14.92-9.98,31.01-11.88,46.8H4.74Z" fill="#fff"/>
  <path d="M3.43,309.53c2.53-.54,4.66,2.99,6.54.28-3.05-7.36-3.26-19.35,4.71-23.55,5.85-3.08,8.58-1.05,14.42-.02,2.23-10.29,8.6-15.5,19.37-14.18,4.54.56,7.23,4.68,9.14,4.61,1.58-.06,5.78-4.1,8.93-4.95,7.48-2.01,17.35-.48,21.69,6.6,1.53,2.5,3.82,8.25,3.28,11.03-.09.48-2.08.6-1.28,2.39,3.03,1.8,4.75-1.05,7.16-1.53,13.18-2.59,15.8,4.96,16.46,16.39,5.74-1.84,12.2-2.47,17.07,1.98,4.14,3.8,2.48,11.87,3.32,16.43,11.91-4.07,21.2,1.04,20.41,14.08-50.27-4.08-100.69-6.73-151.22-5.92v-23.66Z" fill="#fff"/>
  <path d="M41.23,586.26c-4.58.64-14.91,5.03-16.7,9.59-2.51,6.42,1.9,7.4,1.94,7.85.06.75-1.92,2.8-1.98,4.65-.16,5.51,5.74,5.2,6.41,6.31.73,1.2-.46,3.65,2.12,5.44,2.23,1.55,4.66.49,5.93,1.31.85.55.51,3.11,3.23,3.99,7.36,2.4,17.13-7.57,23.91-9.68l26.75-9.73c.67.65-4.19,11.25-4.92,12.5-3.27,5.64-8.81,8.6-7.19,15.83,1.18,5.26,5.58,4.63,7.5,8.46-4.96,1.68-10.71,4.66-14.96,7.73-3.87,2.8-9.37,10.23-13.6,10.73-62.67,7.32-75.73-94.91-17.25-120.45,2.74-1.2,17.01-6.58,18.55-4.5,2.62,17.29,20.93,26.22,36.51,29.33,1.73,5.82-5.12,7.42-7.29,11.28-2.92,5.2-2.76,12.29-1.65,17.94.63,3.22,1.97,5.57,2.98,8.51-11.21,5.57-8.08,1.46-15.12-4.93-3.79-3.44-9.62-7.3-14.28-9.39-1.66-.74-5.95-1.12-6.77-1.78-1.77-1.42-1.16-11-5.6-12.15-1.22-.16-.94-.02-.98.97-.11,2.72,2.34,7.11,1.98,10.19-3,.29-6.63-.4-9.53,0Z" fill="#fff"/>
  <path d="M591.19,665.79h-94.35c-1.43,0-6.96-1.37-8.47-2.04-9.43-4.24-2.73-19.35,4.97-21.17,3.76-.89,6.73-.3,10.4.21-5.01-18.75,4.83-28.11,23.01-21.04-6.08-15.2,1.6-28.48,18.07-19.06,1.26-.32.13-7.37.4-9.47.79-6.07,8.27-10.25,14.23-8.43,4.83,1.47,6.03,7.23,10.69,6.73-.95-6.34,3.37-15.26,10.86-15.12,2.43.04,10.18,3.66,10.18,6.24v83.15Z" fill="#fff"/>
  <path d="M161.46,415.12c.09.18.96.33,1.26,1.06,4.78,11.96,4.13,29.61-2.83,40.58-1.49.89-2.67-12-2.93-13.17-1.32-5.87-4.37-10.89-8.03-15.65-8.9,1.18-17.35,4.86-26.37,6.28-22.38,3.51-45.81,2.31-67.85-2.43,1.9,13.24,3.34,30.54-8.77,39.38-5.83-5.34-12.47-8.73-20.44-5.94l-.89-1.04c-.35-3.02-1.25-6.01-1.48-9.04-5.52-72.14,113.73-92.13,138.33-40.02Z" fill="#fff"/>
  <path d="M3.43,59.76c.14-.41,6.28-5.2,6.75-5.41,8.4-3.73,16.8.36,23.8,4.75,2.99-8.56,3.24-15.95,11.59-21.3,18.32-11.74,48.99-1.8,47.37,22.51,2.88,1.9,3.51-1.29,5.6-2.41,8.69-4.65,20.51-3.31,24.73,6.64,1.72,4.07.53,6.11,1.1,10.05,6.64-.86,17.57-1.83,22.18,4.43,6.94,9.42-10.91,11.21-16.54,11.66l-126.58.63v-31.55Z" fill="#fff"/>
  <path d="M239.45,314.13c5.6.93,6.48-3.51,13.41-1.25,6.91,2.25,3.85,8.37,6.64,12.41,11.3-10.05,18.75-1.77,16.11,11.19,2.6.21,4.97-1.42,7.54-1.34,10.83.32,17.05,13.64,9.83,21.62l-135.07-16.99.62-8.26c4.7-4.97,10-1.01,15.14.36.22-8.07,4.49-16.35,13.87-13.49,1.99.61,4.09,4.18,6.85,4.3,1.71-.41.05-12.43,4.02-16.37,6.3-6.27,12.77,1.78,14.68.54-.26-10.84,9.29-22.3,20.1-14.39,2.42,1.77,6.25,8.71,6.25,11.5v10.19Z" fill="#fff"/>
  <path d="M501.75,273.41c.33,4.58,2.53,8.21,7.19,9.25l.09,1.53c-3.98,1.96-4.42,9.73-1.63,12.82,1.53,1.7,3.91,1.15,4.19,5.02,1.9,1.46,5.84-2.83,7.92-3.36,15.26-3.92,13.58,18.84-.36,20.66-2.57.34-5-.17-7.52-.33-9.03,26.38-61.62,28.29-71.11,2.16-5.75-15.82-.98-35.44,5.39-50.41,5.37,4.36,10.74-1.78,13.35-1.83,1.93-.03,5.87,3.01,8.3,3.5,5.21,1.05,11.01.19,14.83-3.64,4.73,5.96,12.33,6.81,19.37,4.61ZM446.63,279.36c-.36,2.08-.12,3.22,2.15,3.21.61,0,11.26-2.41,11.88-2.65,4.35-1.69-.97-3.13-3.18-3.17-1.36-.02-10.41,1.92-10.85,2.61ZM496.98,281.46c-1.7-2.31-14.99-5.05-15.58-2.48.92,3.03,5.89,2.45,9.05,3.42,2.77.85,4.58,2.97,7.38,2.81.07-1.34-.02-2.63-.85-3.75ZM452.29,289.29c-4.09,1.22-3.95,11.73,1.78,11.06,4.46-.65,5.56-13.24-1.78-11.06ZM484.23,300.79c4.61,3.74,7.08.14,7.09-4.74.02-10.53-11.86-2.27-7.09,4.74ZM470.22,294.42c-10.78,2.4-18.62,15.67-1.97,16.42,0-2.54-3.58-2.42-4.9-3.97-4.52-5.32,9.75-9.53,6.87-12.46ZM485.14,323.8c1.89-2.69,2.57-6.74-1.66-7.34-2.58-.36-21.4.32-23.1,1.31-4.85,5.51,3.63,12.11,8.92,12.74,4.9.58,13.02-2.68,15.84-6.71Z" fill="#fff"/>
  <path d="M523.7,429.63c.02.13,1.02.22,1.07.66,2.5,20.11,6.22,36.87,14.21,55.4-2.91,3.26-20.2,9.19-23.01,7.19-1.51-1.08-4.2-10.37-4.99-12.76-9.66-28.98-11.14-71.01-7.79-101.8,1.3-11.9,4.37-23.55,6.48-35.26.56-.57,12.55,3.9,13.07,5.7-2.96,10.84-6.44,24.23-3.17,35.35.75,2.56,2.83,4.51,3.21,6.65,1.87,10.45-.49,26.91.92,38.88Z" fill="#fff"/>
  <path d="M591.19,338.45v85.45l-18.74-5.91c-3.37-9.45-5.25-19.73-8.93-29.06-5.32-13.5-9.53-15.52-7.22-33.1.7-5.34,12.46-12.23,13.95-18.59,7.19,1.03,13.59,3.63,20.94,1.21Z" fill="#fff"/>
  <path d="M65.23,765.04c5.35,2.83,9.86,6.83,15.61,9.04,26.97,10.38,56.33-2.85,80.04-15.66,12.8,6.51,26.45,11.35,40.79,13.17l1,1.01c-.5,3.19-2.26,6.49-5.41,7.76-5.8,2.34-18.1,4.03-24.62,4.96-35.27,5.04-71.54,3.04-105.94-5.95-.2-.15-1.45-4.52-1.45-4.8v-9.53Z" fill="#fff"/>
  <path d="M381.68,643.91c.09.22,1,.02,1.15,1.14.25,1.87.13,15.33-.49,16.21-12.6,8.29-29.1,12.39-44.04,14.3-18.64,2.38-41.67,3.03-60.29.67-4.71-.6-21.1-3.57-24.57-5.67-2.57-1.55-3.06-5.74-4.13-8.36,14.49-.61,27.82-3.82,40.46-10.8,29.14,19.1,71.27,24.44,91.37-9.91.64.42.14,1.49.54,2.43Z" fill="#fff"/>
  <path d="M285.45,649.98c-20.78,9.99-53.2,14.31-70.96-2.9.09-2.37,2.42-2.82,3.42-4.47,4.49-7.46,7.95-17.33,10.32-25.67,3.46-5.11,24.55,6.74,28.67,9.4,9.69,6.26,18.24,15.01,27.9,21.4l.65,2.25Z" fill="#fff"/>
  <path d="M577.9,303.76c.36.06,3.9,5.85,3.95,6.22.29,2.2-14.76,27.21-17.32,30.42-1.65,2.07-10.95,10.47-11.34,11.65-1.21,3.76.3,13.51-.13,17.95-13.13-16.44-30.36-28.53-51.27-32.87,1.44-3.08,4.57-5.42,7.88-3.94l.06-1.88c7.36,1.08,8.88-6.42,11.8-8.94,1.17-1.01,3.43-1.25,5.25-2.63,4.04-3.06,6.99-9.16,7.25-14.11l7.86-.04-1.03,29.62,1.36.66c12.86-4.11,21.41-13.72,26.94-25.67.59-1.27.83-4.06,1.13-4.45.28-.37,6.92-2.09,7.61-1.97Z" fill="#fff"/>
  <path d="M509.01,342.41c.03,1.35-1.39-.09-2.19,1.44-1.06,2.02-3.52,17.18-4.19,20.77-5.78,31.1-5.5,61.03-.01,92.3,2.5,14.26,6.2,27.77,12.74,40.55,5.73-2.08,11.79-3.17,17.49-5.36,5.45-2.1,8.64-7.92,11.02,1.77-2.3,7.39-33.44,16.84-37.5,14.49-2.71-4.63-3.54-10.12-5.16-15.19-12.63-39.71-13.21-87.65-5.92-128.67.67-3.78,3.87-22.22,6.89-23.37l6.82,1.27Z" fill="#fff"/>
  <path d="M547.57,368.26c2.87,3.62,8.27,12.75,10.21,17.07,2.89,6.45,4.38,13.64,7.12,20.16-9.38,3.4-18.91,7.3-29.18,6.62-1.3-3.45-1.72-7.24-3.1-10.68-2.32-5.76-10.88-18.56-11.6-23.38-1.37-9.23,2.09-19.43,4.44-27.76.74-.14,1.28.08,1.94.35,3.83,1.53,17.32,14.02,20.17,17.63Z" fill="#fff"/>
  <path d="M445.67,409.91c-.49,2.97-1.92,8.28-2.72,12.04-4.92,23.33-14.65,44.75-18.79,68.32l-10.73-2.55c-1.79-1.85.76-2.86.84-3.21,6.76-30.31,18.9-59.25,23.71-89.35,2.4-15.03,2.77-31.23,5.29-46.35l8.21-4.43,1,1.6c-3.57,21.11-3.33,42.82-6.81,63.92Z" fill="#fff"/>
  <path d="M217.76,838c-.17-2.2-.19-5.33-.7-7.39-1.97-7.86-3.79-17.25-6.07-25.6-2.96-10.85-11.03-21.93-4.97-32.63,10.1.34,19.43-.76,28.49-5.37l-3.61,71h-13.15Z" fill="#fff"/>
  <path d="M461.45,356.01c-3.5,30.01-5.59,60.06-13.25,89.59-1.66,6.41-4.39,12.49-6.06,18.91-3.43,13.12-6.51,25.43-8.12,38.88-1.52,1.3-18.43-1.59-21-2.92-3.59-1.86-1-6.07-.57-9.44l12.76,1.6c2.04-.42,2.82-11.26,3.53-13.89,4.85-17.98,11.7-35,15.9-53.67,4.49-19.94,6.48-42.55,9.12-62.77.34-2.58.89-18.17,2.44-18.62.92-.27,5.24-.17,5.85.66-.61,3.86-.15,7.79-.6,11.66Z" fill="#fff"/>
  <path d="M3.43,624.38c1.9-.35,1.06.52,1.49,1.44,4.42,9.73,6.42,19.97,16.18,26.62-2.77,10.32,3.13,19.76-.64,29.25-.22.55-1.21.66-1.61,1.8-8.23,23.23-12.1,47.93-14.1,72.7l-1.32.97v-132.77Z" fill="#fff"/>
  <path d="M440.63,350.95c-2.22,6.09-1.79,13.11-2.65,19.25-.06.45-1.19.45-1.26.94-.85,6.08-.55,18.32-2.81,23.37-2.04,4.55-15.43,10.35-20.47,11.6-1.79-.85-.29-2.41-.56-4.01-.71-4.16-1.46-8.47-2.67-12.51-1.63-5.45-4.63-9.16-6.37-14.29,14.75-4.18,24.14-17.11,36.8-24.34Z" fill="#fff"/>
  <path d="M137.54,719.04c.27,1.31-.63,1.57-1.51,2.09-2.83,1.7-10.8,3.31-14.72,5.01-10.53,4.57-22.13,15.17-33.69,11.24,1.95-9.73,16.88-10.88,24.92-13.42-5.7-6.85-23.91,7.72-27.85,6.17-.75-.29-1.24-2.44-2.37-3.2,1.98-1.1,2.18-2.84,4.39-4.49,2-1.5,8.31-4.39,10.75-5.03,1.72-.45,10.48-1.11,10.48-2-3.7-3.38-10.35-.97-14.61.5-2.8.97-9,5.45-11.02,3.45-3.85-3.81,4.41-8.59,7.24-9.86,16.98-7.61,33.85-.35,47.98,9.53Z" fill="#fff"/>
  <path d="M79.65,607.91c-5.45,2.19-11.78,3.78-17.04,6.3-3.58,1.71-17.33,12.35-20.11,8.23-1.49-2.63,4.77-6.44,6.9-7.63,1.38-.77,11.34-3.53,9.24-5.54-6.1-2.25-20.73,14.06-24.67,7.91s12.75-11.1,16.63-12.34c.96-.31,7.71-.03,5.13-2.83-2.23-2.42-18.3,4.53-21.34,6.34-1.45.87-4.47,5.8-5.88,1.79-2.86-8.13,18.83-14.6,24.89-13.36l-.05-1.91c-6.24-1.91-13.7.55-19.48,3.1-2.31,1.02-3.56,4.23-6.7,2.69-2.07-2.76,4.66-7.88,6.94-9.02,8.22-4.12,20.76-2.63,28.95,1.08,3.04,1.38,18.4,12.15,16.6,15.2Z" fill="#fff"/>
  <path d="M211.84,725.6c-14.61,2.48-25.89,12.7-38.79,19.06.47-10.2-4.41-17.85-9.83-25.88.49-3.2,21.09-8.12,24.63-8.28,10.69-.49,20.28,5.04,23.99,15.1Z" fill="#fff"/>
  <path d="M309.79,519.21l7.14,9.67c-3.13,14.54-15.62,23.78-27.16,31.76l-4.28,15.1c-1.28-9.39-5.7-18.76-12.46-25.35-1.36-1.33-4.74-1.5-4.64-4.22,12.82-2.27,26.54-9.65,35.27-19.29,1.01-1.12,4.93-8.54,6.14-7.66Z" fill="#fff"/>
  <path d="M461.57,427.29c-1.79,9.43-3.77,19.05-5.05,28.6-1.42,10.49-3.37,22.9-4.1,32.72-.43,5.82.42,12.23.05,18.12l-15.78-1.98c2.19-11.25,3.65-22.67,6.63-33.8.59-2.21,2.34-4.86,2.52-5.51,3.53-12.85,6.99-25.69,10.5-38.53l5.24.37Z" fill="#fff"/>
  <path d="M387.88,405.32c-.75.83-18.28,8.21-20.43,8.84-2.65.77-5.63,2.05-7.67-.45.4-2.59,10.66-4.77,7.23-7.25-1.85-1.34-12.11,6.04-13.16,4.95-.75-5.39,6.37-4.7,8.87-7.23.74-.75,1.72-1.37.34-2.31-2.56-1.73-13.29,7.02-13.86,1.97-.52-4.59,14.98-5.43,11.88-8.86-1.54-.25-14.48,4.87-13.79,1.01.77-4.27,14.93-9.4,19.24-8.1,2.18.65,6.6,7.98,9.36,3.14-2.65-.81-9.79-7.24-8.83-10.09l1.58-1.08c15.21.07,20.09,12.07,19.25,25.47Z" fill="#fff"/>
  <path d="M470.88,427.19c-.74,8.62-.59,17.39-1.27,26.01-.09,1.18-1.33.71-1.41,1.89-1.3,17.55-1.77,35.38-.6,52.96-11.21-.84-12.75,2.48-12.53-9.57.45-24.51,5.51-47.66,9.25-71.28h6.57Z" fill="#fff"/>
  <path d="M118.48,634.9c13.24,17.91,33.76,29.35,56.54,28.93-2.53,5.06-14.04,12.55-19.39,12.53-10.69-.04-37.15-16.65-37.15-27.99v-13.47Z" fill="#fff"/>
  <path d="M484.22,506.57c.11.36,1.42-.23,1.12.8l-13.48,1.14-.97-1.46,2.62-79.87c2.3.39,6.64-1.26,7.24,1.65-.71,17.81-1.46,36.79,0,54.54.47,5.69,1.86,18.09,3.47,23.2Z" fill="#fff"/>
  <path d="M247.59,667.52c.09.18.92.39,1.25,1.07,2.53,5.22-1.62,6.2-2.48,11l-4.6,23c-3.79-5.23-5.47-12.26-8.7-18.22-5.19-9.59-14.69-20.52-22.87-27.79-1.03-.92-3.59-.68-2.91-2.9l4.79-3.62c9.43,8.31,21,11.2,33.32,12.09.96,1.73,1.31,3.6,2.19,5.37Z" fill="#fff"/>
  <path d="M334.15,609.28c-.09.05-.58,1.64-.4,1.96,3.17,1.63,19.03,11.31,14.67,15.6-3.94,3.87-12.73-6.65-16.07-8.91-.75-.51-9.5-6.37-7.13-1.42,1.25,2.63,14.82,8.59,12.74,13.99-2.41,6.55-15.31-6.59-18.38-8.35-4.46-2.56-10.59-4.91-15.71-5.67.04-.61-.16-1.27.16-1.84.48-.85,10.87-6.19,12.54-6.83,10.5-4.01,26.02-6.02,35.32,1.74,2.87,2.4,6.58,9.46,1.46,10.76-3.32.85-15.21-13.17-19.21-11.05Z" fill="#fff"/>
  <path d="M492.17,473.63c.78,3.84,2.56,9.95,3.74,14.31,1.72,6.36,4.05,12.49,5.87,18.78l-13.72.57c-1.2-4.18-1.87-8.53-2.63-12.81-1.38-7.77-2.4-16.96-2.75-25.52-.57-13.81.09-27.98.69-41.77l4.51,1.08c.24,14.98,1.29,30.69,4.29,45.36Z" fill="#fff"/>
  <path d="M99.27,561.79c-1.52,2.09-14.92-3.1-17.4-4.34-8.36-4.18-17.78-13.23-17.96-23.12,12.8,5.65,25.8,10.49,40.12,10.17l-4.76,17.29Z" fill="#fff"/>
  <path d="M392.64,398.6c-.68-5.58-6.27-12.53-8.55-17.73l17.05-4.27c3.7,9.58,10.46,19.65,8.64,30.56-.25,1.51-.72,1.03-1.86,1.42-4.16,1.41-10.81,2.05-15.28,2.18-.34-3.87.46-8.39,0-12.16Z" fill="#fff"/>
  <path d="M58.65,664.47l-9.53,15.84-23.91-5.42c.18-2.28-3.88-20.15-1.08-20.26,5.19,4.38,16.79,9.84,23.67,9.84h10.85Z" fill="#fff"/>
  <path d="M567.49,427.86c2.55,4.49,3.66,19.47-1.62,21.67-2.18-.59.82-5.63-.42-7.46l-3.2-.71c.32,2.86-.37,11.6-4.27,11.45-1.35.18-.85-.06-.98-.96-.38-2.71.14-5.8.6-8.48l-3.23-1.07c-3.16,20.78-4.87,9.4-9.88-1.03l-9.19,3.65,3.29-13.14c9.85.62,19.56-.84,28.88-3.94Z" fill="#fff"/>
  <path d="M558.97,296.39c.28,5.1,4.44,6.39,8.47,7.97,2.72,4.56-16.36,28.13-23.58,26.86l.97-25.64,14.14-9.19Z" fill="#fff"/>
  <path d="M566.2,408.12c-.36,3.83,4.07,13.07,1.58,15.71-3.4,3.6-27.04,7.01-30.15,2.67-.96-1.34-2.38-10.58-1.05-11.52,10.43-.17,19.99-3.43,29.62-6.86Z" fill="#fff"/>
  <path d="M445.82,537.54c-.3.22-4.67.24-5.09-.02-.59-10.81-7.41-17.91-16.89-22.25l1.02-9.2,25.35,3.9c.18,3.33-3.27,26.74-4.39,27.58Z" fill="#fff"/>
  <path d="M529.98,506.77l5.75,9.48-6.04,12.81c-3.46-1.4-6.66-3.62-10.18-4.9-2.34-.85-5.74-.63-7.21-1.33-.85-.4-6.2-9.06-7.22-10.53l24.91-5.53Z" fill="#fff"/>
  <path d="M495.2,349.63c.42.45-2.74,10.82-3.63,11.78-1.27,1.37-7.22,3.31-7.55,4.46l-1.96,33.71h-6.58c1.12-4.01.23-8.22.61-12.2.11-1.19,1.31-.71,1.42-1.89.8-9.09.18-18.45,1.37-27.54l16.33-8.32Z" fill="#fff"/>
  <path d="M473.51,399.59h-5.92c.09-5.29.07-10.89.61-16.15.12-1.19,1.3-.7,1.42-1.89.29-2.83,1.19-14.93-.05-16.48-.72-.9-4.58-1.76-5.15-3.39-1.06-3.03,1.06-7.51.54-10.73.43-.5,10.72,4.93,11.06,7.03l-2.51,41.61Z" fill="#fff"/>
  <path d="M457.08,424.56l1.72-9.9,29.08,1.78c-.1,1.86.98,7.28-.99,8.03l-29.81.09Z" fill="#fff"/>
  <path d="M591.19,316.11v19.06c-6,1.44-12.05,1.86-17.76-1l10.51-21.06,7.26,2.99Z" fill="#fff"/>
  <polygon points="459.04 412.07 459.7 402.21 487.98 402.87 486.99 412.07 459.04 412.07" fill="#fff"/>
  <path d="M498.49,339.78c-1.44,9.34-13.01,9.84-19.54,15.01-4.9-2.75-15.69-5.44-13.99-12.39,11.64,2.31,22.23-.84,33.53-2.62Z" fill="#fff"/>
  <path d="M229.6,612.54c1.07-4.12,1.07-10.17,1.99-13.99.16-.67,1.46-4.93,1.9-6.1.95-2.56,7.04-8.95,8.59-12.11.06,9.1-.5,18.36,1.91,27.23l-14.39,4.97Z" fill="#fff"/>
  <path d="M504.41,533.01c6.36-13.4,22.03-2.34,29.57,4.28-2.2.79-7.29,4.8-9.27,4.62-2.38-.22-4.51-3.77-6.7-5.08-3.6-2.17-9.39-3.63-13.6-3.82Z" fill="#fff"/>
  <path d="M436.96,534.1c.13.3,1.63.05,1.04,1.54-1.32,1.26-11.27-.48-12.5-1.62-.48-.45-1.39-5.05-2.74-7.15-2.09-3.28-6.62-5.55-9.74-7.64,13.59-3,18.98,3.9,23.93,14.88Z" fill="#fff"/>
  <path d="M421.19,531.46c.08.17,2.15.92.7,2.22-5.48-1.83-12.04-2.49-17.43-4.27-1.65-.55-5.7-1.54-5.17-3.83,6.66-8.85,18.12-2.56,21.9,5.87Z" fill="#fff"/>
  <path d="M520.84,544.18c-7.51,2.46-32.65,2.8-17.42-8.94,5.84,1.71,14.53,2.66,17.42,8.94Z" fill="#fff"/>
  <path d="M442.6,542.21c-2.48,2-42.99-4.07-46.02-11.82l44.92,9.97,1.1,1.85Z" fill="#fff"/>
  <path d="M464.96,399.59h-4.61c.16-1.76-.26-3.75.03-5.45.09-.49,1.2-.25,1.34-1.41,1.1-8.77.99-18.45,1.92-27.32,2-.27,3.28.94,3.31,2.93l-2,31.25Z" fill="#fff"/>
  <path d="M491.26,364.75l-3.29,34.84h-2.62c.07-3.38-.12-6.79,0-10.18s1.47-21.23,2.63-23.01c.22-.33,2.96-2.04,3.27-1.65Z" fill="#fff"/>
  <path d="M540.33,521.42c.78.75,2.91,4.1,2.78,5.2l-6.82,8.36c-6.34-3.7-1.36-9.78.97-14.82.94-.56,2.45.66,3.07,1.27Z" fill="#fff"/>
  <path d="M340.73,132.69c4.87-.67,7.61-3.38,12.88-3.82,11.91-1.01,23.44,6.6,23.91,18.97,19.79-5.95,43.81,18.29,12.19,22.38-40.13-2.18-83.17,2.81-122.96-.04-7.54-.54-20.85-2.68-22.53-11.65-3.25-17.33,18.36-28.2,32.71-21.2-.27-18.41,22.09-26.87,37.79-25.62,11.53.92,24.38,8.67,26.02,20.99ZM334.4,126.52c-9.28-14.02-30.05-14.98-43.63-6.58-8.72,5.39-10.11,11.79-10.51,21.69-3.66.97-5.3-2.41-9.34-3.24-8.81-1.81-20.37,3.24-23.53,11.93-1.95,5.36-.05,11.37,5.05,13.75,3.45,1.61,8.54,2.04,12.3,2.84,39.81-2.73,84.39,3.56,123.64,0,6.03-.55,18.47-3.01,10.85-10.89-7.02-7.26-17.44-5.16-26.32-4.25,3.57-15.02-11.71-24.07-24.77-18.52-2.58,1.09-7.14,6.71-9.02,5.98-1.71-1.82-.89-4.74-1.67-7.54-.66-2.38-1.89-3.42-3.05-5.17Z"/>
  <path d="M508.79,774.45c8.73,14.45-26.76,12.23-33.65,11.29-24.93-3.41-4.92-19.91,9.29-21.29,8.59-.83,19.65,2.2,24.36,10ZM467.02,780.07c2.78,4.73,31.16,3.54,36.62,1.62,5.34-1.87.94-7.58-1.92-9.69-7.62-5.6-20.56-5.15-28.43-.28-1.78,1.1-7.64,6.02-6.26,8.35Z"/>
  <path d="M562.54,729.27c1.97,2.11,3.89,4.18,3.41,7.52-1.69,5.83-24.78,4.81-29.85,3.47-4.73-1.25-7.86-2.61-4.97-8.03,5.35-10.03,23.97-10.98,31.42-2.97ZM544.34,727.07c-3.31.55-13.66,6.87-9.25,9.59,3.34,2.06,25.18,2.4,26.9-1.2-1.08-8.26-10.95-9.49-17.65-8.39Z"/>
  <path d="M540.34,808.63c1.46,2.41,2.13,6.17,2.19,8.99-2.68,2.8-7.88-12-8.54-13.8,1-1.01,5.8,3.91,6.34,4.81Z"/>
  <path d="M35.28,371.68c1.34,2.66,2.28,3.97,1.67,7.53-2.99,3.05-6.95-10.13-6.58-12.16l1.63-.32c.32.15,2.92,4.24,3.28,4.94Z"/>
  <path d="M466.23,711.1l-1.99-.34c-1.35-2.29-.67-15.17,3.02-14.07.94.28.89,1.3.86,2.1-.09,3.24-1.74,8.72-1.89,12.32Z"/>
  <path d="M550.42,817.62c-4.85,3.04-2.08-15.1,1.64-14.45,1.14.77.82.96.73,1.98-.32,3.55-2.39,8.48-2.37,12.47Z"/>
  <path d="M454.89,698.2c2.39,2.2,4.48,8.95,4.15,12.28-2.2,2.35-4.39-7.7-5.05-9.01s-3.55-2.11-2.84-4.78c.32-.34,3.26,1.08,3.73,1.52Z"/>
  <path d="M563.32,808.84c-.55.84-1.65,1.56-2.48,3.09-1.3,2.41-.53,5.28-3.52,6.34-3.21-2.64,1.72-11.54,4.63-11.82,2.41-.23,2.38.84,1.37,2.4Z"/>
  <path d="M193.43,378.55c.26,4.12.1,7.39-1.32,10.71l-1.63.45c-1.95-1.01-1.88-12.23,2.95-11.17Z"/>
  <path d="M441.95,596.11c-3.39.57-2.94-3.89-3.99-6.04-.64-1.32-3.47-2.98-2.57-5.78,3.96-.76,7.82,10.47,6.57,11.82Z"/>
  <path d="M44.04,378.38c-3.77,5.21-4.45-9.66,1.78-9.7,1.12.82.9.87.71,1.99-.08.48-2.25,7.38-2.48,7.71Z"/>
  <path d="M478.11,700.63c.92.94-5.2,9.26-6.89,9.85-2.96-.57,3.03-11.87,6.89-9.85Z"/>
  <path d="M584.61,483.72c-.16,2.03-1.32,11.34-2.94,11.78-4.14,1.12.08-14.8,2.94-11.78Z"/>
  <path d="M449.18,584.94c-.25,2.68.03,14.34-4.21,10.59-1.91-1.28,2.75-12.4,4.21-10.59Z"/>
  <path d="M574.77,494.89c-.51-.34-2.76-10.28-3.29-11.83,2.34-2.3,6.15,9.07,5.86,10.75-.27,1.01-1.99,1.45-2.56,1.07Z"/>
  <path d="M381.46,454.14l-.66,10.52c-6.52,1.87-1.96-13.35.66-10.52Z"/>
  <path d="M373.86,462.42c.66,1.66,2.8,3.97-1.93,2.93l-3.61-9.89c3.31-.32,4.54,4.45,5.54,6.96Z"/>
  <path d="M184.5,385.51c.82,1.37,2.46,2.04,1.69,4.87-3.33,2.09-7.01-8.76-6.57-9.19,2.45-.4,3.79,2.52,4.87,4.32Z"/>
  <path d="M201.04,387.49c-1.23,1.48-2.87,3.2-4.97,2.89-1.23-6.36,12.19-11.61,4.97-2.89Z"/>
  <path d="M460.35,588.23c.96.95-4.97,9.21-5.58,9.18-3.42-.16,1.99-10.71,5.58-9.18Z"/>
  <path d="M390.66,458.75l-3.62,5.24c-7.7,3.15,1.18-8.18,3.62-5.24Z"/>
  <path d="M163.69,587.06c10.76-1.64,11.71,12.95,2.4,14.3-10.52,1.52-9.6-13.2-2.4-14.3Z"/>
  <path d="M192.33,601.84c1.86,3.92,6.77,7.79,8.95,11.85,1.17,3.54-4.14,9.84-7.37,10.84-1.99.62-12.06,1.79-9.71-1.82,3.42-.56,10.95-.85,12.21-4.87,2.27-7.19-6.14-8.28-7.43-14.32-.57-2.69-.44-8.53,3.02-4.99.26,1.08-.16,2.28.32,3.31Z"/>
  <path d="M216.08,599.79c.22.4,1.47.21,1.02,1.86-3.19,3.34-2.69,8.01-8.89,7.68-10.83-.58-.21-24.27,7.87-9.54Z"/>
  <path d="M152.01,571.79c1.83-1.83,23.69,7.88,27.32,9.17.88,2.51.17,3.46-2.49,3.19-6.82-.67-16.97-7.58-24.19-8.73l-.65-3.63Z"/>
  <path d="M223.61,585l-.26,2.57c-1.21,1.81-22.35,4.17-23.36,1.63-.6-1.51,2.57-3.29,3.66-3.58,2.3-.6,19.27-1.7,19.96-.62Z"/>
  <path d="M161.21,638.18c.16-4.5,9.28-4.78,12.86-4.62,2.52.11,13.01,2.18,13.26,4.95.45,5-6.9-.09-8.48-.53-6.49-1.81-11.19.1-17.64.21Z"/>
  <path d="M152.01,470.57c-.21,3.06-4.44,2.47-6.57,3.29,2.05,2.41,1.08,5.54-1.27,7.6-5.17,4.53-10.95-1.11-9.91-6.95h-8.55c-.09-1.1-.2-1.49.68-2.27,2.09-1.86,21.53-1.29,25.61-1.67Z"/>
  <path d="M74.43,476.49v-2.63s24.98-.65,24.98-.65l-.81,1.48-3.79.49c3.15,11.56-12.29,14.36-9.86,1.31h-10.52Z"/>
  <path d="M116.94,475.94c4.81,2.25,12.48,9.26,12.75,14.71.39,7.89-11.69,12.7-12.52,9.82l.31-1.64c16.33-8.85,4.01-11.36-2.02-20.98l1.48-1.9Z"/>
  <path d="M151.97,458.78c.16.19.18,2.15-.05,2.49-.74,1.11-24.9,3.86-26.43,3.28s-1.51-2.49-.43-3.51c1.21-1.14,25.99-3.34,26.91-2.25Z"/>
  <path d="M99.38,461.42c.08.81.31,1.31-.37,1.98-2.82,2.75-23.58-.66-28.48-.75-.86-3.17,1.58-3.36,4.23-3.3,8.12.18,16.54,1.24,24.62,2.08Z"/>
  <path d="M100.28,516.13c2.95-3.54,14-4.17,18.03-2.33,2.15.98,3.37,3.71.47,4.13-3.44-.78-5.47-1.64-9.17-1.33-1.09.09-13.84,4.94-9.33-.47Z"/>
  <path d="M261.53,521.47c2.66,1.7,4.09,4.74,3.61,7.97-.92,6.2-14.57,5.97-18.81,2.94-9.12-6.52,2.04-19.32,15.2-10.9ZM260.97,530.21c5.16-5.99-10.34-12.22-14.17-5.96-2.57,7.06,11.03,9.6,14.17,5.96Z"/>
  <path d="M231.85,486.74c.09.2.89.27,1.01.73v1.69c-2.42,3.55-6.03,11.15-11.17,6.07-8.18-8.07,4.27-21.53,10.16-8.49Z"/>
  <path d="M260.03,480.62c6.21-6.19,15.06,5.92,9.65,11.94-6.96,4.6-14.95-6.66-9.65-11.94Z"/>
  <path d="M240.51,495.95c-1.41,2.72-5.75,6.69-3.36,10.78,2.58,4.43,13.16-1.79,13.39,2.19-2.04,4.37-10.71,3.79-14.32,1.37-8.4-5.62,1.84-17.28,5.24-23.26,4.41.76.19,6.73-.95,8.92Z"/>
  <path d="M273.49,466.81c1.34-.12,8.67-.52,8.03,2.1-5.31.98-21.4,7.99-25.95,6.92-2.14-.5-2.46-2.5-.56-3.84,1.56-1.1,16.06-4.97,18.47-5.19Z"/>
  <path d="M207.98,473.79c-1.76-3.97,5.68-4.68,8.81-4.55,2.82.12,17.59,2.34,17.44,5.62-.17,3.78-9.96.05-12.3-.23-4.64-.57-9.26-.94-13.95-.83Z"/>
  <path d="M485.14,323.8c-2.83,4.03-10.94,7.29-15.84,6.71-5.29-.63-13.77-7.22-8.92-12.74,1.71-.99,20.52-1.67,23.1-1.31,4.23.6,3.55,4.65,1.66,7.34ZM482.05,320.05l-18.41.66c.43,9.66,16.61,7,18.41-.66Z"/>
  <path d="M470.22,294.42c2.88,2.92-11.39,7.14-6.87,12.46,1.32,1.55,4.89,1.42,4.9,3.97-16.65-.75-8.8-14.03,1.97-16.42Z"/>
  <path d="M452.29,289.29c7.33-2.18,6.24,10.41,1.78,11.06-5.72.67-5.87-9.84-1.78-11.06Z"/>
  <path d="M484.23,300.79c-4.77-7,7.11-15.27,7.09-4.74,0,4.87-2.48,8.47-7.09,4.74Z"/>
  <path d="M496.98,281.46c.83,1.12.92,2.41.85,3.75-2.79.16-4.61-1.95-7.38-2.81-3.16-.97-8.14-.39-9.05-3.42.59-2.57,13.87.17,15.58,2.48Z"/>
  <path d="M446.63,279.36c.43-.69,9.49-2.63,10.85-2.61,2.21.04,7.53,1.48,3.18,3.17-.62.24-11.27,2.65-11.88,2.65-2.27.01-2.51-1.13-2.15-3.21Z"/>
  <path d="M334.4,126.52c1.16,1.75,2.38,2.79,3.05,5.17.78,2.81-.04,5.73,1.67,7.54,1.88.73,6.44-4.89,9.02-5.98,13.06-5.55,28.34,3.5,24.77,18.52,8.89-.91,19.31-3.01,26.32,4.25,7.62,7.88-4.82,10.34-10.85,10.89-39.26,3.56-83.83-2.73-123.64,0-3.77-.8-8.85-1.23-12.3-2.84-5.1-2.38-7-8.39-5.05-13.75,3.16-8.69,14.72-13.74,23.53-11.93,4.04.83,5.69,4.21,9.34,3.24.41-9.9,1.8-16.3,10.51-21.69,13.58-8.4,34.34-7.44,43.63,6.58Z" fill="#fff"/>
  <path d="M467.02,780.07c-1.37-2.33,4.48-7.25,6.26-8.35,7.88-4.87,20.81-5.31,28.43.28,2.87,2.11,7.26,7.82,1.92,9.69-5.46,1.91-33.84,3.1-36.62-1.62Z" fill="#fff"/>
  <path d="M544.34,727.07c6.69-1.1,16.57.13,17.65,8.39-1.72,3.6-23.55,3.26-26.9,1.2-4.41-2.72,5.94-9.04,9.25-9.59Z" fill="#fff"/>
  <path d="M260.97,530.21c-3.14,3.64-16.74,1.09-14.17-5.96,3.83-6.25,19.33-.03,14.17,5.96Z" fill="#fff"/>
  <path d="M482.05,320.05c-1.8,7.66-17.98,10.32-18.41.66l18.41-.66Z" fill="#fff"/>
</svg>