<?xml version="1.0" encoding="UTF-8"?>
<svg id="Camada_1" xmlns="http://www.w3.org/2000/svg" version="1.1" viewBox="0 0 595.28 841.89">
  <!-- Generator: Adobe Illustrator 29.0.0, SVG Export Plug-In . SVG Version: 2.1.0 Build 186)  -->
  <path d="M.14-.06v841.34h595V-.06H.14ZM3.43,213.24c.44-1.44,6.13-1.11,7.58-1.01,23.59,1.6,40.52,27.83,54.9,43.73,0,1.07-4.66,4.49-5.93,5.94-7.55,8.58-10.29,17.17-15.03,27-.53,1.1-.86.94-1.76,1.57-.57-6.01,4.9-13.6,1.01-19.41-3.95-5.9-11.06,3.85-12.18,7.58-1.18-.52-1.36-8.64-2.2-10.92-.36-.98-3-4.3-4.04-4.59-6.04-1.65-6.81,7.59-7.94,11.08-.18.55-1.1.45-1.24.96-.36,1.27.53,3.08-1.02,4.13-1.01-3.91-5.55-11.17-10.18-7.55-1.85,1.45-.6,2.9-1.98,3.61v-62.11ZM85.98,216.15c-1.87-.99-3.98-.95-5.86-2.03-5.73-3.29-10.35-13.98-6.26-19.87.56-.8,4.07-3.44,4.98-3.58,3.04-.49,6.91,4.14,8.72,6.29,1.05,1.26.99,4.44,3.93,1.77,3.3-2.99,6.16-17.9,5.95-22.64,3.64.6,7.38-.65,10.82-.68,3.09-.03,5.9.69,8.55.71,19.33.16,38.75.3,57.76,4.04,1.9.85,3.4,9.79,3.97,12.16.41,1.73,1.59,4.09,1.77,7.08.62,10.23-2.14,22.41-6.49,31.69-15.81,33.74-72.78,27.86-85.62-5.99-.42-1.11-1.86-4.5-1.92-4.77-.28-1.23.4-3.17-.31-4.19ZM80.34,173.13c1.01-4.43,2.78-8.66,5.39-12.39,17.67-25.37,54.6-31.32,78.43-10.91,9.01,7.72,10.53,13.38,14.43,24.04.19.53,2.87,2.84.7,4.19-6.9-1.64-13.96-3.21-21.03-3.92-17.74-1.8-38.73-2.49-56.56-2.01-2.2.06-21.38,2.08-21.34,1.01ZM139.74,265.39c-12.41,8.75-27.65-1.9-32.42-14.03,12.05,5.43,25.71,7.68,38.77,4.94,1.55,1.78-4.86,8.05-6.35,9.09ZM98.78,245.38c.6.18,4.64,3.21,4.9,3.69.67,1.27.66,3.78,1.53,5.7.83,1.82,3.06,5.76,4.3,7.21,9.84,11.6,26.54,13.85,36.87,1.49,2.16-2.58,2.68-7.24,4.06-8.43,2.06-1.78,10.51-4.04,12.79-1.74l6.23,14.81c3.38,17.14,5.89,34.72,6.26,52.24.08,3.63.76,13.85-1.64,16.16-1.78,1.71-9.37,3.24-12.06,3.72-8.56,1.54-19.99,2.52-28.71,2.85-17.7.66-36.12-1.61-53.61-3.97.93-5.73,1.27-11.56,2.08-17.31,2.95-20.96,12.85-46.46,1.1-65.73l-3.83-4.7c1.4-2.78,16.7-6.91,19.74-5.99ZM202.58,372.48c-.15-.6-1.78-.21-1.31-3.47.16-1.11,1.92-1.71,2.35-2.94.86,1.11,1.25,2.59,2.35,3.56,1.1.97,10.15,4.26,11.53,4.3,2.1.06,4.14-2.71,5.41-.2l-1.32,19.51-8.24,5.9c-1.18,1.1-2.38,4.47-3.94,4.93l-22.3,2.71c-5.05-4.02,1.78-3.66,4.5-4.74,3.33-1.32,7.23-6.38,8.95-9.45,3.29-5.85,3.69-13.35,2.02-20.11ZM206.59,307.9c.66-9.73,1.96-19.72,3.62-29.27,8.72,3.94,17.79,6.87,27.21,8.62-.2,3.17.5,7.13.12,10.17-.16,1.25-1.26.64-1.42,1.89-.87,6.86-.29,15.97-.58,23.08-.35,8.42-2.23,12.38.69,20.82.16.45,1.07.55,1.37,1.42,1.31,3.8,1.94,9.86-.21,13.45-5.73,1.94-4.35-6.14-6.45-7.47-2.29-1.45-3.18,4.06-3.3,5.29-.18,1.86.72,17.61-4.34,13.52-1.08-.87-2.59-7.27-2.83-9-.28-1.96.7-6.8-1.13-7.41l-2.22-.08c-.59,6.25.88,11.86,2.62,17.75-3.57,1.38-7.89-3.83-7.89-6.9v-11.5c-2.99-.65-3.05.96-3.28,3.62-.4,4.69.04,8.54,1.96,12.81-.66.73-3.88-2.75-4.24-3.31-2.39-3.76-2.12-19.03-1.66-23.95.29-3.16,1.77-6.16,2-9.19.55-7.16-.57-16.36-.03-24.33ZM247.2,126.99c21.74-6.1,56.78-6.12,79.27-3.38,11.75,1.43,23.69,2.27,20.14,17.65-4.71-1.63-9.42-2.8-14.32-3.75-25.76-5.01-66.4-4.83-91.05,4.55-1.09.41-2.01.94-2.78,1.83-.72-9.26-.88-14.2,8.74-16.9ZM242.74,124.83c.87-8.18,9.79-17.88,16.12-22.99,19.73-15.94,54.38-17.16,72.65,1.61,3.92,4.03,6.14,9.07,8.78,13.91.11.2.89.38,1.25,1.07.38.71,2.09,4.81,1.78,5.09-8.46-.92-16.84-3.13-25.32-3.93-24.52-2.33-51.34-.19-75.27,5.25ZM246.02,162.67c3.09-1.55,5.98-16.58,7.23-20.27,13.66-4.35,28.72-4.35,43.1-4.4,8.34-.03,17.19-.29,25.6.64,2.74.3,11.57,1.52,13.14,3.29,3.24,3.65,2.87,18.49,5.33,20.31,3.98,2.94,4.9-5.44,8.18-6.83,8.82-3.75,8.02,11.41,5.29,16.47-.66,1.24-1.3,1.25-1.76,1.83-1.85,2.37-3.81,4.86-7.21,4.96-1.77.06-3.59-1.51-5.23.03-.65.61-1.76,6.82-2.45,8.72-3.23,8.85-7.56,15.36-15.4,20.75-24.62,16.91-62.28,4.51-73.79-22.08-.71-1.65-.87-5.77-1.97-7.1-1.01-1.23-7.9-.86-11.52-5.57-3.55-4.62-6.19-18.37.48-21.17,6.64-2.79,6.42,12.7,10.98,10.4ZM313.74,216.2c-6.9,16.6-30.25,15.99-40.11,2.3l-3.27-4.93c3.29.02,5.8,2.13,9.06,3.1,11.23,3.33,23.16,2.68,34.33-.47ZM266.35,211c5.63,18.26,26.31,26.96,43.02,16.27,5.51-3.53,7.87-14.01,12.1-14.88,1.32-.27,7.84,2.65,9.4,3.46,16.74,8.57,33.41,27.92,39.91,45.55.56,1.52,2.92,7.66,2.49,8.69-1.74,4.04-23.58,12.88-25.36,11.57-1.3-2.28-.41-5.32-.64-7.93-.51-5.78-1.2-11.84-2.16-17.56-.25-1.48-1.02-8.78-2.76-8.4-1.33.88-.89,1.54-.83,2.75.66,13.36,3.37,26.78,3.81,40.27.13,4.02,1.18,8.61-2.63,10.58-5.8,3.01-21.79,4.54-28.64,4.89-18.03.91-52.29,1.18-69.12-3.84-5.74-1.71-5.06-2.51-4.83-8.31.34-8.55,1.18-17.74,1.97-26.29.52-5.64,2.59-13.17,2.65-18.45.02-1.4-.26-3.7-2.01-2.57-3.35,12.05-3.73,24.69-4.59,37.12-1.82,1.81-24.94-6.89-28.29-8.85-8.52-4.98-5.33-7.97-1.85-15.7,4.4-9.77,13.69-22.45,21.59-29.68,10.02-9.19,23.21-16.42,36.76-18.67ZM382.09,334.21c.24,7.1.45,9.78.04,17.07-.39,7.08,0,17.12,4.16,23.1.94,1.35,4.86,5.02,6.41,5.74,2.22,1.02,4.05,1.27,6.51,1.05-.29,2.6.36,5.76.05,8.26-.16,1.25-1.26.64-1.42,1.89-.31,2.46.84,12.2-.57,13.24l-47.36-5.31c7.69-6.03,3.56-16.71,4.62-25.28,12.98-.36,18.55-12.68,19.72-24l.4-44.43c1.81.2,7.35-1.55,8.02.47-.06,9.4-.9,18.77-.59,28.19ZM399.16,161.14c.88-3.2,1.19-6.8,2.84-9.86,12.52-2.65,26.11-4.26,38.91-4.76,4.37-.17,35.15-.53,36.44.75.71.71,1.03,8.99,1.43,10.62.49,1.99,1.69,5.52,2.4,8.23.37,1.41,2.26,8.9,2.87,9.3,2.18,1.42,4-5.09,5.53-6.57,4.71-4.52,9.94-2.78,11.9,3.26.39,1.21.05,2.5.31,3.53.15.58,1.23.54,1.3.79.5,1.89-1.13,1.43-1.3,2.1-.55,2.12-.31,3.9-1.32,6.46-2.48,6.25-6.83,6.78-12.85,8.18-3.01,25.37-26.49,36.35-49.98,34.88-14-.88-30.17-10.31-35.65-23.52-5.95-14.35-6.86-28.71-2.84-43.4ZM395.27,148.49c4.22-18.02,18.7-32.14,36.67-36.62,22.73-5.67,44.14-.19,58.26,18.63.31.42,1.14.64,1.6,1.32,2.86,4.19,5.05,9.7,6.03,14.7-33.83-5.97-68.88-3.6-102.56,1.97ZM472.85,224.09c-2.29,10.49-12.17,20.22-23.33,20.42-7.64.14-16.18-4.88-16.12-13.19,4.83-.27,10.01.37,14.79,0,2.4-.19,7.16-1.02,9.56-1.61,2.09-.52,14.5-6.17,15.09-5.61ZM428.78,230.34c1.28,1.33,1.97,6.14,3.32,8.36,8.94,14.73,31.02,9.33,39.32-3.23,3.49-5.28,3.92-10.96,6.17-16.51,8.87-.64,19.21,2.36,27.02,6.54,14.73,7.88,24.51,20.28,31.63,35.11.08.17.77.28.99.77,1.25,2.7,4.96,12.81,3.38,14.98-.92,1.27-13.2,7.31-15.47,8.2-4.67,1.84-16.38,5.15-21.08,4.62-.82-.09-2.1-1.57-2.33-2.33-2.56-8.25-2.71-19.07-5.14-27.57l-2.7-.38c-.44.42,1.24,10.45,1.5,11.97.81,4.58,2.34,14.77,3.77,18.58,1.64,4.39,5.74.78,8.53,3.46l3.32,23.54c.11,2.34-2.24,3.11-3.99,3.9-8.38,3.75-28.16,5.18-37.77,5.63-20.44.94-42.21-.45-62.01-5.44-2.23-2.16-2.47-18.77-2.53-22.64-.11-7.23.11-15.01.38-22.26.09-2.35,1.97-16.8,1.34-17.4-.72.12-2.13-.25-2.55.09-1.32,1.07-2.29,28.37-2.05,32.13-.99.98-18.76-3.67-19.09-5.05,0-1.91-.04-3.81.11-5.72,1.22-15.85,9.86-36.98,22.62-47.06,2.46-1.94,9.74-6.34,12.65-6.46,1.37-.06,9.72,3.19,10.65,4.15ZM542.9,368.72c-1.44,5.18-4.35,10.99-10.22,11.8,1.37-3.27,2.29-6.62,3.34-10,.16-.52,1.13-.51,1.23-.98.33-1.41-.14-3.29.03-4.8-4.96-1.35-3.84,4.56-5.08,8.4-.86,2.66-3.96,9.42-7.09,9.41-5,0-1.41-5.38-.26-8.08.21-.49,1.01-.53,1.35-1.44,1.11-2.96,1.37-6.47,1.21-9.61l-2.55.08c-.33,2.86-4.47,16.53-7.05,16.97-.66.1-1.25-.41-1.61-.91-2.58-3.57,2.42-16.73,1.04-18.78-1.04-1.19-1.06-.7-1.93.07-2.03,1.81-4.67,8.19-7.34,5.92-3.32-2.82,3.13-14.92,4.8-18.29.41-.83,1.31-.83,1.69-1.65,1.75-3.77,1.38-15.32,1.15-19.91-.32-6.58-1.84-12.94-2.74-18.96-.73-4.87-1.39-9.78-2.49-14.59l1.28-1.91c9.75-1.46,18.12-6.33,27.19-9.51.89.27.8.98,1.03,1.64,4.93,13.88,3.42,35.32,3.29,49.89-.1,11.63,2.77,24.26-.27,35.22ZM519.53,505.74c-1.44,13.64-17.41,23.17-28.26,29.25l1.62-38.14c4.59-2.57,9.67-4.57,13.81-7.89,1.93-1.55,6.22-5.49,7.84-7.28,1.87-2.06,2.71-4.96,5-6.5-.75,9.76,1.01,20.98,0,30.56ZM246.69,716.4c-25.34-1.49-50.39-5.89-75.12-11.34-3.44-1.34-2.49-7.17-3.14-9.9-1.14-4.75-1.03-6.02-1.27-11.33-.37-8.33-1.06-16.77,1.23-24.48.51-1.73.68-3.67,1.42-5.38,26.2,5.42,52.72,9.79,79.51,11.15.89,2.22-1.17,2.66-1.28,3.1-.83,3.31-1.21,10.6-1.38,14.29-.5,11.24.43,22.63.03,33.88ZM165.81,703.25c-21.88-5.01-43.76-11.94-63.16-23.29-.55-.77-1.2-7.61-1.3-9.22-.55-9.68-.61-23.28,0-32.92.08-1.32.61-6.71,1.31-7.25h2.04c19.21,10.61,40.48,16.7,61.51,22.7-3.53,16.51-2.62,33.35-.39,49.97ZM97.39,668.13c.16,1.25,1.26.64,1.42,1.89.11.88.06,7.62-.39,7.61-1.15-.26-2.34-1.26-3.26-2-3.55-2.83-11.89-10.84-13.51-14.76-3.67-8.88-3.05-32.74-1.88-42.66.1-.83.23-4.62,1.55-4.35,5.37,5.71,12.02,10.03,18.45,14.46-.77,2.21-.56,7.49-1.23,9.02-1.53,3.52-1.81,25.67-1.16,30.78ZM81.35,607.27c-3.67-10.88-1.31-28.03-.35-39.42,2.43-.41,3.33,2.14,4.93,3.29,14.38,10.33,29.67,18.19,46.04,24.94-1.12,8.51-1.46,17.4-1.03,26.03.18,3.59.69,9.18,1.58,12.58.04.17.86.26,1.01.74.24.77.98,4.39.72,4.74-4.75-1.59-9.63-3.18-14.25-5.14-10.39-4.39-34.99-16.88-38.65-27.75ZM76.39,518.21c-1.13.94-8.6,2.28-9.75,1.56-.86-1.78-1.42-7.67-.1-8.79,1.39-1.18,11.79-2.53,12.88-1.02.76,1.05-2.32,7.67-3.02,8.25ZM76.4,525.79c-2.54.13-5.32-.52-7.23-2.31l7.23-1.64v3.95ZM54.02,393.96c.06,2.54,2.78,11.75,2.63,12.49-.44,2.21-4.73-.67-5.58-1.59-1.63-1.77-2.62-7.1-2.93-9.56-.28-2.18,1.15-7.5-2.68-5.85-1.8,2.49.26,11.97,2.02,14.73-2.82-.09-4.1-2.77-5.38-4.8-3.44-5.49-3.6-11.2-3.2-17.9.26-4.26,1.52-7.2,3.64-10.79,8.82,4.77,19.19,2.77,28.81,3.39,4.96,4.65,6.88,11.47,5.26,18.14-.54,1.57-3.38.88-4.53.18-2.08-1.26-1.42-5.25-3.91-6.61-1.52-.39-2.29,4.66-2.29,5.58v14.13c-10.23,6.77-6.95-14-9.54-15.11-2.07-.88-2.36,2.22-2.32,3.58ZM60.68,410.15c9.63.19,8.57-8.75,8.5-15.83,10.94,6.28,12.31-3.1,10.33-11.98-.51-2.26-3.14-7.3-3.05-8.75.06-.95,1.18-1.77,1.3-3.23.27-3.27-.28-6.9-.03-10.22,31.95,6.92,66.82,6.55,98.56-1.26,1.53,3.56,1.29,7.71,2.06,11.3,1.06,4.94,2.63,10.73,3.25,16.58.72,6.79.82,13.79,1.23,20.61-14.33,2.45-28.65,5.01-42.64,8.97-21.17,5.99-42.91,14.23-57.37,31.44-3.29.01-22.14-2.4-23.18-4.16l1.05-33.48ZM174.39,355.25c-2.38,2.14-15.05,4.29-18.85,4.82-19.82,2.74-41.81,2.67-61.64,0-2.06-.28-15.27-2.4-15.56-3.64l.69-14.02c5.89,1.71,12.01,1.45,18.07,1.98,20.32,1.75,40.01,3.08,60.41-.09,6.13-.95,12.2-2.89,18.16-4.52.58,3.8.46,6.48.15,10.2-.19,2.22,1.26,2.85-1.44,5.28ZM226.3,373.61c.32-1.64,1.79-1.58,2.56-2.7,2.1-3.04,1.21-7.92,1.4-11.42.56-.63,5.59,4.69,9.5-.03,5.35-6.47-1.4-17.53-1.66-23.95-.16-4,1.44-8.86.71-13.15l1.03-1.61c9.03,3.39,18.66,4.84,28.23,5.87,20.46,2.2,43.44,2.21,63.58-2.15,2.1-.45,13.51-4.41,14.29-3.73,1.17,7.28,2.6,14.65,3.31,22,.95,9.84,1.7,21.64,2.01,31.52.13,4.21,1.1,20.01-2.67,21.72-5.43,2.45-5.82-3.14-7.27-5.72-.99-1.77-3.87-5.93-5.22-7.41-6.43-7.02-19.67-9.04-27.89-4.25-9.36-12.73-33.22-9.46-42.77,1.75-8.44-5.12-22.17-1.91-29.2,4.52-3.56,3.25-4.36,9.18-10.58,8.16,1.02-5.55-.33-14.36.65-19.4ZM239.45,305.26c.02-.14.68-1.6,1.06-1.65,6.89,2.43,14.34,3.89,21.63,4.6,18.27,1.77,44.87,1.98,63.1,0,6.82-.74,13.32-2.87,20.06-3.94l.34,11.85c-.88,1.76-11.64,4.4-14.12,4.95-19.55,4.37-45.42,4.53-65.36,2.18-2.84-.34-26.72-4.74-26.72-6.81.37-3.47-.51-7.85,0-11.17ZM233.38,458.91c3.11-8.01,2.92-16.24.81-24.49,7.14-.64,14.14-5.86,16.47-12.48,12.64,5.04,30.12,2.08,38.48-9.2,7.84,5.62,18.5,5.2,26.15-.62,5.84,5.9,13.15,6.02,20.8,4.19,1.09.54,3.42,5.82,4.22,7.33,7.27,13.62,11.23,30.12,10.24,45.94-3.22,51.07-69.71,67.97-105.49,37.78-5.21-4.4-11.05-11.06-12.87-17.71-7,2.33-12.32,4.03-19.01-.38-9.09-5.99-10.09-26.32,2.96-26.63,7.84-.18,11.73,10.46,17.24-3.74ZM432.43,452.19c2.76-.13,4.1-4.01,5.9-5.95,4.74-5.13,11.29-10.23,18.75-7.87.33,1.54-.21,1.05-.85,1.47-4.74,3.07-12.32,6.68-14.43,12.51-.31.85-.95,1.43.15,2.13,2.68,1.7,4.31-2.92,5.59-4.29,4.39-4.7,10.42-10.29,17.33-7.78,1.26,4.96-1.91,4.22-4.46,6.19-1.98,1.52-9.39,8.12-7.61,10.81,1.07,1.36,1.23.37,1.98-.02,2.63-1.33,4-5.31,6.31-7.48,6.46-6.06,13.8-4.8,7.71,4.45-3.93,5.97-8.13,8.67-11.11,16.47-1.76,4.61-1.39,8.71-4.89,12.87-1.3,1.54-2.88,2.88-4.61,3.92-5.93-10.97-15.95-19.12-27.23-24.36-.79-1.88,1-1.82,1.22-2.41,3.36-8.95,4.57-17.86,13.62-23.75,10.52-2.19-2.29,6.91-3.71,9.59-.42.79-1.66,3.6.34,3.5ZM461.66,475.17c-2.82,2.49.88-5.81,1.19-6.38.53-.96,1.83-2.87,2.76-3.47.42,3.95-2.69,6.5-3.95,9.85ZM81.66,474.85l1.31-.33c5.47,10.19,16.16,16.17,25.66,22.15l.64,36.34-13.77-7.58c-7.47-6.55-13.63-10.97-14.51-21.64-.77-9.32.47-19.59.68-28.94ZM78.38,496.21l-9.21-.66v-46.01c1.81.17,11.64.71,11.88,1.7l-2.67,44.97ZM216.77,513.95h16.44c4.31,10.58,2.15,23.7-.91,34.46-1.36,2.03-16.76-2.58-19.8-2.25-.38-1.85,1.55-2.3,2.07-3.54,1.4-3.3,2.62-15.3,2.59-19.13-.01-1.58-2.27-9.53-.39-9.53ZM237.46,514.43c-.31-.82-1.54-.08-1.29-1.13,2.55.42,6.51-2.31,8.72-1.85.99.21,5.59,3.41,5.73,4.81l.58,34.07-.52.79-15.82-1.69c.6-1.45.84-3.32,1.39-4.72.21-.55,1-.46,1.3-1.49,1.75-6.12,2.12-22.97-.08-28.81ZM209.86,545.5l-32.87-8.55c-.21-2.01,2.24-2.39,3.28-3.61,2.89-3.38,10.39-17.55,11.16-21.17.34-1.58-.69-3.67,1.02-4.8l19.26,6.04c2.98,10.61.96,21.67-1.86,32.09ZM172.19,535.54l-20.16-7.45c12.85-5.59,21.61-16.31,24.98-29.91,1.99,1.29,10.96,6.58,11.2,8.23.62,4.11-4.96,17.76-7.62,21.34-.61.82-1.58,1.01-2.04,1.55-1.11,1.31-4.89,6.37-6.35,6.24ZM192.93,445.1c.31,1.93,2.41,5.12,2.44,6.07.06,1.98-3.76,7.74-2.63,10.82l-28.26,6.33-.55-31.19,31.47-7.31c-1.99,5-3.36,9.79-2.47,15.28ZM169.46,488.95c.99,1.07,4.78,5.83,4.89,6.96.27,2.67-3.74,11.86-5.35,14.36-.44.67-1.34.91-1.62,1.3-5.32,7.58-10.97,12.89-20.62,14.22l.73-23.59c7.58-2.38,14.42-10.08,16.37-17.82.51-.37,4.9,3.81,5.61,4.57ZM143.47,525.79c-10.47.26-20.76,3.7-30.24,7.88l-1.29-37.43,27.95-3.99,4.82.75c.21.25.22,4.04.06,4.73-.12.53-1.19.19-1.35,1.39-.51,3.86,1.01,25.73.06,26.67ZM142.46,489c-2.18-1.72-4.44-5.29-7.58-7.54-3.96-2.83-19.62-10.18-19.42-15.17.22-5.39,9.53-1.52,12.17.07,2.25,1.36,7.29,6.64,8.63,7.2,1.02.42,1.65-.32,2.6-.36-2.92-6.88-10.81-9.76-17.03-12.87,1.53-10.86,15.05-.5,18.99,4.01.67.76,1.95,3.36,2.12,3.46,2.92,1.66,3.9-.33,2.3-3.28-.88-1.61-8.3-7.99-10.11-8.95-1.51-.79-3.09-1.37-4.81-1.44-1.85-1.83,4.89-2.06,5.62-2.01,8.5.6,15.3,9.17,19.59,15.6.25.37,1.22.59,1.64,1.27,3.4,5.55,5.12,12.55,2.41,18.66-.94,2.12-10.48,12.88-12.16,11.17-.3-2.24.7-5.79-.61-7.61-.9-1.25-3.17-1.3-4.35-2.23ZM161.87,469.91c-2.81-.73-3.46-5.04-5.25-7.39-1.32-1.73-4.87-4.25-6.24-6.43l-9.56-6.23c-.16-.92.59-1.09,1.08-1.55,4.36-4.08,14.11-8.44,19.96-9.95v31.55ZM157.75,436.55c-2.05,1.12-5.01,1.7-7.49,3.02-3.33,1.77-11.28,8.23-13.39,8.96-3.14,1.08-3.9.04-7.46,2.43-3.15,2.13-1.95,1.11-5.49,2.37-2.33.83-4.82,3.63-5.9,3.96-2.47.75-10.5-1.16-13.69-1.22-6.11-.11-13.64,1.49-19.86,1.88-2.65-.07-.75-4.05-.19-5.48,1.23-3.1,6.29-8.5,8.91-10.81,4.86-4.29,24.35-15.92,30.19-15.81,11.28.22,24.52,5.89,35.21,9.23.27,1.48-.07,1.04-.84,1.46ZM93.84,459.41c7.17-.66,14.87,0,22.02.31l.64,1.64c-3.4.93-4.52,3.99-3.63,7.26,2.01,7.4,21.1,13.27,25.33,20.35-9.65-.03-18.96,3.12-28.44,4.5-11.27-6.69-27.44-16.28-27.33-31.01.65-1.9,9.22-2.85,11.4-3.06ZM102.05,533.67c.94-.11,1.71,0,2.6.36,4.11,1.65,9.6,5.82,13.81,7.89,14.09,6.93,29.01,12.09,43.78,17.36-.15,14.28-.93,28.63,1.61,42.75-17.24-4.18-34.34-9.9-50.21-17.82-2.51-1.25-9.88-4.64-11.2-6.55-1.01-1.46-1.6-9.07-1.72-11.42-.57-10.85.37-21.8,1.34-32.57ZM149.86,551.92c-9.97-3.52-21.6-8.22-30.94-13.11-1.08-.57-4.09-1.84-3.73-3.16,1.26-1.37,21.11-6.36,24-6.57,7.72-.55,18.49,4.88,26.09,7.42,3.07,1.03,16.14,4.08,17.6,5.41.6.54.87.7.67,1.61l-18.44,12.14c-3.2,1.05-11.67-2.47-15.26-3.73ZM164.51,565.56c.09-1.03.65-5.32,1.61-5.49,25.4,6.9,51.61,11.48,77.93,13.04-1.1,13.82-1.28,27.77,1.32,41.42-22.25-1.65-45.29-3.9-67.07-8.87-2.14-.49-10.38-2.05-11.17-3.46-2.61-11.4-3.62-24.95-2.62-36.63ZM244.39,570.5l-42-5.36-33.28-7.16c-.33-1.28.51-1.27,1.1-1.85,2.76-2.74,7.49-4.88,10.67-7.08,2.5-1.73,4.41-4.07,6.99-5.55,22.15,5.41,44.6,9.34,67.36,11.19.72.74-4.99,8.76-5.92,10.01-.44.6-1.33.86-1.87,1.57-1.01,1.32-1.08,4-3.06,4.22ZM307.7,527.3c-.46,1.53-9.06,4.98-11.01,5.42-8.74,1.96-18.82-1.1-25.85-6.43-.57-.43-1.79-1.62-1.78-2.15.02-1.3,3.42-.34,4.15-.21,3.24.55,6.67,1.6,9.98,1.85,8.53.66,16.29-1.12,24.65-1.96-.04,1.13.19,2.41-.13,3.49ZM309.04,552.3l-.88,1.09c-10.21-.66-21.48.89-31.56,0-1.35-.12-5.83-.75-6.15-1.74l-.41-21.94c3.96,1.12,7.24,4.06,11.13,5.3,9.33,2.98,18.16.91,26.65-3.32l1.21,20.6ZM270,556.05c23.26.47,46.55.62,69.76-1.38.86-.14,1.31.18,1.93.71,1.37,1.16,8.55,14.82,7.56,15.76-33.22,1.74-66.72,2.21-99.94-.33,0-1.68,8.42-13.75,10.28-14.7,3.63-1.85,6.92-.13,10.41-.06ZM311.09,522.28l12.52-4.38,1.98,34.84c-2.8-.57-12.47,2.7-13.15-.99l-1.34-29.47ZM443.28,530.73c10.74-3.63,16.89-1.61,27.46,1.44,2.38.69,11.31,3.37,12.82,4.27.84.5,1.36.66,1.13,1.82-17.14,7.61-34.67,14.3-52.94,18.79l-21.34-13.86c-.56-1.15,1.58-1.4,2.28-1.64,10.17-3.54,20.43-7.39,30.6-10.83ZM410.34,524.33c-1.16-3.06-4.74-10.14-6.65-13.21-4.25-6.85-11.22-11.13-16.27-17.15,3.09-2.29,6.07-5.08,9.21-7.26,1.14-.79,4.39-3.04,5.38-2.91,1.26.17,9.61,5.63,11.02,6.8,3.4,2.82,5.63,6.42,8.13,9.96.27.38,1.15.62,1.61,1.31,2.91,4.38,10.59,22.84,9.33,27.38-5.39,3.72-11.38,6.45-17.46,8.85-1.25-.18-3.41-11.42-4.31-13.78ZM449.83,514.92c-.55,2.94-10.86,9.89-13.47,12.15-1.57-.12-2.41-8.27-3.01-9.97-4.29-11.98-12.34-24.74-23.01-32.34-1.17-.83-6.84-2.54-6.47-4.57l13.31-13.46c1.84,1.17,4.02,1.64,5.92,2.64,9.9,5.2,15.39,11.37,21.05,20.71.23.37,1.29.62,1.9,1.69,3.43,6.04,5.05,16.39,3.78,23.16ZM418.61,462.68c-.16.22-4.51,2.45-4.77,2.52-2.32.57-20.18-3.68-24.25-4.39-6.87-1.2-13.91-2.1-20.85-2.82l-.98-.99c.12-4.36-.94-31.52,1.28-33.05,21.71,2.61,43.47,5.98,64.37,12.45.43,1.71-1.29,1.41-2.33,2.57-3.28,3.63-8.65,11.07-10.35,15.33-.79,1.97-1.29,7.25-2.11,8.38ZM383.7,496.87c3.83.49,11.76,9.71,14.43,12.91,7.62,9.13,8.01,14.21,11,25.35.1.38,2.5,1.87,1.18,4.39-7.34,1.77-14.72,4.31-22.12,5.82-1.96.4-12,2.22-12.88,1.55-3.37-9.31-4.55-19.4-8.48-28.5-2.11-4.9-5.55-8.79-7.73-13.63,6.35,1.01,19.8-8.5,24.59-7.88ZM404.82,544.15c7.73,4.06,16.24,8.42,22.66,14.49-24.09,5.83-48.6,9.66-73.32,11.9-3.06-.29-6.16-13.59-9.51-15.5.46-.68.87-.82,1.65-.97,4.71-.91,10.2-.75,15.02-1.42,14.63-2.03,29.19-4.93,43.5-8.5ZM330.61,552.68c-2.02-.63-.67-5.58-1.1-7.38-1.11-4.73-.86-6.24-1.31-11.29-.53-6.08-1.38-12.2-1.87-18.29l10.08-7.68c1.45.33,3.26,9.02,3.89,10.93.06.17.86.34.99.77,3.05,9.94,4.25,20.47,5.8,30.74-.47,2.41-13.92,1.15-16.5,2.21ZM264.76,552.08h-9.86c-.94-.58-.91-1.31-1.02-2.27-.96-8.21.34-19.04.06-27.67-.05-1.49-1.64-4.38.31-4.27,1.18.07,11.16,3.76,11.48,4.47l1.32,30.39c-.92.39-1.96-.65-2.3-.65ZM246.03,583.31c.15-2.63.41-7.63,1.73-9.46,34.11,3.09,68.61,2.26,102.79.58,1.02,8.51.85,17.39,0,25.95-.26,2.6-1.52,14.63-3.71,15.35-5.79.16-11.88,1.21-17.62,1.45-22.18.91-53.17,1.38-74.89-1.43-2.05-.26-5.43-.95-6.27-3.07-2.47-6.22-2.41-22.38-2.02-29.37ZM351.94,609.78c1.19-4.14,2.29-8.34,2.56-13.34.4-7.35.13-15.39-.65-22.67,25.74-2.06,51.17-6.48,76.24-12.46,2.5,5.49,1.12,40.56-2.37,42.75-25.11,5.64-50.75,9.54-76.5,11.11-.34-.34.46-4.49.72-5.4ZM433.37,598.27c.3-1.18.61-4.91.71-6.4.73-10.41.2-21.49-.63-31.84,16.2-4.84,32.27-10.18,47.73-17.03,2.18-.97,14.49-7.73,15.35-7.05.83,1.71,1.17,4.03,1.32,5.92.51,6.71.42,16.95,0,23.71-.18,2.94-1.36,12.84-3.01,14.74-.66.76-12.13,6.04-14.12,6.92-15.81,6.95-32.59,11.75-49.29,16.11-.86-2,1.87-4.79,1.94-5.07ZM487.31,534.98c-11.36-4.07-22.83-7.87-34.79-9.91l1.9-36.48,34.14,6.36-1.25,40.03ZM435.07,433.68c-20.32-6.69-41.34-9.86-62.51-12.38-.99-.12-1.63-.03-2.26-1.01,2.55-3.06,5.95-5.09,9.41-7.01,3.18-1.77,11.31-5.88,14.58-5.86,14.42.12,40.36,6,54.9,9.58,6.31,1.55,12.64,4.17,19.06,4.94.16,1.73.04,1.07-.98,1.3-11.18,2.56-21.98,5.03-32.19,10.44ZM372.04,414.16c-1.59,1.19-4.68,5.01-5.71,5.46-2.91,1.25-6.15-.71-9.19-.32,1.88-5.78-.52-10.37-1.97-15.77l30.24,2.63c-3.83,3.35-9.24,4.91-13.36,7.99ZM357.61,429.01c-.42-1.38-2.29-3.8-2.17-4.49.71-3.94,7.56-.58,10.23-1.28l-1.31,34.18c-2.33-.27-9.45-.04-10.39-1.78-2.55-4.71,1.2-5.49,2.83-8.74,2.91-5.8,2.61-11.89.8-17.9ZM355.82,506.36c3.57,3.77,5.4,8.61,7.51,13.25.09.2.78.34.97.79,3.77,8.8,5.04,18.63,7.96,27.72l-21.28,2.58-.95-1.06c-2.49-12.54-3.48-28.11-8.74-39.78-.33-.72-1.88-.51-1.25-2.48l15.78-1.03ZM205.85,420.17c-2.35.99-5.48,4.43-7.21,5.32-3.32,1.73-16.71,3.45-21.65,4.64-4.6,1.11-9.24,2.45-13.64,4.18-10.73-4.62-21.84-9.46-33.68-10.42-.23-1.75.08-1.03.96-1.33,24.73-8.53,51.45-11.69,77.27-15.09-1.84,4.15-2.87,8.18-2.05,12.7ZM78.09,500.11l-.33,6.33-10.56.94,1.93-8.92,8.96,1.65ZM79.01,524.77c.08-1.12,1.02-8.55,1.34-8.85.12-.11,1.54-.05,1.85.13.22.13,1.75,3.2,2.72,4.17,4.01,4.01,9.85,9.09,15.15,10.83-1.07,2.17-.78,5.48-1.35,7.4-1,3.36-1.78,7.05-1.97,11.29-.35,7.95.74,15.8.63,23.74l1.37,1.59c-1.11.16-1.92-.24-2.86-.75-2.73-1.48-12.61-9.12-14.12-11.51-.8-1.26-1.33-2.73-1.75-4.16-1.95-6.69-1.53-26.2-1.01-33.88ZM153.32,646.4c-2.66-.77-13.41-3.66-14.82-4.9-1.36-1.2-1.71-4.62-2.07-6.47-2.38-12.01-2.84-25.57-.85-37.6,22.82,6.98,46,12.86,69.72,16.07,1.25.78-.61,6.02-.71,7.9-.66,11.52-.45,24.78,2.65,35.84-18.17-2.27-36.33-5.77-53.92-10.83ZM217.52,659.12c-2.02-.3-6.58-.64-7.55-2.31-.65-1.12-1.1-4.97-1.34-6.55-1.36-9.12-1.75-20.99-.74-30.14.15-1.39.59-5.88,1.72-6.21l28.38,3.7,61.29,2.82-1.32,43.38c-6.24-.11-12.51.17-18.76.03-20.24-.43-41.62-1.69-61.68-4.72ZM249.95,690.41c.03-1.55.65-2.99.71-4.55.26-6.68-.82-13.53,1.38-19.98l94.51.64c1.32,1.12.96,30.7.75,34.46-.23,4.31-.63,10.97-1.34,15.09-.15.85-.35,1.11-1.04,1.59-2.07,1.45-18.37.57-22.33.68-21.69.58-44.68,1.34-66.36-.64-1.04-.09-4.89-.67-5.32-1.26-.97-8.64-1.13-17.32-.97-26.03ZM301.26,663.81l1.31-43.38c4.48-.15,9.02.2,13.51.03,17.56-.66,35.34-2.11,52.64-3.9,3.05-.32,20.96-2.88,21.95-2.4,1.35.64,1.83,4.99,1.97,6.62.4,4.62-.3,35.82-2.76,37.65-29.3,4.32-58.94,5.77-88.62,5.39ZM349.25,665.79c26.44-1.53,52.73-5.18,78.48-11.12,4.25,1.26,2.74,27.89,2.38,32.48-.24,3.01-1.41,16.37-2.31,18.07-.77,1.46-3.5,1.78-5.04,2.19-6.35,1.74-15.35,3.21-21.99,4.31-17.04,2.81-34.36,4.26-51.57,5.72-1.36-.98.59-9.73.69-11.89.3-6.38.68-14.09.7-20.34.01-6.48-.75-12.99-1.35-19.42ZM393.3,657.9c.85-3.47,1.74-7.24,2-10.81.51-7.06.9-16.69.66-23.72-.1-2.91-.82-6.27-1.18-9.2l.46-.65c24.34-3.86,48.51-9.09,71.7-17.4-.89,2.25,1.24,2.52,1.37,3.57.77,6.15,1.29,22.55-.07,28.19-.12.5-1.18.42-1.29.9-.67,2.97.21,10.18-2.17,12.51-1.57,1.54-24.73,7.47-28.72,8.42-14.08,3.37-28.48,5.86-42.76,8.19ZM433.38,658.37c-.05-.25-3.1-2.5-1.68-4.44,22-5.02,43.3-12.33,63.5-22.31,1.52,1.06,1.47,20.85,1.32,23.98-.29,5.74-1.17,13.87-2.16,19.53-.38,2.15-1.47,7.53-2.79,9.05-.5.58-6.71,3.94-7.95,4.54-11.24,5.5-26.2,10.32-38.36,13.58-2.1.56-12.88,3.32-13.87,2.65-1.23-.85.42-7.55.69-9.25,1.53-9.78,3.61-27,1.3-37.32ZM498.6,629.41c5.77-3.56,11.55-7.12,16.69-11.57,1.44-1.25,1.24-3.23,3.58-2.67,1.28,1.22.94,31.11.69,35.2-.15,2.4-.58,6.48-1.13,8.73-1.69,6.84-14.01,18.47-20.25,21.83-.79.43-1.26.89-2.31.64,4.3-17,3.58-34.72,2.74-52.15ZM519.52,593.81c-.23,4.58-.58,10.77-2.11,14.98-2.9,7.95-18.03,17.14-25.57,21.1-7.15,3.75-14.8,6.58-22.26,9.61,3.18-14.66,1.79-29.81,1.63-44.71,11.33-4.81,22.65-9.72,33.16-16.14,4.02-2.46,7.6-5.69,11.53-8.19.81-.52,1.3-.83,2.32-.63,1.48,7.84,1.71,15.99,1.31,23.98ZM518.1,563.46c-3.12,5.5-13.27,11.36-18.95,14.24,2.26-14.38,3.17-29.29.08-43.6l14.97-11.35c1.22-.67,3.95-6.63,4.99-6.17,1.19.53,2.08,4.32,2.24,5.66,1.11,9.45,1.2,33.24-3.33,41.22ZM515.5,475.42c-.78,1.14-1.83,1.35-2.31,1.96-5.86,7.37-11.54,12.3-20.52,15.85-11.41-3.54-23.13-5.82-34.94-7.54-1.11-1.25,5.04-6.48,5.9-7.57,3.11-3.9,5.35-7.09,6.42-11.99.28-1.27-.06-5.81,1.27-6.1,13.14-1.07,26.83-1.23,39.78,1.55,2.55.55,6,.69,7.66,2.85.79,2.28-1.89,8.95-3.27,10.98ZM473.27,457.36c-2.22-1.18.4-2.93.76-5.03,1.11-6.48-3.91-5.15-5-6.86-.6-.94.35-2.8-1.27-4.51-2.01-2.13-4.77-1.44-6.73-2.29-2.47-1.06-2.09-4.06-7.58-4.11-4.01-.04-8.49,3.13-10.53,3.08-.58-.01-3.88-.96-3.6-2.23,1.02-2.19,22.05-7.8,25.63-8.56,2.46-.52,6.6-1.7,8.89-1.69,6.76.05,25.97,11.27,31.54,15.84,5.4,4.43,12.4,11.84,12.83,19.04-14.69-3.21-29.94-4.18-44.95-2.69ZM510.98,440.99l-16.22-11.06-4.81-2.1,21.03-1.96v15.11ZM500.13,423.9c-4.24.38-12.52,1.25-16.39.62-3.44-.55-10.37-4.23-14.3-5.42-18.9-5.72-38.64-9.65-58.15-12.86-1.99-.33-9.63-.35-10.05-1.82,1.36-21.44,2.85-42.95,7.19-64.01,4.06,1.36,8.09,2.94,12.32,3.78,22.27,4.41,52.9,3.86,75.26-.01,2.82-.49,14.06-3.92,15.29-3.75.52.08.75.73.75,1.34,0,4.84-5.43,10.9-6.78,16.26-.6,2.38-1.76,9.44-.04,11.15,2,1.99,7.29-.17,7.73.16-1.57,4.33-2.24,13.46,3.75,14.34,1.37.2,2.37-.97,4.1-.22.58.25,5.2,4.4,5.28,4.74l.06,29.37c-8.12,3.95-17.05,5.5-26.02,6.31ZM409.08,337.14v-12.49c19.53,4.35,40.13,5.42,60.18,4.63,10.75-.42,25.22-1.57,35.44-4.66,2.47-.75,4.33-2.53,6.94-2.59v14.46c-23.29,7.23-49.65,8.72-73.96,6.57-9.61-.85-19.68-2.3-28.61-5.91ZM385.42,331.54c-.7-13.03.87-25.86,1.96-38.12.09-1.03.51-1.95.67-2.96,1.67.78,3.43,1.28,5.25,1.65,1.9.39,8.07.88,8.46,2.06,1.06,3.21-.29,13.86.1,18.3.39,4.36,2.75,7.63,3.24,10.56,1.94,11.64-.88,20.48-2.5,31.61-.71,4.85-.91,9.82-1.42,14.69-4.42-1.67-4.56-7.09-4.6-11.18h-2.62c-.29,6.24-.15,12.09,6.62,14.25-.86,4.21.63,8.07-4.83,5.99-2.67-1.02-4.85-3.12-6.27-5.56-4.21-7.22-5.6-17.7-3.34-25.99.14-.5,1.12-.52,1.23-.98.59-2.57-1.74-10.55-1.94-14.33ZM370.97,342.04c-.23,12.44-1.39,27.01-16.46,29.28.44-1.66-1.03-4.11-.6-5.48.28-.9,4.4-2.49,5.75-4.81,1.08-1.86,1.85-5.57,1.82-7.69-.03-2-.19-3.73-2.33-3.03-1.07,4.03-.23,9.75-5.3,11.14-.69-.81-.35-12.2-.61-14.17-1.16-8.78-3.8-19.36-4.64-28.89-.97-10.9-.06-21.99-1.25-32.81l20.29-6.94c.7,3.16,1.49,6.39,1.9,9.61,2.26,17.46,1.75,36.38,1.43,53.79ZM185.54,400.24l-.66-4.6c5.98-1.1,10.33-7.39,9.21-13.48-.55-2.96-3.42-1.16-3.73-.15-1.01,3.32.61,8.55-4.47,10.33-2.17-.49-1.66-17.5-3.63-20.37l15.38-1.93c5.08,10.64,1.99,29.15-12.08,30.19ZM195.76,367.41c-2.32.79-13.29,2.67-14.07.2.25-4.17-1.71-8.47-2.06-12.4-.4-4.36.58-9.69.04-13.84-.1-.74-1.85-2.2-1.88-5.22-.02-1.78.19-7.04,1.84-7.22l-1.32-.33c-.66-1.74,1.13-1.03,1.32-1.74.17-.64.16-2.53.05-3.24-.25-1.61-1.47-.4-1.37-1.59h1.31s0-.99,0-.99c0-.62-1.15-.06-1.33-.76-.58-2.25.21-7.54,0-10.41-1.1-14.99-3.01-32.73-7.55-47.01-.64-2.02-1.42-6.23-3.62-6.57-.19-1.04.89-.72,1.51-.53,2.21.7,9.02,6.74,10.74,8.66,9.15,10.17,15.62,28.94,17.81,42.34,3.06,18.82,2.59,39.15,2.7,58.21-.38,1.1-3.02,2.06-4.13,2.44ZM82.79,263.38c5.95,18.28-3.33,51.51-5.64,71.54-.46,3.95-.77,20.55-1.61,22.41-.09.21-1-.05-1.15,1.12-.38,2.91,1.45,11.79-1.73,12.73-2.12.63-12.82.34-15.64.12-3.67-.28-12.79-1.94-15.45-4.3-.13-.11-1.93-2.57-1.96-2.74-.31-1.48-.61-5.91-.71-7.72-1.22-22.2,3.81-57.08,14.03-76.77,5.83-11.22,11.12-20.89,23.17-26.56,3.26,2.32,5.47,6.38,6.7,10.15ZM31.37,288.51c1.42-1.23,6.27-18.4,10.18-15.78,1.25,3.99.53,9.35-.71,13.28-.16.5-1.03.53-1.35,1.44-.57,1.64-2.36,6.2-.14,6.92l3.86-1.26-2.68,9.12-31.02-5.34c-.97-3.08-3.32-21.6-1.46-22.84,2.62-.52,4.1,3.94,4.91,5.93,1.42,3.52,1.11,10.42,6.26,9.19,1.24-7.43.18-17.28,5.59-22.99,2.78.02,3.29,20.25,2.96,23,1.29.01,2.51.31,3.62-.65ZM591.19,838H3.43V299.67c12.69-.11,25.2,2.56,37.48,5.26.56,1.75-1.03,1.03-1.29,1.79-3.44,10.08-4.75,41.33-3.96,52.43.24,3.39,2.52,9.43,2.56,11.17.04,2.03-2.29,7.98-2.55,11.2-.76,9.35.77,21.71,10.32,25.82,3.06,1.31,8.94,3.5,12.02,2.11l-1.82,34.37c1.22,5.38,10.68,4.08,11.07,5.47-2.13,14.92.62,31.11-.71,45.92-.66,7.4-4.83,12.83-4.55,20.94.3,8.51,7.23,11.33,14.46,13.32.74,10.2-1.7,22.43,1.25,32.16.34,1.14,1.7,2.24,1.75,3.25.06,1.17-1.32,3.32-1.55,4.78-1.31,8.31-1.43,20.96-.85,29.44.2,2.94,1.91,8.19,1.79,10.4-.15,2.73-2.14,7.65-2.42,11.28-.84,10.93-1.21,34.13,3.81,43.49,11.51,21.43,60.09,35.88,82.68,41.57,74.28,18.69,163.63,20.76,239.09,8.42,32.53-5.32,92.49-18.19,113.94-44.5,8.32-10.21,7.95-35.42,6.87-48.32-.32-3.77-2.64-8.38-2.68-11.17-.04-3.24,1.77-9.28,2.02-13.16.45-6.99.68-19.52-.83-26.1-.32-1.39-1.75-2.81-1.64-4.02.11-1.32,2.41-4.33,2.95-6.21,2.2-7.66,2.52-35.87.4-43.41-.52-1.85-2.16-3.31-2.22-5.02-.08-2.61,1.82-9,2.03-12.49.73-11.8.82-38.22-4.16-48.48-1.1-2.26-5.35-7.39-5.7-8.87-.25-1.06-.3-16.09-.06-16.9,2.67-1.21,14.49-3.55,15.49-5.64l-.23-34.39c.61-1.81,6.67-2.04,9.14-3.37,7.31-3.93,10.51-17.31,10.54-25,.02-7.05-.72-14.05-.68-21.67.1-18.14-.23-32.91-3.87-50.74-.28-1.35-1.36-2.82-1.43-3.9-.12-2.06,2.09-3.15,2.49-4.71,1.11-4.31-3.5-10.44-3.85-14.87.53-2.51,45.49-7.28,50.68-5.01v581.71ZM591.19,252.35c-13.65-.76-27.17,1.45-40.65,2.52-1.67-2.62-8.42-15.82-5.41-18.02,4.01-2.93,10.11,7.71,12.05,8.51,1.2.49,3.76.55,3.82-1.23.37-2.69-1.01-2-1.55-3.12-3.66-7.46-7.53-16.29-6.96-24.71,1.39-2.24,7.41,2.9,8.25,4.05,2.41,3.28,2.49,12.25,7.44,11.63v-9.53c0-5.02,5.64-16.71,9.21-20.37,3.4-3.49,9.08-4.7,13.8-4.28v54.56ZM591.19,88.02h-140.7c-2.39-11.02,13.25-17.88,21.99-17.77,2.64.04,10.52,3.14,11.58,2.37,1.01-3.05.47-5.8,1.45-9.07,3.91-13,23.51-20.46,35.67-15.66,2.44.97,5.52,4.59,8.4,2.71,1.12-.73,1.32-5.78,2.1-7.93,2.54-6.95,13.12-12.56,20.04-14.14,14.46-3.31,28.07,5.38,28.95,20.69,1.15,1.08,8.43-3.29,10.5-3.27v42.07ZM591.19,43.33l-7.09,1.18c-2.55-4.02-3.61-8.57-7.04-12.36-11.11-12.24-34.93-8.6-44.72,3.29-2.96,3.59-3.55,6.99-5.24,11.16-10.32-5.1-21.71-4.05-31.67,1.23-7.69,4.07-14,11.39-14.03,20.49-7.4-1.58-12.66-1.79-19.89.81-7.24,2.61-17.91,11.24-13.81,20.06.49,1.05,3.56,2.79,4.45,2.79h139.05v102.54c-15.27-1.44-25.12,13.85-25.65,27.61-3.04-3.12-4.22-7.06-8.72-8.69-13.04-4.7-5.84,18.37-2.46,23.49-2.41-.16-3.43-2.95-5.71-3.48-12.82-2.99-4.04,17.36-2.16,22.86l-7.58,1.89c-.95-.09-1.14-2.67-1.63-3.39-6.58-9.75-12.25-18.78-22.05-26.08-8.99-6.7-21.21-12.12-32.52-12.51,2.19-6.45,6.54-12.43,7.48-19.49,1.2-1.99,2.94-1.21,4.36-1.85,14.85-6.78,18.09-32.14,9.49-45.02-3.36-5.04-3.1-6.11-5.43-11.64-17.11-40.68-78.34-41.02-100.91-5.3-3.26,5.16-4.11,9.58-5.81,15.25-1.14,3.81-1.41,3.65-2.87,6.92-2.41,5.4-2.61,18.02.71,22.97.85,1.27,3.08,2.58,3.44,3.79,1,3.39.8,9.6,1.62,13.5,2.42,11.57,10.04,21.49,19.54,28.43-8.62,4.17-16.67,10.06-21.96,18.13-7.35,11.2-12.46,26.76-12.9,40.35-.24,7.28,3.83,5.45,4.55,8.05.14.49-.56,9.17-.75,10.23-.1.54-.26,1.66-.92,1.82l-8.07-.06-3.35-25.25c4.05-5.27,8.23-3.66,5.24-11.66-1.14-3.06-3.69-8.61-5.3-11.92-7.94-16.35-21.49-31.52-38.05-39.53-.49-1.57,3.74-3.69,5.26-5.27,2.17-2.26,3.37-5.45,5.26-7.92,9.23,4.39,12.9-4.19,13.74-11.87.51-4.65-1.9-12.61-1.75-13.6.09-.63,1.85-2.72,2.31-4.24,1.46-4.79,2.31-11.05-.55-15.52-.79-1.23-2.14-1.42-2.53-2.24-.67-1.41-.31-4.17-.82-5.61-.28-.78-3.17-2.47-3.66-4.2-.79-2.77.54-7.77-.31-11.53-2.35-10.45-10.79-27.09-19.24-34-28.51-23.33-76.87-10.85-90.52,23.21-1.77,4.41-.79,3.79-3.62,7.88-4.08,5.9-.75,13.08-2.31,18.4-.44,1.49-3.66,3.3-4.61,5.25-3.11,6.41-.46,11.51-.53,17.23-.04,3.18-1.76,7.6-1.99,11.15-.32,4.91.57,18.43,5.03,21.31,4.4,2.85,7.2-.48,9.66.03.32.07,3.08,3.89,4.45,4.92,2.23,1.67,4.93,2.37,7.17,4-9.14,4.18-18.12,9.02-25.65,15.76-10.12,9.05-20.9,25.43-26.24,37.66-.66,1.51-1.42,6.12-.59,7.55,1.09,1.88,6.44,3.77,6.54,5.41-1.98,9.66-3.12,19.39-3.36,29.26l-3.64-.63c-1.07-4.09-1.47-8.45-2.6-12.52-5.27-19.07-16.02-36.33-34.51-45.02,4.99-4.2,8.8-7.78,12.16-13.46,5.77-9.76,4.94-14.38,7.71-24.5,1.44-5.26,4.67-8.4,4.46-15.24-.15-5.06-3.74-9.73-4.25-13.44-1.39-10.06-1.12-13.44-6.65-22.39-20.43-33.09-71.2-33.72-92.86-1.55-4.05,6.01-4.46,12.29-7.05,17.27-.55,1.07-2.52,1.55-3.52,3.05-4.47,6.74-2.7,20.36-2.94,28.09-.14,4.47-1.67,8.43-1.01,13.82.77,6.32,7.34,15.67,14.44,13.26,2-.68,1.51-3.07,3.83-2.28l7.3,11.1c-9.38.2-18.12,5.73-25.44,11.1l-1.1.04c-5.62-5.9-10.27-12.82-15.77-18.79-7.55-8.2-26.03-25.21-37.57-25.21H3.43V3.23h587.77v40.1Z"/>
  <rect x=".14" y="841.29" width="595" height=".66" fill="#fff"/>
  <path d="M591.19,256.29v581.71H3.43V299.67c12.69-.11,25.2,2.56,37.48,5.26.56,1.75-1.03,1.03-1.29,1.79-3.44,10.08-4.75,41.33-3.96,52.43.24,3.39,2.52,9.43,2.56,11.17.04,2.03-2.29,7.98-2.55,11.2-.76,9.35.77,21.71,10.32,25.82,3.06,1.31,8.94,3.5,12.02,2.11l-1.82,34.37c1.22,5.38,10.68,4.08,11.07,5.47-2.13,14.92.62,31.11-.71,45.92-.66,7.4-4.83,12.83-4.55,20.94.3,8.51,7.23,11.33,14.46,13.32.74,10.2-1.7,22.43,1.25,32.16.34,1.14,1.7,2.24,1.75,3.25.06,1.17-1.32,3.32-1.55,4.78-1.31,8.31-1.43,20.96-.85,29.44.2,2.94,1.91,8.19,1.79,10.4-.15,2.73-2.14,7.65-2.42,11.28-.84,10.93-1.21,34.13,3.81,43.49,11.51,21.43,60.09,35.88,82.68,41.57,74.28,18.69,163.63,20.76,239.09,8.42,32.53-5.32,92.49-18.19,113.94-44.5,8.32-10.21,7.95-35.42,6.87-48.32-.32-3.77-2.64-8.38-2.68-11.17-.04-3.24,1.77-9.28,2.02-13.16.45-6.99.68-19.52-.83-26.1-.32-1.39-1.75-2.81-1.64-4.02.11-1.32,2.41-4.33,2.95-6.21,2.2-7.66,2.52-35.87.4-43.41-.52-1.85-2.16-3.31-2.22-5.02-.08-2.61,1.82-9,2.03-12.49.73-11.8.82-38.22-4.16-48.48-1.1-2.26-5.35-7.39-5.7-8.87-.25-1.06-.3-16.09-.06-16.9,2.67-1.21,14.49-3.55,15.49-5.64l-.23-34.39c.61-1.81,6.67-2.04,9.14-3.37,7.31-3.93,10.51-17.31,10.54-25,.02-7.05-.72-14.05-.68-21.67.1-18.14-.23-32.91-3.87-50.74-.28-1.35-1.36-2.82-1.43-3.9-.12-2.06,2.09-3.15,2.49-4.71,1.11-4.31-3.5-10.44-3.85-14.87.53-2.51,45.49-7.28,50.68-5.01ZM560.71,322.25c.75,1.28.62,5.14,3.19,4.37s-1.19-8.6-2.61-9.87c-.75-.67-2.28-1.54-3.27-1.29-2.77.7,2.3,6.14,2.69,6.79ZM571.88,323.76c.99-1.61,1.51-3.82,2.89-5.35l-1.66-2.2c-3.15-.08-8.13,12.7-3.96,11.72,1.2-.82,1-2.41,1.67-3.47.23-.37.91-.45,1.06-.7ZM560.95,402.87c-3.28-.46-3.86,1.55-4.78,4.09-.85,2.34-3.74,13.34-.74,14.26,3.24.99,2.06-5.32,2.41-7.33s1.08-4.91,1.7-6.83c.34-1.05,2.41-1.51,1.42-4.19ZM548.02,408.57c-1.44-2.17-1.22-5.08-4.82-4.39l4.65,12.62c1.7.56,1.65,4.83,3.55,4.46,2.38-.47-.73-9.69-1.48-11.01-.61-1.07-1.62-1.27-1.9-1.69ZM561.62,423.24c2.47,1.69,3.64-4.59,4.33-5.85.49-.9,7.28-9.07,3.89-9.25-3.51.55-10.58,13.48-8.21,15.1ZM37.61,448.23c-1.86-1.84-5.22,5.42-5.58,6.58-.5,1.59-2.14,10.08,0,10.51s1.59-4.48,1.93-5.95c.89-3.97,2.73-7.28,3.65-11.13ZM27.09,465.31c-.31-5.1-2.02-10.57-6.24-13.79-.46.6-1.62,1.03-1.38,1.99.72,2.84,5.8,7.63,5.03,11.76l2.59.04ZM560.15,493.76c-9.73,1.05-31.38,15.18-14.01,21.53,9.66,3.53,46.64,5.02,33.51-13.78-4.18-5.99-12.49-8.5-19.5-7.74ZM37.48,532.54c-6.2.43-22.7,7.27-15.32,14.93,4.87,5.05,29.11,5.13,32.57-.95,5.05-8.87-10.28-14.47-17.25-13.98ZM551.79,558.61c.35.21,1.55.14,1.96-.26l.65-1.34c-1.61-4.78-3.25-12.78-9.23-13.47-1.3,1.31,3.75,7.32,4.33,8.46s1.92,6.4,2.28,6.62ZM560.7,554.46c.78-1.32,4.47-6.54,4.58-6.94,1.09-3.91-4.18-.5-5.42.84-1.82,1.97-7.39,12.76-1.54,11.18-.24-2.49,1.62-3.8,2.38-5.07ZM42.22,586.58c-.34,2.89,0,6.81,0,9.86,0,.2,1.08,1.23,1.63.98,2.76-1.87,1.31-5.33,1.66-8.2.46-3.82,1.61-7.61,1.3-11.51-1.83-2.08-4.5,8.04-4.6,8.87ZM58.65,582.32c-1.93-1.52-8.68,10.26-9.04,12.31-.25,1.37-.19,2.74-.15,4.11,4.27.47,3.68-3.95,5.14-7.02.9-1.89,5.51-8.26,4.06-9.41ZM39.85,595.87c-.85-2.54-4.67-13.9-8.48-12.9-3.07.81,2.53,6.42,3.31,7.85,1.33,2.43,2.35,5.8,2.99,8.51l3.22.07c.98-2.21-.98-3.34-1.05-3.53ZM560.69,613.63c.37-1.35,1.9-6.1,1.27-7.01-2.08-1.85-3.86.95-4.51,2.76-1.39,3.84-2.91,14.03-2.45,17.99.28,2.37,1.67,3.41,3.21,1.17.25-4.35.35-9.49,1.4-13.7.28-1.12,1.05-1.09,1.08-1.22ZM548.08,620.17c-.86-1.57-5.94-11.17-8.16-8.94.67,4.26,4.25,7.78,6.04,12.03,1.19,2.83.53,7.33,4.1,7.66,2.66-.7-.17-8.25-.99-9.97-.25-.52-.89-.62-.98-.79ZM571.05,618.7c.68-.78,3.36-1.78,3.05-3.18-1.08-4.96-8.48,5.24-9.22,6.54-.85,1.5-4.74,9.46-2.27,10.2,2.61.78,3.24-5.19,4.15-7.01s2.91-4.95,4.3-6.55ZM46,636.38c-6.94,1-13.59,6.21-16.25,12.64-.2,5.4,12.09,7.32,16.05,7.59,5.62.39,21.92.36,22.72-6.92,1.33-12.04-13.38-14.63-22.53-13.31ZM21.41,701.71c2.96,2.64,13.71,4.59,17.82,4.86,5.37.35,24.84-.42,27.59-5.33,3.73-6.68-3.48-14.2-9.02-17.18-9.7-5.2-22.55-3.66-31.59,2.21-4.96,3.22-10.61,10.25-4.81,15.44ZM564.05,721.48c2.94-3.65-.12-11.72-2.82-14.89-9.26-10.88-26.1-10.7-38-4.57-5.48,2.82-17.81,12.84-9.84,18.88,8.51,6.46,37.93,6.33,47.56,2.39.63-.26,2.79-1.42,3.11-1.82ZM97.7,710.24c-7.26-9.39-24.46-9.34-30.4.68-5.34,9,8.88,10.49,14.7,10.74,3.74.16,17.23-.41,18.07-4.95.66-3.59-.73-4.35-2.37-6.47ZM490.19,741.17c-5.59-14.11-20.12-18.1-33.95-12.78-5.32,2.05-21.65,12.62-13.32,18.92,7.83,5.92,35.24,6.12,43.55,1.44,3.36-1.9,2.59-3.9,4.8-5.75v-1.26c-.07-.27-.98-.31-1.07-.56ZM140.68,733c-12.49,1.72-28.96,16.55-8.42,21.22,7.75,1.77,33.22,3.12,31.46-9.71-1.25-9.12-15.33-12.57-23.04-11.51ZM237.48,762.41c.15.15,1.52.08,2-.29.53-.4,2.38-10.95,2.91-12.87.41-1.5,3.7-6.7,1.32-7.21-3.06-.66-5.55,11.4-6.07,13.64-.4,1.73.7,4.44-1.47,4.12v.64c1.85-.42,1.15,1.82,1.31,1.98ZM230.91,763.72c3.94-.67,1.43-7.41.49-10.03-1.04-2.9-6.07-13.6-9.03-8.07,5.24,4.66,6.6,11.62,8.54,18.1ZM248.25,759.37c1.87-2.48,5.02-4.7,7.33-6.8.81-.62-.16-1.84-.71-1.98-3.1-.8-12.19,9.45-11.45,13.41l1.97.74c1.15-1.79,1.54-3.61,2.86-5.37ZM375.13,766.78c-1.16-2.52-5.61-13.13-9.11-12.25-.87.22-.98,1.13-.73,2.02.38,1.33,4.22,5.7,5.31,7.85,2.16,4.26,3.11,8.35,3.69,13.07,5.79,1.79,3.47-6.03,2.26-9.17-.46-1.19-1.31-1.28-1.41-1.51ZM387.13,764.8c.6-1.44,3.69-8.53,3.54-9.28-.76-1.62-2.9.03-3.77.75-2.74,2.26-6.39,13.42-6.69,17.08-.25,3.11,1.6,5.27,3.08,2.39,1.05-2.05,1.34-6.73,2.42-9.44.44-1.1,1.34-1.31,1.42-1.5ZM48.13,769.31c-.32,2.96,0,6.77,0,9.86,0,.2,1.08,1.23,1.63.98,3.11-2.08.96-6.44,1.67-9.39.26-1.07,1.67-4.98,2.27-7.05.75-2.61,3.69-5.81,1.33-7.86-4.3,2.39-6.41,8.8-6.91,13.46ZM527.42,782.13v-10.19c.21-4.48,3.75-10.46,3.96-14.46.05-.98.09-1.18-1.01-1-2.79.47-3.57,5.75-4.32,8.05-.15.45-1.14.49-1.24.97-.6,2.78-1.17,12.36-.68,14.98.37,1.95,1.53,1.72,3.29,1.64ZM39.84,768.74c-.87-1.49-3.64-6.64-4.86-7.31-.67-.37-3.04-.57-3.28-.33-1.09,1.09,4.85,8.04,5.82,10.28,1.55,3.61,1.03,9.3,5.32,8.76,1.31-3.15-.3-7.42-1.75-10.33-.35-.71-1.12-.85-1.25-1.07ZM517.57,781.47l2.54-1.03c-1.2-6.55-3.07-17.21-11.1-18.02,3.11,6.61,8.12,11.2,8.55,19.06ZM547.8,762.42c-1.22-.18-1.94,0-2.99.62-3.13,1.83-10.2,11.4-11.28,15.01-.85,2.84-1.64,5.39,2.38,4.66,1.76-4.56,3.6-8.82,6.64-12.72,1.9-2.43,5.73-4.1,5.24-7.57ZM398.39,763.87c-2.72.7-10.19,9.41-10.36,12.07s1.37,2.89,2.92.89c1.63-2.09,2.99-4.8,5.03-6.8.86-.84,8.63-5,4.77-6.23-.81-.24-1.57-.14-2.37.07ZM68.31,768.13c1.04-1.17.49-2.8-.87-3.05-.28-.05-4.57,2.79-4.87,3.07-1.63,1.54-7.6,10.69-5.26,12.36l1.99.3c.59-2.2,2.08-5.7,3.39-7.47,1.09-1.47,4.31-3.75,5.62-5.21ZM199.14,789.16c3.7-4.01-2.57-11.9-6.33-13.97-6.89-3.79-15.34-3.85-22.41-.64-5.32,2.41-15.17,10.79-6.07,15.32,6.37,3.17,29.91,4.61,34.82-.71ZM295.06,794.87c4.79,8.34,23.97,8.23,32.85,7.67s24.93-2.93,15.71-15.76c-9.14-12.71-33.21-11.4-43.99-1.34-2.48,2.32-3.25,4.87-5.6,7-.59,2.26.82,2.05,1.04,2.43ZM100.59,796.79c-5.26.44-13.86,2.92-17.64,6.68-3.2,3.19-5.24,7.71-.85,10.76,6.21,4.32,27.85,3.96,35.21,1.9,10.46-2.93,9.93-10.3,1.38-15.47-5.38-3.25-11.9-4.39-18.1-3.87ZM428.63,800.03c-3.41.57-10.63,4.53-10.18,8.63.91,8.49,36.49,8.21,28.12-3.21-3.73-5.09-12.08-6.4-17.94-5.41Z" fill="#fff"/>
  <path d="M536.24,260.63c.08.17.77.28.99.77,1.25,2.7,4.96,12.81,3.38,14.98-.92,1.27-13.2,7.31-15.47,8.2-4.67,1.84-16.38,5.15-21.08,4.62-.82-.09-2.1-1.57-2.33-2.33-2.56-8.25-2.71-19.07-5.14-27.57l-2.7-.38c-.44.42,1.24,10.45,1.5,11.97.81,4.58,2.34,14.77,3.77,18.58,1.64,4.39,5.74.78,8.53,3.46l3.32,23.54c.11,2.34-2.24,3.11-3.99,3.9-8.38,3.75-28.16,5.18-37.77,5.63-20.44.94-42.21-.45-62.01-5.44-2.23-2.16-2.47-18.77-2.53-22.64-.11-7.23.11-15.01.38-22.26.09-2.35,1.97-16.8,1.34-17.4-.72.12-2.13-.25-2.55.09-1.32,1.07-2.29,28.37-2.05,32.13-.99.98-18.76-3.67-19.09-5.05,0-1.91-.04-3.81.11-5.72,1.22-15.85,9.86-36.98,22.62-47.06,2.46-1.94,9.74-6.34,12.65-6.46,1.37-.06,9.72,3.19,10.65,4.15,1.28,1.33,1.97,6.14,3.32,8.36,8.94,14.73,31.02,9.33,39.32-3.23,3.49-5.28,3.92-10.96,6.17-16.51,8.87-.64,19.21,2.36,27.03,6.54,14.73,7.88,24.51,20.28,31.63,35.11Z" fill="#fff"/>
  <path d="M266.35,211c5.63,18.26,26.31,26.96,43.02,16.27,5.51-3.53,7.87-14.01,12.1-14.88,1.32-.27,7.84,2.65,9.4,3.46,16.74,8.57,33.41,27.92,39.91,45.55.56,1.52,2.92,7.66,2.49,8.69-1.74,4.04-23.58,12.88-25.36,11.57-1.3-2.28-.41-5.32-.64-7.93-.51-5.78-1.2-11.84-2.16-17.56-.25-1.48-1.02-8.78-2.76-8.4-1.33.88-.89,1.54-.83,2.75.66,13.36,3.37,26.78,3.81,40.27.13,4.02,1.18,8.61-2.63,10.58-5.8,3.01-21.79,4.54-28.64,4.89-18.03.91-52.29,1.18-69.12-3.84-5.74-1.71-5.06-2.51-4.83-8.31.34-8.55,1.18-17.74,1.97-26.29.52-5.64,2.59-13.17,2.65-18.45.02-1.4-.26-3.7-2.01-2.57-3.35,12.05-3.73,24.69-4.59,37.12-1.82,1.81-24.94-6.89-28.29-8.85-8.52-4.98-5.33-7.97-1.85-15.7,4.4-9.77,13.69-22.45,21.59-29.68,10.02-9.19,23.21-16.42,36.76-18.67Z" fill="#fff"/>
  <path d="M340.32,423.64c7.27,13.62,11.23,30.12,10.24,45.94-3.22,51.07-69.71,67.97-105.49,37.78-5.21-4.4-11.05-11.06-12.87-17.71-7,2.33-12.32,4.03-19.01-.38-9.09-5.99-10.09-26.32,2.96-26.63,7.84-.18,11.73,10.46,17.24-3.74,3.11-8.01,2.92-16.24.81-24.49,7.14-.64,14.14-5.86,16.47-12.48,12.64,5.04,30.12,2.08,38.48-9.2,7.84,5.62,18.5,5.2,26.15-.62,5.84,5.9,13.15,6.02,20.8,4.19,1.09.54,3.42,5.82,4.22,7.33ZM332.61,428.69c-2.65-3.15-16.93-4.63-20.32-2.8-.64.35-1.75,2.13-1.71,2.83l2.98,2.92c2.49-.42,25.44,4.65,19.05-2.96ZM249.32,444.93c1.07,1.1,7.79-4.56,9.41-5.38,2.08-1.05,10.31-3.12,10.9-4.92.38-1.68-.22-2.71-1.75-3.34-6.46-2.69-20.34,5.66-18.56,13.64ZM328.51,445.31c-5.48-8.03-14.83-5.68-13.39,4.5.59,4.15,6.23,8.41,10.44,6.61.26-.11,3.88-3.79,3.94-4.06.22-1.03.23-5.27,0-6.3-.11-.51-.84-.52-1-.75ZM270.12,449.13c-4.26-2.83-8.68-1.81-11.13,2.56-2.8,5,1.95,12.39,7.69,11.62,3.75-.5,3.46-2.65,5.85-4.71,1.08-3.54.79-7.34-2.41-9.47ZM306.34,465.81c-3.18,3.29-7.33.34-10.33,2.46,2.35,3.92,10.1,2.66,12.76-.38,5.32-6.1-1.94-13.18-7.68-15.22-2.13-.76-5.45-1.01-3.66,2.02.65,1.09,14.25,5.6,8.92,11.12ZM296.52,480.63c-6.67.77-20.47,7.74-17.12,16.06,2.28,5.67,9.69.72,13.95-.17,3.36-.71,6.76-1.18,10.2-.95,4.58.3,13.53,3.78,12.69-5.41-.87-9.51-12.39-10.37-19.72-9.52Z" fill="#fff"/>
  <path d="M505.22,369.19c2,1.99,7.29-.17,7.73.16-1.57,4.33-2.24,13.46,3.75,14.34,1.37.2,2.37-.97,4.1-.22.58.25,5.2,4.4,5.28,4.74l.06,29.37c-8.12,3.95-17.05,5.5-26.02,6.31-4.24.38-12.52,1.25-16.39.62-3.44-.55-10.37-4.23-14.3-5.42-18.9-5.72-38.64-9.65-58.15-12.86-1.99-.33-9.63-.35-10.05-1.82,1.36-21.44,2.85-42.95,7.19-64.01,4.06,1.36,8.09,2.94,12.32,3.78,22.27,4.41,52.9,3.86,75.26-.01,2.82-.49,14.06-3.92,15.29-3.75.52.08.75.73.75,1.34,0,4.84-5.43,10.9-6.78,16.26-.6,2.38-1.76,9.44-.04,11.15Z" fill="#fff"/>
  <path d="M109.5,261.98c9.84,11.6,26.54,13.85,36.87,1.49,2.16-2.58,2.68-7.24,4.06-8.43,2.06-1.78,10.51-4.04,12.79-1.74l6.23,14.81c3.38,17.14,5.89,34.72,6.26,52.24.08,3.63.76,13.85-1.64,16.16-1.78,1.71-9.37,3.24-12.06,3.72-8.56,1.54-19.99,2.52-28.71,2.85-17.7.66-36.12-1.61-53.61-3.97.93-5.73,1.27-11.56,2.08-17.31,2.95-20.96,12.85-46.46,1.1-65.73l-3.83-4.7c1.4-2.78,16.7-6.91,19.74-5.99.6.18,4.64,3.21,4.9,3.69.67,1.27.66,3.78,1.53,5.7.83,1.82,3.06,5.76,4.3,7.21Z" fill="#fff"/>
  <path d="M176.28,358.88c1.53,3.56,1.29,7.71,2.06,11.3,1.06,4.94,2.63,10.73,3.25,16.58.72,6.79.82,13.79,1.23,20.61-14.33,2.45-28.65,5.01-42.64,8.97-21.17,5.99-42.91,14.23-57.37,31.44-3.29.01-22.14-2.4-23.18-4.16l1.05-33.48c9.63.19,8.57-8.75,8.5-15.83,10.94,6.28,12.31-3.1,10.33-11.98-.51-2.26-3.14-7.3-3.05-8.75.06-.95,1.18-1.77,1.3-3.23.27-3.27-.28-6.9-.03-10.22,31.95,6.92,66.82,6.55,98.56-1.26Z" fill="#fff"/>
  <path d="M345.93,320.73c1.17,7.28,2.6,14.65,3.31,22,.95,9.84,1.7,21.64,2.01,31.52.13,4.21,1.1,20.01-2.67,21.72-5.43,2.45-5.82-3.14-7.27-5.72-.99-1.77-3.87-5.93-5.22-7.41-6.43-7.02-19.67-9.04-27.89-4.25-9.36-12.73-33.22-9.46-42.77,1.75-8.44-5.12-22.17-1.91-29.2,4.52-3.56,3.25-4.36,9.18-10.58,8.16,1.02-5.55-.33-14.36.65-19.4.32-1.64,1.79-1.58,2.56-2.7,2.1-3.04,1.21-7.92,1.4-11.42.56-.63,5.59,4.69,9.5-.03,5.35-6.47-1.4-17.53-1.66-23.95-.16-4,1.44-8.86.71-13.15l1.03-1.61c9.03,3.39,18.66,4.84,28.23,5.87,20.46,2.2,43.44,2.21,63.58-2.15,2.1-.45,13.51-4.41,14.29-3.73Z" fill="#fff"/>
  <path d="M477.36,147.27c.71.71,1.03,8.99,1.43,10.62.49,1.99,1.69,5.52,2.4,8.23.37,1.41,2.26,8.9,2.87,9.3,2.18,1.42,4-5.09,5.53-6.57,4.71-4.52,9.94-2.78,11.9,3.26.39,1.21.05,2.5.31,3.52.15.58,1.23.54,1.3.79.5,1.89-1.13,1.43-1.3,2.1-.55,2.12-.31,3.9-1.32,6.46-2.48,6.25-6.83,6.78-12.85,8.18-3.01,25.37-26.49,36.35-49.98,34.88-14-.88-30.17-10.31-35.65-23.52-5.95-14.35-6.86-28.71-2.84-43.4.88-3.2,1.19-6.8,2.84-9.86,12.52-2.65,26.11-4.26,38.91-4.76,4.37-.17,35.15-.53,36.44.75ZM464.13,161.14c-2.06.35-13.67,5.24-14.21,6.84-.67,2,.33,2.78,2.21,2.91s15.33-4.44,16.76-5.65c1.01-.86,1.05-3.27.05-3.97-1.54-.55-3.24-.4-4.82-.13ZM424.78,172.08c.25-1.03.21-2.25-.26-3.21-1.45-3.01-22.29-6.66-17.47-.28,1.53,2.03,16.99,4.68,17.73,3.49ZM456.24,174.24c-6.95,1.41-3.31,14.03,2.89,12.69,5.13-1.11,4.29-14.15-2.89-12.69ZM414.14,176.22c-3.43,1.04-3.43,10.53,0,11.58,8.86,2.72,9.09-14.35,0-11.58ZM432.08,187.28c-7.93.48-7.41,11.5.93,11.14,1.14-.05,5.13-.99,4.32-2.92-.99-2.36-5.84,1.17-7.58-1.64-1.6-3.06,2.79-3.63,2.32-6.58ZM452.47,210.93c.16-.98-.07-1.55-.61-2.34-3.43-4.99-26.11-5.91-26.34,3.65,2.99.15,4.55-2.28,7.53-3.32,8.24-2.86,11.76.92,19.42,2Z" fill="#fff"/>
  <path d="M352.14,173.72c-1.85,2.37-3.81,4.86-7.21,4.96-1.77.06-3.59-1.51-5.23.03-.65.61-1.76,6.82-2.45,8.72-3.23,8.85-7.56,15.36-15.4,20.75-24.62,16.91-62.28,4.51-73.79-22.08-.71-1.65-.87-5.77-1.97-7.1-1.01-1.23-7.9-.86-11.52-5.57s-6.19-18.37.48-21.17,6.42,12.7,10.98,10.4c3.09-1.55,5.98-16.58,7.23-20.27,13.66-4.35,28.72-4.35,43.1-4.4,8.34-.03,17.19-.29,25.6.64,2.74.3,11.57,1.52,13.14,3.29,3.24,3.65,2.87,18.49,5.33,20.31,3.98,2.94,4.9-5.44,8.18-6.83,8.82-3.75,8.02,11.41,5.29,16.47-.66,1.24-1.3,1.25-1.76,1.83ZM259.31,154.96c4.32,4.34,7.62,2.82,12.68,3.4,2.03.23,21.22,3.8,15.52-3.04-.72-.87-13.39-3.2-15.6-3.46-1.83-.22-5.6-.68-7.23-.68-1.81,0-6.67,1.69-5.38,3.78ZM322.82,151.32c-2.92.19-17.27,2.23-18.18,4.84-.5,1.42-.22,3.44,1.56,3.52,3.87-.88,24.85-1.88,25.88-5.04,1.44-4.42-6.95-3.47-9.26-3.32ZM315.54,161.76c-4.7,1.34-4.7,15.39,3.66,12.89,5.86-1.76,3.16-14.84-3.66-12.89ZM272.83,163.09c-6.53.93-5.76,12.8,1.1,12.33,5.74-.39,6.84-13.47-1.1-12.33ZM290.17,184.55c11.52,3.87,21.25-3.8,10.74-13.71-3.78,1.02.41,4.15.86,6.4,1.79,8.93-10.03,3.71-11.3,4.71l-.3,2.6ZM294.53,193.37c-5.28.1-10.67,2.25-14.31,6.08l1.04,1.6c2.06.62,4.53-2.34,6.65-3.11,3.62-1.32,11.15-1.23,14.78.06,1.23.44,6.46,4.62,7.1,2.09,1.08-4.28-12.32-6.77-15.27-6.71Z" fill="#fff"/>
  <path d="M178.54,192.33c.41,1.73,1.59,4.09,1.77,7.08.62,10.23-2.14,22.41-6.49,31.69-15.81,33.74-72.78,27.86-85.62-5.99-.42-1.11-1.86-4.5-1.92-4.77-.28-1.23.4-3.17-.31-4.19-1.87-.99-3.98-.95-5.86-2.03-5.73-3.29-10.35-13.98-6.26-19.87.56-.8,4.07-3.44,4.98-3.58,3.04-.49,6.91,4.14,8.72,6.29,1.05,1.26.99,4.44,3.93,1.77,3.3-2.99,6.16-17.9,5.95-22.64,3.64.6,7.38-.65,10.82-.68,3.09-.03,5.9.69,8.55.71,19.33.16,38.75.3,57.76,4.04,1.9.85,3.4,9.79,3.97,12.16ZM130.15,195c1.95-1.87-.09-3.34-1.92-3.99-3.89-1.38-16.12-4.62-20.02-4.96-1.14-.1-2.31-.31-3.43.01l-.62,1.67c.08,2.8,11.53,5.94,14.19,6.59s9.73,2.68,11.81.68ZM170.26,190.72c-2.19-2.11-20.1-.16-22.56,2.43-.87.91-1.11,1.67-.99,2.93.12.58,1.3.78,1.84.87,3.07.55,16.53-.68,19.7-1.66,2.14-.66,3.84-2.8,2.02-4.56ZM116.32,198.57c-4.9,1.45-4.78,14.9,4.16,12.06,5.6-1.78,4.25-14.55-4.16-12.06ZM155.5,211.4c2.78,3.81,8.21,2.42,8.94-2.82,1.78-12.73-9.86-10.41-9.85-1.91,0,1.21.24,3.81.91,4.73ZM136.32,224.66c1.59,1.96,9.23.38,11-2.31,2.62-3.98-.59-15.31-4.76-13.99-3.38,1.07,1.97,6.43,2.33,7.43,2.31,6.41-3.95,6.76-8.66,6.33.12.72-.25,2.13.09,2.55ZM129.51,232.16c-2.74.35-11.35,3.14-11.61,6.16.94,3.62,4.58-.65,6.49-1.42,4.94-2,11.75-2.06,16.79-.35,2.1.71,4.14,2.49,5.57,2.99,2.69.95,2.42-2.19-.03-3.92-4.55-3.21-11.78-4.15-17.21-3.46Z" fill="#fff"/>
  <path d="M591.19,88.02h-140.7c-2.39-11.02,13.25-17.88,21.99-17.77,2.64.04,10.52,3.14,11.58,2.37,1.01-3.05.47-5.8,1.45-9.07,3.91-13,23.51-20.46,35.67-15.66,2.44.97,5.52,4.59,8.4,2.71,1.12-.73,1.32-5.78,2.1-7.93,2.54-6.95,13.12-12.56,20.04-14.14,14.46-3.31,28.07,5.38,28.95,20.69,1.15,1.08,8.43-3.29,10.5-3.27v42.07Z" fill="#fff"/>
  <path d="M346.55,666.52c1.32,1.12.96,30.7.75,34.46-.23,4.31-.63,10.97-1.34,15.09-.15.85-.35,1.11-1.04,1.59-2.07,1.45-18.37.57-22.33.68-21.69.58-44.68,1.34-66.36-.64-1.04-.09-4.89-.67-5.32-1.26-.97-8.64-1.13-17.32-.97-26.03.03-1.55.65-2.99.71-4.55.26-6.68-.82-13.53,1.38-19.98l94.51.64Z" fill="#fff"/>
  <path d="M350.56,574.43c1.02,8.51.85,17.39,0,25.95-.26,2.6-1.52,14.63-3.71,15.35-5.79.16-11.88,1.21-17.62,1.45-22.18.91-53.17,1.38-74.89-1.43-2.05-.26-5.43-.95-6.27-3.07-2.47-6.22-2.41-22.38-2.02-29.37.15-2.63.41-7.63,1.73-9.46,34.11,3.09,68.61,2.26,102.79.58Z" fill="#fff"/>
  <path d="M349.25,665.79c26.44-1.53,52.73-5.18,78.48-11.12,4.25,1.26,2.74,27.89,2.38,32.48-.24,3.01-1.41,16.37-2.31,18.07-.77,1.46-3.5,1.78-5.04,2.19-6.35,1.74-15.35,3.21-21.99,4.31-17.04,2.81-34.36,4.26-51.57,5.72-1.36-.98.59-9.73.69-11.89.3-6.38.68-14.09.7-20.34s-.75-12.99-1.35-19.42Z" fill="#fff"/>
  <path d="M249.32,665.13c.89,2.22-1.17,2.66-1.28,3.1-.83,3.31-1.21,10.6-1.38,14.29-.5,11.24.43,22.63.03,33.88-25.34-1.49-50.39-5.89-75.12-11.34-3.44-1.34-2.49-7.17-3.14-9.9-1.14-4.75-1.03-6.02-1.27-11.33-.37-8.33-1.06-16.77,1.23-24.48.51-1.73.68-3.67,1.42-5.38,26.2,5.42,52.72,9.79,79.51,11.15Z" fill="#fff"/>
  <path d="M299.28,620.43l-1.32,43.38c-6.24-.11-12.51.17-18.76.03-20.24-.43-41.62-1.69-61.68-4.72-2.02-.3-6.58-.64-7.55-2.31-.65-1.12-1.1-4.97-1.34-6.55-1.36-9.12-1.75-20.99-.74-30.14.15-1.39.59-5.88,1.72-6.21l28.38,3.7,61.29,2.82Z" fill="#fff"/>
  <path d="M389.87,658.43c-29.3,4.32-58.94,5.77-88.62,5.39l1.31-43.38c4.48-.15,9.02.2,13.51.03,17.56-.66,35.34-2.11,52.64-3.9,3.05-.32,20.96-2.88,21.95-2.4,1.35.64,1.83,4.99,1.97,6.62.4,4.62-.3,35.82-2.76,37.65Z" fill="#fff"/>
  <path d="M75.53,357.34c-.09.21-1-.05-1.15,1.12-.38,2.91,1.45,11.79-1.73,12.73-2.12.63-12.82.34-15.64.12-3.67-.28-12.79-1.94-15.45-4.3-.13-.11-1.93-2.57-1.96-2.74-.31-1.48-.61-5.91-.71-7.72-1.22-22.2,3.81-57.08,14.03-76.77,5.83-11.22,11.12-20.89,23.17-26.56,3.26,2.32,5.47,6.38,6.7,10.15,5.95,18.28-3.33,51.51-5.64,71.54-.46,3.95-.77,20.55-1.61,22.41Z" fill="#fff"/>
  <path d="M244.06,573.11c-1.1,13.82-1.28,27.77,1.32,41.42-22.25-1.65-45.29-3.9-67.07-8.87-2.14-.49-10.38-2.05-11.17-3.46-2.61-11.4-3.62-24.95-2.62-36.63.09-1.03.65-5.32,1.61-5.49,25.4,6.9,51.61,11.48,77.93,13.04Z" fill="#fff"/>
  <path d="M495.2,631.61c1.52,1.06,1.47,20.85,1.32,23.98-.29,5.74-1.17,13.87-2.16,19.53-.38,2.15-1.47,7.53-2.79,9.05-.5.58-6.71,3.94-7.95,4.54-11.24,5.5-26.2,10.32-38.36,13.58-2.1.56-12.88,3.32-13.87,2.65-1.24-.85.42-7.55.69-9.25,1.53-9.78,3.61-27,1.3-37.32-.05-.25-3.1-2.5-1.68-4.44,22-5.02,43.3-12.33,63.5-22.31Z" fill="#fff"/>
  <path d="M430.08,561.31c2.5,5.49,1.12,40.56-2.37,42.75-25.11,5.64-50.75,9.54-76.5,11.11-.34-.34.46-4.49.72-5.4,1.19-4.14,2.29-8.34,2.56-13.34.4-7.35.13-15.39-.65-22.67,25.74-2.06,51.17-6.48,76.24-12.46Z" fill="#fff"/>
  <path d="M466.93,596.11c-.89,2.25,1.24,2.52,1.37,3.57.77,6.15,1.29,22.55-.07,28.19-.12.5-1.18.42-1.29.9-.67,2.97.21,10.18-2.17,12.51-1.57,1.54-24.73,7.47-28.72,8.42-14.08,3.37-28.48,5.86-42.76,8.19.85-3.47,1.74-7.24,2-10.81.51-7.06.9-16.69.66-23.72-.1-2.91-.82-6.27-1.18-9.2l.46-.65c24.34-3.86,48.51-9.09,71.7-17.4Z" fill="#fff"/>
  <path d="M165.81,703.25c-21.88-5.01-43.76-11.94-63.16-23.29-.55-.77-1.2-7.61-1.3-9.22-.55-9.68-.61-23.28,0-32.92.08-1.32.61-6.71,1.31-7.25h2.04c19.21,10.61,40.48,16.7,61.51,22.7-3.53,16.51-2.62,33.35-.39,49.97Z" fill="#fff"/>
  <path d="M207.24,657.24c-18.17-2.27-36.33-5.77-53.92-10.83-2.66-.77-13.41-3.66-14.82-4.9s-1.71-4.62-2.07-6.47c-2.38-12.01-2.84-25.57-.85-37.6,22.82,6.98,46,12.86,69.72,16.07,1.25.78-.61,6.02-.71,7.9-.66,11.52-.45,24.78,2.65,35.84Z" fill="#fff"/>
  <path d="M431.44,603.34c-.86-2,1.87-4.79,1.94-5.07.3-1.18.61-4.91.71-6.4.73-10.41.2-21.49-.63-31.84,16.2-4.84,32.27-10.18,47.73-17.03,2.18-.97,14.49-7.73,15.35-7.05.83,1.71,1.17,4.03,1.32,5.92.51,6.71.42,16.95,0,23.71-.18,2.94-1.36,12.84-3.01,14.74-.66.76-12.13,6.04-14.12,6.92-15.81,6.95-32.59,11.75-49.29,16.11Z" fill="#fff"/>
  <path d="M3.43,213.24c.44-1.44,6.13-1.11,7.58-1.01,23.59,1.6,40.52,27.83,54.9,43.73,0,1.07-4.66,4.49-5.93,5.94-7.55,8.58-10.29,17.17-15.03,27-.53,1.1-.86.94-1.76,1.57-.57-6.01,4.9-13.6,1.01-19.41s-11.06,3.85-12.18,7.58c-1.18-.52-1.36-8.64-2.2-10.92-.36-.98-3-4.3-4.04-4.59-6.04-1.65-6.81,7.59-7.94,11.08-.18.55-1.1.45-1.24.96-.36,1.27.53,3.08-1.02,4.13-1.01-3.91-5.55-11.17-10.18-7.55-1.85,1.45-.6,2.9-1.98,3.61v-62.11Z" fill="#fff"/>
  <path d="M163.84,602.03c-17.24-4.18-34.34-9.9-50.21-17.82-2.51-1.25-9.88-4.64-11.2-6.55-1.01-1.46-1.6-9.07-1.72-11.42-.57-10.85.37-21.8,1.34-32.57.94-.11,1.71,0,2.6.36,4.11,1.65,9.6,5.82,13.81,7.89,14.09,6.93,29.01,12.09,43.78,17.36-.15,14.28-.93,28.63,1.61,42.75Z" fill="#fff"/>
  <path d="M532.68,380.52c1.37-3.27,2.29-6.62,3.34-10,.16-.52,1.13-.51,1.23-.98.33-1.41-.14-3.29.03-4.8-4.96-1.35-3.84,4.56-5.08,8.4-.86,2.66-3.96,9.42-7.09,9.41-5,0-1.41-5.38-.26-8.08.21-.49,1.01-.53,1.35-1.44,1.11-2.96,1.37-6.47,1.21-9.61l-2.55.08c-.33,2.86-4.47,16.53-7.05,16.97-.66.1-1.25-.41-1.61-.91-2.58-3.57,2.42-16.73,1.04-18.78-1.04-1.19-1.06-.7-1.93.07-2.03,1.81-4.67,8.19-7.34,5.92-3.32-2.82,3.13-14.92,4.8-18.29.41-.83,1.31-.83,1.69-1.65,1.75-3.77,1.38-15.32,1.15-19.91-.32-6.58-1.84-12.94-2.74-18.96-.73-4.87-1.39-9.78-2.49-14.59l1.28-1.91c9.75-1.46,18.12-6.33,27.19-9.51.89.27.8.98,1.03,1.64,4.93,13.88,3.42,35.32,3.29,49.89-.1,11.63,2.77,24.26-.27,35.22-1.44,5.18-4.35,10.99-10.22,11.8Z" fill="#fff"/>
  <path d="M178.59,173.87c.19.53,2.87,2.84.7,4.19-6.9-1.64-13.96-3.21-21.03-3.92-17.74-1.8-38.73-2.49-56.56-2.01-2.2.06-21.38,2.08-21.34,1.01,1.01-4.43,2.78-8.66,5.39-12.39,17.67-25.37,54.6-31.32,78.43-10.91,9.01,7.72,10.53,13.38,14.43,24.04Z" fill="#fff"/>
  <path d="M490.2,130.5c.31.42,1.14.64,1.6,1.32,2.86,4.19,5.05,9.7,6.03,14.7-33.83-5.97-68.88-3.6-102.56,1.97,4.22-18.02,18.7-32.14,36.67-36.62,22.73-5.67,44.14-.19,58.26,18.63Z" fill="#fff"/>
  <path d="M211.84,352.26c-2.99-.65-3.05.96-3.28,3.62-.4,4.69.04,8.54,1.96,12.81-.66.73-3.88-2.75-4.24-3.31-2.39-3.76-2.12-19.03-1.66-23.95.29-3.16,1.77-6.16,2-9.19.55-7.16-.57-16.36-.03-24.33.66-9.73,1.96-19.72,3.62-29.27,8.72,3.94,17.79,6.87,27.21,8.62-.2,3.17.5,7.13.12,10.17-.16,1.25-1.26.64-1.42,1.89-.87,6.86-.29,15.97-.58,23.08-.35,8.42-2.23,12.38.69,20.81.16.45,1.07.55,1.37,1.42,1.31,3.8,1.94,9.86-.21,13.45-5.73,1.94-4.35-6.14-6.45-7.47-2.29-1.45-3.18,4.06-3.3,5.29-.18,1.86.72,17.61-4.34,13.52-1.08-.87-2.59-7.27-2.83-9-.28-1.96.7-6.8-1.13-7.41l-2.22-.08c-.59,6.25.88,11.86,2.62,17.75-3.57,1.38-7.89-3.83-7.89-6.9v-11.5Z" fill="#fff"/>
  <path d="M132.52,634.68c.04.17.86.26,1.01.74.24.77.98,4.39.72,4.74-4.75-1.59-9.63-3.18-14.25-5.14-10.39-4.39-34.99-16.88-38.65-27.75s-1.31-28.03-.35-39.42c2.43-.41,3.33,2.14,4.93,3.29,14.38,10.33,29.67,18.19,46.04,24.94-1.12,8.51-1.46,17.4-1.03,26.03.18,3.59.69,9.18,1.58,12.58Z" fill="#fff"/>
  <path d="M340.3,117.36c.11.2.89.38,1.25,1.07s2.09,4.81,1.78,5.09c-8.46-.92-16.84-3.13-25.32-3.93-24.52-2.33-51.34-.19-75.27,5.25.87-8.18,9.79-17.88,16.12-22.99,19.73-15.94,54.38-17.16,72.65,1.61,3.92,4.03,6.14,9.07,8.78,13.91Z" fill="#fff"/>
  <path d="M518.21,569.82c1.48,7.84,1.71,15.99,1.31,23.98-.23,4.58-.58,10.77-2.11,14.98-2.9,7.95-18.03,17.14-25.57,21.1-7.15,3.75-14.8,6.58-22.26,9.61,3.18-14.66,1.79-29.81,1.63-44.71,11.33-4.81,22.65-9.72,33.16-16.14,4.02-2.46,7.6-5.69,11.53-8.19.81-.52,1.3-.83,2.32-.63Z" fill="#fff"/>
  <path d="M433.4,436.4c.43,1.71-1.29,1.41-2.33,2.57-3.28,3.63-8.65,11.07-10.35,15.33-.79,1.97-1.29,7.25-2.11,8.38-.16.22-4.51,2.45-4.77,2.52-2.32.57-20.18-3.68-24.25-4.39-6.87-1.2-13.91-2.1-20.85-2.82l-.98-.99c.12-4.36-.94-31.52,1.28-33.05,21.71,2.61,43.47,5.98,64.37,12.45Z" fill="#fff"/>
  <path d="M179.39,264.41c9.15,10.17,15.62,28.94,17.81,42.34,3.06,18.82,2.59,39.15,2.7,58.21-.38,1.1-3.02,2.06-4.13,2.44-2.32.79-13.29,2.67-14.07.2.25-4.17-1.71-8.47-2.06-12.4-.4-4.36.58-9.69.04-13.84-.1-.74-1.85-2.2-1.88-5.22-.02-1.78.19-7.04,1.84-7.22l-1.32-.33c-.66-1.74,1.13-1.03,1.32-1.74.17-.64.16-2.53.05-3.24-.25-1.61-1.47-.4-1.37-1.59h1.31s0-.99,0-.99c0-.62-1.15-.06-1.33-.76-.58-2.25.21-7.54,0-10.41-1.1-14.99-3.01-32.73-7.55-47.01-.64-2.02-1.42-6.23-3.62-6.57-.19-1.04.89-.72,1.51-.53,2.21.7,9.02,6.74,10.74,8.66Z" fill="#fff"/>
  <path d="M386.3,374.39c.94,1.35,4.86,5.02,6.41,5.74,2.22,1.02,4.05,1.27,6.51,1.05-.29,2.6.36,5.76.05,8.26-.16,1.25-1.26.64-1.42,1.89-.31,2.46.84,12.2-.57,13.24l-47.36-5.31c7.69-6.03,3.56-16.71,4.62-25.28,12.98-.36,18.55-12.68,19.72-24l.4-44.43c1.81.2,7.35-1.55,8.02.47-.06,9.4-.9,18.77-.59,28.19.24,7.1.44,9.78.04,17.07-.39,7.08,0,17.12,4.16,23.1Z" fill="#fff"/>
  <path d="M367.64,278.65c.7,3.16,1.49,6.39,1.9,9.61,2.26,17.46,1.75,36.38,1.43,53.79-.23,12.44-1.39,27.01-16.46,29.28.44-1.66-1.03-4.11-.6-5.48.28-.9,4.4-2.49,5.75-4.81,1.08-1.86,1.85-5.57,1.82-7.69-.03-2-.19-3.73-2.33-3.03-1.07,4.03-.23,9.75-5.3,11.14-.69-.81-.35-12.2-.61-14.17-1.16-8.78-3.8-19.36-4.64-28.89-.97-10.9-.06-21.99-1.25-32.81l20.29-6.94Z" fill="#fff"/>
  <path d="M591.19,197.79v54.56c-13.65-.76-27.17,1.45-40.65,2.52-1.67-2.62-8.42-15.82-5.41-18.02,4.01-2.93,10.11,7.71,12.05,8.51,1.2.49,3.76.55,3.82-1.23.37-2.69-1.01-2-1.55-3.12-3.66-7.46-7.53-16.29-6.96-24.71,1.39-2.24,7.41,2.9,8.25,4.05,2.41,3.28,2.49,12.25,7.44,11.63v-9.53c0-5.02,5.64-16.71,9.21-20.37s9.08-4.7,13.8-4.28Z" fill="#fff"/>
  <path d="M398.13,509.78c7.62,9.13,8.01,14.21,11,25.35.1.38,2.5,1.87,1.18,4.39-7.34,1.77-14.72,4.31-22.12,5.82-1.96.4-12,2.22-12.88,1.55-3.37-9.31-4.55-19.4-8.48-28.5-2.11-4.9-5.55-8.79-7.73-13.63,6.35,1.01,19.8-8.5,24.59-7.88,3.83.49,11.76,9.71,14.43,12.91Z" fill="#fff"/>
  <path d="M239.45,305.26c.02-.14.68-1.6,1.06-1.65,6.89,2.43,14.34,3.89,21.63,4.6,18.27,1.77,44.87,1.98,63.1,0,6.82-.74,13.32-2.87,20.06-3.94l.34,11.85c-.88,1.76-11.64,4.4-14.12,4.95-19.55,4.37-45.42,4.53-65.36,2.18-2.84-.34-26.72-4.74-26.72-6.81.37-3.47-.51-7.85,0-11.17Z" fill="#fff"/>
  <path d="M175.68,339.77c.58,3.8.46,6.48.15,10.2-.19,2.22,1.26,2.85-1.44,5.28-2.38,2.14-15.05,4.29-18.85,4.82-19.82,2.74-41.81,2.67-61.64,0-2.06-.28-15.27-2.4-15.56-3.64l.69-14.02c5.89,1.71,12.01,1.45,18.07,1.98,20.32,1.75,40.01,3.08,60.41-.09,6.13-.95,12.2-2.89,18.16-4.52Z" fill="#fff"/>
  <path d="M349.25,571.13c-33.22,1.74-66.72,2.21-99.94-.33,0-1.68,8.42-13.75,10.28-14.7,3.63-1.85,6.92-.13,10.41-.06,23.26.47,46.55.62,69.76-1.38.86-.14,1.31.18,1.93.71,1.37,1.16,8.55,14.82,7.56,15.76Z" fill="#fff"/>
  <path d="M511.64,322.02v14.46c-23.29,7.23-49.65,8.72-73.96,6.57-9.61-.85-19.68-2.3-28.61-5.91v-12.49c19.53,4.35,40.13,5.42,60.18,4.63,10.75-.42,25.22-1.57,35.44-4.66,2.47-.75,4.33-2.53,6.94-2.59Z" fill="#fff"/>
  <path d="M513.19,477.37c-5.86,7.37-11.54,12.3-20.52,15.85-11.41-3.54-23.13-5.82-34.94-7.54-1.11-1.25,5.04-6.48,5.9-7.57,3.11-3.9,5.35-7.09,6.42-11.99.28-1.27-.06-5.81,1.27-6.1,13.14-1.07,26.83-1.23,39.78,1.55,2.55.55,6,.69,7.66,2.85.79,2.28-1.89,8.95-3.27,10.98-.78,1.14-1.83,1.35-2.31,1.96Z" fill="#fff"/>
  <path d="M401.18,369.35c-4.42-1.67-4.56-7.09-4.6-11.18h-2.62c-.29,6.24-.15,12.09,6.62,14.25-.86,4.21.63,8.07-4.83,5.99-2.67-1.02-4.85-3.12-6.27-5.56-4.21-7.22-5.6-17.7-3.34-25.99.14-.5,1.12-.52,1.23-.98.59-2.57-1.74-10.55-1.94-14.33-.7-13.03.87-25.86,1.96-38.12.09-1.03.51-1.95.67-2.96,1.67.78,3.43,1.28,5.25,1.65s8.07.88,8.46,2.06c1.06,3.21-.29,13.86.1,18.3s2.75,7.63,3.24,10.56c1.94,11.64-.88,20.48-2.5,31.61-.71,4.85-.91,9.82-1.42,14.69Z" fill="#fff"/>
  <path d="M158.58,435.09c.27,1.48-.07,1.04-.84,1.46-2.05,1.12-5.01,1.7-7.49,3.02-3.33,1.77-11.28,8.23-13.39,8.96-3.14,1.08-3.9.04-7.46,2.43-3.15,2.13-1.95,1.11-5.49,2.37-2.33.83-4.82,3.63-5.9,3.96-2.47.75-10.5-1.16-13.69-1.22-6.11-.11-13.64,1.49-19.86,1.88-2.65-.07-.75-4.05-.19-5.48,1.23-3.1,6.29-8.5,8.91-10.81,4.86-4.29,24.35-15.92,30.19-15.81,11.28.22,24.52,5.89,35.21,9.23Z" fill="#fff"/>
  <path d="M346.61,141.27c-4.71-1.63-9.42-2.8-14.32-3.75-25.76-5.01-66.4-4.83-91.05,4.55-1.09.41-2.01.94-2.78,1.83-.72-9.26-.88-14.2,8.74-16.9,21.74-6.1,56.78-6.12,79.27-3.38,11.75,1.43,23.69,2.27,20.14,17.65Z" fill="#fff"/>
  <path d="M488.56,494.96l-1.25,40.03c-11.36-4.07-22.83-7.87-34.79-9.91l1.9-36.48,34.14,6.36Z" fill="#fff"/>
  <path d="M457.07,438.37c.33,1.54-.21,1.05-.85,1.47-4.74,3.07-12.32,6.68-14.43,12.51-.31.85-.95,1.43.15,2.13,2.68,1.7,4.31-2.92,5.59-4.29,4.39-4.7,10.42-10.29,17.33-7.78,1.26,4.96-1.91,4.22-4.46,6.19-1.98,1.52-9.39,8.12-7.61,10.81,1.07,1.36,1.23.37,1.98-.02,2.63-1.33,4-5.31,6.31-7.48,6.46-6.06,13.8-4.8,7.71,4.45-3.93,5.97-8.13,8.67-11.11,16.47-1.76,4.61-1.39,8.71-4.89,12.87-1.3,1.54-2.88,2.88-4.61,3.92-5.93-10.97-15.95-19.12-27.23-24.36-.79-1.88,1-1.82,1.22-2.41,3.36-8.95,4.57-17.86,13.62-23.75,10.52-2.19-2.29,6.91-3.71,9.59-.42.79-1.66,3.6.34,3.5,2.76-.13,4.1-4.01,5.9-5.95,4.74-5.13,11.29-10.23,18.75-7.87Z" fill="#fff"/>
  <path d="M468.25,421.93c.16,1.73.04,1.07-.98,1.3-11.18,2.56-21.98,5.03-32.19,10.44-20.32-6.69-41.34-9.86-62.51-12.38-.99-.12-1.63-.03-2.26-1.01,2.55-3.06,5.95-5.09,9.41-7.01,3.18-1.77,11.31-5.88,14.58-5.86,14.42.12,40.36,6,54.9,9.58,6.31,1.55,12.64,4.17,19.06,4.94Z" fill="#fff"/>
  <path d="M255.23,554.71c.72.74-4.99,8.76-5.92,10.01-.44.6-1.33.86-1.87,1.57-1.01,1.32-1.08,4-3.06,4.22l-42-5.36-33.28-7.16c-.33-1.28.51-1.27,1.1-1.85,2.76-2.74,7.49-4.88,10.67-7.08,2.5-1.73,4.41-4.07,6.99-5.55,22.15,5.41,44.6,9.34,67.36,11.19Z" fill="#fff"/>
  <path d="M444.15,490.08c.23.37,1.29.62,1.9,1.69,3.43,6.04,5.05,16.39,3.78,23.16-.55,2.94-10.86,9.89-13.47,12.15-1.57-.12-2.41-8.27-3.01-9.97-4.29-11.98-12.34-24.74-23.01-32.34-1.17-.83-6.84-2.54-6.47-4.57l13.31-13.46c1.84,1.17,4.02,1.64,5.92,2.64,9.9,5.2,15.39,11.37,21.05,20.71Z" fill="#fff"/>
  <path d="M518.21,460.05c-14.69-3.21-29.94-4.18-44.95-2.69-2.22-1.18.4-2.93.76-5.03,1.11-6.48-3.91-5.15-5-6.86-.6-.94.35-2.8-1.27-4.51-2.01-2.13-4.77-1.44-6.73-2.29-2.47-1.06-2.09-4.06-7.58-4.11-4.01-.04-8.49,3.13-10.53,3.08-.58-.01-3.88-.96-3.6-2.23,1.02-2.19,22.05-7.8,25.63-8.56,2.46-.52,6.6-1.7,8.89-1.69,6.76.05,25.97,11.27,31.54,15.84,5.4,4.43,12.4,11.84,12.83,19.04Z" fill="#fff"/>
  <path d="M427.49,558.64c-24.09,5.83-48.6,9.66-73.32,11.9-3.06-.29-6.16-13.59-9.51-15.5.46-.68.87-.82,1.65-.97,4.71-.91,10.2-.75,15.02-1.42,14.63-2.03,29.19-4.93,43.5-8.5,7.73,4.06,16.24,8.42,22.66,14.49Z" fill="#fff"/>
  <path d="M484.68,538.26c-17.14,7.61-34.67,14.3-52.94,18.79l-21.34-13.86c-.56-1.15,1.58-1.4,2.28-1.64,10.17-3.54,20.43-7.39,30.6-10.83,10.74-3.63,16.89-1.61,27.46,1.44,2.38.69,11.31,3.37,12.82,4.27.84.5,1.36.66,1.13,1.82Z" fill="#fff"/>
  <path d="M421.16,500.57c.27.38,1.15.62,1.61,1.31,2.91,4.38,10.59,22.84,9.33,27.38-5.39,3.72-11.38,6.45-17.46,8.85-1.25-.18-3.41-11.42-4.31-13.78-1.16-3.06-4.74-10.14-6.65-13.21-4.25-6.85-11.22-11.13-16.27-17.15,3.09-2.29,6.07-5.08,9.21-7.26,1.14-.79,4.39-3.04,5.38-2.91,1.26.17,9.61,5.63,11.02,6.8,3.4,2.82,5.63,6.42,8.13,9.96Z" fill="#fff"/>
  <path d="M144.7,492.99c.21.25.22,4.04.06,4.73-.12.53-1.19.19-1.35,1.39-.51,3.86,1.01,25.73.06,26.67-10.47.26-20.76,3.7-30.24,7.88l-1.29-37.43,27.95-3.99,4.82.75Z" fill="#fff"/>
  <path d="M207.89,407.48c-1.84,4.15-2.87,8.18-2.05,12.7-2.35.99-5.48,4.43-7.21,5.32-3.32,1.73-16.71,3.45-21.65,4.64-4.6,1.11-9.24,2.45-13.64,4.18-10.73-4.62-21.84-9.46-33.68-10.42-.23-1.75.08-1.03.96-1.33,24.73-8.53,51.45-11.69,77.27-15.09Z" fill="#fff"/>
  <path d="M116.5,461.36c-3.4.93-4.52,3.99-3.63,7.26,2.01,7.4,21.1,13.27,25.33,20.35-9.65-.03-18.96,3.12-28.44,4.5-11.27-6.69-27.44-16.28-27.33-31.01.65-1.9,9.22-2.85,11.4-3.06,7.17-.66,14.87,0,22.02.31l.64,1.64Z" fill="#fff"/>
  <path d="M518.87,615.17c1.28,1.22.94,31.11.69,35.2-.15,2.4-.58,6.48-1.13,8.73-1.69,6.84-14.01,18.47-20.25,21.83-.79.43-1.26.89-2.31.64,4.3-17,3.58-34.72,2.74-52.15,5.77-3.56,11.55-7.12,16.69-11.57,1.44-1.25,1.24-3.23,3.58-2.67Z" fill="#fff"/>
  <path d="M82.96,474.52c5.47,10.19,16.16,16.17,25.66,22.15l.64,36.34-13.77-7.58c-7.47-6.55-13.63-10.97-14.51-21.64-.77-9.32.47-19.59.68-28.94l1.31-.33Z" fill="#fff"/>
  <path d="M155.52,467.73c.25.37,1.22.59,1.64,1.27,3.4,5.55,5.12,12.55,2.41,18.66-.94,2.12-10.48,12.88-12.16,11.17-.3-2.24.7-5.79-.61-7.61-.9-1.25-3.17-1.3-4.35-2.23-2.18-1.72-4.44-5.29-7.58-7.54-3.96-2.83-19.62-10.18-19.42-15.17.22-5.39,9.53-1.52,12.17.07,2.25,1.36,7.29,6.64,8.63,7.2,1.02.42,1.65-.32,2.6-.36-2.92-6.88-10.81-9.76-17.03-12.87,1.53-10.86,15.05-.5,18.99,4.01.67.76,1.95,3.36,2.12,3.46,2.92,1.66,3.9-.33,2.3-3.28-.88-1.61-8.3-7.99-10.11-8.95-1.51-.79-3.09-1.37-4.81-1.44-1.85-1.83,4.89-2.06,5.62-2.01,8.5.6,15.3,9.17,19.59,15.6Z" fill="#fff"/>
  <path d="M519.53,505.74c-1.44,13.64-17.41,23.17-28.26,29.25l1.62-38.14c4.59-2.57,9.67-4.57,13.81-7.89,1.93-1.55,6.22-5.49,7.84-7.28,1.87-2.06,2.71-4.96,5-6.5-.75,9.76,1.01,20.98,0,30.56Z" fill="#fff"/>
  <path d="M183.56,543.52l-18.44,12.14c-3.2,1.05-11.67-2.47-15.26-3.73-9.97-3.52-21.6-8.22-30.94-13.11-1.08-.57-4.09-1.84-3.73-3.16,1.26-1.37,21.11-6.36,24-6.57,7.72-.55,18.49,4.88,26.09,7.42,3.07,1.03,16.14,4.08,17.6,5.4.6.54.87.7.67,1.61Z" fill="#fff"/>
  <path d="M195.4,429.82c-1.99,5-3.36,9.79-2.47,15.28.31,1.93,2.41,5.12,2.44,6.07.06,1.98-3.76,7.74-2.63,10.82l-28.26,6.33-.55-31.19,31.47-7.31Z" fill="#fff"/>
  <path d="M499.15,577.71c2.26-14.38,3.17-29.29.08-43.6l14.97-11.35c1.22-.67,3.95-6.63,4.99-6.17,1.19.53,2.08,4.32,2.24,5.66,1.11,9.45,1.2,33.24-3.33,41.22-3.12,5.5-13.27,11.36-18.95,14.24Z" fill="#fff"/>
  <path d="M98.55,637.35c-1.53,3.52-1.81,25.67-1.16,30.78.16,1.25,1.26.64,1.42,1.89.11.88.06,7.62-.39,7.61-1.15-.26-2.34-1.26-3.26-2-3.55-2.83-11.89-10.84-13.51-14.76-3.67-8.88-3.05-32.74-1.88-42.66.1-.83.23-4.62,1.55-4.35,5.37,5.71,12.02,10.03,18.45,14.46-.77,2.21-.56,7.49-1.23,9.02Z" fill="#fff"/>
  <path d="M65.88,405.5c-10.23,6.77-6.95-14-9.54-15.11-2.07-.88-2.36,2.22-2.32,3.58.06,2.54,2.78,11.75,2.63,12.49-.44,2.21-4.73-.67-5.58-1.59-1.63-1.77-2.62-7.1-2.93-9.56-.28-2.18,1.15-7.5-2.68-5.85-1.8,2.49.26,11.97,2.02,14.73-2.82-.09-4.1-2.77-5.38-4.8-3.44-5.49-3.6-11.2-3.2-17.9.26-4.26,1.52-7.2,3.64-10.79,8.82,4.77,19.19,2.77,28.81,3.39,4.96,4.65,6.88,11.47,5.26,18.14-.54,1.57-3.38.88-4.53.18-2.08-1.26-1.42-5.25-3.91-6.61-1.52-.39-2.29,4.66-2.29,5.58v14.13Z" fill="#fff"/>
  <path d="M211.72,513.42c2.98,10.61.96,21.67-1.86,32.09l-32.87-8.55c-.21-2.01,2.24-2.39,3.28-3.61,2.89-3.38,10.39-17.55,11.16-21.17.34-1.58-.69-3.67,1.02-4.8l19.26,6.04Z" fill="#fff"/>
  <path d="M363.33,519.61c.09.2.78.34.97.79,3.77,8.8,5.04,18.63,7.96,27.72l-21.28,2.58-.95-1.06c-2.49-12.54-3.48-28.11-8.74-39.78-.33-.72-1.88-.51-1.25-2.48l15.78-1.03c3.57,3.77,5.4,8.61,7.51,13.25Z" fill="#fff"/>
  <path d="M82.2,516.06c.22.13,1.75,3.2,2.72,4.17,4.01,4.01,9.85,9.09,15.15,10.83-1.07,2.17-.78,5.48-1.35,7.4-1,3.36-1.78,7.05-1.97,11.29-.35,7.95.74,15.8.63,23.74l1.37,1.59c-1.11.16-1.92-.24-2.86-.75-2.73-1.48-12.61-9.12-14.12-11.51-.8-1.26-1.33-2.73-1.75-4.16-1.95-6.69-1.53-26.2-1.01-33.88.08-1.12,1.02-8.55,1.34-8.85.12-.11,1.54-.05,1.85.13Z" fill="#fff"/>
  <path d="M276.6,553.39c-1.35-.12-5.83-.75-6.15-1.74l-.41-21.94c3.96,1.12,7.24,4.06,11.13,5.3,9.33,2.98,18.16.91,26.65-3.32l1.21,20.6-.88,1.09c-10.21-.66-21.48.89-31.56,0Z" fill="#fff"/>
  <path d="M213.36,399.13c-1.18,1.1-2.38,4.47-3.94,4.93l-22.3,2.71c-5.05-4.02,1.78-3.66,4.5-4.74,3.33-1.32,7.23-6.38,8.95-9.45,3.29-5.85,3.69-13.35,2.02-20.11-.15-.6-1.78-.21-1.31-3.47.16-1.11,1.92-1.71,2.35-2.94.86,1.11,1.25,2.59,2.35,3.56s10.15,4.26,11.53,4.3c2.1.06,4.14-2.71,5.41-.2l-1.32,19.51-8.24,5.9Z" fill="#fff"/>
  <path d="M27.75,289.16c1.29.01,2.51.31,3.62-.65,1.42-1.23,6.27-18.4,10.18-15.78,1.25,3.99.53,9.35-.71,13.28-.16.5-1.03.53-1.35,1.44-.57,1.64-2.36,6.2-.14,6.92l3.86-1.26-2.68,9.12-31.02-5.34c-.97-3.08-3.32-21.6-1.46-22.84,2.62-.52,4.1,3.94,4.91,5.93,1.42,3.52,1.11,10.42,6.26,9.19,1.24-7.43.18-17.28,5.59-22.99,2.78.02,3.29,20.25,2.96,23Z" fill="#fff"/>
  <path d="M340.31,518.96c.06.17.86.34.99.77,3.05,9.94,4.25,20.47,5.8,30.74-.47,2.41-13.92,1.15-16.5,2.21-2.02-.63-.67-5.58-1.1-7.38-1.11-4.73-.86-6.24-1.31-11.29-.53-6.08-1.38-12.2-1.87-18.29l10.08-7.68c1.45.33,3.26,9.02,3.89,10.93Z" fill="#fff"/>
  <path d="M233.21,513.95c4.31,10.58,2.15,23.7-.91,34.46-1.36,2.03-16.76-2.58-19.8-2.25-.38-1.85,1.55-2.3,2.07-3.54,1.4-3.3,2.62-15.3,2.59-19.13-.01-1.58-2.27-9.53-.39-9.53h16.44Z" fill="#fff"/>
  <path d="M167.38,511.56c-5.32,7.58-10.97,12.89-20.62,14.22l.73-23.59c7.58-2.38,14.42-10.08,16.37-17.82.51-.37,4.9,3.81,5.61,4.57.99,1.07,4.78,5.83,4.89,6.96.27,2.67-3.74,11.86-5.35,14.36-.44.67-1.34.91-1.62,1.3Z" fill="#fff"/>
  <path d="M178.54,529.3c-1.11,1.31-4.89,6.37-6.35,6.24l-20.16-7.45c12.85-5.59,21.61-16.31,24.98-29.91,1.99,1.29,10.96,6.58,11.2,8.23.62,4.11-4.96,17.76-7.62,21.34-.61.82-1.58,1.01-2.04,1.55Z" fill="#fff"/>
  <path d="M234.85,549.44c.6-1.45.84-3.32,1.39-4.72.21-.55,1-.46,1.3-1.49,1.75-6.12,2.12-22.97-.08-28.81-.31-.82-1.54-.08-1.29-1.13,2.55.42,6.51-2.31,8.72-1.85.99.21,5.59,3.41,5.73,4.81l.58,34.07-.52.79-15.82-1.69Z" fill="#fff"/>
  <path d="M69.17,449.54c1.81.17,11.64.71,11.88,1.7l-2.67,44.97-9.21-.66v-46.01Z" fill="#fff"/>
  <path d="M323.6,517.89l1.98,34.84c-2.8-.57-12.47,2.7-13.15-.99l-1.34-29.47,12.52-4.38Z" fill="#fff"/>
  <path d="M448.2,231.31c2.4-.19,7.16-1.02,9.56-1.61,2.09-.52,14.5-6.17,15.09-5.61-2.29,10.49-12.17,20.22-23.33,20.42-7.64.14-16.18-4.88-16.12-13.19,4.83-.27,10.01.37,14.79,0Z" fill="#fff"/>
  <path d="M254.9,552.08c-.94-.58-.91-1.31-1.02-2.27-.96-8.21.34-19.04.06-27.67-.05-1.49-1.64-4.38.31-4.27,1.18.07,11.16,3.76,11.48,4.47l1.32,30.39c-.92.39-1.96-.65-2.3-.65h-9.86Z" fill="#fff"/>
  <path d="M185.54,400.24l-.66-4.6c5.98-1.1,10.33-7.39,9.21-13.48-.55-2.96-3.42-1.16-3.73-.15-1.01,3.32.61,8.55-4.47,10.33-2.17-.49-1.66-17.5-3.63-20.37l15.38-1.93c5.08,10.64,1.99,29.15-12.08,30.19Z" fill="#fff"/>
  <path d="M146.09,256.29c1.55,1.78-4.86,8.05-6.35,9.09-12.41,8.75-27.65-1.9-32.42-14.03,12.05,5.43,25.71,7.68,38.77,4.94Z" fill="#fff"/>
  <path d="M161.87,438.36v31.55c-2.81-.73-3.46-5.04-5.25-7.39-1.32-1.73-4.87-4.25-6.24-6.43l-9.56-6.23c-.16-.92.59-1.09,1.08-1.55,4.36-4.08,14.11-8.44,19.96-9.95Z" fill="#fff"/>
  <path d="M313.74,216.2c-6.9,16.6-30.25,15.99-40.11,2.3l-3.27-4.93c3.29.02,5.8,2.13,9.06,3.1,11.23,3.33,23.16,2.68,34.33-.47Z" fill="#fff"/>
  <path d="M385.41,406.16c-3.83,3.35-9.24,4.91-13.36,7.99-1.59,1.19-4.68,5.01-5.71,5.46-2.91,1.25-6.15-.71-9.19-.32,1.88-5.78-.52-10.37-1.97-15.77l30.24,2.63Z" fill="#fff"/>
  <path d="M365.68,423.25l-1.31,34.18c-2.33-.27-9.45-.04-10.39-1.78-2.55-4.71,1.2-5.49,2.83-8.74,2.91-5.8,2.61-11.89.8-17.9-.42-1.38-2.29-3.8-2.17-4.49.71-3.94,7.56-.58,10.23-1.28Z" fill="#fff"/>
  <path d="M307.83,523.81c-.04,1.13.19,2.41-.13,3.49-.46,1.53-9.06,4.98-11.01,5.42-8.74,1.96-18.82-1.1-25.85-6.43-.57-.43-1.79-1.62-1.78-2.15.02-1.3,3.42-.34,4.15-.21,3.24.55,6.67,1.6,9.98,1.85,8.53.66,16.29-1.12,24.65-1.96Z" fill="#fff"/>
  <polygon points="510.98 425.87 510.98 440.99 494.76 429.93 489.95 427.84 510.98 425.87" fill="#fff"/>
  <path d="M66.64,519.77c-.86-1.78-1.42-7.67-.1-8.79,1.39-1.18,11.79-2.53,12.88-1.02.76,1.05-2.32,7.67-3.02,8.25-1.13.94-8.6,2.28-9.75,1.56Z" fill="#fff"/>
  <polygon points="67.2 507.38 69.13 498.45 78.09 500.11 77.76 506.44 67.2 507.38" fill="#fff"/>
  <path d="M76.4,521.84v3.95c-2.54.13-5.32-.52-7.23-2.31l7.23-1.64Z" fill="#fff"/>
  <path d="M461.66,475.17c-2.82,2.49.88-5.81,1.19-6.38.53-.96,1.83-2.87,2.76-3.47.42,3.95-2.69,6.5-3.95,9.85Z" fill="#fff"/>
  <path d="M591.19,3.23v40.1l-7.09,1.18c-2.55-4.02-3.61-8.57-7.04-12.36-11.11-12.24-34.93-8.6-44.72,3.29-2.96,3.59-3.55,6.99-5.24,11.16-10.32-5.1-21.71-4.05-31.67,1.23-7.69,4.07-14,11.39-14.03,20.49-7.4-1.58-12.66-1.79-19.89.81s-17.91,11.24-13.81,20.06c.49,1.05,3.56,2.79,4.45,2.79h139.05v102.54c-15.27-1.44-25.12,13.85-25.65,27.61-3.04-3.12-4.22-7.06-8.72-8.69-13.04-4.7-5.84,18.37-2.46,23.49-2.41-.16-3.43-2.95-5.71-3.48-12.82-2.99-4.04,17.36-2.16,22.86l-7.58,1.89c-.95-.09-1.14-2.67-1.63-3.39-6.58-9.75-12.25-18.78-22.05-26.08-8.99-6.7-21.21-12.12-32.52-12.51,2.19-6.45,6.54-12.43,7.48-19.49,1.2-1.99,2.94-1.21,4.36-1.85,14.85-6.78,18.09-32.14,9.49-45.02-3.36-5.04-3.1-6.11-5.43-11.64-17.11-40.68-78.34-41.02-100.91-5.3-3.26,5.16-4.11,9.58-5.81,15.25-1.14,3.81-1.41,3.65-2.87,6.92-2.41,5.4-2.61,18.02.71,22.97.85,1.27,3.08,2.58,3.44,3.79,1,3.39.8,9.6,1.62,13.5,2.42,11.57,10.04,21.49,19.54,28.43-8.62,4.17-16.67,10.06-21.96,18.13-7.35,11.2-12.46,26.76-12.9,40.35-.24,7.28,3.83,5.45,4.55,8.05.14.49-.56,9.17-.75,10.23-.1.54-.26,1.66-.92,1.82l-8.07-.06-3.35-25.25c4.05-5.27,8.23-3.66,5.24-11.66-1.14-3.06-3.69-8.61-5.3-11.92-7.94-16.35-21.49-31.52-38.05-39.53-.49-1.57,3.74-3.69,5.26-5.27,2.18-2.26,3.37-5.45,5.26-7.92,9.23,4.39,12.9-4.19,13.74-11.87.51-4.65-1.9-12.61-1.75-13.6.09-.63,1.85-2.72,2.31-4.24,1.46-4.79,2.31-11.05-.55-15.52-.79-1.23-2.14-1.42-2.53-2.24-.67-1.41-.31-4.17-.82-5.61-.28-.78-3.17-2.47-3.66-4.2-.79-2.77.54-7.77-.31-11.53-2.35-10.45-10.79-27.09-19.24-34-28.51-23.33-76.87-10.85-90.52,23.21-1.77,4.41-.79,3.79-3.62,7.88-4.08,5.9-.75,13.08-2.31,18.4-.44,1.49-3.66,3.3-4.61,5.25-3.11,6.41-.46,11.51-.53,17.23-.04,3.18-1.76,7.6-1.99,11.15-.32,4.91.57,18.43,5.03,21.31,4.4,2.85,7.2-.48,9.66.03.32.07,3.08,3.89,4.45,4.92,2.23,1.67,4.93,2.37,7.17,4-9.14,4.18-18.12,9.02-25.65,15.76-10.12,9.05-20.9,25.43-26.24,37.66-.66,1.51-1.42,6.12-.59,7.55,1.09,1.88,6.44,3.77,6.54,5.41-1.98,9.66-3.12,19.39-3.36,29.26l-3.64-.63c-1.07-4.09-1.47-8.45-2.6-12.52-5.27-19.07-16.02-36.33-34.51-45.02,4.99-4.2,8.8-7.78,12.16-13.46,5.77-9.76,4.94-14.38,7.71-24.5,1.44-5.26,4.67-8.4,4.46-15.24-.15-5.06-3.74-9.73-4.25-13.44-1.39-10.06-1.12-13.44-6.65-22.39-20.43-33.09-71.2-33.72-92.86-1.55-4.05,6.01-4.46,12.29-7.05,17.27-.55,1.07-2.52,1.55-3.52,3.05-4.47,6.74-2.7,20.36-2.94,28.09-.14,4.47-1.67,8.43-1.01,13.82.77,6.32,7.34,15.67,14.44,13.26,2-.68,1.51-3.07,3.83-2.28l7.3,11.1c-9.38.2-18.12,5.73-25.44,11.1l-1.1.04c-5.62-5.9-10.27-12.82-15.77-18.79-7.55-8.2-26.03-25.21-37.57-25.21H3.43V3.23h587.77ZM132.5,42.44c-3.41-2.84-5.27-4.59-9.63-6.46-23.52-10.05-55.91,3.79-53.04,32.32-11.89-5.35-26.08-1.94-34.52,7.88-3.31,3.85-7.28,11.19-7.58,16.08-.18,2.79-.31,8.61.74,11.02.34.77,4.85,5.18,5.83,5.48,2.13.66,11.13.9,14.14.98,31.31.88,62.88-.71,94.07-.72,17.98,0,37.86,1.96,55.88.71,13.31-.92,15.73-10.89,9.76-21.64-4.88-8.8-15.28-10.88-24.61-9.55-1.71-10.64-9.86-18.7-20.32-21.12-6.82-1.57-12.45-.92-18.35,2.91-2.95-5.57-4.93-11.8-9.6-16.38-.78-.76-1.95-.84-2.76-1.52Z" fill="#fff"/>
  <path d="M564.05,721.48c-.32.4-2.47,1.56-3.11,1.82-9.63,3.94-39.05,4.06-47.56-2.39-7.96-6.04,4.37-16.06,9.84-18.88,11.9-6.13,28.74-6.31,38,4.57,2.69,3.17,5.76,11.24,2.82,14.89ZM559.94,710.85c-7.17-11.19-19.4-12.47-31.19-7.91-5.44,2.1-21.35,11.79-10.97,16.86,8.91,4.35,30.66,4.77,40.04,1.68,6.56-2.16,5.1-6,2.13-10.63Z"/>
  <path d="M295.06,794.87c-.22-.38-1.63-.17-1.04-2.43,2.35-2.13,3.12-4.68,5.6-7,10.78-10.06,34.85-11.37,43.99,1.34,9.22,12.83-6.57,15.17-15.71,15.76s-28.06.67-32.85-7.67ZM340.29,788.46c-8.59-10.44-26.14-9.5-36.63-2.28-15.72,10.82,6.14,13.34,14.33,13.73,4.18.2,22.48-.17,24.36-3.97,1.77-3.57-.29-5.33-2.06-7.48Z"/>
  <path d="M21.41,701.71c-5.8-5.18-.15-12.21,4.81-15.44,9.04-5.87,21.89-7.42,31.59-2.21,5.54,2.97,12.75,10.5,9.02,17.18-2.74,4.92-22.21,5.69-27.59,5.33-4.12-.27-14.86-2.22-17.82-4.86ZM63.53,694.45c-5.98-9.99-17.39-12.34-28.07-8.8-5.23,1.74-12.64,5.28-13.64,11.33.67,6.74,24.97,6.64,29.92,6.26,3.61-.28,13.64-1.4,13.33-6.07-.14-2.08-1.11-2.01-1.54-2.72Z"/>
  <path d="M490.19,741.17c.1.25,1,.28,1.07.56v1.26c-2.21,1.86-1.44,3.86-4.8,5.75-8.31,4.69-35.71,4.49-43.55-1.44-8.33-6.3,8-16.87,13.32-18.92,13.83-5.32,28.36-1.33,33.95,12.78ZM444.04,743.9c.16.26,4.7,2.61,5.34,2.86,6.71,2.63,26.98,2.48,33.82.02,7.91-2.84,2.56-10.92-2.22-13.86-12.97-7.99-27.53-2.85-36.86,7.96-.31.74-.47,2.38-.08,3.02Z"/>
  <path d="M560.15,493.76c7.01-.76,15.32,1.75,19.5,7.74,13.13,18.81-23.85,17.31-33.51,13.78-17.36-6.34,4.28-20.47,14.01-21.53ZM577.89,511.83c1.95-1.96.49-6.3-.88-8.34-3.97-5.95-11.79-6.71-18.37-5.96-4.35.49-15.79,6.76-16.13,11.55.32,1.33,3.39,2.8,4.64,3.22,4.98,1.7,27.4,2.88,30.73-.47Z"/>
  <path d="M140.68,733c7.71-1.06,21.79,2.39,23.04,11.51,1.76,12.84-23.71,11.48-31.46,9.71-20.54-4.68-4.07-19.5,8.42-21.22ZM141.99,736.29c-5.6.75-13.98,4.58-16.18,10.13-.35,3.57,11.05,5.19,13.47,5.39,4.11.34,19.1.4,20.94-3.87,3.74-8.68-12.06-12.47-18.23-11.65Z"/>
  <path d="M100.59,796.79c6.2-.52,12.72.61,18.1,3.87,8.55,5.17,9.08,12.55-1.38,15.47-7.36,2.06-29,2.42-35.21-1.9-4.39-3.05-2.35-7.57.85-10.76,3.78-3.76,12.38-6.24,17.64-6.68ZM120.75,806.82c-6.98-10.77-32.96-9.24-38.33,3.15,1.62,2.91,4.6,3.09,7.55,3.62,6.72,1.2,22.66,1.58,28.74-1.32.37-.18,3.01-2.15,3.07-2.35.72-2.32-.54-2.36-1.02-3.1Z"/>
  <path d="M199.14,789.16c-4.9,5.32-28.45,3.88-34.82.71-9.09-4.53.76-12.91,6.07-15.32,7.07-3.21,15.52-3.14,22.41.64,3.76,2.07,10.03,9.95,6.33,13.97ZM176.82,775.72c-3.77.59-13.99,5.09-12.89,9.92.64,1.9,9.95,4.07,12.16,4.3,3.75.4,19.97.57,21.22-3.64-.81-8.88-13.18-11.73-20.48-10.58Z"/>
  <path d="M46,636.38c9.15-1.32,23.86,1.27,22.53,13.31-.81,7.28-17.11,7.31-22.72,6.92-3.96-.27-16.26-2.19-16.05-7.59,2.67-6.42,9.32-11.64,16.25-12.64ZM63.5,643.86c-8.22-9.44-25.75-5.49-30.45,5.74,4.05,5.26,30.26,4.89,32.52.43,1.62-3.2-.56-4.44-2.06-6.17Z"/>
  <path d="M97.7,710.24c1.64,2.12,3.03,2.88,2.37,6.47-.84,4.54-14.33,5.11-18.07,4.95-5.82-.25-20.04-1.74-14.7-10.74,5.94-10.02,23.15-10.06,30.4-.68ZM82.19,706.05c-8.8.71-21.4,10.86-4.17,12.35,6.21.54,26.75,1.74,15.43-8.86-2.93-2.74-7.28-3.81-11.26-3.49Z"/>
  <path d="M37.48,532.54c6.97-.49,22.3,5.11,17.25,13.98-3.46,6.08-27.71,6-32.57.95-7.38-7.66,9.12-14.5,15.32-14.93ZM51.69,542.64c-4.03-6.7-7.68-7.91-15.72-7-5.69.64-19.65,7.72-8.37,11.66,5.34,1.87,17.63,2.2,22.49-.84,1.07-.67,1.1-2.43,2.63-2.29.58-1.54-.82-1.18-1.03-1.54Z"/>
  <path d="M428.63,800.03c5.86-.98,14.21.32,17.94,5.41,8.37,11.43-27.21,11.7-28.12,3.21-.44-4.1,6.78-8.05,10.18-8.63ZM443.87,809.68c.02-5.73-8.71-7.7-13.27-7.01-3.55.54-12.42,4.9-5.93,7.59,5.45,2.26,13.88,2,19.2-.58Z"/>
  <path d="M375.13,766.78c.1.23.96.32,1.41,1.51,1.21,3.14,3.53,10.97-2.26,9.17-.58-4.72-1.53-8.81-3.69-13.07-1.09-2.15-4.93-6.52-5.31-7.85-.25-.89-.14-1.8.73-2.02,3.5-.88,7.95,9.73,9.11,12.25Z"/>
  <path d="M48.13,769.31c.5-4.66,2.6-11.07,6.91-13.46,2.36,2.05-.57,5.25-1.33,7.86-.6,2.07-2.01,5.98-2.27,7.05-.71,2.96,1.44,7.32-1.67,9.39-.56.25-1.63-.78-1.63-.98,0-3.09-.32-6.9,0-9.86Z"/>
  <path d="M527.42,782.13c-1.76.08-2.92.3-3.29-1.64-.49-2.62.08-12.2.68-14.98.1-.48,1.1-.52,1.24-.97.75-2.3,1.53-7.58,4.32-8.05,1.1-.18,1.06.02,1.01,1-.21,4-3.75,9.98-3.96,14.46v10.19Z"/>
  <path d="M387.13,764.8c-.08.19-.98.4-1.42,1.5-1.08,2.71-1.37,7.38-2.42,9.44-1.48,2.88-3.33.72-3.08-2.39.29-3.67,3.94-14.82,6.69-17.08.87-.72,3.02-2.37,3.77-.75.16.75-2.94,7.84-3.54,9.28Z"/>
  <path d="M547.8,762.42c.48,3.47-3.34,5.14-5.24,7.57-3.04,3.9-4.88,8.17-6.64,12.72-4.02.73-3.23-1.83-2.38-4.66,1.08-3.61,8.15-13.18,11.28-15.01,1.05-.61,1.77-.8,2.99-.62Z"/>
  <path d="M560.69,613.63c-.03.13-.8.09-1.08,1.22-1.04,4.22-1.14,9.35-1.4,13.7-1.54,2.23-2.93,1.2-3.21-1.17-.46-3.97,1.05-14.15,2.45-17.99.66-1.81,2.43-4.6,4.51-2.76.63.9-.9,5.66-1.27,7.01Z"/>
  <path d="M39.84,768.74c.13.22.9.36,1.25,1.07,1.45,2.9,3.06,7.18,1.75,10.33-4.29.54-3.77-5.15-5.32-8.76-.96-2.24-6.91-9.19-5.82-10.28.24-.24,2.61-.04,3.28.33,1.22.67,3.99,5.82,4.86,7.31Z"/>
  <path d="M548.08,620.17c.09.17.74.27.98.79.82,1.72,3.66,9.27.99,9.97-3.57-.33-2.91-4.83-4.1-7.66-1.78-4.25-5.37-7.77-6.04-12.03,2.22-2.24,7.3,7.37,8.16,8.94Z"/>
  <path d="M230.91,763.72c-1.94-6.48-3.3-13.45-8.54-18.1,2.96-5.52,7.99,5.17,9.03,8.07.94,2.62,3.45,9.36-.49,10.03Z"/>
  <path d="M517.57,781.47c-.44-7.85-5.44-12.45-8.55-19.06,8.02.81,9.89,11.48,11.1,18.02l-2.54,1.03Z"/>
  <path d="M571.05,618.7c-1.39,1.6-3.36,4.65-4.3,6.55s-1.54,7.8-4.15,7.01c-2.47-.74,1.42-8.7,2.27-10.2.74-1.3,8.14-11.5,9.22-6.54.31,1.4-2.37,2.4-3.05,3.18Z"/>
  <path d="M560.95,402.87c1,2.68-1.08,3.14-1.42,4.19-.61,1.92-1.35,4.85-1.7,6.83s.83,8.32-2.41,7.33c-3-.92-.11-11.91.74-14.26.92-2.54,1.5-4.55,4.78-4.09Z"/>
  <path d="M398.39,763.87c.8-.21,1.56-.31,2.37-.07,3.86,1.22-3.91,5.39-4.77,6.23-2.04,2-3.4,4.71-5.03,6.8s-3.08,1.63-2.92-.89c.17-2.66,7.64-11.36,10.36-12.07Z"/>
  <path d="M237.48,762.41c-.16-.16.54-2.4-1.31-1.98v-.64c2.17.33,1.07-2.39,1.47-4.12.52-2.24,3.01-14.29,6.07-13.64,2.38.51-.91,5.71-1.32,7.21-.52,1.92-2.38,12.47-2.91,12.87-.48.37-1.86.44-2,.29Z"/>
  <path d="M548.02,408.57c.28.42,1.29.61,1.9,1.69.75,1.32,3.86,10.54,1.48,11.01-1.9.38-1.85-3.9-3.55-4.46l-4.65-12.62c3.6-.7,3.38,2.22,4.82,4.39Z"/>
  <path d="M42.22,586.58c.1-.83,2.76-10.95,4.6-8.87.3,3.89-.84,7.69-1.3,11.51-.35,2.87,1.1,6.33-1.66,8.2-.56.25-1.63-.78-1.63-.98,0-3.05-.34-6.97,0-9.86Z"/>
  <path d="M68.31,768.13c-1.31,1.46-4.53,3.74-5.62,5.21-1.31,1.77-2.8,5.27-3.39,7.47l-1.99-.3c-2.34-1.67,3.63-10.83,5.26-12.36.3-.28,4.59-3.12,4.87-3.07,1.36.25,1.91,1.89.87,3.05Z"/>
  <path d="M39.85,595.87c.06.19,2.03,1.33,1.05,3.53l-3.22-.07c-.63-2.71-1.66-6.09-2.99-8.51-.78-1.43-6.38-7.04-3.31-7.85,3.8-1,7.62,10.36,8.48,12.9Z"/>
  <path d="M58.65,582.32c1.45,1.15-3.16,7.52-4.06,9.41-1.46,3.07-.87,7.49-5.14,7.02-.03-1.37-.09-2.75.15-4.11.37-2.06,7.12-13.83,9.04-12.31Z"/>
  <path d="M560.7,554.46c-.76,1.27-2.62,2.59-2.38,5.07-5.85,1.58-.28-9.21,1.54-11.18,1.24-1.34,6.51-4.75,5.42-.84-.11.4-3.8,5.63-4.58,6.94Z"/>
  <path d="M248.25,759.37c-1.32,1.76-1.71,3.58-2.86,5.37l-1.97-.74c-.75-3.96,8.35-14.21,11.45-13.41.54.14,1.51,1.35.71,1.98-2.3,2.1-5.46,4.32-7.33,6.8Z"/>
  <path d="M551.79,558.61c-.36-.22-1.71-5.49-2.28-6.62s-5.63-7.15-4.33-8.46c5.98.69,7.62,8.69,9.23,13.47l-.65,1.34c-.4.4-1.61.47-1.96.26Z"/>
  <path d="M561.62,423.24c-2.36-1.61,4.7-14.55,8.21-15.1,3.4.18-3.39,8.35-3.89,9.25-.69,1.26-1.86,7.54-4.33,5.85Z"/>
  <path d="M37.61,448.23c-.92,3.86-2.76,7.17-3.65,11.13-.33,1.47.23,6.37-1.93,5.95s-.51-8.92,0-10.51c.36-1.15,3.72-8.41,5.58-6.58Z"/>
  <path d="M560.71,322.25c-.39-.66-5.45-6.09-2.69-6.79.99-.25,2.52.62,3.27,1.29,1.42,1.27,5.08,9.13,2.61,9.87s-2.44-3.09-3.19-4.37Z"/>
  <path d="M27.09,465.31l-2.59-.04c.76-4.13-4.32-8.92-5.03-11.76-.24-.97.92-1.4,1.38-1.99,4.22,3.22,5.94,8.69,6.24,13.79Z"/>
  <path d="M571.88,323.76c-.16.25-.83.33-1.06.7-.66,1.06-.46,2.64-1.67,3.47-4.17.98.81-11.8,3.96-11.72l1.66,2.2c-1.38,1.54-1.91,3.74-2.89,5.35Z"/>
  <path d="M132.5,42.44c.81.67,1.99.75,2.76,1.52,4.67,4.58,6.64,10.81,9.6,16.38,5.9-3.83,11.53-4.48,18.35-2.91,10.46,2.41,18.61,10.48,20.32,21.12,9.33-1.33,19.73.75,24.61,9.55,5.97,10.75,3.55,20.72-9.76,21.64-18.03,1.24-37.9-.72-55.88-.71-31.19,0-62.76,1.59-94.07.72-3.01-.08-12.01-.32-14.14-.98-.98-.3-5.5-4.71-5.83-5.48-1.05-2.4-.91-8.22-.74-11.02.31-4.89,4.28-12.23,7.58-16.08,8.44-9.83,22.63-13.24,34.52-7.88-2.87-28.53,29.53-42.36,53.04-32.32,4.37,1.87,6.22,3.62,9.63,6.46ZM73.12,58.77c-.59,4.53.43,10.13,0,14.79-3.2-.23-5.21-2.79-8.51-3.65-14.91-3.92-31.26,7-32.83,22.47-.34,3.37-.57,12.42,3.66,13.24l168.35-.34c7.49-4.61,2.04-17.66-4.21-21.09s-12.08-2.82-18.67-1.69c-1.15-.88-.89-5.7-1.31-7.14-.08-.27-2.31-4.03-2.7-4.65-5.13-8.08-16.22-13.03-25.55-9.97-2.77.91-7.2,6.14-9.24,4.66-.5-.37-2.85-9.63-3.98-11.8-11.4-21.87-46.25-23.87-60.29-3.9-1.04,1.48-4.53,7.6-4.72,9.08Z"/>
  <path d="M296.52,480.63c7.33-.85,18.85.01,19.72,9.52.84,9.19-8.11,5.71-12.69,5.41-3.44-.22-6.84.25-10.2.95-4.26.9-11.67,5.85-13.95.17-3.35-8.32,10.45-15.3,17.12-16.06Z"/>
  <path d="M328.51,445.31c.16.23.89.24,1,.75.23,1.02.22,5.27,0,6.3-.06.28-3.68,3.95-3.94,4.06-4.21,1.8-9.85-2.47-10.44-6.61-1.45-10.18,7.9-12.52,13.39-4.5Z"/>
  <path d="M270.12,449.13c3.2,2.13,3.49,5.93,2.41,9.47-2.38,2.06-2.1,4.2-5.85,4.71-5.74.77-10.5-6.62-7.69-11.62,2.45-4.37,6.88-5.39,11.13-2.56Z"/>
  <path d="M332.61,428.69c6.39,7.61-16.56,2.53-19.05,2.96l-2.98-2.92c-.04-.7,1.06-2.49,1.71-2.83,3.39-1.83,17.67-.35,20.32,2.8Z"/>
  <path d="M249.32,444.93c-1.78-7.97,12.09-16.33,18.56-13.64,1.53.64,2.13,1.67,1.75,3.34-.59,1.8-8.82,3.87-10.9,4.92-1.62.81-8.35,6.48-9.41,5.38Z"/>
  <path d="M306.34,465.81c5.33-5.52-8.27-10.03-8.92-11.12-1.8-3.03,1.53-2.77,3.66-2.02,5.74,2.04,13.01,9.12,7.68,15.22-2.65,3.04-10.4,4.31-12.76.38,3-2.12,7.15.83,10.33-2.46Z"/>
  <path d="M464.13,161.14c1.58-.27,3.27-.42,4.82.13,1,.7.95,3.11-.05,3.97-1.43,1.22-14.87,5.79-16.76,5.65s-2.88-.91-2.21-2.91c.53-1.6,12.15-6.49,14.21-6.84Z"/>
  <path d="M456.24,174.24c7.18-1.46,8.02,11.58,2.89,12.69-6.19,1.34-9.84-11.28-2.89-12.69Z"/>
  <path d="M424.78,172.08c-.73,1.19-16.19-1.47-17.73-3.49-4.82-6.38,16.02-2.72,17.47.28.46.96.51,2.18.26,3.21Z"/>
  <path d="M414.14,176.22c9.08-2.76,8.85,14.3,0,11.58-3.43-1.05-3.42-10.54,0-11.58Z"/>
  <path d="M452.47,210.93c-7.67-1.08-11.19-4.86-19.42-2-2.97,1.03-4.53,3.46-7.53,3.32.22-9.56,22.91-8.64,26.34-3.65.54.79.77,1.36.61,2.34Z"/>
  <path d="M432.08,187.28c.47,2.95-3.92,3.52-2.32,6.58,1.73,2.81,6.58-.72,7.58,1.64.81,1.93-3.18,2.87-4.32,2.92-8.35.36-8.87-10.66-.93-11.14Z"/>
  <path d="M259.31,154.96c-1.29-2.09,3.57-3.78,5.38-3.78,1.63,0,5.4.46,7.23.68,2.2.26,14.88,2.6,15.6,3.46,5.69,6.84-13.49,3.27-15.52,3.04-5.06-.58-8.36.94-12.68-3.4Z"/>
  <path d="M322.82,151.32c2.31-.15,10.7-1.1,9.26,3.32-1.03,3.16-22.01,4.16-25.88,5.04-1.79-.09-2.06-2.1-1.56-3.52.91-2.61,15.26-4.65,18.18-4.84Z"/>
  <path d="M315.54,161.76c6.82-1.95,9.52,11.14,3.66,12.89-8.35,2.5-8.36-11.55-3.66-12.89Z"/>
  <path d="M272.83,163.09c7.94-1.14,6.84,11.95,1.1,12.33-6.86.46-7.63-11.4-1.1-12.33Z"/>
  <path d="M294.53,193.37c2.95-.06,16.35,2.43,15.27,6.71-.64,2.53-5.88-1.65-7.1-2.09-3.63-1.29-11.16-1.38-14.78-.06-2.12.77-4.6,3.73-6.65,3.11l-1.04-1.6c3.64-3.83,9.04-5.98,14.31-6.08Z"/>
  <path d="M290.17,184.55l.3-2.6c1.27-1,13.08,4.23,11.3-4.71-.45-2.24-4.63-5.37-.86-6.4,10.51,9.9.78,17.57-10.74,13.71Z"/>
  <path d="M130.15,195c-2.08,2-9.12-.02-11.81-.68s-14.11-3.79-14.19-6.59l.62-1.67c1.12-.32,2.29-.11,3.43-.01,3.9.34,16.13,3.58,20.02,4.96,1.84.65,3.87,2.12,1.92,3.99Z"/>
  <path d="M170.26,190.72c1.83,1.76.13,3.9-2.02,4.56-3.17.98-16.63,2.21-19.7,1.66-.54-.1-1.72-.29-1.84-.87-.12-1.25.13-2.01.99-2.93,2.46-2.59,20.37-4.54,22.56-2.43Z"/>
  <path d="M155.5,211.4c-.67-.92-.91-3.52-.91-4.73,0-8.5,11.63-10.82,9.85,1.91-.73,5.24-6.16,6.63-8.94,2.82Z"/>
  <path d="M116.32,198.57c8.41-2.48,9.76,10.29,4.16,12.06-8.94,2.84-9.06-10.62-4.16-12.06Z"/>
  <path d="M129.51,232.16c5.42-.69,12.66.25,17.21,3.46,2.45,1.73,2.72,4.87.03,3.92-1.42-.5-3.47-2.28-5.57-2.99-5.04-1.71-11.85-1.65-16.79.35-1.91.77-5.55,5.04-6.49,1.42.25-3.03,8.87-5.81,11.61-6.16Z"/>
  <path d="M136.32,224.66c-.34-.42.04-1.83-.09-2.55,4.7.43,10.97.08,8.66-6.33-.36-1-5.71-6.36-2.33-7.43,4.17-1.32,7.39,10.01,4.76,13.99-1.77,2.69-9.41,4.27-11,2.31Z"/>
  <path d="M559.94,710.85c2.97,4.63,4.43,8.47-2.13,10.63-9.38,3.09-31.12,2.67-40.04-1.68-10.38-5.07,5.53-14.75,10.97-16.86,11.79-4.56,24.02-3.28,31.19,7.91Z" fill="#fff"/>
  <path d="M340.29,788.46c1.77,2.15,3.83,3.91,2.06,7.48-1.88,3.8-20.19,4.16-24.36,3.97-8.18-.39-30.04-2.91-14.33-13.73,10.49-7.22,28.04-8.16,36.63,2.28Z" fill="#fff"/>
  <path d="M63.53,694.45c.43.71,1.4.64,1.54,2.72.32,4.67-9.72,5.8-13.33,6.07-4.95.38-29.25.48-29.92-6.26,1-6.05,8.41-9.59,13.64-11.33,10.68-3.54,22.09-1.19,28.07,8.8Z" fill="#fff"/>
  <path d="M444.04,743.9c-.39-.63-.23-2.27.08-3.02,9.33-10.81,23.89-15.95,36.86-7.96,4.78,2.94,10.13,11.02,2.22,13.86-6.83,2.45-27.1,2.6-33.82-.02-.64-.25-5.19-2.61-5.34-2.86Z" fill="#fff"/>
  <path d="M577.89,511.83c-3.33,3.34-25.75,2.17-30.73.47-1.25-.43-4.32-1.89-4.64-3.22.34-4.79,11.78-11.06,16.13-11.55,6.57-.74,14.4,0,18.37,5.96,1.36,2.04,2.82,6.39.88,8.34Z" fill="#fff"/>
  <path d="M141.99,736.29c6.16-.82,21.96,2.97,18.23,11.65-1.84,4.27-16.83,4.21-20.94,3.87-2.42-.2-13.82-1.82-13.47-5.39,2.2-5.55,10.58-9.38,16.18-10.13Z" fill="#fff"/>
  <path d="M120.75,806.82c.48.74,1.74.78,1.02,3.1-.06.2-2.69,2.17-3.07,2.35-6.08,2.9-22.01,2.52-28.74,1.32-2.94-.53-5.93-.71-7.55-3.62,5.37-12.38,31.35-13.91,38.33-3.15Z" fill="#fff"/>
  <path d="M176.82,775.72c7.3-1.15,19.67,1.7,20.48,10.58-1.24,4.21-17.47,4.03-21.22,3.64-2.21-.23-11.52-2.4-12.16-4.3-1.1-4.83,9.12-9.33,12.89-9.92Z" fill="#fff"/>
  <path d="M63.5,643.86c1.5,1.73,3.69,2.97,2.06,6.17-2.26,4.46-28.47,4.83-32.52-.43,4.7-11.23,22.23-15.18,30.45-5.74Z" fill="#fff"/>
  <path d="M82.19,706.05c3.99-.32,8.33.74,11.26,3.49,11.31,10.59-9.22,9.39-15.43,8.86-17.23-1.48-4.63-11.64,4.17-12.35Z" fill="#fff"/>
  <path d="M51.69,542.64c.22.36,1.61,0,1.03,1.54-1.54-.15-1.57,1.62-2.63,2.29-4.86,3.04-17.15,2.71-22.49.84-11.28-3.94,2.68-11.02,8.37-11.66,8.04-.91,11.69.3,15.72,7Z" fill="#fff"/>
  <path d="M443.87,809.68c-5.32,2.58-13.75,2.84-19.2.58-6.48-2.69,2.39-7.05,5.93-7.59,4.56-.69,13.29,1.28,13.27,7.01Z" fill="#fff"/>
  <path d="M73.12,58.77c.19-1.48,3.68-7.6,4.72-9.08,14.04-19.96,48.89-17.97,60.29,3.9,1.13,2.17,3.47,11.44,3.98,11.8,2.04,1.48,6.47-3.76,9.24-4.66,9.33-3.06,20.42,1.89,25.55,9.97.4.62,2.63,4.38,2.7,4.65.42,1.45.15,6.26,1.31,7.14,6.59-1.14,12.52-1.69,18.67,1.69s11.7,16.48,4.21,21.09l-168.35.34c-4.23-.82-4-9.87-3.66-13.24,1.57-15.47,17.92-26.38,32.83-22.47,3.3.87,5.31,3.42,8.51,3.65.43-4.66-.59-10.26,0-14.79Z" fill="#fff"/>
</svg>