<?xml version="1.0" encoding="UTF-8"?>
<svg id="Camada_1" xmlns="http://www.w3.org/2000/svg" version="1.1" viewBox="0 0 595.28 841.89">
  <!-- Generator: Adobe Illustrator 29.0.0, SVG Export Plug-In . SVG Version: 2.1.0 Build 186)  -->
  <g>
    <path d="M.14,841.29V-.06h595v841.34H.14ZM590.54,3.89H4.08v166.95c46.3-14.79,81,20.13,113.56,46.57,32.36-15.38,59.74-14.68,90.45,3.51,29.03,17.19,54.65,44.13,87.9,53.11-5.11-6.98-3.55-24.73,8.13-23.58,7.17.7,12.41,9.91,16.52,15.03,1.24,0,.48-13.33,9.93-14.39,8.19-.92,13.56,7.02,14.1,14.37,7.02,2.95,25.84-5.04,22.95,8.24-.4,1.82-2.87,2.83-2.61,3.95,6.82,4.32,4.91,8.71.71,14.1,2.43.42,2.35,3.94,4.35,5.18,1.78,1.11,5.73,1.06,7.9,1.96,14.83,6.15,28.87,16.88,23.87,34.97l20.42-4.33c-.28-3.02.23-6.19,0-9.18-.11-1.41-2.61-.65-.05-4.22-1.9-.99-6.07-1.43-7.49-2.71-2.25-2.01.61-15.44,1.24-19.01,1.28-7.29,3.3-14.47,4.95-21.66-5.51-1.14-8.64-4.13-9.69-9.72-.37-1.95.25-5.17-.13-6.31-.27-.81-3.06-.22-3.27-2.67s5.68-13.81,7.5-16.15c4.05-5.21,11.41-10.43,18.08-11.18.37-1.54-.29-1.07-.84-1.47-8.61-6.2-13.09-11.62-11.7-23.21.14-1.17,1.29-.93,1.34-1.41,1.1-10.15-1.48-18.02,9.76-23,15.18-6.72,27.38,1.82,32.27,15.98-1.07,5.54,4.18,12.94-.88,17.36-1.27,1.11-3.15.96-4.24,2.34-.77.98-1.15,3.62-2.01,5.04-1.43,2.35-6.13,3.21-1.99,8.71,6.37.56,11.5,4.97,16.2,8.82l12.07-6.86c.34-1.4-4.13-2.86-5.29-3.9-8.58-7.75-3.9-24.36-4.13-34.43,5.89-11.89,23.05-14.65,33.41-6.68.67.52,7.12,7.17,7.4,7.69,2.62,4.93.89,7.63,1.04,12.27.07,2.3,1.56,3.5.93,7.15-.89,5.17-6.63,4.15-7.64,5.17-.27.27-.07,2.09-.6,3.01-.7,1.22-4.47,6.04-4.52,6.43-.03.25,1,4.67,1.17,4.85.72.72,12.79,2.97,13.42,7.98,4.39-4.07,8.9-4.59,14.08-6.93l-.36-1.67c-4.47-1.2-9.52-.29-11.31-5.67.78-5.51.58-11.4,1.26-16.87.2-1.62,2.27-13.73,2.55-14.41,5.86-14.19,33.02-10.01,37.99,3.94.53,1.48,2.17,14.76,2.08,16.21-.19,2.96-2.94,4.53-3.04,5.33-.09.67,1.23,3.31,1.17,5.29-.2,5.94-6.96,6.17-11.24,4.26-.54,5.22,6.13,5.33,10.2,8.52,5.67,4.44,13.02,17.35,12.85,24.66-.11,5.04-2.34,2.93-2.73,4.03-.5,1.41,1.26,7.39.99,9.5l4.28.57c0-7.53,5.46-14.96,13.19-15.73V106.43h-135.77c-4.46,0-8.89-3.98-9.39-8.39-1.39-12.37,15.04-17.7,24.84-14.61-1.19-19.32,20.41-27.54,35.81-19.07,9.3-30.33,55.07-28.48,58.22,4.61,3.33-2.15,10.91-7.23,14.78-7.23h10.52c.19,0,.47.8.99.66V3.89ZM455.43,103.8h135.11v-38.78c-9.01-1.96-21.93.66-26.39,9.1l-2.53.11c.06-19.36-14.54-32.94-34.33-27.42-7.22,2.01-14.78,7.7-17.26,14.95-.59,1.73-.97,7.55-2.01,7.86-3.56-1.44-5.28-4.04-9.36-5.08-10.74-2.73-24.55,2.56-25.72,14.69-.31,3.25,1.03,5.75-.08,8.8-10.11-6.24-29.99.09-22.98,14.11.36.31,4.87,1.57,5.57,1.66ZM123.32,222.53c9.52,9.27,21.91,15.75,31,25.21-.95,1.28-1.68.48-2.69.05-4.31-1.82-17.17-12.32-21.63-15.84-36.09-28.44-74.09-74.76-125.88-58.45l-.04,116.31c6.79-1.13,11.12,3.44,11.85,9.86,10.1-3.96,18.97-.05,17.08,11.83,4.66-.29,9.18,1.77,12.17,5.24l7.57-14.12c-5.7-3.06-7.52-9.48-6.42-15.62.66-3.67,4.48-6.72,4.91-8.8.28-1.38-.42-4.32.26-6.94,8.53-32.58,59.97-43.46,84.75-23.21,6.13,5.01,7.56,10.72,11.51,16.1,2.03,2.76,4.58,2.61,6.35,7.45,3.44,9.39-2.43,10.67-2.69,15.22-.05.8,3.41,13.12,3.95,15.61.11.51,1.1.5,1.21,1.01,2.66,12.81,2.32,26.35,3.95,39.31l5.92.25c-.44-4.16,5.56-11.4,4.54-15.26-.54-2.06-4.37-3.51-5-7.54-1.76-11.34,3.52-10.08,4.81-15.93.54-2.46-.57-3.72-.32-5.49,5.22-37.39,65.6-46.37,90.71-23.79,5.22,4.69,5.24,8.79,8.24,13.46,1.16,1.8,3.98,2.96,5.54,4.98,2.82,3.67,3.41,9.18,2.48,13.64-.67,3.2-3.65,3.65-3.85,6.06-.35,4.15,2.61,15.41,3.26,20.49.83,6.41.76,12.94,1.69,19.34l20.42,1.3,4.02-26.66c-10.11-12.13-10.71-31.63.23-43.37-2.06-.63-5.57-7.21-5.99-7.45-.37-.21-6.21-.48-8.41-1.13-26.9-7.96-58.6-39.1-83.99-53.41-28.88-16.27-54.24-16.45-84.35-2.75,1.15.91,1.98,2.18,2.86,3.04ZM456.74,211.92c2.74-2.92,8.31-3.02,6.13-9.08-1.15-3.18-4.39-.37-6.08-.45-4.96-.23-3.71-9.19-6.28-12.21-2.43.65-4.2,1.86-6.92,1.75s-4.35-2.03-4.6-2.02c-.44.02-.76,1.9-2.24,2.34-3.46,1.03-7.97-1.54-11.59,1.57-4.4,15.71,1.73,36.14,21.77,28.99,7.04-2.51,6.28-7.13,9.82-10.9ZM501.6,197.35c-1.83-.5-3.61.13-5.27-.35-1.33-.39-1.78-2.35-3.39-2.46s-3.27,1.57-6.43,1.14c-3.36-.46-5.13-3.54-8.38-3.79-7.94,14.13-1.78,42.21,18.87,34.32,8-3.06,6.79-7.76,10.32-11.38,1.6-1.64,6.63-2.3,7.03-6.18l-2.87-3.86-5.1,1.26c-1.35-1.26-3.45-8.34-4.77-8.7ZM550.37,198.51c-6.46,1.61-8.52,4.1-12.1-3.33-3.17,2.89-6.36,4.44-10.76,4.02-.92.56-1.17,7.78-1.44,9.3-.09.5-1.19.48-1.26.94-.61,4.06.67,9.23,2.84,12.77,4.98,8.13,16.35,8.45,23.45,2.88,2.81-2.2,3.97-6.84,5.27-7.88,1.45-1.16,3.93-.33,5.56-2.33,1.97-2.43.04-7.07-3.24-6.59-1.66.25-2.22,2.56-3.67,1.69l-4.64-11.47ZM451.13,224.1c-5,1.54-9.15,3.41-14.64,2.59l-1,2.84c3.85,7.24,20.05,3.72,15.65-5.43ZM501.11,227.37c-5.04,2.17-9.54,3.19-15.11,2.63.2,8.6,18.67,6.37,15.11-2.63ZM549.77,229.35l-13.81,1.97c-1.8,2.27,4.49,9.07,5.95,8.93,4.11-2.56,9.13-5.3,7.86-10.89ZM462.91,254.43c-.13-.25-1.58-.33-1.84-1.17-.81-2.63,6.07-12.96,8.39-15.06-4.35-2.18-7.65-8.25-12.75-8.24-3.24,0-6.97,5.75-13.1,6-8.98.37-8.17-8.16-16.36-4.56-5.85,2.58-12.29,9.88-14.33,15.9-.47,1.4-2.31,5.43-.24,5.71,1.34.18,10.36.77,10.92.36,1.41-2.7.85-6.01,1.73-8.81.35-1.12-.23-1.71,1.51-1.41v7.22c3.43-.86,8.37,2.46,10.89,2.61,4.85.29,9.52-6.72,16.06-.63l2.06-7.14c6.58-1.94-1.26,11.24-.08,12.4l5.51.6c.87-.28,1.95-3.19,1.64-3.78ZM510.65,256.95h9.86c.22,0,.94.9,1.64.65.12-7.53-4.13-18.43-10.96-22.23-8.73-4.86-6.33.29-12.67,1.56-5.31,1.07-12.95,1.12-14.9-5.02-9.28,1.99-15.64,11.07-19.33,19.11l13.11,1.29.09-8.08c6.28-5.04-.02,12.43,6.54,7.66.07-1.42-.31-4.68.55-5.73.58-.71,2-.22,2.67-.74.87-.69,1.12-2.18,2.01-2.62,2.41-1.19,4.79.54,6.92.39,1.69-.12,2.46-1.53,4.52-1.38,6.25.47,2.57,9.27,6.66,11.84l.99-7.88c4.64.31-.28,10.25,2.3,11.17ZM561.71,262.11l8.49-.19c2.31-10.67-7.56-25.52-18.44-27.02-1.08,2.29-8.16,7.97-10.31,8.09-2.36.13-6.53-5.82-7.93-7.76-5.22.19-9.67,1.98-13.27,5.69l3.9,11.43c1.9-1.8-1.03-5.19,2.29-5.89,3.7,7.8-2.55,15.23-2.31,22.99l34.85.66-2.63-21.03c2.03-2.52,4.74,12.66,5.35,13.05ZM142.15,261.55c-9.51-22.03-40.21-25.07-60.27-17.2-13.83,5.43-25.98,16.17-27.82,31.66,25.43-17.5,58.26-24.18,88.09-14.46ZM501.97,252.18c-.82-2.53.93-9.55-3.48-7.71l.65,3.94-3.94-2.62,1.3,4.6-4.91-5.85-1.64,1.9,2.95,2.64-.65,1.95c-2.22.28-4.61-5.08-6.24-2.94l6.56,5.58-5.25-1.31c-.8,1.04,11.83,11.36,13.48,12.48,6.1,4.15,18.64,12.27,21.07.04,1.24-6.27-1.49-5.91-6.94-5.95l.65,1.96c-2.75,1.61-13.18-7.35-13.62-8.71ZM425.42,256.2c-4.14,2.58-15.09-6.62-12.24,6.84,3.26,15.43,33.76,1.04,39.89-6.52.19-1.4-4.15-4.5-5.53-4.55-3.94-.16-22.41,10.6-25.31,8.26l.31-1.33c1.54-2.08,8.25-2.65,10.6-3.86.69-.35,1.23.32.92-1.37l-6.8-1.27c-1.5.53-1.31,3.47-1.83,3.8ZM317.29,266.55c-3.35-5.79-8.49-13.89-16.05-13.94-10.23,8.78-1.75,30.18,10.52,33.59-2.8,2.91-4.77-2.14-7.91.63-.95.84-4.39,8.77-4.78,10.34-2.58,10.33-.34,19.26,5.31,28,1.42,2.2,5.45,4.02,4.76,7.37l-3.94-1.97c-3.1,12.31-1.13,41.44-14.93,47.19-4.91,2.05-8.42.56-13.36,1.11l-4.57,10.53c7.85,3.68,18.7,2.82,26.49-1.11,10.88-5.48,24.22-22.91,30.66-33.26,1.13-1.82,6.47-10.63,5.66-11.98-.81-.97-9.61-4.02-7.59-5.91l10.52,3c.74-2.68,7.52-8.66,8.09-10.38.97-2.95.61-8.02,1.42-11.7,2-9.09,9.04-18.93,18.08-22-2.3-5.91-16.77-3.54-17.72-10.54-.43-3.15,6.16,2.21,6.76,2.45,6.64,2.64,17.07-1.52,9.63-6.99-4.88-3.59-8.54,1.38-12.46-2.67,5.39-1.33,14.28-1.73,12.45-9.49-13.97,2.72-28.44-4.17-42.08-.25-.69,2.53,2.9,6.57.37,8.75-1.83-3.72-3.35-7.35-5.33-10.76ZM340.3,261.3c-7.47-12.42-13.69-9.93-16.69,3.53h19.06c-.06-1.54-1.93-2.8-2.37-3.53ZM474.16,253.67l-8.62.38c-6.24,20.42,16.55,14.59,26.38,7.16-1-1.03-5.82-6.45-6.47-6.56-2.11-.36-11.99,3.07-13.25,2.29l1.96-3.28ZM150.69,281.92c4.75-10.28-4.02-15.81-12.61-18.6-21.94-7.12-48.48-2.89-68.93,7.07-10.28,5.01-29.89,17.61-15.41,29.15,18.51-19.35,43.92-26.44,70.37-24.88,8.64.51,19.46,2.37,26.59,7.26ZM461.67,259.58c-6.41-.05-12.71,3.12-17.92,6.74-.77.53-1.42.54-1.14,1.8,7.69,2.97,15.51,5.91,23.66,2.63-2.11-3.68-4.83-6.46-4.6-11.17ZM590.54,262.21c-8.41,1.02-10.23,8.94-11.14,16.16l-6.61-1.04c.56,5.7,1.4,17.49-.6,22.68-.92,2.39-5.09,2.91-5.38,4.57l1.34,11.91,22.38-.39v-53.9ZM506.37,270.77l-12.15-7.68c-5.09,3.38-10.66,6.52-16.78,7.34,9.28,2.49,19.09,1.39,28.6,1.65l.32-1.3ZM568.83,264.18l-7.23.66c-.37,2.2,1.22,4.64.55,6.77-.46,1.47-2.29,1.43-2.53,2.25-1.07,3.67,2.25,8.59,1.37,13.69-.23,1.36-3.4,3.88-2.7,7.84l1.01,1.64,3.61-3.27-.65,7.88,2.3-5.91c2.41.26.25,4.65.32,5.91l2.62-6.25.67,4.27c3.88-11.14,1.3-23.83.64-35.49ZM265.75,286.52c-9.02-19.03-34.53-23.14-53.5-20.28-16.86,2.54-38.8,15.62-38.54,34.75,24.9-21.84,61.51-26.52,92.04-14.47ZM451.81,274.05c-3.5,1.29-11.25-5.1-12.7-5.11-2.3-.03-9.56,4.33-12.94,3.8,4.26,3.09,12.78,2.88,18.07,2.61,2.05-.1,5.63-.63,7.57-1.29ZM468.24,279.96l1.97-9.2c-1.17,1.05-3.62,2.01-3.96,3.63-.21,1.03.65,7.57,1.99,5.58ZM518.87,291.12l2.63-19.06c-1.86,1.43-3.42,2.32-5.91,1.98l3.28,17.08ZM557.67,277.32c.18-2.06.08-4.19-2.33-4.58l-31.21-.68v4.61s33.54.65,33.54.65ZM511.62,274.06c-13.15,1.58-26.33.54-39.34-1.25-2.31,7.08-2.82,14.49-4.06,21.79-.08.49-1.18.46-1.25.95-1.08,6.75-.91,13.78-1.98,20.54,16.74,3.97,34.18,4.46,51.09,1.17,2.33-14.44-.82-29.53-4.46-43.2ZM421.18,282.18c-.93,4.33-6.56,27.44-4.22,29.66,3.35,3.19,42.38,5.04,45.05,2.3,1.56-12.59,5.44-25.5,1.02-37.86-13.04.77-26.25,3.7-39.11-.18l-2.73,6.08ZM143.75,288.89c-.71-2.14-1.34-6.73-2.94-7.92-20.12-6.15-42.85-4.57-61.74,4.61-2.14,2.23-2.74,12.06-3.36,15.58-.1.54-1.13.25-1.31,1.44-.32,2.09-1.21,14.77-.64,15.68,5.06,3.68,9.42,9.32,15.51,12.01,6.4-6.15,14.55-9.4,23.6-8.22,4.32.56,4.86,3.31,11.07-.2,7.38-4.17,4.14-9.5.75-14.9-.51-.81-10.41-11.88-5.85-11.88,5.76,6.75,16.76,16.76,10.85,26.27,4.93.03,9.03,2.92,13.1,5.24l5.94-9.53c-.81-9.64-2.04-19.38-4.95-28.17ZM557.67,279.95l-34.12-.58c-3.81,13.38-3.98,26.85-4.66,40.64,15.26,2.7,31.12,2.94,46.39.06-.95-3.61.02-11.69-1.12-14.73-.6-1.59-3.93-1.09-4.42-1.83-.37-.55.15-2.22-.44-3.16-.86-1.37-2.5-1.73-2.93-3.65-1.08-4.89,2.61-11.4,1.3-16.75ZM155.52,329.06c-1.29-15.45-2.29-32.57-9.42-46.48,1.26,8.28,3.7,16.29,4.58,24.66,1.31,12.5,2.64,31.42-1.45,43.22-1.29,3.72-3.82,8.41-7.07,10.67,5.18,3.46,10,1.03,11.95-4.47,3.44-9.66,2.2-18.13,1.4-27.6ZM270.73,293.38c-18.59-15.9-60.66-11.5-81.03-.39-10.52,5.74-29.2,19.99-16.42,32.27,24.53-29.21,67.42-35.23,100.99-18.37,1.66-5.31.56-10-3.54-13.51ZM73.77,288.5c-14.87,5.98-20.97,18.7-27.07,32.42-7.24,16.29-16.5,40.22-11.92,58.15.25.97,1.83,6,2.5,6.03,9.87-9.11,21.24-17.79,35.13-19.08.74-6.26-.15-9.92-3.74-14.89-.4-.56.07-1.21-1.47-.85-3.36,10.3-12.88,21.24-23.99,23.02-.58.02-.46-1.4-.36-1.65.29-.73,10.75-6.03,13.19-8.51,17.93-18.25,11.96-51.51,17.72-74.63ZM4.08,292.44v51.27l32.14-2.05,7.85-21.85c-3.5-5.18-8.25-5.74-14.06-5.67,2.56-12.91-4.96-14.96-16-11.91-1.56-5.38-2.94-10.83-9.93-9.8ZM398.16,319.14c-4.74-8.97-25.07-23.97-35.28-19.32-11.88,5.41-16.73,31.8-11.51,42.79.12.25,3.35,4.13,3.59,4.27,6.34,3.71,27.37,2.32,33.08-3.16-7.63.83-15.82-1.04-19.59-8.36-.81-1.57-2.9-4.78-.13-5.13,4.43,6.25,8.47,11.42,17.1,10.2l.69-12.04c-1.83-.41-11.61-8.04-9.89-9.65,3.7-.7,7.47,6.57,10.85,6.57s3.61-8.05,7.55-6.57c-1.74,7.2-6.88,12.72-5.25,21.03,7.9-.76,12.32-12.88,10.07-19.57-.22-.65-1.13-.81-1.26-1.05ZM271.23,321.83c-2.08-10.24,1.31-13.33-9.95-17.36-19.59-7.01-47.12-5.44-64.77,5.9-1.76,11.65-8.77,30.55-.14,40.58,7.9,9.18,14.6-2.9,23.03-3.96,1.83-.23,8.86-.31,10.38.14s3.18,3.52,4.82,4.38c6.18,3.22,17.13,0,16.71-8.11-.35-6.94-7.07-12.07-8.93-18.07-2.04-6.57,6.48,4.39,6.93,5.09,3.58,5.63,5.28,10.26,4.7,17.14,3.25-.9,14.31,6.75,15.21,6.59,8.35-1.54,4.19-25.61,3.08-31.65-.09-.47-1.03-.52-1.06-.66ZM193.43,312.82c-25.9,9.89-23.91,38.94-30.73,60.97-1.8,5.82-3.97,10.46-7.97,15.09,2.21,3.72,4.73,8.42,5.18,13.34,13.4-9.35,24.18-14.95,26.87-32.62,2.22-14.61,2.39-30.51,4.64-44.78.63-4.01.87-8.08,2.01-11.99ZM436.69,345.68v-27.28l-11.54-2.12c-1.18,1.9-.84,19.31-.22,20.12.13.16,2.22.3,3.18,1.09,3.27,2.7,4.54,7.55,8.57,8.19ZM462.33,317.42l-13.15.65.7,19.69c5.86-.1,8.26,5.37,12.46,7.92v-28.26ZM446.56,318.07h-6.58s0,8.55,0,8.55l6.53-.7.05-7.85ZM464.97,323.33l9.18-2.3-9.18-2.96v5.26ZM590.54,318.73h-23.01c-.15,0,.36,1.87-.64,2.97-.89.99-4.36,1.08-4.65,2.07l-.29,27.17c-4.81,2.99-12,3.67-17.67,3.19-3.16-.27-7.11-2.18-9.38-2.32-3.86-.23-9.19,1.65-14.37,1.08-7.82-.86-7.79-.93-15.81-.66-13.87.47-27.96-2.37-41.5-3.07-3.01-.16-9.85,1.69-13.71,1.63-4.42-.07-9.04-1.92-12.47-2.14-6.12-.4-12.25,1.74-19.69.26-13.32-2.66-2.7-11.59,4.8-12.5l-.27-3.89c-1.08-.29-20.26,3.62-21.95,4.34-3.27,1.4-6.82,7.9-11.14,10.55-11.51,7.08-30.02,4.69-42.17.23.63,25.18.29,49.7-10.21,72.95-1.6,3.54-3.51,7.51-5.89,10.57-1.51,1.94-9.32,7.72-8.91,9.47,2.29,1.02,4.73,1.96,7.11,2.78,7.02,2.41,17.66,5.13,24.95,6.61,5.05,1.02,10.62-1.66,13.83,4.58,1.24,2.4.72,6.34.89,6.63.61,1.1,7.92,7.48,9.41,9.37,3.71,4.7,6.73,9.35,8.61,15.07l14.11-5.93c-.61-1.34-3.32-.39-4.77-.8-7.19-2.05-8.86-7.46-12.77-10.41-1.46-1.11-6.13-2.06-7.89-4.1-3.09-3.59-1.28-8.24-2.29-11.19-.26-.76-4.37-3.47-5.63-6.86-2.98-7.97-.07-11.37-.13-17.54-.06-5.84-4.29-9-1.39-17.16.78-2.21,4.14-5.33,4.51-6.69,1.48-5.48-2.52-9.78,3.52-17.49,3.81-4.87,8.31-5.17,11.47-7.61,1.24-.95,3.88-7.06,5.93-9.17,3.8-3.91,11.18-6.29,16.59-6.25,2.16.01,5.7,1.54,6.24,1.46.35-.05,4.33-3.27,5.9-3.95,8.33-3.61,16.89-4.43,25.42-.85,2.17.91,7.24,5.36,7.7,5.46,1.25.29,4.45-1.15,6.42-1.23,7.13-.28,17.43,4.48,20.94,10.73,1.17,2.08,1.49,6.19,2.08,7.05.32.47,7.53,4.05,9.43,6.34,3.01,3.63,4.06,9.05,3.34,13.65-.43,2.72-3.4,6-3.58,7.26-.43,2.99,1.2,7.84.06,12.25-.6,2.32-6.19,5.85-6.32,6.29-.81,2.74.81,7.15.74,9.75-.5,19.05-6.25,35.94-23.71,45.35,2.37,2.75,5.75,3.6,8.54,5.91,19.84,16.43,22.85,44.97,41.07,61.48,5.04,4.57,12.3,7,16.13,10.17,1.26,1.04,1.2,2.68,1.98,3.27,3.6,2.73,24.69,3.22,22.05,12.2-.83,2.84-5.27,3.46-4.97,4.9,3.77,2.94,12.9,7.9,12.14,13.59-.53,3.97-4.61,3.36-5.29,4.46-.39.63,1.38,3.13-.57,6-2.23,3.28-5.13,1.06-7.6,2.26l-1.28,2.91,45.98,20.42v-312.87ZM512.3,321.04v24.65l3.32.29,6.59-5.2-.09-18.07c-2.57,1.02-8.71-4.61-9.83-1.68ZM488.63,322.02c-2.33-.41-10.89-1.77-11.74.42.49,2.81,0,15.99.87,17.34.62.96,7.59,3.78,6.93,7.87.93.63,3.93-3.97,3.93-4.27v-21.36ZM509.67,321.36h-10.19c-.23,0-2.23.76-2.33,1.08l.65,16.92c1.91.77,3.59,1.45,5.24,2.77,2.75,2.21,3.46,6.02,6.64,6.18v-26.95ZM491.92,322.02v18.08c0,.15-1.25.87-.32.99,7.52-.89,1.41-13.72,2.95-19.07h-2.63ZM524.79,323.34v15.78c0,.05.87-.11,1.06.23,2.42,4.3,7.31,3.79,10.11,8.31.35-3.38-.46-7.47,0-10.74.09-.64,1.15-.17,1.33-.77.44-1.49-2.05-.78-1.31-1.62.14-.16,1.21.5,1.37-.95.3-2.75-.34-6.09-.06-8.92l-12.5-1.31ZM559.64,347.33c1.07-6.44-.8-15.59,0-22.35,0-2.27-11.44.47-13.15-.33.38,2.59.17,16.66.95,17.79.36.52,9.6,3.04,9.9,7.21l1.64-.47c-.1-.7.58-1.38.66-1.85ZM464.96,325.97v17.09c2.78-2.6,6.19-3.74,9.89-4.32l-.69-14.09-9.2,1.32ZM543.85,324.65l-2.86.1c-2.34.95-.2,15.63-1.74,18.96,8.78-.22,4.39-13.16,4.59-19.06ZM439.98,341.08c9.04-1.88,6.48-5.64,6.57-13.15l-6.57,1.97v11.17ZM133.51,334.61l-29.21-2.66c-6.09,2.39-1.62,11.36,2.04,14.37,10.5,8.64,28.98,2.85,27.17-11.72ZM346.61,333.86c-1.26-1.49-5.09,8.12-6.57,8.53l9.2,2.63-2.63-11.17ZM424.86,346.33l-8.34-4.48-3.49,2.85c3.64,1.99,7.83,1.7,11.83,1.63ZM451.81,347c-2.93-3.14-10.66-6.47-11.18,0h11.18ZM476.79,347.67c-4.44-.67-8.15-6.82-11.17-.99-.1.73,7.9,1.46,8.96,1.55.73.07,2.36.61,2.2-.56ZM4.08,346.34v118.31l16.1,1.34c.72-2.43,1.55-5.61.85-8.1-.35-1.24-3.93-5.17-4.4-6.26-6.12-14.34,2.25-37.77,9.46-50.76,2.66-4.79,6.46-8.8,9.33-13.46-7.03-13.01-4.21-28.79-.72-42.41l-30.61,1.33ZM343.9,346.43c-1.91-.43-4.45-2.02-6.19-.81-.99.69-6.6,12.29-8.18,14.67-4.52,6.8-15.19,20.52-21.48,25.38-8.49,6.54-19.77,10.17-30.46,8l8.52,8.89c10.02,12.62,18.07,27.72,32.21,36.22l1.33-.06c3.46-4.9,8.87-9.25,11.95-14.39,6.84-11.42,11.7-34.82,12.41-48.06.53-9.81-.37-20-.11-29.84ZM499.15,349.62c-3.18-3.5-8.26-7.49-11.17-1.63l11.17,1.63ZM527.42,350.28c-.32-3.25-4.99-2.85-6.91-5.13l-3.6,3.5c-.28,1.33,3.54,1.46,4.36,1.54,2.05.22,4.11.05,6.15.08ZM165.08,346.43l-5.55-.13c-.77,4.17-.07,11.87-4.22,13.86l.42,1.3,5.84,2.61c1.52.19.71-.27.96-.97.47-1.36,3.01-15.96,2.56-16.68ZM549.77,350.29c-2.32-.86-9.28-5.15-10.51-.98-.64,2.18,9.57,2.18,10.51.98ZM274.97,352.92c-4.88,9.1-8.32,2.38-13.38-.11-10.75-5.31-12.06,3.56-22.36,3.14-8.6-.35-7.8-7.14-17.18-6.3-9.62.85-13.75,11.38-23.81,6.69-2.82-1.32-4.03-4.42-6.77-5.39-.34.42.28,4.45.05,5.62-1.07,5.45-3.88,13.73-3.93,19.79-.13,14.35,27.92,28.53,40.38,29.79,30.6,3.11,47.28-15.76,48.3-45.03.08-2.44.3-6.19-1.29-8.2ZM298.62,357.52l-19.72-1.32-1.32,19.71c13.52,3.61,19.72-6.49,21.04-18.4ZM123.08,371.98c-15.94,1.25-35.49-.06-47.01-12.49.73,2.68-1.52,4.68-1.63,5.04-.22.76,2.95,7.87,3.8,9.22,9.75,15.41,40.32,19.41,44.84-1.77ZM145.44,365.41c-6.76-2.78-9.1.39-14.46,3.93l8.79,3.87,5.68-7.79ZM159.24,366.7c-5.89-8.25-16.62,2.59-16.13,9.89l3.97,2.6c3.41-4.68,6.51-10.11,12.16-12.49ZM161.21,367.38c-1.01-1.13-11.95,11.75-12.41,12.96l4.2,6.08c4.93-5.36,6.54-12.08,8.21-19.04ZM94.81,466.63h30.57c2.75-8.29,3.56-17.22,6.81-25.37,1.37-3.45,6.82-10.76,7.21-14.57.58-5.74-3.78-20.81-3.04-24.01.18-.78,1.04-1.21,1.52-1.76l4.6,21.02c1.14-3.1,14.3-15.95,14.55-17.05,1.06-4.74-7.98-19.69-11.57-23.39-2.55-2.63-17.02-14.04-20.11-9.55.51,11.91-13.35,18.01-23.63,17.83-10.86-.2-25.9-9.8-28.93-20.43l-1.25-.62c-31.28,4.56-60,50.42-52.01,80.18,5.26,19.58,41.05,29.41,57.88,21.03.93-1.63-5.17-1.25-6.62-1.94-6.38-3.06-5.26-24.15-.95-29.61-3.38-.24-27.22-3.91-27.61-5.6-.21-.93.7-1.5,1.56-1.59,2.93-.31,9.76,1.8,12.89,2.59,1.18-7.06,1.44-14.38,3.34-21.31.44-1.6,2.07-8.62,4.21-8.26,2.78.47-.86,4.2-.92,4.45-.84,3.48-4.47,24.18-2.72,25.49l10.79,2.19c4.24-4.19,17.8-12.16,23.44-9.46,1.18.56,1.08,2.68,2.97,3,2.34.39,6.42-1.87,9.32-.87,4.4,1.51,3.55,5.1,4.23,6.01.2.27,4.12.5,5.33,3.54,1.96,4.91-1.98,6.49-2,7.38,0,.44,1.75,1.52,1.71,3.77-.14,7.19-10.09,12.1-15.83,14.45-1.74.71-5.9.28-5.72,2.49ZM186.85,383.15c-1.01-1.16-5.17,4.5-.31,1.99.42-.32.45-1.83.31-1.99ZM190.4,391.44c-1.11-1.43-1.18-3.88-3.54-3.43-2.87.55-17.05,9.92-20.05,12.23-18.87,14.54-34.27,40.79-37.71,64.18-2.22,15.13-2.31,32.14,1.64,46.95,12.74,4.59,27.08,4.53,39.54-.86,1.36-8.25-.3-16.71.15-25.15.75-14.14,4.14-28.01,9.38-40.61,1.84-4.42,3.04-9.11,6.07-12.97,1.59-.3,1.03,1.25.82,2.14-2.24,9.6-8.61,19.87-10.72,30.7-.58,3-3.09,18.63-1.62,20.07,1.25,1.22,17.93,4.82,20.92,5.38,18.24,3.39,38.46,4.69,56.9,2.09,5.64-.8,22.85-3.53,25.22-8.96,2.65-6.05,1.3-25.35.83-32.67-.23-3.53-3.76-26.53-2.61-27.29.8-.52,1.49.44,1.81,1.14,1.13,2.52,2.99,16.7,3.36,20.31.89,8.68.37,17.46,1.35,26.1,17.09,11.15,35.22,23.2,55.94,26.06-5.73-10.88-1.69-24.1,2.02-34.96l7.83-11.03c-12.32-2.56-26.43-5.41-36.76-12.88-11.36-8.22-18.23-22.4-27.03-32.8-1.95-2.3-12.29-13.45-14.99-12.07-10.93,13.54-17.82,26.57-37.95,25.55-22.14-1.12-29.06-11.98-40.81-27.22ZM472.05,403.01c-1.63-.82-4.25.65-6.07.52-6.63-.44-12.8-4.67-15.83-10.53-7.37,6.74-15.41,8.89-23.97,2.63-1.98,7.04-10.72,8.76-17.1,7.53-3.25,4.73-4.87,10.6-11.82,10.9,1.73,7.62.57,12.96-6.37,17-4.94-3.65-7.39-6.88-14.2-5.69-10.63,1.85-10.57,20.11-1.95,24.63,4.52,2.37,8.1,2.45,12.67,1.8,11.08,26.5,43.62,42.03,70.77,30.72,18.22-7.59,25.6-26.41,25.21-45.18-.17-8.07-3.69-16.73-.98-24.7-.22-1.85-4.22-1.86-6.29-3.52-1.65-1.32-3.7-5.94-4.06-6.12ZM255.89,405.51c-14.43,5.51-28.9,5.41-43.19-.54-5.31-2.21-9.83-6.12-15.33-8,11.83,17.9,43.03,26.56,58.51,8.55ZM92.84,429.17c-17.11,3.59-26.82,13.18-22.72,31.59,1.35,6.05,4.22,5.45,9.89,5.2,8.09-.36,29.07-6.28,32.66-14.01,4.44-9.53-14.52-.35-18.51-1.1,1.32-5.88,21.01-4.3,20.42-10.16-4.2-5.65-14.87.87-20.77,1.6-.51-.47-.85-.46-.69-1.31.72-3.83,14.02-2.93,14.83-8.52-7.14-1.8-13.49,2.67-20.37,2.62l5.25-5.91ZM363.35,455.15c-3.96-3.89-12.59-3.39-16.43.94s-9.28,22.33-8.91,27.97c.06.89-.15,2.01.68,2.65,6.58-.47,20.67,18.07,25.35,18.05,11.14-6.41-4.73-9.8-5.6-16.43l12.15,9.03,5.12-3.77.49-1.63-8.91-9.53c-.37-5.03,7.13,2.74,8.65,4.17,1.82,1.72,2.4,6.1,5.87,2.43,4.89-5.17-10.32-19.38-13.2-23.69-.84-.23-2.7,4.07-3.84,5.02-.91.76-7.2,4.17-7.65,1.86-.24-1.25,14.59-8.84,6.21-17.06ZM23.81,462.03l.98,22.34c1.2,2.61,18.65,8.51,20.75,6.95l3.63-16.85c-9.65-2.34-17.64-6.25-25.37-12.45ZM4.08,467.94v174.18c8.61.71,18.09,2.5,26.09,5.79,12.08,4.96,20.91,14.9,32.63,19.96s24.78,6.88,36.4,12.25c13.88,6.4,25.69,17.85,39.4,24.36,20.65,9.81,44.49,13.32,65.57,23.18,23.92,11.19,41.07,29.05,66.19,38.34,12.97,4.8,25.08,7.51,37.71,14.23,11.45,6.1,20.39,15.02,30.96,21.63,22.02,13.78,51.42,17.56,71.69,35.47h179.81v-201.46c-5.41-3.83-11.95-6.86-17.96-9.65-12.58-5.82-22.75-10.12-36.23-12.42-7.95-1.36-21.27-16.64-25.17-16.91-1.33-.09-4.11,2.95-5.8,3.13-6.52.69-24.27-11.95-29.56-16.4-1.15.81-.84.91-.7,1.98.49,3.78,2.67,11.15,3.73,15.22,6.5,25.01,18.21,60.84,19.64,86.33.87,15.65-4.92,11.58-16.33,17.78l2.54,17.37c6.68.61,29.44,4.98,33.7,9.18.51.5,4.37,7.03,4.43,7.65.51,5.17-10.01,12.16-14.32,13.88-12.88,5.16-39.79,5.72-52.88,1.31-12.06-4.06-6.64-7.24-5.79-15.93.9-9.22-2.18-18.22-3.28-27.25-24.41.91-48.75-.97-71.98-8.62-5.58,3.34-2.46,11.04.14,15.67,3.4,6.06,10.1,7.91,10.74,16.29.89,11.74-9.1,14.09-18.86,14.69-17.12,1.05-29.73-7.01-38.34-21.45-6.7-11.24-10.31-22.68.18-32.8,4.25-4.1,11.61-5.61,14.87-10.47.28-1.6-8.29-3.96-7.72-10.27.41-4.58,4.51-8.62,5.97-11.86,3.23-7.16,5.73-14.71,9.02-21.85-2.27-.44-4.61-.36-6.53-1.99s-1.89-4.03-2.08-4.17c-.65-.48-3.13.5-4.91-.68-3.97-2.63-3.83-15.1-3.55-19.43.23-3.55,2.78-12.29,2.55-14.52-.13-1.25-3.37-3.97-3.87-9.17-1.71-17.96,5.39-38.37,11.77-54.81-.68-1.17-22.79-7.37-25.83-8.04-2.22-.48-9.23-2.71-10.61-1.23-.93.99-.66,3.51-1.04,4.75-2.54,8.37,1.47,23.74,3.55,33.5.84,3.94,2.68,14.96,3.87,17.82.53,1.26,3.79,2.7,5.02,4.18,3.81,4.59,8.55,15.46.76,18.3-8.26,3-18.78,1.76-26.95-.98-.06,12.65,2.45,22.91-13.18,25.42l.12,31.02c5.86.33,10.19,4.44,14.89,6.48,3.88,1.68,13.05,3.73,15.6,6.09,1.48,1.37,4.39,8.17,4.31,10.18-.22,5.53-12.9,12.04-17.77,13.19-13.17,3.11-40.74-2.56-53.43-7.77-2.66-1.09-8-3.27-8.44-6.04-.18-1.12,1.04-8.93,1.38-10.39.52-2.29,2.99-6.17,3.21-10.11.44-7.99-3.01-17.61-.61-25.85-18.51.89-36.83-1.4-55.08-3.13-3.07,5.49-7.85,9.81-8.59,16.45,5.3,8.05,17.39,8.75,20.38,18.46,3.46,11.22-5.01,14.82-14.69,17.05-19.99,4.62-39.4-6.75-52.14-21.22-6.76-7.68-11.37-13.28-4.27-22.35-14.81-3.13-7.34-12.46-6.54-22,.72-8.55-.49-18.08-2.62-26.36-10.25-.32-20.37-.31-30.54-1.68-2.8-.38-7.88-2.82-10.26-1.56l-9.08,11.17c.05,1.39,11.79,11.42,13.29,13.52,5.34,7.48.67,14.75-7.38,16.83-24.71,6.38-44.23-13.38-48.66-36.11-.12-4.63,19.68-18.49,19.59-19.89-4.4-1.99-11.97-10.13-11.87-15.13.04-1.94,5.33-11.55,6.46-14.62,2.02-5.49,3.54-11.24,5.34-16.8-22.33-12.47-20.41-37.43-21.24-59.65l-16.81-1.27ZM125.71,469.26l-43.4-.32,1.94,7.92c13.41,1.29,26.94,2.59,40.42,1.02l1.04-8.62ZM83.62,491.57l-3.39-18.59c-.99-2.74-4.16,1.94-6.51,1.91,1.56,6.62,5.01,11.63,2.03,18.67l7.87-2ZM301.85,486.42l-20-12.55c-.44.05-.35,4.73-.62,5.94-4.39,19.69,3.95,40.38,6.78,60.86,2.11,15.31,3.45,30.81,4.03,46.25,3.49.55,18.6-.9,19.08-4.95.15-1.3-3.9-16.79-4.56-19.72-2.04-9.15-5.71-19.45-4.58-29.48.38-3.34,2.51-6.67,2.61-9.93.16-5.4-2.88-13.65-3.33-19.73-.38-5.22-.21-11.51.58-16.68ZM70.48,475.17c-6.02,1.28-11.69,1.08-17.69.08l-4.37,18.34c3.39,2.22,7.64-1.21,8.86-4.35.89-2.29.04-5.82,2.36-6.19,1.53-.26.87.68.99,1.64.62,4.67-1.85,6.9-3.29,10.85,16.97,1.26,17.7-6.34,13.14-20.38ZM125.06,481.08l-40.11-1.31c.43,8.83,4.81,17.59,2.6,26.46-.13.53-1.08.57-1.22,1.01-6.56,21.75-20.34,25.15-41.81,22.43l-3.52,13.59-7.87,16.54c-1.39,9.43,23.34,20.96,30.68,23.6,22.83,8.21,49.88,9.2,73.42,3.51,3.98-10.08,8.33-19.61,10.19-30.23-13.67,2.16-18.08-17.7-18.43-27.91-.12-3.47,1.79-13.49,1.36-15-.18-.62-2.04-1.02-2.81-2.62-3.26-6.81-1.91-22.34-2.47-30.07ZM448.52,488.32c-9.75,1.42-19.59.96-28.89-2.34-5.22-1.85-9.03-5.94-14.73-4.8-4.98,1.94,5.93,15.57,8.42,17.68,13.47,11.35,31.39,6.96,35.2-10.54ZM401.18,483.06c-13.12,3.13-9.16,3.49-7.43,13.02,3.75,20.71,3.83,42.05.82,62.86l13.85,2.35c.05-3.44.12-7.49.61-10.88s1.85-8.06,2.04-12.43c.35-8.11-1.15-33.46-3.46-40.63-1.14-3.57-6.87-9.21-6.44-14.28ZM462.18,560.47c3.92-23.89.35-48.46-1.92-72.39l-.98-.98-7.31.72c.36,2.94-3.68,8.92-3.82,10.67-.2,2.41,2.05,9.9,2.34,13.18,1.47,16.92,2.37,34.14-.64,50.92l12.34-2.12ZM173.89,499.32c2.76,1.46,5.77,2.47,8.74,3.41,21.64,6.89,63.24,7.56,84.78.71,9.07-2.88,12.71-4.45,8.54-15.11-9.71,5.59-23.59,7.3-34.82,7.9-22.22,1.19-45.41-1.6-66.47-8.55-2.22-.1-1.3,11.03-.76,11.65ZM57.99,497.52h-9.53c-1.15,0-1.81-2.07-2.76-2.47-1.9-.8-5.11-.55-7.3-1.28-4.67-1.55-9.12-3.48-13.6-5.46-.48.1.37,8.77,1.15,9.7,2.3,2.71,29.94,8.75,31.37,7.39l.67-7.88ZM346.05,495.65c-3.23,8.1-15.94,3.26-22.14,1.24-6.7-2.18-12.92-5.81-19.36-8.57-1.59.96.03,20.3.61,23.37.22,1.19,1.17.91,1.3,1.46.34,1.45,1.75,9.52,2.16,9.88l37.28,9.93c3.66-9.72,10.53-17.56,16.49-25.91l-16.33-11.4ZM340.15,496.77c1.84.96,4.29-2.05,5.01-3.53-1.64-2.37-4.22-3.9-7.09-4.26-.85,1,.98,7.22,2.08,7.79ZM388.69,488.97c-1.21-.81-10.46,6.02-10.4,7.44.68,2.03,2.26,3.56,3.04,5.53,6.24,15.73,8.6,24.12,4.81,40.81-1.06,4.66-2.24,9.29-3.36,13.93l8.9,1.86c1.69-.3,2.97-23.96,2.96-27.19-.02-6.49-.69-15.05-1.43-21.57-.32-2.8-3.2-19.91-4.52-20.8ZM465.62,559.3c4.54.08,4.62-4.66,5.17-8.29,2.66-17.5.39-35.6,2.75-53.15-.22-4.26-6.6-6.62-9.57-8.87l-.32,10.16c2.8,19.88,4.18,40.14,1.96,60.15ZM83.63,494.24c-1.53,1.2-9.22,2.32-9.72,2.76-1.03.89-.37,6.22-1.45,7.75l10.88-1.93.29-8.58ZM59.96,505.4l9.23-.3,1.94-8.24-10.52,1.97-.66,6.57ZM364.1,552.47c1.87-5,4-10.86,6.49-15.55,2.23-4.21,12.26-17.32,12.74-20.18.4-2.35-5.6-18.16-7.49-18.57-13.83,12.25-24.47,27.78-31.52,44.7-5.14,12.33-9.66,28.07-9.47,41.81.02,1.71.49,8.3.93,9.43,1.64,4.17,16.92,7.05,21.35,7.25-.29-15.62.67-32.9,5.83-47.72.29-.83,1.07-1.02,1.14-1.18ZM428.13,508.05c-6.59-.11-11.97-3.6-17.08-7.24,2.88,20.15,2.93,40.97,0,61.12l17.09.65v-54.54ZM490.2,523.56c-4.25-7.79-7.29-16.52-13.75-22.74-1.59-.29-.79.75-.95,1.65-1.95,10.85,7.61,31.46,13.03,41.51,6.08,11.28,17.62,21.06,28.81,27.08l8.76-5.83-.4-1.35c-7.04-3.07-13.74-7.58-18.99-13.09-7.43-7.79-11.42-17.89-16.5-27.21ZM36.13,504.92c-.66-.76-8.08-2.79-9.69-3.45.82,7.44,2.53,12.43,10.86,11.83.28-.45-.63-7.76-1.16-8.38ZM447.17,562.55c2.55-20.18,1.91-41.04-1.6-61.08-4.34,3.5-8.77,6.97-14.8,6.57,1.13,4.82.87,9.8,1.34,14.65,1.04,10.77.99,14.71,0,25.25-.48,5.07-.35,10.27-1.34,15.31l16.4-.7ZM277.58,503.43c-32.95,10.4-71.03,10.2-103.87-.65,1.8,3.32-2.1,10.07-1.99,11.45.24,3.22,6.19,9.2,5.95,16.45-.26,7.71-6.55,8.17-7.17,10.01-.89,2.63,2.36,7.81.63,12.42-2.2,5.85-6.9,2.58-10.15,3.1-2.64.42-6.43,5.85-10.93,1.12-2.85,16.12-9.59,31.12-17.73,45.18l.12,2.01c26.58,26.21,72.22,30.49,107.99,28.38,7.33-.43,46.04-5.53,48.65-11.83,1.06-2.57.56-29.62.37-34.52-.77-19.49-3.72-39.55-7.19-58.01-1.57-8.37-2.71-16.83-4.67-25.12ZM39.7,514.5l9.77,2.48c1.11-.82,1.82-7.83,1-8.98l-11.54-1.92.77,8.43ZM82.97,506.07l-12.53,2.26-2.59,10.22c9.44-1.09,14.28-1.81,15.11-12.48ZM67.2,508.69h-13.15l-.62,9.17c9.63,2.12,12.78.88,13.77-9.17ZM168.9,515.46c-1.83-1.36-9.66,1.51-12.63,1.76-7.68.66-15.26-.15-22.66-1.96-1.41,5.08-2.12,13.52-1.29,19.26.07.45,1.14.44,1.25.96,1.44,7.09,3.36,20.55,13.19,18.57-2.98-5.22-6.1-9.52-5.27-16.03-.07-.65,1.42-.51,1.65-.4,2.48,1.13,5.34,24.55,15.44,16.76.44-.71-2.93-2.82-3.49-3.8-.98-1.69-3.81-11.07-3.71-12.69.05-.85.7-1.78,1.6-1.57,1.18.27,5.41,16.4,10.7,17.59,3.29.74,5.38-3.24,4.81-6.13-.24-1.21-1.25-.92-1.33-1.42-.37-2.32-2.05-17.26-1.34-17.93.09-.09,2.41-.07,2.57.06l.71,8.49c9.95.58,3.39-18.83-.21-21.5ZM50.05,527.04l.07-6.85-17.76-4.91c2.74,6.63,10.53,11.72,17.69,11.77ZM76.4,519.87c-4.11.08-8.79,1.21-12.81,1.36-5.75.21-13.51-4.13-9.11,6.43,7.9.39,17.04-.91,21.93-7.79ZM384.09,521.18c-1.55-.36-1.07.29-1.48.85-10.36,14.32-20.4,39.41-22.17,56.68-.73,7.1-.56,14.86-.68,22.01,5.13.36,10.12-.17,14.49-3.09.06-7.09-.26-14.39.66-21.43.43-3.31,2.42-11.41,3.35-15.82,2.72-12.93,8.8-25.49,5.83-39.2ZM479.01,528.83c-1.21-2.56-1.49-5.75-3.53-7.65l-2.15,33.31c7.21,13.87,18.24,26.15,32.38,33.08,1.36-5.66,5.31-10.09,9.21-14.12-6.97-4.76-14.06-9.5-19.7-15.81-7.45-8.34-11.59-19.04-16.21-28.81ZM473.5,558.65l-1.23.93c1.09,3.74-.97,8.29-.76,11.86.59,10.46,23.94,22.59,32.9,25.99-.31-1.86.61-5.79-.31-7.24-.46-.72-11.98-7.71-14.11-9.56-6.36-5.55-13.58-14.03-16.49-21.98ZM470.22,561.94c-28.98,7.46-60.03,4.92-88.75-2.64.75,6.19-4.92,9.59,2.62,12.17,20.92,7.16,51.5,8.51,73.12,4.06,9.45-1.94,12.78-2.75,13.01-13.6ZM548.92,576.88c.3-.32.94-1.37.56-1.81-1-1.64-20.26-7.89-22.06-7.62-4.62.69-19.06,16.58-19.62,22.32.3,1.75,25.99,20.2,28.64,20.64,1.48.24,4.74.74,5.38-.9,1.66-3.12-12.16-11.09-10.47-12.73,7.5.11,10.41,10.11,17.4,8.51,9.2-2.1-9.17-10.23-8.85-13.77,2.84-2.31,12.61,10.04,16.12,3.94.56-.91.38-1.68-.02-2.6-.71-1.65-15.72-12.61-18.74-12.52,1.09-4.21,8.58-.19,11.64-3.46ZM387.15,593.94c1.01-5.66,1.11-11.45,2.13-17.11l-9.78-3.72c-.43,3.7-1.13,7.79-1.35,11.48-.32,5.38,2.23,14.65-3.27,17.12,4.45,8.25,7.36,30.07-8.54,20.7-.85,4.61-2.54,13.8-6.55,16.79-2.35,1.75-4.59,1.08-5.96,1.95-1.79,1.13-10.3,22.8-12.09,26.69-1.34,2.9-6.18,6.22-2.12,10.21l19.16,13.37c9.27-25.02,18.12-50,23.81-76.1,1.48-6.78,3.45-15.2,4.56-21.38ZM470.22,575.08c-6.97-.89-4.04,8.75-3.24,13.31,6.1,34.58,10.3,70.99,13.77,105.98.15,1.54.41,6.94,1.63,6.92.69-.01,10.34-3.96,11.18-4.61,2.89-2.19,2.33-3.6,2.29-6.89-.26-21.25-11.84-57.44-17.18-78.81-2.98-11.92-5.65-23.94-8.45-35.9ZM71.14,588.24l-26.65-11.21c-3.84,4.49-11.21,7.55-11.22,14.05,0,1.84,2.63,13.2,4.06,13.55,7.52-3.15,15.94-6.32,24.18-4.65l9.64-11.75ZM406.44,579.04l-15.19-1.6c-2.04,19.33-5.55,38.34-10.49,57.08-4.11,15.6-10.66,35.58-16.3,50.72-.49,1.33-3.73,5.42-3.4,7.12,6.6,3.06,12.98,7.44,20.37,8.24,3.93-14.35,8.19-28,11.67-42.57,2.06-8.64,4.49-18.87,6.07-26.91,3.38-17.18,6.13-34.59,7.26-52.08ZM467.15,607.1c-1.56-9.5-2.54-19.21-3.79-28.77l-13.56,1.76,1.36,127.76c9.11-1.24,18.45-2.21,26.99-5.67-1.79-31.57-4.89-63.22-9.93-94.43-.07-.46-1.04-.53-1.07-.66ZM426.83,580.99l-18.41-1.31c-.2,10.35-1.77,20.87-3.4,31.11-4.38,27.69-10.77,55.62-19.05,82.21-.92,2.96-1.5,6.02-2.54,8.93l29.17,5.18.95-1.03c3.5-16.41,5.19-33.07,7.39-49.68.07-.52,1.17-.23,1.33-1.43,3.15-24.44,4.29-49.34,4.56-73.98ZM447.21,580.34l-17.76.66c.12,20.26-1.14,40.65-3.29,60.79-1.21,11.29-3.52,23.27-5.19,33.72s-3.19,21.63-5.32,32.35l32.83-.03-1.27-127.48ZM317.32,589.91c-.64-.88-3.37-4.84-3.97-4.94-6.15,4.74-13.78,3.49-20.91,4.49l.3,11.88c6.76,1.64,12.11,3.4,19.29,2.58,11.42-1.3,11.29-5.78,5.29-14.02ZM133.34,595.2c.67-1.21,1.26-2.46,1.95-3.66l-.7-1.32c-3.57,2.33-12.14.93-15.04,2.04-.9.35-.92.73-1.11,1.57-.49,2.21,1.94,13.35,2.03,17.03.15,6.05-.56,11.2-1.95,17.05l11.08,4.99,12.56-15.46c-.03-1.22-11.45-8.68-12.36-11.95-1.32-4.77,1.68-6.94,3.53-10.29ZM509,594.16l-2.62-1.33v3.94c1.11.38,3.15-1.73,2.62-2.61ZM57.67,629.64c2.87.39,7.12,0,10.19,0,.03,0,.03-.66,0-.66h-9.53c-11.22,0-25.85-18.06-29.87-27.47-1.06-2.48-.54-6.19-2.67-8.03-1.24,6.61,5.87,18.63,10.18,23.67,4.99,5.85,14.06,11.45,21.7,12.48ZM340.04,631.61v-9.86c0-.06,1.01.11,1.1-.19.53-1.75.36-5.09,2.84-5.07-.19,6.2-3.61,20.56,5.92,20.37-1.56-6.22-1.41-12.66.63-18.78,5.36.11,1.4,2.32,1.29,3.3-.49,4.56.31,6.65,1.31,10.08.75,2.58-.07,6.37,4.21,6.1l8.51-22.85,2.15-.21c.13,4.29.42,7.35,5.51,7.2,2.1-1.34-.65-16.74-1.27-19.66-11.61,4.25-22.69,1.63-34.18-1.31-1.28,7.21-2.77,15.32-1.97,22.67.08.76,2.2,10.4,3.93,8.23ZM73.12,623.06c11.01-.91-1.59-12.84-5.08-13.66-7.01-1.64-17.67,1.51-23.2,6.13-.56,2.46,13.32,10.07,16.43,8.18l-3.28-4.94c-.36-1.52,1.41-1.12,2.15-.83,1.81.7,4.02,4.35,4.47,6.35l5.17-.61c.36-3.26-.65-6.7-3.23-8.84,3.99-2.93,6.41,5.05,6.57,8.22ZM181.59,631.61c-12.38-1.63-24.44-6.12-35.17-12.48-1.84,1.91-9.14,18.76-10.18,18.38-.07-.03.29-1.72-.9-1.25-17.63,7.57-5.98,17.8,3.18,26.24,7.99-8.93,21.25-13.57,33.21-12.77,2.1-7,6.44-12.12,9.86-18.12ZM70.48,628.33h-1.96v.64h1.64s.33-.64.33-.64ZM276.27,630.3l-34.84,5.25c-1.73,1.85.83,21.44.71,25.32s-4.12,15.81-2.03,18.41c1.09,1.35,17.12,6.27,17.75,5.58.78-10.49,8.48-20.71,18.76-23.64l-.35-30.91ZM127.02,637.54l-8.54-2.64c-1.05,2.83,11.08,5.3,8.54,2.64ZM405.13,837.34c-18.63-15.88-45.03-19.8-65.67-31.95-10.97-6.46-20.14-15.73-31.39-21.86-13.73-7.48-27.65-10.55-41.84-16.01-23.14-8.91-40.27-26.64-62.71-37.21-19.81-9.33-41.4-12.71-61.17-21-15.62-6.55-27.75-18.73-42.49-25.88-15.42-7.49-33.36-9.23-47.99-18.41-5.27-3.31-9.85-7.88-15.37-10.93-9.95-5.48-21.17-8.04-32.43-9.32v192.59h401.05ZM191.22,665.36c-1.2-1.43-9.87-6.86-11.6-7.19-6.94-1.29-25.52,7.3-29.55,13.78.53,3.34,19.87,8.47,23.64,6.98.29-3.01-.67-7.18-3.94-7.9l.98-1.94c3.37,1.87,5.98,5.09,5.59,9.19,14.02-.29,10.62-6.63,1.31-11.82,5.58-1.72,10.36,3.22,10.86,8.55,5.8-1.01,6.18-5.53,2.71-9.64ZM307.84,680.91c6.58-5.7-8.16-10.03-12.37-10.98-6.2-1.39-12.54-1.4-17.22,3.42-1.37,1.41-9.14,13.52-7.9,14.78,5.98.09,22.18,3.81,26.97.34,3.48-2.52-5.84-8.95-8.55-8.89,3.85-3.97,11.67,2.31,12.5,6.58l3.85-2.43c.46-1.83-3.11-5.48-4.55-6.41-2.08-1.33-6.3-1.26-6.54-3.64,4.86-.52,12.3,2.23,13.81,7.23ZM371.6,700.63c-3.93-1.18-8.05-3.15-11.62-5.16-2.34-1.32-12.12-8.3-13.22-8.54-1.15-.25-6.23,2.82-6.73,3.66-2.69,4.57.75,15.52,2.01,20.51,3.41-.03,6.38-1.81,9.69-2.41,7-1.27,18.04.34,19.87-8.06ZM337.41,692.74c-6.45,2.85-10.49,6.33-9.17,13.98.08.44,1.11.47,1.23.98.64,2.91.87,5.89,2.07,8.67l7.91-3.67c-1.57-6.52-3.8-13.21-2.03-19.96ZM480.08,705.89l-30.62,5.23c.69,6.43,2.71,12.94,3,19.43.13,2.82-1.16,13.31.01,14.45,1.64,1.59,16.6,4.79,17.75,3.62-.47-10.48,4.56-18.49,12.39-24.81l-2.53-17.92ZM370.95,718.37c-.41-2.57-1.13-9.14-4.23-9.23-10.17-.3-25.09,5.32-33.96,10.29l4.99,8.79c9.13-7.85,21.64-9.11,33.2-9.85ZM379.5,739.41c10.26-4.75-3.64-14.5-7.72-18.96-11.07,2.09-24.42,1.78-32.34,10.76,4.31,4.43,10.18,10.19,16.77,10.78,4.53.41-2.36-7.94-1.7-8.49,7.73-.3,3.76,13.59,13.14,8.16l-4.6-10.13c5.46-.89,6.78,5.72,7.94,9.8l5.14-1.33-4.87-9.79.66-1.96c4.35,2.26,7,6.18,7.57,11.16ZM472.19,748.61h10.19c1.87-5.88,3.53-11.5,7.8-16.19,1.6-1.76,8.78-4.77,3.73-6.51-12.72-4.4-20.84,12.11-21.73,22.71ZM509.68,744c1.03.62,4.25-2.62,2.97-3.92l-8.89-4.95c-.18-3.23,12.16,1.74,12.81,3.6,4.44-6.17-12.07-10.53-15.56-10.14-6.64.75-14.78,13.73-15.67,20.01,7.36.42,14.66-.45,21.69-2.64.15-4.12-3.35-3.52-5.8-4.4-1.06-.38-1.74.31-1.42-1.5,3.91-.13,8.64-.69,9.87,3.93Z"/>
    <rect x=".14" y="841.29" width="595" height=".66"/>
    <path d="M590.54,3.89v58.5c-.51.14-.8-.66-.99-.66h-10.52c-3.87,0-11.46,5.08-14.78,7.23-3.15-33.09-48.93-34.94-58.22-4.61-15.4-8.47-37-.26-35.81,19.07-9.79-3.08-26.23,2.25-24.84,14.61.5,4.42,4.93,8.39,9.39,8.39h135.77v153.15c-7.73.78-13.18,8.21-13.19,15.73l-4.28-.57c.27-2.11-1.49-8.09-.99-9.5.39-1.1,2.62,1.01,2.73-4.03.17-7.3-7.19-20.22-12.85-24.66-4.07-3.19-10.74-3.31-10.2-8.52,4.28,1.91,11.05,1.68,11.24-4.26.07-1.98-1.25-4.61-1.17-5.29.1-.8,2.84-2.37,3.04-5.33.1-1.45-1.55-14.73-2.08-16.21-4.98-13.95-32.13-18.14-37.99-3.94-.28.68-2.35,12.79-2.55,14.41-.68,5.47-.48,11.36-1.26,16.87,1.78,5.38,6.84,4.48,11.31,5.67l.36,1.67c-5.18,2.34-9.69,2.86-14.08,6.93-.63-5.01-12.69-7.25-13.42-7.98-.18-.18-1.2-4.6-1.17-4.85.04-.39,3.82-5.21,4.52-6.43.53-.92.33-2.73.6-3.01,1-1.02,6.75,0,7.64-5.17.63-3.66-.86-4.86-.93-7.15-.15-4.65,1.58-7.34-1.04-12.27-.27-.52-6.73-7.18-7.4-7.69-10.36-7.97-27.52-5.21-33.41,6.68.23,10.07-4.45,26.68,4.13,34.43,1.15,1.04,5.62,2.5,5.29,3.9l-12.07,6.86c-4.71-3.85-9.83-8.26-16.2-8.82-4.13-5.5.56-6.36,1.99-8.71.86-1.42,1.24-4.06,2.01-5.04,1.09-1.38,2.97-1.23,4.24-2.34,5.07-4.43-.18-11.82.88-17.36-4.89-14.16-17.08-22.7-32.27-15.98-11.24,4.98-8.66,12.85-9.76,23-.05.48-1.2.24-1.34,1.41-1.4,11.59,3.08,17.01,11.7,23.21.56.4,1.22-.08.84,1.47-6.68.75-14.03,5.97-18.08,11.18-1.82,2.34-7.73,13.62-7.5,16.15s3.01,1.87,3.27,2.67c.38,1.15-.23,4.37.13,6.31,1.05,5.59,4.18,8.58,9.69,9.72-1.65,7.2-3.67,14.37-4.95,21.66-.63,3.58-3.49,17-1.24,19.01,1.43,1.27,5.59,1.72,7.49,2.71-2.56,3.57-.05,2.81.05,4.22.22,3-.29,6.16,0,9.18l-20.42,4.33c5-18.09-9.04-28.83-23.87-34.97-2.18-.9-6.13-.85-7.9-1.96-2-1.25-1.92-4.77-4.35-5.18,4.2-5.39,6.11-9.79-.71-14.1-.26-1.11,2.21-2.12,2.61-3.95,2.89-13.28-15.93-5.29-22.95-8.24-.54-7.35-5.92-15.29-14.1-14.37-9.45,1.06-8.69,14.39-9.93,14.39-4.11-5.12-9.35-14.33-16.52-15.03-11.68-1.14-13.24,16.6-8.13,23.58-33.24-8.98-58.87-35.92-87.9-53.11-30.71-18.19-58.1-18.89-90.45-3.51-32.56-26.44-67.26-61.36-113.56-46.57V3.89h586.45ZM132.57,45.01c-16.69-23.2-57.26-13.85-60.11,14.75-25.76-13.15-53.55,32.49-15.47,35.52,41.98,3.33,87.82-3.34,130.22-.66,5.72-.54,13.33-1.98,14.12-8.88,1.57-13.66-17.67-19.03-27.62-13.49.49-21.07-21.59-26.64-37.48-17.09.74-4.82-1.25-6.79-3.67-10.14ZM349.91,94.6c-4.37-14.05-27.95-14.65-31.56,0,3.8,0,4.93-3.64,8.55-4.92,10.83-3.81,17.64,1.41,22.08,10.79,9.26-6.24,18.31-10.66,27.49-1.21,1.44,1.48,1.72,5.53,4.57,4.58,1.7-.57.09-3.89-.32-4.88-5.14-12.19-21.43-11.46-30.81-4.35ZM432.33,130.51c2.31,1.71,5.87,4.32,4.58-.95-2.53-10.33-26.12-9.55-29.16,1.19-3.15-1.06-4.12-4.04-7.42-5.38-8.6-3.5-23.57.53-23.17,11.32,1.9,2.71,5.24-4.89,7.61-6.24,3.67-2.09,11.77-2.25,15.58-.5,2.17,1,6.67,7.49,7.75,7.35,4.19-7.98,13.3-14.65,22.26-9.08,1.13.7,1.36,1.85,1.97,2.3ZM261.08,146.46c-7.28-2.05-13.32-3.19-20.52.18-12.61,5.91-16.56,24.19-.61,27.99,29.33-1.46,61.56,2.52,90.55.15,10.3-.84,22.68-4.54,15.35-17.28-5.75-9.99-20.75-9.42-30.15-5.99-.88-32.87-47.42-35.98-54.61-5.04Z" fill="#fff"/>
    <path d="M4.08,467.94l16.81,1.27c.83,22.23-1.09,47.18,21.24,59.65-1.79,5.56-3.32,11.31-5.34,16.8-1.13,3.07-6.42,12.68-6.46,14.62-.1,5,7.46,13.14,11.87,15.13.09,1.4-19.72,15.26-19.59,19.89,4.43,22.73,23.95,42.49,48.66,36.11,8.05-2.08,12.72-9.35,7.38-16.83-1.5-2.1-13.24-12.13-13.29-13.52l9.08-11.17c2.37-1.25,7.46,1.19,10.26,1.56,10.17,1.36,20.29,1.36,30.54,1.68,2.12,8.28,3.33,17.81,2.62,26.36-.8,9.54-8.26,18.87,6.54,22-7.1,9.07-2.49,14.67,4.27,22.35,12.75,14.48,32.15,25.84,52.14,21.22,9.69-2.24,18.15-5.83,14.69-17.05-2.99-9.71-15.08-10.41-20.38-18.46.75-6.64,5.53-10.96,8.59-16.45,18.25,1.73,36.57,4.03,55.08,3.13-2.4,8.25,1.05,17.86.61,25.85-.22,3.94-2.68,7.82-3.21,10.11-.33,1.46-1.56,9.28-1.38,10.39.44,2.77,5.77,4.94,8.44,6.04,12.69,5.21,40.26,10.88,53.43,7.77,4.87-1.15,17.55-7.66,17.77-13.19.08-2.01-2.83-8.81-4.31-10.18-2.55-2.36-11.72-4.41-15.6-6.09-4.71-2.04-9.03-6.14-14.89-6.48l-.12-31.02c15.64-2.51,13.12-12.77,13.18-25.42,8.17,2.74,18.69,3.99,26.95.98,7.79-2.83,3.05-13.71-.76-18.3-1.23-1.48-4.49-2.92-5.02-4.18-1.2-2.86-3.03-13.88-3.87-17.82-2.08-9.76-6.09-25.12-3.55-33.5.38-1.24.1-3.76,1.04-4.75,1.38-1.48,8.39.75,10.61,1.23,3.04.66,25.15,6.87,25.83,8.04-6.38,16.44-13.47,36.84-11.77,54.81.49,5.2,3.74,7.92,3.87,9.17.23,2.23-2.33,10.97-2.55,14.52-.28,4.33-.42,16.8,3.55,19.43,1.78,1.18,4.26.21,4.91.68.19.14.24,2.61,2.08,4.17s4.26,1.55,6.53,1.99c-3.28,7.14-5.79,14.69-9.02,21.85-1.46,3.24-5.56,7.28-5.97,11.86-.57,6.31,8,8.67,7.72,10.27-3.26,4.86-10.62,6.37-14.87,10.47-10.48,10.12-6.88,21.56-.18,32.8,8.61,14.44,21.22,22.5,38.34,21.45,9.76-.6,19.75-2.94,18.86-14.69-.63-8.38-7.34-10.23-10.74-16.29-2.6-4.63-5.71-12.33-.14-15.67,23.23,7.65,47.57,9.54,71.98,8.62,1.09,9.03,4.18,18.03,3.28,27.25-.85,8.69-6.27,11.88,5.79,15.93,13.09,4.4,40.01,3.85,52.88-1.31,4.31-1.73,14.83-8.71,14.32-13.88-.06-.62-3.92-7.15-4.43-7.65-4.25-4.2-27.01-8.56-33.7-9.18l-2.54-17.37c11.4-6.2,17.2-2.13,16.33-17.78-1.42-25.49-13.13-61.32-19.64-86.33-1.06-4.07-3.24-11.44-3.73-15.22-.14-1.06-.46-1.17.7-1.98,5.29,4.45,23.04,17.08,29.56,16.4,1.7-.18,4.48-3.22,5.8-3.13,3.89.27,17.22,15.55,25.17,16.91,13.48,2.3,23.65,6.6,36.23,12.42,6.01,2.78,12.55,5.82,17.96,9.65v201.46h-179.81c-20.26-17.91-49.66-21.69-71.69-35.47-10.57-6.61-19.51-15.54-30.96-21.63-12.62-6.72-24.74-9.43-37.71-14.23-25.12-9.29-42.27-27.15-66.19-38.34-21.08-9.86-44.92-13.37-65.57-23.18-13.71-6.51-25.52-17.96-39.4-24.36-11.63-5.36-24.74-7.22-36.4-12.25s-20.55-15-32.63-19.96c-8-3.29-17.48-5.08-26.09-5.79v-174.18ZM21.83,528.42c-2.08-.47-4.84-1.63-6.56.32l5.51,1.52,1.05-1.84ZM320.01,550.76l-.36,1.65c4.27,3.88,5.86-1.27.36-1.65ZM100.73,625.03c-.14-3.52-5.74-3.63-4.27,0h4.27ZM533.33,634.9c-4.92-.41-10.64,14.8-8.54,17.09l2.03-.39,6.51-16.7ZM522.16,651.98c.78-3.15-5.46-15.34-8.86-14.46-2.81.73.83,2.84,1.2,3.46,1.23,2.02,4.56,9.4,5.39,10.31s1.15.78,2.27.68ZM537.04,646.49c.36-.46,4.03-4.37,1.89-4.35-2.98.17-9.56,7.38-7.9,9.85s3.32-3.14,3.98-3.94c.63-.76,1.64-1.06,2.03-1.56ZM307.17,648.03c1.36.22,9.77,2.38,9.84.34.06-1.77-10.01-4.3-9.84-.34ZM541.89,688.79c1.18.32,10.56,2.85,10.5.99-.65-3.38-12.58-3.93-10.5-.99ZM216.77,707.86h9.53c1.88-3.52-12.39-4.04-9.53,0ZM530.52,705.37c-1.29.3-2.24,1.21-3.09,2.16l1.07.89,7.45-1.54c-1.27-1.89-3.34-1.98-5.43-1.5ZM242.74,717.72c.79-4.26-8.66-3.85-10.5-2.28-1.27,1.09-.13,2.28.31,2.28h10.19ZM407.02,769.72c-.7-.96-15.65-3.09-16.34.91l16.42,1.64-.08-2.55ZM345.78,771.1c-.79.24-1.24.95-1.77,1.5,9.04,5.99,10.13-4.03,1.77-1.5ZM548.06,791.74c-1.01-1.71-1.56-3.72-3.23-5-1.73-.37-.99,2.75-.82,3.46.85,3.57,4.07,8.78,5.21,11.91s1.34,7.83,2.88,10.92c.38.76-.05,1.61,1.28,1.3l12.83-27.6c-6.67,2.67-9.78,11.57-12.83,17.74l-3.68-10.8c0-1.06-1.43-1.58-1.64-1.93ZM427.49,792.66c-1.65,2.48,8.14,2.74,8.54.97.59-2.6-7.02-1.66-8.54-.97ZM546.48,814.33c-.3-6.65-5.71-15.23-13.14-15.11.06,2.97,3.92,3.51,5.27,4.91,1.11,1.16,6.85,11.44,7.87,10.2ZM570.81,799.88c-5.54-.07-8.11,7.83-7.88,12.48,1.48.32,1.46-.76,1.99-1.61.59-.94,6.35-10.46,5.89-10.87Z" fill="#fff"/>
    <path d="M405.13,837.34H4.08v-192.59c11.25,1.28,22.47,3.84,32.43,9.32,5.52,3.04,10.1,7.62,15.37,10.93,14.62,9.18,32.56,10.92,47.99,18.41,14.74,7.15,26.87,19.34,42.49,25.88,19.78,8.29,41.37,11.67,61.17,21,22.45,10.58,39.57,28.3,62.71,37.21,14.19,5.47,28.11,8.53,41.84,16.01,11.25,6.13,20.42,15.41,31.39,21.86,20.64,12.15,47.04,16.07,65.67,31.95ZM39.83,697.76c-.36-.74-7.09-14.89-6.72-8.1.04.75,4.11,8.49,4.82,10.33.83,2.15,2.37,5.53,2.9,7.09.45,1.33,2.99,14.09,3.69,13.92,2.9-4.84,3.68-10.76,6.71-15.58.67-1.06,8.62-9.01,7.43-10.05-6.94,1.2-10.55,9.29-13.47,15.1-1.94-3.32-2.15-7.13-3.7-10.79-.55-1.29-1.51-1.65-1.65-1.93ZM36.29,719.68c.97-8.28-5.91-16.67-13.8-18.4-1.48,1.48,7.12,7.81,8.17,9.22,1.81,2.41,2.63,5.4,4.02,7.86.47.84-.19,1.68,1.61,1.32ZM64.57,707.21c-4.14-1.71-9.43,4.55-10.56,8.16-.88,2.82-1.81,5.95,1.97,4.93l2.26-5.95,6.33-7.14ZM103.36,757.16c-10.16,14.6,4.58,17.06,16.08,17.76,7.31.45,33.23,1.42,29.98-10.9-3.55-13.43-24.11-17.15-35.75-13.52-4.35-11.94-27.2-15.9-33.6-4.48-7.41,13.2,15.82,12.11,23.29,11.14ZM202.41,795.08c1.58-6.29,3.47-12.83,4.95-19.09.76-3.23-1.97-1.13-3.03.28-5.13,6.82-5.53,17.36-6.3,25.58-2.92-7.37-4.19-16.85-11.82-21.03l10.19,25.01h3.28c1.3-1.81,1.14-7.84,1.68-10.07.12-.48,1.01-.51,1.05-.68ZM48.37,785c-5.54,5.22-4.92,12.38,2.92,14.69,7.19,2.12,38.82,2.91,29.42-11.67-5.91-9.16-24.4-10.5-32.34-3.03ZM213.37,792.2l6.49-7.65-.45-1.74c-7.5,3.6-14.92,13.93-11.83,22.32l5.79-12.93ZM189.48,805.13c-.13-6.6-6.41-13.95-13.14-14.45-.56,3.07,2.46,2.83,3.97,4.24,3.58,3.35,5.48,7.79,9.17,10.21Z" fill="#fff"/>
    <path d="M590.54,318.73v312.87l-45.98-20.42,1.28-2.91c2.46-1.2,5.37,1.02,7.6-2.26,1.95-2.87.18-5.37.57-6,.68-1.09,4.76-.49,5.29-4.46.75-5.68-8.37-10.65-12.14-13.59-.3-1.44,4.14-2.06,4.97-4.9,2.64-8.98-18.45-9.47-22.05-12.2-.78-.59-.72-2.23-1.98-3.27-3.83-3.17-11.09-5.6-16.13-10.17-18.22-16.51-21.23-45.05-41.07-61.48-2.79-2.31-6.16-3.16-8.54-5.91,17.46-9.4,23.21-26.3,23.71-45.35.07-2.59-1.55-7.01-.74-9.75.13-.44,5.72-3.97,6.32-6.29,1.13-4.41-.5-9.26-.06-12.25.18-1.26,3.16-4.54,3.58-7.26.72-4.6-.33-10.02-3.34-13.65-1.91-2.3-9.11-5.87-9.43-6.34-.59-.86-.92-4.97-2.08-7.05-3.51-6.25-13.81-11.01-20.94-10.73-1.98.08-5.17,1.51-6.42,1.23-.46-.11-5.53-4.55-7.7-5.46-8.53-3.57-17.09-2.76-25.42.85-1.57.68-5.55,3.89-5.9,3.95-.54.08-4.08-1.44-6.24-1.46-5.41-.04-12.79,2.34-16.59,6.25-2.05,2.11-4.7,8.22-5.93,9.17-3.16,2.44-7.65,2.74-11.47,7.61-6.04,7.71-2.03,12.01-3.52,17.49-.37,1.37-3.73,4.49-4.51,6.69-2.9,8.16,1.33,11.31,1.39,17.16.07,6.17-2.85,9.58.13,17.54,1.27,3.38,5.37,6.09,5.63,6.86,1.01,2.95-.8,7.59,2.29,11.19,1.76,2.04,6.43,2.99,7.89,4.1,3.91,2.95,5.58,8.37,12.77,10.41,1.46.41,4.16-.53,4.77.8l-14.11,5.93c-1.88-5.72-4.9-10.38-8.61-15.07-1.49-1.89-8.8-8.26-9.41-9.37-.16-.3.35-4.23-.89-6.63-3.21-6.24-8.78-3.55-13.83-4.58-7.29-1.48-17.92-4.2-24.95-6.61-2.38-.82-4.82-1.76-7.11-2.78-.41-1.76,7.39-7.53,8.91-9.47,2.38-3.06,4.29-7.02,5.89-10.57,10.5-23.24,10.84-47.77,10.21-72.95,12.15,4.46,30.66,6.85,42.17-.23,4.32-2.65,7.87-9.15,11.14-10.55,1.69-.73,20.87-4.64,21.95-4.34l.27,3.89c-7.49.9-18.12,9.83-4.8,12.5,7.44,1.49,13.57-.66,19.69-.26,3.43.23,8.04,2.07,12.47,2.14,3.86.06,10.71-1.78,13.71-1.63,13.54.7,27.63,3.54,41.5,3.07,8.02-.27,7.98-.2,15.81.66,5.18.57,10.5-1.31,14.37-1.08,2.27.13,6.22,2.05,9.38,2.32,5.67.48,12.86-.2,17.67-3.19l.29-27.17c.29-.99,3.76-1.08,4.65-2.07,1-1.1.48-2.97.64-2.97h23.01ZM574.75,354.89c-5.52-.1-5.76,17.62-4.59,18.4,1.01-.36,1.63-.51,2.09-1.57,1.68-3.86,1.78-12.39,2.5-16.83ZM584.61,358.18c-5.03-2.11-10.92,15.14-7.56,15.1,1.87-3.3,2.87-7.05,4.79-10.34.94-1.61,3.36-1.99,2.77-4.76ZM564.02,363.64c-.35-.41-2.23-1.62-2.73-1.53l-.22,1.53,5.46,9.65c2.19-.9-1.54-8.51-2.51-9.64ZM556.86,394.46c-8.27.48-14.12,4.52-18.06,11.61-5.48-1.13-19.37-.53-19.93,7.07-.5,6.73,15.45,6.73,19.88,6,2.73-.45,4.44-2.27,6.75-2.49,6.8-.65,33.92,6.45,32.49-7.45-.99-9.64-12.37-15.24-21.13-14.73ZM531.36,455.46c-1.69-.33-1.41.06-2.17.8-1.56,1.51-9.02,14.36-4.73,14.95l2.16-1.77,4.74-13.98ZM519.38,457.59c-.59-.7-1.93-.99-2.47.18l2.3,14.13c2.89.48,1.74-12.45.17-14.31ZM513.99,471.53c.75.69,1.96,3.18,2.85.59,1.13-3.25-5.21-9.93-8.48-10.09-.41.38,4.81,8.74,5.63,9.5ZM558.97,506.07c-5.34.99-8.4,21.76-6.56,23.66l1.33-.95,5.23-22.7ZM548.09,523.53c-1.67-3.81-3.78-7.29-7.86-8.91l-.45,1.74c3.66,4.16,7.01,8.88,7.41,14.63,5.1,1.09,1.95-5.07.9-7.46ZM568.84,515.27c-4.28-.34-13.01,12.11-10.51,15.11l2.44-.85,8.07-14.27Z" fill="#fff"/>
    <path d="M123.32,222.53c-.88-.86-1.71-2.13-2.86-3.04,30.11-13.7,55.47-13.52,84.35,2.75,25.39,14.3,57.09,45.44,83.99,53.41,2.19.65,8.04.92,8.41,1.13.42.24,3.93,6.82,5.99,7.45-10.94,11.74-10.34,31.24-.23,43.37l-4.02,26.66-20.42-1.3c-.94-6.4-.87-12.93-1.69-19.34-.66-5.07-3.61-16.33-3.26-20.49.2-2.41,3.19-2.85,3.85-6.06.93-4.46.34-9.97-2.48-13.64-1.55-2.03-4.38-3.18-5.54-4.98-3-4.66-3.02-8.76-8.24-13.46-25.11-22.58-85.49-13.6-90.71,23.79-.25,1.78.86,3.03.32,5.49-1.29,5.86-6.57,4.6-4.81,15.93.63,4.03,4.46,5.49,5,7.54,1.02,3.86-4.98,11.09-4.54,15.26l-5.92-.25c-1.63-12.96-1.29-26.5-3.95-39.31-.11-.51-1.1-.51-1.21-1.01-.54-2.49-4-14.81-3.95-15.61.27-4.54,6.14-5.83,2.69-15.22-1.78-4.84-4.32-4.69-6.35-7.45-3.95-5.38-5.39-11.09-11.51-16.1-24.77-20.25-76.22-9.37-84.75,23.21-.68,2.62.02,5.56-.26,6.94-.43,2.08-4.25,5.13-4.91,8.8-1.1,6.14.72,12.56,6.42,15.62l-7.57,14.12c-2.99-3.47-7.51-5.53-12.17-5.24,1.89-11.88-6.98-15.8-17.08-11.83-.72-6.42-5.06-10.99-11.85-9.86l.04-116.31c51.79-16.31,89.79,30.01,125.88,58.45,4.46,3.52,17.33,14.02,21.63,15.84,1.01.43,1.74,1.23,2.69-.05-9.09-9.46-21.48-15.94-31-25.21ZM63.25,214.22c1.77-1.7-19.32-16.17-21.07-16.76-1.07-.36-1.62.17-2.58.34l23.66,16.42ZM40.61,221.74c-1.68-1.79-13.61-12.51-15.48-10.8,1.48,2.62,15.84,15.67,17.41,15.78,3.3.24-1.36-4.38-1.93-4.99Z" fill="#fff"/>
    <path d="M190.4,391.44c11.75,15.24,18.67,26.1,40.81,27.22,20.13,1.02,27.02-12.01,37.95-25.55,2.7-1.37,13.04,9.77,14.99,12.07,8.79,10.4,15.67,24.58,27.03,32.8,10.33,7.47,24.44,10.32,36.76,12.88l-7.83,11.03c-3.71,10.86-7.75,24.08-2.02,34.96-20.72-2.85-38.85-14.9-55.94-26.06-.97-8.64-.46-17.42-1.35-26.1-.37-3.6-2.22-17.79-3.36-20.31-.32-.7-1.01-1.66-1.81-1.14-1.15.75,2.38,23.75,2.61,27.29.48,7.33,1.82,26.63-.83,32.67-2.38,5.43-19.58,8.17-25.22,8.96-18.43,2.6-38.66,1.3-56.9-2.09-2.99-.56-19.66-4.15-20.92-5.38-1.47-1.44,1.04-17.07,1.62-20.07,2.11-10.83,8.48-21.1,10.72-30.7.21-.89.76-2.45-.82-2.14-3.03,3.86-4.24,8.55-6.07,12.97-5.23,12.6-8.62,26.47-9.38,40.61-.45,8.44,1.21,16.9-.15,25.15-12.46,5.39-26.8,5.46-39.54.86-3.95-14.81-3.86-31.82-1.64-46.95,3.43-23.4,18.83-49.65,37.71-64.18,3-2.31,17.18-11.68,20.05-12.23,2.36-.45,2.44,2,3.54,3.43Z" fill="#fff"/>
    <path d="M277.58,503.43c1.96,8.29,3.09,16.75,4.67,25.12,3.47,18.45,6.43,38.52,7.19,58.01.19,4.9.7,31.95-.37,34.52-2.61,6.3-41.33,11.4-48.65,11.83-35.77,2.11-81.41-2.18-107.99-28.38l-.12-2.01c8.14-14.06,14.88-29.06,17.73-45.18,4.5,4.73,8.29-.7,10.93-1.12,3.24-.52,7.94,2.75,10.15-3.1,1.73-4.61-1.52-9.79-.63-12.42.62-1.84,6.91-2.3,7.17-10.01.24-7.25-5.71-13.23-5.95-16.45-.1-1.38,3.79-8.13,1.99-11.45,32.84,10.85,70.92,11.05,103.87.65ZM260.49,525.79c-.72-.81-1.61.26-2.17.8-2.8,2.7-6.35,10.94-8.99,14.47-5.18,6.94-14.64,17.27-21.4,22.83-4.49,3.7-13.45,8-16.98,11.28-.67.62-1.6.66-.43,1.55,2.19,1.19,13.99-6.41,16.28-8.05,11.75-8.45,27.13-27.17,33.24-40.28.33-.7.9-2.1.45-2.61Z" fill="#fff"/>
    <path d="M94.81,466.63c-.17-2.21,3.98-1.78,5.72-2.49,5.75-2.35,15.69-7.26,15.83-14.45.04-2.25-1.72-3.33-1.71-3.77.02-.9,3.96-2.47,2-7.38-1.21-3.04-5.13-3.28-5.33-3.54-.68-.91.17-4.5-4.23-6.01-2.9-1-6.98,1.27-9.32.87-1.89-.32-1.79-2.43-2.97-3-5.64-2.7-19.2,5.27-23.44,9.46l-10.79-2.19c-1.75-1.31,1.87-22.01,2.72-25.49.06-.24,3.7-3.98.92-4.45-2.14-.36-3.78,6.66-4.21,8.26-1.91,6.94-2.16,14.25-3.34,21.31-3.13-.79-9.96-2.9-12.89-2.59-.86.09-1.77.66-1.56,1.59.39,1.69,24.22,5.36,27.61,5.6-4.31,5.45-5.43,26.55.95,29.61,1.45.69,7.55.31,6.62,1.94-16.83,8.38-52.62-1.45-57.88-21.03-7.99-29.75,20.72-75.61,52.01-80.18l1.25.62c3.03,10.63,18.07,20.23,28.93,20.43,10.28.19,24.14-5.92,23.63-17.83,3.08-4.49,17.56,6.93,20.11,9.55,3.59,3.69,12.63,18.65,11.57,23.39-.24,1.09-13.4,13.95-14.55,17.05l-4.6-21.02c-.48.55-1.34.98-1.52,1.76-.73,3.2,3.63,18.27,3.04,24.01-.39,3.82-5.83,11.13-7.21,14.57-3.24,8.15-4.06,17.08-6.81,25.37h-30.57Z" fill="#fff"/>
    <path d="M125.06,481.08c.56,7.72-.79,23.25,2.47,30.07.77,1.61,2.63,2,2.81,2.62.43,1.51-1.48,11.52-1.36,15,.35,10.22,4.76,30.08,18.43,27.91-1.85,10.63-6.21,20.16-10.19,30.23-23.54,5.69-50.59,4.71-73.42-3.51-7.34-2.64-32.07-14.16-30.68-23.6l7.87-16.54,3.52-13.59c21.47,2.72,35.25-.68,41.81-22.43.13-.44,1.09-.48,1.22-1.01,2.21-8.88-2.17-17.63-2.6-26.46l40.11,1.31Z" fill="#fff"/>
    <path d="M472.05,403.01c.36.18,2.41,4.81,4.06,6.12,2.08,1.65,6.07,1.67,6.29,3.52-2.7,7.97.82,16.62.98,24.7.39,18.77-6.99,37.58-25.21,45.18-27.15,11.31-59.69-4.22-70.77-30.72-4.57.65-8.15.57-12.67-1.8-8.62-4.52-8.69-22.78,1.95-24.63,6.82-1.19,9.27,2.04,14.2,5.69,6.93-4.04,8.1-9.39,6.37-17,6.94-.3,8.56-6.17,11.82-10.9,6.39,1.23,15.12-.49,17.1-7.53,8.57,6.26,16.6,4.11,23.97-2.63,3.04,5.87,9.2,10.09,15.83,10.53,1.82.12,4.44-1.35,6.07-.52ZM431.33,406.26c-2.58-1.71-2.79,1.95-3.83,2.87-4.82,4.27-11.15,2.65-15.78,6.56,3.04,5.73,25.91-5.25,19.61-9.43ZM474.82,419.3c2.65-2.62-9.83-6.83-11.79-8.25-1.65-1.2-2.14-3.03-3.73-4.19l-1.92,1.3c-2.09,4.58,13.44,12.32,17.45,11.15ZM425.98,438.17c2.59-2.02,3.5-10.29-.5-11.97-5.94-2.27-8.96,7.54-6.19,11.49,1.43,1.67,4.94,1.85,6.69.48ZM464.79,427.3c-6.43,1.12-5.91,13.82,1.09,13.66,7.51-.17,6.92-15.06-1.09-13.66ZM456.85,440.54l-7.34-9.39c-3.38,5.2,9.17,13.15,2.55,18.3-2.52,1.96-13.23-1.07-9.28,2.56,5.26,4.83,19.55-1.64,14.07-11.47ZM452.47,469.25c-2.55-11.95-21.61-9.04-26.3.32,7.02-1.31,10.79-6.89,19.1-4.62,1.52.42,6.23,5.36,7.2,4.29Z" fill="#fff"/>
    <path d="M455.43,103.8c-.71-.09-5.21-1.36-5.57-1.66-7-14.02,12.87-20.36,22.98-14.11,1.11-3.05-.23-5.55.08-8.8,1.16-12.13,14.98-17.42,25.72-14.69,4.08,1.04,5.81,3.64,9.36,5.08,1.05-.31,1.42-6.13,2.01-7.86,2.48-7.25,10.04-12.94,17.26-14.95,19.79-5.52,34.39,8.06,34.33,27.42l2.53-.11c4.46-8.44,17.39-11.06,26.39-9.1v38.78h-135.11Z" fill="#fff"/>
    <path d="M317.29,266.55c1.97,3.41,3.5,7.03,5.33,10.76,2.52-2.18-1.07-6.21-.37-8.75,13.64-3.92,28.11,2.98,42.08.25,1.83,7.76-7.07,8.17-12.45,9.49,3.91,4.05,7.58-.91,12.46,2.67,7.45,5.47-2.99,9.64-9.63,6.99-.6-.24-7.18-5.6-6.76-2.45.95,7,15.43,4.62,17.72,10.54-9.04,3.07-16.08,12.91-18.08,22-.81,3.68-.45,8.74-1.42,11.7-.57,1.72-7.35,7.71-8.09,10.38l-10.52-3c-2.02,1.89,6.79,4.93,7.59,5.91.81,1.35-4.53,10.16-5.66,11.98-6.43,10.35-19.78,27.78-30.66,33.26-7.8,3.92-18.65,4.79-26.49,1.11l4.57-10.53c4.94-.56,8.44.93,13.36-1.11,13.8-5.75,11.83-34.89,14.93-47.19l3.94,1.97c.69-3.35-3.34-5.17-4.76-7.37-5.64-8.75-7.89-17.67-5.31-28,.39-1.57,3.83-9.49,4.78-10.34,3.14-2.76,5.11,2.29,7.91-.63-12.27-3.41-20.75-24.81-10.52-33.59,7.56.06,12.7,8.15,16.05,13.94ZM304.54,262.87l9.53,16.41c2.88-.07-1.74-9.65-2.41-10.72s-5.66-7.14-7.12-5.69ZM337.23,299.12c-4.75.69-5.8,11.93.52,11.77,7.92-.21,6.62-12.8-.52-11.77Z" fill="#fff"/>
    <path d="M274.97,352.92c1.59,2.01,1.37,5.76,1.29,8.2-1.02,29.26-17.7,48.13-48.3,45.03-12.46-1.27-40.51-15.44-40.38-29.79.06-6.06,2.86-14.34,3.93-19.79.23-1.17-.39-5.2-.05-5.62,2.74.96,3.95,4.07,6.77,5.39,10.06,4.69,14.19-5.84,23.81-6.69,9.38-.83,8.58,5.95,17.18,6.3,10.31.42,11.61-8.45,22.36-3.14,5.06,2.5,8.5,9.21,13.38.11ZM250.63,362.77c-11.47,3.8-20.16-1.06-30.9-2.63-2.02,21.84,29.34,23.21,30.9,2.63Z" fill="#fff"/>
    <path d="M271.23,321.83c.03.15.98.2,1.06.66,1.11,6.05,5.27,30.11-3.08,31.65-.89.16-11.96-7.49-15.21-6.59.58-6.88-1.11-11.5-4.7-17.14-.45-.71-8.97-11.66-6.93-5.09,1.86,6,8.58,11.13,8.93,18.07.41,8.12-10.54,11.33-16.71,8.11-1.65-.86-3.31-3.94-4.82-4.38s-8.54-.37-10.38-.14c-8.42,1.06-15.13,13.13-23.03,3.96-8.63-10.03-1.63-28.94.14-40.58,17.65-11.34,45.18-12.91,64.77-5.9,11.26,4.03,7.87,7.12,9.95,17.36ZM222.82,306.45c-3.68-2.8-14.6,1.29-15.93,6.35-2.82,10.71,6.24,1.26,9.63-.23,2.43-1.07,8.07-.64,7.69-3.86-.43-.61-.87-1.87-1.39-2.26ZM249.03,309.78c3.31,3.84,5.05,1.93,9.31,3.56,1.93.74,6.83,6.12,7.98,2.99,2.23-6.1-9.43-11.81-14.54-10.59-.82.2-3.41,2.66-3.76,3.16-.48.68.82.66,1.02.89ZM260.31,324.83c-2.86-3.67-9.26-1.84-8.8,4.66.77,10.77,14.74,2.96,8.8-4.66ZM216.88,324.11c-3.49,1.26-2.45,13.66,4.83,10.08,3.98-4.09,1.86-12.48-4.83-10.08Z" fill="#fff"/>
    <path d="M447.21,580.34l1.27,127.48-32.83.03c2.13-10.72,3.59-21.56,5.32-32.35s3.98-22.42,5.19-33.72c2.16-20.14,3.41-40.53,3.29-60.79l17.76-.66Z" fill="#fff"/>
    <path d="M426.83,580.99c-.27,24.64-1.42,49.54-4.56,73.98-.15,1.2-1.26.91-1.33,1.43-2.2,16.61-3.89,33.28-7.39,49.68l-.95,1.03-29.17-5.18c1.04-2.91,1.62-5.97,2.54-8.93,8.27-26.59,14.66-54.52,19.05-82.21,1.62-10.25,3.19-20.77,3.4-31.11l18.41,1.31Z" fill="#fff"/>
    <path d="M343.9,346.43c-.25,9.84.64,20.03.11,29.84-.71,13.24-5.57,36.65-12.41,48.06-3.08,5.14-8.49,9.49-11.95,14.39l-1.33.06c-14.14-8.51-22.19-23.6-32.21-36.22l-8.52-8.89c10.68,2.17,21.97-1.46,30.46-8,6.29-4.85,16.96-18.57,21.48-25.38,1.59-2.39,7.19-13.99,8.18-14.67,1.74-1.21,4.29.39,6.19.81Z" fill="#fff"/>
    <path d="M143.75,288.89c2.91,8.79,4.14,18.54,4.95,28.17l-5.94,9.53c-4.08-2.32-8.17-5.21-13.1-5.24,5.91-9.51-5.09-19.52-10.85-26.27-4.56,0,5.34,11.07,5.85,11.88,3.38,5.4,6.63,10.73-.75,14.9-6.21,3.51-6.74.76-11.07.2-9.04-1.17-17.2,2.08-23.6,8.22-6.09-2.69-10.45-8.33-15.51-12.01-.57-.91.33-13.6.64-15.68.18-1.19,1.22-.9,1.31-1.44.62-3.52,1.23-13.35,3.36-15.58,18.89-9.18,41.62-10.76,61.74-4.61,1.59,1.19,2.23,5.79,2.94,7.92ZM128.16,282.06c-2.74.6-4.46,3.63-2.16,5.82,1.35,1.29,6.47,1.52,8.72,2.45,1.72.71,3.83,4.8,6.17,1.84,3.92-4.96-7.4-11.27-12.73-10.11ZM103.81,285.41c-5.5-6.69-23.84,2.22-18.57,9.7,1.92,2.72,7.57-3.67,10.03-4.5,2.73-.92,12.57-.29,8.53-5.2ZM132.75,298.48c-2.04.64-2.9,4.07-2.31,5.96.57,2.26,2.44,3.48,4.71,3.62,5-2.43,3.63-11.47-2.4-9.59ZM96.99,308c6.62,4.8,7.67-7.89,3.27-8.87-5.24-.92-6.39,6.61-3.27,8.87Z" fill="#fff"/>
    <path d="M467.15,607.1c.02.13.99.2,1.07.66,5.04,31.2,8.14,62.85,9.93,94.43-8.54,3.45-17.88,4.43-26.99,5.67l-1.36-127.76,13.56-1.76c1.25,9.56,2.24,19.27,3.79,28.77Z" fill="#fff"/>
    <path d="M4.08,346.34l30.61-1.33c-3.49,13.63-6.3,29.4.72,42.41-2.86,4.66-6.66,8.67-9.33,13.46-7.22,12.98-15.58,36.41-9.46,50.76.47,1.09,4.05,5.02,4.4,6.26.71,2.49-.12,5.67-.85,8.1l-16.1-1.34v-118.31Z" fill="#fff"/>
    <path d="M406.44,579.04c-1.14,17.5-3.89,34.9-7.26,52.08-1.58,8.04-4.01,18.28-6.07,26.91-3.48,14.57-7.74,28.21-11.67,42.57-7.39-.8-13.77-5.17-20.37-8.24-.33-1.7,2.9-5.79,3.4-7.12,5.63-15.14,12.18-35.12,16.3-50.72,4.94-18.74,8.45-37.75,10.49-57.08l15.19,1.6Z" fill="#fff"/>
    <path d="M364.1,552.47c-.06.16-.85.35-1.14,1.18-5.15,14.82-6.12,32.09-5.83,47.72-4.42-.2-19.71-3.08-21.35-7.25-.44-1.13-.91-7.72-.93-9.43-.19-13.74,4.33-29.48,9.47-41.81,7.05-16.92,17.7-32.45,31.52-44.7,1.88.41,7.89,16.22,7.49,18.57-.49,2.86-10.51,15.97-12.74,20.18-2.48,4.69-4.62,10.55-6.49,15.55Z" fill="#fff"/>
    <path d="M511.62,274.06c3.64,13.67,6.79,28.76,4.46,43.2-16.91,3.29-34.35,2.79-51.09-1.17,1.07-6.76.9-13.79,1.98-20.54.08-.49,1.17-.45,1.25-.95,1.24-7.29,1.75-14.7,4.06-21.79,13,1.79,26.19,2.82,39.34,1.25Z" fill="#fff"/>
    <path d="M73.77,288.5c-5.76,23.12.22,56.38-17.72,74.63-2.44,2.49-12.9,7.79-13.19,8.51-.1.25-.22,1.67.36,1.65,11.11-1.77,20.63-12.71,23.99-23.02,1.55-.36,1.07.28,1.47.85,3.59,4.98,4.48,8.64,3.74,14.89-13.9,1.29-25.26,9.97-35.13,19.08-.67-.03-2.25-5.06-2.5-6.03-4.58-17.94,4.68-41.87,11.92-58.15,6.1-13.72,12.19-26.44,27.07-32.42Z" fill="#fff"/>
    <path d="M301.85,486.42c-.79,5.17-.96,11.46-.58,16.68.45,6.09,3.49,14.33,3.33,19.73-.1,3.27-2.23,6.59-2.61,9.93-1.14,10.03,2.54,20.33,4.58,29.48.66,2.94,4.71,18.42,4.56,19.72-.48,4.05-15.59,5.5-19.08,4.95-.59-15.44-1.92-30.94-4.03-46.25-2.83-20.48-11.17-41.17-6.78-60.86.27-1.22.18-5.89.62-5.94l20,12.55Z" fill="#fff"/>
    <path d="M398.16,319.14c.13.25,1.04.4,1.26,1.05,2.26,6.69-2.16,18.81-10.07,19.57-1.63-8.3,3.52-13.83,5.25-21.03-3.93-1.48-4.26,6.57-7.55,6.57s-7.16-7.27-10.85-6.57c-1.72,1.61,8.06,9.24,9.89,9.65l-.69,12.04c-8.63,1.22-12.67-3.95-17.1-10.2-2.77.35-.68,3.56.13,5.13,3.77,7.32,11.96,9.19,19.59,8.36-5.71,5.49-26.74,6.87-33.08,3.16-.24-.14-3.47-4.02-3.59-4.27-5.22-10.99-.37-37.38,11.51-42.79,10.22-4.65,30.54,10.35,35.28,19.32Z" fill="#fff"/>
    <path d="M387.15,593.94c-1.1,6.18-3.08,14.6-4.56,21.38-5.69,26.1-14.54,51.08-23.81,76.1l-19.16-13.37c-4.06-3.99.78-7.31,2.12-10.21,1.8-3.89,10.3-25.56,12.09-26.69,1.37-.86,3.61-.2,5.96-1.95,4.01-2.98,5.7-12.18,6.55-16.79,15.9,9.37,12.98-12.45,8.54-20.7,5.5-2.47,2.95-11.74,3.27-17.12.22-3.69.92-7.78,1.35-11.48l9.78,3.72c-1.02,5.66-1.12,11.45-2.13,17.11Z" fill="#fff"/>
    <path d="M421.18,282.18l2.73-6.08c12.86,3.88,26.07.94,39.11.18,4.42,12.36.54,25.27-1.02,37.86-2.67,2.74-41.69.9-45.05-2.3-2.34-2.23,3.29-25.34,4.22-29.66Z" fill="#fff"/>
    <path d="M557.67,279.95c1.31,5.34-2.37,11.85-1.3,16.75.42,1.92,2.07,2.28,2.93,3.65.59.94.07,2.61.44,3.16.49.74,3.82.24,4.42,1.83,1.14,3.03.17,11.12,1.12,14.73-15.27,2.88-31.12,2.64-46.39-.06.67-13.79.85-27.26,4.66-40.64l34.12.58Z" fill="#fff"/>
    <path d="M270.73,293.38c4.1,3.51,5.2,8.2,3.54,13.51-33.57-16.86-76.46-10.84-100.99,18.37-12.78-12.28,5.9-26.53,16.42-32.27,20.37-11.11,62.43-15.51,81.03.39Z" fill="#fff"/>
    <path d="M193.43,312.82c-1.15,3.91-1.38,7.99-2.01,11.99-2.25,14.27-2.42,30.17-4.64,44.78-2.69,17.67-13.47,23.27-26.87,32.62-.44-4.92-2.97-9.62-5.18-13.34,4-4.63,6.17-9.27,7.97-15.09,6.82-22.02,4.83-51.07,30.73-60.97Z" fill="#fff"/>
    <path d="M346.05,495.65l16.33,11.4c-5.96,8.35-12.83,16.19-16.49,25.91l-37.28-9.93c-.41-.36-1.81-8.43-2.16-9.88-.13-.55-1.08-.28-1.3-1.46-.58-3.07-2.19-22.4-.61-23.37,6.44,2.76,12.66,6.39,19.36,8.57,6.2,2.02,18.9,6.86,22.14-1.24Z" fill="#fff"/>
    <path d="M150.69,281.92c-7.13-4.89-17.95-6.75-26.59-7.26-26.45-1.56-51.86,5.53-70.37,24.88-14.47-11.53,5.14-24.14,15.41-29.15,20.45-9.96,46.99-14.19,68.93-7.07,8.6,2.79,17.36,8.32,12.61,18.6Z" fill="#fff"/>
    <path d="M276.27,630.3l.35,30.91c-10.28,2.93-17.98,13.15-18.76,23.64-.63.69-16.67-4.23-17.75-5.58-2.09-2.59,1.91-14.37,2.03-18.41s-2.44-23.47-.71-25.32l34.84-5.25Z" fill="#fff"/>
    <path d="M4.08,292.44c6.99-1.03,8.37,4.42,9.93,9.8,11.05-3.05,18.57-1,16,11.91,5.8-.07,10.56.49,14.06,5.67l-7.85,21.85-32.14,2.05v-51.27Z" fill="#fff"/>
    <path d="M470.22,575.08c2.8,11.95,5.48,23.98,8.45,35.9,5.34,21.37,16.92,57.56,17.18,78.81.04,3.29.6,4.7-2.29,6.89-.85.64-10.49,4.59-11.18,4.61-1.22.02-1.47-5.38-1.63-6.92-3.48-34.99-7.67-71.4-13.77-105.98-.8-4.56-3.73-14.2,3.24-13.31Z" fill="#fff"/>
    <path d="M363.35,455.15c8.38,8.21-6.45,15.81-6.21,17.06.45,2.3,6.75-1.11,7.65-1.86,1.14-.95,2.99-5.24,3.84-5.02,2.88,4.32,18.09,18.52,13.2,23.69-3.47,3.67-4.05-.7-5.87-2.43-1.52-1.44-9.02-9.2-8.65-4.17l8.91,9.53-.49,1.63-5.12,3.77-12.15-9.03c.87,6.63,16.74,10.02,5.6,16.43-4.68.03-18.77-18.52-25.35-18.05-.83-.64-.62-1.76-.68-2.65-.37-5.63,5.16-23.72,8.91-27.97s12.46-4.83,16.43-.94Z" fill="#fff"/>
    <path d="M561.71,262.11c-.62-.38-3.32-15.56-5.35-13.05l2.63,21.03-34.85-.66c-.24-7.76,6.01-15.19,2.31-22.99-3.32.71-.39,4.1-2.29,5.89l-3.9-11.43c3.6-3.71,8.06-5.5,13.27-5.69,1.4,1.94,5.57,7.9,7.93,7.76,2.15-.12,9.23-5.79,10.31-8.09,10.88,1.5,20.75,16.35,18.44,27.02l-8.49.19Z" fill="#fff"/>
    <path d="M142.15,261.55c-29.83-9.72-62.66-3.04-88.09,14.46,1.84-15.49,13.99-26.24,27.82-31.66,20.06-7.87,50.76-4.82,60.27,17.2Z" fill="#fff"/>
    <path d="M173.89,499.32c-.54-.62-1.46-11.75.76-11.65,21.07,6.95,44.26,9.74,66.47,8.55,11.23-.6,25.11-2.31,34.82-7.9,4.17,10.66.53,12.23-8.54,15.11-21.54,6.85-63.14,6.18-84.78-.71-2.97-.95-5.98-1.95-8.74-3.41Z" fill="#fff"/>
    <path d="M181.59,631.61c-3.42,5.99-7.76,11.11-9.86,18.12-11.96-.8-25.22,3.84-33.21,12.77-9.16-8.44-20.81-18.66-3.18-26.24,1.18-.47.83,1.22.9,1.25,1.03.38,8.33-16.47,10.18-18.38,10.74,6.35,22.8,10.84,35.17,12.48Z" fill="#fff"/>
    <path d="M168.9,515.46c3.6,2.67,10.16,22.08.21,21.5l-.71-8.49c-.16-.13-2.48-.15-2.57-.06-.71.68.97,15.61,1.34,17.93.08.5,1.09.22,1.33,1.42.57,2.88-1.51,6.87-4.81,6.13-5.29-1.19-9.52-17.32-10.7-17.59-.91-.21-1.55.72-1.6,1.57-.1,1.62,2.73,11,3.71,12.69.56.97,3.93,3.08,3.49,3.8-10.1,7.79-12.96-15.63-15.44-16.76-.23-.1-1.73-.25-1.65.4-.83,6.51,2.29,10.81,5.27,16.03-9.83,1.98-11.75-11.48-13.19-18.57-.1-.52-1.18-.5-1.25-.96-.83-5.74-.12-14.17,1.29-19.26,7.41,1.81,14.99,2.62,22.66,1.96,2.97-.26,10.8-3.12,12.63-1.76Z" fill="#fff"/>
    <path d="M265.75,286.52c-30.52-12.05-67.13-7.37-92.04,14.47-.26-19.13,21.68-32.21,38.54-34.75,18.96-2.86,44.47,1.25,53.5,20.28Z" fill="#fff"/>
    <path d="M548.92,576.88c-3.06,3.27-10.55-.75-11.64,3.46,3.02-.09,18.03,10.87,18.74,12.52.4.92.58,1.69.02,2.6-3.51,6.1-13.28-6.25-16.12-3.94-.31,3.54,18.06,11.67,8.85,13.77-6.99,1.59-9.9-8.4-17.4-8.51-1.69,1.64,12.13,9.62,10.47,12.73-.65,1.65-3.91,1.14-5.38.9-2.65-.43-28.35-18.89-28.64-20.64.56-5.74,15-21.63,19.62-22.32,1.8-.27,21.06,5.98,22.06,7.62.38.44-.26,1.49-.56,1.81ZM529.39,592.17c.75-2.53-3.86-9.42-6.22-9.2-1.36.99-.7.87-.47,1.75.3,1.15,5.34,8.87,6.69,7.45Z" fill="#fff"/>
    <path d="M92.84,429.17l-5.25,5.91c6.88.05,13.24-4.42,20.37-2.62-.81,5.6-14.11,4.7-14.83,8.52-.16.85.18.85.69,1.31,5.89-.73,16.56-7.25,20.77-1.6.58,5.86-19.1,4.28-20.42,10.16,3.99.75,22.95-8.43,18.51,1.1-3.6,7.73-24.57,13.64-32.66,14.01-5.67.25-8.54.85-9.89-5.2-4.1-18.41,5.61-27.99,22.72-31.59Z" fill="#fff"/>
    <path d="M401.18,483.06c-.43,5.07,5.29,10.71,6.44,14.28,2.3,7.18,3.81,32.52,3.46,40.63-.19,4.37-1.52,8.91-2.04,12.43s-.56,7.44-.61,10.88l-13.85-2.35c3.01-20.81,2.93-42.15-.82-62.86-1.73-9.53-5.7-9.88,7.43-13.02Z" fill="#fff"/>
    <path d="M470.22,561.94c-.24,10.85-3.56,11.66-13.01,13.6-21.62,4.44-52.2,3.09-73.12-4.06-7.54-2.58-1.86-5.99-2.62-12.17,28.72,7.55,59.77,10.1,88.75,2.64Z" fill="#fff"/>
    <path d="M480.08,705.89l2.53,17.92c-7.83,6.31-12.86,14.33-12.39,24.81-1.15,1.17-16.11-2.03-17.75-3.62-1.17-1.13.11-11.63-.01-14.45-.29-6.49-2.31-12.99-3-19.43l30.62-5.23Z" fill="#fff"/>
    <path d="M384.09,521.18c2.97,13.71-3.1,26.26-5.83,39.2-.93,4.41-2.92,12.51-3.35,15.82-.92,7.04-.6,14.34-.66,21.43-4.37,2.91-9.36,3.44-14.49,3.09.12-7.15-.05-14.91.68-22.01,1.77-17.27,11.81-42.36,22.17-56.68.41-.56-.08-1.21,1.48-.85Z" fill="#fff"/>
    <path d="M479.01,528.83c4.63,9.77,8.76,20.47,16.21,28.81,5.64,6.31,12.73,11.05,19.7,15.81-3.9,4.03-7.85,8.46-9.21,14.12-14.14-6.93-25.17-19.21-32.38-33.08l2.15-33.31c2.03,1.9,2.32,5.09,3.53,7.65Z" fill="#fff"/>
    <path d="M428.13,508.05v54.54s-17.09-.65-17.09-.65c2.93-20.15,2.89-40.98,0-61.12,5.11,3.64,10.49,7.13,17.08,7.24Z" fill="#fff"/>
    <path d="M462.91,254.43c.31.59-.77,3.5-1.64,3.78l-5.51-.6c-1.18-1.16,6.67-14.35.08-12.4l-2.06,7.14c-6.53-6.08-11.2.92-16.06.63-2.52-.15-7.47-3.47-10.88-2.61v-7.22c-1.75-.3-1.17.29-1.52,1.41-.88,2.8-.32,6.11-1.73,8.81-.55.4-9.58-.18-10.92-.36-2.07-.28-.23-4.31.24-5.71,2.04-6.03,8.48-13.33,14.33-15.9,8.19-3.6,7.38,4.92,16.36,4.56,6.14-.25,9.87-6,13.1-6,5.1,0,8.4,6.07,12.75,8.24-2.32,2.09-9.2,12.42-8.39,15.06.26.83,1.71.92,1.84,1.17Z" fill="#fff"/>
    <path d="M447.17,562.55l-16.4.7c.99-5.04.86-10.24,1.34-15.31.99-10.54,1.04-14.48,0-25.25-.47-4.85-.21-9.83-1.34-14.65,6.03.4,10.46-3.07,14.8-6.57,3.51,20.04,4.14,40.9,1.6,61.08Z" fill="#fff"/>
    <path d="M462.18,560.47l-12.34,2.12c3.01-16.79,2.11-34.01.64-50.92-.28-3.28-2.54-10.77-2.34-13.18.14-1.75,4.18-7.73,3.82-10.67l7.31-.72.98.98c2.27,23.93,5.83,48.5,1.92,72.39Z" fill="#fff"/>
    <path d="M590.54,262.21v53.9l-22.38.39-1.34-11.91c.28-1.66,4.45-2.17,5.38-4.57,2-5.19,1.16-16.98.6-22.68l6.61,1.04c.91-7.22,2.73-15.14,11.14-16.16Z" fill="#fff"/>
    <path d="M340.04,631.61c-1.74,2.18-3.85-7.47-3.93-8.23-.8-7.35.68-15.46,1.97-22.67,11.49,2.94,22.56,5.56,34.18,1.31.61,2.92,3.37,18.32,1.27,19.66-5.08.15-5.38-2.9-5.51-7.2l-2.15.21-8.51,22.85c-4.27.26-3.46-3.52-4.21-6.1-1-3.43-1.8-5.52-1.31-10.08.11-.98,4.07-3.2-1.29-3.3-2.04,6.13-2.2,12.56-.63,18.78-9.53.19-6.11-14.17-5.92-20.37-2.48-.02-2.31,3.32-2.84,5.07-.09.3-1.1.13-1.1.19v9.86Z" fill="#fff"/>
    <path d="M501.6,197.35c1.32.36,3.43,7.44,4.77,8.7l5.1-1.26,2.87,3.86c-.4,3.88-5.43,4.54-7.03,6.18-3.53,3.61-2.32,8.32-10.32,11.38-20.65,7.9-26.8-20.18-18.87-34.32,3.25.25,5.02,3.33,8.38,3.79,3.16.44,4.85-1.25,6.43-1.14s2.06,2.07,3.39,2.46c1.66.48,3.44-.15,5.27.35ZM477.46,202.39c1.43-.74,8.38.63,7.88-1.63-1.61-1.76-4.64-.92-6.79-.89l-1.09,2.52ZM500.46,200.44c-.36-.46-8.72-2.05-7.23,1.95h7.23c-.09-.54.15-1.75,0-1.95ZM494.56,208.31c3.3.93,4.22-4.83,1.6-5.24-2.05-.32-2.59,3.87-1.6,5.24ZM486,210.93c-.77-1.18,4.37-4.12,1.63-4.59-5.31-.9-4.21,10.94,2.31,6.89l-3.93-2.3ZM495.2,220.79c2.31-2.66-8.56-5.3-9.85-2.95-1.67,3.05,8.6,1.94,9.85,2.95Z" fill="#fff"/>
    <path d="M456.74,211.92c-3.54,3.77-2.78,8.39-9.82,10.9-20.04,7.14-26.16-13.29-21.77-28.99,3.62-3.11,8.14-.53,11.59-1.57,1.48-.44,1.8-2.32,2.24-2.34.25-.01,1.84,1.91,4.6,2.02s4.5-1.1,6.92-1.75c2.57,3.01,1.33,11.98,6.28,12.21,1.68.08,4.93-2.73,6.08.45,2.18,6.06-3.39,6.16-6.13,9.08ZM451.15,200.42c.32-5.03-5.22-6.3-9.15-4.54l-.05,1.91c4.14-.76,5.94.86,9.2,2.63ZM444.09,204.86c3.95,3.93,6.43-3.84,3.11-5.46s-5.17,3.41-3.11,5.46ZM442.6,210.29l-5.91-1.67c-.13-2.79,3.42-2.74,1.96-5.57-2.7,1-5.44,2.68-4.48,6.09.77,2.73,7.89,5.18,8.43,1.15ZM445.06,217.01c-1.33-1.13-9.8-3.62-10.98-.49l10.21,2.94c1.65.06,1.77-1.6.77-2.45Z" fill="#fff"/>
    <path d="M490.2,523.56c5.08,9.32,9.07,19.42,16.5,27.21,5.26,5.51,11.96,10.02,18.99,13.09l.4,1.35-8.76,5.83c-11.19-6.02-22.73-15.79-28.81-27.08-5.41-10.04-14.97-30.66-13.03-41.51.16-.9-.63-1.94.95-1.65,6.46,6.23,9.5,14.96,13.75,22.74Z" fill="#fff"/>
    <path d="M550.37,198.51l4.64,11.47c1.46.87,2.01-1.44,3.67-1.69,3.29-.49,5.22,4.16,3.24,6.59-1.62,2-4.1,1.18-5.56,2.33-1.3,1.03-2.46,5.68-5.27,7.88-7.1,5.57-18.47,5.25-23.45-2.88-2.17-3.54-3.45-8.71-2.84-12.77.07-.46,1.17-.44,1.26-.94.27-1.52.52-8.73,1.44-9.3,4.4.42,7.59-1.13,10.76-4.02,3.59,7.43,5.64,4.94,12.1,3.33ZM528.08,205.02l7.87-1.64c-2.02-2.77-8.3-2.57-7.87,1.64ZM550.43,206.33c.1-4.28-5.93-4.79-9.2-4.59-1.79,1.43,8.4,4.25,9.2,4.59ZM531.7,205.7c-1.72-.21-3.59,3.88-1.31,4.58,2.95.9,2.84-4.39,1.31-4.58ZM537.95,214.86c-.6-.91,1.23-3.17,1.29-4.29.34-6.18-8.9,4.22-2.26,6.95,1.95.8,5.9.67,4.91-1.98-.73.07-3.77-.43-3.94-.68ZM543.53,220.14h-9.53v1.97s10.18.67,10.18.67l-.65-2.64Z" fill="#fff"/>
    <path d="M510.65,256.95c-2.57-.92,2.35-10.87-2.3-11.17l-.99,7.88c-4.08-2.56-.4-11.37-6.66-11.84-2.06-.15-2.82,1.26-4.52,1.38-2.13.15-4.51-1.58-6.92-.39-.89.44-1.14,1.93-2.01,2.62-.66.52-2.08.03-2.67.74-.87,1.05-.48,4.31-.55,5.73-6.56,4.77-.26-12.7-6.54-7.66l-.09,8.08-13.11-1.29c3.68-8.04,10.04-17.12,19.33-19.11,1.94,6.14,9.59,6.09,14.9,5.02,6.34-1.27,3.94-6.42,12.67-1.56,6.83,3.8,11.08,14.7,10.96,22.23-.69.24-1.41-.65-1.64-.65h-9.86Z" fill="#fff"/>
    <path d="M123.08,371.98c-4.52,21.18-35.09,17.18-44.84,1.77-.85-1.35-4.03-8.46-3.8-9.22.11-.36,2.36-2.36,1.63-5.04,11.53,12.43,31.07,13.74,47.01,12.49Z" fill="#fff"/>
    <path d="M71.14,588.24l-9.64,11.75c-8.24-1.67-16.65,1.5-24.18,4.65-1.43-.35-4.06-11.71-4.06-13.55.01-6.5,7.38-9.57,11.22-14.05l26.65,11.21Z" fill="#fff"/>
    <path d="M448.52,488.32c-3.81,17.5-21.74,21.89-35.2,10.54-2.5-2.11-13.41-15.74-8.42-17.68,5.7-1.14,9.51,2.95,14.73,4.8,9.3,3.3,19.14,3.76,28.89,2.34Z" fill="#fff"/>
    <path d="M133.34,595.2c-1.86,3.35-4.85,5.52-3.53,10.29.91,3.28,12.33,10.73,12.36,11.95l-12.56,15.46-11.08-4.99c1.39-5.85,2.1-11,1.95-17.05-.09-3.68-2.52-14.83-2.03-17.03.19-.84.21-1.23,1.11-1.57,2.9-1.11,11.47.29,15.04-2.04l.7,1.32c-.7,1.2-1.28,2.45-1.95,3.66Z" fill="#fff"/>
    <path d="M379.5,739.41c-.57-4.97-3.22-8.89-7.57-11.16l-.66,1.96,4.87,9.79-5.14,1.33c-1.17-4.08-2.49-10.7-7.94-9.8l4.6,10.13c-9.38,5.43-5.42-8.46-13.14-8.16-.67.55,6.22,8.9,1.7,8.49-6.59-.59-12.46-6.36-16.77-10.78,7.92-8.98,21.27-8.66,32.34-10.76,4.08,4.46,17.98,14.21,7.72,18.96Z" fill="#fff"/>
    <path d="M191.22,665.36c3.46,4.11,3.09,8.63-2.71,9.64-.5-5.33-5.28-10.26-10.86-8.55,9.31,5.19,12.7,11.54-1.31,11.82.39-4.1-2.22-7.32-5.59-9.19l-.98,1.94c3.27.72,4.24,4.9,3.94,7.9-3.77,1.49-23.11-3.64-23.64-6.98,4.03-6.48,22.61-15.07,29.55-13.78,1.73.32,10.4,5.76,11.6,7.19Z" fill="#fff"/>
    <path d="M388.69,488.97c1.32.89,4.2,18,4.52,20.8.74,6.52,1.41,15.08,1.43,21.57,0,3.23-1.27,26.9-2.96,27.19l-8.9-1.86c1.12-4.64,2.3-9.26,3.36-13.93,3.78-16.69,1.42-25.07-4.81-40.81-.78-1.97-2.36-3.5-3.04-5.53-.06-1.41,9.19-8.25,10.4-7.44Z" fill="#fff"/>
    <path d="M307.84,680.91c-1.51-4.99-8.96-7.75-13.81-7.23.24,2.39,4.46,2.31,6.54,3.64,1.44.93,5.01,4.58,4.55,6.41l-3.85,2.43c-.83-4.27-8.65-10.55-12.5-6.58,2.72-.05,12.03,6.37,8.55,8.89-4.79,3.47-20.99-.25-26.97-.34-1.24-1.27,6.53-13.37,7.9-14.78,4.68-4.82,11.02-4.81,17.22-3.42,4.21.95,18.95,5.28,12.37,10.98Z" fill="#fff"/>
    <path d="M23.81,462.03c7.73,6.2,15.72,10.11,25.37,12.45l-3.63,16.85c-2.1,1.55-19.55-4.34-20.75-6.95l-.98-22.34Z" fill="#fff"/>
    <path d="M371.6,700.63c-1.83,8.41-12.87,6.79-19.87,8.06-3.3.6-6.28,2.38-9.69,2.41-1.26-4.99-4.7-15.93-2.01-20.51.49-.84,5.57-3.91,6.73-3.66s10.88,7.22,13.22,8.54c3.56,2.01,7.69,3.98,11.62,5.16Z" fill="#fff"/>
    <path d="M425.42,256.2c.53-.33.34-3.26,1.83-3.8l6.8,1.27c.3,1.7-.24,1.02-.92,1.37-2.35,1.21-9.06,1.78-10.6,3.86l-.31,1.33c2.9,2.33,21.38-8.42,25.31-8.26,1.38.06,5.72,3.15,5.53,4.55-6.13,7.55-36.63,21.95-39.89,6.52-2.85-13.46,8.1-4.26,12.24-6.84Z" fill="#fff"/>
    <path d="M465.62,559.3c2.21-20.01.83-40.27-1.96-60.15l.32-10.16c2.97,2.25,9.36,4.62,9.57,8.87-2.36,17.54-.09,35.65-2.75,53.15-.55,3.63-.63,8.38-5.17,8.29Z" fill="#fff"/>
    <path d="M317.32,589.91c6,8.24,6.13,12.73-5.29,14.02-7.19.81-12.53-.94-19.29-2.58l-.3-11.88c7.13-1.01,14.76.24,20.91-4.49.61.1,3.34,4.06,3.97,4.94Z" fill="#fff"/>
    <path d="M501.97,252.18c.44,1.36,10.87,10.32,13.62,8.71l-.65-1.96c5.45.04,8.18-.32,6.94,5.95-2.43,12.23-14.97,4.11-21.07-.04-1.64-1.12-14.27-11.44-13.48-12.48l5.25,1.31-6.56-5.58c1.62-2.14,4.02,3.22,6.24,2.94l.65-1.95-2.95-2.64,1.64-1.9,4.91,5.85-1.3-4.6,3.94,2.62-.65-3.94c4.41-1.84,2.66,5.19,3.48,7.71Z" fill="#fff"/>
    <path d="M70.48,475.17c4.56,14.04,3.83,21.64-13.14,20.38,1.44-3.95,3.91-6.18,3.29-10.85-.13-.96.54-1.9-.99-1.64-2.32.37-1.47,3.9-2.36,6.19-1.22,3.14-5.47,6.57-8.86,4.35l4.37-18.34c6,1,11.68,1.19,17.69-.08Z" fill="#fff"/>
    <path d="M125.71,469.26l-1.04,8.62c-13.49,1.57-27.02.27-40.42-1.02l-1.94-7.92,43.4.32Z" fill="#fff"/>
    <path d="M509.68,744c-1.24-4.63-5.96-4.07-9.87-3.93-.32,1.8.37,1.12,1.42,1.5,2.44.88,5.94.28,5.8,4.4-7.02,2.19-14.33,3.06-21.69,2.64.89-6.28,9.03-19.26,15.67-20.01,3.49-.39,19.99,3.97,15.56,10.14-.65-1.86-12.99-6.83-12.81-3.6l8.89,4.95c1.28,1.3-1.94,4.54-2.97,3.92Z" fill="#fff"/>
    <path d="M473.5,558.65c2.91,7.94,10.13,16.43,16.49,21.98,2.12,1.85,13.65,8.84,14.11,9.56.92,1.46,0,5.38.31,7.24-8.96-3.4-32.31-15.53-32.9-25.99-.2-3.57,1.85-8.12.76-11.86l1.23-.93Z" fill="#fff"/>
    <path d="M370.95,718.37c-11.56.74-24.07,2-33.2,9.85l-4.99-8.79c8.87-4.97,23.79-10.59,33.96-10.29,3.1.09,3.83,6.66,4.23,9.23Z" fill="#fff"/>
    <path d="M155.52,329.06c.79,9.47,2.03,17.94-1.4,27.6-1.96,5.5-6.77,7.93-11.95,4.47,3.25-2.26,5.78-6.94,7.07-10.67,4.09-11.8,2.76-30.72,1.45-43.22-.88-8.38-3.32-16.38-4.58-24.66,7.13,13.91,8.13,31.03,9.42,46.48Z" fill="#fff"/>
    <path d="M298.62,357.52c-1.32,11.91-7.52,22.01-21.04,18.4l1.32-19.71,19.72,1.32Z" fill="#fff"/>
    <path d="M73.12,623.06c-.16-3.17-2.58-11.15-6.57-8.22,2.58,2.14,3.6,5.58,3.23,8.84l-5.17.61c-.45-2-2.66-5.65-4.47-6.35-.74-.29-2.51-.69-2.15.83l3.28,4.94c-3.11,1.89-16.99-5.72-16.43-8.18,5.52-4.62,16.18-7.77,23.2-6.13,3.49.82,16.09,12.75,5.08,13.66Z" fill="#fff"/>
    <path d="M568.83,264.18c.66,11.65,3.23,24.35-.64,35.49l-.67-4.27-2.62,6.25c-.08-1.25,2.09-5.64-.32-5.91l-2.3,5.91.65-7.88-3.61,3.27-1.01-1.64c-.69-3.96,2.47-6.49,2.7-7.84.88-5.1-2.45-10.02-1.37-13.69.24-.82,2.07-.77,2.53-2.25.66-2.13-.92-4.57-.55-6.77l7.23-.66Z" fill="#fff"/>
    <path d="M462.33,317.42v28.26c-4.2-2.55-6.6-8.02-12.46-7.92l-.7-19.69,13.15-.65Z" fill="#fff"/>
    <path d="M133.51,334.61c1.81,14.56-16.68,20.35-27.17,11.72-3.66-3.01-8.13-11.98-2.04-14.37l29.21,2.66ZM129,337.8h-16.11c-1,0-7.22-2.32-7.56-1.97,1.01,12.12,22.28,14.55,23.66,1.97Z" fill="#fff"/>
    <path d="M436.69,345.68c-4.03-.64-5.3-5.49-8.57-8.19-.96-.79-3.05-.92-3.18-1.09-.62-.81-.96-18.21.22-20.12l11.54,2.12v27.28Z" fill="#fff"/>
    <path d="M474.16,253.67l-1.96,3.28c1.26.78,11.14-2.65,13.25-2.29.64.11,5.47,5.53,6.47,6.56-9.82,7.43-32.62,13.25-26.38-7.16l8.62-.38Z" fill="#fff"/>
    <path d="M255.89,405.51c-15.48,18.01-46.68,9.35-58.51-8.55,5.5,1.88,10.01,5.79,15.33,8,14.29,5.95,28.75,6.05,43.19.54Z" fill="#fff"/>
    <path d="M57.99,497.52l-.67,7.88c-1.44,1.36-29.07-4.68-31.37-7.39-.78-.92-1.63-9.59-1.15-9.7,4.48,1.98,8.94,3.92,13.6,5.46,2.19.73,5.4.48,7.3,1.28.95.4,1.61,2.47,2.76,2.47h9.53Z" fill="#fff"/>
    <path d="M559.64,347.33c-.08.47-.76,1.15-.66,1.85l-1.64.47c-.3-4.17-9.54-6.69-9.9-7.21-.78-1.12-.57-15.2-.95-17.79,1.71.8,13.15-1.94,13.15.33-.8,6.76,1.07,15.91,0,22.35Z" fill="#fff"/>
    <path d="M472.19,748.61c.89-10.6,9.01-27.1,21.73-22.71,5.04,1.74-2.13,4.75-3.73,6.51-4.27,4.69-5.93,10.31-7.8,16.19h-10.19Z" fill="#fff"/>
    <path d="M509.67,321.36v26.95c-3.17-.16-3.88-3.97-6.64-6.18-1.65-1.32-3.33-2-5.24-2.77l-.65-16.92c.1-.31,2.1-1.08,2.33-1.08h10.19Z" fill="#fff"/>
    <path d="M488.63,322.02v21.36c0,.3-3.01,4.9-3.93,4.27.66-4.08-6.32-6.91-6.93-7.87-.87-1.35-.39-14.53-.87-17.34.85-2.19,9.41-.83,11.74-.42Z" fill="#fff"/>
    <path d="M524.79,323.34l12.5,1.31c-.28,2.84.35,6.17.06,8.92-.16,1.45-1.23.79-1.37.95-.73.84,1.75.14,1.31,1.62-.18.6-1.24.13-1.33.77-.46,3.27.35,7.36,0,10.74-2.8-4.52-7.69-4.01-10.11-8.31-.19-.34-1.06-.18-1.06-.23v-15.78Z" fill="#fff"/>
    <path d="M512.3,321.04c1.11-2.93,7.26,2.69,9.83,1.68l.09,18.07-6.59,5.2-3.32-.29v-24.65Z" fill="#fff"/>
    <path d="M461.67,259.58c-.23,4.71,2.49,7.49,4.6,11.17-8.16,3.28-15.97.34-23.66-2.63-.27-1.26.38-1.27,1.14-1.8,5.21-3.61,11.51-6.78,17.92-6.74Z" fill="#fff"/>
    <path d="M337.41,692.74c-1.78,6.75.45,13.44,2.03,19.96l-7.91,3.67c-1.19-2.78-1.43-5.76-2.07-8.67-.11-.52-1.15-.54-1.23-.98-1.32-7.65,2.72-11.14,9.17-13.98Z" fill="#fff"/>
    <path d="M557.67,277.32l-33.54-.65v-4.61s31.21.68,31.21.68c2.41.39,2.51,2.52,2.33,4.58Z" fill="#fff"/>
    <path d="M464.96,325.97l9.2-1.32.69,14.09c-3.7.58-7.11,1.72-9.89,4.32v-17.09Z" fill="#fff"/>
    <path d="M340.3,261.3c.44.73,2.31,1.99,2.37,3.53h-19.06c3-13.47,9.22-15.96,16.69-3.53Z" fill="#fff"/>
    <path d="M506.37,270.77l-.32,1.3c-9.51-.25-19.32.84-28.6-1.65,6.12-.82,11.69-3.95,16.78-7.34l12.15,7.68Z" fill="#fff"/>
    <path d="M76.4,519.87c-4.89,6.88-14.03,8.18-21.93,7.79-4.39-10.56,3.36-6.22,9.11-6.43,4.03-.15,8.7-1.27,12.81-1.36Z" fill="#fff"/>
    <path d="M83.62,491.57l-7.87,2c2.98-7.04-.47-12.06-2.03-18.67,2.34.03,5.51-4.65,6.51-1.91l3.39,18.59Z" fill="#fff"/>
    <path d="M82.97,506.07c-.83,10.68-5.67,11.39-15.11,12.48l2.59-10.22,12.53-2.26Z" fill="#fff"/>
    <path d="M67.2,508.69c-.99,10.05-4.14,11.29-13.77,9.17l.62-9.17h13.15Z" fill="#fff"/>
    <path d="M159.24,366.7c-5.65,2.38-8.75,7.81-12.16,12.49l-3.97-2.6c-.49-7.3,10.24-18.14,16.13-9.89Z" fill="#fff"/>
    <path d="M50.05,527.04c-7.16-.05-14.95-5.14-17.69-11.77l17.76,4.91-.07,6.85Z" fill="#fff"/>
    <path d="M39.7,514.5l-.77-8.43,11.54,1.92c.82,1.15.1,8.16-1,8.98l-9.77-2.48Z" fill="#fff"/>
    <path d="M451.13,224.1c4.4,9.15-11.8,12.67-15.65,5.43l1-2.84c5.5.83,9.64-1.04,14.64-2.59Z" fill="#fff"/>
    <path d="M165.08,346.43c.45.71-2.09,15.32-2.56,16.68-.24.7.57,1.16-.96.97l-5.84-2.61-.42-1.3c4.15-1.99,3.45-9.69,4.22-13.86l5.55.13Z" fill="#fff"/>
    <path d="M161.21,367.38c-1.68,6.97-3.29,13.68-8.21,19.04l-4.2-6.08c.46-1.21,11.4-14.09,12.41-12.96Z" fill="#fff"/>
    <path d="M549.77,229.35c1.27,5.6-3.75,8.33-7.86,10.89-1.46.14-7.75-6.66-5.95-8.93l13.81-1.97Z" fill="#fff"/>
    <path d="M83.63,494.24l-.29,8.58-10.88,1.93c1.08-1.53.42-6.86,1.45-7.75.5-.44,8.19-1.55,9.72-2.76Z" fill="#fff"/>
    <path d="M451.81,274.05c-1.94.67-5.51,1.19-7.57,1.29-5.29.27-13.81.48-18.07-2.61,3.38.53,10.63-3.83,12.94-3.8,1.45.02,9.2,6.41,12.7,5.11Z" fill="#fff"/>
    <path d="M36.13,504.92c.54.62,1.44,7.93,1.16,8.38-8.33.59-10.04-4.39-10.86-11.83,1.61.66,9.04,2.69,9.69,3.45Z" fill="#fff"/>
    <path d="M543.85,324.65c-.2,5.9,4.19,18.84-4.59,19.06,1.53-3.33-.6-18.01,1.74-18.96l2.86-.1Z" fill="#fff"/>
    <path d="M57.67,629.64c-7.65-1.03-16.71-6.63-21.7-12.48-4.3-5.04-11.41-17.05-10.18-23.67,2.13,1.83,1.61,5.55,2.67,8.03,4.02,9.4,18.64,27.47,29.87,27.47h9.53s.03.66,0,.66c-3.08,0-7.32.39-10.19,0Z" fill="#fff"/>
    <path d="M501.11,227.37c3.56,9-14.91,11.23-15.11,2.63,5.57.55,10.07-.46,15.11-2.63Z" fill="#fff"/>
    <path d="M439.98,341.08v-11.17l6.57-1.97c-.09,7.51,2.48,11.27-6.57,13.15Z" fill="#fff"/>
    <polygon points="59.96 505.4 60.62 498.83 71.14 496.86 69.19 505.1 59.96 505.4" fill="#fff"/>
    <path d="M145.44,365.41l-5.68,7.79-8.79-3.87c5.37-3.54,7.7-6.71,14.46-3.93Z" fill="#fff"/>
    <path d="M491.92,322.02h2.63c-1.54,5.35,4.57,18.18-2.95,19.07-.93-.12.32-.84.32-.99v-18.08Z" fill="#fff"/>
    <path d="M518.87,291.12l-3.28-17.08c2.49.34,4.05-.54,5.91-1.98l-2.63,19.06Z" fill="#fff"/>
    <polygon points="446.56 318.07 446.51 325.93 439.98 326.63 439.97 318.07 446.56 318.07" fill="#fff"/>
    <path d="M346.61,333.86l2.63,11.17-9.2-2.63c1.48-.41,5.31-10.02,6.57-8.53Z" fill="#fff"/>
    <path d="M340.15,496.77c-1.1-.57-2.93-6.79-2.08-7.79,2.87.36,5.45,1.89,7.09,4.26-.72,1.48-3.17,4.49-5.01,3.53Z" fill="#fff"/>
    <path d="M527.42,350.28c-2.05-.03-4.11.14-6.15-.08-.82-.09-4.63-.21-4.36-1.54l3.6-3.5c1.92,2.28,6.59,1.88,6.91,5.13Z" fill="#fff"/>
    <path d="M499.15,349.62l-11.17-1.63c2.91-5.86,8-1.87,11.17,1.63Z" fill="#fff"/>
    <path d="M451.81,347h-11.18c.52-6.47,8.25-3.14,11.18,0Z" fill="#fff"/>
    <path d="M424.86,346.33c-4,.06-8.19.36-11.83-1.63l3.49-2.85,8.34,4.48Z" fill="#fff"/>
    <polygon points="464.97 323.33 464.97 318.08 474.15 321.04 464.97 323.33" fill="#fff"/>
    <path d="M549.77,350.29c-.94,1.19-11.15,1.2-10.51-.98,1.23-4.17,8.19.12,10.51.98Z" fill="#fff"/>
    <path d="M476.79,347.67c.15,1.17-1.47.63-2.2.56-1.06-.1-9.06-.83-8.96-1.55,3.01-5.83,6.72.31,11.17.99Z" fill="#fff"/>
    <path d="M468.24,279.96c-1.34,1.99-2.2-4.55-1.99-5.58.34-1.62,2.79-2.57,3.96-3.63l-1.97,9.2Z" fill="#fff"/>
    <path d="M127.02,637.54c2.54,2.66-9.59.19-8.54-2.64l8.54,2.64Z" fill="#fff"/>
    <path d="M509,594.16c.53.88-1.5,2.99-2.62,2.61v-3.94s2.62,1.33,2.62,1.33Z" fill="#fff"/>
    <path d="M186.85,383.15c.14.16.12,1.67-.31,1.99-4.86,2.52-.7-3.15.31-1.99Z" fill="#fff"/>
    <polygon points="70.48 628.33 70.15 628.98 68.52 628.97 68.52 628.33 70.48 628.33" fill="#fff"/>
    <path d="M132.57,45.01c2.41,3.35,4.41,5.32,3.67,10.14,15.89-9.55,37.96-3.98,37.48,17.09,9.95-5.54,29.19-.17,27.62,13.49-.79,6.9-8.4,8.35-14.12,8.88-42.4-2.69-88.24,3.99-130.22.66-38.08-3.02-10.29-48.67,15.47-35.52,2.85-28.6,43.42-37.95,60.11-14.75ZM132.56,52.27c-2.63-6.08-4.55-9.9-10.64-13.37-19.2-10.94-48.03,1.37-46.17,25.46-3.49.51-5.61-2.54-9.03-3.13-11.56-1.99-24.26,5.84-25.1,18.01s11.76,12.92,20.63,13.41c40.13-3.59,84.68,2.9,124.31-.66,23.85-2.14,8.01-24.42-9.05-18.25-2.7.98-3.44,3.66-6.37,3.07-.4-5.2.5-8.55-1.91-13.57-6.1-12.68-25.23-12.57-33.31-2.18-1.2-.07-1.7-6.33-2.2-7.62-.31-.81-1.07-.97-1.15-1.16Z"/>
    <path d="M261.08,146.46c7.19-30.94,53.73-27.83,54.61,5.04,9.39-3.43,24.4-4,30.15,5.99,7.33,12.74-5.04,16.44-15.35,17.28-29,2.37-61.23-1.61-90.55-.15-15.94-3.8-12-22.08.61-27.99,7.2-3.37,13.24-2.23,20.52-.18ZM312.43,156.38v-9.53c0-8.73-11.29-17.67-19.47-18.66-16.08-1.94-29.34,6.71-29.85,23.58-11.42-9.37-34.28-2.39-29.92,14.48,1.03,3.99,5.59,5.33,9.24,5.89,28.91-2.24,63.06,3.32,91.36-.66,16.33-2.3,13.07-15.06.99-18.7-9.13-2.76-14.19.63-22.34,3.6Z"/>
    <path d="M349.91,94.6c9.38-7.1,25.67-7.83,30.81,4.35.42.99,2.02,4.32.32,4.88-2.84.95-3.13-3.1-4.57-4.58-9.18-9.44-18.23-5.03-27.49,1.21-4.44-9.38-11.25-14.6-22.08-10.79-3.62,1.27-4.76,4.91-8.55,4.92,3.61-14.65,27.19-14.04,31.56,0Z"/>
    <path d="M432.33,130.51c-.6-.45-.84-1.6-1.97-2.3-8.96-5.57-18.06,1.11-22.26,9.08-1.08.14-5.58-6.36-7.75-7.35-3.81-1.75-11.91-1.58-15.58.5-2.37,1.35-5.71,8.95-7.61,6.24-.41-10.79,14.57-14.82,23.17-11.32,3.31,1.35,4.27,4.32,7.42,5.38,3.04-10.74,26.63-11.52,29.16-1.19,1.29,5.27-2.28,2.65-4.58.95Z"/>
    <path d="M548.06,791.74c.21.36,1.65.87,1.64,1.93l3.68,10.8c3.04-6.17,6.15-15.06,12.83-17.74l-12.83,27.6c-1.33.31-.9-.54-1.28-1.3-1.54-3.1-1.7-7.64-2.88-10.92s-4.35-8.34-5.21-11.91c-.17-.71-.9-3.83.82-3.46,1.67,1.28,2.22,3.29,3.23,5Z"/>
    <path d="M546.48,814.33c-1.03,1.24-6.76-9.04-7.87-10.2-1.35-1.4-5.21-1.94-5.27-4.91,7.43-.12,12.84,8.46,13.14,15.11Z"/>
    <path d="M533.33,634.9l-6.51,16.7-2.03.39c-2.1-2.29,3.62-17.5,8.54-17.09Z"/>
    <path d="M407.02,769.72l.08,2.55-16.42-1.64c.69-4,15.64-1.87,16.34-.91Z"/>
    <path d="M522.16,651.98c-1.12.1-1.48.19-2.27-.68s-4.16-8.29-5.39-10.31c-.38-.62-4.01-2.73-1.2-3.46,3.4-.88,9.64,11.3,8.86,14.46Z"/>
    <path d="M570.81,799.88c.47.41-5.3,9.93-5.89,10.87-.54.86-.52,1.93-1.99,1.61-.23-4.65,2.34-12.55,7.88-12.48Z"/>
    <path d="M242.74,717.72h-10.19c-.44,0-1.57-1.19-.31-2.28,1.84-1.58,11.28-1.98,10.5,2.28Z"/>
    <path d="M537.04,646.49c-.4.5-1.41.8-2.03,1.56-.66.8-2.31,6.42-3.98,3.94s4.92-9.68,7.9-9.85c2.15-.02-1.53,3.89-1.89,4.35Z"/>
    <path d="M541.89,688.79c-2.08-2.94,9.85-2.39,10.5.99.06,1.85-9.32-.68-10.5-.99Z"/>
    <path d="M216.77,707.86c-2.85-4.04,11.42-3.52,9.53,0h-9.53Z"/>
    <path d="M307.17,648.03c-.17-3.96,9.91-1.44,9.84.34-.07,2.04-8.49-.12-9.84-.34Z"/>
    <path d="M530.52,705.37c2.09-.48,4.16-.39,5.43,1.5l-7.45,1.54-1.07-.89c.85-.95,1.79-1.86,3.09-2.16Z"/>
    <path d="M345.78,771.1c8.35-2.53,7.26,7.49-1.77,1.5.54-.55.99-1.26,1.77-1.5Z"/>
    <path d="M427.49,792.66c1.52-.69,9.13-1.63,8.54.97-.4,1.78-10.19,1.52-8.54-.97Z"/>
    <path d="M21.83,528.42l-1.05,1.84-5.51-1.52c1.71-1.95,4.48-.79,6.56-.32Z"/>
    <path d="M100.73,625.03h-4.27c-1.48-3.63,4.13-3.52,4.27,0Z"/>
    <path d="M320.01,550.76c5.5.39,3.91,5.54-.36,1.65l.36-1.65Z"/>
    <path d="M103.36,757.16c-7.47.98-30.7,2.06-23.29-11.14,6.4-11.41,29.25-7.46,33.6,4.48,11.65-3.63,32.21.09,35.75,13.52,3.26,12.33-22.67,11.35-29.98,10.9-11.51-.7-26.24-3.16-16.08-17.76ZM109.53,750.36c-3.32-5.85-7.93-8.75-14.88-8.83-4.88-.05-16.13,5.19-12.37,10.74,2.22,3.28,24.16,3.05,28.31-.39.6-1.6-.88-1.2-1.06-1.52ZM143.72,760.85c-7.62-9.84-24.53-11.66-34.78-5.02-3.96,2.57-9.61,10.48-2.96,13.49s35.06,3.96,39.77-1.02c2.15-3.23-.32-5.24-2.03-7.46Z"/>
    <path d="M48.37,785c7.93-7.47,26.42-6.14,32.34,3.03,9.4,14.57-22.23,13.79-29.42,11.67-7.83-2.31-8.45-9.48-2.92-14.69ZM60.48,782.98c-4.44.44-15.06,5.31-12.9,11.2,1.78,4.88,28.87,5.22,31.13.44,3.85-8.15-12.31-12.23-18.22-11.64Z"/>
    <path d="M202.41,795.08c-.04.16-.94.2-1.05.68-.55,2.23-.38,8.26-1.68,10.08h-3.28s-10.19-25.01-10.19-25.01c7.63,4.18,8.89,13.66,11.82,21.03.78-8.23,1.17-18.76,6.3-25.58,1.06-1.41,3.79-3.51,3.03-.28-1.47,6.26-3.37,12.8-4.95,19.09Z"/>
    <path d="M39.83,697.76c.13.27,1.1.64,1.65,1.93,1.55,3.65,1.75,7.46,3.7,10.79,2.93-5.81,6.54-13.9,13.47-15.1,1.19,1.04-6.76,8.99-7.43,10.05-3.03,4.82-3.8,10.73-6.71,15.58-.7.18-3.24-12.59-3.69-13.92-.53-1.57-2.08-4.94-2.9-7.09-.71-1.83-4.78-9.58-4.82-10.33-.36-6.79,6.36,7.36,6.72,8.1Z"/>
    <path d="M213.37,792.2l-5.79,12.93c-3.09-8.39,4.33-18.72,11.83-22.32l.45,1.74-6.49,7.65Z"/>
    <path d="M36.29,719.68c-1.79.37-1.13-.48-1.61-1.32-1.39-2.46-2.21-5.45-4.02-7.86-1.05-1.41-9.66-7.74-8.17-9.22,7.89,1.73,14.77,10.12,13.8,18.4Z"/>
    <path d="M189.48,805.13c-3.69-2.42-5.59-6.86-9.17-10.21-1.51-1.41-4.53-1.17-3.97-4.24,6.73.5,13.01,7.86,13.14,14.45Z"/>
    <path d="M64.57,707.21l-6.33,7.14-2.26,5.95c-3.77,1.02-2.85-2.11-1.97-4.93,1.13-3.61,6.42-9.87,10.56-8.16Z"/>
    <path d="M556.86,394.46c8.77-.51,20.14,5.09,21.13,14.73,1.42,13.89-25.69,6.8-32.49,7.45-2.31.22-4.02,2.04-6.75,2.49-4.42.73-20.38.73-19.88-6,.56-7.6,14.46-8.2,19.93-7.07,3.93-7.08,9.79-11.13,18.06-11.61ZM556.21,397.14c-4.36.39-15.43,5.03-14.23,10.52.07.33,3.18,5.6,3.45,5.8,2.59,1.88,27.36,2.12,29-.71,4.77-8.22-10.63-16.27-18.23-15.6ZM541.02,409.65c-3.56-2.51-18.36-2.36-19.5,4.01.52,2.56,16.06,2.85,18.57,2.2,3.41-.87,3.01-4.75.93-6.21Z"/>
    <path d="M574.75,354.89c-.72,4.45-.82,12.98-2.5,16.83-.46,1.06-1.08,1.2-2.09,1.57-1.17-.78-.93-18.5,4.59-18.4Z"/>
    <path d="M558.97,506.07l-5.23,22.7-1.33.95c-1.84-1.89,1.22-22.67,6.56-23.66Z"/>
    <path d="M548.09,523.53c1.05,2.4,4.2,8.55-.9,7.46-.4-5.75-3.75-10.47-7.41-14.63l.45-1.74c4.08,1.62,6.19,5.09,7.86,8.91Z"/>
    <path d="M568.84,515.27l-8.07,14.27-2.44.85c-2.5-3,6.23-15.45,10.51-15.11Z"/>
    <path d="M531.36,455.46l-4.74,13.98-2.16,1.77c-4.28-.59,3.17-13.44,4.73-14.95.76-.74.48-1.13,2.17-.8Z"/>
    <path d="M584.61,358.18c.59,2.77-1.83,3.15-2.77,4.76-1.92,3.29-2.91,7.03-4.79,10.34-3.37.04,2.52-17.21,7.56-15.1Z"/>
    <path d="M519.38,457.59c1.57,1.85,2.72,14.78-.17,14.31l-2.3-14.13c.54-1.17,1.87-.88,2.47-.18Z"/>
    <path d="M513.99,471.53c-.82-.76-6.05-9.11-5.63-9.5,3.28.16,9.61,6.84,8.48,10.09-.9,2.59-2.1.1-2.85-.59Z"/>
    <path d="M564.02,363.64c.96,1.13,4.69,8.74,2.51,9.64l-5.46-9.65.22-1.53c.51-.09,2.39,1.13,2.73,1.53Z"/>
    <path d="M63.25,214.22l-23.66-16.42c.97-.17,1.52-.7,2.58-.34,1.76.59,22.84,15.06,21.07,16.76Z"/>
    <path d="M40.61,221.74c.57.61,5.23,5.23,1.93,4.99-1.57-.11-15.94-13.17-17.41-15.78,1.88-1.71,13.81,9.01,15.48,10.8Z"/>
    <path d="M260.49,525.79c.45.5-.13,1.9-.45,2.61-6.1,13.11-21.49,31.83-33.24,40.28-2.29,1.65-14.09,9.24-16.28,8.05-1.18-.89-.24-.93.43-1.55,3.53-3.28,12.49-7.59,16.98-11.28,6.76-5.57,16.22-15.9,21.4-22.83,2.64-3.53,6.18-11.77,8.99-14.47.56-.54,1.45-1.62,2.17-.8Z"/>
    <path d="M464.79,427.3c8-1.4,8.59,13.5,1.09,13.66-7,.16-7.51-12.54-1.09-13.66Z"/>
    <path d="M456.85,440.54c5.47,9.83-8.82,16.3-14.07,11.47-3.94-3.63,6.77-.6,9.28-2.56,6.62-5.15-5.93-13.11-2.55-18.3l7.34,9.39Z"/>
    <path d="M425.98,438.17c-1.75,1.36-5.26,1.19-6.69-.48-2.77-3.95.25-13.75,6.19-11.49,4,1.68,3.09,9.95.5,11.97Z"/>
    <path d="M452.47,469.25c-.97,1.07-5.68-3.88-7.2-4.29-8.31-2.27-12.08,3.31-19.1,4.62,4.69-9.37,23.75-12.28,26.3-.32Z"/>
    <path d="M431.33,406.26c6.3,4.18-16.57,15.16-19.61,9.43,4.63-3.91,10.96-2.29,15.78-6.56,1.04-.92,1.25-4.58,3.83-2.87Z"/>
    <path d="M474.82,419.3c-4,1.17-19.54-6.56-17.45-11.15l1.92-1.3c1.6,1.16,2.08,3,3.73,4.19,1.96,1.43,14.45,5.63,11.79,8.25Z"/>
    <path d="M337.23,299.12c7.14-1.03,8.44,11.56.52,11.77-6.33.16-5.28-11.08-.52-11.77Z"/>
    <path d="M304.54,262.87c1.45-1.45,6.42,4.58,7.12,5.69s5.3,10.65,2.41,10.72l-9.53-16.41Z"/>
    <path d="M250.63,362.77c-1.56,20.58-32.92,19.2-30.9-2.63,10.74,1.58,19.43,6.43,30.9,2.63Z"/>
    <path d="M222.82,306.45c.52.4.96,1.66,1.39,2.26.38,3.22-5.26,2.79-7.69,3.86-3.38,1.48-12.45,10.93-9.63.23,1.33-5.06,12.25-9.15,15.93-6.35Z"/>
    <path d="M249.03,309.78c-.19-.22-1.49-.21-1.02-.89.35-.5,2.94-2.97,3.76-3.16,5.11-1.22,16.78,4.49,14.54,10.59-1.15,3.13-6.05-2.25-7.98-2.99-4.26-1.62-6,.28-9.31-3.56Z"/>
    <path d="M260.31,324.83c5.94,7.63-8.03,15.43-8.8,4.66-.47-6.51,5.93-8.34,8.8-4.66Z"/>
    <path d="M216.88,324.11c6.69-2.41,8.81,5.98,4.83,10.08-7.28,3.59-8.32-8.82-4.83-10.08Z"/>
    <path d="M103.81,285.41c4.04,4.92-5.81,4.28-8.53,5.2-2.46.83-8.11,7.22-10.03,4.5-5.28-7.49,13.07-16.39,18.57-9.7Z"/>
    <path d="M128.16,282.06c5.33-1.16,16.66,5.15,12.73,10.11-2.34,2.96-4.45-1.14-6.17-1.84-2.26-.93-7.37-1.16-8.72-2.45-2.3-2.19-.58-5.22,2.16-5.82Z"/>
    <path d="M132.75,298.48c6.03-1.88,7.41,7.15,2.4,9.59-2.27-.14-4.14-1.36-4.71-3.62-.59-1.89.27-5.33,2.31-5.96Z"/>
    <path d="M96.99,308c-3.12-2.27-1.97-9.79,3.27-8.87,4.4.98,3.35,13.68-3.27,8.87Z"/>
    <path d="M529.39,592.17c-1.36,1.42-6.39-6.3-6.69-7.45-.23-.88-.9-.76.47-1.75,2.37-.22,6.98,6.67,6.22,9.2Z"/>
    <path d="M495.2,220.79c-1.25-1-11.52.1-9.85-2.95,1.29-2.36,12.16.29,9.85,2.95Z"/>
    <path d="M486,210.93l3.93,2.3c-6.51,4.05-7.62-7.79-2.31-6.89,2.74.46-2.4,3.41-1.63,4.59Z"/>
    <path d="M477.46,202.39l1.09-2.52c2.15-.03,5.18-.87,6.79.89.5,2.25-6.45.89-7.88,1.63Z"/>
    <path d="M500.46,200.44c.15.2-.08,1.41,0,1.95h-7.23c-1.5-4.01,6.87-2.41,7.23-1.95Z"/>
    <path d="M494.56,208.31c-.99-1.38-.45-5.57,1.6-5.24,2.62.41,1.7,6.17-1.6,5.24Z"/>
    <path d="M442.6,210.29c-.54,4.03-7.66,1.58-8.43-1.15-.96-3.4,1.77-5.09,4.48-6.09,1.46,2.83-2.09,2.78-1.96,5.57l5.91,1.67Z"/>
    <path d="M444.09,204.86c-2.06-2.05-.11-7.03,3.11-5.46s.84,9.39-3.11,5.46Z"/>
    <path d="M445.06,217.01c1,.85.88,2.51-.77,2.45l-10.21-2.94c1.18-3.13,9.65-.64,10.98.49Z"/>
    <path d="M451.15,200.42c-3.27-1.77-5.07-3.39-9.2-2.63l.05-1.91c3.93-1.76,9.48-.49,9.15,4.54Z"/>
    <path d="M537.95,214.86c.17.25,3.2.75,3.94.68.99,2.64-2.97,2.78-4.91,1.98-6.64-2.74,2.6-13.13,2.26-6.95-.06,1.12-1.89,3.39-1.29,4.29Z"/>
    <polygon points="543.53 220.14 544.18 222.78 533.99 222.11 533.99 220.14 543.53 220.14"/>
    <path d="M550.43,206.33c-.8-.34-10.99-3.16-9.2-4.59,3.27-.19,9.3.31,9.2,4.59Z"/>
    <path d="M528.08,205.02c-.43-4.21,5.85-4.41,7.87-1.64l-7.87,1.64Z"/>
    <path d="M531.7,205.7c1.53.18,1.64,5.48-1.31,4.58-2.27-.69-.41-4.78,1.31-4.58Z"/>
    <path d="M129,337.8c-1.38,12.58-22.66,10.15-23.66-1.97.33-.35,6.56,1.97,7.56,1.97h16.11Z"/>
    <path d="M132.56,52.27c.08.19.84.35,1.15,1.16.5,1.29.99,7.55,2.2,7.62,8.08-10.39,27.21-10.5,33.31,2.18,2.42,5.02,1.51,8.37,1.91,13.57,2.93.6,3.68-2.09,6.37-3.07,17.06-6.17,32.9,16.11,9.05,18.25-39.62,3.56-84.17-2.93-124.31.66-8.86-.48-21.45-1.37-20.63-13.41s13.54-19.99,25.1-18.01c3.42.59,5.54,3.64,9.03,3.13-1.85-24.09,26.97-36.39,46.17-25.46,6.09,3.47,8.01,7.29,10.64,13.37Z" fill="#fff"/>
    <path d="M312.43,156.38c8.16-2.97,13.21-6.36,22.34-3.6,12.08,3.65,15.34,16.41-.99,18.7-28.3,3.98-62.44-1.58-91.36.66-3.65-.55-8.2-1.9-9.24-5.89-4.36-16.87,18.5-23.85,29.92-14.48.51-16.87,13.77-25.52,29.85-23.58,8.18.99,19.47,9.93,19.47,18.66v9.53Z" fill="#fff"/>
    <path d="M143.72,760.85c1.71,2.21,4.19,4.23,2.03,7.46-4.71,4.97-33.46,3.86-39.77,1.02-6.65-3-1-10.92,2.96-13.49,10.25-6.64,27.16-4.82,34.78,5.02Z" fill="#fff"/>
    <path d="M109.53,750.36c.19.33,1.66-.08,1.06,1.52-4.16,3.44-26.09,3.67-28.31.39-3.76-5.55,7.49-10.79,12.37-10.74,6.95.08,11.55,2.98,14.88,8.83Z" fill="#fff"/>
    <path d="M60.48,782.98c5.91-.59,22.07,3.5,18.22,11.64-2.26,4.77-29.34,4.44-31.13-.44-2.16-5.89,8.46-10.76,12.9-11.2Z" fill="#fff"/>
    <path d="M556.21,397.14c7.6-.67,23,7.38,18.23,15.6-1.64,2.83-26.41,2.59-29,.71-.27-.2-3.38-5.47-3.45-5.8-1.21-5.48,9.87-10.13,14.23-10.52Z" fill="#fff"/>
    <path d="M541.02,409.65c2.08,1.47,2.48,5.34-.93,6.21-2.51.64-18.05.36-18.57-2.2,1.14-6.36,15.94-6.52,19.5-4.01Z" fill="#fff"/>
  </g>
  <path d="M438,470.89" fill="#fff" stroke="#000" stroke-miterlimit="10"/>
  <path d="M481.14,208.31c-.99-1.38-.45-5.57,1.6-5.24,2.62.41,1.7,6.17-1.6,5.24Z"/>
  <path d="M543.46,205.7c1.53.18,1.64,5.48-1.31,4.58-2.27-.69-.41-4.78,1.31-4.58Z"/>
  <path d="M429.27,204.11c-2.06-2.05-.11-7.03,3.11-5.46s.84,9.39-3.11,5.46Z"/>
  <path d="M436.33,199.67c-3.27-1.77-5.07-3.39-9.2-2.63l.05-1.91c3.93-1.76,9.48-.49,9.15,4.54Z"/>
</svg>