<?xml version="1.0" encoding="UTF-8"?>
<svg id="Camada_1" xmlns="http://www.w3.org/2000/svg" version="1.1" viewBox="0 0 595.28 841.89">
  <!-- Generator: Adobe Illustrator 29.0.0, SVG Export Plug-In . SVG Version: 2.1.0 Build 186)  -->
  <path d="M.14,841.29V-.06h595v841.34H.14ZM273.64,3.89H4.08v97.28c1.25-.17.82-2.39,1.36-3.44,14.44-27.94,26.26-46.71,58.99-56.19,66.92-19.39,122.05,28.86,125.09,94.77,2.03,43.91-1.58,89.37-.01,133.45.52,2.65,5.19,3.43,7.22,5.93,1.59,1.97,1.99,4.92,3.33,6.53,3.43,4.12,8.47,3.5,9.66,11.37.68,4.49-1.52,6.76-1.52,9.7,0,3.96,2.98,7.96,2.33,14.45-.39,3.91-3.93,8.65-3.92,10.44s1.44,4.82,1.77,6.84c4.55,27.73,6.72,53.77-23.24,67.11-1.83.82-9.43,2.43-9.36,4.24,0,.22.59,1.62.67,1.67.39.24,7.17.67,8.98,1.2,2.33.68,7.67,3.3,9.91,4.55,22.03,12.36,29.45,40.98,55.15,46.09,2.91.58,22.19,3.13,23.16,2.15l.66-50.62c-8.67.58-17.25,1.93-26,1.34-5.87-.39-15.57-1.06-14.17-9.17-2.47-.65-5.27-.44-7.21-2.32-3.06-2.97-.94-6.38-1.31-6.89-.22-.31-3.07-.48-4.07-2.84-1.77-4.16.85-6.69.68-8.6-.24-2.72-3.04-5.21.37-8.76,3.75-3.9,21.43-8.91,27.35-10.45,1.56-.41,3.14-.08,4.66-.6,1.81-.97-2.11-3.43-2.55-4.06-2.31-3.26-5.87-11.48-.75-13.69,5.45-2.35,21.77,8.81,23,7.54l-.65-349.02ZM590.54,3.89h-312.95v26.62l.99.99h311.96V3.89ZM290.08,34.12h-12.16c-.16,0-1.53.67-1.67,1.09-.75,2,3.56,3.8.03,4.18l1.31.65v21.03c6.4-2.6,8.57-8.62,10.59-14.6.18-.53,1.06-.5,1.21-1.01.4-1.42,1.1-10.94.7-11.34ZM355.17,34.12h-61.8c.22,36.58,59.92,35.8,61.8,0ZM422.23,34.12h-62.13c-.22,0-2.15.76-1.66,1.64.15.51,1.08.13,1.31.8.81,2.4.82,4.79,2.09,7.66,11.77,26.72,59.78,20.52,60.39-10.09ZM489.94,34.12h-62.79c-3.32,5.63,3.75,14.42,7.86,18.44,13.55,13.23,40.23,10.87,50.6-5.35.77-1.2,3.23-5.44,3.63-6.36.9-2.06.71-4.53.7-6.72ZM557.01,34.12h-62.79c-1.38,1.71.11,6.23.86,8.34,4.56,12.77,19.81,19.19,32.7,18.64,14.87-.63,29.41-11.19,29.22-26.98ZM590.54,34.12h-28.6c-2.94,0,1.93,10.49,2.67,11.79,2.33,4.1,6.56,8.05,10.59,10.45,4.8,2.86,9.76,4.26,15.34,4.71v-26.95ZM170.64,84.52c-19.91-31.97-51.64-48-89.97-43.16-1.19.15-1.07-.26-.98,1.31,26.04,1.92,48.84,17.54,61.92,39.66,9.36,15.84,14.24,32.14,18.28,49.53l.64,129.94c4.09,1.41,8.48,1.35,12.33,3.56,1.71.98,3.68,4.01,3.95,4.08,2.6.7,7.11-.83,10.05.64v-139.01c-1.7-16.95-7.37-32.37-16.21-46.56ZM531.36,513.62c-.87,4.97.64,12.18,0,17.42,2.79-1.06,5.16-.25,7.67-.25,7.93.03,16.92-1.07,24.77.36,3.9.71,8.36.94,6.01,6.45-.86,2.01-10.87,7.77-9.51,9.21.76.28,1.47-.65,1.64-.65h9.86c.44,0,4.85,2.49,5.54,3,1.34,1,5.79,6,6.49,7.29.64,1.17,1.27,5.87,1.51,6.07l5.2.07V64.36c-13.61-1.18-25.64-8.72-30.57-21.71-.81.04-1.14-.29-1.7.42-1.33,1.69-2.42,5.63-4.28,8.08-1.37,1.82-4.14,4.47-5.97,5.86-18.37,13.95-47.55,7.31-56.43-14.34-8.55,19.86-31.78,26.99-51.1,17.57-4.71-2.3-7.48-6.43-11.69-9.35l-4.91-8.23c-8.18,21.52-36.08,27.62-54.74,15.28-5.7-3.76-8.7-10.65-12.65-15.94-7.48,24.64-42.18,29.56-59.19,11.52l-5.24-7.57c-.39,2.09-.99,5.04-2.07,6.84-.63,1.05-4.81,6.22-5.83,7.29-1.41,1.47-6.26,4.29-6.57,5.92l-.04,288.59c-.03.59,4.08,3.38,4.47,3.49.53.14,7.68-1.13,8.89-1.38,3.65-.77,26.71-7.17,27.83-9.03.4-.67-.41-1.98-.1-3.28.95-3.88,4.18-7.97,5.58-11.06,6.21-13.69,12.43-29.34,22.64-40.65,1.42-1.57,10.93-9.03,10.93-9.76-4.98-4.37-11.5-6.74-16.43-11.17-7.82-7.02-4.18-9.03-2.81-17.95,2.79-18.27,5.34-36.66,7.42-55.03.39-3.41-.02-9.29.68-12.36.12-.52,1.19-.18,1.35-1.39.18-1.39.21-7.28-.07-8.46-.12-.53-1.19-.19-1.35-1.4-.61-4.63.67-8.9,1.53-13.03,10.29-49.51,61.49-65.08,106.22-51.96,47.13,13.83,55.66,56.8,69.06,97.89.3.92,1.21.88,1.51,1.83,3.88,12.15,7.28,24.52,10.48,36.88.05,4.91-6.5,8.08-9.22,11.86l-19.74,13.77c10.02,5.57,18.43,10.61,26.3,19.04,31.39,33.62,34.64,98.74,30.88,142.65-.65,7.64-2.19,15.26-2.71,22.92-.77,2.34-7.65.72-8.79,3.04-1.02,2.09-.09,10.94-.33,14.13-.63,8.38-2.31,17.79-5.79,25.11-1.54,3.24-5.19,9.86-8.69,11.02-2.63.88-5.19-.73-5.89,3.31ZM100.4,115.63H4.08v119.63c26.23-2.75,50.06,13.72,72.67,24.38l31.58-19.79c.79-1.65-6.38-29.88-7.55-33.87-.31-1.05-1.16-1-1.3-1.48-1.91-6.34-3.47-12.84-5.33-19.19-1.29-.33-1.27.53-1.85,1.1-6.45,6.36-13.08,16.92-16.51,25.04-.66,1.55-2.13,9.13-3.11,9.38-5.48,1.36-6.33-6.86-7.52-10.69-.16-.52-1.04-.49-1.19-1.03-2.16-7.64.18-16.33,3.63-23.08,1.35-2.64,3.81-4.61,4.85-7.3-1.48-1.28-18.31,7.37-20.87,9.04-3.48,2.27-10,9.13-12.67,10.33-1.02.46-2.14.53-3.22.28-2.99-16.74,10.63-30.94,25.13-36.86,3.87-1.58,8.79-2.85,12.94-3.17-5.3-5.11-15.48-7.14-22.65-7.26-4.7-.08-9.52,1.78-14.07-.06-1.4-5.2,4.83-7.56,8.67-9.22,14.4-6.23,32.96-5.02,44.17,6.67,9.45-15.35,27.42-25.66,45.84-22.82,2.42.37,6.47,1.88,4.5,4.79-.91,1.35-14.07,7.65-17.1,9.87-3.26,2.39-8.95,7.43-11.65,10.37-.45.49-2.66,3.27-2.2,3.71,16.62-7.14,35.51-3.02,47.33,10.52-.32-8.18.45-16.5.03-24.68-1.86-36.61-23.47-79.63-60.36-91.49-34.96-11.24-58.63,3.41-77.72,31.54-.71,1.05-2.61.85-1.98,3.11,7.58-2.17,13.86-.95,20.37,3.29,6.66-24.57,40.01-20.65,38.8,5.91,2.07-.48,3.07-2.18,5.26-2.95,15.72-5.51,30.15,12.36,19.39,25.96ZM4.74,113h93.03c3.13-3.7,4.41-6.73,2.75-11.64-2.35-2.18-2.9-4.95-5.7-7.1-3.94-3.04-8.85-3.41-13.42-1.57-2.31.93-6.2,5.53-7.93,5.19-2.14-.42-.36-5.49-.42-6.82-.54-11.14-8.25-19.18-19.82-17.33-6.72,1.07-12.64,8.53-14.13,14.8-.52,2.2.61,4.59-1.81,6.06-2.83-4.8-4.38-8.4-10.59-9.11-14.8-1.7-16.13,11.01-20.04,21.75-.37,1.01-2.98,3.06-1.91,5.78ZM448.52,112.33c-.38-1.34-2.12-1.41-3.25-1.67-6.56-1.5-21.46-2.58-27.93-1.57-3.41.53-12.32,8.04-14.85,10.79-7.74,8.38-13.7,20.38-14.45,31.9l22.37-.98c6.51-17.41,19.61-33.43,38.12-38.47ZM409.08,109.72c-5.26,1.33-11.37,2.37-16.42,4.28-2.65,1.01-13.44,6.26-15.09,7.92-2.39,2.41-9.16,16.95-10.25,20.64-.4,1.35-2.69,10.78-2.29,11.19l19.11-1.59c2.71-12.19,6.09-22.81,14.4-32.27,3.22-3.67,7.23-6.6,10.53-10.17ZM482.05,129.43c.29-1.15-.48-1.31-.98-1.98-2.83-3.73-19.72-12.73-24.48-13.64-3.5-.67-11.56,2.22-14.99,3.77-8.79,3.97-19.37,15.97-23.96,24.17-1.56,2.78-2.56,5.87-3.96,8.71h22.02c6.33-7.64,14.41-14.11,23.83-17.59,2.19-.81,10.54-3.44,12.33-3.44h10.19ZM81.01,161.64h-10.85c-1.86,0-9.44,3.22-11.52,4.26-11,5.52-19.6,15.78-21.04,28.27.55,1.03,1.14.06,1.66-.32,4.14-3.02,7.84-6.77,12.21-9.48,8.69-5.4,20.62-9.69,30.84-10.24,1.79,1.74-6.09,5.82-7.24,6.88-9.2,8.42-10.3,25.38-4.26,35.84,2.92-10.68,9.27-22.28,16.83-30.5,1.55-1.69,9.84-9.34,11.49-9.59,5.58-.87,22.95,9.96,27.55,13.81,3.92,3.29,6.46,7.92,10.86,10.5,2.58-3.55-6.36-20.14-9.22-23.31-2.26-2.51-5.46-4.46-8.51-5.95-1.93-.94-8.27-2.6-8.56-2.95-.06-.07-.08-1.75.03-1.92,11.55-3.56,24.82-3.21,36.26.81,3.23,1.14,5.73,3.29,9.07,3.74-7.57-16.02-28.42-21.32-44.39-15.12-3.2,1.24-5.53,3.68-8.86,3.95-3.35-3.52,14.9-20.11,18.19-22.23l15.34-9.31c-17.55-2.05-32.88,4.03-42.6,18.86-.95,1.45-1.77,4.96-3.34,5.15-2.55.31-6.39-5.03-8.66-6.56-11.58-7.79-31.3-5.92-42.04,2.25,9.02-.62,17.63-.63,26.27,2.34,2.11.72,17.79,7.44,14.49,10.82ZM361.59,154.26c1.15-8.71,4.08-16.74,7.38-24.82-4.26,2.43-6.61,7.4-9.18,11.34-.41.62-1.45.82-1.88,1.55-1.11,1.88-5.75,11.92-4.7,13.4l8.39-1.47ZM500.06,153.51c-1.19-2.21-2.12-4.89-3.29-6.91-2.45-4.21-8.12-13.96-13.06-14.55-10.73-1.29-26.61,3.69-35.13,10.25-3.04,2.34-5.21,5.83-8.6,7.84,8.43,1.79,19.59-1.36,19.72,10.85,13.84-3.99,28.53-4.77,42.73-2.64.4-2.14-1.87-3.89-2.37-4.84ZM352.04,159.17l-1.95,14.64c.16.74.78.95,1.47,1.01,2.85.29,11.51-2.15,15.19-2.58,14.57-1.68,29.97-2.36,44.6-2.74,14.96-.38,30.33.06,45.1.41,1.54-1.12.15-12.28-1.31-13.9-1.14-1.26-7.6-2.1-9.58-2.25-20.45-1.52-47.08.24-67.7,1.97-3.17.27-24.85,2.57-25.82,3.43ZM511.87,183.79c-1.4-3.15-6.76-22.14-8.54-22.71-14.32-1.67-28.93-1.02-42.9,2.6l1.9,22.94c16.95-2.61,33.56-3.61,50.62-1.32.63-1.61-.95-1.22-1.08-1.51ZM156.61,174.79c-2.39-.56-4.09-2.16-6.4-3.13-1.85-.78-11.67-4.1-12.99-4.1h-17.09c-.12,0-1.17,1.06-.98,1.31,11.34,3.38,21.71,18.33,21.62,29.99-.01,1.82-.76,3.9-1.55,5.53-.86.97-1.9.7-3.01.36-1.8-.56-8.96-9.36-11.5-11.53-1.91-1.64-13.73-10.54-15.43-9.22,3.39,5.21,5.88,10.56,8.21,16.44s5.02,12.44,7.01,17.99c1.37,3.82,2.59,8.21,3.19,12.23l16.76-3.95h12.16v-51.93ZM458.29,172.91c-1.09-.57-2.28-.69-3.5-.78-13.37-.97-31.16-.44-44.76,0-14.74.48-36.98,1.29-51.08,4.15-6.84,1.39-6.03,1.83-5.79,8.72.43,12.53,1.61,27.48,2.67,40.06.56,6.71,4.09,12.76,8.83,17.46.74.73,4.55,3.69,5.29,3.69,2.46-1.09,3.73-3.82,5.94-5.68,3.41-2.88,7.17-4.34,11.49-5.28-.27-2.19-2.07-3.47-2.47-5.73-.98-5.43,3.48-13.45,5.29-18.72.9-2.61,1.59-7.95,2.59-9.9,1.16-2.27,3.07-1.24,3.2,1.16.23,4.19-5.14,13.66-6.66,18.39-1.62,5.05-3.67,10.68,2.77,13.06,8.12,3,13.48-2.52,17.17-1.55.55.15.57,1.41,2.08,2,3.7,1.47,10.35,1.53,14.8,2.96,4.11,1.32,9.09,3.88,12.27,6.78,11.08-5.58,21.97-19.64,22.45-32.43l-2.58-38.35ZM99.91,179.5c-1.03.22-3.69,2.3-3.75,3.47-.05.87,2.16,8.28,3.54,8.24l8.22-3.67c-.56-3.05-4.6-8.74-8-8.03ZM521.5,212.91l-7.68-24.19c-16.8-2.93-34.19-2.73-50.74,1.28.02,4.64-.35,9.39-.08,14.04.1,1.75.65,9.22,1.69,9.46,18.84-2.88,37.91-2.54,56.82-.58ZM351.78,204.26c.45-.74-.43-8.44-.64-10-.14-1-.31-3.97-1.23-4.35l-1.32,15.11,3.18-.76ZM109.9,190.57l-9.07,3.37,2.59,11.68,11.78-3.24-5.3-11.81ZM116.47,205.05l-12.46,3.93,4.32,13.76,12.06-3.97-3.92-13.71ZM351.82,207.71c-5.51-.68-2.53,2.56-5.19,4.34l-1.98,18.61,8.55-.65-1.38-22.29ZM522.73,216.28c-19.34-3.06-39.05-2.51-58.43-.08.4,3.82-.52,8.52-.05,12.21.16,1.25,1.26.64,1.42,1.88.29,2.29-1.19,11.24,1.29,11.27,21.45-3,43.01-1.54,64.4.93-2.92-8.74-4.71-18.14-8.63-26.21ZM123.35,226.47c-.5-1.25-.92-4.7-1.95-4.97l-12.72,3.96,2.6,12.42,13.73-5.31c.44-.52-.09-3.57-.35-4.48-.37-1.3-1.22-1.44-1.29-1.62ZM156.61,230h-13.48c-1.86,0-9.7,2.38-12.02,3.1-18.08,5.65-34.59,17.74-50.45,27.78-.98,1.38,1.43,2.29,2.38,2.92,2.02,1.34,11.48,5.24,12.13,6.28.76,1.23.15,2.64-1.31,2.66-19.09-9.43-36.91-21.7-56.91-29.25-10.15-3.83-22-7.4-32.86-5.6v74.93h69.36l.82-.96c-2.65-9.48,2.64-20.62,10.74-25.6,2.7-1.66,8.06-2.74,9.61-3.87,1.05-.76,2.32-4.69,3.47-6.06,2.57-3.09,9.54-6.96,13.55-7.49,2.88-.38,7.26.71,9.05.41,1.14-.19,5.02-3.18,6.55-3.87,4.94-2.23,9.68-3.31,15.19-2.47,1.85.28,4.83,2.39,6.08,2.46,1.15.06,5.63-3.69,8.1-2.5v-32.86ZM340.7,256.95h9.53c.75,0,5.32-.91,5.51-1.69l-2.55-21.97c-1.63.04-8.58-.37-9.21,1.13l-3.28,22.54ZM468.34,266.72c1.3.8,15.14-1.14,17.96-1.25,7.88-.29,15.69.48,23.54.53,1.64-.34,17.92-12.19,19.57-13.96,1.32-1.41,2.68-3.37,3.25-5.24-.34-1.49-9.79-2.7-11.57-2.91-18.24-2.19-36.57-1.22-54.82-.09l2.07,22.92ZM415.65,245.78c-3.47.58-5.94,3.38-9.59,3.88-2.12.29-6.24.28-8.33-.1-3.29-.59-7.61-5.69-9.01-.85,3.26,9.05,18.38,7.12,24.52,2.2,1.98-1.59,2.85-2.22,2.41-5.14ZM358.69,269.21c-1.47-3.16-1.62-6.78-2.85-10.02-3.16.84-14.9-.77-16.01,1.85-1.62,4.05.55,6.36,3.5,8.73,1.97,1.58,15.96,10.42,17.61,10.73,1.45.27,2.96-1.29,4.05-2.18-2.12-2.62-3.66-5.43-5.25-8.39-.19-.36-.94-.49-1.05-.72ZM465.61,267.47c-1.88-.36-1.06.5-1.49,1.43-12.29,26.78-44.08,32.99-70.84,26.51l-9.85-3.3c8.28,17.07,31.47,18.46,47.85,14.32,14.27-3.61,26.76-12.87,34.85-24.99l-.53-13.97ZM468.91,270.09v10.85c0,5.7,7.74,4.78,11.71,3.82,3.06-.74,19.77-11.35,22.42-13.74.6-.54,1.52-.93,1.38-1.91l-35.51.98ZM520.19,285.21c-1.45-2.41-15.88-10.55-17.29-10.35-8.43,4.03-18.86,14.94-28.87,14.17-2.86-.22-4.59-2.17-7.09-2.83-6.53,6.58-12.03,12.67-20.37,17.11-17.97,9.57-51.16,12.72-64.44-6.11-1.77-2.51-2.36-6.81-3.58-8.07-2.37-2.46-8.99-4.3-11.31-7.74-3.68.5-4.16,2.73-5.17,5.8-8.42,25.47-10.25,62.64-8.88,89.73.38,7.56.02,15.3,2.3,22.68,6.34,1.72,35.39,8.67,39.78,6.23.4-.22,2.19-3.01,3.29-3.95,11.06-9.43,25.67-6.27,34.19,4.62,21.38.67,42.83-2.12,63.75-6.28-.31-29.29-12.14-61-1.78-89.54,3.97-10.94,12.24-19.53,22.59-24.74.91-.46,1.87-.74,2.89-.73ZM323.23,341.35c-.75,1.54-2.3,3.12-1.32,5.04l27.68,17.71c.76-26.05,2.48-52.3,8.86-77.57-7.51,5.63-13.04,12.52-18.02,20.43-6.92,10.98-11.63,22.93-17.2,34.39ZM535.57,300.08c-1.85-2.46-8.59-11.77-11.13-12.24-4.11-.76-12.65,4.46-15.73,7.25-26.05,23.58-11.56,73.07-8.9,104.17.25,2.95-.4,6.46-.04,9.24.16,1.25,1.26.64,1.42,1.88.55,4.37.55,18.73,0,23.09-.16,1.25-1.26.64-1.42,1.88-.65,5.15.6,11.69.03,17.02.46,1.89,19.75,4.84,22.71,5.04,7.15.48,17.87.54,25,.03,1.57-.11,8.58-1.12,9.49-1.68,2.57-1.57,1.37-11.69,2-14.32,1.07-4.41,2.26-9.88,2.61-15.25,1.8-27.69-.06-55.41-6.1-81.96-3.78-16.6-9.76-30.62-19.93-44.15ZM205.49,340.89c-1.3-6.52-2.31-13.05-3.83-19.54-.5-2.14-4.28-19.05-5.27-19.04-5.79,6.5-13.81,5.59-20.39.81-6.35,5.84-15.55,5.93-22.91,1.88-6.58,8.04-16.47,7.89-25.4,3.87-1.63,6.75-8.2,9.95-13.8,12.86,4.24,7.21,4.43,22.45-1.32,28.71-.96,1.05-3.14,1.65-3.62,2.49-.68,1.19.1,2.99-1.34,3.93-4.23-3.8-7.86-7.07-14.01-5.46-10.18,2.67-12.27,17.01-5.8,24.3,2.33,2.62,9.06,6.14,12.59,6.14,2.67,0,6.82-2.67,8.87-1.66,1.28.63,1.4,2.56,2.18,3.44,11.09,12.58,21.5,19.35,38.89,20.6,42.83,3.09,64.75-20.32,56.19-62.62-.1-.49-1.01-.55-1.04-.69ZM4.08,315.45v252.4h38.79c.46-8.38,3.86-16.33,7.19-23.93-5.82-4.35-8.36-2.91-7.83-11.23,1.04-16.31,8.73-39.96,14.6-55.07,10.52-27.07,25.19-54.54,53.78-65.87,2.35-.93,11.13-2.94,12.07-3.58.59-.4,2.39-4.41,1.72-5.31-2.6-.24-5.66.37-8.18-.04-2.24-.36-5.37-2.84-7.44-3.13-1.69-.24-3.69.65-5.75.59-6.49-.2-11.8-4.86-15.43-9.74-.61-.82-1.07-3.08-1.46-3.33-.67-.43-4.01-.37-6.02-1.54-4.44-2.58-8.08-7.75-8.8-12.89-.37-2.59.32-6.14-.31-8.24-.26-.88-3.06-3.6-3.92-5.28-1.71-3.33-1.21-4.9-1.87-7.89-.12-.53-1.25-.52-1.32-.77-.49-1.87,1.06-1.41,1.29-2.12.54-1.7.57-3.68,1.34-5.78.47-1.28,2.47-3.63,2.41-4.58-.03-.45-2.27-3.61-2.72-4.94-2.12-6.37.37-11.36,2.95-17.08l-65.09-.66ZM288.38,369.08c-2.75-4.1-5.69-7.44-9.94-10.12-3.73-2.35-18.74-9.98-22.54-11-1.92-.52-4.39-.48-4.62,2.02-.39,4.14,5.68,9.4,7.77,13.25,4.13,7.6,2.28,9.31,10.72,14.26,1.9,1.11,5.22.95,4.53,3.69-9.02-.15-14.14-7.11-17.09-14.79-2.69-1.62-14.69,2.47-18.11,3.59s-13.85,4.38-15.09,7.27c-.9,2.09-.32,4.12,2.1,4.45,1.86.26,12.88-2.04,15.46-2.67,1.91-.47,9.01-4.87,7.76-.25-.39,1.46-15.1,4.53-17.52,4.95-2.84.5-7.11-.95-7.99,3.21-.5,2.36.89,5.27,3.49,5.36,7.08-.49,15.16-3,21.99-3.62,3.77-.34,3.47,1.47.02,2.69s-19.68,2.89-20.44,4.05c-4.34,6.7,11.4,4.61,14.4,4.35,2.07-.18,11.51-2.62,11.95-.51.32,1.55-4.22,2.36-5.26,2.62-2.86.71-11.14.95-12.5,1.96-2.03,1.51,0,3.88,2.08,4.5,12.28,3.7,39.36.14,50.76-6.22,3.5-1.95,3.33-3.52,3.69-7.49.79-8.86-.76-18.28-5.63-25.56ZM351.77,398.15l-2.57-29.74c-5.01-2.86-22.1-18.85-26.99-18.44-10.99,5.08-22.84,7.08-34.41,10.2-.72.2-1.21.23-1.66.96.99,1.83,3,2.91,4.1,4.43,7.82,10.86,7.98,29.95,4.66,42.47-.73,2.76-1.61,4.53-3.52,6.66,21.25-1.18,42.04-5.51,60.37-16.55ZM429.74,408.51c-18.03-23.95-48.85,3.67-31.19,24.28,15.59,18.2,45.78-4.91,31.19-24.28ZM173,406.21c-15.31,2.52-30.93,1.19-45.31-4.66-.73,6.93-3.68,7.72,1.04,13.75,7.62,9.74,25.58,13.67,36.68,8.52,8.41-3.91,10.27-8.74,7.59-17.61ZM277.59,505.41v56.53h60.49c1.11-11.89,1.09-23.91,1.98-35.81,1.96-26.19,4.84-52.99,8.63-78.13,1.04-6.87,3.25-15.19,3.84-21.79.71-7.85-.66-16.12.35-24-.67-.89-.86-.58-1.69-.36-3.84,1.01-9.8,5.22-14.09,6.96-13.24,5.36-33.02,8.83-47.32,9.22-4.2.11-8.36.56-11.53-2.66l-.36,45.38c.73.98.82.34,1.5.16,4.51-1.17,12.16-8.3,16.59-6.42,3.92,1.67,1.66,8.93-.64,11.48,6.07,1.48,23.54,2.11,24.32,10.26.21,2.22-1.43,3.41-1.31,5.14.1,1.38,1.38,2.53,1.39,4.65,0,3.78-2.36,3.19-4.61,5.25,5.3,6.89-5.22,7.31-5.88,8.33-.31.48-.05,2.55-.84,4.09-4.06,7.92-23.8,2.54-30.82,1.72ZM355.82,402.87v19.39c3.57,2.6,34.78,8.13,36.16,6.9-2.3-6.37-2.04-12.95.05-19.31l-36.21-6.98ZM497.18,423.57v-19.72c-.49-.65-.57-.74-1.35-.73-3.52.04-10.16,2.32-14.2,2.92-15.54,2.33-31.19,3.61-46.9,4.05,2.1,6.99,1.84,13.84-.67,20.69,12.37-.4,24.83-.81,37.15-2.3,6.83-.82,17.94-2.14,24.3-3.97.68-.2,1.28-.26,1.67-.96ZM278.9,409.45c-.1,3.52,4.18,4.92,7.23,4.28,4.69-.98,5.95-5.33,6.57-9.55-4.21,2.13-9.11,4.74-13.8,5.26ZM205.48,546.64c-.27-.61-.8-11.24-.9-13.27-1.51-30.39-1.83-61.08-5.32-91.31-.52-4.51-2.27-21.34-3.98-24.28-1.47-2.53-15.13-7.55-17.92-7-1.28.25-.38,4.23-.19,5.39,2.65,15.97,6.56,31.02,7.7,46.85,4.51,62.51,2.9,125.59,8.55,187.99.3,3.36,1.13,5.92,1.37,7.84.68,5.33-.15,12.54.6,18.12l19.73-3.3-6.57-83.15c-.66-9.62-.09-37.25-3.08-43.88ZM122.29,411.53c-.99-.57-13.76,4.02-15.45,5-3.02,1.75.39,5.95,1.31,8.83,10.51,32.84,11.25,57.58,10.3,92.18-.85,30.8-2.52,62.84-7.26,92.66l-6.44,67.04,1.57,1.04c6.61-.08,13.89,1.24,20.41,1.2,2.58-.02,2.7-1.96,2.92-4.16,2.75-27.68,4.28-56.42,6.59-83.46,3.9-45.57,7.8-103.24-1.5-147.07-2.39-11.29-4.62-24.57-12.45-33.25ZM103.35,419.3c-1.81-1.62-13.94,9.11-15.71,10.92-16.58,16.99-27.32,44.58-34.86,66.5-.56,1.62-.56,4.5-1.41,6.33,14.45,7.61,31.02,11.53,47.43,10.63,1.18-.87-.26-3.48,1.91-4.12l5.4-39.19c2.36-2.93,2.58.81,2.5,3.14-.49,13.29-4.99,32.97-7.13,46.78-.56,3.59-1.59,7.88-2.03,10.57-.72,4.39-.72,13.22-2.18,16.77-1.36,3.32-5.58.66-7.74,2.91-1.32,5.53,8.42,25.1-2.95,24.6-3.43-.15-3.63-2.41-6.22-4.01-1.32,4.58-1.33,10.5-3.2,14.85-.98,2.29-2.43,2.77-3.21,6.68-4.21,21.27-4.64,43.78-10.01,64.38-.8,3.09-.16,7.72-1.39,10.96,12.12,6.08,25.84,7.82,39.14,9.63,2.08-9.1,2.02-18.66,2.99-27.95,4.68-44.61,10.77-89.22,11.86-134.06.61-25.11-.34-51.2-6.65-74.92-1.93-7.24-4.37-14.26-6.53-21.41ZM182.47,480.25c-1.24-2.73-2.12-30.88-2.85-36.95-.93-7.74-2.4-15.78-4.26-23.34-2.89,3.27-6.71,5.63-10.74,7.33l5.14,41.64.66,34.5c2.48-.03,12.36-.76,13.53-2.63-1.19-6.28.48-13.25-.32-19.44-.15-1.17-1.06-.91-1.15-1.12ZM206.35,425.45c-1.37-1.35-4.47-3.63-6.15-4.7-.96-.61-1.71-1.45-1.49.17,1.39,10.72,3.56,21.21,4.58,32.24,1.08,11.65.52,25.08,1.92,36.19.16,1.25,1.26.64,1.42,1.88.3,2.39-.25,5.43-.08,7.96,3.71,53.21,5,106.67,10.54,159.7.37,3.58.73,4.24,1.31,6.69.53,2.26-.61,5.16.33,7.42,1.97-.76,11.66-3.67,11.95-5.53.04-.22-.36-4.1-.46-4.52-2.43-9.97-3.98-22.64-5.23-33.66-3.15-27.64-3.76-56.54-7.95-83.43l-7.17-85.83,2.58.05,4.13,41.55c.44,1.05,7.71,5.02,8.4,4.41-2.8-16.81,4.28-33.24,13.14-46.99-4.4-3.46-8.86-6.85-12.82-10.83-6.76-6.8-12.57-16.49-18.96-22.78ZM155.3,504.1c.56-19.81.09-39.72-2.72-59.4-.53-3.75-1.3-10.59-2.54-13.89-1.14-3.02-3.97-1.91-6.46-2.75-3.9-1.31-7.41-3.51-11.29-4.81.88,3.32,1.73,6.7,2.69,9.99,1.65,5.68,3.47,11.61,4.44,18.03,2.62,17.2,3.52,34.74,3.42,52.13l12.46.69ZM497.18,454.8v-27.61c-17.21,3.55-34.7,5.47-52.24,6.6-3.79.25-9.01-.63-12.49,0-2.3.42-6.89,5.31-10.44,6.65-11.52,4.37-20.46.02-28.52-7.86-8.71-.57-17.43-1.92-25.98-3.6-1.95-.38-11.27-3.65-12.01-2.48-2,9.26-3.5,18.68-4.84,28.06-6.1,42.58-9.39,86.53-11.3,130.02-.49,11.11-1.06,22.43-1.29,33.5-.18,8.86-.13,17.87.32,26.68,1,2.03,13.2,4.45,16,5.04,39.49,8.32,95.31,11.31,135.22,6.11,5.13-.67,10.25-2.22,15.44-2.64.7-6.97-7.04-3.71-8.75-10.64-.79-3.19.77-4.02,2.84-6.1-12.32-7.22-23.59-20.12-26.1-34.36-.58-3.27-.3-8.63-1.13-11.36-.64-2.1-6.36-7.6-7.78-10-10.33-17.48-2.27-38.77,19.9-34-1.34-5.08-10.41-5.88-10.54-11.5-.08-3.53,2.8-3.74,5.69-4.19,8.89-1.38,18.67-.12,27.55-.11,7,0,14.14-.84,21.31-.01,1.08-3.52.1-6.7,0-10.11-.05-1.98,1.46-5.3-.29-7.6-2.73-3.56-8.67,1.79-12.51,1.36s-3.91-3.17-4.98-3.94c-.79-.57-3.66,3.1-7.4-.14-1.08-.93-1.47-1.44-1.7-2.9-1.13-7.08,1.14-15.57,1.93-22.63-7.46,3.94-19.26,1.94-15.06-8.69,1.71-4.33,8.16-12.95,11.24-17.19.93-1.28,2.62-.95,1.83-3.67l-3.92-.69ZM158.58,504.1l8.92-.62c.12-22.85-.89-47.37-5.08-69.93-.24-1.27-.43-4.67-1.58-4.97l-7.52.58c4.06,24.76,5.7,49.81,5.26,74.94ZM289.85,469.03c1.4-1.65,8.24-11.09,4.43-12.23-.86-.26-13.31,6.61-16.16,7.41-1.98.56-5.78.14-6.95,1.27-1.56,1.51-4.49,10.5-5.49,13.1-.18.48-1.03.54-1.35,1.44-.84,2.36-3.15,10.54-3.16,12.66,0,.9.03,1.17.58,1.91,1.35,1.83,11.89,6.42,14.51,7.2,4.85,1.43,26.5,5.43,29.29,1.01v-2.03c-2.06-3.28-16.32-.38-15.48-4.23,1.12-1.45,3.3-1.08,4.95-1.02,6.14.21,12.63,3.15,18.4-.62.85-.84.15-1.07-.37-1.62-3.7-3.97-12.6-1.74-17.38-3.65-6.49-2.6,5.46-2.72,7.22-2.62,2.65.15,13.81,3.19,14.19-1,.61-6.56-19.2-3.67-19.6-7.2l.92-1.69c2.69-.96,23.16,5.83,17.53-2.41-2.36-3.46-17.11-5.06-21.55-6.12-1.57.21-3.8,3.37-5.41,4.5-1.88,1.31-10.49,6.86-9.13,1.39l10.01-5.44ZM549.12,460.05c-14.6.99-29.24-.03-43.71-2.62l-2.02,1.28c-2.68,3.51-16.89,20.67-11.7,24.41,2.85,1.24,8.1.62,10.45-1.35,1-.84,2.41-5.73,3.94-3.33,1.27,1.98-2.22,19.42-2.35,23.33-.09,2.91-.33,6.59,2.97,7.59,5.83-2.94,8.21-9.18,9.88-15.12.65-2.3.66-9.6,3.63-7.59.49.34.57.71.6,1.27.07,1.08-1.91,9.24-2.4,10.78-.96,3.02-4.33,7.73-4.69,9.83-.84,4.89,5.16,4.19,7.68.38,4.25-6.45,4.27-12.76,6.57-19.73,1.32-4,2.94-2.11,2.68,1.34-.46,6.09-3.51,12.6-5.16,18.45,5.4,4.45,7.39-5.21,8.68-8.99.77-2.28,1.84-5.08,2.41-6.92.72-2.34-.1-5.71,2.35-7.37,1.14.77,1,1.75,1.04,2.94.11,3.08-2.08,11.45-3.25,14.54-.42,1.11-1.96.91-1.42,2.55.7,2.13,3.36,0,4.29-.98,4.64-4.85,9.17-22.83,9.55-29.23.31-5.12-.28-10.36-.02-15.48ZM241.82,488.08c1.97-8.73,3.81-17.08,8.12-25.08-.06-.67-7.75-2.49-8.83-2.32-1.58.24-4.01,5.34-4.85,7.03-2.84,5.73-8.15,19.64-8.63,25.55-.22,2.74-.56,13.54,1.32,15.09,1.62,1.33,8.79,2.5,11.16,3.63-1.05-7.31-.83-15.94.7-23.17.1-.49.98-.56,1.01-.72ZM265.5,471.65c.7-1.43,1.82-3.8,2.34-5.25.25-.68.92-.65-.1-1.44-2.49.16-14.05-2.73-15.21-1.22-1.42,1.86-4.19,9.95-5,12.59-3,9.77-5.48,23.91-4.16,34.02.14,1.07.24,2.06,1.35,2.6s10.92,2.17,12.33,2.16c2.33-.01.27-3.9.13-6.08-.78-12.75,2.89-26.35,8.32-37.4ZM268.99,501.52l-8.49-4c-.69,2.29-1.48,15.59.98,15.76,3.99-2.58,6.69-7.18,7.52-11.76ZM273.48,596.61l-.15-92.54c-1.76-2.71-3.49,3.84-3.94,4.65-4.32,7.73-8.74,9.3-17.7,8.44-11.74-1.13-24.09-5.99-34.59-11.09l8.63,95.22c9.83.87,20.64.54,30.47-.58,2.66-.3,16.04-2.68,17.27-4.1ZM142.81,507.71v19.06c1.56,1.12,5.38,1.48,7.57,1.64,11.07.77,23.51-.9,34.22-3.24l-.37-20.42c-.56-.55-10.91,1.79-12.83,1.97-4.9.44-12.1.72-17.08.73-2.09,0-10.79-2.06-11.51.27ZM96.63,530.23c.42-.42,1.82-10.3,1.86-11.68.02-.6.49-1.15-.36-1.67-16.81-.08-32.89-3.67-48.02-10.82l-2.5,14.33c7.35,3.89,15.81,6.93,24.05,8.48,5.94,1.12,13.5,2.01,19.51,2.2,1.4.04,4.47.13,5.45-.85ZM96.13,533.67c-16.77.05-34.09-2.66-48.99-10.5-1.04.06-2.9,12.14-1.68,14.16,1.39,2.31,14,6.45,17.11,7.21,10.28,2.48,21.13,2.69,31.62,1.99l1.93-12.86ZM192.11,677.61c-.17-9.97-1.43-19.93-1.99-29.87-2.09-37.01-2.23-74.18-4.58-111.1-.13-2-.34-8.03-2.29-8.24-2.8-.3-9.6,2.2-12.86,2.36l5.94,146.53c.15.84.22,1.19,1.08,1.53,1.29.49,12.28-1.37,14.69-1.2ZM133.27,679.59h12.49c.46,0,1.95-.88,2.82-.79,1.49-4.28.5-8.93.77-13.37,2.69-44.27,4.52-88.53,5.97-132.75.02-.55-.02-1.1-.02-1.65l-12.5-.66c-.03,18.79-2.01,37.5-3.28,56.21-1.15,17-1.12,36.61-3.24,53.28-.16,1.25-1.27.65-1.42,1.88-1.12,9.37-2.21,21.57-2.57,30.95-.06,1.52-.51,6.44.98,6.9ZM167.14,530.38h-9.2c-.67,33.24-1.82,66.38-3.3,99.58-.46,10.28-.84,20.59-1.28,30.93-.12,2.74-1.84,16.96-1.05,18.09,6.84,1.5,14.37.32,21.41-.04-.19-11.73-1.26-23.49-2-35.14-.31-4.82-.28-5.78-1.27-10.01-.5-2.12.18-5.96.01-8.45-1.56-23.06-1.91-46.53-2.68-69.62-.28-8.45.15-16.92-.63-25.34ZM477.18,535.88c1.72,1.96,2.81,3.98,5.84,4.4h77.65c1.79.58,7.05-3.48,6.83-4.88l-1.29-1.38-85.83-.38-4.22,1.37c-.25.99.67.47,1.03.88ZM557.33,542.87h-71.33c-.44,2.59,2.94,4.81,3.63,6.54,4.34,10.84-4.75,14.48-9.24,22.36-1.74,3.05-1.9,5.25-2.97,8.08-.24.64-1.16.31-1.29.81-.26.98,1.27,1.64,1.66,1.64h89.74c-.29-5.83-3.67-12.58-7.43-16.9-.47-.54-1.65-.45-2.47-1.32-4.7-4.96-4.72-15.11.38-19.91.61-.35-.49-1.27-.67-1.31ZM86.27,550.11c-4.71-.67-10.15-.19-14.72-.74-5.7-.7-11.89-3.78-16.69-4.4-.8-.1-1.36-.3-2.13.18-.89.56-4.97,10.62-5.45,12.32-2,7.08-2.89,15.37.21,22.21.99.94,1.18-.07,1.3-.98.36-2.82.67-12.68,3.28-13.83,4.56.46.85,3.01.73,3.48-1.25,4.76-3.7,18.25,4.55,16.59.11-4.61-.24-13.98,2.1-17.96,1.09-1.85,3.01-1.69,2.73.71-.35,3.02-1.85,6.49-2.11,9.77-.23,2.96-.58,12.48,5.03,9.3,2.48-1.41.93-15.68,2.74-19.14l2.65-.43c1.74,1.65-4.9,18.93,1.64,20.38,3.25-3.08,2.59-8.43,3.66-12.02.16-.55,1.16-.45,1.27-.93.73-3.18-1.27-11.58,3.95-11.37.59,2.62,2.89,9.32,6.15,9.05l2.32-1.61c.62-4.18-1.67-6.8-2.42-10.51-.62-3.07-1.08-6.95-.77-10.07ZM486.65,559.3c3.58-12.16-12.37-13.14-19.09-6.27-8.33,8.51-4.74,19.45.8,28.18.51.8,2.97,4.15,3.51,4.38,1.38.59.86-.97.99-1.61.56-2.63.94-5.27,1.83-7.83-9.61-6.33-6.62-24.62,6.41-20.17,2.18.74,3.38,2.91,5.55,3.31ZM573.43,586.25c3.96-6.44,8.18-12.79,8.18-20.7,0-11.15-8.25-19.12-19.48-15.91-5.57,1.59-5.89,3.22-4.81,9.02.85,1.11.73.27,1.34.02,3.68-1.54,5.1-4,9.69-3.16,8.8,1.61,9.4,11.98,4.45,17.93-2.15,2.59-4.26,1.34-2.59,6.39.18.56,1.06.45,1.22.98.39,1.3,0,3.52.7,5.02l1.3.41ZM477.37,572.36c.04-2.97,6.4-8.51,6.56-10.21.31-3.34-11.42-6.59-12.37,1.49-.37,3.19,1.99,9.57,5.81,8.73ZM570.4,570.07c2.22-2.47,2.85-2.42,2.4-6.49-.65-5.88-9.56-6.9-11.76-1.43l6.49,10.31c1.66.28,2-1.42,2.87-2.39ZM277.59,566.21v28.92l.99.99h57.2l.99-1.64,1.32-29.25-60.49.99ZM590.54,565.88h-5.26c.31,8.14-4.45,14.62-8.93,20.98-1.99,2.82-5.61,4.8-3.23,9.26h17.42v-30.24ZM41.89,571.14H4.08v266.21h586.45v-238.6h-18.41c-.54,1.56-.28,4.13-.7,5.43-3.15,9.86-8.75,20.26-17.05,27.11-1.48,1.22-7.34,4.52-7.6,4.89-1.63,2.31,3.7,2.37,1.89,7.11-.08.22-2.94,3.3-3.15,3.45-1.64,1.22-5.47,2.04-5.98,3.87-1.6,5.71-.1,13.98,4.3,18.15,2.13,2.01,7.9,4.1,7.9,7.22v13.8l-.99.99h-56.54c-.26,0-2.8,3.01-3.66,3.57-19.61,12.99-52.05,20.14-75.05,14.65-9.75-2.33-13.02-6.67-11.69-16.91-20.53,4.16-41.58,10.01-62.81,8.57-8.2-.56-24.39-3.99-24-14.8.35-9.88,8.01-14.93,15.78-19.11,3.61-1.95,24.92-10.68,25.66-12.47.55-1.33-.88-.9-1.54-1.07-7.5-1.92-16.09-2.31-22.13-7.61.82-4.13-1.12-24.99.18-27.02.21-.32,1.25.15,1.15-.45l-1.33-.66,1.32-.98-1.32-.34c-.1-.6.95-.13,1.15-.45,1.03-1.6-.42-14.03.17-16.97h-61.47c-.44,0-6.37,2.57-8.19,2.99-12.82,2.96-27.67,2.78-40.8,2.92l3.24,32.59,1.36,1.39,3.3,29.42c-.87,4.84-18.52,8.52-22.92,9.65.04,2.22-.92,5.61.97,7.07,4.35,3.37,14.08,6.16,19.53,9.39,5.81,3.44,11.53,7.37,11.67,14.65.11,5.79-2.58,9.08-7.93,11.19-10.63,4.19-30.88,2.26-42.21.14-4.57-.86-21.66-4.65-23.37-8.84-2.34-5.71,1.53-28.06.5-29.09h-48.66c.22,1.91-.65,4.8.65,6.26,1.49,1.67,13.51,6.27,16.47,7.85,6.22,3.32,16.18,8.23,18.09,15.44,3.29,12.39-1.88,15.48-13.27,17.04-16.16,2.21-50.03-1.09-63.58-10.54-3.6-2.51-5.98-3.9-5.63-8.67s2.37-11.09,3.3-15.79c1.11-5.6,2.17-11.23,3.21-16.83-5.33-1.31-11.94-2.79-16.89-5.14-1.68-.8-3.61-1.49-3.52-3.71,1.33-10.02,2.43-20.15,4.01-30.12.08-.5,1.17-.45,1.25-.96,2.38-15.2,3.66-30.63,5.98-45.85-2.47-5.05-5.14-1.28-8.91-1.63-2.3-.21-3.03-1.69-4.62-1.97-1.81-.33-3.76.43-5.55-.37s-1.98-3.26-2.81-4.09c-1.08-1.08-2.75-.84-4.32-3.24-1.9-2.89-1.32-6.03-3.07-8.77ZM475.81,595.46h93.03l-1.01-10.53c-1.05.39-2.09.67-3.23.7-28.83.91-57.97-.47-86.73-.47-4.51-.97-3.49,9.85-2.06,10.3ZM489.62,598.09h-13.15c-1.63,0-.58,4.43-.26,5.39,1.14,3.41,3.55,8.9,5.51,12.37,4.83,8.58,12.72,15.15,21.7,19.06.11-2.5-2.84-3.85-3.81-5.45-3.36-5.51-6.68-15.12-8.05-21.47-.41-1.89-.69-9.5-1.94-9.89ZM508.68,598.09h-14.46c-1.96,0,.36,10.05.76,11.73,1.67,7.04,6.07,16.64,10.46,22.41,3.13,4.11,4.54,2.94,9.5,2.34-.37-2.89-1.11-5.82-1.88-8.62-1.74-6.36-2.74-11.84-3.38-18.98-.15-1.68.69-8.35-.99-8.87ZM531.04,598.09h-17.09c-1.65,2.63-.65,8.15-.32,11.5.29,3.02,3.66,24.96,4.98,25.35,2.28-.5,7.57,1.06,8.7-1.15,1.46-2.85,3.67-19.43,4.06-23.54.18-1.83.86-8.38.7-9.84-.1-.99-.05-1.71-1.02-2.31ZM551.75,598.09h-16.11l-5.6,36.47c7.79,1.7,8.74-.3,12.18-6.22,3.85-6.63,8.32-17.3,9.35-24.83.25-1.81.2-3.61.17-5.42ZM568.18,598.09h-12.82c-1.66,2.56-1.25,6.72-1.94,9.89-.9,4.14-2.32,8.13-3.64,12.14l-7.89,15.44c14.45-6.38,25.86-21.37,26.29-37.47ZM545.01,639.66c-.86-.83-4.08-1.39-5.4-1.5-8.27-.73-27.51-.95-35.55.01-1.94.23-5.17,1.29-4.96,3.62.15,1.36,4.22,4.01,5.67,4.25,6.05.97,29.1.8,35.48.05,2.88-.34,7.24-4.03,4.75-6.43ZM537.28,648.7h-29.59l.5,12-5.76,11h40.1c-3.9-3.47-4.51-6.73-5.97-11.32-.17-.52-1.13-.51-1.23-.98-.23-.99-.23-5.31,0-6.3.06-.25,2.57-2.54,1.95-4.41ZM372.27,688.14l38.79-9.52c1.86-1.57-.61-15.55-.3-18.78-14.04-1.89-28.48-3.24-42.71-4.63-1.37-.13-3.61-1.29-4.59-1.1s-2.51,2.66-3.75,3.41c-2.27,1.37-5.97,2.58-8.49,3.68-.2.96.07,1.06.71,1.58,1.85,1.48,5.52,2.92,7.78,4.71,5.35,4.24,9.36,10.56,11.82,16.57.45,1.11.48,2.84.73,4.07ZM505.72,655.93l-8.52,1.34c.13,1.91,1.18,10.75,2.95,11.15,4.69-1.98,5.15-8.06,5.57-12.49ZM470.25,693.39c7.88-2.15,15.35-5.59,22.66-9.19.52-3.86.06-7.33,2.38-10.76.71-1.05,2.52-1.29,2.55-2.68l-3.93-12.57c-14.09,1.28-28.07,2.87-42.28,2.5-1.92.94-13.85,7.84-14.29,8.73-.6,1.2.93.99,1.45,1.15,7.72,2.47,14.33,4.05,20.84,9.41,4.01,3.3,8.84,8.52,10.6,13.41ZM415,678.93l29.57-17.41c-.62-.96-1.26-.91-2.26-1.02-8.94-.98-20.08.32-29.29-.62l1.97,19.05ZM357.13,690.11c-2.82-10.41-12.49-20.59-23.66-21.03l1.31,3.93c-4.02-.45-18,6.91-12.82,11.85,2.52,2.41,2.69-1.5,3.99-3.25,2.47-3.33,7.26-5.77,11.46-5.3l-.1,2.53c-5.17.87-9.34,2.38-10.8,7.94-.18,2.06,4.02,2.55,5.6,2.65-1.5-4.84,12.18-9.68,8.94-4.55-.7,1.1-6.77,2.25-6.93,5.22,7.64,1.41,15.33.24,23.01,0ZM549.12,687.48v-11.5c-1.27-1.37-3.16-1.5-4.91-1.67-10.29-.99-33.89-1.07-44.09.03-6.02.64-3.85,8.72-4.27,13.15h53.26ZM118.44,682.26l-35.46-4.64-4.5,30.13c8.11,4.68,17.09,7.19,26.18,9.31,1.99-10.57,11.82-19.3,21.7-22.36-1.52-2.3-6.36-2.64-7.55-5.26-.91-2.01-.01-5.01-.37-7.19ZM208.72,686.66c-1.8-1.86.3-7.7-1.9-8.33l-32.31,3.71-1.47,1.82-1.22,21.27c3.56,1.58,24.2,7.92,26.26,6.39,1.83-10.25,9.96-16.15,18.36-21.09-1.77-1.02-6.42-2.44-7.72-3.78ZM450.77,692.46c-9-9.2-24.3-18.77-36.44-9.26-5.79,4.54-12.45,13.5-.65,14.8-1.74-4.39,4.99-13.24,8.91-13.15,5.21.12-4.98,6.39-5.69,8.14-.66,1.63-.67,3.5-.62,5.23l8.57,1.76c.46-4,1.2-7.67,4.65-10.15,1.97-1.41,5.48-3.23,5.19.91-4.38,1.31-7.3,4.3-6.55,9.24l7.87-.03c-.07-3.92,3.46-8.32,7.58-8.54,1.66-.09,1.22,1.72.66,2.64-.93,1.53-5.71,2.13-4.92,5.26l16.43-1.32c-1.11-2.33-3.26-3.77-4.98-5.53ZM212.83,714.43c3.14.42,7.81,0,11.18,0,.1,0,1.47-.67,1.64-.98-.79-1.69-7.22-6.09-7.22-6.58,0-.15,1.31-1.45,1.73-1.54,4.03,1.17,6.53,4.41,8.58,7.81l6.11-1.35c-1-1.94-1.74-3.96-3.26-5.61-1.06-1.15-10.11-5.71-4.87-6.76,2.9-.58,11.45,7.9,10.1,11.72,5.5-3.42.64-9.11-2.97-11.83-4.5-3.4-5.57-3-10.43-.56-5.83,2.93-11.5,7.4-12.82,14.15-.2,1.04,1.69,1.46,2.2,1.53ZM149.39,718.38c4.54.04,4.89-4.16,3.44-7.72-.9-2.21-10.24-9.15-12.36-9.37-3.98-.4-14.37,6.05-17.34,8.92-1.56,1.5-5.86,6.82-4.37,8.87,5.57,1.37,11.66,1.35,17.48,1.27.85-3.81-4.2-4.35-6.55-6.27-1.83-5.54,12.15,1.59,9.84,6.27l6.57-1.33c-.43-3.44-1.79-6.15-4.63-8.18-.57-.41-7.44-3.1-2.28-3.66,4.21-.46,10.88,6.79,10.2,11.2Z"/>
  <rect x=".14" y="841.29" width="595" height=".66"/>
  <path d="M41.89,571.14c1.75,2.73,1.17,5.88,3.07,8.77,1.58,2.39,3.24,2.16,4.32,3.24.83.83,1.05,3.3,2.81,4.09s3.74.04,5.55.37c1.59.29,2.33,1.76,4.62,1.97,3.77.35,6.44-3.41,8.91,1.63-2.32,15.21-3.6,30.65-5.98,45.85-.08.5-1.17.45-1.25.96-1.58,9.97-2.68,20.1-4.01,30.12-.08,2.21,1.85,2.91,3.52,3.71,4.95,2.35,11.56,3.84,16.89,5.14-1.05,5.61-2.11,11.23-3.21,16.83-.93,4.7-2.94,10.79-3.3,15.79s2.03,6.15,5.63,8.67c13.55,9.45,47.42,12.76,63.58,10.54,11.39-1.56,16.56-4.65,13.27-17.04-1.91-7.2-11.87-12.12-18.09-15.44-2.96-1.58-14.98-6.18-16.47-7.85-1.3-1.46-.43-4.35-.65-6.26h48.66c1.03,1.03-2.84,23.38-.5,29.09,1.72,4.19,18.8,7.98,23.37,8.84,11.33,2.12,31.58,4.06,42.21-.14,5.35-2.11,8.05-5.4,7.93-11.19-.14-7.28-5.86-11.21-11.67-14.65-5.46-3.23-15.19-6.02-19.53-9.39-1.88-1.46-.92-4.85-.97-7.07,4.4-1.13,22.06-4.81,22.92-9.65l-3.3-29.42-1.36-1.39-3.24-32.59c13.13-.15,27.98.04,40.8-2.92,1.81-.42,7.75-2.99,8.19-2.99h61.47c-.59,2.94.86,15.37-.17,16.97-.21.32-1.25-.15-1.15.45l1.32.34-1.32.98,1.33.66c.1.6-.95.13-1.15.45-1.3,2.03.64,22.89-.18,27.02,6.05,5.3,14.64,5.69,22.13,7.61.66.17,2.08-.26,1.54,1.07-.74,1.79-22.05,10.52-25.66,12.47-7.77,4.19-15.43,9.23-15.78,19.11-.38,10.81,15.8,14.24,24,14.8,21.23,1.44,42.28-4.41,62.81-8.57-1.32,10.23,1.94,14.58,11.69,16.91,23.01,5.49,55.44-1.66,75.05-14.65.86-.57,3.4-3.57,3.66-3.57h56.54l.99-.99v-13.8c0-3.12-5.78-5.2-7.9-7.22-4.41-4.17-5.9-12.44-4.3-18.15.51-1.83,4.34-2.64,5.98-3.87.21-.15,3.07-3.24,3.15-3.45,1.82-4.73-3.52-4.8-1.89-7.11.26-.37,6.12-3.67,7.6-4.89,8.3-6.85,13.9-17.26,17.05-27.11.41-1.3.16-3.87.7-5.43h18.41v238.6H4.08v-266.21h37.8ZM36.29,620.43c-.73-1.74,2.07-15.13-.33-15.1-2.97,3.85-.86,9.06-2.33,13.44.22,1.6,1.17,1.86,2.66,1.66ZM43.44,621c.35-3.32,3.71-6.96,4.41-9.74.22-.86.2-1.8-.71-2-2.19-.46-4.39,6.51-4.98,8.02-.26.65-2.23,1.24-1.25,3.81l2.53-.1ZM29.07,620.43c.51-.67-5.2-10.87-6.89-10.51-3,.64,1.74,5.71,2.42,6.77.81,1.26,1.5,2.93,1.87,4.39.13.1,2.52-.55,2.61-.66ZM277.59,624.38l-3.28-.66c-.35,2.34-1.56,12.41-.04,13.53.67.49,3.32-.21,3.32-.38v-12.49ZM265.5,629.22c-.34-.46-3.73-4.18-4.02-4.18s-1.54,1.31-1.38,1.99c.41,1.72,5.91,6.97,6.17,9.61l2.1,1.53c.85-3-1.11-6.53-2.88-8.95ZM284.01,636.7c.46-.6.51-2.15,1.46-3.45,1.04-1.43,7.47-5.12,5.28-6.58-2.98-1.98-8.55,5.32-9.56,7.6s1.66,3.96,2.82,2.44ZM295.99,744.66v21.03l-6.3-10.46c-4.04-2.54-6.74-5.51-11.46-6.97-13.22-4.1-12.2,3.49-7.1,12.38,12.92,22.52,41.99,20.5,54.7-.94,3.42-5.77,5.21-12.63-4.34-11.6-8,.86-14.71,6.8-19.23,13.02l-3.64,5.89v-22.35c7.16-1.27,14.97-8.04,16.79-15.09,2.48-9.59-.04-28.69-13.17-17.76-6.23-9.14-12.86-6.98-16.44,2.59-10.81-6.22-12.51,2.68-11.51,11.53.73,6.48,7.59,14.83,13.62,17.28,2.44.99,5.43,1.56,8.08,1.45ZM529.39,752.88v17.42l-4.83-7.66c-5.5-4.67-10.42-10.29-18.17-11.13-8.09-.88-5.26,8.65-3.42,13.33,7.32,18.62,29.26,27.4,46.17,14.37,5.21-4.01,17.23-22.49,2.98-20.67-7.4.94-11.37,4.61-16.59,9.37l-2.86,5.03v-19.72c14.87.62,24.98-12.94,22.95-27.22-1.32-9.3-11.69-3.03-12.43-3.67-1.51-9.09-9.13-9.52-14.24-2.7-15.78-10.29-16.6,12.99-11.99,22.66,2.69,5.65,6.83,8.29,12.41,10.6ZM63.91,768.98v16.43c-1.66-1.4-2.52-3.87-3.96-5.57-4.45-5.29-14.66-12.19-21.88-10.07-4.34,1.28.87,11.8,2.58,14.27,11.44,16.59,36.66,17.89,49.84,2.63,2.56-2.97,9.26-14.82,3.19-16.24-8.56-2-19.12,3.76-23.73,10.81-1.02,1.56-.94,4.45-2.75,4.15,1.19-2.46-1.04-15.74.07-17.02,13.55-3.05,18.55-13.35,17.03-26.69-.86-7.51-7.12-10.25-12.82-4.94-2.36-3.12-4.22-6.67-8.61-7.17-6.63-.76-7.35,4.68-10.23,9.04-11.8-5.09-11.92,8.29-9.01,16.13,3.41,9.18,10.3,14.59,20.3,14.22ZM451.88,775.48c-6.57-23.46-39.18-24.34-53.66-7.82-.61.7-3.95,5.11-4.08,5.43-1.95,4.63,2.87,8.2,6.59,9.82,11.04,4.8,26.31,3.44,37.93,1.85-1.5,6.74,6.29,9.17,11.58,9.79,6.56.76,27.15.84,23.42-10.27-2.77-8.24-14.33-9.99-21.78-8.8ZM182.53,777.26c-.8-1.29-6.14-9.81-8.16-7.61-1.62,1.76,1.76,3.19,2.33,3.9,3.24,4.06,3.8,6.05,5.61,10.71.28.71,2.34,1.59,1.27,4.45h1.97c.2-3.5-.09-7.21-1.78-10.35-.37-.68-1.08-.85-1.23-1.1ZM198.69,772.93c-5.12-.82-8.75,14.85-7.23,16.43l3.19-.75c-.93-6.07,2.9-10.28,4.04-15.67ZM209.21,779.51c-2.6-.15-4.56.69-6.26,2.6-1.01,1.13-3.98,5.78-2.3,6.94,2.37,1.64,2.6-2.42,3.95-3.97,1.45-1.66,5.05-2.54,4.61-5.57Z" fill="#fff"/>
  <path d="M531.36,513.62c.71-4.05,3.26-2.44,5.89-3.31,3.5-1.17,7.15-7.78,8.69-11.02,3.48-7.32,5.16-16.73,5.79-25.11.24-3.18-.69-12.04.33-14.13,1.14-2.32,8.02-.7,8.79-3.04.53-7.66,2.06-15.28,2.71-22.92,3.76-43.91.51-109.03-30.88-142.65-7.87-8.43-16.28-13.47-26.3-19.04l19.74-13.77c2.73-3.78,9.27-6.94,9.22-11.86-3.19-12.36-6.6-24.73-10.48-36.88-.3-.94-1.21-.9-1.51-1.83-13.41-41.09-21.93-84.06-69.06-97.89-44.72-13.12-95.93,2.45-106.22,51.96-.86,4.13-2.14,8.39-1.53,13.03.16,1.21,1.23.87,1.35,1.4.28,1.18.25,7.08.07,8.46-.16,1.21-1.23.87-1.35,1.39-.7,3.07-.29,8.95-.68,12.36-2.08,18.37-4.63,36.76-7.42,55.03-1.36,8.92-5,10.93,2.81,17.95,4.93,4.43,11.45,6.79,16.43,11.17,0,.73-9.52,8.2-10.93,9.76-10.21,11.31-16.43,26.96-22.64,40.65-1.4,3.09-4.63,7.18-5.58,11.06-.32,1.29.5,2.61.1,3.28-1.11,1.86-24.18,8.26-27.83,9.03-1.21.26-8.36,1.52-8.89,1.38-.39-.11-4.5-2.9-4.47-3.49l.04-288.59c.31-1.62,5.16-4.45,6.57-5.92,1.02-1.06,5.2-6.24,5.83-7.29,1.08-1.8,1.68-4.75,2.07-6.84l5.24,7.57c17.01,18.05,51.72,13.12,59.19-11.52,3.96,5.29,6.96,12.17,12.65,15.94,18.66,12.33,46.55,6.23,54.74-15.28l4.91,8.23c4.21,2.92,6.98,7.05,11.69,9.35,19.32,9.42,42.56,2.29,51.1-17.57,8.88,21.65,38.06,28.3,56.43,14.34,1.83-1.39,4.6-4.04,5.97-5.86,1.86-2.45,2.95-6.39,4.28-8.08.56-.71.89-.38,1.7-.42,4.93,12.99,16.97,20.52,30.57,21.71v498.23l-5.2-.07c-.24-.2-.87-4.9-1.51-6.07-.7-1.28-5.15-6.29-6.49-7.29-.69-.52-5.1-3-5.54-3h-9.86c-.17,0-.88.93-1.64.65-1.35-1.44,8.65-7.2,9.51-9.21,2.36-5.51-2.1-5.74-6.01-6.45-7.85-1.43-16.83-.33-24.77-.36-2.51,0-4.88-.82-7.67.25.64-5.24-.87-12.44,0-17.42Z" fill="#fff"/>
  <path d="M273.64,3.89l.65,349.02c-1.23,1.26-17.55-9.89-23-7.54-5.13,2.21-1.56,10.44.75,13.69.45.63,4.36,3.09,2.55,4.06-1.52.53-3.1.19-4.66.6-5.92,1.54-23.61,6.55-27.35,10.45-3.41,3.55-.61,6.04-.37,8.76.17,1.9-2.45,4.44-.68,8.6,1.01,2.36,3.85,2.54,4.07,2.84.37.51-1.75,3.92,1.31,6.89,1.94,1.88,4.74,1.68,7.21,2.32-1.4,8.11,8.3,8.78,14.17,9.17,8.75.58,17.33-.77,26-1.34l-.66,50.62c-.97.97-20.26-1.58-23.16-2.15-25.7-5.1-33.12-33.72-55.15-46.09-2.24-1.25-7.58-3.87-9.91-4.55-1.81-.53-8.59-.96-8.98-1.2-.08-.05-.66-1.45-.67-1.67-.07-1.81,7.53-3.42,9.36-4.24,29.97-13.34,27.79-39.38,23.24-67.11-.33-2.02-1.76-5.13-1.77-6.84s3.52-6.52,3.92-10.44c.65-6.49-2.33-10.49-2.33-14.45,0-2.94,2.2-5.21,1.52-9.7-1.19-7.87-6.23-7.25-9.66-11.37-1.34-1.61-1.74-4.56-3.33-6.53-2.02-2.5-6.7-3.28-7.22-5.93-1.57-44.07,2.04-89.53.01-133.45-3.04-65.9-58.17-114.16-125.09-94.77-32.72,9.48-44.54,28.25-58.99,56.19-.54,1.04-.11,3.27-1.36,3.44V3.89h269.56Z" fill="#fff"/>
  <path d="M497.18,454.8l3.92.69c.79,2.72-.91,2.39-1.83,3.67-3.08,4.24-9.53,12.86-11.24,17.19-4.19,10.63,7.6,12.63,15.06,8.69-.78,7.07-3.06,15.55-1.93,22.63.23,1.46.62,1.97,1.7,2.9,3.74,3.24,6.62-.43,7.4.14,1.07.77,1.28,3.53,4.98,3.94s9.78-4.92,12.51-1.36c1.76,2.3.24,5.62.29,7.6.09,3.41,1.07,6.6,0,10.11-7.18-.82-14.32.02-21.31.01-8.87-.01-18.66-1.26-27.55.11-2.89.45-5.77.66-5.69,4.19.13,5.61,9.2,6.42,10.54,11.5-22.17-4.77-30.23,16.53-19.9,34,1.42,2.4,7.14,7.9,7.78,10,.83,2.73.56,8.09,1.13,11.36,2.51,14.24,13.79,27.14,26.1,34.36-2.08,2.08-3.63,2.91-2.84,6.1,1.71,6.93,9.45,3.67,8.75,10.64-5.19.42-10.31,1.97-15.44,2.64-39.91,5.2-95.73,2.21-135.22-6.11-2.79-.59-14.99-3.01-16-5.04-.45-8.81-.51-17.81-.32-26.68.23-11.07.8-22.39,1.29-33.5,1.91-43.5,5.19-87.45,11.3-130.02,1.34-9.38,2.85-18.8,4.84-28.06.74-1.17,10.06,2.09,12.01,2.48,8.55,1.69,17.27,3.03,25.98,3.6,8.06,7.89,17,12.23,28.52,7.86,3.55-1.35,8.14-6.23,10.44-6.65,3.48-.64,8.69.24,12.49,0,17.54-1.13,35.03-3.05,52.24-6.6v27.61Z" fill="#fff"/>
  <path d="M100.4,115.63c10.77-13.6-3.67-31.47-19.39-25.96-2.19.77-3.19,2.46-5.26,2.95,1.2-26.56-32.15-30.48-38.8-5.91-6.51-4.24-12.79-5.45-20.37-3.29-.63-2.26,1.27-2.06,1.98-3.11,19.08-28.14,42.76-42.78,77.72-31.54,36.89,11.86,58.5,54.88,60.36,91.49.41,8.18-.36,16.49-.03,24.68-11.82-13.54-30.71-17.66-47.33-10.52-.46-.44,1.75-3.21,2.2-3.71,2.7-2.95,8.39-7.99,11.65-10.37,3.03-2.22,16.18-8.52,17.1-9.87,1.97-2.91-2.08-4.42-4.5-4.79-18.42-2.84-36.39,7.47-45.84,22.82-11.21-11.69-29.77-12.9-44.17-6.67-3.84,1.66-10.06,4.02-8.67,9.22,4.55,1.84,9.37-.01,14.07.06,7.17.11,17.35,2.15,22.65,7.26-4.14.33-9.07,1.6-12.94,3.17-14.5,5.92-28.13,20.12-25.13,36.86,1.08.25,2.2.18,3.22-.28,2.68-1.2,9.2-8.06,12.67-10.33,2.56-1.67,19.39-10.32,20.87-9.04-1.04,2.69-3.5,4.66-4.85,7.3-3.46,6.75-5.79,15.44-3.63,23.08.15.54,1.03.51,1.19,1.03,1.19,3.83,2.04,12.05,7.52,10.69.98-.24,2.45-7.83,3.11-9.38,3.43-8.12,10.06-18.68,16.51-25.04.58-.57.56-1.44,1.85-1.1,1.86,6.36,3.42,12.85,5.33,19.19.15.48.99.42,1.3,1.48,1.17,3.99,8.34,32.22,7.55,33.87l-31.58,19.79c-22.61-10.66-46.43-27.12-72.67-24.38v-119.63h96.32Z" fill="#fff"/>
  <path d="M4.08,315.45l65.09.66c-2.58,5.72-5.07,10.71-2.95,17.08.44,1.33,2.69,4.49,2.72,4.94.06.95-1.94,3.3-2.41,4.58-.77,2.1-.8,4.08-1.34,5.78-.23.71-1.78.26-1.29,2.12.07.26,1.2.24,1.32.77.66,2.99.16,4.55,1.87,7.89.86,1.68,3.66,4.4,3.92,5.28.62,2.1-.06,5.65.31,8.24.73,5.14,4.37,10.31,8.8,12.89,2.01,1.17,5.35,1.11,6.02,1.54.39.25.85,2.51,1.46,3.33,3.63,4.88,8.94,9.54,15.43,9.74,2.06.06,4.06-.82,5.75-.59,2.08.29,5.21,2.77,7.44,3.13,2.52.41,5.58-.2,8.18.04.67.91-1.13,4.92-1.72,5.31-.95.64-9.73,2.65-12.07,3.58-28.58,11.32-43.26,38.8-53.78,65.87-5.87,15.11-13.56,38.76-14.6,55.07-.53,8.32,2.01,6.88,7.83,11.23-3.33,7.6-6.73,15.54-7.19,23.93H4.08v-252.4ZM44.19,396.3v-12.82c0-.17-.75-.66-.99-.97-.23.31-.99.8-.99.97v12.82h1.97ZM36.95,400.89c.08-4.68-3-11.82-6.61-14.75-1.43-1.16-6.29-4.15-5.57-.35,1.48,1.57,4.62,3.09,5.89,4.63,2.6,3.15,2.5,9.27,6.29,10.47ZM57.33,387.1c-4.05-1.8-10.04,9.67-8.54,11.17,2.6.65,2.78-2.51,3.97-4.1.72-.96,5.59-6.09,4.57-7.07Z" fill="#fff"/>
  <path d="M520.19,285.21c-1.02,0-1.98.27-2.89.73-10.36,5.21-18.62,13.79-22.59,24.74-10.36,28.54,1.47,60.24,1.78,89.54-20.92,4.16-42.37,6.96-63.75,6.28-8.51-10.89-23.13-14.04-34.19-4.62-1.1.94-2.89,3.72-3.29,3.95-4.39,2.44-33.44-4.51-39.78-6.23-2.28-7.37-1.92-15.12-2.3-22.68-1.37-27.09.46-64.26,8.88-89.73,1.02-3.08,1.49-5.3,5.17-5.8,2.32,3.44,8.94,5.28,11.31,7.74,1.21,1.26,1.81,5.57,3.58,8.07,13.28,18.83,46.47,15.68,64.44,6.11,8.34-4.44,13.84-10.53,20.37-17.11,2.51.66,4.24,2.61,7.09,2.83,10.01.77,20.44-10.14,28.87-14.17,1.42-.19,15.84,7.94,17.29,10.35Z" fill="#fff"/>
  <path d="M535.57,300.08c10.17,13.53,16.15,27.55,19.93,44.15,6.05,26.55,7.9,54.27,6.1,81.96-.35,5.37-1.54,10.84-2.61,15.25-.64,2.63.56,12.75-2,14.32-.91.56-7.93,1.57-9.49,1.68-7.13.51-17.85.45-25-.03-2.96-.2-22.26-3.15-22.71-5.04.57-5.33-.68-11.87-.03-17.02.16-1.25,1.26-.64,1.42-1.88.55-4.37.55-18.73,0-23.09-.16-1.25-1.26-.64-1.42-1.88-.35-2.78.3-6.29.04-9.24-2.66-31.1-17.14-80.59,8.9-104.17,3.08-2.79,11.62-8.01,15.73-7.25,2.54.47,9.29,9.78,11.13,12.24Z" fill="#fff"/>
  <path d="M103.35,419.3c2.16,7.15,4.6,14.18,6.53,21.41,6.32,23.72,7.26,49.8,6.65,74.92-1.09,44.84-7.18,89.45-11.86,134.06-.97,9.29-.91,18.86-2.99,27.95-13.31-1.82-27.02-3.55-39.14-9.63,1.24-3.23.59-7.87,1.39-10.96,5.37-20.6,5.8-43.11,10.01-64.38.78-3.91,2.22-4.39,3.21-6.68,1.87-4.35,1.88-10.27,3.2-14.85,2.6,1.6,2.79,3.86,6.22,4.01,11.37.49,1.63-19.08,2.95-24.6,2.16-2.25,6.38.41,7.74-2.91,1.46-3.56,1.45-12.38,2.18-16.77.44-2.68,1.48-6.98,2.03-10.57,2.14-13.81,6.64-33.5,7.13-46.78.09-2.33-.14-6.07-2.5-3.14l-5.4,39.19c-2.17.63-.73,3.24-1.91,4.12-16.41.89-32.98-3.02-47.43-10.63.85-1.83.86-4.71,1.41-6.33,7.54-21.92,18.28-49.5,34.86-66.5,1.76-1.81,13.9-12.54,15.71-10.92Z" fill="#fff"/>
  <polygon points="590.54 3.89 590.54 31.5 278.57 31.5 277.59 30.51 277.59 3.89 590.54 3.89" fill="#fff"/>
  <path d="M277.59,505.41c7.02.82,26.76,6.2,30.82-1.72.79-1.54.52-3.61.84-4.09.66-1.02,11.18-1.44,5.88-8.33,2.25-2.05,4.62-1.47,4.61-5.25,0-2.13-1.29-3.28-1.39-4.65-.12-1.73,1.52-2.92,1.31-5.14-.78-8.15-18.25-8.78-24.32-10.26,2.3-2.55,4.56-9.81.64-11.48-4.42-1.89-12.08,5.25-16.59,6.42-.68.18-.77.81-1.5-.16l.36-45.38c3.17,3.22,7.33,2.77,11.53,2.66,14.3-.39,34.08-3.86,47.32-9.22,4.29-1.74,10.26-5.95,14.09-6.96.83-.22,1.03-.53,1.69.36-1.01,7.89.35,16.15-.35,24-.6,6.61-2.8,14.92-3.84,21.79-3.8,25.14-6.67,51.94-8.63,78.13-.89,11.9-.87,23.93-1.98,35.81h-60.49v-56.53Z" fill="#fff"/>
  <path d="M205.49,340.89c.03.14.94.2,1.04.69,8.56,42.31-13.35,65.71-56.19,62.62-17.38-1.25-27.8-8.02-38.89-20.6-.78-.89-.91-2.81-2.18-3.44-2.05-1.01-6.2,1.66-8.87,1.66-3.53,0-10.27-3.52-12.59-6.14-6.47-7.29-4.38-21.63,5.8-24.3,6.15-1.61,9.78,1.66,14.01,5.46,1.44-.93.66-2.73,1.34-3.93.48-.84,2.65-1.44,3.62-2.49,5.75-6.26,5.56-21.5,1.32-28.71,5.6-2.91,12.16-6.1,13.8-12.86,8.93,4.02,18.82,4.17,25.4-3.87,7.36,4.05,16.56,3.96,22.91-1.88,6.58,4.78,14.59,5.7,20.39-.81.99,0,4.77,16.9,5.27,19.04,1.52,6.49,2.53,13.02,3.83,19.54ZM197.2,319.89c2.74-2.8-1.86-5.59-4.4-6.12-4.1-.86-15.34-1.68-13.19,4.97,3.26.24,6.93-.37,10.14.05,2.13.29,5.79,2.79,7.45,1.1ZM143.96,319.57c-3.68.46-18.04,6.91-14.68,11.69,1.97,2.79,4.81-1.67,5.71-2.26,1.28-.85,4.6-2.76,5.97-3.24,2.69-.94,9.53-.35,9.5-3.42-.03-3.36-4.28-3.06-6.5-2.78ZM187.68,331.4c-3.8,3.36-.97,16.08,7.05,12.63,6.9-2.97-.73-18.21-7.05-12.63ZM143.93,337.93c-6.32,1.88-4.7,17.22,4.83,14.03,5.65-1.89,4.01-16.67-4.83-14.03ZM183.37,350.48c-.58-.83-9.31-9.71-9.96-10.09-2.44-1.43-3.7-.94-2.84,1.86,8.61,6,18.22,17.36,1.24,19.93l-.08,2.55c4.57.46,12.71-3.38,12.93-8.3.04-.98-.81-5.26-1.3-5.96ZM100.52,362.98c.64.89.43,2.6,1.52,3.42,1.82,1.24,2.45-5.44-2.59-7.94-2.3-1.14-4.64-1.45-7.1-.45-1.94.79-5.1,4.26-2.47,6.06,2.47-3.89,7.74-5.13,10.64-1.1ZM183.57,374.62l-2.85-.61c-6.4,8.07-17.04,4.82-24.52.01l-1.55,1.56c5.99,6.55,19.69,7.74,26.63,2.29.25-.19,2.76-2.76,2.29-3.26Z" fill="#fff"/>
  <path d="M156.61,230v32.86c-2.47-1.18-6.95,2.57-8.1,2.5-1.25-.07-4.23-2.18-6.08-2.46-5.52-.84-10.25.24-15.19,2.47-1.53.69-5.42,3.68-6.55,3.87-1.79.3-6.17-.8-9.05-.41-4.01.53-10.98,4.4-13.55,7.49-1.15,1.38-2.42,5.3-3.47,6.06-1.55,1.13-6.91,2.2-9.61,3.87-8.1,4.99-13.39,16.12-10.74,25.6l-.82.96H4.08v-74.93c10.87-1.81,22.72,1.77,32.86,5.6,20,7.55,37.82,19.82,56.91,29.25,1.46-.03,2.07-1.44,1.31-2.66-.65-1.04-10.11-4.94-12.13-6.28-.95-.63-3.36-1.53-2.38-2.92,15.86-10.03,32.37-22.12,50.45-27.78,2.32-.72,10.16-3.1,12.02-3.1h13.48Z" fill="#fff"/>
  <path d="M170.64,84.52c8.83,14.19,14.51,29.61,16.2,46.56v139.01c-2.94-1.47-7.44.06-10.04-.64-.27-.07-2.24-3.1-3.95-4.08-3.86-2.21-8.25-2.15-12.33-3.56l-.64-129.94c-4.04-17.39-8.92-33.69-18.28-49.53-13.07-22.12-35.87-37.74-61.92-39.66-.09-1.56-.21-1.16.98-1.31,38.33-4.83,70.07,11.19,89.97,43.16Z" fill="#fff"/>
  <path d="M458.29,172.91l2.58,38.35c-.49,12.79-11.37,26.85-22.45,32.43-3.18-2.9-8.16-5.46-12.27-6.78-4.45-1.43-11.11-1.49-14.8-2.96-1.51-.6-1.53-1.86-2.08-2-3.69-.98-9.05,4.55-17.17,1.55-6.44-2.38-4.39-8.01-2.77-13.06,1.52-4.73,6.89-14.19,6.66-18.39-.13-2.4-2.04-3.43-3.2-1.16-1,1.96-1.69,7.29-2.59,9.9-1.81,5.27-6.27,13.29-5.29,18.72.41,2.26,2.2,3.54,2.47,5.73-4.32.94-8.08,2.41-11.49,5.28-2.21,1.86-3.48,4.59-5.94,5.68-.74,0-4.54-2.96-5.29-3.69-4.74-4.7-8.27-10.75-8.83-17.46-1.06-12.58-2.24-27.53-2.67-40.06-.24-6.89-1.04-7.33,5.79-8.72,14.09-2.86,36.33-3.67,51.08-4.15,13.6-.44,31.4-.97,44.76,0,1.22.09,2.4.21,3.5.78ZM419.44,178.9c-3.15.46-6.81,1.93-5.65,5.93,1.03,3.56,9.32.25,12.69.47,2.92.19,14.24,6.3,11.9-1.34-1.63-5.35-14.4-5.73-18.95-5.06ZM380.71,187.84c3.13-7-4.43-6.96-9.43-6.47-3.7.36-17.36,5.09-12.84,10.2,2.22,2.51,7.33-1.93,9.83-2.68,3.88-1.16,8.43-.82,12.43-1.04ZM429.75,204.09c-6.09-10.27-13.13,1.14-8.74,8.39,4.47,7.38,12.67-.59,9.7-7.59-.17-.41-.81-.54-.96-.8ZM369.16,203.24c-2.84,2.83-2.05,12.56,2.41,13.98,12.77,4.05,6.45-22.8-2.41-13.98Z" fill="#fff"/>
  <path d="M122.29,411.53c7.83,8.69,10.05,21.96,12.45,33.25,9.3,43.83,5.4,101.49,1.5,147.07-2.31,27.05-3.84,55.79-6.59,83.46-.22,2.2-.34,4.14-2.92,4.16-6.53.05-13.81-1.28-20.41-1.2l-1.57-1.04,6.44-67.04c4.74-29.82,6.41-61.86,7.26-92.66.95-34.61.2-59.35-10.3-92.18-.92-2.88-4.33-7.08-1.31-8.83,1.69-.98,14.47-5.56,15.45-5Z" fill="#fff"/>
  <path d="M205.48,546.64c2.99,6.63,2.42,34.26,3.08,43.88l6.57,83.15-19.73,3.3c-.76-5.59.07-12.79-.6-18.12-.24-1.91-1.07-4.47-1.37-7.84-5.64-62.4-4.04-125.48-8.55-187.99-1.14-15.83-5.06-30.89-7.7-46.85-.19-1.16-1.09-5.14.19-5.39,2.79-.55,16.45,4.48,17.92,7,1.71,2.95,3.46,19.77,3.98,24.28,3.48,30.23,3.8,60.92,5.32,91.31.1,2.03.62,12.66.9,13.27Z" fill="#fff"/>
  <path d="M273.48,596.61c-1.23,1.41-14.61,3.79-17.27,4.1-9.84,1.12-20.65,1.44-30.47.58l-8.63-95.22c10.5,5.1,22.85,9.96,34.59,11.09,8.96.86,13.38-.7,17.7-8.44.45-.81,2.18-7.36,3.94-4.65l.15,92.54Z" fill="#fff"/>
  <path d="M81.01,161.64c3.3-3.38-12.39-10.09-14.49-10.82-8.64-2.97-17.25-2.96-26.27-2.34,10.74-8.17,30.46-10.04,42.04-2.25,2.27,1.53,6.11,6.87,8.66,6.56,1.57-.19,2.39-3.7,3.34-5.15,9.72-14.83,25.05-20.91,42.6-18.86l-15.34,9.31c-3.29,2.12-21.53,18.71-18.19,22.23,3.33-.27,5.66-2.71,8.86-3.95,15.98-6.2,36.82-.89,44.39,15.12-3.34-.45-5.84-2.61-9.07-3.74-11.44-4.02-24.71-4.37-36.26-.81-.11.17-.1,1.84-.03,1.92.29.35,6.64,2.01,8.56,2.95,3.05,1.49,6.25,3.44,8.51,5.95,2.86,3.17,11.8,19.76,9.22,23.31-4.4-2.58-6.93-7.21-10.86-10.5-4.6-3.85-21.97-14.68-27.55-13.81-1.65.26-9.94,7.9-11.49,9.59-7.56,8.22-13.91,19.82-16.83,30.5-6.04-10.47-4.94-27.42,4.26-35.84,1.16-1.06,9.04-5.15,7.24-6.88-10.23.55-22.15,4.84-30.84,10.24-4.37,2.71-8.08,6.46-12.21,9.48-.51.37-1.11,1.35-1.66.32,1.43-12.49,10.04-22.75,21.04-28.27,2.08-1.04,9.66-4.26,11.52-4.26h10.85Z" fill="#fff"/>
  <path d="M206.35,425.45c6.4,6.29,12.2,15.98,18.96,22.78,3.96,3.98,8.42,7.38,12.82,10.83-8.86,13.75-15.94,30.18-13.14,46.99-.69.61-7.96-3.36-8.4-4.41l-4.13-41.55-2.58-.05,7.17,85.83c4.18,26.88,4.8,55.79,7.95,83.43,1.26,11.02,2.81,23.68,5.23,33.66.1.41.49,4.29.46,4.52-.3,1.87-9.98,4.77-11.95,5.53-.95-2.27.2-5.16-.33-7.42-.58-2.46-.93-3.12-1.31-6.69-5.54-53.03-6.83-106.5-10.54-159.7-.18-2.53.38-5.57.08-7.96-.16-1.25-1.26-.64-1.42-1.88-1.41-11.11-.85-24.54-1.92-36.19-1.02-11.02-3.19-21.51-4.58-32.24-.21-1.62.53-.78,1.49-.17,1.68,1.07,4.77,3.35,6.15,4.7Z" fill="#fff"/>
  <path d="M557.33,542.87c.18.04,1.28.97.67,1.31-5.1,4.8-5.08,14.95-.38,19.91.82.87,2,.78,2.47,1.32,3.76,4.32,7.13,11.07,7.43,16.9h-89.74c-.38,0-1.92-.67-1.66-1.64.14-.5,1.05-.17,1.29-.81,1.07-2.83,1.23-5.03,2.97-8.08,4.49-7.89,13.58-11.52,9.24-22.36-.69-1.73-4.07-3.95-3.63-6.54h71.33Z" fill="#fff"/>
  <path d="M351.77,398.15c-18.33,11.03-39.12,15.37-60.37,16.55,1.91-2.13,2.79-3.9,3.52-6.66,3.31-12.52,3.16-31.61-4.66-42.47-1.1-1.53-3.11-2.6-4.1-4.43.45-.73.93-.76,1.66-.96,11.56-3.12,23.42-5.13,34.41-10.2,4.89-.41,21.98,15.58,26.99,18.44l2.57,29.74Z" fill="#fff"/>
  <path d="M288.38,369.08c4.88,7.28,6.43,16.71,5.63,25.56-.35,3.96-.18,5.53-3.69,7.49-11.41,6.36-38.48,9.92-50.76,6.22-2.08-.63-4.12-2.99-2.08-4.5,1.36-1.01,9.63-1.25,12.5-1.96,1.03-.26,5.58-1.07,5.26-2.62-.44-2.11-9.88.33-11.95.51-3,.26-18.74,2.35-14.4-4.35.76-1.17,16.97-2.83,20.44-4.05s3.75-3.03-.02-2.69c-6.83.62-14.91,3.13-21.99,3.62-2.6-.09-3.99-3-3.49-5.36.88-4.16,5.15-2.71,7.99-3.21,2.42-.42,17.13-3.5,17.52-4.95,1.25-4.62-5.85-.21-7.76.25-2.58.63-13.61,2.93-15.46,2.67-2.42-.34-3-2.36-2.1-4.45,1.24-2.89,11.82-6.2,15.09-7.27s15.42-5.21,18.11-3.59c2.94,7.68,8.07,14.63,17.09,14.79.69-2.74-2.63-2.58-4.53-3.69-8.44-4.95-6.59-6.66-10.72-14.26-2.09-3.85-8.16-9.11-7.77-13.25.23-2.5,2.7-2.54,4.62-2.02,3.79,1.02,18.81,8.65,22.54,11,4.24,2.68,7.19,6.02,9.94,10.12Z" fill="#fff"/>
  <path d="M4.74,113c-1.07-2.71,1.55-4.77,1.91-5.78,3.9-10.74,5.24-23.45,20.04-21.75,6.21.71,7.76,4.31,10.59,9.11,2.42-1.47,1.29-3.86,1.81-6.06,1.48-6.27,7.41-13.72,14.13-14.8,11.57-1.85,19.28,6.19,19.82,17.33.07,1.33-1.72,6.4.42,6.82,1.73.34,5.62-4.26,7.93-5.19,4.58-1.85,9.48-1.47,13.42,1.57,2.8,2.16,3.35,4.92,5.7,7.1,1.65,4.91.37,7.94-2.75,11.64H4.74Z" fill="#fff"/>
  <path d="M192.11,677.61c-2.42-.16-13.4,1.7-14.69,1.2-.86-.33-.93-.69-1.08-1.53l-5.94-146.53c3.25-.16,10.06-2.67,12.86-2.36,1.95.21,2.16,6.24,2.29,8.24,2.35,36.92,2.5,74.1,4.58,111.1.56,9.94,1.82,19.9,1.99,29.87Z" fill="#fff"/>
  <path d="M167.14,530.38c.78,8.42.35,16.88.63,25.34.77,23.09,1.13,46.56,2.68,69.62.17,2.48-.51,6.32-.01,8.45,1,4.23.96,5.19,1.27,10.01.75,11.65,1.81,23.41,2,35.14-7.04.36-14.57,1.54-21.41.04-.79-1.13.94-15.35,1.05-18.09.44-10.34.82-20.64,1.28-30.93,1.48-33.19,2.63-66.33,3.3-99.57h9.2Z" fill="#fff"/>
  <path d="M133.27,679.59c-1.48-.46-1.03-5.38-.98-6.9.35-9.37,1.45-21.57,2.57-30.95.15-1.24,1.26-.63,1.42-1.88,2.13-16.66,2.09-36.28,3.24-53.28,1.27-18.71,3.25-37.42,3.28-56.21l12.5.66c0,.54.04,1.1.02,1.65-1.45,44.22-3.28,88.48-5.97,132.75-.27,4.44.73,9.09-.77,13.37-.87-.09-2.36.79-2.82.79h-12.49Z" fill="#fff"/>
  <path d="M549.12,460.05c-.26,5.12.33,10.36.02,15.48-.38,6.39-4.92,24.38-9.55,29.23-.93.97-3.59,3.11-4.29.98-.54-1.64,1-1.44,1.42-2.55,1.17-3.09,3.35-11.45,3.25-14.54-.04-1.2.1-2.17-1.04-2.94-2.45,1.66-1.64,5.03-2.35,7.37-.57,1.84-1.63,4.64-2.41,6.92-1.29,3.78-3.28,13.44-8.68,8.99,1.65-5.85,4.7-12.36,5.16-18.45.26-3.44-1.36-5.33-2.68-1.34-2.3,6.97-2.31,13.28-6.57,19.73-2.51,3.81-8.51,4.5-7.68-.38.36-2.1,3.73-6.81,4.69-9.83.49-1.54,2.47-9.7,2.4-10.78-.04-.56-.11-.93-.6-1.27-2.97-2.02-2.98,5.28-3.63,7.59-1.67,5.94-4.05,12.17-9.88,15.12-3.3-1-3.06-4.69-2.97-7.59.12-3.91,3.61-21.35,2.35-23.33-1.53-2.4-2.94,2.49-3.94,3.33-2.34,1.97-7.6,2.58-10.45,1.35-5.19-3.74,9.01-20.9,11.7-24.41l2.02-1.28c14.48,2.59,29.11,3.61,43.71,2.62Z" fill="#fff"/>
  <polygon points="277.59 566.21 338.07 565.22 336.76 594.47 335.77 596.12 278.57 596.12 277.59 595.13 277.59 566.21" fill="#fff"/>
  <path d="M156.61,174.79v51.93h-12.16l-16.76,3.95c-.61-4.02-1.82-8.41-3.19-12.23-1.99-5.56-4.71-12.17-7.01-17.99s-4.82-11.23-8.21-16.44c1.7-1.32,13.52,7.58,15.43,9.22,2.53,2.18,9.7,10.97,11.5,11.53,1.11.34,2.15.61,3.01-.36.79-1.63,1.54-3.72,1.55-5.53.09-11.66-10.28-26.61-21.62-29.99-.19-.24.86-1.31.98-1.31h17.09c1.32,0,11.14,3.32,12.99,4.1,2.31.97,4.02,2.57,6.4,3.13Z" fill="#fff"/>
  <path d="M352.04,159.17c.97-.87,22.65-3.17,25.82-3.43,20.62-1.73,47.25-3.49,67.7-1.97,1.98.15,8.44.99,9.58,2.25,1.47,1.62,2.86,12.78,1.31,13.9-14.77-.34-30.15-.79-45.1-.41-14.63.38-30.03,1.06-44.6,2.74-3.68.42-12.34,2.87-15.19,2.58-.69-.07-1.31-.27-1.47-1.01l1.95-14.64Z" fill="#fff"/>
  <path d="M522.73,216.28c3.92,8.06,5.71,17.47,8.63,26.21-21.39-2.47-42.95-3.93-64.4-.93-2.48-.03-1-8.98-1.29-11.27-.16-1.25-1.26-.64-1.42-1.88-.47-3.69.45-8.38.05-12.21,19.38-2.43,39.09-2.98,58.43.08Z" fill="#fff"/>
  <path d="M289.85,469.03l-10.01,5.44c-1.36,5.47,7.25-.08,9.13-1.39,1.61-1.13,3.84-4.29,5.41-4.5,4.44,1.06,19.18,2.66,21.55,6.12,5.63,8.24-14.84,1.45-17.53,2.41l-.92,1.69c.4,3.53,20.21.64,19.6,7.2-.39,4.19-11.54,1.16-14.19,1-1.76-.1-13.71.02-7.22,2.62,4.78,1.91,13.69-.31,17.38,3.65.52.56,1.23.78.37,1.62-5.77,3.76-12.25.83-18.4.62-1.66-.06-3.83-.43-4.95,1.02-.84,3.86,13.42.96,15.48,4.23v2.03c-2.79,4.42-24.44.42-29.29-1.01-2.62-.77-13.16-5.37-14.51-7.2-.55-.75-.58-1.01-.58-1.91,0-2.13,2.32-10.3,3.16-12.66.32-.9,1.16-.97,1.35-1.44,1-2.6,3.93-11.59,5.49-13.1,1.17-1.13,4.97-.71,6.95-1.27,2.84-.8,15.29-7.67,16.16-7.41,3.81,1.14-3.03,10.58-4.43,12.23Z" fill="#fff"/>
  <path d="M557.01,34.12c.19,15.79-14.35,26.35-29.22,26.98-12.89.55-28.14-5.87-32.7-18.64-.76-2.11-2.24-6.63-.86-8.34h62.79Z" fill="#fff"/>
  <path d="M489.94,34.12c0,2.19.2,4.66-.7,6.72-.4.92-2.86,5.17-3.63,6.36-10.37,16.22-37.05,18.58-50.6,5.35-4.11-4.02-11.17-12.81-7.86-18.44h62.79Z" fill="#fff"/>
  <path d="M422.23,34.12c-.61,30.61-48.62,36.82-60.39,10.09-1.26-2.87-1.28-5.26-2.09-7.66-.22-.66-1.16-.28-1.31-.8-.5-.89,1.44-1.64,1.66-1.64h62.13Z" fill="#fff"/>
  <path d="M521.5,212.91c-18.91-1.96-37.98-2.3-56.82.58-1.03-.24-1.58-7.71-1.69-9.46-.27-4.64.1-9.39.08-14.04,16.55-4.01,33.95-4.21,50.74-1.28l7.68,24.19Z" fill="#fff"/>
  <path d="M355.17,34.12c-1.89,35.8-61.58,36.58-61.8,0h61.8Z" fill="#fff"/>
  <path d="M372.27,688.14c-.25-1.23-.28-2.97-.73-4.07-2.47-6.01-6.47-12.34-11.82-16.57-2.26-1.79-5.93-3.23-7.78-4.71-.65-.52-.91-.61-.71-1.58,2.52-1.11,6.22-2.31,8.49-3.68,1.24-.75,2.75-3.21,3.75-3.41s3.22.96,4.59,1.1c14.22,1.38,28.67,2.74,42.71,4.63-.32,3.23,2.16,17.21.3,18.78l-38.79,9.52Z" fill="#fff"/>
  <path d="M468.34,266.72l-2.07-22.92c18.25-1.14,36.58-2.1,54.82.09,1.78.21,11.23,1.42,11.57,2.91-.57,1.87-1.93,3.83-3.25,5.24-1.65,1.76-17.93,13.61-19.57,13.96-7.85-.05-15.67-.82-23.54-.53-2.82.1-16.66,2.05-17.96,1.25Z" fill="#fff"/>
  <path d="M497.18,423.57c-.4.69-.99.76-1.67.96-6.36,1.83-17.47,3.15-24.3,3.97-12.32,1.48-24.78,1.9-37.15,2.3,2.5-6.85,2.77-13.7.67-20.69,15.71-.45,31.36-1.73,46.9-4.05,4.04-.6,10.68-2.89,14.2-2.92.78,0,.86.07,1.35.73v19.72Z" fill="#fff"/>
  <path d="M323.23,341.35c5.56-11.46,10.28-23.41,17.2-34.39,4.98-7.91,10.51-14.8,18.02-20.43-6.38,25.28-8.1,51.52-8.86,77.57l-27.68-17.71c-.98-1.91.57-3.5,1.32-5.04Z" fill="#fff"/>
  <path d="M470.25,693.39c-1.77-4.89-6.59-10.11-10.6-13.41-6.51-5.36-13.13-6.94-20.84-9.41-.52-.17-2.05.05-1.45-1.15.44-.89,12.36-7.79,14.29-8.73,14.2.37,28.19-1.22,42.28-2.5l3.93,12.57c-.03,1.39-1.84,1.63-2.55,2.68-2.32,3.43-1.87,6.91-2.38,10.76-7.31,3.59-14.78,7.04-22.66,9.19Z" fill="#fff"/>
  <path d="M118.44,682.26c.36,2.18-.54,5.18.37,7.19,1.19,2.62,6.03,2.96,7.55,5.26-9.89,3.06-19.71,11.79-21.7,22.36-9.09-2.12-18.07-4.63-26.18-9.31l4.5-30.13,35.46,4.64Z" fill="#fff"/>
  <path d="M482.05,129.43h-10.19c-1.8,0-10.14,2.63-12.33,3.44-9.41,3.48-17.49,9.95-23.83,17.59h-22.02c1.41-2.85,2.41-5.93,3.96-8.71,4.59-8.2,15.17-20.2,23.96-24.17,3.43-1.55,11.48-4.44,14.99-3.77,4.76.91,21.65,9.92,24.48,13.64.5.66,1.27.82.98,1.98Z" fill="#fff"/>
  <path d="M448.52,112.33c-18.51,5.04-31.61,21.06-38.12,38.47l-22.37.98c.75-11.51,6.71-23.52,14.45-31.9,2.54-2.75,11.45-10.25,14.85-10.79,6.47-1.01,21.37.07,27.93,1.57,1.13.26,2.87.33,3.25,1.67Z" fill="#fff"/>
  <path d="M86.27,550.11c-.32,3.12.14,7,.77,10.07.75,3.71,3.04,6.32,2.42,10.51l-2.32,1.61c-3.26.27-5.56-6.43-6.15-9.05-5.21-.2-3.21,8.2-3.95,11.37-.11.48-1.1.38-1.27.93-1.07,3.59-.41,8.93-3.66,12.02-6.54-1.45.1-18.73-1.64-20.38l-2.65.43c-1.82,3.46-.26,17.74-2.74,19.14-5.61,3.18-5.27-6.34-5.03-9.3.26-3.28,1.76-6.75,2.11-9.77.28-2.4-1.65-2.56-2.73-.71-2.33,3.97-1.98,13.34-2.1,17.96-8.25,1.66-5.8-11.84-4.55-16.59.12-.47,3.83-3.03-.73-3.48-2.6,1.16-2.92,11.01-3.28,13.83-.12.91-.31,1.91-1.3.98-3.1-6.84-2.21-15.13-.21-22.21.48-1.69,4.56-11.76,5.45-12.32.77-.48,1.34-.29,2.13-.18,4.81.62,10.99,3.71,16.69,4.4,4.56.56,10.01.07,14.72.74Z" fill="#fff"/>
  <path d="M511.87,183.79c.13.29,1.71-.1,1.08,1.51-17.07-2.28-33.67-1.29-50.62,1.32l-1.9-22.94c13.97-3.63,28.58-4.28,42.9-2.6,1.78.58,7.15,19.57,8.54,22.71Z" fill="#fff"/>
  <path d="M500.06,153.51c.51.95,2.77,2.7,2.37,4.84-14.2-2.14-28.89-1.36-42.73,2.64-.14-12.2-11.3-9.06-19.72-10.85,3.39-2.01,5.56-5.49,8.6-7.84,8.51-6.56,24.4-11.55,35.13-10.25,4.94.6,10.6,10.34,13.06,14.55,1.17,2.01,2.1,4.69,3.29,6.91Z" fill="#fff"/>
  <path d="M155.3,504.1l-12.46-.69c.11-17.39-.8-34.93-3.42-52.13-.98-6.42-2.79-12.35-4.44-18.03-.96-3.3-1.81-6.68-2.69-9.99,3.88,1.3,7.4,3.5,11.29,4.81,2.49.84,5.32-.27,6.46,2.75,1.24,3.3,2.01,10.15,2.54,13.89,2.81,19.68,3.28,39.6,2.72,59.4Z" fill="#fff"/>
  <path d="M182.47,480.25c.09.21,1-.05,1.15,1.12.8,6.19-.87,13.16.32,19.44-1.16,1.87-11.05,2.6-13.53,2.63l-.66-34.5-5.14-41.64c4.03-1.69,7.85-4.06,10.74-7.33,1.86,7.56,3.33,15.6,4.26,23.34.73,6.06,1.61,34.21,2.85,36.95Z" fill="#fff"/>
  <path d="M208.72,686.66c1.3,1.34,5.95,2.76,7.72,3.78-8.4,4.94-16.53,10.84-18.36,21.09-2.06,1.53-22.7-4.81-26.26-6.39l1.22-21.27,1.47-1.82,32.31-3.71c2.19.62.09,6.47,1.9,8.33Z" fill="#fff"/>
  <path d="M475.81,595.46c-1.43-.44-2.44-11.27,2.06-10.3,28.76,0,57.9,1.38,86.73.47,1.14-.04,2.18-.31,3.23-.7l1.01,10.53h-93.03Z" fill="#fff"/>
  <path d="M142.81,507.71c.72-2.33,9.42-.26,11.51-.27,4.99-.01,12.18-.29,17.08-.73,1.92-.17,12.27-2.52,12.83-1.97l.37,20.42c-10.71,2.33-23.15,4.01-34.22,3.24-2.18-.15-6.01-.52-7.57-1.64v-19.06Z" fill="#fff"/>
  <path d="M465.61,267.47l.53,13.97c-8.09,12.12-20.58,21.38-34.85,24.99-16.37,4.14-39.57,2.75-47.85-14.32l9.85,3.3c26.76,6.49,58.54.28,70.84-26.51.43-.93-.39-1.79,1.49-1.43Z" fill="#fff"/>
  <path d="M173,406.21c2.68,8.87.82,13.7-7.59,17.61-11.1,5.16-29.06,1.23-36.68-8.52-4.71-6.03-1.77-6.82-1.04-13.75,14.38,5.85,30,7.18,45.31,4.66Z" fill="#fff"/>
  <path d="M409.08,109.72c-3.31,3.57-7.31,6.5-10.53,10.17-8.31,9.46-11.69,20.07-14.4,32.27l-19.11,1.59c-.41-.4,1.88-9.84,2.29-11.19,1.1-3.69,7.87-18.23,10.25-20.64,1.65-1.66,12.43-6.91,15.09-7.92,5.05-1.91,11.16-2.95,16.42-4.28Z" fill="#fff"/>
  <path d="M265.5,471.65c-5.44,11.05-9.11,24.65-8.32,37.4.13,2.18,2.2,6.07-.13,6.08-1.42,0-11.28-1.65-12.33-2.16s-1.21-1.53-1.35-2.6c-1.32-10.12,1.16-24.26,4.16-34.02.81-2.64,3.58-10.73,5-12.59,1.16-1.52,12.72,1.38,15.21,1.22,1.03.79.35.76.1,1.44-.52,1.44-1.64,3.81-2.34,5.25Z" fill="#fff"/>
  <path d="M96.63,530.23c-.98.98-4.05.89-5.45.85-6.01-.19-13.57-1.08-19.51-2.2-8.24-1.55-16.7-4.59-24.05-8.48l2.5-14.33c15.13,7.15,31.21,10.74,48.02,10.82.85.52.38,1.07.36,1.67-.04,1.38-1.44,11.26-1.86,11.68Z" fill="#fff"/>
  <path d="M96.13,533.67l-1.93,12.86c-10.49.7-21.34.49-31.62-1.99-3.11-.75-15.73-4.9-17.11-7.21-1.22-2.03.64-14.1,1.68-14.16,14.89,7.84,32.21,10.55,48.99,10.5Z" fill="#fff"/>
  <path d="M355.82,402.87l36.21,6.98c-2.09,6.35-2.35,12.94-.05,19.31-1.38,1.23-32.59-4.3-36.16-6.9v-19.39Z" fill="#fff"/>
  <path d="M429.74,408.51c14.58,19.38-15.61,42.48-31.19,24.28-17.66-20.62,13.17-48.24,31.19-24.28ZM404.68,408.99c-7.1,6.01-4.93,20.57,4.37,23.15,14.61,4.06,22.3-12.84,12.86-22.72-4.53-4.73-12.33-4.59-17.23-.44Z" fill="#fff"/>
  <path d="M537.28,648.7c.62,1.87-1.89,4.17-1.95,4.41-.23.99-.23,5.31,0,6.3.11.47,1.07.45,1.23.98,1.47,4.59,2.07,7.85,5.97,11.32h-40.1l5.76-11-.5-12h29.59Z" fill="#fff"/>
  <path d="M549.12,687.48h-53.26c.42-4.42-1.76-12.5,4.27-13.15,10.2-1.09,33.8-1.02,44.09-.03,1.75.17,3.64.3,4.91,1.67v11.5Z" fill="#fff"/>
  <path d="M158.58,504.1c.44-25.12-1.19-50.18-5.26-74.94l7.52-.58c1.15.29,1.35,3.7,1.58,4.97,4.2,22.57,5.21,47.08,5.08,69.93l-8.92.62Z" fill="#fff"/>
  <path d="M590.54,34.12v26.95c-5.59-.45-10.55-1.85-15.34-4.71-4.03-2.4-8.26-6.35-10.59-10.45-.74-1.3-5.61-11.79-2.67-11.79h28.6Z" fill="#fff"/>
  <path d="M241.82,488.08c-.04.16-.91.23-1.01.72-1.53,7.23-1.75,15.86-.7,23.17-2.37-1.13-9.54-2.3-11.16-3.63-1.88-1.55-1.54-12.35-1.32-15.09.48-5.92,5.79-19.82,8.63-25.55.84-1.69,3.28-6.79,4.85-7.03,1.08-.16,8.77,1.65,8.83,2.32-4.31,8-6.15,16.34-8.12,25.08Z" fill="#fff"/>
  <path d="M450.77,692.46c1.73,1.76,3.87,3.2,4.98,5.53l-16.43,1.32c-.79-3.13,3.99-3.73,4.92-5.26.56-.93,1-2.73-.66-2.64-4.12.22-7.65,4.62-7.58,8.54l-7.87.03c-.74-4.94,2.17-7.92,6.55-9.24.29-4.14-3.22-2.32-5.19-.91-3.46,2.47-4.19,6.14-4.65,10.15l-8.57-1.76c-.05-1.73-.04-3.6.62-5.23.71-1.75,10.9-8.02,5.69-8.14-3.92-.09-10.65,8.76-8.91,13.15-11.79-1.3-5.14-10.26.65-14.8,12.15-9.51,27.45.06,36.44,9.26Z" fill="#fff"/>
  <path d="M477.18,535.88c-.36-.41-1.29.1-1.03-.88l4.22-1.37,85.83.38,1.29,1.38c.23,1.4-5.03,5.46-6.83,4.89h-77.65c-3.03-.43-4.12-2.45-5.84-4.41Z" fill="#fff"/>
  <path d="M531.04,598.09c.97.6.92,1.32,1.02,2.31.15,1.46-.52,8.01-.7,9.84-.4,4.11-2.6,20.7-4.06,23.54-1.13,2.2-6.42.65-8.7,1.15-1.32-.39-4.69-22.33-4.98-25.35-.32-3.35-1.33-8.87.32-11.5h17.09Z" fill="#fff"/>
  <path d="M551.75,598.09c.03,1.81.08,3.61-.17,5.42-1.03,7.53-5.5,18.2-9.35,24.83-3.44,5.92-4.4,7.92-12.18,6.22l5.6-36.47h16.11Z" fill="#fff"/>
  <path d="M508.68,598.09c1.68.52.84,7.18.99,8.87.65,7.15,1.64,12.62,3.38,18.98.77,2.8,1.5,5.73,1.88,8.62-4.96.6-6.36,1.78-9.5-2.34-4.39-5.77-8.79-15.37-10.46-22.41-.4-1.68-2.72-11.73-.76-11.73h14.46Z" fill="#fff"/>
  <path d="M357.13,690.11c-7.68.24-15.36,1.41-23.01,0,.16-2.98,6.24-4.12,6.93-5.22,3.24-5.13-10.44-.29-8.94,4.55-1.58-.1-5.78-.6-5.6-2.65,1.46-5.56,5.63-7.07,10.8-7.94l.1-2.53c-4.2-.47-8.99,1.97-11.46,5.3-1.3,1.76-1.47,5.66-3.99,3.25-5.18-4.94,8.81-12.29,12.82-11.85l-1.31-3.93c11.17.43,20.84,10.61,23.66,21.03Z" fill="#fff"/>
  <path d="M568.18,598.09c-.43,16.09-11.84,31.09-26.29,37.47l7.89-15.44c1.32-4.01,2.74-8,3.64-12.14.69-3.17.27-7.34,1.94-9.89h12.82Z" fill="#fff"/>
  <path d="M489.62,598.09c1.25.39,1.53,8.01,1.94,9.89,1.38,6.34,4.69,15.95,8.05,21.47.98,1.6,3.92,2.96,3.81,5.45-8.98-3.9-16.87-10.48-21.7-19.06-1.96-3.47-4.37-8.96-5.51-12.37-.32-.96-1.37-5.39.26-5.39h13.15Z" fill="#fff"/>
  <path d="M468.91,270.09l35.51-.98c.14.98-.78,1.37-1.38,1.91-2.65,2.39-19.36,13-22.42,13.74-3.97.96-11.71,1.88-11.71-3.82v-10.85Z" fill="#fff"/>
  <path d="M149.39,718.38c.68-4.41-5.99-11.66-10.2-11.2-5.16.56,1.71,3.25,2.28,3.66,2.84,2.03,4.2,4.74,4.63,8.18l-6.57,1.33c2.31-4.68-11.67-11.81-9.84-6.27,2.36,1.92,7.4,2.46,6.55,6.27-5.81.09-11.91.1-17.48-1.27-1.49-2.05,2.81-7.37,4.37-8.87,2.97-2.87,13.37-9.32,17.34-8.92,2.12.21,11.46,7.16,12.36,9.37,1.45,3.56,1.09,7.77-3.44,7.72Z" fill="#fff"/>
  <path d="M545.01,639.66c2.48,2.4-1.87,6.09-4.75,6.43-6.38.75-29.43.92-35.48-.05-1.45-.23-5.52-2.88-5.67-4.25-.21-2.33,3.03-3.39,4.96-3.62,8.04-.96,27.27-.74,35.55-.01,1.32.12,4.54.67,5.4,1.5Z" fill="#fff"/>
  <path d="M590.54,565.88v30.24h-17.42c-2.38-4.46,1.24-6.43,3.23-9.26,4.48-6.36,9.24-12.84,8.93-20.98h5.26Z" fill="#fff"/>
  <path d="M573.43,586.25l-1.3-.41c-.69-1.5-.3-3.72-.7-5.02-.16-.54-1.04-.43-1.22-.98-1.67-5.05.43-3.8,2.59-6.39,4.95-5.95,4.35-16.33-4.45-17.93-4.59-.84-6.01,1.62-9.69,3.16-.61.25-.49,1.1-1.34-.02-1.09-5.8-.76-7.43,4.81-9.02,11.23-3.21,19.49,4.76,19.48,15.91,0,7.91-4.22,14.26-8.18,20.7Z" fill="#fff"/>
  <path d="M415,678.93l-1.97-19.05c9.21.94,20.35-.35,29.29.62,1,.11,1.63.06,2.26,1.02l-29.57,17.41Z" fill="#fff"/>
  <path d="M486.65,559.3c-2.17-.41-3.38-2.57-5.55-3.31-13.03-4.45-16.02,13.84-6.41,20.17-.88,2.55-1.26,5.19-1.83,7.83-.14.64.38,2.19-.99,1.61-.54-.23-3-3.58-3.51-4.38-5.54-8.73-9.13-19.67-.8-28.18,6.72-6.86,22.68-5.88,19.09,6.27Z" fill="#fff"/>
  <path d="M358.69,269.21c.11.23.85.36,1.05.72,1.59,2.96,3.13,5.77,5.25,8.39-1.09.89-2.61,2.44-4.05,2.18-1.65-.3-15.64-9.14-17.61-10.73-2.95-2.37-5.12-4.68-3.5-8.73,1.12-2.62,12.86-1.01,16.01-1.85,1.23,3.23,1.38,6.86,2.85,10.02Z" fill="#fff"/>
  <path d="M340.7,256.95l3.28-22.54c.63-1.49,7.58-1.09,9.21-1.13l2.55,21.97c-.19.78-4.76,1.69-5.51,1.69h-9.53Z" fill="#fff"/>
  <path d="M212.83,714.43c-.52-.07-2.41-.49-2.2-1.53,1.32-6.75,6.98-11.22,12.82-14.15,4.85-2.44,5.92-2.84,10.43.56,3.6,2.72,8.47,8.41,2.97,11.83,1.35-3.82-7.2-12.3-10.1-11.72-5.24,1.05,3.81,5.61,4.87,6.76,1.52,1.65,2.26,3.67,3.26,5.61l-6.11,1.35c-2.05-3.4-4.55-6.64-8.58-7.81-.42.09-1.73,1.39-1.73,1.54,0,.49,6.43,4.88,7.22,6.58-.17.31-1.54.98-1.64.98-3.37,0-8.04.42-11.18,0Z" fill="#fff"/>
  <path d="M290.08,34.12c.4.4-.3,9.92-.7,11.34-.14.51-1.03.48-1.21,1.01-2.01,5.97-4.18,11.99-10.59,14.6v-21.03l-1.31-.65c3.52-.38-.79-2.18-.03-4.18.14-.42,1.51-1.09,1.67-1.09h12.16Z" fill="#fff"/>
  <polygon points="116.47 205.05 120.39 218.76 108.34 222.73 104.01 208.98 116.47 205.05" fill="#fff"/>
  <path d="M123.35,226.47c.07.18.92.33,1.29,1.62.26.91.8,3.96.35,4.48l-13.73,5.31-2.6-12.42,12.72-3.96c1.03.27,1.45,3.72,1.95,4.97Z" fill="#fff"/>
  <path d="M351.82,207.71l1.38,22.29-8.55.65,1.98-18.61c2.66-1.78-.33-5.02,5.19-4.34Z" fill="#fff"/>
  <path d="M361.59,154.26l-8.39,1.47c-1.05-1.48,3.59-11.52,4.7-13.4.43-.73,1.48-.93,1.88-1.55,2.57-3.94,4.92-8.91,9.18-11.34-3.29,8.08-6.23,16.11-7.38,24.82Z" fill="#fff"/>
  <polygon points="109.9 190.57 115.19 202.38 103.41 205.63 100.83 193.94 109.9 190.57" fill="#fff"/>
  <path d="M415.65,245.78c.44,2.92-.43,3.55-2.41,5.14-6.15,4.92-21.26,6.85-24.52-2.2,1.41-4.84,5.73.25,9.01.85,2.1.38,6.21.39,8.33.1,3.65-.5,6.12-3.3,9.59-3.88Z" fill="#fff"/>
  <path d="M477.37,572.36c-3.82.84-6.18-5.53-5.81-8.73.95-8.08,12.68-4.83,12.37-1.49-.16,1.71-6.53,7.25-6.56,10.21Z" fill="#fff"/>
  <path d="M570.4,570.07c-.87.96-1.21,2.66-2.87,2.39l-6.49-10.31c2.2-5.47,11.11-4.45,11.76,1.43.45,4.07-.17,4.03-2.4,6.49Z" fill="#fff"/>
  <path d="M99.91,179.5c3.4-.71,7.45,4.99,8,8.03l-8.22,3.67c-1.38.05-3.58-7.37-3.54-8.24.06-1.17,2.72-3.25,3.75-3.47Z" fill="#fff"/>
  <path d="M268.99,501.52c-.83,4.58-3.52,9.18-7.52,11.76-2.46-.17-1.66-13.47-.98-15.76l8.49,4Z" fill="#fff"/>
  <path d="M505.72,655.93c-.42,4.43-.88,10.51-5.57,12.49-1.77-.4-2.82-9.24-2.95-11.15l8.52-1.34Z" fill="#fff"/>
  <path d="M278.9,409.45c4.69-.52,9.59-3.13,13.8-5.26-.62,4.22-1.89,8.56-6.57,9.55-3.05.64-7.33-.76-7.23-4.28Z" fill="#fff"/>
  <path d="M351.78,204.26l-3.18.76,1.32-15.11c.91.38,1.09,3.35,1.23,4.35.21,1.56,1.09,9.27.64,10Z" fill="#fff"/>
  <path d="M295.99,744.66c-2.65.1-5.64-.46-8.08-1.45-6.03-2.45-12.89-10.8-13.62-17.28-.99-8.85.7-17.75,11.51-11.53,3.57-9.57,10.2-11.73,16.44-2.59,13.13-10.93,15.65,8.17,13.17,17.76-1.82,7.05-9.63,13.82-16.79,15.09v22.35l3.64-5.89c4.52-6.22,11.23-12.15,19.23-13.02,9.56-1.03,7.76,5.83,4.34,11.6-12.7,21.44-41.77,23.46-54.7.94-5.1-8.89-6.12-16.47,7.1-12.38,4.72,1.46,7.42,4.43,11.46,6.97l6.3,10.46v-21.03ZM295.98,722.97c-.39-2.23,3.65-7.16,3.72-8.22.1-1.68-3.91-6.28-5.91-6.1-2.36-.03-4.62,6.52-4.28,7.94.09.38,4.39,5.2,5.1,5.96.52.56.46.6,1.36.42ZM312.06,716.14c-.74-1.69-1.07-3.75-2.69-4.94-1.12-.33-3.54,1.27-4.4,2.02-.59.51-4.61,5.6-5.01,6.31-1.22,2.12-1.49,4.68-2.47,6.58-1.86,3.59-6.01-4.15-7.39-5.45-2.88-2.73-7.7-5.92-11.79-4.83-6.47,21.25,21.46,37.83,32.73,15.95.33-.63,1.91-3.84,1.98-4.07.97-3.14,1.08-7.68,0-10.78-.18-.5-.89-.61-.97-.79ZM289.19,759.35c-1.53-1.79-7.24-6.44-9.38-7.38-1.58-.7-8.41-2.82-9.38-1.3.3,6.98,7.26,14.98,12.74,18.98,3.6,2.63,7.59,4.41,12.16,3.94-1.21-4.46-3.11-10.67-6.14-14.23ZM326.24,751.24c-9.75-1.28-17.68,4.88-22.23,12.94l-4.07,9.4c1.93,1.84,14.96-5.72,17.02-7.62,2.49-2.29,4.17-5.54,5.98-8.3,1.1-1.68,3.83-3.05,3.29-6.42Z"/>
  <path d="M529.39,752.88c-5.58-2.31-9.72-4.94-12.41-10.6-4.61-9.68-3.8-32.96,11.99-22.66,5.1-6.83,12.72-6.39,14.24,2.7.73.65,11.1-5.63,12.43,3.67,2.03,14.28-8.08,27.84-22.95,27.22v19.72l2.86-5.03c5.22-4.77,9.18-8.43,16.59-9.37,14.25-1.81,2.22,16.66-2.98,20.67-16.9,13.03-38.84,4.25-46.17-14.37-1.84-4.68-4.67-14.21,3.42-13.33,7.75.84,12.68,6.47,18.17,11.13l4.83,7.66v-17.42ZM535.12,717.83c-.9.27-4.43,3.89-4.43,4.8,1.2,1.5,3.16,7.63,4.94,7.61.74,0,3.81-3.68,4.19-4.4,1.78-3.36-.62-9.24-4.7-8.02ZM533.51,734.65c-2.02-2.04-6.83-18.63-13.33-14.65-4.4,7.13-3.36,20.42,2.99,25.96,13.6,11.88,31.81-2.63,29.91-18.73-.98-8.26-9.9-1.14-12.84,2.31-1.4,1.64-3.89,7.98-6.73,5.11ZM524.57,767.87c-.88-1.35-5.65-6.59-7.01-7.77-3.68-3.19-8.87-5.61-13.81-5.58.07,13.12,12.26,27.2,25.64,27.6.61-.44-3.84-12.73-4.82-14.25ZM548.89,775.99c3.15-2.79,6.65-9.09,7.48-13.25-.32-3.96-11.26.68-13.5,2.3-1.86,1.35-6.72,7.21-7.51,9.06-.88,2.07-1.18,5.74-2.02,8.02,2.27.29,3.98-.14,6.09-.8,1.92-.6,8.01-4.04,9.46-5.33Z"/>
  <path d="M63.91,768.98c-9.99.37-16.89-5.04-20.3-14.22-2.91-7.84-2.79-21.23,9.01-16.13,2.87-4.36,3.6-9.8,10.23-9.04,4.39.51,6.25,4.05,8.61,7.17,5.71-5.31,11.97-2.57,12.82,4.94,1.52,13.34-3.48,23.64-17.03,26.69-1.1,1.28,1.12,14.56-.07,17.02,1.81.3,1.73-2.59,2.75-4.15,4.61-7.06,15.17-12.82,23.73-10.81,6.07,1.42-.63,13.27-3.19,16.24-13.18,15.26-38.4,13.96-49.84-2.63-1.7-2.47-6.91-13-2.58-14.27,7.22-2.13,17.43,4.77,21.88,10.07,1.43,1.71,2.3,4.17,3.96,5.57v-16.43ZM64.99,745.1c.46-.6,3.14-4.64,3.26-5.01,1.45-4.62-6.67-11.58-10.53-5.23-4.06,6.7,1.39,7.84,5.21,12.43.36-1.2,1.59-1.59,2.06-2.19ZM79.58,736.89c-4.1-2.53-10.28,6.25-11.98,9.16-.97,1.66-1.36,5.55-3.37,5.88-3.25.54-3.89-3.05-5.59-4.96-5.92-6.63-15.53-11.84-13.62,2.44,3.09,23.03,34.13,20.99,36.58.1.28-2.38.01-11.38-2.01-12.63ZM63.91,794.62c-1.79-11.61-12.72-22.71-24.98-22.34.61,5.75,5.4,12.53,9.85,16.11,4.16,3.34,9.76,5.88,15.13,6.23ZM88.64,784.52c1.22-1.57,5.74-9.4,4.58-10.97-13.05-2.46-23.58,8.63-24.71,21.06,7.59.21,15.55-4.19,20.13-10.1Z"/>
  <path d="M451.88,775.48c7.44-1.2,19.01.56,21.78,8.8,3.73,11.11-16.86,11.03-23.42,10.27-5.29-.61-13.08-3.05-11.58-9.79-11.62,1.6-26.89,2.95-37.93-1.85-3.72-1.62-8.54-5.19-6.59-9.82.13-.32,3.47-4.73,4.08-5.43,14.48-16.52,47.09-15.64,53.66,7.82ZM398.1,778c3.91,4.74,21.8,5.73,27.77,5.47,8.48-.37,16.65-1.73,23.16-7.56-5.44-18.87-30.36-20.33-44.51-10.5-3.06,2.13-9.65,8.68-6.42,12.59ZM468.67,781.71c-6.59-6.29-27.74-3.84-26.06,5.97,1.02,5.97,19.27,4.57,23.7,3.35,6.5-1.78,7.41-4.5,2.36-9.32Z"/>
  <path d="M182.53,777.26c.15.25.87.42,1.23,1.1,1.69,3.14,1.98,6.85,1.78,10.35h-1.97c1.07-2.87-.99-3.74-1.27-4.45-1.81-4.66-2.37-6.65-5.61-10.71-.57-.71-3.95-2.13-2.33-3.9,2.02-2.19,7.36,6.32,8.16,7.61Z"/>
  <path d="M198.69,772.93c-1.14,5.39-4.96,9.6-4.04,15.67l-3.19.75c-1.53-1.58,2.1-17.25,7.23-16.43Z"/>
  <path d="M277.59,624.38v12.49c0,.17-2.65.87-3.32.38-1.53-1.11-.31-11.19.04-13.53l3.28.66Z"/>
  <path d="M284.01,636.7c-1.16,1.52-3.85-.12-2.82-2.44s6.57-9.58,9.56-7.6c2.19,1.46-4.24,5.15-5.28,6.58-.95,1.31-1,2.85-1.46,3.45Z"/>
  <path d="M265.5,629.22c1.77,2.42,3.72,5.95,2.88,8.95l-2.1-1.53c-.26-2.64-5.76-7.89-6.17-9.61-.16-.68,1.1-1.99,1.38-1.99s3.68,3.72,4.02,4.18Z"/>
  <path d="M209.21,779.51c.44,3.04-3.16,3.91-4.61,5.57-1.36,1.55-1.58,5.61-3.95,3.97-1.68-1.16,1.29-5.81,2.3-6.94,1.71-1.91,3.66-2.75,6.26-2.6Z"/>
  <path d="M36.29,620.43c-1.49.2-2.44-.06-2.66-1.66,1.47-4.38-.64-9.59,2.33-13.44,2.4-.03-.41,13.36.33,15.1Z"/>
  <path d="M43.44,621l-2.53.1c-.98-2.58.99-3.16,1.25-3.81.6-1.5,2.8-8.48,4.98-8.02.91.19.93,1.13.71,2-.7,2.78-4.07,6.42-4.41,9.74Z"/>
  <path d="M29.07,620.43c-.08.11-2.47.76-2.61.66-.37-1.46-1.07-3.13-1.87-4.39-.68-1.06-5.41-6.13-2.42-6.77,1.69-.36,7.4,9.83,6.89,10.51Z"/>
  <path d="M36.95,400.89c-3.79-1.2-3.69-7.31-6.29-10.47-1.27-1.54-4.41-3.06-5.89-4.63-.71-3.8,4.14-.82,5.57.35,3.61,2.93,6.69,10.07,6.61,14.75Z"/>
  <path d="M57.33,387.1c1.01.98-3.86,6.1-4.57,7.07-1.18,1.59-1.36,4.75-3.97,4.1-1.5-1.5,4.49-12.97,8.54-11.17Z"/>
  <path d="M44.19,396.3h-1.97v-12.82c0-.17.75-.66.99-.97.23.31.99.8.99.97v12.82Z"/>
  <path d="M143.93,337.93c8.84-2.63,10.48,12.14,4.83,14.03-9.54,3.19-11.16-12.15-4.83-14.03Z"/>
  <path d="M187.68,331.4c6.32-5.58,13.95,9.66,7.05,12.63-8.03,3.45-10.86-9.27-7.05-12.63Z"/>
  <path d="M143.96,319.57c2.22-.28,6.47-.58,6.5,2.78.03,3.07-6.81,2.47-9.5,3.42-1.37.48-4.69,2.38-5.97,3.24-.89.59-3.74,5.05-5.71,2.26-3.37-4.78,10.99-11.23,14.68-11.69Z"/>
  <path d="M183.37,350.48c.49.71,1.34,4.98,1.3,5.96-.22,4.92-8.36,8.76-12.93,8.3l.08-2.55c16.98-2.58,7.37-13.93-1.24-19.93-.85-2.8.4-3.29,2.84-1.86.65.38,9.38,9.25,9.96,10.09Z"/>
  <path d="M197.2,319.89c-1.66,1.69-5.32-.81-7.45-1.1-3.2-.43-6.87.19-10.14-.05-2.16-6.65,9.08-5.83,13.19-4.97,2.54.53,7.14,3.31,4.4,6.12Z"/>
  <path d="M183.57,374.62c.47.49-2.05,3.06-2.29,3.26-6.94,5.45-20.64,4.26-26.63-2.29l1.55-1.56c7.48,4.81,18.12,8.05,24.52-.01l2.85.61Z"/>
  <path d="M100.52,362.98c-2.9-4.03-8.17-2.8-10.64,1.1-2.63-1.8.53-5.27,2.47-6.06,2.46-1,4.8-.69,7.1.45,5.03,2.49,4.41,9.18,2.59,7.94-1.09-.82-.88-2.54-1.52-3.42Z"/>
  <path d="M419.44,178.9c4.54-.66,17.31-.29,18.95,5.06,2.33,7.64-8.99,1.53-11.9,1.34-3.38-.22-11.66,3.08-12.69-.47-1.16-4,2.5-5.47,5.65-5.93Z"/>
  <path d="M380.71,187.84c-4,.22-8.55-.12-12.43,1.04-2.5.75-7.62,5.19-9.83,2.68-4.52-5.11,9.13-9.84,12.84-10.2,5-.49,12.56-.53,9.43,6.47Z"/>
  <path d="M369.16,203.24c8.85-8.83,15.17,18.02,2.41,13.98-4.46-1.41-5.24-11.15-2.41-13.98Z"/>
  <path d="M429.75,204.09c.16.26.79.39.96.8,2.98,7.01-5.23,14.98-9.7,7.59-4.4-7.25,2.65-18.66,8.74-8.39Z"/>
  <path d="M404.68,408.99c4.9-4.15,12.7-4.29,17.23.44,9.44,9.87,1.75,26.78-12.86,22.72-9.3-2.59-11.47-17.15-4.37-23.15ZM405.99,411.62c-6.18,5.56-2.18,17.97,6.73,18.23,13.77.4,13.54-21.04.63-21.08-1.43,0-6.34,1.93-7.36,2.85Z"/>
  <path d="M312.06,716.14c.08.19.79.29.97.79,1.08,3.1.97,7.64,0,10.78-.07.22-1.65,3.43-1.98,4.07-11.26,21.88-39.2,5.3-32.73-15.95,4.09-1.09,8.91,2.1,11.79,4.83,1.38,1.3,5.53,9.04,7.39,5.45.98-1.89,1.25-4.45,2.47-6.58.41-.71,4.43-5.79,5.01-6.31.86-.75,3.28-2.35,4.4-2.02,1.61,1.19,1.95,3.24,2.69,4.94Z" fill="#fff"/>
  <path d="M289.19,759.35c3.04,3.56,4.93,9.77,6.14,14.23-4.57.47-8.56-1.31-12.16-3.94-5.48-4-12.43-12-12.74-18.98.96-1.51,7.8.61,9.38,1.3,2.14.94,7.85,5.6,9.38,7.38Z" fill="#fff"/>
  <path d="M326.24,751.24c.54,3.37-2.19,4.74-3.29,6.42-1.81,2.75-3.49,6.01-5.98,8.3-2.06,1.9-15.09,9.47-17.02,7.62l4.07-9.4c4.55-8.06,12.47-14.22,22.23-12.94Z" fill="#fff"/>
  <path d="M295.98,722.97c-.91.18-.84.14-1.36-.42-.71-.76-5.01-5.58-5.1-5.96-.34-1.42,1.92-7.97,4.28-7.94,1.99-.18,6.01,4.42,5.91,6.1-.07,1.06-4.11,5.99-3.72,8.22Z" fill="#fff"/>
  <path d="M533.51,734.65c2.83,2.87,5.33-3.47,6.73-5.11,2.94-3.45,11.86-10.57,12.84-2.31,1.91,16.1-16.3,30.61-29.91,18.73-6.35-5.54-7.39-18.83-2.99-25.96,6.5-3.97,11.31,12.61,13.33,14.65Z" fill="#fff"/>
  <path d="M524.57,767.87c.98,1.52,5.43,13.81,4.82,14.25-13.38-.4-25.57-14.48-25.64-27.6,4.94-.02,10.14,2.39,13.81,5.58,1.36,1.18,6.13,6.42,7.01,7.77Z" fill="#fff"/>
  <path d="M548.89,775.99c-1.45,1.29-7.54,4.73-9.46,5.33-2.12.66-3.83,1.09-6.09.8.84-2.29,1.14-5.95,2.02-8.02.79-1.85,5.65-7.71,7.51-9.06,2.23-1.63,13.18-6.26,13.5-2.3-.82,4.17-4.33,10.47-7.48,13.25Z" fill="#fff"/>
  <path d="M535.12,717.83c4.08-1.22,6.48,4.66,4.7,8.02-.38.72-3.44,4.39-4.19,4.4-1.78.01-3.75-6.11-4.94-7.61,0-.91,3.52-4.54,4.43-4.8Z" fill="#fff"/>
  <path d="M79.58,736.89c2.02,1.25,2.29,10.25,2.01,12.63-2.45,20.89-33.49,22.93-36.58-.1-1.91-14.28,7.7-9.08,13.62-2.44,1.7,1.91,2.34,5.5,5.59,4.96,2.01-.34,2.4-4.22,3.37-5.88,1.7-2.91,7.89-11.7,11.98-9.16Z" fill="#fff"/>
  <path d="M88.64,784.52c-4.58,5.91-12.54,10.31-20.13,10.1,1.13-12.44,11.66-23.52,24.71-21.06,1.16,1.57-3.36,9.39-4.58,10.97Z" fill="#fff"/>
  <path d="M63.91,794.62c-5.36-.35-10.97-2.89-15.13-6.23-4.45-3.57-9.25-10.36-9.85-16.11,12.26-.37,23.18,10.73,24.98,22.34Z" fill="#fff"/>
  <path d="M64.99,745.1c-.47.6-1.71.99-2.06,2.19-3.82-4.59-9.27-5.74-5.21-12.43s11.97.61,10.53,5.23c-.12.37-2.79,4.41-3.26,5.01Z" fill="#fff"/>
  <path d="M398.1,778c-3.23-3.91,3.36-10.46,6.42-12.59,14.15-9.83,39.07-8.36,44.51,10.5-6.51,5.83-14.68,7.19-23.16,7.56-5.97.26-23.86-.73-27.77-5.47Z" fill="#fff"/>
  <path d="M468.67,781.71c5.05,4.82,4.14,7.54-2.36,9.32-4.43,1.21-22.68,2.62-23.7-3.35-1.67-9.8,19.47-12.26,26.06-5.97Z" fill="#fff"/>
  <path d="M405.99,411.62c1.02-.92,5.93-2.85,7.36-2.85,12.9.04,13.14,21.48-.63,21.08-8.91-.26-12.91-12.67-6.73-18.23Z" fill="#fff"/>
</svg>