<?xml version="1.0" encoding="UTF-8"?>
<svg id="Camada_1" xmlns="http://www.w3.org/2000/svg" version="1.1" viewBox="0 0 595.28 841.89">
  <!-- Generator: Adobe Illustrator 29.0.0, SVG Export Plug-In . SVG Version: 2.1.0 Build 186)  -->
  <path d="M.14,841.29V-.06h595v841.34H.14ZM380.15,3.89H4.08v387.15h22.02c.17,0,1.23-1.03.93-1.57-5.15-6.88-16.48-26.17,2.16-17.3.98.46,6.14,4.08,6.43,3.75-.71-8.15-2.92-17.1-1.97-25.3.25-2.11.72-4.73,3.35-4.64,4.2,2.22,6.47,6.19,9.03,10.01l4.71,9.41c.44-1.43.3-3.45.72-4.75.17-.54,1.06-.47,1.21-1.01,2.39-8.7,3.65-22.98,13.5-26.46,2.64.25,2.84,5.29,3.01,7.55.77,9.94-.39,20.09-1.33,29.93,5.8-6.03,12.61-14.49,21.61-15.04,1.76,1.11-.87,14.63-1.66,16.93-.71,2.04-3.95,4.36-3.51,7.31.62.67,16.82-6.97,14.43,2.16-.13.5-1.02.51-1.22.99-.86,2.05-2.13,4.38-2.81,6.28-.24.68-.93.64.1,1.44l49.98-.35c.43-1.54-.41-1.11-.84-1.5-3.15-2.83-4.66-.85-8.69-1.14-3.23-.23-5.53-1.11-7.46-3.71-.79-1.07-1.47-3.36-2.09-3.82-2.96-2.22-9.3-.42-13.43-6.95-3-4.75-4.74-11.08-3.13-16.66-3.82-3.19-7.85-9.51-8.41-14.52-.43-3.89,1.18-10.2-1.31-13.18-.51-.6-1.6-.77-2.01-1.41-2.51-4-2.15-14.64.05-18.75.37-.7,1.4-.85,1.85-1.58,1.43-2.31,2.43-4.57,4.53-6.48-4.8-7.86-2-21.71,5.12-27.28,2.88-2.25,11.85-5.02,12.76-7.1.54-1.24.73-2.73.71-4.08H41.89c-.46,0-2.64-1.07-2.87-1.73-.99-2.83.04-15.53-.05-19.66-.77-35.36-2.38-73.84-.72-109.11.57-12.04,4.29-29.09,8.73-40.57,18.49-47.79,83.39-61.31,127.37-43.51,39.77,16.09,51.84,55.36,53.3,94.6,1.22,32.58-1.04,65.88.06,98.53.4,1.2,9.18,2.1,11.54,2.92,5.09,1.78,11.32,6.34,14.14,10.84,1,1.6,3.52,7.97,4.09,8.4.99.76,6.23,1.57,8.43,2.74,7.6,4.04,12.95,11.67,12.33,20.52-.11,1.62-1.31,4.05-1.13,5.17.16.96,3.1,4.46,3.8,6.64,2.55,7.84.82,17.79-6.28,22.72-2.22,1.55-7.29,2.18-8.09,3.74-1.28,8.18-.92,16.58-2.18,24.77-1.39,9.05-4.46,18.89-8.55,26.95-2.21,4.35-4.82,9.42-8.8,12.24-.65.36.59,1.32.67,1.32h64.76l-5.92-13.46c2.6-3.01,4.55,1.94,5.73,4.12,1.89,3.49,2.62,10.49,7.42,9.34-.89-4.25-.56-9.64.17-13.96.39-2.32,1.53-8.63,4.1-9.05,1.16-.12,1.02-.03,1.01,1-.02,2.87-1.55,6.8-1.91,9.93-.21,1.82-1.07,11.3.01,11.98l4.56-.18c.29-2.55,7.67-15.66,10.46-12.86,0,3.77-3.8,5.84-5.38,9.41-.57,1.29-1.68,2.9-.21,3.74h34.52c2.06-24.18,2.51-48.4,3.95-72.62,1.25-20.91,1.33-46.29,3.89-66.44.16-1.25,1.26-.64,1.42-1.89.73-5.69.28-13.2.61-19.1,2.64-46.15,5.21-92.57,7.91-138.67.12-2.07-.12-4.2-.03-6.27-12.63.42-14.96-15.53-5.87-21.98,1.85-1.32,4.07-1.54,5.9-2.78.37-18.99-.12-37.61-4.63-56.09ZM487.97,3.89h-103.88c.49,4.01,1.21,8.04,2.02,11.99s2.15,8.46,2.58,13.32c.91,10.32,1.07,20.94,0,31.22h64.43c.76-2.67,1.58-5.47,2.7-8.01,7.22-16.33,13.2-27.17,25.27-40.6,2.31-2.57,4.45-5.43,6.88-7.92ZM590.54,3.89h-96.98c-2.1,2.11-4.5,3.76-6.58,5.91-9.94,10.23-21.01,27.05-25.99,40.4-.51,1.35-3.64,10.45-3.25,10.87,12.76,1.82,11.94,25.27-1.98,23.67.22,1.69-.35,3.9.02,5.47.12.53,1.19.19,1.35,1.4.28,2.16-.54,13.66-.05,14.17,12.06-4.39,24.05-5.63,36.84-5.56,10.35-34.46,41.81-61.05,76.86-68.42,5.81-1.22,12.39-1.27,18.11-2.27.74-.13,1.23-.34,1.64-.99V3.89ZM590.54,32.15c-15.95,1.79-31.19,5.19-45.38,12.8-18.05,9.69-34.43,25.98-43.36,44.24-.62,1.26-4.07,10.95-3.9,11.6,2.3,1.79,5.99,1.5,8.9,2.26,6.46,1.68,14.51,4.59,20.17,8.09,1.4.86,7.41,6.43,8.33,5.8,1.2-2.33.2-5.31.68-7.43,4.78-20.68,15.98-39.83,33.86-52.36,6.32-4.43,13.4-8.03,20.69-10.54v-14.46ZM213.43,91.05c-18.72-39.97-58.84-53.5-101-45.56-11.85,2.23-24.94,6.86-34.7,13.94,23.72-9.68,52.23-6.08,73.18,8.32,23.99,16.49,31.06,44.94,32.69,72.49l.06,95.25c.13.55.47.82.99.99,1.94.64,8.64.41,11.57.92,2.18.38,6.2,1.48,8.25,2.27,1.81.7,6.78,4.01,7.58,3.99,1.07-.03,4.48-1.36,6.22-1.65,1.16-.19,5.33.05,5.42-.56-.54-27.35.67-54.79.02-82.14-.54-22.66-.66-47.75-10.27-68.26ZM590.54,50.56c-7.49,2.28-15.43,6.82-21.64,11.56-15.71,11.99-28.33,33.81-29.55,53.93-.45,7.39,2.49,7.57,5.7,13.19,6.1,10.66,4.55,14.15,7.51,24.7.6,2.15,3.15,4.47,3.65,6.87,1.1,5.32-1.47,7.43-3.72,11.65,1.64,9.02,3.61,18.03,5.1,27.07,1.03,6.25,2.05,12.31,3.36,17.79.2.86.66,7.15.67,8.42.02,3.02-2.92,5.48-5.3,7.19-5.27,3.78-11.01,4.58-16.8,6.88-.67.27-1.13-.35-.9,1.04,4.9,4.74,10.39,8.89,15.13,13.8,3.98,4.12,10.85,11.74,13.8,16.43,2.37,3.76,2.73,4-1.32,6.59,7.46,10.63,14.12,21.48,8.65,34.96-1.82,4.5-9.67,12.03-13.6,15.33s-10.93,6.61-14.17,9.49c-3.44,3.06-4.02,14.25-11.85,15.23l6.63,31.15h48.65V50.56ZM42.22,147.18v25.96c1.43,1.79,4.02-.17,6.25-.32,23.62-1.59,48.84,14.71,66.76,28.58.47.33.99.38,1.55.35,2.43-.12,11.59-8.18,14.37-10.03,14.69-9.82,30.81-19.39,48.72-21.5l.46-.98c-.56-11.05.61-22.6-.01-33.58-.38-6.75-2.97-17.68-4.82-24.76-12.06-46.23-66.91-69.07-107.44-42.71-8.63,5.62-12.66,15.4-17.95,23.78,9.55-2.66,20.44-3.2,29.4,1.84,3.43,1.93,9.37,8.44,11.04,11.97.81,1.73,1.36,4,1.67,5.9,11.7-2.2,24.41.11,28.22,12.86,6.45.43,12.1.15,17.43,4.26,8.4,6.46,7.78,16.67-3.26,19.06l-92.39-.67ZM383.25,64.5c-6.58,1.47-7.59,16.21.56,16.91l72.95.06c9.38-.76,8.47-16.86-.75-17.03l-72.76.06ZM452.47,84.74h-63.77l-18.42,312.54c8.83.39,17.83.63,26.68.36,1.57-.05,7.41.03,8.04-.83,1.65-7.63,2.35-15.6,4.03-23.22.23-1.03,1.18-.87,1.43-1.9,1.17-5.01,1.46-10.23,3.25-15.1-6.82-1.97-11-4.94-8.91-12.89.59-2.26,2.64-3.28,3.27-4.61s.41-2.99.91-4.33c.46-1.23,2.44-1.44,2.11-3.86l-.7-1.3c-4.46-3.34-9.46-7.02-13.49-10.84-4.89-4.64-12.65-12.77-13.38-19.49-.9-8.3.58-11.5,4.04-18.17.82-1.58,3.46-5.72,3.65-6.9.43-2.61-1.94-4.18-1.72-5.63.09-.62,4.09-6.65,4.84-7.62,6.22-8,14.49-14.83,22.33-21.06,1.99-1.58,4.13-2.87,6.21-4.3-4.99-1.82-17.1-8.23-17.76-13.79s1.35-14.82,2.95-20.08c4.1-13.42,9.05-28.21,14.1-41.26.48-1.23,3.16-8.01,3.2-8.46.11-1.21-1.63-3.12-1.85-5.14-.68-6.38,2.64-7.88,4.9-12.22,4.21-8.07,7.66-15.01,15.17-20.99,1.81-1.44,8.98-4.96,9.41-6.37l-.53-22.55ZM42.22,144.55h91.06c2.04,0,5.62-2.12,6.12-4.42,2.3-10.69-14.23-13.02-21.48-12.09-1.08-8.6-11.17-15.08-19.48-14.38-3.47.29-7.89,4.78-9.24.69-2.17-6.57-3.55-11.96-9.84-16.45s-23.81-6.48-30.17-1.25c-2.01,1.65-5.09,16.63-5.58,20.06-1.29,9.03-1.35,18.74-1.4,27.85ZM499.15,104.46c-.87-.84-22.57-1.12-24.05-.05-4.13,7.08-4.27,15.9-6.19,23.71l22.35,1.98c0-9.36,4.92-17.29,7.89-25.64ZM467.97,114.72c.57-2.02,2.49-6.67,2.64-8.24.08-.83-.12-.84-.72-1.34-4.07,1.77-16.78,4.49-18.9,8.05-.93,1.57-4.37,15.04-3.79,15.59l17.72-.69c.46-.44,1.56-10.77,2.06-12.6.15-.54.94-.62.98-.77ZM515.58,136.01c.13-8.34,5.41-14.68,8.52-21.93-5.71-4.52-12.92-6.6-19.93-8.24-6.61,6.35-8.97,16.62-9.62,25.57l21.04,4.6ZM444.96,121.95c.28-.85,1.86-5.31,1.58-5.66-5.71,3.5-10.18,9.5-12.48,15.77l9.1-2.72c.31-2.01.23-4.73.81-6.62.17-.55.93-.62.98-.76ZM537.05,123.75c-.95-1.04-8.26-7.54-8.98-7.18-3.79,3.21-9.98,15.82-8.43,20.31l29.47,14.23c.72-1.93-1.11-1.81-1.28-2.43-2.96-10.64-2.57-15.95-10.78-24.94ZM427.58,148.4c6.55-.46,12.59-2.55,19.31-3.19,27.77-2.62,57.27,3.4,82.95,13.68,6.69,2.68,13.36,5.9,19.77,9.22,3.06.44,3.94-5.32,3.09-7.77-1.57-4.56-15.2-11.6-19.77-13.75-24.97-11.75-65.31-19.64-92.3-12.9-7.73,1.93-15.95,4.97-13.05,14.7ZM520.08,159.13c-6.92-2.38-13.91-4.57-21.05-6.24-14.37-3.35-30.14-5.05-44.94-4.42-2.53.11-11.98.71-13.65,1.47-1.33.6-2.83,7.26-3.31,9.18-3.11,12.39-8.11,32.44,2.62,41.89l14.7-7.5c-4.83-9.57,1.87-14.62,6.72-21.52,1.7-2.42,2.5-6.58,5.76-5.74,3.12,2.96-15.2,18.21-8.85,25.61,1.8,2.1,12.27,1.69,15.58,2.18,7.8,1.16,17.93,4.88,23.95,9.91.58.48.82,1.73,1.54,2.12,7.79-1.88,17.52-7.95,20.24-15.97,2.96-8.72,1.32-21.82.69-30.96ZM436.03,151.13c-2.74.6-6.33.34-8.05,2.79-2,2.85-4.24,13.32-5.66,17.33-.32.89-1.19.99-1.35,1.45-.76,2.23-6.04,18.48-5.33,19.18l11.8.63c1.49-10.11,2.02-21.13,4.69-31.01.14-.52,1.06-.55,1.2-1.03.88-3.09,1.13-6.42,2.69-9.34ZM524.13,163.28c.73,7.15-.54,15.41,0,22.68l27.62.32c.11-1.05-2.2-13.23-2.65-13.79-1.4-1.74-8.53-5.02-10.93-6.16-1.83-.87-13.9-6.1-14.7-5.35-.38.96.61,1.84.65,2.3ZM180.28,237.23v-62.77c0-.7-1.46-.99-2.21-.96-2.03.09-9.31,2.17-11.6,2.93-10.47,3.45-24.95,12.12-34.11,18.48-4.34,3.02-8.21,6.76-12.55,9.78l22.06,16.71c1.21,1.16,1.5,2.9-.04,3.98-22.85-15.59-44.98-38.14-71.99-46.33-5.39-1.63-15.15-4.1-20.55-3.44-2.11.26-7.3,1.35-7.11,4.06l.68,55.92c2.21.43,4.23,1.24,6.15,2.39,1.4.84,8.29,7.7,8.98,7.11-.53-1.37-1.09-2.86-1.24-4.34-.66-6.57-1.07-17.03.08-23.43.45-2.52,1.54-4.48,4.26-3.28,7.62,3.35,13.35,13.4,16.63,20.54,2.34-3.29,13.2-18.3,17.76-15.47.62.8,1.96,3.93,1.96,4.63v17.42c5.88-2.78,11.56-6.44,18.41-5.92.23,5.93-1.06,15.12-4.7,19.96-1.04,1.39-3.33,1.71-3.19,3.71h16.77c.44,0,4.6-5.02,6.31-6.18,4.1-2.8,12.43-5.87,17.37-6.29,2.27-.2,9.81.78,10.39.58.86-.28,1.14-1.61,1.83-2.17,5.54-4.43,12.49-7.33,19.65-7.63ZM556.35,210.93l-3.9-20.74c-3.96-.03-26.56-3.1-28.03-.98l-.95,22.39,32.88-.67ZM428.15,214.88l-.95-19.1-13.46-.55c-1.05,4.25-1.83,8.68-3.25,12.83-.22.63-2.94,3.15-1.37,4.82.66.7,16.62,1.87,19.03,2.01ZM430.77,195.16v13.47c0,2.66,3.32,13.01,4.48,15.89,8.5,21.09,42.12,22.2,60.18,14.57,5.82-2.46,14.69-8.38,18.86-12.87.94-1.01,4.84-6.76,5.09-7.88.72-3.23.99-17.06.8-20.91-.04-.74.43-1.8-.65-1.63-3.96,7.36-12.98,11.52-20.71,13.84-1.13-.11-2.98-3.16-4.34-4.25-9.51-7.64-30.87-11.31-42.31-7.58-5.07,1.65-8.72,6.25-13.81,6.55-2.39-.39-5.4-7.46-7.59-9.21ZM523.47,214.88v15.45c2.66,1.13,9.96,7.54,11.98,7.44,2.92-.15,12.78-3.95,15.66-5.44,9.45-4.91,5.66-9.07,5.23-18.09l-32.87.65ZM431.96,229.87c1.01-1.71-2.75-9.05-3.12-11.42l-20.42-2.26c.18,2.22-.55,5.45.62,7.43,1.38,2.33,14.35,9.83,17.38,9.49.38-.04,5.37-2.96,5.54-3.24ZM42.22,239.2v18.73l.99.99h59.17c5.97-4.98,10.22-11.74,10.19-19.72-7.34-.44-12.66,5.46-18.72,8.55-2.05-.48.2-7.17.3-8.89.21-3.57.44-9.76.04-13.17-.33-2.84-1.25-2.75-3.35-1.31-2.22,1.53-7.94,8.59-9.3,11.08-2.36,4.32-1.84,5.9-.8,10.67-.42,1.33-2.37,2.41-3.35.96-.93-2.53-.76-6.32-1.69-8.69-.24-.61-1.17-.61-1.45-1.33-3.18-8.12-5.81-14.33-13.29-19.54-.92-.07-.95,3.57-.98,4.21-.42,7.45-.38,16.79.96,24.06.33,1.78,2.46,4.99,1.36,6.57-1.93,2.78-6.65-4.66-7.81-5.71-1.62-1.46-8.5-6.96-10.12-7.31-.72-.16-1.42-.2-2.15-.15ZM528.75,294.42c3.61-3.75,36.18-18.39,36.17-20.68,0-.88-2.66-4.23-3.42-5.17-8.57-10.68-22.49-24.37-33.98-31.76-1.18-.76-10.49-5.89-11.1-6.02-2.71-.58-9.51,6.42-12.57,8.19-16.63,9.59-45.23,11.33-61.46.12-2.62-1.81-5.47-6.84-8.48-6.36-1.23.2-12.69,7.86-14.51,9.22-7.22,5.37-16.45,13.67-22.04,20.69-1.31,1.65-4.44,5.56-3.74,7.41,1.13,3.01,11.86,9.81,15.13,11.88,3.69,2.34,7.64,4.52,11.51,6.57.25-.36.35-7.37.68-8.74.12-.51,1.15-.4,1.28-.92,1.54-6.33,1.6-14.35,3.98-20.89.41-1.14,2.34-4.22,3.61-2.32.59.89-2.99,12.66-3.43,14.99-1.87,9.86-4.4,29.71-2.01,39.09.16.63,1.68,3.98,1.98,4.26,3.35,3.14,32.4,6.51,38.27,6.77,10.61.47,24.32.6,34.87-.04,4.11-.25,17.95-1.75,21.21-3.12,3.99-1.67,3.38-4.65,4.14-7.58.14-.53,1.15-.44,1.27-.92.29-1.22.28-11.59,0-12.88-.11-.49-1.12-.62-1.51-1.28-3.28-5.63-6.52-11.34-10.11-16.78-.44-.67-1.45-.91-1.53-1.17-.66-2.26,2.37-2.79,3.97-1.3,2.12,1.97,5.43,8.94,7.33,11.77.5.75,1.45.94,1.88,1.56.55.8,2.38,5.25,2.63,5.43ZM271.26,275.11c-3.37-4.3-5.7-5.88-10.77-7.97-1.62-.67-4.16-.32-5.62-1.61s-2.51-7.34-5.3-10.48c-7.04-7.93-17.66-11.53-28.19-10.58-3.34.3-7.4,2.39-10.48,1.94-1.75-.26-4.43-2.46-6.61-3.28-14.41-5.44-33.31-5.03-44.21,7.15-16.06-2.93-33.32,3.64-37,20.79-11.77,2.28-20.14,10.1-18.23,22.84.48,3.19,2.58,4.93,2.48,7.92-6.48,5.21-8.46,13.5-6.96,21.54,1.36,7.27,3.07,1.7,4.69-.64,2.54-3.67,5.43-5.91,9.77-7.32,7.87-2.56,11.83-.91,18.28,3.35.44.29.48,1.28.87,1.32,3.45.36,8.13-8.58,9.51-11.37,3.07-6.2,1.96-8.8,3.68-14.87,1.59-5.63,4.47-1.67,9.74-1.38s11.74-.87,15.81-4.63c1.37-1.27,3.73-5.8,5.27-5.96,2.09-.37,2.15,1.78,3.27,2.68,9.84,7.89,21.12,5.76,30.26-2.02,1.16,0,4.52,4.7,5.61,5.59,5.14,4.17,15.16,5.51,21.16,2.82,1.99-.89,2.6-3.56,5.1-3.11.3,9.42,10.06,15.48,18.65,11.96,4.42.84,3.88,16.54,4.37,20.24,11.6-.6,14.57-15.22,9.99-24.13-.67-1.3-3.14-3.55-3.29-4.59-.1-.74,1.72-4.65,1.76-6.52.11-4.48-1.2-6.61-3.62-9.7ZM419.52,291.2c-9.35-3.13-16.93-10.04-25.22-15.19-5.1,7.85-9.02,16.85-5.91,26.27,2.19,6.63,14.6,18.18,20.36,22.37,1.25.91,5.83,2.53,6.18,3.72-.15,2.94-2.15,5.64-2.51,8.5-.68,5.47,3.54,11.34-4.65,6.85-2.02,4.84.5,8.62,5.63,9.18,1.42.15.71-.12,1-.9,2.34-6.3,4.78-17.07,6.36-23.88.45-1.95,1.36-4.15,1.45-4.57,2.09-9.15-1.88-10.9-2.53-18.37-.4-4.63.19-9.34-.16-13.97ZM571.08,293.5c-.93-2.13-6.02-13.89-7.82-14.04l-28.34,14.93c-1.32,1.83,6.28,8.03,4.39,10.89-1.16,1.76-3.8,2.66-5.25,4-3.97,3.68-10.65,12.5-14.57,15.02-3.17,2.04-7.72,2.17-11.18,3.94-4.53,2.31-9.61,6.86-8.51,12.52,1.26,6.51,10.01-5.95,12.49-3.61-.18,4.27-4.81,5.25-6.93,9.16-1.47,2.7-2.89,6.72,1.32,7.3,5.21.72,3.71-2.44,6.51-5.72.65-.77,6.18-5.68,7-4.82.67,3.07-2.22,3.94-3.57,5.96s-1.89,4.35-3.72,6.2c-.49,1.28,2.49,3.34,3.53,3.79,4.54,1.97,5.86-4.58,8.4-6.38,2.24-1.59,6.01-1.56,8.51-2.66.64-.28,4.81-2.94,5.22-3.33,2.81-2.65,3.41-8.89,5.32-11.11,1.16-1.35,4.65-2.56,6.19-3.67,7.94-5.72,17.91-12.56,22.03-21.49,2.91-6.31,1.41-11.3-1.02-16.86ZM241.42,293.1c-10.97,5.8-22.42,2-31.14-5.87-8.9,8.6-22.89,7.69-31.65-.74-2.48,1.98-4.09,4.51-6.95,6.23-5.99,3.59-13.96,4.2-20.6,2.44-.5.16-.79.51-.94,1-.61,2.05-.49,6.3-1.23,9.29-.55,2.23-2.08,6.66-3.33,8.51-.77,1.14-9.25,10-10.02,10.36-3.79,1.76-3.88-1.69-5.64-3.54-8.61-9.03-24.45,1.56-25.85,12.15s1.68,19.52,12.44,22.94c5.3,1.68,8.73.79,13.83-.7.65.84.9,1.84,1.12,2.85,1.43,6.61,2.5,10.92,5.83,17.18,16.24,30.53,77.77,37.03,103.13,15.83,15.45-12.92,21.76-40.22,22.73-59.44.22-4.44.71-22.21-.32-25.37-.88-2.7-7.06-2.08-10.24-2.91-4.93-1.28-10.75-4.53-11.17-10.2ZM531.94,297.13l-1.89-.09-.65,12.49,5.84-5.68-3.3-6.72ZM518.22,321.37c-30.26,3.96-62.09,4.23-91.67-3.92-.73.34-.91.86-1.03,1.61-.29,1.73-.85,8.81-.05,9.91,1.21,1.67,13.45,4.34,16.22,4.81,14.03,2.39,38.62,4.21,52.54,2.7,4.28-.47,2.41-1.72,3.98-3.89,2.38-3.29,5.65-6.11,9.49-7.61,3.44-1.34,8.27-.94,10.52-3.61ZM480.74,339.77l2.96,52.58c-.91,1.92-9.48,3.09-11.85,3.27-6.07.47-13.58.04-19.63-.73-3.4-.43-12.2-1.19-12.88-4.87.13-17.39,2.67-34.58,4.51-51.82-6.15-3.17-14.14-2.51-20.3-6.33-.37,4.13-2.55,6.86-3.63,10.51-4.46,15.13-5.9,32.12-10.83,46.47l-3.31,23.53c.21,2.21,8.55,4.93,10.82,5.62,29.74,9.13,81.36,10.65,111.62,3.73,2.45-.56,14.02-3.98,15.02-5.35.32-.43.6-.84.63-1.4l-11.86-60.77c-5.19-.64-5.26,3.59-8.21,5.89-3.75,2.92-7.09,3.65-11.18.69-1.28-.92-2.39-3.31-2.95-3.62-1.66-.9-6.07-.14-8.21-2.31-2.44-2.49,0-9.48-.34-9.85-.45-.48-5.54-.39-4.6-5.26h-15.78ZM64.35,371.14c1.55-4.25,2.11-26.06,1.56-31.07-.24-2.23-1.35-2.93-2.7-1.15-4.85,6.37-8.36,24-9.15,32.08-.24,2.45,1.29,9.57-2.23,8.78-1.85-.41-2.56-7.9-3.23-9.92-1.32-3.98-4.61-12.09-7.03-15.32-.2-.27-4.02-4.14-4.29-4.26-1.34-.57-.92.92-.98,1.63-.77,10.49,3.54,21.41,3.28,31.89-3.96-.67-5.85-5.1-9.51-7.25-2.28-1.34-5.07-1.71-7.25-3.26-.46-.15-.41.51-.33.98.59,3.43,14.45,24.77,17.33,27.71s7.76,3.29,11.91,3.54c5.79.35,21.45.61,26.38-1.29,3.11-1.2,5.58-5.81,7.52-8.28.5-.64,1.47-.76,1.97-1.46,1.29-1.79,6.93-11.35,6.53-12.92-.91-1.72-3.02-.49-4.54-.03-2.13.65-4.9,1.9-6.83,3.03s-2.76,3.86-5.7,3.17c-1.11-1.1,5.14-11.85,5.94-14.1,1.54-4.34,2.01-9.08,3.26-13.49-1.26-1.02-11.85,8.06-13.18,9.5-1.92,2.08-7.32,12.35-7.97,12.72-.71.4-1.82.18-2.56-.16-1.21-.85.39-8.59.75-10.39.1-.51,1-.54,1.05-.68ZM478.98,363.25l-1.52-21.84-.62-1.35-28.91-2.21-2.7,24.47c-2.58,5.21-1.82,14.16-1.97,20.49-.05,2.1-1.61,4.52-.06,6.65,2.79,3.53,31.72,3.67,36.91,1.27,1.02-.72.74-12.95.66-15.17-.15-3.94-.45-9.42-1.79-12.31ZM132.52,374.38l-4.8-14.62c-5.56,1.05-9.88-.19-15.15-1.58-.89,6.55.96,14.87,7.75,17.55,2.01.79,6.81.96,8.02,1.85.88.65.77,2.33,1.41,3.19,2.08,2.78,6.49,6.18,9.76,3.38l-6.98-9.76ZM590.54,387.09h-47.99c-.43,7.18,6.36,24.33,4.48,30.44-.85,2.74-10.23,5.7-13.05,6.08.03,4.3,1.06,8.88,1.33,13.11.5,7.97.66,15.17,1.95,22.49.91,5.16,2.61,18.78.23,23-.56,1-5.81,5.27-7.09,6.12-11.17,7.42-29.58,9.96-42.67,8.45-11.65-1.35-20.49-2.02-17.86-16.38,1.33-7.28,9.19-13.9,14.88-17.99,3.15-2.26,6.64-3.79,9.73-6.09l-3.18-26.07c-.17-.78-2.25-1.03-2.98-1.09-9.62-.87-19.59.95-29.2-.59-.56,3.1-1.04,6.33-1.38,9.46-.48,4.54-1.58,9.42-2.03,13.1-1.07,8.71-.13,18.3-1.32,26.93-.16,1.14-.53,2.45-1.24,3.36-3.08,3.95-23.2,6.64-28.59,6.91-10.38.53-29.41.38-39.16-2.31-7.88-2.17-8.65-9.44-5.8-16.35,5.75-13.98,23.43-14.65,35.09-20.79l-.34-26.96-56.14-1.38c-7.77-7.72-2.17-21.68,8.71-22.36l.09-5.17h-124.59c-.36,0-5.26,4.28-4.14,5.15,3.63,2.79,8.84,6.2,12.06,9.28,8.73,8.34,16.13,19.92,22.82,29.75,3.57,5.24,9.72,18.43,16.1,20.07,2.25.58,17.18,4.06,18.27,4.02,1.54-.05,5.56-2.69,7.68-3.39,7.96-2.64,13.13-3.89,21.56-2.12,10.64,2.23,18.56,8.23,9.34,18.42l7.07,8.07c3.02,7.51,7.68,21.19-5.24,20.51.69,6.38-1.43,9.1-7.93,8.85-.44,14.74-16.43,8.89-20.11-1.01-3.86-.62-8.67,7.2-11.83,9.16-14.05,8.68-30.68,1.53-44.94-2.53-1.13,1.04,10,11.71,7.55,17.07-1.37,3-10.12,5.22-12.16,6.91-.44.36-.66.73-.66,1.31l3.96,53.58c1.54.43,1.11-.4,1.5-.84,2.11-2.37,3.93-5.42,6.04-7.72,7.21-7.89,17.15-14.7,18.09-26.61.82-10.33-7.88-11.22-7.77-18.41.04-3,3.58-5.71,6-7.03,13.93-7.57,70.94-8.08,85.06-1.3,4.77,2.29,8.8,6.19,5.67,11.77-.51.91-1.48,1.06-1.75,1.56-3.28,5.96-4.61,8.63-2.6,15.59,3.16,10.96,20.67,24.04,27.15,34.79,9.7,16.1,10.38,36.97,5.56,54.74l4.01.67,30.56-2.66c-1.15-13.83-1.59-26.14,4.03-39.06.68-1.57,2.28-2.08,2.37-3.43.07-1.1-1.96-3.22-2.63-4.98-5.23-13.68-6.7-33.81,5.76-43.9,6.55-5.3,15.53-5.23,23.34-3.29.45-4.33-4.93-5.99-7.23-8.87-3.38-4.24-5.84-11.12-1.98-15.78,4.63-5.6,23.35-8.46,30.55-8.89,12.28-.73,60.56.49,43.75,23.84-.68.95-8.11,7.58-7.23,8.39,6.94-2.17,12.86-2.69,19.66.4s12.06,12.68,12.58,19.63c.59,7.9-.14,13.05-2.59,19.93-1.56,4.38-3.02,8.78-5.08,12.95l6.99,18.41v16.43l1.09.89,27.83-2.54v-253.72ZM4.08,394.32v443.02h216.3l1.32-66.39c-12.16-.51-30.49-1.96-39.81-10.48-3.51-3.21-4.85-5.97-4.89-10.88-.09-9.71,5.17-21.93,6.49-32.28.35-2.72,1.6-18.02.12-19.02l-26.38-3.3c-.61.46-.36,1.93-1.04,2.42-1.8,1.29-15.3.73-18.31.59-2.37-.11-5.39-.96-7.84-1.19l-.69.52c-5.64,10.25-11.46,11.81-2.96,22.68,4.82,6.16,18.55,16.55,19.54,23.84.67,4.91-.87,10.58-3.78,14.31-10.12,13.01-36.54,8.17-49.77,2.41s-37.4-23.88-38.28-38.67c-.44-7.51,7.65-17.04,13.52-21.15,2.28-1.6,6.24-2.96,7.88-4.28.97-.78,7.96-10.55,8.04-11.39.09-.89-.36-1.05-.99-1.46-4.29-2.8-17.04-6.71-17.26-12.86,12.78-44.26,19.97-89.23,31.95-133.64.26-.98-.06-2.18.18-2.99.2-.69,2.01-.17,1.3-1.75-2.95-1.78-5.79-6.69-7.57-9.86-11.25-20.08-10.28-41.84-3.16-63,8.03-23.87,21.93-46.11,44.34-58.87,5-2.85,11.26-4.33,15.71-7.63l-54.88.67c-7.72,5.94-8.35,14.14-19.72,15.12-6.45.56-24.89.7-30.59-1.01-6.98-2.09-9.99-13.36-13.62-13.99l-25.18.52ZM155.57,400.64c-.93-1.54-1.49-4.1-3.25-4.37-3.51-.54-19.58,8.01-23.14,10.4-2.5,1.68-4.23,3.56-6.43,5.4-1.04.87-3.28.71-2.96,2.63,7.08.41,15.28,9.14,18.95,14.91,5.06,7.97,9.07,18.03,9.89,27.58.57,6.59-.17,23.28,3.74,28.47,1.38,1.84,14.28,5.71,17.05,7.92l.74-1.35c-.81-7.17-.39-14.81-1.07-21.98-.28-2.99-1.83-7.06-2.02-8.51-2.33-18.16-2.06-45.42-11.51-61.11ZM170.25,402.38c-1.06-.86-9.06-2.42-11.01-3.45,2.77,5.74,3.67,14.94,8.12,19.48,12.08,12.33,35.13,14.16,49.02,3.79,7.85-5.86,6-9.13,4.66-18.02-.2-.2-5.01.91-5.49,1.25-.78.57-.49,2.15-1.29,3.15-11.84,14.84-31.6,12.02-42.14-2.49-.73-1-1.43-3.37-1.87-3.72ZM234.17,399.59c-3.79.13-6.49,3.94-10.5,3.28-.79,2.05,1.78,4.64,1.92,5.11.29,1.04.43,2.66.63,3.85,4.41,27.02,3.12,54.71,3.99,82l13.19,5c.89-8.35.87-16.91.68-25.34-.48-21.39-2.29-43.8-7.85-63.9-.42-1.53-1.34-9.5-2.05-10ZM404.48,400.9c-10.02.49-20.65-.66-30.6-.03-2.92.18-9.79.96-12.1,2.36-3.62,2.19-5.23,10.66-2.35,14.12l47.68,1.29c-.9-2.04-3.46-1.97-3.93-4.28-.5-2.47,1.78-12.97,1.3-13.46ZM250.9,413.11c-3.72-3.89-7.97-7.11-11.78-10.89.17,6.83,2.49,13.87,3.52,20.8,3.62,24.28,2.38,45.54,3.36,69.61.11,2.66,1.36,4.94.18,7.79l6.08,5.01c.35-7.27.67-14.76.36-22.05-.53-12.44-2.89-24.98-3.34-37.41-.05-1.5-.45-10.89,1.01-10.86,2.18,1.91,1.22,5.08,1.8,7.39,2.12,8.5,11.74,24.16,19,28.99,5.41,3.6,12.64,5.98,19.2,5.57l3.95-5.58,8.98-7.78c-.34-1.3-17.91-4.69-20.57-4.13-1.76.37-3.81,2.79-5.74,1.51-3.21-2.12,5.27-3.78,5.26-4.61-1.68-1.61-3.15-3.47-4.47-5.38-8.88-12.9-15.76-26.41-26.8-37.95ZM211.18,406.16c-12.14,1.24-24.43.77-36.15-2.63,2.13,7.23,11.69,11.68,18.76,11.84,5.76.13,15.75-3.01,17.39-9.21ZM133.37,428.08c-1.89-2.35-6.83-7.2-9.41-8.66-4.48-2.53-6.11-3.24-9.75.54-12.74,13.21-22.23,35.12-25.88,53-.53,2.57-1.9,8.17-2.1,9.74-1.09,8.31.98,19.69,3.32,27.67,4.31,14.71,15.34,26.44,28.09,34.36s28.32,12.59,42.94,14.58c-1.29-4.28-.55-8.74-.05-13.08-14.05-4.14-29.26-9-41.31-17.54-9.67-6.86-20.92-19.84-24.86-31.02-.68-1.94-3.38-11.01-3.34-12.47.01-.54-.02-.82.52-1.17.35-.42,1.74-.47,1.98-.32.66.43,2.94,12.85,4,15.27,5.82,13.35,20.54,26.91,33.46,33.73,9.07,4.79,19.71,7.43,29.42,10.72l1.18-.55c1.91-6.14,3.65-13.05,7.55-18.09-21.37-9.04-46.22-17.13-52.39-42.26-3.78-15.41-2.68-32.98,5.01-46.67.61-1.08,1.62-5.83,3.66-5.39,2.51.54-1.35,5.83-1.95,7.24-4.82,11.43-7.17,20.87-6.29,33.86,1.68,24.76,16.08,34.81,37.06,44.45,4.96,2.28,10.25,4.06,15.25,6.25l11.38-18.66c.43-1.15-.12-.71-.72-1-7.55-3.51-15.53-8.09-23.04-11.15-2.11-.86-7.45-2.99-9.43-3.12-2.79-.17-6.14,2.04-8.11-1.03,1.9-2.78,5.4-1.28,8.22-1.64,2.18-.28.19-1.69-.17-3.13-3.32-13.35-1.18-25.33-5.88-38.81-1.79-5.14-4.91-11.43-8.32-15.67ZM211.51,492.92c3.49-.58,9.91,0,13.81,0,.09,0,1.08,1.23,1.57-.39.26-.84-.59-5.7-.6-7.13-.13-15.96,1.49-35.38-1.94-50.12-.28-1.21-.31-14.03-1.01-14.01-16.02,15.25-41.39,15.13-57.51,0,.83,3.16.61,7.78,1.33,10.72,1.12,4.56,3.06,10.37,3.26,15.91l2.96,47.65c4.38,3.37,13.07,2.95,10.2,10.51.52.5,13-2.65,14.19-3.23,2.15-1.03,2.08-2.15,2.27-4.3,1.54-16.81-1.05-34.53-.73-51.32.02-.87.13-4.05,1.11-4.28l2.21.02.66,53.9c.3.34,6.82-3.71,8.21-3.94ZM417.63,421.93c.28,9.53-.88,19.25,1.29,28.61,10.03,5.54,22.3,5.58,33.27,2.98l2.93-24.04-.64-1.35-36.85-6.2ZM530.71,425.21c-12.23,1.65-24.35,4.49-36.82,3.95l4.28,25.62c10.77,4.31,23.26,4.19,34.22.7l-1.68-30.28ZM260.24,462.92c-.33-.43-1.28-.7-1.61-1.31l-6.03-9.44,2.29,36.81c9.5,6.62,20.35,11.89,31.89,13.8-.21-7.77.06-15.62,2.63-23-14.58.3-21.17-6.29-29.17-16.85ZM410.12,468.21c2.24,3.36,3.01,6.12,4.18,9.95,1.23.87,14.77.09,15.53-.98.35-9.8-4.79-20.03-13.56-24.71l-18.37,5.61c-.3,1.72.25,1.02.94,1.37,5.08,2.61,7.88,3.67,11.28,8.76ZM451.81,456.77c-8.2,2.34-16.69,1.07-24.99.34,2.4,3.79,3.83,7.48,5.32,11.65.16.45,1.11.46,1.24.98.5,2-.24,5.12,1.31,7.15.67.5,15.28-2.74,16.27-3.87.14-.16.85-1.99.85-2.1v-14.13ZM302.57,500.14c-2.39-5.16-3.76-15.92,1.64-19.72,1.72-1.21,5.74-1.96,6.94-3.57,1.59-2.13,1.3-8.09,3.55-10.26.83-.81,5.49-2.25,6.76-2.43,7.53-1.09,15.87,3.19,22.19,6.85,4.84-2.31,3.76-7.17-.51-9.78-16.33-9.96-46.28,4.4-51.19,22.06-.97,3.47-.99,7.08-1.89,10.56l12.51,6.29ZM525.09,469.62c-.99-1.69-5.1-7.65-6.68-8.11-1.97-.58-4.78.11-7.01-.22-4.49-.67-8.84-2.19-13.26-3.13-1.26.04-13,7.77-13.44,8.81-.57,1.34.92.93,1.63.98,12.75.89,23.33,4.66,30.31,15.83l11.13-5.98c.16-3.08-1.28-5.79-2.67-8.17ZM530.71,476.48c7.16-2.45,2.59-11.7,2.32-17.12l-9.55.7c-.59,2.89,2.12,3.48,3.19,5.03,2.37,3.43,3.84,7.17,4.05,11.4ZM409.31,474.29c-1.39-2.77-2.56-5.76-4.82-8.02-1.54-1.54-8.25-5.45-10.2-5.49-4.73-.12-13.67,9.8-12.89,14.67l2.67,1.04c.57-5.04,5.94-8.46,10.19-10.53l.91,2.55c-1.67.07-8.73,7.83-7.8,8.62l5.83.59c.86-2.46,3.73-8.74,6.93-7.78,2.92,2.66-4.07,4.97-3.56,8.51l14.46.66c1-2.77-1.28-3.91-1.74-4.82ZM352.13,491.38c-4.81-14.36-15.04-25.35-31.48-23.43-6.87.8-3.83,5.53-6.34,10.1-3.04,5.53-10.54,2.82-10.49,12.58.02,3.79,2.23,10.86,5.99,12.48,2.28.98,4.76-.05,6.62-1.38l-3.34-14.05c3.06-.59,2.98,3.26,4.01,5.38.24.49,1,.61,1.19,1.06,2.84,6.7,4.57,23.08,14.19,23.18,2.64.03,4.43-1.97,3.98-4.64-.76-4.55-8.25-14.77-10.54-19.73-1.95-4.21-4.24-9.85-4.28-14.45,1.73-2,5.94,10.78,6.38,11.66.38.77,1.29.87,1.5,1.29,1.36,2.72,6.71,15.98,8.7,16.84,10.69,4.63,5.32-12.73,3.33-17.15-.52-1.16-3.98-2.56.4-4.07,1.62,1.93,4.44,11.68,5.84,12.46.58.32,1.97.48,2.61.18,2.75-1.26,3.41-4.87,2.77-7.61-.1-.45-.98-.5-1.04-.69ZM503.1,487c1.94.26,9.68-.67,8.93-3.33-.49-1.74-6.56-7.07-8.36-8.09-5.34-3.05-13.88-5.02-19.97-5-4.9.02-6.71,2.24-8.9,6.22-.84,1.54-3.13,5.99-1.98,7.23,9.74,6.75,6.68-9.55,15.14-10.83,1.45,1.63-7.12,10.22-5.63,13.18,6.21,2.79,5.37-1.83,7.6-4.8,1.28-1.7,4.32-4.63,6.25-5.76,1.96,2.28-5.92,10.95-4.92,11.83l7.82-.06c.42-2.92,1.71-6.5,4.98-7.17,2.51,1.23-1.7,5.92-.97,6.57ZM451.15,477.15c-21.18,4.79-43.69,7.4-65.23,3.09-.7-.14-4.63-2.15-3.8-.15,1.01,2.41,5.92,3.18,8.29,3.55,15.76,2.44,41.09,2.37,56.14-2.88,2.22-.78,3.83-1.01,4.6-3.61ZM472.85,487.66c.7,3.98,6.92,4.52,10.36,5.08,13.34,2.16,31.48.46,43.33-6.28,2.94-1.67,7.54-4.13,7.44-8.01-17.09,13.65-40.61,15.54-61.13,9.21ZM254.57,493.25c-.93,3.68.69,10.98,0,15.12,0,3.87,32.32,13.61,37.48,12.48-2.55-5-4.41-9.72-5.42-15.29-11.02-2.05-21.72-6.41-30.74-12.98-.35-.61-1.27.49-1.31.67ZM259.45,518.93c-10.14-12.7-20.42-21.48-37.44-22.72-8.59-.62-19.74.91-19.37,11.81,9.54,0,30.56,7.14,26.8,19.93-.52,1.75-3.82,3.15-3.84,3.48-.06.77,1.28,2.97,1.38,4.57.31,5.03-2.48,7.08-7.26,6.88,2.24,8.66-7.6,7.01-8.89,8.53-1.21,1.43-2.08,10.91-3.36,11.22l-2.22-.03,2.35-12.53c-2.31-.76-10.41-3.76-11.9-1.94-.89,1.09-2.89,7.33-4.25,9.37-.73,1.1-4.15,4.91-5.25,6.1-.65.7-2.76,3.11-3.62,2.94-2.8-.58,1.37-3.9,1.91-4.65,1.85-2.6,3.39-5.39,5.1-8.08,1.05-1.65,3.73-2.95,3.17-6.32l-15.12,1.64c-1.54,2.47-2.58,5.14-4.32,7.51-1.03,1.4-5.9,5.92-6.16,7.1s-.22,8.99.16,9.88c3.76,4.79,6.49,8.07,12.93,9.07,10.67,1.66,16.63-4.91,25.67-7.27s18.41-.18,25.99-6.88c8.13-7.2,6.91-16.81,13.12-22.37,1.97-1.76,7.41-5.16,9.86-6.57,2.29-1.32,11.8-5.09,12.52-6.57,1.48-3.01-5.9-11.5-7.96-14.08ZM318.16,507.21c.75-.63,1-1.88-.15-2.46-2.62.58-4.76,3.36-7.55,2.35l-20.37-9.58c-.18,8.16.33,17.83,7.8,22.68,1.65.4,7.93-2.64,9.51-3.73,2.84-1.95,4.05-4.78,6.34-6.8,1.53-1.35,3.63-1.79,4.42-2.46ZM198.69,506.07c-4.73,1.62-12.1,1.82-16.46,3.59-3.82,1.55-8.71,12.96-10.61,17-1.5,3.19-3.39,6.86-4.67,9.81-.51,1.17-2.27,6.17-1.73,7,12.24,4.34,25.58-.34,37.57,1.55,3.14.5,10.6,3.87,12.85,1.63,3.08-5.66-1.82-8.28-6.43-10.02-3.24-1.22-7.46-1.26-10.18-2.31-.78-.3-1.87-.51-1.64-1.63.76-3.71,15.94,2.27,18.21,3.47,1.88,1,4.67,5.26,6.83,2.49,1.24-1.6-.46-6.14-1.47-7.84-1.85-3.12-7.54-5.86-10.94-6.81-3.2-.89-7.05.07-8.69-2.81,3.82-1.74,9.97.09,13.79,1.65,3,1.22,6.43,3.56,8.23,6.22,8.03-4.83-1.73-12.41-7.1-14.58-3.65-1.47-16.02-3.08-17.17-3.87-1.93-1.32-.65-2.73-.39-4.55ZM536.27,534.7c-5.98-8.88-30.72-9.41-40.73-8.91-6.69.33-24.33,2.65-29.31,6.85-8.2,6.91,7.23,15.35,8.45,19.25,2.49,7.96-.31,24.03-4.59,31.28-4.72,7.99-14.32,14.72-19.21,22.86-2.42,4.04-3.75,8.37-5.71,12.58-.34.73-1.88.49-1.26,2.48,37.01,6.82,75.57,7.44,112.43-.66-1.36-2.92-2.12-6.47-3.46-9.35-5.54-11.85-18.83-19.84-23.35-31.87-2.33-6.22-5.42-21.8-2.12-27.46,2.9-4.97,5.92-5.72,8.6-12.31.36-.89,2.09-.71,1.23-3.99-.14-.53-.84-.53-.99-.75ZM398.15,604.42c-2.32-4.48-4.7-8.89-7.88-12.84-8.54-10.6-22.41-19.09-22.66-34.57-.16-9.73,13.36-16.43-1.26-21.06-15.45-4.89-61.68-4.27-77.06,1.2-12.91,4.59.36,11.81,1.38,19.25,2.48,17.94-15.8,28.58-24.81,40.81-15.64,21.21-17.04,49.06-1.05,70.5,25.5,34.2,103.26,35.17,127.98-.14,13.45-19.21,16.19-42.26,5.37-63.16ZM110.36,569.62c1.32-7.62,1.91-15.4,3.41-23l-11.06-9.35-1.65.35-27.23,117.22c11.86,7.94,25.47,12.75,39.38,15.88,6.68,1.51,38.98,6.54,43.02,3.68,1-9.78,2.67-19.55,3.66-29.33,2.06-20.28,4.67-44.22,5.26-64.42.12-4.2-1.95-7.37-1.96-11.16,0-1.37,1.54-7.26,1.3-7.56-7.87,2.22-15.97-1.82-23.66-3.29-.74,6.54-.66,13.56-1.33,20.04-2.46,23.85-6.09,47.06-10.69,70.16-.87,4.37-1.89,10.65-3.06,14.69-.92,3.18-2.63,2.95-2.7-.01-.14-5.75,4-18.65,5.11-25.19,1.79-10.56,2.54-22.66,5.42-32.16l4.65-48.41-22.38-9.64c-1.72,11.7-3.16,23.54-5.23,35.18-3.58,20.07-7.61,43.03-13.12,62.61-.74,2.62.11,6.24-2.36,8.03-1.52-1.17-1.05-3.19-.9-4.84.52-5.87,3.34-12.87,4.46-18.01,4.4-20.08,8.27-41.86,11.66-61.48ZM255.23,544.19c-5.84,2.4-11.6,6.52-11.88,13.46-.49,12.2,3.02,27.47,2.7,40.08,1.16,21.79-.23,44.8,1.26,66.44.06.81.2,3.39,1.13,3.61,3.93.54,6.86-1.83,10.74-.69.53-.51-4.81-10.72-5.44-12.63-4.59-13.78-4.11-31.12,1-44.73.89-2.38,4.28-7.71,4.44-9.42.45-4.93-1.6-14.22-1.96-19.66-.8-12.14-1.09-24.34-1.98-36.47ZM173.71,548.14l-9.86-1.32c.25,3.84-2.16,8.12.64,11.54,4.82-1.26,8.6-5.26,9.22-10.22ZM551.76,603.34c1.48,1.03,3.81-5.97,4.23-7.25,3.23-9.68,4.65-20.67.01-30.19-4.38-9.01-17.84-12.25-25.96-6.78v8.07c4.4-1.79,10.42-3.54,14.81-.66,6.09,4,6.06,8.54,5.57,15.44-.31,4.34-1.61,5.5-2.72,8.48-3.05,8.21,1.29,6.61,4.06,12.89ZM471.53,569.17c-.25-3.11,2.63-8.86-1.28-10.21-7.58-2.61-18.06.32-22.66,6.97-1.14,1.64-3.89,7.22-4.13,9.01-.58,4.51-.67,15.14.52,19.36.15.54,1.04.52,1.19,1.03.37,1.24,1.95,8.73,3.02,8.67,1.19-2.25,5.95-6.69,6.25-8.91.23-1.73-1.77-7.78-1.96-10.47-.49-6.99-.21-15.8,7.86-17.76,4.25-1.03,7.57.24,11.19,2.32ZM228.93,669.08c4.2-.95,10.3.05,14.12-.68,1.06-.2,1.84-.69,2.21-1.75l-3.84-104.05c-1.59.98-2.06,3.52-3.27,4.94-.36.43-2.99,2.91-3.53,3.37-1.8,1.52-8.06,4.46-8.33,5.81l2.64,92.37ZM543.85,592.17c4.81-11.44,4.96-30.66-12.55-21.39-.88,1.17,1.46,7.36,2.22,9.05,1.35,2.99,5.93,9.14,8.35,11.37.64.6.93,1.2,1.98.96ZM467.97,579.41c2.67-4.7,4.11-8.16-2.84-9.43-5.88-1.08-6.46,1.65-8.12,5.9-.24.61-1.16.32-1.3,1.46-.21,1.62-.21,6.35,0,7.97.15,1.16,1.17.86,1.32,1.44.41,1.6.46,3.73.71,5.42,1.23-.68,2.34-1.92,3.26-2.98,2.13-2.46,5.39-6.99,6.98-9.78ZM224.54,666.94c-1.01-2.19-.73-38.44-.86-44.25-.05-2.18-.63-4.27-.68-6.48-.29-13.26.74-26.64-.65-39.81-7.48,2.11-16.41.49-22.22,6.37-.71,33.05-3.25,65.97-6.7,98.8-.93-.03-3.74-.2-3.3-1.65l1.34-.76c3.24-32,4.75-64.07,6.56-96.19-7.59,2.35-13.52,4.67-21.56,2.16-3.07-.95-5-3.29-8.02-3.48l-10.89,109.15c.6.91,14.24,2.88,16.56,3.16,5.56.68,29.85,2.77,33.34.63.79-.49.92-.56,1.1-1.53.89-4.71-1.28-18.1.32-21.37,1.15-2.37,13.8-1.2,16.76-2.65.7-1.9-.99-1.88-1.09-2.11ZM556.98,623.75c-37.3,8.07-76.13,7.23-113.63.71-1.12,4.58-1.57,9.37-1.42,14.08.53,16.48,6.83,33.44,15.13,47.47,3.89,6.58,10.5,19.08,17.81,21.49,16.91,5.56,38.4,4.99,54.88-1.59,11.65-15.01,22.27-31.8,26.3-50.61,2.21-10.32,3.28-21.18.93-31.55ZM590.54,644.76l-28.84,2.06c-.99,1.35-.38,3.48-.79,4.68-5.94,17.6-11.36,34.65-23.09,50.02-.95,1.24-4.53,5.57-5.46,6.34-10.98,9.13-55.94,8.51-66.11-1.63-7.23-7.22-18.98-29.18-22.42-38.74-1.58-4.39-2.16-9.15-3.57-13.58-12.33.88-24.8,2.79-37.12,2.28-2.88,6.56-8.04,15.37-13.11,20.45-2.78,2.78-9.03,7.03-12.55,9.15-1.7,1.02-3.88,1.84-5.77,2.44.26,5.29-.69,9.11-5.06,12.37-14.35,10.72-56.92,10.28-72.13,1.16-5.11-3.06-7.2-6.8-6.5-12.9-10.27-3.61-19.59-10.71-25.85-19.57-1.93.2-4.08.97-5.97,1.08-13.81.82-27.6,1.86-41.41,2.64-.78.04-2.87-.49-2.3.98l149.98,84.72c14.32,10,31.87,5.87,48.23,4.34,53.45-4.98,106.99-10.54,160.42-15.77,6.36-.62,13.15-2.37,19.4-1.96v-100.57ZM155.3,678.28c-28.63.49-57.9-5.51-82.49-20.39-1.54,3.19-5.45,12-2.98,14.8,2.15,2.45,12.49,7.39,16,8.98,17.17,7.8,37.15,11.93,56.01,13.02,3.81.22,7.69-.15,11.5.01l1.97-16.43ZM373.57,767.67l-161.73-90.71v24.65c31.26,19.61,63.38,37.83,95.01,56.85,17.93,10.78,36.19,23.75,54.42,33.67,1.35.73,12.3,6.12,12.3,2.82v-27.28ZM93.31,688.33c-2.75-3.07-9.26-2.57-8.07,3.09.36,1.72,6.58,8.19,8.26,9.54,4.96,4.01,17.79,8.77,24.01,7.55,1.83-.36,3.47-5.52,5.58-6.91-8.59-1.12-20.09-2.8-26.92-8.57-1.92-1.62-1.99-3.74-2.85-4.71ZM126.37,696.03c-9.43-.14-18.63-3.25-27.61-5.91,3.65,4.91,11.12,6.74,16.94,7.7,3.12.51,9.93,2.35,10.67-1.79ZM368.31,690.11c-19.28,7.4-43.75,8.88-63.9,4.4-2.73-.61-9.83-3.57-11.5-3.65-3.54-.18-.42,4.72,1.17,6.09,12.86,11.03,50.21,9.99,65.28,3.59,4.33-1.84,9.75-5.01,8.95-10.43ZM82.97,693.4c-1.04-.96-2.57,2.75-3.3,3.6-1.72,1.99-5.15,4.8-6.46,6.68-1.46,2.09-6.17,16.44-6.54,19.15-.57,4.25,3.97,6.24,5.14,10.01,1.81.43,1.67-1.87,2.85-3.05,8.85-8.92,19.62-15.71,31.98-18.64l-9.2-3.61c-5.78-3.47-12.32-7.3-14.47-14.13ZM208.55,698l-20.74.16c-1.49.27-.89,4.08-.98,5.31.36,1.54,21.51,3.87,24.35,3.06-1.04-3.11-4.43-4.78-2.63-8.54ZM64.56,721l4.6-17.09c-5.96,3.62-10.53,9.17-6.08,16.25.43.68-.03,1.15,1.48.84ZM222.21,711.97c-.2-.19-4.53-2.73-4.8-2.79-10.39,1.35-20.46.69-30.55-1.98l.3,8.57c1.31,2,19.82,3.36,23.06,3.29,2.1-.05,7.68-.52,9.54-.97,2.9-.7,3.83-4.79,2.44-6.12ZM121.51,718.62c-.66-.81-1.8-1.15-2.43-2.49-.89-1.9-.03-3.9-2.25-4.34-3.86-.77-20.29,6.27-24.43,8.45-6.7,3.52-14.33,8.54-16.58,16.09l8.72,6.29c9.55-12.6,22.59-19.61,38.56-20.62,1.13-.59-1.05-2.73-1.58-3.38ZM252.6,837.34c.59-20.05.36-40.09.63-60.17.18-13.24.39-26.77.66-40.09.11-5.27,2.35-4.86-3.3-8.48-7.32-4.69-16.09-8.39-23.29-13.52l-3.62,122.27h28.93ZM63.48,727.35c-2.42-3.18-3.83-7.12-4.84-10.94-1.09-.01-1.28,2.23-1.32,2.96-.53,10.23,9.29,18.78,16.44,24.98,13.33,11.56,32.19,20.57,50.3,18.72,3.49-.36,13.97-3.68,15.38-6.97s-4.01.29-4.73.53c-26.72,8.66-55.57-8.72-71.23-29.27ZM222.36,721c-11.92,1.32-24.15,1.58-35.76-1.93-.84.25-2.39,8.39-2.32,9.55.06,1.01,2.33,3.28,3.04,4.74.9,1.85,3.78,7.97,4.09,9.17.98,3.73.29,8.24,1.02,12.01l10.47,3.31c2.03-12.21,6.96-23.52,19.45-27.63v-9.2ZM135.58,752.55c3.41-1.44,6.7-1.68,6.59-6.21-.04-1.56-2.12-7.94-3.27-8.6-.73-.42-3.63,1.4-4.65-.65,3.22-4.76-.32-4.29-2.25-6.27-1.53-1.57-3.69-5.42-5.98-5.86-12.68.13-26.7,5.18-34.83,15.1-1.81,2.21-4.56,4.29-1.21,6.49,2.37,1.55,13.19,6.71,15.73,7.28s-1.94-5.21-1.69-6.24c2.82-5.14,4.72,4.64,5.72,5.66,1.89,1.94,8.1,2,10.72,1.93.26-2.94-.85-6.58-2.5-9.01-1.55-2.27-5.52-3.58-4.7-6.38.62-2.09,2.94-.27,3.93.58.55.48,4.6,4.61,4.87,4.99,1.39,1.93,2.21,7.35,2.35,9.82l6.77-1.3c2.4-4.23-.46-10.85-3.19-14.45-.23-.3-5.98-4.71-1.3-4.65,4.05.05,11.67,13.46,8.9,17.76ZM222.36,732.84l-9.76,7.66c-3.37,5.27-5.56,11.66-5.94,17.9l10.01,1.28c.68-.24,4.81-7.68,5-8.8.89-5.31-.7-12.39.69-18.04ZM188.82,753.21c-.52-6.74-1.16-13.92-4.92-19.71-1.57,2.56-3.31,11.3-2.86,13.97s5.33,5.24,7.78,5.74ZM353.19,837.34l.36-46.7-96.01-57.16-1.65,103.86h97.3ZM590.54,748.61l-212.36,19.72v26.29l212.36-21.03v-24.98ZM208.88,767.01c4.08.39,8.68-.29,12.82,0v-3.28c-13.8-1.02-28.03-2.75-39.77-10.53-.9.72-.19,2.2.29,3,3.3,5.47,20.45,10.22,26.66,10.81ZM221.69,759.78v-1.97h-.64v1.97h.64ZM590.54,776.87l-173.94,17.7-.94,42.77h174.88v-60.47ZM357.14,793.96v43.38h26.3l.66-39.44c-5.02-.78-10.57,1.26-15.4.6-4.22-.58-7.56-3.85-11.56-4.54ZM412.36,837.34l.04-42.44-23.79,2.07-1.24,40.37h24.98Z"/>
  <rect x=".14" y="841.29" width="595" height=".66" fill="#fff"/>
  <path d="M380.15,3.89c4.52,18.48,5,37.1,4.63,56.09-1.83,1.24-4.05,1.46-5.9,2.78-9.09,6.45-6.76,22.4,5.87,21.98-.09,2.07.15,4.2.03,6.27-2.7,46.1-5.27,92.53-7.91,138.67-.34,5.89.11,13.4-.61,19.1-.16,1.25-1.26.64-1.42,1.89-2.56,20.15-2.64,45.53-3.89,66.44-1.45,24.22-1.89,48.45-3.95,72.62h-34.52c-1.47-.84-.36-2.44.21-3.74,1.58-3.56,5.38-5.64,5.38-9.41-2.79-2.79-10.17,10.31-10.46,12.86l-4.56.18c-1.09-.68-.22-10.16-.01-11.98.36-3.13,1.89-7.06,1.91-9.93,0-1.04.15-1.12-1.01-1-2.57.42-3.71,6.73-4.1,9.05-.73,4.32-1.05,9.71-.17,13.96-4.8,1.15-5.53-5.84-7.42-9.34-1.18-2.18-3.13-7.13-5.73-4.12l5.92,13.46h-64.76c-.08,0-1.31-.95-.67-1.32,3.98-2.82,6.6-7.89,8.8-12.24,4.09-8.06,7.15-17.9,8.55-26.95,1.26-8.19.9-16.59,2.18-24.77.81-1.56,5.87-2.19,8.09-3.74,7.09-4.93,8.83-14.87,6.28-22.72-.71-2.17-3.64-5.68-3.8-6.64-.18-1.11,1.02-3.55,1.13-5.17.62-8.85-4.73-16.48-12.33-20.52-2.2-1.17-7.44-1.99-8.43-2.74-.57-.44-3.08-6.8-4.09-8.4-2.82-4.5-9.05-9.06-14.14-10.84-2.36-.82-11.14-1.73-11.54-2.92-1.1-32.65,1.15-65.96-.06-98.53-1.47-39.25-13.53-78.51-53.3-94.6-43.98-17.79-108.88-4.27-127.37,43.51-4.44,11.48-8.16,28.53-8.73,40.57-1.66,35.26-.05,73.75.72,109.11.09,4.13-.94,16.83.05,19.66.23.66,2.41,1.73,2.87,1.73h80.54c.02,1.35-.17,2.84-.71,4.08-.91,2.08-9.88,4.85-12.76,7.1-7.12,5.57-9.92,19.42-5.12,27.28-2.1,1.91-3.1,4.17-4.53,6.48-.45.72-1.47.88-1.85,1.58-2.2,4.11-2.56,14.75-.05,18.75.41.65,1.5.81,2.01,1.41,2.49,2.97.88,9.29,1.31,13.18.56,5.02,4.59,11.34,8.41,14.52-1.61,5.59.13,11.91,3.13,16.66,4.13,6.53,10.47,4.73,13.43,6.95.62.47,1.3,2.76,2.09,3.82,1.93,2.6,4.23,3.48,7.46,3.71,4.02.29,5.54-1.7,8.69,1.14.43.39,1.27-.04.84,1.5l-49.98.35c-1.03-.79-.34-.76-.1-1.44.68-1.9,1.95-4.23,2.81-6.28.2-.48,1.09-.49,1.22-.99,2.39-9.13-13.81-1.49-14.43-2.16-.44-2.95,2.8-5.27,3.51-7.31.8-2.3,3.43-15.82,1.66-16.93-8.99.54-15.81,9.01-21.61,15.04.94-9.84,2.1-20,1.33-29.93-.18-2.26-.37-7.3-3.01-7.55-9.85,3.48-11.12,17.76-13.5,26.46-.15.53-1.03.47-1.21,1.01-.41,1.3-.28,3.32-.72,4.75l-4.71-9.41c-2.56-3.81-4.83-7.79-9.03-10.01-2.63-.09-3.1,2.53-3.35,4.64-.96,8.2,1.26,17.15,1.97,25.3-.29.33-5.46-3.28-6.43-3.75-18.64-8.87-7.32,10.42-2.16,17.3.3.54-.76,1.57-.93,1.57H4.08V3.89h376.07ZM266.41,26.24h-3.29s0,2.62,0,2.62c2.15.24,3.67-.14,3.28-2.62ZM35.64,35.44l-1-3.28-2.64,1.3c-.14,2.64,1.49,2.03,3.64,1.98ZM312.77,49.91c-1.32.37-1.32,2.9,0,3.27,3.02.85,3.02-4.12,0-3.27ZM242.09,61.73c.36.4,3.7,0,3.28-1.63-.79-3.03-5.05-.32-3.28,1.63ZM322.3,132.06c.38.4,3.68-.01,3.28-1.63-.87-3.5-4.95-.12-3.28,1.63ZM340.09,164.87c2.05,3.12,8.85-4.06.34-1.98-.65.15-.5,1.74-.34,1.98ZM265.1,173.48h-3.29v2.62h3.29v-2.62ZM296.59,249.78c-1.13-.36-4.24-.14-3.88,1.57,1.7,2.81,5.5,1.15,3.88-1.57ZM55.35,291.14c-.68-.31-5.17.44-3.92,1.95l3.94,1.32v-3.27ZM25.78,314.14c-.65,3.02,3.05,3.54,4.6,1.63.41-1.97-3.42-1.75-4.6-1.63ZM342.42,318.14c-1.88.59-1.26,3.77,1.13,3.12,2.66-.72,1.96-4.09-1.13-3.12ZM290.06,351.62c-.79-.62-3.9.12-3.26,2.27.83,2.77,5.35-.65,3.26-2.27Z" fill="#fff"/>
  <path d="M4.08,394.32l25.18-.52c3.63.63,6.64,11.9,13.62,13.99,5.7,1.71,24.14,1.57,30.59,1.01,11.37-.98,12-9.19,19.72-15.12l54.88-.67c-4.45,3.3-10.71,4.78-15.71,7.63-22.41,12.76-36.31,35-44.34,58.87-7.12,21.16-8.09,42.92,3.16,63,1.78,3.17,4.62,8.08,7.57,9.86.71,1.58-1.1,1.06-1.3,1.75-.23.81.09,2.01-.18,2.99-11.98,44.41-19.17,89.38-31.95,133.64.21,6.15,12.97,10.06,17.26,12.86.63.41,1.08.57.99,1.46s-7.07,10.61-8.04,11.39c-1.65,1.32-5.6,2.68-7.88,4.28-5.87,4.12-13.97,13.65-13.52,21.15.87,14.78,25.66,33.17,38.28,38.67s39.65,10.6,49.77-2.41c2.9-3.74,4.44-9.41,3.78-14.31-.99-7.29-14.73-17.68-19.54-23.84-8.5-10.87-2.68-12.43,2.96-22.68l.69-.52c2.45.23,5.47,1.08,7.84,1.19,3.02.14,16.51.71,18.31-.59.67-.49.42-1.96,1.04-2.42l26.38,3.3c1.48,1,.23,16.3-.12,19.02-1.33,10.35-6.59,22.58-6.49,32.28.05,4.91,1.39,7.67,4.89,10.88,9.32,8.52,27.65,9.97,39.81,10.48l-1.32,66.39H4.08v-443.02ZM39.74,448.74c1.9,3.64,15.24,3.31,18.22,1.09,6.8-5.05-7.51-9.69-14.89-6.34-2,.91-4.6,2.82-3.33,5.25ZM58.41,478.51l-.43,2.92,3.96-.69c.25-1.38-2.24-2.79-3.53-2.24ZM29.45,495.8c.29.68,2.79,9.36,4.17,4.59.56-1.93-3.02-16.85-7.83-15.35-.36.37,2.27,8.95,2.69,9.99.21.53.91.62.98.78ZM43.53,489.64c-1.92-.16-3.29.2-4.51,1.73-.94,1.18-4.61,8.82-2.38,9.43,2.67.74,2.3-2.89,3-4.08,1.11-1.9,4.64-3.99,3.9-7.08ZM54.05,563.91v-10.85c0-.24-.84-1-.66-1.64-3.72-2.63-5.92,14.49.66,12.49ZM59.82,564.4c.45-.59.85-3.26,1.59-4.65,1.46-2.75,6.41-5,3.43-7.65-3.41-.96-8.9,9.33-7.84,11.78.52,1.18,2.09,1.49,2.83.51ZM39.75,555.87c.16.28,1.31.5,1.71,1.2,1.52,2.69,1.86,6.08,4.37,8.14,3.23-2.06-2.23-12.01-4.04-12.35-1.88-.03-3.05,1.23-2.05,3.02ZM52.59,627.8c-.43-.75-5.19-3.53-6.39-3.79-13.92-2.95-23.52,10.31-7.59,11.52,4.01.31,17.4-1.69,13.98-7.74ZM52.5,783.24c.36-1.67,1.27-5.11.8-6.6-.55-1.73-2.72-1-3.41.4-1.05,2.14-2.37,11.74-1.67,13.87l3.19,1.08c.29-.28-.21-6.35-.05-7.6.15-1.12,1.1-.96,1.14-1.15ZM39.83,779.26c-1.29-1.33-1.9-3.96-4.19-1.39,2.04,4.71,6.45,8.54,6.89,14.13l2.97.64c-.2-4.87-2.36-9.97-5.67-13.38ZM58.57,791.9c.2-.12,1.49-3.48,1.92-4.31.92-1.78,3.73-3.2,1.11-5.45-2.02-.59-6.04,6.68-6.14,8.35-.09,1.5,2.15,2.01,3.11,1.42ZM165.66,793.47c-2.7.3-9.31,2.28-8.3,5.93,1.49,5.37,16.96,4.62,18.64,1.13,2.75-5.7-6.28-7.52-10.34-7.07ZM90.04,799.38c-2.92.5-6.36,2.69-6.31,5.94,2.18,5.29,16.02,4.23,17.85.28,1.38-6.19-7.2-6.96-11.54-6.22Z" fill="#fff"/>
  <path d="M590.54,387.09v253.72l-27.83,2.54-1.09-.89v-16.43l-6.99-18.41c2.06-4.18,3.51-8.58,5.08-12.95,2.45-6.88,3.18-12.03,2.59-19.93-.52-6.95-5.91-16.61-12.58-19.63s-12.72-2.56-19.66-.4c-.88-.81,6.55-7.45,7.23-8.39,16.81-23.35-31.47-24.56-43.75-23.84-7.21.43-25.92,3.29-30.55,8.89-3.86,4.66-1.4,11.54,1.98,15.78,2.3,2.88,7.67,4.54,7.23,8.87-7.8-1.94-16.79-2.01-23.34,3.29-12.46,10.09-10.99,30.22-5.76,43.9.67,1.76,2.7,3.88,2.63,4.98-.09,1.35-1.69,1.86-2.37,3.43-5.62,12.92-5.17,25.23-4.03,39.06l-30.56,2.66-4.01-.67c4.82-17.77,4.14-38.64-5.56-54.74-6.47-10.75-23.99-23.83-27.15-34.79-2.01-6.96-.68-9.63,2.6-15.59.27-.5,1.24-.65,1.75-1.56,3.13-5.58-.9-9.48-5.67-11.77-14.13-6.79-71.13-6.27-85.06,1.3-2.42,1.32-5.96,4.02-6,7.03-.1,7.19,8.59,8.08,7.77,18.41-.94,11.91-10.87,18.72-18.09,26.61-2.11,2.3-3.93,5.35-6.04,7.72-.39.44.04,1.27-1.5.84l-3.96-53.58c0-.58.22-.95.66-1.31,2.04-1.69,10.78-3.91,12.16-6.91,2.46-5.37-8.68-16.03-7.55-17.07,14.26,4.06,30.89,11.21,44.94,2.53,3.16-1.95,7.97-9.77,11.83-9.16,3.68,9.89,19.67,15.75,20.11,1.01,6.5.25,8.62-2.47,7.93-8.85,12.93.67,8.26-13,5.24-20.51l-7.07-8.07c9.21-10.19,1.3-16.19-9.34-18.42-8.43-1.77-13.6-.52-21.56,2.12-2.11.7-6.14,3.35-7.68,3.39-1.09.03-16.02-3.45-18.27-4.02-6.39-1.64-12.54-14.83-16.1-20.07-6.69-9.83-14.09-21.41-22.82-29.75-3.22-3.07-8.43-6.49-12.06-9.28-1.12-.87,3.79-5.15,4.14-5.15h124.59l-.09,5.17c-10.88.69-16.48,14.65-8.71,22.36l56.14,1.38.34,26.96c-11.66,6.15-29.33,6.81-35.09,20.79-2.85,6.91-2.08,14.18,5.8,16.35,9.75,2.69,28.79,2.84,39.16,2.31,5.39-.28,25.51-2.96,28.59-6.91.71-.91,1.08-2.22,1.24-3.36,1.19-8.64.26-18.23,1.32-26.93.45-3.68,1.55-8.56,2.03-13.1.33-3.13.82-6.37,1.38-9.46,9.6,1.53,19.57-.28,29.2.59.73.07,2.81.31,2.98,1.09l3.18,26.07c-3.09,2.3-6.58,3.83-9.73,6.09-5.69,4.09-13.55,10.71-14.88,17.99-2.62,14.36,6.21,15.03,17.86,16.38,13.09,1.51,31.5-1.03,42.67-8.45,1.28-.85,6.53-5.12,7.09-6.12,2.38-4.22.67-17.84-.23-23-1.29-7.32-1.45-14.51-1.95-22.49-.27-4.24-1.3-8.81-1.33-13.11,2.82-.38,12.2-3.34,13.05-6.08,1.89-6.11-4.91-23.26-4.48-30.44h47.99ZM307.68,421.77l.55-1.48c-.31-4.24-11.89-3.92-12.26.02-.39,4.14,9.24,3.26,11.71,1.46ZM568.52,422.59c-1.76.41-2.58,9.9-.66,10.51,3.59,1.14,2.99-11.05.66-10.51ZM564.89,433.1c1.84-3.09-6.1-14.41-5.9-7.61.06,2.15,1.49,2.04,2.15,3.18,1.08,1.85.78,5.01,3.75,4.43ZM577.07,423.91c-1.29.28-6.82,8.37-3.27,9.18,1.06.24,5.37-6.7,4.87-8.14-.4-.55-.8-1.21-1.6-1.04ZM325.39,426.67c-.94.28-1.83,1.45-2.38,2.26-.47,2.76,7.59,3.32,8.42.44.69-2.71-4.05-3.3-6.04-2.71ZM562.07,474.05c-6.54-.2-9.05,6.1-.12,5.07,5.61-.64,3.77-4.96.12-5.07ZM436.71,514.58c1.82,2.76,9.03-3.96.36-1.99-.65.13-.49,1.81-.36,1.99ZM554.71,516.59c-1.32.37-1.32,2.9,0,3.27,3.02.85,3.02-4.12,0-3.27ZM418.77,533.84c-3.46-3.59-18.53-3.13-17.6,3.41.68,4.8,16.17,4.44,17.83,1.91.82-1.25.84-4.21-.22-5.32Z" fill="#fff"/>
  <path d="M590.54,644.76v100.57c-6.25-.41-13.05,1.34-19.4,1.96-53.43,5.23-106.97,10.79-160.42,15.77-16.36,1.53-33.91,5.66-48.23-4.34l-149.98-84.72c-.57-1.47,1.52-.93,2.3-.98,13.81-.78,27.61-1.82,41.41-2.64,1.89-.11,4.04-.88,5.97-1.08,6.26,8.86,15.57,15.96,25.85,19.57-.71,6.1,1.39,9.83,6.5,12.9,15.21,9.12,57.77,9.56,72.13-1.16,4.36-3.26,5.32-7.08,5.06-12.37,1.9-.6,4.08-1.42,5.77-2.44,3.52-2.12,9.77-6.37,12.55-9.15,5.08-5.08,10.24-13.89,13.11-20.45,12.32.51,24.78-1.39,37.12-2.28,1.41,4.43,1.99,9.19,3.57,13.58,3.44,9.55,15.19,31.52,22.42,38.74,10.16,10.14,55.13,10.76,66.11,1.63.93-.77,4.51-5.1,5.46-6.34,11.72-15.38,17.15-32.43,23.09-50.02.41-1.21-.2-3.34.79-4.68l28.84-2.06ZM418.94,694.71l-2.3.66c-1.59,2.29-.71,12.9-.37,16.14.32,2.98,2.83,3.2,3.32.62.8-4.26-1.8-12.51-.66-17.41ZM409.33,702.36c-.77-1.09-2.64-5.74-4.53-3.05-1.1,1.56,1.47,3.54,2.13,5.11.79,1.88,1.14,4.13,1.96,5.9.44.95,2.41,1.82,2.25,4.02l2.54.08c.8-.75-2.47-9.83-3.3-11.34-.21-.38-.88-.49-1.05-.73ZM431.22,706.34c1.82-2.25.14-3.93-2.41-2.75-1.56.72-6.98,7.88-6.25,9.55,1.71,3.91,5.57-4.02,6.92-5.62.48-.57,1.4-.76,1.74-1.17ZM562.26,722.98c-1.09-.04-5.71-.53-5.25,1.63.35,1.68,6.47,1.68,5.25-1.63ZM381.47,733.48c1.9-2.23-4.57-4.57-6.57-1.96.46,1.71,5.76,2.91,6.57,1.96ZM455.57,735.02c-6.41-2.17-2.98,5.88,1.49,1.75.15-.14-1.38-1.71-1.49-1.75Z" fill="#fff"/>
  <path d="M398.15,604.42c10.82,20.9,8.08,43.95-5.37,63.16-24.72,35.31-102.48,34.34-127.98.14-15.98-21.44-14.59-49.29,1.05-70.5,9.02-12.23,27.29-22.86,24.81-40.81-1.03-7.43-14.29-14.66-1.38-19.25,15.38-5.47,61.62-6.09,77.06-1.2,14.62,4.63,1.1,11.32,1.26,21.06.25,15.47,14.12,23.97,22.66,34.57,3.18,3.95,5.56,8.36,7.88,12.84ZM364.3,539.65c-.76-.5-14.26,2.31-16.7,2.56-12.07,1.21-30.8,1.58-42.72,0-3.35-.44-8.02-2.99-9.99-3.17-1.15-.1-2.03,1.53-2.82,2.19.49.66,1.07,1.1,1.79,1.49,10.02,5.51,57.49,4.23,68.7-.02.67-.26,2.33-.77,2.44-1.46.01-.09-.61-1.54-.69-1.59ZM274.33,600.67c21.56,6.69,44.88,8.25,67.35,6.61,15.24-1.11,32.52-3.08,46.34-9.52.07-2.6-11.16,1.83-12.34,2.11-25.33,6.06-62.23,7.11-87.72,1.97-2.09-.42-13-3.78-13.67-3.09l.04,1.92ZM400.53,625.7c-1.07-1.09-10.94,2.61-13.02,3.09-34.87,8.13-87.17,9.79-121.09-2.13-1.77-.62-4.91-3.62-5.3-.63,0,1.58,6.48,3.92,8.04,4.46,25.14,8.71,65.08,8.5,91.5,5.63,13.39-1.45,26.75-4.01,39.48-8.4l.39-2.03Z" fill="#fff"/>
  <path d="M241.42,293.1c.42,5.67,6.24,8.92,11.17,10.2,3.18.83,9.36.21,10.24,2.91,1.03,3.16.55,20.93.32,25.37-.97,19.22-7.28,46.52-22.73,59.44-25.36,21.2-86.89,14.7-103.13-15.83-3.33-6.26-4.4-10.57-5.83-17.18-.22-1.01-.47-2.02-1.12-2.85-5.1,1.49-8.53,2.39-13.83.7-10.76-3.42-13.83-12.39-12.44-22.94s17.24-21.18,25.85-12.15c1.77,1.85,1.85,5.29,5.64,3.54.77-.36,9.25-9.21,10.02-10.36,1.25-1.84,2.77-6.28,3.33-8.51.74-2.99.61-7.24,1.23-9.29.15-.49.44-.84.94-1,6.64,1.75,14.61,1.15,20.6-2.44,2.86-1.72,4.47-4.24,6.95-6.23,8.76,8.43,22.75,9.34,31.65.74,8.72,7.88,20.17,11.67,31.14,5.87ZM176.84,305.1c-2.53.34-14.12,3.89-11.39,7.75,1.41,2,5.75-1.63,7.61-2.33,1.59-.6,4.02-1.44,5.66-1.59,3.25-.29,9.86,2.9,9.48-1.02-.34-3.56-8.78-3.16-11.36-2.82ZM249.11,313.69c-1.74-2.4-5.31-5.07-8.19-5.94-1.94-.59-10.03-1.92-10.66.17-1.06,3.54,7.22,3.15,9.67,4.11,3.98,1.56,5.38,7.15,9.46,4.31.52-1.08.39-1.71-.28-2.64ZM182.71,324.86c-7.6-7.08-14.68,9.73-6.86,13.1s11.73-8.56,6.86-13.1ZM129.65,338.46c.99-6.6-4.24-11.91-10.75-11.59-1.74.08-4.13.77-4.39,2.71.03,2.54,3.63.85,5.62.94,5.31.24,5.19,3.84,7,7.82l2.51.12ZM234.01,327.41c-7.41,1.68-7.06,16.6,3,14.18,5.98-1.44,5.13-16.02-3-14.18ZM214.26,330.12c-1.51-1.7-3.78-2.07-4.29.66,2.28,6.71,10.02,14.45,7.42,22.11-2.41,7.08-12.8,2.3-16.3,3.41-1.59.5-1.05,2.62.06,3.2,6.95,3.66,20.02.6,20.58-8.86.23-3.94-4.89-17.61-7.47-20.52ZM184.57,364.75c-2.32,1.85-.06,4.8,1.28,6.58,4.72,6.27,14.28,8.5,21.67,6.52,2.16-.58,9.32-3.55,6.94-6.22-1.87-2.09-6.04,2.7-9.16,3.34-5.99,1.23-12.12-1.24-16.18-5.59-1.53-1.63-1.74-4.84-4.55-4.63Z" fill="#fff"/>
  <path d="M590.54,50.56v333.25h-48.65l-6.63-31.15c7.83-.98,8.41-12.17,11.85-15.23,3.25-2.88,10.37-6.29,14.17-9.49s11.77-10.83,13.6-15.33c5.47-13.48-1.19-24.32-8.65-34.96,4.05-2.58,3.69-2.82,1.32-6.59-2.96-4.7-9.83-12.32-13.8-16.43-4.74-4.9-10.24-9.06-15.13-13.8-.23-1.39.23-.77.9-1.04,5.8-2.31,11.53-3.11,16.8-6.88,2.38-1.7,5.31-4.17,5.3-7.19,0-1.27-.46-7.56-.67-8.42-1.3-5.48-2.33-11.54-3.36-17.79-1.49-9.05-3.46-18.05-5.1-27.07,2.25-4.21,4.82-6.32,3.72-11.65-.5-2.4-3.04-4.72-3.65-6.87-2.96-10.55-1.41-14.04-7.51-24.7-3.21-5.62-6.15-5.8-5.7-13.19,1.22-20.11,13.84-41.94,29.55-53.93,6.21-4.74,14.15-9.28,21.64-11.56ZM562.26,350.94c1.84-1.93-2.49-4.67-3.28-1.63-.42,1.6,2.89,2.04,3.28,1.63ZM583.96,362.13c-2.85-1.46-3.12-1.7-5.24.97.82,2.59,6.46.47,5.24-.97Z" fill="#fff"/>
  <path d="M42.22,147.18l92.39.67c11.04-2.39,11.65-12.6,3.26-19.06-5.34-4.11-10.99-3.84-17.43-4.26-3.81-12.75-16.52-15.06-28.22-12.86-.3-1.9-.85-4.17-1.67-5.9-1.66-3.53-7.6-10.04-11.04-11.97-8.96-5.04-19.85-4.5-29.4-1.84,5.29-8.39,9.32-18.17,17.95-23.78,40.52-26.36,95.37-3.52,107.44,42.71,1.85,7.09,4.43,18.02,4.82,24.76.62,10.99-.55,22.53.01,33.58l-.46.98c-17.91,2.11-34.02,11.67-48.72,21.5-2.78,1.86-11.93,9.92-14.37,10.03-.56.03-1.07-.01-1.55-.35-17.92-13.86-43.13-30.17-66.76-28.58-2.24.15-4.83,2.12-6.25.32v-25.96Z" fill="#fff"/>
  <path d="M452.47,84.74l.53,22.55c-.42,1.41-7.6,4.93-9.41,6.37-7.51,5.97-10.96,12.91-15.17,20.99-2.26,4.34-5.58,5.83-4.9,12.22.22,2.03,1.96,3.93,1.85,5.14-.04.45-2.72,7.23-3.2,8.46-5.05,13.04-9.99,27.84-14.1,41.26-1.61,5.25-3.59,14.75-2.95,20.08s12.77,11.96,17.76,13.79c-2.08,1.43-4.23,2.73-6.21,4.3-7.84,6.22-16.1,13.06-22.33,21.06-.76.98-4.75,7-4.84,7.62-.22,1.45,2.16,3.02,1.72,5.63-.2,1.18-2.83,5.32-3.65,6.9-3.46,6.67-4.94,9.87-4.04,18.17.73,6.72,8.49,14.85,13.38,19.49,4.02,3.82,9.03,7.5,13.49,10.84l.7,1.3c.33,2.42-1.65,2.63-2.11,3.86-.5,1.34-.29,3.01-.91,4.33s-2.68,2.36-3.27,4.61c-2.09,7.94,2.09,10.91,8.91,12.89-1.79,4.87-2.08,10.09-3.25,15.1-.24,1.04-1.2.88-1.43,1.9-1.68,7.62-2.38,15.59-4.03,23.22-.62.86-6.46.78-8.04.83-8.85.27-17.85.03-26.68-.36l18.42-312.54h63.77Z" fill="#fff"/>
  <path d="M528.75,294.42c-.25-.17-2.08-4.63-2.63-5.43-.42-.61-1.37-.81-1.88-1.56-1.9-2.83-5.21-9.8-7.33-11.77-1.6-1.49-4.63-.96-3.97,1.3.08.26,1.09.5,1.53,1.17,3.59,5.44,6.82,11.15,10.11,16.78.38.66,1.4.78,1.51,1.28.28,1.29.29,11.67,0,12.88-.12.48-1.13.39-1.27.92-.76,2.93-.15,5.91-4.14,7.58-3.26,1.37-17.1,2.87-21.21,3.12-10.55.63-24.26.51-34.87.04-5.87-.26-34.91-3.63-38.27-6.77-.3-.28-1.82-3.64-1.98-4.26-2.39-9.37.14-29.22,2.01-39.09.44-2.34,4.02-14.1,3.43-14.99-1.27-1.9-3.2,1.18-3.61,2.32-2.38,6.55-2.43,14.56-3.98,20.89-.12.51-1.15.41-1.28.92-.33,1.37-.43,8.38-.68,8.74-3.86-2.05-7.81-4.23-11.51-6.57-3.27-2.07-14-8.87-15.13-11.88-.7-1.85,2.43-5.76,3.74-7.41,5.59-7.02,14.82-15.32,22.04-20.69,1.82-1.35,13.28-9.02,14.51-9.22,3.01-.48,5.87,4.55,8.48,6.36,16.23,11.21,44.83,9.46,61.46-.12,3.06-1.76,9.86-8.77,12.57-8.19.62.13,9.93,5.26,11.1,6.02,11.49,7.39,25.41,21.08,33.98,31.76.76.95,3.42,4.29,3.42,5.17.01,2.29-32.57,16.93-36.17,20.68Z" fill="#fff"/>
  <path d="M590.54,776.87v60.47h-174.88l.94-42.77,173.94-17.7ZM541.66,816.41c-.64.2-1.24.8-1.09,1.53,5.55,5.46,7.68-3.63,1.09-1.53Z" fill="#fff"/>
  <path d="M110.36,569.62c-3.39,19.62-7.26,41.4-11.66,61.48-1.13,5.14-3.94,12.14-4.46,18.01-.14,1.64-.61,3.67.9,4.84,2.47-1.78,1.62-5.41,2.36-8.03,5.52-19.57,9.55-42.53,13.12-62.61,2.07-11.65,3.51-23.48,5.23-35.18l22.38,9.64-4.65,48.41c-2.88,9.5-3.63,21.6-5.42,32.16-1.11,6.54-5.25,19.44-5.11,25.19.07,2.96,1.79,3.19,2.7.01,1.17-4.04,2.19-10.32,3.06-14.69,4.6-23.1,8.23-46.31,10.69-70.16.67-6.48.58-13.5,1.33-20.04,7.68,1.47,15.79,5.5,23.66,3.29.24.3-1.31,6.19-1.3,7.56.01,3.8,2.08,6.96,1.96,11.16-.59,20.19-3.2,44.14-5.26,64.42-.99,9.78-2.67,19.55-3.66,29.33-4.03,2.86-36.33-2.18-43.02-3.68-13.91-3.13-27.52-7.94-39.38-15.88l27.23-117.22,1.65-.35,11.06,9.35c-1.5,7.6-2.1,15.37-3.41,23Z" fill="#fff"/>
  <path d="M556.98,623.75c2.35,10.36,1.28,21.23-.93,31.55-4.03,18.8-14.65,35.6-26.3,50.61-16.48,6.58-37.97,7.16-54.88,1.59-7.31-2.41-13.92-14.91-17.81-21.49-8.3-14.03-14.59-30.99-15.13-47.47-.15-4.71.3-9.5,1.42-14.08,37.5,6.52,76.33,7.36,113.63-.71Z" fill="#fff"/>
  <path d="M271.26,275.11c2.42,3.09,3.73,5.23,3.62,9.7-.04,1.88-1.87,5.78-1.76,6.52.15,1.04,2.62,3.29,3.29,4.59,4.58,8.91,1.61,23.53-9.99,24.13-.48-3.7.06-19.41-4.37-20.24-8.6,3.51-18.35-2.55-18.65-11.96-2.5-.45-3.11,2.22-5.1,3.11-6,2.68-16.02,1.35-21.16-2.82-1.1-.89-4.45-5.59-5.61-5.59-9.14,7.78-20.42,9.91-30.26,2.02-1.12-.9-1.19-3.05-3.27-2.68-1.55.17-3.9,4.7-5.27,5.96-4.07,3.75-10.42,4.93-15.81,4.63s-8.15-4.25-9.74,1.38c-1.72,6.07-.61,8.67-3.68,14.87-1.38,2.79-6.06,11.74-9.51,11.37-.39-.04-.43-1.04-.87-1.32-6.46-4.26-10.41-5.9-18.28-3.35-4.34,1.41-7.23,3.65-9.77,7.32-1.62,2.34-3.33,7.9-4.69.64-1.5-8.03.48-16.33,6.96-21.54.1-2.99-2-4.73-2.48-7.92-1.91-12.74,6.46-20.56,18.23-22.84,3.68-17.15,20.94-23.73,37-20.79,10.9-12.18,29.8-12.59,44.21-7.15,2.18.82,4.86,3.02,6.61,3.28,3.09.45,7.14-1.64,10.48-1.94,10.53-.95,21.15,2.64,28.19,10.58,2.79,3.15,3.88,9.23,5.3,10.48s4,.94,5.62,1.61c5.07,2.09,7.41,3.67,10.77,7.97Z" fill="#fff"/>
  <path d="M480.74,339.77h15.78c-.94,4.87,4.16,4.78,4.6,5.26.34.37-2.11,7.36.34,9.85,2.14,2.17,6.55,1.41,8.21,2.31.57.31,1.68,2.69,2.95,3.62,4.1,2.96,7.44,2.23,11.18-.69,2.95-2.3,3.02-6.53,8.21-5.89l11.86,60.77c-.03.56-.31.97-.63,1.4-1,1.37-12.57,4.79-15.02,5.35-30.26,6.92-81.88,5.4-111.62-3.73-2.26-.7-10.61-3.42-10.82-5.62l3.31-23.53c4.93-14.34,6.37-31.34,10.83-46.47,1.08-3.65,3.25-6.39,3.63-10.51,6.17,3.82,14.15,3.16,20.3,6.33-1.84,17.24-4.39,34.43-4.51,51.82.69,3.68,9.48,4.44,12.88,4.87,6.05.77,13.56,1.19,19.63.73,2.37-.18,10.93-1.35,11.85-3.27l-2.96-52.58Z" fill="#fff"/>
  <path d="M353.19,837.34h-97.3l1.65-103.86,96.01,57.16-.36,46.7ZM270.47,792.55l63.89,38.78c3.84-1.68-1.64-4.43-3.83-5.83-18.66-11.9-38.45-22.63-56.92-35.12l-3.26-.36.11,2.52Z" fill="#fff"/>
  <path d="M133.37,428.08c3.41,4.24,6.53,10.53,8.32,15.67,4.71,13.48,2.56,25.47,5.88,38.81.36,1.44,2.36,2.85.17,3.13-2.82.36-6.32-1.14-8.22,1.64,1.97,3.06,5.31.85,8.11,1.03,1.98.12,7.32,2.26,9.43,3.12,7.51,3.06,15.48,7.65,23.04,11.15.61.28,1.16-.15.72,1l-11.38,18.66c-5.01-2.19-10.29-3.97-15.25-6.25-20.98-9.64-35.38-19.69-37.06-44.45-.88-13,1.46-22.44,6.29-33.86.59-1.41,4.46-6.7,1.95-7.24-2.04-.44-3.05,4.31-3.66,5.39-7.69,13.69-8.8,31.26-5.01,46.67,6.17,25.12,31.02,33.22,52.39,42.26-3.9,5.04-5.64,11.94-7.55,18.09l-1.18.55c-9.71-3.29-20.34-5.93-29.42-10.72-12.92-6.82-27.64-20.38-33.46-33.73-1.05-2.42-3.33-14.84-4-15.27-.24-.16-1.63-.11-1.98.32-.54.35-.51.63-.52,1.17-.04,1.45,2.66,10.53,3.34,12.47,3.94,11.18,15.19,24.16,24.86,31.02,12.04,8.54,27.26,13.4,41.31,17.54-.5,4.34-1.24,8.8.05,13.08-14.62-1.99-30.37-6.77-42.94-14.58s-23.78-19.65-28.09-34.36c-2.34-7.98-4.41-19.37-3.32-27.67.21-1.57,1.58-7.17,2.1-9.74,3.65-17.87,13.15-39.79,25.88-53,3.64-3.78,5.28-3.07,9.75-.54,2.58,1.46,7.52,6.32,9.41,8.66Z" fill="#fff"/>
  <path d="M180.28,237.23c-7.16.3-14.11,3.2-19.65,7.63-.69.55-.97,1.88-1.83,2.17-.59.19-8.12-.78-10.39-.58-4.95.43-13.28,3.5-17.37,6.29-1.7,1.16-5.86,6.18-6.31,6.18h-16.77c-.14-1.99,2.15-2.32,3.19-3.71,3.64-4.84,4.93-14.03,4.7-19.96-6.85-.52-12.53,3.14-18.41,5.92v-17.42c0-.7-1.34-3.83-1.96-4.63-4.55-2.82-15.41,12.18-17.76,15.47-3.28-7.14-9-17.19-16.63-20.54-2.72-1.2-3.81.76-4.26,3.28-1.15,6.4-.74,16.86-.08,23.43.15,1.48.71,2.97,1.24,4.34-.7.58-7.59-6.27-8.98-7.11-1.92-1.16-3.94-1.96-6.15-2.39l-.68-55.92c-.19-2.71,5-3.8,7.11-4.06,5.4-.66,15.16,1.8,20.55,3.44,27.01,8.19,49.15,30.74,71.99,46.33,1.54-1.07,1.26-2.81.04-3.98l-22.06-16.71c4.34-3.03,8.21-6.77,12.55-9.78,9.15-6.37,23.64-15.03,34.11-18.48,2.29-.75,9.57-2.84,11.6-2.93.76-.03,2.21.27,2.21.96v62.77ZM163.19,209.63c-.4.38.01,3.68,1.63,3.28,3.5-.87.12-4.95-1.63-3.28Z" fill="#fff"/>
  <path d="M590.54,3.89v24.65c-.42.65-.9.86-1.64.99-5.72,1-12.31,1.05-18.11,2.27-35.05,7.37-66.52,33.96-76.86,68.42-12.79-.07-24.78,1.17-36.84,5.56-.49-.51.33-12.01.05-14.17-.16-1.21-1.23-.87-1.35-1.4-.37-1.57.2-3.78-.02-5.47,13.92,1.6,14.74-21.85,1.98-23.67-.38-.42,2.75-9.51,3.25-10.87,4.98-13.35,16.05-30.17,25.99-40.4,2.08-2.15,4.48-3.8,6.58-5.91h96.98ZM497.55,36.13c-2.03.63-.74,3.37,1.89,2.55,2.03-.63.75-3.37-1.89-2.55Z" fill="#fff"/>
  <path d="M536.27,534.7c.15.22.85.23.99.75.86,3.28-.87,3.1-1.23,3.99-2.68,6.58-5.7,7.34-8.6,12.31-3.3,5.65-.22,21.24,2.12,27.46,4.52,12.03,17.81,20.02,23.35,31.87,1.35,2.88,2.1,6.43,3.46,9.35-36.86,8.1-75.41,7.48-112.43.66-.62-1.99.92-1.75,1.26-2.48,1.96-4.21,3.28-8.54,5.71-12.58,4.88-8.15,14.49-14.88,19.21-22.86,4.28-7.25,7.08-23.32,4.59-31.28-1.22-3.9-16.64-12.34-8.45-19.25,4.98-4.2,22.61-6.52,29.31-6.85,10.01-.5,34.74.03,40.73,8.91ZM529.19,539.39c1.04-1.16.59-2.7-.88-2.99-.5-.1-6.4,2.51-8.09,2.89-12.01,2.67-29.44,1.9-41.47-.68-1.28-.27-5.42-2.94-5.9-.66-.43,2.03,4.5,3.55,5.91,3.93,10.28,2.78,37.72,3.41,47.33-.67.73-.31,2.63-1.32,3.09-1.83Z" fill="#fff"/>
  <path d="M224.54,666.94c.11.23,1.79.21,1.09,2.11-2.95,1.45-15.6.28-16.76,2.65-1.59,3.28.57,16.66-.32,21.37-.18.97-.31,1.04-1.1,1.53-3.5,2.14-27.78.05-33.34-.63-2.32-.28-15.96-2.25-16.56-3.16l10.89-109.15c3.02.19,4.95,2.53,8.02,3.48,8.04,2.5,13.97.19,21.56-2.16-1.82,32.12-3.32,64.19-6.56,96.19l-1.34.76c-.44,1.45,2.36,1.62,3.3,1.65,3.45-32.83,6-65.75,6.7-98.8,5.81-5.88,14.74-4.26,22.22-6.37,1.38,13.17.35,26.55.65,39.81.05,2.21.63,4.3.68,6.48.13,5.81-.14,42.07.86,44.25Z" fill="#fff"/>
  <polygon points="590.54 748.61 590.54 773.59 378.18 794.62 378.18 768.33 590.54 748.61" fill="#fff"/>
  <path d="M487.97,3.89c-2.43,2.49-4.57,5.35-6.88,7.92-12.07,13.43-18.05,24.27-25.27,40.6-1.12,2.54-1.94,5.34-2.7,8.01h-64.43c1.06-10.27.9-20.9,0-31.22-.43-4.85-1.77-9.4-2.58-13.32s-1.53-7.99-2.02-11.99h103.88Z" fill="#fff"/>
  <path d="M373.57,767.67v27.28c0,3.31-10.96-2.08-12.3-2.82-18.23-9.92-36.49-22.89-54.42-33.67-31.63-19.02-63.75-37.24-95.01-56.85v-24.65l161.73,90.71Z" fill="#fff"/>
  <path d="M211.51,492.92c-1.39.23-7.91,4.28-8.21,3.94l-.66-53.9-2.21-.02c-.98.23-1.1,3.41-1.11,4.28-.32,16.79,2.26,34.51.73,51.32-.2,2.15-.12,3.27-2.27,4.3-1.19.57-13.66,3.73-14.19,3.23,2.87-7.55-5.82-7.13-10.2-10.51l-2.96-47.65c-.2-5.54-2.14-11.35-3.26-15.91-.72-2.93-.5-7.55-1.33-10.72,16.12,15.12,41.49,15.25,57.51,0,.7-.02.73,12.81,1.01,14.01,3.42,14.74,1.81,34.16,1.94,50.12.01,1.43.86,6.29.6,7.13-.49,1.62-1.48.39-1.57.39-3.9,0-10.32-.58-13.81,0Z" fill="#fff"/>
  <path d="M520.08,159.13c.62,9.14,2.26,22.24-.69,30.96-2.72,8.03-12.46,14.1-20.24,15.97-.72-.39-.96-1.64-1.54-2.12-6.02-5.03-16.15-8.75-23.95-9.91-3.3-.49-13.78-.08-15.58-2.18-6.35-7.4,11.97-22.65,8.85-25.61-3.26-.85-4.06,3.31-5.76,5.74-4.85,6.91-11.55,11.95-6.72,21.52l-14.7,7.5c-10.73-9.45-5.73-29.5-2.62-41.89.48-1.92,1.98-8.58,3.31-9.18,1.67-.75,11.12-1.36,13.65-1.47,14.8-.63,30.58,1.07,44.94,4.42,7.14,1.67,14.13,3.86,21.05,6.24ZM447.7,154.57c-5.96,1.03-6.87,6.24-1.65,4.94,1.46-.36,2.62-1.92,4.81-1.85,2.55.08,4.24,3.87,6.83.3,1.13-3.67-7.72-3.78-9.99-3.39ZM482.05,162.29c5.13-.31,7.71-1.23,12.67.81,1.04.43,1.56,1.7,2.81,1.84,2.35.28,3.04-1.44,1.21-3.23-4.07-3.96-11.64-4.55-16.56-1.94l-.12,2.51ZM450.36,167.71c-7.59-2.57-10.3,8.62-2.76,9.06,3.99.23,5.54-6.66,2.76-9.06ZM491.09,179.88c2.14-1.84,1.37-8.98-3.45-8.99-4.23-.01-4.67,7.13-2.8,8.99,1.11,1.11,5.2.91,6.25,0Z" fill="#fff"/>
  <path d="M259.45,518.93c2.06,2.58,9.45,11.07,7.96,14.08-.73,1.48-10.24,5.25-12.52,6.57-2.46,1.41-7.9,4.81-9.86,6.57-6.22,5.57-5,15.18-13.12,22.37-7.57,6.71-17.19,4.59-25.99,6.88s-15,8.93-25.67,7.27c-6.44-1-9.17-4.28-12.93-9.07-.38-.88-.42-8.72-.16-9.88s5.13-5.7,6.16-7.1c1.74-2.37,2.78-5.04,4.32-7.51l15.12-1.64c.56,3.37-2.12,4.68-3.17,6.32-1.71,2.69-3.25,5.48-5.1,8.08-.53.75-4.71,4.08-1.91,4.65.86.18,2.97-2.24,3.62-2.94,1.11-1.19,4.52-5,5.25-6.1,1.37-2.05,3.36-8.28,4.25-9.37,1.49-1.82,9.59,1.18,11.9,1.94l-2.35,12.53,2.22.03c1.28-.31,2.14-9.79,3.36-11.22,1.29-1.52,11.13.13,8.89-8.53,4.78.2,7.57-1.85,7.26-6.88-.1-1.6-1.44-3.8-1.38-4.57.02-.33,3.33-1.72,3.84-3.48,3.76-12.79-17.27-19.93-26.8-19.93-.38-10.89,10.78-12.43,19.37-11.81,17.01,1.23,27.3,10.02,37.44,22.72ZM248.23,530.19c-1.06-1.9-1.67-4.02-2.99-5.93s-7.09-9.79-9.74-8.02c-1.79,1.84,2.11,3.3,3.31,4.59,3.42,3.65,5.46,7.62,8.29,11.4l2.21-.54c.61-1.63-.91-1.19-1.08-1.5Z" fill="#fff"/>
  <path d="M42.22,144.55c.05-9.12.11-18.82,1.4-27.85.49-3.43,3.57-18.41,5.58-20.06,6.36-5.24,23.59-3.46,30.17,1.25s7.67,9.89,9.84,16.45c1.35,4.09,5.76-.4,9.24-.69,8.31-.69,18.4,5.79,19.48,14.38,7.25-.93,23.78,1.4,21.48,12.09-.49,2.3-4.08,4.42-6.12,4.42H42.22Z" fill="#fff"/>
  <path d="M252.6,837.34h-28.93l3.62-122.27c7.21,5.14,15.97,8.84,23.29,13.52,5.65,3.61,3.4,3.21,3.3,8.48-.27,13.33-.48,26.85-.66,40.09-.27,20.08-.04,40.12-.63,60.17Z" fill="#fff"/>
  <path d="M430.77,195.16c2.19,1.75,5.2,8.82,7.59,9.21,5.09-.3,8.75-4.9,13.81-6.55,11.44-3.73,32.8-.06,42.31,7.58,1.36,1.09,3.21,4.14,4.34,4.25,7.73-2.32,16.75-6.48,20.71-13.84,1.08-.18.61.89.65,1.63.19,3.85-.07,17.67-.8,20.91-.25,1.11-4.15,6.86-5.09,7.88-4.17,4.49-13.04,10.42-18.86,12.87-18.06,7.62-51.68,6.52-60.18-14.57-1.16-2.89-4.48-13.23-4.48-15.89v-13.47ZM456.9,205.86c-.51-.43-2.83-1.15-3.46-.2-2.72,4.21,10.56,9.62,13.83,9.9,1.3.11,2.49-.03,3.77-.19,3.52-.44,10.88-3.51,11.03-7.38.13-3.33-4.98,1.73-5.33,1.91-5.55,2.81-11.98,3.54-17.26-.37-1.89-1.4-1.87-3.06-2.58-3.67Z" fill="#fff"/>
  <path d="M590.54,32.15v14.46c-7.28,2.51-14.37,6.11-20.69,10.54-17.88,12.53-29.09,31.68-33.86,52.36-.49,2.11.52,5.09-.68,7.43-.92.63-6.93-4.93-8.33-5.8-5.66-3.5-13.71-6.41-20.17-8.09-2.91-.76-6.6-.47-8.9-2.26-.17-.64,3.29-10.33,3.9-11.6,8.93-18.26,25.3-34.55,43.36-44.24,14.18-7.61,29.43-11.02,45.38-12.8Z" fill="#fff"/>
  <path d="M571.08,293.5c2.43,5.56,3.94,10.55,1.02,16.86-4.12,8.93-14.09,15.78-22.03,21.49-1.54,1.11-5.04,2.32-6.19,3.67-1.91,2.23-2.51,8.46-5.32,11.11-.41.39-4.58,3.04-5.22,3.33-2.51,1.1-6.27,1.08-8.51,2.66-2.54,1.8-3.87,8.34-8.4,6.38-1.05-.45-4.03-2.51-3.53-3.79,1.83-1.85,2.36-4.16,3.72-6.2s4.24-2.88,3.57-5.96c-.82-.85-6.35,4.06-7,4.82-2.8,3.29-1.29,6.44-6.51,5.72-4.2-.58-2.78-4.6-1.32-7.3,2.12-3.91,6.75-4.89,6.93-9.16-2.48-2.34-11.23,10.11-12.49,3.61-1.1-5.66,3.98-10.21,8.51-12.52,3.46-1.77,8.01-1.9,11.18-3.94,3.92-2.51,10.6-11.34,14.57-15.02,1.45-1.34,4.08-2.24,5.25-4,1.89-2.86-5.71-9.05-4.39-10.89l28.34-14.93c1.8.15,6.89,11.91,7.82,14.04Z" fill="#fff"/>
  <path d="M64.35,371.14c-.05.15-.95.18-1.05.68-.36,1.8-1.96,9.54-.75,10.39.74.34,1.85.56,2.56.16.65-.37,6.05-10.64,7.97-12.72,1.33-1.44,11.92-10.52,13.18-9.5-1.25,4.41-1.72,9.16-3.26,13.49-.8,2.25-7.05,13-5.94,14.1,2.94.69,3.68-1.99,5.7-3.17s4.7-2.38,6.83-3.03c1.52-.47,3.63-1.69,4.54.03.4,1.57-5.23,11.13-6.53,12.92-.5.7-1.47.82-1.97,1.46-1.95,2.48-4.41,7.08-7.52,8.28-4.93,1.9-20.58,1.64-26.38,1.29-4.15-.25-8.9-.47-11.91-3.54s-16.74-24.28-17.33-27.71c-.08-.47-.13-1.13.33-.98,2.18,1.55,4.97,1.92,7.25,3.26,3.66,2.15,5.55,6.58,9.51,7.25.26-10.48-4.05-21.4-3.28-31.89.05-.71-.36-2.2.98-1.63.28.12,4.09,3.99,4.29,4.26,2.42,3.22,5.72,11.33,7.03,15.32.67,2.01,1.38,9.5,3.23,9.92,3.52.79,1.99-6.33,2.23-8.78.79-8.08,4.31-25.71,9.15-32.08,1.36-1.78,2.46-1.09,2.7,1.15.55,5.01-.02,26.82-1.56,31.07Z" fill="#fff"/>
  <path d="M155.57,400.64c9.45,15.68,9.17,42.95,11.51,61.11.19,1.45,1.73,5.51,2.02,8.51.68,7.17.25,14.8,1.07,21.98l-.74,1.35c-2.76-2.22-15.66-6.08-17.05-7.92-3.91-5.19-3.17-21.88-3.74-28.47-.82-9.55-4.84-19.6-9.89-27.58-3.66-5.77-11.87-14.5-18.95-14.91-.33-1.92,1.92-1.76,2.96-2.63,2.2-1.84,3.93-3.72,6.43-5.4,3.56-2.4,19.62-10.95,23.14-10.4,1.77.27,2.32,2.83,3.25,4.37Z" fill="#fff"/>
  <path d="M478.98,363.25c1.33,2.89,1.64,8.37,1.79,12.31.08,2.22.36,14.45-.66,15.17-5.18,2.4-34.11,2.25-36.91-1.27-1.56-2.13,0-4.55.06-6.65.15-6.33-.61-15.28,1.97-20.49l2.7-24.47,28.91,2.21.62,1.35,1.52,21.84Z" fill="#fff"/>
  <path d="M250.9,413.11c11.04,11.54,17.93,25.05,26.8,37.95,1.31,1.91,2.79,3.77,4.47,5.38.01.83-8.47,2.49-5.26,4.61,1.94,1.28,3.99-1.13,5.74-1.51,2.66-.56,20.23,2.83,20.57,4.13l-8.98,7.78-3.95,5.58c-6.56.41-13.78-1.97-19.2-5.57-7.26-4.82-16.88-20.49-19-28.99-.58-2.31.38-5.47-1.8-7.39-1.46-.03-1.07,9.36-1.01,10.86.45,12.43,2.81,24.97,3.34,37.41.31,7.29,0,14.78-.36,22.05l-6.08-5.01c1.18-2.84-.07-5.12-.18-7.79-.97-24.06.26-45.32-3.36-69.61-1.03-6.93-3.35-13.97-3.52-20.8,3.81,3.78,8.07,7.01,11.78,10.89Z" fill="#fff"/>
  <path d="M427.58,148.4c-2.9-9.73,5.32-12.77,13.05-14.7,26.99-6.74,67.33,1.15,92.3,12.9,4.57,2.15,18.2,9.19,19.77,13.75.84,2.44-.04,8.2-3.09,7.77-6.41-3.32-13.08-6.54-19.77-9.22-25.67-10.29-55.18-16.31-82.95-13.68-6.71.63-12.76,2.73-19.31,3.19Z" fill="#fff"/>
  <path d="M198.69,506.07c-.26,1.81-1.54,3.22.39,4.55,1.15.79,13.52,2.4,17.17,3.87,5.37,2.16,15.13,9.74,7.1,14.58-1.8-2.66-5.23-5-8.23-6.22-3.82-1.55-9.97-3.39-13.79-1.65,1.63,2.88,5.49,1.91,8.69,2.81,3.4.95,9.09,3.69,10.94,6.81,1.01,1.7,2.71,6.25,1.47,7.84-2.16,2.78-4.95-1.49-6.83-2.49-2.27-1.2-17.45-7.18-18.21-3.47-.23,1.12.86,1.33,1.64,1.63,2.72,1.06,6.94,1.09,10.18,2.31,4.61,1.74,9.51,4.36,6.43,10.02-2.24,2.24-9.7-1.14-12.85-1.63-11.99-1.9-25.33,2.78-37.57-1.55-.54-.84,1.22-5.83,1.73-7,1.28-2.95,3.18-6.62,4.67-9.81,1.9-4.04,6.79-15.45,10.61-17,4.35-1.77,11.73-1.97,16.46-3.59Z" fill="#fff"/>
  <path d="M228.93,669.08l-2.64-92.37c.27-1.35,6.53-4.29,8.33-5.81.55-.46,3.17-2.94,3.53-3.37,1.2-1.42,1.67-3.96,3.27-4.94l3.84,104.05c-.37,1.06-1.15,1.55-2.21,1.75-3.82.73-9.91-.27-14.12.68Z" fill="#fff"/>
  <path d="M42.22,239.2c.73-.06,1.43-.01,2.15.15,1.61.35,8.49,5.85,10.12,7.31,1.16,1.05,5.88,8.49,7.81,5.71,1.1-1.58-1.04-4.79-1.36-6.57-1.34-7.27-1.39-16.61-.96-24.06.04-.65.07-4.28.98-4.21,7.48,5.21,10.11,11.43,13.29,19.54.28.72,1.21.72,1.45,1.33.93,2.37.77,6.16,1.69,8.69.98,1.45,2.93.37,3.35-.96-1.04-4.77-1.56-6.35.8-10.67,1.36-2.49,7.08-9.55,9.3-11.08,2.1-1.44,3.02-1.53,3.35,1.31.4,3.41.17,9.59-.04,13.17-.1,1.72-2.35,8.41-.3,8.89,6.06-3.09,11.38-8.98,18.72-8.55.02,7.98-4.23,14.74-10.19,19.72h-59.17l-.99-.99v-18.73Z" fill="#fff"/>
  <path d="M383.25,64.5l72.76-.06c9.22.17,10.13,16.27.75,17.03l-72.95-.06c-8.15-.7-7.15-15.43-.56-16.91Z" fill="#fff"/>
  <path d="M155.3,678.28l-1.97,16.43c-3.81-.16-7.69.21-11.5-.01-18.86-1.09-38.83-5.23-56.01-13.02-3.51-1.59-13.85-6.53-16-8.98-2.46-2.8,1.44-11.61,2.98-14.8,24.59,14.87,53.86,20.87,82.49,20.39Z" fill="#fff"/>
  <path d="M352.13,491.38c.06.19.94.24,1.04.69.64,2.75-.01,6.35-2.77,7.61-.65.3-2.04.14-2.61-.18-1.4-.78-4.22-10.54-5.84-12.46-4.38,1.51-.92,2.91-.4,4.07,1.98,4.42,7.36,21.78-3.33,17.15-1.99-.86-7.33-14.12-8.7-16.84-.21-.42-1.12-.52-1.5-1.29-.43-.88-4.65-13.66-6.38-11.66.04,4.6,2.33,10.23,4.28,14.45,2.29,4.95,9.77,15.18,10.54,19.73.45,2.67-1.33,4.66-3.98,4.64-9.62-.1-11.35-16.47-14.19-23.18-.19-.45-.95-.57-1.19-1.06-1.03-2.12-.95-5.97-4.01-5.38l3.34,14.05c-1.85,1.33-4.33,2.36-6.62,1.38-3.76-1.62-5.97-8.69-5.99-12.48-.06-9.76,7.44-7.05,10.49-12.58,2.51-4.56-.53-9.3,6.34-10.1,16.43-1.91,26.66,9.07,31.48,23.43Z" fill="#fff"/>
  <path d="M419.52,291.2c.35,4.63-.24,9.34.16,13.97.65,7.47,4.62,9.22,2.53,18.37-.1.42-1,2.62-1.45,4.57-1.58,6.81-4.02,17.58-6.36,23.88-.29.78.41,1.05-1,.9-5.12-.56-7.64-4.34-5.63-9.18,8.19,4.49,3.97-1.38,4.65-6.85.36-2.86,2.36-5.55,2.51-8.5-.35-1.19-4.93-2.81-6.18-3.72-5.77-4.18-18.17-15.74-20.36-22.37-3.11-9.43.81-18.43,5.91-26.27,8.3,5.15,15.88,12.06,25.22,15.19Z" fill="#fff"/>
  <path d="M234.17,399.59c.7.5,1.63,8.47,2.05,10,5.56,20.1,7.37,42.5,7.85,63.9.19,8.43.21,16.99-.68,25.34l-13.19-5c-.87-27.29.42-54.98-3.99-82-.19-1.19-.34-2.81-.63-3.85-.13-.47-2.71-3.06-1.92-5.11,4.01.67,6.72-3.15,10.5-3.28Z" fill="#fff"/>
  <path d="M255.23,544.19c.89,12.13,1.19,24.33,1.98,36.47.36,5.44,2.4,14.73,1.96,19.66-.15,1.71-3.55,7.05-4.44,9.42-5.11,13.6-5.59,30.94-1,44.73.64,1.91,5.97,12.11,5.44,12.63-3.87-1.15-6.8,1.23-10.74.69-.93-.22-1.07-2.8-1.13-3.61-1.49-21.64-.1-44.65-1.26-66.44.31-12.6-3.2-27.88-2.7-40.08.28-6.95,6.04-11.06,11.88-13.46Z" fill="#fff"/>
  <path d="M357.14,793.96c4,.69,7.34,3.96,11.56,4.54,4.82.66,10.38-1.38,15.4-.6l-.66,39.44h-26.3v-43.38Z" fill="#fff"/>
  <path d="M530.71,425.21l1.68,30.28c-10.96,3.49-23.45,3.61-34.22-.7l-4.28-25.62c12.47.53,24.58-2.3,36.82-3.95Z" fill="#fff"/>
  <polygon points="412.36 837.34 387.38 837.34 388.62 796.97 412.41 794.91 412.36 837.34" fill="#fff"/>
  <path d="M417.63,421.93l36.85,6.2.64,1.35-2.93,24.04c-10.97,2.6-23.24,2.55-33.27-2.98-2.17-9.36-1.01-19.08-1.29-28.61Z" fill="#fff"/>
  <path d="M518.22,321.37c-2.24,2.67-7.08,2.27-10.52,3.61-3.83,1.5-7.11,4.32-9.49,7.61-1.57,2.17.3,3.42-3.98,3.89-13.92,1.52-38.51-.31-52.54-2.7-2.77-.47-15.01-3.14-16.22-4.81-.8-1.1-.25-8.18.05-9.91.13-.75.3-1.27,1.03-1.61,29.58,8.15,61.41,7.88,91.67,3.92Z" fill="#fff"/>
  <path d="M135.58,752.55c2.77-4.3-4.85-17.71-8.9-17.76-4.68-.06,1.07,4.35,1.3,4.65,2.73,3.59,5.59,10.22,3.19,14.45l-6.77,1.3c-.13-2.47-.96-7.89-2.35-9.82-.27-.38-4.32-4.52-4.87-4.99-.99-.85-3.31-2.67-3.93-.58-.82,2.8,3.15,4.11,4.7,6.38,1.65,2.43,2.76,6.07,2.5,9.01-2.61.06-8.82,0-10.72-1.93-1-1.03-2.9-10.8-5.72-5.66-.25,1.03,4.32,6.84,1.69,6.24s-13.36-5.73-15.73-7.28c-3.35-2.19-.61-4.28,1.21-6.49,8.14-9.92,22.15-14.97,34.83-15.1,2.29.44,4.45,4.3,5.98,5.86,1.93,1.98,5.47,1.51,2.25,6.27,1.01,2.05,3.91.24,4.65.65,1.15.66,3.24,7.04,3.27,8.6.11,4.53-3.18,4.77-6.59,6.21Z" fill="#fff"/>
  <path d="M260.24,462.92c8.01,10.56,14.6,17.15,29.17,16.85-2.57,7.37-2.84,15.23-2.63,23-11.53-1.91-22.39-7.17-31.89-13.8l-2.29-36.81,6.03,9.44c.33.61,1.28.88,1.61,1.31Z" fill="#fff"/>
  <path d="M222.36,721v9.2c-12.49,4.11-17.42,15.42-19.45,27.63l-10.47-3.31c-.73-3.77-.04-8.28-1.02-12.01-.31-1.2-3.19-7.32-4.09-9.17-.71-1.46-2.98-3.72-3.04-4.74-.07-1.16,1.47-9.29,2.32-9.55,11.6,3.51,23.83,3.25,35.76,1.93Z" fill="#fff"/>
  <path d="M170.25,402.38c.44.35,1.14,2.72,1.87,3.72,10.53,14.52,30.29,17.33,42.14,2.49.8-1.01.51-2.59,1.29-3.15.48-.35,5.3-1.45,5.49-1.25,1.34,8.9,3.19,12.17-4.66,18.02-13.88,10.36-36.94,8.54-49.02-3.79-4.45-4.54-5.35-13.74-8.12-19.48,1.95,1.03,9.94,2.59,11.01,3.45Z" fill="#fff"/>
  <path d="M404.48,400.9c.48.49-1.8,11-1.3,13.46.47,2.31,3.03,2.23,3.93,4.28l-47.68-1.29c-2.88-3.46-1.27-11.93,2.35-14.12,2.32-1.4,9.19-2.18,12.1-2.36,9.96-.63,20.58.52,30.6.03Z" fill="#fff"/>
  <path d="M556.35,210.93l-32.88.67.95-22.39c1.47-2.11,24.06.96,28.03.98l3.9,20.74Z" fill="#fff"/>
  <path d="M523.47,214.88l32.87-.65c.44,9.02,4.22,13.18-5.23,18.09-2.88,1.5-12.74,5.3-15.66,5.44-2.02.1-9.31-6.31-11.98-7.44v-15.45Z" fill="#fff"/>
  <path d="M82.97,693.4c2.15,6.83,8.69,10.66,14.47,14.13l9.2,3.61c-12.36,2.93-23.14,9.72-31.98,18.64-1.18,1.19-1.04,3.49-2.85,3.05-1.17-3.77-5.72-5.75-5.14-10.01.36-2.71,5.08-17.06,6.54-19.15,1.31-1.88,4.75-4.69,6.46-6.68.73-.84,2.26-4.55,3.3-3.6Z" fill="#fff"/>
  <path d="M302.57,500.14l-12.51-6.29c.9-3.48.92-7.08,1.89-10.56,4.91-17.66,34.86-32.02,51.19-22.06,4.27,2.61,5.35,7.47.51,9.78-6.32-3.66-14.66-7.94-22.19-6.85-1.27.18-5.93,1.63-6.76,2.43-2.25,2.17-1.96,8.13-3.55,10.26-1.2,1.61-5.23,2.37-6.94,3.57-5.4,3.8-4.03,14.56-1.64,19.72Z" fill="#fff"/>
  <path d="M368.31,690.11c.8,5.42-4.63,8.59-8.95,10.43-15.07,6.4-52.42,7.45-65.28-3.59-1.6-1.37-4.72-6.27-1.17-6.09,1.68.09,8.78,3.05,11.5,3.65,20.15,4.47,44.63,2.99,63.9-4.4Z" fill="#fff"/>
  <path d="M499.15,104.46c-2.97,8.34-7.9,16.27-7.89,25.64l-22.35-1.98c1.92-7.81,2.06-16.63,6.19-23.71,1.48-1.06,23.18-.78,24.05.05Z" fill="#fff"/>
  <path d="M515.58,136.01l-21.04-4.6c.65-8.95,3.02-19.22,9.62-25.57,7.01,1.64,14.22,3.72,19.93,8.24-3.1,7.25-8.39,13.59-8.52,21.93Z" fill="#fff"/>
  <path d="M121.51,718.62c.53.65,2.71,2.79,1.58,3.38-15.96,1.01-29,8.02-38.56,20.62l-8.72-6.29c2.24-7.55,9.87-12.57,16.58-16.09,4.14-2.17,20.57-9.22,24.43-8.45,2.23.44,1.36,2.44,2.25,4.34.63,1.35,1.77,1.69,2.43,2.49Z" fill="#fff"/>
  <path d="M254.57,493.25c.04-.18.97-1.28,1.31-.67,9.02,6.57,19.73,10.93,30.74,12.98,1.02,5.56,2.88,10.28,5.42,15.29-5.16,1.12-37.48-8.61-37.48-12.48.69-4.14-.93-11.43,0-15.12Z" fill="#fff"/>
  <path d="M525.09,469.62c1.39,2.38,2.84,5.09,2.67,8.17l-11.13,5.98c-6.98-11.16-17.57-14.93-30.31-15.83-.71-.05-2.2.36-1.63-.98.44-1.04,12.19-8.76,13.44-8.81,4.42.94,8.77,2.46,13.26,3.13,2.23.33,5.05-.36,7.01.22,1.58.47,5.7,6.43,6.68,8.11Z" fill="#fff"/>
  <path d="M524.13,163.28c-.05-.46-1.03-1.34-.65-2.3.79-.75,12.87,4.48,14.7,5.35,2.4,1.14,9.53,4.41,10.93,6.16.45.56,2.76,12.74,2.65,13.79l-27.62-.32c-.54-7.27.73-15.53,0-22.68Z" fill="#fff"/>
  <path d="M537.05,123.75c8.21,8.98,7.82,14.29,10.78,24.94.17.62,2,.5,1.28,2.43l-29.47-14.23c-1.55-4.49,4.63-17.1,8.43-20.31.72-.36,8.03,6.13,8.98,7.18Z" fill="#fff"/>
  <path d="M551.76,603.34c-2.77-6.28-7.1-4.68-4.06-12.89,1.11-2.98,2.41-4.14,2.72-8.48.49-6.9.52-11.44-5.57-15.44-4.39-2.88-10.41-1.13-14.79.66v-8.07c8.11-5.47,21.57-2.23,25.95,6.78,4.63,9.52,3.22,20.51-.01,30.19-.43,1.28-2.75,8.28-4.23,7.25Z" fill="#fff"/>
  <path d="M471.53,569.17c-3.62-2.08-6.95-3.35-11.19-2.32-8.07,1.96-8.35,10.77-7.86,17.76.19,2.69,2.19,8.74,1.96,10.47-.29,2.22-5.05,6.66-6.25,8.91-1.07.06-2.65-7.43-3.02-8.67-.15-.51-1.04-.49-1.19-1.03-1.19-4.22-1.11-14.85-.52-19.36.23-1.79,2.99-7.37,4.13-9.01,4.61-6.64,15.08-9.58,22.66-6.97,3.92,1.35,1.03,7.1,1.28,10.21Z" fill="#fff"/>
  <path d="M410.12,468.21c-3.4-5.09-6.2-6.15-11.28-8.76-.69-.35-1.24.35-.94-1.37l18.37-5.61c8.77,4.68,13.91,14.91,13.56,24.71-.77,1.07-14.31,1.85-15.53.98-1.17-3.83-1.93-6.6-4.18-9.95Z" fill="#fff"/>
  <path d="M63.48,727.35c15.66,20.54,44.51,37.92,71.23,29.27.72-.23,6.2-3.94,4.73-.53s-11.89,6.61-15.38,6.97c-18.11,1.85-36.97-7.16-50.3-18.72-7.15-6.2-16.97-14.75-16.44-24.98.04-.72.23-2.97,1.32-2.96,1.01,3.83,2.41,7.77,4.84,10.94Z" fill="#fff"/>
  <path d="M503.1,487c-.73-.65,3.48-5.35.97-6.57-3.27.66-4.56,4.25-4.98,7.17l-7.82.06c-1-.88,6.88-9.56,4.92-11.83-1.93,1.13-4.97,4.06-6.25,5.76-2.23,2.97-1.39,7.59-7.6,4.8-1.48-2.96,7.08-11.54,5.63-13.18-8.45,1.28-5.4,17.58-15.14,10.83-1.16-1.24,1.13-5.69,1.98-7.23,2.18-3.98,3.99-6.2,8.9-6.22,6.09-.03,14.63,1.95,19.97,5,1.79,1.02,7.87,6.35,8.36,8.09.75,2.66-7,3.59-8.93,3.33Z" fill="#fff"/>
  <path d="M436.03,151.13c-1.56,2.91-1.81,6.24-2.69,9.34-.14.48-1.06.5-1.2,1.03-2.67,9.88-3.2,20.89-4.69,31.01l-11.8-.63c-.71-.7,4.57-16.95,5.33-19.18.15-.45,1.03-.55,1.35-1.45,1.41-4,3.66-14.48,5.66-17.33,1.72-2.46,5.31-2.19,8.05-2.79Z" fill="#fff"/>
  <path d="M451.81,456.77v14.13c0,.11-.72,1.95-.85,2.1-.99,1.13-15.6,4.37-16.27,3.87-1.55-2.02-.81-5.15-1.31-7.15-.13-.52-1.08-.53-1.24-.98-1.48-4.17-2.92-7.86-5.32-11.65,8.3.73,16.79,2.01,24.99-.34Z" fill="#fff"/>
  <path d="M467.97,114.72c-.04.15-.83.23-.98.77-.5,1.83-1.6,12.16-2.06,12.6l-17.72.69c-.58-.56,2.86-14.02,3.79-15.59,2.11-3.55,14.83-6.28,18.9-8.05.6.5.8.51.72,1.34-.15,1.58-2.07,6.22-2.64,8.24Z" fill="#fff"/>
  <path d="M132.52,374.38l6.98,9.76c-3.27,2.8-7.67-.59-9.76-3.38-.64-.86-.54-2.54-1.41-3.19-1.21-.89-6-1.05-8.02-1.85-6.8-2.68-8.64-11-7.75-17.55,5.27,1.39,9.6,2.63,15.15,1.58l4.8,14.62Z" fill="#fff"/>
  <path d="M318.16,507.21c-.8.67-2.89,1.11-4.42,2.46-2.29,2.02-3.51,4.86-6.34,6.8-1.58,1.09-7.86,4.12-9.51,3.73-7.47-4.85-7.97-14.51-7.8-22.68l20.37,9.58c2.8,1.01,4.94-1.77,7.55-2.35,1.15.58.91,1.83.15,2.46Z" fill="#fff"/>
  <path d="M93.31,688.33c.86.96.93,3.08,2.85,4.71,6.83,5.77,18.34,7.45,26.92,8.57-2.11,1.39-3.75,6.55-5.58,6.91-6.22,1.21-19.05-3.54-24.01-7.55-1.68-1.35-7.89-7.82-8.26-9.54-1.19-5.66,5.32-6.16,8.07-3.09Z" fill="#fff"/>
  <path d="M222.21,711.97c1.39,1.33.46,5.42-2.44,6.12-1.86.45-7.44.93-9.54.97-3.24.07-21.75-1.29-23.06-3.29l-.3-8.57c10.09,2.66,20.16,3.32,30.55,1.98.27.05,4.6,2.6,4.8,2.79Z" fill="#fff"/>
  <path d="M428.15,214.88c-2.41-.13-18.37-1.31-19.03-2.01-1.57-1.67,1.15-4.18,1.37-4.82,1.42-4.15,2.2-8.58,3.25-12.83l13.46.55.95,19.1Z" fill="#fff"/>
  <path d="M409.31,474.29c.46.91,2.74,2.05,1.74,4.82l-14.46-.66c-.52-3.53,6.48-5.85,3.56-8.51-3.2-.96-6.06,5.31-6.93,7.78l-5.83-.59c-.94-.79,6.13-8.55,7.8-8.62l-.91-2.55c-4.24,2.06-9.62,5.49-10.19,10.53l-2.67-1.04c-.78-4.88,8.16-14.79,12.89-14.67,1.94.05,8.66,3.95,10.2,5.49,2.25,2.26,3.43,5.25,4.82,8.02Z" fill="#fff"/>
  <path d="M431.96,229.87c-.16.28-5.16,3.19-5.54,3.24-3.03.34-16-7.15-17.38-9.49-1.17-1.98-.44-5.21-.62-7.43l20.42,2.26c.37,2.37,4.12,9.71,3.12,11.42Z" fill="#fff"/>
  <path d="M222.36,732.84c-1.39,5.65.2,12.72-.69,18.04-.19,1.12-4.32,8.56-5,8.8l-10.01-1.28c.38-6.23,2.57-12.63,5.94-17.9l9.76-7.66Z" fill="#fff"/>
  <path d="M543.85,592.17c-1.05.24-1.34-.37-1.98-.96-2.42-2.24-7-8.38-8.35-11.37-.76-1.69-3.1-7.89-2.22-9.05,17.51-9.27,17.37,9.94,12.55,21.39Z" fill="#fff"/>
  <path d="M211.18,406.16c-1.64,6.2-11.63,9.34-17.39,9.21-7.07-.16-16.63-4.61-18.76-11.84,11.73,3.4,24.01,3.87,36.15,2.63Z" fill="#fff"/>
  <path d="M467.97,579.41c-1.59,2.79-4.85,7.32-6.98,9.78-.92,1.06-2.03,2.29-3.26,2.98-.25-1.69-.3-3.82-.71-5.42-.15-.58-1.17-.28-1.32-1.44-.21-1.62-.21-6.35,0-7.97.15-1.14,1.07-.85,1.3-1.46,1.66-4.25,2.24-6.98,8.12-5.9,6.96,1.28,5.51,4.74,2.84,9.43Z" fill="#fff"/>
  <path d="M451.15,477.15c-.77,2.6-2.38,2.83-4.6,3.61-15.05,5.25-40.37,5.32-56.14,2.88-2.37-.37-7.28-1.13-8.29-3.55-.83-1.99,3.1.01,3.8.15,21.54,4.31,44.05,1.7,65.23-3.09Z" fill="#fff"/>
  <path d="M208.88,767.01c-6.21-.59-23.36-5.34-26.66-10.81-.48-.8-1.19-2.28-.29-3,11.74,7.78,25.97,9.51,39.76,10.53v3.28c-4.14-.29-8.73.39-12.81,0Z" fill="#fff"/>
  <path d="M208.55,698c-1.8,3.76,1.59,5.43,2.63,8.54-2.84.81-23.99-1.53-24.35-3.06.09-1.23-.51-5.04.98-5.31l20.74-.16Z" fill="#fff"/>
  <path d="M472.85,487.66c20.52,6.34,44.05,4.45,61.13-9.21.1,3.87-4.5,6.34-7.44,8.01-11.86,6.74-29.99,8.44-43.33,6.28-3.45-.56-9.66-1.1-10.36-5.08Z" fill="#fff"/>
  <path d="M530.71,476.48c-.21-4.23-1.68-7.97-4.05-11.4-1.06-1.54-3.77-2.14-3.19-5.03l9.55-.7c.27,5.43,4.85,14.68-2.32,17.12Z" fill="#fff"/>
  <path d="M188.82,753.21c-2.45-.5-7.35-3.19-7.78-5.74s1.29-11.41,2.86-13.97c3.76,5.79,4.4,12.98,4.92,19.71Z" fill="#fff"/>
  <path d="M173.71,548.14c-.62,4.96-4.4,8.96-9.22,10.22-2.8-3.42-.39-7.71-.64-11.54l9.86,1.32Z" fill="#fff"/>
  <path d="M444.96,121.95c-.05.15-.81.21-.98.76-.59,1.9-.5,4.61-.81,6.62l-9.1,2.72c2.3-6.28,6.78-12.27,12.48-15.77.28.35-1.3,4.82-1.58,5.66Z" fill="#fff"/>
  <path d="M126.37,696.03c-.74,4.14-7.55,2.3-10.67,1.79-5.83-.96-13.29-2.8-16.94-7.7,8.98,2.66,18.18,5.77,27.61,5.91Z" fill="#fff"/>
  <path d="M64.56,721c-1.51.31-1.05-.16-1.48-.84-4.45-7.08.12-12.63,6.08-16.25l-4.6,17.09Z" fill="#fff"/>
  <polygon points="531.94 297.13 535.24 303.85 529.4 309.53 530.05 297.04 531.94 297.13" fill="#fff"/>
  <path d="M519.54,224.09" fill="#fff"/>
  <rect x="221.05" y="757.81" width=".64" height="1.97" fill="#fff"/>
  <path d="M213.43,91.05c9.61,20.52,9.73,45.61,10.27,68.26.65,27.35-.55,54.79-.02,82.14-.09.61-4.26.37-5.42.56-1.74.29-5.15,1.62-6.22,1.65-.8.02-5.77-3.3-7.58-3.99-2.05-.79-6.07-1.89-8.25-2.27-2.93-.51-9.63-.28-11.57-.92-.52-.17-.86-.43-.99-.99l-.06-95.25c-1.63-27.55-8.7-55.99-32.69-72.49-20.95-14.4-49.46-18-73.18-8.32,9.76-7.08,22.85-11.71,34.7-13.94,42.16-7.94,82.28,5.58,101,45.56Z" fill="#fff"/>
  <path d="M340.09,164.87c-.16-.24-.31-1.83.34-1.98,8.51-2.08,1.71,5.1-.34,1.98Z"/>
  <path d="M296.59,249.78c1.62,2.73-2.18,4.38-3.88,1.57-.36-1.71,2.75-1.94,3.88-1.57Z"/>
  <path d="M25.78,314.14c1.18-.12,5.01-.34,4.6,1.63-1.54,1.91-5.25,1.39-4.6-1.63Z"/>
  <path d="M55.35,291.14v3.27s-3.92-1.32-3.92-1.32c-1.25-1.51,3.24-2.26,3.92-1.95Z"/>
  <path d="M35.64,35.44c-2.15.06-3.78.66-3.64-1.98l2.64-1.3,1,3.28Z"/>
  <path d="M342.42,318.14c3.09-.97,3.79,2.4,1.13,3.12-2.39.65-3.01-2.53-1.13-3.12Z"/>
  <path d="M290.06,351.62c2.09,1.63-2.43,5.04-3.26,2.27-.64-2.16,2.47-2.89,3.26-2.27Z"/>
  <path d="M312.77,49.91c3.02-.85,3.02,4.12,0,3.27-1.32-.37-1.32-2.9,0-3.27Z"/>
  <path d="M322.3,132.06c-1.67-1.75,2.4-5.13,3.28-1.63.4,1.62-2.9,2.03-3.28,1.63Z"/>
  <rect x="261.8" y="173.48" width="3.29" height="2.62"/>
  <path d="M266.41,26.24c.39,2.48-1.13,2.87-3.28,2.62v-2.62s3.28,0,3.28,0Z"/>
  <path d="M242.09,61.73c-1.77-1.95,2.49-4.66,3.28-1.63.42,1.62-2.92,2.03-3.28,1.63Z"/>
  <path d="M52.59,627.8c3.42,6.04-9.97,8.04-13.98,7.74-15.93-1.22-6.33-14.48,7.59-11.52,1.2.26,5.97,3.04,6.39,3.79ZM33.01,631.6c2.5,1.82,17.32,1.62,16.43-2.28-.72-3.18-17.21-3.52-16.43,2.28Z"/>
  <path d="M39.74,448.74c-1.27-2.43,1.33-4.34,3.33-5.25,7.38-3.35,21.68,1.29,14.89,6.34-2.98,2.21-16.31,2.54-18.22-1.09ZM43.86,448.22c2.15.53,8.43,0,11.18,0,.39,0,1.34-1.48.98-1.96-4.41-1.85-8.17-1.68-12.5.32-1.04.5-.17,1.53.33,1.65Z"/>
  <path d="M165.66,793.47c4.07-.45,13.09,1.37,10.34,7.07-1.68,3.49-17.15,4.24-18.64-1.13-1.01-3.65,5.6-5.63,8.3-5.93ZM160.56,799.87c.51.61,12.89,1.91,13.15-1.63-.48-2-14.13-3.31-13.15,1.63Z"/>
  <path d="M90.04,799.38c4.34-.74,12.92.03,11.54,6.22-1.83,3.95-15.67,5.01-17.85-.28-.05-3.25,3.38-5.44,6.31-5.94ZM98.75,803.17c-2.81-1.68-12.28-2.76-11.22,2.22.28,1.3,4.91,1.05,6.12.88.85-.12,6.4-1.66,5.1-3.1Z"/>
  <path d="M29.45,495.8c-.07-.16-.77-.24-.98-.78-.42-1.04-3.05-9.62-2.69-9.99,4.81-1.5,8.39,13.42,7.83,15.35-1.38,4.77-3.88-3.9-4.17-4.59Z"/>
  <path d="M39.83,779.26c3.3,3.41,5.46,8.52,5.67,13.38l-2.97-.64c-.44-5.6-4.85-9.43-6.89-14.13,2.29-2.57,2.9.06,4.19,1.39Z"/>
  <path d="M52.5,783.24c-.04.18-.99.03-1.14,1.15-.16,1.26.34,7.32.05,7.6l-3.19-1.08c-.69-2.13.62-11.73,1.67-13.87.68-1.39,2.86-2.13,3.41-.4.47,1.49-.44,4.92-.8,6.6Z"/>
  <path d="M59.82,564.4c-.74.97-2.31.66-2.83-.51-1.05-2.45,4.43-12.74,7.84-11.78,2.98,2.65-1.96,4.9-3.43,7.65-.74,1.38-1.14,4.06-1.59,4.65Z"/>
  <path d="M54.05,563.91c-6.58,2-4.38-15.11-.66-12.49-.18.64.66,1.4.66,1.64v10.85Z"/>
  <path d="M43.53,489.64c.74,3.09-2.79,5.18-3.9,7.08-.7,1.19-.33,4.82-3,4.08-2.23-.62,1.44-8.25,2.38-9.43,1.22-1.53,2.58-1.89,4.51-1.73Z"/>
  <path d="M39.75,555.87c-1-1.79.17-3.05,2.05-3.02,1.81.35,7.26,10.29,4.04,12.35-2.51-2.06-2.85-5.45-4.37-8.14-.4-.7-1.55-.91-1.71-1.2Z"/>
  <path d="M58.57,791.9c-.96.59-3.2.09-3.11-1.42.1-1.67,4.12-8.94,6.14-8.35,2.62,2.25-.19,3.67-1.11,5.45-.43.84-1.72,4.19-1.92,4.31Z"/>
  <path d="M58.41,478.51c1.29-.56,3.78.86,3.53,2.24l-3.96.69.43-2.92Z"/>
  <path d="M418.77,533.84c1.07,1.11,1.05,4.07.22,5.32-1.66,2.53-17.15,2.89-17.83-1.91-.92-6.55,14.14-7,17.6-3.41ZM403.82,537.61c4.4.44,9.94,1.96,13.79-.98-1.36-1.75-3.93-2.74-6.12-2.72-.91,0-9.59,1.94-7.67,3.7Z"/>
  <path d="M307.68,421.77c-2.47,1.8-12.11,2.69-11.71-1.46s11.95-4.26,12.26-.02l-.55,1.48ZM303.88,419.31c-.34-.31-4.34.29-3.94,1.3h3.94s0-1.3,0-1.3Z"/>
  <path d="M562.07,474.05c3.65.11,5.49,4.43-.12,5.07-8.93,1.02-6.42-5.27.12-5.07Z"/>
  <path d="M325.39,426.67c1.98-.59,6.73,0,6.04,2.71-.83,2.87-8.88,2.31-8.42-.44.55-.81,1.44-1.98,2.38-2.26Z"/>
  <path d="M568.52,422.59c2.33-.55,2.93,11.65-.66,10.51-1.92-.61-1.1-10.1.66-10.51Z"/>
  <path d="M564.89,433.1c-2.97.58-2.67-2.58-3.75-4.43-.67-1.14-2.09-1.03-2.15-3.18-.19-6.8,7.75,4.52,5.9,7.61Z"/>
  <path d="M577.07,423.91c.8-.17,1.2.5,1.6,1.04.5,1.44-3.81,8.39-4.87,8.14-3.54-.82,1.98-8.91,3.27-9.18Z"/>
  <path d="M436.71,514.58c-.12-.19-.28-1.86.36-1.99,8.67-1.96,1.46,4.75-.36,1.99Z"/>
  <path d="M554.71,516.59c3.02-.85,3.02,4.12,0,3.27-1.32-.37-1.32-2.9,0-3.27Z"/>
  <path d="M409.33,702.36c.17.24.83.34,1.05.73.83,1.51,4.1,10.59,3.3,11.34l-2.54-.08c.16-2.2-1.8-3.08-2.25-4.02-.83-1.78-1.17-4.02-1.96-5.9-.66-1.57-3.23-3.55-2.13-5.11,1.89-2.69,3.76,1.96,4.53,3.05Z"/>
  <path d="M418.94,694.71c-1.15,4.9,1.45,13.16.66,17.41-.48,2.58-3,2.36-3.32-.62-.35-3.24-1.23-13.85.37-16.14l2.3-.66Z"/>
  <path d="M431.22,706.34c-.33.41-1.26.61-1.74,1.17-1.35,1.6-5.21,9.52-6.92,5.62-.73-1.66,4.69-8.82,6.25-9.55,2.55-1.18,4.23.5,2.41,2.75Z"/>
  <path d="M381.47,733.48c-.81.95-6.11-.24-6.57-1.96,2-2.61,8.47-.27,6.57,1.96Z"/>
  <path d="M562.26,722.98c1.22,3.31-4.9,3.31-5.25,1.63-.45-2.16,4.16-1.67,5.25-1.63Z"/>
  <path d="M455.57,735.02c.11.04,1.64,1.61,1.49,1.75-4.47,4.13-7.91-3.92-1.49-1.75Z"/>
  <path d="M400.53,625.7l-.39,2.03c-12.73,4.38-26.09,6.95-39.48,8.4-26.42,2.87-66.36,3.08-91.5-5.63-1.56-.54-8.04-2.88-8.04-4.46.39-3,3.54,0,5.3.63,33.92,11.92,86.21,10.26,121.09,2.13,2.08-.48,11.94-4.18,13.02-3.09Z"/>
  <path d="M274.33,600.67l-.04-1.92c.67-.69,11.59,2.67,13.67,3.09,25.49,5.14,62.39,4.1,87.72-1.97,1.18-.28,12.4-4.71,12.34-2.11-13.83,6.44-31.11,8.42-46.34,9.52-22.47,1.63-45.78.08-67.35-6.61Z"/>
  <path d="M364.3,539.65c.07.05.7,1.51.69,1.59-.11.69-1.76,1.2-2.44,1.46-11.21,4.25-58.68,5.53-68.7.02-.71-.39-1.3-.83-1.79-1.49.8-.67,1.67-2.3,2.82-2.19,1.97.18,6.65,2.73,9.99,3.17,11.92,1.57,30.65,1.21,42.72,0,2.44-.24,15.94-3.06,16.7-2.56Z"/>
  <path d="M214.26,330.12c2.58,2.91,7.7,16.57,7.47,20.52-.56,9.46-13.62,12.52-20.58,8.86-1.11-.58-1.65-2.7-.06-3.2,3.5-1.1,13.89,3.67,16.3-3.41,2.6-7.65-5.14-15.39-7.42-22.11.51-2.73,2.77-2.36,4.29-.66Z"/>
  <path d="M182.71,324.86c4.87,4.54.75,16.38-6.86,13.1s-.74-20.18,6.86-13.1Z"/>
  <path d="M234.01,327.41c8.13-1.84,8.98,12.75,3,14.18-10.06,2.42-10.41-12.51-3-14.18Z"/>
  <path d="M184.57,364.75c2.81-.21,3.02,3,4.55,4.63,4.06,4.35,10.19,6.82,16.18,5.59,3.12-.64,7.29-5.43,9.16-3.34,2.38,2.67-4.78,5.64-6.94,6.22-7.4,1.98-16.95-.24-21.67-6.52-1.34-1.78-3.6-4.74-1.28-6.58Z"/>
  <path d="M176.84,305.1c2.58-.35,11.02-.74,11.36,2.82.38,3.92-6.23.73-9.48,1.02-1.64.15-4.07.99-5.66,1.59-1.86.7-6.2,4.32-7.61,2.33-2.73-3.86,8.86-7.41,11.39-7.75Z"/>
  <path d="M249.11,313.69c.67.92.79,1.56.28,2.64-4.07,2.84-5.48-2.75-9.46-4.31-2.44-.96-10.73-.56-9.67-4.11.63-2.09,8.71-.76,10.66-.17,2.88.87,6.46,3.54,8.19,5.94Z"/>
  <path d="M129.65,338.46l-2.51-.12c-1.81-3.98-1.7-7.59-7-7.82-1.99-.09-5.59,1.6-5.62-.94.26-1.94,2.65-2.63,4.39-2.71,6.51-.31,11.74,4.99,10.75,11.59Z"/>
  <path d="M583.96,362.13c1.22,1.45-4.42,3.56-5.24.97,2.13-2.67,2.4-2.43,5.24-.97Z"/>
  <path d="M562.26,350.94c-.39.41-3.7-.03-3.28-1.63.79-3.04,5.12-.3,3.28,1.63Z"/>
  <path d="M541.66,816.41c6.59-2.1,4.46,6.99-1.09,1.53-.16-.73.45-1.33,1.09-1.53Z"/>
  <path d="M270.47,792.55l-.11-2.52,3.26.36c18.47,12.49,38.26,23.22,56.92,35.12,2.19,1.39,7.67,4.15,3.83,5.83l-63.89-38.78Z"/>
  <path d="M163.19,209.63c1.75-1.67,5.13,2.4,1.63,3.28-1.62.4-2.03-2.9-1.63-3.28Z"/>
  <path d="M497.55,36.13c2.63-.81,3.92,1.93,1.89,2.55-2.63.81-3.92-1.93-1.89-2.55Z"/>
  <path d="M529.19,539.39c-.46.51-2.36,1.52-3.09,1.83-9.61,4.08-37.05,3.45-47.33.67-1.42-.38-6.34-1.9-5.91-3.93.48-2.28,4.62.39,5.9.66,12.03,2.58,29.46,3.35,41.47.68,1.69-.38,7.59-2.99,8.09-2.89,1.47.29,1.92,1.83.88,2.99Z"/>
  <path d="M491.09,179.88c-1.06.91-5.14,1.11-6.25,0-1.87-1.87-1.43-9.01,2.8-8.99,4.83.01,5.6,7.15,3.45,8.99Z"/>
  <path d="M450.36,167.71c2.78,2.39,1.23,9.29-2.76,9.06-7.54-.43-4.83-11.63,2.76-9.06Z"/>
  <path d="M482.05,162.29l.12-2.51c4.92-2.61,12.49-2.02,16.56,1.94,1.83,1.78,1.14,3.5-1.21,3.23-1.24-.15-1.77-1.42-2.81-1.84-4.96-2.04-7.54-1.12-12.67-.81Z"/>
  <path d="M447.7,154.57c2.27-.39,11.12-.28,9.99,3.39-2.59,3.57-4.29-.22-6.83-.3-2.19-.07-3.35,1.49-4.81,1.85-5.22,1.3-4.31-3.91,1.65-4.94Z"/>
  <path d="M248.23,530.19c.17.3,1.7-.13,1.08,1.5l-2.21.54c-2.83-3.78-4.87-7.75-8.29-11.4-1.2-1.29-5.1-2.74-3.31-4.59,2.65-1.77,8.45,6.15,9.74,8.02s1.93,4.03,2.99,5.93Z"/>
  <path d="M456.9,205.86c.71.6.69,2.27,2.58,3.67,5.28,3.91,11.71,3.18,17.26.37.35-.18,5.47-5.24,5.33-1.91-.15,3.87-7.51,6.94-11.03,7.38-1.28.16-2.47.3-3.77.19-3.27-.27-16.55-5.69-13.83-9.9.63-.95,2.96-.22,3.46.2Z"/>
  <path d="M143.47,404.85"/>
  <path d="M33.01,631.6c-.78-5.8,15.71-5.47,16.43-2.28.89,3.9-13.94,4.1-16.43,2.28Z" fill="#fff"/>
  <path d="M43.86,448.22c-.5-.12-1.37-1.15-.33-1.65,4.32-1.99,8.09-2.16,12.5-.32.36.48-.59,1.96-.98,1.96-2.75,0-9.03.53-11.18,0Z" fill="#fff"/>
  <path d="M160.56,799.87c-.98-4.93,12.67-3.62,13.15-1.63-.26,3.53-12.64,2.24-13.15,1.63Z" fill="#fff"/>
  <path d="M98.75,803.17c1.3,1.44-4.24,2.98-5.1,3.1-1.21.17-5.84.42-6.12-.88-1.07-4.98,8.4-3.9,11.22-2.22Z" fill="#fff"/>
  <path d="M403.82,537.61c-1.93-1.76,6.75-3.69,7.67-3.7,2.19-.02,4.76.97,6.12,2.72-3.85,2.94-9.39,1.42-13.79.98Z" fill="#fff"/>
  <path d="M303.88,419.31v1.31s-3.94,0-3.94,0c-.41-1.02,3.6-1.61,3.94-1.3Z" fill="#fff"/>
</svg>