<?xml version="1.0" encoding="UTF-8"?>
<svg id="Camada_1" xmlns="http://www.w3.org/2000/svg" version="1.1" viewBox="0 0 595.28 841.89">
  <!-- Generator: Adobe Illustrator 29.0.0, SVG Export Plug-In . SVG Version: 2.1.0 Build 186)  -->
  <path d="M.14,841.29V-.06h595v841.34H.14ZM434.39,3.89H4.08v76.25c7.71-6.14,14.49-13.37,22.41-19.33C82.66,18.48,159.74,8,228.61,11.77c49.16,2.69,100.19,13.04,141.88,40.23,8.03,5.24,15.18,11.65,23.17,16.93,15.6-.83,30.8-5.76,46.18-8.32,19.79-3.3,39.88-4.42,59.96-4.14.21-1.03-.12-1.51-.63-2.32-14.36-22.62-41.55-38.26-64.78-50.26ZM543.86,3.89h-102.56l27.27,15.79c7.62,5.99,15.15,11.91,21.8,19l34.09-24.28,19.4-10.51ZM590.54,3.89h-38.46c-2.57,0-24.81,12.54-28.55,14.84s-29.85,20.06-30.25,22.39c10.23,13.63,21.63,26.49,26.92,42.96.71.54,13.1-8.7,14.9-9.74,12.44-7.21,30.16-13.93,44.23-16.91,3.47-.74,7.64-.81,11.21-1.61V3.89ZM246.02,16.38c-24.32-2.59-48.78-3.46-73.14-.66l-20.87,30.24c11.06.03,22.16-1.45,33.2-1.6,8.52-.11,21.8,2.18,29.29.65,6.85-1.39,24.41-20.74,30.52-26.67.64-.62,1.25-.86,1-1.96ZM168.45,15.72c-12.52,1.15-25.24,2.42-37.61,4.79-10.75,2.06-24.24,5.06-34.72,8.01-8.69,2.45-5.66,3.71-8.34,10.04-.31.73-1.2.77-1.45,1.34-3.16,7.33-5.65,14.96-9.92,21.82,22.87-8.22,46.63-13.2,70.84-15.61,3.02-1.7,3.98-5.26,5.94-7.87,4.9-6.53,8.94-12.63,13.4-19.5.77-1.18,2.49-.79,1.87-3.03ZM220.39,45.95c13.49,1.52,26.93,3.34,40.24,6.12,7.68,1.6,19.68,6.45,27.08,5.64,8.96-.98,20.66-13.13,28.06-18.61,1.17-.87,8.23-4.32,7.84-5.95-15.33-6.21-32.18-10.54-48.51-13.29-4.29-.72-18.75-3.24-22.1-2.82-6.39.8-20.67,18.61-26.34,23.68-2.02,1.81-4.66,2.98-6.26,5.23ZM4.08,85.07v35.17c4.92-4.03,7.72-10,11.84-14.78,8.83-10.25,22.85-22.08,34.23-29.53,4.54-2.97,17.59-9.05,20.32-11.89.74-.76,4.84-6.69,5.47-7.74,2.27-3.85,5.02-10.06,6.69-14.28.72-1.81,2.92-7.32,2.99-8.85.07-1.37-.43-1.19-1.54-.88-2.61.73-7.34,3.14-10.1,4.36-26.57,11.76-49.47,27.85-69.9,48.43ZM290.73,61.07c19.67,5.71,35.85,17.27,52.17,29.03,1.82,1.31,1.38,3,4.72,3.23,5.68.38,20.62-10.19,26.01-13.46s10.57-6.02,15.71-9.25c-17.52-15.6-38.25-27.48-60.21-35.8-5.19-.19-24.43,18.28-30.56,21.93-2.36,1.41-4.7,1.84-6.9,2.96-.69.35-1.24-.34-.93,1.37ZM4.08,126.47v346.07h37.8c3.16-4.7,10.85-10.52,11.42-16.19.21-2.09.38-6.5-.58-8.28-.43-.8-1.9-1.21-2.65-2.12-5.12-6.2-6.76-10.55,2.3-13.55,11.7-3.88,46.17-5.46,56.94.33,3.87,2.08,4.91,4.3,3.19,8.51-1.42,3.47-5.86,3.87-6.86,7.6-2.67,9.91,3.69,17.21,11.2,22.37h83.83l-1.09,2.53c-6.96.71-14.73-.59-21.58.11-1.68.17-5.6.85-5.6,2.95v48.97h13.48c.2,0,1.21,1.34,1.63,1.64l-1.63.99-58.86.97c-3.71,8.07-8.09,15.15-12.87,22.63l-5.53,6.63h29.26c.2,0,1.23,1.34,1.64,1.65l-.98,1.63h-34.85c-2.47,0-10.23,3.31-13.88,3.87-7.08,1.09-15.7,1.04-22.76-.11-5.06-.82-9.72-3.3-14.65-3.75-7.35-.68-16.74-.07-24.34-.04-2.15,0-4.01,1.5-5.9-.62-.9-1.58,5.02-2.63,5.93-2.63h20.05l-8.56-10.36-9.84-18.25-25.65.34v108.45l74.28-19.39c-17.45-7.4-35.03-14.73-53.11-20.51-4.71-1.51-13.11-2.82-16.94-4.76-.95-.48-1.87-.61-1.6-2.01,1.47-1.22,21.64,4.71,24.84,5.73,17.51,5.58,34.5,13.65,51.81,19.85,7.82.12,15.37-2.67,23.03-3.8,14.07-2.09,28.3-3.57,42.55-3.92,1.52.69,1.45,1.79,0,2.41-19.72,1.66-39.42,3.68-58.73,8-.36,1.57.29,1.06.86,1.46,3.73,2.6,8.58,3.84,11.26,7.78,6.52,9.59.93,32.9,3.43,44.51l3.82,2.04c13.03-2.51,26.25-4.59,39.48-5.83,8-.75,16-1.88,23.99-.66,1.24-6.8-7.26-6.88-11.8-10.23-1.64-1.21-3.74-3.11-4.02-5.18-1-7.49.3-18.66.68-26.33.83-16.57,1.82-36.54,10.51-50.77,2.77-4.54-2.09-3.62-1.97-9.01.06-2.57,5.71-11.03,7.63-13.45,2.17-2.72,4.36-4.02,6.5-5.96,1.37-1.24,8.28-6.77,8.55-7.25.78-1.39.48-4.95,1.05-6.71,2.72-8.25,9.1-18.98,12.62-26.98,14.9-33.81,34.9-94.06,66.66-114.08,4.19-2.64,10.47-5.6,15.34-6.03v-1.97c-1.09.08-2.09-.1-3.1-.52-14.53-6.01-26.45-17.11-30.61-32.51-.93-3.47-3.68-17.94-3.1-20.42.12-.53,1.19-.19,1.35-1.4.78-5.93-.32-13.46,1.18-19.62-3.47-2.96-6.78-3.2-10.11-7.03-4.75-5.48-6.28-10.55-4.25-17.9.94-1.25,6.28-6.83,6.47-7.55.28-1.1-1.91-4.78-2.25-6.73-2.02-11.67,6.55-20.48,16.82-24.01,1.55-.53,4.91-.6,5.89-1.34.69-.52,1.69-4.08,2.51-5.37,3.93-6.22,11.54-9.71,18.88-9.44,2.52.09,9.78,2.73,10.37,2.57.63-.16,3.37-3.04,4.72-3.87,8.83-5.44,19.71-6.05,29.44-2.46,1.47.54,6.36,3.53,6.74,3.55.63.04,3.13-1.47,4.66-1.68,12.82-1.77,23.55,2.86,30.12,13.81.75,1.26.72,3.34,1.72,4.19,1.4,1.21,4.74.77,6.58,1.31,5.04,1.49,11.5,6.91,14.32,11.32,1.18,1.85,4.27,9.67,5.07,10.05,1.83.88,1.17-4.9-.39-5.54,2.21-21.66-2.75-48.75,0-69.76.16-1.21,1.23-.87,1.35-1.4,1.49-6.44-2.3-5.89-5.24-9.74-3.55-4.67-2.83-9.29-2.24-14.81-8.12-2.28-11.52-6.17-13.36-14.29-1.49-6.58-1.01-8.94-3.65-15.43-32.07-78.83-130.74-94.42-206.62-91.88-56.37,1.89-114.78,16.84-151.78,61.88-4.36,5.31-7.82,11.41-12.23,16.69ZM503.65,59.18c-16.43.93-33.03.66-49.45,2.63-19.33,2.32-38.42,7.61-57.61,10.76,10.12,9.21,17.29,20.12,23.89,32.01.55.99,1.51,1.21,1.94,2.02,3.46,6.48,5.04,14.18,8.35,20.54,18.73.83,37.4-2.34,56.21-1.67l1.38-.59c3.06-3.97,4.78-8.7,7.39-12.99,3.5-5.74,8.01-11.44,12.59-16.34,1.65-1.77,8.75-7.46,9.11-8.67.52-1.76-2.01-7.33-2.98-9.22-.39-.75-1.27-.89-1.49-1.32-2.98-5.82-5.63-11.75-9.33-17.18ZM590.54,59.1c-40.89,4.83-81.3,28.5-98.63,66.71,6.76,1.42,13.29,2.77,19.29,6.37,1.43.86,7.72,6.22,8.33,5.8,12.08-24.42,36.53-40.82,62.57-47.55,2.76-.71,6.23-.38,8.44-2.08v-29.25ZM398.13,79.25c-2.09-2.09-3.96-6.54-7.62-5.55-13.7,7.52-26.34,16.71-40.6,23.21-.31,1.4,3.04,2.98,3.94,3.93,7.72,8.18,17.64,22.18,22.54,32.05,1.08,2.17,1.97,5.27,2.5,7.66l47.92-11.8c.45-.52-.7-4.23-.97-5.23-4.09-14.81-16.85-33.42-27.7-44.28ZM590.54,91.97c-10.82,2.2-21.58,5.16-31.33,10.41-13.58,7.31-27.63,20.29-35.35,33.65-5.5,9.53-8.6,19.59-17.12,27.61-1.54,1.45-7.64,4.72-7.92,5.23-.73,1.36-.09,3.25-.49,4.77-1.48,5.71-6,10.31-10.37,13.96v110.75c3.65-3.3,5.22-8.22,7.78-12.27,4.43-7.01,10.27-14.77,16.54-20.27,3.07-2.7,6.66-4.72,9.8-7.33-.55-3.47-2.38-6.2-3.3-9.67-2.29-8.64-2.38-20.04-1.88-29,.25-4.51,2.82-15.92,1.61-19.37-.88-2.52-3.05-3.41-2.95-7.55.17-7.02,4.08-7.34,7.26-11.19.98-1.19,1.28-3.01,1.95-3.79,5.01-5.83,8.78-10.01,16.1-13,16.61-6.79,36.54-3.67,49.66,8.57v-81.51ZM513.18,148.71c.22-.35,1.22-.59,1.64-1.27.94-1.52,1.48-3.31,2.44-4.82.42-2.53-8.41-8.1-10.64-9.16-15.41-7.33-46.36-3.64-63.67-2.68-4.03.22-8.15-.22-12.19-.02.78,2.37.83,5.04,1.36,7.39.24,1.04.82,2.45,1.27,4.76.57,2.91,1.92,15.17,4.37,16,12.45.45,24.97-.51,37.36.77,7.63.78,15.95,1.84,22.23,6.48,5.85-3.41,9.19-7.2,13.09-12.58,1.17-1.61,1.71-3.3,2.71-4.87ZM428.14,131.41l-47.89,12.58c-.02,8.09,1.76,19.55,10.6,22.41,3.85,1.24,4.5-.58,7.58-1.28,11.48-2.63,23.24-4.77,34.98-5.45l-1.29-1.78-3.97-26.48ZM436.35,162.68c-10.65.63-23.32,1.96-33.6,4.79-5.86,1.61-9.84,2.62-8.64,10.11,2.05,12.82,18.85,5.9,27.8,5.1s18.24-1.27,26.92-1.35c12.39-.12,25.26.75,37.47,2.67,2.83-1.87,6.29-4.34,7.71-7.46,4.05-8.92-1.83-10.59-9.19-12.08-14.71-2.97-33.46-2.67-48.47-1.79ZM590.54,191.22v-13.47c-15.06-17.58-51.2-18.98-63.12,2.62,11.98-.19,23.04-.19,34.99,1.84,9.75,1.66,19.2,4.85,28.13,9.01ZM590.54,206.34v-11.5c-7.31-4.27-16.66-7.44-24.98-9.2-10.11-2.14-32.43-4.99-41.69-.92-4.11,1.81-6.61,8.02-3.93,11.71,2.41-.22,4.69-1.14,7.13-1.28,21.59-1.24,43.97,1.84,63.47,11.2ZM485.34,268.45v-78.88c0-2.96-6.69-4.01-8.89-4.26-14.97-1.73-36.16-1.2-51.26,0-4.05.32-18.99,1.78-21.88,3.1-1.86.85-2.02,5.59-2.16,7.7-1.13,17.86.01,36.81,0,54.56,0,6.69.06,13.39.02,20.08,25.57.45,51.03-1.9,76.62-1.34,1.94.04,6.72,1.92,7.53-.96ZM544.51,212.91c1.69,1.57-8.63,10.04-4.31,16.47,2.98,4.44,8.96,1.48,13.68,2.1,5.74.76,10.25,4.59,15.79,5.61,2.47-.51,5.9-7.15,6.92-9.55,2.13-5.01,5.07-15.64,4.07-20.87-.47-2.46-6.01-3.43-8.39-4.1-11.95-3.37-28.88-5.56-41.26-4.81-2.5.15-9.68.34-10.16,2.98.16,10.94-2.36,21.94,1.66,32.52.37.99,1.48,4.18,2.62,3.98,1.36-.24,6.99-5.24,8.67-6.5.57-.43,1.9-.57,2.08-.85.6-.94-.25-5,.13-6.66.11-.47,1.03-.51,1.23-.99.72-1.72,4.56-11.87,7.29-9.33ZM590.39,209.76l-6.43-2.76c-.37.41.33,6.58-.02,8.08-.11.47-1.12.42-1.25.96-1.72,7.15-3.7,15.82-8.31,21.81-4.85,6.3-15.93-3.18-21.83-3.78-2.44-.25-5.33,1.21-7.66,1.13-4.57-.16-5.84-3.23-11.35-.71-4.05,1.86-7.43,8.4-11.74,3.41-1.01-1.18-1.17-2.75-2.28-3.3-.97,28.38,23.34,41.41,48.44,30.36,12.04-5.3,17.02-21.52,19.08-33.5.63-3.67.37-8.08.99-11.5.59-3.2,4.03-5.94,2.34-10.2ZM590.53,236.57c-.05-2.07.09-4.17,0-6.25-.03-.8.5-2.44-.65-2.29.53,2.51-.92,5.22-.69,7.54.1,1,.59,1.98,1.34.99ZM394.82,284.36c-1.17-1.42.13-9.94-.36-13.12-1.09-7.01-6.91-14.03-13.07-17.17-3.13-1.59-9.34-2.09-11.07-3.39-1.39-1.04-3.01-7.84-5.97-10.47-6.37-5.66-14.21-7.78-22.65-6.92-1.93.2-5.09,1.73-5.93,1.72-.53,0-4.66-2.99-6.61-3.66-11.84-4.11-25.62-2.38-34.28,7.1-3.49-.7-5.94-2.94-9.74-3.2-8.45-.56-18.01,5.47-18.87,14.33-15.51.1-28.94,14.23-19.71,29.28-1.22,3.38-5.47,5.08-6.59,8.49-2.66,8.13,2.1,17.48,10.67,18.88.95-7.22,1.49-14.93,3.33-21.98.74-2.83,3.87-12.11,5.22-14.32,1.74-2.85,4.89,3.33,7.43,4.88,7.72,4.71,17.75,2.23,23.11-4.75,1.61-2.1,1.33-5.97,5.61-5.24,1.52,11.77,14.29,16.33,24.36,10.88,2.68-1.45,5.33-5.75,6.02-6.13,3.05-1.7,3.86,4.34,4.99,6.23,5.93,9.98,16.68,11.18,26.38,5.72,2.64-1.48,3.9-4.29,7.29-3.56.7,3.08-3.1,4.11-4.95,6.55-5.51,7.31-4.65,20.87,5.6,23.03-1.99,3.94-5.53,8.16-2.01,12.67,2.18,2.8,3.94-1.42,5.33-2.46,10.07-7.57,24.44-.94,26.09,11.31,2.28,16.89-12.12,30-28.66,26.55l-9.95,15.35c2.91,2.11,6.57,2.09,9.79.59,1.33-.62,3.4-3.16,4.5-3.45,2.95-.77,7.21,2.17,12.48.04,7.29-2.95,5.85-7.34,5.74-13.98,15.03-3.7,20.47-19.69,11.67-32.39,5.86-9.02,6.81-20.65,1.76-30.26-2.41-4.58-4.68-4.43-6.95-7.18ZM590.54,239.2c-2.83-.27-6,10.89-5.78,12.08,1.02,1.78,3.84,2.49,5.78,3.03v-15.12ZM590.54,323.99v-66.06c-1.83-1.08-6.75-3.55-8.55-2.65-.99.49-2.53,3.78-3.61,4.96-2.39,2.62-5.61,4.9-7.83,7.29-5.35,5.77-9.23,12.79-16.63,16.89-9.3,5.15-17.14.52-20.9-8.43-2.3-5.47-3.37-18.47-11.98-13.26-13.41,8.11-24.63,27.37-31.48,40.81-1.2,2.35-2.8,8.96-.95,10.94,1.38,1.48,16.62,6.07,17.76,4.9.8-5.47,1.14-11.14,2.16-16.58.54-2.88,3.48-16.58,4.62-18.07.28-.37,2.76-1.87,3.09-1.5.2,3.71-.91,7.37-1.87,10.92-2.18,8.13-4.37,16.69-5.28,25.63-.63,6.17-2.46,11.13,2.88,15.36,3.07,2.43,17.66,9.82,21.21,10.4,2.02.33,7.7-2.26,10.98-2.53,6.03-.5,12.96,2.19,17.66-.1,4.21-2.05,14.68-9.61,17.89-13,3.85-4.06,1.24-3.94.94-7.56-.68-8.29-.98-21.29-.64-29.6.04-1.01-.62-2.6.98-2.29,2.17,2.63,1.06,7.31,1.67,10.06.12.52,1.21.19,1.36,1.39.82,6.69.41,13.59.71,20.31.63,1.88,4.15,1.87,5.81,1.75ZM559.86,275.58c.67-.66,1.69-1,2.43-1.83.4-.45,3.73-4.16,1.62-4.29-9.99,3.86-20.24,2.76-29.92-1.33-.96,4.19,5.96,14.13,9.66,14.98,7.2,1.65,11.76-3.12,16.2-7.52ZM293.34,271.43l-1.35.39c-3.75,7.57-14.18,10.74-22.01,8.17-3.23-1.06-5.38-3.52-8.5-4.64-2.05,2.8-3.19,5.01-4.09,8.41-3.68,13.88-6.49,47.48-4.72,61.51,4.7,37.19,50.9,49.44,81.58,36.37,13.07-5.57,24.41-16.74,28.76-30.41,1.66-1.12,4.88.81,6.93,1.02,14.39,1.52,25.12-13.56,20.09-26.66-2.3-5.98-10.76-9.21-16.74-6.81-5.09,2.05-8.17,11.86-13.44,2.8-3.25-5.59.27-9.87-.18-11.67-.18-.73-2.08-1.43-2.85-2.4-2.42-3.1-2.56-4.57-3.71-8-.17-.52-1.13-.51-1.24-.98-.22-.95-.23-4.7,0-5.65.11-.47,1.09-.41,1.24-.96.37-1.37.4-3.29.71-4.75-11.44,3.72-22.11-1.01-26.97-11.83-4.29,2.01-7.35,5.04-12.31,5.75-9.51,1.37-16.27-1.57-21.23-9.68ZM401.19,365.4c13.02-.29,26.12.38,39.15.03,11.32-.3,25.62-.63,36.78-2.01,1.98-.24,6.53-.71,7.62-2.24l.62-84.19c-.12-3.65-2.54-4-5.57-4.29-21.86-2.05-48.36,1.03-71,.65-3.62-.06-7.31.3-10.88.69v9.2c0,.2,2.04.9,3.27,2.32,6.59,7.68,8.45,17.99,6.04,27.69-.59,2.35-3.06,6.81-3.21,8.54-.19,2.09,3.27,9.4,3.05,14.26-.29,6.26-5.85,13.77-5.85,14.56v14.79ZM487.97,319.06v24.98c8.21,9.2,18.41,17.78,30.9,20.05.24-3,1.94-7.91,4.26-9.88,2.64-2.23,12.88-2.31,7.14-6.45-6.79-4.9-17.62-5.44-23.59-13.89-3.3-4.67.19-7.08-1.58-11.57-4.54.56-11.93-4.2-15.64-4.12-.81.02-1.02.27-1.5.87ZM590.54,326.62c-4.4-.82-3.89.53-5.92,2.29-2.93,2.54-6.01,5.95-8.89,8.2-4.38,3.42-9.86,5.92-14.16,9.61,1.89,3.81,4.59,6.88,6.08,11,1,2.78,1.8,6.02,1.86,8.99l21.04-7.23v-32.86ZM539.26,381.17c2.28,3.48,25.12-9.8,27.11-14.62,1.44-3.48-1.43-9.68-3.34-12.76-5.15-8.3-14.38-9.64-23.28-6.63-2.27.77-4.84,1.9-5.1,4.43l7.24.67c1.31,1.28-3.19,6.81-4.28,7.88-2.18,2.14-12.24,8.7-13.05,10.71-.37.93-.28,1.79.18,2.66.22.3,3.28,1.72,3.58,1.67,1.19-.19,12.14-9.62,14.22-7.8-.45,4.49-10.3,6.72-11.08,9.64-.27,1-.03,1.79,1,2.11,4.4,1.38,9.5-6.08,13.58-7.33,2.37-.73,4.4.84,2.67,2.21-1.21.96-11.2,4.52-9.45,7.17ZM491.05,446.73c.79-1.72.58-11.22.88-13.95,2.64-23.96,6.02-47.86,9.89-71.64l-13.51-11.53-.31,83.2-1.23,30.72c.38,1.64,4.06,3.5,5.15,4.74,4.07,4.61,4.03,11.7,4.93,17.41l14.03-7.33-.18-17.03c-.73-1.01-13.25-2.6-15.65-3.42-3.36-1.14-2.98-2.16-4.04-4.85-.08-.21-.93-.26-1.04-.7-.22-.92-.22-4.08,0-5,.11-.47,1.01-.46,1.09-.63ZM397.9,353.58l-6.26,3.25c2.65,8.36-6.11,15.62-13.79,15.85-2.27.07-5.58-1.24-6.6-1.1-.54.07-3.19,2.56-4.47,3.15-7.42,3.39-11.53-1.59-13.65-1.13-2.76.6-6.11,6.03-5.86,8.9,14.18,2.53,28.81,6.4,40.69,14.88,2.69,1.92,4.91,4.67,7.3,6.5.66.5.83,1.28,1.97.98l.66-51.26ZM537.28,354.89c-6.27-.35-13.28-.12-14.83,7.19-.42,1.97-.98,5,1.87,4.55,1.42-.23,10.2-8.54,12.12-10.23.45-.39,1.26.03.84-1.5ZM590.54,362.77c-5.78,2.67-11.85,4.73-17.88,6.77-8.79,2.98-10.7,6.68-18.35,10.57-8.56,4.36-13.89,4.75-22.91,1.36-3.39-4-13.93-5.86-9.25-12.46l-16.41-6.24c-.86.62-2.07,12.66-2.67,14.64-4.03,13.22-5.56,31.65-7.1,46.25-.71,6.76-1.88,14.95-2.1,21.57-.35,10.69,1.24,10.03,11.07,12,21.49,4.3,43.77,3.77,65.53,2.8,6.71-.3,13.45.17,20.08-1.29v-95.97ZM421,468.51c1.17,1.9,25.96,1.53,29.86,1.37,6.79-.28,25.42-1.4,30.91-3.87,2.64-1.19,2.71-3.57,2.94-6.26.97-11.49-.23-25.06-.05-36.86.26-17.29,2.37-38.9.72-55.88-.07-.72,0-1.5-.67-1.98-27.55,4.12-55.66,2.98-83.52,2.34l-.64,40.38c5.27,9.29,10.71,17.27,13.97,27.48,3.41,10.7,5.58,22.07,6.48,33.29ZM343.98,381.18c-14.29,7.18-29.39,9.47-45.36,8.54-.61,6.19-1.6,10.55,4.38,14.36,8.2,5.22,18.6,3.44,27.15.41,2.17-.77,10.71-4.5,11.8-5.95.4-.53,4.65-11.83,4.68-12.5.04-1.08-3.47-2.41-2.65-4.86ZM358.42,387.78c-2.8-.4-6.69-1.94-8.82.65-1.67,2.02-4.26,9.78-5.12,12.62-5.65,18.61-8.36,40.08-9.06,59.96-.61,17.16.51,34.46.02,51.63,1.86-.36,7.79.96,8.46-1.08.84-28.86-1.87-58,2.8-86.59,1.29-7.92,3.84-14.9,6.43-21.96.75-2.04,5.81-14.61,5.29-15.22ZM295.34,389.07c-1.52.11-3.37-.31-4.81.12-2.09.63-4.18,10.56-4.75,13-5.08,21.9-7.23,45.05-8.22,68.03-.55,12.66,0,25.48-.64,38.16.51,2.67,6.68,2.07,8.87,2.96.65-15.02.33-30.07.97-45.06.91-21.44,2.32-53.66,7.28-74.12.1-.4,2.21-.86,1.3-3.08ZM364.11,407.89c.66-2.25,5.06-15.62,4.81-16.44-.51-1.68-6.07-2.36-7.52-1.08s-5.36,12.2-6.26,14.77c-9.42,26.97-10.6,72.17-8.55,101.27.13,1.87.86,3.65.69,5.56,3.75-.49,7.2-2.2,7.84-6.29,1.61-10.22-.39-26.33.02-37.45.74-20.32,3.42-41.36,8.98-60.35ZM283.27,400.69c.89-3.35,1.44-6.92,2.2-10.31-1.82.98-5.95,1.5-7.44,2.58-1.15.83-2.44,7.28-2.87,9.13-3.1,13.36-5.6,27.38-6.78,41.21-1.78,20.92-1.2,41.99-1.34,62.98l6.22,2.35c1.05-.42.97-1.29,1.07-2.2.89-8.16-.34-18.49-.06-27.01.87-25.86,2.54-54.31,9-78.73ZM367.66,439.35v24.98c8.24,5.66,23.31,5.91,33.03,4.1,2.91-.54,14.14-4.42,15.85-6.34,1.43-1.59-1.68-15.05-2.39-17.95-4.87-19.84-17.68-40.33-36.84-49.28-.91-.43-5.09-2.26-5.68-1.84-1.04,3.61-2.37,7.12-3.4,10.74-6.54,22.96-9.7,46.81-10.46,71.05-.28,8.86.26,17.79.03,26.65,7.69-8.3,3.94-21.32,5.2-31.26.16-1.25,1.26-.64,1.42-1.88.58-4.55-.34-27.65,1.93-29.95.41-.02,1.25.76,1.31.99ZM273.64,396.3c-2.02-.4-3.06.75-4.54,1.7-13.45,8.69-25.47,27.2-32.91,40.89-.5.92-3.26,7.15-3.32,7.76-.46,4.93,10.26,11.76,14.47,13.07,1.13.35,6.75,1.46,7.23.99.49-9.36,1.28-18.87,3.88-27.88l2.03-.39c-.17,1.59.25,3.46.05,4.98-.16,1.2-1.21.84-1.35,1.4-1.78,7.43-1.32,16.62-2.64,24.2.61,11.7-2.09,25.32-.7,36.84.43,3.54,5.36,3.14,7.6,5.53,1.96-1.66.34-4.41.29-6.85-.51-26.26.95-72.18,8.53-96.17.59-1.86.51-4.21,1.37-6.06ZM296.66,402.87c-.62,5.72-3.7,8.28,2.27,11.85,6.86,4.1,15.08,4.67,22.95,3.84,3.07-.32,15.16-3.38,16.36-5.99.21-.45,1.86-7.64,1.8-8.05-.06-.38-.68-.88-1.34-.72-4.01.97-8.77,4.38-13.65,5.44-10.03,2.18-20.79,1.05-28.4-6.38ZM337.41,417.33c-11.55,3.75-22.37,7.04-34.36,2.48-3.24-1.23-5.69-3.63-9.02-4.45l-3.25,35.46c13.78,2.34,28.37,4.34,42.06,1.04l4.58-34.52ZM110.47,437.14c-4.74-3.06-10.35-4.35-15.96-4.73-11.97-.8-27.22-.7-38.49,2.99,15.38,3.93,32.67,2.8,48.24.38,1.53.41.78,2.29-.4,2.8-2.21.95-12.42,2.21-15.31,2.4-5.69.38-14.04.42-19.7,0-6.63-.49-12.92-2.83-19.4-3.94-1.4,5.84,5.86,9.09,10.49,10.22,2.69.66,6.58.42,9.08,1.44.79.32,1.64.81.81,1.48l-13.8-.65c2.85,11.34-6.68,18.67-13.46,26.31-6.02,6.78-8.89,8.93-11.87,18.37-.65,2.05-1.94,6.33-2.27,7.7-1.1,4.58,1.14,15.03,2.4,19.8,4.58,17.28,15.24,36.51,34.28,40,17.95,3.29,39.04,1.65,49.56-15.11,10.72-17.07,19.45-46.71,7.11-65.02-6.11-9.06-17.6-13.1-19-25.23-.65-5.65-.01-8.56,3.23-13.06.99-1.38,5.39-4.67,4.47-6.16ZM236.35,471.05c3.12,3.21,6.56-.28,9.04.44s4.66,4.46,6.89,5.64c1.88-.1,1.85-11.01,1.55-12.71-.39-1.15-6.15-1.87-7.98-2.54-5.96-2.17-11-6.13-14.93-11.02l-5.26,13.8c8.26-3.48,7.71,3.33,10.69,6.39ZM332.81,455.45c-13.96-.07-27.94.74-41.68-2.02-1.36.36-1.05,8.94-1.05,10.56,6.06-2.09,8.73.18,11.58,5.22,3.18-.67,6.38-5,9.79-5.26,5.74-.43,8.5,6.31,10.52,6.65,3.08.52,2.68-2.3,4.87-3.04,1.85-.62,4.04-.17,5.96-.29v-11.83ZM539.25,464l-24.98-2.63v17.09c4.9-.94,20.54,8.18,23.67,6.25.29-.18,1.32-1.8,1.32-1.98v-18.73ZM590.54,462.03h-5.26v27.28c0,3.39,3.9,10.92,4.43,15.28.46,3.74.47,6.45-2.11,9.38-6.61,7.51-40.44,10.46-48.58,5.15-3.04-1.98-3.78-5.25-4.74-8.5-12.25,2.72-25.48,4.83-37.99,3.24-6.65-.84-10.76-1.56-14.51-7.61-15.89,4.24-32.29,4.99-48.71,4.44-2.98-.1-6.24-1.33-9.44-.61-.76,2.53-.69,5.47-1.45,7.95-2.19,7.11-7.28,18.63-11.77,24.99-1.5,2.13-7.78,8.05-8.43,10.18-.44,1.46.67,8.28.53,11.02-.23,4.56-1.66,9.64-2.29,14.18.59,1.3,4.72,2.51,6.22,2.94,12.69,3.64,26.13,5.17,38.95,8.39,7.28,1.83,20.73,4.75,24.3,11.85,1.25,2.49,2.52,7.97,2.52,10.64v10.85c14.13.7,28.33,1.86,42.32,4.03,8.58,1.33,25.09,6.53,32.3,6.53,5.25,0,21.72-5.17,28.45-6.44,5.02-.95,10.2-1.56,15.27-2.15v-163.01ZM557.66,464v22.35h9.53c.32,0,5.25,1.55,6.04,1.85,3.39,1.3,6.22,3.73,9.4,5.38l-1.31-30.9-23.67,1.32ZM555.03,487v-22.02l-.99-.99h-12.16c.02,10.28-.68,20.23,1.98,30.24l11.17-7.23ZM418.93,479.77c.18-1.91-.13-15.01-1.63-15.1-14.56,8.85-34,9.76-49.64,3.27l-.57,11.08c2.19.89,4.38.65,6.64,1.58,3.91,1.6,3.21,5.35,9.09,4.14,3.02-.62,7.36-3.88,10.15-3.71,3.41.21,4.63,4.59,9.15,3.99,3.94-.52,10.15-9.31,16.82-5.25ZM332.72,486.25l-.25-14.45c-2.75-5.28-6.18,1.57-9.83,1.45-4.45-.15-6.94-6.31-9.27-6.64-3.25-.46-4.18,2.25-6.28,3.55-9.03,5.61-7.77-2.6-11.72-3.92-8.57-2.86-5.43,12.83-5.88,17.4,12.39,3.58,26.85,4.32,39.74,3.38,1.21-.09,2.4-.21,3.49-.78ZM253.17,479.86c-1.44-.7-3.43-.61-4.77-1.47s-1.91-3.34-3.51-3.78c-2.42-.66-4.57,2.92-9.34-.47-2.18-1.54-3.71-6.94-5.08-7.42-3.89-1.36-12.5,3.55-6.46,8.44,7.48,6.07,19.59,10.61,29.26,9.87l-.09-5.17ZM491.04,472.09c-.45-.69-4.58-4.47-5.37-4.54-19.94,6.77-42.63,5.92-63.44,4.34l1.6,34.22c2.09,2.97,50.99.99,57.55-3.02,2.07-3.18,2.63-6.01,5.3-9.16,1.53-1.81,6.67-5.35,7.07-6.73.93-3.17-.85-12.28-2.71-15.11ZM128.67,526.44h36.16c3.52,0,4.6-1.75,4.93-4.93.97-9.46,1.11-33.43.01-42.73-.75-6.32-6.79-4.22-10.83-4.23-12.83-.03-25.67-.05-38.49-.03-.13.98-.08,1.23.48,1.99,1.37,1.85,3.32,3.27,4.67,5.68,6.8,12.18,5.43,29.62,2.2,42.75l.88,1.5ZM37.61,475.17H4.08v51.93c4.59,1.23,8.48.16,12.79-.03,1.97-.09,9.76.59,10.59-.59.63-4.21-1.38-8.49-1.71-12.84-.58-7.75-.31-18.61,4.15-24.85l7.71-13.63ZM249.13,524.95c.31-.49,4-10.14,4.09-10.7.39-2.47.43-24.86-.26-25.96l-.74-.52c-12.68,1.74-22.01-5.95-32.48-11.28l-19.08,42.72c4.21.96,7.85,3.4,11.98,4.79,8.37,2.84,17.5,3.48,25.29,8.21.68.01,10.8-6.62,11.2-7.27ZM413.52,481.87c-4.14.62-8.42,6.38-11.98,6.47-4.37.11-6.71-3.89-9.23-4.03-2.38-.13-5.45,2.73-8.04,3.2-3.37.62-6.48.39-9.33-1.53-1.5-1.01-6.87-7.15-8.46-1.8-1.9,6.4,3.16,8.02,8.25,9.23,13.7,3.27,31.65,1.76,44.56-3.75,1.45-4.9-.27-8.61-5.77-7.79ZM521.51,503.43c8.69-1.26,24.79-2.27,18.09-15.13-1.13-1.14-5.42-.48-7.62-.93-3.37-.69-8.22-3.62-11.83-4.61-6.62-1.82-10.55-1.27-16.4,2.28l12.26,6.13c3.04,3.48,5.23,7.49,5.5,12.25ZM332.81,489.63c-14.54,1.95-29.1.12-43.39-2.63.48,3.48-.54,6.81-.69,10.16-.13,2.78-.79,14.5,1.78,15.37,13.57.97,27.05,1.9,40.65.77l1.64-.98v-22.68ZM518.88,504.09c-.31-6.34-4.73-11.17-10.28-13.72-6.94-3.19-9.87-2.67-15.97,1.62-3.5,2.47-9.67,8.03-3.36,10.78-.2-2.29,4.87-8.32,6.9-7.89,1.11.24.78.96.46,1.74-.45,1.08-4.42,6.3-4.06,6.79l4.17.71c1.89-4.44,3.26-8.57,8.97-8.59-.08,4.12-5.8,4.41-5.25,9.2l18.41-.66ZM573.45,509.35c.47.4,10.23-3.99,10.83-4.61,1.59-1.62,1.33-5.3-.35-6.86-1.16-1.08-9.03-5.74-10.68-6.41-6.09-2.5-16.68-4.62-21.5,1.13-.28,1.56.71.83,1.65.95,9.85,1.29,18.58,5.13,20.04,15.8ZM420.25,492.92c-17.72,6.24-36.81,7.46-54.56.65-.13,1.4-.49,3.2-1.14,4.43-1.93,3.7-5.72,9.88-8.19,13.53-1.54,2.28-11.93,14.18-11.71,15.19,15.27,8.7,36.67,15.98,40.76,35.21.52.05.99.02,1.5-.13,1.44-.42,11-8.83,12.56-10.46,4.33-4.53,11.49-14.41,14.11-20.07,5.59-12.11,7.22-25.09,6.67-38.35ZM557.66,503.44c.41.38-2.37,5.77-2.74,6.8-.25.67-.93.64.1,1.43,1.72.94,14.66-.63,15.09-2.07.49-10.19-15.49-14.98-23.15-13.26-5.33,1.2-11.47,12.33-3.79,13.63,1.06-3.04,2.8-7.79,6.61-7.85-.83,3.09-3.63,4.38-3.82,8.24,8.07,5.8,5.51-6.5,11.71-6.92ZM537.28,503.44c-6.45,1.21-12.76,3.5-19.37,3.96-7.02.49-14.62-.41-21.71-.03l-11.52-2.95c.57,2.36,2.81,4.69,5.1,5.42,7.96,2.52,37.44,1.88,44.19-2.82l3.31-3.59ZM348.59,514.61c-30.87,3.69-64.04,4.14-92.69-9.2.49,4.22-1.69,8.32,2.4,11.07,14.18,9.53,47.49,11.43,64.36,10.65,4.54-.21,15.27-.78,18.67-3.03,1.38-.91,8.35-8.36,7.27-9.48ZM587.24,506.73c-4.58,2.07-9.01,4.83-13.94,6.11-10.29,2.66-25.4,3.24-35.05-1.5-.93,1.42.18,3.54,1.31,4.61,6.53,6.14,31.42,2.39,39.58-.54,3.81-1.37,8.78-3.89,8.09-8.67ZM335.44,529.07c-24.83,1.1-54.5,2.12-77.38-9.07-1.86-.91-2.48-3.45-4-.97-2.87,4.67-1.85,7.16,2.69,9.51,16.25,8.38,46.4,13.15,64.57,11.73,5.74-.45,3.47-1.68,6.23-4.29.71-.67,9-5.92,7.88-6.9ZM234.19,533.68l-34.45-11.76c-.81.19-4.95,10.02-5.02,11.41s.02.86.99,1c2.17.32,4.82-.22,7.17.08,6.86.86,14.16,3.21,19.91,7.03,1.03.07,9-4.88,10.31-5.91.73-.57,1.36-.65,1.09-1.85ZM227.63,550.11c.57.5,9.34-5.12,10.73-6.03,4.41-2.9,9.56-6.2,13.8-9.21.84-.6,3.97-2.54,3.74-3.48-1.48-1.16-4.12-2.96-5.94-2.7-1.68.24-12.74,7.29-14.93,8.78-1.17.79-8.13,5.63-8.39,6.08-1.29,2.26,1.04,4.28.99,6.57ZM375.97,549.67c-4.94-5.15-16.17-12.13-22.86-15.59-1.98-1.03-8.74-4.5-10.42-4.75-3.8-.55-8.6,6.84-11.85,8.62-.23,1.29.2.8.82,1.12,4.85,2.43,10.09,4.19,14.87,6.84,6.76,3.75,14.29,9.62,19.49,15.35,1.59,1.75,5.95,10.33,7.2,10.36l10.07-7.46c-.96-5.08-3.76-10.78-7.32-14.49ZM267.06,536.95c1.08-1.52-6.58-4.38-7.84-3.61l-30.93,21.05c-1.31,7.71-10.3,17.7-18.78,15.39l-1.02.46c-6.59,11.2-11.15,22.44-13.01,35.48-2.11,14.86-2.97,34.06-3.39,49.19-.06,2.2-.4,11.63.67,12.53.72.6,7.45,2.08,7.9,1.63l.61-33.9c2.68-7.77,2.18-18.05,3.52-26.73,5.12-33.25,16.44-40.1,42.25-58.33,6.49-4.58,13.4-8.8,20.03-13.18ZM196.06,536.96c-1.62-.18-3.46-.04-3.28,1.96l3.28-.66v-1.3ZM234.62,574.2c11.72-11.12,25.41-18.25,38.02-28.05,4.76-3.69,10.32-7.35.35-8.92-3.99-.63-8.14,4.53-11.54,6.94-21.93,15.52-45.73,26.29-51.92,54.57-4.1,18.72-4.31,37.81-4.9,56.89-.14,4.66-1.38,9.8-.59,14.67l10.42,2.72c.02-1.24.55-2.39.66-3.62,2.63-30.54-4.68-72.25,19.5-95.2ZM211.18,566.54c10.17.53,16.98-13.31,10.52-21.36-3.76-4.69-16.26-8.97-21.73-6.6-8.43,3.65-23.61,16.01-27.7,24.23-1.46,2.93-3.6,8.2.77,9.65.6-3.84,8.71-16.52,12.16-17.1,1.58-.27,1.11,1.1.65,1.97-2.35,4.43-7.73,9.58-9.9,14.48-1.13,4.55,5.44,3.49,8.16,2.51.88-7.62,5.52-13.86,10.98-18.93,1.6-.66.92,1.87.62,2.59-2.24,5.34-10.92,10.27-8.12,17.72l6.18-1.91,16.57-18.28,2.16-.13-1.31,11.17ZM319,542.88c-11.77.32-23.51.24-35.02-2.53-1.68.3-7.75,6.52-9.74,8.06-1.38,1.06-2.89,1.47-4.21,2.36-.45.3-3.69,2.54-2.97,3.27,4.08,2.86,8.65-.43,12,.12,2.45.41,4.93,3.21,7.06,4.16,7.89,3.53,12.62-4.11,18.51-7.8,3.65-2.29,8.78-4.69,12.82-6.27.94-.37,1.92.63,1.55-1.37ZM318.12,576.84c2.63-3.86,3.99-7.68,8.46-10.3.81-.47,1.38-.86,1.63.33.4,1.95-3.43,4.4-4.59,5.92-2.03,2.66-8.76,13.8-.64,11.2,1.4-.45,7.03-7.18,9.61-8.8,8.22-5.18,22.71-3.46,28.4-13.46-.53-3.52-14.75-12.73-18.29-14.61-1.75-.93-9.04-4.39-10.53-4.64-1.68-.28-3.05.23-4.6.75-6.98,2.31-24.49,10.87-28.93,16.43-1.23,1.54-5.32,7.89-5.63,9.48s-.54,3.22-.21,4.88l3.19,1.73c1.47-4.5,3.73-9.6,6.91-13.16,1.28-1.44,9.32-8.7,10.85-7.22.24,1.34-.15,1.74-.97,2.64-2.04,2.21-5.74,4.64-7.83,7.29-1.77,2.24-7.04,10.73-6.25,13.29l5.22,2.15c2.85-4.83,5.36-10.78,9.2-15.16,1.87-2.13,3.91-4.49,6.87-4.96,1.23,3.3-2.71,4.42-4.29,6.22-1.7,1.94-9.1,13.93-6.82,15.55,6.87,2.25,5.21-.69,7.61-4.27.45-.67,1.4-.91,1.65-1.27ZM292.71,561.94c-2.22-.04-4.39.22-6.59-.32-2.57-.63-5.1-3.75-7.04-4.17-2.45-.53-5.46.88-8.41.55-2.5-.28-4.01-2.23-6.49-1.98-3.56.36-11.69,7.51-15.21,9.8-.52.34-1.35-.36-.96,1.36,5.4,1.3,10.64,3.12,16.19,3.86,4.33.58,19.2,1.71,22.32-.52.43-.31,6.62-8.27,6.2-8.59ZM399,569.64c.43-2.16,2.3-13.02-.78-13-7.37,5.5-20.78,19.46-30.25,19.13-5.38-.19-7.3-3.13-11.72-5.16-5.72,3.59-15.73,3.38-21.28,6.3-3.94,2.07-7.63,9.44-12.5,10.52-5.2,1.15-7.69-3.93-12.68-1.5-2.99,1.45-5.92,14.54-6.38,17.93-1.39,10.13-1.85,20.86-1.22,31.08,14.63,3.43,30.51-.05,44.44-4.96,1.37-1.45-.02-3.38-.05-5.25-.02-1.36.06-22.47,3.31-20.07,1.19,2.68.3,4.76.06,7.47.33.66.64,1.03,1.46.98,1.96-.12,11.98-4.74,14.51-5.91,14.35-6.68,26.19-14.3,31-30.14.53-1.76,1.91-6.51,2.09-7.41ZM202.38,575.5c1.88-3.52,5.47-7.93,5.19-11.58-5.35,4.57-12.01,15.59-19.72,15.16-1.65-.09-2.71-1.25-3.98-1.34-2.12-.15-4.99,1.19-7.85.62-1.73-.34-2.28-2.48-4.25-1.93-2.49,6.12-5.27,11.38-6.82,17.84-.79,3.31-3.49,15.66-1.8,18.01,2.51,3.5,26.42,11.97,28.3,10.13,1.69-15.43,2.49-31.76,9.69-45.83.36-.69,1.15-.87,1.25-1.07ZM369.63,573.1l-4.61-7.59c-1.99-.98-4.12,1.38-5.23,2.72-.37,1.68,8.85,5.61,9.84,4.87ZM283.5,574.43c-13.1.72-26.08-1.15-38.49-5.23-1.48.53-13.16,10.28-12.13,11.14,5.27-1.74,9.4-.52,10.53,5.26,4.61-1.44,7.18-5.99,12.51-3.63,1.92.85,5.4,6.21,6.86,6.25,5.02-3.46,8.48-4.99,14.85-3.62l5.87-10.17ZM277.91,681.56c3.13.41,6.97-.3,10.19,0-1.18-21.31-2.98-43.38-1.96-64.74.34-7.1,1.3-15.91,2.82-22.82.61-2.78,5.25-14.46,5.12-15.25-.07-.44-6.24-3.06-4.66-6.96-5.61,6.7-9.64,14.94-11.65,23.52-1.74,7.46-2.52,17.08-2.84,24.77-.83,20.11.6,40.37.65,60.42.08.3,2.01,1.03,2.34,1.07ZM301.91,681.56c-1.08-14.33-1.56-28.69-1.98-43.05s-1.19-26.01,1.52-39.91c.59-3.04,4.05-12.25,3.78-13.98-.41-2.62-5.98-.75-8.2-2.96-1.83,3.57-3.73,6.42-4.78,10.36-4.72,17.73-3.09,37.49-3.51,55.7l2,33.82h11.18ZM240.9,588.08c-1.58-2.23.95-6.53-5.56-5.62-7.26,1.02-7.22,4.22-9.71,9.89-.16.36-1.04.45-1.26.98-.54,1.31-2.01,7.97-1.32,8.67,4.48.85,8.62,2.71,13.09,3.67,12.38,2.65,24.99,2.75,37.49.96.16-2.93.29-6.51.83-9.36,1.12-5.91,6.14-12.58-4.3-10.22-3.03.68-4.4,4.34-8.63,3.79-5.33-.69-4.24-8.85-11.83-5.83-1.94.77-6.9,5.76-8.8,3.07ZM376.2,628.65v101.22c1.1,1.49,3.08,1.11,4.64.69,21.56-7.21,43.63-13.1,65.19-20.27,7.58-2.52,23.54-6.15,24.79-15.32,1.56-11.49-.48-24.54-.63-36.07-.21-15.97,1.17-34.9-1.46-50.49-.21-1.26-3.32-7.4-4.16-8.3-4.6-4.9-13.21-5.3-19.17-7.78l-46.21-9.75c-2.19.6-3.02,4.38-4.3,6.24-7.56,11.05-17.14,16.09-28.97,21.65-3.56,1.68-12.39,4.19-14.97,6.06-1.21.88-1.61,2.76-.66,3.96,3.79.85,7.48,2.29,11.3,3.03,16.13,3.11,34.85-3.28,50.78-7.37,12.4-3.19,28.43-9.59,40.59-11.34,1.59-.23,3.17-.23,4.77-.17l-.02,1.95-81.51,22.04ZM272.98,609.26c-17.51,3.45-34.42-.01-51.28-4.6.18,4.93-3.33,15.67-1.87,19.95.48,1.42,12.23,4.76,14.46,5.26,11.5,2.61,26.89,4.56,38.06,1.3l.63-21.91ZM161.22,615.18v10.52c5.44-.07,8.89,10.23,12.81,10.57,4.34.38,10.86-5.12,15.13-.07,1.71,0,.67-6.67,1-8.09.07-.28,2.27-.91,1.29-2.4-.45-.69-13.33-2.97-16.11-3.96-4.96-1.76-9.36-4.9-14.13-6.58ZM4.08,705.23c22.27-10.08,45.8-17.3,69.67-22.7,6.92-1.56,14.26-2.38,21.08-3.9,5.09-1.13,7.2-1.31,7.87-7.25.87-7.72.62-23.63.03-31.58-.81-10.89-10.11-14.73-19.42-17.44-26.77,5.18-53.56,10.92-79.23,20.1v62.77ZM372.84,628.39l-22.94-4.02.34,51.28c-10.03,5.93-21.74,7.37-33.14,8.61.1,2.34-.41,5.29-.13,7.53.16,1.25,1.26.64,1.42,1.89.5,3.96-.4,8.9.03,13.11.19,1.86,3.63,15.72,4.3,16.24,13.09,2.31,27.58,7.41,40.75,8.41,2.15.16,8.14.8,9.12-1.23l.25-101.81ZM539.91,634.9c-22.16-4.35-44.5-7.69-67.09-8.94l1.27,54.56,35.78,6.36c2.02-1.34.94-19.16,1.09-22.76.14-3.39.39-7.79.7-11.14.53-5.78,1.61-6.57,6.36-9.41,6.79-4.05,13.52-4.62,20.29-7.32.68-.27,1.52-.45,1.61-1.35ZM590.54,648.04v-20.38l-37.48,7.57,37.48,12.81ZM272.33,634.9c-17.49,1.8-35.44-.14-51.89-6.32l-1.36.73v10.85c0,.09,1.15.06,1.64.63,1.46,1.68,3.02,5.6,5.36,5.8,2.07.18,5.95-4.27,10.33-3.72,6.42.8,7.35,7,10.76,7.7,4.81.98,8.03-6.72,15.99-2.88,3.61,1.74,4.1,6.02,9.17,3v-15.78ZM168.2,635.14c-2.35-2.55-3.84-6.22-7.64-6.16.39,2.47-.71,7.11.32,9.21,1.09,2.21,13.89,9.14,16.78,10.17,7.71,2.73,13.81,5.13,12.49-5.92-1.06-8.89-11.7-3.1-16.7-3.64-3.37-.37-3.46-1.71-5.26-3.66ZM347.28,633.58c-14.7,3.63-29.46,7.14-44.71,4.6v10.85c0,.07.96,1.31,1.29.66,3.22-2.45,6.59-2.12,9.84.04,2.52,1.68,2,3.45,6.31,2.96,2.85-.33,6-5.24,10.79-5.67,4.15-.37,7.11,3.51,11.9,2.04,1.44-.45,2.7-2.4,4.57-2.33v-13.15ZM590.54,651.33c-9.61-2.81-18.85-7.12-28.4-10.06-5.83-1.79-13.11-4.39-19.1-3.57-4.84.66-22.95,6.78-25.85,10.31-2.06,2.51-2.77,14.27-2.95,18.08-.26,5.55-.54,14.42.03,19.76.11,1.03.17,2.31,1.11,2.99,25.45,7.83,50.99,15.72,75.16,26.9v-64.42ZM160.56,642.13v13.47c7.72,6.13,17.99,7.99,27.31,10.69,1.76-.35,1.8-10.49,1.54-12.27-10.7-1.21-20.18-5.81-28.86-11.9ZM218.41,644.1v10.85c16.22,7.52,36.27,9.06,53.93,6.53v-7.52c-1.91-.2-4.33.4-6.13-.13-1.12-.33-2.04-2.05-3.14-2.78-7.28-4.87-9.67,3.32-16.68,2.22-4.09-.64-4.83-5.84-8.22-6.9-6.03-1.88-9.12,3.76-13.48,3-2.8-.48-3.64-4.78-6.28-5.27ZM347.93,650.02c-2.85-.2-4.79,2.63-7.55,2.65-3.71.03-5.42-3.29-10.37-2.5-5.87.94-7.16,8.23-14.66,4.47-3.54-1.78-3.12-4.92-8.23-3.69-5.64,1.36-3.68,6.63-3.81,11.13.47,1.38,7.68,2.28,9.42,2.41,8.93.65,20.86-.5,29.27-3.65,6.94-2.6,6.2-3.31,5.93-10.83ZM217.76,659.54v14.13c17.84,4.86,36.71,6.8,55.23,7.23v-14.79c0-.13-.8-2.33-1.03-2.34-13.05,2.74-26.91,1.25-39.86-1.47-3-.63-10.52-3.69-12.84-3.64-.81.02-1.02.27-1.5.87ZM347.93,674.33v-13.15c-13.89,6.26-29.13,7.4-44.05,4.6.02,2.25.32,15.46,1.75,15.8,14.45-.86,28.77-1.62,42.3-7.26ZM176.75,666.5c-1.05.42-1.11,1.25-1.1,2.21.03,3.63,1.17,8.78,1.34,12.53.23,5.14-.4,10.36.29,15.48,15.69,1.77,27.96,12.31,33.89,26.63,16.61-4.51,8.83-12.97,6.77-23.9-1.45-7.67.05-15.08-1.81-22.51l-39.38-10.45ZM4.08,708.51v128.83h448.06c1.37,0,21.03-9.8,24.86-11.3,11.39-4.46,23.14-7.89,34.64-12.04-15.48-6.83-31.79-12-48.26-16.03l-.05-2.71c18.74,4.11,36.66,11.03,54.55,17.79,21.01-5.52,41.99-11.7,63.45-15.14l-1.35,2.25-57.81,14.18c-.27,1.68.15,1.02.92,1.37,12.92,5.82,26.2,10.6,38.97,16.91,1.54.76,6.69,4.72,7.12,4.72h21.37v-118.31c-31.96-13.86-65.49-25.76-99.78-32.69-3.41-.69-12.25-2.78-15.04-2.77-.73,0-2.2.21-2.2.95v11.83c0,1.1-3.14,6.61-4.23,7.6-1.61,1.45-6.78,4.03-8.93,4.87-17.88,7.04-42.19,13.76-60.99,19.22-12.13,3.52-24.45,7.52-37.22,6.04-10.02-1.17-20.56-4.61-30.51-6.31-2.87-.49-5.75-1.06-8.69-.85-.68,3.43,1.97,6.67,1.68,9.9-.7,7.88-10.85,13.19-17.22,16.31-18.84,9.2-44.34,12.07-64.19,4.55-4.83-1.83-11.32-5.35-11.04-11.35.11-2.42,2.09-4.05,2.53-6.07.32-1.5-.07-3.03.19-4.41,1.25-6.8,16.34-13.33,21.3-18.14.78-.76,1.9-1.29,1.66-2.6l-33.22-7.88c-1.75-.52-.49,4.56-.26,5.41.06.22,1.13,3.12,1.42,3.95,1.17,3.27,4.41,4.93,1.17,9.38-3.42,4.72-18.62,11.57-24.37,13.75-19.36,7.36-44.87,13.39-64.55,4.13-6.32-2.98-8.71-8.06-5.96-14.78,4.78-11.66,15.57-15.06,25.39-21.31,5.56-3.54,10.73-7.86,16.56-11.06,1.17-4.02-.19-8.28-.36-12.14-.12-2.57.68-10.57-.79-12.03-2.51-1.23-5.9-.92-8.71-.81-28.9,1.13-68.08,8.57-96.46,15.3-21.84,5.18-43.17,12.46-63.64,21.5ZM269.04,684.19c-16.64-.68-33.1-2.81-49.31-6.57-.01,4.31-.59,24.36,3.12,26.29,1.7.89,11.16,3.09,13.84,3.75,4.42,1.09,22.67,5.28,25.94,4.66,1-.19,6.7-3.5,6.96-4.24l-.55-23.89ZM313.65,684.29l-41.04.53.37,23.7c18.03,1.03,32.45,13.26,39.12,29.56,3.06-2.67,8.12-5.07,8.25-9.54.05-1.65-1.44-10.08-2.05-11.62-.25-.62-1.2-.63-1.45-1.33-3.48-9.88-.72-21.06-3.2-31.29ZM202.4,713.35c-5.68-6.83-19.32-15.61-28.51-12.87-3.55,1.06-8.88,5.47-12.01,7.71,7.2,2.25,13.43,5.35,18.75,10.82,4.12,4.24,4.45,8.88,7.3,13.77,1.35.4,18.95-6.04,19.65-7.17,1.77-2.89-3.25-9.95-5.17-12.26ZM157.6,737.43c2.88.81,9.16-.59,12.49,0l14.05-3.37c.76-10.69-14.15-22.28-23.91-22.3-5.71-.01-18.68,7.25-21.5,12.06-1.67,2.85-3.47,7.3.79,8.35.33-5.81,5.55-11.96,11.18-13.14-2.35,5.5-9.49,8.32-7.88,15.12,2.11,1.96,5.02-4.94,6.3-6.52,1.83-2.26,4.22-5.34,7.5-4.65.38,1.75-.17,1.45-.81,2.16-2.87,3.17-6.4,6.01-7.12,10.58l3.91.98c.63-3.43,6.68-10.81,10.14-10.92,5.46-.17-3.62,5.55-4.16,6.23-.84,1.06-2.91,4.87-.97,5.42ZM305.44,731.94c-5.28-8.16-10.16-13.86-19.52-17.63-11.56-4.65-19.44-3.13-28.06,5.71,14.58,2.85,31.7,10.66,36.17,25.96l14.83-5.91c.42-.67-.9-5.03-1.34-5.95-.72-1.49-1.72-1.62-2.08-2.18ZM222.7,719.69c-4.93,4.89-13.53,8.81-20.08,11.48-20.19,8.22-48.58,15.28-67.37,1.02-2.22-.03.41,6.07,1.36,7.17,2.22,2.55,12.12,4.89,15.66,5.44,18.06,2.82,47.53-4.68,63.3-13.82,3.1-1.8,12.56-7.82,7.13-11.29ZM291.37,747.26c-.8-4.48-4.23-9.41-7.56-12.44-5.69-5.18-21.85-13.43-29.43-11.71-2.61.59-12.15,7.35-13.96,9.7-4.21,5.48-2.45,11.77,4.28,13.16.84-6.35,3.03-11.2,9.53-13.15l1,1.64c-2.86,1.07-8.54,9.9-7.93,12.44l7.53,2.31c1.8-3.19,2.06-6.19,4.39-9.3.74-.98,5.6-5.39,6.53-4.46-.89,4.74-7.43,8.7-7.79,13.61-.2,2.68,7.81,1.11,9.76,1.5-.27-4.94,3.88-11.26,8.88-11.83,2.49.32-8,9.66-6.24,11.83,7.18.5,14.22-1.22,21.01-3.31ZM321.63,734.81l-13.35,8.66c-22.56,12.05-49.5,15.93-71.78,1.18-1.95-.37-1,4.66-.14,5.74,3.58,4.5,21.25,8.31,27.09,8.73,15.38,1.1,36.85-4.29,49.84-12.59,4.17-2.66,9.19-6.05,8.33-11.71ZM563.58,837.34c-.16-1.03-1.23-1.24-1.98-1.63-14.46-7.55-29.71-13.88-45.05-19.43-15.39,3.54-30.18,9.2-44.8,15.03l-12.71,6.03h104.54Z"/>
  <rect x=".14" y="841.29" width="595" height=".66" fill="#fff"/>
  <path d="M4.08,126.47c4.41-5.28,7.87-11.38,12.23-16.69,37-45.04,95.4-60,151.78-61.88,75.87-2.54,174.54,13.05,206.62,91.88,2.64,6.49,2.16,8.86,3.65,15.43,1.84,8.12,5.23,12.01,13.36,14.29-.59,5.52-1.31,10.14,2.24,14.81,2.94,3.85,6.73,3.3,5.24,9.74-.12.53-1.19.19-1.35,1.4-2.75,21.01,2.21,48.1,0,69.76,1.56.64,2.22,6.42.39,5.54-.79-.38-3.89-8.2-5.07-10.05-2.81-4.41-9.27-9.84-14.32-11.32-1.84-.54-5.18-.1-6.58-1.31-1-.86-.97-2.94-1.72-4.19-6.58-10.94-17.3-15.57-30.12-13.81-1.52.21-4.03,1.72-4.66,1.68-.38-.02-5.27-3.01-6.74-3.55-9.74-3.59-20.61-2.99-29.44,2.46-1.35.83-4.09,3.71-4.72,3.87-.59.15-7.85-2.48-10.37-2.57-7.33-.27-14.94,3.22-18.88,9.44-.82,1.3-1.82,4.85-2.51,5.37-.98.74-4.34.81-5.89,1.34-10.27,3.54-18.83,12.35-16.82,24.01.34,1.94,2.53,5.62,2.25,6.73-.19.72-5.52,6.31-6.47,7.55-2.03,7.35-.51,12.42,4.25,17.9,3.33,3.84,6.64,4.07,10.11,7.03-1.49,6.16-.4,13.69-1.18,19.62-.16,1.21-1.23.87-1.35,1.4-.58,2.48,2.16,16.96,3.1,20.42,4.15,15.4,16.07,26.5,30.61,32.51,1.01.42,2.01.6,3.1.52v1.97c-4.86.44-11.15,3.4-15.34,6.03-31.76,20.02-51.77,80.28-66.66,114.08-3.52,7.99-9.9,18.72-12.62,26.98-.58,1.75-.27,5.32-1.05,6.71-.28.49-7.18,6.01-8.55,7.25-2.14,1.94-4.33,3.24-6.5,5.96-1.93,2.41-7.58,10.87-7.63,13.45-.12,5.39,4.74,4.47,1.97,9.01-8.68,14.23-9.67,34.2-10.51,50.77-.39,7.68-1.68,18.85-.68,26.33.28,2.08,2.38,3.97,4.02,5.18,4.54,3.36,13.03,3.43,11.8,10.23-7.99-1.22-15.99-.08-23.99.66-13.22,1.23-26.45,3.32-39.48,5.83l-3.82-2.04c-2.51-11.6,3.08-34.92-3.43-44.51-2.68-3.94-7.53-5.18-11.26-7.78-.57-.4-1.22.11-.86-1.46,19.31-4.33,39.01-6.35,58.73-8,1.46-.62,1.53-1.72,0-2.41-14.25.35-28.48,1.83-42.55,3.92-7.66,1.14-15.22,3.92-23.03,3.8-17.31-6.2-34.3-14.27-51.81-19.85-3.2-1.02-23.36-6.95-24.84-5.73-.27,1.4.66,1.53,1.6,2.01,3.82,1.94,12.23,3.25,16.94,4.76,18.07,5.79,35.65,13.11,53.11,20.51l-74.28,19.39v-108.45l25.65-.34,9.84,18.25,8.56,10.36h-20.05c-.91,0-6.83,1.05-5.93,2.63,1.89,2.12,3.75.63,5.9.62,7.6-.03,16.99-.64,24.34.04,4.93.45,9.59,2.93,14.65,3.75,7.06,1.15,15.68,1.2,22.76.11,3.65-.56,11.41-3.87,13.88-3.87h34.85l.98-1.63c-.41-.32-1.44-1.65-1.64-1.65h-29.26l5.53-6.63c4.78-7.48,9.16-14.56,12.87-22.63l58.86-.97,1.63-.99c-.42-.31-1.43-1.64-1.63-1.64h-13.48v-48.97c0-2.1,3.92-2.77,5.6-2.95,6.85-.71,14.63.59,21.58-.11l1.09-2.53h-83.83c-7.51-5.17-13.87-12.47-11.2-22.37,1-3.73,5.44-4.13,6.86-7.6,1.72-4.22.68-6.44-3.19-8.51-10.77-5.78-45.24-4.21-56.94-.33-9.06,3-7.42,7.35-2.3,13.55.75.91,2.22,1.31,2.65,2.12.96,1.78.79,6.19.58,8.28-.57,5.66-8.26,11.49-11.42,16.19H4.08V126.47ZM52.73,176.1H10.99c-.38,0-1.33.93-.33,1.64,4.42,3.16,19.46-2.13,21.42,4.25-1.28,15.72.93,31.77-1.36,47.35-1.95,4.01-18.06,2.97-22.26,3.37l-.42,2.54h44.71c.46,11.15-.6,22.77-.03,33.88.13,2.48.37,6.88.73,9.13.48,3.01,5.24,8.26,8.18,8.26h33.2v14.46l-82.19.98-.65,1.64c1.1.17,1.81.9,2.93,1.09,8.36,1.44,19.13-.61,27.54-.19,9.7.49,5.75,11.56,5.66,17.82-.12,8.2,1.02,19.28.06,27-.49,3.91-3.46,4.57-6.94,4.9-9.53.9-19.49-1.27-28.86,1.26l-.39,2.03h73.96c.28,0,2.32,1.01,2.62,1.33l.96,2.33c.66,13.3-.6,26.78-.24,40.05.07,2.46-.44,5.93,2.25,6.25.3-1.21.61-2.31.7-3.58.92-13.15-1.49-28.66-.03-41.44.13-1.13,1.12-4.93,2.3-4.93h81.2c.3,1.2.59,2.32.69,3.58.87,11.09,1.19,34.6-.03,45.38-.31,2.76-1.25,4.8-3.91,5.95-48.61,3.25-98.4-1.1-147,.93-1.68.07-12.41.85-12.75,1.4l.34,1.93,114.2.14c4.14,3.48,1.82,9.03,1.76,13.3-.05,3.83-.52,29.07.73,29.9,1.05.7,2.59-.5,2.59-1.61v-37.14c0-.05.88.12,1.07-.22,1.51-2.73,2.14-4.62,5.82-5.05,26.25-1.46,54.99,2.27,80.92-.61,2.05-.23,3.62-1.81,1.35-2.73-4.57-1.87-10.47.02-15.16.1-3.28.05-25.62.77-26.57-.15-.13-.13-1.41-3.05-1.45-3.42-.3-3.06-.38-10.96,0-13.93.16-1.25,1.26-.64,1.42-1.88.69-5.47.71-24.22,0-29.67-.17-1.29-1.78-.5-1.43-3.25.15-1.18,2.01-1.2,1.37-2.95h52.6l.36-1.98-3.31-1.32c-27.46-1.91-58.47,2.58-85.51.04-5.17-.49-7-1.7-7.52-6.94-1.14-11.39,1.32-23.69.64-35.15-1.46-.25-1.84.98-2.19,2.07-.54,1.67-.96,6.72-1.09,8.77-.41,6.79,1.28,19.91-.03,25.49-.11.45-1,.42-1.23.98-.64,1.55.03,3.24-2.19,4.26l-75.17-.12c-3.53-1.9-3.98-2.32-4.26-6.27-.87-12.47,1.12-25.05.64-37.53l4.31-4.96,129.87-.91c1.96-1.35-.1-2.97-1.66-2.97h-85.14c-.16,0-1.43-2.38-1.38-2.96.12-1.3,1.27-.64,1.43-1.92.36-2.9-.37-6.56-.05-9.57h94.35c.39,0,1.34-1.48.98-1.96l-4.25-1.34c-33.11.23-66.22-.23-99.33-.01-7.29.05-28.57,3.01-32.83-2.61-1.1-1.46-1.52-3.74-1.68-5.55-3.08-32.89,2.39-70.52,0-103.91-4.3-66.13,78.72-80.91,129.01-73.05,30.53,4.77,60.05,21.75,62.91,55.42.44,5.22-1.05,36.66.47,37.78.42.31,2.7.79,2.9.58l.66-13.8,101.48.55,1.09-2.52-41.41-1.32c-.27-.24,1.97-5.67,1.97-6.9v-32.86c0-.77-2.16-1.9-2.62.66l-.82,34.02c0,2.04-2.93,5.09-4.78,5.09h-54.9c-.24-5.77.34-11.65,0-17.41-.54-9.07-2.59-17.11-6.45-25.1l-7.35-12.04c3.72-1.96,6.56.27,10.27.57,5.04.4,10.13,0,15.02.05,19.53.22,41.95,1.25,61.19.06,1.14-.07,4.3-.25,4.9-1.33-2.75-1.33-6.39-1.8-9.5-2.01-21.97-1.47-45.16,2.12-67.12.71-4.92-.31-10.33.15-10.85-5.58-1.31-14.36,2.34-31,.72-45.41-.13-1.14-.15-2.26-1.66-2.27-1.38,1.25-1.52,3.18-1.68,4.9-.59,6.43,1.07,44.5-.26,46.41-2.78,3.97-10.39-4.35-12.64-5.85-31.61-21.12-85.76-21.86-120.7-9.14-6.7,2.44-12.89,6.26-19.56,8.37l-.66-30.24-1.92.05c-1.58,1-.25,25.12-.71,29.2s-2.48,6.06-6.4,6.75c-13.44,2.34-28.98-.23-42.6.79-1.09.08-5.99.63-6.22,1.68-.29,1.34,1.29,1.55,2.27,1.66,7.99.9,21.92.34,30.3,0,4.04-.17,8.69-1.07,12.79-1.34.3,1.14-.47,1.31-.98,1.97-6.45,8.43-11.81,11.35-15.76,22.37-4.23,11.81-2.32,21.45-3.64,33.49ZM279.89,93.28c-4.02-.9-11.05.66-15.45,0l.08,2.22c.69,2.08,4.23.28,6.16.36,4.17.16,8.41,1.65,12.82.05-.21-.69-3.31-2.55-3.61-2.62ZM213.39,139.06c-19.93-22.16-61.14-22.75-88.34-16.54-18.92,4.32-42.66,14.74-44.69,36.83-2.82,30.7,2.11,65.51-.04,96.64l1,3.6,131.22-.3.56-111.81,1.7-1.61c7.65,12.05,6.26,25.77,6.24,39.43-.43.46-3.9-1.86-3.94.98l49.3,24-.32-2.63-41.61-21.16c-.3-16.33,1.61-32.22-9.06-45.85-.63-.8-1.54-1.02-2.03-1.57ZM329.53,203.71c-1.5,1.27,7.07,5.25,8.05,5.44.89.17.88.8,1.81-.52.35-1.78-7.76-6.08-9.86-4.92ZM244.05,242.48c1.35-1.35-4.29-5.41-5.3-6.2-5.05-3.92-12.19-9.45-17.49-12.75-1.48-.92-3-1.63-4.82-1.42-1.02.92,6.7,6.56,7.57,7.22,4.72,3.55,12.44,9.59,17.31,12.27.91.5,1.53,1.15,2.73.88ZM201.6,275.73c-1.27-1.77-6.78-10.78-7.5-11.24-1.82-1.17-2.16,1.13-1.47,2.79,2.03,4.9,7,9.64,10,13.85,7.5,10.52,17.23,26.02,25.97,34.98.69.71,1.14,1.54,2.31,1.3,1.81-2.04-5.93-9.98-7.11-11.58-7.42-10.09-14.86-19.93-22.19-30.1ZM88.67,331.99c-.65.2-1.25.8-1.09,1.53.19.86,8.75,2.2,10.28,2.25,1.26.04,2,.34,2.85-.93-.04-2.18-10-3.49-12.05-2.85ZM219.07,386.44c-3.45-.04-8.18-2.77-11.16-.34,0,.67,12.78,5.39,11.16.34ZM24.47,396.29c3.74-.92,8.74,1.73,11.82-.33-.03-2.17-13.06-4.48-11.82.33ZM41.56,597.43c6.06-.72,11.96-2.83,18.09-3.27,4.73-.34,10.57,1.03,14.77-1-.05-3.42-21.46-.81-24.46-.15-2.43.54-8.12,1.46-8.4,4.41Z" fill="#fff"/>
  <path d="M4.08,708.51c20.46-9.04,41.8-16.32,63.64-21.5,28.39-6.73,67.56-14.18,96.46-15.3,2.81-.11,6.2-.42,8.71.81,1.46,1.46.67,9.46.79,12.03.17,3.85,1.53,8.11.36,12.14-5.83,3.19-10.99,7.51-16.56,11.06-9.81,6.25-20.61,9.65-25.39,21.31-2.75,6.72-.37,11.8,5.96,14.78,19.68,9.26,45.18,3.24,64.55-4.13,5.75-2.19,20.95-9.04,24.37-13.75,3.23-4.46,0-6.11-1.17-9.38-.3-.83-1.36-3.73-1.42-3.95-.23-.85-1.49-5.93.26-5.41l33.22,7.88c.23,1.31-.88,1.85-1.66,2.6-4.97,4.81-20.05,11.34-21.3,18.14-.26,1.39.13,2.91-.19,4.41-.43,2.02-2.41,3.65-2.53,6.07-.28,5.99,6.21,9.51,11.04,11.35,19.85,7.53,45.35,4.65,64.19-4.55,6.38-3.11,16.52-8.42,17.22-16.31.29-3.22-2.36-6.46-1.68-9.9,2.94-.21,5.82.36,8.69.85,9.94,1.7,20.48,5.14,30.51,6.31,12.77,1.49,25.09-2.52,37.22-6.04,18.8-5.46,43.11-12.17,60.99-19.22,2.15-.85,7.33-3.43,8.93-4.87,1.1-.99,4.23-6.49,4.23-7.6v-11.83c0-.74,1.47-.95,2.2-.95,2.8-.01,11.63,2.08,15.04,2.77,34.3,6.93,67.82,18.83,99.78,32.69v118.31h-21.37c-.43,0-5.57-3.96-7.12-4.72-12.77-6.31-26.05-11.09-38.97-16.91-.77-.35-1.19.31-.92-1.37l57.81-14.18,1.35-2.25c-21.46,3.44-42.45,9.62-63.45,15.14-17.88-6.76-35.81-13.68-54.55-17.79l.05,2.71c16.47,4.03,32.78,9.21,48.26,16.03-11.5,4.14-23.25,7.58-34.64,12.04-3.83,1.5-23.49,11.3-24.86,11.3H4.08v-128.83ZM49.96,721.85c-13.69,1.53-23.42,15.78-4.12,17.55,4.71.43,21.82-.13,24.31-4.59,4.71-8.47-14.26-13.62-20.19-12.95ZM536.17,747.13c-.47-.84-.21-2.03-.72-2.93-9.14-16.33-45.29-13.23-59.76-6.23-8.35,4.04-17.25,13.84-4.61,19.31,11.98,5.18,55.03,5.48,63.58-5.71,1.15-1.51.83-3.71,2.62-3.63v-.63c-.32.04-.98.05-1.1-.17ZM561.61,755.85c-.53-.64-13.86-3.35-12.49.97.49,1.53,10.4,1.26,12.49.98-.08-.53.14-1.78,0-1.95ZM144.78,765.7c-23.16.41-46.09,5.26-68.6,10.28-15.28-3.44-30.35-8.12-45.66-11.41-3.4-.73-17.19-3.85-19.5-3.48-1.1.18-1.65.88-2.33,1.65.01,1.2,19.76,4.63,22.36,5.24,12.3,2.85,24.53,6.24,36.79,9.22-8.77,3.01-18.22,4.54-27.23,6.95-6.94,1.86-14.08,3.77-20.89,6.06-2.04.69-8.73,2.7-9.98,3.7-.75.61-.35,1.24-.41,2.02.96.97,15.26-4.23,17.75-4.92,7.55-2.12,15.25-4.26,22.87-6.05,18.5-4.36,23.33-6.17,42.22-1.19,22.65,5.97,46.59,14.96,68.35,23.69,7.89,3.17,19.47,9.84,26.97,11.82,1.34.35,2.58.45,3.95.32-1.1-1.12-2.13-2.64-3.47-3.42-10.27-5.96-28.8-12.36-40.39-16.8-21.35-8.18-43.11-15.47-65.27-21.19l11.17-2.95,50.9-7.49.39-2.03ZM358.49,779.45c.36.58,11.11,1.11,12.98,1.2,3.37.17,3.82-1.58.79-2.8-4.44-1.79-9.27-.56-13.82-.32.09.57-.17,1.57.05,1.92ZM432.08,792.64c-1.15-4.3-11.52-3.5-15.36-3.2-1.43.11-12.01,1.33-8.57,3.89,1.53,1.14,9.01-1.33,11.75-1.39,4.01-.08,8.06,1.25,12.18.69ZM216.44,803.81c3.74,0,8.25,2.35,11.58,2.59,1.27.09,2.04.27,2.86-.94-.06-2.17-11.58-4.08-13.35-3.51-.86.28-1.28.96-1.1,1.86ZM85.94,813.02c-4.11,4.48.74,2.72,3.3,2.63,2.1-.07,11.14.65,11.49-1,.14-.64-.74-1.63-.98-1.63h-13.81Z" fill="#fff"/>
  <path d="M434.39,3.89c23.23,12,50.42,27.64,64.78,50.26.51.81.84,1.29.63,2.32-20.08-.28-40.17.84-59.96,4.14-15.38,2.56-30.59,7.48-46.18,8.32-7.99-5.28-15.14-11.69-23.17-16.93-41.69-27.19-92.71-37.54-141.88-40.23-68.88-3.77-145.95,6.71-202.12,49.03-7.92,5.97-14.7,13.19-22.41,19.33V3.89h430.31Z" fill="#fff"/>
  <path d="M590.54,462.03v163.01c-5.07.59-10.26,1.2-15.27,2.15-6.73,1.27-23.2,6.45-28.45,6.44-7.21,0-23.72-5.2-32.3-6.53-13.99-2.17-28.19-3.33-42.32-4.03v-10.85c0-2.67-1.27-8.15-2.52-10.64-3.57-7.1-17.02-10.02-24.3-11.85-12.82-3.22-26.26-4.74-38.95-8.39-1.5-.43-5.63-1.64-6.22-2.94.63-4.54,2.06-9.62,2.29-14.18.14-2.75-.97-9.56-.53-11.02.65-2.14,6.93-8.05,8.43-10.18,4.49-6.36,9.57-17.88,11.77-24.99.76-2.48.69-5.42,1.45-7.95,3.19-.72,6.45.51,9.44.61,16.42.55,32.83-.2,48.71-4.44,3.76,6.05,7.87,6.77,14.51,7.61,12.52,1.58,25.75-.53,37.99-3.24.96,3.24,1.7,6.52,4.74,8.5,8.15,5.31,41.97,2.36,48.58-5.15,2.58-2.93,2.57-5.64,2.11-9.38-.53-4.37-4.43-11.9-4.43-15.28v-27.28h5.26ZM560.76,559.78c2.76-3.96,4.81-10.96,3.98-15.76-.9-5.21-8.19-8.51-12.81-10.2-19.42-7.08-64.57-6.63-84.33-.47-5.06,1.58-14.84,5.29-15.74,11.21-1.82,11.96,11.69,25.44,21.41,30.44,1.91.98,5.96,1.75,7.19,2.67,1.67,1.25,2.29,4.96,5.74,6.75,9.39,4.88,37.4,6.33,44.87-2.08.93-1.05,1.35-2.85,2.07-3.36,1.38-.99,6.92-2.29,9.43-3.56,6.21-3.13,14.33-10.08,18.21-15.64ZM439.32,534.34c-3.49-1.37-6.78-1.54-10.52-1.32-.28,2.49-.09,2.9,2.35,3.21.82.11,10.34.37,8.17-1.89ZM557.01,598.09l1.08,2.53c3.25-.35,6.39.91,9.43,1.12.8.06,2.35.59,2.63-.71.58-2.71-11.49-3.29-13.14-2.94Z" fill="#fff"/>
  <path d="M376.2,628.65l81.51-22.04.02-1.95c-1.6-.06-3.17-.06-4.77.17-12.16,1.75-28.19,8.15-40.59,11.34-15.93,4.1-34.65,10.48-50.78,7.37-3.82-.74-7.51-2.18-11.3-3.03-.95-1.2-.55-3.08.66-3.96,2.58-1.88,11.41-4.39,14.97-6.06,11.83-5.56,21.41-10.6,28.97-21.65,1.27-1.86,2.1-5.65,4.3-6.24l46.21,9.75c5.96,2.48,14.57,2.88,19.17,7.78.84.9,3.95,7.04,4.16,8.3,2.64,15.59,1.25,34.52,1.46,50.49.15,11.52,2.18,24.58.63,36.07-1.24,9.16-17.21,12.79-24.79,15.32-21.56,7.17-43.63,13.05-65.19,20.27-1.56.42-3.53.81-4.64-.69v-101.22ZM407.76,643.44c-1.26-1.31-9.97,6.97-6.24,9.19.85-1.73,7.89-7.47,6.24-9.19ZM433.17,661.61c3.13-3.04,6.02-6.98,9.41-9.99.41-.37,10.57-6.48,5.61-7.53-1.67-.35-11.41,10.14-13.12,11.85-.81.8-2.16.87-2.78,1.5-1.1,1.11-6.5,7.8-5.45,9,2.05-.85,4.75-3.29,6.34-4.83ZM442.61,669.73c.94.95,7.45-5.1,7.23-6.23-.21-1.04-.95-.81-1.76-.47-.96.41-6.31,5.85-5.47,6.7Z" fill="#fff"/>
  <path d="M293.34,271.43c4.97,8.11,11.73,11.05,21.23,9.68,4.96-.71,8.02-3.75,12.31-5.75,4.85,10.83,15.53,15.55,26.97,11.83-.31,1.47-.33,3.38-.71,4.75-.15.56-1.13.49-1.24.96-.22.95-.22,4.69,0,5.65.11.46,1.06.45,1.24.98,1.14,3.43,1.29,4.9,3.71,8,.76.97,2.67,1.67,2.85,2.4.44,1.8-3.07,6.08.18,11.67,5.27,9.06,8.35-.75,13.44-2.8,5.98-2.4,14.44.82,16.74,6.81,5.03,13.1-5.7,28.18-20.09,26.66-2.05-.22-5.27-2.15-6.93-1.02-4.35,13.67-15.69,24.84-28.76,30.41-30.68,13.07-76.88.82-81.58-36.37-1.78-14.03,1.04-47.64,4.72-61.51.9-3.4,2.04-5.61,4.09-8.41,3.12,1.12,5.27,3.58,8.5,4.64,7.83,2.57,18.26-.6,22.01-8.17l1.35-.39ZM278.74,287.96c-1.99.28-3.53,1.98-5.29,2.65-1.98.75-9.75,2.67-10.26,4.24-.54,1.67.35,2.73,1.88,3.23,3.62,1.18,19.62-4.6,16.17-9.61-.71-.87-1.58-.63-2.5-.5ZM319.43,288.57c-1.61.54-1.26,3.27-.73,4.52s3.86,3.37,5.13,4.06c2.69,1.46,13.5,5.93,15.26,2.52.47-.7.35-1.26,0-1.98-.72-1.46-9.92-4.4-12.23-5.55s-4.59-4.54-7.43-3.58ZM272.82,309c-8.42.75-7.29,16.89,1.3,13.19,6.57-2.83,4.7-13.73-1.3-13.19ZM317.24,321.82c1.34,2,4.79,2.64,7.06,1.88,4.61-1.53,4.52-13.71-2.28-12.83-2.18.28-5.31,4.41-5.5,6.4-.14,1.43-.08,3.35.72,4.55ZM282.39,340.22c3.62,3.47,14.42,4.6,17.29-.42l-1.37-1.81c-15.74,6-17.07-4.56-9.81-15.91.65-1.01,6.93-7.3,3.87-7.95-.88-.18-4.2,3.45-4.9,4.29-1.57,1.87-6.07,8.41-6.63,10.47-.91,3.4-1.2,8.7,1.55,11.33ZM378.67,326.11c-3,.43-8.19,3.5-8.39,6.81-.33,5.62,3.9-.68,4.65-1.32,3.53-2.99,6.14-1.54,9.8-3.34-1.73-2.13-3.39-2.53-6.06-2.15ZM288.19,359.57c-.66,1.17.25,2.45,1.56,2.59,1.77.19,9.12-3.28,12.52-3.34,1.61-.03,4.54.62,6.24.97,2.04.42,5.13,3.39,5.91.03-3.6-5.64-14.36-4.71-20.18-3.05-1.01.29-5.79,2.34-6.06,2.81Z" fill="#fff"/>
  <path d="M110.47,437.14c.92,1.5-3.48,4.79-4.47,6.16-3.24,4.5-3.88,7.41-3.23,13.06,1.4,12.13,12.89,16.17,19,25.23,12.34,18.31,3.61,47.95-7.11,65.02-10.52,16.76-31.6,18.4-49.56,15.11-19.05-3.49-29.7-22.72-34.28-40-1.26-4.77-3.5-15.22-2.4-19.8.33-1.37,1.62-5.65,2.27-7.7,2.97-9.44,5.85-11.59,11.87-18.37,6.78-7.64,16.31-14.97,13.46-26.31l13.8.65c.83-.67-.02-1.16-.81-1.48-2.5-1.02-6.38-.78-9.08-1.44-4.63-1.13-11.89-4.39-10.49-10.22,6.49,1.11,12.78,3.44,19.4,3.94,5.67.42,14.01.38,19.7,0,2.89-.19,13.1-1.45,15.31-2.4,1.19-.51,1.93-2.38.4-2.8-15.57,2.43-32.86,3.55-48.24-.38,11.27-3.7,26.52-3.79,38.49-2.99,5.61.37,11.22,1.67,15.96,4.73Z" fill="#fff"/>
  <path d="M394.82,284.36c2.27,2.74,4.54,2.6,6.95,7.18,5.05,9.6,4.1,21.24-1.76,30.26,8.8,12.7,3.36,28.69-11.67,32.39.11,6.64,1.55,11.03-5.74,13.98-5.27,2.13-9.53-.81-12.48-.04-1.09.29-3.17,2.83-4.5,3.45-3.22,1.51-6.89,1.52-9.79-.59l9.95-15.35c16.54,3.45,30.94-9.66,28.66-26.55-1.66-12.25-16.02-18.88-26.09-11.31-1.39,1.04-3.15,5.26-5.33,2.46-3.51-4.51.02-8.74,2.01-12.67-10.25-2.15-11.11-15.72-5.6-23.03,1.84-2.44,5.64-3.48,4.95-6.55-3.39-.73-4.65,2.07-7.29,3.56-9.7,5.46-20.45,4.26-26.38-5.72-1.13-1.9-1.94-7.93-4.99-6.23-.68.38-3.34,4.68-6.02,6.13-10.07,5.45-22.84.89-24.36-10.88-4.28-.73-4,3.13-5.61,5.24-5.36,6.98-15.39,9.46-23.11,4.75-2.55-1.55-5.69-7.73-7.43-4.88-1.35,2.21-4.49,11.49-5.22,14.32-1.84,7.05-2.38,14.76-3.33,21.98-8.56-1.41-13.33-10.76-10.67-18.88,1.12-3.41,5.36-5.11,6.59-8.49-9.23-15.05,4.21-29.18,19.71-29.28.86-8.86,10.42-14.89,18.87-14.33,3.8.25,6.25,2.5,9.74,3.2,8.66-9.48,22.44-11.21,34.28-7.1,1.95.68,6.07,3.66,6.61,3.66.85,0,4-1.53,5.93-1.72,8.44-.86,16.28,1.26,22.65,6.92,2.96,2.62,4.58,9.42,5.97,10.47,1.73,1.3,7.95,1.79,11.07,3.39,6.16,3.14,11.97,10.16,13.07,17.17.5,3.18-.81,11.7.36,13.12Z" fill="#fff"/>
  <path d="M590.54,362.77v95.97c-6.63,1.45-13.37.99-20.08,1.29-21.76.97-44.04,1.5-65.53-2.8-9.83-1.97-11.43-1.31-11.07-12,.22-6.62,1.39-14.81,2.1-21.57,1.54-14.59,3.07-33.02,7.1-46.25.6-1.98,1.81-14.02,2.67-14.64l16.41,6.24c-4.68,6.6,5.86,8.46,9.25,12.46,9.02,3.39,14.34,3.01,22.91-1.36,7.65-3.89,9.56-7.59,18.35-10.57,6.03-2.05,12.1-4.1,17.88-6.77ZM529.32,395.05l-2.58.35c-2.4,4.11,1.47,33.65,2.82,39.83.2.91.7,3.42,2.12,3.13,1.13-.76,1.03-1.75,1.05-2.95.06-3.75-2.23-11.26-2.67-15.79-.8-8.13-.36-16.45-.74-24.57ZM548.04,431.56c-1.51-3.02-2.76-7.22-3.62-10.53-.23-.88-1.56-13.19-3.85-10.93-1.59,3.91,3.98,23.7,6.55,25.33,1.09.7,2.02.36,2.61-.76.55-2.07-1.49-2.7-1.69-3.1Z" fill="#fff"/>
  <path d="M421,468.51c-.9-11.21-3.07-22.59-6.48-33.29-3.26-10.21-8.7-18.18-13.97-27.48l.64-40.38c27.86.64,55.97,1.79,83.52-2.34.68.49.6,1.26.67,1.98,1.65,16.98-.46,38.59-.72,55.88-.18,11.8,1.01,25.37.05,36.86-.23,2.69-.3,5.07-2.94,6.26-5.49,2.47-24.12,3.59-30.91,3.87-3.9.16-28.69.53-29.86-1.37ZM450.49,399.58c2.61-2.76-12.53-3.55-13.14-2.61-.16.24-.09,1.62.29,2,.89,1.19,10.65,1.21,12.85.62ZM457.07,435.08c-2.19-.03-12.33-4.27-13.16-1.65-.12.38-.21,1.6.4,1.7.4.28,8.61,2.42,9.33,2.46,1.03.05,4.52-1.43,3.43-2.51Z" fill="#fff"/>
  <path d="M590.54,91.97v81.51c-13.12-12.23-33.05-15.36-49.66-8.57-7.32,3-11.08,7.17-16.1,13-.67.78-.97,2.61-1.95,3.79-3.18,3.85-7.09,4.17-7.26,11.19-.1,4.15,2.06,5.04,2.95,7.55,1.21,3.46-1.36,14.86-1.61,19.37-.5,8.96-.41,20.36,1.88,29,.92,3.47,2.75,6.2,3.3,9.67-3.14,2.6-6.73,4.63-9.8,7.33-6.27,5.5-12.11,13.26-16.54,20.27-2.56,4.06-4.13,8.97-7.78,12.27v-110.75c4.36-3.65,8.88-8.25,10.37-13.96.4-1.52-.24-3.42.49-4.77.28-.51,6.37-3.78,7.92-5.23,8.52-8.02,11.61-18.09,17.12-27.61,7.72-13.36,21.77-26.34,35.35-33.65,9.75-5.25,20.52-8.22,31.33-10.41Z" fill="#fff"/>
  <path d="M401.19,365.4v-14.79c0-.8,5.57-8.31,5.85-14.56.22-4.86-3.23-12.17-3.05-14.26.15-1.73,2.63-6.19,3.21-8.54,2.41-9.69.55-20.01-6.04-27.69-1.23-1.43-3.27-2.12-3.27-2.32v-9.2c3.57-.39,7.26-.75,10.88-.69,22.64.37,49.14-2.7,71-.65,3.03.28,5.45.64,5.57,4.29l-.62,84.19c-1.09,1.53-5.64,2-7.62,2.24-11.16,1.38-25.46,1.7-36.78,2.01-13.03.35-26.12-.32-39.15-.03Z" fill="#fff"/>
  <path d="M485.34,268.45c-.81,2.88-5.59,1-7.53.96-25.59-.55-51.05,1.8-76.62,1.34.04-6.68-.03-13.39-.02-20.08,0-17.75-1.13-36.7,0-54.56.13-2.12.3-6.85,2.16-7.7,2.89-1.32,17.83-2.78,21.88-3.1,15.1-1.19,36.29-1.73,51.26,0,2.2.25,8.89,1.3,8.89,4.26v78.88ZM429.13,210.28c-1.52.59-1,3.29,0,3.29h11.18c.2,0,1.23-1.34,1.64-1.65l-.98-1.63h-11.83ZM466.28,237.23c.78-1.92.43-2.65-1.79-3.14-1.93-.42-13.37-.78-13.32,1.5.48.55,2.45,1.64,2.95,1.64h12.16Z" fill="#fff"/>
  <path d="M590.54,323.99c-1.66.11-5.18.13-5.81-1.75-.3-6.72.11-13.63-.71-20.31-.15-1.2-1.24-.87-1.36-1.39-.61-2.75.5-7.43-1.67-10.06-1.59-.31-.93,1.28-.98,2.29-.35,8.31-.05,21.31.64,29.6.3,3.63,2.91,3.5-.94,7.56-3.22,3.39-13.68,10.96-17.89,13-4.69,2.28-11.62-.41-17.66.1-3.28.27-8.96,2.87-10.98,2.53-3.55-.59-18.13-7.97-21.21-10.4-5.34-4.23-3.51-9.18-2.88-15.36.92-8.95,3.1-17.5,5.28-25.63.95-3.56,2.07-7.22,1.87-10.92-.33-.37-2.81,1.13-3.09,1.5-1.14,1.49-4.08,15.19-4.62,18.07-1.02,5.43-1.36,11.1-2.16,16.58-1.14,1.17-16.38-3.42-17.76-4.9-1.84-1.98-.25-8.58.95-10.94,6.85-13.44,18.07-32.7,31.48-40.81,8.61-5.21,9.68,7.79,11.98,13.26,3.76,8.95,11.59,13.58,20.9,8.43,7.4-4.1,11.29-11.12,16.63-16.89,2.22-2.39,5.44-4.68,7.83-7.29,1.08-1.18,2.62-4.47,3.61-4.96,1.79-.89,6.71,1.57,8.55,2.65v66.06Z" fill="#fff"/>
  <path d="M503.65,59.18c3.69,5.43,6.35,11.35,9.33,17.18.22.43,1.1.56,1.49,1.32.97,1.89,3.5,7.45,2.98,9.22-.36,1.22-7.46,6.9-9.11,8.67-4.57,4.9-9.08,10.6-12.59,16.34-2.61,4.28-4.33,9.01-7.39,12.99l-1.38.59c-18.81-.67-37.48,2.49-56.21,1.67-3.3-6.37-4.88-14.07-8.35-20.54-.43-.81-1.39-1.03-1.94-2.02-6.6-11.88-13.77-22.8-23.89-32.01,19.19-3.15,38.28-8.44,57.61-10.76,16.42-1.97,33.03-1.71,49.45-2.63Z" fill="#fff"/>
  <path d="M4.08,705.23v-62.77c25.66-9.18,52.46-14.92,79.23-20.1,9.31,2.71,18.61,6.55,19.42,17.44.59,7.95.84,23.86-.03,31.58-.67,5.94-2.78,6.12-7.87,7.25-6.82,1.52-14.17,2.33-21.08,3.9-23.87,5.4-47.39,12.62-69.67,22.7ZM42.22,661.85c-1.46,1.36,8.76,6.68,9.7,7.05,1.55.61,3.48,1.64,4.75-.16.51-2.36-13.86-7.45-14.46-6.89Z" fill="#fff"/>
  <path d="M590.54,3.89v51.93c-3.57.79-7.74.87-11.21,1.61-14.07,2.98-31.79,9.7-44.23,16.91-1.79,1.04-14.19,10.28-14.9,9.74-5.29-16.47-16.68-29.33-26.92-42.96.4-2.32,26.37-20,30.25-22.39s25.97-14.84,28.55-14.84h38.46ZM563.25,30.18c-2.49-.71-7.95.52-10.85,0l.39,2.03c3.69,1.01,7.8.91,11.44-.07.35-.49-.48-1.82-.98-1.96ZM547.8,43.98c.11-3.87-11.02-3.85-11.8-2.59.02.52-.15,1.8-.03,1.93.41.43,11.39,1.05,11.83.66Z" fill="#fff"/>
  <path d="M590.54,651.33v64.42c-24.17-11.19-49.71-19.07-75.16-26.9-.93-.68-1-1.96-1.11-2.99-.57-5.34-.29-14.21-.03-19.76.18-3.82.89-15.57,2.95-18.08,2.9-3.53,21.01-9.64,25.85-10.31,5.98-.82,13.26,1.78,19.1,3.57,9.55,2.94,18.79,7.25,28.4,10.06ZM549.12,673.02c-1.41,1.41,4.64,5.87,5.69,6.46,1.26.7,1.77,1.27,2.84-.22-.6-1.56-7.42-7.36-8.53-6.24Z" fill="#fff"/>
  <path d="M399,569.64c-.18.9-1.55,5.65-2.09,7.41-4.81,15.83-16.65,23.46-31,30.14-2.52,1.17-12.54,5.79-14.51,5.91-.82.05-1.13-.31-1.46-.98.25-2.71,1.14-4.78-.06-7.47-3.25-2.4-3.33,18.71-3.31,20.07.03,1.87,1.42,3.8.05,5.25-13.93,4.91-29.81,8.39-44.44,4.96-.63-10.21-.16-20.94,1.22-31.08.46-3.39,3.39-16.48,6.38-17.93,4.99-2.42,7.48,2.66,12.68,1.5,4.87-1.08,8.56-8.45,12.5-10.52,5.55-2.91,15.56-2.7,21.28-6.3,4.42,2.03,6.35,4.97,11.72,5.16,9.46.33,22.88-13.63,30.25-19.13,3.07-.03,1.2,10.84.78,13Z" fill="#fff"/>
  <path d="M372.84,628.39l-.25,101.81c-.99,2.03-6.97,1.39-9.12,1.23-13.17-1-27.65-6.1-40.75-8.41-.66-.51-4.11-14.38-4.3-16.24-.43-4.21.47-9.15-.03-13.11-.16-1.25-1.26-.64-1.42-1.89-.28-2.24.22-5.19.13-7.53,11.4-1.24,23.11-2.68,33.14-8.61l-.34-51.28,22.94,4.02Z" fill="#fff"/>
  <path d="M367.66,439.35c-.06-.22-.89-1.01-1.31-.99-2.27,2.3-1.35,25.4-1.93,29.95-.16,1.25-1.26.64-1.42,1.88-1.26,9.95,2.49,22.97-5.2,31.26.22-8.86-.31-17.79-.03-26.65.76-24.24,3.92-48.09,10.46-71.05,1.03-3.62,2.36-7.13,3.4-10.74.59-.43,4.77,1.41,5.68,1.84,19.16,8.95,31.97,29.44,36.84,49.28.71,2.9,3.82,16.36,2.39,17.95-1.71,1.91-12.94,5.8-15.85,6.34-9.72,1.81-24.79,1.56-33.03-4.1v-24.98Z" fill="#fff"/>
  <path d="M590.54,59.1v29.25c-2.21,1.69-5.68,1.36-8.44,2.08-26.04,6.73-50.5,23.13-62.57,47.55-.6.42-6.89-4.94-8.33-5.8-6-3.6-12.52-4.95-19.29-6.37,17.33-38.2,57.73-61.88,98.63-66.71Z" fill="#fff"/>
  <path d="M420.25,492.92c.55,13.27-1.07,26.24-6.67,38.35-2.61,5.66-9.78,15.54-14.11,20.07-1.55,1.63-11.11,10.04-12.56,10.46-.51.15-.98.18-1.5.13-4.09-19.23-25.49-26.52-40.76-35.21-.22-1,10.17-12.91,11.71-15.19,2.47-3.64,6.26-9.83,8.19-13.53.64-1.23,1-3.03,1.14-4.43,17.75,6.8,36.84,5.59,54.56-.65Z" fill="#fff"/>
  <path d="M398.13,79.25c10.85,10.86,23.61,29.47,27.7,44.28.27,1,1.42,4.71.97,5.23l-47.92,11.8c-.52-2.4-1.42-5.5-2.5-7.66-4.9-9.86-14.82-23.86-22.54-32.05-.9-.95-4.25-2.54-3.94-3.93,14.27-6.5,26.9-15.7,40.6-23.21,3.66-.99,5.53,3.45,7.62,5.55Z" fill="#fff"/>
  <path d="M290.73,61.07c-.3-1.71.24-1.02.93-1.37,2.2-1.12,4.53-1.55,6.9-2.96,6.14-3.65,25.37-22.12,30.56-21.93,21.96,8.32,42.69,20.19,60.21,35.8-5.14,3.23-10.53,6.11-15.71,9.25s-20.33,13.84-26.01,13.46c-3.34-.23-2.9-1.92-4.72-3.23-16.32-11.75-32.5-23.32-52.17-29.03ZM349.9,63.7c1.88-3.78-7.42-5.78-7.88-3.6-.35,1.64,6.49,3.39,7.88,3.6ZM342.01,68.96c2.21-2.17-7.1-4.64-8.54-4.59-1.23,3.18,7.82,5.3,8.54,4.59Z" fill="#fff"/>
  <path d="M220.39,45.95c1.61-2.25,4.24-3.43,6.26-5.23,5.67-5.07,19.95-22.87,26.34-23.68,3.35-.42,17.81,2.1,22.1,2.82,16.33,2.75,33.18,7.08,48.51,13.29.38,1.63-6.67,5.08-7.84,5.95-7.39,5.48-19.09,17.63-28.06,18.61-7.4.81-19.4-4.04-27.08-5.64-13.3-2.78-26.75-4.6-40.24-6.12Z" fill="#fff"/>
  <path d="M539.91,634.9c-.08.89-.92,1.07-1.61,1.35-6.77,2.7-13.5,3.27-20.29,7.32-4.76,2.84-5.84,3.63-6.36,9.41-.31,3.35-.55,7.74-.7,11.14-.15,3.6.93,21.43-1.09,22.76l-35.78-6.36-1.27-54.56c22.59,1.24,44.93,4.59,67.09,8.94Z" fill="#fff"/>
  <path d="M513.18,148.71c-.99,1.56-1.54,3.25-2.71,4.87-3.9,5.38-7.25,9.18-13.09,12.58-6.28-4.64-14.61-5.7-22.23-6.48-12.4-1.27-24.91-.31-37.36-.77-2.46-.84-3.8-13.1-4.37-16-.45-2.31-1.04-3.72-1.27-4.76-.53-2.34-.58-5.02-1.36-7.39,4.03-.2,8.15.24,12.19.02,17.3-.95,48.26-4.65,63.67,2.68,2.22,1.06,11.05,6.62,10.64,9.16-.96,1.51-1.51,3.3-2.44,4.82-.42.69-1.42.92-1.64,1.27ZM461.76,149.07c.51.63,9.7,1.84,9.12-.9-.27-1.28-7.76-1.75-9.2-1.65.12.72-.25,2.13.09,2.55Z" fill="#fff"/>
  <path d="M491.04,472.09c1.86,2.83,3.64,11.94,2.71,15.11-.4,1.38-5.54,4.92-7.07,6.73-2.67,3.15-3.23,5.98-5.3,9.16-6.55,4.02-55.46,6-57.55,3.02l-1.6-34.22c20.81,1.59,43.5,2.43,63.44-4.34.79.07,4.92,3.85,5.37,4.54Z" fill="#fff"/>
  <path d="M4.08,85.07c20.43-20.58,43.34-36.66,69.9-48.43,2.76-1.22,7.49-3.63,10.1-4.36,1.11-.31,1.61-.49,1.54.88-.07,1.53-2.28,7.05-2.99,8.85-1.67,4.22-4.42,10.43-6.69,14.28-.62,1.06-4.73,6.98-5.47,7.74-2.73,2.84-15.78,8.91-20.32,11.89-11.38,7.45-25.41,19.28-34.23,29.53-4.12,4.78-6.92,10.76-11.84,14.78v-35.17Z" fill="#fff"/>
  <path d="M128.67,526.44l-.88-1.5c3.23-13.14,4.6-30.57-2.2-42.75-1.35-2.42-3.3-3.83-4.67-5.68-.56-.76-.61-1.01-.48-1.99,12.82-.02,25.66,0,38.49.03,4.04,0,10.09-2.09,10.83,4.23,1.1,9.31.95,33.27-.01,42.73-.32,3.18-1.41,4.93-4.93,4.93h-36.16Z" fill="#fff"/>
  <path d="M246.02,16.38c.25,1.1-.35,1.33-1,1.96-6.11,5.93-23.67,25.28-30.52,26.67-7.49,1.52-20.78-.76-29.29-.65-11.04.14-22.14,1.63-33.2,1.6l20.87-30.24c24.36-2.8,48.82-1.93,73.14.66Z" fill="#fff"/>
  <path d="M168.45,15.72c.62,2.24-1.11,1.85-1.87,3.03-4.46,6.87-8.51,12.97-13.4,19.5-1.95,2.61-2.92,6.16-5.94,7.87-24.21,2.41-47.97,7.38-70.84,15.61,4.26-6.85,6.76-14.49,9.92-21.82.25-.57,1.14-.61,1.45-1.34,2.68-6.33-.34-7.59,8.34-10.04,10.48-2.95,23.98-5.95,34.72-8.01,12.37-2.37,25.09-3.64,37.61-4.79Z" fill="#fff"/>
  <path d="M249.13,524.95c-.4.65-10.52,7.28-11.2,7.27-7.79-4.73-16.92-5.38-25.29-8.21-4.13-1.4-7.77-3.84-11.98-4.79l19.08-42.72c10.47,5.33,19.79,13.02,32.48,11.28l.74.52c.7,1.09.66,23.49.26,25.96-.09.57-3.78,10.22-4.09,10.7Z" fill="#fff"/>
  <path d="M436.35,162.68c15.01-.88,33.76-1.18,48.47,1.79,7.36,1.49,13.23,3.15,9.19,12.08-1.42,3.12-4.88,5.59-7.71,7.46-12.2-1.91-25.07-2.79-37.47-2.67-8.68.09-18.2.58-26.92,1.35s-25.75,7.72-27.8-5.1c-1.2-7.49,2.78-8.5,8.64-10.11,10.28-2.83,22.95-4.16,33.6-4.79Z" fill="#fff"/>
  <path d="M590.39,209.76c1.69,4.27-1.75,7.01-2.34,10.2-.63,3.41-.36,7.83-.99,11.5-2.06,11.98-7.05,28.21-19.08,33.5-25.11,11.05-49.41-1.98-48.44-30.36,1.11.55,1.26,2.12,2.28,3.3,4.31,4.99,7.69-1.56,11.74-3.41,5.51-2.53,6.78.55,11.35.71,2.33.08,5.21-1.38,7.66-1.13,5.9.6,16.99,10.08,21.83,3.78,4.61-5.99,6.59-14.66,8.31-21.81.13-.53,1.14-.49,1.25-.96.36-1.5-.34-7.67.02-8.08l6.43,2.76ZM556.8,243.61c.69-.76,1.07-2.19-.14-2.44-.93-.2-7.77,3.29-11.17,3.34-3.74.05-5.91-2.3-9.53-2.02-1.94,1.98,6.01,4.44,7.56,4.6,3.4.35,10.94-.89,13.28-3.47Z" fill="#fff"/>
  <path d="M544.51,212.91c-2.73-2.53-6.57,7.61-7.29,9.33-.2.48-1.12.52-1.23.99-.38,1.66.47,5.72-.13,6.66-.18.28-1.51.42-2.08.85-1.67,1.26-7.3,6.26-8.67,6.5-1.13.2-2.24-2.99-2.62-3.98-4.01-10.58-1.5-21.58-1.66-32.52.48-2.64,7.66-2.83,10.16-2.98,12.38-.75,29.31,1.44,41.26,4.81,2.37.67,7.92,1.65,8.39,4.1,1,5.23-1.94,15.86-4.07,20.87-1.02,2.39-4.45,9.04-6.92,9.55-5.54-1.02-10.04-4.86-15.79-5.61-4.72-.62-10.7,2.34-13.68-2.1-4.32-6.43,6.01-14.9,4.31-16.47ZM539.25,205.68c.57-6.36-13.39-2.56-12.49,1.63.24,1.1.95.79,1.75.46,3.88-1.64,5.65-4.04,10.74-2.09ZM568.18,209.62c0-5.96-9.06-7.36-13.81-6.57v1.96c2.5.45,6.28.77,8.56,1.64,1.03.39,4.75,3.53,5.25,2.96ZM537.16,213.67c-9.05-5.85-8.11,8.16-3.16,5.52.53-.28,3.72-4.69,3.16-5.52ZM560.11,213.65c-3.85.56-5.66,7.04-1.43,7.8,5.97,1.07,5.12-8.34,1.43-7.8Z" fill="#fff"/>
  <path d="M273.64,396.3c-.85,1.86-.78,4.21-1.37,6.06-7.58,23.99-9.04,69.92-8.53,96.17.05,2.45,1.67,5.19-.29,6.85-2.24-2.39-7.18-1.99-7.6-5.53-1.39-11.52,1.32-25.14.7-36.84,1.32-7.58.87-16.77,2.64-24.2.13-.55,1.19-.2,1.35-1.4.2-1.52-.22-3.39-.05-4.98l-2.03.39c-2.6,9.01-3.39,18.52-3.88,27.88-.48.47-6.1-.64-7.23-.99-4.21-1.31-14.93-8.14-14.47-13.07.06-.6,2.82-6.84,3.32-7.76,7.43-13.69,19.46-32.2,32.91-40.89,1.48-.96,2.51-2.1,4.54-1.7Z" fill="#fff"/>
  <path d="M543.86,3.89l-19.4,10.51-34.09,24.28c-6.65-7.09-14.18-13.01-21.8-19l-27.27-15.79h102.56Z" fill="#fff"/>
  <path d="M234.62,574.2c-24.18,22.95-16.87,64.66-19.5,95.2-.11,1.23-.64,2.38-.66,3.62l-10.42-2.72c-.79-4.87.45-10.01.59-14.67.59-19.08.8-38.17,4.9-56.89,6.19-28.29,30-39.05,51.92-54.57,3.4-2.41,7.55-7.57,11.54-6.94,9.97,1.57,4.4,5.23-.35,8.92-12.61,9.79-26.3,16.93-38.02,28.05Z" fill="#fff"/>
  <path d="M313.65,684.29c2.48,10.24-.28,21.41,3.2,31.29.25.7,1.21.71,1.45,1.33.61,1.54,2.1,9.97,2.05,11.62-.13,4.47-5.19,6.87-8.25,9.54-6.67-16.3-21.09-28.53-39.12-29.56l-.37-23.7,41.04-.53Z" fill="#fff"/>
  <path d="M176.75,666.5l39.38,10.45c1.86,7.43.36,14.85,1.81,22.51,2.06,10.92,9.83,19.39-6.77,23.9-5.93-14.32-18.2-24.86-33.89-26.63-.69-5.12-.06-10.34-.29-15.48-.17-3.75-1.31-8.9-1.34-12.53,0-.96.06-1.8,1.1-2.21Z" fill="#fff"/>
  <path d="M318.12,576.84c-.25.36-1.2.6-1.65,1.27-2.4,3.58-.74,6.53-7.61,4.27-2.28-1.62,5.12-13.61,6.82-15.55,1.58-1.8,5.52-2.93,4.29-6.22-2.96.47-5.01,2.83-6.87,4.96-3.84,4.38-6.35,10.33-9.2,15.16l-5.22-2.15c-.8-2.56,4.48-11.05,6.25-13.29,2.09-2.65,5.79-5.08,7.83-7.29.83-.89,1.21-1.29.97-2.64-1.53-1.48-9.57,5.78-10.85,7.22-3.18,3.56-5.45,8.65-6.91,13.16l-3.19-1.73c-.33-1.66-.11-3.25.21-4.88s4.4-7.94,5.63-9.48c4.44-5.56,21.95-14.11,28.93-16.43,1.55-.51,2.92-1.03,4.6-.75,1.49.25,8.78,3.71,10.53,4.64,3.54,1.88,17.76,11.1,18.29,14.61-5.69,10-20.18,8.28-28.4,13.46-2.58,1.62-8.21,8.35-9.61,8.8-8.12,2.61-1.39-8.54.64-11.2,1.16-1.52,4.99-3.97,4.59-5.92-.25-1.19-.82-.81-1.63-.33-4.46,2.62-5.82,6.44-8.46,10.3Z" fill="#fff"/>
  <path d="M337.41,417.33l-4.58,34.52c-13.69,3.29-28.27,1.3-42.06-1.04l3.25-35.46c3.32.82,5.78,3.22,9.02,4.45,11.99,4.56,22.81,1.27,34.36-2.48Z" fill="#fff"/>
  <path d="M269.04,684.19l.55,23.89c-.26.74-5.97,4.06-6.96,4.24-3.27.62-21.52-3.57-25.94-4.66-2.68-.66-12.14-2.86-13.84-3.75-3.7-1.93-3.13-21.98-3.12-26.29,16.2,3.76,32.67,5.89,49.31,6.57Z" fill="#fff"/>
  <path d="M267.06,536.95c-6.63,4.38-13.54,8.6-20.03,13.18-25.81,18.23-37.13,25.08-42.25,58.33-1.34,8.68-.84,18.96-3.52,26.73l-.61,33.9c-.45.45-7.18-1.03-7.9-1.63-1.08-.9-.73-10.32-.67-12.53.42-15.13,1.28-34.33,3.39-49.19,1.85-13.04,6.42-24.28,13.01-35.48l1.02-.46c8.48,2.31,17.46-7.67,18.78-15.39l30.93-21.05c1.26-.77,8.92,2.09,7.84,3.61Z" fill="#fff"/>
  <path d="M37.61,475.17l-7.71,13.63c-4.46,6.24-4.73,17.09-4.15,24.85.33,4.35,2.34,8.62,1.71,12.84-.83,1.18-8.61.5-10.59.59-4.32.19-8.2,1.26-12.79.03v-51.93h33.53Z" fill="#fff"/>
  <path d="M202.38,575.5c-.11.2-.9.37-1.25,1.07-7.2,14.07-8,30.4-9.69,45.83-1.88,1.84-25.79-6.63-28.3-10.13-1.68-2.34,1.01-14.7,1.8-18.01,1.55-6.46,4.33-11.71,6.82-17.84,1.97-.55,2.53,1.59,4.25,1.93,2.86.57,5.73-.77,7.85-.62,1.27.09,2.33,1.25,3.98,1.34,7.72.43,14.38-10.59,19.72-15.16.28,3.65-3.31,8.07-5.19,11.58Z" fill="#fff"/>
  <path d="M428.14,131.41l3.97,26.48,1.29,1.78c-11.74.68-23.5,2.82-34.98,5.45-3.07.7-3.73,2.53-7.58,1.28-8.84-2.86-10.61-14.33-10.6-22.41l47.89-12.58Z" fill="#fff"/>
  <path d="M491.05,446.73c-.08.17-.98.16-1.09.63-.22.92-.21,4.07,0,5,.1.44.95.48,1.04.7,1.07,2.7.68,3.71,4.04,4.85,2.4.81,14.92,2.4,15.65,3.42l.18,17.03-14.03,7.33c-.9-5.71-.87-12.8-4.93-17.41-1.09-1.24-4.77-3.09-5.15-4.74l1.23-30.72.31-83.2,13.51,11.53c-3.87,23.78-7.25,47.68-9.89,71.64-.3,2.73-.08,12.22-.88,13.95Z" fill="#fff"/>
  <path d="M563.58,837.34h-104.54l12.71-6.03c14.63-5.83,29.41-11.49,44.8-15.03,15.34,5.54,30.59,11.87,45.05,19.43.75.39,1.82.61,1.98,1.63Z" fill="#fff"/>
  <path d="M277.91,681.56c-.33-.04-2.26-.77-2.34-1.07-.05-20.05-1.47-40.3-.65-60.42.32-7.69,1.1-17.31,2.84-24.77,2-8.58,6.03-16.82,11.65-23.52-1.58,3.9,4.59,6.52,4.66,6.96.13.79-4.51,12.47-5.12,15.25-1.51,6.91-2.48,15.72-2.82,22.82-1.01,21.35.79,43.43,1.96,64.74-3.22-.3-7.06.41-10.19,0Z" fill="#fff"/>
  <path d="M272.98,609.26l-.63,21.91c-11.17,3.26-26.55,1.31-38.06-1.3-2.22-.5-13.97-3.84-14.46-5.26-1.46-4.28,2.04-15.02,1.87-19.95,16.85,4.59,33.77,8.06,51.28,4.6Z" fill="#fff"/>
  <path d="M211.18,566.54l1.31-11.17-2.16.13-16.57,18.28-6.18,1.91c-2.8-7.45,5.88-12.38,8.12-17.72.3-.72.99-3.25-.62-2.59-5.46,5.08-10.1,11.32-10.98,18.93-2.72.98-9.28,2.04-8.16-2.51,2.18-4.89,7.56-10.05,9.9-14.48.46-.86.94-2.23-.65-1.97-3.46.58-11.57,13.26-12.16,17.1-4.37-1.45-2.23-6.72-.77-9.65,4.1-8.22,19.28-20.58,27.7-24.23,5.47-2.37,17.97,1.92,21.73,6.6,6.45,8.05-.36,21.9-10.52,21.36Z" fill="#fff"/>
  <path d="M364.11,407.89c-5.56,18.99-8.24,40.03-8.98,60.35-.4,11.11,1.59,27.23-.02,37.45-.64,4.09-4.09,5.8-7.84,6.29.17-1.91-.56-3.69-.69-5.56-2.05-29.1-.87-74.3,8.55-101.27.9-2.58,4.8-13.48,6.26-14.77s7.02-.6,7.52,1.08c.25.82-4.15,14.19-4.81,16.44Z" fill="#fff"/>
  <path d="M301.91,681.56h-11.18l-2-33.82c.41-18.21-1.21-37.97,3.51-55.7,1.05-3.94,2.95-6.79,4.78-10.36,2.23,2.21,7.8.33,8.2,2.96.27,1.73-3.19,10.94-3.78,13.98-2.71,13.89-1.93,26.07-1.52,39.91s.9,28.72,1.98,43.05Z" fill="#fff"/>
  <path d="M358.42,387.78c.52.62-4.54,13.19-5.29,15.22-2.59,7.06-5.14,14.05-6.43,21.96-4.67,28.59-1.96,57.73-2.8,86.59-.67,2.04-6.6.72-8.46,1.08.49-17.17-.63-34.47-.02-51.63.7-19.88,3.41-41.35,9.06-59.96.86-2.84,3.46-10.61,5.12-12.62,2.14-2.59,6.03-1.04,8.82-.65Z" fill="#fff"/>
  <path d="M332.81,489.63v22.68l-1.64.98c-13.6,1.13-27.08.2-40.65-.77-2.58-.87-1.91-12.59-1.78-15.37.15-3.35,1.17-6.67.69-10.16,14.29,2.75,28.85,4.58,43.39,2.63Z" fill="#fff"/>
  <path d="M295.34,389.07c.91,2.22-1.2,2.69-1.3,3.08-4.96,20.46-6.36,52.67-7.28,74.12-.64,14.99-.32,30.04-.97,45.06-2.19-.89-8.37-.29-8.87-2.96.63-12.68.09-25.5.64-38.16.99-22.97,3.15-46.13,8.22-68.03.57-2.44,2.65-12.37,4.75-13,1.44-.43,3.29-.01,4.81-.12Z" fill="#fff"/>
  <path d="M397.9,353.58l-.66,51.26c-1.14.3-1.31-.47-1.97-.98-2.4-1.83-4.61-4.58-7.3-6.5-11.88-8.48-26.51-12.35-40.69-14.88-.24-2.86,3.1-8.3,5.86-8.9,2.12-.46,6.23,4.53,13.65,1.13,1.28-.59,3.93-3.07,4.47-3.15,1.02-.14,4.33,1.17,6.6,1.1,7.68-.23,16.44-7.49,13.79-15.85l6.26-3.25Z" fill="#fff"/>
  <path d="M240.9,588.08c1.91,2.69,6.86-2.3,8.8-3.07,7.58-3.02,6.5,5.14,11.83,5.83,4.23.55,5.6-3.11,8.63-3.79,10.44-2.36,5.42,4.31,4.3,10.22-.54,2.85-.67,6.42-.83,9.36-12.51,1.79-25.11,1.69-37.49-.96-4.47-.96-8.61-2.82-13.09-3.67-.69-.7.78-7.36,1.32-8.67.22-.53,1.1-.62,1.26-.98,2.5-5.67,2.45-8.87,9.71-9.89,6.51-.91,3.98,3.39,5.56,5.62Z" fill="#fff"/>
  <path d="M487.97,319.06c.47-.61.68-.86,1.5-.87,3.7-.08,11.09,4.68,15.64,4.12,1.77,4.49-1.72,6.9,1.58,11.57,5.97,8.44,16.79,8.99,23.59,13.89,5.74,4.14-4.5,4.22-7.14,6.45-2.32,1.96-4.02,6.87-4.26,9.88-12.49-2.27-22.69-10.85-30.9-20.05v-24.98Z" fill="#fff"/>
  <path d="M590.54,191.22c-8.93-4.16-18.38-7.35-28.13-9.01-11.94-2.03-23.01-2.03-34.99-1.84,11.92-21.6,48.06-20.2,63.12-2.62v13.47Z" fill="#fff"/>
  <path d="M348.59,514.61c1.08,1.12-5.89,8.57-7.27,9.48-3.39,2.25-14.12,2.82-18.67,3.03-16.87.78-50.17-1.11-64.36-10.65-4.09-2.75-1.91-6.85-2.4-11.07,28.66,13.34,61.82,12.9,92.69,9.2Z" fill="#fff"/>
  <path d="M291.37,747.26c-6.8,2.1-13.84,3.81-21.01,3.31-1.76-2.17,8.73-11.51,6.24-11.83-4.99.58-9.15,6.89-8.88,11.83-1.95-.39-9.96,1.18-9.76-1.5.36-4.91,6.9-8.87,7.79-13.61-.93-.93-5.79,3.48-6.53,4.46-2.33,3.11-2.6,6.11-4.39,9.3l-7.53-2.31c-.61-2.54,5.07-11.37,7.93-12.44l-1-1.64c-6.5,1.95-8.68,6.8-9.53,13.15-6.73-1.39-8.49-7.68-4.28-13.16,1.81-2.35,11.35-9.11,13.96-9.7,7.58-1.72,23.73,6.53,29.43,11.71,3.33,3.03,6.76,7.96,7.56,12.44Z" fill="#fff"/>
  <path d="M283.27,400.69c-6.45,24.42-8.13,52.87-9,78.73-.29,8.52.95,18.85.06,27.01-.1.91-.02,1.78-1.07,2.2l-6.22-2.35c.14-20.99-.44-42.06,1.34-62.98,1.18-13.83,3.68-27.84,6.78-41.21.43-1.85,1.71-8.3,2.87-9.13,1.49-1.07,5.62-1.6,7.44-2.58-.76,3.39-1.32,6.95-2.2,10.31Z" fill="#fff"/>
  <path d="M539.26,381.17c-1.74-2.66,8.24-6.21,9.45-7.17,1.72-1.36-.3-2.94-2.67-2.21-4.08,1.26-9.18,8.71-13.58,7.33-1.03-.32-1.27-1.11-1-2.11.78-2.92,10.63-5.15,11.08-9.64-2.09-1.83-13.03,7.61-14.22,7.8-.29.05-3.35-1.37-3.58-1.67-.47-.87-.56-1.73-.18-2.66.81-2.01,10.87-8.57,13.05-10.71,1.09-1.07,5.59-6.6,4.28-7.88l-7.24-.67c.26-2.53,2.83-3.66,5.1-4.43,8.91-3.02,18.13-1.67,23.28,6.63,1.91,3.08,4.77,9.28,3.34,12.76-1.99,4.82-24.83,18.1-27.11,14.62Z" fill="#fff"/>
  <path d="M590.54,206.34c-19.5-9.36-41.88-12.44-63.47-11.2-2.44.14-4.71,1.06-7.13,1.28-2.68-3.69-.18-9.91,3.93-11.71,9.26-4.07,31.57-1.22,41.69.92,8.33,1.77,17.67,4.94,24.98,9.2v11.5Z" fill="#fff"/>
  <path d="M217.76,659.54c.47-.61.68-.86,1.5-.87,2.32-.05,9.84,3.01,12.84,3.64,12.95,2.72,26.82,4.21,39.86,1.47.23.02,1.03,2.22,1.03,2.34v14.79c-18.52-.43-37.39-2.37-55.23-7.23v-14.13Z" fill="#fff"/>
  <path d="M375.97,549.67c3.57,3.71,6.37,9.41,7.32,14.49l-10.07,7.46c-1.26-.03-5.61-8.61-7.2-10.36-5.2-5.73-12.73-11.6-19.49-15.35-4.78-2.65-10.02-4.41-14.87-6.84-.62-.31-1.06.17-.82-1.12,3.25-1.77,8.05-9.17,11.85-8.62,1.67.24,8.43,3.72,10.42,4.75,6.69,3.47,17.92,10.45,22.86,15.59Z" fill="#fff"/>
  <path d="M343.98,381.18c-.82,2.46,2.69,3.78,2.65,4.86-.02.67-4.28,11.96-4.68,12.5-1.09,1.45-9.63,5.18-11.8,5.95-8.55,3.04-18.95,4.82-27.15-.41-5.99-3.81-4.99-8.16-4.38-14.36,15.97.93,31.07-1.36,45.36-8.54Z" fill="#fff"/>
  <path d="M335.44,529.07c1.12.98-7.17,6.23-7.88,6.9-2.77,2.62-.49,3.85-6.23,4.29-18.17,1.41-48.32-3.35-64.57-11.73-4.54-2.34-5.56-4.83-2.69-9.51,1.52-2.47,2.14.07,4,.97,22.88,11.19,52.55,10.18,77.38,9.07Z" fill="#fff"/>
  <path d="M202.4,713.35c1.92,2.31,6.94,9.38,5.17,12.26-.69,1.13-18.29,7.57-19.65,7.17-2.85-4.89-3.18-9.53-7.3-13.77-5.32-5.47-11.55-8.57-18.75-10.82,3.14-2.24,8.47-6.65,12.01-7.71,9.19-2.75,22.83,6.04,28.51,12.87Z" fill="#fff"/>
  <path d="M157.6,737.43c-1.94-.55.13-4.36.97-5.42.54-.68,9.63-6.4,4.16-6.23-3.46.11-9.51,7.49-10.14,10.92l-3.91-.98c.72-4.57,4.25-7.41,7.12-10.58.65-.72,1.19-.41.81-2.16-3.29-.68-5.67,2.39-7.5,4.65-1.28,1.58-4.19,8.49-6.3,6.52-1.61-6.8,5.54-9.62,7.88-15.12-5.63,1.18-10.85,7.33-11.18,13.14-4.26-1.05-2.46-5.5-.79-8.35,2.82-4.81,15.79-12.07,21.5-12.06,9.77.02,24.67,11.61,23.91,22.3l-14.05,3.37c-3.33-.59-9.61.81-12.49,0Z" fill="#fff"/>
  <path d="M305.44,731.94c.36.56,1.36.69,2.08,2.18.45.92,1.76,5.28,1.34,5.95l-14.83,5.91c-4.47-15.29-21.59-23.1-36.17-25.96,8.62-8.84,16.5-10.36,28.06-5.71,9.36,3.77,14.24,9.47,19.52,17.63Z" fill="#fff"/>
  <path d="M332.72,486.25c-1.09.57-2.28.69-3.49.78-12.88.94-27.35.2-39.74-3.38.45-4.57-2.69-20.27,5.88-17.4,3.95,1.32,2.7,9.52,11.72,3.92,2.1-1.31,3.03-4.01,6.28-3.55,2.32.33,4.81,6.49,9.27,6.64,3.65.12,7.08-6.73,9.83-1.45l.25,14.45Z" fill="#fff"/>
  <path d="M590.54,326.62v32.86l-21.04,7.23c-.06-2.97-.85-6.21-1.86-8.99-1.49-4.12-4.19-7.2-6.08-11,4.3-3.69,9.78-6.19,14.16-9.61,2.88-2.25,5.96-5.66,8.89-8.2,2.03-1.76,1.52-3.11,5.92-2.29Z" fill="#fff"/>
  <path d="M272.33,634.9v15.78c-5.07,3.03-5.56-1.26-9.17-3-7.96-3.84-11.18,3.86-15.99,2.88-3.41-.7-4.34-6.89-10.76-7.7-4.38-.55-8.26,3.91-10.33,3.72-2.34-.21-3.9-4.12-5.36-5.8-.49-.56-1.64-.54-1.64-.63v-10.85l1.36-.73c16.45,6.18,34.4,8.12,51.89,6.32Z" fill="#fff"/>
  <path d="M418.93,479.77c-6.67-4.06-12.88,4.73-16.82,5.25-4.52.6-5.74-3.78-9.15-3.99-2.79-.17-7.12,3.09-10.15,3.71-5.88,1.21-5.18-2.54-9.09-4.14-2.26-.92-4.45-.69-6.64-1.58l.57-11.08c15.63,6.49,35.08,5.58,49.64-3.27,1.5.09,1.81,13.19,1.63,15.1Z" fill="#fff"/>
  <path d="M557.66,464l23.67-1.32,1.31,30.9c-3.18-1.65-6.01-4.08-9.4-5.38-.79-.3-5.72-1.85-6.04-1.85h-9.53v-22.35Z" fill="#fff"/>
  <path d="M347.93,674.33c-13.52,5.64-27.84,6.4-42.3,7.26-1.43-.35-1.73-13.56-1.75-15.8,14.92,2.8,30.15,1.66,44.05-4.6v13.15Z" fill="#fff"/>
  <path d="M218.41,644.1c2.64.49,3.49,4.78,6.28,5.27,4.36.76,7.45-4.88,13.48-3,3.39,1.06,4.13,6.26,8.22,6.9,7.01,1.1,9.4-7.09,16.68-2.22,1.1.73,2.01,2.45,3.14,2.78,1.8.53,4.21-.07,6.11.13v7.52c-17.64,2.54-37.7,1-53.91-6.53v-10.85Z" fill="#fff"/>
  <path d="M347.28,633.58v13.15c-1.87-.07-3.13,1.88-4.57,2.33-4.79,1.48-7.75-2.41-11.9-2.04-4.79.43-7.94,5.34-10.79,5.67-4.31.49-3.79-1.28-6.31-2.96-3.25-2.16-6.62-2.49-9.84-.04-.34.66-1.29-.59-1.29-.66v-10.85c15.24,2.54,30-.97,44.71-4.6Z" fill="#fff"/>
  <path d="M283.5,574.43l-5.87,10.17c-6.37-1.37-9.83.16-14.85,3.62-1.46-.04-4.94-5.39-6.86-6.25-5.33-2.37-7.9,2.18-12.51,3.63-1.13-5.78-5.26-7-10.53-5.26-1.03-.86,10.65-10.61,12.13-11.14,12.41,4.08,25.39,5.95,38.49,5.23Z" fill="#fff"/>
  <path d="M319,542.88c.37,2-.61,1.01-1.55,1.37-4.04,1.58-9.17,3.98-12.82,6.27-5.88,3.7-10.62,11.33-18.51,7.8-2.13-.95-4.61-3.76-7.06-4.16-3.34-.55-7.92,2.74-12-.12-.73-.73,2.52-2.96,2.97-3.27,1.32-.89,2.83-1.3,4.21-2.36,1.99-1.54,8.06-7.76,9.74-8.06,11.5,2.76,23.25,2.85,35.02,2.53Z" fill="#fff"/>
  <path d="M222.7,719.69c5.43,3.46-4.02,9.49-7.13,11.29-15.77,9.14-45.24,16.64-63.3,13.82-3.55-.55-13.44-2.89-15.66-5.44-.95-1.09-3.58-7.2-1.36-7.17,18.79,14.26,47.18,7.21,67.37-1.02,6.55-2.67,15.15-6.59,20.08-11.48Z" fill="#fff"/>
  <path d="M347.93,650.02c.27,7.52,1.01,8.23-5.93,10.83-8.4,3.15-20.34,4.3-29.27,3.65-1.74-.13-8.95-1.03-9.42-2.41.13-4.51-1.83-9.78,3.81-11.13,5.12-1.23,4.69,1.91,8.23,3.69,7.5,3.76,8.78-3.53,14.66-4.47,4.95-.79,6.66,2.53,10.37,2.5,2.75-.03,4.7-2.85,7.55-2.65Z" fill="#fff"/>
  <path d="M332.81,455.45v11.83c-1.92.11-4.11-.33-5.96.29-2.19.73-1.79,3.55-4.87,3.04-2.02-.34-4.78-7.08-10.52-6.65-3.41.26-6.61,4.59-9.79,5.26-2.85-5.05-5.52-7.31-11.58-5.22,0-1.62-.31-10.21,1.05-10.56,13.74,2.76,27.73,1.96,41.68,2.02Z" fill="#fff"/>
  <path d="M539.25,464v18.73c0,.18-1.03,1.8-1.32,1.98-3.12,1.93-18.76-7.19-23.67-6.25v-17.09l24.98,2.63Z" fill="#fff"/>
  <path d="M292.71,561.94c.42.32-5.76,8.28-6.2,8.59-3.12,2.23-17.99,1.1-22.32.52-5.55-.74-10.79-2.57-16.19-3.86-.39-1.73.44-1.02.96-1.36,3.52-2.29,11.65-9.44,15.21-9.8,2.48-.25,3.99,1.7,6.49,1.98,2.95.33,5.97-1.08,8.41-.55,1.94.42,4.46,3.54,7.04,4.17,2.2.54,4.38.27,6.59.32Z" fill="#fff"/>
  <path d="M321.63,734.81c.86,5.66-4.16,9.05-8.33,11.71-13,8.3-34.47,13.7-49.84,12.59-5.85-.42-23.51-4.23-27.09-8.73-.86-1.08-1.81-6.11.14-5.74,22.27,14.75,49.21,10.87,71.78-1.18l13.35-8.66Z" fill="#fff"/>
  <path d="M413.52,481.87c5.5-.82,7.22,2.89,5.77,7.79-12.91,5.51-30.86,7.02-44.56,3.75-5.09-1.22-10.15-2.83-8.25-9.23,1.59-5.35,6.96.79,8.46,1.8,2.85,1.92,5.96,2.15,9.33,1.53,2.59-.48,5.67-3.34,8.04-3.2,2.52.14,4.86,4.14,9.23,4.03,3.56-.09,7.84-5.84,11.98-6.47Z" fill="#fff"/>
  <path d="M521.51,503.43c-.27-4.76-2.46-8.77-5.5-12.25l-12.26-6.13c5.85-3.55,9.78-4.1,16.4-2.28,3.6.99,8.46,3.91,11.83,4.61,2.2.45,6.49-.21,7.62.93,6.7,12.86-9.4,13.87-18.09,15.13Z" fill="#fff"/>
  <polygon points="590.54 648.04 553.06 635.23 590.54 627.67 590.54 648.04" fill="#fff"/>
  <path d="M296.66,402.87c7.61,7.42,18.37,8.55,28.4,6.38,4.88-1.06,9.64-4.47,13.65-5.44.66-.16,1.28.34,1.34.72.06.41-1.59,7.61-1.8,8.05-1.21,2.6-13.3,5.66-16.36,5.99-7.87.83-16.09.26-22.95-3.84-5.97-3.57-2.89-6.13-2.27-11.85Z" fill="#fff"/>
  <path d="M234.19,533.68c.27,1.2-.37,1.29-1.09,1.85-1.31,1.02-9.27,5.98-10.31,5.91-5.75-3.82-13.05-6.18-19.91-7.03-2.36-.29-5,.25-7.17-.08-.96-.14-1.06.39-.99-1s4.22-11.22,5.02-11.41l34.45,11.76Z" fill="#fff"/>
  <path d="M160.56,642.13c8.68,6.09,18.16,10.69,28.86,11.9.26,1.77.22,11.92-1.54,12.27-9.32-2.7-19.6-4.57-27.31-10.69v-13.47Z" fill="#fff"/>
  <path d="M555.03,487l-11.17,7.23c-2.66-10.01-1.95-19.96-1.98-30.24h12.16l.99.99v22.02Z" fill="#fff"/>
  <path d="M161.22,615.18c4.77,1.68,9.17,4.82,14.13,6.58,2.77.98,15.65,3.26,16.11,3.96.98,1.49-1.23,2.11-1.29,2.4-.33,1.42.71,8.09-1,8.09-4.27-5.05-10.79.45-15.13.07-3.92-.34-7.37-10.64-12.81-10.57v-10.52Z" fill="#fff"/>
  <path d="M557.66,503.44c-6.2.43-3.64,12.73-11.71,6.92.19-3.86,2.99-5.15,3.82-8.24-3.81.06-5.55,4.81-6.61,7.85-7.68-1.3-1.54-12.44,3.79-13.63,7.66-1.72,23.64,3.06,23.15,13.26-.43,1.43-13.37,3.01-15.09,2.07-1.03-.79-.35-.76-.1-1.43.38-1.03,3.15-6.41,2.74-6.8Z" fill="#fff"/>
  <path d="M518.88,504.09l-18.41.66c-.55-4.79,5.17-5.08,5.25-9.2-5.71.02-7.08,4.15-8.97,8.59l-4.17-.71c-.36-.49,3.61-5.71,4.06-6.79.32-.79.66-1.51-.46-1.74-2.03-.43-7.1,5.6-6.9,7.89-6.31-2.76-.14-8.32,3.36-10.78,6.09-4.3,9.02-4.82,15.97-1.62,5.55,2.55,9.96,7.38,10.28,13.72Z" fill="#fff"/>
  <path d="M236.35,471.05c-2.98-3.07-2.44-9.87-10.69-6.39l5.26-13.8c3.94,4.89,8.97,8.85,14.93,11.02,1.83.67,7.59,1.38,7.98,2.54.3,1.7.32,12.61-1.55,12.71-2.23-1.18-4.5-4.95-6.89-5.64s-5.92,2.77-9.04-.44Z" fill="#fff"/>
  <path d="M573.45,509.35c-1.46-10.67-10.19-14.52-20.04-15.8-.95-.12-1.93.61-1.65-.95,4.82-5.75,15.4-3.63,21.5-1.13,1.65.68,9.52,5.34,10.68,6.41,1.69,1.56,1.94,5.24.35,6.86-.61.62-10.37,5.01-10.83,4.61Z" fill="#fff"/>
  <path d="M168.2,635.14c1.8,1.95,1.89,3.29,5.26,3.66,5,.54,15.64-5.25,16.7,3.64,1.32,11.04-4.77,8.65-12.49,5.92-2.9-1.03-15.7-7.96-16.78-10.17-1.03-2.1.07-6.73-.32-9.21,3.79-.06,5.29,3.61,7.64,6.16Z" fill="#fff"/>
  <path d="M253.17,479.86l.09,5.17c-9.67.74-21.77-3.8-29.26-9.87-6.04-4.9,2.57-9.81,6.46-8.44,1.37.48,2.91,5.87,5.08,7.42,4.77,3.38,6.92-.19,9.34.47,1.6.43,2.23,2.96,3.51,3.78s3.34.77,4.77,1.47Z" fill="#fff"/>
  <path d="M559.86,275.58c-4.44,4.39-9,9.17-16.2,7.52-3.7-.85-10.62-10.78-9.66-14.98,9.68,4.1,19.93,5.19,29.92,1.33,2.11.13-1.22,3.85-1.62,4.29-.74.83-1.76,1.17-2.43,1.83Z" fill="#fff"/>
  <path d="M227.63,550.11c.05-2.29-2.28-4.31-.99-6.57.26-.45,7.21-5.29,8.39-6.08,2.2-1.49,13.25-8.54,14.93-8.78,1.82-.26,4.46,1.55,5.94,2.7.23.95-2.9,2.89-3.74,3.48-4.24,3.01-9.39,6.31-13.8,9.21-1.39.91-10.15,6.53-10.73,6.03Z" fill="#fff"/>
  <path d="M587.24,506.73c.69,4.78-4.28,7.29-8.09,8.67-8.16,2.94-33.05,6.69-39.58.54-1.13-1.06-2.24-3.19-1.31-4.61,9.65,4.75,24.75,4.17,35.05,1.5,4.93-1.27,9.36-4.04,13.94-6.11Z" fill="#fff"/>
  <path d="M537.28,503.44l-3.31,3.59c-6.75,4.7-36.23,5.33-44.19,2.82-2.29-.73-4.53-3.06-5.1-5.42l11.52,2.95c7.09-.38,14.69.52,21.71.03,6.61-.46,12.92-2.75,19.37-3.96Z" fill="#fff"/>
  <path d="M537.28,354.89c.42,1.53-.39,1.11-.84,1.5-1.92,1.69-10.7,10.01-12.12,10.23-2.85.45-2.28-2.57-1.87-4.55,1.55-7.3,8.56-7.54,14.83-7.19Z" fill="#fff"/>
  <path d="M590.54,239.2v15.12c-1.94-.54-4.75-1.25-5.78-3.03-.23-1.19,2.95-12.36,5.78-12.08Z" fill="#fff"/>
  <path d="M369.63,573.1c-.99.74-10.21-3.19-9.84-4.87,1.1-1.34,3.24-3.7,5.23-2.72l4.61,7.59Z" fill="#fff"/>
  <path d="M590.53,236.57c-.75.99-1.24,0-1.34-.99-.23-2.32,1.22-5.04.69-7.54,1.15-.15.62,1.49.65,2.29.09,2.08-.06,4.18,0,6.25Z" fill="#fff"/>
  <path d="M196.06,536.96v1.3s-3.28.66-3.28.66c-.18-2,1.66-2.15,3.28-1.96Z" fill="#fff"/>
  <path d="M52.73,176.1c1.33-12.04-.59-21.68,3.64-33.49,3.95-11.02,9.3-13.95,15.76-22.37.5-.66,1.28-.83.98-1.97-4.1.27-8.75,1.17-12.79,1.34-8.38.35-22.31.9-30.3,0-.97-.11-2.56-.32-2.27-1.66.23-1.05,5.13-1.6,6.22-1.68,13.62-1.02,29.16,1.55,42.6-.79,3.92-.68,5.96-2.83,6.4-6.75s-.86-28.21.71-29.2l1.92-.05.66,30.24c6.67-2.11,12.86-5.94,19.56-8.37,34.94-12.72,89.09-11.98,120.7,9.14,2.25,1.5,9.86,9.82,12.64,5.85,1.33-1.9-.33-39.98.26-46.41.16-1.73.3-3.65,1.68-4.9,1.51,0,1.54,1.13,1.66,2.27,1.62,14.42-2.03,31.05-.72,45.41.52,5.73,5.93,5.27,10.85,5.58,21.96,1.4,45.15-2.19,67.12-.71,3.11.21,6.75.68,9.5,2.01-.6,1.08-3.76,1.26-4.9,1.33-19.25,1.2-41.66.16-61.19-.06-4.89-.06-9.98.36-15.02-.05-3.71-.3-6.56-2.53-10.27-.57l7.35,12.04c3.87,7.99,5.91,16.03,6.45,25.1.34,5.77-.24,11.64,0,17.41h54.9c1.84,0,4.78-3.04,4.78-5.09l.82-34.02c.47-2.56,2.62-1.43,2.62-.66v32.86c0,1.23-2.23,6.66-1.97,6.9l41.41,1.32-1.09,2.52-101.48-.55-.66,13.8c-.2.21-2.48-.27-2.9-.58-1.52-1.12-.03-32.56-.47-37.78-2.86-33.67-32.38-50.65-62.91-55.42-50.3-7.86-133.31,6.92-129.01,73.05,2.39,33.39-3.07,71.02,0,103.91.17,1.8.58,4.09,1.68,5.55,4.25,5.62,25.54,2.66,32.83,2.61,33.11-.22,66.22.25,99.33.01l4.25,1.34c.36.48-.59,1.96-.98,1.96h-94.35c-.31,3.01.41,6.67.05,9.57-.16,1.28-1.3.62-1.43,1.92-.06.59,1.21,2.96,1.38,2.96h85.14c1.56,0,3.62,1.62,1.66,2.97l-129.87.91-4.31,4.96c.48,12.47-1.51,25.06-.64,37.53.28,3.94.73,4.37,4.26,6.27l75.17.12c2.22-1.02,1.55-2.71,2.19-4.26.23-.56,1.12-.53,1.23-.98,1.31-5.58-.38-18.7.03-25.49.12-2.05.54-7.1,1.09-8.77.35-1.1.73-2.33,2.19-2.07.68,11.46-1.79,23.76-.64,35.15.53,5.24,2.36,6.45,7.52,6.94,27.04,2.54,58.05-1.95,85.51-.04l3.31,1.32-.36,1.98h-52.6c.64,1.75-1.22,1.77-1.37,2.95-.36,2.75,1.26,1.96,1.43,3.25.71,5.44.69,24.2,0,29.67-.16,1.25-1.26.64-1.42,1.88-.38,2.96-.3,10.86,0,13.93.04.36,1.31,3.29,1.45,3.42.96.92,23.29.2,26.57.15,4.69-.07,10.59-1.96,15.16-.1,2.27.93.7,2.51-1.35,2.73-25.93,2.88-54.67-.85-80.92.61-3.68.44-4.31,2.33-5.82,5.05-.19.34-1.07.16-1.07.22v37.14c0,1.11-1.53,2.31-2.59,1.61-1.25-.83-.78-26.07-.73-29.9.06-4.27,2.38-9.82-1.76-13.3l-114.2-.14-.34-1.93c.34-.54,11.07-1.33,12.75-1.4,48.6-2.02,98.39,2.33,147-.93,2.66-1.15,3.6-3.19,3.91-5.95,1.22-10.78.91-34.29.03-45.38-.1-1.26-.39-2.38-.69-3.58h-81.2c-1.18,0-2.17,3.8-2.3,4.93-1.46,12.78.95,28.29.03,41.44-.09,1.27-.4,2.38-.7,3.58-2.69-.32-2.18-3.78-2.25-6.25-.36-13.27.9-26.75.24-40.05l-.96-2.33c-.3-.32-2.33-1.33-2.62-1.33H11.97l.39-2.03c9.38-2.53,19.34-.37,28.86-1.26,3.47-.33,6.45-.99,6.94-4.9.96-7.72-.18-18.8-.06-27,.09-6.25,4.05-17.33-5.66-17.82-8.4-.42-19.18,1.63-27.54.19-1.12-.19-1.83-.92-2.93-1.09l.65-1.64,82.19-.98v-14.46h-33.2c-2.94,0-7.7-5.24-8.18-8.26-.36-2.25-.6-6.65-.73-9.13-.58-11.11.48-22.72.03-33.88H8.03l.42-2.54c4.2-.4,20.31.64,22.26-3.37,2.29-15.58.09-31.63,1.36-47.35-1.96-6.38-17-1.09-21.42-4.25-1-.71-.04-1.64.33-1.64h41.75ZM52.41,178.73h-14.46c-1.25,0-4.02,3.3-3.63,4.92,1.17,13.94-2.25,29.69-.66,43.41,1,8.63,18.86,5.55,19.11,4.48l.66-50.54-1.02-2.27Z"/>
  <path d="M213.39,139.06c.49.55,1.4.76,2.03,1.57,10.67,13.64,8.75,29.52,9.06,45.85l41.61,21.16.32,2.63-49.3-24c.03-2.85,3.51-.52,3.94-.98.02-13.66,1.42-27.38-6.24-39.43l-1.7,1.61-.56,111.81-131.22.3-1-3.6c2.15-31.13-2.78-65.94.04-96.64,2.03-22.08,25.77-32.51,44.69-36.83,27.2-6.21,68.4-5.62,88.34,16.54ZM157.93,122.2l-25.64,1.97v132.77h25.64v-37.79c-1.56-2.91-11.9-13.78-11.83-16.47.02-.87.74-1.8,1.63-1.61,2.01.43,6.89,11.16,10.2,11.83v-90.71ZM171.73,256.95V123.85l-.99-.99h-9.53v134.09h10.52ZM195.4,129.43l-20.38-5.92v133.43h13.15l-8.57-12.64c-3.01-1.65-2.52-5.76,1.06-3.18,3.9,2.82,8.07,15.39,13.89,15.72.56.03,1.51-.49,1.51-.89v-46.67l-16.43-13.16c-.2-.57.67-1.57,1-1.64,1.73-.36,13.21,10.42,14.45,10.51,1.62.11.33-1.55.33-1.63v-26.62c-1.85-.95-13.78-7.96-13.79-8.87,0-.71,1.45-1.02,2.24-.97,2.97.2,8.04,5.52,11.55,5.9v-43.38ZM118.57,127.55l-.09,128.41c.21,2.37,6.32,1.93,8.25,1.67,2.18-.29,2.67-.81,2.96-2.96,1.72-12.99-.61-31.89-.72-45.35-.24-28.16.25-56.34.02-84.49l-10.43,2.72ZM115.85,256.95v-127.19c-.52-.6-.52-.79-1.36-.73-3.98.29-15.71,7.18-19.04,9.91-5.13,4.21-11.82,14.29-11.82,21.05v96.95h32.22ZM198.69,132.72v123.24c1.2,1.61,10.24,1.3,10.89.37,1.06-34.64-.41-69.55.26-104.26.08-4.32,2.18-9.18-.62-13.12-1.06-1.49-9.25-7.59-10.52-6.24Z"/>
  <path d="M201.6,275.73c7.33,10.17,14.76,20.01,22.19,30.1,1.18,1.61,8.92,9.54,7.11,11.58-1.16.24-1.62-.6-2.31-1.3-8.74-8.96-18.47-24.46-25.97-34.98-3-4.22-7.97-8.96-10-13.85-.69-1.65-.35-3.95,1.47-2.79.71.46,6.22,9.47,7.5,11.24Z"/>
  <path d="M244.05,242.48c-1.2.27-1.82-.38-2.73-.88-4.87-2.69-12.58-8.73-17.31-12.27-.87-.65-8.58-6.3-7.57-7.22,1.82-.21,3.34.5,4.82,1.42,5.29,3.31,12.44,8.83,17.49,12.75,1.01.79,6.65,4.84,5.3,6.2Z"/>
  <path d="M41.56,597.43c.28-2.95,5.97-3.87,8.4-4.41,2.99-.67,24.41-3.27,24.46.15-4.2,2.02-10.04.65-14.77,1-6.12.44-12.02,2.55-18.09,3.27Z"/>
  <path d="M279.89,93.28c.3.07,3.4,1.93,3.61,2.62-4.41,1.6-8.65.11-12.82-.05-1.93-.07-5.47,1.73-6.16-.36l-.08-2.22c4.4.66,11.43-.9,15.45,0Z"/>
  <path d="M88.67,331.99c2.04-.64,12,.68,12.05,2.85-.85,1.27-1.59.97-2.85.93-1.53-.05-10.1-1.4-10.28-2.25-.16-.73.44-1.32,1.09-1.53Z"/>
  <path d="M24.47,396.29c-1.24-4.81,11.79-2.49,11.82-.33-3.07,2.06-8.08-.59-11.82.33Z"/>
  <path d="M219.07,386.44c1.62,5.06-11.16.34-11.16-.34,2.98-2.43,7.71.3,11.16.34Z"/>
  <path d="M329.53,203.71c2.09-1.16,10.21,3.14,9.86,4.92-.92,1.32-.91.69-1.81.52-.98-.19-9.55-4.17-8.05-5.44Z"/>
  <path d="M144.78,765.7l-.39,2.03-50.9,7.49-11.17,2.95c22.16,5.71,43.92,13,65.27,21.19,11.59,4.44,30.12,10.84,40.39,16.8,1.35.78,2.37,2.3,3.47,3.42-1.37.13-2.61.04-3.95-.32-7.5-1.98-19.08-8.65-26.97-11.82-21.76-8.73-45.7-17.72-68.35-23.69-18.89-4.98-23.72-3.18-42.22,1.19-7.63,1.8-15.32,3.94-22.87,6.05-2.49.7-16.79,5.9-17.75,4.92.06-.77-.34-1.41.41-2.02,1.24-1,7.94-3.02,9.98-3.7,6.81-2.29,13.95-4.2,20.89-6.06,9.02-2.42,18.46-3.94,27.23-6.95-12.26-2.98-24.49-6.37-36.79-9.22-2.6-.6-22.35-4.04-22.36-5.24.67-.77,1.23-1.48,2.33-1.65,2.31-.37,16.11,2.75,19.5,3.48,15.31,3.29,30.38,7.98,45.66,11.41,22.51-5.02,45.44-9.87,68.6-10.28Z"/>
  <path d="M536.17,747.13c.12.23.78.21,1.1.17v.63c-1.78-.08-1.46,2.12-2.62,3.63-8.54,11.18-51.6,10.88-63.58,5.71-12.64-5.46-3.74-15.27,4.61-19.31,14.47-7,50.62-10.1,59.76,6.23.5.9.25,2.09.72,2.93ZM496.37,735.64c-7.37.73-20.66,4.22-25.85,9.65-5.5,5.75-.76,8.56,4.98,10.2,9.14,2.61,30.8,2.46,40.34.93,6.85-1.1,24.56-5.81,14.16-14.65-8.03-6.82-23.57-7.11-33.62-6.12Z"/>
  <path d="M49.96,721.85c5.93-.66,24.9,4.49,20.19,12.95-2.48,4.46-19.59,5.02-24.31,4.59-19.31-1.77-9.57-16.01,4.12-17.55ZM48.63,725.12c-2.81.42-13.76,5.95-10.06,9.06,4.81,4.04,21.24,3.03,26.81.45,7.81-3.62-5.79-9.29-9.7-9.68-2.08-.21-4.98-.14-7.05.16Z"/>
  <path d="M432.08,792.64c-4.12.56-8.16-.77-12.18-.69-2.75.05-10.22,2.53-11.75,1.39-3.44-2.57,7.14-3.78,8.57-3.89,3.84-.31,14.21-1.1,15.36,3.2Z"/>
  <path d="M358.49,779.45c-.22-.35.05-1.34-.05-1.92,4.55-.24,9.38-1.47,13.82.32,3.03,1.22,2.58,2.97-.79,2.8-1.88-.09-12.62-.63-12.98-1.2Z"/>
  <path d="M85.94,813.02h13.81c.24,0,1.12.99.98,1.63-.36,1.65-9.39.93-11.49,1-2.55.09-7.4,1.84-3.3-2.63Z"/>
  <path d="M561.61,755.85c.14.17-.08,1.42,0,1.95-2.09.28-12,.55-12.49-.98-1.37-4.32,11.95-1.61,12.49-.97Z"/>
  <path d="M216.44,803.81c-.18-.9.24-1.59,1.1-1.86,1.76-.57,13.29,1.34,13.35,3.51-.83,1.21-1.59,1.03-2.86.94-3.34-.24-7.85-2.59-11.58-2.59Z"/>
  <path d="M560.76,559.78c-3.88,5.56-12,12.51-18.21,15.64-2.5,1.26-8.04,2.57-9.43,3.56-.71.51-1.13,2.31-2.07,3.36-7.46,8.41-35.48,6.96-44.87,2.08-3.45-1.79-4.07-5.5-5.74-6.75-1.23-.92-5.28-1.69-7.19-2.67-9.71-5-23.23-18.48-21.41-30.44.9-5.92,10.68-9.64,15.74-11.21,19.76-6.16,64.91-6.6,84.33.47,4.62,1.68,11.91,4.99,12.81,10.2.83,4.81-1.21,11.8-3.98,15.76ZM560.75,541.77c-1.07-1.03-7.96-4.5-9.66-5.14-18.6-6.95-74.21-7.78-90.95,3.06-5.73,3.71-7.35,6.49-4.33,13.18,11.51,25.54,48.43,29.82,72.95,24.53,11.77-2.54,27.27-12.51,32.15-23.86,1.28-2.98,2.43-9.27-.16-11.77ZM528.07,581c-14.41,1.69-28.48,1.76-42.73-1.31,1.59,2.65,5.69,3.63,8.55,4.27,9.14,2.05,23.03,2.6,31.69-1.18.71-.31,2.47-.9,2.49-1.77Z"/>
  <path d="M557.01,598.09c1.65-.34,13.72.24,13.14,2.94-.28,1.3-1.83.76-2.63.71-3.04-.22-6.18-1.47-9.43-1.12l-1.08-2.53Z"/>
  <path d="M439.32,534.34c2.18,2.26-7.34,2-8.17,1.89-2.44-.32-2.63-.72-2.35-3.21,3.74-.22,7.03-.05,10.52,1.32Z"/>
  <path d="M433.17,661.61c-1.59,1.54-4.29,3.98-6.34,4.83-1.04-1.19,4.35-7.88,5.45-9,.62-.63,1.97-.69,2.78-1.5,1.72-1.71,11.46-12.2,13.12-11.85,4.97,1.05-5.19,7.16-5.61,7.53-3.39,3.01-6.27,6.95-9.41,9.99Z"/>
  <path d="M407.76,643.44c1.65,1.72-5.39,7.46-6.24,9.19-3.73-2.22,4.99-10.49,6.24-9.19Z"/>
  <path d="M442.61,669.73c-.85-.85,4.51-6.29,5.47-6.7.8-.34,1.55-.58,1.76.47.22,1.14-6.28,7.18-7.23,6.23Z"/>
  <path d="M282.39,340.22c-2.74-2.63-2.46-7.93-1.55-11.33.55-2.06,5.06-8.6,6.63-10.47.7-.84,4.02-4.47,4.9-4.29,3.06.64-3.22,6.93-3.87,7.95-7.26,11.35-5.93,21.91,9.81,15.91l1.37,1.81c-2.87,5.02-13.67,3.89-17.29.42Z"/>
  <path d="M319.43,288.57c2.84-.96,5.13,2.44,7.43,3.58s11.52,4.09,12.23,5.55c.35.72.47,1.28,0,1.98-1.76,3.4-12.57-1.06-15.26-2.52-1.27-.69-4.62-2.87-5.13-4.06s-.87-3.98.73-4.52Z"/>
  <path d="M272.82,309c6-.54,7.88,10.36,1.3,13.19-8.59,3.7-9.72-12.44-1.3-13.19Z"/>
  <path d="M317.24,321.82c-.81-1.2-.87-3.12-.72-4.55.2-1.98,3.33-6.12,5.5-6.4,6.8-.88,6.89,11.3,2.28,12.83-2.27.75-5.72.12-7.06-1.88Z"/>
  <path d="M278.74,287.96c.93-.13,1.8-.37,2.5.5,3.45,5.01-12.55,10.8-16.17,9.61-1.52-.5-2.42-1.56-1.88-3.23.51-1.57,8.28-3.48,10.26-4.24,1.76-.67,3.3-2.37,5.29-2.65Z"/>
  <path d="M288.19,359.57c.27-.47,5.05-2.52,6.06-2.81,5.81-1.66,16.57-2.58,20.18,3.05-.78,3.37-3.87.39-5.91-.03-1.71-.35-4.64-1-6.24-.97-3.4.06-10.75,3.53-12.52,3.34-1.31-.14-2.22-1.42-1.56-2.59Z"/>
  <path d="M378.67,326.11c2.67-.38,4.33.02,6.06,2.15-3.65,1.8-6.27.35-9.8,3.34-.76.64-4.99,6.94-4.65,1.32.2-3.31,5.39-6.38,8.39-6.81Z"/>
  <path d="M529.32,395.05c.38,8.12-.06,16.44.74,24.57.44,4.53,2.73,12.04,2.67,15.79-.02,1.19.08,2.19-1.05,2.95-1.42.29-1.92-2.21-2.12-3.13-1.36-6.18-5.22-35.72-2.82-39.83l2.58-.35Z"/>
  <path d="M548.04,431.56c.2.4,2.24,1.03,1.69,3.1-.59,1.13-1.52,1.46-2.61.76-2.57-1.63-8.13-21.42-6.55-25.33,2.3-2.26,3.62,10.05,3.85,10.93.86,3.31,2.11,7.5,3.62,10.53Z"/>
  <path d="M457.07,435.08c1.09,1.08-2.4,2.56-3.43,2.51-.72-.03-8.94-2.18-9.33-2.46-.61-.11-.52-1.33-.4-1.7.83-2.62,10.98,1.62,13.16,1.65Z"/>
  <path d="M450.49,399.58c-2.2.59-11.97.57-12.85-.62-.38-.38-.45-1.75-.29-2,.62-.93,15.75-.15,13.14,2.61Z"/>
  <path d="M466.28,237.23h-12.16c-.49,0-2.46-1.09-2.95-1.64-.05-2.28,11.39-1.92,13.32-1.5,2.23.49,2.57,1.22,1.79,3.14Z"/>
  <path d="M429.13,210.28h11.83l.98,1.63c-.41.32-1.44,1.65-1.64,1.65h-11.18c-1,0-1.52-2.7,0-3.29Z"/>
  <path d="M42.22,661.85c.6-.56,14.97,4.53,14.46,6.89-1.28,1.8-3.2.77-4.75.16-.94-.37-11.17-5.69-9.7-7.05Z"/>
  <path d="M547.8,43.98c-.45.39-11.43-.23-11.83-.66-.12-.13.05-1.41.03-1.93.79-1.27,11.92-1.29,11.8,2.59Z"/>
  <path d="M563.25,30.18c.51.14,1.33,1.47.98,1.96-3.64.97-7.75,1.07-11.44.07l-.39-2.03c2.9.52,8.36-.71,10.85,0Z"/>
  <path d="M549.12,673.02c1.12-1.12,7.93,4.68,8.53,6.24-1.07,1.49-1.58.92-2.84.22-1.05-.59-7.1-5.05-5.69-6.46Z"/>
  <path d="M342.01,68.96c-.72.71-9.77-1.41-8.54-4.59,1.44-.05,10.75,2.42,8.54,4.59Z"/>
  <path d="M349.9,63.7c-1.39-.21-8.23-1.96-7.88-3.6.47-2.18,9.76-.17,7.88,3.6Z"/>
  <path d="M461.76,149.07c-.34-.42.04-1.83-.09-2.55,1.44-.1,8.93.37,9.2,1.65.58,2.74-8.6,1.53-9.12.9Z"/>
  <path d="M556.8,243.61c-2.34,2.58-9.87,3.82-13.28,3.47-1.55-.16-9.49-2.62-7.56-4.6,3.62-.28,5.79,2.07,9.53,2.02,3.4-.05,10.23-3.53,11.17-3.34,1.2.25.83,1.68.14,2.44Z"/>
  <path d="M560.11,213.65c3.69-.54,4.54,8.87-1.43,7.8-4.23-.76-2.42-7.24,1.43-7.8Z"/>
  <path d="M568.18,209.62c-.5.56-4.22-2.57-5.25-2.96-2.28-.87-6.05-1.19-8.56-1.64v-1.96c4.75-.8,13.81.6,13.81,6.57Z"/>
  <path d="M537.16,213.67c.56.84-2.63,5.24-3.16,5.52-4.95,2.64-5.89-11.38,3.16-5.52Z"/>
  <path d="M539.25,205.68c-5.09-1.94-6.86.45-10.74,2.09-.79.34-1.51.64-1.75-.46-.9-4.2,13.06-7.99,12.49-1.63Z"/>
  <path d="M52.41,178.73l1.02,2.27-.66,50.54c-.25,1.07-18.11,4.15-19.11-4.48-1.59-13.72,1.83-29.47.66-43.41-.39-1.61,2.38-4.92,3.63-4.92h14.46Z" fill="#fff"/>
  <path d="M115.85,256.95h-32.22v-96.95c0-6.76,6.68-16.84,11.82-21.05,3.33-2.73,15.05-9.62,19.04-9.91.84-.06.84.12,1.36.73v127.19Z" fill="#fff"/>
  <path d="M157.93,122.2v90.71c-3.31-.66-8.19-11.4-10.2-11.83-.9-.19-1.61.73-1.63,1.61-.07,2.69,10.27,13.56,11.83,16.47v37.79h-25.64V124.17l25.64-1.97Z" fill="#fff"/>
  <path d="M195.4,129.43v43.38c-3.51-.38-8.58-5.7-11.55-5.9-.8-.05-2.25.26-2.24.97.01.91,11.95,7.92,13.79,8.87v26.62c0,.08,1.29,1.74-.33,1.63-1.24-.08-12.72-10.86-14.45-10.51-.33.07-1.2,1.07-1,1.64l16.43,13.16v46.67c0,.4-.95.92-1.51.89-5.82-.33-9.99-12.9-13.89-15.72-3.57-2.58-4.07,1.53-1.06,3.18l8.57,12.64h-13.15V123.52l20.38,5.92Z" fill="#fff"/>
  <polygon points="171.73 256.95 161.22 256.95 161.22 122.86 170.75 122.86 171.73 123.85 171.73 256.95" fill="#fff"/>
  <path d="M118.57,127.55l10.43-2.72c.22,28.15-.26,56.34-.02,84.49.11,13.46,2.44,32.36.72,45.35-.28,2.15-.78,2.67-2.96,2.96-1.93.25-8.04.7-8.25-1.67l.09-128.41Z" fill="#fff"/>
  <path d="M198.69,132.72c1.27-1.34,9.46,4.75,10.52,6.24,2.8,3.93.71,8.8.62,13.12-.66,34.71.8,69.61-.26,104.26-.65.93-9.69,1.24-10.89-.37v-123.24Z" fill="#fff"/>
  <path d="M496.37,735.64c10.05-.99,25.59-.7,33.62,6.12,10.4,8.84-7.31,13.55-14.16,14.65-9.54,1.53-31.2,1.68-40.34-.93-5.73-1.64-10.47-4.45-4.98-10.2,5.19-5.43,18.48-8.92,25.85-9.65Z" fill="#fff"/>
  <path d="M48.63,725.12c2.07-.31,4.97-.37,7.05-.16,3.9.39,17.51,6.06,9.7,9.68-5.56,2.58-22,3.59-26.81-.45-3.7-3.11,7.26-8.64,10.06-9.06Z" fill="#fff"/>
  <path d="M560.75,541.77c2.59,2.5,1.44,8.8.16,11.77-4.88,11.36-20.38,21.33-32.15,23.86-24.53,5.29-61.44,1.01-72.95-24.53-3.01-6.69-1.39-9.47,4.33-13.18,16.74-10.84,72.34-10.02,90.95-3.06,1.7.63,8.59,4.1,9.66,5.14ZM464.83,543.03c-.54-.35-1.25-.1-1.84-.15-.35,5.71,4.89,7.69,9.5,9.23,18.54,6.19,57.75,5.35,76.1-1.53,2.22-.83,10.44-4.18,4.84-5.05-4.84,1.91-10.39,3.88-15.47,4.93-15.66,3.23-59.25,4.96-71.72-5.25-.74-.61-1.17-2.03-1.4-2.17Z" fill="#fff"/>
  <path d="M528.07,581c-.02.87-1.78,1.46-2.49,1.77-8.67,3.79-22.55,3.23-31.69,1.18-2.86-.64-6.96-1.62-8.55-4.27,14.25,3.08,28.32,3.01,42.73,1.31Z" fill="#fff"/>
  <path d="M464.83,543.03c.23.15.66,1.57,1.4,2.17,12.47,10.21,56.06,8.48,71.72,5.25,5.08-1.05,10.63-3.02,15.47-4.93,5.6.87-2.61,4.22-4.84,5.05-18.35,6.89-57.56,7.72-76.1,1.53-4.61-1.54-9.85-3.52-9.5-9.23.59.05,1.3-.2,1.84.15Z"/>
</svg>