<?xml version="1.0" encoding="UTF-8"?>
<svg id="Camada_1" xmlns="http://www.w3.org/2000/svg" version="1.1" viewBox="0 0 595.28 841.89">
  <!-- Generator: Adobe Illustrator 29.0.0, SVG Export Plug-In . SVG Version: 2.1.0 Build 186)  -->
  <path d="M.14,841.29V-.06h595v841.34H.14ZM159.9,3.89H4.08v294.47h64.1l.98,1.63c-.41.32-1.44,1.65-1.64,1.65h-27.94v41.08c0,1.6-1.84.82-2.3-1.33-1.38-6.41-.59-22.96-.36-30.24.1-3,1.26-6.28.68-9.5H5.73c-.2,0-.94-.9-1.64-.66v72.96h72.65c.78,0,2.55,2.7-1.37,3.21-5.24.68-12.83-.61-18.39-.61-3.78,0-6.42-.53-6.88,3.67-1.12,10.2,1.12,23.6-.02,34.18l1.02,2.27h26.63c1.3,4.79-7.4,3.26-10.84,3.28-10.15.08-20.8-.25-31.02-.41-5.77-.09-11.53.9-17.31-.25-.27-.73.28-2.63.99-2.63h27.94v-40.1s-43.39,0-43.39,0v101.88h68.38c.3,1.55,1.18,2.27-.98,2.63l-67.39.65v355.6h586.45V3.89H162.53c-.38.92.66,1.97.66,2.3v40.42h45.04c.67,0,2.36,2.87-.65,2.95-28.62.75-57.5-1.24-86.17-.28l-2.26-1.02c.42-.31,1.43-1.64,1.63-1.64h39.12V3.89Z"/>
  <rect x=".14" y="841.29" width="595" height=".66" fill="#fff"/>
  <path d="M159.9,3.89v42.72h-39.12c-.2,0-1.21,1.34-1.63,1.64l2.26,1.02c28.66-.96,57.55,1.03,86.17.28,3.01-.08,1.32-2.95.65-2.95h-45.04V6.19c0-.33-1.03-1.38-.66-2.3h428.01v833.46H4.08v-355.6l67.39-.65c2.16-.37,1.29-1.08.98-2.63H4.08v-101.88h43.4s0,40.1,0,40.1h-27.94c-.7,0-1.25,1.89-.99,2.63,5.78,1.15,11.55.17,17.31.25,10.22.15,20.87.48,31.02.41,3.44-.03,12.14,1.51,10.84-3.28h-26.63l-1.02-2.27c1.14-10.59-1.1-23.98.02-34.18.46-4.2,3.1-3.68,6.88-3.67,5.56,0,13.15,1.3,18.39.61,3.91-.51,2.14-3.21,1.37-3.21H4.08v-72.96c.71-.24,1.44.66,1.64.66h31.89c.58,3.22-.59,6.51-.68,9.5-.23,7.28-1.03,23.84.36,30.24.46,2.15,2.3,2.93,2.3,1.33v-41.08h27.94c.2,0,1.23-1.34,1.64-1.65l-.98-1.63H4.08V3.89h155.82ZM380.8,53.17c.26-4.1-4.87-3.82-7.46-5.34-5.48-3.22-4.6-8.73-6.96-11.44-3.92-4.5-4.34,3.72-4.99,5.61-2.52,7.29-5.91,7.05-12.14,10.22-.47,2.16,4.59,2.62,5.93,3.26,5.77,2.76,5.54,8.38,8.29,13.54l3.39-.86c.76-8.47,5.71-13.39,13.94-14.99ZM35.64,178.73h101.58c1.18,0,2.17-3.8,2.3-4.93,2.08-18.21.25-48.17-2.72-66.29-5.02-30.63-20.89-60.03-57.26-55.47-43.68,5.48-44.63,61.73-44.53,94.77.01,4.08-.58,30.89.64,31.92ZM537.07,79.03c-9.66-16.72-25.44-26.9-45.51-25.87-4.3.22-9.17,2.25-13.09,2.02-5.05-.3-11.33-3-17.09-3.33-9.9-.55-24.21,2.27-32.77,7.39-2.25,1.35-4.02,3.61-5.91,4.6-3.93,2.06-9.39,2.51-14.05,5.01-18.58,9.99-25.8,36.77-.89,43.83,4.27,1.21,8.97,1.06,13.16,2.61-15.62,6.44-32.18,17.63-30.23,36.8,1.68,16.55,25.4,18.72,38.44,20.74.87.14,2.78-.64,2.32.96-.14.5-8.37,1.05-10.29,1.55-10.97,2.88-25.56,15.49-26.55,27.35-1.07,12.79,11.6,19.51,22.38,22.37,22.19,5.89,79.11,4.98,100.94-2.27,11.84-3.94,15.06-7.65,18.1-19.25.14-.54,1.14-.48,1.25-.95.22-.93.22-4.72,0-5.65-.11-.47-1.1-.4-1.25-.95-3.62-13.06-6.49-15.28-17.61-22.35-.65-.42-1.17.06-.84-1.47,5.35-1.9,11.62-2.54,15.39-7.3.63-.8,4.11-6.53,4.29-7.01,2.5-6.67-.97-15.24-4.68-20.74-3.92-5.81-8.62-8.09-15.02-10.62-2.04-.81-4.5-.69-6.38-1.51-5.44-2.36-9.46-6.71-16.75-8.89-1.75-.52-4.99.24-4.47-1.77,12.07-.94,30.85-3.58,40.71-10.89,7.84-5.81,11.69-15.25,6.4-24.4ZM262.46,93.28c-1.91-1.88,6.35-11.82,8.23-13.14,4.55-3.19,8.14-1.16,7.59-8.91-.45-6.37-5.69-9.86-11.91-8.55-9.4,1.97-14.65,11.77-18.31,19.28-.49,1-.6,2.32-.72,3.43-1.71.46-1.3-1.02-2.25-1.99-9-9.09-23.12-15.01-36.04-11.65-6.69,1.74-3.11,11.03,2.45,11.68,11.36,1.33,16.2.24,25.93,8.26,9.78,8.06,6.63,13.77,7.94,25.25-13.41-5.68-28.11,2.02-25.63,17.75-15.64-.9-26.68,15.45-14.07,27.53,2.07,1.98,5.92,4.03,8.81,4.02v1.64c-2.78,1.66-3.63,7.26-3.13,10.36.77,4.76,7.01,10.66,11.52,12.16.84.28,1.9.12,2.79.15v1.64c-4.72,3.92-2.16,12.08,1.62,16.12,3.52,3.77,7.1,5.19,12.18,5.9-11.64,29.56,37.4,32.45,28.93,1.97,11.03,1.46,19.21-9.07,17.09-19.72,14.21,1.06,24.54-12.19,17.1-25.29,3.04-1.46,5.57-1.32,8.75-3.1,7.66-4.3,9.94-12.56,7.69-20.91,6.27,3.17,13.52,5.72,20.55,3.79,3.54-.97,3.88-4.83,3.81-8.07-.11-4.8-2.26-10.91-3.95-15.15-2.27-5.69-5.31-10.91-8.58-16.06,7.3-2.02,21.73-1.59,11.52-11.86-7.07-7.12-18.42-12.72-28.61-10.5-.91-.93,4.51-5.24,4.81-6.06.81-2.21,1.58-6.74-1.02-7.92-6.39-2.9-21.73.2-28.03,3.22-7.16,3.44-11.14,9.84-15.66,15.92l-11.38-1.22ZM190.45,104.15c-.79-.91-1-2-2.6-1.66-1.94,4.22-1.92,8.2-6.65,10.44-1.08.51-4.76,1.12-4.9,1.77-.76,3.4,3.61,3.42,5.77,4.74,4.48,2.73,3.6,6.51,6.45,9.99,3.41-1.54,3.06-5.2,5.24-7.9,1.59-1.97,6.81-4.31,6.97-5.58l-.47-1.7c-2.75-.87-5.05-1.82-6.81-4.21-1.64-2.22-1.44-4.12-2.99-5.89ZM369.55,175.53h-2.46c-.91,1.89-1.12,4.84-2.43,6.45-1.73,2.14-7.13,2.95-7.55,5.62-.24,1.22.33.84.86,1.15,1.74,1.02,5.44,2.45,6.69,3.81,1.53,1.66,2.11,7.57,3.33,7.85,3-1.08,2.5-4.61,4.58-7.24,2.28-2.89,5.41-2.73,7.56-5.57-1.67-3.15-5.91-2.43-7.89-4.58-1.69-1.84-1.75-5.27-2.69-7.49ZM83.64,246.43v-41.74c0-1.24-3.29-1.24-3.29,0v40.75c-.58.94-1.31.91-2.27,1.02-11.98,1.41-26.84-1.41-39.15-.03-.28.73.28,2.63.98,2.63h74.95l.99.99v37.14c.76.27,2.63-.29,2.63-.99v-37.14h18.08c1.86,0,2.74-2.28-.62-2.66-5.78-.65-12.66.09-18.42.06-11.29-.05-22.6-.02-33.89-.03ZM286.13,623.06v-50.94c0-3.46-5.76-10.4-8.75-12.29-3.67-2.31-11.38-4.61-15.73-5.96-4.36-1.36-9.13-2.8-13.65-3.11-.45-1.78.93-.99,1.52-2.12,11.7-22.57,1.01-54.58-7.12-76.74-4.66-12.7-13.48-27.76-23.97-36.5-3.91-3.25-8.26-5.76-12.49-8.54,11.58-5.92,20.4-17.3,23.35-29.89,1.34-5.7,1.43-11.6,2.21-17.37l-3.13-29.53c8.57-6.53,12.93-18.41,9.04-28.84-.45-1.22-4.09-5.16-4.4-6.25-.93-3.31-.23-6.32-1.99-10.49-2.47-5.83-10.13-11.58-16.38-12.54-2.84-.44-6.82.43-9.22-.59-.87-.37-1.05-1.52-1.88-2.09-5.86-3.95-10.88-6.56-18.25-5.94-2.52.21-9.06,2.55-10.51,2.39s-4.78-3.19-7.36-3.75c-7.89-1.7-18.51,1-24.94,5.88-1.8,1.37-4.64,6.17-5.08,6.42-1.02.59-4.46-.06-6.09.16-8.71,1.2-18.11,7.21-22.83,14.62-1.9,2.98-1.82,7.11-3.22,9.29-1.11,1.72-6.19,4.36-7.84,6.79-1.95,2.89-3.76,9.52-3.78,13-.02,2.78,1.88,7.83,1.7,9.7-.43,4.42-4.52,9.76-4.53,15.93,0,5.63,3.77,9.47,3.98,12.52.25,3.61-1.86,9.65-1.28,15.07.86,8.02,6.19,7.6,7.54,10.87,1.58,3.83-.66,7.45,3.93,11.85,4.1,3.94,6.36,1.55,9.78,2.71.71.24,2.9,3.73,4.42,4.78,1.73,1.18,3.68,1.35,5.2,2.67-8.6,4.26-16.64,10.52-22.98,17.76-17.6,20.12-27.05,56.24-24.26,82.72.57,5.41,6.38,15.42,6.43,17.15.04,1.48-3.04,8.69-3.57,11.5-.68,3.59-1.13,7.1-1.05,10.78-.34,1.02-1.63,1.2-2.51,1.43-11.71,3.14-25.11,4.11-36.98,7.07-9.99,2.49-16.07,4.8-17.43,16.09-1.78,14.71.31,33.44.46,48.46.06,5.89-.82,12.42-.68,18.43.06,2.66.43,13.99,1.03,15.4.22.53,4.24,4.4,4.98,4.89,15.37,6.69,30.75,15.9,46.18,22.19,16.29,6.65,23.35,4.63,39.79.76,7.52-1.77,14.97-4.24,22.45-6.14-.04,4.74.78,10.68,3.4,14.68,4.36,6.66,23.57,15.06,31.4,17.1,17.55,4.57,50.33,4.58,44.76-21.92,8.7,2.29,16.81,6.06,25.94,6.6,15.22.89,36.1-3.41,32.28-23.07-.77-3.98-7.96-11.89-11.23-14.41-2.47-1.9-5.81-2.58-7.54-5.27,10.32-1.89,21.08-2.81,29.41-9.74,19.37,6.32,39.61-1.39,58.02-7.35-4.48,18.93,20.6,21.47,33.79,19.64,9.8-1.36,35.11-9.03,39.02-18.83,1.33-3.34,1.14-12.34.75-16.18-.46-4.56-2.76-9.43-3.2-13.89-.94-9.56-.49-20.55-.69-30.2-.17-8.31.57-16.67-.67-24.9.43-1.77,14.92-2.8,15.8-7.35,1.07-5.53-.95-15.11-1.29-21.03-.91-15.77-1.96-31.5-2.68-47.24,5.46-1.58,10.99-3.9,14.84-8.29.97,2.62.72,5.47,1.02,8.18,1,9.21-1.99,19.41-3.24,29.04-1.58,12.16-3.04,24.44-4,36.1-.74,9.08-2.83,22.14-2.03,30.9.56,6.19,5.5,5.37,9.92,7.96l-.71,50.32c-.54,1.3-17.52,11.2-20.3,13.39-4.29,3.38-10.53,10.96-10.63,16.38-.08,4.03,1.11,4.5,4.41,6.16,14.19,7.14,40.66,4.35,55.63-.09,1.51-.45,8.29-3.8,9.05-3.11-.72,4.05-2.15,8.38,1.76,11.06,4.16,2.85,18.38,5.32,23.53,5.4,10.06.16,37.53-5.85,43.66-14.25.24-.34,2.57-4.44,2.66-4.7.71-2.09.53-8.03.04-10.2-.1-.46-1.14-.43-1.25-.95-4.42-21.52-.37-43.66-1.28-65.48,4.29-2.29,18.02-5.8,18.94-11.3.35-2.06.13-5.63.07-7.87-.57-19.74-2.76-41.16-5.93-59.91l-2.03-20.18c5.77-1.73,8.37-4.95,11.22-9.93,7.61-13.31,4.64-37.53,1.79-51.75-4.07-20.26-12.7-42.66-32-52.79-4.96-2.6-10.66-3.74-15.78-5.95-.39-2.56,2.59-4.2,3.44-5.7,2.47-4.35,3.58-9.28,6.06-13.61,3.5,3.48,9.38,1.41,13.04-.78,11.45-6.85,13.12-30.17-2.08-33.52-.69-20.16-9.2-38.31-27.8-47.47-23.87-11.76-54.59-7.45-71.85,13.47-17.76,21.53-19.67,65.94-4.24,88.89,1.01,1.51,6.5,6.84,6.5,7.33,0,1.17-5.16,3.62-6.55,4.66-1.08.81-4.03,4.48-4.98,4.22-2.9-3.53-3.72-8.03-5.69-12.06-4.62-9.45-9.75-17.29-17.65-24.42-9.32-8.42-20.56-12.33-32.88-14.13,2.03-3.98,4.38-7.86,6.04-12.03.85-2.12,1.38-4.76,1.87-7,2.03-.41,3.73,1.01,5.61,1.23,15.44,1.85,25.89-14.94,19.07-28.28-1.01-1.97-4.29-3.9-4.84-6.31-1.95-8.51,2.44-16.59-5.05-25.19-1.69-1.94-5.04-2.84-5.65-3.71-.88-1.26-1.96-5.21-3.13-7.22-19.02-32.74-81.98-30.94-100.38,1.74-10.4,18.47-9.01,53.29-2.76,73.11,2.75,8.7,7.7,15.69,14.92,21.22-8.34,5.68-16.66,12.32-20.4,22-1.77,1.18-4.98-4.63-6.21-5.91-2.93-3.06-8.74-8.5-13.2-5.94-8.79,5.06,4.15,18.7,2.95,20.36-1.85.35-4.22,2.1-5.22,3.66s-1.21,4.68-1.39,4.85c-.36.34-4.45.34-6.51,3.03-1.52,1.98-.88,3.63-1.65,4.93-.31.52-3.85,2.94-4.26,3.77-2.45,5.03.53,10.17,3.68,13.94,2.71,3.25,5.09,3.06,7.31,4.89,1.39,1.14,3.64,7.88,7.27,8.46-1.07,18.84,5.7,43.21,29.64,32.97l7.97-5.5c-1.33,9.84-3.89,19.63-5.72,29.44-3.88,20.78-7.32,41.33-8.11,62.88-.42,11.55,2.37,8.57,11.23,13.29l.62,47.19c-.36,1.84-8.58,6.4-10.81,8.25-1.73,1.43-3.01,3.41-4.95,4.58ZM542.38,240.03c-.46-.49-1.84-1.01-2.49-.55-1.93,9.87-7.19,12.57-15.73,16.48-.09,1.66,5.53,2.86,7.18,3.98.88.59,5.21,4.98,5.7,5.8.86,1.44,3.33,12.97,5.82,7.63,1.54-3.31.26-5.93,3.93-9.87,2.05-2.2,10.91-6.12,10.91-7.53,0-1.81-8.49-3.84-10.91-6.22-3.04-2.99-3.19-8.41-4.41-9.72ZM256.22,478.46l-.98,2.29,1.64.99c9.8-.98,21.38,1,30.94.04,1.64-.16,2.56-.14,3.57-1.69.25-.56-.78-1.63-.98-1.63h-34.19ZM36.29,533.01c.74-2.44-4.71-17.73-7.88-14.45-1.33,1.38,1.24,2.93,1.5,3.45,1.03,2.13,3.34,9.39,4.11,10.33s1.22.74,2.28.67ZM43.53,531.05c-1.18-3.37,2.45-7.15,2.62-9.58.23-3.38-1.96-1.9-3.17.14s-3.45,10.56.56,9.44ZM336.75,699.31c-1.54-1.54-3.84,3.61-4.26,4.61-1.13,2.72-4.94,14.29.32,12.8-1.09-6.67,3.42-11.42,3.94-17.41ZM513.23,756.9c-4.16-11.11-6.9-12.78-14.06-21.13-9.54-11.12.85-13.02,0-23.01-.26-3.14-1.87-4.98-4.31-6.87-12.79-9.92-49.82-7.89-63.37.4s4.19,15.99-1.75,25.2c-2.33,3.61-7.43,7.56-10.06,10.97-14.26,18.46-12.68,46.02,6.81,60.05,16.15,11.63,53.1,11.18,69.57.53,15.49-10.02,23.63-28.87,17.16-46.14ZM318.35,699.97c-.09,3.41,2.17,6.06,3.29,9.52.8,2.45.81,5.16,1.43,7.11.59,1.84,3.07,1.71,3.02-.98s-3.36-13.5-5.4-15.04c-.79-.6-1.35-.75-2.34-.61ZM346.61,707.86c-1.31-1.36-9.68,7.31-7.88,9.85,1.16.07,2,.19,2.96-.65.28-.25,3.99-5.67,4.3-6.22.6-1.06.82-1.74.63-2.98ZM537.04,733.72c1.23,2.41,1.89,5.02,2.58,7.62.57,2.16-.37,4.52,1.94,5.94,3.67,0-.2-10.95-.97-12.82s-1.88-5.87-4.28-5.62c-3.96.41.39,4.2.74,4.88ZM87.38,740.91c-10.34-12.97-36.99-12.61-48.12-.84-3.55,3.76-5.79,11.23-1.33,15.12,6.3,5.51,23.85,4.23,31.9,4.58-.78,3.83,1.42,5.52,4.6,6.91,6.45,2.81,28.89,3.89,33.19-2.32,6.43-9.28-9.94-18.72-17.97-17.17-.49-.31-1.31-5.1-2.26-6.29ZM555.03,731.52c-3.34-.23-4.62,4.35-5.93,6.74-.24.44-1.11.55-1.3.95-.55,1.14-2.13,5.6-.31,6.11,3,.85,2.8-3.63,3.46-5.07.73-1.6,5.1-7.67,4.08-8.73ZM295.14,758.66c-9.22-11.59-28.43-11.34-40.37-4.26-4.52,2.68-12.45,8.11-6.74,13.57,6.56,6.26,28.94,6.38,37.48,4.67,1.74-.35,8.5-2.35,9.62-3.2,2.62-1.99,1.87-8.44.01-10.78ZM150.03,793.96c1.38-.88-.29-11.86-.84-13.94-.5-1.9-3.39-9.84-6.04-9.06-2.92,3.19,1.75,5.82,2.75,9.06,1.23,4,1.52,8.69,1.61,12.85l.52.8c.38.38,1.74.45,2,.29ZM154.07,793.21c.23.37,2.14,1.06,2.87.11s2.45-8.34,3.3-10.52c.51-1.31,4.39-6.07,1.95-6.58-2.67-.56-4.81,6.75-5.63,8.69-.2.47-1.04.58-1.21,1.03-.47,1.27-1.85,6.38-1.28,7.28ZM139,793.8c.24.33,1.76,1.07,2.18.18,1.58-2.49-3.26-12.55-5.93-11.85s1.65,5.07,2.22,6.31c.69,1.5.99,4.62,1.53,5.36ZM375.16,793.03c-6.9-9.09-22.76-9.34-31.49-3-6.65,4.82-6.45,11.39,2,13.75,5.47,1.53,13.33,1.44,18.94.61,6.22-.92,16.69-3.27,10.55-11.36Z" fill="#fff"/>
  <path d="M286.13,623.06c1.94-1.17,3.23-3.15,4.95-4.58,2.24-1.85,10.46-6.41,10.81-8.25l-.62-47.19c-8.86-4.72-11.65-1.74-11.23-13.29.79-21.55,4.23-42.11,8.11-62.88,1.83-9.81,4.39-19.6,5.72-29.44l-7.97,5.5c-23.94,10.24-30.71-14.13-29.64-32.97-3.64-.57-5.88-7.31-7.27-8.46-2.23-1.83-4.6-1.64-7.31-4.89-3.14-3.77-6.13-8.91-3.68-13.94.4-.83,3.95-3.24,4.26-3.77.77-1.29.13-2.95,1.65-4.93,2.06-2.68,6.15-2.68,6.51-3.03.18-.18.38-3.27,1.39-4.85s3.36-3.32,5.22-3.66c1.2-1.66-11.75-15.3-2.95-20.36,4.46-2.56,10.27,2.88,13.2,5.94,1.22,1.28,4.44,7.09,6.21,5.91,3.74-9.68,12.06-16.32,20.4-22-7.22-5.53-12.17-12.52-14.92-21.22-6.25-19.82-7.64-54.64,2.76-73.11,18.4-32.69,81.36-34.49,100.38-1.74,1.17,2.01,2.25,5.96,3.13,7.22.61.87,3.97,1.78,5.65,3.71,7.49,8.6,3.1,16.68,5.05,25.19.55,2.41,3.84,4.34,4.84,6.31,6.83,13.34-3.63,30.13-19.07,28.28-1.88-.23-3.58-1.64-5.61-1.23-.49,2.25-1.03,4.89-1.87,7-1.66,4.17-4.01,8.05-6.04,12.03,12.32,1.8,23.56,5.71,32.88,14.13,7.9,7.13,13.03,14.97,17.65,24.42,1.97,4.03,2.79,8.53,5.69,12.06.94.26,3.9-3.41,4.98-4.22,1.39-1.04,6.56-3.49,6.55-4.66,0-.49-5.49-5.82-6.5-7.33-15.43-22.95-13.52-67.36,4.24-88.89,17.26-20.92,47.98-25.23,71.85-13.47,18.6,9.17,27.1,27.31,27.8,47.47,15.2,3.35,13.53,26.66,2.08,33.52-3.66,2.19-9.54,4.26-13.04.78-2.48,4.33-3.59,9.26-6.06,13.61-.86,1.51-3.84,3.14-3.44,5.7,5.12,2.21,10.82,3.35,15.78,5.95,19.31,10.14,27.94,32.53,32,52.79,2.86,14.22,5.82,38.44-1.79,51.75-2.85,4.99-5.45,8.2-11.22,9.93l2.03,20.18c3.17,18.75,5.36,40.17,5.93,59.91.06,2.25.28,5.81-.07,7.87-.92,5.5-14.65,9.01-18.94,11.3.91,21.81-3.14,43.96,1.28,65.48.11.53,1.14.49,1.25.95.49,2.17.67,8.11-.04,10.2-.09.26-2.41,4.36-2.66,4.7-6.12,8.4-33.59,14.4-43.66,14.25-5.15-.08-19.37-2.55-23.53-5.4-3.91-2.68-2.47-7.01-1.76-11.06-.76-.69-7.54,2.66-9.05,3.11-14.96,4.45-41.44,7.24-55.63.09-3.3-1.66-4.48-2.13-4.41-6.16.1-5.41,6.34-13,10.63-16.38,2.78-2.19,19.76-12.09,20.3-13.39l.71-50.32c-4.43-2.6-9.36-1.77-9.92-7.96-.8-8.75,1.29-21.82,2.03-30.9.96-11.65,2.42-23.94,4-36.1,1.25-9.63,4.24-19.83,3.24-29.04-.29-2.7-.04-5.56-1.02-8.18-3.84,4.38-9.38,6.71-14.84,8.29.71,15.74,1.76,31.47,2.68,47.24.34,5.92,2.36,15.5,1.29,21.03-.88,4.55-15.37,5.58-15.8,7.35,1.24,8.23.5,16.59.67,24.9.2,9.65-.25,20.64.69,30.2.44,4.46,2.74,9.33,3.2,13.89.39,3.84.58,12.84-.75,16.18-3.91,9.8-29.23,17.47-39.02,18.83-13.18,1.83-38.26-.71-33.79-19.64-18.42,5.96-38.65,13.67-58.02,7.35-8.33,6.94-19.1,7.85-29.41,9.74,1.74,2.69,5.07,3.37,7.54,5.27,3.27,2.52,10.46,10.42,11.23,14.41,3.82,19.66-17.07,23.96-32.28,23.07-9.13-.53-17.24-4.3-25.94-6.6,5.57,26.5-27.2,26.48-44.76,21.92-7.83-2.04-27.04-10.44-31.4-17.1-2.62-4-3.44-9.94-3.4-14.68-7.48,1.9-14.93,4.37-22.45,6.14-16.44,3.87-23.5,5.88-39.79-.76-15.42-6.29-30.8-15.5-46.18-22.19-.73-.49-4.75-4.36-4.98-4.89-.6-1.41-.97-12.74-1.03-15.4-.15-6.01.74-12.54.68-18.43-.15-15.02-2.24-33.75-.46-48.46,1.36-11.29,7.45-13.6,17.43-16.09,11.86-2.96,25.27-3.93,36.98-7.07.88-.24,2.17-.42,2.51-1.43-.07-3.67.37-7.19,1.05-10.78.53-2.8,3.61-10.02,3.57-11.5-.05-1.73-5.86-11.74-6.43-17.15-2.79-26.48,6.66-62.61,24.26-82.72,6.34-7.25,14.38-13.5,22.98-17.76-1.52-1.33-3.47-1.49-5.2-2.67-1.52-1.04-3.71-4.54-4.42-4.78-3.42-1.15-5.68,1.23-9.78-2.71-4.59-4.4-2.35-8.02-3.93-11.85-1.35-3.26-6.68-2.85-7.54-10.87-.58-5.42,1.52-11.47,1.28-15.07-.21-3.05-3.98-6.89-3.98-12.52,0-6.18,4.1-11.51,4.53-15.93.18-1.87-1.72-6.92-1.7-9.7.03-3.48,1.83-10.11,3.78-13,1.64-2.43,6.73-5.07,7.84-6.79,1.39-2.17,1.32-6.31,3.22-9.29,4.73-7.41,14.13-13.42,22.83-14.62,1.63-.22,5.07.43,6.09-.16.44-.25,3.28-5.05,5.08-6.42,6.42-4.88,17.04-7.59,24.94-5.88,2.59.56,5.97,3.6,7.36,3.75s7.99-2.18,10.51-2.39c7.37-.62,12.39,1.99,18.25,5.94.83.56,1.01,1.72,1.88,2.09,2.4,1.02,6.39.16,9.22.59,6.25.96,13.91,6.71,16.38,12.54,1.77,4.17,1.06,7.18,1.99,10.49.31,1.09,3.94,5.04,4.4,6.25,3.88,10.43-.47,22.31-9.04,28.84l3.13,29.53c-.78,5.77-.88,11.67-2.21,17.37-2.95,12.58-11.77,23.97-23.35,29.89,4.23,2.78,8.58,5.28,12.49,8.54,10.5,8.74,19.31,23.8,23.97,36.5,8.13,22.16,18.82,54.17,7.12,76.74-.59,1.13-1.97.34-1.52,2.12,4.52.31,9.29,1.76,13.65,3.11,4.35,1.36,12.07,3.66,15.73,5.96,2.99,1.88,8.75,8.83,8.75,12.29v50.94ZM387.15,253.89c-15.58-19.93-50.68-22.75-72.55-12.84-19.08,8.64-26.05,25.79-27.15,45.82-.5,9.04-.41,31.77,9.23,36.14,3.13,1.42,5.24-3.35,7.63-4.83,2.55-1.58,7.17-2.96,10.08-4.06-.11-2.38-1.48-3.55-1.33-6.2.3-5.04,6.45-14.54,9.61-18.71,1.37-1.81,3.12-2.99,2.9.25-.12,1.8-4.84,8.17-6.03,10.43-.5.95-2.49,4.29-2.62,4.64-2.27,6.22,1.2,9.87,7.18,10.76s11.78-.52,18.43,1.29c5.2,1.41,13.98,8.53,18.57,7.13,2.78-.85,8.99-6.5,10.76-8.96,2.2-3.06,5.13-9.75,5.64-13.42,1.93-13.92-2.54-33.84,14.45-39.43-1.6-2.64-2.91-5.56-4.81-8ZM398.99,269.01c-5.6-6.39-13.36-1.54-15.58,5.32-5.7,17.58,3.36,38.14-17.48,50.22-11.76,6.82-14.69-2.87-24.53-5.52-5.91-1.59-12.07-.65-18.1-.97-2.57-.14-5.2-1.48-7.88-1.33-1.84.1-9.55,3.47-11.04,4.61-2.05,1.56-2.87,5.27-6.72,5.3-4.63.04-5.63-3.88-8.23-6.59,3.08,18.77,14.75,32.56,33.39,37.27,33.57,8.5,59.39-10.48,63.17-44.26.35-3.14-1.1-8.57,1.4-9.78.33-1.51-1.13-.67-1.33-1.41-.63-2.34.76-5.04,2.27-6.83,4.53-5.39,9.08-4.63,15.49-3.91.16-6.38-.49-17.17-4.83-22.12ZM536.21,305.36c-4.88-12.47-8.88-18.11-20.94-24.77-36.93-20.41-78.77,2.59-81.86,44.4-2.12,28.63,1.18,59.96,32.86,69.01,26.53,7.57,48.18-4.93,59.77-28.46.88-1.79,3.52-7.86,3.08-9.35-.21-.71-3.33-4.03-.72-4.59,1.08-.23,3.41,3.09,4.69,3.84,4.09,2.41,8.03,1.28,11.62-1.33s5.91-6.13,6.36-10.74c.48-4.89.31-11.32-4-14.37-4.8-3.4-11.17-3.3-14.81,1.48-5.25.19-1.96-3.09.6-4.65s4.91-1.98,7.69-2.51c-.98-5.54-1.34-11.48-3.19-16.83-.29-.85-1.1-.94-1.17-1.13ZM202.41,292.67c-6.58-5.47-10.74-7.19-19.66-5.97-2.06.28-8.17,3.1-8.62,3.01-.85-.16-2.46-2.61-3.9-3.32-8.84-4.4-24.71.15-29.98,8.45-.53.84-.64,2.65-.81,2.79-.42.37-8.88-.08-11.11.4-4.61.99-12.28,6.09-15.11,9.87-.51.68-4.01,6.02-4.15,6.38-.68,1.75-.32,4.89-1.3,6.24-.62.85-4.11,2.49-5.7,4.49-.73.92-4.38,7.42-4.58,8.03-.82,2.61-.9,8.2.02,10.81.19.53,1,.61,1.18,1.05,1.95,4.52-.25,3.48-1.46,5.57-3.32,5.73-4.77,19.73,1.54,23.94.71,2.12-1.12,2.04-1.44,3.07-2.27,7.33-2.25,15.53,3.72,20.81.8.71,2.74,1.22,2.86,1.41.94,1.48-1.09,8.13,2.79,12,3.22,3.21,6.98.65,9.81,2.02,1.31.63,1.68,3.22,2.94,4.29.56.48,4.64,2.81,5.45,3.09,5.3,1.86,8.51-.8,13.3-2.46-3.94-5.25-8.97-9.68-10.61-16.33-12.1,1.82-23.98-6.96-24.91-19.46s3.86-21.52,17.45-20.07c2.59.28,5.99,2.64,7.23,2.6.91-.03,5.57-3.58,6.25-4.42,4.25-5.21,5.82-16.77,1.4-22.28l1.2-1.87c8.76,3.51,16.71,1.12,21.45-6.87,9.16,4.14,25.47,4.09,27.89-7.91,2.47-.64,2.35,1.7,3.59,2.65,5.87,4.45,16.39,4.81,22-.38,2.24-2.07,1.7-4.89,5.95-4.23.48,1.67-1.65,3.1-1.02,4.58,1.47,3.42,7.49,3.43,9.5,6.46l2.04,14.59c3.75-1.01,6.56-7.57,7.06-11.01.97-6.73.21-11.21-2.99-17.05-.66-1.2-2.49-2.53-2.66-3.28-.23-1.03.67-2.36.53-3.73-.74-6.99-6.69-13.08-13.3-15.03-3.98-1.17-8.78.32-11.86-.63-1.28-.4-1.31-1.72-1.99-2.28ZM395.09,293.91c-7.29,1.5-4.59,9.27-5.09,14.63-.34,3.68-1.85,9.35-1.8,12.65.06,3.83,8.99,2.61,11.48,1.63,13.82-5.41,12.75-32.49-4.6-28.91ZM221.55,332.03c-.3-.42-2.78-1.08-3.75-1.84-1.68-1.33-2.83-3.33-4.98-4.07-7.07,6.78-17.57,6.57-25.54,1.22-7.22,8.82-17.62,9.74-28.09,6.78-5.27,5.49-11.21,8.02-19.02,6.95,1.19,6.65.16,17.7-4.82,22.78-.6.61-7.63,5.34-8.11,5.39-.53.05-5.66-3.75-9.82-3.78-10.86-.07-13.26,9.32-11.92,18.48,1.2,8.18,11.34,16.51,19.7,15.49,2.22-.27,5.57-3.27,6.09-3.16,2.81.59-.86,3.95-.85,4.8,0,.41,1.74,4.96,2.08,5.5,16.38,26.12,65.85,32.48,85.13,7.01,13.56-17.92,11.28-38.02,8.01-59.05-.34-2.17,1.01-4.39-1.3-5.38-.51-2.8-1.71-15.64-2.8-17.13ZM421.18,376.31c-8.4-13.35-16.67-22.05-32.35-26.49-2.98-.84-10.99-2.91-13.67-2.76-4.26.24-8.23,14.58-10.82,18.5-8.89,13.45-32.08,21.99-41.65,5.03-1.48-2.62-2.91-10.56-4.37-11.4-1.12-.64-3.37-.9-4.91-1.66-1.69-.84-5.04-3.36-6.57-3.36-1.41,0-11.07,7.35-12.58,8.85-1.96,1.93-9.04,11.51-8.8,13.87l12.19,17.44c.41-2.32,1.39-15.98,3.29-16.43l1.54,1.09c.09,6.15-1.77,12.9-1.9,18.92-.12,5.5,1.73,10.36,1.32,15.8-.27,3.55-2.25,7-1.98,10.52.41,5.32,3.17,14.35,4.44,19.91.68,2.99,1.39,5.47,2.11,7.87,1.76,5.94-.13,6.82,6.63,9.68,19.67,8.33,54.25,7.65,74.78,2.54,2.01-.5,8.73-1.57,7.98-4.39l-1.29-1.39c-6.97-2.27-14.11-4.46-20.8-7.47-3.59-1.61-11.76-7.15-14.49-7.86-2.97-.77-7.75.14-11.05-.13-10.64-.86-20.79-2.98-28.26-11.18-.32-.35-3.29-4.29-3.35-4.57-.36-1.64.4-2.75.25-3.59-.17-.96-3.38-4.04-3.76-6.7-.38-2.65.1-4.75,2.62-5.87-4.19-6.26-2.17-11.6,5.61-12.1.07-16.01,19.65-5.83,27.89-2.68-1.67-8.42,4.31-11.6,10.55-6.26l9.18,10.87c-1.91-5.75,3.37-6.31,4.29-7.88.73-1.23.13-4.53,1.59-6.13.98-1.08,5.03-1.86,6.57-1.81.92-7.56,4.55-9.99,11.48-5.92,7.75-10.42,12.47.88,16.19,7.45.25.44,1.07.54,1.48,1.32.9,1.7,4.53,12.32,5.41,12.3,2.4-4.05,5.28-8.58,10.84-6.22,1.81.77,1.89,3.45,3.29,4.26.09-3.94-1.54-7.6-2.97-11.15-1.57-3.88-3.82-7.43-5.95-10.81ZM366.34,354.89c-.69-.56-8.1,3.84-9.69,4.44-11.2,4.21-22.17,4.05-33.7,1.48.48,13.22,13.11,19.22,24.97,14.78,9.26-3.47,13.94-12.56,18.41-20.69ZM274.57,369.73c-1.61-1.46-7.07-6.63-9.17-5.05-2.31,2.35-1.75,4.52-.63,7.29,2.21,5.49,6.68,9.75,9.8,14.52,1.52,2.33,2.63,5.19,3.78,7.72,2.4-.46,14.52-.27,13.7,3.72-.45,2.19-4.27-.71-5.62-.93-4.49-.72-12.63,2.1-16.53,4.43-4.38,2.62-2.03,5.69,1.99,6.81,5.1,1.42,7.12-.32,11.6-1.15,1.12-.21,1.22-.3,1.99.73.44,1.71-3.18,4.49-3.34,6.51-.31,3.91,3.61,5.03,3.34,8.92-6.46-.35-6.16-6.86-5.91-11.83-3.08-.02-9.94-.73-11.55,2.64-.53,1.11.36,2.19.09,3.3-.65,2.73-5.62,3.8-5.61,4.22.85,2.32,2.28,4.19,4.47,5.38,1.96,1.07,7.68,1.59,7.99,2.53,1.14,3.55-5.6,1.66-5.92,2.67-.32,11.46,3.06,30.71,18.02,30.44,5.75-.1,13.2-4.07,15.53-9.49l-4.77-25.44c-3.91-4.68-1.18-4.85-.02-9.55,4.34-17.51-10.92-37.22-23.21-48.4ZM409.32,393.43c-.78-1.55-1.16-3.19-2.11-4.8-1.59-2.71-7.73-14.45-10.92-9.39-2.56,4.06,2.93,10.31,4.56,14.44.82,2.09,1.62,4.25,1.68,6.53.24.24,7.68-.68,5.57,2.01-.43.55-10.71,3.07-13.28,4.47-2.15,1.16-9.75,8-10.41,8.08-.61.07-1.36.1-1.69-.5l-7.88-17.9c-4.19-.94-3.44,3.12-3.15,6.09.7,7.44,9.11,26.29,14.11,31.9,1.57,1.76,6.18,4.3,7.13,6.02,1.99,3.61,3.32,12.01,5.04,16.52,1.45,3.77,3.71,9.07,5.52,13.02,7.48,16.33,21.13,22.22,34.22,7.27l-.67-32.92-8.24-1.94c-.51.5,2.72,8.83,4.59,8.55-.11,1.24-2.45,1.41-3.27,1.01-1.64-.79-6.23-11.74-7.9-14.33-.4-.62-1.36-.88-1.86-1.57-3.2-4.46-1.77-4.77.36-9.27.34-.72,1.21-.81,1.45-1.35,1.96-4.42,7.25-25.96,3.38-28.79-5.86-4.29-8.86,12.32-10.53,14.55-.99,1.32-4.75,2.37-6.19,4.4-2.92,4.1-2.01,8.39-1.74,12.98l-1.92-.05c-1.55-5.43-1.24-12.68,3.2-16.75,2.26-2.07,5.8-2.3,5.92-6.61.04-1.25-2.8-8.58-3.54-10.2-.46-1-1.33-1.23-1.45-1.47ZM398.12,396.75c-1.87-4.1-4.52-15.34-9.4-16.6-4.52-1.17-4.51,4.71-3.79,7.78.45,1.96,2.31,2.4,2.95,3.57,1.99,3.61,3.83,8.69,4.76,12.69l7.89-2.64c.48-2.06-2.13-4.19-2.41-4.8ZM548.03,395.41c-1.19-1.24-2-2.76-3.51-4.05-6.49-5.51-16.14-9.44-24.52-10.87-7.71,8.03-8.8,20.11-17.13,28.06-13.44,12.83-31.7,9.51-38.88-7.65-.53-1.27-.25-3.48-1.15-4.44s-6.29-2.71-7.94-3.56c-4.47-2.3-4.59-5.41-10.48-2.36-1.47.76-14.05,12.18-14.45,13.16-.95,2.35-1.03,9.27-2,13.12-.68,2.71-5.65,14.39-5.58,15.2.05.6,3.61,6.66,3.95,6.86,1.72,1,8.68,1.1,11.02,2.12.02-9.21.74-18.54,2.31-27.6l2.3-.66c-1.93,25.7-4.11,52.23,1.65,77.56,25.89,13.99,59.03,12.4,87.11,6.57l-18.19-7.76c-4.15-2.11-13.96-9.36-17.28-10.33s-7.74-.47-12.05-1.76c-6.38-1.9-8.78-5.31-13.44-7.6s-10.22-2.31-14.67-7.03c-4.61-4.88-.08-7.09-.09-8.57,0-.35-1.61-1.55-2-2.48-2.08-4.95-.41-9.74,5.4-9.68-3.26-15.79,19.01-9.45,26.95-5.26-4.34-8.77,2.11-16.35,10.21-9.22,1.49,1.32,6.41,7.34,7.55,9.06,1.85,2.79,5,11.65,6.61,12.93.68.54,15.8,6.26,16.39,5.63-.14-1.31.28-2.92-.01-4.15-1.4-5.89-3.47-13.67-3.92-20.51-.13-1.92.05-3.87-.04-5.8l1.68-1.08c3.41,3.67,2.39,8.75,2.96,13.46.2,1.7,1.41,12.17,1.93,12.54,8.31,1.22,32.62,1.35,39.08-3.59,1.41-1.08-.79-11.76-1.23-13.88-2.91-13.98-8.68-26.2-18.51-36.38ZM271.26,388.16c-2.08-2.31-2.24-4.52-5.85-1.73-3.11,2.41-3.02,7.77-.98,10.85,3.32,5,6.74-.33,11.13-1.04-.09-3.29-2.28-5.82-4.3-8.07ZM386.34,396.04c-.84-1.59-3.39-6.95-4.5-7.68-1.18-.78-3.66-1.25-4.23.47-1.89,5.7,4.75,15.56,5.83,21.27,3.03.02,4.77-3.02,7.26-4.33-1.35-2.61-2.16-6.49-3.37-8.96-.25-.5-.91-.6-1-.77ZM502.87,404.61c1.38-1.59,8.3-13.81,7.45-14.89-12.31,9.21-29.38,11.91-44.04,7.23-.88,1.17,4.49,9.88,5.65,11.1,8.21,8.71,23.74,4.82,30.93-3.44ZM364.14,399.81c-.92-1.22-6.62-7.78-7.62-8.47-3.21-2.22-5.46.53-4.61,3.84.12.47,1.06.45,1.23.98,4.18,12.79-4.42,3.31-9.54.87-3.49-1.66-13.16-4.88-16.52-3.52-2.3.93-3.57,4.17-2.02,5.95.34.39,8.19,2.24,9.91,2.91,1.83.71,8.96,3.23,8.37,5.42-.74,1.01-.89.93-1.99.74-2.89-.52-7.93-3.56-11.3-4.53-3.09-.88-15.99-3.9-13.57,3.03,1.18,3.36,16.66,9.34,20.32,10.71l-.03,2.21c-1.87,1.97-14.75-6.03-17.29-6.73-1.92-.53-3.79.21-3.68,2.45.35,6.93,18.52,10.52,18.99,12.5.69,2.91-6,.42-7.22-.02-1.07-.38-7.75-4.66-7.89-1.96,5.56,9.09,17.06,13.25,27.28,14.12,3.53.3,10.03-.96,12.32-.55,2.48.45,11.23,6.4,14.49,7.91s8.23,3.53,11.65,4.79c2.72,1,5.63,1.93,8.52,2.32.46-.49-2.98-11.28-3.66-12.44-1.14-1.93-3.19-2.05-4.51-3.38-11.31-11.41-12.6-27.21-21.64-39.16ZM260.33,394.5c-2.07-2.51-5.67,2.25-5.66,4.75,0,2.18,2.85,7.02,4.53,8.52s8.76,6.24,9.18,1.68c-3.81-.59-2.73-4.2-3.59-6.61-.52-1.44-2.42-3.68-3.35-5.2-.59-.96-.69-2.62-1.12-3.14ZM252.27,402.23c-5.98,7.43,5.36,20.77,13.18,14.47,1.52-2.8-5.65-4.61-7.62-6.23-2.61-2.14-3.51-5.71-5.56-8.24ZM189.96,432.66c-3.1-.89-8.9.52-12.67.47-6.88-.1-16.03-1.95-22.45-4.5-5.23-2.07-9.31-6.23-14.67-7.35,5,6.42,7.17,16.38,13.97,21.19,8.83,6.25,22.54,7.24,31.61,1.04.78-.53,5.58-5.23,5.68-5.61.34-1.42.03-4.81-1.47-5.24ZM143.7,436.16c-1.79-4.28-2.82-8.98-6.17-12.63-1.28-.62-8.66,2.01-10.34,2.86-.62.31-1.06-.18-.83,1.12l9.78,12.58c7.18,16.22,11.25,32.65,11.94,50.5.37,9.45-.86,18.76-1.36,28.18l6.59,2.42c2.39-26.91,1.66-58.04-8.19-83.53-.43-1.13-1.35-1.31-1.43-1.49ZM502.03,442.07c-1.7-2.8-3.5-6.81-5.51-9.29-7.28-8.95-13.97-4.56-6.86,4.88,1.08,1.43,3.74,1.49,2.91,4.64-5.93-.58-10.85-4.98-16.96-6.37-3.17-.72-13.26-2.38-14.47,1.58-1.67,5.46,4.19,4.14,7.78,5.11,3.4.92,10.66,3.23,13.6,4.8,1.84.98.99,2.7-1.15,2.53-2.99-.24-7.92-3.19-11.15-4.03-3.58-.94-17.61-4.21-15.03,3.19,1.21,3.46,19.6,7.6,23.53,9.02.1.15.1,1.81.02,1.92-1.17,1.84-15.15-3.95-17.58-4.44-6.46-1.3-4.73,4.55-.79,7.37,3.54,2.53,7.47,2.48,10.94,4.18,3.79,1.86,5.85,4.66,10.74,6.35,5.23,1.8,10.36,1.26,14.63,2.46,1.28.36,8.37,5.39,10.54,6.55,13.91,7.46,39.43,20.52,54.28,10,10.77-7.63,8.84-32.67,7.3-44.29-12.36,5.44-26.28,3.91-39.44,3.94l.09,4.51c2.27,1.12,16.31,5.25,16.33,6.99l-2.28,1.03-35.82-12.88c-1.35-.82-3.34-6.81-4.44-8.68-.42-.7-1.12-.87-1.25-1.08ZM133.38,439.24c-.19-.32-1.07-.51-1.34-.92-3.1-4.83-6.08-12.92-12.59-7.86l-4.24,3.61c4.19,4.32,8.48,8.23,11.5,13.48,3.9,6.79,10.35,22.94,10.19,30.55-.18,8.74-2.83,18.68-3.29,27.64-.16,3.12,0,6.32.08,9.44l11.09,3.37c.28-9.08,1.62-18.19,1.35-27.31-.31-10.56-2.95-24.01-5.78-34.32-1.41-5.15-4.24-13.19-6.97-17.69ZM202.48,429.99c-1.76-2.1-6.59,1.52-9.05,1.15.63,3.17,1.51,6.39,1.89,9.61,3.12,25.88,1.49,53.75-5.12,78.32-.36,1.35-2.02,7.05-2.01,7.76.01.77.27,1.12.94,1.42,3.69-.99,5.62.43,7.45-3.59s2.89-12.48,3.88-17.16c4.55-21.63,7.5-46.68,4.07-69.38-.42-2.77-1.24-5.47-2.05-8.13ZM214.3,435.9c-.28-.5-9.33-6.52-9.69-6.08,5.14,21.44,3.84,44.92.56,66.63-1.12,7.4-2.85,15.36-4.71,22.24-.71,2.62-1.87,5.1-2.43,7.75,2.29.17,8.63-.46,9.75-2.4,1.18-2.04,2.72-13.78,3.3-17.08,3.48-19.97,6-37.54,4.69-58.4-.13-2.05-.89-11.65-1.47-12.66ZM120.71,443.37c-1.08-1.41-4.75-6.39-5.82-7.03-2.93-1.74-7.98,3.84-9.9,5.95-18.01,19.89-26.73,54.57-24.64,81.18,1.29,16.4,15.07,27.16,28.47,34.63,6.42,3.58,13.29,6.64,20.43,8.47,1.12-.19,2.36-9.74,3.07-11.37,1.33-3.04,4.78-9.36,6.66-12.54,4.08-6.9,10.05-11.65,14.99-17.87-9.72-3.62-19.69-7.37-30.02-8.83-1.11-.16-2.2.48-3.08.38-2.07-.25-4.09-1.44-6.34-1.09.09-.74-.38-1.46.39-2.03,1.88-1.39,12.4.86,15.39.72l1.99-31.75c3.85-4.46.13-13.42-1.67-18.86-2.72-8.24-4.66-13.1-9.94-19.97ZM224.59,446.66c-.68-.85-6.98-9.51-8.14-8.29,2.91,8.97.75,19.93,1.94,28.62.79,5.77,1.82,11.67,2.03,17.69.35,10.01-.69,19.95-.68,29.93,1.66-.13,2.9-1.25,4.57-1.67,1.54-.39,10.58-2.27,9.89.68-.29,1.22-8.87,2.19-10.88,2.94-3.1,1.15-10.18,7.28-12.47,9.88-.63.71-3.53,4.63-2.95,5.26,8.99.98,17.59,4.88,24.33,10.84,1.58,1.4,4.5,4.37,5.91,5.92.83.91,3.19,5.89,4.59,4.93,2.43-5.4,6.11-10.22,7.58-15.77,4.01-15.15,1.49-22.53-2.41-36.4-5.67-20.18-9.98-37.92-23.31-54.56ZM192.77,442.31c-3.38.94-5.8,4.12-9.2,5.58-10.54,4.55-24.97,2.76-33.52-4.93.65,3.6,2.16,6.95,2.96,10.51,2.17,9.66,4.53,20.05,4.96,29.88.56,12.87-.39,25.87-.6,38.72,4.87,3.65,23.31,10.29,27.84,5.67,1.21-1.24,4.27-17.03,4.87-20.11,1.8-9.29,3.54-19.94,4.01-30.17.54-11.72-.36-23.51-1.31-35.15ZM399,465.52c-1.93-2.65-8.06.93-10.83,1.57-21.28,4.91-52.77,5.53-73.47-1.75-2.82-.99-5.23-3.14-8.19-3.32-.06.66.2,1.56-.02,2.13-5.06,13.04-8.38,39.04-10.41,54.16-.48,3.61-.1,10.15-.76,12.93-.13.53-1.2.19-1.35,1.4-.66,5.21-1.34,14.58-1.32,19.76,0,1.22-.1,2.28.66,3.34,2.65,3.69,29.7,8.8,35.23,9.47,26.52,3.22,60.11,3.28,85.8-4.26,3.41-1,6.99-2.62,10.4-3.73-.13-13.42-1.74-26.86-2.54-40.29-.18-3.06,1.19-8.41-1.27-10.01l-1.45-17.5-.52-.79c-6.25-1.41-11.59-6.1-14.83-11.46-1.88-3.11-3.62-9.57-5.12-11.64ZM217.01,517.78c-.62-12.25,1.57-24.46.41-36.7l-2.98,23.86c-.13.49-1.14.44-1.24.96-.96,5.18-1.22,10.51-2.69,15.6l6.5-3.72ZM555.03,498.83c-6.06,2.49-13.36-.97-18.71-.68-2.38.13-4.63,1.73-7.03,2.23-23.93,5.03-57.96,5.6-80.77-3.85-1.44-.6-3.82-3.16-5.3-2.02-.75.57-2.84,14.35-3.16,16.57-3.33,22.6-6.16,48.75-6.7,71.55-.12,4.94,1.11,5.46,5.31,7.23,26.16,11.02,91.49,13.58,116.94.6,7.6-3.87,7.62-4.66,7.34-13.1-.5-14.86-2.4-30.15-3.98-44.66-1.23-11.28-2.86-22.56-3.94-33.86ZM168.44,529.74c-2.75.44-8.82-4.09-10.73-3.81-1.76.26-5.97,4.32-7.36,5.77-9.28,9.68-12.97,17.55-16.81,30.39-.16.52-1.13.52-1.23.98-.17.73-.2,4.3.06,4.71l9.11,2.06c.14-1.97.89-4.02,1.79-5.75,4.82-9.3,10.52-18.44,17.61-26.47,2.38-2.7,5.34-5.04,7.56-7.87ZM205.92,528.42l-31.55,3.6c4.6,1.83,9.52,2.39,14.14,4.27,1.53.62,6.81,3.98,7.22,3.98,1.65.01,4.34-5.23,5.58-6.75s3.9-2.69,4.61-5.11ZM237.25,559.73c2.91-2.8,3.18-4.61.8-7.89-5.51-7.57-20.25-18.14-29.87-18.2-4.02-.02-3.88,3.54-6.84,4.64l.37,1.3c13.48,2.63,24.91,10.88,32.19,22.36.48.12,2.87-1.74,3.35-2.21ZM201.59,553.79c-3.65-8.21-9.82-13.9-18.53-16.65-1.99-.63-12.67-2.81-14.21-2.62-2.84.34-9.71,10.54-11.68,13.19-.66.88-1.8,1.28-2.43,2.17-1.14,1.62-5.5,8.85-5.22,10.33,2.84,5.39,10.35,4.2,14.03,6.3s6.74,12.63,10.51,12.5c3.72-.86,2.52-9.32,1.46-11.97-.93-2.33-3.73-4.05-3.11-7.07,4.05-.03,4.85,5.27,5.97,8.02.18.43.98.5,1.19,1.04,1.14,2.89.18,8.28,4.84,8.59,5.69-1.83,3.44-9.82,1.73-13.97-.7-1.69-5.28-7.49-5.18-7.95s1.38-1.51,1.98-.68c4.06,3.28,4.99,8.25,7.04,12.67.35.75,1.15.7,1.45,1.34.57,1.2.12,4.8,2.34,4.78,7.5-2.62,1.39-15.69-2.03-19.69-1.57-1.83-4.95-2.51-4.21-5.98,6.63,2.03,10.14,10.08,11.86,16.41,5.98.02,4.79-5.54,3.36-9.59-.3-.84-1.06-.95-1.15-1.16ZM224.59,563.5c.71-.84,3.72-3.05,3.43-4.22-7.6-8.84-17.34-15.83-29.32-17.06,1.08,3.78,4.24,5.4,5.75,9.03,1.21,2.91,2.68,8.51,1.99,11.53-.91,4-5.46,4.01-6.13,5.04-.55.84-.2,2.73-.61,3.99-1.41,4.32-5.04,5.35-9.14,3.98l-1.12,1.6c-.29,2.9,5.61,4.75,8.31,3.65,3.56-1.44,6.42-6.45,8.84-8.25,5.86-4.37,9.95.14,17.99-9.3ZM97.68,573.54c-3.3-6.09-4.37-14.23-2.97-21l-9.09-8.35c-1.66,6-3.71,12.45-3.98,18.71-.79,17.93,9.85,29.99,25.22,37.28,5.51,2.61,9.47,1.21,11.96,8.41,1.25,3.61,3.1,10.55,3.6,14.15,1.45,10.58.17,21.42.79,32.07.73,2.32,11.38,6.02,12.36,5.06-.43-10.71.58-21.86,0-32.53-.38-6.85-1.56-14.52-4.46-20.52-6.34-13.12-25.26-18.24-33.42-33.29ZM282.46,572.2c-1.24-3.09-3.02-7.01-5.6-9.21-2.82-2.41-23.66-8.93-27.94-9.53-3.74-.53-3.39.3-5.47,3,4.59,5.82,9.8,10.11,11.2,17.9,1.69,1.09,16.77-4.25,20.06-4.48,4.55-.32,3.14,2.19-.55,3.45-5.32,1.81-12.05,2.67-17.62,3.75-.48.48,2.28,11.53,2.69,13.29,3.36,14.37,5.65,32.04,3.15,47.43-1.09,6.7-4.35,8.33-9.84,11.85-1.75,1.13-11.1,5.7-11.46,6.29-1.55,2.5,1.07,6.42,3.63,7.57,4.97,2.22,16.45-.35,21.98-1.69,4.57-1.11,13.82-3.41,15.19-8.47.65-2.4-.39-3.77,1.68-5.57v-74.35c.2-.84-1.01-1.01-1.09-1.21ZM113.71,563.41c-.72-.79-3.98-1.48-5.3-2.25-3.84-2.23-7.5-4.8-11.3-7.09-1.3.07-1.06,4.51-1,5.6.31,5.46,3.64,13.01,6.71,17.61,9.49,14.2,29.77,16.89,33.24,36.45,2.6,14.69,1.31,30.5,1.59,45.21.05,2.66,1.81,2.76,3.83,3.28,1.73.45,15.26,2.47,16.03,2.21,1.13-.37,1.01-1.28,1.12-2.2,1.52-12.88-.46-39.81-3.61-51.67-7.07-26.6-26.18-24.4-39.58-43.25-.85-1.2-1.09-3.21-1.71-3.88ZM248.26,568.25c-1.94-3.18-3.32-6.63-6.51-8.93-.28,0-2.72,3.12-2.74,3.61-.04.69,5.71,9.98,6.68,12.16,10,22.6,5.83,44.9,7.57,68.69.07.98-.51,1.9.98,1.63,6.2-3.84,3.83-7.2,4.96-12.03,2.16-9.27,1.15-18.8-.1-28.3-1.76-13.35-3.85-25.42-10.83-36.82ZM230.9,562.6c-1.13-.86-3.51,3.15-3.94,3.93,1.55.12,3.18-.19,4.32-1.31.36-.47-.28-2.54-.38-2.62ZM144.78,569.82c2.58.19,4.42-1.87,5.87-3.7-3.67-6.63-3.94.36-5.87,3.7ZM342.68,569.16c-12.87-.58-25.82-2.29-38.13-5.91-1.76,16.11.78,32.15.64,48.29.41,1.82-11.66,7.32-9.84,8.88,13.72.75,26,11.6,28.96,24.95,1.17.84,16.03-5.11,17.95-6.64,2.24-1.78,1.81-4.22,1.73-6.8-.22-6.76-2.29-14.15-2.65-21.01l1.34-41.77ZM238.03,565.34c-2.49-1.47-6.35,5.39-9.75,4.49,3.77,5.9,5.91,12.23,7.6,19.01,4.04,16.23,3.36,32.47,2.89,49.64-.04,1.41-.38,14.84.37,14.83,2.88-.95,11.01-4.45,11.86-7.21.16-10.36.79-20.92.32-31.28-.55-12.21-2.31-24.49-6.28-35.79-.67-1.91-5.96-13.08-7.01-13.69ZM162.86,665.13c4.61.43,9.78-.32,14.46,0,.94-.58.91-1.31,1.02-2.27,1.77-15.03-.09-49.6-5.45-63.63-3.12-8.16-16.14-23.33-24.35-26.27-3.23-1.16-7.58-.24-11.15-.68-6.52-.81-13.59-4.55-19.88-6.41-.52,1.23,1.87,3.84,2.63,4.61,9.7,9.85,25.81,15.53,32.66,27.82,2.7,4.83,4.74,10.54,5.69,16,2.83,16.24,1.96,32.77,2.08,49.21l.63,1.28c.55.02,1.19.3,1.68.35ZM408.42,565.88c-12.85,1.92-25.71,4.25-38.79,3.95,1.9,16.61,2.23,33.5,2.61,50.26-.58,3.06-8,6.81-10.5,8.56,10.28.44,20.35,3.25,28.48,9.64,4.15,3.26,5.12,6.37,7.7,10.56.38.61,1.85.73,1.29,2.47.7.69,9.89-5.31,11.13-6.29,1.05-.83,3.88-3.33,3.99-4.57-.44-7.76-3.39-15.32-3.94-23-.79-11.14,1.39-24.9.04-35.53-.16-1.25-1.26-.64-1.42-1.88-.26-2.02.19-13.35-.61-14.18ZM191.25,583.83c-.19-.24-3.94-3.29-4.2-3.36-.83-.23-7.86-1.45-8.27-1.33-2.15.64-3.27,4.09-7.7,2.17-.28-.12-4.2-3.61-4.52-4.02-1.45-1.88-2.59-7-4.51-7.98-.49-.25-8-1.93-8.43-1.87-.92.13-2.64,2.71-3.58,3.37,10.04,7.75,20.62,15.93,24.98,28.25,3.24,9.15,5.5,22.48,5.93,32.19.49,11.02-.66,22.3.26,33.26,1.06,1.52,14.89-.5,17.49-1l.64-1.34c-.22-20.54.96-41.8-3.07-62.01-.65-3.26-3.29-14.19-5.03-16.34ZM79.03,568.51c-13.34,2.68-28.4,3.97-41.44,7.54-6.4,1.75-11.81,3.91-12.5,11.17-2.39,25.39,1.87,54.46,0,80.25-.01,5.41,8.12,8.4,12.52,10.48,5.19,2.46,11.29,4.48,16.67,7,15.57,7.26,30.39,17.95,48.56,13.53l33.21-8.86c1.92-1.15,2.23-4.97,2.62-7.24.99-5.7.91-11.71,1.52-17.46-6.76-2.82-14.97-3.13-20.3-8.76-.57-14,1.1-28.6-2.4-42.29-.86-3.37-2.23-8.73-6.55-8.58-3.87.13-10.32,2.93-15.24,3.24-8.9.57-18.43-4.1-26.72-7.3-12-4.63-23.64-10.37-35.9-14.39l-.08-2.54c1.54-1.61,36.75,14.37,41.43,16.09s14.59,5.78,19.35,5.61c4-.14,8.68-2.13,12.85-1.98.28-1.53-.12-1.05-.85-1.46-7.98-4.51-14.09-7.14-20.09-14.74-4.09-5.18-6.38-12.77-6.68-19.29ZM219.73,659.21l15.47-4.57c.74-14.49,1.62-29.21.99-43.76-.46-10.6-1.8-22.97-6.04-32.74-.93-2.14-3.88-8.61-6.26-8.83-2.41.62-3.74,2.45-6.15,3.47-1.69.72-9.75,2.2-9.83,3.29,1.02,2.1,2.34,4.56,3.11,6.73,2.99,8.48,5.45,15.66,6.65,24.9,2.2,16.9,1.12,34.47,2.06,51.52ZM367,569.82c-5.36-.14-10.77.19-16.14.03-1.68-.05-4.81-1.67-5.47.4-.26.82-.7,6.34-.78,7.76-.51,8.76-.55,18.22-.66,26.95-.13,9.91,2.1,17.22,2.65,26.33.19,3.12.58,6.48-1.6,8.89-3.51,3.87-19.23,8.33-24.65,9.54-10.91,2.43-24.05,4.46-34.88,1.61-1.05,2.47,2.36,4,4.41,4.46,12.63,2.78,39.79-3.42,51.47-9.38,3.6-1.84,7.37-9.72,10.74-13.25,5-5.24,11.41-9.09,17.19-13.38.63-16.64-1.34-33.31-2.29-49.95ZM207.2,578.4c-2.37-.72-1.85,1.28-3.25,2.25-2.71,1.87-7.16,3.75-10.51,3.64,4.8,12.22,7.27,26.6,7.92,39.73.29,5.94-.81,13.55-.08,19.13.17,1.28,1.32.39,1.43,2.56.15,2.92-1.26,1.98-1.43,3.27-.56,4.26.51,9.76.05,14.18l16.46-3.72c-1.3-18.53-.07-37.22-2.74-55.68-.39-2.69-1.55-4.45-1.83-5.53-1.77-6.74-3.25-13.4-6.02-19.83ZM479.87,614.34c.44-.97,1.12-12.63.22-13.31l-36.82-6.89-.8,50.15-13.67,10.32c9.63,1.07,19.15,8.23,24.21,16.23,1.67,2.65,2.19,5.93,4.46,8.08,5.15-1.49,11.19-2.52,15.96-4.98,4.03-2.08,3.82-2.46,5.4-6.31.2-.48,1.12-.52,1.23-.99,1.47-6.47-2.23-15.23-2.64-22.18-.32-5.56.76-26.4,2.45-30.12ZM543.86,598.08c-12.9,1.76-25.68,4.08-38.8,3.94.6,6.66.31,13.41.63,20.08.25,5.22,1.21,11.19,1.37,16.38.11,3.55.56,11.43-.04,14.48-.68,3.47-9,4.39-9.85,8.22,8.05-.58,16.8,2.61,23.22,7.35,4.54,3.34,10.51,9.02,10.31,15.01,4.76-.75,11.88-4.1,14.36-8.32,3.43-5.82-1.4-17.44-1.9-24.2-1.27-17.25,1.81-35.56.68-52.94ZM501.99,618.28c-1.2-2.66.94-14.77-.83-15.97l-17.79-1.6c-1.21.87-1.15,18.01-1.3,20.74-.33,6.05-1.31,13.02-1.37,19-.06,6.76,1.82,13.32,2.02,19.79.08,2.62-1.85,5.54.31,7.51,6.04-6.44,13.92-10.94,21.39-15.55l-1.29-32.79c.2-.91-1.08-.95-1.15-1.12ZM312.85,631.19c-4.51-4.36-22.79-13.88-26.1-4.47-.09.92.09,1.28.69,1.95.97,1.07,8.28,3.6,10.94,5.82,1.35,1.12,7.29,7.46,8.11,8.8.69,1.12,1.85,5.34,2.42,5.47l12.69-3.05c.57-2.27-6.79-12.62-8.75-14.51ZM286.13,631.61v16.76c4.07,2.09,13.07,2.43,17.43,1,.86-.28,1.05.51,1-1-.21-6.05-12.59-15.87-18.43-16.76ZM376.86,659.21c1.44,1.42,15.96-3.8,18-5.33,2.71-2.03-1.98-8.54-3.85-10.46-6.12-6.27-23.23-14.01-31.8-11.38-3.48,1.07-12,11.1-12.96,14.67-1.02,3.8,2.19,7.15,4.95,9.22.76-3.85,3.12-9.23,5.64-12.44,1.03-1.31,2.28-2.99,4.22-2.67.73,2.87-1.83,3.54-2.91,5.3-3.46,5.6-7.21,13.3,2.92,13.11-.12-2.51.68-6.57,1.95-8.73.33-.57,1.39-.78,1.89-1.54,1.62-2.49,3.06-6.86,6.68-6.82-1.82,6.07-8.58,9.94-7.25,17.31.43,1.8,7.13.95,8.58.12,1.16-4.68,3.81-8.49,6.91-12.16,3.1.41-.36,3.7-1.12,5.46-.44,1.02-2.5,5.73-1.85,6.36ZM344.65,653.3c-.39,4.25,2.07,7.75,5.74,9.7,16.38,8.67,48.38.81,61.01-12.3,1.25-1.3,2.49-2.63,2.27-4.63-14.1,10.79-34.57,19.77-52.75,16.26-1.96-.38-7.99-2.05-9.7-2.79-3.04-1.3-4.09-4.41-6.56-6.25ZM237.44,657.27l-31.24,8.48c-1.51,1.35-2.99,10.8-3.62,13.35-.13.54-1.14.49-1.25.95-.18.77-.19,4.91.09,5.35.74,1.17,14.06,6.91,16.32,7.99.66-2.97,1.83-6.28,3.17-9,2.33-4.72,9.41-12.84,13.98-15.61,2.04-1.24,4.93-2.12,7.19-3.01-2.27-2.46-4.02-5.14-4.64-8.51ZM453.13,679.59c-.5-8.51-14.35-20.95-22.18-22.19-4.69-.74-7.6.04-11.3,2.84-4.77,3.61-12.42,13.66-4,17.37-.17-5.13,4.73-10.89,9.87-11.17,1.26,1.11-4.39,4.06-4.93,4.59-1.41,1.41-3.65,6.25-1.68,7.6,3.69,2.53,5.54-3.08,7.57-5,1.8-1.7,4.91-4.12,6.93-1.29-3.67,1.38-7.41,3.86-8.54,7.89,9.45,1,18.89.83,28.27-.66ZM525.88,677.84c-3.94-5.74-15.15-12.48-21.95-13.86-1.5-.3-8.89-.9-10.23-.7-3.79.56-10.87,8.26-12.62,11.71-.71,1.4-.6,2.82-1.04,4.09-.24.68-1.64.18-1.31,2.81.26,1.46,5.32,5.04,5.97,4.27-.05-3.27,1.71-7.27,3.41-10.06,1.43-2.34,2.11-3.73,5.14-3.07-2.56,4.41-6.61,8.12-6.3,13.82l6.33,1.68c1.57-4.05,2.61-10.99,7.86-11.56-1.08,4.24-5.62,6.69-5.26,11.82,2.05.17,5.39,1.46,7.24.34,1.52-.92,4.16-10.27,8.53-9.53,1.56,1.56-7.07,7.18-4.94,9.84,2.33-1.23,5.08-.41,7.73-.81,4.48-.68,9.11-2.81,13.68-3.43,1.26-.72-1.51-6.31-2.23-7.35ZM183.57,667.76c-13.65.21-27.33-.35-40.76-2.63,1.76,8.67-2.94,18.09-3.3,25.99-.4,8.79,8.27,11.52,14.46,15.42,4.02-13.99,17.92-23.92,32.22-25.64-3.3-3.84-2.66-8.44-2.63-13.14ZM202.63,665.79l-15.82,1.6c-1.5,3.01-1.03,11.99,3.53,12,1.14,0,7.51-1.52,8.32-2.13,2.23-1.66,1.91-7.39,2.67-9.7.26-.79,1.86,0,1.29-1.78ZM262.46,675.64c.3-.3-.97-1.27-1.39-1.56-2.97-2.04-11.9-7.25-15.2-6.86-1.17.14-4.46,1.61-5.75,2.19-9.59,4.37-17.46,15.13-19.74,25.28l15.29,3.93c2.56-2.67,3.42-6.38,5.6-9.66,4.46-6.72,13.13-12.4,21.19-13.34ZM267.73,691.43c7.2-.57.36-13.08-4.26-13.16-8.86-.15-22.76,11.92-24.01,21.04,6.3.48,12.87.67,18.79-1.94.1-4.6-5.15-6.44-4.98-10.54.76-.86,4.01,3.1,4.5,3.71,1.09,1.38,2.98,4.49,2.74,6.15,4.71-1.43,7.3-2.33,4.63-7.59-.56-1.1-5.02-4.99-2.32-5.55,1.76-.36,5.72,5.85,4.92,7.89ZM198.03,684.19v-3.94s-3.28.66-3.28.66c-.91.81,2.69,3.06,3.28,3.28ZM165.38,693.62c-2.24,2.09-9.01,11.47-8.04,14.45.71,2.19,9.66,5.01,12.02,5.62,5.42-8.52,16.35-15.48,26.05-17.97,1.74-.45,9.85-1.09,9.83-1.99-3.35-2.87-11.85-10.65-16.08-10.73-6.22-.12-19.2,6.34-23.79,10.63ZM207.56,691.44c2.01,4.89,8.12,7.65,12.84,9.51,12.53,4.93,35.7,9.11,46.67-.64.96-.86,3.94-4.27,3.92-5.27-.01-.88-.73-.9-1.62-.32-2.19,1.43-3.5,3-6.23,4.29-17.77,8.4-39.52,1.53-55.59-7.57ZM209.64,698.88c-3.87-3.74-15.96.33-20.61,2.27-2.28.96-19.1,10.96-15.98,13.93l13.81,1.97c1.65-4.61-6.65-7.08-3.62-10.5,2.96,2.89,5.35,6.35,6.34,10.41,1.93.18,8.52.64,9.03-1.62l-5.17-11.43c1.67-.36,1.66.27,2.52,1.08,2.43,2.29,3.94,6.82,4.77,10.02l5.44-1.18c2.95-3.48-3.17-9.47-2.87-10.9.48-2.27,3.88,1.71,4.25,2.31,1.25,2.05,1.27,4.36,1.99,6.54,4.82-3.34,3.95-9.21.1-12.91ZM212.49,713.11c-13.39,10.26-32.02,7.9-47.03,2.66-6.05-2.11-17.4-7.88-22.33-11.85-1.44-1.16-1.89-3.16-3.6-3.95-.08,1.2.31,2.38.81,3.45,4.92,10.37,32.63,19.98,43.57,20.86,8.88.71,25.77-.8,28.58-11.16Z"/>
  <path d="M262.46,93.28l11.38,1.22c4.52-6.08,8.5-12.48,15.66-15.92,6.3-3.02,21.64-6.12,28.03-3.22,2.6,1.18,1.83,5.71,1.02,7.92-.3.81-5.72,5.13-4.81,6.06,10.2-2.22,21.54,3.38,28.61,10.5,10.2,10.27-4.22,9.84-11.52,11.86,3.28,5.15,6.32,10.37,8.58,16.06,1.69,4.24,3.84,10.35,3.95,15.15.07,3.24-.28,7.1-3.81,8.07-7.04,1.93-14.28-.63-20.55-3.79,2.24,8.35-.03,16.61-7.69,20.91-3.18,1.78-5.71,1.64-8.75,3.1,7.44,13.09-2.89,26.34-17.1,25.29,2.12,10.66-6.05,21.19-17.09,19.72,8.46,30.48-40.57,27.6-28.93-1.97-5.08-.71-8.66-2.13-12.18-5.9-3.78-4.04-6.34-12.2-1.61-16.12v-1.64c-.9-.03-1.96.13-2.8-.15-4.51-1.5-10.75-7.4-11.52-12.16-.5-3.09.36-8.7,3.14-10.36v-1.64c-2.9.02-6.75-2.03-8.82-4.02-12.61-12.08-1.57-28.43,14.07-27.53-2.48-15.73,12.23-23.43,25.63-17.75-1.31-11.48,1.84-17.19-7.94-25.25-9.73-8.01-14.56-6.92-25.93-8.26-5.57-.65-9.14-9.94-2.45-11.68,12.92-3.36,27.04,2.56,36.04,11.65.96.97.54,2.44,2.25,1.99.12-1.11.23-2.43.72-3.43,3.67-7.52,8.91-17.31,18.31-19.28,6.22-1.3,11.46,2.18,11.91,8.55.55,7.74-3.05,5.71-7.59,8.91-1.88,1.32-10.14,11.26-8.23,13.14ZM260.22,89.74c2.05-4.21,5.34-10.06,9.25-12.78,3.36-2.34,6.63-1.32,5.34-6.87-1.83-7.9-11.63-3.37-15.58-.08-6.83,5.68-8.04,14.08-9.97,22.13-.13.53-1.13.49-1.25.96-1.13,4.69-.73,17.83-.07,22.92.15,1.2,1.18.82,1.34,1.41.31,1.12-.13,5.03,1.69,5.45.83.19,3.2-2.29,3.45-3.1,3.11-9.92.43-19,5.79-30.02ZM245.37,95.25c1.32-16.11-23.52-23.81-36.23-19.96-1.97,6.78,5.67,4.43,10.08,5.03,7.07.95,12.62,4.16,18.59,7.71l7.56,7.22ZM308.49,92.62c-1.97-1.98,12.19-13.8,4.91-15.1-10.22-1.82-24.8,3.32-31.48,11.22-.6.71-4.28,6.17-4.02,6.52,6.05,2.27,12.26,4.41,17.75,7.89,2.89,1.83,18.61,14.03,18.09,16.74-.74,3.84-5.79-3.25-6.22-3.63-7.09-6.24-19.85-15.77-29.12-17.57-4.2-.82-7.85,2.94-9.91,6.22-5.73,9.18-5.63,22.51.41,31.56,2.67,4.01,4.26,1.46,6.59-1.55,1.68-2.18,5.05-10.35,7.66-10.12,3.03.27.98,3.88,1.06,5.56.3,6.24,3.41,16.4,8.81,20.12,1.66,1.15,9.22,4.96,10.09,2.2,1.24-3.93.85-11.27,1.51-15.58,1.15-3.57,8.62,4.11,10.86,5.37,4.32,2.43,18.69,8.25,22.85,5.32,1.58-1.11,1.14-4.92,1.06-6.89-.28-7.35-4.93-18.95-9.33-24.85-1.51-2.02-5.22-3.31-4.51-7,4.03.31,8.01-.4,11.83-1.65,1.6-.52,5.29-.96,4.56-3.23-.15-.47-6.3-5.89-7.24-6.57-7.65-5.5-17.12-6.52-26.24-4.99ZM270.35,97.23l-9.11-.57c-.81,1.15-.41,2.93-.8,4.01-.2.55-1.07.49-1.21,1.01-.53,1.96-2.63,15.94-2.02,16.58,6.03.42,5.24-7.01,7.11-11.62,1.43-3.52,3.74-6.44,6.04-9.41ZM238.47,138.64c2.9-.41,6.53.3,9.53,0-.34-3.34-.86-6.01.05-9.36.11-.41,2.44-1.08,1.1-3.64-2.63-1.46-2.41-3.87-5.29-5.54-8.6-4.98-21.76.54-21.44,10.92.2,6.52,6.15,6.25,9.56,10.86,2.08-1.18,4-2.89,6.48-3.24ZM279.57,133.38c-.9,3.03-6.45,10.33-9.85,8.89-1.63-.69-5.08-7.48-5.78-9.38-.86-2.32-2.09-10.9-2.41-11.39-2.65-4-9.64,5.34-10.17,8.97-2.95,20.21,26.48,23.52,28.8,5.12.09-.7.57-2.38-.58-2.22ZM226.96,160.32c-.25-2.65-.86-4.71-.59-7.48.54-5.43,5.97-8.09-.4-12.24-12.54-8.18-28.23,4.37-19.95,17.32,1.83,2.87,7.45,6.23,10.75,6.1,1.93-.08,6.77-5.28,10.18-3.69ZM283.33,140.79c-.13-.18-1.71-.9-1.78-.84l-1.24,4.21,5.83,3.68c-.93-1.51-2.11-6.08-2.8-7.05ZM253.69,163.38c2.77-3.01,4.32-11.58,2.09-15.11-7.03-11.1-26.87-8.31-26.23,7.13.49,11.68,16.59,16.19,24.14,7.98ZM290.77,164.24c3.33-.09,7.3,3.8,10.14,3.86,16.12.39,21.27-19.11,7.59-26.83-1.37,4.27-.35,14.43-5.74,15.65-3.8.86-9.39-2.7-12.67-4.48.99,4.1,1.63,7.61.68,11.8ZM260.21,161.9c7.16,17.97,32.11,10.18,27.05-6.98-1.23-4.16-6.73-8.71-11.02-7.44-1.23.36-2.47,1.59-4.44,2.15-3.18.9-6.3.84-9.56.96-1.73.58-1.32,2.78-1.81,3.98-.23.56-1.13.53-1.23.98-.23.98-.22,4.65,0,5.64.11.47.94.53,1.01.72ZM226.16,163.1c-8.45.93-13.04,9.91-10.04,17.59,5.05,12.92,30.29,7.88,26.47-8.06-.77-3.23-4.78-2.45-7.77-4.06-3.57-1.91-4.41-5.94-8.65-5.48ZM257.85,164.27c-3.05.04-4.02,3.16-6.97,4.53-1.7.79-3.65,1.16-5.5,1.41,2.03,5.75-2.43,12.33,2.64,16.71,10.28,8.89,25.44,2.67,23.01-11.7-5.01-2.12-12.67-4.62-13.19-10.95ZM288.88,167.02c-2.08,4.12-5.35,5.82-9.45,7.31-2.01.73-4.56-.16-4.93,2.84-.05.36.02,4.46.09,4.88,2.96,19.26,33.81,11.52,26.05-7.64-1.71-4.22-7.43-7.23-11.76-7.39ZM229.06,191.35c-8.04,14.54,9.24,25.45,20.95,15.36,2.73-2.35,5.16-9.57,3.58-12.86-.86-1.79-10.32-4.25-10.2-9.2-3.83,3.83-8.84,6.24-14.33,6.7ZM254.57,206.33c10.01.21,11.67,12.25,22.31,4.89,4-2.77,6.53-9.74,4.47-14.24-.79-1.73-3.84-3.47-5.42-5.1-1.4-1.45-2.39-5.02-4.57-4.64-.23.04-1.21,2.03-1.96,2.69-4.23,3.75-7.2,3.69-12.57,4.53.04,4.44-1.01,7.75-2.26,11.87ZM244.29,231.08c12.08,12.08,31.1-6,18.82-17.83-4.61-4.45-11.02-3.93-16.35-1.25-7.63,3.85-8.22,13.32-2.47,19.08Z"/>
  <path d="M537.07,79.03c5.28,9.15,1.44,18.59-6.4,24.4-9.87,7.31-28.64,9.95-40.71,10.89-.52,2.01,2.72,1.25,4.47,1.77,7.28,2.18,11.31,6.53,16.75,8.89,1.88.82,4.34.7,6.38,1.51,6.4,2.53,11.09,4.81,15.02,10.62,3.71,5.5,7.18,14.06,4.68,20.74-.18.48-3.65,6.21-4.29,7.01-3.76,4.76-10.03,5.4-15.39,7.3-.32,1.53.19,1.05.84,1.47,11.12,7.07,13.99,9.29,17.61,22.35.15.55,1.14.48,1.25.95.22.93.22,4.72,0,5.65-.11.47-1.11.41-1.25.95-3.04,11.6-6.26,15.31-18.1,19.25-21.83,7.26-78.75,8.16-100.94,2.27-10.78-2.86-23.45-9.58-22.38-22.37.99-11.85,15.59-24.46,26.55-27.35,1.92-.5,10.15-1.05,10.29-1.55.46-1.6-1.45-.82-2.32-.96-13.03-2.02-36.76-4.19-38.44-20.74-1.95-19.18,14.61-30.37,30.23-36.8-4.19-1.55-8.89-1.4-13.16-2.61-24.91-7.06-17.69-33.85.89-43.83,4.66-2.5,10.12-2.95,14.05-5.01,1.89-.99,3.67-3.26,5.91-4.6,8.56-5.12,22.86-7.94,32.77-7.39,5.76.32,12.04,3.03,17.09,3.33,3.92.23,8.8-1.8,13.09-2.02,20.07-1.03,35.85,9.15,45.51,25.87ZM505.23,80.64c-.53-.56-.57-1.82-1.15-2.46-14.68-16.04-32.54-25.64-55.03-22.17-7.22,1.11-16.03,3.53-21.56,8.35,16.28.26,31.2,6.94,43.09,17.74l-.37,1.66c-.86.64-1.35.92-2.42.51-1.75-.66-8.03-6.72-10.79-8.33-10.16-5.93-27.45-10.26-38.97-7.56-13.48,3.16-25.11,16.07-22.72,30.46,1.4,8.43,17.64,12.45,24.7,13.43,15.57,2.17,31.66,1.31,47.23.71,21.22-.82,89.22-2,61.79-40.03-3.77-5.23-12.3-10.91-18.37-13.19-7.77-2.91-18.73-4.88-26.61-1.64.04.81,6.43,3.55,7.54,4.28,3.68,2.45,16.03,12.9,16.77,16.78.1.52.06,1.07-.01,1.59-.97.24-2.28.73-3.11-.14ZM463.65,116.29c-2.6-.54-5.17.66-7.56.69-12.01.17-24.82-2.78-36.28,1.8-10.11,4.05-24.76,14.67-25.58,26.42-.97,14,7.51,18.89,19.6,21.88,25.63,6.35,87.81,9.89,111.78-.36,12.21-5.22,9.54-23.25,1.17-31.06-12.55-11.71-34.67-6.91-47.94,1.4-3.27,2.05-10.54,9.74-13.06,10-.83.09-1.95-.04-2.13-.88-.26-1.23,12.93-11.42,14.96-12.63,7.73-4.6,18.17-7.5,27.11-8.06.44-1.54-1.38-1.82-2.49-2.42-26-13.87-54.86-.27-73.86,18.43-1.85,1.82-3.67,1-3.09-1.1,1.59-5.73,20.28-16.91,25.96-19.42,3.72-1.64,8.39-2.14,11.41-4.69ZM525.88,182.9c-2.38-2.27-11.75-8.82-14.74-9.31-4.67-.76-13.92,2.71-19.22,1.86,3.42,3.29,7.94,5.42,11.48,8.56,1.16,1.02,10.01,9.53,5.9,10.49-1.97.46-3.99-4.05-5.2-5.28-17.67-17.95-27.22-12.77-50.02-13.75-4.08-.17-8.63-1.38-12.79-1.34-.31,1.88.4,1.09,1.52,1.4,10.1,2.79,20.4,6.62,28.41,13.7,1.18,1.04,7.06,7.08,5.57,8.56-3.59.3-5.72-4.36-8.23-6.55-21.09-18.37-57.01-21.63-69.41,8-.2.48-1.12.52-1.23.99-1.18,5.19.48,9.83,3.99,13.59,12.22,13.1,56.65,12.38,73.92,11.6,13.28-.6,39.6-2.61,50.22-10.26s8.91-23.6-.18-32.26Z"/>
  <path d="M35.64,178.73c-1.22-1.03-.63-27.84-.64-31.92-.1-33.05.85-89.29,44.53-94.77,36.37-4.56,52.24,24.84,57.26,55.47,2.97,18.12,4.81,48.08,2.72,66.29-.13,1.13-1.12,4.93-2.3,4.93H35.64ZM107.3,176.1h27.28c.92-.82,1.41-1.79,1.6-3,.43-2.72.62-8.69.73-11.76.68-19.93-.8-44.83-5.59-63.48-7.38-28.68-24.72-48.66-57.03-41.2l-5.12,2.43c9.27,2.23,18.25,6.91,23.12,15.34,13.85,24.01,13.2,59.4,14.38,86.85.21,4.93-.67,10.04.63,14.82ZM77.72,124.17l-.75-58.74c-.1-.65-.59-.7-1.03-.94-.98-.53-10.22-3.49-11.07-3.47-2.58.08-10.95,8.25-11.44,10.92l-.69,52.22h24.98ZM81.01,67.65v56.53h20.38c-.23-7.67-.87-15.7-2.68-23.16-.12-.51-1.08-.49-1.21-1-3.14-12.14-5.27-24.87-16.49-32.36ZM49.45,78.82c-1.58-.41-2.42,2.73-2.95,3.95-1.97,4.52-5.96,16.64-6.89,20.83-.73,3.27-2.15,15.74-2.05,18.93.14,4.53,8.7.8,11.89,1.64v-45.35ZM38.6,127.46l-.88,1.09c-1.57,15.42-.66,31.04.67,46.46.59,1.78,10.13,1.42,10.78.48.32-.51.25-1.09.32-1.65,1.07-8.73,1.03-35.32,0-44.1-.11-.96-.08-1.69-1.02-2.27h-9.86ZM77.72,127.46h-24.33c.57,3.66-.53,7.36-.68,10.82-.42,9.62-1.08,26.42,0,35.55.11.96.08,1.69,1.02,2.27h23.34l.66-48.64ZM102.04,127.46h-21.04v48.64h22.02l.99-1.64-1.97-47Z"/>
  <path d="M513.23,756.9c6.47,17.27-1.68,36.12-17.16,46.14-16.46,10.65-53.42,11.1-69.57-.53-19.49-14.04-21.06-41.6-6.81-60.05,2.63-3.41,7.73-7.36,10.06-10.97,5.94-9.21-11.42-17.13,1.75-25.2s50.58-10.32,63.37-.4c2.43,1.89,4.04,3.72,4.31,6.87.84,9.99-9.55,11.89,0,23.01,7.16,8.35,9.9,10.02,14.06,21.13ZM502.86,793.73c13.97-15.67,10.64-35.4-1.34-50.45-3.04-3.82-8.56-9.54-9.33-14.39-1.17-7.41,8.69-12.77,2.05-19.75-9.61-10.1-52.01-7.99-62.49.67-4.11,3.4-1.9,6.75.13,10.36.46.82,1.31.72,1.86,2.1.97,2.43,1.42,5.87.38,8.34-15.17,15.79-28.17,32.83-17.72,55.69,13.04,28.53,67.7,28.46,86.46,7.42Z"/>
  <path d="M87.38,740.91c.95,1.19,1.77,5.98,2.26,6.29,8.04-1.55,24.4,7.89,17.97,17.17-4.3,6.2-26.74,5.12-33.19,2.32-3.17-1.38-5.38-3.08-4.6-6.91-8.05-.35-25.6.92-31.9-4.58-4.45-3.89-2.22-11.37,1.33-15.12,11.13-11.77,37.78-12.13,48.12.84ZM39.76,753.04c.51.4,7.17,2.29,8.34,2.51,4.76.91,19.9,2.03,23.65-.09,1.11-.63,1.86-2.01,3.13-2.79,2.38-1.46,8.82-4.03,10.07-5.04,2.06-1.67-1.3-5.88-2.6-7.26-8.34-8.84-28.98-7.88-38.18-.64-3.15,2.48-8.82,9.84-4.42,13.32ZM90.1,750.08c-7.61.37-27.09,10.16-11.6,14.51,7.74,2.17,40.14,1.86,23.86-10.7-2.83-2.18-8.73-3.98-12.26-3.8Z"/>
  <path d="M83.64,246.43c11.29,0,22.59-.02,33.89.03,5.76.03,12.63-.71,18.42-.06,3.36.38,2.49,2.66.62,2.66h-18.08v37.14c0,.7-1.87,1.25-2.63.99v-37.14l-.99-.99H39.91c-.7,0-1.26-1.89-.98-2.63,12.31-1.38,27.17,1.44,39.15.03.96-.11,1.69-.08,2.27-1.02v-40.75c0-1.24,3.29-1.24,3.29,0v41.74Z"/>
  <path d="M295.14,758.66c1.86,2.33,2.61,8.79-.01,10.78-1.12.85-7.88,2.86-9.62,3.2-8.53,1.71-30.92,1.59-37.48-4.67-5.71-5.45,2.22-10.88,6.74-13.57,11.93-7.08,31.15-7.33,40.37,4.26ZM268.89,752.74c-4.47.54-18.98,5.5-18.99,10.66-.07.81.29,1.37.68,2.02,3.94,6.48,31.59,5.51,38.32,3.38,4.95-1.56,5.78-4.13,3.03-8.58-4.19-6.77-15.84-8.35-23.04-7.49Z"/>
  <path d="M380.8,53.17c-8.23,1.59-13.17,6.51-13.94,14.99l-3.39.86c-2.76-5.16-2.52-10.79-8.29-13.54-1.34-.64-6.4-1.1-5.93-3.26,6.23-3.17,9.62-2.93,12.14-10.22.65-1.88,1.07-10.1,4.99-5.61,2.36,2.71,1.48,8.23,6.96,11.44,2.59,1.52,7.72,1.25,7.46,5.34ZM374.23,51.22c-4.23-1.16-7.19-5.36-8.87-9.21-1.5,3.37-3.41,6.37-6.28,8.85-1.16,1-3.08.46-2.59,2.32,5,.67,6.1,5.48,8.21,9.21,2.4-5.27,5.16-7.65,9.53-11.16Z"/>
  <path d="M542.38,240.03c1.22,1.31,1.37,6.73,4.41,9.72,2.42,2.38,10.92,4.42,10.91,6.22,0,1.42-8.86,5.33-10.91,7.53-3.67,3.93-2.39,6.56-3.93,9.87-2.49,5.34-4.96-6.2-5.82-7.63-.49-.82-4.82-5.21-5.7-5.8-1.66-1.12-7.28-2.32-7.18-3.98,8.54-3.92,13.8-6.61,15.73-16.48.65-.46,2.04.07,2.49.55ZM552.4,255.64c-6.43-.42-8.38-5.54-11.83-9.87-1.11,4.7-4.98,8.39-9.41,9.86l-.45,1.3c1.52.49,5.39,2.55,6.38,3.5,1.81,1.73,2.66,6.04,4.79,7.69,0-7.45,6.12-8.62,10.53-12.48Z"/>
  <path d="M375.16,793.03c6.14,8.09-4.33,10.44-10.55,11.36-5.61.83-13.47.92-18.94-.61-8.45-2.36-8.64-8.93-2-13.75,8.73-6.34,24.59-6.09,31.49,3ZM355.69,788.9c-3.96.38-11.76,2.44-12.87,6.88-.8,3.22,2.63,5.6,5.49,6.03,5.6.84,16,.89,21.32-.95,6.67-2.31,3.69-6.88-.85-9.65-4.01-2.44-8.48-2.75-13.08-2.31Z"/>
  <path d="M190.45,104.15c1.55,1.77,1.35,3.66,2.99,5.89,1.76,2.39,4.07,3.35,6.81,4.21l.47,1.7c-.16,1.27-5.38,3.61-6.97,5.58-2.17,2.69-1.83,6.36-5.24,7.9-2.84-3.48-1.97-7.26-6.45-9.99-2.15-1.31-6.52-1.33-5.77-4.74.15-.65,3.82-1.26,4.9-1.77,4.73-2.24,4.71-6.22,6.65-10.44,1.6-.34,1.81.75,2.6,1.66ZM189.47,109.72l-7.2,6.23,6.24,6.24,6.88-6.24-5.92-6.23Z"/>
  <path d="M369.55,175.53c.95,2.23,1,5.66,2.69,7.49,1.99,2.15,6.23,1.43,7.89,4.58-2.14,2.85-5.28,2.69-7.56,5.57-2.07,2.63-1.58,6.16-4.58,7.24-1.22-.28-1.8-6.2-3.33-7.85-1.26-1.36-4.95-2.79-6.69-3.81-.53-.31-1.1.07-.86-1.15.42-2.67,5.82-3.49,7.55-5.62,1.3-1.61,1.51-4.56,2.43-6.44h2.46ZM368.32,193.19l5.24-5.59c-2.01-1.55-4.34-2.72-4.6-5.58-2.42,1.26-3.51,4.69-6.57,4.61-.49,1.91,1.18,1.05,2.31,1.93,1.33,1.04,3.26,2.97,3.62,4.63Z"/>
  <path d="M256.22,478.46h34.19c.2,0,1.23,1.08.98,1.63-1.01,1.56-1.94,1.53-3.57,1.69-9.56.96-21.13-1.03-30.94-.04l-1.64-.99.98-2.29Z"/>
  <path d="M150.03,793.96c-.26.16-1.62.09-2-.29l-.52-.8c-.09-4.16-.38-8.86-1.61-12.85-1-3.23-5.66-5.87-2.75-9.06,2.65-.78,5.54,7.16,6.04,9.06.55,2.08,2.21,13.06.84,13.94Z"/>
  <path d="M537.04,733.72c-.35-.68-4.7-4.47-.74-4.88,2.4-.25,3.49,3.69,4.28,5.62s4.64,12.82.97,12.82c-2.3-1.42-1.36-3.78-1.94-5.94-.69-2.6-1.35-5.22-2.58-7.62Z"/>
  <path d="M154.07,793.21c-.57-.9.82-6.01,1.28-7.28.16-.45,1.01-.56,1.21-1.03.82-1.93,2.95-9.25,5.63-8.69,2.44.51-1.43,5.27-1.95,6.58-.85,2.18-2.53,9.52-3.3,10.52s-2.64.26-2.87-.11Z"/>
  <path d="M318.35,699.97c.99-.14,1.55,0,2.34.61,2.04,1.54,5.35,12.33,5.4,15.04s-2.43,2.83-3.02.98c-.62-1.96-.63-4.67-1.43-7.11-1.13-3.45-3.38-6.1-3.29-9.52Z"/>
  <path d="M336.75,699.31c-.52,6-5.03,10.74-3.94,17.41-5.26,1.49-1.45-10.08-.32-12.8.42-1,2.72-6.15,4.26-4.61Z"/>
  <path d="M555.03,731.52c1.02,1.05-3.35,7.13-4.08,8.73-.66,1.44-.46,5.92-3.46,5.07-1.81-.51-.24-4.97.31-6.11.19-.4,1.06-.5,1.3-.95,1.31-2.39,2.59-6.97,5.93-6.74Z"/>
  <path d="M36.29,533.01c-1.06.06-1.54.23-2.28-.67s-3.07-8.2-4.11-10.33c-.26-.53-2.83-2.08-1.5-3.45,3.17-3.27,8.62,12.02,7.88,14.45Z"/>
  <path d="M139,793.8c-.54-.73-.84-3.86-1.53-5.36-.57-1.24-4.89-5.62-2.22-6.31s7.51,9.36,5.93,11.85c-.42.88-1.94.14-2.18-.18Z"/>
  <path d="M346.61,707.86c.2,1.24-.03,1.93-.63,2.98-.31.55-4.01,5.97-4.3,6.22-.96.84-1.8.72-2.96.65-1.8-2.54,6.57-11.22,7.88-9.85Z"/>
  <path d="M43.53,531.05c-4.01,1.12-1.8-7.35-.56-9.44s3.4-3.52,3.17-.14c-.17,2.42-3.8,6.21-2.62,9.58Z"/>
  <path d="M555.03,498.83c1.08,11.3,2.71,22.57,3.94,33.86,1.59,14.51,3.49,29.8,3.98,44.66.28,8.44.26,9.23-7.34,13.1-25.45,12.98-90.78,10.42-116.94-.6-4.2-1.77-5.43-2.29-5.31-7.23.54-22.8,3.37-48.95,6.7-71.55.33-2.21,2.42-16,3.16-16.57,1.48-1.13,3.86,1.43,5.3,2.02,22.81,9.45,56.84,8.88,80.77,3.85,2.4-.5,4.65-2.11,7.03-2.23,5.35-.29,12.65,3.17,18.71.68ZM485.95,538.31l-1.92-.04c-1.76,1.68,4.3,19.95,5.72,22.84.38.77,1.22.82,1.5,1.29,1.3,2.19,1.79,5.91,4.93,6.76.96-.77,1.06-.82.72-2.01-.4-1.39-3.26-5.2-4.15-7.03-.71-1.47-2.54-4.72-2.9-5.67-1.97-5.12-2.53-10.85-3.9-16.13Z" fill="#fff"/>
  <path d="M399,465.52c1.5,2.07,3.24,8.53,5.12,11.64,3.25,5.36,8.58,10.05,14.83,11.46l.52.79,1.45,17.5c2.46,1.6,1.09,6.95,1.27,10.01.8,13.42,2.41,26.87,2.54,40.29-3.41,1.12-6.99,2.73-10.4,3.73-25.69,7.54-59.27,7.48-85.8,4.26-5.54-.67-32.58-5.78-35.23-9.47-.76-1.07-.66-2.12-.66-3.34-.02-5.18.66-14.55,1.32-19.76.15-1.2,1.23-.87,1.35-1.4.66-2.78.28-9.33.76-12.93,2.03-15.12,5.36-41.12,10.41-54.16.22-.57-.03-1.47.02-2.13,2.96.18,5.37,2.33,8.19,3.32,20.7,7.28,52.19,6.66,73.47,1.75,2.77-.64,8.9-4.22,10.83-1.57ZM349.89,507.38l-1.92.02c-1.54,1,1.41,12.44,2.12,14.58,1.19,3.6,5.23,11.99,7.29,15.06,1.71,2.56,4.07,2.52,3.42-.12-.4-1.61-2.88-4.7-3.77-6.76-1.56-3.6-4.16-9.27-5.25-12.52-1.1-3.31-1.21-6.87-1.88-10.26Z" fill="#fff"/>
  <path d="M79.03,568.51c.3,6.53,2.58,14.11,6.68,19.29,6,7.6,12.12,10.23,20.09,14.74.73.41,1.13-.07.85,1.46-4.17-.15-8.85,1.84-12.85,1.98-4.77.17-14.45-3.81-19.35-5.61s-39.89-17.69-41.43-16.09l.08,2.54c12.26,4.02,23.9,9.76,35.9,14.39,8.28,3.19,17.82,7.87,26.72,7.3,4.92-.31,11.37-3.11,15.24-3.24,4.32-.15,5.69,5.21,6.55,8.58,3.51,13.7,1.83,28.29,2.4,42.29,5.33,5.63,13.54,5.94,20.3,8.76-.61,5.76-.54,11.77-1.52,17.46-.39,2.27-.7,6.09-2.62,7.24l-33.21,8.86c-18.18,4.42-33-6.27-48.56-13.53-5.38-2.51-11.48-4.54-16.67-7-4.4-2.08-12.54-5.07-12.52-10.48,1.87-25.78-2.39-54.86,0-80.25.68-7.26,6.1-9.42,12.5-11.17,13.04-3.57,28.1-4.86,41.44-7.54ZM92.84,686.82v-71.97c0-.77-2.16-1.9-2.62.66-.1,13.37.1,26.75.03,40.12-.05,8.69-.97,18.16-.61,26.84.06,1.35.84,2.84.6,4.34h2.61ZM75.64,651.22c.18-.29.84-6.17.68-6.68-1.27-4.11-5.13,2.02-3.76,6.36.48,1.53,2.71.91,3.08.32ZM59.96,656.59c-2.34-.47-4.09,6.21-2.29,6.57,2.23.44,2.62-5.15,2.29-6.57Z" fill="#fff"/>
  <path d="M536.21,305.36c.08.19.88.28,1.17,1.13,1.85,5.36,2.21,11.3,3.19,16.83-2.78.53-5.24,1.02-7.69,2.51s-5.85,4.84-.6,4.65c3.64-4.78,10.01-4.88,14.81-1.48,4.31,3.05,4.47,9.48,4,14.37-.45,4.6-2.64,8.02-6.36,10.74s-7.53,3.74-11.62,1.33c-1.28-.75-3.61-4.07-4.69-3.84-2.61.55.51,3.87.72,4.59.43,1.49-2.2,7.56-3.08,9.35-11.59,23.53-33.24,36.03-59.77,28.46-31.68-9.05-34.98-40.37-32.86-69.01,3.09-41.8,44.94-64.81,81.86-44.4,12.06,6.66,16.06,12.3,20.94,24.77ZM460.04,304.93c-3.9,5.52-11.24,5.22-16.44,7.23-3.41,1.32-1.19,2.84,1.89,2.57s17.27-4.78,16.19-8.81l-1.63-.99ZM490.29,306.25c-.8.23-1.14,1.46-1.04,2.29.35,3.02,13.79,8.32,16.97,8.75.92.13,2.57.21,2.79-.87.47-2.3-8.49-3.66-10.52-4.59-2.27-1.04-6.84-5.97-8.2-5.58ZM446.72,334.99c1.18,1.04,3.68,1.02,5.13.54,5.46-1.79,3.84-17.03-3.82-13.68-3.83,1.68-3.64,11.07-1.31,13.13ZM493.06,323.45c-6.99.87-7.68,14.56,1.1,13.68,7.02-.7,5.02-14.44-1.1-13.68ZM468.9,325.97c-2.45-2.45-7.41,7.47-8.24,9.17-1.73,3.52-2.52,6.51-3.63,10.05-.18.56-1.14.49-1.25.95-.64,2.7.68,5.87,2.59,7.78,2.84,2.83,15.6,5.79,16.45,1.94.63-2.87-3.86-1.56-4.82-1.67-2.52-.27-7.69-.71-9.28-2.61-3.84-4.59,3.5-15.87,6.02-20.19.88-1.52,3.1-2.11,2.17-5.42ZM468.76,364.27c-4.66.59-13.34,4.6-11.56,10.52,1.43,4.74,13.8,3.48,17.94,3.77,4.54.31,13.12,4,14.11-2.35,1.56-10.03-13.02-12.88-20.49-11.93Z" fill="#fff"/>
  <path d="M221.55,332.03c1.09,1.5,2.3,14.33,2.8,17.13,2.32,1,.96,3.22,1.3,5.38,3.27,21.03,5.56,41.13-8.01,59.05-19.28,25.47-68.76,19.11-85.13-7.01-.34-.54-2.07-5.09-2.08-5.5,0-.85,3.67-4.2.85-4.8-.52-.11-3.87,2.89-6.09,3.16-8.36,1.02-18.5-7.31-19.7-15.49-1.34-9.16,1.06-18.55,11.92-18.48,4.16.03,9.29,3.83,9.82,3.78.48-.05,7.52-4.78,8.11-5.39,4.98-5.08,6.01-16.13,4.82-22.78,7.81,1.07,13.75-1.46,19.02-6.95,10.47,2.96,20.87,2.03,28.09-6.78,7.96,5.35,18.46,5.56,25.54-1.22,2.15.74,3.3,2.74,4.98,4.07.97.77,3.45,1.43,3.75,1.84ZM200.67,342.39c2.45.57,4.63-1.3,6.83-1.26,3.28.06,8.35,4.83,10.32,2.31l.63-2c-2.15-5.07-9.15-5.77-13.83-3.97-2.05.79-4.61,2.33-3.95,4.92ZM155.51,347.21c-2.81,3.52-1.92,9.79,2.76,5.71,3.18-2.77,1.86-5.06,8.03-6.43,1.57-.35,6.43.42,6.61-1.79.25-3.09-6.01-3.25-8.04-2.92s-8.14,3.9-9.36,5.42ZM214.27,355.09c-4.72-3.46-9.42,2.32-8.04,7.71,2.13,8.29,12.78,6.98,10.71-2.83-.17-.78-2.17-4.51-2.67-4.88ZM167.6,358.96c-5.66,1.69-5.04,16.25,3.66,14.19,5.35-1.27,4.63-16.67-3.66-14.19ZM201.57,371.08c-.88-1.27-8.2-12.26-10.11-10.27-.5,3.38,3.07,4.87,4.87,7.28,4.38,5.87,10.31,13.33,2.32,18.64-2.65,1.76-6.73.81-7.19,3.64,10.51,1.54,18.29-6.84,12.52-16.78-.8-1.38-1.94-1.83-2.41-2.51ZM202.54,399.02c-1.1-1.85-6.38,1.84-8.42,2.23-3.78.72-8.34-.05-11.44-2.42-.49-.37-4.81-6.13-5.68-2.19-.36,1.61,4.2,4.9,5.57,5.6,7.14,3.64,13.05,1.68,20.04-.72,0-.73.27-1.94-.05-2.49Z" fill="#fff"/>
  <path d="M548.03,395.41c9.83,10.17,15.6,22.4,18.51,36.38.44,2.12,2.64,12.8,1.23,13.88-6.46,4.94-30.77,4.81-39.08,3.59-.52-.36-1.72-10.83-1.93-12.54-.57-4.71.45-9.79-2.96-13.46l-1.68,1.08c.09,1.92-.09,3.87.04,5.8.45,6.84,2.52,14.62,3.92,20.51.29,1.23-.13,2.84.01,4.15-.59.63-15.71-5.09-16.39-5.63-1.62-1.28-4.76-10.14-6.61-12.93-1.14-1.72-6.05-7.75-7.55-9.06-8.1-7.14-14.55.44-10.21,9.22-7.94-4.19-30.21-10.53-26.95,5.26-5.81-.06-7.49,4.73-5.4,9.68.39.93,2,2.13,2,2.48.02,1.48-4.51,3.7.09,8.57,4.45,4.71,9.84,4.65,14.67,7.03s7.06,5.7,13.44,7.6c4.31,1.28,8.73.78,12.05,1.76s13.13,8.23,17.28,10.33l18.19,7.76c-28.08,5.84-61.21,7.42-87.11-6.57-5.76-25.32-3.58-51.86-1.65-77.56l-2.3.66c-1.57,9.06-2.28,18.39-2.31,27.6-2.34-1.03-9.3-1.12-11.02-2.12-.34-.2-3.9-6.25-3.95-6.86-.07-.81,4.9-12.48,5.58-15.2.97-3.85,1.05-10.77,2-13.12.4-.98,12.97-12.4,14.45-13.16,5.89-3.05,6.01.06,10.48,2.36,1.65.85,7.05,2.61,7.94,3.56s.62,3.17,1.15,4.44c7.18,17.16,25.44,20.48,38.88,7.65,8.34-7.95,9.43-20.03,17.13-28.06,8.39,1.43,18.03,5.36,24.52,10.87,1.52,1.29,2.32,2.81,3.51,4.05Z" fill="#fff"/>
  <path d="M202.41,292.67c.68.56.71,1.89,1.99,2.28,3.08.95,7.89-.54,11.86.63,6.61,1.94,12.56,8.04,13.3,15.03.15,1.36-.76,2.69-.53,3.73.17.76,2.01,2.08,2.66,3.28,3.19,5.84,3.96,10.32,2.99,17.05-.5,3.44-3.3,10-7.06,11.01l-2.04-14.59c-2.01-3.03-8.03-3.05-9.5-6.46-.63-1.48,1.5-2.91,1.02-4.58-4.26-.66-3.72,2.16-5.95,4.23-5.61,5.2-16.13,4.83-22,.38-1.25-.95-1.12-3.29-3.59-2.65-2.42,12-18.73,12.05-27.89,7.91-4.74,7.99-12.69,10.38-21.45,6.87l-1.2,1.87c4.42,5.51,2.85,17.07-1.4,22.28-.68.83-5.34,4.39-6.25,4.42-1.24.04-4.64-2.32-7.23-2.6-13.59-1.45-18.36,7.78-17.45,20.07s12.81,21.28,24.91,19.46c1.64,6.65,6.68,11.08,10.61,16.33-4.79,1.66-8,4.32-13.3,2.46-.81-.28-4.89-2.61-5.45-3.09-1.25-1.08-1.63-3.66-2.94-4.29-2.83-1.37-6.59,1.19-9.81-2.02-3.89-3.87-1.85-10.53-2.79-12-.12-.19-2.06-.7-2.86-1.41-5.97-5.28-5.99-13.48-3.72-20.81.32-1.03,2.15-.95,1.44-3.07-6.31-4.21-4.86-18.21-1.54-23.94,1.21-2.08,3.41-1.05,1.46-5.57-.19-.44-1-.52-1.18-1.05-.92-2.61-.85-8.21-.02-10.81.19-.61,3.85-7.11,4.58-8.03,1.59-2,5.08-3.64,5.7-4.49.98-1.35.62-4.49,1.3-6.24.14-.36,3.64-5.71,4.15-6.38,2.83-3.78,10.5-8.88,15.11-9.87,2.23-.48,10.7-.03,11.11-.4.16-.14.28-1.96.81-2.79,5.27-8.29,21.13-12.85,29.98-8.45,1.44.72,3.05,3.16,3.9,3.32.45.09,6.56-2.73,8.62-3.01,8.92-1.22,13.07.51,19.66,5.97Z" fill="#fff"/>
  <path d="M387.15,253.89c1.9,2.44,3.21,5.36,4.81,8-16.99,5.59-12.52,25.51-14.45,39.43-.51,3.67-3.44,10.37-5.64,13.42-1.78,2.46-7.98,8.12-10.76,8.96-4.59,1.39-13.37-5.72-18.57-7.13-6.65-1.81-12.16-.36-18.43-1.29s-9.45-4.53-7.18-10.76c.13-.35,2.12-3.69,2.62-4.64,1.19-2.26,5.9-8.63,6.03-10.43.22-3.24-1.53-2.06-2.9-.25-3.16,4.17-9.31,13.67-9.61,18.71-.16,2.65,1.22,3.82,1.33,6.2-2.91,1.1-7.53,2.49-10.08,4.06-2.39,1.47-4.5,6.24-7.63,4.83-9.64-4.37-9.72-27.09-9.23-36.14,1.1-20.03,8.07-37.17,27.15-45.82,21.87-9.91,56.97-7.09,72.55,12.84ZM297.31,277.98c.84.88,7.76-2.39,9.12-3.03,3.02-1.43,8.86-4.44,11.48-6.27,2.19-1.53,2.44-3.37-.5-3.18-1.81.12-8.17,4.87-10.44,6.05s-7.12,2.12-9.25,3.75c-.83.63-.31,1.8-.41,2.69ZM343.09,265.54c-1.63,1.06-2.04,1.66-.7,3.19,1.82,2.09,19.05,12.57,20.99,12.61,1,.02,1.73-.19,2.3-1.05.23-1.38-.09-1.52-1.12-2.15-3.62-2.24-9.48-4.1-13.28-6.44-1.32-.81-7.47-6.27-8.19-6.14ZM310.91,294.87c5.77-6.51-2.72-18.4-8.34-9.33-4.23,6.82,2.89,15.48,8.34,9.33ZM353.65,298.16c3.61-2.67,3.75-16.09-5.1-13.3-7.7,2.43-2.34,18.82,5.1,13.3Z" fill="#fff"/>
  <path d="M421.18,376.31c2.13,3.38,4.38,6.93,5.95,10.81,1.43,3.54,3.07,7.21,2.97,11.15-1.4-.81-1.48-3.49-3.29-4.26-5.56-2.36-8.44,2.17-10.84,6.22-.87.02-4.51-10.6-5.41-12.3-.41-.78-1.23-.88-1.48-1.32-3.72-6.57-8.44-17.87-16.19-7.45-6.93-4.07-10.56-1.64-11.48,5.92-1.54-.05-5.59.73-6.57,1.81-1.46,1.61-.86,4.9-1.59,6.13-.92,1.56-6.2,2.13-4.29,7.88l-9.18-10.87c-6.23-5.33-12.21-2.15-10.55,6.26-8.24-3.15-27.83-13.33-27.89,2.68-7.79.5-9.81,5.84-5.61,12.1-2.53,1.13-3,3.22-2.62,5.87.38,2.67,3.58,5.74,3.76,6.7.15.84-.61,1.95-.25,3.59.06.28,3.03,4.22,3.35,4.57,7.47,8.2,17.62,10.32,28.26,11.18,3.29.27,8.07-.64,11.05.13,2.74.71,10.91,6.24,14.49,7.86,6.69,3.01,13.83,5.19,20.8,7.47l1.29,1.39c.74,2.82-5.98,3.89-7.98,4.39-20.53,5.11-55.11,5.79-74.78-2.54-6.76-2.86-4.87-3.74-6.63-9.68-.71-2.4-1.42-4.89-2.11-7.87-1.28-5.57-4.03-14.59-4.44-19.91-.27-3.52,1.71-6.97,1.98-10.52.41-5.44-1.44-10.29-1.32-15.8.13-6.03,1.99-12.77,1.9-18.92l-1.54-1.09c-1.9.45-2.89,14.11-3.29,16.43l-12.19-17.44c-.24-2.37,6.84-11.94,8.8-13.87,1.51-1.49,11.17-8.85,12.58-8.85,1.53,0,4.88,2.53,6.57,3.36,1.54.76,3.79,1.02,4.91,1.66,1.47.84,2.89,8.78,4.37,11.4,9.57,16.96,32.76,8.43,41.65-5.03,2.59-3.93,6.57-18.27,10.82-18.5,2.67-.15,10.68,1.92,13.67,2.76,15.68,4.44,23.95,13.13,32.35,26.49Z" fill="#fff"/>
  <path d="M120.71,443.37c5.28,6.86,7.22,11.73,9.94,19.97,1.8,5.45,5.52,14.4,1.67,18.86l-1.99,31.75c-2.99.14-13.52-2.1-15.39-.72-.77.57-.3,1.28-.39,2.03,2.25-.35,4.28.84,6.34,1.09.88.11,1.97-.53,3.08-.38,10.33,1.46,20.3,5.21,30.02,8.83-4.94,6.22-10.91,10.96-14.99,17.87-1.88,3.18-5.33,9.5-6.66,12.54-.72,1.63-1.95,11.18-3.07,11.37-7.14-1.83-14.01-4.89-20.43-8.47-13.4-7.48-27.18-18.24-28.47-34.63-2.1-26.6,6.63-61.28,24.64-81.18,1.91-2.11,6.97-7.69,9.9-5.95,1.07.64,4.74,5.62,5.82,7.03Z" fill="#fff"/>
  <path d="M502.03,442.07c.12.2.83.37,1.25,1.08,1.1,1.86,3.09,7.85,4.44,8.68l35.82,12.88,2.28-1.03c-.02-1.75-14.06-5.87-16.33-6.99l-.09-4.51c13.16-.03,27.09,1.5,39.44-3.94,1.54,11.62,3.47,36.66-7.3,44.29-14.84,10.52-40.37-2.54-54.28-10-2.17-1.17-9.26-6.19-10.54-6.55-4.27-1.21-9.4-.66-14.63-2.46-4.89-1.69-6.96-4.49-10.74-6.35-3.47-1.7-7.39-1.65-10.94-4.18-3.94-2.82-5.67-8.66.79-7.37,2.43.49,16.41,6.28,17.58,4.44.07-.12.07-1.77-.02-1.92-3.93-1.42-22.33-5.57-23.53-9.02-2.58-7.4,11.44-4.13,15.03-3.19,3.22.84,8.16,3.79,11.15,4.03,2.14.17,2.99-1.55,1.15-2.53-2.94-1.57-10.2-3.88-13.6-4.8-3.6-.97-9.46.36-7.78-5.11,1.21-3.96,11.3-2.3,14.47-1.58,6.11,1.4,11.03,5.8,16.96,6.37.83-3.16-1.83-3.21-2.91-4.64-7.11-9.44-.42-13.83,6.86-4.88,2.02,2.48,3.81,6.49,5.51,9.29Z" fill="#fff"/>
  <path d="M409.32,393.43c.12.25.99.47,1.45,1.47.73,1.61,3.57,8.94,3.54,10.2-.13,4.31-3.66,4.54-5.92,6.61-4.44,4.07-4.75,11.32-3.2,16.75l1.92.05c-.26-4.59-1.17-8.89,1.74-12.98,1.44-2.03,5.2-3.08,6.19-4.4,1.67-2.23,4.66-18.84,10.53-14.55,3.87,2.83-1.42,24.36-3.38,28.79-.24.54-1.11.63-1.45,1.35-2.13,4.5-3.56,4.81-.36,9.27.5.69,1.46.95,1.86,1.57,1.67,2.59,6.26,13.53,7.9,14.33.82.4,3.16.23,3.27-1.01-1.87.28-5.1-8.05-4.59-8.55l8.24,1.94.67,32.92c-13.09,14.95-26.74,9.06-34.22-7.27-1.81-3.95-4.07-9.24-5.52-13.02-1.73-4.5-3.06-12.9-5.04-16.52-.94-1.72-5.55-4.26-7.13-6.02-5-5.61-13.41-24.46-14.11-31.9-.28-2.98-1.03-7.04,3.15-6.09l7.88,17.9c.33.6,1.09.57,1.69.5.65-.08,8.26-6.91,10.41-8.08,2.57-1.39,12.85-3.91,13.28-4.47,2.1-2.69-5.33-1.77-5.57-2.01-.06-2.29-.86-4.44-1.68-6.53-1.63-4.13-7.11-10.38-4.56-14.44,3.19-5.06,9.33,6.67,10.92,9.39.95,1.62,1.33,3.25,2.11,4.8Z" fill="#fff"/>
  <path d="M398.99,269.01c4.34,4.96,4.99,15.74,4.83,22.12-6.42-.71-10.96-1.48-15.49,3.91-1.51,1.79-2.89,4.49-2.27,6.83.2.74,1.66-.1,1.33,1.41-2.5,1.22-1.05,6.65-1.4,9.78-3.78,33.78-29.6,52.76-63.17,44.26-18.63-4.72-30.31-18.51-33.39-37.27,2.59,2.71,3.6,6.63,8.23,6.59,3.85-.03,4.67-3.74,6.72-5.3,1.5-1.14,9.2-4.51,11.04-4.61,2.68-.14,5.31,1.19,7.88,1.33,6.03.32,12.19-.62,18.1.97,9.84,2.65,12.78,12.34,24.53,5.52,20.84-12.09,11.78-32.64,17.48-50.22,2.23-6.86,9.99-11.72,15.58-5.32ZM319.51,327.45c-4.95.75-9.12,4.62-8.37,9.96.82,5.84,8.14,3.93,12.13,4.33,5.39.55,21.29,5.26,20.7-3.54-.64-9.4-17.14-11.87-24.46-10.76Z" fill="#fff"/>
  <path d="M408.42,565.88c.8.83.35,12.16.61,14.18.16,1.25,1.26.64,1.42,1.88,1.35,10.62-.84,24.38-.04,35.53.55,7.69,3.5,15.24,3.94,23-.12,1.24-2.94,3.74-3.99,4.57-1.24.97-10.42,6.98-11.13,6.29.56-1.74-.92-1.86-1.29-2.47-2.58-4.19-3.55-7.3-7.7-10.56-8.14-6.39-18.2-9.2-28.48-9.64,2.5-1.75,9.92-5.51,10.5-8.56-.38-16.76-.71-33.66-2.61-50.26,13.08.3,25.94-2.03,38.79-3.95Z" fill="#fff"/>
  <path d="M479.87,614.34c-1.69,3.72-2.77,24.56-2.45,30.12.4,6.95,4.11,15.7,2.64,22.18-.11.47-1.03.51-1.23.99-1.58,3.85-1.37,4.23-5.4,6.31-4.77,2.46-10.81,3.49-15.96,4.98-2.27-2.15-2.79-5.43-4.46-8.08-5.05-8-14.58-15.16-24.21-16.23l13.67-10.32.8-50.15,36.82,6.89c.89.68.21,12.34-.22,13.31Z" fill="#fff"/>
  <path d="M192.77,442.31c.95,11.65,1.85,23.43,1.31,35.15-.47,10.23-2.21,20.88-4.01,30.17-.6,3.08-3.65,18.88-4.87,20.11-4.53,4.63-22.97-2.01-27.84-5.67.21-12.86,1.16-25.85.6-38.72-.43-9.83-2.78-20.22-4.96-29.88-.8-3.56-2.31-6.92-2.96-10.51,8.56,7.69,22.98,9.48,33.52,4.93,3.4-1.47,5.83-4.65,9.2-5.58Z" fill="#fff"/>
  <path d="M543.86,598.08c1.12,17.38-1.96,35.69-.68,52.94.5,6.75,5.32,18.37,1.9,24.2-2.48,4.22-9.6,7.57-14.36,8.32.2-5.99-5.77-11.66-10.31-15.01-6.42-4.73-15.17-7.92-23.22-7.35.85-3.84,9.17-4.75,9.85-8.22.59-3.04.15-10.92.04-14.48-.16-5.19-1.12-11.16-1.37-16.38-.32-6.67-.04-13.42-.63-20.08,13.12.14,25.89-2.18,38.8-3.94Z" fill="#fff"/>
  <path d="M342.68,569.16l-1.34,41.77c.35,6.86,2.43,14.25,2.65,21.01.08,2.58.51,5.03-1.73,6.8-1.92,1.53-16.78,7.48-17.95,6.64-2.96-13.36-15.24-24.2-28.96-24.95-1.82-1.56,10.26-7.06,9.84-8.88.14-16.15-2.4-32.18-.64-48.29,12.31,3.62,25.26,5.33,38.13,5.91Z" fill="#fff"/>
  <path d="M282.46,572.2c.08.2,1.29.36,1.08,1.21v74.35c-2.06,1.8-1.02,3.17-1.67,5.57-1.37,5.07-10.62,7.36-15.19,8.47-5.53,1.35-17.01,3.92-21.98,1.69-2.56-1.15-5.18-5.07-3.63-7.57.37-.59,9.71-5.17,11.46-6.29,5.49-3.52,8.75-5.15,9.84-11.85,2.5-15.39.21-33.06-3.15-47.43-.41-1.76-3.17-12.81-2.69-13.29,5.57-1.08,12.3-1.94,17.62-3.75,3.69-1.25,5.11-3.77.55-3.45-3.29.23-18.37,5.58-20.06,4.48-1.4-7.79-6.61-12.07-11.2-17.9,2.07-2.7,1.73-3.53,5.47-3,4.28.61,25.13,7.13,27.94,9.53,2.58,2.2,4.36,6.12,5.6,9.21Z" fill="#fff"/>
  <path d="M224.59,446.66c13.33,16.64,17.64,34.38,23.31,54.56,3.9,13.87,6.42,21.26,2.41,36.4-1.47,5.55-5.15,10.37-7.58,15.77-1.4.96-3.76-4.01-4.59-4.93-1.41-1.55-4.33-4.52-5.91-5.92-6.75-5.97-15.34-9.86-24.33-10.84-.57-.63,2.33-4.55,2.95-5.26,2.29-2.6,9.37-8.73,12.47-9.88,2.01-.75,10.59-1.72,10.88-2.94.69-2.94-8.35-1.06-9.89-.68-1.67.42-2.91,1.53-4.57,1.67,0-9.98,1.04-19.92.68-29.93-.21-6.02-1.24-11.92-2.03-17.69-1.19-8.7.97-19.65-1.94-28.62,1.16-1.22,7.46,7.44,8.14,8.29Z" fill="#fff"/>
  <path d="M364.14,399.81c9.04,11.95,10.33,27.76,21.64,39.16,1.32,1.33,3.37,1.45,4.51,3.38.68,1.15,4.12,11.95,3.66,12.44-2.89-.38-5.8-1.32-8.52-2.32-3.42-1.26-8.37-3.26-11.65-4.79s-12.01-7.47-14.49-7.91c-2.3-.41-8.79.85-12.32.55-10.22-.88-21.72-5.04-27.28-14.12.14-2.7,6.82,1.58,7.89,1.96,1.21.44,7.9,2.93,7.22.02-.47-1.98-18.64-5.57-18.99-12.5-.11-2.24,1.76-2.98,3.68-2.45,2.53.7,15.42,8.69,17.29,6.73l.03-2.21c-3.65-1.37-19.14-7.35-20.32-10.71-2.43-6.94,10.48-3.92,13.57-3.03,3.37.96,8.41,4.01,11.3,4.53,1.11.2,1.25.27,1.99-.74.59-2.19-6.54-4.71-8.37-5.42-1.73-.67-9.57-2.52-9.91-2.91-1.55-1.78-.28-5.02,2.02-5.95,3.37-1.36,13.03,1.85,16.52,3.52,5.12,2.44,13.72,11.92,9.54-.87-.17-.52-1.11-.51-1.23-.98-.84-3.31,1.4-6.06,4.61-3.84,1.01.7,6.7,7.25,7.62,8.47Z" fill="#fff"/>
  <path d="M113.71,563.41c.62.68.86,2.68,1.71,3.88,13.4,18.85,32.51,16.65,39.58,43.25,3.15,11.86,5.12,38.79,3.61,51.67-.11.92.02,1.83-1.12,2.2-.77.25-14.3-1.77-16.03-2.21-2.02-.52-3.78-.62-3.83-3.28-.28-14.71,1.01-30.52-1.59-45.21-3.47-19.56-23.75-22.24-33.24-36.45-3.07-4.59-6.4-12.14-6.71-17.61-.06-1.09-.3-5.53,1-5.6,3.8,2.29,7.46,4.87,11.3,7.09,1.32.77,4.58,1.47,5.3,2.25Z" fill="#fff"/>
  <path d="M274.57,369.73c12.29,11.19,27.56,30.9,23.21,48.4-1.16,4.69-3.89,4.87.02,9.55l4.77,25.44c-2.33,5.42-9.78,9.39-15.53,9.49-14.96.27-18.34-18.98-18.02-30.44.32-1.01,7.07.87,5.92-2.67-.3-.94-6.03-1.47-7.99-2.53-2.2-1.19-3.62-3.07-4.47-5.38,0-.42,4.96-1.49,5.61-4.22.27-1.11-.63-2.19-.09-3.3,1.61-3.37,8.47-2.66,11.55-2.64-.25,4.97-.55,11.48,5.91,11.83.27-3.89-3.65-5.01-3.34-8.92.16-2.02,3.78-4.8,3.34-6.51-.77-1.03-.87-.94-1.99-.73-4.47.84-6.49,2.57-11.6,1.15-4.03-1.12-6.37-4.19-1.99-6.81,3.89-2.33,12.04-5.15,16.53-4.43,1.35.22,5.17,3.13,5.62.93.83-3.99-11.3-4.18-13.7-3.72-1.15-2.53-2.25-5.39-3.78-7.72-3.12-4.77-7.59-9.03-9.8-14.52-1.12-2.77-1.68-4.95.63-7.29,2.11-1.58,7.57,3.59,9.17,5.05Z" fill="#fff"/>
  <path d="M162.86,665.13c-.49-.05-1.12-.33-1.68-.35l-.63-1.28c-.11-16.43.76-32.96-2.08-49.21-.95-5.46-2.99-11.17-5.69-16-6.86-12.29-22.96-17.96-32.66-27.82-.75-.77-3.15-3.38-2.63-4.61,6.3,1.86,13.36,5.6,19.88,6.41,3.57.44,7.92-.48,11.15.68,8.21,2.94,21.24,18.1,24.35,26.27,5.36,14.03,7.22,48.61,5.45,63.63-.11.96-.08,1.69-1.02,2.27-4.68-.32-9.85.43-14.46,0Z" fill="#fff"/>
  <path d="M191.25,583.83c1.74,2.15,4.38,13.08,5.03,16.34,4.03,20.21,2.85,41.47,3.07,62.01l-.64,1.34c-2.6.5-16.43,2.52-17.49,1-.92-10.97.23-22.24-.26-33.26-.43-9.71-2.69-23.04-5.93-32.19-4.36-12.32-14.95-20.5-24.98-28.25.95-.66,2.66-3.24,3.58-3.37.43-.06,7.94,1.62,8.43,1.87,1.92.98,3.06,6.1,4.51,7.98.32.41,4.24,3.9,4.52,4.02,4.43,1.92,5.55-1.54,7.7-2.17.41-.12,7.44,1.1,8.27,1.33.26.07,4,3.12,4.2,3.36Z" fill="#fff"/>
  <path d="M367,569.82c.95,16.64,2.92,33.31,2.29,49.95-5.77,4.3-12.18,8.14-17.19,13.38-3.37,3.53-7.15,11.41-10.74,13.25-11.68,5.96-38.84,12.16-51.47,9.38-2.05-.45-5.46-1.99-4.41-4.46,10.82,2.85,23.96.82,34.88-1.61,5.42-1.2,21.14-5.66,24.65-9.54,2.18-2.41,1.79-5.77,1.6-8.89-.54-9.11-2.77-16.41-2.65-26.33.11-8.73.15-18.19.66-26.95.08-1.42.52-6.94.78-7.76.65-2.06,3.78-.45,5.47-.4,5.37.16,10.78-.18,16.14-.03Z" fill="#fff"/>
  <path d="M97.68,573.54c8.16,15.04,27.08,20.17,33.42,33.29,2.9,6,4.08,13.67,4.46,20.52.59,10.67-.42,21.82,0,32.53-.98.96-11.63-2.74-12.36-5.06-.62-10.65.66-21.49-.79-32.07-.49-3.6-2.35-10.55-3.6-14.15-2.49-7.21-6.45-5.8-11.96-8.41-15.37-7.29-26.01-19.35-25.22-37.28.27-6.25,2.32-12.71,3.98-18.71l9.09,8.35c-1.4,6.78-.33,14.92,2.97,21Z" fill="#fff"/>
  <path d="M219.73,659.21c-.94-17.04.14-34.62-2.06-51.52-1.2-9.24-3.66-16.42-6.65-24.9-.77-2.18-2.08-4.63-3.11-6.73.08-1.09,8.14-2.57,9.83-3.29,2.41-1.02,3.74-2.85,6.15-3.47,2.37.22,5.33,6.69,6.26,8.83,4.24,9.78,5.58,22.15,6.04,32.74.64,14.56-.24,29.27-.99,43.76l-15.47,4.57Z" fill="#fff"/>
  <path d="M201.59,553.79c.09.21.86.32,1.15,1.16,1.43,4.06,2.62,9.61-3.36,9.59-1.73-6.32-5.23-14.37-11.86-16.41-.75,3.46,2.64,4.15,4.21,5.98,3.42,4,9.53,17.08,2.03,19.69-2.22.02-1.77-3.58-2.34-4.78-.3-.63-1.1-.59-1.45-1.34-2.05-4.42-2.98-9.38-7.04-12.67-.6-.82-1.89.22-1.98.68s4.48,6.26,5.18,7.95c1.72,4.16,3.97,12.15-1.73,13.97-4.66-.31-3.69-5.7-4.84-8.59-.21-.54-1.02-.61-1.19-1.04-1.12-2.75-1.92-8.05-5.97-8.02-.62,3.02,2.18,4.74,3.11,7.07,1.06,2.65,2.26,11.11-1.46,11.97-3.77.13-6.72-10.33-10.51-12.5s-11.19-.92-14.03-6.3c-.28-1.48,4.09-8.71,5.22-10.33.63-.9,1.77-1.29,2.43-2.17,1.97-2.64,8.84-12.85,11.68-13.19,1.54-.18,12.22,1.99,14.21,2.62,8.71,2.75,14.88,8.45,18.53,16.65Z" fill="#fff"/>
  <path d="M207.2,578.4c2.77,6.44,4.25,13.09,6.02,19.83.28,1.08,1.44,2.83,1.83,5.53,2.67,18.47,1.44,37.15,2.74,55.68l-16.46,3.72c.46-4.42-.61-9.91-.05-14.18.17-1.29,1.58-.35,1.43-3.27-.11-2.17-1.26-1.28-1.43-2.56-.73-5.58.37-13.19.08-19.13-.65-13.13-3.11-27.52-7.92-39.73,3.35.11,7.8-1.77,10.51-3.64,1.41-.97.88-2.97,3.25-2.25Z" fill="#fff"/>
  <path d="M501.99,618.28c.08.17,1.36.21,1.15,1.12l1.29,32.79c-7.47,4.6-15.36,9.11-21.39,15.55-2.16-1.97-.22-4.89-.31-7.51-.21-6.47-2.09-13.02-2.02-19.79.06-5.99,1.04-12.95,1.37-19,.15-2.72.09-19.87,1.3-20.74l17.79,1.6c1.76,1.2-.37,13.31.83,15.97Z" fill="#fff"/>
  <path d="M183.57,667.76c-.04,4.7-.67,9.3,2.63,13.14-14.3,1.73-28.2,11.66-32.22,25.64-6.2-3.9-14.86-6.63-14.46-15.42.36-7.91,5.06-17.33,3.3-25.99,13.43,2.28,27.11,2.84,40.76,2.63Z" fill="#fff"/>
  <path d="M238.03,565.34c1.05.62,6.33,11.78,7.01,13.69,3.97,11.3,5.73,23.57,6.28,35.79.47,10.36-.16,20.92-.32,31.28-.85,2.76-8.98,6.26-11.86,7.21-.74,0-.4-13.42-.37-14.83.47-17.17,1.14-33.41-2.89-49.64-1.69-6.78-3.83-13.12-7.6-19.01,3.4.9,7.26-5.96,9.75-4.49Z" fill="#fff"/>
  <path d="M133.38,439.24c2.73,4.5,5.56,12.54,6.97,17.69,2.82,10.31,5.47,23.76,5.78,34.32.27,9.11-1.06,18.23-1.35,27.31l-11.09-3.37c-.07-3.12-.24-6.31-.08-9.44.46-8.96,3.11-18.9,3.29-27.64.16-7.61-6.28-23.76-10.19-30.55-3.02-5.25-7.31-9.16-11.5-13.48l4.24-3.61c6.5-5.06,9.49,3.03,12.59,7.86.27.42,1.15.6,1.34.92Z" fill="#fff"/>
  <path d="M376.86,659.21c-.64-.63,1.41-5.34,1.85-6.36.76-1.76,4.22-5.05,1.12-5.46-3.09,3.67-5.75,7.49-6.91,12.16-1.45.84-8.15,1.68-8.58-.12-1.33-7.36,5.43-11.23,7.25-17.31-3.62-.04-5.06,4.32-6.68,6.82-.5.76-1.55.97-1.89,1.54-1.27,2.16-2.07,6.22-1.95,8.73-10.13.19-6.38-7.51-2.92-13.11,1.09-1.76,3.64-2.43,2.91-5.3-1.95-.32-3.2,1.36-4.22,2.67-2.52,3.21-4.88,8.59-5.64,12.44-2.77-2.06-5.97-5.42-4.95-9.22.96-3.57,9.48-13.6,12.96-14.67,8.57-2.63,25.68,5.11,31.8,11.38,1.87,1.92,6.56,8.43,3.85,10.46-2.05,1.54-16.56,6.75-18,5.33Z" fill="#fff"/>
  <path d="M525.88,677.84c.72,1.05,3.49,6.63,2.23,7.35-4.57.62-9.19,2.75-13.68,3.43-2.65.4-5.41-.41-7.73.81-2.13-2.67,6.5-8.28,4.94-9.84-4.38-.74-7.01,8.61-8.53,9.53-1.85,1.12-5.19-.17-7.24-.34-.36-5.13,4.18-7.58,5.26-11.82-5.24.58-6.29,7.51-7.86,11.56l-6.33-1.68c-.31-5.7,3.74-9.41,6.3-13.82-3.03-.66-3.71.73-5.14,3.07-1.71,2.79-3.47,6.8-3.41,10.06-.65.77-5.71-2.81-5.97-4.27-.32-2.63,1.08-2.13,1.31-2.81.44-1.28.33-2.69,1.04-4.09,1.75-3.46,8.83-11.15,12.62-11.71,1.34-.2,8.74.4,10.23.7,6.8,1.38,18.02,8.12,21.95,13.86Z" fill="#fff"/>
  <path d="M202.48,429.99c.81,2.66,1.63,5.36,2.05,8.13,3.43,22.71.48,47.76-4.07,69.38-.98,4.68-2.06,13.17-3.88,17.16s-3.76,2.6-7.45,3.59c-.67-.3-.93-.66-.94-1.42,0-.7,1.65-6.41,2.01-7.76,6.61-24.57,8.23-52.45,5.12-78.32-.39-3.22-1.26-6.44-1.89-9.61,2.46.36,7.29-3.25,9.05-1.15Z" fill="#fff"/>
  <path d="M143.7,436.16c.08.18,1,.37,1.43,1.49,9.84,25.49,10.58,56.62,8.19,83.53l-6.59-2.42c.51-9.41,1.73-18.72,1.36-28.18-.69-17.85-4.77-34.28-11.94-50.5l-9.78-12.58c-.24-1.3.21-.8.83-1.12,1.67-.85,9.05-3.47,10.34-2.86,3.35,3.64,4.37,8.35,6.17,12.63Z" fill="#fff"/>
  <path d="M214.3,435.9c.58,1.01,1.34,10.62,1.47,12.66,1.31,20.85-1.21,38.43-4.69,58.4-.57,3.3-2.11,15.04-3.3,17.08s-7.47,2.57-9.75,2.4c.56-2.66,1.72-5.13,2.43-7.75,1.86-6.88,3.59-14.85,4.71-22.24,3.28-21.71,4.58-45.18-.56-66.63.36-.44,9.41,5.58,9.69,6.08Z" fill="#fff"/>
  <path d="M237.44,657.27c.61,3.37,2.37,6.06,4.64,8.51-2.26.89-5.15,1.77-7.19,3.01-4.56,2.77-11.64,10.89-13.98,15.61-1.35,2.72-2.51,6.02-3.17,9-2.26-1.08-15.58-6.82-16.32-7.99-.28-.44-.27-4.58-.09-5.35.11-.47,1.12-.42,1.25-.95.63-2.55,2.11-12.01,3.62-13.35l31.24-8.48Z" fill="#fff"/>
  <path d="M165.38,693.62c4.59-4.28,17.57-10.75,23.79-10.63,4.23.08,12.73,7.86,16.08,10.73.02.89-8.09,1.54-9.83,1.99-9.71,2.49-20.63,9.45-26.05,17.97-2.37-.61-11.32-3.43-12.02-5.62-.97-2.98,5.8-12.36,8.04-14.45Z" fill="#fff"/>
  <path d="M453.13,679.59c-9.37,1.48-18.82,1.66-28.27.66,1.13-4.04,4.87-6.51,8.54-7.89-2.01-2.83-5.13-.41-6.93,1.29-2.03,1.92-3.89,7.53-7.57,5-1.97-1.35.28-6.19,1.68-7.6.54-.54,6.19-3.48,4.93-4.59-5.14.28-10.03,6.04-9.87,11.17-8.43-3.72-.78-13.76,4-17.37,3.7-2.8,6.62-3.58,11.3-2.84,7.84,1.23,21.69,13.68,22.18,22.19Z" fill="#fff"/>
  <path d="M189.96,432.66c1.5.43,1.81,3.82,1.47,5.24-.09.39-4.9,5.08-5.68,5.61-9.08,6.19-22.78,5.2-31.61-1.04-6.8-4.81-8.97-14.77-13.97-21.19,5.35,1.12,9.44,5.28,14.67,7.35,6.42,2.55,15.57,4.4,22.45,4.5,3.77.06,9.57-1.35,12.67-.47Z" fill="#fff"/>
  <path d="M262.46,675.64c-8.06.93-16.72,6.62-21.19,13.34-2.18,3.28-3.04,6.98-5.6,9.66l-15.29-3.93c2.28-10.15,10.15-20.91,19.74-25.28,1.29-.59,4.57-2.05,5.75-2.19,3.3-.39,12.23,4.82,15.2,6.86.42.29,1.7,1.26,1.39,1.56Z" fill="#fff"/>
  <path d="M168.44,529.74c-2.23,2.83-5.18,5.17-7.56,7.87-7.09,8.03-12.79,17.17-17.61,26.47-.9,1.74-1.65,3.78-1.79,5.75l-9.11-2.06c-.26-.41-.23-3.97-.06-4.71.11-.46,1.08-.45,1.23-.98,3.84-12.84,7.54-20.71,16.81-30.39,1.39-1.45,5.6-5.51,7.36-5.77,1.91-.28,7.97,4.25,10.73,3.81Z" fill="#fff"/>
  <path d="M224.59,563.5c-8.04,9.44-12.13,4.93-17.99,9.3-2.42,1.8-5.29,6.81-8.84,8.25-2.7,1.09-8.6-.75-8.31-3.65l1.12-1.6c4.09,1.37,7.73.35,9.14-3.98.41-1.26.07-3.15.61-3.99.67-1.03,5.22-1.04,6.13-5.04.68-3.02-.78-8.62-1.99-11.53-1.51-3.64-4.67-5.26-5.75-9.03,11.99,1.23,21.72,8.22,29.32,17.06.29,1.18-2.72,3.39-3.43,4.22Z" fill="#fff"/>
  <path d="M248.26,568.25c6.97,11.4,9.06,23.48,10.83,36.82,1.26,9.5,2.26,19.04.1,28.3-1.13,4.83,1.25,8.19-4.96,12.03-1.49.28-.91-.65-.98-1.63-1.74-23.78,2.43-46.08-7.57-68.69-.97-2.19-6.71-11.47-6.68-12.16.03-.49,2.46-3.61,2.74-3.61,3.19,2.3,4.56,5.75,6.51,8.93Z" fill="#fff"/>
  <path d="M395.09,293.91c17.34-3.58,18.41,23.5,4.6,28.91-2.49.98-11.42,2.2-11.48-1.63-.05-3.3,1.46-8.97,1.8-12.65.49-5.36-2.2-13.12,5.09-14.63Z" fill="#fff"/>
  <path d="M366.34,354.89c-4.47,8.14-9.15,17.23-18.41,20.69-11.87,4.44-24.5-1.57-24.97-14.78,11.53,2.57,22.5,2.74,33.7-1.48,1.59-.6,9-5,9.69-4.44Z" fill="#fff"/>
  <path d="M502.87,404.61c-7.19,8.26-22.72,12.15-30.93,3.44-1.16-1.23-6.53-9.93-5.65-11.1,14.65,4.68,31.72,1.98,44.04-7.23.85,1.08-6.07,13.3-7.45,14.89Z" fill="#fff"/>
  <path d="M209.64,698.88c3.84,3.71,4.72,9.57-.1,12.91-.73-2.18-.74-4.5-1.99-6.54-.37-.6-3.77-4.59-4.25-2.31-.3,1.43,5.82,7.43,2.87,10.9l-5.44,1.18c-.83-3.2-2.34-7.73-4.77-10.02-.87-.82-.85-1.44-2.52-1.08l5.17,11.43c-.51,2.26-7.09,1.8-9.03,1.62-.98-4.06-3.37-7.52-6.34-10.41-3.03,3.42,5.26,5.89,3.62,10.5l-13.81-1.97c-3.11-2.97,13.7-12.97,15.98-13.93,4.64-1.95,16.73-6.01,20.61-2.27Z" fill="#fff"/>
  <path d="M312.85,631.19c1.95,1.89,9.31,12.24,8.75,14.51l-12.69,3.05c-.57-.13-1.73-4.35-2.42-5.47-.82-1.34-6.76-7.68-8.11-8.8-2.67-2.22-9.98-4.75-10.94-5.82-.6-.66-.78-1.02-.69-1.95,3.31-9.4,21.58.11,26.1,4.47Z" fill="#fff"/>
  <path d="M267.73,691.43c.79-2.04-3.16-8.25-4.92-7.89-2.71.56,1.76,4.45,2.32,5.55,2.67,5.26.09,6.16-4.63,7.59.25-1.65-1.64-4.76-2.74-6.15-.48-.61-3.74-4.57-4.5-3.71-.17,4.1,5.09,5.94,4.98,10.54-5.92,2.61-12.49,2.42-18.79,1.94,1.25-9.12,15.16-21.19,24.01-21.04,4.62.08,11.46,12.59,4.26,13.16Z" fill="#fff"/>
  <path d="M237.25,559.73c-.48.46-2.87,2.32-3.35,2.21-7.28-11.48-18.71-19.73-32.19-22.36l-.37-1.3c2.96-1.11,2.82-4.67,6.84-4.64,9.61.06,24.36,10.63,29.87,18.2,2.38,3.27,2.12,5.09-.8,7.89Z" fill="#fff"/>
  <path d="M212.49,713.11c-2.81,10.36-19.7,11.87-28.58,11.16-10.94-.87-38.65-10.48-43.57-20.86-.51-1.07-.89-2.25-.81-3.45,1.71.79,2.16,2.79,3.6,3.95,4.94,3.97,16.29,9.74,22.33,11.85,15.01,5.24,33.64,7.61,47.03-2.66Z" fill="#fff"/>
  <path d="M344.65,653.3c2.47,1.83,3.52,4.94,6.56,6.25,1.71.73,7.74,2.41,9.7,2.79,18.18,3.5,38.65-5.47,52.75-16.26.22,2-1.02,3.33-2.27,4.63-12.63,13.11-44.63,20.97-61.01,12.3-3.67-1.95-6.13-5.45-5.74-9.7Z" fill="#fff"/>
  <path d="M286.13,631.61c5.84.9,18.22,10.71,18.43,16.76.05,1.51-.14.72-1,1-4.37,1.43-13.37,1.09-17.43-1v-16.76Z" fill="#fff"/>
  <path d="M207.56,691.44c16.07,9.1,37.82,15.97,55.59,7.57,2.73-1.29,4.04-2.87,6.23-4.29.89-.58,1.61-.56,1.62.32.02.99-2.96,4.41-3.92,5.27-10.98,9.75-34.15,5.57-46.67.64-4.72-1.85-10.83-4.62-12.84-9.51Z" fill="#fff"/>
  <path d="M398.12,396.75c.28.61,2.89,2.74,2.41,4.8l-7.89,2.64c-.93-4-2.77-9.08-4.76-12.69-.65-1.18-2.5-1.62-2.95-3.57-.71-3.07-.72-8.95,3.79-7.78,4.87,1.26,7.52,12.5,9.4,16.6Z" fill="#fff"/>
  <path d="M202.63,665.79c.57,1.78-1.03.99-1.29,1.78-.76,2.31-.45,8.03-2.67,9.7-.82.61-7.18,2.13-8.32,2.13-4.55-.01-5.02-8.99-3.53-12l15.82-1.6Z" fill="#fff"/>
  <path d="M386.34,396.04c.09.17.75.26,1,.77,1.21,2.47,2.02,6.35,3.37,8.96-2.49,1.31-4.23,4.35-7.26,4.33-1.08-5.71-7.71-15.57-5.83-21.27.57-1.72,3.05-1.24,4.23-.47,1.1.73,3.65,6.08,4.5,7.68Z" fill="#fff"/>
  <path d="M205.92,528.42c-.71,2.41-3.4,3.63-4.61,5.11s-3.94,6.76-5.58,6.75c-.41,0-5.7-3.36-7.22-3.98-4.62-1.88-9.54-2.44-14.14-4.27l31.55-3.6Z" fill="#fff"/>
  <path d="M271.26,388.16c2.02,2.25,4.21,4.78,4.3,8.07-4.39.72-7.81,6.04-11.13,1.04-2.04-3.08-2.13-8.44.98-10.85,3.61-2.79,3.77-.58,5.85,1.73Z" fill="#fff"/>
  <path d="M260.33,394.5c.43.52.53,2.18,1.12,3.14.93,1.52,2.83,3.76,3.35,5.2.86,2.41-.22,6.02,3.59,6.61-.42,4.56-7.44-.13-9.18-1.68s-4.53-6.34-4.53-8.52c0-2.51,3.59-7.26,5.66-4.75Z" fill="#fff"/>
  <path d="M217.01,517.78l-6.5,3.72c1.47-5.09,1.72-10.42,2.69-15.6.1-.52,1.11-.47,1.24-.96l2.98-23.86c1.15,12.24-1.03,24.45-.41,36.7Z" fill="#fff"/>
  <path d="M252.27,402.23c2.04,2.53,2.95,6.1,5.56,8.24,1.97,1.62,9.14,3.43,7.62,6.23-7.82,6.31-19.16-7.04-13.18-14.47Z" fill="#fff"/>
  <path d="M144.78,569.82c1.93-3.34,2.19-10.33,5.87-3.7-1.44,1.83-3.28,3.89-5.87,3.7Z" fill="#fff"/>
  <path d="M230.9,562.6c.11.08.74,2.15.38,2.62-1.15,1.12-2.77,1.43-4.32,1.31.43-.78,2.8-4.79,3.94-3.93Z" fill="#fff"/>
  <path d="M198.03,684.19c-.59-.23-4.19-2.48-3.28-3.28l3.28-.66v3.94Z" fill="#fff"/>
  <path d="M308.49,92.62c9.12-1.53,18.59-.51,26.24,4.99.95.68,7.09,6.1,7.24,6.57.73,2.27-2.96,2.7-4.56,3.23-3.82,1.25-7.8,1.96-11.83,1.65-.71,3.68,3,4.97,4.51,7,4.4,5.9,9.05,17.5,9.33,24.85.08,1.96.52,5.77-1.06,6.89-4.16,2.92-18.53-2.9-22.85-5.32-2.25-1.26-9.72-8.94-10.86-5.37-.66,4.3-.27,11.65-1.51,15.58-.87,2.76-8.43-1.05-10.09-2.2-5.4-3.72-8.5-13.88-8.81-20.12-.08-1.68,1.96-5.3-1.06-5.56-2.61-.23-5.98,7.94-7.66,10.12-2.32,3.01-3.91,5.56-6.59,1.55-6.04-9.04-6.14-22.38-.41-31.56,2.05-3.29,5.71-7.04,9.91-6.22,9.28,1.8,22.03,11.33,29.12,17.57.43.38,5.48,7.47,6.22,3.63.52-2.71-15.2-14.91-18.09-16.74-5.49-3.48-11.7-5.62-17.75-7.89-.27-.35,3.41-5.8,4.02-6.52,6.68-7.89,21.26-13.03,31.48-11.22,7.28,1.29-6.88,13.12-4.91,15.1Z" fill="#fff"/>
  <path d="M260.22,89.74c-5.36,11.02-2.68,20.1-5.79,30.02-.25.81-2.63,3.29-3.45,3.1-1.82-.42-1.38-4.33-1.69-5.45-.16-.58-1.19-.21-1.34-1.41-.66-5.09-1.05-18.23.07-22.92.11-.47,1.12-.42,1.25-.96,1.93-8.04,3.14-16.44,9.97-22.13,3.96-3.29,13.75-7.82,15.58.08,1.29,5.55-1.98,4.53-5.34,6.87-3.91,2.73-7.2,8.57-9.25,12.78Z" fill="#fff"/>
  <path d="M253.69,163.38c-7.55,8.21-23.65,3.7-24.14-7.98-.64-15.44,19.19-18.23,26.23-7.13,2.23,3.52.69,12.09-2.09,15.11Z" fill="#fff"/>
  <path d="M260.21,161.9c-.08-.19-.91-.26-1.01-.72-.22-.99-.23-4.66,0-5.64.1-.45,1-.43,1.23-.98.49-1.2.08-3.4,1.81-3.98,3.26-.12,6.38-.06,9.56-.96,1.97-.55,3.21-1.79,4.44-2.15,4.29-1.26,9.8,3.28,11.02,7.44,5.05,17.17-19.89,24.95-27.05,6.98Z" fill="#fff"/>
  <path d="M288.88,167.02c4.33.15,10.05,3.16,11.76,7.39,7.76,19.16-23.1,26.9-26.05,7.64-.06-.42-.13-4.52-.09-4.88.37-3,2.92-2.11,4.93-2.84,4.1-1.5,7.37-3.19,9.45-7.31Z" fill="#fff"/>
  <path d="M244.29,231.08c-5.75-5.76-5.16-15.23,2.47-19.08,5.33-2.69,11.74-3.2,16.35,1.25,12.28,11.83-6.74,29.91-18.82,17.83Z" fill="#fff"/>
  <path d="M226.16,163.1c4.25-.47,5.09,3.56,8.65,5.48,2.99,1.6,7,.83,7.77,4.06,3.82,15.94-21.42,20.98-26.47,8.06-3-7.68,1.59-16.66,10.04-17.59Z" fill="#fff"/>
  <path d="M226.96,160.32c-3.41-1.59-8.25,3.61-10.18,3.69-3.3.13-8.92-3.23-10.75-6.1-8.28-12.95,7.41-25.49,19.95-17.32,6.36,4.15.94,6.81.4,12.24-.28,2.77.33,4.83.59,7.48Z" fill="#fff"/>
  <path d="M229.06,191.35c5.49-.46,10.5-2.87,14.33-6.7-.11,4.95,9.34,7.41,10.2,9.2,1.59,3.29-.84,10.51-3.58,12.86-11.71,10.09-29-.82-20.95-15.36Z" fill="#fff"/>
  <path d="M257.85,164.27c.52,6.33,8.18,8.83,13.19,10.95,2.43,14.37-12.73,20.59-23.01,11.7-5.07-4.39-.61-10.96-2.64-16.71,1.85-.25,3.8-.61,5.5-1.41,2.95-1.37,3.92-4.49,6.97-4.53Z" fill="#fff"/>
  <path d="M254.57,206.33c1.25-4.12,2.3-7.43,2.26-11.87,5.37-.84,8.33-.77,12.57-4.53.75-.67,1.73-2.65,1.96-2.69,2.18-.38,3.17,3.19,4.57,4.64,1.57,1.63,4.62,3.37,5.42,5.1,2.06,4.5-.46,11.47-4.47,14.24-10.64,7.36-12.3-4.68-22.31-4.89Z" fill="#fff"/>
  <path d="M238.47,138.64c-2.48.35-4.4,2.06-6.48,3.24-3.41-4.61-9.36-4.34-9.56-10.86-.32-10.39,12.84-15.9,21.44-10.92,2.88,1.67,2.66,4.08,5.29,5.54,1.34,2.56-.99,3.23-1.1,3.64-.91,3.35-.39,6.02-.05,9.36-3,.3-6.63-.41-9.53,0Z" fill="#fff"/>
  <path d="M279.57,133.38c1.15-.17.67,1.51.58,2.22-2.32,18.39-31.75,15.09-28.8-5.12.53-3.63,7.52-12.96,10.17-8.97.32.49,1.55,9.07,2.41,11.39.7,1.9,4.16,8.69,5.78,9.38,3.4,1.44,8.96-5.87,9.85-8.89Z" fill="#fff"/>
  <path d="M290.77,164.24c.95-4.19.3-7.69-.68-11.8,3.27,1.78,8.87,5.34,12.67,4.48,5.39-1.22,4.38-11.39,5.74-15.65,13.68,7.72,8.53,27.23-7.59,26.83-2.84-.07-6.81-3.96-10.14-3.86Z" fill="#fff"/>
  <path d="M245.37,95.25l-7.56-7.22c-5.97-3.55-11.51-6.75-18.59-7.71-4.4-.59-12.05,1.75-10.08-5.03,12.71-3.85,37.55,3.85,36.23,19.96Z" fill="#fff"/>
  <path d="M270.35,97.23c-2.3,2.97-4.61,5.88-6.04,9.41-1.87,4.61-1.08,12.04-7.11,11.62-.61-.65,1.5-14.62,2.02-16.58.14-.51,1.01-.46,1.21-1.01.4-1.08,0-2.86.8-4.01l9.11.57Z" fill="#fff"/>
  <path d="M283.33,140.79c.69.96,1.87,5.54,2.8,7.05l-5.83-3.68,1.24-4.21c.08-.06,1.66.66,1.78.84Z" fill="#fff"/>
  <path d="M505.23,80.64c.83.87,2.14.38,3.11.14.07-.52.11-1.07.01-1.59-.75-3.88-13.09-14.33-16.77-16.78-1.11-.74-7.5-3.47-7.54-4.28,7.89-3.23,18.85-1.27,26.61,1.64,6.07,2.28,14.6,7.96,18.37,13.19,27.43,38.02-40.57,39.21-61.79,40.03-15.58.6-31.66,1.46-47.23-.71-7.06-.98-23.3-5.01-24.7-13.43-2.39-14.38,9.25-27.29,22.72-30.46,11.52-2.7,28.82,1.63,38.97,7.56,2.76,1.61,9.03,7.66,10.79,8.33,1.07.4,1.56.13,2.42-.51l.37-1.66c-11.89-10.8-26.81-17.48-43.09-17.74,5.53-4.81,14.34-7.23,21.56-8.35,22.5-3.46,40.35,6.13,55.03,22.17.58.64.62,1.89,1.15,2.46Z" fill="#fff"/>
  <path d="M463.65,116.29c-3.02,2.55-7.69,3.04-11.41,4.69-5.67,2.51-24.37,13.68-25.96,19.42-.58,2.11,1.23,2.93,3.09,1.1,19.01-18.7,47.86-32.3,73.86-18.43,1.11.59,2.94.87,2.49,2.42-8.94.56-19.38,3.47-27.11,8.06-2.04,1.21-15.23,11.4-14.96,12.63.18.84,1.31.96,2.13.88,2.52-.26,9.79-7.95,13.06-10,13.27-8.31,35.39-13.11,47.94-1.4,8.37,7.81,11.04,25.84-1.17,31.06-23.97,10.25-86.15,6.71-111.78.36-12.09-2.99-20.57-7.88-19.6-21.88.81-11.74,15.47-22.37,25.58-26.42,11.46-4.59,24.28-1.63,36.28-1.8,2.4-.03,4.97-1.23,7.56-.69Z" fill="#fff"/>
  <path d="M525.88,182.9c9.08,8.67,11.2,24.32.18,32.26s-36.94,9.66-50.22,10.26c-17.27.78-61.7,1.5-73.92-11.6-3.51-3.76-5.18-8.4-3.99-13.59.11-.47,1.03-.51,1.23-.99,12.4-29.63,48.32-26.38,69.41-8,2.51,2.19,4.65,6.85,8.23,6.55,1.49-1.48-4.39-7.52-5.57-8.56-8.01-7.08-18.31-10.9-28.41-13.7-1.12-.31-1.83.48-1.52-1.4,4.16-.05,8.71,1.16,12.79,1.34,22.8.98,32.35-4.2,50.02,13.75,1.21,1.23,3.23,5.74,5.2,5.28,4.11-.97-4.75-9.47-5.9-10.49-3.54-3.13-8.06-5.27-11.48-8.56,5.3.85,14.55-2.61,19.22-1.86,2.99.49,12.37,7.04,14.74,9.31Z" fill="#fff"/>
  <path d="M107.3,176.1c-1.3-4.78-.42-9.89-.63-14.82-1.18-27.44-.53-62.84-14.38-86.85-4.87-8.44-13.84-13.11-23.12-15.34l5.12-2.43c32.31-7.46,49.65,12.51,57.03,41.2,4.8,18.65,6.28,43.55,5.59,63.48-.11,3.07-.3,9.04-.73,11.76-.19,1.21-.68,2.18-1.6,3h-27.28Z" fill="#fff"/>
  <path d="M77.72,124.17h-24.98l.69-52.22c.49-2.67,8.87-10.85,11.44-10.92.85-.03,10.09,2.94,11.07,3.47.44.24.94.29,1.03.94l.75,58.74Z" fill="#fff"/>
  <path d="M77.72,127.46l-.66,48.64h-23.34c-.94-.58-.91-1.31-1.02-2.27-1.07-9.13-.41-25.94,0-35.55.15-3.45,1.25-7.16.68-10.82h24.33Z" fill="#fff"/>
  <polygon points="102.04 127.46 104.02 174.46 103.03 176.1 81.01 176.1 81.01 127.46 102.04 127.46" fill="#fff"/>
  <path d="M81.01,67.65c11.22,7.5,13.35,20.22,16.49,32.36.13.51,1.09.49,1.21,1,1.82,7.46,2.45,15.49,2.68,23.16h-20.38v-56.53Z" fill="#fff"/>
  <path d="M38.6,127.46h9.86c.94.58.91,1.31,1.02,2.27,1.03,8.78,1.07,35.38,0,44.1-.07.56,0,1.14-.32,1.65-.65.94-10.19,1.3-10.78-.48-1.33-15.42-2.24-31.03-.67-46.46l.88-1.09Z" fill="#fff"/>
  <path d="M49.45,78.82v45.35c-3.19-.84-11.75,2.89-11.89-1.64-.1-3.19,1.32-15.66,2.05-18.93.93-4.19,4.92-16.31,6.89-20.83.54-1.23,1.37-4.36,2.95-3.95Z" fill="#fff"/>
  <path d="M502.86,793.73c-18.76,21.04-73.42,21.11-86.46-7.42-10.45-22.86,2.56-39.91,17.72-55.69,1.04-2.46.59-5.91-.38-8.34-.55-1.38-1.4-1.28-1.86-2.1-2.03-3.61-4.24-6.96-.13-10.36,10.48-8.66,52.88-10.77,62.49-.67,6.64,6.98-3.22,12.34-2.05,19.75.77,4.84,6.29,10.57,9.33,14.39,11.99,15.04,15.32,34.77,1.34,50.45ZM489.94,713.78c-3.48-.15-6.27,2.15-9.72,3.09-10.23,2.78-27.1,3.08-36.94-.81-2.05-.81-6.56-4.05-8.17-3.57l-1.04,1.6c.22,1.05,6.51,4.05,7.9,4.6,11.06,4.42,31.62,4.33,42.72,0,2.13-.83,5.71-2.19,5.27-4.92Z" fill="#fff"/>
  <path d="M39.76,753.04c-4.41-3.48,1.27-10.84,4.42-13.32,9.19-7.24,29.84-8.2,38.18.64,1.3,1.38,4.66,5.59,2.6,7.26-1.26,1.02-7.69,3.58-10.07,5.04-1.27.78-2.02,2.16-3.13,2.79-3.76,2.12-18.89.99-23.65.09-1.17-.22-7.83-2.11-8.34-2.51Z" fill="#fff"/>
  <path d="M90.1,750.08c3.53-.17,9.43,1.62,12.26,3.8,16.28,12.57-16.12,12.88-23.86,10.7-15.49-4.35,3.99-14.13,11.6-14.51Z" fill="#fff"/>
  <path d="M268.89,752.74c7.2-.86,18.86.71,23.04,7.49,2.75,4.45,1.92,7.01-3.03,8.58-6.72,2.12-34.37,3.1-38.32-3.38-.39-.65-.76-1.21-.68-2.02.01-5.16,14.52-10.12,18.99-10.66Z" fill="#fff"/>
  <path d="M374.23,51.22c-4.38,3.51-7.14,5.9-9.53,11.16-2.11-3.73-3.21-8.54-8.21-9.21-.49-1.85,1.43-1.31,2.59-2.32,2.87-2.47,4.78-5.47,6.28-8.85,1.68,3.85,4.64,8.05,8.87,9.21Z" fill="#fff"/>
  <path d="M552.4,255.64c-4.4,3.86-10.52,5.03-10.53,12.48-2.13-1.65-2.99-5.96-4.79-7.69-.99-.94-4.85-3.01-6.38-3.5l.45-1.3c4.43-1.47,8.3-5.16,9.41-9.86,3.45,4.32,5.39,9.44,11.83,9.87Z" fill="#fff"/>
  <path d="M355.69,788.9c4.6-.44,9.07-.13,13.08,2.31,4.54,2.77,7.53,7.34.85,9.65-5.32,1.84-15.72,1.79-21.32.95-2.86-.43-6.29-2.81-5.49-6.03,1.11-4.44,8.91-6.5,12.87-6.88Z" fill="#fff"/>
  <polygon points="189.47 109.72 195.39 115.96 188.51 122.2 182.27 115.96 189.47 109.72" fill="#fff"/>
  <path d="M368.32,193.19c-.36-1.66-2.29-3.59-3.62-4.63-1.13-.89-2.8-.03-2.31-1.93,3.06.09,4.14-3.35,6.57-4.61.26,2.87,2.58,4.03,4.6,5.58l-5.24,5.59Z" fill="#fff"/>
  <path d="M485.95,538.31c1.36,5.28,1.93,11.02,3.9,16.13.37.95,2.19,4.2,2.9,5.67.89,1.83,3.76,5.64,4.15,7.03.34,1.19.23,1.24-.72,2.01-3.14-.85-3.63-4.57-4.93-6.76-.28-.47-1.12-.53-1.5-1.29-1.42-2.9-7.48-21.16-5.72-22.84l1.92.04Z"/>
  <path d="M349.89,507.38c.67,3.39.78,6.95,1.88,10.26,1.09,3.26,3.69,8.93,5.25,12.52.9,2.06,3.37,5.15,3.77,6.76.65,2.64-1.71,2.68-3.42.12-2.05-3.08-6.09-11.46-7.29-15.06-.71-2.14-3.66-13.58-2.12-14.58l1.92-.02Z"/>
  <path d="M92.84,686.82h-2.61c.25-1.51-.54-3-.6-4.35-.37-8.68.56-18.15.61-26.84.07-13.37-.12-26.75-.03-40.12.46-2.56,2.62-1.43,2.62-.66v71.97Z"/>
  <path d="M75.64,651.22c-.37.6-2.6,1.21-3.08-.32-1.37-4.35,2.49-10.47,3.76-6.36.16.51-.5,6.39-.68,6.68Z"/>
  <path d="M59.96,656.59c.33,1.41-.05,7.01-2.29,6.57-1.8-.36-.06-7.03,2.29-6.57Z"/>
  <path d="M468.76,364.27c7.47-.95,22.05,1.9,20.49,11.93-.99,6.35-9.57,2.67-14.11,2.35-4.15-.29-16.52.97-17.94-3.77-1.78-5.91,6.91-9.92,11.56-10.52ZM471.39,366.9c-3.69.07-12.45,2.09-10.92,7.24,1.49,3.32,5.09,1.19,7.45,1.26,2.8.09,17.29,2.22,18.45.57,3.95-5.62-11.39-9.14-14.98-9.07Z"/>
  <path d="M468.9,325.97c.93,3.31-1.29,3.9-2.17,5.42-2.51,4.32-9.85,15.6-6.02,20.19,1.59,1.91,6.76,2.34,9.28,2.61.97.1,5.46-1.21,4.82,1.67-.85,3.85-13.61.9-16.45-1.94-1.91-1.91-3.23-5.08-2.59-7.78.11-.46,1.07-.39,1.25-.95,1.11-3.54,1.9-6.53,3.63-10.05.83-1.7,5.79-11.62,8.24-9.17Z"/>
  <path d="M446.72,334.99c-2.33-2.06-2.52-11.45,1.31-13.13,7.66-3.35,9.28,11.88,3.82,13.68-1.45.48-3.95.5-5.13-.54Z"/>
  <path d="M493.06,323.45c6.12-.76,8.12,12.98,1.1,13.68-8.78.88-8.09-12.81-1.1-13.68Z"/>
  <path d="M490.29,306.25c1.36-.39,5.92,4.54,8.2,5.58,2.03.93,10.99,2.29,10.52,4.59-.22,1.08-1.87,1-2.79.87-3.18-.44-16.63-5.73-16.97-8.75-.09-.83.25-2.06,1.04-2.29Z"/>
  <path d="M460.04,304.93l1.63.99c1.08,4.03-13.1,8.54-16.19,8.81s-5.3-1.26-1.89-2.57c5.21-2.01,12.54-1.71,16.44-7.23Z"/>
  <path d="M167.6,358.96c8.29-2.48,9.01,12.92,3.66,14.19-8.7,2.06-9.32-12.5-3.66-14.19Z"/>
  <path d="M214.27,355.09c.51.37,2.51,4.09,2.67,4.88,2.07,9.81-8.58,11.13-10.71,2.83-1.38-5.39,3.32-11.17,8.04-7.71Z"/>
  <path d="M201.57,371.08c.47.68,1.61,1.13,2.41,2.51,5.78,9.95-2.01,18.33-12.52,16.78.47-2.84,4.55-1.88,7.19-3.64,7.99-5.31,2.06-12.77-2.32-18.64-1.8-2.41-5.37-3.9-4.87-7.28,1.91-1.99,9.23,9.01,10.11,10.27Z"/>
  <path d="M155.51,347.21c1.22-1.53,7.38-5.1,9.36-5.42s8.29-.17,8.04,2.92c-.18,2.21-5.04,1.44-6.61,1.79-6.18,1.37-4.85,3.65-8.03,6.43-4.68,4.07-5.56-2.19-2.76-5.71Z"/>
  <path d="M200.67,342.39c-.66-2.59,1.9-4.13,3.95-4.92,4.68-1.8,11.68-1.1,13.83,3.97l-.63,2c-1.97,2.52-7.03-2.25-10.32-2.31-2.2-.04-4.38,1.83-6.83,1.26Z"/>
  <path d="M202.54,399.02c.33.55.06,1.76.05,2.49-6.99,2.41-12.9,4.36-20.04.72-1.37-.7-5.92-3.99-5.57-5.6.87-3.94,5.2,1.82,5.68,2.19,3.1,2.37,7.66,3.14,11.44,2.42,2.04-.39,7.32-4.08,8.42-2.23Z"/>
  <path d="M353.65,298.16c-7.44,5.52-12.8-10.87-5.1-13.3,8.85-2.79,8.7,10.63,5.1,13.3Z"/>
  <path d="M310.91,294.87c-5.46,6.15-12.57-2.51-8.34-9.33,5.63-9.07,14.11,2.82,8.34,9.33Z"/>
  <path d="M343.09,265.54c.72-.13,6.87,5.33,8.19,6.14,3.8,2.34,9.66,4.2,13.28,6.44,1.03.64,1.35.78,1.12,2.15-.57.87-1.3,1.07-2.3,1.05-1.94-.03-19.17-10.52-20.99-12.61-1.34-1.53-.93-2.13.7-3.19Z"/>
  <path d="M297.31,277.98c.09-.89-.42-2.05.41-2.69,2.13-1.63,6.97-2.57,9.25-3.75s8.64-5.93,10.44-6.05c2.93-.19,2.68,1.65.5,3.18-2.61,1.83-8.45,4.84-11.48,6.27-1.36.64-8.28,3.92-9.12,3.03Z"/>
  <path d="M319.51,327.45c7.32-1.12,23.83,1.36,24.46,10.76.6,8.8-15.31,4.09-20.7,3.54-3.99-.41-11.31,1.5-12.13-4.33-.75-5.34,3.42-9.21,8.37-9.96ZM340.05,340.43c1.66-8.41-12.6-11.25-18.58-10.36-4.11.61-9.22,3.92-5.96,8.41l24.55,1.95Z"/>
  <path d="M489.94,713.78c.45,2.73-3.13,4.08-5.27,4.92-11.09,4.33-31.66,4.42-42.72,0-1.39-.55-7.67-3.55-7.9-4.6l1.04-1.6c1.61-.48,6.12,2.76,8.17,3.57,9.84,3.89,26.71,3.59,36.94.81,3.45-.94,6.24-3.24,9.72-3.09Z"/>
  <path d="M471.39,366.9c3.6-.07,18.94,3.45,14.98,9.07-1.16,1.65-15.66-.48-18.45-.57-2.36-.07-5.96,2.06-7.45-1.26-1.54-5.15,7.23-7.16,10.92-7.24Z" fill="#fff"/>
  <path d="M340.05,340.43l-24.55-1.95c-3.26-4.49,1.86-7.8,5.96-8.41,5.98-.89,20.25,1.94,18.58,10.36Z" fill="#fff"/>
</svg>