<?xml version="1.0" encoding="UTF-8"?>
<svg id="Camada_1" xmlns="http://www.w3.org/2000/svg" version="1.1" viewBox="0 0 595.28 841.89">
  <!-- Generator: Adobe Illustrator 29.0.0, SVG Export Plug-In . SVG Version: 2.1.0 Build 186)  -->
  <path d="M.14,841.29V-.06h595v841.34H.14ZM590.54,3.89H4.08v34.18h120.64c6.22,0,2.23,15.23,1.31,18.4-3.93,13.55-15.13,25.1-27.37,31.8-4.05,2.22-9.35,4.03-13.72,5.68,14.4,7.72,12.46,25.95-3.33,29.98l16.8,324.3c3.91-8.75,11.3-14.29,17.37-21.32-2.17-6.12,1.39-21-1.71-25.84-1.92-3-9.7-1.83-11.98-11.08-.68-2.78.14-7.73-.31-9.49-1.51-5.8-6.2-3.9-4.91-15.35.31-2.73,2.28-4.7,2.29-5.34,0-1.44-1.63-1.45-1.97-3.02-1.06-4.89-1.43-12.68.13-17.44.36-1.09,2.98-3.01,3.36-5.21.52-2.93-.32-6.66.09-9.76,1.28-9.5,9.12-15.55,15.04-21.77-3.43-59.78,11.4-116.67,51.05-161.93,34.73-39.65,81.37-64.6,130.37-82.54,82.21,27.14,161,87.93,177.38,176.99,1.59,8.65,2.42,17.52,3.3,26.28l15.14,8.52,11.99,10.02,7.93-156.03c-15.46-4.71-17.51-22.2-2.67-29.65-16.74-7.03-32.83-17.26-39.75-34.83-.6-1.53-3.49-10.63-3.61-11.33-.98-5.7.36-10.47,6.85-10.72l116.72.68V3.89ZM4.08,42.01v47.33c3.41.05,6.12,2.22,9.53,2.63,13.59,1.62,41.15,1.46,55.26.69,21.47-1.17,45.07-14.84,52.83-35.4.89-2.37,3.61-12.87,2.4-14.63l-120.02-.62ZM590.54,89.01v-46.01l-118.62-1c-1.34,22.08,18.34,40.76,38.07,47.35,13.3,4.44,52.1,4.46,67.1,3.31,4.51-.34,9.54-1.27,13.45-3.65ZM433.14,154.01c-34.18-44.43-83.14-72.97-135.45-91.61-55.27,19.59-109.96,51.49-143.35,100.57-7.34,10.8-14.23,23.73-18.11,36.14,6.26-3,12.59-.95,18.4,1.97.03-3.34,3.43-8.59,5.65-11.11,12.52-14.28,38.19-8.13,39.06,11.77,11.22-4.41,23.77-.79,24.98,12.49,18.71-6,41.61,17.02,12.8,22.99l-112.42-.41-.86.87c-1.35,6.67-1.28,13.6-2.04,20.31-.14,1.2-1.31.7-1.42,1.89-1.31,13.82-.24,27.92-.6,41.77,5.61-7.28,11.01-9.4,19.18-12.69,1.46-.59,3.11-.15,4.3-.65,1.3-.55,4.94-5.23,8.07-6.7,8.53-4,13.33-1.44,20.54-2.42,2.46-.33,5.86-2.8,10.01-3.2,3.11-.29,10.03-.33,13.01.18,3.8.65,7.39,4.38,9.51,4.95,6.11,1.66,11.91-1.41,16.9,6.11,3.12,4.7,1.39,3.26,5.66,7.48,9.38,9.27,2,11.99,2.14,19.64.03,1.94,1.83,5.2,1.79,7.96-.04,3.27-3.19,9.03-3.17,9.78.07,2.1,4.05,11.08,4.8,14.25,3.65,15.29,5.68,28.3-.68,43.37-4.45,10.55-14.44,16.37-23.98,21.7,20.91.93,37.84,14.69,54.56,25.64l14.18-28.93c-1.5-9.29-5.83-19.36,0-28.22,2.11-3.2,5.64-4.02,6.83-8.41,1.51-5.6.86-31.75,13.14-25.42,6.38,3.3,3.75,14.37,2.69,19.99,2.3-.04,4.58-.21,6.75.81,2.61,1.24,2.89,4.3,3.12,4.45.38.24,4.03-2.7,8.36.5,2.3,1.7,1.67,3.32,2.3,3.94,1.6,1.56,6.27.23,7.45,6.02,2.28,11.16-7.58,30.62-14.83,39.16l3.9,1.9c-5.27,21.23-18.04,61.59-43.76,64.74-11.77,1.44-21.2-2.27-31.81-6.5,1.02,18.28,1.23,36.6,2.64,54.87,1.21,15.65,3.73,31.96,5.88,46.81.36,2.46,1.11,17.03,1.97,17.66l35.42-.81.69-43.81c-3.31-2.6-6.97-3.14-10.05-6.44-3.26-3.5-7.2-14.09-6.29-18.51.09-.45,1.12-.53,1.22-1.01,2.27-11.03-.86-20.69,9.61-29.7,14.3-12.31,43.24-14.97,60.05-24.1-.01-3.3,5.61-14.2,5.26-16.37-.1-.64-1.67-.64-1.9-1.42-1.51-5.11,12.44-30.48,15.93-35.88,1.14-1.77,4.57-4.58,4.89-5.7.41-1.44-1.18-3.65-1.11-6.26.15-6.04,5.22-10.08,9.13-13.89-1.06-3.12-2.9-5.94-3.79-9.14-6.26-22.51,2.01-47.92,5.9-69.63,1.14-6.35-.32-12.03.83-18.87,2.05-12.2,7.4-20.38,15.24-29.46,1.38-1.6,4.35-2.9,5.17-4.57.91-1.86-.02-5.58.62-7.73,3.34-11.19,22.13-14.03,31.31-8.99,2.88,1.58,6.6,6.57,7.07,6.73,3.2,1.11,16.03-.04,21.51.84,4.8.77,10.75,3.18,15.51,4.53-.67-18.72-4.88-37.38-11.34-54.72-.71-1.92-4.32-11.78-5.53-12.22-52.5-1.29-105.23,1.33-157.69-.06-6.25-.17-20.84.14-25.35-2.98-6.5-4.49-.51-13.04,4.84-15.6,3.6-1.73,7.63-1.93,11.54-1.93,4.94-16.92,26.19-24.52,40.85-14.36,2.77-20.38,29.01-32.7,46.9-22.89,5.35,2.93,7.84,8.34,11.31,13.03,13.48-9.73,31.48-.92,31.88,15.77,5.68-2.38,10.76-4.01,17.09-3.29-1.18-2.62-3.14-4.72-4.87-6.96ZM87.35,116.72c7.28-7.24,1.17-19.05-8.15-20.65s-54.72-1.52-64.94-.17c-2.59.34-9.62,3.74-10.16,6.27-.32,1.48-.2,12.35.31,13.46.55,1.19,6.44,4.31,7.94,4.56,20.92-1.54,44.96,2.09,65.48.32,2.78-.24,7.55-1.82,9.53-3.79ZM516.09,96.08c-14.68,2.21-16.16,22.7,1.11,24.18,8.74.75,64.11.94,69.17-1.23,1.03-.44,3.7-2.15,4.03-3.2.39-1.23.37-13.53-.01-14.85-.62-2.12-4.62-4.03-6.66-4.51-7.87-1.85-58.77-1.72-67.65-.38ZM77.72,124.17H13.29c-2.37,57.08-4.25,114.18-6.52,171.27-.49,12.36-2.78,26.84-2.7,40.03l.02,244.21c17.78,1.83,35.68,3.35,53.62,2.66,2.68-.1,25.07-1.6,25.26-2.99-4.77-9.35-3.84-20.47-.59-30.16-.12-.57-2.43-.94-3.36-2.03-2.6-3.05-.95-19.45-.63-24.33,1.64-24.59,6.77-46.91,15.83-69.69-4.03-78.69-7.28-156.26-11.21-234.67-1.57-31.41-3.82-62.88-5.28-94.3ZM580.67,124.17h-63.12c-1.53,21.55-1.87,43.22-3.24,64.78-1.26,19.93-3.7,41.7-4.68,62.38-.36,7.53-2.28,28.22-1.24,34.16.7,4.02,5.92,11.34,7.53,16.13,3.46,10.32,4.33,22.07,6.36,32.75,26.47,5.63,48.32,29.73,55.57,55.2,7.83,27.51,2.53,58.87,4.16,87.27l-4.64,103.5,13.19-1.05v-237.26c-2.17-52.67-5.45-106.4-7.98-158.34-.97-19.81-1.3-39.7-1.92-59.53ZM385.47,154.35c-3.26-26.93-42.3-22.27-49.37-.27-.77,2.38-1.47,9.58-2.43,10.25-1.58,1.11-10.42-6.45-14.49-7.13-11.51-1.95-24.7,7.96-25.93,19.44-7.12.24-18.52-.55-18.17,9.51.71,2.29,5.32,2.92,7.42,3.12l172.6.63c-1.73-4.91-4.04-9.54-6.7-14-5.23-8.76-6.65-12.38-17.88-10.9-5.14.68-7.86,4.54-12.9,3.87.77-12.83-9.11-24.86-22.54-19.59-3.89,1.53-5.52,5.71-9.61,5.06ZM126.04,233.29h111.77c3.55,0,9.33-3.19,8.76-7.39-1.2-8.85-18.24-10.53-24.52-6.42-1.55-5.33-1.25-12.49-8.08-14.94-6.45-2.32-10.88-.06-16.25,3.11-.88-.26-1.72-7.12-2.3-8.89-3.52-10.67-12.91-14.75-23.69-11.82-9.52,2.59-12.14,10.22-14.88,18.67-3.01.99-4.36-1.83-6.35-2.69-4.59-1.98-15.26-2.17-18.13,2.65-1.54,2.58-7.28,23.48-7.19,26.22.03.8.24,1.03.86,1.49ZM408.42,287.84h12.49c.55-3.7,1.58-11.59,3.73-14.93.92-1.44,4-3.31,5.45-5.13,3.73-4.67,4.88-8.88.69-13.8-2.78-3.26-4.62-3.92-8.85-4.29-18.25-1.6-26.44,10.04-12.98,24.15l-.53,14ZM463.65,260.9l-26.3-1.98c2.12,8.64-7.22,12.03-9.6,16.37-.78,1.43-3.36,12.03-2.89,12.56,2.35.08,7.98,1.59,9.89.36.43-.28,3.84-7.37,4.95-8.85,6.04-8.05,15.24-13.71,23.95-18.44ZM494.55,276c-5.73-4.41-20.02-13.74-27.13-12.33-1.68.33-10.47,4.99-12.23,6.17-6.75,4.52-13.41,12.14-17.18,19.3l27.29,5.03c9.06-7.56,16.42-17.06,29.25-18.17ZM404.32,273.52c-.16-.33-4.44-3.62-4.77-5.35-2.47-.31-16.85,18.88-16.78,22.95l21.7-2.62c-.67-3.2.96-12.67-.15-14.98ZM225.36,311.89c1.55-3.46,3.55-5.39,2.64-9.63-1.13-5.26-5.2-4.49-7.27-7.2s-1.09-6.25-5.79-8.67-10.56-.8-13.83-1.94c-1.11-.39-2.49-3.42-6.1-4.42-3.89-1.08-12.29-.86-16.21.08-1.84.44-4.12,2.52-5.65,2.77-7.48,1.21-12.53-2.08-21.08,2.71-2.77,1.55-5.84,6.19-6.61,6.54-3.6,1.65-8.56.45-14.31,4.1-3.58,2.28-6.07,6.98-8.1,8.33-7.93,5.27-15.33,7.64-18.03,18.78-1.27,5.25.6,9.29.16,11.43-.3,1.49-3.9,4.71-4.43,9.94-.73,7.18,2.55,11.62,2.56,15.11,0,1.75-2.28,5.54-2.2,9.22.14,6.89,4.18,8.25,4.79,10.66.8,3.15-2.24,6.79,1.12,11.97,2.73,4.22,7.98,4.11,9.87,5.9,2.66,2.52.27,7.37,8.32,8.83,5.12.93,7.5-3.15,10.02-2.88s9.19,8.89,16.13,3.29c.44-1.51-.43-1.12-.83-1.5-4.61-4.43-10.82-7.12-14.28-13.3-13.13,5.76-29.87-4.5-28.86-18.95.87-12.43,13.67-17.69,24.44-12.89,7.26-8.71,4.15-21.24,3.36-31.6,7.25-.27,9.09-3.2,12.85-8.25,4.08,3.09,10.41,3.71,14.11-.31,2.15-2.34,2.41-8.55,6.29-6.85,2.44,1.08,1.72,3.67,6.91,3.66,8.45,0,9.4-8.27,11.26-8.56,3.68,3.34,10.5,4.85,15.12,2.67,3.46-1.64,1.81-7,4.53-7.34,3.04-.36,1.8,2.51,2.66,3.95,2.41,4.06,7.09,2.77,10.15,6.28,3.51,4.03,2.94,10.98,7.23,13.47,1.7-4.38,1.28-6.39-.25-10.61-.52-1.44-2.54-1.06-1.69-4.03.08-.49.93-.56,1.01-.75ZM499,279.45c-6.4-3.07-24.37,9.64-28.11,15.29l18.1,8.84,22.64.69c1.31-1.54-4.76-13.94-6.01-16-.69-1.15-6.13-8.57-6.62-8.81ZM514.12,309.03c-.59-.66-8.55-1.99-10.05-2.11-4.86-.4-12.87.95-16.83.28-1.4-.24-9.56-5.41-12.42-6.52-27.88-10.86-64.16-10.82-93.28-5.54l-2.04,10.45c32.07-4.45,72.74-5.53,101.6,11.16,2.08,1.2,8.51,6.88,9.32,7.12,2.1.61,5.13-.13,7.59.3,6.41,1.12,12.3,7.58,11.68,14.29l9.19,1.98-4.75-31.39ZM502.86,352.68c9.01-11.97,1.13-31.25-15.1-23.32-2.69,1.31-5.1,5.35-6.16,5.68-8.49,2.7-12.63-12.45-11.48-18.5-.7-1.98-16.61-6.19-19.49-6.81-16.46-3.56-40.83-4.93-57.48-2.65-4.12.56-11.32,1.04-12.59,5.16-1.41,4.58-4.87,26.2-4.36,30.48.66,5.52,4.88,11.51,6.58,16.76,5.26-4.15,11.34-9.02,18.4-9.21-1.46-10.6,6.57-18.27,12.82-25.62l1.49,1.72c-1.79,8.61-12.67,12.65-10.22,22.77,2,8.3,14.58,2.28,18.69,1.99,2.88-.2,10.98,3.45,13.82,4.95s13.3,9.74,15.07,9.97c4.01.52,11.72-4.77,14.87-7.22,1-.78,1.63-2.91,2.96-3.22,1.09-.25,2.72.64,2.56,1.93-.62,4.87-15.08,12.01-19.77,11.82-5.14-.21-13.55-8.34-18.73-10.9-12.72-6.27-13.63-.31-24.71-1.58-5.84-.67-4.96-4.28-12.27-2.47-4.77,1.18-10.06,5.62-13.49,9.06l-1.56.3c-3.5-.97-5.47-11.6-9.13-13.49-4.89,22.43-2.62,46.15,19.93,57.3,23.88,11.82,58.35,4.02,75.41-16.21,2.58-3.06,15.82-26.11,14.4-28.53-.14-.24-4.3-1.65-4.89-2.69-2.12-3.77,7.93-.34,9.33-.28,5.61.25,11.74-2.73,15.11-7.2ZM224.59,336.24c-1.39-3.66-6.26-17.7-8.24-19.71-2.33-2.35-7.24-2.31-9.48-5.65l-.94-.02c-2.31,6.7-13.04,5.26-18.1,2.82-3.8,4.28-7.51,7.55-13.77,7.05-2.31-.18-4.97-2.42-6.48-1.93-1.76.57-3.92,6.73-10.8,7.66-2.94.4-7.22-1.17-7.66-1.07-.61.15-2.65,3.62-4.01,4.52s-5.38,1.62-5.62,2.41c.97,9.61,1.76,20.58-3.63,29.1-4.4,6.96-5.98.14-12.45-.01-15.19-.35-16.63,25.84,1.49,28.14,6.79.87,8.92-1.17,14.62-3.77-1.94,5.31,8.22,13.64,12.29,16.31,28.47,18.65,78.23,9.81,80.44-29.76.79-14.05-2.9-23.55-7.66-36.09ZM483.57,327.49c.72-.73,2.41-.74,3.07-1.85-.64-1.98-12.01-8.12-12.47-7.56-.9,3.28,1.27,14.31,6.09,13.05,1.59-.42,2.32-2.63,3.32-3.64ZM559.88,363.85c-5.21-6.9-7.87-10.35-15.14-15.43-1.9-1.32-20.87-12.81-21.93-9.59l1.67,21.3c33.1,15.81,34.73,54.18,34.54,86.44l-3.17,64.58c-1.33,3.15-10.26,3.03-13.68,3.48-8.33,1.08-14.8,3.66-23.17,5.04s-18.19.73-25.43,2.19c-2,.4-4.35,3.63-7.54,4.29-7.45,1.55-9.04-2.33-13.3,6.42-5.39,11.06-4.67,24.37,5.69,32.01l-4.26,134.07c5.47-.93,6.67-2.24,7.21-7.57,4.27-42.02,1.61-87.6,4.59-130.15.93-13.17-2.02-15.51,11.73-18.51,13.86-3.02,32.32-5.53,46.57-7.34,2.27-.29,10.82-2.01,11.74-.09l-4.93,139.34,19.08-7.02c.48-11.7-.05-23.75.59-35.41,2.99-54.43,7.06-111.01,7.96-166.23.61-37.12,4.39-71.03-18.85-101.82ZM521.5,376.57l-2.06-31.78-9.77-3.05c.69,12.68-10.2,21.69-22.24,21.81l-1.37,5.07,35.44,7.95ZM295.1,371.09c1.92-3.71,5.27-26.7-3.43-21.51-3.3,1.97-3.93,20.58-5.54,25.02,2.74.47,7.68-1.04,8.97-3.51ZM548.05,392.12c-4.83-11.37-11.75-23.13-23.91-27.37,1.56,14.28,2.29,30.44-9.85,40.42,14.42,9.96,23.93,28.45,28.58,45.03.49,1.76,2.99,10.63,2.93,11.53-.1,1.47-1.96,1.55-1.91,4.46.11,7.21,5.93,19.44,5.94,27.7,0,2.41-.71,4.67-.77,7.06l-5.21,9.7,8.59-1.07c.58-25.13,3.33-51.08,2.62-76.18-.4-14.2-1.61-28.54-7.02-41.28ZM306.28,372.2c-2.33-4.44-7.7-4.41-8.17,1.33,4.53,4.01,5.59,8.33.19,12.25-1.92,1.39-4.49.68-4.28,2.62,8.09,4.02,15.54-9.95,12.26-16.2ZM474.17,390.37c12.65,2.17,25.91,4.76,36.4,12.45,5.33-1.97,14.13-18.45,9.89-22.24-2.37-2.11-32.43-9.19-35.31-8.5-3.65,5.93-6.9,12.35-10.97,18.29ZM305.2,389.71c8.41,6.92,14.33-13.4,9.18-15.46-4.39-1.75-4.2,7.13-5.58,9.54l-3.6,5.91ZM300.53,404.77c-.74.46-2.79.13-3.14-.96.84-3.4,1.27-6.07-.84-9.05-1.6-2.26-11.59-6.84-7.1-9.93,2.24-1.54,11.68-1.5,7.89-7.29l-2.26-.95c-5.98,2.55-13.78-.35-16.51,7.22-1.97,5.45-1.12,19.44,3.27,23.68,2.61,2.52,25.2,13.25,27.32,12.18,2.12-2.34,13.67-20.81,11.81-22.7-4.3,2.64-7.38-2.17-8.94-2.47-2.26-.44-3.95.83-7.77-.89-1.25-.56-1.13-3.99-4.96-.26,3.13,1.45,3.05,10.3,1.24,11.43ZM317.29,387.34c-.77,1.72-3.07,5.52-.92,6.66,5.8,3.08,12.04-13.92,3.96-14.14.55,3.21-2.24,5.69-3.04,7.48ZM507.69,406.14c1.64-2.72-15.84-8.32-17.74-8.87-5.69-1.63-11.66-2.33-17.42-3.61l-18.74,15.11c11.59,1.11,22.62,5.27,33.2,9.81l20.7-12.45ZM368.32,412.73l12.12-6.62c2.32-1.56-1.8-5.84-2.91-6.23-2.86-1.02-10.88,9.23-9.2,12.85ZM443.91,426.53c-16.88,7.9-40.38,6.33-51.15-10.31-2.71-4.18-2.26-8.71-9.32-10.06-3.47,14.19,8.96,26.94,21.35,31.56,12.53,4.67,28.85,3.76,40.96-1.62-2.17-3.25-2.04-5.62-1.84-9.56ZM119.14,408.13v15.45l34.17-12.49-12.65.18c-3.07-.57-5.07-3.76-5.41-3.78s-3.76,2.47-6.55,2.66c-3.33.22-6.55-.77-9.56-2.02ZM525.07,420.99c-2.21-3.03-10.49-13.19-14.3-12.71-1.52.19-20.1,12.74-22.74,14.7-7.2,5.34-20.48,19.61-28.72,20.58-7.61.9-9.78-3.77-11.76-3.86-1.02-.05-5.18,2.06-6.79,2.41-24,5.25-51.03,1.61-60.31-24.09l-1.27-7.25c-16.49,8.7-23.52,29.65-30.42,45.69l18.9,7.54,5.84-32.48,3.37-.39c-1.5,9.17-3.97,18.11-5.17,27.37-1.72,13.29-2.37,26.92-2.68,40.29,23.87,3.61,51.07,7.38,75.26,5.32,6.61-.56,5.87-2.01,10.37-4.09,13.69-6.35,27.61-10.42,42.54-13.02-1.21-2.44-.05-7.42-1.3-9.38-.46-.72-2.21-.71-3.32-2.09-1.62-2.02-7.55-20.4-7.84-23.09-.35-3.3,1.5-5.28,3.41-2.06l8.18,23.37c15.83.71,31.25-4.92,45.28-11.72,2.82-4.79-12.74-35.88-16.51-41.04ZM201.18,412.85c-1.22-.34-17.66,2.03-21.87,1.84-7.15-.33-14.86-2.41-21.38-5.24,1.63,6.71-7.47,4.03-2.42,10.96,8.99,12.34,36.57,12.96,48.1,4.15,3.07-2.35,4.77-4.92,1.94-8.5-.17-.21-4.11-3.13-4.37-3.2ZM395.27,412.73c7.66,15.83,29.52,17.78,44.57,12.02,7.99-3.06,7.13-7.01,9.33-14.65-17.06,8.14-36.08,8.28-53.9,2.63ZM312.43,423.91c-11.67-1.94-22.41-7.24-32.53-13.16l-18.21,34.4c-1.4,2.27-4.24,3.54-5.05.23l2.59-5.28c-12.31-10.02-25.95-19.27-41.47-23.43,6.69,20.04,9.94,38.93,11.2,60.11.64,10.78.45,21.76.64,32.56l9.03-2.27-3.79-53.33,3.32.84,2.61,22.18c10.46,5.17,23.53,9.74,35.22,6.32,15.54-4.55,25.44-26.46,30.62-40.41,2.28-6.13,3.88-12.55,5.83-18.78ZM452.55,412.15c-2.65,7.42-9.81,25.43,2.51,27.92,8.73,1.76,21.67-14.35,28.95-18.47.05-1.65-27.92-10.59-31.46-9.45ZM212.9,415.64c-.86-.5-1.76-.74-2.75-.9l-.94.94c9.28,30.53,10.98,63.15,9.2,94.99l7.27-1.04c-.35-6.32.31-12.73,0-19.04-.93-19.37-2.58-41.86-7.72-61.3-.69-2.62-3.41-12.68-5.07-13.64ZM150,416.71l-7.2,1.63c11.7,29.76,10.97,62.71,10.53,94.3h7.9c-.09-24.78.75-50.14-4.66-74.44-.11-.51-1.08-.5-1.2-1.01-1.63-6.9-2.75-13.85-5.36-20.48ZM143.75,434.15c-1.31-4.96-2.6-9.98-4.24-14.85-22.83,6.9-39.21,26.85-46.85,48.78-3.23,9.27-6.7,22.33-8.27,31.82-2.4,14.5-3,29.72-3.01,44.32l.97.9c12.75,3.85,26.15,4.68,39.43,4.32-.3-9.57,7.39-84.27,10.96-86.81,1.77-1.26,3.45-.76,3.52,1.65s-2.11,13.82-2.68,16.99c-.08.46-1.16.44-1.25.96-1.5,8.81-2.67,17.75-3.25,26.69l20.31,3.06c.86-24.1,1.3-50.82-4.17-74.4-.41-1.76-1.39-3.13-1.47-3.43ZM208.55,425.87c-14.8,10.3-36.28,11.12-51.28.99,1.33,9.32,2.18,10.76,11.19,13.13,10.74,2.82,25.44,2.49,35.42-2.69,6.33-3.28,6.55-4.54,4.67-11.43ZM212.41,452.09l-2.21-15.04c-.86,1.97-8.49,4.28-8.8,4.68-1.65,2.15,1.9,9.21,1.24,11.75l9.77-1.39ZM173.55,445.09l-12.99-4.1,1.97,14.45,11.78-1.34-.77-9.01ZM197.37,443.62l-7.88,1.32,3.63,68.4,6.9-.69c.02-23.05.6-46.17-2.64-69.02ZM186.2,445.59h-8.55c1.35,8.77-.28,18.82.6,27.33.13,1.27,3.05,1.39.07,1.6l1.32,1.65c.55,1.43-2.04.79-1.31,1.63.14.16,1.21-.5,1.37.95.24,2.22.26,8.31-.05,10.46-.1.69-1.29.17-1.33.76-.05.63,1.26-.22,1.38,1.27.2,2.4.21,6.9,0,9.29-.11,1.19-1.31.7-1.42,1.89-.31,3.45.33,7.38.05,10.89h8.55s-.66-67.71-.66-67.71ZM213.14,456.13l-9.89.93.04,7.6,11.07-1.42c1.23-3.43-1.43-4.34-1.23-7.12ZM175.02,467.28c-.33-1.69.87-8.54-.96-9.02l-10.88,1.14.66,7.88h11.18ZM366.91,467.38l-16.94-5.27-6.48,17.69c-16.86,8.37-55.95,12.59-64.7,30.44-1.71,3.49-5.28,13.05.76,13.58-1.96-3.72,5.51-19.1,8.88-19.08,4.05.03-2.03,7.2-2.81,9.04-1.9,4.48-4.71,14.16,2.52,14.35.83-7.34.95-18.21,10.48-19.42,1.54,1.51-4.19,6.29-4.79,7.4-1.9,3.53-3.88,12.68,1.83,13.04,4.31.27,6.45-8.38,9.6-11.5,1.02-1.01,8.53-6.61,9.18-3.91-.75,4.46-5.72,11.51-.41,14.69,7.78-1.81,10.53-9.77,14.61-15.66,12.03,0,24.03-1,35.75-3.7l2.52-41.67ZM215.13,481.09v-12.82c-1.47-1.64-9.13-.86-10.75-.23-2.34.92.56,11.1-.43,13.7l11.18-.66ZM540.54,467.3c-13.6,4.77-26.35,9.64-41.01,10.42l.29,8.62,5.29-.95c1.31.98,1.96,1.9.22,2.85-20.16,6.43-48.3,7.67-61.64,26.43-3.15,4.43-9.16,17.56-.84,18.91,3.39-2.05,1.77-4.17,2.45-6.76,1.08-4.09,4.27-15.69,9.83-13.16-3.56,7.27-11.43,16.93-3.97,24.31,6.47,1.19,3.88-5.64,4.63-9.07.1-.45,1.04-.49,1.21-1.01,1.35-4.21,3.39-9.95,8.28-11.3,2.61,2.27-2.11,5.06-3.48,7.68s-4.21,14.18.75,13.92c4.33-.23,9.31-14.34,13.41-15.54,2.53-.74,6.33.23,9.43-.44,3.81-.82,3.85-3.69,6.91-4.26,13.08-2.43,33.59-.03,45.75-7.51,12.69-7.8,5.57-31.38,2.51-43.13ZM175.02,470.57l-11.18.66.66,12.49h10.52v-13.15ZM215.13,484.37l-10.56.95-.33,7.64c1.26,1.78,8.57-.85,10.89-.04v-8.55ZM175.02,487l-10.52.65v8.55h10.52v-9.2ZM203.95,496.86v15.12h9.53c.22,0,1.53-.67,1.66-1.12l.64-14.65-11.83.65ZM175.02,499.49h-10.52v13.8c3.41-1.01,7.91.94,10.52-.99v-12.82ZM368.31,501.46v16.1c21.73,5.82,44.85,6.21,67.33,6.28.93-6.32,5.43-10.75,8.28-16.14-25.35-.4-50.94.33-75.61-6.25ZM238.79,511.32c-36.21,7.48-73.91,7.39-110.45,1.97l-.03,7.59c36.42,5.13,74.13,5.31,110.09-2.9l.38-6.66ZM315.73,539.59c10.17-7.93,21.64-13.87,34.04-17.56,2.44-.73,14.04-2.66,14.63-3.12,1.3-1.03.39-4.73.63-6.27l-34.19,4.26c-3.3,5.02-6.48,9.35-11.23,13.09-.9.71-3.66,1.64-3.77,1.82-.68,1.16.25,6.03-.11,7.78ZM238.79,521.84c-36.57,8.15-74.76,7.98-111.76,2.63l-.05,6.18c36.68,6.09,76.29,6.65,112.45-2.27l-.65-6.55ZM435.38,527.75c-13.05.15-26.12-.03-39.11-1.32-18.43-1.83-25.35-6.23-44.39-.98-26.41,7.27-44.15,20.26-48.45,48.18-3.08,19.98-1.03,41.72-1.2,61.94,2.44,3.82,57.34,10.03,65.08,10.52,8.18.52,57.85,1.64,60.72-3.43.94-11.78.15-24.71,1.45-36.35,1.14-10.19,3.38-20.07,15.77-20.06l.58-19.95c-10.44-4.24-16.97-16.54-13.69-27.54.21-.69,3.23-3.94,3.54-5.67.26-1.43-.69-3.69-.29-5.35ZM306.23,552.45c3.77-6.96,8.18-9.78,6.18-19.09-.52-2.44-6.03-5.89-3.93-10.86-4.92,1.71-6.68,10.52-11.66,11.06-2.26.24-4.1-2.15-5.92-2.4s-3.08.87-5.43.26-4.67-4.22-4.99-4.3c-9.22-2.42-5.43,16.91,1.38,21.68,2.22,1.55,8.36,2.55,8.88,4.93l-1.31,110.09,20.6-7.99c2.05-1.48.8-10.63,1.48-13.73-8.23-2.93-12.74-.56-13.56-10.79-1.53-19.15-.53-62.54,8.29-78.85ZM239.44,532.35l-9.23,2.36,8.57,130.74c-1.44,1.63-19.26,3.97-22.68,4.27-8.38.73-19.15,1.22-27.57,1.36-6.68.11-44.13-.4-47.68-3.65l7.89-130.47c-7.48.24-14.72-1.18-22.02-2.64-.72.15-.9,13.24-1.05,14.74-.22,2.1-1.84,3.45-1.94,5.28-.36,6.94,12.22,34.38-7.86,26,.22,7.01-3.22,15.87-11.17,9.86l-7.09,75.43c50.19,13.07,105.58,13.6,156.25,2.71l-14.4-135.99ZM226.26,535.69l-6.57,1.02c.59,28.67,2.28,57.46,4.59,86.06.09,1.14,1.3.94,1.34,1.41.84,9.88,1.56,20.18.75,30.02-2.8,3.59-54.25,4.19-61.57,3.71-1.94-.13-9.11-.71-9.84-1.99.24-11.87-.27-24.01.28-35.87.05-1.16,1.36-.73,1.42-1.89,1.22-26.08,1.58-52.21,3.29-78.26.04-3.74-4.77-1.92-7.29-2.3l-9.21,127.52c30.51,2.65,61.88,3.42,91.96-2.73l-9.15-126.72ZM465.62,540.9c-3.41,2.32-6.43-1.13-8.1-1.17-1.5-.03-3.71,1.87-5.88,1.69-3.74-.32-4.55-4.21-5.71-4.79-.49-.25-5.87.82-7.49-.26-2.71.78-2.62,10.96-2.33,13.32,2.15,17.53,23.92,13.36,36.42,15.5-1.28-3.69-6.91-8.97-6.91-12.8v-11.5ZM205.26,555.36h10.19c2.49-5.35-.74-12.42.33-18.41l-11.22,1.07.7,17.34ZM200,537.62l-7.89.65,1.31,115.69,12.5-.66-5.92-115.68ZM552.4,537.62l-60.81,11.17-5.58,117.65,60.83-17.06c1.62-5.84.28-12.48.91-18.14.15-1.35,1.98-.77,1.38-2.6-.29-.88-2.69.67.04-1.92l3.22-89.11ZM174.36,556.02l.67-16.11-1-1.63h-10.85l-.66,17.75h11.83ZM187.52,538.27c-2.68.56-9.1-1.47-9.86,1.65l-.93,114.12,12.11-.08-1.32-115.69ZM119.05,553.48l-33.34-3.28c-1.57,4.75-2.9,10.33-2.76,15.38.17,5.76,2.1,16.76,8.58,18.04l-2.51-15.33,2.18-1.09c1.68.52,1.07,23.98,10.83,19.01-.59-2.85-3.8-17.67-1.84-18.91l2.52-.11c.02,3.44,1.96,19.23,4.6,20.71l3.33.03c2.97-2.99-.21-18.77,1.23-19.8,5.3-1.5,3.17,7.88,7.96,9.91,6.91,2.93,2.83-14.47,1.9-17.58-.16-.54-1.03-.52-1.2-1.02-.38-1.11-.89-5.59-1.47-5.96ZM217.1,558.65h-10.19c-.26,0-1,.86-1.65.66l.66,8.54h11.18v-9.2ZM161.87,568.51h10.85c1.58-1.94,1.62-7.13,0-9.2h-10.85v9.2ZM474.83,568.51l-25.61-1.93-5.29,131.42,26.95,1.97,3.95-131.46ZM205.92,571.14v12.82l.99.99h11.51l-.66-14.46-11.83.66ZM173.71,571.8h-11.83c.2.64-.66,1.42-.66,1.64v11.17l.99.99h10.52l.99-.99v-12.82ZM4.08,582.97v40.1c30.82,4.27,66.04,8.97,94.67-5.74l2.63-27.13c-3.58,1.56-6.16-2.14-7.7-2.51-.98-.23-2.09.66-3.5.29-2.04-.53-4.04-4.07-6.87-4.4-4.24-.51-12.33,1.85-17.08,2.05-20.69.88-41.71.15-62.15-2.65ZM590.54,623.06v-40.1l-13.15,1.31c-.8,13.34-1.65,26.74-1.97,40.1l15.12-1.32ZM173.05,588.88h-11.83l-.66,9.2h12.49v-9.2ZM218.41,588.88h-11.83v8.54h12.49l-.66-8.54ZM443.92,590.2c-9.55.32-10.35,11.84-9.86,19.06h9.86v-19.06ZM173.05,619.12v-16.76l-.99-.99h-10.52l-1.64,17.75h13.15ZM219.73,601.37h-12.49l.66,17.09h12.16c2.11-4.81-.57-11.77-.33-17.09ZM286.79,604h-35.5l2.64,24.31,32.86-.65v-23.66ZM443.27,612.54c-2.09.42-8.96-1.04-9.77,1.08-.42,2.49.23,5.21-.12,7.65-.07.49-1.21.26-1.34,1.41-.54,4.95.61,18.87-1.91,22.4-2.59,3.62-11.08,2.87-15.11,4.29l2.34,33.58,24.6,1.89,1.32-72.31ZM159.24,632.93l13.16-.32.36-9.59-12.86-1.28-.67,11.18ZM221.04,621.75h-13.15l.69,10.48c4.45.12,8.69.56,13.12.04l-.66-10.52ZM4.08,626.35v32.86h90.07l3.28-36.81c-29.28,12.19-62.78,9.21-93.36,3.94ZM590.54,626.35l-15.04,2.05-2.21,41.84c-8.44,2.69-17.35,7.77-26.15,7.72l35.2,41.71,8.2.02v-93.34ZM286.79,631.61h-32.87c-.11,7.24,5.78,32.24,3.13,37.64s-24.08,6.1-30.05,7.75l.65,11.76c9,1.4,26.42,7.85,32.79,14.21,2.53,2.53,5.38,11.33,4.89,14.59-1.36,8.9-26.26,10.26-33.45,10.65-3.17.17-6.43.23-9.51-.65l-16.45,57.19h228.14s-30.99-83.39-30.99-83.39c-16.6,3.54-33.09,5.79-50.19,4.5-7.08-.53-21.48-1.95-22.73-10.49-14.54,2.07-30.26,2.93-44.82.46-5.28-.9-16.93-4.25-14.53-11.49.21-.64,1.67-1.16,2.21-2.41,3.35-7.71,4.27-12.46,13.13-15.98l.65-34.36ZM222.36,635.55h-13.81c.75,3.47-.23,14.17.75,16.67.89,2.29,11.43.3,13.4-.87l-.35-15.79ZM172.39,636.21h-13.15c.15,2.85-2.15,16.65.42,17.65,4.02-.58,9.51,1.47,12.73-.23v-17.42ZM347.94,647.38l-32.87-4.59-.52,13.66c9.65,4.8,18.61,14.39,20.9,25.11l14.36-10.99-1.87-23.2ZM357.06,648.12l-5.84-.08c.82,7.14,3,13.47,2.63,21.03l4.6-3.62-1.39-17.33ZM361.08,648.7v15.78l9.21-1.97.68-12.16c.12-1.36-.08-.87-.99-1-2.66-.37-6.09-.06-8.9-.65ZM399.88,691.43l13.03-5.04-1.21-37.03-37.47.65c.76,3.08-1.9,10.77-.35,13.17.21.33,5.58,2.74,6.86,3.66,8.33,5.94,16.76,14.62,19.14,24.59ZM546.48,674.33l.65-21.03-12.5,3.6c-1.35,1.15-.55,12.35-.36,14.84l12.2,2.59ZM530.71,657.9l-44.6,12.59-1.75,27.5c-8.44,6.82-19.36,5.51-29.57,4.6-4.31-.39-9.76-.74-13.49-2.29v-12.16l-24.33-1.32c.97,7.71-3.83,11.2-10.56,12.87l7.6,20h160.42c.1,0,1.68-.75,1.64-.98-1.32-1.35-2.19-3.07-3.39-4.5-4.04-4.83-29.68-36.17-31.98-37.02-1.7-.63-9.99-1.29-9.99-3.84v-15.45ZM318.73,662.77c-1.35-.92-6.29-3.51-7.78-3.43-4.5.24-12.52,5.37-16.93,7.1,9.46,2.91,18.96,10.46,19.72,21.05l17.79-2.26c4.36-3-9.55-20.23-12.8-22.45ZM4.08,663.82v82.16l68.38-82.81-68.38.65ZM4.08,759.13h205.13l9.21-31.55c-5.99-.65-12.01-1.31-18-2.06-1.64-.21-6.57-1.86-7.22-1.74-.48.08-4.06,3.03-5.54,3.62-16.34,6.57-52.93,3.48-68.75-4.51-9.13-4.61-8.32-7.64-6.8-17.12,1.67-10.43,6.01-20.6,4.77-31.46-1.75-2.42-26.03-1.43-23.38-11.13-3.71.67-12.87-1.06-15.78.32-.23.11-2.86,3.03-3.53,3.71-15.01,15.37-30.02,37.21-43.82,54.13-7.94,9.74-17.63,19.02-24.98,29.11-2.03,2.78-1.19,5.45-1.3,8.7ZM380.21,695.3l16.36-3.54c-1.87-8.36-18.88-26.1-27.2-25.94-4.85.09-11.52,6.39-16.17,7.87,2.29,1.29,5.12,1.42,7.67,2.5,7.5,3.18,17.49,10.9,19.34,19.11ZM298.34,671.99c-3.55-1.86-8.72-3.19-12.7-1.76-3.66,1.32-11.38,9.76-6.75,13.3-1.25-3.78,5.62-11.56,8.81-10.49,4.39,1.47-8.39,8.3-5.13,11.88l3.58.3c1.45-3.84,4.38-9.75,9.2-8.62,2.76,1.93-6.44,6-5.93,9.55l21.69,1.32c-2.09-6.42-6.69-12.3-12.77-15.48ZM155.3,678.28c-4.45,1.37-32.38-4.52-33.51-3.27-.1.11.14,1.11-.22,1.74-.21.36-1.12.16-1.12.22v10.19c0,4.75-5.9,16.6-4.47,21.54.89,3.06,9.75,5.87,12.73,7.03,4.47-5.07,7.62-11.58,12.76-16.1,3.46-3.05,9.51-6.5,13.82-8.2v-13.15ZM375.16,692.46c-4.45-6.91-15.96-15.57-24.39-15.45-6.44.1-21.49,12.5-7.45,15.72.36-4.92,3.71-8.79,8.17-10.54l1.68,2.64c-3.28,1.77-6.83,5.02-6.5,9.16l6.48,1.35c-1.38-3.49,10.05-13.09,8.5-6.98-.28,1.1-6.05,4.21-5.17,7.66h20.38c.6-2.12-1.15-2.71-1.69-3.56ZM223.02,677.62l-31.57,1.97c1,2.6-1.14,3.15-1.36,4.24-1.2,5.83-.55,13.66-1.87,19.7.92,1.23,4.73,8.81,5.21,9.26.95.89,10.55,2.9,11.17,2.3.5-12.64,8.97-20.05,18.99-26.08l-.58-11.39ZM186.86,679.59l-26.51-.68c-1.76.51-.91,8.44-1.13,10.1l25.66,12.93,1.98-22.35ZM334.13,688.14c-19.44,3.04-40.61,5.33-59.17-2.63.55,7.69,20.19,8.34,26.6,8.57,10.59.38,21.08-.99,31.47-2.63l1.1-3.31ZM413.01,690.77c-23.53,8.8-48.57,12.52-72.97,4.93-2.72-.85-4.9-4.66-5.95.63.43,4.81,20.14,6.11,24,6.3,14.35.71,29.92-.75,43.6-5.1,1.4-.44,13.56-4.03,11.31-6.76ZM244.05,697.99c-5.06-3.15-15.2-7.35-20.84-4.72-8.14,3.79-14.87,12.97-15.26,22.06.82,2.56,15.5,2.57,18.28,2.31,1.97-9.15,8.73-17.08,17.82-19.65ZM173.7,699.32c-3.5-.81-9.16-5.25-12.32-5.79-8.3-1.42-25.73,14.67-27.77,23.18.3,1.19,14.89,3.68,16.32,2.86,1.88-7.21,8.96-14.5,15.63-17.56,2.52-1.15,5.84-1.24,8.15-2.69ZM259.48,709.54c-1.6-3.55-6.38-8.43-10.16-9.29-6.65-1.51-19.9,10.78-19.72,18.12l17.46-1.94c.51-4.72-5.45-5.9-4.97-9.89,1.99-1.94,10.73,5.66,8.54,9.2l5.26-.67c.29-5.28-5.29-6.7-5.26-11.16,5.22-.4,7.75,5.49,8.55,9.86,3.24,0,.62-3.51.3-4.24ZM184.89,717.71c9.14-2.91-.38-13.89-5.75-14.96-9.26-1.85-23.77,8.41-25.82,17.59l16.43.66c.9-4.42-5.49-3.96-4.59-8.54,4.37-.67,7.37,4.21,8.65,7.77l6.47-.86.71-1.98c.09-3.79-5.33-5.02-5.89-6.68-2.46-7.18,11.4,2.63,9.79,7ZM190.14,719.03c-4.29,2.86-8.53,3.78-13.57,4.5-19.43,2.76-44.07-.53-61.36-9.76-.58,3.37,3.12,5.2,5.73,6.43,14.05,6.6,47.19,8.91,62.02,5.11,3.42-.88,7.25-1.95,7.19-6.28ZM261.81,717.07c-22.19,6.98-46.13,5.12-68.39-.33l1.83,4.26c18.55,2.76,39.52,5.34,58.03,1.01,3.14-.73,7.38-1.52,8.53-4.94ZM590.54,722.97h-175.54l43.06,114.37h132.48v-114.37ZM83.64,763.07H4.08v74.27h34.85c11.88-19.34,23.39-38.71,34.95-58.09.43-.71,1.51-.95,1.87-1.56,2.8-4.72,5-9.93,7.88-14.62ZM207.89,763.07h-119.33c-5.36,5.65-8.66,14.31-12.82,21.18-8.19,13.53-17.44,27.56-25.55,41.02-2.36,3.92-4.21,8.21-6.66,12.08h142.01l22.35-74.27ZM189.49,837.34h263.64l-18.17-49.21-230.69.56c-1.1,1.17-1.17,5.3-1.7,6.72-.2.54-1.01.57-1.18,1.05-4.61,13.35-6.84,27.67-11.91,40.88Z"/>
  <rect x=".14" y="841.29" width="595" height=".66" fill="#fff"/>
  <path d="M433.14,154.01c1.73,2.24,3.68,4.34,4.87,6.96-6.33-.72-11.4.91-17.09,3.29-.4-16.69-18.4-25.5-31.88-15.77-3.47-4.69-5.96-10.1-11.31-13.03-17.89-9.81-44.13,2.51-46.9,22.89-14.66-10.15-35.91-2.55-40.85,14.36-3.91,0-7.94.21-11.54,1.93-5.35,2.57-11.34,11.11-4.84,15.6,4.51,3.12,19.09,2.82,25.35,2.98,52.45,1.39,105.19-1.23,157.69.06,1.21.44,4.81,10.3,5.53,12.22,6.46,17.34,10.67,36,11.34,54.72-4.77-1.35-10.72-3.76-15.51-4.53-5.48-.88-18.31.27-21.51-.84-.47-.16-4.19-5.15-7.07-6.73-9.18-5.04-27.97-2.2-31.31,8.99-.64,2.15.29,5.87-.62,7.73-.82,1.67-3.79,2.97-5.17,4.57-7.84,9.09-13.18,17.26-15.24,29.46-1.15,6.84.31,12.52-.83,18.87-3.89,21.71-12.16,47.12-5.9,69.63.89,3.2,2.73,6.02,3.79,9.14-3.91,3.81-8.98,7.86-9.13,13.89-.07,2.61,1.52,4.81,1.11,6.26-.32,1.13-3.74,3.93-4.89,5.7-3.49,5.41-17.44,30.77-15.93,35.88.23.78,1.79.78,1.9,1.42.36,2.17-5.27,13.07-5.26,16.37-16.82,9.12-45.76,11.79-60.05,24.1-10.47,9.01-7.33,18.67-9.61,29.7-.1.48-1.12.55-1.22,1.01-.91,4.42,3.03,15.01,6.29,18.51,3.08,3.3,6.73,3.84,10.05,6.44l-.69,43.81-35.42.81c-.86-.63-1.62-15.2-1.97-17.66-2.15-14.86-4.68-31.16-5.88-46.81-1.41-18.27-1.62-36.59-2.64-54.87,10.61,4.22,20.04,7.93,31.81,6.5,25.72-3.14,38.48-43.51,43.76-64.74l-3.9-1.9c7.25-8.54,17.11-28,14.83-39.16-1.18-5.79-5.85-4.46-7.45-6.02-.64-.62,0-2.24-2.3-3.94-4.33-3.2-7.98-.27-8.36-.5-.24-.15-.51-3.22-3.12-4.45-2.17-1.03-4.45-.85-6.75-.81,1.06-5.62,3.69-16.7-2.69-19.99-12.27-6.34-11.63,19.81-13.14,25.42-1.18,4.39-4.72,5.21-6.83,8.41-5.82,8.86-1.49,18.93,0,28.22l-14.18,28.93c-16.72-10.95-33.65-24.71-54.56-25.64,9.54-5.33,19.53-11.15,23.98-21.7,6.35-15.07,4.33-28.08.68-43.37-.76-3.17-4.74-12.15-4.8-14.25-.02-.74,3.12-6.51,3.17-9.78.04-2.76-1.75-6.01-1.79-7.96-.14-7.65,7.24-10.37-2.14-19.64-4.27-4.22-2.54-2.79-5.66-7.48-4.99-7.52-10.8-4.45-16.9-6.11-2.12-.58-5.71-4.31-9.51-4.95-2.98-.51-9.91-.47-13.01-.18-4.14.39-7.54,2.86-10.01,3.2-7.2.98-12-1.58-20.54,2.42-3.13,1.47-6.77,6.15-8.07,6.7-1.19.5-2.84.06-4.3.65-8.17,3.28-13.57,5.41-19.18,12.69.36-13.86-.71-27.95.6-41.77.11-1.19,1.28-.69,1.42-1.89.76-6.71.7-13.64,2.04-20.31l.86-.87,112.42.41c28.81-5.96,5.91-28.99-12.8-22.99-1.21-13.28-13.77-16.9-24.98-12.49-.87-19.9-26.55-26.05-39.06-11.77-2.22,2.53-5.62,7.77-5.65,11.11-5.8-2.92-12.14-4.97-18.4-1.97,3.88-12.41,10.76-25.34,18.11-36.14,33.38-49.07,88.07-80.98,143.35-100.57,52.31,18.64,101.27,47.18,135.45,91.61ZM248.28,117.32c-6.29-8.07-6.92,5.15-8.92,9.4-1.66,1.03-8.52-3-10.52,1.7s5.89,6.31,6.57,8.71c.89,3.15-5.04,8.78.57,11.23,4.63,1.36,7.64-5.15,9.71-5.14,2.44,1.1,9.85,7.98,11.73,3.81,1.44-3.32-1.67-6.66-.76-9.88.73-2.57,6.88-3.91,5.7-7.9-2.65-3.43-7.21-3.12-11-3.19-1.1-3.62-.77-5.75-3.1-8.74ZM186.01,148.57c-2.79.65-1.93,4.8.91,4.22,3.35-.68,1.66-4.82-.91-4.22ZM364.13,246.01c-9.36-10.96-20.82-20.32-29.63-31.83l-3.6-.56c-1.08,1.96.45,3.03,1.58,4.55,2.9,3.88,30.37,33.62,32.59,34.47.85.32,1.65.56,2.57.35,1.19-2.52-1.84-5.02-3.51-6.97ZM409.08,218.17c1.75-1.7-2.25-6.19-4.33-3.32-1.97,2.71,3.14,4.47,4.33,3.32ZM375.97,221.03c-9.5-4.37-1.16,4.51.24,6.84,1.11,1.84,6.3,11.85,7.23,12.34l3.93-.36-11.41-18.82ZM353.04,264.98l-38.64-28.08-3.27.68,1.66,2.92c11.39,5.09,26.38,21.97,36.75,26.36,1.28.54,2.25.83,3.67.6-.07-.79.25-1.75-.16-2.48ZM172.73,255.64c-2.93.5-3.71,11.91,1.67,8.25.96-.65.32-8.59-1.67-8.25ZM339.23,281.44l-59.67-24.49,1.04,3.23c7.36,1.48,55.97,25.88,58.76,24.36.29-.16.64-2.59-.14-3.09ZM223.49,266.25c-3.1.9-2.23,6.25,2.15,4.17,2.42-1.15.73-5.01-2.15-4.17ZM294.02,299.02c10.98-.09,23.26,4.66,33.88,5.25,2.7.15,6.22-.31,3.15-3.17l-37.03-5.38v3.29ZM260.49,300.34c-1.14-.57-5.65-1.45-5.25.96s5.31,1.79,5.25-.96ZM322.05,324.04c-1.65.24-2.58,3.99-.72,4.55,3.3.98,3.73-4.98.72-4.55ZM267.72,325.97c-3.65-1-3.91,5.43-1.62,5.91,2.65.56,2.3-4.52,1.62-5.91Z" fill="#fff"/>
  <path d="M590.54,3.89v34.18l-116.72-.68c-6.49.25-7.83,5.03-6.85,10.72.12.7,3,9.8,3.61,11.33,6.92,17.57,23.01,27.8,39.75,34.83-14.83,7.45-12.79,24.94,2.67,29.65l-7.93,156.03-11.99-10.02-15.14-8.52c-.88-8.76-1.71-17.63-3.3-26.28-16.38-89.06-95.17-149.85-177.38-176.99-49,17.94-95.65,42.9-130.37,82.54-39.64,45.26-54.48,102.15-51.05,161.93-5.93,6.22-13.76,12.27-15.04,21.77-.42,3.1.42,6.83-.09,9.76-.39,2.21-3,4.12-3.36,5.21-1.56,4.76-1.19,12.55-.13,17.44.34,1.57,1.98,1.58,1.97,3.02,0,.65-1.98,2.61-2.29,5.34-1.29,11.45,3.41,9.54,4.91,15.35.46,1.76-.37,6.71.31,9.49,2.28,9.26,10.06,8.08,11.98,11.08,3.09,4.84-.46,19.72,1.71,25.84-6.07,7.02-13.46,12.56-17.37,21.32l-16.8-324.3c15.79-4.03,17.73-22.26,3.33-29.98,4.36-1.65,9.67-3.46,13.72-5.68,12.24-6.7,23.44-18.25,27.37-31.8.92-3.16,4.91-18.4-1.31-18.4H4.08V3.89h586.45ZM190.4,48.99c-1.45-2.55-2.85-10.09-5.54-11.25-5.29-2.29-8.13,11.6-10.79,14.18-3.04,2.96-12.66,2.57-9.58,8.84,2.15,1.66,9.33,3.31,10.84,4.93s3.63,13.52,7.38,14.36c4.48,1,5.94-11.04,10-14.06,3.63-2.7,11.54-3.09,9.79-8.74-4.35-2.56-9.51-3.68-12.11-8.25ZM374.44,71.39c.53.51,2.66,1.01,3.47,1.52,3.59.24,4.3-5.7,6.16-7.58s7.64-2.59,7.94-5.94c.36-3.99-6.26-3.9-8.27-5.53s-1.76-6.2-4.63-6.62c-5.02-.73-5.09,5.39-6.87,6.91s-5.98.67-6.57,3.99c-.88,4.96,3.94,4.57,5.74,6.39,1.29,1.3,1.69,5.55,3.02,6.84ZM461.47,94.79c-1.82-2.33-8.14-2.33-10.92-5.17s-3.55-12.57-8.27-12.73-5.18,9.95-7.52,12.17c-2.51,2.38-12.12,2.55-11.88,7.78.21,4.44,9.46,5.53,11.49,7.63s2.86,12.89,7.22,13.11c5.6.28,5.71-9.73,8.87-12.83,2.69-2.64,15.53-4.16,11-9.97ZM132.51,116.07c6.6,7.95,8.11-3.59,10-5.68,1.7-1.88,8.77-2.93,9.41-7.09.82-5.28-7.5-4.83-9.43-6.75-1.72-1.71-1.79-7.99-4.63-8.56-6.88-1.37-5.66,5.52-7.83,7.95-1.73,1.94-9.33,3.49-9.95,5.84-.97,3.69,7.66,6.01,9.61,8.24,1.43,1.63,1.49,4.44,2.83,6.05ZM125.53,156.55c-1.22-1.43-4.96-1.09-6.09-2.12-1.89-1.73.02-9.16-5.88-7.93-2.53.53-3.14,7.09-5.09,8.42-1.2.82-6.63.29-6.29,4.31.28,3.3,4.67,3.55,6.1,5.04,2,2.09,4.26,13.33,9.14,6.5,1.08-1.51,1.45-5.19,1.85-5.7.71-.9,10.91-3.05,6.26-8.52Z" fill="#fff"/>
  <path d="M77.72,124.17c1.46,31.42,3.71,62.88,5.28,94.3,3.92,78.41,7.18,155.98,11.21,234.67-9.05,22.78-14.18,45.09-15.83,69.69-.33,4.87-1.97,21.28.63,24.33.93,1.09,3.24,1.46,3.36,2.03-3.25,9.69-4.18,20.81.59,30.16-.19,1.38-22.58,2.88-25.26,2.99-17.93.69-35.84-.83-53.62-2.66l-.02-244.21c-.07-13.19,2.21-27.67,2.7-40.03,2.27-57.09,4.15-114.19,6.52-171.27h64.43Z" fill="#fff"/>
  <path d="M580.67,124.17c.62,19.82.96,39.71,1.92,59.53,2.53,51.93,5.81,105.66,7.97,158.34v237.26s-13.18,1.05-13.18,1.05l4.64-103.5c-1.63-28.4,3.67-59.76-4.16-87.27-7.25-25.47-29.1-49.57-55.57-55.2-2.03-10.68-2.9-22.43-6.36-32.75-1.61-4.79-6.83-12.11-7.53-16.13-1.04-5.94.89-26.63,1.24-34.16.98-20.68,3.42-42.45,4.68-62.38,1.36-21.56,1.71-43.23,3.24-64.78h63.12Z" fill="#fff"/>
  <path d="M286.79,631.61l-.65,34.36c-8.87,3.52-9.78,8.26-13.13,15.98-.54,1.24-2,1.77-2.21,2.41-2.4,7.24,9.25,10.59,14.53,11.49,14.56,2.47,30.28,1.61,44.82-.46,1.25,8.53,15.64,9.95,22.73,10.49,17.11,1.29,33.59-.96,50.19-4.5l30.99,83.38h-228.14s16.45-57.18,16.45-57.18c3.08.88,6.34.82,9.51.65,7.18-.39,32.08-1.76,33.45-10.65.5-3.26-2.36-12.06-4.89-14.59-6.37-6.37-23.79-12.81-32.79-14.21l-.65-11.76c5.97-1.65,27.47-2.5,30.05-7.75s-3.24-30.41-3.13-37.64h32.87Z" fill="#fff"/>
  <polygon points="590.54 722.97 590.54 837.34 458.06 837.34 414.99 722.97 590.54 722.97" fill="#fff"/>
  <path d="M435.38,527.75c-.4,1.66.55,3.92.29,5.35-.31,1.73-3.33,4.97-3.54,5.67-3.28,11,3.25,23.3,13.69,27.54l-.58,19.95c-12.39,0-14.63,9.87-15.77,20.06-1.3,11.64-.51,24.57-1.45,36.35-2.87,5.06-52.54,3.94-60.72,3.43-7.75-.49-62.64-6.7-65.08-10.52.17-20.22-1.88-41.96,1.2-61.94,4.3-27.92,22.04-40.91,48.45-48.18,19.05-5.25,25.96-.85,44.39.98,12.99,1.29,26.06,1.47,39.11,1.32ZM363.31,557.58c8.46-12.19,24-16.68,37.21-21.62,1.38-4.08-7.03-1.25-8.69-.8-33.18,9.03-41.45,33.15-42.61,64.54-.09,2.42-.51,15.68,1.13,16.15l3.5-.02c.3-17.97-1.25-42.82,9.46-58.25Z" fill="#fff"/>
  <path d="M189.49,837.34c5.06-13.2,7.3-27.52,11.91-40.88.17-.49.98-.51,1.18-1.05.53-1.42.6-5.55,1.7-6.72l230.69-.56,18.17,49.21H189.49Z" fill="#fff"/>
  <path d="M525.07,420.99c3.77,5.16,19.34,36.25,16.51,41.04-14.03,6.8-29.45,12.43-45.28,11.72l-8.18-23.37c-1.91-3.22-3.76-1.24-3.41,2.06.29,2.7,6.22,21.07,7.84,23.09,1.11,1.39,2.87,1.38,3.32,2.09,1.25,1.96.09,6.94,1.3,9.38-14.93,2.6-28.84,6.68-42.54,13.02-4.5,2.08-3.76,3.53-10.37,4.09-24.19,2.06-51.39-1.71-75.26-5.32.31-13.37.96-27,2.68-40.29,1.2-9.26,3.67-18.21,5.17-27.37l-3.37.39-5.84,32.48-18.9-7.54c6.91-16.04,13.94-37,30.42-45.69l1.27,7.25c9.28,25.7,36.32,29.34,60.31,24.09,1.61-.35,5.78-2.46,6.79-2.41,1.97.09,4.14,4.76,11.76,3.86,8.23-.97,21.52-15.25,28.72-20.58,2.65-1.96,21.23-14.51,22.74-14.7,3.81-.48,12.08,9.68,14.3,12.71Z" fill="#fff"/>
  <path d="M4.08,759.13c.11-3.24-.72-5.91,1.3-8.7,7.35-10.09,17.04-19.38,24.98-29.11,13.8-16.92,28.81-38.76,43.82-54.13.66-.68,3.29-3.6,3.53-3.71,2.91-1.38,12.08.35,15.78-.32-2.65,9.7,21.64,8.71,23.38,11.13,1.24,10.87-3.1,21.03-4.77,31.46-1.52,9.48-2.33,12.51,6.8,17.12,15.83,7.99,52.42,11.08,68.75,4.51,1.47-.59,5.06-3.54,5.54-3.62.66-.12,5.58,1.54,7.22,1.74,5.98.75,12.01,1.41,18,2.06l-9.21,31.55H4.08Z" fill="#fff"/>
  <path d="M207.89,763.07l-22.35,74.27H43.53c2.45-3.87,4.3-8.16,6.66-12.08,8.11-13.45,17.36-27.49,25.55-41.02,4.16-6.87,7.46-15.53,12.82-21.18h119.33Z" fill="#fff"/>
  <path d="M559.88,363.85c23.24,30.79,19.46,64.7,18.85,101.82-.91,55.22-4.97,111.8-7.96,166.23-.64,11.66-.11,23.71-.59,35.41l-19.08,7.02,4.93-139.34c-.92-1.92-9.47-.2-11.74.09-14.25,1.81-32.72,4.32-46.57,7.34-13.75,3-10.81,5.34-11.73,18.51-2.99,42.55-.32,88.13-4.59,130.15-.54,5.33-1.74,6.64-7.21,7.57l4.26-134.07c-10.35-7.64-11.08-20.95-5.69-32.01,4.27-8.75,5.85-4.87,13.3-6.42,3.19-.66,5.54-3.89,7.54-4.29,7.24-1.46,17.47-.87,25.43-2.19,8.37-1.38,14.84-3.96,23.17-5.04,3.42-.44,12.35-.33,13.68-3.48l3.17-64.58c.18-32.27-1.44-70.63-34.54-86.44l-1.67-21.3c1.06-3.22,20.03,8.27,21.93,9.59,7.28,5.07,9.93,8.52,15.14,15.43Z" fill="#fff"/>
  <path d="M502.86,352.68c-3.37,4.47-9.49,7.45-15.11,7.2-1.4-.06-11.45-3.49-9.33.28.59,1.03,4.75,2.45,4.89,2.69,1.42,2.43-11.82,25.48-14.4,28.53-17.06,20.23-51.53,28.03-75.41,16.21-22.55-11.16-24.81-34.87-19.93-57.3,3.66,1.9,5.63,12.52,9.13,13.49l1.56-.3c3.42-3.44,8.72-7.88,13.49-9.06,7.32-1.81,6.43,1.8,12.27,2.47,11.09,1.27,12-4.69,24.71,1.58,5.18,2.55,13.59,10.68,18.73,10.9,4.68.19,19.15-6.95,19.77-11.82.17-1.3-1.47-2.18-2.56-1.93-1.33.3-1.96,2.44-2.96,3.22-3.16,2.45-10.86,7.74-14.87,7.22-1.77-.23-12.16-8.43-15.07-9.97s-10.94-5.15-13.82-4.95c-4.1.29-16.68,6.31-18.69-1.99-2.44-10.13,8.43-14.16,10.22-22.77l-1.49-1.72c-6.25,7.35-14.28,15.02-12.82,25.62-7.05.19-13.13,5.06-18.4,9.21-1.7-5.25-5.93-11.24-6.58-16.76-.51-4.27,2.95-25.89,4.36-30.48,1.27-4.12,8.47-4.6,12.59-5.16,16.65-2.28,41.02-.91,57.48,2.65,2.88.62,18.79,4.83,19.49,6.81-1.14,6.05,2.99,21.19,11.48,18.5,1.05-.33,3.47-4.37,6.16-5.68,16.24-7.93,24.12,11.35,15.1,23.32ZM386.16,317.98c3.22,1.8,5.11-1.73,8.81-1.91,1.85-.09,7.68,2.09,7.35-1.63-.46-5.05-17.49-3.73-16.16,3.53ZM432.24,316.62c1.04,1.71,7.01.82,9.81,1.68s6.32,5.21,8.35,1.28c-1.18-8.19-12.09-10.11-17.88-5.51-.72.52-.67,1.91-.28,2.55ZM397.05,325.51c-10.65-8.38-13.47,16.76-1.73,12.66,4.85-1.7,5.27-9.87,1.73-12.66ZM432.29,338.26c2.45,4.06,9.25,3.71,10.69-1.09,5.05-16.87-16.98-9.33-10.69,1.09ZM497.04,339.65c-.66-10.92-16.36,11.97-5.87,9.88,1.27-3.52,2.03-8.1,5.87-9.88ZM400.95,365.46c-.58.2-1.24.88-1.07,1.57.61.71,1.23,1.41,2.02,1.93,3.34,2.22,22.44,4.1,22.99-.61.47-4.09-7.35-.31-10.23-.27s-12.76-2.94-13.71-2.62Z" fill="#fff"/>
  <path d="M224.59,336.24c4.75,12.54,8.44,22.04,7.66,36.09-2.21,39.57-51.98,48.41-80.44,29.76-4.07-2.66-14.23-10.99-12.29-16.31-5.7,2.6-7.83,4.63-14.62,3.77-18.12-2.31-16.68-28.5-1.49-28.14,6.47.15,8.05,6.97,12.45.01,5.39-8.52,4.6-19.49,3.63-29.1.24-.79,4.32-1.55,5.62-2.41s3.4-4.37,4.01-4.52c.44-.11,4.72,1.46,7.66,1.07,6.88-.93,9.04-7.09,10.8-7.66,1.51-.49,4.17,1.75,6.48,1.93,6.26.5,9.98-2.77,13.77-7.05,5.07,2.44,15.8,3.88,18.1-2.82l.94.02c2.23,3.34,7.15,3.3,9.48,5.65,1.98,2,6.86,16.05,8.24,19.71ZM214.31,324.14c-2.54-4.86-17.58-4.15-16.98,1.48.33,3.07,7.13.9,9.6.96,1.89.05,10.4,3.31,7.39-2.44ZM161.7,329.41c-3.51.63-9.28,4.99-9.66,8.77-.97,9.62,7.8-1.7,9.38-2.49,3.06-1.54,5.69-.53,8.41-2.11,2.6-4.96-4.81-4.77-8.12-4.18ZM208.37,335.3c-6.46,1.84-4.06,17.52,5.16,13.72,5.94-2.44,3.08-16.07-5.16-13.72ZM202.42,354.44c7.24,9.44-4.69,10.27-6.07,12.24-2.69,3.86,6.05,2.89,8.91-.29,4.71-5.23,2.44-11.42-1.97-15.78-1.06-1.05-10.95-9.89-11.84-6.56-.73,2.74,9.3,8.21,10.96,10.38ZM172.81,357.94c4.45-4.41.2-16.14-6.98-13.22-8.02,3.27-.9,21.03,6.98,13.22ZM127.21,379.02c.44.4,1.02.56,1.57.74l1.5-.91c-.71-3.83-3.14-9.77-7.6-10.14-6.07-.51-6.86,8.27,1.06,4.2,1.62.77,2.42,5.15,3.47,6.12ZM212.48,377.91c-.94-1.72-6.98,2.47-8.54,2.93-6.55,1.93-12.36.92-18.72-1.04-3.75,2.23.61,4.31,3.48,5.12,4.77,1.35,27.54-.11,23.77-7.01Z" fill="#fff"/>
  <path d="M552.4,537.62l-3.22,89.11c-2.73,2.59-.33,1.04-.04,1.92.6,1.82-1.23,1.25-1.38,2.6-.63,5.66.71,12.3-.91,18.14l-60.83,17.06,5.58-117.65,60.81-11.17Z" fill="#fff"/>
  <path d="M239.44,532.35l14.4,135.99c-50.66,10.89-106.06,10.36-156.25-2.71l7.09-75.43c7.95,6.01,11.39-2.85,11.17-9.86,20.08,8.38,7.5-19.06,7.86-26,.1-1.83,1.72-3.18,1.94-5.28.16-1.5.33-14.59,1.05-14.74,7.3,1.46,14.54,2.88,22.02,2.64l-7.89,130.47c3.55,3.24,41,3.76,47.68,3.65,8.42-.14,19.19-.62,27.57-1.36,3.42-.3,21.24-2.64,22.68-4.27l-8.57-130.74,9.23-2.36Z" fill="#fff"/>
  <path d="M143.75,434.15c.08.29,1.06,1.67,1.47,3.43,5.47,23.59,5.03,50.3,4.17,74.4l-20.31-3.06c.58-8.94,1.75-17.88,3.25-26.69.09-.52,1.17-.5,1.25-.96.57-3.17,2.75-14.7,2.68-16.99-.08-2.41-1.75-2.92-3.52-1.65-3.57,2.54-11.27,77.25-10.96,86.81-13.28.36-26.68-.47-39.43-4.32l-.97-.9c.01-14.6.61-29.82,3.01-44.32,1.57-9.49,5.04-22.56,8.27-31.82,7.65-21.93,24.02-41.88,46.85-48.78,1.63,4.87,2.92,9.89,4.24,14.85Z" fill="#fff"/>
  <path d="M385.47,154.35c4.09.65,5.72-3.53,9.61-5.06,13.43-5.27,23.31,6.76,22.54,19.59,5.04.67,7.76-3.19,12.9-3.87,11.22-1.49,12.64,2.14,17.88,10.9,2.66,4.46,4.97,9.09,6.7,14l-172.6-.63c-2.09-.2-6.7-.83-7.42-3.12-.35-10.07,11.05-9.27,18.17-9.51,1.23-11.48,14.41-21.38,25.93-19.44,4.07.69,12.91,8.25,14.49,7.13.96-.68,1.66-7.87,2.43-10.25,7.07-22,46.11-26.66,49.37.27Z" fill="#fff"/>
  <path d="M530.71,657.9v15.45c0,2.54,8.29,3.21,9.99,3.84,2.3.85,27.94,32.19,31.98,37.02,1.2,1.43,2.07,3.15,3.39,4.5.04.23-1.54.98-1.64.98h-160.42l-7.6-20c6.73-1.67,11.52-5.16,10.56-12.87l24.33,1.32v12.16c3.73,1.55,9.18,1.9,13.49,2.29,10.21.92,21.13,2.22,29.57-4.6l1.75-27.5,44.6-12.59Z" fill="#fff"/>
  <path d="M4.08,42.01l120.02.62c1.21,1.76-1.51,12.26-2.4,14.63-7.76,20.56-31.36,34.23-52.83,35.4-14.11.77-41.67.93-55.26-.69-3.41-.41-6.12-2.58-9.53-2.63v-47.33Z" fill="#fff"/>
  <path d="M590.54,89.01c-3.91,2.38-8.93,3.3-13.45,3.65-15.01,1.15-53.8,1.13-67.1-3.31-19.73-6.58-39.41-25.27-38.07-47.35l118.62,1v46.01Z" fill="#fff"/>
  <path d="M225.36,311.89c-.08.19-.93.26-1.01.75-.85,2.97,1.17,2.59,1.69,4.03,1.53,4.21,1.96,6.22.25,10.61-4.28-2.49-3.71-9.44-7.23-13.47-3.06-3.51-7.74-2.22-10.15-6.28-.86-1.44.38-4.31-2.66-3.95-2.72.34-1.07,5.71-4.53,7.34-4.62,2.18-11.43.67-15.12-2.67-1.86.29-2.81,8.55-11.26,8.56-5.19,0-4.47-2.58-6.91-3.66-3.87-1.71-4.13,4.5-6.29,6.85-3.69,4.02-10.03,3.4-14.11.31-3.76,5.04-5.6,7.98-12.85,8.25.79,10.36,3.91,22.9-3.36,31.6-10.77-4.79-23.57.46-24.44,12.89-1.01,14.45,15.73,24.71,28.86,18.95,3.46,6.18,9.67,8.87,14.28,13.3.4.38,1.27,0,.83,1.5-6.94,5.6-13.54-3.01-16.13-3.29s-4.9,3.81-10.02,2.88c-8.05-1.46-5.66-6.31-8.32-8.83-1.9-1.79-7.14-1.68-9.87-5.9-3.36-5.19-.32-8.82-1.12-11.97-.61-2.41-4.65-3.77-4.79-10.66-.07-3.67,2.21-7.46,2.2-9.22-.02-3.49-3.29-7.92-2.56-15.11.53-5.23,4.12-8.45,4.43-9.94.43-2.14-1.44-6.18-.16-11.43,2.7-11.14,10.1-13.51,18.03-18.78,2.03-1.35,4.52-6.06,8.1-8.33,5.75-3.65,10.71-2.45,14.31-4.1.77-.35,3.84-4.99,6.61-6.54,8.55-4.78,13.61-1.5,21.08-2.71,1.53-.25,3.82-2.33,5.65-2.77,3.92-.94,12.33-1.15,16.21-.08,3.61,1,4.99,4.03,6.1,4.42,3.27,1.15,8.96-.57,13.83,1.94s3.64,5.86,5.79,8.67,6.14,1.94,7.27,7.2c.91,4.25-1.09,6.17-2.64,9.63Z" fill="#fff"/>
  <path d="M312.43,423.91c-1.95,6.23-3.55,12.65-5.83,18.78-5.18,13.94-15.08,35.86-30.62,40.41-11.69,3.42-24.76-1.15-35.22-6.32l-2.61-22.18-3.32-.84,3.79,53.33-9.03,2.27c-.19-10.8,0-21.78-.64-32.56-1.26-21.18-4.51-40.08-11.2-60.11,15.52,4.16,29.16,13.41,41.47,23.43l-2.59,5.28c.81,3.31,3.65,2.04,5.05-.23l18.21-34.4c10.12,5.92,20.86,11.22,32.53,13.16Z" fill="#fff"/>
  <path d="M83.64,763.07c-2.88,4.69-5.08,9.9-7.88,14.62-.36.61-1.45.85-1.87,1.56-11.56,19.39-23.07,38.76-34.95,58.09H4.08v-74.27h79.55Z" fill="#fff"/>
  <path d="M4.08,582.97c20.44,2.81,41.47,3.53,62.15,2.65,4.76-.2,12.84-2.56,17.08-2.05,2.83.34,4.83,3.87,6.87,4.4,1.41.37,2.52-.52,3.5-.29,1.54.37,4.12,4.07,7.7,2.51l-2.63,27.13c-28.63,14.71-63.86,10.01-94.67,5.74v-40.1Z" fill="#fff"/>
  <path d="M126.04,233.29c-.62-.46-.84-.69-.86-1.49-.09-2.74,5.65-23.64,7.19-26.22,2.87-4.82,13.54-4.64,18.13-2.65,1.99.86,3.35,3.68,6.35,2.69,2.74-8.46,5.36-16.08,14.88-18.67,10.79-2.93,20.18,1.15,23.69,11.82.58,1.77,1.42,8.63,2.3,8.89,5.37-3.18,9.79-5.43,16.25-3.11,6.84,2.45,6.53,9.62,8.08,14.94,6.28-4.11,23.33-2.44,24.52,6.42.57,4.2-5.22,7.39-8.76,7.39h-111.77Z" fill="#fff"/>
  <path d="M540.54,467.3c3.07,11.75,10.18,35.33-2.51,43.13-12.16,7.47-32.67,5.08-45.75,7.51-3.06.57-3.1,3.45-6.91,4.26-3.1.66-6.9-.3-9.43.44-4.09,1.2-9.07,15.31-13.41,15.54-4.96.26-2.19-11.17-.75-13.92s6.1-5.41,3.48-7.68c-4.89,1.35-6.93,7.09-8.28,11.3-.17.53-1.11.57-1.21,1.01-.75,3.43,1.84,10.26-4.63,9.07-7.47-7.37.4-17.03,3.97-24.31-5.56-2.53-8.75,9.07-9.83,13.16-.68,2.59.94,4.71-2.45,6.76-8.32-1.35-2.31-14.48.84-18.91,13.34-18.76,41.48-20,61.64-26.43,1.74-.95,1.09-1.86-.22-2.85l-5.29.95-.29-8.62c14.66-.78,27.41-5.66,41.01-10.42Z" fill="#fff"/>
  <polygon points="474.83 568.51 470.88 699.96 443.93 697.99 449.21 566.57 474.83 568.51" fill="#fff"/>
  <polygon points="4.08 663.82 72.46 663.17 4.08 745.98 4.08 663.82" fill="#fff"/>
  <path d="M226.26,535.69l9.15,126.72c-30.08,6.15-61.44,5.38-91.96,2.73l9.21-127.52c2.52.38,7.33-1.44,7.29,2.3-1.72,26.05-2.08,52.18-3.29,78.26-.05,1.16-1.36.73-1.42,1.89-.56,11.86-.04,23.99-.28,35.87.73,1.28,7.9,1.87,9.84,1.99,7.32.47,58.77-.12,61.57-3.71.81-9.85.08-20.14-.75-30.02-.04-.47-1.25-.28-1.34-1.41-2.31-28.6-4-57.39-4.59-86.06l6.57-1.02Z" fill="#fff"/>
  <path d="M4.08,626.35c30.58,5.27,64.07,8.25,93.36-3.94l-3.28,36.81H4.08v-32.86Z" fill="#fff"/>
  <path d="M366.91,467.38l-2.52,41.67c-11.71,2.7-23.71,3.71-35.75,3.7-4.08,5.89-6.82,13.85-14.61,15.66-5.31-3.17-.34-10.23.41-14.69-.66-2.7-8.17,2.9-9.18,3.91-3.14,3.13-5.29,11.77-9.6,11.5-5.71-.35-3.74-9.5-1.83-13.04.6-1.12,6.32-5.89,4.79-7.4-9.53,1.21-9.65,12.08-10.48,19.42-7.23-.19-4.42-9.87-2.52-14.35.78-1.84,6.86-9.01,2.81-9.04-3.37-.02-10.84,15.36-8.88,19.08-6.05-.53-2.48-10.09-.76-13.58,8.76-17.84,47.84-22.06,64.7-30.44l6.48-17.69,16.94,5.27Z" fill="#fff"/>
  <path d="M548.05,392.12c5.41,12.74,6.62,27.08,7.02,41.28.71,25.1-2.04,51.05-2.62,76.18l-8.59,1.07,5.21-9.7c.06-2.39.77-4.66.77-7.06-.01-8.27-5.83-20.5-5.94-27.7-.05-2.91,1.82-2.99,1.91-4.46.06-.91-2.44-9.78-2.93-11.53-4.66-16.58-14.17-35.07-28.58-45.03,12.14-9.98,11.41-26.14,9.85-40.42,12.16,4.24,19.08,16,23.91,27.37Z" fill="#fff"/>
  <path d="M87.35,116.72c-1.98,1.97-6.75,3.55-9.53,3.79-20.52,1.77-44.55-1.86-65.48-.32-1.5-.25-7.38-3.37-7.94-4.56-.52-1.11-.63-11.98-.31-13.46.55-2.53,7.57-5.93,10.16-6.27,10.23-1.35,55.22-1.49,64.94.17s15.43,13.4,8.15,20.65Z" fill="#fff"/>
  <path d="M516.09,96.08c8.87-1.33,59.77-1.47,67.65.38,2.04.48,6.04,2.39,6.66,4.51.38,1.32.41,13.62.01,14.85-.33,1.05-3,2.75-4.03,3.2-5.07,2.17-60.43,1.98-69.17,1.23-17.27-1.48-15.79-21.97-1.11-24.18Z" fill="#fff"/>
  <path d="M590.54,626.35v93.34l-8.2-.02-35.2-41.71c8.8.04,17.71-5.04,26.15-7.72l2.21-41.84,15.04-2.05Z" fill="#fff"/>
  <path d="M306.23,552.45c-8.82,16.31-9.82,59.7-8.29,78.85.82,10.22,5.33,7.86,13.56,10.79-.68,3.1.57,12.25-1.48,13.73l-20.6,7.99,1.31-110.09c-.52-2.38-6.66-3.37-8.88-4.93-6.81-4.77-10.6-24.1-1.38-21.68.32.08,2.64,3.7,4.99,4.3s3.54-.52,5.43-.26,3.66,2.64,5.92,2.4c4.98-.53,6.74-9.35,11.66-11.06-2.09,4.97,3.41,8.43,3.93,10.86,2,9.31-2.41,12.13-6.18,19.09Z" fill="#fff"/>
  <path d="M514.12,309.03l4.75,31.39-9.19-1.98c.62-6.71-5.27-13.17-11.68-14.29-2.46-.43-5.49.31-7.59-.3-.81-.24-7.24-5.91-9.32-7.12-28.87-16.69-69.53-15.61-101.6-11.16l2.04-10.45c29.13-5.28,65.4-5.32,93.28,5.54,2.86,1.12,11.02,6.29,12.42,6.52,3.97.67,11.97-.68,16.83-.28,1.5.12,9.46,1.45,10.05,2.11Z" fill="#fff"/>
  <path d="M443.27,612.54l-1.32,72.31-24.6-1.89-2.34-33.58c4.03-1.42,12.52-.66,15.11-4.29,2.52-3.53,1.37-17.44,1.91-22.4.13-1.16,1.27-.93,1.34-1.41.34-2.44-.3-5.17.12-7.65.81-2.12,7.68-.66,9.77-1.08Z" fill="#fff"/>
  <path d="M187.52,538.27l1.32,115.69-12.11.08.93-114.12c.76-3.11,7.19-1.09,9.86-1.65Z" fill="#fff"/>
  <polygon points="200 537.62 205.93 653.3 193.43 653.96 192.11 538.27 200 537.62" fill="#fff"/>
  <path d="M368.31,501.46c24.68,6.58,50.26,5.85,75.61,6.25-2.85,5.39-7.35,9.82-8.28,16.14-22.48-.08-45.6-.46-67.33-6.28v-16.1Z" fill="#fff"/>
  <path d="M399.88,691.43c-2.38-9.97-10.8-18.64-19.14-24.59-1.28-.91-6.65-3.33-6.86-3.66-1.56-2.4,1.11-10.1.35-13.17l37.47-.65,1.21,37.03-13.03,5.04Z" fill="#fff"/>
  <path d="M155.3,678.28v13.15c-4.31,1.7-10.36,5.15-13.82,8.2-5.14,4.52-8.29,11.03-12.76,16.1-2.98-1.16-11.84-3.96-12.73-7.03-1.43-4.94,4.47-16.79,4.47-21.54v-10.19c0-.06.91.14,1.12-.22.36-.63.12-1.63.22-1.74,1.12-1.25,29.06,4.64,33.51,3.27Z" fill="#fff"/>
  <path d="M119.05,553.48c.58.37,1.09,4.85,1.47,5.96.17.51,1.04.49,1.2,1.02.93,3.11,5.01,20.51-1.9,17.58-4.79-2.03-2.66-11.41-7.96-9.91-1.43,1.03,1.74,16.81-1.23,19.8l-3.33-.03c-2.65-1.49-4.58-17.28-4.6-20.71l-2.52.11c-1.96,1.25,1.26,16.06,1.84,18.91-9.76,4.97-9.16-18.49-10.83-19.01l-2.18,1.09,2.51,15.33c-6.48-1.28-8.41-12.28-8.58-18.04-.15-5.04,1.19-10.62,2.76-15.38l33.34,3.28Z" fill="#fff"/>
  <path d="M300.53,404.77c1.82-1.13,1.89-9.98-1.24-11.43,3.84-3.73,3.72-.3,4.96.26,3.82,1.72,5.51.45,7.77.89,1.56.31,4.64,5.11,8.94,2.47,1.86,1.9-9.7,20.36-11.81,22.7-2.11,1.07-24.71-9.66-27.32-12.18-4.39-4.23-5.24-18.22-3.27-23.68,2.73-7.57,10.53-4.68,16.51-7.22l2.26.95c3.79,5.79-5.65,5.75-7.89,7.29-4.49,3.08,5.5,7.67,7.1,9.93,2.11,2.98,1.68,5.66.84,9.05.35,1.1,2.4,1.42,3.14.96Z" fill="#fff"/>
  <path d="M494.55,276c-12.83,1.12-20.19,10.61-29.25,18.17l-27.29-5.03c3.76-7.17,10.43-14.78,17.18-19.3,1.76-1.18,10.56-5.84,12.23-6.17,7.11-1.42,21.4,7.92,27.13,12.33Z" fill="#fff"/>
  <path d="M474.17,390.37c4.07-5.94,7.32-12.36,10.97-18.29,2.89-.69,32.95,6.39,35.31,8.5,4.25,3.79-4.56,20.27-9.89,22.24-10.49-7.69-23.75-10.28-36.4-12.45Z" fill="#fff"/>
  <path d="M223.02,677.62l.58,11.39c-10.02,6.03-18.49,13.44-18.99,26.08-.62.6-10.22-1.41-11.17-2.3-.48-.45-4.29-8.03-5.21-9.26,1.32-6.03.67-13.87,1.87-19.7.23-1.09,2.36-1.64,1.36-4.24l31.57-1.97Z" fill="#fff"/>
  <polygon points="286.79 604 286.79 627.67 253.93 628.31 251.29 604 286.79 604" fill="#fff"/>
  <path d="M347.94,647.38l1.87,23.2-14.36,10.99c-2.3-10.73-11.25-20.31-20.9-25.11l.52-13.66,32.87,4.59Z" fill="#fff"/>
  <path d="M238.79,511.32l-.38,6.66c-35.97,8.21-73.67,8.03-110.09,2.9l.03-7.59c36.53,5.42,74.24,5.51,110.45-1.97Z" fill="#fff"/>
  <path d="M408.42,287.84l.53-14c-13.46-14.11-5.27-25.75,12.98-24.15,4.23.37,6.07,1.03,8.85,4.29,4.2,4.92,3.04,9.12-.69,13.8-1.45,1.82-4.53,3.7-5.45,5.13-2.15,3.35-3.19,11.23-3.73,14.93h-12.49Z" fill="#fff"/>
  <path d="M238.79,521.84l.65,6.55c-36.17,8.92-75.77,8.36-112.45,2.27l.05-6.18c37,5.35,75.19,5.52,111.76-2.63Z" fill="#fff"/>
  <path d="M201.18,412.85c.26.07,4.21,2.99,4.37,3.2,2.82,3.58,1.13,6.15-1.94,8.5-11.53,8.82-39.11,8.19-48.1-4.15-5.05-6.93,4.05-4.25,2.42-10.96,6.51,2.83,14.23,4.91,21.38,5.24,4.21.2,20.66-2.18,21.87-1.84Z" fill="#fff"/>
  <path d="M507.69,406.14l-20.7,12.45c-10.58-4.54-21.62-8.71-33.2-9.81l18.74-15.11c5.76,1.28,11.73,1.98,17.42,3.61,1.9.55,19.38,6.14,17.74,8.87Z" fill="#fff"/>
  <path d="M150,416.71c2.61,6.63,3.73,13.58,5.36,20.48.12.51,1.09.51,1.2,1.01,5.41,24.3,4.56,49.66,4.66,74.44h-7.9c.44-31.59,1.17-64.53-10.53-94.3l7.2-1.63Z" fill="#fff"/>
  <path d="M443.91,426.53c-.2,3.94-.33,6.31,1.84,9.56-12.11,5.38-28.44,6.29-40.96,1.62-12.39-4.62-24.82-17.37-21.35-31.56,7.06,1.35,6.61,5.88,9.32,10.06,10.77,16.63,34.28,18.21,51.15,10.31Z" fill="#fff"/>
  <path d="M499,279.45c.5.24,5.93,7.67,6.62,8.81,1.25,2.06,7.32,14.47,6.01,16l-22.64-.69-18.1-8.84c3.74-5.65,21.71-18.36,28.11-15.29Z" fill="#fff"/>
  <path d="M452.55,412.15c3.54-1.15,31.51,7.8,31.46,9.45-7.28,4.12-20.22,20.23-28.95,18.47-12.32-2.48-5.16-20.49-2.51-27.92Z" fill="#fff"/>
  <path d="M521.5,376.57l-35.44-7.95,1.37-5.07c12.05-.12,22.93-9.13,22.24-21.81l9.77,3.05,2.06,31.78Z" fill="#fff"/>
  <path d="M590.54,623.06l-15.12,1.32c.32-13.36,1.17-26.76,1.97-40.1l13.15-1.31v40.1Z" fill="#fff"/>
  <path d="M197.37,443.62c3.24,22.85,2.66,45.97,2.64,69.02l-6.9.69-3.63-68.4,7.88-1.32Z" fill="#fff"/>
  <path d="M380.21,695.3c-1.85-8.21-11.83-15.94-19.34-19.11-2.56-1.08-5.38-1.21-7.67-2.5,4.65-1.48,11.32-7.77,16.17-7.87,8.32-.16,25.33,17.58,27.2,25.94l-16.36,3.54Z" fill="#fff"/>
  <path d="M186.2,445.59l.66,67.71h-8.55c.28-3.51-.35-7.44-.05-10.89.11-1.19,1.31-.7,1.42-1.89.22-2.39.21-6.89,0-9.29-.13-1.49-1.43-.64-1.38-1.27.05-.59,1.24-.07,1.33-.76.31-2.15.29-8.24.05-10.46-.16-1.45-1.23-.79-1.37-.95-.73-.84,1.86-.2,1.31-1.63l-1.32-1.65c2.98-.21.06-.33-.07-1.6-.88-8.51.75-18.56-.6-27.33h8.55Z" fill="#fff"/>
  <path d="M318.73,662.77c3.25,2.22,17.16,19.45,12.8,22.45l-17.79,2.26c-.76-10.59-10.26-18.13-19.72-21.05,4.41-1.73,12.43-6.85,16.93-7.1,1.49-.08,6.43,2.51,7.78,3.43Z" fill="#fff"/>
  <path d="M212.9,415.64c1.66.96,4.38,11.02,5.07,13.64,5.14,19.44,6.8,41.93,7.72,61.3.3,6.31-.36,12.72,0,19.04l-7.27,1.04c1.78-31.84.08-64.46-9.2-94.99l.94-.94c.98.16,1.88.41,2.75.9Z" fill="#fff"/>
  <path d="M244.05,697.99c-9.09,2.57-15.85,10.5-17.82,19.65-2.77.26-17.46.25-18.28-2.31.39-9.09,7.12-18.27,15.26-22.06,5.64-2.63,15.77,1.57,20.84,4.72Z" fill="#fff"/>
  <path d="M395.27,412.73c17.82,5.64,36.84,5.51,53.9-2.63-2.2,7.64-1.34,11.59-9.33,14.65-15.04,5.76-36.91,3.81-44.57-12.02Z" fill="#fff"/>
  <path d="M463.65,260.9c-8.72,4.73-17.91,10.39-23.95,18.44-1.11,1.48-4.53,8.58-4.95,8.85-1.91,1.23-7.53-.28-9.89-.36-.47-.53,2.11-11.13,2.89-12.56,2.38-4.33,11.72-7.73,9.6-16.37l26.3,1.98Z" fill="#fff"/>
  <path d="M173.7,699.32c-2.31,1.45-5.63,1.53-8.15,2.69-6.68,3.06-13.75,10.35-15.63,17.56-1.43.82-16.02-1.67-16.32-2.86,2.05-8.51,19.48-24.59,27.77-23.18,3.16.54,8.82,4.97,12.32,5.79Z" fill="#fff"/>
  <path d="M375.16,692.46c.54.84,2.3,1.43,1.69,3.56h-20.38c-.88-3.45,4.88-6.55,5.17-7.66,1.56-6.11-9.88,3.49-8.5,6.98l-6.48-1.35c-.33-4.14,3.22-7.39,6.5-9.16l-1.68-2.64c-4.45,1.76-7.81,5.62-8.17,10.54-14.04-3.22,1.01-15.63,7.45-15.72,8.43-.13,19.94,8.54,24.39,15.45Z" fill="#fff"/>
  <path d="M186.86,679.59l-1.98,22.35-25.66-12.93c.22-1.66-.63-9.59,1.13-10.1l26.51.68Z" fill="#fff"/>
  <path d="M208.55,425.87c1.88,6.89,1.66,8.15-4.67,11.43-9.98,5.18-24.68,5.52-35.42,2.69-9.01-2.37-9.87-3.81-11.19-13.13,15,10.13,36.48,9.3,51.28-.99Z" fill="#fff"/>
  <path d="M315.73,539.59c.35-1.74-.57-6.62.11-7.78.11-.18,2.87-1.11,3.77-1.82,4.75-3.74,7.93-8.07,11.23-13.09l34.19-4.26c-.23,1.53.67,5.23-.63,6.27-.58.47-12.18,2.4-14.63,3.12-12.4,3.69-23.87,9.63-34.04,17.56Z" fill="#fff"/>
  <path d="M184.89,717.71c1.61-4.37-12.24-14.18-9.79-7,.57,1.66,5.98,2.89,5.89,6.68l-.71,1.98-6.47.86c-1.28-3.56-4.28-8.44-8.65-7.77-.89,4.58,5.49,4.11,4.59,8.54l-16.43-.66c2.05-9.18,16.56-19.44,25.82-17.59,5.37,1.07,14.89,12.05,5.75,14.96Z" fill="#fff"/>
  <path d="M298.34,671.99c6.08,3.18,10.68,9.06,12.77,15.48l-21.69-1.32c-.51-3.55,8.7-7.61,5.93-9.55-4.82-1.14-7.75,4.78-9.2,8.62l-3.58-.3c-3.26-3.57,9.52-10.41,5.13-11.88-3.19-1.07-10.07,6.71-8.81,10.49-4.63-3.54,3.09-11.99,6.75-13.3,3.97-1.43,9.15-.1,12.7,1.76Z" fill="#fff"/>
  <path d="M404.32,273.52c1.11,2.31-.52,11.78.15,14.98l-21.7,2.62c-.08-4.07,14.3-23.26,16.78-22.95.33,1.74,4.61,5.03,4.77,5.35Z" fill="#fff"/>
  <path d="M259.48,709.54c.33.73,2.95,4.24-.3,4.24-.8-4.36-3.33-10.26-8.55-9.86-.03,4.47,5.55,5.89,5.26,11.16l-5.26.67c2.19-3.54-6.55-11.14-8.54-9.2-.48,3.99,5.48,5.17,4.97,9.89l-17.46,1.94c-.18-7.34,13.08-19.63,19.72-18.12,3.78.86,8.56,5.74,10.16,9.29Z" fill="#fff"/>
  <path d="M413.01,690.77c2.25,2.73-9.91,6.31-11.31,6.76-13.68,4.35-29.25,5.81-43.6,5.1-3.86-.19-23.57-1.49-24-6.3,1.06-5.29,3.23-1.47,5.95-.63,24.4,7.6,49.44,3.88,72.97-4.93Z" fill="#fff"/>
  <path d="M119.14,408.13c3,1.25,6.23,2.24,9.56,2.02,2.8-.19,6.2-2.68,6.55-2.66s2.34,3.21,5.41,3.78l12.65-.18-34.17,12.49v-15.45Z" fill="#fff"/>
  <path d="M172.39,636.21v17.42c-3.21,1.71-8.7-.35-12.73.23-2.58-1-.27-14.8-.42-17.66h13.15Z" fill="#fff"/>
  <path d="M222.36,635.55l.35,15.79c-1.97,1.18-12.51,3.16-13.4.87-.98-2.5,0-13.2-.75-16.67h13.81Z" fill="#fff"/>
  <path d="M546.48,674.33l-12.2-2.59c-.19-2.5-.99-13.7.36-14.84l12.5-3.6-.65,21.03Z" fill="#fff"/>
  <polygon points="173.05 619.12 159.9 619.12 161.54 601.37 172.06 601.37 173.05 602.36 173.05 619.12" fill="#fff"/>
  <path d="M219.73,601.37c-.24,5.32,2.44,12.28.33,17.09h-12.16l-.66-17.09h12.49Z" fill="#fff"/>
  <path d="M190.14,719.03c.06,4.33-3.77,5.4-7.19,6.28-14.83,3.8-47.97,1.49-62.02-5.11-2.61-1.22-6.3-3.06-5.73-6.43,17.3,9.23,41.93,12.52,61.36,9.76,5.05-.72,9.28-1.64,13.57-4.5Z" fill="#fff"/>
  <polygon points="174.36 556.02 162.53 556.02 163.19 538.27 174.04 538.27 175.04 539.91 174.36 556.02" fill="#fff"/>
  <path d="M205.26,555.36l-.7-17.34,11.22-1.07c-1.07,5.99,2.16,13.05-.33,18.41h-10.19Z" fill="#fff"/>
  <path d="M295.1,371.09c-1.28,2.48-6.23,3.98-8.97,3.51,1.6-4.43,2.24-23.05,5.54-25.02,8.71-5.19,5.36,17.8,3.43,21.51Z" fill="#fff"/>
  <path d="M261.81,717.07c-1.14,3.42-5.39,4.21-8.53,4.94-18.52,4.33-39.48,1.75-58.03-1.01l-1.83-4.26c22.25,5.45,46.19,7.31,68.39.33Z" fill="#fff"/>
  <path d="M334.13,688.14l-1.1,3.31c-10.39,1.64-20.88,3.01-31.47,2.63-6.41-.23-26.05-.87-26.6-8.57,18.55,7.96,39.72,5.67,59.17,2.63Z" fill="#fff"/>
  <path d="M203.95,496.86l11.83-.65-.64,14.65c-.13.45-1.44,1.12-1.66,1.12h-9.53v-15.12Z" fill="#fff"/>
  <path d="M173.71,571.8v12.82l-.99.99h-10.52l-.99-.99v-11.17c0-.23.85-1.01.66-1.64h11.83Z" fill="#fff"/>
  <polygon points="205.92 571.14 217.75 570.48 218.41 584.94 206.91 584.94 205.92 583.96 205.92 571.14" fill="#fff"/>
  <path d="M443.92,590.2v19.06h-9.86c-.49-7.22.31-18.74,9.86-19.06Z" fill="#fff"/>
  <path d="M215.13,481.09l-11.18.66c1-2.6-1.9-12.79.43-13.7,1.62-.63,9.28-1.42,10.75.23v12.82Z" fill="#fff"/>
  <polygon points="173.55 445.09 174.32 454.1 162.54 455.44 160.57 440.99 173.55 445.09" fill="#fff"/>
  <polygon points="159.24 632.93 159.91 621.74 172.76 623.02 172.4 632.61 159.24 632.93" fill="#fff"/>
  <path d="M175.02,499.49v12.82c-2.61,1.92-7.11-.03-10.52.99v-13.8h10.52Z" fill="#fff"/>
  <path d="M221.04,621.75l.66,10.52c-4.43.51-8.66.07-13.12-.04l-.69-10.48h13.15Z" fill="#fff"/>
  <polygon points="175.02 470.57 175.02 483.72 164.5 483.72 163.84 471.23 175.02 470.57" fill="#fff"/>
  <path d="M212.41,452.09l-9.77,1.39c.66-2.54-2.89-9.59-1.24-11.75.31-.4,7.94-2.7,8.8-4.68l2.21,15.04Z" fill="#fff"/>
  <path d="M361.08,648.7c2.81.59,6.24.28,8.9.65.91.13,1.11-.36.99,1l-.68,12.16-9.21,1.97v-15.78Z" fill="#fff"/>
  <path d="M306.28,372.2c3.29,6.25-4.17,20.22-12.26,16.2-.21-1.94,2.35-1.23,4.28-2.62,5.41-3.92,4.34-8.24-.19-12.25.47-5.74,5.83-5.77,8.17-1.33Z" fill="#fff"/>
  <polygon points="173.05 588.88 173.05 598.09 160.56 598.09 161.22 588.88 173.05 588.88" fill="#fff"/>
  <path d="M161.87,568.51v-9.2h10.85c1.62,2.07,1.58,7.27,0,9.2h-10.85Z" fill="#fff"/>
  <polygon points="218.41 588.88 219.07 597.43 206.58 597.43 206.58 588.88 218.41 588.88" fill="#fff"/>
  <path d="M217.1,558.65v9.2h-11.18l-.66-8.54c.65.19,1.39-.66,1.65-.66h10.19Z" fill="#fff"/>
  <path d="M305.2,389.71l3.6-5.91c1.38-2.41,1.19-11.3,5.58-9.54,5.15,2.06-.76,22.38-9.18,15.46Z" fill="#fff"/>
  <path d="M357.06,648.12l1.39,17.33-4.6,3.62c.37-7.55-1.81-13.88-2.63-21.03l5.84.08Z" fill="#fff"/>
  <path d="M175.02,467.28h-11.18l-.66-7.88,10.88-1.14c1.83.48.62,7.33.96,9.02Z" fill="#fff"/>
  <path d="M483.57,327.49c-1,1.01-1.72,3.22-3.32,3.64-4.82,1.26-6.99-9.76-6.09-13.05.47-.56,11.84,5.57,12.47,7.56-.66,1.11-2.35,1.12-3.07,1.85Z" fill="#fff"/>
  <path d="M215.13,484.37v8.55c-2.32-.82-9.63,1.82-10.89.04l.33-7.64,10.56-.95Z" fill="#fff"/>
  <polygon points="175.02 487 175.02 496.21 164.5 496.21 164.5 487.66 175.02 487" fill="#fff"/>
  <path d="M213.14,456.13c-.2,2.78,2.46,3.68,1.23,7.12l-11.07,1.42-.04-7.6,9.89-.93Z" fill="#fff"/>
  <path d="M368.32,412.73c-1.68-3.62,6.34-13.86,9.2-12.85,1.11.39,5.23,4.67,2.91,6.23l-12.12,6.62Z" fill="#fff"/>
  <path d="M317.29,387.34c.8-1.79,3.59-4.27,3.04-7.48,8.08.22,1.84,17.22-3.96,14.14-2.15-1.14.15-4.94.92-6.66Z" fill="#fff"/>
  <path d="M465.62,540.9v11.5c0,3.83,5.63,9.11,6.91,12.8-12.51-2.14-34.28,2.03-36.42-15.5-.29-2.36-.38-12.54,2.33-13.32,1.62,1.07,7,0,7.49.26,1.16.58,1.98,4.47,5.71,4.79,2.17.18,4.39-1.72,5.88-1.69,1.67.03,4.69,3.49,8.1,1.17Z" fill="#fff"/>
  <path d="M248.28,117.32c2.33,2.99,2,5.12,3.1,8.74,3.78.07,8.34-.24,11,3.19,1.18,3.99-4.98,5.33-5.7,7.9-.91,3.22,2.2,6.56.76,9.88-1.88,4.17-9.29-2.7-11.73-3.81-2.07,0-5.09,6.5-9.71,5.14-5.61-2.45.32-8.08-.57-11.23-.68-2.41-8.55-4.07-6.57-8.71s8.86-.67,10.52-1.7c1.99-4.26,2.63-17.47,8.92-9.4ZM257.2,130.09c-2.3.15-7.39-.22-9.17-1.67-2.16-1.77-1.04-5.99-3.31-7.53l-2.91,8.6-8.94.6,7.12,5.74-1.85,8.72,7.68-5.83,7.43,4.51c-2.58-7.81.2-7.38,3.95-13.14Z"/>
  <path d="M339.23,281.44c.78.5.43,2.93.14,3.09-2.8,1.52-51.41-22.88-58.76-24.36l-1.04-3.23,59.67,24.49Z"/>
  <path d="M364.13,246.01c1.67,1.95,4.7,4.46,3.51,6.97-.92.21-1.72-.02-2.57-.35-2.22-.84-29.69-30.58-32.59-34.47-1.13-1.52-2.66-2.59-1.58-4.55l3.6.56c8.81,11.52,20.27,20.88,29.63,31.83Z"/>
  <path d="M353.04,264.98c.41.73.09,1.69.16,2.48-1.42.23-2.39-.06-3.67-.6-10.37-4.39-25.36-21.28-36.75-26.36l-1.66-2.92,3.27-.68,38.64,28.08Z"/>
  <path d="M294.02,299.02v-3.29s37.03,5.38,37.03,5.38c3.07,2.86-.45,3.32-3.15,3.17-10.62-.59-22.9-5.34-33.88-5.25Z"/>
  <path d="M375.97,221.03l11.41,18.82-3.93.36c-.94-.49-6.13-10.5-7.23-12.34-1.4-2.33-9.74-11.21-.24-6.84Z"/>
  <path d="M172.73,255.64c1.99-.34,2.63,7.6,1.67,8.25-5.39,3.66-4.6-7.75-1.67-8.25Z"/>
  <path d="M223.49,266.25c2.88-.84,4.57,3.02,2.15,4.17-4.38,2.08-5.25-3.27-2.15-4.17Z"/>
  <path d="M267.72,325.97c.68,1.39,1.04,6.47-1.62,5.91-2.29-.49-2.03-6.92,1.62-5.91Z"/>
  <path d="M409.08,218.17c-1.19,1.16-6.3-.6-4.33-3.32,2.09-2.87,6.08,1.62,4.33,3.32Z"/>
  <path d="M186.01,148.57c2.57-.6,4.26,3.54.91,4.22-2.84.58-3.7-3.57-.91-4.22Z"/>
  <path d="M322.05,324.04c3.02-.44,2.58,5.53-.72,4.55-1.86-.56-.93-4.31.72-4.55Z"/>
  <path d="M260.49,300.34c.06,2.76-4.87,3.27-5.25.96s4.11-1.53,5.25-.96Z"/>
  <path d="M190.4,48.99c2.6,4.58,7.76,5.69,12.11,8.25,1.75,5.65-6.16,6.04-9.79,8.74-4.06,3.02-5.52,15.06-10,14.06-3.75-.84-5.88-12.74-7.38-14.36s-8.7-3.26-10.84-4.93c-3.08-6.27,6.54-5.88,9.58-8.84,2.65-2.58,5.5-16.47,10.79-14.18,2.69,1.16,4.09,8.7,5.54,11.25ZM198.03,59.75c-2.09-2.89-6.53-2.9-8.92-5.21-1.62-1.57-5.21-11.89-5.87-11.88-2.19,8.23-6.24,12.85-14.13,16.11,8.51,3.03,12.16,6.47,14.13,15.45,2.62-8.45,5.71-12.69,14.79-14.48Z"/>
  <path d="M461.47,94.79c4.53,5.8-8.31,7.33-11,9.97-3.16,3.09-3.26,13.11-8.87,12.83-4.36-.22-5.19-11.01-7.22-13.11s-11.29-3.19-11.49-7.63c-.24-5.23,9.37-5.41,11.88-7.78,2.34-2.22,2.65-12.32,7.52-12.17s5.39,9.78,8.27,12.73,9.1,2.85,10.92,5.17ZM442.6,81.45c-1.69-.3-1.02.23-1.37.92-3.87,7.55-2.85,11.61-13.74,13.55-.38,1.54.3,1.07.84,1.47,2.28,1.66,6.29,1.94,8.37,4.1,2.77,2.88,2.68,8.35,4.92,11.5.62,0,4.91-9.93,5.79-10.96,1.27-1.48,9.71-4.34,9.66-5.13-7.45-1.94-12.99-8.07-14.48-15.45Z"/>
  <path d="M132.51,116.07c-1.34-1.61-1.4-4.42-2.83-6.05-1.95-2.23-10.58-4.55-9.61-8.24.62-2.35,8.22-3.89,9.95-5.84,2.17-2.43.95-9.32,7.83-7.95,2.84.57,2.91,6.85,4.63,8.56,1.93,1.92,10.25,1.47,9.43,6.75-.64,4.15-7.71,5.21-9.41,7.09-1.88,2.08-3.39,13.63-10,5.68ZM148.06,102.49c-7.1-1.11-9.79-3.58-11.5-10.53-1.8,7.34-5.87,7.46-11.49,10.85,6.45,3.04,8.72,4.87,11.49,11.49,2.83-7.04,5.18-8.27,11.5-11.81Z"/>
  <path d="M374.44,71.39c-1.34-1.29-1.73-5.54-3.02-6.84-1.8-1.82-6.62-1.43-5.74-6.39.59-3.32,4.8-2.48,6.57-3.99s1.85-7.64,6.87-6.91c2.87.42,2.55,4.94,4.63,6.62s8.63,1.53,8.27,5.53c-.3,3.35-6.12,4.1-7.94,5.94s-2.57,7.82-6.16,7.58c-.82-.51-2.94-1.01-3.47-1.52ZM378.82,52.53l-1.36.4c-.71,3.73-4.23,5.95-7.83,6.18,3.95,2.25,7.09,4.43,7.89,9.19,3.06-3.7,3.35-7.11,8.52-8.87-3.04-1.72-6.58-2.83-7.23-6.9Z"/>
  <path d="M125.53,156.55c4.66,5.46-5.55,7.62-6.26,8.52-.4.51-.77,4.19-1.85,5.7-4.88,6.83-7.14-4.41-9.14-6.5-1.43-1.49-5.82-1.73-6.1-5.04-.34-4.03,5.09-3.49,6.29-4.31,1.95-1.33,2.56-7.9,5.09-8.42,5.9-1.23,3.99,6.2,5.88,7.93,1.12,1.03,4.87.69,6.09,2.12ZM121.77,159.02c-4.92.26-5.6-2.69-7.88-5.92-.34,4.65-3.74,4.93-7.25,6.24,4.78,2,6.43,2.03,7.57,7.57.31.03,1.47-3.46,2.29-4.29,1.86-1.91,5.25-1.25,5.28-3.6Z"/>
  <path d="M363.31,557.58c-10.71,15.44-9.16,40.28-9.46,58.25l-3.5.02c-1.64-.48-1.22-13.73-1.13-16.15,1.17-31.38,9.43-55.51,42.61-64.54,1.66-.45,10.06-3.28,8.69.8-13.21,4.94-28.75,9.43-37.21,21.62Z"/>
  <path d="M397.05,325.51c3.54,2.79,3.13,10.96-1.73,12.66-11.74,4.11-8.92-21.04,1.73-12.66Z"/>
  <path d="M432.29,338.26c-6.29-10.42,15.74-17.96,10.69-1.09-1.44,4.8-8.23,5.15-10.69,1.09Z"/>
  <path d="M432.24,316.62c-.39-.64-.44-2.03.28-2.55,5.79-4.6,16.7-2.68,17.88,5.51-2.03,3.93-5.54-.41-8.35-1.28s-8.77.03-9.81-1.68Z"/>
  <path d="M400.95,365.46c.95-.32,10.83,2.66,13.71,2.62s10.7-3.82,10.23.27c-.55,4.71-19.65,2.83-22.99.61-.79-.52-1.41-1.22-2.02-1.93-.17-.69.49-1.37,1.07-1.57Z"/>
  <path d="M386.16,317.98c-1.34-7.26,15.7-8.59,16.16-3.53.34,3.72-5.49,1.53-7.35,1.63-3.7.18-5.59,3.71-8.81,1.91Z"/>
  <path d="M497.04,339.65c-3.84,1.79-4.6,6.36-5.87,9.88-10.49,2.09,5.22-20.81,5.87-9.88Z"/>
  <path d="M172.81,357.94c-7.88,7.82-15-9.94-6.98-13.22,7.18-2.93,11.43,8.8,6.98,13.22Z"/>
  <path d="M208.37,335.3c8.24-2.35,11.1,11.28,5.16,13.72-9.23,3.79-11.63-11.88-5.16-13.72Z"/>
  <path d="M202.42,354.44c-1.66-2.17-11.69-7.64-10.96-10.38.89-3.33,10.78,5.51,11.84,6.56,4.41,4.36,6.68,10.55,1.97,15.78-2.87,3.18-11.61,4.15-8.91.29,1.37-1.97,13.3-2.8,6.07-12.24Z"/>
  <path d="M161.7,329.41c3.31-.59,10.72-.79,8.12,4.18-2.72,1.58-5.35.57-8.41,2.11-1.57.79-10.35,12.11-9.38,2.49.38-3.78,6.15-8.15,9.66-8.77Z"/>
  <path d="M212.48,377.91c3.77,6.89-19,8.35-23.77,7.01-2.87-.81-7.23-2.89-3.48-5.12,6.36,1.96,12.16,2.97,18.72,1.04,1.55-.46,7.6-4.64,8.54-2.93Z"/>
  <path d="M214.31,324.14c3.01,5.76-5.49,2.49-7.39,2.44-2.46-.06-9.27,2.11-9.6-.96-.6-5.63,14.44-6.34,16.98-1.48Z"/>
  <path d="M127.21,379.02c-1.04-.96-1.84-5.35-3.47-6.12-7.92,4.07-7.13-4.71-1.06-4.2,4.45.37,6.89,6.31,7.6,10.14l-1.5.91c-.55-.18-1.13-.34-1.57-.74Z"/>
  <path d="M257.2,130.09c-3.75,5.76-6.53,5.33-3.95,13.14l-7.43-4.51-7.68,5.83,1.85-8.72-7.12-5.74,8.94-.6,2.91-8.6c2.27,1.54,1.15,5.76,3.31,7.53,1.78,1.46,6.87,1.83,9.17,1.67Z" fill="#fff"/>
  <path d="M198.03,59.75c-9.08,1.79-12.18,6.03-14.79,14.48-1.97-8.98-5.62-12.42-14.13-15.45,7.9-3.27,11.94-7.88,14.13-16.11.66,0,4.26,10.32,5.87,11.88,2.39,2.31,6.83,2.32,8.92,5.21Z" fill="#fff"/>
  <path d="M442.6,81.45c1.49,7.37,7.03,13.5,14.48,15.45.05.79-8.4,3.65-9.66,5.13-.88,1.03-5.17,10.95-5.79,10.96-2.24-3.15-2.14-8.62-4.92-11.5-2.08-2.16-6.09-2.44-8.37-4.1-.55-.4-1.22.08-.84-1.47,10.89-1.94,9.87-6,13.74-13.55.36-.69-.32-1.22,1.37-.92Z" fill="#fff"/>
  <path d="M148.06,102.49c-6.32,3.54-8.68,4.77-11.5,11.81-2.77-6.62-5.04-8.45-11.49-11.49,5.62-3.4,9.69-3.51,11.49-10.85,1.71,6.96,4.4,9.42,11.5,10.53Z" fill="#fff"/>
  <path d="M378.82,52.53c.65,4.07,4.19,5.18,7.23,6.9-5.17,1.76-5.47,5.17-8.52,8.87-.8-4.76-3.95-6.94-7.89-9.19,3.61-.23,7.12-2.45,7.83-6.18l1.36-.4Z" fill="#fff"/>
  <path d="M121.77,159.02c-.03,2.34-3.41,1.68-5.28,3.6-.81.83-1.98,4.33-2.29,4.29-1.14-5.53-2.79-5.57-7.57-7.57,3.5-1.31,6.9-1.6,7.25-6.24,2.29,3.23,2.96,6.18,7.88,5.92Z" fill="#fff"/>
</svg>