<?xml version="1.0" encoding="UTF-8"?>
<svg id="Camada_1" xmlns="http://www.w3.org/2000/svg" version="1.1" viewBox="0 0 595.28 841.89">
  <!-- Generator: Adobe Illustrator 29.0.0, SVG Export Plug-In . SVG Version: 2.1.0 Build 186)  -->
  <g>
    <path d="M.14,841.29V-.06h595v841.34H.14ZM191.46,3.89H4.08v22.35h167.98l19.4-22.35h0ZM189.49,321.36V111.36l-.99-.99h-25.97v-1.97h25.97c2.39,0,1.34-6.64,1.67-8.08,3.94-17.17,11.08-33.96,23.22-47.55,54.21-60.7,176.92-41.3,194.17,43.67,1.32,6.49-.28,6.62,3.39,12.39,11.28,17.74,17.01,48.79,22.5,69.55,2.69,10.17,4.63,20.61,7.31,30.79,1.28,2.33,6.18,1.71,8.42,1.78-.23-27.38,3.06-54.54,4.61-81.83l7.23-53.9c-11.86.17-13.9-11.11-11.84-20.71-12.04-1.76-24.82-11.51-23.67-24.98-6.91.56-10.23-8.67-14.47-13.47-3.47-3.92-8.6-7.66-11.64-12.18l-203.85.16c-5.98,6.42-11.63,13.11-17.5,19.63-.83.92-2.89,4.92-3.16,5.05-1.14.58-3.33-.47-4.54,1.06-.75.95-1.08,6.86-1.95,9.08-.3.77-5.06,7.25-5.88,8.07-3.69,3.69-11.22,7.28-16.43,7.58,3.6,9.15-.23,20.56-11.19,20.71l10.53,119.29c4.66-.09,26.07.63,27.95,4.6,2.3,4.85-5.68,8.98-7.4,13.63-6.57,17.71,9.62,19.6,16.55,31.12,11.07,18.4,2.24,38.75-4.17,56.34-2.55,6.98-4.86,14.06-7.91,20.85.31,1.91,16.46-.56,19.04.32h0ZM590.54,3.89h-186.72l20.05,22.35h166.67V3.89ZM192.77,321.36h49.97c.88-6.57,2.69-13.53,4.91-19.77.42-1.17,1.42-1.26,1.62-1.79,6.66-17.59,14.05-32.58,27.04-46.49.16-1.41-5.45-3.56-6.63-4.56-15.66-13.22-9.7-25.28-6.73-41.62s6.46-33.18,9.34-48.62c4.8-25.67,2.46-46.13,25.38-63.9,28.27-21.92,81.46-16.54,107.46,7.21-3.09-37.07-36.25-66.77-70.72-76.19-64.6-17.66-135,13.3-141.65,84.38l.02,211.35h0ZM4.08,28.87v18.73c3.66,2.6,7.66,3.9,12.14,4.29,40.42,3.53,85.94-2.67,126.89-.04,11.53-1.33,23.98-9.39,22.7-22.34-5.71.65-11.91-.59-17.43-.64-42.67-.45-85.39.29-128.21.68-2.52.02-15.3-1.49-16.1-.69h.01ZM590.54,28.87l-161.45.61c-1.78,12.43,12.02,21.3,23.07,22.37,38.41,3.72,82.62-2.77,121.64.04,6.23-.53,11.57-2.63,16.74-5.94v-17.09h0ZM590.54,260.24V49.24l-10.88,5.23c1.32,10.03.16,20.06-12.05,20.48l-.13.88c1.48,9.38,2.02,18.95,3.28,28.34.16,1.21,1.25.66,1.41,1.9,5.29,40.64,6.79,82.35,8.51,123.27,1.94-.69,5.47-1.26,5.69,1.7l-18.19,43.65,13.05-10.94,9.3-3.52h.01ZM4.08,51.87v270.15l8.56-.32c2.11-7.21,6.46-11.84,13.06-15.17-2.79-9.33-5.19-18.81-6.96-28.4-7.56-40.84-3.85-87.33-.17-128.63,2.19-24.61,5.24-49.22,8.49-73.7-.14-1.93-4.54-1.61-6.99-2.76-6.86-3.21-7.33-11.33-6.38-17.91l-9.6-3.25h-.01ZM453.23,55.26c-2.7,3.49-1.22,14.32,3,15.54,1.28.37,7.13.71,9.04.82,33,2.02,68.05-1.55,101.26-.04,9.63.85,13.23-10.51,7.83-16.92l-121.13.6h0ZM142.15,55.16H19.53c-5.33,0-2.44,12.26,1.66,14.77,1.63,1,4.4,1.37,6.32,1.57,33.75,3.61,73.4-2.54,107.77.13,8.19-.43,9.07-10.34,6.87-16.47ZM50.76,74.88h-20.38c-.65,2.23-.24,5.45-.68,7.42-4.22,18.9-6.18,41.32-7.86,61.28-3.83,45.48-8.3,108.34,3.6,152.16.52,1.91,3.16,11.05,4.68,11.15l13.4-.64c-2.81-10.11-11.24-17.74,3.98-22.13-4.5-69.65-1.52-139.71,3.26-209.24h0ZM79.03,74.88h-24.98c-.98,7.92-.56,16.11-1.26,24.03-4.41,49.39-6.28,102.15-4.68,152.48.3,9.45.7,21.66,1.99,30.89.13.91-.37,1.12.99.99l27.94-1.33s0-207.06,0-207.06ZM107.3,74.88h-24.98l-1.24,96.37,1.31,110.61c4.6.06,20.09,2.31,22.33,6.27,2.66,4.72-3.11,13.16-3.33,18.12h9.2c.03-4.97,2.12-12.04,1.91-16.7s-3.52-10.21-4.36-15.36c-.98-6.02-1.44-14.65.16-20.52.97-3.58,3.74-4.93,4.26-9.53,1.74-15.19.23-38.58.03-54.58-.31-24.06-2.12-48.98-3.36-72.24-.76-14.12-.34-28.37-1.92-42.44h-.01ZM130.97,74.88h-20.38l4.61,165.64c8.67-8.25,18.67-10.89,15.32-25.52-1.15-5.02-9.22-11.49-7.78-15.21,1.99-5.13,18.64-3.66,19.34-5.7-2.08-23.36-2.44-46.89-4.56-70.24-1.13-12.49-3.19-25.43-5.23-36.95-.63-3.56.23-8.29-1.34-12.02h.02ZM486,74.88h-22.35c-1.7,16.56-4.14,33.09-5.9,49.64-.57,5.32-1.61,11.78-2.04,16.38-2.14,22.93-2.86,46.04-3.89,69.06.04.81.29,1.26,1.08,1.55,3.69,1.38,13.03,1.12,17.87,2.51,3.14.91,5.86,3.18,8.99,4.16l6.25-143.3h0ZM514.27,74.88h-25.64c-4.2,47.75-4.57,95.75-6.61,143.66,1.67,3.8,4.78,6,6.26,10.17,1.68,4.74,1.1,8.18,1.66,12.69.08.66,1.32.37,1.32.44v87.75l.99.99h12.16c1.34-6.86,5.02-13.86,10.52-18.08.17-.73-8.43-6.78-6.44-13,1.1-3.43,6.95-.44,6.43-2.76l-17.67-26.87c.92-6.11,20.31,3.54,22.28,6.81.11-5.77-13.06-37.82-9.24-40.47l3.99-.29V74.88h-.01ZM541.23,74.88h-24.33v163.34c6.29,6.65,11.84,13.44,16.43,21.36-.26-6.91-7.6-46.19-4.67-49.57.64-.74,2.68-.7,3.44.04l13.73,25.86c2.14-10.97,6.64-24.76,13.81-33.66.68-.85,6.41-7.07,6.91-7.08,2.3-.02,1.11,7.15.9,8.77-1.58,12.17-5.57,25.62-7.76,37.06-.95,4.98-1.85,10.18-2.01,15.28,6.01-8.53,11.56-17.22,19.58-24.13.02-45.84-3.59-91.59-9.74-136.56-.95-6.92-2.24-13.82-3.27-20.72h-20.38c2.8,22.37,2.75,44.93,3.89,67.41.06,1.17,1.36.73,1.42,1.89,1.09,22.61,1.15,45.51.95,68.08l-1.97.65-6.91-138.04-.02.02ZM347.93,84.08l-19.92,1.3c-1.06.47-5.61,20.95-4.99,22.59.83,2.18,10.93.28,13.81,2.67,3.48,2.89-1.59,10.4.93,11.56,1.62.74,1.31-.09,1.71-.91,1.35-2.75.11-7.45.61-10.45.08-.47,1.17-.44,1.26-.94,1.65-9.19,2.91-17.06,6.6-25.81h0ZM376.2,89.35c-1.53-1.6-22.99-5.56-24.86-4.49-5.79,11.79-8.54,24.17-8.39,37.38l16.07,1.19c2.93-12.23,8.64-24.71,17.18-34.08ZM324.92,86.06c-6.86,1.42-13.66,3.47-19.54,7.41-2.59,9.73-2.86,20-1.46,30l7.71-.75c1.02-3.18.47-9.5,2.82-11.96,1.63-1.7,5.4-1.25,5.79-1.77.7-.94,1.9-19.97,4.67-22.93h0ZM399.21,101.18c-3.72-2.16-16.61-11.87-20.36-10.22-2.23.98-8.3,10.9-9.58,13.46-3.12,6.24-5.35,13.33-7.53,19.74l17.08,2.33c5.38-8.86,11.71-17.49,19.98-23.96l.41-1.36h0ZM301.91,95.92c-11.33,7.29-19.22,19.77-21.69,32.85l20.3-4.67c-.38-9.47-1.54-18.96,1.39-28.19h0ZM409.31,113.44c-2.35-3.46-4.51-6.92-7.79-9.63-3.38,1.56-21.14,22.14-19.39,24.3,5.13-.48,11.57,4.31,16.1,3.99,4.05-.29,12.21-6.34,17.44-5.96-.54-5.05-3.76-8.9-6.34-12.7h-.02ZM330.11,139.88c.21-4.33,6.1-23.06,5.26-25.77-.98-3.17-14.84-1.32-17.91-1.67-3.32,1.21-3.53,26.32,2.52,27.52,1.01.2,9.74.23,10.14-.08h-.01ZM397.9,150.47v-10.85c0-.81-.94-3.49-1.7-4.22-2.78-2.65-26-7.15-30.94-7.85-3.56-.51-27.88-2.92-29.09-1.99.2,2.66-4.5,13.19-1.62,14.29,21.58.4,42.95,3.86,63.35,10.61h0ZM311.67,126.24c-2.4-1.47-28.56,4.06-31.43,6.17-2.63,1.93-2.62,9.66-2.65,12.79,12.12-2.55,24.31-4.83,36.81-4.6,0,0-2.73-14.36-2.73-14.36ZM401.84,149.81h20.38l-5.36-20.28c-2.06-1.26-13.34,3.28-15.73,4.94l.71,15.33h0ZM375.14,165.34c-2.48-5.69-1.26-11.08-1.66-17.08-.76-2.08-24.72-4.85-28.47-5.06-18.97-1.06-39.06.25-57.75,3.3-2.46,1.62-2.78,30.87-2.46,35.21.65,8.94,3.36,25.44,12.5,29.23,3.1-6.38,9.89-9.18,16.45-10.52-5.09-7.21-1.13-14.62,2.49-21.52.54-1.02,1.6-1.21,2.08-2.02s5.9-13.33,6-5.72c.05,4.06-9.35,15.24-9.77,21.24-.73,10.49,11.46,5.63,17.26,5.38,7.53-.33,15.23,1.98,22.03,4.96,3.74,1.64,6.29,6,11.04,3.77,1.79-.84,3.36-7.15,4.87-9.59,1.01-1.63,3.95-3.5,4.35-4.85.52-1.73-.14-3.99.55-6.05,1.01-3.03,3.51-6.4,4.02-10.41.87-6.84-1.65-5.94-3.53-10.27h0ZM283.5,147.84l-6.65,1.05c-.22,2.71-3.72,15.81-1.94,17.06l5.96.29c.05-6.22.64-13.15,2.62-18.4h.01ZM377.52,148.49v9.53c0,3.03,2.24,8.41,5.07,10.11.99.23,7.6-4.97,10.03-5.53,10.04-2.32,17.15,3.41,20.82,12.09,4.14-.75,10.14,1.64,13.8,1.36.79-.06,1.07-.27,1.48-.92l-5.28-21.94c-2.57-2.63-22.69.96-27.18.59-2.74-.22-17.36-6.75-18.74-5.29h0ZM391.98,199.76c18.74,1.69,25.31-36.45,3.81-34.7-6.61.54-8.04,7.07-13.66,5.78.44,6.08-2.39,11.3-3.78,16.93-.45,1.82.19,3.92-.31,5.61-.44,1.49-3.48,2.88-4.74,4.46-2.92,3.66-2.85,9.72-7.15,11.91-6.28,3.2-8.46-1.58-13.48-3.88-13.06-5.99-36.93-6.69-48.74,2.15-4,2.99-4.57,8.72-10.9,4.88-5.1-3.09-7.11-11.4-9.52-16.43,1.24,2.8-1.22,4.65-1.37,5.54-2.03,12.03-.88,24.91,6.95,34.55,1.4,1.72,5.3,4.19,6.02,5.48,2.53,4.55,1.14,8.38,7.97,11.43,6.33,2.83,9.43-.62,12.18.14.62.17.89,1.65,1.82,2.29,8.05,5.49,15.23,7.36,24.2,1.92,2.06-1.25,5.34-5.27,5.82-5.4,3.74-1.04,10.28,3.69,18.29-.73,7.24-3.98,5.31-10.12,8.25-14.1,1.01-1.36,2.82-1.12,3.87-2.05,7.59-6.8,11.45-16.87,11.89-26.9.52-11.84-3.75-23.76,5.6-33.84l1.62.3c.95,2.96-4.61,9.39-4.61,13.14v11.5l-.03.02ZM280.22,191.22l.56-21.27-6.18-1.12-1.04.43c-2.02,7.23-3.99,14.13-4.52,21.96h11.18ZM429.38,178.81l-16.31-.69c-.08,7.94-2.48,14.07-7.94,19.66l30.9,4.6-6.65-23.58h0ZM278.25,216.2l1.91-21.29c-.29-1.64-10.31.27-12.43-.41l-3.94,22.35,14.47-.65h-.01ZM125.72,200.43l.3,1.98c5.01,3.81,43.18,3.33,44.4-.36.37-1.12-.12-1.68-1.13-2.15-2.41-1.11-13.15-2.04-16.26-2.14-8.94-.29-18.66.64-27.31,2.66h0ZM436.56,205.81c-11.37-1.15-32.68-8.11-43.1-2.97-2.63,1.3-1.01,13.38-2.14,16.65l49.31,7.23-4.07-20.91h0ZM560.72,223.88c1.4-6.82,2.48-13.74,4.15-20.51-.07-.9-.76-.92-1.63-.33-2.39,1.65-7.76,11.07-8.99,14.02-1.93,4.61-7.26,22.16-7.11,26.37.11,3.05,1.8,4.79,2.01,5.95,1.3,7.1,1.85,14.3,3.27,21.37l7.27-46.17c.1-.48,1.01-.55,1.04-.7h-.01ZM165.16,207.66l-35.5-.66c7.15,8.2,6.16,15.87,1.32,24.97h34.19c-4.49-7.66-5.07-16.77,0-24.31h-.01ZM409.08,375.26v142.63l26.95-15.79c-10.22-8.84-11.59-24.23-8.55-36.78-12.53-3.32-10.05-11.92-1.97-18.75,2.49-2.11,9.49-5.32,10.44-6.65,2.62-3.66,5-12.14,7.97-16.83.66-1.04,4.28-3.7,4.5-4.87.18-1-1.58-2.96-1.82-4.55-.77-5.23.81-8.97,5.4-11.6,2.86-1.63,6.14-1.27,7.55-1.99.24-.12,2.22-3.19,3.43-4.12,6.33-4.88,15.42-5.74,23.25-5.68l.99-.99c.35-18.59-.13-37.2.07-55.8.29-27.48,4.36-72.16-.05-97.84-3.81-22.17-27.83-20.11-45.29-22.09.63,6.78,11.28,5.21,16.59,6.74,13.2,3.81,15.54,13.42,16.31,25.76l-.8,100.49-64.98,28.7h.01ZM536.24,223.81c-1.48-2.66-3.12-5.42-4.23-8.27-1.13-.13-.72,2.27-.67,2.97,1.39,20.36,6,40.01,7.9,59.8.45,4.72-.19,14.88.67,18.39.68,2.76,7.38,1.83,9.57,1.03,1.2-24.2-1.29-52.45-13.25-73.93h0ZM282.45,233.03c-2.3-4.41-3.13-8.48-4.16-13.27-1.29-.93-13.83-.07-15.01,1.2-2.13,6.35-.11,13.03,2.56,18.82l18.32-3.21c.73-2.04-1.42-2.96-1.72-3.53h.01ZM467.19,229.75c-5.57-6.87-14.73-8.27-23.2-8.23,1.56,12.33-4.88,21.68-15.85,26.57,3.3,4.97,7.57,8.21,11.06,13.25,12.47,18.01,25.68,58.32,18.08,79.6-.4,1.11-2.04.3-1.52,2.11l15.78.66c-1.53-31.71,2.61-64.77.68-96.32-.43-7.07-.62-12.2-5.02-17.65h0ZM424.45,245.52c.52.27.94.95,1.73.55,5.73-3.87,12.71-7.36,13.75-15.01-1.04-3.13-43.12-8.84-48.94-8.31-2.28.34-1.78,3.47-2.8,5.1-.76,1.23-6.14,5.66-3.12,6.72,13.1,4.61,25.71,3.79,39.37,10.93v.02ZM571.86,259.32c3.58-8.84,7.47-17.61,10.47-26.68-18.4,13.64-29.49,35.79-29.91,58.82-.06,3.57-1.12,8.94,4.26,6.23,5.12-12.37,9.18-25.16,14.2-37.58.2-.5.93-.64.98-.79h0ZM178.57,244.21c-1.87-2.44-7.66-9.02-10.49-9.57-3.8-.74-9.65,1.19-13.74,1.31-9.06.26-17.86-.8-26.85-1.21-8.26,4.31-14.27,12.53-15.63,21.77,8.15,6.81,69.01,4.83,72.34-.26-.44-4.97-2.75-8.29-5.63-12.04h0ZM387.14,249.48c2.74-3.05,5.55-6.08,8.11-9.29-.09-1-15.6-5.22-18.24-1.48-.52.73-.25,2.76-.87,3.92-3.88,7.17-7.85,13.12-16.7,14.34l-12.85,23.38c2.4,2.49,5.64,3.82,5.28,8.16,1.68,1.81,21.37-23.87,23-25.77,3.89-4.54,8.26-8.81,12.26-13.25h.01ZM290.08,242.48c.58-.84-2.22-3.65-3.46-3.76-1.34-.12-15.68,2.64-17.11,3.26-4.19,1.82,7.71,7.62,9.63,8.29l10.94-7.78h0ZM418.94,245.78c-4.03-.83-17.52-6.42-20.57-4.65-.76.44-10.61,11.13-12.06,12.76-7.06,7.95-13.48,17.73-20.59,25.77-4.34,4.91-9.03,10.24-14.49,13.77,8.49,8.43-7.34,11.73-11.84,16.74,19.02-5.29,34.96-19.52,49-32.84,8.85-8.39,21.77-20.65,29.59-29.57.57-.65,1.22-.91.96-1.98h0ZM525.06,253.39c-3.03-4.6-6.25-9.29-10.59-12.75l-1.51.53,17.01,56.81,7.32.39c-.29-3.06.36-6.6.05-9.57-1.23-11.51-5.59-25.27-12.27-35.4h0ZM294.26,250.14c-1.23-1.38-1.74-3.28-2.86-4.75-12.81,3.05-3.84,21.19.3,28.66.84,1.51,4.92,8.46,6.55,7.9.7-.24,8.38-9.52,10.12-10.75-3.04-2.89-4.04-12.08-5.51-14.22-.43-.63-6.88-4.9-8.61-6.83h.01ZM433.14,258.52c-2.91-3.65-6.86-6.63-9.92-10.18l-1.44-.12c-22.07,18.58-40.95,46.68-67.36,59.58-8.03,3.93-14.48,3.24-20.25,5.33-1.87.68-8.58,6.06-10.88,7.59-1.84,1.22-7.58,3.74-8.43,4.54-1.74,1.63-2.8,11.33-7.68,12.86.27,4,51.78,2.93,56.77,2.22,11.13-1.58,10.86-4.56,19.04-9.23,7.11-4.05,14.85-7.17,22.38-10.34,2.69-2.57-10.14-30.64-8.49-32.95.46-.64,1.29-.87,1.99-.64,1.57.53,8.33,27.97,9.87,31.56l1.17.55c3.06-.57,11.39-5.83,10.98-.57-13.77,3.53-26.85,9.51-38.79,17.09,12.26.59,20.66,8.15,25.65,18.73,1.3,2.76.57,5.81,3.12,7.54,11.5-1.47,35.04-9.57,41.2-19.74,11.67-19.27-5.57-67.05-18.96-83.83h.03ZM282.46,261.95c-1.16-3.03-1.4-5.46-2.57-8.27-14.83,16.08-24.07,34.14-30.48,54.94-.27.86-1.15.82-1.46,1.88-8.48,29.68,10.43,43.77,38.52,34.54,6.95-2.29,22.13-9.39,23.97-16.79.41-1.64-6.26,1.27-6.82,1.6-.7.41-.03,1.67-.76,2.07-3.22,1.08-7.29-4.66-8.81-7.12-4.69-7.59-8.14-18.18-5.94-27.1-5.67,2.33-11.68,4.59-17.02,7.63-2.99,1.7-7.38,7.18-9.94,5.17-.95-3.46,14.88-11.69,18.32-12.23l1.5-18.88,3.19-.1c.45,6.28-2.9,10.85-1.97,17.09.29.35,7.89-2.99,8.36-3.46,1.39-1.39,2.3-6.71,4.77-7.06v-1.29c-2.66-1.27-4.77-5.78-6.24-8.54-2.36-4.43-4.84-9.43-6.62-14.07h0ZM355.82,256.96c-8.47-3.49-9.46,2.41-14.97,5.07-8.68,4.19-17.47,2.26-25.12-2.8-.95-.63-1.19-2.22-1.75-2.33-1.09-.2-5.33,1.36-7.47.39l3.98,12.13c6.67-2.77,10.29-.42,12.84,5.96,6.19-1.68,12.9-5.6,18.36-.69,1.15,1.04,1.39,3.66,2.62,3.29l11.51-21.03h0ZM184.88,259.58c-19.88,5.13-41,5.94-61.38,3.2-2.36-.32-11.74-3.18-12.62-1.91-.55,14.16,4.24,28.98,9.22,42.15.43,1.14,1.41,1.28,1.61,1.8,4.09,10.93,11.16,23.26,9.26,34.95,10.84,2.29,22.06,2.92,32.87-.02-.15-1.88-.84-3.61-.69-5.56.95-12.46,12.32-30.89,16.43-42.91,3.46-10.12,5.75-20.94,5.3-31.7h0ZM588.56,264.19c-14.76,5.34-23.34,20.44-28.92,34.17,9.27,1.03,7.66-2.25,11.16-7.38.42-.62,1.38-.84,1.86-1.57,5.43-8.27,10.42-16.97,15.9-25.21h0ZM590.54,375.59v-108.13l-18.42,29.25,5.83,2.06c1.29,6.17-1.9,9.72-5.1,14.27,16.35,18.06,9.51,43.71-.71,62.86l16.11.72,2.29-1.04h0ZM318.18,272.23c-3.01-3.02-11.71,5.36-13.99,7.7-10.02,10.3-17.6,22.99-10.36,37.31l6.57,9.94c2.85.8,15.21-5.39,18.28-7.12,10.44-5.88,21.02-14.83,31.14-21.52-3.52-9.69-16.55,1.86-21.58,2.83-9.52,1.83,2.94-5.29,4.97-6.23,4.37-2.02,16.73-3.62,15.25-8.8-1.83-6.45-14.28-.9-18.08.72-4.14,1.76-7.76,5.31-12.04,5.37-3.32-3.02,18.42-11.44,20.39-12.14,1.03-1.12,1.12-3.59-.44-4.2-4.95-1.9-17.54,3.93-22.13,6.6-2.82,1.64-4.49,4.76-7.68,4.47-2.37-5.26,15.23-9.4,9.69-14.95v.02ZM525.06,294.83c-4.28-12.42-8.3-19.64-21.96-23.41l15.29,26.12,7.72.82c.97-2.2-.96-3.27-1.05-3.53ZM65.75,284.75c-7.65.4-16.01,1.24-22.88,4.74-.58,2.53,15.33,4.63,17.51,4.83,13.3,1.19,29.98.91,42.3-4.18-10.56-5.42-25.12-6.01-36.93-5.39h0ZM102.04,294.42c-19.54,4.71-40.45,4.64-59.82-.65,3.78,17.98,19.2,28.99,37.61,24.78,11.71-2.68,19.07-13.26,22.21-24.12h0ZM115.84,298.36c-1.73-1.8-2.43,6.09-2.56,6.82.54,1.58,3.22,1.02,4.55,1.07l-1.98-7.89h-.01ZM574.76,300.33l-63.13,1c3.08,15.22,28.97,13.72,41.13,12.83,8.05-.59,23.68-2.65,22-13.83ZM16.57,330.57h31.23c1.7-5.13,3.43-8.64,6.88-12.75-3.5-.89-7.1-7.37-8.8-8.34-1.55-.88-16.07-.99-18.42-.57-7.53,1.33-14.18,14.54-10.89,21.65h0ZM95.8,330.57h31.89c-1.53-7.19-4.17-15.71-8.53-21.36-1.52-.62-18.67-.63-20.44-.04-2.18.72-5.79,7.36-8.88,8.26l5.96,13.14h0ZM578.7,331.22c-.9-6.72-4.64-13.14-10.18-17.11-16.96,4.15-34.15,3.95-51.14.12-5.31,4.34-8.36,10.09-10.36,16.61,23.07,6.57,48.37,5.1,71.68.38h0ZM53.06,334.51c11.4,1.6,26.34-1.19,38.13,0,2.67-5.01-1.43-11.76-5.3-15.15-8.64,4.13-19.08,3.38-27.91.35-4.12,3.64-6.34,8.94-7.23,14.14.89-.26,1.74.59,2.31.66h0ZM13.29,324.65H4.08v63.1c1.85-2.75,3-6.65,4.71-9.43,14.54-23.68,49.12-33.08,74.12-21.06,3.24,3.42,14.16,6.13,16.41,9.23,3.34,4.59-.36,7.19.2,9.62.15.67,6.35,9.5,7.49,11.61,1.72,3.18,3.55,9.13,5.85,11.9,2.47,2.98,8.71,5.99,11.82,9.88,6.24,7.83,3.94,14.36-5.51,17.07,4.92,22.77-10.97,40.39-33.46,40.81l-3.32,9.37c18.92,12.94,22.91,38.05,31.34,58.07,1.14,4.06-1.38,6.04-4.82,7.38l-.03,2.04c4.55,4.25,6.55,14.64,10.87,18.58.53.48.98.69,1.66.45,1.14-.4,10.74-13.26,14.82-13.5-1.68-1.81-4.25-2.08-5.92-3.93-2.21-2.45-3.08-8.2-4.61-9.86-.9-.97-3.84-1.62-5.2-2.69-6.42-5.12-6.88-11.11-5.38-18.91-7.12-4.31-10.14-14.07-6.35-21.68.52-1.04,2.74-1.8,2.98-3.55.74-5.24-3.19-9.5.55-17.2,2.7-5.55,8.04-5.68,9.76-7.99,3-4.05.84-11.15,8.67-15.66,5.81-3.35,9.87-1.46,14.24-2.7.41-.12,4.03-4.89,5.9-6.09,6.5-4.16,16.61-4.86,22.53.69,4.67-4.02,10.69-3.84,16.45-3.12l.34-81.06c2.08-1.98,1.91-4.93,4.01-7.28,2.73-3.06,13.78-5.95,18.3-7.34,10.15-3.12,20.68-5.18,30.82-8.29l-.57-8.46h-73.64c-1.36,4.72-3.03,7.27-2.61,12.81.33,4.42,6.81,10.15,5.25,15.78-1.07,4.94-23.45,5.8-27.97,5.62-3.66-.14-15.46-1.63-18.04-3.66-6.48-5.09,6.82-16.01,2.28-22h-32.22c-.97,0-.86,3.13-1.6,3.66-2.22,1.57-42.28,1.46-44.98-.31-1.17-.77-.63-3.09-1.5-3.39-5.96-2.06-25.77,3.38-32.64-.11-2.78-1.41-1.55-5.96-1.79-8.39h0ZM503.05,333.89l-11.8-.7-1.31,42.73h21.7c-5.18-13.38-9.28-27.51-8.59-42.03h0ZM579.35,333.85c-23.76,6.3-49.02,5.75-72.95.68-1.06,4.44-.48,8.81.15,13.28,1.28,9.04,6.68,28.77,14.62,34.02,8.34,5.52,32.7,5.34,41.33.57,4.79-2.65,12.03-18.31,13.75-23.72,2.49-7.86,4.57-16.64,3.1-24.83ZM245.33,335.84l-45.47,12.65-2.47,3.11c6.88.17,16.03,3.69,22.66,3.32,9.93-.56,22.39-7.41,32.56-8.57-1.62-4.04-6.64-5.43-7.27-10.5h0ZM387.13,376.33c1.7-2.45,3.46-7.36,5.56-9.23,2.51-2.23,13.06-4.58,13.63-7.36-1.52-7.08-5.23-12.25-11.23-16.18-10.9-7.13-17.62-5.21-28.3.93-9.49,5.46-18.59,16.89-17.45,28.38l5.16,1.08c-1.03-3.63,4.93-19.3,7.67-20.28,7.56-2.69-.82,6.78-1.56,8.31-2.44,5.07-6.53,20.21,3.6,16.41-1.37-3.42,7.86-25.86,11.98-21.54,1.7,1.79-3.06,5.38-4.21,7.29-2.11,3.47-7.55,17.2-1.34,18.35,5.78,1.07,3.48-4.85,4.27-7.41.15-.5,1.07-.55,1.23-1,1.54-4.5,3.48-11.81,9.26-11.96,1.17,1.09-12.21,15.29-4.97,19.76,2.43,1.5,5.24-3.45,6.69-5.55h0ZM360.42,343.72c-19.21,1.31-38.69,1.5-57.53-2.69l-16.75,8.26c2.85,6,53.94,9.95,62.12,8.88l12.16-14.46h0ZM167.4,348.06c-.82-1.74-1.35-4.74-3.22-5.01-11.12,2.28-22.92,1.76-34.08-.03l-3.12,9.49c13.63,4.64,28.34,3.6,42.12.4.72-2.4-1.21-3.79-1.71-4.85h.01ZM466.28,347h-13.48c-.47,0-5.47,4.88-7.22,5.92-7.45,4.44-25.98,12.7-34.28,13.12-2.35.12-3.34-1.45-5.65-1.18-1.05.12-12.47,4.75-11.03,6.45l15.79.35,55.87-24.66h0ZM277.91,350.94c-4.57.18-9.22,0-13.81,0-1.5,0-7.09-3.2-8.43-3.13l-33.31,10.69v48.31c2.82-6.43,5.04-13.31,8.44-19.5,9.99-18.21,30.4-29.56,49.41-36.38,0-1.59-1.87,0-2.3,0h0ZM299.28,358.16l-14.68-5.73c-21.36,7.75-43.27,18.48-53.15,40.14-8.6,18.86-12.33,53.65-10.44,74.42.17,1.91.03,4.17,1.74,5.5,1.6,1.25,28.82,7.77,29.85,6.63.74-33.62-4.06-77.27,21.01-103.53,7.04-7.37,16.14-13.79,25.67-17.42h0ZM218.99,358.25l-24.98-3.64-1.24,82.77c2.55,1.4,6.52,8.22,7.94,9.15,3.4,2.24,7.8.89,11.03,6.72,4.59,8.29-1.99,13.37-1.62,15.34.41,2.16,3.71,5.15,4.53,6.76,2.12,4.13,4.4,12.37,6.39,15.27,1.88,2.74,6.94,3.8,9.47,6.22,3.57-5.44,8.12-2.93,6.95-10.69-.07-.47-1.1-.21-1.34-1.41s.43-5.12,0-5.59c-3.88-.73-16.17-2.52-17.56-6.43-.3-.85-.68-4.53-.79-5.78-1.01-10.99,1.19-24.83,1.33-36.11.32-24.18-.24-48.41-.11-72.59h-.01ZM5.4,404.84c29.88-7.25,60.67-17.66,82.84-39.77-22.26-19.74-67.92-8.47-78.81,19.15-.82,2.08-4.03,10.79-4.03,11.42v9.2h0ZM321.63,360.15c-4.68,1.02-11.02-1.96-15.22-1.61-9.32.77-29.64,16.98-35.42,24.46-6.74,8.73-12.06,25.4-13.71,36.06-3.09,20-1.78,40.56-2.06,60.71l24.33,1.96c-2.23-28.85-3.34-60.41,8.64-86.99,6.72-14.92,19.53-26.48,33.43-34.6h.01ZM347.93,361.47c-6.67.8-15.22-2.09-21.66-.3-10.07,2.81-27.08,19.8-32.46,28.75-12.33,20.49-13.92,60.7-12.32,84.3.17,2.51.61,5.15,1.07,7.61,1.9,1.61,23.05,1.54,26.21.54,2.09-.67,4.33-3.5,6.59-4.59,14.39-6.92,28.42-7,43.75-3.27-.82-13.07-1.63-28.57.83-41.56,1.77-9.34,6.93-17.48,16.3-20.63l-.05-27.85c-5.73,3.18-8.72-1.98-10.99-2.54-1.48-.36-3.03.81-4.95.46-2.9-.53-4.27-4.62-5.53-5.04-1.73-.58-5.6.33-7.28-1.59-2.46-2.83-1.13-11.03.49-14.29h0ZM93.26,378.97c3.42-3.91,6.43-14.82-1.25-12.81-.97.25-12.74,11.09-15.39,12.93-12.62,8.74-29.43,16.07-43.92,21.16-4.89,1.72-24.82,6.44-27.11,8.72-3.68,3.67-.37,75.48-1.41,85.83,7.48,2.6,13.2,4.52,21.3,4.06,9.2-.52,17.74-5.3,26.29-5.92,5.39-.39,10.28,1.18,15.12.66,3.65-15.23,6.45-30.71,7.54-46.37.24-3.51-.46-7.78,0-11.06.1-.7,1.34-.17,1.33-.76,0-.63-1.13-.1-1.34-.65-.64-1.7,1.19-1.57,1.33-2.07.71-2.68-1.32-2.06-1.32-2.53,0-.27,2.17-.39,1.37-4.64-.23-1.24-1.29-.71-1.41-1.89-1.05-9.87-.08-20.16-4.34-29.63,6.87-4.89,17.58-8.57,23.21-15.01v-.02ZM406.45,375.26l-14.46-1c-3.28,4.66-5.93,12.17-13.16,10.86l.14,102.73c.53,2.29,7.12,9.78,8.35,12.83,2.3,5.68,1.17,11.53,3.95,16.78,1.24,1.09,13.38,3.05,15.17,1.43v-143.62h0ZM590.54,379.21c0-.97-18.12-.91-19.37-.64-2.45.54-2.9,3.27-4.61,4.59-10.88,8.41-44.27,8.3-53.29-4.59-7.61.58-16.25-1.45-23.32,1.29v10.52c35.96,4.23,64.03,29.06,55.68,67.83-.68,3.17-3.71,9.59-3.8,12.05s1.94,5.99,2.06,9.17c.16,4.62-1.68,12-5.25,15.17-4.88,4.33-12.71,2.74-15.82,9.15,27.96,16.72,38.25,49.72,44.39,79.87,2.48,12.16,4.44,21.66,7.36,33.4,4.21,16.92,4.48,32.43-7.09,46.44,12.37,8.49,17.08,24.11,23.06,37.18v-321.42h0ZM109.46,401.37c-2.29-2.7-7.5-21.76-11.7-22.21-3.15,1.15-5.33,4.66-8.37,6.79-4.64,3.26-10.69,5.82-15.56,8.81.29,3.92,2.31,6.61,3.04,10.62,2.47,13.56,2.05,34.54.84,48.43-.55,6.29-1.96,12.52-3.18,18.67l4.85,1.99,4.35-9.71c22.47-.34,37.72-17.06,32.86-39.74.98-2.9,15.51-2.4,4.94-14.67-2.7-3.13-10.48-7.1-12.07-8.97h0ZM537.04,418.87c-5.83-8.68-19.99-18.4-29.86-21.73-15.21-5.13-40.12-8.48-48.14,9.39-2.86.68-3.42-.52-3.62-3.01-5.15,2.7-6.93,6.16-4.64,11.88,2.01,5.02,6.9,4.86,8.2,6.92,1.45,2.3.62,8.09,3.05,12.07,2.26,3.7,6.72,4.67,9.4,7.71-1.23,6.05-2.02,12.45-.51,18.58,1.43,1.15,4.42-4.1,6.35-5.08,14.52-7.36,22.17,9.69,17.28,21.88-2.28,5.69-6.4,5.96-9.9,9.86.21,6.05,2.85,10.67,9.46,10.58,1.81-.02,5.07-1.53,6.57-1.12.85.24.58,1.88,1.29,2.49,4.27,3.69,7.33,5.01,13.23,4.08,6.27-.99,7.52-6.84,10.44-8.02,1.78-.72,2.86.31,3.93.04,9.41-2.37,12.08-9.25,10.94-18.52-.27-2.19-1.94-4.43-1.87-6.58.08-2.8,3.42-9.25,4.24-12.87,2.83-12.49,1.44-27.73-5.83-38.56h0ZM376.2,416.02c-.41-.49-5.22,2.26-5.94,2.92-5.95,5.45-8.78,22.99-9.2,30.9-.45,8.49.28,17.07.81,25.53l12.69,9,1.64-68.35ZM455.98,428.31c-.55-1.61.31-3.24-.87-4.74-.36-.47-4.94-2.89-5.62-1.7-4.03,2.43-8.57,17.03-11.21,20.39-1.57,1.99-7.57,4.06-10.48,6.62-8.2,7.2-6.69,11.3,2.91,15.54-4.22,17.65-.07,35.95,18.98,41.47,4.44,1.29,12.84.82,15.26,1.83,1.97.83,4.35,6.89,6.24,6.9,4.29-2.53,8.41-5.43,13.03-7.36,5.28-2.21,10.76-3.24,16.22-4.8-2.17-2.91-6.24-1.21-9.45-1.71-8.74-1.36-8.17-12.49-9.55-13.46-1.53-1.06-9.07.53-7.93-4.88,13.38,5.46,23.4-6.5,18.43-19.45-1.07-2.8-5.08-6.13-8.26-6.08-6.31.1-8.27,6.83-10.81,7.52-1.74.47-5.49-3.13-5.88-4.21-1.65-4.5-.48-13.75,1.25-17.21-2.9-.74-6.09-3.28-7.88-5.6s-3.59-6.74-4.38-9.06h0ZM168.17,505.8c2.68-5.57,5.58-7.93,12.15-6.67,2.02.39,6.45,3.89,7.21,3.34,3.98-6.09-.41-11.9.26-18.14,6.39-.46,9.99-3.74,11.92-9.77.53-1.66-.11-4.2.59-5.32,1.19-1.9,13.7-1.95,9.42-13.32-2.33-6.19-6.52-4.9-10.37-6.72-3.41-1.61-3.79-8.1-11.68-9.35-8.05-1.27-12,3.71-14.96,3.73-1.97,0-3.37-2.46-5.22-3.28-6.28-2.79-13.82.08-18.48,4.62-1.11,1.08-1.49,3.42-2.71,3.86-5.17,1.87-11.35-2.25-17.31,5.04-3.31,4.04-2.92,11.2-4.3,12.79-.93,1.07-5.35,1.71-7.56,3.62-5.41,4.68-5,14.17-1.25,19.68-6.32,3.1-6.48,12.96-3.24,18.36,1.19,1.98,5.48,4.49,5.73,5.48.31,1.24-1.14,3.41-1.23,5.13-.32,6.16,1.87,10.11,6.99,13.39,1.22.78,4.22.91,4.71,1.54.39.51.55,3.79,1.14,5.1,2.9,6.56,9.18,9.75,16.38,8.51,2.35-.4,5-3.2,5.85-3.15,1.49.1,5.49,3.6,9.21,3.61,10.27.02,15.64-9.35,16.73-18.41-8.56-5.73-15.18-12.93-10-23.68h.02ZM213.44,481.47c-.99-2.01-4.96-11.12-6.62-11.45-3.42-.69-3.33,5.6-4.23,7.27-2.42,4.46-6.49,8.02-11.08,10.15.55,5.73,2.46,14.97-2.97,18.68-3.28,2.24-4.07-2.71-7.58-3.68-14.01-3.87-13.6,18.06-3.78,22.84,4.67,2.27,6.82-.74,8.68-.14,1.84,3.76-2.72,3.21-3.92,4.62-1.12,1.31-1.47,6.63-2.36,8.67-.11.24-2.66,3.99-2.97,4.4-1.89,2.47-3.93,4.96-7.09,5.93l-.41,1.35c6.76,1.83,13.33,4.86,18.86,9.12,1.48.14,3.77-4.43,4.79-4.84,2.75-1.12,10.27-.72,14.83-2.28,16.54-5.63,17.25-20.88,16.81-36.1,3.82-.68,8.06-1.61,10.34-5.15.93-3.54-5.43-10.56-8.12-12.66-1.76-1.37-6.55-3.1-7.86-4.63-1.08-1.27-4-9.4-5.33-12.08v-.02ZM306.27,490.05c-4.1,4.66-10.88,14.17-9.5,20.79,1.38,6.62,22.24,13.46,28.11,14.65,14.7,2.98,46.44,3.42,58.22-6.94,6.18-5.43.77-18.51-3.35-24.25-16.86-23.51-54.14-26.26-73.48-4.25ZM97.71,501.87c-5.42-11.09-11.06-21.65-23.59-26.06-1.88,3.25-3.34,20.64-6.06,21.61-2.04.73-6.08-1.09-8.44-1.2-15.29-.71-27.31,7.04-42.65,5.92-3.49,2.64-12.24,53.01-9.96,56.53,22.3,10.45,47.93,11.95,72.01,7.86l-6.08-13.64c-8.04-.85-7.26-12.28-8.43-18.73-.09-.52-1.17-.5-1.25-.96-.32-1.88-1.69-10.78,1.72-10.58,2.98.18,2.54,11.73,3.05,15.12.37,2.44,1.5,10.76,3.69,11.41,10.29,3.07,31.64-5.68,39.47-12.46-4.4-11.36-7.99-23.57-13.5-34.84l.02.02ZM240.11,481.42v10.19c10.84,1.55,22.35,10.51,25.7,20.98.74.43,9.79-4.29,10.62-5.17,2.76-2.9-2.83-16.12-1.5-20.72l-1.29-1.99-33.53-3.28h0ZM290.41,658.56c3.15.86,9.87-.63,13.48,0,3.01-7.14-3.28-5.97-3.34-11.5-.09-8.1,8.38-33.92,12.08-41.88,2.3-4.96,5.85-8.88,8.35-13.66-11.89-1.82-18.58-11.89-21.67-22.71-15.2,1.18-13.14-9.52-9.23-20.02-4.86.56-18-3.21-20.21-7.73-1.2-2.45-.73-9.92.56-12.26.43-.78,10.73-13.01,11.45-13.53,3.4-2.49,7.38-2.98,11.49-2.65-1.56-9.5,5.7-19.16,11.17-26.62l-26.95-.99c.26,18.99,11.66,27.44-10.07,37.58-12.36,5.77-26.68,7.62-39.89,10.73-2.97,10.93-9.73,19.24-21.03,22.36-5.44,1.5-14.9-.32-14.84,6.23,17.31,13.35,23.17,35.49,29.97,55.21,8.22-5.57,3.68-10.1,3.91-18.1s2.62-19.59,13.16-12.79c1.46-4.65,9.58-16.4,15.11-14.12,1.02.42,1.7,2.32,3.12,2.81,1.42.49,3.21-.31,4.53.73,1.2.94.84,3.67,1.89,4.69.8.78,2.37.57,3.33,1.27,3,2.2,1.56,4.81,2.59,6.61.94,1.64,3.99.03,3.94,6.24-.03,4.53-9.12,20.33-12.49,23.97-2.67,2.88-7.77,5.55-10.2,8.2-4.41,4.82-8.27,14.94-13.12,20.87-8.28,10.12-23.96,21.57-37.67,16.15-3.27-1.29-5.4-4.11-8.35-5.77l-1.92,8.79c5.25,3.39,11.06,6.53,16.03,10.29,2.87,2.17,18.39,17.34,19.69,17.12,1.35-4.83,18.25-14.27,19.17-16.47.28-.67-1.67-2.3-1.71-4.27-.02-1.07,1.31-8.33,1.87-9.35,1.85-3.35,3.95-2.61,6.09-4.42,1.37-1.16,1.98-3.39,3.31-4.58,9.22-8.24,19.48-6.07,29.98-1.18,1.34.62,5.91,4.59,6.44,4.73l-.02.02ZM4.08,498.18v41.41l9.76-37.81-9.76-3.59h0ZM242.21,521.72l13.4-4.49c-2.12-10.15-13.34-17.33-23.39-18.39,1.46,2.61,6.27,7.55,6.46,10.37.24,3.57-2.72,5.17-2.51,5.39,1.8,1.89,5.25,3.21,6.04,7.12ZM468.24,515.94c-2.65.05-3.36-4.59-5.04-5.16-2.23-.76-8.2-.5-11.3-1.19-4.79-1.07-9.36-3.02-13.57-5.48-3.3,0-23.65,16.42-29.37,17.95-5.26,1.4-9.79-.95-15.01-.87,3.32,7.91.92,16.64,2.13,24.49.99,6.44,7.14,7.67,5.77,17.92-.83,6.22-7.5,8.38-12.5,10.16,24.68,9.14,34.28,35.77,42.4,58.51l13.47-30.22c-6.29-2.73-9.65-12.34-14.41-16.15-2.01-1.61-5.28-2.61-7.53-4.35-6.05-4.69-21.09-25.07-18.55-32.79.52-1.57,2.1-1.66,2.35-2.41.51-1.52-.25-4.81,1.01-6.72.95-1.43,2.72-1.2,3.27-1.99.75-1.09.02-3.27,1.61-4.96,2.38-2.53,4.87-.76,6.19-1.13,1.5-.42,2.26-2.45,5.34-2.46,5.95-.03,11.06,8.03,13.85,12.48,7.5-4.87,8.73,1.76,11.45,7.24,3.13-11.6,8.52-24.26,18.41-31.56v-1.29l.03-.02ZM548.04,536.07c-4.78-8.61-17.89-28.04-27.85-30.39-2.17-.51-6.01,1.17-8.89,1.1-11.62-.31-13.87-1.71-25.75,3.12-20.66,8.38-29.11,23.62-33.83,44.4-.95,4.19-4.75,24.14-3.75,26.93,11.42,7.16,26.69,11.03,39.96,7.97l2.04-7.7c.14-.53,1.14-.47,1.24-.97,1.33-6.53.33-17.84,2.15-23.37.32-.98,1.34-1.98,2.48-1.78-.06,5.53-.11,11.25-.67,16.74-.33,3.25-2.34,18.08-4.38,19.28-1.45.86-4.24.38-5.15,1.43-1.21,1.41-.91,8.41-2.3,10.52,22.42,1.37,51.59.68,72.11-9.08,3.09-1.47,9.35-4.08,9.45-7.62.36-12.6-10.72-39.46-16.88-50.56l.02-.02ZM306.27,533.9c-.24-.41-1.16-.41-1.74-1.84-2.38-5.88,1.36-13.19-7.21-14.81-1.59,4.47-1.73,10.06-1.35,14.81.27,3.35,2.38,8.08,1.98,11.09-.3,2.27-4.47,6.08-5.75,9.43-3.82,9.99-3.13,14.41,9.07,12.27,1.84,6.94,7.32,18.83,14.19,22.01,1.34.62,7.21,2.18,8.35,1.93,1.49-.34,12.25-11.3,15.58-12.05l-5.79-6.68-4.15-8.01-7.14,1.23c.34-4.51,5.83-3.81,8.26-7.84,7.47-12.38-14.19-30.27-14.18-10.24-3.21,1.6-2.69-2.88-3.67-4.22-1.72-2.37-4.12-3.16-6.44-7.05v-.03ZM398.16,558.41c-1.57-5.37-4.76-9.82-5.33-15.39-.83-8.11,2.4-17.55-4.55-24.37-23.27,15.85-55.93,14.26-81.1,3.85-.88,3.55,1.75,13.41,5.26,14.8,2.56,1.01,2.33-1.55,4.42-2.81,9.36-5.67,17.91,6.74,17.9,15.29,0,3.51-3.73,9.69-3.65,10.23.41,2.55,7.11,12.48,9.88,13.79,6.6,3.13,11.94-.64,15.02.08.71.17,3.62,3.18,5.27,3.96,6,2.81,15.97,2.59,20.86-2.4,1.3-1.33,2.47-4.7,2.71-4.84.46-.26,5.66-.52,7.64-1.24,4.18-1.5,7.71-5.73,6.68-10.23-.1-.44-.96-.54-1.02-.72h0ZM230.9,525.12l-2.62-5.9v6.57l2.62-.66h0ZM282.19,538.27l6.6.36c2.65-5.14,4.29-10.26,2.94-16.13-2.14-2.18-7.86-4.6-10.52-2.62-.63.47-8.78,12.14-8.81,12.92l7.16,4.16c.65-3.8,2.85-7.91,6.24-9.86,3.25.58-4.34,10.4-3.61,11.17h0ZM432.37,538.65c-1.55-2.07-5.2-7.05-7.89-6.94-.6-.13-1.44.56-1.57,1.03-.27.98,8,16.3,9.18,18.22.25.4.84.53,1.3.48l-2.25,1.93c-2.29-.81-6.91-12.71-9.17-15.52-1.3-1.61-6.39-6.56-7.39-2.24-1.12,4.81,13.61,20.89,11.58,23.04-1.87.4-4.71-3.45-5.81-5-1.28-1.82-6.7-13.17-7.68-13.4-7.95,3.14,7.05,18.82,6.25,21.33l-1.62,1.02c-.98-.17-11.11-19.98-10.06-10.34.82,7.5,13.37,23.71,19.63,28.38,2.02,1.5,4.92,1.8,6.86,3.66.85.82,10.69,15.97,12.15,14.46-.54-3.03,3.24-11.25,2.69-13.38-.07-.27-4.17-2.33-4.46-3.23-1.3-4.02.92-5.34,1.08-6.23.92-5.12,3.08-16.68,2.51-21.37-.26-2.17-2.77-11.72-5.42-11.71-4.39.01-.36,13.89-4.3,11.57-2.04-7.3-.75-9.27-5.62-15.75h.01ZM294.02,540.24l-.98-3.28-.99,3.28h1.97ZM109.53,551.17c-.74-1.24-3.02-6.67-3.85-6.83-8.91,4.42-18.49,8.17-28.62,8.4,4.04,14.53,13.9,27.61,26.65,35.52l14.66-22.14c-2.93-4.98-5.88-10-8.84-14.95ZM202.4,577.28c-11.4-17.58-30.91-24.01-50.19-29.01-28.5,3.64-46.36,38.76-54.87,63.22-.96,2.75-6.6,22.95-6.14,24.1,27.25,15.68,62.45,16.55,93.02,12.44.35-.44-2.48-5.63-2.77-5.77-2.18-1.05-5.22,1.32-7.61-2.59-2.61-4.27-4.31-16.62-5.47-22.01-.11-.49-1.11-.51-1.3-1.48-.86-4.18-.91-8.61-1.26-12.85l3.85,1.08c-.56,4.56,4.78,33.23,7.76,34.31,15.21.52,32.44-6.87,42.16-18.49-5.3-13.31-9.39-30.91-17.2-42.96h.02ZM5.4,561.93l-1.02,15.14c26.24,10.62,58.54,14.63,85.16,3.59l-9.64-11.4c-18.75,3.8-38.39,3.2-56.89-1.6-6.01-1.56-11.62-4.17-17.61-5.73h0ZM249.06,584.03c1.15-1.79,8.16-10.44,2.04-8.83s-14.12,20.45-15.91,20.86c-4.37,1.02,3.39-9.64-2.61-9.18-3.13.27-3.72,10.86-3.72,13.5,0,3.15,1.79,9,1.27,11.67-.87,4.51-11.77,11.6-10.78,16.27.28,1.34,4.53,6.53,2,7.22-2.79,1.04-4.74-7.31-5.24-7.23-9.14,6.82-19.71,12.14-31.24,13.15-2.28,2.5,12.06,17.74,15.17,19.34,13.57,7.01,30.76-8.61,38.26-18.85,3.12-4.26,7.65-15.73,9.86-18.09.69-.74,4.69-2.23,6.41-3.77,7.39-6.62,14.96-17.74,14.8-27.95-.83-1.09-.99-.35-1.56.43-1.15,1.57-6.55,14.17-9.29,11.41-1.68-1.69,10.68-15.24,7.59-19.75s-10.45,12.79-11.64,14.07c-.72.78-.72,1.39-2.2,1.09-3.1-.97,9.22-17.8,8.22-19.89-.17-.48-2.02-1.6-2.43-1.63-3.52-.3-11.39,16.57-12.47,16.94-6.57,2.28,2.67-9.54,3.47-10.79h0ZM421.19,613.59c-6.02-13.36-16.91-32.71-32.01-37.35-4.86-1.49-5.22,2.31-9.25,4.21-4.85,2.29-12.55,2.53-17.67,1.01-2.55-.76-5.77-3.95-7.4-4.11-3.35-.34-13,1.62-16.22,3.23-20.63,10.31-28.43,37.16-33.39,57.44-.4,1.62-1.71,9.12-1.28,10.25,9.99,6.92,24.49,8.9,36.43,7.68,3.12-.32,4.92-.54,6.05-3.81,2.31-6.65,2.19-18.76,3.55-26.03l3.85-1.08c.33.33-.49,8.27-.69,9.39-.09.48-1.14.45-1.24.97-.74,4.11-1.87,18.63-4.02,20.84-1.39,1.44-4.67,1.19-5.23,4.01-.25,1.26,1.3,10.09,1.93,10.53,21.94,2.47,45.58.53,66.58-6.48,3.79-1.27,22.37-8.81,22.91-11.98-2.95-12.9-7.4-26.51-12.9-38.71h0ZM4.08,580.34v41.08c15.48,25.99,48.11,25.96,74.95,25.31,1.43,2.36-5.73,3.15-6.91,3.26-7.79.74-15.58-1.22-23.33-.3l14.52,38.39,15.07-1.91c-.19-3.58.28-7.14.85-10.65,3.23-19.72,9.03-46.61,15.56-65.29,2.21-6.33,5.67-11.93,7.8-18.29l-10.83-8.86c-27.34,11.14-60.55,7.5-87.67-2.74h0ZM479.83,607.04c.55-1.89,3.24-13.29,2.26-13.91-10.95.06-20.86-2.16-30.93-6.22-2.5,17.9-8.76,34.02-17.71,49.61,3.98,11.73,5.27,24.27,7.19,36.5,3.29-3.1,5.74-6.77,6.91-11.16.76-2.86.57-6.74,1.47-9.05.96-2.48,5.93-4.96,7.81-6.98,10.13-10.83,18.82-24.45,22.99-38.79h0ZM567.41,607.83c.6-1.03-.75-13.03-1.33-14.55-.25-.65-.66-1.29-1.44-1.07-23.79,14.42-54.21,14.86-81.31,14.09l-4.54,12.12c29.34,6.1,62.19,4.41,88.63-10.6h0ZM571.08,618.21c-.46-1.39-1.59-7.38-2.59-7.63-27.84,15.76-60.67,16.32-91.58,11.28-4.24,9.34-11.07,18.82-18.17,26.2-1.75,1.82-5.73,3.41-6.57,5.26-1.75,3.88-1.42,10.21-4.18,15.54-4.35,8.38-6.79,4.42-4.09,16.32.26,1.14,1.21.98,1.4,1.93,1.61,8.06,1.82,16.51.6,24.68l51.94,7.24c-1.2-10.7-.35-21.09,3.27-31.27.81-2.29,3.07-3.45,2.65-6.19-8.65.55-17.25.43-25.87-.75-1.56-.21-10.87-.82-8.97-3.84,11.29.63,22.93,2.69,34.5,1.95,3.66-.24,12.78-1.3,16.01-2.4,5.57-1.9,5.71-6.31,14.09-5.31,2.51.3,6.44,2.9,7.92,2.94,2.17.07,10.48-3.08,12.73-4.31,19.75-10.85,23.58-31.71,16.92-51.63h0ZM4.08,627.67v11.17l8.55-1.98-8.55-9.19ZM90.21,639.5c-1.06,12.84-7.18,13.92,6.21,19.75,18.41,8,71.11,15.24,88.82,6.58,3.61-1.76,4.24-14.05-.17-15.04-31.6,5.12-65.78,2.3-94.87-11.29h.01ZM4.08,643.11v32.54l20.42-26.62c-2.42-9.92-12.87-11.1-20.42-5.91h0ZM31.69,645.42l-5.91-1.32c.72,3.28,3.76,3.86,5.91,1.32ZM40.66,679.35c6.3-7.52,13.82-23.42,2.84-30.3-12.75-7.99-23.75,13.08-30.19,20.95,6.81,4.74,16.48,7.74,20.37,15.5.86.51,6.22-5.25,6.98-6.15ZM302.57,661.19h-11.51c-2.72,0-10.14-5.78-13.99-7.05s-11.45-2.95-14.61-.19c2.61.63,8.94.04,8.54,3.95-.71.69-15.23-4.38-16.43,1.31,1.22-.35,16.46.26,13.15,3.29-4.84.29-9.05-1.09-13.96-.48-2.65.33-9.15,1.71-6.09,5.09h9.86c.62,0,2.39,1.16,3.6.68v2.61c-.65.69-19.86-4.27-14.03,4.51,8.2-1.16,16.43,3.59,23.65,4.62,2.9.41,5.98-.22,8.97.24,5.53.86,13.63,6.37,20.21,8.06,18.14,4.67,28.22,2.28,35.82-15.48,1.12-2.62,5.84-12.9,1.98-13.79-9.7,1.11-19.64-.7-28.85-3.97l-3.75,11.11-2.94-.54.38-3.96h0ZM344.65,673.68c1.19,3.01.2,9.55,2.66,11.47,1.14.89,11.56,3.36,13.53,3.56,15.3,1.58,36,.14,50.73-4.32,4.26-1.29,25.25-10.07,25.6-14.17.09-1.06-2.08-13.49-2.78-13.61-26.75,15.92-58.99,19.6-89.75,17.07h0ZM213.4,706.12c2.01-2.68,5.87-5.94,8.02-8.79v-1.3c-10.4-10.51-21.44-20.31-34.55-27.35-33.5,7.41-69.37,3.06-100.56-10.76-3.41,13.39-7.4,28.81-4.18,42.57,1.75,7.45,8.22,16.11,14.56,20.28,1.88,1.23,9.7,5.23,11.6,5.19,3.18-.06,4.38-3.91,6.87-4.67,11.57-3.51,17.93,8.1,26.66,8.3,6.45.15,16.99-1.17,23.57-2.13,7.93-1.15,15.63-3.5,23.44-5.15l-.79,2.83-28.79,5.72c3.48,10.25,8.03,20.41,7.23,31.55,9.46-.77,18.18-4.45,26.8-8.05,2.37-17.55,9.54-34.14,20.12-48.24h0ZM571.05,670.81c-1.72-1.86-2.98-4.28-5.84-5.02-8.98,4.62-9.35,8.63-6.85,18.03,1.84,6.91,17.63,27.15,23.25,31.97s7.51.34,7.52-5.7c.01-8.39-12.36-33.08-18.09-39.27h.01ZM341.35,669.08c-1.53-1.09-4.34,7.28-5.01,8.46-8.53,14.91-17.37,17.66-34.42,14.21,5.7,5.82,8.8,13.07,12.81,20.04l28.26-25.63-1.64-17.08h0ZM55.96,676.89c.57-1.09-2.39-7.76-3.22-7.16l-5.27,10.51,8.49-3.35h0ZM554.37,673.02c-1.79,1.16-11.26,3.09-11.12,4.85,2.15,4.02,16.94,30.35,19.92,29.94,3.81-.52-.51-4.68-.76-5.72-.45-1.88.48-3.09.17-4.71-.29-1.5-2.69-3.27-3.12-4.17-3.12-6.41-5.12-12.96-5.08-20.19h0ZM548.03,693.17c-4.44-7.01-7.51-22.35-19.02-18.88-8.13,2.45-8.88,11.5-8.1,18.7,1.29,11.8,13.95,30.22,25.11,34.71s22.97,2.36,17.58-12.32c-1.95-5.31-12.05-16.65-15.57-22.22h0ZM363.05,782.13v-16.43c0-.07,1.12.21,1.29-.49,1.47-6.19,3.07-12.21,5.95-17.91-4.08-.28-22.53-.47-24.98-2.31-.92-.69-.7-1.29-.66-2.29,8.7.37,37.3,3.77,43.73-.65,1.19-.82,1.64-2.58,2.62-3.29,8.96-6.48,14.82-4.41,22.97,1.92,31.32-9.88,32.9-38.71,24.68-66.34-26.84,17.55-62.09,23.12-92.98,13.78l-29.36,25.95c-1.94,2.83,1.65,5.08,2.13,6.53,5.41,16.19,6.34,36.11.83,52.36,14.02,5.26,28.98,7.4,43.78,9.17h0ZM264.44,680.26c-4.86-1.03-10.96-3.06-15.94-1.81-.92.23-12.37,9-13.97,10.35-36.83,31.24-66.26,99.44,4.12,110.24,56.56,8.68,97.26-17.9,76.05-78.01-2.26-6.4-12.26-26.88-17.43-30.56-.76-.54-16.07-7.06-17.05-7.27-7.99-1.74-6.54,4.2-7.94,10.36-.12.52-1.17.49-1.25.95-.72,4.03.04,10.32-.69,13.66-.18.84-.58,1.88-1.62,1.65-2.98-.67,1.39-23.86,2.32-27.22-.1-.46-2.48-.98-2.91-.87-2.51.62-15.13,17.46-15.7,21.34-5.27,2.39.09-6.35,1.21-8.31,3.28-5.74,8.38-9.02,10.79-14.51h0ZM4.08,681.89c-.59,2.45.43,6.81,0,9.53.78-1.02,5.14-5.27,5.92-2.28.71,2.74-6.77,7.35-4.82,8.85,5.07,4.55,8.87-8.77,12.64-6.51,3.16,1.9-6.61,7.59-5.18,9.78,2.98,3.05,14.95-5.68,15.17-7.56.17-1.45-5.17-5.41-6.68-6.5-1.36-.98-11.77-7.74-12.48-7.95-1.94-.59-4.12.81-4.55,2.64h-.02ZM4.08,705.88v131.46h586.45v-118.97c-4.63,6.62-15.27,5.28-22.01,2.63-1.65,1.59-.73,3.97-1.51,6.4-2.81,8.77-20.06,6.48-26.64,3.97-9.06-3.46-14.84-13.25-22.64-18.85-6.97,2.5-12.02,8.81-19.61,9.82l-52.41-7.13c-2.57.36-2.13,3.59-3.42,5.81-.66,1.15-5.97,8.77-5.61,9.17,4.74.48,8.78,3.45,11.82,6.92,3.46,3.96,18.84,28.75,19.71,33,1.55,7.56-4,12.84-10.7,15.41s-11.03,2.16-17.54-.77c2.25,14.86-24.8,13.66-33.1,9.75-4.43-2.09-8.63-7.89-12.62-11.04-2.46-1.95-5.09-3.89-7.92-5.3-1.36-.1-6.85,4.12-8.83,4.94-10.92,4.52-25.51,1.09-36.94-1.18-7.6-1.51-15.01-3.94-22.53-5.75-4.17,3.86-6.33,9.14-10.84,12.88-25.53,21.15-101.32,20.13-112.12-16.79-.74-2.52-1.75-14.11-2.61-14.33-16.08,6.17-33.19,14.46-47.2-.7-2.33.07-17.12,7.31-19.05,9.1-4.59,4.23-5.8,10.17-13.31,13.83-11.26,5.5-28.2.65-31.91-11.85-6.6,2.83-14.57,4.17-21.13.43-15.84-9.06,3.02-36.57,11.26-45.47,3.66-3.95,8.82-8.91,14.48-8.53-5.68-7.26-7.6-16.21-7.88-25.31l-15.78,1.66-4.62-11.52c-4.91,2.29-10.57,4.42-14.79,7.89-4.32,3.56-7.81,9.79-12.14,13.49-7.42,6.34-17.12,10.07-26.32,4.91v.02ZM514.27,680.26c-8.46-.78-9.08,7.41-11.24,13.93-.13.4-1.01.49-1.19,1.05-.28.91-1.7,8.37-1.38,8.68l15.12,2.63c-2.07-8.54-7.52-18.31-1.32-26.28h.01ZM500.46,707.2v11.17c2.12-.41,12.57-6.64,12.5-8.21l-12.5-2.97h0ZM580.67,720.34c.87-.78-7.61-11.11-8.98-11.76-3.12-1.47-4.82,1.6-8.11,1.25,3.35,7.79,8.38,11.22,17.09,10.51h0ZM90.2,738.09c10.38-19.82-8.21-28.24-18.4-9.87,7,1.07,12.87,5.69,18.4,9.87ZM105.96,728.27l-9.83-3.97c1.3,2.52.42,5.41-.2,8.01-.95,4.02-6.73,13.54-6.95,15.47s1.44,2.67,3.13,2.76l13.85-22.26h0ZM116.99,724.45c-3.92.81-10.32,9.04-12.32,12.64l20.67,10.85c5.68-8.42,6.42-26.56-8.35-23.49ZM155.12,731.73l-16.92.44c1.24,10.8-4.91,18.87-8.54,28.26l31.93-13.11-6.47-15.59ZM456.04,754.9c-3.82-6.47-14.07-26.94-23.52-21.3-1.84,1.1-3.15,2.86-3.56,4.98-1.94,10.07,9.57,34.91,18.05,40.8,2.34,1.63,5.17,3.55,8.09,3.4-.96-2.74-6.8-8.68-5.86-11.41,1.77-5.14,9.16,13.1,12.14,8.81,2.26-3.26-9.58-12.92-5.27-13.83,2.99-.63,6.48,8.43,8.85,9.86.61-8.37-5.01-14.7-8.92-21.31h0ZM63.53,739.03c-4.05,5.49-12.41,25.62-.61,26.07,8,.31,18.91-12.57,22.02-19.41l-18.96-10.14c-.26,1.72-1.72,2.48-2.46,3.48h0ZM421.15,758.9c-4.57-6.53-11.44-24.42-22.31-20.2-7.93,3.08-5.08,23.93-2.73,30.43,1.31,3.61,8.39,14.47,11.02,17.25,2.89,3.06,7.49,6.58,11.81,6.92,1.04-.97-7.36-8.27-3.61-10.5,1.65-.03,7.27,12.71,11.5,10.5-.14-4.89-3.82-8.01-6.55-11.5.9-5.29,10.4,8.53,9.82,10.57,13.69-.4-4.01-10.98-1.29-14.18l7.9,7.22c2.92-5.91-3.05-9.11-5.54-12.52-3.36-4.6-6.75-9.33-10.01-13.99h0ZM421.96,744.42c.37-1.43.96-2.83.92-4.35l-7.24,2.98c1.09,1.65,5.17,11.03,7.25,9.5.06-2.47-2.45-5.57-1.94-7.4.13-.46.97-.55,1.01-.73h0ZM121.77,757.82l-21.97-12.44-14.23,18.59.06,6.32c3.03.1,9.01-12.69,10.87-7.89.47,1.2-6.49,8.47-7.54,10.2l3.86,2.27c-.03-2.07,7.05-10.7,8.24-10.48l.89,2.17c-.85,1.96-7.7,8.31-6.44,10.28,7.48,3.56,6.51-7.73,12.47-9.17.11,1.14.08,2.16-.36,3.25-.25.63-6.1,7.74-3.27,7.25,8.71-4.51,12.95-12.16,17.44-20.36h-.02ZM385.41,745.99l-11.51,1.3c-1.87,3.07-8.64,20.07-6.25,22.03l21.7,5.58c-3.47-9.05-7.61-18.99-3.94-28.91h0ZM162.52,750.58l-13.78,5.59c3.8,3.77,9.14,5.21,14.07,6.86,2.24-.56-.27-10.41-.29-12.44h0ZM84.29,758.48c-2.44-3-10.57,7.22-13.15,8.53,3.37,1.91,15.2-6.01,13.15-8.53ZM382.12,776.22l-15.77-3.95.65,10.52c.84.87,14.02-4.22,15.12-6.57Z"/>
    <rect x=".14" y="841.29" width="595" height=".66" fill="#fff"/>
    <path d="M4.08,705.88c9.2,5.16,18.9,1.43,26.32-4.91,4.33-3.7,7.82-9.93,12.14-13.49,4.22-3.48,9.88-5.6,14.79-7.89l4.62,11.52,15.78-1.66c.28,9.11,2.2,18.06,7.88,25.31-5.66-.38-10.82,4.58-14.48,8.53-8.24,8.89-27.1,36.41-11.26,45.47,6.56,3.75,14.53,2.41,21.13-.43,3.71,12.5,20.65,17.35,31.91,11.85,7.51-3.67,8.72-9.61,13.31-13.83,1.94-1.79,16.72-9.03,19.05-9.1,14,15.15,31.12,6.86,47.2.7.85.23,1.87,11.81,2.61,14.33,10.8,36.92,86.6,37.94,112.12,16.79,4.51-3.74,6.67-9.01,10.84-12.88,7.53,1.81,14.93,4.24,22.53,5.75,11.43,2.27,26.02,5.7,36.94,1.18,1.98-.82,7.47-5.04,8.83-4.94,2.83,1.41,5.46,3.35,7.92,5.3,3.99,3.16,8.19,8.95,12.62,11.04,8.3,3.91,35.35,5.11,33.1-9.75,6.51,2.93,10.8,3.35,17.54.77s12.26-7.85,10.7-15.41c-.87-4.25-16.25-29.04-19.71-33-3.04-3.47-7.08-6.44-11.82-6.92-.35-.4,4.95-8.02,5.61-9.17,1.29-2.22.85-5.45,3.42-5.81l52.41,7.13c7.59-1.01,12.64-7.32,19.61-9.82,7.8,5.6,13.57,15.38,22.64,18.85,6.58,2.51,23.82,4.8,26.64-3.97.78-2.43-.14-4.81,1.51-6.4,6.74,2.65,17.37,3.99,22.01-2.63v118.97H4.08v-131.48ZM28.66,745.77c-1.36-3.93-2.32-10.45-7.48-10.96l5.29,13.12,3.25-.65c.6-1.45-.97-1.26-1.06-1.51h0ZM37.36,736.19c-1.68.5-5.66,10.52-2.7,12.4l4.83-10.95c.08-1.26-1.05-1.77-2.13-1.45ZM564.31,768.25l1.57.72.87-1.08c.22-2.79.79-5.59,1.6-8.26.67-2.21,3.96-4.41,1.46-6.41-3.32-.64-6.76,12.48-5.51,15.03h.01ZM559.93,762.79c-.73-1.63-5.02-10.55-7.52-8.26l6,13.71,2.62-.3c.97-2.44-.5-3.8-1.1-5.14h0ZM525.09,769.35c-8.06-15.58-34.35-17.79-40.76-3.01-7.26,16.73,20.7,12.41,29.93,13.17-14.16,15.94,22.69,14.35,30.24,12.14,12.98-3.8,3.19-15.43-4.89-18.1-4.41-1.46-8.98-1.71-13.51-.62.77-2.36-.59-2.75-1.01-3.58h0ZM62.97,796.87c-10.74-9.85-33.97-8.83-39.94,5.19-6.71,15.77,27.15,11.33,34.96,10.97-.42,6.39,2.33,7.66,7.86,8.9s27.54,2.76,28.96-4.67c2.16-11.35-19.01-17.33-26.94-12.13-.05-4.01-2.27-5.86-4.9-8.26ZM157.25,797.93c-4.52-2.48-7.53,11-6.55,13.79l2.7-.39c.89-2.68.5-6.05,1.69-8.64.7-1.52,3.72-1.79,2.16-4.76h0ZM143.74,802.22c-1.04-1.26-1.87-2.73-3.33-3.6-4.01.95,0,3.86,1.43,6.49,1.15,2.11,1.27,6.82,4.51,5.9,2.9-.82-1.46-7.4-2.61-8.79h0ZM352.92,810.78c.99-2.07,4.4-6.14,2.56-7.62-4.04-1.06-11.36,14.44-4.92,14.47-.56-3.07,1.48-4.99,2.36-6.84h0ZM340.3,807.52c-.78-.96-.75-2.4-2-2.94-4.97-2.14-.33,4.63.1,5.82,1.16,3.21.91,7.78,4.93,7.23.43-4.38-.34-6.79-3.03-10.1h0Z" fill="#fff"/>
    <path d="M192.77,321.36l-.02-211.35c6.66-71.09,77.06-102.05,141.65-84.38,34.47,9.43,67.63,39.13,70.72,76.19-26.01-23.75-79.19-29.13-107.46-7.21-22.92,17.77-20.58,38.24-25.38,63.9-2.89,15.44-6.42,32.46-9.34,48.62s-8.92,28.4,6.73,41.62c1.18,1,6.8,3.14,6.63,4.56-13,13.92-20.38,28.9-27.04,46.49-.2.52-1.2.62-1.62,1.79-2.21,6.23-4.03,13.19-4.91,19.77h-49.97,0ZM227.08,172.04c6.48,1.7,4.9-6.11,8.81-9.69,2.51-2.3,10.48-3.33,10.81-6.32.47-4.23-8.11-5.24-11.18-8.53-2.45-2.63-2.8-8.4-4.95-8.89-4.6-1.05-3.8,2.92-4.97,4.77-.73,1.15-3.57,5.06-4.41,5.79-2.54,2.18-9.59,3.23-10.04,5.6-.95,5.03,7.42,4.73,10.9,8.17,2.01,2,3.85,6.47,5.02,9.1h.01Z" fill="#fff"/>
    <path d="M189.49,321.36c-2.58-.88-18.73,1.59-19.04-.32,3.04-6.79,5.36-13.87,7.91-20.85,6.41-17.59,15.24-37.94,4.17-56.34-6.93-11.52-23.12-13.41-16.55-31.12,1.72-4.65,9.7-8.78,7.4-13.63-1.88-3.96-23.28-4.68-27.95-4.6l-10.53-119.29c10.96-.15,14.79-11.56,11.19-20.71,5.21-.3,12.73-3.89,16.43-7.58.82-.82,5.58-7.3,5.88-8.07.87-2.23,1.2-8.13,1.95-9.08,1.21-1.53,3.4-.48,4.54-1.06.27-.14,2.33-4.13,3.16-5.05,5.87-6.52,11.52-13.22,17.5-19.63l203.85-.16c3.04,4.52,8.17,8.25,11.64,12.18,4.25,4.8,7.56,14.03,14.47,13.47-1.15,13.46,11.64,23.21,23.67,24.98-2.06,9.6-.02,20.88,11.84,20.71l-7.23,53.9c-1.55,27.29-4.84,54.44-4.61,81.83-2.24-.07-7.14.55-8.42-1.78-2.68-10.19-4.61-20.62-7.31-30.79-5.5-20.76-11.22-51.81-22.5-69.55-3.67-5.77-2.07-5.89-3.39-12.39C390.31,11.47,267.61-7.93,213.39,52.77c-12.14,13.6-19.29,30.38-23.22,47.55-.33,1.43.72,8.08-1.67,8.08h-25.97v1.97h25.97l.99.99v210.01h0Z" fill="#fff"/>
    <path d="M13.29,324.65c.24,2.43-.98,6.98,1.79,8.39,6.87,3.49,26.68-1.95,32.64.11.87.3.33,2.62,1.5,3.39,2.69,1.77,42.75,1.88,44.98.31.74-.53.63-3.66,1.6-3.66h32.22c4.54,5.99-8.76,16.91-2.28,22,2.58,2.03,14.38,3.51,18.04,3.66,4.52.18,26.9-.68,27.97-5.62,1.56-5.63-4.91-11.36-5.25-15.78-.42-5.54,1.25-8.09,2.61-12.81h73.64l.57,8.46c-10.15,3.11-20.68,5.18-30.82,8.29-4.52,1.39-15.56,4.28-18.3,7.34-2.1,2.35-1.94,5.3-4.01,7.28l-.34,81.06c-5.76-.72-11.77-.9-16.45,3.12-5.91-5.55-16.03-4.86-22.53-.69-1.87,1.2-5.49,5.97-5.9,6.09-4.36,1.24-8.43-.64-14.24,2.7-7.83,4.51-5.66,11.61-8.67,15.66-1.72,2.31-7.06,2.44-9.76,7.99-3.74,7.7.18,11.96-.55,17.2-.25,1.76-2.47,2.51-2.98,3.55-3.79,7.61-.77,17.37,6.35,21.68-1.5,7.8-1.04,13.8,5.38,18.91,1.35,1.08,4.29,1.72,5.2,2.69,1.53,1.65,2.4,7.4,4.61,9.86,1.67,1.85,4.24,2.12,5.92,3.93-4.09.24-13.68,13.1-14.82,13.5-.68.24-1.13.03-1.66-.45-4.32-3.95-6.31-14.33-10.87-18.58l.03-2.04c3.44-1.34,5.96-3.32,4.82-7.38-8.43-20.03-12.42-45.13-31.34-58.07l3.32-9.37c22.49-.42,38.37-18.04,33.46-40.81,9.45-2.71,11.75-9.24,5.51-17.07-3.1-3.89-9.34-6.9-11.82-9.88-2.3-2.77-4.13-8.72-5.85-11.9-1.14-2.11-7.33-10.94-7.49-11.61-.56-2.43,3.14-5.04-.2-9.62-2.25-3.1-13.17-5.81-16.41-9.23-24.99-12.02-59.58-2.61-74.12,21.06-1.7,2.77-2.85,6.68-4.71,9.43v-63.1h9.21ZM162.2,379.88c-2.89,1.17-6.8,14.18-3.94,15.1s2.36-5.29,2.99-7.51c.56-1.96,1.68-3.58,2.48-5.42l-1.53-2.17h0ZM143.47,382.48c4.93.18,5.35,13.47,8.86,12.5,2.61-.72-3.04-13.58-6.05-14.35-1.07-.27-3.79.66-2.81,1.85Z" fill="#fff"/>
    <path d="M264.44,680.26c-2.42,5.49-7.52,8.77-10.79,14.51-1.12,1.96-6.48,10.69-1.21,8.31.57-3.88,13.19-20.72,15.7-21.34.43-.11,2.81.42,2.91.87-.94,3.36-5.3,26.55-2.32,27.22,1.04.24,1.44-.81,1.62-1.65.73-3.34-.03-9.62.69-13.66.08-.46,1.13-.43,1.25-.95,1.4-6.16-.05-12.1,7.94-10.36.98.21,16.29,6.73,17.05,7.27,5.17,3.68,15.17,24.16,17.43,30.56,21.21,60.11-19.49,86.69-76.05,78.01-70.39-10.81-40.95-79.01-4.12-110.24,1.6-1.36,13.05-10.12,13.97-10.35,4.98-1.25,11.08.79,15.94,1.81h0Z" fill="#fff"/>
    <path d="M590.54,379.21v321.42c-5.97-13.07-10.68-28.69-23.06-37.18,11.57-14.01,11.3-29.52,7.09-46.44-2.92-11.74-4.88-21.23-7.36-33.4-6.15-30.15-16.44-63.15-44.39-79.87,3.11-6.4,10.94-4.82,15.82-9.15,3.57-3.17,5.41-10.55,5.25-15.17-.11-3.18-2.14-6.78-2.06-9.17s3.12-8.88,3.8-12.05c8.34-38.77-19.72-63.6-55.68-67.83v-10.52c7.07-2.74,15.71-.71,23.32-1.29,9.02,12.89,42.4,13,53.29,4.59,1.71-1.32,2.16-4.06,4.61-4.59,1.25-.27,19.37-.33,19.37.64h0ZM572.12,414.05c-3.64-3.61-9.45,11.58-7.88,14.46h2.6c.05-2.44.56-5.18,1.47-7.42.79-1.95,5.02-5.83,3.8-7.04h.01ZM559.85,425.7c-1.34-3.78-2.29-9.71-6.79-11l4.63,13.12,3.24-1.31c.3-1.02-.96-.44-1.09-.82h.01ZM577.84,525.23c-3.29.73-5.99,13.49-3.41,13.68.7-1.68,5.46-11.55,5.53-12.22.13-1.27-.98-1.71-2.12-1.46h0ZM566.88,538.27c.41.27,1.94.06,2.32-.64,1.05-1.45-2.97-11.78-5.62-9.21-.37.36,2.86,9.57,3.3,9.85h0Z" fill="#fff"/>
    <path d="M290.41,658.56c-.53-.14-5.1-4.11-6.44-4.73-10.5-4.89-20.76-7.05-29.98,1.18-1.33,1.19-1.94,3.42-3.31,4.58-2.14,1.81-4.24,1.07-6.09,4.42-.56,1.02-1.89,8.28-1.87,9.35.04,1.97,1.99,3.6,1.71,4.27-.92,2.21-17.81,11.64-19.17,16.47-1.29.22-16.82-14.95-19.69-17.12-4.97-3.76-10.79-6.9-16.03-10.29l1.92-8.79c2.95,1.67,5.08,4.48,8.35,5.77,13.71,5.42,29.39-6.04,37.67-16.15,4.85-5.93,8.72-16.05,13.12-20.87,2.43-2.66,7.53-5.32,10.2-8.2,3.37-3.64,12.45-19.44,12.49-23.97.05-6.22-3-4.6-3.94-6.24-1.03-1.8.41-4.42-2.59-6.61-.96-.7-2.53-.49-3.33-1.27-1.05-1.02-.68-3.74-1.89-4.69-1.32-1.04-3.18-.26-4.53-.73s-2.1-2.39-3.12-2.81c-5.53-2.28-13.65,9.47-15.11,14.12-10.54-6.8-12.91,4.42-13.16,12.79s4.3,12.53-3.91,18.1c-6.8-19.72-12.66-41.86-29.97-55.21-.06-6.56,9.4-4.73,14.84-6.23,11.3-3.12,18.06-11.42,21.03-22.36,13.21-3.11,27.53-4.96,39.89-10.73,21.73-10.15,10.33-18.6,10.07-37.58l26.95.99c-5.47,7.46-12.73,17.12-11.17,26.62-4.12-.34-8.1.15-11.49,2.65-.71.52-11.02,12.76-11.45,13.53-1.29,2.34-1.76,9.8-.56,12.26,2.21,4.52,15.35,8.28,20.21,7.73-3.91,10.5-5.97,21.2,9.23,20.02,3.09,10.82,9.78,20.89,21.67,22.71-2.5,4.78-6.05,8.7-8.35,13.66-3.69,7.96-12.16,33.78-12.08,41.88.06,5.53,6.34,4.35,3.34,11.5-3.61-.63-10.33.86-13.48,0l.02-.02Z" fill="#fff"/>
    <path d="M202.4,577.28c7.81,12.04,11.9,29.64,17.2,42.96-9.72,11.62-26.96,19.02-42.16,18.49-2.98-1.07-8.32-29.74-7.76-34.31l-3.85-1.08c.35,4.25.4,8.67,1.26,12.85.2.97,1.2.99,1.3,1.48,1.16,5.39,2.86,17.74,5.47,22.01,2.39,3.91,5.43,1.54,7.61,2.59.29.14,3.12,5.33,2.77,5.77-30.57,4.11-65.77,3.24-93.02-12.44-.46-1.15,5.18-21.35,6.14-24.1,8.51-24.46,26.37-59.58,54.87-63.22,19.27,5,38.78,11.43,50.19,29.01h-.02Z" fill="#fff"/>
    <path d="M421.19,613.59c5.5,12.2,9.95,25.81,12.9,38.71-.54,3.17-19.12,10.72-22.91,11.98-21,7.02-44.64,8.96-66.58,6.48-.63-.44-2.18-9.27-1.93-10.53.56-2.82,3.84-2.57,5.23-4.01,2.15-2.21,3.28-16.73,4.02-20.84.09-.52,1.15-.48,1.24-.97.2-1.12,1.02-9.06.69-9.39l-3.85,1.08c-1.36,7.27-1.24,19.38-3.55,26.03-1.13,3.27-2.93,3.49-6.05,3.81-11.94,1.22-26.43-.75-36.43-7.68-.43-1.13.88-8.63,1.28-10.25,4.96-20.28,12.76-47.13,33.39-57.44,3.22-1.61,12.87-3.57,16.22-3.23,1.62.17,4.85,3.35,7.4,4.11,5.12,1.53,12.82,1.29,17.67-1.01,4.02-1.9,4.38-5.71,9.25-4.21,15.1,4.64,25.99,23.99,32.01,37.35h0Z" fill="#fff"/>
    <path d="M548.04,536.07c6.16,11.1,17.23,37.96,16.88,50.56-.1,3.54-6.36,6.15-9.45,7.62-20.52,9.76-49.69,10.45-72.11,9.08,1.39-2.11,1.08-9.1,2.3-10.52.9-1.05,3.69-.57,5.15-1.43,2.04-1.2,4.06-16.03,4.38-19.28.56-5.5.6-11.22.67-16.74-1.15-.2-2.16.8-2.48,1.78-1.82,5.54-.82,16.84-2.15,23.37-.1.49-1.1.43-1.24.97l-2.04,7.7c-13.27,3.06-28.55-.81-39.96-7.97-1.01-2.79,2.8-22.74,3.75-26.93,4.72-20.78,13.17-36.01,33.83-44.4,11.89-4.82,14.14-3.43,25.75-3.12,2.88.08,6.72-1.61,8.89-1.1,9.96,2.35,23.07,21.78,27.85,30.39l-.02.02Z" fill="#fff"/>
    <path d="M347.93,361.47c-1.61,3.26-2.95,11.46-.49,14.29,1.68,1.92,5.55,1.01,7.28,1.59,1.26.43,2.63,4.51,5.53,5.04,1.91.35,3.47-.82,4.95-.46,2.27.56,5.26,5.72,10.99,2.54l.05,27.85c-9.37,3.15-14.53,11.29-16.3,20.63-2.46,12.99-1.65,28.48-.83,41.56-15.33-3.73-29.36-3.65-43.75,3.27-2.26,1.08-4.5,3.92-6.59,4.59-3.15,1-24.31,1.08-26.21-.54-.46-2.46-.9-5.1-1.07-7.61-1.6-23.6,0-63.81,12.32-84.3,5.38-8.94,22.39-25.94,32.46-28.75,6.43-1.8,14.99,1.1,21.66.3h0Z" fill="#fff"/>
    <path d="M541.23,74.88l6.91,138.04,1.97-.65c.2-22.57.15-45.47-.95-68.08-.06-1.17-1.36-.73-1.42-1.89-1.14-22.48-1.1-45.04-3.89-67.41h20.38c1.03,6.9,2.32,13.8,3.27,20.72,6.15,44.97,9.76,90.72,9.74,136.56-8.01,6.91-13.57,15.6-19.58,24.13.16-5.09,1.06-10.3,2.01-15.28,2.19-11.44,6.18-24.89,7.76-37.06.21-1.63,1.4-8.79-.9-8.77-.49,0-6.23,6.23-6.91,7.08-7.17,8.9-11.67,22.7-13.81,33.66l-13.73-25.86c-.75-.74-2.8-.78-3.44-.04-2.92,3.38,4.42,42.66,4.67,49.57-4.59-7.93-10.14-14.72-16.43-21.36V74.88h24.35Z" fill="#fff"/>
    <path d="M213.4,706.12c-10.59,14.1-17.75,30.69-20.12,48.24-8.62,3.59-17.34,7.28-26.8,8.05.8-11.14-3.75-21.3-7.23-31.55l28.79-5.72.79-2.83c-7.81,1.65-15.5,4-23.44,5.15-6.58.96-17.12,2.28-23.57,2.13-8.73-.2-15.08-11.81-26.66-8.3-2.49.75-3.69,4.61-6.87,4.67-1.9.04-9.73-3.96-11.6-5.19-6.34-4.17-12.82-12.83-14.56-20.28-3.22-13.76.77-29.18,4.18-42.57,31.2,13.82,67.07,18.16,100.56,10.76,13.11,7.04,24.15,16.84,34.55,27.35v1.3c-2.15,2.85-6.01,6.12-8.02,8.79h0Z" fill="#fff"/>
    <path d="M571.08,618.21c6.66,19.92,2.83,40.78-16.92,51.63-2.25,1.23-10.56,4.38-12.73,4.31-1.48-.05-5.41-2.64-7.92-2.94-8.38-1-8.51,3.41-14.09,5.31-3.23,1.1-12.35,2.17-16.01,2.4-11.57.74-23.21-1.32-34.5-1.95-1.9,3.02,7.41,3.63,8.97,3.84,8.63,1.18,17.23,1.31,25.87.75.42,2.74-1.83,3.91-2.65,6.19-3.62,10.18-4.47,20.57-3.27,31.27l-51.94-7.24c1.22-8.17,1.01-16.62-.6-24.68-.19-.96-1.14-.79-1.4-1.93-2.7-11.9-.26-7.93,4.09-16.32,2.76-5.33,2.43-11.66,4.18-15.54.84-1.86,4.82-3.44,6.57-5.26,7.1-7.38,13.93-16.85,18.17-26.2,30.91,5.04,63.74,4.48,91.58-11.28,1,.25,2.13,6.24,2.59,7.63h0Z" fill="#fff"/>
    <path d="M433.14,258.52c13.39,16.78,30.63,64.56,18.96,83.83-6.16,10.16-29.7,18.26-41.2,19.74-2.55-1.74-1.82-4.78-3.12-7.54-5-10.57-13.39-18.14-25.65-18.73,11.94-7.58,25.02-13.56,38.79-17.09.4-5.26-7.92,0-10.98.57l-1.17-.55c-1.54-3.58-8.31-31.03-9.87-31.56-.7-.24-1.54,0-1.99.64-1.64,2.31,11.18,30.38,8.49,32.95-7.53,3.17-15.27,6.28-22.38,10.34-8.19,4.66-7.91,7.64-19.04,9.23-4.99.71-56.5,1.79-56.77-2.22,4.88-1.53,5.95-11.22,7.68-12.86.85-.8,6.59-3.32,8.43-4.54,2.3-1.53,9.01-6.91,10.88-7.59,5.77-2.09,12.22-1.4,20.25-5.33,26.4-12.91,45.29-41.01,67.36-59.58l1.44.12c3.06,3.55,7.01,6.53,9.92,10.18h-.03Z" fill="#fff"/>
    <path d="M409.08,375.26l64.98-28.7.8-100.49c-.77-12.34-3.11-21.95-16.31-25.76-5.31-1.53-15.96.04-16.59-6.74,17.46,1.98,41.48-.09,45.29,22.09,4.41,25.69.34,70.36.05,97.84-.2,18.6.28,37.21-.07,55.8l-.99.99c-7.83-.06-16.92.8-23.25,5.68-1.21.93-3.19,4-3.43,4.12-1.41.72-4.69.36-7.55,1.99-4.59,2.63-6.18,6.36-5.4,11.6.23,1.59,2,3.55,1.82,4.55-.22,1.17-3.84,3.83-4.5,4.87-2.97,4.69-5.35,13.17-7.97,16.83-.95,1.33-7.95,4.54-10.44,6.65-8.08,6.83-10.56,15.43,1.97,18.75-3.04,12.56-1.67,27.94,8.55,36.78l-26.95,15.79v-142.63h-.01Z" fill="#fff"/>
    <path d="M363.05,782.13c-14.8-1.78-29.76-3.92-43.78-9.17,5.52-16.24,4.58-36.16-.83-52.36-.49-1.45-4.08-3.7-2.13-6.53l29.36-25.95c30.89,9.33,66.14,3.77,92.98-13.78,8.22,27.63,6.64,56.46-24.68,66.34-8.15-6.34-14.01-8.41-22.97-1.92-.98.71-1.43,2.48-2.62,3.29-6.43,4.42-35.03,1.02-43.73.65-.04,1.01-.26,1.6.66,2.29,2.44,1.84,20.9,2.04,24.98,2.31-2.88,5.7-4.47,11.72-5.95,17.91-.17.7-1.29.42-1.29.49v16.43h0Z" fill="#fff"/>
    <path d="M93.26,378.97c-5.63,6.45-16.34,10.13-23.21,15.01,4.26,9.48,3.29,19.77,4.34,29.63.12,1.18,1.18.65,1.41,1.89.8,4.26-1.37,4.37-1.37,4.64,0,.47,2.02-.15,1.32,2.53-.13.5-1.97.37-1.33,2.07.21.55,1.34.02,1.34.65,0,.59-1.24.06-1.33.76-.47,3.28.24,7.55,0,11.06-1.09,15.66-3.88,31.14-7.54,46.37-4.84.52-9.73-1.05-15.12-.66-8.55.62-17.09,5.4-26.29,5.92-8.11.46-13.82-1.46-21.3-4.06,1.04-10.34-2.27-82.15,1.41-85.83,2.29-2.28,22.22-7.01,27.11-8.72,14.49-5.09,31.3-12.43,43.92-21.16,2.65-1.84,14.42-12.67,15.39-12.93,7.68-2.01,4.67,8.89,1.25,12.81v.02ZM40.64,472.95c2.8-4.27,5.64-9.89,7.32-14.71.42-1.22,2.87-6.99,1.15-7.38l-2.17,1.1c-2.13,9.33-7.59,18.52-13.59,25.85-1.31,1.6-7.35,6.48-7.5,6.97-.84,2.8,2.07,2.28,3.84,1.2,1.98-1.21,9.43-10.7,10.95-13.03h0Z" fill="#fff"/>
    <path d="M168.17,505.8c-5.18,10.75,1.44,17.94,10,23.68-1.09,9.07-6.46,18.43-16.73,18.41-3.72,0-7.72-3.51-9.21-3.61-.85-.06-3.5,2.74-5.85,3.15-7.19,1.24-13.48-1.95-16.38-8.51-.58-1.32-.74-4.6-1.14-5.1-.49-.63-3.49-.76-4.71-1.54-5.12-3.28-7.32-7.23-6.99-13.39.09-1.72,1.54-3.9,1.23-5.13-.25-1-4.54-3.51-5.73-5.48-3.24-5.4-3.08-15.26,3.24-18.36-3.76-5.51-4.16-15,1.25-19.68,2.21-1.91,6.63-2.54,7.56-3.62,1.38-1.6.99-8.75,4.3-12.79,5.96-7.29,12.14-3.17,17.31-5.04,1.22-.44,1.61-2.78,2.71-3.86,4.66-4.54,12.2-7.41,18.48-4.62,1.85.82,3.25,3.29,5.22,3.28,2.95-.01,6.91-5,14.96-3.73,7.89,1.24,8.27,7.73,11.68,9.35,3.85,1.82,8.04.53,10.37,6.72,4.28,11.37-8.23,11.42-9.42,13.32-.7,1.12-.06,3.67-.59,5.32-1.92,6.03-5.53,9.32-11.92,9.77-.67,6.25,3.72,12.05-.26,18.14-.76.54-5.19-2.95-7.21-3.34-6.57-1.27-9.47,1.1-12.15,6.67h-.02Z" fill="#fff"/>
    <path d="M537.04,418.87c7.27,10.83,8.66,26.07,5.83,38.56-.82,3.62-4.15,10.07-4.24,12.87-.06,2.14,1.6,4.39,1.87,6.58,1.14,9.27-1.53,16.14-10.94,18.52-1.07.27-2.15-.76-3.93-.04-2.91,1.18-4.17,7.03-10.44,8.02-5.89.93-8.96-.39-13.23-4.08-.7-.6-.43-2.25-1.29-2.49-1.5-.42-4.75,1.09-6.57,1.12-6.62.09-9.25-4.53-9.46-10.58,3.51-3.9,7.62-4.17,9.9-9.86,4.88-12.19-2.77-29.24-17.28-21.88-1.93.98-4.93,6.23-6.35,5.08-1.51-6.13-.72-12.54.51-18.58-2.67-3.04-7.13-4.01-9.4-7.71-2.43-3.98-1.6-9.77-3.05-12.07-1.3-2.06-6.19-1.9-8.2-6.92-2.29-5.72-.52-9.18,4.64-11.88.2,2.49.76,3.69,3.62,3.01,8.02-17.87,32.93-14.52,48.14-9.39,9.87,3.33,24.03,13.05,29.86,21.73h.01Z" fill="#fff"/>
    <path d="M514.27,74.88v161.04l-3.99.29c-3.82,2.65,9.35,34.7,9.24,40.47-1.97-3.28-21.36-12.92-22.28-6.81l17.67,26.87c.53,2.31-5.33-.67-6.43,2.76-1.99,6.21,6.61,12.27,6.44,13-5.5,4.22-9.17,11.22-10.52,18.08h-12.16l-.99-.99v-87.75c0-.07-1.24.22-1.32-.44-.56-4.5.02-7.95-1.66-12.69-1.47-4.17-4.59-6.37-6.26-10.17,2.03-47.91,2.41-95.91,6.61-143.66h25.65Z" fill="#fff"/>
    <path d="M107.3,74.88c1.58,14.07,1.17,28.31,1.92,42.44,1.24,23.26,3.05,48.18,3.36,72.24.2,16,1.71,39.39-.03,54.58-.53,4.6-3.29,5.95-4.26,9.53-1.59,5.87-1.14,14.5-.16,20.52.84,5.15,4.14,10.5,4.36,15.36s-1.88,11.73-1.91,16.7h-9.2c.22-4.97,5.99-13.41,3.33-18.12-2.23-3.96-17.72-6.21-22.33-6.27l-1.31-110.61,1.24-96.37h24.99Z" fill="#fff"/>
    <path d="M97.71,501.87c5.51,11.27,9.1,23.48,13.5,34.84-7.83,6.78-29.18,15.53-39.47,12.46-2.19-.65-3.32-8.97-3.69-11.41-.51-3.39-.07-14.94-3.05-15.12-3.42-.2-2.04,8.69-1.72,10.58.08.45,1.15.44,1.25.96,1.17,6.45.39,17.88,8.43,18.73l6.08,13.64c-24.08,4.09-49.71,2.59-72.01-7.86-2.28-3.52,6.47-53.89,9.96-56.53,15.33,1.12,27.35-6.63,42.65-5.92,2.36.11,6.41,1.94,8.44,1.2,2.72-.98,4.18-18.36,6.06-21.61,12.53,4.4,18.16,14.96,23.59,26.06l-.02-.02Z" fill="#fff"/>
    <path d="M79.03,74.88v207.05l-27.94,1.33c-1.36.13-.87-.08-.99-.99-1.29-9.23-1.69-21.44-1.99-30.89-1.6-50.33.27-103.09,4.68-152.48.71-7.92.28-16.11,1.26-24.03h24.98Z" fill="#fff"/>
    <path d="M4.08,580.34c27.12,10.24,60.34,13.88,87.67,2.74l10.83,8.86c-2.13,6.35-5.58,11.96-7.8,18.29-6.54,18.68-12.34,45.57-15.56,65.29-.57,3.51-1.04,7.08-.85,10.65l-15.07,1.91-14.52-38.39c7.75-.92,15.54,1.05,23.33.3,1.18-.11,8.34-.9,6.91-3.26-26.84.65-59.46.68-74.95-25.31v-41.08h0Z" fill="#fff"/>
    <path d="M50.76,74.88c-4.78,69.53-7.76,139.59-3.26,209.24-15.22,4.39-6.78,12.01-3.98,22.13l-13.4.64c-1.52-.1-4.16-9.24-4.68-11.15-11.9-43.82-7.43-106.67-3.6-152.16,1.68-19.96,3.64-42.37,7.86-61.28.44-1.98.03-5.19.68-7.42h20.38,0Z" fill="#fff"/>
    <path d="M391.98,199.76v-11.5c0-3.75,5.56-10.18,4.61-13.14l-1.62-.3c-9.35,10.08-5.08,22.01-5.6,33.84-.44,10.03-4.3,20.09-11.89,26.9-1.04.93-2.86.69-3.87,2.05-2.94,3.98-1.01,10.12-8.25,14.1-8.01,4.41-14.55-.32-18.29.73-.48.13-3.76,4.15-5.82,5.4-8.97,5.43-16.15,3.57-24.2-1.92-.93-.63-1.2-2.11-1.82-2.29-2.75-.76-5.84,2.69-12.18-.14-6.83-3.05-5.43-6.88-7.97-11.43-.72-1.29-4.62-3.76-6.02-5.48-7.83-9.65-8.98-22.53-6.95-34.55.15-.89,2.61-2.74,1.37-5.54,2.42,5.03,4.42,13.33,9.52,16.43,6.32,3.84,6.9-1.89,10.9-4.88,11.81-8.84,35.68-8.14,48.74-2.15,5.01,2.3,7.2,7.08,13.48,3.88,4.3-2.19,4.23-8.25,7.15-11.91,1.26-1.59,4.3-2.97,4.74-4.46.49-1.68-.14-3.79.31-5.61,1.39-5.63,4.22-10.85,3.78-16.93,5.62,1.29,7.05-5.24,13.66-5.78,21.51-1.75,14.94,36.39-3.81,34.7l.03-.02ZM341.92,213.01l-25.1,2.64-1.49,1.84c-.02,8.01,10.76,10.36,17.52,8.93,4.79-1.01,12.26-8.08,9.07-13.41h0Z" fill="#fff"/>
    <path d="M375.14,165.34c1.89,4.33,4.4,3.44,3.53,10.27-.51,4.01-3.01,7.38-4.02,10.41-.69,2.05-.03,4.31-.55,6.05-.41,1.35-3.35,3.22-4.35,4.85-1.51,2.44-3.08,8.75-4.87,9.59-4.75,2.23-7.3-2.13-11.04-3.77-6.8-2.98-14.51-5.29-22.03-4.96-5.8.26-17.99,5.12-17.26-5.38.42-6.01,9.82-17.19,9.77-21.24-.1-7.61-5.51,4.89-6,5.72s-1.55,1-2.08,2.02c-3.61,6.9-7.58,14.31-2.49,21.52-6.56,1.34-13.34,4.14-16.45,10.52-9.14-3.79-11.85-20.28-12.5-29.23-.31-4.34,0-33.59,2.46-35.21,18.69-3.05,38.78-4.37,57.75-3.3,3.76.21,27.71,2.98,28.47,5.06.4,6.01-.82,11.4,1.66,17.08ZM343.99,155.07h9.53c2.14,0,12.03,7.37,8.93-.38-2.53-6.32-22.3-10.65-18.46.38ZM302.39,149.97c-2.49.46-11.12,5.1-8.74,8.43,2.12,2.98,13.81-5.62,18.14-2.29,2.92-5.22-5.52-6.86-9.4-6.14h0ZM350.33,167.76c-5.8.26-7.67,13.39-.68,14.03,9.53.88,9.96-12.9.68-14.03ZM298.83,181.15c5.9,6.49,15.6-4.22,8.28-9.92s-12.35,5.44-8.28,9.92Z" fill="#fff"/>
    <path d="M184.88,259.58c.45,10.75-1.84,21.57-5.3,31.7-4.11,12.02-15.48,30.45-16.43,42.91-.15,1.95.54,3.68.69,5.56-10.8,2.94-22.02,2.3-32.87.02,1.9-11.69-5.17-24.02-9.26-34.95-.2-.52-1.17-.66-1.61-1.8-4.98-13.18-9.77-27.99-9.22-42.15.88-1.26,10.26,1.6,12.62,1.91,20.38,2.74,41.5,1.93,61.38-3.2Z" fill="#fff"/>
    <polygon points="191.46 3.89 172.06 26.24 4.08 26.24 4.08 3.89 191.46 3.89" fill="#fff"/>
    <polygon points="590.54 3.89 590.54 26.24 423.87 26.24 403.82 3.89 590.54 3.89" fill="#fff"/>
    <path d="M4.08,51.87l9.6,3.25c-.95,6.58-.48,14.71,6.38,17.91,2.45,1.14,6.85.83,6.99,2.76-3.25,24.48-6.3,49.09-8.49,73.7-3.67,41.3-7.39,87.79.17,128.63,1.78,9.59,4.17,19.07,6.96,28.4-6.6,3.33-10.95,7.96-13.06,15.17l-8.56.32V51.87h0Z" fill="#fff"/>
    <path d="M299.28,358.16c-9.53,3.63-18.64,10.05-25.67,17.42-25.07,26.26-20.27,69.91-21.01,103.53-1.02,1.14-28.25-5.39-29.85-6.63-1.7-1.33-1.56-3.59-1.74-5.5-1.89-20.77,1.83-55.56,10.44-74.42,9.88-21.66,31.79-32.39,53.15-40.14l14.68,5.73h0Z" fill="#fff"/>
    <path d="M406.45,375.26v143.62c-1.79,1.62-13.93-.34-15.17-1.43-2.77-5.25-1.64-11.1-3.95-16.78-1.23-3.04-7.82-10.53-8.35-12.83l-.14-102.73c7.22,1.31,9.88-6.2,13.16-10.86l14.46,1h0Z" fill="#fff"/>
    <path d="M486,74.88l-6.25,143.3c-3.13-.98-5.85-3.25-8.99-4.16-4.84-1.4-14.18-1.14-17.87-2.51-.79-.29-1.04-.74-1.08-1.55,1.03-23.01,1.75-46.13,3.89-69.06.43-4.59,1.47-11.06,2.04-16.38,1.77-16.55,4.2-33.08,5.9-49.64h22.36Z" fill="#fff"/>
    <path d="M306.27,490.05c19.34-22.02,56.62-19.26,73.48,4.25,4.12,5.75,9.53,18.83,3.35,24.25-11.78,10.35-43.52,9.92-58.22,6.94-5.88-1.19-26.79-8.31-28.11-14.65s5.4-16.13,9.5-20.79h0Z" fill="#fff"/>
    <path d="M4.08,28.87c.8-.8,13.58.72,16.1.69,42.82-.39,85.54-1.13,128.21-.68,5.52.06,11.71,1.29,17.43.64,1.28,12.94-11.17,21.01-22.7,22.34-40.95-2.64-86.47,3.56-126.89.04-4.48-.39-8.48-1.69-12.14-4.29v-18.73h-.01Z" fill="#fff"/>
    <path d="M590.54,28.87v17.09c-5.18,3.3-10.51,5.41-16.74,5.94-39.02-2.81-83.23,3.68-121.64-.04-11.04-1.07-24.85-9.95-23.07-22.37l161.45-.61h0Z" fill="#fff"/>
    <path d="M455.98,428.31c.8,2.33,2.6,6.76,4.38,9.06s4.98,4.86,7.88,5.6c-1.73,3.46-2.9,12.71-1.25,17.21.4,1.08,4.15,4.68,5.88,4.21,2.53-.68,4.49-7.41,10.81-7.52,3.18-.05,7.18,3.28,8.26,6.08,4.97,12.94-5.05,24.9-18.43,19.45-1.14,5.41,6.41,3.82,7.93,4.88,1.38.96.81,12.1,9.55,13.46,3.22.5,7.29-1.2,9.45,1.71-5.47,1.55-10.94,2.59-16.22,4.8-4.62,1.94-8.74,4.83-13.03,7.36-1.89,0-4.27-6.07-6.24-6.9-2.42-1.02-10.82-.54-15.26-1.83-19.05-5.52-23.2-23.82-18.98-41.47-9.6-4.24-11.11-8.35-2.91-15.54,2.91-2.55,8.91-4.63,10.48-6.62,2.64-3.35,7.19-17.96,11.21-20.39.68-1.18,5.25,1.24,5.62,1.7,1.18,1.51.32,3.13.87,4.74h0ZM448.94,429.87c-3.21,1.25,2.31,13.01,5.49,11.49s-1.95-12.88-5.49-11.49ZM444.14,446.46c-2.79,2.99-2.95,11.5,3.76,9.35s2.51-16.07-3.76-9.35ZM437.13,477.26c-3.77,3.83,3.44,3.03,5.85,3.79,2,.63,4.65,4.06,5.51,1.62,1.41-4.02-8.62-6.39-11.35-5.41h-.01Z" fill="#fff"/>
    <path d="M130.97,74.88c1.57,3.74.71,8.46,1.34,12.02,2.04,11.53,4.09,24.46,5.23,36.95,2.12,23.35,2.47,46.88,4.56,70.24-.71,2.04-17.36.57-19.34,5.7-1.44,3.72,6.63,10.18,7.78,15.21,3.35,14.62-6.65,17.27-15.32,25.52l-4.61-165.64h20.38-.02Z" fill="#fff"/>
    <path d="M398.16,558.41c.05.18.92.27,1.02.72,1.03,4.51-2.5,8.73-6.68,10.23-1.98.71-7.19.97-7.64,1.24-.24.14-1.41,3.51-2.71,4.84-4.89,4.99-14.86,5.21-20.86,2.4-1.65-.77-4.56-3.79-5.27-3.96-3.08-.72-8.42,3.05-15.02-.08-2.77-1.31-9.47-11.24-9.88-13.79-.09-.54,3.65-6.72,3.65-10.23,0-8.55-8.54-20.96-17.9-15.29-2.08,1.26-1.86,3.82-4.42,2.81-3.51-1.39-6.14-11.25-5.26-14.8,25.17,10.42,57.83,12,81.1-3.85,6.95,6.82,3.72,16.26,4.55,24.37.57,5.57,3.76,10.02,5.33,15.39h0Z" fill="#fff"/>
    <path d="M282.46,261.95c1.78,4.65,4.26,9.65,6.62,14.07,1.47,2.77,3.59,7.28,6.24,8.54v1.29c-2.47.35-3.38,5.67-4.77,7.06-.47.47-8.07,3.81-8.36,3.46-.93-6.24,2.42-10.81,1.97-17.09l-3.19.1-1.5,18.88c-3.45.53-19.27,8.77-18.32,12.23,2.55,2.01,6.95-3.47,9.94-5.17,5.33-3.04,11.35-5.3,17.02-7.63-2.19,8.92,1.26,19.51,5.94,27.1,1.52,2.46,5.59,8.2,8.81,7.12.74-.41.06-1.66.76-2.07.56-.33,7.23-3.24,6.82-1.6-1.84,7.4-17.02,14.5-23.97,16.79-28.09,9.23-47-4.86-38.52-34.54.3-1.06,1.19-1.02,1.46-1.88,6.41-20.8,15.65-38.86,30.48-54.94,1.17,2.81,1.41,5.24,2.57,8.27h0Z" fill="#fff"/>
    <path d="M579.35,333.85c1.46,8.19-.62,16.97-3.1,24.83-1.71,5.41-8.96,21.07-13.75,23.72-8.63,4.78-33,4.95-41.33-.57-7.94-5.26-13.34-24.98-14.62-34.02-.63-4.47-1.21-8.84-.15-13.28,23.93,5.08,49.19,5.63,72.95-.68Z" fill="#fff"/>
    <path d="M213.44,481.47c1.33,2.68,4.24,10.81,5.33,12.08,1.31,1.53,6.1,3.26,7.86,4.63,2.69,2.1,9.05,9.12,8.12,12.66-2.29,3.54-6.52,4.47-10.34,5.15.44,15.22-.27,30.48-16.81,36.1-4.56,1.55-12.08,1.15-14.83,2.28-1.02.42-3.31,4.99-4.79,4.84-5.54-4.26-12.1-7.29-18.86-9.12l.41-1.35c3.16-.96,5.2-3.46,7.09-5.93.31-.41,2.87-4.16,2.97-4.4.9-2.03,1.25-7.36,2.36-8.67,1.21-1.41,5.76-.87,3.92-4.62-1.86-.59-4.01,2.41-8.68.14-9.82-4.77-10.23-26.71,3.78-22.84,3.51.97,4.3,5.92,7.58,3.68,5.42-3.71,3.51-12.95,2.97-18.68,4.59-2.13,8.66-5.68,11.08-10.15.91-1.67.81-7.96,4.23-7.27,1.66.33,5.62,9.45,6.62,11.45v.02ZM201.42,488.87c3.05,4.91,11.59-9.17,7.43-10.41-2.28-.68-8.65,8.45-7.43,10.41ZM211.65,494.43c-7.13-5.79-7.43,10.19-2.07,11,2.99.45,5.52-4.25,4.85-6.76-.07-.24-2.58-4.08-2.78-4.24ZM207.24,534.32c3.15,1.01,4.4-3.24,6.38-3.8,1.35-.39,6.6.6,6.11-1.77-4.11-4.22-12.21.19-12.49,5.57Z" fill="#fff"/>
    <path d="M590.54,260.24l-9.3,3.52-13.05,10.94,18.19-43.65c-.22-2.96-3.75-2.39-5.69-1.7-1.71-40.92-3.22-82.63-8.51-123.27-.16-1.24-1.25-.69-1.41-1.9-1.26-9.39-1.8-18.96-3.28-28.34l.13-.88c12.2-.42,13.36-10.45,12.05-20.48l10.88-5.23v210.99h-.01Z" fill="#fff"/>
    <path d="M468.24,515.94v1.29c-9.9,7.3-15.29,19.96-18.41,31.56-2.72-5.48-3.94-12.11-11.45-7.24-2.79-4.45-7.9-12.5-13.85-12.48-3.08.01-3.85,2.04-5.34,2.46-1.32.37-3.82-1.4-6.19,1.13-1.59,1.69-.86,3.87-1.61,4.96-.54.8-2.32.57-3.27,1.99-1.27,1.91-.5,5.2-1.01,6.72-.25.75-1.83.84-2.35,2.41-2.55,7.73,12.5,28.11,18.55,32.79,2.25,1.74,5.52,2.74,7.53,4.35,4.75,3.81,8.11,13.42,14.41,16.15l-13.47,30.22c-8.12-22.73-17.73-49.37-42.4-58.51,4.99-1.78,11.67-3.95,12.5-10.16,1.36-10.25-4.78-11.48-5.77-17.92-1.21-7.84,1.19-16.57-2.13-24.49,5.21-.08,9.75,2.27,15.01.87,5.72-1.53,26.07-17.96,29.37-17.95,4.22,2.46,8.78,4.4,13.57,5.48,3.1.69,9.07.44,11.3,1.19,1.67.57,2.38,5.21,5.04,5.16l-.03.02Z" fill="#fff"/>
    <path d="M321.63,360.15c-13.9,8.11-26.71,19.68-33.43,34.6-11.98,26.59-10.88,58.14-8.64,86.99l-24.33-1.96c.29-20.15-1.03-40.71,2.06-60.71,1.65-10.66,6.97-27.34,13.71-36.06,5.78-7.48,26.1-23.69,35.42-24.46,4.19-.35,10.54,2.63,15.22,1.61h0Z" fill="#fff"/>
    <path d="M218.99,358.25c-.12,24.18.43,48.4.11,72.59-.15,11.28-2.35,25.11-1.33,36.11.11,1.25.49,4.93.79,5.78,1.39,3.91,13.69,5.7,17.56,6.43.42.48-.26,4.39,0,5.59s1.27.94,1.34,1.41c1.18,7.76-3.38,5.25-6.95,10.69-2.53-2.42-7.59-3.48-9.47-6.22-1.98-2.9-4.27-11.14-6.39-15.27-.82-1.61-4.12-4.59-4.53-6.76-.38-1.98,6.21-7.05,1.62-15.34-3.23-5.83-7.64-4.48-11.03-6.72-1.41-.93-5.38-7.75-7.94-9.15l1.24-82.77,24.98,3.64h.01Z" fill="#fff"/>
    <path d="M467.19,229.75c4.41,5.45,4.59,10.57,5.02,17.65,1.94,31.55-2.21,64.61-.68,96.32l-15.78-.66c-.52-1.81,1.12-1,1.52-2.11,7.6-21.28-5.6-61.58-18.08-79.6-3.49-5.04-7.76-8.28-11.06-13.25,10.96-4.89,17.41-14.24,15.85-26.57,8.47-.04,17.64,1.35,23.2,8.23h0Z" fill="#fff"/>
    <path d="M109.46,401.37c1.59,1.87,9.37,5.84,12.07,8.97,10.57,12.27-3.96,11.77-4.94,14.67,4.86,22.68-10.39,39.4-32.86,39.74l-4.35,9.71-4.85-1.99c1.23-6.14,2.64-12.37,3.18-18.67,1.21-13.89,1.63-34.87-.84-48.43-.73-4-2.75-6.69-3.04-10.62,4.87-2.99,10.92-5.55,15.56-8.81,3.03-2.13,5.21-5.63,8.37-6.79,4.2.46,9.42,19.52,11.7,22.21h0ZM98.65,389.16c-2.6-1.59-17.26,6.7-14.96,10.35s18.64-4.94,14.96-10.35ZM94.99,410.58c-.34-.33-.81-3.08-1.82-3.1-2.95-.04-2,8.35,5.78,6.41,6.45-1.61,1.42-14.14-1.5-11.03-1.21,1.29,2.84,5.62,1.24,7.82-1.1.2-2.74.81-3.7-.11h0ZM106.51,439.16c-1.83.13-11.13,2.9-10.37,5.44.81,2.71,6.69-1.69,8.36-2.14,1.97-.54,4.16.31,6.12-.46l-.05-1.96c-1.33-.76-2.53-.99-4.06-.88Z" fill="#fff"/>
    <path d="M249.06,584.03c-.8,1.24-10.04,13.07-3.47,10.79,1.08-.38,8.95-17.24,12.47-16.94.41.03,2.26,1.16,2.43,1.63,1,2.1-11.32,18.92-8.22,19.89,1.47.3,1.47-.31,2.2-1.09,1.18-1.28,8.48-18.67,11.64-14.07s-9.27,18.05-7.59,19.75c2.75,2.76,8.14-9.83,9.29-11.41.57-.78.73-1.52,1.56-.43.16,10.22-7.41,21.34-14.8,27.95-1.72,1.54-5.72,3.03-6.41,3.77-2.2,2.36-6.73,13.82-9.86,18.09-7.5,10.23-24.69,25.85-38.26,18.85-3.11-1.6-17.45-16.84-15.17-19.34,11.53-1.01,22.1-6.33,31.24-13.15.51-.08,2.45,8.27,5.24,7.23,2.53-.69-1.72-5.89-2-7.22-.98-4.67,9.91-11.76,10.78-16.27.52-2.67-1.26-8.52-1.27-11.67,0-2.64.58-13.24,3.72-13.5,6-.46-1.76,10.2,2.61,9.18,1.79-.42,9.81-19.26,15.91-20.86s-.89,7.04-2.04,8.83h0Z" fill="#fff"/>
    <path d="M5.4,404.84v-9.2c0-.63,3.21-9.34,4.03-11.42,10.89-27.63,56.55-38.9,78.81-19.15-22.16,22.12-52.96,32.52-82.84,39.77h0Z" fill="#fff"/>
    <path d="M302.57,661.19l-.38,3.96,2.94.54,3.75-11.11c9.21,3.27,19.15,5.09,28.85,3.97,3.86.9-.86,11.17-1.98,13.79-7.59,17.76-17.68,20.15-35.82,15.48-6.58-1.69-14.67-7.21-20.21-8.06-2.98-.46-6.06.18-8.97-.24-7.22-1.03-15.45-5.78-23.65-4.62-5.83-8.78,13.38-3.82,14.04-4.51v-2.61c-1.23.48-2.99-.68-3.61-.68h-9.86c-3.06-3.38,3.44-4.76,6.09-5.09,4.91-.61,9.12.78,13.96.48,3.31-3.03-11.93-3.64-13.15-3.29,1.21-5.69,15.72-.62,16.43-1.31.4-3.91-5.93-3.32-8.54-3.95,3.16-2.76,10.71-1.09,14.61.19s11.27,7.05,13.99,7.05h11.51Z" fill="#fff"/>
    <path d="M142.15,55.16c2.2,6.13,1.33,16.04-6.87,16.47-34.37-2.67-74.01,3.49-107.77-.13-1.91-.2-4.69-.58-6.32-1.57-4.1-2.51-7-14.77-1.66-14.77h122.62,0Z" fill="#fff"/>
    <path d="M453.23,55.26l121.13-.6c5.39,6.41,1.8,17.77-7.83,16.92-33.21-1.51-68.26,2.06-101.26.04-1.91-.12-7.76-.45-9.04-.82-4.22-1.22-5.7-12.05-3-15.54h0Z" fill="#fff"/>
    <path d="M479.83,607.04c-4.18,14.33-12.86,27.96-22.99,38.79-1.89,2.02-6.85,4.5-7.81,6.98-.9,2.31-.71,6.19-1.47,9.05-1.16,4.39-3.62,8.06-6.91,11.16-1.92-12.23-3.2-24.77-7.19-36.5,8.95-15.59,15.21-31.7,17.71-49.61,10.06,4.06,19.97,6.28,30.93,6.22.97.62-1.71,12.02-2.26,13.91h0Z" fill="#fff"/>
    <path d="M318.18,272.23c5.54,5.55-12.06,9.69-9.69,14.95,3.19.28,4.86-2.83,7.68-4.47,4.59-2.67,17.19-8.5,22.13-6.6,1.56.6,1.47,3.08.44,4.2-1.97.69-23.72,9.11-20.39,12.14,4.29-.07,7.9-3.61,12.04-5.37,3.8-1.62,16.25-7.16,18.08-.72,1.47,5.18-10.89,6.78-15.25,8.8-2.03.94-14.49,8.06-4.97,6.23,5.03-.97,18.06-12.52,21.58-2.83-10.11,6.69-20.7,15.64-31.14,21.52-3.07,1.73-15.43,7.92-18.28,7.12l-6.57-9.94c-7.25-14.32.33-27.01,10.36-37.31,2.28-2.35,10.98-10.73,13.99-7.7v-.02Z" fill="#fff"/>
    <path d="M306.27,533.9c2.32,3.89,4.72,4.68,6.44,7.05.97,1.34.46,5.82,3.67,4.22,0-20.04,21.65-2.15,14.18,10.24-2.43,4.03-7.92,3.33-8.26,7.84l7.14-1.23,4.15,8.01,5.79,6.68c-3.33.75-14.08,11.71-15.58,12.05-1.13.26-7-1.31-8.35-1.93-6.87-3.17-12.34-15.07-14.19-22.01-12.2,2.14-12.88-2.28-9.07-12.27,1.28-3.35,5.45-7.16,5.75-9.43.39-3.01-1.71-7.74-1.98-11.09-.39-4.75-.25-10.34,1.35-14.81,8.57,1.63,4.83,8.94,7.21,14.81.58,1.43,1.5,1.44,1.74,1.84v.03ZM320.24,573.04l-.18-2.59c-1.72-2-13.28,1.14-12.88,2.98.53,2.44,10.99-1.5,13.06-.39h0Z" fill="#fff"/>
    <path d="M90.21,639.5c29.09,13.6,63.27,16.41,94.87,11.29,4.41.99,3.78,13.27.17,15.04-17.71,8.66-70.41,1.42-88.82-6.58-13.4-5.82-7.27-6.91-6.21-19.75h-.01Z" fill="#fff"/>
    <path d="M178.57,244.21c2.87,3.75,5.18,7.07,5.63,12.04-3.33,5.09-64.19,7.07-72.34.26,1.37-9.24,7.37-17.46,15.63-21.77,8.99.4,17.79,1.46,26.85,1.21,4.09-.12,9.94-2.04,13.74-1.31,2.83.55,8.61,7.12,10.49,9.57h0Z" fill="#fff"/>
    <path d="M548.03,693.17c3.52,5.56,13.62,16.9,15.57,22.22,5.39,14.68-6.59,16.74-17.58,12.32s-23.82-22.91-25.11-34.71c-.78-7.2-.03-16.25,8.1-18.7,11.51-3.47,14.58,11.87,19.02,18.88h0Z" fill="#fff"/>
    <path d="M344.65,673.68c30.75,2.53,63-1.16,89.75-17.07.7.11,2.87,12.55,2.78,13.61-.35,4.1-21.35,12.88-25.6,14.17-14.74,4.46-35.43,5.9-50.73,4.32-1.97-.2-12.4-2.67-13.53-3.56-2.46-1.92-1.47-8.46-2.66-11.47h0Z" fill="#fff"/>
    <path d="M387.13,376.33c-1.45,2.1-4.26,7.05-6.69,5.55-7.24-4.46,6.13-18.66,4.97-19.76-5.78.15-7.72,7.46-9.26,11.96-.15.44-1.07.49-1.23,1-.78,2.56,1.52,8.48-4.27,7.41-6.21-1.15-.78-14.88,1.34-18.35,1.16-1.9,5.91-5.5,4.21-7.29-4.11-4.33-13.35,18.12-11.98,21.54-10.14,3.8-6.05-11.34-3.6-16.41.74-1.54,9.13-11,1.56-8.31-2.74.97-8.7,16.64-7.67,20.28l-5.16-1.08c-1.14-11.49,7.95-22.92,17.45-28.38,10.68-6.14,17.41-8.07,28.3-.93,5.99,3.92,9.71,9.1,11.23,16.18-.57,2.78-11.12,5.13-13.63,7.36-2.11,1.87-3.87,6.78-5.56,9.23h0Z" fill="#fff"/>
    <path d="M432.37,538.65c4.87,6.48,3.58,8.45,5.62,15.75,3.94,2.32-.09-11.56,4.3-11.57,2.64,0,5.15,9.54,5.42,11.71.57,4.69-1.59,16.25-2.51,21.37-.16.89-2.38,2.21-1.08,6.23.29.91,4.4,2.97,4.46,3.23.54,2.13-3.24,10.35-2.69,13.38-1.46,1.51-11.3-13.64-12.15-14.46-1.94-1.87-4.84-2.16-6.86-3.66-6.26-4.66-18.81-20.87-19.63-28.38-1.05-9.64,9.08,10.18,10.06,10.34l1.62-1.02c.8-2.5-14.2-18.19-6.25-21.33.98.22,6.4,11.57,7.68,13.4,1.09,1.55,3.93,5.4,5.81,5,2.03-2.15-12.7-18.22-11.58-23.04,1.01-4.32,6.1.62,7.39,2.24,2.26,2.81,6.88,14.71,9.17,15.52l2.25-1.93c-.46.05-1.05-.08-1.3-.48-1.18-1.92-9.45-17.23-9.18-18.22.13-.47.97-1.16,1.57-1.03,2.68-.11,6.33,4.87,7.89,6.94h-.01Z" fill="#fff"/>
    <path d="M421.15,758.9c3.26,4.66,6.65,9.39,10.01,13.99,2.49,3.41,8.46,6.61,5.54,12.52l-7.9-7.22c-2.72,3.2,14.98,13.78,1.29,14.18.58-2.05-8.92-15.86-9.82-10.57,2.73,3.49,6.41,6.61,6.55,11.5-4.24,2.21-9.86-10.52-11.5-10.5-3.75,2.23,4.65,9.53,3.61,10.5-4.32-.34-8.92-3.86-11.81-6.92-2.63-2.78-9.71-13.64-11.02-17.25-2.35-6.5-5.2-27.35,2.73-30.43,10.87-4.22,17.74,13.67,22.31,20.2h0Z" fill="#fff"/>
    <path d="M567.41,607.83c-26.44,15.02-59.28,16.7-88.63,10.6l4.54-12.12c27.11.77,57.52.33,81.31-14.09.78-.22,1.19.42,1.44,1.07.58,1.51,1.93,13.52,1.33,14.55h0Z" fill="#fff"/>
    <path d="M418.94,245.78c.25,1.07-.39,1.33-.96,1.98-7.82,8.93-20.74,21.18-29.59,29.57-14.04,13.32-29.98,27.55-49,32.84,4.5-5.01,20.33-8.32,11.84-16.74,5.46-3.53,10.15-8.87,14.49-13.77,7.11-8.03,13.53-17.82,20.59-25.77,1.46-1.64,11.3-12.32,12.06-12.76,3.05-1.77,16.54,3.81,20.57,4.65Z" fill="#fff"/>
    <path d="M5.4,561.93c5.98,1.56,11.6,4.17,17.61,5.73,18.5,4.8,38.14,5.4,56.89,1.6l9.64,11.4c-26.62,11.04-58.92,7.03-85.16-3.59l1.02-15.14h0Z" fill="#fff"/>
    <path d="M590.54,375.59l-2.29,1.04-16.11-.72c10.23-19.16,17.06-44.8.71-62.86,3.21-4.55,6.4-8.1,5.1-14.27l-5.83-2.06,18.42-29.25v108.13h0Z" fill="#fff"/>
    <path d="M578.7,331.22c-23.32,4.72-48.61,6.2-71.68-.38,2-6.52,5.05-12.27,10.36-16.61,16.99,3.83,34.18,4.03,51.14-.12,5.55,3.97,9.29,10.38,10.18,17.11h0Z" fill="#fff"/>
    <path d="M109.53,551.17c2.96,4.95,5.91,9.96,8.84,14.95l-14.66,22.14c-12.75-7.91-22.61-20.99-26.65-35.52,10.13-.23,19.72-3.97,28.62-8.4.82.16,3.1,5.58,3.85,6.83Z" fill="#fff"/>
    <path d="M277.91,350.94c.42-.02,2.3-1.6,2.3,0-19.01,6.82-39.43,18.17-49.41,36.38-3.4,6.19-5.62,13.07-8.44,19.5v-48.31l33.31-10.69c1.34-.07,6.93,3.13,8.43,3.13,4.58,0,9.23.18,13.81,0h0Z" fill="#fff"/>
    <path d="M102.04,294.42c-3.14,10.87-10.5,21.44-22.21,24.12-18.41,4.21-33.83-6.8-37.61-24.78,19.37,5.29,40.28,5.36,59.82.65h0Z" fill="#fff"/>
    <path d="M456.04,754.9c3.91,6.62,9.53,12.94,8.92,21.31-2.37-1.43-5.86-10.49-8.85-9.86-4.31.91,7.53,10.57,5.27,13.83-2.97,4.29-10.37-13.95-12.14-8.81-.94,2.73,4.9,8.67,5.86,11.41-2.93.15-5.75-1.78-8.09-3.4-8.47-5.89-19.99-30.73-18.05-40.8.41-2.11,1.72-3.88,3.56-4.98,9.45-5.64,19.7,14.84,23.52,21.3h0Z" fill="#fff"/>
    <path d="M397.9,150.47c-20.4-6.75-41.76-10.22-63.35-10.61-2.88-1.1,1.81-11.63,1.62-14.29,1.21-.92,25.53,1.49,29.09,1.99,4.94.7,28.16,5.19,30.94,7.85.76.73,1.7,3.41,1.7,4.22v10.85h0Z" fill="#fff"/>
    <path d="M436.56,205.81l4.07,20.91-49.31-7.23c1.13-3.27-.5-15.35,2.14-16.65,10.42-5.14,31.73,1.83,43.1,2.97h0Z" fill="#fff"/>
    <path d="M571.05,670.81c5.72,6.19,18.1,30.89,18.09,39.27-.01,6.04-1.71,10.69-7.52,5.7s-21.42-25.06-23.25-31.97c-2.5-9.4-2.13-13.41,6.85-18.03,2.86.75,4.12,3.17,5.84,5.02h-.01Z" fill="#fff"/>
    <path d="M360.42,343.72l-12.16,14.46c-8.19,1.06-59.27-2.88-62.12-8.88l16.75-8.26c18.84,4.19,38.32,4,57.53,2.69h0Z" fill="#fff"/>
    <path d="M376.2,416.02l-1.64,68.35-12.69-9c-.54-8.46-1.26-17.04-.81-25.53.42-7.91,3.25-25.45,9.2-30.9.73-.67,5.53-3.42,5.94-2.92Z" fill="#fff"/>
    <path d="M40.66,679.35c-.76.9-6.12,6.66-6.98,6.15-3.89-7.76-13.57-10.75-20.37-15.5,6.45-7.87,17.45-28.94,30.19-20.95,10.97,6.88,3.46,22.78-2.84,30.3Z" fill="#fff"/>
    <path d="M376.2,89.35c-8.54,9.37-14.25,21.85-17.18,34.08l-16.07-1.19c-.14-13.21,2.6-25.59,8.39-37.38,1.87-1.07,23.34,2.9,24.86,4.49Z" fill="#fff"/>
    <path d="M387.14,249.48c-3.99,4.44-8.36,8.7-12.26,13.25-1.63,1.9-21.33,27.58-23,25.77.36-4.34-2.88-5.67-5.28-8.16l12.85-23.38c8.85-1.22,12.82-7.17,16.7-14.34.63-1.16.36-3.19.87-3.92,2.64-3.74,18.15.49,18.24,1.48-2.56,3.21-5.37,6.25-8.11,9.29h-.01Z" fill="#fff"/>
    <path d="M424.45,245.52c-13.66-7.14-26.27-6.32-39.37-10.93-3.02-1.06,2.35-5.5,3.12-6.72,1.01-1.64.52-4.76,2.8-5.1,5.81-.53,47.9,5.18,48.94,8.31-1.04,7.65-8.02,11.14-13.75,15.01-.8.39-1.21-.28-1.73-.55v-.02Z" fill="#fff"/>
    <path d="M377.52,148.49c1.39-1.46,16.01,5.07,18.74,5.29,4.49.36,24.61-3.23,27.18-.59l5.28,21.94c-.41.65-.68.86-1.48.92-3.66.28-9.66-2.12-13.8-1.36-3.67-8.67-10.77-14.41-20.82-12.09-2.43.56-9.05,5.76-10.03,5.53-2.83-1.7-5.07-7.08-5.07-10.11v-9.53h0Z" fill="#fff"/>
    <path d="M536.24,223.81c11.95,21.48,14.44,49.73,13.25,73.93-2.2.8-8.9,1.74-9.57-1.03-.86-3.51-.21-13.67-.67-18.39-1.9-19.79-6.51-39.45-7.9-59.8-.05-.71-.46-3.1.67-2.97,1.11,2.84,2.74,5.6,4.23,8.27h0Z" fill="#fff"/>
    <path d="M399.21,101.18l-.41,1.36c-8.27,6.47-14.6,15.1-19.98,23.96l-17.08-2.33c2.18-6.42,4.42-13.5,7.53-19.74,1.28-2.56,7.35-12.48,9.58-13.46,3.75-1.65,16.64,8.05,20.36,10.22h0Z" fill="#fff"/>
    <path d="M165.16,207.66c-5.07,7.54-4.49,16.65,0,24.31h-34.19c4.85-9.09,5.84-16.76-1.32-24.96l35.5.66h.01Z" fill="#fff"/>
    <path d="M574.76,300.33c1.67,11.18-13.96,13.24-22,13.83-12.15.89-38.04,2.38-41.13-12.83l63.13-1Z" fill="#fff"/>
    <path d="M16.57,330.57c-3.29-7.11,3.35-20.32,10.89-21.65,2.35-.42,16.87-.31,18.42.57,1.71.97,5.3,7.45,8.8,8.34-3.45,4.11-5.17,7.61-6.88,12.75h-31.23,0Z" fill="#fff"/>
    <path d="M240.11,481.42l33.53,3.28,1.29,1.99c-1.33,4.6,4.26,17.81,1.5,20.72-.83.88-9.89,5.6-10.62,5.17-3.35-10.46-14.87-19.43-25.7-20.98v-10.19h0Z" fill="#fff"/>
    <path d="M95.8,330.57l-5.96-13.14c3.09-.9,6.7-7.54,8.88-8.26,1.77-.59,18.92-.58,20.44.04,4.37,5.66,7,14.17,8.53,21.36h-31.89Z" fill="#fff"/>
    <path d="M503.05,333.89c-.7,14.53,3.41,28.65,8.59,42.02h-21.7l1.31-42.72,11.8.7h0Z" fill="#fff"/>
    <path d="M99.8,745.55h-.01l-14.23,18.59s-1.78,1.53.07,6.32c.9,2.32,5.59,5.85,9.99,8,2.15,1.05,4.39,1.67,6.46.6-.01.02-.01.02,0,0,.6-.65,6.33-1.46,7.08-2.5,8.27-4.55,8.23-10.58,12.6-18.57l-21.97-12.44Z" fill="#fff"/>
    <path d="M571.86,259.32c-.06.15-.78.29-.98.79-5.02,12.43-9.07,25.21-14.2,37.58-5.38,2.71-4.32-2.66-4.26-6.23.41-23.03,11.51-45.18,29.91-58.82-3,9.07-6.89,17.83-10.47,26.68h0Z" fill="#fff"/>
    <path d="M525.06,253.39c6.68,10.13,11.04,23.89,12.27,35.4.32,2.97-.33,6.52-.05,9.57l-7.32-.39-17.01-56.81,1.51-.53c4.33,3.46,7.56,8.15,10.59,12.75h0Z" fill="#fff"/>
    <path d="M409.31,113.44c2.58,3.8,5.8,7.65,6.34,12.7-5.23-.38-13.39,5.68-17.44,5.96-4.52.32-10.97-4.47-16.1-3.99-1.75-2.16,16.01-22.74,19.39-24.3,3.29,2.71,5.44,6.16,7.79,9.63h.02Z" fill="#fff"/>
    <path d="M245.33,335.84c.63,5.07,5.66,6.46,7.27,10.5-10.17,1.17-22.63,8.02-32.56,8.57-6.63.37-15.78-3.15-22.66-3.32l2.47-3.11,45.47-12.65h0Z" fill="#fff"/>
    <path d="M63.53,739.03c.74-1,2.2-1.75,2.46-3.48l18.96,10.14c-3.12,6.84-14.03,19.71-22.02,19.41-11.8-.45-3.45-20.59.61-26.07h0Z" fill="#fff"/>
    <path d="M347.93,84.08c-3.69,8.75-4.95,16.63-6.6,25.81-.09.5-1.18.48-1.26.94-.5,3,.74,7.7-.61,10.45-.4.82-.09,1.65-1.71.91-2.52-1.16,2.55-8.67-.93-11.56-2.88-2.39-12.98-.48-13.81-2.67-.62-1.64,3.93-22.12,4.99-22.59l19.92-1.3h0Z" fill="#fff"/>
    <path d="M53.06,334.51c-.56-.08-1.42-.92-2.31-.66.89-5.2,3.11-10.5,7.23-14.14,8.83,3.03,19.27,3.78,27.91-.35,3.87,3.4,7.97,10.14,5.3,15.15-11.79-1.19-26.74,1.6-38.13,0h0Z" fill="#fff"/>
    <path d="M155.12,731.73l6.47,15.59-31.93,13.11c3.63-9.39,9.78-17.46,8.54-28.26l16.92-.44Z" fill="#fff"/>
    <path d="M355.82,256.96l-11.51,21.03c-1.23.37-1.47-2.26-2.62-3.29-5.46-4.92-12.17-1-18.36.69-2.54-6.38-6.17-8.73-12.84-5.96l-3.98-12.13c2.14.98,6.38-.59,7.47-.39.57.11.8,1.7,1.75,2.33,7.65,5.06,16.45,6.99,25.12,2.8,5.51-2.66,6.5-8.56,14.97-5.07h0Z" fill="#fff"/>
    <path d="M324.92,86.06c-2.77,2.97-3.98,21.99-4.67,22.93-.39.52-4.16.07-5.79,1.77-2.35,2.46-1.8,8.79-2.82,11.96l-7.71.75c-1.4-10-1.13-20.27,1.46-30,5.88-3.94,12.67-5.99,19.54-7.41h0Z" fill="#fff"/>
    <path d="M429.38,178.81l6.65,23.58-30.9-4.6c5.46-5.6,7.86-11.73,7.94-19.66l16.31.69h0Z" fill="#fff"/>
    <path d="M294.26,250.14c1.73,1.93,8.18,6.21,8.61,6.83,1.47,2.14,2.47,11.33,5.51,14.22-1.75,1.23-9.43,10.51-10.12,10.75-1.63.57-5.71-6.39-6.55-7.9-4.15-7.47-13.12-25.6-.3-28.66,1.11,1.46,1.62,3.37,2.86,4.75h-.01Z" fill="#fff"/>
    <path d="M311.67,126.24l2.73,14.36c-12.51-.23-24.7,2.06-36.81,4.6.03-3.13.02-10.86,2.65-12.79,2.87-2.11,29.03-7.64,31.43-6.17Z" fill="#fff"/>
    <path d="M330.11,139.88c-.4.31-9.13.28-10.14.08-6.05-1.2-5.84-26.31-2.52-27.52,3.07.35,16.93-1.5,17.91,1.67.84,2.71-5.05,21.44-5.26,25.77h.01Z" fill="#fff"/>
    <path d="M65.75,284.75c11.81-.62,26.37-.03,36.93,5.39-12.32,5.09-29,5.37-42.3,4.18-2.18-.19-18.09-2.29-17.51-4.83,6.87-3.5,15.23-4.34,22.88-4.74h0Z" fill="#fff"/>
    <path d="M4.08,643.11c7.55-5.18,17.99-4.01,20.42,5.91l-20.42,26.62v-32.54h0Z" fill="#fff"/>
    <path d="M167.4,348.06c.5,1.06,2.43,2.46,1.71,4.85-13.79,3.2-28.5,4.24-42.12-.4l3.12-9.49c11.16,1.79,22.96,2.31,34.08.03,1.87.28,2.4,3.27,3.22,5.01h-.01Z" fill="#fff"/>
    <path d="M560.72,223.88c-.03.15-.94.21-1.04.7l-7.27,46.17c-1.42-7.06-1.96-14.27-3.27-21.37-.21-1.15-1.9-2.9-2.01-5.95-.15-4.22,5.19-21.76,7.11-26.37,1.23-2.95,6.6-12.37,8.99-14.02.86-.59,1.55-.57,1.63.33-1.68,6.77-2.75,13.69-4.15,20.51h.01Z" fill="#fff"/>
    <path d="M385.41,745.99c-3.67,9.92.47,19.87,3.94,28.91l-21.7-5.58c-2.4-1.96,4.38-18.96,6.25-22.03l11.51-1.3h0Z" fill="#fff"/>
    <path d="M116.99,724.45c14.76-3.07,14.02,15.07,8.35,23.49l-20.67-10.85c2-3.6,8.4-11.83,12.32-12.64Z" fill="#fff"/>
    <path d="M301.91,95.92c-2.92,9.23-1.77,18.72-1.39,28.19l-20.3,4.67c2.47-13.08,10.36-25.56,21.69-32.85h0Z" fill="#fff"/>
    <path d="M401.84,149.81l-.71-15.33c2.39-1.66,13.68-6.21,15.73-4.94l5.36,20.28h-20.38Z" fill="#fff"/>
    <path d="M282.45,233.03c.3.58,2.45,1.49,1.72,3.53l-18.32,3.21c-2.67-5.79-4.69-12.46-2.56-18.82,1.18-1.27,13.71-2.13,15.01-1.2,1.03,4.79,1.86,8.85,4.16,13.27h-.01Z" fill="#fff"/>
    <path d="M278.25,216.2l-14.47.65,3.94-22.35c2.12.68,12.14-1.23,12.43.41l-1.91,21.29h.01Z" fill="#fff"/>
    <path d="M466.28,347l-55.87,24.66-15.79-.35c-1.44-1.71,9.98-6.33,11.03-6.45,2.31-.27,3.3,1.3,5.65,1.18,8.3-.42,26.84-8.68,34.28-13.12,1.75-1.04,6.76-5.92,7.22-5.92h13.48Z" fill="#fff"/>
    <path d="M4.08,681.89c.44-1.82,2.61-3.22,4.55-2.64.71.21,11.12,6.97,12.48,7.95,1.51,1.09,6.85,5.05,6.68,6.5-.22,1.89-12.19,10.61-15.17,7.56-1.42-2.19,8.34-7.88,5.18-9.78-3.77-2.27-7.56,11.06-12.64,6.51-1.96-1.5,5.52-6.11,4.82-8.85-.77-2.99-5.14,1.25-5.92,2.28.43-2.72-.59-7.08,0-9.53h.02Z" fill="#fff"/>
    <path d="M242.21,521.72c-.79-3.91-4.24-5.23-6.04-7.12-.21-.22,2.75-1.82,2.51-5.39-.19-2.81-5-7.76-6.46-10.37,10.04,1.06,21.27,8.24,23.39,18.39l-13.4,4.49Z" fill="#fff"/>
    <path d="M588.56,264.19c-5.48,8.25-10.46,16.94-15.9,25.21-.48.73-1.44.95-1.86,1.57-3.51,5.14-1.89,8.41-11.16,7.38,5.58-13.73,14.16-28.83,28.92-34.17h0Z" fill="#fff"/>
    <path d="M125.72,200.43c8.65-2.02,18.37-2.95,27.31-2.66,3.11.1,13.85,1.04,16.26,2.14,1.01.46,1.5,1.03,1.13,2.15-1.22,3.68-39.39,4.17-44.4.36l-.3-1.98h0Z" fill="#fff"/>
    <path d="M90.2,738.09c-5.53-4.18-11.39-8.8-18.4-9.87,10.19-18.37,28.78-9.96,18.4,9.87Z" fill="#fff"/>
    <path d="M554.37,673.02c-.04,7.24,1.96,13.78,5.08,20.19.43.89,2.84,2.67,3.12,4.17.31,1.62-.62,2.84-.17,4.71.25,1.04,4.57,5.2.76,5.72-2.98.41-17.77-25.92-19.92-29.94-.14-1.77,9.33-3.69,11.12-4.85h0Z" fill="#fff"/>
    <path d="M282.19,538.27c-.74-.77,6.86-10.58,3.61-11.17-3.39,1.95-5.59,6.05-6.24,9.86l-7.16-4.16c.03-.78,8.18-12.46,8.81-12.92,2.66-1.98,8.38.44,10.52,2.62,1.35,5.87-.29,10.99-2.94,16.13l-6.6-.36h0Z" fill="#fff"/>
    <path d="M514.27,680.26c-6.2,7.97-.75,17.74,1.32,26.28l-15.12-2.63c-.32-.3,1.1-7.77,1.38-8.68.17-.56,1.05-.65,1.19-1.05,2.16-6.51,2.78-14.7,11.24-13.93h-.01Z" fill="#fff"/>
    <path d="M280.22,191.22h-11.18c.54-7.83,2.5-14.74,4.52-21.96l1.04-.43,6.18,1.12-.56,21.27h0Z" fill="#fff"/>
    <path d="M525.06,294.83c.09.26,2.02,1.34,1.05,3.53l-7.72-.82-15.29-26.12c13.66,3.77,17.68,10.99,21.96,23.41Z" fill="#fff"/>
    <polygon points="4.08 498.18 13.84 501.77 4.08 539.59 4.08 498.18" fill="#fff"/>
    <path d="M105.96,728.27l-13.85,22.26c-1.69-.09-3.35-.84-3.13-2.76s6-11.44,6.95-15.47c.61-2.6,1.5-5.49.2-8.01l9.83,3.97h0Z" fill="#fff"/>
    <path d="M290.08,242.48l-10.94,7.78c-1.92-.67-13.82-6.47-9.63-8.29,1.43-.62,15.77-3.38,17.11-3.26,1.24.11,4.04,2.93,3.46,3.76h0Z" fill="#fff"/>
    <path d="M283.5,147.84c-1.99,5.26-2.57,12.18-2.62,18.4l-5.96-.29c-1.78-1.25,1.72-14.35,1.94-17.06l6.65-1.05h-.01Z" fill="#fff"/>
    <path d="M580.67,720.34c-8.71.71-13.74-2.72-17.09-10.51,3.29.35,4.99-2.72,8.11-1.25,1.38.65,9.85,10.98,8.98,11.76h0Z" fill="#fff"/>
    <path d="M162.52,750.58c.02,2.03,2.53,11.89.29,12.44-4.93-1.65-10.27-3.08-14.07-6.86l13.78-5.59h0Z" fill="#fff"/>
    <path d="M382.12,776.22c-1.1,2.35-14.27,7.44-15.12,6.57l-.65-10.52,15.77,3.95Z" fill="#fff"/>
    <path d="M500.46,707.2l12.5,2.97c.07,1.57-10.38,7.8-12.5,8.21v-11.17h0Z" fill="#fff"/>
    <polygon points="4.08 627.67 12.63 636.86 4.08 638.84 4.08 627.67" fill="#fff"/>
    <path d="M84.29,758.48c2.05,2.52-9.78,10.44-13.15,8.53,2.58-1.31,10.71-11.53,13.15-8.53Z" fill="#fff"/>
    <path d="M421.96,744.42c-.05.18-.88.27-1.01.73-.52,1.83,2,4.93,1.94,7.4-2.07,1.53-6.16-7.86-7.25-9.5l7.24-2.98c.05,1.52-.54,2.92-.92,4.35h0Z" fill="#fff"/>
    <path d="M55.96,676.89l-8.49,3.35,5.27-10.51c.83-.6,3.79,6.07,3.22,7.16h0Z" fill="#fff"/>
    <path d="M115.84,298.36l1.98,7.89c-1.32-.05-4,.51-4.55-1.07.13-.73.84-8.61,2.56-6.82h.01Z" fill="#fff"/>
    <path d="M31.69,645.42c-2.16,2.54-5.19,1.96-5.91-1.32l5.91,1.32Z" fill="#fff"/>
    <polygon points="230.9 525.12 228.28 525.78 228.28 519.21 230.9 525.12" fill="#fff"/>
    <polygon points="294.02 540.24 292.05 540.24 293.04 536.96 294.02 540.24" fill="#fff"/>
    <path d="M341.35,669.08l1.64,17.08-28.26,25.63c-4.01-6.97-7.11-14.22-12.81-20.04,17.04,3.45,25.89.7,34.42-14.21.67-1.17,3.48-9.54,5.01-8.46h0Z" fill="#fff"/>
    <path d="M525.09,769.35c.43.83,1.78,1.23,1.01,3.58,4.53-1.09,9.1-.83,13.51.62,8.08,2.67,17.87,14.3,4.89,18.1-7.55,2.21-44.39,3.8-30.24-12.14-9.23-.77-37.19,3.56-29.93-13.17,6.41-14.78,32.7-12.57,40.76,3.01h0ZM498.98,759.94c-4.5.71-18.2,8.84-11.89,13.54,4.5,3.35,24.36,3.75,30,2.59,1.33-.27,3.27-2.01,4.77-2.47.22-10.99-13.54-15.13-22.87-13.66h0ZM515.07,787.25c1.51,3.03,39.73,7.26,30.1-6.1-5.06-7.02-19.51-7.24-25.96-2.3-1.94,1.48-5.41,5.86-4.14,8.4h0Z"/>
    <path d="M62.97,796.87c2.63,2.41,4.85,4.25,4.9,8.26,7.93-5.21,29.11.77,26.94,12.13-1.42,7.43-23.42,5.91-28.96,4.67s-8.28-2.51-7.86-8.9c-7.81.36-41.67,4.8-34.96-10.97,5.96-14.02,29.19-15.04,39.94-5.19ZM63.54,803.55c-4.46-10.32-16.47-12.15-26.45-9.13-4.05,1.22-16.32,9.29-10.84,14.03,3.48,3.01,29.22,3.38,33.74,1.63,2.38-.92,2.04-3.2,4.46-3.05,1.16-2.18-.71-3.02-.91-3.48h0ZM71.63,806.61c-3.9.67-14.71,7.66-8.32,11.29,4.97,2.82,37.06,4.44,26.26-7.19-3.71-4-12.85-4.98-17.93-4.1h-.01Z"/>
    <path d="M352.92,810.78c-.88,1.85-2.92,3.78-2.36,6.84-6.44-.02.88-15.52,4.92-14.47,1.84,1.48-1.57,5.55-2.56,7.62h0Z"/>
    <path d="M340.3,807.52c2.69,3.31,3.46,5.72,3.03,10.1-4.02.55-3.77-4.02-4.93-7.23-.43-1.19-5.07-7.96-.1-5.82,1.25.54,1.22,1.98,2,2.94h0Z"/>
    <path d="M157.25,797.93c1.56,2.97-1.45,3.24-2.16,4.76-1.2,2.58-.81,5.95-1.69,8.64l-2.7.39c-.98-2.79,2.03-16.27,6.55-13.79h0Z"/>
    <path d="M564.31,768.25c-1.26-2.55,2.19-15.67,5.51-15.03,2.5,2-.79,4.2-1.46,6.41-.81,2.67-1.38,5.47-1.6,8.26l-.87,1.08-1.57-.72h-.01Z"/>
    <path d="M559.93,762.79c.6,1.34,2.07,2.7,1.1,5.14l-2.62.3-6-13.71c2.5-2.29,6.79,6.64,7.52,8.26h0Z"/>
    <path d="M143.74,802.22c1.15,1.39,5.51,7.97,2.61,8.79-3.24.92-3.36-3.8-4.51-5.9-1.44-2.63-5.44-5.54-1.43-6.49,1.46.87,2.29,2.34,3.33,3.6h0Z"/>
    <path d="M28.66,745.77c.09.26,1.66.06,1.06,1.51l-3.25.65-5.29-13.12c5.16.51,6.12,7.03,7.48,10.96h0Z"/>
    <path d="M37.36,736.19c1.08-.32,2.21.19,2.13,1.45l-4.83,10.95c-2.96-1.88,1.03-11.91,2.7-12.4Z"/>
    <path d="M227.08,172.04c-1.17-2.63-3.01-7.11-5.02-9.1-3.47-3.45-11.85-3.14-10.9-8.17.45-2.37,7.5-3.42,10.04-5.6.84-.72,3.67-4.63,4.41-5.79,1.17-1.84.37-5.81,4.97-4.77,2.15.49,2.5,6.26,4.95,8.89,3.07,3.29,11.65,4.3,11.18,8.53-.33,2.99-8.31,4.02-10.81,6.32-3.91,3.58-2.32,11.39-8.81,9.69h0ZM242.08,155.08c-6.88-1.5-9.87-6.15-13.14-11.84-.91,7.44-7.65,9.04-12.5,13.14,6.22,1.45,9.66,5.72,13.14,10.52,1.68-6.66,7.54-8.39,12.5-11.82h0Z"/>
    <path d="M143.47,382.48c-.98-1.19,1.75-2.13,2.81-1.85,3.01.77,8.66,13.63,6.05,14.35-3.51.97-3.93-12.31-8.86-12.5Z"/>
    <path d="M162.2,379.88l1.53,2.17c-.8,1.84-1.92,3.46-2.48,5.42-.63,2.22-.06,8.45-2.99,7.51s1.05-13.93,3.94-15.1h0Z"/>
    <path d="M572.12,414.05c1.21,1.2-3.01,5.09-3.8,7.04-.91,2.24-1.43,4.98-1.47,7.41h-2.6c-1.57-2.86,4.24-18.06,7.88-14.44h-.01Z"/>
    <path d="M577.84,525.23c1.14-.25,2.25.19,2.12,1.46-.07.67-4.83,10.54-5.53,12.22-2.58-.19.12-12.95,3.41-13.68h0Z"/>
    <path d="M559.85,425.7c.13.37,1.39-.2,1.09.82l-3.24,1.31-4.63-13.12c4.5,1.29,5.45,7.21,6.79,11h-.01Z"/>
    <path d="M566.88,538.27c-.44-.28-3.67-9.49-3.3-9.85,2.65-2.57,6.67,7.76,5.62,9.21-.38.7-1.91.91-2.32.64h0Z"/>
    <path d="M40.64,472.95c-1.53,2.33-8.98,11.82-10.95,13.03-1.77,1.08-4.68,1.6-3.84-1.2.15-.49,6.19-5.37,7.5-6.97,6-7.33,11.47-16.52,13.59-25.85l2.17-1.1c1.72.39-.72,6.16-1.15,7.38-1.68,4.82-4.52,10.45-7.32,14.71h0Z"/>
    <path d="M341.92,213.01c3.2,5.33-4.27,12.4-9.07,13.41-6.76,1.43-17.54-.92-17.52-8.93l1.49-1.84,25.1-2.64Z"/>
    <path d="M350.33,167.76c9.28,1.14,8.85,14.91-.68,14.03-6.99-.64-5.12-13.77.68-14.03Z"/>
    <path d="M298.83,181.15c-4.08-4.48,1.28-15.36,8.28-9.92s-2.37,16.4-8.28,9.92Z"/>
    <path d="M343.99,155.07c-3.84-11.03,15.93-6.71,18.46-.38,3.1,7.76-6.79.38-8.93.38h-9.53Z"/>
    <path d="M302.39,149.97c3.88-.72,12.32.92,9.4,6.14-4.33-3.33-16.02,5.27-18.14,2.29-2.38-3.33,6.25-7.97,8.74-8.43Z"/>
    <path d="M444.14,446.46c6.27-6.72,10.13,7.3,3.76,9.35-6.71,2.15-6.55-6.36-3.76-9.35Z"/>
    <path d="M448.94,429.87c3.54-1.38,8.74,9.95,5.49,11.49s-8.7-10.24-5.49-11.49Z"/>
    <path d="M437.13,477.26c2.74-.98,12.77,1.39,11.35,5.41-.86,2.44-3.51-.99-5.51-1.62-2.41-.75-9.62.05-5.85-3.79h.01Z"/>
    <path d="M211.65,494.43c.2.16,2.71,3.99,2.78,4.24.67,2.51-1.86,7.21-4.85,6.76-5.36-.81-5.06-16.78,2.07-11Z"/>
    <path d="M201.42,488.87c-1.22-1.96,5.15-11.09,7.43-10.41,4.16,1.24-4.38,15.32-7.43,10.41Z"/>
    <path d="M207.24,534.32c.27-5.39,8.38-9.79,12.49-5.57.49,2.38-4.76,1.39-6.11,1.77-1.98.57-3.23,4.82-6.38,3.8Z"/>
    <path d="M98.65,389.16c3.68,5.41-12.56,14.13-14.96,10.35s12.35-11.94,14.96-10.35Z"/>
    <path d="M94.99,410.58c.96.92,2.59.31,3.7.11,1.6-2.2-2.45-6.53-1.24-7.82,2.92-3.11,7.95,9.42,1.5,11.03-7.78,1.94-8.73-6.45-5.78-6.41,1.01.01,1.48,2.77,1.82,3.1h0Z"/>
    <path d="M106.51,439.16c1.53-.11,2.73.12,4.06.88l.05,1.96c-1.95.77-4.15-.08-6.12.46-1.67.46-7.55,4.85-8.36,2.14-.76-2.54,8.54-5.31,10.37-5.44Z"/>
    <path d="M320.24,573.04c-2.07-1.11-12.53,2.83-13.06.39-.4-1.84,11.16-4.98,12.88-2.98l.18,2.59h0Z"/>
    <path d="M498.98,759.94c9.33-1.47,23.09,2.67,22.87,13.66-1.5.46-3.44,2.2-4.77,2.47-5.64,1.16-25.5.76-30-2.59-6.31-4.7,7.39-12.83,11.89-13.54h0Z" fill="#fff"/>
    <path d="M515.07,787.25c-1.27-2.54,2.2-6.92,4.14-8.4,6.45-4.94,20.9-4.72,25.96,2.3,9.63,13.36-28.59,9.13-30.1,6.1h0Z" fill="#fff"/>
    <path d="M63.54,803.55c.2.47,2.07,1.31.91,3.48-2.42-.15-2.09,2.13-4.46,3.05-4.51,1.75-30.25,1.38-33.74-1.63-5.48-4.74,6.79-12.81,10.84-14.03,9.98-3.02,21.99-1.19,26.45,9.13h0Z" fill="#fff"/>
    <path d="M71.63,806.61c5.09-.88,14.22.1,17.93,4.1,10.8,11.63-21.29,10.01-26.26,7.19-6.38-3.63,4.42-10.62,8.32-11.29h.01Z" fill="#fff"/>
    <path d="M242.08,155.08c-4.95,3.43-10.82,5.16-12.5,11.82-3.48-4.81-6.92-9.07-13.14-10.52,4.85-4.1,11.58-5.7,12.5-13.14,3.27,5.69,6.25,10.34,13.14,11.84h0Z" fill="#fff"/>
  </g>
  <line x1="85.97" y1="769.64" x2="86.68" y2="769.64" fill="none"/>
</svg>