<?xml version="1.0" encoding="UTF-8"?>
<svg id="Camada_1" xmlns="http://www.w3.org/2000/svg" version="1.1" viewBox="0 0 595.28 841.89">
  <!-- Generator: Adobe Illustrator 29.0.0, SVG Export Plug-In . SVG Version: 2.1.0 Build 186)  -->
  <path d="M.14,841.29V-.06h595v841.34H.14ZM37.61,3.89H4.08v433.16h22.02c.66-.49.74-.58.73-1.36-.03-3.33-1.6-8.96-1.74-12.75-1.35-35.6,2.88-72.98,4.68-107.78,3.17-61.38,5.83-122.79,9.76-184.12.98-15.3,3.73-32.46,4.02-48.58.04-2.29.38-7.22-.17-9.08-.16-.57-5.93-6.34-7.34-9.09-8.7-17-.69-23.16.9-37.73.78-7.09-.54-15.36.67-22.67ZM145.44,3.89H40.9c-.43,7.72-2.02,14.95-1.34,23.22.69,2.38,11.23.45,13.47.41,31.22-.51,62.5.45,93.72.03l-1.31-23.66ZM590.54,3.89H148.72c.8,7.87-.09,17.65,1.36,25.26,2.62,13.79,7.98,21.4-.16,36.08-1.36,2.46-6.82,7.61-7,8.12-.95,2.71.24,18.72.57,22.75.04.47,1.25.28,1.34,1.41,2.89,36.38,3.74,73.01,5.22,109.48l2.69-18c9.23-30.88,64.4-31.04,76.05-2.55,4.29,10.5,5.08,28.69,4.11,39.97-.24,2.74-3.19,11.85-3.1,12.49.13.93,3.46,2.53,4.39,3.92,4.46,6.66-7.41,14.74-7.18,16.34l10.13,10.32,17.43-13.54c-9.23-9.17-11.74-18.65-11.86-31.56-.03-3.36,1.41-8.56,1.07-11.83-.47-4.51-2.18-7.98-1.73-14.46,2.93-41.87,64.43-40.44,76.48-9.32,3.34,8.63,2.22,17.5,3.8,25.75.93,4.85,4.65,4.72,3.09,13.68-1.7,9.77-9.9,8.45-12.62,11.7-.93,1.11-2.24,5.88-3.32,7.86-.85,1.56-4.62,5.4-4.3,6.23,6.29,3.38,13.6,6.54,17.77,12.53l1.34.04c4.37-2.94,9.44-6.3,14.46-7.95,2.25-.74,8.61-1.28,9.84-1.99.38-.22,4.14-5.57,5.59-6.87,7.69-6.93,17.51-11.48,27.93-12.53.45-2.78-.62-5.44-.68-8.17-.82-40.39-1.95-86.2,0-126.27,2.17-44.64,23.14-85.99,72.66-89.06,63.49-3.94,84.86,46.9,86.51,100.89,1.47,47.77-.75,95.88-.69,143.66l-44.05.98c5.78,4.45,10.23,8.92,13.16,15.76,1.34,3.13,2.59,11.06,3.63,12.8.32.54,4.2,2.96,5.42,4.41,9.86,11.73,3.85,18.77,6.72,28.66.18.62,1.61.97,2.14,1.94,5.63,10.29,7.36,18.54,3.29,29.95-.85,2.39-3.78,6.34-3.98,7.85-.29,2.24,1.23,6.38,1.24,9.06.01,7.02-3.96,14.58-8.33,20-1.1,1.36-3.99,2.63-4.53,4.01-.85,2.14.12,4.34-.38,6.08-.59,2.06-4.28,8.99-5.73,10.82-4.92,6.19-10.18,4.97-13.14,7.57-2.73,2.4-1.77,6.1-8.26,9.16s-14.22.51-16.88,5.79c17.45,5.96,35.74,3.49,53.91,3.95-.56-11.15,2.62-22.18,11.16-29.93,1.55-1.41,7.2-4.27,7.78-6.02,2.33-7.1-9.25-19.49-.54-23.55,4.68-2.18,29.46-2.91,32.27,1.27,2.17,3.22-1.7,11.79-2.75,15.63-.14.5-1.12.56-1.21,1.01-1.44,7.17,1.91,6.19,6.19,10.06,21.32,19.25,13.13,42.58.46,64.18-4.57,7.78-7.92,10.68-17.62,11.3-15.94,1.02-20.87-6.55-27.1-19.39-3.11-6.41-6.22-14.07-6.78-21.15-.46-.12-1.28-.77-1.53-.77h-32.54c6.07,3.64,12.48,6.71,18.06,11.2,22.39,18,34.23,59.13,31.17,86.98-.78,7.09-2.66,9.14-9.03,12.01.86,7.32-1.96,15.32-2.08,22.3-.36,20.8,8.07,40.03,5.09,60.9-.75,5.3-2.48,10.94-4.26,15.99,12.18,7.91,25.55,16.78,35.68,27.25,10.72,11.07,18.94,26.6-1.37,32.83-13.47,4.13-27.41,2.85-41.22,2.18-41.73,13.27-125.16,49.05-164.41,20.1-1.99-1.46-8.67-8.87-10.01-9.11-22.67,5.48-55.57,6.99-68.25-17.13-20.27-38.56,30.64-78.91,58.45-97.2,8.79-5.78,18.48-10.63,27.13-16.26-1.2-5.77,1.86-15.14,1.3-20.09-.49-4.42-5.96-11.34-5.78-16.25-13.57,17.97-41.22,19.51-53.5-.73-5.94-9.8-5.99-20.54-3.62-31.6.06-.27,2.15-1.75,1.71-3.55-.19-.78-2.64-.44-1.76-3.73.15-.57,1.21-.56,1.48-1.3,8.36-22.8,17.99-36.51,33.58-54.81.54-.64,3.71-2.52,3.71-3.2v-16.76h-31.56v26.62c0,3.33,6.46,10.37,3.88,14.39-.29.46-7.92,5.73-8.89,6.23-8.85,4.61-24.86,5.6-34.58,3.84-5.46-.99-6.67-1.93-9.95-6.33l-12.86,3.94c4.96,15.68-19.29,15.86-29.34,15.09-3.14-.24-10.87-2.72-12.5-2.62-1.51.1-2.78,2.57-4.45,3.38-8.21,3.98-18.72,3.6-27.73,3.14-2.51-.13-6.78-2-8.59-1.88-1.13.07-5.37,2.33-7.64,2.78-8.88,1.74-15.49,2.09-24.54,1.08-3.34-.37-11.04-2.83-13.17-2.68-2.52.18-3.1,2.48-5.12,3.48-10.87,5.4-36.17,2.43-47.94-.98-4.45-1.29-14.91-5.28-14.32-11.25.31-3.16,3.67-3.98,3.94-4.82,1.49-4.7.3-13.42,1.97-18.58-8.79-.51-18.42-1.44-26.95-3.62-21.33-5.45-30.77-19-5.55-29.24.15-.26-.26-1.98-.36-1.98H4.08v397.67h586.45V3.89ZM511.64,38.06c-16.26-21.17-50.41-25.14-74.8-17.93-35.19,10.4-50.24,46.75-52.07,80.06-2.06,37.56-1.35,83.8-.04,121.62.17,5.01,1.26,10.25.69,15.42l10.76,1.11,15.57-4.19c1.24-41.29-1.73-83.62-.05-124.79.84-20.64,3.2-42.85,17.44-58.81,19.92-22.31,56.53-25.12,82.51-12.49ZM43.72,69.41c3.2,2.16,28.63-.41,34.3-.48,9-.11,18.01.16,27.01,0l35.33,1.2c12.19-8.16,12.67-26.69,6.76-38.69l-64.51-1.3-42.78,1.27c-5.84,7.42-5.67,19.5-2.54,28.33.67,1.89,4.94,8.65,6.43,9.66ZM537.28,254.98v-69.67h-59.5c-7.14,0-11.01-6.8-5.95-12.52,5.17-5.84,15.16-5.81,22.05-3.91,2.01-14.57,22.65-17.99,32.55-8.55,4.89,4.67,1.62,7.83,10.85,5.25-.91-19.74,1.21-40.56.05-60.18-.7-11.88-3.92-31.05-8.58-42.7-18.03-45.02-91.89-36.01-108.19,8.18-4.92,13.35-5.26,29.99-5.56,44.09,6.02-2.34,11.95-3.58,18.4-1.97.78-1.82-1.19-1.92-1.29-2.42-.65-3.48,2.37-12.42,4.45-15.78,10.07-16.33,38.34-13.34,42.22,6.37,13.1-7.3,32.66,1.13,30.23,17.75,5.9-1.3,14.71,3.58,14.25,10.1-.56,7.93-15.55,5.6-20.46,5.64-29.12.24-58.59-.65-87.49.68l.31,99.63c2.71.64,5.8.6,8.45,1.41s7.36,3.85,8.51,4.04c2.83.46,9.96-1.48,14.33-1.23,9.6.55,21.92,5.86,25.74,15.16,5.44-.99,10.56,1.05,15.63,1.32,15.86.86,33.18-.17,49.01-.69ZM139.52,73.56H47.81s-1.6,1.08-1.6,1.08l-.08,9.76,93.38.33v-11.17ZM140.84,99.85l-.95-11.21c-31.03-2.62-62.63-2.43-93.66.11.07,3.05-2.94,11.44,1.57,11.82,5.25.44,14.62-1.29,20.35-1.41,24.2-.5,48.51.09,72.68.69ZM414.99,119.24v12.16h100.92c2.88,0,4.35-2.94,2.88-5.51-2.92-5.12-13.12-2.01-13.72-3.04,5.35-14.33-10.8-26.75-23.27-19.62-1.84,1.05-2.09,4.08-5.67,3.2.05-25.9-40.34-24.71-40.12,1.02.02,2.21,2.33,8.05.7,9.22-7.78-1.03-15.19-3.7-21.73,2.57ZM140.82,103.15c-31.92-1.62-64.07-1.93-95.88.74-1.75,23.49-2.43,47.09-3.99,70.6-2.63,39.77-5.29,81.07-7.26,121.59-1.16,23.97-3.77,49.04-3.99,72.91-.02,2.03-.32,4.96.5,6.78s6.87,5.01,8.39,3.48c.6-.6,4.16-11.77,4.23-12.95.25-4.15-1.78-10.52-1.96-15-.42-10.79.08-21.63,2.01-32.24-.37-2.6-5.75-2.04-5.86-5.9-.09-3.4,7.09-19.76,9.02-23.79,1.69-3.53,3.6-8.17,6.71-10.42l-.46-1.64c-10.62-2.11-9.73-3.54-6.05-12.07,3.1-7.18,7.3-11.96,8.92-20,1.34-6.63,2.35-18.06,2.21-24.77-.08-3.91-1.96-4.81-2.04-7.85-.43-16.43,4.78-30.16,18.76-39.15,18.03-11.6,44.12-13.58,60.51,1.96,3.68,3.49,6.74,10.83,9.05,12.97.63.59,1.56.93,2.43.85l-5.27-86.09ZM537.28,182.02v-13.15l-9.2,1.98c-2.65-17.76-32.92-16.71-31.56,2.63-3.26.47-5.02-2.09-8.28-2.57-5.73-.84-14.65.79-16.02,7.51.18,3.67,8.08,4.08,10.8,4.28,6.58.48,13.5-.75,19.75-.67,4.28.05,33.49,1.69,34.52-.01ZM138.86,187.27c-16.99-35.57-81.66-19.99-79.54,19.72,25.15-10.8,51.94-18.88,79.54-19.72ZM224.63,185.67c-14.91-25.02-60.59-23.35-69.27,5.42-.69,2.29-.55,5.06-1.37,7.36,23.19-8.55,48.44-10.73,72.97-7.89-.47-1.93-1.35-3.25-2.33-4.89ZM317.24,198.94c-5.58-20.19-14.78-29.67-37.33-30.1-15.84-.3-34.35,9.59-34.55,27.31,0,.91-.22,1.24.85.85,23.87-5.94,48.68-2.33,72.13,3.41.67-1.6-1.04-1.24-1.11-1.48ZM142.8,195.16c1.37-6.28-7.22-4.8-11.49-4.59-17.66.87-52.55,10.38-68.5,18.28-2.38,1.18-7.73,3.86-2.79,5.75,26.2-10.07,54.31-20.73,82.78-19.44ZM228.21,194.57c-17.82-3.59-36.05-2.14-53.76,1.32.36,6.28-.75,15.22-5.43,19.88-6.04,6-6.21-.58-8.92-1.4-8.43-2.56-10.68,6.93-8.1,13.36s7.42,2.79,10.27,4.84c.74.53,2.93,8.02,4.32,10.17,2.91,4.47,10.29,9.7,15.66,10.27-.29-12.22,18.16-5.53,24.77-2.74,2.71,1.14,3.77,4.02,7.14,2.8,2.22-.8,10.19-10.14,11.46-12.4,7.26-12.87,4.19-32.07,2.59-46.1ZM146.09,205.02l-.32-7.88-2.97,1.65,3.29,6.23ZM171.73,197.14l-17.12,4.24-.63,9.56c2.45-.11,4.02-.96,6.61-.38,3.04.68,2.77,2.6,4.88,3.67,5.16-4.41,5.96-10.6,6.25-17.09ZM143.73,213.32c-.76-3.08-2.95-14.84-5.85-15.54-15.99,1.01-31.78,4.24-46.92,9.31.07,16.11-.42,32.97-5.74,47.91,15.75,12.08,45.11,12.93,56.16-5.73,7-11.82,5.38-23.65,2.36-35.96ZM301.26,199.77c-17.36-2.53-35.91-3.41-53.19.06-1.02,14.98-5.4,33.7,3.08,47.07,12.13,19.12,44.95,18.49,56.18-1.28.91-1.61,3.22-9.06,3.76-9.4.93-.59,3.4-.19,5.11-.8,8.53-3.06,9.98-20.33-.51-17.59-4.34,1.13-4.05,6.33-8.9,4.35-6.82-2.79-7.13-16.38-5.54-22.41ZM303.88,201.08v10.85c0,2.68,3.18,5.69,4.93,7.56,2.12-3.85,6.62-5.42,10.85-5.59-.84-2.17-.15-7.98-1.48-9.37-1.04-1.08-13.39-4.35-14.31-3.44ZM87.58,208.31l-27.3,9.84c-.24,14.95-.54,28.32-7.35,41.91-1.24,2.47-7.62,9.68-5.99,12.56,17.33,5.6,30.83-4.14,35.86-20.78,1.72-5.67,4.33-18.69,4.77-23.61.56-6.4-.36-13.44.02-19.91ZM160.5,235.32c-.44-.41-9.78-.73-11.11-4.01v26.95s19.05-9.21,19.05-9.21c-2.2-1.69-3.29-3.09-4.71-5.47-1.18-1.98-2.91-7.96-3.24-8.26ZM467.99,252.6c-7.73-9.44-17.47-10.44-28.98-10.09-2.04.06-5.62,1.49-7.24,1.29-2.67-.33-9.05-5.42-16.42-5.93-9.08-.63-12.98,3.1-19.11,3.33-3.65.14-7.64-1.63-12.46-1.32-10.04.65-20.88,5.77-27.97,12.78-1.36,1.34-4.56,6.62-5.9,7.25-1.25.59-7.63,1.07-10.5,1.99-11.83,3.82-22.83,14.74-25.76,26.83-.67,2.75-.95,9.63-1.55,10.94-.25.55-5.85,4.83-6.91,6.41-4.1,6.11-5.09,16.54-.25,22.43,1.04,1.26,4.3,2.8,4.75,4.5.54,2.03-1.05,9.5-.56,13,.87,6.17,8.17,10.09,13.82,10.83l.63-34.57c6.52,1.14,12.81,2.09,19.08-.62,5.28-2.29,7.59-7.47,12.18-10.62,11.11,7.41,26.1,3.96,28.95-10.06,10.92,6.4,24.54,11.32,34.13-.04,1.25-1.48,1.37-4.93,3.98-4.61.86.1,4.91,7.94,7.23,9.92,5.09,4.36,12.55,6.03,19.03,4.55,2.24-.51,9.88-6.65,10.19-2.32.33,4.63-1.47,6.79.58,12.67,2.56,7.36,7.22,8.16,12.95,12.05-2.23,7.78-.34,22.14,9.43,22.88,11.38-31.23,43.84-21.14,38.14,12.18-2.25,13.17-10.78,22.28-24.58,22.75-4.08,12.61-9.04,25.51-18.72,35.19,4.63,1.59,12.36-2.55,15.14-6.08.91-1.15,1.1-3.98,2.22-4.83,2.59-1.96,8.23-1.87,12.21-6.2,5.91-6.44,3.39-12.92,5.59-17.41.15-.32,4.33-2.89,5.61-4.25,3.55-3.74,6.13-10.01,6.55-15.14.35-4.23-1.74-10.04-1.31-12.44.32-1.82,3.46-4.46,4.14-5.8,3.97-7.75,4.12-18.84-.01-26.59-.83-1.55-4.06-3.76-4.61-5.93-1.33-5.17,1.26-11.25-1.64-19.39-2.97-8.33-9.01-9.69-10.64-13.02-1.1-2.25-.96-6.52-1.87-9.3-2.31-7.06-9.17-15.57-15.81-19.03s-14-4.81-21.45-3.2c-.11-1.94-1.08-3.53-2.27-4.97ZM225.39,285.46c-.65-.98-2.97-1.94-2.99-3.9l-.02-22.29c3.07-4,16.31-13.66,5.9-16.5l-14.82,14.85c-8.17-4-19.66-12.83-28.56-6.26.01,2.18,15.87,4.52,17.65,6.98,3.54,4.89-7.75.12-8.28.07-3.82-.32-7.52,2.49-6.1,6.42.39.32,8.54-2.15,9.85.34.61,2.65-7.97,2.13-8.44,5.78l1,1.81,5.97-.55c1.09,4.75,1.4,7.59,4.82,11.3.99,1.07,2.97,1.1,4.17,3.06,2.66,4.34,5.03,18.03,7.43,24.1,3.04,7.7,10.12,22.8,19.24,24.83,10.76,2.39,15.72-7.45,14.51-16.48-1.05-.7-3.15.09-3.9-.37-.62-.38-3.95-11.12-5.17-13.53-3.18-6.28-8.3-13.69-12.27-19.66ZM146.09,259.25c.25-3.58-.18-7.26,0-10.85-3.74,4.41-6.7,10.25-12.49,12.5l6.21,4.63c2.88-2.5,5.99-2.18,6.28-6.28ZM179.36,262.46c-7.19-9.07-2.86-14.5-17.08-8.06-2.65,1.2-20.49,12.55-20.61,14.04,8.55,8.41,10.56,19.7,13.7,30.69.13.45,1,.51,1.29,1.5.59,2.01.67,4.19.61,6.27,3.66-4.36,1.9-15.78,4.09-19.9,1-1.89,2.38-1.69,2.81.16.63,2.73-5,32.07-6.54,33.61-.57.57-2.13.28-2.38,1.01-.17.49-.1,8.32.13,8.69,21.09,4.5,43.1,4.08,64.33.75.63-.56-6.86-12.96-7.72-14.95-2.62-6.04-6.75-24.81-8.82-28-.7-1.08-3.93-2.39-5.7-4.82s-2.47-7.16-2.77-7.41c-.73-.62-5.74,1.38-7.57-3.28-.48-1.22,0-2.91-.62-3.98-.24-.42-5.33-4-7.17-6.32ZM188.17,256.3c-3.53.3-6.56-.15-9.86-1.32-.67.67,4.5,7.64,5.59,8.54l4.26-7.22ZM318.11,273.8c.69-.89,3.14-3.68,3.25-4.32.55-3.25-14.97-12.56-18.5-13.2-1.48.08-4.37,8.33-5.93,10.47-7.67,10.55-25.5,15.39-32.19,1.39-1.87-3.91-1.09-9.49-6.72-9.76-2.9-.14-18.86,11.47-18.49,14.51,6.29,11.52,14.04,26.87,14.4,40.23.18,6.65-1.98,3.8-2.89,5.74s-.63,7.23-1.63,10.13c-.4,1.15-2.5,1.68-2.08,3.53,13.98,1.92,28.22,3.5,42.39,2.62,1.37-.08,15.86-1.47,14.4-3.27-8.83-6.9-7-20.98-.53-28.87,1.31-1.6,4.6-3.29,5.19-4.67.83-1.95.63-6.1,1.31-8.55,2.3-8.29,2.94-9.47,8-15.99ZM101.63,275.1c-7.36-5.43-9.5-14.17-17.99-16.83-1.99,7.01-9.09,14.12-15.79,16.76-2.65,1.04-9.93,1.69-11.22,2.75s-8.21,13.28-9.26,15.54c-1.51,3.22-7.36,17.62-6.15,20.16,1.76,3.67,29.61,11.12,34.74,9.23,1.23-.89,4.44-25.6,5.93-29.74,1.18-3.27,3.04-2.19,3.02.36-.02,3.94-4.11,25.41-5.38,29.53-.86,2.78-3.15,3.29-5.75,2.46l-1.32,13.8c21.52,1.56,43.98,3.46,65.06-2.33,4.54-14.06,2.25-30.25,2.01-44.99l2.67.29,1.27,27.32c2.13.62,11.19-1.84,11.57-3.59-2.12-16.31-6.28-39.21-20.41-49.69-10.94-8.12-8.65,4.62-12.81,9.41-.19.22-4.5,3.1-4.83,3.24-6,2.5-10.55-.15-15.34-3.68ZM295.1,263.95c.8-1.12,1.63-3,1.89-4.36-9.81,5.29-20.66,4.39-31.23,2.62,4.42,16.15,20.93,13.55,29.35,1.74ZM226.3,262.86v18.73c0,.99,10,13.88,11.36,16.29,3.22,5.75,6.13,12.47,7.72,18.88,1.9-.23,5.63-.47,5.84-2.91.44-5.03-6.66-25.55-9.22-30.87-3.47-7.22-9.83-14.64-15.7-20.13ZM121.48,269.16c.47-1.19,1.5-2.15-.1-2.98-8.4,1.34-17.18.68-25.24-2-.84,1.13,7.17,8.49,8.6,9.47,6.81,4.68,13.61,3.47,16.75-4.49ZM453.78,312.16c-12.91,4.81-24.51,1.04-32.54-9.91-8.79,11.15-24.1,9.41-35.53,3.43-5.28,11.68-19.17,15.76-30.12,9.22-7.67,9.08-17.32,13.52-29.39,11.33-1.62,15.92-.71,33.37,2.04,49.21.08.48,1.14.45,1.24.97,3.25,17.95,6.36,35.91,15.18,52.09,1.72.22,1.03-.06,1.33-.95,1.95-5.68,2.29-13.6,4.4-19.93,2.45-7.36,8.75-20.03,15.36-24.08,2.54-1.56,9.92-3.44,10.31-3.83,1.19-1.17,5.41-18.91,7.97-21.79,6.65-1.53,2.58,1.98,1.66,4.11-2.14,4.93-4.04,10.03-5.53,15.19,3.24.6,6.48,1.53,8.22,4.6,3.62-1.39,10.37-6.31,13.81-6.59,3.73-.3,5.79,1.9,7.88,1.93,1.96.03,3.78-1.52,7.17-1.19,9.41.91,21.5,16.42,24.74,24.92,22.67-14.47,18.24,19.46,19.05,32.21,17.91-7.74,25.85-26.94,31.06-44.53,5.78-1.44,12.07-.74,16.63-5.4,9.39-9.62,11.98-29.94,1.32-39.49-11.12-9.97-25.36,5.6-27.41,16.38-4.9.2-9.44-3.47-11.76-7.46-1.41-2.42-4.35-10.79-3.9-13.03.05-.27,2.78-2.11,1.17-4.96-8.63-3.42-15.45-13.02-14.35-22.46ZM52.73,404.84v-13.47l3.28-.99c-1.03,2.31-1.36,20.84,3.58,13.76s-2.49-33.1,11.22-11.15c6.37-7.06-1.63-16.85-4.29-23.96l3.96-43.73-24.96-5.23c-2.03,1.59-2.33,28.48-2.03,32.54s2.6,10.5,2.55,13.78c-.03,1.93-2.42,6.38-2.98,9.39-1.35,7.35-4.57,19.31.79,25.09,2.37-.07-1.21-12.31,4.27-11.16-.49,5.08-3.1,14.57,4.61,15.11ZM151.34,387.75c5.24-7.56-3.17-16.53-3.19-22.02,0-3.91,2.73-12.81,3.18-17.76.82-9.03.66-18.2.66-27.26l-8.44,1.41c-1.42,3.18-.38,6.63-.92,9.92-2.39,14.53-1.76,18.69,2.08,32.58,2.01,7.28,3.31,15.16,5.33,22.15.27.92-.49,1.18,1.3.98ZM221.7,333.85c-21.89,4.26-44.47,4.13-66.4,0-.46.36-1.35,10.6-1.28,11.57.06.87.22,1.16,1.06,1.47,1.84.66,11.13,1.8,13.71,2.07,17.41,1.85,36.26,1.37,52.91-3.93v-11.17ZM305.2,347v-10.52l-17.4,2c-14.41.47-28.6-.51-42.72-3.32-3.71.38-5.89,8.22-3.92,9.95,2.1,1.85,22.97,4.97,26.87,5.21,12.29.74,25.29-.18,37.17-3.31ZM225.65,335.82v9.53l5.91,20.7c.03-4.07,7.78-24.98,5.92-26.94l-11.83-3.29ZM137.54,340.42c-21.54,5.11-43.97,5.04-65.74,1.32l-.7,12.76c21.88,3.8,46.18,5.06,67.45-2.24l-1.01-11.84ZM223.01,348.31c-22.32,6.82-46.09,4.81-68.96,2.05.41,4.32-2.76,12.63-2.61,16.05.18,4.22,6.13,11.38,5.22,16.45-.43,2.39-5.06,8.31-5.35,10.45-.84,6.23,3.34,17.01,2.1,23.94,25.83,2.66,53.57,4.47,78.51-3.84,1.69-2.62-2.13-38.1-3.07-43.65-1.29-7.58-3.83-14.3-5.84-21.45ZM236.42,358.41c-5.28,15.65-2.64,22.65-1.55,38.19.32,4.57-1.03,10.15.91,14.21,1.78,1.59,23.91,4.37,27.64,4.58,6.56.37,50.98.35,53.3-3.29-.52-14.95-2.38-30.07-3.62-45.06-.24-2.87.55-7.46,0-9.85-.1-.43-5.53-6.41-5.93-6.6-1.32-.62-18.54,2.77-22.03,2.98-11.51.69-23.98-.69-35.29-2.82-2.12-.4-7.48-2.62-8.75-2.46-2.17.28-2.78,6.94-3.51,8.98-.29.8-1.1.98-1.16,1.15ZM138.86,356.2c-22.35,6.19-45.61,5.34-68.37,1.97.29,3.74-1.36,7.74-.62,11.47.42,2.12,5.16,8.43,5.93,11.18,2.5,8.91-1.37,21.17-10.56,10.87-.17,6.59-1.6,19.74-11.18,16.43l-.37,13.84c30.96,7.58,64.82,6.39,95.71-1.01,3.1-2.66-3.05-39.62-4.56-45.39-.28-1.07-1.23-1.03-1.47-1.87-1.62-5.76-3.59-11.57-4.51-17.49ZM312.43,416.67v20.38h32.22c1.27-4.39-3.45-7.76-4.79-10.69-4.62-10.08-9.19-24.82-11.6-35.16-1.11-4.77-3.78-29.73-4.73-30.98-.24-.32-6.69-1.42-7.81-2.04.65,7.07.53,14.34,1.26,21.4.12,1.19,1.3.7,1.42,1.89,1.01,10.06.87,20.27,2.61,30.26-.05,4.84-5.21,3.76-8.58,4.95ZM421.16,395.39c-3.44-5.25-10.2-16.2-17.02-16.87-1.72-.17-4.97-.01-4.95,2.33.01,1.15,11.64,15.51,13.51,18.72,1.66,2.85,8.92,17.14,8.21,19.4-1.88,1.23-2.85-.99-3.65-2.26-5.88-9.38-8.68-20.48-17.12-29.58-7.02-7.57-9.09-4.91-14.47,2.52l-11.45,35.07c-1.44,1.83-3.23.71-3.17-1.61.19-6.95,7.38-24.7,10.29-31.85,1.11-2.74,3.96-5.19,3.12-8.12-1.56-5.44-7.3-.75-9.51,1.73-4.94,5.53-9.77,20.75-11.84,27.73-1.02,3.43-1.38,7.13-2.05,10.64-.68-.03-1.43.21-2-.29-2.26-1.97,3.22-19.28,4.04-22.85l8.49-15.97c-6.67,2.12-10.98,8.4-13.83,14.44-6.81,14.44-10.43,32.71-11.19,48.62-.2,4.12,1.05,7.96.68,11.87-.75,8.06-17.21,35.38-21.6,44.79-4.03,8.63-7.18,17.78-10.95,26.52l-1.95.66c-.58-.47-.89-.68-.9-1.5,0-2.17,4.9-13.38,6.47-15.57-6.74-.02-7.32.59-8.89,6.55-5.94,22.58,1.4,47.52,28.86,45.28,24.53-2,33.09-34.82,37.95-54.11,2.62-10.38,4.35-31.6,8.01-39.95.73-1.67,4-3.8,5.65-6.84,6.33-11.65,6.11-36.36,8.01-50.37.07-.52,1.18-.24,1.34-1.42.59-4.31,1.83-24.85-6.92-14.14-1.47,1.8-5.83,11.92-6.39,14.01-.7,2.59-1.57,12.7-2.19,13.57-1.69,2.37-2.99-.47-3.02-2.3-.12-7.08,4.83-22.52,9.56-27.97,2.55-2.94,5.19-4.27,8.84-2.22,5.41,3.04,2.41,11.14,3.65,16.06.69,2.71,9.15,13.46,7.58,15.1-2.46,2.57-6.02-7.29-7.33-8.78-.61-.69-.65-1.59-1.56-.44-2.19,7.93-1.59,16.13-2.24,24.04-.1,1.19-1.32.71-1.42,1.89-.16,1.92-.29,8.17.07,9.75.16.69,7.16,10.7,8.18,11.67,2.55,2.44,9.22,5.07,10.49,7.26,2.14,3.68,3.02,12.65,4.39,17.16,8.91,29.39,27.82,104.55,74.44,79.95,10.12-5.34,27.13-26.52,28.6-37.85.34-2.58-6.4-7.63-8.79-9.33-7.51-5.36-18.65-10.32-27.91-10.54-.65.55,10.23,17.61,2.63,12.81-.95-.6-8.27-17.39-9.85-20.21-8.18-14.52-18.8-28.71-27-43.52-.35-9.51,4.15-18.15,4.66-27.61.35-6.35-.06-23.36-2.73-28.21-3.53-6.42-7.55-1.41-11.09,1.58,1.96,1.48,6.86,16.79,5.91,17.74l-2.22-.08c-5.71-12.82-9.26-26.23-19.45-36.42-3.7-3.7-9.68-9.2-15.14-6.56,4.46,5.46,9.33,10.56,13.02,16.56,1.3,2.11,9.02,16.31,9.22,17.78.34,2.52-.53,3.18-3.09,2.7-2.33-5.15-4.3-10.65-7.07-15.6-1.27-2.27-2.76-3.79-3.94-5.59ZM544.51,381.17c2.77.64,25.59,1.67,25.63-.98-4.91-2.09-12.12-2.06-17.43-1.67-1.77.13-8.29.51-8.2,2.65ZM50.2,424.46l.26-16.33c-2.2-3.29-10.3-4.88-11.71-8.05-1.87-4.2.59-14.84-.79-16.96l-8.24-2.61c-.21,2.17.31,4.66-.03,6.76-2.07,13.06-2.07,29.95,0,43,.6,3.74.29,7.24,2.07,10.97,4.78,10.03,20.87,9.46,30.17,10.92l1.31-24.97-13.04-2.74ZM570.81,383.81h-28.27c.7,5.15,5.28,13.58,3.8,18.59-.89,3-15.38,10.32-15.63,16.23,16.78,5.13,36.32,4.42,53.26,0-3.35-7.9-10.73-11.08-16.29-16.89-1.37-6.36,2.98-11.74,3.14-17.93ZM226.3,419.63v17.42h11.83l.66-22.35c-.75-.74-12.06,3.54-12.49,4.93ZM265.09,481.74l2.56-62.02-25.57-3.71-2.58,49.25c7.97,1.28,15.91,4.38,21.25,10.63,1.73,2.03,1.75,5.5,4.34,5.84ZM283.5,418.64v47.98c9.95-.82,17.82,2.21,24.68,9.18,1.48,1.5,1.91,5.55,4.63,3.36,2.69-2.15-3.38-9.66-3.02-12.87l-.65-48.97-25.64,1.32ZM270.35,418.64l-.37,17.79,9.62.33.33-17.5-9.58-.62ZM223.01,419.3l-26.3,3.28-3.82,54.83,5.47,4.97c5.59-7.49,13.89-11.25,21.24-16.22l3.41-46.87ZM180.94,422.59l-26.96-1.97-4.49,57.73c9.94,6.96,9.03.25,16.54-3.94,2.77-1.55,7.12-3.2,10.3-3.18l4.61-48.64ZM586.51,431.06l-1.61-9.05c-18.21,4.82-36.75,4.68-55.07.53l-1.76,5.61c4.24,1.18,7.65,4.12,10.21,7.61,6.47-5.42,13.43-4.53,17.1,3.27,6.96-5.68,15.11-10.04,22.34-1.99,2.18-2.94,4.84-5.71,8.8-5.98ZM194.09,422.59h-10.52c.59,4.53-2.49,10.55-.33,14.46h9.53l1.31-14.46ZM150.69,423.91l-7.83,2.02.6,11.13,6.29-.62.94-12.53ZM140.18,426.53l-27.52,3.39c-.49,15.96-.08,32.39-2.02,48.25-.14,1.17-1.26.91-1.34,1.41-.12.74-.63,5.44-.56,5.72.23.91,7.28,5.18,7.12,7.61,5.51-8.45,13.35-13.83,22.37-18.19l1.95-48.2ZM95.47,429.81l-28.24-1.27-5.89,66.94,7.72,1.28c3.52-8.61,13.09-15.05,21.69-17.76l4.72-49.19ZM110.59,429.82h-11.18c-.3,7.68-2.73,13.89-1.97,21.69l11.01-2.14c1.66-1.96.41-11.56.77-14.66.09-.79,2.54-2.29,1.37-4.89ZM553.75,444.91c-1.11-10.56-9.09-12.04-16.02-4.68-3.75-2.37-4.53-7.63-9.65-9.1-.03,13.84,5.51,27.3,12.87,38.73,3.55,5.51,4.12,6.69,11.1,7.3,17.95,1.58,20.13-2.58,27.42-17.33.99-2,3.98-7.55,4.45-8.84.71-1.99,3.86-16.54,3.32-17.23-4.49,1.47-6.63,4.46-9.53,7.87-5.82-8.04-11.76-7.4-18.76-1-1.99,1.82-1.67,5.1-5.21,4.27ZM467.17,444.52c.97-.99,7.4-5.65,6.03-7.49-14.85-6.59-13.64,6.16-16.12,16.45,3.97-2.33,6.91-5.74,10.09-8.96ZM491.02,449.3c1.24-1.52,3.84-3.7,2.22-5.36-1-1.02-14.97-6.06-16.62-5.59-.54.15-5.74,7.04-7.37,8.58-2.12,1.99-10.31,7.98-11.31,9.38-2.49,3.47,3.78,9.3,4.72,12.96.5.73,1.05.65,1.82.57,4.61-.54,23.12-16.34,26.54-20.53ZM149.38,439.67c-2.16.32-6.08-1.14-6.58,1.65l-2,32.84,4.97,2.97,3.61-37.46ZM192.77,439.68h-10.52l-2.55,31.12,9.46,5.01c1.65-.21.77-6.47,1.01-8.06.07-.49,1.2-.25,1.34-1.41.98-8.3.46-18.19,1.26-26.66ZM237.48,439.68h-11.83c1.14,2.75-1.19,3.91-1.37,4.89-1.29,6.92-.51,15.81-1.96,22.94,4.72,3.55,8.77-.29,13.08-2.63l2.09-25.19ZM280.22,439.68h-10.52l-1.31,34.83,11.83-7.56v-27.28ZM31.5,445.8c-4.6-3.12-17.98,6.16-14.9,12.4,5.13,10.41,33.55,12.65,43.95,12.94l1.4-16.35c-9.68-.78-20.16-1.35-28.52-6.67-1.13-.72-1.48-2.02-1.93-2.33ZM510.23,454.89c-2.57-1.65-10.88-8.99-13.7-7.69-8.21,10.48-18.79,19.1-30.63,25.32-1.02,1.52,6.72,13.1,7.65,12.92,6.18-3.79,12.67-7.41,18.4-11.88,3.13-2.44,16.12-13.79,17.76-16.42.43-.7.99-1.37.53-2.24ZM108.62,452.82l-11.7,2.11-2.11,16.3,12.18-1.3,1.63-17.11ZM398.13,458.52c-.82-.94-.78-2.66-2.2-3.06.01,7.33-5.48,12.78-7.81,18.98,8.47,5.01,18.36,6.96,28.18,6.65-.07-9.73-4.99-9.34-10.52-14.12-2.39-2.07-5.46-5.91-7.65-8.44ZM525.05,475.58c-1.44-2.73-9.57-17.59-12.43-17.32-11.35,11.28-23.43,22.12-37.71,29.51l10.23,18.34c16.16,1.25,29.87,9.36,41.62,20,1.23,1.12,10.69,12.21,11.82,10.85-.2-4.47.27-9.03.03-13.5-.78-14.31-6.74-34.98-13.57-47.88ZM341.1,467.03c.43-.82,2.66-4.48,2.22-5.01-5.63,3.63-8.94,9.8-12.86,15.1-.63.85-1.77,1.13-2.27,1.84-2.29,3.23-19.2,30.89-17.08,33.01l9.52-3.95c6.46-13.77,13.45-27.75,20.47-40.99ZM259.47,480.83c-5.33-9.95-17.16-14.64-27.9-10.9-.38,1.55.3,1.07.84,1.47,1.96,1.43,5.44,2.31,7.38,3.77,7.71,5.85,6.96,14.21,20.7,7.23.56-1.48-.83-1.21-1.02-1.56ZM305.46,478.21c-11.21-14.18-34.03-10.63-38.44,7.05,12.42,4.95,29.59,4.34,41.18-2.83.24-2.15-1.87-3.12-2.74-4.22ZM239.45,479.11c-10.9-7.07-17.77-11.89-29.52-3.54-15.72,11.16-1.81,14.31,10.07,15.43,2.14-7.62,12.09-11.72,19.45-11.89ZM107.3,473.2c-2.41,1-12.39.72-13.05,2.39-1.73,5.38,8.68,6.06,12.4,8.12l.66-10.51ZM192.77,481.74c-10.36-9.84-25.79-9.86-32.87,3.6,3.75,1.56,6.55,2.7,9.11,6,1.46,1.89.54,5.69,4.7,4.87.01-8.95,11.47-13.45,19.07-14.47ZM420.91,498.83l-3.92-14.15c-11.16.09-21.02-2.87-30.92-7.54l-2,15.46c11.57,4.83,24.33,6.61,36.84,6.23ZM156.61,485.7c-9.52-5.64-15.28-10.08-25.73-3.72-2.44,1.49-12.45,10.71-11.7,13.17l18.59,3.73c2.2-5.39,7.16-9.2,12.48-11.35,2.01-.81,4.85-.45,6.37-1.83ZM108.62,490.28c1.14-1.8-14.34-8.84-17.25-8.42-6.09.87-16.76,10.76-19.56,16.31l13.98,2.64c5.48-7.7,14.11-8.86,22.83-10.53ZM246.02,489.63c.44-8.36-7.86-8.33-13.8-5.91l6.53,8.23,3.32-.35c-6.07-9.6-2.08-8.24,3.94-1.97ZM201.59,489.37c-7.01-11.74-26.34,1.78-25.25,6.5l12.49,1.66c-4.74-7.64-7.83-14.39,2.43-3.74,1.33,1.38.9,4.41,5.03,2.98,3.26-1.12-3.52-6.15-2.19-8.44,3.54-.93,5.01,8.02,8.48,5.85,2.14-1.35-.48-3.97-.98-4.8ZM234.85,492.25l-5.57-5.89c-1.34-.06-6.34,3.89-6.26,4.92l11.83.97ZM166.47,496.2c-.74-8.59-9.94-8.35-15.76-4.93,2.28,1.35,9.62,10.16,11.82,6.89.65-.96-3.57-3.96-2.62-5.9,3.74-.96,3.86,3.36,6.57,3.94ZM247.33,492.26c-12.32,6.34-28.4,1.69-41.41-.65,1.48,1.74,1.98,5.19,3.69,6.49,3.66,2.76,38.09,5.53,37.72-5.84ZM112.04,501.99c1.68.92,5.4-.43,5.16-2.79-.09-.87-4.88-6.68-5.72-6.82l-14.04,3.18,5.91,6.9,4.6.32c1.18-1.93-6.25-7.28-2.94-7.88,2.02-.37,6.58,6.85,7.03,7.09ZM154.64,499.49l-7-6.5c-3,1.1-5.64,3.1-6.15,6.5h13.15ZM432.36,532.75c-4.05-9.84-6.61-20.3-10.1-30.34-13.38-.58-27.21-1.28-39.47-6.86-3.06,15.37-6.98,30.05-12.19,44.68-.92,2.59-5.23,10.01-5.38,11.61-.18,1.95,4.42,16.75,5.8,18.24,29.65,10.19,64.75,12.48,96.27,10.95,8.19-.4,56.77-6.01,60-11.66l1.8-17.98c-.35-.51-11.63.05-12.18.32-1.74.86-9.28,11.32-12.48,13.87-33.09,26.36-59.79-2.97-72.07-32.82ZM204.6,496.87c-10.73,4.87-21.84,4.33-33.23,2.15l-1,4.04c6.17,2.51,30.82,2.78,33.88-3.58.41-.85.41-1.71.34-2.61ZM118.48,504.1c-19.8,5.1-41.26-1.51-60.48-6.58-.51,3.05,2.1,4.55,4.35,5.83,9.65,5.5,45.73,10.21,54.4,3.28.84-.67,1.38-1.53,1.73-2.53ZM99.41,502.77c-2.5-4.48-6.53-6.66-9.85-1.64l9.85,1.64ZM166.47,500.15c-14.89,5.16-31.02,1.86-46.01-1.32l-.04,3.53c7.42,5.14,40.59,6.57,45.45.13.59-.78.75-1.37.61-2.34ZM536.26,541.97c-2.69-3.73-5.52-7.4-8.51-10.91l-8.87,17.73c6.65.11,13.22-1.87,18.4-5.92.27-.97-.72-.49-1.01-.89ZM527.42,573.76c-50.59,14.6-105.59,13.39-156.47.66.11,5.05-3.3,16.97,2.16,19.2,29.94,12.24,106.22,14.22,137.75,7.3,3.04-.67,15.76-3.84,17.21-5.8,2.16-2.93-1.13-17.11-.65-21.36ZM529.38,598.09c-23.77,9.48-51.17,10.53-76.61,9.89-20.55-.52-42.15-2.58-62.24-6.79-5.12-1.07-20.02-6.39-23.73-5.58-4.33.94-23.8,13.53-28.57,16.78-16.93,11.52-33.92,25.83-46.18,42.23,10.68-1.58,21.56-.61,31.97,1.89s20.31,8.29,30.83,8.62c8.16.25,17.99-2.5,26.83-2.36,9.93.16,22.29,2.76,31.52,6.46,15.92,6.39,40.22,29.02,57.19,25.99,8.56-1.53,41.74-24.92,48.16-32.04,15.75-17.48,17.19-43.23,10.83-65.08ZM571.04,687.92c-5.11-8.39-11.47-13.99-18.99-20.14-4.26-3.48-16.92-13.39-21.57-14.61-.63-.16-1.49-.83-1.74.46-.43,2.14,8.62,6.9,10.53,8.52,6.49,5.5,28.07,25.59,29.41,33.04.57,3.16.06,6.28-.49,9.37,6.62-2.45,7.49-9.54,4.5-15.38-.34-.66-1.42-.9-1.64-1.27ZM357.79,667.76c-22.96-1.3-42.61-15.5-66.59-10.38-22.07,26.98-10.46,62.77,26.18,65.57,10.41.8,20.39-1.63,30.56-3.27-7.13-18.64-2.01-36.82,9.86-51.92ZM537.01,691.83c2.29-5.39,5.69-18.09,4.07-23.6-.6-2.05-12.35-10.57-14.55-10.36l-16.17,16.72c9.55,8.69,14.79,20.15,13.77,33.27,1.47.12,2.31.19,3.6-.67,1.52-1.02,8.31-13.08,9.28-15.36ZM455.09,696.03c-19.59-7.09-33.9-22.88-54.56-27.95-8.74-2.14-28.76-3.82-37-.83-6.31,2.29-14.34,21.49-15.4,27.98-7.02,43.01,43.16,46.99,73.66,42.75,22.17-3.08,44.36-10.2,65.5-17.34,3.6-3.34,2.54-25.4-1.66-29.88-.84-.22-11.49,6.79-14.22,7.43-4.74,1.11-7.82-.59-11.87-.05-8.21,1.09-24.93,11.16-34.32,13.68-1.62.44-3.18.96-4.89.55l-.57-1.59,35.33-14.76ZM532.02,708.51h15.45c3.11,0,12.71-17.25,12.18-20.67s-11.42-12.18-14.15-14.81c-2.4,9.14-3.45,18.26-8.04,26.75-.61,1.13-6.76,7.56-5.44,8.73ZM520.73,709.06c1.67-13.12-3.5-24.4-13.36-32.72l-18.45,12.47c-1.21,2.21,2.04,4.93,2.44,6.16,2.31,7.28,1.92,16.61.56,24.06l28.81-9.97ZM553.72,707.85c9.29.26,16.02-7.49,9.52-15.76l-9.52,15.76Z"/>
  <rect x=".14" y="841.29" width="595" height=".66" fill="#fff"/>
  <path d="M590.54,3.89v833.46H4.08v-397.67h23.67c.1,0,.51,1.72.36,1.98-25.22,10.24-15.77,23.79,5.55,29.24,8.53,2.18,18.17,3.11,26.95,3.62-1.67,5.15-.47,13.88-1.97,18.58-.27.84-3.63,1.66-3.94,4.82-.59,5.97,9.87,9.96,14.32,11.25,11.77,3.41,37.07,6.37,47.94.98,2.02-1,2.6-3.3,5.12-3.48,2.12-.15,9.83,2.3,13.17,2.68,9.05,1.01,15.66.66,24.54-1.08,2.27-.44,6.51-2.7,7.64-2.78,1.8-.12,6.08,1.75,8.59,1.88,9.01.45,19.51.84,27.73-3.14,1.67-.81,2.94-3.28,4.45-3.38,1.63-.11,9.36,2.37,12.5,2.62,10.05.77,34.3.59,29.34-15.09l12.86-3.94c3.27,4.4,4.48,5.34,9.95,6.33,9.72,1.76,25.73.78,34.58-3.84.97-.5,8.6-5.78,8.89-6.23,2.58-4.02-3.88-11.06-3.88-14.39v-26.62h31.56v16.76c0,.67-3.16,2.56-3.71,3.2-15.6,18.3-25.22,32.01-33.58,54.81-.27.74-1.33.73-1.48,1.3-.88,3.3,1.57,2.96,1.76,3.73.44,1.8-1.65,3.28-1.71,3.55-2.37,11.06-2.32,21.8,3.62,31.6,12.28,20.24,39.93,18.71,53.5.73-.18,4.91,5.29,11.84,5.78,16.25.55,4.95-2.5,14.33-1.3,20.09-8.64,5.63-18.34,10.48-27.13,16.26-27.8,18.29-78.71,58.64-58.45,97.2,12.68,24.13,45.58,22.62,68.25,17.13,1.34.24,8.03,7.64,10.01,9.11,39.26,28.95,122.68-6.83,164.41-20.1,13.8.67,27.75,1.95,41.22-2.18,20.31-6.23,12.09-21.75,1.37-32.83-10.13-10.46-23.5-19.34-35.68-27.25,1.78-5.05,3.51-10.69,4.26-15.99,2.97-20.87-5.45-40.1-5.09-60.9.12-6.98,2.94-14.98,2.08-22.3,6.37-2.87,8.25-4.92,9.03-12.01,3.07-27.86-8.77-68.98-31.17-86.98-5.58-4.48-11.98-7.56-18.06-11.2h32.54c.25,0,1.08.65,1.53.77.56,7.08,3.66,14.74,6.78,21.15,6.23,12.84,11.17,20.41,27.1,19.39,9.7-.62,13.05-3.51,17.62-11.3,12.67-21.6,20.86-44.93-.46-64.18-4.28-3.87-7.63-2.89-6.19-10.06.09-.45,1.08-.51,1.21-1.01,1.05-3.84,4.92-12.41,2.75-15.63-2.82-4.18-27.59-3.45-32.27-1.27-8.71,4.06,2.86,16.45.54,23.55-.58,1.76-6.23,4.62-7.78,6.02-8.53,7.75-11.71,18.78-11.16,29.93-18.18-.46-36.46,2.01-53.91-3.95,2.66-5.28,10.62-2.85,16.88-5.79s5.53-6.76,8.26-9.16c2.96-2.6,8.22-1.38,13.14-7.57,1.46-1.83,5.14-8.76,5.73-10.82.5-1.74-.47-3.94.38-6.08.55-1.38,3.44-2.65,4.53-4.01,4.37-5.42,8.34-12.98,8.33-20,0-2.68-1.53-6.82-1.24-9.06.2-1.51,3.13-5.46,3.98-7.85,4.07-11.4,2.34-19.66-3.29-29.95-.53-.97-1.97-1.32-2.14-1.94-2.86-9.89,3.14-16.93-6.72-28.66-1.22-1.45-5.1-3.87-5.42-4.41-1.04-1.74-2.29-9.67-3.63-12.8-2.93-6.84-7.38-11.31-13.16-15.76l44.05-.98c-.07-47.77,2.15-95.88.69-143.66-1.66-53.99-23.02-104.82-86.51-100.89-49.52,3.07-70.48,44.42-72.66,89.06-1.95,40.07-.82,85.88,0,126.27.06,2.73,1.13,5.39.68,8.17-10.42,1.05-20.25,5.6-27.93,12.53-1.45,1.3-5.2,6.65-5.59,6.87-1.23.72-7.59,1.25-9.84,1.99-5.02,1.65-10.09,5.01-14.46,7.95l-1.34-.04c-4.17-5.99-11.48-9.16-17.77-12.53-.32-.83,3.45-4.67,4.3-6.23,1.08-1.98,2.39-6.75,3.32-7.86,2.72-3.26,10.92-1.93,12.62-11.7,1.56-8.96-2.16-8.83-3.09-13.68-1.58-8.25-.46-17.12-3.8-25.75-12.04-31.12-73.55-32.55-76.48,9.32-.45,6.48,1.26,9.95,1.73,14.46.34,3.27-1.1,8.47-1.07,11.83.12,12.91,2.63,22.39,11.86,31.56l-17.43,13.54-10.13-10.32c-.23-1.6,11.64-9.68,7.18-16.34-.93-1.39-4.26-2.99-4.39-3.92-.09-.64,2.86-9.74,3.1-12.49.97-11.28.18-29.47-4.11-39.97-11.65-28.48-66.82-28.33-76.05,2.55l-2.69,18c-1.48-36.47-2.32-73.09-5.22-109.48-.09-1.14-1.3-.94-1.34-1.41-.33-4.03-1.52-20.04-.57-22.75.18-.51,5.64-5.66,7-8.12,8.14-14.68,2.78-22.29.16-36.08-1.45-7.61-.56-17.4-1.36-25.26h441.81ZM260.26,74.44c-8.16-11.1-21.98-14.61-34.9-10.05-5.33,1.88-14.95,9.29-14.17,15.74-11.88-8.41-31.02-1.66-36.41,11.25-4.96,11.89,4.03,15.55,14.36,16.38,39.6,3.17,83.87-3.28,124-.97,7.34-2.06,9.26-4.91,2.14-9.45-5.28-3.36-11.96-4.48-17.99-3.03-2.82-14.82-21.57-22.31-34.15-13.53-.66-1.95-1.69-4.73-2.88-6.35ZM75.49,527.5c1.48-2.95,4.51-9.62,1.18-12.18-4.71-3.62-34.26-3.73-39.52-.85-2.92,1.6-3.07,3.92-2.77,6.97.92,9.29,12.49,15.05,7.8,26l-9-3.75c-20.28-1.21-20.38,20.51-10.68,33.07-7.52,17.1-2.82,32.65,5.73,48.09,4.88,8.81,11.72,20.21,22.38,21.7,22.43,3.13,26.4-10.43,35.11-27.03,5.73-10.92,9.06-15.72,7.7-29.57-.28-2.84-3.81-13.06-3.72-13.77.13-.96,3.24-4.39,3.92-5.92,8.34-18.77-4.15-34.38-23.12-22.8-3.4-8.15,1.81-13.61,5-19.97ZM238.08,524.52l-118.93,54.82,118.53-52.38,1.1-.85-.7-1.59ZM30.39,705.88l257.06-145.58-2.13-.85c-73.93,41.53-148.42,82.28-221.97,124.5-4.17,2.39-31.73,17.63-32.63,19.3-.44.82-.36,1.74-.32,2.63ZM566.86,585.6c-.47-.47-2.26.25-2.98.63-1.08.57-12.93,9.55-13.44,10.22-6.06,7.9,9.52-2.53,10.83-3.63,1.25-1.04,7.04-5.76,5.59-7.22ZM262.46,639.5c-.91-.2-1.63.21-2.44.51-4.59,1.72-19.84,12.69-25.27,16.16-49.47,31.56-100.88,63.62-149.23,96.64-1.37.93-10.84,6.72-9.12,8.29l3.25-.36,183.13-119.25-.33-1.99ZM267.4,730.88l-83.17,65.37,2.02.73c24.88-20.35,51.63-38.61,76.53-58.9,1.79-1.46,7.5-5.04,4.62-7.2ZM553.06,732.18c-.8-.88-5.16,2.95-5.92,3.6-7.33,6.23-16.54,16.49-23.69,23.64-11.71,11.71-22.77,24.14-34.84,35.5-1.79,2.1,1.48,3.14,3.02,1.7,14.83-16.25,31.37-30.91,46.67-46.68,2.06-2.12,13.5-13.63,14.14-14.78.59-1.05.82-1.77.62-2.99ZM387.38,758.48c-.34-.34-3.02-.99-3.63-.06-3.91,5.16-40.92,35.11-40.41,37.84.11.58,1.44,1.35,2.18.89l31.35-27.82c.59-1.35,11.34-10.01,10.51-10.84Z" fill="#fff"/>
  <path d="M537.28,254.98c-15.83.51-33.15,1.55-49.01.69-5.07-.27-10.19-2.31-15.63-1.32-3.82-9.3-16.14-14.61-25.74-15.16-4.37-.25-11.5,1.7-14.33,1.23-1.16-.19-5.93-3.25-8.51-4.04s-5.74-.77-8.45-1.41l-.31-99.63c28.91-1.33,58.37-.44,87.49-.68,4.91-.04,19.9,2.29,20.46-5.64.46-6.52-8.35-11.4-14.25-10.1,2.43-16.63-17.13-25.05-30.23-17.75-3.88-19.72-32.14-22.7-42.22-6.37-2.08,3.37-5.11,12.3-4.45,15.78.09.5,2.07.6,1.29,2.42-6.45-1.61-12.38-.37-18.4,1.97.3-14.1.63-30.74,5.56-44.09,16.3-44.19,90.16-53.2,108.19-8.18,4.66,11.65,7.88,30.82,8.58,42.7,1.15,19.62-.96,40.44-.05,60.18-9.23,2.58-5.95-.58-10.85-5.25-9.89-9.44-30.53-6.03-32.55,8.55-6.89-1.9-16.88-1.93-22.05,3.91-5.07,5.72-1.19,12.52,5.95,12.52h59.5v69.67Z" fill="#fff"/>
  <path d="M421.16,395.39c1.18,1.8,2.66,3.32,3.94,5.59,2.77,4.94,4.74,10.44,7.07,15.6,2.56.47,3.43-.18,3.09-2.7-.2-1.47-7.92-15.67-9.22-17.78-3.69-6-8.55-11.1-13.02-16.56,5.46-2.64,11.44,2.86,15.14,6.56,10.19,10.19,13.75,23.6,19.45,36.42l2.22.08c.95-.95-3.95-16.26-5.91-17.74,3.54-2.99,7.56-7.99,11.09-1.58,2.67,4.85,3.08,21.86,2.73,28.21-.51,9.46-5.01,18.1-4.66,27.61,8.2,14.81,18.82,29,27,43.52,1.59,2.82,8.9,19.61,9.85,20.21,7.6,4.8-3.27-12.27-2.63-12.81,9.26.22,20.4,5.18,27.91,10.54,2.38,1.7,9.12,6.75,8.79,9.33-1.48,11.34-18.49,32.52-28.6,37.85-46.61,24.6-65.53-50.56-74.44-79.95-1.37-4.51-2.25-13.49-4.39-17.16-1.27-2.18-7.95-4.82-10.49-7.26-1.02-.97-8.01-10.97-8.18-11.67-.37-1.58-.23-7.83-.07-9.75.1-1.19,1.32-.71,1.42-1.89.65-7.91.05-16.11,2.24-24.04.9-1.15.95-.25,1.56.44,1.31,1.49,4.87,11.34,7.33,8.78,1.57-1.64-6.89-12.39-7.58-15.1-1.25-4.92,1.76-13.02-3.65-16.06-3.65-2.05-6.29-.72-8.84,2.22-4.73,5.45-9.69,20.89-9.56,27.97.03,1.82,1.33,4.66,3.02,2.3.62-.86,1.49-10.97,2.19-13.57.56-2.09,4.92-12.22,6.39-14.01,8.75-10.71,7.51,9.82,6.92,14.14-.16,1.18-1.27.9-1.34,1.42-1.9,14.02-1.68,38.72-8.01,50.37-1.65,3.04-4.91,5.17-5.65,6.84-3.66,8.35-5.39,29.57-8.01,39.95-4.86,19.28-13.42,52.11-37.95,54.11-27.46,2.23-34.79-22.7-28.86-45.28,1.57-5.96,2.16-6.57,8.89-6.55-1.58,2.19-6.48,13.41-6.47,15.57,0,.82.32,1.03.9,1.5l1.95-.66c3.77-8.74,6.93-17.89,10.95-26.52,4.39-9.41,20.85-36.73,21.6-44.79.36-3.91-.88-7.75-.68-11.87.76-15.91,4.38-34.18,11.19-48.62,2.85-6.04,7.16-12.31,13.83-14.44l-8.49,15.97c-.82,3.57-6.3,20.88-4.04,22.85.57.5,1.32.26,2,.29.67-3.51,1.03-7.21,2.05-10.64,2.06-6.98,6.9-22.21,11.84-27.73,2.22-2.48,7.96-7.18,9.51-1.73.84,2.94-2.01,5.38-3.12,8.12-2.91,7.14-10.11,24.9-10.29,31.85-.06,2.33,1.73,3.44,3.17,1.61l11.45-35.07c5.37-7.43,7.44-10.09,14.47-2.52,8.43,9.09,11.24,20.2,17.12,29.58.8,1.28,1.77,3.49,3.65,2.26.72-2.26-6.55-16.55-8.21-19.4-1.87-3.21-13.5-17.56-13.51-18.72-.02-2.34,3.23-2.5,4.95-2.33,6.82.67,13.57,11.63,17.02,16.87Z" fill="#fff"/>
  <path d="M467.99,252.6c1.18,1.45,2.16,3.03,2.27,4.97,7.45-1.61,14.78-.28,21.45,3.2s13.5,11.97,15.81,19.03c.91,2.79.77,7.05,1.87,9.3,1.63,3.34,7.68,4.69,10.64,13.02,2.9,8.14.32,14.23,1.64,19.39.56,2.17,3.79,4.38,4.61,5.93,4.13,7.76,3.98,18.84.01,26.59-.69,1.34-3.82,3.98-4.14,5.8-.42,2.4,1.66,8.22,1.31,12.44-.42,5.13-3,11.4-6.55,15.14-1.29,1.36-5.46,3.93-5.61,4.25-2.2,4.5.32,10.98-5.59,17.41-3.98,4.33-9.61,4.25-12.21,6.2-1.12.85-1.31,3.68-2.22,4.83-2.78,3.53-10.51,7.67-15.14,6.08,9.68-9.67,14.64-22.58,18.72-35.19,13.8-.47,22.33-9.57,24.58-22.75,5.7-33.32-26.76-43.41-38.14-12.18-9.77-.75-11.66-15.1-9.43-22.88-5.73-3.9-10.39-4.69-12.95-12.05-2.05-5.88-.24-8.04-.58-12.67-.31-4.33-7.96,1.81-10.19,2.32-6.49,1.48-13.95-.19-19.03-4.55-2.32-1.99-6.37-9.82-7.23-9.92-2.61-.32-2.73,3.13-3.98,4.61-9.59,11.37-23.2,6.44-34.13.04-2.85,14.02-17.84,17.47-28.95,10.06-4.59,3.15-6.91,8.33-12.18,10.62-6.27,2.72-12.56,1.76-19.08.62l-.63,34.57c-5.64-.74-12.94-4.66-13.82-10.83-.49-3.5,1.1-10.97.56-13-.45-1.7-3.72-3.24-4.75-4.5-4.84-5.9-3.84-16.33.25-22.43,1.06-1.58,6.66-5.87,6.91-6.41.6-1.3.89-8.19,1.55-10.94,2.93-12.09,13.93-23.01,25.76-26.83,2.87-.93,9.24-1.4,10.5-1.99,1.34-.63,4.54-5.91,5.9-7.25,7.09-7.02,17.93-12.13,27.97-12.78,4.81-.31,8.8,1.46,12.46,1.32,6.12-.23,10.03-3.96,19.11-3.33,7.37.51,13.75,5.6,16.42,5.93,1.63.2,5.2-1.23,7.24-1.29,11.51-.34,21.25.65,28.98,10.09Z" fill="#fff"/>
  <path d="M529.38,598.09c6.36,21.85,4.92,47.6-10.83,65.08-6.42,7.12-39.6,30.51-48.16,32.04-16.96,3.03-41.26-19.6-57.19-25.99-9.23-3.7-21.59-6.3-31.52-6.46-8.84-.14-18.67,2.61-26.83,2.36-10.52-.33-20.77-6.2-30.83-8.62s-21.29-3.48-31.97-1.89c12.26-16.39,29.26-30.7,46.18-42.23,4.77-3.25,24.25-15.84,28.57-16.78,3.71-.81,18.61,4.5,23.73,5.58,20.08,4.21,41.69,6.28,62.24,6.79,25.44.64,52.84-.4,76.61-9.89ZM361.09,633.58c.56.96,2.95-.12,3.73-.51,5.67-2.85,14.06-10.19,20.25-13.96,3.49-2.12,14.17-6.59,16.37-8.61,2.37-2.18.89-3.52-2.09-2.77-1.97.5-11.62,6.11-14.14,7.57-5.52,3.18-18.59,11.23-22.84,15.29-.71.67-1.82,2.06-1.27,3Z" fill="#fff"/>
  <path d="M37.61,3.89c-1.2,7.31.11,15.57-.67,22.67-1.59,14.57-9.6,20.73-.9,37.73,1.41,2.75,7.18,8.53,7.34,9.09.54,1.87.21,6.8.17,9.08-.29,16.11-3.04,33.28-4.02,48.58-3.93,61.34-6.59,122.74-9.76,184.12-1.8,34.8-6.02,72.18-4.68,107.78.14,3.79,1.71,9.42,1.74,12.75,0,.78-.07.87-.73,1.36H4.08V3.89h33.53Z" fill="#fff"/>
  <path d="M453.78,312.16c-1.1,9.43,5.72,19.04,14.35,22.46,1.61,2.85-1.11,4.69-1.17,4.96-.45,2.24,2.49,10.6,3.9,13.03,2.32,3.99,6.86,7.65,11.76,7.46,2.04-10.78,16.29-26.34,27.41-16.38,10.66,9.55,8.06,29.87-1.32,39.49-4.55,4.67-10.84,3.96-16.63,5.4-5.21,17.59-13.15,36.79-31.06,44.53-.81-12.75,3.62-46.68-19.05-32.21-3.24-8.5-15.33-24-24.74-24.92-3.4-.33-5.22,1.22-7.17,1.19-2.09-.04-4.15-2.23-7.88-1.93-3.44.28-10.2,5.2-13.81,6.59-1.74-3.07-4.98-4-8.22-4.6,1.5-5.16,3.39-10.26,5.53-15.19.92-2.13,4.99-5.64-1.66-4.11-2.56,2.88-6.77,20.62-7.97,21.79-.39.38-7.77,2.27-10.31,3.83-6.61,4.06-12.92,16.73-15.36,24.08-2.11,6.33-2.45,14.25-4.4,19.93-.3.89.39,1.17-1.33.95-8.82-16.18-11.93-34.14-15.18-52.09-.09-.52-1.15-.49-1.24-.97-2.75-15.84-3.65-33.28-2.04-49.21,12.07,2.19,21.72-2.25,29.39-11.33,10.95,6.55,24.84,2.46,30.12-9.22,11.42,5.98,26.73,7.72,35.53-3.43,8.03,10.94,19.63,14.72,32.54,9.91ZM438.66,333.85c-.5-.28-9.77,0-11.51,0-.41,0-6.67-2.52-7.52-3-2.12-1.21-9.66-10.33-9.25-4.61.54,7.59,25.85,15.13,28.65,10.23.32-.56-.26-2.56-.38-2.63ZM348.92,338.45c-3.09.44-6.99-.32-10.19,0l.29,2.67c10.76,2.88,22.5-2.14,27.15-12.21-3.05-3.72-3.68.55-5.07,1.98-3.46,3.57-6.93,6.81-12.17,7.55ZM440.44,351.68c-7.44,9.36-17.99,10.48-27.22,2.65l-2.06,2.08c5.51,11.75,29.34,10.22,32-3.01l-2.72-1.72ZM340.2,361.31c.34.65,6.11,4.46,7.27,4.88,7.37,2.64,17.87.41,20.21-7.68-2.45-4.71-5.69,1.72-8.79,3.06-6.59,2.84-11.65.48-16.5-4.04-2.22-.03-3.22,1.85-2.19,3.78ZM443.01,373.55c-1.25-1.23-6.65-6.48-8.29-4.87-.1,5.88-2.69,21.19,6.31,22.34,12.04,1.54,7.83-11.74,1.98-17.47ZM348.4,395.44c3.31-2.77,2.36-15.49,1.07-19.42-1.74-5.3-8.59,3.85-9.62,5.99-4.15,8.63,1.81,19.08,8.55,13.43Z" fill="#fff"/>
  <path d="M140.82,103.15l5.27,86.09c-.88.09-1.8-.26-2.43-.85-2.3-2.14-5.37-9.48-9.05-12.97-16.39-15.54-42.48-13.55-60.51-1.96-13.97,8.99-19.19,22.72-18.76,39.15.08,3.04,1.96,3.94,2.04,7.85.14,6.72-.87,18.14-2.21,24.77-1.63,8.04-5.83,12.82-8.92,20-3.68,8.53-4.56,9.96,6.05,12.07l.46,1.64c-3.11,2.25-5.01,6.88-6.71,10.42-1.93,4.03-9.11,20.39-9.02,23.79.1,3.86,5.49,3.29,5.86,5.9-1.94,10.61-2.43,21.44-2.01,32.24.17,4.47,2.21,10.84,1.96,15-.07,1.18-3.64,12.35-4.23,12.95-1.53,1.53-7.6-1.72-8.39-3.48s-.52-4.74-.5-6.78c.22-23.87,2.83-48.94,3.99-72.91,1.96-40.51,4.63-81.82,7.26-121.59,1.56-23.51,2.24-47.11,3.99-70.6,31.81-2.67,63.96-2.36,95.88-.74Z" fill="#fff"/>
  <path d="M455.09,696.03l-35.33,14.76.57,1.59c1.71.41,3.27-.12,4.89-.55,9.39-2.52,26.11-12.59,34.32-13.68,4.05-.54,7.14,1.16,11.87.05,2.73-.64,13.38-7.65,14.22-7.43,4.2,4.47,5.26,26.53,1.66,29.88-21.14,7.13-43.33,14.26-65.5,17.34-30.5,4.23-80.69.25-73.66-42.75,1.06-6.49,9.09-25.7,15.4-27.98,8.24-2.99,28.26-1.31,37,.83,20.66,5.06,34.97,20.86,54.56,27.95Z" fill="#fff"/>
  <path d="M511.64,38.06c-25.98-12.63-62.6-9.82-82.51,12.49-14.25,15.96-16.6,38.17-17.44,58.81-1.68,41.17,1.29,83.5.05,124.79l-15.57,4.19-10.76-1.11c.58-5.17-.51-10.41-.69-15.42-1.31-37.82-2.02-84.06.04-121.62,1.83-33.31,16.88-69.66,52.07-80.06,24.4-7.21,58.54-3.24,74.8,17.93Z" fill="#fff"/>
  <path d="M101.63,275.1c4.79,3.53,9.34,6.18,15.34,3.68.33-.14,4.64-3.02,4.83-3.24,4.17-4.79,1.87-17.53,12.81-9.41,14.13,10.48,18.29,33.38,20.41,49.69-.37,1.75-9.44,4.2-11.57,3.59l-1.27-27.32-2.67-.29c.24,14.74,2.53,30.94-2.01,44.99-21.07,5.79-43.54,3.89-65.06,2.33l1.32-13.8c2.6.84,4.89.32,5.75-2.46,1.27-4.11,5.36-25.59,5.38-29.53.01-2.55-1.85-3.63-3.02-.36-1.49,4.14-4.7,28.85-5.93,29.74-5.13,1.89-32.99-5.56-34.74-9.23-1.21-2.53,4.64-16.93,6.15-20.16,1.06-2.26,7.97-14.48,9.26-15.54s8.57-1.71,11.22-2.75c6.7-2.63,13.8-9.75,15.79-16.76,8.49,2.67,10.62,11.4,17.99,16.83Z" fill="#fff"/>
  <path d="M432.36,532.75c12.28,29.85,38.98,59.19,72.07,32.82,3.2-2.55,10.74-13,12.48-13.87.55-.27,11.83-.83,12.18-.32l-1.8,17.98c-3.23,5.64-51.81,11.26-60,11.66-31.51,1.53-66.62-.76-96.27-10.95-1.38-1.49-5.98-16.28-5.8-18.24.15-1.6,4.45-9.01,5.38-11.61,5.2-14.62,9.13-29.3,12.19-44.68,12.27,5.58,26.1,6.28,39.47,6.86,3.49,10.04,6.05,20.5,10.1,30.34Z" fill="#fff"/>
  <path d="M138.86,356.2c.91,5.92,2.88,11.73,4.51,17.49.24.85,1.18.8,1.47,1.87,1.52,5.76,7.66,42.73,4.56,45.39-30.89,7.4-64.75,8.59-95.71,1.01l.37-13.84c9.58,3.31,11.01-9.85,11.18-16.43,9.2,10.3,13.06-1.96,10.56-10.87-.77-2.75-5.51-9.06-5.93-11.18-.74-3.73.91-7.73.62-11.47,22.76,3.38,46.03,4.22,68.37-1.97Z" fill="#fff"/>
  <path d="M223.01,348.31c2,7.14,4.55,13.87,5.84,21.45.94,5.55,4.76,41.03,3.07,43.65-24.94,8.31-52.68,6.5-78.51,3.84,1.24-6.93-2.94-17.71-2.1-23.94.29-2.14,4.92-8.06,5.35-10.45.91-5.06-5.03-12.23-5.22-16.45-.15-3.42,3.02-11.74,2.61-16.05,22.86,2.77,46.64,4.77,68.96-2.05Z" fill="#fff"/>
  <path d="M236.42,358.41c.06-.17.87-.35,1.16-1.15.73-2.03,1.34-8.69,3.51-8.98,1.27-.17,6.63,2.06,8.75,2.46,11.31,2.12,23.78,3.51,35.29,2.82,3.48-.21,20.7-3.59,22.03-2.98.4.19,5.83,6.17,5.93,6.6.56,2.39-.23,6.98,0,9.85,1.24,14.99,3.11,30.11,3.62,45.06-2.32,3.64-46.74,3.66-53.3,3.29-3.73-.21-25.85-2.99-27.64-4.58-1.95-4.06-.59-9.64-.91-14.21-1.09-15.54-3.73-22.54,1.55-38.19Z" fill="#fff"/>
  <path d="M43.72,69.41c-1.49-1.01-5.76-7.77-6.43-9.66-3.13-8.84-3.29-20.91,2.54-28.33l42.78-1.27,64.51,1.3c5.91,12,5.43,30.53-6.76,38.69l-35.33-1.2c-9,.16-18.01-.1-27.01,0-5.67.07-31.1,2.64-34.3.48Z" fill="#fff"/>
  <path d="M318.11,273.8c-5.06,6.52-5.7,7.7-8,15.99-.68,2.45-.48,6.6-1.31,8.55-.59,1.38-3.88,3.07-5.19,4.67-6.47,7.89-8.3,21.97.53,28.87,1.46,1.8-13.03,3.19-14.4,3.27-14.17.88-28.41-.7-42.39-2.62-.42-1.86,1.68-2.38,2.08-3.53,1-2.9.72-8.2,1.63-10.13s3.07.9,2.89-5.74c-.36-13.36-8.11-28.71-14.4-40.23-.38-3.04,15.59-14.65,18.49-14.51,5.63.27,4.85,5.85,6.72,9.76,6.69,14,24.52,9.16,32.19-1.39,1.56-2.15,4.45-10.39,5.93-10.47,3.53.64,19.04,9.94,18.5,13.2-.11.63-2.56,3.42-3.25,4.32Z" fill="#fff"/>
  <path d="M357.79,667.76c-11.86,15.1-16.98,33.28-9.86,51.92-10.17,1.64-20.15,4.07-30.56,3.27-36.63-2.8-48.25-38.6-26.18-65.57,23.98-5.12,43.63,9.08,66.59,10.38Z" fill="#fff"/>
  <path d="M179.36,262.46c1.83,2.31,6.93,5.9,7.17,6.32.61,1.07.15,2.76.62,3.98,1.82,4.66,6.84,2.66,7.57,3.28.31.26.92,4.88,2.77,7.41s5,3.73,5.7,4.82c2.06,3.18,6.2,21.96,8.82,28,.86,1.99,8.35,14.39,7.72,14.95-21.23,3.34-43.24,3.75-64.33-.75-.23-.37-.3-8.2-.13-8.69.25-.73,1.81-.44,2.38-1.01,1.54-1.54,7.17-30.88,6.54-33.61-.43-1.85-1.81-2.04-2.81-.16-2.19,4.11-.42,15.53-4.09,19.9.05-2.08-.02-4.26-.61-6.27-.29-.99-1.17-1.05-1.29-1.5-3.14-11-5.15-22.29-13.7-30.69.12-1.5,17.96-12.84,20.61-14.04,14.22-6.44,9.89-1.01,17.08,8.06Z" fill="#fff"/>
  <path d="M527.42,573.76c-.48,4.25,2.82,18.43.65,21.36-1.44,1.96-14.17,5.13-17.21,5.8-31.54,6.92-107.81,4.94-137.75-7.3-5.46-2.23-2.05-14.16-2.16-19.2,50.88,12.73,105.88,13.94,156.47-.66Z" fill="#fff"/>
  <path d="M301.26,199.77c-1.59,6.03-1.28,19.61,5.54,22.41,4.85,1.98,4.56-3.22,8.9-4.35,10.49-2.74,9.04,14.53.51,17.59-1.71.61-4.18.21-5.11.8-.55.35-2.85,7.79-3.76,9.4-11.23,19.77-44.04,20.4-56.18,1.28-8.48-13.36-4.1-32.09-3.08-47.07,17.28-3.47,35.82-2.59,53.19-.06ZM252.67,210.34l.23,2.61c1.5,1.99,14.72-2.73,14.17-5.61-1.89-2.32-4.78.76-7.08,1.45s-4.93.77-7.31,1.56ZM278.7,206.46l-1.77,2.17c.35,1.68,20.35,6.5,15.3.49l-13.52-2.66ZM258.28,216.37c-4.22.44-3.7,8.52.55,8.76,5.21.29,5.12-9.35-.55-8.76ZM285.94,216.96c-2.75.84-3.36,5.98-.73,7.71,6.42,4.22,7.63-9.8.73-7.71ZM272.06,223.82c.61-1.07,1.37-2.06,1.57-3.33-1.15-5.48-9.5,6.87-8.49,13.08.74,4.57,11.98,8.04,11.13,1.69-13.58-.38-8.03-4.76-4.21-11.44ZM283.33,246.57c-2.17-3.71-15-4.77-16.78-1.31-2.9,5.62,4.62,1.2,7.4,1.12,4.12-.12,5.76,2.05,9.54,2.02-.03-.61.17-1.26-.17-1.83Z" fill="#fff"/>
  <path d="M228.21,194.57c1.6,14.03,4.68,33.23-2.59,46.1-1.27,2.26-9.24,11.6-11.46,12.4-3.37,1.22-4.43-1.66-7.14-2.8-6.61-2.79-25.06-9.49-24.77,2.74-5.37-.57-12.75-5.8-15.66-10.27-1.4-2.14-3.58-9.63-4.32-10.17-2.86-2.05-7.78,1.38-10.27-4.84s-.33-15.92,8.1-13.36c2.72.83,2.88,7.41,8.92,1.4,4.68-4.66,5.79-13.6,5.43-19.88,17.72-3.46,35.94-4.91,53.76-1.32ZM198.03,198.45c-5.17,1.48-8.23,6.36-14.39,5.32v3.15c3.37,1.8,15.36-3.28,14.39-8.47ZM222.91,203.14l-12.36-2.7c-2.33,4.6,11.45,8.17,12.83,5.22l-.47-2.52ZM189.97,211.04c-3.18.82-4.3,6.73-2.2,9.16,8.07,4.02,9.33-11.01,2.2-9.16ZM221.54,219.98c2.27-4.5.4-10.23-5.32-7.78-2.9,4.23-.24,10.98,5.32,7.78ZM207.09,214.38c-.84-.53-2.4-.7-2.51.84-.22,3.35,7.22,10.83,3.64,14.13-.28.26-8.35,3.79-1.34,3.98,9.09.25,3.57-16.82.2-18.96ZM208.55,243.14c-.11-6.01-16.32-5.04-17.12-2.86-.18.5.14,1.53.03,2.2,3.51-.13,7.34-1.19,10.88-.68,2.55.36,3.46,2.77,6.21,1.34Z" fill="#fff"/>
  <path d="M143.73,213.32c3.02,12.3,4.64,24.14-2.36,35.96-11.05,18.66-40.41,17.81-56.16,5.73,5.32-14.94,5.81-31.8,5.74-47.91,15.14-5.07,30.93-8.3,46.92-9.31,2.9.69,5.1,12.46,5.85,15.54ZM114.53,206.34c-2.56-.47-2.44,1.97-4.42,3.13-2.39,1.4-13.11,2.56-11.35,5.4,1.31,2.12,19.29-1.89,15.77-8.53ZM140.18,207.65c-2.7,1.33-13.07-2.31-13.79-.28,1.21,5.16,8.65,3.32,12.7,3.47l1.08-3.19ZM133.31,223.07c.81.9,1.37,2.01,2.74,2.22,10.75-3.37-2.14-16.29-4.3-4.3.19,1.39.94,1.39,1.56,2.08ZM107.74,218.27c-3.55,1.33-2.46,10.88,2.88,9.48,4.55-1.2,3.32-11.8-2.88-9.48ZM132.6,229.04c-.74-1.31-5.82-7.58-6.94-8.52-.68-.57-2.28-1.53-2.58-.04-.54,2.77,7.14,8.44,7.24,11.22.16,4.2-9.62,5.21-5.94,7.85,1.46,1.05,8.67-3.58,9.07-4.44,1.02-2.17.02-4.51-.85-6.07ZM129.55,246.53c-2.78-3.11-19.03,2.31-15.67,5.81.56.59,12.8-5.55,15.78-3.29l-.11-2.52Z" fill="#fff"/>
  <path d="M414.99,119.24c6.54-6.27,13.96-3.61,21.73-2.57,1.62-1.17-.69-7.02-.7-9.22-.22-25.73,40.17-26.91,40.12-1.02,3.58.88,3.83-2.14,5.67-3.2,12.46-7.13,28.62,5.29,23.27,19.62.6,1.03,10.8-2.07,13.72,3.04,1.47,2.57,0,5.51-2.88,5.51h-100.92v-12.16Z" fill="#fff"/>
  <path d="M145.44,3.89l1.31,23.66c-31.22.43-62.5-.54-93.72-.03-2.24.04-12.78,1.97-13.47-.41-.68-8.27.91-15.5,1.34-23.22h104.54Z" fill="#fff"/>
  <path d="M525.05,475.58c6.83,12.9,12.79,33.57,13.57,47.88.24,4.47-.23,9.03-.03,13.5-1.14,1.37-10.59-9.73-11.82-10.85-11.75-10.64-25.46-18.76-41.62-20l-10.23-18.34c14.27-7.39,26.35-18.23,37.71-29.51,2.86-.27,10.98,14.6,12.43,17.32Z" fill="#fff"/>
  <path d="M225.39,285.46c3.97,5.97,9.09,13.37,12.27,19.66,1.22,2.41,4.55,13.16,5.17,13.53.75.46,2.85-.33,3.9.37,1.21,9.03-3.75,18.87-14.51,16.48-9.12-2.03-16.2-17.13-19.24-24.83-2.4-6.07-4.76-19.75-7.43-24.1-1.2-1.96-3.19-1.99-4.17-3.06-3.42-3.71-3.73-6.55-4.82-11.3l-5.97.55-1-1.81c.46-3.65,9.04-3.13,8.44-5.78-1.32-2.48-9.46-.02-9.85-.34-1.43-3.93,2.27-6.75,6.1-6.42.53.05,11.83,4.82,8.28-.07-1.78-2.46-17.64-4.8-17.65-6.98,8.9-6.57,20.39,2.26,28.56,6.26l14.82-14.85c10.41,2.84-2.82,12.5-5.9,16.5l.02,22.29c.02,1.96,2.34,2.92,2.99,3.9Z" fill="#fff"/>
  <path d="M52.73,404.84c-7.71-.54-5.1-10.03-4.61-15.11-5.48-1.15-1.89,11.08-4.27,11.16-5.36-5.78-2.14-17.74-.79-25.09.55-3.02,2.95-7.47,2.98-9.39.05-3.28-2.25-9.64-2.55-13.78s0-30.95,2.03-32.54l24.96,5.23-3.96,43.73c2.66,7.12,10.65,16.9,4.29,23.96-13.7-21.96-6.49,4.39-11.22,11.15s-4.61-11.45-3.58-13.76l-3.28.99v13.47Z" fill="#fff"/>
  <path d="M553.75,444.91c3.54.83,3.22-2.45,5.21-4.27,7-6.41,12.94-7.05,18.76,1,2.89-3.41,5.04-6.41,9.53-7.87.53.7-2.61,15.25-3.32,17.23-.47,1.3-3.46,6.84-4.45,8.84-7.29,14.74-9.46,18.91-27.42,17.33-6.99-.62-7.55-1.79-11.1-7.3-7.36-11.42-12.89-24.89-12.87-38.73,5.11,1.47,5.9,6.72,9.65,9.1,6.93-7.36,14.91-5.88,16.02,4.68Z" fill="#fff"/>
  <path d="M95.47,429.81l-4.72,49.19c-8.6,2.71-18.17,9.15-21.69,17.76l-7.72-1.28,5.89-66.94,28.24,1.27Z" fill="#fff"/>
  <path d="M138.86,187.27c-27.6.84-54.4,8.92-79.54,19.72-2.11-39.71,62.55-55.29,79.54-19.72Z" fill="#fff"/>
  <path d="M87.58,208.31c-.38,6.47.54,13.51-.02,19.91-.43,4.93-3.05,17.94-4.77,23.61-5.03,16.65-18.53,26.38-35.86,20.78-1.64-2.88,4.75-10.09,5.99-12.56,6.81-13.59,7.11-26.96,7.35-41.91l27.3-9.84Z" fill="#fff"/>
  <path d="M140.18,426.53l-1.95,48.2c-9.02,4.36-16.86,9.74-22.37,18.19.16-2.43-6.9-6.7-7.12-7.61-.07-.28.44-4.99.56-5.72.08-.5,1.2-.24,1.34-1.41,1.94-15.87,1.52-32.29,2.02-48.25l27.52-3.39Z" fill="#fff"/>
  <path d="M317.24,198.94c.07.24,1.77-.12,1.11,1.48-23.46-5.74-48.27-9.35-72.13-3.41-1.06.39-.86.06-.85-.85.19-17.73,18.71-27.61,34.55-27.31,22.54.43,31.75,9.9,37.33,30.1Z" fill="#fff"/>
  <path d="M180.94,422.59l-4.61,48.64c-3.18-.02-7.52,1.63-10.3,3.18-7.51,4.2-6.6,10.9-16.54,3.94l4.49-57.73,26.96,1.97Z" fill="#fff"/>
  <path d="M50.2,424.46l13.04,2.74-1.31,24.97c-9.29-1.46-25.38-.89-30.17-10.92-1.78-3.73-1.47-7.22-2.07-10.97-2.07-13.05-2.07-29.94,0-43,.33-2.11-.18-4.59.03-6.76l8.24,2.61c1.38,2.12-1.08,12.76.79,16.96,1.41,3.17,9.51,4.76,11.71,8.05l-.26,16.33Z" fill="#fff"/>
  <path d="M265.09,481.74c-2.58-.34-2.6-3.81-4.34-5.84-5.34-6.26-13.28-9.35-21.25-10.63l2.58-49.25,25.57,3.71-2.56,62.02Z" fill="#fff"/>
  <path d="M223.01,419.3l-3.41,46.87c-7.35,4.97-15.65,8.72-21.24,16.22l-5.47-4.97,3.82-54.83,26.3-3.28Z" fill="#fff"/>
  <path d="M283.5,418.64l25.64-1.32.65,48.97c-.36,3.21,5.7,10.72,3.02,12.87-2.72,2.18-3.15-1.86-4.63-3.36-6.86-6.97-14.73-10-24.68-9.18v-47.98Z" fill="#fff"/>
  <path d="M224.63,185.67c.98,1.64,1.87,2.96,2.33,4.89-24.53-2.83-49.78-.65-72.97,7.89.82-2.31.68-5.08,1.37-7.36,8.68-28.77,54.35-30.44,69.27-5.42Z" fill="#fff"/>
  <path d="M570.81,383.81c-.16,6.2-4.52,11.57-3.14,17.93,5.57,5.82,12.94,9,16.29,16.89-16.94,4.41-36.47,5.12-53.26,0,.25-5.91,14.75-13.24,15.63-16.23,1.49-5.02-3.09-13.44-3.8-18.59h28.27Z" fill="#fff"/>
  <path d="M312.43,416.67c3.37-1.18,8.53-.1,8.58-4.95-1.74-9.99-1.6-20.21-2.61-30.26-.12-1.19-1.3-.7-1.42-1.89-.73-7.06-.61-14.33-1.26-21.4,1.12.62,7.56,1.72,7.81,2.04.95,1.25,3.62,26.21,4.73,30.98,2.41,10.34,6.98,25.08,11.6,35.16,1.34,2.93,6.07,6.3,4.79,10.69h-32.22v-20.38Z" fill="#fff"/>
  <path d="M140.84,99.85c-24.17-.6-48.49-1.19-72.68-.69-5.73.12-15.11,1.85-20.35,1.41-4.51-.38-1.5-8.78-1.57-11.82,31.03-2.53,62.63-2.73,93.66-.11l.95,11.21Z" fill="#fff"/>
  <polygon points="139.52 73.56 139.52 84.74 46.14 84.41 46.21 74.65 47.81 73.57 139.52 73.56" fill="#fff"/>
  <path d="M537.28,182.02c-1.03,1.7-30.24.06-34.52.01-6.25-.08-13.17,1.15-19.75.67-2.72-.2-10.62-.61-10.8-4.28,1.37-6.72,10.29-8.35,16.02-7.51,3.26.48,5.02,3.04,8.28,2.57-1.36-19.34,28.91-20.39,31.56-2.63l9.2-1.98v13.15Z" fill="#fff"/>
  <path d="M520.73,709.06l-28.81,9.97c1.36-7.45,1.75-16.78-.56-24.06-.39-1.24-3.64-3.96-2.44-6.16l18.45-12.47c9.86,8.32,15.03,19.59,13.36,32.72Z" fill="#fff"/>
  <path d="M137.54,340.42l1.01,11.84c-21.28,7.3-45.58,6.04-67.45,2.24l.7-12.76c21.76,3.71,44.2,3.78,65.74-1.32Z" fill="#fff"/>
  <path d="M221.7,333.85v11.17c-16.65,5.3-35.5,5.78-52.91,3.93-2.58-.27-11.87-1.41-13.71-2.07-.85-.3-1-.59-1.06-1.47-.07-.97.83-11.21,1.28-11.57,21.93,4.13,44.51,4.26,66.4,0Z" fill="#fff"/>
  <path d="M537.01,691.83c-.97,2.28-7.76,14.34-9.28,15.36-1.29.86-2.14.79-3.6.67,1.02-13.12-4.22-24.58-13.77-33.27l16.17-16.72c2.2-.22,13.95,8.3,14.55,10.36,1.61,5.51-1.78,18.2-4.07,23.6Z" fill="#fff"/>
  <path d="M31.5,445.8c.45.31.8,1.61,1.93,2.33,8.35,5.32,18.83,5.88,28.52,6.67l-1.4,16.35c-10.4-.29-38.82-2.53-43.95-12.94-3.08-6.25,10.3-15.53,14.9-12.4Z" fill="#fff"/>
  <path d="M305.2,347c-11.88,3.13-24.88,4.05-37.17,3.31-3.9-.24-24.77-3.35-26.87-5.21-1.97-1.73.21-9.56,3.92-9.95,14.11,2.81,28.31,3.8,42.72,3.32l17.4-2v10.52Z" fill="#fff"/>
  <path d="M510.23,454.89c.46.88-.09,1.55-.53,2.24-1.64,2.64-14.62,13.98-17.76,16.42-5.73,4.47-12.21,8.09-18.4,11.88-.93.18-8.67-11.4-7.65-12.92,11.84-6.21,22.42-14.84,30.63-25.32,2.82-1.3,11.13,6.04,13.7,7.69Z" fill="#fff"/>
  <path d="M491.02,449.3c-3.42,4.19-21.93,19.99-26.54,20.53-.77.09-1.32.16-1.82-.57-.94-3.65-7.21-9.49-4.72-12.96,1.01-1.4,9.19-7.39,11.31-9.38,1.63-1.53,6.82-8.42,7.37-8.58,1.65-.47,15.62,4.57,16.62,5.59,1.63,1.66-.97,3.84-2.22,5.36Z" fill="#fff"/>
  <path d="M305.46,478.21c.87,1.1,2.98,2.07,2.74,4.22-11.59,7.17-28.76,7.78-41.18,2.83,4.41-17.67,27.23-21.22,38.44-7.05Z" fill="#fff"/>
  <path d="M586.51,431.06c-3.95.27-6.62,3.03-8.8,5.98-7.23-8.06-15.38-3.69-22.34,1.99-3.67-7.8-10.63-8.69-17.1-3.27-2.56-3.49-5.98-6.42-10.21-7.61l1.76-5.61c18.33,4.15,36.86,4.29,55.07-.53l1.61,9.05Z" fill="#fff"/>
  <path d="M420.91,498.83c-12.51.38-25.27-1.4-36.84-6.23l2-15.46c9.9,4.67,19.76,7.63,30.92,7.54l3.92,14.15Z" fill="#fff"/>
  <path d="M532.02,708.51c-1.32-1.17,4.83-7.6,5.44-8.73,4.59-8.49,5.64-17.6,8.04-26.75,2.73,2.63,13.65,11.56,14.15,14.81.53,3.42-9.07,20.67-12.18,20.67h-15.45Z" fill="#fff"/>
  <path d="M226.3,262.86c5.87,5.49,12.23,12.91,15.7,20.13,2.56,5.32,9.66,25.83,9.22,30.87-.21,2.44-3.94,2.68-5.84,2.91-1.59-6.4-4.5-13.13-7.72-18.88-1.35-2.41-11.36-15.3-11.36-16.29v-18.73Z" fill="#fff"/>
  <path d="M151.34,387.75c-1.79.2-1.03-.06-1.3-.98-2.02-6.99-3.32-14.87-5.33-22.15-3.84-13.9-4.46-18.06-2.08-32.58.54-3.3-.49-6.74.92-9.92l8.44-1.41c0,9.06.15,18.23-.66,27.26-.45,4.95-3.19,13.85-3.18,17.76.01,5.49,8.43,14.46,3.19,22.02Z" fill="#fff"/>
  <path d="M156.61,485.7c-1.52,1.38-4.37,1.01-6.37,1.83-5.32,2.16-10.28,5.96-12.48,11.35l-18.59-3.73c-.75-2.47,9.26-11.69,11.7-13.17,10.46-6.36,16.21-1.92,25.73,3.72Z" fill="#fff"/>
  <path d="M239.45,479.11c-7.36.17-17.31,4.27-19.45,11.89-11.88-1.13-25.79-4.28-10.07-15.43,11.75-8.34,18.62-3.52,29.52,3.54Z" fill="#fff"/>
  <path d="M142.8,195.16c-28.47-1.29-56.59,9.37-82.78,19.44-4.93-1.89.41-4.58,2.79-5.75,15.96-7.89,50.84-17.4,68.5-18.28,4.27-.21,12.86-1.69,11.49,4.59Z" fill="#fff"/>
  <path d="M192.77,439.68c-.81,8.47-.29,18.36-1.26,26.66-.14,1.16-1.27.92-1.34,1.41-.24,1.59.64,7.85-1.01,8.06l-9.46-5.01,2.55-31.12h10.52Z" fill="#fff"/>
  <path d="M398.13,458.52c2.19,2.53,5.27,6.37,7.65,8.44,5.53,4.79,10.45,4.4,10.52,14.12-9.83.3-19.71-1.65-28.18-6.65,2.34-6.2,7.82-11.64,7.81-18.98,1.42.4,1.38,2.12,2.2,3.06Z" fill="#fff"/>
  <path d="M237.48,439.68l-2.09,25.19c-4.31,2.34-8.36,6.18-13.08,2.63,1.45-7.13.67-16.01,1.96-22.94.18-.98,2.51-2.14,1.37-4.89h11.83Z" fill="#fff"/>
  <polygon points="280.22 439.68 280.22 466.96 268.38 474.51 269.7 439.68 280.22 439.68" fill="#fff"/>
  <path d="M108.62,490.28c-8.72,1.67-17.35,2.83-22.83,10.53l-13.98-2.64c2.8-5.55,13.47-15.44,19.56-16.31,2.92-.42,18.39,6.62,17.25,8.42Z" fill="#fff"/>
  <path d="M192.77,481.74c-7.6,1.02-19.06,5.53-19.07,14.47-4.15.83-3.23-2.97-4.7-4.87-2.56-3.31-5.36-4.44-9.11-6,7.08-13.46,22.51-13.44,32.87-3.6Z" fill="#fff"/>
  <path d="M341.1,467.03c-7.01,13.24-14.01,27.22-20.47,40.99l-9.52,3.95c-2.12-2.12,14.79-29.79,17.08-33.01.5-.71,1.64-.99,2.27-1.84,3.92-5.29,7.22-11.47,12.86-15.1.44.53-1.79,4.19-2.22,5.01Z" fill="#fff"/>
  <path d="M571.04,687.92c.23.38,1.31.61,1.64,1.27,3,5.84,2.12,12.93-4.5,15.38.55-3.09,1.06-6.21.49-9.37-1.34-7.46-22.92-27.55-29.41-33.04-1.91-1.62-10.96-6.38-10.53-8.52.26-1.29,1.11-.63,1.74-.46,4.65,1.21,17.31,11.13,21.57,14.61,7.52,6.14,13.88,11.74,18.99,20.14Z" fill="#fff"/>
  <path d="M160.5,235.32c.33.3,2.06,6.28,3.24,8.26,1.42,2.38,2.5,3.78,4.71,5.47l-19.05,9.21v-26.95c1.33,3.27,10.67,3.6,11.11,4.01Z" fill="#fff"/>
  <path d="M118.48,504.1c-.35,1-.89,1.86-1.73,2.53-8.67,6.94-44.75,2.22-54.4-3.28-2.25-1.28-4.86-2.79-4.35-5.83,19.23,5.07,40.68,11.67,60.48,6.58Z" fill="#fff"/>
  <path d="M226.3,419.63c.43-1.39,11.74-5.68,12.49-4.93l-.66,22.35h-11.83v-17.42Z" fill="#fff"/>
  <path d="M110.59,429.82c1.17,2.6-1.27,4.1-1.37,4.89-.36,3.11.89,12.71-.77,14.66l-11.01,2.14c-.76-7.81,1.68-14.01,1.97-21.69h11.18Z" fill="#fff"/>
  <path d="M259.47,480.83c.19.35,1.58.08,1.02,1.56-13.74,6.98-12.99-1.38-20.7-7.23-1.94-1.47-5.42-2.35-7.38-3.77-.55-.4-1.22.08-.84-1.47,10.74-3.74,22.57.96,27.9,10.9Z" fill="#fff"/>
  <path d="M295.1,263.95c-8.41,11.81-24.92,14.41-29.35-1.74,10.57,1.77,21.42,2.68,31.23-2.62-.26,1.36-1.09,3.24-1.89,4.36Z" fill="#fff"/>
  <polygon points="108.62 452.82 106.99 469.93 94.81 471.23 96.92 454.93 108.62 452.82" fill="#fff"/>
  <path d="M149.38,439.67l-3.61,37.46-4.97-2.97,2-32.84c.49-2.79,4.42-1.33,6.58-1.65Z" fill="#fff"/>
  <path d="M303.88,201.08c.91-.9,13.27,2.36,14.31,3.44,1.33,1.39.64,7.2,1.48,9.37-4.24.17-8.74,1.75-10.85,5.59-1.75-1.87-4.93-4.88-4.93-7.56v-10.85Z" fill="#fff"/>
  <path d="M171.73,197.14c-.29,6.49-1.09,12.67-6.25,17.09-2.11-1.06-1.84-2.99-4.88-3.67-2.59-.58-4.16.27-6.61.38l.63-9.56,17.12-4.24Z" fill="#fff"/>
  <path d="M247.33,492.26c.37,11.37-34.06,8.6-37.72,5.84-1.71-1.29-2.22-4.75-3.69-6.49,13.02,2.34,29.09,6.99,41.41.65Z" fill="#fff"/>
  <path d="M225.65,335.82l11.83,3.29c1.86,1.95-5.89,22.87-5.92,26.94l-5.91-20.7v-9.53Z" fill="#fff"/>
  <path d="M201.59,489.37c.5.83,3.12,3.46.98,4.8-3.46,2.18-4.94-6.78-8.48-5.85-1.32,2.29,5.45,7.31,2.19,8.44-4.13,1.43-3.7-1.6-5.03-2.98-10.26-10.65-7.16-3.9-2.43,3.74l-12.49-1.66c-1.09-4.71,18.25-18.24,25.25-6.5Z" fill="#fff"/>
  <polygon points="270.35 418.64 279.93 419.26 279.6 436.76 269.98 436.43 270.35 418.64" fill="#fff"/>
  <path d="M166.47,500.15c.14.98-.02,1.56-.61,2.34-4.86,6.44-38.03,5.01-45.45-.13l.04-3.53c14.99,3.18,31.12,6.47,46.01,1.32Z" fill="#fff"/>
  <path d="M121.48,269.16c-3.14,7.97-9.94,9.18-16.75,4.49-1.43-.98-9.44-8.34-8.6-9.47,8.07,2.68,16.84,3.34,25.24,2,1.6.83.57,1.79.1,2.98Z" fill="#fff"/>
  <path d="M536.26,541.97c.29.4,1.28-.07,1.01.89-5.18,4.05-11.74,6.04-18.4,5.92l8.87-17.73c3,3.5,5.82,7.18,8.51,10.91Z" fill="#fff"/>
  <path d="M194.09,422.59l-1.31,14.46h-9.53c-2.16-3.91.92-9.93.33-14.46h10.52Z" fill="#fff"/>
  <path d="M467.17,444.52c-3.18,3.22-6.13,6.63-10.09,8.96,2.49-10.29,1.27-23.04,16.12-16.45,1.37,1.84-5.06,6.5-6.03,7.49Z" fill="#fff"/>
  <path d="M204.6,496.87c.07.9.07,1.76-.34,2.61-3.06,6.36-27.71,6.09-33.88,3.58l1-4.04c11.39,2.18,22.5,2.71,33.23-2.15Z" fill="#fff"/>
  <path d="M112.04,501.99c-.45-.24-5.01-7.46-7.03-7.09-3.31.6,4.12,5.95,2.94,7.88l-4.6-.32-5.91-6.9,14.04-3.18c.84.14,5.63,5.95,5.72,6.82.24,2.36-3.48,3.71-5.16,2.79Z" fill="#fff"/>
  <path d="M146.09,259.25c-.29,4.1-3.41,3.78-6.28,6.28l-6.21-4.63c5.79-2.25,8.75-8.09,12.49-12.5-.18,3.58.25,7.26,0,10.85Z" fill="#fff"/>
  <path d="M107.3,473.2l-.66,10.51c-3.72-2.07-14.13-2.75-12.4-8.12.66-1.67,10.65-1.39,13.05-2.39Z" fill="#fff"/>
  <path d="M553.72,707.85l9.52-15.76c6.51,8.27-.23,16.02-9.52,15.76Z" fill="#fff"/>
  <polygon points="150.69 423.91 149.75 436.43 143.46 437.05 142.86 425.93 150.69 423.91" fill="#fff"/>
  <path d="M166.47,496.2c-2.71-.58-2.83-4.89-6.57-3.94-.95,1.94,3.27,4.94,2.62,5.9-2.2,3.26-9.54-5.54-11.82-6.89,5.82-3.43,15.02-3.66,15.76,4.93Z" fill="#fff"/>
  <path d="M544.51,381.17c-.09-2.13,6.42-2.52,8.2-2.65,5.31-.4,12.52-.42,17.43,1.67-.03,2.65-22.86,1.62-25.63.98Z" fill="#fff"/>
  <path d="M246.02,489.63c-6.02-6.27-10.01-7.64-3.94,1.97l-3.32.35-6.53-8.23c5.94-2.43,14.24-2.46,13.8,5.91Z" fill="#fff"/>
  <path d="M154.64,499.49h-13.15c.51-3.4,3.15-5.4,6.15-6.5l7,6.5Z" fill="#fff"/>
  <path d="M234.85,492.25l-11.83-.97c-.08-1.02,4.91-4.98,6.26-4.92l5.57,5.89Z" fill="#fff"/>
  <path d="M188.17,256.3l-4.26,7.22c-1.09-.89-6.26-7.87-5.59-8.54,3.3,1.17,6.32,1.62,9.86,1.32Z" fill="#fff"/>
  <path d="M99.41,502.77l-9.85-1.64c3.33-5.03,7.35-2.84,9.85,1.64Z" fill="#fff"/>
  <polygon points="146.09 205.02 142.8 198.79 145.77 197.14 146.09 205.02" fill="#fff"/>
  <path d="M75.49,527.5c-3.19,6.36-8.4,11.82-5,19.97,18.98-11.58,31.46,4.03,23.12,22.8-.68,1.53-3.79,4.95-3.92,5.92-.09.71,3.44,10.93,3.72,13.77,1.36,13.85-1.96,18.65-7.7,29.57-8.71,16.6-12.68,30.16-35.11,27.03-10.66-1.49-17.5-12.89-22.38-21.7-8.55-15.44-13.25-30.99-5.73-48.09-9.7-12.57-9.6-34.29,10.68-33.07l9,3.75c4.69-10.95-6.88-16.71-7.8-26-.3-3.04-.15-5.37,2.77-6.97,5.26-2.88,34.81-2.77,39.52.85,3.33,2.56.3,9.23-1.18,12.18ZM71.8,516.59c-10.81-2.02-22.12-1.94-32.88.33-.28,1.36,1.4,1.45,2.26,1.69,4.59,1.29,25.33,1.12,29.71-.63.87-.35,1.13.22.91-1.38ZM74.43,520.53c-8.83,1.38-17.63,2.43-26.61,1.95-1.42-.08-10.78-2.56-10.85-.97,2.23,6.41,8.29,10.68,9.12,17.81,1.7,14.6-19.25,29.97-22.5,43.77-.32,1.34-.67,2.63-.48,4.03,9.82,4.75,18.81,12.26,23.71,22.14,2.03-4.74,2.88-20.02,10.77-19.7,4.37.18,8.67,14.47,8.61,18.39,5.8-9.15,13.69-16.89,23.25-22.08-3.47-17.85-26.49-29.56-22.63-48.94.42-2.13,8.34-15.83,7.6-16.39ZM25.11,573.11c-.21-2.1,3.08-4.09,3.08-5.59-.01-2.76-5.57-6.45-1.77-12.5,4-6.36,9.8-.12,10.81-.33,3.73-.77,1.1-6.16-2.92-7.53-15.37-5.27-18.46,16.26-10.57,25.54l1.37.41ZM86.46,571.59c3.88,3.25,6.92-8.68,7.06-11.27.49-9.29-5.66-16.1-15.13-13.15-7.31,2.27-5.53,8.87-2.33,8.23.91-.18,2.9-5.48,8.59-2.02,7.15,4.34-.35,10.09-.31,14.15,0,.79,1.55,3.58,2.12,4.06ZM34.97,556.7c-6.85-2.53-8.47,2.48-4.25,7.2l4.25-7.2ZM79.46,556.11l-1.12,1.57,3.65,6.87c1.44,0,4.03-11.03-2.53-8.44ZM90.21,589.55c-1.43-1.64-14.28,9.93-15.54,11.4-2.24,2.62-7.67,13.75-10.46,13.58-.82.05-1.24-.37-1.5-1.09-.85-2.35-.5-9.78-1.75-14.03-.35-1.19-2.43-7.04-3.3-7.23-7.13,4.13-5.63,15.75-7.67,21.24-1.77,4.77-7.09-6.15-8.14-7.42-5.34-6.45-11.48-12.57-19.34-15.8-1.2,4.1-.69,8.6.08,12.73,1.48,7.98,11.95,28.14,17.22,34.38,6.08,7.2,23.04,9.11,29.69,2.83,1.13-1.07,5.69-7.88,6.8-9.6,7.37-11.41,16.47-27.13,13.91-41Z"/>
  <path d="M260.26,74.44c1.19,1.62,2.22,4.4,2.88,6.35,12.57-8.79,31.33-1.29,34.15,13.53,6.03-1.45,12.71-.33,17.99,3.03,7.12,4.53,5.2,7.39-2.14,9.45-40.12-2.31-84.4,4.14-124,.97-10.34-.83-19.32-4.5-14.36-16.38,5.39-12.92,24.53-19.67,36.41-11.25-.77-6.44,8.84-13.86,14.17-15.74,12.93-4.56,26.74-1.05,34.9,10.05ZM259.43,81.21c-1.35-2.55-1.27-4.4-3.56-7.3-10.06-12.69-37.78-10.24-41.15,6.21-.5,2.45,1.66,4.75-1.56,5.67-2.72.78-4.7-3.64-7.63-4.94-7.18-3.17-16.18-.58-21.97,4.21-10.36,8.56-10.37,18.63,4.91,20.07,38.46,3.64,82.99-3.71,122.14-.85l5.09-2.13c-5.73-6.89-14.04-5.53-21.72-3.89-.96-13.04-10.49-19.58-23.26-17.43-3.75.63-4.61,3.81-7.91,4.6-1.1-.12-2.84-3.22-3.38-4.23Z"/>
  <path d="M30.39,705.88c-.04-.88-.12-1.81.32-2.63.9-1.67,28.46-16.91,32.63-19.3,73.56-42.22,148.04-82.97,221.97-124.5l2.13.85L30.39,705.88Z"/>
  <path d="M262.46,639.5l.33,1.99-183.13,119.25-3.25.36c-1.72-1.58,7.75-7.36,9.12-8.29,48.35-33.02,99.76-65.08,149.23-96.64,5.43-3.46,20.67-14.44,25.27-16.16.81-.3,1.53-.71,2.44-.51Z"/>
  <polygon points="238.08 524.52 238.78 526.12 237.68 526.96 119.14 579.35 238.08 524.52"/>
  <path d="M267.4,730.88c2.88,2.16-2.83,5.74-4.62,7.2-24.9,20.3-51.66,38.56-76.53,58.9l-2.02-.73,83.17-65.37Z"/>
  <path d="M553.06,732.18c.19,1.22-.04,1.94-.62,2.99-.65,1.15-12.09,12.66-14.14,14.78-15.3,15.77-31.84,30.43-46.67,46.68-1.54,1.44-4.81.4-3.02-1.7,12.07-11.37,23.13-23.79,34.84-35.5,7.15-7.15,16.36-17.41,23.69-23.64.77-.65,5.12-4.48,5.92-3.6Z"/>
  <path d="M387.38,758.48c.83.83-9.92,9.49-10.51,10.84l-31.35,27.82c-.74.46-2.07-.31-2.18-.89-.51-2.72,36.5-32.68,40.41-37.84.62-.93,3.29-.28,3.63.06Z"/>
  <path d="M566.86,585.6c1.45,1.46-4.35,6.18-5.59,7.22-1.31,1.1-16.89,11.53-10.83,3.63.51-.67,12.36-9.66,13.44-10.22.72-.38,2.51-1.1,2.98-.63Z"/>
  <path d="M361.09,633.58c-.55-.94.56-2.32,1.27-3,4.25-4.06,17.33-12.1,22.84-15.29,2.52-1.46,12.18-7.07,14.14-7.57,2.98-.75,4.46.59,2.09,2.77-2.2,2.02-12.88,6.49-16.37,8.61-6.2,3.77-14.59,11.11-20.25,13.96-.77.39-3.17,1.47-3.73.51Z"/>
  <path d="M440.44,351.68l2.72,1.72c-2.66,13.23-26.49,14.76-32,3.01l2.06-2.08c9.22,7.84,19.78,6.72,27.22-2.65Z"/>
  <path d="M348.4,395.44c-6.74,5.65-12.7-4.8-8.55-13.43,1.03-2.14,7.88-11.29,9.62-5.99,1.29,3.93,2.23,16.64-1.07,19.42ZM346.53,392.91c2.11-4.08.39-8.69.08-13.05-4.77,2.39-7.8,14.02-.08,13.05Z"/>
  <path d="M443.01,373.55c5.85,5.73,10.06,19.01-1.98,17.47-9-1.15-6.41-16.46-6.31-22.34,1.64-1.61,7.04,3.64,8.29,4.87ZM445.01,380.74c-.37-.73-6.07-7.58-7-6.79-.51,2.68-1,5.39-.6,8.16,1.32,8.99,11.98,7.34,7.6-1.37Z"/>
  <path d="M340.2,361.31c-1.03-1.94-.02-3.82,2.19-3.78,4.85,4.52,9.9,6.88,16.5,4.04,3.11-1.34,6.35-7.77,8.79-3.06-2.35,8.1-12.84,10.32-20.21,7.68-1.16-.42-6.93-4.23-7.27-4.88Z"/>
  <path d="M438.66,333.85c.12.06.7,2.07.38,2.63-2.8,4.9-28.11-2.64-28.65-10.23-.41-5.72,7.12,3.4,9.25,4.61.85.48,7.11,3,7.52,3,1.73,0,11-.28,11.51,0Z"/>
  <path d="M348.92,338.45c5.24-.74,8.72-3.98,12.17-7.55,1.39-1.43,2.02-5.71,5.07-1.98-4.65,10.07-16.39,15.08-27.15,12.21l-.29-2.67c3.2-.32,7.1.44,10.19,0Z"/>
  <path d="M272.06,223.82c-3.82,6.68-9.37,11.06,4.21,11.44.85,6.35-10.39,2.89-11.13-1.69-1.01-6.22,7.35-18.56,8.49-13.08-.2,1.27-.96,2.26-1.57,3.33Z"/>
  <path d="M283.33,246.57c.34.57.13,1.22.17,1.83-3.78.03-5.43-2.14-9.54-2.02-2.78.08-10.3,4.5-7.4-1.12,1.78-3.46,14.61-2.4,16.78,1.31Z"/>
  <path d="M278.7,206.46l13.52,2.66c5.05,6.01-14.94,1.19-15.3-.49l1.77-2.17Z"/>
  <path d="M258.28,216.37c5.68-.59,5.77,9.05.55,8.76-4.25-.24-4.78-8.32-.55-8.76Z"/>
  <path d="M285.94,216.96c6.9-2.1,5.69,11.92-.73,7.71-2.63-1.73-2.02-6.87.73-7.71Z"/>
  <path d="M252.67,210.34c2.38-.79,4.9-.84,7.31-1.56s5.2-3.77,7.08-1.45c.55,2.88-12.67,7.6-14.17,5.61l-.23-2.61Z"/>
  <path d="M207.09,214.38c3.37,2.14,8.89,19.21-.2,18.96-7.01-.19,1.05-3.72,1.34-3.98,3.58-3.3-3.86-10.78-3.64-14.13.1-1.55,1.67-1.37,2.51-.84Z"/>
  <path d="M189.97,211.04c7.14-1.85,5.87,13.19-2.2,9.16-2.11-2.43-.98-8.34,2.2-9.16Z"/>
  <path d="M221.54,219.98c-5.56,3.2-8.22-3.55-5.32-7.78,5.72-2.45,7.59,3.28,5.32,7.78Z"/>
  <path d="M198.03,198.45c.97,5.18-11.02,10.26-14.38,8.47v-3.15c6.15,1.04,9.21-3.84,14.38-5.32Z"/>
  <path d="M208.55,243.14c-2.76,1.43-3.66-.97-6.21-1.34-3.54-.51-7.37.55-10.88.68.11-.67-.21-1.7-.03-2.2.8-2.18,17-3.15,17.12,2.86Z"/>
  <path d="M222.91,203.14l.47,2.52c-1.37,2.95-15.15-.62-12.83-5.22l12.36,2.7Z"/>
  <path d="M132.6,229.04c.88,1.56,1.87,3.91.85,6.07-.4.85-7.6,5.49-9.07,4.44-3.68-2.64,6.1-3.64,5.94-7.85-.11-2.79-7.79-8.45-7.24-11.22.29-1.49,1.9-.53,2.58.04,1.12.94,6.2,7.2,6.94,8.52Z"/>
  <path d="M107.74,218.27c6.19-2.32,7.42,8.28,2.88,9.48-5.34,1.4-6.43-8.15-2.88-9.48Z"/>
  <path d="M133.31,223.07c-.62-.69-1.37-.7-1.56-2.08,2.16-11.99,15.05.94,4.3,4.3-1.37-.21-1.93-1.32-2.74-2.22Z"/>
  <path d="M114.53,206.34c3.52,6.64-14.45,10.65-15.77,8.53-1.76-2.84,8.96-4,11.35-5.4,1.98-1.16,1.85-3.6,4.42-3.13Z"/>
  <path d="M129.55,246.53l.11,2.52c-2.98-2.27-15.21,3.87-15.78,3.29-3.36-3.5,12.89-8.92,15.67-5.81Z"/>
  <path d="M140.18,207.65l-1.08,3.19c-4.06-.15-11.5,1.68-12.7-3.47.72-2.03,11.08,1.62,13.79.28Z"/>
  <path d="M74.43,520.53c.75.56-7.17,14.25-7.6,16.39-3.86,19.38,19.17,31.09,22.63,48.94-9.56,5.19-17.46,12.93-23.25,22.08.06-3.92-4.24-18.21-8.61-18.39-7.89-.32-8.74,14.96-10.77,19.7-4.9-9.88-13.89-17.39-23.71-22.14-.18-1.4.17-2.69.48-4.03,3.24-13.8,24.2-29.17,22.5-43.77-.83-7.13-6.9-11.4-9.12-17.81.07-1.59,9.42.9,10.85.97,8.98.48,17.78-.57,26.61-1.95Z" fill="#fff"/>
  <path d="M90.21,589.55c2.56,13.87-6.54,29.59-13.91,41-1.11,1.72-5.67,8.53-6.8,9.6-6.65,6.27-23.62,4.37-29.69-2.83-5.27-6.24-15.74-26.4-17.22-34.38-.77-4.13-1.27-8.63-.08-12.73,7.86,3.23,14,9.35,19.34,15.8,1.05,1.27,6.37,12.19,8.14,7.42,2.04-5.49.54-17.11,7.67-21.24.87.18,2.95,6.04,3.3,7.23,1.25,4.25.9,11.68,1.75,14.03.26.73.68,1.15,1.5,1.09,2.79.17,8.22-10.96,10.46-13.58,1.26-1.47,14.12-13.04,15.54-11.4Z" fill="#fff"/>
  <path d="M86.46,571.59c-.57-.48-2.11-3.27-2.12-4.06-.04-4.06,7.45-9.81.31-14.15-5.69-3.46-7.69,1.84-8.59,2.02-3.2.63-4.98-5.96,2.33-8.23,9.47-2.95,15.63,3.86,15.13,13.15-.14,2.59-3.18,14.53-7.06,11.27Z" fill="#fff"/>
  <path d="M25.11,573.11l-1.37-.41c-7.88-9.28-4.79-30.81,10.57-25.54,4.02,1.38,6.65,6.76,2.92,7.53-1.01.21-6.81-6.03-10.81.33s1.75,9.74,1.77,12.5c0,1.5-3.28,3.49-3.08,5.59Z" fill="#fff"/>
  <path d="M71.8,516.59c.22,1.61-.04,1.04-.91,1.38-4.39,1.75-25.12,1.93-29.71.63-.86-.24-2.54-.33-2.26-1.69,10.76-2.27,22.07-2.35,32.88-.33Z" fill="#fff"/>
  <path d="M34.97,556.7l-4.25,7.2c-4.22-4.72-2.61-9.73,4.25-7.2Z" fill="#fff"/>
  <path d="M79.46,556.11c6.56-2.59,3.97,8.43,2.53,8.44l-3.65-6.87,1.12-1.57Z" fill="#fff"/>
  <path d="M259.43,81.21c.54,1.01,2.28,4.11,3.38,4.23,3.3-.79,4.17-3.97,7.91-4.6,12.77-2.15,22.3,4.39,23.26,17.43,7.68-1.64,15.99-3,21.72,3.89l-5.09,2.13c-39.14-2.85-83.68,4.49-122.14.85-15.28-1.45-15.28-11.51-4.91-20.07,5.79-4.79,14.78-7.38,21.97-4.21,2.93,1.29,4.91,5.72,7.63,4.94,3.22-.92,1.06-3.22,1.56-5.67,3.37-16.45,31.09-18.9,41.15-6.21,2.29,2.89,2.21,4.75,3.56,7.3Z" fill="#fff"/>
  <path d="M346.53,392.91c-7.72.97-4.69-10.66.08-13.05.31,4.36,2.03,8.97-.08,13.05Z" fill="#fff"/>
  <path d="M445.01,380.74c4.38,8.71-6.28,10.36-7.6,1.37-.4-2.76.09-5.47.6-8.16.93-.79,6.63,6.06,7,6.79Z" fill="#fff"/>
</svg>