<?xml version="1.0" encoding="UTF-8"?>
<svg id="Camada_1" xmlns="http://www.w3.org/2000/svg" version="1.1" viewBox="0 0 595.28 841.89">
  <!-- Generator: Adobe Illustrator 29.0.0, SVG Export Plug-In . SVG Version: 2.1.0 Build 186)  -->
  <path d="M596-.11v843H0V-.11h596ZM590,5.89H6v504c9.95-1.5,19.9-2.48,30-2.01-5.57-12.66-14.21-25.62-19.03-38.46-1.3-3.45-4.04-9.62-1.32-12.59,7.61-1.84,18.73,17.27,23.76,22.15l11.58,17.9c-7.95-24.47-17.55-48.73-23.71-73.78-1.75-7.14-4.97-14.79-2.2-22.12,4.72-2.94,13.47,12.41,15.73,15.59l24.17,57.32c-.54-9.51-2.15-19.04-2.98-28.51-.46-5.2.05-21.31-1.17-24.83-.56-1.63-4.42-2.62-6.28-4.72-6.44-7.25-12.69-46.4-9.25-55.13,1.34-3.4,5.3-5.51,5.59-6.46.77-2.55-4.31-11.06,3.56-11.39,4.88.44,3.59,7.62,5.06,10.03.97,1.6,5.16,2.15,6.93,4.07,5.84,6.31,8.33,38.55,7.54,47.43-.48,5.35-1.53,11.74-7.01,14.1,2.89,24.28,5.64,48.63,8.01,72.93.54,5.56-.3,11.21,1.02,16.98.33,1.42-.05,3.1,1.98,3.51l8.06-49.56c-.08-2.69-3.01-4.97-4.24-7.75-4.22-9.55,2.11-41.74,10.14-49.22,1.55-1.44,4.47-2.11,5.12-3.13,2.38-3.72.08-12,8.25-9.17,5.4,1.87.5,9.39.86,11.2.3,1.52,3.9,3.26,4.59,6.35,1.83,8.14-5.67,42.23-11.33,48.24-1.33,1.42-3.4,1.54-4.43,2.57-2.36,2.36-4.44,26.41-5.28,31.72-.64,4.06-2.27,8.54-2.74,12.75l7.97-14.52c3.99-6.6,20.11-28.73,27-30.1,1.85-.37,3.26-.07,4.91.75l.02,3.21-11.41,31.66c5.12-7.88,12.18-14.38,20.98-18.02,9.52-3.94,20.96-3.01,27.5-11.51l-7.93-10.05c-14.63,2.44-24.01-.91-26.78-16.18-1.09-6.04-3.52-12.65-4.15-17.84-10.93-89.52,132.44-108.15,149.59-35.59,1.07,4.51.56,11.89,1.46,14.54.49,1.44,3.89,2.69,5.3,4.7,4.56,6.48,4.11,13.67.37,20.3-3.29,5.85-9.99,6.82-10.65,7.85-1.75,2.75-2.86,16.05-7.78,19.72l-12.93,14.09,37.5,12c-.46-5.56-5.63-32.92-2.04-35.57,4.72-3.49,13.71,13.21,15.43,16.7,2.64,5.36,5.18,12.33,6.93,18.07,1.01,3.32.17,7.37,3.2,9.78,4.44-9.13,7.97-18.68,14.09-26.89,3.38-4.53,8.39-11.21,14.41-11.09,1.07,13.35-3.45,26.09-5.99,39,1.24,1.39,13.53-13.53,18.05-10.57,3.66,2.72-3.05,20.89-5.06,24.56l32,17.02,3.01-18c-10.33.5-19.52-4.84-20.89-15.62-2.53-19.94,4.29-38.9,12.89-56.36-4.13-1.37-8.33-6.49-10.02-10.5-1.83-4.32-1.33-7.8-2.44-11.56-.62-2.1-2.55-3.76-3.23-5.77-4.5-13.36,5.72-29.61,8.25-43.15,3.35-17.94,5.69-56.98,19.41-69.59,3.79-3.49,5.73-5.88,8.99-9.02,28.37-27.26,79.56-31.63,109.07-3.95,8.86,8.31,21.83,33.22,22.06,45.07.06,3.09-1.83,4.13-1.97,5.89-.17,2.08,1.66,6.33,1.87,9.07.32,4.18-.52,8.43.45,12.57,3.41,3.74,7.32,4.94,10.29,9.68,3.83,6.11,4.38,12.27,4.71,19.29,1.23,1.76,10.89.71,13.94,1.06,14.44,1.65,25.26,9.37,34.62,19.88V5.89ZM500.66,278.23c-22.51-19.82-64.2-20.22-89.55-5.73-2.16,1.23-20.52,15-18.1,17.39,7.91-2.92,19.06-.6,26.47-2.02,4.02-.77,5.53-7.05,14.87-6.89,9.69.16,10.51,5.58,14.36,6.72,4.73,1.39,13.81,1.36,19.5,2.5,16.69,3.35,33.14,8.01,48.79,14.7,1.12-1.18-4.05-11.51-5.17-13.32-1.94-3.11-8.49-10.98-11.16-13.34ZM429.71,284.1c-16.75,3.78-12.99,33.77,7.57,29.56s14.32-34.49-7.57-29.56ZM419,289.9c-1.9-1.35-29.06,2.37-32.31,4.18-3.64,2.03-7.91,12.55-6.68,16.8,12.54-2.05,25.27-3.35,37.99-3-1.81-6.76-3.29-11.64,1-17.98ZM522.99,326.89c.43-5.41-.97-13.71-4.53-17.96-1.97-2.34-12.83-6.27-16.48-7.52-16.73-5.72-34.56-8.63-51.97-11.52,4.07,7.75,2.55,11.25,0,18.99,25.1,2.32,48.7,12.03,73,18ZM417,310.9c-1.85-.34-3.54-1.12-5.49-1.1-7.11.07-19.99.91-26.88,2.22-3.73.71-6.01.52-7.69,4.31-5.96,13.41-5.74,35.86-9.23,50.77-2.97,12.64-10.85,23.16-6.42,37.02.83,2.59,3.03,4.82,3.48,6.52,1.61,6.08.06,9.77,5.23,15.77,6.84,7.95,8.96-2.45,14.49-7.54,7.88-7.24,20.62-13.39,31.52-12.98.39-1.79-.53-1.97-1.66-2.83-3.35-2.55-7.79-3.8-11.86-7.14-22-18.06-19.71-48.46-14.25-73.79,9.56-2.13,22.34-3.07,28.77-11.22ZM443.85,313.99c-9.16,3.17-15.27,2.51-23.2-2.95-8.05,8.69-19.69,10.75-30.66,13.55-5.75,24.07-5.71,59.21,18.98,72.83,27.72,15.29,68.91,5.22,81.13-25.43,3.81-.78,6.85,2.5,10.53,2.85,19.26,1.86,22.27-29.08,2.86-26.98-3.31.36-5.08,2.52-7.24,2.88-6.01.99-15.23-12.9-16.46-18.64-12.81-2.4-28.65-6.32-35.94-18.1ZM521.86,329.03c-9.1-2.85-72.23-21.85-75.87-18.13-.3,7.54,11.67,12.59,17.78,14.72,3.82,1.33,16.33,3.23,18.2,4.8,1.08.9,2.57,6.62,3.98,9.02,1.04,1.76,6.63,8.41,8.06,9.02,2.56,1.09,5.1-2.75,7.68-3.34,21.65-4.97,24,29.79,2.79,31.79-4.92.46-7.98-1.01-12.49-1.56-5.89,10.13-14.43,18.41-23.92,25.17,1.5,8.56,12.34,8.25,19.29,11.52,3.39,1.59,7.39,4.25,10.12,6.86,1.43.01,4.33-9.79,5.33-11.66,4.61-8.68,15.11-18.94,24.17-22.83,10.38-4.45,15.65,1.27,11.71-13.71-2.05-7.76-7.22-14.49-14.75-17.46l-2.09-24.2ZM56.9,352.77c2.94-4.6-8-15.18-3.89,1.12.33.23,3.72-.87,3.89-1.12ZM260.65,366.24c-35.64-38.86-114.82-21.67-131.37,29.42-3.69,11.4-5.82,27.9,2.71,37.23,4.04-10.04,15.63-9.16,24.01-5l1.44-16.07c15.48-3.62,28.52-14.52,30.58-30.93,1.7-.04,2.16-.56,1.91,1.41-.89,7.19-3.27,11.67,6.57,12.59,13.81,1.29,28.31-9.75,27.5-23.99,6.79,2.25,12.25,7.43,19.49,10,4.98,1.77,15.43,2.62,18.45,4.55,4.27,2.73,5.06,17.43,8.52,18.05,5.84,1.04,3.01-7.86,2.24-11.81-1.65-8.51-6.16-19.01-12.06-25.44ZM53.71,356.11c-7.76,1.78-6.98,12.16-6.7,18.27.4,8.51,3.72,32.05,8.12,38.88,5.07,7.88,14.74,3.78,15.89-5.84s-.7-37.12-4.51-45.54c-2.56-5.66-6.82-7.14-12.81-5.77ZM226.01,375.88c-2.53,16.34-25.04,28.18-39.45,18.01-5.49,9.61-14.87,16.6-25.57,19.48-1.95,1.62-.23,15.41-4.48,18.5-19.35-15.86-35.84,13.73-15.21,23.23,7.22,3.33,12.87-1,15.67.25,1.29.58,6.92,8.43,9.53,10.54,15.36,12.4,42.92,13.86,61.49,9.49,41.13-9.68,49.09-46.51,35.73-82.71-3.52-9.53-13.05-7.09-21.93-10.07-5.69-1.91-10.04-5.93-15.78-6.72ZM590,437.89v-32.5c-21.34-32.94-71.79-30.08-86.7,7.3-2.3,5.76-4.02,10.73,1.69,15.2l2.98-12.53c12.12-3.26,23.3-7.59,31.54-17.45,6.65,12.92,14.39,22.89,29.34,26.15.27,2.2.3,4.26,1.11,6.39,5.48,14.32,8.85,3.15,20.05,7.44ZM103.88,402.76l2.13-6.34-3.45-1.47c-1.85.6-2.74,6.05-2.55,7.94l3.87-.13ZM465.93,401.95c-15.7,5.39-31,6.32-47.26,2.87-3.42,2.91.33,9.2,2.68,11.72,10.97,11.77,41.72,7.06,48.49-8.01l-3.91-6.59ZM539.99,401.89l-11.97,8.52-17.8,6.7c-5.56,15.1,1.43,30.72-1.06,46.05,11.76,18.88,45.65,20.45,58.67,3.06,1.42-1.9,4.32-8.35,5.17-8.89,1.48-.94,15.39,3.25,16.98-4.96,1.35-6.98,1.22-14.22-7.46-13.54-5.84.45-3.94,5.11-9.99.03-6.73-5.65-3.93-10.05-5.66-12.83-.28-.44-7.94-2.74-9.75-3.75-7.31-4.08-15.35-12.07-17.12-20.39ZM78,535.88c-3.42-28.75-13.18-57.69-23.98-84.51-4.35-10.78-9.07-22.05-14.84-32.16-2.91-5.09-6.58-13.28-12.16-15.32-2.58,3.03,9.74,43.31,11.71,49.78,8.18,26.9,18.47,53.19,27.04,79.96,2.09,4.16,8.37,1.63,12.24,2.25ZM97.77,405.08c-9.14,1.11-12.63,21.87-13.65,29.43-.83,6.16-3.4,23.87,5.43,25.39,10.79,1.85,14.44-18.08,16.15-25.81,2.01-9.11,8.24-30.97-7.93-29.01ZM277.68,428.58c7.04-8,5.23-27.57-7.75-22.06,2.04,8.32,2.33,16.83,2.07,25.37.55.63,5.16-2.72,5.68-3.31ZM414.98,407.91c-2.09-.26-8.25.42-8.9,2.61.44,7.65,7,19.7,14.17,22.62,2.73,1.11,5.67.55,8.58,1.42s5.08,3.64,7.44,4.55c6.87,2.65,21.66-2.5,28.03-6.42,7.79-4.78,13.28-12.2,18.69-19.31-2.13-.86-8.51-3.94-10.34-3.39-.88.26-3.49,4.47-5.19,5.87-7.86,6.5-19.72,10.87-29.96,10.01-9.61-.8-22.16-7.19-22.53-17.97ZM389.88,464.78c-.6-14.37,2.01-27.17,8.6-39.91,1.11-2.14,9.8-12.82,3.98-13.98-1.09-.22-11.89,6.22-13.49,7.47-16.4,12.77-32.09,54.59-23.94,73.98,4.97,11.81,18.47,9.92,28.28,5.36,4.87-2.27,28.12-19.23,28.47-23.48-1.15-10.87-10.89-16.64-12.8-26.34-6.79.39-2.03,12.72-3.07,13.93l-33.44,13.04c-1.84-1.53-1.79-1.52.15-2.84,4.28-2.9,12.25-5.36,17.25-7.25ZM411.01,447.9c.5,5.77,6.11,9.22,9.02,14.47,7.66,13.83,4.8,15.47,19.65,25.35,19.52,12.97,48.35,26.76,60.81-1.84,9.87-22.65,11.9-59.61-14.44-71.57-7.9,3.4-3.35,11.61-3.05,18.1.58,12.82-1.01,26.49-6.75,38.03.3,1.97,11.11,4.4,10.76,8.45-.83.77-18.01-9.05-20.32-10.17-3.49-1.69-13.46-4.49-15.65-6.35-.74-.63-5.38-9.87-7.52-12.48-5.74-7.03-14.17-15.6-24.05-12.01-1.29.47-1.81-.66-1.46,2.02,6.73,1.07,13.52,5.04,17,11-3.68-.06-5.85-4.18-9.31-6.18-4.38-2.54-12.37-6.88-14.67-.3,6.52,2.79,12.27,6.2,15.97,12.48-6.2-1.74-8.76-9.92-15.99-8.98ZM71.99,494.88l-7.48-75.99-2.33,1.43c2.66,14.2,2.36,28.76,3.84,43.06.89,8.57,1.75,20.92,4.29,28.72.34,1.05.25,3.02,1.69,2.78ZM393,447.39c-.52,4.89.38,10.51,0,15.5l10.13-3.44c.5-.58.19-8.93,1.39-11.54.84-1.83,3.63-2.63,4.93-4.09.93-1.04,1.01-2.79,1.85-3.63,1.7-1.69,4.98-2.87,6.69-4.81.31-1.23-4.89-4.72-6.41-6.58-2.22-2.71-3.83-7.13-5.52-9.29-.76-.97-.82-.8-2.05-.61-4.43,8.24-10.02,19.11-11.02,28.49ZM480,422.89c-1.77-.42-1.99.64-2.97,1.53-2.61,2.38-5.06,5.62-8.12,7.88-8.2,6.09-18.6,9.7-28.92,9.59l13.3,18.69c5.38.99,14.5,7.88,19.4,8.14,2.64.14,7.3-15.06,7.3-17.34v-28.5ZM306.99,487.89c1.4-1.69-8.71-28-10.79-31.7-.82-1.45-7.5-10.15-9.2-8.29l3.98,33.26,16,6.73ZM337.99,454.9c-1.53-.22-2.34,0-3.56.93-1.33,1.02-7.99,9.79-9.26,11.74-4.66,7.15-7.72,15.56-11.17,23.32,3.38-1.18,15.22,6.75,16.99,5.01l7-41ZM590,508.89v-52c-3.93,4.87-12.87,1.58-16.01,3.49-.7.43-3.4,6.12-4.96,8.04-3.17,3.89-7.55,6.84-12.04,8.97,11.73,2.47,23.16,9.72,27.75,21.26.89,2.24,1.87,9.91,2.28,10.24.28.23,2.16-.13,2.98,0ZM22.66,462.23c-1.56-1.37-3.84-2.29-5.65-3.35-1.09,1.45,2.95,10.55,3.81,12.68,8.62,21.05,21.74,41.02,31.33,61.67,2.36,4.41,7.91,2.63,11.84,1.65-5.85-20.08-15.38-38.94-27.59-55.9-3.23-4.49-9.85-13.32-13.75-16.74ZM90.99,461.89h-2.99c-2.55,22.7-9.34,45.05-9,68l5.72-21.77,6.27-46.23ZM80,536.88c3.17.35,11.24,3.74,13.51,1.01,9.77-24.18,22.65-47.09,31.45-71.6l-1.45-3.38c-8.65,5.11-16.24,13.72-21.89,22.09-10.51,15.57-17.32,33.71-21.62,51.87ZM510.67,468.23c-.4-.35-2.56-1.49-2.66-1.34l-2.52,12.98,13.5-3.99c-1.46-2.06-4.47-3.36-6.5-5.02-.85-.69-1.12-2.01-1.82-2.62ZM169,469.9c-3.26-3.78-11.96,7.13-13.83,9.66-11.77,15.9-16.41,37.15-12.96,56.62.46,1.57,14.26,10.87,16.31,11.7,3.45,1.38-.94-5.76-1.28-6.73-8.59-25.03-7.24-51.46,11.76-71.25ZM278.99,497.89c3.85-4.18-23.6-25.81-29.75-26.83-3.58-.6-14.26,5.32-19.04,6.54-6.66,1.71-14.36,2.35-21.2,2.3l21.67,10.82c2.79.69,10.4,7.62,11.95,7.92,2.48.48,13.78-2.56,17.84-2.79,6.44-.35,12.42.06,18.53,2.04ZM294.5,516.89c5.24-.53,11.18.39,16.5,0-5.09-7.5-17.94-13.5-26.8-15.7-40.52-10.07-79.55,12.19-108.19,38.7.16-4.21,5.65-8.27,8.79-10.94,7-5.96,15.6-11.37,23.58-15.97,2.77-3.01-8.02-8.62-10.71-10.26-9.91-6.04-19.65-8.69-29.68-13.37-1.49-.7-2.48.16-1.99-2.45,16.76,2.92,31.89,13.37,45.71,22.85l27.28-10.35c-10.29-6.79-24.11-15.69-35.98-19.02-6.11-1.72-12.96-1.58-19.46-3.54-5.18-1.56-10.87-6.98-15.1-2.98-10.34,9.78-14.01,29.92-13.51,43.58.28,7.51,3.86,25.7,8.58,31.41,3.11,3.75,28.4,14.24,34.48,16.52,41.65,15.57,98.25,27.79,142.21,19.25,3.99-.78,14.78-2.87,16.55-6.45.9-1.82,3.2-12.43,3.14-14.62-.25-10.44-7.26-23.28-14.89-30.18-29.4-26.59-73.29-12.46-101.53,8.53-6.36,4.73-11.97,12.94-19.5,14.99,11.89-13.32,28.44-25.58,45.02-32.47,6.27-2.61,18.97-6.86,25.48-7.52ZM387.39,580.27c34.08-34.5-22.14-65.55-49.39-77.88-23.24-10.51-49.41-19.43-73.98-26.01l11.7,11.55c29.46,10.64,65.15,22.52,90.2,41.54,25.72,19.53,22.04,41.64-7.94,52.9-53.27,20-138.39-2.97-188.34-26.62-19.38-9.17-59.77-30.49-39.64-57.36,5.98-7.97,14.45-7.63,17.75-10.75.45-.43,6.72-10.35,6.24-10.74-26.02,2.55-49.7,24.33-39.47,51.97,9.2,24.85,57.28,45.59,80.96,54.04,49.66,17.72,150.68,39.09,191.9-2.64ZM432,527.39c.5,4.58-.36,9.83,0,14.5l8.58-14.92c2.56-3.96,13.33-17.48,17.9-17.15.84.02,1.6.33,2.09,1.02,2.33,3.3-8.9,29.79-10.56,35.05,3.03-3.94,24.16-21.72,27.98-17.99.22,1.96-.3,3.73-.95,5.54-2.63,7.35-11.35,16.58-13.62,23.41-.36,1.07-.8,2.05,0,3.09l22.58,1.95c.05-3.67-.98-11.59,3-13.54s7.66,2.84,11,4.02l-8.99-50.02c-10.47,6.38-21.7,2.4-32.26-1.72-12.42-4.84-26.57-13.7-35.26-23.72-8.28,8.06-17.63,16.66-27.83,22.15-2.22,1.2-9.44,3.03-10.45,4.05-1.19,1.2-4.63,18.04-4.22,20.23l16.99,21.54c-1.08-10.92-3.08-22.08-.98-33,7.36-.55,9.78,9.51,12.77,14.73l3.21,10.27c1.01-7.73,2.05-16.56,4.54-23.97,1.02-3.04,2.53-8.26,5.96-9.03,2.74.64,8.15,20.12,8.51,23.5ZM525.97,478.95c-1.93-2.89-18.66,1.94-21.3,3.86-1.17.85-2.57,6.22-3.87,8.38-1.41,2.35-6.3,7.32-6.62,8.41-.73,2.44,2.66,18.56,4.42,19.17.99.35,2.3.04,3.39.11,1.04-5.99,2.88-13.6,5.56-18.99.7-1.42-.24-2.52,2.44-2.01-6.66,21.24-11.54,41.85-4.99,64,2.57.39,1.56-.24,2.09-1.41,1.94-4.27,1.83-8.48,5.49-12.5,9.65-10.61,11.35,7.78,10.42,14.91,3.07-2.3,11.83-11.34,15.58-8.11,2.34,2.02-.02,5.82,3.4,5.11l9.01-21.99c-4.91.93-9.1-1.24-13.6-1.9-9.16-1.34-23.55-1.35-31.84-4.16-1.63-.55-2.91-.75-2.55-2.94l49.85,5.85,3.15-29.86c1.25-1.67,1.81.12,1.99,1.48.78,5.91-1.18,13.11-1.75,19.07l24.33,5.41c6.72-.49,4.35-22.89,2.87-27.91-3.93-13.37-14.2-20.35-27.44-23.05-2.18,18.4-34.19,21.63-30.04-.94ZM530.31,489.57c7.55,6.83,21.4.19,23.66-9.2-.24-2.52-8.3.42-10.44.55-5.26.32-10.37-.28-15.53-1.04-.23,3.22-.27,7.36,2.3,9.69ZM349.99,482.89c-1.75-1.98-15.55,11.18-16.5,12.99-.53,1.02-.64,1.88-.5,2.99,3.44-.54,10.12,5.27,12.57,3.12,1.82-2.61,5.85-17.49,4.43-19.11ZM138.99,533.89c-2.85-14.96,1.09-29.21,6.52-42.98-22.12,7.18-23.75,29.34-6.52,42.98ZM370.65,536.24c-9.69-9.55-25.96-17.36-38.27-23.23-5.97-2.85-51.1-22.86-53.38-21.11,1.88,1.42,2.85,5.47,4.03,6.46,1.57,1.32,8.71,2.23,11.53,3.47,8.06,3.54,17.51,13.78,21.47,15.53,2.04.9,4.58.4,6.8,1.2,26.49,9.64,47.12,30.13,36.19,60.32,20.91-8.11,29.45-25.1,11.64-42.65ZM114.5,497.89v1c.65-.33.65-.67,0-1ZM113.5,499.89v1c.65-.33.65-.67,0-1ZM112.01,501.9l-.52,2.97c1.08-.88,1.83-1.51,1.5-2.97h-.98ZM109.99,510.88c.23-.23,1.11-3.21,1-3.99-1.92.49-2.25,2.21-1.98,3.99.32-.05.83.14.98,0ZM423.99,507.89c-2.27-.41-1.59.12-2.23,1.28-8.35,15.19-6.39,42.84-5.77,59.73l7.46,1.02c7.5-21.17,8.56-40.77.53-62.02ZM6,511.89v230l19,1.99c-1.19-8.62-3.82-20.77,1.44-28.06,10.56-6.46,14.79,23.84,17.46,29.66.53,1.16-.48,1.81,2.09,1.41,1.61-8.73,3.27-17.12,7.5-25.01,3.52-6.57,11.53-13.46,12.55-1.53.88,10.26-.78,20.44-2.03,30.54,6.18-5.22,10.32-17.37,19.97-15.99,1.35,8.1-1.17,15.56-3.98,22.98,27.13,2.34,54.26,17.56,75.47,34.03,15.69,12.19,30.32,26.75,40.73,43.76.8.47,10.74.48,12.27.19,2.92-.56,14.6-14.79,18.01-18.02,20.58-19.54,48.58-38.78,76.48-45.49,4.55-1.09,10.37-.55,14.04-2.99.42-2.12-17.29-32.04-19.32-38.66-1.2-3.91-5.85-24.73,2.34-22.44,7.7,2.15,19.34,24.5,24.97,30.62-1.58-14.55-6.76-30.89-5.02-45.53.41-3.46,2.67-10.29,7.06-9.07,7.88,2.18,14.29,27.08,16.5,34.57l2.46,13.02c1.4-9.32,2.79-18.77,5.73-27.78,1.94-5.93,8.09-23.44,15.75-22.29,5.22,2.13,4.59,8.77,5.62,13.58l-5.07,40.49,15.78-21.99c11.47-8.3,11.25,2.17,8.92,11.2-3.57,13.88-12.39,28-16.72,41.78,8.62,1.46,17.17,3.71,26,3.01l-.57-8.06c10.94-3.74,23.22,4.97,30.08,13.06l.5-.5v-20c0-1.01-4.47-5.19-4.01-7.5-7.18,4.88-23.29,9.18-20.06-4.58l7.08-7.91c-16-5.33-11.06-21.62,5.99-15.51-5.26-18.84,13.64-23.5,17.02-5,.92,1.19,9.6-11.06,17.51-5.01,7.53,5.77-3.68,14.89-2.51,16,21.46,1.41,15.79,20.76-4.01,17.01,1.84,7.26,1.31,16.88-8,17l1.5,15.99c2.2-9.17,34.37-35.27,29.51-12l30-5c-2.5-15.27-11.64-32.2-12.88-47.62-.71-8.83,1.96-17.3,10.91-8.91,5.41,5.07,8.39,13.69,12,20l8.96,26.52c2.59-15.33,6.17-30.84,14.21-44.3,6.11-10.22,18.48-22.95,17.72-1.28l-9.91,36.57,14.06-14.43c4.23-2.17,7.56-5.82,12.79-4.42,7.1,7.27-17.06,36.71-14.85,38.85l34.99,2.01v-179c-16.74-6.69-34.96-6.65-52.47-10.05-1.86.27-5.37,6.76-8.01,9.07-15.57,13.66-40.27,2.88-42.56-16.97l-25.52-1.72-7.43,13.66,13.99-.98c.56,2.53-.99,2.19-2.77,2.68-16.73,4.64-37.04-6.86-55.71-5.67-3.76.24-13.11,1.12-14.63,4.37-1.9,4.08-3.17,14.31-5.11,19.89-7.7,22.22-21.09,39.29-38.78,54.22,7.9-.01,15.79,3.09,23.55,3.53,2.32.13,7.69-2.42,7.43.45-2.82,5.33-21.43-1.26-26.65-1.41-12.74-.37-22.37,9.63-34.85,10.91-7.28.75-14.24-1.16-20.95-1-12.44.28-25.05,5.74-39.03,5-17.42-.92-29.82-10.31-45.29-14.7-11.41-3.24-22.57-1.96-34.2-6.8s-32.48-26.48-42.52-26.48h-15c-.53,0-2.08,1.6-3.49.99-2.97-2.86,9.89-3.99,10.99-4.49-7.47-10.11-13.07-22.83-15.89-35.11-1.7-7.42-3.96-20.51-4.11-27.91-.13-6.57,2.33-15.04,2.07-20.97-.21-4.88-5.2-12.19-3.08-18.51-2.25-.31-2.58-.04-3.86,1.63-1.74,2.28-9.41,19.18-10.01,22.01-.5,2.35,5.33,1.68,6.88,2.37-5.42,4.85-16.57-.06-23.62-.89-15.08-1.76-28.1-.4-42.86,2.89-1.69-1.18-.7-1.68.74-2.27,2.65-1.09,14.22-2.23,14.75-2.76l-14.2-25.78-31.8.79ZM590,510.89c-5.43-.94-2.02,2.88-2.1,6.39s-1.38,10.86-3.13,13.92c-.81,1.41-2.41,1.6-3.09,2.96-.88,1.77-5.56,13.17-5.63,14.27-.19,2.76,1.77,6.84,1.94,9.97.31,5.77-.29,11.62.12,17.38l11.9,3.1v-68ZM459,512.9c-3.88-.72-5.62,2.01-8.02,4.47-13.68,13.98-20.49,34.92-24.98,53.51l10.99,2.01,22.01-59.99ZM413.99,568.88c-1.85-17.75-.92-41.12-14.98-53.99-.96,18.58,1.01,36.89,5.01,54.98l9.97-.99ZM501,521.9h-2.99l1.01,9.99,1.98-9.99ZM557.11,529.01c-2.35,6.68-4.39,13.67-7.38,20.11s-7.98,12.4-10.76,18.26c-.43.91-1.69.73,0,2.02l20,3.04c5.73-8.88,12.11-18.09,16.19-27.88.89-2.15,4.97-10.96,2.87-12.21l-20.93-3.34ZM438.99,573.89l13.04,1.6,22.96-45.59c-17.82,8.72-31.74,24.24-35.99,44ZM360.65,638.53c15.87-15.75,26.14-36.91,30.86-58.62-43.91,40.39-115.99,27.81-168.72,13.69-38-10.17-82.7-26.25-107.77-57.71-3.29,27.75,2.55,56.93,17.93,80.29,1.82,2.28,6.81,1.46,9.88,2.39,15.66,4.73,24.4,20,40.19,25.81,11.26,4.15,23.65,3.58,34.77,7.23,13.66,4.49,25.59,12.57,40.83,14.17,12.37,1.31,22.23-3.02,33.91-3.88,9.73-.72,22.39,1.42,31.54-.46,10.27-2.11,29.02-15.41,36.59-22.92ZM517.01,573.88c3.36-8.2,5.25-18.97.49-26.97-7.59,5.7-7.65,14.95-11.02,22.97l-6.94-14.03c-2.83-2.7-6.11-5.94-10.42-4.83-6.53,39.39,46,47.78,48.87,5.87-1.44-1.44-8.56,3.34-9.94,4.55-1.52,1.33-9.61,13.96-11.05,12.44ZM562,572.88c2.56-.07,12.26,3.04,13.54,1.06.5-3.23-.11-20.19-2.05-21.04l-11.49,19.98ZM398,570.88l4.97-1.49-1.99-5.5-2.98,6.99ZM214,835.89h376v-71.5l-2.5-1.5-33.81-1.8-13.68,18.81c-.35-1.69.49-2.91,1.16-4.33,5.3-11.16,15.12-22.71,21.02-33.98,2.97-5.67,6.57-12.12,5.8-18.69-11.42,1.16-23.08,17.12-27.5,27-4.05,9.06-4.59,19.62-7.55,28.45-.55,1.63-.76,2.91-2.95,2.54,1.23-6.39,2.65-12.91,4.29-19.2,4.53-17.42,13.21-39.29,15.45-56.55.35-2.68,1.62-12.32-2.25-12.29-2.45.95-4.85,3.58-6.47,5.57-11.14,13.64-18.9,45.56-18.01,62.96.31,6,3.97,14.25.48,19.51-2.62-11.25-2.9-23.15-5.6-34.39-2.21-9.2-12.89-38.68-19.95-44.05-1.39-1.06-5.48-3.26-5.95-.09-2.99,20.2,15.61,54.7,19.57,75.48.37,1.95.94,2.65-1.06,4.03-1.31-.03-5.19-17.72-6.68-20.3-.64-1.11-.73-1.6-2.22-1.63-4.52-.11-14.16,3.74-19.36,4.7-3.43.63-6.9-.32-10.26.74-12.09,28.72-51.37,31.21-69.43,6.92-5.94,2.49-25.16-4.89-29.07-1.42-.73.65-4.4,11.22-6.48,9,4.41-11.42,10.41-22.13,15.01-33.48,2.16-5.34,10.45-25.82,10.07-30.03-.14-1.51-.2-2.6-1.61-3.49-4.63-.94-15.1,15.04-17.21,18.77-8.28,14.61-8.64,24.87-12.76,40.24-.45,1.7-1,6.78-3.5,5.99,3.6-22.81,9.93-45.42,11.99-68.5.63-7.08,2.07-17.8-.75-24.24-1.49-3.41-4.24.21-5.65,1.84-8.11,9.28-13.89,37.02-14.64,49.36-.79,13.02.96,26.07,1.05,39.07l-2,1.48c-1.43-21.35-1.92-43.19-7.5-64.01-.97-3.64-9.27-31.09-15.46-25.95-2.53,16.82-.15,35.52,3.21,52.2,2.56,12.69,7.64,25.06,9.74,37.75-2.45.42-1.86-.29-2.46-1.98-2.18-6.15-3.18-14.23-5.5-20.54-2.65-7.21-22.95-44.96-30.51-43.47-5.82,1.15,3.63,25.01,5.3,28.68l21.18,39.31c-3.12.81-4.94-7-5.56-7.06-42.2,5.65-79.43,31.49-105.44,64.07ZM436.01,719.88c1.08-5.93-2.91-18.72-10.57-14.05-5.53,3.37-.16,12.11-.44,17.05-5.92-1.91-14.76-7.05-17.59,1.49-.25,5.71,10.82,9.49,15.6,9.53-3.18,3.27-7.78,2.36-11.02,6.47-1.79,2.28-3.14,5.5-1.04,8.08,5.18,1.48,8.64.33,12.99-2.12,1.99-1.12,2.87-4.26,6.05-3.44,2.71,18.23,23.82,18.23,15.01-2.99,21.54,4.21,28.51-14.33,3-12.01-1.01-.86,6.94-9.04,7.56-10.94,2.09-6.42-2.88-8.45-8.52-6.5-4.59,1.58-6.73,7.87-11.04,9.44ZM6,743.89v92h188c-25.69-38.08-68.34-69.02-114.39-76.07-1.08.3-6.66,17.8-8.41,20.77-.8,1.37-1.22,2.68-3.2,2.29,4.37-15.25,13.72-29.68,13.99-45.99-1.93-2.01-10.89,8.33-12.19,10.3-7.43,11.28-7.12,18.42-9.09,30.92-.27,1.7-.09,5.63-2.71,4.77-.94-8.66,9.54-62.91,4.98-65.99-9.17,1.71-13.37,20.49-14.73,28.75-2.26,13.7.55,20.82,1.1,33.48.06,1.49,1.22,2.44-.86,3.76-2.76-8.6-2.9-18.3-4.77-27.22-1.43-6.84-8.36-35.63-13.71-38.3-4.17-1.28-4.1,9.4-4.07,12.05.21,16.61,6.28,33.31,7.99,49.07.25,2.35.63,5.61-1.92,6.4l-7.16-38.85-18.85-2.14ZM367.5,737.89v1c.65-.33.65-.67,0-1ZM442.01,785.89c11.95-1.12,23.01-8.85,27.05-20.45,1.62-4.64,4-11.84-3.77-8.77-10.48,4.14-23.01,17.62-23.27,29.22ZM439,783.89v-24.5c0-.48-3.15-2.24-4-2.5v19.5c0,.62,3.51,8.58,4,7.5ZM437,786.88c-6.46-12.74-19.09-23.91-33.99-23.98,2.06,16.67,18.81,23.98,33.99,23.98Z"/>
  <path d="M590,5.89v395c-9.36-10.5-20.18-18.23-34.62-19.88-3.05-.35-12.71.7-13.94-1.06-.33-7.02-.88-13.18-4.71-19.29-2.97-4.74-6.88-5.95-10.29-9.68-.98-4.14-.14-8.39-.45-12.57-.21-2.75-2.04-7-1.87-9.07.14-1.76,2.03-2.8,1.97-5.89-.24-11.85-13.2-36.76-22.06-45.07-29.51-27.68-80.7-23.3-109.07,3.95-3.26,3.14-5.2,5.53-8.99,9.02-13.71,12.61-16.05,51.65-19.41,69.59-2.53,13.53-12.75,29.79-8.25,43.15.68,2.01,2.61,3.67,3.23,5.77,1.11,3.76.62,7.23,2.44,11.56,1.69,4.01,5.89,9.13,10.02,10.5-8.6,17.47-15.42,36.43-12.89,56.36,1.37,10.78,10.56,16.12,20.89,15.62l-3.01,18-32-17.02c2.01-3.67,8.72-21.83,5.06-24.56-4.52-2.97-16.81,11.96-18.05,10.57,2.54-12.91,7.06-25.65,5.99-39-6.01-.12-11.03,6.56-14.41,11.09-6.12,8.21-9.65,17.76-14.09,26.89-3.03-2.41-2.19-6.47-3.2-9.78-1.75-5.74-4.29-12.71-6.93-18.07-1.72-3.49-10.71-20.19-15.43-16.7-3.58,2.65,1.58,30.01,2.04,35.57l-37.5-12,12.93-14.09c4.91-3.68,6.03-16.98,7.78-19.72.66-1.03,7.36-2.01,10.65-7.85,3.73-6.63,4.18-13.82-.37-20.3-1.41-2.01-4.81-3.26-5.3-4.7-.9-2.65-.39-10.04-1.46-14.54-17.15-72.55-160.52-53.92-149.59,35.59.63,5.2,3.06,11.8,4.15,17.84,2.77,15.27,12.14,18.62,26.78,16.18l7.93,10.05c-6.54,8.5-17.99,7.56-27.5,11.51-8.8,3.64-15.86,10.15-20.98,18.02l11.41-31.66-.02-3.21c-1.65-.82-3.05-1.12-4.91-.75-6.88,1.37-23.01,23.5-27,30.1l-7.97,14.52c.47-4.21,2.1-8.69,2.74-12.75.83-5.31,2.92-29.36,5.28-31.72,1.03-1.03,3.1-1.15,4.43-2.57,5.66-6.02,13.17-40.11,11.33-48.24-.7-3.09-4.29-4.83-4.59-6.35-.36-1.81,4.54-9.33-.86-11.2-8.17-2.83-5.87,5.45-8.25,9.17-.65,1.01-3.58,1.69-5.12,3.13-8.03,7.48-14.36,39.67-10.14,49.22,1.23,2.79,4.15,5.07,4.24,7.75l-8.06,49.56c-2.03-.41-1.65-2.09-1.98-3.51-1.32-5.76-.48-11.42-1.02-16.98-2.38-24.3-5.13-48.65-8.01-72.93,5.48-2.36,6.53-8.75,7.01-14.1.8-8.88-1.69-41.12-7.54-47.43-1.78-1.92-5.96-2.47-6.93-4.07-1.47-2.42-.19-9.59-5.06-10.03-7.86.34-2.79,8.84-3.56,11.39-.29.96-4.24,3.06-5.59,6.46-3.44,8.73,2.81,47.88,9.25,55.13,1.86,2.1,5.72,3.09,6.28,4.72,1.22,3.52.72,19.63,1.17,24.83.83,9.47,2.43,19,2.98,28.51l-24.17-57.32c-2.27-3.18-11.02-18.53-15.73-15.59-2.77,7.33.44,14.99,2.2,22.12,6.16,25.05,15.76,49.3,23.71,73.78l-11.58-17.9c-5.03-4.89-16.15-24-23.76-22.15-2.72,2.97.02,9.14,1.32,12.59,4.82,12.84,13.46,25.81,19.03,38.46-10.1-.47-20.05.51-30,2.01V5.89h584ZM79.99,82.89c12.99-.61,27.69-2.62,31.15-17.35,6.83-29.05-30.88-30.57-49.66-23.66l-1.01,56.02c1.99,4.02,14.97,3.64,18.09,1.06,2.92-2.41.79-12.2,1.42-16.08ZM418.36,47.25c-13.58,13.96-12.81,44.25,6.96,51.83,25.51,9.78,46.18-6.84,43.73-33.73-2.39-26.25-33.34-35.93-50.69-18.1ZM121.73,41.13c-11.09,2.04-9.15,20.06,5.64,18.71,12.41-1.13,12.92-22.12-5.64-18.71ZM160,96.39c1.1-6.12-.81-15.03,0-21.5l15.61,23.89c3.32,1.9,14.97,2.15,16.89-1.89l1.48-54.24c-1.14-2.47-18.99-3.62-18.99,1.74v21.5l-13.72-23.05c-3.49-2.86-17.75-3.68-20.07,1.77l-.33,51.9c2.01,4.81,18.18,5.12,19.11-.11ZM229.99,57.88c3.84-.2,10.65,1.37,12.48-3.02,1.35-3.23,1.35-11.84-2.5-13.45-2.34-.98-39.16-.96-40.99-.04-1.97.99-3.11,6.81-3.07,9.04.13,7.99,8.24,6.47,14.09,6.47,1.41,1.42-1.87,35.25.48,40.02,2.03,4.12,18.12,4.08,19.38.35l.13-39.37ZM269.96,89.94c-1.03,12.05,13.5,12.96,19.91,6.24-4.15-17.63-7.23-36.02-13.85-52.81-3.99-4.78-16.22-1.72-22.36-2.32-2.24.76-8.19,19.95-9.37,23.63-1.71,5.34-9.35,29.99-8.35,33.6,3.85,2.31,14.15,2.59,17.11-.83,1.8-2.07,1.47-7.91,3.52-8.44l13.39.93ZM328,65.89c-7.07-5.51-10.63-23.87-20.48-25.02-2.92-.34-12.65-.81-14.03,2.02l-.33,54.34c1.6,4.74,18.83,3,18.83-.83v-22.5c4.49,3.84,11.84,22.74,15.69,25.06,2.72,1.64,14.82,1.79,16.76-1.1,4.38-6.53.01-44.32,1.38-54.29-1.31-3.9-12.86-3.05-16.18-1.75-.43.31-1.65,3.23-1.65,3.58v20.5ZM355.72,41.11c-1.44.32-2.72,1.22-3.79,2.21v54.15c2.52,3.56,19.75,2.8,24.45,2.3,36.64-3.85,38.64-54.39,9.86-58.61-5.36-.79-25.65-1.12-30.52-.05ZM533.01,75.88c5.15-1.27,3.4-12.71,3.98-16.99-4.01,3.95-3.02,11.76-3.98,16.99ZM115,63.89v33.5c3.13,3.8,16.59,3.58,19.07.07,1.11-1.16.84-2.6.99-4.01.36-3.57.37-26.68-.55-28.56-1.75-3.59-15.78-2-19.5-1ZM502.98,67.9l-1.99.5c-.17,2.31,4.74,16.06,8.01,13.48l-6.02-13.98ZM572.99,71.89l-6.51,5.98-6.48,9.01c1.44,1.47,10.68-9.66,11.52-10.97s2.03-1.9,1.47-4.02ZM498.36,146.53c29.55,29.34,84.24,2.42,70.68-39.18-11.57-35.49-62.74-36.27-78.21-3.14-6.41,13.74-3.34,31.52,7.53,42.32ZM488,98.91l-15-6.01c2.29,3.38,8.16,6.25,11.96,7.54,2.03.69,3.55,1.28,3.04-1.53ZM585.99,108.9c-2.82.06-5.68-.13-8.51-.01-1.21.05-3.72-.76-3.48.99,2.82-.06,5.68.13,8.51.01,1.21-.05,3.72.76,3.48-.99ZM168,150.88c17.25.99,30.19-6.64,28-25.49-2.03-17.5-29.45-17.02-42.26-14.26-5.46,1.17-5.41,4.14-5.77,9.23-.8,11.29-1.01,30.95,0,42.08.33,3.71.37,6.02,4.49,6.51,16.71,1.99,16.38-3.23,15.55-18.06ZM422,144.91c6.84-2.1,10.67-8.08,11.58-14.99,2.88-21.92-30.55-22.69-44.6-17.56-1.98,2.17-.72,12.32-.93,16.07-.34,6.1-2.77,34.76-.14,38.06,2.39,3,13.64,3.16,16.66.46s.85-10.26,1.45-14.06c5.27,2.83,4.62,12.84,10.24,15.25,4.68,2,10.18.38,14.62-1.37,1.94-3.01-6.96-18.28-8.87-21.86ZM224.87,159.02c.97,9.85,7.41,12.3,16.13,8.38,4.98-2.24,3.49-5.12,2.51-9.52-1.34-5.97-11.96-42.96-14.52-45.47-2.05-2.01-16.41-2.14-19.28-1.3-1.82.53-3.97,3.5-4.78,5.22-3.57,7.63-11.08,34.58-12.69,43.3-2.1,11.39,6.46,10.83,15.01,9.25l3.68-9.56,13.94-.3ZM266,151.89v-38.5c-1.99-3.75-16.19-3.52-17.84-.84-3.77,6.12.11,43.07-.71,52.39.42,1.23.92,2.27,2.25,2.75,3.68,1.35,27.04,2.04,30.6.99,4.63-1.36,2.08-11.15,2.74-15.11-.2-.67-2.25-1.69-2.53-1.69h-14.5ZM317.86,160.03c1.57,3.17,1.21,8.13,5.09,9.42,2.74.91,12.88-.28,13.89-3.23s-6.38-31.43-7.91-36.76c-1.11-3.87-3.41-14.49-6.53-16.47-1.4-.89-15.83-2.06-17.44-1.67-6.24,1.51-6.95,13.85-8.42,18.61-1.9,6.12-11.19,31.16-10.36,35.22,1.73,8.47,19.9,6.02,17.92-5.16l13.76.04ZM349.77,112.12c-1.86-1.9-16.25-1.92-16.81.44-.39,4.68.38,9.01,1.34,13.54,1.91,9.07,6.8,27.48,10.23,35.77,1.24,3.01,2.69,6.03,6.19,6.81,6.39,1.43,18.8,1.81,21.59-4.98,3.42-8.33,11.2-36.69,12.46-45.55.73-5.12.06-6.64-5.25-7.27-3.07-.36-9.39-.6-11.58,1.45-3.05,2.87-6.33,24.87-8.24,30.77-.34,1.05-.25,3.02-1.69,2.78-1.97-5.53-5.44-30.89-8.24-33.76ZM471.26,167.63c2.91,2.59,15.46,2,15.7-3.19-5.2-13.4-6.61-28.53-11.01-41.99-2.16-6.59-3.83-10.67-11.44-11.56-5.31-.62-12.93-.88-15.01,4.99-3.53,13.98-10.6,28.07-14.19,41.8-.68,2.61-2.29,6.76-.05,8.97,1.66,1.63,11.65,1.71,14.04,1.03,4.28-1.23,3.94-8.06,4.84-8.65,2.15-1.4,11.51,1.94,14.83.91-.01,2,.9,6.45,2.29,7.7ZM90.11,159.01c.49-.43,12.04-.36,12.96.31,1.74,1.28-.61,6.98,5.65,8.36,2.91.64,12.95,1.05,14.14-2.46,1.03-3.02-7.39-33.51-9.14-38.54-4.17-11.99-5.72-16.48-20.13-14.69-6.29.78-7.71,3.59-10.08,8.93-5.69,12.8-8.34,27.94-14.34,40.75-1.31,7.1,10.59,7.12,15.31,6.22,3.59-.69,5.05-5.7,5.63-8.86ZM583,149.9c-3.54.18-12.21-9.15-14.99-7.01-.58,2.56.69,1.75,1.88,2.59,3.81,2.7,8.55,3.74,11.62,7.39l1.5-2.97ZM503,154.9c-2.8-2.22-10.17,10.5-8.99,11.98,1.45,1.82,2.22-1.41,2.58-1.89,2.37-3.19,4.86-6.4,6.42-10.1ZM550.83,159.1c-.52-.35-2.7-.66-2.82.28,1.48,1.03,7.46,17.1,9.99,14.5-.81-2.55-5.78-13.84-7.17-14.78ZM525.99,161.89c-4.17.39-4.12,10.78-4.3,14.21-.08,1.57-1.54,2.28.8,3.76l3.49-17.97ZM511.64,231.53c15.12-16.21,5.18-42.21-15.63-47.15-14.5-3.45-33.44-1.37-48.56-2.54-117.17,5.39-236.96-3.57-354,1-16.61.65-33.68.13-41.63,17.37-6.03,13.08-2.98,27.9,8.7,36.65,9.35,7,17.15,5.73,28.03,5.97,3.71.08,6.03-.02,9.9,0,129.39.65,258.71-1.03,388.09-.91,9.09-.82,18.72-3.55,25.1-10.4ZM547.74,265.02c-4.56.65-5.04,6.39-6.72,7.38-2.23,1.32-7.55-.27-9.56,3.5-1.92,4,4.38,7.39,4.38,8.48,0,.75-7.68,9.06-1.17,11.34,5.89,2.06,7.76-3.2,10.78-2.89s5.67,6.09,9.84,4.93c5.74-1.6,2.43-10.39,3.16-11.87.91-1.86,4.52-2.41,6-4.05,5.81-6.39-7.36-6.94-9.45-8.46-1.78-1.29-2.15-9.09-7.27-8.36ZM107,285.89c-2.44-26.74-44.02-26.7-48.14-.14-25.03-4.34-33.34,30.39-6.27,34.05,7.36,1,12.73-3.26,15.88-2.94,1.94.2,3.06,2.42,4.83,3.24,5.37,2.48,10.51,2.34,16.14.73,2.24-.64,6.63-3.57,7.07-3.59,1.11-.06,3.85,2.23,6.06,2.59,30.48,4.99,37.81-36.82,4.44-33.94ZM200,298.88c4.01-7.93,9.13-21.41.92-28.42-13.27-11.34-30.3,7.65-28.94,21.42-5.68-4.22-7.47-4.77-7.97-12.51-.21-3.28-.07-10.59,5.07-7.05,1.41.97-.28,4.43,2.91,3.56.64-4.53-2.02-6.76-6.44-6-5.6.97-3.04,8.93-3.57,13-1.77-.78-1.8-3.28-3.44-5.04-5.92-6.33-18.44-2.32-13.43,6.44,2.71,4.74,9.95,3.81,8.87,1.13-.68-1.69-3.81-.39-5.94-2.02-6.02-4.61,2.91-8.55,7.65-5.18,2.2,1.56,6.09,10.3,6.34,13.16.22,2.49-.23,1.1-1.05,1.06-5.16-.22-9.24-1.83-13.94,2-11.98,9.78,5.62,21.61,15.96,20.47-4.1,8.95,3.92,15.51,12.26,11.75,3.09-1.39,10.68-9.43,11.39-9.65,1.61-.5,9.79,1.44,13.79.83,14.82-2.26,15.04-19.66-.43-18.94ZM270.76,277.13c-3.83-4.08-10.55,4.23-9.86,8.66-30.75-1.59-8.15,10.47-8.08,13.59.03,1.25-7.62,8.53-2.25,12.43,4.96,3.61,10.53-2.99,13.93-2.88,1.89.06,4.67,3.3,7.24,3.77,10.96,2.01,5.31-8.88,6.34-12.14.43-1.35,5.33-3.59,6.77-6.31,4.47-8.44-6.24-7.35-11.82-7.41-.32-2.3-.85-8.19-2.28-9.72ZM338.01,329.9c-.33-15.8-26.09-18.74-28.01-3-20.93-7.21-26.38,25.69-4.45,26.02,2.78.04,6.87-2.15,7.85-1.91,1.44.36,2.28,4.73,6.31,5.66,7.78,1.78,8.93-2.28,12.86-2.79,2.18-.28,4.54,1.08,6.92,1.09,19.65.06,18.56-28.9-1.49-25.07ZM118.01,346.89c-4.66-14.34-19.7-7.8-12.01,5.99-6-.07-11.86,7.05-6.08,11.59,4.31,3.38,7.59.11,10.46.65,2.13.4,7.68,9.77,13.14,4.78,3.31-3.02.02-8.37.58-10.37.5-1.77,4.97-2.91,6.31-4.73,5.6-7.62-5.84-12.85-12.4-7.92ZM333.76,407.06c-3.11.52-6.57,4.85-8.23,4.84-1.32,0-3.92-2.35-6.26-2.78-11.26-2.08-15.44,8.59-9.26,17.27,2.52,3.53,15.85,14.91,19.96,13.02,3.31-1.53,13-16.44,13.8-20.24,1.26-5.95-4.03-13.1-10.01-12.1Z" fill="#fff"/>
  <path d="M214,835.89c26.01-32.58,63.24-58.42,105.44-64.07.62.06,2.44,7.87,5.56,7.06l-21.18-39.31c-1.67-3.67-11.12-27.53-5.3-28.68,7.56-1.49,27.86,36.26,30.51,43.47,2.32,6.32,3.32,14.39,5.5,20.54.6,1.69.01,2.4,2.46,1.98-2.1-12.69-7.18-25.06-9.74-37.75-3.36-16.68-5.74-35.38-3.21-52.2,6.19-5.14,14.49,22.31,15.46,25.95,5.57,20.82,6.06,42.65,7.5,64.01l2-1.48c-.09-13-1.84-26.04-1.05-39.07.74-12.34,6.53-40.08,14.64-49.36,1.42-1.62,4.16-5.24,5.65-1.84,2.82,6.44,1.38,17.16.75,24.24-2.06,23.08-8.39,45.69-11.99,68.5,2.5.79,3.05-4.29,3.5-5.99,4.11-15.37,4.48-25.63,12.76-40.24,2.11-3.72,12.58-19.7,17.21-18.77,1.41.9,1.47,1.98,1.61,3.49.38,4.21-7.9,24.69-10.07,30.03-4.6,11.35-10.6,22.06-15.01,33.48,2.08,2.21,5.75-8.35,6.48-9,3.9-3.47,23.12,3.91,29.07,1.42,18.06,24.29,57.34,21.79,69.43-6.92,3.36-1.06,6.83-.11,10.26-.74,5.2-.95,14.84-4.8,19.36-4.7,1.5.04,1.58.52,2.22,1.63,1.49,2.58,5.37,20.27,6.68,20.3,2.01-1.38,1.44-2.08,1.06-4.03-3.96-20.78-22.56-55.29-19.57-75.48.47-3.17,4.56-.97,5.95.09,7.06,5.37,17.74,34.84,19.95,44.05,2.7,11.24,2.99,23.14,5.6,34.39,3.49-5.26-.17-13.5-.48-19.51-.89-17.41,6.88-49.32,18.01-62.96,1.62-1.99,4.03-4.62,6.47-5.57,3.86-.04,2.59,9.6,2.25,12.29-2.24,17.26-10.92,39.13-15.45,56.55-1.64,6.3-3.06,12.81-4.29,19.2,2.19.36,2.4-.91,2.95-2.54,2.96-8.83,3.5-19.39,7.55-28.45,4.41-9.88,16.08-25.84,27.5-27,.77,6.58-2.83,13.02-5.8,18.69-5.9,11.27-15.72,22.82-21.02,33.98-.67,1.42-1.51,2.63-1.16,4.33l13.68-18.81,33.81,1.8,2.5,1.5v71.5H214Z" fill="#fff"/>
  <path d="M294.5,516.89c-6.51.66-19.21,4.91-25.48,7.52-16.58,6.89-33.13,19.15-45.02,32.47,7.53-2.05,13.14-10.26,19.5-14.99,28.24-20.99,72.12-35.11,101.53-8.53,7.63,6.9,14.64,19.75,14.89,30.18.05,2.19-2.24,12.79-3.14,14.62-1.77,3.58-12.56,5.68-16.55,6.45-43.96,8.54-100.56-3.68-142.21-19.25-6.08-2.27-31.38-12.76-34.48-16.52-4.73-5.71-8.31-23.9-8.58-31.41-.5-13.67,3.17-33.8,13.51-43.58,4.23-4,9.92,1.42,15.1,2.98,6.5,1.95,13.35,1.82,19.46,3.54,11.86,3.34,25.69,12.23,35.98,19.02l-27.28,10.35c-13.82-9.48-28.95-19.93-45.71-22.85-.49,2.61.5,1.76,1.99,2.45,10.03,4.68,19.76,7.32,29.68,13.37,2.69,1.64,13.48,7.25,10.71,10.26-7.97,4.61-16.58,10.02-23.58,15.97-3.14,2.67-8.63,6.73-8.79,10.94,28.64-26.51,67.67-48.77,108.19-38.7,8.86,2.2,21.71,8.2,26.8,15.7-5.32.39-11.26-.53-16.5,0ZM340,540.89c.04-4.54-9.95-3.2-13.49-2.99-17.98,1.1-37.88,9.06-52.45,19.55-1.69,1.22-12.98,10.55-13.58,11.42-.84,1.2-1.14,3.68,1.01,3.02.47-.14,5.61-5.86,7.04-6.98,11.5-9.01,36.38-24.03,50.97-24.03h20.5Z" fill="#fff"/>
  <path d="M6,743.89l18.85,2.14,7.16,38.85c2.55-.79,2.17-4.06,1.92-6.4-1.7-15.76-7.77-32.46-7.99-49.07-.03-2.64-.1-13.33,4.07-12.05,5.35,2.67,12.27,31.45,13.71,38.3,1.87,8.92,2.01,18.62,4.77,27.22,2.08-1.32.92-2.27.86-3.76-.55-12.66-3.36-19.78-1.1-33.48,1.36-8.26,5.56-27.05,14.73-28.75,4.56,3.08-5.92,57.33-4.98,65.99,2.62.86,2.44-3.07,2.71-4.77,1.97-12.5,1.66-19.64,9.09-30.92,1.3-1.97,10.26-12.31,12.19-10.3-.27,16.31-9.62,30.74-13.99,45.99,1.97.39,2.39-.93,3.2-2.29,1.75-2.97,7.33-20.47,8.41-20.77,46.05,7.05,88.71,38,114.39,76.07H6v-92Z" fill="#fff"/>
  <path d="M360.65,638.53c-7.56,7.5-26.32,20.81-36.59,22.92-9.15,1.88-21.81-.26-31.54.46-11.68.86-21.54,5.18-33.91,3.88-15.24-1.61-27.16-9.69-40.83-14.17-11.12-3.65-23.5-3.09-34.77-7.23-15.79-5.81-24.53-21.08-40.19-25.81-3.07-.93-8.06-.11-9.88-2.39-15.38-23.37-21.22-52.54-17.93-80.29,25.07,31.46,69.78,47.55,107.77,57.71,52.74,14.11,124.82,26.7,168.72-13.69-4.73,21.71-14.99,42.88-30.86,58.62ZM184,619.39v-17.5l29.5,9.01,1.49-2.99-29.01-8.51-.99-8.51c-4.08-.75-.29,5.41-3.49,6.97-5.56-3.43-12.06-5.23-17.86-8.12-1.84-.92-13.07-6.37-13.48-7.02-.97-1.55.35-8.41-.17-10.83-4.31-.96-1.4,9.22-4.48,7.98l-22.52-16.98c-1.9,1.78,20.94,18.95,23.5,19.99l1.49,18c-5.71-2.82-11.76-9.67-17.02-12.47-1.26-.67-3.34-1.51-2.97.96,3.95,4.72,16.76,10.13,19.97,14.04,2.63,3.21,1.88,11.34,5.53,14.47l-1.01-11.99c5.51,3.89,11.51,7.38,17.46,10.54,2.66,1.41,9.35,3.16,11.04,4.96,2.85,3.04.58,9.48,3.51,12.47l.51-10.98c6.21,2.44,13.19,6.46,19.73,7.77,2.08.42,3.82,1.05,3.27-1.76-3.74-.48-23.36-7.27-24-9.51ZM354.99,607.9c-4.15-.05-3.16,5.59-4.53,7.96-1.24,2.17-12.12,4.26-15.24,4.76-9.27,1.5-18.89,1.88-28.22,2.27-.31-2.73,3.9-4.63.48-6.98-2.79-1.15-.65,6.16-4.97,7-10.16-1.74-32.21.16-40.81-4.21-3.72-1.89.16-6.65-.72-9.8-3.39,1.64-3.1,5.86-2.99,9.01-2.26,2.37-28.66-7.56-33.41-6.8-.69.11-1.89,1.4-1.6,1.79l33.42,7.89-1.42,19.12c-1.67,1.66-25.23-5.57-29.61-5.9-2.1-.16-2.73-.72-2.39,1.89l31.01,6.01v13s4.46-11.82,4.46-11.82c12.15,3.84,25,2.63,37.54,2.83l-5.99,8.49c4.63,2.97,7.48-8.26,8.67-8.54,12.25.74,24.29-1.12,36.33-2.95-.45,3.43-6.09,6.4-6.99,8.5-2.2,5.16,7.34-4.26,8.01-5.01,1.2-1.35,1.58-3.93,2.64-4.59,3.09-1.93,15.63-1.88,17.33-5.43.38-2.25-.77-1.45-2.27-1.27-3.69.43-7.97,2.96-11.71,3.79l9.17-19.81,20.67-7.33c.38-1.28.66-3.62-1.33-2.85-2.54.98-15.54,8.48-17.52,6.98l1.99-7.98Z" fill="#fff"/>
  <path d="M226.01,375.88c5.74.78,10.09,4.81,15.78,6.72,8.88,2.98,18.42.54,21.93,10.07,13.36,36.2,5.4,73.04-35.73,82.71-18.57,4.37-46.14,2.91-61.49-9.49-2.61-2.11-8.24-9.97-9.53-10.54-2.8-1.25-8.45,3.07-15.67-.25-20.63-9.5-4.14-39.09,15.21-23.23,4.26-3.08,2.53-16.88,4.48-18.5,10.69-2.88,20.08-9.88,25.57-19.48,14.41,10.17,36.92-1.67,39.45-18.01ZM252.99,398.88c-3.01-7.38-15.63-5.61-18.99,1,7.54-1.44,11.14-4.3,18.99-1ZM198,409.88c-1.11-8.65-17.67,3.16-14.99,6,3.36-.29,4.23-3.85,7.42-5.07,2.47-.95,4.96-1.08,7.57-.93ZM253.7,420.58c.8-.7,4.47-5.77,1.79-6.68-1.87-.64-2.23,3.5-3.96,5.02-7.54,6.62-13.33-3.76-15.52-2.02,2.47,7.43,12.21,8.48,17.7,3.68ZM187.29,431.6c1.61,1.64,8.34,3.34,10.74,2.9,8.92-1.65,8.97-11.3,5.96-9.13-2.28,5.15-5.21,7.89-11.25,6.27-1.56-.42-5.8-4.75-6.74-3.75-.11,1.29.4,2.8,1.29,3.71ZM226,439.89c1.63,7.01,12.61-2.07,5.36-7.86-4.44-3.55-10.5-1.46-7.38.38,7.16.13,11.08,7.51,2.02,7.49ZM237,449.9c-6.39,1.69-8.46,6.3-16.07,4.57-1.74-.4-7.01-4.79-6.92-1.1,2.12,4.11,22.01,4.02,22.99-3.47Z" fill="#fff"/>
  <path d="M443.85,313.99c7.29,11.78,23.13,15.7,35.94,18.1,1.22,5.75,10.45,19.64,16.46,18.64,2.15-.36,3.93-2.52,7.24-2.88,19.41-2.09,16.4,28.84-2.86,26.98-3.68-.35-6.71-3.63-10.53-2.85-12.22,30.65-53.4,40.72-81.13,25.43-24.69-13.62-24.73-48.76-18.98-72.83,10.97-2.8,22.61-4.86,30.66-13.55,7.93,5.46,14.04,6.12,23.2,2.95ZM416,330.91c-5.45-2.99-14.87-2.91-16.99,3.98,2.7-.2,3.58-2.46,6.55-2.94,3.43-.55,6.64.27,9.93.96l.51-2ZM463.99,338.89c.87-7.54-15.73-9.24-17.98-4.49-.31,3.34,3.73-.23,5.56-.48,5.67-.78,8.11,2.18,12.42,4.97ZM417,347.9c-3.79-.54-4.97,3.76-8.57,3.99-2.93.18-5.52-2.53-7.93-3.99-2.33,3.26,5.26,6.83,7.85,6.7,2.83-.14,8.59-3.2,8.65-6.7ZM449.29,353.59c-1.14-.91-2.02-4.29-4.28-4.7-2.37,11.34,18.87,9.15,17.98,3.51-.41-2.6-2.09-.58-2.98,0-3.3,2.16-6.98,4.19-10.73,1.18ZM426.99,359.9c-9.25,1.39-9.18,13.45,1,10.98l-5-3.51,4-7.47ZM442,378.9c-5.8,1.63-9.76,5-16.19,2.7-2.77-.99-4.45-4.12-7.8-3.7,1.84,7.67,16.44,7.26,21.69,4.19,1.38-.81,2.68-1.22,2.3-3.19Z" fill="#fff"/>
  <path d="M387.39,580.27c-41.22,41.73-142.25,20.36-191.9,2.64-23.68-8.45-71.76-29.19-80.96-54.04-10.23-27.64,13.45-49.42,39.47-51.97.48.39-5.79,10.31-6.24,10.74-3.3,3.12-11.78,2.78-17.75,10.75-20.13,26.87,20.26,48.18,39.64,57.36,49.95,23.65,135.06,46.62,188.34,26.62,29.99-11.26,33.66-33.37,7.94-52.9-25.05-19.02-60.75-30.89-90.2-41.54l-11.7-11.55c24.56,6.59,50.74,15.5,73.98,26.01,27.25,12.33,83.47,43.37,49.39,77.88Z" fill="#fff"/>
  <path d="M260.65,366.24c5.9,6.43,10.41,16.93,12.06,25.44.77,3.96,3.6,12.85-2.24,11.81-3.46-.62-4.25-15.32-8.52-18.05-3.02-1.93-13.47-2.78-18.45-4.55-7.24-2.57-12.7-7.75-19.49-10,.81,14.23-13.69,25.28-27.5,23.99-9.84-.92-7.46-5.4-6.57-12.59.24-1.97-.21-1.45-1.91-1.41-2.06,16.41-15.11,27.31-30.58,30.93l-1.44,16.07c-8.38-4.16-19.97-5.04-24.01,5-8.53-9.33-6.4-25.83-2.71-37.23,16.56-51.09,95.74-68.28,131.37-29.42Z" fill="#fff"/>
  <path d="M432,527.39c-.37-3.38-5.77-22.86-8.51-23.5-3.43.76-4.94,5.98-5.96,9.03-2.49,7.41-3.53,16.24-4.54,23.97l-3.21-10.27c-2.99-5.22-5.41-15.28-12.77-14.73-2.1,10.92-.1,22.08.98,33l-16.99-21.54c-.4-2.2,3.04-19.03,4.22-20.23,1.01-1.02,8.23-2.85,10.45-4.05,10.19-5.5,19.54-14.09,27.83-22.15,8.69,10.02,22.84,18.88,35.26,23.72,10.56,4.12,21.79,8.1,32.26,1.72l8.99,50.02c-3.34-1.18-6.94-6.01-11-4.02s-2.95,9.86-3,13.54l-22.58-1.95c-.81-1.04-.36-2.03,0-3.09,2.28-6.84,10.99-16.06,13.62-23.41.65-1.82,1.17-3.59.95-5.54-3.83-3.72-24.96,14.06-27.98,17.99,1.65-5.25,12.89-31.75,10.56-35.05-.49-.69-1.25-1-2.09-1.02-4.57-.33-15.34,13.19-17.9,17.15l-8.58,14.92c-.36-4.67.5-9.92,0-14.5Z" fill="#fff"/>
  <path d="M411.01,447.9c7.23-.93,9.8,7.25,15.99,8.98-3.71-6.28-9.46-9.69-15.97-12.48,2.3-6.58,10.28-2.23,14.67.3,3.46,2,5.63,6.12,9.31,6.18-3.48-5.96-10.27-9.93-17-11-.35-2.67.17-1.55,1.46-2.02,9.88-3.59,18.32,4.98,24.05,12.01,2.13,2.62,6.78,11.86,7.52,12.48,2.19,1.86,12.16,4.66,15.65,6.35,2.31,1.12,19.49,10.94,20.32,10.17.35-4.06-10.46-6.48-10.76-8.45,5.74-11.53,7.33-25.2,6.75-38.03-.29-6.5-4.85-14.7,3.05-18.1,26.34,11.97,24.3,48.92,14.44,71.57-12.46,28.6-41.29,14.82-60.81,1.84-14.85-9.87-11.99-11.51-19.65-25.35-2.91-5.25-8.51-8.7-9.02-14.47Z" fill="#fff"/>
  <path d="M539.99,401.89c1.77,8.31,9.82,16.3,17.12,20.39,1.82,1.01,9.47,3.31,9.75,3.75,1.73,2.78-1.06,7.18,5.66,12.83,6.05,5.08,4.15.43,9.99-.03,8.68-.68,8.81,6.56,7.46,13.54-1.58,8.2-15.5,4.02-16.98,4.96-.85.54-3.75,6.99-5.17,8.89-13.02,17.4-46.91,15.82-58.67-3.06,2.49-15.33-4.5-30.95,1.06-46.05l17.8-6.7,11.97-8.52ZM528.91,422.99c-4.93-2.12-10.64-3.54-13.91,1.89,2.92-.17,5.46-1.39,8.53-1.07,3.43.36,6.16,4.95,5.38-.82ZM560.99,430.88c.71-5.27-12.93-6.42-12.97-3.49l12.97,3.49ZM519.25,439.63c-1.23-1.18-1.05-5.3-4.25-4.74-.56,3.03,3.19,7.96,5.9,8.54s9.79-5.08,5.11-6.55c-.2,3.34-4.48,4.94-6.77,2.74ZM548.98,439.89c-1.77-.11-2.13-.46-2.03,1.53.38,7.89,12.68,8.15,12.04-.52-2.84-.77-1.95,2-3.38,3.07-3.68,2.76-6.26-.28-6.63-4.07ZM534.99,444.9l-5.05.43c-3.06,2.54.82,8.56,3.56,8.53,4.54-.05-3.65-4.43-2.5-5.96l3.99-3.01ZM544.99,459.9c-3.98.48-6.11,2.37-10.54,2.08-3.17-.2-3.8-1.5-6.45-2.08-.89,5.19,6.55,5.71,10.45,4.95,1.05-.21,7.3-2.88,6.54-4.95Z" fill="#fff"/>
  <path d="M525.97,478.95c-4.16,22.57,27.86,19.34,30.04.94,13.24,2.7,23.52,9.68,27.44,23.05,1.47,5.02,3.85,27.42-2.87,27.91l-24.33-5.41c.57-5.95,2.53-13.16,1.75-19.07-.18-1.37-.74-3.15-1.99-1.48l-3.15,29.86-49.85-5.85c-.37,2.2.92,2.39,2.55,2.94,8.29,2.8,22.68,2.82,31.84,4.16,4.5.66,8.69,2.83,13.6,1.9l-9.01,21.99c-3.42.72-1.06-3.09-3.4-5.11-3.74-3.23-12.5,5.81-15.58,8.11.93-7.13-.77-25.52-10.42-14.91-3.66,4.02-3.55,8.23-5.49,12.5-.53,1.18.48,1.81-2.09,1.41-6.55-22.14-1.67-42.76,4.99-64-2.68-.51-1.73.59-2.44,2.01-2.68,5.4-4.53,13-5.56,18.99-1.08-.07-2.39.23-3.39-.11-1.77-.61-5.15-16.73-4.42-19.17.33-1.09,5.21-6.07,6.62-8.41,1.3-2.16,2.7-7.53,3.87-8.38,2.64-1.92,19.38-6.75,21.3-3.86Z" fill="#fff"/>
  <path d="M521.86,329.03l2.09,24.2c7.52,2.97,12.7,9.7,14.75,17.46,3.95,14.97-1.32,9.26-11.71,13.71-9.07,3.88-19.56,14.15-24.17,22.83-.99,1.87-3.89,11.67-5.33,11.66-2.73-2.61-6.73-5.27-10.12-6.86-6.95-3.26-17.79-2.95-19.29-11.52,9.49-6.75,18.03-15.03,23.92-25.17,4.52.56,7.58,2.03,12.49,1.56,21.2-1.99,18.86-36.75-2.79-31.79-2.58.59-5.12,4.43-7.68,3.34-1.43-.61-7.03-7.26-8.06-9.02-1.41-2.39-2.91-8.12-3.98-9.02-1.88-1.56-14.38-3.47-18.2-4.8-6.11-2.13-18.08-7.18-17.78-14.72,3.63-3.72,66.77,15.29,75.87,18.13Z" fill="#fff"/>
  <path d="M417,310.9c-6.43,8.15-19.21,9.09-28.77,11.22-5.46,25.34-7.75,55.73,14.25,73.79,4.07,3.34,8.51,4.59,11.86,7.14,1.13.86,2.05,1.04,1.66,2.83-10.9-.41-23.64,5.74-31.52,12.98-5.53,5.08-7.65,15.48-14.49,7.54-5.17-6-3.62-9.69-5.23-15.77-.45-1.71-2.65-3.94-3.48-6.52-4.43-13.86,3.45-24.37,6.42-37.02,3.5-14.9,3.27-37.35,9.23-50.77,1.68-3.78,3.97-3.6,7.69-4.31,6.88-1.31,19.77-2.15,26.88-2.22,1.95-.02,3.64.77,5.49,1.1Z" fill="#fff"/>
  <path d="M389.88,464.78c-5,1.89-12.97,4.35-17.25,7.25-1.94,1.31-1.99,1.3-.15,2.84l33.44-13.04c1.03-1.21-3.73-13.54,3.07-13.93,1.91,9.7,11.64,15.47,12.8,26.34-.36,4.25-23.6,21.21-28.47,23.48-9.8,4.56-23.31,6.45-28.28-5.36-8.16-19.39,7.54-61.21,23.94-73.98,1.6-1.25,12.4-7.69,13.49-7.47,5.82,1.16-2.88,11.84-3.98,13.98-6.59,12.73-9.2,25.54-8.6,39.91Z" fill="#fff"/>
  <path d="M590,437.89c-11.2-4.29-14.57,6.88-20.05-7.44-.81-2.13-.84-4.19-1.11-6.39-14.95-3.26-22.68-13.23-29.34-26.15-8.24,9.85-19.42,14.19-31.54,17.45l-2.98,12.53c-5.72-4.47-3.99-9.44-1.69-15.2,14.91-37.37,65.36-40.24,86.7-7.3v32.5Z" fill="#fff"/>
  <path d="M500.66,278.23c2.67,2.35,9.23,10.22,11.16,13.34,1.12,1.81,6.3,12.14,5.17,13.32-15.65-6.68-32.1-11.35-48.79-14.7-5.69-1.14-14.77-1.11-19.5-2.5-3.85-1.14-4.67-6.56-14.36-6.72-9.33-.15-10.85,6.13-14.87,6.89-7.41,1.41-18.56-.9-26.47,2.02-2.42-2.38,15.94-16.15,18.1-17.39,25.35-14.48,67.04-14.09,89.55,5.73Z" fill="#fff"/>
  <path d="M78,535.88c-3.87-.63-10.15,1.9-12.24-2.25-8.58-26.77-18.86-53.06-27.04-79.96-1.97-6.46-14.29-46.74-11.71-49.78,5.58,2.04,9.26,10.24,12.16,15.32,5.77,10.1,10.5,21.37,14.84,32.16,10.81,26.82,20.56,55.75,23.98,84.51Z" fill="#fff"/>
  <path d="M370.65,536.24c17.81,17.55,9.27,34.53-11.64,42.65,10.93-30.19-9.7-50.68-36.19-60.32-2.22-.81-4.75-.3-6.8-1.2-3.96-1.74-13.42-11.99-21.47-15.53-2.82-1.24-9.96-2.15-11.53-3.47-1.18-.99-2.15-5.05-4.03-6.46,2.28-1.75,47.41,18.26,53.38,21.11,12.31,5.88,28.57,13.69,38.27,23.23Z" fill="#fff"/>
  <path d="M522.99,326.89c-24.29-5.97-47.89-15.68-73-18,2.56-7.74,4.08-11.24,0-18.99,17.41,2.89,35.24,5.8,51.97,11.52,3.65,1.25,14.52,5.17,16.48,7.52,3.56,4.24,4.96,12.54,4.53,17.96Z" fill="#fff"/>
  <path d="M436.01,719.88c4.3-1.57,6.45-7.86,11.04-9.44,5.65-1.95,10.61.08,8.52,6.5-.62,1.9-8.57,10.08-7.56,10.94,25.51-2.32,18.54,16.22-3,12.01,8.8,21.22-12.3,21.22-15.01,2.99-3.18-.82-4.06,2.32-6.05,3.44-4.35,2.45-7.82,3.6-12.99,2.12-2.1-2.58-.75-5.8,1.04-8.08,3.23-4.11,7.83-3.2,11.02-6.47-4.77-.04-15.85-3.82-15.6-9.53,2.83-8.53,11.68-3.4,17.59-1.49.28-4.94-5.09-13.68.44-17.05,7.66-4.67,11.65,8.12,10.57,14.05ZM433.73,722.11c-12.43,1.18-10.68,20.02,2.68,18.76,12.7-1.19,11.37-20.09-2.68-18.76Z" fill="#fff"/>
  <path d="M53.71,356.11c5.99-1.37,10.24.11,12.81,5.77,3.81,8.42,5.63,36.18,4.51,45.54s-10.82,13.72-15.89,5.84c-4.4-6.83-7.72-30.36-8.12-38.88-.29-6.11-1.07-16.49,6.7-18.27Z" fill="#fff"/>
  <path d="M80,536.88c4.3-18.17,11.11-36.31,21.62-51.87,5.65-8.38,13.23-16.99,21.89-22.09l1.45,3.38c-8.8,24.51-21.68,47.42-31.45,71.6-2.27,2.73-10.34-.67-13.51-1.01Z" fill="#fff"/>
  <path d="M517.01,573.88c1.44,1.52,9.53-11.11,11.05-12.44,1.38-1.21,8.5-5.99,9.94-4.55-2.87,41.91-55.4,33.52-48.87-5.87,4.31-1.11,7.59,2.13,10.42,4.83l6.94,14.03c3.36-8.02,3.43-17.27,11.02-22.97,4.75,8,2.87,18.77-.49,26.97Z" fill="#fff"/>
  <path d="M414.98,407.91c.37,10.77,12.92,17.17,22.53,17.97,10.24.85,22.1-3.51,29.96-10.01,1.69-1.4,4.31-5.61,5.19-5.87,1.83-.54,8.2,2.54,10.34,3.39-5.41,7.11-10.91,14.53-18.69,19.31-6.37,3.91-21.16,9.07-28.03,6.42-2.37-.91-4.48-3.67-7.44-4.55s-5.85-.3-8.58-1.42c-7.17-2.92-13.73-14.98-14.17-22.62.65-2.19,6.81-2.87,8.9-2.61Z" fill="#fff"/>
  <path d="M97.77,405.08c16.18-1.96,9.94,19.9,7.93,29.01-1.71,7.73-5.36,27.66-16.15,25.81-8.83-1.51-6.27-19.23-5.43-25.39,1.02-7.56,4.51-28.32,13.65-29.43Z" fill="#fff"/>
  <path d="M278.99,497.89c-6.11-1.98-12.09-2.39-18.53-2.04-4.06.22-15.36,3.26-17.84,2.79-1.55-.3-9.16-7.23-11.95-7.92l-21.67-10.82c6.85.05,14.54-.6,21.2-2.3,4.78-1.23,15.46-7.14,19.04-6.54,6.15,1.03,33.6,22.65,29.75,26.83Z" fill="#fff"/>
  <path d="M480,422.89v28.5c0,2.28-4.66,17.48-7.3,17.34-4.9-.26-14.02-7.15-19.4-8.14l-13.3-18.69c10.31.1,20.71-3.51,28.92-9.59,3.05-2.26,5.51-5.5,8.12-7.88.97-.89,1.2-1.95,2.97-1.53Z" fill="#fff"/>
  <path d="M557.11,529.01l20.93,3.34c2.1,1.24-1.98,10.06-2.87,12.21-4.08,9.79-10.46,19-16.19,27.88l-20-3.04c-1.7-1.29-.44-1.11,0-2.02,2.78-5.86,7.75-11.76,10.76-18.26s5.03-13.43,7.38-20.11Z" fill="#fff"/>
  <path d="M22.66,462.23c3.9,3.42,10.52,12.26,13.75,16.74,12.21,16.95,21.74,35.82,27.59,55.9-3.92.98-9.48,2.76-11.84-1.65-9.6-20.64-22.72-40.62-31.33-61.67-.87-2.12-4.9-11.23-3.81-12.68,1.8,1.05,4.09,1.98,5.65,3.35Z" fill="#fff"/>
  <path d="M590,508.89c-.82-.13-2.7.23-2.98,0-.41-.33-1.39-8-2.28-10.24-4.59-11.54-16.02-18.79-27.75-21.26,4.48-2.14,8.87-5.08,12.04-8.97,1.56-1.92,4.26-7.61,4.96-8.04,3.14-1.91,12.08,1.39,16.01-3.49v52Z" fill="#fff"/>
  <path d="M465.93,401.95l3.91,6.59c-6.77,15.07-37.52,19.78-48.49,8.01-2.35-2.52-6.1-8.81-2.68-11.72,16.26,3.45,31.57,2.52,47.26-2.87Z" fill="#fff"/>
  <path d="M169,469.9c-19,19.78-20.35,46.21-11.76,71.25.33.97,4.73,8.11,1.28,6.73-2.05-.82-15.85-10.12-16.31-11.7-3.45-19.48,1.19-40.73,12.96-56.62,1.87-2.53,10.57-13.44,13.83-9.66Z" fill="#fff"/>
  <path d="M459,512.9l-22.01,59.99-10.99-2.01c4.49-18.59,11.3-39.54,24.98-53.51,2.4-2.45,4.14-5.18,8.02-4.47Z" fill="#fff"/>
  <path d="M423.99,507.89c8.03,21.25,6.97,40.85-.53,62.02l-7.46-1.02c-.62-16.89-2.58-44.54,5.77-59.73.64-1.16-.04-1.68,2.23-1.28Z" fill="#fff"/>
  <path d="M419,289.9c-4.3,6.34-2.81,11.23-1,17.98-12.73-.35-25.45.95-37.99,3-1.23-4.26,3.05-14.78,6.68-16.8,3.25-1.81,30.41-5.54,32.31-4.18Z" fill="#fff"/>
  <path d="M590,510.89v68l-11.9-3.1c-.41-5.76.18-11.61-.12-17.38-.17-3.13-2.13-7.21-1.94-9.97.08-1.1,4.75-12.5,5.63-14.27.68-1.36,2.28-1.56,3.09-2.96,1.75-3.06,3.06-10.37,3.13-13.92s-3.33-7.33,2.1-6.39Z" fill="#fff"/>
  <path d="M438.99,573.89c4.26-19.75,18.17-35.28,35.99-44l-22.96,45.59-13.04-1.6Z" fill="#fff"/>
  <path d="M413.99,568.88l-9.97.99c-4-18.09-5.97-36.4-5.01-54.98,14.06,12.86,13.13,36.24,14.98,53.99Z" fill="#fff"/>
  <path d="M393,447.39c1-9.38,6.59-20.26,11.02-28.49,1.22-.18,1.29-.36,2.05.61,1.69,2.16,3.3,6.58,5.52,9.29,1.52,1.86,6.72,5.35,6.41,6.58-1.71,1.94-4.99,3.13-6.69,4.81-.84.84-.92,2.59-1.85,3.63-1.31,1.46-4.09,2.25-4.93,4.09-1.2,2.62-.89,10.96-1.39,11.54l-10.13,3.44c.38-4.99-.52-10.61,0-15.5Z" fill="#fff"/>
  <path d="M429.71,284.1c21.89-4.93,27.85,25.4,7.57,29.56s-24.32-25.78-7.57-29.56ZM432.74,290.09c-.67.14-6.23,3.61-6.77,4.26-6.68,8.02,7.64,17.72,14.59,9.61,5.36-6.26-1.93-15.14-7.82-13.87Z" fill="#fff"/>
  <path d="M337.99,454.9l-7,41c-1.77,1.74-13.61-6.2-16.99-5.01,3.45-7.76,6.51-16.17,11.17-23.32,1.27-1.95,7.93-10.72,9.26-11.74,1.22-.93,2.03-1.15,3.56-.93Z" fill="#fff"/>
  <path d="M442.01,785.89c.26-11.6,12.79-25.09,23.27-29.22,7.77-3.06,5.39,4.13,3.77,8.77-4.04,11.59-15.1,19.33-27.05,20.45Z" fill="#fff"/>
  <path d="M306.99,487.89l-16-6.73-3.98-33.26c1.69-1.85,8.38,6.85,9.2,8.29,2.08,3.7,12.19,30.01,10.79,31.7Z" fill="#fff"/>
  <path d="M437,786.88c-15.18,0-31.94-7.31-33.99-23.98,14.9.07,27.53,11.24,33.99,23.98Z" fill="#fff"/>
  <path d="M138.99,533.89c-17.23-13.64-15.59-35.8,6.52-42.98-5.43,13.77-9.37,28.01-6.52,42.98Z" fill="#fff"/>
  <path d="M530.31,489.57c-2.58-2.33-2.54-6.47-2.3-9.69,5.16.76,10.27,1.35,15.53,1.04,2.14-.13,10.2-3.06,10.44-.55-2.26,9.39-16.11,16.02-23.66,9.2Z" fill="#fff"/>
  <path d="M90.99,461.89l-6.27,46.23-5.72,21.77c-.35-22.95,6.45-45.3,9-68h2.99Z" fill="#fff"/>
  <path d="M277.68,428.58c-.52.59-5.13,3.94-5.68,3.31.26-8.54-.03-17.04-2.07-25.37,12.98-5.51,14.79,14.06,7.75,22.06Z" fill="#fff"/>
  <path d="M71.99,494.88c-1.44.24-1.35-1.73-1.69-2.78-2.53-7.81-3.4-20.15-4.29-28.72-1.48-14.29-1.19-28.86-3.84-43.06l2.33-1.43,7.48,75.99Z" fill="#fff"/>
  <path d="M349.99,482.89c1.43,1.62-2.61,16.5-4.43,19.11-2.44,2.15-9.13-3.66-12.57-3.12-.14-1.11-.03-1.98.5-2.99.95-1.82,14.75-14.98,16.5-12.99Z" fill="#fff"/>
  <path d="M562,572.88l11.49-19.98c1.93.86,2.54,17.81,2.05,21.04-1.28,1.98-10.98-1.13-13.54-1.06Z" fill="#fff"/>
  <path d="M439,783.89c-.49,1.08-4-6.88-4-7.5v-19.5c.85.26,4,2.02,4,2.5v24.5Z" fill="#fff"/>
  <path d="M510.67,468.23c.7.61.97,1.93,1.82,2.62,2.03,1.67,5.04,2.97,6.5,5.02l-13.5,3.99,2.52-12.98c.1-.15,2.26.99,2.66,1.34Z" fill="#fff"/>
  <path d="M56.9,352.77c-.16.25-3.56,1.35-3.89,1.12-4.12-16.31,6.82-5.73,3.89-1.12Z" fill="#fff"/>
  <path d="M103.88,402.76l-3.87.13c-.19-1.89.7-7.34,2.55-7.94l3.45,1.47-2.13,6.34Z" fill="#fff"/>
  <polygon points="398 570.88 400.99 563.9 402.98 569.4 398 570.88" fill="#fff"/>
  <polygon points="501 521.9 499.01 531.88 498 521.9 501 521.9" fill="#fff"/>
  <path d="M109.99,510.88c-.14.14-.65-.05-.98,0-.27-1.78.06-3.51,1.98-3.99.11.79-.77,3.76-1,3.99Z" fill="#fff"/>
  <path d="M112.01,501.9h.98c.33,1.46-.42,2.09-1.5,2.97l.52-2.97Z" fill="#fff"/>
  <path d="M114.5,497.89c.65.33.65.67,0,1v-1Z" fill="#fff"/>
  <path d="M113.5,499.89c.65.33.65.67,0,1v-1Z" fill="#fff"/>
  <path d="M367.5,737.89c.65.33.65.67,0,1v-1Z" fill="#fff"/>
  <path d="M6,511.89l31.8-.79,14.2,25.78c-.53.53-12.1,1.67-14.75,2.76-1.44.59-2.42,1.08-.74,2.27,14.76-3.3,27.79-4.66,42.86-2.89,7.05.82,18.2,5.74,23.62.89-1.54-.69-7.37-.02-6.88-2.37.6-2.83,8.27-19.73,10.01-22.01,1.28-1.67,1.61-1.94,3.86-1.63-2.12,6.31,2.87,13.63,3.08,18.51.26,5.93-2.21,14.4-2.07,20.97.15,7.4,2.41,20.5,4.11,27.91,2.81,12.28,8.42,25.01,15.89,35.11-1.09.5-13.96,1.63-10.99,4.49,1.42.61,2.97-.99,3.49-.99h15c10.04,0,30.49,21.47,42.52,26.48s22.79,3.56,34.2,6.8c15.47,4.4,27.87,13.78,45.29,14.7,13.98.74,26.59-4.71,39.03-5,6.71-.15,13.67,1.75,20.95,1,12.48-1.28,22.11-11.28,34.85-10.91,5.22.15,23.83,6.74,26.65,1.41.26-2.87-5.11-.32-7.43-.45-7.76-.44-15.65-3.54-23.55-3.53,17.69-14.94,31.08-32.01,38.78-54.22,1.94-5.59,3.2-15.82,5.11-19.89,1.52-3.25,10.87-4.13,14.63-4.37,18.67-1.19,38.98,10.31,55.71,5.67,1.78-.49,3.32-.15,2.77-2.68l-13.99.98,7.43-13.66,25.52,1.72c2.3,19.85,26.99,30.64,42.56,16.97,2.64-2.31,6.14-8.8,8.01-9.07,17.51,3.41,35.74,3.36,52.47,10.05v179l-34.99-2.01c-2.21-2.14,21.95-31.58,14.85-38.85-5.23-1.4-8.56,2.25-12.79,4.42l-14.06,14.43,9.91-36.57c.76-21.68-11.61-8.95-17.72,1.28-8.04,13.45-11.62,28.96-14.21,44.3l-8.96-26.52c-3.61-6.32-6.59-14.94-12-20-8.95-8.39-11.62.09-10.91,8.91,1.24,15.42,10.38,32.35,12.88,47.62l-30,5c4.86-23.27-27.31,2.83-29.51,12l-1.5-15.99c9.31-.12,9.85-9.74,8-17,19.79,3.75,25.46-15.6,4.01-17.01-1.17-1.12,10.05-10.24,2.51-16-7.91-6.05-16.58,6.2-17.51,5.01-3.38-18.51-22.28-13.85-17.02,5-17.04-6.11-21.99,10.18-5.99,15.51l-7.08,7.91c-3.23,13.76,12.88,9.46,20.06,4.58-.45,2.31,4.01,6.49,4.01,7.5v20l-.5.5c-6.85-8.1-19.14-16.8-30.08-13.06l.57,8.06c-8.83.71-17.38-1.55-26-3.01,4.33-13.78,13.14-27.89,16.72-41.78,2.32-9.03,2.54-19.5-8.92-11.2l-15.78,21.99,5.07-40.49c-1.03-4.81-.39-11.44-5.62-13.58-7.66-1.16-13.82,16.35-15.75,22.29-2.94,9.01-4.33,18.45-5.73,27.78l-2.46-13.02c-2.21-7.49-8.62-32.39-16.5-34.57-4.39-1.22-6.65,5.61-7.06,9.07-1.74,14.63,3.44,30.98,5.02,45.53-5.62-6.12-17.26-28.47-24.97-30.62-8.2-2.29-3.54,18.52-2.34,22.44,2.03,6.62,19.73,36.54,19.32,38.66-3.67,2.44-9.49,1.9-14.04,2.99-27.9,6.71-55.91,25.95-76.48,45.49-3.4,3.23-15.09,17.47-18.01,18.02-1.53.29-11.48.28-12.27-.19-10.41-17.01-25.04-31.57-40.73-43.76-21.21-16.48-48.33-31.7-75.47-34.03,2.81-7.42,5.33-14.88,3.98-22.98-9.65-1.38-13.79,10.77-19.97,15.99,1.25-10.1,2.91-20.28,2.03-30.54-1.02-11.93-9.03-5.04-12.55,1.53-4.23,7.9-5.89,16.28-7.5,25.01-2.57.41-1.55-.24-2.09-1.41-2.67-5.82-6.9-36.12-17.46-29.66-5.26,7.29-2.63,19.43-1.44,28.06l-19-1.99v-230ZM101.72,593.59c8.15-7.37-4.34-18.53-13.23-12.73,4.14-15.23-11.67-19.34-17.51-5.98-2.64.76-1.72-1.54-3.57-2.86-9.7-6.91-16.42,2.02-13.4,11.87-8.46-.5-14.51.36-12.94,10.43.85,5.47,4.44,4.31,7.92,7.07-8.63,8.8-1.51,19.16,10.01,14.5-1.48,8.22,4.23,12.96,12,10l-3,23c-7.18-8.12-14.52-17.16-26.49-17.08-10.7.07-6.19,12.53-2.02,18.1,13.38,17.89,51.36,19.42,63.9-.14,14.31-22.32-9.69-18.36-20.39-7.39l-7.01,7.99,2.02-26.48c9.47,4.38,18.4.6,16-11,6.39.28,12.55-2.16,12.84-9.28-1.29-4.57-5.53-5.66-8.84-8.23.81-1.05,2.56-.75,3.71-1.79ZM406,666.89h16.5c.46,0,5.14,5.42,6.56,6.44,13.49,9.6,42.43,10.94,58.12,7.25,4.01-.94,13.88-5.55,15.36-5.65,5.78-.4,14.24,3.7,20.45,2.96-.24-5.4-16.42-2.86-17.99-5.01,7.42-7.82,17.24-21.21,17.02-32.52-.33-16.4-20.43,1.38-22.47,1.49-3.09.16-15.83-4.87-20.29-5.71s-10.48-1.08-15.26-1.25c28.61-36.94-30.98-58.9-43.96-20.45-5.87,2.16-18.45-3.43-18.11,5.93.21,5.85,4.13,5.18,6.78,7.82,1.01,1,.97,2.87,2.93,4.58,3.86,3.39,12.64,4.22,17.36,3.13.63,3.2-2.68,3.91-3.82,5.63-5.01,7.53-6.53,14.38-4.17,23.36-1.48,2.09-13.3-2.6-15,2.02ZM547.99,618.89c.31-1.92-.78-2.67-2.5-2.99-6.38-1.17-13.06,1.9-19.76.75-8.78-1.5-19.05-11.37-29.73-3.24-1.68,3.24,6.66-.33,7.57-.43,10.46-1.17,13.52,4.66,20.98,5.86,7.92,1.27,15.76-2.31,23.43.06ZM162.65,732.54c1.94-1.76,4.51-7.49,5.36-8.14,1.25-.95,14.76-3.5,18.21-4.79,34.07-12.73,34.91-48.14-1.96-55.49-6.52-1.3-14.51-.38-20.7-1.3-4.29-.64-8.94-4.18-14.18-4.82-11.67-1.43-29.93.3-18.46,15.53l-.35,1.38c-5.98,4.66-12.92,8.44-17.1,14.98-2.16.54-22.09-24.96-30.9-9.9-4.65,7.94,7.63,17.66,14.43,19.91-4.98,3.84-16.32,17.26-9.28,23.04,9.03,7.42,23.33-8.9,27.79-16.03,8.37,8.96,19.68,13.75,31.52,16.46l.96,1.02c-10.07,13.16,5.6,16.38,14.67,8.15ZM294.99,688.89c-8.46,2.37-16.63,3.9-25.54,3.04-11.84-1.14-15.81-7.05-30.14-3.18-1.72.46-2.78-.71-2.31,2.13,16.27-4.62,27.59,5.55,43.54,4.05,3.64-.34,9.17-2.05,12.46-3.58,1.49-.7,2.47.15,1.99-2.46ZM65,692.9c-9.7,3.4-23.22-9.45-31.01.48,3.8.07,6.17-1.84,10.49-1.52,5.66.43,9.36,4.54,16.05,4.11,2.22-.15,4.7.06,4.47-3.07ZM277,732.9c-4.18-1.44-10.02-3.09-14.45-3.05-5.65.05-12.73,3.56-18.05,3.08-8.35-.75-18.36-11.24-27.49-1.54,4.84.22,8.05-2.28,13.43-1.44,4.38.68,8.41,4.84,14.11,4.97s12.84-2.98,17.95-3.02c3.48-.03,8.28,1.94,11.73,2.35,1.5.18,2.18.77,2.77-1.35ZM223,759.9c-9.71,3.78-18.7-3.09-27.5-3.09-8.36,0-13.26,3.37-24.49,2.56-1.34-.1-3.38-1.69-3.02,1.01,10.86,6.14,20.02-1.73,31.51-.49,6.82.73,18.33,7.29,23.49.02Z" fill="#fff"/>
  <path d="M511.64,231.53c-6.38,6.84-16.01,9.58-25.1,10.4-129.38-.12-258.7,1.56-388.09.91-3.86-.02-6.19.08-9.9,0-10.88-.24-18.68,1.03-28.03-5.97-11.68-8.75-14.73-23.57-8.7-36.65,7.95-17.24,25.01-16.73,41.63-17.37,117.04-4.57,236.83,4.39,354-1,15.12,1.17,34.06-.91,48.56,2.54,20.81,4.95,30.75,30.94,15.63,47.15ZM98.01,240.88c93.76-1.14,187.65-1.17,281.54-.95,35.94-4.83,77.51,2.88,112.96-1.04,29.46-3.26,32.44-45.96,1.55-52.56-23.92-5.11-49.4-1.53-73.5-1.4-114.41.61-228.6.7-343.03.97-35.04,3.22-36.75,51.83,2,54.97,3.09.25,11.98.6,14.06-.91,1.94-1.42,2.28-6.12,6.42-5.07l-1.99,5.99Z"/>
  <path d="M200,298.88c15.47-.73,15.25,16.68.43,18.94-4,.61-12.18-1.33-13.79-.83-.71.22-8.3,8.26-11.39,9.65-8.33,3.76-16.35-2.79-12.26-11.75-10.35,1.15-27.94-10.69-15.96-20.47,4.69-3.83,8.78-2.22,13.94-2,.82.04,1.27,1.43,1.05-1.06-.25-2.87-4.14-11.6-6.34-13.16-4.73-3.37-13.66.57-7.65,5.18,2.13,1.63,5.26.33,5.94,2.02,1.08,2.68-6.16,3.61-8.87-1.13-5.01-8.76,7.51-12.77,13.43-6.44,1.64,1.76,1.68,4.27,3.44,5.04.52-4.07-2.03-12.03,3.57-13,4.42-.77,7.08,1.47,6.44,6-3.18.86-1.49-2.59-2.91-3.56-5.13-3.54-5.28,3.77-5.07,7.05.49,7.75,2.29,8.29,7.97,12.51-1.36-13.78,15.67-32.76,28.94-21.42,8.21,7.01,3.09,20.49-.92,28.42ZM194.01,301.88c.64-5.73,6.2-6.52,7.55-12.94,1.92-9.14,1.04-19.84-10.93-19.02-9.14.63-17.66,15.13-16.43,23.26.3,2,8.23,13.15,10,16.01,2.52,4.07.15,6.08,6.3,6.69s21.05-.8,18.35-10.27c-1.72-6.02-10.12-5.04-14.83-3.73ZM174.46,311.41c2.2,2.24,7.1,8.76,9.49,4.89.84-2.87-9.31-18.2-11.96-20.91-1.98-2.02-7.7-7.22-8.78-1.87-.71,3.51,8.43,15.02,11.25,17.89ZM154.5,311.89c4.02.81,10.18-.59,14.5,0-3.05,3.35-7.14,5.26-4.06,10.56,2.93,4.85,12.59,2.43,13.98-2.92-5.65-5.51-10.32-10.76-14.72-17.34-3.02-4.52-1.7-8.5-8.71-8.39-12.67.2-12.11,15.86-1,18.09Z"/>
  <path d="M160,96.39c-.94,5.23-17.1,4.92-19.11.11l.33-51.9c2.32-5.45,16.58-4.63,20.07-1.77l13.72,23.05v-21.5c0-5.36,17.85-4.22,18.99-1.74l-1.48,54.24c-1.92,4.04-13.57,3.79-16.89,1.89l-15.61-23.89c-.81,6.47,1.1,15.38,0,21.5ZM178,42.89v27.5c-.74.68-1.26,1.79-2.49,1.5-2.03-.48-14.05-26.82-17.51-28.5-2.58-1.26-13.28-1.43-15.01,2.01v51.5c4.35.46,10.33,2.76,14-.5v-27c0-.12,1.45-2,2-1.01,3.79,1.76,12.74,24.33,17.03,27.98,2.55,2.17,12.74,2.5,14.48-.46l1.35-51.37c-1.03-3.15-10.92-1.06-13.86-1.64Z"/>
  <path d="M328,65.89v-20.5c0-.35,1.22-3.28,1.65-3.58,3.32-1.3,14.87-2.15,16.18,1.75-1.37,9.97,3,47.75-1.38,54.29-1.94,2.89-14.04,2.74-16.76,1.1-3.85-2.32-11.2-21.22-15.69-25.06v22.5c0,3.84-17.24,5.57-18.83.83l.33-54.34c1.38-2.83,11.11-2.36,14.03-2.02,9.85,1.16,13.41,19.51,20.48,25.02ZM296,42.89v53.5c0,1.74,11.82,1.74,13.08-.18,1.9-2.91-.13-5.16.02-7.72.39-6.82,1.16-13.79,1.41-20.62,1.9.04,3.02,2.69,3.9,4.1,2.69,4.31,12.15,23.27,15.02,24.98,3.25,1.95,9.97,1.13,13.43-.21l.71-51.89-1.24-2.01-11.16.2c-.16.72-1.17,1.97-1.17,2.34v27.5c-4.51-1.44-5.39-7.73-7.81-11.69-1.79-2.94-9.03-14.92-10.68-16.32-4.14-3.53-10.52-1.48-15.52-1.98Z"/>
  <path d="M498.36,146.53c-10.87-10.8-13.94-28.58-7.53-42.32,15.47-33.13,66.65-32.35,78.21,3.14,13.56,41.6-41.13,68.52-70.68,39.18ZM556.64,146.53c21.15-19.36,12.16-55.09-15.09-62.7-28.89-8.07-58.88,16.38-49.88,46.88,7.75,26.26,45.53,33.61,64.97,15.82Z"/>
  <path d="M349.77,112.12c2.81,2.88,6.27,28.24,8.24,33.76,1.44.24,1.35-1.73,1.69-2.78,1.91-5.91,5.19-27.91,8.24-30.77,2.19-2.06,8.5-1.82,11.58-1.45,5.31.63,5.98,2.15,5.25,7.27-1.26,8.86-9.04,37.22-12.46,45.55-2.79,6.79-15.2,6.41-21.59,4.98-3.51-.78-4.95-3.8-6.19-6.81-3.43-8.29-8.32-26.7-10.23-35.77-.95-4.53-1.72-8.85-1.34-13.54.55-2.35,14.95-2.34,16.81-.44ZM368.88,165.77l13.71-50.92c-2.64-1.49-11.07-3.36-13.11-.97l-8.49,35.51-2.48,2.5-11-38.01c-1.69-2.03-12.53-1.51-13.4,1.67,3.08,7.56,10.26,45.6,14.36,49.37,2.5,2.3,16.26.41,20.41.85Z"/>
  <path d="M107,285.89c33.37-2.88,26.04,38.93-4.44,33.94-2.21-.36-4.95-2.66-6.06-2.59-.44.03-4.83,2.96-7.07,3.59-5.63,1.6-10.78,1.75-16.14-.73-1.77-.82-2.89-3.04-4.83-3.24-3.15-.32-8.52,3.94-15.88,2.94-27.06-3.66-18.75-38.39,6.27-34.05,4.13-26.56,45.7-26.6,48.14.14ZM105.08,288.82c-.33-17.12-18.21-24.79-32.78-18.12-8.29,3.8-9.3,9.98-12.26,17.72-23.81-6.62-31.48,28.16-5.42,29.41,4.78.23,10.33-3.1,13.9-3.01,4.98.13,6.48,7.13,18.52,4.63,3.15-.65,7.91-4.47,9.43-4.51,3.62-.11,6.41,3.87,14.57,2.51,24.14-4.03,18.9-35.38-5.97-28.62Z"/>
  <path d="M422,144.91c1.91,3.58,10.81,18.85,8.87,21.86-4.44,1.76-9.94,3.37-14.62,1.37-5.62-2.41-4.97-12.41-10.24-15.25-.6,3.8,1.44,11.47-1.45,14.06s-14.28,2.54-16.66-.46c-2.63-3.3-.2-31.96.14-38.06.21-3.75-1.05-13.9.93-16.07,14.06-5.13,47.49-4.36,44.6,17.56-.91,6.91-4.74,12.89-11.58,14.99ZM390,116.39v49.5l12.31.03c.67-.2,1.69-2.25,1.69-2.53v-15.5c7.02-.65,8.06,15.12,11.99,17.51,2.41,1.47,8.95-.03,12.02.49,2.21-2.26-7.48-18.27-8.91-21.52,6.25-4.08,11.31-6.79,11.89-15,.91-12.75-9.72-16.42-20.62-17.35-3.96-.34-14.19-.16-17.7,1.04-.96.33-2.5,2.48-2.67,3.33Z"/>
  <path d="M269.96,89.94l-13.39-.93c-2.05.53-1.72,6.36-3.52,8.44-2.96,3.42-13.26,3.15-17.11.83-1.01-3.61,6.64-28.26,8.35-33.6,1.18-3.68,7.13-22.86,9.37-23.63,6.13.6,18.37-2.46,22.36,2.32,6.61,16.79,9.7,35.18,13.85,52.81-6.41,6.72-20.94,5.8-19.91-6.24ZM287.01,96.89l-13.09-52.42c-1.82-2.54-15.47-1.94-19.3-1.69l-16.61,54.1,12.83-.17,3.05-9.25c.81-1.22,16.11.13,17.18.86,2.42,1.66-.93,9.49,8.43,9.56,2.32.02,4.95-1.52,7.52-1Z"/>
  <path d="M224.87,159.02l-13.94.3-3.68,9.56c-8.55,1.58-17.11,2.13-15.01-9.25,1.61-8.72,9.11-35.67,12.69-43.3.81-1.72,2.96-4.69,4.78-5.22,2.87-.83,17.23-.7,19.28,1.3,2.56,2.51,13.19,39.5,14.52,45.47.98,4.4,2.47,7.28-2.51,9.52-8.73,3.92-15.16,1.47-16.13-8.38ZM241.92,164.79l-14.43-49.89c-1.96-2.98-15.05-2.68-17.49-1.52s-6.19,14.33-7.28,17.72c-1.47,4.56-9.98,32.48-8.6,34.66l11.92.66,3.57-10.6c4.53.57,11.75-1.07,15.7,1.25,3.29,1.93,2.47,7.66,5.35,8.65l11.26-.93Z"/>
  <path d="M90.11,159.01c-.58,3.16-2.04,8.17-5.63,8.86-4.72.9-16.62.88-15.31-6.22,6.01-12.81,8.65-27.95,14.34-40.75,2.37-5.33,3.79-8.15,10.08-8.93,14.41-1.78,15.96,2.71,20.13,14.69,1.75,5.03,10.16,35.52,9.14,38.54-1.19,3.51-11.22,3.1-14.14,2.46-6.25-1.38-3.9-7.08-5.65-8.36-.92-.67-12.47-.74-12.96-.31ZM107.12,164.76c2.81.52,12.96,1.11,13.8-1.51.48-1.48-6.49-26.65-7.62-30.17-.94-2.92-5.81-16.35-7.33-17.67-3.47-3.03-15.75-2.83-18.49,2.46-5.01,9.65-11.71,31.24-14.79,42.2-.43,1.54-1.05,3.09-.6,4.72l12.93.61,3.6-9.58,16.24.2,2.26,8.73Z"/>
  <path d="M229.99,57.88l-.13,39.37c-1.26,3.73-17.34,3.77-19.38-.35-2.35-4.77.93-38.6-.48-40.02-5.85,0-13.96,1.51-14.09-6.47-.04-2.22,1.1-8.05,3.07-9.04,1.83-.92,38.65-.94,40.99.04,3.85,1.62,3.85,10.22,2.5,13.45-1.84,4.38-8.65,2.82-12.48,3.02ZM213,96.89h14v-40.5c1.66-3.13,12.11-.6,13.01-1.49l-.94-11.57c-11-.38-22.62-2.47-33.61-1.48-8.88.8-6.17,4.68-6.46,12.05,3.64.53,12.48-1.84,13.82,2.71l.18,40.28Z"/>
  <path d="M471.26,167.63c-1.4-1.24-2.31-5.7-2.29-7.7-3.32,1.03-12.68-2.31-14.83-.91-.91.59-.56,7.42-4.84,8.65-2.4.69-12.38.61-14.04-1.03-2.24-2.21-.63-6.37.05-8.97,3.6-13.73,10.66-27.82,14.19-41.8,2.08-5.86,9.7-5.61,15.01-4.99,7.61.89,9.28,4.97,11.44,11.56,4.41,13.46,5.81,28.58,11.01,41.99-.23,5.19-12.79,5.78-15.7,3.19ZM484,165.89l-12.14-48.35c-4.37-5.63-17.43-7.5-20.65.07-3.77,8.87-8.61,24.87-11.49,34.51-.73,2.44-3.46,11.24-2.3,12.85,15.06,4.81,10.66-2.73,15.08-8.06,1.25-1.51,16.03.11,17.27,1.23,1.55,1.4.39,6.51,3.93,7.57,2.9.87,7.18-.18,10.31.19Z"/>
  <path d="M317.86,160.03l-13.76-.04c1.97,11.18-16.19,13.63-17.92,5.16-.83-4.06,8.46-29.1,10.36-35.22,1.48-4.76,2.18-17.1,8.42-18.61,1.61-.39,16.05.79,17.44,1.67,3.12,1.98,5.42,12.6,6.53,16.47,1.53,5.33,8.98,33.66,7.91,36.76s-11.15,4.15-13.89,3.23c-3.88-1.29-3.51-6.25-5.09-9.42ZM323.17,166.72c15.07,1.88,11.87-4.1,9.54-15.03-.93-4.38-9.59-35.7-11.1-36.9l-18.5-.8-13.97,51.25c.99,2.92,8.72,1.68,11.27.75,1.21-14.73,8.97-6.79,19.47-7.97l3.3,8.69Z"/>
  <path d="M168,150.88c.83,14.83,1.16,20.05-15.55,18.06-4.12-.49-4.16-2.8-4.49-6.51-1.01-11.13-.79-30.79,0-42.08.36-5.09.31-8.06,5.77-9.23,12.81-2.75,40.23-3.24,42.26,14.26,2.19,18.85-10.75,26.49-28,25.49ZM190.59,141.52c8.11-11.41,4.09-24.44-9.55-28.17-4.93-1.35-27.15-2.54-29.55,1.53l.5,51.58,13-.58c.47-3.61-1.35-14.58,1.99-16.51,1.69-.97,11.29-1.09,14.84-2.16,2.69-.81,7.15-3.42,8.77-5.69Z"/>
  <path d="M418.36,47.25c17.34-17.83,48.29-8.15,50.69,18.1,2.45,26.89-18.22,43.5-43.73,33.73-19.77-7.57-20.54-37.87-6.96-51.83ZM434.76,41.15c-29.2,4.28-31.68,54-2.15,57.63,47.78,5.87,43.95-63.76,2.15-57.63Z"/>
  <path d="M79.99,82.89c-.63,3.88,1.5,13.67-1.42,16.08-3.12,2.58-16.1,2.96-18.09-1.06l1.01-56.02c18.78-6.91,56.49-5.39,49.66,23.66-3.46,14.73-18.16,16.74-31.15,17.35ZM78.14,81.03c12.49-1.85,28.79-1.8,30.77-17.73,3.31-26.63-28.24-24.34-45.77-20.28l-.99,53.22c.96,2.93,12.01,1.57,14.92,1.2l1.08-16.42Z"/>
  <path d="M355.72,41.11c4.87-1.07,25.16-.74,30.52.05,28.78,4.23,26.78,54.77-9.86,58.61-4.7.49-21.93,1.26-24.45-2.3v-54.15c1.07-.99,2.35-1.89,3.79-2.21ZM354,44.39v52l1.5,1.5h21c22.67,0,37.55-34.05,19.52-49.52-8.23-7.06-20.22-7.22-30.57-6.52-2.2.15-10.99,1.06-11.46,2.54Z"/>
  <path d="M266,151.89h14.5c.29,0,2.33,1.02,2.53,1.69-.66,3.96,1.9,13.75-2.74,15.11-3.56,1.05-26.92.35-30.6-.99-1.33-.49-1.83-1.52-2.25-2.75.82-9.32-3.06-46.27.71-52.39,1.65-2.68,15.84-2.91,17.84.84v38.5ZM250,114.39v50l1.5,1.5h28c2.4-2.51,2.4-9.49,0-12h-15.5l.34-38.77c-1.3-3.23-13.62-3.06-14.34-.73Z"/>
  <path d="M338.01,329.9c20.05-3.83,21.13,25.13,1.49,25.07-2.38,0-4.74-1.37-6.92-1.09-3.93.51-5.09,4.57-12.86,2.79-4.03-.92-4.88-5.3-6.31-5.66-.99-.24-5.07,1.95-7.85,1.91-21.94-.33-16.48-33.23,4.45-26.02,1.93-15.74,27.68-12.8,28.01,3ZM332.68,322.2c-4.17-4.68-15.37-5.72-18.76.12-1.62,2.79.03,5.79-2.49,7.53-19.01-9.63-25.93,22.61-3.02,19.96,2.42-.28,4.46-1.98,6.97-1.86,2.44.78-.04,6,6.2,6.9,6.63.96,7.72-3.04,11.15-3.75,1.81-.38,5.69,1.12,8.78.83,16.21-1.52,10.15-25.27-5.54-19.47-1.45-1.09-.64-7.28-3.29-10.25Z"/>
  <path d="M270.76,277.13c1.43,1.52,1.95,7.42,2.28,9.72,5.58.07,16.29-1.03,11.82,7.41-1.44,2.72-6.34,4.96-6.77,6.31-1.03,3.26,4.61,14.15-6.34,12.14-2.58-.47-5.35-3.71-7.24-3.77-3.41-.11-8.97,6.49-13.93,2.88-5.37-3.9,2.28-11.18,2.25-12.43-.07-3.12-22.67-15.18,8.08-13.59-.68-4.43,6.03-12.74,9.86-8.66ZM271.14,288.75c-1.93-2.39.31-9.92-3.65-9.9-4.43.36-3.57,8.25-6.43,9.53-27.79-2.89-5.41,6.76-5.32,9.99-2.62,3.97-4.56,7.55-3.74,12.53,5.28.67,8.45-3.78,12.67-5.86,2.01-.18,4.55,4.55,7.28,5.44,7.35,2.41,2.39-8.55,3.15-10.9.71-2.22,9.47-5.13,8.9-9.67l-12.85-1.15Z"/>
  <path d="M547.74,265.02c5.12-.72,5.49,7.07,7.27,8.36,2.09,1.51,15.26,2.07,9.45,8.46-1.49,1.64-5.09,2.19-6,4.05-.73,1.48,2.59,10.27-3.16,11.87-4.17,1.16-6.93-4.63-9.84-4.93s-4.89,4.95-10.78,2.89c-6.51-2.28,1.17-10.59,1.17-11.34,0-1.09-6.31-4.47-4.38-8.48,2.02-3.77,7.33-2.18,9.56-3.5,1.68-.99,2.16-6.74,6.72-7.38ZM552.18,275.71c-.68-.81-.87-7.52-3.68-8.8-3.19.75-5.18,8.55-5.63,8.85-1.25.82-6.84-.31-8.87.14-1.98,3.46,4.97,7.64,4.97,8.5,0,.52-7.01,6.25-3.03,9.06,4.02,2.84,7.12-4.89,9.42-4.49,3.32,2.8,5.6,6.67,10.63,5.93.51-.5-.56-8.22.17-10.34,1-2.9,9.15-2.83,6.79-6.6-.62-.99-9.91-1.22-10.77-2.25Z"/>
  <path d="M115,63.89c3.73-1,17.75-2.59,19.5,1,.92,1.89.91,24.99.55,28.56-.14,1.42.13,2.85-.99,4.01-2.49,3.51-15.94,3.73-19.07-.07v-33.5ZM132,64.89h-14c-1.59,10.22.96,21.35,0,32h14v-32Z"/>
  <path d="M118.01,346.89c6.56-4.92,18,.31,12.4,7.92-1.34,1.82-5.81,2.96-6.31,4.73-.56,2,2.73,7.34-.58,10.37-5.46,4.98-11.01-4.38-13.14-4.78-2.87-.54-6.15,2.73-10.46-.65-5.78-4.54.08-11.66,6.08-11.59-7.68-13.79,7.36-20.33,12.01-5.99ZM115.26,366.62c.85.88,3.23,1.38,4.42,2.09,5.75-1.35,2.57-8.04.33-11.34,12.87-2.02,12.07-14.13-2.42-7.61-3.28-3.34-2.71-9.01-9-8.83-4.7,2.28,1.06,12,.39,12.94-4.69.38-12.51,4.65-6.99,9.51,3.52,1.71,7.01-.63,10.39-1.38,1.82.44,1.83,3.54,2.87,4.62Z"/>
  <path d="M333.76,407.06c5.99-1,11.27,6.15,10.01,12.1-.8,3.79-10.49,18.71-13.8,20.24-4.11,1.9-17.44-9.48-19.96-13.02-6.18-8.68-2-19.35,9.26-17.27,2.34.43,4.94,2.77,6.26,2.78,1.66,0,5.13-4.32,8.23-4.84ZM313.36,426.53c1.44,1.61,13.88,11.62,15.07,11.34,4.46-4.71,19.92-22.69,9.31-27.22-7.68-3.28-8.33,4.03-11.26,4.32-3.39-.36-4.61-3.35-8.24-3.89-10.14-1.51-10.42,9.26-4.88,15.44Z"/>
  <path d="M121.73,41.13c18.56-3.41,18.05,17.58,5.64,18.71-14.79,1.35-16.73-16.67-5.64-18.71ZM125.67,42.22c-10.67.18-11.47,15.65-.18,15.68s9.46-15.84.18-15.68Z"/>
  <path d="M525.99,161.89l-3.49,17.97c-2.34-1.48-.89-2.19-.8-3.76.18-3.43.12-13.82,4.3-14.21Z"/>
  <path d="M572.99,71.89c.56,2.12-.62,2.69-1.47,4.02s-10.08,12.44-11.52,10.97l6.48-9.01,6.51-5.98Z"/>
  <path d="M550.83,159.1c1.39.95,6.36,12.23,7.17,14.78-2.53,2.6-8.5-13.47-9.99-14.5.12-.94,2.3-.64,2.82-.28Z"/>
  <path d="M533.01,75.88c.96-5.23-.02-13.04,3.98-16.99-.59,4.29,1.17,15.73-3.98,16.99Z"/>
  <path d="M502.98,67.9l6.02,13.98c-3.27,2.58-8.18-11.17-8.01-13.48l1.99-.5Z"/>
  <path d="M583,149.9l-1.5,2.97c-3.07-3.65-7.81-4.69-11.62-7.39-1.18-.84-2.45-.03-1.88-2.59,2.78-2.14,11.45,7.19,14.99,7.01Z"/>
  <path d="M488,98.91c.51,2.81-1.01,2.22-3.04,1.53-3.8-1.29-9.66-4.15-11.96-7.54l15,6.01Z"/>
  <path d="M503,154.9c-1.56,3.7-4.05,6.9-6.42,10.1-.36.48-1.13,3.71-2.58,1.89-1.18-1.48,6.19-14.21,8.99-11.98Z"/>
  <path d="M585.99,108.9c.23,1.74-2.27.94-3.48.99-2.83.12-5.69-.07-8.51-.01-.23-1.74,2.27-.94,3.48-.99,2.83-.12,5.69.07,8.51.01Z"/>
  <path d="M162.65,732.54c-9.07,8.22-24.74,5.01-14.67-8.15l-.96-1.02c-11.84-2.72-23.15-7.51-31.52-16.46-4.45,7.13-18.75,23.46-27.79,16.03-7.04-5.78,4.31-19.2,9.28-23.04-6.8-2.25-19.07-11.97-14.43-19.91,8.81-15.06,28.74,10.43,30.9,9.9,4.18-6.54,11.12-10.32,17.1-14.98l.35-1.38c-11.46-15.22,6.79-16.96,18.46-15.53,5.23.64,9.89,4.19,14.18,4.82,6.19.92,14.18,0,20.7,1.3,36.87,7.35,36.03,42.76,1.96,55.49-3.45,1.29-16.96,3.85-18.21,4.79-.85.65-3.42,6.38-5.36,8.14ZM158,662.9c-8.87-2.53-23.75-7.22-28.86,3.32,4.74,10.52,6.16,5.6,13.6,2.91,1.46-.53,16.57-4.56,15.26-6.23ZM176.99,719.88c.44-.42-5.13-8.97-5.79-10.7-4.54-11.98-4.41-26.43.28-38.3.93-2.35,4.36-4.1.85-5.85-18.93.57-38.2,8.73-52.56,20.85-2.23,1.88-4.01,6.54-7.32,7.06-7.34-5.56-18.35-21.56-28.3-11.35-2.9,9.59,16.9,16.86,16.82,18.79-5.44,2.32-18.74,18.08-9.71,21.85,6.6,2.76,21.6-12.96,22.74-19.35,1.29-1.21,7.08,5.88,8.51,6.98,15.55,11.99,35.63,14.53,54.47,10.02ZM192.01,699.9c14.93,6.65,20.84-2.94,15.48-16.99-4.05-10.6-19.09-16.98-29.81-16.88-8.69,10.83-9.31,27.82-4.86,40.54.85,2.42,5.19,10.95,7.22,11.85,4.44,1.98,22.49-9.85,24.94-15.05-4,.45-11.93,2.29-12.97-3.48ZM165,723.9c-6.49,1.82-15.51-3.36-17.82,5.76-2.75,10.88,18.47,2.42,17.82-5.76Z"/>
  <path d="M101.72,593.59c-1.16,1.05-2.91.74-3.71,1.79,3.31,2.57,7.55,3.67,8.84,8.23-.29,7.12-6.45,9.56-12.84,9.28,2.4,11.6-6.53,15.38-16,11l-2.02,26.48,7.01-7.99c10.7-10.97,34.7-14.93,20.39,7.39-12.54,19.56-50.52,18.02-63.9.14-4.17-5.58-8.68-18.03,2.02-18.1,11.97-.08,19.31,8.96,26.49,17.08l3-23c-7.77,2.96-13.48-1.78-12-10-11.53,4.65-18.64-5.7-10.01-14.5-3.49-2.76-7.07-1.6-7.92-7.07-1.57-10.07,4.48-10.94,12.94-10.43-3.02-9.85,3.7-18.77,13.4-11.87,1.85,1.32.93,3.62,3.57,2.86,5.83-13.36,21.64-9.25,17.51,5.98,8.9-5.81,21.38,5.35,13.23,12.73ZM92,596.88c3.73-3.6,11.12-3.86,8.82-11.29-2.07-6.68-12.52-.84-14.83-2.18-1.15-3.72,1.82-5.82.38-10.34-3.44-10.77-13.77,1.05-15.88,6.82-3.63.87-.25-7.91-9.99-7.03-11.77,1.07-.58,14.15-1.5,15.02-17.28-7.53-23.56,10.26-4.99,11.01,2.83,2.8-9.26,5.34-5.51,13,3.26,6.65,12.64-1.96,13.49-1,.59,3.59-2.9,9.48.41,12.09,5.79,2.85,12.59-.31,12.61-7.1,3.56-.59,2.28,5.08,5.21,6.34,2.3.99,8.74,1.2,10.53-.58,3.77-3.75-2.64-11.9-1.75-12.76,17.71,5.14,21.31-9.49,3-12.02ZM72.99,657.89l3-35c-1.75.44-2.23,2.29-2.71,3.78-1.84,5.73-3.05,23.75-2.28,29.74.18,1.37.7,3.09,2,1.49ZM69,661.89c-.42-11.93-11.19-23.76-22.55-26.93-2.06-.57-6.62-2.13-8-.12-3.9,16.31,17.25,26.14,30.56,27.05ZM75,661.88c12.1.73,27.18-8.54,29.58-20.95.66-3.44.93-4.84-3.07-5.13-10.12-.74-26.34,15.91-26.51,26.08Z"/>
  <path d="M406,666.89c1.7-4.62,13.52.07,15-2.02-2.35-8.97-.84-15.83,4.17-23.36,1.14-1.72,4.45-2.43,3.82-5.63-4.72,1.09-13.5.26-17.36-3.13-1.95-1.71-1.92-3.58-2.93-4.58-2.65-2.64-6.57-1.98-6.78-7.82-.34-9.36,12.24-3.76,18.11-5.93,12.98-38.45,72.57-16.49,43.96,20.45,4.78.17,10.6.37,15.26,1.25s17.19,5.87,20.29,5.71c2.04-.1,22.15-17.89,22.47-1.49.23,11.31-9.6,24.7-17.02,32.52,1.57,2.15,17.75-.39,17.99,5.01-6.22.74-14.67-3.36-20.45-2.96-1.48.1-11.35,4.71-15.36,5.65-15.69,3.69-44.63,2.36-58.12-7.25-1.42-1.01-6.1-6.44-6.56-6.44h-16.5ZM465.62,629.52c14.97-21.55-11.93-41.46-32.32-29.83-12.89,7.36-14.86,30.55.69,35.69-8,8.96-16.12,18.57-8.85,30.87,8.9,15.03,52.79,15.82,67.56,10.85,13.5-4.53,30.18-25.84,25.36-40.78-5.25-3.73-17.01,9.42-18.56,9.21-9.36-5.67-22.48-7.2-33.39-8.03-1.48-.11-9.09,1.5-7.64-1.61,2.08-1.85,5.58-4.14,7.13-6.37ZM419.99,617.89c-4.72,1.09-18.56-4.99-16.02,4.29.7,2.56,14.03,4.91,17.02,4.7l-1-8.99ZM426,633.88c-2.76-7.54-8.66-4.1-14.98-5.5,3.47,4.69,9.44,5.69,14.98,5.5Z"/>
  <path d="M294.99,688.89c.49,2.61-.5,1.76-1.99,2.46-3.3,1.54-8.83,3.24-12.46,3.58-15.95,1.5-27.27-8.67-43.54-4.05-.47-2.85.59-1.67,2.31-2.13,14.34-3.87,18.3,2.04,30.14,3.18,8.91.86,17.08-.67,25.54-3.04Z"/>
  <path d="M223,759.9c-5.16,7.27-16.67.72-23.49-.02-11.5-1.24-20.66,6.64-31.51.49-.36-2.7,1.68-1.1,3.02-1.01,11.23.8,16.13-2.56,24.49-2.56,8.8,0,17.79,6.88,27.5,3.09Z"/>
  <path d="M277,732.9c-.58,2.12-1.27,1.53-2.77,1.35-3.45-.41-8.25-2.37-11.73-2.35-5.11.04-12.47,3.15-17.95,3.02s-9.74-4.29-14.11-4.97c-5.38-.84-8.59,1.66-13.43,1.44,9.13-9.7,19.14.79,27.49,1.54,5.32.48,12.41-3.03,18.05-3.08,4.42-.04,10.27,1.61,14.45,3.05Z"/>
  <path d="M547.99,618.89c-7.67-2.36-15.51,1.22-23.43-.06-7.46-1.2-10.52-7.03-20.98-5.86-.91.1-9.25,3.67-7.57.43,10.68-8.13,20.95,1.74,29.73,3.24,6.7,1.15,13.38-1.92,19.76-.75,1.72.31,2.81,1.06,2.5,2.99Z"/>
  <path d="M65,692.9c.23,3.13-2.25,2.93-4.47,3.07-6.69.44-10.39-3.68-16.05-4.11-4.32-.32-6.68,1.59-10.49,1.52,7.79-9.94,21.3,2.91,31.01-.48Z"/>
  <path d="M340,540.89h-20.5c-14.59,0-39.47,15.02-50.97,24.03-1.43,1.12-6.56,6.83-7.04,6.98-2.14.65-1.85-1.83-1.01-3.02.61-.87,11.89-10.2,13.58-11.42,14.57-10.49,34.47-18.46,52.45-19.55,3.54-.22,13.53-1.55,13.49,2.99Z"/>
  <path d="M354.99,607.9l-1.99,7.98c1.98,1.5,14.98-6,17.52-6.98,1.99-.77,1.72,1.57,1.33,2.85l-20.67,7.33-9.17,19.81c3.75-.83,8.02-3.35,11.71-3.79,1.5-.17,2.64-.98,2.27,1.27-1.7,3.55-14.24,3.49-17.33,5.43-1.06.66-1.44,3.24-2.64,4.59-.67.75-10.2,10.16-8.01,5.01.9-2.11,6.54-5.08,6.99-8.5-12.04,1.83-24.08,3.69-36.33,2.95-1.19.29-4.04,11.51-8.67,8.54l5.99-8.49c-12.54-.2-25.39,1.02-37.54-2.83l-4.45,11.82v-13s-31.01-6.01-31.01-6.01c-.35-2.61.29-2.05,2.39-1.89,4.39.34,27.94,7.56,29.61,5.9l1.42-19.12-33.42-7.89c-.3-.39.9-1.68,1.6-1.79,4.75-.75,31.14,9.18,33.41,6.8-.11-3.15-.41-7.37,2.99-9.01.88,3.15-3.01,7.91.72,9.8,8.6,4.37,30.65,2.47,40.81,4.21,4.32-.84,2.18-8.15,4.97-7,3.42,2.36-.79,4.26-.48,6.98,9.34-.39,18.96-.76,28.22-2.27,3.12-.51,13.99-2.6,15.24-4.76,1.36-2.38.38-8.01,4.53-7.96ZM338.73,638.61c1.8-1.49,10.26-17.36,9.26-18.72-13.21,4.5-27.55,5.24-41.42,4.94l-6.57,19.05c1.42,1.35,36.6-3.52,38.72-5.28ZM303,624.89l-42.36-2.89c-2.65.91-2.69,15.47-3.65,18.88,13.1,1.29,26.09,3.72,39.33,3.04,1.08-.26,8.03-17.68,6.68-19.03Z"/>
  <path d="M184,619.39c.65,2.24,20.26,9.03,24,9.51.56,2.81-1.18,2.18-3.27,1.76-6.54-1.31-13.51-5.33-19.73-7.77l-.51,10.98c-2.93-2.99-.66-9.44-3.51-12.47-1.69-1.8-8.38-3.55-11.04-4.96-5.95-3.16-11.95-6.64-17.46-10.54l1.01,11.99c-3.65-3.13-2.9-11.26-5.53-14.47-3.21-3.91-16.02-9.32-19.97-14.04-.38-2.47,1.7-1.63,2.97-.96,5.26,2.8,11.31,9.65,17.02,12.47l-1.49-18c-2.55-1.05-25.4-18.21-23.5-19.99l22.52,16.98c3.07,1.24.17-8.94,4.48-7.98.52,2.42-.8,9.28.17,10.83.4.64,11.64,6.1,13.48,7.02,5.8,2.88,12.31,4.69,17.86,8.12,3.2-1.56-.59-7.72,3.49-6.97l.99,8.51,29.01,8.51-1.49,2.99-29.5-9.01v17.5ZM181.99,618.89c-2.8-4.37,1.06-16.15-.89-18.58l-31.09-15.41c-.07,6.35-.47,13.11,2.52,18.97l29.46,15.03Z"/>
  <path d="M187.29,431.6c-.89-.91-1.39-2.42-1.29-3.71.94-1,5.18,3.34,6.74,3.75,6.04,1.61,8.97-1.12,11.25-6.27,3.01-2.17,2.96,7.48-5.96,9.13-2.4.44-9.14-1.26-10.74-2.9Z"/>
  <path d="M253.7,420.58c-5.49,4.8-15.23,3.74-17.7-3.68,2.2-1.74,7.99,8.64,15.52,2.02,1.73-1.52,2.09-5.65,3.96-5.02,2.68.91-.99,5.98-1.79,6.68Z"/>
  <path d="M252.99,398.88c-7.86-3.31-11.45-.44-18.99,1,3.36-6.61,15.98-8.38,18.99-1Z"/>
  <path d="M226,439.89c9.06.02,5.14-7.36-2.02-7.49-3.13-1.83,2.93-3.92,7.38-.38,7.25,5.79-3.73,14.88-5.36,7.86Z"/>
  <path d="M198,409.88c-2.61-.15-5.1-.02-7.57.93-3.19,1.22-4.06,4.78-7.42,5.07-2.68-2.84,13.88-14.65,14.99-6Z"/>
  <path d="M237,449.9c-.99,7.49-20.87,7.58-22.99,3.47-.09-3.69,5.18.7,6.92,1.1,7.61,1.73,9.68-2.88,16.07-4.57Z"/>
  <path d="M442,378.9c.39,1.97-.92,2.38-2.3,3.19-5.25,3.07-19.86,3.47-21.69-4.19,3.36-.41,5.03,2.71,7.8,3.7,6.42,2.3,10.38-1.08,16.19-2.7Z"/>
  <path d="M449.29,353.59c3.75,3.01,7.43.97,10.73-1.18.89-.58,2.57-2.6,2.98,0,.88,5.63-20.36,7.83-17.98-3.51,2.26.41,3.14,3.79,4.28,4.7Z"/>
  <path d="M417,347.9c-.06,3.5-5.82,6.56-8.65,6.7-2.59.13-10.18-3.44-7.85-6.7,2.41,1.46,5,4.17,7.93,3.99,3.6-.22,4.78-4.53,8.57-3.99Z"/>
  <path d="M416,330.91l-.51,2c-3.29-.69-6.5-1.51-9.93-.96-2.97.48-3.85,2.74-6.55,2.94,2.12-6.89,11.54-6.97,16.99-3.98Z"/>
  <path d="M426.99,359.9l-4,7.47,5,3.51c-10.18,2.46-10.25-9.59-1-10.98Z"/>
  <path d="M463.99,338.89c-4.31-2.78-6.76-5.74-12.42-4.97-1.83.25-5.87,3.83-5.56.48,2.25-4.75,18.85-3.06,17.98,4.49Z"/>
  <path d="M544.99,459.9c.76,2.07-5.48,4.74-6.54,4.95-3.91.76-11.34.24-10.45-4.95,2.65.58,3.28,1.88,6.45,2.08,4.43.28,6.56-1.6,10.54-2.08Z"/>
  <path d="M519.25,439.63c2.29,2.2,6.57.6,6.77-2.74,4.68,1.47-2.31,7.15-5.11,6.55s-6.46-5.51-5.9-8.54c3.19-.56,3.02,3.55,4.25,4.74Z"/>
  <path d="M548.98,439.89c.37,3.79,2.95,6.82,6.63,4.07,1.43-1.07.55-3.84,3.38-3.07.64,8.67-11.66,8.41-12.04.52-.1-1.98.26-1.63,2.03-1.53Z"/>
  <path d="M528.91,422.99c.78,5.77-1.95,1.18-5.38.82-3.07-.32-5.61.9-8.53,1.07,3.27-5.44,8.97-4.02,13.91-1.89Z"/>
  <path d="M560.99,430.88l-12.97-3.49c.04-2.92,13.68-1.77,12.97,3.49Z"/>
  <path d="M534.99,444.9l-3.99,3.01c-1.15,1.53,7.04,5.92,2.5,5.96-2.74.03-6.63-5.99-3.56-8.53l5.05-.43Z"/>
  <path d="M433.73,722.11c14.04-1.33,15.37,17.57,2.68,18.76-13.36,1.25-15.11-17.59-2.68-18.76ZM440.74,726.15c-3.3-2.93-11.35-2.03-12.54,3.46-2.18,10.06,11.98,11.38,14.83,2.74.12-1.23-1.47-5.47-2.29-6.2Z"/>
  <path d="M432.74,290.09c5.89-1.27,13.18,7.61,7.82,13.87-6.95,8.11-21.27-1.59-14.59-9.61.54-.65,6.11-4.12,6.77-4.26ZM428.28,295.16c-6.93,8.59,12.02,14.98,11.41,3.38-.33-6.38-8.48-7.02-11.41-3.38Z"/>
  <path d="M98.01,240.88l1.99-5.99c-4.14-1.06-4.48,3.65-6.42,5.07-2.08,1.52-10.96,1.16-14.06.91-38.75-3.13-37.04-51.75-2-54.97,114.43-.27,228.62-.36,343.03-.97,24.11-.13,49.59-3.71,73.5,1.4,30.89,6.6,27.92,49.29-1.55,52.56-35.45,3.92-77.01-3.78-112.96,1.04-93.89-.22-187.78-.19-281.54.95ZM237.99,194.9c-4.34-.58-6.57,1.71-5.99,5.99,4.34.58,6.57-1.71,5.99-5.99ZM357.64,219.52c-17.37,12.9-22.9-21.99-3.35-17.43,2.1.49,7.28,5.86,7.78.28.58-6.53-11.56-6.54-16.07-4.97-16.06,5.6-12.68,31.82,6.05,30.04,5.44-.52,14.7-6.23,6.92-10.07-.49.6-.78,1.73-1.34,2.15ZM157,208.89v16.5c1.72,2.24,5.28,2.24,7,0v-27c-10.29-6.57-11.27,9.24-16.5,14.5-2.32-3.25-4.65-12.25-7.4-14.58-2.3-1.95-6.21-2.26-7.6.59-.93,1.9-.89,24.16,0,26,.39.8,1.34,1.6,2.2,1.84l4.15-1.5.66-16.34c2.29,3.12,4.13,12.49,8.94,12.04,4.23-.39,4.71-9.92,8.55-12.05ZM197.98,202.88c.21-.14,1.43-4.19.59-5.04l-4.57-.95.48,5.02c.52,1.11,2.92,1.35,3.5.97ZM416.99,204.9c-.46-.45,1.72-9.05-4.39-6.93-2.09.73-1.54,4.61-2.54,6.24-.84,1.38-3.68.92-3.1,4.17.13.72,2.4.7,2.89,2.13,2.27,6.52-3.46,17.93,11.15,16.38,1.58-5.54-3.13-3.41-4.34-6.22s-.59-7.48-.55-10.66l4.75-1.26.15-3.85h-4.02ZM178.65,204.24c-14.38.42-13.85,24.14,1.85,22.69,12.66-1.17,11.31-23.08-1.85-22.69ZM311.74,204.1c-13.59,1.09-13.11,23.87.78,23.62,15.13-.27,12.99-24.73-.78-23.62ZM371,217.9c6.57-1.04,16.82,3.8,14.95-6.45-1.98-10.83-21.02-9.69-20.79,4.96.2,12.93,18.66,12.51,19.83,6.97,1.15-5.44-13.73,2.54-14-5.48ZM405,209.88c3.2-4.63-13.37-9.05-14.98-.45-2,10.65,10.97,7.36,10.96,10.96-2.7,6.74-12.48-5.49-11.8,2.78.44,5.36,16.36,6.04,16.92-2.78.47-7.37-7.32-5.17-11.1-9.01.73-5.73,8.34.89,9.99-1.5ZM432.75,204.11c-14.09,2.32-11.08,26.38,5.53,22.56,11.04-2.53,9.76-25.08-5.53-22.56ZM220,209.88c-.85-10.38-20.98-3.84-15.07,5.34,1.91,2.96,11.81,2.04,10.06,6.17-1.92,4.54-8.1-1.61-9.35-1.38-4.77,1.84-.36,5.88,3.06,6.67,4.95,1.14,11.36.51,12.26-5.37,1.1-7.18-5.12-7.08-10.39-8.32-3.25-7.06,8.1-1.15,9.41-3.1ZM243.86,216.75c2.11-16.17-21.26-16.4-20.96-.34.2,10.81,17.88,15.75,20.09,4.48-.9-.9-14.1,4.44-13.99-3l14.85-1.15ZM262.99,209.88c.71-7.42-13.75-6.86-14.97-.46-1.75,9.18,6.59,6.26,10.96,10.97-2.77,6.13-12.01-4.54-12.02,2.01,0,7.55,21.98,5.8,16.53-5.51-1.85-3.84-11.23-2.24-9.49-6.49,1.25-3.05,6.53.26,8.99-.52ZM279,206.39c-.85,2.98,0,14.8,0,19,0,1.3,4.2,2.5,5.55.55,2.2-3.2-2.97-17.24,5.94-16.08,6.51.84-2.59,19.19,7.51,17.04v-17.5c0-5.22-10.77-6.21-13.51-1.5l-2.02-2.97c-1.2-.41-3.17.4-3.47,1.47ZM194,205.89v19.5c0,1.88,5,1.88,5,0v-18l-5-1.5Z" fill="#fff"/>
  <path d="M194.01,301.88c4.7-1.31,13.11-2.29,14.83,3.73,2.7,9.47-12.21,10.88-18.35,10.27s-3.78-2.62-6.3-6.69c-1.77-2.86-9.7-14.01-10-16.01-1.23-8.13,7.29-22.63,16.43-23.26,11.98-.82,12.86,9.87,10.93,19.02-1.35,6.42-6.91,7.21-7.55,12.94Z" fill="#fff"/>
  <path d="M154.5,311.89c-11.11-2.23-11.68-17.89,1-18.09,7-.11,5.68,3.87,8.71,8.39,4.4,6.58,9.08,11.83,14.72,17.34-1.4,5.36-11.06,7.77-13.98,2.92-3.08-5.31,1.01-7.22,4.06-10.56-4.32-.59-10.48.81-14.5,0Z" fill="#fff"/>
  <path d="M174.46,311.41c-2.82-2.86-11.96-14.38-11.25-17.89,1.08-5.35,6.81-.15,8.78,1.87,2.64,2.7,12.8,18.03,11.96,20.91-2.39,3.87-7.29-2.65-9.49-4.89Z" fill="#fff"/>
  <path d="M178,42.89c2.94.58,12.83-1.51,13.86,1.64l-1.35,51.37c-1.74,2.95-11.93,2.63-14.48.46-4.29-3.65-13.24-26.22-17.03-27.98-.55-.99-2,.9-2,1.01v27c-3.67,3.26-9.65.96-14,.5v-51.5c1.73-3.43,12.42-3.26,15.01-2.01,3.46,1.68,15.48,28.03,17.51,28.5,1.22.29,1.75-.82,2.49-1.5v-27.5Z" fill="#fff"/>
  <path d="M296,42.89c4.99.51,11.37-1.54,15.52,1.98,1.64,1.4,8.88,13.39,10.68,16.32,2.42,3.96,3.3,10.25,7.81,11.69v-27.5c0-.37,1.01-1.62,1.17-2.34l11.16-.2,1.24,2.01-.71,51.89c-3.46,1.34-10.17,2.16-13.43.21-2.87-1.72-12.33-20.67-15.02-24.98-.88-1.41-2.01-4.06-3.9-4.1-.25,6.83-1.02,13.8-1.41,20.62-.15,2.55,1.88,4.8-.02,7.72-1.25,1.92-13.08,1.92-13.08.18v-53.5Z" fill="#fff"/>
  <path d="M556.64,146.53c-19.44,17.79-57.22,10.44-64.97-15.82-9-30.5,20.98-54.94,49.88-46.88,27.25,7.61,36.24,43.34,15.09,62.7ZM521.99,116.88c-2.06-12.78-20.7-1.72-16.99,2,2.36,2.37,3.61-3.41,5-4.49,6.12-4.75,10.55,3.89,11.99,2.49ZM550.68,116.21c-7.36-6.73-16.13,3.35-14.68,4.67,4.69.56,4.21-5.55,9.46-5.01,4.5.46,3.42,6.58,7.53,7.01.29-2.22-.69-5.19-2.31-6.67ZM536.99,129.89c-6.04,6.18-10.75,7.13-15.49-1-2.25,10.58,14.92,11.1,15.49,1Z" fill="#fff"/>
  <path d="M368.88,165.77c-4.15-.44-17.91,1.45-20.41-.85-4.1-3.77-11.28-41.82-14.36-49.37.87-3.18,11.71-3.71,13.4-1.67l11,38.01,2.48-2.5,8.49-35.51c2.04-2.39,10.47-.52,13.11.97l-13.71,50.92Z" fill="#fff"/>
  <path d="M105.08,288.82c24.87-6.76,30.12,24.59,5.97,28.62-8.16,1.36-10.95-2.62-14.57-2.51-1.52.05-6.28,3.86-9.43,4.51-12.04,2.5-13.54-4.5-18.52-4.63-3.57-.09-9.13,3.24-13.9,3.01-26.06-1.25-18.39-36.03,5.42-29.41,2.96-7.73,3.97-13.92,12.26-17.72,14.57-6.67,32.45.99,32.78,18.12Z" fill="#fff"/>
  <path d="M390,116.39c.18-.85,1.71-3,2.67-3.33,3.51-1.21,13.74-1.38,17.7-1.04,10.9.92,21.53,4.6,20.62,17.35-.59,8.21-5.65,10.92-11.89,15,1.43,3.24,11.11,19.26,8.91,21.52-3.07-.52-9.61.98-12.02-.49-3.92-2.39-4.97-18.16-11.99-17.51v15.5c0,.29-1.02,2.33-1.69,2.53l-12.31-.03v-49.5ZM404,123.39v14.5c19.18,3.09,19.46-23.03,0-14.5Z" fill="#fff"/>
  <path d="M287.01,96.89c-2.56-.52-5.2,1.02-7.52,1-9.36-.07-6.01-7.9-8.43-9.56-1.07-.73-16.38-2.08-17.18-.86l-3.05,9.25-12.83.17,16.61-54.1c3.83-.25,17.48-.85,19.3,1.69l13.09,52.42ZM262.01,55.89l-4.83,19.53c.35,2.05,11.81,2.85,11.65-.81-2.57-4.62-2.44-12.82-4.03-17.02-.52-1.37-1.3-1.98-2.79-1.7Z" fill="#fff"/>
  <path d="M241.92,164.79l-11.26.93c-2.88-.99-2.06-6.72-5.35-8.65-3.95-2.32-11.17-.68-15.7-1.25l-3.57,10.6-11.92-.66c-1.38-2.18,7.13-30.11,8.6-34.66,1.09-3.39,4.93-16.59,7.28-17.72s15.52-1.46,17.49,1.52l14.43,49.89ZM219.97,126.9c-.12-.1-2.64-.14-2.91.03-.78,5.2-5.55,14.13-5.68,18.89-.09,3.3,11.78,2.86,12.54.42.36-1.14-3.19-18.71-3.95-19.34Z" fill="#fff"/>
  <path d="M107.12,164.76l-2.26-8.73-16.24-.2-3.6,9.58-12.93-.61c-.44-1.63.17-3.18.6-4.72,3.08-10.97,9.78-32.55,14.79-42.2,2.75-5.29,15.02-5.49,18.49-2.46,1.52,1.32,6.39,14.75,7.33,17.67,1.13,3.52,8.1,28.69,7.62,30.17-.84,2.62-10.99,2.03-13.8,1.51ZM91,146.89c2.46-.43,12.27,1.27,12.95-1.57l-6.45-19.41c-2.28.02-6.44,17.78-6.5,20.97Z" fill="#fff"/>
  <path d="M213,96.89l-.18-40.28c-1.35-4.55-10.18-2.18-13.82-2.71.29-7.38-2.42-11.25,6.46-12.05,10.99-.99,22.61,1.1,33.61,1.48l.94,11.57c-.9.9-11.35-1.63-13.01,1.49v40.5h-14Z" fill="#fff"/>
  <path d="M484,165.89c-3.13-.37-7.41.68-10.31-.19-3.54-1.06-2.38-6.17-3.93-7.57-1.24-1.12-16.01-2.74-17.27-1.23-4.42,5.33-.01,12.87-15.08,8.06-1.16-1.61,1.57-10.41,2.3-12.85,2.88-9.64,7.72-25.64,11.49-34.51,3.22-7.57,16.28-5.7,20.65-.07l12.14,48.35ZM467,146.89c1.23-1.25-2.81-15.33-3.94-17.56-.73-1.44-.93-2.84-3.05-2.44l-5,19.99h12Z" fill="#fff"/>
  <path d="M323.17,166.72l-3.3-8.69c-10.5,1.18-18.26-6.76-19.47,7.97-2.55.93-10.28,2.17-11.27-.75l13.97-51.25,18.5.8c1.51,1.2,10.17,32.52,11.1,36.9,2.33,10.93,5.54,16.91-9.54,15.03ZM318,147.89c0-2.83-3.77-21.96-5.5-21.97l-7.44,20.41c.68,2.84,10.48,1.14,12.95,1.57Z" fill="#fff"/>
  <path d="M190.59,141.52c-1.62,2.27-6.08,4.87-8.77,5.69-3.55,1.07-13.15,1.19-14.84,2.16-3.34,1.93-1.53,12.89-1.99,16.51l-13,.58-.5-51.58c2.4-4.07,24.63-2.88,29.55-1.53,13.63,3.74,17.66,16.77,9.55,28.17ZM177.74,135.63c9.44-8.77-10.86-20.98-12.68-9.17-.29,1.86-.44,9.34.37,10.49,1.58,2.25,10.55.31,12.31-1.32Z" fill="#fff"/>
  <path d="M434.76,41.15c41.8-6.13,45.63,63.5-2.15,57.63-29.53-3.63-27.05-53.34,2.15-57.63ZM432.32,84.57c5.16,4.34,13.17,2.26,16.68-3.17,4.77-7.39,2.14-25.24-7.97-27.12-14.15-2.63-18.18,22.34-8.72,30.29Z" fill="#fff"/>
  <path d="M78.14,81.03l-1.08,16.42c-2.92.36-13.96,1.72-14.92-1.2l.99-53.22c17.54-4.06,49.09-6.35,45.77,20.28-1.98,15.93-18.28,15.88-30.77,17.73ZM78,68.89c8,1.75,19.49-4.64,15.26-13.76-1.97-4.24-12.03-4.46-15.26-1.74v15.5Z" fill="#fff"/>
  <path d="M354,44.39c.46-1.49,9.26-2.39,11.46-2.54,10.34-.7,22.34-.54,30.57,6.52,18.03,15.48,3.15,49.52-19.52,49.52h-21l-1.5-1.5v-52ZM369,84.89c25.26,2.64,26.11-33.67,0-28v28Z" fill="#fff"/>
  <path d="M250,114.39c.72-2.33,13.04-2.5,14.34.73l-.34,38.77h15.5c2.4,2.51,2.4,9.49,0,12h-28l-1.5-1.5v-50Z" fill="#fff"/>
  <path d="M332.68,322.2c2.65,2.98,1.84,9.17,3.29,10.25,15.69-5.8,21.75,17.95,5.54,19.47-3.09.29-6.97-1.21-8.78-.83-3.42.71-4.51,4.71-11.15,3.75-6.24-.9-3.76-6.12-6.2-6.9-2.51-.12-4.55,1.58-6.97,1.86-22.91,2.66-16-29.58,3.02-19.96,2.52-1.74.87-4.74,2.49-7.53,3.39-5.83,14.59-4.8,18.76-.12Z" fill="#fff"/>
  <path d="M271.14,288.75l12.85,1.15c.57,4.55-8.18,7.45-8.9,9.67-.76,2.35,4.21,13.31-3.15,10.9-2.73-.9-5.27-5.62-7.28-5.44-4.21,2.08-7.39,6.53-12.67,5.86-.82-4.97,1.11-8.55,3.74-12.53-.09-3.23-22.47-12.88,5.32-9.99,2.86-1.28,2-9.17,6.43-9.53,3.96-.02,1.72,7.51,3.65,9.9Z" fill="#fff"/>
  <path d="M552.18,275.71c.86,1.03,10.16,1.26,10.77,2.25,2.36,3.77-5.8,3.7-6.79,6.6-.73,2.12.34,9.84-.17,10.34-5.04.74-7.31-3.13-10.63-5.93-2.3-.4-5.4,7.33-9.42,4.49-3.98-2.81,3.03-8.54,3.03-9.06,0-.86-6.96-5.04-4.97-8.5,2.03-.44,7.62.69,8.87-.14.45-.3,2.45-8.1,5.63-8.85,2.82,1.27,3.01,7.99,3.68,8.8Z" fill="#fff"/>
  <path d="M132,64.89v32h-14c.96-10.65-1.59-21.78,0-32h14Z" fill="#fff"/>
  <path d="M115.26,366.62c-1.04-1.08-1.05-4.17-2.87-4.62-3.38.76-6.87,3.09-10.39,1.38-5.52-4.87,2.3-9.13,6.99-9.51.67-.94-5.09-10.66-.39-12.94,6.29-.18,5.72,5.49,9,8.83,14.49-6.52,15.29,5.59,2.42,7.61,2.23,3.3,5.42,9.98-.33,11.34-1.19-.71-3.58-1.21-4.42-2.09Z" fill="#fff"/>
  <path d="M313.36,426.53c-5.54-6.19-5.27-16.95,4.88-15.44,3.63.54,4.86,3.53,8.24,3.89,2.93-.29,3.58-7.61,11.26-4.32,10.6,4.53-4.85,22.52-9.31,27.22-1.19.28-13.62-9.73-15.07-11.34Z" fill="#fff"/>
  <path d="M125.67,42.22c9.28-.16,10.95,15.7-.18,15.68s-10.49-15.5.18-15.68Z" fill="#fff"/>
  <path d="M176.99,719.88c-18.84,4.52-38.93,1.97-54.47-10.02-1.43-1.1-7.22-8.19-8.51-6.98-1.14,6.39-16.14,22.11-22.74,19.35-9.03-3.77,4.27-19.53,9.71-21.85.07-1.93-19.73-9.2-16.82-18.79,9.96-10.21,20.97,5.79,28.3,11.35,3.31-.52,5.09-5.18,7.32-7.06,14.36-12.12,33.63-20.28,52.56-20.85,3.51,1.75.08,3.5-.85,5.85-4.69,11.87-4.83,26.32-.28,38.3.66,1.73,6.23,10.28,5.79,10.7ZM159.99,674.9c-7.64-.29-11.03,8.56-7.41,14.92.76,1.33,3.18,2.75,3.36,3.71.26,1.43-6.04,5.21-3.48,13.42.98,3.14,8.01,8.92,9.06,3.94-7.99-2.43-9.99-7.75-4.51-14.53,1.08-1.34,4.22-1.21,2.97-3.94-.71-1.56-3.85-1.49-5.05-2.94-3.29-3.98-1.48-12.97,5.08-11.59v-2.99ZM144.99,679.9c-5.99-1.64-11.35,6.92-9.47,11.94.53,1.42,3.06,3.4,3.13,4.56.11,1.9-3.45,4.07-2.43,8.73.83,3.78,8.58,8.58,6.79,3.27-.15-.43-2.55-1.27-3.51-2.51-3.97-5.12,3.13-6.86,2.56-10.4-.11-.66-8.2-5.03-2.55-11.56,2.08-2.4,5.89-.7,5.47-4.02ZM127.99,702.88c-.15-2.63-2.51-3.24-2.04-6.44.35-2.44,3.81-3.45,3.03-6.56-5.62,1.28-7.37,11.67-.99,12.99Z" fill="#fff"/>
  <path d="M158,662.9c1.31,1.66-13.8,5.7-15.26,6.23-7.43,2.69-8.86,7.61-13.6-2.91,5.11-10.54,19.99-5.85,28.86-3.32Z" fill="#fff"/>
  <path d="M165,723.9c.65,8.18-20.57,16.64-17.82,5.76,2.31-9.12,11.33-3.93,17.82-5.76Z" fill="#fff"/>
  <path d="M192.01,699.9c1.05,5.77,8.98,3.93,12.97,3.48-2.46,5.2-20.51,17.03-24.94,15.05-2.03-.91-6.38-9.43-7.22-11.85-4.45-12.73-3.83-29.71,4.86-40.54,10.73-.1,25.77,6.27,29.81,16.88,5.36,14.05-.55,23.64-15.48,16.99ZM185.26,681.15c-4.44,12.39,12.54,8.43,3.09-1.07l-3.09,1.07Z" fill="#fff"/>
  <path d="M92,596.88c18.32,2.52,14.72,17.16-3,12.02-.89.86,5.52,9.01,1.75,12.76-1.79,1.78-8.23,1.56-10.53.58-2.94-1.26-1.65-6.93-5.21-6.34-.02,6.79-6.82,9.94-12.61,7.1-3.31-2.61.18-8.5-.41-12.09-.86-.96-10.24,7.65-13.49,1-3.75-7.66,8.33-10.2,5.51-13-18.57-.75-12.29-18.54,4.99-11.01.92-.87-10.27-13.95,1.5-15.02,9.74-.89,6.36,7.9,9.99,7.03,2.11-5.77,12.44-17.59,15.88-6.82,1.45,4.52-1.53,6.62-.38,10.34,2.31,1.34,12.76-4.49,14.83,2.18,2.3,7.44-5.09,7.69-8.82,11.29ZM74.67,585.26c-16.45.17-17.01,22.18-1.14,22.68,17.09.54,17.95-22.85,1.14-22.68Z" fill="#fff"/>
  <path d="M69,661.89c-13.31-.92-34.46-10.75-30.56-27.05,1.39-2.01,5.95-.45,8,.12,11.37,3.17,22.14,15,22.55,26.93Z" fill="#fff"/>
  <path d="M75,661.88c.17-10.17,16.39-26.82,26.51-26.08,4.01.29,3.74,1.69,3.07,5.13-2.4,12.41-17.48,21.68-29.58,20.95Z" fill="#fff"/>
  <path d="M72.99,657.89c-1.3,1.6-1.82-.11-2-1.49-.77-5.99.44-24.01,2.28-29.74.48-1.49.96-3.34,2.71-3.78l-3,35Z" fill="#fff"/>
  <path d="M465.62,629.52c-1.55,2.23-5.05,4.52-7.13,6.37-1.45,3.1,6.16,1.49,7.64,1.61,10.91.83,24.02,2.36,33.39,8.03,1.54.21,13.31-12.93,18.56-9.21,4.82,14.94-11.86,36.24-25.36,40.78-14.78,4.96-58.67,4.18-67.56-10.85-7.28-12.3.85-21.9,8.85-30.87-15.54-5.13-13.58-28.33-.69-35.69,20.39-11.64,47.28,8.27,32.32,29.83ZM438.72,612.03c-3.59,1-3.71,6.57,0,7.68,8.08,2.41,6.43-9.47,0-7.68ZM453,647.9c-6.1-.16-6.72,8.53-5.52,13.02,2.44,9.18,19.83,14.03,27.76,10.7,2.52-1.06,4.25-4.65,5.71-5.18,1.11-.41,4.42.68,6.52.48,11.14-1.04,15.6-14.45,2.53-15.02,13.02,8.64-1.96,17.1-10.98,10.46-1.98-1.46-1.25-4.02-4.01-3.46-.29,4.43,6.54,6.4.37,9.87-11.33,6.37-36.67-6.39-22.37-20.87Z" fill="#fff"/>
  <path d="M419.99,617.89l1,8.99c-2.99.21-16.32-2.14-17.02-4.7-2.54-9.28,11.3-3.2,16.02-4.29Z" fill="#fff"/>
  <path d="M426,633.88c-5.54.19-11.51-.81-14.98-5.5,6.32,1.4,12.22-2.04,14.98,5.5Z" fill="#fff"/>
  <path d="M303,624.89c1.35,1.35-5.6,18.77-6.68,19.03-13.24.69-26.23-1.75-39.33-3.04.95-3.41,1-17.97,3.65-18.88l42.36,2.89Z" fill="#fff"/>
  <path d="M338.73,638.61c-2.13,1.76-37.3,6.62-38.72,5.28l6.57-19.05c13.86.3,28.21-.44,41.42-4.94,1,1.36-7.46,17.23-9.26,18.72Z" fill="#fff"/>
  <path d="M181.99,618.89l-29.46-15.03c-2.99-5.86-2.59-12.62-2.52-18.97l31.09,15.41c1.96,2.43-1.91,14.21.89,18.58Z" fill="#fff"/>
  <path d="M440.74,726.15c.82.73,2.4,4.97,2.29,6.2-2.85,8.64-17.01,7.32-14.83-2.74,1.19-5.49,9.24-6.39,12.54-3.46Z" fill="#fff"/>
  <path d="M428.28,295.16c2.93-3.63,11.08-3,11.41,3.38.61,11.6-18.35,5.2-11.41-3.38Z" fill="#fff"/>
  <path d="M157,208.89c-3.84,2.13-4.32,11.66-8.55,12.05-4.82.45-6.65-8.92-8.94-12.04l-.66,16.34-4.15,1.5c-.85-.24-1.81-1.05-2.2-1.84-.89-1.84-.93-24.1,0-26,1.39-2.85,5.3-2.54,7.6-.59,2.75,2.33,5.08,11.34,7.4,14.58,5.23-5.26,6.21-21.07,16.5-14.5v27c-1.72,2.24-5.28,2.24-7,0v-16.5ZM138.5,206.89v1c.65-.33.65-.67,0-1Z"/>
  <path d="M357.64,219.52c.56-.41.85-1.55,1.34-2.15,7.78,3.85-1.49,9.55-6.92,10.07-18.73,1.79-22.11-24.43-6.05-30.04,4.51-1.57,16.65-1.57,16.07,4.97-.5,5.58-5.68.21-7.78-.28-19.55-4.57-14.02,30.33,3.35,17.43Z"/>
  <path d="M432.75,204.11c15.29-2.51,16.57,20.03,5.53,22.56-16.61,3.81-19.63-20.25-5.53-22.56ZM437.86,221.74c1.74-1.08,3.01-14.53-4.16-12.73-6.64,1.67-3.49,17.47,4.16,12.73Z"/>
  <path d="M371,217.9c.27,8.02,15.15.03,14,5.48-1.17,5.54-19.63,5.96-19.83-6.97-.23-14.66,18.81-15.8,20.79-4.96,1.87,10.25-8.39,5.41-14.95,6.45ZM379.85,210.05c-3.94-1.9-9.14-1.74-7.85,3.84h8.01l-.16-3.84Z"/>
  <path d="M311.74,204.1c13.77-1.11,15.91,23.35.78,23.62-13.89.25-14.37-22.53-.78-23.62ZM315.86,210.04c-9.49-3.61-11.12,13.1-2.42,11.88,5.1-.71,3.98-8.37,2.42-11.88Z"/>
  <path d="M243.86,216.75l-14.85,1.15c-.11,7.44,13.09,2.1,13.99,3-2.21,11.26-19.89,6.33-20.09-4.48-.3-16.07,23.06-15.83,20.96.34ZM239,213.88c-1.69-5.69-7.37-7.11-9.97-1.48.17,2.3,8.19,1.36,9.97,1.48Z"/>
  <path d="M178.65,204.24c13.16-.39,14.51,21.52,1.85,22.69-15.7,1.45-16.23-22.27-1.85-22.69ZM182.76,220.64c4.95-5-3.02-16.78-7.56-9.06-4.07,6.91,2.87,13.8,7.56,9.06Z"/>
  <path d="M279,206.39c.31-1.07,2.27-1.88,3.47-1.47l2.02,2.97c2.73-4.71,13.51-3.72,13.51,1.5v17.5c-10.1,2.15-.99-16.2-7.51-17.04-8.91-1.15-3.74,12.89-5.94,16.08-1.35,1.96-5.55.75-5.55-.55,0-4.2-.85-16.02,0-19Z"/>
  <path d="M220,209.88c-1.31,1.95-12.66-3.96-9.41,3.1,5.27,1.24,11.49,1.14,10.39,8.32-.9,5.88-7.31,6.5-12.26,5.37-3.42-.79-7.84-4.83-3.06-6.67,1.25-.23,7.43,5.92,9.35,1.38,1.75-4.13-8.16-3.21-10.06-6.17-5.91-9.18,14.22-15.72,15.07-5.34Z"/>
  <path d="M405,209.88c-1.65,2.39-9.26-4.24-9.99,1.5,3.78,3.85,11.57,1.64,11.1,9.01-.56,8.81-16.48,8.14-16.92,2.78-.68-8.27,9.1,3.96,11.8-2.78,0-3.6-12.96-.31-10.96-10.96,1.61-8.6,18.18-4.18,14.98.45Z"/>
  <path d="M262.99,209.88c-2.46.78-7.74-2.54-8.99.52-1.74,4.25,7.64,2.65,9.49,6.49,5.45,11.31-16.54,13.06-16.53,5.51,0-6.55,9.25,4.13,12.02-2.01-4.37-4.71-12.71-1.78-10.96-10.97,1.22-6.4,15.68-6.96,14.97.46Z"/>
  <path d="M416.99,204.9h4.02s-.15,3.85-.15,3.85l-4.75,1.26c-.04,3.18-.73,7.72.55,10.66s5.92.69,4.34,6.22c-14.61,1.55-8.88-9.86-11.15-16.38-.5-1.43-2.77-1.41-2.89-2.13-.58-3.25,2.26-2.8,3.1-4.17.99-1.62.45-5.51,2.54-6.24,6.12-2.12,3.94,6.48,4.39,6.93Z"/>
  <path d="M194,205.89l5,1.5v18c0,1.88-5,1.88-5,0v-19.5Z"/>
  <path d="M237.99,194.9c.58,4.28-1.65,6.57-5.99,5.99-.58-4.28,1.65-6.57,5.99-5.99Z"/>
  <path d="M197.98,202.88c-.58.38-2.98.13-3.5-.97l-.48-5.02,4.57.95c.84.85-.38,4.9-.59,5.04Z"/>
  <path d="M550.68,116.21c1.62,1.48,2.6,4.45,2.31,6.67-4.12-.44-3.03-6.56-7.53-7.01-5.24-.53-4.77,5.57-9.46,5.01-1.45-1.33,7.32-11.4,14.68-4.67Z"/>
  <path d="M521.99,116.88c-1.45,1.41-5.87-7.23-11.99-2.49-1.39,1.07-2.64,6.86-5,4.49-3.71-3.72,14.93-14.78,16.99-2Z"/>
  <path d="M536.99,129.89c-.57,10.11-17.74,9.59-15.49-1,4.74,8.13,9.46,7.17,15.49,1Z"/>
  <path d="M404,123.39c19.46-8.53,19.18,17.59,0,14.5v-14.5ZM414.85,125.04l-8.41.79-.43,10.07c6.79.17,12.57-3.73,8.85-10.86Z"/>
  <path d="M262.01,55.89c1.5-.28,2.27.33,2.79,1.7,1.59,4.2,1.46,12.4,4.03,17.02.16,3.66-11.3,2.86-11.65.81l4.83-19.53ZM266,74.88l-2.49-10.99c-1.7,1.04-3.95,10.57-3.5,10.99h5.99Z"/>
  <path d="M219.97,126.9c.76.63,4.31,18.2,3.95,19.34-.76,2.44-12.63,2.88-12.54-.42.13-4.76,4.9-13.69,5.68-18.89.26-.17,2.79-.13,2.91-.03ZM222,144.88l-3.99-13.98-4.01,13.98h8Z"/>
  <path d="M91,146.89c.06-3.19,4.22-20.95,6.5-20.97l6.45,19.41c-.68,2.84-10.49,1.14-12.95,1.57ZM101,143.88c-1.92-3.14-1.07-8.74-3.99-10.98l-3.01,10.99h7Z"/>
  <path d="M467,146.89h-12s5-20,5-20c2.13-.41,2.33,1,3.05,2.44,1.13,2.24,5.17,16.32,3.94,17.56ZM458,144.88c1.66-.03,6.38.66,6.76-1.45l-2.78-11.54-3.98,12.99Z"/>
  <path d="M318,147.89c-2.47-.43-12.27,1.27-12.95-1.57l7.44-20.41c1.73,0,5.49,19.15,5.5,21.97ZM316,145.88l-3.99-13.98-4.01,13.98h8Z"/>
  <path d="M177.74,135.63c-1.76,1.64-10.73,3.57-12.31,1.32-.81-1.15-.65-8.64-.37-10.49,1.81-11.81,22.11.4,12.68,9.17ZM176.85,126.03l-8.86-1.15v11.01c2.86.12,5.84-.57,8.1-2.41l.76-7.45Z"/>
  <path d="M432.32,84.57c-9.46-7.95-5.43-32.92,8.72-30.29,10.11,1.88,12.74,19.73,7.97,27.12-3.51,5.44-11.52,7.51-16.68,3.17ZM437.76,57.08c-10.5,1.82-10.07,24.57-1.04,26.6,17.69,3.97,15.29-29.06,1.04-26.6Z"/>
  <path d="M78,68.89v-15.5c3.23-2.72,13.29-2.51,15.26,1.74,4.24,9.13-7.26,15.51-15.26,13.76ZM80,65.88c3.1,0,7.19.63,9.46-2.03,4.47-8.21-.31-11.19-8.47-9.97l-.99,12Z"/>
  <path d="M369,84.89v-28c26.11-5.67,25.26,30.64,0,28ZM372,82.89c18.01-.83,19.49-26.14,0-24v24Z"/>
  <path d="M159.99,674.9v2.99c-6.55-1.38-8.36,7.61-5.07,11.59,1.21,1.46,4.34,1.39,5.05,2.94,1.25,2.73-1.89,2.6-2.97,3.94-5.48,6.78-3.48,12.1,4.51,14.53-1.06,4.98-8.09-.8-9.06-3.94-2.55-8.21,3.74-11.99,3.48-13.42-.17-.96-2.6-2.38-3.36-3.71-3.61-6.36-.23-15.2,7.41-14.92Z"/>
  <path d="M144.99,679.9c.42,3.33-3.39,1.62-5.47,4.02-5.65,6.53,2.44,10.89,2.55,11.56.58,3.54-6.53,5.29-2.56,10.4.96,1.24,3.36,2.08,3.51,2.51,1.79,5.31-5.96.52-6.79-3.27-1.02-4.65,2.53-6.83,2.43-8.73-.07-1.16-2.59-3.14-3.13-4.56-1.88-5.02,3.48-13.58,9.47-11.94Z"/>
  <path d="M127.99,702.88c-6.37-1.33-4.63-11.71.99-12.99.78,3.11-2.68,4.12-3.03,6.56-.47,3.2,1.89,3.81,2.04,6.44Z"/>
  <path d="M185.26,681.15l3.09-1.07c9.44,9.5-7.53,13.46-3.09,1.07Z"/>
  <path d="M74.67,585.26c16.81-.18,15.96,23.22-1.14,22.68-15.88-.5-15.32-22.5,1.14-22.68ZM71.73,588.12c-13.95,2.85-6.86,22.37,8.02,16.01,8.81-3.76,5.65-18.81-8.02-16.01Z"/>
  <path d="M453,647.9c-14.3,14.48,11.05,27.23,22.37,20.87,6.17-3.47-.66-5.45-.37-9.87,2.76-.56,2.03,2,4.01,3.46,9.02,6.65,24-1.81,10.98-10.46,13.07.58,8.61,13.98-2.53,15.02-2.11.2-5.41-.89-6.52-.48-1.46.53-3.19,4.12-5.71,5.18-7.93,3.33-25.32-1.52-27.76-10.7-1.19-4.5-.57-13.18,5.52-13.02Z"/>
  <path d="M438.72,612.03c6.43-1.79,8.07,10.09,0,7.68-3.7-1.1-3.58-6.67,0-7.68Z"/>
  <path d="M138.5,206.89c.65.33.65.67,0,1v-1Z" fill="#fff"/>
  <path d="M437.86,221.74c-7.65,4.75-10.8-11.05-4.16-12.73,7.17-1.81,5.89,11.65,4.16,12.73Z" fill="#fff"/>
  <path d="M379.85,210.05l.16,3.84h-8.01c-1.29-5.58,3.91-5.73,7.85-3.84Z" fill="#fff"/>
  <path d="M315.86,210.04c1.56,3.51,2.68,11.17-2.42,11.88-8.7,1.21-7.07-15.49,2.42-11.88Z" fill="#fff"/>
  <path d="M239,213.88c-1.78-.12-9.8.82-9.97-1.48,2.6-5.63,8.28-4.2,9.97,1.48Z" fill="#fff"/>
  <path d="M182.76,220.64c-4.69,4.74-11.63-2.15-7.56-9.06,4.55-7.72,12.51,4.06,7.56,9.06Z" fill="#fff"/>
  <path d="M414.85,125.04c3.73,7.12-2.05,11.02-8.85,10.86l.43-10.07,8.41-.79Z" fill="#fff"/>
  <path d="M266,74.88h-5.99c-.45-.42,1.81-9.95,3.5-10.99l2.49,10.99Z" fill="#fff"/>
  <polygon points="222 144.88 214 144.88 218.01 130.9 222 144.88" fill="#fff"/>
  <path d="M101,143.88h-7s3.01-10.98,3.01-10.98c2.92,2.25,2.06,7.84,3.99,10.98Z" fill="#fff"/>
  <path d="M458,144.88l3.98-12.99,2.78,11.54c-.38,2.11-5.1,1.42-6.76,1.45Z" fill="#fff"/>
  <polygon points="316 145.88 308 145.88 312.01 131.9 316 145.88" fill="#fff"/>
  <path d="M176.85,126.03l-.76,7.45c-2.25,1.83-5.23,2.53-8.09,2.41v-11.01s8.85,1.15,8.85,1.15Z" fill="#fff"/>
  <path d="M437.76,57.08c14.25-2.47,16.65,30.57-1.04,26.6-9.03-2.03-9.46-24.78,1.04-26.6Z" fill="#fff"/>
  <path d="M80,65.88l.99-12c8.16-1.22,12.94,1.76,8.47,9.97-2.27,2.66-6.37,2.03-9.46,2.03Z" fill="#fff"/>
  <path d="M372,82.89v-24c19.49-2.14,18.01,23.17,0,24Z" fill="#fff"/>
  <path d="M71.73,588.12c13.67-2.79,16.83,12.25,8.02,16.01-14.88,6.36-21.97-13.16-8.02-16.01Z" fill="#fff"/>
</svg>