<?xml version="1.0" encoding="UTF-8"?>
<svg id="Camada_1" xmlns="http://www.w3.org/2000/svg" version="1.1" viewBox="0 0 595.28 841.89">
  <!-- Generator: Adobe Illustrator 29.0.0, SVG Export Plug-In . SVG Version: 2.1.0 Build 186)  -->
  <path d="M.14,841.29V-.06h595v841.34H.14ZM590.54,3.89H4.08v283.3c4.3-1.51,7.95-5.12,11.9-7.49,9.77-5.85,20.47-10.47,31.42-13.61-.58-6.21-.43-12.42-.59-18.66-.03-1.26-.66-2.53-.68-3.93-.11-9.4.34-19.75,10.44-23.46.79-3.79-2.82-18.43,3.1-18.99,3.75-.35,3.14,4.3,3.61,6.14.14.53,1.17.44,1.27.92.37,1.62.36,10.89.73,11.32,2.61.26,5,1.5,6.86,3.32,5.6,5.47,5.99,11.98,6.87,19.42.79,6.59.88,13.42,1.32,20.05,18.63.6,36.56,6.67,53.26,14.46v-11.5c0-12.39,16.19-22.88,24.01-30.55,28.91-28.32,40.69-69.02,74.29-94.65,57.84-44.11,160.99-35.5,180.09,44.05,1.85,7.7,6.93,12.25,7.62,21.96,1.18,16.62-3.07,21.43-10.53,34.37-7.35,12.75-1.51,17.28-4.27,29.76-3.87,17.49-13.38,20.13-22.69,31.87-7.8,9.85-1.71,17.12-1.33,27.92l26.14-14.28c7.55-3.15,14.97-6.36,22.82-8.73,13.64-4.13,26.78-6.38,41.1-6.56,1.43-10.87,1.67-22.3,3.39-33.09,1.04-6.54,2.79-15.76,8.22-20.05,2.28-1.8,6.12-2.08,8.66-3.49.26-5.19-.33-10.79,2.26-15.49,9.45-4.13,4.89,11.92,4.75,16.95,11.41,4.62,10.42,16.95,9.55,27.24-.91,10.63-2.87,21.29-3.95,31.88,9.4.77,18.3,4.36,27.22,7.14l15.88-26.82c1.79-1.98,4.03-3.27,6.77-2.57,3.18,12.6-2.61,24.83-3.76,37.28,14.05,6.05,27.78,12.88,40.67,21.13V3.89ZM398.99,159.23c-35.34-52.07-116.82-52.69-163.78-16.63-31,23.8-43.78,58.49-68.33,86.81-4.62,5.33-7.51,7.59-12.26,12.06-12.29,11.59-19.48,17.38-16.98,36.1,1.04,7.77,4.35,12.83,7.1,19.34s4.36,13.06,1.69,19.85c-1.23,3.14-4.63,4.91-6.38,8.09-3.99,7.23-3.32,16.46.8,23.47,6.21-7.33,11.37-15.37,18.95-21.45-4.41-8.7-6.54-15.48-5.84-25.57,1.19-16.99,15.81-25.8,25.93-37.18,21.59-24.27,34.88-54.46,53.5-80.6,29.31-41.14,91.56-49.09,136.42-31.57,13.57,5.3,27.2,14.87,36.32,26.13,1.72.13.66-.28.5-1.15-1.05-5.6-4.44-12.97-7.64-17.69ZM409.33,189c-26.26-41.28-84.32-50.02-128.31-35.44-38.17,12.65-47.92,38.07-67.87,69.04-1.26,1.96-1.91,4.74-3.92,6.41.02.89,6.49,3.27,7.71,3.45,15.67,2.44,31.42-8.72,40.15-20.67,4.03-5.52,7.16-10.93,8.08-17.88,1.43-1.21,12.98,2.62,15.55,3.05,27.81,4.69,63.96.32,80.36-25.2,4.67-.28,3.3,6.53,4.14,10.39,4.09,18.97,14,30.1,29.2,41.14,5.38,3.91,7.59,1.76,4.75,9.46-2.11,5.72-3.46,11.71-5.39,17.75-7.08,22.19-20.51,43.55-30.71,64.08-4.84,9.74-8.48,15.28-17.15,22.15-2.93,2.32-6.36,4.22-9.8,5.66l14.72,20.37c8.36-3.01,17.16-9.48,21.57-17.29.75-1.33,3.53-6.85,3.92-7.94,1.38-3.92,1.12-11.93-.06-15.89-.67-2.26-2.44-4.33-2.68-7.87-.37-5.42,2.93-10.68,6.24-14.78,7.01-8.69,14.72-11.89,19.75-23.61,4.61-10.73.58-18.57,2.57-28.35,1.52-7.46,8.19-13.28,11-19.89,5.94-13.96,3.97-25.92-3.81-38.16ZM363.32,190.97c-1.42-3.94-2.22-8.19-3.22-12.24-18.73,22.1-52,26.72-79.38,22.17-4.4-.73-8.6-2.32-12.98-3.11-2.57,10.25-9.29,19.65-17.09,26.65-1.65,1.48-3.92,1.37-5.11,4.09-2.81,6.38-3.91,27.35-3.49,34.69,3.28,56.78,70.18,88.3,113.53,48.05,13.65-12.67,24.85-36.87,31.98-53.83,3.81-9.07,5.25-19.01,8.41-28.32-9.51-6.34-19.83-13.66-25.82-23.64-2.11-3.52-5.56-10.94-6.84-14.5ZM61.28,219.48c.38-.5-.43-8.14-.65-9.53-.16-.98-.03-2.03-1.31-2.3.45,3.48.25,7.43.65,10.86.11.98.53,2,1.32.97ZM74.64,242.97c-1.5-9.45-1.1-21.6-14.35-20.2-4.66.49-5.31,2.26-7.58,5.42-.33.46-1.08.57-1.29.96-2.22,4.24-1.55,22.32-1.32,28.11.27,6.64,1.29,13.36,2.61,19.19,1.6,7.03-.75,14.22,4.64,20.89,6.13,7.6,17.75,2.26,19.55-6.06,1.08-5.02.15-8.43.13-12.96-.06-12.16-.58-23.98-2.39-35.37ZM228.6,235.92c-3.98.62-9.32-.46-13.48,0-.48,7.34,1.73,15.68,9.69,17.59,1.64.39,4.79-.49,5.36,1.21,1.05,3.12-1.42,1.75-1.93,2.65-1.53,2.71-1.54,16-1.28,19.62,1.41,19.6,12.51,36.75,26.6,49.65,19.43,17.78,44,23.49,69.62,16.99,16.33-4.14,31.89-15.85,37.23-32.12-6.56,6.25-13.79,11.82-22.11,15.68-36.23,16.82-80.73-3.49-94.76-39.83-5.79-15.02-5.74-29.3-4.09-45.19.39-3.81,1.57-7.69,1.96-11.51-3.63,1.24-9.2,4.69-12.82,5.25ZM495.2,243.8l.65-11.82c-.95.1-1.13,2.89-1.23,3.69-.27,2.11-.61,5.08-.74,7.16-.08,1.31.15,1.03,1.32.97ZM214.24,249.28c-1.22-1.81-2.4-2.1-2.9-5.3s1.38-9.81-2.62-10.58c-3.18-.61-3.73,3.57-5.26,5.66-6.66,9.07-13.27,18.65-20.87,27.1-9.4,10.45-23.14,19.16-24.66,34.51-.81,8.22,1.06,15.73,3.98,23.29.7.19,1.31.04,1.93-.29,3.11-1.67,7.27-5.71,10.72-7.69,19.64-11.27,39.03-14.59,45.63-39.83,1.67-6.39,2.39-12.98,3.53-19.47-5.05-1.48-6.74-3.34-9.49-7.41ZM502.02,254.09c-1.59-2.85-.97-3.81-4.69-5.51-10.14-4.64-14.11,2.48-17.32,10.47-4.07,10.13-6.87,43.76-5.87,55.44.19,2.21.76,4.83,1.74,6.81,2.67,5.41,11.39,6.18,16.26,3.25,6.14-3.69,7.8-24.06,8.89-31.21s2.97-15.92,3.36-22.93c.37-6.66.72-10.75-2.38-16.33ZM81.01,265.49v25.31c0,1.06-2.83,7.1-3.65,8.18-1.68,2.19-5.42,2.91-5.6,4.28.31,7.27,1.45,14.49,2.01,21.72.49,6.31-.63,14.99,2.03,20.32l3.24,54.93,7.27-42.88c6.48-20.15,11.22-45.98,26.27-62.6,7.12-7.87,5.46,10.16,5.23,14.44-1.71,31.53-9.76,62.59-14.92,93.54-1.71,10.22-3.17,20.78-5.44,30.17-.37,1.55.21,3.78-.01,5.46,1.35.28,1.53-.67,2.1-1.51,3.66-5.42,6.91-15.38,9.79-21.62,7.87-17.04,15.96-34.8,24.27-51.6,1.87-3.77,3.07-7.9,5.66-11.36-1.78-4.69-5.1-7.86-5.65-13.48-1.46-15.07,10.12-19.45,9.9-29.58-.19-8.77-7.83-19.31-9.27-28.23-16.41-8.67-34.55-14.49-53.23-15.47ZM4.08,292.11v152.16c6.68-.63,13.35-.82,20.08-.69,2.08.04,15.29,1.99,15.4-.29-4.28-7.79-10.05-15.63-13.91-23.55-1.45-2.99-8.37-19.25-7.02-21.38,1.6-2.52,10.53,2.84,12.49,4.08,5.55,3.52,10.73,8.62,15.68,12.91-1.53-7-3.65-13.95-5.82-20.77-4.27-13.4-9.37-28.32-12.64-41.97s-5.04-28.05-3.27-41.5c4.36-3.15,12.03,10.32,13.96,13.11,11.74,16.93,18.81,35.9,25.63,55.22,1.07,3.04,1.98,7.05,2.54,10.26,1.14,0,.72-2.87.68-3.64-.9-17.09-2.05-35.56-4.68-51.85l-1.28-28.29c-.48-2.52-4.07-2.92-5.94-4.58-8.63-7.7-6.67-21.38-8.52-31.91-15.83,4.64-30.39,12.63-43.39,22.68ZM224.57,288.29c-.64-2.28-.58-4.77-1.22-7.04-.17-.61-.16-1.48-.99-1.29-1.5,8.22-7.38,15.49-13.47,21.05-1.55,1.42-3.65,2.37-4.94,3.92,8.76-1.48,17.45-1.75,26.29-1.31.53-.5-3.26-8.29-3.75-9.72-.55-1.59-1.65-4.64-1.93-5.61ZM495.86,459.73c.32,3.01-.23,6.46,0,9.53,1.87.32,1.08-.44,1.48-1.44,10.62-26.69,18.46-55.49,27.35-83.09,8.18-25.39,18.1-51.49,24.48-77.45.68-2.76,3.74-20.27,2.57-21.4-2.8-.64-1.72,1.17-2.59,2.16-5.05,5.72-9.77,14.88-13.37,21.69-20.78,39.22-33.58,81.65-45.78,123.92-.49,1.7-1.72,6.48-1.71,7.96.02,1.69,3.56,5.59,4.58,7.98,1.21,2.82,2.66,7.18,2.98,10.16ZM110.38,346.16c1.64-10,3.56-23.01,4.15-33.02.29-4.9-.19-9.88,0-14.78-3.07,3.48-6.52,7.86-8.66,12.04-16.64,32.72-24.89,89.37-26.21,126.29-.43,11.96,1.37,24.51,1.35,36.51,2.75-2.83,3.6-7.7,5.31-11.31,2.8-5.94,7.1-11.53,7.82-18.61,3.34-32.72,9.79-63.65,15.18-96.44.08-.49,1.03-.56,1.05-.68ZM470.88,303.62c-32.76-.17-63.11,13.16-90.05,30.59-3.03,14.58-13.73,26.47-27.66,31.55l23.04,41.7c1.92-1.12-1.19-4.23-1.25-4.47-1.19-4.38-1.88-12.22-2.07-16.86-.13-3.17-.35-14.81,1.65-16.81,4.34-4.34,10.44,6.42,13.09,8.62l3.03,5.86c2.28-7.27,6.49-16.06,13.61-19.6,2.15-1.07,5.84-2.27,7.92-.6,3.25,2.61.84,19.39-1.14,23.48,5.98-2.36,12.27-6.1,18.92-4.81,4.02,1.74-1.74,13.23-3.14,15.99,2.96-.12,6.1.39,8.91,1.28,5.38,1.72,9.13,7.04,14.76,5.29-.3-3.13-.88-6.25-1.51-9.33-3.93-19.29-13.48-42.28-23.58-59.25-1.21-2.03-7.06-7.92.27-6.87,17.65,2.53,36.65,33.46,42.5,48.38l5.98,18.52c1.76-17.81,2.17-35.71,3.3-53.56.2-3.11,2.22-12.43.7-14.52-.54-.74-2.19-1.26-3.03-2.23-1.31-1.52-4.25-6.43-4.25-8.24v-14.13ZM68.51,304.27h-2.62c.73,22.92,2.94,45.82,4.59,68.7,1.23,17.05.61,40.9,5.45,56.32.21.68.15,1.99,1.12,1.84l-8.54-126.86ZM225.65,306.9c-17.04-1.01-34.18,3.54-48.87,11.95-36.58,20.92-48.89,66.91-65.99,102.92-.36.76-1.37.77-1.5,1.26l.18,2.03c2.58,2.81,4.04,5.71,7.04,8.38,1.4,1.24,13.59,9.84,14.47,8.86-1.05-18.13-1.07-36.51,1.41-54.46l3.59.53c-1.48,22.5-3.36,45.58,1.11,67.88,4.17,20.77,16.63,45.4,28.48,62.9,3.78,5.57,9.17,11.02,13.14,16.54,1.11.06,2.03-.38,2.55-1.39,1.16-2.24,2.08-9.7,3.33-13.11,6.15-16.8,27.24-38.09,45.98-38.82,3.69-.14,6.69.78,10.21,1.33-11.88-14.38-25.77-26.7-37.12-41.44-.56-.73-1.73-.97-2.12-1.47-3.01-3.88-2.95-9.94-2.86-14.62.23-11.69,1.56-25.5,3.96-36.25,1.63-7.33,1.28-17.14,2.8-24.69.41-2.05,1.26-4.34,3.48-2.48-1.93,24.18-6.88,48.63-5.46,73.16,4.74,8.8,12.4,15.63,19.38,22.69,3.12-.16,6.65.55,9.62.54,6.85-.02,23.22-1.59,28.75-5.3,2.16-1.44,11.45-12.38,13.75-15.18,10.57-12.85,25.06-33.87,31.52-48.82,1.09-2.52,4.81-17.06,5.7-17.26.6-.13,1.75,0,2.28.34.49.33.58.72.59,1.29.03,1.51-2.55,9.21-3.24,11.26-2.74,8.15-7.03,15.58-11.09,23.09-2.04,3.78-5.81,7.19-5.33,11.65.39,3.59,7.51,17.34,9.63,21.26,3.73,6.89,9.3,13.87,13.36,20.38,3.32,5.32,6.14,11.1,9.29,16.53l3.88-.98c-.39-10.3-.34-20.29,5.61-29.11,2.45-3.63,9.58-9.92,13.46-12.18,2.63-1.53,12.54-4.78,13.59-5.81s2.75-5.38,3.85-7c2.12-3.12,4.36-6.1,6.74-9.02.23-1.2-7.5-16.3-8.76-18.64-7.7-14.27-16.52-28.59-26.25-41.46-1.23-1.63-4.99-8.17-6.3-8.82-2.68-1.34-7.48,1.48-10.39,2.11-8.04,1.74-17.22,3.4-25.44,2.82-5.8-.41-12.36-3-17.78-3.27-7.31-.37-12.65,1.77-20.66-.36-17.31-4.61-33.63-21.22-33.56-39.74ZM236.41,312.58c-2.14-2.55-3.03-6.55-7.48-5.68,1.08,21.95,23.26,39.05,44.7,37.46l-17.76-10.83c-7.32-6.32-13.27-13.59-19.47-20.95ZM525.83,322.42c.89-1.78,4.65-7.24,2.91-8.61l-25.64-6.9c1.06,2.54-1.17,3.35-1.29,3.76-.28.96.07,2.29-.32,3.51-2.11,6.62-4.25,13.62-12.22,14.73l-.54.78c-2.26,27.13-3.86,54.25-5.37,81.4-.26,4.7-1.94,11.74-1.01,16.15.58,2.75,2.92,4.91,3,7.85,1.45.23,1.05,0,1.46-.83,1.52-3.03,2.12-10.03,3.2-13.76,9.66-33.41,20.19-66.83,35.82-98.06ZM29.51,316.32c-.67-.57-1.5-.99-2.42-.87l1.33,20.57c6.47,25.64,12.29,53.4,21.87,78.81,3.6,9.53,8.97,15,14.24,23.38,3.75,5.96,6.34,12.7,9.96,18.67.25.41,1.34,1.78,1.89,1.86-.84-2.88-.08-7.6-.67-10.06-2.66-11.19-3.83-24.12-6.08-36.09-5.05-26.78-20.03-70.68-36.75-92.09-.73-.93-2.72-3.6-3.39-4.17ZM590.54,444.28v-98.92c-12.73-9.79-27.86-17.21-42.73-23.33-3.43,12.96-6.61,26.11-10.59,38.91-3.59,11.54-9.11,24.47-12.78,35.97-3.53,11.04-6.28,22.35-10.14,33.28-.05,1.7.08,1.55.79.13,2.15-4.26,4.64-9.22,7.18-13.2,8.36-13.06,23.94-33.56,36.39-42.5,1.2-.86,7.49-4.82,8.49-4.57,1.71,1.32,1.14,4.69.86,6.69-1.82,13.3-14.38,37.52-20.39,49.97-2.69,5.57-5.33,11.2-7.71,16.91,3.09.47,9.64,1.58,12.21.05,1.35-.81,5.93-9.28,7.51-11.37,1.75-2.31,4.67-5.87,6.6-8.05,1.57-1.78,3.88-4.65,6.19-4.98,3.46.29,2.54,10.53,2.33,13.5s-1.72,7.43-1.7,10.17c0,.76.05.86.72,1.35h16.77ZM479.91,417.87c1.28-26.8,3.78-53.53,4.78-80.39.06-1.62,1.87-7.52-.34-8.22-1.21-.38-2.19.37-2.29,1.64l-1.92,34.22c-2.01,13.77-3.6,30.09-4.02,44.63-.12,4.01-1.02,9.75,2.65,12.19-.12-1.75-.42-2.47,1.33-2.96l-1.32-.98,1.14-.13ZM456.85,362.33c-4.79-8.05-14.93-20.25-22.88-25.43-1.66-1.08-3.9-1.77-5.5-3.05-1.35-.42,3.26,7.37,3.64,8.04,8.39,14.52,14.48,30.18,18.59,46.63,1.33,5.33,2.4,10.79,3.17,16.22l5.99,1.57,13.65,8.37c.01-2.03.11-4.04-.17-6.07-1.73-12.67-9.9-35.21-16.49-46.29ZM410.17,379.01c.5-2.22,1.63-10.85.59-12.33-6.81-2.38-13.03,7.69-15.34,13.01-1.54,3.56-2.71,7.59-3.78,11.34-3.83,2.57-3.46-4-4.32-6.04-.22-.53-.96-.57-1.18-1.06-2.06-4.49-3.96-9.5-8.61-11.96-1.65,12.45.07,25.39,3.29,37.46,6.85-3.8,14.1-7.04,22.03-7.87,6.54-.69,6.53-.23,12.95-2.17,1.87-.57,6.64-1.23,7.57-1.97,1.46-1.17,5.89-11.69,4.78-12.95-5.64.83-9.9,2.31-14.68,5.37-2.23,1.43-2.93,4.01-6.36,3.18-.48-.47,1.67-11.66,2.02-13.31.1-.49,1.01-.54,1.04-.69ZM560.68,389.47c1.67-4.65,4.23-9.98,3.89-14.86-6.29,3.78-9.93,8.39-14.77,13.5-21,22.18-36.04,47.81-47.98,75.74-.63,1.46-3.2,8.12-3.18,9.17.02,1.91,10.65,9.1,11.36,12.67,5.86-7.33,9.95-15.71,14.78-23.82,13.72-23.01,26.83-47.16,35.89-72.4ZM64.32,443.86c-4.99-8.14-12.88-19.12-19.46-26.22-6.27-6.76-14.91-12.48-23.02-16.74-.58.7,5.46,15.03,6.38,16.92,6.24,12.73,15.25,24.32,22.64,36.55l25.53,31.66c1.13.89,2.64-5.02,2.67-5.95.26-7.93-3.16-14.57-6.49-21.13-2.56-5.03-5.3-10.28-8.25-15.09ZM479.86,430.03c-4.91-8.2-16.59-21.64-27.06-21.95-2.76-.08-5.89,1.33-8.42.56-.84-.25-3.07-2.62-4.46-3.42-8.4-4.83-19.94-6.21-27.93.24-4.1,3.31-4.22,7.34.13,10.46,7.79,5.59,9.5.89,15.99-.92,5.8-1.61,1.02,4.92,1.35,7.92-.05,6.56,9.28,12.53,15.25,12.02,5.34-.46,7.88-7.01,12.36-4.13.56,1.83-1.19,1.52-1.31,2.08-.2.96-.21,3.41.01,4.35.11.47.99.49,1.23.98,4.71,9.83,10.26,7.1,19.79,6.71.94.95-4.35,15.71-5.08,18.26-2.67,9.35-6.85,21.9-7.45,31.34-.08,1.21.07,2.44.02,3.64,6.2-.66,10.68,2.4,11.85,8.54,2.26,1.68,10.01-11.45,10.87-13.11,8.14-15.89,7.46-30.97.21-46.93-2.28-5.01-4.6-12.01-7.37-16.64ZM407.1,404.85c-12.13.36-24,5.94-32.14,14.85-3.54,3.87-4.67,7.86-7.41,11.65-3.05,4.22-5.16,2.93-9.09,4.72-36.28,16.55-28.81,56.51-.23,76.45,18.96,13.23,43.03,19.47,66,15.59,1.91-.32,15.8-3.72,16.33-4.38.4-.5-.6-4.84,2.37-3.87.49.16,3.61,6.13,6.91,7.55,8.38,3.61,22.44-5.37,23.61-14.51,1.26-9.84-5.47-11.72-13.76-11.78,2.18-11.78,3.92-23.8,7.3-35.29.14-.49,1.03-.54,1.19-1.04,1.57-5.16,2.71-10.47,4.63-15.53-.43-1.79-7.46-.83-9.44-1.09-5-.67-11.89-6.83-10.91-12.43-5.23,2.14-8.12,3.59-13.79,1.63-7.9-2.74-13.44-8.58-12.51-17.41-10.7,5.66-24.97-2.31-19.06-15.11ZM276.6,443.62c8.4-.39,16.91.29,25.31,0-3.29-7.3-6.71-14.66-11.17-21.03-3.82,7.76-9.93,13.92-15.12,20.71-.16,2.01.68.33.98.32ZM560.71,479.55c5.63-17.56,9.9-37.19,10.1-55.64l-11.18,14.31c-20.88,30.98-37.22,65.33-46.91,101.44-3.39,12.63-5.04,25.91-7.65,38.71,4.02.66,7.64,2.67,11.41,4.07.69.26.66.96,1.41-.12,1.84-6.57,4.2-12.98,6.97-19.19,12.16-27.35,26.67-54.9,35.86-83.57ZM109.53,430.22c-.89-.8-.79-2.24-2.86-1.7-.92,4.52-7.3,13.02-6.48,17.24,1.57,8.11,20.8,19.37,28.17,22.49,1.25.53,8.76,3.38,9.18,2.98-1.75-5.19-2.6-10.64-4-15.92-.13-.5-1.1-.48-1.23-.98-.48-1.86-.07-6.49-1.01-8.08-.39-.67-11.39-6.08-13.43-7.61-3.13-2.36-5.44-5.81-8.34-8.42ZM41.23,446.91H4.08v390.44h46.02c-12.66-20.42-19.94-42.85-18.44-67.4.31-5.05,3.7-16.29,3.3-19.63-.21-1.75-3.98-8.58-5.06-10.73-4.72-9.37-9.84-19.62-10.09-30.74-.23-10.19,3.16-11.17,11.43-6.79,2.19,1.16,8.01,5.43,9.98,7.11s8.56,9.81,9.86,9.88c17.38-22.1,48.58-37.87,66.86-7.04.85,1.44,3.49,6.04,4.01,7.19,1.65,3.68,2.2,7.94,3.77,11.66,1.51.38,1.08-.29,1.49-.83,3.35-4.3,5.42-7.04,9.66-10.68,7.37-6.34,29.59-20.52,39.14-19.43,4.78.54,1.06,10.44-.04,13.82-1.95,5.97-5.39,11.25-7.53,17.12,20.09-8.39,44.75-11.9,65.07-2.29,26.15,12.36,8.62,32.99-7.57,44.33-10.11,7.08-22.96,12.75-34.49,17.12-.31,1.51.16,1.05.84,1.47,2.84,1.78,7.57,3.05,10.66,5.1,12.58,8.36,19.75,22.55,4.23,32.47l-17.03,8.28h400.39v-390.44l-18.4.66c.88,2.1-1.21,2.74-1.3,3.08-5.96,24.08-11.33,42.83-20.76,65.91-3.79,9.27-10.32,19.43-12.78,29.28-.09.36-.19,1.07.31.97,3.33-3.88,5.84-8.63,9.18-12.51,7.04-8.19,20.24-21.19,29.74-26.13,1.63-.85,3.2-2.19,4.83-.35.88,10.5-1.11,20.89-3.75,30.99-3.85,14.73-10.91,28.43-18.52,41.27-1,1.68-1.51,3.63-2.72,5.19,5.91-1.69,11.78-7.43,18.09-6.95,4.82.37,2.68,3.69,1.79,7.11-3.45,13.25-17.07,36.29-25.81,47.16-2.18,2.71-10.96,10.39-11.83,13.16-.52,1.66.58.6,1.12.46,10.08-2.49,17.18-4.52,27.96-2.61,10.73,1.9.87,4.29-2.56,7.95-1.34,2.67-8.01,8.01-6.5,10.95.82,1.6,3.54,2.18,4.77,6.43,4.01,13.83-2.28,35.94-7.21,48.94-1.79,4.71-4.05,9.22-5.76,13.96,4.49-.21,8.84-2.5,13.57-2.86,5.29-.4,12.05-.17,11.26,6.64-1.16,9.93-16.51,25-24.22,31.01-2.04,1.59-4.87,3.09-7.17,4.34-1.08,1.56,5.05,3.22,6.26,3.92,10.58,6.14,23.13,20.54,5.92,27.64-14.51,5.98-39.67,5.94-55.24,4.58-2.44-.21-14.33-2.69-15.07-2.51-.69.17-2.6,3.66-3.98,4.51-13.17,8.02-51.51,7.1-65.61,1.14-3.35-1.42-5.67-2.71-5.81-6.74-.06-1.57,1.4-4.39-.35-4.88-9.38,1.41-18.73,1.42-28.18.61-14.3-1.23-61.03-7.3-45.59-31.11,2.34-3.61,10.83-9.95,14.8-12.15,13.65-7.57,31.58-10.56,46.89-7.35.56-.52-5.98-10.05-6.69-11.38-2.08-3.94-6.6-13.9-7.05-17.93-.74-6.66.5-12.75,5.62-17.25,5.61-4.93,15.8-3.76,22.71-2.54,10.64,1.89,21.25,6.92,30.1,12.95-1.69-9.96-3.34-19.01-1.88-29.17.88-6.1,3.22-13.49,7.79-17.85,7.36-7.02,21.67-.32,29.26,3.64,1.55-2.55,2.67-5.68,4.4-8.11,4.77-6.71,15.21-6.85,22.23-9.33,6.26-2.21,18.38-9.35,9.84-16.38-4.74-3.9-17.91-8.48-17.03-15.75.81-6.73,14.32-11.1,19.5-14.08,3.2-1.84,11.5-8.12,9.42-12.12-.07-.13-1.72-1.69-2.06-2.02-10.08-9.59-28.4-13.26-41.9-14.15-3.99,9.96-7.67,21.2-13.93,30.29-39.86,57.92-156.85,73.24-220.24,58.05-15.2-3.64-33.34-11.09-42.85-23.87l-.85-.22c-19.82,4.59-40.25,4.28-60.49,3.35-.84.12-3.35,3.01-3.61,3.63-.72,1.72,2.94.44,3.28,1.97.19.86-.78,1.46-1.34,1.98-11.7-1.69-23.78-4.94-35.81-5.6-18.95-1.04-47.59.91-63.38,12.21-1.36.97-8.25,7.9-9.26,6.84-.75-3.32,3.81-7.26,6.35-9.09,6.61-4.75,15.58-7.14,23.24-9.64-.02-1.07-7.21-6.8-8.61-7.82-1.23-.89-7.51-5.33-8.3-5.51-2.26-.51-8.5-.35-11.03-.13-2.11.18-11.74,3.07-12.17,2.61-.18-.2-.05-2.12.3-2.65,1.46-2.24,15.78-3.53,18.76-3.59-9.73-5.71-40.27-38.04-10.27-35.09,5.89.58,12.35,3,17.5,5.84-2.72-7.78-5.8-15.38-8.6-23.14-.16-.44-1.03-.51-1.35-1.44-1.33-3.87-3.75-13.41-1.46-16.67,1.21-1.72,3.35-1.21,4.18-2.78-4.66.67-7.07-1.15-8.87-5.26-3.18-7.24-2.28-26.85,1.53-33.97,8.07-15.09,22.3-1.28,30.36,6.04l7.89,10.18c-2.45-11.5-2-22.8.17-34.34.62-3.3,1.55-5.44,3.01-8.2-8.09-9.48-15.38-19.48-23-29.33-.68-.88-1.76-1.29-2.43-2.17-1.81-2.35-7.64-12.28-9.63-12.72ZM305.47,449.27c-.6-.61-.83-1.53-1.57-2.04-6.23.49-28.03-2.06-32.43.46-.44.25-6.31,6.56-7.02,7.45-2.17,2.73-6.83,10.54-7.2,13.86-.14,1.2-.27,2.4.29,3.54l27.66,21.7c3.86-.88,8.38-.5,12.12-1.64,4.82-1.47,11.69-7.08,16.85-9.45,3.04-1.39,6.81-2.71,10.1-3.39.65-.76-4.46-8.69-5.37-10.1-3.13-4.83-10.07-17-13.43-20.4ZM549.77,447.57c-4.7.43-9.24-1.46-13.63.83-3.2,6.36-6.37,12.94-10.02,19.05-3.23,5.41-7.14,11.58-10.76,17.03-1.77,2.66-3.8,1.92-2.65,6.39.4,1.56,1.43,1.42,1.75,2.22,3.92,9.87,3.57,26.66-9.96,27.52-.88,5.25-4.2,9.42-9.65,10.4-1.09,5.24-1.91,11.13-3.48,16.22-.28.92-1.22.89-1.51,1.83-2.42,7.89-4.7,15.83-6.98,23.75.24,1.76,9.54,2.09,11.81,2.48,1.64.28,6.1,2.31,6.79,1.14.69-1.3.03-2.88.32-4.17,1.1-4.94,2.88-11.37,4.13-17.01,6.73-30.16,16.34-60.1,31.56-86.8l12.28-20.87ZM98.56,450.41c-.57-.49-1.28-.8-2.04-.84l-.7.62c-5.81,14.08-12.79,27.07-16.59,41.93-1.93,7.53-3.14,16.13-4.77,22.94-.71,2.98,2.47,15.96,3.59,19.93,1.38,4.87,3.28,11.26,6.25,15.11.04-3,.89-6.15,1.88-8.95,2.87-8.12,8.6-19.67,14.58-26.21,1.07-1.18,4.34-4.86,5.6-4.97,4.04-.37,5.7,8.64,6.15,11.6,2.78,18.55,1.05,38.28-1.24,56.78,1.52.39,1.08-.29,1.5-.83,6.08-7.77,9.96-15.42,18.55-21.51,4.67-3.31,15.73-9.31,21.35-6.89.24.1,3.86,3.18,4,3.4.48.82,1.09,4.1,1.19,5.21.87,9.52-5.18,26.33-9,35.53-3.02,7.27-7.48,13.71-10.62,20.92,6.28-3.06,20.97-11.69,27.84-9.44,3.22,1.06-.93,11.42-1.9,13.69-.4.91-3.21,5.71-2.93,5.94,10.54,1.43,21.1.33,31.57-.97l-1.38-5.75c-7.03-12.82-10.09-29.33-11.8-44.06-10.27-8.86-12.21-19.07-6.02-31.16.59-1.15,2.49-3.19,2.65-3.99.37-1.85-3.21-4.22-4.49-5.77-10.94-13.18-21.15-29.77-28.47-45.18-1.71-3.6-2.96-8.42-4.57-12.17-12.69-3.02-26.33-10.11-35.71-19.19-1.37-1.33-3.09-4.56-4.45-5.73ZM257.2,458.74c-7.77,1.97-15.96,2.98-23.97,3.33-2.03.09-3.9-.49-5.64-.5-.89,0-1.5-.81-1.27.77,2.37,2.28,9.31,12.15,11.63,12.69,2.51.58,13.56-1.79,15.3-3.48,1.59-1.54,2.57-10.25,3.95-12.81ZM279.56,495.54c.33-1.29-.53-1.27-1.1-1.85-2.66-2.68-5.83-4.53-8.43-6.69-4.93-4.1-9.54-8.52-14.98-12.01l-13.62,3.8c4.84,11.12,17.31,11.64,24.34,20.39l13.79-3.64ZM502.87,505.62c1.72,3.94,1.44,17.51,7.46,8.67,7.28-10.69-3.29-32.57-14.46-37.8l-3.21,15.33c4.54,3.52,6.56,7.76,8.94,12.76.32.68,1.18.82,1.28,1.04ZM445.23,527.77l-4.09-1.19c-32.78,15.54-90.2-.55-105.38-34.31-.81-1.8-3.09-10.11-4.03-10.44-6.56-1.23-10.66,5.84-12.27,11.23-.82,2.75-.58,5.68-1.14,7.95-.13.51-1.16.43-1.28.91-.48,2,.29,5.22,0,7.43,28.95,3.93,61.24,16.49,82.86,36.46,1.36,1.26,1.89,3.35,3.72,4.2,1.88.44,17.74-7.26,20.6-8.74,6.33-3.3,14.31-7.97,20.15-12.04.57-.39,1.23.11.86-1.45ZM318.08,488.72c.45-.8,1.85-2.85,1.26-3.68-7.15,2.62-13.15,8.12-20.36,10.54-3.31,1.11-30.56,4.7-30.58,6.88,5.09,5.75,8.09,12.12,8.18,20.08,6.44,3.03,12.81,6.21,18.71,10.22,7.57,5.15,17.28,13.46,23.07,20.5,4.66,5.66,7.69,12.71,12.44,18.21l11.21-2.62c-.79-.78-1.8-1.17-2.52-2.07-14.73-18.42-34.41-55.28-21.4-78.05ZM271.29,514.35c-5.84-14.14-16-20.82-29.87-26.36-14.86-5.93-30.86,4.68-41.11,14.77-4.29,4.22-2.4,6.34.8,11.03,7.07,10.36,16.47,13.41,25.22,20.84,3.69,3.14,11.31,15.09,17.05,12.51s-1.95-14.2-4.59-17.08c-2.84-3.09-8.6-5.11-9.19-9.53,1.91-1.85,11.68,7.75,13.13,9.54,2.15,2.66,5.08,7.77,6.55,10.66,1.01,1.98-.57,4.77,4.9,4.09,9.56-1.18-.84-18.88-4.21-22.66-1.36-1.53-10.56-7.47-8.54-9.53,4.22.17,9.26,5.03,11.82,8.23,1.94,2.42,5.95,8.78,7.2,11.35.49,1,1.21,5.3,1.71,5.43,8.79-1.14,4.04-13.71.84-18.64-1.49-2.3-4.48-5.26-6.46-7.35-1.68-1.77-4.64-2.18-3.94-5.59,9.02,1.55,13.48,12.32,17.48,19.67,4.1-.18,3.2-7.34,2.29-10.17-.32-1-1.02-1.06-1.08-1.22ZM489.95,525.11c3.2.87,4.28,3.99,7.56,1.33,7.63-6.18,1.18-26.92-6.58-31.58-1.78-.01-5.48,7.71-6.79,9.45,3.07,4.2,4.29,8.25,5.86,13.07.15.45,1.13.49,1.24.98.19.86.23,4.23.03,5.02-.17.63-1.96.11-1.32,1.73ZM481.85,507.46c-.43.04-4.53,2.19-4.73,2.54-.24.42-1.72,9.03-1.65,9.51.6,4.22,13.2,12.84,11.77-.55-.21-1.99-3.46-11.68-5.39-11.5ZM195.99,510.74c-1.96-1.26-3.53,3.75-4.55,5.34-.32.49-1.06.56-1.48,1.33-.96,1.79-5.81,13.51-5.07,14.28l19.06-9.54c.26-1.08-3.26-3.17-4.22-4.31-1.3-1.55-3.4-6.89-3.74-7.1ZM571.86,546.57c4.12-11.51,6.43-23.67,6.83-35.91-16.43,9.94-29.95,25.43-40.87,41-.49.69-1.43.93-1.86,1.57-2.3,3.37-17.35,29.56-15.77,31.68,15.32,6.9,10.93,15.64-1.11,22.91-3.05,1.85-6.74,2.99-9.76,4.7-2.21,1.25-8.99,5.11-8.86,7.52.15,2.89,12.96,11.91,14.42,10.86,1.31-2.99,3.29-6.31,5.16-8.98,4.43-6.3,10.76-14.26,16.16-19.67,3.9-3.9,9.94-7.69,13.48-11.83,7.22-8.47,18.41-33.32,22.19-43.86ZM398.98,549.68c-15.73-16.42-44.62-29.31-66.71-34.21-1.9-.42-13.33-2.77-13.93-2.18,1.22,10.14,4.85,21.69,9.68,30.72.42.78,1.23.88,1.48,1.32,4.72,8.33,9.37,15.87,15.97,22.75,18.8-3.6,37.07-9.58,55.05-16.01.09-.12-1.23-2.06-1.55-2.39ZM74.68,543.95c-5.46-10.05-11.19-19.42-20.8-26.21-2.98-2.1-8.05-4.88-11.64-3.42-9.05,3.66-9.33,27.62-6.43,35.29,2.24,5.91,9.33,2.98,10.26,6.22.65,3.36-4.11,4.64-6.34,6.24-1.37,2.4,1.03,3.3,1.12,3.65,7.45,26.93,18.68,47.48,35.45,69.61,3.32,4.38,4.37,9.98,10.94,8.12,1.46-1.33-.66-1.15-.96-1.79-1.23-2.64-2.06-9.42-2.98-12.68-7.65-27.02-18.97-56.27-30.39-81.99-.44-1-2.46-.96-1.39-3.34l1.85-.76c1.66,4.39,4.08,8.46,6.04,12.71,10.74,23.28,20.47,49.88,28.26,74.3,1.3,4.07,1.62,9.05,3.1,13.18l3.37.39c-.26-9.56,1.1-19.05.68-28.62-1.08-24.51-8.69-49.8-20.15-70.88ZM109.49,528.24c-.36-2.19-1.52-13.88-3.18-14.28-3.07,1.74-5.03,5.89-7,8.79-7.11,10.46-9.39,20.26-12.98,31.82-1.73,5.56.2,5,1.34,8.29,5.21,14.99,8.03,30.64,9.78,46.4,1.77.24,1.01-.13,1.32-.96,1.31-3.57,2.04-7.46,3.43-11.04,1.19-3.06,4.61-8.61,5.06-11.37,1.17-7.09,1.07-15.75,1.96-23.01.35-2.82,1.87-7.66,2.05-11.76.36-8.22-.58-15.51-1.79-22.88ZM481.38,528.44c-3.67-.64-6.28-2.88-8.2-5.93-.86,1.31-4.16,3.49-4.64,4.61-.3.7,3.2,12.55,1.69,15.1l10.44-10.92.71-2.86ZM207.05,541.37c.23-.18,3.67-4.15,3.79-4.42,1.14-2.65-.93-11.1-4.02-11.68-2.82-.53-14.86,7.08-17.98,8.74,5.13,3.14,5.64,7.71,7.56,12.82,2.42-2.48,8.6-3.83,10.65-5.45ZM310.2,549.69c-6.33-6.62-16.98-14.9-24.92-19.45-1.06-.61-8.85-4.3-9.36-4.24-.76.1-2.41,2.37-3.27,3.09-.66.55-2.02.51-2.2.72-.54.62.47,7.59-4.45,10.34-2.59,1.45-5.15.45-5.47,5.05l21.99,31.19c14.42-.73,28.91-1.4,43.08-4.26,1-.78.39-.72.1-1.43-2.4-5.69-11.06-16.39-15.49-21.01ZM487.31,530.06c-.23,4.47.17,9.01,0,13.47,2,.32,1.04-.51,1.33-1.6.75-2.87,1.77-5.16,2.55-7.47.38-1.12,1.05-3.89.44-4.75l-3.34-1.8c-1.93.87-.94,1.57-.97,2.14ZM446.56,556.68c2.82-2.92,18.19-9.3,19.39-11.83s1.25-14.85-.98-16.16c-2.89.93-5.81,2.11-8.9,2.34-2.18.16-6.83-.75-7.75-.54-.53.12-7.62,4.9-8.8,5.71-.64.44-1.4.7-2.18.77-.89,1.19,2.9,3.08,3.64,3.91,4.42,4.95,6.51,8.81,5.57,15.8ZM216.44,531.05l-1.96-.66v2.63c1.19.21,2.17-.72,1.96-1.96ZM479.82,573.52c3.69-12.44,4.79-26.96,4.55-39.86-.81-1.09-.98-.3-1.64.35-1.06,1.05-1.83,2.94-2.88,4.02-5.78,6-12.47,11.28-20.04,14.8l-1.42,22.24c3.19-2.63,6.89-4.8,10.18-7.23,1.85-1.37,2.97-4.27,5.59-3.94,1.16,1.16-4.48,6.26-5.6,7.21-1.78,1.51-9.91,6.31-10.48,7.27-.97,1.62-.57,5-1.05,6.72-.15.54-1.09.44-1.23.98-.93,3.67-1.3,8.2-2.02,11.99.7.92,8.88-6.13,9.66-6.44.71-.29,2.53-.67,2.16.84-1.73,4.04-11.29,7.88-12.78,10.23-1.93,3.04-3.73,13.31-5.77,17.89-1.26,2.83-3.16,4.83-4.13,7.7,7.23-5.34,14.54-12.26,19.95-19.49,7.65-10.22,13.35-23.2,16.94-35.3ZM224.05,537.89c-1.56-1.38-3.29-2.58-4.65-4.19-5.64,4.31-10.17,7.91-12.73,14.85-1.08,2.92-3.13,11.76-1.09,14.07,3.73,4.23,23.72,9.14,29.8,10.3,9.58,1.84,19.59,3.09,29.37,3.51,4.26.18,8.58-.18,12.84-.03.6-.53-4.54-8.94-5.25-10.01-2.91-4.35-7-9.98-10.53-13.98-.47-.54-3.99-4.17-4.24-4.34-.8-.53-4.25.22-5.91.04-1.16-.13-2.4-1.34-3.23-1.18-2.1.39-2.47,5.06-9.15,3.69-4.67-.96-11.38-9.34-15.22-12.72ZM190.42,540.63c-3.97-5.79-3.6-6.27-9.4-1.29-7.64,6.55-10.15,16.54-4.35,25.21,3.65-6.95,9.73-9.75,16.45-13.12,1.44-5.03-.25-7.23-2.7-10.8ZM437.74,541.85c-.72-.57-2.25-1.8-3-1.98-2.26-.55-8.9,4.43-11.4,5.75-3.08,1.62-7.07,3.04-10.31,4.49-.48.63,2.36,3.65,2.88,4.67,2.62,5.09,3.64,9.19,3.04,15.04,3.9-1.31,22.78-9.07,23.98-11.84,1.8-4.16-1.56-13.25-5.19-16.13ZM537.28,547.48c-.92-.47-1.75.42-1.31.64.92.47,1.75-.42,1.31-.64ZM144.52,594.56c3.73-8.44,7.15-17.38,8.6-26.58s2.84-19.17-10.13-14.73c-21.51,7.37-40.38,44.5-43.49,65.64-.52,3.55-.13,9.6-.76,12.27-.13.53-1.19.19-1.35,1.4s-.12,9.71.15,10.14,3.6,1.01,3.85.76c-.04-1.08.1-2.14.45-3.16,5.43-15.69,12.53-29.86,20.11-44.35,3.72-7.1,8.91-19.39,14.89-24.52.89-.76,3.23-1.82,2.67.03-.38,1.23-4.81,7.85-5.93,9.7-8.92,14.75-17.87,30.79-24.49,46.67-.73,1.75-5.67,15.05-5.07,15.61,4.91-.7,7.54,2.66,11.51-1.3,9.97-9.93,23.29-34.68,28.99-47.58ZM388.04,581.65c.99,1.07,26.5-8.63,27.27-9.87,2.48-4-.09-15.67-3.89-18.44-2.74-2-8.6,1.95-11.57,2.99-4.7,1.65-9.57,3.49-14.45,4.29-.7,2.41,1.66,3.02,2.16,4.1,2.21,4.74.85,11.85.47,16.92ZM203.29,583.63c-1.55-5.51-.13-11.43,3.94-15.45-5.41-4.02-10.73-6.59-14.23-12.75-6.32.61-17.4,8.61-11.41,15.39,1.71,1.94,20.87,13.85,21.7,12.81ZM457.07,555.37c-.75-.78-13.25,7.25-15.11,8.22-13.14,6.89-27.27,12.76-41.14,18.04l.37,7.92c4.52-1.69,9.14-3.22,13.58-5.15,2.15-.93,11.93-7.24,7.4-.49l-21.33,8.91-1.63,21.7c4.29-1.04,8.55-2.52,12.66-4.1,2.68-1.03,7.55-4.83,9.97-3.16.65.45.45.62.38,1.33l-24.62,10.56-4.3,19.03c5.76-1.57,11.5-3.5,17.08-5.6,1.19-.45,6.79-4.6,5.96-.03-.3,1.63-20.86,7.89-23.71,9.24l-4.59,13.48c17.66-4.76,34.55-12.7,49.61-23.03,4.45-8.91,8.88-17.33,11.53-26.92-1.36-1.03-14.25,7.79-17.42,6.57-.57,0-.44-1.41-.33-1.65.63-1.39,16.73-7.13,18.71-9.56l3.64-19.69c-5.34,1.57-15.18,7.85-20.22,8.43-.79.09-1.28.22-1.82-.53-1.29-2.62.77-1.84,2.68-2.62,3.11-1.27,18.19-7.27,19.4-8.87,2.06-2.74,1.41-12.78,1.88-16.51.15-1.2,1.23-.87,1.35-1.4.29-1.24-.13-2.83.01-4.14ZM383.94,582.82c1.57-6.43,3.27-15.18-2.29-20.14l-27.8,7.15c.04,1.49,1.28,2.29,1.83,3.75,2.07,5.49,1.76,10.42.14,15.96l28.12-6.72ZM231.56,592.17l-1.33-7.52,2.66-8.59c-2.84-.92-5.84-.98-8.7-1.82-4.02-1.19-10.63-4.77-14.52-3.61-4.31,1.28-5.43,11.12-2.81,14.36,8.06,3.02,16.14,6.03,24.69,7.18ZM352.12,574.19c-.75-1.13-.91-2.96-2.39-2.92l-34.05,6.08c-1.15.72.65,7.19.72,9.2.11,3.15-.48,5.84-.69,8.91l37.1-5.18c1.05-4.45,2.01-10.15.75-14.61-.34-1.2-1.21-1.12-1.44-1.48ZM220.3,592.91c-13.07-3.95-26.04-8.83-37.38-16.52-.48.65,1.87,11.94,2.29,13.81,5.14,23.12,16.22,50.01,37.6,62.32,6.64,3.82,13.89,6.54,21.24,8.66l-6.01-10.11c-4.21-4.02-5.74-11.25-7.94-16.68-3.54-.51-23.65-8.52-24.17-11.01-.08-.91.6-1.62,1.53-1.54,1.9.16,12.78,6.32,16.24,7.45,1.69.55,3.44,1.06,5.24,1-1.91-3.38-2.21-7.93-3.34-11.32-.18-.55-1.03-.51-1.2-1.02-.4-1.19-1.04-6.2-1.49-6.6-4.07-.04-28.29-9.14-28.81-11.63l1.06-1.58c4.75.88,9.46,4.36,14.07,6.18,1.51.6,11.98,4.16,12.48,3.62l-1.4-15.03ZM265.09,579.69l-28.44-2.53c-4.63,1.9-4.51,12.87-1.63,15.5,1.08.99,18.88,3.17,21.87,3.44,1.2.11,7.66.58,8.21,0-1.94-5.59-1.68-10.85,0-16.42ZM303.75,578.56c-8.1.41-16.37,1.55-24.52,1.83-2.98.1-10.21-2.04-11.99,1.76-1.33,2.83-1.25,13.99,2.12,14.63,3.09.58,9-.08,12.53-.03,6.48.09,13.1.38,19.72.05,3.44-.17,7.28-.99,10.87-.97,1.98-1.43,1.46-14.63-.36-16.82-1.08-1.3-6.45-.55-8.36-.45ZM573.44,581.66c-1.36-1.39-14.62,6.66-16.64,8.01-11.68,7.8-24.24,20.63-32.57,31.85-2.66,3.58-4.68,7.56-7.25,11.2,9.59,12.33-2.67,18.62-13.26,22.2-7.21,2.43-16.13,2.25-20.37,9.87-.76,1.37-2.3,4.93-1.66,6.26.39.8,8.87,6.31,10.57,7.88,4.64,4.26,7.7,9.78,11.82,14.48,10.09-18.1,30.36-32.49,51.62-32.53,2.37-6.12,6.67-9.37,11.17-13.81-12.38-3.25-23.98.63-35.11,5.56l-1.06-1.59c.61-3.79,4.41-5.59,6.35-7.82,14.4-16.55,27.21-34.44,35.02-54.85.41-1.08,1.97-6.09,1.37-6.71ZM342.02,596.44v16.76c6.87.53,16.52-3.97,22.84-3.78,1.11.03,1.46.79,2.13,1.47,0,2.23-21.92,4.81-24.9,5.66l-.43,22.3c.56.84,1.03.41,1.68.37,4.72-.25,12.15-3.17,16.79-3.05,1.18.03,2.24.21,2.26,1.66-.34,1.41-6.88,2.51-8.39,2.79-1.69.31-12.11,1.17-12.57,1.61-.29.28.34,2.27-1.38,1.87l1.3.65c.66,1.74-1.13,1.03-1.32,1.74-1.18,4.41.85,13.51-1.96,18.63,15.12-1.31,30.39-4.13,44.91-8.5,2.69-4.64,5.05-8.59,6.37-13.84l-14.09,1.97-.39-1.65,15.45-4.28,4.28-19.05c-3.1.36-20.22,6.17-21.7,4.59l-.02-2.21,21.73-5.99c1.5-1.52,3.49-21.48,2.61-22.68-4.64.68-14.66,4.83-18.8,4.57-.56-.04-.93-.11-1.27-.6-.41-.33-.45-1.82-.31-1.99.65-.79,17.49-2.94,20-4.53.62-.42.54-5.81.38-6.99-.13-.95.37-1.1-.95-.94l-54.28,13.45ZM278.25,600.06c-18.63.45-36.98-2.75-55.23-5.91.46,3.27.44,7.07,1.26,10.22.27,1.06,1.06.85,1.33,1.45.25.56-.08,1.65.14,2.35.77,2.4,15.16,2.72,18.02,3.04,2.7.3,3.21,2.56,1.18,3.21-1.3.41-8.44-.37-10.34-.62-2.49-.33-5.26-1.05-7.63-1.89-.6.84,4.14,18.39,5.55,19.75,2.26,2.19,17.63,3.62,21.73,4.57,4.38,1.01,2.02,2.71-1.32,2.68-5.93-.06-13.47-2.34-19.38-3.33,2.33,5.66,5.48,11.97,8.67,17.29,1.83,3.05,4.23,5.71,5.97,8.81,14.23,4.66,29.6,5.29,44.52,6.1l-5.23-14.15-20.41-.97v-2.62s19.72,0,19.72,0l-5.28-21.66c-3.14-.28-25.16-1.9-25.64-3.73.14-1.3-.67-2.27,1.02-2.24,7.26.12,15.85,2.59,23.33,2.66l-1.97-24.98ZM338.73,596.12c-18.92,2.51-38.02,4.31-57.16,3.98-.77.77.28,13.4.57,15.45.18,1.23,1.21.85,1.33,1.42.5,2.43.54,5.51.76,8.01l26.89.72v2.63h-25.32c-.65.49-.74.57-.73,1.35.06,5.71,4.44,14.05,4.43,20.25,5.6,2.26,12.02-2.18,17.01,1.73-.6.28-2.8,1.64-2.97,1.64h-12.16c-.4,5.76,3.52,9.65,5.71,14.48l38.39-2.28c1.1-.77,3.39-21.91,2.58-22.72l-21.7,1.31c.12-.7-.19-1.69-.03-2.25.44-1.58,18.88-1.08,21.61-2.47l.79-22.22-23.67,1.31-.02-2.21c.39-1.65,8.43-.94,10.21-1.08,4.47-.36,8.99-1.15,13.49-1.31v-17.75ZM63.48,623.51c-2.63-4.04-8.12-15.86-11.17-18.09-7.23-5.31-20.81-8.93-29.53-6.71-3.42,4.88,10.79,20.47,14.52,23.69l30.58,23.37,11.15-1.99c-6.09-5.5-9.51-12.31-13.91-18.98-.46-.69-1.41-.93-1.63-1.28ZM156.38,625.47c1.64-2.37,9.03-16.09,7.46-18.19-10.19,2.16-21.49,6.65-28.95,14.12-5.26,5.27-8.13,12.11-12.56,17.66-1.42,1.78-4.3,3.01-5.16,5.68l19.09,2.89c1.86-.49,5.22-5.64,6.78-7.26,4.29-4.47,9.69-9.59,13.35-14.9ZM201.32,638.83l-7-12.41c-11.47,2.06-23.13,2.34-34.68.73l-11.57,14.31c17.75,1.5,35.74.48,53.25-2.63ZM559.88,670.82c-2.94-8.21-6.5-8.09-14.74-6.05-12.8,3.16-31.63,17.07-37.55,28.84-.5,1-1.75,2.76-1.55,3.78,4.65,10.1,7.93,22.35,6.26,33.46h1.95c.44-2.61,1.34-5.42,2.33-7.87,3.58-8.81,8.39-18.04,13.58-25.86,1.85-2.79,4.24-5.4,5.82-8.32,1.05-.19,1.92.45,1.89,1.55-.01.47-4.51,6.46-5.3,7.86-7.76,13.77-14.2,28.06-19.71,42.76-3.68,9.82-5.16,21.37-11.73,29.98l17.46-3.24c21.07-19.08,35.83-45.3,40.98-73.41.35-1.91,1.4-4.79,1.45-5.13.42-3.2.41-13.96,0-17.17-.14-1.11-1.04-.96-1.12-1.17ZM502.03,697.75c-8.18-14.97-24.88-29.58-42.29-32.33-11.64-1.84-12.47,8.42-14.55,16.96-.13.54-1.13.49-1.25.96-.49,2.07-.39,14.43-.07,17,.15,1.18,1.17.83,1.34,1.41,1.11,3.82,1.05,9.95,2.61,13.71.81,1.94,5.72,6.3,7.58,8.17,12.81,12.88,19.86,23.29,24.63,41.25,1.31,4.91,1.95,10.86,2.03,15.92,3.94.55,4.45-3.83,4.62-6.87,1.21-21.77-5.58-48.89-13.33-68.89l-6.41-14.28c.89.09,2.06-.42,2.69.41.96,1.25,3.33,6.9,4.2,8.8,8.47,18.54,13.63,38.75,14.81,59.43.27,4.76-.74,11.51,0,15.83.1.56.5,1.58.98,1.62.57.05,6.86-3.55,7.48-4.34,2.07-2.61,3.39-7.86,4.74-10.9,9.17-20.69,11.45-43.27.21-63.85ZM54.05,837.34h12.49c-.26-22.22.24-44.63,4.14-66.52,1.16-6.51,3.38-12.67,5.16-18.53,3.69-12.1,6.94-23.99,14.04-34.59l1.65.35c-2.76,7.72-6.56,14.46-9.22,22.33-7.57,22.4-11.76,45.87-12.5,69.65-.28,9.09.25,18.23.02,27.32h17.75c3.06-4.78,6.49-9.38,9.85-13.95,20.32-27.6,35.85-62.43,23.09-97.01-8.13-22.02-21.28-36.83-46.02-23.38-24.26,13.19-39.77,45.21-40.2,72.2-.3,18.36,7.65,45.74,19.02,59.91.47.59.64,1.49.73,2.23ZM455.99,728.66c-14.09-15.23-35.94-29.12-57.76-26.72-11.02,1.21-10.89,12.23-8.96,20.8,4.58,20.33,24.24,39.88,41.3,50.73,2.79,1.77,12.75,7.86,15.31,8.39s6.66-.05,9.55.28c5.06.57,9.78,2.04,14.46,3.94.69-2.49-2.2-4.64-3.15-6.09-12.39-18.83-23.67-33.26-41.95-46.76-1.59-1.18-10.41-6.2-10.43-7.3-.02-.7,1.14-.96,2-.71.62.18,5.73,3.17,6.74,3.79,17.05,10.5,34.72,29.98,45.36,46.72,2.37,3.72,4.73,8.22,6.38,12.32,6.45-1.53,3.37-12.3,2.51-17.31-3-17.4-9.63-29.4-21.35-42.08ZM40.62,736.51c2.56-5.1,5.3-10.1,8.07-15.09-6.2-8.52-15.12-14.46-24.56-18.81-1.41.08-1.07,6.15-.97,7.53.71,9.87,6.15,22.7,10.6,31.47.41.8,1.92,4.66,3.18,3.71.82-2.5,1.54-5.7,2.69-8.02.26-.51.9-.63.98-.79ZM175.02,703.26c-19.1,3.48-37.5,17.01-48.53,32.67.98,6.58,2.22,13.34,1.2,19.92,5-3.31,9.38-7.64,14.36-10.94,4.21-2.79,18.68-9.18,20.77-11.44,1.88-2.03,8.85-16.59,9.88-19.7.48-1.46,2.86-9.94,2.31-10.5ZM227.61,745.98c-32.36.14-64.1,12.58-88.76,33.19-5.83,4.87-14.54,13.01-19.41,18.72-1.96,2.29-3.39,5.38-5.55,7.59,18.32-13.11,39.43-19.81,62.1-18.07,8.71.67,7.54,2.42,16.76-1.01,14.89-5.54,47.06-22.36,50.45-38.95,2.15-10.49-8.41-15.94-17.04-18.75-34.25-11.12-72.13,9.48-97.87,30.72-2.22,9.3-2.99,19.87-6.57,28.79-.26.66-3.2,3.04-2.58,5.1.55.68,11.3-11.1,12.48-12.17,22.35-20.31,61.56-39.8,92.41-37.16,1.31.11,4.09.06,3.58,2ZM572.03,732.93c-1.71-2.82-15.52.39-18.75,1.77-9.8,4.16-10.11,10.15-16,17.99-2.04,2.71-5.86,7.19-8.2,9.73-1.77,1.93-3.96,3.23-5.6,5.24,4.93-.74,14.63,4.01,18.66,1.89,1.46-.77,3.8-3.37,5.35-4.51,10.96-8.06,18.48-15.36,23.39-28.41.18-.47,2.49-1.52,1.15-3.71ZM402.32,752.75c-4.25-3.32-25.78-1.93-31.5-.66-16.69,3.71-54.67,24.11-21.74,37.12,14.63,5.78,35.48,7.87,51.16,7.4,2.67-.08,12.2-.5,13.96-1.14.45-.17,4.78-4.23,6.14-5.06,3.46-2.11,8.04-3.72,11.77-5.33-25.16-12-53.3-16.93-80.87-10.85-1.76-1.5,6.98-3.72,7.64-3.86,24.71-5.13,47.84,1.45,70.59,10.12,3.87,1.47,6.36,4.04,11.19,2.94-2.17-2.89-6.45-4-9.54-5.9-7.96-4.89-16.3-11.25-23.02-17.74-1.92-1.85-4.39-5.98-5.76-7.05ZM559.92,789.08c-13.73-26.43-64.52-20.78-81.44.32-2.53,3.15,1.12,3.44,2.92,5.53s2.5,6.45,5.21,7.28c19.69,2.61,40.32,4.39,59.9,0,5.06-1.13,15.93-4.36,14.82-10.93-.28-1.69-1.14-1.66-1.42-2.2ZM479.88,798.11c-13.52-18.59-45.92-16.04-61.94-2.19-7.6,6.57-5.76,10.33,3.48,12.98,12.82,3.68,46.37,4.6,57.81-2.31,3.96-2.39,3.16-5.02.64-8.48ZM107.96,837.34h70.02c4.69,0,25.73-9.09,29.57-12.5,13.36-11.89-4.63-25.98-15.64-30.35-23.57-9.36-51.93-3.13-72.33,10.76-10.2,6.94-14.53,14.37-22.15,23.4l-5.91,8.69h12.16c.31,0,3.45-3.68,4.24-4.3,23.97-18.8,54.98-33.22,86.3-23.77,1.28.39,7.27,1.57,4.8,3.74-32.04-9.93-67.5,1.57-91.07,24.34Z"/>
  <rect x=".14" y="841.29" width="595" height=".66" fill="#fff"/>
  <path d="M590.54,3.89v336.54c-12.88-8.25-26.61-15.08-40.67-21.13,1.14-12.45,6.93-24.67,3.76-37.28-2.75-.7-4.98.6-6.77,2.57l-15.88,26.82c-8.93-2.78-17.82-6.38-27.22-7.14,1.07-10.6,3.04-21.25,3.95-31.88.88-10.29,1.87-22.62-9.55-27.24.14-5.03,4.71-21.08-4.75-16.95-2.59,4.69-1.99,10.29-2.26,15.49-2.55,1.41-6.38,1.69-8.66,3.49-5.44,4.29-7.18,13.5-8.22,20.05-1.71,10.79-1.96,22.23-3.39,33.09-14.32.18-27.46,2.44-41.1,6.56-7.85,2.38-15.27,5.58-22.82,8.73l-26.14,14.28c-.38-10.8-6.48-18.07,1.33-27.92,9.31-11.75,18.82-14.38,22.69-31.87,2.76-12.49-3.08-17.01,4.27-29.76,7.46-12.94,11.71-17.76,10.53-34.37-.69-9.71-5.77-14.26-7.62-21.96-19.1-79.55-122.25-88.16-180.09-44.05-33.61,25.63-45.38,66.33-74.29,94.65-7.82,7.66-24.01,18.16-24.01,30.55v11.5c-16.69-7.79-34.63-13.86-53.26-14.46-.44-6.63-.53-13.45-1.32-20.05-.89-7.44-1.28-13.95-6.87-19.42-1.86-1.82-4.26-3.06-6.86-3.32-.37-.43-.37-9.7-.73-11.32-.11-.48-1.14-.38-1.27-.92-.47-1.83.14-6.49-3.61-6.14-5.92.55-2.31,15.2-3.1,18.99-10.1,3.72-10.55,14.06-10.44,23.46.02,1.39.64,2.67.68,3.93.16,6.23.02,12.45.59,18.66-10.94,3.14-21.64,7.76-31.42,13.61-3.96,2.37-7.6,5.98-11.9,7.49V3.89h586.45ZM156.4,54.04c-7.43-12.52-23.62-18.24-37.52-15.9-14.13,2.38-28.66,12.82-29.33,28.19-14.66-13.36-42.87-5.3-41.41,16.44-6.25-.18-9.75-.75-14.78,3.3-3.29,2.64-5.65,5.24-5.64,9.52,0,6.74,3.28,8.06,9.55,8.89h169.02c7.97-.62,12.35-6.31,9.66-14.31-1.62-4.81-12.22-9.36-17.25-8.72,1.13-21.42-24.81-28.85-39.44-16.43-.18-3.3-1.16-8.13-2.85-10.97ZM412.91,47.39c-6.44-1.58-4.58,5.73-8.09,9.76-3.12,3.58-11.08,3.07-11.26,6.87s4.6,3.41,7.16,4.42c2.22.88,4.31,2.99,5.43,5.09,1.41,2.65,1.13,7.32,4.57,7.33,3.1,0,2.46-3.53,3.49-5.77,4.05-8.82,7.19-5.2,11.93-9.1,5.38-4.44-4.31-5.73-6.36-6.73-4.67-2.27-4.8-7.73-6.87-11.86ZM247.19,63.2c-4.13-4.43-5.35,5.79-6.42,7.4-2,3.02-8.16,2.59-8.45,6.03-.22,2.7,6.24,3.38,8.15,5.44s2.18,7.77,4.59,7.97c4.53.38,4.67-6.49,6.59-8.56,1.61-1.74,6.63-2.32,6.84-4.95.27-3.5-5.7-2.68-7.87-5.45-1.05-1.34-.86-2.51-1.39-3.56-.28-.55-.91-.57-1.16-1.07-.43-.86-.08-2.41-.88-3.26ZM537.03,94.18c-16.49-22.06-54.2-13.49-56.3,14.88-2.15.2-3.01-1.65-5.06-2.49-11.74-4.86-28.01,1.98-28.47,15.64-13.72-7.73-37.48,14.84-14.82,20.4h126.28c6.95-.24,14.37-5.76,14.52-12.94.09-4.18-2.66-9.53-5.34-12.72-6.31-7.53-16.75-6.57-25.32-3.94.08-6.19-1.81-13.86-5.51-18.82ZM74.67,141.7c-1.52-2.63-1.22-8.26-5.69-6.9-2.52.77-2.32,7.11-4.63,9.53-2.49,2.6-10.71,3.44-10.99,6.5-.38,4.22,8.75,4.36,11.49,7.58,1.64,1.93,2.84,12.98,7.45,8.33,1.52-1.53,1.12-6.53,5.05-9.73,2.19-1.79,8.74-3.99,8.95-6.24.29-3.04-4.7-3.08-6.84-4.34-.71-.42-4.45-4.13-4.79-4.73ZM125.55,178.23c-3.21-3.32-5.28,4.22-6.71,5.79-1.33,1.46-6.14,2.87-6.32,3.69-.77,3.59,3.74,3.27,5.6,5.5,2.34,2.81.93,7.3,5.31,7.24,3.09-.04,3.17-5.27,5.56-7.6,1.55-1.51,5.09-2.05,5.3-3.95.32-2.88-4.77-2.62-6.63-5.23-1.08-1.51-1.24-4.54-2.11-5.45ZM554.87,204.87c4.11-4-5.87-6.43-7.42-7.71-2.08-1.71-3.04-8.32-5.87-8.53-3.16.17-2.46,3.32-4.05,5.83-1.74,2.76-13.13,6.44-9.47,10.25,1.1,1.15,6.86,2.37,9.02,5.1,1.43,1.81,1.15,6.63,3.83,7.07,4.12.67,3.67-5.75,6.19-8.29,1.98-2,6.7-2.69,7.77-3.73Z" fill="#fff"/>
  <path d="M225.65,306.9c-.08,18.52,16.24,35.13,33.56,39.74,8.01,2.13,13.36-.01,20.66.36,5.42.28,11.98,2.86,17.78,3.27,8.22.59,17.39-1.08,25.44-2.82,2.91-.63,7.71-3.45,10.39-2.11,1.31.65,5.07,7.2,6.3,8.82,9.73,12.87,18.55,27.18,26.25,41.46,1.26,2.34,8.99,17.44,8.76,18.64-2.38,2.92-4.62,5.9-6.74,9.02-1.1,1.62-2.81,5.98-3.85,7s-10.96,4.28-13.59,5.81c-3.88,2.26-11.01,8.55-13.46,12.18-5.95,8.82-5.99,18.82-5.61,29.11l-3.88.98c-3.15-5.43-5.97-11.21-9.29-16.53-4.06-6.51-9.62-13.49-13.36-20.38-2.12-3.92-9.24-17.67-9.63-21.26-.49-4.46,3.28-7.86,5.33-11.65,4.06-7.52,8.35-14.94,11.09-23.09.69-2.04,3.27-9.75,3.24-11.26-.01-.56-.11-.96-.59-1.29-.53-.34-1.68-.47-2.28-.34-.89.2-4.61,14.74-5.7,17.26-6.46,14.95-20.95,35.97-31.52,48.82-2.3,2.8-11.59,13.73-13.75,15.18-5.53,3.7-21.9,5.27-28.75,5.3-2.97,0-6.5-.7-9.62-.54-6.98-7.05-14.64-13.88-19.38-22.69-1.41-24.53,3.53-48.98,5.46-73.16-2.22-1.86-3.07.43-3.48,2.48-1.52,7.56-1.17,17.37-2.8,24.69-2.39,10.75-3.73,24.55-3.96,36.25-.09,4.68-.15,10.73,2.86,14.62.39.5,1.56.75,2.12,1.47,11.36,14.74,25.24,27.07,37.12,41.44-3.53-.55-6.53-1.48-10.21-1.33-18.74.73-39.83,22.02-45.98,38.82-1.25,3.4-2.17,10.87-3.33,13.11-.52,1.01-1.44,1.44-2.55,1.39-3.97-5.52-9.36-10.97-13.14-16.54-11.86-17.5-24.31-42.13-28.48-62.9-4.48-22.3-2.6-45.38-1.11-67.88l-3.59-.53c-2.47,17.95-2.45,36.34-1.41,54.46-.88.98-13.07-7.62-14.47-8.86-3-2.67-4.45-5.57-7.04-8.38l-.18-2.03c.14-.49,1.14-.5,1.5-1.26,17.1-36.02,29.41-82,65.99-102.92,14.69-8.4,31.83-12.96,48.87-11.95Z" fill="#fff"/>
  <path d="M363.32,190.97c1.28,3.56,4.73,10.99,6.84,14.5,5.98,9.98,16.31,17.3,25.82,23.64-3.16,9.31-4.6,19.25-8.41,28.32-7.13,16.97-18.33,41.16-31.98,53.83-43.35,40.25-110.25,8.73-113.53-48.05-.42-7.34.67-28.31,3.49-34.69,1.2-2.72,3.47-2.61,5.11-4.09,7.79-7,14.52-16.4,17.09-26.65,4.38.79,8.58,2.37,12.98,3.11,27.37,4.56,60.65-.07,79.38-22.17,1,4.05,1.8,8.3,3.22,12.24ZM297.82,210.46c-2.73.33-13,3.52-13.03,6.72-.03,3.62,6.71-.25,8.55-.68,4.12-.95,9.13-1.37,13.33-.8,2.95.41,11.9,5.69,12.92,2.69,1.25-3.41-4.37-5.68-6.99-6.65-4.82-1.78-9.66-1.91-14.78-1.29ZM387.22,239.35c-.16-.28-1.13-.42-1.41-.84-2.27-3.43-4.23-6.41-8.14-8.33-2.42-1.19-12.65-4.16-13.26-.42-.4,2.44,11.08,5.07,13.98,6.94,3.37,2.18,5.22,7.14,8.9,5.05.21-.74.31-1.72-.07-2.39ZM305.5,241.55c-4.55-6.63-14.9-1.8-16.67,5.3-2.73,10.97,9.09,13.26,14.68,4.8.49-.74,2.9-5.36,2.98-5.68.63-2.56,0-2.97-.99-4.42ZM343.99,241.83c-.8-.82-3.64,1.88-3.9,2.48-1.23,2.8-1.9,10.89-2.05,14.25-.41,9.56,4.85,27.1-9.51,27.36-3.92.07-11.8-4.11-12.44-3.96-1.52.36-1.34,2.83-.08,3.94,5.13,4.47,15.96,5.48,21.34.9,8.67-7.38,3.9-20.58,4.67-30.83.16-2.08,2.68-13.4,1.96-14.14ZM365.52,255.13c-7.87,1.15-12.36,15.74-6.61,17.47,4.22,1.27,7.36-.5,9.69-3.86,3.14-4.51,5.51-14.86-3.08-13.61ZM296.49,289.32c-.41-.49-2.67-1.09-3.1-.8-3.14,6.32,5.14,16.9,10.68,19.18,5.2,2.14,21.46,2.84,21.5-5.39-2.01-.28-3.34,1.37-5.1,1.8-8.51,2.08-16.37.19-21.09-7.5-1.09-1.78-2.48-6.79-2.9-7.29Z" fill="#fff"/>
  <path d="M407.1,404.85c-5.91,12.81,8.37,20.77,19.06,15.11-.93,8.83,4.61,14.67,12.51,17.41,5.67,1.97,8.56.51,13.79-1.63-.98,5.6,5.91,11.75,10.91,12.43,1.97.27,9.01-.7,9.44,1.09-1.92,5.06-3.06,10.37-4.63,15.53-.15.51-1.04.55-1.19,1.04-3.38,11.5-5.12,23.52-7.3,35.29,8.28.06,15.01,1.94,13.76,11.78-1.17,9.15-15.23,18.12-23.61,14.51-3.3-1.42-6.42-7.39-6.91-7.55-2.97-.97-1.97,3.37-2.37,3.87-.53.66-14.42,4.05-16.33,4.38-22.97,3.88-47.04-2.36-66-15.59-28.58-19.95-36.05-59.91.23-76.45,3.92-1.79,6.03-.5,9.09-4.72,2.74-3.8,3.87-7.78,7.41-11.65,8.14-8.92,20.02-14.49,32.14-14.85ZM401.19,425.87c1.78-2.62-6.44-5.05-8.21-5.25-2.26-.26-13.09-.38-12.16,3.58.24,1,1.29.89,2.09.88,2.76-.06,5.47-1.45,8.74-1.18,1.94.16,8.53,3.46,9.54,1.97ZM384.55,441.85c-3.93-3.64-15.77.15-15.56,4.08.14,2.71,8.34-2.4,11.34-1.52,4.36,1.27,1.46,8.63,5.27,8.31,4.97-.42,1.37-8.62-1.05-10.86ZM448.14,453.87c-2.5-2.44-6.26-5.31-9.83-3.7l-.27,1.97c4.51,1.62,8.33,3.82,10.62,8.12.55,1.03,2.5,9.17,4.21,3.09.87-3.11-2.62-7.42-4.72-9.48ZM400.53,464.65c2-1.98-6.05-9.14-12.42-6.17-5.58,2.6-7.5,12.55-.07,12.09,0-3.4-.92-8.74,3.68-9.2,3.8-.38,4.94,3.96,8.81,3.28ZM376.04,471.39c-2.78-2.45-5.76,1.2-6.72,3.8-5.55,15.04,11.67,26.79,25.09,21.14,2.82-1.19,9.59-6.24,6.14-9.68-3.13-3.12-16.7.04-21.62-7.96-.91-1.49-2.2-6.7-2.89-7.3ZM433.22,474.7c-.14-.23-3.87-3.14-4.24-3.32-4.51-2.16-13.48.59-12.67,6.42.78.83,6.15-3.98,9.85-2.29,4.48,2.05,1.16,11.56,4.26,10.82,3.95-1.46,4.71-8.65,2.8-11.63Z" fill="#fff"/>
  <path d="M409.33,189c7.78,12.24,9.75,24.2,3.81,38.16-2.81,6.61-9.48,12.43-11,19.89-1.99,9.77,2.04,17.61-2.57,28.35-5.03,11.72-12.74,14.92-19.75,23.61-3.31,4.1-6.61,9.36-6.24,14.78.24,3.54,2.01,5.61,2.68,7.87,1.18,3.96,1.44,11.97.06,15.89-.38,1.09-3.17,6.61-3.92,7.94-4.41,7.81-13.21,14.28-21.57,17.29l-14.72-20.37c3.44-1.44,6.87-3.34,9.8-5.66,8.67-6.87,12.31-12.42,17.15-22.15,10.2-20.53,23.63-41.9,30.71-64.08,1.93-6.05,3.28-12.04,5.39-17.75,2.84-7.7.63-5.55-4.75-9.46-15.2-11.05-25.11-22.17-29.2-41.14-.83-3.86.54-10.68-4.14-10.39-16.4,25.52-52.55,29.89-80.36,25.2-2.57-.43-14.12-4.26-15.55-3.05-.92,6.96-4.05,12.37-8.08,17.88-8.73,11.94-24.48,23.11-40.15,20.67-1.21-.19-7.68-2.57-7.71-3.45,2-1.67,2.66-4.45,3.92-6.41,19.96-30.96,29.71-56.38,67.87-69.04,44-14.59,102.06-5.84,128.31,35.44Z" fill="#fff"/>
  <path d="M398.99,159.23c3.2,4.72,6.58,12.09,7.64,17.69.16.87,1.23,1.29-.5,1.15-9.13-11.26-22.75-20.83-36.32-26.13-44.86-17.51-107.11-9.56-136.42,31.57-18.62,26.14-31.92,56.33-53.5,80.6-10.12,11.37-24.74,20.19-25.93,37.18-.71,10.09,1.42,16.87,5.84,25.57-7.58,6.09-12.75,14.12-18.95,21.45-4.12-7-4.79-16.24-.8-23.47,1.75-3.17,5.14-4.94,6.38-8.09,2.66-6.79,1.03-13.4-1.69-19.85s-6.06-11.57-7.1-19.34c-2.49-18.72,4.7-24.51,16.98-36.1,4.75-4.48,7.63-6.73,12.26-12.06,24.55-28.32,37.33-63.01,68.33-86.81,46.96-36.06,128.45-35.44,163.78,16.63Z" fill="#fff"/>
  <path d="M54.05,837.34c-.09-.75-.26-1.64-.73-2.23-11.37-14.17-19.31-41.55-19.02-59.91.44-27,15.94-59.01,40.2-72.2,24.74-13.45,37.89,1.37,46.02,23.38,12.76,34.58-2.77,69.41-23.09,97.01-3.36,4.57-6.79,9.17-9.85,13.95h-17.75c.23-9.08-.3-18.23-.02-27.32.74-23.77,4.93-47.25,12.5-69.65,2.66-7.87,6.47-14.61,9.22-22.33l-1.65-.35c-7.1,10.6-10.35,22.49-14.04,34.59-1.78,5.85-4,12.02-5.16,18.53-3.9,21.89-4.4,44.3-4.14,66.52h-12.49Z" fill="#fff"/>
  <path d="M470.88,303.62v14.13c0,1.81,2.94,6.72,4.25,8.24.84.97,2.49,1.49,3.03,2.23,1.52,2.08-.5,11.4-.7,14.52-1.13,17.85-1.54,35.75-3.3,53.56l-5.98-18.52c-5.85-14.92-24.85-45.85-42.5-48.38-7.33-1.05-1.48,4.83-.27,6.87,10.1,16.96,19.65,39.95,23.58,59.25.63,3.08,1.2,6.2,1.51,9.33-5.63,1.75-9.37-3.57-14.76-5.29-2.81-.9-5.95-1.4-8.91-1.28,1.4-2.76,7.15-14.25,3.14-15.99-6.65-1.29-12.94,2.46-18.92,4.81,1.97-4.09,4.39-20.86,1.14-23.48-2.08-1.67-5.77-.47-7.92.6-7.12,3.54-11.33,12.32-13.61,19.6l-3.03-5.86c-2.65-2.2-8.75-12.96-13.09-8.62-1.99,2-1.78,13.64-1.65,16.81.19,4.65.87,12.48,2.07,16.86.06.24,3.18,3.34,1.25,4.47l-23.04-41.7c13.93-5.09,24.63-16.98,27.66-31.55,26.93-17.44,57.29-30.76,90.05-30.59Z" fill="#fff"/>
  <path d="M4.08,292.11c12.99-10.05,27.56-18.04,43.39-22.68,1.85,10.53-.11,24.21,8.52,31.91,1.87,1.66,5.46,2.06,5.94,4.58l1.28,28.29c2.63,16.29,3.78,34.76,4.68,51.85.04.77.46,3.64-.68,3.64-.56-3.21-1.46-7.22-2.54-10.26-6.82-19.32-13.89-38.29-25.63-55.22-1.94-2.8-9.6-16.27-13.96-13.11-1.76,13.44.1,28.25,3.27,41.5s8.37,28.57,12.64,41.97c2.17,6.82,4.29,13.77,5.82,20.77-4.95-4.29-10.13-9.39-15.68-12.91-1.96-1.24-10.89-6.6-12.49-4.08-1.35,2.13,5.57,18.39,7.02,21.38,3.85,7.92,9.63,15.76,13.91,23.55-.11,2.28-13.32.33-15.4.29-6.73-.13-13.4.05-20.08.69v-152.16Z" fill="#fff"/>
  <path d="M81.01,265.49c18.68.98,36.83,6.79,53.23,15.47,1.44,8.92,9.08,19.46,9.27,28.23.22,10.13-11.35,14.51-9.9,29.58.54,5.62,3.87,8.79,5.65,13.48-2.6,3.46-3.8,7.59-5.66,11.36-8.31,16.8-16.4,34.56-24.27,51.6-2.88,6.24-6.13,16.2-9.79,21.62-.57.84-.75,1.79-2.1,1.51.22-1.68-.36-3.91.01-5.46,2.26-9.39,3.73-19.95,5.44-30.17,5.17-30.95,13.21-62.01,14.92-93.54.23-4.27,1.89-22.3-5.23-14.44-15.05,16.61-19.79,42.45-26.27,62.6l-7.27,42.88-3.24-54.93c-2.67-5.34-1.54-14.02-2.03-20.32-.56-7.23-1.7-14.46-2.01-21.72.18-1.38,3.92-2.1,5.6-4.28.82-1.08,3.65-7.11,3.65-8.18v-25.31Z" fill="#fff"/>
  <path d="M227.61,745.98c.51-1.94-2.28-1.89-3.58-2-30.85-2.64-70.06,16.84-92.41,37.16-1.17,1.06-11.93,12.85-12.48,12.17-.61-2.06,2.32-4.45,2.58-5.1,3.59-8.92,4.35-19.49,6.57-28.79,25.74-21.24,63.62-41.84,97.87-30.72,8.63,2.8,19.19,8.25,17.04,18.75-3.39,16.59-35.57,33.41-50.45,38.95-9.22,3.43-8.05,1.68-16.76,1.01-22.67-1.74-43.78,4.96-62.1,18.07,2.16-2.22,3.59-5.3,5.55-7.59,4.87-5.71,13.59-13.85,19.41-18.72,24.66-20.61,56.4-33.05,88.76-33.19Z" fill="#fff"/>
  <path d="M590.54,444.28h-16.77c-.67-.49-.71-.58-.72-1.35-.02-2.74,1.48-7.12,1.7-10.17s1.13-13.21-2.33-13.5c-2.31.33-4.61,3.2-6.19,4.98-1.93,2.18-4.85,5.74-6.6,8.05-1.58,2.08-6.17,10.56-7.51,11.37-2.56,1.53-9.12.42-12.21-.05,2.38-5.71,5.01-11.34,7.71-16.91,6.02-12.45,18.58-36.67,20.39-49.97.27-2,.84-5.37-.86-6.69-.99-.24-7.29,3.71-8.49,4.57-12.45,8.93-28.03,29.44-36.39,42.5-2.55,3.98-5.04,8.94-7.18,13.2-.71,1.41-.84,1.57-.79-.13,3.86-10.93,6.61-22.25,10.14-33.28,3.67-11.49,9.19-24.42,12.78-35.97,3.98-12.8,7.16-25.95,10.59-38.91,14.87,6.12,30,13.55,42.73,23.33v98.92Z" fill="#fff"/>
  <path d="M502.03,697.75c11.24,20.59,8.97,43.16-.21,63.85-1.35,3.04-2.67,8.29-4.74,10.9-.62.79-6.91,4.39-7.48,4.34-.48-.04-.88-1.06-.98-1.62-.74-4.32.28-11.06,0-15.83-1.18-20.67-6.34-40.89-14.81-59.43-.87-1.9-3.24-7.55-4.2-8.8-.63-.83-1.8-.31-2.69-.41l6.41,14.28c7.75,20,14.53,47.12,13.33,68.89-.17,3.04-.68,7.42-4.62,6.87-.08-5.07-.72-11.01-2.03-15.92-4.77-17.96-11.82-28.37-24.63-41.25-1.86-1.87-6.77-6.23-7.58-8.17-1.56-3.76-1.5-9.88-2.61-13.71-.17-.59-1.19-.23-1.34-1.41-.32-2.57-.42-14.93.07-17,.11-.47,1.12-.42,1.25-.96,2.08-8.54,2.91-18.79,14.55-16.96,17.41,2.75,34.12,17.35,42.29,32.33Z" fill="#fff"/>
  <path d="M455.99,728.66c11.73,12.68,18.36,24.68,21.35,42.08.86,5.01,3.94,15.78-2.51,17.31-1.65-4.11-4.01-8.6-6.38-12.32-10.64-16.74-28.31-36.22-45.36-46.72-1.01-.62-6.12-3.61-6.74-3.79-.86-.25-2.02.01-2,.71.02,1.1,8.84,6.12,10.43,7.3,18.27,13.5,29.56,27.93,41.95,46.76.95,1.45,3.84,3.6,3.15,6.09-4.69-1.91-9.4-3.37-14.46-3.94-2.89-.32-6.91.27-9.55-.28s-12.52-6.62-15.31-8.39c-17.06-10.85-36.72-30.4-41.3-50.73-1.93-8.57-2.06-19.59,8.96-20.8,21.82-2.4,43.68,11.49,57.76,26.72Z" fill="#fff"/>
  <path d="M74.68,543.95c11.46,21.08,19.07,46.36,20.15,70.88.42,9.57-.94,19.07-.68,28.62l-3.37-.39c-1.48-4.13-1.81-9.1-3.1-13.18-7.79-24.43-17.53-51.02-28.26-74.3-1.96-4.25-4.38-8.32-6.04-12.71l-1.85.76c-1.07,2.38.95,2.35,1.39,3.34,11.42,25.72,22.75,54.97,30.39,81.99.92,3.25,1.75,10.04,2.98,12.68.3.65,2.41.46.96,1.79-6.58,1.86-7.63-3.74-10.94-8.12-16.78-22.12-28-42.68-35.45-69.61-.1-.35-2.49-1.25-1.12-3.65,2.23-1.6,6.98-2.87,6.34-6.24-.92-3.24-8.02-.31-10.26-6.22-2.9-7.67-2.62-31.63,6.43-35.29,3.59-1.45,8.66,1.32,11.64,3.42,9.61,6.79,15.34,16.17,20.8,26.21Z" fill="#fff"/>
  <path d="M107.96,837.34c23.57-22.77,59.03-34.27,91.07-24.34,2.48-2.17-3.52-3.35-4.8-3.74-31.32-9.45-62.32,4.97-86.3,23.77-.8.62-3.93,4.3-4.24,4.3h-12.16l5.91-8.69c7.61-9.03,11.94-16.46,22.15-23.4,20.4-13.89,48.76-20.12,72.33-10.76,11.01,4.37,29,18.46,15.64,30.35-3.84,3.41-24.88,12.5-29.57,12.5h-70.02Z" fill="#fff"/>
  <path d="M559.88,670.82c.08.21.97.06,1.12,1.17.41,3.21.42,13.97,0,17.17-.05.35-1.1,3.22-1.45,5.13-5.15,28.1-19.91,54.32-40.98,73.41l-17.46,3.24c6.58-8.61,8.05-20.16,11.73-29.98,5.51-14.7,11.95-28.99,19.71-42.76.79-1.4,5.29-7.39,5.3-7.86.03-1.1-.84-1.74-1.89-1.55-1.57,2.93-3.96,5.53-5.82,8.32-5.19,7.82-10,17.06-13.58,25.86-.99,2.45-1.89,5.26-2.33,7.87h-1.95c1.66-11.11-1.62-23.36-6.26-33.46-.2-1.02,1.05-2.78,1.55-3.78,5.92-11.76,24.76-25.68,37.55-28.84,8.24-2.04,11.81-2.16,14.74,6.05Z" fill="#fff"/>
  <path d="M342.02,596.44l54.28-13.45c1.32-.16.82,0,.95.94.16,1.18.24,6.57-.38,6.99-2.51,1.59-19.35,3.74-20,4.53-.14.17-.1,1.66.31,1.99.34.5.71.57,1.27.6,4.14.26,14.16-3.89,18.8-4.57.87,1.21-1.12,21.16-2.61,22.68l-21.73,5.99.02,2.21c1.47,1.57,18.6-4.23,21.7-4.59l-4.28,19.05-15.45,4.28.39,1.65,14.09-1.97c-1.32,5.25-3.68,9.2-6.37,13.84-14.52,4.37-29.79,7.19-44.91,8.5,2.81-5.12.78-14.22,1.96-18.63.19-.71,1.98,0,1.32-1.74l-1.3-.65c1.73.4,1.09-1.59,1.38-1.87.46-.44,10.88-1.3,12.57-1.61,1.51-.28,8.06-1.37,8.39-2.79-.02-1.45-1.08-1.63-2.26-1.66-4.65-.12-12.08,2.8-16.79,3.05-.65.03-1.12.46-1.68-.37l.43-22.3c2.98-.85,24.89-3.42,24.9-5.66-.67-.68-1.03-1.44-2.13-1.47-6.32-.2-15.97,4.31-22.84,3.78v-16.76Z" fill="#fff"/>
  <path d="M457.07,555.37c-.14,1.31.28,2.91-.01,4.14-.12.53-1.2.19-1.35,1.4-.47,3.74.18,13.78-1.88,16.51-1.21,1.6-16.3,7.61-19.4,8.87-1.9.78-3.97,0-2.68,2.62.54.75,1.04.62,1.82.53,5.03-.58,14.88-6.86,20.22-8.43l-3.64,19.69c-1.99,2.43-18.08,8.17-18.71,9.56-.11.24-.24,1.65.33,1.65,3.17,1.22,16.06-7.6,17.42-6.57-2.65,9.59-7.08,18-11.53,26.92-15.06,10.32-31.95,18.27-49.61,23.03l4.59-13.48c2.85-1.35,23.41-7.6,23.71-9.24.83-4.57-4.77-.42-5.96.03-5.58,2.1-11.32,4.03-17.08,5.6l4.3-19.03,24.62-10.56c.07-.71.28-.87-.38-1.33-2.42-1.67-7.29,2.13-9.97,3.16-4.11,1.58-8.37,3.06-12.66,4.1l1.63-21.7,21.33-8.91c4.53-6.76-5.25-.45-7.4.49-4.44,1.92-9.06,3.46-13.58,5.15l-.37-7.92c13.87-5.28,28-11.15,41.14-18.04,1.86-.97,14.36-9.01,15.11-8.22Z" fill="#fff"/>
  <path d="M338.73,596.12v17.75c-4.49.16-9.01.95-13.49,1.31-1.78.14-9.82-.56-10.21,1.08l.02,2.21,23.67-1.31-.79,22.22c-2.73,1.39-21.17.9-21.61,2.47-.15.56.16,1.55.03,2.25l21.7-1.31c.81.81-1.48,21.96-2.58,22.72l-38.39,2.28c-2.19-4.84-6.11-8.72-5.71-14.48h12.16c.17,0,2.37-1.36,2.97-1.64-4.99-3.91-11.41.53-17.01-1.73,0-6.2-4.38-14.53-4.43-20.25,0-.78.07-.86.73-1.35h25.31v-2.63s-26.89-.72-26.89-.72c-.22-2.5-.25-5.59-.76-8.01-.12-.57-1.15-.2-1.33-1.42-.3-2.04-1.34-14.68-.57-15.45,19.14.33,38.24-1.47,57.16-3.98Z" fill="#fff"/>
  <path d="M573.44,581.66c.6.61-.96,5.63-1.37,6.71-7.81,20.41-20.62,38.3-35.02,54.85-1.94,2.23-5.74,4.03-6.35,7.82l1.06,1.59c11.13-4.93,22.73-8.82,35.11-5.56-4.5,4.45-8.8,7.7-11.17,13.81-21.26.03-41.52,14.42-51.62,32.53-4.12-4.69-7.18-10.22-11.82-14.48-1.71-1.57-10.19-7.08-10.57-7.88-.64-1.33.89-4.89,1.66-6.26,4.25-7.62,13.17-7.43,20.37-9.87,10.59-3.57,22.85-9.87,13.26-22.2,2.57-3.64,4.59-7.62,7.25-11.2,8.33-11.22,20.88-24.06,32.57-31.85,2.02-1.34,15.28-9.39,16.64-8.01Z" fill="#fff"/>
  <path d="M560.71,479.55c-9.19,28.66-23.7,56.22-35.86,83.57-2.76,6.22-5.12,12.63-6.97,19.19-.75,1.08-.72.38-1.41.12-3.77-1.4-7.38-3.4-11.41-4.07,2.62-12.81,4.26-26.08,7.65-38.71,9.7-36.1,26.04-70.46,46.91-101.44l11.18-14.31c-.2,18.45-4.47,38.08-10.1,55.64Z" fill="#fff"/>
  <path d="M278.25,600.06l1.97,24.98c-7.48-.06-16.07-2.53-23.33-2.66-1.69-.03-.88.94-1.02,2.24.48,1.83,22.5,3.45,25.64,3.73l5.28,21.66h-19.72s0,2.63,0,2.63l20.41.97,5.23,14.15c-14.92-.81-30.29-1.44-44.52-6.1-1.74-3.1-4.14-5.76-5.97-8.81-3.2-5.32-6.34-11.63-8.67-17.29,5.92.99,13.45,3.27,19.38,3.33,3.34.03,5.7-1.67,1.32-2.68-4.1-.94-19.47-2.38-21.73-4.57-1.41-1.36-6.15-18.91-5.55-19.75,2.37.84,5.14,1.56,7.63,1.89,1.9.25,9.04,1.04,10.34.62,2.03-.64,1.52-2.9-1.18-3.21-2.86-.32-17.24-.64-18.02-3.04-.23-.7.11-1.78-.14-2.35-.27-.6-1.05-.39-1.33-1.45-.81-3.15-.8-6.95-1.26-10.22,18.25,3.16,36.6,6.36,55.23,5.91Z" fill="#fff"/>
  <path d="M402.32,752.75c1.37,1.07,3.84,5.19,5.76,7.05,6.72,6.49,15.07,12.84,23.02,17.74,3.09,1.9,7.37,3.01,9.54,5.9-4.83,1.1-7.32-1.47-11.19-2.94-22.74-8.66-45.87-15.25-70.59-10.12-.66.14-9.4,2.36-7.64,3.86,27.57-6.08,55.71-1.15,80.87,10.85-3.73,1.61-8.31,3.23-11.77,5.33-1.36.83-5.68,4.9-6.14,5.06-1.76.64-11.29,1.06-13.96,1.14-15.68.47-36.54-1.62-51.16-7.4-32.92-13.01,5.05-33.42,21.74-37.12,5.72-1.27,27.25-2.66,31.5.66Z" fill="#fff"/>
  <path d="M214.24,249.28c2.74,4.06,4.44,5.93,9.49,7.41-1.14,6.49-1.85,13.08-3.53,19.47-6.6,25.24-26,28.56-45.63,39.83-3.45,1.98-7.61,6.01-10.72,7.69-.63.34-1.24.49-1.93.29-2.92-7.57-4.79-15.08-3.98-23.29,1.52-15.34,15.26-24.05,24.66-34.51,7.6-8.45,14.21-18.04,20.87-27.1,1.54-2.09,2.08-6.27,5.26-5.66,4,.77,2.13,7.38,2.62,10.58s1.68,3.5,2.9,5.3Z" fill="#fff"/>
  <path d="M495.86,459.73c-.32-2.98-1.77-7.35-2.98-10.16-1.03-2.39-4.57-6.29-4.58-7.98-.01-1.48,1.22-6.26,1.71-7.96,12.2-42.26,25-84.69,45.78-123.92,3.6-6.8,8.32-15.97,13.37-21.69.87-.98-.21-2.8,2.59-2.16,1.17,1.13-1.89,18.64-2.57,21.4-6.37,25.96-16.3,52.06-24.48,77.45-8.89,27.61-16.73,56.4-27.35,83.09-.4,1.01.38,1.77-1.48,1.44-.23-3.07.32-6.52,0-9.53Z" fill="#fff"/>
  <path d="M479.86,430.03c2.77,4.62,5.09,11.63,7.37,16.64,7.25,15.96,7.93,31.05-.21,46.93-.85,1.67-8.61,14.8-10.87,13.11-1.17-6.14-5.64-9.2-11.85-8.54.05-1.2-.1-2.44-.02-3.64.59-9.44,4.78-21.99,7.45-31.34.73-2.55,6.02-17.31,5.08-18.26-9.52.38-15.07,3.12-19.79-6.71-.24-.5-1.12-.52-1.23-.98-.22-.94-.21-3.39-.01-4.35.12-.56,1.86-.26,1.31-2.08-4.48-2.88-7.02,3.68-12.36,4.13-5.97.51-15.3-5.46-15.25-12.02-.32-2.99,4.45-9.53-1.35-7.92-6.5,1.8-8.21,6.51-15.99.92-4.35-3.12-4.23-7.14-.13-10.46,7.99-6.45,19.52-5.07,27.93-.24,1.39.8,3.62,3.17,4.46,3.42,2.53.76,5.66-.64,8.42-.56,10.47.3,22.14,13.75,27.06,21.95Z" fill="#fff"/>
  <path d="M228.6,235.92c3.62-.57,9.19-4.02,12.82-5.25-.39,3.82-1.57,7.7-1.96,11.51-1.65,15.89-1.7,30.17,4.09,45.19,14.02,36.34,58.52,56.64,94.76,39.83,8.33-3.86,15.55-9.43,22.11-15.68-5.33,16.27-20.9,27.98-37.23,32.12-25.62,6.5-50.19.79-69.62-16.99-14.1-12.9-25.2-30.05-26.6-49.65-.26-3.62-.26-16.91,1.28-19.62.51-.9,2.98.47,1.93-2.65-.57-1.7-3.73-.82-5.36-1.21-7.96-1.91-10.17-10.25-9.69-17.59,4.15-.46,9.5.62,13.48,0Z" fill="#fff"/>
  <path d="M571.86,546.57c-3.77,10.54-14.96,35.39-22.19,43.86-3.53,4.14-9.58,7.93-13.48,11.83-5.4,5.4-11.73,13.37-16.16,19.67-1.87,2.66-3.86,5.99-5.16,8.98-1.46,1.05-14.26-7.96-14.42-10.86-.13-2.4,6.65-6.26,8.86-7.52,3.02-1.71,6.71-2.85,9.76-4.7,12.04-7.28,16.43-16.01,1.11-22.91-1.58-2.12,13.47-28.31,15.77-31.68.43-.64,1.38-.87,1.86-1.57,10.92-15.57,24.44-31.06,40.87-41-.4,12.24-2.71,24.4-6.83,35.91Z" fill="#fff"/>
  <path d="M271.29,514.35c.07.16.76.22,1.08,1.22.91,2.83,1.81,9.99-2.29,10.17-4-7.35-8.45-18.12-17.48-19.67-.7,3.41,2.26,3.82,3.94,5.59,1.98,2.09,4.97,5.04,6.46,7.35,3.19,4.94,7.94,17.5-.84,18.64-.5-.13-1.23-4.43-1.71-5.43-1.25-2.57-5.26-8.93-7.2-11.35-2.56-3.2-7.6-8.05-11.82-8.23-2.02,2.06,7.18,8,8.54,9.53,3.37,3.78,13.77,21.47,4.21,22.66-5.47.68-3.9-2.12-4.9-4.09-1.47-2.89-4.4-8.01-6.55-10.66-1.45-1.79-11.22-11.39-13.13-9.54.6,4.43,6.36,6.44,9.19,9.53,2.64,2.88,10.18,14.56,4.59,17.08s-13.35-9.37-17.05-12.51c-8.75-7.43-18.14-10.48-25.22-20.84-3.2-4.69-5.09-6.81-.8-11.03,10.25-10.09,26.26-20.71,41.11-14.77,13.86,5.54,24.03,12.22,29.87,26.36Z" fill="#fff"/>
  <path d="M144.52,594.56c-5.7,12.9-19.02,37.64-28.99,47.58-3.97,3.96-6.6.61-11.51,1.3-.6-.56,4.34-13.85,5.07-15.61,6.62-15.89,15.57-31.92,24.49-46.67,1.12-1.85,5.56-8.47,5.93-9.7.56-1.85-1.77-.8-2.67-.03-5.99,5.13-11.18,17.42-14.89,24.52-7.58,14.48-14.68,28.66-20.11,44.35-.35,1.02-.49,2.08-.45,3.16-.25.25-3.58-.33-3.85-.76s-.3-8.98-.15-10.14,1.22-.87,1.35-1.4c.63-2.67.24-8.72.76-12.27,3.11-21.14,21.98-58.26,43.49-65.64,12.96-4.44,11.61,5.34,10.13,14.73s-4.87,18.14-8.6,26.58Z" fill="#fff"/>
  <path d="M398.98,549.68c.31.33,1.64,2.27,1.55,2.39-17.98,6.43-36.25,12.41-55.05,16.01-6.6-6.87-11.25-14.41-15.97-22.75-.25-.44-1.06-.54-1.48-1.32-4.83-9.03-8.46-20.58-9.68-30.72.6-.59,12.03,1.76,13.93,2.18,22.08,4.9,50.98,17.78,66.71,34.21Z" fill="#fff"/>
  <path d="M110.38,346.16c-.02.13-.97.2-1.05.68-5.39,32.79-11.84,63.72-15.18,96.44-.72,7.08-5.02,12.67-7.82,18.61-1.7,3.61-2.56,8.47-5.31,11.31.02-12-1.78-24.55-1.35-36.51,1.32-36.92,9.57-93.57,26.21-126.29,2.13-4.19,5.58-8.57,8.66-12.04-.19,4.9.29,9.89,0,14.78-.59,10.01-2.51,23.02-4.15,33.02Z" fill="#fff"/>
  <path d="M525.83,322.42c-15.63,31.24-26.16,64.65-35.82,98.06-1.08,3.74-1.68,10.73-3.2,13.76-.41.83-.02,1.07-1.46.83-.08-2.94-2.42-5.09-3-7.85-.92-4.41.75-11.45,1.01-16.15,1.51-27.15,3.11-54.27,5.37-81.4l.54-.78c7.97-1.11,10.11-8.11,12.22-14.73.39-1.22.04-2.55.32-3.51.12-.4,2.35-1.22,1.29-3.76l25.64,6.9c1.74,1.38-2.02,6.84-2.91,8.61Z" fill="#fff"/>
  <path d="M29.51,316.32c.66.57,2.66,3.23,3.39,4.17,16.72,21.42,31.7,65.32,36.75,92.09,2.26,11.97,3.42,24.9,6.08,36.09.59,2.46-.17,7.18.67,10.06-.55-.09-1.64-1.45-1.89-1.86-3.62-5.96-6.21-12.7-9.96-18.67-5.27-8.38-10.64-13.84-14.24-23.38-9.59-25.4-15.4-53.16-21.87-78.81l-1.33-20.57c.92-.12,1.75.3,2.42.87Z" fill="#fff"/>
  <path d="M559.92,789.08c.28.53,1.14.51,1.42,2.2,1.11,6.57-9.77,9.8-14.82,10.93-19.58,4.39-40.21,2.61-59.9,0-2.71-.82-3.41-5.18-5.21-7.28s-5.45-2.37-2.92-5.53c16.92-21.1,67.7-26.75,81.44-.32Z" fill="#fff"/>
  <path d="M305.47,449.27c3.36,3.4,10.29,15.56,13.43,20.4.91,1.41,6.02,9.34,5.37,10.1-3.28.68-7.06,1.99-10.1,3.39-5.15,2.37-12.03,7.98-16.85,9.45-3.74,1.14-8.26.76-12.12,1.64l-27.66-21.7c-.56-1.14-.43-2.34-.29-3.54.37-3.32,5.03-11.12,7.2-13.86.71-.89,6.57-7.19,7.02-7.45,4.41-2.52,26.21.03,32.43-.46.74.51.97,1.43,1.57,2.04ZM292.02,480.42c.88-.58-.34-13.02-2.92-12.47s.88,10.2.92,12.1c.11.65,1.84.48,2.01.37ZM302.24,468.62c-2.99.37-8.62,11.73-5.25,12.47l6.12-9.65-.86-2.81ZM283.3,478c.96,1.01,1.29,4.37,3.81,3.74,1.92-.48.1-3.31-.43-4.16-1.16-1.87-4.97-6.32-7.42-5.69-3.58.93,3.3,5.34,4.04,6.11Z" fill="#fff"/>
  <path d="M560.68,389.47c-9.07,25.24-22.17,49.39-35.89,72.4-4.84,8.11-8.93,16.49-14.78,23.82-.71-3.57-11.34-10.77-11.36-12.67-.01-1.05,2.56-7.7,3.18-9.17,11.94-27.94,26.98-53.56,47.98-75.74,4.84-5.11,8.48-9.71,14.77-13.5.33,4.88-2.23,10.21-3.89,14.86Z" fill="#fff"/>
  <path d="M318.08,488.72c-13.01,22.77,6.67,59.63,21.4,78.05.72.9,1.73,1.28,2.52,2.07l-11.21,2.62c-4.74-5.5-7.78-12.55-12.44-18.21-5.79-7.04-15.5-15.36-23.07-20.5-5.9-4.01-12.27-7.19-18.71-10.22-.09-7.96-3.08-14.33-8.18-20.08.02-2.17,27.27-5.77,30.58-6.88,7.22-2.41,13.21-7.92,20.36-10.54.59.83-.8,2.88-1.26,3.68Z" fill="#fff"/>
  <path d="M502.02,254.09c3.1,5.58,2.75,9.66,2.38,16.33-.39,7.01-2.26,15.71-3.36,22.93s-2.75,27.52-8.89,31.21c-4.87,2.92-13.59,2.15-16.26-3.25-.98-1.98-1.55-4.6-1.74-6.81-1-11.68,1.8-45.31,5.87-55.44,3.21-7.99,7.18-15.11,17.32-10.47,3.72,1.7,3.1,2.66,4.69,5.51Z" fill="#fff"/>
  <path d="M310.2,549.69c4.43,4.63,13.09,15.32,15.49,21.01.3.71.91.65-.1,1.43-14.17,2.86-28.66,3.53-43.08,4.26l-21.99-31.19c.32-4.59,2.88-3.6,5.47-5.05,4.92-2.76,3.92-9.73,4.45-10.34.19-.21,1.54-.17,2.2-.72.86-.71,2.51-2.99,3.27-3.09.51-.06,8.3,3.63,9.36,4.24,7.94,4.55,18.59,12.83,24.92,19.45Z" fill="#fff"/>
  <path d="M220.3,592.91l1.4,15.03c-.49.54-10.96-3.03-12.48-3.62-4.61-1.82-9.31-5.31-14.07-6.18l-1.06,1.58c.52,2.49,24.74,11.58,28.81,11.63.45.4,1.09,5.41,1.49,6.6.17.51,1.02.47,1.2,1.02,1.13,3.39,1.43,7.94,3.34,11.32-1.8.06-3.55-.45-5.24-1-3.46-1.12-14.34-7.28-16.24-7.45-.93-.08-1.6.63-1.53,1.54.52,2.48,20.63,10.49,24.17,11.01,2.2,5.44,3.73,12.66,7.94,16.68l6.01,10.11c-7.35-2.12-14.6-4.84-21.24-8.66-21.38-12.31-32.46-39.2-37.6-62.32-.42-1.87-2.77-13.16-2.29-13.81,11.34,7.68,24.31,12.57,37.38,16.52Z" fill="#fff"/>
  <path d="M74.64,242.97c1.81,11.38,2.34,23.21,2.39,35.37.02,4.53.95,7.94-.13,12.96-1.79,8.32-13.42,13.66-19.55,6.06-5.38-6.68-3.04-13.86-4.64-20.89-1.32-5.83-2.34-12.55-2.61-19.19-.24-5.79-.91-23.87,1.32-28.11.21-.39.96-.5,1.29-.96,2.26-3.16,2.92-4.93,7.58-5.42,13.25-1.4,12.84,10.75,14.35,20.2Z" fill="#fff"/>
  <path d="M224.05,537.89c3.84,3.38,10.55,11.76,15.22,12.72,6.68,1.37,7.05-3.3,9.15-3.69.83-.15,2.06,1.06,3.23,1.18,1.67.18,5.12-.57,5.91-.04.25.17,3.77,3.81,4.24,4.34,3.53,4,7.62,9.64,10.53,13.98.71,1.07,5.85,9.48,5.25,10.01-4.26-.15-8.58.21-12.84.03-9.77-.41-19.79-1.67-29.37-3.51-6.08-1.16-26.07-6.08-29.8-10.3-2.04-2.31.02-11.15,1.09-14.07,2.56-6.94,7.09-10.53,12.73-14.85,1.37,1.62,3.09,2.82,4.65,4.19Z" fill="#fff"/>
  <path d="M549.77,447.57l-12.28,20.87c-15.21,26.7-24.83,56.65-31.56,86.8-1.26,5.64-3.03,12.07-4.13,17.01-.29,1.29.37,2.87-.32,4.17-.7,1.16-5.15-.87-6.79-1.14-2.27-.38-11.57-.72-11.81-2.48,2.29-7.93,4.57-15.86,6.98-23.75.29-.94,1.22-.9,1.51-1.83,1.57-5.08,2.39-10.97,3.48-16.22,5.45-.98,8.77-5.14,9.65-10.4,13.53-.86,13.88-17.65,9.96-27.52-.32-.8-1.35-.66-1.75-2.22-1.15-4.48.88-3.73,2.65-6.39,3.62-5.45,7.53-11.62,10.76-17.03,3.65-6.11,6.82-12.69,10.02-19.05,4.39-2.3,8.94-.4,13.63-.83Z" fill="#fff"/>
  <path d="M109.49,528.24c1.21,7.37,2.15,14.66,1.79,22.88-.18,4.09-1.71,8.94-2.05,11.76-.89,7.26-.78,15.92-1.96,23.01-.46,2.76-3.87,8.31-5.06,11.37-1.4,3.58-2.12,7.46-3.43,11.04-.3.83.46,1.2-1.32.96-1.74-15.76-4.56-31.42-9.78-46.4-1.14-3.29-3.07-2.73-1.34-8.29,3.59-11.56,5.87-21.36,12.98-31.82,1.97-2.9,3.94-7.05,7-8.79,1.66.4,2.82,12.09,3.18,14.28Z" fill="#fff"/>
  <path d="M479.88,798.11c2.52,3.46,3.32,6.09-.64,8.48-11.44,6.91-44.99,6-57.81,2.31-9.25-2.66-11.08-6.41-3.48-12.98,16.02-13.86,48.42-16.4,61.94,2.19Z" fill="#fff"/>
  <path d="M445.23,527.77c.37,1.57-.29,1.06-.86,1.45-5.85,4.07-13.82,8.74-20.15,12.04-2.86,1.49-18.72,9.19-20.6,8.74-1.83-.85-2.36-2.94-3.72-4.2-21.62-19.97-53.91-32.53-82.86-36.46.3-2.2-.47-5.42,0-7.43.12-.49,1.15-.4,1.28-.91.56-2.27.32-5.2,1.14-7.95,1.61-5.39,5.71-12.46,12.27-11.23.94.33,3.22,8.65,4.03,10.44,15.18,33.76,72.6,49.86,105.38,34.31l4.09,1.19Z" fill="#fff"/>
  <path d="M64.32,443.86c2.95,4.81,5.7,10.06,8.25,15.09,3.33,6.56,6.75,13.2,6.49,21.13-.03.93-1.54,6.84-2.67,5.95l-25.53-31.66c-7.38-12.23-16.4-23.82-22.64-36.55-.92-1.89-6.96-16.22-6.38-16.92,8.11,4.26,16.75,9.98,23.02,16.74,6.58,7.1,14.47,18.08,19.46,26.22Z" fill="#fff"/>
  <path d="M175.02,703.26c.55.56-1.83,9.04-2.31,10.5-1.03,3.11-8,17.67-9.88,19.7-2.09,2.26-16.56,8.65-20.77,11.44-4.99,3.3-9.37,7.63-14.36,10.94,1.02-6.58-.21-13.34-1.2-19.92,11.02-15.66,29.42-29.19,48.53-32.67Z" fill="#fff"/>
  <path d="M456.85,362.33c6.59,11.08,14.76,33.62,16.49,46.29.28,2.03.18,4.04.17,6.07l-13.65-8.37-5.99-1.57c-.77-5.44-1.83-10.9-3.17-16.22-4.11-16.45-10.21-32.1-18.59-46.63-.39-.67-5-8.47-3.64-8.04,1.6,1.27,3.84,1.97,5.5,3.05,7.95,5.18,18.09,17.38,22.88,25.43Z" fill="#fff"/>
  <path d="M63.48,623.51c.23.35,1.18.59,1.63,1.28,4.4,6.68,7.83,13.48,13.91,18.98l-11.15,1.99-30.58-23.37c-3.73-3.23-17.94-18.81-14.52-23.69,8.72-2.21,22.3,1.41,29.53,6.71,3.05,2.24,8.54,14.05,11.17,18.09Z" fill="#fff"/>
  <path d="M410.17,379.01c-.03.15-.94.2-1.04.69-.35,1.65-2.5,12.84-2.02,13.31,3.43.83,4.13-1.75,6.36-3.18,4.77-3.06,9.03-4.54,14.68-5.37,1.11,1.27-3.32,11.78-4.78,12.95-.92.74-5.69,1.41-7.57,1.97-6.42,1.94-6.41,1.48-12.95,2.17-7.93.84-15.18,4.08-22.03,7.87-3.22-12.08-4.94-25.01-3.29-37.46,4.65,2.45,6.54,7.46,8.61,11.96.22.48.96.53,1.18,1.06.86,2.03.5,8.61,4.32,6.04,1.07-3.74,2.24-7.78,3.78-11.34,2.3-5.32,8.53-15.39,15.34-13.01,1.04,1.48-.09,10.12-.59,12.33Z" fill="#fff"/>
  <path d="M572.03,732.93c1.34,2.2-.98,3.24-1.15,3.71-4.91,13.05-12.43,20.36-23.39,28.41-1.55,1.14-3.89,3.74-5.35,4.51-4.03,2.12-13.73-2.64-18.66-1.89,1.63-2.01,3.82-3.32,5.6-5.24,2.34-2.54,6.16-7.02,8.2-9.73,5.9-7.84,6.2-13.83,16-17.99,3.23-1.37,17.04-4.59,18.75-1.77Z" fill="#fff"/>
  <path d="M156.38,625.47c-3.66,5.31-9.05,10.43-13.35,14.9-1.56,1.62-4.91,6.77-6.78,7.26l-19.09-2.89c.86-2.67,3.74-3.9,5.16-5.68,4.43-5.55,7.3-12.39,12.56-17.66,7.46-7.48,18.76-11.96,28.95-14.12,1.58,2.09-5.82,15.81-7.46,18.19Z" fill="#fff"/>
  <path d="M303.75,578.56c1.91-.1,7.28-.85,8.36.45,1.82,2.18,2.34,15.39.36,16.82-3.59-.02-7.42.8-10.87.97-6.63.32-13.25.04-19.72-.05-3.53-.05-9.44.61-12.53.03-3.37-.63-3.45-11.8-2.12-14.63,1.78-3.8,9.01-1.66,11.99-1.76,8.15-.28,16.42-1.42,24.52-1.83Z" fill="#fff"/>
  <path d="M109.53,430.22c2.91,2.61,5.21,6.06,8.34,8.42,2.03,1.53,13.04,6.94,13.43,7.61.94,1.59.53,6.22,1.01,8.08.13.5,1.1.48,1.23.98,1.4,5.28,2.25,10.73,4,15.92-.42.4-7.93-2.45-9.18-2.98-7.37-3.12-26.6-14.38-28.17-22.49-.82-4.21,5.56-12.72,6.48-17.24,2.07-.55,1.97.9,2.86,1.7Z" fill="#fff"/>
  <path d="M352.12,574.19c.23.35,1.1.28,1.44,1.48,1.26,4.46.29,10.16-.75,14.61l-37.1,5.18c.21-3.06.79-5.76.69-8.91-.07-2.01-1.87-8.48-.72-9.2l34.05-6.08c1.48-.04,1.64,1.79,2.39,2.92Z" fill="#fff"/>
  <path d="M201.32,638.83c-17.51,3.11-35.5,4.13-53.25,2.63l11.57-14.31c11.55,1.61,23.21,1.33,34.68-.73l7,12.41Z" fill="#fff"/>
  <path d="M388.04,581.65c.38-5.07,1.74-12.19-.47-16.92-.51-1.09-2.86-1.7-2.16-4.1,4.88-.8,9.75-2.64,14.45-4.29,2.96-1.04,8.83-4.99,11.57-2.99,3.8,2.77,6.36,14.44,3.89,18.44-.77,1.23-26.28,10.93-27.27,9.87Z" fill="#fff"/>
  <path d="M383.94,582.82l-28.12,6.72c1.62-5.55,1.93-10.47-.14-15.96-.55-1.46-1.79-2.26-1.83-3.75l27.8-7.15c5.56,4.96,3.86,13.71,2.29,20.14Z" fill="#fff"/>
  <path d="M40.62,736.51c-.08.16-.73.28-.98.79-1.15,2.32-1.88,5.52-2.69,8.02-1.27.95-2.78-2.91-3.18-3.71-4.46-8.76-9.9-21.6-10.6-31.47-.1-1.38-.44-7.45.97-7.53,9.45,4.35,18.36,10.29,24.56,18.81-2.77,4.99-5.51,9.99-8.07,15.09Z" fill="#fff"/>
  <path d="M437.74,541.85c3.63,2.88,6.99,11.98,5.19,16.13-1.2,2.77-20.08,10.53-23.98,11.84.61-5.85-.41-9.95-3.04-15.04-.52-1.02-3.36-4.04-2.88-4.67,3.24-1.45,7.22-2.87,10.31-4.49,2.51-1.32,9.15-6.3,11.4-5.75.76.18,2.28,1.41,3,1.98Z" fill="#fff"/>
  <path d="M265.09,579.69c-1.68,5.58-1.93,10.83,0,16.42-.55.58-7.01.11-8.21,0-2.99-.28-20.79-2.45-21.87-3.44-2.87-2.63-3-13.6,1.63-15.5l28.44,2.53Z" fill="#fff"/>
  <path d="M446.56,556.68c.94-6.99-1.15-10.85-5.57-15.8-.74-.83-4.53-2.72-3.64-3.91.78-.07,1.54-.33,2.18-.77,1.18-.81,8.27-5.58,8.8-5.71.92-.21,5.57.69,7.75.54,3.09-.22,6.01-1.41,8.9-2.34,2.23,1.32,2.12,13.75.98,16.16-1.2,2.53-16.58,8.9-19.39,11.83Z" fill="#fff"/>
  <path d="M203.29,583.63c-.83,1.04-19.98-10.87-21.7-12.81-5.99-6.78,5.08-14.78,11.41-15.39,3.5,6.16,8.82,8.73,14.23,12.75-4.07,4.02-5.49,9.94-3.94,15.45Z" fill="#fff"/>
  <path d="M279.56,495.54l-13.79,3.64c-7.03-8.74-19.51-9.27-24.34-20.39l13.62-3.8c5.44,3.48,10.05,7.91,14.98,12.01,2.6,2.16,5.77,4.01,8.43,6.69.57.58,1.44.56,1.1,1.85Z" fill="#fff"/>
  <path d="M502.87,505.62c-.09-.22-.96-.36-1.28-1.04-2.37-5-4.4-9.23-8.94-12.76l3.21-15.33c11.17,5.23,21.74,27.11,14.46,37.8-6.02,8.84-5.74-4.73-7.46-8.67Z" fill="#fff"/>
  <path d="M231.56,592.17c-8.55-1.15-16.64-4.17-24.69-7.18-2.62-3.24-1.5-13.09,2.81-14.36,3.89-1.15,10.5,2.43,14.52,3.61,2.86.84,5.86.91,8.7,1.82l-2.66,8.59,1.33,7.52Z" fill="#fff"/>
  <path d="M236.41,312.58c6.2,7.37,12.15,14.63,19.47,20.95l17.76,10.83c-21.44,1.59-43.62-15.51-44.7-37.46,4.44-.87,5.34,3.13,7.48,5.68Z" fill="#fff"/>
  <path d="M68.51,304.27l8.54,126.86c-.97.15-.91-1.17-1.12-1.84-4.84-15.41-4.22-39.27-5.45-56.32-1.65-22.88-3.86-45.78-4.59-68.7h2.62Z" fill="#fff"/>
  <path d="M479.91,417.87l-1.14.13,1.32.98c-1.75.49-1.45,1.21-1.33,2.96-3.67-2.44-2.77-8.18-2.65-12.19.43-14.53,2.01-30.85,4.02-44.63l1.92-34.22c.1-1.27,1.09-2.02,2.29-1.64,2.21.7.4,6.59.34,8.22-1,26.86-3.51,53.59-4.78,80.39Z" fill="#fff"/>
  <path d="M190.42,540.63c2.44,3.56,4.13,5.77,2.7,10.8-6.72,3.38-12.8,6.18-16.45,13.12-5.8-8.67-3.28-18.66,4.35-25.21,5.8-4.98,5.42-4.5,9.4,1.29Z" fill="#fff"/>
  <path d="M489.95,525.11c-.64-1.62,1.15-1.1,1.32-1.73.21-.79.17-4.16-.03-5.02-.11-.48-1.09-.53-1.24-.98-1.57-4.82-2.78-8.87-5.86-13.07,1.31-1.74,5.01-9.46,6.79-9.45,7.76,4.65,14.21,25.4,6.58,31.58-3.29,2.66-4.36-.46-7.56-1.33Z" fill="#fff"/>
  <path d="M257.2,458.74c-1.38,2.56-2.36,11.27-3.95,12.81-1.74,1.69-12.79,4.06-15.3,3.48-2.32-.54-9.27-10.41-11.63-12.69-.23-1.58.38-.78,1.27-.77,1.75.01,3.61.59,5.64.5,8.01-.34,16.2-1.36,23.97-3.33Z" fill="#fff"/>
  <path d="M276.6,443.62c-.3.01-1.14,1.69-.98-.32,5.2-6.8,11.31-12.95,15.12-20.71,4.45,6.37,7.88,13.73,11.17,21.03-8.4.29-16.91-.39-25.31,0Z" fill="#fff"/>
  <path d="M207.05,541.37c-2.05,1.63-8.23,2.98-10.65,5.45-1.92-5.11-2.43-9.68-7.56-12.82,3.11-1.65,15.16-9.27,17.98-8.74,3.08.58,5.16,9.04,4.02,11.68-.12.27-3.56,4.24-3.79,4.42Z" fill="#fff"/>
  <path d="M224.57,288.29c.27.97,1.37,4.02,1.93,5.61.49,1.43,4.28,9.22,3.75,9.72-8.85-.44-17.54-.17-26.29,1.31,1.3-1.55,3.39-2.5,4.94-3.92,6.09-5.55,11.96-12.82,13.47-21.05.83-.19.82.68.99,1.29.63,2.27.57,4.75,1.22,7.04Z" fill="#fff"/>
  <path d="M195.99,510.74c.34.22,2.44,5.56,3.74,7.1.96,1.14,4.48,3.23,4.22,4.31l-19.06,9.54c-.73-.77,4.11-12.49,5.07-14.28.41-.77,1.16-.84,1.48-1.33,1.03-1.59,2.59-6.6,4.55-5.34Z" fill="#fff"/>
  <path d="M481.85,507.46c1.93-.18,5.18,9.5,5.39,11.5,1.42,13.39-11.18,4.77-11.77.55-.07-.48,1.4-9.09,1.65-9.51.2-.35,4.3-2.5,4.73-2.54Z" fill="#fff"/>
  <path d="M481.38,528.44l-.71,2.86-10.44,10.92c1.51-2.55-1.99-14.4-1.69-15.1.48-1.12,3.79-3.3,4.64-4.61,1.92,3.05,4.52,5.29,8.2,5.93Z" fill="#fff"/>
  <path d="M487.31,530.06c.03-.58-.95-1.27.97-2.14l3.34,1.8c.61.86-.07,3.63-.44,4.75-.77,2.31-1.8,4.6-2.55,7.47-.28,1.09.67,1.92-1.33,1.6.17-4.47-.23-9.01,0-13.47Z" fill="#fff"/>
  <path d="M61.28,219.48c-.78,1.03-1.2.02-1.32-.97-.4-3.43-.19-7.38-.65-10.86,1.28.27,1.15,1.32,1.31,2.3.22,1.39,1.03,9.04.65,9.53Z" fill="#fff"/>
  <path d="M495.2,243.8c-1.17.05-1.4.33-1.32-.97.13-2.08.48-5.05.74-7.16.1-.8.28-3.59,1.23-3.69l-.65,11.82Z" fill="#fff"/>
  <path d="M216.44,531.05c.21,1.24-.77,2.18-1.97,1.96v-2.63s1.97.66,1.97.66Z" fill="#fff"/>
  <path d="M537.28,547.48c.45.23-.38,1.12-1.31.64-.45-.23.38-1.12,1.31-.64Z" fill="#fff"/>
  <path d="M98.56,450.41c1.36,1.17,3.08,4.4,4.45,5.73,9.38,9.08,23.02,16.17,35.71,19.19,1.61,3.75,2.86,8.57,4.57,12.17,7.33,15.41,17.54,32,28.47,45.18,1.28,1.55,4.87,3.92,4.49,5.77-.16.8-2.06,2.84-2.65,3.99-6.19,12.1-4.24,22.31,6.02,31.16,1.71,14.73,4.76,31.24,11.8,44.06l1.38,5.75c-10.47,1.3-21.04,2.39-31.57.97-.28-.23,2.54-5.02,2.93-5.94.98-2.26,5.13-12.63,1.9-13.69-6.86-2.25-21.55,6.38-27.84,9.44,3.14-7.21,7.61-13.65,10.62-20.92,3.82-9.2,9.87-26.02,9-35.53-.1-1.11-.71-4.4-1.19-5.21-.13-.23-3.76-3.3-4-3.4-5.62-2.42-16.68,3.58-21.35,6.89-8.59,6.09-12.46,13.75-18.55,21.51-.42.54.01,1.21-1.5.83,2.29-18.51,4.02-38.23,1.24-56.78-.44-2.97-2.11-11.97-6.15-11.6-1.26.12-4.53,3.8-5.6,4.97-5.97,6.53-11.71,18.09-14.58,26.21-.99,2.8-1.84,5.95-1.88,8.95-2.97-3.85-4.87-10.24-6.25-15.11-1.12-3.97-4.31-16.95-3.59-19.93,1.63-6.81,2.85-15.41,4.77-22.94,3.8-14.86,10.78-27.84,16.59-41.93l.7-.62c.76.04,1.47.34,2.04.84Z" fill="#fff"/>
  <path d="M479.82,573.52c-3.59,12.11-9.29,25.08-16.94,35.3-5.41,7.23-12.72,14.15-19.95,19.49.97-2.87,2.86-4.87,4.13-7.7,2.05-4.58,3.84-14.85,5.77-17.89,1.49-2.35,11.05-6.19,12.78-10.23.37-1.52-1.45-1.13-2.16-.84-.78.31-8.96,7.37-9.66,6.44.71-3.79,1.08-8.32,2.02-11.99.14-.54,1.08-.44,1.23-.98.48-1.72.07-5.1,1.05-6.72.57-.96,8.7-5.76,10.48-7.27,1.12-.95,6.76-6.05,5.6-7.21-2.62-.33-3.73,2.57-5.59,3.94-3.3,2.44-6.99,4.6-10.18,7.23l1.42-22.24c7.57-3.52,14.26-8.8,20.04-14.8,1.05-1.09,1.82-2.98,2.88-4.02.66-.66.83-1.44,1.64-.35.24,12.9-.86,27.42-4.55,39.86Z" fill="#fff"/>
  <path d="M41.23,446.91c2,.44,7.82,10.37,9.63,12.72.67.88,1.76,1.29,2.43,2.17,7.62,9.85,14.9,19.85,23,29.33-1.45,2.76-2.38,4.91-3.01,8.2-2.18,11.54-2.63,22.83-.17,34.34l-7.89-10.18c-8.05-7.32-22.29-21.13-30.36-6.04-3.81,7.12-4.71,26.73-1.53,33.97,1.81,4.11,4.21,5.93,8.87,5.26-.83,1.57-2.97,1.06-4.18,2.78-2.29,3.27.13,12.81,1.46,16.67.32.93,1.19,1,1.35,1.44,2.79,7.76,5.88,15.37,8.6,23.14-5.14-2.83-11.6-5.25-17.5-5.84-30-2.96.54,29.38,10.27,35.09-2.98.06-17.3,1.34-18.76,3.59-.35.53-.48,2.46-.3,2.65.43.45,10.06-2.43,12.17-2.61,2.52-.22,8.76-.38,11.03.13.78.18,7.07,4.61,8.3,5.51,1.4,1.02,8.59,6.76,8.61,7.82-7.66,2.5-16.63,4.89-23.24,9.64-2.54,1.83-7.1,5.77-6.35,9.09,1.01,1.07,7.9-5.87,9.26-6.84,15.79-11.3,44.42-13.26,63.38-12.21,12.03.66,24.12,3.91,35.81,5.6.56-.52,1.52-1.12,1.34-1.98-.33-1.53-4-.25-3.28-1.97.26-.62,2.76-3.51,3.61-3.63,20.24.93,40.67,1.23,60.49-3.35l.85.22c9.51,12.78,27.65,20.23,42.85,23.87,63.39,15.19,180.39-.13,220.24-58.05,6.25-9.09,9.94-20.33,13.93-30.29,13.5.89,31.83,4.57,41.9,14.15.35.33,2,1.89,2.06,2.02,2.08,4-6.22,10.28-9.42,12.12-5.18,2.98-18.68,7.34-19.5,14.08-.88,7.27,12.3,11.86,17.03,15.75,8.54,7.02-3.58,14.17-9.84,16.38-7.02,2.48-17.46,2.62-22.23,9.33-1.73,2.43-2.85,5.55-4.4,8.11-7.6-3.96-21.9-10.66-29.26-3.64-4.57,4.36-6.91,11.75-7.79,17.85-1.46,10.16.2,19.21,1.88,29.17-8.85-6.03-19.46-11.06-30.1-12.95-6.91-1.23-17.1-2.4-22.71,2.54-5.13,4.5-6.36,10.58-5.62,17.25.45,4.03,4.97,13.99,7.05,17.93.7,1.34,7.24,10.86,6.69,11.38-15.31-3.21-33.24-.23-46.89,7.35-3.97,2.2-12.46,8.54-14.8,12.15-15.44,23.81,31.29,29.88,45.59,31.11,9.44.81,18.79.81,28.18-.61,1.75.49.3,3.32.35,4.88.14,4.03,2.47,5.33,5.81,6.74,14.09,5.96,52.44,6.88,65.61-1.14,1.38-.84,3.29-4.34,3.98-4.51.74-.18,12.63,2.29,15.07,2.51,15.56,1.37,40.73,1.41,55.24-4.58,17.21-7.1,4.66-21.49-5.92-27.64-1.2-.7-7.34-2.36-6.26-3.92,2.3-1.25,5.13-2.75,7.17-4.34,7.71-6.01,23.06-21.09,24.22-31.01.79-6.8-5.97-7.03-11.26-6.64-4.73.36-9.08,2.65-13.57,2.86,1.71-4.74,3.97-9.25,5.76-13.96,4.93-13,11.22-35.11,7.21-48.94-1.23-4.25-3.95-4.83-4.77-6.43-1.51-2.93,5.17-8.27,6.5-10.95,3.43-3.66,13.29-6.05,2.56-7.95-10.77-1.91-17.88.12-27.96,2.61-.54.13-1.64,1.19-1.12-.46.87-2.77,9.65-10.45,11.83-13.16,8.74-10.87,22.36-33.9,25.81-47.16.89-3.42,3.04-6.74-1.79-7.11-6.32-.49-12.19,5.26-18.09,6.95,1.21-1.56,1.72-3.51,2.72-5.19,7.61-12.84,14.67-26.54,18.52-41.27,2.64-10.1,4.63-20.49,3.75-30.99-1.62-1.84-3.2-.5-4.83.35-9.5,4.94-22.7,17.94-29.74,26.13-3.34,3.88-5.86,8.64-9.18,12.51-.5.1-.4-.6-.31-.97,2.46-9.84,9-20,12.78-29.28,9.43-23.09,14.8-41.84,20.76-65.91.08-.34,2.18-.98,1.3-3.08l18.4-.66v390.44H190.14l17.03-8.28c15.53-9.92,8.35-24.11-4.23-32.47-3.08-2.05-7.81-3.32-10.66-5.1-.67-.42-1.15.03-.84-1.47,11.53-4.37,24.38-10.04,34.49-17.12,16.2-11.35,33.72-31.97,7.57-44.33-20.32-9.61-44.98-6.11-65.07,2.29,2.14-5.86,5.58-11.15,7.53-17.12,1.1-3.39,4.82-13.28.04-13.82-9.56-1.09-31.78,13.09-39.14,19.43-4.24,3.65-6.31,6.38-9.66,10.68-.42.54.01,1.2-1.49.83-1.57-3.72-2.12-7.98-3.77-11.66-.52-1.15-3.16-5.75-4.01-7.19-18.28-30.83-49.48-15.06-66.86,7.04-1.29-.07-7.88-8.19-9.86-9.88s-7.79-5.95-9.98-7.11c-8.28-4.38-11.67-3.4-11.43,6.79.25,11.12,5.37,21.36,10.09,30.74,1.08,2.15,4.85,8.98,5.06,10.73.4,3.33-2.99,14.58-3.3,19.63-1.5,24.55,5.77,46.98,18.44,67.4H4.08v-390.44h37.15ZM37.6,488.97c1.35-.91-1.72-6.52-2.46-7.72-1.06-1.71-6.46-8.4-8.36-8.06-3.04,2.87,2.67,5.04,4.27,6.89,1.01,1.17,2.61,4.13,3.54,5.67.66,1.09.93,4.61,3.02,3.22ZM42.87,487.66c.06-4.44.17-10.07-4.27-12.48-1.19.81-.79.96-.7,1.98.25,2.67,2.1,5.71,1.73,8.68,1.04.96,1.53,2.25,3.24,1.82ZM48.95,477.32c-1.04,1.03-4.23,9.82-1.8,10.33,1.38.29,1.43-1.39,1.73-2.2.39-1.05,2.52-6.97,2.52-7.36-.01-1.68-1.45-1.77-2.45-.77ZM480.08,625.7c-2.04-2.1-5.74,5.26-6.89,6.58-6.6,7.56-21.26,10.65-30.77,12.62l-1.12,2.49c14.38-.83,29.9-5.44,37.5-18.57.16-.27,2.59-1.77,1.28-3.12ZM202.62,666.48c-.95-1.45-8.93,1.92-11.04,2.39-39.55,8.83-81.95-7.17-119.3,2.33-.89.23-2.69.96-2.45,2.14.29,1.42,1.84.58,2.48.55,6.38-.31,13.15-1.88,19.52-2.21,30.3-1.57,60.46,6.53,90.66,1.9,6.75-1.03,13.32-2.9,19.76-5.1.65-.12.49-1.82.37-2ZM411.68,674.3c.24-5.69-7.67.49-10.5,1.67-37.86,15.75-80.55,20.65-121.29,16.11-20.11-2.24-37.59-7.7-58.04-2.15-1.7.46-10.99,3.46-10.66,5.1.61,3.05,9.38-1.53,11.15-1.98,25.64-6.52,52,3.19,77.94,4.29,14.38.61,30.94-.71,45.18-2.8,22.94-3.37,45.67-9.53,66.23-20.23ZM318.86,719.87c-7.22.86-15.62,5.81-19.85,11.7-3.57,4.98-4.18,8.81,1.8,11.89,10.05,5.18,37.9,5.05,47.08-1.81,5.92-4.42,3.2-9.02-1.27-13.11-7.09-6.49-18.23-9.82-27.76-8.68ZM282.44,779.27c-.7-2.3-4.28-13.65-7.81-12.91-3.07.65,1.7,5.1,2.31,6.22.75,1.39,1.75,3.58,2.16,5.07.96,3.46.13,13.76,4.95,9.31.42-1.26-.22-5.55-.62-6.95-.15-.51-.95-.58-1-.75ZM294.25,773.81c.73-1,3.61-2.34,3.72-4.48-3.66-3.47-8.55,5.89-9.69,8.7-.6,1.48-3.08,8.77-1.15,9.35,2.55.77,3.68-7.09,4.6-9.19.68-1.54,1.54-3.03,2.52-4.38ZM276.93,788.05c1.99-2.54-11.14-13.45-13.76-14.19-.89-.25-1.79-.16-2.01.72-.6,2.37,4.21,3.99,5.86,5.31,3.08,2.46,5.77,5.25,7.93,8.52.31.14,1.93-.28,1.99-.36Z" fill="#fff"/>
  <path d="M156.4,54.04c1.69,2.84,2.67,7.68,2.85,10.97,14.63-12.42,40.57-4.98,39.44,16.43,5.02-.64,15.63,3.91,17.25,8.72,2.69,8-1.68,13.69-9.66,14.31H37.26c-6.27-.83-9.55-2.15-9.55-8.9,0-4.28,2.36-6.87,5.64-9.52,5.03-4.05,8.53-3.48,14.78-3.3-1.46-21.74,26.75-29.79,41.41-16.44.67-15.37,15.2-25.82,29.33-28.19,13.9-2.34,30.09,3.39,37.52,15.9ZM147.83,49.48c-14.68-14.58-47.19-8.39-53.86,11.74-1.23,3.72-1.37,7.66-2.41,11.41-2.3,1.7-5.74-4.02-7.31-5.26-7.31-5.75-21.23-4.99-27.55,1.94-2.52,2.77-6.07,10.26-5.26,13.66.12.48,1.13.41,1.28.91,1.64,5.9-6.28,1.97-9.49,2.16-11.6.66-17.44,14.62-4.65,15.81h165.08c12.34-.42,11.61-14.03.33-16.16-3.6-.68-6.05.69-8.94-.27-.77-2.62.5-4.61.21-7.41-1.38-13.81-17.91-18.69-29.22-13.12-4.79,2.36-5.42,7.54-10.73,6.69.77-7.78-1.88-16.57-7.46-22.12Z"/>
  <path d="M537.03,94.18c3.71,4.96,5.6,12.63,5.51,18.82,8.56-2.63,19.01-3.59,25.32,3.94,2.68,3.2,5.42,8.55,5.34,12.72-.15,7.19-7.57,12.7-14.52,12.94h-126.28c-22.66-5.56,1.09-28.13,14.82-20.4.46-13.66,16.73-20.49,28.47-15.64,2.05.85,2.91,2.69,5.06,2.49,2.1-28.37,39.8-36.94,56.3-14.88ZM536.21,102.25c-2.33-4.94-4.16-9.23-9.1-12.28-16.76-10.32-40.65-1.43-43.07,18.76-.2,1.67.68,7.04-1.01,7.54-1.52.45-5.29-4.52-6.93-5.54-11.44-7.12-27.79,2.07-25.6,16.07-2.87.35-4.98-2-7.71-2.47-5.37-.92-13.57,2.32-15.78,7.58-2.64,6.28,4,7.05,8.67,7.41,27.74,2.09,60.69-.3,88.78-.73,10.35-.16,28.85,1.69,37.99-.1,6.86-1.34,7.29-8.16,5.7-13.95-2.42-8.8-12.75-12.4-20.8-9.04-3.28,1.37-4.98,5.07-8.74,4.73.44-5.37,1.07-11.29-.97-16.47-.47-1.19-1.3-1.27-1.41-1.51Z"/>
  <path d="M74.67,141.7c.34.6,4.09,4.31,4.79,4.73,2.14,1.26,7.13,1.29,6.84,4.34-.21,2.25-6.75,4.45-8.95,6.24-3.93,3.2-3.53,8.2-5.05,9.73-4.61,4.65-5.82-6.41-7.45-8.33-2.74-3.22-11.87-3.35-11.49-7.58.28-3.06,8.5-3.9,10.99-6.5,2.31-2.41,2.11-8.76,4.63-9.53,4.47-1.36,4.18,4.27,5.69,6.9ZM82.32,150.47l-8.17-3.34-4.31-8.5-3.91,8.91-9.25,4.22c3.47-.21,6.89,1.92,9.81,3.67l3.99,7.51c.14-2.87,1.59-5.34,3.3-7.55l8.54-4.93Z"/>
  <path d="M412.91,47.39c2.07,4.13,2.2,9.59,6.87,11.86,2.05,1,11.74,2.3,6.36,6.73-4.74,3.91-7.88.28-11.93,9.1-1.03,2.25-.39,5.78-3.49,5.77-3.45,0-3.16-4.68-4.57-7.33-1.12-2.1-3.21-4.21-5.43-5.09-2.56-1.01-7.34-.45-7.16-4.42s8.13-3.29,11.26-6.87c3.51-4.03,1.65-11.34,8.09-9.76ZM411.7,51.87c-1.88-.24-1.01.18-1.27,1.02s-2.08,4.49-2.66,5.23c-2.52,3.23-6.43,5.36-10.53,5.58,2.17,2.02,4.58,1.64,7.25,3.59,3.33,2.43,4.07,5.5,5.91,8.88,2.33-2.34,2.04-5.64,4.65-8.14,1.74-1.67,5.43-3.39,7.82-3.69-2.18-2.17-5.66-2.54-7.88-4.93-1.85-1.99-2.63-4.98-3.3-7.55Z"/>
  <path d="M554.87,204.87c-1.07,1.04-5.79,1.73-7.77,3.73-2.51,2.54-2.07,8.96-6.19,8.29-2.68-.44-2.4-5.26-3.83-7.07-2.16-2.73-7.92-3.95-9.02-5.1-3.66-3.82,7.73-7.5,9.47-10.25,1.59-2.51.89-5.66,4.05-5.83,2.83.22,3.79,6.82,5.87,8.53,1.55,1.27,11.53,3.71,7.42,7.71ZM542.54,193.19c-1.53-.28-1.05.13-1.46.85-.85,1.48-.96,3.31-2.53,4.69-1.44,1.26-6.58,2.71-7.18,4,5.3,1.42,9.19,4.51,9.87,10.18,1.85-1.01,1.67-3.7,2.72-5.49,1.72-2.93,4.62-3.83,7.79-4.38-.94-1.51-3.41-1.59-4.93-2.62-2.11-1.42-4.69-4.55-4.27-7.24Z"/>
  <path d="M247.19,63.2c.8.85.45,2.4.88,3.26.25.5.89.52,1.16,1.07.53,1.05.34,2.22,1.39,3.56,2.17,2.76,8.14,1.94,7.87,5.45-.21,2.63-5.23,3.2-6.84,4.95-1.91,2.07-2.05,8.94-6.59,8.56-2.41-.2-2.63-5.86-4.59-7.97s-8.37-2.74-8.15-5.44c.28-3.44,6.44-3.01,8.45-6.03,1.07-1.61,2.29-11.83,6.42-7.4ZM253.26,76.2c-1.65-.3-4.89-2.37-5.93-3.61-1.44-1.71-.78-3.89-2.61-4.95.25,4.42-2.89,7.29-6.59,8.87,4.09,1.5,6.13,5.01,7.57,8.88,1.4-4.58,4.2-6.21,7.56-9.2Z"/>
  <path d="M125.55,178.23c.88.9,1.03,3.93,2.11,5.45,1.87,2.61,6.95,2.35,6.63,5.23-.21,1.9-3.75,2.44-5.3,3.95-2.39,2.33-2.47,7.56-5.56,7.6-4.38.06-2.97-4.44-5.31-7.24-1.86-2.23-6.37-1.91-5.6-5.5.18-.83,4.99-2.23,6.32-3.69,1.43-1.57,3.5-9.11,6.71-5.79ZM125.87,187.11c-.29-.27-2.05-5.21-2.78-4.44.17,2.69-3.05,4.31-5.26,5.27-.95,1.38,3.38,2.89,3.97,3.74.63.92.94,2.97,1.29,4.13l5.9-6.91c.63-1.47-2.2-.94-3.12-1.8Z"/>
  <path d="M411.68,674.3c-20.56,10.71-43.29,16.87-66.23,20.23-14.24,2.09-30.8,3.41-45.18,2.8-25.94-1.09-52.3-10.81-77.94-4.29-1.77.45-10.54,5.04-11.15,1.98-.33-1.65,8.96-4.64,10.66-5.1,20.46-5.55,37.93-.09,58.04,2.15,40.73,4.54,83.43-.36,121.29-16.11,2.83-1.18,10.75-7.36,10.5-1.67Z"/>
  <path d="M202.62,666.48c.12.18.28,1.88-.37,2-6.43,2.2-13,4.07-19.76,5.1-30.2,4.62-60.36-3.47-90.66-1.9-6.36.33-13.13,1.9-19.52,2.21-.64.03-2.19.86-2.48-.55-.24-1.18,1.56-1.91,2.45-2.14,37.35-9.5,79.75,6.5,119.3-2.33,2.1-.47,10.08-3.84,11.04-2.39Z"/>
  <path d="M318.86,719.87c9.53-1.14,20.68,2.19,27.76,8.68,4.46,4.09,7.19,8.69,1.27,13.11-9.18,6.86-37.04,6.99-47.08,1.81-5.98-3.08-5.37-6.92-1.8-11.89,4.23-5.9,12.64-10.84,19.85-11.7ZM320.18,722.51c-6.37.57-15.46,5.36-18.82,10.76-4.01,6.44-.92,7.35,5.27,8.98,10.26,2.7,26.67,2.77,36.58-1.32,4.05-1.67,6.3-3.61,3.41-7.76-5.06-7.26-17.87-11.41-26.44-10.65Z"/>
  <path d="M480.08,625.7c1.31,1.35-1.13,2.85-1.28,3.12-7.6,13.13-23.12,17.73-37.5,18.57l1.12-2.49c9.51-1.97,24.17-5.06,30.77-12.62,1.15-1.32,4.85-8.68,6.89-6.58Z"/>
  <path d="M282.44,779.27c.05.17.85.23,1,.75.4,1.4,1.03,5.69.62,6.95-4.83,4.45-4-5.85-4.95-9.31-.41-1.48-1.42-3.68-2.16-5.07-.61-1.13-5.38-5.57-2.31-6.22,3.53-.75,7.11,10.61,7.81,12.91Z"/>
  <path d="M294.25,773.81c-.99,1.36-1.84,2.84-2.52,4.38-.92,2.1-2.05,9.96-4.6,9.19-1.93-.58.55-7.87,1.15-9.35,1.14-2.81,6.03-12.17,9.69-8.7-.11,2.15-3,3.48-3.72,4.48Z"/>
  <path d="M276.93,788.05c-.06.08-1.68.5-1.99.36-2.16-3.27-4.85-6.05-7.93-8.52-1.65-1.32-6.46-2.93-5.86-5.31.23-.89,1.12-.97,2.01-.72,2.62.74,15.75,11.65,13.76,14.19Z"/>
  <path d="M37.6,488.97c-2.08,1.4-2.35-2.13-3.02-3.22-.93-1.53-2.53-4.5-3.54-5.67-1.6-1.85-7.31-4.03-4.27-6.89,1.9-.34,7.3,6.35,8.36,8.06.74,1.19,3.81,6.81,2.46,7.72Z"/>
  <path d="M42.87,487.66c-1.71.43-2.19-.85-3.24-1.82.37-2.97-1.48-6-1.73-8.68-.09-1.02-.49-1.17.7-1.98,4.44,2.41,4.33,8.03,4.27,12.48Z"/>
  <path d="M48.95,477.32c1.01-1,2.44-.9,2.45.77,0,.39-2.13,6.31-2.52,7.36-.3.81-.35,2.49-1.73,2.2-2.44-.51.76-9.3,1.8-10.33Z"/>
  <path d="M343.99,241.83c.72.74-1.8,12.06-1.96,14.14-.77,10.24,4,23.44-4.67,30.83-5.38,4.58-16.21,3.57-21.34-.9-1.26-1.1-1.45-3.58.08-3.94.64-.15,8.52,4.03,12.44,3.96,14.36-.25,9.09-17.8,9.51-27.36.14-3.36.82-11.44,2.05-14.25.26-.6,3.1-3.3,3.9-2.48Z"/>
  <path d="M305.5,241.55c.99,1.45,1.62,1.87.99,4.42-.08.32-2.49,4.94-2.98,5.68-5.58,8.46-17.41,6.17-14.68-4.8,1.77-7.1,12.11-11.93,16.67-5.3Z"/>
  <path d="M365.52,255.13c8.59-1.25,6.22,9.1,3.08,13.61-2.33,3.36-5.47,5.12-9.69,3.86-5.75-1.73-1.26-16.32,6.61-17.47Z"/>
  <path d="M296.49,289.32c.42.5,1.8,5.51,2.9,7.29,4.72,7.68,12.58,9.57,21.09,7.5,1.76-.43,3.09-2.08,5.1-1.8-.04,8.23-16.3,7.53-21.5,5.39-5.53-2.27-13.82-12.86-10.68-19.18.43-.29,2.69.31,3.1.8Z"/>
  <path d="M297.82,210.46c5.12-.62,9.96-.49,14.78,1.29,2.62.97,8.24,3.24,6.99,6.65-1.01,3-9.96-2.29-12.92-2.69-4.19-.58-9.21-.15-13.33.8-1.85.42-8.58,4.3-8.55.68.03-3.2,10.3-6.39,13.03-6.72Z"/>
  <path d="M387.22,239.35c.38.67.28,1.66.07,2.39-3.68,2.09-5.53-2.87-8.9-5.05-2.89-1.87-14.38-4.5-13.98-6.94.61-3.74,10.85-.76,13.26.42,3.91,1.92,5.87,4.9,8.14,8.33.28.42,1.25.56,1.41.84Z"/>
  <path d="M376.04,471.39c.69.6,1.97,5.82,2.89,7.3,4.92,8,18.49,4.84,21.62,7.96,3.45,3.44-3.32,8.49-6.14,9.68-13.42,5.65-30.64-6.1-25.09-21.14.96-2.61,3.94-6.25,6.72-3.8ZM390.01,492.27c-5.46-1.8-9.78-5.49-15.78-5.92-1.3,1.02,13.38,11.3,15.78,5.92Z"/>
  <path d="M433.22,474.7c1.91,2.99,1.15,10.17-2.8,11.63-3.1.74.23-8.77-4.26-10.82-3.69-1.69-9.07,3.12-9.85,2.29-.81-5.83,8.16-8.58,12.67-6.42.37.18,4.09,3.09,4.24,3.32Z"/>
  <path d="M384.55,441.85c2.41,2.24,6.02,10.44,1.05,10.86-3.81.32-.91-7.04-5.27-8.31-3-.87-11.2,4.23-11.34,1.52-.21-3.92,11.63-7.72,15.56-4.08Z"/>
  <path d="M400.53,464.65c-3.87.69-5.01-3.65-8.81-3.28-4.6.46-3.69,5.8-3.68,9.2-7.43.45-5.52-9.49.07-12.09,6.37-2.97,14.42,4.19,12.42,6.17Z"/>
  <path d="M448.14,453.87c2.1,2.06,5.6,6.37,4.72,9.48-1.71,6.07-3.66-2.07-4.21-3.09-2.29-4.3-6.11-6.5-10.62-8.12l.27-1.97c3.57-1.61,7.34,1.26,9.83,3.7Z"/>
  <path d="M401.19,425.87c-1.01,1.48-7.59-1.81-9.54-1.97-3.28-.27-5.98,1.12-8.74,1.18-.79.02-1.85.12-2.09-.88-.94-3.96,9.89-3.84,12.16-3.58,1.77.21,9.99,2.64,8.21,5.25Z"/>
  <path d="M283.3,478c-.74-.77-7.61-5.18-4.04-6.11,2.44-.63,6.25,3.82,7.42,5.69.53.85,2.35,3.68.43,4.16-2.52.63-2.85-2.74-3.81-3.74Z"/>
  <path d="M302.24,468.62l.86,2.81-6.12,9.65c-3.37-.74,2.26-12.1,5.25-12.47Z"/>
  <path d="M292.02,480.42c-.16.11-1.9.28-2.01-.37-.04-1.9-3.45-11.56-.92-12.1s3.8,11.89,2.92,12.47Z"/>
  <path d="M147.83,49.48c5.58,5.54,8.24,14.34,7.46,22.12,5.31.84,5.95-4.34,10.73-6.69,11.31-5.57,27.84-.69,29.22,13.12.28,2.8-.99,4.79-.21,7.41,2.89.95,5.35-.41,8.94.27,11.28,2.13,12,15.74-.33,16.16H38.57c-12.78-1.2-6.95-15.15,4.65-15.81,3.22-.18,11.13,3.75,9.49-2.16-.14-.51-1.16-.43-1.28-.91-.81-3.4,2.74-10.9,5.26-13.66,6.32-6.93,20.24-7.7,27.55-1.94,1.58,1.24,5.02,6.96,7.31,5.26,1.04-3.75,1.18-7.69,2.41-11.41,6.67-20.13,39.18-26.32,53.86-11.74Z" fill="#fff"/>
  <path d="M536.21,102.25c.11.23.94.31,1.41,1.51,2.05,5.19,1.41,11.1.97,16.47,3.76.34,5.47-3.36,8.74-4.73,8.05-3.36,18.37.25,20.8,9.04,1.6,5.79,1.16,12.61-5.7,13.95-9.14,1.78-27.64-.06-37.99.1-28.09.43-61.04,2.82-88.78.73-4.68-.35-11.31-1.12-8.67-7.41,2.21-5.26,10.41-8.49,15.78-7.58,2.73.47,4.84,2.82,7.71,2.47-2.19-13.99,14.16-23.18,25.6-16.07,1.64,1.02,5.41,6,6.93,5.54,1.7-.51.81-5.88,1.01-7.54,2.42-20.19,26.32-29.09,43.07-18.76,4.94,3.04,6.77,7.34,9.1,12.28Z" fill="#fff"/>
  <path d="M82.32,150.47l-8.54,4.93c-1.71,2.21-3.16,4.68-3.3,7.55l-3.99-7.51c-2.92-1.75-6.33-3.88-9.81-3.67l9.25-4.22,3.91-8.91,4.31,8.5,8.17,3.34Z" fill="#fff"/>
  <path d="M411.7,51.87c.67,2.57,1.45,5.56,3.3,7.55,2.22,2.39,5.7,2.76,7.88,4.93-2.39.29-6.08,2.02-7.82,3.69-2.61,2.5-2.32,5.81-4.65,8.14-1.84-3.39-2.59-6.46-5.91-8.88-2.67-1.95-5.08-1.57-7.25-3.59,4.1-.22,8.01-2.35,10.53-5.58.58-.74,2.4-4.4,2.66-5.23s-.61-1.26,1.27-1.02Z" fill="#fff"/>
  <path d="M542.54,193.19c-.41,2.69,2.17,5.82,4.27,7.24,1.52,1.03,3.99,1.11,4.93,2.62-3.17.55-6.06,1.45-7.79,4.38-1.05,1.79-.87,4.48-2.72,5.49-.67-5.67-4.57-8.77-9.87-10.18.6-1.28,5.74-2.73,7.18-4,1.57-1.38,1.69-3.21,2.53-4.69.41-.72-.08-1.13,1.46-.85Z" fill="#fff"/>
  <path d="M253.26,76.2c-3.36,2.99-6.16,4.62-7.56,9.2-1.44-3.87-3.48-7.38-7.57-8.88,3.69-1.59,6.84-4.46,6.59-8.87,1.82,1.05,1.17,3.24,2.61,4.95,1.04,1.24,4.28,3.3,5.93,3.61Z" fill="#fff"/>
  <path d="M125.87,187.11c.92.86,3.75.32,3.12,1.8l-5.9,6.91c-.35-1.16-.66-3.21-1.29-4.13-.59-.86-4.92-2.37-3.97-3.74,2.21-.96,5.43-2.58,5.26-5.27.73-.77,2.49,4.16,2.78,4.44Z" fill="#fff"/>
  <path d="M320.18,722.51c8.57-.76,21.38,3.39,26.44,10.65,2.89,4.15.64,6.09-3.41,7.76-9.91,4.09-26.32,4.02-36.58,1.32-6.19-1.63-9.28-2.54-5.27-8.98,3.36-5.4,12.46-10.19,18.82-10.76Z" fill="#fff"/>
  <path d="M390.01,492.27c-2.4,5.38-17.08-4.9-15.78-5.92,5.99.43,10.32,4.12,15.78,5.92Z" fill="#fff"/>
</svg>