<?xml version="1.0" encoding="UTF-8"?>
<svg id="Camada_1" xmlns="http://www.w3.org/2000/svg" version="1.1" viewBox="0 0 595.3 841.9">
  <!-- Generator: Adobe Illustrator 29.0.0, SVG Export Plug-In . SVG Version: 2.1.0 Build 186)  -->
  <path d="M595.1,841.3c1.4,1.9-595.1,0-595,.7-1.4-1.9,595.1,0,595-.7Z" fill="#fff"/>
  <path d="M3.4,3.2v197.2c25.1-15.3,56.7-6.6,64.1,23,19.1-12.4,50.3-7.2,51.6,19.1,13-5.1,30.9.4,29.6,16.8-.9,10.6-14.5,10.9-22.7,11.5-39.7,2.8-82.6-2-122.6,0v67.7c24.5-4.5,44.1,14.2,64.4,24.3,3.4-30.4,29.3-56.6,59.7-60.9,10.8-1.5,36.7.7,47.5,3.4,20.8,5.2,35.1,24.5,37.5,45,17.6-7.9,38.2-24.3,58.2-24.4,23.7,0,48,24.1,69.4,32.6l2.2-.3c-1.2-20-2.8-40.4-10.1-59.2-20.4,15-53.5,13.1-60.8-14.4-24.7,17.2-65.4-.6-54.3-33.4l-.9-1.5h-12.5c-1.7,0-11.3-3.6-13.2-4.6-24-12.9-21.6-47.8,3-58.2-23.3-20-2-54.1,25-53.6-7.3-14.8-2.1-27.5,7.2-39.4l-130.2-.3c-26.9-8.3.6-42.1,20.4-30.6,9.8-25.4,43.7-34.4,62.7-13.2,15.7-20.4,54-15.4,55.6,13.2,6.9-3.8,16,2.2,20.2,2.5,3.7.2,8.1-4.2,13.1,1.5,13.4-20.3,37.1-25.6,59.1-17.9,15.6-14.8,40.4-17.4,58.7-5.2,19.1-15.4,49.1-8.2,56.5,15.8,6-6.4,26,1.3,28.8.6.5,0,3.6-4.3,5.7-4.9,4.7-1.5,8.8-2.5,13.7-4.1,1.5-.5,5.5.2,6-.2.3-.2.7-5.4,1.3-6.9,9.5-22.2,47.1-18.7,53.6,4.3,13.5-9.1,32.4-2.3,35.9,13.7.6.4,4.5-.4,4.5-.6V3.2H3.4ZM122.8,172.8c4.3-5.2,18-11.6,24-7.5,5.2,3.6-9.2,7-12.1,8.8-3.3,2-5.4,5.3-8.6,7.5-.9.6-1.4,2.9-3.4,1.9-6.2-8.2-14.7-10.8-23.2-15.6,6.8-6.7,18.3-1.8,23.3,4.9h0ZM105.9,136.6c-13.3,3.1-20.9,11.1-30.4,19.8-9.8-12.3-21-16.7-34.6-23.4,10.6-8.8,28.5-3.7,35.9,6.9,6.3-5.9,25.8-15,29.1-3.4h0Z" fill="#fff"/>
  <path d="M460.4,457.4l2,8.9c68.7-14.5,107.3,158.4-.6,82.7-4.3-3.1-10.1-10.1-13.9-12.4s-10.1-3.7-15.3-7.1-24.8-21.4-22-29c2.6-7.1,14.9,10.9,18,12l1-1c.5-5.4-19.3-15.3-13.3-20.7s17.8,11.4,22.2,14.4c4.5-4.9-17-15.5-10.1-18.9s19.2,15.6,22.2,13c.9-3.5-17.3-15.2-7.9-15.5s15.7,13.4,17.6,18.6,1.9,11.1,2.8,12.3c1.4,2,36.4,18.2,39.3,18l2.1-.9-1.1-2.2c-15.5-2.9-17.9-10-21.9-23.8-5.5,1.2,2.6,15,2,15.8-2.6-1.6-15.8-7.1-16.9-8.7s-1-7.6-2.2-10.5c-3.4-8.1-18.4-29.9-27.3-18.4-1.5.4-4.5-1.6-7.7-1.2s-4.8,4.4-5.4,4.6c-1.8.6-5.2-1.7-9,.7-3.7,2.4-2.1,5.1-3.4,7.1s-4.6,4.2-4.9,5.1c-2.4,9.6,19.6,28.9,27.4,33.6,13.3,7.9,16.6,10.4,28.8,19.8s11.9,6.4,16.1,11.2c-29.4,5.8-61.9,5.7-90.7-3-4.5-4.2-1.2-45.3,0-53.2s3.1-9.9,3.8-14.7,1.6-4.6-.1-6c-4.4,0-8.7,37-8.9,41.7-.4,8,1.7,21.7.7,28.3-1.5,9.4-44.5,41.1-49.4,37.5s.1-4.4-3.9-3.7c1.4,12.8-5.9,12.1-12.8,17.1s-7.3,11.5-12,10.3,3-11.2,3.2-13.1l-.5-1.7-10.5,10.4c-9.9-2.3.4-9.1,1-14.4l-8.4,7.1c-7.9.8-7.7-8.2-2.8-12.1,13.1,8.2,11-1.7,15.2-5.2,2.3-1.9,9.4-.7,8.5-6.3-4,.8-7.5,4.7-11.5,1.4-4.8-13.6,11.5-9.5,17.6-10.7,3.8-.7,23-17.8,26.5-21.6,26.3-28.3,24.3-85.3,73.8-88l.7,6.1,1.6.3,2-9.6c13.1,1.7,26.2,0,38.5-4.8l-.2.4ZM318.3,600.1c1.2-1.1-5.2-7.3-6.6-5.9,0,4,2.6,6.1,6.6,5.9Z" fill="#fff"/>
  <path d="M498.3,571.3c6.3,14,10.2,34.7,12.6,49.6.7,4.6,4.2,28.4,1.6,31-43.5,19.2-100.5,17-144.6,0,1.7-29.3,10.4-57.9,18.1-86.5,22.7,5.9,47.9,8,71.3,6.3s22.3-5.1,27-4.9,13.4,3.9,14,4.5h0Z" fill="#fff"/>
  <path d="M332.4,252.1c23.7,44.1,35.5,59.8,54.3,1.6l22.3,4c-4.9,20.3-10.8,40.7-10.4,61.9-8.4,3.1-16.9,7.5-18.3,17.3-.4,2.6.8,8.8.5,9.7s-3.6,3.1-4.6,5.3c-5.3,11.3-4.4,22.8,4.1,32.3-17.4,35.4-3.9,69,35.5,77.9-43.6,4-49.5,48.4-66.4,79.5-16.9-15.2-39.7,4.4-59.2-2.6-2-4.4,21.4-10,25.7-13.4,34.5-19.3,29.6-145.3,29.5-182.2-2.7-34.7-17.8-66.7-32.8-97.4,1.1-.5,2.4-4.1,2.6-4.2.7-.3,13.8,3.8,14.4,4.3s1.9,4.5,2.9,6h-.1ZM362.4,322c-5,1.3-1.6,10.1-2.7,14.2l3.7,10.8c1.7-7.6-.3-17-1-25ZM356.5,381.5c-1.6,8.9,1.2,22.5,0,31.9,1.2.2,1.3-.3,1.8-1.1,2.3-3.8.4-27.3.1-33-1.4-.5-1.8,1.5-2,2.3h.1ZM366.3,439.7c-1.5-.3-1.1,0-1.5.8-1.4,2.4-1.8,22.1-.6,23.8l2,.4v-25h.1ZM351.6,496.6c.5-2.6,2.8-14.4.6-15.5-5.8,2.6-5.1,27.9-8.2,34.8,2.7,1.3,7.3-17.4,7.6-19.3h0Z" fill="#fff"/>
  <path d="M263.4,415.4c-11.4,2-18.9,16.6-18.8,27.2s3.4,12.6,5.9,18.8h-25.6c5-12.7-3.7-23.2-2.6-35.2.8-9.7,5.7-14.7,4.6-26.9s-17.8-38.1-13.2-46.1,34.9-18.7,39.1-20.1c36.7-12.9,58.6,18.1,89.9,30.7l-5.9,96.7-19.7.5c6.2-17.4,7.2-42.8-16.5-44.9,4-6.4,11.6-13,6.6-21.4-10.5-3.9-19.2,2.6-25.6,10.2-1.1-5-5.7-14.4-11.8-11.5-11.2,5.4,4.9,15.1,5.2,22-3.5.4-8.2-.6-11.5,0h-.1Z" fill="#fff"/>
  <path d="M501.9,404.6c-4.3,1.6-10.2,11.7-16,3.3-3.5-5,.2-8.7-.6-11.2-.2-.8-4.2-2.9-5.4-4.6-5-7.1-4.9-17.6-1.8-25.4-9.1.9-20.3,2.8-23.4-7.9-2.8-1.1-14.1,6.6-24-.9-1.4-1-3.3-4.9-3.7-5-2.3-.6-21.3,10.5-25.3-1.2-11.6-1.2-24.2,48.8-25.5,57.4-3.3,51.9,63.3,63,97.2,37.4,3-2.3,13.3-15.1,14.3-15.3,1.2-.3,6.8,2.7,9.4,2.9,23,1.9,24.6-37,4.7-29.5h0ZM392.2,367.6c1.6-2,21.3-7.2,22.2-.5,0,3.2-28.2,7.8-22.2.5ZM392.8,392.8c-3.1-4.1,0-15.9,7-12.6,6.6,3.2-1.3,20.1-7,12.6ZM402.5,401.2c2-3.2,6.2-2.9,8.9-4.9,4.4-3.2,3.4-7,7.2-9.9,1.8,2.3.3,6.8-1.2,9-3.5,5-12.1,4.2-13.6,10.4.2,7,13,5.5,12.5,7.2-7.6,5.1-19.6-2.6-13.8-11.8h0ZM421.2,437.7c-6.5-.7-9.3,3.9-14.8,1.6l-1.8-3.4c-.4-4.5,7.2-8.1,10.8-8.6,5.6-.8,15.5.9,17.7,6.9,4.3,11.5-8.7,3.8-12,3.4h0ZM440.2,402c-4.8-3.5,0-17.1,8.3-13.3,6.3,5-1.2,18.6-8.3,13.3ZM466,383.2c-2.2,2.8-16.2-9.1-20.1-9.6-1.4-1.5-.6-3.5,1.1-4.2,4.7-1.8,21.9,10,19,13.7h0ZM499.3,419.2c-5.6,1-.8-5,4.3-5.6,9.6-1.2-2.4,5-4.3,5.6Z" fill="#fff"/>
  <path d="M200.9,363.2c13.5,45.8-4,80.2-56.3,71.7-30.9-5-42.1-29.8-39.9-58.9,20.9-8.4,43.3-23.6,53.2-44.5,19.8,5.4,40.8,6.6,43,31.7h0ZM197.4,354.9c1.5-8-24.6-7.9-18.7-.9,7-2.8,12-1.6,18.7.9ZM129.7,369.3c4.1-1.9,6.2-5.5,10.5-7.6s8.8-1.7,12.5-4.6c-.4-5.8-26,4.3-23,12.1h0ZM191.3,362.2c-7.3,1-5.3,16,1.7,15.6s7.6-16.9-1.7-15.6ZM147.3,371.4c-8.6,1.2-4.9,16.9,2.4,16.1,6.8-.9,5.9-18-2.4-16.1ZM173.6,374.7c-3.9-.5-2.5,3.3-1.2,5.3,3.8,6,19.3,6.1,2,14.6-1,3.3,13.2.4,11.8-7.8-2.2-5.5-10.8-5.1-12.5-12.1h-.1ZM159.4,418.5c1.4,1.3,19.5-1.7,20.3-2.8,2-10.6-24.4-7.1-20.3,2.8Z" fill="#fff"/>
  <path d="M3.4,205.4c22.9-18.7,58.3-7.3,60.5,23.3,13.2-7,31.7-13.8,44.6-2.2,6.8,6.2,5.2,13.1,7.3,21,3.4-.4,5.9-2.8,9.2-3.3,21.6-3.6,28.6,23.4,6.3,23.4H3.4v-62.1h0Z" fill="#fff"/>
  <g>
    <path d="M99.6,531.9c-2.3.4-10.1,31.1-10.1,35,0,8.6,20.7,42.2-6.5,28.6l-4.4,36c41.8,12.9,89.2,13.9,130-2.8,1.8-32.2-8-64-16-94.8-30.2,5.9-63.5,8.4-93-2Z" fill="#fff"/>
    <path d="M93.4,595.3c3.2-8.5-7.2-19.3-7.6-25.3-1.3-17.4,16.6-52.3,22.9-69.5,2.7-7.2,3.9-14.9,6.8-22.1l2.3-.7-1.3,7.9c23.5-3.6,50.7-17.6,58.5-41.4-.3-.5-6.9-1-7.2-.7-.6.6,1.7,4.8-2.7,3-1.4-3.7-1.8-4-.6-7.6-11.6.5-23.5-.4-34.2-5.3-.9,2.9.3,16.1-4.5,11.7-.4-.4,0-2.4,0-2.5-54.6,5-59.3,80.9-67.9,121.8-3.1,14.8-12.3,24-2.7,40.7.8,1,1.3,1.5.9-.4v-11.8c0-.9,1.7-4.2,3-2.3-.7,7.1-1.5,23.9,9.6,20.6-1-6.1-3.8-16.5,1.3-21.3v13.1s1.1-.3,1.3.5c.8,3-.3,8.7,5.6,6.1l5.2-23c3.3,3.3,4.7,11.1,11.4,8.4h0Z" fill="#fff"/>
    <path d="M200.9,462.4c-6.6-7.2-12.7-15.2-23.2-16.8-7.1,26.4-37.8,38.6-62.1,44l-13.8,38.8c4.3,9.5,78.5,8.8,88.4,1.6,9.7-7,4.2-56.3-.6-68,3.9-.4,3.9,3,4.9,5.9,3.1,9,3.9,21.4,4.3,30.9,1.8,2.1,17.9-10.9,19.1-13.5.3-3-14.1-19.9-16.9-22.9h-.1Z" fill="#fff"/>
  </g>
  <g>
    <path d="M484,361.5c-3,8-5.8,12-4.5,21.3,1.2,8.8,10,11.3,10.4,12.7.5,1.7-3.8,6.2-1.2,10.3,4.7,4.9,7.4-2.1,11.1-3.9,23-9.1,26.2,26.2,6.6,33.9,6.2.9,14.8-8.5,16.5-14.1,2.5-8.3-.6-11.3,0-16.4,1-8.6,7.9-11.6,5.8-26.9-1-7.5-6.5-11.3-7.6-15.4-1.8-6.6,0-10.7-5.4-17.6-7.6-9.4-19-7.6-24-13.8-7.1-8.6-9.7-14.2-23-14.8-6.4-.3-11.6,2.8-15.8,2.6-6-.2-9.9-4.9-19-3.2-5.9,1-13.5,8.1-14.6,8.3-1.3.3-11.1-2-15.1-1.8-7.8.4-18.3,5-20.2,13.3-1,4.4.8,9.3,0,11.9-.4,1.6-4.4,4.3-5.3,5.9-3.5,6.5-4.4,20.6,2.8,24.8,2.7-9.7,5.9-18.9,12.5-26.6,2.9-3.4,6.2-2.4,7.6-8.8l1.8,1.5c.7,16.1,17.1,7,25.8,3.7,3.5,13.9,17.9,9,27.9,6,1.8,14.9,17.3,9.1,27,7.2h0Z" fill="#fff"/>
    <path d="M533.5,380.7c-1.3,5-.6,9.5-2,14.8-.9,3.7-5.2,8.2-5.4,11-.9,9.8,3.5,14.6-5.3,24.9-4.7,5.5-11.4,6.4-15.1,9.2-1.3,1.1-2.7,5.2-4.2,6.6-4.8,4.5-13.2,7.2-19.8,7.5-6.5.3-14.1-3.9-18.8,2.3l1.8,4.3c1.9.8,38.7.5,40.6-.2,1.2-.4,5.2-7.1,9.5-8.9,4.7-1.9,8.4-1.8,13.3-1.1,2.4-12.2,10.9-15.3,22.3-11.6-1.4-15.7,10.8-21,22.4-11.2,0-9.7,7.7-20.5,18.4-17.7v-50.3c-20.5-2.6-39,13.6-57.7,20.2v.2Z" fill="#fff"/>
  </g>
  <path d="M3.4,341.7c23.9-4.3,44,14.4,63.8,24.6.2,7-.5,13.9-2.4,20.7-3.8,13.8-14.1,18.1-11.2,35.5,1,5.9,6.1,11.2,5.5,17.6l-11.7.7c1.4-15-9.2-18.3-21-11.8.6-12.5-10.8-23.3-23-16.4v-71h0Z" fill="#fff"/>
  <path d="M583.3,66.7c-.4-18.8-22.3-24.5-34.8-12.5-3.9-5.7-2.2-10.9-8.9-16.2-14.5-11.4-41.3-4.4-41,16.1-6.2-1.6-9.9,2.6-13.5,3.6-1.9.5-10.4-.9-10.8,3.1-.1,1.7,23.9,16,21.6,24.6h95.3v-20.4s-7.9,1.7-7.9,1.7Z" fill="#fff"/>
  <g>
    <path d="M589.2,603.3c-.6-4.5,4.7-27.3.2-28.9-10.6,3-10.4,17.5-12.4,26.3-2.8.8-7.3-14.4-9.3-17.6-1.1-1.7-6.3-7.3-8.1-7.8l-3.4.8c-3.9,5,9.8,29.7,8.6,31.1-8.4-6.2-18.9-17.4-30.2-14.1,2.9,4.6,7.1,8.8,11.5,12.1,1.8,1.3,8.5,2.3,5.9,5.3-8.7-2.6-18-8.8-20.7-18,.7-7.6,21.7-.2,25,4.2-2.9-7.8-9.3-31.9,7.6-22.3,6,3.4,7,10.7,11.5,15.1,2.2-6.8,4.4-13.9,10.9-17.7,1.7-1,4.9-.5,4.9-.7v-107.1l-107.8.7c6.6,3.4,13.8,6.1,19.7,10.8,24.1,19.1,52.6,97-.7,96.3,4.4,10.5,18.5,76.6,13.5,82.2-1.8,2.1-16.8,6.2-20.3,7.3l-1.1,1.5c3,21.1,2.4,44.2,5.9,65.1,1.1,6.8,8.7,14.2,1.7,23.3-1.3,1.7-30.7,15.9-33.9,16.7-6.2,1.6-22.8.3-28.9-1.9-2-.7-2.3-3.2-3.7-3.6-2.9-.8-9.1,1.7-10.1-4.4-2-12,27.2-22,34.8-27.8l-12.1-62.6-25.9.4c-.6,14.1-1.4,28.5-.1,42.6,1.7,18.5,14.3,35.3-10.6,42-7.6,2-37.2,9.9-43,9.7-6.8-.3-5.5-3.4-7.7-4.5-3.1-1.6-9.2-2.9-12.7-6.1-16.1-14.5,26.6-23.6,33.9-28.7-3.9-21.2-6.2-42.5-5.3-64.2-4.4-2.9-12-1.9-12.6-8.7.6-22,12.6-62,18.5-83.8-14.2,14.9-31.3,26.5-50.1,34.1-1.2,1-2.2,4.3-4.1,6-3.4,3-7.4,3.4-10.2,5.6-4,3.3-7.2,13.4-15.2,10.5-3.8-8.7-3.8-2.9-9.4-5.7-2.7-1.3-2.6-4.6-3.7-5.5-2.3-1.7-6.5,0-8.9-5.6-3.5-8.4,3.2-8.8,5.1-12.7,1.7-3.5.4-8.7,2.6-11.4,1.5-1.9,5.3-1.9,6.6-2.9,2.5-1.9,1.7-3.9,6.1-5.7,5.9-2.4,12.1-.8,16.3-2,3.4-1,28-23.1,28.4-26.2-6.7-13.9-29.3-2-41.7-1.7-3.1,0-17.2-.5-18-4.7-1.2-6.2,17.3-10.5,21.5-12.7,25.3-12.8,24.9-36.9,28.5-61.9l-17.8.9c-2.7,23-27.9,30.3-47.9,29-17.7,23.2-45.8,48.3-73,20.7-6.6,15.8.7,25.3,4,39.7,3.2,13.9,13.8,63.1,11.2,74.3-1.1,4.7-15.3,6-16.4,8.6l-3,55.4c8.8,3.3,41.9,13.1,27.6,27-.7.6-14.4,8.2-15.3,8.4-6.5,1.6-43.9-8.7-45.5-7.1,2.8,7.1-16.6,12-21.3,12.5-10.7,1.2-46.8-4.3-50.8-16-2.3-6.8,2.2-15.1,3-21.9,2.2-18.5,2.6-37.1,3.2-55.7l-19.5-6.4.9-19.6c-5.3-1-8.2,2.6-13.8.6-4.3-1.6-12.1-9.1-13.2-13.7-4.9-19.5,3.1-22.8,6.2-36.5,2.8-12.5,2.1-28.3,5.2-42.1,2.4-10.5,7.1-22.1,11.2-32.1-12.3-4.6-18.5-13.8-20.1-26.6l-48.2.6v97.3c0,.3,3,0,4.6,2.3,1.7,2.4.6,4.8,2.3,6.9,12.7-7.8,18.2-1.7,10.9,10.5,28-2.6,14.8,17.1-4.3,17.1H3.4v239.9h587.8c-2,.8,3.8-240.9-2-234.7v.2ZM574.8,503.4l-8.2,12.5c-3.5-.9,5.8-14.7,8.2-12.5h0ZM562.3,500.8c-.2,2-.9,15-2.9,14.5-3.2-1.5.6-17.4,2.9-14.5ZM554.4,515.9c-1.2,1.4-7.4-9.7-7.9-11.2,4.4-2,9.2,9.6,7.9,11.2ZM21.5,498.2l-4.9-11.2c3.9,0,5.8,5.3,6.9,8.3.9,2.5,2.8,4.9-1.9,2.9h-.1ZM28.1,496.9c-3-1.7.3-15.5,2.9-12.5l-2.9,12.5ZM35,498.2c-.5-4.1,2.4-7.3,5.4-9.4l2.4.2-.4,2-7.4,7.2h0ZM19.3,649.1c3.3-1.4,9-.7,9.7-1.2,1.1-.7.2-10.5,9.9-11.5,6.7-.7,12.1,3.1,12,10.1,2.5,1.4,4.8-.7,7.3-.5,11.4,1.1,10.9,15.8.4,18,9.8,9.2-4.7,19.5-14.5,14.1l1.3,19.1c5.3-7.9,15.2-15.6,25.5-12.3.3,29.3-54,41.4-53,4.2,1.6-3.2,13.3.5,15.7,1.9,3.9,2.2,4.6,5.3,7.9,7.5l-1.3-20.4c-8.3,6.4-22.7-.5-15.8-11.2-8.8,0-13.7-14.3-5.2-18v.2ZM64.6,798.6l-2-.5c.5-2-1.6-2.6-1.9-3.4-1.2-2.6-11-31.7-9.9-33,0,0,2.2,0,2.5,0,1.6,1.1,12.4,34.9,11.3,36.7h0ZM81.6,798.2c-.7.8-2.6,1.7-3.2,1-1-1,8.1-23.7,9.7-26.1.4-.7,6.2-8.6,6.8-5.1-2.2,3.6-3.8,7.4-5.5,11.3-1.3,3-7,18.2-7.7,18.9h-.1ZM101.7,805.8l-.7-2c4.4-2,31.1-14.7,27-21-9.6-5.2-24,2.3-31,9.2-1.5,1.5-6.1,10.1-7.5,8.6,2.9-11.5,12.2-19.7,14.9-31.4,1-4.4,3.5-17.1-3.4-17.8-9.9-.5-27.3,20.3-27.3,28.5v19.4l-2-.4c-3-12.3-1.4-26.4-7-38.9-5.9-13-27-30.9-25.7-3.2.6,14.3,10.5,27.4,14.4,40.9-.9,9.2-8.1-12.7-9.3-14.5-3.5-5.3-23.7-21.1-28.9-13.8-6.4,9,22.4,27.4,28,31.8l-.7,2c-2.2.2-18-11.5-20.4-13.8-24.5-22.8-5-32.3,16.8-16.4-14.2-54.3,27.7-34.7,32.9,0,3.1-2.3,4.2-6.9,6.7-10.1,24.3-30.5,41.5-7.5,23.5,20.6,8.7-3.7,19.7-8.9,28.5-2.5,6.6,9.9-21.6,23.4-28.8,24.8h0ZM182.3,815l-9.9-15.1c2.4-2.9,9.1,5.1,10.1,6.9,1.4,2.3,4.9,8.1-.2,8.1h0ZM191.5,813c-6.5,1.1-1.6-21.8,2-17.1l-2,17.1ZM208.2,803.8c-3,1.6-4.6,6.5-6.5,8.3-.8.7-2.6,2.1-3.7,2.2-3.6-4.4,12.1-16.3,10.2-10.5ZM261.5,543.6c2.2.3-2.5,7.4-3.2,8.3-.8,1-3,3.4-4.4,3.5-.8-5.3,3.9-8.8,7.6-11.8ZM246,543.2h3.3v11.2c-1,1.8-3.3,1.1-3.3-.7v-10.5ZM234.5,544.9c2,.8,2.6,2.3,3.9,3.7,1.8,2,3.9,3.7,3.7,6.8-4.8-.2-5.8-5.9-8.5-9l.9-1.5h0ZM233.2,617.8c7.1-4.2,10.5,4.7,15.4,4.6-.1-5.2,1-14.8,8.3-14.4,8.4.5,8.1,9.4,9.8,14.3,0,0,1.8,1.1,1.4,2.8,4.1-3.3,13-9.9,16.5-2.6,1.5,5.4-5,16.5-10.9,17.1-1.2-1.2,15.6-18.4,3.9-16.8-7.4,1-9.2,10.7-15.1,12.9,7.4-30-18-33.4-9.2-1-.1.6-1.9.5-2.2.4-1.1-.4-9.2-17.9-15.6-14.8-3.8,4.7,11.4,17.4,10.5,18.1-7.4,1.1-17.5-15.5-12.9-20.4v-.2ZM244.4,798.6c-4.2-5-12.3-21.1-.2-20.2,10.7.8,22.9,9.6,26.5,19.5,1.2-.4,2-23.3,1.3-24.3-.2-.3-4.7-2.3-5.9-3.3-1.3-.9-1.4-3.4-2.8-3.9-3-1.1-10.5,2.5-16.6-1.1-9-5.3-.5-14.5-.8-15.6-.6-2.4-9.3-3.6-5.7-13.7,3.4-9.6,12.4-6.1,16.9-7.8,2.2-.8,3.4-12.8,17.3-10.2,5.6,1,6.1,5.9,7.5,6.3,3.4,1.1,9.9-2.4,15.7,3.3,6.2,6.1.7,11.8.9,12.8,0,.4,4.1,2.7,5.5,4.7,7.5,10.6-5.3,17.2-14.7,15.4,3.3,12.1-11.2,11.5-13.7,13.9-.9.8-1.6,19.3-.5,19.6,8.9-8.3,20.3-14.4,32.9-13.9l.9,2.3c-3,29.2-47.2,37-64.8,16.1h.3ZM316.7,680.9l-.5-1.8,5.4-12-12.2,10.4-1.6-2.2c.8-2.2,1.4-13.3-1-14.1-5.9,2.1-4.7,10.9-4.9,15.8-1.8,2.4-8.8-12.4-13.8-11.2l7.9,14.4c-4.1,2.7-5-5.1-7.3-8.7-1-1.6-9.7-7.9-4.7-9.5,5.3-1.8,14.7,7,15.3,6.5,2.1-14.1,13.5-14.1,12.5,1.3,18-15.2,17.2,2.5,4.9,11.2h0ZM422.2,831.4l.3-2c26.2-23.4-5.2-16.3-12.1-.5l-2,.5c0-3.9,6.2-24.5,2.2-26.2-12.5.4-12.8,16-15,24.9-5.7-8.3-11.2-17.5-21.7-20.4-4.5,8.1,7.7,14.3,10.4,19.1.6,1.1,1.6,1.5,0,2.6-27.4-17.9-14.2-39.1,9.5-10.5.4-9.2,9.7-23,19.7-17.4,3,3.6.5,13.1,0,17.4,23.3-18.6,33.2,1.1,8.5,12.5h.2ZM544.9,708.5c3.4-.8.5,12.6,1,14.5l-2-.4c-1.1-1.5-1.2-12.3,1.1-14.1h0ZM538.2,722.1c.3,1.1,3.1,1.7-2.2,2.2l-8-11.8c5.2-1.1,8.8,5.5,10.1,9.6h.1ZM522.5,828.2c-5.1,0-24.3-2.4-24.5-9-.2-5.1,14.2-12.5,18.7-13.2,21.6-3.1,42.8,21.9,5.8,22.2ZM559.9,784.7c-15.9,2.2-60-1.7-33.7-25.2,14.6-13,38.9-9.7,49.5,6.6,8.9,13.7-4,17-15.8,18.6h0ZM561.6,713.1c.9.9-6.8,11.1-8.2,10.5-3.8-1.8,5.3-10.8,8.2-10.5ZM584,670.1c-3.1,3.5-34.7,3.2-38-.5-3-3.4,2.8-8.3,5.1-10,16.8-12.7,39.4,3.3,32.9,10.5Z" fill="#fff"/>
    <path d="M463.9,766.3c1.9-.2,28.9-12.5,31.3-14,11.8-7.6,3.5-15.7,2-25.7-3-20.9-2.6-43.1-6.7-63.3l-37.1,5.2,10.9,63.3c-6.9,5.4-34.6,15.3-35.3,24.8,4.5,12,9.7-7.7,17.5-4.6-1.1,2-11,7.4-6.6,10.9,4.5,3.5,9-8.1,13.8-6.9,1.8,1.1-7.5,6.4-5.3,8.9,4.8,5.5,9.3-6.8,13.9-5.6l-3.9,6.2c.6,1.5,4.2,1.1,5.5.9h0Z" fill="#fff"/>
  </g>
  <path d="M418.9,667.1c.7,13.7-.8,28.1,0,41.7,1,16.1,12.5,34.9-6.7,40.6s-33.2,9-40.9,9.7c-13.5,1.1-7-9,1-10.5l-1.1-1.9c-5.9-1.8-10.3,8.6-13,8.2-5.8-.8.1-9.4,4.5-8.9l.4-2c-6.9-2-8.2,7.3-13.1,5.8-1.8-5.5,7.4-4.2,7.2-8.5l-8.9,3.9c-3.7-6.9,37.9-18.4,37.1-20.8l-4.5-64.6,38.1,7.3h-.1Z" fill="#fff"/>
  <g>
    <path d="M439.2,241c-10.5-20.5-55-8.6-72.2-29.1-20.8-24.8,20.6-42.5,32.1-58.6,14.4-20.2,14.3-48.4-.8-68.4-15.1-20-60.1-37-74.7-9.4,13-.3,29,4,35.2,16.4l.3-11.2c6.4-.3,4.1,9.8,3.3,13.8,11.6,4.8,13.3,13,25,1.3.2,6.5-6.5,7.4-10.4,10.1l4.1,10.4,12.9.9c-2.7,4.5-9.1,2.7-13.1,2.3l-3.1,12.3c.5,5.9,15.9,8.9,14.3,10.1-6.6,1-11.1-2-16-5.9-13.5,12.8-12.7,16.2,4.8,23.3-7.1,3.2-14.1-3.9-17.4-9.5l-16.7,14.1c1.1,8.6,7.7,9,13.1,13.5-7.4.6-13.3-4.1-15.1-11.2-2.6-1.4-16.2,18.5-15.6,21.9.4,1.9,6.3,4.5,8,5,3.9,1.1,7.1.8,10.9,1.6-6.7,5-14.1-.1-20.4-2.9-2.5,21.1.7,34.9,24.3,22.3-3.3,7.2-11.6,7.4-18.4,7.2,7.8,14.2,21.1,22.8,34.2,8.5.5,2.7-2.2,5.8-4.3,7.2-3,2.1-6.9,1.5-8.9,3.9,10,3.2,16.4,9.4,26.9,2.9,4.6-2.9,4.5-7.5,8.6-8.8-.2,6.6-6.7,11.4-12.5,13.8,9,.3,23.5,7.2,30.5-.7,2.3-2.6,2.2-6.9,5-8.5.8,5.8-2.1,10.4-6.6,13.8,1,0,18.6,2.9,15.1,5.9l-9.2-1.3-5.9,21.7c18,3.3,42.5-19.9,32.7-39v.3Z" fill="#fff"/>
    <path d="M332.5,134c-7.9,6.9-18.9,10.1-29.3,9.9,18.1,8.6,49.5-10.3,54.1-28.4,2.2-8.8.9-21.2-5.7-27.9-11.1-11.2-37.1-9-51.3-6.1-9.1,1.8-15.5,9.7-18,18.2-.7,2.4.5,5.7-.5,8.1-.6,1.5-6.6,5.3-7.6,9.5-6.7,27,33.8,27.9,49.8,18.9,4.7-2.7,13.9-16.1,16.6-10-4.1.2-4.7,4.8-8.2,7.9h.1ZM287.5,132.1c-1.3-1.5,1.2-6.5,2.6-3.9,1.2,2.3-1.5,5.1-2.6,3.9ZM293.5,114.8c-8,.7-8.9-11.7-3-13.5,11.2-3.4,12.9,12.6,3,13.5ZM298.6,132.7c-.3-.3,1.3-5.3,3.3-3.9,1.6,2.3-1.9,5.2-3.3,3.9ZM292.7,93.3c2-1.9,11.4,7.4,11.2,8.2-1.3,4.2-13.1-6.4-11.2-8.2ZM331.3,94.1c10.6-1.3-8,8.7-10,9.1-9.3,1.8,6.8-8.7,10-9.1ZM336.1,112c-11.2,15.3-23-6.3-8-8.7,5.8-.9,9,3.2,8,8.7Z" fill="#fff"/>
  </g>
  <path d="M134.3,644.1l-8.6,55.4c.6,1.2,19.9,10.5,23.2,13.1s11.5,9,7.4,12.4c-5.9,2.3-6-9.9-14.9-7.3.8,2.4,11.9,6,7,9.9s-7.8-8.5-14.5-6.6l-.4,1.7,7.8,5.4c-6.3,12.4-9.2-8.9-17.6-3.4,2.2,2.2,6.4,1.5,6.6,5.6-10.3-.6-38-4.1-38.8-17.4s4.5-28.7,5.3-39.5c.8-11,.5-22.2.7-33.2l36.8,3.9h0Z" fill="#fff"/>
  <path d="M192.5,664.3c0,0-1,0-1.1,1.1-.9,9.5-1.7,19-2.5,28.5,10.9,5,26.1,7.4,32.7,18.5l-9.9-3c2.9,2.4,8.2,3.3,7.2,8.2l-9.5-5.9-.3,1.6,5.7,4.9c-2.6,9.9-8-6.6-14.9-3.3,3.4,2.7,13.3,9.9,2.3,10.6s-41.3-7.7-43.3-8.7-4.9-4.2-5.1-4.8c-1.5-6.2,3.5-20.6,4-28.3.9-13.4-1.4-27-.6-40.4l36.1-5.7c1.1.9-.6,23.1-.9,26.5v.2Z" fill="#fff"/>
  <path d="M313.3,427c7,10.1,4.8,19,1.7,30.4-4.1-1.5-7.4,2.4-10.1,2.6s-2.7-1.6-5.2-1.2-3,2.2-4.2,2.5c-4.5,1-6.8-1.1-11,3.5s-1.4,9.2-13.9,7.7c-20.8-2.4-32.3-45.6-8-53.2,13.3-4.2,15.5,4.2,21,4.5s9.3-5.2,15.8-5c7.3.2,10,2.7,13.8,8.3h.1Z" fill="#fff"/>
  <path d="M591.2,219.5v86.8c-16-1.4-34.4,1.2-50.1-.2-27.3-2.4-3.8-25.7,12.6-18.9-11.5-20.3,4.9-30.7,24-27.6-9.1-16.9-5.4-33.6,13.4-40.1h0Z" fill="#fff"/>
  <path d="M313.4,462.4c5.8,5.4-3.2,16.5-7.9,20-10.4,7.9-24.4,9-37,8.7-9.7,14.5-30.3,35.7-49.4,32.5s-24.9-12.6-20.3-20.6c5.5.6,19.3-14.5,21-14.9s2.9,2.8,5.6,3c7.6.6,27.3-14.2,31.7-21l8.4,4-2.3,3.6c-.2,3.1,7.5-1.9,8.4-2.1,3.4-.8,7.9-.4,10.5-1.4s5.8-11,9.6-9.9-.8,12.2-2.7,14.1c.2,4.7,6.9-4.1,7.3-5.2,1.4-3.6.9-5.7,1.2-9.3l3.5-1.7,2.6,2c3.5,2.8-6.5,15.2-3.3,15.1,9-2,4.9-19.1,11.2-18.5,1.1,0,1.3,1.1,2,1.7h-.1Z" fill="#fff"/>
  <path d="M591.2,414v47.3h-80.2c3.4-9.8,12.3-8.2,20.4-5.5.6-17.7,10.8-16.8,23.6-10.2.6-.6-3.9-11.5.8-16.7,7.8-8.7,18.2,7.9,19.6,6.2,1-9.3,2.3-24.7,15.8-21h0Z" fill="#fff"/>
  <path d="M3.4,416c16-7.3,19.5,6.3,20.1,19.1,3.1,1.7,3.6-2.4,5.7-3.5,13.3-7.3,16.9,1.9,14.3,14,1.6.7,4.3-2,4.9-2h10.2l-6.4,17.1-48.9.6v-45.4h.1Z" fill="#fff"/>
  <path d="M150.7,709.2l-20.9-10.9,9.5-54.1,13.1-.6,1,1.5c1.7,21.6.7,42.8-2.6,64.1h-.1Z" fill="#fff"/>
  <path d="M222.5,464.8c1.4-.6,27.5-.6,29.8-.1s2.8.5,2.8,2.2c0,4.5-23.2,20.7-29.1,20.8l-10.8-13c0-.6,6.7-9.7,7.3-9.9Z" fill="#fff"/>
  <path d="M418.8,224.6c-2.9.3-19.1-1.6-19.5-4,1.7-3.3,2-11.4,3.9-13.9s18.3-10.4,21.7-14.2l-6,32.1h-.1Z" fill="#fff"/>
  <path d="M3.4,564.6c5.5.5,1.4,13.8,3.6,14.4,3.8-3,8.2-11.8,13.8-7.9l-6.3,14.4c6.8,0,12.2-3.8,19-.6.9,6.6-11.6,9.8-16.7,9.8H3.4v-30.2h0Z" fill="#fff"/>
  <g>
    <path d="M223.6,410.3c2.5-18.2-9.5-31.7-13.6-48.6-2.9-11.6-.9-20-7.5-31.8-17.5-31.2-79-31.2-105.3-11.7-28.9,21.5-21.1,42.5-29.6,71-3.9,12.8-13.6,18.1-10.7,33,1.3,6.9,6.5,12,6.4,18.6,0,6.6-5.9,11.9-7,18.7-2.1,13,4.2,22.7,16.5,26.8,9.6-21.4,19.8-37.1,42.9-45,6.6-2.3,12.4.7,11.2-9.3-7.5,1-17.8-18.8-20.3-19.5s-5,.3-11-.2c-3.7-.3-9.5-2.9-12.7-9.9-3-6.5-2.6-18.2,8.3-21.2,0,0,.1,0,.2,0,2.8-.6,7.2.4,10.2,0l-1-7.2c22.3-7.3,46.7-24.7,55.3-47.3,15.1,6,39.7,7.4,46.5,25,10.7,27.9,14.1,66.5-17.4,81.7-3.5,1.7-15.4,4.1-16.4,4.7s-.7,1.4-.7,2.3c20.7.2,33.5,16.1,45,30.9,7.8-7.3,11.2-13.6,10.1-24.6-.7-7.7-5.2-9.5-4.5-19.8.4-5.6,4.3-10.5,5.1-16.6Z" fill="#fff"/>
    <path d="M94.5,383.7c-18.9.9-8.2,32,10.2,25.7-4.3-8.2,2.3-26.3-10.2-25.7Z" fill="#fff"/>
  </g>
  <path d="M502.4,437.7c-3,12.2-17.8,15.2-28.9,13.8,2.2-1.9,14-15.8,15.1-16.1s11.4,3.1,13.8,2.3h0Z" fill="#fff"/>
  <path d="M304.9,402.6c-2.1,6.9-10.2,14.5-17.5,16l11.8-16.1c1.1-5.8-15,11.5-15.1,11.5-4.8-10.9,25.4-26.8,20.7-11.4h.1Z" fill="#fff"/>
  <path d="M310.4,249.1l9.2,21.7c-8.8-2.6-17-7.8-22.2-15.6v-1.5c-.1,0,13-4.6,13-4.6Z" fill="#fff"/>
  <path d="M294.6,583.1c.4,0,3,6.1,4.7,6.8-2.6,12.2-14.8,2.1-7.9-6,.8-.9,2.2-1.3,3.3-.9h-.1Z" fill="#fff"/>
  <path d="M273.5,396.4c3.2,1.6,7.6,17.1,7.4,20.9l-10.9-17.1.3-3c.7-.9,2.2-1.3,3.2-.8Z" fill="#fff"/>
  <path d="M304.2,745.1c7.5,10.6-5.3,17.2-14.7,15.4,3.3,12.1-11.2,11.5-13.7,13.9s-1.6,19.3-.5,19.6c8.9-8.3,20.3-14.4,32.9-13.9l.9,2.3c-3,29.2-47.2,37-64.8,16.1-4.2-5-12.3-21.1-.2-20.2s22.9,9.6,26.5,19.5c1.2-.4,2-23.3,1.3-24.3s-4.7-2.3-5.9-3.3-1.4-3.4-2.8-3.9c-3-1.1-10.5,2.5-16.6-1.1-9-5.3-.5-14.5-.8-15.6-.6-2.4-9.3-3.6-5.7-13.7s12.4-6.1,16.9-7.8,3.4-12.8,17.3-10.2c5.6,1,6.1,5.9,7.5,6.3,3.4,1.1,9.9-2.4,15.7,3.3s.7,11.8.9,12.8,4.1,2.7,5.5,4.7h.3ZM278.9,730.2c.4-15.7-18.6-10.4-19,2.4-16.3-6.4-26.4,13.3-5.3,15.7-20.3,10.3.9,24,10.9,10.9,2,12.3,12,16.1,20.5,6.4l-.7-9.6c6.5,1.9,14.8,4.1,17.4-4.3.9-10-11.4-8-11.9-9.9,16.5-8.4-2.2-20.6-11.8-11.5h-.1ZM266.7,798.3c-5.4-10.5-12.6-16.3-25-16.2-.3,14.7,14.8,24,27.7,25.5,2.7-.9-2-7.9-2.7-9.3ZM305.9,783.4c-14.1,0-29.4,9.2-32.2,23.3l1.4.8c14.5-2.3,27.6-8.6,30.7-24.2h.1Z"/>
  <path d="M73.8,799.2l-2-.4c-3-12.3-1.4-26.4-7-38.9s-27-30.9-25.7-3.2c.6,14.3,10.5,27.4,14.4,40.9-.9,9.2-8.1-12.7-9.3-14.5-3.5-5.3-23.7-21.1-28.9-13.8s22.4,27.4,28,31.8l-.7,2c-2.2.2-18-11.5-20.4-13.8-24.5-22.8-5-32.3,16.8-16.4-14.2-54.3,27.7-34.7,32.9,0,3.1-2.3,4.2-6.9,6.7-10.1,24.3-30.5,41.5-7.5,23.5,20.6,8.7-3.7,19.7-8.9,28.5-2.5,6.6,9.9-21.6,23.4-28.8,24.8l-.7-2c4.4-2,31.1-14.7,27-21-9.6-5.2-24,2.3-31,9.2s-6.1,10.1-7.5,8.6c2.9-11.5,12.2-19.7,14.9-31.4,1-4.4,3.5-17.1-3.4-17.8-9.9-.5-27.3,20.3-27.3,28.5v19.4h0Z"/>
  <g>
    <path d="M.1,0v841.3h595V0H.1ZM3.4,205.4c22.9-18.7,58.3-7.3,60.5,23.3,13.2-7,31.7-13.8,44.6-2.2,6.8,6.2,5.2,13.1,7.3,21,3.4-.4,5.9-2.8,9.2-3.3,21.6-3.6,28.6,23.4,6.3,23.4H3.4v-62.1h0ZM3.4,270.8c40-2.1,82.9,2.8,122.6,0,8.2-.6,21.9-.8,22.7-11.5,1.3-16.4-16.6-21.9-29.6-16.8-1.3-26.3-32.6-31.5-51.6-19.1-7.4-29.5-39-38.2-64.1-23V3.2h587.8v58.5c0,.2-3.9,1-4.5.6-3.5-16.1-22.4-22.8-35.9-13.7-6.5-22.9-44.1-26.5-53.6-4.3-.6,1.5-1,6.7-1.3,6.9-.5.4-4.5-.3-6,.2-4.8,1.6-9,2.6-13.7,4.1-2.1.7-5.2,4.8-5.7,4.9-2.7.7-22.8-7-28.8-.6-7.4-24-37.3-31.2-56.5-15.8-18.4-12.2-43.1-9.6-58.7,5.2-21.9-7.7-45.7-2.4-59.1,17.9-4.9-5.7-9.4-1.3-13.1-1.5-4.1-.3-13.3-6.2-20.2-2.5-1.6-28.6-39.9-33.6-55.6-13.2-19.1-21.2-52.9-12.2-62.7,13.2-19.8-11.5-47.3,22.3-20.4,30.6l130.2.3c-9.3,12-14.5,24.6-7.2,39.4-27-.5-48.3,33.6-25,53.6-24.6,10.4-27,45.3-3,58.2,1.9,1,11.5,4.6,13.2,4.6h12.5l.9,1.5c-11.1,32.8,29.6,50.6,54.3,33.4,7.3,27.6,40.4,29.5,60.8,14.4,7.3,18.8,9,39.2,10.1,59.2l-2.2.3c-21.4-8.6-45.7-32.7-69.4-32.6-20,0-40.6,16.5-58.2,24.4-2.4-20.5-16.7-39.9-37.5-45-10.8-2.7-36.7-5-47.5-3.4-30.4,4.3-56.3,30.5-59.7,60.9-20.3-10.1-40-28.8-64.4-24.3v-67.7h.1ZM577.8,259.6c-9.1-16.9-5.4-33.6,13.4-40.1v86.8c-16-1.4-34.4,1.2-50.1-.2-27.3-2.4-3.8-25.7,12.6-18.9-11.5-20.3,4.9-30.7,24-27.6h0ZM572.1,256.3c-15.7-1.9-32.3,11.4-23.7,27.6-10.4-2.2-26.5,6-22.5,18.2,1,3,7.6,6.8,10.3,6.8h54.9v48h-9.5c-10.8,0-46.7,22.5-49,21,.8-5.9-7.3-12-8.4-15.6-3.5-11.1.3-17-12.9-25.2-3.9-2.4-14.1-4.5-15.5-5.6-3-2.4-5.1-9.7-12.1-13.6-14.9-8.4-19.5-1.4-30.9-2.1-5.5-.3-9.5-3.8-17.9-3.1-8.1.7-14.1,7.3-17.1,7.9-3.9.8-11.5-2.4-16.1-1.3v-10.8c18.6,1.1,39.7,1.8,47.7-18.7,19.9,11.3,51.3,4.8,55.5-20.2,30.6,5.7,60.5-24.5,40.2-53.2,34-16,23.2-66.9-15.1-65.4,14.6-26.3-3.6-53.2-32.9-51.6l-.6-10.2h94.7v126.5c-18.7,6.7-25.6,21.6-19.1,40.4v.2ZM555.8,428.9c7.8-8.7,18.2,7.9,19.6,6.2,1-9.3,2.3-24.7,15.8-21v47.3h-80.2c3.4-9.8,12.3-8.2,20.4-5.5.6-17.7,10.8-16.8,23.6-10.2.6-.6-3.9-11.5.8-16.7h0ZM572.8,428.5c-11.5-9.8-23.8-4.5-22.4,11.2-11.5-3.7-19.9-.6-22.3,11.6-4.9-.7-8.7-.8-13.3,1.1-4.3,1.7-8.3,8.5-9.5,8.9-1.9.6-38.7.9-40.6.2l-1.8-4.3c4.7-6.2,12.3-2,18.8-2.3,6.6-.3,14.9-3,19.8-7.5,1.5-1.4,2.9-5.6,4.2-6.6,3.7-2.9,10.4-3.7,15.1-9.2,8.8-10.3,4.4-15.2,5.3-24.9.3-2.8,4.5-7.4,5.4-11,1.3-5.3.6-9.8,2-14.8,18.6-6.6,37.2-22.8,57.7-20.2v50.3c-10.7-2.7-18.6,8.1-18.4,17.7v-.2ZM448.4,764.7c-2.2-2.5,7.1-7.8,5.3-8.9-4.9-1.1-9.3,10.5-13.8,6.9-4.4-3.5,5.5-8.8,6.6-10.9-7.8-3.1-13,16.5-17.5,4.6.7-9.5,28.3-19.4,35.3-24.8l-10.9-63.3,37.1-5.2c4.1,20.2,3.7,42.4,6.7,63.3,1.5,10,9.8,18.2-2,25.7-2.4,1.5-29.5,13.8-31.3,14-1.4,0-4.9.6-5.5-.9l3.9-6.2c-4.6-1.2-9.1,11.1-13.9,5.6h0ZM368,652c1.7-29.3,10.4-57.9,18.1-86.5,22.7,5.9,47.9,8,71.3,6.3,7.2-.5,22.3-5.1,27-4.9.7,0,13.4,3.9,14,4.5,6.3,14,10.2,34.7,12.6,49.6.7,4.6,4.2,28.4,1.6,31-43.5,19.2-100.5,17-144.6,0h0ZM419,708.8c1,16.1,12.5,34.9-6.7,40.6-8.3,2.5-33.2,9-40.9,9.7-13.5,1.1-7-9,1-10.5l-1.1-1.9c-5.9-1.8-10.3,8.6-13,8.2-5.8-.8.1-9.4,4.5-8.9l.4-2c-6.9-2-8.2,7.3-13.1,5.8-1.8-5.5,7.4-4.2,7.2-8.5l-8.9,3.9c-3.7-6.9,37.7-18.3,37.1-20.8l-4.5-64.6,38.1,7.3c.7,13.7-.8,28.1,0,41.7h-.1ZM461.7,549.1c-4.3-3.1-10.1-10.1-13.9-12.4-3.8-2.3-10.1-3.7-15.3-7.1-6-3.9-24.8-21.4-22-29,2.6-7.1,14.9,10.9,18,12l1-1c.5-5.4-19.3-15.3-13.3-20.7,5.9-5.4,17.8,11.4,22.2,14.4,4.5-4.9-17-15.5-10.1-18.9,6.8-3.4,19.2,15.6,22.2,13,.9-3.5-17.3-15.2-7.9-15.5,6.1-.2,15.7,13.4,17.6,18.6,1.1,2.9,1.9,11.1,2.8,12.3,1.4,2,36.4,18.2,39.3,18l2.1-.9-1.1-2.2c-15.5-2.9-17.9-10-21.9-23.8-5.5,1.2,2.6,15,2,15.8-2.6-1.6-15.8-7.1-16.9-8.7-1.1-1.7-1-7.6-2.2-10.5-3.4-8.1-18.5-29.9-27.3-18.4-1.5.4-4.5-1.6-7.7-1.2-4.3.6-4.8,4.4-5.4,4.6-1.8.6-5.2-1.7-9,.7-3.7,2.4-2.1,5.1-3.4,7.1-.4.6-4.6,4.2-4.9,5.1-2.4,9.6,19.6,28.9,27.4,33.6,13.3,7.9,16.6,10.4,28.8,19.8,5.1,3.9,11.9,6.4,16.1,11.2-29.4,5.8-61.9,5.7-90.7-3-4.5-4.2-1.2-45.3,0-53.2.2-3.4,6.5-18.2,3.6-20.7-4.4,0-8.7,37-8.9,41.7-.4,8,1.7,21.7.7,28.3-1.5,9.4-44.5,41.1-49.4,37.5-1-.7.1-4.4-3.9-3.7,1.4,12.8-5.9,12.1-12.8,17.1-4.2,3.1-7.3,11.5-12,10.3-4.6-1.2,3-11.2,3.2-13.1l-.5-1.7-10.5,10.4c-9.9-2.3.4-9.1,1-14.4l-8.4,7.1c-7.9.8-7.7-8.2-2.8-12.1,13.1,8.2,11-1.7,15.2-5.2,2.3-1.9,9.4-.7,8.5-6.3-4,.8-7.5,4.7-11.5,1.4-4.8-13.6,11.5-9.5,17.6-10.7,3.8-.7,23-17.8,26.5-21.6,26.3-28.3,24.3-85.3,73.8-88l.7,6.1,1.6.3,2-9.6c13.1,1.7,26.2,0,38.5-4.8l2,8.9c68.7-14.5,107.3,158.4-.6,82.7v.4ZM291.3,583.9c.8-.9,2.2-1.3,3.3-.9.4,0,3,6.1,4.7,6.8-2.6,12.2-14.8,2.1-7.9-6h-.1ZM190.1,530c-9.9,7.1-84.1,7.8-88.4-1.6l13.8-38.8c24.3-5.5,55-17.7,62.1-44,10.5,1.6,16.7,9.7,23.2,16.8,2.8,3,17.2,19.9,16.9,22.9-1.2,2.6-17.3,15.6-19.1,13.5-.4-9.4-1.1-21.9-4.3-30.9-1-2.9-1-6.3-4.9-5.9,4.8,11.7,10.3,61,.6,68h.1ZM221.7,712.5l-9.9-3c2.9,2.4,8.2,3.3,7.2,8.2l-9.5-5.9-.3,1.6,5.7,4.9c-2.6,9.9-8-6.6-14.9-3.3,3.4,2.7,13.3,9.9,2.3,10.6-2.2,0-41.3-7.7-43.3-8.7-.7-.3-4.9-4.2-5.1-4.8-1.5-6.2,3.5-20.6,4-28.3.9-13.4-1.4-27-.6-40.4l36.1-5.7c1.1.9-.6,23.1-.9,26.5,0,0-1,0-1.1,1.1-.9,9.5-1.7,19-2.5,28.5,10.9,5,26.1,7.4,32.7,18.5v.2ZM148.5,727.6c-4.6,3.5-7.8-8.5-14.5-6.6l-.4,1.7,7.8,5.4c-6.3,12.4-9.2-8.9-17.6-3.4,2.2,2.2,6.4,1.5,6.6,5.6-10.3-.6-38-4.1-38.8-17.4-.5-8.8,4.5-28.7,5.3-39.5.8-11,.5-22.2.7-33.2l36.8,3.9-8.6,55.4c.6,1.2,19.9,10.5,23.2,13.1,2.5,1.9,11.5,9,7.4,12.4-5.9,2.3-6-9.9-14.9-7.3.8,2.4,11.9,6,7,9.9h0ZM139.3,644.2l13.1-.6,1,1.5c1.7,21.6.7,42.8-2.6,64.1l-20.9-10.9,9.5-54.1h-.1ZM78.5,631.4l4.4-36c27.2,13.6,6.5-20,6.5-28.6s7.8-34.6,10.1-35c29.5,10.4,62.9,7.9,93,2,8,30.8,17.8,62.6,16,94.8-40.8,16.7-88.3,15.7-130,2.8ZM68.6,611.5c-11,3.3-10.3-13.5-9.6-20.6-1.3-1.9-3,1.4-3,2.3v11.8c1,4.1-2.9-2.8-2.9-3-5.6-17,1.5-22.5,4.7-37.3,8.6-40.9,13.3-116.7,67.9-121.8.2.1-.3,2.1,0,2.5,4.9,4.4,3.6-8.8,4.5-11.7,10.7,4.9,22.5,5.7,34.2,5.3-1.2,3.6-.8,3.9.6,7.6,4.4,1.8,2-2.4,2.7-3,.3-.3,6.9.1,7.2.7-7.8,23.8-35.1,37.8-58.5,41.4l1.3-7.9-2.3.7c-2.9,7.1-4.1,14.9-6.8,22.1-6.3,17.2-24.2,52.1-22.9,69.5.5,6.1,10.8,16.8,7.6,25.3-6.6,2.7-8.1-5.2-11.4-8.4l-5.2,23c-5.9,2.6-4.8-3.1-5.6-6.1-.2-.7-1.3-.4-1.3-.5v-13.1c-5,4.8-2.3,15.1-1.3,21.3h0ZM222.9,446.7c1.1,11-2.3,17.3-10.1,24.6-11.5-14.8-24.3-30.7-45-30.9,0-.9-.3-1.7.7-2.3.7-.5,12.9-3,16.4-4.7,31.5-15.2,28.1-53.8,17.4-81.7-6.8-17.6-31.4-19-46.5-25-8.6,22.6-33,40-55.3,47.3l1,7.2c-3,.4-7.4-.6-10.2,0-14.7,2.9-13.3,27.8,4.4,31.1,4,.7,8.5-.5,11,.2,1.4.4,12.8,20.5,20.3,19.5,1.2,10-4.6,7-11.2,9.3-23.1,7.9-33.3,23.6-42.9,45-12.3-4.1-18.6-13.8-16.5-26.8,1.1-6.8,6.9-12.1,7-18.7,0-7.5-5.1-11.7-6.4-18.6-2.9-14.9,6.8-20.2,10.7-33,8.5-28.5.7-49.5,29.6-71,26.3-19.5,87.8-19.5,105.3,11.7,6.6,11.8,4.6,20.2,7.5,31.8,4.1,16.9,16.1,30.4,13.6,48.6-.8,6.1-4.7,11-5.1,16.6-.7,10.2,3.8,12.1,4.5,19.8h-.2ZM252.3,464.6c1.3.2,2.8.5,2.8,2.2,0,4.5-23.2,20.7-29.1,20.8l-10.8-13c0-.6,6.7-9.7,7.3-9.9,1.4-.6,27.5-.6,29.8-.1ZM104.8,376c20.9-8.4,43.3-23.6,53.2-44.5,19.8,5.4,40.8,6.7,43,31.7,13.5,45.8-4,80.2-56.3,71.7-30.9-5-42.1-29.8-39.9-58.9h0ZM104.7,409.4c-18.4,6.3-29.1-24.8-10.2-25.7,12.5-.6,5.9,17.5,10.2,25.7ZM198.8,502.9c5.5.6,19.3-14.5,21-14.9,2-.6,2.9,2.8,5.6,3,7.6.6,27.3-14.2,31.7-21l8.4,4-2.3,3.6c-.2,3.1,7.5-1.9,8.4-2.1,3.4-.8,7.9-.4,10.5-1.4,3.3-1.3,5.8-11,9.6-9.9,4.9,1.4-.8,12.2-2.7,14.1.2,4.7,6.9-4.1,7.3-5.2,1.4-3.6.9-5.7,1.2-9.3l3.5-1.7,2.6,2c3.5,2.8-6.5,15.2-3.3,15.1,9-2,4.9-19.1,11.2-18.5,1.1,0,1.3,1.1,2,1.7,5.8,5.4-3.2,16.5-7.9,20-10.4,7.9-24.4,9-37,8.7-9.7,14.5-30.3,35.7-49.4,32.5-6.3-1.1-24.9-12.6-20.3-20.6h-.1ZM315,457.3c-4.1-1.5-7.4,2.4-10.1,2.6-1.2,0-2.7-1.6-5.2-1.2-2.2.3-3,2.2-4.2,2.5-4.5,1-6.8-1.1-11,3.5-4.7,5.2-1.4,9.2-13.9,7.7-20.8-2.4-32.3-45.6-8-53.2,13.3-4.2,15.5,4.2,21,4.5,3.7.2,9.3-5.2,15.8-5,7.3.2,10,2.7,13.8,8.3,7,10.1,4.8,19,1.7,30.4h.1ZM280.9,417.3l-10.9-17.1.3-3c.7-.9,2.2-1.3,3.2-.8,3.2,1.6,7.6,17.1,7.4,20.9ZM284.2,414c-4.8-10.9,25.4-26.8,20.7-11.4-2.1,6.9-10.2,14.5-17.5,16l11.8-16.1c1.1-5.8-15,11.5-15.1,11.5h.1ZM300.6,416c4-6.4,11.6-13,6.6-21.4-10.5-3.9-19.2,2.6-25.6,10.2-1.1-5-5.7-14.4-11.8-11.5-11.2,5.4,4.9,15.1,5.2,22-3.5.4-8.2-.6-11.5,0-11.4,2-18.9,16.6-18.8,27.2.1,6.9,3.4,12.6,5.9,18.8h-25.6c5-12.7-3.7-23.2-2.6-35.2.8-9.7,5.7-14.7,4.6-26.9-1-10.7-17.8-38.1-13.2-46.1,1.1-1.9,34.9-18.7,39.1-20.1,36.7-12.9,58.6,18.1,89.9,30.7l-5.9,96.7-19.7.5c6.2-17.4,7.2-42.8-16.5-44.9h-.1ZM345.3,343.4c-2.7-34.7-17.8-66.7-32.8-97.4,1.1-.5,2.4-4.1,2.6-4.2.7-.3,13.8,3.8,14.4,4.3.7.6,1.9,4.5,2.9,6,23.2,43.3,35.6,60.2,54.3,1.6l22.3,4c-4.9,20.3-10.8,40.7-10.4,61.9-8.4,3.1-16.9,7.5-18.3,17.3-.4,2.6.8,8.8.5,9.7,0,.3-3.6,3.1-4.6,5.3-5.3,11.3-4.4,22.8,4.1,32.3-17.4,35.4-3.9,69,35.5,77.9-43.6,4-49.5,48.4-66.4,79.5-16.9-15.2-39.7,4.4-59.2-2.6-1.9-4.5,21.3-10,25.7-13.4,34.5-19.3,29.6-145.3,29.5-182.2h-.1ZM209.5,247.1c-36.5,0-45.5-48.5-9.7-59.5-10.9-8.7-16.2-16.6-11.2-31,2.7-7.8,15.1-19.3,23.5-19.3h11.8l.7-2c-21.1-25.9,16.2-59,43-49.3-1-26.5,24.2-40.5,48.2-36.6,15.7,5.1,6.6,5.5,21.5-4.4,14.6-7.9,35.2-6.9,48.4,3.5,18.2-17.9,48.3-9,53.2,15.8,26-11.3,59.7,8.7,54.5,38.9,31-4.3,50.1,26.2,29.3,50.9,5.8,1.4,10.2,0,16.4,1.3,29.7,6.6,31,51.9.6,58.8l8.5,17.6c.8,25.8-21.9,39-45.9,34.4-4.7,27-34,31.7-54.9,19-6.9,20.6-26.1,22.8-45.1,18.9l2.8-19c34.3-1.6,60-47,16.8-59.1l1.1-3.1c8.3-1.7,16.6-4.2,21.9-11.3-3.6-2-18.3,10.6-21.4,6.6l4.6-31.5c-1.6-.5-27,16.7-28,18-1.9,2.6-4.3,16.1-6.3,16.7-12.1-1.9-29.5-9.3-29.2-23.9.3-16.7,34.3-32.9,43-51.1,28.3-59.1-57.3-122.8-90.3-70.5-10.4,5.7-22.2-2.6-32.9,10.7-5.9,7.4-3.8,12.8-6.4,19-.8,1.9-5.2,4.4-6.9,8.9-6.7,17.6,5.6,25.5,20.4,30.3-4.8,10.6-12.6,16-22.9,20.5,3,5.8,17.1-7,17.7-6.2-.5,1.7-2,15.3,2.3,13.8,1.4-.5.2-24.9,7.7-28.2,27.3,15.9,73.7-14.6,64.4-46.7,9.8,2.8,15.9,12.5,15.6,22.7-.7,29-51.4,38.4-53.1,78.2-1.4,32.8,31.3,50.8,59.9,54.3,1.3,1.6-12.8,35.3-19.4,35.5-9.5.6-25.4-33.4-29.8-41.1l4.6-1-.3-1.3c-14.9-3.8-29.3-7.1-38.8-20.4-5,5.5,11.7,13.6,12.1,15.5-5.3,12.3-23.5,12.4-34.4,8.8l-.3,1.6c3.9,4.5,11.8,2.5,15.8,4,.8.3,7.8,9.6,10.2,11.5,5.3,4.1,18.2,7,20.4,10.1,1,1.4,7,17.2,6.7,18.3-16.9,17.9-53.4,12.9-55.8-14.6-25.2,19-69.8,1-51.3-32.9h-13.5.2ZM263.8,81.5c-11.7-2.3-23.9,2.2-33.2,9.2-41.4-3.7-91.8,4.9-132.1,0-19.2-2.3-8.4-25.7,7.2-26.4,5.6-.2,7.9,2.3,12.8,3.3,3.8-19.5,27.5-31.5,45.6-24.1,6.3,2.6,9.4,8.1,14.6,11.7,13.2-18.5,41.3-21.5,50.6,2.3,1.4,3.5,1.5,6.7,2.8,10.2,7.7-2.5,9.9-3.2,17.8-.8,1.4.4,2.2,2.6,3.8,2.8,1.8.2,3-4.1,9-2.5,6.2,1.6,0,10.3,1.1,14.3h0ZM406.5,253.7c4.5-3.4,7.3-8,6.6-13.8-2.8,1.5-2.7,5.8-5,8.5-7,7.9-21.5,1.1-30.5.7,5.8-2.4,12.3-7.1,12.5-13.8-4.1,1.3-4,6-8.6,8.8-10.5,6.5-16.9.2-26.9-2.9,2-2.4,5.9-1.9,8.9-3.9,2.1-1.4,4.7-4.5,4.3-7.2-13.1,14.2-26.4,5.7-34.2-8.5,6.8.1,15.1,0,18.4-7.2-23.6,12.6-26.8-1.3-24.3-22.3,6.2,2.8,13.7,7.9,20.4,2.9-3.8-.8-6.9-.5-10.9-1.6-1.8-.5-7.7-3.1-8-5-.6-3.4,13-23.3,15.6-21.9,1.8,7.1,7.7,11.8,15.1,11.2-5.4-4.5-12-4.9-13.1-13.5l16.7-14.1c3.4,5.7,10.4,12.7,17.4,9.5-17.5-7.1-18.4-10.5-4.8-23.3,4.9,3.8,9.4,6.9,16,5.9,1.6-1.2-13.8-4.2-14.3-10.1l3.1-12.3c4.1.5,10.4,2.2,13.1-2.3l-12.9-.9-4.1-10.4c3.9-2.6,10.6-3.6,10.4-10.1-11.7,11.7-13.4,3.5-25-1.3.8-4,3.1-14.1-3.3-13.8l-.3,11.2c-6.2-12.4-22.2-16.7-35.2-16.4,14.6-27.5,59.7-10.6,74.7,9.4s15.2,48.1.8,68.4c-11.5,16.1-52.9,33.8-32.1,58.6,17.2,20.4,61.7,8.6,72.2,29.1,9.7,19.1-14.7,42.3-32.7,39l5.9-21.7,9.2,1.3c3.4-3-14.2-5.9-15.1-5.9v-.3ZM324.1,136.1c-16,9-56.5,8.1-49.8-18.9,1-4.2,7-8,7.6-9.5,1-2.4-.2-5.6.5-8.1,2.5-8.5,8.9-16.3,18-18.2,14.2-2.9,40.2-5.1,51.3,6.1,6.6,6.6,7.9,19.1,5.7,27.9-4.6,18.1-36,37-54.1,28.4,10.4.2,21.4-3,29.3-9.9,3.5-3.1,4.1-7.7,8.2-7.9-2.8-6.1-11.9,7.3-16.6,10h-.1ZM399.3,220.6c1.7-3.3,2-11.4,3.9-13.9,2-2.7,18.3-10.4,21.7-14.2l-6,32.1c-2.9.3-19.1-1.6-19.5-4h-.1ZM319.7,270.8c-8.8-2.6-17-7.8-22.2-15.6v-1.5c-.1,0,13-4.6,13-4.6l9.2,21.7ZM522.8,421.6c-1.7,5.6-10.2,15-16.5,14.1,19.6-7.7,16.4-43-6.6-33.9-3.7,1.8-6.4,8.8-11.1,3.9-2.6-4.1,1.7-8.6,1.2-10.3-.4-1.4-9.2-3.8-10.4-12.7-1.3-9.3,1.6-13.3,4.5-21.3-9.8,1.9-25.3,7.8-27-7.2-10,3-24.4,7.9-27.9-6-8.7,3.2-25,12.4-25.8-3.7l-1.8-1.5c-1.4,6.4-4.7,5.4-7.6,8.8-6.6,7.7-9.8,16.9-12.5,26.6-7.2-4.2-6.3-18.3-2.8-24.8.9-1.7,4.9-4.4,5.3-5.9.7-2.6-1.1-7.4,0-11.9,1.9-8.3,12.5-12.9,20.2-13.3,4-.2,13.7,2.1,15.1,1.8,1.1-.2,8.7-7.2,14.6-8.3,9.1-1.6,13,3,19,3.2,4.1.1,9.4-3,15.8-2.6,13.3.6,15.9,6.2,23,14.8,5,6.1,16.5,4.3,24,13.8,5.5,6.9,3.6,11,5.4,17.6,1.1,4.1,6.6,7.9,7.6,15.4,2.1,15.3-4.8,18.3-5.8,26.9-.6,5.1,2.5,8.1,0,16.4h0ZM497.2,434.2c-2.6-.2-8.2-3.2-9.4-2.9-1,.2-11.3,13-14.3,15.3-33.9,25.6-100.5,14.5-97.2-37.4,1.4-8.7,13.9-58.6,25.5-57.4,4,11.7,23,.5,25.3,1.2.4.1,2.4,4,3.7,5,9.9,7.5,21.1-.2,24,.9,3.2,10.8,14.2,8.8,23.4,7.9-3.1,7.9-3.2,18.3,1.8,25.4,1.2,1.7,5.1,3.8,5.4,4.6.8,2.5-2.9,6.2.6,11.2,5.8,8.4,11.8-1.7,16-3.3,19.9-7.5,18.2,31.5-4.7,29.5h-.1ZM502.4,437.7c-3,12.2-17.8,15.2-28.9,13.8,2.2-1.9,14-15.8,15.1-16.1,1-.3,11.4,3.1,13.8,2.3h0ZM495.9,85.4c2.2-8.5-21.8-22.9-21.6-24.6.4-4,8.9-2.6,10.8-3.1,3.6-1,7.3-5.2,13.5-3.6-.3-20.6,26.6-27.5,41-16.1,6.6,5.2,5,10.5,8.9,16.2,12.5-12,34.5-6.3,34.8,12.5l7.9-1.7v20.4h-95.3ZM3.4,341.7c23.9-4.3,44,14.4,63.8,24.6.2,7-.5,13.9-2.4,20.7-3.8,13.8-14.1,18.1-11.2,35.5,1,5.9,6.1,11.2,5.5,17.6l-11.7.7c1.4-15-9.2-18.3-21-11.8.6-12.5-10.8-23.3-23-16.4v-71h0ZM3.4,416c16-7.3,19.5,6.3,20.1,19.1,3.1,1.7,3.6-2.4,5.7-3.5,13.3-7.3,16.9,1.9,14.3,14,1.6.7,4.3-2,4.9-2h10.2l-6.4,17.1-48.9.6v-45.4h.1ZM3.4,564.6c5.5.5,1.4,13.8,3.6,14.4,3.8-3,8.2-11.8,13.8-7.9l-6.3,14.4c6.8,0,12.2-3.8,19-.6.9,6.6-11.6,9.8-16.7,9.8H3.4v-30.2h0ZM591.2,838H3.4v-239.9h13.5c19.1,0,32.3-19.7,4.3-17.1,7.3-12.3,1.8-18.4-10.9-10.5-1.7-2.1-.6-4.5-2.3-6.9-1.6-2.3-4.6-2-4.6-2.3v-97.3l48.2-.6c1.6,12.7,7.9,22,20.1,26.6-4.1,10-8.8,21.7-11.2,32.1-3.2,13.8-2.4,29.6-5.2,42.1-3.1,13.7-11.1,17-6.2,36.5,1.2,4.6,8.9,12.2,13.2,13.7,5.5,2,8.5-1.6,13.8-.6l-.9,19.6,19.5,6.4c-.6,18.6-1.1,37.2-3.2,55.7-.8,6.9-5.3,15.2-3,21.9,4,11.7,40.1,17.2,50.8,16,4.7-.5,24.1-5.4,21.3-12.5,1.7-1.6,39.1,8.7,45.5,7.1.8-.2,14.6-7.7,15.3-8.4,14.3-13.9-18.8-23.7-27.6-27l3-55.4c1-2.6,15.3-3.9,16.4-8.6,2.6-11.3-8-60.4-11.2-74.3-3.3-14.4-10.6-23.9-4-39.7,27.2,27.6,55.2,2.5,73-20.7,20,1.3,45.3-6,47.9-29l17.8-.9c-3.6,25-3.2,49.1-28.5,61.9-4.3,2.2-22.7,6.4-21.5,12.7.8,4.2,15,4.8,18,4.7,12.4-.3,35.1-12.2,41.7,1.7-.5,3.1-25,25.2-28.4,26.2-4.2,1.3-10.5-.4-16.3,2-4.4,1.8-3.7,3.8-6.1,5.7-1.3,1-5.1,1-6.6,2.9-2.2,2.7-.9,8-2.6,11.4-2,3.9-8.6,4.3-5.1,12.7,2.3,5.6,6.6,3.9,8.9,5.6,1.1.8,1,4.2,3.7,5.5,5.7,2.7,5.7-3,9.4,5.7,8,2.9,11.1-7.1,15.2-10.5,2.7-2.3,6.8-2.6,10.2-5.6,1.9-1.7,2.8-5,4.1-6,18.9-7.7,35.9-19.2,50.1-34.1-5.8,21.6-17.9,62-18.5,83.8.5,6.7,8.2,5.8,12.6,8.7-.9,21.7,1.4,43,5.3,64.2-7.3,5.1-50,14.2-33.9,28.7,3.5,3.2,9.6,4.5,12.7,6.1,2.2,1.1.9,4.2,7.7,4.5,5.8.2,35.4-7.6,43-9.7,24.9-6.6,12.3-23.4,10.6-42-1.3-14.1-.5-28.5.1-42.6l25.9-.4,12.1,62.6c-7.6,5.8-36.8,15.7-34.8,27.8,1,6.1,7.2,3.6,10.1,4.4,1.4.4,1.7,2.9,3.7,3.6,6.1,2.2,22.7,3.5,28.9,1.9,3.2-.8,32.6-15,33.9-16.7,7-9.1-.6-16.5-1.7-23.3-3.5-20.9-2.9-44-5.9-65.1l1.1-1.5c3.5-1.1,18.5-5.2,20.3-7.3,4.9-5.6-9.1-71.7-13.5-82.2,53.3.7,24.8-77.3.7-96.3-5.9-4.7-13.1-7.4-19.7-10.8l107.8-.7v107.1c0,.2-3.2-.3-4.9.7-6.5,3.8-8.7,10.9-10.9,17.7-4.5-4.4-5.5-11.7-11.5-15.1-16.9-9.6-10.5,14.5-7.6,22.3-3.3-4.4-24.3-11.8-25-4.2,2.7,9.2,11.9,15.5,20.7,18,2.7-3-4.1-3.9-5.9-5.3-4.4-3.3-8.7-7.5-11.5-12.1,11.3-3.3,21.9,7.9,30.2,14.1,1.2-1.4-12.5-26.1-8.6-31.1l3.4-.8c1.7.5,7,6.1,8.1,7.8,2,3.1,6.5,18.4,9.3,17.6,2-8.8,1.8-23.2,12.4-26.3,4.4,1.6-.9,24.4-.2,28.9,6-5.6-.5,234.7,2,234.7l-.2-.2Z"/>
    <path d="M45.5,697.3l-1.3-19.1c9.8,5.4,24.3-4.9,14.5-14.1,10.5-2.3,11-17-.4-18-2.5-.2-4.8,1.9-7.3.5,0-7-5.3-10.8-12-10.1-9.7,1-8.8,10.8-9.9,11.5-.7.5-6.4-.3-9.7,1.2-8.5,3.7-3.6,18,5.2,18-6.9,10.7,7.5,17.6,15.8,11.2l1.3,20.4c-3.3-2.2-4-5.4-7.9-7.5-2.4-1.3-14.1-5.1-15.7-1.9-1,37.2,53.3,25.1,53-4.2-10.3-3.2-20.2,4.4-25.5,12.3v-.2ZM21.5,691.4c11-.9,18.2,8.6,20.1,18.4-9.7.7-21.5-8-20.1-18.4ZM29.1,663.8c-4.7,1-11.1-1.5-11.2-6.9-.2-8.4,11.3-4.3,15.8-6.2-4-14.6,16.6-15.4,15.2,1.3,1.1.7,12-6.1,14.3.5,3.3,9.4-11,7.9-11,10.4l6.3,6.9c-1.8,10-12.2,8.1-16.5.6-7.3,12.9-20.5,7.6-12.8-6.5h-.1ZM45.5,708.5c1.5-10,10.7-22.8,22.1-20.4-1.3,10.8-12.4,17.7-22.1,20.4Z"/>
  </g>
  <path d="M413.7,818.9c23.3-18.6,33.2,1.1,8.5,12.5l.3-2c26.2-23.4-5.2-16.3-12.1-.5l-2,.5c0-3.9,6.2-24.5,2.2-26.2-12.5.4-12.8,16-15,24.9-5.7-8.3-11.2-17.5-21.7-20.4-4.5,8.1,7.7,14.3,10.4,19.1s1.6,1.5,0,2.6c-27.4-17.9-14.2-39.1,9.5-10.5.4-9.2,9.7-23,19.7-17.4,3,3.6.5,13.1,0,17.4h.2Z"/>
  <g>
    <path d="M284.5,622.4c-3.5-7.3-12.4-.6-16.5,2.6.4-1.7-1.4-2.7-1.4-2.8-1.6-4.9-1.3-13.8-9.8-14.3-7.3-.4-8.4,9.2-8.3,14.4-5,0-8.4-8.8-15.4-4.6-4.6,4.9,5.5,21.5,12.9,20.4.8-.7-14.4-13.4-10.5-18.1,6.4-3,14.5,14.4,15.6,14.8.3,0,2.1.2,2.2-.4-8.8-32.4,16.6-29,9.2,1,5.9-2.2,7.7-11.8,15.1-12.9,11.7-1.6-5.1,15.6-3.9,16.8,5.9-.6,12.4-11.7,10.9-17.1v.2Z"/>
    <path d="M311.8,669.7c1-15.4-10.4-15.4-12.5-1.3-.6.6-10-8.2-15.3-6.5-5,1.7,3.7,8,4.7,9.5,2.4,3.6,3.2,11.4,7.3,8.7l-7.9-14.4c5-1.2,12,13.5,13.8,11.2.2-4.9-1-13.7,4.9-15.8,2.5.8,1.8,11.9,1,14.1l1.6,2.2,12.2-10.4-5.4,12,.5,1.8c12.2-8.6,13.1-26.4-4.9-11.2h0Z"/>
  </g>
  <g>
    <g>
      <path d="M575.7,766.1c-10.6-16.3-34.9-19.6-49.5-6.6-26.3,23.5,17.8,27.4,33.7,25.2,11.8-1.6,24.7-4.8,15.8-18.6h0ZM522.2,773.9c-2.2-10.3,16-18.7,24.2-19.2,7.6-.4,15.2,2.1,21.1,6.8,31.9,25.2-42.7,24.6-45.3,12.4Z"/>
      <path d="M516.7,806c-4.5.7-18.9,8.1-18.7,13.2.2,6.6,19.4,9.1,24.5,9,37-.3,15.8-25.3-5.8-22.2ZM501.9,819.3c7.5-12.2,28.6-14.5,36.3-1.3,9.2,8.3-34.2,8.7-36.3,1.3h0Z"/>
    </g>
    <path d="M551.1,659.5c-2.3,1.7-8.1,6.6-5.1,10,3.3,3.7,34.8,4,38,.5,6.5-7.2-16.1-23.2-32.9-10.5ZM549.1,667.8c4-10.9,20-13.3,28.5-6.5,15,12.1-23.8,7.5-28.5,6.5Z"/>
  </g>
  <path d="M53.3,761.9c1.6,1.1,12.4,34.9,11.3,36.7l-2-.5c.5-2-1.6-2.6-1.9-3.4-1.2-2.6-11-31.7-9.9-33s2.2,0,2.5,0h0Z"/>
  <path d="M89.3,779.3c-1.3,3-7,18.2-7.7,18.9s-2.6,1.7-3.2,1c-1-1,8.1-23.7,9.7-26.1s6.2-8.6,6.8-5.1c-2.2,3.6-3.8,7.4-5.5,11.3h-.1Z"/>
  <path d="M182.5,806.8c1.4,2.3,4.9,8.1-.2,8.1l-9.9-15.1c2.4-2.9,9.1,5.1,10.1,6.9h0Z"/>
  <path d="M193.4,795.9l-2,17.1c-6.5,1.1-1.6-21.8,2-17.1Z"/>
  <path d="M538.2,722.1c.3,1.1,3.1,1.7-2.2,2.2l-8-11.8c5.2-1.1,8.8,5.5,10.1,9.6h.1Z"/>
  <path d="M201.8,812.2c-.8.7-2.6,2.1-3.7,2.2-3.6-4.4,12.1-16.3,10.2-10.5-3,1.6-4.6,6.5-6.5,8.3Z"/>
  <path d="M574.8,503.4l-8.2,12.5c-3.5-.9,5.8-14.7,8.2-12.5h0Z"/>
  <path d="M249.3,554.4c-1,1.8-3.3,1.1-3.3-.7v-10.5h3.3v11.2Z"/>
  <path d="M545.8,723l-2-.4c-1.1-1.5-1.2-12.3,1.1-14.1,3.4-.8.5,12.6,1,14.5h0Z"/>
  <path d="M562.3,500.8c-.2,2-.9,15-2.9,14.5-3.2-1.5.6-17.4,2.9-14.5Z"/>
  <path d="M258.3,551.8c-.8,1-3,3.4-4.4,3.5-.8-5.3,3.9-8.8,7.6-11.8,2.2.3-2.5,7.4-3.2,8.3Z"/>
  <path d="M23.4,495.3c.9,2.5,2.8,4.9-1.9,2.9l-4.9-11.2c3.9,0,5.8,5.3,6.9,8.3h-.1Z"/>
  <path d="M561.6,713.1c.9.9-6.8,11.1-8.2,10.5-3.8-1.8,5.3-10.8,8.2-10.5Z"/>
  <path d="M554.4,515.9c-1.2,1.4-7.4-9.7-7.9-11.2,4.4-2,9.2,9.6,7.9,11.2Z"/>
  <path d="M238.4,548.5c1.8,2,3.9,3.7,3.7,6.8-4.8-.2-5.8-5.9-8.5-9l.9-1.5c2,.8,2.6,2.3,3.9,3.7h0Z"/>
  <path d="M31,484.4l-2.9,12.5c-3-1.7.3-15.5,2.9-12.5Z"/>
  <path d="M42.9,489l-.4,2-7.4,7.2c-.5-4.1,2.4-7.3,5.4-9.4l2.4.2h0Z"/>
  <path d="M105.9,136.6c-13.3,3.1-20.9,11.1-30.4,19.8-9.8-12.3-21-16.7-34.6-23.4,10.6-8.8,28.5-3.7,35.9,6.9,6.3-5.9,25.8-15,29.1-3.4h0ZM79.3,143.5c-.7.6-1.3,2.6-2.6,2.4-4.9-9.8-18.5-17.7-29.3-12.8,10.8,4,21.5,9.5,27.9,19.4,6.7-7.8,15.1-14.6,25.3-17.1-8.4-4.3-15.6,3.3-21.4,8.2h0Z"/>
  <path d="M126,181.6c-.9.6-1.4,2.9-3.4,1.9-6.2-8.2-14.7-10.8-23.2-15.6,6.8-6.7,18.3-1.8,23.3,4.9,4.3-5.2,18-11.6,24-7.5s-9.2,7-12.1,8.8-5.4,5.3-8.6,7.5h0ZM129.2,171.7c-1,.7-4.9,5.9-6.4,5.6-3.7-5.4-9.1-8.5-15.5-9.8l16.1,12.5c4.4-5.7,10.4-9.2,16.8-12.2-4.3-1.1-7.7,1.7-10.9,3.9h-.1Z"/>
  <path d="M459.7,125.5c1.1-2.3,2.4-4.7,3.5-7,1.2-2.4,7.3-11.1,1.3-13.2-11.4-4.1-12.9,19.9-14.1,21.5-1,1.2-14.2.6-18.3,11.6-8.6,23,14,35.9,34.1,30.8,26.8-6.8,24.6-50.1-6.5-43.6h0ZM462.3,108.4c.7,6.9-4.8,12-6.7,18.3h-1.5c.9-6,2.2-14.3,8.2-18.3ZM475.3,160.1c-19.6,20.3-55.4-6.3-36.3-25.4,6.8-6.8,9.3-2.4,15.1-2.6,2.3-.1,6-3.5,9.2-3.9,18.1-2.2,22.6,21,12,32h0Z"/>
  <path d="M257.5,183c.7.9,1.3,1.9,2,2.9,31.9-6.9,32.4,38.9,3.1,43.3-34.2,5.1-49.5-37.7-14-43.9-3-3.7-13.9-12.8-10.4-18.3s9.2,1.8,11.1,3.5c4.5,4,5.1,8.4,8.2,12.5h0ZM248.4,174.4c-.6-.7-6.1-5.8-7-4.8,1,6.8,7.4,10.7,12.5,14.5,1-1.1-4.4-8.5-5.5-9.6h0ZM276.7,192.8c-8.4-9.4-13.7-2.2-19.8-2.2s-4.2-1.8-7.2-2c-16.8-1.3-22,18.9-12.2,29.9,19.6,22,57.5-5.4,39.2-25.7h0Z"/>
  <path d="M510.8,190.1c5.5,5.3-11.3,13.7-11,14.6,31.1,6.2,16.5,41.5-10.2,43-44.1,2.5-39.8-63.4,1.3-44.6,1.9-4.6,14.6-18.1,19.9-13h0ZM495.9,201.7c4.4-1.7,9.4-3.9,11.8-8.2-.6-3.7-11.7,6-11.8,8.2ZM510.8,213.1c-6.4-8.2-14-3.5-19.7-4.9-18.5-18.3-39.6,8.9-24.2,27.4,20,23.4,58.8-3.3,43.8-22.5h.1Z"/>
  <path d="M318.3,600.1c-3.9.2-6.5-1.9-6.6-5.9,1.4-1.4,7.8,4.8,6.6,5.9Z"/>
  <path d="M351.6,496.6c-.4,1.9-5,20.5-7.6,19.3,3.1-6.9,2.5-32.3,8.2-34.8,2.3,1.1,0,12.9-.6,15.5h0Z"/>
  <path d="M356.5,381.5c.1-.8.6-2.8,2-2.3.2,5.8,2.2,29.3-.1,33s-.7,1.4-1.8,1.1c1.2-9.4-1.6-23,0-31.9h-.1Z"/>
  <path d="M362.4,322c.6,8,2.7,17.4,1,25l-3.7-10.8c1-4.1-2.4-12.9,2.7-14.2Z"/>
  <path d="M366.3,439.7v25l-2-.4c-1.3-1.7-.8-21.3.6-23.8s0-1.1,1.5-.8h-.1Z"/>
  <path d="M415.5,427.3c5.6-.8,15.5.9,17.7,6.9,4.3,11.5-8.7,3.8-12,3.4-6.5-.7-9.3,3.9-14.8,1.6l-1.8-3.4c-.4-4.5,7.2-8.1,10.8-8.6h0Z"/>
  <path d="M440.2,402c-4.8-3.5,0-17.1,8.3-13.3,6.3,5-1.2,18.6-8.3,13.3Z"/>
  <path d="M417.4,395.4c-3.5,5-12.1,4.2-13.6,10.4.2,7,13,5.5,12.5,7.2-7.6,5.1-19.6-2.6-13.8-11.8s6.2-2.9,8.9-4.9c4.4-3.2,3.4-7,7.2-9.9,1.8,2.3.3,6.8-1.2,9h0Z"/>
  <path d="M392.2,367.6c1.6-2,21.3-7.2,22.2-.5,0,3.2-28.2,7.8-22.2.5Z"/>
  <path d="M447,369.5c4.7-1.8,21.9,10,19,13.7s-16.2-9.1-20.1-9.6c-1.4-1.5-.6-3.5,1.1-4.2h0Z"/>
  <path d="M392.8,392.8c-3.1-4.1,0-15.9,7-12.6,6.6,3.2-1.3,20.1-7,12.6Z"/>
  <path d="M503.6,413.6c9.8-1.2-2.5,5-4.3,5.6-5.6,1-.8-5,4.3-5.6Z"/>
  <path d="M159.4,418.5c-4.1-9.9,22.3-13.4,20.3-2.8-.8,1.1-18.9,4.1-20.3,2.8Z"/>
  <path d="M147.3,371.4c8.3-1.9,9.2,15.2,2.4,16.1-7.3.7-11-14.9-2.4-16.1Z"/>
  <path d="M191.3,362.2c9.4-1.3,8.4,15.3,1.7,15.6s-9.1-14.6-1.7-15.6Z"/>
  <path d="M173.6,374.7c1.8,7,10.4,6.6,12.5,12.1,1.4,8.2-12.8,11.2-11.8,7.8,17.3-8.5,1.8-8.6-2-14.6s-2.6-5.9,1.2-5.3h.1Z"/>
  <path d="M129.7,369.3c-3-7.8,22.6-17.9,23-12.1-3.7,2.8-7.9,2.4-12.5,4.6s-6.4,5.7-10.5,7.6h0Z"/>
  <path d="M197.4,354.9c-6.7-2.5-11.7-3.7-18.7-.9-5.9-7,20.2-7.1,18.7.9Z"/>
  <path d="M328.1,103.3c5.8-.9,9,3.2,8,8.7-11.2,15.3-23-6.3-8-8.7Z"/>
  <path d="M290.5,101.3c11.2-3.4,12.9,12.6,3,13.5s-8.9-11.7-3-13.5Z"/>
  <path d="M331.3,94.1c10.6-1.3-8,8.7-10,9.1-9.3,1.8,6.8-8.7,10-9.1Z"/>
  <path d="M292.7,93.3c2-1.9,11.4,7.4,11.2,8.2-1.3,4.2-13.1-6.4-11.2-8.2Z"/>
  <path d="M301.9,128.8c1.6,2.3-1.9,5.2-3.3,3.9s1.3-5.3,3.3-3.9Z"/>
  <path d="M290,128.2c1.2,2.3-1.5,5.1-2.6,3.9s1.2-6.5,2.6-3.9Z"/>
  <path d="M278.9,730.2c9.6-9.1,28.4,3.1,11.8,11.5.5,1.9,12.7,0,11.9,9.9-2.6,8.4-10.9,6.2-17.4,4.3l.7,9.6c-8.5,9.7-18.6,5.9-20.5-6.4-9.9,13.1-31.1-.6-10.9-10.9-21-2.4-10.9-22.2,5.3-15.7.4-12.8,19.4-18.1,19-2.4h.1ZM271.5,736.2c-10.4,1.2-11.1,15.9-.7,17.5,15.5,2.3,15-19.1.7-17.5Z" fill="#fff"/>
  <path d="M305.9,783.4c-3.1,15.6-16.2,21.9-30.7,24.2l-1.4-.8c2.8-14.2,18.1-23.5,32.2-23.3h-.1Z" fill="#fff"/>
  <path d="M266.7,798.3c.7,1.4,5.4,8.4,2.7,9.3-12.9-1.5-28-10.8-27.7-25.5,12.4,0,19.6,5.7,25,16.2Z" fill="#fff"/>
  <g>
    <path d="M58.4,669.7l-6.3-6.9c0-2.5,14.3-.9,11-10.4-2.3-6.6-13.2.2-14.3-.5,1.4-16.7-19.2-15.9-15.2-1.3-4.5,1.9-16.1-2.2-15.8,6.2.2,5.4,6.6,7.9,11.2,6.9-7.7,14.1,5.5,19.4,12.8,6.5,4.2,7.5,14.7,9.4,16.5-.6h0ZM48.6,661.4c-1.6,8.3-13,7.6-16.1,2.2-6.4-11.4,19.1-18.1,16.1-2.2Z" fill="#fff"/>
    <path d="M45.5,708.5c9.7-2.7,20.8-9.5,22.1-20.4-11.4-2.4-20.6,10.4-22.1,20.4Z" fill="#fff"/>
    <path d="M21.5,691.4c-1.4,10.4,10.4,19.1,20.1,18.4-1.9-9.8-9.1-19.3-20.1-18.4Z" fill="#fff"/>
  </g>
  <path d="M546.4,754.7c7.6-.4,15.2,2.1,21.1,6.8,31.9,25.2-42.7,24.6-45.3,12.4-2.2-10.3,16-18.7,24.2-19.2Z" fill="#fff"/>
  <path d="M538.2,818c-7.7-13.2-28.8-10.9-36.3,1.3,2.1,7.4,45.6,7,36.3-1.3Z" fill="#fff"/>
  <path d="M549.1,667.8c4-10.9,20-13.3,28.5-6.5,15,12.1-23.8,7.5-28.5,6.5Z" fill="#fff"/>
  <path d="M79.3,143.5c5.8-4.9,13-12.5,21.4-8.2-10.2,2.5-18.6,9.3-25.3,17.1-6.4-9.9-17.2-15.4-27.9-19.4,10.7-4.9,24.4,3,29.3,12.8,1.3.3,1.8-1.8,2.6-2.4h0Z" fill="#fff"/>
  <path d="M129.2,171.7c3.2-2.2,6.6-5,10.9-3.9-6.3,3-12.4,6.5-16.8,12.2l-16.1-12.5c6.4,1.3,11.8,4.4,15.5,9.8,1.5.2,5.4-5,6.4-5.6h.1Z" fill="#fff"/>
  <g>
    <path d="M230.6,90.6c9.3-6.9,21.5-11.5,33.2-9.2-1-4,5.1-12.7-1.1-14.3-6.1-1.6-7.2,2.7-9,2.5-1.6-.2-2.4-2.4-3.8-2.8-7.9-2.4-10.1-1.6-17.8.8-1.3-3.5-1.4-6.6-2.8-10.2-9.3-23.8-37.3-20.9-50.6-2.3-5.2-3.6-8.3-9.2-14.6-11.7-18.1-7.4-41.8,4.6-45.6,24.1-4.9-1-7.2-3.5-12.8-3.3-15.6.6-26.5,24-7.2,26.4,40.4,4.9,90.7-3.7,132.1,0Z" fill="#fff"/>
    <g>
      <path d="M591.2,215.9v-126.5h-94.7l.6,10.2c29.3-1.6,47.5,25.3,32.9,51.6,38.3-1.4,49.2,49.4,15.1,65.4,20.3,28.7-9.5,58.8-40.2,53.2-4.2,25-35.6,31.5-55.5,20.2-7.9,20.4-29.1,19.7-47.7,18.7v10.8c4.5-1.1,12.1,2.1,16.1,1.3,3-.6,9-7.2,17.1-7.9,8.4-.8,12.3,2.8,17.9,3.1,11.5.6,16.1-6.3,30.9,2.1,7,3.9,9,11.2,12.1,13.6,1.4,1.1,11.6,3.2,15.5,5.6,13.2,8.2,9.4,14.1,12.9,25.2,1.1,3.6,9.3,9.7,8.4,15.6,2.3,1.4,38.2-21,49-21h9.5v-48h-54.9c-2.8,0-9.3-3.8-10.3-6.8-4-12.2,12.1-20.4,22.5-18.2-8.6-16.2,8-29.5,23.7-27.6-6.5-18.8.3-33.7,19.1-40.4v-.2Z" fill="#fff"/>
      <path d="M539.3,155.4c-6.3-1.4-10.7,0-16.4-1.3,20.9-24.7,1.8-55.2-29.3-50.9,5.3-30.2-28.4-50.2-54.5-38.9-4.9-24.8-35-33.7-53.2-15.8-13.2-10.4-33.8-11.4-48.4-3.5-2.4,1.3-10.1,8-10.9,8.1-1.4,0-8.1-3.2-10.6-3.6-24-3.9-49.2,10.2-48.2,36.6-26.8-9.8-64.1,23.3-43,49.3l-.7,2h-11.8c-8.3,0-20.8,11.5-23.5,19.3-5,14.4.3,22.4,11.2,31-35.8,11-26.9,59.5,9.7,59.5h13.5c-18.5,33.9,26.1,51.9,51.3,32.9,2.4,27.5,38.9,32.6,55.8,14.6.2-1.1-5.7-17-6.7-18.3-2.3-3.2-15.1-6-20.4-10.1-2.4-1.9-9.4-11.2-10.2-11.5-3.9-1.4-11.8.6-15.8-4l.3-1.6c10.9,3.6,29.1,3.6,34.4-8.8-.4-1.9-17.1-10-12.1-15.5,9.5,13.2,24,16.6,38.8,20.4l.3,1.3-4.6,1c4.5,7.6,20.3,41.7,29.8,41.1,6.6-.2,20.8-33.9,19.4-35.5-28.6-3.5-61.3-21.5-59.9-54.3,1.7-39.8,52.4-49.1,53.1-78.2.2-10.1-5.8-19.8-15.6-22.7,9.3,32.2-37,62.6-64.4,46.7-7.4,3.3-6.3,27.7-7.7,28.2-4.3,1.6-2.8-12.1-2.3-13.8-.7-.8-14.8,12-17.7,6.2,10.3-4.4,18.1-9.9,22.9-20.5-14.8-4.7-27.1-12.7-20.4-30.3,1.7-4.5,6.1-7,6.9-8.9,2.6-6.2.5-11.7,6.4-19,10.7-13.3,22.5-5,32.9-10.7,33-52.4,118.6,11.4,90.3,70.5-8.6,18.2-42.7,34.4-43,51.1-.2,14.6,17.2,22,29.2,23.9,2-.6,4.4-14.1,6.3-16.7,1-1.3,26.4-18.5,28-18l-4.6,31.5c3.1,4,17.8-8.5,21.4-6.6-5.3,7-13.6,9.6-21.9,11.3l-1.1,3.1c43.2,12.2,17.4,57.6-16.8,59.1l-2.8,19c19,3.8,38.2,1.7,45.1-18.9,20.9,12.7,50.2,8,54.9-19,24,4.6,46.7-8.6,45.9-34.4l-8.5-17.6c30.4-7,29.1-52.2-.6-58.8h-.2ZM262.6,229.2c-34.2,5.1-49.5-37.7-14-43.9-3-3.7-13.9-12.8-10.4-18.3,2.2-3.5,9.2,1.8,11.1,3.5,4.5,4,5.1,8.4,8.2,12.5.7,1,1.3,1.9,2,2.9,31.9-6.9,32.4,38.9,3.1,43.3h0ZM432.1,138.3c4.1-11,17.4-10.4,18.3-11.6,1.2-1.6,2.7-25.5,14.1-21.5,6,2.2,0,10.8-1.3,13.2-1.1,2.3-2.4,4.7-3.5,7,31-6.5,33.2,36.8,6.5,43.6-20.1,5.1-42.7-7.8-34.1-30.8h0ZM489.6,247.7c-44.1,2.5-39.8-63.4,1.3-44.6,1.9-4.6,14.6-18.1,19.9-13,5.5,5.3-11.3,13.7-11,14.6,31.1,6.2,16.5,41.5-10.2,43h0Z" fill="#fff"/>
    </g>
  </g>
  <path d="M455.7,126.7h-1.5c.9-6,2.2-14.3,8.2-18.3.7,6.9-4.8,12-6.7,18.3Z" fill="#fff"/>
  <path d="M276.7,192.8c18.3,20.3-19.6,47.7-39.2,25.7-9.8-11-4.6-31.2,12.2-29.9,3,.2,4.9,2.1,7.2,2,6.1,0,11.4-7.2,19.8,2.2Z" fill="#fff"/>
  <path d="M248.4,174.4c1.1,1.1,6.5,8.5,5.5,9.6-5.1-3.7-11.4-7.6-12.5-14.5.9-.9,6.3,4.2,7,4.8h0Z" fill="#fff"/>
  <g>
    <path d="M463.3,128.1c-3.2.4-6.9,3.8-9.2,3.9-5.8.3-8.3-4.2-15.1,2.6-19.1,19.1,16.6,45.8,36.3,25.4,10.6-11,6.2-34.2-12-32h0Z" fill="#fff"/>
    <path d="M510.8,213.1c-6.4-8.2-14-3.5-19.7-4.9-18.5-18.3-39.6,8.9-24.2,27.4,20,23.4,58.8-3.3,43.8-22.5h.1Z" fill="#fff"/>
  </g>
  <path d="M495.9,201.7c.1-2.2,11.2-11.9,11.8-8.2-2.4,4.4-7.4,6.5-11.8,8.2Z" fill="#fff"/>
  <path d="M271.5,736.2c14.3-1.6,14.8,19.8-.7,17.5s-9.8-16.3.7-17.5ZM278,740.9c-4-4-14.5,0-11.6,5.8,4.2,8.5,18.5.9,11.6-5.8Z"/>
  <path d="M32.6,663.6c-6.4-11.4,19.1-18.1,16.1-2.2s-13,7.6-16.1,2.2ZM40.1,654.8c-5,.8-7.2,7.2-2.3,9.2,9,3.8,12.3-10.7,2.3-9.2Z"/>
  <path d="M278,740.9c6.8,6.8-7.5,14.3-11.6,5.8s7.6-9.8,11.6-5.8Z" fill="#fff"/>
  <path d="M40.1,654.8c9.9-1.5,6.7,13.1-2.3,9.2s-2.7-8.5,2.3-9.2Z" fill="#fff"/>
</svg>