<?xml version="1.0" encoding="UTF-8"?>
<svg id="Camada_1" xmlns="http://www.w3.org/2000/svg" version="1.1" viewBox="0 0 595.28 841.89">
  <!-- Generator: Adobe Illustrator 29.0.0, SVG Export Plug-In . SVG Version: 2.1.0 Build 186)  -->
  <g>
    <path d="M.14,841.29V-.06h595v841.34H.14ZM590.54,3.89H4.08v203.76l7.92-4.95c-1.21-15.87-9.51-47.63,2.88-60.17,1.01-1.02,3.32-1.44,3.58-2.29-.71-3.7-2.18-15.1,3.66-14.73,6.18.39,4.35,10.91,5.96,13.79.22.39,4.73,2.59,6.27,4.25,4.3,4.61,7.39,19.33,8.42,25.76,1.2,7.44,1.67,15.69,2.08,23.23l8.84-2.66c3.6-16.53,7.04-33.07,13.38-48.41,2.18-5.28,9.48-21.22,14.25-23.93,1.05-.6,1.45-.62,2.51.01l-4.79,65.77,22.87-1.74,9.34-21.65c.35-2.06-1.95-2.13-2.79-3.72-8.32-15.84,5.87-36.81,13.31-50.29,6.26-11.35,15.01-29.65,27.94-34.33,2.63-.95,6.98-1.03,8.21-1.65,2.26-1.14,5.58-11.23,11.56-7.59,5.45,3.32-2.66,11.81-2.86,13.63-.35,3.14,2.34,3.74,2.84,6.76,1.06,6.33-3.56,16.83-5.97,23.01-1.22,3.14-6.87,10.05-2.27,11.54,9.57-23.71,46.32-21.03,47.34,6.23,12.03-7.97,31.08.27,32.2,14.8.5,6.54-.86,8.84-7.52,9.55l-92.61-.05c-2.96,5.6-7.77,10.16-13.34,13.1-1.75.92-5.48,1.12-6.66,2.22-2.03,1.89-6.44,17.33-8.06,20.85,14.03,2.1,26.3,9.6,38.39,16.39,9.35-12.66,21.12-23.13,31.91-34.5l3.95-.89.26,3.11-19.93,42.18,39.79,18.98c2.82-5.15,7.85-9.24,10.99-13.88,5.85-8.66,9.42-18.24,16.59-26.79,22.33-26.62,64.81-38.17,97.87-27.67,8.26-9.6,16.31-21.43,28.35-26.23,3.32,1.23,4.68,4,6.55,6.65,5.58,7.9,9.93,17.95,14.18,26.61,1.15.61,9.87-6.61,12.36-3.51l11.28,78.43c9.02.2,17.17.17,25.68,3.57-1.98-8.74-1.25-17.1-.64-25.95.74-10.83,3.08-29.31,6.71-39.3,4.08-11.24,15.79-15.91,27.05-14.85,31.82,2.98,25.57,49.8,28.86,71.72.88,5.86,5.93,12.56,5.75,18.9h12.48c-1.07-5.82,4.4-12.16,4.64-16.78.21-4.1-1.32-9.32-1.36-13.74-.1-13.03,1.11-35,5.61-47.03,8.13-21.7,42.18-21.47,52.64-1.4,5.08,9.76,9.57,41.49,8.1,52.27-.29,2.12-2.49,5.89-2.42,7.18s2.28,4.07,2.79,5.71c1.27,4.15,2.09,8.42,3.64,12.48l5.91-1.32V100.51h-147.6c-3.94,0-3.82-6.33-3.17-9.08,2.97-12.6,18.89-17.58,30.38-14.66,5.07-20.08,32.66-25.11,46.09-10.44,1.37-28.65,42.29-33.2,53.37-7.01,1.02,2.42.66,6.34,2.51,6.37l-1.31.65,1.32.98-1.32,1.64c6.48-3.14,12.5-4.36,19.72-2.63V3.89ZM590.54,97.88v-27.28c-2.49-2.06-7.74-2.07-10.79-1.58-3.57.57-9.46,6.46-11.61,4.92-.53-.38-.21-9.82-.9-12.26-5.27-18.68-34.19-22.03-44.71-6.48-3.87,5.72-2.66,10.6-3.67,17.04-1.71,1.48-7.45-5.58-9.26-6.84-11.03-7.71-28.83-4.78-34.9,7.72-.84,1.73-2.42,8.74-3.56,8.96-11.75-7.15-28.62.58-28.23,14.5.17.26,2.4,1.3,2.65,1.3h144.97ZM168.44,65.03c-3.98-.53-11.1,8.24-3.92,8.26l3.92-8.26ZM156.35,113.4c4.68-9.37,15.04-28.49,5.22-37.24-6.48-5.78-15.87.4-20.75,5.6-9.43,10.05-27.9,43.2-31.47,56.1-1.91,6.91-.3,19.73,8.19,21.1,14.16,2.29,20.34-13.52,25.92-23.12,4.12-7.09,9.11-14.86,12.9-22.44ZM142.81,144.55h92.37c.15,0,2.26-1.61,2.31-1.79,1.32-4.52-2.59-12.42-6.26-15.3-3.07-2.4-8.58-4.17-12.49-4-3.34.15-11.44,4.7-12.15,4.37-2.09-.99-1.03-5.03-1.49-7.11-4.18-18.76-27.6-23.18-38.16-6.9-2.2,3.39-2.39,6.74-4.8,9.66l-4.85-5.23-14.47,26.29ZM75.52,185.11c1.45-20.82,2.02-41.64,5.47-62.25-8.77,10.92-12.28,24.03-16.33,37.21-12.19,39.61-17.05,82.25-19.19,124.13-.94,18.41-3.15,46.91-1.29,64.44,1.29,12.14,6.44,25.84,8.58,37.46,5.44,29.5,9.41,62.05,11.86,91.33.32,3.88-.35,8.25-.04,12.2l2.63-42.38c4.5-20.49,2.64-39.95,2.59-60.46-.16-67.18,1.11-135.39,5.72-201.68ZM21.18,129.76v9.53h3.29c.44-.42.08-12.78-3.29-9.53ZM397.24,223.43v-11.5c-1.27-1.74-6.38-2.75-7.28-4.06-1.45-2.1-1.75-10.41-2.65-13.49-4.11-14.09-10.53-30.38-17.99-43.28-2.45-4.24-5.46-9.28-9.22-12.45-6.28-.32-28.61,27.89-32.72,33.66-3.52,4.93-7.2,10.53-10.37,15.47-1.06,1.65-4.09,9.06-5.25,9.69l-79.23.32-8.88,13.47c58.07-3.47,116.68.55,173.58,12.17ZM39.8,174.6c-1.64-10.77-2.41-38.89-20.39-30.82-4.43,1.99-6.55,7.22-7.27,11.79-2.22,14.1,2.05,58.67,11.12,69.39,6.96,8.23,17,.99,18.78-7.29,2.89-13.46-.29-30.28-2.24-43.06ZM330.18,163.62c-34.62-9.62-74.27,2.01-95.99,30.88l75.15-.12,20.84-30.76ZM110.32,181.1c2.34-6.21,4.67-12.45,7.5-18.46l-4.49-.88c-12.07,25.8-19.05,53.23-25.7,81.08-5.78,24.2-13.35,52.73-14.54,77.51-.46,9.49.38,19.12.03,28.61,1.34-2.33.84-6.2,1.34-8.73,10.88-55.2,15.61-105.3,35.86-159.14ZM571.08,185.05c-4.12-10.53-8.55-17.46-20.99-18.79-17.64-1.89-26.42,6.41-29.7,22.87-3.05,15.24-2.75,31.96-2.82,47.45,3.71-4.87,6.92-7.49,12.24-10.44,1.71-.95,5.33-1.01,5.56-3.05.21-1.87-4-4.33-5.19-6-10.65-14.93-10.03-41.78,13.36-42.15,29.81-.47,23.89,38.06,17.4,56.52l-5.89,5.75c8.02,4.07,20.36,4.84,22.19-6.4,1.9-11.72-1.91-34.96-6.14-45.78ZM391.32,166.9l-8.52,4.88c4.2,10.98,8.48,21.86,9.61,33.75l4.17,2.11-5.26-40.75ZM479.85,178.3c-8.65-10.67-26.77-13.19-36.47-2.42-4.47,4.96-5.49,13.93-6.58,20.37-2.36,13.96-3.42,28.81-3.38,42.95,4.41-7.24,10.48-13.14,18.4-16.44l-.46-1.3c-11.48-4.35-13.82-23.39-9.72-33.51,4.44-10.96,20.87-12.74,30.37-7.38,10.47,5.91,10.2,17.56,8.13,28.1l-7.86,12.97c3.31,6.99,11.98,6.21,17,12.32-2.39-14.85.27-43.67-9.43-55.64ZM182.25,172.16c-10.91,8.25-19.25,19.31-28.26,29.24-53.33,69.31-75.15,156.55-83.49,242.56-1.48,15.27-3.89,37.61-3.04,52.46.39,6.84,1.88,6.9,8.28,7.67-10.45-32.58,4.41-67.21,28.14-89.86,4.37-66,26.21-127.81,52.68-187.4,8.18-18.41,16.11-37.03,25.7-54.67ZM559.91,186.34c-7.58-12.02-29.98-11.44-32.32,4.07-2.24,14.84,3.67,32.95,21.79,30.33,14.22-2.06,16.85-24.37,10.53-34.4ZM444.94,207.93c2.98,8.83,6.95,13.41,17.04,12.85,14.42-.8,17.13-16.73,15.41-28.52-2.16-14.76-32-16.91-34.03,1.35-.65,5.84-.21,9,1.58,14.32ZM100.73,184.65l-22.35,1.32-4.6,100.56c3.1-3.52,2.54-9.32,3.46-13.95,3.95-19.77,8.4-39.24,13.95-58.36,2.9-9.98,6.34-19.72,9.54-29.57ZM133.35,225.81c4.9-7.71,9.92-15.26,15.09-22.78-11.36-7.2-23.51-13.68-36.77-16.47-.13,1.73-2.29,3.47-2.57,4.16-4.36,10.74-7.37,26.74-10.28,38.32-11.3,44.94-19.05,92.62-24.43,138.62-.88,7.51-.54,15.17-.6,22.71l.68-3.47c.15-.48,1.12-.43,1.24-.96,1.12-4.69,1.26-10.51,2.22-15.41,9.52-48.93,28.93-103.01,55.43-144.72ZM52.73,194.5l-7.14,1.41c-.69,10.08,1.92,21.41-4.14,30.36-.87,1.29-3.39,2.1-3.67,3.47-.14.67,1.55,11.79,1.82,13.59.07.46,1.2.46,1.27.93,1.06,7.19,1.88,14.6,2,21.88l9.85-71.64ZM13.28,206.99l-9.22,5.05.07,35.99c15.55,21.68,21.69,47.53,31.44,71.79.37.92-.61,1.9,1.39,1.53-2.02-20.86-2.93-41.92-5.27-62.76-.76-6.78-2.19-13.63-3.33-19.69-.35-1.85.76-6-.78-7.43-.72-.67-3.68-1.06-5.77-3.1-.91-.89-4.74-6.93-5.22-8.06-1.77-4.13-2.65-8.89-3.3-13.32ZM201.55,235.49c.52-.68,4.62-2.82,2.39-4.49l-37.8-18.07-23.32,51.59c4.57-2.58,7.23-8.52,11.14-12.52,3.15-3.23,10.8-9.65,15.11-10.53,18.3-3.73,1.31,24.51,1.02,31.91,11.05-12.2,21.49-24.85,31.46-37.89ZM398.2,229.05c-.86-1.2-.3-1.83-2.25-2.68-4.83-2.12-23.61-4.52-30.02-5.48-47.12-7.07-96.08-9.39-143.52-5.63-10.82,12.29-20.16,25.82-30.69,38.33-21.18,25.17-59.62,57.52-55.41,93.67.15,1.27,3.5,14.46,5.83,12.89,8.43-16.05,21.14-30.75,38.35-38.24,12.6-5.49,27.91-6.12,37.94-16.63,4.84-5.07,10.17-13.44,9.77-20.65-4.85-.89-8.47-.82-11.75-5.01-8.19-10.46-5.76-22.39,1.98-32.18,5.93-7.5,17.05-11.02,24.56-3.56,1.42,1.41,4.12,7.09,5.3,7.17,10.41-5.59,15.31-16.85,20.51-26.92,7.15,3.8,12.73,7.9,20.77,9.99,20.51,5.33,40.7,1.44,56.7-12.66,7.3,12.86,24.39,26.38,39.54,27.52,2.59.2,10.5-1.51,11.41.43l-5.83,3.36-2.7,20.96,1.29.31c8.42-10.68,16.93-32.79,8.2-44.99ZM561.6,220.8l.65-5.26-3.93,4.28,3.28.98ZM538.6,223.43c-1.12,4.51,7.32,10.58,11.07,10.81,6.27.38,14.16-8.93,7.03-12.76-5.69,3.23-11.77,3.19-18.1,1.96ZM474.16,228.04l-5.59-5.3c-6.39,3.33-14.21-1.99-18.12,4.94,3.89,8.85,19.65,8.26,23.7.35ZM352.95,234.84c-2.79-2.68-5.34-5.33-7.97-8.17-21.24,16.76-52.5,16.61-74.9,2.07-3.07,4.9-5.06,10.44-8.66,15.03-1.63,2.08-13.57,14.09-15.73,11.2-6.8-22.09-28.47-11.51-29.94,7.53-1.14,14.72,5.86,20.99,20.4,18.1.4,2.43-3.66,2.84-4.27,3.93-1.56,2.77,2.89,18.81,4.34,22.48,17.41,43.78,73.77,63.3,113.49,36.17,25.5-17.41,33.79-50.82,37.71-79.31.5-3.67.37-8.44.61-12.21-14.44-.26-25.16-7.28-35.09-16.85ZM536.21,229.09c-.55-.42-.64-1.82-1.85-1.73-15.8,5.73-16.99,16.71-20.16,31.04-.11.49-1.06.37-1.28,1.5-2.02,10.26-2.17,21.46-2.97,31.88l8.19,2.57c.17-7.05,3.84-15.21,4.04-21.95.27-8.71-4.21-19.1-.09-28.21l2.03-.4c-.19,7.32-1.9,18.18.72,25.11.83,2.18,4.24,2.75,6.27,3.07,11.23,1.77,23.3.52,34.42-1.23l.02-21.02h1.95s.66,47.5.66,47.5c1.16,1.95,9.96.19,12.05-.79,2.13-1.72,2.52-19.69,2.41-23.37-.16-5.56-2.83-29.1-6.24-32.56l-.64-.58c-5.32,3.39-10.16,3.65-16.14,2.25-9.22-2.16-16.29-7.68-23.41-13.09ZM439.98,247.09v19.39c0,.89,1.71,5.17,2.58,5.97,4.89,4.48,35.24,4.96,40.39,1.49,1.16-.79.93-.94,1.12-2.16,1.07-6.81-.96-15.74-.69-22.72h1.97c2.94,14.38-1.4,29.15,4.98,42.64,2.09-.34,9.07-1.72,9.54-4.17.65-3.36-1.47-16.31-2.14-20.28-2.17-12.96-5.51-32.52-19.94-36.66-3.6,1.27-4.9,4.38-8.89,5.64-8.38,2.64-17.54,1.19-21.35-7.54-3,1.78-5.64,3.91-7.84,6.62-8.71,10.73-14.93,38.52-13.8,51.97.43,5.16,3.71,5,8.23,4.78.3-5.06,4.89-13.41,5.03-17.87.08-2.56-2.04-6.17-2.4-9.11-.17-1.44-.01-22.04,3.21-18ZM35.64,231.31l-3.66.62c1.94,28.35,5.05,56.79,7.59,85.17.45,4.98-.14,5.88,1.3,10.64.32,1.06-.67,3.4.67,3.47l.69-49.65-6.6-50.26ZM168.17,267.85c1.58-4.07,7.11-18.18,6.65-21.67s-4.33-2.57-6.73-1.75c-6.85,2.32-20.8,19.51-24.85,25.85-14.54,22.75-29.74,86.16-33.91,113.38-.47,3.08-2.8,25.38-2.02,26.45l14.47-15.61,17.47-29.75c.46-2.5-2.47-5.64-3.51-8.37-13.95-36.73,20.61-58.08,32.43-88.52ZM344.65,376.58h21.7c-7.66-8.2-9.76-23.35,5.91-20.38-4.83-13.72,5.09-15.27,15.79-11.84-6.25-9.57-3.42-23.41,9.86-14.46,1.95-8.63,7.97-11.39,15.44-5.91,3.72-7.48,8.7-8.44,14.8-2.63-.16-2.74,1.44-6.78.67-9.39-.14-.46-2.32-1.48-3.19-2.88-5.08-8.17-1.93-37.58.08-47.69.61-3.08,4.23-10.62,2.46-12.69-1.95-2.28-21.19-4.4-23.34-1.61-.61.79-3.23,13.99-5.42,18.21s-10.14,11.97-11.18,14.49c-9.03,21.85-6.36,34.14-23.85,54.84-1.96,2.31-7.53,5.84-8.71,8.58-1.34,3.12-2.39,11.22-3.72,15.48-1.96,6.3-4,12.13-7.3,17.87ZM4.08,254.98v44.37c0,1.61,3.56,8.22,4.28,10.84,11.26,40.64,19.33,88.06,22.66,129.84,1.79,22.45,1.16,45.09,2.78,67.55l2.48,1.78c3.57-10.7,5.78-21.57,10.42-31.99,2.31-5.18,5.07-9.9,9-14.01l-2.97,33.52h9.2c-1.08-13.19-1.44-26.56-2.64-39.76-5.58-61.21-17.95-122.84-42.91-178.64-3.5-7.83-6.43-17.35-12.31-23.49ZM590.54,256.95l-5.29,1.75c.18,11.32,1.87,24.17.03,35.38-.71,4.31-2.88,4.27-3.21,5.36-.21.69.76,3.93.58,5.79-.58,6.06-2.95,11.45-3.31,17.75-.19,3.38.18,6.83.03,10.21.67.84,6.72-5.47,9.28-2.34l.48,1.85-18.31,50.79.34,1.65c.52-.05,1.03.16,1.51-.16s5.47-8.04,7.03-9.71c3.24-3.49,7.59-6.61,10.85-10.18v-108.13ZM509.67,259.58c-2.09.42-8.96-1.04-9.79,1.09-.28.73,1.63,13.49,1.91,15.54.33,2.33,2.1,6.89,1.97,10.61-.17,4.93-3.04,3.73-3.35,4.75-.47,1.58.85,4.03.71,5.77-.2,2.6-1.78,9.2-3.29,11.23-.96,1.29-3.53,2.12-3.85,3.39-.63,2.46,3.16,13.58,1.87,17.3,5.13-.78,10.64-3.2,15.13.99,1.82.42,1.66-8.47,1.99-10.38.08-.48,1.14-.45,1.24-.97.34-1.71.36-3.87.66-5.66-.51-1.33-2.61-.88-3.61-1.7-3.75-3.07-4.26-17.13-4.26-22.02,0-9.81,1.96-20.15,2.65-29.94ZM564.89,273.38c-13.17,3.95-26.37,2.84-39.72.61-3.71,5.81,4.1,6.51,8.57,7.2,10.41,1.62,20.95.54,31.09-1.97l.07-5.84ZM370.62,376.58h52.27l-10.41-25.48c-.48-1.6.51-3.27,2.22-3.45,2.72-.29,16.45,9.53,19.01,11.87,4.66,4.26,7.58,10.02,12.18,13.78-2.28-7.94-4.87-16.01-6.38-24.18-2.2-11.91-6.96-30.17,9.66-12.28,7.3,7.86,12.29,17.49,17.77,26.6-3.25-16.95-6.83-33.79-9.88-50.8-.09-.49-1.17-.45-1.26-.95-3.02-18.04,3.92-15.45,12.47-4.28,8.53,11.14,18.81,35.11,23.1,48.39,3.34,10.36,5.58,21.29,7.8,31.95l13.6-51.6c-3.2-4.34-5.77-5.61-11.25-4.86-2.04.28-6.35,3.27-7.29,1.91l-10.82-56.24c-13.52,3.4-28.53,3.93-41.77-.95l-11.82,51.96-1.68.32c-2.06-2.48-3.77-8.7-8.05-7.46l-3.91,4.02-2.81,7.69c-5.46-14.72-14.51-8.48-10.86,5.26-1.96,2.16-8.73-9.77-12.49-7.59-4.22,2.44,2.29,14.43,1.68,18.13-1.57,2.29-12.17-5.21-16.63-1.17-3.5,5.81,4.09,7.71,3.78,12.98-4.07.82-9.11-2.88-12.76-.58-4.94,3.11,1.41,14.15,4.54,17.02ZM564.89,282.58c-6.67.74-13.22,2.29-19.99,2.36-7.3.07-14.33-1.91-21.51-2.64l-7.81,47.6c3.59-4.73,5.1-11.31,8.66-16.01,2.07-2.73,4.94-5.85,6.81-1.11l-2.32,57.21c2.76-7.65,4.41-15.72,7.13-23.39,3.41-9.63,8.18-20.22,13.25-29.03.7-1.21,6.11-14.24,8.9-10.05.86,20.55-4.82,40.74-6.27,61.15,4.28-6.82,8.51-13.98,13.53-20.31,2.38-3.01,10.42-10.03,11.15-12.51,1.33-4.53-.38-12.22.3-17.13-7.21,1.41-5.46-4.22-6.68-5.81-.29-.38-3.62-.22-4.37-2.53-1.2-3.7,1.31-7.69,1.09-10.42-.11-1.33-1.68-2.68-1.83-4.63-.31-4.23.1-8.53-.06-12.76ZM497.83,293.1l-6.62,1.75,2.03,13.36c4.18.17,5.4-14.22,4.59-15.11ZM433.4,295.08l-6.56-1.32c-.97,5.26-1.29,11.42,2.3,15.77l2.96-13.35,1.3-1.1ZM236.43,315.19c-3.3-6.46-5.3-13.26-7.48-20.11-2.25,7.08-8.16,12.23-13.6,16.97l-10.07,5.69c7.92,9.25,20.1,14.19,31.89,8.9,8.18-3.67,1.75-6.58-.74-11.44ZM517.54,297.07l-7.21-1.34c-.08,2.94.53,14.03,4.28,14.45,1.63.18.72-.63.99-1.6.98-3.49,1.27-7.89,1.93-11.51ZM580.02,300.33l-10.6,1.04c-.59,2.34-3.33,9.77,1.44,8.56,1.87-.47,1.85-3.75,4.55-3.02.54.53-2.97,9.27-.33,9.84,3.1.66,5.49-13.87,4.93-16.42ZM467.21,312.54c-2.63-3.62-4.98-7.34-8.49-10.24,1.56,20.53,8.04,40.73,11.97,60.99,3.4,17.5,6.96,36.97,9.38,53.84,1.56,10.89,1.18,29.69,4.12,39.15,2.22,7.14,20.46,4.91,21.29,1.83.3-1.13-.3-8.34-.41-10.21-2.36-39.07-14.35-103.03-37.85-135.36ZM4.08,310.19v16.76l9.19,15.78-6.63-27.41-2.56-5.14ZM548.89,369.15c2.7-12.82,7.31-42.23,7.39-54.77,0-.77-.1-2.87-1.24-2.87-3.88,7.68-7.9,14.82-11.02,22.84-9.09,23.39-15.96,45.34-17.29,70.79-.98,18.82-.24,38.03-.63,56.88,1,.1,1.13-1.67,1.24-2.36,2.83-17.9,3.51-35.49,8.56-53.2,3.42-11.99,10.45-25.3,12.98-37.31ZM525.88,371.13c.81-15.14.78-30.39,2.21-45.47l-.68-9.89c-6.62,7.71-9.73,18.18-13.06,27.67-4.67,13.32-12.51,39.93-12.98,53.95-.22,6.54,3.42,20.04,4.33,27.51,1.29,10.6,1.87,21.41,2.78,32.05,1.02,3.48,10.47,4.43,13.67,4.42.11-29.7,1-59.45,2.58-89.11.06-1.06,1.14-1.01,1.14-1.14ZM214.25,331.42c-.53-.83-2.8-4.2-3.35-4.85-1.07-1.25-8.74-7.82-9.9-7.9-11.26,2.7-22.87,5.94-31.89,13.54l11.49,6.9c27.37,21.34,13.91,75.96,20.74,106.67.06.27,2.14,2.64,1.91,4.78,10.78.87,21.65,1.56,32.4.1,13.02-1.76,11.55-3.55,20.6-10.3,26.15-19.54,37.24-27.09,47.16-59.99.32-1.05,1.83-11.71,4.08-10.36,1.11.76,1.04,1.73,1.02,2.91-.07,5.4-7.24,23.99-9.98,29.52-4.07,8.2-10.66,16.49-16.99,23.07,4.73,9.35,6.6,20.18,10.85,29.92,8.53,19.53,27.86,47.28,46.26,58.27,1.02.61,6.4,3.65,6.97,3.54,1.45-1.6.14-4,.53-6.72,2.27-15.92,22.07-29.94,37.93-25.16-7-8.22-14.98-15.87-21.56-24.42-21.51-27.92-24.41-49.52-34.23-81.63-2.16-7.06-3.9-14.22-6.75-21.05l-23.1.04c-22.5,27.86-56.55,18.82-74.64-8.44-3.69-5.56-6.09-13.07-9.54-18.44ZM293.36,357.52c-19.99-3.66-37.24-15.06-49.73-30.81-7.98,4.75-17.66,7.24-26.53,3.2,7.35,15.68,17.1,32.5,34.01,39.28,16.39,6.57,31.98,2.68,42.25-11.67ZM456.83,351.83c-1.76-2.73-6.46-8.94-8.63-11.4-2.37-2.69-5.59-4.46-7.9-7.22-.07,2.08.19,4.65.52,6.71,5.04,31.79,19.6,58.32,27.36,87.8,2.41,9.15,3.9,18.6,5.46,27.93.57,2.3,7.39-.28,7.65-1.22-.95-4.96-.5-10.11-1.18-15.1-4.03-29.66-6.44-61.36-23.29-87.49ZM530.05,462.03h12.82c1.31,0,7.27-1.25,7.64-2.88,6.37-36.28,15.38-72.7,27.51-107.24,2.17-6.17,4.92-11.99,7.25-18.05-1.08-1.28-15.66,13.81-17.07,15.47-16,18.87-26.76,45.64-32.17,69.18-3.22,13.98-4.37,29.24-5.98,43.52ZM4.08,334.51v56.2c0,2.34,2.4,6.54,2.68,7.86,4.78,22.03,8.47,44.37,9.8,66.93,6.91,5.09,9.46,13.6,13.17,20.84.88.17.68-.25.67-.99-.72-35.4-4.39-88.06-13.76-121.79-2.81-10.12-6.29-20.7-12.56-29.05ZM180.05,341.97c-2.34-2-12.69-7.75-15.54-6.51-.63.27-8.32,8.94-9.21,10.08-34.57,44.33-19.29,113.89-.35,161.89,4.73,11.99,20.42,43.92,30.15,51.66.71.56,1.46.98,2.41.88,5.62-16.8,25.32-28.92,43.06-26.27,1.18.08,1.01.02,1-1.01-.02-2.11-5.96-9.85-7.16-12.07-16.14-29.68-25.37-58.57-27.68-92.46-1.67-24.6,3.66-68.84-16.68-86.19ZM340.27,375.49c.37-.5,1.5-.75,2.04-1.55,5.31-7.88,7.91-18.85,8.9-28.25-7.79,6.03-17.12,9.01-26.25,12.24l7.85,25.88c1.11,1.14,6.79-7.42,7.46-8.31ZM456.09,457.43c4.27.52,9.42-.38,13.81,0,1.89,0,.35-6.69.13-8.02-3.88-23.34-17.26-65.05-33.31-82.38-5.62-6.07-13.15-12.02-20.72-15.44,9.15,21.12,17.75,42.01,23.56,64.52,3.15,12.21,5.13,24.86,8.27,37.09.9,2.57,5.85,3.92,8.27,4.22ZM590.54,388.74c1.01-5.38-.75-13.66,0-19.39-9.88,8.32-19.54,19.25-23.98,31.56-2.63,7.29-5.14,17.06-6.84,24.18-1.51,6.33-6.53,27.37-6.05,32.66.06.7.03,1.55.68,2.01,15.77,2.81,13.21-10.34,16.55-20.87,2-6.32,4.73-14.02,7.14-20.61,2.85-7.8,11.26-22.92,12.51-29.56ZM133.38,390.18l2.2-12.63c-3.19,5.49-12.75,17.11-13.17,23.04-.45,6.36,4.27,15.76,8.24,20.68,1.04-9.74.07-20.82,1.66-30.42.07-.43,1.04-.51,1.06-.66ZM432.36,403.93c-1.69-5.17-4.99-19.94-7.61-23.63-.43-.61-.59-1.11-1.53-1.1l-79.58-.02c-2.23-.21-9.33,7.66-9.52,8.94-.29,1.93,4.96,20.82,6,24.07,4.06,12.7,10.34,26.72,18.07,37.94,1.61,2.34,5.17,8.21,7.88,8.58s12.46-.9,15.63-1.37c4.65-.69,9.36-1.75,13.82-3.28.96-.65,1.29-.7.76-1.91-2.17-4.98-18.79-8.8-7.17-16.98,7.07-4.98,21.31-5.59,29.83-6.67-2.77-10.47-10.96-20.25-18.72-27.62-1.76-1.67-6.69-3.94-6.94-6.26l.65-1.98c15.19-.88,31.24,8.26,41.13,19.42.45-2.65-2.1-6.31-2.69-8.14ZM73.77,393.01v-1.96h-.64v1.64s.64.33.64.33ZM432.33,414.46c-8.85-11.18-20.48-16.57-34.43-19.48l13.14,12.82c10.01,11.53,13.36,26.72,19.6,39.56,2.27,4.68,8.6,5.23,13.29,4.46-3.3-10.3-3.25-26.02-9.04-35-.87-1.35-1.98-1.64-2.56-2.37ZM590.54,429.16v-32.86l-12.5,31.87,12.5,1ZM120.71,409.85c-.65-1.59-.6-6.67-2.55-6.32-3.27,4.65-12.13,8.72-12.23,14.78-.11,7.33,7.52,19.73,12.53,25.01,1.33,1.4,16.29,13.24,17.11,12.14-.23-5.54-1.07-11.15-2.01-16.6-.09-.53-1.1-.27-1.32-1.44-.53-2.8.19-8.18-.74-11.08-.38-1.17-8.82-11.67-10.78-16.49ZM4.08,405.5v52.26l9.87,4.59c-2.64-14.5-3.26-29.37-6.12-43.83-.64-3.23-1.64-5.29-2.36-7.63-.5-1.63-.21-4.36-1.39-5.38ZM104.01,419.31c-2.01.9-5.16,4.13-6.58,5.77-39.49,45.86-20.27,96.87,20.16,132.78,8.89,7.89,18.72,14.46,28.49,21.16-5.23.08-11.43-4-15.71-6.96-12.37-8.52-24.08-21.78-34.62-32.52-15.72,8.34-23.41,29.03-17.41,45.75,9.19,25.63,62.96,40.04,87.33,43.49,20.3,2.88,42.46,3.51,62.59-.47-3.64-9.59-2.11-19.51,1.31-28.91-.57-.48-11.09-1.14-12.66-1.48-12.13-2.64-18.11-22.3-21.63-32.6-3.51-.07-7.01-.93-9.98-2.84-16.13-10.39-35.97-59.22-41.95-77.71-2.76-8.53-4.61-17.34-6.82-26.02-15.73-6.52-31.8-21.48-32.54-39.44ZM279.55,427.85c-10.02,7.73-24.72,15.01-32.09,25.39-1.29,1.82-3.88,5.59-3.3,7.64.21.74,7.15,7.12,7.8,7.4,3.96,1.66,33.76-5.77,40.73-3.64l-13.15-36.8ZM4.08,703.25v134.09h586.45v-404.9l-13.73-.58-7.68,26.83c-1.6,2.61-5.75,3.57-8.59,3.9-13.01,1.53-26.59,3.81-39.84,1.88-2.77-.41-12.25-3.67-13.23-3.61-4.61.31-7.88,3.87-15.91,3.16-7.46-.66-9.16-5.47-10.56-5.78-1.69-.37-8.96,1.7-11.74,1.85-5.33.29-14.46.1-19.44-1.65-2.67-.94-3.79-3.12-5.05-3.49-4.34-1.27-9.97,1.18-14.69-3.06-4.27-3.85-4.93-15.15-7.85-19.58-1.12-1.7-12.68.03-15.16.45-3.46.59-18.59,3.46-18.23,7.82,1.64,4.92,12.23,7.43,11.06,13.23s-24.95,6.13-29.97,6.89c-.96.15-1.67.06-2.27,1.03l21.68,25.64c4.78,1.2,23.46.48,21.03,9.03-.65,2.28-9.57,7.47-12.46,7.06l8.97,6.51c4.95-2.72,9.02-6.71,13.69-9.82,1.3-.87,6.62-3.04,6.81-3.37.34-.61.13-4.25.73-6.18,3.46-11.11,21.36-12.72,30.12-7.02,2.11,1.37,5.25,5.76,7.11,6.09,2.34.41,4.3-1.2,6.53-1.32,20.63-1.19,40.48,15.79,48.44,33.74,1.86,4.2,3.11,10.89,4.74,14.02,1.48,2.83,13.83,5.15,18.47,16.02,8.65,20.26-7.56,72.52-17.47,92.12-38.98,77.08-175.25,100.45-246.92,63.09-26.64-13.89-38.88-37.32-46.91-65.18-30.53,13.8-64.71,12.46-96.77,18.6-8.57,1.64-27.89,6.03-33.03,12.99-3.82,5.17-3.35,7.59-9.89,11.81-22.37,14.44-63.12,8.79-88.45,17.73ZM244.71,451.51c-13.26,2.78-26.97,3.61-40.38,1.39-.72.32-.92.72-1,1.49s2.76,13.82,3.2,14.42c2.28,3.07,21.69-1.13,25.49-2.71,6.54-2.74,10.49-7.98,12.69-14.58ZM4.08,461.37v26.62c0,1.67,2.38,3.63,2.57,4.15,1.52,4.11,3.09,8.25,4.07,12.54,6.98-1.12,13.27.06,19.98,2.05,1.97-.42-5.04-22.18-5.92-24.32-3.7-9-10.93-18.55-20.7-21.05ZM217.43,472.54c-3.02.32-6.46-.23-9.53,0,3.51,13.93,9.85,28.26,16.25,41.24,2.33,4.72,7.22,10.62,9.31,15.7.91,2.21,1.35,6.95,1.7,7.5s3.38,1.34,4.5,2.07c5.93,3.86,17.8,10.91,16.09,19.12s-13.16,4.56-18.26,2.44c-1.04,1.46,3.64,21.67,4.92,21.68,6.06-7.65,14.94-12.61,23.33-17.42l34.1-13.67c-7.81-17.46-16.62-36.07-27.28-52.2-3.61-5.47-7.97-11.62-12.06-16.75-1.97-2.47-16.81-19.1-18.64-18.86-6.74,5.64-15.77,8.23-24.43,9.14ZM305.45,484.79c-3.86-5.6-6.64-11.83-10.56-17.39l-39.66,3.83c.21,3.1,3.82,4.66,5.26,6.43,12.34,15.2,26.33,37.49,35.02,54.87,2.86,5.72,5.2,12.08,7.08,18.2,22.44-5.6,45.33-8.83,68.35-11.16-3.5-1.57-14.67-17.54-15.74-18.07-.6-.29-2.78.6-4.23.29-18.05-3.75-35.41-22.37-45.51-37.02ZM42.22,502.12l7.1-5.06,2.09-23.2c-4.27,8.92-7.75,18.42-9.19,28.26ZM483.37,511.98v12.16c0,.55,1.65,4.99,2.09,5.79,5.06,9.15,15.06,2.71,16.31,3.74,0,2.55-3.17,2.72-4.6,4.27-2.13,2.31-6.72,12.78-7.2,15.27-.68,3.6,1.64,12.13,3.61,15.27,1.71,2.74,8.03,5.58,9.45,9.75,3.86,11.3-8.93,22.65-19.96,22.5-3.87-.05-7.86-3.17-9.88-3.22-2.28-.05-6.37,2.87-8.86,3.27,1.29,4.92,2.21,10.21-.02,15.06,5.44-2.02,11.11-3.92,16.42-6.25,24.62-10.8,44.43-36.28,42.73-64.39-1.43-23.61-23.02-53.66-48.34-54.25-3.59-.08-8.09,2.26-10.32,1.87-3.58-.62-8.77-9.63-18.56-9.8-13.3-.24-24.82,16.95-7.16,19.03,4.45.52,18.2-.09,22.97-.55,1.67-.16,2.56-1.53,4.24-1.34.67.62-3.17,4.79-3.62,5.91-3.78,9.28,3.2,16.98,12.66,13.31,2.7-1.05,4.86-6.62,8.06-7.39ZM391.33,502.79c3.94-1.41,13.7-3.03,15.46-7.25,2.07-4.96-13.56-4.28-16.28-4.76-11.8-2.09-15.03-6.27-27.49,1.12-3.81,2.26-13.49,12.58-13.1,17.06.12,1.33,10.19,15.23,11.82,17.15,1.3,1.52,11.97,12.46,12.78,12.86,2.04,1.01,11.91.36,12.91-1.13,2.52-3.76-1.3-3.76-2.71-5.11-2.35-2.26-4.6-4.62-6.53-7.26,0-4.54,10.06,7.75,11.4,6.21.44-.13,4.88-7.2,4.93-7.65.19-1.73-4.67-3.59-3.85-6.11l6.07,2.51,8.38-8.1-13.79-9.52ZM4.08,496.86v9.86l3.85-1.62-3.85-8.24ZM4.08,510.34v189.63c18.04-5.27,37.02-5.08,55.46-7.98,9.25-1.46,24.92-4.26,32.29-9.79,5.52-4.14,7.67-11.6,13.29-14.98,25.93-15.59,85.23-12.56,119.06-24.92,1.89-.69,7.2-2.11,7.41-3.79l-2.01-7.57c-17.99,4.55-37.76,3.89-56.12,1.89-26.16-2.86-55.04-10.59-77.43-24.47-1.71-1.06-5.95-5.12-7.11-5.4-7.89-1.88-18.03,2.01-29-2.55-28.31-11.76-4.01-64.72,13.16-78.28,1.97-1.56,5.47-3.46,7.92-4.26-1.31-2.14-2.7-8.56-3.9-10.05-1.95-2.43-5.78-.19-7.47-.57-1.58-.34-2.52-3.3-3.7-4.2-11.35-8.67-22.7.37-28.74,10.29-10.33-5.85-21.87-8.31-33.1-3.01ZM459.7,504.1c-8.49-.51-20.46,2.87-28.22-1.04-1.93-.97-1.66-3.23-4.65-2.63-6.61,1.32-25.26,18.62-29.49,24.48-29.73,41.28,14.05,81.99,56.67,75.72,2.91-.43,16.12-3.45,16.71-6.22.11-.54-1.6-5.7.47-4.85,1.75.71,2.26,5.06,5.63,6.86,13.71,7.32,30.85-11.34,20.48-21.33-4.59-4.42-9.41-2.17-14.6-.66-.04-3.71,4-5.05,7.23-4.6-3.2-8.41-3.92-17.69-.18-26.12.33-.74,4.71-4.94,3.47-6.09-9.47.38-12.75-9.12-12.5-17.1-3.6-.06-5.79,2.61-9.53,2.68-11.15.22-14.83-9.71-11.51-19.1ZM351.87,519.21c.53-.59-.91-4.53-2.62-3.94-.35.36,1.01,4.62,2.62,3.94ZM86.52,526.85c-5.01-7.01-3.2-9.01-12.03-1.99-13.14,10.43-18.45,26.9-23.07,42.33l20.95,4.52c1.53-13.51,8.59-27.6,21.12-34.11.57-.99-5.96-9.34-6.97-10.76ZM252.44,559.15c1.95-3.02-.14-7.2-2.43-9.42-2.77-2.69-19.34-12.82-22.77-13.39-10.76-1.78-25.2,6.55-31.88,14.76,1.05,10.05,8.95,36.28,17.19,41.99,1.35.94,4.76,2.14,6.51,2.36,1.47-1.42-11.62-14.36-6.59-17.08,3.67,4.54,5.9,11.81,10.27,15.72,2.41,2.16,7.81,5.62,9.22.68-4.8-5.35-9.86-11.95-10.2-19.46-.08-1.72-.4-3.6,1.9-3.51,1.09,5.26,7.93,26.1,15.79,22.02,3.3-1.71-1.19-13.55-2.05-16.88-.11-.41-1.15-.72-1.6-2.45-.7-2.7-3.1-15.11-1.7-16.77,6.09-1.63,12.06,4.64,18.33,1.43ZM526.76,557.99c4.45-3.89,9.64-3.63,15.1-2.29-2.29-7.19-8.57-12.17-15.1-15.46v17.75ZM385.41,542.22l-15.12.66c1.4,3.97,1.49,7.74.66,11.82l12.53-1.6,1.93-10.88ZM367.57,555.27c1.82-4.01,1.46-8.18-.54-12.09l-19.09,1.67c.92,4.35,2.02,8.01.66,12.48l18.97-2.06ZM326.89,561.28l18.44-2.93c2.17-4.03,1.25-8.68-.67-12.58l-19.74,3.03c2.61,4.06,2,7.84,1.97,12.48ZM293.37,571.8l30.9-9.52c1.86-1.77.19-9.7-1.29-11.88-1.49-1.64-4.94-.15-7.02.28-3.38.7-28.4,7.33-29.17,8.64,3.05,3.57,6.03,7.62,6.58,12.48ZM194.09,561.94l-.99-6.57c-1.23,2.29-3.72,3.74-2.97,6.57h3.95ZM384.1,556.02c-1.02-1.05-25.63,2.83-29.17,3.37-27.75,4.29-93.12,19.24-104.81,47.71-.97,2.36-.04,5.09-2.13,5.78v1.29c2.09.71,1.14,3.37,2.16,5.76.53,1.26,4.14,6.07,5.4,5.76,9.78-25.13,37.13-38.4,61.03-47.45,10.7-4.05,21.45-5.98,32.16-9.26,11.51-3.52,22.66-9.34,35.27-10.42.2-.28.18-2.45.09-2.55ZM543.19,580.34c-.07-7.02,4.37-22.52-6.27-23.03-11.83-.57-7.39,11.32-10.16,18.42,6.05-1.47,12,.32,16.43,4.61ZM268.39,583.63l22.04-10.52c1.48-2.52-4.55-11.07-6.94-12.86l-24.31,10.9.41,1.37c4.11,2.05,8.72,6.35,8.8,11.11ZM386.33,566.29c-.6-1.25-.97-2.36-1.24-3.71-.46-.81-1.14-.59-1.88-.61-7.04-.13-21.27,5.15-28.04,7.84,10.6,1.11,18.8,6.45,27.6,11.84-.46-5.84,6.43-9.1,4.72-14.21-.3-.89-1.09-1-1.16-1.16ZM506.38,595.45c10.95-6.03,18.72-16.66,18.4-29.57-2.92,5.73-5.05,11.89-8.68,17.28-2.83,4.2-7.26,7.67-9.72,12.29ZM72.29,575.24c-2.03-1.8-17.91-3.75-21.53-5.42l-.69,7.45,23.69,5.69c-.92-1.79-.23-6.61-1.48-7.72ZM386.34,591.9c-15.15-20.69-36.34-23.21-59.44-14.18,25.71,11.56,48.21,32.23,56.3,59.86l21.32-4.44c1.31-4.46-14.65-36.43-18.18-41.25ZM410.39,593.5c-8.8-4.14-16.28-11.87-21.02-20.38l-4.61,10.5c8.08,1.64,16.23,7.74,23.65,10.22.63.21,2.13.87,1.99-.34ZM255.07,574.53c-1.38.34-11.66,9.45-11.98,10.98s.85,3.5.86,5.05-1.5,3.2-1.13,4.47c.28.95,5.68,4.24,6.95,4.94.76.04,7.29-7.53,8.73-8.81,1.8-1.6,7.64-3.74,7.93-6.57.43-4.13-7.45-11.03-11.36-10.06ZM536.21,595.04c3.11-4.04,9.07-9.12,3.01-14.33-10.11-8.7-18.3,4.39-22.98,11.79l6.61,3.92,5.56,7.57c3.12-2.58,5.37-5.78,7.8-8.95ZM363.29,608.37c-10.6-12.89-24.33-23-39.9-29.17-14.33,5.43-29.47,10.8-42.18,19.56-10.99,7.57-17.95,16.26-23.25,28.49,18.69,11.37,42.18,13.49,63.67,14.87-5.67-12.89-14.37-24.1-23-35.17.16-4.23,12.34,11.07,13.02,11.96,5.5,7.24,9.5,15.07,13.71,23.1l54.79-3.84c-3.42-11.15-9.47-20.82-16.85-29.81ZM59.97,585.93c.71,2.9-.52,8.27,0,11.5l7.23,1.97-.66-9.47c4.17-2.21,2.62,8.75,3.39,10.03l5.82.75c-4.92-12.02,1.86-13.73,2.71-.08l6.48-.91-9.64-13.36-25.85-5.37c.39,5.89,2.68,9.8,6.91,13.79l1.95-9.21c.55-1.02,1.53-.18,1.66.34ZM445.23,621.76c-4.31-2.43-7.59-6.86-11.5-9.87-13.68-10.53-30.04-17.29-45.68-24.32,7.08,14.78,15.88,29.02,19.09,45.32l38.1-11.13ZM510.33,617.15l14.49-10.86c.03-4.78-6.4-11.25-10.98-11.47-4.19-.21-9.12,8.11-14.04,7.88,5.89,3.32,10.41,6.95,10.53,14.45ZM245.36,616.48c-.72-4.97.94-9.19,2.34-13.77-1.98-3.27-10.76-7.89-14.07-5.84-2.98,1.84-5.19,22.64-4.04,26.85,4.79-3.86,9.06-7.41,15.77-7.23ZM461.6,602.09c-14.16,3.11-28.48,2.3-41.99-3.02,10.78,6.24,20.24,13.92,29.23,22.46,11.69-2.12,17.34-6.87,12.76-19.43ZM537.01,603.75c.2-.69,1.56-4.82.61-5-17.97,19.43-43.42,31.94-68.07,41.06-58.75,21.73-166.77,40.56-222.82,7.21l-12.54-9.15c2.1,6.25,4.72,15.9,9.52,20.72,5.24,5.26,14.75,7.91,21.37,10.82-.9,1.4-1.55.84-2.75.81-6.53-.16-13.9-5.45-19.59-8.37,6.34,17.99,19.4,33.14,36.38,42.17,58.68,31.2,164.52,18.61,215.07-24.45,16.71-14.24,28.51-33.3,35.85-53.87-5.48,4.41-13.55,12.39-20.76,13.1-.54.05-2.23.37-1.58-.93.34-.69,11.02-6.4,13.09-7.96,9.67-7.28,13.02-15.18,16.22-26.16ZM507.55,618.98c2.22-4.42-5.35-12.76-9.55-13.55-2.1-.4-17.84,7.11-17.86,8.1,4.06,4.45,6.3,9.96,5.86,16.1,2.69-1.21,21.01-9.58,21.55-10.65ZM455.76,640.81c.98,1.09,26.83-8.91,27.66-10.13,2.41-3.58-2.73-15.08-7.6-15.91l-26.64,9.62c4.61,4.53,7.46,9.64,6.58,16.42ZM248.24,623.49c-1.23-1.36-1.73-3.26-2.83-4.72-4.61.83-14.21,4.28-13.07,10.38.98,5.24,16.55,15.79,21.57,18.23-.78-6.28,2.64-11.24,7.24-15.11-4.71-.82-9.81-5.33-12.91-8.79ZM452.31,642.62c3.43-3.03-1.87-14.62-5.72-16.57l-20.41,4.9c3.25,5.93,5.15,11.49,3.29,18.4,3.58-2.36,20.77-4.9,22.84-6.73ZM395.28,656.59c5.33-2.39,27.39-3.96,30.61-7.19s.74-12.69-1.67-16.18l-32.23,5.63c2.13,5.79,3.98,11.42,3.29,17.74ZM284.81,657.9l-.59-9.47,2.58-7.3-22.71-6.82c-5,1.27-10.8,10.95-5.92,15.06.93.78,8.92,3.73,10.74,4.38s15.31,4.7,15.91,4.13ZM389.24,640.27l-34.75,4.13c-5.34,5.3-.82,10.57.35,16.8l36.46-4.31c3.33-2.15-.61-13.59-2.07-16.62ZM315.06,644.76c-4.31.76-21.73-3.29-24.29-2.32-4.12,1.55-4.98,14.91-1.55,16.64,1.71.86,24.24,3.61,25.18,2.76-1.49-5.86-2.3-11.49.66-17.08ZM349.91,644.76h-30.57c-.21,0-2.5,2.85-2.65,3.24-1.42,3.6-1.65,13.99,3.24,14.56,3.23.38,30.17.37,31.31-.71-1.53-5.53-2.97-11.35-1.32-17.09Z"/>
    <rect x=".14" y="841.29" width="595" height=".66" fill="#fff"/>
    <path d="M4.08,703.25c25.33-8.94,66.07-3.28,88.45-17.73,6.54-4.22,6.07-6.64,9.89-11.81,5.14-6.96,24.46-11.35,33.03-12.99,32.06-6.14,66.24-4.8,96.77-18.6,8.03,27.86,20.27,51.29,46.91,65.18,71.67,37.36,207.94,13.99,246.92-63.09,9.91-19.6,26.12-71.87,17.47-92.12-4.64-10.87-16.99-13.18-18.47-16.02-1.63-3.13-2.88-9.81-4.74-14.02-7.96-17.95-27.81-34.93-48.44-33.74-2.23.13-4.19,1.74-6.53,1.32-1.86-.33-5-4.72-7.11-6.09-8.76-5.69-26.66-4.09-30.12,7.02-.6,1.93-.38,5.57-.73,6.18-.19.33-5.51,2.51-6.81,3.37-4.67,3.12-8.74,7.1-13.69,9.82l-8.97-6.51c2.89.41,11.81-4.78,12.46-7.06,2.44-8.56-16.25-7.84-21.03-9.03l-21.68-25.64c.6-.97,1.31-.89,2.27-1.03,5.02-.76,28.76-.91,29.97-6.89s-9.41-8.31-11.06-13.23c-.37-4.37,14.76-7.24,18.23-7.82,2.48-.42,14.04-2.15,15.16-.45,2.92,4.43,3.58,15.74,7.85,19.58,4.72,4.24,10.35,1.79,14.69,3.06,1.26.37,2.38,2.56,5.05,3.49,4.98,1.75,14.11,1.94,19.44,1.65,2.78-.15,10.05-2.22,11.74-1.85,1.4.31,3.11,5.12,10.56,5.78,8.03.71,11.3-2.85,15.91-3.16.98-.06,10.45,3.21,13.23,3.61,13.24,1.93,26.83-.35,39.84-1.88,2.84-.33,6.99-1.29,8.59-3.9l7.68-26.83,13.73.58v404.9H4.08v-134.09ZM449.84,464h-11.51c-3.71,0-16.79-4.36-18.42-7.88-.79-1.71.44-3.92-1.3-5.25-1.25.63-1.93.87-2.17,2.43-1.72,10.93,25.66,16.37,32.55,12.17.69-.42,1.14.06.84-1.47ZM514.93,476.49c.49,1.35,2.21,1.76,3.42,2.16,12.61,4.12,55.52,1.58,65.53-7.83,5.43-5.1,4.19-14.41-3.86-15.36-1.15,1.16,3.81,6.65,3.92,7.05.69,2.38-3.37,6.9-5.43,8.2-3.06,1.93-7.98,2.79-11.52,3.6-17.27,3.95-34.48,3.05-52.06,2.18ZM572.12,493.58c-11.3,8.03-23.12,9.59-36.48,5.89-5.15.52,4.43,3.89,5.15,4.07,8.37,2.11,21.5,1.07,28.38-4.71.88-.74,4.02-4.02,2.95-5.26ZM571.03,536.11c-.34-2.24.55-9.95-1.85-10.18-3.71-.36-7.24,16.07-6.91,19.24l-1.3.32c-1.81-2.65-11.15-19.63-15.13-16.41,2.08,3.24,4.89,5.75,7.1,9,3.38,4.98,5.46,10.61,8.67,15.65l-9.85,4.59c2.23,2.48,5.26-.76,7.85-1.34,7.25-1.62,14.06-1.3,19.77,3.95,1.46,1.34,6.34,10.03,7.87,7.57-1.19-4.76-3.75-7.05-7.09-10.27l5.71-18.28c-.39-.66-.61-.92-1.44-.91-3.2.02-9.14,8.21-11.64,10.41-.24-3.79-.12-8.51-.61-12.2-.15-1.11-1.13-.99-1.15-1.13ZM559.92,626.72c-1.2-1.62-4.66-6.55-6.86-3.97,4.61,5.28,9.36,11.62,7.85,18.9-.15.74-5.87,9.18-6.87,10.35-3.6,4.22-8.71,6.65-11.51,11.16,14.04-4.85,28.1-22,17.38-36.43ZM214.21,680.67c.68-2.05,1.22-4.72,2.33-6.56.55-.91,5.97-5.3,4.5-6.02-22.89,11.11-4.22,35.59,15.12,33.85,1.64-1.31-11.3-5.28-12.27-5.8-6.1-3.3-7.19-7.72-10.72-13.07v-1.69c.12-.43.97-.51,1.03-.71ZM525.95,671.87c-.29-.38-2.22-1.1-2.47-.82-.66,27.93-32.05,40.81-54.73,48.15-3.99,1.29-12.13,2.42-15.13,3.93-.89.45-1.36.68-1.14,1.81,2.55,2.03,25.67-5.8,29.76-7.38,17.64-6.84,39.17-18.76,43.83-38.46.26-1.11.53-6.38-.11-7.23ZM180.29,675.65c-5.84-1.66-11.73,2.64-16.78,2.67-5.97.04-13.4-5.18-18.72.94-.05,1.57,6.19-.36,7.5-.34,3.93.05,7.55,2.22,11.86,1.98,5.31-.29,10.61-4.11,16.13-3.29v-1.97ZM194.08,703.25c-4.63,1.2.4,8.97,2.3,11.18,11.99,13.89,45.68,18.31,62.79,14.45-.25-1.21-1.3-1.2-2.28-1.33-6.37-.82-14.31.58-20.98-.06-13.44-1.29-39.6-8.58-41.84-24.24ZM555.03,704.57l-16.22,13.03c-5.34,3.34-12.45,4.13-17.84,6.52-.94.42-1.79-.4-1.44,1.48,13.45-.65,30.31-7.9,35.5-21.03ZM129.45,717.5c.71-.63,2.05-2.41.55-3.05-7.08,3.53-16.37,6.29-24.35,6.54-10.7.33-21.95-3.56-32.79-1.89-1.07.17-15.61,3.86-12.89,6.5,17.06-7.98,34.49-.7,52.25-2.64,4.34-.48,14.02-2.62,17.23-5.46ZM372.26,742.04c-27,1.05-56,2.74-80.2-11.18-2.08,2.39,11.12,8.08,12.7,8.66,15.68,5.75,38.73,6.96,55.36,5.83,3.69-.25,9.68-.38,12.14-3.3ZM566.21,761.76c-11.98,9.66-22.43,3.23-34.59,2.04s-15.87,5.63-25.55,6.52c-11.23,1.03-19.87-5.57-31.57-4.61-9.32.76-18.23,7.11-27.6,7.9-15.76,1.33-25.49-9.65-41.28-7.09-1.79.29-7.27,2.2-7.72,4.43,3.27.69,6.05-1.54,8.93-1.91,13.74-1.73,24.94,8.89,39.41,7.85,10.25-.74,20.82-8.17,30.87-8.6s19.03,6.84,30.61,4.99c6.05-.96,11-5.69,16.74-6.26,13.74-1.38,24.15,7.59,38.01-.15,2.03-1.13,3.78-2.48,3.72-5.12ZM246.68,768.33c-14.49,2.85-27.32-6-41.77-4.63-10.89,1.03-16.07,9.97-28.73,8.39-5.79-.72-13.71-5.04-19.24-5.13-9.56-.17-16.76,7.6-26.97,7.3-11.45-.34-20.37-8.72-31.17-10.25-15.26-2.16-25.6,11.34-43.01,9.48-8.27-.88-18.5-7.25-25.41,1.72,4.42-.36,7.44-1.87,12.19-1.65,4.89.23,9.9,2.74,14.51,3.23,17.28,1.85,27.2-12.95,44.99-8.83,9.45,2.19,18.29,9.49,28.55,9.6,9.56.1,16.62-7.17,25.05-7.29,8.95-.13,16.11,5.6,26.93,4.64,9.03-.81,15.45-8.23,25.01-8.58,12.61-.46,27.97,10.65,39.07,2ZM374.23,791.99c-9.1,3.05-17.53,4.88-27.27,3.93-6.88-.67-12.96-4.22-19.38-5.6-8.93-1.92-22.8-2.65-29.61,4.29,7.95-1.63,15.03-3.41,23.32-2.61,8.18.79,16.13,5.49,24.52,6.37s23.21.98,28.41-6.39ZM552.4,802.51c-13.26,4.83-29.26-5.96-40.76,2.62,4.8-.36,8.46-1.66,13.5-1.33,4.39.29,8.84,2.22,13.22,2.56,4.1.32,12.16.71,14.04-3.85Z" fill="#fff"/>
    <path d="M590.54,3.89v62.44c-7.22-1.74-13.24-.52-19.72,2.63l1.32-1.64-1.32-.98,1.31-.65c-1.85-.03-1.49-3.95-2.51-6.37-11.09-26.19-52.01-21.64-53.37,7.01-13.43-14.67-41.02-9.64-46.09,10.44-11.49-2.92-27.41,2.06-30.38,14.66-.65,2.75-.77,9.08,3.17,9.08h147.6v153.81l-5.91,1.32c-1.55-4.06-2.37-8.33-3.64-12.48-.5-1.64-2.71-4.48-2.79-5.71-.08-1.29,2.13-5.06,2.42-7.18,1.47-10.78-3.02-42.51-8.1-52.27-10.46-20.08-44.52-20.3-52.64,1.4-4.5,12.03-5.71,34-5.61,47.03.03,4.42,1.56,9.65,1.36,13.74-.23,4.62-5.71,10.96-4.64,16.77h-12.48c.18-6.34-4.87-13.03-5.75-18.9-3.29-21.92,2.97-68.73-28.86-71.72-11.27-1.06-22.97,3.61-27.05,14.85-3.63,9.99-5.97,28.47-6.71,39.3-.61,8.85-1.34,17.21.64,25.95-8.51-3.4-16.66-3.37-25.68-3.57l-11.28-78.43c-2.49-3.1-11.21,4.11-12.36,3.51-4.24-8.67-8.59-18.71-14.18-26.61-1.87-2.64-3.23-5.41-6.55-6.65-12.04,4.8-20.09,16.63-28.35,26.23-33.07-10.51-75.54,1.05-97.87,27.67-7.18,8.55-10.75,18.13-16.59,26.79-3.14,4.65-8.17,8.74-10.99,13.88l-39.79-18.98,19.93-42.18-.26-3.11-3.95.89c-10.79,11.38-22.55,21.84-31.91,34.5-12.09-6.78-24.37-14.29-38.39-16.39,1.63-3.53,6.04-18.97,8.06-20.85,1.17-1.09,4.91-1.29,6.66-2.22,5.57-2.94,10.38-7.5,13.34-13.1l92.61.05c6.66-.71,8.02-3.01,7.52-9.55-1.12-14.53-20.17-22.77-32.2-14.8-1.02-27.26-37.77-29.94-47.34-6.23-4.6-1.48,1.05-8.4,2.27-11.54,2.41-6.19,7.03-16.68,5.97-23.01-.51-3.02-3.19-3.61-2.84-6.76.2-1.82,8.3-10.31,2.86-13.63-5.98-3.64-9.3,6.45-11.56,7.59-1.23.62-5.58.7-8.21,1.65-12.93,4.68-21.68,22.98-27.94,34.33-7.44,13.48-21.62,34.45-13.31,50.29.84,1.59,3.13,1.66,2.79,3.72l-9.34,21.65-22.87,1.74,4.79-65.77c-1.06-.63-1.46-.61-2.51-.01-4.77,2.71-12.07,18.65-14.25,23.93-6.34,15.34-9.78,31.88-13.38,48.41l-8.84,2.66c-.41-7.55-.88-15.8-2.08-23.23-1.03-6.43-4.12-21.14-8.42-25.76-1.54-1.66-6.06-3.86-6.27-4.25-1.61-2.89.23-13.41-5.96-13.79-5.83-.36-4.37,11.03-3.66,14.73-.25.85-2.57,1.27-3.58,2.29-12.4,12.54-4.09,44.3-2.88,60.17l-7.92,4.95V3.89h586.45ZM315.06,89.34c-11.92-1.8-20.24,11.64-22.36,21.69-6.17-6.33-12.71-10.67-22.01-9.84-2.28.2-6.89.88-6.25,3.93,11-3.91,21.94,1.36,27.24,11.24l3.65-.57c1.04-7.06,3.94-16.48,9.95-20.77,1.53-1.1,11.25-3.96,9.78-5.66Z" fill="#fff"/>
    <path d="M104.01,419.31c.74,17.96,16.81,32.92,32.54,39.44,2.21,8.68,4.06,17.49,6.82,26.02,5.99,18.49,25.82,67.32,41.95,77.71,2.97,1.91,6.46,2.77,9.98,2.84,3.52,10.3,9.5,29.96,21.63,32.6,1.57.34,12.08,1,12.66,1.48-3.42,9.39-4.95,19.32-1.31,28.91-20.14,3.98-42.29,3.35-62.59.47-24.37-3.45-78.15-17.86-87.33-43.49-6-16.73,1.69-37.41,17.41-45.75,10.54,10.74,22.24,24,34.62,32.52,4.29,2.95,10.49,7.04,15.71,6.96-9.77-6.7-19.61-13.27-28.49-21.16-40.43-35.91-59.65-86.92-20.16-132.78,1.42-1.65,4.56-4.87,6.58-5.77Z" fill="#fff"/>
    <path d="M4.08,510.34c11.23-5.29,22.78-2.84,33.1,3.01,6.04-9.91,17.39-18.96,28.74-10.29,1.19.91,2.13,3.86,3.7,4.2,1.69.37,5.52-1.87,7.47.57,1.2,1.49,2.59,7.91,3.9,10.05-2.44.79-5.95,2.7-7.92,4.26-17.17,13.56-41.47,66.52-13.16,78.28,10.96,4.55,21.11.67,29,2.55,1.15.27,5.4,4.34,7.11,5.4,22.39,13.88,51.27,21.61,77.43,24.47,18.36,2.01,38.13,2.67,56.12-1.89l2.01,7.57c-.21,1.68-5.52,3.1-7.41,3.79-33.83,12.36-93.13,9.33-119.06,24.92-5.62,3.38-7.77,10.84-13.29,14.98-7.37,5.53-23.04,8.33-32.29,9.79-18.44,2.9-37.42,2.71-55.46,7.98v-189.63ZM25.45,546.83c-2.41-.11-3.37,12-1.3,12.47,2.22.5,2.59-12.41,1.3-12.47ZM17.67,549.66c-.39-.44-4.55-3.75-4.32-1.28.11,1.84,4.29,8.23,5.67,10.1.58.78.07,1.16,1.82.82,2.04-.93-2.2-8.53-3.17-9.64ZM34.98,548.79c-4.02-1.09-5.43,11.03-4.59,12.48,1.51.3,1.05-.13,1.47-.84.36-.6,3.55-11.22,3.12-11.64ZM69.84,637.52c-7.61-15.76-27.62-17.73-41.77-9.2-7.18,4.33-18.44,16.92-6.1,21.88,7.39,2.97,21.07,2.87,29.1,2.43,3.53-.2,9.58-2.34,12.51-2.02,2.5.27,2.68,2.05,4.46,2.83,8.87,3.87,43.68,2.68,31.37-12.96-7.03-8.94-20.78-9.49-29.58-2.96Z" fill="#fff"/>
    <path d="M352.95,234.84c9.93,9.56,20.65,16.58,35.09,16.85-.24,3.77-.1,8.54-.61,12.21-3.92,28.49-12.22,61.9-37.71,79.31-39.73,27.13-96.08,7.61-113.49-36.17-1.46-3.66-5.9-19.71-4.34-22.48.62-1.1,4.68-1.5,4.27-3.93-14.54,2.89-21.54-3.38-20.4-18.1,1.47-19.04,23.15-29.62,29.94-7.53,2.16,2.89,14.1-9.13,15.73-11.2,3.6-4.6,5.58-10.14,8.66-15.03,22.39,14.54,53.66,14.69,74.9-2.07,2.62,2.84,5.18,5.48,7.97,8.17ZM312.02,252.75c4.96,2.89,2.96-3.2-2.64-5.57-8.46-3.58-22.8-.82-25.22,9.11,1.54,1.46,6.94-4.54,8.73-5.39,7.56-3.59,12.6-1.95,19.13,1.85ZM375.99,263.73c1.5,2.05,2.35,8.88,5.41,5.29-.63-9.8-10.69-15.51-19.83-13.88-2.53.45-5.09,1.44-4.43,4.44,6.87-1.25,14.14-2.29,18.85,4.16ZM308.26,270.33c.56.37,1,1.97,1.87,2.38,2.73-1.46.85-4.7-1.01-6.2-5.71-4.61-20.04-2.31-20.98,6.47,2.51,3.15,3.68-1.83,5.94-3.16,4.26-2.52,10.1-2.16,14.18.51ZM357.4,278.27c4.44-1.92,7.25-2.86,11.27,1,1.79,1.71,2.97,6.8,5.5,3.54.07-5.91-7.44-10.4-12.66-10.04-4.71.32-11.02,6.33-5.34,6.59,1.11.05,1.01-1,1.23-1.09ZM305.5,277.03c-7.57-11.22-14.2,16.24-5.38,14.63,5.16-2.23,8.46-10.07,5.38-14.63ZM335.11,314.13c-3.5.71-9.06-.52-12.82,0,.65,3.48,8.11,3.5,10.84,3.27,6.54-.54,11.6-3.62,11.46-10.73-.12-6.16-5.47-14.81-4.6-20.52.15-.97,2.53-2.27,1.38-5.75-3.99-4.48-4.05,7.91-3.95,10.38.23,5.65,4.69,14.12,3.97,17.79-.26,1.35-4.91,5.28-6.29,5.56ZM364.2,284.72c-.6-.69-3.5-1.7-4.6-1.38-5.58,2.08-7.05,19.51,1.33,15.85,4.05-1.77,5.99-11.34,3.27-14.46ZM307.67,322.2c-11.98,1.37-14.61,14.87-3.3,16.76,17.14,2.86,24.91-19.23,3.3-16.76Z" fill="#fff"/>
    <path d="M537.01,603.75c-3.2,10.98-6.55,18.88-16.22,26.16-2.07,1.55-12.74,7.27-13.09,7.96-.64,1.3,1.04.98,1.58.93,7.21-.71,15.27-8.68,20.76-13.1-7.33,20.57-19.14,39.64-35.85,53.87-50.55,43.06-156.4,55.65-215.07,24.45-16.98-9.03-30.04-24.18-36.38-42.17,5.69,2.92,13.05,8.21,19.59,8.37,1.2.03,1.85.59,2.75-.81-6.62-2.91-16.14-5.56-21.37-10.82-4.8-4.82-7.42-14.46-9.52-20.72l12.54,9.15c56.05,33.35,164.07,14.52,222.82-7.21,24.65-9.12,50.1-21.63,68.07-41.06.96.17-.41,4.31-.61,5ZM482.71,648.7c-13.91,5.56-27.67,10.59-42.73,12.15.84,4.82,29.64-4.17,33.1-5.68.93-.4,11.18-4.99,9.62-6.48ZM499.8,660.53l-33.52,14.45c6.74-.16,13.34-2,19.5-4.48,1.45-.58,16.39-7.49,14.02-9.97ZM374.89,681.55c12.21,3.91,27.53,1.68,38.11-5.58l-38.11,5.58ZM338.07,681.57c-15.72,1.98-30.73.95-45.36-5.26-1.53,1.5,7.46,5.43,8.36,5.76,9.82,3.67,28.49,6.18,37-.5ZM447.01,682.03c.5-.57,1.36-2.49.53-3.09-7.53,3.86-15.24,7.22-23.44,9.43-3.22.87-7.23.85-10.55,1.96s-2.04,2.29.89,2.25c5.73-.08,15.44-2.74,20.92-4.78,1.63-.61,10.96-4.99,11.65-5.77ZM300.59,696.67c-.25-1.3-1.39-1.08-2.3-1.3-5.76-1.42-11.78-2.16-17.4-4.29-1.72-.65-11.13-6.27-11.85-5.57,6.1,8.87,21.2,12.78,31.55,11.16ZM378.17,698.66c-14.09,2.53-27.34,4.41-41.76,2.62l-.97,1.31c10.9,2.42,30.66,3.61,40.75-1.65,1.02-.53,2.23-.76,1.98-2.29Z" fill="#fff"/>
    <path d="M180.05,341.97c20.35,17.36,15.01,61.59,16.68,86.19,2.3,33.89,11.54,62.77,27.68,92.46,1.21,2.22,7.15,9.96,7.16,12.07,0,1.04.17,1.09-1,1.01-17.74-2.65-37.44,9.46-43.06,26.27-.95.1-1.7-.32-2.41-.88-9.73-7.73-25.42-39.67-30.15-51.66-18.94-48-34.22-117.56.35-161.89.89-1.14,8.58-9.81,9.21-10.08,2.86-1.23,13.2,4.51,15.54,6.51Z" fill="#fff"/>
    <path d="M398.2,229.05c8.73,12.2.21,34.31-8.2,44.99l-1.29-.31,2.7-20.96,5.83-3.36c-.91-1.94-8.82-.23-11.41-.43-15.15-1.14-32.25-14.67-39.54-27.52-16,14.1-36.19,17.99-56.7,12.66-8.04-2.09-13.62-6.2-20.77-9.99-5.2,10.08-10.1,21.33-20.51,26.92-1.18-.08-3.88-5.75-5.3-7.17-7.51-7.47-18.62-3.95-24.56,3.56-7.74,9.79-10.17,21.72-1.98,32.18,3.28,4.19,6.9,4.12,11.75,5.01.4,7.21-4.94,15.58-9.77,20.65-10.02,10.5-25.34,11.14-37.94,16.63-17.21,7.49-29.93,22.18-38.35,38.24-2.33,1.58-5.69-11.62-5.83-12.89-4.21-36.14,34.23-68.5,55.41-93.67,10.53-12.52,19.87-26.05,30.69-38.33,47.45-3.76,96.41-1.44,143.52,5.63,6.41.96,25.19,3.36,30.02,5.48,1.95.85,1.39,1.48,2.25,2.68Z" fill="#fff"/>
    <path d="M459.7,504.1c-3.33,9.4.36,19.32,11.51,19.1,3.74-.07,5.93-2.74,9.53-2.68-.25,7.98,3.03,17.47,12.5,17.1,1.23,1.15-3.15,5.35-3.47,6.09-3.74,8.43-3.02,17.71.18,26.12-3.23-.45-7.27.89-7.23,4.6,5.19-1.51,10-3.77,14.6.66,10.37,9.99-6.78,28.65-20.48,21.33-3.37-1.8-3.88-6.15-5.63-6.86-2.07-.84-.36,4.31-.47,4.85-.58,2.77-13.8,5.79-16.71,6.22-42.62,6.27-86.4-34.44-56.67-75.72,4.22-5.86,22.88-23.16,29.49-24.48,2.99-.6,2.72,1.66,4.65,2.63,7.76,3.91,19.73.53,28.22,1.04ZM435.57,515.71c3.36,2.7,3.42-3.73-1.36-6.18-4.38-2.24-8.81-1.31-13.3-.17-.48,4.28,5.54,1.6,8.71,2.13,3.85.64,4.05,2.7,5.95,4.22ZM413.46,519.32c-4.62,1.67,7.84,4.94,8.71,5.53,1.05.72,4.07,5.87,5,4.23,2.11-6.25-9.09-11.43-13.71-9.76ZM476.8,553.39c1.98.16,1.99-1.45,2.02-2.94.15-6.55-7.1-16.91-14.53-14.49-2.33,1.3,4.72,3.61,5.24,3.99,4.33,3.13,6.28,8.36,7.27,13.44ZM426.17,548.13c1.06-.72-1.75-11.75,7.38-8.37,2.66.99,2.25,2.98,4.78,3.11,4.56-1.33-4.96-10.28-12.14-5.57-3.16,2.08-5.27,9.85-.02,10.83ZM452.91,546.27c-3.62,3.29,3.85,3.42,6.45,5.81,2.02,1.86,4.2,9.42,5.26,9.19,4.6-1.01-3.36-18.28-11.71-15ZM410.11,560.89c3.41,8.02,11.88,10.88,20.01,7.95,2.58-.93,6.81-4.48,3.94-7.23-.91-.87-10.58-4.54-13.07-5.99-1.98-1.15-5.22-5.43-7.76-5.38-4,1.76-5.06,5.89-4.13,9.91.12.52.94.57,1.01.74Z" fill="#fff"/>
    <path d="M182.25,172.16c-9.59,17.64-17.52,36.26-25.7,54.67-26.47,59.59-48.31,121.4-52.68,187.4-23.73,22.65-38.59,57.28-28.14,89.86-6.4-.77-7.89-.82-8.28-7.67-.86-14.86,1.56-37.19,3.04-52.46,8.34-86.01,30.16-173.25,83.49-242.56,9.01-9.93,17.35-20.99,28.26-29.24Z" fill="#fff"/>
    <path d="M75.52,185.11c-4.61,66.29-5.88,134.5-5.72,201.68.05,20.51,1.9,39.97-2.59,60.46l-2.63,42.38c-.3-3.94.37-8.31.04-12.2-2.45-29.28-6.42-61.83-11.86-91.33-2.14-11.62-7.29-25.32-8.58-37.46-1.86-17.54.35-46.03,1.29-64.44,2.14-41.89,6.99-84.52,19.19-124.13,4.06-13.17,7.57-26.29,16.33-37.21-3.45,20.61-4.03,41.44-5.47,62.25Z" fill="#fff"/>
    <path d="M370.62,376.58c-3.13-2.87-9.48-13.91-4.54-17.02,3.65-2.29,8.68,1.41,12.76.58.31-5.27-7.28-7.17-3.78-12.98,4.47-4.04,15.07,3.46,16.63,1.17.61-3.7-5.9-15.69-1.68-18.13,3.76-2.18,10.53,9.76,12.49,7.59-3.65-13.75,5.41-19.98,10.86-5.26l2.81-7.69,3.91-4.02c4.28-1.24,6,4.98,8.05,7.46l1.68-.32,11.82-51.96c13.24,4.89,28.24,4.35,41.77.95l10.82,56.24c.94,1.36,5.25-1.63,7.29-1.91,5.48-.76,8.06.52,11.25,4.86l-13.6,51.6c-2.22-10.66-4.46-21.58-7.8-31.95-4.29-13.29-14.57-37.26-23.1-48.39-8.55-11.17-15.49-13.75-12.47,4.28.08.49,1.17.45,1.26.95,3.05,17,6.63,33.84,9.88,50.8-5.48-9.11-10.47-18.74-17.77-26.6-16.62-17.88-11.86.38-9.66,12.28,1.51,8.16,4.1,16.24,6.38,24.18-4.59-3.76-7.51-9.52-12.18-13.78-2.56-2.34-16.29-12.16-19.01-11.87-1.71.18-2.7,1.85-2.22,3.45l10.41,25.48h-52.27Z" fill="#fff"/>
    <path d="M4.08,254.98c5.88,6.14,8.81,15.66,12.31,23.49,24.96,55.8,37.33,117.44,42.91,178.64,1.2,13.2,1.57,26.57,2.64,39.76h-9.2s2.97-33.52,2.97-33.52c-3.92,4.11-6.69,8.84-9,14.01-4.64,10.42-6.85,21.29-10.42,31.99l-2.48-1.78c-1.62-22.46-.99-45.1-2.78-67.55-3.34-41.77-11.4-89.19-22.66-129.84-.72-2.61-4.28-9.23-4.28-10.84v-44.37Z" fill="#fff"/>
    <path d="M217.43,472.54c8.65-.91,17.69-3.51,24.43-9.14,1.83-.24,16.67,16.39,18.64,18.86,4.09,5.13,8.44,11.28,12.06,16.75,10.66,16.13,19.47,34.74,27.28,52.2l-34.1,13.67c-8.39,4.81-17.27,9.76-23.33,17.42-1.29,0-5.97-20.21-4.92-21.68,5.1,2.12,16.64,5.37,18.26-2.44,1.71-8.21-10.16-15.26-16.09-19.12-1.12-.73-4.16-1.53-4.5-2.07s-.8-5.29-1.7-7.5c-2.09-5.08-6.98-10.98-9.31-15.7-6.4-12.98-12.74-27.3-16.25-41.24,3.07-.23,6.52.32,9.53,0Z" fill="#fff"/>
    <path d="M590.54,97.88h-144.97c-.25,0-2.48-1.03-2.65-1.3-.39-13.93,16.49-21.65,28.23-14.5,1.14-.22,2.72-7.23,3.56-8.96,6.06-12.5,23.86-15.43,34.9-7.72,1.81,1.27,7.54,8.33,9.26,6.84,1.01-6.44-.2-11.32,3.67-17.04,10.52-15.56,39.43-12.2,44.71,6.48.69,2.44.37,11.88.9,12.26,2.15,1.54,8.04-4.35,11.61-4.92,3.05-.48,8.3-.48,10.79,1.58v27.28Z" fill="#fff"/>
    <path d="M363.29,608.37c7.39,8.99,13.43,18.66,16.85,29.81l-54.79,3.84c-4.21-8.03-8.21-15.85-13.71-23.1-.68-.89-12.86-16.19-13.02-11.96,8.63,11.07,17.34,22.27,23,35.17-21.48-1.38-44.97-3.5-63.67-14.87,5.3-12.24,12.26-20.92,23.25-28.49,12.71-8.76,27.84-14.13,42.18-19.56,15.58,6.17,29.31,16.28,39.9,29.17Z" fill="#fff"/>
    <path d="M432.36,403.93c.59,1.82,3.14,5.49,2.69,8.14-9.89-11.16-25.94-20.3-41.13-19.42l-.65,1.98c.25,2.32,5.18,4.59,6.94,6.26,7.76,7.36,15.95,17.15,18.72,27.62-8.51,1.08-22.75,1.69-29.83,6.67-11.62,8.18,5,12,7.17,16.98.53,1.21.21,1.27-.76,1.91-4.46,1.52-9.16,2.59-13.82,3.28-3.17.47-13.02,1.73-15.63,1.37s-6.27-6.24-7.88-8.58c-7.73-11.23-14.01-25.25-18.07-37.94-1.04-3.26-6.3-22.15-6-24.07.19-1.27,7.29-9.14,9.52-8.94l79.58.02c.94-.02,1.1.49,1.53,1.1,2.62,3.69,5.92,18.46,7.61,23.63ZM364.14,406.37c-.34-.63-6.07-6.6-6.33-3.18,2.66,3.69,4.63,7.56,4.88,12.2l2.99.62c.61-.62-.87-8.39-1.54-9.64ZM372.91,403.53c-4.88-1.02-6.27,12.47-4.59,13.8,3.77.74,2.31-5.2,2.78-8.05.18-1.1,2.16-5.41,1.81-5.74ZM375.09,411.61c-1,1.38-2.9,7.03.14,7.06,2.1.02,3.79-8.02,5.56-9.56-.21-2.53-5.33,1.99-5.7,2.5Z" fill="#fff"/>
    <path d="M305.45,484.79c10.11,14.65,27.46,33.27,45.51,37.02,1.45.3,3.64-.59,4.23-.29,1.08.53,12.24,16.5,15.74,18.07-23.01,2.32-45.9,5.55-68.35,11.16-1.88-6.12-4.22-12.49-7.08-18.2-8.69-17.38-22.69-39.67-35.02-54.87-1.44-1.77-5.04-3.33-5.26-6.43l39.66-3.83c3.92,5.55,6.7,11.79,10.56,17.39ZM313.42,523.81c2.8.44,7.44,0,10.52,0,.08,0,1.31-.95.67-1.32-6.31-.51-12.63-2.21-19.07-3.31l-1,1.33c2.89.06,6.28,2.89,8.88,3.29Z" fill="#fff"/>
    <path d="M483.37,511.98c-3.2.77-5.36,6.34-8.06,7.39-9.46,3.67-16.44-4.03-12.66-13.31.45-1.11,4.29-5.29,3.62-5.91-1.68-.19-2.57,1.18-4.24,1.34-4.77.46-18.52,1.07-22.97.55-17.66-2.08-6.13-19.27,7.16-19.03,9.79.18,14.98,9.19,18.56,9.8,2.23.39,6.74-1.96,10.32-1.87,25.32.59,46.92,30.63,48.34,54.25,1.7,28.11-18.11,53.59-42.73,64.39-5.31,2.33-10.98,4.23-16.42,6.25,2.23-4.85,1.32-10.14.02-15.06,2.5-.4,6.58-3.32,8.86-3.27,2.03.05,6.01,3.17,9.88,3.22,11.04.15,23.83-11.19,19.96-22.5-1.42-4.17-7.74-7.01-9.45-9.75-1.97-3.14-4.29-11.67-3.61-15.27.47-2.49,5.06-12.97,7.2-15.27,1.43-1.55,4.61-1.72,4.6-4.27-1.25-1.03-11.25,5.41-16.31-3.74-.44-.8-2.09-5.24-2.09-5.79v-12.16Z" fill="#fff"/>
    <path d="M344.65,376.58c3.3-5.74,5.34-11.57,7.3-17.87,1.33-4.27,2.37-12.36,3.72-15.48,1.18-2.74,6.75-6.27,8.71-8.58,17.49-20.7,14.82-32.99,23.85-54.84,1.04-2.52,8.99-10.28,11.18-14.49s4.82-17.42,5.42-18.21c2.15-2.79,21.39-.67,23.34,1.61,1.77,2.07-1.85,9.61-2.46,12.69-2.01,10.11-5.16,39.52-.08,47.69.87,1.4,3.05,2.42,3.19,2.88.77,2.6-.83,6.64-.67,9.39-6.1-5.81-11.08-4.85-14.8,2.63-7.47-5.48-13.49-2.72-15.44,5.91-13.28-8.96-16.11,4.89-9.86,14.46-10.69-3.43-20.62-1.88-15.79,11.84-15.67-2.98-13.57,12.18-5.91,20.38h-21.7Z" fill="#fff"/>
    <path d="M397.24,223.43c-56.9-11.62-115.51-15.63-173.58-12.17l8.88-13.47,79.23-.32c1.16-.64,4.19-8.05,5.25-9.69,3.17-4.94,6.85-10.54,10.37-15.47,4.11-5.76,26.44-33.98,32.72-33.66,3.76,3.16,6.77,8.21,9.22,12.45,7.45,12.9,13.88,29.18,17.99,43.28.9,3.08,1.2,11.39,2.65,13.49.9,1.31,6.01,2.33,7.28,4.06v11.5ZM364.13,155.97c-.57-.63-4.76-4.14-5.33-4.17-12.1,4.75-21.86,20.61-22.72,33.16-.28,4.12-.42,8.84,2.3,12.21,1.14,1.41,4.08,2.69,4.62,3.93,1.14,2.61.21,5.89,2.42,9.41,4.06,6.46,14.71,4.17,18.74-1.09,1.75-2.29,1.59-5.58,2.66-7.51.93-1.67,3.08-2.99,4.26-5.63,4.91-10.97,1.09-31.35-6.94-40.31Z" fill="#fff"/>
    <path d="M133.35,225.81c-26.5,41.71-45.91,95.79-55.43,144.72-.96,4.91-1.1,10.73-2.22,15.41-.13.53-1.09.48-1.24.96l-.68,3.47c.05-7.54-.28-15.2.6-22.71,5.38-46,13.13-93.68,24.43-138.62,2.91-11.58,5.91-27.58,10.28-38.32.28-.7,2.44-2.44,2.57-4.16,13.26,2.79,25.42,9.27,36.77,16.47-5.17,7.52-10.19,15.07-15.09,22.78Z" fill="#fff"/>
    <path d="M467.21,312.54c23.5,32.34,35.49,96.29,37.85,135.36.11,1.87.72,9.09.41,10.21-.83,3.07-19.07,5.3-21.29-1.83-2.94-9.46-2.56-28.26-4.12-39.15-2.42-16.87-5.98-36.34-9.38-53.84-3.94-20.26-10.41-40.46-11.97-60.99,3.51,2.9,5.86,6.62,8.49,10.24Z" fill="#fff"/>
    <path d="M168.17,267.85c-11.83,30.44-46.39,51.79-32.43,88.52,1.04,2.73,3.97,5.87,3.51,8.37l-17.47,29.75-14.47,15.61c-.79-1.07,1.54-23.37,2.02-26.45,4.17-27.21,19.38-90.63,33.91-113.38,4.05-6.33,18-23.52,24.85-25.85,2.4-.81,6.28-1.66,6.73,1.75s-5.07,17.6-6.65,21.67Z" fill="#fff"/>
    <path d="M439.98,247.09c-3.22-4.04-3.39,16.56-3.21,18,.36,2.94,2.48,6.55,2.4,9.11-.14,4.46-4.72,12.81-5.03,17.87-4.53.22-7.8.38-8.23-4.78-1.13-13.45,5.1-41.24,13.8-51.97,2.2-2.71,4.84-4.85,7.84-6.62,3.81,8.73,12.97,10.19,21.35,7.54,3.98-1.26,5.28-4.37,8.89-5.64,14.43,4.14,17.76,23.7,19.94,36.66.67,3.97,2.79,16.92,2.14,20.28-.47,2.45-7.45,3.82-9.54,4.17-6.38-13.5-2.04-28.26-4.98-42.64h-1.97c-.26,6.98,1.76,15.91.69,22.72-.19,1.22.04,1.38-1.12,2.16-5.14,3.47-35.5,2.99-40.39-1.49-.87-.8-2.58-5.08-2.58-5.97v-19.39Z" fill="#fff"/>
    <path d="M536.21,229.09c7.11,5.41,14.19,10.92,23.41,13.09,5.97,1.4,10.81,1.14,16.14-2.25l.64.58c3.41,3.46,6.08,27.01,6.24,32.56.11,3.68-.28,21.65-2.41,23.37-2.09.98-10.88,2.74-12.05.79l-.66-47.5h-1.95s-.02,21.02-.02,21.02c-11.12,1.75-23.19,3-34.42,1.23-2.04-.32-5.45-.89-6.27-3.07-2.62-6.93-.91-17.78-.72-25.11l-2.03.4c-4.12,9.11.36,19.5.09,28.21-.21,6.74-3.87,14.91-4.04,21.95l-8.19-2.57c.8-10.42.95-21.62,2.97-31.88.22-1.13,1.17-1.01,1.28-1.5,3.16-14.33,4.35-25.32,20.16-31.04,1.21-.09,1.3,1.31,1.85,1.73Z" fill="#fff"/>
    <path d="M156.35,113.4c-3.78,7.59-8.78,15.35-12.9,22.44-5.57,9.59-11.76,25.41-25.92,23.12-8.49-1.37-10.1-14.19-8.19-21.1,3.57-12.9,22.04-46.05,31.47-56.1,4.88-5.2,14.27-11.38,20.75-5.6,9.82,8.75-.54,27.86-5.22,37.24Z" fill="#fff"/>
    <path d="M564.89,282.58c.16,4.23-.25,8.53.06,12.76.14,1.95,1.72,3.29,1.83,4.63.22,2.73-2.29,6.72-1.09,10.42.75,2.31,4.08,2.15,4.37,2.53,1.22,1.6-.53,7.22,6.68,5.81-.68,4.91,1.03,12.6-.3,17.13-.73,2.48-8.77,9.5-11.15,12.51-5.02,6.33-9.25,13.49-13.53,20.31,1.45-20.41,7.13-40.6,6.27-61.15-2.79-4.19-8.2,8.83-8.9,10.05-5.06,8.81-9.84,19.4-13.25,29.03-2.72,7.68-4.37,15.75-7.13,23.39l2.32-57.21c-1.88-4.74-4.74-1.63-6.81,1.11-3.56,4.7-5.07,11.28-8.66,16.01l7.81-47.6c7.18.73,14.2,2.71,21.51,2.64,6.77-.07,13.31-1.62,19.99-2.36Z" fill="#fff"/>
    <path d="M142.81,144.55l14.47-26.29,4.85,5.23c2.41-2.92,2.6-6.27,4.8-9.66,10.57-16.28,33.98-11.86,38.16,6.9.46,2.08-.6,6.12,1.49,7.11.71.34,8.82-4.22,12.15-4.37,3.91-.18,9.42,1.59,12.49,4,3.67,2.87,7.58,10.78,6.26,15.3-.05.18-2.16,1.79-2.31,1.79h-92.37Z" fill="#fff"/>
    <path d="M530.05,462.03c1.61-14.28,2.77-29.54,5.98-43.52,5.41-23.55,16.17-50.32,32.17-69.18,1.4-1.66,15.99-16.75,17.07-15.47-2.33,6.06-5.08,11.88-7.25,18.05-12.13,34.54-21.14,70.96-27.51,107.24-.37,1.63-6.33,2.88-7.64,2.88h-12.82Z" fill="#fff"/>
    <path d="M525.88,371.13c0,.13-1.09.08-1.14,1.14-1.57,29.66-2.47,59.4-2.58,89.11-3.2.01-12.65-.94-13.67-4.42-.91-10.65-1.49-21.46-2.78-32.05-.91-7.47-4.55-20.97-4.33-27.51.47-14.02,8.31-40.63,12.98-53.95,3.33-9.49,6.43-19.97,13.06-27.67l.68,9.89c-1.43,15.08-1.4,30.33-2.21,45.47Z" fill="#fff"/>
    <path d="M330.18,163.62l-20.84,30.76-75.15.12c21.72-28.88,61.37-40.5,95.99-30.88Z" fill="#fff"/>
    <path d="M39.8,174.6c1.95,12.78,5.12,29.6,2.24,43.06-1.78,8.29-11.82,15.52-18.78,7.29-9.07-10.72-13.34-55.29-11.12-69.39.72-4.58,2.84-9.8,7.27-11.79,17.98-8.07,18.74,20.06,20.39,30.82Z" fill="#fff"/>
    <path d="M252.44,559.15c-6.27,3.21-12.24-3.06-18.33-1.43-1.4,1.66,1,14.06,1.7,16.77.45,1.73,1.49,2.04,1.6,2.45.86,3.33,5.35,15.17,2.05,16.88-7.86,4.08-14.69-16.75-15.79-22.02-2.3-.09-1.98,1.79-1.9,3.51.34,7.51,5.4,14.11,10.2,19.46-1.4,4.94-6.8,1.48-9.22-.68-4.36-3.9-6.6-11.18-10.27-15.72-5.04,2.73,8.06,15.66,6.59,17.08-1.75-.22-5.16-1.42-6.51-2.36-8.24-5.71-16.14-31.93-17.19-41.99,6.67-8.21,21.11-16.54,31.88-14.76,3.43.57,20,10.7,22.77,13.39,2.28,2.22,4.38,6.4,2.43,9.42Z" fill="#fff"/>
    <path d="M456.09,457.43c-2.42-.3-7.38-1.65-8.27-4.22-3.13-12.23-5.11-24.88-8.27-37.09-5.81-22.52-14.41-43.41-23.56-64.52,7.57,3.41,15.1,9.37,20.72,15.44,16.06,17.33,29.44,59.04,33.31,82.38.22,1.33,1.76,8.02-.13,8.02-4.39-.38-9.54.52-13.81,0Z" fill="#fff"/>
    <path d="M386.34,591.9c3.53,4.82,19.49,36.79,18.18,41.25l-21.32,4.44c-8.09-27.63-30.59-48.3-56.3-59.86,23.1-9.03,44.29-6.51,59.44,14.18Z" fill="#fff"/>
    <path d="M4.08,334.51c6.27,8.35,9.75,18.93,12.56,29.05,9.37,33.74,13.03,86.4,13.76,121.79.02.73.21,1.16-.67.99-3.71-7.24-6.26-15.75-13.17-20.84-1.33-22.56-5.02-44.9-9.8-66.93-.29-1.32-2.68-5.52-2.68-7.86v-56.2Z" fill="#fff"/>
    <path d="M391.33,502.79l13.79,9.52-8.38,8.1-6.07-2.51c-.82,2.52,4.04,4.39,3.85,6.11-.05.45-4.49,7.52-4.93,7.65-1.33,1.54-11.39-10.75-11.4-6.21,1.93,2.64,4.18,5.01,6.53,7.26,1.41,1.35,5.23,1.35,2.71,5.11-1,1.49-10.86,2.14-12.91,1.13-.81-.4-11.48-11.34-12.78-12.86-1.64-1.92-11.71-15.82-11.82-17.15-.39-4.48,9.29-14.8,13.1-17.06,12.47-7.39,15.69-3.21,27.49-1.12,2.71.48,18.35-.2,16.28,4.76-1.76,4.22-11.52,5.84-15.46,7.25ZM389.35,502.78c-7.09,2.37-14.37,6.6-21.37,1.33-2.48,4.81,6.75,5.65,10.47,5.18,1.52-.19,13.37-4.01,10.9-6.51Z" fill="#fff"/>
    <path d="M293.36,357.52c-10.27,14.34-25.85,18.24-42.25,11.67-16.91-6.78-26.66-23.6-34.01-39.28,8.88,4.05,18.55,1.56,26.53-3.2,12.48,15.75,29.74,27.15,49.73,30.81Z" fill="#fff"/>
    <path d="M13.28,206.99c.66,4.44,1.53,9.19,3.3,13.32.49,1.13,4.31,7.17,5.22,8.06,2.09,2.03,5.06,2.43,5.77,3.1,1.54,1.43.43,5.59.78,7.43,1.14,6.06,2.57,12.91,3.33,19.69,2.34,20.83,3.25,41.89,5.27,62.76-1.99.37-1.01-.61-1.39-1.53-9.74-24.27-15.89-50.11-31.44-71.79l-.07-35.99,9.22-5.05Z" fill="#fff"/>
    <path d="M456.83,351.83c16.85,26.13,19.26,57.83,23.29,87.49.68,4.99.23,10.14,1.18,15.1-.27.94-7.08,3.52-7.65,1.22-1.57-9.33-3.05-18.78-5.46-27.93-7.76-29.48-22.32-56.01-27.36-87.8-.33-2.07-.59-4.63-.52-6.71,2.31,2.77,5.53,4.53,7.9,7.22,2.17,2.46,6.88,8.68,8.63,11.4Z" fill="#fff"/>
    <path d="M384.1,556.02c.09.09.11,2.27-.09,2.55-12.61,1.08-23.75,6.89-35.27,10.42-10.71,3.28-21.46,5.21-32.16,9.26-23.9,9.05-51.25,22.32-61.03,47.45-1.27.31-4.87-4.5-5.4-5.76-1.01-2.39-.06-5.05-2.16-5.76v-1.29c2.09-.69,1.16-3.42,2.13-5.78,11.68-28.47,77.05-43.42,104.81-47.71,3.53-.55,28.15-4.43,29.17-3.37Z" fill="#fff"/>
    <path d="M571.08,185.05c4.23,10.82,8.04,34.06,6.14,45.78-1.83,11.24-14.17,10.47-22.19,6.4l5.89-5.75c6.49-18.46,12.41-56.99-17.4-56.52-23.39.37-24.01,27.22-13.36,42.15,1.19,1.66,5.4,4.13,5.19,6-.23,2.04-3.85,2.1-5.56,3.05-5.32,2.95-8.52,5.57-12.24,10.44.07-15.49-.22-32.21,2.82-47.45,3.29-16.46,12.07-24.75,29.7-22.87,12.44,1.33,16.87,8.26,20.99,18.79Z" fill="#fff"/>
    <path d="M548.89,369.15c-2.53,12-9.56,25.31-12.98,37.31-5.05,17.72-5.73,35.31-8.56,53.2-.11.69-.25,2.46-1.24,2.36.39-18.85-.36-38.06.63-56.88,1.33-25.46,8.19-47.41,17.29-70.79,3.12-8.02,7.13-15.16,11.02-22.84,1.14,0,1.24,2.1,1.24,2.87-.08,12.54-4.69,41.95-7.39,54.77Z" fill="#fff"/>
    <path d="M590.54,388.74c-1.25,6.63-9.66,21.76-12.51,29.56-2.41,6.58-5.13,14.28-7.14,20.61-3.34,10.53-.78,23.68-16.55,20.87-.65-.45-.61-1.3-.68-2.01-.48-5.29,4.54-26.34,6.05-32.66,1.7-7.13,4.21-16.89,6.84-24.18,4.44-12.31,14.1-23.25,23.98-31.56-.75,5.73,1.01,14.01,0,19.39Z" fill="#fff"/>
    <path d="M279.55,427.85l13.15,36.8c-6.97-2.14-36.77,5.29-40.73,3.64-.66-.27-7.59-6.66-7.8-7.4-.58-2.06,2.01-5.83,3.3-7.64,7.37-10.39,22.06-17.66,32.09-25.39Z" fill="#fff"/>
    <path d="M479.85,178.3c9.7,11.97,7.04,40.78,9.43,55.64-5.02-6.11-13.69-5.32-17-12.32l7.86-12.97c2.06-10.54,2.34-22.18-8.13-28.1-9.5-5.36-25.94-3.58-30.37,7.38-4.1,10.12-1.76,29.16,9.72,33.51l.46,1.3c-7.92,3.3-13.99,9.2-18.4,16.44-.04-14.14,1.02-28.99,3.38-42.95,1.09-6.44,2.11-15.4,6.58-20.37,9.7-10.77,27.82-8.25,36.47,2.42Z" fill="#fff"/>
    <path d="M559.91,186.34c6.32,10.02,3.69,32.34-10.53,34.4-18.12,2.62-24.03-15.49-21.79-30.33,2.34-15.5,24.74-16.09,32.32-4.07ZM539.91,189.24c-1.65-5.12-10.98-3.36-11.17,1.97,4-1.25,6.68-2.71,11.17-1.97ZM551.58,186.74c-8.5,1.69,6.25,5.4,6.73,2.83.36-1.95-5.15-3.14-6.73-2.83ZM537.16,194.62c-2.05-1.03-3.79-2.23-4.46.9-1.35,6.33,6.7,5.08,4.46-.9ZM542.64,204.27c-.93-1.48,1.55-7.77-1.07-7.13-1.38.33-4.38,11.68,2.45,10.36,6.15-1.2-1.19-2.93-1.38-3.22ZM539.26,210.94c-1.88,6.36,11.92,2.84,11.82.98-3.29-2.14-7.8.66-11.82-.98Z" fill="#fff"/>
    <path d="M445.23,621.76l-38.1,11.13c-3.21-16.3-12-30.54-19.09-45.32,15.64,7.04,32,13.79,45.68,24.32,3.91,3.01,7.19,7.44,11.5,9.87Z" fill="#fff"/>
    <path d="M86.52,526.85c1.01,1.42,7.55,9.77,6.97,10.76-12.53,6.51-19.59,20.6-21.12,34.11l-20.95-4.52c4.62-15.43,9.93-31.9,23.07-42.33,8.83-7.02,7.02-5.02,12.03,1.99Z" fill="#fff"/>
    <path d="M100.73,184.65c-3.19,9.85-6.64,19.59-9.54,29.57-5.55,19.12-10,38.59-13.95,58.36-.92,4.63-.36,10.42-3.46,13.95l4.6-100.56,22.35-1.32Z" fill="#fff"/>
    <path d="M444.94,207.93c-1.8-5.32-2.24-8.48-1.58-14.32,2.03-18.25,31.88-16.11,34.03-1.35,1.72,11.78-.99,27.71-15.41,28.52-10.09.56-14.06-4.02-17.04-12.85ZM453.59,189.44c-2.69-2.73-8.26-1.04-7.69,3.09,3.26-.74,5.08-1.88,8.54-.66.33-.31-.42-1.99-.85-2.43ZM474.82,191.87c1.43-5.32-9-4.7-9.21-.99-.16,2.05,3.63.31,4.94.28,1.47-.04,2.8.77,4.27.71ZM450.19,195.17c-1.63.25-2.55,4.67-.65,5.24,3.62,1.08,3.39-5.67.65-5.24ZM459.04,199.11c-3.33.93-4.22,4.4-2.87,7.29l3.11,1.13c3.48-1.84-2.07-4.34-.24-8.43ZM453.79,214.22c.55.83,10.09,1.49,11.16-.98-.03-1.54-13.02-1.82-11.16.98Z" fill="#fff"/>
    <path d="M590.54,256.95v108.13c-3.27,3.57-7.62,6.69-10.85,10.18-1.55,1.67-6.53,9.38-7.03,9.71s-.99.11-1.51.16l-.34-1.65,18.31-50.79-.48-1.85c-2.56-3.13-8.6,3.18-9.28,2.34.16-3.38-.22-6.83-.03-10.21.35-6.3,2.73-11.69,3.31-17.75.18-1.86-.79-5.1-.58-5.79.33-1.09,2.5-1.05,3.21-5.36,1.85-11.21.16-24.06-.03-35.38l5.29-1.75Z" fill="#fff"/>
    <path d="M110.32,181.1c-20.25,53.84-24.98,103.94-35.86,159.14-.5,2.52,0,6.4-1.34,8.73.35-9.49-.49-19.13-.03-28.61,1.2-24.77,8.76-53.3,14.54-77.51,6.65-27.85,13.63-55.29,25.7-81.08l4.49.88c-2.83,6.01-5.17,12.25-7.5,18.46Z" fill="#fff"/>
    <path d="M432.33,414.46c.58.73,1.69,1.02,2.56,2.37,5.79,8.98,5.74,24.7,9.04,35-4.69.77-11.01.21-13.29-4.46-6.25-12.84-9.59-28.03-19.6-39.56l-13.14-12.82c13.94,2.91,25.58,8.29,34.43,19.48Z" fill="#fff"/>
    <path d="M120.71,409.85c1.96,4.82,10.4,15.32,10.78,16.49.93,2.9.22,8.27.74,11.08.22,1.16,1.23.9,1.32,1.44.94,5.44,1.78,11.06,2.01,16.6-.82,1.1-15.78-10.74-17.11-12.14-5.01-5.28-12.64-17.68-12.53-25.01.09-6.06,8.96-10.13,12.23-14.78,1.95-.35,1.9,4.73,2.55,6.32Z" fill="#fff"/>
    <path d="M4.08,461.37c9.77,2.5,16.99,12.05,20.7,21.05.88,2.14,7.89,23.89,5.92,24.32-6.71-2-12.99-3.17-19.98-2.05-.98-4.29-2.55-8.43-4.07-12.54-.19-.52-2.57-2.48-2.57-4.15v-26.62Z" fill="#fff"/>
    <path d="M509.67,259.58c-.69,9.79-2.66,20.13-2.65,29.94,0,4.9.51,18.95,4.26,22.02,1,.82,3.1.37,3.61,1.7-.3,1.79-.33,3.95-.66,5.66-.1.52-1.15.48-1.24.97-.33,1.91-.17,10.8-1.99,10.38-4.49-4.2-10-1.77-15.13-.99,1.29-3.72-2.5-14.84-1.87-17.3.32-1.28,2.89-2.1,3.85-3.39,1.51-2.03,3.09-8.62,3.29-11.23.13-1.74-1.19-4.18-.71-5.77.31-1.02,3.18.17,3.35-4.75.13-3.72-1.64-8.28-1.97-10.61-.29-2.05-2.2-14.81-1.91-15.54.82-2.13,7.69-.67,9.79-1.09Z" fill="#fff"/>
    <path d="M389.24,640.27c1.46,3.03,5.39,14.47,2.07,16.62l-36.46,4.31c-1.18-6.23-5.69-11.5-.35-16.8l34.75-4.13Z" fill="#fff"/>
    <path d="M349.91,644.76c-1.65,5.73-.21,11.56,1.32,17.09-1.13,1.08-28.07,1.09-31.31.71-4.89-.57-4.66-10.96-3.24-14.56.15-.39,2.44-3.24,2.65-3.24h30.57Z" fill="#fff"/>
    <path d="M236.43,315.19c2.49,4.87,8.92,7.78.74,11.44-11.8,5.29-23.97.35-31.89-8.9l10.07-5.69c5.44-4.74,11.34-9.9,13.6-16.97,2.18,6.86,4.18,13.66,7.48,20.11Z" fill="#fff"/>
    <path d="M395.28,656.59c.69-6.32-1.16-11.95-3.29-17.74l32.23-5.63c2.41,3.49,4.93,12.91,1.67,16.18s-25.28,4.8-30.61,7.19Z" fill="#fff"/>
    <path d="M455.76,640.81c.88-6.78-1.97-11.89-6.58-16.42l26.64-9.62c4.87.84,10.01,12.34,7.6,15.91-.82,1.22-26.67,11.23-27.66,10.13Z" fill="#fff"/>
    <path d="M244.71,451.51c-2.2,6.6-6.14,11.85-12.69,14.58-3.8,1.59-23.21,5.78-25.49,2.71-.44-.59-3.28-13.68-3.2-14.42.08-.77.28-1.17,1-1.49,13.41,2.22,27.12,1.39,40.38-1.39Z" fill="#fff"/>
    <path d="M340.27,375.49c-.66.9-6.35,9.45-7.46,8.31l-7.85-25.88c9.13-3.23,18.46-6.21,26.25-12.24-.98,9.4-3.58,20.37-8.9,28.25-.54.8-1.67,1.05-2.04,1.55Z" fill="#fff"/>
    <path d="M293.37,571.8c-.55-4.86-3.53-8.92-6.58-12.48.77-1.31,25.79-7.94,29.17-8.64,2.08-.43,5.53-1.93,7.02-.28,1.47,2.18,3.15,10.12,1.29,11.88l-30.9,9.52Z" fill="#fff"/>
    <path d="M284.81,657.9c-.6.57-14.05-3.47-15.91-4.13s-9.81-3.6-10.74-4.38c-4.87-4.11.92-13.79,5.92-15.06l22.71,6.82-2.58,7.3.59,9.47Z" fill="#fff"/>
    <path d="M315.06,644.76c-2.96,5.59-2.15,11.22-.66,17.08-.94.85-23.47-1.89-25.18-2.76-3.43-1.73-2.58-15.09,1.55-16.64,2.57-.97,19.98,3.08,24.29,2.32Z" fill="#fff"/>
    <path d="M35.64,231.31l6.6,50.26-.69,49.65c-1.35-.07-.35-2.42-.67-3.47-1.44-4.77-.86-5.66-1.3-10.64-2.54-28.39-5.65-56.83-7.59-85.17l3.66-.62Z" fill="#fff"/>
    <path d="M461.6,602.09c4.57,12.56-1.07,17.31-12.76,19.43-8.99-8.54-18.45-16.22-29.23-22.46,13.52,5.32,27.83,6.13,41.99,3.02Z" fill="#fff"/>
    <path d="M248.24,623.49c3.1,3.45,8.2,7.96,12.91,8.79-4.6,3.87-8.02,8.83-7.24,15.11-5.02-2.44-20.6-12.99-21.57-18.23-1.14-6.1,8.46-9.55,13.07-10.38,1.1,1.46,1.6,3.35,2.83,4.72Z" fill="#fff"/>
    <path d="M452.31,642.62c-2.07,1.83-19.26,4.37-22.84,6.73,1.86-6.91-.04-12.47-3.29-18.4l20.41-4.9c3.85,1.95,9.15,13.54,5.72,16.57Z" fill="#fff"/>
    <path d="M507.55,618.98c-.54,1.07-18.86,9.44-21.55,10.65.44-6.14-1.8-11.65-5.86-16.1.02-.99,15.75-8.5,17.86-8.1,4.19.79,11.76,9.14,9.55,13.55Z" fill="#fff"/>
    <path d="M268.39,583.63c-.07-4.76-4.68-9.07-8.8-11.11l-.41-1.37,24.31-10.9c2.39,1.79,8.43,10.34,6.94,12.86l-22.04,10.52Z" fill="#fff"/>
    <path d="M536.21,595.04c-2.44,3.17-4.68,6.37-7.8,8.95l-5.56-7.57-6.61-3.92c4.68-7.4,12.87-20.49,22.98-11.79,6.06,5.21.1,10.3-3.01,14.33Z" fill="#fff"/>
    <path d="M255.07,574.53c3.9-.97,11.78,5.93,11.36,10.06-.29,2.84-6.13,4.97-7.93,6.57-1.44,1.28-7.97,8.85-8.73,8.81-1.27-.7-6.67-3.99-6.95-4.94-.37-1.27,1.13-2.98,1.13-4.47s-1.16-3.59-.86-5.05,10.6-10.63,11.98-10.98Z" fill="#fff"/>
    <path d="M52.73,194.5l-9.85,71.64c-.12-7.28-.95-14.69-2-21.88-.07-.47-1.2-.47-1.27-.93-.28-1.81-1.96-12.92-1.82-13.59.28-1.37,2.8-2.18,3.67-3.47,6.06-8.95,3.45-20.28,4.14-30.36l7.14-1.41Z" fill="#fff"/>
    <path d="M245.36,616.48c-6.71-.18-10.98,3.37-15.77,7.23-1.16-4.21,1.05-25.01,4.04-26.85,3.31-2.04,12.09,2.58,14.07,5.84-1.39,4.58-3.06,8.8-2.34,13.77Z" fill="#fff"/>
    <path d="M59.97,585.93c-.13-.53-1.1-1.36-1.66-.34l-1.95,9.21c-4.23-3.99-6.52-7.9-6.91-13.79l25.85,5.37,9.64,13.36-6.48.91c-.85-13.65-7.63-11.95-2.71.08l-5.82-.75c-.77-1.28.77-12.24-3.39-10.03l.66,9.47-7.23-1.97c-.52-3.23.71-8.6,0-11.5Z" fill="#fff"/>
    <path d="M386.33,566.29c.08.16.86.27,1.16,1.16,1.72,5.11-5.18,8.37-4.72,14.21-8.8-5.4-17.01-10.73-27.6-11.84,6.78-2.7,21-7.97,28.04-7.84.74.01,1.42-.2,1.88.61.27,1.35.64,2.46,1.24,3.71Z" fill="#fff"/>
    <path d="M4.08,405.5c1.18,1.02.89,3.75,1.39,5.38.72,2.34,1.72,4.4,2.36,7.63,2.86,14.46,3.48,29.34,6.12,43.83l-9.87-4.59v-52.26Z" fill="#fff"/>
    <path d="M510.33,617.15c-.12-7.5-4.63-11.13-10.53-14.45,4.92.23,9.85-8.09,14.04-7.88,4.58.23,11.01,6.69,10.98,11.47l-14.49,10.86Z" fill="#fff"/>
    <path d="M543.19,580.34c-4.43-4.29-10.38-6.08-16.43-4.61,2.77-7.1-1.66-18.99,10.16-18.42,10.64.51,6.2,16.01,6.27,23.03Z" fill="#fff"/>
    <path d="M326.89,561.28c.04-4.64.65-8.43-1.97-12.48l19.74-3.03c1.91,3.9,2.83,8.55.67,12.58l-18.44,2.93Z" fill="#fff"/>
    <path d="M133.38,390.18c-.03.15-.99.23-1.06.66-1.59,9.6-.63,20.68-1.66,30.42-3.97-4.92-8.69-14.32-8.24-20.68.42-5.93,9.98-17.55,13.17-23.04l-2.2,12.63Z" fill="#fff"/>
    <path d="M367.57,555.27l-18.97,2.06c1.37-4.47.27-8.13-.66-12.48l19.09-1.67c2,3.91,2.36,8.09.54,12.09Z" fill="#fff"/>
    <path d="M391.32,166.9l5.26,40.75-4.17-2.11c-1.13-11.89-5.41-22.77-9.61-33.75l8.52-4.88Z" fill="#fff"/>
    <path d="M564.89,273.38l-.07,5.84c-10.13,2.51-20.67,3.59-31.09,1.97-4.47-.69-12.27-1.4-8.57-7.2,13.35,2.23,26.55,3.34,39.72-.61Z" fill="#fff"/>
    <polygon points="590.54 429.16 578.03 428.16 590.54 396.3 590.54 429.16" fill="#fff"/>
    <path d="M474.16,228.04c-4.05,7.91-19.82,8.5-23.7-.35,3.91-6.93,11.73-1.61,18.12-4.94l5.59,5.3Z" fill="#fff"/>
    <path d="M72.29,575.24c1.25,1.11.56,5.93,1.48,7.72l-23.69-5.69.69-7.45c3.62,1.67,19.5,3.61,21.53,5.42Z" fill="#fff"/>
    <path d="M538.6,223.43c6.33,1.23,12.41,1.27,18.1-1.96,7.14,3.84-.76,13.15-7.03,12.76-3.75-.23-12.19-6.29-11.07-10.81Z" fill="#fff"/>
    <path d="M385.41,542.22l-1.93,10.88-12.53,1.6c.83-4.09.74-7.85-.66-11.82l15.12-.66Z" fill="#fff"/>
    <path d="M410.39,593.5c.15,1.22-1.36.55-1.99.34-7.42-2.48-15.57-8.58-23.65-10.22l4.61-10.5c4.74,8.51,12.22,16.24,21.02,20.38Z" fill="#fff"/>
    <path d="M580.02,300.33c.55,2.55-1.84,17.08-4.93,16.42-2.64-.56.87-9.3.33-9.84-2.7-.73-2.68,2.55-4.55,3.02-4.77,1.21-2.03-6.22-1.44-8.56l10.6-1.04Z" fill="#fff"/>
    <path d="M42.22,502.12c1.43-9.84,4.92-19.33,9.19-28.26l-2.09,23.2-7.1,5.06Z" fill="#fff"/>
    <path d="M506.38,595.45c2.46-4.62,6.9-8.08,9.72-12.29,3.62-5.39,5.75-11.55,8.68-17.28.32,12.91-7.45,23.54-18.4,29.57Z" fill="#fff"/>
    <path d="M517.54,297.07c-.66,3.63-.95,8.03-1.93,11.51-.27.97.63,1.77-.99,1.6-3.76-.41-4.36-11.51-4.28-14.45l7.21,1.34Z" fill="#fff"/>
    <path d="M497.83,293.1c.81.89-.41,15.28-4.59,15.11l-2.03-13.36,6.62-1.75Z" fill="#fff"/>
    <path d="M433.4,295.08l-1.3,1.1-2.96,13.35c-3.59-4.35-3.27-10.51-2.3-15.77l6.56,1.32Z" fill="#fff"/>
    <path d="M21.18,129.76c3.37-3.24,3.73,9.11,3.29,9.53h-3.29v-9.53Z" fill="#fff"/>
    <path d="M168.44,65.03l-3.92,8.26c-7.18-.02-.06-8.78,3.92-8.26Z" fill="#fff"/>
    <polygon points="4.08 496.86 7.93 505.1 4.08 506.72 4.08 496.86" fill="#fff"/>
    <path d="M194.09,561.94h-3.95c-.75-2.83,1.74-4.29,2.97-6.57l.99,6.57Z" fill="#fff"/>
    <polygon points="561.6 220.8 558.33 219.82 562.26 215.54 561.6 220.8" fill="#fff"/>
    <path d="M351.87,519.21c-1.61.69-2.97-3.57-2.62-3.94,1.71-.59,3.16,3.34,2.62,3.94Z" fill="#fff"/>
    <polygon points="73.77 393.01 73.11 392.68 73.12 391.04 73.77 391.04 73.77 393.01" fill="#fff"/>
    <path d="M214.25,331.42c3.45,5.37,5.85,12.87,9.54,18.44,18.09,27.26,52.15,36.3,74.64,8.44l23.1-.04c2.85,6.83,4.59,14,6.75,21.05,9.82,32.11,12.72,53.7,34.23,81.63,6.58,8.54,14.56,16.2,21.56,24.42-15.86-4.78-35.66,9.24-37.93,25.16-.39,2.72.92,5.11-.53,6.72-.57.12-5.95-2.93-6.97-3.54-18.4-10.99-37.73-38.74-46.26-58.27-4.25-9.74-6.12-20.57-10.85-29.92,6.33-6.58,12.92-14.87,16.99-23.07,2.75-5.53,9.91-24.12,9.98-29.52.02-1.19.09-2.16-1.02-2.91-2.25-1.34-3.76,9.32-4.08,10.36-9.91,32.91-21,40.45-47.16,59.99-9.04,6.76-7.57,8.54-20.6,10.3-10.76,1.45-21.63.77-32.4-.1.23-2.14-1.85-4.51-1.91-4.78-6.83-30.71,6.63-85.32-20.74-106.67l-11.49-6.9c9.02-7.6,20.63-10.84,31.89-13.54,1.16.08,8.83,6.65,9.9,7.9.55.65,2.82,4.02,3.35,4.85Z" fill="#fff"/>
    <path d="M526.76,557.99v-17.75c6.53,3.28,12.81,8.27,15.1,15.46-5.46-1.34-10.65-1.6-15.1,2.29Z" fill="#fff"/>
    <polygon points="4.08 310.19 6.64 315.33 13.27 342.74 4.08 326.95 4.08 310.19" fill="#fff"/>
    <path d="M201.55,235.49c-9.98,13.05-20.41,25.69-31.46,37.89.28-7.4,17.28-35.64-1.02-31.91-4.31.88-11.95,7.3-15.11,10.53-3.91,4-6.57,9.94-11.14,12.52l23.32-51.59,37.8,18.07c2.23,1.66-1.87,3.81-2.39,4.49Z" fill="#fff"/>
    <path d="M246.68,768.33c-11.11,8.65-26.47-2.46-39.07-2-9.56.35-15.98,7.78-25.01,8.58-10.83.97-17.99-4.77-26.93-4.64-8.43.12-15.49,7.39-25.05,7.29-10.25-.11-19.1-7.41-28.55-9.6-17.79-4.12-27.71,10.68-44.99,8.83-4.61-.49-9.63-3.01-14.51-3.23-4.76-.22-7.78,1.29-12.19,1.65,6.9-8.97,17.14-2.6,25.41-1.72,17.41,1.86,27.75-11.64,43.01-9.48,10.8,1.53,19.72,9.91,31.17,10.25,10.21.3,17.42-7.47,26.97-7.3,5.53.1,13.45,4.41,19.24,5.13,12.67,1.57,17.84-7.36,28.73-8.39,14.45-1.37,27.28,7.48,41.77,4.63Z"/>
    <path d="M566.21,761.76c.06,2.64-1.7,3.99-3.72,5.12-13.86,7.74-24.27-1.23-38.01.15-5.74.58-10.69,5.3-16.74,6.26-11.58,1.85-20.45-5.43-30.61-4.99s-20.62,7.86-30.87,8.6c-14.46,1.04-25.67-9.58-39.41-7.85-2.89.36-5.67,2.6-8.93,1.91.44-2.24,5.93-4.14,7.72-4.43,15.79-2.56,25.52,8.42,41.28,7.09,9.37-.79,18.29-7.14,27.6-7.9,11.7-.95,20.34,5.64,31.57,4.61,9.67-.89,12.84-7.76,25.55-6.52s22.6,7.62,34.59-2.04Z"/>
    <path d="M571.03,536.11c.02.15,1,.03,1.15,1.13.49,3.7.37,8.41.61,12.2,2.5-2.2,8.44-10.38,11.64-10.41.83,0,1.05.25,1.44.91l-5.71,18.28c3.34,3.22,5.9,5.51,7.09,10.27-1.53,2.46-6.41-6.23-7.87-7.57-5.71-5.24-12.52-5.56-19.77-3.95-2.59.58-5.62,3.82-7.85,1.34l9.85-4.59c-3.22-5.04-5.29-10.67-8.67-15.65-2.21-3.24-5.02-5.75-7.1-9,3.98-3.22,13.32,13.77,15.13,16.41l1.3-.32c-.33-3.17,3.21-19.6,6.91-19.24,2.41.23,1.52,7.94,1.85,10.18ZM570.16,554.05l-2.62-21.69c-2.42,6.81-3.17,14.05-2.66,21.25l5.29.44ZM574.14,555.32l4.24.7,2.95-11.84c-1.84,1.18-8.66,9.25-7.18,11.13Z"/>
    <path d="M525.95,671.87c.64.85.38,6.12.11,7.23-4.67,19.7-26.19,31.62-43.83,38.46-4.08,1.58-27.21,9.41-29.76,7.38-.22-1.12.25-1.36,1.14-1.81,3.01-1.51,11.14-2.64,15.13-3.93,22.68-7.35,54.07-20.23,54.73-48.15.24-.27,2.18.45,2.47.82Z"/>
    <path d="M514.93,476.49c17.58.87,34.79,1.77,52.06-2.18,3.54-.81,8.46-1.67,11.52-3.6,2.06-1.3,6.12-5.82,5.43-8.2-.11-.39-5.07-5.89-3.92-7.05,8.05.95,9.29,10.26,3.86,15.36-10.01,9.41-52.92,11.95-65.53,7.83-1.21-.4-2.94-.8-3.42-2.16Z"/>
    <path d="M372.26,742.04c-2.46,2.92-8.44,3.05-12.14,3.3-16.63,1.13-39.68-.08-55.36-5.83-1.58-.58-14.78-6.27-12.7-8.66,24.2,13.92,53.21,12.23,80.2,11.18Z"/>
    <path d="M374.23,791.99c-5.2,7.37-20.15,7.26-28.41,6.39s-16.34-5.58-24.52-6.37c-8.3-.8-15.37.97-23.32,2.61,6.8-6.93,20.67-6.2,29.61-4.29,6.43,1.38,12.5,4.93,19.38,5.6,9.74.95,18.18-.88,27.27-3.93Z"/>
    <path d="M194.08,703.25c2.24,15.66,28.4,22.94,41.84,24.24,6.67.64,14.61-.76,20.98.06.98.13,2.03.12,2.28,1.33-17.11,3.86-50.8-.56-62.79-14.45-1.91-2.21-6.93-9.98-2.3-11.18Z"/>
    <path d="M129.45,717.5c-3.2,2.84-12.88,4.98-17.23,5.46-17.76,1.94-35.19-5.34-52.25,2.64-2.73-2.64,11.82-6.33,12.89-6.5,10.84-1.67,22.09,2.22,32.79,1.89,7.97-.25,17.27-3.01,24.35-6.54,1.5.64.16,2.42-.55,3.05Z"/>
    <path d="M214.21,680.67c-.07.2-.91.27-1.03.71v1.69c3.53,5.34,4.62,9.76,10.72,13.07.97.53,13.91,4.5,12.27,5.8-19.33,1.73-38.01-22.74-15.12-33.85,1.47.72-3.96,5.11-4.5,6.02-1.11,1.84-1.65,4.51-2.33,6.56Z"/>
    <path d="M559.92,626.72c10.73,14.44-3.34,31.59-17.38,36.43,2.8-4.52,7.92-6.94,11.51-11.16.99-1.17,6.71-9.6,6.87-10.35,1.51-7.28-3.24-13.61-7.85-18.9,2.2-2.58,5.65,2.35,6.86,3.97Z"/>
    <path d="M572.12,493.58c1.07,1.24-2.06,4.51-2.95,5.26-6.88,5.77-20.01,6.82-28.38,4.71-.72-.18-10.31-3.55-5.15-4.07,13.36,3.7,25.19,2.15,36.48-5.89Z"/>
    <path d="M449.84,464c.3,1.53-.15,1.05-.84,1.47-6.89,4.19-34.27-1.25-32.55-12.17.24-1.56.92-1.79,2.17-2.43,1.75,1.33.52,3.53,1.3,5.25,1.62,3.52,14.7,7.88,18.42,7.88h11.51Z"/>
    <path d="M555.03,704.57c-5.19,13.12-22.05,20.37-35.5,21.03-.35-1.88.5-1.07,1.44-1.48,5.39-2.39,12.5-3.18,17.84-6.52l16.22-13.03Z"/>
    <path d="M552.4,802.51c-1.88,4.56-9.94,4.17-14.04,3.85-4.38-.34-8.83-2.27-13.22-2.56-5.04-.33-8.7.97-13.5,1.33,11.5-8.58,27.5,2.21,40.76-2.62Z"/>
    <path d="M180.29,675.65v1.97c-5.52-.82-10.82,3-16.13,3.29-4.31.23-7.93-1.93-11.86-1.98-1.32-.02-7.56,1.91-7.5.34,5.32-6.12,12.75-.89,18.72-.94,5.04-.04,10.93-4.33,16.78-2.67Z"/>
    <path d="M315.06,89.34c1.47,1.7-8.24,4.57-9.78,5.66-6.01,4.29-8.92,13.72-9.95,20.77l-3.65.57c-5.3-9.88-16.24-15.15-27.24-11.24-.64-3.04,3.97-3.72,6.25-3.93,9.29-.83,15.84,3.52,22.01,9.84,2.12-10.05,10.44-23.48,22.36-21.69Z"/>
    <path d="M69.84,637.52c8.79-6.53,22.55-5.98,29.58,2.96,12.31,15.64-22.5,16.83-31.37,12.96-1.77-.77-1.96-2.56-4.46-2.83-2.93-.32-8.99,1.82-12.51,2.02-8.03.44-21.71.55-29.1-2.43-12.34-4.96-1.08-17.56,6.1-21.88,14.14-8.52,34.15-6.56,41.77,9.2ZM64.33,634.48c-6.36-7.24-16.38-9.3-25.53-7.27-12.76,2.82-31.21,19.99-7.42,22.13,4.58.41,28.37.52,30.89-1.95,2.04-6.11,7.81-6.35,2.05-12.91ZM97.72,645.15c-7.16-13.06-25.61-11.36-30.89,1.9-.04,5.99,14.26,5.89,18.47,5.61,5.01-.33,9.77-1.62,13.47-5.09.74-1.87-.86-2.09-1.05-2.42Z"/>
    <path d="M17.67,549.66c.97,1.11,5.21,8.71,3.17,9.64-1.74.34-1.24-.04-1.82-.82-1.38-1.87-5.55-8.26-5.67-10.1-.23-2.47,3.93.84,4.32,1.28Z"/>
    <path d="M25.45,546.83c1.29.06.91,12.97-1.3,12.47-2.07-.47-1.11-12.58,1.3-12.47Z"/>
    <path d="M34.98,548.79c.43.42-2.77,11.04-3.12,11.64-.42.71.04,1.14-1.47.84-.84-1.45.57-13.57,4.59-12.48Z"/>
    <path d="M307.67,322.2c21.61-2.47,13.84,19.61-3.3,16.76-11.31-1.88-8.68-15.39,3.3-16.76Z"/>
    <path d="M335.11,314.13c1.37-.28,6.02-4.21,6.29-5.56.72-3.68-3.74-12.15-3.97-17.79-.1-2.47-.04-14.86,3.95-10.38,1.15,3.49-1.24,4.78-1.38,5.75-.88,5.71,4.48,14.36,4.6,20.52.14,7.11-4.92,10.19-11.46,10.73-2.73.23-10.18.2-10.84-3.27,3.76-.52,9.32.71,12.82,0Z"/>
    <path d="M305.5,277.03c3.08,4.56-.22,12.4-5.38,14.63-8.82,1.61-2.19-25.85,5.38-14.63Z"/>
    <path d="M364.2,284.72c2.72,3.12.77,12.7-3.27,14.46-8.38,3.66-6.91-13.77-1.33-15.85,1.11-.32,4,.69,4.6,1.38Z"/>
    <path d="M312.02,252.75c-6.53-3.8-11.56-5.44-19.13-1.85-1.79.85-7.19,6.86-8.73,5.39,2.42-9.94,16.76-12.69,25.22-9.11,5.6,2.37,7.6,8.46,2.64,5.57Z"/>
    <path d="M375.99,263.73c-4.7-6.44-11.98-5.41-18.85-4.16-.66-3,1.9-3.99,4.43-4.44,9.13-1.63,19.2,4.08,19.83,13.88-3.05,3.59-3.91-3.24-5.41-5.29Z"/>
    <path d="M308.26,270.33c-4.08-2.67-9.92-3.02-14.18-.51-2.25,1.33-3.43,6.31-5.94,3.16.94-8.78,15.27-11.08,20.98-6.47,1.87,1.51,3.75,4.74,1.01,6.2-.88-.41-1.31-2.01-1.87-2.38Z"/>
    <path d="M357.4,278.27c-.22.09-.12,1.14-1.23,1.09-5.68-.25.63-6.26,5.34-6.59,5.21-.36,12.73,4.12,12.66,10.04-2.53,3.25-3.71-1.83-5.5-3.54-4.02-3.86-6.83-2.92-11.27-1Z"/>
    <path d="M338.07,681.57c-8.5,6.68-27.18,4.17-37,.5-.9-.34-9.9-4.27-8.36-5.76,14.63,6.21,29.64,7.24,45.36,5.26Z"/>
    <path d="M378.17,698.66c.26,1.53-.95,1.75-1.98,2.29-10.1,5.25-29.86,4.06-40.75,1.65l.97-1.31c14.42,1.78,27.67-.09,41.76-2.62Z"/>
    <path d="M447.01,682.03c-.69.78-10.02,5.16-11.65,5.77-5.48,2.04-15.19,4.7-20.92,4.78-2.93.04-4.27-1.12-.89-2.25s7.33-1.09,10.55-1.96c8.21-2.21,15.91-5.57,23.44-9.43.83.6-.03,2.52-.53,3.09Z"/>
    <path d="M482.71,648.7c1.56,1.49-8.69,6.07-9.62,6.48-3.46,1.51-32.26,10.5-33.1,5.68,15.06-1.57,28.82-6.59,42.73-12.15Z"/>
    <path d="M374.89,681.55l38.11-5.58c-10.58,7.26-25.9,9.48-38.11,5.58Z"/>
    <path d="M499.8,660.53c2.37,2.48-12.57,9.38-14.02,9.97-6.16,2.48-12.77,4.32-19.5,4.48l33.52-14.45Z"/>
    <path d="M300.59,696.67c-10.35,1.62-25.45-2.29-31.55-11.16.72-.71,10.13,4.91,11.85,5.57,5.62,2.13,11.64,2.87,17.4,4.29.92.23,2.05,0,2.3,1.3Z"/>
    <path d="M410.11,560.89c-.07-.17-.89-.22-1.01-.74-.93-4.02.13-8.15,4.13-9.91,2.54-.05,5.78,4.22,7.76,5.38,2.49,1.45,12.16,5.12,13.07,5.99,2.86,2.75-1.36,6.3-3.94,7.23-8.13,2.93-16.6.07-20.01-7.95Z"/>
    <path d="M426.17,548.13c-5.25-.98-3.14-8.75.02-10.83,7.18-4.72,16.69,4.24,12.14,5.57-2.53-.13-2.12-2.12-4.78-3.11-9.13-3.38-6.32,7.65-7.38,8.37Z"/>
    <path d="M476.8,553.39c-.99-5.09-2.94-10.31-7.27-13.44-.52-.38-7.57-2.69-5.24-3.99,7.43-2.42,14.68,7.94,14.53,14.49-.03,1.5-.04,3.1-2.02,2.94Z"/>
    <path d="M452.91,546.27c8.35-3.28,16.31,13.99,11.71,15-1.06.23-3.24-7.33-5.26-9.19-2.61-2.4-10.07-2.52-6.45-5.81Z"/>
    <path d="M435.57,515.71c-1.89-1.52-2.1-3.58-5.95-4.22-3.17-.53-9.2,2.15-8.71-2.13,4.48-1.14,8.92-2.07,13.3.17,4.78,2.45,4.72,8.88,1.36,6.18Z"/>
    <path d="M413.46,519.32c4.62-1.67,15.81,3.51,13.71,9.76-.93,1.65-3.95-3.51-5-4.23-.87-.59-13.33-3.86-8.71-5.53Z"/>
    <path d="M364.14,406.37c.67,1.25,2.15,9.03,1.54,9.64l-2.99-.62c-.24-4.64-2.21-8.51-4.88-12.2.26-3.42,5.99,2.54,6.33,3.18Z"/>
    <path d="M372.91,403.53c.35.34-1.63,4.64-1.81,5.74-.46,2.85.99,8.8-2.78,8.05-1.68-1.33-.29-14.82,4.59-13.8Z"/>
    <path d="M375.09,411.61c.37-.51,5.48-5.03,5.7-2.5-1.77,1.54-3.46,9.58-5.56,9.56-3.04-.03-1.13-5.68-.14-7.06Z"/>
    <path d="M313.42,523.81c-2.59-.4-5.99-3.23-8.88-3.29l1-1.33c6.43,1.1,12.76,2.79,19.07,3.31.64.36-.59,1.32-.67,1.32-3.08,0-7.72.44-10.52,0Z"/>
    <path d="M364.13,155.97c8.04,8.96,11.86,29.34,6.94,40.31-1.18,2.64-3.33,3.96-4.26,5.63-1.07,1.93-.9,5.22-2.66,7.51-4.03,5.26-14.68,7.55-18.74,1.09-2.21-3.52-1.28-6.81-2.42-9.41-.54-1.24-3.48-2.52-4.62-3.93-2.72-3.37-2.58-8.09-2.3-12.21.86-12.55,10.62-28.41,22.72-33.16.57.03,4.77,3.54,5.33,4.17ZM363.29,161.42c-1.2-1.71-2.68-5.86-5.01-5.61-1.04.11-6.36,4.16-7.4,5.16-7.08,6.76-17.43,27.35-8.52,35.51l5.25-8.55c4.62-2.83,8.19-4.49,13.05-1.2,3.67,2.48,4.96,6.47,6.34,10.41,5.69-9.45,3.22-25.23-2.07-34.42-.38-.67-1.34-.88-1.63-1.29ZM354.37,188.08c-11.4,1.06-11.94,29.27,3.02,22.13,9.63-4.59,5.92-22.96-3.02-22.13Z"/>
    <path d="M389.35,502.78c2.47,2.49-9.38,6.31-10.9,6.51-3.71.47-12.95-.37-10.47-5.18,7,5.28,14.28,1.04,21.37-1.33Z"/>
    <path d="M542.64,204.27c.19.3,7.53,2.03,1.38,3.22-6.83,1.33-3.82-10.02-2.45-10.36,2.62-.63.14,5.65,1.07,7.13Z"/>
    <path d="M539.26,210.94c4.01,1.64,8.52-1.16,11.82.98.1,1.85-13.69,5.37-11.82-.98Z"/>
    <path d="M539.91,189.24c-4.48-.74-7.17.72-11.17,1.97.19-5.33,9.52-7.1,11.17-1.97Z"/>
    <path d="M551.58,186.74c1.58-.31,7.1.88,6.73,2.83-.48,2.58-15.23-1.14-6.73-2.83Z"/>
    <path d="M537.16,194.62c2.24,5.98-5.81,7.23-4.46.9.67-3.14,2.4-1.93,4.46-.9Z"/>
    <path d="M474.82,191.87c-1.46.06-2.8-.75-4.27-.71-1.32.03-5.11,1.77-4.94-.28.21-3.71,10.64-4.33,9.21.99Z"/>
    <path d="M459.04,199.11c-1.83,4.09,3.72,6.59.24,8.43l-3.11-1.13c-1.35-2.9-.45-6.36,2.87-7.29Z"/>
    <path d="M453.79,214.22c-1.86-2.8,11.12-2.52,11.16-.98-1.07,2.47-10.61,1.81-11.16.98Z"/>
    <path d="M453.59,189.44c.43.44,1.19,2.12.85,2.43-3.46-1.22-5.28-.09-8.54.66-.57-4.12,5-5.81,7.69-3.09Z"/>
    <path d="M450.19,195.17c2.74-.43,2.97,6.32-.65,5.24-1.9-.57-.97-4.99.65-5.24Z"/>
    <path d="M570.16,554.05l-5.29-.44c-.51-7.2.25-14.43,2.66-21.25l2.62,21.69Z" fill="#fff"/>
    <path d="M574.14,555.32c-1.48-1.88,5.34-9.95,7.18-11.13l-2.95,11.84-4.24-.7Z" fill="#fff"/>
    <path d="M64.33,634.48c5.77,6.56,0,6.8-2.05,12.91-2.53,2.46-26.31,2.36-30.89,1.95-23.79-2.14-5.35-19.31,7.42-22.13,9.15-2.03,19.17.04,25.53,7.27Z" fill="#fff"/>
    <path d="M97.72,645.15c.18.34,1.79.55,1.05,2.42-3.7,3.47-8.46,4.77-13.47,5.09-4.21.27-18.51.38-18.47-5.61,5.28-13.27,23.73-14.97,30.89-1.9Z" fill="#fff"/>
    <path d="M363.29,161.42c.28.41,1.24.62,1.63,1.29,5.3,9.2,7.76,24.97,2.07,34.42-1.38-3.94-2.68-7.93-6.34-10.41-4.86-3.29-8.44-1.62-13.05,1.2l-5.25,8.55c-8.91-8.16,1.44-28.75,8.52-35.51,1.04-.99,6.36-5.05,7.4-5.16,2.33-.25,3.81,3.9,5.01,5.61Z" fill="#fff"/>
    <path d="M354.37,188.08c8.94-.83,12.65,17.54,3.02,22.13-14.96,7.14-14.42-21.07-3.02-22.13Z" fill="#fff"/>
  </g>
  <path d="M465.81,195.17c2.74-.43,2.97,6.32-.65,5.24-1.9-.57-.97-4.99.65-5.24Z"/>
  <path d="M553.18,194.84c2.24,5.98-5.81,7.23-4.46.9.67-3.14,2.4-1.93,4.46-.9Z"/>
</svg>