<?xml version="1.0" encoding="UTF-8"?>
<svg id="Camada_1" xmlns="http://www.w3.org/2000/svg" version="1.1" viewBox="0 0 595.28 841.89">
  <!-- Generator: Adobe Illustrator 29.0.0, SVG Export Plug-In . SVG Version: 2.1.0 Build 186)  -->
  <path d="M.14,841.29V-.06h595v841.34H.14ZM590.54,3.89H4.08v179.44c13.96-6.37,27.9-11.76,43.63-10.43,26.18,2.2,46.25,23.28,66.64,37.29,4.04-1.59,8-4.75,12-6.83,21.29-11.05,33.71-10.54,55.88-2.6,2.96,1.06,18.13,8.22,19.42,8.17.72-.02,4.71-2.53,5.3-3.21,1.61-1.87,2.94-6.46,4.87-8.94,5.36-6.9,15.26-14.33,23.01-18.4,17.3-9.11,38.78-11.59,58.12-10.28,5.42-4.09,9.93-14.52,17.82-13.02,3.28.63,10.86,14.14,12.36,17.56,12.94,5.53,26.51,12.21,35.96,22.87,1.87,2.11,10.71,14.18,11.53,16.08,1.25,2.92,3.99,13.19,3.58,16.07-.2,1.42-1.9,2.96-.94,4.32,19.04-8.1,41.27-24.79,63.04-18.35,3.44,1.02,6.12,3.52,9.6,3.88.76-6.4,1.48-12.78,2.96-19.07,13.89-59.18,98.69-64.62,118.04-7.58,4.83,14.22,7.78,30.97,9.74,46.13,1.49,11.5,2.06,23.13,3.48,34.65.53,1.89,4.82-.41,6.31-.74,1.36-.29,2.75-.16,4.12-.16V96.57c-5.8.13-11.64-.16-17.45-.03-37.75.86-75.95,1.36-113.69,0-5.42-.19-11.39.71-16.51-.59-1.76-2.48,3.4-10.54,5.28-12.56,5.36-5.75,16.47-7.68,23.96-5.94,2.57-8.21,7.19-16.28,15.4-19.79s17.92-4.38,24.11,2.75c5.89-20.27,28.92-33.9,49.83-26.47,6.24,2.22,15.44,9.07,18.43,15.09,1.05,2.12,1.03,4.31,2.41,6.1l8.23-3.91V3.89ZM590.54,55.16c-2.8.18-8.9,6.96-10.72,6.51-2.1-.52-1.95-6.41-2.9-9-3.35-9.13-15.58-16.22-24.92-17.15-13.48-1.34-30.27,8.69-34.75,21.62-.95,2.75-1.21,12.9-5.6,10.19-4.35-9.07-13.53-10.08-22.16-6.39-5.49,2.35-11.21,9.64-13.17,15.1-.62,1.73-.6,5.71-2.14,6.43-9.88-4.27-24.17-.68-26.97,10.81h143.33v-38.12ZM559.9,185.05c-18.62-33.28-59.93-40.49-89.33-16.16-2.58,2.14-8.82,7.68-9.56,10.82-.4,1.7.53.64,1.14.48,7.36-1.82,13.98-3.71,21.64-4.67,4.05-.5,10.27-.07,13.73-.73,1.91-.37,1.56-2.55,3.24-2.63,2.86-.13,2.13,2.74,3.4,3.2,1.43.51,4.62-.1,6.49.09,13.63,1.38,28.24,4.06,41.08,8.88,2.54.95,6.62,3.94,8.89,4.27,3.05.44-.61-3.35-.72-3.55ZM317.29,170.6c-1.8-2.93-4.88-9.57-7.17-11.57-.61-.53-.89-.97-1.83-.59-5.73,3.52-9.06,9.3-12.94,14.53-4.76,6.41-9.44,13.32-13.71,19.97-1.13,1.77-3.89,8.42-5.36,9.13l-40.43,2.3-28.77,4.76c-2.49.98-3.52,6.75-4.49,9.18-.19.46-1.02.57-1.2,1.04-.36.92-1.84,5.52-1.37,6.05,13.06-2.36,26.49-4.22,39.78-5.25,36.36-2.81,79.09-2.85,114.85,4.13,5.24,1.02,10.38,2.82,15.64,3.75,1.06-1.14-3.85-15.03-4.59-17.42-3.4-.48-6.53-1.85-9.85-2.64-6.67-1.61-14.91-2.08-21.24-3.74-.82-.22-1.55-.52-2.1-1.19-4.36-10.57-8.22-21.43-13.97-31.35-.41-.71-1.11-.86-1.25-1.08ZM290.07,171.5c-29.1-1.01-60.97,6.39-77.57,32.2l22.69-3.27,39.33-2.09,15.04-24.4.51-2.44ZM4.08,187.6v68.69c9.21-3.79,18.67-1.8,27.16,2.75,2.02,1.08,3.41,3.31,5.7,3.17.54-2.63,1.35-5.96,2.45-8.38,11.58-25.53,34.28-36.7,62.23-34.26,14.57,1.27,31.43,12.01,38.01,25.1,1.38,2.75,4.35,9.69,5.08,12.14,1.36,4.52,1.79,9.94,2.7,14.6,5.53-2.16,11.36,3,13.46,7.86,5.44-3.57,11.32-3.49,16.76.02,3.05-6.65,4.56-14.38,7.05-21.55,4.19-12.04,9.99-21.37,11.51-33.81.44-3.59,2.63-7.87,3.82-11.33-13.63-6.02-31.82-15.19-47.02-14.15-8.51.58-20.22,5.02-27.74,9.08-1.4.76-8.31,4.57-8.08,5.65l25.54,16.89-.93,2.56c-33.26-14.13-65.08-60.41-104.44-56.45-11.05,1.11-23.51,6.34-33.28,11.42ZM360.42,205.02c-.34-6.61-31.5-28.88-34.18-26.28,3.43,6.84,6.57,13.7,8.52,21.38l25.66,4.9ZM497.83,178.73c-10.64-.08-29.86.96-39.04,6.65-4.4,2.73-6.47,14.37-7.44,19.51-3.25,17.11-4.26,34.11-8.39,50.77-2.83,11.42-8.64,25.32-7.5,37.04.1,1.07,1.6,8,1.9,8.3,1.05,1.02,1.15-.42,1.46-.86,5.9-8.5,12.27-13.63,22.03-17.39,1.96-.75,13.15-3.7,13.35-4.53,1.5-6.05-3.98-6.71-7.19-9.82-4.31-4.17-7.8-14.75-8.95-20.63-1.37-7.01-3.22-21.07-2.35-27.99.16-1.25,1.26-.64,1.42-1.88.31-2.45-.38-15,.64-16.11,3.24-.49,6.86-1.19,9.97-2.19,7.93-2.57,25.55-11.16,29.46-18.53.42-.79.9-1.25.64-2.31ZM549.77,209.62v9.53c0,2.24,3.87-.69,4.89-1.02,5.57-1.79,11.53,2.01,12.81,7.65,2.89,12.76-7.07,26.68-20.92,24.01-1.95,8.16-6.28,15.93-13.12,20.78-.25.87.94,7.93,1.33,8.94.53,1.37,6.79,1.98,8.58,2.6,15.07,5.24,24.78,17.68,27.47,33.34,2.02,1.9,4.24-8.96,4.4-9.72,4.98-23.41-.53-56.41-4.49-79.26-1.83-10.55-3.64-21.18-6.46-31.5-8.35-5.35-17.78-9.05-27.37-11.58-7.55-1.99-24.25-5.69-31.52-4.66-2.29.33.58,4.03,1.37,5.21,3.74,5.57,12.55,11.91,18.55,14.97,10.08,5.14,21.77,7.04,33.02,7.42v1.96s-8.55,1.33-8.55,1.33ZM502.03,184.39c-.73-.67-.72-2.06-2.21-1.71-8.34,12.46-24.6,18.07-38.51,22.31-.85,10.1-1.51,20.46-.98,30.63.59,11.09,3.02,24.11,11.52,31.87,4.91,4.49,5.25,2.16,11.21,1.36.06-4.98,2.78-9.98,8.2-9.92.73-1.95-1.18-1.88-1.32-2.39-.64-2.3,2.72-4.58,4.92-4.85,5.15-.63,10.83-.71,14.05,3.72,2.81,3.87,3.12,3.45,6.01,6.48,2.93,3.08,4.33,8.12,6.9,11.48,11.34-6.41,20.4-15.61,22.73-28.86,3.55.13,6.4,1.98,10.14,1.25.62-.12,5.57-4.21,6.05-4.79,4.29-5.18,6.09-19.65-3.42-19.54-4.51.05-7.05,7.3-10.22,5-2.36-1.71-.29-16.76-1.88-17.84-11.52-1.28-24.84-6.85-33.9-14.09-3.61-2.89-5.93-7-9.28-10.11ZM445.12,222.21c-.18-.3-5.3-3.19-6.01-3.5-21.02-9.18-45.45,8.45-64.11,16.65l8.44,51.83c7.56-7.44,17.43-11.65,26.6-3.94,3.38-6.78,8.46-10.77,16.45-10.58,2.79.07,4.41,1.7,6.94,1.75,1.85-1.31,7.62-27.75,8.33-31.8.98-5.59.77-12.83,2.19-18.08.14-.51,2.19-.63,1.17-2.34ZM234.19,249.72c17.71-.45,36.91-5.08,52.4-13.68,6-3.33,12.04-7.86,16.62-12.94-.62-.95-1.26-.91-2.26-1.02-9.54-1.05-20.08.39-29.59.72-20.52.71-41.41,1.25-61.72,4.68-2.28.39-7.75,1.04-9.3,2.53-1.09,1.05-4.37,9.68-5.26,11.83-12.55,30.65-20.65,64.27-27.9,96.46-4.81,21.32-11.82,49.15-1.03,69.16,1.72.31.6-1.3,1.18-2.44,6.89-13.52,8.13-25.39,21.26-36.89,14.13-12.37,33.56-15.25,51.39-18.62l2.65-10.59c-10.29-9.3-19.69-21.12-20.94-35.3-11.6,3.85-22.99-2.56-26.26-14.17s-1.31-27.91,12.94-30.37c8.54-1.47,12.41,3.17,18.57,7.73l4.97-26.26,1.29-1.35c3.46-.71.47,9.99.97,10.51ZM133.35,241.42c-23.57-30.79-77.99-21.67-90.48,14.87l18.22-9.71c24.25-8.4,49.9-10.6,74.14-.79.77-1.12-1.18-3.44-1.88-4.37ZM226.3,297.04v9.53c0,9.77,12.3,24.42,19.78,30.18,39.47,30.42,103.61,21.64,113.5-32.99,1.59-8.8,2.48-19.81,2.84-28.71.32-8.07-.32-16.22.01-24.29-17-3.64-33.41-10.57-47.05-21.41-1.72-1.36-5.21-6.28-7.18-5.96-18.03,20.55-47.87,28.92-74.57,29.72-.85,3.08-3.48,20.41-6.42,20.88-2.11.34-5.91-7.01-8.12-8.82-6.45-5.26-17.34-1.83-20.07,5.6-3.68,10.04-.39,24.75,9.97,29.48,2.24,1.02,6.08,1.58,8.45.81,3.47-1.13,5.13-4.63,8.87-4ZM375.11,262.68c-1.07-6.23-2.39-28.29-7.18-31.3-1.29-.81-13.46-3.18-16.03-3.69-12.12-2.41-24.46-3.92-36.83-4.25,10.08,9.24,22.83,16.77,36.03,20.83,2.34.72,18.53,3.99,18.53,5.12l-3.31,1.35c.66,6.99.91,13.98.72,21.02-.39,14.48-1.89,30.23-6.43,43.53-5.19,15.19-15.25,26.7-29.31,34.46-2.67,1.47-6.15,2.59-8.99,3.83l11.34,3.44c8.34,3.38,15.96,7.91,22.5,14.14,9.18-7.26,19.43-14.05,31.27-15.92l.54-.77-.52-19.68c-4.2-23.16-8.35-49.01-12.33-72.12ZM143.67,278.47c-1.49-9.09-2.1-18.44-5.43-27.14-20.84-10.88-45.72-10.48-67.9-4.05-7.35,2.13-16.51,5.7-22.81,10.06-1.17.81-7.79,6.27-8.16,7.01-1.21,2.42-2.33,9.75-2.9,12.83-1.76,9.51-2.56,19.14-4.98,28.55s-6.66,18.67-8.82,28.65c-2.43,11.26-4.53,23.73,1.13,34.31,1.7.32,1.01-.24,1.36-.93,3.03-5.94,6.46-12.69,11.77-17.15,4.8-4.04,11.01-6.14,16.36-9.28l2.72-67.94c-.72-.73-6.69,2.78-5.91-1.96,13.39-3.55,26.38-7.96,38.04-15.55,2.49-1.62,10.26-8.58,12.29-8.79s5.8,3.4,7.84,4.61c8.88,5.27,18.39,9.89,28.6,11.83-1.32,2.73-.6,3.82-.63,6.21-.2,16.03,1.39,30.11-5.17,44.84-3.15,7.07-6.31,11.71-12.67,16.26-4.81,3.44-12.14,3.98-3.48,8.19,11.8,5.74,17.07,4.91,25.1,17.63,1.08,1.72,2.62,7.41,4.69,6.08.4-.26,2.9-7.9,3.15-9.02,2.27-10.22-.57-20.49-1.12-30.72-.83-15.18-.76-30.28-3.09-44.53ZM131.54,266.24c-11.08-3.54-21.19-9.04-31.04-15.11-11.93,9.86-25.47,16.88-40.4,21.07-2.06,11.98-1.96,24.24-2.79,36.38,11.91,28.53,58.86,37.12,70.68,3.56,5.29-15.02,3.43-30.23,3.55-45.89ZM4.08,260.56v41.08c7.46-1.78,16.07.29,23.36-.62,1.04-.13,1.21-1.13,2.04-1.56l5.55-31.69c-.24-3.91-10.95-8.32-14.49-9.22-5.78-1.46-11.28-.71-16.47,2ZM499.78,258.95l-5.14,1.66,5.82,25.92-2.03-.39-6.46-23c-9.5-.78-3.84,15.25-2.12,20.5.3.93,1.15.89,1.51,1.82,2.21,5.77-.63,8.39-3.31,2.64-1.3-2.8-3.2-12.65-4.36-14.04s-4.77-1.61-5.47.42c-.52,1.51-.16,6.33.31,8.04.37,1.36,1.34,1.39,1.49,1.9,2.54,8.37,4.74,20.08,9.93,27.23,2.39,3.29,8.04,6.46,9.71,9.54,1.35,2.48,1.38,5.88,2.18,8.22,5.06,14.84,8.02,33.55,18.45,46.09,6.69,8.03,19.39,13.26,29.48,8.64,23.81-10.9,22.94-60.33,13.46-80.5-1.31-2.78-8.34-13.12-11.48-11.56-5.9,6.14-13.43,19.13-13.79,27.74-.16,3.91,8.25,13.52,9.29,18.23,3.03,2.81,6.71,11.04,7.13,15.19.08.82.61,3.34-.98,2.95-8.09-16.21-18.55-30.88-27.32-46.83-.23-.43-1.13-.42-1.27-.96-.78-3.03.99-2.56,1.49-3.64,4.55-9.71,5.13-20.85,3.74-31.39l-6.62,3.71c-.09,4.62,5.26,7.78,3.37,12.43-.62.41-1.58.48-2.26.24-1.15-.4-7.96-19.02-10.03-22.13-1.07-1.61-9.08-9.59-10.75-8.05l7.58,24.99-1.96.61-9.59-26.24ZM150.04,301.65h22.02l4.17-18.97c-4.11-2.28-9.57-3.4-13.67-.39-1.58,1.16-1.76,3.01-3.66,3.42-2.52-1.34-1.14-4.19-2.29-6.61-.79-1.66-6.18-5.22-8.21-5.07l1.64,27.61ZM590.54,274.7c-1.85-.37-8.55.72-9.11,2.39l-1.41,23.9h10.52v-26.29ZM385.41,301.65h47.99c.57-1.75-1.04-1.04-1.29-1.8-2.26-6.79-1.18-14.56.02-21.44-5.68-3.17-13.84-2.11-17.28,3.71-.82,1.39-1.87,6.06-2.88,6.32-3.24-.28-4.91-3.44-7.71-4.66-3.99-1.74-8.15-1.41-11.85.89-.81.5-7.39,7.06-7.55,7.57-.91,2.93.9,6.42.53,9.41ZM479.03,296.15c-1.23-3.37-2.31-10.14-3.66-12.46-.42-.73-.48-1.06-1.47-1.08-2.82-.07-16.79,5.59-19.68,7.31-16.16,9.59-25.51,38.93-26.72,56.76-.16,2.34-.34,10.76.63,12.34,8.09,2.15,15.52,6.3,22.36,10.98-5.27-17.71-5.7-36.91-.46-54.7,1.01-3.42,4.04-12.13,5.94-14.77,1.09-1.52,5.64-3.69,4.77-.18-.34,1.35-2.85,6.26-3.66,8.05-.71,1.57-2.02,2.73-2.96,5.72-5.77,18.34-5.39,37.8.28,56.11,19.4,5.67,40.43,6.69,60.55,5.03.66-2.27-1.39-2.1-1.99-3.11-3.97-6.61-8.88-20.4-11.1-27.65-1.73-5.66-3.02-17.44-5.46-22.02-1.14-2.14-5.57-3.77-7.65-6.15-3.5-4-7.92-15.3-9.7-20.19ZM549.12,288.51l-14.46-4.61c-.03,4.2-.5,9.2-1.5,13.29-.62,2.51-3.7,8.56-3.71,10.04-.01,2.34,3.82,5.52,3.9,8.21,1.75.23,1.02-.1,1.32-.96.58-1.65.6-4.11,1.34-5.77,2.41-5.41,7.19-13.24,11.13-17.95.87-1.05,2.46-.5,1.97-2.27ZM4.08,304.27v74.27c5.7-2,12.26-4.5,17.42-.01.75,0,2.27-5.09,1.95-5.93-.25-.66-2.15-1.88-2.82-3.04-1.98-3.41-4.48-9.23-4.74-13.01-.5-7.35,1.31-14.49,2.96-21.41,2.44-10.19,6.01-20.14,8.9-30.2l-23.67-.67ZM590.54,304.27h-10.19c-3.32,4.64-1.75,11.83-8.23,14.85.57,2.62,1.19,5.81,1.36,8.46.82,13.21-.13,25.69-4.33,37.8-3.17,9.16-6.26,14.32-14.17,20.02-2.31,1.66-4.68,1.03-4.57,4.62.2,6.65,7.51,16.75,7.26,24.03,5.48-.96,8.22,1.94,11.83,5.26.41-3.12.6-7.02,1.38-10.01.92-3.53,3.65-12.2,5.3-15.86,5.9-13.1,10.15-2.44,11.56,6,1.16,6.91,1.19,14.19,1.5,21.18.42.05,1.31-.87,1.31-.99v-89.06c-.48-.17-.79.66-.99.66h-9.86c-.24,0-1.12-.99-.98-1.63.35-1.59,9.7-1.06,11.83-1v-24.32ZM171.73,304.93h-21.7c.17,6.43.25,12.97.67,19.38.76,11.83,3.7,23.3-.64,34.87-.77,2.06-4.34,6.99-4.37,7.85-.08,2.1,2.87,8.64,3.49,11.38,2.74,11.97,5.02,24.98,7.48,36.58.53,2.5,2.33,17.22,3.19,17.83.77.55,2.35.22,3.33.29-.31-6.58,1.18-13.06,2.58-19.44-13.03-16.87-9.15-40.64-5.69-60.25,2.02-11.46,5.53-23.06,8.32-33.88,1.24-4.83,1.79-9.85,3.35-14.6ZM435.38,304.93h-47.99l4.61,49.3c2.14-.6,5.56-.25,7.42-.79,1.3-.38,2.84-3.03,4.61-3.94,7.43-3.84,13.76,1.49,19.52,5.39.24-11.74,2.1-24.82,5.72-36.02,1.63-5.03,4.66-9.07,6.12-13.93ZM56.68,340.43c6-1.28,13.38-2.1,16.47-8.23-5.14-5.46-11.91-8.55-15.49-15.43l-.98,23.66ZM105.89,336.55c-.32-.18-5.54,1.16-6.81,1.23-6.81.41-14.84-1.67-21.04-4.43-3.59,4.22-8.1,7.72-13.46,9.37,8.05,11.1,21.96,21.27,36.43,19.34,1.33-.18,8.46-2.37,9.55-2.95,3.32-1.77,9.04-9.46,9.12-13.23.05-2.48-9.24-4.59-11.38-6.11-1.29-.92-2.23-3.13-2.4-3.22ZM310.46,357.52c-14.67,1.21-28.48.32-42.42-4.59-7.73-2.72-14.71-6.97-21.67-11.2-1.04-.05-1.89,9.33-3.25,10.57-1.66,1.52-7.9,1.94-10.23,1.93-1.71,1.58,11.4,15.94,13.13,17.43,7.69,6.64,19.69,12.21,29.91,12.82,17.35,1.05,33.22-8.82,34.54-26.97ZM63.49,348.08c-1.12-1.15-2.23-4.22-3.79-4.34l-13.52,5.56c5.86,6.43,10.22,12.84,11.08,21.78,1.37,14.3-2.34,29.07-5.78,42.16-.24.9-.98,5.64-.65,6.01,14.32,5.01,31.07,6.7,46.32,6,5.64-.26,29.47-3.13,32.89-6.55,1.41-1.41,1.58-8.11,2.32-10.69,4.25-14.85,4.77-18.92,0-33.91-.49-1.54-3.22-10.1-2.69-10.65,1.04-.02,3.09.04,3.78.82.62.71,2.97,8.49,3.4,10.07,6.34,23.43-2.11,30.96-3.26,51.85-.78,14.23,2.09,17.03,6.12,29.43,1.68,5.17,3.76,11.4,5.02,16.14.92,3.46,1.26,7.16,2.04,10.66,4.27-3.04,2.22-10.94,3.39-14.68.48-1.55,2.59-1.56,3.07,0,.78,2.53-.4,9.01-1.24,11.69-.8,2.54-4.22,7.05-4.38,8.01-.23,1.41.95,5.23,1.45,6.81.94-.68,1.83-1.04,2.61-1.99,9.99-12.21,7.16-36.07,4.96-50.92-2.72-18.4-6.18-42.86-10.83-61.47-2.16-8.64-8.5-23.15-15.45-29.25-1.01-.89-6.31-5.17-7.25-4.25-1.47,9.84-11.59,17.89-21.44,18.99-16.25,1.82-27.48-6.36-38.16-17.25ZM34.33,497.85c-.33-3.46.24-7.34,0-10.85h1.97c.42,4.15,1.21,16.09,3.24,19.28,1.11,1.75,4.09,1.45,5.17-.69,2.97-5.89.37-24.15,1.1-25.18,3.01-4.23,4.44,8.13,4.31,9.87l4.48-.11c2.2-3.57,1.43-6.53.29-10.26-2.62-8.62-10.62-11.17-10.73-22.2-.22-21.44,3.48-43.66,8.54-63.87,2.72-10.85,1.85-25.22-3.58-35.04-2.93-5.3-4.26-9.84-10.13-5.5-15.87,11.75-20.6,62.7-20.5,81.42.05,10.04,2.44,20.7,2.71,30.21s-3.52,18.7-1.85,29.45c.41,2.65,2.33,9.2,5.76,9.03l-.65-17.09,1.92.05c2.06,6.5-.05,14.4,5.03,19.63,1.16,1.19,4.31,3.02,5.52,1.04-1.26-2.62-2.34-6.37-2.61-9.21ZM433.26,370.13c-.11-.18-1.57-.78-2.18-1.41-4.51-4.63-13.43-15.68-19.77-16.41-9.55-1.11-12.92,8.34-9.5,16.08,2.21,4.99,7.4,7.32,12.52,8.18.67-.68-5.53-8.84-.99-9.86,3.5,7.33,8.82,13.44,17.43,13.8-.27-2.72.23-4.97,1.33-7.42.17-.37,2.41-.82,1.16-2.97ZM306.28,377c-5.73,6.11-16.13,10.38-24.39,10.78-23.25,1.11-42.29-12.6-53.33-32.12-5.32,1.02-10.74,1.96-15.9,3.66-4.28,1.4-7.76,3.6-11.99,4.78l.46,1.3c1.35.14,2.4.92,3.43,1.7,25.24,19.23,35.67,44.11,72.71,46.28,27.27,1.59,54.06-18.02,53.63-46.32-.02-1.05-1.11-6.91-1.52-7.41-1.11-1.33-14.86-3.59-15.63-2.79.01,6.83-2.72,15.09-7.46,20.15ZM398.12,371.11c-.87-1.4-1.91-6.4-1.94-8.12-.02-1.33,1.33-4.65.44-5.17-21.53.22-39.88,15.72-51.59,32.61-4.78,6.88-10.32,16.24-11.39,24.76-4.89,38.84,43.8,62.15,76.9,56.5,2.89-.49,14.21-3.98,15.71-6.03,1.02-1.4-1.14-3.79,1.64-4.92,2.99.39,2.73,6.44,5.82,5.91.26-.04,1.4-2.77,3.15-3.48,1.98-.79,3.67-.37,5.66-.58,1.61-9.72,9.95-9.92,17.83-6.49.97-5.51-2.24-10.05-7.71-11.02-2.44-.44-6.73.97-7.41-1.78.7-3.34,12.98-1.44,14.91,1.55l.85-.2c2.41-1.96,3.71-4.83,4.93-7.62,11.57-26.44-1.13-56.37-26.4-69.54-1.57-.82-4.32-2.22-5.95-2.61-.65-.16-1.68-.55-1.49.51l5.29,4.97c.21,2.35-5.08,4.6-3.24,9.75,1.12,1.74,3.24.08,2.52,3-2.85.89-6.38,1-9.35.53-3.19-.5-6.61-3.16-8.84-3.65-3.09-.69-6.42.02-10.05-1.13-3.1-.98-8.63-5.05-10.31-7.76ZM333.47,361.46v14.13c0,6.2-7.33,19.25-11.5,24-23.44,26.73-64.74,19.72-89.76-.98-9.11-7.54-16.2-17.7-25.32-25.3-1.84-1.53-8.2-6.74-10.25-6.27-11.39,7.62-19.24,19.53-23.26,32.55-2.73,8.84-7.68,29.42-6.94,37.83.13,1.51-.08,3.07,1.99,2.91.06-.54.23-1.3.69-1.59,10.97-6.85,33.63-8.83,46.26-6.88,4.41.68,8.39,2.99,12.89,3.21l-2.64-21.24c-2.34-.99-1.03-3.58-1.3-5.71,4.57-.89,4.58,6.24,5.16,9.63,1.69,9.77,2.26,19.69,3.39,29.48.69,6.04,1.53,12.08,2.27,18.11l27.31,11.51c13.78-17.49,33.01-30.17,52.15-41.25,4.92-2.84,10.35-5.68,15.5-7.84-.92-11.37,1.49-20.26,6.07-30.41.83-1.84,3.5-4.97,3.68-6.74s-2.82-9.67-1.78-10.75c4.01-.21,3.3,1.92,4.3,4.59.21.55.2,1.87,1.28,1.32.65-.33,5.39-7.2,6.56-8.56s2.94-1.75,3.59-3.61c-6.07-5.11-12.4-10.31-20.34-12.15ZM545.76,389.12c-5,1.05-9.64.12-14.38-1.71-5.78-2.23-9.55-5.63-14.16-9.52-20.45,3.41-41.15.1-61.46-2.62l5.53,5.31c1.98,3.54,4.98,7.02,6.95,10.27,1.21,2,.59,4.58,3.66,5.41,5.17,1.4,17.3,2.41,22.95,2.69,7.65.39,16.72.07,24.35-.69,8.83-.88,18.61-2.57,26.66-6.23l-.1-2.91ZM4.08,383.48v42.4c3.41-1.66,7.02,0,10.52,0,.11-2.06-.17-4.18,0-6.24.8-9.41,2.46-18.5,4.12-27.43.45-2.43,2.87-9.37,1.85-10.74-3.03-4.07-13.5-1.89-16.5,2.01ZM590.54,570.81v-144.93l-1.75,3.32c-1.37.85-2.11.22-2.72-1.16l-2.15-29.94c-1.97-1.23-1.67-4.23-2.6-6.4-3.16,3.59-4.56,10.37-5.6,15.09-1.58,7.15-2.65,15.06-2.94,22.37-4.98.85-3.87-2.58-5.33-5.52s-4.65-7.08-8.49-5.98c.2.81.38,1.66.74,2.42,1.86,3.93,3.45,11.33,4.35,16.16,1.79,9.6,2.94,19.98,3.47,29.73,3.38-3.33,9.71-18.14,14.85-18.42,3.27-.18,4.5,5.1,4.8,7.64,1.74,14.6-.68,34.83-6.38,48.03-1.49,3.46-4.52,10.75-8.18,12.2-2.4.95-5.29-.49-6.11,2.44l-4.9,45.37c.99-.15,1.46-2.24,1.8-3.12,3.59-9.14,10.24-29.08,16.7-35.89s5.33,7.47,5.16,11.07c-.47,9.72-2.62,20.82-4.02,30.82-.88,6.28-2.11,12.57-3.2,18.81,1.23,1.02,3.34-3.97,4.05-4.82,1.16-1.4,8.22-8.52,8.45-9.3ZM548.91,397.15c-2-2.9-8.08.94-10.84,1.58-14.63,3.39-32.83,4.39-47.83,3.51-5.38-.32-12.3-2.4-17.36-2.4-.78,0-.87.07-1.33.75,3.57,13.03,2.24,27.55-2.61,40.04,4.15,3.01,4.98,8.25,4.59,13.21-.38,4.87-3.53,10.05-3.96,13.85-.34,3.01,1.03,7.84.64,11.76-1.15,11.74-14.55,28.41-24.39,34.77-3.62,2.34-8.31,3.66-12.1,5.65-1.05,1.74.19,6.53-.33,8.76-1.73,7.33-1.48,13.25-1.96,21.15-.5,8.18-1.73,16.38-1.24,24.59l24.91,6.63c-1.56-3.79-3.22-7.63-4.61-11.48-.96-2.65-6.22-15.55-3.98-17.15,3.38-.98,8.13,2.92,10.88,4.98,10.92,8.18,19.96,19.78,28.6,30.23-1.99-8.54-3.65-17.31-5.97-25.77-1.4-5.1-4.05-11.29-5.53-16.95-1.94-7.43-5.57-19.49-6.19-26.72-.23-2.69.46-4.56,3.43-4.09,19.24,21.59,31.09,48.69,39.59,76.15.91,2.95.94,7.24,2.91,9.05l2.02,6.72c1.42-5.63,1.55-11.45,1.09-17.2-.65-8.11-2.86-16.17-4.32-23.39-1.62-7.99-2.81-16.08-4.64-24.03-6.43-1.89-9.48-6.3-12.62-11.83-5.15-9.06-9.57-19.49-11.54-29.87-.62-3.26-2.86-16.77-.57-18.62,3.4-2.06,3.89.93,5.29,2.04,9.69,7.66,21.6,31.35,25.28,43.25.78,2.52,1.38,9.73-.13,11.77-.58.78-2.26.6-2.38,2.44-.05.83.9,5.57,1.21,6.66,2.55,9.01,5.16,18.6,6.55,28.31.1.67-.37,8.31,1.39,6.17,1.03-6.21,2.26-12.5,4.01-18.54.14-.49,1.04-.54,1.19-1.04,3.71-12.59,3.97-17.42,2.69-30.69-.72-7.43-2.68-14.74-2.65-22.2-2.22-2.42-4.84-2.83-7.19-5.42-10.19-11.26-12.22-48.06-7.72-62.24,2.95-9.27,7.34-6.08,10.87.59,7.45,14.05,13.41,41.04,11.24,57.01-.53,3.92-4.17,6.95-4.39,8.02-.45,2.26,2.59,16.65,3.04,20.39.51,4.2.85,8.49.75,12.73l11.18-17.4c1.57-.71,3.76-.73,3.93,1.3-3.63,47.18-9.06,94.24-8.54,141.65l8.48-52.94c9.85-23.26,7.93-50.65,13.19-74.36.62-2.81,2.77-21.72,2.61-24.17-.11-1.72-3.8-7.87-3.97-9.19-.19-1.43-.22-7.92.07-9.12.12-.5,1.17-.41,1.29-.9,1.44-6.29,4.18-20.16,3.95-26.16-.63-16.4-4.96-36.15-9.25-51.88-1.85-6.78-4.35-13.31-6.73-19.9ZM129.65,423.25c-18.25,5.23-37.9,6.5-56.86,4.59-4.1-.41-9.62-1.25-13.63-2.15-3.13-.7-5.81-2.75-9.06-2.45l-1.34,16.66c.18.76,13.11,3.86,15.01,4.19,17.09,2.96,42.82,3.26,59.31-2.12,2.02-.66,3.99-1.25,5.78-2.43l.8-16.29ZM4.08,429.16v408.18h586.45v-165.31c-1.38-1.06-5.57-1.57-7.49-1.58-7.51-.01-16.11,3.36-23.75,3.27s-15.7-4.04-22.35-4.05c-5.24-.01-11.22,2.27-16.45,2.68-10.64.82-21.53-3.14-32.21-3.92-4.46-.33-9.23.19-13.73.03-2.05-11.86-14.29-12.28-24.07-10.56-.13-4.64,8.81-4.31,12.1-3.89,2.45.31,5.01,2.25,7.61,1.59-4.4-6.87-7.56-14.53-12.33-21.22-7.69-10.79-16.23-18.71-26.13-27.1-3.83-3.24-7.41-6.76-11.73-9.37-.44-.91-.47-1.32.15-2.16,2.47-3.32,17.7-1.56,21.44.98,1.97-.14,1.41-12.66,2.33-14.71-3.42-1.49-15.94-3.8-17-7.42l2.41-53.71c-.42-1.72-5.6-.87-7.41-1.11s-5.14-2.01-5.85-1.83c-1.04.26-13.37,12.44-15.92,14.39l-21.37,13.47-.66,1.33c2.03,14.26,4.68,28.45,6.57,42.73,3.42,25.74,5.12,50.91,5.93,77.55.43,14.23,1.55,29.11.68,43.42-.1,1.65-.48,6.52-.82,7.73-1.16,4.1-19.22,8.72-23.64,9.89s-9.06,1.6-13.32,2.98c-.99.67-.06,5.4-.4,6.85-.1.42-2.16.47-1.26,3.92.04.15,1.59,2.39,1.72,2.47,2.63,1.51,8.76,2.5,11.85,3.8,8.43,3.56,25.64,12.95,28.79,21.83,2,5.65,1.42,11.79-2.95,16.08-16.38,16.07-76.1,3.94-94.03-9.17-.26-.95-3.2-3.85-3.25-4.1-.23-1.05-.24-6.64,0-7.63,1.3-5.38,3.46-12.21,3.92-18.54.2-2.72-.12-5.49.01-8.21-20.89.98-41.88.78-62.79,0-1.02-.04-1.94-.62-2.96-.66v9.86c12.75,5.98,36.56,19.23,34.84,35.83-1.91,18.47-32.23,18.26-45.68,16.75-11.56-1.3-43.06-9.85-49.93-19.09-4.76-6.4-2.72-13.29-1.48-20.45,1.85-10.7,5.06-21.21,6.31-32.03-6.92-2.41-14.79-4.42-21.14-8.13-2.34-1.37-3.94-2.59-4.41-5.46.58-24.7,2.06-49.3,3.89-73.9-12.88,11.86-37.09,6.21-51.41-.85-1.84-.91-8.36-4.22-8.9-5.56-2.63-6.5.86-16.31.49-23.17-7.7,1.19-15.31.48-23.02,0,.6,1.72-.82,5.4-.35,6.56.31.76,11.12,7.78,13.21,9.84,7.59,7.47,9.52,16.28-2,21.08-12.74,5.31-39.33-.49-49.96-9.23-.53-.44-3.99-3.83-4.11-4.09-.39-.94-.41-7.41-.23-8.75.15-1.15,1.17-.92,1.31-1.46,1.74-6.69,2.66-13.54,2.65-20.49-3.98-.52-8.82-1.94-12.45-3.65-2.43-1.14-5.58-2.33-5.95-5.22-.59-4.59.36-14.65.7-19.74.78-11.78,2.49-23.96,3.94-35.5s3.15-22.85,5.3-34.11c-11.99-6.14-10.31-26.51-7.39-37.63.48-1.84,2.07-2.01,1.48-6.53-.15-1.16-1.2-.88-1.32-1.44-2.14-10.3-2.25-20.77-2-31.27-.41-1.75-8.84-.91-10.55-1.1ZM384.09,533.67h-11.51c-2.23,0-7.57-1.76-10.04-2.45-17.53-4.96-32.1-15.42-40.58-31.67l-10.85,4.54c7.15,4.51,25.25,11.72,23.63,21.99-.42,2.67-2.7,3.33-3.12,4.77-.68,2.34.46,4.97-1.81,7.39-1.76,1.87-6.29,2.56-7.53,3.64-1.01.88-.39,4.11-4.37,6.8-14.17,9.56-38.42-3.03-50.49-11.74-1.52-1.1-2.77-3.31-4.47-4.08-5.56-2.48-14.94-2.52-20.86-5.1-.86,15.7,13.61,27.84,26.96,33.18,34.18,13.68,76.55-1.06,107.08-17.82,13.91-7.64,26.34-16.99,37.55-28.18-.53-1.09-1.92.33-2.3.33h-18.41c-20.55,0-50.76-24.31-57.06-43.52-4.49-13.7-1.6-20.38-2.46-32.98-.13-1.97-1.83-4.78-1.98-6.96-1.22-.88-13.84,6.16-15.96,7.34-11.86,6.58-25.79,15.61-35.96,24.52-2.04,1.79-13.38,12.91-13.76,14.52-.2.87.46,1.12,1.03,1.5,2.3,1.53,17.35,8.33,19.7,8.61,4.21.51,15.11-3.5,20.33-3.92,3.9-.31,7.66.27,11.49.64.61-2.02-.99-1.66-1.42-2.87-3.76-10.82-2.76-25.72-.58-36.8l2.65-.42c-.63,9.71-1.25,19.49.1,29.16.44,3.2,1.56,9.57,2.7,12.41.73,1.81,3.13,2.62,3.64,4.91,1.15,5.18-2.13,4.93,2.22,11.61,10.91,16.77,30.13,25.7,49.61,28.59,2.35.35,6.73-1.08,6.82,2.05ZM305.38,501.64c2.59-2.79,17.29-2.35,16.27-9.67-.49-3.53-9.44-3.74-12.17-3.64-6.83.26-14.04,3.26-20.46,3.91-5.51.56-31.74-13.35-38.59-16.53-4.12-1.91-17.74-5.95-18.83-10.1l-2.79-24.81c-.68-2.37-12.17-5.19-14.85-5.53-7.26-.92-18.72-.59-25.94.65-2.52.43-13.78,3.24-14.68,5.08,1.02,9.41,1.54,19.07,3.17,28.41,1.3,7.43,4.59,17.79,8.49,24.37,8.64,14.58,33.62,23.25,49.31,28.26,9.06,2.89,23.71,4.77,31.43,8.02,2.34.98,7.92,6.48,11.23,8.49,9.33,5.67,26.87,13.31,37.23,7.75l4.13-3.42c-5.52-1.43-11.15-2.63-16.35-5.02-1.12-.52-12.83-6.84-10.6-8.79,5-.72,8.48,3.5,12.69,5.38,6.02,2.69,21.58,7.98,23.38-1.64-.55-2.22-5.76-2.26-7.66-2.9-4.16-1.42-15.25-5.99-18.14-8.81-1.78-1.74-1.42-3.2,1.09-3.11,5.87,2.79,21.32,12.95,27.38,8.74,4.65-3.22-5.58-10.14-8.3-12-5.07-3.46-11.44-6.25-16.65-9.66-1.05-.78-.59-2.6.19-3.44ZM163.09,437.14l-2.53-.75c-.93,1.26,1.8,18.23,1.96,21.37.56,11.05-.5,31.14-9.69,38.46-.91.72-3.36,1.26-3.49,1.71,1.55,28.72,4.87,58.58,3.35,87.36-.17,3.29-.67,10.11-1.37,13.09-1.21,5.21-13.51,5.98-16.68,8.3-1.94,1.42-.86,6.12-.93,8.38,8.76,3.15,17.21,6.65,21.92,15.22,1.57.28.82-.72.95-1.66,5.27-37.91,8.21-67.81,23.23-103.01,2.94-6.89,5.42-13.95,9.02-20.56-2.15-3.5-4.93-6.47-7.11-9.97-4.14-6.64-6.22-13.26-7.8-21.12-1.8-8.91-2.71-18.21-3.63-27.27-.84-2.48-3.92-1.31-5.6-2.62-2.28-1.78-1.13-6.45-1.59-6.95ZM525.05,461.79c-1.19-4.11-2.36-8.97-3.88-12.9-.34-.88-4.01-10.04-5.58-8.55-.86,2.14-.8,5.54-1.35,7.42-3.79,12.9-1.26,29.76,2.46,43.06,1.32,4.71,4.77,15.01,11.22,12.18,2.47-1.08,2.24-11.7,2.15-14.38-.3-9.47-2.57-18.33-5.03-26.82ZM130.94,442.99c-17.08,6.1-37.43,7.04-55.52,5.89-8.12-.52-15.48-2.8-23.22-4.39-.88-.18-3.3-1.04-3.77-.24-.02,5.03-2.17,13.28-.82,17.97.54,1.89,4.5,5.18,5.66,6.8,3.82,5.33,8.49,15.59,4.99,21.88-2.68,4.83-7.63,2.64-8.54,3.95-.15,3.09-1.4,14.14-4.23,15.49-.49.23-9.79,1.11-10.85,1.02-2.58-.22-4.91-2.17-6.92-3.66l-1.21.76c-3.5,23.31-5.81,46.72-7.34,70.23-.22,3.36-2.32,16.55-.66,18.42,2.16,2.42,17.63,6.48,21.57,7.36,18.97,4.2,40.89,5.16,60.32,4.16,16.12-.83,32.85-3.17,47.32-10.53,1.64-13.61,1.95-27.4,1.66-41.12-.62-29.22-3.86-85.35-17.3-110.24-.57-1.05-.78-2.59-1.16-3.75ZM468.1,461.86c.22-.29,1.96-6.04,2.06-6.79.87-6.34-.8-15.5-7.75-7.74.64,2.02,1.76,4.33,1.75,6.49-.03,3.99-2.78,5.21,2.1,8.56.49.22,1.59-.18,1.84-.51ZM337.4,444.94c-1.18-1.03-1.09.28-1.32.95-1.14,3.2-.36,9.56.1,13.09.8,6.05,2.5,12.33,5.62,17.51,18.16,4.85,37.42,5.6,55.44-.34-15.44-.76-30.22-5.67-43.05-14.14-1.05.58.21,1.49.57,2.05,3.01,4.67,6.95,8.3,11.26,11.74l-.34,1.99c-.99.84-6.55-3.64-7.55-4.61-7.45-7.22-11.88-16.91-19.03-25-.76-.86-1.56-3.14-1.7-3.26ZM582.64,451.51c-1.1-1.31-5.88,6.37-6.33,7.14-6.95,11.99-14.1,31.73-12.73,45.76.5,5.06,3.75,12.05,9.12,6.5,5.44-5.63,8.67-22.45,9.86-30.24.37-2.39,1.32-5.48,1.45-6.45.43-3.3.43-14.54,0-17.83-.11-.84-2.55-2.24-1.37-4.88ZM456.01,499.08c8.23-9.68,15.04-24.11,6.01-35.76-4.65-6-16.02-10.28-14.69,1.53,3.44,2.71,14.19,13.28,12.98,17.79-.15.57-.94,1.23-1.61,1.1-3.96-2.92-5.2-8.32-8.87-12.18-2.71-2.85-11.95-10.61-13.12-2.58-.87,5.99,6.2,8.94,9.07,13.17,1.14,1.69,6.38,12.12,2.4,12.11-2.47-.52-2.18-3.89-3.18-5.71-1.75-3.17-6.96-10.6-9.95-12.71-5.57-3.93-9.73,2.81-8.11,7.45.3.86,5.57,4.44,6.69,5.87,1.71,2.17,4.44,8.57,3.76,11.22-.18.68-1.17.58-1.7.93-2.41-2.82-3.51-6.77-5.68-9.92-4.97-7.2-12.03-4.47-9.15,5.18.31,1.04,1.17,1.02,1.3,1.48,1.24,4.17,2.04,7.9,4.01,11.96-5.59-2.47-11.12,5.71-3.62,6.59,14.75,1.73,24.68-7.16,33.47-17.51ZM423.45,483.63c-.45-5.98,1.21-10.09,6.67-12.74l-2.3-2.91c-4.81,4.17-12.29,6.45-18.4,8.53-21,7.12-42.24,9.93-64.11,4.6,13.14,21.01,41.39,34.12,66.08,31.55,6.2-.65,4.38-3.63,8.91-6.3-2.43-7.19-7.79-20.75,3.16-22.71ZM502.02,508.47c-4.24-8.43-7.95-17.55-15.7-23.43-1.62-.36-1.03,2.06-.97,2.94.93,12.49,10.45,40.9,20.7,48.32,5.37,3.89,5.25-2.66,4.63-6.6-1.19-7.53-5.47-14.86-8.67-21.22ZM238.07,526.51c-15.4-5.36-31.43-9.94-45.08-19.07-2.27-.19-6.64,10.5-7.56,12.65-18.07,42-23.38,85.97-27.49,131.58-.87,9.67.13,20.84-2.69,29.53l-1.15,35.1c19.42,10.58,42.72,15.47,64.65,17.85,39.15,4.25,82.74,3.17,121.56-3.35,11.94-2.01,30.36-5.49,41.33-9.95,4.32-1.75,6.15-1.98,6.43-6.72,1.11-18.82-1.05-38.4-.64-57.26-4.67-32.31-3.78-68.34-12.49-100.04-.64-2.33-.93-5.59-1.37-8.04-24.6,12.52-52.42,22.64-80.56,21.06-24.87-1.4-54.14-15.07-54.94-43.34ZM479.01,529.49c-.52-.73-6.26-9.7-6.81-8.96,2.05,9.28,3.96,18.81,6.46,28.02,3.6,13.3,8.61,28.31,12.54,41.52,6.52,21.96,14.1,42.82,17.73,65.62.37,2.33.62,12.68,2.47,13.3l4.85.09c-2.76-15.85-.16-32.5-1.33-48.3-.27-3.71-2.56-11.77-3.58-16.15-6.14-26.56-16.65-53.05-32.33-75.14ZM537.07,618.28c.9-2,1.74-31.63,2.19-36.95,1.51-17.65,4.07-35.24,5.25-52.92-3.4,2.99-5.08,8.19-7.04,12.31-11.35,23.81-18.21,58.49-19.27,85.27-.2,4.94-.09,40.7,1.96,42.14,1.89,1.07,14.07-1.09,14.52-2.15.13-1.5.56-2.93.67-4.44.72-9.7-1.36-36.41,1.73-43.25ZM571.89,603.14c2.87-17.93,6.25-36.73,8.04-54.77.59-6,.99-11.95.74-17.99-1.02.16-1.24,1.23-1.63,1.98-12.54,24.19-21.29,52.77-27.09,79.4-3.58,16.42-7.77,36.08-8.74,53.06-.05.81-.45,2.48.41,2.97,2.96.21,16.24,3.44,17.7,1.33l9.51-65.31c.12-.48,1.03-.51,1.06-.67ZM490.22,603.08c-8.11-16.35-20.38-30.87-34.79-41.8-1.49-1.13-2.88-2.9-4.61-3.94-.51-.1-.39.6-.33.99.47,3.1,3.56,10.27,4.88,13.55,8.04,19.98,17.45,40.39,24.89,60.56,3.65,9.9,6.88,20.03,9.74,30.2,1.37.68,1.17,2.41,2.35,3.04.83.44,14.13,2.59,14.68,2.09-1.3-8.37-2.19-16.85-3.99-25.13-2.68-12.28-7.12-28.05-12.82-39.54ZM561.28,564.56v.66c.43-.22.43-.44,0-.66ZM590.54,643.77v-67.37l-8.71,10.66c-8.76,10.56-6.06,26.24-9.73,38.16-.49,1.58-.83,1.66-1.36,4.67-2.29,13.19-4.89,26.51-5.84,39.84l17.67-2.09c2.45-5.71,4.11-12.48,5.81-18.8.43-1.59,1.95-3.86,2.16-5.07ZM466.93,610.57c.44-.49-3.71-11.01-4.29-12.47-.91-2.3-4.04-10.54-5.27-11.82-1.82-1.9-6.95-2.25-9.5-3.32l-1.03,15.11,11.1,6.04,8.99,6.45ZM479.03,639.91c-1.89-5.12-4.91-15.62-7.61-19.69-5.21-7.85-24.02-18.82-33.07-21.49-2.05-.6-11.87-3.27-12.84-.96,5.79,4.25,11.51,8.56,16.79,13.45,11.86,10.96,24.39,27.6,30.86,42.76,1.59,3.73,2.24,7.93,4.26,11.52,1.8.34,9.39,1.03,9.82-.73-2.48-7.8-4.3-15.99-7.06-23.69-.33-.92-1.12-1.05-1.15-1.15ZM69.17,611.89l-32.9-4.34c-1.79,2.8-.89,6.26-1.36,9.19-.69,4.32-3.76,14.48-2.21,18.14.32.76,5.4,5.2,6.26,5.58,3.28,1.48,2.95-1.33,4.29-2.9,8.53-10.03,25.94-9.67,37.76-7.28-3.25-4.29-8.77-5.86-12.83-9.2l.99-9.19ZM143.46,623.07l-13.87-5.53c-1.85-2.25,1.88-7.23-.89-9.44-9.42,2.68-19.14,3.28-28.87,3.88l-.99.98c-.56,1.82.94,3.75-1.39,4.63l-.68,13.69c.56,2.9,12.8,8.51,16.03,9.44,4.96-7.14,11.83-11.9,20-14.84l10.66-2.81ZM150.04,640.81c4.88-2.41,2.59-11.73-1.79-13.01-8.87-2.6-27.29,5.86-31.75,14.32l11.18,1.97c.66-.5-4.76-6.3-1.64-5.92,3.95.48,4.02,5.84,5.04,6.47s4.98-.19,6.47.11c.14-1.81-.48-3.44-1.2-5.05-.46-1.04-4.48-5.62-1.75-5.49,3.96.19,5.81,6.55,6.23,9.89,7.38.19,7.13-4.05,3.96-9.38-.18-.3-4.77-4.07-.34-4.47,2.73-.25,6.13,7.84,5.58,10.56ZM86.53,639.26c-.99-1.25-1.89-2.76-3.22-3.71-8.02-5.73-35.15-4.31-39.12,7.22l11.83,3.29c.49-.45-3.66-6.1.86-4.61,1.25.41,2.36,5.18,3.05,5.63.98.64,5.05.33,6.6.95.28-.29-1.3-6.22-1.76-7.05s-4.92-3.82-1.79-4.74c4.35-1.28,6.81,8.65,6.88,11.76l7.1-.72c.43-2.53.15-4.69-1.03-6.96-.39-.74-4.27-3.78-2.18-5.12,3.77-2.4,7.5,8.04,6.59,10.86,3.68.12,4.66-2.52,6.18-5.02.22-.36,1.6.01,1.03-1.54-.32,0-.85-.02-1.04-.25ZM590.54,667.76v-12.49l-3.92,11.51c.91,1.36,2.53.99,3.92.98ZM228.93,750.58l-.61-12.2c-16-2.02-32.13-3.72-47.67-8.15l-2.31,3.74-5.84,35.22c.51,1.66,12.97,9.4,14.61,9.06,7.32-16.35,24.32-26.07,41.82-27.66ZM348.59,732.18l-46.68,5.91-2.98,27.6c1.2,2.43,26.06,12.21,27.28,11.14,4.07-13.25,17.48-24.24,30.94-26.92-1.1-2.69-7.42-1.45-8.62-3.06l.07-14.68ZM372.92,755.85c-8.03-3.28-8.89-4.87-17.59-2.15-11.05,3.44-23.47,13.26-25.8,25.13l13.09,3.25c2.5-9.84,10.28-16.96,19.1-21.34,3.42-1.7,6.84-2.33,10.24-3.57.83-.3,1.2.46.96-1.32ZM247.99,761.11c-3.8-1.71-9.42-7.59-13.55-7.87-9.15-.62-25.81,5.86-33.08,11.52-4.79,3.73-7.21,8.34-9.98,13.55-.4.75-1.89.57-1.19,2.45l13.06,5.29c5.22-15.69,25.26-23.67,40.58-24.9,1.35-.11,3.9,1.31,4.16-.04ZM386.2,778.04c1.56,2.19,5.89-1.84,5.68-3.95-.56-5.52-10.3-14.55-15.92-14.27-6.05.3-19.23,7.42-23.57,11.8-2.92,2.94-5.63,7.75-6.43,11.83l18.41,1.32c.6-.64-2.12-5.74-2.74-6.8-.54-.92-5.01-5.14-.88-5.06,3.08.06,7.74,8.72,6.9,11.86l8.54-1.34c.87-2.23-1.05-2.54-1.25-3.12-.57-1.64-.56-3.15-1.45-4.99-1.41-2.92-4.39-3.9-4.52-6.98,6.19-.14,10.08,8.25,10.52,13.8l2.9-.71c2.3-1.64-.14-6.36-1.25-8.5-.7-1.36-5.5-6.61-2.63-7.22,2.23-.48,6.17,7.02,6.93,8.84.44,1.05.4,3,.76,3.5ZM259.43,772.02c-3.24-3.91-5-6.23-10.52-6.91-13.82-1.7-37.5,7.54-42.31,21.9.51,2.36,16.4,3.42,19.04,4.31,1.33-1.47-8.83-10.61-3.61-10.54,2.98.04,7.79,8.08,7.62,11.13.52.45,8.41-.41,9.17-.89,1.21-.76-.53-6.3-1.14-7.4-.29-.52-7.54-7.08-5.13-7.42,6.84-.15,10,8.69,10.19,14.47,8.07-.5,12.28-3,6.59-10.69-1.05-1.41-4.05-1.72-3.29-4.73.29-1.13,1.09-.69,1.82-.6,5.91.72,6.64,12.01,7.7,12.06,9.24-4.84,10.81-6.33,3.87-14.69ZM390.66,781.48c-29.55,14.43-64.14,1.2-92.03-11.18-3.23,4.49,12.37,10.41,15.14,11.48,18.82,7.31,56.52,14.84,74.07,3.11,1.16-.78,2.95-1.76,2.83-3.41ZM262.46,787.4c-3.98,1.07-7.34,3.59-11.31,4.79-10.01,3.03-21.28,2.92-31.52,1.37-16.86-2.56-33.47-10.16-47.24-19.97-.27,7.18,10.39,12.42,16.18,15.04,17.2,7.75,51.97,15.36,68.58,4.31.73-.48,6.05-4.92,5.3-5.54Z"/>
  <rect x=".14" y="841.29" width="595" height=".66" fill="#fff"/>
  <path d="M590.54,3.89v47.33l-8.23,3.91c-1.38-1.78-1.36-3.98-2.41-6.1-3-6.02-12.19-12.88-18.43-15.09-20.91-7.43-43.94,6.21-49.83,26.47-6.19-7.12-16.1-6.17-24.11-2.75s-12.83,11.59-15.4,19.79c-7.48-1.74-18.59.18-23.96,5.94-1.88,2.01-7.04,10.08-5.28,12.56,5.12,1.29,11.09.39,16.51.59,37.74,1.36,75.94.86,113.69,0,5.81-.13,11.65.15,17.45.03v174.18c-1.37,0-2.76-.14-4.12.16-1.49.32-5.78,2.63-6.31.74-1.42-11.52-1.99-23.15-3.48-34.65-1.96-15.16-4.92-31.91-9.74-46.13-19.36-57.05-104.15-51.6-118.04,7.58-1.48,6.29-2.2,12.67-2.96,19.07-3.48-.36-6.16-2.86-9.6-3.88-21.77-6.45-43.99,10.24-63.04,18.35-.96-1.36.74-2.9.94-4.32.41-2.89-2.32-13.15-3.58-16.07-.82-1.9-9.66-13.97-11.53-16.08-9.45-10.67-23.02-17.34-35.96-22.87-1.5-3.42-9.08-16.93-12.36-17.56-7.89-1.51-12.4,8.93-17.82,13.02-19.34-1.3-40.81,1.18-58.12,10.28-7.74,4.08-17.65,11.51-23.01,18.4-1.93,2.48-3.26,7.07-4.87,8.94-.59.69-4.58,3.19-5.3,3.21-1.29.04-16.46-7.11-19.42-8.17-22.17-7.94-34.59-8.45-55.88,2.6-4,2.07-7.96,5.24-12,6.83-20.39-14.02-40.47-35.09-66.64-37.29-15.74-1.33-29.68,4.06-43.63,10.43V3.89h586.45ZM132.54,68.06c-7.92-9.65-15.97-10.67-26.87-4.35-.88-.19-1.6-4.45-2.2-5.71-2.35-4.94-8.02-10.85-12.92-13.38-20.83-10.76-46.37,5.83-45.71,28.94-7.42-.82-14.7-1.79-21.47,1.86-4.9,2.64-9.39,6.94-10.44,12.56-1.85,9.87,8.18,11.95,15.81,12.51,30.7,2.26,67.5-.04,98.58-.68,8.96-.18,20.98,1.1,29.44-.15,12.55-1.86,9.06-15.5.43-20.46-6.85-3.94-12.86-3.43-20.28-1.74-.21-4.66-1.77-6.25-4.37-9.43ZM254.58,112.34c-.77-17.13-19.08-20.17-32.76-15.98-7.12,2.18-12.08,10.72-13.24,17.68-9.4-3.06-21.8,0-22.41,11.42-7.32-1.65-22.22,3.34-20.08,12.55,1.01,4.35,6.3,3.85,9.9,4.59,36.07-1.67,74,2.13,109.85,0,4.53-.27,10.78-.3,12.36-5.4,2.81-9.08-10.44-13.92-17.32-11.72.85-14.91-15.19-17.99-26.3-13.14ZM427.5,129.43c.69-8.82-24.48-15.75-26.28-10.16-1.12,3.48,6.41,1.45,8.78,1.69,4.16.42,10.33,3.56,12.79,6.92,1.53,2.09,1.39,8.14,4.37,8.15,2.05,0,2.56-3.45,3.93-4.64,2.5-2.17,10.49-4.16,13.84-3.96s5.57,2.37,8.46,1.42l.28-2.59c-6.13-3.07-15.46-2.83-21.58.22-1.97.98-2.76,2.79-4.59,2.96Z" fill="#fff"/>
  <path d="M4.08,429.16c1.71.19,10.14-.65,10.55,1.1-.26,10.5-.14,20.97,2,31.27.12.56,1.16.28,1.32,1.44.59,4.52-.99,4.69-1.48,6.53-2.92,11.12-4.59,31.49,7.39,37.63-2.15,11.26-3.87,22.71-5.3,34.11s-3.16,23.71-3.94,35.5c-.34,5.09-1.29,15.15-.7,19.74.37,2.89,3.53,4.08,5.95,5.22,3.63,1.71,8.47,3.13,12.45,3.65,0,6.95-.92,13.8-2.65,20.49-.14.53-1.16.31-1.31,1.46-.17,1.34-.16,7.81.23,8.75.11.27,3.57,3.66,4.11,4.09,10.63,8.74,37.22,14.54,49.96,9.23,11.52-4.8,9.59-13.61,2-21.08-2.09-2.06-12.9-9.08-13.21-9.84-.48-1.16.95-4.84.35-6.56,7.71.48,15.31,1.19,23.02,0,.37,6.86-3.13,16.67-.49,23.17.54,1.34,7.06,4.65,8.9,5.56,14.32,7.06,38.53,12.71,51.41.85-1.84,24.6-3.31,49.2-3.89,73.9.47,2.87,2.06,4.09,4.41,5.46,6.35,3.71,14.22,5.71,21.14,8.13-1.25,10.82-4.46,21.33-6.31,32.03-1.24,7.16-3.28,14.05,1.48,20.45,6.87,9.25,38.37,17.79,49.93,19.09,13.45,1.51,43.77,1.72,45.68-16.75,1.71-16.6-22.1-29.85-34.84-35.83v-9.86c1.01.04,1.94.62,2.96.66,20.91.78,41.9.97,62.79,0-.13,2.72.18,5.49-.01,8.21-.46,6.33-2.62,13.16-3.92,18.54-.24.99-.23,6.58,0,7.63.06.26,2.99,3.15,3.25,4.1,17.93,13.11,77.65,25.24,94.03,9.17,4.37-4.29,4.95-10.43,2.95-16.08-3.15-8.89-20.35-18.28-28.79-21.83-3.09-1.3-9.22-2.29-11.85-3.8-.13-.07-1.68-2.32-1.72-2.47-.9-3.45,1.16-3.5,1.26-3.92.34-1.46-.59-6.18.4-6.85,4.26-1.38,9.05-1.85,13.32-2.98s22.48-5.79,23.64-9.89c.34-1.21.72-6.07.82-7.73.87-14.3-.25-29.19-.68-43.42-.81-26.64-2.51-51.81-5.93-77.55-1.9-14.28-4.54-28.47-6.57-42.73l.66-1.33,21.37-13.47c2.55-1.95,14.88-14.13,15.92-14.39.72-.18,4.13,1.59,5.85,1.83s6.99-.61,7.41,1.11l-2.41,53.71c1.06,3.62,13.58,5.93,17,7.42-.92,2.05-.37,14.57-2.33,14.71-3.74-2.54-18.98-4.31-21.44-.98-.62.84-.59,1.24-.15,2.16,4.32,2.61,7.9,6.13,11.73,9.37,9.9,8.38,18.44,16.31,26.13,27.1,4.76,6.68,7.92,14.35,12.33,21.22-2.6.66-5.16-1.28-7.61-1.59-3.3-.42-12.24-.76-12.1,3.89,9.78-1.71,22.02-1.3,24.07,10.56,4.49.16,9.27-.36,13.73-.03,10.68.78,21.57,4.75,32.21,3.92,5.22-.4,11.21-2.69,16.45-2.68,6.65.01,15.1,3.97,22.35,4.05,7.64.09,16.23-3.28,23.75-3.27,1.92,0,6.11.51,7.49,1.58v165.31H4.08v-408.18ZM410.1,571.51c.72-1.32,6.14-7.66,3.24-8.26-4.18-.86-11.49,16.18-7.21,17.09,2.09.44,2.29-6.2,2.84-7.63.35-.9,1-.97,1.13-1.19ZM401.85,579.68l1.99-.3c1.39-.99-1.1-8.4-1.81-10.08-.84-1.99-3.06-6.07-5.74-5.39-3.15.8,2.66,6.48,3.11,7.39,1.18,2.41,1.66,5.78,2.45,8.38ZM421.95,640.55c.66-1.34,2.5-3.17.96-4.7-5-3.38-8.1,13.38-5.85,14.72.6.35,1.76,0,2.53.1-.01-2.61.23-6.03,1.09-8.47.48-1.37,1.15-1.42,1.26-1.66ZM414.33,650.67c.54-4.17-.94-8.55-4.38-11.07-1.79-1.31-5.56-3.29-5.2.56,3.43,2.64,7.14,5.54,7.55,10.12l2.03.39ZM435.37,638.19c-5.63-.99-10.92,5.94-11.16,10.92-.11,2.3,1.8,3.27,3.14,1.1,1.13-1.83,1.3-4.1,3.08-6.13,2.12-2.41,5.62-2.31,4.95-5.89ZM42.21,664.48c-3.78-.88-5.94,4.08-7.08,7.05-2.03,5.25-2.59,9.74-1.46,15.3l2.03-.39c.77-6.56.44-10.96,3.87-16.87.71-1.23,3.58-2,2.64-5.09ZM28.68,674.73c-2.26-4.31-4.94-9.87-10.79-8.94.59,2.16,3.07,3.14,4.58,4.94,2.21,2.64,3.81,6.36,4.82,9.65.88,2.88-.32,6.71,3.74,5.78.76-3.64.22-7.27-1.35-10.66-.23-.5-.91-.6-.99-.77ZM87.28,685.14c5.62,8.34,24.94,7.02,33.6,4.41,15.97-4.81,1.53-20.06-8.65-21.12-7.6-.79-15.2-.07-20.7,5.58-1.99,2.05-5.93,7.66-5.24,10.37.13.52.84.53.99.75ZM55.36,671.05c-6.29-1.48-12.94,6.2-13.52,11.81-.27,2.57.84,3.95,2.48,1.14,1.91-3.26,2.67-7,6.49-9.29,1.76-1.06,5.18-.55,4.55-3.66ZM83.63,717.06c-6.26-.65-10.75,8.21-11.2,13.45-.13,1.54-.45,7.84,1.07,8.2,3.39.81,2.49-7.25,2.94-9.45.23-1.1,1.25-3.82,1.8-4.77,1.6-2.79,5.3-4.14,5.39-7.43ZM63.48,726.05c.4.58,1.35.6,2.1,2.16.99,2.06.98,9.49,3.92,8.56,2.79-.88-.89-9.73-1.75-11.38-1.66-3.16-7.72-10.66-10.74-6.36,3.35,1.92,4.49,4.12,6.48,7.02ZM445.01,731.74c-3.63-5.1-11.6-7.68-17.69-6.63-9.91,1.71-22.8,17.12-5.9,19.39,7.8,1.05,33.51,1.17,23.6-12.76ZM92.18,725.61c-4.39-.52-10.82,4.11-11.68,8.37-.31,1.5-.25,5.18,1.85,3.81,1.29-1.6,1.3-3.66,2.59-5.3,2.21-2.81,7.35-3.29,7.25-6.88ZM525.89,750.79c-10.69-15.83-34.09-18.16-48.76-6.78-2.38,1.85-9.05,9.44-9.98,12.01-1.25,3.45,1.43,6.34,4.17,8.25,9.07,6.3,28.92,5.53,39.66,4.72-3.41,7.17,5.03,9.7,10.49,10.87,6.89,1.48,31.55,1.78,35.85-4.32,2.38-3.38.53-6.72-1.48-9.67-6.36-9.3-17.8-11.54-28.42-9.38-.02-1.88-.48-4.15-1.54-5.71ZM87.35,775.78c-10.95-14.35-29.71-16-43.59-4.59-3.65,4.72-8.11,6.02-6.77,13.21,1.14,6.13,17.48,7.99,22.61,8.28,10.22.58,40.74.13,27.75-16.9ZM143.46,776.88c-5.28.03-8.15,7.69-9.92,11.96-.19.45-1,.48-1.19,1.04-.96,2.83-1.42,8.67,3.1,6.58-.29-8.29,5.76-12.66,8.01-19.58ZM129.65,797.25c1.27-7.03-4.83-16.4-11.22-18.69-2.13-.76-2.91-.78-2.95,1.62,3.83,3.24,8.09,5.48,10.07,10.32,1.01,2.47.67,7.26,4.09,6.75ZM456.83,793.73c.76-1.69,4.36-9.33-.65-6.25-2.89,1.77-7.83,16.66-4.69,17.65,2.78.88,2.69-6.47,3.6-8.91.65-1.73,1.61-2.2,1.74-2.5ZM444.18,792.43c-1.43-1.09-1.82-3.11-4.85-2.41l.1,1.54c3.89,3.65,5.63,8.41,8.12,12.9,3.02-.05-.01-9.62-1.62-11.37-.51-.55-1.32-.35-1.74-.67ZM465.39,792.07c-2.35.2-6.11,5.97-7.12,8.02-.71,1.46-2.13,3.05-.21,4.38,2.36.68,3.5-4.28,4.64-5.87.53-.74,7.5-6.95,2.69-6.54Z" fill="#fff"/>
  <path d="M238.07,526.51c.8,28.27,30.07,41.94,54.94,43.34,28.14,1.58,55.96-8.54,80.56-21.06.45,2.46.73,5.71,1.37,8.04,8.71,31.69,7.82,67.73,12.49,100.04-.41,18.86,1.74,38.43.64,57.26-.28,4.74-2.11,4.96-6.43,6.72-10.97,4.46-29.4,7.94-41.33,9.95-38.81,6.52-82.4,7.61-121.56,3.35-21.94-2.38-45.23-7.27-64.65-17.85l1.15-35.1c2.81-8.69,1.81-19.86,2.69-29.53,4.12-45.61,9.42-89.58,27.49-131.58.92-2.14,5.29-12.84,7.56-12.65,13.65,9.13,29.68,13.71,45.08,19.07ZM337.41,600.72l-1.98.44c-3.97,11.07-10.44,22.15-17.08,31.91-19.55,28.72-49.3,51.32-81.35,64.78-1.15.48-5.91,1.15-2.82,3.14,1.82,1.16,24.02-10.28,27.31-12.17,28.32-16.28,56.14-43.48,70.56-72.74.98-1.98,6.36-14.37,5.35-15.35Z" fill="#fff"/>
  <path d="M130.94,442.99c.39,1.16.6,2.71,1.16,3.75,13.44,24.89,16.68,81.02,17.3,110.24.29,13.72-.02,27.51-1.66,41.12-14.47,7.36-31.2,9.71-47.32,10.53-19.43,1-41.35.04-60.32-4.16-3.94-.87-19.41-4.93-21.57-7.36-1.67-1.87.44-15.06.66-18.42,1.52-23.51,3.83-46.91,7.34-70.23l1.21-.76c2.01,1.49,4.34,3.44,6.92,3.66,1.05.09,10.35-.78,10.85-1.02,2.83-1.35,4.08-12.4,4.23-15.49.91-1.31,5.85.87,8.54-3.95,3.5-6.29-1.17-16.55-4.99-21.88-1.16-1.62-5.11-4.91-5.66-6.8-1.35-4.69.8-12.94.82-17.97.47-.8,2.88.06,3.77.24,7.74,1.59,15.1,3.87,23.22,4.39,18.09,1.16,38.44.21,55.52-5.89Z" fill="#fff"/>
  <path d="M548.91,397.15c2.38,6.59,4.88,13.12,6.73,19.9,4.29,15.73,8.61,35.49,9.25,51.88.23,6-2.51,19.88-3.95,26.16-.11.5-1.17.41-1.29.9-.29,1.2-.25,7.69-.07,9.12.17,1.32,3.86,7.47,3.97,9.19.15,2.44-1.99,21.36-2.61,24.17-5.26,23.71-3.34,51.1-13.19,74.36l-8.48,52.94c-.52-47.4,4.9-94.47,8.54-141.65-.17-2.03-2.36-2.01-3.93-1.3l-11.18,17.4c.1-4.24-.24-8.53-.75-12.73-.45-3.74-3.49-18.13-3.04-20.39.21-1.06,3.85-4.09,4.39-8.02,2.17-15.96-3.79-42.95-11.24-57.01-3.53-6.67-7.92-9.86-10.87-.59-4.51,14.18-2.47,50.98,7.72,62.24,2.35,2.59,4.96,3,7.19,5.42-.02,7.47,1.94,14.77,2.65,22.2,1.28,13.27,1.01,18.11-2.69,30.69-.15.5-1.04.55-1.19,1.04-1.75,6.04-2.98,12.34-4.01,18.54-1.76,2.15-1.3-5.5-1.39-6.17-1.39-9.71-4-19.3-6.55-28.31-.31-1.09-1.26-5.83-1.21-6.66.12-1.84,1.8-1.66,2.38-2.44,1.51-2.04.91-9.24.13-11.77-3.68-11.89-15.58-35.58-25.28-43.25-1.4-1.11-1.89-4.11-5.29-2.04-2.29,1.85-.05,15.36.57,18.62,1.97,10.38,6.39,20.81,11.54,29.87,3.14,5.53,6.19,9.94,12.62,11.83,1.83,7.95,3.02,16.05,4.64,24.03,1.46,7.23,3.67,15.28,4.32,23.39.46,5.75.33,11.57-1.09,17.2l-2.02-6.72c-1.97-1.81-1.99-6.1-2.91-9.05-8.5-27.46-20.35-54.57-39.59-76.15-2.96-.47-3.66,1.4-3.43,4.09.62,7.23,4.25,19.29,6.19,26.72,1.48,5.66,4.14,11.85,5.53,16.95,2.32,8.46,3.98,17.23,5.97,25.77-8.64-10.45-17.68-22.05-28.6-30.23-2.75-2.06-7.5-5.96-10.88-4.98-2.24,1.6,3.02,14.5,3.98,17.15,1.4,3.86,3.05,7.7,4.61,11.48l-24.91-6.63c-.5-8.21.74-16.41,1.24-24.59.48-7.9.23-13.82,1.96-21.15.53-2.23-.71-7.02.33-8.76,3.8-1.99,8.48-3.31,12.1-5.65,9.85-6.37,23.24-23.03,24.39-34.77.39-3.92-.98-8.75-.64-11.76.43-3.8,3.57-8.97,3.96-13.85.39-4.97-.44-10.21-4.59-13.21,4.85-12.48,6.18-27.01,2.61-40.04.46-.67.55-.75,1.33-.75,5.06,0,11.99,2.08,17.36,2.4,15,.88,33.2-.12,47.83-3.51,2.75-.64,8.84-4.48,10.84-1.58Z" fill="#fff"/>
  <path d="M226.3,297.04c-3.75-.63-5.4,2.87-8.87,4-2.37.77-6.21.21-8.45-.81-10.35-4.73-13.65-19.44-9.97-29.48,2.72-7.43,13.62-10.86,20.07-5.6,2.21,1.81,6.01,9.16,8.12,8.82,2.95-.47,5.58-17.8,6.42-20.88,26.7-.8,56.54-9.17,74.57-29.72,1.98-.32,5.47,4.6,7.18,5.96,13.64,10.85,30.05,17.77,47.05,21.41-.34,8.08.31,16.22-.01,24.29-.35,8.9-1.25,19.92-2.84,28.71-9.89,54.63-74.03,63.42-113.5,32.99-7.48-5.76-19.78-20.41-19.78-30.18v-9.53ZM255.89,261.55c4.79.05,8.08-3.98,12.5-5.58,6.75-2.43,11.79-1.67,18.62-.41,2.57-1.56.35-4.4-1.72-5.34-7.17-3.22-20.42.82-26.44,5.41-2.02,1.54-3.49,3.19-2.96,5.91ZM328.22,254.96c4.46,2.33,8.72.24,13.84,1.62,4.04,1.09,9.81,7.34,12.1,6.97,3.32-.52.97-4.51-.62-5.96-5.51-5-15.15-7.33-22.38-5.92-.53.1-3.58,2.51-2.93,3.29ZM257.21,277.33c-1.78,2.9,4.1,8.02,6.4,8.45,2.89.54,4.46-2.27,6.81-3.45,4.19-2.11,9.15-2.29,13.03.65.89.67,4.07,5.6,5.26,1.82,1.03-3.25-3.05-6.27-5.68-7.31-7.35-2.92-12.93-.69-18.92,3.82-1.71,0-4.12-4.88-6.9-3.97ZM347.36,282.49c-2.07-8.35-21.65-3.74-21.17,2.38.41,5.23,7.38-1.85,8.41-2.15,1.44-.41,6.06-.37,7.41.2,1.08.46,2.22,2.79,3.31,3.26,3.68,1.58,10.97-2.32,9.79-6.48-2.3-3.04-5.61,4.05-7.75,2.79ZM318.14,293.3c-2.96-1.34-3.14-5.55-7.02-4.8.77,7.89,11.04,13.7,7.06,22.18-3.86,2.07-6.92,1.29-11,.82-.39,3.17,3.04,3.83,5.57,3.97,14.92.85,10.54-13.98,5.4-22.18ZM284.5,314.14c-2.98,2.78,1.73,7.82,3.92,9.87,3.8,3.57,11.87,6.68,17.11,6.61,2.13-.03,12.9-2.67,13.43-4.38,1.46-4.76-8.67.2-10.8.38-8.07.67-14.99-2.94-20.05-8.86-1.18-1.38-1.21-3.98-3.61-3.61Z" fill="#fff"/>
  <path d="M398.12,371.11c1.67,2.71,7.2,6.78,10.31,7.76,3.63,1.14,6.96.44,10.05,1.13,2.24.5,5.65,3.15,8.84,3.65,2.97.47,6.5.36,9.35-.53.72-2.92-1.4-1.26-2.52-3-1.84-5.15,3.45-7.4,3.24-9.75l-5.29-4.97c-.19-1.06.84-.67,1.49-.51,1.63.39,4.37,1.79,5.95,2.61,25.27,13.17,37.97,43.1,26.4,69.54-1.22,2.78-2.52,5.65-4.93,7.62l-.85.2c-1.93-2.99-14.21-4.88-14.91-1.55.67,2.75,4.96,1.35,7.41,1.78,5.47.97,8.68,5.51,7.71,11.02-7.88-3.42-16.23-3.23-17.83,6.49-1.99.22-3.68-.21-5.66.58-1.76.7-2.89,3.43-3.15,3.48-3.09.53-2.82-5.53-5.82-5.91-2.78,1.13-.62,3.52-1.64,4.92-1.5,2.05-12.82,5.54-15.71,6.03-33.1,5.65-81.79-17.66-76.9-56.5,1.07-8.52,6.62-17.88,11.39-24.76,11.72-16.89,30.06-32.39,51.59-32.61.89.52-.46,3.84-.44,5.17.03,1.72,1.07,6.71,1.94,8.12ZM372.45,374.13c-4.77,4.91,7.81,1.67,9.33,1.77,2.65.18,6.51,2.79,7.89,2.7,2.58-.18,2.04-3.33-.07-4.56-3.55-2.08-14.16-2.98-17.15.09ZM376.04,390.54c-.32-.28-4.09-1.5-4.71-1.47-4.68.22-11.39,9.04-8.07,13.6,4.5,6.19,14.49-3.45,14.13-8.52-.04-.54-1.02-3.33-1.35-3.61ZM433.18,399.14c-1.48-2.32-6.12-7.05-8.72-8.03-3.76-1.42-8.83-.23-4.81,2.18,2.94,1.76,4.85,1.53,7.52,4.97,1.22,1.58,3.12,6.99,4,7.19,3.09.71,3.43-4.08,2.01-6.31ZM387.17,410.95c-4.02-4.54-14.68-3.8-16.1,2.91-.82,3.87,2.56,9.89,6.79,10.08,1.1.05,3.81-.25,2.63-2.03-.96-1.46-6.36-3.89-5.6-6.75.05-.18,2.59-2.53,2.76-2.61,5.07-2.39,6.42,5.07,10.3.42.14-.55-.39-1.57-.79-2.02ZM413.51,410.87c-8.5,1.14-13.82,16.46-3.45,15.7,7.9-.58,10.63-16.66,3.45-15.7ZM369.25,424.94c-.89-.88-1.78-2.84-2.92-3.32-8.69-3.7-7.9,12.95-6.05,17.88,2.22,5.91,10.71,10.29,16.91,10.08,9.71-.32,21.69-14.59,10.89-17.51-7.66-2.07-12.66-1.03-18.84-7.13Z" fill="#fff"/>
  <path d="M4.08,187.6c9.77-5.08,22.23-10.31,33.28-11.42,39.36-3.97,71.17,42.32,104.44,56.45l.93-2.56-25.54-16.89c-.23-1.08,6.68-4.89,8.08-5.65,7.51-4.05,19.23-8.5,27.74-9.08,15.2-1.04,33.38,8.13,47.02,14.15-1.19,3.46-3.38,7.73-3.82,11.33-1.52,12.44-7.32,21.77-11.51,33.81-2.49,7.17-4.01,14.9-7.05,21.55-5.44-3.51-11.32-3.59-16.76-.02-2.11-4.86-7.94-10.03-13.46-7.86-.91-4.66-1.34-10.08-2.7-14.6-.74-2.46-3.7-9.39-5.08-12.14-6.58-13.1-23.43-23.83-38.01-25.1-27.95-2.44-50.65,8.73-62.23,34.26-1.1,2.42-1.91,5.75-2.45,8.38-2.29.14-3.68-2.08-5.7-3.17-8.49-4.55-17.95-6.54-27.16-2.75v-68.69Z" fill="#fff"/>
  <path d="M305.38,501.64c-.78.85-1.25,2.66-.19,3.44,5.21,3.41,11.58,6.2,16.65,9.66,2.72,1.86,12.95,8.78,8.3,12-6.07,4.2-21.52-5.96-27.38-8.74-2.51-.09-2.88,1.37-1.09,3.11,2.9,2.82,13.98,7.4,18.14,8.81,1.9.65,7.11.68,7.66,2.9-1.8,9.61-17.36,4.33-23.38,1.64-4.21-1.88-7.69-6.1-12.69-5.38-2.24,1.95,9.48,8.27,10.6,8.79,5.2,2.39,10.83,3.59,16.35,5.02l-4.13,3.42c-10.36,5.56-27.9-2.08-37.23-7.75-3.31-2.01-8.89-7.5-11.23-8.49-7.72-3.25-22.37-5.12-31.43-8.02-15.69-5.01-40.67-13.68-49.31-28.26-3.9-6.59-7.19-16.94-8.49-24.37-1.63-9.33-2.15-19-3.17-28.41.9-1.84,12.16-4.65,14.68-5.08,7.22-1.25,18.67-1.57,25.94-.65,2.68.34,14.17,3.16,14.85,5.53l2.79,24.81c1.09,4.15,14.71,8.19,18.83,10.1,6.85,3.18,33.08,17.09,38.59,16.53,6.43-.65,13.63-3.65,20.46-3.91,2.73-.1,11.68.11,12.17,3.64,1.02,7.31-13.69,6.88-16.27,9.67Z" fill="#fff"/>
  <path d="M333.47,361.46c7.94,1.84,14.27,7.04,20.34,12.15-.66,1.86-2.39,2.21-3.59,3.61s-5.92,8.23-6.56,8.56c-1.08.55-1.07-.77-1.28-1.32-1-2.67-.29-4.8-4.3-4.59-1.04,1.08,1.96,8.97,1.78,10.75s-2.85,4.9-3.68,6.74c-4.58,10.15-6.99,19.04-6.07,30.41-5.15,2.16-10.58,4.99-15.5,7.84-19.14,11.07-38.37,23.76-52.15,41.25l-27.31-11.51c-.74-6.03-1.57-12.08-2.27-18.11-1.13-9.78-1.7-19.7-3.39-29.48-.59-3.39-.59-10.52-5.16-9.63.27,2.13-1.04,4.72,1.3,5.71l2.64,21.24c-4.5-.22-8.48-2.54-12.89-3.21-12.63-1.94-35.29.03-46.26,6.88-.46.29-.64,1.05-.69,1.59-2.06.16-1.85-1.4-1.99-2.91-.74-8.41,4.21-28.99,6.94-37.83,4.02-13.01,11.87-24.93,23.26-32.55,2.05-.47,8.41,4.74,10.25,6.27,9.13,7.59,16.21,17.76,25.32,25.3,25.02,20.7,66.32,27.72,89.76.98,4.17-4.75,11.5-17.8,11.5-24v-14.13Z" fill="#fff"/>
  <path d="M234.19,249.72c-.51-.52,2.48-11.22-.97-10.51l-1.29,1.35-4.97,26.26c-6.17-4.56-10.03-9.2-18.57-7.73-14.25,2.46-16.23,18.68-12.94,30.37s14.66,18.02,26.26,14.17c1.25,14.18,10.65,26,20.94,35.3l-2.65,10.59c-17.83,3.37-37.26,6.25-51.39,18.62-13.13,11.5-14.37,23.37-21.26,36.89-.58,1.14.54,2.76-1.18,2.44-10.79-20.01-3.77-47.84,1.03-69.16,7.26-32.19,15.36-65.81,27.9-96.46.88-2.16,4.17-10.79,5.26-11.83,1.55-1.49,7.02-2.15,9.3-2.53,20.3-3.43,41.19-3.97,61.72-4.68,9.51-.33,20.05-1.77,29.59-.72.99.11,1.63.06,2.26,1.02-4.59,5.09-10.63,9.61-16.62,12.94-15.49,8.6-34.69,13.22-52.4,13.68Z" fill="#fff"/>
  <path d="M384.09,533.67c-.09-3.13-4.48-1.7-6.82-2.05-19.48-2.9-38.7-11.83-49.61-28.59-4.34-6.68-1.07-6.42-2.22-11.61-.51-2.3-2.92-3.11-3.64-4.91-1.14-2.85-2.26-9.21-2.7-12.41-1.34-9.67-.73-19.45-.1-29.16l-2.65.42c-2.18,11.08-3.18,25.98.58,36.8.42,1.21,2.02.85,1.42,2.87-3.84-.37-7.59-.95-11.49-.64-5.22.42-16.12,4.43-20.33,3.92-2.35-.28-17.4-7.08-19.7-8.61-.57-.38-1.23-.63-1.03-1.5.38-1.62,11.72-12.74,13.76-14.52,10.17-8.91,24.1-17.94,35.96-24.52,2.12-1.17,14.73-8.21,15.96-7.34.15,2.18,1.85,4.99,1.98,6.96.86,12.59-2.02,19.28,2.46,32.98,6.3,19.22,36.51,43.52,57.06,43.52h18.41c.37,0,1.76-1.42,2.3-.33-11.22,11.19-23.65,20.55-37.55,28.18-30.52,16.76-72.9,31.5-107.08,17.82-13.35-5.34-27.82-17.48-26.96-33.18,5.92,2.58,15.3,2.62,20.86,5.1,1.7.76,2.95,2.98,4.47,4.08,12.07,8.71,36.32,21.31,50.49,11.74,3.99-2.69,3.37-5.92,4.37-6.8,1.24-1.08,5.78-1.77,7.53-3.64,2.27-2.42,1.13-5.05,1.81-7.39.42-1.45,2.7-2.11,3.12-4.77,1.62-10.27-16.47-17.48-23.63-21.99l10.85-4.54c8.47,16.25,23.04,26.71,40.58,31.67,2.47.7,7.8,2.45,10.04,2.45h11.51Z" fill="#fff"/>
  <path d="M63.49,348.08c10.68,10.89,21.91,19.08,38.16,17.25,9.85-1.1,19.97-9.15,21.44-18.99.94-.91,6.24,3.36,7.25,4.25,6.95,6.1,13.29,20.61,15.45,29.25,4.65,18.61,8.11,43.07,10.83,61.47,2.2,14.85,5.02,38.71-4.96,50.92-.78.95-1.67,1.31-2.61,1.99-.5-1.57-1.68-5.39-1.45-6.81.16-.97,3.58-5.48,4.38-8.01.84-2.68,2.02-9.16,1.24-11.69-.48-1.56-2.59-1.55-3.07,0-1.17,3.74.88,11.64-3.39,14.68-.78-3.49-1.12-7.2-2.04-10.66-1.27-4.73-3.35-10.97-5.02-16.14-4.03-12.4-6.9-15.2-6.12-29.43,1.15-20.89,9.6-28.42,3.26-51.85-.43-1.58-2.78-9.36-3.4-10.07-.68-.79-2.74-.84-3.78-.82-.53.55,2.2,9.1,2.69,10.65,4.77,14.99,4.25,19.06,0,33.91-.74,2.58-.91,9.28-2.32,10.69-3.42,3.42-27.25,6.29-32.89,6.55-15.25.7-32-.99-46.32-6-.32-.37.42-5.11.65-6.01,3.43-13.09,7.14-27.86,5.78-42.16-.85-8.93-5.22-15.34-11.08-21.78l13.52-5.56c1.56.12,2.67,3.19,3.79,4.34Z" fill="#fff"/>
  <path d="M499.78,258.95l9.59,26.24,1.96-.61-7.58-24.99c1.67-1.55,9.68,6.44,10.75,8.05,2.07,3.1,8.88,21.73,10.03,22.13.69.24,1.64.17,2.26-.24,1.88-4.64-3.47-7.81-3.37-12.43l6.62-3.71c1.39,10.54.81,21.68-3.74,31.39-.51,1.08-2.27.6-1.49,3.64.14.53,1.04.53,1.27.96,8.77,15.95,19.24,30.62,27.32,46.83,1.59.38,1.06-2.13.98-2.95-.42-4.15-4.1-12.38-7.13-15.19-1.03-4.7-9.45-14.32-9.29-18.23.35-8.61,7.88-21.61,13.79-27.74,3.14-1.56,10.18,8.78,11.48,11.56,9.48,20.16,10.35,69.6-13.46,80.5-10.09,4.62-22.79-.61-29.48-8.64-10.44-12.53-13.4-31.25-18.45-46.09-.8-2.33-.83-5.74-2.18-8.22-1.67-3.08-7.32-6.24-9.71-9.54-5.19-7.15-7.38-18.86-9.93-27.23-.16-.51-1.12-.54-1.49-1.9-.47-1.71-.83-6.53-.31-8.04.7-2.03,4.26-1.88,5.47-.42s3.05,11.24,4.36,14.04c2.68,5.75,5.52,3.14,3.31-2.64-.36-.94-1.2-.9-1.51-1.82-1.72-5.24-7.38-21.27,2.12-20.5l6.46,23,2.03.39-5.82-25.92,5.14-1.66Z" fill="#fff"/>
  <path d="M502.03,184.39c3.35,3.11,5.67,7.23,9.28,10.11,9.06,7.24,22.39,12.81,33.9,14.09,1.59,1.07-.48,16.13,1.88,17.84,3.18,2.3,5.71-4.94,10.22-5,9.51-.11,7.71,14.36,3.42,19.54-.48.58-5.43,4.67-6.05,4.79-3.73.73-6.59-1.12-10.14-1.25-2.33,13.26-11.39,22.45-22.73,28.86-2.57-3.36-3.97-8.4-6.9-11.48-2.89-3.03-3.19-2.62-6.01-6.48-3.22-4.43-8.9-4.35-14.05-3.72-2.2.27-5.56,2.55-4.92,4.85.14.51,2.05.44,1.32,2.39-5.42-.06-8.14,4.95-8.2,9.92-5.96.8-6.3,3.13-11.21-1.36-8.5-7.76-10.93-20.78-11.52-31.87-.54-10.17.12-20.53.98-30.63,13.91-4.24,30.18-9.85,38.51-22.31,1.49-.35,1.49,1.04,2.21,1.71ZM485.24,203.81c-1.35-2.28-18.28.04-16.99,4.82.57,2.12,5.99-1.01,7.76-1.43,3.13-.76,6.11-1.06,9.34-.86-.11-.77.25-1.93-.1-2.53ZM514.93,207.65c7.19-.65,13.71.53,18.83,5.87,4.9-1.69-.45-4.93-2.85-6.39-4.07-2.48-15.87-7.03-15.98.52ZM481.21,229.15c6.41-5.47-1.73-18.41-6.94-9.89-3.41,5.58.48,15.41,6.94,9.89ZM518.7,218.27c-7.46,1.35-4.66,17.33,2.38,13.62,5.11-2.7,3.81-14.74-2.38-13.62ZM497.17,226.72c-8.72-.5-16.53,14.61-4.27,15.77,1.25.12,7.09.04,7.56-.67,2.3-3.48-4.61-1.91-5.5-1.99-1.7-.15-3.65-1.36-5.04-2.31-.64-2.16,8.26-7.41,7.25-10.81Z" fill="#fff"/>
  <path d="M590.54,55.16v38.12h-143.33c2.8-11.48,17.09-15.08,26.97-10.81,1.54-.72,1.52-4.7,2.14-6.43,1.96-5.47,7.68-12.75,13.17-15.1,8.63-3.69,17.8-2.68,22.16,6.39,4.39,2.71,4.65-7.44,5.6-10.19,4.49-12.93,21.27-22.96,34.75-21.62,9.35.93,21.57,8.02,24.92,17.15.95,2.58.8,8.48,2.9,9,1.82.45,7.92-6.33,10.72-6.51Z" fill="#fff"/>
  <path d="M479.03,296.15c1.78,4.88,6.2,16.19,9.7,20.19,2.09,2.38,6.51,4.01,7.65,6.15,2.44,4.58,3.73,16.36,5.46,22.02,2.22,7.25,7.13,21.04,11.1,27.65.61,1.01,2.65.84,1.99,3.11-20.12,1.66-41.15.64-60.55-5.03-5.67-18.31-6.05-37.77-.28-56.11.94-2.99,2.25-4.14,2.96-5.72.81-1.79,3.32-6.7,3.66-8.05.88-3.51-3.67-1.34-4.77.18-1.9,2.64-4.93,11.35-5.94,14.77-5.24,17.78-4.81,36.99.46,54.7-6.85-4.68-14.28-8.83-22.36-10.98-.97-1.58-.79-10.01-.63-12.34,1.21-17.84,10.56-47.17,26.72-56.76,2.89-1.72,16.86-7.38,19.68-7.31.99.02,1.04.35,1.47,1.08,1.35,2.32,2.43,9.09,3.66,12.46Z" fill="#fff"/>
  <path d="M143.67,278.47c2.33,14.25,2.26,29.35,3.09,44.53.56,10.23,3.39,20.49,1.12,30.72-.25,1.12-2.75,8.76-3.15,9.02-2.07,1.34-3.6-4.36-4.69-6.08-8.03-12.72-13.3-11.89-25.1-17.63-8.66-4.22-1.33-4.76,3.48-8.19,6.36-4.54,9.52-9.18,12.67-16.26,6.56-14.74,4.97-28.81,5.17-44.84.03-2.39-.69-3.48.63-6.21-10.22-1.94-19.72-6.56-28.6-11.83-2.04-1.21-5.83-4.81-7.84-4.61s-9.8,7.16-12.29,8.79c-11.66,7.59-24.65,12-38.04,15.55-.78,4.74,5.19,1.23,5.91,1.96l-2.72,67.94c-5.35,3.14-11.55,5.25-16.36,9.28-5.3,4.46-8.74,11.21-11.77,17.15-.35.69.34,1.24-1.36.93-5.66-10.58-3.56-23.05-1.13-34.31,2.15-9.98,6.38-19.17,8.82-28.65s3.21-19.04,4.98-28.55c.57-3.07,1.69-10.41,2.9-12.83.37-.74,6.99-6.2,8.16-7.01,6.3-4.36,15.46-7.93,22.81-10.06,22.18-6.43,47.05-6.84,67.9,4.05,3.34,8.7,3.95,18.05,5.43,27.14Z" fill="#fff"/>
  <path d="M131.54,266.24c-.12,15.66,1.73,30.87-3.55,45.89-11.81,33.56-58.77,24.97-70.68-3.56.83-12.13.72-24.4,2.79-36.38,14.93-4.19,28.47-11.2,40.4-21.07,9.85,6.07,19.97,11.57,31.04,15.11ZM90.11,267.55c-4.55-4.5-21.06-.14-18.89,6.71,1.1,3.46,5.27-2.57,6.91-3.43,3.94-2.06,6.9-.95,10.98-.84,1.12-.36,1.36-1.36,1-2.45ZM115,265.63c-1.44.43-2.6,2.52-1.14,3.49,2.42.77,4.97-.04,7.43.46,1.74.35,6.24,4.72,7.01,2.09,1.34-4.55-10.02-7.03-13.3-6.04ZM118.29,278.12c-3.99,1.2-3.94,8.68-1.16,11.4,7.78,7.62,12.25-14.73,1.16-11.4ZM87.38,290.92c3.29-2.54,2.99-11.77-2.16-12.28-8.69-.86-6.63,19.06,2.16,12.28ZM110.37,291.99c-.31-.48-5.14-5.46-5.67-5.82-1.81-1.24-3.89-1.24-3.22,1.23.58,2.15,7.52,6.08,6.37,10.48s-7.43.67-10.04,2.42l-.34,1.32c6.79,5.96,18.97-.3,12.9-9.63ZM114.53,310.19c-3.43-.58-5.72,2.71-8.39,3.77-3.32,1.33-8.78,1.21-12.12-.03-2.61-.97-6.53-5.7-8.66-5.01-4.44,3.98,8.27,8.83,11.09,9.15,5.75.66,17.56-.9,18.08-7.89Z" fill="#fff"/>
  <path d="M34.33,497.85c.27,2.84,1.36,6.59,2.61,9.21-1.21,1.97-4.36.15-5.52-1.04-5.08-5.23-2.97-13.13-5.03-19.63l-1.92-.05.65,17.09c-3.42.17-5.34-6.38-5.76-9.03-1.68-10.75,2.11-20.18,1.85-29.45s-2.66-20.17-2.71-30.21c-.09-18.72,4.64-69.68,20.5-81.42,5.87-4.34,7.19.2,10.13,5.5,5.42,9.81,6.3,24.19,3.58,35.04-5.07,20.21-8.76,42.43-8.54,63.87.11,11.03,8.11,13.57,10.73,22.2,1.13,3.73,1.91,6.69-.29,10.26l-4.48.11c.14-1.74-1.3-14.1-4.31-9.87-.74,1.03,1.87,19.29-1.1,25.18-1.08,2.14-4.05,2.44-5.17.69-2.03-3.19-2.82-15.13-3.24-19.28h-1.97c.24,3.51-.33,7.39,0,10.85Z" fill="#fff"/>
  <path d="M375.11,262.68c3.97,23.11,8.13,48.96,12.33,72.12l.52,19.68-.54.77c-11.84,1.86-22.09,8.65-31.27,15.92-6.54-6.24-14.17-10.76-22.5-14.14l-11.34-3.44c2.84-1.24,6.33-2.36,8.99-3.83,14.05-7.76,24.12-19.27,29.31-34.46,4.54-13.3,6.04-29.05,6.43-43.53.19-7.04-.07-14.03-.72-21.02l3.31-1.35c0-1.13-16.19-4.41-18.53-5.12-13.19-4.06-25.95-11.59-36.03-20.83,12.37.33,24.71,1.85,36.83,4.25,2.57.51,14.74,2.88,16.03,3.69,4.79,3.01,6.11,25.07,7.18,31.3Z" fill="#fff"/>
  <path d="M317.29,170.6c.14.22.83.37,1.25,1.08,5.76,9.92,9.61,20.78,13.97,31.35.56.67,1.28.97,2.1,1.19,6.33,1.66,14.57,2.14,21.24,3.74,3.31.8,6.44,2.16,9.85,2.64.74,2.39,5.65,16.29,4.59,17.42-5.26-.92-10.4-2.72-15.64-3.75-35.76-6.99-78.49-6.94-114.85-4.13-13.28,1.03-26.72,2.89-39.78,5.25-.47-.53,1.01-5.13,1.37-6.05.18-.47,1.02-.58,1.2-1.04.97-2.43,2.01-8.19,4.49-9.18l28.77-4.76,40.43-2.3c1.47-.71,4.23-7.36,5.36-9.13,4.26-6.66,8.95-13.56,13.71-19.97,3.88-5.23,7.22-11.01,12.94-14.53.94-.37,1.22.06,1.83.59,2.29,2,5.38,8.64,7.17,11.57ZM317.31,187.02c-1.47-3.04-5.18-11.3-9.18-8.97-9.68,5.63-15.53,25.62-3.8,31.47s17.83-11.89,14.13-21.33c-.35-.91-1.07-1-1.15-1.16Z" fill="#fff"/>
  <path d="M445.12,222.21c1.02,1.71-1.03,1.83-1.17,2.34-1.42,5.24-1.21,12.48-2.19,18.08-.71,4.05-6.48,30.48-8.33,31.8-2.53-.06-4.15-1.69-6.94-1.75-7.99-.19-13.07,3.79-16.45,10.58-9.18-7.71-19.04-3.5-26.6,3.94l-8.44-51.83c18.66-8.2,43.1-25.83,64.11-16.65.71.31,5.84,3.2,6.01,3.5Z" fill="#fff"/>
  <path d="M306.28,377c4.75-5.06,7.48-13.31,7.46-20.15.77-.8,14.51,1.47,15.63,2.79.42.5,1.51,6.36,1.52,7.41.43,28.3-26.36,47.92-53.63,46.32-37.04-2.16-47.47-27.05-72.71-46.28-1.03-.79-2.08-1.57-3.43-1.7l-.46-1.3c4.23-1.18,7.71-3.38,11.99-4.78,5.16-1.69,10.58-2.64,15.9-3.66,11.05,19.52,30.09,33.23,53.33,32.12,8.27-.4,18.66-4.67,24.39-10.78Z" fill="#fff"/>
  <path d="M163.09,437.14c.47.5-.69,5.17,1.59,6.95,1.68,1.31,4.76.14,5.6,2.62.92,9.06,1.83,18.35,3.63,27.27,1.59,7.86,3.67,14.48,7.8,21.12,2.18,3.5,4.96,6.47,7.11,9.97-3.6,6.6-6.08,13.66-9.02,20.56-15.02,35.21-17.96,65.1-23.23,103.01-.13.94.62,1.94-.95,1.66-4.71-8.58-13.16-12.07-21.92-15.22.07-2.26-1.01-6.96.93-8.38,3.18-2.32,15.48-3.09,16.68-8.3.69-2.98,1.19-9.81,1.37-13.09,1.52-28.78-1.8-58.64-3.35-87.36.13-.45,2.58-.99,3.49-1.71,9.19-7.32,10.25-27.41,9.69-38.46-.16-3.14-2.89-20.11-1.96-21.37l2.53.75ZM161.55,502.13c-2.52.72.82,5.21,1.29,6.59.64,1.89.63,7.4,3.3,6.55s-1.31-14.08-4.59-13.14ZM169.77,516.58c3.36-.28,2.85-4.8,3.61-7.22.38-1.22,3.6-5.34,1.3-5.92-3.79-.96-6.57,10.44-4.91,13.14Z" fill="#fff"/>
  <path d="M549.77,209.62l8.55-1.33v-1.96c-11.24-.38-22.93-2.29-33.01-7.42-6.01-3.06-14.82-9.4-18.55-14.97-.8-1.19-3.66-4.89-1.37-5.21,7.27-1.03,23.96,2.66,31.52,4.66,9.59,2.53,19.03,6.23,27.37,11.58,2.82,10.32,4.63,20.95,6.46,31.5,3.96,22.84,9.47,55.84,4.49,79.26-.16.77-2.38,11.62-4.4,9.72-2.69-15.66-12.4-28.1-27.47-33.34-1.79-.62-8.05-1.23-8.58-2.6-.39-1.01-1.59-8.08-1.33-8.94,6.84-4.85,11.16-12.62,13.12-20.78,13.85,2.68,23.81-11.25,20.92-24.01-1.28-5.64-7.24-9.44-12.81-7.65-1.02.33-4.89,3.27-4.89,1.02v-9.53Z" fill="#fff"/>
  <path d="M590.54,570.81c-.22.79-7.29,7.9-8.45,9.3-.71.86-2.81,5.84-4.05,4.82,1.1-6.24,2.33-12.53,3.2-18.81,1.4-9.99,3.55-21.09,4.02-30.82.18-3.6,1.29-17.87-5.16-11.07s-13.11,26.75-16.7,35.89c-.34.88-.81,2.97-1.8,3.12l4.9-45.37c.81-2.93,3.71-1.49,6.11-2.44,3.66-1.45,6.69-8.74,8.18-12.2,5.7-13.2,8.12-33.43,6.38-48.03-.3-2.55-1.54-7.82-4.8-7.64-5.13.28-11.47,15.08-14.85,18.42-.54-9.75-1.69-20.13-3.47-29.73-.9-4.83-2.5-12.23-4.35-16.16-.36-.76-.54-1.6-.74-2.42,3.84-1.1,6.96,2.92,8.49,5.98s.35,6.36,5.33,5.52c.28-7.32,1.36-15.22,2.94-22.37,1.04-4.73,2.44-11.51,5.6-15.09.93,2.17.63,5.17,2.6,6.4l2.15,29.94c.61,1.38,1.35,2.01,2.72,1.16l1.75-3.32v144.93Z" fill="#fff"/>
  <path d="M590.54,304.27v24.32c-2.14-.07-11.49-.6-11.83,1-.14.64.74,1.63.98,1.63h9.86c.2,0,.5-.83.99-.66v89.06c0,.11-.89,1.03-1.31.99-.32-7-.34-14.27-1.5-21.18-1.41-8.44-5.66-19.1-11.56-6-1.65,3.66-4.38,12.33-5.3,15.86-.78,2.99-.97,6.89-1.38,10.01-3.61-3.32-6.35-6.22-11.83-5.26.25-7.28-7.06-17.38-7.26-24.03-.11-3.59,2.26-2.96,4.57-4.62,7.91-5.69,10.99-10.86,14.17-20.02,4.2-12.11,5.15-24.59,4.33-37.8-.17-2.65-.79-5.84-1.36-8.46,6.48-3.02,4.91-10.21,8.23-14.85h10.19Z" fill="#fff"/>
  <path d="M571.89,603.14c-.03.16-.93.19-1.06.67l-9.51,65.31c-1.46,2.12-14.74-1.11-17.7-1.33-.86-.49-.46-2.16-.41-2.97.97-16.98,5.16-36.65,8.74-53.06,5.8-26.63,14.55-55.2,27.09-79.4.39-.75.61-1.82,1.63-1.98.25,6.04-.14,11.99-.74,17.99-1.79,18.03-5.16,36.84-8.04,54.77Z" fill="#fff"/>
  <path d="M497.83,178.73c.26,1.07-.22,1.52-.64,2.31-3.91,7.37-21.53,15.96-29.46,18.53-3.1,1.01-6.73,1.7-9.97,2.19-1.02,1.11-.33,13.66-.64,16.11-.16,1.25-1.26.64-1.42,1.88-.88,6.92.98,20.97,2.35,27.99,1.15,5.89,4.64,16.46,8.95,20.63,3.21,3.11,8.7,3.77,7.19,9.82-.2.83-11.39,3.78-13.35,4.53-9.76,3.76-16.13,8.89-22.03,17.39-.3.43-.4,1.88-1.46.86-.31-.3-1.8-7.23-1.9-8.3-1.14-11.71,4.67-25.62,7.5-37.04,4.13-16.65,5.14-33.65,8.39-50.77.98-5.13,3.04-16.78,7.44-19.51,9.18-5.69,28.4-6.73,39.04-6.65Z" fill="#fff"/>
  <path d="M537.07,618.28c-3.09,6.85-1.01,33.55-1.73,43.25-.11,1.51-.54,2.94-.67,4.44-.45,1.06-12.62,3.21-14.52,2.15-2.05-1.43-2.15-37.19-1.96-42.14,1.07-26.78,7.93-61.46,19.27-85.27,1.96-4.12,3.65-9.32,7.04-12.31-1.18,17.68-3.74,35.27-5.25,52.92-.46,5.32-1.29,34.95-2.19,36.95Z" fill="#fff"/>
  <path d="M490.22,603.08c5.7,11.49,10.14,27.27,12.82,39.54,1.81,8.28,2.69,16.76,3.99,25.13-.54.5-13.84-1.64-14.68-2.09-1.18-.63-.98-2.36-2.35-3.04-2.86-10.17-6.09-20.29-9.74-30.2-7.44-20.17-16.86-40.58-24.89-60.56-1.32-3.28-4.41-10.45-4.88-13.55-.06-.39-.18-1.08.33-.99,1.72,1.04,3.11,2.81,4.61,3.94,14.42,10.94,26.68,25.46,34.79,41.8Z" fill="#fff"/>
  <path d="M423.45,483.63c-10.95,1.96-5.59,15.52-3.16,22.71-4.53,2.67-2.71,5.66-8.91,6.3-24.68,2.57-52.94-10.54-66.08-31.55,21.88,5.34,43.12,2.53,64.11-4.6,6.11-2.07,13.59-4.35,18.4-8.53l2.3,2.91c-5.46,2.65-7.12,6.76-6.67,12.74Z" fill="#fff"/>
  <path d="M310.46,357.52c-1.32,18.15-17.19,28.02-34.54,26.97-10.22-.62-22.21-6.18-29.91-12.82-1.73-1.49-14.84-15.85-13.13-17.43,2.33.01,8.57-.41,10.23-1.93,1.37-1.25,2.21-10.63,3.25-10.57,6.96,4.23,13.94,8.48,21.67,11.2,13.94,4.91,27.75,5.8,42.42,4.59Z" fill="#fff"/>
  <path d="M479.01,529.49c15.68,22.09,26.19,48.58,32.33,75.14,1.01,4.38,3.3,12.44,3.58,16.15,1.16,15.8-1.43,32.45,1.33,48.3l-4.85-.09c-1.85-.63-2.1-10.97-2.47-13.3-3.63-22.81-11.21-43.66-17.73-65.62-3.92-13.2-8.93-28.21-12.54-41.52-2.5-9.22-4.41-18.74-6.46-28.02.56-.74,6.29,8.23,6.81,8.96Z" fill="#fff"/>
  <path d="M435.38,304.93c-1.46,4.86-4.49,8.9-6.12,13.93-3.62,11.2-5.48,24.29-5.72,36.02-5.75-3.9-12.09-9.23-19.52-5.39-1.77.92-3.3,3.56-4.61,3.94-1.87.55-5.28.19-7.42.79l-4.61-49.3h47.99ZM418.28,314.14c-5.5,1.06-9.25,1.73-14.78-.01l-.35,1.65c3.2,2.27,10.33,2.39,13.62.46.91-.53,1.76-.8,1.51-2.1ZM422.89,329.91c-5.28.26-9.22,1.54-14.72,1.24-2.08-.11-4.37-2.02-6.32-.26,6.33,6.29,13.77,2.66,21.04.99v-1.96Z" fill="#fff"/>
  <path d="M348.59,732.18l-.07,14.68c1.2,1.6,7.52.36,8.62,3.06-13.46,2.68-26.86,13.67-30.94,26.92-1.22,1.07-26.08-8.71-27.28-11.14l2.98-27.6,46.68-5.91Z" fill="#fff"/>
  <path d="M559.9,185.05c.11.2,3.77,4,.72,3.55-2.27-.33-6.35-3.31-8.89-4.27-12.84-4.82-27.45-7.5-41.08-8.88-1.87-.19-5.06.43-6.49-.09-1.27-.46-.54-3.33-3.4-3.2-1.69.08-1.33,2.26-3.24,2.63-3.47.66-9.68.23-13.73.73-7.66.95-14.28,2.85-21.64,4.67-.61.15-1.54,1.22-1.14-.48.74-3.14,6.98-8.68,9.56-10.82,29.4-24.33,70.71-17.12,89.33,16.16Z" fill="#fff"/>
  <path d="M590.54,643.77c-.2,1.21-1.73,3.48-2.16,5.07-1.7,6.32-3.36,13.09-5.81,18.8l-17.67,2.09c.95-13.33,3.55-26.65,5.84-39.84.52-3.02.87-3.09,1.36-4.67,3.67-11.92.97-27.6,9.73-38.16l8.71-10.66v67.37Z" fill="#fff"/>
  <path d="M228.93,750.58c-17.51,1.59-34.51,11.31-41.82,27.66-1.63.35-14.09-7.4-14.61-9.06l5.84-35.22,2.31-3.74c15.54,4.43,31.67,6.13,47.67,8.15l.61,12.2Z" fill="#fff"/>
  <path d="M456.01,499.08c-8.79,10.35-18.72,19.24-33.47,17.51-7.5-.88-1.96-9.06,3.62-6.59-1.97-4.06-2.76-7.79-4.01-11.96-.14-.46-.99-.43-1.3-1.48-2.89-9.65,4.17-12.38,9.15-5.18,2.17,3.15,3.27,7.1,5.68,9.92.53-.35,1.53-.25,1.7-.93.68-2.65-2.05-9.05-3.76-11.22-1.13-1.43-6.4-5.01-6.69-5.87-1.62-4.64,2.54-11.37,8.11-7.45,3,2.11,8.2,9.54,9.95,12.71,1.01,1.83.72,5.19,3.18,5.71,3.98.01-1.25-10.42-2.4-12.11-2.87-4.23-9.94-7.18-9.07-13.17,1.17-8.03,10.41-.27,13.12,2.58,3.67,3.86,4.91,9.26,8.87,12.18.67.13,1.46-.53,1.61-1.1,1.21-4.51-9.54-15.08-12.98-17.79-1.33-11.81,10.04-7.53,14.69-1.53,9.04,11.65,2.22,26.07-6.01,35.76Z" fill="#fff"/>
  <path d="M290.07,171.5l-.51,2.44-15.04,24.4-39.33,2.09-22.69,3.27c16.6-25.81,48.47-33.21,77.57-32.2Z" fill="#fff"/>
  <path d="M129.65,423.25l-.8,16.29c-1.79,1.18-3.76,1.77-5.78,2.43-16.5,5.38-42.22,5.08-59.31,2.12-1.9-.33-14.83-3.44-15.01-4.19l1.34-16.66c3.25-.3,5.93,1.75,9.06,2.45,4.01.9,9.53,1.74,13.63,2.15,18.96,1.91,38.61.63,56.86-4.59Z" fill="#fff"/>
  <path d="M545.76,389.12l.1,2.91c-8.06,3.67-17.83,5.36-26.66,6.23-7.62.76-16.7,1.07-24.35.69-5.65-.28-17.78-1.3-22.95-2.69-3.07-.83-2.44-3.41-3.66-5.41-1.97-3.25-4.97-6.73-6.95-10.27l-5.53-5.31c20.31,2.72,41.01,6.03,61.46,2.62,4.61,3.89,8.38,7.29,14.16,9.52,4.74,1.83,9.38,2.76,14.38,1.71Z" fill="#fff"/>
  <path d="M171.73,304.93c-1.56,4.75-2.11,9.77-3.35,14.6-2.78,10.82-6.29,22.42-8.32,33.88-3.46,19.61-7.33,43.38,5.69,60.25-1.4,6.38-2.89,12.86-2.58,19.44-.98-.06-2.56.26-3.33-.29-.85-.61-2.66-15.32-3.19-17.83-2.46-11.6-4.74-24.61-7.48-36.58-.63-2.74-3.58-9.28-3.49-11.38.03-.86,3.6-5.79,4.37-7.85,4.34-11.57,1.4-23.04.64-34.87-.41-6.42-.49-12.96-.67-19.38h21.7Z" fill="#fff"/>
  <path d="M133.35,241.42c.71.92,2.65,3.25,1.88,4.37-24.24-9.81-49.89-7.6-74.14.79l-18.22,9.71c12.48-36.55,66.91-45.66,90.48-14.87Z" fill="#fff"/>
  <path d="M4.08,304.27l23.67.67c-2.89,10.06-6.46,20.01-8.9,30.2-1.65,6.92-3.47,14.06-2.96,21.41.26,3.78,2.76,9.6,4.74,13.01.67,1.16,2.57,2.37,2.82,3.04.32.84-1.2,5.93-1.95,5.93-5.16-4.48-11.72-1.99-17.42.01v-74.27Z" fill="#fff"/>
  <path d="M4.08,260.56c5.18-2.71,10.69-3.47,16.47-2,3.54.9,14.25,5.31,14.49,9.22l-5.55,31.69c-.84.43-1,1.43-2.04,1.56-7.3.9-15.91-1.16-23.36.62v-41.08Z" fill="#fff"/>
  <path d="M479.03,639.91c.04.1.82.23,1.15,1.15,2.76,7.69,4.58,15.89,7.06,23.69-.43,1.77-8.02,1.07-9.82.73-2.02-3.59-2.67-7.79-4.26-11.52-6.46-15.16-18.99-31.8-30.86-42.76-5.29-4.88-11-9.19-16.79-13.45.96-2.3,10.79.36,12.84.96,9.06,2.67,27.86,13.64,33.07,21.49,2.7,4.07,5.72,14.57,7.61,19.69Z" fill="#fff"/>
  <path d="M105.89,336.55c.18.1,1.11,2.31,2.4,3.22,2.14,1.52,11.43,3.63,11.38,6.11-.08,3.77-5.8,11.46-9.12,13.23-1.09.58-8.22,2.77-9.55,2.95-14.47,1.93-28.38-8.24-36.43-19.34,5.36-1.65,9.87-5.15,13.46-9.37,6.2,2.76,14.23,4.84,21.04,4.43,1.27-.08,6.49-1.42,6.81-1.23Z" fill="#fff"/>
  <path d="M259.43,772.02c6.93,8.36,5.37,9.85-3.87,14.69-1.06-.04-1.78-11.34-7.7-12.06-.72-.09-1.53-.53-1.82.6-.76,3,2.24,3.31,3.29,4.73,5.69,7.69,1.48,10.19-6.59,10.69-.19-5.78-3.35-14.62-10.19-14.47-2.41.34,4.84,6.89,5.13,7.42.61,1.11,2.35,6.64,1.14,7.4-.76.48-8.65,1.34-9.17.89.16-3.05-4.65-11.09-7.62-11.13-5.22-.07,4.93,9.07,3.61,10.54-2.64-.89-18.53-1.95-19.04-4.31,4.81-14.36,28.49-23.6,42.31-21.9,5.51.68,7.28,3,10.52,6.91Z" fill="#fff"/>
  <path d="M385.41,301.65c.37-2.99-1.45-6.49-.53-9.41.16-.51,6.73-7.06,7.55-7.57,3.7-2.29,7.86-2.63,11.85-.89,2.8,1.22,4.47,4.38,7.71,4.66,1.01-.26,2.05-4.93,2.88-6.32,3.44-5.82,11.6-6.88,17.28-3.71-1.2,6.88-2.28,14.64-.02,21.44.25.76,1.85.04,1.29,1.8h-47.99Z" fill="#fff"/>
  <path d="M69.17,611.89l-.99,9.19c4.06,3.34,9.58,4.91,12.83,9.2-11.82-2.4-29.24-2.76-37.76,7.28-1.34,1.58-1.01,4.38-4.29,2.9-.86-.39-5.94-4.83-6.26-5.58-1.55-3.66,1.52-13.82,2.21-18.14.47-2.93-.43-6.38,1.36-9.19l32.9,4.34Z" fill="#fff"/>
  <path d="M143.46,623.07l-10.66,2.81c-8.17,2.94-15.03,7.7-20,14.84-3.23-.92-15.47-6.54-16.03-9.44l.68-13.69c2.33-.89.83-2.82,1.39-4.63l.99-.98c9.73-.6,19.45-1.2,28.87-3.88,2.77,2.21-.96,7.19.89,9.44l13.87,5.53Z" fill="#fff"/>
  <path d="M582.64,451.51c-1.18,2.65,1.26,4.05,1.37,4.88.43,3.3.43,14.54,0,17.83-.13.97-1.09,4.06-1.45,6.45-1.19,7.79-4.42,24.61-9.86,30.24-5.36,5.55-8.62-1.44-9.12-6.5-1.37-14.03,5.78-33.77,12.73-45.76.45-.77,5.23-8.45,6.33-7.14Z" fill="#fff"/>
  <path d="M525.05,461.79c2.47,8.5,4.73,17.36,5.03,26.82.08,2.68.31,13.3-2.15,14.38-6.45,2.83-9.9-7.47-11.22-12.18-3.72-13.3-6.26-30.16-2.46-43.06.55-1.87.49-5.28,1.35-7.42,1.56-1.49,5.23,7.67,5.58,8.55,1.52,3.93,2.69,8.79,3.88,12.9Z" fill="#fff"/>
  <path d="M247.99,761.11c-.26,1.35-2.81-.07-4.16.04-15.31,1.23-35.36,9.21-40.58,24.9l-13.06-5.29c-.7-1.88.79-1.71,1.19-2.45,2.78-5.21,5.19-9.82,9.98-13.55,7.27-5.67,23.92-12.15,33.08-11.52,4.13.28,9.75,6.16,13.55,7.87Z" fill="#fff"/>
  <path d="M337.4,444.94c.14.12.94,2.4,1.7,3.26,7.14,8.08,11.58,17.78,19.03,25,1,.97,6.56,5.44,7.55,4.61l.34-1.99c-4.31-3.44-8.26-7.08-11.26-11.74-.36-.57-1.63-1.47-.57-2.05,12.83,8.46,27.61,13.38,43.05,14.14-18.02,5.94-37.28,5.19-55.44.34-3.12-5.18-4.83-11.46-5.62-17.51-.46-3.53-1.24-9.9-.1-13.09.24-.67.14-1.98,1.32-.95Z" fill="#fff"/>
  <path d="M386.2,778.04c-.36-.5-.31-2.45-.76-3.5-.76-1.82-4.7-9.31-6.93-8.84-2.87.61,1.93,5.86,2.63,7.22,1.11,2.14,3.55,6.86,1.25,8.5l-2.9.71c-.44-5.55-4.33-13.94-10.52-13.8.13,3.08,3.11,4.06,4.52,6.98.89,1.84.89,3.36,1.45,4.99.2.58,2.12.88,1.25,3.12l-8.54,1.34c.84-3.14-3.82-11.8-6.9-11.86-4.13-.08.34,4.14.88,5.06.62,1.06,3.34,6.15,2.74,6.8l-18.41-1.32c.81-4.07,3.52-8.89,6.43-11.83,4.34-4.38,17.52-11.49,23.57-11.8,5.61-.28,15.36,8.75,15.92,14.27.21,2.11-4.12,6.14-5.68,3.95Z" fill="#fff"/>
  <path d="M4.08,383.48c2.99-3.9,13.47-6.08,16.5-2.01,1.02,1.37-1.4,8.31-1.85,10.74-1.66,8.93-3.32,18.03-4.12,27.43-.17,2.06.1,4.18,0,6.24-3.5-.01-7.11-1.66-10.52,0v-42.4Z" fill="#fff"/>
  <path d="M150.04,301.65l-1.64-27.61c2.03-.15,7.42,3.41,8.21,5.07,1.15,2.42-.23,5.27,2.29,6.61,1.9-.41,2.08-2.26,3.66-3.42,4.1-3.01,9.56-1.89,13.67.39l-4.17,18.97h-22.02Z" fill="#fff"/>
  <path d="M433.26,370.13c1.25,2.15-.99,2.6-1.16,2.97-1.1,2.45-1.6,4.7-1.33,7.42-8.61-.37-13.93-6.48-17.43-13.8-4.54,1.02,1.66,9.17.99,9.86-5.12-.86-10.31-3.2-12.52-8.18-3.42-7.74-.06-17.2,9.5-16.08,6.33.74,15.26,11.78,19.77,16.41.61.62,2.07,1.22,2.18,1.41Z" fill="#fff"/>
  <path d="M502.02,508.47c3.2,6.36,7.48,13.7,8.67,21.22.62,3.94.73,10.49-4.63,6.6-10.25-7.42-19.77-35.83-20.7-48.32-.07-.88-.66-3.3.97-2.94,7.75,5.88,11.46,15,15.7,23.43Z" fill="#fff"/>
  <path d="M372.92,755.85c.24,1.77-.14,1.01-.96,1.32-3.4,1.24-6.82,1.88-10.24,3.57-8.82,4.38-16.6,11.5-19.1,21.34l-13.09-3.25c2.33-11.87,14.75-21.68,25.8-25.13,8.7-2.71,9.56-1.13,17.59,2.15Z" fill="#fff"/>
  <path d="M86.53,639.26c.18.23.71.25,1.04.25.57,1.55-.82,1.18-1.03,1.54-1.52,2.5-2.51,5.14-6.18,5.02.9-2.82-2.83-13.26-6.59-10.86-2.1,1.33,1.79,4.37,2.18,5.12,1.18,2.27,1.47,4.44,1.03,6.96l-7.1.72c-.07-3.11-2.53-13.04-6.88-11.76-3.13.92,1.34,3.94,1.79,4.74s2.05,6.76,1.76,7.05c-1.55-.62-5.62-.31-6.6-.95-.69-.45-1.81-5.21-3.05-5.63-4.53-1.49-.37,4.15-.86,4.61l-11.83-3.29c3.97-11.53,31.1-12.95,39.12-7.22,1.33.95,2.23,2.46,3.22,3.71Z" fill="#fff"/>
  <path d="M262.46,787.4c.75.62-4.57,5.05-5.3,5.54-16.61,11.05-51.38,3.44-68.58-4.31-5.8-2.61-16.45-7.85-16.18-15.04,13.77,9.81,30.38,17.41,47.24,19.97,10.24,1.55,21.52,1.67,31.52-1.37,3.97-1.2,7.32-3.73,11.31-4.79Z" fill="#fff"/>
  <path d="M360.42,205.02l-25.66-4.9c-1.95-7.68-5.09-14.54-8.52-21.38,2.68-2.59,33.84,19.68,34.18,26.28Z" fill="#fff"/>
  <path d="M390.66,781.48c.12,1.66-1.67,2.64-2.83,3.41-17.55,11.73-55.25,4.2-74.07-3.11-2.76-1.07-18.37-6.99-15.14-11.48,27.9,12.38,62.48,25.61,92.03,11.18Z" fill="#fff"/>
  <path d="M150.04,640.81c.55-2.72-2.85-10.81-5.58-10.56-4.43.4.16,4.17.34,4.47,3.17,5.33,3.42,9.57-3.96,9.38-.42-3.33-2.27-9.7-6.23-9.89-2.73-.13,1.28,4.45,1.75,5.49.71,1.6,1.34,3.24,1.2,5.05-1.49-.3-5.5.5-6.47-.11-1.01-.63-1.09-5.99-5.04-6.47-3.11-.38,2.31,5.42,1.64,5.92l-11.18-1.97c4.46-8.46,22.88-16.92,31.75-14.32,4.37,1.28,6.67,10.6,1.79,13.01Z" fill="#fff"/>
  <path d="M466.93,610.57l-8.99-6.45-11.1-6.04,1.03-15.11c2.55,1.06,7.68,1.42,9.5,3.32,1.23,1.28,4.36,9.52,5.27,11.82.58,1.46,4.73,11.98,4.29,12.47Z" fill="#fff"/>
  <path d="M549.12,288.51c.49,1.76-1.1,1.22-1.97,2.27-3.94,4.72-8.73,12.54-11.13,17.95-.74,1.65-.76,4.12-1.34,5.77-.3.86.43,1.18-1.32.96-.09-2.69-3.91-5.87-3.9-8.21,0-1.49,3.09-7.54,3.71-10.04,1.01-4.09,1.48-9.09,1.5-13.29l14.46,4.61Z" fill="#fff"/>
  <path d="M590.54,274.7v26.29h-10.52l1.41-23.9c.56-1.67,7.27-2.76,9.11-2.39Z" fill="#fff"/>
  <path d="M56.68,340.43l.98-23.66c3.59,6.88,10.35,9.97,15.49,15.43-3.09,6.13-10.47,6.95-16.47,8.23Z" fill="#fff"/>
  <path d="M468.1,461.86c-.25.32-1.34.72-1.84.51-4.88-3.35-2.13-4.57-2.1-8.56.02-2.15-1.11-4.47-1.75-6.49,6.95-7.76,8.61,1.4,7.75,7.74-.1.76-1.84,6.51-2.06,6.79Z" fill="#fff"/>
  <path d="M590.54,667.76c-1.38,0-3.01.38-3.92-.98l3.92-11.51v12.49Z" fill="#fff"/>
  <path d="M561.28,564.56c.43.22.43.44,0,.66v-.66Z" fill="#fff"/>
  <path d="M132.54,68.06c2.61,3.18,4.17,4.77,4.37,9.43,7.42-1.69,13.43-2.2,20.28,1.74,8.63,4.96,12.12,18.6-.43,20.46-8.46,1.25-20.48-.04-29.44.15-31.08.64-67.89,2.93-98.58.68-7.63-.56-17.66-2.64-15.81-12.51,1.05-5.62,5.54-9.93,10.44-12.56,6.77-3.65,14.05-2.68,21.47-1.86-.66-23.12,24.89-39.7,45.71-28.94,4.9,2.53,10.57,8.44,12.92,13.38.6,1.26,1.32,5.52,2.2,5.71,10.89-6.31,18.95-5.3,26.87,4.35ZM97.72,56.2c-9.18-11.75-22.31-14.76-35.58-7.09-5.59,3.23-6.42,5.74-9.39,10.82-.39.67-1.55.82-2.14,1.96-1.54,2.98-2.4,16.16-3.09,16.65-2.12.94-3.91-.92-5.95-1.38-6.92-1.55-14.17-.83-19.75,3.95-.79.68-4.84,5.21-5.07,5.76-2.35,5.6,3.44,9.85,8.67,9.72,41.62-2.01,85.61,2.59,126.94,0,6.65-.41,12.22-2.3,7.15-9.84-3.48-5.17-10.88-7.51-16.89-6.46-2.65.46-5.83,3.76-7.71,2.83-2.01-.99-.99-3.53-1.34-5.16-.08-.35-2.45-5.35-2.98-6.33-4.2-7.77-13.21-10.44-20.9-5.86-2.43,1.44-3.64,5.21-6.95,4.45-1.59-6.03-1.1-8.98-5.04-14.02Z"/>
  <path d="M254.58,112.34c11.11-4.85,27.14-1.76,26.3,13.14,6.88-2.19,20.13,2.65,17.32,11.72-1.58,5.1-7.83,5.13-12.36,5.4-35.86,2.12-73.78-1.67-109.85,0-3.59-.74-8.89-.24-9.9-4.59-2.14-9.22,12.76-14.2,20.08-12.55.61-11.42,13.01-14.47,22.41-11.42,1.16-6.97,6.12-15.51,13.24-17.68,13.68-4.19,31.99-1.15,32.76,15.98ZM248.28,104.84c-7.25-9.65-26.41-8.71-32.76,1.65-.29.47-2.23,4.15-2.31,4.39-.6,1.91-.44,8.43-1.32,9.07-2.56,1.33-3.39-1.31-5.07-2.25-8.36-4.66-19.87,2.68-17.99,12.4-6.93-1.21-18.9-2.02-18.33,7.82l122.18-.29c3.93-3.99-1.36-8.19-5.61-8.78-2.16-.3-9.32.77-9.83-.03-.7-2.86.1-5.53-.74-8.46-2.08-7.23-13.22-7.85-19.1-5.52-2.26.9-6.18,5.66-6.79.5s1.14-5.88-2.32-10.5Z"/>
  <path d="M427.5,129.43c1.83-.17,2.62-1.98,4.59-2.96,6.12-3.05,15.46-3.29,21.58-.22l-.28,2.59c-2.89.96-5.25-1.23-8.46-1.42s-11.34,1.79-13.84,3.96c-1.37,1.19-1.88,4.64-3.93,4.64-2.97,0-2.84-6.06-4.37-8.15-2.46-3.36-8.64-6.5-12.79-6.92-2.37-.24-9.9,1.79-8.78-1.69,1.8-5.6,26.97,1.34,26.28,10.16Z"/>
  <path d="M525.89,750.79c1.06,1.56,1.51,3.83,1.54,5.71,10.62-2.16,22.06.07,28.42,9.38,2.01,2.95,3.86,6.29,1.48,9.67-4.31,6.1-28.97,5.8-35.85,4.32-5.46-1.17-13.89-3.71-10.49-10.87-10.75.81-30.59,1.58-39.66-4.72-2.74-1.91-5.42-4.8-4.17-8.25.93-2.58,7.6-10.17,9.98-12.01,14.67-11.39,38.07-9.06,48.76,6.78ZM496.36,739.57c-7.81.36-17.37,6.66-22.21,12.63-3.11,3.84-5.33,6.91-.08,9.97s29.43,5.22,35.89,4.15l13.89-9.16c-2.21-10.5-17.29-18.05-27.49-17.58ZM554.9,773.46c1.61-2.77-3.37-8.09-5.47-9.71-7.68-5.94-18.77-5.76-27.3-1.69-4.14,1.97-11.23,9.27-5.46,12.75,5.24,3.15,26.29,2.64,32.46,1.11,1.02-.25,5.42-1.86,5.76-2.45Z"/>
  <path d="M87.35,775.78c12.99,17.03-17.53,17.48-27.75,16.9-5.14-.29-21.47-2.15-22.61-8.28-1.34-7.19,3.12-8.49,6.77-13.21,13.88-11.4,32.64-9.76,43.59,4.59ZM86.53,782.58c-2.25-3.1-4.18-7.68-7.26-10.21-8.99-7.37-26.38-6.05-34.44,2.17-2.21,2.25-3,5.52-5.24,7.26-.28,1.49.8.67,1.35,1.44.38.53.3,1.51.79,2.01,5.22,5.34,37.51,5.32,43.52.77,1.19-.9.65-2.81,2.34-2.59.28-1-.77-.47-1.05-.85Z"/>
  <path d="M87.28,685.14c-.15-.22-.86-.23-.99-.75-.69-2.72,3.25-8.33,5.24-10.37,5.5-5.65,13.09-6.38,20.7-5.58,10.18,1.06,24.63,16.31,8.65,21.12-8.66,2.61-27.98,3.92-33.6-4.41ZM104.52,671.22c-4,.59-8.92,3.19-11.36,6.39-4.18,5.46-3,8.18,3.47,9.71s20.54,1.14,26.43-2.17c4.8-2.69-2.62-9.38-5.27-11.1-4.26-2.77-8.19-3.58-13.27-2.83Z"/>
  <path d="M445.01,731.74c9.91,13.93-15.8,13.81-23.6,12.76-16.89-2.28-4.01-17.68,5.9-19.39,6.1-1.05,14.07,1.53,17.69,6.63ZM440.4,731.75c-6.8-7.36-21.12-2.57-24.01,6.58.78,4.04,18.12,3.48,21.64,2.76,5.6-1.14,5.91-5.5,2.36-9.34Z"/>
  <path d="M83.63,717.06c-.09,3.29-3.78,4.64-5.39,7.43-.55.95-1.57,3.67-1.8,4.77-.45,2.2.45,10.26-2.94,9.45-1.52-.36-1.2-6.66-1.07-8.2.45-5.24,4.94-14.1,11.2-13.45Z"/>
  <path d="M28.68,674.73c.09.17.76.27.99.77,1.57,3.38,2.11,7.02,1.35,10.66-4.06.93-2.85-2.9-3.74-5.78-1.01-3.28-2.61-7.01-4.82-9.65-1.51-1.8-3.99-2.78-4.58-4.94,5.85-.93,8.53,4.63,10.79,8.94Z"/>
  <path d="M143.46,776.88c-2.25,6.92-8.3,11.29-8.01,19.58-4.52,2.09-4.06-3.75-3.1-6.58.19-.57,1-.59,1.19-1.04,1.77-4.27,4.64-11.92,9.92-11.96Z"/>
  <path d="M63.48,726.05c-1.99-2.9-3.13-5.09-6.48-7.02,3.02-4.31,9.09,3.2,10.74,6.36.86,1.65,4.54,10.5,1.75,11.38-2.94.93-2.93-6.51-3.92-8.56-.75-1.55-1.7-1.58-2.1-2.16Z"/>
  <path d="M129.65,797.25c-3.42.51-3.08-4.28-4.09-6.75-1.98-4.84-6.25-7.08-10.07-10.32.04-2.4.82-2.38,2.95-1.62,6.39,2.29,12.49,11.66,11.22,18.69Z"/>
  <path d="M42.21,664.48c.94,3.09-1.93,3.86-2.64,5.09-3.43,5.91-3.11,10.31-3.87,16.87l-2.03.39c-1.13-5.57-.57-10.05,1.46-15.3,1.14-2.97,3.3-7.93,7.08-7.05Z"/>
  <path d="M456.83,793.73c-.13.29-1.09.76-1.74,2.5-.91,2.44-.82,9.78-3.6,8.91-3.15-.99,1.8-15.88,4.69-17.65,5.01-3.08,1.41,4.56.65,6.25Z"/>
  <path d="M410.1,571.51c-.12.22-.77.29-1.13,1.19-.56,1.43-.76,8.07-2.84,7.63-4.29-.9,3.03-17.94,7.21-17.09,2.9.6-2.52,6.94-3.24,8.26Z"/>
  <path d="M55.36,671.05c.63,3.11-2.79,2.6-4.55,3.66-3.82,2.29-4.58,6.03-6.49,9.29-1.64,2.81-2.75,1.43-2.48-1.14.58-5.61,7.24-13.29,13.52-11.81Z"/>
  <path d="M435.37,638.19c.68,3.58-2.83,3.48-4.95,5.89-1.78,2.02-1.94,4.29-3.08,6.13-1.34,2.17-3.25,1.2-3.14-1.1.25-4.98,5.54-11.91,11.16-10.92Z"/>
  <path d="M421.95,640.55c-.12.24-.78.29-1.26,1.66-.86,2.45-1.1,5.86-1.09,8.47-.77-.11-1.93.25-2.53-.1-2.25-1.34.85-18.1,5.85-14.72,1.54,1.53-.31,3.35-.96,4.7Z"/>
  <path d="M401.85,579.68c-.79-2.6-1.27-5.97-2.45-8.38-.44-.9-6.25-6.58-3.11-7.39,2.67-.68,4.9,3.4,5.74,5.39.71,1.67,3.2,9.09,1.81,10.08l-1.99.3Z"/>
  <path d="M444.18,792.43c.42.32,1.23.11,1.74.67,1.61,1.75,4.64,11.32,1.62,11.37-2.49-4.5-4.23-9.25-8.12-12.9l-.1-1.54c3.03-.7,3.43,1.31,4.85,2.41Z"/>
  <path d="M92.18,725.61c.1,3.59-5.04,4.07-7.25,6.88-1.29,1.64-1.3,3.7-2.59,5.3-2.09,1.37-2.15-2.31-1.85-3.81.87-4.26,7.29-8.89,11.68-8.37Z"/>
  <path d="M414.33,650.67l-2.03-.39c-.41-4.58-4.11-7.48-7.55-10.12-.36-3.85,3.41-1.87,5.2-.56,3.44,2.51,4.92,6.9,4.38,11.07Z"/>
  <path d="M465.39,792.07c4.82-.41-2.16,5.79-2.69,6.54-1.13,1.58-2.28,6.55-4.64,5.87-1.93-1.33-.51-2.92.21-4.38,1-2.05,4.77-7.82,7.12-8.02Z"/>
  <path d="M337.41,600.72c1.01.98-4.37,13.37-5.35,15.35-14.42,29.26-42.24,56.46-70.56,72.74-3.29,1.89-25.5,13.34-27.31,12.17-3.09-1.98,1.67-2.65,2.82-3.14,32.04-13.45,61.8-36.06,81.35-64.78,6.64-9.76,13.11-20.84,17.08-31.91l1.98-.44Z"/>
  <path d="M255.89,261.55c-.53-2.72.94-4.37,2.96-5.91,6.02-4.59,19.28-8.64,26.44-5.41,2.07.93,4.28,3.77,1.72,5.34-6.83-1.26-11.88-2.02-18.62.41-4.42,1.59-7.71,5.62-12.5,5.58Z"/>
  <path d="M257.21,277.33c2.78-.91,5.2,3.98,6.9,3.97,5.99-4.5,11.56-6.73,18.92-3.82,2.64,1.05,6.71,4.06,5.68,7.31-1.19,3.78-4.37-1.15-5.26-1.82-3.88-2.94-8.84-2.76-13.03-.65-2.35,1.18-3.92,3.99-6.81,3.45-2.3-.43-8.18-5.54-6.4-8.45Z"/>
  <path d="M284.5,314.14c2.39-.37,2.42,2.23,3.61,3.61,5.06,5.92,11.98,9.53,20.05,8.86,2.13-.18,12.26-5.14,10.8-.38-.53,1.72-11.3,4.35-13.43,4.38-5.24.07-13.3-3.03-17.11-6.61-2.19-2.06-6.9-7.1-3.92-9.87Z"/>
  <path d="M318.14,293.3c5.14,8.2,9.52,23.03-5.4,22.18-2.53-.14-5.95-.8-5.57-3.97,4.09.46,7.14,1.24,11-.82,3.98-8.49-6.29-14.29-7.06-22.18,3.88-.74,4.06,3.46,7.02,4.8Z"/>
  <path d="M347.36,282.49c2.14,1.25,5.44-5.83,7.75-2.79,1.18,4.17-6.11,8.06-9.79,6.48-1.09-.47-2.23-2.8-3.31-3.26-1.35-.57-5.96-.61-7.41-.2-1.03.3-8,7.38-8.41,2.15-.48-6.12,19.1-10.73,21.17-2.38Z"/>
  <path d="M328.22,254.96c-.64-.77,2.41-3.18,2.93-3.29,7.23-1.41,16.87.92,22.38,5.92,1.6,1.45,3.94,5.44.62,5.96-2.29.36-8.06-5.89-12.1-6.97-5.12-1.38-9.38.71-13.84-1.62Z"/>
  <path d="M369.25,424.94c6.18,6.11,11.18,5.06,18.84,7.13,10.8,2.92-1.18,17.19-10.89,17.51-6.2.2-14.69-4.18-16.91-10.08-1.86-4.93-2.64-21.58,6.05-17.88,1.14.49,2.03,2.44,2.92,3.32ZM365.03,438.37c.09,7.02,16.8,10.78,18.37,5.5,1.46-4.9-15.09-7.72-18.37-5.5Z"/>
  <path d="M376.04,390.54c.33.29,1.31,3.07,1.35,3.61.36,5.06-9.63,14.7-14.13,8.52-3.32-4.56,3.4-13.38,8.07-13.6.62-.03,4.39,1.19,4.71,1.47Z"/>
  <path d="M413.51,410.87c7.18-.96,4.44,15.12-3.45,15.7-10.36.76-5.05-14.56,3.45-15.7Z"/>
  <path d="M387.17,410.95c.4.46.93,1.47.79,2.02-3.88,4.64-5.23-2.82-10.3-.42-.17.08-2.71,2.42-2.76,2.61-.76,2.86,4.63,5.29,5.6,6.75,1.17,1.78-1.53,2.08-2.63,2.03-4.23-.19-7.61-6.21-6.79-10.08,1.42-6.71,12.08-7.45,16.1-2.91Z"/>
  <path d="M433.18,399.14c1.42,2.23,1.08,7.01-2.01,6.31-.88-.2-2.78-5.61-4-7.19-2.67-3.45-4.58-3.22-7.52-4.97-4.02-2.41,1.05-3.59,4.81-2.18,2.6.98,7.24,5.71,8.72,8.03Z"/>
  <path d="M372.45,374.13c2.98-3.07,13.59-2.17,17.15-.09,2.11,1.24,2.65,4.39.07,4.56-1.38.09-5.23-2.52-7.89-2.7-1.52-.1-14.09,3.14-9.33-1.77Z"/>
  <path d="M481.21,229.15c-6.46,5.51-10.36-4.32-6.94-9.89,5.21-8.52,13.36,4.42,6.94,9.89Z"/>
  <path d="M518.7,218.27c6.19-1.12,7.49,10.92,2.38,13.62-7.04,3.71-9.83-12.26-2.38-13.62Z"/>
  <path d="M497.17,226.72c1,3.39-7.9,8.64-7.25,10.81,1.39.96,3.34,2.16,5.04,2.31.89.08,7.8-1.49,5.5,1.99-.47.71-6.32.79-7.56.67-12.26-1.16-4.44-16.28,4.27-15.77Z"/>
  <path d="M514.93,207.65c.11-7.55,11.91-3,15.98-.52,2.4,1.46,7.75,4.7,2.85,6.39-5.12-5.33-11.64-6.52-18.83-5.87Z"/>
  <path d="M485.24,203.81c.35.6,0,1.76.1,2.53-3.22-.2-6.21.1-9.34.86-1.77.43-7.19,3.55-7.76,1.43-1.28-4.78,15.65-7.1,16.99-4.82Z"/>
  <path d="M114.53,310.19c-.52,6.99-12.33,8.55-18.08,7.89-2.83-.32-15.53-5.17-11.09-9.15,2.13-.7,6.05,4.04,8.66,5.01,3.34,1.24,8.8,1.35,12.12.03,2.67-1.06,4.96-4.35,8.39-3.77Z"/>
  <path d="M87.38,290.92c-8.8,6.78-10.85-13.13-2.16-12.28,5.15.51,5.45,9.74,2.16,12.28Z"/>
  <path d="M118.29,278.12c11.09-3.33,6.62,19.02-1.16,11.4-2.78-2.72-2.83-10.2,1.16-11.4Z"/>
  <path d="M110.37,291.99c6.06,9.33-6.11,15.59-12.9,9.63l.34-1.32c2.62-1.75,8.84,2.17,10.04-2.42s-5.79-8.33-6.37-10.48c-.67-2.48,1.4-2.48,3.22-1.23.53.36,5.35,5.34,5.67,5.82Z"/>
  <path d="M90.11,267.55c.36,1.09.12,2.09-1,2.45-4.08-.12-7.05-1.23-10.98.84-1.64.86-5.81,6.89-6.91,3.43-2.17-6.85,14.34-11.21,18.89-6.71Z"/>
  <path d="M115,265.63c3.29-.98,14.64,1.49,13.3,6.04-.77,2.63-5.27-1.74-7.01-2.09-2.45-.5-5.01.31-7.43-.46-1.47-.98-.31-3.06,1.14-3.49Z"/>
  <path d="M317.31,187.02c.08.16.79.26,1.15,1.16,3.7,9.44-2.29,27.24-14.13,21.33s-5.88-25.83,3.8-31.47c4-2.33,7.71,5.93,9.18,8.97ZM306.26,185.71c-4.13,5.04-5.32,7.12-4.29,14.32.73,5.11,6.58,9.64,10.8,4.35,4.89-6.14,1.85-17.25-2.65-23.02-1.08-.26-3.1,3.41-3.86,4.35Z"/>
  <path d="M161.55,502.13c3.27-.94,7.19,12.31,4.59,13.14s-2.66-4.66-3.3-6.55c-.47-1.37-3.81-5.86-1.29-6.59Z"/>
  <path d="M169.77,516.58c-1.66-2.71,1.12-14.1,4.91-13.14,2.3.58-.91,4.7-1.3,5.92-.76,2.42-.26,6.94-3.61,7.22Z"/>
  <path d="M422.89,329.91v1.96c-7.27,1.67-14.71,5.31-21.04-.99,1.95-1.76,4.23.15,6.32.26,5.5.3,9.44-.98,14.72-1.24Z"/>
  <path d="M418.28,314.14c.25,1.3-.6,1.57-1.51,2.1-3.3,1.93-10.43,1.81-13.62-.46l.35-1.65c5.53,1.74,9.29,1.07,14.78.01Z"/>
  <path d="M97.72,56.2c3.94,5.04,3.44,7.99,5.04,14.02,3.31.76,4.52-3.01,6.95-4.45,7.69-4.58,16.7-1.91,20.9,5.86.53.99,2.9,5.98,2.98,6.33.36,1.63-.67,4.16,1.34,5.16,1.88.93,5.06-2.37,7.71-2.83,6.01-1.05,13.41,1.29,16.89,6.46,5.07,7.54-.5,9.43-7.15,9.84-41.34,2.58-85.33-2.01-126.94,0-5.23.13-11.02-4.12-8.67-9.72.23-.55,4.28-5.08,5.07-5.76,5.57-4.78,12.82-5.5,19.75-3.95,2.04.46,3.83,2.32,5.95,1.38.69-.5,1.54-13.68,3.09-16.65.59-1.14,1.75-1.29,2.14-1.96,2.97-5.07,3.8-7.58,9.39-10.82,13.27-7.67,26.4-4.67,35.58,7.09Z" fill="#fff"/>
  <path d="M248.28,104.84c3.46,4.61,1.72,5.49,2.32,10.5s4.53.39,6.79-.5c5.88-2.34,17.02-1.71,19.1,5.52.84,2.93.05,5.6.74,8.46.51.79,7.67-.27,9.83.03,4.25.59,9.54,4.79,5.61,8.78l-122.18.29c-.57-9.83,11.4-9.02,18.33-7.82-1.88-9.71,9.63-17.05,17.99-12.4,1.69.94,2.52,3.58,5.07,2.25.88-.64.72-7.15,1.32-9.07.08-.24,2.02-3.93,2.31-4.39,6.35-10.36,25.51-11.3,32.76-1.65Z" fill="#fff"/>
  <path d="M496.36,739.57c10.2-.47,25.28,7.08,27.49,17.58l-13.89,9.16c-6.46,1.08-30.38-.95-35.89-4.15s-3.04-6.12.08-9.97c4.84-5.97,14.4-12.28,22.21-12.63Z" fill="#fff"/>
  <path d="M554.9,773.46c-.34.59-4.74,2.2-5.76,2.45-6.17,1.53-27.23,2.04-32.46-1.11-5.77-3.47,1.31-10.77,5.46-12.75,8.53-4.07,19.62-4.25,27.3,1.69,2.1,1.63,7.08,6.95,5.47,9.71Z" fill="#fff"/>
  <path d="M86.53,782.58c.28.38,1.33-.14,1.05.85-1.69-.22-1.15,1.69-2.34,2.59-6,4.55-38.3,4.57-43.52-.77-.49-.5-.41-1.48-.79-2.01-.55-.76-1.63.05-1.35-1.44,2.24-1.74,3.03-5.01,5.24-7.26,8.07-8.22,25.45-9.54,34.44-2.17,3.08,2.52,5.01,7.11,7.26,10.21Z" fill="#fff"/>
  <path d="M104.52,671.22c5.08-.75,9,.06,13.27,2.83,2.65,1.72,10.06,8.41,5.27,11.1-5.89,3.31-19.93,3.71-26.43,2.17s-7.65-4.25-3.47-9.71c2.44-3.19,7.37-5.8,11.36-6.39Z" fill="#fff"/>
  <path d="M440.4,731.75c3.55,3.84,3.23,8.19-2.36,9.34-3.52.72-20.87,1.29-21.64-2.76,2.88-9.15,17.2-13.94,24.01-6.58Z" fill="#fff"/>
  <path d="M365.03,438.37c3.28-2.22,19.82.59,18.37,5.5-1.57,5.28-18.28,1.52-18.37-5.5Z" fill="#fff"/>
  <path d="M306.26,185.71c.77-.94,2.78-4.61,3.86-4.35,4.5,5.77,7.55,16.88,2.65,23.02-4.22,5.29-10.07.76-10.8-4.35-1.03-7.2.16-9.28,4.29-14.32Z" fill="#fff"/>
</svg>