<?xml version="1.0" encoding="UTF-8"?>
<svg id="Camada_1" xmlns="http://www.w3.org/2000/svg" version="1.1" viewBox="0 0 595.28 841.89">
  <!-- Generator: Adobe Illustrator 29.0.0, SVG Export Plug-In . SVG Version: 2.1.0 Build 186)  -->
  <path d="M.14,841.29V-.06h595v841.34H.14ZM590.54,3.89H4.08v201.79c8.67.15,16.66,2.88,24.32,6.58,3.97-16.46,10.53-31.91,23.1-43.59,29.17-27.08,77.99-27.5,105.37,2.24,1.12,1.22,1.68,3.72,3.06,4.83,2.35,1.89,8.09,2.79,10.1,6.33,1.22,2.16.59,4.53,1.19,5.72.11.22,2.85,1.85,3.77,3.13,4.39,6.1,6.65,11.89,4.59,19.53-.19.71-1.88.09-1.28,1.8,19.34-.59,37.44,10.58,52.93,21.03,2.56-21.88,13.95-39.34,35.83-45.67,35.95-10.41,66.14,10.53,67.72,47.65,7.82-3.08,15.73-6.09,24.33-5.91-.19-12.33,6.04-29.28,14.76-38.15,2.28-2.32,10.05-6.48,10.88-7.53,1.1-1.4.49-4.39,1.56-6.67.47-1,5.84-6.87,7.63-5.51,1.2-2.3-9.43-6.34.46-11.05s21.03.59,24.92,10.29c35.43-8.74,79.49,3.7,97.9,36.9,5-5.63,7.76-13.29,12.8-18.73,14.35-15.5,40.1-22.65,60.5-16.74V3.89ZM155.29,175.44c-12.63-22.23-46.13-26.58-69.03-21.36-33.55,7.65-55.92,37.87-55.88,71.97l8.77-8.97c32.73-25.81,74.09-41.75,116.13-41.64ZM408.42,205.02c3.57.91,4.73-4.47,5.59-7.23,2.48-7.89,4.61-22.63.46-30.04-3.41-6.1-15.83-8.25-21.17-3.14,3.18,5.85,10.18,8.96,16.69,6.94l.96,1.06-2.52,32.42ZM513.22,208.05c-13.47-23.57-39.62-35.9-66.31-37.24-5.67-.28-21.31-.03-26.15,2.17-3.39,1.54-1,4.18-1.14,6.7-.1,1.92-1.76,12.98-1.32,13.49,34.38,4.74,68.04,14.75,99.6,28.93,1.77.7.71-2.41.52-3.16-.98-3.92-3.35-7.64-5.21-10.89ZM407.77,174.79c-4.46.97-7.69-1.23-11.51-2.65-.77-.29-.51-1.13-1.63.34,2.21,5.68,7.76,5.62,13.08,4.88l.06-2.57ZM590.54,187.93v-12.16c-21.05-8.45-50.04,2.2-62.46,20.7,18.55-11.02,41.53-13.29,62.46-8.54ZM392.31,174.14c-2.5,2.35-4.66,6.4-3.27,9.83,3.28,8.08,9.19-6.96,3.27-9.83ZM167.42,185.03c-3.81-6.2-4.71-6.39-12.42-6.99-34.26-2.66-99.18,22.19-121.31,49.02-5.41,6.56-10.1,17.35-.19,21.58,21.49-10.71,45.42-17.41,66.49-28.91,11.08-6.05,19.59-13.51,26.84-23.83,13.36,6.59,27.31,9.61,42.27,7.15.99,2.79-2.26,1.68-2.55,2.93-.26,1.11,1.76,2.51,1.99,3.24.51,1.6,2.06,11.54,2.86,11.56,4.71-7.13,7.57-16.61,3.73-24.75-1.41-2.98-5.48-7.36-7.71-11.01ZM398.33,179.44c-3.86,6.32-6.61,20.09-1.11,25.94,2.03,2.15,7.5,5.36,9.73,1.97-2.7-8.36-.68-17.75.76-26.23l-9.37-1.68ZM393.95,206.33c-2.22-5.45-3.58-10.74-2.04-16.66-.09-.3-4.7-3.55-5-3.62-2.68-.6-16.82,12.93-16.61,15.36l23.66,4.92ZM328.49,218.56c-10.23-28.1-38.03-37.51-65.35-26.33-29.23,11.97-26.69,37.1-31.78,62.88-1.62,8.23-8.19,23.37-8.34,29.8-.14,5.8,2.54,13,5.93,17.7,1.4,1.94,3.98,3.69,5.57,5.57,3.83-3.16,7.97-7.07,12.56-9.1,5.16-2.28,12.32-2.5,16.7-4.33,2.36-.99,2.77-4.87,1.82-6.77-.23-.46-7.18-4.61-8.41-5.91-2.51-2.66-6.7-12.75-7.31-13.2-.44-.33-2.73.04-3.9-.37-15.3-5.32-15.33-19.91-.58-25.13v-14.24s-3.33-1.11-3.33-1.11c.07-.53-.13-1.81,0-1.95.39-.42,9.12-1.66,11.17-2.31,6.58-2.08,14.55-5.44,20.21-9.38,3.98-2.77,6.51-6.49,10.39-8.45,9.99,11.39,25.53,16.9,40.42,17.51.67.65.18,15.64,1.44,18.6.72,1.7,2.93,1.38,4.16,2.42l4.25,5.93c-1.73-9.98-1.51-21.4-4.66-31.02-.18-.54-.91-.63-.97-.79ZM590.54,191.22c-16.85-4.2-39.28-3.35-55.01,4.48-6.54,3.26-20.18,12.52-14.82,20.98l1.12.82c19-14.17,46.11-14.64,68.71-10.51v-15.78ZM520.18,241.17c.74-3.46,1.57-13.23-1.04-15.72-1.08-1.03-21.26-8.6-24.42-9.76-25.13-9.2-51.14-15.45-77.41-20.54-.92,5.08-2.98,9.96-6.91,13.5-.23,1.5.31.74.98.97,5.86,1.95,15.98,2.85,22.58,4.39,29.43,6.84,58.41,15.45,86.22,27.18ZM163.75,207.09c-12.74.6-25.42-2.13-36.71-7.98-8.56,16-27.03,24.68-43.31,30.99,1.05,10.98-8.2,23-7.27,33.04.4,4.34,2.81,9.89,3.21,14.53,1.25,14.44-1.92,26.75-12.43,36.89,8.71,12.09,36.38,24.7,50.15,17.23,5.57-3.02,11.04-15.64,1.05-14.75-1.02.79-.37,6.57-2.26,5.64-2.99-3.15,1.23-9.21-.66-12.49-11.81-2.97-21.12-8.03-29.25-17.1l.35-1.31c2.52-1.87,6.67,4.57,8.89,6.2,22.58,16.57,59.09,13.88,70.61-14.08,7.46-18.11,4.63-51.53-.08-70.23-.57-2.26-1.64-4.34-2.31-6.57ZM519.44,243.89c-35.76-14.82-73.49-24.58-111.43-32.21-1.86-.37-3.98.22-5.79-.13-10.31-2-21.18-5.52-31.71-7.16-1.51-.26-1.69.47-2.35,1.47-4.52,6.89-6.54,20.95-5.75,29.04.3,3.09,1.57,4.77,1.96,7.58l3.84-14.31-1.21-3.43c11.09.27,23.55-2.98,33.12-8.63,1-.59,1.62-1.36,1.74-2.54h.95c11.96,18.84,34.04,26.16,55.57,21.69-1.79,11.65.88,27.57,15.04,28.84,2.69-9.74,16.51-14.69,24.43-8.15,9.89,8.18,7.01,21.18-.34,29.93-1.91,2.28-4.71,4.98-7.56,5.92,4.57,4.9,1.61,14.35-4.91,16.45-2.5.81-7.95.14-8.91,1.77-4.97,16.91-2.39,43.57,21.7,37.31,3.75-.98,7.87-4.4,10.89-4.88,15.89-2.53,26.34,26.49,29.88,38.07,6.18-14.71,2.22-31.83-1.39-46.79s-9.44-32.5-12.38-47.69c-2.69-13.9-3.68-28.11-5.39-42.15ZM564.16,207.74c-6.32-1.25-5.28.98-7.8,3.53-7.73,7.84-16.18,12.11-26.81,14.94-3.81,18.19-3.16,48.47,11.26,62.05,13.5,12.72,37.07,12.28,49.59-1.54l.05-60.58c-9.54-3.27-23.3-7.52-26.29-18.4ZM590.54,222.77v-11.5c-1.79-2.32-23.36-4.62-23.68-3.28-.17,5.19,22.57,16.02,23.68,14.78ZM4.08,208.97v337.19l1.34-12.02c3.33-22.02,6.09-45.5,12.57-67.11.96-3.2,7.15-20.64,7.08-21.78-.06-.94-5.39-10.92-6.22-14.08-.67-2.56-1.99-8.74-2.32-10.83-.19-1.19.35-6.66.05-6.94-4.74.65-7.19-1.78-7.83-6.3-.74-5.27,1.71-20.84,2.75-26.71,1.12-6.33,3.39-13.03,5.04-19.28-2.34-4.05-5.9-8.26-7.78-12.53-10.6-24.09,8.74-44.72,15.38-67.95,1.62-5.65,5-17.5,5.64-22.6,1.19-9.45-3.78-8.31-4.67-15.18s2.29-9.16,2.61-13.19c.3-3.75-1.43-9.69-.27-14.1-7.06-4.04-15.2-6.22-23.37-6.58ZM554.38,208.97c-11.48,1.02-22.86,4.94-32.25,11.63,3.15,12.66-.88,25.72,1.44,38.55l9.78,51.03c3.02-1.41,5.9-3.24,9.02-4.45s11.39-1.42,10.72-5.7c-.42-2.66-4.79-2.86-7.04-4.19-20.52-12.18-24.32-43.73-21.23-65.38.04-.31,3.69-4.14.08-5.14l-.1-1.23c10.91-2.02,22.24-6.63,29.58-15.12ZM321.64,226.05c-14.28-.24-28.04-6.32-38.46-15.79-9.74,9.41-22.38,14.36-35.05,18.54-.77,20.38-.39,48.91,21.78,58.51,15.99,6.92,34.06,1.93,44.12-12.02s9.06-32.27,7.62-49.24ZM225.39,266.57c1.45-5.37,6.98-26.48,4.89-30.36-.68-1.27-13.66-9.21-15.9-10.39-6.36-3.38-30.62-13.98-36.74-10.61-.53.29-5.81,9.53-5.94,10.49-.53,3.79,1.25,9.78,1.37,13.8.52,18.46,1.88,40.23-9.62,55.51-1.44,1.91-6.59,5.86-6.86,7.65l4.65,20.63,62.33-.06,8.66-12.72c-11.51-10.17-13.72-20.39-10.35-35.3.69-3.05,2.99-6.76,3.5-8.65ZM456,253.44c-1.69-4.61-.98-9.92-2.17-14.62-19.24,2.06-40.23-3.99-51.13-20.57-9.86,4.22-19.56,9.53-30.68,9.2-5.12,16.86-9.09,40.16-7.63,58.07,4.15,50.8,59.8,54.97,93,27.93,1.76-1.44,6.35-7.03,7.57-7.56s1.23-.17,1.98.68c.94,3.65-17.6,16.34-21.25,18.18-9.76,4.92-20.47,7.24-31.35,7.78l3.94,10.16-1.99.7c-1.79-1.07-1.22-6.98-3.92-6.92-1.38,25.49,32.52,17.94,46.1,8.95,2.85-1.89,12.44-9.68,13.05-12.59,1.35-6.41-1.12-16.23,2.5-23.13l-7.05-9.88v-2.31c2.53-4.39,3.99-10.25,10.31-11.5,7.58-1.5,9.07,4.53,14.02,2.18,13.87-6.6,12.25-41.04-8.62-30.96-8.42,4.07-4.12,12.66-15.28,8.11-3.96-1.61-9.98-8.02-11.4-11.92ZM80.34,231.98l-47.66,20.37c-1.67,14.91-5.67,31.68-11.5,45.69-2.39,5.74-6.21,10.74-8.4,16.58-5.7,15.21-5.99,29.5,5.12,42.23,5.26-10.61,9.34-19.81,18.71-27.61,11.21-9.34,27.98-11.49,35.31-25.17,6.6-12.3,5.14-21.04,2.4-33.57-3.46-15.83,1.48-15.1,4.51-27.87.83-3.49,1.43-7.05,1.5-10.65ZM363.34,246.85c-.91-1.76-2.2-3.61-2.72-5.53-.63-2.31-.57-8.07-1.92-8.59-3.55-1.64-22.12,3.49-23.13,6.26-.08,4.79.71,9.89,1.64,14.58,3.18,16.11,11.84,24.72,6.62,42.97-1.85,6.46-4.65,6.99-8.34,12l10.18,15.46c2.42-17.8,12.26-34.41,15.28-51.76,1.22-7.03.97-15.61,2.16-22.72.08-.5,1.22-.51,1.31-.8.5-1.76-.88-1.55-1.04-1.86ZM328.48,248.13c-.73-.73-2.78-3.7-3.46-1.27-1.02,3.65.2,11.62-1.41,16,7.42-1.77,10.81-8.76,4.87-14.73ZM248,265.49l-3.6-19.03c-9.93,4-7.53,19.29,3.6,19.03ZM334.78,251.69l-1.31.98c.63,6.46-1.72,9.11-6.78,12.29-1.49.94-3.84,1-4.73,1.84-.79.74-2.34,6.04-3.43,7.71-1.4,2.15-5.63,7.29-7.49,8.98-4.6,4.2-9.57,3.58-7.74,11.51.51.67,14.33,3,16.37,3.68,3.03,1.02,12.11,7.53,12.85,7.6,4.59.4,9.92-13.53,10.17-17.43.5-7.67-1-8.75-2.58-14.69-1.97-7.43-4.26-14.83-5.34-22.47ZM396.91,333.2c4.71-.45,10.02.33,14.79,0l-.97-1.32c-28.71,1.44-49-20.22-49.98-47.99-5.41,18.13-12.74,35.29-14.7,54.33-1.13,11-2.05,21.61,4.52,31.13,11.74-15.67,24.87-34.09,46.34-36.15ZM476.61,289.3c-7.52,1.77-8.19,16.57,1.91,17.56,13.86,1.36,13.53-21.19-1.91-17.56ZM300.6,290.47c-10.9,3.85-22.15,3.57-32.87-.65l.65,9.85c-2.87.92-1.53-2.09-3-2.55-1.15.63-6.64.55-6.21,2.22,2.12,1.64,2.83,4.53,4.93,6.91,11.24,12.73,41.65,12.2,47.01-6.57-1.93-.09-6.71-2.18-8.19-2-.65.08-.28,3.24-2.33,2.65v-9.86ZM590.54,313.15v-22.02c-9.41,8.13-22.67,10.63-34.84,8.54l.65,7.89c-2.45.74-1.98-1.97-3.59-2.03-9.91-.35-1.05,9.49,2.61,11.89,9.71,6.38,26.94,3.69,35.17-4.27ZM330.18,341.41c.57,5.03-.42,10.97,0,16.1l12.21-1.93c-1.02-7.73,2.75-18.87,2.04-25.92-.88-8.7-15.15-23.95-23.21-27.27s-6.25-1.4-9.57,3.4c-12.92,18.68-47.48,14.72-55.48-6.71-25.25,5.86-35.85,33.86-39.79,56.8l.19.87c8,3.17,17.01,3.88,25.53,2.74.03-8.4-.09-17.55,2.31-25.63.3-1.02.59-4.08,1.95-3.95,2.06,1-.82,11.56-.96,14.14-.32,5.83-.33,27.1,3.07,31.26,1.1,1.36,6.71,2.71,8.61,3.05,13.51,2.46,50.82,2.79,63.29-2.09,4.66-1.82,6.78-20.9,6.82-25.66.08-7.56-1.25-15.14-3.57-22.33.83-.97,1.24-1.57,2.28-.33.45.54,4.14,12.11,4.29,13.45ZM153.32,304.28c-10.41,4.85-22.2,7.99-33.8,6l-.42,4.23c16.74,1.4,30.75,14.12,34.24,30.52,11.75-12.64,2.39-27.09-.01-40.75ZM590.54,403.53v-86.76c-14.7,10.78-38.23,10.08-45.78-8.49l-10.13,5.52c4.98,18.19,11.81,38.75,9.21,57.84-.58,4.23-3.46,10.52-3.6,13.15-.23,4.41,3.99,12.32,3.73,17.32,15.21,4.18,31.07,2.89,46.57,1.43ZM65.76,316.89c-.86-.46-12.91,5.31-14.79,6.33-19.66,10.74-28.93,26.62-34.45,47.74-1.24,4.74-6.45,34.86-4.55,37.16,15.75-5.99,33.93-8,49.96-1.97l.66-44.36,1.64-.33c1.66.92,2.36,22.07,2.27,25.94-.08,3.54-.76,18.9-1.71,21.22-.67,1.62-5.38,3.41-5.96,4.41-.27.46.65,9.87,1.09,10.58.32.53,9.87,6.38,10.53,6.56,10.73,2.96,49.7,2.9,59.14-2.71,7.05-4.19,12.34-27.72,13.93-35.9s.78-7.52-.04-14.79c-.77-6.78-1.79-13.75-1.68-20.58.61-1.27,2.84,2.33,2.9,2.52,3.5,10.56,2.93,27.27,1.39,38.24,1.09.97,17.17-5.61,17.6-7.63l-15.31-50.21c-4.72-8.99-12.22-17.97-22.68-20.38.91,7.1-1.2,12.5-7.67,15.66-15.39,7.52-42.18-4.95-52.28-17.51ZM4.08,644.76v192.59h431.95c-4.21-16.18-8.24-33.45-13.87-49.43-.22-.62-1.19-.67-1.44-1.35-1.46-4.05-9.29-28.08-12.14-28.72l-14-1.07c-1.14.85.14,13.84-5.26,17.78s-29.46,9.96-36.66,11.33c-12.65,2.41-47.91,6.07-53.24-9.47-6.32-18.41,25.64-29.91,39.31-29.78-4.61-3.17-25.29-9.01-26.1-14.85,2.48-13.66,2.72-27.62,4.35-41.38,3.39-28.61,8.03-59.8,12.51-88.18,1.42-9.01,2.31-18.16,3.97-27.13-25.99.46-54.15-3.68-75.27-19.73-14.26-10.84-22.74-27.78-25.78-45.21-1.36-7.77-1.06-10.4-3.51-18.19-5.09-16.21-3.96-26.67,5.28-41.1-15.03,2.65-24.09-3.41-22.18-19.22.58-4.78,4.22-8.84,4.73-12.88.56-4.43-.95-11.35-.97-16.17-.04-9.55.07-19.1.02-28.64-17.22,2.97-33.72,7-50.62-.34-.34-1.68,2.72-1.01,3.59-.96,4.62.25,9.82,2.25,14.5,2.6,11.82.87,21.61-3.34,33.19-3.92l1.08-10.24c-8.47-3.58-2.43-8.25-3.03-14.42-16-5.88-32.55,7.6-48,0,.05-1.59,11.49-.2,13.45-.34,11.74-.85,23.21-6.77,35.78-2.67l5.98-17.69h-59.82c.3,7.8-.53,16.95-7.12,22.08l12.35,41.44c-.07,3.5-5.68,4.04-7.92,5.92-.35,1.39,6.6,24.98,7.75,27.67.34.8,1.3.84,1.69,1.66,3.14,6.64,14.48,26.78,20.16,30.42,4.72,3.03,20.12,2.38,22.04,6.88,1.1,2.52.09,4.43-1.96,5.9l-10.18,4.27c1.35,2.33,4.07,3.76,5.6,5.58,3.24,3.88,12.29,15.37,10.02,20.24-.32.68-4.48,2.42-4.94,2.94-1.47,1.66-.77,4.91-5.27,5.63-2.59.41-4.27-1.22-5.63-1.02s-3.23,2.93-6.01,3.01c-12.25.35-24.76-24.39-23.66-35.4-14.71-9.23-26.62-22.48-35.19-37.45-.16,9.7,5.56,18.42,7.33,27.83,1.76,2.62,8.26.89,9.06,6.08.66,4.25-2.16,6.37-6.12,6.19-1.86.67.79,2.21,1,2.87.95,2.99,1.32,8.55,2.3,10.77.79,1.79,5.46,3.22,6.1,7.1.9,5.48-2.83,5.36-2.95,7.56-.15,2.97,2.39,11.62,2.9,15.49,2.38,18.12,5.35,35.35,7.31,53.82,2.19,20.66,3.26,41.6,4.48,62.3-1.25,3.91-20.85,10.57-25.19,12.28l-1.58,13.4c10.36,5.8,24.96,7.05,34.44,14.23,7.95,6.02,11.99,15.46,2.93,22.61-13.83,10.92-50.82,5.69-66.88.57-26.17-8.34-12.1-22.88-11.96-42.92l-32.21.67c-1.72,4.39-1.18,9.36-1.69,14.45,7.35,3.72,27,15.99,28.48,24.15,3.51,19.33-18.51,21.53-32.41,20.57-12.18-.84-28.32-6.88-36.8-15.79-3.36-3.54-7.05-8.45-6.89-13.46.19-5.82,3.78-13.75,4.5-20.49.5-4.69.55-10.16.64-14.92l-16.32-6.36ZM410.39,336.49l-13.18.28.12,10.8c3.31.81,10.96-1.2,11.74-4.86.53-2.5-1.15-4.66,1.33-6.22ZM464.97,343.73l8.31,7.82,4.76-4.36-5.51-10.69c-2.56,2.38-3.82,6.43-7.56,7.23ZM394.61,337.15c-13.5-1.76-5.26,20.79-1.59,26.89,19.03,31.65,78.34,17.55,93.56-12.22l-5.8-3.18c-14.89,17.1-38.76,28.27-61.71,22.88-14.91-3.5-27.83-18.65-24.46-34.37ZM384.09,351.27c-.42-3.36.3-7.4,0-10.85-19.68,10.15-32.73,32.54-42.55,51.75-2.78,5.44-8.75,15.12-9.76,21.23-.45,2.73,2.06,5.11,2.44,7.78l26.86,1.41c-2.7-12-1.68-24.62,2.04-36.28l10.63-18.75,2.72-.8c2.71.81-3.14,6.68-4.08,8.31-6.14,10.68-11.1,25.75-9.98,37.98.35,3.84,1.7,6.29,2.61,9.89,24.62,5.44,49.43,16.2,62.25,38.99,20.86,1.11,43.11-.32,62.59-8.19-.01-5.85-.2-11.81-.58-17.65-.79-11.96-3.94-27.44-3.69-38.92.02-.84.04-2.5,1.39-2.17,1.8.92,2.59,21.58,2.99,25.16.05.48,1.22.24,1.34,1.41,1.29,12.15,1.43,24.55,2.02,36.75l1.21.76c1.09-1.27,10.66-6.07,11.19-3.28.36,1.88-4.57,2.51-5.95,3.24-15.35,8.11-27.67,18.25-41.74,27.94-4.04,2.78-9.99,5.48-13.68,8.53-.73.61-.34,1.94-.43,2.01-.42.34-8.19-3.7-9.89-4.24-5.99-1.9-27.54-6.05-32.16-1.97-.73.64-1.21,1.49-1.17,2.49.13,7.06,18.12,5.81,17.96,9.69-.04.84-2.79,7.18-3.42,8.42-3.41,6.78-9.54,12.19-15.73,16.48-4.43,3.07-17.48,7.09-14.33,13.69,1.48,3.1,16.97-2.32,19.94-3.49,3.63-1.43,8.35-4.94,11.17-5.93.77-.27,2.98-1.06,2.65.67-8.47,7.66-19.99,10.46-30.89,12.84.73,6.63,14.19,3.16,18.7,1.92,6.69-1.83,13.53-5.74,19.11-9.8.85.75,1.18.78.67,1.96-1.87,4.3-19.57,11.29-24.66,11.83,1.42,1.9,6.01,1.47,8.24,1.33,18.2-1.18,34.58-13.57,43.07-29.24,32.28-10.16,82.2-21.3,91.31-59.24,6.4-26.65-4.8-93.72-23.95-114-11.01-11.66-12.46-2.77-22.14-.44-3,.72-5.67.29-8.67.54-13.87,30.7-66.12,44.94-92.12,22.9-5.05-4.28-12.68-16.12-13.49-22.66ZM399.22,350.95c-.86.72,7.82,14.55,11.17,13.53,1.11-.51,5.84-10.1,5.72-11.24-.06-.63-4.55-4.56-4.74-6.23-2.49-1.96-7.67,6.02-12.15,3.94ZM456.78,361.1c.47.44.81,1.49,1.36,1.63l13.37-8.83c-6.78-7.43-9.57-8.71-17.65-1.85.03,3.04.67,6.95,2.92,9.05ZM451.15,352.91l-13.51,3.9.99,12.26,15.54-4.31-3.02-11.84ZM424.53,370c3.4.39,7.38-.28,10.85,0l-.65-13.15-16.02-2.02-5.66,10.91c.17,1.44,9.8,4.07,11.48,4.27ZM343.33,358.83l-13.81,1.97c-.15,1.3.3,2.93-.02,4.14-3.14,11.69-3.41,23.43-.05,35.17.56,1.96.67,4.63.73,6.7,1.24.27,1.27-.37,1.81-1.14.73-1.06,10.68-21.29,11.03-22.5,2.14-7.31.71-16.78.31-24.34ZM232.88,444.94v-9.53c0-4.72,4.82-11.77,5.2-14.49.76-5.43-2.57-11.33-1.96-14.47,1.2-6.19,2.41-13.35,3.52-20.15,1.31-8.02,4.88-15.95,3.1-24.18-7.71,1.52-15.36.32-23.01-.66.35,2.79-.54,5.44-.69,8.19-.83,15.52,1.42,32.78.43,47.91-.63,9.7-9.8,22.15,1.25,30.67l-2.32-10.17c3.28-1.42,3.29,5.37,5.26,7.88,1.7,2.17,5.16,3.55,7.9,2.94-3.8-5.61-8.54-10.49-7.23-17.75h3.29c-.52,5.11.59,10.96,5.26,13.81ZM345.3,377.89l3.85-5.7-3.85-5.47v11.17ZM240.76,408.78c1.76-11.16,6.88-22.78,4.6-34.17-1.46,2.22-1.83,5.87-2.32,8.51-.98,5.34-2.35,12.26-2.84,17.54-.21,2.23-.62,6.18.56,8.12ZM248.22,380.71c-.62,2.56-.18,6.23-.61,9.03,5.66,2.23,13.57,4.76,19.62,3.76,11.1-1.83,14.89-6.21,28.91-4.27,4.09.57,8.5,4.23,11.24,4.22,2.23-.01,15.85-3.94,16.24-6.06.21-1.13-.78-8.48-1.72-8.78-23.65,5.05-48.57,5.63-72.29.71-.2.48-1.38,1.29-1.41,1.39ZM306.31,397.15c-6.48-8.95-26.86-5.8-35.75-2.29-26.17,10.32-41.04,37.31-31.13,63.58,1.63,4.32,3.54,8.86,6.94,12.13,1.74.03.74-2.55,1.63-4.12.28-.5,3.78-3.93,4.39-4.3,3.74-2.26,7.89-.61,9.81-2.02.36-.26,3.62-7.1,3.87-7.96,2.77-9.5.92-18.57-5.56-25.96l1.95-.66c5.09,4.34,12.33,2.91,14.65-3.76,1.4-4.04-.15-12.62,3.76-11.33l.08,9.42c5.59,2.3,10.21-1.28,11.95-6.62,1.23-3.77-.54-13.84,3.69-10l.06,10.13c8.09,1.11,14.46-9.6,9.66-16.23ZM328.21,409.44l-4.28-18.4-14.78,4.61c-.25,4.8,6.71,4.42,10.73,6.69,3.61,2.03,5.07,5.07,8.33,7.11ZM261.15,396.3l-13.83-3.67-5.23,21.4c4.59-7.6,12.06-12.52,19.06-17.74ZM156.59,396.97l-11.72,3.38c-2.24,6.28-3.84,12.84-6.17,19.12-.87,2.35-4.1,7.12-4.33,8.87-.86,6.42,15.34,25.23,20.26,30.07,3.19,3.14,14.03,10.91,15.71,13.22,1.35,1.86,2.9,12.21,4.37,16.01,2.35,6.09,13.67,23.27,21.07,16.45.94-2.02-10.71-10.46-9.58-14.46.51.04,1.2-.13,1.6.03,1.31.55,8.05,11.15,10.92,12.75s6.08,1.77,7.75-1.43c1.05-4.69-11.45-12.16-11.06-14.31.14-.76,1.08-1.08,1.98-.68.32.14,5.05,3.82,5.57,4.29,1.53,1.36,5.49,7.17,5.95,7.26,3.77.72,1.8-5.2,1.08-7.05-.66-1.69-13.63-18.61-14.73-19.12-2.31-1.09-10.83.71-11.03-4.75,7.57,2.42,16.34,3.03,23.48-.84.53-.7.97-1.56.55-2.44-1.26-2.66-16.65-3.53-20.07-4.96-5.21-2.17-21.49-28.31-24-34.51-3.41-8.43-4.61-18.28-7.6-26.92ZM328.47,415.76c-4.31-6.78-9.29-12.95-18.01-13.55.47,6.14-2.07,12.02-8.36,13.67-1.82.48-3.96-.25-5.68.26-2.82.83-8.05,11.11-15.77,6.53-3.22,5.93-7.08,8.79-14.24,7.82,6.09,9.02,4.2,21.95-1.95,30.57l2.59,1.96c-2.78,2.59-5.86-.61-9.34-.2-11.75,1.38-9.62,21.43,3.73,22.91,3.64.4,10.86.07,12.29-3.88l1.55-.09c2.26,5,13.8,8,19.09,8.52,22.3,2.23,57.73-12.75,54.16-39.69-1.48-11.14-9.23-10.69-13-16.58-2.82-4.4-2.75-11.47-7.06-18.24ZM56.02,406.81c-11.83-1.76-24.56-2.38-35.86,1.95-.85,8.48.06,17.95,2.97,26,8.81,24.43,48.65,37.06,71.64,42.75,6.86,8.85,10.4,18.04,20.47,24.24,3.88,2.39,12.99,7.01,17.05,3.67-2.46,1.6-19.46-12.41-15.44-13.16,8.46,6.8,18.2,15.62,29.91,11.83.23-1.63-.07-1.03-.91-1.38-5.12-2.1-10.23-3.04-14.89-6.8-.84-.68-7.86-7.64-4.24-8.24.72-.12,4.34,4.53,5.63,5.53,3.3,2.54,12.15,7.82,16.2,7.45,1.28-.12,1.96-.88,2.13-2.12-1.43-5.29-7.12-7.08-10.83-10.86-1.34-1.37-9.56-11.75-9.55-12.84l1.68-1.65c2.8.99,14.38,1.17,15.35-1.72.29-.99.17-1.77-.57-2.54-.5-.52-11.42-4.01-13.51-4.89-10.35-4.37-19.65-5.6-28.37-9.1-7.2-2.89-23.93-14.04-31.19-18.77-5.95-3.88-12.73-8.22-17.67-13.23v-16.1ZM590.54,406.16l-45.39.34,2.45,11.37c14.21,2.16,28.8,2.04,42.94-.53v-11.17ZM590.54,528.74v-108.78c-14.17,3.57-29.13,3.46-43.39.66,3.86,16,3.98,34.37-1.3,50.3s-15.32,23.49-28.74,32.16c3.25,11.69,5.12,23.7,7.63,35.56.21.98,1.16.79,1.4,1.94,2.07,9.97,3.27,20.39,4.66,30.49l13.73,2.04c-1.93-19.54-4.5-40.51-3.31-60.16.09-1.45.67-8.38,1.68-8.84l6.41,10.03c5.36,14.06,9.6,28.54,12.99,42.87.23.99-.49,1.16,1.29.98-.24-15.91.28-31.8,1.99-47.61-14.61-17.36-7.97-47.7.53-66.54,2.29-5.07,8.21-15.97,14.21-8.06,11.73,15.45,9.99,61.24-5.53,75.24l-1.99,62.76h4.6c1.01-8.19,2.81-16.85,5.17-24.73,1.52-5.09,7.08-15.48,7.99-20.3ZM378.15,441.62c.42-3.62,1.94-7.65,4.62-10.15l-1.1-.86c-14.62-4.96-30.12-7.04-45.57-6.7-.3.3.66,7.9,1,8.54,2.35,4.48,11.99,3.5,15.69,4.04,8.6,1.25,16.85,3.63,25.37,5.14ZM130.95,442.94l.02-13.12c-16.96,7.25-36.56,5.85-54.56,3.95,4.23,2.42,16.83,12.36,20.74,13.1,9.71,1.85,24.12-1.98,33.8-3.93ZM407.76,444.93c1.49-1.84-19.11-12.6-21.4-12.44-3.16.22-6.82,9.6-5.15,11.21l17.68,8.54c1.16-.03,5.26-8.29,8.87-7.31ZM577.3,435.82c-3.1-1.65-8.7,9.37-9.62,11.57-3.24,7.71-5.74,17.85-6.72,26.15-.28,2.42,1.15,8.2-1.32,8.21l1.31.65c-1.44,1.32-2.51,1.37,0,2.3.54,1.42-2.06.81-1.31,1.63.05.05,1.22-.2,1.32.44.82,5.5.09,20.01,8.26,21.24,6.61,1,9.59-7.25,11.26-12.33,5.75-17.56,5.77-36.33-.27-53.9-.74-2.17-1.92-3.94-2.91-5.96ZM403.49,487c3.2-.28,6.63.2,9.86,0,5.48-16.69-12.04-30.99-25.4-37.71-12.34-6.2-28.21-9.84-41.99-10.27,7.05,8.28,6.16,18.6,2.63,28.25,13.79-.58,27.58,4.69,39.12,11.83,2.36,1.46,11.38,9.39,12.14,9.5,1.66.24,2.9-1.54,3.63-1.61ZM132.58,447.93c-.6-.83-.37-2.34-1.93-2.38l-28.6,4.3c5.43,5.06,13.37,4.2,20.51,6.45,5.19,1.64,9.8,4.73,14.99,6.37-1.38-4.64-2.24-10.96-4.96-14.74ZM421.99,458.31c-1.32-2.01-8.8-10.95-10.77-11.29-3.11-.54-8.81,3.46-9.28,6.31-.37,2.29,10.36,10.73,11.52,13.89l12.04-1.25c.37-.31-3-6.87-3.52-7.66ZM97.7,487.41c-1.37-1.91-2.16-5.6-3.95-6.9-2.81-2.05-25.27-7.47-31.4-10.02-12.4-5.16-24.43-12.5-34.26-21.64l-1.32.04c-1.89,4.97-3.74,10.01-5.27,15.11-9.3,31.07-12.63,66.33-16.16,98.23-2.86,25.9-.45,52.25-1.31,78.29l.68,1.95c41.19,14.48,89.09,15.4,131.13,3.55,9.22-2.6,18.55-5.82,26.52-11.27l-5.71-71.21c-.04-1.16-1.27-.67-1.42-1.89-2.18-18.34-3.9-36.71-6.83-54.95l-.67-.61c-3.4,2.75-8.22,1.01-11.15,1.33-1.92.21-4.11,1.88-6.64,1.95-13.28.37-25.25-12.16-32.26-21.95ZM236.41,460.47c-.87-1.67-.36-4.09-2.21-5.02-5,10.68-7.9,23.79-2.31,34.83,1.21-4.35,5.46-5.88,8.72-8.19-3.16-4.28.27-10.96-.04-14.4-.2-2.19-3.27-5.52-4.16-7.23ZM431.47,480.39c10.41-.14,23.59.79,33.48-2.93,7.37-2.77,16.21-12.18,24.03-15.41l.96-5.28c-19.64,7.23-40.94,8.44-61.79,7.89l3.33,15.73ZM428.11,488.28c1.3-6.19.29-12.81-1.9-18.74-2.09-2.18-8.51-.65-11.19.42.98,5.88,2.96,10.97,1.28,17.04l11.81,1.28ZM398.11,496.66c-1.15-2.29.51-4.79-.81-6.74-1.81-2.68-13.36-9.82-16.7-11.57-10.44-5.46-21.13-8.64-32.99-9.16-9.86,14.09-26.35,23.42-43.71,23.74,8.63,3.44,20.63,2.35,28.95-1.62,2.22-1.06,8.92-7.11,9.47-6.92,4.96,1.7-8.47,9.42-10.17,10.17-13.11,5.77-25.18,2.25-37.57-1.13-6.35-1.73-12.95-2.45-18.64-6.26-3.88,4.32-8.01,9.07-8.26,15.21,29.83,13.32,66.11,16.2,98.16,10.07,11.68-2.24,25.51-6.12,34.44-13.65-.26-1.26-1.93-1.69-2.16-2.14ZM140.74,476.58c-.24-.15-5.79-.79-5.16.88l7.21,8.89-2.06-9.77ZM459.7,481.75c-9.39.77-18.81,3.28-28.27,1.31l-.72,6.15c1.99.02,10.15,4.29,10.8,4.26,2.81-.16,14.78-9.91,18.19-11.71ZM242.07,485.04c-18.05,7.42-1.57,17.65,6.9,24.31,1.6-1.53.75-3.66,1.5-5.74.95-2.63,3.5-3.53,4.1-6.07-5.11-3.03-10.03-6.86-12.5-12.5ZM278.21,509.39c-10.47-1.29-24.95-19.5-26.34.94.31,2.4,18.68,10.25,22.05,10.78l4.29-11.72ZM259.18,527.09c-2.14-2.59-.45-7.4-1.92-9.58-1.94-2.87-20.51-10.74-23.06-16.71-.67,13.46,13.86,22.17,24.98,26.28ZM415.65,504.1l-12.78-3.31-11.54,6.6c2.96,3.72,3.72,7.8,3.29,12.48,8.1-2.53,19.51-6.03,21.03-15.77ZM427.81,754.52c3.7.21,7.47-.16,11.18,0,1.47,0,.1-3.6-.15-4.46-3.77-13.2-12.48-29.21-18.13-41.72-2.25-5-4.43-10.09-6.35-15.23.84-1.31,1.26-1.15,2.58-.69,4.02,1.39,15.5,10.37,19.21,13.5,2.95,2.49,7.71,6.78,10.2,9.37,6.55,6.81,11.71,15.06,17.95,22.14l-28.92-114.37c1.26-.15,1.89-.1,2.94.67,3.59,2.63,16.19,17.91,19.3,22.11,8.98,12.09,13.87,24.63,21.15,37.21.14.25,2.56,3.5,3.28,3.1l-18.74-91.34c11.85,11.64,19.21,26.48,26.44,41.22.38.78,1.35.91,1.89,2.07,3.81,8.16,6.53,16.83,10.13,25.05l-2.64-50.92c-14.62-14.66-14.16-51.42-5.05-68.18,7.86-14.48,15.66,10.07,17.58,16.22,5.61,17.92,7.08,34.46-2.69,51.25l3.98,66.1.04-3.46c.17-.5,1.08-.4,1.34-1.43,3.4-13.53,4.67-28.24,8.67-41.92,1.84-6.27,9.28-21.02,9.62-25.87.78-11.03-5.75-38.14-7.78-49.43-3.05-17.01-5.92-34.05-10.27-50.77-10.93,5.08-22.04,9.97-33.5,13.83-4.15,1.4-25.15,6.42-26.48,7.38-.37.26-3.22,6.55-4.22,7.94-10.9,15.14-37.07,28.63-55.14,19.09-15.05,15.01-37.33,20.32-58.06,21.55l-1.15,1.48c-2.01,11.86-3.95,23.77-5.76,35.66-5.14,33.82-8.57,70.52-13.21,104.57-.34,2.52-2.16,15.21-1.55,16.45,27.01,15.91,60.69,19.96,91.59,21.86-2.51-5.75-5.03-11.71-7.88-17.3-.2-.4-.88-.47-1.31-.46l.36-1.32c2.28-1.61,11.49,4.9,13.76,6.6,2.46,1.84,13.1,12.51,14.17,12.86s1.42-.38,1.61-.37ZM363.33,525.38c-.37,1.37-1.64,3.47.63,3.65,2.46.2,24.3-5.2,26.29-6.62,3.2-2.27,1.81-11.45-.9-12.74-2.54-1.2-22.2,6.44-26.97,5.91-.36,4.04,3.06,4.28,1.95,9.07-.1.43-.95.54-1.01.73ZM572.12,510.67l-4.64,1.04c-.46,26.02-4.61,52.22,1.36,77.83l3.28-78.87ZM306.26,518.31c.53-1.05,1.54-1.59-.19-2.27-6.45.69-18.08-5.03-23.49-4.69-3.61.22-5.06,7.67-5.7,10.72l27.66,7c.21-2.64-.32-5.59.06-8.18.33-2.27,1.39-2.04,1.66-2.58ZM545.16,512.64l-1.31.97c-1.03,29.17,2.59,57.89,7.42,85.93,3.04,17.62,6.79,35.2,11.32,52.44l9.79-24.38c-3.36-28.57-8.53-58.93-16.87-86.84-2.93-9.81-6.09-19-10.34-28.12ZM280.83,536.99c-15.76-2.73-31.74-9.24-43.35-20.41,1.15,4.49,3.76,14.62,6.55,18.09,1.39,1.73,11.56,6.29,14.24,7.45,7.61,3.29,15.37,5.51,23.24,7.98l-.69-13.11ZM358.99,516.71l-22.24,1.2c1.35,3.94.87,8.34-.62,12.11.64,2.62,20.28-.64,23.55-.37,1.99-4.52,1.58-8.61-.69-12.94ZM310.92,517.37c-2.59.83-4.15,9.6-2.47,12.07,1.02.68,22.16,2.05,24.04,1.6,3.02-.74,3.62-10.17,2.35-12.86-.98-.68-22.25-1.34-23.91-.81ZM407.1,517.9c-11.19,5.6-23.08,10.2-35.54,12.11l.04,9.57c.44.47,8.67-1.57,9.82-2.34,1.35-.9,1.8-2.88,3.35-3.89,7.53-4.88,16.89-7.82,22.33-15.46ZM308.49,545.5v-12.82c-15.45-3.5-31.91-5.95-46.36-13.46-1.95.25-.67,8.37.5,9.68,3.25,3.67,20.96,5.72,26.13,7.4l-3.94,1.31c.51,2.94-1.15,11.46,1.03,13.1l5.54,1.68c-3.56,4.19-23.06-4.9-24.32-3.61.06,2.04,1.36,9.36,2.41,10.57.38.44,9.21,4.53,10.55,5.05,9.49,3.71,20.18,5.09,30.11,7.34l.72-1.32-.41-9.16h2.63v9.53c.56.96,1.35.86,2.27,1.02,4.65.81,19.1.33,24.38,0,3.46-.22,18.25-2.28,20.67-3.66,2.06-1.18,1.29-6.48,1.99-8.85-9.05.65-18.14,2.76-27.27,1.95-.81-.07-11.13-1.48-8.89-3.27,4.28-.81,9.42,2.3,13.15-.33v-12.16c-2.35.08-5.08.56-4.6-2.63,10.98-.05,22.16.55,32.88-2.29.96-.82.87-7.14.65-8.58-.13-.9.37-1.12-1-.99-18.37,2.97-37.06,2.97-55.54,1.34l.1,13.71,13.03,1.74c.15,3.86-27.53-.24-28.27-1.97-.1-.23-.22-1.66.35-1.65l11.5,1.32ZM590.54,591.84v-55.54c-8.99,22.72-12.97,46.84-13.84,71.28-.08,2.35-.44,6.21.68,8.24,1.39-3.96,3.05-7.97,5.09-11.64,1.24-2.23,7.72-10.94,8.07-12.34ZM264.34,546.92l-16.33-6.67c-.49,1.79.38,1.58.83,2.16,4.64,6.15,11.06,10.53,17.25,14.92-.22-1.52-1.42-10-1.75-10.41ZM342.67,546.49v11.17l1.63,1c14.41-2.26,29.48-2.5,43.08-8.23-5.03-.96-2.12-8.19-6.92-10.23l-37.79,6.28ZM502.06,545.87c-.96-1.09-2.03-3.49-3.81-2.96-7.28,12.84-8.34,32.94-6.15,47.43.88,5.81,5.77,24.94,14.98,17.31,10.29-8.53,3.44-52.2-5.02-61.79ZM391.32,552.74l-25.63,5.92-.65,8.54c8.37-3.56,17.92-6.95,25.05-12.76.66-.54,1.66.02,1.24-1.7ZM548.05,597.86c-1.39-7.12-2.15-14.32-3.17-21.5l-13.53-1.6,3.31,26.61c1.32-1.18,5.19-8.61,7.22-6.57l-1.99,35.85,8.25,70.64c1.21.13,1.35-.84,1.6-1.69,3.55-12.33,6.35-25.63,9.79-38.17.38-1.4,2.06-1.03,1.47-5.26-5.03-18.77-9.26-39.5-12.95-58.32ZM576.73,576.4h-3.95s.67,30.89.67,30.89l3.28-30.89ZM590.54,622.08c1.12-7.49-.83-17.53,0-25.31-8.16,12.06-13.07,25.63-18.32,39.17-17.34,44.68-28.26,92.61-36.2,139.45-2.7,15.95-2.02,30.13-.7,46.17,1.32.08.32-1.88.67-2.82.19-.51,1.11-.41,1.25-.96,6.78-27.07,9.27-46.38,20.11-73.12,2.14-5.28,6.46-11.09,7.92-16.41,3-10.98,4.48-24.84,6.93-35.82,3.42-15.36,6.46-30.84,10.42-46.06,1.71-6.57,6.98-17.91,7.93-24.3ZM508.02,837.34h25.97c-6.47-66.53-4.15-133.69,1.96-200.16.32-3.53,1.16-7.48,1.38-9.8.81-8.41.98-16.95,1.91-25.35-7.63,8.7-9.78,21.05-13.03,31.96-14.53,48.68-18.15,102.33-19.2,153.7-.31,15.36-1.11,32.12-.02,47.35.07.99.12,1.72,1.04,2.3ZM468.23,603.35l-1.3.32c-.88,2.59,1.06,2.78,1.37,3.91,8.53,31.22,10.86,70.27,21.7,99.08,4.31,11.44,9.05,23.76,13.03,35.24.87,2.5,1.01,5.91,2.68,8.02l3.97-48.34c-5.72-28.59-16.47-55.44-30.92-80.33-3.48-5.99-6.81-12.05-10.53-17.9ZM509.66,686.82l-3.28-73.28-1.64-1.67-2.97,1.67c.14.54,1.29-.03,1.39,1.27,1.15,15.07,1.47,30.27,2.6,45.38.68,9.18-1.09,17.94,3.91,26.64ZM445,635.14c-1.45-1.53-3.89-3.3-5.66-4.52,2.47,6.58,2.93,14.23,4.65,20.84,7.28,27.98,15.74,58.9,24.19,86.5,5.98,19.52,16.43,35.76,23.02,54.56,4.99,14.21,8.67,29.88,10.57,44.83h2.62s.68-75.29.68-75.29c-11.03-41.84-29.64-94.63-60.09-126.93ZM590.54,689.12v-56.86l-8.61,30.57c-.68,2.41,1.91,7.99,2,8.68,1.01,7.67,1.37,15.48,2.01,23.19.84-.52,4.5-5.24,4.59-5.59ZM537.04,757.59c2.89-14.93,5.26-29.98,8.81-44.78l-6.92-68.72c-1.14,0-1.42,20.81-1.59,22.72-1.46,15.72-3.56,32.74-4.02,49.23-.55,19.58.45,39.27.03,58.85,2.28-5.16,1.61-11.32,2.65-16.61.09-.44,1.01-.52,1.04-.69ZM136.88,648.7l-36.19,6.86-5.06,25.21c-1.08,6.8,25.21,12.92,26.84,11.69,1.93-11.8,7.68-21.31,19.02-26.04,1.57-1.85-5.88-1.43-6.34-3.56l1.74-14.17ZM61.28,655.93l-38.13-5.26c-.51.58-.44,13.41-.68,15.43-1.3,10.84-8.49,22.42,5.27,27.95,1.08-4.66,6.62-11.75,10.57-14.74,5.96-4.51,14.22-7.16,21.64-7.61l1.32-15.76ZM152.01,669.08c-6.35-2.59-8.64-1.69-14.02,2.08-7.47,5.22-11.74,13.23-12.92,22.2l10.51,1.35c-.3-5.98,3.15-13.16,7.2-17.45,1.1-1.17,10.18-7.06,9.23-8.19ZM571.85,716.78c4.02-5.61,7.06-12.01,10.77-17.84l-2.61-29.2-11.15,50.29c.93-.3,2.37-2.39,2.99-3.25ZM138.2,695.37h19.4c.77,0,3.11-1.2,4.49-.77l1.04-1.45c-2.2-4.67-6.22-4.76-10.73-5.61-2.01-3.83,4.93-2.2,7.12-1.32,3.66,1.47,4.81,3.95,6.68,7.11,11.34-2.72-.18-12.05-6.5-13.08l-.45-1.98c6.89.15,13.27,4.12,14.8,11.16,9.34-6.71-11.62-17.99-16.54-18.19-7.24-.31-21.17,16.08-19.3,24.12ZM70.48,679.59c-6.68-10.36-23.58-3.67-31.21,2.65-4.13,3.42-8.26,8.39-9.21,13.81l6.52,3.9c5.42-13.38,19.48-21.35,33.9-20.36ZM87.35,692.95c-1.2-1.98-8.26-8.41-10.51-9.52-12.03-5.96-34.04,4.44-37.87,17.44,7.27,4.5,15.91,5.74,24.28,6.33,2.78-4.85-7.24-9.23-7.22-10.19.07-3.42,8.33,2.19,9.2,3.27l2.89,6.87c6.99-.12,5.8-4.76,2.91-9.37-1.17-1.86-5.3-3.88-2.83-5.7,2.69-.69,10.28,9.91,8.86,13.15l4.6-.99c1.33-1.28.69-5.67.15-7.39-1.08-3.43-4.59-3.42-4.75-6.74,6.19-.13,8.54,6.5,7.89,11.83,4.55-2.08,4.95-4.77,2.4-8.99ZM177.64,690.11c-22.74,15.88-56.84,7.01-80.86-1.96.56,1.67,2.6,3.29,3.99,4.22,9.84,6.54,42.2,10.46,54.18,9.56,7.46-.56,21.44-2.93,22.69-11.82ZM88.23,703.92c-3.58.9-6,3.31-9.72,4.4-19.48,5.7-45.85-2.7-59.3-17.55,8.69,19.54,48.53,29.09,65.29,17.62,1.59-1.09,3.84-2.2,3.74-4.47ZM590.54,837.34v-143.29c-26.87,35.21-43.82,76.88-50.42,120.82-1.12,7.46-1.64,15.03-2.84,22.47h53.25ZM465.62,837.34h33.53c-1.3-7.45-2.47-15-4.27-22.35-7.67-31.35-26.12-71-48.29-95.01-8.25-8.93-17.79-16.65-27.98-23.29,5.09,9.2,8.86,19.14,13.1,28.99,11.33,26.33,21.46,53.86,28.33,82.08,2.37,9.72,3.61,19.78,5.59,29.58ZM439.65,837.34h23.34c-2.73-9.39-2.97-20.52-5.98-29.71-5.82-17.77-29.83-49.7-44.33-61.63-2.93-2.41-6.55-4.18-9.51-6.59,7.02,13.13,12.44,26.28,17.81,40.22,4.06,10.53,9.12,22.46,12.36,33.28.99,3.31,5.13,24,6.32,24.44ZM357.8,774.9c5.82-.98,31.57-7.18,33.23-12.45.39-1.24.66-5.05,0-5.99l-50.99-9.81c9.56,6.23,18.07,16.15,17.75,28.26ZM352.18,764.75c-5.73-11.8-11.95-18.68-25.94-13.5-.34,1.56.23,1.05.85,1.46,2.63,1.71,5.48,2.59,8.02,5.12,4.6,4.59,9.45,13.05,8.89,19.71l11.56-1.92c1.3-1.73-2.45-8.94-3.38-10.85ZM335.23,761.96c-2.09-2.58-11.27-8.96-14.42-8.63-3.47.36-13.08,6.55-15.38,9.31-1.84,2.22-5.88,8.59-.89,9.62-.57-4.87,5.76-10.29,10.52-9.85-.9,3.42-5.1,3.61-6.51,6.95-1.85,4.38-.76,6.65,3.88,7.5.09-6.7,5.36-10.13,11.48-11.14l.71,1.96c-2.88,1.67-9.28,3.81-9.45,7.71-.27,2.96,8.19,3.37,10.72,3.47,5.07.19,9.98-.85,15.04-.78,3.31-1.22-4.1-14.16-5.7-16.13ZM444.2,766.75c-.66-1.79-2.54-9.42-3.52-9.94l-11.87,1.33,22.34,31.22c-1.99-7.05-3.4-14.51-5.82-21.42-.29-.82-1.07-1.02-1.13-1.18ZM301.92,774.9c-.69.82,1.93,3.7,2.6,4.3,14.21,12.85,56.01,3.05,72.87-2.78,2.2-.76,15.35-5.1,12.61-8.74-19.34,8.44-42.84,14.42-64.13,13.84-8.07-.22-17.45-1.51-23.96-6.61Z"/>
  <rect x=".14" y="841.29" width="595" height=".66" fill="#fff"/>
  <path d="M590.54,3.89v168.27c-20.41-5.91-46.15,1.25-60.5,16.74-5.04,5.44-7.8,13.1-12.8,18.73-18.41-33.2-62.47-45.64-97.9-36.9-3.89-9.69-15.27-14.88-24.92-10.29s.74,8.75-.46,11.05c-1.8-1.37-7.16,4.51-7.63,5.51-1.07,2.28-.45,5.27-1.56,6.67-.83,1.05-8.6,5.2-10.88,7.53-8.73,8.87-14.95,25.82-14.76,38.15-8.6-.18-16.5,2.83-24.33,5.91-1.58-37.12-31.77-58.05-67.72-47.65-21.88,6.33-33.27,23.79-35.83,45.67-15.49-10.45-33.59-21.62-52.93-21.03-.6-1.71,1.09-1.09,1.28-1.8,2.06-7.64-.2-13.44-4.59-19.53-.92-1.27-3.66-2.91-3.77-3.13-.61-1.19.03-3.56-1.19-5.72-2.01-3.54-7.75-4.44-10.1-6.33-1.38-1.11-1.94-3.61-3.06-4.83-27.37-29.74-76.19-29.33-105.37-2.24-12.58,11.68-19.13,27.13-23.1,43.59-7.67-3.69-15.65-6.43-24.32-6.58V3.89h586.45ZM534.66,66.33c-.73-41.87-58.78-36.82-63.79,0-3.34-1.31-5.81-4.33-9.21-5.57-16.57-6.06-35.12,7.72-36.82,24.64-6.31-3.07-14.37-.64-19.08,4.26-5.08,5.29-7.98,16.91,2.29,17.46l172.78-.84c18.76-7.04,4.37-28.66-12-22.85,1.69-18.4-20.49-26.35-34.18-17.09ZM201.59,50.94c-13.67-19.66-43.81-11.48-51.41,9.3-.9,2.47-.27,4.82-1.79,6.74-12.75-12.34-36.68-1.81-37.15,15.79-11.19-1.77-25.03,11.99-7.59,15.81,38.8-.57,77.64.63,116.43,0,10.78-.17,25.3.35,35.49-.67,7.57-.76,10.44-5.77,8.55-13.19s-16.32-13.5-23.04-9.2c-1.62-3.54-.81-6.41-3.06-10.09-.22-.36-3.72-3.98-4.18-4.34-8.55-6.77-18.75-5.46-27.92-.67-.36-4.36-2.13-6.3-4.34-9.48ZM321.64,128.12c-3.97-23.69-39.27-20.59-44.73.66-11.17-10.89-28.76-3.15-31.64,11.08-6.53-1.07-18.63,6.52-12.41,13.58,1.7,1.94,15.08,2.21,18.73,2.31,28.38.79,56.91-1.52,85.33-.84,25.15-8.04,5.06-39.64-15.28-26.79Z" fill="#fff"/>
  <path d="M4.08,644.76l16.32,6.36c-.09,4.76-.14,10.23-.64,14.92-.72,6.74-4.31,14.67-4.5,20.49-.16,5.01,3.52,9.92,6.89,13.46,8.48,8.91,24.61,14.96,36.8,15.79,13.9.96,35.91-1.24,32.41-20.57-1.48-8.16-21.13-20.43-28.48-24.15.52-5.08-.03-10.06,1.69-14.45l32.21-.67c-.14,20.04-14.2,34.58,11.96,42.92,16.06,5.12,53.05,10.35,66.88-.57,9.06-7.15,5.02-16.59-2.93-22.61-9.48-7.18-24.08-8.43-34.44-14.23l1.58-13.4c4.34-1.71,23.94-8.38,25.19-12.28-1.22-20.71-2.29-41.64-4.48-62.3-1.96-18.48-4.93-35.7-7.31-53.82-.51-3.86-3.06-12.52-2.9-15.49.11-2.2,3.85-2.08,2.95-7.56-.64-3.88-5.31-5.31-6.1-7.1-.98-2.22-1.35-7.78-2.3-10.77-.21-.67-2.86-2.21-1-2.87,3.96.18,6.78-1.94,6.12-6.19-.8-5.19-7.3-3.46-9.06-6.08-1.78-9.41-7.49-18.12-7.33-27.83,8.57,14.97,20.47,28.22,35.19,37.45-1.09,11.01,11.41,35.75,23.66,35.4,2.78-.08,4.67-2.81,6.01-3.01s3.04,1.44,5.63,1.02c4.5-.72,3.8-3.97,5.27-5.63.46-.52,4.62-2.25,4.94-2.94,2.27-4.87-6.78-16.36-10.02-20.24-1.52-1.83-4.25-3.25-5.6-5.58l10.18-4.27c2.05-1.47,3.06-3.38,1.96-5.9-1.92-4.5-17.32-3.85-22.04-6.88-5.68-3.64-17.02-23.78-20.16-30.42-.39-.82-1.34-.86-1.69-1.66-1.15-2.69-8.11-26.28-7.75-27.67,2.24-1.88,7.85-2.42,7.92-5.92l-12.35-41.44c6.59-5.13,7.42-14.28,7.12-22.08h59.82s-5.98,17.69-5.98,17.69c-12.57-4.1-24.04,1.82-35.78,2.67-1.96.14-13.39-1.25-13.45.34,15.45,7.59,32-5.89,48,0,.6,6.17-5.44,10.85,3.03,14.42l-1.08,10.24c-11.58.59-21.37,4.79-33.19,3.92-4.68-.34-9.87-2.34-14.5-2.6-.88-.05-3.93-.73-3.59.96,16.9,7.33,33.4,3.3,50.62.34.04,9.54-.06,19.09-.02,28.64.02,4.82,1.54,11.73.97,16.17-.51,4.03-4.16,8.1-4.73,12.88-1.91,15.81,7.15,21.88,22.18,19.22-9.24,14.43-10.37,24.88-5.28,41.1,2.45,7.78,2.15,10.41,3.51,18.19,3.04,17.44,11.52,34.38,25.78,45.21,21.12,16.05,49.28,20.19,75.27,19.73-1.66,8.97-2.55,18.12-3.97,27.13-4.48,28.38-9.12,59.57-12.51,88.18-1.63,13.76-1.88,27.72-4.35,41.38.81,5.84,21.49,11.68,26.1,14.85-13.67-.13-45.63,11.37-39.31,29.78,5.33,15.54,40.6,11.88,53.24,9.47,7.2-1.37,31.48-7.56,36.66-11.33s4.13-16.93,5.26-17.78l14,1.07c2.85.64,10.68,24.67,12.14,28.72.25.68,1.22.73,1.44,1.35,5.63,15.97,9.65,33.25,13.87,49.43H4.08v-192.59ZM202.4,417.09c.76-.87,1.23-2,2.2-2.72-2.19-2.51-6.47,2.06-7.76,4.06-2.17,3.34-3.05,7.44-2.74,11.39,1.31,1.65,4.35-8.91,4.96-9.82.99-1.48,2.51-1.94,3.35-2.9ZM184.01,415.58c-.7-.56-1.45-1.02-2.41-.88l6.9,15.76c3.24.15-2.12-12.97-4.49-14.88ZM202.64,559.96v-10.19c0-5.1,6.19-13.57,9.87-17.08-.92-4.43-10.8,8.62-11.28,9.79-1.4,3.41-4.41,17.56,1.41,17.48ZM191.22,543.11c-.83-1.05-4.52-5.12-5.69-3.84-.6,2.11,5.2,7.74,6.11,9.7s2.69,11.68,4.09,11.64c1.41-.9.84-1.55.81-2.75-.1-4.32-2.61-11.32-5.32-14.75ZM214.21,550.51c.81-1.16,4.83-4.9,1.38-4.89-4.25,0-10.72,11.2-7.37,14.99,1.55-3.88,3.73-6.86,5.99-10.1ZM248.25,591.93c-2.14-3.06-4.6-7.54-8.8-7.64l.1,1.53c5.26,5.86,10.13,12.29,12.35,19.87,1.08,3.7,1.19,8.12,2.34,11.46.28.8,1.56,3.71,2.95,3.29,3.15-9.18,6.39-20.35,13.54-27.55.3-.3,9.25-6,3.07-4.84-7.32,1.37-15.39,16.91-16.6,23.85-1.65.23-1.03-.09-1.38-.92-3.21-7.63-1.98-11.09-7.57-19.04ZM246.04,621.09c3.53.03.92-5.65.11-7.67-1.98-4.97-7.24-12.97-13.26-12.7,1.8,3.93,5.31,5.13,7.9,8.85,2.21,3.17,4.1,7.8,5.25,11.52ZM278.24,604.01c-7.84.83-12.91,10.25-12.49,17.74,1.9.37,1.06-.55,1.48-1.44,3.2-6.81,5.14-11.03,11.01-16.29ZM215.71,678.85c.48-2.54,1.07-5.01,2.15-7.38,1.33-2.94,4.73-6.35,5.29-7.87.37-1,.75-.8-.45-1.74-4.79,0-10.74,15.9-9.54,17.07l2.55-.09ZM209.86,679.59c.58-6.71-3.38-15.2-10.16-17.08-2.68,2.26,2.72,4.43,4.16,6.33,2.59,3.41,2.34,9.12,6,10.75ZM247.34,702.6c-6.25,1.17-13.92,24.28-10.79,27.02l2.9.58c-.51-7.01,1.03-12.63,3.82-18.86,1.36-3.03,4.38-5.25,4.07-8.74ZM229.74,730.04c.81,1.03,2.29.9,2.5-.79.56-4.62-4.99-16.64-11.19-16.13.71,4.21,4.64,4.71,6.5,8.95.84,1.91,1.53,7.12,2.19,7.97ZM251.94,714.43c-6.34,1.11-11.04,10.7-8.86,16.42l4.46-9.97,4.4-6.45ZM109.52,757.58c-1.85-7.56-3.88-17.31-13.39-18.17.7,2.66,3.43,2.87,5.52,5.32,2.25,2.63,4.66,8.25,5.46,11.63.31,1.32.91,15.67,3.47,13.94,1.14-3.7.79-7.75.03-11.5-.21-1.07-1.06-1.07-1.09-1.21ZM120.69,752.78c1.85-2.89,6.69-6.53,9.61-8.44-3.44-3.13-10.34,4.2-11.95,7.1-1.51,2.71-6.18,18.76-2.81,19.52,2.42.54,1.49-6.37,1.8-8.04.56-3.02,1.71-7.56,3.35-10.13ZM39.86,758.2c-.56-1.1-4.98-9.59-6.85-7.62-.17,3.17,2.77,4.97,4.26,7.89.8,1.56,1.91,8.29,3.95,7.86,3.06-.63-.81-7.03-1.37-8.13ZM54.7,751.24c-5.88.32-8.36,8.83-8.54,13.8,2.65-.61,3.15-5.54,4.44-7.71,1.13-1.89,4.5-3.05,4.1-6.08ZM135.57,757.81c-5.26-2.52-13.87,12.73-10.18,14.45l5.3-9.14,4.88-5.31ZM201.56,777.11c.51-.63,3.72-2.52,3.69-3.2-6.4-4.84-13.2,13.89-11.16,17.41,2.58-.5,2.7-5.81,3.83-8.33.97-2.16,2.17-4.06,3.64-5.89ZM188.82,792.64c1.74-2.12-6.56-20.38-12.48-18.4.12,3.33,3.72,4.28,5.8,7.01.86,1.12,5.63,12.66,6.69,11.38Z" fill="#fff"/>
  <path d="M427.81,754.52c-.19-.01-.56.71-1.61.37s-11.72-11.02-14.17-12.86c-2.28-1.7-11.48-8.21-13.76-6.6l-.36,1.32c.44,0,1.11.06,1.31.46,2.85,5.59,5.36,11.54,7.88,17.3-30.9-1.9-64.57-5.95-91.59-21.86-.61-1.24,1.21-13.93,1.55-16.45,4.64-34.04,8.06-70.75,13.21-104.57,1.81-11.89,3.74-23.8,5.76-35.66l1.15-1.48c20.73-1.22,43-6.53,58.06-21.55,18.08,9.54,44.24-3.95,55.14-19.09,1-1.39,3.86-7.68,4.22-7.94,1.33-.95,22.33-5.98,26.48-7.38,11.46-3.86,22.57-8.75,33.5-13.83,4.36,16.72,7.22,33.77,10.27,50.77,2.02,11.3,8.56,38.4,7.78,49.43-.34,4.85-7.78,19.6-9.62,25.87-4.01,13.68-5.28,28.39-8.67,41.92-.26,1.03-1.17.93-1.34,1.43l-.04,3.46-3.98-66.1c9.78-16.79,8.31-33.33,2.69-51.25-1.93-6.15-9.72-30.7-17.58-16.22-9.11,16.77-9.57,53.52,5.05,68.18l2.64,50.92c-3.6-8.23-6.31-16.89-10.13-25.05-.54-1.16-1.51-1.29-1.89-2.07-7.23-14.74-14.58-29.58-26.44-41.22l18.74,91.34c-.71.4-3.14-2.85-3.28-3.1-7.28-12.59-12.17-25.12-21.15-37.21-3.12-4.2-15.71-19.48-19.3-22.11-1.05-.77-1.68-.81-2.94-.67l28.92,114.37c-6.24-7.08-11.4-15.33-17.95-22.14-2.49-2.59-7.25-6.87-10.2-9.37-3.7-3.13-15.19-12.11-19.21-13.5-1.32-.46-1.73-.62-2.58.69,1.92,5.14,4.1,10.23,6.35,15.23,5.64,12.51,14.35,28.52,18.13,41.72.25.86,1.62,4.46.15,4.46-3.71-.16-7.47.21-11.18,0ZM398.15,615.61c-2.24-9.69-3.1-20.03-5.85-29.35l-1.53.96c3.11,24.23,8.76,49.91,18.12,72.48,1.07,2.59,6.55,14.46,7.95,16.4.59.82.72,1.81,2.09,1.52-5.22-15.63-11.71-29.31-16.24-45.21-1.53-5.35-3.42-11.93-4.54-16.8ZM347.27,661.84c-2.39-.69-2.37,1.48-2.61,3.63-1.16,10.36,2.71,43.04,5.56,53.58.51,1.9.28,3.71,2.98,3.26l-5.92-60.47Z" fill="#fff"/>
  <path d="M97.7,487.41c7.01,9.79,18.98,22.33,32.26,21.95,2.53-.07,4.71-1.75,6.64-1.95,2.94-.32,7.75,1.42,11.15-1.33l.67.61c2.93,18.24,4.65,36.61,6.83,54.95.14,1.22,1.37.73,1.42,1.89l5.71,71.21c-7.97,5.45-17.3,8.67-26.52,11.27-42.04,11.85-89.94,10.93-131.13-3.55l-.68-1.95c.85-26.04-1.56-52.39,1.31-78.29,3.53-31.9,6.85-67.16,16.16-98.23,1.53-5.1,3.37-10.14,5.27-15.11l1.32-.04c9.83,9.13,21.85,16.47,34.26,21.64,6.12,2.55,28.59,7.97,31.4,10.02,1.79,1.31,2.58,4.99,3.95,6.9ZM133.6,527.1l-2.03.39c-2.8,18.85-4.65,38.01-9.75,56.5-.28,1-1.16,1.03-1.29,1.5-2.28,8.11-5.26,16.1-6.64,24.44,5.5-8.91,9.01-19.93,11.63-30.1,3.79-14.76,6.17-31.24,8.14-45.77.28-2.09-.29-4.76-.05-6.94ZM45.5,551.42c-1.43-.26-1.54.65-1.96,1.65-1.64,3.94-3.12,11.73-3.98,15.76-3.64,16.95-5.52,35.59-6.54,52.92l12.48-70.32Z" fill="#fff"/>
  <path d="M384.09,351.27c.81,6.54,8.45,18.38,13.49,22.66,25.99,22.05,78.25,7.8,92.12-22.9,3-.24,5.66.19,8.67-.54,9.68-2.33,11.13-11.22,22.14.44,19.15,20.28,30.34,87.35,23.95,114-9.11,37.94-59.03,49.08-91.31,59.24-8.49,15.66-24.87,28.06-43.07,29.24-2.22.14-6.81.57-8.24-1.33,5.09-.54,22.8-7.53,24.66-11.83.51-1.18.18-1.22-.67-1.96-5.58,4.06-12.42,7.97-19.11,9.8-4.51,1.23-17.97,4.71-18.7-1.92,10.9-2.37,22.42-5.17,30.89-12.84.33-1.73-1.88-.94-2.65-.67-2.81.98-7.54,4.5-11.17,5.93-2.97,1.17-18.46,6.59-19.94,3.49-3.15-6.6,9.91-10.62,14.33-13.69,6.19-4.29,12.32-9.71,15.73-16.48.62-1.24,3.38-7.58,3.42-8.42.16-3.89-17.83-2.63-17.96-9.69-.04-1,.44-1.85,1.17-2.49,4.62-4.07,26.17.08,32.16,1.97,1.7.54,9.47,4.58,9.89,4.24.09-.07-.3-1.4.43-2.01,3.69-3.05,9.64-5.75,13.68-8.53,14.07-9.7,26.39-19.83,41.74-27.94,1.38-.73,6.3-1.36,5.95-3.24-.53-2.79-10.1,2.02-11.19,3.28l-1.21-.76c-.59-12.21-.73-24.6-2.02-36.75-.12-1.17-1.29-.93-1.34-1.41-.4-3.59-1.19-24.24-2.99-25.16-1.35-.33-1.37,1.33-1.39,2.17-.25,11.48,2.9,26.96,3.69,38.92.38,5.84.57,11.8.58,17.65-19.48,7.88-41.73,9.31-62.59,8.19-12.82-22.79-37.63-33.55-62.25-38.99-.91-3.6-2.25-6.05-2.61-9.89-1.12-12.23,3.84-27.3,9.98-37.98.94-1.63,6.79-7.51,4.08-8.31l-2.72.8-10.63,18.75c-3.72,11.66-4.73,24.28-2.04,36.28l-26.86-1.41c-.38-2.67-2.9-5.04-2.44-7.78,1.02-6.11,6.98-15.79,9.76-21.23,9.82-19.21,22.87-41.6,42.55-51.75.3,3.45-.42,7.49,0,10.85Z" fill="#fff"/>
  <path d="M65.76,316.89c10.1,12.57,36.89,25.03,52.28,17.51,6.47-3.16,8.58-8.56,7.67-15.66,10.46,2.4,17.96,11.39,22.68,20.38l15.31,50.21c-.43,2.02-16.51,8.6-17.6,7.63,1.54-10.97,2.11-27.68-1.39-38.24-.06-.18-2.29-3.78-2.9-2.52-.11,6.83.91,13.8,1.68,20.58.82,7.28,1.58,6.89.04,14.79s-6.88,31.71-13.93,35.9c-9.45,5.61-48.41,5.68-59.14,2.71-.66-.18-10.21-6.03-10.53-6.56-.44-.71-1.36-10.12-1.09-10.58.58-.99,5.29-2.78,5.96-4.41.96-2.33,1.63-17.68,1.71-21.22.09-3.87-.61-25.02-2.27-25.94l-1.64.33-.66,44.36c-16.03-6.03-34.21-4.02-49.96,1.97-1.9-2.3,3.31-32.41,4.55-37.16,5.52-21.12,14.8-37.01,34.45-47.74,1.87-1.02,13.92-6.79,14.79-6.33Z" fill="#fff"/>
  <path d="M456,253.44c1.42,3.89,7.44,10.3,11.4,11.92,11.16,4.54,6.85-4.05,15.28-8.11,20.87-10.08,22.49,24.36,8.62,30.96-4.95,2.36-6.44-3.68-14.02-2.18-6.32,1.25-7.78,7.11-10.31,11.5v2.31s7.05,9.88,7.05,9.88c-3.62,6.89-1.15,16.71-2.5,23.13-.61,2.91-10.2,10.7-13.05,12.59-13.58,8.99-47.48,16.54-46.1-8.95,2.7-.06,2.13,5.85,3.92,6.92l1.99-.7-3.94-10.16c10.88-.54,21.59-2.85,31.35-7.78,3.65-1.84,22.19-14.53,21.25-18.18-.75-.85-.79-1.2-1.98-.68s-5.8,6.12-7.57,7.56c-33.2,27.04-88.85,22.87-93-27.93-1.46-17.91,2.51-41.22,7.63-58.07,11.13.32,20.83-4.98,30.68-9.2,10.89,16.58,31.89,22.62,51.13,20.57,1.19,4.71.49,10.01,2.17,14.62ZM381.98,234.08c-1.89.16-10.33,3.31-9.43,5.78.95,2.61,6.85-.98,9.32-1.23,3.28-.34,5.76.72,8.82.27,2.65-3.7-6.23-5.02-8.7-4.81ZM441.94,251.01c-1.32-8.83-13.69-14.06-21.02-9.17l.37,1.34c4.36.77,8.82,1.35,12.71,3.64,2.44,1.43,4.64,5.94,7.94,4.19ZM386.36,256.01c-3.67-6.49-9.3-5.6-12.79.27l-2.94-1.3c-2.26,1.17.16,5.29,1.96,5.28,1.5-.01,6.86-8.19,10.49-2.62,1.22,1.88,1.15,8.83,4.99,3.56.24-2.46-.83-3.63-1.71-5.19ZM436.04,266.81c1.23-8.28-9.35-12.67-15.47-7.9-1.65,1.29-5.62,8.54-1.97,7.9.48-.09,4.3-5.84,7.24-5.86,6.36-.05,5.88,8.34,8.66,9.07,4.21,1.11,10.37-6.78,1.54-3.2ZM401.84,258.92c-3.73.22-4.3,4.6-6.55,6.92-4.77,4.92-12.48,5.88-11.87,14.42.46,6.36,9.73,10.04,15.36,8.79l1.09-2.52c-5.68.41-14.13-2.14-12.33-9.37,1.38-5.52,16.33-10.02,14.3-18.24ZM421.98,304.04c.8-1.76,2.96-8.21-.17-8.83-7.51,2.93-15.84,5.94-24.07,4.95-2.27-.27-10.95-4.26-11.7-2.01-.49,1.48,3.73,9.15,4.94,10.74,5.69,7.46,16.69,8.46,24.22,3.15,1.55-1.1,6.11-6.52,6.78-8Z" fill="#fff"/>
  <path d="M163.75,207.09c.66,2.22,1.74,4.3,2.31,6.57,4.71,18.7,7.54,52.13.08,70.23-11.52,27.96-48.02,30.65-70.61,14.08-2.22-1.63-6.38-8.07-8.89-6.2l-.35,1.31c8.13,9.06,17.43,14.12,29.25,17.1,1.89,3.28-2.33,9.33.66,12.49,1.88.93,1.23-4.85,2.26-5.64,10-.88,4.52,11.73-1.05,14.75-13.77,7.47-41.44-5.14-50.15-17.23,10.5-10.14,13.68-22.44,12.43-36.89-.4-4.64-2.81-10.19-3.21-14.53-.94-10.04,8.32-22.06,7.27-33.04,16.27-6.3,34.75-14.99,43.31-30.99,11.29,5.85,23.97,8.58,36.71,7.98ZM165.16,222.11c.29-7.47-16.23-8.27-17.69-3.55-1.14,3.69,7.72,1.25,10.15,1.57,3.35.45,4.54,3.28,7.54,1.97ZM122.38,220.84c-5.62-4.39-24.91,5.22-22.96,11.42.86,2.75,5.23-3.04,7-4.13,4.72-2.9,10.11-3.17,15.35-4.37l.61-2.92ZM157.12,232.09c-7.45.83-6.83,16.26.49,15.72s7.17-16.58-.49-15.72ZM120.76,239.55c-6.19-8.36-12.04,5.12-8.1,11.71,4.45,7.44,14.4-3.21,8.1-11.71ZM142.71,239.31c-4.93-1.72-1.13,5.45-.14,7.06,1.66,2.71,4.23,3.89,6.14,6.32,10.52,13.44-6.07,12.4-6.56,14.46-.79,3.37,9.32,1.51,11.83-2.64,5.71-9.45-8.84-16.9-11.27-25.2ZM152.01,277.99c-9.3,2.96-18.72,3.03-27.84-.56-4.91,3.29,4.09,10.26,7.47,11.39,9.13,3.05,12.1-.35,17.08-6.58,1.11-1.38,3.9-1.57,3.29-4.26Z" fill="#fff"/>
  <path d="M330.18,341.41c-.15-1.34-3.84-12.91-4.29-13.45-1.05-1.25-1.45-.64-2.28.33,2.31,7.19,3.64,14.77,3.57,22.33-.05,4.77-2.16,23.84-6.82,25.66-12.47,4.88-49.78,4.55-63.29,2.09-1.9-.35-7.51-1.7-8.61-3.05-3.39-4.17-3.39-25.43-3.07-31.26.14-2.58,3.02-13.14.96-14.14-1.36-.14-1.65,2.92-1.95,3.95-2.39,8.08-2.28,17.23-2.31,25.63-8.51,1.14-17.53.43-25.53-2.74l-.19-.87c3.95-22.94,14.54-50.94,39.79-56.8,8,21.43,42.56,25.4,55.48,6.71,3.32-4.8,1.3-6.82,9.57-3.4s22.32,18.58,23.21,27.27c.72,7.05-3.06,18.2-2.04,25.92l-12.21,1.93c-.42-5.14.57-11.08,0-16.1Z" fill="#fff"/>
  <path d="M519.44,243.89c1.72,14.04,2.7,28.25,5.39,42.15,2.94,15.19,8.73,32.57,12.38,47.69s7.58,32.08,1.39,46.79c-3.54-11.58-14-40.6-29.88-38.07-3.02.48-7.13,3.91-10.89,4.88-24.1,6.27-26.68-20.39-21.7-37.31.97-1.63,6.41-.97,8.91-1.77,6.51-2.11,9.48-11.55,4.91-16.45,2.86-.94,5.65-3.64,7.56-5.92,7.35-8.75,10.23-21.75.34-29.93-7.92-6.55-21.73-1.59-24.43,8.15-14.16-1.27-16.83-17.19-15.04-28.84-21.53,4.48-43.61-2.84-55.57-21.67h-.95c-.12,1.17-.74,1.94-1.74,2.53-9.56,5.65-22.03,8.9-33.12,8.63l1.21,3.43-3.84,14.31c-.39-2.8-1.66-4.48-1.96-7.58-.79-8.09,1.24-22.15,5.75-29.04.66-1,.84-1.73,2.35-1.47,10.53,1.63,21.4,5.15,31.71,7.16,1.81.35,3.93-.25,5.79.13,37.95,7.63,75.67,17.39,111.43,32.21Z" fill="#fff"/>
  <path d="M225.39,266.57c-.51,1.89-2.81,5.59-3.5,8.65-3.36,14.91-1.16,25.14,10.35,35.3l-8.66,12.72-62.33.06-4.65-20.63c.27-1.8,5.42-5.74,6.86-7.65,11.5-15.28,10.14-37.05,9.62-55.51-.11-4.02-1.9-10.01-1.37-13.8.13-.96,5.41-10.2,5.94-10.49,6.12-3.37,30.38,7.23,36.74,10.61,2.23,1.19,15.21,9.12,15.9,10.39,2.09,3.89-3.44,24.99-4.89,30.36Z" fill="#fff"/>
  <path d="M328.47,415.76c4.31,6.78,4.24,13.84,7.06,18.24,3.77,5.89,11.53,5.44,13,16.58,3.57,26.94-31.86,41.92-54.16,39.69-5.28-.53-16.82-3.52-19.09-8.52l-1.55.09c-1.43,3.95-8.65,4.28-12.29,3.88-13.35-1.48-15.48-21.53-3.73-22.91,3.48-.41,6.56,2.79,9.34.2l-2.59-1.96c6.15-8.62,8.04-21.55,1.95-30.57,7.15.97,11.02-1.9,14.24-7.82,7.72,4.59,12.95-5.7,15.77-6.53,1.72-.5,3.86.22,5.68-.26,6.29-1.64,8.83-7.52,8.36-13.67,8.72.6,13.69,6.77,18.01,13.55ZM319.53,417.47c-3.41.36-7.63,3.62-4.8,7.07,1.4-1.46,3.37-3.41,5.43-3.79,1.95-.36,5.81,1.52,6.08.17.62-3.05-4.57-3.68-6.71-3.46ZM320.98,439.02c1.81.22,2.29-2.06,3.75-2.48,1.77-.51,8.54.86,8.07-1.77-.87-4.93-15.35-5.87-11.82,4.25ZM277.59,442.96c2.87.45,2.71-2.54,4.63-4.24s8.6-2.9,7.85-5.28c-1.14-3.64-15.08,4.23-12.48,9.52ZM322.13,452c3.45-8.38-6.02-10.96-12.22-7.62l-.1,2.52c2.8-1.49,12.19-2,10.1,3.11-.76,1.85-3.3.53-2.87,2.81l5.09-.82ZM299.73,446.46c-4.89-4.78-12.8,1.68-10.96,7.68,3.9-2.62,5.92-6.08,11.48-3.94l.72-1.35c-.54-.67-.67-1.83-1.24-2.39ZM330.18,456.77l-2.51.12c-2.62,8.89-11.24,8.86-18.83,7.1-1.92,2.51,4.74,3.86,6.59,3.96,5.75.31,16-4.37,14.76-11.18Z" fill="#fff"/>
  <path d="M590.54,837.34h-53.25c1.19-7.44,1.72-15.01,2.84-22.47,6.59-43.94,23.55-85.61,50.42-120.82v143.29Z" fill="#fff"/>
  <path d="M56.02,406.81v16.1c4.94,5.01,11.72,9.35,17.67,13.23,7.26,4.73,23.99,15.88,31.19,18.77,8.73,3.5,18.02,4.73,28.37,9.1,2.09.88,13.02,4.37,13.51,4.89.74.77.85,1.55.57,2.54-.97,2.89-12.56,2.72-15.35,1.72l-1.68,1.65c-.02,1.09,8.2,11.47,9.55,12.84,3.71,3.78,9.4,5.57,10.83,10.86-.17,1.23-.84,2-2.13,2.12-4.04.37-12.9-4.9-16.2-7.45-1.29-1-4.91-5.65-5.63-5.53-3.62.6,3.4,7.56,4.24,8.24,4.66,3.76,9.77,4.7,14.89,6.8.85.35,1.15-.25.91,1.38-11.71,3.78-21.45-5.03-29.91-11.83-4.02.75,12.98,14.76,15.44,13.16-4.06,3.34-13.16-1.28-17.05-3.67-10.07-6.19-13.6-15.38-20.47-24.24-22.99-5.69-62.83-18.32-71.64-42.75-2.91-8.05-3.82-17.52-2.97-26,11.29-4.33,24.03-3.7,35.86-1.95Z" fill="#fff"/>
  <path d="M590.54,528.74c-.91,4.82-6.47,15.22-7.99,20.3-2.36,7.88-4.16,16.53-5.17,24.71h-4.6s1.99-62.74,1.99-62.74c15.52-14,17.26-59.79,5.53-75.24-6-7.9-11.92,2.99-14.21,8.06-8.5,18.83-15.14,49.17-.53,66.54-1.71,15.81-2.23,31.71-1.99,47.61-1.78.18-1.06,0-1.29-.98-3.39-14.33-7.63-28.81-12.99-42.87l-6.41-10.03c-1.01.46-1.59,7.39-1.68,8.84-1.2,19.65,1.38,40.62,3.31,60.16l-13.73-2.04c-1.38-10.1-2.59-20.52-4.66-30.49-.24-1.14-1.19-.96-1.4-1.94-2.51-11.86-4.38-23.87-7.63-35.56,13.42-8.66,23.54-16.45,28.74-32.16s5.16-34.3,1.3-50.3c14.26,2.8,29.22,2.91,43.39-.66v108.78Z" fill="#fff"/>
  <path d="M80.34,231.98c-.07,3.6-.67,7.16-1.5,10.65-3.04,12.78-7.97,12.05-4.51,27.87,2.74,12.53,4.2,21.27-2.4,33.57-7.34,13.67-24.11,15.83-35.31,25.17-9.37,7.81-13.45,17-18.71,27.61-11.11-12.73-10.81-27.02-5.12-42.23,2.19-5.84,6.01-10.85,8.4-16.58,5.83-14,9.82-30.78,11.5-45.69l47.66-20.37Z" fill="#fff"/>
  <path d="M508.02,837.34c-.92-.58-.96-1.31-1.04-2.3-1.09-15.23-.29-31.99.02-47.35,1.05-51.37,4.67-105.02,19.2-153.7,3.26-10.91,5.41-23.26,13.03-31.96-.93,8.4-1.1,16.94-1.91,25.35-.22,2.33-1.06,6.28-1.38,9.8-6.11,66.47-8.43,133.63-1.96,200.16h-25.97Z" fill="#fff"/>
  <path d="M590.54,403.53c-15.49,1.46-31.36,2.75-46.57-1.43.26-4.99-3.96-12.91-3.73-17.32.14-2.63,3.02-8.92,3.6-13.15,2.6-19.09-4.23-39.65-9.21-57.84l10.13-5.52c7.55,18.57,31.08,19.27,45.78,8.49v86.76Z" fill="#fff"/>
  <path d="M564.16,207.74c2.99,10.88,16.75,15.13,26.29,18.4l-.05,60.58c-12.51,13.82-36.08,14.26-49.59,1.54-14.42-13.58-15.07-43.85-11.26-62.05,10.62-2.83,19.07-7.1,26.81-14.94,2.52-2.55,1.48-4.78,7.8-3.53ZM570.82,229.33c4.26,1.81,7.17-.56,12.12,1.36,1.66.64,8.67,6.33,5.95-.03-2.3-5.35-14.88-7.22-18.07-1.34ZM541.07,226.85c-6.47.86-13.88,9.72-8.17,8.31,1.79-4.03,13.14-4.18,13.94-5.8,1.25-2.53-4.35-2.69-5.76-2.51ZM537,249.99c.85,1.64,1.64,3.36,3.55,4.07,6.24,1.5,7.13-15.38,0-13.26-2.24.66-5.19,6.25-4.56,8.45.15.54.91.56,1,.74ZM577.21,240.63c-4.95.7-5.23,13.36.41,12.89,5.91-.49,6.01-13.8-.41-12.89ZM558.97,245.78c-1.9-1.79-7.36,7.13-8.01,8.75-1.23,3.07-1.92,6.21.41,9.04,4.74,5.74,14.69.41,11.21-.7-3.58-.25-8.71,1.38-10.06-3.1l6.45-13.99ZM549.78,276.01c.42,6.36,11.8,6.38,16.58,5.07,2.67-.74,13.1-7.09,6.39-6.12-2.61.38-5.02,3.29-9.47,3.7-5.29.49-8.77-.75-13.5-2.65Z" fill="#fff"/>
  <path d="M321.64,226.05c1.44,16.97,2.81,34.78-7.62,49.24s-28.13,18.94-44.12,12.02c-22.17-9.6-22.55-38.13-21.78-58.51,12.68-4.17,25.31-9.13,35.05-18.54,10.42,9.47,24.18,15.55,38.46,15.79ZM273.64,230c-.65-6.49-12.71-2.99-16.15-.04-1.51,1.3-6.01,8.25-1.59,6.3,1.81-.8,4.94-4.46,7.72-5.43,3.27-1.15,6.64-.81,10.02-.83ZM297.96,229.34c.28.29,6.67-.2,8.18.05,1.99.33,6.95,4.54,7.59,2.22-.97-6.52-10.72-6.17-15.68-4.8-.21.3-.18,2.45-.09,2.54ZM303.7,240.64c-5.44.77-4.97,13.03,1.76,12.35,5.87-.59,5.04-13.32-1.76-12.35ZM263.93,241.99c-1.87,1.87-1.76,10.56.94,11.56,10.36,3.85,5.86-18.35-.94-11.56ZM288.72,241.87c-.9-.55-2.54.16-2.59,1.57-.14,3.6,7.08,10.94,4.83,15.35-.85,1.66-10.94,1.25-8.77,3.41,4.74,2.52,14.69-.91,13.11-6.73-.14-.51-1.02-.55-1.21-1.02-.66-1.67-4.79-12.22-5.37-12.57ZM271.02,272.71c7.4,5.14,16.88,6.93,25.44,3.43,2.31-.95,7.49-3.89,3.82-5.93-5.11,4.52-12.19,5.34-18.78,4.2-3.59-.62-9.52-6.04-10.48-1.69Z" fill="#fff"/>
  <path d="M4.08,208.97c8.17.35,16.31,2.54,23.37,6.58-1.16,4.41.57,10.35.27,14.1-.32,4.03-3.51,6.2-2.61,13.19s5.86,5.74,4.67,15.18c-.64,5.1-4.02,16.95-5.64,22.6-6.65,23.23-25.98,43.86-15.38,67.95,1.88,4.27,5.44,8.48,7.78,12.53-1.65,6.25-3.92,12.94-5.04,19.28-1.04,5.86-3.49,21.44-2.75,26.71.64,4.52,3.09,6.95,7.83,6.3.29.28-.24,5.75-.05,6.94.33,2.09,1.65,8.28,2.32,10.83.83,3.17,6.16,13.15,6.22,14.08.07,1.14-6.12,18.59-7.08,21.78-6.48,21.61-9.23,45.08-12.57,67.11l-1.34,12.02V208.97Z" fill="#fff"/>
  <path d="M167.42,185.03c2.23,3.64,6.31,8.03,7.71,11.01,3.84,8.14.97,17.62-3.73,24.75-.8-.01-2.35-9.95-2.86-11.56-.23-.73-2.25-2.13-1.99-3.24.29-1.25,3.54-.14,2.55-2.93-14.96,2.46-28.91-.56-42.27-7.15-7.25,10.32-15.76,17.78-26.84,23.83-21.07,11.5-45,18.2-66.49,28.91-9.91-4.23-5.22-15.01.19-21.58,22.13-26.83,87.05-51.69,121.31-49.02,7.71.6,8.62.78,12.42,6.99Z" fill="#fff"/>
  <path d="M445,635.14c30.46,32.29,49.06,85.08,60.09,126.93l-.68,75.29h-2.62c-1.91-14.95-5.59-30.62-10.57-44.83-6.59-18.79-17.04-35.03-23.02-54.56-8.46-27.6-16.91-58.52-24.19-86.5-1.72-6.62-2.19-14.27-4.65-20.84,1.77,1.22,4.21,2.99,5.66,4.52Z" fill="#fff"/>
  <path d="M328.49,218.56c.06.16.79.25.97.79,3.16,9.62,2.93,21.05,4.66,31.02l-4.25-5.93c-1.22-1.03-3.43-.72-4.16-2.42-1.26-2.97-.77-17.95-1.44-18.6-14.89-.6-30.43-6.11-40.42-17.51-3.88,1.97-6.4,5.68-10.39,8.45-5.66,3.93-13.62,7.3-20.21,9.38-2.06.65-10.79,1.89-11.17,2.31-.13.14.08,1.42,0,1.95l3.31,1.11v14.24c-14.74,5.23-14.71,19.81.59,25.13,1.17.41,3.46.04,3.9.37.61.45,4.8,10.54,7.31,13.2,1.23,1.3,8.18,5.45,8.41,5.91.95,1.9.54,5.79-1.82,6.77-4.38,1.83-11.54,2.05-16.7,4.33-4.59,2.03-8.73,5.94-12.56,9.1-1.59-1.88-4.17-3.63-5.57-5.57-3.39-4.7-6.07-11.9-5.93-17.7.16-6.43,6.72-21.57,8.34-29.8,5.08-25.78,2.54-50.91,31.78-62.88,27.32-11.18,55.12-1.77,65.35,26.33Z" fill="#fff"/>
  <path d="M465.62,837.34c-1.98-9.8-3.22-19.86-5.59-29.58-6.87-28.22-17-55.74-28.33-82.08-4.24-9.84-8.01-19.79-13.1-28.99,10.19,6.64,19.74,14.36,27.98,23.29,22.18,24.01,40.63,63.66,48.29,95.01,1.8,7.36,2.97,14.9,4.27,22.35h-33.53Z" fill="#fff"/>
  <path d="M398.11,496.66c.23.46,1.9.88,2.16,2.14-8.93,7.53-22.76,11.42-34.44,13.65-32.05,6.13-68.33,3.24-98.16-10.07.25-6.14,4.38-10.89,8.26-15.21,5.69,3.8,12.28,4.52,18.64,6.26,12.39,3.38,24.47,6.89,37.57,1.13,1.7-.75,15.13-8.47,10.17-10.17-.55-.19-7.25,5.86-9.47,6.92-8.32,3.98-20.32,5.06-28.95,1.62,17.36-.32,33.85-9.65,43.71-23.74,11.86.52,22.55,3.7,32.99,9.16,3.34,1.75,14.89,8.89,16.7,11.57,1.33,1.96-.34,4.46.81,6.74Z" fill="#fff"/>
  <path d="M155.29,175.44c-42.04-.1-83.41,15.83-116.13,41.64l-8.77,8.97c-.04-34.1,22.33-64.31,55.88-71.97,22.89-5.22,56.4-.87,69.03,21.36Z" fill="#fff"/>
  <path d="M156.59,396.97c2.98,8.64,4.19,18.49,7.6,26.92,2.5,6.2,18.79,32.34,24,34.51,3.42,1.42,18.81,2.3,20.07,4.96.42.89-.02,1.74-.55,2.44-7.14,3.87-15.91,3.25-23.48.84.2,5.46,8.72,3.66,11.03,4.75,1.09.51,14.07,17.43,14.73,19.12.73,1.86,2.69,7.77-1.08,7.05-.46-.09-4.42-5.9-5.95-7.26-.53-.47-5.25-4.15-5.57-4.29-.9-.39-1.84-.08-1.98.68-.39,2.15,12.11,9.62,11.06,14.31-1.67,3.2-4.8,3.06-7.75,1.43s-9.61-12.2-10.92-12.75c-.4-.17-1.09,0-1.6-.03-1.13,4.01,10.51,12.44,9.58,14.46-7.4,6.82-18.72-10.37-21.07-16.45-1.47-3.8-3.01-14.16-4.37-16.01-1.68-2.31-12.52-10.08-15.71-13.22-4.92-4.84-21.12-23.65-20.26-30.07.24-1.76,3.47-6.53,4.33-8.87,2.32-6.28,3.93-12.84,6.17-19.12l11.72-3.38Z" fill="#fff"/>
  <path d="M590.54,622.08c-.95,6.39-6.22,17.74-7.93,24.3-3.96,15.22-7,30.71-10.42,46.06-2.44,10.98-3.92,24.84-6.93,35.82-1.45,5.32-5.78,11.12-7.92,16.41-10.83,26.74-13.32,46.05-20.11,73.12-.14.55-1.05.45-1.25.96-.36.94.65,2.9-.67,2.82-1.33-16.04-2.01-30.22.7-46.17,7.94-46.84,18.87-94.77,36.2-139.45,5.25-13.54,10.15-27.11,18.32-39.17-.83,7.78,1.12,17.82,0,25.31Z" fill="#fff"/>
  <path d="M308.49,545.5l-11.5-1.32c-.56,0-.45,1.42-.35,1.65.74,1.73,28.41,5.83,28.27,1.97l-13.03-1.74-.1-13.71c18.49,1.64,37.18,1.63,55.54-1.34,1.37-.13.86.09,1,.99.21,1.43.31,7.75-.65,8.58-10.73,2.85-21.9,2.24-32.88,2.29-.48,3.19,2.25,2.71,4.6,2.63v12.16c-3.72,2.63-8.87-.48-13.15.33-2.24,1.78,8.07,3.19,8.89,3.27,9.13.81,18.22-1.31,27.27-1.95-.7,2.37.07,7.67-1.99,8.85-2.41,1.38-17.2,3.44-20.67,3.66-5.28.34-19.74.82-24.38,0-.92-.16-1.7-.05-2.27-1.02v-9.53h-2.63s.41,9.15.41,9.15l-.72,1.32c-9.93-2.24-20.62-3.63-30.11-7.34-1.34-.52-10.17-4.61-10.55-5.05-1.05-1.21-2.35-8.53-2.41-10.57,1.26-1.29,20.76,7.8,24.32,3.61l-5.54-1.68c-2.18-1.64-.51-10.17-1.03-13.1l3.94-1.31c-5.17-1.68-22.88-3.74-26.13-7.4-1.17-1.31-2.45-9.43-.5-9.68,14.45,7.5,30.91,9.95,46.36,13.46v12.82Z" fill="#fff"/>
  <path d="M306.31,397.15c4.8,6.63-1.57,17.35-9.66,16.23l-.06-10.13c-4.23-3.85-2.46,6.23-3.69,10-1.74,5.33-6.36,8.91-11.95,6.62l-.08-9.42c-3.91-1.29-2.36,7.29-3.76,11.33-2.31,6.67-9.56,8.1-14.65,3.76l-1.95.66c6.48,7.38,8.33,16.46,5.56,25.96-.25.86-3.51,7.7-3.87,7.96-1.92,1.41-6.07-.24-9.81,2.02-.61.37-4.1,3.8-4.39,4.3-.9,1.58.1,4.16-1.63,4.12-3.39-3.28-5.31-7.81-6.94-12.13-9.91-26.27,4.96-53.25,31.13-63.58,8.89-3.51,29.27-6.66,35.75,2.29Z" fill="#fff"/>
  <path d="M513.22,208.05c1.86,3.26,4.23,6.98,5.21,10.89.19.74,1.24,3.86-.52,3.16-31.56-14.18-65.22-24.19-99.6-28.93-.44-.51,1.21-11.58,1.32-13.49.14-2.51-2.25-5.15,1.14-6.7,4.84-2.2,20.48-2.45,26.15-2.17,26.69,1.34,52.84,13.67,66.31,37.24Z" fill="#fff"/>
  <path d="M468.23,603.35c3.72,5.84,7.05,11.91,10.53,17.9,14.46,24.89,25.2,51.74,30.92,80.33l-3.97,48.34c-1.67-2.11-1.81-5.52-2.68-8.02-3.98-11.48-8.72-23.8-13.03-35.24-10.84-28.81-13.17-67.85-21.7-99.08-.31-1.13-2.25-1.32-1.37-3.91l1.3-.32Z" fill="#fff"/>
  <path d="M439.65,837.34c-1.18-.44-5.33-21.14-6.32-24.44-3.24-10.81-8.3-22.75-12.36-33.28-5.37-13.94-10.78-27.08-17.81-40.22,2.96,2.4,6.58,4.18,9.51,6.59,14.51,11.94,38.51,43.86,44.33,61.63,3.01,9.19,3.25,20.33,5.98,29.71h-23.34Z" fill="#fff"/>
  <path d="M403.49,487c-.73.06-1.98,1.84-3.63,1.61-.76-.11-9.78-8.03-12.14-9.5-11.54-7.15-25.33-12.41-39.12-11.83,3.53-9.65,4.42-19.97-2.63-28.25,13.78.43,29.65,4.06,41.99,10.27,13.35,6.71,30.88,21.02,25.4,37.71-3.23.2-6.66-.28-9.86,0Z" fill="#fff"/>
  <path d="M545.16,512.64c4.25,9.12,7.41,18.31,10.34,28.12,8.34,27.9,13.51,58.27,16.87,86.84l-9.79,24.38c-4.52-17.23-8.28-34.82-11.32-52.44-4.83-28.04-8.45-56.77-7.42-85.93l1.31-.97Z" fill="#fff"/>
  <path d="M396.91,333.2c-21.47,2.06-34.6,20.48-46.34,36.15-6.57-9.52-5.65-20.13-4.52-31.13,1.96-19.04,9.29-36.19,14.7-54.33.98,27.77,21.27,49.43,49.98,47.99l.97,1.32c-4.78.33-10.09-.45-14.79,0Z" fill="#fff"/>
  <path d="M520.18,241.17c-27.82-11.73-56.79-20.33-86.22-27.18-6.6-1.53-16.72-2.43-22.58-4.39-.67-.22-1.21.53-.98-.97,3.93-3.53,5.98-8.42,6.91-13.5,26.27,5.09,52.29,11.34,77.41,20.54,3.17,1.16,23.34,8.73,24.42,9.76,2.61,2.48,1.78,12.26,1.04,15.72Z" fill="#fff"/>
  <path d="M232.88,444.94c-4.67-2.85-5.78-8.69-5.26-13.81h-3.29c-1.31,7.25,3.44,12.13,7.23,17.75-2.74.6-6.2-.77-7.9-2.94-1.97-2.51-1.98-9.3-5.26-7.88l2.32,10.17c-11.05-8.52-1.88-20.97-1.25-30.67.99-15.12-1.26-32.39-.43-47.91.15-2.74,1.04-5.4.69-8.19,7.64.97,15.3,2.18,23.01.66,1.78,8.23-1.79,16.16-3.1,24.18-1.11,6.8-2.32,13.96-3.52,20.15-.61,3.14,2.71,9.04,1.96,14.47-.38,2.73-5.2,9.78-5.2,14.49v9.53Z" fill="#fff"/>
  <path d="M548.05,597.86c3.68,18.81,7.92,39.54,12.95,58.32.59,4.23-1.08,3.86-1.47,5.26-3.44,12.54-6.25,25.83-9.79,38.17-.25.85-.39,1.82-1.6,1.69l-8.25-70.64,1.99-35.85c-2.03-2.04-5.9,5.39-7.22,6.57l-3.31-26.61,13.53,1.6c1.02,7.18,1.78,14.38,3.17,21.5Z" fill="#fff"/>
  <path d="M363.34,246.85c.16.31,1.54.1,1.04,1.86-.08.3-1.22.3-1.31.8-1.19,7.11-.94,15.69-2.16,22.72-3.02,17.35-12.86,33.96-15.28,51.76l-10.18-15.46c3.7-5.01,6.5-5.54,8.34-12,5.23-18.25-3.43-26.86-6.62-42.97-.93-4.69-1.71-9.78-1.64-14.58,1.02-2.77,19.59-7.9,23.13-6.26,1.36.53,1.29,6.28,1.92,8.59.53,1.92,1.82,3.77,2.72,5.53Z" fill="#fff"/>
  <path d="M577.3,435.82c.99,2.02,2.17,3.79,2.91,5.96,6.03,17.57,6.01,36.34.27,53.9-1.66,5.08-4.64,13.32-11.26,12.33-8.17-1.23-7.44-15.74-8.26-21.24-.09-.64-1.27-.39-1.32-.44-.75-.81,1.86-.21,1.31-1.63-2.51-.93-1.45-.98,0-2.3l-1.31-.65c2.47-.02,1.04-5.79,1.32-8.21.98-8.3,3.48-18.45,6.72-26.15.92-2.2,6.53-13.22,9.62-11.57Z" fill="#fff"/>
  <path d="M136.88,648.7l-1.74,14.17c.46,2.13,7.91,1.71,6.34,3.56-11.33,4.72-17.08,14.24-19.02,26.04-1.63,1.23-27.92-4.89-26.84-11.69l5.06-25.21,36.19-6.86Z" fill="#fff"/>
  <path d="M334.78,251.69c1.08,7.64,3.37,15.04,5.34,22.47,1.57,5.94,3.08,7.03,2.58,14.69-.26,3.91-5.58,17.83-10.17,17.43-.74-.06-9.82-6.58-12.85-7.6-2.04-.68-15.86-3.01-16.37-3.68-1.83-7.93,3.14-7.31,7.74-11.51,1.85-1.69,6.09-6.84,7.49-8.98,1.08-1.67,2.64-6.96,3.43-7.71.89-.84,3.24-.91,4.73-1.84,5.06-3.18,7.42-5.83,6.78-12.29l1.31-.98Z" fill="#fff"/>
  <path d="M394.61,337.15c-3.37,15.72,9.55,30.87,24.46,34.37,22.95,5.38,46.82-5.79,61.71-22.88l5.8,3.18c-15.23,29.77-74.54,43.87-93.56,12.22-3.67-6.1-11.91-28.65,1.59-26.89Z" fill="#fff"/>
  <path d="M590.54,191.22v15.78c-22.61-4.13-49.71-3.66-68.71,10.51l-1.12-.82c-5.36-8.46,8.28-17.72,14.82-20.98,15.74-7.83,38.16-8.68,55.01-4.48Z" fill="#fff"/>
  <path d="M502.06,545.87c8.46,9.59,15.31,53.26,5.02,61.79-9.21,7.63-14.1-11.5-14.98-17.31-2.19-14.5-1.12-34.59,6.15-47.43,1.78-.53,2.85,1.87,3.81,2.96Z" fill="#fff"/>
  <path d="M61.28,655.93l-1.32,15.76c-7.42.45-15.69,3.1-21.64,7.61-3.96,3-9.49,10.08-10.57,14.74-13.76-5.53-6.57-17.11-5.27-27.95.24-2.02.17-14.85.68-15.43l38.13,5.26Z" fill="#fff"/>
  <path d="M300.6,290.47v9.86c2.05.59,1.68-2.57,2.33-2.65,1.48-.18,6.26,1.91,8.19,2-5.37,18.77-35.78,19.3-47.01,6.57-2.11-2.39-2.81-5.27-4.93-6.91-.43-1.66,5.06-1.58,6.21-2.22,1.46.46.12,3.46,3,2.55l-.65-9.85c10.72,4.23,21.97,4.51,32.87.65Z" fill="#fff"/>
  <path d="M537.04,757.59c-.03.17-.95.25-1.04.69-1.04,5.29-.37,11.45-2.65,16.61.42-19.58-.58-39.27-.03-58.85.46-16.49,2.56-33.51,4.02-49.23.18-1.91.45-22.72,1.59-22.72l6.92,68.72c-3.55,14.8-5.92,29.85-8.81,44.78Z" fill="#fff"/>
  <path d="M590.54,313.15c-8.24,7.96-25.47,10.65-35.17,4.27-3.66-2.41-12.52-12.24-2.61-11.89,1.61.06,1.14,2.77,3.59,2.03l-.65-7.89c12.17,2.09,25.44-.41,34.84-8.54v22.02Z" fill="#fff"/>
  <path d="M87.35,692.95c2.55,4.22,2.15,6.91-2.4,8.99.65-5.32-1.7-11.96-7.89-11.83.16,3.32,3.68,3.32,4.75,6.74.54,1.72,1.18,6.11-.15,7.39l-4.6.99c1.41-3.24-6.18-13.84-8.86-13.15-2.47,1.82,1.66,3.84,2.83,5.7,2.9,4.61,4.08,9.25-2.91,9.37l-2.89-6.87c-.87-1.09-9.14-6.69-9.2-3.27-.02.96,10,5.34,7.22,10.19-8.37-.59-17.02-1.84-24.28-6.33,3.83-13,25.83-23.41,37.87-17.44,2.25,1.12,9.32,7.54,10.51,9.52Z" fill="#fff"/>
  <path d="M431.47,480.39l-3.33-15.73c20.85.55,42.15-.67,61.79-7.89l-.96,5.28c-7.82,3.23-16.66,12.64-24.03,15.41-9.89,3.72-23.07,2.79-33.48,2.93Z" fill="#fff"/>
  <path d="M248.22,380.71c.02-.1,1.2-.91,1.41-1.39,23.71,4.92,48.64,4.35,72.29-.71.94.3,1.94,7.65,1.72,8.78-.4,2.12-14.01,6.04-16.24,6.06-2.74.01-7.15-3.65-11.24-4.22-14.03-1.95-17.81,2.44-28.91,4.27-6.05,1-13.96-1.54-19.62-3.76.43-2.8-.01-6.46.61-9.03Z" fill="#fff"/>
  <path d="M357.8,774.9c.32-12.11-8.19-22.03-17.75-28.26l50.99,9.81c.66.94.39,4.75,0,5.99-1.66,5.27-27.41,11.48-33.23,12.45Z" fill="#fff"/>
  <path d="M554.38,208.97c-7.34,8.49-18.67,13.1-29.58,15.12l.1,1.23c3.62,1-.03,4.83-.08,5.14-3.09,21.65.7,53.21,21.23,65.38,2.25,1.33,6.62,1.53,7.04,4.19.68,4.27-7.64,4.51-10.72,5.7s-6.01,3.04-9.02,4.45l-9.78-51.03c-2.32-12.84,1.71-25.89-1.44-38.55,9.4-6.69,20.77-10.61,32.25-11.63Z" fill="#fff"/>
  <path d="M153.32,304.28c2.4,13.66,11.76,28.1.01,40.75-3.49-16.4-17.5-29.13-34.24-30.52l.42-4.23c11.6,1.99,23.39-1.15,33.8-6Z" fill="#fff"/>
  <path d="M590.54,187.93c-20.92-4.75-43.91-2.48-62.46,8.54,12.42-18.5,41.41-29.15,62.46-20.7v12.16Z" fill="#fff"/>
  <path d="M335.23,761.96c1.6,1.97,9.01,14.9,5.7,16.13-5.06-.07-9.97.97-15.04.78-2.52-.1-10.99-.51-10.72-3.47.17-3.89,6.57-6.04,9.45-7.71l-.71-1.96c-6.12,1.01-11.39,4.44-11.48,11.14-4.64-.85-5.73-3.12-3.88-7.5,1.41-3.34,5.61-3.54,6.51-6.95-4.76-.44-11.09,4.98-10.52,9.85-4.99-1.03-.95-7.41.89-9.62,2.3-2.77,11.91-8.96,15.38-9.31,3.14-.32,12.32,6.05,14.42,8.63Z" fill="#fff"/>
  <path d="M590.54,591.84c-.35,1.4-6.84,10.11-8.07,12.34-2.03,3.67-3.7,7.68-5.09,11.64-1.12-2.03-.76-5.89-.68-8.24.87-24.45,4.85-48.57,13.84-71.28v55.54Z" fill="#fff"/>
  <path d="M343.33,358.83c.4,7.56,1.83,17.02-.31,24.34-.35,1.21-10.3,21.44-11.03,22.5-.53.77-.56,1.42-1.81,1.14-.06-2.07-.17-4.74-.73-6.7-3.37-11.75-3.09-23.48.05-35.17.33-1.21-.13-2.84.02-4.14l13.81-1.97Z" fill="#fff"/>
  <path d="M138.2,695.37c-1.88-8.04,12.06-24.43,19.3-24.12,4.92.21,25.88,11.48,16.54,18.19-1.52-7.03-7.91-11-14.8-11.16l.45,1.98c6.33,1.03,17.84,10.36,6.5,13.08-1.88-3.16-3.02-5.64-6.68-7.11-2.18-.88-9.13-2.51-7.12,1.32,4.51.84,8.53.94,10.73,5.61l-1.04,1.45c-1.38-.43-3.72.77-4.49.77h-19.4Z" fill="#fff"/>
  <path d="M378.15,441.62c-8.51-1.51-16.77-3.89-25.37-5.14-3.7-.54-13.34.44-15.69-4.04-.34-.64-1.3-8.23-1-8.54,15.45-.34,30.95,1.74,45.57,6.7l1.1.86c-2.68,2.51-4.19,6.53-4.62,10.15Z" fill="#fff"/>
  <path d="M590.54,406.16v11.17c-14.14,2.57-28.73,2.69-42.94.53l-2.45-11.37,45.39-.34Z" fill="#fff"/>
  <path d="M130.95,442.94c-9.68,1.96-24.09,5.78-33.8,3.93-3.91-.74-16.51-10.68-20.74-13.1,18,1.9,37.6,3.3,54.56-3.95l-.02,13.12Z" fill="#fff"/>
  <path d="M342.67,546.49l37.79-6.28c4.8,2.04,1.89,9.26,6.92,10.23-13.6,5.73-28.67,5.98-43.08,8.23l-1.63-1v-11.17Z" fill="#fff"/>
  <path d="M280.83,536.99l.69,13.11c-7.87-2.48-15.63-4.69-23.24-7.98-2.68-1.16-12.85-5.72-14.24-7.45-2.79-3.47-5.41-13.6-6.55-18.09,11.6,11.17,27.59,17.69,43.35,20.41Z" fill="#fff"/>
  <path d="M363.33,525.38c.05-.19.91-.3,1.01-.73,1.11-4.78-2.31-5.03-1.95-9.07,4.77.52,24.43-7.12,26.97-5.91,2.71,1.28,4.1,10.46.9,12.74-1.99,1.42-23.84,6.82-26.29,6.62-2.26-.18-1-2.28-.63-3.65Z" fill="#fff"/>
  <path d="M408.42,205.02l2.52-32.42-.96-1.06c-6.51,2.02-13.51-1.09-16.69-6.94,5.34-5.11,17.76-2.96,21.17,3.14,4.15,7.42,2.02,22.15-.46,30.04-.86,2.75-2.02,8.14-5.59,7.23Z" fill="#fff"/>
  <path d="M310.92,517.37c1.66-.53,22.93.13,23.91.81,1.27,2.69.68,12.12-2.35,12.86-1.87.46-23.02-.91-24.04-1.6-1.67-2.47-.12-11.25,2.47-12.07Z" fill="#fff"/>
  <path d="M306.26,518.31c-.27.54-1.33.31-1.66,2.58-.38,2.59.15,5.54-.06,8.18l-27.66-7c.64-3.06,2.09-10.5,5.7-10.72,5.41-.34,17.04,5.38,23.49,4.69,1.73.68.72,1.22.19,2.27Z" fill="#fff"/>
  <path d="M352.18,764.75c.93,1.91,4.68,9.13,3.38,10.85l-11.56,1.92c.56-6.66-4.29-15.12-8.89-19.71-2.54-2.53-5.38-3.41-8.02-5.12-.62-.4-1.19.1-.85-1.46,13.98-5.18,20.21,1.7,25.94,13.5Z" fill="#fff"/>
  <path d="M590.54,689.12c-.1.35-3.75,5.06-4.59,5.59-.64-7.71-1-15.52-2.01-23.19-.09-.69-2.69-6.27-2-8.68l8.61-30.57v56.86Z" fill="#fff"/>
  <path d="M70.48,679.59c-14.42-.99-28.48,6.97-33.9,20.36l-6.52-3.9c.95-5.42,5.08-10.39,9.21-13.81,7.63-6.32,24.53-13.01,31.21-2.65Z" fill="#fff"/>
  <path d="M301.92,774.9c6.51,5.1,15.89,6.38,23.96,6.61,21.28.58,44.79-5.4,64.13-13.84,2.74,3.65-10.42,7.98-12.61,8.74-16.87,5.84-58.66,15.63-72.87,2.78-.66-.6-3.29-3.48-2.6-4.3Z" fill="#fff"/>
  <path d="M278.21,509.39l-4.29,11.72c-3.37-.53-21.74-8.37-22.05-10.78,1.39-20.44,15.87-2.23,26.34-.94Z" fill="#fff"/>
  <path d="M358.99,516.71c2.27,4.32,2.68,8.41.69,12.94-3.26-.27-22.91,2.99-23.55.37,1.49-3.77,1.97-8.16.62-12.11l22.24-1.2Z" fill="#fff"/>
  <path d="M398.33,179.44l9.37,1.68c-1.44,8.48-3.46,17.87-.76,26.23-2.22,3.39-7.7.18-9.73-1.97-5.51-5.85-2.75-19.61,1.11-25.94Z" fill="#fff"/>
  <path d="M152.01,669.08c.95,1.12-8.13,7.02-9.23,8.19-4.05,4.29-7.5,11.46-7.2,17.45l-10.51-1.35c1.18-8.98,5.45-16.98,12.92-22.2,5.39-3.76,7.67-4.67,14.02-2.08Z" fill="#fff"/>
  <path d="M407.76,444.93c-3.61-.98-7.71,7.28-8.87,7.31l-17.68-8.54c-1.67-1.6,1.99-10.98,5.15-11.21,2.29-.16,22.89,10.6,21.4,12.44Z" fill="#fff"/>
  <path d="M572.12,510.67l-3.28,78.87c-5.98-25.62-1.82-51.82-1.36-77.83l4.64-1.04Z" fill="#fff"/>
  <path d="M393.95,206.33l-23.66-4.92c-.21-2.43,13.94-15.96,16.61-15.36.3.07,4.91,3.32,5,3.62-1.54,5.92-.18,11.21,2.04,16.66Z" fill="#fff"/>
  <path d="M415.65,504.1c-1.52,9.73-12.93,13.23-21.03,15.77.43-4.68-.33-8.76-3.29-12.48l11.54-6.6,12.78,3.31Z" fill="#fff"/>
  <path d="M421.99,458.31c.52.79,3.89,7.35,3.52,7.66l-12.04,1.25c-1.16-3.17-11.9-11.6-11.52-13.89.46-2.84,6.16-6.85,9.28-6.31,1.97.34,9.45,9.28,10.77,11.29Z" fill="#fff"/>
  <path d="M132.58,447.93c2.72,3.78,3.58,10.11,4.96,14.74-5.18-1.64-9.79-4.73-14.99-6.37-7.13-2.25-15.07-1.39-20.51-6.45l28.6-4.3c1.56.04,1.32,1.55,1.93,2.38Z" fill="#fff"/>
  <path d="M236.41,460.47c.9,1.71,3.96,5.04,4.16,7.23.31,3.44-3.12,10.12.04,14.4-3.26,2.31-7.51,3.84-8.72,8.19-5.59-11.04-2.7-24.15,2.31-34.83,1.84.93,1.33,3.35,2.21,5.02Z" fill="#fff"/>
  <path d="M177.64,690.11c-1.25,8.88-15.23,11.26-22.69,11.82-11.98.9-44.34-3.02-54.18-9.56-1.39-.93-3.43-2.54-3.99-4.22,24.02,8.98,58.12,17.84,80.86,1.96Z" fill="#fff"/>
  <path d="M424.53,370c-1.68-.19-11.31-2.82-11.48-4.27l5.66-10.91,16.02,2.02.65,13.15c-3.47-.28-7.45.39-10.85,0Z" fill="#fff"/>
  <path d="M242.07,485.04c2.47,5.64,7.39,9.46,12.5,12.5-.6,2.54-3.14,3.44-4.1,6.07-.75,2.08.1,4.21-1.5,5.74-8.47-6.67-24.95-16.9-6.9-24.31Z" fill="#fff"/>
  <path d="M476.61,289.3c15.44-3.63,15.77,18.92,1.91,17.56-10.09-.99-9.43-15.79-1.91-17.56Z" fill="#fff"/>
  <path d="M509.66,686.82c-5.01-8.7-3.23-17.46-3.91-26.64-1.13-15.11-1.45-30.31-2.6-45.38-.1-1.29-1.25-.73-1.39-1.27l2.97-1.67,1.64,1.67,3.28,73.28Z" fill="#fff"/>
  <path d="M428.11,488.28l-11.81-1.28c1.67-6.07-.3-11.15-1.28-17.04,2.68-1.07,9.1-2.59,11.19-.42,2.19,5.93,3.2,12.54,1.9,18.74Z" fill="#fff"/>
  <path d="M259.18,527.09c-11.12-4.11-25.65-12.82-24.98-26.28,2.55,5.97,21.11,13.84,23.06,16.71,1.47,2.18-.22,6.99,1.92,9.58Z" fill="#fff"/>
  <path d="M88.23,703.92c.1,2.27-2.14,3.38-3.74,4.47-16.76,11.47-56.6,1.92-65.29-17.62,13.45,14.85,39.82,23.26,59.3,17.55,3.73-1.09,6.15-3.5,9.72-4.4Z" fill="#fff"/>
  <path d="M407.1,517.9c-5.44,7.65-14.8,10.58-22.33,15.46-1.55,1-1.99,2.98-3.35,3.89-1.15.77-9.38,2.81-9.82,2.34l-.04-9.57c12.46-1.91,24.36-6.51,35.54-12.11Z" fill="#fff"/>
  <path d="M590.54,222.77c-1.1,1.24-23.85-9.59-23.68-14.78.31-1.34,21.89.96,23.68,3.28v11.5Z" fill="#fff"/>
  <path d="M444.2,766.75c.06.16.85.36,1.13,1.18,2.42,6.92,3.83,14.37,5.82,21.42l-22.34-31.22,11.87-1.33c.98.52,2.86,8.15,3.52,9.94Z" fill="#fff"/>
  <polygon points="451.15 352.91 454.17 364.76 438.63 369.07 437.63 356.81 451.15 352.91" fill="#fff"/>
  <path d="M459.7,481.75c-3.4,1.8-15.37,11.55-18.19,11.71-.65.04-8.8-4.24-10.8-4.26l.72-6.15c9.46,1.98,18.88-.54,28.27-1.31Z" fill="#fff"/>
  <path d="M399.22,350.95c4.48,2.08,9.66-5.9,12.15-3.94.2,1.66,4.68,5.6,4.74,6.23.12,1.14-4.61,10.73-5.72,11.24-3.35,1.02-12.03-12.8-11.17-13.53Z" fill="#fff"/>
  <path d="M456.78,361.1c-2.24-2.1-2.89-6.01-2.92-9.05,8.08-6.86,10.87-5.58,17.65,1.85l-13.37,8.83c-.55-.14-.89-1.19-1.36-1.63Z" fill="#fff"/>
  <path d="M328.21,409.44c-3.27-2.04-4.72-5.08-8.33-7.11-4.02-2.26-10.98-1.88-10.73-6.69l14.78-4.61,4.28,18.4Z" fill="#fff"/>
  <path d="M261.15,396.3c-7,5.22-14.47,10.13-19.06,17.74l5.23-21.4,13.83,3.67Z" fill="#fff"/>
  <path d="M410.39,336.49c-2.48,1.56-.8,3.72-1.33,6.22-.77,3.67-8.43,5.67-11.74,4.86l-.12-10.8,13.18-.28Z" fill="#fff"/>
  <path d="M391.32,552.74c.42,1.71-.58,1.16-1.24,1.7-7.13,5.81-16.67,9.2-25.05,12.76l.65-8.54,25.63-5.92Z" fill="#fff"/>
  <path d="M248,265.49c-11.14.26-13.54-15.03-3.6-19.03l3.6,19.03Z" fill="#fff"/>
  <path d="M264.34,546.92c.33.41,1.52,8.9,1.75,10.41-6.2-4.39-12.61-8.77-17.25-14.92-.44-.58-1.32-.37-.83-2.16l16.33,6.67Z" fill="#fff"/>
  <path d="M464.97,343.73c3.74-.8,5-4.85,7.56-7.23l5.51,10.69-4.76,4.36-8.31-7.82Z" fill="#fff"/>
  <path d="M328.48,248.13c5.94,5.97,2.55,12.96-4.87,14.73,1.61-4.38.39-12.35,1.41-16,.68-2.43,2.73.54,3.46,1.27Z" fill="#fff"/>
  <path d="M240.76,408.78c-1.18-1.94-.76-5.89-.56-8.12.49-5.28,1.86-12.19,2.84-17.54.49-2.64.86-6.3,2.32-8.51,2.28,11.39-2.84,23.01-4.6,34.17Z" fill="#fff"/>
  <path d="M392.31,174.14c5.92,2.87.01,17.91-3.27,9.83-1.39-3.43.77-7.48,3.27-9.83Z" fill="#fff"/>
  <polygon points="576.73 576.4 573.45 607.29 572.78 576.39 576.73 576.4" fill="#fff"/>
  <path d="M407.77,174.79l-.06,2.57c-5.31.75-10.87.8-13.08-4.88,1.12-1.48.86-.63,1.63-.34,3.82,1.42,7.05,3.62,11.51,2.65Z" fill="#fff"/>
  <path d="M140.74,476.58l2.06,9.77-7.21-8.89c-.63-1.67,4.92-1.03,5.16-.88Z" fill="#fff"/>
  <polygon points="345.3 377.89 345.3 366.72 349.15 372.19 345.3 377.89" fill="#fff"/>
  <path d="M571.85,716.78c-.62.86-2.06,2.95-2.99,3.25l11.15-50.29,2.61,29.2c-3.71,5.82-6.76,12.23-10.77,17.84Z" fill="#fff"/>
  <path d="M534.66,66.33c13.69-9.26,35.87-1.31,34.18,17.09,16.37-5.81,30.75,15.81,12,22.85l-172.78.84c-10.27-.55-7.37-12.17-2.29-17.46,4.7-4.9,12.76-7.33,19.08-4.26,1.7-16.92,20.24-30.7,36.82-24.64,3.4,1.24,5.87,4.27,9.21,5.57,5.01-36.82,63.06-41.87,63.79,0ZM525.05,48.33c-15.22-17.81-42.73-7.02-50.08,12.57-.72,1.92-1.84,9.13-2.74,9.75-1.89,1.29-6.54-4.43-8.37-5.52-16.45-9.81-36.22,7.24-37.04,24.21-6.18-4.13-16.98-1.8-20.93,4.38s-2.41,11.35,5.48,11.01c53.35-3.6,110.88,2.88,163.74-.9,5.29-.38,10.72-.56,11.43-7.01.64-5.82-3.46-9.91-8.89-10.71-4.41-.64-7.38.97-11.47.96-.95-.64.18-5.53.03-7.27-.9-10.4-12.1-15.02-21.36-14.12-5.29.51-8.04,3.89-12.84,4.93-1.62-1.2.18-5.2.03-7.21-.4-5.73-3.44-10.94-6.99-15.09Z"/>
  <path d="M201.59,50.94c2.21,3.17,3.98,5.11,4.34,9.48,9.16-4.79,19.37-6.1,27.92.67.46.36,3.96,3.98,4.18,4.34,2.26,3.68,1.44,6.55,3.06,10.09,6.72-4.3,21.16,1.84,23.04,9.2s-.97,12.43-8.55,13.19c-10.19,1.02-24.71.5-35.49.67-38.79.62-77.64-.57-116.43,0-17.44-3.82-3.61-17.59,7.59-15.81.47-17.6,24.4-28.13,37.15-15.79,1.52-1.92.89-4.27,1.79-6.74,7.59-20.78,37.73-28.96,51.41-9.3ZM201.59,58.85c-1.44-3.2-2.01-5.98-4.59-8.9-12.29-13.93-33.91-7-42.25,7.59-2.61,4.57-2.75,9.85-4.39,14.7-1.45.77-3.12-2.88-4.61-3.93-14.81-10.46-32.05,1.51-33.15,18.13-8.44-3.19-21.53,6.64-7.62,9.49,35.51-.44,71.06.5,106.56,0,9.33-.13,39.01.8,45.69-.99,10.63-2.86,1.97-15.75-5.77-17.29-6.18-1.24-10.01,1.74-15.28,1.13-.81-1.79,1.19-1.93,1.28-2.4.76-4.04-2.44-10.55-5.67-13.25-7.71-6.45-20.8-4.63-26.86,3.17-1.6-2.27-2.2-4.93-3.35-7.47Z"/>
  <path d="M321.64,128.12c20.34-12.85,40.43,18.75,15.28,26.79-28.42-.68-56.95,1.63-85.33.84-3.65-.1-17.02-.37-18.73-2.31-6.22-7.07,5.88-14.65,12.41-13.58,2.89-14.23,20.48-21.97,31.64-11.08,5.45-21.24,40.75-24.35,44.73-.66ZM317.34,124.53c-6.9-15.1-26.73-13.28-35.43-.96-2.8,3.97-1.55,7.11-3.35,11.12-1.14.25-4.36-4.88-5.91-5.91-11.46-7.61-24.64,3.48-24.66,15.11-3.67-2.53-15.18.98-13.71,6.11,1.2,4.19,11.14,1.76,14.05,1.74,29.89-.21,59.87.5,89.78-.24,13.74-2.93,8.54-26.9-10.42-22.91-3.2.67-5.23,2.87-8.29,3.45-1.07-2.9-.51-4.13-2.05-7.5Z"/>
  <path d="M248.25,591.93c5.58,7.96,4.36,11.42,7.57,19.04.35.83-.27,1.16,1.38.92,1.22-6.95,9.28-22.49,16.6-23.85,6.19-1.16-2.77,4.54-3.07,4.84-7.15,7.21-10.39,18.37-13.54,27.55-1.39.42-2.67-2.48-2.95-3.29-1.15-3.34-1.26-7.76-2.34-11.46-2.22-7.58-7.09-14.01-12.35-19.87l-.1-1.53c4.19.1,6.65,4.58,8.8,7.64Z"/>
  <path d="M202.64,559.96c-5.82.07-2.81-14.08-1.41-17.48.48-1.17,10.36-14.22,11.28-9.79-3.67,3.51-9.87,11.98-9.87,17.08v10.19Z"/>
  <path d="M109.52,757.58c.03.14.88.13,1.09,1.21.75,3.76,1.11,7.8-.03,11.5-2.56,1.73-3.16-12.62-3.47-13.94-.8-3.38-3.21-9-5.46-11.63-2.09-2.44-4.83-2.66-5.52-5.32,9.51.86,11.54,10.62,13.39,18.17Z"/>
  <path d="M247.34,702.6c.31,3.49-2.71,5.71-4.07,8.74-2.79,6.23-4.33,11.85-3.82,18.86l-2.9-.58c-3.14-2.74,4.54-25.85,10.79-27.02Z"/>
  <path d="M120.69,752.78c-1.65,2.57-2.8,7.11-3.35,10.13-.31,1.67.62,8.59-1.8,8.04-3.36-.76,1.31-16.8,2.81-19.52,1.61-2.9,8.51-10.23,11.95-7.1-2.92,1.91-7.76,5.55-9.61,8.44Z"/>
  <path d="M246.04,621.09c-1.15-3.72-3.04-8.34-5.25-11.52-2.59-3.73-6.11-4.93-7.9-8.85,6.02-.28,11.28,7.73,13.26,12.7.81,2.02,3.42,7.7-.11,7.67Z"/>
  <path d="M191.22,543.11c2.71,3.44,5.22,10.43,5.32,14.75.03,1.19.59,1.85-.81,2.75-1.4.03-3.16-9.64-4.09-11.64s-6.71-7.58-6.11-9.7c1.17-1.29,4.86,2.79,5.69,3.84Z"/>
  <path d="M229.74,730.04c-.67-.85-1.36-6.06-2.19-7.97-1.85-4.24-5.78-4.74-6.5-8.95,6.2-.51,11.74,11.5,11.19,16.13-.2,1.69-1.69,1.82-2.5.79Z"/>
  <path d="M201.56,777.11c-1.48,1.83-2.68,3.73-3.64,5.89-1.12,2.51-1.24,7.83-3.83,8.33-2.04-3.52,4.76-22.25,11.16-17.41.03.68-3.18,2.57-3.69,3.2Z"/>
  <path d="M209.86,679.59c-3.66-1.63-3.42-7.34-6-10.75-1.44-1.9-6.84-4.07-4.16-6.33,6.78,1.88,10.75,10.37,10.16,17.08Z"/>
  <path d="M188.82,792.64c-1.05,1.28-5.83-10.26-6.69-11.38-2.08-2.73-5.68-3.69-5.8-7.01,5.92-1.99,14.23,16.28,12.48,18.4Z"/>
  <path d="M278.24,604.01c-5.86,5.26-7.81,9.48-11.01,16.29-.42.89.42,1.81-1.48,1.44-.42-7.48,4.64-16.9,12.49-17.74Z"/>
  <path d="M215.71,678.85l-2.55.09c-1.2-1.17,4.75-17.07,9.54-17.07,1.2.94.82.74.45,1.74-.56,1.52-3.96,4.93-5.29,7.87-1.07,2.37-1.66,4.84-2.15,7.38Z"/>
  <path d="M214.21,550.51c-2.26,3.23-4.43,6.22-5.99,10.1-3.35-3.79,3.12-14.99,7.37-14.99,3.44,0-.57,3.73-1.38,4.89Z"/>
  <path d="M202.4,417.09c-.84.96-2.36,1.42-3.35,2.9-.61.91-3.65,11.48-4.96,9.82-.31-3.95.57-8.05,2.74-11.39,1.3-1.99,5.57-6.57,7.76-4.06-.96.72-1.44,1.85-2.2,2.72Z"/>
  <path d="M251.94,714.43l-4.4,6.45-4.46,9.97c-2.18-5.72,2.52-15.32,8.86-16.42Z"/>
  <path d="M39.86,758.2c.56,1.1,4.43,7.5,1.37,8.13-2.04.42-3.15-6.3-3.95-7.86-1.49-2.91-4.44-4.72-4.26-7.89,1.86-1.97,6.29,6.52,6.85,7.62Z"/>
  <path d="M135.57,757.81l-4.88,5.31-5.3,9.14c-3.69-1.72,4.91-16.97,10.18-14.45Z"/>
  <path d="M184.01,415.58c2.37,1.91,7.73,15.02,4.49,14.88l-6.9-15.76c.96-.14,1.71.32,2.41.88Z"/>
  <path d="M54.7,751.24c.4,3.03-2.97,4.19-4.1,6.08-1.29,2.17-1.79,7.11-4.44,7.71.18-4.97,2.65-13.47,8.54-13.8Z"/>
  <path d="M398.15,615.61c1.13,4.87,3.02,11.45,4.54,16.8,4.54,15.9,11.02,29.58,16.24,45.21-1.38.3-1.5-.7-2.09-1.52-1.4-1.94-6.88-13.81-7.95-16.4-9.37-22.57-15.02-48.26-18.12-72.48l1.53-.96c2.75,9.32,3.61,19.66,5.85,29.35Z"/>
  <path d="M347.27,661.84l5.92,60.47c-2.69.45-2.46-1.36-2.98-3.26-2.84-10.54-6.72-43.22-5.56-53.58.24-2.14.23-4.32,2.61-3.63Z"/>
  <path d="M133.6,527.1c-.24,2.19.34,4.86.05,6.94-1.96,14.54-4.34,31.01-8.14,45.77-2.62,10.18-6.13,21.2-11.63,30.1,1.38-8.33,4.36-16.33,6.64-24.44.13-.47,1.02-.5,1.29-1.5,5.09-18.48,6.95-37.64,9.75-56.5l2.03-.39Z"/>
  <path d="M45.5,551.42l-12.48,70.32c1.02-17.32,2.9-35.97,6.54-52.92.86-4.02,2.34-11.82,3.98-15.76.42-1,.53-1.91,1.96-1.65Z"/>
  <path d="M421.98,304.04c-.67,1.48-5.23,6.9-6.78,8-7.53,5.31-18.53,4.31-24.22-3.15-1.21-1.59-5.44-9.26-4.94-10.74.75-2.25,9.43,1.73,11.7,2.01,8.23.99,16.56-2.02,24.07-4.95,3.14.62.97,7.07.17,8.83ZM419.59,299.68c-9.63,3.1-18.89,4.27-28.92,2.29,4.96,15.76,25.7,13.02,28.92-2.29Z"/>
  <path d="M401.84,258.92c2.03,8.22-12.92,12.73-14.3,18.24-1.8,7.22,6.65,9.78,12.33,9.37l-1.09,2.52c-5.63,1.25-14.9-2.42-15.36-8.79-.62-8.54,7.1-9.5,11.87-14.42,2.25-2.32,2.82-6.7,6.55-6.92Z"/>
  <path d="M436.04,266.81c8.83-3.58,2.67,4.31-1.54,3.2-2.78-.73-2.3-9.12-8.66-9.07-2.94.02-6.75,5.78-7.24,5.86-3.65.65.32-6.61,1.97-7.9,6.12-4.77,16.7-.38,15.47,7.9Z"/>
  <path d="M441.94,251.01c-3.29,1.74-5.5-2.76-7.94-4.19-3.89-2.29-8.35-2.87-12.71-3.64l-.37-1.34c7.33-4.9,19.7.34,21.02,9.17Z"/>
  <path d="M386.36,256.01c.88,1.56,1.95,2.73,1.71,5.19-3.84,5.27-3.77-1.69-4.99-3.56-3.63-5.57-8.99,2.61-10.49,2.62-1.8.02-4.22-4.1-1.96-5.28l2.94,1.3c3.49-5.87,9.13-6.76,12.79-.27Z"/>
  <path d="M381.98,234.08c2.47-.2,11.36,1.11,8.7,4.81-3.06.45-5.54-.61-8.82-.27-2.46.25-8.37,3.84-9.32,1.23-.9-2.47,7.54-5.62,9.43-5.78Z"/>
  <path d="M152.01,277.99c.6,2.69-2.19,2.87-3.29,4.26-4.98,6.22-7.94,9.63-17.08,6.58-3.38-1.13-12.38-8.1-7.47-11.39,9.12,3.59,18.54,3.52,27.84.56Z"/>
  <path d="M120.76,239.55c6.29,8.5-3.65,19.15-8.1,11.71-3.94-6.59,1.91-20.07,8.1-11.71Z"/>
  <path d="M157.12,232.09c7.66-.86,7.79,15.18.49,15.72s-7.93-14.88-.49-15.72Z"/>
  <path d="M142.71,239.31c2.44,8.3,16.99,15.75,11.27,25.2-2.51,4.15-12.62,6.01-11.83,2.64.48-2.05,17.08-1.01,6.56-14.46-1.91-2.43-4.48-3.61-6.14-6.32-.99-1.61-4.79-8.78.14-7.06Z"/>
  <path d="M122.38,220.84l-.61,2.92c-5.24,1.21-10.64,1.47-15.35,4.37-1.77,1.09-6.14,6.88-7,4.13-1.95-6.21,17.34-15.81,22.96-11.42Z"/>
  <path d="M165.16,222.11c-3.01,1.31-4.2-1.53-7.54-1.97-2.43-.32-11.29,2.12-10.15-1.57,1.46-4.72,17.98-3.93,17.69,3.55Z"/>
  <path d="M330.18,456.77c1.24,6.82-9.01,11.5-14.76,11.18-1.85-.1-8.5-1.45-6.59-3.96,7.59,1.76,16.21,1.79,18.83-7.1l2.51-.12Z"/>
  <path d="M299.73,446.46c.57.56.7,1.72,1.24,2.39l-.72,1.35c-5.56-2.14-7.58,1.32-11.48,3.94-1.84-6,6.07-12.46,10.96-7.68Z"/>
  <path d="M320.98,439.02c-3.53-10.12,10.95-9.19,11.82-4.25.47,2.62-6.3,1.26-8.07,1.77-1.47.42-1.95,2.71-3.75,2.48Z"/>
  <path d="M322.13,452l-5.09.82c-.43-2.27,2.11-.95,2.87-2.81,2.1-5.11-7.3-4.6-10.1-3.11l.1-2.52c6.2-3.34,15.67-.76,12.22,7.62Z"/>
  <path d="M277.59,442.96c-2.6-5.29,11.34-13.16,12.48-9.52.75,2.38-5.99,3.63-7.85,5.28s-1.76,4.69-4.63,4.24Z"/>
  <path d="M319.53,417.47c2.13-.22,7.32.41,6.71,3.46-.27,1.35-4.13-.53-6.08-.17-2.06.38-4.03,2.33-5.43,3.79-2.83-3.45,1.38-6.72,4.8-7.07Z"/>
  <path d="M537,249.99c-.1-.18-.85-.2-1-.74-.63-2.21,2.32-7.79,4.56-8.45,7.13-2.11,6.24,14.77,0,13.26-1.91-.71-2.71-2.43-3.55-4.07Z"/>
  <path d="M577.21,240.63c6.42-.9,6.32,12.4.41,12.89s-5.35-12.2-.41-12.89Z"/>
  <path d="M558.97,245.78l-6.45,13.99c1.35,4.48,6.48,2.84,10.06,3.1,3.48,1.11-6.48,6.44-11.21.7-2.33-2.82-1.64-5.96-.41-9.04.65-1.62,6.11-10.54,8.01-8.75Z"/>
  <path d="M549.78,276.01c4.73,1.9,8.21,3.13,13.5,2.65,4.45-.41,6.86-3.32,9.47-3.7,6.71-.97-3.72,5.38-6.39,6.12-4.78,1.31-16.16,1.29-16.58-5.07Z"/>
  <path d="M570.82,229.33c3.19-5.89,15.77-4.02,18.07,1.34,2.73,6.35-4.29.67-5.95.03-4.95-1.92-7.87.44-12.12-1.36Z"/>
  <path d="M541.07,226.85c1.41-.19,7.01-.03,5.76,2.51-.8,1.62-12.14,1.77-13.94,5.8-5.7,1.41,1.71-7.45,8.17-8.31Z"/>
  <path d="M271.02,272.71c.95-4.34,6.88,1.07,10.48,1.69,6.59,1.14,13.67.32,18.78-4.2,3.67,2.04-1.51,4.99-3.82,5.93-8.56,3.5-18.04,1.71-25.44-3.43Z"/>
  <path d="M303.7,240.64c6.8-.96,7.63,11.76,1.76,12.35-6.74.68-7.21-11.58-1.76-12.35Z"/>
  <path d="M263.93,241.99c6.81-6.78,11.3,15.41.94,11.56-2.71-1-2.82-9.7-.94-11.56Z"/>
  <path d="M288.72,241.87c.58.36,4.71,10.91,5.37,12.57.18.47,1.07.51,1.21,1.02,1.58,5.83-8.37,9.25-13.11,6.73-2.17-2.16,7.92-1.75,8.77-3.41,2.25-4.41-4.97-11.75-4.83-15.35.06-1.41,1.69-2.12,2.59-1.57Z"/>
  <path d="M273.64,230c-3.37.02-6.74-.32-10.02.83-2.78.97-5.91,4.63-7.72,5.43-4.42,1.95.08-5.01,1.59-6.3,3.44-2.95,15.5-6.45,16.15.04Z"/>
  <path d="M297.96,229.34c-.09-.09-.12-2.24.09-2.54,4.96-1.36,14.71-1.72,15.68,4.8-.64,2.33-5.61-1.89-7.59-2.22-1.51-.25-7.89.25-8.18-.05Z"/>
  <path d="M525.05,48.33c3.55,4.15,6.59,9.36,6.99,15.09.14,2.01-1.65,6.01-.03,7.21,4.81-1.04,7.56-4.42,12.84-4.93,9.26-.9,20.46,3.72,21.36,14.12.15,1.74-.98,6.63-.03,7.27,4.09,0,7.06-1.6,11.47-.96,5.44.79,9.54,4.89,8.89,10.71-.71,6.45-6.14,6.63-11.43,7.01-52.86,3.78-110.38-2.7-163.74.9-7.89.34-9.43-4.83-5.48-11.01s14.74-8.51,20.93-4.38c.82-16.97,20.59-34.01,37.04-24.21,1.83,1.09,6.48,6.81,8.37,5.52.91-.62,2.02-7.83,2.74-9.75,7.35-19.58,34.86-30.38,50.08-12.57Z" fill="#fff"/>
  <path d="M201.59,58.85c1.14,2.54,1.75,5.2,3.35,7.47,6.06-7.8,19.15-9.62,26.86-3.17,3.23,2.7,6.42,9.21,5.67,13.25-.09.47-2.09.61-1.28,2.4,5.27.61,9.1-2.37,15.28-1.13,7.73,1.55,16.4,14.43,5.77,17.29-6.67,1.79-36.36.86-45.69.99-35.51.49-71.05-.45-106.56,0-13.91-2.85-.82-12.68,7.62-9.49,1.1-16.62,18.34-28.59,33.15-18.13,1.49,1.05,3.15,4.7,4.61,3.93,1.65-4.85,1.78-10.13,4.39-14.7,8.34-14.59,29.96-21.52,42.25-7.59,2.58,2.92,3.15,5.7,4.59,8.9Z" fill="#fff"/>
  <path d="M317.34,124.53c1.54,3.38.98,4.6,2.05,7.5,3.06-.58,5.09-2.78,8.29-3.45,18.96-3.99,24.16,19.98,10.42,22.91-29.91.74-59.89.03-89.78.24-2.91.02-12.84,2.45-14.05-1.74-1.47-5.12,10.05-8.64,13.71-6.11.01-11.64,13.19-22.72,24.66-15.11,1.55,1.03,4.77,6.16,5.91,5.91,1.8-4.01.54-7.15,3.35-11.12,8.71-12.32,28.53-14.14,35.43.96Z" fill="#fff"/>
  <path d="M419.59,299.68c-3.22,15.31-23.96,18.05-28.92,2.29,10.03,1.98,19.29.81,28.92-2.29Z" fill="#fff"/>
</svg>