<?xml version="1.0" encoding="UTF-8"?>
<svg id="Camada_1" xmlns="http://www.w3.org/2000/svg" version="1.1" viewBox="0 0 595.28 841.89">
  <!-- Generator: Adobe Illustrator 29.0.0, SVG Export Plug-In . SVG Version: 2.1.0 Build 186)  -->
  <path d="M.14,841.29V-.06h595v841.34H.14ZM242.74,3.89H4.08v132.12c9.89-5.48,19.85-13.15,28.58-20.4,27.65-22.96,44.78-47.38,68.19-73.15.47-.52,1.05-1.93,1.86-.77-3.03,6.5-7.83,12.92-12.23,18.67-18.97,24.76-45.83,50.48-70.67,69.35-4.82,3.66-10.64,7.2-15.72,10.57v33.85c17.11-4.51,33.55-11.07,49.54-18.5,59.37-27.58,117.61-71.4,162.19-119.17,9.57-10.26,18.79-21.22,26.92-32.57ZM278.9,3.89h-32.87c-2.11,4.04-5.03,8.64-7.9,12.15-27.77,34.07-67.3,69.27-103.01,94.86-39.55,28.35-83.75,53.22-131.04,65.85v35.49c47.09-10.93,87.69-39.44,125.91-67.7.14,2.38-2.97,5.1-4.59,6.58-12.34,11.25-32.89,24.17-47.48,32.72-22.56,13.21-47.61,25.6-73.2,31.33l-.64,4.3c25.04,3.35,50.38-4.68,73.44-13.68,84.3-32.92,156.91-90.75,206.52-166.18,7.4-11.25,14.49-23.38,19.84-35.73h-23.01c-8.35,12.68-19.52,25.62-30.55,36.17-10.43,9.97-22.36,19.04-34.85,26.29l-.99-.99c24.24-17.75,45.96-37.67,64.42-61.47ZM364.37,3.89h-54.57c7.45,16.1,18.39,31.8,29.61,45.68,43.16,53.39,102.55,98.33,166.32,124.22,26.89,10.91,55.67,19.14,84.8,20.72l-.1-7.47c-10.95-3.98-22.73-6.91-33.94-10.76-48.33-16.58-102.62-46.87-135.84-86.36-1.95-2.32-5.79-6.16-5.34-9.13,24.96,26.13,52.26,49.57,84.04,67.16,28.68,15.88,59.79,26.79,91.18,36.03v-49.3c-22.84-5.11-45.14-12.96-66.84-21.58-61.3-24.34-117.84-56.96-159.32-109.22ZM590.54,3.89h-222.22c55.69,67.47,138.93,105.71,222.22,127.52v-21.03c-31.79-14.39-60.6-34.64-86.76-57.54-9.57-8.38-19.63-16.76-27.61-26.96-1.35-1.72-3.21-3.56-3.33-5.87l23.02,22.34c28.85,25.11,59.8,48.58,94.68,64.74V3.89ZM318.11,25.15c-.24-.37-1.18-.62-1.62-1.3-3.59-5.63-6.17-11.85-9.97-17.33-6.46,13.77-14.23,26.71-22.79,39.26-35.72,52.38-81.85,96.44-136.78,128.88-32.18,19.01-66.5,35.08-102.5,45.46,1.62,7.32-1.79,12.03-7.94,15.45,3.85,9.8,6.53,19.38,8.78,29.8,2.85,13.24,4.76,26.74,6.13,40.21,1.51.31,1.05-.14,1.47-.84,3.53-5.89,7-21.15,10.42-28.86,16.86-38.04,46.41-73.41,93.55-64.88,2.48.45,8.17,3.22,9.84,3.05,2.08-.22,6.07-5.98,9.91-7.11,12.42-3.63,22.09,4.49,17.11,17.12,7.16,5.31,13.91,11.32,17.55,19.67,14.63-5.01,27.6-11.93,43.64-10.47,8.43.77,21.72,8.97,29.45,13.28,14.01,7.81,27.3,17.03,40.98,25.39,23.24-13.31,52.86-12.6,73.01,5.98,3.69-1.48,6.52-4.04,10.57-5,10.61-2.53,24.8,2.05,31.37,10.98,26.1-17.57,55.26-31.82,85.7-40.19,3.27-8.23,5.91-17.14,10.03-24.99,1.1-2.1,9.71-13.8,9.68-14.68-.02-.56-3.2-2.66-3.68-4.74-.72-3.05.05-6.95.5-10.02-22.4-6.43-44.41-14.83-65.32-25.09-61.44-30.13-121.6-81.82-159.09-139.04ZM590.54,197.13c-6.72.37-13.31-.49-19.93-1.43-5.42-.77-21.08-5.38-24.51-5.1-.57.05-.92.05-1.27.58-2.69,9.33,5.6,13.01,13,15.33,10.14,3.19,22.22,3.73,32.73,2.45v-11.83ZM590.54,538.6V212.25c-2.86,1.16-14.12-.35-15.01,1.76l-7.35,69.23-.68-25.99c.99-12.86,1.91-26.21,4.58-38.27.42-1.9.28-3.95,1.27-5.76l-7.87-1.24-15.69,58.77c.46-9.27,2.31-18.54,4.26-27.61,1.77-8.22,4.37-16.64,6.84-24.19.78-2.39,1.51-4.78,2.59-7.05l-16.25-6.14c-13.6,23.15-23.48,48.09-29.67,74.19,20.4,3.38,40.82,19.92,48.97,38.8,3.46,8.03,7.59,21.96,8.21,30.57.29,4.06.1,8.34-.54,12.35,8.34,7.07,13.52,10.97,10.88,22.92-1.14,5.14-6.66,10.71-6.41,15.97.2,4.41,5.24,7.5,6.42,11.37,3.71,12.17-2.58,20.91-12.08,27.4,2.57,5.44,10.35,34.75,7.74,38.22-.69.91-2.11.27-2.83,1.8-1.19,2.56-.77,11.64-1.27,15.12-1.61,11.13-5.85,20.5-16.59,25.33l-.47,1.71,7.05,16.82c7.86,2.09,16.18,4.2,23.9.27ZM189.86,211.89c-11.3-9.46-26.24,6.44-22.78,19.11.42,1.55,3.06,5.84,3.84,8.02.86,2.39,4.68,14.76,5.85,15.18,15.45,3.62,7.5-12.81,8.82-21.85.93-6.3,10.54-15.21,4.26-20.47ZM4.08,222.11v12.16c10.19,3.52,24.91,3.7,33.86-3.62,2.6-2.12,6.01-6.73,3.18-9.91-12.39,3.3-24.48,4.06-37.05,1.37ZM167.4,239.6c-1.02-2.13-1.83-6.63-4.49-6.9-22.97,3.66-46.3,3.68-69.53,2.91-3.86.6-9.78,10.06-12.37,13.12,2.27,2.48,5.88.98,8.11,1.23,27.11,3.03,54.35,2.53,81.62,3.69l1.55-1.5c-1.46-4.42-2.97-8.55-4.89-12.55ZM211.84,254.98c1.48-1.46-5.44-15.84-7.26-17.39s-15.8-4.1-17.07-2.98l1.27,19.43,23.06.94ZM220.39,338.45h27.28c.18,0,1.27-.61,1.47-.85,2.6-10.39,9.05-15.94,17.35-21.75,1.43-1,4.28-1.4,5.64-2.58,1-.87,2.22-3.88,3.53-5.18,13.05-12.93,30.46-18.31,48.87-16.24,3.97.45,8.85,3.09,12.56,3.2,3.94.11,9.32-2.17,13.48-1.97-24.34-16.73-49.94-35.48-76.24-48.99-16.03-8.24-22.23-10.51-40.47-5.57-2.51.68-20.28,7.12-20.73,8.33,10.58,29,6.17,61.18,7.26,91.59ZM4.08,237.23v295.13l6.36,1.2,10.74,8v-10.19c0-.49-5.49-4.95-6.81-7-2.83-4.41-6.06-12.74-2.94-17.52,4.37-1.15,6.54,1.62,9.08,4.48-.14-3.86,1.17-15.63,4.23-17.8,1.54-1.49,4.83.19,5.36,1.96,2.08,10.01-2.2,17.41-6.23,26.04l1.24.97c.45-3.12,7.87-6.95,9.94-4.34,2.23,6.28-4.87,12.84-10.58,14.2v15.78c2.14-2.13,7.34-2.71,8.71-5.42,2.5-4.94,3.57-18.56,6.06-25.51,1.11-3.09,7.86-14.79,7.96-17.37.06-1.6-1.24-4.15-1.03-7.22.18-2.73,2.4-7.28,2.34-9.21-.09-2.81-3.36-11.44-3.69-17.06-1.11-18.72.48-39.07,1.93-57.75-.78-2.54-12.51-.92-15.96-9.07-2.94-6.93,3.03-28.77,5.05-36.87,3.6-14.42,9.84-29.55,12.62-43.91,3.22-16.59-4.5-44.95-8.8-61-1.82-6.79-2.82-13.84-5.4-20.43l-6.42,1.32c1.39,9.36,3.73,18.54,5.09,27.95,2.04,14.11,2.99,28.39,4.06,42.6l-.68,16.13-4.7-49.53-6.6-35.47c-1.02-2.43-6.4-.42-8.39-.4.36,3.25,1.55,6.2,1.92,9.5,1.12,10.01,1.69,22.69,2.01,32.83.78,25.11-.49,50.27-2,75.29h-1.97c.28-9.96-.37-19.99-.05-29.95.58-18.64,1.32-36.91.07-55.86-.71-10.81-1.55-21.67-2.76-32.41l-9.76-2.08ZM523.47,247.09c-29.81,8.5-57.02,23.86-83.18,40.09-11.21-11.94-27.85-15.48-41.97-6.04-18.15-16.38-47.92-20.52-69.19-7.83-.58.35-1.29-.34-.93,1.37,1.01-.03,1.9.32,2.73.88,5.98,4.07,20.55,15.85,26.23,17.83,3.14,1.1,8.19.97,11.82,1.99,21.47,6.03,34.38,22.27,42.15,42.32l23.14.11c3.55-5.61,3.49-12.36,5.38-18.43,9.62-30.89,45.86-41.5,75.2-40.18l8.62-32.12ZM211.18,267.46c-7.35-.46-14.61-1.93-21.49-4.48-2.54-.94-7.67-4.64-9.73-4.78-3.74-.26-19.25,4.02-25,4.64-12.26,1.32-24.79,1.18-37.1,1.37-.69,6.79-3.18,13.3-7.04,18.85-1.05,1.51-3.28,1.98-2.87,4.78-3.66.05-3.36-5.09-6.14-7.65-2.49-2.29-5.9-3.04-9.22-2.8-17.44,1.26-17.58,27.75-4.67,35.43,3-4.1,10.47-4.76,14.15-1.01,5.42,5.5,2.94,14.12,7.19,20.24,14.68,21.12,48.67,35.86,73.24,24.08,33.59-16.11,27.11-57.61,28.68-88.66ZM560.71,313.7c-12.41-20.31-37.08-34.07-61.22-31.1l-12.83,2.6c22.07-.12,45.01,11.96,55.99,31.12,5.94,10.36,10.61,22.68,9.74,34.8,12.97,7.22,11.83,22.08,1.39,31.13,4.43,6.22,4.23,12.55,1.89,19.6.35,3.09,9.34,6,9.2,15.79-.03,2.43-1.57,6.23-1.04,8.24.17.63,7.18,10.43,7.83,10.42,8.48-3.78,11.67-13.61,10.02-22.29-.83-4.37-4.52-7.23-5.65-10.78-2.15-6.76,6.48-16.49,5.95-25.65-.57-9.78-10.4-13.09-11.14-16.61-.64-3.03.32-7.65-.05-11-1.3-11.58-3.98-26.28-10.08-36.27ZM536.22,313.23c-6.1-7.94-12-13.51-21.06-18.06-25.92-13.03-60.04-8.28-69.94,21.92l9.95-8.46c34.47-18.98,78.79,4.36,87.03,41.67h7.57c.17-13.34-5.48-26.55-13.56-37.06ZM484.68,309.54c-3.09,1.61-5.71,5.69-8.22,7.88-9.31,8.13-21.33,12.5-32.9,16.4-.47,22.82-7.6,48.78,11.89,65.75,17.5,15.24,43.88,12.86,62.32.55,6.25-4.17,14.75-12.45,14.92-20.25,5.84,2.35,10.7,3.08,16.61.5,13.27-5.78,11.64-27.57-3.05-26.56-5.84.4-6.15,5.42-10.93,6.33.04-3.32-3.45-3.59-5.62-5.89-5.79-6.17-7.46-12.55-8.82-20.76-13.51-2.04-34.47-7.95-36.2-23.95ZM87.81,339.49c14.21,11.71,22.03-19.79,11.13-26.53-12.55-7.76-18.39,20.55-11.13,26.53ZM201.32,344.36c9.96,1.1,10.66-13.36,10.51-20.36-3.91,6.58-4.61,14.93-10.51,20.36ZM366.34,350.95c-17.87-.02-35.69-8.56-43.72-24.97-14.54,11.68-32.74,18.1-51.52,17.17-5.62,15.78-7.84,35.99-6.66,52.81,1.61,23,13.68,41.62,36.29,48.51,29.57,9.01,59.18-3.66,72.18-31.44,6.55,1.24,12.05,1.69,17.76-2.58,12.82-9.58,8.35-35.41-8.69-29.06-3.5,1.3-4.65,5.45-8.42,5.06.8-5.18-3.06-8.62-4.91-13.17-2.99-7.39-3.87-14.4-2.33-22.32ZM246.36,341.08h-25.97v58.83c0,1.08-4.69,3.43-5.61,4.24l2.3,6.3c8.95-.69,14.79-.86,17.11,9.18l13.15,4.26c-.51-6.99,2.74-13.06,5.13-19.51-5.36-9.37-9.5-16.29-6.1-27.8.81-2.74,5.46-7.52,5.54-9.54s-3.51-6.29-4.14-8.3c-1.64-5.22-1.74-11.4-.6-16.72l-.81-.96ZM434.06,341.08h-21.7c1.13,4.99,1.67,13.81,3.79,18.23,2.36,4.91,8.45,5.15,11.29,15.01,3.33,11.56-1.17,14.28-1.11,22.78.05,7.28,4.91,7.88,8.38,12.02,5.07,6.05,6.09,15.15,4.14,22.54-1.61,6.09-5.03,5.54,1.45,11.95l13.79-17.09c1.6-3.86-1.51-3.47-2.85-5.67-2.9-4.74-3.92-8.67-3.31-14.29.27-2.41,2.16-5.71,1.8-7.81-.39-2.22-5.56-7.2-6.62-9.2-5.33-10.09-2.5-18.18-4.47-27.75-.38-1.84-2.92-5.42-3.63-8.86-.81-3.86-1.05-7.92-.95-11.86ZM156.49,364.86c-.4-.71-11.86-3.24-14.04-4.04-7.83-2.87-15.36-7.87-21.95-12.89-1.47-1.12-6.03-5.78-6.97-6.18-1.25-.54-.83.58-.97.98-1.97,5.96-1.7,10.73-7.89,15.12,7,7.32,14.21,15.23,23.97,18.75,5.89,2.12,20.1,4.68,25.01,0,1.97-1.87,4.06-9.53,2.82-11.73ZM159.91,366.06c.3,8.98-3.48,14.05-12.46,15.48-14.89,2.36-28.29-5.55-38.83-15.15-6.38-5.81-3.57-8.34-14.45-4.93,12.31,18.39,35.47,37.44,59.13,30.52,9.39-2.74,11.4-9.08,13.91-17.51.15-.51,1.05-.5,1.19-1.03.39-1.44.19-3.46.66-5l-9.15-2.38ZM98.52,370.9c-2.34-2.65-4.69-5.14-6.8-8l-13.34,2.2c-.55,1.7,15.56,19.64,18.06,22,15.37,14.54,33.51,23.66,55.26,21.7,18.41-1.66,32.03-19.4,28.93-37.51l-8.8-1.85c-2.96,30.22-32.63,32.06-54.61,18.58-8.01-4.92-12.67-10.29-18.71-17.12ZM86.5,381.6c-2.56-2.85-8.85-12.99-10.44-14.22-3.17-2.46-13.47,6.66-15.78,9.19-15.88,17.49-12.66,52.28-5.92,72.97,1.22,3.74,2.9,7.36,3.95,11.17.81,1.16.76.26,1.33.03,3.4-1.32,9.35-6.37,13.26-8.45,11.5-6.12,24.44-10.52,37.68-9.99l-9.54-33.52,12.53,32.17c-.37,8.91,4.97,25.04,10.82,31.91,1.66,1.94,22.14,15.5,24.17,15.95,4.22.94,11.94-2.2,16.58-1.82-1.49-10.34-.19-19.51,1.63-29.62.43-2.38,1.16-5.8,1.74-8.75,1.76-8.97,3.97-11.68,12.76-14.85.04-8.29,4.42-15.49,13.47-15.13l-6.57-24.31c.86-.39,3.06,2.82,3.21,3.17,1,2.36,4.58,17.33,5.34,17.86,5.09-3.66,9.69-7.34,16.42-5.26-5.6-14.55-13.45-31.4-28.92-37.46.23,15.08-5.95,29.59-20.14,36.07-27.91,12.74-59.21-6.68-77.59-27.11ZM522.16,400.9c-7.84,4.75-15.76,9.56-24.82,11.65-7.34,1.7-14.18-2.04-13.33,7.76.33,3.79,2.42,7.21,6.42,8.03,14.8,3.05,28.99-6.99,37.55-18.05-1.86-3.8-7.12-4.01-5.82-9.4ZM560.72,427.43c-1.78-1.72-7.37-5.86-9.61-7.17-6.17-3.61-14.34-5.52-20.72-8.86-7.32,11.79-21.63,22.04-36.2,21.07-9.5-.63-13.96-6.34-12.8-15.8-8.98,2.35-19.06,6.2-25.95,12.51-2.01,1.84-12.96,15.31-13.16,17.01-.13,1.12,1.36,5.69,1.7,7.43,1.29,6.5,1.74,6.08,0,12.88-.68,2.65-1.15,5.29-2.52,7.7.15,1.44,10.56,6.24,11.35,4.94.79-3.34,0-6.84.32-10.2.69-7.36,3.19-21.64,7.07-27.78.47-.75-.1-1.41,1.15-.18-1.01,9.83-3.76,19.3-4.31,29.24-.36,6.46-.59,33.24,2.64,37.51,4.09,5.41,34.39,8.01,41.73,8.23,6.93.21,13.85-.19,20.74-.69.42-1.58-.39-1.09-.86-1.47-4.72-3.76-17.29-13.03-22.21-15.89-6.64-3.86-14.65-5.66-21.13-10.9-4.01-3.25-12.02-14.25-11-19.25.11-.54,1.37-.07,1.37-2.11s-1.29-1.6-1.37-2.11c-1.15-7.63,1.64-5.28,2.92-8.09.73-1.59.04-3.53,1.2-5.06.94-1.23,4.25-1.72,5.68-2.53.89-.5,1.03-2.32,2.47-2.79,4.68-1.52,14.1,4.58,16.66,8.41l1.3-.42c6.2-15.1,12.93,3.94,15.83,9.77.27.55,1.1.63,1.45,1.35,1.11,2.31,1.67,6.98,3.08,8.72,1.06,1.31,19.65,8.33,20.4,7.53v-2.62c-1.91-.06-4.95.45-5.63-1.92-.72-2.5-2.5-25.39-1.59-26.36.53.08,1.82-.13,1.96,0,.94.86,1.35,24.33,2.61,25.33,13.95,3.01,28.61,3.16,42.67.89-.86-15.74-5.51-36.98-17.24-48.32ZM272.07,449.13c-6.24-9.44-21.14-22.31-32.08-25.43-10.19-2.9-7.2,2.18-14.36,5.12-4.01,1.65-8.85,1.81-13.14,1.66,1.29,10.02-6.62,17.21-16.43,16.44,3.44,7.85,2.01,13.38-4.59,18.73,6.03,5.86,15.28,11.39,14.45,21.03-2.69-1.09-8.29-3.19-10.47-.59-.42.72-.83,1.36-.42,2.23,1.34,2.89,25.64,11.07,29.69,11.78,26.64,4.65,54.53-14.13,50.9-43-.4-3.15-1.86-5.42-3.54-7.97ZM367,429.82l-12.94,10.39c-13.47,8.19-30.66,12.45-46.22,8.67.07,22.12,22.33,22.52,38.04,14.7,5.65-2.81,25.06-17.83,24.41-24.17-.27-2.7-4.64-5.82-3.29-9.59ZM47.47,435.73v33.19c0,1.21,1.73,8.98,2.3,10.19,2.94,6.24,22.38,12.67,29.27,12.15l-13.17-29.9c-2.38-.34-5.51,3.01-7.04,3.2-3.17.39-5.25-10.02-6.16-12.54-.16-.44-1.07-.55-1.35-1.44-1.57-4.82-1.89-10.17-3.85-14.86ZM421.19,472.92c-10.79-18.99-30.22-21.16-48.64-29.3-.65.03-6.91,8.74-8.25,10.13-7.29,7.54-21.97,16.4-32.49,17.47-14.66,1.49-28.37-7.61-27.99-22.94-3.81.09-6.85-3.07-10.72-2.67-2.3.24-14.45,5.21-14.87,7.58-1.11,6.25,3.09,6.07,6.68,8.42s10.8,8.54,13.75,9.91,7.9,1.73,11.31,3.15c20.11,8.4,47.59,27.56,51.12,50.45l12.79-39.46,2.98-.63c1.31,3.46-1.52,5.77-2.07,7.49-3.31,10.32-6.25,20.83-9.11,31.29,19.26,1.68,37.84,9.66,53.69,20.33,2.84.29,5.49-12.92,5.94-15.59,2.53-15.08,3.32-42.53-4.12-55.62ZM109.6,447.24c-1.03-1-.68-1.42-2.57-1.69-11.24-1.64-29.59,6.96-38.42,13.67-.73,2.59,14.46,32.94,17.11,36.56,12.92,17.68,35.67,23.85,55.76,29.7,5.17,1.51,12.13,1.86,17.11,3.92,10.15,4.2,19.13,15.09,31.57,19.05,5.33,1.7,15.63,3.82,20.37,1-7.19-.71-15.19-3.41-20.38-8.54,9.85,2.34,20.95,9.01,30.75,3.16l.15-1.84c-4.14-.27-22.97-4.95-24.32-8.23-.53-1.29.73-1.02,1.51-.85,7.25,1.55,20,9.87,26.09,3.49-5.69-7.65-16-9.73-23.99-14.79-.94-.6-9.92-6.36-7.22-7.24,5.57-.22,12.91,2.75,17.39-1.72.68-4.21-21.65-9.1-25.37-9.36-5.23-.38-14.88,1.89-18.15,1.06-2.78-.71-24.32-14.99-28.3-17.71-4.95-3.38-15.69-10.12-18.75-14.74-3.48-5.27-7.43-22.08-10.32-24.89ZM501.78,460.05c-4.2-.65-17.9-14.2-21.04-12.17s9.76,11.92,7.89,14.14c-4.67-.14-11.8-15.09-15.85-10.23-1.74,7.82,8.31,10.49,10.59,16.81-5.95-.56-8.61-6.85-13.14-9.86-.88,6.06,3.54,10.63,7.19,14.83,1.08,1.24,3.73,1.6,2.33,3.58l-8.54-6.58c1.54,14.58,18.95,18.88,29.46,25.1,15.29,9.05,25.13,21.27,44.85,22.86,24.8,2,29-19.6,29.23-39.42-11.01,2.18-22.48,1.63-33.52,0l.11,3.17c3.37,1.6,7.11,2.41,10.22,4.56.85.59,5.48,4.24,2.48,4.11-10.25-5.68-23.32-8.05-33.54-13.15-9.78-4.88-8.16-12.09-12.89-20.63-1.6-2.89-3.09-6.97-7.15-6.33l1.31,9.2ZM295.07,523.56c4.67-12.11,8.23-28.86,5.1-41.71-2.42-9.93-12.88-15.32-21.26-19.82-1.38,23.68-8.39,46.47-26.3,62.78-2.45,2.23-5.69,3.39-7.88,5.94,3.78,3.37,3.14,6.94.66,11.09.63,3.11,25.29,5.72,28.91,3.66-4.51-4.15-12.36-8.12-7.92-15.46,8.01-4.71,14.79,5.22,22.63,6.23l6.06-12.71ZM168.45,467.28v17.42c0,2.49,4.12,14.08,6.59,15.1,6.96-1.04,38.4,4.66,39.5,12.52-.74,7.22-9.49,3.44-13.85,5.9,11.19,10.69,23.15-3.29,35.17-1.65,5.57.76,3.45,5.09,4.32,5.87.37.33,5.42-.06,6.19,3.33,2.83-1.62,17.24-16.67,16.77-18.71-19.73.25-39.54-2.3-57.84-9.89-12.7-5.27-21.38-12.66-30.94-22.31l-5.9-7.58ZM352.16,511.04c-10.41-16.43-32.52-30.18-50.9-35.87,7.35,20.63.68,44.12-9.82,62.38,4.74,0,11.4,9.32,14.11,9.9,2.25.48,21.79-.67,24.24-1.36,6.17-1.73,10.7-11.79,14.85-16.37,1.16,8.01-5.91,10.76-8.53,16.43l17.32-2.07c7.98-11.8,5.87-21.78-1.27-33.05ZM453.12,482.41c-5.17,0-9.63-2.62-13.79-5.26.31,4.29-9.08,8.99-9.54,9.87-2.41,4.64,2.37,20.44-.34,26.28,2.62,2.34,16.73-10.75,18.68-13.2,4.6-5.8,5.82-10.16,4.99-17.68ZM243.4,503.44h21.37c3.74-4.13,4.73-10.07,6.31-15.25.07-.22,3.32-3.05.27-3.82-2.74,4.58-6.82,8.76-11.31,11.72-5.09,3.35-11.11,5.04-16.64,7.35ZM86.5,501.88c-1.68-1.61-2.85-4.77-5.02-5.83-2.66-1.3-8.56-1.41-12.01-2.45-7.1-2.14-12.67-5.85-19.37-7.91-.13,3.65-2.57,10.4-.47,13.61.35.53,9.68,5.85,10.98,6.44,13.07,5.88,29.17,8.5,43.39,9.52-6.88-3.65-11.95-8.02-17.51-13.38ZM166.47,489.63l-13.8,2.3c2.6,1.2,17.45,11.72,19.06,10.19-.74-4.69-4.71-8.03-5.26-12.49ZM23.15,505.74c-.38,3.17.28,6.94,0,10.19,2.72-3.74,5.66-14.74,4.02-18.81-.35-.86.22-1.14-1.38-.91-.56,2.93-2.3,6.67-2.64,9.53ZM418.94,557.99h21.7c2.01-9.43,5.38-18.37,9.3-27.18.99-2.22,5.63-9.16,5.8-9.97.48-2.22-.27-5.5-.03-7.91.11-1.15,1.19-.89,1.34-1.42.4-1.44-1.98-5.61-2.56-7.8s-.92-4-.71-6.19c-6.28,8.58-14.12,16.05-24,20.36.02,3.89-5.21,29.73-6.98,30.81-.7.43-2.28-.05-3.2.09l-.65,9.21ZM81.01,637.85c.62,4.23-.46,9.74,0,14.13l-2.04-.39c-1.37-9.65-.22-16.05-6.97-23.76-.4-.46,0-1.24-1.51-.83l-12.54,57.54c.33,5.02,34.36,17.49,40.01,19.17,24.6,7.3,50.96,10.88,76.4,6.1-7.71-2.45-6.08-8.67-5.94-15.46.74-36.17,4.12-78.8,32.95-103.77,5.41-4.68,11.94-7.86,17.77-11.89-1.5-9.37-8.15-15.88-12.18-24.04-10.93-.91-20.41-3.47-29.93-8.86-6.05-3.43-13.67-11.04-19.31-13.56-6.23-2.78-18.71-4.68-26.09-6.78-6.24-1.78-15.92-6.46-21.53-7.4-5.1-.85-11.98-.21-17.51-.9-15.95-2.01-30.26-7.17-44.46-14.37-4.91,14.36-10.02,26.75-12.38,41.86-3.39,21.76-2.34,36.28,11.45,54.05,8.41,10.83,31.85,25.91,33.8,39.17ZM17.65,513.52c-.66-.97-3.32-3.23-4.36-4.17-.5,7.06,2.8,13.75,7.87,18.4.42-4.86-.75-10.16-3.52-14.23ZM555.69,521.18h-13.48c-3.83,0-10.21-3.58-13.79-3.96-4.36-.46-7.45,1.65-10.62,1.77-18.44.66-40.28-1.39-57.78-6.98-5.23,9.42,6.18,11.74,13.2,13.73,20.98,5.96,51.05,5.43,72.09-.15,2.32-.62,7.78-1.88,9.54-2.94.7-.42,1.13.05.84-1.48ZM213.15,525.78c3.24-.52,5.55,3.35,8.39,3.83,7.21,1.2,22.8-12.53,7.92-9.54-5.2,1.05-9.95,3.99-15.4,4.32l-.91,1.39ZM32.35,520.53c-1.09-1.12-8.73,6.01-7.22,8.54.67.79,8.58-5.94,7.22-8.54ZM559.91,528.81c-.93-1.8-.5-4.64-3.17-4.35-30.46,11.72-68.59,12.05-98.37-1.68-7.42,8.78-9.93,21.38-13.04,32.32-.24.84-1.19.82-1.47,1.87-5.86,22.18-7.07,46.68-10.19,69.39,45.65,15.55,96.83,18.15,143.06,3.26-2.09-15.76-2.45-31.75-4.64-47.5-1.89-13.6-5.92-41.13-12.19-53.31ZM241.92,525.96c-3.24-3.16-12.45,5.17-16.24,5.78l1.95,7.19c3.23-.73,18.73-8.64,14.3-12.97ZM410.97,542.29c-14.12-7.27-28.83-14.48-44.95-15.86-2.05.02-1.24,2.09-1.87,3.08-3.14,4.93-5.8,11.4-7.75,17.22-7.15.25-14.19,2.1-21.29,2.7-7.11.6-21.69,1.84-28.25,1.34-5.14-.4-7.13-5.02-11.35-7.73s-10.07-4.3-14.65-6.39c-2.55-1.17-10.66-7.98-12.84-3.62-2.43,4.86,12.81,8.85,9.83,14.52-4.56,4.11-28.66,1.21-34.12-3.28-5.58,6.91,5.41,10.95,10.68,12.9,3,1.11,6.24,1.06,8.55,1.96.73.29,2.01,1.01.83,1.82-5.56,3.12-16.51-5.67-20.89-6.16-1.85-.21-3.28,2.27-5.42,1.88,5.46,9.18,18.12,9.89,26.3,15.1-10.97.5-21.74-5.59-29.92-12.48-3.04-1.32,2.11,7.12,2.54,7.65,8.15,9.8,31.29,14.71,43.51,14.06,4.45-.24,8.75-2.19,12.52-2.59,8.57-.92,32.69,6.88,43.52,8.3,12.76,1.68,36.18,4.44,47.05-2.56,8.97-5.78,20.28-28.33,26.06-38.18.56-.95,2.94-1.15,1.9-3.7ZM244.05,533.67c-.73-.46-12.69,7.33-14.88,8.44-1.49.76-5.02,1.29-5.35,1.55-.81.61-2.3,6.78-7.19,6.28l-.84,1.46c4.36,1.65,9.37,4.02,14.14,4.01,3.19,0,13.32-2.01,9.11-6.57-1.53-.53-6.2,3.13-8.12.28,5.42-3.9,14.62-7.15,13.13-15.44ZM4.08,534.33v32.21l26.89-5.33c-.05-3.44,1.64-8.93,1.41-12.08-.13-1.82-1.21-.94-2.54-.56-2.24.64-4.91,3.01-7.02,4.14-2.09-9.15-9.76-15.98-18.73-18.39ZM590.54,542.22c-7.65,3.16-15.29.77-23.02-.32l7.18,36.05,15.84,2.39v-38.12ZM416.76,545.7c-.34-.44-2.62-1.79-3.07-1.51l-19.07,32.86c7.83-1.24,17.89-1.09,20.21-10.36.66-2.64,2.76-16.59,2.68-18.94-.03-.88-.21-1.36-.74-2.05ZM229.45,558.8c-.49-.64-6.04-1.22-7.72-1.82-2.18-.79-11.14-5.79-12.52-3.57,6.36,6.88,9.52,15.38,13.56,23.71l14.71-4.66c-2.09-2.15-4.28-4.37-5.79-7.01-.92-1.6-1.91-6.22-2.23-6.64ZM439.98,561.28h-21.7c-.46,5.62-2.34,10.65-5.25,15.36,6.63,19.2,14.43,39.2,9.94,59.85,17.16,6.8,15.37,25.82,17.67,41.12l8.58-3.69.61-39.68c-5.07-.94-13.46-2.52-17.92-4.76-.99-.5-2.38-.56-2.41-2.08l10.47-66.12ZM4.08,569.82v267.52h586.45v-254.37c-2.71-.13-5.49.2-8.2-.02-1.82-.14-6.91-2.1-7.51-.21l4.57,48.45-23.71,6.98c2.11,13.98,1.03,28.29,1.99,42.38.52,7.55,4.72,13.27-.4,20.66-9.76,14.11-43,18.27-57.66,11.09s2.98-20.43,9.84-25.37c3.04-2.19,6.24-3.12,9.08-5.38.89-13.17-1.3-26.37-3.06-39.34l-26.41-.78c-.86.25-1.01,2.21-1.1,2.98-1.04,8.75-2.81,23.19-2.65,31.59.1,5.24,4.12,15.71,1.25,19.6-4.62,6.25-32.71,9.85-40.71,9.92l5.86,21.8c1.2,6.8-4.65,10.89-9.57,13.92-24.99,15.4-72.17,19.78-101.16,18.55-3.48-.15-24.05-3.16-25.28-1.99.41,10.74-11.03,16.54-19.5,20.28-14.92,6.58-34.22,10.42-50.44,8.55-11.16-1.29-28.89-7.44-18.52-20.96,5.85-7.63,17.01-13.66,25.33-18.4,1.1-1.82-10.86-4.34-12.49-5.9v9.53c0,4.75-9.97,9.1-13.82,10.5-14.73,5.35-53.26,11.15-65.74.69-10.1-8.46,2.24-19.31,10.53-22.7,1.07-1.8-6.79-3.54-8.21-4.59-6.98-5.13,1.02-18.27-1.64-20.08-18.49,1.53-37.09-.38-54.86-5.52-2.05,1.75-1.14,5.61.59,7.21,2.26,2.1,13.1,6.35,16.74,8.9,10.82,7.59,21.92,24.09,3.98,30.83-21.96,8.25-57.16-5.36-76.69-16.63-12.2-7.04-13.98-8.77-7.8-21.83,3.4-7.19,13.61-19.67,15.31-26.12,1.07-4.07-3.42-2.12-3.04-8.93.71-12.61,6.17-28.41,9.05-40.39,1.51-6.28,2.46-12.71,4.71-18.79-14.86-12.31-31.38-25.8-36.01-45.6-1.05-4.5-1.96-8.58-1.5-13.29l-27.62,5.26ZM410.29,577.16l-18.48,3.33c-14.48,16.89-44.73,10.97-64.47,7.63-8.56-1.45-23.85-6.82-31.04-7.15-3.48-.16-8.53,2.27-12.48,2.64-12.08,1.15-26.35-1.36-37.59-5.77-1.85-.72-4.36-3.25-5.81-3.4-3.9-.41-23.09,8.39-27.18,10.9-30.16,18.49-37.03,48.56-40.17,81.44-1.21,12.65-1.15,25.64-1.87,38.33,15.05,6.56,31.61,9.6,47.75,12.4,34.88,6.05,77.32,10.8,112.03,2.63,2.97-.7,20.14-5.88,20.3-8.65l-4.99-36.53-15.78,3.94-.67-1.97c23.94-9.13,50.64-6.53,73.02-20.99,28.96-18.73,16.11-51.94,7.44-78.79ZM484.57,692.63c-2.38-17.06-.37-34.18,1.16-51.2l-32.6-5.87-.54,39.18c-.99,2.25-11.09,3.17-11.3,7.48,9.37,1.46,15.18,9.16,20.2,16.34,7.94-.63,15.82-2.69,23.07-5.93ZM555.45,697.76c3.56-4.37-.02-15.4-.41-21.14-.83-12.36-.82-24.8-1.63-37.16l-34.55,2.66c.27,10.39,2.89,20.89,3.28,31.23.43,11.68-1.48,10.14-10.51,16.08,11.67-.24,23.07,6.42,28.67,16.49,1.52.32,13.88-6.62,15.14-8.18ZM432.38,649.74c-2.25-4.67-5.37-9.15-11.02-9.52-4.36,9.25-10.6,14.12-18.86,19.64,7.65-.96,15.8-3.01,22.7-6.55,1.28-.32,1.22.71.88,1.54-1.96,4.76-26.58,7.53-31.9,8.86-5.93,1.48-12.25,4.34-18.49,5.83-8.44,2.01-17.23,3.12-25.82,4.42l4.33,39.81c-12.86,8.1-28.67,11.4-43.75,11.82-.1,9.5.39,19.27,4.11,28.11,35.02,5.15,74.93,4.31,108.66-7.06,6.03-2.03,23.42-8.78,25.33-14.77,2.46-7.74-7.58-22.86-9.19-30.97-2.95-14.84-.42-37.58-6.99-51.17ZM452.47,700.62c-2.04-5.2-6.3-9.23-11.17-11.83l2.06,12.39,9.1-.56ZM103.33,708.56c-14.88-3.81-28.91-9.88-42.7-16.48.44,5.69-14.79,24.11-14.37,27.13.74,5.3,23.9,15.6,29.09,18.17,7.41-9.23,18.65-15.04,29.98-17.7-3-3.5-3.09-6.79-2-11.12ZM533.99,709.16c-4.01-10.05-21.2-15.78-30.93-12.84-3.54,1.07-8.58,8.59-2.92,10.86,1.79-3.12,4.51-6.45,8.22-7.21l-4.64,7.56,4.21,1.69c1.48-3.76,4.02-6.46,8.32-6.62-1.91,2.65-5.51,3.94-5.26,7.88,1.7-.58,6.05,1.3,7.16.58.36-.23,2.05-7.43,5.33-5.52l-2.62,5.59,13.14-1.98ZM198.65,716.43c-6.48.08-15.18-5.11-21.26-4.6-3.24.27-8.35,2.67-12.07,2.75l-1.51,8.58c.33,1.17,21.43,7.17,23.2,6.92,1.19-.17,10.51-5.25,11.07-6.08,1.27-1.88.39-5.38.57-7.58ZM186.86,734.79c11.23,3.77,19.25,13.02,24.05,23.55,5.3-1.7,23.74-3.61,25.11-9.55.33-1.44-.19-23.5-.51-24.83-.18-.72-.19-1.34-1.08-1.55l-33.11-4.69c2.97,11.83-7.97,10.72-13.64,15.58-.48.41-1.23,0-.82,1.5ZM45.38,723.13c-.57-.32-1.24-.11-1.84-.15-1.17,5.92-1.11,7.63,3.74,11.04,12.14,8.52,46.38,21.48,60.98,21.85,7.08.18,27.08-1.73,26.09-11.58-.34-.71.42-1.07-1.07-.95-1.1.09-6.93,3.93-9.17,4.65-19.75,6.4-58.67-9.11-75.27-20.79-1.42-1-3.23-3.94-3.46-4.08ZM239.45,723.63v13.47c0,3,14.9,7.05,17.46,6.81.44-.04,7.58-3.5,7.9-3.81,2.33-2.22,0-10.78-.1-13.93l-25.26-2.55ZM127.69,742.04c8.08-1.35-.69-10.19-4.11-12.66-1.22-.87-7.6-4.34-8.75-4.41-4.5-.27-26.09,10.95-25.95,16.1.07,2.66,13.65,4.63,16.16,5.44,3.38-.67-3.37-6.18-3.54-6.89l.88-2.17c3.29,2.09,6.46,5.02,6.99,9.1l7.81-.58c.83-1.07-2.23-4.93-3.04-5.83-.7-.78-8.68-5.9-5.17-6.01,4.75,1.2,10.28,5.14,10.21,10.5,11.51.33,4.32-9.28-2.02-11.47-1.42-3.5,4.69-.11,5.49.44,2.75,1.9,5.21,4.93,5.05,8.44ZM182.25,731.52l-19.05-5.92c-3.16,9.65,15.97,13.71,19.05,5.92ZM284.83,775.56c5.1-2.4,24.72-10.49,26.6-15.14s-2.11-10.97-2.88-15.49c-.49-2.85-.48-17.8-1.33-18.39l-39.52.02c-1.15.74,1.8,10.57.21,14-1.32,2.85-12.28,6.31-12.66,8.37,12.81,5.67,23.45,13.74,29.59,26.62ZM181.6,762.41h11.51c.2,0,4.14-.59,3.6-1.63-4.23-9.23-12.61-16.43-22.02-20.01-2.02,0-12.54,8.16-13.51,10.1s-1.48,5.59,1.34,5.62c-.35-3.89,2.29-8.53,6.57-8.54-3,3.93-8.88,11.85.24,11.76,2.21-4.11,4.86-8.59,10.28-8.47-2.54,1.78-10.92,9.55-4.19,10.46,6.31.85,3.49-5.11,8.8-5.87l-2.63,6.57ZM269.04,779.49c-3.57-12-16.66-17.63-27.54-21.37-5.51,2.69-18.11,11.37-10.27,17.43,1.54-5.91,4.75-8.4,9.88-11.15,1.02-.03.8.77.33,1.63-1.28,2.31-5.1,3.59-6.06,6.4-1.88,5.52-.08,5.46,4.73,6.42.55-5.2,4.64-9.36,9.86-9.86l-6.18,5.97c-2.46,5.09.86,5.75,5.45,5.12.28-3.58,3.13-5.55,6.32-6.49.37,2.96-4.65,3.71-3.61,7.23l17.09-1.32Z"/>
  <rect x=".14" y="841.29" width="595" height=".66" fill="#fff"/>
  <path d="M4.08,569.82l27.62-5.26c-.46,4.71.45,8.79,1.5,13.29,4.62,19.8,21.15,33.29,36.01,45.6-2.25,6.09-3.2,12.52-4.71,18.79-2.88,11.98-8.34,27.78-9.05,40.39-.38,6.81,4.11,4.87,3.04,8.93-1.7,6.44-11.91,18.93-15.31,26.12-6.18,13.07-4.4,14.79,7.8,21.83,19.54,11.27,54.73,24.88,76.69,16.63,17.94-6.74,6.84-23.24-3.98-30.83-3.64-2.55-14.47-6.8-16.74-8.9-1.73-1.61-2.64-5.47-.59-7.21,17.77,5.13,36.37,7.05,54.86,5.52,2.65,1.81-5.34,14.95,1.64,20.08,1.42,1.05,9.29,2.79,8.21,4.59-8.29,3.39-20.63,14.24-10.53,22.7,12.48,10.46,51.02,4.66,65.74-.69,3.85-1.4,13.82-5.75,13.82-10.5v-9.53c1.63,1.56,13.58,4.08,12.49,5.9-8.31,4.73-19.47,10.77-25.33,18.4-10.37,13.52,7.36,19.67,18.52,20.96,16.22,1.87,35.52-1.97,50.44-8.55,8.47-3.74,19.9-9.54,19.5-20.28,1.23-1.17,21.8,1.84,25.28,1.99,28.98,1.23,76.17-3.15,101.16-18.55,4.92-3.03,10.78-7.12,9.57-13.92l-5.86-21.8c8-.07,36.09-3.66,40.71-9.92,2.87-3.89-1.15-14.36-1.25-19.6-.16-8.4,1.61-22.84,2.65-31.59.09-.76.24-2.72,1.1-2.98l26.41.78c1.75,12.97,3.95,26.17,3.06,39.34-2.84,2.26-6.04,3.19-9.08,5.38-6.86,4.94-23.97,18.44-9.84,25.37s47.9,3.02,57.66-11.09c5.12-7.4.92-13.11.4-20.66-.96-14.09.12-28.39-1.99-42.38l23.71-6.98-4.57-48.45c.6-1.89,5.69.06,7.51.21,2.71.21,5.49-.11,8.2.02v254.37H4.08v-267.52ZM28.67,622.19c-1.27-3.85-3.1-10.99-8.14-10.95l7.87,14.45c2.35-2.87.63-2.43.27-3.5ZM38.92,613.87c-4.25,1.41-6.09,7.91-5.91,11.82,1.49,1.85,6.86-10.33,5.91-11.82ZM44.18,656.59c-5.47-1.4-10.27,14.37-6.9,14.44l6.9-14.44ZM28.67,662.91c-1.24-2.05-2.19-3.83-4.19-5.33l-1.91,1.23c2.28.77,6.4,15.37,8.47,12.89.68-4.24-.47-5.67-2.37-8.79ZM537.07,742.24c3.06,4.02,2.09,10.2,5.79,12.93,3.65-.83-3.53-21.74-10.83-17.42.9,1.69,4.2,3.38,5.04,4.48ZM558.32,737.44c-6.25-.79-11.98,14.21-10.39,17.62.06.12,1.45.57,1.84.78.77-3.49,1.64-7.63,3.38-10.77s4.82-4.37,5.18-7.63ZM565.55,744.67c-3.4-.67-12.08,8.77-8.2,10.51.49.22,5.82-7.16,7.6-7.5l.61-3ZM512.04,761.36c-12.97-12.36-30.92-12-45.41-2.21-4.98,3.37-15.77,13.68-10.82,19.96,7.59,9.63,46.91,7.6,57.94,4.14,13.34-4.19,4.75-15.74-1.71-21.89ZM52.73,791.99c-1.56-7.28,4.38-14.27,5.45-19.88.17-.9.78-.9-.53-1.81-6.38,4.56-9.34,12.82-8.11,20.61l3.19,1.09ZM46.16,791.33c1.21-6.94-4.55-15.2-11.83-15.11.71,3.39,5.5,5.37,7.14,7.65.34.48,3.33,9.18,4.69,7.46ZM375.95,784.51c.82-1.48,3.22-3.79,1.25-4.98-4.11-.47-10.3,12.83-6.57,16.41,1.77.38,2.41-6.36,3.11-8.06.79-1.92,1.7-2.43,2.21-3.37ZM67.85,780.16c-2.88-2.66-13.33,8.62-10.51,12.48,1.57,1.02,5.09-6.44,6.13-7.66,1.24-1.46,5.02-1.77,4.38-4.82ZM364.11,787.64c-1.18-1.63-5.55-6.04-7.62-3.87,3.54.57,7.31,13.73,8.85,12.81,2.45-3.05.64-6.36-1.23-8.94ZM388.69,784.76c-6.37-.66-12.37,7.1-11.83,13.14,2.69-1.26,3.54-4.96,5.58-7.23,2.22-2.46,5.3-3.25,6.25-5.91ZM152.67,788.05c-4.57-3.36-9.73,15.3-7.22,18.39,1.98,1.33,3.85-10.63,4.41-12.34.69-2.14,1.85-4.05,2.82-6.05ZM133.34,794.22c1.37,1.83,2.77,3.63,3.91,5.63.84,1.48,1.87,7.04,3.91,6.59,3.83-.84-5.18-17.61-10.18-15.11.15,1.48,1.78,2.1,2.36,2.88ZM160.55,795.28c-4.55-2.25-11.84,9.8-8.2,10.51.67.13,8.79-10.01,8.2-10.51Z" fill="#fff"/>
  <path d="M318.11,25.15c37.49,57.22,97.65,108.91,159.09,139.04,20.91,10.26,42.93,18.66,65.32,25.09-.45,3.07-1.22,6.97-.5,10.02.49,2.07,3.67,4.17,3.68,4.74.03.88-8.58,12.58-9.68,14.68-4.12,7.84-6.76,16.76-10.03,24.99-30.43,8.37-59.59,22.62-85.7,40.19-6.57-8.92-20.76-13.51-31.37-10.98-4.05.97-6.88,3.53-10.57,5-20.15-18.58-49.77-19.29-73.01-5.98-13.68-8.36-26.97-17.57-40.98-25.39-7.73-4.31-21.02-12.51-29.45-13.28-16.04-1.46-29.01,5.46-43.64,10.47-3.64-8.35-10.39-14.36-17.55-19.67,4.98-12.62-4.69-20.75-17.11-17.12-3.84,1.12-7.83,6.89-9.91,7.11-1.67.17-7.36-2.6-9.84-3.05-47.15-8.52-76.7,26.84-93.55,64.88-3.42,7.71-6.89,22.97-10.42,28.86-.42.7.04,1.14-1.47.84-1.37-13.47-3.28-26.97-6.13-40.21-2.24-10.42-4.93-20-8.78-29.8,6.15-3.42,9.56-8.13,7.94-15.45,35.99-10.38,70.31-26.46,102.5-45.46,54.93-32.44,101.07-76.5,136.78-128.88,8.56-12.55,16.32-25.49,22.79-39.26,3.8,5.48,6.38,11.7,9.97,17.33.43.68,1.37.93,1.62,1.3ZM340.33,104.17c-11.89-16.12-37.5-10.28-44.33,7.22-10.42-2.33-19.73,0-22.99,11.16-9.14-.76-27.36,4.93-16.7,16l123.88.45c7.41-4.21,2.69-10.86-3.8-12.7-1.68-.48-4.06.33-5.45-.47-.99-.57-1.38-3.64-2.32-4.91-5.92-8.03-16.16-6.93-24.62-3.98.32-5.28-.61-8.64-3.66-12.77ZM278.26,176.1c-1.37-4.07-7.04-6.33-10.92-7.16-2.24-.48-10.35-1.7-10.79,1.91,8.61-.74,16.34,2.19,22.04,8.6,1.7.19,7.97-6.09,10.7-7.08,4.17-1.52,8.97-1.11,13.27-1.84-8.35-6.18-17.5.58-24.31,5.58ZM468.03,186.83c-9.4-11.67-40.42-7.27-42.59,10.25-11.84-4.33-25.98-3.67-28.89,10.56-13.83-5.77-30.96,12.66-8.87,14.5,23.4,1.95,49.49-1.85,72.99.03,9.57-2.83,26.4,1.61,35.08-1.15,2.97-.94,3.93-4.33,4.06-7.15.65-14.57-16.27-21.66-28.27-16.07-.3-3.2-1.5-8.48-3.51-10.97ZM315.05,206.33c-4.65-2.84-8.33-7.39-14.45-5.25-1.4,2.07,6.93,3.46,8.11,4.04,2.28,1.11,3.47,3.45,5.36,4.98,4.6-3.53,7.6-7.79,14.14-7.72-1.88-5.2-11.95.15-13.16,3.94Z" fill="#fff"/>
  <path d="M410.29,577.16c8.67,26.84,21.53,60.06-7.44,78.79-22.38,14.47-49.08,11.86-73.02,20.99l.67,1.97,15.78-3.94,4.99,36.53c-.16,2.76-17.33,7.95-20.3,8.65-34.71,8.17-77.15,3.42-112.03-2.63-16.14-2.8-32.7-5.84-47.75-12.4.72-12.69.66-25.68,1.87-38.33,3.13-32.88,10.01-62.95,40.17-81.44,4.09-2.51,23.29-11.31,27.18-10.9,1.45.15,3.97,2.67,5.81,3.4,11.24,4.4,25.51,6.91,37.59,5.77,3.95-.38,9-2.8,12.48-2.64,7.18.33,22.48,5.7,31.04,7.15,19.74,3.34,49.99,9.26,64.47-7.63l18.48-3.33ZM278.24,607.95c-20.69,6.55-32.58,25.22-40.77,44.21-.18.41-1.17.51-1.49,1.31-3.3,8.14-5.04,16.95-7.04,25.46,4.03-4.99,4.84-12.55,7.28-18.54,5.2-12.77,12.05-26.55,21.95-36.69,5.95-6.09,13.44-10.52,20.07-15.75Z" fill="#fff"/>
  <path d="M242.74,3.89c-8.13,11.35-17.36,22.31-26.92,32.57-44.57,47.77-102.82,91.59-162.19,119.17-16,7.43-32.43,13.99-49.54,18.5v-33.85c5.08-3.38,10.9-6.91,15.72-10.57,24.84-18.87,51.71-44.59,70.67-69.35,4.4-5.74,9.2-12.16,12.23-18.67-.81-1.16-1.39.25-1.86.77-23.4,25.77-40.54,50.19-68.19,73.15-8.73,7.25-18.69,14.92-28.58,20.4V3.89h238.66Z" fill="#fff"/>
  <path d="M81.01,637.85c-1.95-13.26-25.39-28.34-33.8-39.17-13.79-17.77-14.84-32.29-11.45-54.05,2.36-15.11,7.47-27.5,12.38-41.86,14.2,7.21,28.51,12.36,44.46,14.37,5.53.7,12.41.05,17.51.9,5.61.93,15.29,5.62,21.53,7.4,7.38,2.11,19.86,4,26.09,6.78,5.64,2.52,13.26,10.13,19.31,13.56,9.52,5.39,18.99,7.95,29.93,8.86,4.04,8.17,10.68,14.68,12.18,24.04-5.83,4.02-12.36,7.2-17.77,11.89-28.83,24.97-32.21,67.6-32.95,103.77-.14,6.79-1.77,13.01,5.94,15.46-25.44,4.78-51.8,1.2-76.4-6.1-5.65-1.68-39.69-14.15-40.01-19.17l12.54-57.54c1.52-.42,1.11.37,1.51.83,6.75,7.72,5.6,14.11,6.97,23.76l2.04.39c-.46-4.39.62-9.9,0-14.13ZM132.54,547.23c-.95-1.19-1.14-3.11-2.88-3.69-.55,4.38,3.14,7.29,4.76,10,8.21,13.76,19.54,28.21,32.38,37.98,2,1.52,16,10.49,17.41,9.2-.38-2.79-4.35-3.33-6.23-4.61-20.98-14.31-30.35-29.89-45.45-48.88ZM191.45,590.87l-21.68-18.41c2.21,7.3,11.69,15.82,18.58,18.56.64.25,3.1,1.27,3.11-.14Z" fill="#fff"/>
  <path d="M278.9,3.89c-18.47,23.8-40.19,43.72-64.42,61.47l.99.99c12.49-7.25,24.42-16.32,34.85-26.29,11.04-10.55,22.2-23.49,30.55-36.17h23.01c-5.35,12.35-12.44,24.48-19.84,35.73-49.61,75.44-122.23,133.27-206.52,166.18-23.06,9-48.4,17.03-73.44,13.68l.64-4.3c25.6-5.72,50.64-18.12,73.2-31.33,14.6-8.55,35.14-21.47,47.48-32.72,1.63-1.48,4.73-4.21,4.59-6.58-38.22,28.26-78.82,56.77-125.91,67.7v-35.49c47.29-12.64,91.49-37.5,131.04-65.85,35.71-25.6,75.24-60.8,103.01-94.86,2.87-3.51,5.79-8.12,7.9-12.15h32.87Z" fill="#fff"/>
  <path d="M590.54,3.89v103.2c-34.88-16.16-65.84-39.63-94.68-64.74l-23.02-22.34c.13,2.32,1.99,4.15,3.33,5.87,7.98,10.2,18.04,18.58,27.61,26.96,26.16,22.9,54.97,43.15,86.76,57.54v21.03c-83.29-21.8-166.53-60.05-222.22-127.52h222.22Z" fill="#fff"/>
  <path d="M364.37,3.89c41.49,52.26,98.02,84.88,159.32,109.22,21.7,8.62,44,16.47,66.84,21.58v49.3c-31.39-9.24-62.5-20.15-91.18-36.03-31.78-17.6-59.07-41.03-84.04-67.16-.45,2.97,3.39,6.81,5.34,9.13,33.22,39.49,87.51,69.78,135.84,86.36,11.22,3.85,23,6.79,33.94,10.76l.1,7.47c-29.13-1.58-57.92-9.81-84.8-20.72-63.77-25.88-123.16-70.83-166.32-124.22-11.22-13.88-22.17-29.59-29.61-45.68h54.57Z" fill="#fff"/>
  <path d="M559.91,528.81c6.28,12.19,10.3,39.72,12.19,53.31,2.19,15.75,2.55,31.75,4.64,47.5-46.23,14.89-97.41,12.29-143.06-3.26,3.12-22.72,4.34-47.21,10.19-69.39.28-1.05,1.23-1.03,1.47-1.87,3.11-10.94,5.62-23.54,13.04-32.32,29.78,13.73,67.91,13.4,98.37,1.68,2.67-.3,2.24,2.55,3.17,4.35ZM483.37,552.73l-1.31.97c-.23,7.74,1.23,16.18,3.33,23.63,2.08,7.37,7.96,19.25,13.43,24.69,1.98,1.97,4.3,3.59,6.9,4.59-2.71-4.46-6.38-7.65-9.21-12.14-7.94-12.57-12.07-26.89-13.14-41.75Z" fill="#fff"/>
  <path d="M4.08,237.23l9.76,2.08c1.2,10.74,2.05,21.6,2.76,32.41,1.24,18.95.51,37.21-.07,55.86-.31,9.96.33,19.99.05,29.95h1.97c1.51-25.02,2.78-50.18,2-75.29-.31-10.15-.88-22.83-2.01-32.83-.37-3.3-1.56-6.25-1.92-9.5,1.99-.02,7.36-2.03,8.39.4l6.6,35.47,4.7,49.53.68-16.13c-1.07-14.21-2.02-28.49-4.06-42.6-1.36-9.41-3.7-18.59-5.09-27.95l6.42-1.32c2.59,6.59,3.59,13.64,5.4,20.43,4.3,16.06,12.02,44.41,8.8,61-2.78,14.36-9.02,29.49-12.62,43.91-2.02,8.1-7.99,29.94-5.05,36.87,3.46,8.15,15.18,6.53,15.96,9.07-1.46,18.68-3.04,39.03-1.93,57.75.33,5.61,3.61,14.24,3.69,17.06.06,1.94-2.16,6.48-2.34,9.21-.2,3.07,1.1,5.63,1.03,7.22-.1,2.58-6.86,14.28-7.96,17.37-2.49,6.95-3.57,20.57-6.06,25.51-1.37,2.71-6.58,3.29-8.71,5.42v-15.78c5.72-1.36,12.81-7.92,10.58-14.2-2.07-2.62-9.49,1.21-9.94,4.34l-1.24-.97c4.03-8.62,8.31-16.03,6.23-26.04-.52-1.77-3.82-3.45-5.36-1.96-3.07,2.16-4.37,13.94-4.23,17.8-2.54-2.85-4.71-5.63-9.08-4.48-3.12,4.79.11,13.11,2.94,17.52,1.32,2.05,6.81,6.51,6.81,7v10.19l-10.74-8-6.36-1.2V237.23Z" fill="#fff"/>
  <path d="M366.34,350.95c-1.54,7.92-.67,14.93,2.33,22.32,1.84,4.55,5.71,7.99,4.91,13.17,3.77.4,4.92-3.75,8.42-5.06,17.04-6.35,21.51,19.48,8.69,29.06-5.71,4.27-11.21,3.81-17.76,2.58-13,27.78-42.61,40.45-72.18,31.44-22.61-6.89-34.68-25.51-36.29-48.51-1.18-16.82,1.04-37.03,6.66-52.81,18.78.92,36.97-5.49,51.52-17.17,8.03,16.4,25.85,24.95,43.72,24.97ZM273.71,356.92c-2.08,6.39,11.28,3.86,14.76,2.6,3.29-1.19,10.34-6.05,8.77-10.11-1.14-2.93-9.55,2.92-11.77,3.82-3.74,1.52-7.81,2.82-11.75,3.69ZM330.54,348.98c-4.43,8.89,15.76,18.67,22.15,15.59,1.99-.96,2.57-2.08.46-3.39-4.26-1.28-11-3.36-14.65-5.73-1.92-1.24-6.09-7.03-7.96-6.47ZM295.34,378.55c-7.85.77-12.65,4.65-19.54-1.88l-2.14,1.5c-.33,5.32,7.96,7.83,12.12,7.63,2.67-.13,11.92-4.91,9.56-7.25ZM348.58,379.21c-5.19,1.87-7.88,4.43-13.97,3.13-2.8-.59-4.08-3.65-7.05-3.13-2.05,11.16,22.78,10.52,21.03,0ZM304.54,382.5c-1.88-1.47-12.63,10.88-13.02,14.3-.87,7.71,12.36,11.36,17.62,6.39-3.61-1.72-12.88.22-13.68-5.4-.5-3.49,7.31-11.94,9.08-15.3ZM388.69,391.7c-4.33-2.31-10.07,9.85-7.88,11.17,1.59-.83,9.26-9.91,7.88-11.17ZM329.53,407.47l8.86,12.48c2.31-.31-1.79-6.62-2.4-7.44-.69-.93-5.36-6.12-6.46-5.04ZM324.71,419.75c.67-.79,2.07-3.03.54-3.72-5.6,4.97-14.32,6.97-21.65,5.85-3.17-.48-7.25-3.84-9.56-4.27-3.12-.58-1.74,2.32-.36,3.67,6.4,6.27,25.28,5.29,31.03-1.53Z" fill="#fff"/>
  <path d="M432.38,649.74c6.57,13.59,4.04,36.33,6.99,51.17,1.61,8.11,11.65,23.23,9.19,30.97-1.91,5.99-19.3,12.74-25.33,14.77-33.73,11.37-73.65,12.21-108.66,7.06-3.71-8.84-4.2-18.61-4.11-28.11,15.07-.43,30.88-3.72,43.75-11.82l-4.33-39.81c8.59-1.3,17.37-2.41,25.82-4.42,6.25-1.49,12.56-4.35,18.49-5.83,5.32-1.33,29.94-4.09,31.9-8.86.34-.83.4-1.86-.88-1.54-6.89,3.55-15.05,5.59-22.7,6.55,8.26-5.52,14.49-10.39,18.86-19.64,5.65.36,8.76,4.85,11.02,9.52ZM375.15,692.47c-.45-.54-.38-1.66-.91-2.05l-1.3.66c3.48,11.25,12.47,24.12,22.11,31.12,2.41,1.75,5.75,3.64,8.76,4.05-2.76-3.51-7.02-5.49-10.21-8.52-8.77-8.33-11.75-17.1-18.46-25.26ZM425.51,721.67l-30.89-21.7c5.62,8.86,16.2,16.24,25.85,20.48.85.37,4.39,2.4,5.04,1.21Z" fill="#fff"/>
  <path d="M86.5,381.6c18.38,20.43,49.68,39.85,77.59,27.11,14.19-6.48,20.37-20.98,20.14-36.07,15.47,6.05,23.32,22.91,28.92,37.46-6.74-2.08-11.33,1.6-16.42,5.26-.77-.53-4.34-15.5-5.34-17.86-.15-.35-2.35-3.56-3.21-3.17l6.57,24.31c-9.04-.36-13.43,6.84-13.47,15.13-8.79,3.17-10.99,5.88-12.76,14.85-.58,2.95-1.31,6.36-1.74,8.75-1.83,10.11-3.12,19.28-1.63,29.62-4.65-.38-12.36,2.76-16.58,1.82-2.02-.45-22.51-14.01-24.17-15.95-5.85-6.86-11.19-22.99-10.82-31.91l-12.53-32.17,9.54,33.52c-13.24-.53-26.18,3.87-37.68,9.99-3.91,2.08-9.85,7.13-13.26,8.45-.57.22-.52,1.13-1.33-.03-1.06-3.81-2.74-7.43-3.95-11.17-6.74-20.69-9.97-55.48,5.92-72.97,2.3-2.53,12.61-11.65,15.78-9.19,1.58,1.23,7.87,11.37,10.44,14.22Z" fill="#fff"/>
  <path d="M590.54,538.6c-7.72,3.93-16.04,1.82-23.9-.27l-7.05-16.82.47-1.71c10.74-4.83,14.98-14.19,16.59-25.33.5-3.48.08-12.56,1.27-15.12.71-1.53,2.14-.89,2.83-1.8,2.61-3.47-5.17-32.78-7.74-38.22,9.5-6.49,15.8-15.23,12.08-27.4-1.18-3.87-6.21-6.97-6.42-11.37-.24-5.25,5.28-10.82,6.41-15.97,2.64-11.95-2.53-15.85-10.88-22.92.65-4.02.84-8.29.54-12.35-.62-8.61-4.75-22.54-8.21-30.57-8.14-18.88-28.57-35.42-48.97-38.8,6.19-26.09,16.07-51.03,29.67-74.19l16.25,6.14c-1.09,2.28-1.81,4.66-2.59,7.05-2.48,7.54-5.07,15.97-6.84,24.19-1.95,9.07-3.8,18.33-4.26,27.61l15.69-58.77,7.87,1.24c-.99,1.8-.85,3.85-1.27,5.76-2.67,12.07-3.59,25.41-4.58,38.27l.68,25.99,7.35-69.23c.88-2.11,12.15-.6,15.01-1.76v326.35Z" fill="#fff"/>
  <path d="M211.18,267.46c-1.58,31.04,4.91,72.55-28.68,88.66-24.57,11.78-58.56-2.96-73.24-24.08-4.25-6.11-1.77-14.73-7.19-20.24-3.69-3.75-11.15-3.09-14.15,1.01-12.91-7.68-12.77-34.16,4.67-35.43,3.31-.24,6.73.51,9.22,2.8,2.79,2.56,2.48,7.71,6.14,7.65-.41-2.8,1.82-3.26,2.87-4.78,3.86-5.55,6.35-12.06,7.04-18.85,12.31-.19,24.84-.04,37.1-1.37,5.74-.62,21.26-4.9,25-4.64,2.07.14,7.19,3.84,9.73,4.78,6.89,2.55,14.15,4.01,21.49,4.48ZM165.72,276.57c2.11-11.81-16.17-7.95-22.71-5.29-2.83,1.15-12.61,6.27-11.43,9.59.88,2.48,8.75-1.49,10.56-1.91,7.91-1.84,15.43-3.34,23.58-2.39ZM210.5,281.23c-1.09-8.18-16.9-15.86-23.16-9.86s5.55,5.45,8.72,6.28c2.61.68,12.93,5.92,14.44,3.58ZM175.68,322.68c.71,4.55,8.26,2.77,10.53.34,3.44-3.68,1.63-9.73.99-14.16-1.06-7.33-2.84-16.12-5.28-22.99l3.61,31.81c-.54,4.39-6.34,5.33-9.85,5ZM95.48,303.61c3.34,2.27,2.26-15.85-1.98-15.77l1.98,15.77ZM157.09,289.34c-8.49-6.8-13.25,17.74-2.62,14.42,5.19-1.62,5.76-11.91,2.62-14.42ZM202.46,291.96c-8.38-7.03-10.91,13.65-6.58,14.94,7.38,2.2,10.47-11.68,6.58-14.94ZM153.09,332.64c-5.49,2.18,5.96,12.25,8.57,13.59,6.86,3.5,13.44,2.12,18.22-3.9,8.01-10.08-7.52-7.33-12.4-7.83-3.06-.31-12.26-2.7-14.38-1.86Z" fill="#fff"/>
  <path d="M220.39,338.45c-1.09-30.42,3.31-62.59-7.26-91.59.45-1.2,18.22-7.65,20.73-8.33,18.24-4.94,24.45-2.67,40.47,5.57,26.29,13.51,51.9,32.26,76.24,48.99-4.16-.21-9.54,2.08-13.48,1.97-3.71-.11-8.59-2.75-12.56-3.2-18.4-2.07-35.82,3.31-48.87,16.24-1.31,1.3-2.53,4.3-3.53,5.18-1.35,1.18-4.21,1.58-5.64,2.58-8.3,5.82-14.75,11.36-17.35,21.75-.2.23-1.28.85-1.47.85h-27.28Z" fill="#fff"/>
  <path d="M421.19,472.92c7.44,13.09,6.65,40.54,4.12,55.62-.45,2.68-3.1,15.88-5.94,15.59-15.85-10.67-34.43-18.65-53.69-20.33,2.85-10.46,5.79-20.97,9.11-31.29.55-1.72,3.37-4.03,2.07-7.49l-2.98.63-12.79,39.46c-3.53-22.89-31.01-42.05-51.12-50.45-3.41-1.43-8.46-1.83-11.31-3.15s-10.19-7.58-13.75-9.91-7.78-2.17-6.68-8.42c.42-2.37,12.57-7.34,14.87-7.58,3.87-.4,6.91,2.76,10.72,2.67-.37,15.33,13.34,24.42,27.99,22.94,10.53-1.07,25.2-9.94,32.49-17.47,1.34-1.38,7.6-10.09,8.25-10.13,18.41,8.14,37.84,10.31,48.64,29.3Z" fill="#fff"/>
  <path d="M560.72,427.43c11.73,11.34,16.38,32.58,17.24,48.32-14.07,2.28-28.72,2.12-42.67-.89-1.26-1-1.67-24.47-2.61-25.33-.15-.13-1.43.08-1.96,0-.9.96.88,23.86,1.59,26.36.68,2.37,3.72,1.86,5.64,1.92v2.62c-.75.8-19.35-6.22-20.41-7.53-1.41-1.75-1.98-6.42-3.08-8.72-.35-.72-1.17-.8-1.45-1.35-2.89-5.83-9.63-24.87-15.83-9.77l-1.3.42c-2.56-3.83-11.98-9.93-16.66-8.41-1.44.47-1.58,2.28-2.47,2.79-1.42.81-4.74,1.3-5.68,2.53-1.16,1.53-.47,3.46-1.2,5.06-1.28,2.81-4.07.46-2.92,8.09.08.51,1.37.07,1.37,2.11s-1.26,1.57-1.37,2.11c-1.03,5.01,6.98,16,11,19.25,6.47,5.24,14.49,7.05,21.13,10.9,4.92,2.86,17.49,12.12,22.21,15.89.47.37,1.28-.11.86,1.47-6.89.5-13.81.91-20.74.69-7.34-.23-37.65-2.83-41.73-8.23-3.23-4.27-3-31.04-2.64-37.51.55-9.94,3.29-19.41,4.31-29.24-1.25-1.24-.68-.57-1.15.18-3.88,6.14-6.38,20.42-7.07,27.78-.31,3.36.47,6.86-.32,10.2-.79,1.3-11.2-3.5-11.35-4.94,1.38-2.41,1.84-5.05,2.52-7.7,1.74-6.81,1.28-6.39,0-12.88-.34-1.74-1.84-6.31-1.7-7.43.2-1.7,11.16-15.17,13.16-17.01,6.89-6.31,16.97-10.16,25.95-12.51-1.16,9.45,3.31,15.16,12.8,15.8,14.56.97,28.88-9.28,36.2-21.07,6.38,3.34,14.55,5.26,20.72,8.86,2.24,1.31,7.83,5.44,9.61,7.17Z" fill="#fff"/>
  <path d="M484.68,309.54c1.73,16,22.7,21.91,36.2,23.95,1.36,8.21,3.03,14.6,8.82,20.76,2.17,2.31,5.66,2.58,5.62,5.89,4.78-.9,5.09-5.92,10.93-6.33,14.69-1.01,16.32,20.78,3.05,26.56-5.91,2.57-10.77,1.85-16.61-.5-.17,7.8-8.67,16.07-14.92,20.25-18.44,12.31-44.82,14.69-62.32-.55-19.48-16.97-12.35-42.93-11.89-65.75,11.57-3.9,23.59-8.28,32.9-16.4,2.51-2.19,5.13-6.27,8.22-7.88ZM514.05,339.32c-2.73-4.8-13.77-10.3-19.1-9.23-1.58.32-2.74,2.38-.05,3.08,3.7.96,6.52.38,10.38,2.77,1.83,1.13,8.06,9.44,9.64,7.78.17-1.71-.02-2.89-.88-4.39ZM462.99,333.19c2.26-3.39-6.22-2.66-7.89-2.16-2.84.85-8.71,5.69-7.86,9.01s6.11-4.68,7.23-5.18c1.37-.61,8.11-1.06,8.52-1.68ZM459.54,351.11c-6.29-7.22-12.03,16.45-.96,12.84,3.64-1.19,2.53-11.04.96-12.84ZM502.04,354.65c-.48-1.06-.09-2.47-1.33-2.99-4.65-.86-6.3,3.55-6.21,7.5.2,9.23,10.39,6.99,8.65-3.32-.18-1.09-.99-.94-1.1-1.19ZM474.82,357.52c-11.91,6.08-14.93,20.94,2.63,19.7-2.25-2.68-8.87-2.56-9.18-6.93-.27-3.91,4.8-9.45,6.55-12.77ZM542.55,370.66l7.87-6.24c-3.65-3.08-8.86,2.2-7.87,6.24ZM498.49,382.5c-9.65,1.67-19.13,6.39-29.17,4-3.57,1.1,3.93,10.72,6.19,12.07,10.63,6.35,23.28-4.9,22.97-16.07Z" fill="#fff"/>
  <path d="M410.97,542.29c1.04,2.55-1.35,2.75-1.9,3.7-5.78,9.85-17.09,32.4-26.06,38.18-10.86,7-34.29,4.24-47.05,2.56-10.83-1.42-34.94-9.22-43.52-8.3-3.77.41-8.07,2.36-12.52,2.59-12.22.65-35.36-4.26-43.51-14.06-.44-.53-5.59-8.97-2.54-7.65,8.18,6.88,18.95,12.98,29.92,12.48-8.17-5.22-20.84-5.92-26.3-15.1,2.15.39,3.57-2.09,5.42-1.88,4.37.49,15.33,9.28,20.89,6.16,1.18-.81-.1-1.54-.83-1.82-2.32-.9-5.55-.86-8.55-1.96-5.28-1.95-16.27-6-10.68-12.9,5.46,4.48,29.56,7.39,34.12,3.28,2.98-5.68-12.26-9.67-9.83-14.52,2.18-4.35,10.29,2.45,12.84,3.62,4.58,2.09,10.44,3.69,14.65,6.39s6.22,7.34,11.35,7.73c6.56.5,21.14-.74,28.25-1.34,7.11-.6,14.14-2.45,21.29-2.7,1.95-5.81,4.61-12.29,7.75-17.22.63-1-.18-3.06,1.87-3.08,16.12,1.38,30.83,8.59,44.95,15.86Z" fill="#fff"/>
  <path d="M109.6,447.24c2.88,2.81,6.83,19.62,10.32,24.89,3.06,4.63,13.8,11.37,18.75,14.74,3.98,2.72,25.53,17.01,28.3,17.71,3.28.83,12.92-1.43,18.15-1.06,3.72.27,26.05,5.15,25.37,9.36-4.48,4.47-11.81,1.49-17.39,1.72-2.69.87,6.28,6.64,7.22,7.24,7.99,5.06,18.3,7.13,23.99,14.79-6.08,6.38-18.83-1.94-26.09-3.49-.78-.17-2.04-.44-1.51.85,1.35,3.28,20.18,7.96,24.32,8.23l-.15,1.84c-9.8,5.86-20.9-.81-30.75-3.16,5.18,5.13,13.19,7.84,20.38,8.54-4.75,2.82-15.05.7-20.37-1-12.44-3.96-21.42-14.85-31.57-19.05-4.98-2.06-11.94-2.42-17.11-3.92-20.09-5.85-42.84-12.02-55.76-29.7-2.65-3.63-17.84-33.97-17.11-36.56,8.83-6.71,27.18-15.31,38.42-13.67,1.89.28,1.54.69,2.57,1.69Z" fill="#fff"/>
  <path d="M523.47,247.09l-8.62,32.12c-29.34-1.32-65.58,9.29-75.2,40.18-1.89,6.07-1.82,12.81-5.38,18.43l-23.14-.11c-7.77-20.06-20.69-36.29-42.15-42.32-3.62-1.02-8.67-.89-11.82-1.99-5.67-1.98-20.25-13.76-26.23-17.83-.82-.56-1.72-.91-2.73-.88-.36-1.7.35-1.02.93-1.37,21.26-12.69,51.04-8.55,69.19,7.83,14.11-9.44,30.75-5.9,41.97,6.04,26.16-16.24,53.37-31.59,83.18-40.09Z" fill="#fff"/>
  <path d="M272.07,449.13c1.68,2.55,3.15,4.82,3.54,7.97,3.63,28.87-24.25,47.65-50.9,43-4.05-.71-28.35-8.89-29.69-11.78-.4-.87,0-1.51.42-2.23,2.18-2.6,7.78-.5,10.47.59.82-9.65-8.42-15.17-14.45-21.03,6.6-5.34,8.03-10.88,4.59-18.73,9.81.77,17.72-6.42,16.43-16.44,4.28.15,9.12,0,13.14-1.66,7.16-2.94,4.17-8.02,14.36-5.12,10.95,3.12,25.84,15.99,32.08,25.43ZM245.2,432.61c-3.4-2.85-11.63,1.58-11.01,6.41,4.2-1.92,5.93-4.74,11.2-4.25.89-.48.2-1.83-.19-2.16ZM244.72,450.18c.14.21,4.24,1.33,4.92,1.34,9.17,0,4.76-11.15,2.31-8.56.47,4.79-1.8,6.15-6.2,4.68-.96.27-1.41,1.96-1.03,2.54ZM221.04,448.88c-4.54-.33-9.24,4.2-10.22,8.5-.43,1.88-1.11,5.42,1.7,3.54.22-1.8,2.46-6.09,3.63-7.42,1.98-2.26,5.32-1.43,4.9-4.62ZM251.13,457.58c-1.48-1.43-9.63-1.66-9.7,1.81,3.77-1.15,8.99-1.03,9.53,3.95,2.19-.8,1.33-4.64.18-5.75ZM228.94,460.05l-1.63,5.92-6.26,1.65c5.3,9.21,18.11-4.67,7.89-7.57ZM261.14,467.29c-2.12-1.34-4.66,5.21-6.33,6.48-2.23,1.7-5.78,1.91-8.4,2.66l-.39,2.03c6.87,1.24,16.71-3.32,15.12-11.17Z" fill="#fff"/>
  <path d="M501.78,460.05l-1.31-9.2c4.06-.65,5.55,3.44,7.15,6.33,4.73,8.54,3.11,15.75,12.89,20.63,10.22,5.1,23.29,7.47,33.54,13.15,3,.13-1.63-3.52-2.48-4.11-3.12-2.15-6.86-2.96-10.22-4.56l-.11-3.17c11.04,1.63,22.51,2.18,33.52,0-.23,19.82-4.44,41.42-29.23,39.42-19.73-1.59-29.57-13.81-44.85-22.86-10.51-6.23-27.92-10.53-29.46-25.1l8.54,6.58c1.4-1.99-1.25-2.34-2.33-3.58-3.64-4.2-8.07-8.77-7.19-14.83,4.52,3,7.19,9.3,13.14,9.86-2.28-6.32-12.34-8.99-10.59-16.81,4.05-4.86,11.18,10.1,15.85,10.23,1.86-2.22-11.01-12.13-7.89-14.14s16.85,11.52,21.04,12.17Z" fill="#fff"/>
  <path d="M352.16,511.04c7.14,11.27,9.25,21.25,1.27,33.05l-17.32,2.07c2.63-5.67,9.7-8.42,8.53-16.43-4.15,4.57-8.68,14.63-14.85,16.37-2.45.69-21.99,1.85-24.24,1.36-2.71-.58-9.37-9.91-14.11-9.9,10.51-18.26,17.18-41.75,9.82-62.38,18.38,5.69,40.49,19.44,50.9,35.87Z" fill="#fff"/>
  <path d="M560.71,313.7c6.11,9.99,8.79,24.69,10.08,36.27.37,3.35-.59,7.97.05,11,.74,3.53,10.57,6.84,11.14,16.61.54,9.16-8.09,18.89-5.95,25.65,1.13,3.55,4.82,6.41,5.65,10.78,1.65,8.68-1.54,18.52-10.02,22.29-.65.01-7.66-9.79-7.83-10.42-.53-2,1.01-5.8,1.04-8.24.14-9.78-8.85-12.69-9.2-15.79,2.34-7.05,2.54-13.39-1.89-19.6,10.44-9.05,11.57-23.91-1.39-31.13.86-12.12-3.81-24.44-9.74-34.8-10.99-19.16-33.92-31.24-55.99-31.12l12.83-2.6c24.14-2.98,48.81,10.79,61.22,31.1Z" fill="#fff"/>
  <path d="M295.07,523.56l-6.06,12.71c-7.84-1.01-14.62-10.94-22.63-6.23-4.44,7.34,3.4,11.32,7.92,15.46-3.62,2.06-28.28-.55-28.91-3.66,2.48-4.16,3.12-7.72-.66-11.09,2.19-2.55,5.43-3.71,7.88-5.94,17.91-16.31,24.92-39.1,26.3-62.78,8.38,4.49,18.84,9.89,21.26,19.82,3.13,12.86-.43,29.6-5.1,41.71Z" fill="#fff"/>
  <path d="M246.36,341.08l.81.96c-1.14,5.32-1.04,11.49.6,16.72.63,2.01,4.22,6.2,4.14,8.3s-4.73,6.8-5.54,9.54c-3.4,11.51.74,18.43,6.1,27.8-2.39,6.45-5.64,12.51-5.13,19.51l-13.15-4.26c-2.32-10.05-8.16-9.87-17.11-9.18l-2.3-6.3c.92-.81,5.61-3.16,5.61-4.24v-58.83h25.97Z" fill="#fff"/>
  <path d="M555.45,697.76c-1.27,1.56-13.62,8.5-15.14,8.18-5.6-10.07-17-16.74-28.67-16.49,9.03-5.95,10.94-4.4,10.51-16.08-.38-10.34-3.01-20.84-3.28-31.23l34.55-2.66c.81,12.36.8,24.8,1.63,37.16.39,5.73,3.96,16.76.41,21.14Z" fill="#fff"/>
  <path d="M484.57,692.63c-7.25,3.23-15.13,5.3-23.07,5.93-5.01-7.18-10.82-14.88-20.2-16.34.21-4.31,10.31-5.23,11.3-7.48l.54-39.18,32.6,5.87c-1.53,17.02-3.54,34.15-1.16,51.2Z" fill="#fff"/>
  <path d="M284.83,775.56c-6.14-12.88-16.79-20.95-29.59-26.62.39-2.07,11.35-5.52,12.66-8.37,1.59-3.43-1.36-13.27-.21-14l39.52-.02c.85.59.84,15.53,1.33,18.39.77,4.52,4.77,10.82,2.88,15.49s-21.5,12.73-26.6,15.14Z" fill="#fff"/>
  <path d="M439.98,561.28l-10.47,66.12c.03,1.53,1.42,1.59,2.41,2.08,4.46,2.24,12.85,3.82,17.92,4.76l-.61,39.68-8.58,3.69c-2.3-15.3-.51-34.32-17.67-41.12,4.48-20.65-3.32-40.66-9.94-59.85,2.91-4.72,4.79-9.74,5.25-15.36h21.7Z" fill="#fff"/>
  <path d="M98.52,370.9c6.04,6.83,10.69,12.2,18.71,17.12,21.97,13.48,51.64,11.64,54.61-18.58l8.8,1.85c3.1,18.11-10.52,35.85-28.93,37.51-21.76,1.96-39.89-7.16-55.26-21.7-2.5-2.36-18.61-20.31-18.06-22l13.34-2.2c2.11,2.86,4.46,5.35,6.8,8Z" fill="#fff"/>
  <path d="M536.22,313.23c8.08,10.52,13.73,23.73,13.56,37.06h-7.57c-8.24-37.31-52.56-60.65-87.03-41.67l-9.95,8.46c9.9-30.19,44.02-34.95,69.94-21.92,9.06,4.56,14.96,10.12,21.06,18.06Z" fill="#fff"/>
  <path d="M434.06,341.08c-.1,3.94.15,8,.95,11.86.72,3.43,3.25,7.02,3.63,8.86,1.97,9.57-.86,17.66,4.47,27.75,1.06,2,6.23,6.98,6.62,9.2.37,2.1-1.53,5.39-1.8,7.81-.62,5.62.4,9.55,3.31,14.29,1.34,2.19,4.45,1.8,2.85,5.67l-13.79,17.09c-6.48-6.41-3.05-5.86-1.45-11.95,1.95-7.39.93-16.49-4.14-22.54-3.47-4.14-8.33-4.74-8.38-12.02-.06-8.5,4.44-11.22,1.11-22.78-2.84-9.85-8.92-10.1-11.29-15.01-2.13-4.42-2.66-13.24-3.79-18.23h21.7Z" fill="#fff"/>
  <path d="M103.33,708.56c-1.09,4.33-1,7.62,2,11.12-11.33,2.66-22.57,8.47-29.98,17.7-5.18-2.56-28.34-12.86-29.09-18.17-.42-3.02,14.8-21.43,14.37-27.13,13.79,6.59,27.82,12.66,42.7,16.48Z" fill="#fff"/>
  <path d="M167.4,239.6c1.92,4.01,3.43,8.13,4.89,12.55l-1.55,1.5c-27.26-1.16-54.51-.66-81.62-3.69-2.22-.25-5.83,1.25-8.11-1.23,2.59-3.06,8.51-12.53,12.37-13.12,23.23.77,46.55.75,69.53-2.91,2.66.27,3.47,4.77,4.49,6.9Z" fill="#fff"/>
  <path d="M168.45,467.28l5.9,7.58c9.57,9.65,18.25,17.04,30.94,22.31,18.3,7.59,38.11,10.14,57.84,9.89.47,2.05-13.94,17.09-16.77,18.71-.77-3.39-5.83-3-6.19-3.33-.87-.78,1.25-5.11-4.32-5.87-12.01-1.64-23.97,12.34-35.17,1.65,4.36-2.46,13.11,1.32,13.85-5.9-1.1-7.86-32.54-13.56-39.5-12.52-2.46-1.02-6.59-12.61-6.59-15.1v-17.42Z" fill="#fff"/>
  <path d="M186.86,734.79c-.41-1.5.35-1.1.82-1.5,5.67-4.86,16.6-3.75,13.64-15.58l33.11,4.69c.89.21.9.83,1.08,1.55.33,1.33.85,23.39.51,24.83-1.37,5.94-19.81,7.85-25.11,9.55-4.8-10.54-12.82-19.78-24.05-23.55Z" fill="#fff"/>
  <path d="M418.94,557.99l.65-9.21c.92-.14,2.49.34,3.2-.09,1.78-1.08,7.01-26.92,6.98-30.81,9.89-4.31,17.73-11.79,24-20.36-.21,2.19.16,4.1.71,6.19s2.95,6.35,2.56,7.8c-.15.53-1.23.27-1.34,1.42-.23,2.41.51,5.69.03,7.91-.17.81-4.82,7.75-5.8,9.97-3.92,8.81-7.29,17.76-9.3,27.18h-21.7Z" fill="#fff"/>
  <path d="M367,429.82c-1.35,3.77,3.02,6.89,3.29,9.59.65,6.34-18.76,21.36-24.41,24.17-15.71,7.81-37.97,7.41-38.04-14.7,15.56,3.78,32.75-.48,46.22-8.67l12.94-10.39Z" fill="#fff"/>
  <path d="M156.49,364.86c1.24,2.21-.85,9.87-2.82,11.73-4.92,4.67-19.13,2.11-25.01,0-9.76-3.52-16.98-11.43-23.97-18.75,6.19-4.39,5.91-9.16,7.89-15.12.13-.4-.29-1.52.97-.98.94.4,5.5,5.07,6.97,6.18,6.59,5.03,14.12,10.02,21.95,12.89,2.17.8,13.63,3.33,14.04,4.04Z" fill="#fff"/>
  <path d="M555.69,521.18c.29,1.53-.14,1.05-.84,1.48-1.76,1.06-7.22,2.32-9.54,2.94-21.04,5.58-51.11,6.1-72.09.15-7.02-1.99-18.43-4.3-13.2-13.73,17.51,5.58,39.35,7.64,57.78,6.98,3.17-.11,6.26-2.23,10.62-1.77,3.59.38,9.96,3.96,13.79,3.96h13.48Z" fill="#fff"/>
  <path d="M159.91,366.06l9.15,2.38c-.48,1.54-.27,3.56-.66,5-.14.54-1.04.53-1.19,1.03-2.51,8.43-4.52,14.77-13.91,17.51-23.66,6.92-46.82-12.13-59.13-30.52,10.88-3.41,8.07-.88,14.45,4.93,10.54,9.6,23.94,17.51,38.83,15.15,8.98-1.42,12.76-6.5,12.46-15.48Z" fill="#fff"/>
  <path d="M590.54,542.22v38.12l-15.84-2.39-7.18-36.05c7.73,1.09,15.37,3.48,23.02.32Z" fill="#fff"/>
  <path d="M189.86,211.89c6.28,5.25-3.33,14.17-4.26,20.47-1.33,9.04,6.63,25.47-8.82,21.85-1.17-.42-4.99-12.79-5.85-15.18-.78-2.18-3.42-6.47-3.84-8.02-3.46-12.67,11.48-28.57,22.78-19.11ZM172.4,218.83c-1.11,5.35,12.43,3.12,12.47,1.64l-12.47-1.64ZM183.57,233.28c-2.39-3.73-8.17-2.87-11.83-1.95-.17,1.28-.14,1.09.81,1.48,1.55.64,10.24,1.7,11.02.47Z" fill="#fff"/>
  <path d="M47.47,435.73c1.95,4.69,2.28,10.04,3.85,14.86.29.89,1.2,1,1.35,1.44.9,2.51,2.99,12.93,6.16,12.54,1.53-.19,4.66-3.54,7.04-3.2l13.17,29.9c-6.89.52-26.33-5.91-29.27-12.15-.57-1.21-2.3-8.98-2.3-10.19v-33.19Z" fill="#fff"/>
  <path d="M86.5,501.88c5.57,5.36,10.63,9.73,17.51,13.38-14.22-1.02-30.33-3.64-43.39-9.52-1.31-.59-10.64-5.9-10.98-6.44-2.1-3.21.35-9.97.47-13.61,6.7,2.06,12.27,5.77,19.37,7.91,3.45,1.04,9.35,1.15,12.01,2.45,2.17,1.06,3.34,4.22,5.02,5.83Z" fill="#fff"/>
  <path d="M522.16,400.9c-1.3,5.39,3.96,5.6,5.82,9.4-8.56,11.06-22.75,21.1-37.55,18.05-4.01-.83-6.09-4.25-6.42-8.03-.85-9.8,5.98-6.06,13.33-7.76,9.07-2.1,16.98-6.91,24.82-11.65Z" fill="#fff"/>
  <path d="M45.38,723.13c.23.13,2.04,3.07,3.46,4.08,16.61,11.68,55.52,27.19,75.27,20.79,2.23-.72,8.06-4.56,9.17-4.65,1.49-.12.73.24,1.07.95.99,9.85-19.01,11.76-26.09,11.58-14.59-.37-48.84-13.34-60.98-21.85-4.86-3.41-4.92-5.12-3.74-11.04.6.05,1.27-.17,1.84.15Z" fill="#fff"/>
  <path d="M590.54,197.13v11.83c-10.5,1.28-22.58.74-32.73-2.45-7.39-2.33-15.68-6-13-15.33.36-.53.7-.54,1.27-.58,3.43-.28,19.09,4.33,24.51,5.1,6.63.94,13.22,1.81,19.93,1.43Z" fill="#fff"/>
  <path d="M4.08,534.33c8.98,2.4,16.65,9.23,18.73,18.39,2.11-1.14,4.78-3.5,7.02-4.14,1.33-.38,2.41-1.26,2.54.56.23,3.15-1.46,8.64-1.41,12.08l-26.89,5.33v-32.21Z" fill="#fff"/>
  <path d="M453.12,482.41c.83,7.52-.38,11.88-4.99,17.68-1.94,2.45-16.05,15.54-18.68,13.2,2.71-5.84-2.07-21.64.34-26.28.46-.88,9.85-5.57,9.54-9.87,4.15,2.64,8.62,5.25,13.79,5.26Z" fill="#fff"/>
  <path d="M269.04,779.49l-17.09,1.32c-1.04-3.52,3.98-4.28,3.61-7.23-3.19.94-6.04,2.91-6.32,6.49-4.59.63-7.91-.03-5.45-5.12l6.18-5.97c-5.22.5-9.31,4.66-9.86,9.86-4.82-.96-6.62-.9-4.73-6.42.96-2.81,4.78-4.09,6.06-6.4.48-.86.69-1.66-.33-1.63-5.13,2.75-8.34,5.24-9.88,11.15-7.84-6.06,4.76-14.74,10.27-17.43,10.88,3.74,23.97,9.36,27.54,21.37Z" fill="#fff"/>
  <path d="M127.69,742.04c.16-3.5-2.3-6.54-5.05-8.44-.8-.55-6.91-3.94-5.49-.44,6.34,2.19,13.53,11.8,2.02,11.47.06-5.37-5.46-9.31-10.21-10.5-3.51.11,4.48,5.24,5.17,6.01.81.9,3.87,4.76,3.04,5.83l-7.81.58c-.53-4.07-3.7-7.01-6.99-9.1l-.88,2.17c.17.71,6.91,6.22,3.54,6.89-2.51-.81-16.08-2.77-16.16-5.44-.14-5.16,21.45-16.37,25.95-16.1,1.16.07,7.54,3.54,8.75,4.41,3.43,2.46,12.19,11.3,4.11,12.66Z" fill="#fff"/>
  <path d="M198.65,716.43c-.18,2.2.7,5.7-.57,7.58-.56.83-9.88,5.91-11.07,6.08-1.78.25-22.88-5.75-23.2-6.92l1.51-8.58c3.72-.08,8.83-2.48,12.07-2.75,6.07-.51,14.77,4.67,21.26,4.6Z" fill="#fff"/>
  <path d="M87.81,339.49c-7.26-5.98-1.42-34.28,11.13-26.53,10.9,6.74,3.08,38.24-11.13,26.53Z" fill="#fff"/>
  <path d="M4.08,222.11c12.57,2.69,24.66,1.94,37.05-1.37,2.83,3.18-.59,7.79-3.18,9.91-8.95,7.32-23.67,7.13-33.86,3.62v-12.16Z" fill="#fff"/>
  <path d="M239.45,723.63l25.26,2.55c.1,3.15,2.43,11.7.1,13.93-.32.3-7.46,3.77-7.9,3.81-2.55.24-17.46-3.81-17.46-6.81v-13.47Z" fill="#fff"/>
  <path d="M181.6,762.41l2.63-6.57c-5.3.75-2.49,6.72-8.8,5.87-6.72-.91,1.66-8.68,4.19-10.46-5.42-.12-8.07,4.36-10.28,8.47-9.12.08-3.24-7.83-.24-11.76-4.29,0-6.92,4.65-6.57,8.54-2.82-.03-2.3-3.71-1.34-5.62s11.48-10.09,13.51-10.1c9.41,3.58,17.78,10.78,22.02,20.01.54,1.04-3.41,1.63-3.6,1.63h-11.51Z" fill="#fff"/>
  <path d="M211.84,254.98l-23.06-.94-1.27-19.43c1.26-1.12,15.2,1.38,17.07,2.98s8.74,15.94,7.26,17.39Z" fill="#fff"/>
  <path d="M533.99,709.16l-13.14,1.98,2.62-5.59c-3.28-1.91-4.97,5.28-5.33,5.52-1.11.72-5.46-1.17-7.16-.58-.25-3.94,3.35-5.23,5.26-7.88-4.3.16-6.84,2.86-8.32,6.62l-4.21-1.69,4.64-7.56c-3.71.76-6.43,4.09-8.22,7.21-5.66-2.28-.61-9.8,2.92-10.86,9.73-2.94,26.92,2.79,30.93,12.84Z" fill="#fff"/>
  <path d="M416.76,545.7c.54.69.71,1.17.74,2.05.08,2.34-2.02,16.3-2.68,18.94-2.31,9.27-12.38,9.12-20.21,10.36l19.07-32.86c.45-.28,2.72,1.08,3.07,1.51Z" fill="#fff"/>
  <path d="M229.45,558.8c.32.42,1.32,5.03,2.23,6.64,1.51,2.64,3.7,4.87,5.79,7.01l-14.71,4.66c-4.03-8.33-7.2-16.83-13.56-23.71,1.38-2.21,10.34,2.79,12.52,3.57,1.67.6,7.23,1.18,7.72,1.82Z" fill="#fff"/>
  <path d="M244.05,533.67c1.49,8.29-7.71,11.54-13.13,15.44,1.92,2.85,6.59-.8,8.12-.28,4.21,4.56-5.93,6.57-9.11,6.57-4.77.01-9.78-2.35-14.14-4.01l.84-1.46c4.89.49,6.38-5.67,7.19-6.28.34-.26,3.87-.79,5.35-1.55,2.2-1.12,14.16-8.9,14.88-8.44Z" fill="#fff"/>
  <path d="M243.4,503.44c5.54-2.31,11.56-4,16.64-7.35,4.49-2.96,8.56-7.14,11.31-11.72,3.05.77-.2,3.6-.27,3.82-1.58,5.18-2.57,11.12-6.31,15.25h-21.37Z" fill="#fff"/>
  <path d="M213.15,525.78l.91-1.39c5.45-.33,10.2-3.27,15.4-4.32,14.89-2.99-.71,10.74-7.92,9.54-2.85-.48-5.16-4.35-8.39-3.83Z" fill="#fff"/>
  <path d="M241.92,525.96c4.44,4.33-11.07,12.24-14.3,12.97l-1.95-7.19c3.79-.6,13.01-8.94,16.24-5.78Z" fill="#fff"/>
  <path d="M166.47,489.63c.55,4.46,4.52,7.79,5.26,12.49-1.61,1.53-16.46-8.99-19.06-10.19l13.8-2.3Z" fill="#fff"/>
  <path d="M182.25,731.52c-3.09,7.79-22.21,3.73-19.05-5.92l19.05,5.92Z" fill="#fff"/>
  <path d="M452.47,700.62l-9.1.56-2.06-12.39c4.86,2.6,9.13,6.62,11.17,11.83Z" fill="#fff"/>
  <path d="M17.65,513.52c2.77,4.07,3.93,9.38,3.52,14.23-5.08-4.65-8.37-11.34-7.87-18.4,1.04.94,3.7,3.2,4.36,4.17Z" fill="#fff"/>
  <path d="M201.32,344.36c5.9-5.44,6.6-13.78,10.51-20.36.15,7-.55,21.46-10.51,20.36Z" fill="#fff"/>
  <path d="M23.15,505.74c.34-2.86,2.08-6.6,2.64-9.53,1.6-.23,1.03.04,1.38.91,1.64,4.07-1.3,15.07-4.02,18.81.28-3.25-.38-7.02,0-10.19Z" fill="#fff"/>
  <path d="M32.35,520.53c1.36,2.6-6.55,9.33-7.22,8.54-1.5-2.53,6.14-9.66,7.22-8.54Z" fill="#fff"/>
  <path d="M512.04,761.36c6.45,6.16,15.05,17.71,1.71,21.89-11.03,3.46-50.35,5.49-57.94-4.14-4.95-6.28,5.84-16.59,10.82-19.96,14.49-9.79,32.44-10.16,45.41,2.21ZM513.22,767.42c-10.31-13.17-22.93-15.95-38.38-9.26-5.19,2.24-22.45,14.05-15.12,20.35,3.63,3.12,23.24,5.83,27.9,4.93,5.09-.99,4.96-8.96,8.21-12.17.98-.97,8.66-4.79,9.23-4.24-.69,3.95-5.61,3.27-7.9,6.23-.31.41-4.46,8.73-4.58,9.23-.36,1.48.59.89,1.46.81,4.3-.41,22.02-1.77,23.86-5.76,1.51-3.26-2.95-7.88-4.7-10.1Z"/>
  <path d="M52.73,791.99l-3.19-1.09c-1.23-7.79,1.74-16.05,8.11-20.61,1.31.91.7.91.53,1.81-1.07,5.62-7.01,12.6-5.45,19.88Z"/>
  <path d="M537.07,742.24c-.84-1.11-4.14-2.8-5.04-4.48,7.31-4.32,14.49,16.59,10.83,17.42-3.7-2.73-2.73-8.91-5.79-12.93Z"/>
  <path d="M46.16,791.33c-1.36,1.71-4.35-6.98-4.69-7.46-1.64-2.28-6.43-4.26-7.14-7.65,7.28-.09,13.03,8.17,11.83,15.11Z"/>
  <path d="M558.32,737.44c-.36,3.26-3.46,4.54-5.18,7.63s-2.61,7.28-3.38,10.77c-.39-.21-1.78-.66-1.84-.78-1.58-3.41,4.14-18.41,10.39-17.62Z"/>
  <path d="M152.67,788.05c-.97,2-2.12,3.91-2.82,6.05-.56,1.72-2.43,13.67-4.41,12.34-2.5-3.09,2.66-21.75,7.22-18.39Z"/>
  <path d="M375.95,784.51c-.51.93-1.42,1.45-2.21,3.37-.69,1.7-1.34,8.44-3.11,8.06-3.73-3.58,2.46-16.88,6.57-16.41,1.96,1.19-.44,3.5-1.25,4.98Z"/>
  <path d="M133.34,794.22c-.58-.78-2.21-1.4-2.36-2.88,5-2.51,14.01,14.26,10.18,15.11-2.04.45-3.07-5.12-3.91-6.59-1.14-2-2.53-3.8-3.91-5.63Z"/>
  <path d="M67.85,780.16c.64,3.05-3.13,3.36-4.38,4.82-1.04,1.22-4.57,8.68-6.13,7.66-2.82-3.85,7.63-15.14,10.51-12.48Z"/>
  <path d="M364.11,787.64c1.87,2.58,3.69,5.89,1.23,8.94-1.54.92-5.31-12.24-8.85-12.81,2.07-2.18,6.44,2.24,7.62,3.87Z"/>
  <path d="M28.67,662.91c1.9,3.13,3.04,4.55,2.37,8.79-2.07,2.47-6.2-12.13-8.47-12.89l1.91-1.23c2,1.51,2.95,3.29,4.19,5.33Z"/>
  <path d="M388.69,784.76c-.95,2.66-4.03,3.44-6.25,5.91-2.04,2.27-2.89,5.97-5.58,7.23-.55-6.04,5.46-13.79,11.83-13.14Z"/>
  <path d="M44.18,656.59l-6.9,14.44c-3.37-.07,1.42-15.84,6.9-14.44Z"/>
  <path d="M28.67,622.19c.35,1.07,2.08.63-.27,3.5l-7.87-14.45c5.05-.04,6.87,7.09,8.14,10.95Z"/>
  <path d="M160.55,795.28c.59.5-7.53,10.64-8.2,10.51-3.63-.71,3.65-12.76,8.2-10.51Z"/>
  <path d="M565.55,744.67l-.61,3c-1.78.34-7.11,7.72-7.6,7.5-3.88-1.74,4.8-11.17,8.2-10.51Z"/>
  <path d="M38.92,613.87c.95,1.5-4.42,13.67-5.91,11.82-.18-3.91,1.65-10.42,5.91-11.82Z"/>
  <path d="M340.33,104.17c3.05,4.14,3.98,7.49,3.66,12.77,8.46-2.95,18.7-4.05,24.62,3.98.94,1.27,1.33,4.34,2.32,4.91,1.39.8,3.77,0,5.45.47,6.49,1.84,11.21,8.49,3.8,12.7l-123.88-.45c-10.65-11.06,7.56-16.76,16.7-16,3.26-11.16,12.58-13.49,22.99-11.16,6.84-17.51,32.44-23.35,44.33-7.22ZM341.36,121.22v-9.53c0-.07-1.06.17-1.29-.48-7.85-22.37-38.06-15.65-42.11,5.08-5.93-2.23-8.17-4.67-14.8-1.99-5.89,2.38-6.47,7.56-8.17,12.9-9.94-5.33-32.14,7.7-10.22,9.32,29.96,2.23,69.48.21,99.9-.54,2.38-.06,20.75,2.6,15.2-4.63-2.71-3.53-7.96-1.15-11.55-1.56-2.14-1.24.61-8.05-7.7-11.39-7.58-3.05-11.73-.82-17.91,3.53l-1.34-.71Z"/>
  <path d="M468.03,186.83c2.01,2.49,3.2,7.77,3.51,10.97,12-5.59,28.92,1.5,28.27,16.07-.12,2.82-1.09,6.21-4.06,7.15-8.67,2.76-25.5-1.68-35.08,1.15-23.51-1.89-49.59,1.91-72.99-.03-22.09-1.84-4.96-20.26,8.87-14.5,2.91-14.23,17.05-14.9,28.89-10.56,2.17-17.52,33.19-21.92,42.59-10.25ZM467.2,193.6c-1.73-4.59-2.61-7.28-7.69-9.08-10.25-3.64-26.33-.51-30.35,10.67-.55,1.54-1,6.97-2.01,7.21-10.83-7.87-27.18-6.94-27.93,9.2-6.07-1.39-18.42-3.89-18.34,5.48.53,1.44,3.51,1.64,4.84,1.77,33.96,3.15,73.08-2.17,107.56-.31,3.94-.7,3.5-3.98,3.23-7.27-1.02-12.44-17.68-15.33-26.59-8.88-1.32-.31-1.08-5.82-1.61-7.59-.28-.94-1.03-1.03-1.1-1.21Z"/>
  <path d="M278.26,176.1c6.81-5,15.96-11.76,24.31-5.58-4.3.73-9.1.32-13.27,1.84-2.73.99-9.01,7.27-10.7,7.08-5.7-6.41-13.43-9.34-22.04-8.6.44-3.61,8.55-2.39,10.79-1.91,3.88.83,9.55,3.1,10.92,7.16Z"/>
  <path d="M315.05,206.33c1.21-3.8,11.28-9.14,13.16-3.94-6.54-.07-9.54,4.19-14.14,7.72-1.88-1.53-3.07-3.87-5.36-4.98-1.18-.58-9.52-1.97-8.11-4.04,6.11-2.14,9.8,2.41,14.45,5.25Z"/>
  <path d="M278.24,607.95c-6.63,5.23-14.12,9.65-20.07,15.75-9.9,10.14-16.75,23.92-21.95,36.69-2.44,5.99-3.24,13.55-7.28,18.54,2-8.52,3.74-17.32,7.04-25.46.32-.79,1.31-.9,1.49-1.31,8.19-18.99,20.09-37.66,40.77-44.21Z"/>
  <path d="M132.54,547.23c15.1,18.99,24.47,34.57,45.45,48.88,1.88,1.28,5.85,1.82,6.23,4.61-1.42,1.28-15.42-7.69-17.41-9.2-12.84-9.77-24.18-24.21-32.38-37.98-1.62-2.71-5.31-5.62-4.76-10,1.74.59,1.93,2.5,2.88,3.69Z"/>
  <path d="M191.45,590.87c0,1.42-2.47.4-3.11.14-6.88-2.74-16.36-11.26-18.58-18.56l21.68,18.41Z"/>
  <path d="M483.37,552.73c1.07,14.86,5.2,29.18,13.14,41.75,2.84,4.49,6.51,7.68,9.21,12.14-2.61-1-4.92-2.63-6.9-4.59-5.48-5.45-11.35-17.33-13.43-24.69-2.11-7.45-3.56-15.89-3.33-23.63l1.31-.97Z"/>
  <path d="M273.71,356.92c3.95-.87,8.02-2.17,11.75-3.69,2.22-.91,10.64-6.75,11.77-3.82,1.57,4.06-5.48,8.92-8.77,10.11-3.48,1.26-16.84,3.79-14.76-2.6Z"/>
  <path d="M330.54,348.98c1.87-.56,6.05,5.23,7.96,6.47,3.65,2.37,10.38,4.45,14.65,5.73,2.11,1.31,1.53,2.42-.46,3.39-6.39,3.09-26.58-6.7-22.15-15.59Z"/>
  <path d="M324.71,419.75c-5.74,6.82-24.62,7.81-31.03,1.53-1.38-1.35-2.76-4.25.36-3.67,2.31.43,6.38,3.78,9.56,4.27,7.33,1.12,16.05-.89,21.65-5.85,1.52.69.13,2.93-.54,3.72Z"/>
  <path d="M304.54,382.5c-1.77,3.36-9.58,11.8-9.08,15.3.8,5.62,10.07,3.68,13.68,5.4-5.26,4.96-18.49,1.31-17.62-6.39.39-3.42,11.14-15.77,13.02-14.3Z"/>
  <path d="M295.34,378.55c2.36,2.34-6.89,7.12-9.56,7.25-4.16.2-12.45-2.32-12.12-7.63l2.14-1.5c6.89,6.53,11.69,2.65,19.54,1.88Z"/>
  <path d="M348.58,379.21c1.75,10.52-23.07,11.16-21.03,0,2.97-.52,4.25,2.54,7.05,3.13,6.09,1.29,8.79-1.26,13.97-3.13Z"/>
  <path d="M388.69,391.7c1.38,1.25-6.29,10.34-7.88,11.17-2.19-1.32,3.54-13.48,7.88-11.17Z"/>
  <path d="M329.53,407.47c1.09-1.08,5.77,4.11,6.46,5.04.61.82,4.71,7.14,2.4,7.44l-8.86-12.48Z"/>
  <path d="M375.15,692.47c6.71,8.15,9.69,16.93,18.46,25.26,3.19,3.03,7.45,5.01,10.21,8.52-3.01-.41-6.35-2.3-8.76-4.05-9.64-7-18.63-19.87-22.11-31.12l1.3-.66c.53.39.46,1.51.91,2.05Z"/>
  <path d="M425.51,721.67c-.65,1.19-4.19-.84-5.04-1.21-9.65-4.25-20.23-11.63-25.85-20.48l30.89,21.7Z"/>
  <path d="M165.72,276.57c-8.14-.94-15.67.55-23.58,2.39-1.81.42-9.68,4.39-10.56,1.91-1.18-3.31,8.59-8.43,11.43-9.59,6.54-2.66,24.82-6.52,22.71,5.29Z"/>
  <path d="M153.09,332.64c2.12-.84,11.32,1.54,14.38,1.86,4.88.5,20.41-2.25,12.4,7.83-4.78,6.01-11.35,7.4-18.22,3.9-2.61-1.33-14.06-11.41-8.57-13.59ZM176.01,339.11c-3.51,0-7.01,0-10.52,0-1.56,0-6.36-1.81-8.22-2.3-.66-.17-2.08-.95-1.96.32,3.17,1.42,3.9,4.53,7.44,6.04,5.58,2.37,12.66,1.89,14.91-4.38-.33-1-1.47.32-1.65.32Z"/>
  <path d="M210.5,281.23c-1.51,2.33-11.83-2.9-14.44-3.58-3.17-.83-14.74-.52-8.72-6.28s22.07,1.68,23.16,9.86Z"/>
  <path d="M157.09,289.34c3.14,2.51,2.57,12.8-2.62,14.42-10.63,3.31-5.87-21.22,2.62-14.42Z"/>
  <path d="M202.46,291.96c3.89,3.26.8,17.14-6.58,14.94-4.33-1.29-1.8-21.97,6.58-14.94Z"/>
  <path d="M175.68,322.68c3.51.33,9.31-.61,9.85-5l-3.61-31.81c2.44,6.87,4.22,15.66,5.28,22.99.64,4.43,2.45,10.47-.99,14.16-2.27,2.43-9.82,4.22-10.53-.34Z"/>
  <path d="M95.48,303.61l-1.98-15.77c4.24-.08,5.32,18.03,1.98,15.77Z"/>
  <path d="M498.49,382.5c.31,11.17-12.35,22.41-22.97,16.07-2.26-1.35-9.76-10.96-6.19-12.07,10.03,2.39,19.52-2.32,29.17-4ZM473.51,389.72c2.06,13.16,20.61,6.52,20.72-3.94-2.3.82-9.27,3.94-11.18,3.94h-9.53Z"/>
  <path d="M459.54,351.11c1.57,1.81,2.68,11.66-.96,12.84-11.07,3.61-5.33-20.06.96-12.84Z"/>
  <path d="M502.04,354.65c.11.25.92.1,1.1,1.19,1.75,10.31-8.44,12.55-8.65,3.32-.09-3.95,1.56-8.36,6.21-7.5,1.25.52.85,1.93,1.33,2.99Z"/>
  <path d="M514.05,339.32c.86,1.5,1.04,2.68.88,4.39-1.57,1.67-7.81-6.65-9.64-7.78-3.87-2.38-6.69-1.81-10.38-2.77-2.7-.7-1.54-2.77.05-3.08,5.33-1.07,16.36,4.44,19.1,9.23Z"/>
  <path d="M474.82,357.52c-1.75,3.32-6.82,8.86-6.55,12.77.31,4.37,6.93,4.26,9.18,6.93-17.56,1.24-14.54-13.62-2.63-19.7Z"/>
  <path d="M462.99,333.19c-.41.62-7.15,1.07-8.52,1.68-1.12.5-6.42,8.35-7.23,5.18-.85-3.32,5.03-8.16,7.86-9.01,1.66-.5,10.15-1.24,7.89,2.16Z"/>
  <path d="M542.55,370.66c-.99-4.04,4.22-9.32,7.87-6.24l-7.87,6.24Z"/>
  <path d="M261.14,467.29c1.6,7.84-8.24,12.41-15.12,11.17l.39-2.03c2.62-.75,6.16-.96,8.4-2.66,1.67-1.27,4.21-7.81,6.33-6.48Z"/>
  <path d="M228.94,460.05c10.22,2.9-2.59,16.78-7.89,7.57l6.26-1.65,1.63-5.92Z"/>
  <path d="M244.72,450.18c-.38-.58.07-2.27,1.03-2.54,4.4,1.47,6.67.11,6.2-4.68,2.45-2.59,6.86,8.56-2.31,8.56-.68,0-4.78-1.12-4.92-1.34Z"/>
  <path d="M221.04,448.88c.42,3.19-2.92,2.36-4.9,4.62-1.17,1.33-3.4,5.62-3.63,7.42-2.8,1.88-2.13-1.66-1.7-3.54.98-4.3,5.68-8.84,10.22-8.5Z"/>
  <path d="M245.2,432.61c.4.33,1.08,1.69.19,2.16-5.27-.49-6.99,2.33-11.2,4.25-.63-4.83,7.6-9.26,11.01-6.41Z"/>
  <path d="M251.13,457.58c1.16,1.12,2.01,4.95-.18,5.75-.54-4.98-5.76-5.1-9.53-3.95.07-3.47,8.22-3.24,9.7-1.81Z"/>
  <path d="M172.4,218.83l12.47,1.64c-.05,1.48-13.58,3.71-12.47-1.64Z"/>
  <path d="M183.57,233.28c-.78,1.23-9.47.17-11.02-.47-.95-.39-.98-.2-.81-1.48,3.66-.92,9.44-1.78,11.83,1.95Z"/>
  <path d="M513.22,767.42c1.74,2.23,6.2,6.85,4.7,10.1-1.85,3.99-19.57,5.35-23.86,5.76-.87.08-1.82.67-1.46-.81.12-.5,4.27-8.82,4.58-9.23,2.28-2.95,7.2-2.28,7.9-6.23-.57-.56-8.25,3.27-9.23,4.24-3.25,3.21-3.12,11.18-8.21,12.17-4.67.91-24.27-1.8-27.9-4.93-7.33-6.3,9.93-18.1,15.12-20.35,15.45-6.69,28.07-3.91,38.38,9.26Z" fill="#fff"/>
  <path d="M341.36,121.22l1.34.71c6.18-4.35,10.33-6.58,17.91-3.53,8.31,3.34,5.56,10.15,7.7,11.39,3.59.41,8.84-1.97,11.55,1.56,5.55,7.23-12.82,4.57-15.2,4.63-30.42.75-69.94,2.76-99.9.54-21.91-1.63.28-14.66,10.22-9.32,1.7-5.35,2.27-10.52,8.17-12.9,6.63-2.68,8.87-.24,14.8,1.99,4.05-20.72,34.26-27.44,42.11-5.08.23.65,1.29.41,1.29.48v9.53Z" fill="#fff"/>
  <path d="M467.2,193.6c.07.18.82.27,1.1,1.21.53,1.76.29,7.28,1.61,7.59,8.91-6.44,25.57-3.56,26.59,8.88.27,3.29.71,6.56-3.23,7.27-34.48-1.86-73.6,3.46-107.56.31-1.33-.12-4.31-.33-4.84-1.77-.09-9.37,12.26-6.87,18.34-5.48.75-16.14,17.09-17.07,27.93-9.2,1.02-.24,1.46-5.67,2.01-7.21,4.02-11.18,20.1-14.32,30.35-10.67,5.08,1.8,5.97,4.5,7.69,9.08Z" fill="#fff"/>
  <path d="M176.01,339.11c.18,0,1.32-1.32,1.65-.32-2.26,6.26-9.33,6.75-14.91,4.38-3.54-1.51-4.27-4.62-7.44-6.04-.12-1.27,1.3-.49,1.96-.32,1.87.49,6.66,2.3,8.22,2.3,3.51,0,7.01,0,10.52,0Z" fill="#fff"/>
  <path d="M473.51,389.72h9.53c1.92,0,8.88-3.12,11.18-3.94-.1,10.46-18.65,17.1-20.72,3.94Z" fill="#fff"/>
</svg>