<?xml version="1.0" encoding="UTF-8"?>
<svg id="Camada_1" xmlns="http://www.w3.org/2000/svg" version="1.1" viewBox="0 0 595.28 841.89">
  <!-- Generator: Adobe Illustrator 29.0.0, SVG Export Plug-In . SVG Version: 2.1.0 Build 186)  -->
  <g>
    <path d="M596-.11v843H-1V-.11h597ZM30,5.89H5v485l39.99.99-6.89-2.6c-6.91-2.69-5.79-13.22-5.5-19.52.38-8.27,1.04-20.75,6.39-27.37,1.24-1.54,5.6-4.31,5.7-4.94.24-1.42-2.24-6.84-2.58-9.18-6.48-44.51-.56-91.41,2.87-135.89,3.76-48.68,6.83-97.33,11.03-145.97.59-6.83,4.9-27.27,2.47-32.5-.7-1.51-2.94-1.86-3.47-4.54-.81-4.11.89-6.73,1.92-10.38-14.28-7.07-11.65-24.7-16.16-37.37-3.21-9.02-14.53-19.43-12.73-29.17.31-1.66,1.69-2.77,2-5,.89-6.46-.76-14.85-.05-21.55ZM590,5.89H32v22c33.87-3.2,68.59-3.06,102.48.02,13.12,5-5.95,27.47-8.54,34.41-3.55,9.53-2.31,20.66-8.5,29.5-1.39,1.98-7.02,6.33-7.28,7.71-.23,1.21,1.56,3.18,1.82,4.93,1.03,6.95-3.25,7.3-3.96,10.96l9.99,117.47c2.39.55,1.62-.41,2.23-1.3,12.11-17.6,10.02-37.91,33.09-48.87,35.38-16.81,69.14,1.51,74.54,39.81,3.2,22.67,2.9,46.81-.85,69.36,27.48-26.26,67.62-31.72,104.18-26.69,52.75,7.25,68.68,45.9,65.26,94.73l13.47,48.54c.29,2.96,5.07,3.55,5.94.77.69-12.86,4.14-25.4,3.15-38.35-4.81.79-7.77-1.68-8.07-6.52-.08-1.29,1.18-11.06,1.5-11.55,1.07-1.58,4.82-.79,6.57-.94-7.15-7.31-10.82-15.13-6.79-25.28.97-2.46,4.47-6.45,4.63-8.4s-4.25-3.95-3.87-7.77c.35-3.41,3.52-2.81,4.92-4.14,1.79-1.69,2.99-3.99,5.09-5.91,1.57-1.43,5.97-3.55,6.56-4.51.82-1.35-.62-3.83.34-6.5,1.97-5.45,9.23-7.41,13.63-3.5,4.8,4.27.75,9.86,1.54,10.94.19.26,4.39,1.55,5.88,2.65,2.91,2.15,4.26,5.03,6.4,7.11.73.71,2.92.2,3.55,1.94,1.97,5.39-3.49,7.47-3.61,8.87-.11,1.25,3.1,5.12,3.76,6.98,2.27,6.32,3.33,14.89-.19,20.89-1.43,2.43-4.74,3.62-4.84,6.64l26.99-1c.93-.83-5.71-10.23-6.49-11.99-5.14-11.59-7.05-28.33-.69-39.68,5.47-9.75,17.62-10.32,10.55-24.22-1.46-2.87-5.1-3.9-2.77-7.21,1.57-.61,3.18-.82,4.87-.94,5.93-.42,17.11-.49,23.08-.02,2.28.18,4.3.34,6.04,2.05,1.68,2.71-7.98,9.55-4.75,17.62.61,1.53,7.03,5.44,9.2,7.87,10.43,11.68,9.21,29.07,2.98,42.51,8.82,2.01,7.11-3.66,11.96-8.52,3.31-3.32,8.32-5.56,12.84-6.67,3.05-25.64,3.29-51.54,5.21-77.29,2.19-29.32,5.83-58.74,7.98-88.02.46-6.3,2.72-34.72,1.32-38.27-.66-1.69-3.03-.91-3.33-5.72-.37-6.02,3-7.55,3-8,0-.6-7.19-6.84-8.42-8.56-7.74-10.91-4.66-22-8.82-33.18-3.38-9.08-14.75-18.28-9.57-29.58l7.34-1.16,45.48-1.01V5.89ZM135,30.89c-4.95.82-9.81-.81-14.46-1.04-22.91-1.12-55.44-1.65-78.08,0-3.17.23-6.35,1.11-9.52,1.48-4.8,14.39,10.01,14.88,18.72,20.46,2.69.26,2.42-3.96,4-4.98,5.04-3.24,13.61.5,16.84,5.07,6.73-10.66,15.19-10.41,22,0,5.41-6.87,16.92-9.81,19.01,1.03,10.15-6.37,24.11-5.99,21.49-22.02ZM590,33.89c-13.94,2.55-28.47-.27-42.48,1.02-2.4.22-8.44.66-8.5,3.41,1.87,12.74,11.03,13.32,20.48,18.59l1.49-.02c2.15-11.65,13.04-6.23,18.51-.02,2.43-3.77,5.89-7.05,10.5-7.98v-15ZM92.86,97.75c5.33-12.77,5.81-29.16-.46-41.76-1.33-2.67-5.82-9.29-8.81-9.11-13.27.76-17.91,42.15-9.91,51.05l19.18-.18ZM69,97.88c-4.54-20.19-7.54-41.47-29.99-48.99.54,4.23,3.64,7.34,5.03,11.46,4.75,14.11,2.38,39.95,24.96,37.53ZM65.01,70.89c1.59-.18,1.52-1.5,1.89-2.6.72-2.15,3.38-12.22,2.97-13.69-.82-2.91-10.12-9.06-12.97-3.29s8.61,12.61,8.11,19.59ZM101.99,68.89c.34-6.9,11.38-11.02,7.23-17.72-3.59-5.81-9.74.72-12.88,4.2,1.68,3.7,2.29,8.42,3.64,12.06.46,1.25-.7,1.83,2.01,1.46ZM128.99,49.9c-22.1,5.16-28.23,28.11-31,47.99,21.73.92,19.75-21.91,24.71-35.8,1.55-4.35,4.38-8.06,6.29-12.2ZM590,52.89c-4.7.35-8.96,8.05-10.5,12-4.73,12.18-3.46,25.47-1.49,37.99h11.99s0-49.99,0-49.99ZM572.99,74.88l3.88-15.27c-2.24-3.42-7.02-6.79-11.2-5.77l-1.47,7.32,8.79,13.72ZM574,102.89c-1.56-19.29-6.32-41.38-27-47.99,7.25,11.67,3.72,26.02,10.81,37.68,3.26,5.36,9.52,11.21,16.2,10.31ZM60.5,110.89h46c.31,0,2.16-1.99,2.33-2.7.17-5.19-2.45-6.89-7.27-7.37-6.45-.64-33.45-.97-38.85.28-5.23,1.21-6.23,8.65-2.21,9.79ZM590,104.89h-20.5c-5.58,0-6.37,11-2,11h22.5v-11ZM104,114.89h-40.5c-2.86,2.78-1.04,7.69-1.52,11.48-6.93,55.21-10.12,112.4-13.99,168.01-2.82,40.44-9.89,96.6-1.86,135.89,1.82,8.88,3.97,9.77,12.63,11.37,15.14,2.8,30.45,2.64,45.6.11,8.05-1.35,12.1-.77,14.37-9.63,4.99-19.46,6.56-58.4,4.16-78.62-.83-7.01-7.31-7.39-9.13-11.85-1.04-2.56-2.35-16.46-1.6-19.02.52-1.77,7.1-8.59,7.65-10.43.62-2.07.33-6.44.24-8.84-1.6-42.18-7.33-86.78-11.03-128.97-1.74-19.82-2.63-39.74-5.01-59.49ZM590,119.89l-20.07-.56c-2.99,11.78-1.89,24.81-2.94,37.05-5.86,68.13-13.72,136.48-14.99,204.94-.38,20.35-.36,42.8,2.13,62.94.84,6.83,2.89,13.62,4.11,20.38,9.96,4.06,21.14,3.8,31.76,4.25V119.89ZM187.98,180.91l-14.98-1.02,3.01,13.99,9.9-.1,2.08-12.87ZM173.01,193.88c-1.72-21.43-16.76-11.82-20,3l20-3ZM206,197.88c-1.17-8.29-4.66-15.45-14-15.57l-3,12.58,17,2.99ZM138,200.88c2.44-.63,9.38-1.32,10.99-2.5.6-.44,6.47-12.92,6-13.49-6.9,3.93-12.65,9.31-16.99,15.99ZM218,202.88c.65-.56-8.81-12.57-10.99-12.99.51,7.75,3.32,11.35,10.99,12.99ZM221.99,215.89c.73-6.92-5.46-9.41-10.63-11.86-17.71-8.39-42.66-7.45-61.38-2.66-1.86.48-14.12,4.29-14.73,4.77-1.08.87-1.63,5.06-3.25,6.25l29.77-8.23c20.7-3.11,43-.76,60.22,11.73ZM179,206.9c-3.5-1.44-30.85,3.3-30.97,5.48,1.17,3.5,5.29,4.27,8.64,4.43,7.97.37,17.54-3.41,22.33-9.91ZM214.99,218.88c.58-3.7-2.53-4.87-5.31-6.18-6.8-3.21-15.39-4.07-22.68-5.81-1.78,1.64,7.96,7.56,9.3,8.19,6.02,2.79,12.2,3.01,18.69,3.8ZM148,218.88l-6.9,34.52c6.96,26.33,51.25,35.17,65.09,11.18,6.6-11.44,7.18-28.8,8.39-41.72-5.34-1.52-9.71-.8-15.26-2.78-6.7-2.39-11.26-7.18-16.81-11.22-2.98.51-3.56,3.63-5.77,5.37-7.92,6.25-19.37,7.66-28.73,4.65ZM144.99,212.89c-.53-.58-13.86,4.41-14.72,5.27-1.72,1.73-3.26,8.15-4.73,10.77-2.26,4.02-5.4,7.48-7.36,11.69l3.82,51.26c1.67,1.9,6.65-8.28,7.15-9.34,9.74-20.41,11.26-47.51,15.84-69.65ZM204.01,311.88c2.13,2.23,14.51-10.17,16-12.49,5.93-9.2,6.46-42.39,5.98-54-.21-5.17-.86-18.5-2.2-22.8-.56-1.8-3.09-3.23-4.3-4.71-2.26-.42-1.38.99-1.49,2.48-1.17,15.92-5.64,57.17-14.97,69.08-.8,1.02-3.01,1.22-3.08,2.02-.23,2.58,6.49,15.39,4.06,20.41ZM320,303.89c-.47-13.61-5.97-25.85-14.01-36.57l-27,2.58c9.07,9.99,14.22,22.78,17.96,35.58l23.05-1.59ZM345,303.89c.54-7.91-3.39-32.31-11.58-34.92-3.02-.96-16.44-2.22-19.9-2.12-1.33.04-3.13-.58-2.51,1.52,7.68,10.37,12.12,22.61,12.99,35.52h21ZM188,280.9l10.39,7.95c5.21-4.16,5.95-10.82,8.58-16.47-.06-1.47-1.12-1.35-2.46-.48-5.15,3.33-8.79,8.86-16.51,9ZM268.12,310.78c6.21-1.89,16.63-2.19,22.2-4.06,1.35-.45,1.53-1.05,1.73-2.36.85-5.48-12.42-32.5-18.68-33.2-4.41-.49-29.69,10.4-31.37,14.23,11.04,5.55,21.17,13.73,26.12,25.38ZM369,307.89v-16.5c0-.43-2.45-7.65-2.76-8.24-2.29-4.36-19.65-11.74-25.25-11.75,5.25,10.34,8.35,21.76,8,33.5l20.01,3ZM513,270.89h-25c11.08,13.91-.33,18.73-8,29h41c-1.32-4.94-8.24-7.12-11-11.49-4.04-6.4-.1-11.65,3-17.51ZM177,282.9c-8.72-.59-17.74-3.63-24.64-8.92-7.18,2.08.47,11.54,4.29,13.76,6.57,3.83,17.44,3.02,20.35-4.84ZM180.16,283.05c-.4.25-.8,2.75-1.69,3.79-7.74,9.01-18.48,9.48-27.01,1.1-6.26-6.15-3.31-13.49-15.46-11.03,5.98,26.79,38.82,32.83,49.99,6.48-.96-.82-5.09-.8-5.83-.33ZM144.34,297.54c-4.85-4.14-7.21-10.65-10.84-15.63l-10.28,15.69.77,14.8c6.8,1.9,12.5,4.42,17.01,9.99,1.48,1.83,3.19,6.63,4.78,7.48,1.17.62,19.75,3.88,21.83,3.91,5.67.08,8.95-5.81,11.26-10.51,1.76-3.58,3.63-12.77,4.65-14.35.66-1.03,1.29-1.22,2.47-1.02,2.73,3.05-4.74,19.94-7.16,23.33-7.55,10.56-20.54,3.69-30.83,2.66.04,4.6.18,9.82-1.27,14.23-1.13,3.43-4.09,5.35-4.73,8.76,24.43,5.67,50.59,5.81,57.52-22.97,3.11-12.93,4.62-44.31-12.51-48.02-4.31,18.49-28.79,23.5-42.66,11.65ZM373,290.39c.43,6.11-.32,12.39,0,18.5,1.5-.18,15.04,5.57,15.02,3.49-3.03-9.59-8.39-18.39-15.52-25.48-1.65.83.46,2.83.5,3.49ZM252.66,296.23c-2.99-2.45-12.94-8.9-16.38-7.61-2.97,1.12-23.91,23.96-22.29,25.26,8.82.75,15.85,1.36,24.28,4.22,1.52.52,3.52,2.4,4.23,2.44,1.54.1,19.57-7.8,22.47-9.15-.91-1.17-1.42-2.56-2.16-3.83-1.79-3.09-7.39-9.08-10.16-11.34ZM442.01,293.88c.98-8.24-9.98-8.25-9.01,0h9.01ZM452,306.89c.1-2.13-2.52-4.42-4.09-5.41-8.95-5.58-20.16-3.5-25.91,5.41h30ZM523.86,303.02l-46.2.83c-1.89.45-2.92,10.87-1.66,13.04l9.46-8,7.03,8.98,7.98-9.03c4.08.61,8.91,10.15,10.51,9.05l5.56-8.99,9.45,9-2.12-14.87ZM389.77,318.12c-.76-.74-13.57-5.13-15.75-5.75-37.09-10.48-97.49-5.74-131.99,12.03-8,4.12-4.53,6.54-7.02,14.47,1.09.79,21.87-6.97,25.56-7.93,31.97-8.3,78.27-12.97,110.44-5.56,7.18,1.65,13.8,5.04,20.99,6.5-1.32-3.16-.23-11.81-2.23-13.76ZM456.5,309.89h-38c-.31,0-1.87,1.64-1.5,2.49.79.86,1.51,1.94,2.71,2.3,3.05.92,29.57.71,33.73.11,2.82-.41,5.96-2.28,3.06-4.9ZM502.87,313.03c-4.13-2.39-7.41,8.94-10.37,8.93l-8-9.05c-1.67,0-5.62,10.42-9.51,9l1.27,3.71,47.79.82c4.39-3.03-5.81-10.24-6.06-13.55-1.14-.78-5.97,8.97-6.56,9.07-4.05.66-6.88-7.96-8.56-8.93ZM209,314.9c-4.53-.42-5.5,3.13-4.99,6.98,3.22.42,3.22-5.19,4.99-6.98ZM115.01,332.87c5.56,1.58,11.78,3.24,15.97,7.52-1.55,2.24-1.77.94-3.45.49-2.81-.75-5.89-2.76-8.79-3.25-.89-.15-2.35-1.16-2.73.78-.67,3.4,20.95,19.66,25.89,11.88,7.65-12.04-4.56-34.03-18.24-34.01-1.61,0-4.49.29-3.66,2.62,2.85-.27,13.29,4.04,14.52,5.99.92,1.45-.37,2.97-1.01,2.99-.99.03-12.94-9.12-17.51-5.97l-.04,3.37c.47,1.98,16.64,2.03,15.04,8.62-1.55,1.57-12.46-7.76-15.53-4.03l-.46,3.01ZM205.5,334.89c5.76,1.7,19.75-1.26,26.5,0,.18-2.57.58-6.53,1.76-8.74,1.31-2.44,4.35-2.36,4.24-5.25-5.02-1.84-21.85-6.08-26.01-3.52-1.32.81-10.51,16.33-6.49,17.51ZM423.46,317.35c-14.14,9.36-12.13,32.61,7.06,34.53,9.75.98,21.28,1.15,26.95-8.03,4.27-6.92,1.66-24.89-6.91-26.01s-18.54,1.33-27.1-.49ZM380,330.9c-10.11-1.56-21.4-5.19-31.52-5.99-25.5-2.02-66.73,3.12-91.27,10.71-3.74,1.15-5.98,1.31-3.26,5.83,4.38,7.25,17.86,6.4,24.38,2.28,3.37-2.13,4.4-5.42,7.35-7.75,3.96,1.11,6.63,3.97,11.06,4.67,8.4,1.32,14.05-.72,18.76-7.74,10.42,10.62,24.49,10.57,35.01.24,7.4,10.55,26.26,11.42,29.49-2.25ZM532,410.89h17l.49-86.01c-7.2,2.39-13.79,8.11-14.56,15.94-11.85-2.96-12.63,1.59-17.91,10.58,4.57-.28,12.02-.34,16.49.47,5.13.93,3.51,18,.84,18.88-2.23.73-6.16-1.06-6.41,2.67l4.05,37.47ZM523.99,329.9c-12.79.96-25.84-1.07-38.48-.95-1.58.01-8.3.26-8.52,1.47l11,19.98,23.5,1.05c3.13-1.22,13.43-20.71,12.5-21.55ZM385.01,367.89c11.13-6.83,15.49-32.19-1.39-34.08-4.9,5.39-.38,10.81.28,16.69.26,2.32.35,16.77,1.12,17.39ZM231,338.89l-29.94-.93-6.06,19.92c11.02.91,21.8,2.95,32.95,1.95l3.06-20.95ZM377.99,340.89c-10.05,7.24-19.58,4.39-28.5-2.75-6.94,6.01-14.72,8.53-23.68,5.45-2.5-.86-6.91-4.76-9.34-4.67-1.75.07-5.53,4.43-8.64,5.31-7.91,2.22-14.87.34-21.35-4.2-5.02,7.65-15.34,12.62-24.55,10.44-2.06-.49-6.07-3.56-6.43-3.54-2.31.13-.3,5.53-.46,7.42-.87,10.55-3.98,19.11-11.01,27.1l-2.4.4c-10.85-14.63-28.91-6.74-29.66,10.53-.69,15.77,13.76,30.21,29.46,22.54,16.49,31.81,56.75,41.04,89.96,35.86,36.29-5.66,47.86-31.47,49.66-65.34.77-14.53.27-30.4-3.05-44.54ZM235.25,344.13c-1.03,1.09-5.62,24.81-5.16,26.12l13.27,6.58c7.66-8.96,10.89-25.25,6.43-36.23-.41-1.02-.78-1.82-2.07-1.53-1.67.07-11.52,4.04-12.48,5.07ZM165.75,364.13c-6.44-1.93-13.17-1-19.78-2.71-7.13-1.85-12.48-7.41-19.97-8.52.72,20.73,1.22,41.65-1.12,62.38-.61,5.35-4.3,16.7-3.88,21.11.24,2.47,3.28,3.58,4.41,5.6,4.57,8.16,3.76,17.2,6.07,25.93,6.41,3.37,39.1,2.52,41.34-4.72,2.98-9.66-4.61-10-10.11-13.5-4.9-3.11-10.48-6.72-10.77-13.32-.31-6.97,15.36-25.67,17.04-34.07l-3.21-38.17ZM191.99,354.9c-7.19,3.16-13.55,8.9-22,7.99l2.01,32c9.19-11.32,13.66-26.83,19.98-39.99ZM533,367.89l.06-11.53-118.06-.47c.52,3.86-1.42,9.1,1.51,12.01h116.5ZM227,362.89l-34.89-.88-7.03,18.77c7.5,3.41,15.87,3.9,23.97,4.63,2.23-3.9,3.68-7.74,7.45-10.52,5.7-4.19,11.62-1.65,10.49-12.01ZM385.03,385.88l13.89-4.62-5.43-16.36-8.3,7.68-.16,13.31ZM528.99,424.89l-4.93-53.56-100.63.5c-.58,7.14-.72,14.32-1.56,21.44-1.13,9.61-5.08,25.22-4.96,34.14.06,4.17,2.53,5.69,2.93,8.24.37,2.33-1.86,5.53.11,6.8,2.56.54,9.94,1.6,10.88-1.21l7.41-56.08,3.32-1.15,68.44.4c3.5,1.7,2.65,20.53,3.16,24.84,6.86,4.3,10.82,9.58,15.82,15.67ZM209.01,388.9l-25.41-4.86-9.34,17.36c.37,4.65,34.22,10.68,39.74,10.48-3.51-7.03-7.67-14.98-4.99-22.98ZM381.01,410.88c4.3-1.54,22.13-5.27,23.49-8.96l-4.46-16.59-15.6,4.49-3.42,21.07ZM508,386.88l-67.01,1-6.99,55,7.05-.44c5.47-32.85,38.91-47.51,68.94-35.56l-1.99-20ZM221.01,416.91c-16.48-3.19-32.89-3.31-48.41-10.94l-8.35,14.45c13.74,12.09,33.16,16.82,51.14,17.54l5.62-21.04ZM368,436.88c10.68-2.43,32.95-5.82,40.55-13.98,1.86-2-.39-13.3-2.03-15.04-2.43-2.58-9.56,2.36-12.73,3.32-4.43,1.34-9.02,2.46-13.65,2.85-1.53,8.78-6.92,15.96-12.13,22.86ZM459.37,476.51c31.26,26.2,84.55-2.56,68.66-44.14-12.96-33.9-65.29-34.74-79.53-1.47-6.61,15.45-1.99,34.83,10.87,45.62ZM5,492.89v136l42.52-1.03c5.71,1.1,7.03,1.77,7.52,7.48.81,9.54-1.1,19.96.45,29.55,11.28,8.87,23.91,16.08,35.44,24.56,4.03,2.96,13.68,9.52,16.57,12.43,1.95,1.96,3.19,4.74,3.52,7.48.74,6.12-1.27,33.8.2,36.31,17.61,14.17,36.76,26.72,53.02,42.47l-.19,47.3-3.06.44v-46l-156,1v46h585v-14.5l-150.99-128.5.51,45.98,94.48,95.52-4.54-.45c-31.22-32.46-64.27-63.24-94.68-96.35,1.94-13.73-1.91-31.98.29-45.14.37-2.24,3.33-6.56,5.44-6.56h45.5v-47.5c0-2.08,3.2-7.5,5.5-7.5h98.5v-135c-9.73-.05-19.73.28-29.38-1.12-6.55-.95-20.5-2.99-20.64-11.35-.08-4.86,2.85-22.79,4.3-27.75s4.49-11.61,9.8-13.39l-4.07-28.39-18.01-1c.17,16.41,5.53,31.45-.04,47.46-4.84,13.89-19.26,25.69-33.96,27.55,3.74,9.83-3.35,7.44-6.96,10.53-1.64,1.4-1.66,5.04-5.12,6.88-5.4,2.86-19.89,1.73-25.91.08-3.23-.88-8.6-4.64-11.42-4.48-2.37.13-15.94,8.44-19.91,10.16-19.55,8.45-40.08,10.7-60.88,5.53-6.08-1.51-11.58-4.75-17.79-5.7-.09,10.32.1,21.23-1.02,31.48-.29,2.67-2.86,9.32-2.79,9.82.53,3.71,14.11,27.5,16.82,34.18,1.64,4.03,9.07,23.3,8.94,26.06-.17,3.77-9.43,6.12-9.88,8.05,8.5,21.01,11.45,44.82,8.92,67.4,9.23,1.09,32.9,6.48,36.45,16.06.38,1.01,2.41,9.64,2.42,10.44.03,3.46-2.17,5.39-4.54,7.33-13.76,11.25-64.07,14.46-80.3,8.65-12.63-4.52-8.11-11.99-7.99-21.93.25-19.1-.72-54.16-12.2-69.88-.95-1.29-1.49-2.5-3.37-2.64-16.99,2.08-34,.62-50.92-1.01-3.05.39-3.73,3.67-5.65,5.39-20.19,18.05-46.9,23.17-73.31,25.49-1.82,20.37-3.9,45.64-31,42.03-26.09-3.48-27.74-34.55-24.33-55.16,6.01-36.32,26.24-23.71,52.41-30.59,3.29-.86,19.22-8.28,20.32-10.68.9-1.96-7.66-4.52-8.52-6.46-1.95-2.92-9.86-7.91-9.35-11.3,13.9-20.54,32.46-39.1,41.89-62.21,3.11-7.62,5.38-15.71,7.98-23.51-1.36-1.04-18.57,9.42-21.32,11.17-8.09,5.13-29.69,20.14-34.68,27.32-3.97,5.71-4.72,14.34-11.93,19.07-9.57,6.26-16.53-4.81-11.06-13.55-2.58-1.92-24.21,11.59-30.56,5.05-2.25-2.31-.92-5.06-1.61-5.9-.46-.56-4.59-.43-5.62-3.87-2.24-7.5,3.99-8.29,3.78-8.78l-3.98-4.98c3.57-11.31,17.64-9.9,26.92-13.09l21.06-28.43c-4.11.08-8.29-.51-12.33-1.18-15.16-2.52-13.04-1.1-27.31,1.03-19.66,2.94-41.14,1.24-60.82,1.1-15.51-.11-31.16.82-46.54-.96ZM415,414.88h-2.99s1,7.01,1,7.01c3.7.81,1.45-4.88,1.99-7.01ZM248,430.88c-2.14-1.89-6.14-9.6-8.01-10.54-2.68-1.34-11.94,2.61-15.98-1.45l-2.02,10.99,26.01.99ZM214.01,441.89c-12.29-.82-24.91-3.4-36.24-8.27-2.83-1.21-14.38-8.66-15.25-8.76-.5-.05-1.01.03-1.5.03-1.16,6.25-7.28,6.97-4.45,14.96,2.51,7.08,29.64,18.02,37,18.08,4.82.04,6.17-2.58,9.76-4.22,6.64-3.03,11.47-1.75,10.69-11.82ZM411.98,425.89c-5.83,2.38-11.24,6.18-17.19,8.29-14.7,5.23-30.28,4.09-43.14,13.86-1.13.86-2.05,1.05-1.66,2.83,6.34-.01,11.4,5.93,17.49,6.1,9.95.29,31.84-5.36,40.44-10.66,10.67-6.57,8.63-10.12,4.05-20.44ZM256.57,438.32c-6.15-5.79-17.7-3.15-26.12-3.39-2.95-.08-5.76-1.48-8.78-1.09l-5.68,15.04c14.49-4.52,29.79-6.24,44.99-6l-4.42-4.57ZM40.13,450.77c5.45,2.21,10.59,4.94,16.49,6.01,13.46,2.44,54.49,2.02,66.1-4.67,4.65-2.67-.15-9.83-3.27-10.26s-6.11,2.19-9.19,2.78c-20.15,3.88-45.38,3.9-64.59-3.53-3.41.3-6.28,6.47-5.53,9.66ZM321.23,455.12c-.6.43-1.69,4.23-2.8,5.71-13.37,17.62-51.97,8.48-55.37-14.5-12.65-4.06-9.38,7.55-5.81,14.81,12.33,25.13,68.47,27.95,73.79-4.75.45-3.81-8.38-2.31-9.8-1.27ZM316.99,454.89c-17.5-.03-33.65-3.08-49.99-9,2.63,18.9,30.75,25.92,44.93,16.43,1.29-.86,6.68-5.86,5.06-7.43ZM440.9,445.99c-7.7.77-18.96-1.51-26.19.11-2.51.56-4.95,3.4-7.5,4.5-11.23,4.88-23.31,8.62-35.71,8.28l-.5,1.99c6.81,1.34,15.42,10.92,20.95,12.56,8.7,2.59,25.87-3.38,34.56-6.53,3.04-1.1,16.76-5.97,17.13-8.48l-2.74-12.43ZM251.01,446.88h-12.01c-2.12,42.45,51.57,59.55,84.35,42.85,12.42-6.33,22.31-23.62,18.7-37.43-.98-.72-6.27.44-7.07,1.06-.66.51-3.32,12.83-5.12,15.88-5.94,10.08-23.24,15.64-34.34,15.73-20.54.15-45.95-15.12-44.51-38.09ZM590,451.89h-16.5c-1.89,0-9.26-1.71-11.72-2.28-6.55-1.51-7.58-5.91-12.63,3.96-.33,3.65,10.03,7,12.99,7.69,1.68.39,8.18,1.64,9.36,1.64h18.5v-11ZM493.5,489.89c-2.46-.7-11.55,0-15,0-.73,0-12.01-4.64-13.56-5.44-9.51-4.95-14.89-12.75-20.54-21.48-12.52,4.92-27.01,12-40.15,14.67-9.08,1.84-10.95.52-18.57-3.92-12.66-7.38-24.66-18.23-39.67-20.83,1.12,68.38-111.55,57.99-111.01-5-36.03,4.74-65.73,30.41-87.97,57.53-2.89,3.53-10.77,16.32-13.04,17.96-5.5,3.96-24.33,1.14-25.98,12.51,1.49,2.06,12.25-2.58,14.93-2.61,1.46-.02,2.18.68,2.06,2.1-6.27,2.7-18.01,3.09-16.99,12.51,6.23,1.2,10.51-4.52,15.94-5.57,4.66-.9,4.98,2.11,1.65,3.74-4.02,1.98-9.15,2.01-12.12,6.82-1.99,3.84,4.87,3.06,6.78,2.77,5.25-.77,19.6-7.58,23.01-6.59,5.94,1.72-3.81,15.72,4.03,15.63s11.12-14,14.24-18.75c2.69-4.1,10.52-10.17,14.56-13.44,19.11-15.45,41.42-26.06,62.38-38.62,1.48-.22,1.81,0,1.52,1.53-.87,4.55-12.56,7.23-14.47,10.54-.69,1.2-5.21,16.13-5.39,17.72-.48,4.15,9.58,6.66,12.85,7.73,21.8,7.17,49.67,8.86,72.53,7.55,6.38-.37,36.99-4.33,39.95-9.05,2.23-10.97,1.83-23.26,1.55-34.53-.1-3.93-2.97-9.1.46-12.44,4.16.1,1.84,21.37,2.64,24.84,29.68,14,54.51,12.16,83.54-1.68,2.88-1.38,12.11-7.89,13.87-8.19,4.12-.71,5.12,1.79,8.17,2.8,9.1,3,22.53,6.09,30.84.25,1.93-4.19-9.56-3.09-13.06-4.05-1.69-.47-2.41.11-1.49-2.47,1.38-3.87,21.05,4.93,22.88-1.13.57-1.18-.39-3.1-1.39-3.39ZM37.24,484.65c.78.78,10.66,3.6,12.54,3.96,16.8,3.21,58.51,3.84,74.03-2.41,6.53-2.63,5.53-6.42,5.18-12.8-.17-3.03-1.44-14.47-2.13-16.86-.28-.95-1.08-1.81-2.14-1.5-18.59,6.17-41.65,7.4-61.24,5.88-8.67-.67-18.09-3.45-25.46-8.03-.81,5.69-4.21,28.32-.77,31.76ZM153.26,477.63c1.44,1.53,7.79,2.79,9.24,6.24,8.24-8.55,17.05-16.67,27.48-22.48l-13.97-4.5c3.62,14.05-13.96,15.55-24,16-.06,1.51.2,3.62,1.26,4.74ZM590,466.89c-14.52-.43-29.78-1.56-42.99-8l-4.01,25.48c.38,4.21,7.44,5.56,10.77,6.25,11.32,2.33,24.68,1.99,36.23,2.27v-26ZM131,478.89h15.5c2.31,0,3.77-3.75,1.91-5.11l-16.9-1.91-.52,7.02ZM151,480.9c-3.29.12-6.25,1.61-9.51,1.98-4.39.5-10.59-2.12-11.49,3l13.35,3.08,7.65-8.06ZM148.01,489.88c2.29.95,11.79-.85,10.99-4.48s-11.66.21-10.99,4.48ZM345.99,534.89c-41.46,11.98-88.22,11.78-127.92-5.98l-4.75,12.51c.46,4.34,32.2,13.19,37.46,14.2,22.84,4.38,54.69,4.84,77.45,0,4.86-1.03,10.17-3.49,15.12-4.64l2.65-16.08ZM303,562.89h-14.5c-3.09,4.88-4.25,10.63-7.31,15.69-3.71,6.14-11.39,14.61-17.14,18.85-1.37,1.01-2.04,1.87-4.04,1.45-.64-4.43,4.28-5.73,6.5-8.03,7.92-8.16,13.89-17.08,17.49-27.95-24.91-1.32-50.11-5.25-72.35-16.85l-36.7,49.29c7.16,9.46,19.44,16.56,30.18,21.93,32.09,16.02,65.72,19.15,101.25,15.49,21.27-2.19,42.94-8.53,61.54-18.98-5.12-20.73-14.28-40.68-25.51-58.82l-19.35,4.97c-.41,4.66,1.06,8.76,1.01,13.49-.07,6.8-1.84,22.73-4.09,28.94-1.52,4.2-4.03,4.91-3.53-.51,1.24-13.47,5.66-26.71,3.56-40.97l-13.57,1.93c-.61,10.69-3.69,21.43-7.66,31.34-1.25,3.11-9.04,20.29-12.25,19.73-2.26-.39-.8-2.25-.3-3.27,2.47-4.97,6.04-9.57,8.28-14.73,4.55-10.47,6.61-21.79,8.5-33ZM246,634.9c-19.25-3.36-36.63-11.15-53.5-20.65-5.31,3.2-10.69,7.79-16.5,10.13-7.18,2.89-14.8,2.85-22.05,5.13-2.44,9.77,6.1,32.99,16.5,34.43,7.44,1.03,28.08-3.86,36-6.11,14.71-4.18,29.93-10.52,39.56-22.93ZM321.01,698.88c15.89,1.83,31.62-.73,45.47-9.02,3.99-22.2-.12-45.92-7.49-66.98-15.84,6.98-32.57,9.8-49.46,13.02-1.18.22-1.8.45-2.5,1.48,13.19,16.92,11.29,41.19,13.99,61.49ZM126,653.89h18.5c.87,0,7.12,1.84,8.72,2.28.48.13,5.14,3.61,3.77.23-1.25-3.09-4.78-7.4-5.75-11.25-1.05-4.16-1.88-11.3-.24-15.25-5.14.38-12.54-1.02-17.25,1.24s-8.62,17.29-7.75,22.75ZM5,666.89h38.5c1.39,0,7.49-1.32,8.5-2.5v-31l-1.5-1.5H5v35ZM590,635.89h-98l98,71v-71ZM125,639.9c-1.53-1.87-2.15,1.33-2.45,1.99-5.49,11.72-5.81,40.19.29,51.67,6.28,11.81,22.6,13.9,34.16,9.32l-21.98-4.5c-15.81-6.53-14.51-39.76-11.79-53.76.24-1.25,2.44-3.9,1.77-4.72ZM590,710.89c-1.45-.11-2.8-.64-3.94-1.54-28-22.1-59.32-45.11-88.73-65.29-2.33-1.6-4.75-3.03-7.33-4.17v47.5l100,78.5v-55ZM125,669.89h19.5l22.5,6c-.46-2.41.8-8.07-.21-9.8-.53-.9-11.13-5.91-13.01-6.48-4.35-1.33-26.63-4.79-28.64-1.58l-.14,11.86ZM52.5,669.89c-15.79-.57-31.71.42-47.5,0v34c1.4.57,2.99-1,3.5-1h93.5l-47.67-33.74c-.9-.06-1.58.75-1.83.74ZM145.5,672.89h-19c-2.2,0-.34,8.17.13,9.87.41,1.5,4.11,11.75,6.41,8.54l4.95-7.41c.95,5.47-6.37,13.17,3.35,11.85,3.82-1.31,1.04-9.98,6.66-9.85l-1.99,11.99,7.41.07c2.08-14.27,7.2-12.74,4.59.94,4.85.33,8.9-17.76,7.89-18.9l-20.4-7.1ZM486.5,690.89h-44.5l148,126v-45.5c-33.82-27.67-68.52-54.35-103.5-80.5ZM362.82,724.7c1.95-9.64,7.15-19.48,14.68-25.82.86-.72,7.15-3.05,4.52-4.51-9.81-2.6-13.63-2.73-21.06,3.97s-11.26,16.4-12.69,26.09c.51,2.79,12.15,1.33,14.55.27ZM392,697.91c-1.18-.03-2.36-.96-3.51-.9-8.59.47-22.6,18.74-21.48,27.88l22-4c.88-6.65-5.54-7.15-7-11.99,5.87-.66,8.95,3.89,10.01,8.99l5.82-2.15c1.12-10.53-6.21-9.6-12.83-13.35.38-1.13,9.23-2.08,6.99-4.48ZM344.95,724.83c.56-5.09,1.56-10.2,3.57-14.93,1.79-4.22,4.89-6.95,6.48-11.01-7.48,2.3-15.58,4.98-23.49,5.09-9.86.14-13.76-5.14-11.55,11.46.96,7.19,18.79,10.1,25,9.4ZM402.67,703.21c-1.46-1.74-7.87-5.48-8.67-1.8-.27,1.23,7.84,7.04,7.01,10.48,4.84-.61,4.24-5.61,1.66-8.68ZM107,706.89H5v39l102-1v-38ZM405.99,714.9l-19.22,9.27c-20.8,3.66-47.11,8.09-66.29-2.27-1.9,2.75,1.64,4.23,3.63,5.37,14.88,8.5,52.78,3.78,68.85-1.9,1.87-.66,16.25-7.25,13.02-10.47ZM5,749.89v38l152-1.01c-14.18-14.01-31.18-25.21-46.7-37.79l-105.3.8Z"/>
    <path d="M5,492.89c15.38,1.78,31.03.85,46.54.96,19.68.14,41.16,1.84,60.82-1.1,14.27-2.13,12.15-3.55,27.31-1.03,4.04.67,8.22,1.25,12.33,1.18l-21.06,28.43c-9.28,3.19-23.35,1.78-26.92,13.09l3.98,4.98c.21.49-6.02,1.28-3.78,8.78,1.03,3.44,5.16,3.32,5.62,3.87.69.84-.64,3.59,1.61,5.9,6.35,6.54,27.98-6.97,30.56-5.05-5.47,8.74,1.49,19.81,11.06,13.55,7.21-4.72,7.97-13.36,11.93-19.07,4.99-7.18,26.59-22.18,34.68-27.32,2.76-1.75,19.96-12.2,21.32-11.17-2.6,7.8-4.88,15.89-7.98,23.51-9.43,23.12-27.99,41.67-41.89,62.21-.51,3.39,7.4,8.38,9.35,11.3.86,1.94,9.42,4.5,8.52,6.46-1.1,2.4-17.04,9.82-20.32,10.68-26.17,6.88-46.4-5.73-52.41,30.59-3.41,20.61-1.76,51.68,24.33,55.16,27.09,3.61,29.17-21.65,31-42.03,26.41-2.32,53.12-7.44,73.31-25.49,1.93-1.72,2.61-5.01,5.65-5.39,16.93,1.64,33.93,3.09,50.92,1.01,1.88.14,2.43,1.35,3.37,2.64,11.48,15.72,12.44,50.79,12.2,69.88-.13,9.94-4.65,17.41,7.99,21.93,16.23,5.82,66.54,2.6,80.3-8.65,2.38-1.94,4.57-3.88,4.54-7.33,0-.8-2.04-9.42-2.42-10.44-3.55-9.58-27.22-14.97-36.45-16.06,2.53-22.57-.42-46.39-8.92-67.4.45-1.93,9.71-4.28,9.88-8.05.13-2.76-7.31-22.03-8.94-26.06-2.71-6.69-16.29-30.47-16.82-34.18-.07-.51,2.49-7.15,2.79-9.82,1.13-10.25.94-21.16,1.02-31.48,6.21.95,11.71,4.19,17.79,5.7,20.8,5.17,41.33,2.92,60.88-5.53,3.97-1.71,17.54-10.03,19.91-10.16,2.82-.15,8.2,3.6,11.42,4.48,6.03,1.65,20.51,2.78,25.91-.08,3.46-1.84,3.48-5.47,5.12-6.88,3.61-3.09,10.7-.7,6.96-10.53,14.7-1.86,29.12-13.67,33.96-27.55,5.58-16.01.22-31.05.04-47.46l18.01,1,4.07,28.39c-5.31,1.79-8.31,8.3-9.8,13.39s-4.39,22.89-4.3,27.75c.14,8.36,14.09,10.4,20.64,11.35,9.65,1.4,19.65,1.06,29.38,1.12v135h-98.5c-2.3,0-5.5,5.42-5.5,7.5v47.5h-45.5c-2.11,0-5.06,4.32-5.44,6.56-2.2,13.16,1.65,31.4-.29,45.14,30.4,33.11,63.46,63.9,94.68,96.35l4.54.45-94.48-95.52-.51-45.98,150.99,128.5v14.5H5v-46l156-1v46l3.06-.44.19-47.3c-16.26-15.74-35.41-28.29-53.02-42.47-1.46-2.52.54-30.19-.2-36.31-.33-2.74-1.57-5.52-3.52-7.48-2.89-2.91-12.54-9.47-16.57-12.43-11.53-8.48-24.17-15.69-35.44-24.56-1.55-9.59.36-20.01-.45-29.55-.49-5.71-1.81-6.38-7.52-7.48l-42.52,1.03v-136ZM400.73,772.12c-5.61,1.16-17.25,10.26-11.75,16.3,4.5,4.94,34.84,5.99,30.57-7.58-2.19-6.97-12.17-10.09-18.83-8.71Z" fill="#fff"/>
    <path d="M590,5.89v25l-45.48,1.01-7.34,1.16c-5.19,11.31,6.19,20.5,9.57,29.58,4.16,11.18,1.08,22.28,8.82,33.18,1.23,1.73,8.43,7.96,8.42,8.56,0,.45-3.37,1.98-3,8,.3,4.8,2.67,4.03,3.33,5.72,1.4,3.55-.86,31.98-1.32,38.27-2.14,29.29-5.79,58.71-7.98,88.02-1.92,25.75-2.16,51.65-5.21,77.29-4.52,1.1-9.52,3.35-12.84,6.67-4.85,4.86-3.14,10.54-11.96,8.52,6.23-13.44,7.45-30.83-2.98-42.51-2.17-2.43-8.59-6.35-9.2-7.87-3.23-8.08,6.43-14.91,4.75-17.62-1.74-1.71-3.76-1.87-6.04-2.05-5.97-.47-17.15-.4-23.08.02-1.69.12-3.29.33-4.87.94-2.32,3.3,1.31,4.34,2.77,7.21,7.07,13.9-5.09,14.47-10.55,24.22-6.37,11.35-4.45,28.09.69,39.68.78,1.76,7.43,11.16,6.49,11.99l-26.99,1c.1-3.03,3.42-4.22,4.84-6.64,3.52-6,2.46-14.57.19-20.89-.67-1.85-3.87-5.73-3.76-6.98.12-1.4,5.58-3.48,3.61-8.87-.64-1.73-2.82-1.23-3.55-1.94-2.14-2.08-3.49-4.95-6.4-7.11-1.49-1.1-5.69-2.39-5.88-2.65-.79-1.08,3.26-6.67-1.54-10.94-4.4-3.91-11.65-1.95-13.63,3.5-.97,2.67.48,5.15-.34,6.5-.59.96-4.99,3.08-6.56,4.51-2.1,1.92-3.31,4.22-5.09,5.91-1.41,1.33-4.58.72-4.92,4.14-.39,3.83,4.03,5.81,3.87,7.77s-3.66,5.94-4.63,8.4c-4.03,10.15-.36,17.97,6.79,25.28-1.75.15-5.5-.64-6.57.94-.33.48-1.58,10.25-1.5,11.55.3,4.85,3.26,7.32,8.07,6.52.99,12.95-2.46,25.49-3.15,38.35-.86,2.79-5.64,2.2-5.94-.77l-13.47-48.54c3.42-48.83-12.51-87.48-65.26-94.73-36.56-5.03-76.7.43-104.18,26.69,3.75-22.55,4.05-46.69.85-69.36-5.4-38.3-39.16-56.62-74.54-39.81-23.07,10.96-20.98,31.27-33.09,48.87-.61.89.16,1.85-2.23,1.3l-9.99-117.47c.7-3.65,4.99-4,3.96-10.96-.26-1.75-2.05-3.72-1.82-4.93.26-1.38,5.89-5.73,7.28-7.71,6.2-8.84,4.95-19.97,8.5-29.5,2.59-6.94,21.66-29.42,8.54-34.41-33.89-3.08-68.61-3.22-102.48-.02V5.89h558ZM288.5,119.89l-1.5,1.5v120l2.01,1.98,240,.03c1.81-1.63,1.84-3.75,2.04-5.96,2.65-30.19.49-72.28-.85-103.04-.18-4.18,2.1-10.44-1.7-14.5h-240Z" fill="#fff"/>
    <path d="M104,114.89c2.38,19.75,3.27,39.67,5.01,59.49,3.7,42.18,9.43,86.78,11.03,128.97.09,2.4.38,6.78-.24,8.84-.55,1.84-7.13,8.66-7.65,10.43-.75,2.55.56,16.45,1.6,19.02,1.82,4.47,8.3,4.85,9.13,11.85,2.4,20.22.83,59.16-4.16,78.62-2.27,8.86-6.32,8.29-14.37,9.63-15.15,2.53-30.46,2.69-45.6-.11-8.66-1.6-10.81-2.49-12.63-11.37-8.03-39.29-.95-95.45,1.86-135.89,3.87-55.6,7.06-112.79,13.99-168.01.48-3.79-1.34-8.7,1.52-11.48h40.5Z" fill="#fff"/>
    <path d="M30,5.89c-.71,6.7.94,15.1.05,21.55-.31,2.23-1.69,3.35-2,5-1.8,9.73,9.52,20.14,12.73,29.17,4.51,12.68,1.88,30.3,16.16,37.37-1.02,3.66-2.73,6.27-1.92,10.38.53,2.68,2.77,3.03,3.47,4.54,2.42,5.23-1.88,25.67-2.47,32.5-4.2,48.64-7.27,97.3-11.03,145.97-3.43,44.48-9.35,91.39-2.87,135.89.34,2.34,2.82,7.75,2.58,9.18-.1.63-4.46,3.41-5.7,4.94-5.35,6.62-6.02,19.1-6.39,27.37-.29,6.3-1.41,16.83,5.5,19.52l6.89,2.6-39.99-.99V5.89h25Z" fill="#fff"/>
    <path d="M493.5,489.89c1,.29,1.96,2.21,1.39,3.39-1.83,6.06-21.5-2.75-22.88,1.13-.92,2.58-.21,2,1.49,2.47,3.5.96,14.99-.14,13.06,4.05-8.31,5.84-21.74,2.76-30.84-.25-3.05-1.01-4.05-3.51-8.17-2.8-1.76.3-10.99,6.82-13.87,8.19-29.03,13.85-53.86,15.69-83.54,1.68-.79-3.47,1.52-24.74-2.64-24.84-3.43,3.34-.56,8.5-.46,12.44.28,11.27.68,23.56-1.55,34.53-2.96,4.72-33.57,8.69-39.95,9.05-22.87,1.31-50.74-.38-72.53-7.55-3.27-1.08-13.33-3.58-12.85-7.73.18-1.58,4.7-16.52,5.39-17.72,1.91-3.31,13.6-5.99,14.47-10.54.29-1.52-.05-1.74-1.52-1.53-20.97,12.57-43.27,23.17-62.38,38.62-4.04,3.27-11.87,9.34-14.56,13.44-3.12,4.75-6.46,18.67-14.24,18.75s1.91-13.91-4.03-15.63c-3.42-.99-17.77,5.82-23.01,6.59-1.92.28-8.78,1.07-6.78-2.77,2.97-4.81,8.09-4.84,12.12-6.82,3.33-1.63,3-4.63-1.65-3.74-5.43,1.04-9.72,6.77-15.94,5.57-1.02-9.43,10.72-9.81,16.99-12.51.11-1.42-.6-2.12-2.06-2.1-2.67.04-13.44,4.67-14.93,2.61,1.65-11.37,20.48-8.55,25.98-12.51,2.27-1.64,10.15-14.43,13.04-17.96,22.23-27.12,51.93-52.79,87.97-57.53-.54,62.99,112.13,73.38,111.01,5,15.01,2.6,27.01,13.45,39.67,20.83,7.62,4.45,9.49,5.77,18.57,3.92,13.14-2.67,27.63-9.76,40.15-14.67,5.65,8.73,11.03,16.53,20.54,21.48,1.55.81,12.83,5.44,13.56,5.44,3.45,0,12.54-.7,15,0Z" fill="#fff"/>
    <path d="M377.99,340.89c3.33,14.14,3.82,30.01,3.05,44.54-1.8,33.87-13.38,59.68-49.66,65.34-33.21,5.18-73.47-4.06-89.96-35.86-15.7,7.67-30.15-6.78-29.46-22.54.75-17.27,18.81-25.16,29.66-10.53l2.4-.4c7.03-7.99,10.14-16.55,11.01-27.1.16-1.89-1.85-7.28.46-7.42.37-.02,4.37,3.05,6.43,3.54,9.21,2.18,19.53-2.78,24.55-10.44,6.48,4.54,13.44,6.42,21.35,4.2,3.12-.87,6.9-5.24,8.64-5.31,2.42-.09,6.84,3.82,9.34,4.67,8.96,3.08,16.74.57,23.68-5.45,8.92,7.14,18.45,9.99,28.5,2.75ZM346,351.87c3.23,1.32,6.77.66,10.05,1.46,2.85.7,14,7.05,14.95,3.03,1.25-5.29-25.3-15.42-25-4.49ZM286.74,349.13c-4.04.69-17.6,7.73-14.25,12.78,2.44,2.61,4.59-2.21,6.56-3.47,5.29-3.38,16.94-3.05,18.96-5.04,5.59-5.49-8.34-4.77-11.27-4.27ZM350.3,383.6c6.63,8.19,17.44-4.45,11.74-14.26-6.35-10.91-18.36,6.07-11.74,14.26ZM321.01,400.86c1.42,1.75,10.39.17,12.71-.75,10.06-3.98,8.13-12.8,4.47-20.9-.9-1.98-7.3-12.26-8.68-12.3-1.06-.02-1.46,1.74-1.09,3.05,1.68,5.87,11.78,13.9,9.4,22.21-3.47,5.81-10.69,6.06-16.81,5.73.13.82-.22,2.67.02,2.96ZM288.71,368.1c-6.35,1.91-6.64,15.82.34,18.23,13.94,4.81,13.29-22.32-.34-18.23ZM226.01,390.87c5.4-.04,7.88,10.44,9.96,11.55,6.17,3.31-.23-9.1-3.45-11.55-1.68-1.28-7.09-4.15-6.51,0ZM298.71,407.05c-5.4,1.61-3.3,10.42-1.58,14.22,7.3,16.11,31.36,17.55,40.31,2.57,1.73-2.9,5.81-10.45.84-11.79-9.63,2.08-17.04,2.99-26.55-.37-3.88-1.37-9.03-5.81-13.02-4.62Z" fill="#fff"/>
    <path d="M303,562.89c-1.89,11.21-3.95,22.53-8.5,33-2.24,5.16-5.81,9.75-8.28,14.73-.51,1.02-1.96,2.88.3,3.27,3.21.56,11-16.62,12.25-19.73,3.98-9.91,7.05-20.65,7.66-31.34l13.57-1.93c2.1,14.25-2.32,27.49-3.56,40.97-.5,5.42,2.01,4.71,3.53.51,2.25-6.21,4.02-22.14,4.09-28.94.05-4.73-1.42-8.83-1.01-13.49l19.35-4.97c11.24,18.13,20.39,38.09,25.51,58.82-18.6,10.44-40.27,16.79-61.54,18.98-35.53,3.66-69.16.52-101.25-15.49-10.74-5.36-23.02-12.47-30.18-21.93l36.7-49.29c22.25,11.6,47.44,15.53,72.35,16.85-3.6,10.87-9.57,19.79-17.49,27.95-2.23,2.3-7.14,3.6-6.5,8.03,2.01.43,2.67-.44,4.04-1.45,5.75-4.25,13.44-12.72,17.14-18.85,3.06-5.06,4.22-10.81,7.31-15.69h14.5Z" fill="#fff"/>
    <path d="M590,119.89v329c-10.61-.44-21.8-.19-31.76-4.25-1.22-6.76-3.27-13.55-4.11-20.38-2.49-20.14-2.51-42.59-2.13-62.94,1.27-68.46,9.13-136.81,14.99-204.94,1.05-12.24-.05-25.27,2.94-37.05l20.07.56Z" fill="#fff"/>
    <path d="M486.5,690.89c34.98,26.15,69.68,52.83,103.5,80.5v45.5l-148-126h44.5Z" fill="#fff"/>
    <path d="M459.37,476.51c-12.86-10.78-17.49-30.16-10.87-45.62,14.24-33.27,66.57-32.43,79.53,1.47,15.89,41.58-37.4,70.35-68.66,44.14Z" fill="#fff"/>
    <path d="M590,710.89v55l-100-78.5v-47.5c2.58,1.14,5,2.57,7.33,4.17,29.41,20.18,60.72,43.19,88.73,65.29,1.14.9,2.49,1.43,3.94,1.54Z" fill="#fff"/>
    <path d="M5,749.89l105.3-.8c15.52,12.58,32.52,23.78,46.7,37.79l-152,1.01v-38Z" fill="#fff"/>
    <path d="M165.75,364.13l3.21,38.17c-1.67,8.39-17.35,27.1-17.04,34.07.3,6.6,5.87,10.21,10.77,13.32,5.51,3.5,13.09,3.84,10.11,13.5-2.23,7.24-34.93,8.09-41.34,4.72-2.3-8.73-1.5-17.78-6.07-25.93-1.13-2.02-4.17-3.14-4.41-5.6-.42-4.4,3.27-15.75,3.88-21.11,2.35-20.72,1.85-41.65,1.12-62.38,7.48,1.12,12.84,6.68,19.97,8.52,6.61,1.71,13.34.78,19.78,2.71Z" fill="#fff"/>
    <polygon points="107 706.89 107 744.89 5 745.89 5 706.89 107 706.89" fill="#fff"/>
    <path d="M144.34,297.54c13.88,11.84,38.35,6.84,42.66-11.65,17.14,3.72,15.63,35.09,12.51,48.02-6.93,28.78-33.09,28.64-57.52,22.97.64-3.42,3.6-5.33,4.73-8.76,1.45-4.41,1.31-9.64,1.27-14.23,10.29,1.02,23.28,7.89,30.83-2.66,2.42-3.38,9.89-20.28,7.16-23.33-1.18-.2-1.81-.01-2.47,1.02-1.01,1.58-2.88,10.77-4.65,14.35-2.31,4.7-5.59,10.59-11.26,10.51-2.08-.03-20.67-3.29-21.83-3.91-1.59-.84-3.29-5.65-4.78-7.48-4.52-5.56-10.21-8.09-17.01-9.99l-.77-14.8,10.28-15.69c3.64,4.98,6,11.49,10.84,15.63Z" fill="#fff"/>
    <polygon points="590 635.89 590 706.89 492 635.89 590 635.89" fill="#fff"/>
    <path d="M148,218.88c9.36,3.01,20.81,1.6,28.73-4.65,2.21-1.74,2.79-4.86,5.77-5.37,5.55,4.03,10.11,8.83,16.81,11.22,5.56,1.98,9.93,1.27,15.26,2.78-1.21,12.92-1.79,30.28-8.39,41.72-13.84,24-58.13,15.15-65.09-11.18l6.9-34.52ZM168.99,221.9c-2.45-.66-12.54.55-11.99,4.48l10.31-.67,1.68-3.81ZM205.78,227.08c-1.03-1.61-12.24-5.79-13.78-4.19-1.34,3.95,4.91,3.9,8.55,4.95.97.28,8.52,4.37,5.23-.76ZM161.15,241.73c5.72,3.34,8.76-2.4,5.92-7.41-6.46-2.16-6.76,2.2-5.92,7.41ZM197.68,235c-3.57.92-4.55,10.54.81,9.95,5.11-.56,4.11-11.21-.81-9.95ZM177,253.87c14.25,3.76,15.2-6.12,8.49-15.98-4.2,4.9,5.13,11.39-3.22,13.77-2.28.65-6.06-1.11-5.27,2.21ZM189,261.9c-3.37-.94-6.67,1.78-9.47,1.84-2.37.05-12.59-5.48-12.5-2.35.14,4.99,21.08,9.3,21.97.51Z" fill="#fff"/>
    <path d="M321.01,698.88c-2.7-20.31-.8-44.57-13.99-61.49.7-1.03,1.33-1.26,2.5-1.48,16.9-3.22,33.62-6.04,49.46-13.02,7.37,21.06,11.48,44.78,7.49,66.98-13.85,8.29-29.58,10.84-45.47,9.02Z" fill="#fff"/>
    <path d="M246,634.9c-9.63,12.41-24.84,18.75-39.56,22.93-7.92,2.25-28.55,7.14-36,6.11-10.4-1.44-18.94-24.66-16.5-34.43,7.25-2.28,14.87-2.23,22.05-5.13,5.81-2.34,11.19-6.93,16.5-10.13,16.87,9.5,34.26,17.29,53.5,20.65Z" fill="#fff"/>
    <path d="M37.24,484.65c-3.44-3.45-.04-26.07.77-31.76,7.37,4.59,16.79,7.36,25.46,8.03,19.59,1.52,42.65.29,61.24-5.88,1.07-.31,1.87.56,2.14,1.5.7,2.39,1.97,13.83,2.13,16.86.35,6.37,1.36,10.17-5.18,12.8-15.52,6.25-57.23,5.62-74.03,2.41-1.88-.36-11.76-3.18-12.54-3.96Z" fill="#fff"/>
    <path d="M528.99,424.89c-5-6.09-8.96-11.37-15.82-15.67-.51-4.31.34-23.14-3.16-24.84l-68.44-.4-3.32,1.15-7.41,56.08c-.93,2.81-8.31,1.75-10.88,1.21-1.97-1.27.26-4.47-.11-6.8-.4-2.55-2.87-4.07-2.93-8.24-.12-8.92,3.83-24.53,4.96-34.14.84-7.12.98-14.3,1.56-21.44l100.63-.5,4.93,53.56Z" fill="#fff"/>
    <path d="M52.5,669.89c.25,0,.93-.8,1.83-.74l47.67,33.74H8.5c-.51,0-2.1,1.57-3.5,1v-34c15.79.42,31.71-.57,47.5,0Z" fill="#fff"/>
    <path d="M389.77,318.12c2,1.95.9,10.61,2.23,13.76-7.2-1.46-13.81-4.84-20.99-6.5-32.17-7.4-78.47-2.73-110.44,5.56-3.69.96-24.47,8.71-25.56,7.93,2.5-7.93-.98-10.34,7.02-14.47,34.49-17.78,94.9-22.52,131.99-12.03,2.18.62,14.99,5,15.75,5.75Z" fill="#fff"/>
    <path d="M345.99,534.89l-2.65,16.08c-4.95,1.15-10.26,3.61-15.12,4.64-22.76,4.84-54.61,4.38-77.45,0-5.26-1.01-36.99-9.86-37.46-14.2l4.75-12.51c39.71,17.76,86.46,17.96,127.92,5.98Z" fill="#fff"/>
    <path d="M135,30.89c2.62,16.03-11.34,15.65-21.49,22.02-2.09-10.85-13.6-7.9-19.01-1.03-6.81-10.41-15.27-10.66-22,0-3.23-4.57-11.8-8.3-16.84-5.07-1.58,1.02-1.31,5.24-4,4.98-8.71-5.58-23.52-6.06-18.72-20.46,3.17-.37,6.34-1.25,9.52-1.48,22.64-1.65,55.17-1.12,78.08,0,4.65.23,9.51,1.86,14.46,1.04Z" fill="#fff"/>
    <path d="M508,386.88l1.99,20c-30.02-11.94-63.46,2.71-68.94,35.56l-7.05.44,6.99-55,67.01-1Z" fill="#fff"/>
    <path d="M5,666.89v-35h45.5l1.5,1.5v31c-1.01,1.18-7.11,2.5-8.5,2.5H5Z" fill="#fff"/>
    <path d="M251.01,446.88c-1.44,22.97,23.97,38.24,44.51,38.09,11.09-.08,28.39-5.64,34.34-15.73,1.8-3.05,4.46-15.37,5.12-15.88.8-.62,6.09-1.78,7.07-1.06,3.61,13.81-6.28,31.11-18.7,37.43-32.79,16.69-86.47-.41-84.35-42.85h12.01Z" fill="#fff"/>
    <path d="M380,330.9c-3.23,13.67-22.09,12.8-29.49,2.25-10.52,10.33-24.59,10.38-35.01-.24-4.71,7.01-10.36,9.05-18.76,7.74-4.43-.69-7.1-3.55-11.06-4.67-2.94,2.33-3.97,5.62-7.35,7.75-6.52,4.12-20,4.97-24.38-2.28-2.72-4.52-.48-4.67,3.26-5.83,24.55-7.58,65.78-12.72,91.27-10.71,10.12.8,21.4,4.43,31.52,5.99Z" fill="#fff"/>
    <path d="M533,367.89h-116.5c-2.93-2.91-.98-8.14-1.51-12.01l118.06.47-.06,11.53Z" fill="#fff"/>
    <path d="M423.46,317.35c8.56,1.82,18.73-.6,27.1.49s11.18,19.1,6.91,26.01c-5.67,9.18-17.2,9-26.95,8.03-19.18-1.92-21.2-25.17-7.06-34.53Z" fill="#fff"/>
    <path d="M590,466.89v26c-11.55-.28-24.9.05-36.23-2.27-3.33-.68-10.39-2.03-10.77-6.25l4.01-25.48c13.21,6.44,28.47,7.56,42.99,8Z" fill="#fff"/>
    <path d="M440.9,445.99l2.74,12.43c-.37,2.51-14.08,7.38-17.13,8.48-8.69,3.14-25.86,9.12-34.56,6.53-5.53-1.65-14.14-11.22-20.95-12.56l.5-1.99c12.4.34,24.48-3.4,35.71-8.28,2.55-1.11,4.99-3.94,7.5-4.5,7.22-1.62,18.49.66,26.19-.11Z" fill="#fff"/>
    <path d="M204.01,311.88c2.43-5.02-4.29-17.83-4.06-20.41.07-.81,2.28-1,3.08-2.02,9.33-11.91,13.8-53.16,14.97-69.08.11-1.49-.78-2.89,1.49-2.48,1.2,1.47,3.74,2.9,4.3,4.71,1.34,4.29,1.99,17.63,2.2,22.8.48,11.61-.05,44.8-5.98,54-1.49,2.31-13.88,14.72-16,12.49Z" fill="#fff"/>
    <path d="M144.99,212.89c-4.58,22.14-6.09,49.24-15.84,69.65-.51,1.06-5.49,11.24-7.15,9.34l-3.82-51.26c1.95-4.21,5.1-7.67,7.36-11.69,1.47-2.62,3.01-9.04,4.73-10.77.86-.86,14.19-5.85,14.72-5.27Z" fill="#fff"/>
    <path d="M92.86,97.75l-19.18.18c-8-8.9-3.36-50.29,9.91-51.05,2.99-.17,7.49,6.45,8.81,9.11,6.27,12.6,5.78,28.99.46,41.76Z" fill="#fff"/>
    <path d="M268.12,310.78c-4.94-11.65-15.08-19.83-26.12-25.38,1.68-3.84,26.97-14.72,31.37-14.23,6.26.7,19.53,27.72,18.68,33.2-.2,1.31-.38,1.9-1.73,2.36-5.57,1.87-15.99,2.17-22.2,4.06Z" fill="#fff"/>
    <path d="M221.01,416.91l-5.62,21.04c-17.98-.72-37.41-5.45-51.14-17.54l8.35-14.45c15.51,7.64,31.93,7.76,48.41,10.94Z" fill="#fff"/>
    <path d="M411.98,425.89c4.58,10.32,6.63,13.87-4.05,20.44-8.6,5.29-30.49,10.94-40.44,10.66-6.09-.18-11.15-6.11-17.49-6.1-.39-1.79.53-1.97,1.66-2.83,12.86-9.77,28.43-8.64,43.14-13.86,5.95-2.12,11.36-5.91,17.19-8.29Z" fill="#fff"/>
    <path d="M321.23,455.12c1.42-1.04,10.25-2.54,9.8,1.27-5.32,32.71-61.46,29.88-73.79,4.75-3.56-7.26-6.83-18.87,5.81-14.81,3.4,22.97,42,32.12,55.37,14.5,1.12-1.47,2.21-5.27,2.8-5.71Z" fill="#fff"/>
    <path d="M214.01,441.89c.78,10.07-4.05,8.79-10.69,11.82-3.59,1.64-4.94,4.25-9.76,4.22-7.36-.06-34.49-11-37-18.08-2.83-7.99,3.29-8.7,4.45-14.96.49,0,1-.08,1.5-.03.87.09,12.43,7.54,15.25,8.76,11.33,4.87,23.95,7.45,36.24,8.27Z" fill="#fff"/>
    <path d="M320,303.89l-23.05,1.59c-3.74-12.8-8.89-25.6-17.96-35.58l27-2.58c8.04,10.73,13.54,22.97,14.01,36.57Z" fill="#fff"/>
    <path d="M40.13,450.77c-.75-3.19,2.13-9.37,5.53-9.66,19.21,7.44,44.43,7.42,64.59,3.53,3.09-.59,6.08-3.21,9.19-2.78s7.92,7.58,3.27,10.26c-11.62,6.68-52.65,7.11-66.1,4.67-5.89-1.07-11.04-3.81-16.49-6.01Z" fill="#fff"/>
    <path d="M252.66,296.23c2.76,2.26,8.36,8.25,10.16,11.34.74,1.27,1.25,2.66,2.16,3.83-2.91,1.35-20.93,9.25-22.47,9.15-.7-.05-2.71-1.93-4.23-2.44-8.43-2.86-15.46-3.47-24.28-4.22-1.62-1.3,19.31-24.14,22.29-25.26,3.43-1.29,13.38,5.17,16.38,7.61Z" fill="#fff"/>
    <path d="M590,33.89v15c-4.6.94-8.06,4.21-10.5,7.98-5.48-6.22-16.36-11.63-18.51.02l-1.49.02c-9.45-5.27-18.61-5.85-20.48-18.59.06-2.75,6.1-3.19,8.5-3.41,14.01-1.29,28.54,1.53,42.48-1.02Z" fill="#fff"/>
    <path d="M345,303.89h-21c-.86-12.91-5.31-25.15-12.99-35.52-.62-2.1,1.18-1.48,2.51-1.52,3.45-.1,16.88,1.15,19.9,2.12,8.19,2.61,12.12,27.02,11.58,34.92Z" fill="#fff"/>
    <path d="M523.99,329.9c.93.84-9.37,20.33-12.5,21.55l-23.5-1.05-11-19.98c.23-1.2,6.94-1.45,8.52-1.47,12.63-.12,25.69,1.91,38.48.95Z" fill="#fff"/>
    <path d="M209.01,388.9c-2.68,8.01,1.48,15.95,4.99,22.98-5.52.2-39.37-5.83-39.74-10.48l9.34-17.36,25.41,4.86Z" fill="#fff"/>
    <path d="M145.5,672.89l20.4,7.1c1.01,1.14-3.04,19.23-7.89,18.9,2.61-13.69-2.51-15.21-4.59-.94l-7.41-.07,1.99-11.99c-5.62-.13-2.84,8.54-6.66,9.85-9.71,1.31-2.4-6.38-3.35-11.85l-4.95,7.41c-2.3,3.21-6-7.04-6.41-8.54-.47-1.7-2.33-9.87-.13-9.87h19Z" fill="#fff"/>
    <path d="M513,270.89c-3.11,5.86-7.05,11.1-3,17.51,2.76,4.37,9.69,6.55,11,11.49h-41c7.67-10.27,19.08-15.09,8-29h25Z" fill="#fff"/>
    <path d="M227,362.89c1.12,10.36-4.79,7.82-10.49,12.01-3.78,2.77-5.23,6.62-7.45,10.52-8.1-.73-16.47-1.22-23.97-4.63l7.03-18.77,34.89.88Z" fill="#fff"/>
    <path d="M231,338.89l-3.06,20.95c-11.14,1-21.92-1.04-32.95-1.95l6.06-19.92,29.94.93Z" fill="#fff"/>
    <path d="M368,436.88c5.21-6.9,10.61-14.07,12.13-22.86,4.63-.39,9.22-1.51,13.65-2.85,3.17-.96,10.31-5.9,12.73-3.32,1.64,1.74,3.89,13.04,2.03,15.04-7.6,8.16-29.87,11.56-40.55,13.98Z" fill="#fff"/>
    <path d="M69,97.88c-22.58,2.41-20.21-23.42-24.96-37.53-1.39-4.12-4.49-7.23-5.03-11.46,22.45,7.52,25.45,28.8,29.99,48.99Z" fill="#fff"/>
    <path d="M128.99,49.9c-1.91,4.14-4.74,7.85-6.29,12.2-4.96,13.89-2.97,36.71-24.71,35.8,2.77-19.88,8.9-42.84,31-47.99Z" fill="#fff"/>
    <path d="M369,307.89l-20.01-3c.35-11.73-2.75-23.16-8-33.5,5.6.01,22.96,7.39,25.25,11.75.31.59,2.76,7.81,2.76,8.24v16.5Z" fill="#fff"/>
    <path d="M115.01,332.87l.46-3.01c3.07-3.73,13.97,5.6,15.53,4.03,1.6-6.59-14.57-6.65-15.04-8.62l.04-3.37c4.58-3.15,16.52,6,17.51,5.97.65-.02,1.93-1.54,1.01-2.99-1.23-1.95-11.67-6.26-14.52-5.99-.83-2.32,2.05-2.61,3.66-2.62,13.67-.02,25.88,21.98,18.24,34.01-4.94,7.78-26.56-8.47-25.89-11.88.38-1.94,1.84-.93,2.73-.78,2.9.5,5.98,2.5,8.79,3.25,1.68.45,1.9,1.75,3.45-.49-4.19-4.28-10.41-5.93-15.97-7.52Z" fill="#fff"/>
    <path d="M574,102.89c-6.68.91-12.94-4.95-16.2-10.31-7.09-11.66-3.56-26.02-10.81-37.68,20.68,6.61,25.44,28.7,27,47.99Z" fill="#fff"/>
    <path d="M235.25,344.13c.96-1.03,10.81-5,12.48-5.07,1.29-.29,1.65.52,2.07,1.53,4.46,10.98,1.23,27.28-6.43,36.23l-13.27-6.58c-.46-1.32,4.13-25.03,5.16-26.12Z" fill="#fff"/>
    <path d="M126,653.89c-.87-5.45,2.88-20.41,7.75-22.75s12.11-.86,17.25-1.24c-1.64,3.95-.81,11.09.24,15.25.97,3.85,4.5,8.16,5.75,11.25,1.36,3.38-3.29-.1-3.77-.23-1.6-.44-7.84-2.28-8.72-2.28h-18.5Z" fill="#fff"/>
    <path d="M590,52.89v50h-11.99c-1.97-12.52-3.23-25.81,1.49-38,1.53-3.95,5.8-11.65,10.5-12Z" fill="#fff"/>
    <path d="M344.95,724.83c-6.21.7-24.04-2.2-25-9.4-2.21-16.59,1.69-11.32,11.55-11.46,7.91-.11,16.01-2.8,23.49-5.09-1.58,4.07-4.69,6.79-6.48,11.01-2,4.73-3,9.84-3.57,14.93Z" fill="#fff"/>
    <path d="M316.99,454.89c1.62,1.57-3.77,6.57-5.06,7.43-14.17,9.49-42.3,2.47-44.93-16.43,16.34,5.92,32.49,8.97,49.99,9Z" fill="#fff"/>
    <path d="M125,669.89l.14-11.86c2.01-3.21,24.29.25,28.64,1.58,1.88.57,12.48,5.58,13.01,6.48,1,1.73-.25,7.39.21,9.8l-22.5-6h-19.5Z" fill="#fff"/>
    <path d="M362.82,724.7c-2.4,1.06-14.05,2.52-14.55-.27,1.43-9.7,5.32-19.44,12.69-26.09s11.25-6.57,21.06-3.97c2.63,1.47-3.66,3.79-4.52,4.51-7.53,6.34-12.73,16.18-14.68,25.82Z" fill="#fff"/>
    <path d="M60.5,110.89c-4.01-1.14-3.02-8.57,2.21-9.79,5.4-1.25,32.4-.93,38.85-.28,4.82.48,7.43,2.18,7.27,7.37-.17.71-2.02,2.7-2.33,2.7h-46Z" fill="#fff"/>
    <path d="M221.99,215.89c-17.22-12.48-39.52-14.83-60.22-11.73l-29.77,8.23c1.61-1.19,2.17-5.39,3.25-6.25.6-.49,12.86-4.3,14.73-4.77,18.72-4.78,43.67-5.72,61.38,2.66,5.17,2.45,11.36,4.94,10.63,11.86Z" fill="#fff"/>
    <path d="M523.86,303.02l2.12,14.87-9.45-9-5.56,8.99c-1.6,1.1-6.43-8.43-10.51-9.05l-7.98,9.03-7.03-8.98-9.46,8c-1.26-2.17-.24-12.59,1.66-13.04l46.2-.83Z" fill="#fff"/>
    <path d="M205.5,334.89c-4.02-1.19,5.16-16.7,6.49-17.51,4.16-2.56,20.99,1.68,26.01,3.52.11,2.89-2.93,2.81-4.24,5.25-1.18,2.21-1.58,6.17-1.76,8.74-6.75-1.26-20.74,1.7-26.5,0Z" fill="#fff"/>
    <path d="M392,697.91c2.23,2.4-6.61,3.35-6.99,4.48,6.62,3.75,13.95,2.82,12.83,13.35l-5.82,2.15c-1.06-5.1-4.14-9.66-10.01-8.99,1.46,4.84,7.88,5.34,7,11.99l-22,4c-1.12-9.14,12.9-27.41,21.48-27.88,1.15-.06,2.33.86,3.51.9Z" fill="#fff"/>
    <path d="M502.87,313.03c1.68.97,4.51,9.58,8.56,8.93.59-.09,5.42-9.85,6.56-9.07.25,3.31,10.45,10.52,6.06,13.55l-47.79-.82-1.27-3.71c3.89,1.43,7.84-9,9.51-9l8,9.05c2.96.01,6.23-11.31,10.37-8.93Z" fill="#fff"/>
    <path d="M590,451.89v11h-18.5c-1.18,0-7.68-1.25-9.36-1.64-2.96-.69-13.32-4.03-12.99-7.69,5.06-9.87,6.08-5.47,12.63-3.96,2.46.57,9.83,2.28,11.72,2.28h16.5Z" fill="#fff"/>
    <path d="M180.16,283.05c.74-.47,4.87-.5,5.83.33-11.17,26.36-44,20.31-49.99-6.48,12.15-2.46,9.2,4.88,15.46,11.03,8.53,8.38,19.27,7.91,27.01-1.1.89-1.03,1.29-3.53,1.69-3.79Z" fill="#fff"/>
    <path d="M381.01,410.88l3.42-21.07,15.6-4.49,4.46,16.59c-1.36,3.69-19.19,7.42-23.49,8.96Z" fill="#fff"/>
    <path d="M256.57,438.32l4.42,4.57c-15.2-.24-30.5,1.47-44.99,6l5.68-15.04c3.02-.39,5.83,1.01,8.78,1.09,8.42.23,19.96-2.41,26.12,3.39Z" fill="#fff"/>
    <path d="M191.99,354.9c-6.32,13.17-10.79,28.67-19.98,39.99l-2.01-32c8.45.91,14.81-4.83,22-7.99Z" fill="#fff"/>
    <path d="M125,639.9c.67.82-1.53,3.47-1.77,4.72-2.71,13.99-4.02,47.23,11.79,53.76l21.98,4.5c-11.56,4.58-27.88,2.49-34.16-9.32-6.1-11.48-5.79-39.96-.29-51.67.31-.66.92-3.86,2.45-1.99Z" fill="#fff"/>
    <path d="M385.01,367.89c-.77-.62-.86-15.07-1.12-17.39-.66-5.88-5.18-11.3-.28-16.69,16.88,1.88,12.52,27.25,1.39,34.08Z" fill="#fff"/>
    <path d="M405.99,714.9c3.23,3.22-11.15,9.81-13.02,10.47-16.08,5.68-53.97,10.4-68.85,1.9-1.99-1.14-5.54-2.62-3.63-5.37,19.18,10.37,45.49,5.93,66.29,2.27l19.22-9.27Z" fill="#fff"/>
    <path d="M153.26,477.63c-1.06-1.12-1.32-3.23-1.26-4.74,10.04-.45,27.62-1.95,24-16l13.97,4.5c-10.43,5.81-19.24,13.93-27.48,22.48-1.45-3.45-7.8-4.71-9.24-6.24Z" fill="#fff"/>
    <path d="M590,104.89v11h-22.5c-4.37,0-3.58-11,2-11h20.5Z" fill="#fff"/>
    <path d="M177,282.9c-2.91,7.86-13.78,8.67-20.35,4.84-3.82-2.23-11.47-11.68-4.29-13.76,6.9,5.29,15.92,8.33,24.64,8.92Z" fill="#fff"/>
    <path d="M248,430.88l-26.01-.99,2.02-10.99c4.05,4.06,13.3.11,15.98,1.45,1.87.94,5.86,8.65,8.01,10.54Z" fill="#fff"/>
    <polygon points="385.03 385.88 385.18 372.58 393.49 364.9 398.92 381.26 385.03 385.88" fill="#fff"/>
    <path d="M373,290.39c-.05-.66-2.15-2.67-.5-3.49,7.13,7.09,12.49,15.89,15.52,25.48.02,2.09-13.51-3.66-15.02-3.49-.32-6.11.43-12.39,0-18.5Z" fill="#fff"/>
    <path d="M173.01,193.88l-20,3c3.24-14.81,18.28-24.42,20-3Z" fill="#fff"/>
    <path d="M456.5,309.89c2.9,2.62-.24,4.5-3.06,4.9-4.16.6-30.68.81-33.73-.11-1.2-.36-1.92-1.44-2.71-2.3-.38-.85,1.19-2.49,1.5-2.49h38Z" fill="#fff"/>
    <path d="M179,206.9c-4.79,6.5-14.36,10.27-22.33,9.91-3.36-.15-7.47-.92-8.64-4.43.12-2.18,27.47-6.92,30.97-5.48Z" fill="#fff"/>
    <path d="M452,306.89h-30c5.75-8.91,16.96-10.99,25.91-5.41,1.58.98,4.2,3.28,4.09,5.41Z" fill="#fff"/>
    <path d="M206,197.88l-17-2.99,3-12.58c9.34.12,12.84,7.27,14,15.57Z" fill="#fff"/>
    <polygon points="187.98 180.91 185.9 193.79 176 193.89 173 179.89 187.98 180.91" fill="#fff"/>
    <path d="M65.01,70.89c.51-6.98-11.05-13.62-8.11-19.59s12.15.38,12.97,3.29c.41,1.47-2.26,11.54-2.97,13.69-.37,1.1-.3,2.42-1.89,2.6Z" fill="#fff"/>
    <path d="M101.99,68.89c-2.71.36-1.54-.22-2.01-1.46-1.35-3.64-1.95-8.35-3.64-12.06,3.14-3.48,9.28-10.01,12.88-4.2,4.15,6.71-6.89,10.82-7.23,17.72Z" fill="#fff"/>
    <path d="M572.99,74.88l-8.79-13.72,1.47-7.32c4.18-1.01,8.96,2.36,11.2,5.77l-3.88,15.27Z" fill="#fff"/>
    <path d="M214.99,218.88c-6.49-.79-12.67-1.01-18.69-3.8-1.34-.62-11.09-6.54-9.3-8.19,7.29,1.74,15.89,2.59,22.68,5.81,2.77,1.31,5.88,2.49,5.31,6.18Z" fill="#fff"/>
    <path d="M188,280.9c7.73-.14,11.37-5.67,16.51-9,1.34-.87,2.39-.99,2.46.48-2.63,5.65-3.37,12.31-8.58,16.47l-10.39-7.95Z" fill="#fff"/>
    <path d="M131,478.89l.52-7.02,16.9,1.91c1.86,1.36.4,5.11-1.91,5.11h-15.5Z" fill="#fff"/>
    <path d="M138,200.88c4.34-6.68,10.09-12.06,16.99-15.99.47.57-5.4,13.06-6,13.49-1.62,1.18-8.55,1.87-10.99,2.5Z" fill="#fff"/>
    <path d="M151,480.9l-7.65,8.06-13.35-3.08c.9-5.11,7.1-2.5,11.49-3,3.26-.37,6.22-1.86,9.51-1.98Z" fill="#fff"/>
    <path d="M402.67,703.21c2.58,3.07,3.19,8.07-1.66,8.68.84-3.45-7.28-9.25-7.01-10.48.8-3.68,7.2.06,8.67,1.8Z" fill="#fff"/>
    <path d="M218,202.88c-7.67-1.64-10.48-5.24-10.99-12.99,2.18.42,11.64,12.43,10.99,12.99Z" fill="#fff"/>
    <path d="M442.01,293.88h-9.01c-.97-8.25,9.99-8.24,9.01,0Z" fill="#fff"/>
    <path d="M148.01,489.88c-.67-4.27,10.17-8.2,10.99-4.48s-8.7,5.43-10.99,4.48Z" fill="#fff"/>
    <path d="M209,314.9c-1.77,1.79-1.77,7.41-4.99,6.98-.5-3.85.46-7.4,4.99-6.98Z" fill="#fff"/>
    <path d="M415,414.88c-.54,2.13,1.71,7.82-1.99,7.01l-1-7h2.99Z" fill="#fff"/>
    <path d="M532,410.89l-4.05-37.47c.25-3.73,4.18-1.93,6.41-2.67,2.67-.88,4.29-17.95-.84-18.88-4.47-.81-11.93-.75-16.49-.47,5.28-8.99,6.06-13.54,17.91-10.58.77-7.83,7.36-13.55,14.56-15.94l-.49,86.01h-17Z" fill="#fff"/>
    <path d="M400.73,772.12c6.65-1.38,16.63,1.74,18.83,8.71,4.27,13.57-26.07,12.52-30.57,7.58-5.51-6.04,6.14-15.14,11.75-16.3ZM414.71,779.17c-5.04-6.26-23.44-3.9-23.65,6.1,1.27,4.14,21.24,3.11,24.81.5.42-2.06.17-4.93-1.17-6.59Z"/>
    <path d="M288.5,119.89h240c3.8,4.07,1.52,10.32,1.7,14.5,1.34,30.77,3.5,72.85.85,103.04-.19,2.21-.22,4.34-2.04,5.96l-240-.03-2.01-1.98v-120l1.5-1.5ZM525.5,122.89h-235.5v12.01c36.59-.9,73.05,1.03,109.54,1.04,7.52,0,16.34-1.1,23.93-1.11,34.36-.09,69.05.23,103.54.08-.38-2.4,1.15-11.18-1.51-12.01ZM307,138.89h-15.5c-.3,0-.77-1.27-1.5-1v85l17,1v-85ZM507,138.89h-196v85h96c-3.74-8.39-13.92-14.09-22.22-17.28-5.69-2.19-33.13-5.91-22.31-15.75,8.19-7.44,28.62-.82,35.55,6.5,4.51,4.77,5,9.2,7.74,14.25.63,1.17-.04,1.69,2.23,1.27.84-5.93-.75-11.83-1.04-17.44-.08-1.52,1.05-3.32,1.04-5.05-.05-9.23-3.97-6.49-9.67-9.32-8.57-4.26-20.21-16.45-16.42-26.78,1.77-2.23,6.65-1.59,9.13-.92,3.23.86,4.84,4.03,7.96,4.52,3.38-17.83,17.13-19,19.02,0,6.28-2.71,11.24-8.05,18.4-4.11,2.75,15.14-12.34,27.08-25.96,30.05l-.44,29.05c2.67.56,1.72-.69,2.48-1.97,6.06-10.2,7.42-17.24,20.54-21.5,6.53-2.12,30.08-2.91,24.48,8.48-1.67,3.39-20.09,7.41-24.77,9.23-8.46,3.3-17.04,8.9-21.74,16.75l96-.99v-84ZM527,138.89h-17l1,84h16v-84ZM433,155.89c-7.63-1.02-11.47,5.96-16.48,10-2.75-.58-.06-13.45-4.94-17.07-7.13-5.3-11.05,12.12-9.58,17.07-3.22.12-3.81-3.67-6.03-5.46-1.54-1.23-9.6-5.88-10.96-4.54-1.06,10.68,9.11,20.7,18.72,23.77,13.05,4.17,30.25-9.92,29.28-23.77ZM401.99,211.88c-2.39-15.34-19.1-22.33-33.43-19.93-3.62.61-6.66,2.94-2.5,5.37,5.22,3.05,18.21,4.93,25.47,8.53,1.69.84,9.43,7.15,10.46,6.03ZM453.86,193.02c-.9-1.44-12.97-1.41-15.36-1.14-11.46,1.29-19.37,9.18-22.49,20,4.98-1.93,9.11-5.29,14.01-7.48,7.5-3.34,15.62-4.8,23.35-7.42,1.05-.63.93-3.25.49-3.96ZM290,240.89l234.47.05c4.28-.61,2.41-9.74,2.1-13.11-.71-1.02-1.94-.85-3.02-.98-25.21-3.09-60.9.94-87,1.1-32.29.19-64.92-.73-97.01-1.09-16.51-.18-33.05.22-49.54.04v14Z"/>
    <path d="M298.71,407.05c3.98-1.19,9.14,3.25,13.02,4.62,9.51,3.36,16.92,2.46,26.55.37,4.98,1.35.9,8.89-.84,11.79-8.95,14.98-33.01,13.54-40.31-2.57-1.72-3.8-3.82-12.6,1.58-14.22ZM302.01,419.9c-1.02,9.18,21.6,13.09,22.99,8.46,1.84-6.14-18.69-10.25-22.99-8.46Z"/>
    <path d="M288.71,368.1c13.64-4.09,14.29,23.04.34,18.23-6.99-2.41-6.7-16.33-.34-18.23Z"/>
    <path d="M350.3,383.6c-6.62-8.18,5.39-25.17,11.74-14.26,5.7,9.8-5.11,22.45-11.74,14.26Z"/>
    <path d="M321.01,400.86c-.24-.3.12-2.14-.02-2.96,6.13.33,13.35.09,16.81-5.73,2.38-8.32-7.71-16.34-9.4-22.21-.38-1.31.02-3.07,1.09-3.05,1.38.03,7.79,10.31,8.68,12.3,3.66,8.11,5.59,16.92-4.47,20.9-2.31.92-11.28,2.5-12.71.75Z"/>
    <path d="M286.74,349.13c2.93-.5,16.86-1.22,11.27,4.27-2.02,1.99-13.67,1.66-18.96,5.04-1.97,1.26-4.13,6.08-6.56,3.47-3.35-5.05,10.21-12.09,14.25-12.78Z"/>
    <path d="M346,351.87c-.31-10.93,26.25-.8,25,4.49-.95,4.02-12.1-2.33-14.95-3.03-3.28-.81-6.82-.15-10.05-1.46Z"/>
    <path d="M226.01,390.87c-.58-4.15,4.84-1.28,6.51,0,3.22,2.45,9.62,14.86,3.45,11.55-2.08-1.12-4.56-11.6-9.96-11.55Z"/>
    <path d="M189,261.9c-.9,8.79-21.83,4.48-21.97-.51-.09-3.13,10.14,2.4,12.5,2.35,2.8-.06,6.1-2.78,9.47-1.84Z"/>
    <path d="M177,253.87c-.79-3.32,2.99-1.56,5.27-2.21,8.35-2.38-.99-8.87,3.22-13.77,6.71,9.86,5.76,19.74-8.49,15.98Z"/>
    <path d="M197.68,235c4.92-1.26,5.92,9.39.81,9.95-5.36.59-4.38-9.03-.81-9.95Z"/>
    <path d="M161.15,241.73c-.85-5.21-.55-9.57,5.92-7.41,2.84,5-.19,10.75-5.92,7.41Z"/>
    <path d="M205.78,227.08c3.29,5.13-4.25,1.04-5.23.76-3.65-1.04-9.9-.99-8.55-4.95,1.55-1.61,12.75,2.58,13.78,4.19Z"/>
    <path d="M168.99,221.9l-1.68,3.81-10.31.67c-.55-3.93,9.54-5.14,11.99-4.48Z"/>
    <path d="M414.71,779.17c1.34,1.66,1.58,4.53,1.17,6.59-3.58,2.61-23.55,3.64-24.81-.5.21-9.99,18.61-12.36,23.65-6.1Z" fill="#fff"/>
    <path d="M507,138.89v84l-96,.99c4.69-7.86,13.28-13.46,21.74-16.75,4.68-1.82,23.1-5.84,24.77-9.23,5.6-11.39-17.95-10.6-24.48-8.48-13.12,4.26-14.48,11.3-20.54,21.5-.76,1.28.18,2.53-2.48,1.97l.44-29.05c13.63-2.97,28.72-14.91,25.96-30.05-7.16-3.95-12.12,1.4-18.4,4.11-1.89-19-15.64-17.82-19.02,0-3.11-.49-4.73-3.66-7.96-4.52-2.47-.66-7.36-1.31-9.13.92-3.79,10.33,7.84,22.52,16.42,26.78,5.7,2.83,9.62.09,9.67,9.32,0,1.73-1.12,3.52-1.04,5.05.29,5.61,1.88,11.52,1.04,17.44-2.27.42-1.6-.11-2.23-1.27-2.74-5.05-3.23-9.47-7.74-14.25-6.93-7.33-27.37-13.95-35.55-6.5-10.82,9.84,16.62,13.56,22.31,15.75,8.3,3.19,18.48,8.89,22.22,17.28h-96v-85h196ZM357.5,214.89c4.83.81,13.6,0,19,0,.53,0,2.07-2.19,1.5-2.99-4.44-2.24-8.17.18-12.44.02-14.07-.52-26.32-7.48-24.12-23.1,7.05-1.5,11.34-2.09,16.59-7.4,10.04-10.15,16-33.65-6.01-20.53-2.19-10.16-10.93-10.72-14.54-.97-3.22.55-7.45-7.22-13.45-4.52-6.22,2.8-1.54,18.86,1.54,23.42,2.51,3.72,11.45,9.03,11.94,10.06,1.91,4.01-.43,9.48,4.06,15.94,2.67,3.84,11.5,9.32,15.93,10.07ZM442,214.89h19.5c.71,0,11.28-5.56,12.5-6.78,1.61-1.61,5.33-7.78,5.77-9.94.53-2.65-.34-8.94.39-10.11.32-.51,7.82-3.67,10.24-6.26,11.2-11.98,11.26-41.01-8.9-20.92-4.16-9.19-11.76-11.22-14.51.02-14.47-7.98-18.21-2.62-12.19,11.71,4.19,9.98,11.31,14.26,21.77,16.23,2.59,11.84-4.95,19.92-16.15,21.98-5.95,1.09-12.1-.63-17.83,1l-.59,3.09Z" fill="#fff"/>
    <path d="M290,240.89v-14c16.5.18,33.03-.22,49.54-.04,32.09.36,64.72,1.28,97.01,1.09,26.1-.16,61.79-4.19,87-1.1,1.07.13,2.3-.04,3.02.98.31,3.37,2.18,12.5-2.1,13.11l-234.47-.05Z" fill="#fff"/>
    <path d="M525.5,122.89c2.66.82,1.12,9.6,1.51,12.01-34.49.15-69.18-.16-103.54-.08-7.59.02-16.41,1.12-23.93,1.11-36.49-.01-72.95-1.93-109.55-1.04v-12.01h235.51Z" fill="#fff"/>
    <path d="M307,138.89v85l-17-1v-85c.73-.27,1.2,1,1.5,1h15.5Z" fill="#fff"/>
    <polygon points="527 138.89 527 222.89 511 222.89 510 138.89 527 138.89" fill="#fff"/>
    <path d="M433,155.89c.98,13.85-16.23,27.94-29.28,23.77-9.6-3.07-19.78-13.09-18.72-23.77,1.36-1.34,9.42,3.31,10.96,4.54,2.23,1.78,2.81,5.57,6.03,5.46-1.47-4.95,2.45-22.37,9.58-17.07,4.88,3.62,2.19,16.49,4.94,17.07,5.02-4.04,8.85-11.01,16.48-10Z" fill="#fff"/>
    <path d="M401.99,211.88c-1.02,1.12-8.76-5.19-10.46-6.03-7.26-3.6-20.25-5.48-25.47-8.53-4.16-2.43-1.12-4.76,2.5-5.37,14.33-2.4,31.04,4.59,33.43,19.93Z" fill="#fff"/>
    <path d="M453.86,193.02c.44.71.56,3.34-.49,3.96-7.73,2.62-15.85,4.08-23.35,7.42-4.9,2.18-9.03,5.54-14.01,7.48,3.12-10.82,11.03-18.71,22.49-20,2.39-.27,14.46-.31,15.36,1.14Z" fill="#fff"/>
    <path d="M302.01,419.9c4.29-1.78,24.83,2.32,22.99,8.46-1.39,4.62-24,.72-22.99-8.46Z" fill="#fff"/>
    <path d="M357.5,214.89c-4.44-.74-13.27-6.23-15.93-10.07-4.48-6.46-2.15-11.94-4.06-15.94-.49-1.03-9.43-6.34-11.94-10.06-3.08-4.57-7.76-20.62-1.54-23.42,6-2.7,10.22,5.08,13.45,4.52,3.62-9.75,12.35-9.19,14.54.97,22.01-13.13,16.05,10.37,6.01,20.53-5.25,5.31-9.54,5.91-16.59,7.4-2.19,15.62,10.05,22.58,24.12,23.1,4.27.16,8-2.26,12.44-.02.57.8-.96,2.99-1.5,2.99-5.4,0-14.17.81-19,0ZM362.99,160.9c-6.83-1.51-8.67,6.15-13.48,8.99-3.37-.72,1.06-14.28-5.04-13.77-3.01.25-4.28,9.95-5.38,12.37-2.13,4.65-3.66-4.34-5.4-6.29-1.15-1.29-7.51-4.46-8.69-3.31-2.82,33.97,35.55,34.84,37.99,2.01Z"/>
    <path d="M442,214.89l.59-3.09c5.73-1.63,11.88.09,17.83-1,11.2-2.06,18.74-10.14,16.15-21.98-10.46-1.96-17.58-6.24-21.77-16.23-6.02-14.33-2.28-19.69,12.19-11.71,2.75-11.24,10.35-9.21,14.51-.02,20.16-20.09,20.11,8.94,8.9,20.92-2.42,2.59-9.92,5.75-10.24,6.26-.74,1.17.14,7.46-.39,10.11-.43,2.17-4.15,8.33-5.77,9.94-1.22,1.22-11.79,6.78-12.5,6.78h-19.5ZM475.87,157.03c-9.38-1.22-3.58,8.38-7.37,12.84-3.64-3.93-6.09-9.74-12.49-8.97,2.78,33.46,40.4,31.43,37.99-3-.8-.85-5.85,1.65-6.92,2.57-2.27,1.96-4.52,9.9-6.56,9.42l-4.64-12.86Z"/>
    <path d="M362.99,160.9c-2.44,32.83-40.81,31.96-37.99-2.01,1.18-1.15,7.54,2.02,8.69,3.31,1.74,1.95,3.27,10.94,5.4,6.29,1.11-2.42,2.38-12.11,5.38-12.37,6.1-.52,1.66,13.04,5.04,13.77,4.81-2.84,6.65-10.5,13.48-8.99Z" fill="#fff"/>
    <path d="M475.87,157.03l4.64,12.86c2.04.48,4.3-7.46,6.56-9.42,1.07-.93,6.11-3.43,6.92-2.57,2.41,34.43-35.21,36.46-37.99,3,6.4-.77,8.85,5.05,12.49,8.97,3.79-4.46-2-14.06,7.37-12.84Z" fill="#fff"/>
  </g>
  <path d="M211,528.89" fill="#fff" stroke="#000" stroke-miterlimit="10"/>
</svg>