<?xml version="1.0" encoding="UTF-8"?>
<svg id="Camada_1" xmlns="http://www.w3.org/2000/svg" version="1.1" viewBox="0 0 595.28 841.89">
  <!-- Generator: Adobe Illustrator 29.0.0, SVG Export Plug-In . SVG Version: 2.1.0 Build 186)  -->
  <path d="M.14,841.29V-.06h595v841.34H.14ZM590.54,3.89H4.08v89.39c17.91-9.39,40.9-6.64,57.19,4.6.5-.52-7.8-9.32-8.61-10.11-5.93-5.78-31.6-23.98-33.03-29.45-1.2-4.59,2.72-6.84,6.36-8.54,19.02-8.89,42.92-2.61,54.69,14.56-2.9-7.68-7.04-27.04,4.25-29.91,28.05-7.13,40.37,44.53,29.6,63.44,8.39-2.58,16.37-6.62,25.33-7.21,17.05-1.12,38.8,6.87,47.52,22.13,2.64,4.61,9.13,17.05-.18,17.96-11.53,1.13-27.66-6.27-39.79-5.92,11.63,6.55,22.51,15.46,25.97,28.91,1.82,7.07,3.86,28.32-9.11,22.91-3.96-1.65-14.01-12.89-18.51-16.33-2.23-1.71-22.3-14.69-23.33-13.8,13.93,14.58,16.03,33.1,6.05,50.41-2.18,3.78-9.98,12.31-14.58,9.05-3.7-2.63-8.16-24.87-10.52-30.89-.74-1.88-3.15-8.76-4.91-8.86-1-.05-4.12,1.86-6.59,2.01-2.31.14-7.52-1.58-8.55-.72-13.15,32.17-25.46,64.71-29.15,99.73-.16,1.48-1.12,3.79.21,4.8,14.13-11.38,27.31-24.11,41.42-35.48,9.79-7.89,36.87-29.8,48.15-31.39,5.29-.74,8.46.85,13.01,3.11l44.8,32.77,20.6-10.41c-6.32-5.92-8.23-11.23-7.17-19.98.24-2,2.11-4.48,1.95-5.98-.18-1.67-6.9-4.83-7.23-11.92-.61-13.15,14.22-16.46,20.34-23.11,4.54-4.94,8.67-18.84,12.37-25.56,11.93-21.69,40.61-32.73,64.58-27.51,2.94.64,7.31,3.34,9.56,3.62,10.22,1.29,15.53-1.76,26.78,3.42,25.04,11.54,19.39,37.09,22.97,57.89,2.17,12.57,13.61,24.39,3.77,36.98-1.55,1.98-4.03,2.99-5.3,4.57-1.39,1.73-2.31,6.74-3.23,8.91,19.73-17.33,37.7-36.63,57.17-54.25,3.17-2.86,19.93-18.33,22.34-19.07,1.59-.49,3.55-.69,5,.34l38.77,34.2,2.39-39.99c.59-.96,18.05-1.23,19.63-.43,3.15,1.58-.36,12.17,2.3,14.79h9.53v-13.47c0-1.74,2.89-2.3,4.27-2.3h15.12c2.82-3.71-1.03-22.98,2.3-24.65l49.97-.98v-34.84h-126.56c-3.25,0-.75-9.11-.18-10.7,4.04-11.12,21.09-17.78,32.06-12.97-.28-9.54,8.94-16.83,17.98-16.37,4.57.24,7.89,3.3,11.86,3.29,5.92-24.93,44.31-29.71,54.03-4.67l10.81-3.94V3.89ZM465.62,88.02h124.92v-39.44c-5.69,1.32-9.29,3.43-12.16,8.53-2.59-3.1-2.16-7.45-4.64-11.13-9.45-14.06-30.34-11.92-40.38.31-4.4,5.36-3.03,8.98-5.28,14.49-4.46-1.48-7.43-5.21-12.45-6-10.89-1.72-17,6.62-17.19,16.73-4.08.21-7.16-2.7-11.42-2.58-9.69.27-21.58,8.68-21.4,19.08ZM109.53,54.25c-3.39-6.91-7.68-15.28-16.02-17.19-20.99-4.81-10.15,22.62-7.34,32.28.24.82,1.14.84,1.45,1.89,5.24,17.61,4.43,36.18,2.59,54.25,10.48-14.73,13.46-33.37,10.52-51.27,2.11-2.62,3.92,11.17,3.96,12.13.34,7.48-1.68,14.7-2.65,22.04,15.89-10.95,15.83-36.77,8.72-53.07-.29-.67-1.12-.82-1.24-1.08ZM59.64,73.56c-5.47.09-10.96,0-16.44,0-.08,0-1.31.95-.67,1.32,17.18,14.42,33.02,30.97,41.77,51.92l3.25-9.38c-3.27-8.65-4.69-16.13-11.16-23.8-.3-.35-8.32-6.67-2.84-5.07,7.11,2.06,9.9,13.78,14.68,18.54v-14.13c0-4.54-5.92-19.73-8.68-24.19-11.87-19.2-38.6-27.27-56.82-12.3-.67,2.69,13.34,14.1,15.58,14.79s24.99-3.45,24.93,1.33c-1.52,2.59-2.62.97-3.6.99ZM75.51,116.51c-7.05-11.29-17.7-19.39-30.52-23.04-13.81-3.94-28.3-3.9-40.93,3.55l.4,13.43c2.42.03,6.34,2.21,8.46,1.9,1.77-.26,2.34-2.19,3.72-2.91,5.42-2.86,11.44-5.48,17.69-4.99v1.97c-6.53.11-12.68,2.65-17.75,6.57,12.26,3.89,24.99,6.07,37.34,9.67,8.61,2.51,17.21,8.01,26.42,7.42-4.72-4.51-9.52-9.96-15.2-13.39-3.96-2.39-9.54-3.7-13.37-5.7-.93-.48-1.98-.4-1.67-1.94,9.81.17,18.61,6.63,26.22,12.23.95.7,1.5,3.15,2.7,1.9-1.49-2.05-2.19-4.56-3.52-6.68ZM168.21,119.16c1.41,1.58,3.05,5.66,3.96,6.23,1.51.94,14.69,2.91,15.72,1.46.82-9.05-5.79-17.21-12.55-22.38-24.23-18.51-60.94-12.1-75.91,14.78,10.12-5.89,21.19-11.82,33.2-12.81.82-.07,13.75-.04,10.17,1.95-19.29.04-39.82,7.97-51.27,23.66,23.66-12.07,51.38-12.98,76.92-7.23l-9.85-11.82c1.05-.91,8.6,5.01,9.62,6.15ZM4.08,113v149.21l12.49,1.32c6.35-30.7,18.05-60.26,33.43-87.2,4.14-7.25,9.53-14.02,13.26-21.58-.8-3.35-30.46,11.52-32.89,12.47-9.28,3.6-20.99,8.61-17.55-7.03,2.12-9.64,12.45-22.61,21.05-27.6,6.05-3.51,12.57-4.31,18.86-7.09l-48.65-12.5ZM352.98,135.56c-6.9-8.65-17.79-12.05-28.49-12.44-2.47-.09-6.1,1.24-8.27.94s-6.17-3.49-9-4.2c-21.25-5.32-48.43,4.93-60.3,23.27-5.54,8.56-7.29,20.57-14.04,28.04-5.03,5.56-13.26,6.43-16.75,14.15-3.73,8.27-1.23,13.62,6.18,18.13-5.98,8.89-5.72,21.01,5.63,24.98l23.33-5.69c-1.17-3,.16-9.58-.95-11.81-.28-.56-5.68-3.2-7.25-4.58-11.78-10.27-10.94-32.09,7.25-32.28,2.97-.03,7.6.13,7.55,3.61-.28,20.14-9.72,34.6-.67,56.6,9.99,24.29,53.24,34.76,74.67,20.72,13.94-9.14,14.17-25.27,17.39-40.12-2.37.67-3.36,3.9-5.67,5.16-7.91,4.33-11.01-6.75-17.98-8.19-1.76-.36-5.59,2.64-9.52,2.38-4.45-.3-8.58-4.32-13.94-4.36-6.71-.04-19.65,7.53-23.24,6.7-4.01-.93-9.22-8.41-10.19-12.22-2.9-11.38.2-25.61,3.55-36.03.6-1.86,1.26-8.17,2.69-9.02,14.27.64,27.37,2.54,38.46-8.21,1.06-1.03,6.13-8.33,6.65-8.49,2.47-.77,3.03,3.99,4.09,5.67,6.99,11.1,16.94,12.9,29.03,15.67,1.22.94,2.5,11.07,2.63,13.14.85,13.11-1.66,26.89-3.89,38.93-1.38,7.46-2.39,14.91-4.65,22.18,5.02-.14,9.59-2.82,11.51-7.55,1.11-2.72,1.13-8.47,1.97-9.86.76-1.26,5.86-1.59,8.24-6.22,4.93-9.61-1.73-19.03-4.7-28.07-5.34-16.28.73-35.85-11.32-50.94ZM104.02,130.75h14.14c2.88,0,17.56,3.83,18.42,6.57l-.68,1.32c-12.27-5.12-30.27-7.83-42.92-2.8-.99.4-1.78-.38-1.44,1.48,22.62-.11,46.6,9.78,61.81,26.29,1.73-4.3-1.27-10-2.64-14.13-.04-4.46,5.87,5.35,6.03,5.84,1.15,3.59-.25,8.08.89,10.91.73,1.8,9.68,10.83,12.19,7.45,5.75-7.75-.81-23.91-5.81-30.91-14.11-19.75-38.91-21.72-59.98-12.02ZM541.88,167.56h44.38l-.33-38.78-2.98-.03-40.42,1.34-.65,37.47ZM53.5,140.7c2.93-2.73,9.5-1.26,11.72-2.41.74-.38,3.72-5.21,5.25-5.91-24.16-10.51-52.93,9.32-54.93,34.55,5.7,2.52,10.47-2.75,16.05-3.44.4-6.15,4.61-12.35,9.65-15.64l.72,2.01c-1.73,2.14-3.64,3.64-5.12,6.07-.4.65-3.38,5.66-1.52,5.69l26.54-11.25.75-9.11-9.2,1.31.1-1.87ZM590.54,160.33v-27.94c0-.08-1.23-1.54-1.32-.65l1.32,28.58ZM87.37,137.53c-.5-.77-5.55-3.92-6.73-4.11-10.6-1.77-18.64,12.39-12.78,20.67,8.27,11.7,25.85-6.84,19.51-16.55ZM121.56,150.02c-5.22-4.97-13.7-8.07-20.83-8.75,2.44,1.86,3.04,6.85,4.31,8.5,2.62,3.43,9.59,4.54,11.32,11.69.19.78.85,3.16-.82,2.79-2.58-4.14-5.01-9.53-10.2-10.51,1.27,3.24-3.14,8.2-3.12,10.07.01,1.19,4.45,11.21,5.26,13.75.59,1.85,1.47,8.73,1.81,9.05.13.12,1.99.08,2.51-.13,1.7-1,3.9-14.22,6.69-11.7,1.06,4.46-6.29,13.83-6.57,16.11s1.97,11.92,4.96,12.19c17.19-9.09,18.31-40.09,4.69-53.06ZM83.18,157.9c-3,3.8,4.68,7.31,8.69,7.06,13.47-.86,14.28-22.94.27-22.76-.67,4.68-1.75,8.88-4.79,12.64-.79.98-3.47,2.19-4.17,3.07ZM320.97,147.84c-4.35,2.69-6.54,6.86-10.96,9.73-10.54,6.84-21.75,5.26-33.64,4.82-1.85,6.68-2.99,13.59-4.1,20.43-.08.52-1.14.33-1.31,1.46-1.08,7.25-.66,19.26,3.71,25.3,5.74,7.93,11.13.91,17.85-1.12,4.26-1.29,10.46-2.29,14.83-1.32s4.83,5.1,12.34,3.51c13.87-2.93-2.26-23.11-.72-30.9.48-2.43,2.29-2.4,3.28,0,1.15,2.8,5.67,20.15,5.79,22.97.07,1.48-1.39,6.18-.89,6.92,5.74.89,9.14,10.11,15.1,7.12,11.16-5.59,10.58-39.7,8.2-50.43-11.52-2.13-25.18-6.39-29.5-18.5ZM521.17,170.19h-15.12l-.99-.99v-13.47h-14.79l-1.69,81.22c14.64,1.03,29.71,4.7,42.34,12.23,1.97,1.18,7.34,7,9.46,6l1.5-1.84c-.47-17.88-3.42-57.47,24.6-54.82,22.62,2.13,19.33,34.69,20.11,50.56h3.95v-78.88h-50.95l-.99-.99v-11.17c0-.53.72-1.41-.13-2.18l-15.55-.02-1.75,14.36ZM79.58,160.43c-5.36.93-8.82.4-13.32-2.73l-6.19,9.43c3.69,5.36,9.96,8.08,16.58,7.69,1.18-4.75,6.07-9.77,2.93-14.39ZM419.6,182.67l47.32-.98c-3.1-3.34-20.92-20.11-23.99-20.01l-23.33,20.99ZM590.53,167.55c.47-.7-.31-1.8-.64-1.31-.47.7.31,1.8.64,1.31ZM75.74,177.42c-6.93.12-12.07-3.26-17.34-7.2l-8.2,12.7c5.46,5.9,11.21,8.14,19.24,8.18l6.3-13.68ZM250.63,206.99l4.33-28.96c-20.52-5.49-20.12,24.27-4.33,28.96ZM486,201.73c.16-1.43.07-2.36-.63-3.65-.42-.78-12.01-11.62-12.85-12.13-4.54-2.7-8.08-.66-12.47-.63-14.64.11-29.3-.25-43.93.12l-16.91,16.94,86.79-.65ZM68.51,193.85c-7.48.44-14.52-3.19-20.05-7.88l-7.37,14.78c3.55,5.39,14.18,10.78,20.53,9.54,3.65-.71,6.24-12.96,6.9-16.44ZM582.65,249.06c-1.35-11.35,1.67-36.45-8.33-43.94-12.58-9.42-25.87.99-28.33,14.2-2.03,10.91-1.81,23.3-.82,34.34l37.48-4.6ZM61.94,212.91c-6.57.53-11.87-1.29-17.31-4.72-2.03-1.28-3.09-4.14-5.67-3.8-.61,3.01-6.36,13.71-5.85,15.93,1.31,5.7,18.54,10.54,23.76,8.88,2.25-.72,4.5-13.41,5.06-16.3ZM485.34,221.13v-15.78l-2.92-1.02-86.12.73c-3.41.61-15.92,13.9-18.79,17.37l107.83-1.31ZM178.55,260.47c6.15-6.45,13.65-11.51,20.12-17.6-16.01-11.92-31.66-24.79-49.26-34.25-.95-.4-1.93-.35-2.94-.33-12.22.3-50.94,32.38-61.84,41.43-9.09,7.54-18.15,15.5-26.63,23.65,10.5,2.36,20.65,6.22,27.37,14.98,10.2-5.37,20.37-3.73,28.16,4.78,12.1-11.47,31.01-15.33,45.39-5.37,5.65-9.66,11.85-19.15,19.63-27.29ZM56.68,231.97c-9.33.75-17.59-1.74-24.64-7.89-.97.21-5.74,12.18-5.5,14,6.85,7.44,16.41,10.84,26.43,9.58l3.71-15.68ZM484.68,225.4l-110.08.04c-1.09.07-1.85.64-2.68,1.26-1.06.79-14.59,14.19-15.12,15.12-.27.47-.46.67-.31,1.32.74.27,1.45-.65,1.64-.65h82.84c.08,0,1.31.95.67,1.32-28.38,2.69-57.72.7-86.46,1.32l12.43,17.46,53.6-.92,4.3,1.53-57.18,2.31c1.29,4.26,12.31,20.63,15.98,20.82l39.42-8.34c6.22-25.53,24.62-38.5,50.22-41.33,3.54-.39,7.96.86,10.76-1.08v-10.19ZM215.78,290.8v32.21c3.68,2.59,10.84,1.43,15.36.9,34.61-4.06,67.51-29.29,83.26-59.73h-15.45c-4.08,0-13.96-3.31-18.06-4.95-14.34-5.74-27.52-16.83-28.99-33.13-22.59,2.33-45.58,13.55-62.43,28.55-18.12,16.14-30.1,35.51-35.86,58.8-.46,1.88-2.77,14.3-2.19,15.07l34.01,3.92c4.41-20.11,18.6-40.51,37.13-49.97,2.21-1.13,5.42-3.6,7-.88l-13.79,9.2ZM547.8,274.03c-10.7-27.9-46.98-36.02-73.99-34.21-12.67.85-24.55,5.55-33.82,14.17-.28,1.52.67.86,1.63.98,10.21,1.24,23.14-.19,34.03.83,9.07.85,20.57,2.79,29.56,4.62,14.61,2.98,28.84,7.99,42.59,13.61ZM351.55,240.52v.66l.33-.33-.33-.33ZM53.39,250.38h-10.85c-5.51,0-12.73-5.97-17.42-8.54l-3.19,15.3c1.47,4.94,23.73,10.64,28.73,7.6l2.73-14.36ZM352.95,247.99c-.67-.73-6.23-5.6-6.65-5.5-2.86,7.04-8.7,13.26-15.42,16.8-5.03,2.65-10.91,2.49-14.39,7.28-6.78,9.32-10.28,17.91-19.16,26.89-19.28,19.48-45.97,32.57-73.65,33.5,23.03,9.7,50.29,13.91,75.3,12.85,4-.17,19.24-1.4,22.16-2.82.99-.48,1.52-.98,1.94-2,6.82-14.02,13.64-28.42,18.21-43.06,1.63-5.21,1.56-12.78,5.32-16.55,1.35.81-2.77,18.47-3.47,21.16-1,3.82-5.13,9.59-2.89,12.82,1.44,2.07,9.41,9.78,11.67,11.65,15.56,12.9,39.38,19.36,59.16,21.79l1.29-14.85c-16.42.59-9.94-13.48-3.31-21.37-14.79-6.51-28-14.11-37.34-27.72-6.33-9.22-11.24-22.69-18.77-30.86ZM590.54,251.69c-16.11.85-32.49,1.63-48.02,6.28,6.18,9.22,10.02,15.69,11.77,27,3.39,21.9-.35,45.4.72,67.64.61,12.64,2.78,25.45,4.64,37.92l30.89,10.37v-149.21ZM552.4,295.73l-2.13-15.94c-1.04-2.31-18.79-8.74-22.32-9.89-21.77-7.11-48.95-11.46-71.87-12.28-4.06-.14-16.93-.71-19.74,1.28-1.89,1.34-8.02,12.68-7.55,14.8,42.21.23,84.2,7.17,123.61,22.03ZM50.1,268.12h-11.51c-4.58,0-13.92-4.61-17.41-7.89-.72.48-3.34,15.37-3.26,16.87.43,7.95,24.79,10.88,30.58,7.49l1.6-16.48ZM4.08,265.49v64.42l5.94-1.76c-.32-20.31,1.71-40.46,5.29-60.37l-.48-1.01-10.75-1.28ZM83.76,292.98c-5.81-10.66-18.89-15.41-30.37-16.97-.38.39-.42,9.47-.61,10.89-1.3,10.23-1.28,12.98-.08,23.1.45,3.79.06,8.21.97,12.07.66.96,4.09.68,5.33.63,15.19-.53,31.26-2.7,46.63-3.33,14.49-.6,29.35-1.09,43.74.03,1.52-9.68,4.44-18.98,8.46-27.85-13.41-10.92-34.48-5.88-44.95,6.67-4.36-7.18-11.4-11.31-20.08-9.43-3.95.86-5.09,4.81-9.04,4.19ZM469.56,379.21l6.8-99.15-48.22-3.07c-3.14,1.61-2.31,18.15-3.9,20.91-.57,1-3.82,2.06-4.96,3.1-4.03,3.66-15.72,15.64-14.02,21.22,1.77,5.52,16.7.16,17.64,1.13.09.09.11,2.26-.09,2.54-11.61-.22-8.75,18.36-6.82,25.72,3.21,12.2,15.25,19.72,27.61,19.72h15.78l.98,1.63-6.58,1.65v4.6h15.78ZM553.06,313.81v-13.15c-15.45-7.42-33.02-12.48-49.84-15.9-3.27-.66-21.69-4.52-22.85-2.87.31,5.54-1.81,9.41-1.63,14.71l.82.66c19.81,2.23,39.22,6.97,58.23,12.76,3.37,1.03,9.88,4.23,12.63,4.51,1.17.12,1.79.59,2.65-.72ZM48.78,287.84c-11.08,2.96-22.79,1.24-31.87-5.92l-2.2,19.94c4.35,6.29,30.85,9.69,33.31,2.62,1.04-2.99-.1-12.79.77-16.64ZM422.89,281.92c-1.24-1.23-31,5.53-34.18,6.94-.8.35-1.61-.05-1.31,1.27,7.2,6.18,15.89,10.74,25.04,13.19l8.34-7.07c.97-4.56,2.05-9.17,2.12-14.33ZM211.84,322.02v-27.61c-8.38,6.44-14.82,15.31-18.41,25.28.34,1.49,15.71,1.27,18.41,2.32ZM552.4,333.52v-14.46c-7.01-5.58-71.55-21.43-74.3-18.74l-.65,17.08c25.14,2.44,49.84,8.46,73.58,16.84l1.36-.73ZM48.79,308.88c-11.7,4.54-24.03,2.59-34.84-3.29l-.66,22.35,36.74-4.67-1.24-14.39ZM411.64,346.41c-27.55-3-55.9-12.99-73.9-34.89l-12.84,27.26.12,3.2,88.34,15.54c1.43.25,1.01-.6.93-1.59-.22-2.75-2.63-6.44-2.65-9.52ZM552.4,337.8c-24.21-8.24-49.05-14.77-74.57-17.66l-2.34,17.65c26.23,3.01,51.92,9.49,76.91,17.76v-17.75ZM4.08,333.2v504.15h586.45v-432.17l-29.25-10.2c.21,4.59-1.41,7.6-6.26,7.91,11.43,12.76,20.21,27.33,25.67,43.67,7.85,23.5,4.1,38.21-4.13,61-.79,2.19-4.12,7.6-4.34,8.86-.33,1.87,1.51,7.89,1.48,11.02-.04,5.42-3.1,15.7-6.84,19.73-7.51,8.09-16.98-1.16-19.74,1.63,2.26,8.65,4.75,17.31,6.39,26.15,1.56,8.35,4.45,23.33,4.18,31.37-.21,6.25-4.9,6.85-9.92,8.53-1.38,1.16-.34,4.8.09,6.37,4.33,16.15,9.23,34.11,13.02,50.34,1.6,6.86,1.9,17.6,3.82,23.68,1.56,4.98,6.07,10.66,7.35,15.77,2.03,8.15,3.61,18.88-5.61,22.4-12.7,4.85-58-.38-71.4-5.35-15.61-5.79-11.74-18.95-.18-26.77,7.22-4.88,20.07-5.26,28.6-6.58l-25.56-69.95c-20.56-.62-41.16.08-61.5-3.54-3.69,4.81-5.71,10.25-6.78,16.16-3.74,20.74-5.48,43.51-8.68,63.74-1.62,10.22,3.19,13.51,3.92,23.48.56,7.57,1.25,19.45-6.14,23.48-9.71,5.29-44.28,4.6-55.99,3.15-8.67-1.08-29.12-5.03-32.7-13.97-1.02-2.55.11-4.26-1.84-6.06,2.16-.56.96-2.2,1.62-3.64,7.79-16.79,32.58-17.79,48.26-21.76.47-27,.79-54.12,2.73-81.07.3-4.17,2.72-13.48,2.45-16.6-.21-2.4-4.17-3.46-4.79-4.78-.87-1.86,6.09-19.55,7.41-22.82,9.2-22.76,21.46-44.46,32.95-66.34.83-1.57,3.33-3.74,3.39-3.99.51-1.89-.52-5.16.65-7.4-6.48,3.01-12.62,7.43-19.15,10.75-8.32,4.23-17.55,8.03-26.37,11.1-2.32.81-7.54,1.31-9.02,2.16-.92.53-2.48,3.78-3.66,4.89-7.51,7-19.7,16.66-30.73,14.32-3.84-.82-3.63-3.52-6-5.48-1.13-.93-6.76-5.75-7.17-6-2.19-1.31-13.52-3.28-17.56-5.13-15.61-7.13-9.55-13.44-9.18-26.92.47-17.38-.02-34.93-.69-52.29-18.38,1.89-36.88,2.25-55.25.29l-16.32,46.8c-1.2,9.67,8.55,16.33,5.18,26.54,7.3-5.89-.09-16.62-.65-24-.36-4.8,1.22-12.62,7.54-12.21,3.34.22,3.76,3.28,6.24,4,2.15-5.74,5.31-20.3,12.46-21.41,4.29-.67,4.38,3.57,5.04,3.72,1.93.44,3.99-3.12,7.33-1.55,3.07,1.44,2.42,7.65,2.82,8.04.24.24,5.5.07,6.61,1.78,1.24,1.91.08,5.15.71,7.01.53,1.55,4.2,1.81,4.53,6.04.65,8.15-7,25.35-12.94,31.13-2.42,2.35-6.7,3.56-8.07,5.08-2.16,2.41-6.78,15.01-9.09,19.14-8.22,14.66-19.07,34.31-38.03,35.03-5.87.22-23.06-7.08-24.6-6.28-.87.46-1.33,3.17-3.77,3.51-1.95.27-5.54-1.74-7.41-2.51-.09,6.19,3.76,10.86,5.34,16.34,34.48.69,75.92-9.24,102.73,17.91,12.76,12.92,23.04,30.13,35.94,42.95,12.82,1.95,58.56-19.44,53.71,9.07-2.32,13.67-42.5,37.19-56.03,37.97-14.08.81-13.95-10.03-20.38-17.79-6.78-8.17-18.78-17.9-26.64-25.95-4.52-4.63-7.85-10.56-13.63-14.03-2-.46-15.4,10.33-18.51,12.15-7.67,4.5-16.51,7.69-25.07,10.11l33.35,33.41c2.45.31,10.05-7.46,12.73-9.36,6.68-4.74,25.92-17.23,26.29-.73.24,10.58-13.02,46.5-20.42,54.58-3.05,3.33-5.3,5.17-10.18,4.92-12.84-.65-39.86-27.98-50.66-36.81-7.25-5.93-14.98-11.3-22.04-17.47-2.17-.78-7.16,5.27-11.83,4.03-5.06-1.35-18.95-10.76-25.05-13.76-13.07-6.42-27.56-10.66-38.71-20.45-17.95-15.76-16.15-31.84-23.15-52.44-2.38-7.01-5.86-13.64-7.78-20.82l-1.91-.03c.64,4.64-4.37,3.7-5.59,5.27-1.38,1.76-3.45,15.15-3.65,18.04-.42,6.14-1.06,13.65-1.34,19.05s.31,10.92.04,16.33c4.75,4.19,18.45,9.12,20.08,15.57,2.43,9.63-12.83,5.71-17.44,2.65-.5.59-.88,12.95-1.35,15.3-.1.5-1.13.44-1.26.94-.87,3.45-.71,10.25-5.77,11.25-3.73.73-4.06-2.32-5.14-2.5-1.25-.2-1.79,3.05-5.24,3.3-4.11.3-3.91-2.87-5.22-3.09s-3.89,1.68-6.45.96c-2.38-.68-2.89-4.32-3.12-4.48-.33-.21-3.82,2.84-7.48.59-5.07-3.12-1.34-21.37.3-26.52,1.27-3.98,6.27-10.73,6.56-13.17.86-7.33-3.51-20.63-3.99-28.91-.51-8.84.36-16.53,1.94-24.53.43-2.15,3.2-12.32,3.12-12.98-.24-1.85-4.14-1.43-2.74-7.57,2.11-9.24,14.94-31,21.14-38.67,8.64-10.7,20.86-18.7,34.36-21.85l.61-4.23c-.34-1.85-5.95,1.11-7.73,1.37-7.56,1.11-9.7-2.47-14.9-2.98-4.28-.41-6.79,1.36-12.02-1.07-8.73-4.06-6.02-11.46-8.96-16.02-.74-1.14-3.55-1.34-4.89-2.34-3.65-2.74-6.17-7.21-6.59-11.81-.29-3.22,1.44-9.25,1.18-10.37-.38-1.63-3.13-2.52-3.85-3.59-4.66-6.99-3.91-17.07-.17-24.31.93-1.8,5.16-5.15,5.81-7.37,2.13-7.34-.62-11.9,5.79-19.52,4.37-5.2,10.73-6.05,13.56-8.46.67-.57,2-4.3,3.32-5.88,3.06-3.65,10.8-8.52,15.51-8.86,2.45-.18,8.02,2,9.04,1.81.63-.12,3.78-3.36,5.1-4.06,8.63-4.61,20.84-7.7,29.46-1.35,1.63,1.2,3.28,4.39,4.45,4.76,4.09,1.28,8.4-.35,13.67,2.77,8.76,5.19,9.4,20.06,3.09,27.44v1.61c5.99,9.12,11,18.35,14.85,28.6,6.2,16.51,11.54,33.23-1.48,48.16-2.26,2.59-5.09,4.27-7.57,6.56,12.76,1.15,24.23,6.2,35.5,11.83-4.25-12.06-.8-21.62,4.96-32.18l10.12-47.75-10.14-5.52c-1.69-3.61,5.47-35.01,6.97-40.89,2.32-9.1,5.88-20.57,8.97-29.95,2.76-8.39,10.24-21.64,11.72-29.04.34-1.72.7-10.3,0-11.26l-18.83-2.3c-2.97,2.89-2.62,9.65-4.25,12.18-.97,1.5-2.84,1.1-2.96,1.68-.44,2.02,8.23,17.65,8.42,22.5.27,6.85-7.21,6.13-11.64,3.74-1.45-.78-6.45-6.74-7.26-6.21-4.21,6.12-2.87,22.24-8.57,25.93-5.42,3.5-5.05.16-8.3-.12-3.06-.26-4.21,3.07-8.81-.47-3.72-2.86-2.17-1.51-5.85-3.36-8.66-4.35-6.5-22.27-3.63-29.85,2.56-6.74,8.47-11.33,12.14-17.44-4.6-1.88-3.36-5.55-2.62-9.52-13.11-.54-26.61-.52-39.8-.03-35.12,1.3-70.38,4.68-104.84,11.2ZM215.13,327.28v9.2c0,2.08,28.62,11.24,32.34,12.04,23.72,5.12,49.33,5.94,73.02.46l1.75-8.19-1.46-.91c-35.14,7.53-72.97,1.19-105.66-12.6ZM180.75,336.02c-6.72-.37-17.66-3.62-23.86-3.51-.95.02-1.86-.11-2.63.64-7.68,9.99-15.76,18.22-14.73,31.91.27,3.6,1.86,10.97,5.89,11.52-.96-3.3-1.03-21.79,2.32-22.34s.4,7.55.33,8.88c-.24,4.57-.76,19.7,6.26,17.41,1.08-3.78-2.06-20.55,1.42-23.04,1-.72,2.26-.93,2.74.47s-.93,12.65-.49,16.25c.62,5.07,4.08,12.27,7.42,4.29,1.12-2.68,1.97-8.91,2.95-12.31,1.37-4.78,1.98-10.16,6-13.62l2.33.3c.91,4.15,14.26,15.18,13.17,5.31-.27-2.48-7.55-20.96-9.13-22.15ZM328.48,376.33c-2.29-8.25-4.13-16.67-7.16-24.7-14.09,4.21-30.66,4.63-45.4,3.95-21.25-.99-44.24-5.98-62.75-16.45-10.36,22.52-15.98,45.11-21.77,69.15-.12.51-1.06.58-1.17,1.06-1.92,8.11-3.42,16.38-4.59,24.65,1.41,4.22,44,12.77,50.3,13.51,24.97,2.92,77.03,1.66,99.31-10.31,5.78-3.11,4.04-5.96,3.48-12.27-1.43-16.31-6.01-33.33-10.24-48.57ZM552.97,358.92c-25.54-7.71-51.47-15.43-78.15-17.84l-.68,16.79c27.4,3.56,54.54,10.37,79.91,21.32.71-.49.69-.58.73-1.35.24-5.31-2.81-13.08-1.81-18.92ZM450.5,374.6c-12.14-.68-25.23-2.21-32.93-12.76l-92.55-15.4c-2.26,1.41,2.46,15.57,3.26,18.42,5.45,19.26,13.28,45.73,14.37,65.3.57,10.14-1.44,5.09-6.54,11.18l-.67,48.29c6.87-2.76,13.76,3.63,19.9,1.82,9.09-2.67,32.24-18.16,37.97-25.79,7.36-9.81,10.75-34.81,15.67-47.4,6.07-15.54,15.28-27.21,30.86-34.26,3.41-1.54,7.09-2.22,10.56-3.58l.1-5.82ZM556.9,399.48c.55-5.43.77-15.79-4.7-18.43-16.73-8.05-52.09-17.06-70.66-19.41-1.5-.19-7.06-1.23-7.74-.22l-.33,19.46c7.71,1.48,15.59.76,23.37,1.62,14.06,1.55,28.57,5.86,41.74,10.85,5.97,2.26,11.45,7.41,18.32,6.13ZM461.01,381.84c4.73,17.71,32.16,24.31,47.98,19.37,3.16-.99,11.91-5.86,12.49-9.22.32-1.85-11.04-4.3-13-4.7-11.74-2.41-22.94-1.4-33.91-2.91-4.44-.61-7.95-4.18-13.56-2.55ZM539.19,397.01l-14.63-5.25c-13.82,25.09-58.05,14.74-67.94-9.19l-15.38,4.28c12.58,30.48,71.08,44.05,93.1,18.66,1.15-1.32,5.79-7.04,4.85-8.51ZM537,478.19c6.77-22.93,10.34-50.41,2.58-73.33-24.86,31.11-85.56,17.27-101.9-16.42-16.16,7.85-21.62,21.04-27.37,36.89-6.64,18.28-6.89,36.73-22.26,50.19-2.26,1.98-13.03,8.54-13.88,9.79-1.14,1.68.08,11.45.76,13.67.19.64,1.18.62,1.44,1.34,1.53,4.17,7.28,17.08,12.54,16.73.79-.05,3.1-1.27,4.16-1.67,23.37-8.85,42.48-25.8,52.86-48.36,4.19-9.1,5.89-21.2,9.88-29.44.34-.7,1.86-1.48,2.24-2.49,2.07-.01-.48,9.6-.88,10.91-.27.86-1.22.91-1.51,1.83-5.29,16.81-10.74,33.04-23.57,45.74,19.4,4.07,40.32,5.21,60.18,4.64,6.3-.18,36.16-2.06,39.74-5.62,2.26-4.11,2.67-9.28,4.02-13.6.17-.54.93-.64.97-.79ZM117.28,397.49c-1.11-.64-1.13-5.16-7.2-6.93-8.77-2.56-16.09-.36-23.37,4.53-1.38.92-3.95,4.21-4.85,4.42-1.68.39-2.73-1.97-4.6-2.42-5.99-1.44-16.27,3.39-19.39,8.6-.85,1.42-1.63,5.17-1.99,5.56-.81.88-4.04.76-5.47,1.44-5.81,2.79-11.79,9.44-13.14,15.78-.66,3.12-.02,7.37-.58,9.25-.36,1.21-4.44,6.04-5.56,8.27-1.05,2.09-3.29,8.23-3.29,10.36.03,6.83,6.72,11.34,7.16,13.92.76,4.47-2.68,7.63-.32,14.73,2.58,7.8,9.29,7.13,10.89,9.66,2.01,3.18-.93,9.32,5.27,13.63,5.16,3.58,9.11,1.47,14.04,2.4,1.46.28,2.72,1.77,4.42,2.15,4.39,1,9.87,1.5,13.69-1.21.18-.77-9.81-11.49-10.52-11.84-1.27-.62-7.47.6-10.55.05-24.66-4.37-18.64-39.85,7.26-30.59,2.24-7.93.38-14.59-2.6-21.95.29-.96,5.68-1.62,7.45-2.45,8.45-3.98,5.26-14.85,6.94-16.08,9.54,1.07,17.5-.16,20.84-10.09,3.05.31,5.24,2.45,8.56,2.53,6.84.16,9.66-4.79,13.77-9.12,1.96-.37,9.01,11.31,11.34,9.71,5.72-9.62,2.56-20.7-8.82-23.5-2.36-.58-8.88-.53-9.38-.82ZM559.88,414.46c-4.85-6.42-8.74-12.19-16.65-15.26l-1.32.7c4.17,14.48,5.63,30.3,4.57,45.35-.37,5.31-3.02,13.14-2.68,17.78.19,2.63,2.71,6.61,3.3,9.89,1.27,7.12-.16,14.37.02,21.54,8.53,5.45,17.81,6.91,27.87,6.36,1.4-.42,5.27-18.16,5.61-20.82,3.11-24.1-6.61-46.9-20.71-65.55ZM132.54,426.29c-.98-1.34-6.94-10.73-8.79-9.61-4.1,7.5-13.01,8.4-20.62,5.86-3.17,7.96-11.39,10.57-19.46,9.95-.69,9.09-4.85,13.98-13.02,17.36,3.3,5.94,4.55,16.81-.23,22.3-2.41,2.76-3.56-.38-5.65-.77-17.14-3.19-21.42,15.88-7.74,23.51,7.42,4.14,13.02,0,16.58,1.1,1.61.5,8.69,11.06,11.69,13.36,16.8,12.88,50.42,6.9,63.42-8.88,15.72-19.09-3.73-57.19-16.16-74.18ZM225.36,476.87c1.14-3.37,9.42-25.6,8.57-26.71l-37.88-8.22-16.1,70.71c.65,1.71,3.58-3.73,4.26-4.31,9.5-8.14,23.68-7.75,34.86-3.59-1.8-8.78,2.49-18.66,5.35-27.06.18-.53.9-.66.95-.82ZM332.81,489.63v-47l-35.41,7c-.31,17.36,1.69,35.51.58,52.83-.24,3.82-3.22,10.6-1.38,13.83,1.94,3.4,13.18,6.44,17.13,6.85,2.68-7.33,1.11-4.61-1.22-8.97-6.5-12.15,8.42-12.96,9.66-14.82.37-.55.13-2.88.72-4.21,1.71-3.83,6.36-4.53,9.91-5.53ZM534.66,508.69l7.79-3.05c.78-12.56,4.66-24.6.74-37.05-1.28.23-1.07,1.39-1.33,2.27-1.67,5.57-4.69,14.47-5.82,19.29-1.42,6.09-.09,12.43-1.38,18.53ZM253.91,494.89c-1.21.19-1.83-.52-1.98-1.65-.34-2.57,6.94-18.45,1.57-20-4.72-1.36-11.68,21.33-12.69,25.29,3.81,5.07,10.35,6.98,9.16,14.76l-2.65-.31c-1.32-1.89-1.02-4.3-2.3-6.24-1.47-2.22-4.88-2.7-6.24-4.94s-3.11-13.84-7.55-10.2c-5.44,4.45,4.39,22.49,2.48,28.74-8.27,9.57-13.18,22.05-23.61,29.64l-6.49-3.8c-5.98,6.69-8.54,15.72-12.2,23.77-.48,1.05-4.5,4.18-2.28,5.79,10.67,4.58,20.48,9.35,32.16,4.51,10.11-4.18,22.84-26.57,28.21-36.25,2.24-4.05,3.78-10.87,6.76-14.25,2.05-2.33,4.35-2.26,6.18-3.68,4.91-3.78,10.37-14.2,12.03-20.18.38-1.36,3.47-12.97.82-12.97l-5.7,10.38-2.51.12c1.16-5.01,2.8-9.57,3.98-14.63.14-.59,1.88-.2,1.23-3.27-.03-.12-1.58-1.83-1.7-1.84-4.19-.13-5.78,12.25-7.78,15.15-1.88,1.91-2.02-.39-3.62-.68,3.76-2.26,7.43-22.25,4.25-22.99-6.46,4.56-6.65,12.98-9.53,19.71ZM370.28,488.32l-14.47,6.24c-2.11,8.13.06,19.86,6.57,25.66,7.92,7.06,13.86.9,22.37-1.01.53-.6-9.18-10.35-10.24-12.41-2.76-5.35-3.86-12.52-4.22-18.48ZM352.1,509.15c-1.19-4.3-.13-9.14-.88-12.62-1.11-5.11-24.19-5.92-26.28,1.32.15.94,6.02,2.13,4.58,3.6-3.69,1.54-13.44,1.49-14.82,5.9-2.21,7.06,5.35,6.27,5.65,8.92-4.41,7.91-5.41,9.7,4.91,12.14,1.34,1.72-2.93,1.62-1.83,4.42,1.53,3.91,5.92,3.92,9.23,4.95l.16,4.1c8.07,3.31,18.45-2.51,24.62-7.57.94-.77,7.38-7.08,7.54-7.59.23-.76.17-1.49-.65-1.88-2.9-.87-5.82-3.85-7.48-6.32-.79-1.17-4.47-8.36-4.75-9.36ZM531.17,496.3c-25.5,6.09-54.19,6.21-80.33,3.83-5.6-.51-16.22-3.74-21.03-3.25-4.54.47-5.93,10.8-4.31,12.8,3.89,4.8,40.86,8.59,48.3,8.89,10.03.41,49.46-.12,56.28-6.23,1.3-1.16,1.71-2.27,1.94-3.97.15-1.13.74-9.86.66-10.54-.1-.87-.53-1.69-1.53-1.53ZM574.1,504.1c-10.22.73-19-2.43-28.26-5.92.5,3.16-1.56,7.1-1.2,10.05.55,4.45,21.49,9.53,24.91,5.94.87-.92,5.38-9.31,4.55-10.06ZM223.67,517.9c-2.74-19.2-38.08-16.33-42.08.98,2.88-.38,5.04-2.88,7.92-3.92,9-3.24,26.13-3.04,34.16,2.94ZM568.84,517.9h-10.85c-2.42,0-8.89-2.63-11.3-3.82-4.98-2.45-4.79-6.3-12.09-1.7-.36,4.76,9.98,13.98,13.72,12.99,2.41-.64,3.16-3.59,6.05-2.87l-.67,4.95c6.44.33,12.3.82,10.39,9.04-.69,2.97-4.52,5.28-6.41,2.11,7.81-3.82,1.12-10.79-3.98-6.59-5.66,4.66-3.77,15.02,4.27,15.34,11.89.47,13.84-21.25,10.87-29.46ZM437.35,516.59l-12.84-3.73c-6.51,6.73-9.55,15.77-13.92,23.91-4.03,7.51-7.76,14.68-11.44,22.66-4,8.67-15.22,30.62-16.75,39.27-.21,1.21-.56,2.26-.17,3.51.85,2.77,21.39,10.37,25.52,9.67,2.69-15.69,7.38-31.45,11.66-47.18l17.93-48.13ZM191.18,562.32c3.17-6.28,6.14-12.7,10.05-18.59.58-5.21-33.62-24-39.36-26.15-9.26-3.48-23.32-7.26-32.12-1.26,10.34,26.61-25.96,28.82-38.56,13.41-1.53-1.87-3.82-7.36-4.89-7.63-22.31,3.95-34.65,21.82-44.6,40.33-.55,1.03-1.7,1.26-2.08,2.02-1.25,2.43-6.96,15.71-6.64,17.52.45,2.57,15.5,8.81,18.47,9.85,5.96,2.08,12.16,4.13,18.59,3.67.96-.31,3.48-8.13,4.21-9.71.31-.66,1.22-.81,1.45-1.36,1.99-4.69,4.68-16.7,7.36-20.1.85-1.08,1.08-1.27,2.55-1.06,1.02,1.02-8.66,22.15-8.4,26.43.12,2.02,8.27,23.16,9.23,24,2.81,1.09,7.44.45,10.67.17,25.8-2.25,54.74-11.54,75.61-26.95l-11.16-49.28c3.95,1.19,4.45,9.52,5.65,13.26,2.12,6.6,3.75,15.64,6.29,22.11,1.08,2.74,7.44,7.76,9.78,6.1.76-.54,6.63-14.25,7.91-16.78ZM532.68,515.26c-3.51,1.38-9.79,1.93-12.83,3.27-.57.25-1.24-.5-.99.99,3.63,11.1,8.27,21.16,10.88,32.53,3.88,16.9,5.65,36.22,7.59,52.89.31,2.64-.32,5.87-.05,8.61-.13,1.25,0,.91.98.97,2.49.14,16.36-4.55,16.6-7.41.36-4.24-1.26-14.38-1.9-19.12-1.98-14.62-6.57-32.06-10.91-46.28-2.75-9.02-6.75-17.42-9.38-26.45ZM127.02,516.58c-12.94,4.37-24.7,4.04-37.46-.65-2.19,23.71,48.01,31.03,37.46.65ZM222.29,529l.8-8.17c-6.37-7.12-32.52-6.22-38.15.07-4.2,4.69,4.71,9.54,6.76,8.77,2.45-.92-.19-9.67,2.05-8.49,2,1.05,1.39,6.02,1.95,7.92l5.62,1.28v-8.55s2.22-.03,2.22-.03c2.58,3.46-.16,10.61,6.54,8.6,2.34-.7-.3-8.36,2.08-9.22,3.07,2.53,2.37,4.76,2.3,8.54l7.82-.73ZM460.28,520.6l-18.69-3.09c-2.11.4-7.09,16.01-8.25,18.92-4.14,10.38-9.26,22.36-12.52,33.01-4.39,14.32-7.28,29.12-10.42,43.75,5.76,1.39,11.64,2.98,17.5,3.89,2.42.38,16.6,2.36,17.24,1.29,1.92-26.47,4.79-53.03,10.68-78.9.11-.46,1.08-.51,1.2-1.03.5-2.13,3.81-17.11,3.26-17.83ZM525.06,548.54c-1.15-4.25-7.18-25.98-9.14-28.02-1.35-1.4-12.01-.15-14.16,1.1-.98,3.33,1.18,4.23,1.27,4.67,2.47,11.57,3.83,26.06,4.65,37.95,1.28,18.46,1.28,37.13,0,55.53l26.34-4.35c-1.04-17.01-1.74-34.24-4.82-51.01-1-5.42-2.86-11.08-4.16-15.87ZM314.21,526.64c-4.83-2.45-12.54-2.93-17.55-6.12,1.83,5.01,9.41,7.14,14.11,8.56.73.22,9.68,3.19,7.92.63-2.11-.05-3.94-2.8-4.48-3.08ZM502,544c-1.14-7.52-1.14-15.38-4.13-22.53l-34.13-.86-9.85,43.72-6.06,55.13c6.49,1.34,55.32,2.69,56.95.35.67-24.54,1.69-50.83-1.71-75.17-.06-.44-1.05-.52-1.07-.65ZM541.88,529.06l-1.31-1.96v1.96s1.31,0,1.31,0ZM548.82,532.72c.32-.68,1.46-1.67,1.72-2.56l-.09-1.43-5.93-.3c2.31,3.98-1.15,4.99-1.35,5.72-.26.98,1.16,6.9,1.68,8.08.63,1.44,3.12,4.62,2.8,1.16-.51-5.43-1.17-5.61,1.18-10.66ZM219.54,535.45c.34-.24,2.51-3.33,2.15-3.75-8.61,2.39-18.1,1.34-26.94.66-.95.79,3.24,4.1,4.25,4.28,2.67.49,12.91.6,15.71.2,1.4-.2,3.71-.62,4.83-1.4ZM215.12,540.25c-6.17,1.45-16.8-1.52-5.59,5.93l5.59-5.93ZM53.39,674.99c.57.56,0,13.88,0,16.1,0,.82,1.31,3.93,2.43,4.21,6.15,1.51,5.23-22.28,7.42-25.91,3.88-4.21,14.84,7.32,17.11.07-.08-3.8-11.53-9.62-14.86-11.49-2.75-1.54-4.44.07-5.36-4.5-1.27-6.27.35-32.46,1.17-39.92.64-5.86,1.98-10.25,3.93-15.46-10.09-1-19.6-5.53-28.72-9.78-1.86-.08-2.7,4.49-3.06,5.94-2.06,8.26-2.67,19.31-2.39,27.82.27,8.05,4.43,27.31,3.24,33.5-.51,2.65-4.96,8.41-5.97,11.14-1.6,4.32-5.38,21.23-1.59,24.13,6.9,1.44,3.55-13.04,6.33-17.77.15-.12,2.49-.14,2.58-.05.57.54-2.26,11.63-1.91,14.73.25,2.13,1.55,4.14,1.97,6.23,6.03.78,3.29-6.47,3.83-10.16.17-1.18,1.27-.92,1.34-1.41.19-1.25.29-8.34.68-8.74.55.09,1.68-.16,1.94.02,1.15.78-1.76,18.68,1.66,21.69s4.59-3.27,4.87-5.67c.56-4.69-.65-9.63.7-14.29.21-.73,2.56-.52,2.66-.43ZM88.23,617.15c-.62.62,1.8,10.29,3.73,11.06,14.4.84,28.94-1.53,42.66-5.77,8.81-2.73,38.55-15.51,42.31-23.48,1.05-2.23-1.92-10.35-3.53-10.07-6.57,6.46-15.97,11.37-24.52,14.93-18.91,7.86-40.19,12.09-60.64,13.33ZM267.72,607.29c1.26-1.21-5.17-3.95-5.93-4.25-12.24-4.81-31.18-4.97-44.39-4.98-8.93,0-26.65-.19-34.78,1.38-3.27.63-10.57,8.23-14.22,10.76-20.41,14.11-51.61,22.37-76.21,20.76-.72,15.41,9.2,28.92,21.09,37.74,10.91,8.09,24.63,11.76,36.78,17.79,6.98,3.47,13.57,7.72,20.36,11.51,2.87-10.04,6.51-19.52,14.47-26.62,6.64-5.92,12.75-5.63,20.2-8.73,19.74-8.22,27.38-30.1,41.91-44.21,5.1-4.96,13.45-10.63,20.74-11.15ZM431.42,621.11l-46.01-12.51-3.87,86.03c11.92,4,24.5,6.17,37.12,4.06,1.07-7.03,1.25-14.25,2.28-21.27.07-.5,1.16-.2,1.34-1.42,2.65-18.29,2.25-37.51,9.15-54.9ZM283.26,618.7c-3.25-1.65-5.73-6.5-8.96-7.81-13.4-5.42-31.7,14.95-36.82,25.97,4.07-.25,8.12.19,11.98,1.5,7.28,2.47,40.31,35.82,47.89,43.49,2.45,2.48,5.97,11.73,7.86,12.51,2.45,1.31,20.44-2.04,21.03-2.96-4.52-9.86-3.74-23.47,3.94-31.53l-13.52.03-33.4-41.21ZM544.51,616.49c-14.36,3.91-29.07,6.68-44.04,7.24-.17,2.83,2.09,5.69,2.72,7.49,3.63,10.28,7.32,20.36,11.26,30.15,2.22,5.51,6.16,18.99,9.11,23.08,3.46,4.78,19.63,4.79,25.05,4.17,2.3-.26,10.59-1.87,11.06-4.1l-15.16-68.02ZM253.25,643.45c-5.9-3.39-13.02-3.88-19.72-2.97-4.84,6.38-10.46,14.4-16.87,19.29-.71.54-13.37,6.48-5.85,6.7,9.02.26,35.13-14.34,41.44-21.07.59-.63,1.28-.81,1-1.94ZM354.51,658.57l5.27.31,6.91,2.98c1.69-6.59-1.64-8.46-7.72-7.73-9.4,1.13-15.35,11.81-17.45,20.04-.48,1.89.83,5.06-1.46,4.79,1.63,1.3,1.54,1.64,1.31,3.93l17.72-12.23c.42-2.56-6.77-3.57-8.51-3.55,1.33-6.39,13.66,5.3,12.51-2.91l-.95-1.75-7.61-3.88ZM349.25,656.57c-.15-.77-.53-1.13-1.36-1.05-1.18.11-12.34,2.55-12.92,2.88-.47.27-6.43,7.93-6.74,8.53-3.22,6.28-2.42,16.52-.65,23.17l11.01-5.39c-1.14-10.33,1.95-21.99,10.67-28.14ZM369.64,661.85c-2.35,5.24-8.06,10.45-12.49,14.13-7.31,6.07-24.29,16.89-33.18,19.41-5.18,1.47-10.46,1.33-15.47,2.93,4.61,6.39,15.45,2.22,21.48-.2,8.6-3.45,37.61-21.79,40.01-30.33.35-1.25.98-5.06-.34-5.94ZM253.26,747.95c1.42-8.79-1.53-6.74-5.53-10.58-7.07-6.79-8.41-22.92-3.2-31.17-10-10.13-19.38-21.41-29.74-31.2-5.63-5.33-8.39-10.25-16.25-7.71-11.4,3.68-18.62,13.05-22.86,23.79,1.11,1.61,3.17.61,4.59,1.34,1.92.99,10.53,7.96,13.11,9.9,16.06,12.12,33.1,31.03,49.43,41.29,3.1,1.95,6.66,4.21,10.45,4.34ZM280.71,687.64l-2.04-.68c-8.83,11.26-13.65,25.8-18.25,39.42-.15.44-1.06.57-1.34,1.45-1.28,3.95-7.48,24.66,1.35,19.72,8.02-4.48,19.34-39.42,20.79-48.88.6-3.9,1.49-7.36-.51-11.03ZM272.98,688.8c-.99-.97-7.24,2.37-7.89,3.93,3.54-.03,8.2,1.03,7.89-3.93ZM560.92,688.82c-11.87,3.3-22.84,4.27-34.83.97-.08.32.87,4.95,1.11,5.42,1.95,3.87,30.4,6.51,34.48.51l-.76-6.9ZM173.71,697.99c.87.8,3.93-1.8,3.93-2.3-.03-3.14-5.73.64-3.93,2.3ZM269.7,695.37c-16.15-2.54-17.18,15.53-12.15,26.28.49.26,2.67-3.38,2.88-3.81.64-1.29,5.21-12.27,5.31-12.96.42-2.83-6.71,2.63-6.56-1.62,4.64-2.3,9.41-1.63,10.51-7.89ZM418.28,702.6h-20.05c-3.25,0-13.03-4.22-16.76-5.26l.32,8.55c10.58,5.87,24.1,5.62,35.76,3.21l.73-6.5ZM549.11,702.61c-8.64.21-17.05-1.81-24.99-4.96-5.89,5.7-4.83,14.58-4.27,22.05,1.33,2.58,17.52,2.02,20.71,3.28-.43-7.57,2.65-15.61,8.55-20.37ZM517.55,720.34c-2.19-7.98-.86-14.77,1.97-22.34-6.94,1.88-9.54-.67-12.34,7.05-1.71,4.73-1.63,9-1.46,13.97l11.82,1.32ZM543.21,722.96l7.22.34c4.21-7.93,7-12.56,16.82-13.43,1.43-1.94-1.93-8.19-3.31-9.98-11.89.53-22,10.66-20.72,23.07ZM506.38,700.63c-.59-.45-8.78,1.37-9.2,3.27,4.71-.56,7.59,2.62,9.2-3.27ZM253.26,702.6c-13.45,4.72-11.19,28.03-.33,34.84l3.65-10.89c-4.08-7.31-4.97-15.7-3.32-23.95ZM503.75,706.55c-4.96-.23-9.88-.32-13.59,3.45l-.2,1.98c3.31,4.18,7.13,6.46,12.75,5.81l1.05-11.25ZM407.76,713.12c-4.1.58-9.26.51-13.4-.08-4.41-.62-11.7-4.33-14.58-4.47-3.83-.2-10.52,2.6-14.75,2.58,8.47,7.13,12.18,19.54,12.49,30.23l15.17-.29,5.03-16.63,10.05-11.35ZM421.12,723.46c-.53-2-1.42-10.48-2.82-11.4-13.1,2.54-21.18,15.46-22.11,28.03,1.02,1.38,10.6.52,11.96-.62.83-.69,3.93-7.99,5.83-9.95,1.99-2.06,5.5-3.74,8.24-4.59l-.09-1.23c-.29-.06-.96-.08-1.01-.24ZM373.58,740.72c.53-7.41-1.32-16.69-5.94-22.66-4.97-6.43-8.54-6.41-15.77-3.32l5.11,9.37,3.75,15.31,12.85,1.29ZM569.46,720.97c.45-.52-.2-6.46-.75-7.38-2.35-3.93-15.88,4.21-14.33,9.39l15.08-2ZM352.14,722.06c-.78-1.38-2.55-6.22-4.23-6.05-4.45,2.21-8.79,4.15-11.8,8.27,2.85-.38,10.85-4.73,11.83-.65-2.28-.19-12.45,2.44-12.22,5.29l4.01,4.34,6.55-4.37.47,1.76-2.73,4.78,13.11,3.32c.17-6.17-2.07-11.51-5-16.68ZM489.27,715.75l-1.3.32c-.52,4.76,1.74,6.47,5.56,8.25,12.67,5.91,50.33,9.12,64.45,7.83,4.97-.45,12.7-1.82,11.18-8.54-2.2.64-4.34,1.61-6.64,1.91-12.52,1.65-62.22-1.68-72.19-7.9-.67-.42-.96-1.13-1.06-1.88ZM422.13,728.99c-3.24-2.78-10.86,6.85-9.45,9.1,5.57.47,11.48-2.94,9.45-9.1ZM333.46,731.52c-2.75-.58-.49,4.45.11,5.48,8.1,13.91,63.79,13.33,78.29,10.11,4.2-.93,9.58-3.21,8.73-8.36-20.63,7.98-48.58,7.43-70.05,2.32-5.65-1.34-14.71-3.86-17.08-9.55Z"/>
  <rect x=".14" y="841.29" width="595" height=".66" fill="#fff"/>
  <path d="M4.08,333.2c34.46-6.52,69.72-9.89,104.84-11.2,13.19-.49,26.7-.52,39.8.03-.74,3.97-1.98,7.64,2.62,9.52-3.67,6.11-9.58,10.7-12.14,17.44-2.87,7.57-5.03,25.5,3.63,29.85,3.68,1.85,2.13.5,5.85,3.36,4.61,3.54,5.75.2,8.81.47,3.25.28,2.88,3.62,8.3.12,5.71-3.68,4.36-19.8,8.57-25.93.8-.53,5.8,5.42,7.26,6.21,4.43,2.39,11.91,3.11,11.64-3.74-.19-4.84-8.86-20.48-8.42-22.5.13-.59,1.99-.18,2.96-1.68,1.64-2.53,1.28-9.29,4.25-12.18l18.83,2.3c.69.95.34,9.54,0,11.26-1.48,7.4-8.95,20.64-11.72,29.04-3.09,9.38-6.65,20.84-8.97,29.95-1.5,5.88-8.66,37.28-6.97,40.89l10.14,5.52-10.12,47.75c-5.76,10.56-9.21,20.12-4.96,32.18-11.26-5.64-22.74-10.68-35.5-11.83,2.48-2.29,5.31-3.97,7.57-6.56,13.02-14.93,7.69-31.66,1.48-48.16-3.85-10.25-8.86-19.47-14.85-28.6v-1.61c6.31-7.38,5.68-22.25-3.09-27.44-5.27-3.12-9.58-1.49-13.67-2.77-1.17-.37-2.81-3.55-4.45-4.76-8.62-6.36-20.83-3.27-29.46,1.35-1.32.7-4.47,3.94-5.1,4.06-1.01.19-6.59-1.99-9.04-1.81-4.71.35-12.45,5.21-15.51,8.86-1.33,1.58-2.65,5.31-3.32,5.88-2.83,2.41-9.19,3.26-13.56,8.46-6.41,7.62-3.66,12.19-5.79,19.52-.64,2.22-4.88,5.58-5.81,7.37-3.74,7.23-4.49,17.31.17,24.31.71,1.07,3.47,1.95,3.85,3.59.26,1.13-1.48,7.15-1.18,10.37.42,4.6,2.94,9.07,6.59,11.81,1.34,1.01,4.15,1.2,4.89,2.34,2.94,4.56.22,11.97,8.96,16.02,5.23,2.43,7.74.65,12.02,1.07,5.2.5,7.34,4.08,14.9,2.98,1.78-.26,7.4-3.22,7.73-1.37l-.61,4.23c-13.49,3.15-25.72,11.15-34.36,21.85-6.2,7.68-19.03,29.43-21.14,38.67-1.4,6.14,2.5,5.71,2.74,7.57.09.66-2.69,10.83-3.12,12.98-1.58,8-2.45,15.69-1.94,24.53.48,8.28,4.85,21.58,3.99,28.91-.29,2.44-5.29,9.19-6.56,13.17-1.64,5.15-5.37,23.4-.3,26.52,3.66,2.25,7.16-.8,7.48-.59.23.15.74,3.8,3.12,4.48,2.55.73,5.16-1.18,6.45-.96s1.11,3.4,5.22,3.09c3.45-.26,3.99-3.51,5.24-3.3,1.07.18,1.41,3.23,5.14,2.5,5.06-.99,4.91-7.79,5.77-11.25.12-.5,1.16-.45,1.26-.94.47-2.34.85-14.71,1.35-15.3,4.61,3.06,19.86,6.98,17.44-2.65-1.63-6.46-15.32-11.38-20.08-15.57.27-5.41-.32-10.93-.04-16.33s.92-12.91,1.34-19.05c.2-2.89,2.27-16.28,3.65-18.04,1.23-1.57,6.23-.62,5.59-5.27l1.91.03c1.93,7.18,5.4,13.81,7.78,20.82,7,20.6,5.21,36.68,23.15,52.44,11.15,9.79,25.64,14.03,38.71,20.45,6.1,3,19.99,12.41,25.05,13.76,4.68,1.25,9.66-4.8,11.83-4.03,7.06,6.16,14.8,11.54,22.04,17.47,10.8,8.83,37.81,36.17,50.66,36.81,4.88.25,7.13-1.59,10.18-4.92,7.4-8.08,20.66-43.99,20.42-54.58-.37-16.5-19.61-4.01-26.29.73-2.69,1.91-10.29,9.68-12.73,9.36l-33.35-33.41c8.56-2.42,17.4-5.61,25.07-10.11,3.11-1.82,16.52-12.61,18.51-12.15,5.78,3.47,9.11,9.41,13.63,14.03,7.86,8.05,19.86,17.78,26.64,25.95,6.44,7.76,6.31,18.6,20.38,17.79,13.52-.78,53.71-24.3,56.03-37.97,4.84-28.52-40.89-7.12-53.71-9.07-12.9-12.82-23.18-30.03-35.94-42.95-26.81-27.15-68.25-17.22-102.73-17.91-1.57-5.49-5.43-10.15-5.34-16.34,1.87.77,5.46,2.78,7.41,2.51,2.44-.34,2.9-3.05,3.77-3.51,1.54-.81,18.73,6.5,24.6,6.28,18.96-.72,29.81-20.38,38.03-35.03,2.31-4.12,6.93-16.73,9.09-19.14,1.37-1.52,5.65-2.73,8.07-5.08,5.94-5.78,13.59-22.98,12.94-31.13-.34-4.23-4.01-4.49-4.53-6.04-.63-1.87.53-5.1-.71-7.01-1.11-1.71-6.37-1.54-6.61-1.78-.39-.39.25-6.6-2.82-8.04-3.34-1.57-5.4,1.98-7.33,1.55-.66-.15-.74-4.39-5.04-3.72-7.15,1.12-10.31,15.68-12.46,21.41-2.48-.73-2.9-3.79-6.24-4-6.33-.41-7.91,7.41-7.54,12.21.56,7.38,7.95,18.11.65,24,3.38-10.2-6.38-16.86-5.18-26.54l16.32-46.8c18.37,1.96,36.88,1.6,55.25-.29.67,17.36,1.16,34.9.69,52.29-.37,13.47-6.44,19.79,9.18,26.92,4.04,1.84,15.37,3.82,17.56,5.13.41.24,6.05,5.06,7.17,6,2.36,1.96,2.15,4.67,6,5.48,11.03,2.35,23.22-7.32,30.73-14.32,1.18-1.1,2.74-4.35,3.66-4.89,1.47-.85,6.7-1.35,9.02-2.16,8.82-3.08,18.05-6.88,26.37-11.1,6.53-3.32,12.67-7.74,19.15-10.75-1.17,2.24-.15,5.52-.65,7.4-.07.25-2.57,2.42-3.39,3.99-11.48,21.88-23.75,43.58-32.95,66.34-1.32,3.27-8.28,20.97-7.41,22.82.62,1.32,4.58,2.38,4.79,4.78.27,3.12-2.15,12.43-2.45,16.6-1.94,26.95-2.26,54.07-2.73,81.07-15.68,3.97-40.47,4.98-48.26,21.76-.67,1.43.54,3.08-1.62,3.64,1.95,1.8.82,3.51,1.84,6.06,3.58,8.94,24.03,12.89,32.7,13.97,11.72,1.45,46.29,2.14,55.99-3.15,7.39-4.03,6.7-15.91,6.14-23.48-.74-9.97-5.54-13.26-3.92-23.48,3.2-20.23,4.94-43,8.68-63.74,1.07-5.91,3.09-11.35,6.78-16.16,20.33,3.62,40.94,2.92,61.5,3.54l25.56,69.95c-8.53,1.32-21.38,1.7-28.6,6.58-11.56,7.82-15.43,20.98.18,26.77,13.4,4.97,58.69,10.2,71.4,5.35,9.22-3.52,7.64-14.25,5.61-22.4-1.27-5.11-5.78-10.79-7.35-15.77-1.91-6.08-2.21-16.82-3.82-23.68-3.79-16.23-8.69-34.19-13.02-50.34-.42-1.57-1.46-5.21-.09-6.37,5.02-1.67,9.71-2.27,9.92-8.53.27-8.05-2.62-23.02-4.18-31.37-1.65-8.84-4.13-17.49-6.39-26.15,2.76-2.79,12.23,6.46,19.74-1.63,3.74-4.03,6.79-14.31,6.84-19.73.03-3.12-1.81-9.15-1.48-11.02.22-1.26,3.55-6.66,4.34-8.86,8.24-22.79,11.98-37.51,4.13-61-5.46-16.34-14.25-30.91-25.67-43.67,4.85-.31,6.47-3.32,6.26-7.91l29.25,10.2v432.17H4.08v-504.15ZM71.49,348.32c-2.99.43-2.48,23.8,2.29,15.4-1.74-2.51,1.18-15.9-2.29-15.4ZM63.54,357.23c-.9-1.18-5.18-6.67-6.86-4.97-1.1,1.12,4.08,6.57,5.14,8.33s1.13,6.47,4.3,5.42-1.63-7.53-2.59-8.78ZM84.29,353.58c-4.51-1.84-8.39,11.22-6.48,12.39,3.77,1.28,2.75-3.4,3.81-6.19.85-2.23,2.76-3.72,2.67-6.2ZM29.73,549.44c3.56.48,3.02-4.99,3.91-7.59.69-2.01,3.9-3.96,1.66-5.55-3.55-.98-6.23,10.75-5.57,13.14ZM20.86,536.96c-2.41,1.74.68,2.75,1.52,4.38,1.46,2.84,1.82,5.77,3.73,8.09,3.3-2.61-1.93-13.33-5.25-12.47ZM297.97,558c-6.84-2.61-11.34,13.68-9.53,17.09,4.11,3.88,2.69-6.67,4.58-10.55.74-1.52,6.18-5.47,4.96-6.54ZM283.29,562.8c-.48-.73-6.04-6.25-6.38-3.13,2.86,4.66,5.8,9.78,6.62,15.04.79,2.82,2.27,2,2.65-.59.42-2.9-1.24-8.82-2.88-11.32ZM297.96,576.39c.47-.32,1.84-9,4.74-10.07l-.47-1.76c-5.7-1.12-9.29,15.19-4.27,11.83ZM364.17,577.24c-3.11-4.46-12.13-6.18-17.18-5.4-8.44,1.3-22.43,12.04-5.89,15,5.73,1.03,30.83,1.53,23.07-9.6ZM474.82,671.05c-2.39-2.51-11.1,13.04-9.2,15.77l2.96-.65,6.24-15.12ZM462.33,687.48c-.36-5.93-3.45-13.8-9.51-15.78-3.27.62,3.72,6.9,4.19,7.77,1.24,2.26,1.95,5.45,2.79,7.91l2.53.1ZM482.05,676.31c-6-.53-9.65,6.5-9.2,11.83l2.03-.4c.19-5.83,6.24-6.91,7.17-11.43ZM109.27,711.8c-3.04-3.32-13.41,18.7-8.86,21.68,1.96.41,2.91-8.84,3.59-10.86,1.49-4.47,4.54-6.73,5.27-10.82ZM95.47,733.49c.3-6.43-3.31-17.31-11.17-16.42.53,3.01,3.39,3.45,5.38,6.78.9,1.5,3.77,11.82,5.79,9.65ZM120.45,719.69c-2.97-2.38-16.58,7.42-14.8,12.49,1.8,2.49,4.52-3.88,6.23-5.6,3.07-3.09,6.56-3.72,8.57-6.89ZM52.52,752.1c-4.61-7.05-18.99-7.13-24.43-.86-11.07,12.75,32.35,12.96,24.43.86ZM146.61,755.37c-8.28.8-42.23,17.86-22.08,24.99,10.21,3.61,35,3.22,45.09-.66,13.68-5.27-4.84-19.95-11.9-22.66-3.63-1.39-7.24-2.04-11.12-1.66ZM539.71,765.15c-8.14.38-15.47,15.35-11.96,22.23,3.11.99,2.25-5.95,2.85-8.31.45-1.75,1.81-4.93,2.84-6.36.97-1.35,11.38-7.8,6.26-7.56ZM506.82,766.44c-.79.27-1.57,1.14-.79,1.91,8.05,3.62,12.46,9.86,13.65,18.56l2.15,1.13c3.29-1.06-2.82-13.27-4.38-15.33-1.8-2.36-7.38-7.39-10.63-6.28ZM295.13,775.12c-1.31-1.04-2.79-1.54-4.37-.86-1.29,2.36,3.96,5.82,4.97,7.8,2.2,4.3,1.41,7.06,2.26,10.91.62,2.84,2.8,1.52,3.25-.67.95-4.55-2.46-14.29-6.1-17.18ZM434.6,773.75c-5.7.15-21.85,8.07-17.68,15.33,3.93,6.83,43.92,8.67,32.92-7.94-2.56-3.87-10.58-7.52-15.24-7.39ZM305.44,787.62c-.86,1.87-1.6,3.8-1.5,5.91,4.27,4.11,4.6-4.13,6.03-6.95.64-1.27,1.7-2.88,2.57-4.01,1.14-1.48,7.25-6.08,7.11-6.68-.9-4.09-9.08,3.53-10.14,4.96-.58.78-3.72,5.98-4.07,6.76ZM551.09,774.9c-5.35-3.82-20.62,11.04-17.74,13.8,2.56,2.45,6.34-6.26,8.19-7.91,4.04-3.63,8.92-2.03,9.56-5.88ZM278.31,780.21c-1.56,3.56,4.72,4.31,7.38,6.63.85.74,9.45,14.66,7.37,5.13-.86-3.94-10.44-14.06-14.76-11.77Z" fill="#fff"/>
  <path d="M590.54,3.89v42.07l-10.81,3.94c-9.73-25.03-48.12-20.25-54.03,4.67-3.96,0-7.29-3.06-11.86-3.29-9.04-.47-18.26,6.82-17.98,16.37-10.97-4.82-28.02,1.85-32.06,12.97-.58,1.58-3.07,10.7.18,10.7h126.56v34.84l-49.97.98c-3.33,1.67.52,20.94-2.3,24.65h-15.12c-1.38,0-4.27.57-4.27,2.3v13.47h-9.53c-2.66-2.62.85-13.21-2.3-14.79-1.58-.8-19.04-.53-19.63.43l-2.39,39.99-38.77-34.2c-1.45-1.03-3.41-.83-5-.34-2.41.74-19.17,16.21-22.34,19.07-19.47,17.62-37.44,36.91-57.17,54.25.92-2.17,1.84-7.18,3.23-8.91,1.27-1.58,3.76-2.59,5.3-4.57,9.84-12.59-1.6-24.41-3.77-36.98-3.58-20.79,2.07-46.35-22.97-57.89-11.25-5.18-16.56-2.13-26.78-3.42-2.26-.29-6.62-2.98-9.56-3.62-23.97-5.22-52.65,5.82-64.58,27.51-3.7,6.73-7.82,20.62-12.37,25.56-6.11,6.65-20.95,9.96-20.34,23.11.33,7.09,7.05,10.25,7.23,11.92.16,1.5-1.71,3.98-1.95,5.98-1.06,8.75.85,14.06,7.17,19.98l-20.6,10.41-44.8-32.77c-4.55-2.26-7.72-3.85-13.01-3.11-11.29,1.59-38.37,23.5-48.15,31.39-14.1,11.37-27.29,24.1-41.42,35.48-1.33-1.01-.37-3.31-.21-4.8,3.69-35.01,16-67.56,29.15-99.73,1.03-.86,6.24.85,8.55.72,2.47-.14,5.59-2.06,6.59-2.01,1.76.1,4.18,6.97,4.91,8.86,2.36,6.02,6.82,28.27,10.52,30.89,4.6,3.26,12.41-5.27,14.58-9.05,9.98-17.32,7.88-35.84-6.05-50.41,1.03-.88,21.1,12.09,23.33,13.8,4.5,3.45,14.55,14.69,18.51,16.33,12.98,5.4,10.93-15.84,9.11-22.91-3.46-13.45-14.34-22.36-25.97-28.91,12.13-.35,28.26,7.05,39.79,5.92,9.31-.91,2.82-13.34.18-17.96-8.72-15.26-30.47-23.25-47.52-22.13-8.95.59-16.94,4.62-25.33,7.21,10.77-18.91-1.56-70.57-29.6-63.44-11.29,2.87-7.15,22.23-4.25,29.91-11.77-17.18-35.67-23.45-54.69-14.56-3.63,1.7-7.56,3.94-6.36,8.54,1.43,5.47,27.1,23.67,33.03,29.45.82.8,9.11,9.59,8.61,10.11-16.29-11.24-39.28-13.99-57.19-4.6V3.89h586.45ZM245.37,60.42c-4.52-24.44-41.37-22.63-47.38-.03-8.25-3.69-21.1,1.69-24.61,9.89-2.38,5.56-2.99,13.05,4.6,13.79l90.59-.13c13.72-8.63,3.3-26.43-10.38-26.85-5.11-.16-8.18,2.45-12.82,3.33ZM376.87,109.71c7.71-1.49,17.25-2.51,24.43,1.54,3.46,1.96,5.61,8.24,8.76,7.7,1.55-.26,2.89-6.17,4.68-8.52,5.83-7.68,14.22-6.85,22.28-8.61,2.67-.58,2.07-2.23-.62-2.65-9.93-1.54-22.92,5.02-27.65,13.85-4.68-3.84-8.91-6.59-15.13-7.24-1.43-.15-20.82-.26-16.75,3.93Z" fill="#fff"/>
  <path d="M328.48,376.33c4.23,15.24,8.81,32.27,10.24,48.57.55,6.31,2.3,9.16-3.48,12.27-22.28,11.97-74.34,13.23-99.31,10.31-6.3-.74-48.89-9.29-50.3-13.51,1.17-8.27,2.68-16.54,4.59-24.65.11-.47,1.05-.55,1.17-1.06,5.8-24.04,11.41-46.62,21.77-69.15,18.51,10.47,41.5,15.47,62.75,16.45,14.74.69,31.3.27,45.4-3.95,3.03,8.03,4.88,16.45,7.16,24.7ZM309.14,362.12c-3.78,1.45-4.34,6.57-6.04,9.4-12.65,21.22-37.18,35.07-60.64,41.13l-.38,2.7c21.44-4.11,46.86-18.85,59.7-36.6,3.46-4.78,7.45-10.58,7.35-16.63Z" fill="#fff"/>
  <path d="M537,478.19c-.04.15-.8.24-.97.79-1.35,4.32-1.75,9.49-4.02,13.6-3.59,3.56-33.44,5.44-39.74,5.62-19.86.58-40.78-.57-60.18-4.64,12.83-12.7,18.28-28.92,23.57-45.74.29-.92,1.25-.96,1.51-1.83.4-1.31,2.95-10.93.88-10.91-.38,1.02-1.9,1.79-2.24,2.49-3.98,8.23-5.69,20.34-9.88,29.44-10.38,22.56-29.49,39.51-52.86,48.36-1.06.4-3.37,1.62-4.16,1.67-5.26.35-11.01-12.56-12.54-16.73-.26-.72-1.25-.71-1.44-1.34-.68-2.22-1.91-11.99-.76-13.67.85-1.25,11.61-7.81,13.88-9.79,15.37-13.46,15.62-31.91,22.26-50.19,5.75-15.85,11.21-29.04,27.37-36.89,16.33,33.7,77.04,47.53,101.9,16.42,7.76,22.93,4.18,50.41-2.58,73.33Z" fill="#fff"/>
  <path d="M191.18,562.32c-1.27,2.53-7.15,16.24-7.91,16.78-2.34,1.65-8.7-3.36-9.78-6.1-2.54-6.47-4.17-15.51-6.29-22.11-1.2-3.74-1.71-12.07-5.65-13.26l11.16,49.28c-20.86,15.41-49.8,24.69-75.61,26.95-3.23.28-7.86.92-10.67-.17-.97-.85-9.11-21.98-9.23-24-.26-4.28,9.43-25.41,8.4-26.43-1.47-.21-1.7-.02-2.55,1.06-2.68,3.4-5.37,15.42-7.36,20.1-.23.54-1.14.69-1.45,1.36-.73,1.58-3.24,9.4-4.21,9.71-6.42.47-12.63-1.59-18.59-3.67-2.97-1.04-18.02-7.28-18.47-9.85-.32-1.81,5.4-15.09,6.64-17.52.39-.76,1.53-.99,2.08-2.02,9.94-18.51,22.29-36.37,44.6-40.33,1.07.27,3.36,5.76,4.89,7.63,12.6,15.41,48.9,13.2,38.56-13.41,8.8-6.01,22.85-2.22,32.12,1.26,5.74,2.16,39.94,20.94,39.36,26.15-3.91,5.88-6.88,12.3-10.05,18.59Z" fill="#fff"/>
  <path d="M352.98,135.56c12.05,15.09,5.98,34.66,11.32,50.94,2.96,9.04,9.63,18.47,4.7,28.07-2.38,4.63-7.48,4.96-8.24,6.22-.84,1.39-.86,7.14-1.97,9.86-1.92,4.73-6.5,7.41-11.51,7.55,2.27-7.27,3.27-14.72,4.65-22.18,2.23-12.04,4.74-25.82,3.89-38.93-.13-2.08-1.41-12.21-2.63-13.14-12.09-2.77-22.05-4.57-29.03-15.67-1.05-1.68-1.62-6.43-4.09-5.67-.52.16-5.59,7.46-6.65,8.49-11.09,10.75-24.19,8.84-38.46,8.21-1.44.85-2.1,7.16-2.69,9.02-3.34,10.42-6.45,24.64-3.55,36.03.97,3.8,6.18,11.29,10.19,12.22,3.58.83,16.52-6.74,23.24-6.7,5.35.03,9.48,4.05,13.94,4.36,3.93.27,7.77-2.74,9.52-2.38,6.97,1.44,10.07,12.52,17.98,8.19,2.31-1.27,3.3-4.49,5.67-5.16-3.22,14.85-3.45,30.98-17.39,40.12-21.43,14.05-64.67,3.57-74.67-20.72-9.05-22,.39-36.46.67-56.6.05-3.48-4.58-3.65-7.55-3.61-18.19.19-19.03,22.01-7.25,32.28,1.58,1.38,6.97,4.02,7.25,4.58,1.11,2.23-.22,8.81.95,11.81l-23.33,5.69c-11.35-3.96-11.61-16.09-5.63-24.98-7.4-4.51-9.91-9.86-6.18-18.13,3.48-7.72,11.72-8.59,16.75-14.15,6.75-7.47,8.49-19.48,14.04-28.04,11.87-18.33,39.05-28.59,60.3-23.27,2.84.71,6.94,3.92,9,4.2,2.17.3,5.8-1.03,8.27-.94,10.7.38,21.59,3.79,28.49,12.44ZM324.26,231.31c-1.1-6.44-14.64-7.76-19.97-7.15-1.59.18-13.66,3.35-7.91,5.1,10.24-3.64,18.17-1.28,27.89,2.05Z" fill="#fff"/>
  <path d="M450.5,374.6l-.1,5.82c-3.46,1.36-7.15,2.04-10.56,3.58-15.57,7.04-24.79,18.72-30.86,34.26-4.92,12.59-8.31,37.59-15.67,47.4-5.73,7.63-28.88,23.12-37.97,25.79-6.14,1.81-13.03-4.58-19.9-1.82l.67-48.29c5.1-6.08,7.11-1.03,6.54-11.18-1.1-19.57-8.93-46.04-14.37-65.3-.81-2.85-5.52-17.01-3.26-18.42l92.55,15.4c7.7,10.55,20.79,12.08,32.93,12.76ZM378.83,408.46v-11.83c0-.28.75-1.07.7-1.97-1.8-3.98-2.76.18-3.57,2.09-.13.3-1.08.15-1.08.21v11.17c0,.23,3.36,2.39,3.94.33ZM372.91,408.78c1.15-3.12-6.57-18.05-9.84-13.77-1.01,1.33,2.43,3.24,3.4,4.78,1.63,2.61,2.88,5.99,3.92,8.9l2.53.1ZM386.3,402.44c.3-.49,7.79-6.82,4.68-7.46-3.8-.78-8.29,6.92-9.07,9.98-.72,2.81-1.5,5.4,2.1,4.4.54-2.04,1.22-5.16,2.29-6.92Z" fill="#fff"/>
  <path d="M215.78,290.8l13.79-9.2c-1.58-2.73-4.79-.25-7,.88-18.53,9.46-32.72,29.86-37.13,49.97l-34.01-3.92c-.58-.77,1.72-13.2,2.19-15.07,5.75-23.29,17.73-42.67,35.86-58.8,16.85-15,39.84-26.21,62.43-28.55,1.47,16.31,14.65,27.39,28.99,33.13,4.1,1.64,13.97,4.95,18.06,4.95h15.45c-15.74,30.44-48.65,55.66-83.26,59.73-4.53.53-11.68,1.69-15.36-.9v-32.21Z" fill="#fff"/>
  <path d="M267.72,607.29c-7.29.52-15.64,6.19-20.74,11.15-14.52,14.11-22.16,35.99-41.91,44.21-7.44,3.1-13.56,2.81-20.2,8.73-7.96,7.1-11.6,16.58-14.47,26.62-6.79-3.8-13.38-8.05-20.36-11.51-12.15-6.03-25.87-9.7-36.78-17.79-11.89-8.82-21.81-22.33-21.09-37.74,24.6,1.61,55.8-6.64,76.21-20.76,3.65-2.53,10.95-10.13,14.22-10.76,8.13-1.57,25.84-1.39,34.78-1.38,13.21,0,32.15.17,44.39,4.98.76.3,7.19,3.04,5.93,4.25ZM207.89,630.3c-13.68,3.51-26.99,3.68-41.08,3.28l-.33,1.64c2.02,3.79,35.11.52,39.91-2.82.83-.58,1.79-.76,1.51-2.1Z" fill="#fff"/>
  <path d="M352.95,247.99c7.53,8.17,12.44,21.64,18.77,30.86,9.33,13.61,22.55,21.21,37.34,27.72-6.63,7.89-13.11,21.96,3.31,21.37l-1.29,14.85c-19.77-2.43-43.6-8.9-59.16-21.79-2.26-1.87-10.24-9.58-11.67-11.65-2.25-3.23,1.88-9,2.89-12.82.71-2.7,4.82-20.36,3.47-21.16-3.76,3.77-3.69,11.35-5.32,16.55-4.57,14.64-11.39,29.04-18.21,43.06-.42,1.02-.95,1.53-1.94,2-2.92,1.42-18.16,2.65-22.16,2.82-25.01,1.06-52.27-3.15-75.3-12.85,27.69-.93,54.37-14.02,73.65-33.5,8.88-8.97,12.38-17.57,19.16-26.89,3.48-4.78,9.35-4.62,14.39-7.28,6.73-3.54,12.56-9.75,15.42-16.8.42-.1,5.98,4.77,6.65,5.5Z" fill="#fff"/>
  <path d="M178.55,260.47c-7.77,8.14-13.98,17.62-19.63,27.29-14.38-9.95-33.29-6.09-45.39,5.37-7.79-8.51-17.96-10.15-28.16-4.78-6.72-8.76-16.88-12.62-27.37-14.98,8.47-8.15,17.54-16.11,26.63-23.65,10.9-9.05,49.62-41.13,61.84-41.43,1.01-.02,1.98-.08,2.94.33,17.6,9.46,33.26,22.33,49.26,34.25-6.47,6.09-13.96,11.16-20.12,17.6Z" fill="#fff"/>
  <path d="M521.17,170.19l1.75-14.36,15.55.02c.85.77.13,1.66.13,2.18v11.17l.99.99h50.95v78.88h-3.95c-.78-15.86,2.51-48.42-20.11-50.55-28.02-2.64-25.06,36.94-24.6,54.82l-1.5,1.84c-2.11.99-7.48-4.83-9.46-6-12.63-7.52-27.7-11.19-42.34-12.23l1.69-81.22h14.79v13.47l.99.99h15.12ZM508.51,190.72c-1.11,1.11-1.25,14.11-.49,15.62.91,1.82,7.97,1.77,9.54.99,1.98-.99,1.82-14.77.61-16.39-1.38-1.83-7.55-1.27-9.66-.22Z" fill="#fff"/>
  <path d="M132.54,426.29c12.43,16.98,31.89,55.08,16.16,74.18-13,15.78-46.61,21.76-63.42,8.88-3-2.3-10.08-12.86-11.69-13.36-3.56-1.11-9.16,3.04-16.58-1.1-13.68-7.64-9.4-26.7,7.74-23.51,2.09.39,3.25,3.53,5.65.77,4.78-5.48,3.53-16.36.23-22.3,8.17-3.37,12.33-8.27,13.02-17.36,8.07.62,16.29-1.99,19.46-9.95,7.61,2.55,16.52,1.64,20.62-5.86,1.84-1.12,7.8,8.26,8.79,9.61ZM133.5,431.89l-14.63-2.07c-4.39,6.61,13.1,6.72,14.64,4.52v-2.45ZM97.7,445.19c1.35-1.86,3.61-2.56,2.06-6.18l-1.92-.58c-2.44,2.52-4.36,5.82-6.96,8.17-.96.87-9.92,5.17-2.97,5.63,3.64.24,7.79-4.28,9.79-7.04ZM130.13,441.78c-6.97,2.07-.8,14.02,4.96,12.25,3.84-1.18,1.79-14.26-4.96-12.25ZM132.59,461.73c-1.47-3.17-3.44-4.64-6.27-6.56-1.08-.73-9.1-5.22-9.77-5.37-1.18-.27-1.22-.29-2.02.73-.89,4.65,14.44,6.04,15.65,13.3s-7.81,5.61-8.42,10.67c6.11,1.02,13.25-6.15,11.79-12-.11-.46-.87-.56-.97-.78ZM97.25,454.26c-4.52,1.44-1.99,11.81,2.67,12.88,7.74,1.78,5.99-15.65-2.67-12.88ZM125.54,480.59c-6.03.96-14.48,7.83-13.62,14.57,1.08,8.51,9.83.98,14.16-.23,5.05-1.41,16.27-.4,12.76-9.55-1.78-4.64-9.03-5.47-13.3-4.79Z" fill="#fff"/>
  <path d="M590.54,251.69v149.21l-30.89-10.37c-1.85-12.47-4.03-25.29-4.64-37.92-1.07-22.24,2.67-45.74-.72-67.64-1.75-11.31-5.6-17.78-11.77-27,15.52-4.65,31.91-5.42,48.02-6.28ZM571.08,329.65c-6.95-7.85.24,7-.17,10.02l2.23.49c3.75-.89-.53-8.78-2.05-10.5ZM576.08,339.76c1.5.18,1.71.11,2.5-1.11.22-.34,2.98-7.05,3.09-7.44,1.05-3.76-3.2-.97-4.41,1.52-1.11,2.28-1.38,4.52-1.18,7.03Z" fill="#fff"/>
  <path d="M502,544c.02.13,1.01.21,1.07.65,3.4,24.34,2.38,50.62,1.71,75.17-1.63,2.34-50.46,1-56.95-.35l6.06-55.13,9.85-43.72,34.13.86c2.98,7.15,2.99,15.01,4.13,22.53Z" fill="#fff"/>
  <path d="M469.56,379.21h-15.78v-4.6s6.57-1.65,6.57-1.65l-.98-1.63h-15.78c-12.36,0-24.4-7.51-27.61-19.72-1.93-7.35-4.8-25.94,6.82-25.72.2-.28.18-2.45.09-2.54-.94-.97-15.86,4.39-17.64-1.13-1.7-5.58,9.99-17.56,14.02-21.22,1.14-1.04,4.39-2.1,4.96-3.1,1.59-2.76.76-19.3,3.9-20.91l48.22,3.07-6.8,99.15ZM430.86,287.27l1.23,4.19c3.27,1,20.4-.02,20.4-4.61,0-5.98-18.24-.45-21.63.41ZM432.26,308.7c3.96,4.31,9.86-1.24,9.46-6.64-.84-11.47-16.59-1.11-9.46,6.64ZM444.18,341.48c-6.37-6.34-15.52-7.93-23.26-3.02,1.99,3.62,3.92.77,6.89.65,4.44-.19,8.47.27,12.12,3,1.62,1.21,4.88,7.2,6.99,4.26,1.7-2.36-1.58-3.74-2.75-4.9Z" fill="#fff"/>
  <path d="M117.28,397.49c.5.29,7.02.24,9.38.82,11.38,2.79,14.54,13.87,8.82,23.5-2.33,1.6-9.38-10.08-11.34-9.71-4.11,4.33-6.93,9.28-13.77,9.12-3.32-.08-5.52-2.22-8.56-2.53-3.34,9.92-11.3,11.16-20.84,10.09-1.68,1.23,1.51,12.1-6.94,16.08-1.77.84-7.16,1.49-7.45,2.45,2.98,7.36,4.84,14.02,2.6,21.95-25.9-9.26-31.92,26.22-7.26,30.59,3.08.55,9.28-.67,10.55-.05.71.35,10.7,11.07,10.52,11.84-3.82,2.72-9.3,2.21-13.69,1.21-1.7-.39-2.96-1.88-4.42-2.15-4.93-.93-8.88,1.19-14.04-2.4-6.2-4.31-3.26-10.44-5.27-13.63-1.6-2.53-8.3-1.86-10.89-9.66-2.35-7.1,1.08-10.27.32-14.73-.44-2.58-7.13-7.09-7.16-13.92,0-2.14,2.24-8.27,3.29-10.36,1.12-2.24,5.2-7.07,5.56-8.27.56-1.88-.08-6.13.58-9.25,1.35-6.34,7.32-13,13.14-15.78,1.43-.68,4.66-.55,5.47-1.44.36-.39,1.14-4.14,1.99-5.56,3.12-5.21,13.4-10.04,19.39-8.6,1.87.45,2.92,2.8,4.6,2.42.9-.21,3.48-3.49,4.85-4.42,7.28-4.89,14.6-7.08,23.37-4.53,6.07,1.77,6.09,6.29,7.2,6.93Z" fill="#fff"/>
  <path d="M484.68,225.4v10.19c-2.8,1.93-7.22.69-10.76,1.08-25.6,2.83-43.99,15.8-50.22,41.33l-39.42,8.34c-3.67-.2-14.68-16.56-15.98-20.82l57.18-2.31-4.3-1.53-53.6.92-12.43-17.46c28.74-.61,58.08,1.37,86.46-1.32.64-.36-.59-1.32-.67-1.32h-82.84c-.19,0-.9.93-1.64.65-.15-.65.04-.85.31-1.32.53-.93,14.06-14.32,15.12-15.12.83-.62,1.59-1.19,2.68-1.26l110.08-.04Z" fill="#fff"/>
  <path d="M465.62,88.02c-.18-10.4,11.71-18.81,21.4-19.08,4.26-.12,7.34,2.79,11.42,2.58.19-10.11,6.31-18.45,17.19-16.73,5.02.79,7.99,4.52,12.45,6,2.25-5.51.89-9.14,5.28-14.49,10.04-12.23,30.93-14.38,40.38-.31,2.47,3.68,2.04,8.03,4.64,11.13,2.87-5.1,6.47-7.21,12.16-8.53v39.44h-124.92Z" fill="#fff"/>
  <path d="M4.08,113l48.65,12.5c-6.3,2.78-12.81,3.58-18.86,7.09-8.59,4.99-18.92,17.96-21.05,27.6-3.44,15.64,8.27,10.63,17.55,7.03,2.43-.94,32.09-15.81,32.89-12.47-3.73,7.56-9.11,14.32-13.26,21.58-15.38,26.94-27.09,56.5-33.43,87.2l-12.49-1.32V113Z" fill="#fff"/>
  <path d="M253.91,494.89c2.88-6.73,3.07-15.15,9.53-19.71,3.18.73-.49,20.73-4.25,22.99,1.59.29,1.74,2.59,3.62.68,1.99-2.9,3.59-15.28,7.78-15.15.13,0,1.68,1.72,1.7,1.84.65,3.07-1.09,2.67-1.23,3.27-1.18,5.06-2.83,9.62-3.98,14.63l2.51-.12,5.7-10.38c2.65,0-.44,11.62-.82,12.97-1.66,5.97-7.13,16.39-12.03,20.18-1.84,1.42-4.13,1.35-6.18,3.68-2.98,3.37-4.52,10.2-6.76,14.25-5.36,9.68-18.09,32.07-28.21,36.25-11.68,4.83-21.49.06-32.16-4.51-2.21-1.61,1.8-4.73,2.28-5.79,3.66-8.05,6.22-17.08,12.2-23.77l6.49,3.8c10.43-7.59,15.33-20.07,23.61-29.64,1.91-6.25-7.92-24.29-2.48-28.74,4.44-3.63,6.21,7.99,7.55,10.2s4.77,2.72,6.24,4.94c1.28,1.94.98,4.35,2.3,6.24l2.65.31c1.19-7.78-5.36-9.69-9.16-14.76,1.01-3.96,7.97-26.65,12.69-25.29,5.37,1.54-1.91,17.43-1.57,20,.15,1.13.77,1.84,1.98,1.65Z" fill="#fff"/>
  <path d="M431.42,621.11c-6.9,17.39-6.5,36.61-9.15,54.9-.18,1.22-1.26.92-1.34,1.42-1.03,7.02-1.21,14.25-2.28,21.27-12.62,2.11-25.2-.06-37.12-4.06l3.87-86.03,46.01,12.51Z" fill="#fff"/>
  <path d="M320.97,147.84c4.32,12.11,17.98,16.37,29.5,18.5,2.37,10.73,2.96,44.84-8.2,50.43-5.96,2.98-9.37-6.23-15.1-7.12-.49-.74.96-5.45.89-6.92-.12-2.82-4.64-20.17-5.79-22.97-.99-2.4-2.79-2.43-3.28,0-1.54,7.79,14.59,27.97.72,30.9-7.51,1.59-7.78-2.5-12.34-3.51s-10.57.03-14.83,1.32c-6.72,2.03-12.11,9.06-17.85,1.12-4.37-6.04-4.79-18.05-3.71-25.3.17-1.13,1.22-.94,1.31-1.46,1.11-6.84,2.24-13.75,4.1-20.43,11.89.44,23.1,2.03,33.64-4.82,4.42-2.87,6.61-7.04,10.96-9.73ZM298.3,178.73c3.09.35,6.7-.25,9.86,0,1.44-1.09,1.48-2.77-.05-3.9-.94-.69-15.36-4.7-17.05-4.69-1.1,0-3,.17-3.66,1.15-3.43,4.83,7.91,7.11,10.9,7.45ZM347.09,178.53c1.11-1.31.23-3.45-1.13-4.07-2.32-1.06-24.17-.37-18.57,6.9,3.39,1.61,17.21.12,19.7-2.83ZM299.82,184.11c-8.1-4.57-10.75,13.68-1.86,12.06,3.06-1.66,4.53-10.55,1.86-12.06ZM335.93,186.73c-5.27,1.03-6.16,10.6-.79,12.38,5.55.59,7.85-13.77.79-12.38Z" fill="#fff"/>
  <path d="M83.76,292.98c3.96.62,5.09-3.33,9.04-4.19,8.68-1.88,15.72,2.25,20.08,9.43,10.47-12.55,31.54-17.6,44.95-6.67-4.02,8.87-6.93,18.16-8.46,27.85-14.39-1.12-29.25-.63-43.74-.03-15.37.63-31.44,2.81-46.63,3.33-1.24.04-4.68.33-5.33-.63-.91-3.86-.52-8.28-.97-12.07-1.2-10.12-1.22-12.87.08-23.1.18-1.42.23-10.5.61-10.89,11.47,1.56,24.55,6.31,30.37,16.97Z" fill="#fff"/>
  <path d="M283.26,618.7l33.4,41.21,13.52-.03c-7.68,8.06-8.46,21.68-3.94,31.53-.58.92-18.58,4.26-21.03,2.96-1.89-.79-5.41-10.03-7.86-12.51-7.58-7.67-40.6-41.02-47.89-43.49-3.86-1.31-7.91-1.75-11.98-1.5,5.12-11.02,23.42-31.39,36.82-25.97,3.23,1.31,5.71,6.16,8.96,7.81Z" fill="#fff"/>
  <path d="M53.39,674.99c-.1-.09-2.45-.3-2.66.43-1.36,4.66-.14,9.6-.7,14.29-.29,2.4-1.5,8.65-4.87,5.67s-.51-20.91-1.66-21.69c-.26-.18-1.39.08-1.94-.02-.4.41-.49,7.49-.68,8.74-.07.48-1.17.23-1.34,1.41-.54,3.69,2.2,10.94-3.83,10.16-.43-2.09-1.73-4.1-1.97-6.23-.36-3.1,2.47-14.19,1.91-14.73-.09-.09-2.43-.07-2.58.05-2.78,4.73.57,19.21-6.33,17.77-3.79-2.89,0-19.81,1.59-24.13,1.01-2.73,5.46-8.5,5.97-11.14,1.19-6.19-2.97-25.46-3.24-33.5-.28-8.51.33-19.56,2.39-27.82.36-1.45,1.2-6.01,3.06-5.94,9.13,4.25,18.63,8.78,28.72,9.78-1.95,5.21-3.29,9.6-3.93,15.46-.82,7.46-2.44,33.65-1.17,39.92.92,4.57,2.62,2.96,5.36,4.5,3.33,1.87,14.78,7.69,14.86,11.49-2.27,7.25-13.23-4.28-17.11-.07-2.19,3.63-1.27,27.42-7.42,25.91-1.12-.27-2.43-3.39-2.43-4.21,0-2.23.57-15.54,0-16.1Z" fill="#fff"/>
  <path d="M460.28,520.6c.55.72-2.76,15.7-3.26,17.83-.12.51-1.09.57-1.2,1.03-5.89,25.87-8.76,52.43-10.68,78.9-.65,1.07-14.82-.92-17.24-1.29-5.86-.91-11.74-2.5-17.5-3.89,3.14-14.63,6.04-29.43,10.42-43.75,3.26-10.65,8.38-22.63,12.52-33.01,1.16-2.91,6.14-18.52,8.25-18.92l18.69,3.09Z" fill="#fff"/>
  <path d="M544.51,616.49l15.16,68.02c-.48,2.23-8.77,3.84-11.06,4.1-5.41.62-21.59.61-25.05-4.17-2.95-4.08-6.89-17.57-9.11-23.08-3.94-9.79-7.63-19.87-11.26-30.15-.64-1.8-2.89-4.66-2.72-7.49,14.97-.56,29.68-3.33,44.04-7.24Z" fill="#fff"/>
  <path d="M559.88,414.46c14.1,18.66,23.82,41.45,20.71,65.55-.34,2.66-4.21,20.4-5.61,20.82-10.05.55-19.34-.91-27.87-6.36-.17-7.17,1.25-14.42-.02-21.54-.59-3.29-3.11-7.26-3.3-9.89-.33-4.64,2.31-12.47,2.68-17.78,1.06-15.05-.4-30.88-4.57-45.35l1.32-.7c7.91,3.07,11.8,8.84,16.65,15.26Z" fill="#fff"/>
  <path d="M253.26,747.95c-3.8-.13-7.35-2.39-10.45-4.34-16.33-10.26-33.37-29.17-49.43-41.29-2.58-1.95-11.18-8.91-13.11-9.9-1.42-.73-3.48.27-4.59-1.34,4.24-10.74,11.46-20.11,22.86-23.79,7.86-2.54,10.62,2.39,16.25,7.71,10.36,9.8,19.74,21.07,29.74,31.2-5.21,8.25-3.87,24.38,3.2,31.17,3.99,3.84,6.95,1.78,5.53,10.58Z" fill="#fff"/>
  <path d="M225.36,476.87c-.05.16-.77.29-.95.82-2.86,8.4-7.14,18.28-5.35,27.06-11.18-4.16-25.36-4.54-34.86,3.59-.68.58-3.61,6.02-4.26,4.31l16.1-70.71,37.88,8.22c.86,1.12-7.42,23.35-8.57,26.71Z" fill="#fff"/>
  <path d="M332.81,489.63c-3.55,1-8.21,1.7-9.91,5.53-.59,1.32-.36,3.66-.72,4.21-1.23,1.86-16.16,2.66-9.66,14.82,2.33,4.36,3.9,1.64,1.22,8.97-3.95-.42-15.19-3.45-17.13-6.85-1.84-3.23,1.14-10.01,1.38-13.83,1.11-17.32-.89-35.48-.58-52.83l35.41-7v47Z" fill="#fff"/>
  <path d="M437.35,516.59l-17.93,48.13c-4.28,15.73-8.97,31.48-11.66,47.18-4.13.7-24.67-6.9-25.52-9.67-.39-1.26-.04-2.31.17-3.51,1.53-8.66,12.75-30.61,16.75-39.27,3.68-7.99,7.42-15.16,11.44-22.66,4.37-8.14,7.4-17.18,13.92-23.91l12.84,3.73Z" fill="#fff"/>
  <path d="M525.06,548.54c1.3,4.8,3.16,10.46,4.16,15.87,3.08,16.77,3.79,34,4.82,51.01l-26.34,4.35c1.27-18.41,1.27-37.08,0-55.53-.83-11.89-2.18-26.38-4.65-37.95-.09-.44-2.26-1.34-1.27-4.67,2.14-1.25,12.81-2.51,14.16-1.1,1.96,2.04,7.99,23.77,9.14,28.02Z" fill="#fff"/>
  <path d="M552.4,295.73c-39.41-14.85-81.4-21.79-123.61-22.03-.48-2.12,5.65-13.46,7.55-14.8,2.8-1.99,15.67-1.42,19.74-1.28,22.92.81,50.1,5.17,71.87,12.28,3.53,1.15,21.28,7.58,22.32,9.89l2.13,15.94Z" fill="#fff"/>
  <path d="M59.64,73.56c.98-.02,2.08,1.6,3.6-.99.06-4.78-22.65-.63-24.93-1.33s-16.24-12.1-15.58-14.79c18.22-14.96,44.95-6.89,56.82,12.3,2.76,4.46,8.68,19.65,8.68,24.19v14.13c-4.79-4.76-7.57-16.47-14.68-18.54-5.48-1.59,2.54,4.72,2.84,5.07,6.47,7.67,7.89,15.15,11.16,23.8l-3.25,9.38c-8.75-20.95-24.59-37.5-41.77-51.92-.64-.37.59-1.32.67-1.32,5.47,0,10.96.09,16.44,0Z" fill="#fff"/>
  <path d="M531.17,496.3c1-.16,1.43.67,1.53,1.53.08.68-.51,9.41-.66,10.54-.23,1.7-.65,2.81-1.94,3.97-6.82,6.11-46.25,6.64-56.28,6.23-7.44-.3-44.42-4.09-48.3-8.89-1.63-2.01-.23-12.34,4.31-12.8,4.81-.49,15.43,2.74,21.03,3.25,26.14,2.38,54.83,2.26,80.33-3.83Z" fill="#fff"/>
  <path d="M485.34,221.13l-107.83,1.31c2.87-3.47,15.38-16.76,18.79-17.37l86.12-.73,2.92,1.02v15.78Z" fill="#fff"/>
  <path d="M109.53,54.25c.13.26.95.41,1.24,1.08,7.11,16.29,7.17,42.11-8.72,53.07.97-7.35,2.99-14.56,2.65-22.04-.04-.96-1.85-14.75-3.96-12.13,2.95,17.9-.03,36.53-10.52,51.27,1.84-18.07,2.65-36.64-2.59-54.25-.31-1.05-1.21-1.07-1.45-1.89-2.81-9.66-13.65-37.09,7.34-32.28,8.33,1.91,12.63,10.28,16.02,17.19Z" fill="#fff"/>
  <path d="M582.65,249.06l-37.48,4.6c-.98-11.04-1.21-23.43.82-34.34,2.46-13.2,15.75-23.62,28.33-14.2,10,7.49,6.97,32.59,8.33,43.94Z" fill="#fff"/>
  <path d="M352.1,509.15c.28,1,3.96,8.18,4.75,9.36,1.66,2.47,4.58,5.45,7.48,6.32.82.39.88,1.12.65,1.88-.16.51-6.59,6.82-7.54,7.59-6.18,5.05-16.55,10.88-24.62,7.57l-.16-4.1c-3.31-1.03-7.7-1.04-9.23-4.95-1.1-2.8,3.18-2.7,1.83-4.42-10.32-2.44-9.32-4.23-4.91-12.14-.31-2.64-7.87-1.85-5.65-8.92,1.38-4.41,11.13-4.36,14.82-5.9,1.43-1.47-4.43-2.65-4.58-3.6,2.09-7.24,25.17-6.43,26.28-1.32.75,3.48-.32,8.32.88,12.62Z" fill="#fff"/>
  <path d="M532.68,515.26c2.63,9.03,6.63,17.43,9.38,26.45,4.34,14.22,8.93,31.66,10.91,46.28.64,4.74,2.26,14.88,1.9,19.12-.25,2.86-14.11,7.55-16.6,7.41-.98-.06-1.12.29-.98-.97-.27-2.74.36-5.96.05-8.61-1.95-16.67-3.71-35.99-7.59-52.89-2.61-11.37-7.25-21.43-10.88-32.53-.25-1.49.42-.74.99-.99,3.04-1.35,9.32-1.89,12.83-3.27Z" fill="#fff"/>
  <path d="M75.51,116.51c1.33,2.13,2.03,4.64,3.52,6.68-1.2,1.25-1.75-1.2-2.7-1.9-7.61-5.6-16.41-12.07-26.22-12.23-.31,1.54.74,1.45,1.67,1.94,3.83,2,9.41,3.3,13.37,5.7,5.68,3.43,10.47,8.88,15.2,13.39-9.22.59-17.81-4.91-26.42-7.42-12.35-3.6-25.08-5.78-37.34-9.67,5.07-3.92,11.22-6.46,17.75-6.57v-1.97c-6.26-.5-12.28,2.13-17.7,4.99-1.38.72-1.95,2.65-3.72,2.91-2.12.31-6.03-1.87-8.46-1.9l-.4-13.43c12.64-7.45,27.12-7.49,40.93-3.55,12.82,3.66,23.47,11.75,30.52,23.04Z" fill="#fff"/>
  <path d="M541.88,167.56l.65-37.47,40.42-1.34,2.98.03.33,38.78h-44.38ZM564.72,142.71c-6.37,1.34-3,12.98-3.67,17.85l8.03.99c1.5-.57,1.52-14.5.93-16.52-.67-2.3-3.25-2.74-5.29-2.31Z" fill="#fff"/>
  <path d="M547.8,274.03c-13.75-5.62-27.98-10.63-42.59-13.61-8.99-1.83-20.49-3.77-29.56-4.62-10.89-1.02-23.82.42-34.03-.83-.95-.12-1.91.54-1.63-.98,9.27-8.62,21.15-13.33,33.82-14.17,27.01-1.81,63.29,6.31,73.99,34.21Z" fill="#fff"/>
  <path d="M556.9,399.48c-6.87,1.28-12.35-3.87-18.32-6.13-13.18-4.99-27.68-9.31-41.74-10.85-7.77-.85-15.65-.14-23.37-1.62l.33-19.46c.68-1.01,6.24.03,7.74.22,18.57,2.35,53.93,11.36,70.66,19.41,5.48,2.64,5.25,13,4.7,18.43Z" fill="#fff"/>
  <path d="M411.64,346.41c.02,3.08,2.43,6.77,2.65,9.52.08.99.5,1.84-.93,1.59l-88.34-15.54-.12-3.2,12.84-27.26c18,21.9,46.35,31.89,73.9,34.89Z" fill="#fff"/>
  <path d="M552.97,358.92c-1,5.84,2.05,13.61,1.81,18.92-.04.77-.02.86-.73,1.35-25.37-10.95-52.51-17.76-79.91-21.32l.68-16.79c26.68,2.41,52.61,10.12,78.15,17.84Z" fill="#fff"/>
  <path d="M539.19,397.01c.94,1.46-3.7,7.18-4.85,8.51-22.02,25.39-80.52,11.81-93.1-18.66l15.38-4.28c9.9,23.93,54.12,34.28,67.94,9.19l14.63,5.25Z" fill="#fff"/>
  <path d="M104.02,130.75c21.06-9.7,45.86-7.73,59.98,12.02,5.01,7,11.57,23.15,5.81,30.91-2.51,3.38-11.47-5.64-12.19-7.45-1.14-2.83.26-7.32-.89-10.91-.16-.49-6.07-10.31-6.03-5.84,1.37,4.13,4.38,9.83,2.64,14.13-15.2-16.51-39.19-26.4-61.81-26.29-.34-1.86.44-1.09,1.44-1.48,12.65-5.03,30.65-2.32,42.92,2.8l.68-1.32c-.85-2.75-15.54-6.57-18.42-6.57h-14.14Z" fill="#fff"/>
  <path d="M552.4,337.8v17.75c-24.99-8.26-50.68-14.75-76.91-17.76l2.34-17.65c25.52,2.89,50.37,9.42,74.57,17.66Z" fill="#fff"/>
  <path d="M180.75,336.02c1.58,1.19,8.86,19.67,9.13,22.15,1.09,9.87-12.25-1.17-13.17-5.31l-2.33-.3c-4.02,3.47-4.63,8.84-6,13.62-.98,3.4-1.82,9.63-2.95,12.31-3.35,7.98-6.81.78-7.42-4.29-.44-3.6.98-14.81.49-16.25s-1.74-1.19-2.74-.47c-3.48,2.49-.35,19.27-1.42,23.04-7.01,2.29-6.5-12.84-6.26-17.41.07-1.33,3.04-9.43-.33-8.88s-3.28,19.05-2.32,22.34c-4.03-.55-5.62-7.92-5.89-11.52-1.03-13.69,7.05-21.91,14.73-31.91.76-.74,1.67-.62,2.63-.64,6.19-.12,17.14,3.13,23.86,3.51Z" fill="#fff"/>
  <path d="M552.4,333.52l-1.36.73c-23.74-8.38-48.43-14.4-73.58-16.84l.65-17.08c2.74-2.7,67.28,13.16,74.3,18.74v14.46Z" fill="#fff"/>
  <path d="M486,201.73l-86.79.65,16.91-16.94c14.64-.37,29.29,0,43.93-.12,4.39-.03,7.93-2.07,12.47.63.85.5,12.44,11.35,12.85,12.13.69,1.29.78,2.22.63,3.65Z" fill="#fff"/>
  <path d="M553.06,313.81c-.85,1.32-1.48.84-2.65.72-2.75-.29-9.26-3.49-12.63-4.51-19.01-5.79-38.41-10.53-58.23-12.76l-.82-.66c-.19-5.3,1.93-9.17,1.63-14.71,1.16-1.65,19.58,2.21,22.85,2.87,16.82,3.42,34.39,8.48,49.84,15.9v13.15Z" fill="#fff"/>
  <path d="M88.23,617.15c20.45-1.24,41.73-5.46,60.64-13.33,8.55-3.56,17.96-8.47,24.52-14.93,1.61-.28,4.58,7.84,3.53,10.07-3.76,7.97-33.49,20.75-42.31,23.48-13.71,4.24-28.26,6.61-42.66,5.77-1.93-.77-4.35-10.45-3.73-11.06Z" fill="#fff"/>
  <path d="M121.56,150.02c13.62,12.97,12.51,43.98-4.69,53.06-2.99-.27-5.25-9.87-4.96-12.19s7.62-11.64,6.57-16.11c-2.78-2.52-4.99,10.7-6.69,11.7-.51.2-2.38.25-2.51.13-.34-.32-1.22-7.2-1.81-9.05-.81-2.53-5.25-12.56-5.26-13.75-.02-1.87,4.39-6.83,3.12-10.07,5.18.98,7.62,6.37,10.2,10.51,1.67.36,1.01-2.02.82-2.79-1.73-7.15-8.69-8.26-11.32-11.69-1.27-1.65-1.87-6.65-4.31-8.5,7.13.68,15.61,3.77,20.83,8.75Z" fill="#fff"/>
  <path d="M215.13,327.28c32.69,13.79,70.52,20.13,105.66,12.6l1.46.91-1.75,8.19c-23.69,5.49-49.3,4.67-73.02-.46-3.72-.8-32.34-9.96-32.34-12.04v-9.2Z" fill="#fff"/>
  <path d="M53.5,140.7l-.1,1.87,9.2-1.31-.75,9.11-26.54,11.25c-1.86-.03,1.13-5.04,1.52-5.69,1.48-2.43,3.39-3.93,5.12-6.07l-.72-2.01c-5.03,3.29-9.24,9.49-9.65,15.64-5.58.69-10.35,5.96-16.05,3.44,2.01-25.23,30.77-45.07,54.93-34.55-1.54.7-4.52,5.53-5.25,5.91-2.22,1.14-8.79-.32-11.72,2.41Z" fill="#fff"/>
  <path d="M461.01,381.84c5.61-1.63,9.12,1.93,13.56,2.55,10.97,1.51,22.17.5,33.91,2.91,1.96.4,13.32,2.84,13,4.7-.58,3.36-9.33,8.23-12.49,9.22-15.82,4.94-43.25-1.66-47.98-19.37Z" fill="#fff"/>
  <path d="M407.76,713.12l-10.05,11.35-5.03,16.63-15.17.29c-.31-10.69-4.02-23.11-12.49-30.23,4.22.02,10.92-2.78,14.75-2.58,2.89.15,10.17,3.85,14.58,4.47,4.15.58,9.3.66,13.4.08Z" fill="#fff"/>
  <path d="M48.78,287.84c-.86,3.86.27,13.65-.77,16.64-2.45,7.07-28.95,3.66-33.31-2.62l2.2-19.94c9.08,7.16,20.78,8.88,31.87,5.92Z" fill="#fff"/>
  <path d="M280.71,687.64c2.01,3.68,1.11,7.14.51,11.03-1.45,9.46-12.77,44.4-20.79,48.88-8.83,4.93-2.63-15.77-1.35-19.72.29-.88,1.2-1.02,1.34-1.45,4.6-13.62,9.42-28.16,18.25-39.42l2.04.68Z" fill="#fff"/>
  <path d="M370.28,488.32c.36,5.96,1.46,13.13,4.22,18.48,1.06,2.06,10.77,11.8,10.24,12.41-8.5,1.91-14.45,8.07-22.37,1.01-6.51-5.8-8.68-17.53-6.57-25.66l14.47-6.24Z" fill="#fff"/>
  <path d="M568.84,517.9c2.97,8.21,1.02,29.92-10.87,29.46-8.04-.31-9.93-10.68-4.27-15.34,5.1-4.2,11.79,2.77,3.98,6.59,1.9,3.16,5.73.86,6.41-2.11,1.91-8.22-3.95-8.71-10.39-9.04l.67-4.95c-2.89-.72-3.65,2.24-6.05,2.87-3.74.99-14.07-8.23-13.72-12.99,7.29-4.61,7.11-.75,12.09,1.7,2.41,1.18,8.88,3.82,11.3,3.82h10.85Z" fill="#fff"/>
  <path d="M127.02,516.58c10.54,30.37-39.65,23.05-37.46-.65,12.77,4.7,24.53,5.02,37.46.65Z" fill="#fff"/>
  <path d="M48.79,308.88l1.24,14.39-36.74,4.67.66-22.35c10.81,5.88,23.14,7.83,34.84,3.29Z" fill="#fff"/>
  <path d="M50.1,268.12l-1.6,16.48c-5.79,3.38-30.15.46-30.58-7.49-.08-1.5,2.54-16.39,3.26-16.87,3.5,3.28,12.83,7.89,17.41,7.89h11.51Z" fill="#fff"/>
  <path d="M419.6,182.67l23.33-20.99c3.07-.11,20.89,16.67,23.99,20.01l-47.32.98Z" fill="#fff"/>
  <path d="M549.11,702.61c-5.9,4.75-8.98,12.79-8.55,20.37-3.2-1.25-19.38-.69-20.71-3.28-.56-7.47-1.62-16.34,4.27-22.05,7.94,3.15,16.36,5.17,24.99,4.96Z" fill="#fff"/>
  <path d="M4.08,265.49l10.75,1.28.48,1.01c-3.57,19.91-5.61,40.06-5.29,60.37l-5.94,1.76v-64.42Z" fill="#fff"/>
  <path d="M489.27,715.75c.1.75.39,1.46,1.06,1.88,9.98,6.22,59.68,9.55,72.19,7.9,2.29-.3,4.44-1.27,6.64-1.91,1.51,6.72-6.21,8.09-11.18,8.54-14.12,1.29-51.78-1.92-64.45-7.83-3.82-1.78-6.08-3.49-5.56-8.25l1.3-.32Z" fill="#fff"/>
  <path d="M53.39,250.38l-2.73,14.36c-4.99,3.04-27.26-2.66-28.73-7.6l3.19-15.3c4.69,2.57,11.9,8.54,17.42,8.54h10.85Z" fill="#fff"/>
  <path d="M61.94,212.91c-.56,2.89-2.81,15.58-5.06,16.3-5.22,1.66-22.45-3.18-23.76-8.88-.51-2.22,5.24-12.93,5.85-15.93,2.57-.34,3.64,2.52,5.67,3.8,5.44,3.43,10.74,5.25,17.31,4.72Z" fill="#fff"/>
  <path d="M422.89,281.92c-.07,5.15-1.15,9.76-2.12,14.33l-8.34,7.07c-9.14-2.45-17.84-7-25.04-13.19-.3-1.32.52-.92,1.31-1.27,3.18-1.41,32.95-8.17,34.18-6.94Z" fill="#fff"/>
  <path d="M56.68,231.97l-3.71,15.68c-10.02,1.27-19.57-2.13-26.43-9.58-.24-1.82,4.53-13.79,5.5-14,7.06,6.15,15.32,8.64,24.64,7.89Z" fill="#fff"/>
  <path d="M253.25,643.45c.28,1.13-.4,1.31-1,1.94-6.31,6.73-32.43,21.33-41.44,21.07-7.51-.22,5.15-6.16,5.85-6.7,6.41-4.89,12.02-12.91,16.87-19.29,6.7-.91,13.82-.41,19.72,2.97Z" fill="#fff"/>
  <path d="M87.37,137.53c6.34,9.72-11.24,28.25-19.51,16.55-5.85-8.28,2.18-22.44,12.78-20.67,1.18.2,6.23,3.34,6.73,4.11Z" fill="#fff"/>
  <path d="M68.51,193.85c-.65,3.49-3.24,15.73-6.9,16.44-6.35,1.24-16.98-4.15-20.53-9.54l7.37-14.78c5.53,4.69,12.57,8.32,20.05,7.88Z" fill="#fff"/>
  <path d="M333.46,731.52c2.37,5.7,11.43,8.21,17.08,9.55,21.47,5.1,49.42,5.66,70.05-2.32.85,5.16-4.53,7.43-8.73,8.36-14.5,3.21-70.2,3.8-78.29-10.11-.6-1.03-2.87-6.06-.11-5.48Z" fill="#fff"/>
  <path d="M222.29,529l-7.82.73c.06-3.79.77-6.02-2.3-8.54-2.39.86.26,8.52-2.08,9.22-6.7,2.01-3.96-5.13-6.54-8.6l-2.21.03v8.55s-5.63-1.28-5.63-1.28c-.56-1.89.05-6.86-1.95-7.92-2.25-1.18.39,7.56-2.05,8.49-2.05.77-10.96-4.08-6.76-8.77,5.63-6.3,31.78-7.19,38.15-.07l-.8,8.17Z" fill="#fff"/>
  <path d="M421.12,723.46c.04.16.72.18,1.01.24l.09,1.23c-2.73.86-6.25,2.53-8.24,4.59s-5,9.26-5.83,9.95c-1.37,1.14-10.95,1.99-11.96.62.92-12.57,9.01-25.49,22.11-28.03,1.39.92,2.28,9.39,2.82,11.4Z" fill="#fff"/>
  <path d="M349.25,656.57c-8.72,6.14-11.81,17.81-10.67,28.14l-11.01,5.39c-1.78-6.65-2.58-16.89.65-23.17.3-.59,6.27-8.26,6.74-8.53.59-.33,11.74-2.77,12.92-2.88.84-.08,1.21.29,1.36,1.05Z" fill="#fff"/>
  <path d="M373.58,740.72l-12.85-1.29-3.75-15.31-5.11-9.37c7.23-3.09,10.8-3.11,15.77,3.32,4.62,5.97,6.47,15.25,5.94,22.66Z" fill="#fff"/>
  <path d="M354.51,658.57l7.61,3.88.95,1.75c1.15,8.21-11.18-3.48-12.51,2.91,1.75-.02,8.93.98,8.51,3.55l-17.72,12.23c.23-2.29.32-2.63-1.31-3.93,2.29.28.98-2.9,1.46-4.79,2.1-8.22,8.05-18.91,17.45-20.04,6.08-.73,9.41,1.14,7.72,7.73l-6.91-2.98-5.27-.31Z" fill="#fff"/>
  <path d="M250.63,206.99c-15.78-4.69-16.18-34.45,4.33-28.96l-4.33,28.96Z" fill="#fff"/>
  <path d="M574.1,504.1c.83.76-3.68,9.15-4.55,10.06-3.42,3.59-24.36-1.48-24.91-5.94-.37-2.95,1.7-6.89,1.2-10.05,9.26,3.49,18.05,6.65,28.26,5.92Z" fill="#fff"/>
  <path d="M369.64,661.85c1.32.87.69,4.69.34,5.94-2.39,8.54-31.41,26.88-40.01,30.33-6.03,2.42-16.87,6.6-21.48.2,5.01-1.59,10.28-1.46,15.47-2.93,8.89-2.52,25.87-13.34,33.18-19.41,4.44-3.69,10.14-8.9,12.49-14.13Z" fill="#fff"/>
  <path d="M75.74,177.42l-6.3,13.68c-8.02-.04-13.78-2.28-19.24-8.18l8.2-12.7c5.27,3.94,10.41,7.32,17.34,7.2Z" fill="#fff"/>
  <path d="M211.84,322.02c-2.7-1.05-18.06-.83-18.41-2.32,3.58-9.97,10.02-18.84,18.41-25.28v27.61Z" fill="#fff"/>
  <path d="M543.21,722.96c-1.27-12.41,8.83-22.54,20.72-23.07,1.38,1.79,4.74,8.04,3.31,9.98-9.81.87-12.6,5.5-16.82,13.43l-7.22-.34Z" fill="#fff"/>
  <path d="M418.28,702.6l-.73,6.5c-11.66,2.41-25.18,2.65-35.76-3.21l-.32-8.55c3.72,1.04,13.51,5.26,16.76,5.26h20.05Z" fill="#fff"/>
  <path d="M223.67,517.9c-8.03-5.98-25.16-6.17-34.16-2.94-2.88,1.03-5.03,3.54-7.92,3.92,4-17.31,39.34-20.17,42.08-.98Z" fill="#fff"/>
  <path d="M83.18,157.9c.7-.88,3.37-2.09,4.17-3.07,3.05-3.76,4.12-7.96,4.79-12.64,14.01-.17,13.2,21.9-.27,22.76-4.01.26-11.69-3.26-8.69-7.06Z" fill="#fff"/>
  <path d="M352.14,722.06c2.93,5.17,5.16,10.51,5,16.68l-13.11-3.32,2.73-4.78-.47-1.76-6.55,4.37-4.01-4.34c-.23-2.86,9.94-5.48,12.22-5.29-.98-4.07-8.99.28-11.83.65,3.02-4.12,7.35-6.06,11.8-8.27,1.69-.17,3.45,4.67,4.23,6.05Z" fill="#fff"/>
  <path d="M253.26,702.6c-1.65,8.25-.76,16.64,3.32,23.95l-3.65,10.89c-10.85-6.82-13.12-30.12.33-34.84Z" fill="#fff"/>
  <path d="M560.92,688.82l.76,6.9c-4.08,6-32.54,3.36-34.48-.51-.24-.47-1.19-5.1-1.11-5.42,11.99,3.3,22.96,2.33,34.83-.97Z" fill="#fff"/>
  <path d="M534.66,508.69c1.29-6.1-.04-12.44,1.38-18.53,1.13-4.82,4.16-13.72,5.82-19.29.26-.89.06-2.04,1.33-2.27,3.92,12.45.04,24.48-.74,37.05l-7.79,3.05Z" fill="#fff"/>
  <path d="M79.58,160.43c3.14,4.62-1.75,9.64-2.93,14.39-6.62.39-12.89-2.34-16.58-7.69l6.19-9.43c4.5,3.13,7.97,3.66,13.32,2.73Z" fill="#fff"/>
  <path d="M517.55,720.34l-11.82-1.32c-.17-4.97-.25-9.24,1.46-13.97,2.79-7.72,5.4-5.18,12.34-7.05-2.83,7.58-4.16,14.36-1.97,22.34Z" fill="#fff"/>
  <path d="M269.7,695.37c-1.1,6.26-5.87,5.6-10.51,7.89-.15,4.25,6.98-1.21,6.56,1.62-.1.69-4.67,11.67-5.31,12.96-.21.43-2.39,4.07-2.88,3.81-5.03-10.75-4-28.82,12.15-26.28Z" fill="#fff"/>
  <path d="M503.75,706.55l-1.05,11.25c-5.62.65-9.43-1.63-12.75-5.81l.2-1.98c3.71-3.77,8.63-3.69,13.59-3.45Z" fill="#fff"/>
  <path d="M569.46,720.97l-15.08,2c-1.55-5.18,11.99-13.32,14.33-9.39.55.92,1.21,6.86.75,7.38Z" fill="#fff"/>
  <path d="M219.54,535.45c-1.12.79-3.43,1.21-4.83,1.4-2.8.4-13.04.29-15.71-.2-1.01-.19-5.2-3.49-4.25-4.28,8.84.68,18.33,1.72,26.94-.66.35.41-1.81,3.51-2.15,3.75Z" fill="#fff"/>
  <path d="M314.21,526.64c.54.28,2.37,3.03,4.48,3.08,1.76,2.56-7.2-.41-7.92-.63-4.69-1.42-12.28-3.56-14.11-8.56,5.01,3.19,12.72,3.67,17.55,6.12Z" fill="#fff"/>
  <path d="M422.13,728.99c2.03,6.16-3.88,9.58-9.45,9.1-1.41-2.26,6.2-11.89,9.45-9.1Z" fill="#fff"/>
  <path d="M548.82,532.72c-2.35,5.04-1.69,5.22-1.18,10.66.32,3.46-2.17.28-2.8-1.16-.51-1.18-1.94-7.09-1.68-8.08.2-.74,3.67-1.75,1.35-5.72l5.93.3.09,1.43c-.26.9-1.41,1.89-1.72,2.56Z" fill="#fff"/>
  <path d="M215.12,540.25l-5.59,5.93c-11.21-7.45-.58-4.48,5.59-5.93Z" fill="#fff"/>
  <path d="M590.54,160.33l-1.32-28.58c.09-.89,1.32.57,1.32.65v27.94Z" fill="#fff"/>
  <path d="M506.38,700.63c-1.61,5.89-4.49,2.71-9.2,3.27.43-1.9,8.62-3.72,9.2-3.27Z" fill="#fff"/>
  <path d="M272.98,688.8c.31,4.97-4.35,3.9-7.89,3.93.65-1.56,6.89-4.9,7.89-3.93Z" fill="#fff"/>
  <path d="M173.71,697.99c-1.8-1.65,3.9-5.43,3.93-2.3,0,.5-3.06,3.09-3.93,2.3Z" fill="#fff"/>
  <polygon points="541.88 529.06 540.57 529.07 540.58 527.1 541.88 529.06" fill="#fff"/>
  <path d="M590.53,167.55c-.33.49-1.11-.6-.64-1.31.33-.49,1.11.6.64,1.31Z" fill="#fff"/>
  <path d="M168.21,119.16c-1.01-1.14-8.57-7.06-9.62-6.15l9.85,11.82c-25.53-5.75-53.26-4.84-76.92,7.23,11.46-15.69,31.98-23.63,51.27-23.66,3.58-2-9.35-2.02-10.17-1.95-12.01.99-23.08,6.92-33.2,12.81,14.96-26.88,51.68-33.3,75.91-14.78,6.76,5.17,13.37,13.32,12.55,22.38-1.02,1.45-14.21-.52-15.72-1.46-.91-.56-2.55-4.65-3.96-6.23Z" fill="#fff"/>
  <polygon points="351.55 240.52 351.88 240.84 351.55 241.17 351.55 240.52" fill="#fff"/>
  <path d="M146.61,755.37c3.88-.38,7.49.27,11.12,1.66,7.06,2.71,25.58,17.39,11.9,22.66-10.09,3.89-34.89,4.27-45.09.66-20.15-7.12,13.8-24.18,22.08-24.99ZM145.94,758.64c-4.57.64-22.82,9.85-24.05,14.11-.39,1.35-.24,2.5.83,3.51,4.96,4.7,44.63,4.37,48.31-1.13,1.15-4.08-6.44-10.28-9.73-12.47-4.71-3.14-9.66-4.81-15.37-4.01Z"/>
  <path d="M434.6,773.75c4.66-.13,12.68,3.52,15.24,7.39,11,16.6-28.99,14.77-32.92,7.94-4.17-7.26,11.97-15.18,17.68-15.33ZM434.57,777.06c-3.71.08-17.73,6.82-14.94,10.57,4.57,4.82,37.61,6.12,26.62-5.53-2.49-2.63-8.07-5.12-11.68-5.04Z"/>
  <path d="M364.17,577.24c7.76,11.13-17.33,10.62-23.07,9.6-16.54-2.96-2.55-13.69,5.89-15,5.05-.78,14.07.94,17.18,5.4ZM346.45,575.24c-2.13.37-10.43,3.97-9.65,6.65.9,3.11,22.81,3.93,24.2-.02,2.26-6.46-10.52-7.32-14.55-6.63Z"/>
  <path d="M52.52,752.1c7.92,12.1-35.5,11.9-24.43-.86,5.44-6.27,19.82-6.19,24.43.86ZM38.1,749.43c-2.92.4-6.74,2.29-8.29,4.89-.72,2.98,7.37,3.53,9.45,3.54,1.19,0,6.74-.58,7.74-.85,6.58-1.74-1.94-8.53-8.9-7.58Z"/>
  <path d="M506.82,766.44c3.24-1.11,8.83,3.91,10.63,6.28,1.56,2.05,7.67,14.27,4.38,15.33l-2.15-1.13c-1.18-8.7-5.6-14.94-13.65-18.56-.78-.77,0-1.64.79-1.91Z"/>
  <path d="M305.44,787.62c.36-.78,3.5-5.98,4.07-6.76,1.06-1.43,9.24-9.06,10.14-4.96.13.6-5.98,5.19-7.11,6.68-.87,1.13-1.92,2.74-2.57,4.01-1.43,2.82-1.77,11.06-6.03,6.95-.1-2.11.64-4.04,1.5-5.91Z"/>
  <path d="M539.71,765.15c5.11-.24-5.29,6.21-6.26,7.56-1.03,1.43-2.4,4.61-2.84,6.36-.6,2.36.26,9.3-2.85,8.31-3.51-6.88,3.82-21.86,11.96-22.23Z"/>
  <path d="M295.13,775.12c3.65,2.89,7.06,12.63,6.1,17.18-.46,2.19-2.63,3.51-3.25.67-.85-3.85-.05-6.61-2.26-10.91-1.01-1.97-6.26-5.43-4.97-7.8,1.58-.68,3.06-.18,4.37.86Z"/>
  <path d="M278.31,780.21c4.32-2.3,13.9,7.83,14.76,11.77,2.07,9.53-6.53-4.39-7.37-5.13-2.67-2.32-8.95-3.07-7.38-6.63Z"/>
  <path d="M551.09,774.9c-.64,3.85-5.52,2.25-9.56,5.88-1.84,1.66-5.63,10.36-8.19,7.91-2.88-2.76,12.39-17.61,17.74-13.8Z"/>
  <path d="M109.27,711.8c-.73,4.1-3.78,6.35-5.27,10.82-.67,2.02-1.63,11.27-3.59,10.86-4.55-2.98,5.82-25,8.86-21.68Z"/>
  <path d="M297.97,558c1.22,1.07-4.21,5.02-4.96,6.54-1.89,3.88-.46,14.43-4.58,10.55-1.81-3.41,2.69-19.7,9.53-17.09Z"/>
  <path d="M95.47,733.49c-2.02,2.18-4.89-8.14-5.79-9.65-1.99-3.32-4.85-3.77-5.38-6.78,7.86-.89,11.47,9.99,11.17,16.42Z"/>
  <path d="M283.29,562.8c1.65,2.49,3.31,8.41,2.88,11.32-.38,2.6-1.86,3.42-2.65.59-.82-5.26-3.76-10.38-6.62-15.04.34-3.12,5.9,2.4,6.38,3.13Z"/>
  <path d="M71.49,348.32c3.48-.51.55,12.89,2.29,15.4-4.78,8.41-5.28-14.96-2.29-15.4Z"/>
  <path d="M462.33,687.48l-2.53-.1c-.84-2.45-1.55-5.65-2.79-7.91-.48-.87-7.46-7.15-4.19-7.77,6.07,1.97,9.16,9.84,9.51,15.78Z"/>
  <path d="M120.45,719.69c-2.01,3.17-5.5,3.8-8.57,6.89-1.71,1.72-4.44,8.09-6.23,5.6-1.77-5.07,11.83-14.87,14.8-12.49Z"/>
  <path d="M474.82,671.05l-6.24,15.12-2.96.65c-1.9-2.73,6.81-18.29,9.2-15.77Z"/>
  <path d="M63.54,357.23c.96,1.25,5.65,7.77,2.59,8.78s-3.26-3.68-4.3-5.42-6.24-7.21-5.14-8.33c1.68-1.71,5.95,3.78,6.86,4.97Z"/>
  <path d="M84.29,353.58c.09,2.48-1.82,3.97-2.67,6.2-1.06,2.79-.05,7.48-3.81,6.19-1.91-1.18,1.97-14.23,6.48-12.39Z"/>
  <path d="M482.05,676.31c-.93,4.52-6.98,5.61-7.17,11.43l-2.03.4c-.45-5.33,3.19-12.36,9.2-11.83Z"/>
  <path d="M297.96,576.39c-5.02,3.36-1.43-12.95,4.27-11.83l.47,1.76c-2.9,1.08-4.27,9.76-4.74,10.07Z"/>
  <path d="M29.73,549.44c-.66-2.39,2.02-14.12,5.57-13.14,2.24,1.6-.98,3.55-1.66,5.55-.89,2.6-.35,8.07-3.91,7.59Z"/>
  <path d="M20.86,536.96c3.32-.86,8.55,9.86,5.25,12.47-1.91-2.32-2.27-5.25-3.73-8.09-.84-1.63-3.93-2.64-1.52-4.38Z"/>
  <path d="M245.37,60.42c4.64-.89,7.71-3.49,12.82-3.33,13.69.42,24.1,18.22,10.38,26.85l-90.59.13c-7.59-.75-6.98-8.23-4.6-13.79,3.51-8.2,16.36-13.58,24.61-9.89,6.01-22.6,42.86-24.41,47.38.03ZM238.59,52.08c-4.1-4.34-12.39-7.25-18.35-6.59-11.68,1.29-18.2,10.24-20.58,20.84-1.14.26-3.14-3.11-4.88-3.64-8.2-2.51-23.78,8.09-19.43,16.8,2.08,4.16,82.48-.22,93.03.98,8.73-12.22-4.82-24.17-17.54-18.85-2.65,1.11-4.25,4.01-7.1,4.72-1.71-4.67-1.43-10.33-5.15-14.26Z"/>
  <path d="M376.87,109.71c-4.07-4.19,15.32-4.08,16.75-3.93,6.21.65,10.45,3.39,15.13,7.24,4.73-8.83,17.72-15.39,27.65-13.85,2.69.42,3.29,2.06.62,2.65-8.07,1.76-16.45.93-22.28,8.61-1.79,2.35-3.13,8.26-4.68,8.52-3.15.53-5.29-5.75-8.76-7.7-7.17-4.05-16.72-3.03-24.43-1.54Z"/>
  <path d="M309.14,362.12c.09,6.05-3.89,11.85-7.35,16.63-12.84,17.75-38.26,32.49-59.7,36.6l.38-2.7c23.45-6.06,47.99-19.91,60.64-41.13,1.69-2.84,2.26-7.95,6.04-9.4Z"/>
  <path d="M324.26,231.31c-9.72-3.33-17.65-5.69-27.89-2.05-5.74-1.75,6.32-4.92,7.91-5.1,5.33-.61,18.88.71,19.97,7.15Z"/>
  <path d="M378.83,408.46c-.58,2.06-3.94-.1-3.94-.33v-11.17c0-.05.95.09,1.08-.21.8-1.91,1.77-6.07,3.57-2.09.06.9-.7,1.69-.7,1.97v11.83Z"/>
  <path d="M386.3,402.44c-1.07,1.75-1.75,4.88-2.29,6.92-3.6,1-2.82-1.59-2.1-4.4.78-3.05,5.28-10.76,9.07-9.98,3.11.64-4.38,6.97-4.68,7.46Z"/>
  <path d="M372.91,408.78l-2.53-.1c-1.04-2.91-2.28-6.28-3.92-8.9-.96-1.54-4.41-3.45-3.4-4.78,3.27-4.28,10.99,10.65,9.84,13.77Z"/>
  <path d="M207.89,630.3c.28,1.35-.67,1.52-1.51,2.1-4.8,3.34-37.89,6.61-39.91,2.82l.33-1.64c14.09.4,27.4.23,41.08-3.28Z"/>
  <path d="M508.51,190.72c2.11-1.06,8.28-1.62,9.66.22,1.21,1.62,1.36,15.4-.61,16.39-1.56.78-8.62.83-9.54-.99-.76-1.51-.62-14.51.49-15.62Z"/>
  <path d="M125.54,480.59c4.27-.68,11.52.15,13.3,4.79,3.5,9.14-7.71,8.14-12.76,9.55-4.33,1.21-13.07,8.74-14.16.23-.86-6.74,7.59-13.6,13.62-14.57Z"/>
  <path d="M132.59,461.73c.1.22.86.32.97.78,1.46,5.85-5.68,13.02-11.79,12,.61-5.06,9.62-3.49,8.42-10.67s-16.55-8.66-15.65-13.3c.79-1.02.84-1,2.02-.73.67.15,8.68,4.63,9.77,5.37,2.83,1.92,4.81,3.39,6.27,6.56Z"/>
  <path d="M97.25,454.26c8.66-2.76,10.41,14.66,2.67,12.88-4.67-1.07-7.19-11.44-2.67-12.88Z"/>
  <path d="M130.13,441.78c6.75-2.01,8.81,11.06,4.96,12.25-5.76,1.78-11.93-10.17-4.96-12.25Z"/>
  <path d="M97.7,445.19c-2,2.76-6.16,7.29-9.79,7.04-6.95-.47,2.01-4.77,2.97-5.63,2.6-2.35,4.51-5.65,6.96-8.17l1.92.58c1.55,3.62-.71,4.32-2.06,6.18Z"/>
  <path d="M133.5,431.89v2.45c-1.53,2.21-19.02,2.09-14.63-4.52l14.63,2.07Z"/>
  <path d="M571.08,329.65c1.52,1.72,5.81,9.61,2.05,10.5l-2.23-.49c.41-3.02-6.78-17.86.17-10.02Z"/>
  <path d="M576.08,339.76c-.2-2.51.07-4.75,1.18-7.03,1.21-2.48,5.46-5.27,4.41-1.52-.11.39-2.87,7.1-3.09,7.44-.8,1.22-1,1.29-2.5,1.11Z"/>
  <path d="M430.86,287.27c3.39-.86,21.63-6.4,21.63-.41,0,4.59-17.13,5.61-20.4,4.61l-1.23-4.19Z"/>
  <path d="M432.26,308.7c-7.13-7.75,8.62-18.12,9.46-6.64.4,5.4-5.5,10.95-9.46,6.64Z"/>
  <path d="M444.18,341.48c1.17,1.16,4.45,2.54,2.75,4.9-2.11,2.94-5.37-3.05-6.99-4.26-3.65-2.74-7.69-3.19-12.12-3-2.97.13-4.9,2.97-6.89-.65,7.74-4.91,16.89-3.32,23.26,3.02Z"/>
  <path d="M347.09,178.53c-2.49,2.94-16.31,4.44-19.7,2.83-5.6-7.27,16.25-7.96,18.57-6.9,1.36.62,2.24,2.76,1.13,4.07Z"/>
  <path d="M298.3,178.73c-2.99-.34-14.32-2.62-10.9-7.45.66-.97,2.56-1.14,3.66-1.15,1.69,0,16.11,4,17.05,4.69,1.53,1.13,1.49,2.8.05,3.9-3.17-.25-6.77.35-9.86,0Z"/>
  <path d="M299.82,184.11c2.67,1.51,1.2,10.4-1.86,12.06-8.89,1.62-6.23-16.63,1.86-12.06Z"/>
  <path d="M335.93,186.73c7.06-1.38,4.77,12.97-.79,12.38-5.38-1.78-4.49-11.35.79-12.38Z"/>
  <path d="M564.72,142.71c2.05-.43,4.62.01,5.29,2.31.59,2.02.57,15.95-.93,16.52l-8.03-.99c.67-4.87-2.7-16.51,3.67-17.85Z"/>
  <path d="M145.94,758.64c5.7-.8,10.66.87,15.37,4.01,3.29,2.2,10.88,8.39,9.73,12.47-3.68,5.5-43.36,5.83-48.31,1.13-1.07-1.01-1.22-2.16-.83-3.51,1.23-4.26,19.48-13.47,24.05-14.11Z" fill="#fff"/>
  <path d="M434.57,777.06c3.62-.08,9.2,2.41,11.68,5.04,10.99,11.65-22.05,10.35-26.62,5.53-2.8-3.75,11.22-10.49,14.94-10.57Z" fill="#fff"/>
  <path d="M346.45,575.24c4.02-.7,16.81.17,14.55,6.63-1.38,3.95-23.3,3.13-24.2.02-.78-2.68,7.52-6.28,9.65-6.65Z" fill="#fff"/>
  <path d="M38.1,749.43c6.95-.95,15.48,5.84,8.9,7.58-1,.27-6.55.86-7.74.85-2.08-.01-10.17-.56-9.45-3.54,1.56-2.6,5.37-4.49,8.29-4.89Z" fill="#fff"/>
  <path d="M238.59,52.08c3.71,3.93,3.44,9.59,5.15,14.26,2.85-.71,4.45-3.62,7.1-4.72,12.72-5.32,26.27,6.63,17.54,18.85-10.55-1.21-90.95,3.18-93.03-.98-4.35-8.71,11.24-19.31,19.43-16.8,1.74.53,3.75,3.91,4.88,3.64,2.38-10.6,8.9-19.54,20.58-20.84,5.96-.66,14.25,2.25,18.35,6.59Z" fill="#fff"/>
</svg>