<?xml version="1.0" encoding="UTF-8"?>
<svg id="Camada_1" xmlns="http://www.w3.org/2000/svg" version="1.1" viewBox="0 0 595.28 841.89">
  <!-- Generator: Adobe Illustrator 29.0.0, SVG Export Plug-In . SVG Version: 2.1.0 Build 186)  -->
  <path d="M.14,841.29V-.06h595v841.34H.14ZM590.54,3.89H4.08v203.76c7.11-2.35,13.78-3.82,21.35-3.27,28.84,2.1,65.19,32.46,86.5,50.9,2.33,2.02,15.24,15.47,16.73,15.48,10.3-4.1,10.54-15.03,14.42-23.74,7.35-16.53,21.09-32.21,39.7-35.87,6.68-1.31,16.29.34,21.2-1.15,3.4-1.03,10.28-7.74,17.72-9.89,44.39-12.84,79.83,19.75,73.68,64.45-.75,5.48-4.44,11.76-3.99,19.01.29,4.68,3.07,8.33,3.87,11.38,1.25,4.72,1.78,10.37,2.73,15.21,14.53-.87,28.47,2.56,42.04,7.27v-30.56l-.99-.99h-12.49c-3.26-3.39,2.34-5.41,4.31-7.53,3.61-3.91,23.07-26,26.6-26h68.7c.36-20.94-.85-42.07-3.91-62.79-.18-1.21-1.22-.93-1.3-1.46-2.1-13.7-3.87-27.41-6.92-40.94-3.15-.95-5.77-.81-8.93-2.24-3.53-1.6-7-7.18-9.55-7.6-4.05-.66-16.59,3.7-20.59,5.67-7.25,3.58-18.64,13.25-24.1,19.29-2.35,2.6-9.3,14.68-12.36,13.77-1.62-1.2-2.18-3.66-2.41-5.53-2.88-23.36,13.34-47.28,35.81-53.59,1.32-.37,11.52-1.58,10.87-2.6-24.03-9.37-50.39-8.88-72.75,4.51-2.39.09-1.4-3.05-1.03-4.34,2.3-7.96,11.54-17.91,18.46-22.29,21.53-13.64,49.49-7.92,69.13,6.33-13.89-21.4-38.74-34.43-63.79-37.76-2.7-4.23,3.44-6.54,6.61-7.9,34.24-14.65,75.7,4.9,77.57,43.7,1.53.32,1.05-.16,1.47-.84,8.26-13.49,11.02-24.56,25.55-34.26,19.94-13.32,57.66-13.62,72.8,7.28,6.15,8.5-7.24,3.15-12.06,2.86-24.03-1.46-47.42,10.04-63.43,27.27,4.81-.98,9.08-3.94,13.79-5.27,28.03-7.91,66.92,2.59,76.3,32.86.69,2.24,4.3,16.08-.25,15.41-1.02-.15-12.58-11.07-15.86-13.1-17.32-10.74-40.22-15.47-60.17-10.49,4.39,1.78,9.22,2.56,13.59,4.48,16.12,7.06,27.03,22.23,27.85,39.86.14,3.1-.59,24.89-7.16,17.02-2.93-3.51-5.86-11.75-9.29-16.16-7.3-9.4-22.11-20.35-33.55-23.83-2.16-.66-13.68-3.22-14.82-1.67,12.07,28.64,18.91,59.31,27.65,88.74,6.78-8.77,21.89-2.87,31.85-4.62,3.56-25.35,30.27-34.01,50.65-20.34,6.06-19.61,31.37-26.21,48.66-17.74V3.89ZM453.46,121.55c-5.08-.53-10.94.39-16.11,0,2.66-4.16,12.55-5.44,17.64-6.36,27.75-5.03,53.28,1.42,74.4,20.16.79-8.35-5.15-17.32-10.5-23.35-18.1-20.43-52.22-22.81-75.42-10.29-3.48,1.88-9.39,7.39-12.06,8.32-1.33.46-1.68.6-2.59-.64,9.71-12.4,19.63-23.78,33.73-31.34,15.26-8.17,31.78-11.43,49.09-9.1-10.62-11.9-28.83-15.57-44.18-12.94-22.76,3.9-37.41,21.06-46.49,41.09-.68,1.5-2.84,11.2-4.66,9.98-2.15-22.28-10.1-43.53-32.43-52.04-14.92-5.69-34.17-5.27-47.78,3.4,28.68,3.22,58.88,21.77,68.37,49.96-1.32.3-1.76-.33-2.66-.95-4.91-3.39-8.9-7.95-14.51-11.13-25.31-14.37-60.66-11.67-74.21,16.68,20.97-8.87,42.57-10.65,64.41-3.59,2.49.81,17.73,7.11,18.41,8.55.13.27.27,1.63-.32,1.63-31.19-8.19-60.37,20.51-56.19,51.26,1.1.74,8.58-10.16,9.84-11.52,10.8-11.67,27.88-24.64,44.42-25.28,7.96-.31,4.96,1.48,8.59,5.18,5.2,5.29,19.88,5.38,24.85,0,2.98-3.23.43-5.19,6.66-5.24,16.4-.11,36.89,13.03,46.98,25.36,3.51,4.3,6.35,11.57,9.19,14.95.65.77,1.63,1.24,2.65,1.13,5.58-26.22-12.43-51.13-39.11-53.89ZM432.32,150.25c-.55-1.39-2.04-7.28-3.25-7.65l-12.08,3.95,2.62,15.75c4.31,1.27,15.39-3.44,14.99-8.02-.21-2.41-2.05-3.44-2.28-4.02ZM436.68,159.67c-4.97,3.44-9.73,5.47-15.69,6.65-1.08,2.06,1.09,2.61,1.19,3.04.59,2.69.82,14.35,3.1,15.19,3.3,1.19,15.04-2.41,16.36-5.16s-4.82-15.76-4.95-19.72ZM444.2,185.7c-.43-.91-.95-3.68-1.26-3.68-5.34,4.26-11.27,6.02-18.09,5.26l2.59,19.43c4.66,1.67,18.33-1.78,20.47-5.94,1.21-2.34-2.52-12.52-3.72-15.07ZM590.54,222.11v-34.51c-8.98-6.15-23.1-5.36-32.43-.21-2.54,1.41-8.92,6.96-10.54,9.26s-3.88,10.22-5.37,10.39c-1.07.12-5.53-4.22-7.34-5.19-17.7-9.51-37.54,1.08-40.97,20.26h96.65ZM283.29,221c-13.48-19.54-45.96-24.83-66.84-15.65-4.5,1.98-10.28,7.93-13.78,8.58-5.17.97-12.18-.71-19.12.59-23.06,4.32-31.55,21.28-40.03,40.31-8.91,20-10.35,14.26-24.07,27.72-5.57,5.47-9.94,13.33-10.22,20.76l7.16,14.33c-9.42,6.72-12,18.65-3.19,27.07,1.04,1,2.77,2.23,4.26,2.3,3.13.15,16-4.83,20.5-5.86,9.55-2.19,19.37-3.72,29.17-4.03l-1.31-11.83c-19.68,3.5-30.8-19.03-20.02-34.14,3.75-5.26,11.63-9.9,17.64-5.21,3.4,2.65,2.97,20.94,3.65,25.92,1.33,9.86,3.15,24.31,6.6,34.16,13.87,39.58,101.53,45.6,111.46,2.28,2.36-10.28,1.6-20.62-.34-30.89l-7.55,8.31c-4.63-2.31-13.08-8.85-18.05-9.36-1.92-.2-3.82,1.1-6.27,1.09-3.05-.02-6.42-1.7-9.28-1.94-10.77-.91-21.99,4.75-30.44,10.83-4.13,2.97-2.86,5.54-9.3,4.58-9.69-1.44-18.89-8.82-21.95-18.14-1.04-3.17-3.19-11.11-3.62-13.58-1.67-9.6-1.2-19.76-2.68-29.42l.65-1.38c16.89-2.64,35.48-15.65,34.88-34.47,2.18-2.19,8.32,6.38,10.17,7.91,10.86,8.88,25.93,10.56,35.47-.65,3.02,2.28,6.16,5.9,9.37,7.75,2.85,1.65,11.67,3.61,12.56,5.19,5.43,24.34,8.2,49.01,10.99,73.79,10.69-14.66-1.07-30.77-1.66-45-.28-6.67,2.82-14.63,3.3-21.72.85-12.55-.75-29.56-8.09-40.2ZM449.84,204.37c-6.81,4.07-14.28,6.72-22.35,5.92l2.61,22.03c8.14,2.57,17.69.33,24.71-4.29l-4.97-23.65ZM4.08,210.94v114.37c15.05-4.21,32.81,3.82,34.85,20.38,4.21-1.22,6.88-4.54,11.56-5.2,14.36-2.02,28.16,7.37,29.81,22.02,12.49,1.28,21.59-10.66,33.57-12.89l-.42-1.37c-10.9-6.51-11.67-24.01-1.01-31.26-.72-3.36-3.08-3.95-4.29-7.32-3.31-9.22-1.06-15.65,4.13-23.11,3.62-5.2,8.34-9.22,13.43-12.88-15.13-15.22-32.12-30.59-49.67-43-20.44-14.46-46.28-29.44-71.97-19.75ZM590.54,225.4h-125.25c-9.1,8.72-18.44,17.43-26.63,26.95h151.87v-26.95ZM429.46,235.92v15.45l5.63.36,18.71-18.77c-8.25,2.52-15.58,3.66-24.33,2.96ZM277.59,266.15c1.48-13.43-3.61-9.83-11.87-14.1-2.85-1.47-5.58-4.44-8.33-6.2-3.1,1.33-4.59,3.01-8.07,4.2-13.62,4.63-25.01-.89-34.83-10.18-1.95,2.72-2.24,6.09-3.84,8.98-7.42,13.39-19.02,17.96-32.35,23.67-.77,2.04,1.18,1.93,1.37,3.12,2.91,18.31-1.32,43.02,20.36,50.63,9.94,3.49,6.79.53,12.81-3.59,2.74-1.88,7.54-4.54,10.61-5.83s14.81-3.46,15.36-4.04c.29-.31-1.63-3.12.34-3.94,10.23,7.81,26.87,7.84,17.02-9.14-2.52-4.34-11.44-12.04-12.43-15.22-1.62-5.18,3.71-1.38,5.58.57,6.23,6.52,17,19.67,12.77,29.07,3.13.38,14.63,8.31,16.33,7.25,1.79-1.12,3.26-7.25,3.84-9.38,2.13-7.77.77-8.52-.04-15.46-.55-4.71-2.69-28.09-4.63-30.42-.11.96-.09,1.95-.62,2.81-5.53,4.02-13,4.48-19.47,2.48-2.72-.84-15.83-7.96-10.15-10.89,2.08-1.07,12.09,5.07,17.41,4.99,4.01-.06,9.48-3.41,12.83.61ZM455.1,255.63h-97.63l-27.28,26.94,124.92.66v-27.61ZM590.54,255.63h-131.49v95.97c3.12-5.73,8.65-9.19,11.55-1.34,12.22-6.45,12.9,6.45,6.14,13.44-4.53,4.68-7.73,2.43-11.76,4.02-.57.22-5.93,6.12-5.93,6.56v50.61l.99.99h25.64c.84,0,1.54-2.04,1.68-2.93,1.09-6.99,1.14-46.44,0-53.31-.44-2.64-2.23-2.65-2.65-4.58-.58-2.68.08-6.4-.07-9.14-.13-2.41-2.52-2.85-.26-6.29.56-.85,1.96-1.13,2.32-1.77.96-1.69,1.24-35.26.66-38.69-.37-2.2-4.45-4.62-5.62-8.18-1.83-5.54-1.09-12.4.5-17.89.66-2.27,6.3-14.17,8.06-14.36,4.03-.43,10.32,17.17,10.76,20.83,1.44,12.08-4.28,12.63-5.17,21.63-.99,10,.74,21.39-.07,31.55,1.54.94,7.76,8.63,8.37,8.79,4.66,1.21,11.9-10.67,14.04-14.07-14.89-2.37-10.12-14.74-5.43-24.46.64-1.32,3.08-3.04,3.93-5.31,1.45-3.9.58-7.59,1.33-10.45,1.17-4.53,8.34-9.65,12.5-11.23,15.01-5.71,24.83.81,30.35,14.85,1.57,4,8.67,27.57,8.63,30.7-.07,5.57-5.61,4.62-5.9,7.15,2.57,9.02,9.01,27.28,1.69,34.98-2.19,2.3-5.6,2.5-6.71,3.48-1.73,1.52.6,15.44,1.07,18.64.07.49,1.2.47,1.26.94,1.37,9.59,1.72,19.53,3.31,29.11h26.3v-170.24ZM494.96,303.38c7.25-5.88,2.25-25.14-4.68-30-5.29,7.07-9.49,19.96-5.28,28.27,2.04,4.02,6.58,4.46,9.96,1.72ZM455.1,286.52l-111.05-.59v128.03s50.47.65,50.47.65c.1-6.35,11.1-27.92,9.83-32.3-.4-1.39-2.1-1.43-2.54-4.06-1.22-7.29,2.09-21.76,8.58-26.01-2.25-1.96-8.73-1.32-9.75-5.07-.41-1.5,1.08-10.49,1.51-12.68,1.18-5.97,3.87-11.71,5.45-17.56.74-2.74-.24-5.14,1.29-8.53,3.99-8.82,16.03-12.69,25.05-10.26,3.45.93,12.25,8.63,11.26,12.24-.15.56-1.88.27-1.28,2.64,2.79,1.46,3.18,5.66,4.8,7.49.87.99,3.65,1.73,4.44,3.11,2.77,4.84-3.8,7.45-3.49,12.71l-7.07.16c-.17,2.41,2.61,2.21,3.86,3.69,3.22,3.8.24,7.07-3.19,9.12,3.97,3.36,5.01,12.86,11.49,8.19l.33-70.96ZM556.35,300.33c-2.97-17.2-25.7-16.4-34.2-3.62l34.2,3.62ZM154.46,288c-14.57,3.01-10.85,40.3,9.61,33.92,1.13-.35,1.09-1.22,1.11-2.17.23-8.78-3.41-20.25-2.79-29.48-.84-2.73-5.68-2.74-7.93-2.27ZM439.08,304.51c-9.15-8.58-26.98-3.34-28.65,9.9.54,1.09,1.15.95,2.15.99,7.85.35,20.97-6.05,29.36-6.54.42-.48-2.38-3.9-2.87-4.36ZM549.07,302.34c-4.35-1.07-26.24-3.75-28.3-1.09-1.51,6.84-3.2,27.63,3,31.98,3.41,2.39,19.04,1.4,21.45-2.28,1.7-7.26,1.53-14.94,2.6-22.27.07-.48,1.14-.21,1.34-1.41.24-1.4-.18-3.42-.09-4.93ZM559.92,309.92c-2.32-5.08-1.66-6.78-8.83-6.96l-3.31,30.55c2.53,4.11,18.2,2.15,18.94-1.37-1.75-7.53-3.71-15.44-6.8-22.21ZM493.23,307.56l-3.94.66v38.12l3.94-.99v-37.79ZM323.09,385.63c1.72.82,16.32-.89,16.86-2.24l-.04-61.57c-1.58-4.95-35.55-10.24-41.52-9.58-1.18.47-1.75,10.98-3.11,13.86-.66,1.4-5.28,5.39-5.76,6.93-.55,1.78.08,8.91-.19,11.58-.31,3.05-1.27,7.07-2.38,9.95,11.93,7.8,22.06,15.45,32.04,25.63.79.8,3.79,5.28,4.09,5.43ZM441.18,312.28l-9.12,2.3c-.42,1.41-.38,27.91.02,29.31.35,1.21,4.82,3.02,6.27,3.12,4.57.31,3.86-1.33,6.89-3.62-2.95-2.4-7.01-5-6.3-9.56,1.14-1.61,6.44,1,7.57-.02.18-.16-.1-1.82.39-2.54,1.33-1.97,4.18-3.03,4.32-5.64,0-1.35-3.47-2.12-4.69-3.44-.55-.6-.7-2.14-1.28-2.96-1.5-2.13-3.51-3.61-4.07-6.95ZM520.18,334.51l-3.1-9.06-1.49-11.31c-3.55,8.02-10.13,20.05,4.59,20.37ZM428.8,344.7v-29.91l-19.55,4.12c-.84,4.06-2.55,7.89-3.55,11.9-.84,3.35-4.08,14.37-1.2,16.49,4.24,3.12,20.2,1.95,24.29-2.6ZM4.08,328.92v102.21l42.73-10.2c2.89-11.38,6.97-22,13.54-31.81,6-8.96,13.93-16.07,21.97-23.06l-4.66-.93c-2.19-14.79-14.04-25.2-29.66-20.57-4.76,1.41-7.19,6.11-11.69,7.04.98-17.44-16.66-28.69-32.22-22.68ZM559.45,338.67c-5.63-.4-10.01.58-14.92-2.84-5.98,12.95-14.48,10.7-22.69,1.31-.8.17-5.77,9.75-7.01,11.4-.62.82-4.85,3.12-2.76,4.36l4.4.72c1.24-.3,2.59-9.38,5.69-6.29-2.75,8.15-6.07,16.51-5.92,25.29h11.18c-4.42-14.45,11.12-10.74,19.73-13.46l.62-.66c-1.82-2.33-2.33-11.09,1.67-8.23l2.06,7.83c.72.28,12.17-1.72,12.73-2.24,1.67-1.55-3.19-16.75-4.79-17.2ZM526.76,337.15c3.29,7.4,10.98,6.15,14.47-.33l-14.47.33ZM169.01,340.52c-16.33-.12-33.24,3.95-48.53,9.48-33.29,12.04-61.55,34.01-70.2,69.83-.83,3.45-3.56,18.13-3.37,20.88.25,3.59,10.43,7.94,13.71,9.16,10.23,3.8,21.34,5.1,32.22,3.96,2.02-1.01,3.69-15.79,4.66-18.88,4.91-15.63,18.82-29.04,34.13-35.03,2.37-.93,17.27-5.29,18.61-4.86.85.28,1.28.99,1.1,1.88-4.53,2.78-17.24,3.53-19.02,9.06-2.43,7.56-3.92,23.73-4.63,32.05-.34,4.03-1.49,11.76-1.2,15.27.06.79.21,1.03.89,1.44,18.37-5.23,36.93-12.13,53.09-22.45,3.4-2.17,8.48-5.66,11.3-8.42,7.35-7.2,7.09-16.09,16.99-21.14,2.58-1.32,5.44-1.42,7.38-2.48s17.01-17.57,15.42-19.09c-26.05-.68-57-12.16-62.55-40.67ZM440.47,350.45c-.46-.26-9.51-3.22-10.03-3.21-1.04.01-4.19,2.83-6.2,3.42-2.99.89-8.55.3-10.93,1.56-5.97,3.17-12.05,22.22-7.54,27.33,3.98,4.51,27.51,4.49,33.44,1.53.89-8.79-11.58-10.32-13.05-19.93,2.61-2.88,4.55,3.98,6.19,5.98,1.15,1.4,3.7,4.01,5.62,3.24,1.55-.62,8.4-8.78,8.4-10.66,0-.55-5.43-8.98-5.9-9.25ZM495.87,362.77c4.45-2.34,6.32-15.77-1.32-15.11l1.32,15.11ZM466.27,348.32c-4.48,1.05-4.7,7.87-7.55,10.52s-8,1.84-10.18,3.62c-1.16.95-1.48,3.33-2.64,4.59-2.65,2.86-10.74,7.46-1.59,8.8,12.16,1.79,14.6-8.9,20.67-11.44,1.66-.69,2.93.15,4.48-.1,5.79-.94,2.9-2.86,3.67-4.17.57-.97,3.15-1.02,3.57-2.41.19-.64-.1-4.69.74-6.13l-10.1,2.58-1.07-5.86ZM492.52,350.35c-1.45-1.94-8.31.86-6.51,1.9h6.57c-.08-.57.17-1.59-.06-1.9ZM515.57,356.22l-12.29-1.76c-1.46.4-3.24,9.43-2.09,11.21,1.2,1.88,9.22,4.79,11.02,3.59l3.36-13.04ZM493.23,354.89c-2.45-.15-6.33-.15-5.91,3.28,2.31-.56,6.53.08,5.91-3.28ZM328.49,398.64c-8.35-13.61-19.91-25.92-33.23-34.81-1.42-.95-9.07-5.78-9.78-5.38-2.2,2.9-4.67,6.74-7.21,9.27-1.35,1.34-7.32,5.18-7.57,5.58-1.46,2.32-5.73,21.88-7.39,26.79-2.28,6.73-5.98,12.82-7.42,19.86l21.7,1.98c.32-3.73-.23-25.23.97-26.97.62-.9,1.37-.66,2.31-.65l.29,28.31c1.21,1.69,24.6,2.02,27.31,6.2l-53.92-5.94-.37,1.69c4.25,9.51,1.6,29.52-4.05,37.93-1.06,1.58-4.7,3.02-3.82,4.79,2.21,4.45,43.35,14.13,49.99,14.47,53.17,2.75,53.73-48.04,32.19-83.12ZM565.55,358.83l-23.01,4.61,3.94,12.17c11.1,1.32,21.94-3.3,19.07-16.78ZM493.23,360.15c-2.65-.16-8.79,3.9-3.63,3.98,2.47.04,4.14-1.44,3.63-3.98ZM534.65,375.27c-.07,2.53-2.99,4.13.49,5.8,10.88,2.3,8.87-15.15,3.66-16.84-3.51-1.14-10.64.02-8.74,5.13.11.17,3.43-2.98,3.29-.33-.69,3.13-4.23,3.92-3.29,7.56l4.59-1.31ZM495.86,367.05v58.17c1.75.49,7.02,1.67,7.8-.42.85-2.27,1.01-12.67,1.59-16.16,1.48-8.95,7.07-25.98,7.04-33.72,0-.98-.31-1.98-.75-2.85-5.81.09-11.06-2.19-14.04-7.31-.23,0-1.55,1.89-1.64,2.29ZM489.29,368.03v82.49c.45.83,1.97,1.4,2.62.98,2.34-1.5.56-48.77.64-55.56.04-3.54,1.65-27.51.68-28.56l-3.94.65ZM267.72,375.27c-10.38,3.44-20.48,6.13-31.54,6.25-4.9,7.03-10.13,13.6-16.45,19.37,8.52,1.49,16.51,5.97,23.32,11.21,1.68,1.3,8.24,8.85,9.51,7.83l15.17-44.65ZM527.42,379.86c.29-6.44-2.56-3.91-6.21-3.92-1.69,0-4.45-1.88-5.54.4-1.91,3.99,9.57,3.42,11.76,3.52ZM455.1,377.23c-4.04,2.66-12.36-1.17-12.55,4.27-.18,5.14,1.91,10.52,2.63,14.65,1.04,5.96,1.92,11.96,3,17.91l6.93-.02v-36.81ZM559.86,417.14c-1.44-12.13-2.52-24.33-4.78-36.35l-19.1,3.02-.14,22.54c-1.16,3.63-15.73,3.14-17.3-.2l3.57-23.25-7.76-1.61c-.85.49-3.89,14.59-4.37,16.95-.77,3.83-4.98,26.9-2.95,28.63,17.56,4.03,36.46,3.64,53.85-1.07.23-.3.25-6.56.13-7.53-.14-1.1-1.13-1-1.14-1.14ZM532.68,383.15l-7.73.82-3.06,20.95c1,.84,9.56,1.22,10.79-.41v-21.36ZM439.97,383.81c-11.2,3.41-21.79,1.58-32.9.29-1.52,2.15-.5,3.41,1.73,4.26,8.27,3.13,22.59,2.06,31.11-.02l.07-4.53ZM340.04,413.39v-25.31c-.57-.91-1.33-.94-2.29-1.04-1.8-.19-11.49.52-11.53,2.33l13.82,24.02ZM440.6,391.07c-12.23,3.53-23.29,1.32-35.49-.39-3.14,6.39-4.18,13.42-5.96,20.22-.13.51-1.05.47-1.3,1.48-.71,2.83-3.49,14.93-2.27,16.82,12.09,4,28.09,5,40.61,2.43,7.89-1.62,10.71-1.68,10.27-9.92-.2-3.78-2.12-7.44-2.49-9.46-1.25-7.02-1.92-14.18-3.37-21.16ZM249.07,458.5c4.44-8.45,7.02-28.3.8-36.14-8.9-11.2-38.89-29.26-47.24-8.32,5.58-2.32,11.18-3.07,17.1-1.96.85,5.09-8.19,2.94-12.75,4.01-4.89,1.15-11.85,6.36-14.11,10.87-.31.62-1.7,3.56.22,2.85,2.33-.87,4.17-3.43,8.07-4.42,2-.51,11.59-2.28,11.99.17.35,2.12-11.31,3.27-13.61,4.13-5,1.87-11.72,7.68-5.69,12.53,2.19-1.39,16.15-9.89,17.33-6.14.78,2.5-8.51,4.36-10.76,5.66-7.27,4.19-8.87,13.06,1.22,12.43,3.4-.21,8.63-4.17,11.04-3.86,1.05.14,8.34,6.68,11.67,8.1,4.24,1.81,18.26,4.91,22.19,3.2.42-.66,2.35-2.76,2.53-3.1ZM4.08,433.76v403.58h586.45v-408.18h-32.54c-.89,0-2.67,1.06-2.97,2.29-1.27,5.34,3.13,17.15,1,23.35-1.52,3.11-20.1,3.08-23.61,2.56-2.7-.4-4.6-2.44-6.64-2.63-3.79-.35-29.14,4.37-24.5-5.38,1.48-3.1,7.22-5.08,8.42-6.69,1.76-2.37,1.47-8.64.96-11.55-.3-.52-4.13-1.96-4.61-1.96h-10.19c-1.78,4.86,1,21.97-1.99,24.62-2.11,1.87-6.55.18-6.55-1.29v-23.33h-28.6c-.23,0-3.14-2.55-3.34-3.23-.76-2.59.22-5.4-.57-7.99l-5.66-.31c-1.08.69,1.04,8.21.66,10.49-.48,2.88-2.27,2.55-3.12,4.13-1.5,2.76-1.06,14.75.65,17.49,1.48,2.37,8.31,2.12,10.71,5.72,1.15,1.73,1.87,4.93-.34,6.21-3.74,2.16-21.78,1.97-26.29.69-1.33-.38-2.18-1.99-3.03-2.15s-8.38,1.62-10.64,1.69c-3.28.1-19.31.01-20.42-2.93.34-8.29,3.44-15.63,4.57-24.13l-8.93-3.69.99-13.81h-52.6c6.27,19.29,6.63,41.24-8.79,56.29-10.25,10.01-25.11,12.34-38.87,11.4-6.93-.47-14.38-3.76-20.17-4.16-3.82-.27-3.95,4.98-4.41,7.87-2.76,17.31-1.93,33.31-5.79,51.39-.93,4.37-1.97,9.24-4.16,12.93,8.91,11.65,29.34,32.66,15.24,46.83l17.62,45.26c2.38,1.59,39.07-10.47,46.96-9.53,6.63.79,6.14,6.05,7.75,7.04.68.42,2.28-.06,3.17.43,12.63,7.04-.42,20.25-6.9,26.66-13.9,13.75-56.15,42.88-75.61,43.39-3.08.08-6.2-.57-8.57-2.65s-10.54-21.72-12.47-26.32c-7.55-17.99-13.54-34.55-22.22-52.09-.79-1.6-4.23-10.8-4.88-11.01-12.69,1.27-25.3.57-37.88-1.19-4.44,4.06-7.43,9.7-12.37,13.29-20.41,14.84-50.88-1.65-72.5-6.22-6.11,16.08-15.28,50.99-39.64,38.96-22.35-11.04-8.29-65.15.34-82.73,3.24-6.6,9.15-15.82,17.57-14.71l33.82,9.89c-3.51-6.46,3.66-13.24,3.65-18.07,0-2.92-2.58-4.42-3.09-5.85-10.24-29.08,4.52-55.69,13.77-82.41-2.91-7.28.11-12.32.73-18.28,1.68-16.35,1.91-32.87,5.97-48.9-13.34,5.52-23.98,15.41-28.08,29.43-1.42,4.86-3.05,11.34-4.09,15.75-.46,1.98-.2,4.36-1.33,6.44,5.82,5.86,8.22,10.13,5.42,18.56-1.66,5-6.38,6.75-7.1,8.71-.36.97.57,5.05.18,7.38-1.37,8.11-11.4,12.98-18.94,11.37-2.48-.53-5.6-3.59-6.86-3.62-2.13-.05-3.75,2.15-8.24.97-2.31-.61-3.49-2.84-5.06-3.49-2.99-1.22-5.83-.96-8.95-2.88-9.69-5.97-10.07-20.49-6.95-30.26.19-.59,1.2-.66,1.44-1.35.91-2.56,6.28-13.84,6.2-14.63s-2.84-2.17-3.14-5.26c-.26-2.77,2.73-16.57,2-17.41l-42.07,9.2ZM189.48,430.48c-6.1,3.01-11.68,7.03-17.73,10.2-7.39,3.87-16.19,7.96-24,10.84-3.87,1.43-19.9,5.26-21.65,6.62-2.82,2.21-1.68,9.63.69,11.68,3.68,3.19,23.44,8.44,29.03,9.75,27.21,6.41,59.93,9.04,87.89,7.41,2.24-.13,28.25-2.41,24.66-7.86-5.74-2.3-20.7-5.57-24.6-9.92-1.04-1.16-1.38-3.95-2.79-4.44-1.64-.58-6.37-.33-8.91-.95s-6.8-1.86-9.04-2.79c-2.99-1.24-10.38-7.32-11.04-7.4-3.38-.41-11.38,6.68-18.16,1.76-4.4-3.2-.87-7.94-1.82-10.64-.38-1.08-2.15-1.39-2.86-2.42-3.03-4.42.59-7.28.32-11.83ZM552.39,431.15l-13.12,1.31.67,9.17c8.94-1.35,15.83,2.02,12.46-10.48ZM524.54,432.73l-10.27-.94v8.55s11.74-.11,11.74-.11c.02-2.8,1.07-5.82-1.47-7.51ZM528.73,433.1v15.78l8.4-5.4c.75-3.99-1.5-6.83-1.79-10.75l-6.62.37ZM442.61,433.1l-10.89,2.58-.33,8.86c.37,1.26,9.9,1.39,11.22-.6v-10.85ZM416.31,435.73l-12.46-.62-1.35,9.82,12.52.38,1.3-9.59ZM420.72,435.87c-2.24.71-3.74,12.79-2.44,14.01,1.09,1.02,4.03.3,5.59,2.29,1.76,2.25-.07,6.41,1.31,6.55.57-.55,1.88-.56,2.31-.97.76-.73,1.76-19.54,1.22-20.94-.6-1.57-6.55-1.4-7.99-.94ZM525.98,444.4c-.88-1.57-7.88-1.59-9.74-1.42l5.93,9.19,3.82-1.43c.29-.51.29-5.82,0-6.34ZM553,443.02l-9.81,1.26c3.82,3.07,6.32,5.65,8.88,9.84,2.52.04,1.7-9.4.93-11.1ZM518.87,452.82c-.39-4.99-4.84-9.1-9.85-7.22l3.9,6.93,5.95.29ZM547.8,454.13c-2-3.59-5.29-7.55-9.86-7.22,3.1,4.15,3.44,9.91,9.86,7.22ZM401.32,457.96c6.36,1.69,10.65,1.26,13.06-5.42,2.5-6.9-7.49-4.82-11.9-4.67l-1.16,10.09ZM443.24,447.59l-11.77.68-.1,10.86c7.84,4.72,9.85-.42,14.26-5.6l-2.39-5.94ZM509.66,452.82c1.14-1.03-3.32-6.05-4.63-3.66l-.6,2.97,5.22.69ZM93.74,459.14c-.56-.4-.39-1.41-1.87-1.72-2.65-.55-6.87.32-9.87,0-4.67-.51-9.71-1.07-14.29-2.15-6.43-1.51-12.03-5.2-18.27-6.09-6.78,12.06-16.31,38.51,3.28,43.08-2.92-1.59-4.37-15.7-.33-14.45,1.74,4.22.67,8.07,2.46,12.66,2.18,5.59,6.69,8.4,12.34,5.39-1.13-1.61-6.69-15.14-1.67-14.14,1.95.39,2.34,7.52,3.52,10.33,3.43,8.13,10.45,9.63,17.67,4.94,6.25-4.06,7.77-14.74-1.11-15.25-.46.46,1.13,9.17-2.97,5.93-1.94-2.81,1.4-18.56,6.64-12.47l-1.7,3.9c5.74,5.36,12.1-3.92,12.45-8.94s-2.39-8.23-6.29-11.03ZM539.25,454.79c.39-4.47-8.56-7.78-9.78-2.85-.89,3.61,7.76,2.84,9.78,2.85ZM422.08,454.28l-4.47-1.81-3.92,6.93c4.08.13,10.07.76,8.39-5.12ZM449.69,459.91c3.65-9.63-1.69-5-5.76-1.15l.4,1.3,5.36-.15ZM455.09,455.46c-1.46-1.52-1.93,4.06-1.96,4.59,3.55-.19,2.8-1.81,1.96-4.59ZM266.4,486.35c-21.68,5.56-44.51,5.17-66.72,3.27-24.69-2.11-51.19-6.58-73.65-17.07l-2.85,11.06c19.83,9.22,42.27,13.96,64.01,16.53,18.32,2.16,38.8,3.46,57.18,1.97,3.4-.28,17.74-1.77,19.88-3.07,2.41-1.47,2.12-9.93,2.15-12.69ZM265.75,502.12c-25.31,4.76-51.7,4.12-77.24,1.3-19.91-2.2-39.67-6.17-58.37-13.29-2.03-.77-8.02-4.64-9.6-3.7-2.38,5.77-4.56,11.66-6.33,17.66-8.65,29.25-9.15,51.99,17.1,72.29,17.38,13.45,39.77,18.42,61.47,18.41v1.97c-29.11,2.51-60.09-9.51-77.92-32.86-3.21-.72-3.15,11.29-2.45,13.63,4.11,13.64,39.79,32.29,53.12,35.63,37.41,9.4,44.94-11.81,75.76-22.13,10.58-3.54,23.23-5.98,34.33-4.13-.08-6.17-3.92-11.35-6.95-16.38-9.19-15.23-25.22-30.94-41.01-39.19-9.67-5.06-20.32-8.04-30.27-12.47-1.1-2.38,7.69.6,8.4.81,19.28,5.69,37.35,15.75,51.1,30.41,1.23-.08,5.65-19.95,6.05-22.2,1.49-8.44,2.31-17.21,2.82-25.77ZM75.74,571.14c-7.05-.59-12.94,7.82-15.89,13.36-8.8,16.53-24.95,77.64,4.45,81.23,1.31.16,3.4.73,2.89-1.24-14.01-2.49-14.88-17.6-14.49-29.28.64-19.11,7.53-41.25,17.76-57.18l5.28-6.88ZM79.03,596.77c.59-4.92,3.5-10.36,6.59-14.13.99-1.21,7.46-4.75,5.24-6.56-2.52-.44-8.33-3.06-10.51-2.69-4.34.74-14.26,14.83-12.37,18.01l11.06,5.36ZM117.82,630.29c-3.36-13.27-2.22-25.37,2.36-38.15-.2-.84-7.97-9.64-8.97-10.12-2.01-.97-14.69-4.08-16.59-3.51-3.6,1.07-12.11,13.46-12.8,17.44-1,5.73,3.01,5.4,6.07,8.72,4.68,5.07,7,12.42,9.56,18.71l20.36,6.92ZM271.3,603.07c-1.2-2.57-5.53-13.48-7.81-13.9-16.88,1.94-33.24,8.04-47.01,17.85l32.8,74.27,13.76-1.13c2.32-15.22,9.71-29.47,25.72-33.46-5.33-14.7-10.75-29.33-17.45-43.63ZM271.17,596.59c2.05,2.63,5.6-4.67,5.48-6.42-.72-1.16-6.65-2.01-7.97-.65-.34.46,2.16,6.64,2.49,7.07ZM87.31,608.86c-4.88-6.38-13.58-12.47-21.44-14.44-3.05,2.47-9.8,27.44-8.91,28.67,11.82,1.45,23.54,3.79,33.58,10.48,6.46-8.03,2.28-17.5-3.23-24.7ZM176.99,618.47c-16.26-2.17-32.01-8.73-45.57-17.87-1.67-1.12-7.08-6.6-8.32-5.79-4.53,8.37-8.87,33.02,2.26,37.48,3.84,1.54,15.5,3.64,19.77,3.9,13.42.82,26.57-4.96,31.87-17.73ZM193.43,618.46h22.68c.14,0,2.1-.66,1.55-1.52-4.67-12.87-5.31-6.72-14.11-2.49-3.11,1.5-7.1,2.22-10.12,4.01ZM87.29,643.16c.9-1.59,1.41-3.71,2.13-5.43-.03-3.1-15.85-8.39-18.93-9.08-4.52-1.02-9.18-1.43-13.8-1.63l-.05,9.57c10.36-.72,20.86,2.55,28.65,9.47.38-1,1.62-2.21,2.01-2.9ZM336.91,645.93c5.08,2.27,11.73-6.98.18-7.13-4.92-.06-24.45,4.94-28.55,7.65-7.48,4.94-7.96,17.75-6.62,25.92,4.57-3.53,23.74-13.72,7.86-14.77-.99-.89-.86-1.12.03-1.98,3.11-3.01,7.98,1.31,10.71,2.85,9.76-5.6,2.17-8.71-5.48-7.45-1.45-3.48,5.33-3.96,7.43-3.5,4.12.91,6.44,9.61,12.35-.44-3.04-2.83-6.15-2.13-9.92-2.63l.19-2.16c2.05-1.73,6.31-.38,8.52.68,1.85.89,3.09,2.87,3.29,2.96ZM69.83,640.82l-14.47-.66c.92,5.67.51,12.19,4.6,16.81,6.16-2.82,8.64-9.89,9.87-16.15ZM71.81,663.16c4.3,1.08,11.74-10.17,11.83-12.88.11-3.08-9.48-8.93-11.16-7.47-.42,5.05-2.82,9.63-5.92,13.47-1.27,1.57-4.54,2.45-2.86,4.27,6.14,4.27,11.61-8.88,13.7-8.54,4.77.79-6.22,10.57-5.59,11.15ZM260.25,706.78c1.31,1.55,1.86,2.93,4.43,2.9,6-4.95,13.36-8.02,19.7-12.45,18.57-12.97,34.94-29.37,54.8-41.18,2.15-1.28,12.67-5.46,12.62-6.91-1.15-2.97-2.31-3.33-5.34-2.92-13.14,1.75-50.17,36.83-63,46.15-7.41,5.38-15.61,10.53-24.94,11.55-.55,2.16.97,1.97,1.73,2.86ZM303.23,646.73c-21.27-2.37-21.81,24.1-16.09,38.12l12.67-10.28c-3.74-9.5-1.46-19.26,3.43-27.84ZM284.16,651.99c-15.97,7.12-21.8,29.44-17.06,45.33,6.94-.39,11.52-6.08,16.94-9.56-3.49-8.48-4.97-18.86-2.87-27.92.79-3.44,2.86-4.45,2.99-7.85ZM350.56,653.96c-29.38,14.01-51.54,39.02-79.54,55.2,21.83-5.75,44.03-19.86,61.45-34.19,2.47-2.04,20.84-18.12,18.1-21.01ZM257.73,683.08c-1.34.1-6.66.82-7.03,2.15l6.89,15.93,7.3-2.82-2.05-14.84c-.84-1.19-3.8-.52-5.11-.42Z"/>
  <rect x=".14" y="841.29" width="595" height=".66" fill="#fff"/>
  <path d="M4.08,433.76l42.07-9.2c.73.84-2.27,14.64-2,17.41.29,3.09,3.06,4.48,3.14,5.26s-5.29,12.07-6.2,14.63c-.24.69-1.25.76-1.44,1.35-3.12,9.77-2.73,24.29,6.95,30.26,3.13,1.93,5.97,1.66,8.95,2.88,1.56.64,2.74,2.88,5.06,3.49,4.49,1.18,6.11-1.02,8.24-.97,1.26.03,4.38,3.09,6.86,3.62,7.54,1.61,17.57-3.26,18.94-11.37.39-2.33-.53-6.41-.18-7.38.72-1.96,5.44-3.7,7.1-8.71,2.8-8.43.4-12.7-5.42-18.56,1.13-2.08.87-4.46,1.33-6.44,1.03-4.41,2.67-10.89,4.09-15.75,4.1-14.03,14.74-23.91,28.08-29.43-4.07,16.04-4.29,32.55-5.97,48.9-.61,5.97-3.64,11-.73,18.28-9.25,26.72-24.01,53.32-13.77,82.41.5,1.43,3.08,2.93,3.09,5.85.01,4.83-7.16,11.61-3.65,18.07l-33.82-9.89c-8.42-1.11-14.33,8.11-17.57,14.71-8.63,17.58-22.69,71.69-.34,82.73,24.37,12.03,33.53-22.88,39.64-38.96,21.62,4.57,52.09,21.06,72.5,6.22,4.94-3.59,7.93-9.23,12.37-13.29,12.58,1.76,25.18,2.46,37.88,1.19.64.21,4.09,9.41,4.88,11.01,8.68,17.54,14.66,34.1,22.22,52.09,1.93,4.6,10.15,24.29,12.47,26.32s5.49,2.73,8.57,2.65c19.46-.51,61.71-29.64,75.61-43.39,6.48-6.42,19.53-19.63,6.9-26.66-.89-.49-2.49-.01-3.17-.43-1.62-.99-1.12-6.25-7.75-7.04-7.9-.94-44.59,11.11-46.96,9.53l-17.62-45.26c14.1-14.17-6.33-35.18-15.24-46.83,2.19-3.69,3.22-8.57,4.16-12.93,3.86-18.08,3.04-34.09,5.79-51.39.46-2.89.59-8.14,4.41-7.87,5.79.41,13.25,3.69,20.17,4.16,13.75.94,28.61-1.4,38.87-11.4,15.42-15.05,15.05-37,8.79-56.29h52.6l-.99,13.81,8.93,3.69c-1.14,8.5-4.23,15.84-4.57,24.13,1.11,2.95,17.14,3.04,20.42,2.93,2.27-.07,9.82-1.85,10.64-1.69s1.7,1.78,3.03,2.15c4.5,1.28,22.55,1.47,26.29-.69,2.21-1.28,1.49-4.48.34-6.21-2.4-3.6-9.23-3.36-10.71-5.72-1.71-2.74-2.15-14.74-.65-17.49.85-1.57,2.64-1.24,3.12-4.13.38-2.28-1.73-9.8-.66-10.49l5.66.31c.79,2.59-.2,5.4.57,7.99.2.67,3.1,3.23,3.34,3.23h28.6v23.33c0,1.47,4.45,3.16,6.55,1.29,2.99-2.66.21-19.76,1.99-24.62h10.19c.48,0,4.31,1.44,4.61,1.96.51,2.91.8,9.18-.96,11.55-1.2,1.61-6.94,3.59-8.42,6.69-4.64,9.74,20.7,5.03,24.5,5.38,2.03.19,3.94,2.22,6.64,2.63,3.51.52,22.1.55,23.61-2.56,2.12-6.2-2.28-18.02-1-23.35.29-1.23,2.08-2.29,2.97-2.29h32.54v408.18H4.08v-403.58ZM393.95,508.69c-1.12-1.92,2.94-15.72.33-15.76-3.03,3.98-3.18,9.85-2.85,14.67l2.52,1.09ZM383.24,494.44c-5.15-4.25,0,5.42.21,6.02.63,1.8,1.58,8.54,3.58,8.22,4.49-.73-1.97-12.75-3.78-14.24ZM489.12,493.74c-6.11.94-22.02,11.92-16.63,18.28,3.73,4.4,36.66,5.35,39.85-.32,5.97-10.61-13.87-19.4-23.22-17.96ZM407.76,498.18c-1.87-1.86-11.24,10.17-7.55,11.82l7.55-11.82ZM549.11,529.07c-1.09-.08-1.5-.21-2.27.68-1.14,1.3-3.33,14.59-.68,16.39,1.2.04,1.41-10.45,1.67-12,.05-.28,2.58-2.38,1.28-5.07ZM537.05,533.91c-.93-.87-6.28-4.05-4.92-.67,1.28,3.19,8,7.42,7.13,12.5,5.7,1.56-.13-9.89-2.21-11.83ZM564.23,532.36c-5.25.35-10.98,6.4-12.03,11.31-1.71,8,6.11-5.64,6.79-6.37s6.43-3.84,5.24-4.94ZM48.79,533.02c-4.52.31-3.74,15.85-2.3,16.44.26.11,1.72.24,1.65-.4l.64-16.04ZM364.13,539.82c-6.33-7.48-19.16-8.01-27.41-3.89-2.84,1.42-11.82,8.85-11.05,12.38,1.68,7.69,53.32,9.05,38.46-8.5ZM39.84,541.97c-1.36-2.6-2.82-6.73-6.17-6.98l6.01,14.35,2.54-.27c.81-3.37-1.28-5-2.38-7.11ZM57.99,536.96c-1.27-1.5-10.76,11.82-4.92,12.45l4.92-12.45ZM449.84,562.6c-2.16-2.62-7.42,15.25-5.94,16.63,1.27,1.29,2.85,1.69,3.3-.54,1.01-4.95,1.23-10.99,2.63-16.09ZM433.13,564.14c3.84,5.19,3.88,11,7.18,16.18,3.48-.24-2.21-19.15-8.21-17.07-.27.99.76.51,1.04.88ZM456.86,573.57c.8-.95,1.1-1.65-.13-2.43-3.31-.7-10.35,8.41-4.9,8.9.84-3.31,3.46-4.59,5.03-6.46ZM339.38,595.46c-5.51.69-4.15,10.9-3.28,15.11,2.98,1.96,1.49-13.36,3.28-15.11ZM329.31,600.27c-.66-.81-2.73-1.58-3.41-2.83-1.4-.25-1.05.52-.85,1.5.79,3.82,4.75,6.7,5.07,10.6l2.03.39c.42-3.2-.81-7.18-2.84-9.65ZM351.22,600.72c-2.59-2.18-11.97,8.2-8.21,11.16l8.21-11.16ZM509.51,600.89c-14.1,1.97-27.47,15.89-3.37,18.8,5.84.71,27.47,1.87,27.89-6.17.59-11.15-16.38-13.77-24.52-12.63ZM428.64,642.96c-8.84,1.36-26.41,14.57-6.66,16.83,4.9.56,15.98.98,20.51-.36,10.89-3.21,3.29-15.01-4.98-16.49-2.38-.42-6.46-.36-8.87.01ZM491.91,690.77c-.92-4.54.98-9.69,1.02-13.8,0-.87.6-1.16-.69-1.96-5.04,2.69-3.4,9.72-3.52,14.68l3.19,1.08ZM484.68,690.76c.94-5.19-1.74-12.53-7.22-13.79-.9,2.82,2.15,4.07,2.81,5.43.7,1.46,2.65,9.4,4.41,8.36ZM160.55,696.68c1.04-3.09.31-6.37.72-9.47.22-1.62,3.13-6.64.91-7.61-1.8-.79-4.14,8.86-4.25,10.19-.19,2.43-.75,6.71,2.61,6.89ZM501.59,679.7c-2.01.52-9.24,9.95-4.74,11.7,1.48-2.36,2.27-4.91,3.98-7.18.76-1.01,3.46-2.35,3.57-3.01.26-1.48-1.59-1.84-2.82-1.52ZM146.1,682.88l8.2,13.8c3.82-.81-4.19-14.59-8.2-13.8ZM171.73,686.83c-4.43.51-7.94,5.76-6.57,9.85,1.55,1.01,7.42-8.97,6.57-9.85ZM67.75,700.79c-9.24.22-28.21,11.43-11.88,16.74,6.23,2.03,30.64,2.62,30.44-6.73-2.18-7.59-11.53-10.18-18.56-10.01ZM372.76,715.92c-6.01.81-17.16,6.44-17.63,13.32-.33,4.69,2.41,5.42,6.34,6.17,6.17,1.18,24.78,1.07,30.53-.91,8.67-2.99,3.52-11.68-2.05-15.07-4.97-3.03-11.45-4.28-17.19-3.5ZM548.08,737.82c-7-12.11-26.42-12.3-36.76-4.32-3.7,2.85-7.91,8.71-3.55,12.74,5.7,5.27,41.03,6.22,41.98-3.93.32-3.44-.75-2.9-1.67-4.49ZM155.13,731.68c-7.24,1.19-24.41,14.22-14.51,20.77,9.19,6.08,58.06,6.56,40.02-13.06-5.77-6.27-17.28-9.06-25.51-7.71ZM453.12,745.32c-.82.02-1.33-.28-2.02.42-1.63,1.65-3.09,14.55-1.92,17.33,3.11,2.12,3.55-16.23,3.93-17.75ZM444.22,756.87c-.86-2.24-4-9.52-7.19-8.92-1.22.95-.83.75-.47,1.76.57,1.58,3.33,5,4.39,7.45.97,2.25,1.07,8.44,4.18,6.46,1.96-1.25-.52-5.72-.92-6.75ZM457.63,762.97c.63-2.48,1.37-4.66,2.6-6.93,1.08-1.99,5.34-5.09,3.07-6.78-2.62-.52-10.09,10.52-8.2,13.81l2.53-.1ZM306.28,763.3c-5-5.92-14.83-8.15-22.26-7.28-11.11,1.3-31.91,16.82-10.63,20.77,7.9,1.47,46.91,3.1,32.89-13.49ZM73.77,757.16c-2.36-2.93-10.24,18.68-4.26,21.02,1.39.55.89-.92.97-1.63.39-3.12.25-6.56.83-9.69.66-3.55,2.99-6.05,2.45-9.7ZM51.43,762.4c5.33.18,8.5,16.31,10.83,15.79,3.24-3.58-6.25-20.19-10.46-17.1l-.37,1.31ZM84.95,764.39c-2.05-2.02-16.47,13.45-7.57,11.85l7.57-11.85ZM205.26,778.19c-1.23-.22-4.01,3.98-4.18,4.66-.67,2.56-1.47,13.77,2.76,9.36l1.42-14.02ZM198.03,793.3c2.45-2.49-4.22-15.48-6.56-13.14.86,1.62,4.77,14.35,6.56,13.14ZM387.15,790.24c-.77-1.46-6.46-5.99-8.19-6.59-9.42-3.27-24.47,1.43-27.7,11.26.12,2.97,6.39,5.06,9,5.46,4.76.72,19.4.77,23.4-1.24,3.75-1.89,5.64-4.76,3.48-8.88ZM216.44,783.45c-1.39-.04-2.87-.07-4.14.62s-6.92,9.4-4.07,9.89l8.2-10.51ZM503.75,788.05l-2.52.1c-1.37,2.25-4.21,14.93-1.08,15.67,2.57.61,1.34-5.76,1.58-6.94s1.26-.92,1.34-1.42c.36-2.28.38-5.06.68-7.41ZM495.86,803.82c.27-5.23-2.8-12.14-8.54-13.14-.7,2.84,3.33,4.6,3.97,5.73.49.86,2.49,9.73,4.57,7.42ZM512.29,793.97c-1.01-1.13-9.63,8.27-5.57,10.51l5.57-10.51Z" fill="#fff"/>
  <path d="M590.54,3.89v180.1c-17.29-8.46-42.61-1.86-48.66,17.74-20.38-13.67-47.09-5.01-50.65,20.34-9.96,1.75-25.07-4.15-31.85,4.62-8.73-29.43-15.58-60.11-27.65-88.74,1.14-1.55,12.66,1.01,14.82,1.67,11.44,3.48,26.25,14.44,33.55,23.83,3.43,4.41,6.36,12.65,9.29,16.16,6.57,7.87,7.31-13.92,7.16-17.02-.82-17.63-11.73-32.8-27.85-39.86-4.37-1.91-9.2-2.7-13.59-4.48,19.95-4.98,42.85-.25,60.17,10.49,3.27,2.03,14.84,12.95,15.86,13.1,4.55.67.95-13.17.25-15.41-9.38-30.27-48.27-40.77-76.3-32.86-4.71,1.33-8.98,4.29-13.79,5.27,16-17.22,39.4-28.72,63.43-27.27,4.82.29,18.21,5.64,12.06-2.86-15.14-20.91-52.86-20.6-72.8-7.28-14.53,9.71-17.28,20.77-25.55,34.26-.42.68.06,1.15-1.47.84-1.87-38.79-43.33-58.35-77.57-43.7-3.17,1.36-9.3,3.67-6.61,7.9,25.05,3.34,49.9,16.36,63.79,37.76-19.64-14.25-47.6-19.97-69.13-6.33-6.92,4.39-16.16,14.33-18.46,22.29-.37,1.29-1.37,4.43,1.03,4.34,22.36-13.4,48.72-13.88,72.75-4.51.65,1.02-9.55,2.23-10.87,2.6-22.47,6.31-38.69,30.23-35.81,53.59.23,1.86.79,4.33,2.41,5.53,3.06.92,10.02-11.17,12.36-13.77,5.45-6.04,16.85-15.71,24.1-19.29,4-1.98,16.54-6.34,20.59-5.67,2.55.42,6.02,6,9.55,7.6,3.16,1.43,5.78,1.29,8.93,2.24,3.05,13.53,4.83,27.24,6.92,40.94.08.53,1.12.25,1.3,1.46,3.07,20.72,4.27,41.85,3.91,62.79h-68.7c-3.53,0-22.98,22.09-26.6,26-1.96,2.12-7.57,4.13-4.31,7.53h12.49l.99.99v30.56c-13.57-4.71-27.51-8.15-42.04-7.27-.95-4.84-1.49-10.49-2.73-15.21-.8-3.05-3.58-6.7-3.87-11.38-.45-7.25,3.23-13.53,3.99-19.01,6.15-44.69-29.29-77.29-73.68-64.45-7.44,2.15-14.32,8.85-17.72,9.89-4.91,1.49-14.52-.16-21.2,1.15-18.61,3.66-32.36,19.35-39.7,35.87-3.88,8.72-4.12,19.64-14.42,23.74-1.49,0-14.39-13.46-16.73-15.48-21.31-18.44-57.66-48.79-86.5-50.9-7.58-.55-14.24.92-21.35,3.27V3.89h586.45ZM142.81,65.02c-4.01-40-64.23-37.97-67.03,1.68-8.55-1.91-18.05-1.53-25.51,3.42-5.51,3.65-10.9,12.38-11.37,18.87-.23,3.18-.93,12.03,2.69,13.12l164.55.27,1.28-1.35c2.75-18.26-14.92-26.59-30.46-19.84-3-17.43-18.97-21.95-34.15-16.16ZM71.81,180.04c-3.27-8.3-13.89-10.35-21.93-9.74l-1.09,2.52c10.36-1,17.88,3.38,23.43,11.78,7.07-5.24,7.38-9.19,17.17-10.28.49-.05,7.85,1.25,6.72-1.16-2.44-5.21-21.79.91-23.02,6.89h-1.29ZM140.17,194.51c-7.09-.85-13.49,2.11-17.49,7.83-3.14-.96-4.71-3.87-7.71-5.32-3.32-1.61-12.4-3.92-12.93,1.43,5.19-.28,11.06-.17,15.05,3.69,1.37,1.33,2.78,5.53,4.33,5.56,3.34-2.22,4.27-5.64,8.02-7.81s10.42-1.47,10.73-5.37Z" fill="#fff"/>
  <path d="M283.29,221c7.34,10.65,8.94,27.65,8.09,40.2-.48,7.09-3.58,15.05-3.3,21.72.6,14.24,12.36,30.35,1.66,45-2.79-24.78-5.56-49.46-10.99-73.79-.89-1.58-9.71-3.54-12.56-5.19-3.21-1.86-6.35-5.47-9.37-7.75-9.54,11.21-24.61,9.53-35.47.65-1.86-1.52-7.99-10.09-10.17-7.91.6,18.82-17.99,31.83-34.88,34.47l-.65,1.38c1.49,9.66,1.01,19.81,2.68,29.42.43,2.47,2.58,10.41,3.62,13.58,3.06,9.32,12.26,16.7,21.95,18.14,6.44.96,5.17-1.61,9.3-4.58,8.46-6.07,19.67-11.74,30.44-10.83,2.86.24,6.23,1.93,9.28,1.94,2.45.01,4.35-1.28,6.27-1.09,4.97.51,13.41,7.05,18.05,9.36l7.55-8.31c1.94,10.28,2.7,20.61.34,30.89-9.94,43.32-97.59,37.29-111.46-2.28-3.45-9.85-5.27-24.3-6.6-34.16-.67-4.99-.24-23.27-3.65-25.92-6.01-4.69-13.89-.05-17.64,5.21-10.78,15.11.34,37.64,20.02,34.14l1.31,11.83c-9.81.31-19.62,1.84-29.17,4.03-4.49,1.03-17.37,6.01-20.5,5.86-1.5-.07-3.22-1.31-4.26-2.3-8.81-8.42-6.23-20.34,3.19-27.07l-7.16-14.33c.28-7.43,4.64-15.29,10.22-20.76,13.72-13.47,15.17-7.72,24.07-27.72s16.96-35.99,40.03-40.31c6.94-1.3,13.94.37,19.12-.59,3.5-.66,9.28-6.6,13.78-8.58,20.89-9.18,53.36-3.89,66.84,15.65ZM260.33,335.34c-2.58-2.76-12.79-3.08-16.43-2.63-2.77.34-16.33,4.91-15.62,8.69.51,2.69,9.1-3.21,11.21-3.9,8.35-2.72,12.86-1.08,20.98.93.28-1.02.73-2.16-.14-3.09Z" fill="#fff"/>
  <path d="M265.75,502.12c-.51,8.56-1.33,17.33-2.82,25.77-.4,2.25-4.82,22.12-6.05,22.2-13.75-14.66-31.82-24.72-51.1-30.41-.71-.21-9.5-3.2-8.4-.81,9.94,4.43,20.59,7.41,30.27,12.47,15.79,8.25,31.82,23.96,41.01,39.19,3.03,5.03,6.87,10.2,6.95,16.38-11.09-1.85-23.74.58-34.33,4.13-30.81,10.31-38.35,31.53-75.76,22.13-13.32-3.35-49.01-21.99-53.12-35.63-.71-2.34-.76-14.35,2.45-13.63,17.83,23.35,48.81,35.37,77.92,32.86v-1.97c-21.7,0-44.09-4.97-61.47-18.41-26.24-20.31-25.75-43.04-17.1-72.29,1.77-6,3.95-11.89,6.33-17.66,1.58-.94,7.57,2.93,9.6,3.7,18.7,7.12,38.46,11.1,58.37,13.29,25.54,2.82,51.93,3.46,77.24-1.3Z" fill="#fff"/>
  <path d="M4.08,210.94c25.69-9.7,51.52,5.28,71.97,19.75,17.55,12.42,34.53,27.78,49.67,43-5.09,3.67-9.81,7.68-13.43,12.88-5.19,7.46-7.44,13.88-4.13,23.11,1.21,3.37,3.57,3.95,4.29,7.32-10.66,7.24-9.89,24.75,1.01,31.26l.42,1.37c-11.99,2.23-21.09,14.17-33.57,12.89-1.65-14.65-15.45-24.04-29.81-22.02-4.68.66-7.35,3.98-11.56,5.2-2.05-16.56-19.8-24.59-34.85-20.38v-114.37Z" fill="#fff"/>
  <path d="M590.54,255.63v170.24h-26.3c-1.59-9.59-1.94-19.53-3.31-29.11-.07-.46-1.19-.45-1.26-.94-.47-3.2-2.8-17.12-1.07-18.64,1.11-.97,4.52-1.18,6.71-3.48,7.32-7.69.88-25.96-1.69-34.98.29-2.53,5.83-1.58,5.9-7.15.04-3.14-7.06-26.71-8.63-30.7-5.52-14.04-15.35-20.56-30.35-14.85-4.15,1.58-11.32,6.7-12.5,11.23-.74,2.86.13,6.54-1.33,10.45-.84,2.27-3.29,4-3.93,5.31-4.69,9.72-9.46,22.09,5.43,24.46-2.13,3.41-9.38,15.28-14.04,14.07-.61-.16-6.83-7.86-8.37-8.79.81-10.16-.92-21.55.07-31.55.89-9.01,6.61-9.55,5.17-21.63-.44-3.66-6.72-21.26-10.76-20.83-1.76.19-7.4,12.09-8.06,14.36-1.6,5.49-2.33,12.35-.5,17.89,1.18,3.56,5.25,5.99,5.62,8.18.58,3.43.3,37.01-.66,38.69-.36.64-1.76.92-2.32,1.77-2.26,3.44.13,3.88.26,6.29.15,2.74-.51,6.46.07,9.14.42,1.94,2.21,1.94,2.65,4.58,1.14,6.86,1.09,46.32,0,53.31-.14.88-.83,2.93-1.68,2.93h-25.64l-.99-.99v-50.61c0-.44,5.37-6.34,5.93-6.56,4.03-1.59,7.23.67,11.76-4.02,6.76-6.99,6.08-19.89-6.14-13.44-2.9-7.85-8.43-4.39-11.55,1.34v-95.97h131.49ZM565.22,268.12c-3.23-.66-8.35.48-11.83,0-1.39,1.01-1.39,2.27,0,3.29h11.18c.56,0,2.82-1.68,2.3-2.62-.67.16-1.23-.58-1.64-.66ZM568.84,396.95h9.53c.1,0,1.48-.67,1.64-.98-.52-1.9-12.4-3.42-11.17.98Z" fill="#fff"/>
  <path d="M169.01,340.52c5.55,28.51,36.5,39.99,62.55,40.67,1.6,1.52-13.55,18.06-15.42,19.09s-4.8,1.16-7.38,2.48c-9.89,5.05-9.64,13.94-16.99,21.14-2.82,2.76-7.9,6.25-11.3,8.42-16.16,10.32-34.72,17.21-53.09,22.45-.68-.41-.83-.65-.89-1.44-.29-3.52.86-11.24,1.2-15.27.71-8.33,2.2-24.49,4.63-32.05,1.78-5.53,14.49-6.27,19.02-9.06.18-.89-.25-1.6-1.1-1.88-1.34-.43-16.24,3.93-18.61,4.86-15.31,5.99-29.22,19.39-34.13,35.03-.97,3.08-2.64,17.86-4.66,18.88-10.88,1.14-21.99-.16-32.22-3.96-3.28-1.22-13.46-5.56-13.71-9.16-.19-2.76,2.54-17.43,3.37-20.88,8.65-35.82,36.9-57.79,70.2-69.83,15.28-5.53,32.2-9.6,48.53-9.48Z" fill="#fff"/>
  <path d="M453.46,121.55c26.69,2.77,44.69,27.68,39.11,53.89-1.02.1-2.01-.36-2.65-1.13-2.84-3.39-5.67-10.66-9.19-14.95-10.09-12.34-30.57-25.48-46.98-25.36-6.23.04-3.68,2.01-6.66,5.24-4.97,5.38-19.65,5.29-24.85,0-3.64-3.7-.63-5.49-8.59-5.18-16.54.64-33.62,13.61-44.42,25.28-1.25,1.36-8.74,12.25-9.84,11.52-4.18-30.75,25-59.45,56.19-51.26.59,0,.44-1.36.32-1.63-.67-1.44-15.91-7.74-18.41-8.55-21.83-7.06-43.44-5.28-64.41,3.59,13.55-28.35,48.9-31.06,74.21-16.68,5.6,3.18,9.59,7.75,14.51,11.13.9.62,1.34,1.25,2.66.95-9.49-28.18-39.69-46.74-68.37-49.96,13.61-8.67,32.86-9.09,47.78-3.4,22.34,8.51,30.28,29.76,32.43,52.04,1.81,1.22,3.97-8.47,4.66-9.98,9.08-20.03,23.73-37.18,46.49-41.09,15.35-2.63,33.55,1.04,44.18,12.94-17.31-2.33-33.83.93-49.09,9.1-14.11,7.55-24.02,18.94-33.73,31.34.91,1.24,1.26,1.1,2.59.64,2.67-.93,8.58-6.44,12.06-8.32,23.2-12.52,57.31-10.14,75.42,10.29,5.35,6.03,11.29,15,10.5,23.35-21.12-18.74-46.66-25.19-74.4-20.16-5.08.92-14.97,2.2-17.64,6.36,5.17.39,11.03-.53,16.11,0Z" fill="#fff"/>
  <path d="M328.49,398.64c21.54,35.08,20.98,85.88-32.19,83.12-6.65-.34-47.78-10.02-49.99-14.47-.88-1.77,2.76-3.21,3.82-4.79,5.64-8.41,8.3-28.42,4.05-37.93l.37-1.69,53.92,5.94c-2.71-4.18-26.11-4.51-27.31-6.2l-.29-28.31c-.94-.01-1.69-.25-2.31.65-1.2,1.74-.65,23.24-.97,26.97l-21.7-1.98c1.44-7.04,5.14-13.12,7.42-19.86,1.66-4.91,5.93-24.47,7.39-26.79.25-.4,6.23-4.24,7.57-5.58,2.54-2.52,5.01-6.37,7.21-9.27.72-.4,8.36,4.43,9.78,5.38,13.32,8.88,24.88,21.2,33.23,34.81Z" fill="#fff"/>
  <path d="M455.1,286.52l-.33,70.96c-6.48,4.66-7.52-4.83-11.49-8.19,3.43-2.05,6.41-5.32,3.19-9.12-1.25-1.47-4.03-1.28-3.86-3.69l7.07-.16c-.31-5.25,6.25-7.87,3.49-12.71-.79-1.38-3.57-2.12-4.44-3.11-1.61-1.83-2-6.03-4.8-7.49-.6-2.37,1.13-2.08,1.28-2.64.98-3.61-7.82-11.31-11.26-12.24-9.02-2.44-21.06,1.44-25.05,10.26-1.54,3.39-.55,5.8-1.29,8.53-1.58,5.84-4.27,11.58-5.45,17.56-.43,2.19-1.92,11.18-1.51,12.68,1.02,3.75,7.5,3.11,9.75,5.07-6.49,4.25-9.79,18.72-8.58,26.01.44,2.63,2.14,2.67,2.54,4.06,1.27,4.38-9.73,25.95-9.83,32.3l-50.46-.65v-128.03s111.04.59,111.04.59ZM368.97,303.61l-.3-2c-17.15-1.82-16.49,5.28.3,2ZM363.29,330.13c-.7,1.64-1.42,5.45-1.57,7.31-.48,5.95-.11,14.45.94,20.14,1.01.8,23.09.97,25.72.6,1.46-.2,2.61-.5,3.65-1.61,3.19-13.29,3.02-39.38-17.18-36.24-4.54.71-9.87,5.8-11.56,9.79ZM377.19,387.75c-1.34,1.03-1.29,1.63,0,2.63h12.49c.17,0,.66-.75.97-.99,0-.21-2.02-1.64-2.29-1.64h-11.18Z" fill="#fff"/>
  <path d="M277.59,266.15c-3.35-4.02-8.82-.67-12.83-.61-5.32.08-15.33-6.06-17.41-4.99-5.68,2.93,7.44,10.05,10.15,10.89,6.47,2,13.94,1.54,19.47-2.48.53-.86.51-1.85.62-2.81,1.94,2.32,4.09,25.71,4.63,30.42.81,6.94,2.17,7.69.04,15.46-.58,2.13-2.05,8.26-3.84,9.38s-13.21-6.87-16.33-7.25c4.23-9.41-6.55-22.56-12.77-29.07-1.87-1.96-7.2-5.76-5.58-.57.99,3.18,9.91,10.88,12.43,15.22,9.85,16.98-6.79,16.95-17.02,9.14-1.97.82-.05,3.63-.34,3.94-.54.58-12.17,2.71-15.36,4.04s-7.86,3.95-10.61,5.83c-6.02,4.12-2.88,7.08-12.81,3.59-21.68-7.61-17.45-32.32-20.36-50.63-.19-1.19-2.14-1.09-1.37-3.12,13.33-5.72,24.93-10.28,32.35-23.67,1.6-2.9,1.89-6.26,3.84-8.98,9.82,9.29,21.22,14.81,34.83,10.18,3.48-1.18,4.96-2.87,8.07-4.2,2.75,1.76,5.48,4.73,8.33,6.2,8.26,4.27,13.35.66,11.87,14.1ZM228.61,261.79c-1.75-.02-9.5,6.28-12.65,7.5-4.27,1.65-18.35,2.62-19.58,5.43-2.59,5.91,9.49,4.92,12.49,4.58,6.38-.73,20.69-5.22,22.85-12,.8-2.5-.5-5.46-3.11-5.5ZM265.58,280.07c-5.86,1.18-4.42,18.88,3.18,14.39,3.66-2.16,3.41-16.07-3.18-14.39ZM224.62,287.57c-4.88-10.63-13.13-2.26-11.43,5.05.09.37,3.51,5.24,4.32,5.65,6.12,3.11,9.02-4.67,8.18-9.47-.21-1.2-.98-1.01-1.07-1.22Z" fill="#fff"/>
  <path d="M4.08,328.92c15.56-6.01,33.2,5.24,32.22,22.68,4.5-.94,6.93-5.63,11.69-7.04,15.62-4.63,27.47,5.79,29.66,20.57l4.66.93c-8.04,6.99-15.97,14.1-21.97,23.06-6.57,9.81-10.65,20.44-13.54,31.81l-42.73,10.2v-102.21Z" fill="#fff"/>
  <path d="M189.48,430.48c.27,4.55-3.35,7.41-.32,11.83.71,1.03,2.48,1.35,2.86,2.42.95,2.71-2.58,7.45,1.82,10.64,6.78,4.93,14.78-2.17,18.16-1.76.66.08,8.04,6.16,11.04,7.4,2.24.93,6.6,2.19,9.04,2.79s7.27.38,8.91.95c1.41.49,1.74,3.28,2.79,4.44,3.9,4.35,18.86,7.62,24.6,9.92,3.59,5.45-22.42,7.73-24.66,7.86-27.96,1.63-60.68-1.01-87.89-7.41-5.59-1.32-25.36-6.57-29.03-9.75-2.36-2.05-3.51-9.46-.69-11.68,1.74-1.36,17.77-5.19,21.65-6.62,7.81-2.88,16.61-6.98,24-10.84,6.05-3.17,11.63-7.19,17.73-10.2Z" fill="#fff"/>
  <path d="M271.3,603.07c6.7,14.3,12.12,28.93,17.45,43.63-16.01,3.99-23.4,18.24-25.72,33.46l-13.76,1.13-32.8-74.27c13.77-9.81,30.13-15.91,47.01-17.85,2.28.42,6.61,11.33,7.81,13.9Z" fill="#fff"/>
  <path d="M590.54,225.4v26.95h-151.87c8.19-9.52,17.53-18.23,26.63-26.95h125.25Z" fill="#fff"/>
  <polygon points="455.1 255.63 455.1 283.24 330.18 282.58 357.47 255.63 455.1 255.63" fill="#fff"/>
  <path d="M323.09,385.63c-.31-.15-3.31-4.63-4.09-5.43-9.98-10.18-20.11-17.83-32.04-25.63,1.11-2.88,2.07-6.91,2.38-9.95.27-2.67-.36-9.8.19-11.58.48-1.54,5.1-5.53,5.76-6.93,1.35-2.88,1.92-13.39,3.11-13.86,5.96-.66,39.94,4.63,41.52,9.58l.04,61.57c-.54,1.35-15.14,3.06-16.86,2.24Z" fill="#fff"/>
  <path d="M590.54,222.11h-96.65c3.44-19.18,23.27-29.77,40.97-20.26,1.81.97,6.27,5.32,7.34,5.19,1.49-.17,3.78-8.12,5.37-10.39s7.99-7.86,10.54-9.26c9.33-5.15,23.45-5.94,32.43.21v34.51Z" fill="#fff"/>
  <path d="M249.07,458.5c-.18.34-2.11,2.44-2.53,3.1-3.93,1.7-17.95-1.39-22.19-3.2-3.33-1.42-10.62-7.96-11.67-8.1-2.41-.31-7.64,3.64-11.04,3.86-10.09.64-8.49-8.24-1.22-12.43,2.25-1.3,11.55-3.16,10.76-5.66-1.18-3.76-15.14,4.75-17.33,6.14-6.02-4.84.7-10.65,5.69-12.53,2.29-.86,13.96-2.01,13.61-4.13-.4-2.45-9.99-.68-11.99-.17-3.91,1-5.74,3.55-8.07,4.42-1.92.71-.53-2.23-.22-2.85,2.26-4.51,9.22-9.72,14.11-10.87,4.56-1.08,13.6,1.08,12.75-4.01-5.92-1.11-11.51-.36-17.1,1.96,8.34-20.94,38.34-2.88,47.24,8.32,6.22,7.83,3.64,27.69-.8,36.14Z" fill="#fff"/>
  <path d="M93.74,459.14c3.9,2.8,6.64,5.91,6.29,11.03s-6.71,14.3-12.45,8.94l1.7-3.9c-5.24-6.09-8.58,9.66-6.64,12.47,4.1,3.24,2.52-5.47,2.97-5.93,8.89.51,7.36,11.19,1.11,15.25-7.21,4.69-14.24,3.18-17.67-4.94-1.19-2.81-1.57-9.94-3.52-10.33-5.02-1,.53,12.54,1.67,14.14-5.65,3.01-10.16.19-12.34-5.39-1.79-4.59-.72-8.44-2.46-12.66-4.04-1.25-2.59,12.86.33,14.45-19.59-4.57-10.06-31.02-3.28-43.08,6.23.89,11.83,4.58,18.27,6.09,4.57,1.08,9.61,1.64,14.29,2.15,3,.33,7.21-.55,9.87,0,1.48.31,1.31,1.32,1.87,1.72Z" fill="#fff"/>
  <path d="M559.86,417.14c.02.14,1.01.03,1.14,1.14.12.97.1,7.23-.13,7.53-17.39,4.71-36.29,5.11-53.85,1.07-2.03-1.72,2.18-24.79,2.95-28.63.47-2.36,3.52-16.47,4.37-16.95l7.76,1.61-3.57,23.25c1.58,3.34,16.14,3.84,17.3.2l.14-22.54,19.1-3.02c2.26,12.02,3.34,24.22,4.78,36.35Z" fill="#fff"/>
  <path d="M440.6,391.07c1.45,6.98,2.12,14.14,3.37,21.16.36,2.02,2.28,5.68,2.49,9.46.44,8.24-2.38,8.3-10.27,9.92-12.52,2.57-28.52,1.57-40.61-2.43-1.22-1.88,1.56-13.98,2.27-16.82.25-1,1.17-.97,1.3-1.48,1.78-6.8,2.82-13.83,5.96-20.22,12.2,1.71,23.26,3.92,35.49.39Z" fill="#fff"/>
  <path d="M266.4,486.35c-.03,2.76.26,11.22-2.15,12.69-2.14,1.3-16.48,2.8-19.88,3.07-18.38,1.49-38.85.19-57.18-1.97-21.74-2.56-44.18-7.3-64.01-16.53l2.85-11.06c22.46,10.49,48.96,14.96,73.65,17.07,22.21,1.9,45.04,2.28,66.72-3.27Z" fill="#fff"/>
  <path d="M176.99,618.47c-5.3,12.77-18.45,18.54-31.87,17.73-4.26-.26-15.92-2.36-19.77-3.9-11.13-4.46-6.79-29.11-2.26-37.48,1.24-.81,6.66,4.67,8.32,5.79,13.56,9.14,29.32,15.7,45.57,17.87Z" fill="#fff"/>
  <path d="M117.82,630.29l-20.36-6.92c-2.56-6.29-4.88-13.64-9.56-18.71-3.07-3.33-7.07-2.99-6.07-8.72.69-3.98,9.2-16.36,12.8-17.44,1.9-.57,14.58,2.54,16.59,3.51,1,.48,8.77,9.28,8.97,10.12-4.58,12.78-5.72,24.88-2.36,38.15Z" fill="#fff"/>
  <path d="M440.47,350.45c.48.27,5.9,8.71,5.9,9.25,0,1.88-6.84,10.04-8.4,10.66-1.92.77-4.47-1.84-5.62-3.24-1.64-2-3.58-8.85-6.19-5.98,1.47,9.62,13.94,11.14,13.05,19.93-5.94,2.96-29.47,2.98-33.44-1.53-4.51-5.11,1.58-24.17,7.54-27.33,2.38-1.26,7.94-.67,10.93-1.56,2.01-.6,5.16-3.41,6.2-3.42.53,0,9.58,2.95,10.03,3.21Z" fill="#fff"/>
  <path d="M267.72,375.27l-15.17,44.65c-1.27,1.02-7.83-6.53-9.51-7.83-6.81-5.24-14.79-9.72-23.32-11.21,6.32-5.77,11.55-12.34,16.45-19.37,11.06-.12,21.17-2.82,31.54-6.25Z" fill="#fff"/>
  <path d="M559.45,338.67c1.6.45,6.46,15.66,4.79,17.2-.56.52-12.01,2.52-12.73,2.24l-2.06-7.83c-4-2.86-3.49,5.9-1.67,8.23l-.62.66c-8.61,2.72-24.15-.99-19.73,13.45h-11.18c-.15-8.77,3.17-17.13,5.92-25.28-3.1-3.1-4.45,5.99-5.69,6.29l-4.4-.72c-2.09-1.24,2.14-3.54,2.76-4.36,1.24-1.66,6.21-11.23,7.01-11.4,8.21,9.39,16.7,11.64,22.69-1.31,4.91,3.42,9.29,2.44,14.92,2.84Z" fill="#fff"/>
  <path d="M87.31,608.86c5.51,7.2,9.69,16.67,3.23,24.7-10.04-6.69-21.76-9.02-33.58-10.48-.89-1.23,5.86-26.2,8.91-28.67,7.86,1.98,16.56,8.06,21.44,14.44Z" fill="#fff"/>
  <path d="M549.07,302.34c-.09,1.52.33,3.54.09,4.93-.21,1.19-1.27.93-1.34,1.41-1.07,7.32-.9,15.01-2.6,22.27-2.41,3.68-18.04,4.66-21.45,2.28-6.2-4.34-4.51-25.13-3-31.98,2.06-2.66,23.94.02,28.3,1.09ZM544.51,306.24c2.62-2.57-9.65-5.92-11.16-2.3-.1,2.25,9.3,1.58,11.16,2.3ZM521.51,303.63c-.37.59.05,2.25,1.03,2.53l6.18-2.22c-.73-1.81-6.91-.8-7.21-.32ZM530.11,319.33c-1.47-.85,1.76-9.9-.03-11.48-2.72-2.82-3.89,9.79-3.69,10.93.57,3.29,4.14,4.06,6.28,1.59.34-1.85-1.67-.53-2.56-1.04ZM525.92,311.34c2.62-2.24-3.27-4.46-3.71-1.39-.26,1.82,2.53,2.41,3.71,1.39ZM535.73,308.93c-4.22,1.62,2.87,5.28,3.52,2.23.29-1.35-2.18-2.75-3.52-2.23ZM526.22,325.87c2.02,2.95,14.05.81,13.03-2.85-.62-2.22-5.73,1.47-7.64,1.61s-3.62-.95-5.51-.63c.06.6-.19,1.43.11,1.87Z" fill="#fff"/>
  <path d="M428.8,344.7c-4.1,4.55-20.05,5.72-24.29,2.6-2.89-2.12.36-13.13,1.2-16.49,1-4.01,2.71-7.84,3.55-11.9l19.55-4.12v29.91Z" fill="#fff"/>
  <path d="M495.86,367.05c.09-.4,1.42-2.29,1.64-2.29,2.98,5.12,8.23,7.4,14.04,7.31.44.87.75,1.86.75,2.85.03,7.74-5.56,24.76-7.04,33.72-.58,3.5-.74,13.89-1.59,16.16-.78,2.09-6.05.91-7.8.42v-58.17Z" fill="#fff"/>
  <path d="M350.56,653.96c2.74,2.89-15.62,18.97-18.1,21.01-17.42,14.34-39.61,28.45-61.45,34.19,28-16.19,50.16-41.19,79.54-55.2Z" fill="#fff"/>
  <path d="M449.84,204.37l4.97,23.65c-7.02,4.63-16.57,6.86-24.71,4.29l-2.61-22.03c8.07.8,15.54-1.85,22.35-5.92Z" fill="#fff"/>
  <path d="M260.25,706.78c-.76-.89-2.28-.7-1.73-2.86,9.34-1.03,17.53-6.17,24.94-11.55,12.83-9.32,49.86-44.39,63-46.15,3.03-.4,4.19-.05,5.34,2.92.05,1.45-10.48,5.63-12.62,6.91-19.86,11.81-36.23,28.21-54.8,41.18-6.34,4.43-13.7,7.5-19.7,12.45-2.57.02-3.12-1.36-4.43-2.9Z" fill="#fff"/>
  <path d="M75.74,571.14l-5.28,6.88c-10.23,15.93-17.12,38.07-17.76,57.18-.39,11.68.48,26.8,14.49,29.28.51,1.97-1.58,1.4-2.89,1.24-29.4-3.58-13.25-64.7-4.45-81.23,2.95-5.54,8.83-13.95,15.89-13.36Z" fill="#fff"/>
  <path d="M154.46,288c2.26-.47,7.09-.46,7.93,2.27-.62,9.23,3.01,20.7,2.79,29.48-.02.95.02,1.82-1.11,2.17-20.46,6.37-24.18-30.92-9.61-33.92Z" fill="#fff"/>
  <path d="M284.16,651.99c-.13,3.4-2.2,4.41-2.99,7.85-2.09,9.06-.62,19.43,2.87,27.92-5.43,3.48-10,9.17-16.94,9.56-4.73-15.88,1.1-38.2,17.06-45.33Z" fill="#fff"/>
  <path d="M336.91,645.93c-.2-.09-1.44-2.07-3.29-2.96-2.21-1.06-6.47-2.41-8.52-.68l-.19,2.16c3.77.51,6.88-.19,9.92,2.63-5.9,10.05-8.22,1.34-12.35.44-2.1-.46-8.88.01-7.43,3.5,7.64-1.25,15.24,1.85,5.48,7.45-2.73-1.54-7.6-5.86-10.71-2.85-.89.86-1.02,1.09-.03,1.98,15.88,1.04-3.29,11.23-7.86,14.77-1.34-8.16-.86-20.98,6.62-25.92,4.1-2.71,23.63-7.72,28.55-7.65,11.54.15,4.9,9.4-.18,7.13Z" fill="#fff"/>
  <path d="M303.23,646.73c-4.89,8.57-7.17,18.34-3.43,27.84l-12.67,10.28c-5.72-14.02-5.18-40.49,16.09-38.12Z" fill="#fff"/>
  <path d="M444.2,185.7c1.2,2.55,4.93,12.73,3.72,15.07-2.15,4.16-15.82,7.61-20.47,5.94l-2.59-19.43c6.82.76,12.75-1,18.09-5.26.31,0,.83,2.77,1.26,3.68Z" fill="#fff"/>
  <path d="M559.92,309.92c3.09,6.77,5.05,14.68,6.8,22.21-.74,3.53-16.41,5.48-18.94,1.37l3.31-30.55c7.17.18,6.51,1.88,8.83,6.96Z" fill="#fff"/>
  <path d="M466.27,348.32l1.07,5.86,10.1-2.58c-.84,1.44-.55,5.5-.74,6.13-.42,1.38-3,1.44-3.57,2.41-.77,1.31,2.12,3.23-3.67,4.17-1.55.25-2.83-.59-4.48.1-6.08,2.54-8.51,13.23-20.67,11.44-9.15-1.35-1.06-5.94,1.59-8.8,1.17-1.26,1.48-3.64,2.64-4.59,2.18-1.78,7.31-.95,10.18-3.62s3.07-9.47,7.55-10.52Z" fill="#fff"/>
  <path d="M441.18,312.28c.56,3.34,2.57,4.82,4.07,6.95.58.82.73,2.36,1.28,2.96,1.22,1.32,4.68,2.09,4.69,3.44-.14,2.61-2.98,3.67-4.32,5.64-.48.72-.21,2.38-.39,2.54-1.13,1.02-6.43-1.59-7.57.02-.71,4.55,3.35,7.16,6.3,9.56-3.03,2.29-2.32,3.93-6.89,3.62-1.45-.1-5.92-1.91-6.27-3.12-.4-1.41-.44-27.91-.02-29.31l9.12-2.3ZM435.37,318.73c2.15.13,4.41.15,5.9-1.64,0-1.53-7.33-1.62-5.9,1.64ZM442.6,323.99c.67-.67-.28-4.65-2.46-2.46s1.79,3.13,2.46,2.46Z" fill="#fff"/>
  <path d="M455.1,377.23v36.81l-6.93.02c-1.08-5.96-1.95-11.95-3-17.91-.72-4.12-2.82-9.51-2.63-14.65.19-5.44,8.52-1.62,12.55-4.27Z" fill="#fff"/>
  <path d="M436.68,159.67c.13,3.96,6.29,16.93,4.95,19.72s-13.06,6.36-16.36,5.16c-2.28-.84-2.51-12.5-3.1-15.19-.1-.44-2.27-.99-1.19-3.04,5.96-1.17,10.72-3.21,15.69-6.65Z" fill="#fff"/>
  <path d="M494.96,303.38c-3.38,2.74-7.92,2.29-9.96-1.72-4.21-8.31,0-21.2,5.28-28.27,6.94,4.85,11.93,24.12,4.68,30Z" fill="#fff"/>
  <path d="M87.29,643.16c-.39.69-1.63,1.9-2.01,2.9-7.78-6.92-18.28-10.18-28.65-9.47l.05-9.57c4.62.2,9.28.61,13.8,1.63,3.08.69,18.9,5.98,18.93,9.08-.72,1.72-1.23,3.84-2.13,5.43Z" fill="#fff"/>
  <path d="M489.29,368.03l3.94-.65c.97,1.05-.64,25.02-.68,28.56-.08,6.8,1.7,54.06-.64,55.56-.65.41-2.17-.15-2.62-.98v-82.49Z" fill="#fff"/>
  <path d="M439.08,304.51c.49.46,3.29,3.88,2.87,4.36-8.39.49-21.51,6.88-29.36,6.54-1-.04-1.61.1-2.15-.99,1.67-13.23,19.5-18.47,28.65-9.9Z" fill="#fff"/>
  <path d="M79.03,596.77l-11.06-5.36c-1.88-3.18,8.03-17.27,12.37-18.01,2.18-.37,7.99,2.25,10.51,2.69,2.22,1.81-4.24,5.35-5.24,6.56-3.09,3.77-6,9.2-6.59,14.13Z" fill="#fff"/>
  <path d="M565.55,358.83c2.87,13.48-7.96,18.1-19.07,16.78l-3.94-12.17,23.01-4.61Z" fill="#fff"/>
  <path d="M556.35,300.33l-34.2-3.62c8.5-12.78,31.23-13.58,34.2,3.62Z" fill="#fff"/>
  <path d="M432.32,150.25c.23.58,2.07,1.61,2.28,4.02.4,4.57-10.68,9.29-14.99,8.02l-2.62-15.75,12.08-3.95c1.21.37,2.7,6.26,3.25,7.65Z" fill="#fff"/>
  <path d="M429.46,235.92c8.76.71,16.08-.43,24.33-2.96l-18.71,18.77-5.63-.36v-15.45Z" fill="#fff"/>
  <path d="M532.68,383.15v21.36c-1.23,1.63-9.8,1.25-10.79.41l3.06-20.95,7.73-.82Z" fill="#fff"/>
  <path d="M71.81,663.16c-.63-.58,10.36-10.36,5.59-11.15-2.08-.34-7.55,12.8-13.7,8.54-1.68-1.82,1.6-2.7,2.86-4.27,3.1-3.84,5.5-8.42,5.92-13.47,1.68-1.46,11.27,4.39,11.16,7.47-.09,2.71-7.53,13.96-11.83,12.88Z" fill="#fff"/>
  <path d="M340.04,413.39l-13.82-24.02c.04-1.81,9.73-2.52,11.53-2.33.96.1,1.72.13,2.29,1.04v25.31Z" fill="#fff"/>
  <path d="M420.72,435.87c1.43-.45,7.39-.63,7.99.94.53,1.4-.46,20.2-1.22,20.94-.42.41-1.74.42-2.31.97-1.37-.15.45-4.3-1.31-6.55-1.56-1.99-4.5-1.27-5.59-2.29-1.3-1.22.21-13.3,2.44-14.01Z" fill="#fff"/>
  <path d="M257.73,683.08c1.31-.1,4.27-.78,5.11.42l2.05,14.84-7.3,2.82-6.89-15.93c.37-1.33,5.69-2.05,7.03-2.15Z" fill="#fff"/>
  <path d="M515.57,356.22l-3.36,13.04c-1.8,1.2-9.82-1.71-11.02-3.59s.63-10.81,2.09-11.21l12.29,1.76Z" fill="#fff"/>
  <path d="M69.83,640.82c-1.23,6.26-3.72,13.33-9.87,16.15-4.09-4.61-3.68-11.13-4.6-16.81l14.47.66Z" fill="#fff"/>
  <path d="M534.65,375.27l-4.59,1.31c-.93-3.63,2.61-4.43,3.29-7.56.14-2.65-3.18.5-3.29.33-1.9-5.11,5.23-6.27,8.74-5.13,5.21,1.69,7.22,19.15-3.66,16.84-3.48-1.67-.56-3.27-.49-5.8Z" fill="#fff"/>
  <path d="M443.24,447.59l2.39,5.94c-4.41,5.18-6.42,10.32-14.26,5.6l.1-10.86,11.77-.68Z" fill="#fff"/>
  <polygon points="493.23 307.56 493.23 345.36 489.29 346.34 489.29 308.22 493.23 307.56" fill="#fff"/>
  <path d="M439.97,383.81l-.07,4.53c-8.52,2.08-22.84,3.15-31.11.02-2.23-.84-3.24-2.11-1.73-4.26,11.11,1.29,21.7,3.12,32.9-.29Z" fill="#fff"/>
  <path d="M401.32,457.96l1.16-10.09c4.4-.15,14.4-2.24,11.9,4.67-2.42,6.68-6.7,7.11-13.06,5.42Z" fill="#fff"/>
  <polygon points="416.31 435.73 415.02 445.32 402.5 444.94 403.85 435.12 416.31 435.73" fill="#fff"/>
  <path d="M552.39,431.15c3.38,12.5-3.52,9.13-12.46,10.48l-.67-9.17,13.12-1.31Z" fill="#fff"/>
  <path d="M442.61,433.1v10.85c-1.31,1.99-10.84,1.86-11.22.6l.33-8.86,10.89-2.58Z" fill="#fff"/>
  <path d="M193.43,618.46c3.02-1.8,7.01-2.52,10.12-4.01,8.8-4.23,9.44-10.38,14.11,2.49.55.87-1.41,1.52-1.55,1.52h-22.68Z" fill="#fff"/>
  <path d="M528.73,433.1l6.62-.37c.29,3.92,2.53,6.75,1.79,10.75l-8.4,5.4v-15.78Z" fill="#fff"/>
  <path d="M524.54,432.73c2.54,1.68,1.49,4.71,1.47,7.51l-11.74.11v-8.55s10.27.94,10.27.94Z" fill="#fff"/>
  <path d="M520.18,334.51c-14.72-.32-8.14-12.35-4.59-20.37l1.49,11.31,3.1,9.06Z" fill="#fff"/>
  <path d="M553,443.02c.76,1.7,1.59,11.14-.93,11.1-2.55-4.19-5.05-6.77-8.88-9.84l9.81-1.26Z" fill="#fff"/>
  <path d="M525.98,444.4c.29.52.29,5.83,0,6.34l-3.82,1.43-5.93-9.19c1.86-.16,8.86-.15,9.74,1.42Z" fill="#fff"/>
  <path d="M495.87,362.77l-1.32-15.11c7.63-.66,5.77,12.77,1.32,15.11Z" fill="#fff"/>
  <path d="M518.87,452.82l-5.95-.29-3.9-6.93c5.01-1.88,9.46,2.23,9.85,7.22Z" fill="#fff"/>
  <path d="M527.42,379.86c-2.19-.1-13.67.47-11.76-3.52,1.09-2.28,3.85-.4,5.54-.4,3.65.01,6.5-2.52,6.21,3.92Z" fill="#fff"/>
  <path d="M526.76,337.15l14.47-.33c-3.49,6.48-11.18,7.73-14.47.33Z" fill="#fff"/>
  <path d="M271.17,596.59c-.33-.43-2.83-6.61-2.49-7.07,1.32-1.36,7.25-.51,7.97.65.12,1.75-3.43,9.05-5.48,6.42Z" fill="#fff"/>
  <path d="M422.08,454.28c1.67,5.88-4.32,5.25-8.39,5.12l3.92-6.93,4.47,1.81Z" fill="#fff"/>
  <path d="M539.25,454.79c-2.02-.01-10.68.76-9.78-2.85,1.22-4.93,10.17-1.62,9.78,2.85Z" fill="#fff"/>
  <path d="M547.8,454.13c-6.42,2.69-6.76-3.07-9.86-7.22,4.57-.33,7.85,3.62,9.86,7.22Z" fill="#fff"/>
  <path d="M449.69,459.91l-5.36.15-.4-1.3c4.07-3.84,9.41-8.48,5.76,1.15Z" fill="#fff"/>
  <path d="M509.66,452.82l-5.22-.69.6-2.97c1.3-2.39,5.77,2.63,4.63,3.66Z" fill="#fff"/>
  <path d="M493.23,360.15c.51,2.54-1.15,4.02-3.63,3.98-5.17-.09.98-4.14,3.63-3.98Z" fill="#fff"/>
  <path d="M493.23,354.89c.62,3.36-3.6,2.72-5.91,3.28-.42-3.43,3.46-3.43,5.91-3.28Z" fill="#fff"/>
  <path d="M492.52,350.35c.23.31-.03,1.34.06,1.9h-6.57c-1.79-1.05,5.06-3.85,6.51-1.9Z" fill="#fff"/>
  <path d="M455.09,455.46c.85,2.79,1.6,4.4-1.96,4.59.03-.53.5-6.11,1.96-4.59Z" fill="#fff"/>
  <path d="M306.28,763.3c14.02,16.6-24.99,14.96-32.89,13.49-21.28-3.95-.48-19.48,10.63-20.77,7.43-.87,17.26,1.36,22.26,7.28ZM284.67,758.66c-3.54.38-7.34,2.2-10.32,4.14-1.88,1.23-9.24,6.84-6.64,9.14,3.32,2.94,27.46,2.55,32.39,1.49,2.09-.45,4.95-1.42,4.91-4-1.79-8.06-13.06-11.55-20.35-10.77Z"/>
  <path d="M155.13,731.68c8.23-1.35,19.74,1.43,25.51,7.71,18.04,19.62-30.83,19.13-40.02,13.06-9.9-6.55,7.27-19.58,14.51-20.77ZM179.41,742.24c-5.6-7.28-18.14-9.92-26.56-6.92-2.93,1.04-13.39,9.55-12.59,12.83,1.53,6.28,36.28,5.98,40.51,1.62,1.77-1.82-.08-5.85-1.36-7.52Z"/>
  <path d="M548.08,737.82c.92,1.59,1.99,1.05,1.67,4.49-.95,10.15-36.27,9.19-41.98,3.93-4.37-4.04-.15-9.89,3.55-12.74,10.34-7.98,29.76-7.79,36.76,4.32ZM524.65,731.05c-4.92.55-21.37,8.66-13.91,13.53,4.76,3.11,32.26,4.06,34.76-1.23,4.28-9.04-14.76-12.99-20.85-12.3Z"/>
  <path d="M509.51,600.89c8.13-1.14,25.11,1.49,24.52,12.63-.42,8.04-22.05,6.88-27.89,6.17-24.1-2.91-10.73-16.83,3.37-18.8ZM528.5,608.18c-3.6-3.82-11.44-5.31-16.45-4.76-3.74.41-17.59,5.07-16.23,10.04,4.74,4.19,32.49,4.88,34.59.39.85-1.82-.64-4.33-1.9-5.67Z"/>
  <path d="M489.12,493.74c9.35-1.44,29.19,7.35,23.22,17.96-3.19,5.67-36.12,4.72-39.85.32-5.39-6.36,10.52-17.34,16.63-18.28ZM509.49,510.49c1.74-1.92-.3-5.28-1.51-7.01-4.85-6.97-16.36-8.06-23.74-4.76-2.89,1.29-14.05,9.29-7.92,12.1,4.8,2.2,29.89,3.3,33.17-.32Z"/>
  <path d="M364.13,539.82c14.86,17.55-36.78,16.18-38.46,8.5-.77-3.53,8.2-10.96,11.05-12.38,8.25-4.13,21.08-3.6,27.41,3.89ZM344.49,536.47c-3.74.49-18.51,8.25-14.31,11.99,5.19,4.62,48.27,2.94,27.41-9.66-4.05-2.45-8.45-2.94-13.1-2.33Z"/>
  <path d="M372.76,715.92c5.74-.77,12.22.48,17.19,3.5,5.57,3.4,10.72,12.09,2.05,15.07-5.75,1.98-24.36,2.1-30.53.91-3.94-.76-6.67-1.48-6.34-6.17.48-6.87,11.62-12.51,17.63-13.32ZM372.1,719.2c-3.6.54-19.37,9.08-12.96,12.62,4.42,2.44,32.71,2.49,34.52-2.29-1.64-9.17-13.75-11.51-21.56-10.32Z"/>
  <path d="M387.15,790.24c2.16,4.12.27,7-3.48,8.88-3.99,2.01-18.63,1.96-23.4,1.24-2.61-.39-8.88-2.49-9-5.46,3.22-9.83,18.27-14.53,27.7-11.26,1.73.6,7.42,5.13,8.19,6.59ZM366.83,786.24c-3.53.56-9.99,4.28-11.55,7.52-.37.78-1.23,1.16-.11,1.83,4.19,2.81,26.54,4.03,28.6-.32,3.8-8.03-11.97-9.82-16.94-9.04Z"/>
  <path d="M428.64,642.96c2.41-.37,6.5-.44,8.87-.01,8.27,1.47,15.86,13.27,4.98,16.49-4.53,1.34-15.61.92-20.51.36-19.75-2.26-2.18-15.48,6.66-16.83ZM415.65,655.26c1.08,1.89,24.18,3.14,27.33.72,2.73-2.4-.5-7.36-3.21-8.72-7.73-3.9-19.97.46-24.12,8.01Z"/>
  <path d="M67.75,700.79c7.03-.16,16.38,2.43,18.56,10.01.21,9.35-24.21,8.76-30.44,6.73-16.33-5.32,2.64-16.53,11.88-16.74ZM65.07,704.08c-5,.66-10.55,3.68-12.28,8.63,4.16,7.05,43.48,2.47,25.77-6.69-3.46-1.79-9.64-2.46-13.49-1.95Z"/>
  <path d="M73.77,757.16c.54,3.65-1.79,6.15-2.45,9.7-.58,3.13-.44,6.57-.83,9.69-.09.7.42,2.17-.97,1.63-5.98-2.35,1.9-23.95,4.26-21.02Z"/>
  <path d="M51.43,762.4l.37-1.31c4.22-3.09,13.7,13.52,10.46,17.1-2.33.52-5.5-15.61-10.83-15.79Z"/>
  <path d="M444.22,756.87c.4,1.03,2.88,5.5.92,6.75-3.11,1.98-3.21-4.22-4.18-6.46-1.06-2.45-3.82-5.87-4.39-7.45-.36-1.01-.75-.81.47-1.76,3.18-.6,6.32,6.68,7.19,8.92Z"/>
  <path d="M449.84,562.6c-1.41,5.1-1.62,11.15-2.63,16.09-.45,2.23-2.04,1.83-3.3.54-1.49-1.38,3.77-19.25,5.94-16.63Z"/>
  <path d="M453.12,745.32c-.38,1.52-.82,19.87-3.93,17.75-1.17-2.78.29-15.68,1.92-17.33.69-.7,1.19-.4,2.02-.42Z"/>
  <path d="M491.91,690.77l-3.19-1.08c.12-4.96-1.52-11.99,3.52-14.68,1.29.81.69,1.09.69,1.96-.04,4.11-1.94,9.26-1.02,13.8Z"/>
  <path d="M383.24,494.44c1.81,1.49,8.27,13.51,3.78,14.24-2,.33-2.94-6.42-3.58-8.22-.21-.6-5.35-10.27-.21-6.02Z"/>
  <path d="M433.13,564.14c-.27-.37-1.3.1-1.04-.88,6.01-2.09,11.7,16.82,8.21,17.07-3.3-5.19-3.34-10.99-7.18-16.18Z"/>
  <path d="M503.75,788.05c-.31,2.35-.33,5.13-.68,7.41-.08.5-1.09.22-1.34,1.42s.99,7.55-1.58,6.94c-3.13-.74-.29-13.42,1.08-15.67l2.52-.1Z"/>
  <path d="M160.55,696.68c-3.36-.19-2.8-4.46-2.61-6.89.11-1.33,2.45-10.97,4.25-10.19,2.21.97-.7,5.99-.91,7.61-.41,3.1.32,6.38-.72,9.47Z"/>
  <path d="M537.05,533.91c2.09,1.94,7.91,13.39,2.21,11.83.87-5.09-5.85-9.32-7.13-12.5-1.36-3.38,3.99-.19,4.92.67Z"/>
  <path d="M205.26,778.19l-1.42,14.02c-4.24,4.41-3.43-6.8-2.76-9.36.18-.68,2.96-4.88,4.18-4.66Z"/>
  <path d="M457.63,762.97l-2.53.1c-1.89-3.29,5.58-14.33,8.2-13.81,2.28,1.69-1.99,4.79-3.07,6.78-1.23,2.26-1.97,4.45-2.6,6.93Z"/>
  <path d="M84.95,764.39l-7.57,11.85c-8.9,1.6,5.52-13.87,7.57-11.85Z"/>
  <path d="M564.23,532.36c1.18,1.1-4.58,4.23-5.24,4.94s-8.51,14.37-6.79,6.37c1.05-4.91,6.79-10.96,12.03-11.31Z"/>
  <path d="M39.84,541.97c1.1,2.1,3.19,3.74,2.38,7.11l-2.54.27-6.01-14.35c3.35.25,4.81,4.37,6.17,6.98Z"/>
  <path d="M146.1,682.88c4.02-.8,12.03,12.98,8.2,13.8l-8.2-13.8Z"/>
  <path d="M393.95,508.69l-2.52-1.09c-.33-4.82-.18-10.69,2.85-14.67,2.61.03-1.45,13.83-.33,15.76Z"/>
  <path d="M48.79,533.02l-.64,16.04c.06.64-1.39.51-1.65.4-1.45-.59-2.22-16.13,2.3-16.44Z"/>
  <path d="M495.86,803.82c-2.08,2.31-4.08-6.55-4.57-7.42-.64-1.13-4.67-2.88-3.97-5.73,5.74,1.01,8.8,7.91,8.54,13.14Z"/>
  <path d="M549.11,529.07c1.29,2.69-1.23,4.79-1.28,5.07-.26,1.55-.47,12.04-1.67,12-2.64-1.8-.46-15.09.68-16.39.78-.89,1.18-.76,2.27-.68Z"/>
  <path d="M484.68,690.76c-1.76,1.04-3.7-6.9-4.41-8.36-.66-1.37-3.71-2.61-2.81-5.43,5.48,1.26,8.16,8.61,7.22,13.79Z"/>
  <path d="M501.59,679.7c1.23-.32,3.08.04,2.82,1.52-.12.65-2.81,2-3.57,3.01-1.72,2.27-2.5,4.81-3.98,7.18-4.5-1.75,2.73-11.18,4.74-11.7Z"/>
  <path d="M339.38,595.46c-1.79,1.75-.29,17.07-3.28,15.11-.87-4.21-2.23-14.42,3.28-15.11Z"/>
  <path d="M198.03,793.3c-1.8,1.21-5.71-11.52-6.56-13.14,2.34-2.34,9.02,10.65,6.56,13.14Z"/>
  <path d="M216.44,783.45l-8.2,10.51c-2.85-.49,2.76-9.18,4.07-9.89s2.75-.66,4.14-.62Z"/>
  <path d="M329.31,600.27c2.03,2.47,3.27,6.45,2.84,9.65l-2.03-.39c-.32-3.89-4.28-6.78-5.07-10.6-.2-.99-.56-1.76.85-1.5.68,1.25,2.75,2.03,3.41,2.83Z"/>
  <path d="M57.99,536.96l-4.92,12.45c-5.84-.63,3.65-13.96,4.92-12.45Z"/>
  <path d="M351.22,600.72l-8.21,11.16c-3.76-2.96,5.62-13.33,8.21-11.16Z"/>
  <path d="M407.76,498.18l-7.55,11.82c-3.7-1.65,5.68-13.68,7.55-11.82Z"/>
  <path d="M171.73,686.83c.85.88-5.02,10.86-6.57,9.85-1.37-4.09,2.14-9.34,6.57-9.85Z"/>
  <path d="M456.86,573.57c-1.57,1.87-4.19,3.16-5.03,6.46-5.46-.48,1.59-9.6,4.9-8.9,1.23.79.93,1.48.13,2.43Z"/>
  <path d="M512.29,793.97l-5.57,10.51c-4.06-2.24,4.56-11.64,5.57-10.51Z"/>
  <path d="M142.81,65.02c15.18-5.79,31.15-1.27,34.15,16.16,15.53-6.75,33.2,1.58,30.46,19.84l-1.28,1.35-164.55-.27c-3.62-1.09-2.92-9.94-2.69-13.12.47-6.48,5.87-15.22,11.37-18.87,7.46-4.95,16.96-5.33,25.51-3.42,2.8-39.65,63.02-41.68,67.03-1.68ZM201.58,89.09c-7.32-10.45-16.63-7.44-26.86-3.04-2.47-8.8-2.44-15.56-12.5-19.08-9.34-3.26-12.95.58-21.39,2.36-2.4-9.27-3.18-15.66-10.5-22.41-12.94-11.93-33.55-10.43-44.71,3.3-6,7.38-4.75,13.78-7.63,22.02-18.58-10.62-40.41,5.24-34.81,26.31l3.28,1.32,157.84-.62c1.27-4.41-.51-6.96-2.74-10.15Z"/>
  <path d="M71.81,180.04h1.29c1.23-5.97,20.58-12.1,23.02-6.89,1.13,2.41-6.24,1.1-6.72,1.16-9.8,1.09-10.11,5.04-17.17,10.28-5.55-8.4-13.07-12.78-23.43-11.78l1.09-2.52c8.04-.61,18.66,1.44,21.93,9.74Z"/>
  <path d="M140.17,194.51c-.31,3.91-6.81,3.12-10.73,5.37s-4.68,5.59-8.02,7.81c-1.55-.03-2.96-4.23-4.33-5.56-3.99-3.86-9.86-3.97-15.05-3.69.54-5.35,9.61-3.03,12.93-1.43,3,1.45,4.57,4.36,7.71,5.32,4-5.72,10.4-8.68,17.49-7.83Z"/>
  <path d="M260.33,335.34c.87.93.42,2.07.14,3.09-8.13-2.01-12.63-3.65-20.98-.93-2.1.68-10.7,6.59-11.21,3.9-.71-3.78,12.85-8.36,15.62-8.69,3.64-.44,13.85-.13,16.43,2.63Z"/>
  <path d="M565.22,268.12c.41.08.97.82,1.64.66.52.94-1.74,2.62-2.3,2.62h-11.18c-1.39-1.01-1.39-2.27,0-3.29,3.49.48,8.61-.66,11.83,0Z"/>
  <path d="M568.84,396.95c-1.22-4.4,10.66-2.89,11.17-.98-.16.31-1.54.98-1.64.98h-9.53Z"/>
  <path d="M363.29,330.13c1.69-3.99,7.02-9.08,11.56-9.79,20.2-3.14,20.38,22.94,17.18,36.24-1.04,1.11-2.2,1.4-3.65,1.61-2.63.37-24.71.19-25.72-.6-1.05-5.68-1.42-14.19-.94-20.14.15-1.86.87-5.67,1.57-7.31ZM375.13,330.79c1.97-2.93,5.33-4.19,8.29-5.81-19.41-8.29-19.92,17.33-17.7,29.87l7.19.04c-.84-6.49-1.49-18.59,2.21-24.09Z"/>
  <path d="M377.19,387.75h11.18c.26,0,2.28,1.43,2.29,1.64-.31.23-.8.99-.97.99h-12.49c-1.29-1-1.34-1.6,0-2.63Z"/>
  <path d="M368.97,303.61c-16.79,3.29-17.45-3.82-.3-2l.3,2Z"/>
  <path d="M228.61,261.79c2.61.04,3.91,3,3.11,5.5-2.16,6.78-16.46,11.27-22.85,12-3.01.35-15.08,1.33-12.49-4.58,1.23-2.8,15.31-3.77,19.58-5.43,3.15-1.22,10.9-7.52,12.65-7.5Z"/>
  <path d="M224.62,287.57c.1.21.87.03,1.07,1.22.84,4.81-2.06,12.58-8.18,9.47-.82-.41-4.24-5.28-4.32-5.65-1.7-7.31,6.54-15.68,11.43-5.05Z"/>
  <path d="M265.58,280.07c6.59-1.68,6.84,12.22,3.18,14.39-7.6,4.49-9.04-13.21-3.18-14.39Z"/>
  <path d="M530.11,319.33c.89.51,2.9-.81,2.56,1.04-2.14,2.47-5.71,1.7-6.28-1.59-.2-1.14.97-13.75,3.69-10.93,1.78,1.58-1.45,10.63.03,11.48Z"/>
  <path d="M526.22,325.87c-.3-.44-.05-1.27-.11-1.87,1.88-.32,3.67.76,5.51.63s7.02-3.82,7.64-1.61c1.02,3.66-11.01,5.8-13.03,2.85Z"/>
  <path d="M544.51,306.24c-1.86-.72-11.25-.04-11.16-2.3,1.5-3.62,13.77-.27,11.16,2.3Z"/>
  <path d="M521.51,303.63c.31-.48,6.48-1.49,7.21.32l-6.18,2.22c-.98-.28-1.41-1.95-1.03-2.53Z"/>
  <path d="M535.73,308.93c1.34-.51,3.81.88,3.52,2.23-.65,3.05-7.74-.61-3.52-2.23Z"/>
  <path d="M525.92,311.34c-1.19,1.01-3.98.43-3.71-1.39.45-3.06,6.33-.84,3.71,1.39Z"/>
  <path d="M435.37,318.73c-1.43-3.26,5.91-3.17,5.9-1.64-1.5,1.79-3.75,1.77-5.9,1.64Z"/>
  <path d="M442.6,323.99c-.67.67-4.65-.28-2.46-2.46s3.14,1.79,2.46,2.46Z"/>
  <path d="M284.67,758.66c7.29-.78,18.56,2.7,20.35,10.77.04,2.58-2.82,3.55-4.91,4-4.93,1.07-29.07,1.46-32.39-1.49-2.6-2.3,4.76-7.91,6.64-9.14,2.98-1.94,6.77-3.76,10.32-4.14Z" fill="#fff"/>
  <path d="M179.41,742.24c1.28,1.67,3.13,5.7,1.36,7.52-4.23,4.36-38.98,4.66-40.51-1.62-.8-3.27,9.66-11.78,12.59-12.83,8.42-2.99,20.95-.35,26.56,6.92Z" fill="#fff"/>
  <path d="M524.65,731.05c6.1-.69,25.13,3.26,20.85,12.3-2.5,5.29-30,4.34-34.76,1.23-7.47-4.88,8.98-12.98,13.91-13.53Z" fill="#fff"/>
  <path d="M528.5,608.18c1.26,1.34,2.75,3.85,1.9,5.67-2.09,4.49-29.85,3.79-34.59-.39-1.36-4.97,12.5-9.63,16.23-10.04,5.01-.55,12.86.94,16.45,4.76Z" fill="#fff"/>
  <path d="M509.49,510.49c-3.27,3.62-28.36,2.53-33.17.32-6.13-2.81,5.03-10.81,7.92-12.1,7.38-3.3,18.9-2.21,23.74,4.76,1.2,1.73,3.24,5.09,1.51,7.01Z" fill="#fff"/>
  <path d="M344.49,536.47c4.65-.61,9.05-.12,13.1,2.33,20.86,12.59-22.22,14.28-27.41,9.66-4.2-3.73,10.57-11.5,14.31-11.99Z" fill="#fff"/>
  <path d="M372.1,719.2c7.81-1.18,19.91,1.15,21.56,10.32-1.81,4.78-30.1,4.74-34.52,2.29-6.41-3.54,9.37-12.07,12.96-12.62Z" fill="#fff"/>
  <path d="M366.83,786.24c4.97-.78,20.74,1,16.94,9.04-2.06,4.35-24.41,3.13-28.6.32-1.12-.67-.26-1.05.11-1.83,1.55-3.24,8.02-6.97,11.55-7.52Z" fill="#fff"/>
  <path d="M415.65,655.26c4.15-7.55,16.39-11.9,24.12-8.01,2.71,1.36,5.93,6.33,3.21,8.72-3.14,2.42-26.25,1.17-27.33-.72Z" fill="#fff"/>
  <path d="M65.07,704.08c3.85-.51,10.02.16,13.49,1.95,17.71,9.15-21.61,13.74-25.77,6.69,1.73-4.96,7.28-7.97,12.28-8.63Z" fill="#fff"/>
  <path d="M201.58,89.09c2.23,3.19,4.01,5.74,2.74,10.15l-157.84.62-3.28-1.32c-5.61-21.06,16.23-36.93,34.81-26.31,2.88-8.24,1.63-14.63,7.63-22.02,11.16-13.73,31.77-15.24,44.71-3.3,7.32,6.75,8.1,13.14,10.5,22.41,8.43-1.78,12.04-5.62,21.39-2.36,10.05,3.51,10.02,10.27,12.5,19.08,10.23-4.39,19.54-7.4,26.86,3.04Z" fill="#fff"/>
  <path d="M375.13,330.79c-3.7,5.5-3.06,17.6-2.21,24.09l-7.19-.04c-2.22-12.54-1.71-38.15,17.7-29.87-2.96,1.62-6.33,2.88-8.29,5.81Z" fill="#fff"/>
</svg>