<?xml version="1.0" encoding="UTF-8"?>
<svg id="Camada_1" xmlns="http://www.w3.org/2000/svg" version="1.1" viewBox="0 0 595.28 841.89">
  <!-- Generator: Adobe Illustrator 29.0.0, SVG Export Plug-In . SVG Version: 2.1.0 Build 186)  -->
  <path d="M.14,841.29V-.06h595v841.34H.14ZM590.54,3.89H4.08v350.34c23.54-10.51,48.72-22.37,75.09-15.59,16.62,4.27,30.34,14.88,45.21,22.82,2.38-7.07,4.77-14.41,7.95-21.16,7.51-15.9,20.78-36.37,34.12-48.19,11.67-10.32,27.63-17.76,42.74-21.36.37-1.48-.6-1.55-1.8-1.78-4.16-.82-7,.45-11.5-1.67-6.88-3.24-9.71-8.42-9.77-15.93-.02-2.85,2.04-8.9,1.87-10.42s-3.09-3.95-3.82-5.97c-2.4-6.57-.54-16.83,4.68-21.68,1.52-1.42,7.22-3.76,7.73-5.44-.11-5.26-2.02-10.31-1.86-15.62.28-9.11,4.2-15.9,11.61-20.62,2.83-1.8,9.57-3.92,11.17-5.59,2.37-2.46,4.44-11.77,6.82-15.72,8.07-13.37,24.74-20.94,40.24-18.73,3.22.46,5.03,2.23,7.93,3.05,8.92-9.49,22.45-9.2,34.14-5.66,4.87,1.48,11.45,5.43,16.12,6.23,5.4.93,13.34-1.07,19.56-.49s14.1,4.25,16.9,10.06c.76,1.59,1.57,5.83,2.01,6.21.61.54,5.04,1.02,6.6,1.61,8.9,3.37,20.63,12.99,22.01,22.69.71,4.97.12,11.75-2.49,16.11-.77,1.29-4.81,4.8-5.15,6.22-.3,1.26,1.55,3.98,1.82,5.83,1.99,13.82-11.04,25.77-24.26,25.91-.12,1.84.16,3.73-.01,5.57-.59,6.23-2.57,13.7-2.62,19.72-.02,3.14,1.18,7.93,1.31,11.18.51,13.42-1.29,24.97-8.93,35.76-1.64,2.32-3.59,4.31-5.45,6.44-.26,1,4.64,12.5,5.36,14.79,3.74,11.96,5.7,25.03,7.61,37.75.46,3.08.76,6.31.76,9.43,6.8-3.14,13.46-6.82,19.93-10.63,20.61-12.14,54.83-38.77,79-36.68,14.39,1.25,41.69,23.73,55.36,32.07,18.09,11.03,37.79,20.93,57.62,28.5,6.85,2.62,13.88,4.8,20.82,7.12V3.89ZM353.52,189.9c3.51.39,8.15,0,11.83,0,.46,0,1.64,1.51.35,2.32-.9.56-5.58.57-5.94.97,1.82,10.83,1.7,21.96.66,32.86,13.71-.78,25.9-16.44,17.28-29.26,19.62-17.96,1.91-40.67-19.82-43.13.37-9.64-8.84-15.08-17.49-15.71-6.04-.44-12.34,1.53-18.28.53-12.29-2.08-18.8-10.26-34.29-8.33-6.63.83-10.41,4.5-15.21,8.53-1.77.16-2.6-1.7-4.22-2.35-13.12-5.25-31.05,1.94-38.68,13.28-3.68,5.47-4.98,10.56-7.68,15.99s-9.94,5.75-14.74,9.58c-12.38,9.85-9.4,19.73-7.55,33.82-.5,1.61-5.26,4.13-6.94,5.62-5.53,4.89-8.61,12.36-5.22,19.6,2.13,4.55,5.95,2.74,3.8,9.08-.17.51-1.02.56-1.18,1.06-.84,2.7-1.28,9.28-.27,11.82.09.23,2.28,3.73,2.53,4.06,2.21,3.04,6.85,4.85,10.51,5.27,2.17.25,5.2-.45,7.1.13,1.63.5,1.47,2.84,3.43,3.19,3.71.66,14.54-4.89,19.37-3.98l1.32-15.77c-6.14-.11-12.33-2.14-16.42-6.93-7.62-8.93-6.59-21.18-1.22-30.76,3.95-7.06,12.56-10.51,20.43-9.47,3.15.41,9.16,2.47,9.68,6.12.45,3.13-2.11,14.24-2.93,18.03-2.34,10.85-6.25,22.7-7.62,33.14-.82,6.28.33,13.28,2.22,18.92,2.57,7.7,4.81,12.17,12.28,15.98,2.47,1.26,5.61,1.86,7.86,3.34,2.5,1.64,3.91,6.88,6.28,9.47,3.07,3.35,9.33,5.86,13.83,5.95,2.57.06,7.32-1.88,9.08-1.29.92.31,1.71,2.37,2.72,3.24,8.39,7.2,21.25,5.2,29.92-.39,1.2-.77,2.69-3.23,3.77-3.48,1.03-.24,2.92.69,4.47.61,16.74-.84,25.81-23.76,26.66-37.83.34-5.65-.73-11.17-.69-16.78l-7.25,11.48-4.91,3.57c-1.89.1-5.67-5.23-7.55-6.84-1.38-1.18-4.68-3.81-6.26-4.32-2.23-.72-4.69.78-7.23.76-7.87-.07-13.21-5.4-21.05-5.36-5.81.03-14.03,2.18-19.57,4.14-6.28,2.23-5.03,5.26-11.97-.16-10.92-8.55-15.32-20.01-14.14-33.82,1.24-14.47,11.59-22.7,9.78-38.72-.21-1.87-2.16-6.69-1.85-7.87.75-2.85,5.82,1.64,7.39,2.34,11.52,5.15,26.88,5.7,36.92-2.77,2.28-1.93,3.15-5.14,6.26-4.58,1.19,1.11-3.23,6.86-4.27,7.88-1.31,1.27-3.93,1.48-3.61,3.28,1.83.22,3.03,1.58,4.74,2.17,8.73,3.03,18.83-2.15,21.9-10.68.54-1.5-.22-5.52,2.59-4.6.71.23,2.67,6.2,3.51,7.66,2.75,4.76,10.09,8.8,15.58,9.41ZM334.77,180.71c-.11-.09-1.46-.28-1.3.42-2.94,8.41-14.11,12.32-22.53,10.6-2.59-.53-7.86-4.82-8.79-5.01-.36-.07-5.43,1.69-7.15,1.86-9.94.95-18.65-.71-27.93-3.93.18,2.4.75,4.44.69,6.92-.36,15.1-11.67,26.37-10.58,42.07.55,7.98,6.95,19.27,13.5,23.96,5.31,3.8,5.39.97,10.01-.51,7.28-2.33,14.83-3.93,22.53-3.44.18-.13-1.84-3.05.34-2.63,7.62,5.93,18.9,11.99,26.01,2.33-.39-2.15.4-5.16-.07-7.12-.11-.48-1.1-.4-1.25-.95-1.19-4.42-4.21-12.54-4.5-16.44-.1-1.4.33-3.57,2.15-2.78,1,.43,1.44,5.36,2.12,7.06.3.73,1.22.73,1.45,1.34,1.99,5.5,4.22,13.61,3.18,19.38-.43,2.39-2.02,3.02-2.47,5.08,2.53.22,4.89,2.41,6.88,3.97,1.11.87,4.97,5.22,5.34,5.29,2.05.34,5.01-4.9,5.88-6.59,7.84-15.13,10.48-39.09,9.53-56.25-.22-3.92-1.4-8.15-1.34-12.14-5.45.21-13.75-2.54-17.77-6.23-1.26-1.15-3.55-5.92-3.94-6.25ZM242.57,207.82c-2.68-2.9-10.04-3.09-13.62-1.8-18.95,6.83-16.58,43.11,6.28,39.14.52-1.8.33-3.87.9-5.65.34-1.08,1.17-.98,1.46-1.87,2.19-6.78,5.48-20.22,5.76-27.11.04-.9-.15-2.03-.77-2.71ZM232.87,268.13c-21.69,4.09-44.01,10.34-61.45,24.33-20.09,16.12-37.88,48.7-45.23,73.1-.35,1.18-2.05,6.4-1.71,6.97,19.99,12,44.26,19.96,67.8,17.19l18.93-57.82,3.25.65-19.17,58.71c-1.4,2.43-10.87,2.28-13.63,2.47-.32,5.53-3.54,9.8-4.01,15.05,7.1,1.65,13.88,4.7,21.01,6.28,8.64,1.92,12.43,3.18,20.66-.44,32.25-14.22,63.82-43.97,76.2-76.99,1.49-3.97,2.5-8.13,3.09-12.33-14.12,7.06-32.43,2.51-43.38-8.22-9.93-9.73-10.31-19.93-17.21-30.81-.53-.83-1.58-.91-2.07-1.89-2-4.01-3.13-11.75-3.08-16.26ZM257.05,299.82c-.68-.58-8.73-2.5-10.36-3.43,3.95,13.43,17.8,27.66,32.52,28.94,5.85.51,14.28.41,18.76-3.64-2.49-.88-5.2-1.58-7.45-3.07-1.37-.91-3.11-3.41-4.21-3.73-1.32-.38-7.1.72-9.7.54-6.54-.45-13.88-4.84-17.44-10.34-.8-1.24-1.57-4.81-2.11-5.27ZM341.95,310.91c-1.35-.88-7.53,2.67-9.62,3.07-2.22.43-4.25-.08-6.64.6-3.3.94-7.74,5.28-12.46,6.61-3.89,1.1-7.27.25-10.68,1.81-1.58,11.83-5.88,22.28-11.69,32.35-12.38,21.45-31.29,39.02-51.84,52.68l-19.95,10.62c14.94,1.41,29.98,2.66,45.03,1.97,6.72-.31,15.66-1.03,22.28-2.04,3.68-.56,13.7-2.51,16.22-4.82,1.26-1.16,4.69-7.08,5.54-8.92,5.84-12.5,11.51-34.77,13.41-48.38,1.68-12.03,1.95-24.34,3.38-36.39,2.66-2,2.03,9.35,2,10.22-.63,19.36-4.38,39.88-9.83,58.01-1.38,4.61-2.45,9.35-3.99,13.91,14.9,1.76,30.84-1.25,43.89-8.66.46-.8-.34-10.84-.52-12.67-1.53-15.1-4.46-31.02-7.43-45.81-1.69-8.4-4.2-16.11-7.09-24.14ZM590.54,429.82v-35.82c-11.02-4.57-22.5-7.92-33.52-12.5-19.64-8.16-38.82-18.58-56.64-30.13-12.91-8.37-33.27-27.06-48.91-26.08-22.77,1.44-64.46,32.99-85.99,44.83-1.7.94-6.83,2-6.98,4.09-.2,2.73,1.72,9.18,1.93,12.56.16,2.56.04,5.21-.1,7.77-.28.82-4.29,3.2-5.35,3.85-1.82,1.1-4.62.88-4.43,3.45l1.36,30.6c9.38-.38,18.64-3.31,27.95-3.94,24.39-1.64,47.14,4.91,70.96,8.49,32.09-7.62,66.04-16.28,99.31-13.75,13.63,1.04,27.08,3.93,40.44,6.57ZM4.08,357.52v68.36c30.77-6.94,62.22-10.61,93.38-3.64,6.85,1.53,13.53,4.17,20.3,5.55,1.52-7.37,1.41-15.07,2.73-22.47.09-.51,1.15-.45,1.25-.96,1.64-8.77,2.61-17.57,5.37-26.15l-6.63-5.6c-.6-1.61,1.01-1.08,1.27-1.79.28-.76,1.15-4.48,1.23-5.29.24-2.48-1.76-1.91-3.39-2.89-18.22-10.98-37.62-24.13-59.98-22.92-19.18,1.04-38.05,10.77-55.52,17.78ZM123.08,497.85v15.12c0,.54,2.6,6.49,3.16,7.36,1.78,2.76,4.91,5.08,8,2.51-3.2-3.45-3.95-11.03-3.97-15.78,0-2.64.89-4.95.7-7.56h3.29c-1.57,8.97.43,32.77,14.47,25.95-2.32-3.12-2.84-6.21-4.01-9.67-.15-.43-1.92-2.03-1.92-4.12v-10.52c0-.23,1.08-1.22,1.64-1.01,3.61,0,2.06,9.35,2.37,12.11,1.48,12.86,12.61,18.74,13.01,2.63.03-1.29-.63-2.51-.62-3.85.04-3.48-.55-19.47.65-21.09,3.43-4.62,2.56,7.02,2.74,8.51,1.61,13.69,9.3,10.14,10.44-1.25.71-7.11-1.03-16.97-4.21-23.4-.9-1.81-4.01-4.89-4.68-7.12-1.04-3.45,2.14-21.16,3.04-25.82.1-.51,1.11-.51,1.21-1.01,3.03-15.32,5.38-30.84,9.89-45.84-1.29-1.67-3.59-.74-5.49-1.06-9.89-1.63-19.95-3.96-29.32-7.5-3.17-1.2-10.31-5.51-12.9-5.53-1.4,0-.65-.09-.99.88-1.15,3.27-2.24,8.57-3.02,12.1-4.72,21.35-7.17,46.41-6.8,68.2.05,2.85,1.19,5.49.65,8.48-.46,2.54-3.35,7.5-4.24,10.88-2.96,11.26-4.27,26.57,3.3,36.15,1.89.77.32-4.12.29-4.9-.12-3.07-.48-9.87.02-12.52.3-1.57,2.34-2.95,3.29-1.31ZM352.12,469.68c-.37-.68-.9-1.21-.85-2.1l-4-66.03c-11.45,3.88-23.96,5.68-36.07,4.02-.27,3.01-3.74,6.86-4.39,9.09-.46,1.56-.03,2.95-.31,4.18-.12.5-1.16.42-1.28.91-2.94,12.2,3.38,29.56,8.03,41.13,1.81,4.5,3.31,6.96,5.68,10.72.87,1.37-.15,10.36-.58,12.33-.13.6-1.82.18-1.32,2.08.07.25,1.2.25,1.32.77.61,2.77,3.17,13.82,3.23,15.72.18,5.69-5.71,14.48-2.49,20.24,2.98,5.32,5.38-2.8,6.3-5.37,1.31-3.64,2.31-8.01,2.94-11.85l3.17-.77c-.83,3.21-.91,7.2-1.86,10.27-.26.83-1.17.87-1.35,1.43-.77,2.4-2.83,7.51-2.74,9.64.13,3.12,2.98,5.32,5.94,3.96,4.1-1.88,6.33-18.48,7.18-22.95l2.7-.39c-.13,1.31.28,2.92-.01,4.15-.23.98-.99,2.86-1.48,5.2-.54,2.6-3.34,11.73-3.13,13.29.47,3.49,7.38,4.31,8.43.55.44-1.57-.08-3.4.21-5.04.6-3.38,3-11,2.53-13.83s-3.49-7.05-2.72-10.79c-6.46-2.1-11.97-11.48-8.77-17.84.88,0,2.69,9.4,3.82,10.96,1.57,2.15,6.25,4.61,8.99,4.83-3.7,13.62,11.4,21.77,13.15,4.24,1.3-12.93-4.62-22.47-10.27-32.76ZM302.57,417.99c-6.39,1.65-13.53,3.79-20.06,4.59-24.43,2.97-56.61,1.64-80.68-3.46-8.11-1.72-15.95-4.66-23.85-7.08-.98.07-1.14.32-1.51,1.15-.31.69-2.22,10.9-2.17,11.7l.2.85c.62,1.06,12.98,5.55,15.14,6.22,27.57,8.59,62.24,10.21,90.82,6.32,3.57-.49,19.71-3.12,20.66-6.29s-.11-10.19,1.44-14ZM4.08,429.16v64.42c36.27-4.53,72.11,1.99,106.86,11.75.64-.43.83-.59.83-1.39-.02-3.82-.81-7.92-.55-12.03.7-10.92,5.97-18.43,5.91-28.87s-.08-21.28.62-31.84c-5.97-1.27-11.74-3.6-17.66-5.02-18.88-4.53-40.15-5.45-59.52-3.58-12.1,1.17-24.54,4.42-36.5,6.56ZM590.54,433.1c-22.09-4.76-44.66-8.51-67.38-6.57-39.86,3.42-79.7,16.65-119.2,23.46-16.36,2.82-32.87,5.16-49.45,6.11-.55.53.4,10.87.97,12.51.66,1.93,3.12,4.89,4.11,7.07,3.26,7.21,6.36,14.05,6.75,22.16.23,4.7-.76,7.93-2.02,12.29-.12.41-1.03.53-1.19,1.05-.33,1.07-1.69,8.36-1.38,8.67,29,1.93,56.15-3.82,83.63-12.02,22.58-6.74,43.69-14.59,66.92-19.86,25.55-5.8,52.03-9.95,78.24-10.84v-44.04ZM301.25,436.39c-1.49.5-2.93,1.38-4.46,1.78-32.99,8.67-86.79,6.33-118.48-6.71-1.5-.62-2.58-2.04-4.26-2.3-.93.2-3.07,12.29-3.44,14.33-1.03,5.74-2.27,11.37-3.46,16.37-.22.91-.23,4.82-.07,5.81.22,1.42,1.41,1.12,1.93,2.02,5.57,9.73,9.13,22.53,6.21,33.65-1.5,5.72-3.61,9.82-10.26,8.52-2.02-.39-1.17-1.4-2.42-1.81.15,5.29,1.21,11.49-1.84,16.24-2.86,4.47-5.61,2-9.51,2.98-3.01.75-5.83,4.46-10.63,1.88l-.73.56-5.91,29.62c53.59,29.69,121.36,38.45,178.52,13.47l-11.19-136.4ZM439.32,438.37c-13.67-1.93-27.22-5.89-41.07-6.6-13.27-.68-29.59,1.05-42.71,3.38-.67.12-2.21.3-2.38,1.03l1.3,17.03c22.62-1.69,45.59-5.06,67.88-9.79,4.22-.89,12.55-2.19,16.05-3.67.82-.35,1.16.28.92-1.38ZM317.31,499.89c-3.35-8.98-3.99-16.06-1.74-25.56l-9.05-22.17,6.09,64.23,1.78.84c.61-3.81,1.59-7.63,2.7-11.32.33-1.09,2.12-1.43,1.23-5.3-.11-.47-.94-.54-1.01-.72ZM590.54,480.43c-34.92,1.44-70.33,7.89-103.89,17.41-16.96,4.82-33.43,11.32-50.48,15.92-24.18,6.53-49.52,11.16-74.67,8.79-1.69.58-3.14,10.26-8.02,11.07-2.47.41-4.72-.72-6.4-.49-2.12.29-2.93,2.09-6.73,1.89-3.27-.17-4.58-2.29-6.01-2.52-1.58-.25-3.03,1.64-6.67.71-4.73-1.22-3.96-4.89-5.37-5.82-1.26-.82-3.6.24-5.63-1.61s-1.33-5.69-4.25-5.93l3.95,52.87c-.12,2.82-9.51,5.57-9.79,6.66l8.56,83.33c.8,2.31,13.53,4.06,16.68,5.01,5.96,1.8,12.12,5.88,17.52,7.46,7.57,2.21,19.3,1.29,23.25,9.62,1.53,3.23.93,5.78,1.73,8.16.28.83,1.43.85,1.84,1.58,2.29,4.07-1.28,8.19-4.28,10.65-19.16,15.71-68.49,10.77-91.86,6.42-5.76-1.07-22.38-4.62-23.47-11.37-.88-5.46,1.97-6.01,2.56-9.2.83-4.49.48-10.04,1.41-15.02,1.27-6.79,1.89-5.97-.13-13.02-4.39-15.33-8.63-32.87-12.37-48.36-1.97-8.15-3-16.55-5.72-24.5l-31.16-.95c-15.52,18.5-38.64,29.32-57.41,43.83-.77.6-5.2,4.2-5.39,4.49-.89,1.41,3.07,11.09,4.27,12.65,1.28,1.66,5.24,3.15,7.25,4.76,3.8,3.03,9.67,9.56,9.88,14.5.06,1.41-.78,2.74-.67,3.89.19,2,2.27,3.36,1.16,7.12-.79,2.67-10.58,5.1-13.42,5.64-31.11,5.94-56.55-.56-65.67-32.78-1.93-6.83-5.23-19.65-5.61-25.94s-.61-12.41,4.67-16.42c6.72-5.1,15.84-6.98,22.9-10.63,5.57-2.88,15.6-11.15,20.76-15.4s10.35-9.4,15.46-14.11c-4.9-3.23-13.01-5.45-17.68-8.6-.8-.54-1.54-1.1-1.9-2.05l6.79-33.74c-2.65-.73-4.44,1.18-7.46.27-4.01-1.21-4.58-4.95-6.06-5.81-1.32-.77-3.53-.34-5.47-1.76-2.75-2.02-4.18-7.46-5.44-10.48-10.79-1.73-21.13-5.26-31.79-7.5-25-5.26-50.81-7.48-76.27-4.27v252.4c18.02-2.09,35.66.33,52.38,7.12,11.71,4.75,22.19,12.84,34.4,16.22,21.07,5.84,45.11,6.08,66.96,11.27,42.63,10.12,74.95,32.06,112.2,53.47h320.51v-356.91ZM359.1,514.61c-2.83,1.64-5.56-.22-8.52.01.34,3.54-4.07,13.41-.93,15.72,7.68,2.28,7.84-10.83,9.46-15.74ZM207.89,587.57c-13.66-1.44-27.75-5.07-40.73-9.56-3.26-1.13-12.28-5.93-14.79-5.58-1.15.16-15.08,13.48-17.43,15.49-.94.81-2.2.96-2.99,1.62s-5.09,4.3-5.26,4.6c-2.07,3.72,1.31,13.39,3.32,17.05,3.36,6.1,13.12,13.46,19.98,14.87,2.03.42,6.26.63,8.22.26,1.02-.19,9.6-5.9,11.37-7.04,11.44-7.36,24.53-16.28,34.37-25.45.78-.73,4.68-5.54,3.93-6.26ZM303.22,580.34c-18.48,5.6-37.74,9.68-57.2,9.2-.5.5,1.53,10.01,1.92,11.54.27,1.05,1.19.95,1.32,1.46,3.8,15.49,6,31.49,9.98,46.96,1.86,2.48,5.24,3.25,8.23,3.74,14.32,2.34,30.49-.5,42.85-7.95l-7.09-64.94ZM123.08,597.43c-3.09.91-9.66,5.21-10.37,8.36-3.45,15.27,11.45,31.19,26.47,31.77,6.59.25,9.61-3.8,14.15-7.91-16.9-2.34-29.04-15.16-30.25-32.22ZM110.59,605.33c-.97-.19-1.56-.62-2.63-.38-2.59.59-12.18,5.9-13.19,8.54-1.31,3.41.25,24.07,3.05,24.68,6.51-3.38,13.45-5.29,20.66-6.56-1.46-3.06-4.01-5.45-5.5-8.63-.73-1.57-3.49-8.12-3.68-8.93-.22-.93-.25-6.77-.04-7.66.19-.78,1.61.01,1.32-1.07ZM97.66,652.44c-1.15-3.08-2.37-8.27-3.19-11.62-1.99-8.14-4.41-18.13-2.96-26.3-1.33.53-2.07,2.65-2.33,3.91-1.66,7.93,4.57,35.95,8.07,43.91,8.93,20.31,30.75,24.04,51.13,21.85,3.33-.36,17.76-2.37,18.66-5.68,1.22-4.48-9.17.63-11.47,1.03-18.97,3.31-43.45,1.83-53.12-17.12-1.17-2.3-4.11-8.16-4.79-9.98ZM147.41,646.06l-2.39-5.16c-4.28.07-8.24-.28-12.37-1.44-6.23-1.75-8.19-5.93-14.99-5.05-2.69.35-16.83,4.49-18.25,6.06-2.22,2.46,3.27,12.61,3.3,16.11,2.22.2,3.59-1.83,5.47-2.75,6.24-3.04,16.99-6.35,23.86-7.03,5.1-.51,10.35.59,15.37-.74ZM311.11,648.7c-16.11,8.28-31.43,9.53-49.08,6.01-1.1-.22-.91-.18-.86.86.08,1.74,3.56,13.68,4.61,14.46,15.03,5.04,32.12,3.21,45.84-4.42l-.51-16.92ZM155.3,655.92l-6.35-6.46c-10.41-.5-21.04.48-30.98,3.65-2.4.77-12.92,4.76-13.11,7.08,1.76,4.76,4.97,8.19,9.26,10.81,7.79-8.38,21.38-12.26,32.49-14.23,2.7-.48,5.93-.63,8.69-.85ZM159.25,675.65c13.32-2.49,3.82-19.05-5.92-17.09-.88.74,3.53,4.62,4,5.51,1.69,3.28,2.14,7.94,1.92,11.57ZM155.53,671.5c-.86-3.04-.89-5.21-2.73-8.14-3.58-5.72-5.43-3.72-11.3-2.82-.84.78,2.91,3.22,3.29,3.78,2.49,3.7,2.98,8.28,2.63,12.64l9.12-1.41c1.27-2.45-.93-3.83-1-4.05ZM143.69,672.82c-.8-2.59-2.33-10.79-5.79-10.95-.29-.01-5.42,1.08-5.62,1.29-1.31,1.39,1.73,2.48,2.29,3.29,2.21,3.22,3.23,7.19,4.25,10.9l5.95-.4c1.11-2.49-1.01-3.9-1.08-4.13ZM132.54,670.15c-1.08-1.69-2.32-4.93-4.92-4.71-1.9.16-11.95,5.94-10.41,8.2,5.93,2.26,11.95,3.88,18.37,3.32-.89-1.79-.92-3.96-1.79-5.74-.37-.76-1.09-.82-1.25-1.06ZM336.1,671.71l-20.63-5.06c-14.19,6.42-25.06,19.7-27.35,35.27,3.5-.11,16.82,3.28,19.08,1.7,1.34-4.49,2.78-9.09,5.34-13.07,2.4-3.73,9.92-10.89,13.73-13.22,2.47-1.51,6.35-2.35,8.67-3.82.82-.51,1.39-.61,1.14-1.81ZM295.08,679.34c1.6-2.06,3.95-3.88,4.54-6.31-11.64,4.01-23.6,3.09-35.22-.4-1.95,1.29-2.52,17.84-1.8,20.29.53,1.83,3.9,3.58,5.6,4.26,1.9.76,15.9,4.6,16.57,4.04,1.52-6.58,4.33-14.21,8.17-19.77.75-1.08,1.65-1.48,2.14-2.12ZM368.32,694.71c2.99-1.48,2.49-5.69,1.45-8.36-2.57-6.55-14.72-6.5-20.66-8.26-2.26-.67-7.64-3.84-9.23-3.64-11.83,3.75-22.41,11.72-27.56,23.11-.41.9-2.82,6.74-2.51,7.01,12.04.56,24.4,1.7,36.16-1.32-2.37-5.17-8.68-7.57-13.8-9.2-.17-.89.04-2.38,1.03-2.59s9.1,3.79,10.37,4.67c2.61,1.82,3.58,3.95,5.42,6.35,1.57-.42,8.07-1.08,7.91-3.21-.29-3.89-5.31-8.57-8.92-9.52-3.12-.81-8.77,1-8.57-3.59,8.91-2.13,18.56,3.41,20.39,12.48,10.96-1.04,4.32-12.49-2.59-14.17-2.66-.65-5.89-.25-8.6-1.26-1.72-.96,1.58-2.19,2.37-2.29,8.04-1.01,18.51,4.38,17.37,13.78ZM260.19,700.25c3.43,5.07,12.66,6.89,18.55,8.09,22.6,4.61,70.47,9.25,89.8-4.54,3.03-2.16,5.2-4.39,4.37-8.44-8.41,7.03-21.3,10.78-32.06,12.31-16.5,2.35-61.87-.82-76.36-8.75-1.77-.97-2.44-3.67-5.32-2.9-.45,2.65.02,2.76,1.01,4.23ZM263.12,837.34c-.07-.81-.9-1.11-1.51-1.44-28.79-15.61-54.91-34.35-86.72-44.1-22.6-6.93-43.45-8.78-66.48-12.41-19.85-3.13-24.68-6.38-41.83-14.71-20.04-9.73-39.83-15.34-62.49-12.13v84.79h259.04Z"/>
  <rect x=".14" y="841.29" width="595" height=".66" fill="#fff"/>
  <path d="M590.54,3.89v386.49c-6.95-2.31-13.98-4.5-20.82-7.12-19.82-7.58-39.52-17.47-57.62-28.5-13.68-8.34-40.97-30.82-55.36-32.07-24.17-2.09-58.39,24.54-79,36.68-6.47,3.81-13.13,7.49-19.93,10.63,0-3.12-.3-6.35-.76-9.43-1.91-12.72-3.87-25.79-7.61-37.75-.72-2.29-5.61-13.79-5.36-14.79,1.85-2.13,3.81-4.12,5.45-6.44,7.63-10.79,9.44-22.33,8.93-35.76-.12-3.26-1.33-8.04-1.31-11.18.05-6.03,2.03-13.5,2.62-19.72.17-1.84-.11-3.73.01-5.57,13.22-.14,26.25-12.09,24.26-25.91-.27-1.85-2.12-4.56-1.82-5.83.33-1.42,4.38-4.94,5.15-6.22,2.61-4.36,3.2-11.14,2.49-16.11-1.38-9.7-13.11-19.32-22.01-22.69-1.56-.59-5.99-1.08-6.6-1.61-.44-.39-1.25-4.62-2.01-6.21-2.79-5.8-10.73-9.48-16.9-10.06s-14.15,1.42-19.56.49c-4.68-.8-11.25-4.75-16.12-6.23-11.69-3.55-25.22-3.83-34.14,5.66-2.89-.81-4.71-2.59-7.93-3.05-15.5-2.22-32.18,5.36-40.24,18.73-2.38,3.94-4.45,13.26-6.82,15.72-1.61,1.67-8.35,3.79-11.17,5.59-7.41,4.71-11.33,11.5-11.61,20.62-.16,5.31,1.75,10.36,1.86,15.62-.51,1.68-6.21,4.02-7.73,5.44-5.22,4.85-7.08,15.11-4.68,21.68.74,2.02,3.67,4.51,3.82,5.97s-1.9,7.57-1.87,10.42c.06,7.51,2.89,12.69,9.77,15.93,4.5,2.12,7.34.85,11.5,1.67,1.2.24,2.17.3,1.8,1.78-15.12,3.61-31.08,11.04-42.74,21.36-13.35,11.81-26.62,32.29-34.12,48.19-3.19,6.75-5.57,14.09-7.95,21.16-14.87-7.93-28.6-18.54-45.21-22.82-26.37-6.78-51.56,5.08-75.09,15.59V3.89h586.45ZM479.92,58.94l4.74-24.59c.43-1.73-1.81-3.44-2.76-1.38-1.24,2.69-1.12,7.48-1.87,10.5-.13.52-1.08.43-1.31,1.46-.64,2.87-2.78,12.72-1.6,14.84.45,1.07,2.73-.7,2.8-.83ZM444.2,60.16c-3.04-5.72-6.74-16.43-10.23-21.01-1.18-1.55-2.06-1.73-3.83-1.05-1.31,1.86,2.76,6.04,3.44,7.38,1.38,2.73,7.46,17.73,9.45,18.1,1.87-.15,2.75-.71,2.2-2.71-.14-.51-.92-.52-1.02-.71ZM164.51,72.91c.07-11.49-4.01-19.88-13.21-26.56-14.44-10.47-40.77-7.01-49.81,9.25-.6,1.08-3.9,8.11-4.02,8.58-.41,1.61.02,4.26-.69,6.1-11.27-8.78-28.16-9.56-39.13-.02-6.72,5.85-10.65,12.78-11.79,21.74-3.27.96-5.87.56-9.25,1.93-1.86.76-7.8,5.08-8.41,6.73-3.3,8.95,5.46,8.84,11.68,9.74,58.06-.85,116.5,1.59,174.35-1.24,7.72-1.72,11.06-8.36,8.27-15.69-3.33-8.74-13.77-9.47-21.79-8.12-2.97-17.06-23.02-21.76-36.2-12.44ZM534.65,55.16c-3.33-1.37-5.25,2.72-7.56,4.59-.74.6-1.9.72-2.63,1.32-4.38,3.63-8.39,8.47-13.19,11.79-2.44,3.2.25,4.2,3.32,2,2.83-2.02,18.01-15.19,19.43-17.38.52-.8.83-1.32.62-2.33ZM502.86,84.31c-28.13-30.05-83.56-10.06-79.31,32.95,2.29,23.2,26.41,39.82,48.89,37.72,17.08-1.59,35.33-14.34,39.56-31.44.43-1.74,2.43-12.7,2.25-13.38-.13-.5-1.17-.42-1.28-.9-2.43-10.64-1.77-16.05-10.11-24.95ZM393.04,72.28c-1.49.84-1.5,2.37.01,3.17l23.9,10.97,2.64-.71-1.05-2.22-25.5-11.22ZM555.03,101.83c-3.69.79-29.92,2.09-30.9,3.29-.06.08-.06,1.88,0,1.95,1.14,1.38,27.09-2.38,30.89-2.64v-2.61ZM414.33,120.22c.16-.26.09-1.62-.29-1.99-.54-.65-1.21-.64-1.97-.66-7.51-.19-18.34,3.46-26.31,3.34-1.89.1-1.77,1.69-1.67,3.26,3.59-.48,29.43-2.66,30.24-3.95ZM543.7,149.98c-3.6-.95-24.54-14.26-26.14-12.65-.4.41.07,2.22.66,2.94.66.81,15.95,8.86,18.26,10.01,1.2.6,6.12,3,6.96,2.85l.25-3.15ZM405.79,168.87c2.2,2.19,12.51-9.8,14.43-11.53,1.61-1.45,9.11-4.87,6.95-8.2-1.13-1.75-5.82,2.67-6.93,3.62-1.68,1.45-13.35,12.3-13.83,13.12-.61,1.05-.81,1.76-.62,2.99ZM502.05,175.84c-1.85-3.87-4-10.16-6.07-13.34-1.72-2.65-3.84-3.15-3.14.48,1.16,6.07,7.52,14.66,8.91,21.19l3.97,1.78c1.04-1.13-1.95-7.85-2.68-9.33-.25-.51-.91-.63-.98-.79ZM120.73,173.86c-4.32-6.76-9.14-9.72-17.21-10.74-13-1.63-28.16,7.95-27.12,22.18-3.42-.27-6.69-1.79-10.21-1.62-8.56.42-16.45,8.3-18.02,16.45-5.74.28-13.09.63-15.2,7.16-2.43,7.53,6.23,7.94,11.52,8.28,26.5,1.71,56.8-.21,83.5-.71,9.9-.19,20.55.68,30.3.05,7.52-.48,15.84-1.14,13.01-11.09-1.95-6.84-12.57-8.52-18.62-6.68.22-14.8-17.46-19.77-28.93-13.81,0-2.4-.55-5.24-1.46-7.45-.65-1.56-1.19-1.46-1.55-2.02ZM456.83,188.38c1.1-4.15,3.31-16.36,3.53-20.52.05-.93.16-3.36-1-3.58-2.53-.49-2.04,3.79-2.32,4.79-.15.54-1.09.39-1.26.94-1.09,3.66-3.31,16.57-3.34,20.27,0,.96-.15,1.89.65,2.63,3.15,1.47,2.04-1.98,2.72-3.81.2-.53.98-.55,1.02-.71ZM525.06,243.53c-13.99-23.81-49.8-17.97-55.99,8.66-.38,1.65.39,3.64-1.17,4.76-13.89-10.46-36.82-3.47-39.11,14.46-5.62-1.64-13.42-.88-16.98,4.37-.69,1.02-2.94,5.54-2.73,6.35,2.89,3.41,4.29,4.07,8.85,4.42,45.15-2.05,92.58,2.64,137.46,0,6.66-.39,17.38-2.42,17.38-10.88,0-3.63-3.96-8.32-7.21-9.87s-7.04-1.83-10.55-1.25c-.89-.67-.61-3.47-1.08-4.86-3.57-10.48-17.06-13.55-25.85-7.35.05-2.26-.64-5.24-1.63-7.27-.54-1.12-1.22-1.25-1.39-1.54Z" fill="#fff"/>
  <path d="M590.54,480.43v356.91h-320.51c-37.25-21.4-69.57-43.34-112.2-53.47-21.86-5.19-45.89-5.43-66.96-11.27-12.21-3.39-22.69-11.47-34.4-16.22-16.72-6.78-34.36-9.2-52.38-7.12v-252.4c25.46-3.21,51.27-1,76.27,4.27,10.67,2.25,21.01,5.77,31.79,7.5,1.27,3.03,2.7,8.46,5.44,10.48,1.94,1.42,4.15.99,5.47,1.76,1.48.86,2.04,4.6,6.06,5.81,3.02.91,4.81-1.01,7.46-.27l-6.79,33.74c.35.95,1.09,1.51,1.9,2.05,4.67,3.16,12.78,5.38,17.68,8.6-5.1,4.71-10.1,9.69-15.46,14.11s-15.19,12.52-20.76,15.4c-7.06,3.65-16.18,5.53-22.9,10.63-5.28,4.01-5.04,10.32-4.67,16.42s3.67,19.11,5.61,25.94c9.13,32.22,34.56,38.71,65.67,32.78,2.84-.54,12.63-2.98,13.42-5.64,1.11-3.76-.97-5.12-1.16-7.12-.11-1.15.73-2.47.67-3.89-.21-4.94-6.09-11.46-9.88-14.5-2.02-1.61-5.97-3.1-7.25-4.76-1.2-1.56-5.16-11.24-4.27-12.65.19-.3,4.62-3.9,5.39-4.49,18.77-14.51,41.89-25.32,57.41-43.83l31.16.95c2.72,7.95,3.75,16.35,5.72,24.5,3.74,15.49,7.97,33.03,12.37,48.36,2.02,7.05,1.39,6.23.13,13.02-.93,4.98-.58,10.53-1.41,15.02-.59,3.18-3.44,3.74-2.56,9.2,1.09,6.75,17.71,10.3,23.47,11.37,23.37,4.35,72.69,9.29,91.86-6.42,3-2.46,6.56-6.58,4.28-10.65-.41-.73-1.57-.75-1.84-1.58-.8-2.38-.2-4.93-1.73-8.16-3.95-8.34-15.68-7.41-23.25-9.62-5.4-1.58-11.56-5.66-17.52-7.46-3.15-.95-15.89-2.7-16.68-5.01l-8.56-83.33c.27-1.08,9.67-3.84,9.79-6.66l-3.95-52.87c2.92.24,2.25,4.11,4.25,5.93s4.37.78,5.63,1.61c1.41.92.63,4.6,5.37,5.82,3.64.94,5.09-.96,6.67-.71,1.43.23,2.74,2.35,6.01,2.52,3.81.2,4.62-1.6,6.73-1.89,1.68-.23,3.93.9,6.4.49,4.89-.81,6.33-10.49,8.02-11.07,25.15,2.36,50.48-2.26,74.67-8.79,17.04-4.6,33.51-11.11,50.48-15.92,33.55-9.53,68.96-15.97,103.89-17.41ZM508.18,509.54c-1.15-1.11-3.32-.99-3.06.73.04.26,2.22,3.39,2.69,4.56,2.42,5.98,3.06,11.83,3.86,18.16l2.19-.04c1.52-.53.73-7.15.39-8.67-.11-.47-1.11-.41-1.25-.95-.86-3.36-2.28-11.34-4.82-13.78ZM524.13,511.33c-3.08-.47-4.39,4.08-5.06,6.43-1.37,4.79-1.62,10.3-1.51,15.26h2.62c-.94-7.64,2.31-14.48,3.94-21.69ZM506.39,533.01c5.27.59.43-6.84-.98-8.56-2.2-2.67-7.41-5.85-10.85-4.56-.69,2.69,1.61,1.73,3.98,2.89,3.81,1.88,7.31,5.88,7.86,10.23ZM533.99,519.87c-4.27-.63-10.66,7.42-11.06,11.01-.31,2.8,2.42,2.41,3.47.79,1.3-2.01,1.12-4.16,3.62-6.9,1.52-1.67,4.39-2.16,3.97-4.9ZM57.99,549.44c.24-8.48-3.8-19.26-12.8-21.02l-.68,1.31c6.5,4.83,10.35,10.85,11.18,19.06l2.3.65ZM64.47,548.68c.25-.4.17-7.05.79-9.38.47-1.75,1.75-4.28,2.7-5.85.52-.86,5.03-4.47,2.18-5.04-2.31-.46-7.61,7.4-8.16,9.58s-1.72,10.92.35,11.42c.29.07,2.04-.57,2.14-.73ZM70.45,548.76c.72-2.14,1.94-5.1,3.42-6.78,1.65-1.86,7.02-3.51,4.11-5.66-3.74.09-6.35,3.36-8.03,6.34-1.22,2.17-3.84,6.56.5,6.09ZM464.22,555.94c-1.25-9.66-14.87-17.21-23.89-17.69-6.24-.33-10.5.94-15.69,4.08-3.21,1.94-13.83,10.7-10.31,14.68,2.88,3.26,26.19,3.28,31.26,2.98,6.25-.37,12.93-1.47,18.62-4.05ZM532.53,558.18c-5.79.7-11.41,3.5-15.94,7.06-2.34,1.84-8.32,6.08-4.26,8.82s20.07,3.87,25.31,3.68c3.18-.12,19.2-1.68,20.38-3.97.76-4.11-5.67-9.92-8.99-12.07-5.62-3.63-9.79-4.33-16.49-3.52ZM352.94,579.93c1.14,1.78,2.92,9.29,4.52,8.95,1.39-.91.81-1.46.71-2.64-.41-5.02-4.88-13.06-10.56-13.14-2.31.28,4.87,6.11,5.33,6.82ZM364.37,588.23c-1.37-3.71,2.47-9.07,2.63-11.56.2-3.25-2.92-2.14-3.93-.41-1.42,2.45-4.95,14.45,1.3,11.98ZM369.54,588.13c.29-.18,1.57-4.61,2.73-6.14,1.42-1.88,5.29-3.64,5.59-4.28.32-.67-.26-1.15-.72-1.27-4.8-1.25-10.56,7.44-10.13,11.78.76-.1,1.96.26,2.53-.09ZM45.99,592.99c-4.19.65-12.46,5.19-12.31,10.05.14,4.55,14.79,5.14,18.09,4.94,8.91-.56,16.48-4.27,6.72-12.02-3.59-2.85-8.02-3.66-12.5-2.96ZM439.85,596.97c-10.78.8-35.63,7.09-43.63,14.22-3.11,2.78-7.42,9.46-2.74,12.68,6.59,4.53,34.06,6.76,42.86,7.11,9.52.38,41.28-.15,48.57-4.74,6.06-3.81,3.13-7.56-.62-11.66-10.98-11.99-28.19-18.83-44.44-17.62ZM525,646.91c-.63,2.6-2.75,15.44,2.1,12.32.64-7.49,1.46-17.19,6.23-23.35,1.48-1.91,4.2-3.09,5.28-4.58.59-.82,1.17-1.22,0-2-4.3-2.86-10.34,9.35-11.5,12.18-.45,1.1-2.03,5.13-2.1,5.43ZM513.21,646.48c2.12,2.42,2.74,3,3.88,6.3.78,2.26.49,6.36,2.76,7.08,2.57-.54-.67-10.54-1.52-12.27-2.08-4.26-9.1-10.52-13.91-7.11,4.13,2.51,5.48,2.23,8.78,6ZM537.01,652.37c1.28-1.94,2.43-3.76,4.21-5.32,1.21-1.06,7.48-3.77,5.27-5.26-2.04-1.37-9.44,4.68-10.81,6.3-1.53,1.82-4.83,8.55-4.28,10.73,1.17,4.65,4.04-4.75,4.38-5.35.39-.69,1.06-.84,1.23-1.1ZM205.75,643.6c-3.35.52-12.18,4.9-10.05,9.05,1.95,3.81,24.98,4.66,27,.66,2.23-4.42-5.59-9.3-9.28-9.81-2.1-.29-5.57-.23-7.67.1ZM354.33,643.6c-2.55.47-6.71,3.11-6.42,6.07.47,4.72,15.76,4.57,18.78,1.68,1.02-6.27-7.35-8.68-12.37-7.74ZM49.44,682.22c-.19-7.38-3.3-20.88-12.48-21.03-.63,3.04,2.54,2.97,3.74,4.15,4.01,3.93,5.56,10.88,6.45,16.22l2.3.66ZM62.37,663.61c1.99-2.64-.91-2.95-3.04-1.42-3.95,2.85-6.55,11.8-6.62,16.45-.03,2.26.6,5.02,3,2.94.35-5.3.45-9.77,3.34-14.41.98-1.58,2.55-2.54,3.32-3.56ZM64.29,676.69c1.33-1.78,6.09-5.56,6.2-5.97.15-.6-.57-1.51-1.02-1.63-2.79-.74-12.18,8.65-9.85,12.5,2.67,1.5,2.47-2.38,3.44-3.8.43-.63,1-.8,1.23-1.1ZM418.12,671.88c-4.07.59-10.31,3.97-11.69,8.09-.4,4.45,13.51,5.02,16.81,4.9,1.9-.07,12.46-1.6,13.15-2.63,3.14-4.7-7.9-9.84-11.36-10.39-2.16-.34-4.74-.3-6.9.01ZM421.11,730.02c.93,1.11,8.03,4.38,9.79,4.99,25.42,8.74,85.03,10.75,108.55-2.96,8.59-5.01,3.91-9.99-1.84-14.99-15.15-13.18-45.87-28.46-66.11-24.68-18.53,3.46-41.04,15.43-49.33,32.71-.55,1.14-3.41,2.14-1.06,4.94ZM89.41,713.96c-6.24.76-19.31,8.07-21.29,14.27-1.34,4.19,10.82,6.03,13.96,6.49,9.54,1.4,21.16,1.04,30.49-1.55,5.21-1.45,9.64-2.1,5.54-8.18-5.89-8.72-18.7-12.25-28.7-11.04ZM168.21,738.98c-1.89-1.92-5.92-4.87-8.62-4.86-4.88,0,2.81,3.71,3.91,4.64,7.17,6.12,6.25,9.44,8.92,17.37,1.08,3.2,2.61,1.55,2.65-1.28.06-4.53-3.68-12.65-6.86-15.88ZM187.51,735.47c-5.24-.28-6.51,6.14-7.94,10-.16.43-1.02.46-1.2,1.03-.58,1.84-1.58,10.73.28,11.31,3.73,1.18,1.69-9.45,3.41-11.69l5.45-10.64ZM197.37,743.36c-1.1-1.64-6.9,2.59-7.88,3.61-1.31,1.36-5.14,9-3.95,10.18l2.03-.39c.66-3.68,3.2-6.65,5.83-9.17,1.13-1.08,5.18-2.43,3.97-4.24ZM259.42,755.41c-3.14,5.4,5.94,7.26,9.95,7.65,4.73.46,22.59.29,18.33-7.81-5.58-10.6-22.3-10.11-28.28.16ZM374.71,755.29c-5.49,1.11-10.58,17.82-9.67,22.54.21,1.1.82,1.64,1.63,2.31,2.67-1.87,1.31-5.14,1.81-8.03,1.01-5.79,4.13-12.01,9.03-15.3-.11-1.68-1.42-1.81-2.81-1.52ZM361.08,779.5c.33-5.57-1.13-13.28-5.59-17.09-1.67-1.42-4.79-3.57-5.61-.32.02,1.64,2.54,1.98,3.64,2.95,4.08,3.58,4.44,9.38,4.95,14.45h2.61ZM519.36,763.88c-4.4.75-17.16,7.83-10.58,12.24,4.63,3.1,22.55,2.89,28.01,1.24,8.51-2.57-1.49-10.09-5.5-11.92-3.79-1.73-7.77-2.27-11.93-1.56ZM375.95,775.97c1.21-1.8,1.9-3.72,3.51-5.37,1.96-2.01,7.31-3.54,4.31-6.2-1.2-.07-8.45,5.69-9.45,6.98-1.09,1.4-5.52,10.19-1.11,8.75,1.29-.73.99-2.45,1.68-3.45.28-.4.91-.49,1.06-.71ZM355.16,780.16c2.3-4.61-11.26-14.45-13.14-12.48-.86,3.65,2.11,2.71,4.57,4.3,4.06,2.63,4.22,8.08,8.57,8.18ZM439.15,779c-8.04,1.27-23.48,12.83-8.94,16.51,5.23,1.32,29.96,2.25,32.47-2.87,1.36-2.78-3.53-7.92-5.68-9.45-4.97-3.54-11.82-5.14-17.85-4.19Z" fill="#fff"/>
  <path d="M301.25,436.39l11.19,136.4c-57.17,24.98-124.94,16.22-178.52-13.47l5.91-29.62.73-.56c4.8,2.58,7.62-1.13,10.63-1.88,3.9-.98,6.65,1.49,9.51-2.98,3.05-4.75,1.99-10.95,1.84-16.24,1.25.42.4,1.42,2.42,1.81,6.65,1.3,8.76-2.8,10.26-8.52,2.92-11.11-.63-23.92-6.21-33.65-.52-.9-1.71-.6-1.93-2.02-.16-.99-.15-4.9.07-5.81,1.19-4.99,2.43-10.63,3.46-16.37.37-2.03,2.51-14.13,3.44-14.33,1.68.27,2.76,1.68,4.26,2.3,31.69,13.04,85.49,15.38,118.48,6.71,1.53-.4,2.97-1.28,4.46-1.78ZM272.07,502.54c3.15-5.55,5.49-11.48,8.03-17.32.49-1.12-.61-2.73-1.88-1.85-.63.41-4.3,9.53-5.22,11.25-11.39,21.23-25.4,38.01-45.95,51.3-1.51.98-8.08,3.18-6,5.5.59.66,5.42-2,6.36-2.51,17.51-9.56,34.97-29.29,44.67-46.37Z" fill="#fff"/>
  <path d="M353.52,189.9c-5.49-.6-12.83-4.65-15.58-9.41-.84-1.46-2.8-7.43-3.51-7.66-2.81-.92-2.05,3.1-2.59,4.6-3.08,8.53-13.18,13.71-21.9,10.68-1.72-.6-2.91-1.95-4.74-2.17-.32-1.8,2.3-2.01,3.61-3.28,1.05-1.02,5.47-6.77,4.27-7.88-3.11-.57-3.98,2.65-6.26,4.58-10.03,8.47-25.39,7.92-36.92,2.77-1.57-.7-6.64-5.18-7.39-2.34-.31,1.18,1.64,6,1.85,7.87,1.81,16.02-8.54,24.25-9.78,38.72-1.18,13.81,3.22,25.27,14.14,33.82,6.93,5.42,5.69,2.39,11.97.16,5.53-1.96,13.76-4.11,19.57-4.14,7.84-.04,13.18,5.29,21.05,5.36,2.54.02,4.99-1.48,7.23-.76,1.58.51,4.87,3.14,6.26,4.32,1.88,1.61,5.66,6.94,7.55,6.84l4.91-3.57,7.25-11.48c-.04,5.62,1.03,11.13.69,16.78-.85,14.06-9.92,36.98-26.66,37.83-1.55.08-3.43-.85-4.47-.61-1.09.25-2.58,2.71-3.77,3.48-8.66,5.59-21.53,7.58-29.92.39-1.01-.86-1.8-2.93-2.72-3.24-1.76-.59-6.51,1.34-9.08,1.29-4.5-.1-10.76-2.6-13.83-5.95-2.37-2.59-3.78-7.83-6.28-9.47-2.26-1.48-5.4-2.09-7.86-3.34-7.48-3.82-9.71-8.29-12.28-15.98-1.88-5.63-3.04-12.64-2.22-18.92,1.37-10.44,5.28-22.29,7.62-33.14.82-3.79,3.38-14.9,2.93-18.03-.52-3.66-6.53-5.71-9.68-6.12-7.87-1.04-16.47,2.42-20.43,9.47-5.36,9.57-6.4,21.83,1.22,30.76,4.09,4.79,10.28,6.82,16.42,6.93l-1.32,15.77c-4.83-.91-15.67,4.64-19.37,3.98-1.95-.35-1.79-2.69-3.43-3.19-1.9-.58-4.93.12-7.1-.13-3.66-.42-8.3-2.23-10.51-5.27-.24-.34-2.44-3.83-2.53-4.06-1.01-2.54-.57-9.12.27-11.82.15-.5,1-.55,1.18-1.06,2.15-6.34-1.67-4.53-3.8-9.08-3.39-7.24-.32-14.7,5.22-19.6,1.68-1.49,6.44-4.01,6.94-5.62-1.85-14.08-4.83-23.97,7.55-33.82,4.81-3.83,12.14-4.35,14.74-9.58s4-10.52,7.68-15.99c7.63-11.35,25.56-18.53,38.68-13.28,1.63.65,2.45,2.51,4.22,2.35,4.81-4.03,8.58-7.7,15.21-8.53,15.49-1.93,22,6.26,34.29,8.33,5.94,1,12.23-.96,18.28-.53,8.64.63,17.86,6.07,17.49,15.71,21.73,2.46,39.44,25.17,19.82,43.13,8.62,12.82-3.57,28.48-17.28,29.26,1.05-10.9,1.16-22.04-.66-32.86.36-.4,5.04-.41,5.94-.97,1.3-.81.11-2.32-.35-2.32-3.68,0-8.32.39-11.83,0ZM299.77,272.23c-1.87.29-8.4,2.6-8.4,4.77.86,3.52,5.47-.09,7.88-.68,5.55-1.36,13.66-1.17,18.66,1.78,1.07.63,3.66,4.21,4.37,1.51.89-3.37-6.45-6.9-9.02-7.37-2.9-.53-10.52-.46-13.49,0Z" fill="#fff"/>
  <path d="M590.54,429.82c-13.36-2.63-26.81-5.53-40.44-6.57-33.28-2.53-67.22,6.13-99.31,13.75-23.82-3.58-46.57-10.13-70.96-8.49-9.31.63-18.57,3.56-27.95,3.94l-1.36-30.6c-.19-2.58,2.62-2.35,4.43-3.45,1.07-.65,5.08-3.03,5.35-3.85.14-2.56.26-5.21.1-7.77-.21-3.38-2.12-9.83-1.93-12.56.15-2.1,5.28-3.16,6.98-4.09,21.52-11.84,63.22-43.4,85.99-44.83,15.65-.99,36,17.71,48.91,26.08,17.82,11.55,37,21.98,56.64,30.13,11.02,4.58,22.5,7.93,33.52,12.5v35.82ZM433.17,355.31c-10.02,10.69-22.16,20.07-33.64,29.14-1.03.81-5.97,3.04-5.58,4.93.52,2.52,5.38-1.48,6.39-2.15,10.65-7.06,33.02-24.37,39.52-34.76.54-.87,2.09-3.73,2.08-4.53.09-.86-.81-1.78-1.63-1.6-.56.12-5.94,7.69-7.14,8.97ZM512.81,401.02l-16.3-10.96c-2.94-3.45-6.75-5.95-9.87-9.19-2.76-2.86-4.6-8.39-9.18-7.57-.2,1.1.5,1.77,1.07,2.56,5.93,8.22,21.77,23.11,31.17,26.65,1.1.41,2.11.47,3.26.36-.05-.6.18-1.29-.14-1.84Z" fill="#fff"/>
  <path d="M232.87,268.13c-.05,4.51,1.09,12.25,3.08,16.26.49.98,1.55,1.06,2.07,1.89,6.9,10.88,7.27,21.08,17.21,30.81,10.96,10.73,29.27,15.28,43.38,8.22-.6,4.19-1.61,8.36-3.09,12.33-12.39,33.02-43.95,62.77-76.2,76.99-8.23,3.63-12.02,2.36-20.66.44-7.13-1.58-13.91-4.63-21.01-6.28.48-5.25,3.7-9.52,4.01-15.05,2.76-.2,12.23-.05,13.63-2.47l19.17-58.71-3.25-.65-18.93,57.82c-23.54,2.77-47.81-5.19-67.8-17.19-.34-.58,1.36-5.8,1.71-6.97,7.34-24.4,25.14-56.98,45.23-73.1,17.44-13.99,39.76-20.24,61.45-24.33Z" fill="#fff"/>
  <path d="M590.54,433.1v44.04c-26.22.89-52.69,5.04-78.24,10.84-23.23,5.27-44.34,13.12-66.92,19.86-27.48,8.2-54.63,13.95-83.63,12.02-.31-.31,1.05-7.61,1.38-8.67.16-.52,1.07-.63,1.19-1.05,1.26-4.36,2.25-7.58,2.02-12.29-.39-8.11-3.5-14.96-6.75-22.16-.98-2.18-3.44-5.14-4.11-7.07-.57-1.65-1.52-11.99-.97-12.51,16.58-.95,33.09-3.28,49.45-6.11,39.5-6.81,79.34-20.04,119.2-23.46,22.73-1.95,45.29,1.81,67.38,6.57ZM489.03,460.98c-4.34-3.56-8.39-4.76-14.09-3.12-3.29.95-10.51,7.96-9.25,11.62,1.15,3.37,14.96.83,17.94,1.7.67.19.39,1.44.76,1.95,2.11,2.97,19.8,3.36,22.05.45,2.4-6.17-4.55-9.21-9.69-9.55-1.57-.1-3.22.92-4.4.55-.46-.14-2.54-2.97-3.31-3.6ZM417.96,471.23c-2.67.55-6.51,14.96-2.64,17.07,1.24-.8.9-1.76,1.01-2.92.46-4.9.7-8.75,3.27-13.15l-1.64-1ZM409.35,481.49c-1.32-2.67-2.01-4.96-4.54-6.98-.94-.75-4.16-3.01-4.92-.98-.71,1.87,2.72,2.71,3.96,3.92,2.76,2.7,4.71,10.24,5.2,10.58,3.72,2.56,2.05-3.98,1.3-5.76-.19-.45-.88-.56-.99-.78ZM430.77,476.49c-3.33-1.01-10.45,7.6-10.51,9.58-.07,2.34,1.81,3.3,3.14,1.12,1.13-1.85,1.45-3.41,3.17-5.38,1.4-1.61,4.62-2.44,4.2-5.33Z" fill="#fff"/>
  <path d="M263.12,837.34H4.08v-84.79c22.66-3.21,42.45,2.4,62.49,12.13,17.15,8.33,21.98,11.58,41.83,14.71,23.03,3.63,43.88,5.48,66.48,12.41,31.81,9.75,57.93,28.49,86.72,44.1.62.33,1.45.63,1.51,1.44ZM38.37,808.33c2.11,3.31,32.82,4.13,35.76-.56,1.19-1.9-1.58-5.52-2.95-6.94-6.18-6.34-15.99-7.63-24.04-4.26-3.27,1.37-11.39,7.62-8.76,11.75Z" fill="#fff"/>
  <path d="M4.08,357.52c17.47-7.01,36.35-16.74,55.52-17.78,22.36-1.21,41.76,11.94,59.98,22.92,1.63.98,3.62.41,3.39,2.89-.08.81-.95,4.53-1.23,5.29-.26.7-1.88.18-1.27,1.79l6.63,5.6c-2.76,8.57-3.73,17.38-5.37,26.15-.1.51-1.16.45-1.25.96-1.32,7.39-1.21,15.1-2.73,22.47-6.77-1.38-13.45-4.02-20.3-5.55-31.16-6.97-62.61-3.3-93.38,3.64v-68.36ZM47.86,375.95c-.63.18-1.53,1.3-.73,1.96,7.52,4.33,14.03,10.13,21.17,14.99,2.81,1.91,17.93,12.22,19.76,12.48,2.45.36,2.75-1.28.8-2.8-4.15-3.24-10.79-6.55-15.3-9.68-6.43-4.47-13.97-11.26-20.52-14.98-1.33-.75-3.73-2.39-5.18-1.97Z" fill="#fff"/>
  <path d="M4.08,429.16c11.96-2.14,24.4-5.4,36.5-6.56,19.36-1.87,40.63-.94,59.52,3.58,5.92,1.42,11.69,3.75,17.66,5.02-.7,10.55-.67,21.21-.62,31.84s-5.21,17.95-5.91,28.87c-.27,4.11.53,8.21.55,12.03,0,.8-.19.97-.83,1.39-34.75-9.76-70.59-16.28-106.86-11.75v-64.42ZM67.41,469.68c4.57,2.83,19.76,2.9,25.02,1.47,10.13-2.75-.1-11.07-6.14-12.12-3.64-.63-9.63.75-11.38.25-1.51-.43-7.13-6.43-9.76-8.03-8.76-5.34-20.03-7-28.12.66-2.11,2-8.32,13.4-4.85,14.72,3.57.18,7.48,1.14,11,1.34,6.5.37,16.61-1.11,22.4-.04,1.53.28,1.38,1.47,1.84,1.75Z" fill="#fff"/>
  <path d="M341.95,310.91c2.88,8.03,5.4,15.74,7.09,24.14,2.98,14.79,5.9,30.71,7.43,45.81.19,1.83.99,11.88.52,12.67-13.05,7.41-29,10.42-43.89,8.66,1.55-4.56,2.61-9.31,3.99-13.91,5.45-18.12,9.2-38.65,9.83-58.01.03-.87.67-12.21-2-10.22-1.43,12.06-1.7,24.37-3.38,36.39-1.9,13.61-7.56,35.88-13.41,48.38-.86,1.84-4.28,7.76-5.54,8.92-2.52,2.31-12.54,4.26-16.22,4.82-6.62,1.02-15.56,1.73-22.28,2.04-15.05.69-30.09-.56-45.03-1.97l19.95-10.62c20.55-13.66,39.46-31.23,51.84-52.68,5.81-10.07,10.11-20.52,11.69-32.35,3.42-1.56,6.79-.71,10.68-1.81,4.72-1.33,9.16-5.67,12.46-6.61,2.38-.68,4.42-.17,6.64-.6,2.09-.4,8.28-3.95,9.62-3.07Z" fill="#fff"/>
  <path d="M123.08,497.85c-.95-1.64-2.99-.26-3.29,1.31-.5,2.65-.14,9.45-.02,12.52.03.78,1.6,5.67-.29,4.9-7.57-9.58-6.26-24.89-3.3-36.15.89-3.37,3.78-8.33,4.24-10.88.54-2.99-.6-5.63-.65-8.48-.37-21.79,2.08-46.84,6.8-68.2.78-3.53,1.87-8.83,3.02-12.1.34-.96-.4-.89.99-.88,2.59.02,9.74,4.34,12.9,5.53,9.37,3.54,19.42,5.87,29.32,7.5,1.9.31,4.2-.62,5.49,1.06-4.51,15-6.87,30.52-9.89,45.84-.1.5-1.11.5-1.21,1.01-.91,4.66-4.09,22.37-3.04,25.82.68,2.23,3.79,5.31,4.68,7.12,3.18,6.44,4.93,16.29,4.21,23.4-1.14,11.39-8.83,14.94-10.44,1.25-.18-1.49.69-13.13-2.74-8.51-1.2,1.62-.61,17.61-.65,21.09-.02,1.33.65,2.55.62,3.85-.4,16.11-11.52,10.24-13.01-2.63-.32-2.76,1.23-12.11-2.37-12.11-.56-.2-1.64.79-1.64,1.01v10.52c0,2.09,1.77,3.69,1.92,4.12,1.17,3.46,1.69,6.54,4.01,9.67-14.04,6.81-16.05-16.98-14.47-25.95h-3.29c.19,2.61-.71,4.92-.7,7.56.02,4.75.77,12.32,3.97,15.78-3.09,2.57-6.22.26-8-2.51-.56-.87-3.16-6.82-3.16-7.36v-15.12Z" fill="#fff"/>
  <path d="M334.77,180.71c.39.33,2.69,5.1,3.94,6.25,4.02,3.68,12.32,6.43,17.77,6.23-.06,3.98,1.12,8.22,1.34,12.14.94,17.16-1.7,41.12-9.53,56.25-.88,1.69-3.84,6.93-5.88,6.59-.37-.06-4.24-4.42-5.34-5.29-1.99-1.56-4.35-3.74-6.88-3.97.46-2.06,2.04-2.69,2.47-5.08,1.04-5.76-1.19-13.88-3.18-19.38-.22-.61-1.15-.6-1.45-1.34-.69-1.7-1.13-6.63-2.12-7.06-1.82-.79-2.25,1.38-2.15,2.78.29,3.9,3.31,12.03,4.5,16.44.15.55,1.14.48,1.25.95.47,1.96-.31,4.97.07,7.12-7.11,9.66-18.39,3.6-26.01-2.33-2.18-.42-.16,2.5-.34,2.63-7.7-.49-15.25,1.11-22.53,3.44-4.62,1.48-4.7,4.31-10.01.51-6.56-4.69-12.95-15.98-13.5-23.96-1.09-15.69,10.23-26.96,10.58-42.07.06-2.48-.51-4.53-.69-6.92,9.28,3.22,17.98,4.87,27.93,3.93,1.71-.16,6.78-1.93,7.15-1.86.94.18,6.21,4.48,8.79,5.01,8.42,1.72,19.6-2.19,22.53-10.6-.16-.7,1.2-.51,1.3-.42ZM314.84,208.74c1.82-1.74,2.93-5.25.61-7.07-2.17-1.7-5.13.66-7.59,1.08-8.14,1.39-16.69-.17-23.88,1.11-3.34.59-4.63,2.45-3.45,5.77,6.33,3.64,29.38,3.79,34.3-.89ZM353.01,218.66c1.41-1.57,1.21-3.46-.67-4.58-2.63-1.57-9.88-2.03-13.6-3.49-2-.78-9.83-6.36-11.11-2.52-1.77,5.29,6.5,10.15,10.63,11.54,3.4,1.14,12.22,1.85,14.75-.96ZM300.42,220.98c-5.44-4.98-14.55,13.07-6.59,15.46,6.68,2.01,10.65-11.75,6.59-15.46ZM344.47,228.2c-6.09-5.82-12.6,16.85-2.94,14.83,5.01-1.05,6.32-11.6,2.94-14.83Z" fill="#fff"/>
  <path d="M352.12,469.68c5.64,10.29,11.56,19.82,10.27,32.76-1.76,17.53-16.85,9.38-13.15-4.24-2.74-.22-7.42-2.68-8.99-4.83-1.14-1.56-2.94-10.95-3.82-10.96-3.2,6.36,2.31,15.74,8.77,17.84-.77,3.74,2.25,8.02,2.72,10.79s-1.93,10.44-2.53,13.83c-.29,1.64.23,3.47-.21,5.04-1.05,3.75-7.96,2.93-8.43-.55-.21-1.56,2.59-10.69,3.13-13.29.49-2.34,1.25-4.23,1.48-5.2.29-1.23-.12-2.84.01-4.15l-2.7.39c-.84,4.47-3.08,21.06-7.18,22.95-2.96,1.36-5.81-.84-5.94-3.96-.09-2.13,1.98-7.25,2.74-9.64.18-.56,1.1-.6,1.35-1.43.95-3.07,1.02-7.06,1.86-10.27l-3.17.77c-.63,3.83-1.63,8.21-2.94,11.85-.93,2.57-3.32,10.68-6.3,5.37-3.23-5.75,2.67-14.54,2.49-20.24-.06-1.9-2.63-12.96-3.23-15.72-.11-.52-1.25-.52-1.32-.77-.5-1.9,1.19-1.48,1.32-2.08.43-1.97,1.45-10.95.58-12.33-2.37-3.76-3.87-6.22-5.68-10.72-4.64-11.57-10.97-28.93-8.03-41.13.12-.49,1.17-.41,1.28-.91.29-1.24-.14-2.62.31-4.18.65-2.23,4.12-6.08,4.39-9.09,12.11,1.66,24.62-.14,36.07-4.02l4,66.03c-.05.89.48,1.42.85,2.1Z" fill="#fff"/>
  <path d="M303.22,580.34l7.09,64.94c-12.36,7.46-28.54,10.3-42.85,7.95-2.99-.49-6.37-1.26-8.23-3.74-3.98-15.47-6.18-31.47-9.98-46.96-.12-.51-1.05-.41-1.32-1.46-.39-1.53-2.42-11.04-1.92-11.54,19.46.48,38.72-3.6,57.2-9.2Z" fill="#fff"/>
  <path d="M207.89,587.57c.76.72-3.14,5.53-3.93,6.26-9.84,9.17-22.93,18.09-34.37,25.45-1.77,1.14-10.35,6.85-11.37,7.04-1.97.37-6.19.16-8.22-.26-6.86-1.41-16.62-8.76-19.98-14.87-2.01-3.65-5.39-13.32-3.32-17.05.17-.31,4.49-3.96,5.26-4.6s2.04-.81,2.99-1.62c2.35-2.01,16.27-15.33,17.43-15.49,2.51-.35,11.53,4.45,14.79,5.58,12.98,4.49,27.07,8.12,40.73,9.56Z" fill="#fff"/>
  <path d="M302.57,417.99c-1.55,3.81-.46,10.75-1.44,14s-17.1,5.8-20.66,6.29c-28.58,3.89-63.26,2.28-90.82-6.32-2.16-.67-14.52-5.16-15.14-6.22l-.2-.85c-.05-.8,1.86-11.01,2.17-11.7.38-.83.54-1.07,1.51-1.15,7.91,2.42,15.74,5.36,23.85,7.08,24.07,5.1,56.25,6.42,80.68,3.46,6.53-.79,13.67-2.94,20.06-4.59Z" fill="#fff"/>
  <path d="M439.32,438.37c.24,1.66-.1,1.03-.92,1.38-3.51,1.48-11.84,2.78-16.05,3.67-22.3,4.73-45.26,8.09-67.88,9.79l-1.3-17.03c.17-.73,1.71-.91,2.38-1.03,13.12-2.33,29.44-4.07,42.71-3.38,13.85.71,27.39,4.67,41.07,6.6Z" fill="#fff"/>
  <path d="M368.32,694.71c1.14-9.4-9.33-14.79-17.37-13.78-.8.1-4.09,1.33-2.37,2.29,2.71,1.01,5.94.62,8.6,1.26,6.92,1.68,13.56,13.14,2.59,14.17-1.83-9.07-11.48-14.61-20.39-12.48-.2,4.59,5.45,2.77,8.57,3.59,3.61.94,8.63,5.62,8.92,9.52.16,2.14-6.33,2.79-7.91,3.21-1.84-2.41-2.82-4.54-5.42-6.35-1.27-.88-9.43-4.87-10.37-4.67-.99.21-1.2,1.7-1.03,2.59,5.12,1.63,11.43,4.03,13.8,9.2-11.76,3.02-24.12,1.88-36.16,1.32-.3-.27,2.11-6.11,2.51-7.01,5.15-11.39,15.72-19.36,27.56-23.11,1.59-.2,6.97,2.97,9.23,3.64,5.94,1.76,18.09,1.71,20.66,8.26,1.05,2.67,1.54,6.88-1.45,8.36Z" fill="#fff"/>
  <path d="M336.1,671.71c.24,1.2-.32,1.3-1.14,1.81-2.33,1.46-6.21,2.31-8.67,3.82-3.82,2.33-11.33,9.49-13.73,13.22-2.56,3.98-4,8.58-5.34,13.07-2.26,1.58-15.58-1.81-19.08-1.7,2.29-15.57,13.16-28.85,27.35-35.27l20.63,5.06Z" fill="#fff"/>
  <path d="M311.11,648.7l.51,16.92c-13.73,7.63-30.82,9.46-45.84,4.42-1.06-.79-4.53-12.72-4.61-14.46-.05-1.05-.24-1.08.86-.86,17.65,3.52,32.97,2.27,49.08-6.01Z" fill="#fff"/>
  <path d="M242.57,207.82c.62.67.81,1.8.77,2.71-.28,6.88-3.57,20.33-5.76,27.11-.29.89-1.12.79-1.46,1.87-.57,1.79-.38,3.85-.9,5.65-22.86,3.97-25.23-32.31-6.28-39.14,3.58-1.29,10.94-1.1,13.62,1.8ZM232.22,233.29c4.61.71,3.6-8.29,3.13-11.34-.38-2.48-2.89-9.29-6.02-8.32s2.89,6.01,2.89,8.82v10.85Z" fill="#fff"/>
  <path d="M295.08,679.34c-.49.64-1.4,1.03-2.14,2.12-3.84,5.56-6.65,13.2-8.17,19.77-.66.56-14.67-3.29-16.57-4.04-1.7-.68-5.07-2.43-5.6-4.26-.72-2.45-.15-19,1.8-20.29,11.61,3.48,23.57,4.41,35.22.4-.59,2.43-2.94,4.25-4.54,6.31Z" fill="#fff"/>
  <path d="M123.08,597.43c1.21,17.06,13.34,29.87,30.25,32.22-4.54,4.11-7.56,8.16-14.15,7.91-15.02-.58-29.92-16.5-26.47-31.77.71-3.15,7.29-7.45,10.37-8.36Z" fill="#fff"/>
  <path d="M147.41,646.06c-5.02,1.33-10.27.23-15.37.74-6.87.69-17.62,4-23.86,7.03-1.88.91-3.25,2.95-5.47,2.75-.03-3.51-5.52-13.66-3.3-16.11,1.42-1.57,15.56-5.71,18.25-6.06,6.8-.88,8.76,3.3,14.99,5.05,4.13,1.16,8.08,1.51,12.37,1.44l2.39,5.16Z" fill="#fff"/>
  <path d="M260.19,700.25c-.99-1.46-1.47-1.58-1.01-4.23,2.87-.77,3.54,1.93,5.32,2.9,14.48,7.94,59.85,11.1,76.36,8.75,10.76-1.53,23.65-5.28,32.06-12.31.82,4.05-1.34,6.28-4.37,8.44-19.33,13.78-67.2,9.15-89.8,4.54-5.89-1.2-15.12-3.02-18.55-8.09Z" fill="#fff"/>
  <path d="M155.3,655.92c-2.77.22-5.99.37-8.69.85-11.11,1.97-24.7,5.85-32.49,14.23-4.28-2.62-7.49-6.04-9.26-10.81.18-2.32,10.7-6.31,13.11-7.08,9.94-3.17,20.57-4.15,30.98-3.65l6.35,6.46Z" fill="#fff"/>
  <path d="M110.59,605.33c.28,1.08-1.14.29-1.32,1.07-.21.89-.18,6.73.04,7.66.19.81,2.94,7.36,3.68,8.93,1.49,3.18,4.04,5.56,5.5,8.63-7.21,1.26-14.15,3.18-20.66,6.56-2.8-.6-4.36-21.27-3.05-24.68,1.01-2.64,10.6-7.95,13.19-8.54,1.07-.24,1.66.19,2.63.38Z" fill="#fff"/>
  <path d="M97.66,652.44c.68,1.83,3.62,7.68,4.79,9.98,9.67,18.95,34.15,20.44,53.12,17.12,2.3-.4,12.68-5.52,11.47-1.03-.9,3.31-15.33,5.32-18.66,5.68-20.38,2.19-42.19-1.54-51.13-21.85-3.5-7.96-9.73-35.98-8.07-43.91.26-1.25,1-3.38,2.33-3.91-1.45,8.17.97,18.15,2.96,26.3.82,3.35,2.04,8.54,3.19,11.62Z" fill="#fff"/>
  <path d="M257.05,299.82c.55.46,1.31,4.03,2.11,5.27,3.56,5.5,10.91,9.89,17.44,10.34,2.6.18,8.38-.92,9.7-.54,1.1.31,2.83,2.82,4.21,3.73,2.25,1.49,4.95,2.18,7.45,3.07-4.47,4.05-12.91,4.15-18.76,3.64-14.72-1.28-28.57-15.51-32.52-28.94,1.63.93,9.68,2.86,10.36,3.43Z" fill="#fff"/>
  <path d="M317.31,499.89c.07.19.9.26,1.01.72.89,3.87-.9,4.21-1.23,5.3-1.1,3.68-2.09,7.51-2.7,11.32l-1.78-.84-6.09-64.23,9.05,22.17c-2.25,9.5-1.61,16.58,1.74,25.56Z" fill="#fff"/>
  <path d="M155.53,671.5c.06.22,2.27,1.6,1,4.05l-9.12,1.41c.35-4.36-.13-8.94-2.63-12.64-.38-.56-4.12-3.01-3.29-3.78,5.87-.89,7.72-2.89,11.3,2.82,1.84,2.93,1.87,5.1,2.73,8.14Z" fill="#fff"/>
  <path d="M132.54,670.15c.16.25.88.3,1.25,1.06.87,1.78.9,3.95,1.79,5.74-6.42.56-12.44-1.06-18.37-3.32-1.53-2.26,8.51-8.04,10.41-8.2,2.6-.22,3.84,3.02,4.92,4.71Z" fill="#fff"/>
  <path d="M359.1,514.61c-1.62,4.91-1.78,18.01-9.46,15.74-3.13-2.31,1.27-12.18.93-15.72,2.96-.23,5.7,1.63,8.52-.01Z" fill="#fff"/>
  <path d="M159.25,675.65c.21-3.64-.23-8.3-1.92-11.57-.46-.9-4.87-4.77-4-5.51,9.74-1.96,19.24,14.6,5.92,17.09Z" fill="#fff"/>
  <path d="M143.69,672.82c.07.23,2.19,1.64,1.08,4.13l-5.95.4c-1.02-3.7-2.04-7.68-4.25-10.9-.55-.81-3.6-1.9-2.29-3.29.2-.21,5.33-1.3,5.62-1.29,3.45.16,4.99,8.36,5.79,10.95Z" fill="#fff"/>
  <path d="M164.51,72.91c13.18-9.32,33.23-4.62,36.2,12.44,8.02-1.35,18.46-.62,21.79,8.12,2.79,7.33-.55,13.97-8.27,15.69-57.85,2.84-116.29.39-174.35,1.24-6.22-.91-14.99-.79-11.68-9.74.61-1.65,6.55-5.98,8.41-6.73,3.37-1.37,5.98-.97,9.25-1.93,1.14-8.96,5.07-15.89,11.79-21.74,10.97-9.55,27.86-8.77,39.13.02.72-1.84.28-4.5.69-6.1.12-.47,3.42-7.5,4.02-8.58,9.04-16.26,35.37-19.72,49.81-9.25,9.2,6.68,13.29,15.07,13.21,26.56ZM155.57,56.2c-16.86-21.29-52.43-14.1-54.76,12.51-.21,2.36,1.15,8.95-.05,9.83-2.52,1.84-3.75-2.37-4.62-3.34-11.27-12.52-30.22-10.4-40.39,2.36-.79,1-4.73,6.53-5.15,7.33-1.02,1.97-1.53,9.45-2.43,10.08-5.98.6-16.48,1.81-16.4,9.7.68,2.08,9.78,2.95,12.05,3.1,24.22,1.57,51.7-.11,76.32-.05,26.97.06,58.11,2.06,84.81.05,3.55-.27,11.77-1.64,13.76-4.65,2.98-4.5.47-11.22-4.24-13.46-5.78-2.75-9.97-.9-15.83-.59-1.74-15.51-18.97-22.75-31.48-13.16-2.49,1.91-5.57,8.34-7.28,3.23,1.55-8.84,1.27-15.87-4.33-22.94Z"/>
  <path d="M525.06,243.53c.17.29.84.42,1.39,1.54.99,2.04,1.68,5.02,1.63,7.27,8.79-6.2,22.27-3.13,25.85,7.35.47,1.39.19,4.19,1.08,4.86,3.52-.58,7.27-.31,10.55,1.25s7.21,6.24,7.21,9.87c0,8.45-10.72,10.49-17.38,10.88-44.88,2.63-92.31-2.05-137.46,0-4.56-.35-5.96-1.01-8.85-4.42-.21-.8,2.04-5.33,2.73-6.35,3.56-5.26,11.36-6.01,16.98-4.37,2.29-17.93,25.22-24.92,39.11-14.46,1.56-1.12.79-3.12,1.17-4.76,6.19-26.63,41.99-32.47,55.99-8.66ZM524.88,256.85c.63-32.88-49.8-32.24-53.15-2.02-.3,2.66,1.46,11.14-2.45,8-1.78-1.43-3.73-3.85-6.07-5.11-9.93-5.36-23.23-2.2-28.86,7.73-.36.64-2.18,4.2-2.23,4.45-.28,1.27.5,3.66-.65,4.52-4.42-.12-9.08-1.21-13.37.41-4.69,1.78-8.16,8.31-.83,8.44,45.53-2.45,94.29,3.15,139.44,0,5.93-.41,13.2-1.34,12.09-8.86-.84-5.71-7.79-7.59-12.75-6.91-1.67.23-3.18,2.06-4.98.96-1.28-.82.76-3.33.71-5.25-.11-4.47-6.22-10-10.38-10.71-2.87-.49-7.04-.16-9.62,1.24-2.14,1.16-3.89,5.03-6.9,3.1Z"/>
  <path d="M120.73,173.86c.36.56.9.46,1.55,2.02.92,2.2,1.46,5.05,1.46,7.45,11.47-5.97,29.15-1,28.93,13.81,6.05-1.84,16.67-.16,18.62,6.68,2.83,9.95-5.49,10.61-13.01,11.09-9.75.62-20.4-.24-30.3-.05-26.69.5-57,2.42-83.5.71-5.28-.34-13.95-.75-11.52-8.28,2.1-6.52,9.46-6.87,15.2-7.16,1.57-8.15,9.46-16.03,18.02-16.45,3.51-.17,6.78,1.35,10.21,1.62-1.04-14.23,14.12-23.81,27.12-22.18,8.07,1.01,12.89,3.98,17.21,10.74ZM120.55,187.18c2.45-26.57-39.05-27.97-41.44-3.44-.3,3.04,1.39,5.81-1.06,7.48-6.64-6.52-17.63-5.65-22.97,2.03-.88,1.26-3.02,5.11-3.61,6.37-.34.73.32,2.5-.65,3.17-.89.61-9.82.86-12.73,2.39-2.06,1.08-2.61,3.15-2.48,5.35.25,1.05,5.72,1.69,6.92,1.77,29.85,2.07,65.82.1,95.99-.71,5.44-.15,26.62,1.05,29.78-2.1s-3.23-8.93-6.23-9.55c-2.06-.42-5.26-.39-7.23.36s-3.13,3.44-5.38,2.04c2.14-11.91-6.55-19.78-18.16-18.35-4.33.54-6.78,5.18-10.74,3.2Z"/>
  <path d="M502.86,84.31c8.34,8.9,7.68,14.31,10.11,24.95.11.49,1.15.4,1.28.9.18.68-1.82,11.64-2.25,13.38-4.22,17.1-22.47,29.85-39.56,31.44-22.48,2.1-46.6-14.52-48.89-37.72-4.25-43.02,51.18-63,79.31-32.95ZM502.87,89.56c-20.2-26.63-67.55-18.59-74.94,14.35-7.97,35.54,33.42,60.11,63.26,41.55,18.43-11.46,25.16-38.13,11.68-55.9Z"/>
  <path d="M456.83,188.38c-.04.16-.83.19-1.02.71-.68,1.83.43,5.28-2.72,3.81-.79-.75-.66-1.67-.65-2.63.04-3.69,2.25-16.61,3.34-20.27.17-.55,1.11-.4,1.26-.94.28-1-.22-5.28,2.32-4.79,1.16.23,1.05,2.65,1,3.58-.22,4.17-2.43,16.38-3.53,20.52Z"/>
  <path d="M534.65,55.16c.21,1.01-.1,1.53-.62,2.33-1.42,2.19-16.61,15.36-19.43,17.38-3.07,2.19-5.76,1.19-3.32-2,4.8-3.32,8.81-8.16,13.19-11.79.72-.6,1.89-.72,2.63-1.32,2.31-1.87,4.23-5.96,7.56-4.59Z"/>
  <path d="M543.7,149.98l-.25,3.15c-.85.15-5.76-2.26-6.96-2.85-2.31-1.15-17.6-9.2-18.26-10.01-.59-.72-1.07-2.54-.66-2.94,1.59-1.61,22.53,11.71,26.14,12.65Z"/>
  <path d="M405.79,168.87c-.18-1.22.02-1.94.62-2.99.48-.82,12.14-11.67,13.83-13.12,1.11-.95,5.8-5.37,6.93-3.62,2.16,3.33-5.34,6.76-6.95,8.2-1.92,1.72-12.23,13.72-14.43,11.53Z"/>
  <path d="M444.2,60.16c.1.19.88.2,1.02.71.56,1.99-.32,2.56-2.2,2.71-1.98-.37-8.07-15.37-9.45-18.1-.68-1.35-4.76-5.52-3.44-7.38,1.77-.68,2.65-.5,3.83,1.05,3.48,4.58,7.19,15.3,10.23,21.01Z"/>
  <path d="M414.33,120.22c-.81,1.29-26.65,3.47-30.24,3.95-.1-1.58-.22-3.17,1.67-3.26,7.97.12,18.8-3.53,26.31-3.34.77.02,1.43,0,1.97.66.38.38.45,1.73.29,1.99Z"/>
  <path d="M393.04,72.28l25.5,11.22,1.05,2.22-2.64.71-23.9-10.97c-1.51-.8-1.5-2.34-.01-3.17Z"/>
  <path d="M502.05,175.84c.07.15.73.27.98.79.73,1.49,3.72,8.2,2.68,9.33l-3.97-1.78c-1.39-6.53-7.74-15.12-8.91-21.19-.7-3.64,1.42-3.14,3.14-.48,2.06,3.18,4.22,9.47,6.07,13.34Z"/>
  <path d="M479.92,58.94c-.07.13-2.35,1.9-2.8.83-1.18-2.12.95-11.97,1.6-14.84.23-1.03,1.18-.94,1.31-1.46.75-3.02.63-7.8,1.87-10.5.95-2.06,3.19-.35,2.76,1.38l-4.74,24.59Z"/>
  <path d="M555.03,101.83v2.61c-3.81.25-29.76,4.02-30.9,2.64-.06-.08-.06-1.87,0-1.95.98-1.21,27.21-2.5,30.9-3.29Z"/>
  <path d="M421.11,730.02c-2.36-2.8.51-3.79,1.06-4.94,8.29-17.28,30.8-29.25,49.33-32.71,20.24-3.78,50.97,11.51,66.11,24.68,5.75,5.01,10.43,9.99,1.84,14.99-23.52,13.71-83.14,11.69-108.55,2.96-1.77-.61-8.86-3.88-9.79-4.99ZM475.99,694.89c-9.87,1.1-21.51,6.43-30.08,11.32,20.36,12.98,45.52,10.7,65.72-1.31-10.28-5.56-23.69-11.33-35.64-10.01ZM515.92,706.79c-13.8,6.5-27.56,12.73-43.31,11.49-10.18-.8-21.84-4.66-30.32-10.27-7.75,4.74-15.33,10.74-17.98,19.79.47,2.56,10.48,5.35,13.03,6.02,25.67,6.69,77.26,8.68,100.81-4.4,4.33-2.41,3.69-3.51.47-6.8-2.49-2.54-20.31-15.84-22.7-15.83Z"/>
  <path d="M439.85,596.97c16.26-1.21,33.47,5.63,44.44,17.62,3.75,4.09,6.68,7.85.62,11.66-7.29,4.58-39.05,5.12-48.57,4.74-8.8-.35-36.27-2.58-42.86-7.11-4.68-3.22-.38-9.91,2.74-12.68,8-7.13,32.85-13.42,43.63-14.22ZM473.51,609.91c-6.37-5.21-16.47-9.62-24.73-10.43-11.62-1.14-43.38,6.67-51.55,15.34-5.9,6.26-1.27,7.25,4.49,8.7,18.64,4.72,51.63,5.41,70.72,2.73,13.57-1.9,17.61-4.32,4.54-13.59-17.04,2.46-34.5,4.59-51.59.99-1.93-.41-12.18-3.09-11.7-5.38.45-2.14,6.24,1.1,7.74,1.45,17.24,4.03,34.77,3.25,52.09.17Z"/>
  <path d="M464.22,555.94c-5.69,2.58-12.38,3.68-18.62,4.05-5.07.3-28.38.28-31.26-2.98-3.52-3.98,7.1-12.75,10.31-14.68,5.19-3.13,9.46-4.41,15.69-4.08,9.02.48,22.64,8.03,23.89,17.69ZM460.36,554.7c1.8-1.87-6.99-8.51-8.6-9.47-12.98-7.73-27.16-3.22-34.8,9.14-.19,1.48.24.78,1,.98,2.64.68,7.68,1.2,10.49,1.36,10.69.61,21.4-.35,31.92-2Z"/>
  <path d="M89.41,713.96c10-1.21,22.81,2.31,28.7,11.04,4.11,6.08-.32,6.73-5.54,8.18-9.33,2.59-20.95,2.95-30.49,1.55-3.14-.46-15.3-2.3-13.96-6.49,1.98-6.19,15.05-13.51,21.29-14.27ZM116.51,728.88c-2.39-7.36-15.49-12.56-22.68-12.53-7.63.02-19.09,6.05-22.69,12.87,14.55,4.32,30.98,4.91,45.37-.33Z"/>
  <path d="M532.53,558.18c6.7-.81,10.87-.11,16.49,3.52,3.32,2.15,9.75,7.96,8.99,12.07-1.18,2.29-17.2,3.86-20.38,3.97-5.24.19-21.22-.91-25.31-3.68s1.91-6.98,4.26-8.82c4.53-3.57,10.15-6.36,15.94-7.06ZM514.93,571.79c8.24,2.27,16.78,3.16,25.34,2.67,1.88-.11,14.74-1.57,14.75-2.99-3.23-4.78-11.51-10.78-17.41-10.84-7.31-.08-18.55,4.9-22.69,11.16Z"/>
  <path d="M439.15,779c6.03-.95,12.87.65,17.85,4.19,2.15,1.53,7.05,6.67,5.68,9.45-2.51,5.12-27.24,4.19-32.47,2.87-14.54-3.68.9-15.24,8.94-16.51ZM459.7,791.98c-5.37-12.66-27.25-13.72-32.25-.39,10.34,3.65,21.67,2.39,32.25.39Z"/>
  <path d="M519.36,763.88c4.16-.71,8.14-.16,11.93,1.56,4.01,1.83,14.01,9.35,5.5,11.92-5.46,1.65-23.38,1.85-28.01-1.24-6.58-4.4,6.18-11.48,10.58-12.24ZM535.96,774.24c.35-1.9-.85-2.5-2.03-3.55-5.69-5.08-15.31-4.78-21.3-.38-1.58,1.16-3.58,2.69-.99,3.58,7.15,2.46,17.03,1.96,24.32.35Z"/>
  <path d="M259.42,755.41c5.98-10.27,22.7-10.76,28.28-.16,4.26,8.1-13.6,8.27-18.33,7.81-4.01-.39-13.1-2.25-9.95-7.65ZM262.46,758.46c3.1,1.71,22.75,2.16,22.98-.97-5.05-8.71-20.35-10.14-22.98.97Z"/>
  <path d="M418.12,671.88c2.16-.32,4.74-.35,6.9-.01,3.47.54,14.5,5.69,11.36,10.39-.69,1.03-11.25,2.56-13.15,2.63-3.3.12-17.21-.46-16.81-4.9,1.38-4.12,7.62-7.5,11.69-8.09ZM432.38,679.33c-5.11-5.2-11.16-6.44-17.83-3.15-.77.38-5.11,2.99-4.15,4.06,7.56,1.64,15.47,2.03,23,0,.24-.96-.59-.47-1.02-.91Z"/>
  <path d="M45.99,592.99c4.48-.7,8.91.11,12.5,2.96,9.76,7.75,2.2,11.46-6.72,12.02-3.3.21-17.95-.39-18.09-4.94-.15-4.86,8.11-9.39,12.31-10.05ZM36.96,603.34c5.4,1.18,11.23,1.82,16.79,1.34,3.52-.3,7.21-.47,4.54-4.59-4.97-7.66-18.51-4.98-21.32,3.25Z"/>
  <path d="M205.75,643.6c2.11-.33,5.57-.39,7.67-.1,3.69.51,11.51,5.39,9.28,9.81-2.02,4-25.04,3.15-27-.66-2.13-4.15,6.7-8.53,10.05-9.05ZM220.38,651.98c-3.37-7.98-16.67-6.51-21.68-.98,2.28,2.59,20.54,2.54,21.68.98Z"/>
  <path d="M354.33,643.6c5.02-.93,13.39,1.47,12.37,7.74-3.02,2.9-18.31,3.04-18.78-1.68-.29-2.96,3.87-5.59,6.42-6.07ZM363.05,650.01c-1.22-4.91-8.91-3.94-11.82-.98-.06,1.51,10.24,1.29,11.82.98Z"/>
  <path d="M525,646.91c.07-.3,1.65-4.33,2.1-5.43,1.16-2.84,7.2-15.05,11.5-12.18,1.18.79.6,1.19,0,2-1.08,1.49-3.8,2.67-5.28,4.58-4.77,6.15-5.59,15.86-6.23,23.35-4.85,3.12-2.73-9.72-2.1-12.32Z"/>
  <path d="M374.71,755.29c1.39-.28,2.7-.16,2.81,1.52-4.91,3.28-8.03,9.51-9.03,15.3-.5,2.89.86,6.16-1.81,8.03-.82-.67-1.42-1.21-1.63-2.31-.92-4.73,4.17-21.43,9.67-22.54Z"/>
  <path d="M168.21,738.98c3.18,3.23,6.92,11.35,6.86,15.88-.04,2.82-1.57,4.47-2.65,1.28-2.68-7.93-1.75-11.25-8.92-17.37-1.1-.94-8.79-4.63-3.91-4.64,2.7,0,6.73,2.94,8.62,4.86Z"/>
  <path d="M513.21,646.48c-3.31-3.78-4.65-3.49-8.78-6,4.81-3.41,11.83,2.85,13.91,7.11.85,1.73,4.08,11.73,1.52,12.27-2.27-.72-1.98-4.83-2.76-7.08-1.14-3.3-1.76-3.88-3.88-6.3Z"/>
  <path d="M508.18,509.54c2.54,2.44,3.97,10.42,4.82,13.78.14.54,1.14.48,1.25.95.34,1.51,1.12,8.14-.39,8.67l-2.19.04c-.8-6.33-1.45-12.18-3.86-18.16-.47-1.17-2.65-4.3-2.69-4.56-.26-1.71,1.91-1.84,3.06-.73Z"/>
  <path d="M187.51,735.47l-5.45,10.64c-1.72,2.25.32,12.87-3.41,11.69-1.86-.59-.86-9.48-.28-11.31.18-.57,1.04-.6,1.2-1.03,1.43-3.86,2.7-10.28,7.94-10Z"/>
  <path d="M57.99,549.44l-2.3-.65c-.84-8.21-4.69-14.23-11.18-19.06l.68-1.31c9,1.77,13.04,12.54,12.8,21.02Z"/>
  <path d="M64.47,548.68c-.1.16-1.85.8-2.14.73-2.07-.5-.87-9.35-.35-11.42.55-2.17,5.86-10.04,8.16-9.58,2.85.58-1.66,4.18-2.18,5.04-.95,1.57-2.23,4.1-2.7,5.85-.63,2.34-.54,8.99-.79,9.38Z"/>
  <path d="M49.44,682.22l-2.3-.66c-.89-5.35-2.44-12.29-6.45-16.22-1.2-1.17-4.37-1.11-3.74-4.15,9.19.15,12.3,13.65,12.48,21.03Z"/>
  <path d="M62.37,663.61c-.77,1.02-2.34,1.98-3.32,3.56-2.88,4.64-2.98,9.11-3.34,14.41-2.4,2.08-3.03-.67-3-2.94.07-4.65,2.67-13.6,6.62-16.45,2.13-1.54,5.03-1.22,3.04,1.42Z"/>
  <path d="M537.01,652.37c-.17.26-.84.41-1.23,1.1-.34.6-3.21,9.99-4.38,5.35-.55-2.18,2.75-8.91,4.28-10.73,1.36-1.62,8.76-7.67,10.81-6.3,2.21,1.48-4.07,4.2-5.27,5.26-1.78,1.56-2.93,3.39-4.21,5.32Z"/>
  <path d="M361.08,779.5h-2.61c-.51-5.08-.87-10.89-4.95-14.46-1.1-.96-3.62-1.31-3.64-2.95.81-3.25,3.94-1.1,5.61.32,4.46,3.81,5.92,11.51,5.59,17.09Z"/>
  <path d="M524.13,511.33c-1.63,7.21-4.89,14.05-3.94,21.69h-2.62c-.12-4.95.13-10.47,1.51-15.26.68-2.36,1.99-6.9,5.06-6.43Z"/>
  <path d="M375.95,775.97c-.15.22-.78.3-1.06.71-.69,1-.38,2.72-1.68,3.45-4.41,1.44.02-7.35,1.11-8.75,1-1.29,8.24-7.05,9.45-6.98,3,2.66-2.35,4.19-4.31,6.2-1.61,1.65-2.3,3.58-3.51,5.37Z"/>
  <path d="M506.39,533.01c-.54-4.34-4.04-8.35-7.86-10.23-2.36-1.17-4.67-.2-3.98-2.89,3.44-1.29,8.65,1.89,10.85,4.56,1.41,1.71,6.25,9.14.98,8.56Z"/>
  <path d="M352.94,579.93c-.46-.72-7.64-6.54-5.33-6.82,5.68.08,10.15,8.12,10.56,13.14.1,1.17.67,1.72-.71,2.64-1.59.33-3.37-7.17-4.52-8.95Z"/>
  <path d="M355.16,780.16c-4.35-.1-4.52-5.56-8.57-8.18-2.46-1.59-5.43-.65-4.57-4.3,1.89-1.97,15.44,7.87,13.14,12.48Z"/>
  <path d="M197.37,743.36c1.21,1.81-2.84,3.16-3.97,4.24-2.63,2.52-5.17,5.48-5.83,9.17l-2.03.39c-1.19-1.18,2.64-8.82,3.95-10.18.99-1.03,6.78-5.26,7.88-3.61Z"/>
  <path d="M364.37,588.23c-6.25,2.47-2.72-9.52-1.3-11.98,1-1.73,4.13-2.83,3.93.41-.16,2.49-4,7.85-2.63,11.56Z"/>
  <path d="M533.99,519.87c.42,2.74-2.45,3.23-3.97,4.9-2.5,2.75-2.32,4.89-3.62,6.9-1.05,1.62-3.78,2.01-3.47-.79.4-3.59,6.79-11.64,11.06-11.01Z"/>
  <path d="M64.29,676.69c-.23.3-.8.47-1.23,1.1-.97,1.41-.78,5.3-3.44,3.8-2.33-3.85,7.05-13.24,9.85-12.5.45.12,1.17,1.03,1.02,1.63-.1.42-4.86,4.2-6.2,5.97Z"/>
  <path d="M70.45,548.76c-4.34.47-1.72-3.92-.5-6.09,1.68-2.98,4.29-6.25,8.03-6.34,2.9,2.15-2.46,3.79-4.11,5.66-1.48,1.68-2.7,4.64-3.42,6.78Z"/>
  <path d="M369.54,588.13c-.58.35-1.77,0-2.53.09-.43-4.34,5.33-13.03,10.13-11.78.47.12,1.04.6.72,1.27-.3.64-4.17,2.4-5.59,4.28-1.16,1.53-2.44,5.97-2.73,6.14Z"/>
  <path d="M272.07,502.54c-9.7,17.08-27.16,36.81-44.67,46.37-.93.51-5.76,3.17-6.36,2.51-2.09-2.32,4.48-4.52,6-5.5,20.56-13.29,34.57-30.07,45.95-51.3.92-1.71,4.6-10.83,5.22-11.25,1.27-.88,2.37.73,1.88,1.85-2.54,5.84-4.88,11.77-8.03,17.32Z"/>
  <path d="M299.77,272.23c2.97-.46,10.59-.53,13.49,0,2.57.47,9.91,4,9.02,7.37-.71,2.7-3.3-.87-4.37-1.51-5-2.95-13.11-3.14-18.66-1.78-2.42.59-7.02,4.2-7.88.68,0-2.17,6.53-4.47,8.4-4.77Z"/>
  <path d="M433.17,355.31c1.2-1.28,6.58-8.85,7.14-8.97.82-.17,1.72.74,1.63,1.6.01.8-1.54,3.67-2.08,4.53-6.5,10.39-28.87,27.7-39.52,34.76-1.01.67-5.86,4.66-6.39,2.15-.39-1.89,4.55-4.12,5.58-4.93,11.48-9.07,23.62-18.45,33.64-29.14Z"/>
  <path d="M512.81,401.02c.32.56.1,1.24.14,1.84-1.15.11-2.16.06-3.26-.36-9.4-3.55-25.24-18.43-31.17-26.65-.57-.79-1.27-1.46-1.07-2.56,4.59-.82,6.43,4.71,9.18,7.57,3.13,3.24,6.93,5.74,9.87,9.19l16.3,10.96Z"/>
  <path d="M489.03,460.98c.77.63,2.86,3.46,3.31,3.6,1.19.37,2.83-.65,4.4-.55,5.14.34,12.09,3.38,9.69,9.55-2.26,2.91-19.95,2.52-22.05-.45-.37-.52-.1-1.76-.76-1.95-2.98-.86-16.78,1.67-17.94-1.7-1.26-3.67,5.96-10.67,9.25-11.62,5.7-1.64,9.76-.44,14.09,3.12ZM469.57,467.94c3.18.32,19.16,1.34,18.36-3.52-5.87-7.45-15.33-4.85-18.36,3.52ZM503.75,471.88c1.71-1.67-4.29-4.35-5.63-4.56-4.04-.63-7.27,1.06-10.8,2.6-1.32,1.87,5.11,2.52,6.25,2.61,3.56.26,6.71-.34,10.18-.65Z"/>
  <path d="M409.35,481.49c.11.21.8.33.99.78.76,1.78,2.42,8.32-1.3,5.76-.49-.34-2.44-7.87-5.2-10.58-1.24-1.21-4.67-2.04-3.96-3.92.77-2.03,3.98.23,4.92.98,2.53,2.01,3.22,4.31,4.54,6.98Z"/>
  <path d="M417.96,471.23l1.64,1c-2.57,4.4-2.81,8.25-3.27,13.15-.11,1.16.23,2.13-1.01,2.92-3.88-2.11-.03-16.52,2.64-17.07Z"/>
  <path d="M430.77,476.49c.42,2.88-2.8,3.72-4.2,5.33-1.71,1.97-2.04,3.53-3.17,5.38-1.33,2.18-3.21,1.22-3.14-1.12.06-1.98,7.17-10.59,10.51-9.58Z"/>
  <path d="M38.37,808.33c-2.63-4.13,5.49-10.38,8.76-11.75,8.05-3.37,17.86-2.07,24.04,4.26,1.38,1.41,4.15,5.03,2.95,6.94-2.94,4.69-33.65,3.87-35.76.56ZM71.14,806.44c-4.5-11.33-24.58-11.92-29.59-.34.62,2.91,25.99,2.69,29.59.34Z"/>
  <path d="M47.86,375.95c1.45-.43,3.85,1.21,5.18,1.97,6.55,3.71,14.09,10.51,20.52,14.98,4.51,3.13,11.15,6.45,15.3,9.68,1.95,1.52,1.65,3.16-.8,2.8-1.83-.27-16.96-10.57-19.76-12.48-7.13-4.87-13.64-10.66-21.17-14.99-.8-.66.1-1.77.73-1.96Z"/>
  <path d="M67.41,469.68c-.46-.29-.31-1.47-1.84-1.75-5.78-1.07-15.9.4-22.4.04-3.52-.2-7.42-1.16-11-1.34-3.47-1.32,2.74-12.72,4.85-14.72,8.09-7.66,19.36-6,28.12-.66,2.63,1.6,8.26,7.6,9.76,8.03,1.76.5,7.74-.89,11.38-.25,6.04,1.05,16.26,9.37,6.14,12.12-5.26,1.43-20.46,1.36-25.02-1.47ZM34.32,464c3.21.98,6.02-.02,8.85-.03,7.25-.03,14.5.07,21.75,0,3.85-.04,3.71,1.11,6.86-2.93-10.42-13.58-32.9-17.53-37.47,2.95ZM93.5,467.94c-.23-4.26-6.44-6.38-10.17-6.59s-9.4.94-11.9,3.92c-2.12,2.53-.96,2.67,1.53,3.14,6.9,1.28,13.72,1.1,20.54-.47Z"/>
  <path d="M314.84,208.74c-4.92,4.68-27.97,4.53-34.3.89-1.18-3.33.11-5.18,3.45-5.77,7.19-1.27,15.74.28,23.88-1.11,2.46-.42,5.42-2.78,7.59-1.08,2.31,1.82,1.21,5.33-.61,7.07Z"/>
  <path d="M353.01,218.66c-2.54,2.82-11.36,2.11-14.75.96-4.13-1.39-12.4-6.26-10.63-11.54,1.28-3.84,9.11,1.73,11.11,2.52,3.72,1.46,10.97,1.92,13.6,3.49,1.87,1.12,2.07,3.01.67,4.58Z"/>
  <path d="M300.42,220.98c4.05,3.72.09,17.47-6.59,15.46-7.96-2.39,1.16-20.45,6.59-15.46Z"/>
  <path d="M344.47,228.2c3.38,3.23,2.07,13.78-2.94,14.83-9.66,2.02-3.15-20.65,2.94-14.83Z"/>
  <path d="M232.22,233.29v-10.85c0-2.81-5.99-7.85-2.89-8.82s5.63,5.84,6.02,8.32c.47,3.06,1.48,12.05-3.13,11.34Z"/>
  <path d="M155.57,56.2c5.6,7.07,5.88,14.1,4.33,22.94,1.71,5.12,4.79-1.32,7.28-3.23,12.5-9.59,29.73-2.36,31.48,13.16,5.85-.31,10.05-2.16,15.83.59,4.71,2.24,7.22,8.97,4.24,13.46-1.99,3.01-10.21,4.38-13.76,4.65-26.7,2.01-57.84.01-84.81-.05-24.62-.06-52.1,1.62-76.32.05-2.27-.15-11.37-1.02-12.05-3.1-.09-7.89,10.42-9.1,16.4-9.7.89-.63,1.41-8.11,2.43-10.08.41-.8,4.35-6.33,5.15-7.33,10.16-12.76,29.12-14.88,40.39-2.36.88.98,2.1,5.18,4.62,3.34,1.21-.88-.15-7.47.05-9.83,2.33-26.62,37.89-33.8,54.76-12.51Z" fill="#fff"/>
  <path d="M524.88,256.85c3.02,1.92,4.76-1.94,6.9-3.1,2.58-1.4,6.75-1.73,9.62-1.24,4.17.71,10.27,6.24,10.38,10.71.05,1.92-1.99,4.43-.71,5.25,1.8,1.09,3.31-.73,4.98-.96,4.96-.68,11.91,1.2,12.75,6.91,1.11,7.52-6.16,8.44-12.09,8.86-45.15,3.15-93.92-2.45-139.44,0-7.33-.13-3.86-6.66.83-8.44,4.29-1.62,8.96-.53,13.37-.41,1.15-.86.37-3.25.65-4.52.06-.25,1.87-3.81,2.23-4.45,5.63-9.93,18.92-13.08,28.86-7.73,2.34,1.26,4.29,3.68,6.07,5.11,3.91,3.14,2.16-5.34,2.45-8,3.36-30.22,53.78-30.86,53.15,2.02Z" fill="#fff"/>
  <path d="M120.55,187.18c3.95,1.97,6.41-2.67,10.74-3.2,11.61-1.44,20.3,6.43,18.16,18.35,2.25,1.39,3.51-1.33,5.38-2.04s5.17-.78,7.23-.36c3,.62,9.3,6.5,6.23,9.55s-24.34,1.95-29.78,2.1c-30.17.81-66.14,2.79-95.99.71-1.2-.08-6.67-.72-6.92-1.77-.12-2.2.43-4.27,2.48-5.35,2.91-1.53,11.84-1.78,12.73-2.39.98-.67.31-2.44.65-3.17.59-1.26,2.74-5.11,3.61-6.37,5.34-7.68,16.32-8.55,22.97-2.03,2.45-1.66.76-4.44,1.06-7.48,2.39-24.52,43.89-23.13,41.44,3.44Z" fill="#fff"/>
  <path d="M502.87,89.56c13.48,17.77,6.75,44.44-11.68,55.9-29.84,18.56-71.23-6.01-63.26-41.55,7.39-32.94,54.74-40.98,74.94-14.35Z" fill="#fff"/>
  <path d="M515.92,706.79c2.39,0,20.21,13.29,22.7,15.83,3.22,3.29,3.86,4.4-.47,6.8-23.55,13.08-75.14,11.09-100.81,4.4-2.56-.67-12.56-3.46-13.03-6.02,2.65-9.05,10.23-15.05,17.98-19.79,8.48,5.61,20.14,9.47,30.32,10.27,15.75,1.24,29.51-4.99,43.31-11.49Z" fill="#fff"/>
  <path d="M475.99,694.89c11.95-1.33,25.35,4.45,35.64,10.01-20.2,12.01-45.36,14.3-65.72,1.31,8.58-4.89,20.22-10.22,30.08-11.32Z" fill="#fff"/>
  <path d="M473.51,609.91c-17.32,3.07-34.85,3.86-52.09-.17-1.5-.35-7.28-3.59-7.74-1.45-.49,2.29,9.77,4.97,11.7,5.38,17.09,3.6,34.55,1.47,51.59-.99,13.07,9.27,9.03,11.68-4.54,13.59-19.09,2.68-52.08,1.98-70.72-2.73-5.76-1.46-10.39-2.45-4.49-8.7,8.17-8.67,39.94-16.48,51.55-15.34,8.26.81,18.36,5.21,24.73,10.43Z" fill="#fff"/>
  <path d="M460.36,554.7c-10.51,1.66-21.23,2.61-31.92,2-2.82-.16-7.85-.67-10.49-1.36-.76-.2-1.18.5-1-.98,7.64-12.36,21.83-16.87,34.8-9.14,1.61.96,10.41,7.6,8.6,9.47Z" fill="#fff"/>
  <path d="M116.51,728.88c-14.39,5.24-30.82,4.65-45.37.33,3.6-6.82,15.06-12.84,22.69-12.87,7.19-.02,20.29,5.17,22.68,12.53Z" fill="#fff"/>
  <path d="M514.93,571.79c4.14-6.26,15.37-11.24,22.69-11.16,5.89.06,14.18,6.06,17.41,10.84,0,1.42-12.86,2.88-14.75,2.99-8.56.49-17.11-.4-25.34-2.67Z" fill="#fff"/>
  <path d="M459.7,791.98c-10.58,2.01-21.91,3.27-32.25-.39,5.01-13.33,26.89-12.28,32.25.39Z" fill="#fff"/>
  <path d="M535.96,774.24c-7.29,1.61-17.17,2.11-24.32-.35-2.59-.89-.59-2.42.99-3.58,5.99-4.4,15.61-4.69,21.3.38,1.18,1.05,2.38,1.65,2.03,3.55Z" fill="#fff"/>
  <path d="M262.46,758.46c2.63-11.11,17.93-9.68,22.98-.97-.23,3.13-19.88,2.69-22.98.97Z" fill="#fff"/>
  <path d="M432.38,679.33c.43.44,1.25-.05,1.02.91-7.53,2.04-15.44,1.65-23,0-.95-1.07,3.38-3.68,4.15-4.06,6.67-3.29,12.73-2.06,17.83,3.15Z" fill="#fff"/>
  <path d="M36.96,603.34c2.82-8.23,16.36-10.91,21.32-3.25,2.67,4.12-1.02,4.29-4.54,4.59-5.55.47-11.39-.16-16.79-1.34Z" fill="#fff"/>
  <path d="M220.38,651.98c-1.14,1.56-19.4,1.62-21.68-.98,5.01-5.53,18.31-7,21.68.98Z" fill="#fff"/>
  <path d="M363.05,650.01c-1.57.31-11.88.52-11.82-.98,2.91-2.96,10.6-3.93,11.82.98Z" fill="#fff"/>
  <path d="M469.57,467.94c3.03-8.37,12.49-10.97,18.36-3.52.81,4.86-15.17,3.84-18.36,3.52Z" fill="#fff"/>
  <path d="M503.75,471.88c-3.47.3-6.62.91-10.18.65-1.14-.08-7.57-.74-6.25-2.61,3.54-1.54,6.76-3.23,10.8-2.6,1.34.21,7.34,2.88,5.63,4.56Z" fill="#fff"/>
  <path d="M71.14,806.44c-3.6,2.35-28.97,2.58-29.59-.34,5.01-11.58,25.09-11,29.59.34Z" fill="#fff"/>
  <path d="M34.32,464c4.57-20.49,27.04-16.53,37.47-2.95-3.15,4.04-3.01,2.89-6.86,2.93-7.25.07-14.5-.03-21.75,0-2.83.01-5.64,1-8.85.03Z" fill="#fff"/>
  <path d="M93.5,467.94c-6.82,1.57-13.64,1.76-20.54.47-2.5-.46-3.65-.61-1.53-3.14,2.5-2.98,8.18-4.13,11.9-3.92s9.94,2.33,10.17,6.59Z" fill="#fff"/>
</svg>