<?xml version="1.0" encoding="UTF-8"?>
<svg id="Camada_1" xmlns="http://www.w3.org/2000/svg" version="1.1" viewBox="0 0 595.28 841.89">
  <!-- Generator: Adobe Illustrator 29.0.0, SVG Export Plug-In . SVG Version: 2.1.0 Build 186)  -->
  <path d="M.14,841.29V-.06h595v841.34H.14ZM590.54,3.89H4.08v153.15c15.97-11.66,39.08-3.5,39.45,17.09,3.11-1.33,4.93-4,8.4-5.07,9.04-2.79,19.68,2.63,19.21,12.96h9.85c6.93-21.46,15.52-43.92,26.87-63.54,1.14-1.97,2.57-2.94,3.38-4.82-15.43,7.08-27.87,20.09-37.35,33.94-1.6,2.34-7.86,18.16-10.77,11.15-4.11-9.9-1.01-24.61,3.95-33.71,6.01-11.02,16.14-18.75,27.07-24.52-14.52.16-31.03,5.86-43.31,13.54-3.51,2.2-9.86,6.75-12.91,9.44-1.06.93-8.39,11.95-10.08,7.46-1.3-3.45,3.39-15.9,5.24-19.53,10.99-21.54,29.65-28.64,51.52-33.95.98-.24,1.17.5.99-1.29-11.77-2.13-23.75-2.72-35.65-1.14-3.6.48-19.86,5.27-21.56,4.11-.74-.5-.81-1.12-.59-1.94.16-.61,7.77-8.01,8.85-8.89,17.64-14.52,42.58-20.8,62.99-7.81,1.2.76,8.35,7.71,8.97,7.12-3.93-15.54-18.05-24.95-30.28-33.82-2.98-4.38,9.29-2.58,11.48-2.26,17.21,2.51,37.16,14.46,41.83,32.14,2.71-.68,2.81-3.71,4.32-5.86,11.6-16.48,30.88-25.67,51.21-23.71,1.88.18,7.78.43,5.96,3.3-.47.73-12.87,6.86-15.14,8.52-4.25,3.11-7.52,7.47-11.86,10.49l-8.19,9.22c26.82-14.31,64.75,8.63,65.43,38.14-.53.8-1.01.7-1.84.52-.88-.19-11.99-8.56-14.93-10.08-9.24-4.78-20.78-8.35-31.22-8.89-1.21-.06-19.06.13-16.79,1.99,28.93,5.59,45.77,27.06,42.75,56.88-.19,1.93-.57,7.49-3.69,4.96-9.49-21.59-28.31-38.37-50.89-45.4-.57.51,9.16,10.58,9.86,11.67,8.36,12.95,9.17,30.2,3.78,44.37-1.26,3.31-4.35,11.7-8.75,9.06-1.5-18.59-6.49-38.93-21.98-50.64-4.01,14.43-9.59,28.43-13.24,42.97-2.46,9.77-5.23,21.2-7.08,30.52-1.35,6.76-1.71,13.79-3.35,20.51,18.73-5,41.06-20.87,60.8-19.04,13.73,1.27,28.94,14.92,41.49,20.37,13.75-7.77,28.85-11.63,44.32-6.58,4.93-35.67,51.11-45.29,77.27-25.02,3.61-5.75.75-10.66,2.83-16.83,8.52-25.24,45.12-36.23,68.28-25.31,24.97,11.77,26.87,34.26,29.98,58.76l8.35,19.58c1.8-13.58,2.72-27.37,4.64-40.93,2.18-15.37,7.43-33.62,6.53-50.09-.73-13.3-10.8-11.65-11.84-.04-.57,6.29,5.79,22.33-2.44,23.91-11.26,2.16-12.62-18.01-11.99-25.18,2.56-28.83,39.03-29.84,40.11-.04.71,19.51-5.89,48.9-8.61,68.35-.35,2.47-1.37,9.24-1.28,11.21.11,2.45,7.65-1.1,9.25-1.4-.21-10.37.39-22.64,3.3-32.6.13-.44,3.07-3.66,3.1-5.56.02-.97-1.3-2.06-1.21-4.46.21-6.13,3.42-6.64,5.96-9.88,18.95-24.11,49.91-26.12,74.61-8.88l6.24,6.57c-.33-7,10.23-32.75-2.95-32.77-8.9-.01-9.24,14.27-19.89,9.93-8.35-3.4,2.49-16.52,7.11-19.51,14.17-9.17,33.44-.7,34.17,16.37.28,6.48-2.27,11.99-3.28,17.26-3.49,18.25-6.69,37.1-11.15,54.6-.7,2.77-.72,5.99-2.03,8.68,12.36-.74,23.06,7.35,32.87,13.81V80.79h-129.19c-6.42,0-6.37-7.06-2.65-11.19,5.66-6.29,13.74-4.82,21.38-3.92.34-13.16,10.9-21.53,23.94-19.66,3.43.49,6.12,3.1,9.42,3.46,7.36-16.56,32.9-23.51,42.57-5.65,5.62-3.29,11.48-3.23,17.06.2,3.7-6.67,10.28-8.34,17.47-7.93V3.89ZM130.35,72.89c-1.85-23.06-23.84-37.05-45.39-38.76l13.72,11.61c7.61,7.55,14.2,18.1,14.55,29.14-4.75.23-7.01-5.31-10.51-8.22-21.54-17.91-50.1-10.08-68.38,8.21,18.9-4.57,37.76-5.67,56.68-.46,1.24.34,15.65,4.71,13.01,7.04-30.53-5.77-65.01,12.5-72.32,43.38,5.55-3.84,10.51-8.75,16.24-12.35,11.04-6.94,25.31-12.33,38.2-14.4,2.9-.47,18.47-2.84,19.2-.52.82,2.63-6.6,3.93-8.78,5.02-20.87,10.44-34.48,27.2-30.66,51.83,12.02-20.69,29.69-40.28,53.24-47.32l-1.96,3.94c1.71-.35,3.06-.84,4.89-.67,11.32,1.07,25.86,22.1,28.3,32.88l4.27,21.02c12.94-21.49,3.93-50.58-17.11-62.79l.43-1.68c25.44,2.42,47.92,20.96,60.07,42.78,4.77-25.06-14.86-47.82-38.76-52.27-5.54-1.03-10.89-.28-15.79-2.29,2.46-2.61,7.03-3.62,10.48-4.3,23.53-4.64,47.35,1.38,66.43,15.48-8.84-28.25-38.21-44-65.66-28.52-.98.55-14.14,11.02-8.98,2.85s23.16-24.29,31.33-30.46c2.16-1.63,5.64-3.03,7.65-4.8.46-.4,1.24,0,.83-1.51-19.15-1.3-39.74,8.7-48.76,25.85-1.2,2.28-3.21,12.29-6.43,10.28ZM462,77.51h128.53v-38.78c-6.74-.68-9.65.75-14.15,5.24-1.58,1.58-1.21,3.98-3.93,4.04-2.12.04-2.53-2.94-5.89-3.39-4.73-.64-7.72.47-11.72,2.58-4.2-4.21-3.81-7.42-10.09-9.7-11.07-4.03-20.89,1.06-26.83,10.47-.76,1.2-2.05,5.7-2.79,5.91-2.58.73-5.09-2.62-7.42-3.67-13.85-6.3-26.62,5.27-25.67,19.41-6.98-2.36-22.07-4.36-22.26,6.12.21.62,1.64,1.64,2.21,1.77ZM565.31,110.61c-4.43-4.33-13-5.67-18.86-3.89-5.15,1.56-16.21,10.48-12.15,16.81,8.7,1.79,7.86-10.4,18.89-9.74,13.3.8,9.44,16.51,7.78,25.18-3.78,19.69-9.34,40.9-13.2,60.46-3.46,17.53-6.07,35.32-9.18,52.92l7.12-1.1,24.42-122.82c.54-6.21-.12-13.21-4.83-17.82ZM456.84,111.92c-12.23-14.16-28.98-.06-29.99,15.88-.28,4.43,1.43,20.81,8.17,20.05,5.44-.61.78-10.26.44-13.58-.65-6.28.29-18.88,8.84-19.25,12.24-.53,9.48,18.92,8.73,26.47-1.99,20.08-6.56,41.51-9.09,60.7-.53,4.03-2.5,20.32-1.39,22.93.64,1.51,4.72,4.85,5.65,6.84,3.19-21.65,4.84-43.54,7.59-65.25.06-.51,1.19-.26,1.34-1.42,1.6-12.54,7.75-44.08-.29-53.38ZM107.96,125.49l15.12,2.98c1.13-2.39,5.38-13.16,4.29-14.83-11.82-5.38-15.22,3.04-19.42,11.85ZM122.42,131.41l-15.81-3.66-6.55,14.17c5.82,1.18,11.7,4.07,17.79,3l4.56-13.5ZM553.06,164.27c1.14-7.99,2.81-11.63-3.6-17.76-15.13-14.46-45.32-15.29-62.35-3.81-3.01,2.03-5.23,5.41-8.33,7.12l.33,1.31c25.04-5.33,51.74,1.38,73.95,13.14ZM421.19,165.31c-14.98-34.73-64.35-34.6-83.1-3.99,31.9-17.42,58.8,2.2,86.43,16.76.67-4.63-1.61-8.79-3.33-12.77ZM117.17,148.5l-19.69-3.92-5.22,16.34,20.24,4.6,4.68-17.01ZM473.73,155.95c-.91.91-2.4,4.12-2.22,5.36l1.98,2.04c25.99-2.19,52.21,2.88,75.32,14.73,1.91-.12,3.05-7.55,2.79-9.38-9.88-8.4-24.34-12.72-37.2-14.76-7.98-1.27-35.13-3.52-40.68,2.02ZM4.08,161.97v81.83c3.81,1.92,5.21-2.6,9.05-3.15,3-.44,4.58,1.12,7.86,0,.5-.17,8.95-4.76,9.35-5.11,2.3-1.99,1.18-7.44,7.76-8.69,2.13-.4,3.97.55,5.03.35.85-.16,2.85-2.92,4.98-3.47,3.1-.8,5.84.48,7.5.17.96-.18,2.82-2.65,5.38-3.07,4.38-.71,6.24,1.06,10.14,1.92,1.3-13.45,5.39-25.61,9.22-38.44-4.01-1.19-7.76.73-10.85,2.94-2.06-5.18-.04-10.22-5.81-13.92-9.06-5.82-15.97,1.14-21.81,7.35-1.8-.41-.67-6.98-1.03-8.72-.08-.39-2.42-6.13-2.89-7.08-6.34-12.81-24.88-12.86-33.89-2.93ZM432.36,211.99c-4.16-9.74-6.14-19.46-7.18-29.97-24.16-11.45-45.1-30.53-73.97-22.69-3.05.83-20.05,7.04-16.81,11.55l2.57.57,34.25-7.84c7.98,7.05,17.13,12.22,27.86,13.93,1.08,3.63,3.86,13.76,6.98,15.69,2.73,1.69,12.04-2.57,13.48,5.59,1.96,11.06-5.16,16.75-15.67,16.13-.97,6.68-5.01,11.82-9.62,16.38-.99,1.62,1.42,3.65,2.65,4.58,6.66,5.07,16.21,2.8,23.66,6.58l-2.94-9.55,1.87-.22c1.96,3.02,4.57,9.53,6.99,11.73,2.1,1.91,6.98,3.67,9.49,5.64,7.04,5.5,14.45,13.99,17.16,22.62,12.34-6.13,7.56-21.55.63-30.55-8.98-11.67-14.98-15.13-21.41-30.18ZM110.34,176.53c.32-1.26,1.86-7.33.93-7.99l-19.99-4.87c-1.4,2.96-7.81,16.96-6.92,19.24l22.5,5.05c.99-.3,2.06-8.91,2.49-10.67.1-.43.95-.58,1-.76ZM486.66,203.71h10.19c4.91,0,18.1,8.88,20.38,13.79,15.74-9.1,18.27-25.33,17.44-42.26-15.08-6.74-34.39-10.28-51.01-9.69-2.18.08-8.13.33-9.83.69-3.84.8-5.05,16.99-5.61,20.57-.08.5-1.19.24-1.35,1.41-.97,7.46-.55,16.25,2.15,22.93l1.5,1.1c1.41-3.58,11.81-6.91,12.85-8.2.74-.92,3.6-12.38,5.77-15.95.58-.95,7.1-9.35,7.7-9.36.3,0,1.5,1.3,1.38,2-.4,2.23-15.18,19.46-11.57,22.97ZM398.15,187.03c-1.07-2.07-.51-5.03-2.24-6.64-1.36-1.27-8.51-2.68-11.18-3.94-4.9-2.31-10.67-6.11-14.92-9.45-1.79-.47-25.7,4.96-27.13,6.13-.19.15-2.5,3.89-2.57,4.13-4.94,16.54-7.78,50.08,11.79,58.31,20.8,8.75,46.42-1.48,50.05-24.53.65-1.11,8.72,3.09,13.08-2.39,2.2-2.77,3.28-9,.03-11.23-3.05-2.1-4.16-.07-6.88-.3-4-.34-8.31-6.8-10.01-10.09ZM324.92,208.31c-.53-5.32,4.6-18.88,2.95-22.99-1.25-3.09-13.39-8.63-16.74-9.55-23.43-6.43-48.55,4.58-55.89,28.25,13.36,1.61,24.23-8.63,35.18-14.16,9.46,8.75,22.34,14.4,34.52,18.44ZM341.1,230.25c-13.79-17.4-3.77-36.07-2.82-54.3.19-3.68-3.35-.8-4.21,1.08-3.19,6.96-2.26,18.12-5.82,24.54-3.15,15.6-1.34,29.42,7.29,42.8l14.36-5.83c-3.47-2.7-6.03-4.78-8.81-8.28ZM106.65,191.22l-23.64-5.89-5.29,21,26.29,3.95,2.64-19.06ZM317.27,251.26c4.84-7.52,8.31-19.23,6.71-28.53-.28-1.61-4.05-11.9-5.01-12.74-1.69-1.47-11.25-4.66-14.13-6.25-5.24-2.88-11.24-6.69-15.75-10.52-7.46,6.26-16.37,10.46-25.38,14.04-4.86,25.3-3.69,62.83,31.86,58.81,10.39-1.17,16.38-6.54,21.69-14.81ZM244.58,239.99c-17.45-9.96-33.81-21.99-51.35-31.81-6.43-3.6-18.16-10.71-25.17-11.64-19.89-2.65-42.56,14.14-61.64,18.45l-1.08,3.84c10.38-5.06,24.31-4.56,26.3,9.21,11.34-3.68,22.94-2.13,24.99,11.15,7.07-.85,12.33,5.44,11.82,11.85l71.99-.66c2.26-.57,4.93-8.91,4.14-10.38ZM590.54,254.98v-32.54c-9-8.62-20.33-15.08-32.86-16.77l-5.98,31.16c4.3,1.77,8.78,3.27,12.74,5.79,3.14,2,11.5,10.77,12.97,11.35.68.27,12.66,1.47,13.13,1ZM467.19,229.78c-4.14-8.1-2.53-13.54-2.53-22.16l-10.78,2.09-2.06,19.63c3.41.09,7.99-.34,11.2.96s.28,3.11,5.24,1c.61-1.58-.91-1.22-1.06-1.53ZM249.07,229.77c1.58-5.85,1.18-12.68,3.34-18.54-12.79-7.51-29.2-2.22-41.22,4.64l33.96,21.29,1.41-1.05c-.04-1.94,2.27-5.47,2.51-6.34ZM260.49,207.65c-.15-.15-3.64-.12-4.19.09-1.33.5-4.6,23.35-5.86,27.66-.69,2.35-2.15,4.2-2.53,5.39-4.66,14.54-14.92,35.95-1.46,48.29,2.13.34,6.54-7.63,8.15-9.42,5.54-6.16,13.56-10.97,21.67-12.85-1.17-2.01-3.96-2.54-5.58-3.94-12.72-10.95-13.35-34.09-11.56-49.66.03-.3,2.89-4,1.37-5.55ZM103.36,212.91l-26.3-3.95-2.64,13.15c2.35-.16,4.41,0,6.58.98,2.47,1.1,3.27,3.63,3.91,3.95.4.2,3.37-.51,5.31-.02,4.12,1.04,4.31,6.05,10.01,2.98l3.12-17.09ZM324.92,211.6c-.11-.12-1.44.06-1.97,0l.66,2.62c1.59,1.02,1.67-2.22,1.3-2.63ZM503.75,226.05c2.98-2.94-13.32-11.77-19.9-7.25-.68.47-2.44,3.5-2.46,4.3-.14,1.34.06.87.98.99,6.83.92,14.47,1.12,21.39,1.96ZM148.72,251.03h15.45c3.54-8.63-6.03-8.47-11.89-9.16,1.28-15.16-11.39-13.3-21.97-10.85-3.68-10.2-5.86-12.81-17.23-11.35-8.32,1.07-9.12,3.56-9.44,11.67,1.21,1.69,5-.77,7.2-.65,4.1.21,6.98,3.87,9.43,4.45,2.81.66,5.54-.58,9.22.63,4.22,1.39,6.74,5.78,8.06,6.4,4.7,2.23,10.09-.79,11.18,8.87ZM95.26,248.84c5.45-5.1-2.69-8.45-3.43-10.32-.82-2.08,3.25-4.79-.99-7.51-3.62-2.32-5.57.3-8.05-.46-2.09-.64-1.06-3.86-5.03-4.88s-6.22.83-8.27.79c-1.27-.03-2.83-2.34-5.91-2.45-5.33-.19-6.27,3.71-7.3,3.96-.39.09-4.71-1.93-7.81-1.24-2.51.55-3.51,3.87-4.07,3.96-1.68.29-3.87-1.55-7.28-.2s-2.77,5.57-4.29,7.22c-.94,1.02-17.01,5.37-10.96,9.66s16.4-5.81,18.67-5.59c2.97.29,1.98,8,7.41,8.45,2.73.23,5.82-2.49,7.09-2.49,2.49.01,3.5,6.09,11.3,2.76,1.23-.53,2.49-2.51,3.14-2.58,1.22-.12,4.06,3,6.59,3.14,3.79.2,5.92-3.04,7.34-3.22s6.99,5.52,11.83.99ZM539.25,232.63l.66-5.26c-.94,1.04-5.52,3.14-3.49,4.61l2.83.65ZM462.99,233.29c-3.68-.49-7.63-2.21-11.21-.25-.62,1.96,4.09,8.16,5.64,7.99l5.57-7.74ZM143.78,248.08c-3.77-4.42-6.24-1.51-8.2-2.61-.58-.33-3.6-4.19-5.32-5.24-6.19-3.79-6.22-.94-10.76-1.68-1.76-.28-3.86-3.3-6.1-3.81-3.25-.73-6.22.73-8.38.5-1.91-.2-5.47-3.72-8.94-1.67-3.31,6.85,5.43,5.08,4.62,12.46-.59,5.45-8.96,6.66-8.53,8.61,5.88,4.78,14.03,9.47,9.11,18.32-3.54,6.38-12.27,2.44-13.03,3.07-4.58,12.91-17.2,17.94-30.27,18.71,2.34,5.01,5.84,2.4,9.46,3.01,3.14.53,9.55,2.93,12.45,2.6.26-.03,1.48-2.86,3.08-1.69l.08,20.97c.81,2.2,9.47,2.28,11.45,1.12,1.25-1.67.77-12.49,1.73-15.36.84-2.52,6.72-2.93,4.1-9.68.95-1.33,4.64.25,6.56,0,6-.81,7.11-9.75,7.96-9.81,2.85,4.02,7.29,4.81,10.48.6,1.87-2.47,1.31-6.58,4.97-6.53.58,1.57-.89,4.36-.57,5.48.36,1.25,7.91,3.88,2.54,7.99l1.32.98c-2.88-.39-1.01,7.31.32,7.24,1.8-2.27,11.09-8.25,11.85-9.86,1.76-3.74-1.38-8.58-1.04-10.12.09-.41,4.78-1.47,5.16-6.14.32-3.94-3.12-6.05-3.12-6.42,0-.4,3.61-2.62,3.15-7.05-.42-4.01-4.31-5.62-4.48-6.23-.78-2.73,1.12-4.51-1.64-7.74ZM470.12,233.36c-2.58-1.26-10.03,7.78-10.3,10.28-.17,1.62,2.5,6.88,2.98,9.23,1.87,9.01.49,17.89-7.5,23.44,3.63,6.68,3.96,14.63,5.37,22.08l4.97-1.79c-.75-11.36-2.43-24.64,4.25-34.37,1.51.95.61,1.43.55,2.5-.23,4.42-1.91,9.1-2.18,13.61-.39,6.44,1.91,34.78,5.6,39.07,5.65,6.58,38.21,8.79,46.85,6.46l6.7-34.37c-.25-2.05-3.19-2.54-4.22-4.32s-.65-3.93-1.39-5.18c-.7-1.18-3.85-1.87-4.83-3.71-1.88-3.54.68-11.63,3.21-14.4,2-2.18,5.78-2.49,6.42-3.11.54-.52.59-3.13,2.75-4.81,1.67-1.29,4.32-1.28,5.24-2.64,1.2-1.76,2.73-12.67,3.71-15.44-8.37-5.25-5.88,4.2-10.25,9.56-7.99,9.8-27.68,15.23-38.09,6.56-2.5-2.08-2.76-5.46-4.58-7.25-3.21-3.14-13.3-4.63-15.27-11.39ZM327.54,234.6c-1.61-.22-1.04.04-1.38.91-1.53,3.81-1.66,9.07-3.54,13.55-.78,1.87-2.88,5.24-4.05,7.05-.7,1.08-4.88,3.61-2.84,5.1l8.45,1.57c1.41-6.28,6.12-10.61,9.67-15.65l-6.3-12.53ZM391.89,234.69c-9.04,3.66-18.37,8.26-28.47,5.87-2.16.56,2.93,8.31,3.57,8.84.69.58,1.08,1.23,2.16.88,8.39-5.05,17.39-9.86,27.43-10.43l-4.69-5.16ZM528.73,237.89c-12.25,6.26-24.52,9.57-38.42,7.87-2.34.76,3.96,5.47,5.1,6.05,10.94,5.49,30.05-1.76,33.32-13.92ZM363.27,250.17c-2.74-3.7-2.75-10.26-7.07-10.33-7.32-.12-18.4,7.13-23,12.57-8.12,9.6-14.49,36-17.27,48.46-.62,2.78-3.44,16.11-2.19,17.56,2.21,2.57,23.3,4.33,27.63,4.91l-4.92-13.14c-4.35-14.55-6.86-34.36,3.61-46.67l-2.98,9.83c-4.27,17.56.08,34.3,7.95,49.95,7.08,4.84,10.99,1.67,11.41-6.27.13-2.52-1.27-6.46-1.27-9.12-.02-6.59,1.44-13.15,1.4-19.08-.03-4.25-1.53-8.01-1.36-12.48.35-8.97,4.58-17.64,11.79-23.02,0-.81-3.26-2.57-3.7-3.17ZM582.91,269.84c-7.35-14.46-15.61-24.85-31.81-29.98l-3.29,13.13c10.43,3.54,15.32,9.58,14.57,20.94,2.9,1.53,21.11,14.25,21.6,15.59.12.33.21,1.63-.43,1.67-1,.41-1.63.57-2.68.14-4.15-1.73-12.81-11.45-17.3-13.66-.67-.33-1.22-.44-1.96-.33.96,5.43-5.25,19.23-10.49,20.74-2.56.74-5.42-.59-7.25,1.27,6.44,14.93,17.37,29.53,35.85,24.03,4.24-1.26,9.37-4.69,10.51-9.21.9-3.57.79-21.2.25-25.27-.86-6.5-4.67-13.33-7.57-19.05ZM445,263.1c-15.68-20.44-42.21-26.22-65.67-15.83l-5.1,3.77c32.08-4.8,55.36,13.78,56.56,46.32.37,10.07-2.7,20.64,1.11,30.42.56,1.44,7.53,13.08,8.45,13.92,2.16,1.98,5.84,2.26,8.6,3.89,6.94,4.1,14.27,10.06,19.28,16.41,3.64,4.61,5.66,9.99,9.21,14.59.38-3.82,2.91-6.42,3.2-10.28,1.43-18.9-17.23-30.34-20.85-47.98-3.84-18.64-2.25-38.88-14.78-55.22ZM4.08,247.09v50.61c2.31-.97,4.62-1.95,7.09-2.48,1.82-.4,3.26.5,4.32.32,1.25-.21,3.14-2.6,5.52-2.96,2.96-.45,4.87,1.2,6.3,1.01,1.09-.14,3.37-2.3,6.09-2.39s4.99,1.74,6.58,1.89c2.34.22,4.64-1.23,7.69-.51,1.71.41,6.35,5.02,7.69,3.8,2.12-1.93-7.74-4.77-9.21-5.57-8.41-4.6-16.43-14.23-16.43-24.33v-16.1c-2.84-.35-7.13.71-9.71-.48-1.99-.92-1.28-3.34-3.43-3.47l1.3-1.95c-6.23-3.07-8.35,2.89-13.8,2.62ZM40.73,247.27c-1.47-1.65-6.68.58-7.39,1.8-2.36,4.03-.59,19.85,1.07,24.56,3.32,9.43,14.19,17.25,24.24,17.51,1.39-4.93-3.51-5.17-2.63-9.86,2.65-.61,2.11,2.57,4.82,2.46,3.1-.13,6.24-5.37,7.66-4.43,2.53,7.46-9.16,4.75-7.22,11.83,7.21,0,16-4.52,20.38-10.19.78-1.01,5.7-9.9,5.89-10.66.52-2.08,1.19-15.52.4-16.65-4.45-3.2-6.25-.18-10.54.07-3.7.22-6.37-1.77-7.91-1.75-1.3.01-4.82,2.4-7.83,2.31-2.63-.08-5.9-2.43-7.28-2.5-3.44-.17-6.69,3.87-11.23-.02-1.92-1.64-1.75-3.71-2.42-4.47ZM240.76,253.01l-91.38.66c3.81,3.97,4.06,6.83,3.9,12.11-.03,1.12-1.18,2.16-1.21,3.31-.09,3.86,2.63,4.61.06,10.65-1.73,4.06-4.69,3.07-2.75,10.06,12.12-8.48,29.6-11.15,43.73-6.59,2.2.71,7.17,3.76,8.58,3.95,2.33.31,8.99-1.99,12.43-2.02,10.92-.12,21.23,4.28,28.28,12.53l2.77-4.92c-6.8-6.36-10.35-17.09-8.98-26.14.07-.44,1.12-.47,1.23-.98.91-4.33,1.83-8.48,3.34-12.63ZM422,273.59c-3.6-6.47-12.21-13.96-19.06-16.76-20.71-8.46-46.07-4.78-44.49,22.46,1.6-2.94,1.75-7.96,4.31-10.47,1.16-1.14,18.58-10.6,19.69-10.54,3.61,2.54,7.23,5.22,11.25,7.12,4.42,2.08,13.36,3.64,16.26,5.43,1.67,1.03,4.2,6.38,6.98,8.8,2.48,2.17,5.74,3.39,8.23,5.58,1.33-.09-2.64-10.63-3.19-11.62ZM526.76,273.38l16.44,2.96c.98,4.38-13.69-.6-15.78.62-6.63,10.98,9.95,9.24,13.15,11.86,1.43,1.17.37,6.03,5.76,6.78,11.94,1.67,17.78-28.76,7.34-36.31-5.59-4.05-27.28-9.09-23.66,3.94l17.09,1.65c1.45,4.95-6.12,1.44-9.47,1.25-6.66-.39-12.3-1.46-10.87,7.25ZM590.54,257.61l-11.18-.65c4.67,6.62,8.39,13.37,11.18,21.03v-20.38ZM98.53,263.73c-.99-1.74-5.38-4.57-7-6.12l-1.26,15.71c6.08,2.48,11.65-3.6,8.26-9.58ZM409.33,275.11c-3.75-3.6-2.63-1.33-6.21-2.67-7.53-2.81-14.88-6.08-21.44-10.78l-16.15,9.26c-8.22,16.66-12.84,48.51,3.14,61.6,17.45,14.3,39.76,6.83,53.32-8.77,8.46-9.73,5.68-22.49,4.36-34.44-3.22-2.8-6.96-3.82-10.34-6.75-2.63-2.27-4.22-5.11-6.67-7.46ZM526.1,262.21c-6.13-.08-10.39,16.99-1.96,12.8-2.2-3.77-2.62-5.07-.31-8.85.86-1.4,3.17-.95,2.27-3.95ZM283.22,276.29c7.77,11.29,23.12,3.95,28.68-5.74.69-1.21,2.68-4.73,2.41-5.9-.84-3.74-4.99.28-6.69.96-9.55,3.85-16.34,4.83-26.75,3.17.02,3.33.63,5.01,2.35,7.51ZM322.26,266.18l-5.22-1.35c-2.26,12.44-15.63,23.27-28.42,19.54-8.46-2.47-8.78-7.63-11.45-14.89-1.79-.69-10.09,3.73-12.01,4.95-6.28,3.96-20.81,19.91-19.64,27.37.39,2.51,3.23,6.64,3.73,8.26.82,2.62.78,6.53,1.39,9.33.33.33,5.3-2.1,5.59-2.62.85-1.56,1.94-13.28,3.02-16.57l4.87-8.41-4.6,23.01c.73.21,13.26-6.04,13.79-6.59,1.29-1.32,3.72-8.47,6.27-11.48,1.6-1.88,7.68-7.11,9.84-7.91l19.28-1.67c.98,3.62,4.59,3,6.35,5.94l7.21-26.91ZM240.77,394.65c.4-3.71,0-8.6,0-12.49,0-.26,2.28-2.67-.32-.97l-2.4,5.15-1.51.1c-4.81-4.25-9.09-6.47-15.49-7.56-7.31-1.24-11.17,1.81-18.09.98-4.12-.49-6.6-3.32-11.14-3.3-10.19.05-21.78,6.22-29.53,12.45-.68-.1-6.66-7.62-7.19-8.66-3.98-7.75-7.3-34.6-2.73-41.86,1.32-2.1,3.96-3.05,5.25-4.61,3.06-3.7,6.24-7.53,6.91-12.5,14.77,5.43,29.87,5.7,41.72-5.95,10.58,9.47,22.27,13.26,35.83,7.25.75,3.2-1.47,2.77-3.33,4.38,6.02,21.21,3.51,43.71,5.26,65.54l5.31.76c4.21-7.05,4.36-15.59,3.09-23.5-1.13-7.06-5.8-14.47-6.39-20.56-1.6-16.55,6.11-31.89-4.99-48.25-7.93-11.68-18.69-12.11-31.53-11.92-2.62.04-5.55,1.38-7.71,1.19-5.14-.44-13.72-6.21-22.49-6.45-19.86-.54-55.21,22.73-62.46,40.8-2.66,6.64-2.47,15.4-5.36,20.97-5.16,9.92-18.14,11.9-17.98,28.65.06,6.75,2.88,10.02,7.24,14.5.21,2.54-2.47,2.77-3.53,4.42-3.63,5.69-2.68,13.7.3,19.44l41.31-15.06-3.55-17.75c-14.89-.03-22.83-16.91-12.23-27.9,3.69-3.83,6.55-6.32,12.33-4.41,6.54,2.16,3.19,7.01,2.83,11.66-2.22,28.94,4.55,55.76,34.69,65.86,25.82,8.65,64.39,1.65,67.86-30.38ZM130.22,304.16c-1.69-2.65,1.03-13.59-.52-14.72-2.24-1.63-3.69,1.9-5.65,2.33-2.36.52-5.79-.2-8.24-.32-3.09,1.92-4.36,24.29-3.62,25.36,3.06,4.36,10.27-6.13,12.28-8.19,1.43-1.46,3.96-3.36,5.75-4.46ZM307.83,289.82c-2.53-1.11-4.01-.45-6.36.54-2.72,1.14-11.01,8.53-11.73,8.65-.84.14-1.16-.52-1.63-1-.52-2.51,6.38-5.92,7.89-7.54-11.33,1.27-16.55,11.47-21.35,20.38l-23.37,11.47c-1.04,1.22-2.31,24.38-1.33,27.68,4.24,3.14,29.08-17.16,33.48-20.52,5.35-4.08,7.62-5.3,12.91-8.79.94-.62,14.58-14.18,15.16-15.08,1.22-1.89,1.22-3.76,2.2-5.7.27-1,.03-1.05-.93-.92-1.98.26-12.62,10.4-14.78,8.55-.4-3.22,19.9-11.69,12.72-14.4-6.39-.47-10.58,6.83-15.2,8.97-.62.29-2.64,1.31-2.78-.17-.17-1.72,11.62-10.59,14.3-10.67l.83-1.46ZM538.6,291.8l-8.55-1.99-12.49,68.36,6.84-.62c0-1.09,1.61-2.31,1.67-2.5,4.7-17.88,6.48-38.72,11.15-57.21.49-1.93.29-4.16,1.38-6.04ZM4.08,302.63c-1.26,5.37.93,15.44,0,21.36,2.77-2.4,6.95-4.87,9.57-7.21,1.05-.94.86-2.55.98-2.64.68-.53,4.06,2.28,7.08-.2.34-.28.02-1.69.13-1.78.34-.27,8.06,1.83,8.4,2.1.55.44.52,2.27,1.18,3.1,4.86,6.05,5.85,0,9.15.09,1.73.05,3.68,3.21,6.56,3.28s4.81-2.58,6.65-2.67c2.26-.1,3.29,3,5.79,2.61,1.41-6.42,11.09.06,10.72-7.43-.24-4.9-6-4.83-7.36-6.34-1.15-1.27-.53-5.1-3.13-6.81-4.23-2.78-5.96.66-7.92.16-1.17-.3-1.69-2.33-2.85-3.12-5.83-3.97-8.62,1.58-10.36,1.17-3.84-7.4-8.92-1.01-11.36-.72-1.48.17-3.52-3.8-8.1-.86-.91.58-1.1,2.11-2.15,2.53-1.4.56-11.58-2.55-12.97,3.37ZM74.43,302.3v11.5c0,2.75-5.23,5.62-5.31,6.02-.19,1.01,1.27,3.48,1.37,5.15,1.08,19.34-3.09,40.01-27.61,35.17-.62,4.51.26,22.94-2.13,25.48-18.36,7.13-13.17-13.28-14.32-24.16-10.26-1.97-6.87,2.21-7.17,8.21-.13,2.6-.65,16.63-1.05,17.41-1.8,3.52-11.07,4.26-14.12,1.33v448.94h586.45v-83.15c-16.36-10.38-31.96-21.7-47.16-33.7-19.1.13-38.18-.64-56.97-4.14-5.79,11.47-12.23,22.53-17.97,34.05-.41.82-1.48.97-1.7,1.64-1.97,5.86,1.6,21.27-4.58,24.98-10.68,6.41-59.85-4.63-69.53-12.95-3.55-3.05-4.3-4.51-3.2-9.14,4.01-16.8,29.44-14.69,42.65-14.88l9.76-35.94c-.02-2.13-5.57-1.79-5.04-6.92.36-3.52,5.5-17.13,7.18-21,7.01-16.22,21.55-35.49,34.1-48.22,10.31-10.45,22.31-19.43,33.22-29.23.41-.78-.12-12.2-.52-13.93-1.29-5.59-5.35-12.35-6.7-18.26-1.09,2.19-11.05,6.74-11.39,7.33-.74,1.27.35,7.25-.13,9.4-.95,4.26-21.53,9.58-26.25,10.24-2.43,9.21,9.94,16.33,5.26,25.97-4.27,8.79-28.97,13.24-37.86,12.81-4.57-.22-15.87-1.02-17.09-5.93-2.13-8.59,7.49-14.83,13.54-18.7,1.06-.68,4.34-1.58,4.47-1.78.64-1.03-.26-6.12.1-7.8-19.61.37-39.11.04-58.52-2.63-2.02,5.66,5.3,15.52,2.68,20.1s-28.81,10.28-34.65,10.71c-7.91.59-20.33,1.19-24.43-6.94.38-5.24,3.37-9.63,7.66-12.45,2.86-1.88,15.47-6.58,16.58-8.4,1.19-1.95,1.21-9.1-.73-10.53-2.16-1.6-12.86-4.3-16.66-6.35-1.2-.65-5.89-3.38-6.21-4.31-.21-21.91,2.86-43.74,6.46-65.28-11.03,5.31-45.29,8.74-33.08-12.97,1.84-3.27,8.1-5.94,8.1-11.03v-12.82h-18.41v14.13c0,2.59,7.01,13.11,2.82,16.8-5.63,4.95-39.78,10.95-44.73.21-1.72-10.69,15.37-15.08,16.28-21.6.2-1.4.24-12.2-.1-12.74l-10.67-3.33-7.5,23.44c.95,10.06-1.28,13.05,5.75,20.9,30.28,33.76,55.7,43.81,48.7,94.78-2.22,16.19-5.76,31.33-9.84,47.1,10.29,3.3,37.96,9.12,37.47,23.09-.58,16.27-27.58,16.78-39.19,16.12-7.37-.42-37.02-6-41.08-11.52-3.18-4.34,0-6.72.51-10.03,1.96-12.69,5.98-26.57,7.44-38.59.97-7.96,2.25-23.87,1.98-31.59-.06-1.76-.32-2.56-1.37-3.95-.74-.99-7.95-7.54-8.81-7.54-38.73,13.14-79.6,21.07-120.73,19.38-3.42,5.36-6.15,11.28-9.63,16.59-4.98,7.59-27.07,35.17-27.84,41.26-1.5,11.92,3.29,30.32-10.72,37.27-17.32,8.59-55.27,1.44-43.81-25.25,3.54-8.23,13.25-15.17,16.66-20.95,2.67-4.52,4.16-14.18,6.38-19.78,3.66-9.24,8.78-18.23,13.26-27.02,1.4-2.75,7.76-14.27,6.73-16.24-1.13-2.16-7.46-2.95-6.63-7.88.52-3.1,7.44-15.9,9.37-19.54,6.5-12.27,15.09-26.22,23.22-37.8,3.25-4.64,18.26-21.71,19.36-24.87,1.83-5.25.4-14.67,1.02-20.02.51-4.4,3.34-8.85,1.96-14.13-7.7,3.07-16.59,10.13-24.15,2.73-6.21,1.47-12.46,4.23-18.71,6.01-23.16,6.58-37.98,13.27-54.7-8.81-4.77-6.3-15.25-23.47-14.17-31.11.09-.61,2.7-9.12,2.96-9.55.92-1.54,2.79-1.49,3.56-2.35,1.46-1.63,1.94-6.3,5.75-7.41,2.35-.68,4.21.69,6.26.41,1.63-.22,3.65-2.41,5.48-2.5,6.69-.35,18.58,19.31,22.97,24.3.5.67,1.14.7,1.9.68,1.23-.04,20.49-11.45,21.06-12.54.81-1.53.6-3.98,1.78-6.11,2.49-4.5,11.26-7.65,15.68-10.3-3.06-6.14-4.68-11.42-2.84-18.28.51-1.91,3.52-6.8,3.49-7.69-.04-1.01-4.35-5.79-4.96-8.82-1.74-8.64.75-18.37,6.27-25.17,2.39-2.94,7.34-6.03,9.87-9.39,4.76-6.32,3.68-13.38,5.92-20.69-9.21,1.05-4.91-12.74-3.9-18.57.09-.52,1.17-.51,1.24-.96.43-2.51-.47-5.44.68-8.07-8.36-.73-6.9,4.42-11.69,9.01-1.23,7.81,1.71,22.16-9.07,23.79-18.75,2.83-8.07-17.12-10.14-27.54l-5.91-.67ZM548.03,313.91c-3.57-5.23-4.74-11.08-8.11-16.2l-5.27,26.29,17.47-3.91c1.48-2.16-3.31-5.04-4.09-6.18ZM71.77,301.68l-5.49-1.32c-3.13,4.67,1.92,6.18,5.52,7.86l-.03-6.54ZM466.27,300.33c-.38-.29-4.99,1.14-5.15,1.41-1.48,2.45,2.86,28.07,8.44,30.14-1.03-4.49,1.35-9.96,1.15-13.98-.19-3.81-2.86-8.61-3.74-11.49-.28-.92-.18-5.68-.7-6.09ZM311.77,308.88c-8.09,5.22-11.29,16.27-22.03,17.07l-18.72,17.09c11.97,2.56,24.6,3.78,36.71,1.88l4.04-36.04ZM7.55,331.71c5.83,6.92,23.46-9.31,20.57-14.29s-26.97,6.68-20.57,14.29ZM235.48,327.96c-9.98,2.25-21.94-1.47-28.58-9.22h-.97c-.09,1.22-.79,1.89-1.74,2.54-11.28,7.72-25.18,8.63-37.71,3.37-1.81,6.18-6.57,13.12-12.37,15.91-2.38,15.82-.53,31.45,7.77,45.21,7.88-6.09,17.37-10.65,27.45-11.64,8.67-.85,14.83,5.11,23.85,2.15,10.82-3.55-1.26-14.06-3.33-19.74-.99-2.71-5.69-17.64-.64-15.7,1.45,4.71,1.77,11.48,3.76,15.83,1.39,3.05,5.95,6.55,6.96,10.81.74,3.11.69,5.57-.86,8.42,2.22.37,5.01.42,7.11,1.11,7.25,2.39,11.91,10.64,13.26-2.1,1-9.44.64-32.1-1.59-41.15-.5-2.03-2.75-3.11-2.37-5.82ZM472.19,321.04v10.52c13.82,7.14,30.35,6.93,45.64,6.94l1.7-11.22c-15.55.31-31.89.37-46-6.95l-1.34.71ZM590.54,485.69v-165.64c-8.74,9.6-20.96,7.77-32.22,4.6-.18,3.74-1.29,7.56-.49,11.34.4,1.87,2.85,3.62,3.3,4.62,6.37,13.94,6.41,23.71,9.71,37.46.19.79,5.62,7.2,6.66,9.24,5.33,10.45,2.12,14.93,3.52,24.19.39,2.58,3.34,3.48,3.32,8.02-.02,5.53-4.29,7.37-4.97,10.65-.99,4.77.69,10.88-1.35,16.4-.79,2.13-3.17,3.75-3.77,5.43-.43,1.2.05,2.89-.44,4.16-3.09,8.04-8.41,10.54-17.16,8.78-2.23.31-1.22,4.13.38,5.29,1.31.95,12.9,3.48,16.2,4.83,6.27,2.58,12.05,6.47,17.31,10.63ZM341.36,325.98l-28.83-4.19c-1.27,12.64-1.84,25.33-1.44,38.06.18,5.58,2.33,14.09,2.05,19.02s-9.34,21.53,2.59,21.37c.62-.6-2.21-8.95.3-9.71l2.21.63c.89,1.14-.36,7.5,2.08,7.11,1.37-5.63,3.43-11.61,5.81-16.88,1.07-2.37,5.45-8.06,5.69-9.32.71-3.7-.77-8.74.55-14.02,1.13-4.55,5.52-9.28,6.22-12.84,1.2-6.09-.82-13.71,2.78-19.23ZM67.2,321.36c-3.49-1.13-6.87,1.72-9.71,1.82-1.97.07-3.31-1.24-5.05-1.14-1.4.08-2.79,1.28-5.29,1.34-3.6.1-5.23-1.82-6.69-1.89-1.78-.09-5.93,4.13-9.1-.12-.64,2.33-8.44,9.88-8.6,10.8-.23,1.29,1.84,8.11,2.52,9.73,4.2,9.96,19.29,18.64,30.09,14.62,1.98-1.59-5.85-4.39-3.94-6.9,3.44-1.69,5.59,4.5,6.35,4.65,3.47.67,9.43-9.83,9.43-12.87v-20.05ZM433.17,335.39c-1.01-1.6-2.21-2.15-3.36-4.84s-2.08-6.14-2.32-9.19c-.99,1.96-9.61,9.53-9.75,10.29-1.13,6.4,13.73,6.59,17.33,8.76.69-1.49-1.12-3.79-1.89-5.02ZM532.02,337.13l22.07-3.23,1.94-11.23c-.88-1.35-6.34,1.25-8.23,1.65-4.47.96-8.96,1.5-13.44,2.34l-2.34,10.47ZM372.91,338.46c-6.39-2.85-12.17-8.53-14.78-15.12-8.13,14.65-24.37,25.75-24.65,44.03,1.07,1.32,5.74-6.53,6.31-7.16,9.21-10.37,19.96-17.35,33.13-21.75ZM350.56,327.94l-6.92-.68-1.62,12.51,5.79-6.36,2.75-5.46ZM19.85,333.85c-5.37,2.38-10.5,2.99-15.76,0,.26,8.18-.38,16.46,0,24.64.31,6.5,1.3,13.5,2.59,19.22.29,1.29-.23,4.38.77,5.34.29.28,6.91.54,7.69-1.65,1.29-3.65-1.13-18.25.42-20.61.41-.63,1.98-.66,2.67-1.27.79-.71,1.16-2.32,2.06-2.59,1.01-.3,11.35,4.45,14.68.59l-9.87-9.5-5.25-14.15ZM394.94,343.05c-2.88.35-6.82,0-9.86,0-.14,0-.75-.98-.98-.66.01,15.38,17.06,16,26.95,7.56,3.86-3.29,9.98-11.68,3.62-15.49-5.63,3.38-13.15,7.79-19.73,8.58ZM516.9,341.08c-15.84.95-30.42-.67-45.36-5.91,4.17,7.57,10.16,13.78,11.09,22.76.63,6.07.72,16.33-3.86,20.61,3.29-2.06,9.21-2.65,12-4.58,1.07-.74,2.82-3.69,4.43-4.95,5.75-4.54,11.61-8.53,18.92-10.33l2.79-17.6ZM559.92,346.07c-.76-1.6-3.36-8.47-4.65-8.85l-23.83,3.28-3.35,17.02c14.2,1.6,28.94,7.66,39.12,17.74,1.38-.86.57-1.12.56-1.83-.2-7.59-4.64-20.59-7.83-27.35ZM467.99,366.97c-11.42-15.92-29.24-24.57-48.39-27.2-2.74,20.4-37.79,27.64-38.9,2.74-5.44-2.74-13.06,1.03-18.22,3.6-21.01,10.44-33.81,32.38-40.19,54.14h25.64c-.39-12.74.34-25.2,7.24-36.14l1.86,1.51c-2.98,7.66-6.11,16.26-6.46,24.46-.15,3.41-.26,6.98,1.03,10.22,1.53.58,24.07-.17,25.92-1.02.64-.3,8.37-9.03,9.62-10.43,5.79-6.52,16.12-23.21,25.59-23.44,2.44-.06,3.74,1.17,5.11,1.17,1.76,0,3.64-1.76,6.66-1.13,2.42.5,2.41,2.73,3.45,3.31,2.38,1.32,6.6-.45,7.8,3.21,1.47,4.5-.93,7.42-1.02,10.87-.1,3.67,7.52,30.73,9.28,35.29.22.58,1.18.98,1.4,1.69,2.18.45,23.25-7.08,24.04-8.82-1.27-9.09,7.89-19.03,7.39-26.83-.17-2.64-6.98-14.57-8.85-17.18ZM307.83,348.31c-10.27,1.32-20.2.53-30.39-.84-2.35-.32-8.11-2.47-9.41-2.39s-9.4,5.68-11.48,6.51c16.46,7.04,34.29,7.68,51.94,5.92l-.66-9.2ZM134.92,376.58l1.24-24.53c-3.78-4.26-10.28-.41-12.56,3.68-4.93,8.84.22,21.72,11.32,20.85ZM268.38,378.55v-10.19c0-1.68,3.01-7.92,2.36-8.9-2.96-.47-18.77-7.82-20.11-6.55,4.13,13.63,8.44,27.84,1.32,41.4,18.54,3.38,37.61,5.49,56.54,5.26-4.08-7.35,1.06-15.34,1.34-22.04.2-4.9-2.43-11.38-1.33-16.73l-34.45-.7c-3.42,5.48-2.89,11.46-4.37,17.46-.24.97.51,1.17-1.29.99ZM40.89,359.5c-4.27-1.71-7.77,3.25-12.48,2.63-.29,1.06,1.19.34,1.32,1.08.45,2.5.25,15.67,1.26,16.37l7.64-.33c.55-.79.43-15.62.93-18.68.12-.75,1.62-.01,1.32-1.07ZM578.04,410.43v-12.49c0-10.71-15.81-24.64-24.54-29.36-20.82-11.24-43.63-11.82-60.27,6.67,29.42,8.2,54.22,27.26,83.47,35.88l1.34-.71ZM414.99,368.04c-11.45.6-19.08,15.09-25.96,23.01-1.12,1.29-2.64,1.87-3.62,2.95-1.56,1.73-5.49,8.26-7.05,8.72l-77.77.14c2.85,13.28.64,25.74-1.97,38.78,22.61-1.58,45.06-5.92,67.19-10.71,5.92-1.28,15.23-5.03,20.64-5.65,8.78-1.02,14.01,3.34,24.72-.92,2.34-.93,20.98-14.21,22.02-15.77,1.12-1.66,1.56-4.98-.17-6.33-3.88-3.02-14.71,6.34-19.34,5.87,4.59-9.02,12.14-16,16.56-25.17,1.68-3.49,6.07-11.57-1.04-10.98-1.41.12-7.75,5.6-8.94,6.92-1.91,2.11-9.39,16.19-12.49,13.47l17.75-23.65c-6.41-1.85-12.63,4.3-16.69,8.61-1.22,1.3-7.38,11.31-8.95,9.78,2.38-8.18,8.93-13.75,15.12-19.05ZM579.19,414.88c-.83-.76-18.07-5.94-21.32-7.28-18.4-7.62-44.96-26.12-63.29-29.4-8.3-1.49-18.8,2.93-12.34,11.68,24.76,8.61,48.32,22.1,72.81,31.06,3.89,1.43,19.98,7.2,22.71,5.65s3.95-9.38,1.43-11.71ZM432.09,386.43c-1.56-.36-1.08.31-1.48.85-3.38,4.58-5.49,11.16-10.35,14.92,5.58-1.4,9.81-5.27,15.77-1.97l-3.94-13.8ZM514.03,447.33c2.34-6.02,6.17-33.58,3.86-38.54l-37.65-16.33-1.83.5c-4.26,2.87-4.76,16.7-7.63,20.66-3.49,4.8-16.1,8.95-19.92,16.24-7.96,15.2,16.7,8.7,22.97,9.18,13.14,1.01,25.42,9.6,29.27,22.34.88.68,4.27-3.26,4.87-4,1.29-1.58,5.4-8.35,6.06-10.04ZM133.27,487.66c-4.09.56-9.25-.41-13.48,0-.15,4.96,5.95,7.23,9.99,8.74,24.07,9.01,78.96,8.94,102.01-2.92,7.53-3.88,8.05-8.22,10.09-16.21,4.26-16.7,4.92-34.28,6.13-51.4.55.08,1.66-.16,1.92.03,1.82,1.36.15,23.22-.35,26.95,11.83,3.12,24.08,5.33,36.41,4.43,6.69-11.13,11.91-21.13,12.62-34.37.16-3.05,0-18.36-1.63-20.04l-53.25-7.24c-2.26,19.69-19.82,33.67-39.02,34.95-8.68,18.78-27.76,35.82-45.68,46.03-5.66,3.22-19.75,10.22-25.76,11.05ZM144.54,407.04c-1.67-2.24-3.34-4.3-4.8-6.73-14.73,3.74-28.98,9.36-42.23,16.77-2.98,1.67-15.33,8.44-15.84,11.11-.23,1.53.41.89,1.38.72,4.27-.75,5.14-1.97,9.82-.11,11.94,4.74,19.52,19.88,17.69,32.09-.07.44-1.14.48-1.23.99-.42,2.34-1.11,9.68-2.67,11.01l-1.35-.05c-.6-4.53-3.05-.58-5.9-.29,1.05,4.36,9.6,1.21,12.29.12,12.25-4.94,23.89-16.11,30.43-27.42,3.67,2.04-4.01,11.06-6.24,13.49-1.89,2.06-12.15,9.77-12.5,10.51-.3.64-1.03,12.95-.94,14.2.22,3.15,9.48,1.1,11.8.6,14.04-3.07,35.26-16.69,46.02-26.29,4.41-3.93,19.76-20.45,20.36-25.66.22-1.95-6.45-.19-8.22-.26-20.97-.81-35.67-8.41-47.88-24.8ZM444.17,428.29c-3.28-6.71-3.17-16.74-7.47-22.79.02,1.28.09,2.58-.5,3.78-1.46,2.98-21.76,17.08-25.62,18.42-8.89,3.08-13.68.33-21.43.36-5.37.02-14.78,4.83-20.82,4.72,24.4,8.51,53.24,7.79,76.92-2.96v-1.29c-.33,0-.97-.01-1.07-.22ZM457.07,419.31l-10.52,3.28.99,3.94c.82,1.15.72.31,1.31,0,1.91-.99,5.58-6.01,8.21-7.23ZM39.82,428.93c-3.43-3.6-6.98-10.56-11.45-3.38l12.54,19.72-.35,1.65c-.43,0-.87.06-1.29-.02-3.28-.64-12.72-18.74-15.09-22.39-11.58-2.85,1.75,17.58,4.21,21.24,1.02,1.52,4.22,2.26,3.3,5.76-3.02,3.16-13.64-17.53-13.97-20.21l-2.29-.39c-7.25,6.72,8.54,19.26,9.56,25.02.15.87-.04,2-.87,2.15-1.49.28-12.05-15.65-12.16-18.4-2.7,1.56-.45,6.77.36,9.18,2.84,8.51,16.43,29.36,24.85,33,12.77,5.52,39.16-3.7,52.36-8.35,2.95-1.04,15.1-5.42,16.39-7.28,1.66-2.41,1.77-11.99,1.38-15.05-.99-7.87-11.86-20.53-20.07-20.1-6.86.36-21.72,13.79-29.24,16.17l4.4,6.27c2.28.52,8.27-4.99,11.8-5.27,7.14-.56,8.16,5.53,5.63,10.94-.43.93-12.72,14.78-13.57,15.36-2.03,1.39-3.65,1-3.01-1.55,3.16-4.11,18.16-15.68,14.52-21.05l-1.31-.82c-2.27-.74-4.35-.01-6.43.91-1.76.78-18.51,10.39-19.6,11.3-.95.79-2.71,4.89-3.95,4.59-2.63-.66,1.76-6.22,2.95-6.9l10.54-5.87c-6.45-8.86-12.66-18.37-20.15-26.23ZM535.28,453.51c-.24-.23-6.3.11-5.89-2.32.15-.87,7.42-.64,9.34-1.19,11.2-3.2,12.56-23.53,1.87-25.81-2.86-.61-10.8-.93-12.19,2.35-.66,13.69-1.44,27.69-6.41,40.26-3.02,7.65-7.87,11.36-14.3,15.98l3.91,5.89,42.09-18.44c.54-2.25-7.12-1.52-9.35-2.47-2.61-1.11-7.37-7.34-8.5-9.93-.5-1.15-.42-4.17-.58-4.32ZM446.55,433.11c-4.92.35-9.08,3.3-14.05,4.68-17.26,4.79-40.86,4.29-58.29.26-2.99-.69-7.84-3.54-10.18-3.67-1.38-.08-8.74,1.4-9.57,2.29-.32.34-3.71,7.24-4.2,8.29-11.54,24.63-20.09,59.28-23.94,85.83-.86,5.93-4.66,43.5-2.72,45.94.87,1.09,12.6,6.12,14.77,6.92,28.57,10.55,66.36,13.34,96.7,11.83,8.55-.43,49.7-5.87,53.6-12.8,1.21-2.15,1.69-11.06-1.85-11.46-.96-.11-13.33,7.77-17.09,8.95-23.11,7.27-38.86-9.6-49.37-27.86-5.69-9.89-8.38-23.48-13.78-32.26-3.5-5.7-10.61-8.17-14.84-16.71-6.03-12.17-2.69-16.64,5.53-25.88,6.38-7.17,15.81-15.57,25.83-9.42,2.21,1.35,4.07,4.82,5.24,5.6,1.05.7,2.98.59,4.2,1.39,10.43,6.79,9.21,22.14,2.27,31.26l23.89,26.05,25.9-23.92-3.53-19.47c-1.27-1.6-16.08,1.08-20.56-9.02-3.23-7.28.88-16.68-1.77-24.52-.71-2.1-2.3-1.53-3.03-2.41-3.7-4.43-.43-8.33-1.39-9.94-.55-.93-10.96-3.92-7.79-9.95ZM349.9,437.05c-17.49,3.69-35.24,6.35-53.11,7.66l-10.33,15.35c-12.3-.15-24.93-.88-36.68-4.61-1.92.11-2.49,7.57-2.36,9.44,1.6,4.23,31.32,7.43,36.39,7.68,7.09.35,51.2-.28,54.22-4.34.9-1.22,1.27-5.2,2.07-6.99.25-.56,1.15-.64,1.45-1.35,3.08-7.41,5.08-15.46,8.36-22.83ZM463.15,465.15c2.21,2.16,21.48,1.51,23.52-.81l.66-1.94c-2.57-7.27-17.35-11.82-24.01-10.24-3.05.72-.51,10.29-.17,12.98ZM430.78,477.8c.2,1.83-4.86,10.7-6.2,10.48-1.17-2.42-11.31-5.01-11.56-6.21-.92-4.47,10.66,2.01,11.84,2.66,6.9-8.25-2.88-17.84-11.86-15.81-6.73,1.52-21.64,17.24-21.6,24.26.03,4.44,3.84,10.85,6.51,14.33,2.86,3.73,10.82,9.21,12.43,12.23,2.07,3.89,3.5,11.42,5.47,16.08,9.01,21.31,29.23,54.11,56.82,40.03l10.71-6.32c-9.75-7.58-16.71-14.01-22.25-25.09-1.49-2.99-1.48-6.95-4.03-9.58l-26.49-28.32c-.86-2.2,3.29-4.31,4.61-6.89,3.45-6.79,2.79-17.73-4.41-21.83ZM331.49,493.57l5.01-20.32-.74-1.35-8.12,2.38c1.06,6.56-3.9,15.89,3.85,19.3ZM261.15,473.53v13.15c0,1.47-1.46,2-1.97,2.95,7.73,1.68,13.34,10,16.41,16.81,15.83-.93,5.82-9.04,4.78-15.97-.48-3.19.62-13.55-.97-15.13l-16.76-2.66-1.49.86ZM328.51,497.23c-1-2.1-3.11-4.01-3.55-6.65s.65-15.96-.03-16.42l-19.74,1.02-1.31,18.4c10.76-.62,19.24,4.52,22.03,15.12,2.28.55,2.06-5.09,2.33-6.08.56-2.02,2.5-.7.26-5.38ZM590.42,576.28l-.03-85.53c-7.17-7.98-21.46-16.48-32.37-16.93-13-.53-46.28,18.11-57.49,26.05-4.87,3.45-38.55,31.46-39.24,34.42,2.85,16.8,16.85,29.56,31.62,36.6,1.65-.03,19.78-15.47,22.04-17.81,5.24-5.44,9.77-13.54,14.83-18.69,2.27-2.31,3.22-1.6,1.91,1.25-2.94,6.43-11.38,16.49-16.42,21.71-1.61,1.67-7.69,5.26-8.14,7.03l6.63,19.45c25.27,7.92,52.72,2.13,76.64-7.55ZM505.6,484.49l-21.57,3.83,2.63,18.4,22.06-15.77-3.13-6.46ZM271.3,505.14c-4.2-8.62-12.38-19.07-21.32-8.61,6.56,2.63,13.33,5.46,15.49,12.74l6.86-1.25c.78-2.15-.85-2.5-1.03-2.89ZM237.48,494.24c-21.59,10.54-47.5,12.33-71.36,11.19-15.63-.74-31.43-3.35-45.66-9.88-1.78,8.39-3,9.7,4.81,13.92,13.96,7.55,44.11,9.12,59.93,8.42,11.54-.51,45.12-4.46,51.23-14.22.22-.35,1.01-.2,1.04-.24.68-.89-1.76-.11-1.31-1.62.18-.6,1.24-.13,1.33-.77.3-2.11-.21-4.62,0-6.79ZM318.48,511.85l4.15-1.8c0-7.17-7.12-12.01-13.47-13.53-5-1.2-7.94-1.99-11.19,2.66l14.02,5.03,6.49,7.64ZM254.57,506.72l1.08,3.19,6.81-.91c-1.28-5.48-18.39-15.53-17.6-4.44.34,4.79,3.61-.21,5.43-.48,1.42.31-4.21,7.93,4.28,2.64ZM314.32,513.22c2.36-6.66-15.84-12.56-18.38-8.69-.96,2.56-1.35,6.26,1.7,7.44.67-8.82,3.52-5.4,3.57,1.03,5.1,2.25,4.08-3.23,7.27-3v3.29s5.84-.08,5.84-.08ZM282.44,558.4c-11.53-17.12-24.83-28.93-39.06-43.45-1.62-1.65-4.7-7.06-6.74-6.84-1.9,1.5-5.53,2.56-7.07,4.18-4.17,4.37-9.94,17.04-14.15,22.67-14.54,19.43-41.81,42.93-65.05,50.65-3.34,1.11-6.65,2.3-10.2,2.61-.36-1.72.41-1.14,1.28-1.65,4.09-2.38,10.79-4.16,15.29-6.43,28.1-14.18,53.68-37.85,67.58-66.19-26.9,7.46-56.77,8.91-84.18,2.99-7.91-1.71-14.97-4-21.91-8.18-11.74,13.45-20.89,28.42-30.1,43.56-.43.71-1.51.95-1.87,1.56-6.7,11.15-12.5,23.84-18.95,35.22,12.4,12.11,32.82,15.88,49.62,17.43,45.87,4.23,92.51-6.83,135.2-22.4,12.38-4.52,24.11-11.54,37.29-13.66-1.02-4.75-4.42-8.27-6.98-12.07ZM289.36,573.82l-43.99,15.07,8.5,10.88-3.2,46.91c10.84,1.42,22.09,2,32.68-1.43,5.44-22.79,12.86-48.3,6.01-71.43ZM590.54,591.84v-12.82c-23.37,10.2-50.62,13.81-75.6,7.89.46,3.49-1.39,7.76,1.63,10.52,10.56,9.66,61.97,5.2,73.97-5.59ZM372.18,594.87l-24.9-5.33-.36,11.82c6.96,4.13,13.14,10.03,14.17,18.42,5.32-1.31,10.81-2.95,15.12-6.4.88-2.42-1.05-2.77-1.25-3.35-1.72-5.09-2.5-9.77-2.78-15.16ZM467.19,608.35c-.82-1.72-2.84-4.05-3.24-5.64-.58-2.3.45-7.1-1.39-7.83l-25.16,3.62v8.08c9.97,1.41,19.39,7.56,22.97,17.15.8.52,9.19-5.73,9.55-6.6,1.18-2.88-1.73-6.68-2.72-8.77ZM590.54,595.46c-22.48,10.38-52.31,14.62-75.4,4.09l-1.75.59c-22.87,20.3-48.49,40.73-62.14,68.7-2.12,4.35-5.76,11.84-7.28,15.87-.61,1.6-4.22,13.46-4.04,14.17,46.06,21.24,101.46,23.65,150.61,12.26v-115.68ZM117.82,609.26l-19.85-2.83-23.45-7.6c-3.57,9.4-9.88,18.1-14.01,27.08-3.6,7.82-6.03,16.11-9.09,24.09,7.52,4.1,28.11,10.42,35.33,5.51,1.58-1.08,10.34-13.53,12.23-16.19,6.79-9.58,12.97-19.88,18.84-30.05ZM352.96,609.49c-5.88-6.68-11.48-7.84-18.83-2.85,7.47,4.08,12.9,6.92,15.54,15.72l8.73-2.24c-1.58-3.53-2.84-7.67-5.44-10.63ZM345.96,623.06c1.24-7.2-12.87-15.9-18.36-12.77-1.43.81-7.43,8.38-3.35,8.83l1.96-4.95,1.99.7-1.9,7.47c6.08,2.9,3.33-3.83,7.81-5.19l-1.31,6.57,13.15-.65ZM456.06,622.1c-6.39-9.74-18.75-18.13-29.23-8.56,9.31,1.15,18.82,5.31,23.3,13.93l7.6-1.78c.2-1.82-.96-2.51-1.67-3.59ZM446.55,628.31c-3.78-9.59-30.58-19.85-26.86-1.41l3.39.12c1.66-2.24,2.05-5.74,5.71-5.27,1.23,1.17-6.26,7.09-.24,7.19,3.61.06,3.11-3.31,5.83-3.26,2.52.05-.77,3.23,1.41,3.87l10.75-1.24ZM281.53,648.7c-10.56,2.88-21.5,2.02-32.21.65,1.13,2.69-1.09,3.91-1.26,4.46-1.11,3.65-4.02,17.7-2.37,20.53l15.45,5.9c1.09-4.8,4.57-9.92,7.65-13.72,5.07-6.27,13.02-8.94,12.74-17.82ZM42.54,667.76c4.81.11,9.65,0,14.46,0,6.06,0,16.56,5.55,22.36,7.87l.33-4.91c.29-4.32,1.42-7.07,3.28-10.84-11.1.05-22.12-2-31.88-7.27l-3.19,7.36-6.33,7.48c-.18,2,.73.31.98.31ZM281.2,686.17c5.19.99,13.21-.73,18.74,0l-3.94-6.91c-1.08-.52-.14-1.56.34-1.64,2.6-.43,6.84,6.12,6.23,8.55l7.23-1.33c-.46-5.05-4.32-8.29-8.54-10.52,2.36-5.73,11.03,4.9,11.18,8.56,8-1.96-6.36-12.85-5.26-13.8,4.84.64,9.21,5.62,9.87,10.51,1.83.55,2.07-2.36,1.94-3.56-.23-2.09-6.31-7.56-8.31-8.82s-10.25-4.77-12.39-4.74c-7.24.12-18.38,14.94-18.78,22.06-.27.88,1.15,1.52,1.69,1.63ZM74.69,694.3c2.32-2.76,3.88-3.05.62-6.72-6.7-7.55-31.28-10.43-40.3-6.98-5.77,2.2-7.46,11.34-.69,13.45-.87-2.32,4.41-12.27,6.58-9.19.83,1.18-2.43,3.51-3.2,5.01s-1.39,3.31-1.45,5.07l9.25,3.07c.13-4.38,1.18-11.63,5.92-13.15,1.33,1.62-4.81,9.06-3.32,13.39l7.63,1.54.86-.9c-.69-4.37,2.28-12.34,7.61-10.77l.37,1.32c-4.41,1.4-5.62,6.42-5.25,10.53,6.31-.87,10.99-.43,15.38-5.66ZM483.37,715.75l-38.05-11.1c-1.88.16-7.9,29.46-9.11,33.29-1.56,4.93-4.62,9.1-5.79,13.93-.59,2.42-2.3,13.6-1.31,15.16,10.19,3.75,21.97,4.37,32.55,2.26,2.21-1.72,1.36-14.8,2.16-18.22.54-2.32,3.75-4.97,4.61-6.6,3.5-6.59,6.51-13.49,10.16-20.01.72-1.29,5.96-7.43,4.79-8.72ZM590.54,713.77l-41.42,6.58,41.42,30.23v-36.81ZM418.94,742.7c-5.5-.8-23.64,2.9-24.86,9.02-.52,2.63.45,3.86,3.16,4.12-.86-4.12,4.76-8.96,8.55-8.54-1.33,3.76-6.83,4.91-6.28,9.85,3.6,3.3,8.48,4.7,13.13,5.85,1.08-.33,1.59-8.12,2.17-10.3.96-3.58,3.06-6.51,4.12-10Z"/>
  <rect x=".14" y="841.29" width="595" height=".66" fill="#fff"/>
  <path d="M74.43,302.3l5.91.67c2.07,10.41-8.61,30.36,10.14,27.54,10.79-1.63,7.85-15.98,9.07-23.79,4.8-4.59,3.33-9.74,11.69-9.01-1.15,2.63-.25,5.56-.68,8.07-.08.45-1.15.44-1.24.96-1.01,5.83-5.31,19.62,3.9,18.57-2.25,7.31-1.17,14.37-5.92,20.69-2.53,3.36-7.48,6.44-9.87,9.39-5.52,6.8-8.01,16.53-6.27,25.17.61,3.04,4.92,7.82,4.96,8.82.04.89-2.98,5.78-3.49,7.69-1.84,6.85-.22,12.14,2.84,18.28-4.42,2.65-13.19,5.8-15.68,10.3-1.18,2.13-.97,4.58-1.78,6.11-.57,1.09-19.83,12.5-21.06,12.54-.77.02-1.4,0-1.9-.68-4.39-5-16.27-24.65-22.97-24.3-1.83.09-3.85,2.28-5.48,2.5-2.05.28-3.91-1.09-6.26-.41-3.81,1.11-4.29,5.78-5.75,7.41-.77.86-2.64.81-3.56,2.35-.26.43-2.87,8.93-2.96,9.55-1.08,7.64,9.39,24.8,14.17,31.11,16.72,22.08,31.54,15.38,54.7,8.81,6.26-1.78,12.51-4.54,18.71-6.01,7.56,7.4,16.46.35,24.15-2.73,1.38,5.28-1.46,9.73-1.96,14.13-.62,5.34.81,14.77-1.02,20.02-1.1,3.15-16.11,20.23-19.36,24.87-8.12,11.58-16.72,25.53-23.22,37.8-1.93,3.65-8.85,16.45-9.37,19.54-.83,4.93,5.49,5.72,6.63,7.88,1.03,1.96-5.33,13.49-6.73,16.24-4.48,8.8-9.6,17.78-13.26,27.02-2.21,5.6-3.7,15.25-6.38,19.78-3.41,5.78-13.13,12.72-16.66,20.95-11.46,26.69,26.48,33.84,43.81,25.25,14.01-6.95,9.21-25.35,10.72-37.27.77-6.09,22.86-33.67,27.84-41.26,3.48-5.3,6.21-11.23,9.63-16.59,41.13,1.69,82-6.23,120.73-19.38.86,0,8.06,6.55,8.81,7.54,1.04,1.39,1.31,2.2,1.37,3.95.27,7.72-1.02,23.64-1.98,31.59-1.46,12.01-5.48,25.89-7.44,38.59-.51,3.3-3.7,5.69-.51,10.03,4.05,5.52,33.71,11.1,41.08,11.52,11.61.66,38.61.15,39.19-16.12.5-13.97-27.17-19.79-37.47-23.09,4.08-15.78,7.61-30.91,9.84-47.1,7-50.98-18.42-61.02-48.7-94.78-7.04-7.85-4.8-10.84-5.75-20.9l7.5-23.44,10.67,3.33c.34.54.3,11.34.1,12.74-.91,6.53-18,10.92-16.28,21.6,4.95,10.74,39.1,4.74,44.73-.21,4.19-3.69-2.82-14.21-2.82-16.8v-14.13h18.41v12.82c0,5.09-6.26,7.76-8.1,11.03-12.21,21.7,22.05,18.28,33.08,12.97-3.59,21.55-6.66,43.37-6.46,65.28.32.93,5.02,3.66,6.21,4.31,3.79,2.06,14.49,4.75,16.66,6.35,1.94,1.43,1.91,8.58.73,10.53-1.11,1.83-13.71,6.53-16.58,8.4-4.3,2.82-7.29,7.21-7.66,12.45,4.11,8.14,16.53,7.53,24.43,6.94,5.84-.43,32.01-6.11,34.65-10.71s-4.69-14.44-2.68-20.1c19.41,2.67,38.92,3,58.52,2.63-.36,1.67.54,6.77-.1,7.8-.13.2-3.41,1.1-4.47,1.78-6.05,3.87-15.67,10.11-13.54,18.7,1.22,4.91,12.52,5.71,17.09,5.93,8.9.43,33.59-4.01,37.86-12.81,4.68-9.64-7.69-16.75-5.26-25.97,4.71-.66,25.29-5.98,26.25-10.24.48-2.15-.61-8.13.13-9.4.34-.59,10.31-5.14,11.39-7.33,1.36,5.91,5.42,12.67,6.7,18.26.4,1.73.93,13.15.52,13.93-10.91,9.8-22.91,18.78-33.22,29.23-12.55,12.73-27.09,32-34.1,48.22-1.68,3.88-6.81,17.48-7.18,21-.53,5.13,5.02,4.79,5.04,6.92l-9.76,35.94c-13.21.19-38.64-1.92-42.65,14.88-1.11,4.64-.35,6.09,3.2,9.14,9.67,8.32,58.85,19.36,69.53,12.95,6.18-3.71,2.61-19.12,4.58-24.98.23-.67,1.29-.82,1.7-1.64,5.75-11.52,12.19-22.58,17.97-34.05,18.79,3.5,37.88,4.27,56.97,4.14,15.2,12,30.8,23.32,47.16,33.7v83.15H4.08v-448.94c3.06,2.93,12.33,2.19,14.12-1.33.4-.78.92-14.81,1.05-17.41.3-6-3.08-10.18,7.17-8.21,1.15,10.89-4.05,31.29,14.32,24.16,2.4-2.54,1.51-20.97,2.13-25.48,24.52,4.84,28.69-15.83,27.61-35.17-.09-1.67-1.56-4.14-1.37-5.15.08-.4,5.31-3.27,5.31-6.02v-11.5ZM44.84,415.36c1.5-1.64-4.15-13.5-8.54-12.49-.1,5,6.06,7.25,6.56,12.04-.05.77,1.91.52,1.98.45ZM52.48,413.14c.32-.45,3.54-6.19,3.66-6.55.31-.95.83-.77-.46-1.74-3.75,1.99-7.69,5.84-6.23,10.51.63.4,2.7-1.75,3.03-2.22ZM84.29,508.04c-4.64-1.55-10.03,11.6-7.55,12.48l7.55-12.48ZM71.14,521.18c1.38-4.59-2.65-11.88-7.88-11.16.05,1.89,1.96,1.88,3.17,3.72.76,1.16,3.24,8.41,4.71,7.44ZM44.84,514.61c-6.34,1.71-10.42,8.67-9.85,15.11,1.41,1.77,4.13-6.61,4.41-7.05.75-1.16,6.68-6.83,5.44-8.06ZM25.79,530.38c5.94-1.33-6.14-17.77-9.2-13.77-1.01,1.33,3.76,4.48,4.86,5.94,1.78,2.37,3.33,5.03,4.34,7.83ZM32.35,519.21c-4.73-1.46-1.93,10.26-.98,10.51,1.56-3.27.84-7.01.98-10.51ZM39.59,580.99c3.37.49,3.14-4.29,4.27-6.57.48-.96,5.48-7.6,2.63-7.87-2.51-.24-8.27,11.7-6.9,14.44ZM36.29,580.99c1.79-3.4-4.02-15.96-7.88-11.82-.75.8,2.48,2.64,3.17,3.72,1.38,2.15,1.87,4.8,3.06,6.82.51.86-.07,1.63,1.65,1.28ZM33.02,634.24c1.61-3.14,4.25-8.21,5.37-11.4.34-.96.82-.76-.44-1.73-4.41,2.27-6.69,8.42-4.93,13.13ZM28.4,632.92c.96-2.67-2.21-11.83-5.57-11.17-1.16.23-.73,1.01-.47,1.76.19.54,3.89,7.31,4.41,8.12s-.13,1.68,1.64,1.29ZM167.39,642.53c.33.49,1.32.78,1.86,1.73,1.42,2.44,1.22,5.65,3.46,7.72,3.93.03-2.96-18.63-8.87-15.1-.64,1.04,2.9,4.7,3.55,5.66ZM177.66,651.98c4.48.78,3.28-3.65,4.46-6.38.86-1.99,3-4.75,3.54-6.34.24-.71.72-1.6-.46-1.74-2.94-.36-8.35,11.61-7.55,14.45ZM382.12,641.47c-5.75,1.82-10.18,8.98-9.2,15.11.89.23,2.93-2.57,3.26-3.12,1.96-3.36,4-8.39,5.94-11.99ZM364.14,644.33c-.76-.67-5.4-3.9-5.68-1.23,3.69,3.93,7.59,8.03,7.89,13.72,5.98,1.47-.05-10.56-2.22-12.49ZM192.11,644.1c-2.07-1.99-8.68,5.45-7.88,7.88.9.9,6-4.43,6.8-5.36.73-.84,1.48-.83,1.08-2.52ZM400.53,681.57c-5.89-1.05-11.37,14.19-8.53,17.08,2.45-.06,1.98-4.8,2.96-7.21,1.68-4.13,4.73-6.05,5.57-9.87ZM137.54,684.2c-5.87-1.19-11.4,15.27-6.9,16.43,1.54-6.07,4.25-10.62,6.9-16.43ZM126.36,700.62c1.33-5.99-2.91-15.14-9.85-15.11,2.29,5.34,7.52,8.18,8.39,14.27l1.46.84ZM390.01,698.66c.61-4.7-2.05-10.41-7.22-11.17-1.38,1.52,3.71,7.1,4.6,8.36,1.1,1.56-.35,3.46,2.63,2.82ZM397.25,698.65c1.32,1.42,6.68-6.52,8.23-7.22,2.36-5.45-11.32,3.88-8.23,7.22ZM141.49,691.43c-4.2-2.11-9.33,10.6-6.24,10.5l6.24-10.5ZM205.92,720.34c-.38-5.43,3-9.7,4.63-14.12,1.15-3.13-2.54-1.21-3.97.65-1.76,2.29-4.92,12.54-.66,13.47ZM199.99,720.34c1.98-5.13-.94-12.5-6.56-13.8-.2,2.98,2.27,4.39,3.6,7.23.4.86,1.59,7.96,2.96,6.56ZM215.78,711.8c-3.39-1.48-8.74,7.58-7.22,9.19,2.74.54,2.69-2.42,4.03-4.18,1.2-1.57,3.72-2.15,3.19-5.02ZM328.49,718.08c-1.34-1.68-2.46-3.49-4.68-4.2l-1.52-.11.13,2.16,9.06,12.3c.53-4.6-.26-6.7-3-10.14ZM342.67,714.43c-6.86-.57-8.31,8.49-7.88,13.8l7.88-13.8ZM109.55,746.39c-1.24-3.49-3.8-8.42-8.16-8.29.45,3.28,3.53,4.76,4.93,7.88,1.11,2.5,1.17,9.9,4.3,6.79-.25-1.74.33-4.06-.05-5.66-.12-.52-.97-.57-1.02-.72ZM260.25,745.55c1.89,2.53,2.44,5.89,4.51,8.3,2.76-6.02-4.09-15.15-10.84-15.1-.92.84,5.69,5.95,6.33,6.8ZM276.92,738.75c-6.83.39-9.01,8.72-7.88,14.46,2.61.45,1.5-3.55,2.02-4.76.43-1.01,6.53-9.12,5.86-9.7ZM120.45,740.72c-5.21-1.8-9.34,13.15-6.24,13.13l6.24-13.13ZM53.39,745.33c-6.6.43-9.61,10.84-8.54,16.43l8.54-16.43ZM512.96,747.94c4.01.22,6.76,13.6,8.86,13.16,3.68-.78-4.2-17.66-8.49-14.47-.63.47-.45.6-.36,1.31ZM39.86,756.23c-1.17-2.74-4.74-10.25-8.48-9.59-2.69.47,3.81,6.47,4.15,7.01,1.8,2.89,2.5,6.13,4.03,9.11l1.69-.33c1.48-2.82-.71-4.62-1.39-6.21ZM524.8,759.76c3.89,2.11,4.18-3.63,5.54-6.59.92-2,4.63-4.29,2.01-6.52-5.03,2.88-6.02,8.12-7.55,13.1ZM57.99,752.56c-1.48-2.29-10.77,6.75-9.2,9.85,1.42,1.5,8.8-8.73,9.2-9.85ZM164.49,785.42c2.26-1.73-3.51-16.92-8.8-15.08-2.55.89,2.72,4.76,4.07,7,1.46,2.4,2.78,5.19,2.77,8.09.54-.09,1.76.15,1.96,0ZM176.33,770.96c-6.69.51-6.89,7.75-9.2,12.47l2.62.67,6.58-13.15ZM305.5,780.51c-1.01-1.31-1.9-2.72-3.56-3.34-7.19-2.69.72,4.95,1.64,6.9,1.39,2.91.66,6.96,3.86,7.23,2.61-2.79-.03-8.29-1.94-10.79ZM318.82,776.99c-6.91.03-9.42,13.69-6.72,13.67,1.87-2.35,1.49-5.28,3.33-7.83,1.31-1.82,7.41-4.47,3.39-5.84ZM558,782.15c-3.42-.3-9.58,14.04-5.92,17.06,2.57-4.98,1.97-11.01,6.58-15.1l-.66-1.96ZM548.06,794.38c-1.16-3.8-1.57-8.42-6.83-7.64,1.83,3.97,5.27,7.13,5.26,11.83l2.65-1.12c.89-2.23-1.02-2.9-1.07-3.07ZM563.58,790.68c-4.19.52-8.07,4.95-7.88,9.19,1.69-.32,9.07-8.02,7.88-9.19ZM63.45,806.27c4.22,4.58,39.87,7.42,31-7.01-3.86-6.28-14.23-7.53-20.7-5.64-3.59,1.05-14.33,8.29-10.3,12.65ZM240.11,793.31c-6.96-.1-8.58,8.27-7.88,13.8,1.58,1.98,3.7-7.49,3.97-8.01.36-.7,5.29-4.5,3.91-5.78ZM229.59,807.76c.47-5.2-3.45-11.66-9.2-11.17l9.2,11.17ZM367.42,798.15c-1.47-1.21-3.53-2.58-5-.57l4.05,4.48,4.14,9.64c2.7-3.2-.42-11.26-3.19-13.55ZM375.13,804.71c-.81,1.67-2.86,6.07.1,6.38s2.79-4.69,4.12-7.08c.73-1.32,4.25-4.1,4.08-5.11-.73-4.3-7.88,4.95-8.3,5.81Z" fill="#fff"/>
  <path d="M590.54,3.89v32.21c-7.19-.41-13.77,1.26-17.47,7.93-5.58-3.43-11.44-3.49-17.06-.2-9.68-17.86-35.22-10.91-42.57,5.65-3.3-.36-5.99-2.97-9.42-3.46-13.04-1.87-23.6,6.5-23.94,19.66-7.64-.9-15.72-2.37-21.38,3.92-3.72,4.14-3.77,11.19,2.65,11.19h129.19v136.72c-9.81-6.46-20.51-14.55-32.87-13.81,1.32-2.69,1.33-5.91,2.03-8.68,4.45-17.5,7.66-36.35,11.15-54.6,1.01-5.27,3.55-10.77,3.28-17.26-.73-17.07-20-25.54-34.17-16.37-4.62,2.99-15.45,16.11-7.11,19.51,10.65,4.34,10.98-9.94,19.89-9.93,13.18.02,2.62,25.77,2.95,32.77l-6.24-6.57c-24.7-17.24-55.66-15.23-74.61,8.88-2.54,3.24-5.76,3.75-5.96,9.88-.08,2.39,1.23,3.49,1.21,4.46-.03,1.9-2.97,5.12-3.1,5.56-2.91,9.96-3.5,22.24-3.3,32.6-1.6.31-9.14,3.85-9.25,1.4-.09-1.98.93-8.74,1.28-11.21,2.72-19.46,9.32-48.85,8.61-68.35-1.08-29.8-37.55-28.79-40.11.04-.64,7.17.73,27.34,11.99,25.18,8.23-1.58,1.87-17.62,2.44-23.91,1.05-11.61,11.12-13.26,11.84.04.9,16.47-4.35,34.72-6.53,50.09-1.92,13.56-2.84,27.35-4.64,40.93l-8.35-19.58c-3.12-24.5-5.01-46.99-29.98-58.76-23.16-10.92-59.76.08-68.28,25.31-2.08,6.17.78,11.08-2.83,16.83-26.16-20.27-72.34-10.65-77.27,25.02-15.47-5.05-30.57-1.19-44.32,6.58-12.55-5.45-27.77-19.1-41.49-20.37-19.74-1.83-42.07,14.04-60.8,19.04,1.64-6.72,2.01-13.74,3.35-20.51,1.85-9.31,4.62-20.75,7.08-30.52,3.65-14.53,9.23-28.53,13.24-42.97,15.49,11.72,20.48,32.06,21.98,50.64,4.41,2.63,7.49-5.75,8.75-9.06,5.39-14.17,4.58-31.41-3.78-44.37-.7-1.09-10.43-11.16-9.86-11.67,22.58,7.04,41.4,23.81,50.89,45.4,3.12,2.52,3.5-3.04,3.69-4.96,3.01-29.82-13.83-51.29-42.75-56.88-2.27-1.86,15.58-2.05,16.79-1.99,10.44.53,21.98,4.1,31.22,8.89,2.94,1.52,14.05,9.89,14.93,10.08.83.18,1.31.28,1.84-.52-.68-29.51-38.61-52.45-65.43-38.14l8.19-9.22c4.34-3.02,7.61-7.39,11.86-10.49,2.28-1.67,14.68-7.79,15.14-8.52,1.82-2.87-4.08-3.12-5.96-3.3-20.33-1.96-39.61,7.23-51.21,23.71-1.51,2.15-1.61,5.18-4.32,5.86-4.68-17.67-24.62-29.63-41.83-32.14-2.19-.32-14.45-2.12-11.48,2.26,12.23,8.87,26.36,18.27,30.28,33.82-.63.58-7.78-6.36-8.97-7.12-20.41-12.98-45.35-6.71-62.99,7.81-1.08.89-8.68,8.29-8.85,8.89-.22.82-.15,1.44.59,1.94,1.71,1.17,17.96-3.63,21.56-4.11,11.9-1.59,23.89-.99,35.65,1.14.17,1.79-.02,1.05-.99,1.29-21.87,5.31-40.53,12.41-51.52,33.95-1.85,3.63-6.54,16.08-5.24,19.53,1.69,4.48,9.02-6.53,10.08-7.46,3.05-2.69,9.4-7.24,12.91-9.44,12.28-7.68,28.8-13.38,43.31-13.54-10.93,5.77-21.06,13.5-27.07,24.52-4.96,9.1-8.06,23.81-3.95,33.71,2.91,7.01,9.16-8.81,10.77-11.15,9.48-13.85,21.92-26.86,37.35-33.94-.81,1.87-2.24,2.85-3.38,4.82-11.35,19.62-19.94,42.08-26.87,63.54h-9.85c.47-10.34-10.18-15.75-19.21-12.97-3.47,1.07-5.29,3.74-8.4,5.07-.37-20.59-23.48-28.75-39.45-17.09V3.89h586.45ZM363.33,52.26c-11.68-23.93-47.12-15.8-49.6,9.47-13.92-7.39-26.23-1.83-31.71,12.34-7.54-1.8-13.92-2.39-19.18,4.16-1.2,1.5-2.14,4.59-2.53,5.02-1.31,1.42-4.8-.61-8.33,2.53-2.68,2.39-1.94,3.9-3.99,6.18,1.96-.18.81,1.79,2.35,3.24.98.92,3.17,1.26,4.51,1.41,22.95,2.52,53.96-.65,77.62-.75,19.47-.08,39.66,2.05,59.2.75,5.99-.4,15.96-1.09,17.24-8.4,2.2-12.59-7.98-15.2-18.3-14.92-1.62-12.65-14.28-15.94-24.93-11.55.38-3.72-.9-6.49-2.36-9.47Z" fill="#fff"/>
  <path d="M446.55,433.11c-3.17,6.03,7.23,9.02,7.79,9.95.96,1.61-2.31,5.51,1.39,9.94.73.88,2.32.31,3.03,2.41,2.66,7.84-1.46,17.24,1.77,24.52,4.48,10.1,19.29,7.42,20.56,9.02l3.53,19.47-25.9,23.92-23.89-26.05c6.94-9.11,8.16-24.47-2.27-31.26-1.22-.8-3.16-.69-4.2-1.39-1.17-.79-3.03-4.25-5.24-5.6-10.03-6.15-19.46,2.26-25.83,9.42-8.22,9.24-11.56,13.71-5.53,25.88,4.23,8.54,11.34,11.01,14.84,16.71,5.4,8.79,8.09,22.37,13.78,32.26,10.51,18.26,26.26,35.13,49.37,27.86,3.76-1.18,16.13-9.06,17.09-8.95,3.54.4,3.06,9.3,1.85,11.46-3.9,6.93-45.05,12.37-53.6,12.8-30.34,1.51-68.13-1.28-96.7-11.83-2.17-.8-13.91-5.84-14.77-6.92-1.94-2.44,1.86-40,2.72-45.94,3.85-26.55,12.4-61.2,23.94-85.83.5-1.06,3.88-7.95,4.2-8.29.83-.89,8.2-2.37,9.57-2.29,2.34.13,7.19,2.98,10.18,3.67,17.42,4.03,41.03,4.53,58.29-.26,4.97-1.38,9.13-4.33,14.05-4.68ZM351.21,521.84l-1.31.97c.01,16.01,10.82,35.82,23.31,45.73,2.12,1.68,5.01,2.99,7.27,4.55,1.09,0,.79-.79.33-1.63-1.37-2.46-8.3-7.34-10.86-10.18-2.39-2.66-7.17-8.99-8.98-12.06-4.98-8.46-7-18.11-9.76-27.38Z" fill="#fff"/>
  <path d="M282.44,558.4c2.56,3.8,5.96,7.32,6.98,12.07-13.18,2.12-24.91,9.15-37.29,13.66-42.69,15.57-89.33,26.63-135.2,22.4-16.8-1.55-37.23-5.32-49.62-17.43,6.45-11.39,12.25-24.07,18.95-35.22.37-.61,1.44-.85,1.87-1.56,9.22-15.14,18.36-30.11,30.1-43.56,6.94,4.18,14,6.47,21.91,8.18,27.41,5.92,57.28,4.48,84.18-2.99-13.89,28.34-39.47,52.02-67.58,66.19-4.5,2.27-11.2,4.05-15.29,6.43-.87.5-1.63-.07-1.28,1.65,3.54-.32,6.86-1.51,10.2-2.61,23.24-7.72,50.51-31.22,65.05-50.65,4.21-5.63,9.98-18.29,14.15-22.67,1.54-1.62,5.17-2.68,7.07-4.18,2.03-.22,5.12,5.19,6.74,6.84,14.23,14.52,27.53,26.33,39.06,43.45ZM198.04,573.11c10.82-3.05,33.05-25.14,35.05-35.66.22-1.13.79-1.54-.54-2.46-7.02,11.92-17.08,23.2-27.63,32.19-.67.57-8.28,4.65-6.88,5.93Z" fill="#fff"/>
  <path d="M590.54,595.46v115.68c-49.15,11.39-104.55,8.97-150.61-12.26-.18-.71,3.44-12.57,4.04-14.17,1.52-4.03,5.16-11.52,7.28-15.87,13.65-27.98,39.28-48.4,62.14-68.7l1.75-.59c23.09,10.53,52.92,6.29,75.4-4.09ZM569.49,669.74c-13.6,6.53-28.14,11.6-43.16,13.7-6.9.96-13.62.75-20.31,1.39-1.16.11-2.13-.18-2.91,1.02.1,3.18,23.05.67,25.87.24,8.41-1.27,33.61-8.36,39.21-14.04.68-.69,1.55-1.13,1.3-2.3Z" fill="#fff"/>
  <path d="M240.77,394.65c-3.47,32.02-42.04,39.02-67.86,30.38-30.14-10.09-36.91-36.91-34.69-65.86.36-4.65,3.71-9.51-2.83-11.66-5.79-1.91-8.64.58-12.33,4.41-10.6,10.99-2.66,27.87,12.23,27.9l3.55,17.75-41.31,15.06c-2.98-5.75-3.93-13.75-.3-19.44,1.05-1.65,3.74-1.88,3.53-4.42-4.36-4.48-7.18-7.75-7.24-14.5-.16-16.75,12.82-18.73,17.98-28.65,2.89-5.56,2.7-14.32,5.36-20.97,7.25-18.07,42.6-41.34,62.46-40.8,8.77.24,17.35,6.01,22.49,6.45,2.16.19,5.1-1.15,7.71-1.19,12.83-.19,23.6.24,31.53,11.92,11.1,16.37,3.39,31.7,4.99,48.25.59,6.09,5.26,13.5,6.39,20.56,1.27,7.91,1.12,16.45-3.09,23.5l-5.31-.76c-1.75-21.83.75-44.33-5.26-65.54,1.85-1.61,4.08-1.17,3.33-4.38-13.56,6.01-25.25,2.22-35.83-7.25-11.85,11.65-26.94,11.38-41.72,5.95-.67,4.96-3.85,8.8-6.91,12.5-1.29,1.56-3.93,2.51-5.25,4.61-4.57,7.26-1.25,34.11,2.73,41.86.54,1.04,6.51,8.57,7.19,8.66,7.76-6.22,19.34-12.4,29.53-12.45,4.53-.02,7.01,2.81,11.14,3.3,6.92.82,10.78-2.23,18.09-.98,6.41,1.09,10.68,3.31,15.49,7.56l1.51-.1,2.4-5.15c2.59-1.7.32.71.32.97,0,3.88.4,8.78,0,12.49ZM180.94,398.92c3.33-1,5.74-3.13,9.23-4.24,8.41-2.67,21.17-3.27,28.55,2.27,3.5-6.12-12.34-7.34-16.41-7.22-5.71.18-20.86,2.22-21.37,9.18Z" fill="#fff"/>
  <path d="M590.42,576.28c-23.93,9.68-51.38,15.47-76.64,7.55l-6.63-19.45c.45-1.77,6.53-5.36,8.14-7.03,5.04-5.23,13.47-15.29,16.42-21.71,1.31-2.85.36-3.56-1.91-1.25-5.06,5.15-9.6,13.26-14.83,18.69-2.26,2.35-20.39,17.79-22.04,17.81-14.77-7.03-28.76-19.8-31.62-36.6.69-2.96,34.37-30.97,39.24-34.42,11.21-7.95,44.49-26.59,57.49-26.05,10.92.45,25.2,8.94,32.37,16.93l.03,85.53Z" fill="#fff"/>
  <path d="M133.27,487.66c6.01-.83,20.11-7.83,25.76-11.05,17.92-10.21,37-27.24,45.68-46.03,19.2-1.28,36.76-15.27,39.02-34.95l53.25,7.24c1.63,1.68,1.79,16.99,1.63,20.04-.71,13.25-5.93,23.25-12.62,34.37-12.33.9-24.58-1.31-36.41-4.43.51-3.73,2.17-25.59.35-26.95-.26-.19-1.37.05-1.92-.03-1.21,17.12-1.87,34.7-6.13,51.4-2.04,7.99-2.56,12.33-10.09,16.21-23.05,11.87-77.94,11.93-102.01,2.92-4.04-1.51-10.14-3.79-9.99-8.74,4.22-.41,9.39.56,13.48,0Z" fill="#fff"/>
  <path d="M130.35,72.89c3.22,2.01,5.23-8,6.43-10.28,9.02-17.15,29.61-27.15,48.76-25.85.42,1.52-.37,1.11-.83,1.51-2.01,1.76-5.49,3.16-7.65,4.8-8.17,6.18-26.1,22.18-31.33,30.46s8.01-2.3,8.98-2.85c27.46-15.48,56.82.27,65.66,28.52-19.08-14.1-42.9-20.12-66.43-15.48-3.45.68-8.02,1.69-10.48,4.3,4.91,2.01,10.26,1.26,15.79,2.29,23.91,4.46,43.53,27.21,38.76,52.27-12.15-21.82-34.62-40.36-60.07-42.78l-.43,1.68c21.04,12.21,30.05,41.3,17.11,62.79l-4.27-21.02c-2.44-10.78-16.98-31.82-28.3-32.88-1.83-.17-3.19.32-4.89.67l1.96-3.94c-23.55,7.03-41.22,26.63-53.24,47.32-3.82-24.63,9.79-41.39,30.66-51.83,2.17-1.09,9.59-2.39,8.78-5.02-.72-2.33-16.29.05-19.2.52-12.88,2.07-27.16,7.46-38.2,14.4-5.73,3.6-10.69,8.51-16.24,12.35,7.31-30.88,41.79-49.15,72.32-43.38,2.64-2.33-11.77-6.7-13.01-7.04-18.92-5.21-37.78-4.11-56.68.46,18.28-18.29,46.84-26.12,68.38-8.21,3.5,2.91,5.76,8.44,10.51,8.22-.35-11.03-6.93-21.58-14.55-29.14l-13.72-11.61c21.55,1.71,43.54,15.7,45.39,38.76Z" fill="#fff"/>
  <path d="M467.99,366.97c1.87,2.61,8.68,14.53,8.85,17.18.5,7.8-8.66,17.73-7.39,26.83-.8,1.74-21.87,9.27-24.04,8.82-.23-.72-1.18-1.12-1.4-1.69-1.77-4.56-9.38-31.61-9.28-35.29.09-3.44,2.49-6.37,1.02-10.87-1.2-3.66-5.41-1.89-7.8-3.21-1.04-.58-1.03-2.81-3.45-3.31-3.02-.62-4.9,1.13-6.66,1.13-1.37,0-2.66-1.23-5.11-1.17-9.47.23-19.8,16.92-25.59,23.44-1.25,1.41-8.97,10.14-9.62,10.43-1.85.85-24.39,1.6-25.92,1.02-1.29-3.24-1.18-6.81-1.03-10.22.35-8.2,3.48-16.8,6.46-24.46l-1.86-1.51c-6.9,10.94-7.63,23.41-7.24,36.15h-25.64c6.38-21.77,19.18-43.7,40.19-54.14,5.16-2.56,12.78-6.34,18.22-3.6,1.1,24.9,36.15,17.66,38.9-2.74,19.15,2.64,36.97,11.28,48.39,27.2Z" fill="#fff"/>
  <path d="M144.54,407.04c12.21,16.39,26.91,23.99,47.88,24.8,1.77.07,8.45-1.69,8.22.26-.6,5.21-15.94,21.73-20.36,25.66-10.77,9.6-31.98,23.22-46.02,26.29-2.32.51-11.58,2.56-11.8-.6-.09-1.25.64-13.56.94-14.2.35-.74,10.61-8.45,12.5-10.51,2.22-2.43,9.91-11.45,6.24-13.49-6.54,11.32-18.19,22.49-30.43,27.42-2.69,1.09-11.25,4.24-12.29-.12,2.85-.29,5.3-4.24,5.9.29l1.35.05c1.56-1.33,2.25-8.67,2.67-11.01.09-.5,1.16-.55,1.23-.99,1.83-12.21-5.75-27.36-17.69-32.09-4.68-1.86-5.55-.64-9.82.11-.97.17-1.6.81-1.38-.72.51-2.68,12.86-9.45,15.84-11.11,13.25-7.41,27.5-13.02,42.23-16.77,1.46,2.43,3.13,4.49,4.8,6.73Z" fill="#fff"/>
  <path d="M414.99,368.04c-6.18,5.3-12.74,10.87-15.12,19.05,1.57,1.53,7.73-8.48,8.95-9.78,4.05-4.31,10.28-10.46,16.69-8.61l-17.75,23.65c3.1,2.73,10.59-11.36,12.49-13.47,1.19-1.31,7.54-6.8,8.94-6.92,7.11-.59,2.73,7.49,1.04,10.98-4.42,9.17-11.97,16.16-16.56,25.17,4.64.47,15.46-8.89,19.34-5.87,1.74,1.35,1.29,4.67.17,6.33-1.05,1.55-19.68,14.83-22.02,15.77-10.71,4.27-15.94-.1-24.72.92-5.4.63-14.72,4.37-20.64,5.65-22.14,4.79-44.58,9.13-67.19,10.71,2.61-13.04,4.83-25.49,1.97-38.78l77.77-.14c1.56-.47,5.49-6.99,7.05-8.72.98-1.09,2.5-1.66,3.62-2.95,6.88-7.92,14.5-22.41,25.96-23.01Z" fill="#fff"/>
  <path d="M4.08,161.97c9.01-9.93,27.55-9.88,33.89,2.93.47.96,2.81,6.7,2.89,7.08.36,1.73-.77,8.31,1.03,8.72,5.84-6.21,12.75-13.17,21.81-7.35,5.76,3.7,3.75,8.75,5.81,13.92,3.09-2.22,6.84-4.13,10.85-2.94-3.83,12.84-7.92,24.99-9.22,38.44-3.9-.86-5.77-2.64-10.14-1.92-2.56.42-4.43,2.89-5.38,3.07-1.66.3-4.41-.98-7.5-.17-2.13.55-4.14,3.31-4.98,3.47-1.06.2-2.9-.76-5.03-.35-6.58,1.25-5.45,6.7-7.76,8.69-.4.35-8.85,4.94-9.35,5.11-3.28,1.11-4.86-.45-7.86,0-3.84.56-5.24,5.08-9.05,3.15v-81.83Z" fill="#fff"/>
  <path d="M470.12,233.36c1.97,6.76,12.06,8.25,15.27,11.39,1.82,1.79,2.08,5.17,4.58,7.25,10.41,8.67,30.09,3.23,38.09-6.56,4.37-5.35,1.88-14.81,10.25-9.56-.98,2.77-2.5,13.68-3.71,15.44-.93,1.36-3.58,1.35-5.24,2.64-2.16,1.67-2.22,4.29-2.75,4.81-.65.62-4.43.93-6.42,3.11-2.53,2.76-5.09,10.85-3.21,14.4.98,1.85,4.14,2.53,4.83,3.71.74,1.26.38,3.43,1.39,5.18s3.97,2.27,4.22,4.32l-6.7,34.37c-8.64,2.33-41.2.12-46.85-6.46-3.69-4.29-5.99-32.63-5.6-39.07.27-4.5,1.95-9.19,2.18-13.61.06-1.06.96-1.54-.55-2.5-6.68,9.73-5,23.02-4.25,34.37l-4.97,1.79c-1.41-7.44-1.75-15.4-5.37-22.08,7.99-5.55,9.37-14.43,7.5-23.44-.49-2.35-3.16-7.61-2.98-9.23.27-2.5,7.72-11.53,10.3-10.28Z" fill="#fff"/>
  <path d="M430.78,477.8c7.2,4.1,7.86,15.04,4.41,21.83-1.31,2.59-5.47,4.69-4.61,6.89l26.49,28.32c2.55,2.63,2.53,6.6,4.03,9.58,5.54,11.08,12.5,17.51,22.25,25.09l-10.71,6.32c-27.59,14.08-47.81-18.73-56.82-40.03-1.97-4.65-3.4-12.18-5.47-16.08-1.61-3.02-9.57-8.51-12.43-12.23-2.67-3.48-6.48-9.89-6.51-14.33-.05-7.03,14.87-22.75,21.6-24.26,8.98-2.02,18.76,7.56,11.86,15.81-1.18-.65-12.76-7.13-11.84-2.66.25,1.2,10.39,3.8,11.56,6.21,1.34.23,6.4-8.65,6.2-10.48Z" fill="#fff"/>
  <path d="M244.58,239.99c.79,1.47-1.88,9.81-4.14,10.38l-71.99.66c.51-6.41-4.75-12.7-11.82-11.85-2.05-13.28-13.65-14.83-24.99-11.15-1.99-13.77-15.93-14.27-26.3-9.21l1.08-3.84c19.07-4.31,41.75-21.1,61.64-18.45,7.01.93,18.74,8.04,25.17,11.64,17.54,9.82,33.89,21.85,51.35,31.81Z" fill="#fff"/>
  <path d="M462,77.51c-.57-.13-2-1.14-2.21-1.77.19-10.49,15.28-8.49,22.26-6.12-.95-14.14,11.82-25.71,25.67-19.41,2.33,1.06,4.84,4.41,7.42,3.67.74-.21,2.03-4.71,2.79-5.91,5.94-9.41,15.76-14.5,26.83-10.47,6.28,2.28,5.89,5.49,10.09,9.7,4-2.11,6.99-3.22,11.72-2.58,3.35.45,3.76,3.43,5.89,3.39,2.72-.06,2.35-2.46,3.93-4.04,4.5-4.49,7.41-5.92,14.15-5.24v38.78h-128.53Z" fill="#fff"/>
  <path d="M409.33,275.11c2.45,2.35,4.04,5.18,6.67,7.46,3.38,2.93,7.12,3.95,10.34,6.75,1.32,11.95,4.1,24.72-4.36,34.44-13.56,15.59-35.88,23.06-53.32,8.77-15.97-13.09-11.35-44.94-3.14-61.6l16.15-9.26c6.57,4.7,13.92,7.97,21.44,10.78,3.59,1.34,2.46-.94,6.21,2.67ZM362.4,280.61c2.89,2.24,17.52-2.33,17.04-5.49-.54-3.55-7.23,1.1-9.17,1.87-1.24.49-9.23,2.03-7.87,3.62ZM396.91,274.72c-.45.06-1,1.03-1,1.62,0,2.12,15.15,12.81,16.45,8.52.81-2.68-4.64-3.43-6.58-4.56-1.39-.81-8.33-5.65-8.87-5.58ZM376.05,289.3c-1.68-3.5-9.76-1.54-9.04,5.38.92,8.95,12.59,2,9.04-5.38ZM398.08,291.32c-2.54,2.01-2.04,9.31,1.83,10.63,8.82,3.01,5.56-16.47-1.83-10.63ZM382.77,300.99c-7.63-1.03-8.16,12.26-.66,8.86-4.18-4.71-.22-4.49.66-8.86ZM395.76,329.75c4.77-8.92-9.97-13.19-16.45-10.2-1.98.92-6.6,5.97-4.27,8.24,1.41,1.37,19.62,3.07,20.72,1.97Z" fill="#fff"/>
  <path d="M398.15,187.03c1.7,3.29,6.01,9.74,10.01,10.09,2.72.23,3.83-1.79,6.88.3,3.25,2.23,2.17,8.46-.03,11.23-4.35,5.48-12.43,1.28-13.08,2.39-3.63,23.06-29.25,33.29-50.05,24.53-19.57-8.24-16.72-41.78-11.79-58.31.07-.23,2.38-3.97,2.57-4.13,1.43-1.17,25.35-6.61,27.13-6.13,4.25,3.34,10.02,7.14,14.92,9.45,2.67,1.26,9.82,2.67,11.18,3.94,1.73,1.61,1.17,4.57,2.24,6.64ZM355.82,176.76l-12.7,4.59-.45,1.98c2.12,1.18,15.44-4.24,13.15-6.57ZM388.59,184.09c-1.57.54-19.76-11.24-15.55-3.5.4.74,14.53,7.17,15.65,6.03l-.1-2.53ZM352.93,197.56c1.3-2.66,1.22-5.46.63-8.35-14.72-3.97-5.64,18.59-.63,8.35ZM380.61,201.53c2.9-2.31,1.84-11.7-2.65-11.47-8.21.43-3.83,16.64,2.65,11.47ZM358.27,201.86c-4.58,1.33-4.85,9.8,1.13,9.72,2.92-1.84-1.79-3.11-1.55-4.82.2-1.46,4.19-2.59,3.89-4.03-.24-1.12-2.45-1.16-3.47-.87ZM360.27,219c-4.38.66-9.23,5.99-5.1,8.04.75.37,15.7,1.57,16.68,1.44.8-.1,1.52-.5,2.05-1.11,2.97-8.42-7.94-9.23-13.64-8.37Z" fill="#fff"/>
  <path d="M445,263.1c12.53,16.34,10.95,36.58,14.78,55.22,3.63,17.64,22.28,29.08,20.85,47.98-.29,3.86-2.82,6.46-3.2,10.28-3.55-4.6-5.57-9.98-9.21-14.59-5.01-6.35-12.34-12.31-19.28-16.41-2.76-1.63-6.44-1.91-8.6-3.89-.92-.85-7.89-12.48-8.45-13.92-3.81-9.78-.73-20.35-1.11-30.42-1.21-32.54-24.48-51.12-56.56-46.32l5.1-3.77c23.46-10.38,49.99-4.61,65.67,15.83Z" fill="#fff"/>
  <path d="M235.48,327.96c-.38,2.71,1.87,3.79,2.37,5.82,2.23,9.05,2.58,31.7,1.59,41.15-1.34,12.75-6.01,4.49-13.26,2.1-2.1-.69-4.89-.74-7.11-1.11,1.56-2.85,1.6-5.31.86-8.42-1.01-4.27-5.57-7.76-6.96-10.81-1.99-4.36-2.31-11.12-3.76-15.83-5.06-1.94-.35,12.99.64,15.7,2.07,5.67,14.15,16.19,3.33,19.74-9.02,2.96-15.17-3-23.85-2.15-10.09.99-19.58,5.56-27.45,11.64-8.3-13.77-10.15-29.4-7.77-45.21,5.8-2.8,10.56-9.74,12.37-15.91,12.52,5.26,26.43,4.35,37.71-3.37.95-.65,1.65-1.32,1.74-2.54h.97c6.64,7.74,18.6,11.47,28.58,9.22ZM214.17,345.33c1,1.09,1.44,2.18,3.24,2.25s17.01-6.7,18.08-8.15c1.38-1.86.76-5.04-1.33-5.92-1.89-.79-21.2,7.37-21.6,8.66-.35,1.82.72,2.19,1.61,3.15ZM170.57,335.32c-1.28,2.86-1.96,4.98.82,7.09,1.85,1.4,20.27,6.32,23.1,6.53,6.97.51,9.01-5.73,2.21-8.18-3.75-1.35-19.41-5.82-22.86-6.12-1.2-.1-2.27-.08-3.27.68ZM226.12,348.45c-5.67,1.23-5.9,12.93-1.78,14.64,10.52,4.38,11.27-16.69,1.78-14.64ZM178.54,362.55c.27.51,3.38,3.26,4.2,3.41,4.94.29,6.33-4.64,6.12-8.79-.68-13.34-15.81-5.16-10.32,5.38Z" fill="#fff"/>
  <path d="M39.82,428.93c7.49,7.86,13.7,17.37,20.15,26.23l-10.54,5.87c-1.19.68-5.58,6.24-2.95,6.9,1.24.31,2.99-3.79,3.95-4.59,1.09-.9,17.84-10.52,19.6-11.3,2.07-.92,4.16-1.65,6.43-.91l1.31.82c3.64,5.37-11.37,16.94-14.52,21.05-.65,2.55.98,2.95,3.01,1.55.84-.58,13.13-14.43,13.57-15.36,2.53-5.42,1.5-11.51-5.63-10.94-3.53.28-9.52,5.79-11.8,5.27l-4.4-6.27c7.53-2.38,22.39-15.82,29.24-16.17,8.21-.43,19.08,12.23,20.07,20.1.38,3.05.28,12.64-1.38,15.05-1.28,1.86-13.44,6.24-16.39,7.28-13.21,4.65-39.6,13.87-52.36,8.35-8.42-3.64-22.01-24.49-24.85-33-.8-2.41-3.05-7.62-.36-9.18.11,2.74,10.67,18.68,12.16,18.4.83-.16,1.02-1.28.87-2.15-1.02-5.76-16.8-18.3-9.56-25.02l2.29.39c.33,2.69,10.95,23.37,13.97,20.21.92-3.5-2.27-4.24-3.3-5.76-2.47-3.67-15.79-24.1-4.21-21.24,2.37,3.65,11.82,21.75,15.09,22.39.42.08.86.03,1.29.02l.35-1.65-12.54-19.72c4.46-7.18,8.02-.22,11.45,3.38Z" fill="#fff"/>
  <path d="M143.78,248.08c2.76,3.23.87,5.01,1.64,7.74.17.61,4.06,2.22,4.48,6.23.46,4.43-3.15,6.65-3.15,7.05,0,.37,3.45,2.48,3.12,6.42-.38,4.67-5.07,5.73-5.16,6.14-.34,1.54,2.8,6.38,1.04,10.12-.76,1.61-10.05,7.59-11.85,9.86-1.33.06-3.21-7.64-.32-7.24l-1.32-.98c5.37-4.12-2.18-6.75-2.54-7.99-.32-1.12,1.15-3.91.57-5.48-3.66-.05-3.1,4.06-4.97,6.53-3.19,4.21-7.63,3.42-10.48-.6-.85.07-1.95,9-7.96,9.81-1.92.26-5.61-1.32-6.56,0,2.62,6.75-3.26,7.16-4.1,9.68-.96,2.86-.48,13.68-1.73,15.36-1.98,1.16-10.63,1.08-11.45-1.12l-.08-20.97c-1.6-1.17-2.83,1.66-3.08,1.69-2.9.32-9.31-2.07-12.45-2.6-3.62-.61-7.12,2.01-9.46-3.01,13.06-.76,25.69-5.8,30.27-18.71.76-.63,9.49,3.31,13.03-3.07,4.91-8.84-3.23-13.54-9.11-18.32-.43-1.95,7.93-3.15,8.53-8.61.8-7.37-7.94-5.61-4.62-12.46,3.47-2.06,7.03,1.46,8.94,1.67,2.17.23,5.13-1.23,8.38-.5,2.24.51,4.34,3.53,6.1,3.81,4.54.74,4.57-2.11,10.76,1.68,1.72,1.05,4.74,4.91,5.32,5.24,1.95,1.1,4.42-1.81,8.2,2.61Z" fill="#fff"/>
  <path d="M317.27,251.26c-5.32,8.26-11.3,13.63-21.69,14.81-35.55,4.02-36.73-33.51-31.86-58.81,9.01-3.58,17.92-7.78,25.38-14.04,4.51,3.83,10.51,7.64,15.75,10.52,2.88,1.59,12.44,4.78,14.13,6.25.96.84,4.73,11.13,5.01,12.74,1.6,9.3-1.87,21.01-6.71,28.53ZM312.34,211.67c-4.12-.41-10.47-5.76-13.69-6.37-1.14-.21-1.19-.38-2,.71-.94,3.57,16.2,12.04,15.69,5.65ZM278.58,205.7l-12.17,7.53c1.62,3.61,17.92-6.81,12.17-7.53ZM278.07,229.17c2.82-2.85,1.43-11.64-3.2-10.67-7.78,1.62-4.76,15.06,3.2,10.67ZM306.4,219.61c-7.34-4.12-10.45,12.17-1.82,10.12,4.83-1.15,3.49-9.18,1.82-10.12ZM284.84,235.29c.15-.23,6.1-1.93,2.19-3.26-6.26-2.14-9.63,9.34-.63,8.45l.73-1.27c-.88-.75-3.07-2.69-2.28-3.91ZM297.87,256.85c6.46-12.4-22.03-10.8-17.33-1.87,1.08,2.06,14.23,1.57,17.33,1.87Z" fill="#fff"/>
  <path d="M432.36,211.99c6.43,15.04,12.43,18.51,21.41,30.18,6.93,9,11.71,24.42-.63,30.55-2.7-8.63-10.12-17.12-17.16-22.62-2.51-1.96-7.39-3.72-9.49-5.64-2.42-2.2-5.04-8.71-6.99-11.73l-1.87.22,2.94,9.55c-7.45-3.78-17-1.51-23.66-6.58-1.23-.93-3.64-2.97-2.65-4.58,4.61-4.56,8.65-9.7,9.62-16.38,10.51.61,17.63-5.07,15.67-16.13-1.45-8.16-10.76-3.89-13.48-5.59-3.12-1.94-5.9-12.06-6.98-15.69-10.73-1.71-19.88-6.89-27.86-13.93l-34.25,7.84-2.57-.57c-3.25-4.52,13.75-10.73,16.81-11.55,28.88-7.84,49.81,11.24,73.97,22.69,1.04,10.52,3.02,20.23,7.18,29.97Z" fill="#fff"/>
  <path d="M590.54,485.69c-5.26-4.17-11.04-8.06-17.31-10.63-3.3-1.36-14.89-3.88-16.2-4.83-1.6-1.16-2.61-4.97-.38-5.29,8.75,1.76,14.07-.74,17.16-8.78.49-1.26.01-2.96.44-4.16.6-1.68,2.98-3.3,3.77-5.43,2.04-5.51.36-11.62,1.35-16.4.68-3.28,4.94-5.12,4.97-10.65.02-4.54-2.93-5.45-3.32-8.02-1.4-9.26,1.81-13.75-3.52-24.19-1.04-2.03-6.47-8.45-6.66-9.24-3.31-13.76-3.34-23.52-9.71-37.46-.46-1-2.91-2.75-3.3-4.62-.8-3.78.31-7.6.49-11.34,11.26,3.17,23.48,5,32.22-4.6v165.64Z" fill="#fff"/>
  <path d="M240.76,253.01c-1.51,4.15-2.44,8.3-3.34,12.63-.11.51-1.16.55-1.23.98-1.36,9.05,2.19,19.78,8.98,26.14l-2.77,4.92c-7.05-8.25-17.36-12.65-28.28-12.53-3.44.04-10.11,2.34-12.43,2.02-1.42-.19-6.38-3.24-8.58-3.95-14.12-4.57-31.61-1.9-43.73,6.59-1.94-7,1.02-6.01,2.75-10.06,2.57-6.04-.15-6.79-.06-10.65.03-1.15,1.18-2.19,1.21-3.31.16-5.28-.1-8.14-3.9-12.11l91.38-.66Z" fill="#fff"/>
  <path d="M363.27,250.17c.44.6,3.71,2.35,3.7,3.17-7.21,5.38-11.44,14.05-11.79,23.02-.18,4.47,1.32,8.23,1.36,12.48.04,5.92-1.42,12.49-1.4,19.08,0,2.66,1.41,6.6,1.27,9.12-.42,7.95-4.32,11.12-11.41,6.27-7.87-15.65-12.22-32.39-7.95-49.95l2.98-9.83c-10.46,12.31-7.96,32.12-3.61,46.67l4.92,13.14c-4.33-.58-25.41-2.33-27.63-4.91-1.25-1.45,1.57-14.77,2.19-17.56,2.78-12.47,9.16-38.87,17.27-48.46,4.6-5.44,15.69-12.69,23-12.57,4.32.07,4.33,6.63,7.07,10.33Z" fill="#fff"/>
  <path d="M289.36,573.82c6.85,23.13-.57,48.65-6.01,71.43-10.59,3.43-21.83,2.85-32.68,1.43l3.2-46.91-8.5-10.88,43.99-15.07Z" fill="#fff"/>
  <path d="M514.03,447.33c-.66,1.69-4.77,8.46-6.06,10.04-.6.74-3.99,4.68-4.87,4-3.85-12.74-16.13-21.33-29.27-22.34-6.27-.48-30.93,6.02-22.97-9.18,3.82-7.29,16.43-11.43,19.92-16.24,2.87-3.96,3.37-17.79,7.63-20.66l1.83-.5,37.65,16.33c2.31,4.97-1.53,32.52-3.86,38.54ZM500.28,409.93c.82-.95,1.1-2.59.53-3.76-.85-1.1-1.99-1.7-3.35-1.94-3.45-.6-16.28-1.14-19.69-.7-.98.13-1.97.18-2.79.81l-.22,4.83c3.72,2.02,23.19,3.46,25.52.75ZM479.02,416.91c-5.53,8.58,4.19,17.51,7.45,6.48,1.14-3.87,1.65-7.5-2.8-9.35-1.49-.3-3.93,1.75-4.65,2.87Z" fill="#fff"/>
  <path d="M117.82,609.26c-5.87,10.17-12.05,20.47-18.84,30.05-1.89,2.67-10.64,15.12-12.23,16.19-7.23,4.92-27.81-1.4-35.33-5.51,3.06-7.99,5.49-16.28,9.09-24.09,4.13-8.97,10.44-17.67,14.01-27.08l23.45,7.6,19.85,2.83Z" fill="#fff"/>
  <path d="M582.91,269.84c2.9,5.71,6.71,12.54,7.57,19.05.54,4.06.65,21.7-.25,25.27-1.14,4.52-6.27,7.95-10.51,9.21-18.48,5.5-29.4-9.1-35.85-24.03,1.83-1.86,4.69-.54,7.25-1.27,5.23-1.5,11.44-15.31,10.49-20.74.74-.11,1.29,0,1.96.33,4.49,2.21,13.15,11.93,17.3,13.66,1.05.44,1.68.28,2.68-.14.64-.04.55-1.34.43-1.67-.49-1.34-18.7-14.06-21.6-15.59.75-11.36-4.14-17.39-14.57-20.94l3.29-13.13c16.2,5.13,24.46,15.52,31.81,29.98Z" fill="#fff"/>
  <path d="M483.37,715.75c1.17,1.29-4.07,7.44-4.79,8.72-3.65,6.52-6.66,13.42-10.16,20.01-.86,1.63-4.07,4.28-4.61,6.6-.8,3.42.06,16.5-2.16,18.22-10.57,2.1-22.36,1.48-32.55-2.26-.99-1.55.73-12.74,1.31-15.16,1.17-4.83,4.23-9,5.79-13.93,1.21-3.84,7.23-33.14,9.11-33.29l38.05,11.1Z" fill="#fff"/>
  <path d="M486.66,203.71c-3.61-3.51,11.17-20.74,11.57-22.97.13-.69-1.08-2-1.38-2-.61,0-7.12,8.4-7.7,9.36-2.17,3.57-5.03,15.02-5.77,15.95-1.03,1.29-11.44,4.62-12.85,8.2l-1.5-1.1c-2.7-6.68-3.12-15.46-2.15-22.93.15-1.17,1.27-.91,1.35-1.41.56-3.58,1.78-19.77,5.61-20.57,1.7-.36,7.65-.61,9.83-.69,16.61-.59,35.92,2.95,51.01,9.69.82,16.93-1.7,33.16-17.44,42.26-2.28-4.91-15.47-13.79-20.38-13.79h-10.19ZM473.61,172.91c-.84,1.94-1.6,4.19.71,5.33,1.59.79,16.38,3.82,17.31,2.49.47-1.82.93-3.99-.8-5.2-1.53-1.07-15.8-3.51-17.22-2.63ZM504.74,182.67c6,1.04,14.72-.77,21.04,0,1.5-1.33,1.6-3.97-.1-5.15-2.34-1.63-22.3-.93-23.76,1.31-1,1.11,2.06,3.71,2.83,3.84ZM476.61,186.1c-4.09,1.25-4.36,10.51-.04,10.88,5.78.49,8.48-13.45.04-10.88ZM512.11,188.73c-3.48,1.04-4.84,6.96-2.16,9.76,6.25,6.52,12.19-12.76,2.16-9.76Z" fill="#fff"/>
  <path d="M578.04,410.43l-1.34.71c-29.25-8.62-54.05-27.68-83.47-35.88,16.64-18.5,39.45-17.91,60.27-6.67,8.73,4.72,24.54,18.65,24.54,29.36v12.49Z" fill="#fff"/>
  <path d="M268.38,378.55c1.8.18,1.05-.02,1.29-.99,1.48-6,.95-11.99,4.37-17.46l34.45.7c-1.1,5.35,1.53,11.83,1.33,16.73-.27,6.71-5.41,14.69-1.34,22.04-18.93.23-38-1.88-56.54-5.26,7.13-13.55,2.81-27.77-1.32-41.4,1.34-1.27,17.16,6.08,20.11,6.55.65.98-2.36,7.22-2.36,8.9v10.19Z" fill="#fff"/>
  <path d="M349.9,437.05c-3.27,7.37-5.28,15.42-8.36,22.83-.29.71-1.2.8-1.45,1.35-.8,1.79-1.17,5.77-2.07,6.99-3.02,4.06-47.13,4.69-54.22,4.34-5.06-.25-34.79-3.46-36.39-7.68-.13-1.87.44-9.33,2.36-9.44,11.75,3.72,24.39,4.45,36.68,4.61l10.33-15.35c17.87-1.31,35.62-3.97,53.11-7.66Z" fill="#fff"/>
  <path d="M40.73,247.27c.67.76.51,2.83,2.42,4.47,4.54,3.89,7.79-.16,11.23.02,1.37.07,4.65,2.42,7.28,2.5,3.01.09,6.52-2.29,7.83-2.31,1.54-.02,4.21,1.97,7.91,1.75,4.29-.25,6.09-3.27,10.54-.07.8,1.13.12,14.57-.4,16.65-.19.77-5.11,9.65-5.89,10.66-4.38,5.67-13.17,10.19-20.38,10.19-1.94-7.08,9.76-4.37,7.22-11.83-1.43-.93-4.57,4.3-7.66,4.43-2.7.11-2.16-3.07-4.82-2.46-.89,4.69,4.01,4.93,2.63,9.86-10.05-.25-20.92-8.07-24.24-17.51-1.66-4.71-3.43-20.53-1.07-24.56.71-1.22,5.93-3.45,7.39-1.8ZM56.78,259.68c-2.39,1.46-.18,15.34,4.86,7.16,3.23-5.24-1.1-9.45-4.86-7.16ZM83.96,259.82c-3.87.03-5.48,12.45,1.03,8.01l1.17-6.49c-.27-.79-1.4-1.53-2.2-1.52Z" fill="#fff"/>
  <path d="M307.83,289.82l-.83,1.46c-2.68.08-14.46,8.95-14.3,10.67.14,1.47,2.16.46,2.78.17,4.62-2.14,8.81-9.43,15.2-8.97,7.18,2.71-13.12,11.18-12.72,14.4,2.16,1.84,12.8-8.3,14.78-8.55.96-.12,1.2-.08.93.92-.98,1.94-.98,3.81-2.2,5.7-.58.9-14.22,14.46-15.16,15.08-5.29,3.48-7.56,4.71-12.91,8.79-4.4,3.36-29.23,23.66-33.48,20.52-.98-3.3.29-26.46,1.33-27.68l23.37-11.47c4.81-8.91,10.02-19.11,21.35-20.38-1.51,1.62-8.41,5.03-7.89,7.54.48.48.79,1.14,1.63,1,.72-.12,9.01-7.51,11.73-8.65,2.35-.98,3.82-1.64,6.36-.54Z" fill="#fff"/>
  <path d="M341.36,325.98c-3.6,5.52-1.58,13.14-2.78,19.23-.7,3.56-5.09,8.29-6.22,12.84-1.31,5.28.16,10.33-.55,14.02-.24,1.26-4.62,6.95-5.69,9.32-2.37,5.27-4.43,11.25-5.81,16.88-2.44.39-1.19-5.97-2.08-7.11l-2.21-.63c-2.51.77.32,9.12-.3,9.71-11.93.15-2.88-16.28-2.59-21.37s-1.87-13.44-2.05-19.02c-.4-12.73.17-25.42,1.44-38.06l28.83,4.19Z" fill="#fff"/>
  <path d="M579.19,414.88c2.52,2.32,1.34,10.14-1.43,11.71s-18.81-4.23-22.71-5.65c-24.48-8.97-48.05-22.45-72.81-31.06-6.46-8.74,4.04-13.16,12.34-11.68,18.33,3.29,44.89,21.78,63.29,29.4,3.25,1.35,20.49,6.52,21.32,7.28Z" fill="#fff"/>
  <path d="M324.92,208.31c-12.18-4.04-25.06-9.68-34.52-18.44-10.94,5.52-21.82,15.76-35.18,14.16,7.34-23.68,32.46-34.68,55.89-28.25,3.36.92,15.5,6.46,16.74,9.55,1.66,4.11-3.48,17.67-2.95,22.99Z" fill="#fff"/>
  <path d="M237.48,494.24c-.2,2.17.31,4.69,0,6.79-.09.64-1.15.17-1.33.77-.45,1.51,1.99.73,1.31,1.62-.03.04-.82-.11-1.04.24-6.11,9.76-39.69,13.71-51.23,14.22-15.82.7-45.97-.87-59.93-8.42-7.81-4.22-6.59-5.52-4.81-13.92,14.23,6.53,30.03,9.14,45.66,9.88,23.85,1.13,49.77-.65,71.36-11.19Z" fill="#fff"/>
  <path d="M322.26,266.18l-7.21,26.91c-1.77-2.93-5.37-2.32-6.35-5.94l-19.28,1.67c-2.16.79-8.25,6.02-9.84,7.91-2.55,3.01-4.99,10.15-6.27,11.48-.53.55-13.06,6.8-13.79,6.59l4.6-23.01-4.87,8.41c-1.08,3.29-2.16,15.01-3.02,16.57-.29.52-5.26,2.95-5.59,2.62-.61-2.8-.57-6.71-1.39-9.33-.5-1.61-3.34-5.75-3.73-8.26-1.16-7.46,13.37-23.42,19.64-27.37,1.93-1.22,10.23-5.64,12.01-4.95,2.67,7.26,2.99,12.42,11.45,14.89,12.79,3.73,26.17-7.1,28.42-19.54l5.22,1.35Z" fill="#fff"/>
  <path d="M4.08,247.09c5.45.27,7.57-5.69,13.8-2.62l-1.3,1.95c2.15.14,1.44,2.55,3.43,3.47,2.58,1.19,6.87.13,9.71.48v16.1c0,10.1,8.02,19.74,16.43,24.33,1.47.8,11.34,3.64,9.21,5.57-1.34,1.22-5.98-3.39-7.69-3.8-3.05-.72-5.35.72-7.69.51-1.59-.15-3.83-1.98-6.58-1.89s-5,2.24-6.09,2.39c-1.42.19-3.34-1.46-6.3-1.01-2.38.36-4.27,2.74-5.52,2.96-1.06.18-2.5-.72-4.32-.32-2.47.54-4.78,1.51-7.09,2.48v-50.61Z" fill="#fff"/>
  <path d="M95.26,248.84c-4.84,4.53-10.47-1.15-11.83-.99s-3.55,3.42-7.34,3.22c-2.53-.13-5.37-3.26-6.59-3.14-.65.06-1.91,2.05-3.14,2.58-7.8,3.33-8.81-2.75-11.3-2.76-1.27,0-4.36,2.71-7.09,2.49-5.43-.45-4.44-8.16-7.41-8.45-2.27-.22-12.93,9.65-18.67,5.59-6.05-4.28,10.02-8.64,10.96-9.66,1.52-1.64.72-5.8,4.29-7.22s5.61.49,7.28.2c.56-.1,1.56-3.41,4.07-3.96,3.1-.68,7.42,1.34,7.81,1.24,1.02-.25,1.97-4.15,7.3-3.96,3.08.11,4.64,2.43,5.91,2.45,2.05.04,4.13-1.85,8.27-.79s2.94,4.23,5.03,4.88c2.48.76,4.43-1.87,8.05.46,4.24,2.72.17,5.43.99,7.51.74,1.87,8.88,5.22,3.43,10.32Z" fill="#fff"/>
  <path d="M565.31,110.61c4.71,4.61,5.37,11.6,4.83,17.82l-24.42,122.82-7.12,1.1c3.12-17.6,5.72-35.38,9.18-52.92,3.86-19.56,9.42-40.76,13.2-60.46,1.66-8.67,5.52-24.38-7.78-25.18-11.03-.66-10.19,11.53-18.89,9.74-4.07-6.33,7-15.25,12.15-16.81,5.85-1.78,14.43-.44,18.86,3.89Z" fill="#fff"/>
  <path d="M590.54,254.98c-.47.46-12.45-.73-13.13-1-1.47-.58-9.83-9.36-12.97-11.35-3.96-2.52-8.44-4.02-12.74-5.79l5.98-31.16c12.53,1.69,23.87,8.15,32.86,16.77v32.54Z" fill="#fff"/>
  <path d="M456.84,111.92c8.04,9.3,1.89,40.84.29,53.38-.15,1.16-1.27.9-1.34,1.42-2.75,21.71-4.39,43.61-7.59,65.25-.92-1.98-5.01-5.33-5.65-6.84-1.11-2.61.86-18.9,1.39-22.93,2.53-19.19,7.1-40.62,9.09-60.7.75-7.55,3.51-27.01-8.73-26.47-8.55.37-9.49,12.97-8.84,19.25.34,3.31,5,12.97-.44,13.58-6.75.75-8.46-15.62-8.17-20.05,1.01-15.95,17.76-30.04,29.99-15.88Z" fill="#fff"/>
  <path d="M4.08,302.63c1.39-5.93,11.56-2.81,12.97-3.37,1.05-.42,1.24-1.94,2.15-2.53,4.59-2.94,6.63,1.04,8.1.86,2.44-.29,7.52-6.68,11.36.72,1.73.41,4.53-5.14,10.36-1.17,1.16.79,1.68,2.82,2.85,3.12,1.96.5,3.69-2.94,7.92-.16,2.6,1.71,1.98,5.53,3.13,6.81,1.36,1.51,7.12,1.44,7.36,6.34.37,7.49-9.31,1.01-10.72,7.43-2.49.38-3.53-2.71-5.79-2.61-1.84.08-3.8,2.73-6.65,2.67s-4.82-3.23-6.56-3.28c-3.3-.1-4.29,5.96-9.15-.09-.66-.82-.64-2.66-1.18-3.1-.34-.27-8.06-2.37-8.4-2.1-.12.1.2,1.5-.13,1.78-3.02,2.47-6.41-.33-7.08.2-.11.09.07,1.7-.98,2.64-2.61,2.34-6.79,4.8-9.57,7.21.93-5.92-1.26-15.99,0-21.36Z" fill="#fff"/>
  <path d="M67.2,321.36v20.05c0,3.04-5.95,13.54-9.43,12.87-.76-.15-2.9-6.34-6.35-4.65-1.91,2.51,5.92,5.3,3.94,6.9-10.8,4.02-25.89-4.66-30.09-14.62-.68-1.62-2.74-8.44-2.52-9.73.16-.92,7.96-8.47,8.6-10.8,3.17,4.25,7.32.03,9.1.12,1.46.07,3.1,1.99,6.69,1.89,2.49-.07,3.89-1.27,5.29-1.34,1.74-.1,3.08,1.21,5.05,1.14,2.83-.1,6.22-2.94,9.71-1.82ZM39.74,337.63c4.67,4.73,8.85-7.68,3.19-8.74-4.25-.79-5.18,6.72-3.19,8.74ZM65.72,330.73c-3.35-3.46-7.75,5.04-4.63,7.13,3.82,2.56,7.19-4.47,4.63-7.13Z" fill="#fff"/>
  <path d="M260.49,207.65c1.52,1.55-1.33,5.25-1.37,5.55-1.79,15.57-1.16,38.71,11.56,49.66,1.62,1.4,4.41,1.93,5.58,3.94-8.12,1.88-16.13,6.69-21.67,12.85-1.61,1.79-6.02,9.76-8.15,9.42-13.46-12.33-3.2-33.75,1.46-48.29.38-1.19,1.84-3.03,2.53-5.39,1.26-4.3,4.53-27.15,5.86-27.66.55-.21,4.04-.24,4.19-.09Z" fill="#fff"/>
  <path d="M535.28,453.51c.15.15.08,3.18.58,4.32,1.13,2.59,5.89,8.82,8.5,9.93,2.23.95,9.89.21,9.35,2.47l-42.09,18.44-3.91-5.89c6.43-4.61,11.27-8.33,14.3-15.98,4.97-12.58,5.75-26.58,6.41-40.26,1.38-3.28,9.33-2.96,12.19-2.35,10.68,2.28,9.33,22.61-1.87,25.81-1.92.55-9.19.32-9.34,1.19-.41,2.43,5.65,2.08,5.89,2.32Z" fill="#fff"/>
  <path d="M553.06,164.27c-22.21-11.76-48.92-18.47-73.95-13.14l-.33-1.31c3.11-1.72,5.32-5.09,8.33-7.12,17.02-11.48,47.22-10.65,62.35,3.81,6.41,6.13,4.75,9.77,3.6,17.76Z" fill="#fff"/>
  <path d="M590.54,591.84c-12,10.8-63.41,15.25-73.97,5.59-3.02-2.76-1.17-7.03-1.63-10.52,24.98,5.92,52.24,2.31,75.6-7.89v12.82Z" fill="#fff"/>
  <path d="M516.9,341.08l-2.79,17.6c-7.31,1.8-13.17,5.8-18.92,10.33-1.61,1.27-3.36,4.21-4.43,4.95-2.78,1.92-8.71,2.52-12,4.58,4.57-4.28,4.48-14.54,3.86-20.61-.93-8.98-6.92-15.19-11.09-22.76,14.95,5.23,29.52,6.86,45.36,5.91Z" fill="#fff"/>
  <path d="M526.76,273.38c-1.43-8.71,4.21-7.64,10.87-7.25,3.34.2,10.92,3.7,9.47-1.25l-17.09-1.65c-3.62-13.03,18.07-7.99,23.66-3.94,10.44,7.55,4.61,37.98-7.34,36.31-5.39-.75-4.33-5.61-5.76-6.78-3.2-2.61-19.78-.88-13.15-11.86,2.09-1.21,16.76,3.77,15.78-.62l-16.44-2.96Z" fill="#fff"/>
  <path d="M473.73,155.95c5.55-5.54,32.7-3.28,40.68-2.02,12.86,2.04,27.32,6.36,37.2,14.76.26,1.83-.88,9.27-2.79,9.38-23.11-11.85-49.33-16.92-75.32-14.73l-1.98-2.04c-.18-1.24,1.3-4.45,2.22-5.36Z" fill="#fff"/>
  <path d="M444.17,428.29c.1.21.75.23,1.06.22v1.29c-23.66,10.75-52.5,11.48-76.9,2.96,6.04.11,15.45-4.7,20.82-4.72,7.75-.02,12.54,2.72,21.43-.36,3.87-1.34,24.16-15.44,25.62-18.42.59-1.2.53-2.5.5-3.78,4.3,6.05,4.19,16.09,7.47,22.79Z" fill="#fff"/>
  <path d="M559.92,346.07c3.2,6.75,7.64,19.76,7.83,27.35.02.71.83.97-.56,1.83-10.18-10.08-24.92-16.14-39.12-17.74l3.35-17.02,23.83-3.28c1.29.38,3.9,7.26,4.65,8.85Z" fill="#fff"/>
  <polygon points="590.54 713.77 590.54 750.58 549.12 720.35 590.54 713.77" fill="#fff"/>
  <path d="M19.85,333.85l5.25,14.15,9.87,9.5c-3.33,3.86-13.67-.89-14.68-.59-.9.27-1.27,1.89-2.06,2.59-.69.62-2.26.65-2.67,1.27-1.55,2.36.87,16.96-.42,20.61-.78,2.19-7.39,1.94-7.69,1.65-1-.97-.48-4.05-.77-5.34-1.29-5.71-2.28-12.72-2.59-19.22-.39-8.18.25-16.46,0-24.64,5.26,2.99,10.39,2.37,15.76,0Z" fill="#fff"/>
  <path d="M281.53,648.7c.28,8.88-7.67,11.55-12.74,17.82-3.07,3.8-6.56,8.92-7.65,13.72l-15.45-5.9c-1.65-2.83,1.25-16.88,2.37-20.53.17-.54,2.39-1.76,1.26-4.46,10.71,1.37,21.65,2.23,32.21-.65Z" fill="#fff"/>
  <path d="M148.72,251.03c-1.09-9.66-6.48-6.64-11.18-8.87-1.32-.63-3.83-5.01-8.06-6.4-3.68-1.21-6.41.03-9.22-.63-2.45-.58-5.33-4.24-9.43-4.45-2.2-.11-5.99,2.35-7.2.65.32-8.11,1.13-10.6,9.44-11.67,11.38-1.46,13.55,1.15,17.23,11.35,10.58-2.45,23.25-4.31,21.97,10.85,5.87.69,15.44.53,11.89,9.16h-15.45Z" fill="#fff"/>
  <path d="M249.07,229.77c-.24.87-2.55,4.4-2.51,6.34l-1.41,1.05-33.96-21.29c12.02-6.86,28.43-12.15,41.22-4.64-2.16,5.86-1.76,12.69-3.34,18.54Z" fill="#fff"/>
  <path d="M311.77,308.88l-4.04,36.04c-12.11,1.91-24.74.69-36.71-1.88l18.72-17.09c10.75-.8,13.95-11.85,22.03-17.07Z" fill="#fff"/>
  <path d="M74.69,694.3c-4.39,5.24-9.07,4.79-15.38,5.66-.37-4.11.84-9.13,5.25-10.53l-.37-1.32c-5.33-1.57-8.3,6.4-7.61,10.77l-.86.9-7.63-1.54c-1.49-4.33,4.65-11.77,3.32-13.39-4.74,1.52-5.78,8.77-5.92,13.15l-9.25-3.07c.07-1.76.66-3.52,1.45-5.07s4.03-3.83,3.2-5.01c-2.17-3.08-7.45,6.87-6.58,9.19-6.77-2.1-5.09-11.25.69-13.45,9.03-3.44,33.6-.56,40.3,6.98,3.26,3.67,1.69,3.96-.62,6.72Z" fill="#fff"/>
  <path d="M422,273.59c.55.99,4.52,11.53,3.19,11.62-2.49-2.19-5.75-3.41-8.23-5.58-2.78-2.42-5.31-7.77-6.98-8.8-2.91-1.79-11.84-3.35-16.26-5.43-4.02-1.9-7.64-4.57-11.25-7.12-1.12-.05-18.53,9.4-19.69,10.54-2.56,2.51-2.72,7.53-4.31,10.47-1.58-27.24,23.78-30.92,44.49-22.46,6.84,2.79,15.46,10.28,19.06,16.76Z" fill="#fff"/>
  <path d="M281.2,686.17c-.54-.1-1.96-.74-1.69-1.63.4-7.12,11.53-21.94,18.78-22.06,2.14-.03,10.35,3.45,12.39,4.74s8.07,6.73,8.31,8.82c.13,1.19-.11,4.11-1.94,3.56-.65-4.89-5.03-9.87-9.87-10.51-1.1.95,13.26,11.84,5.26,13.8-.15-3.66-8.82-14.29-11.18-8.56,4.22,2.23,8.08,5.47,8.54,10.52l-7.23,1.33c.61-2.42-3.63-8.97-6.23-8.55-.48.08-1.42,1.11-.34,1.64l3.94,6.91c-5.53-.73-13.55.99-18.74,0Z" fill="#fff"/>
  <path d="M372.18,594.87c.29,5.4,1.06,10.07,2.78,15.16.19.58,2.13.92,1.25,3.35-4.32,3.44-9.8,5.08-15.12,6.4-1.03-8.38-7.21-14.29-14.17-18.42l.36-11.82,24.9,5.33Z" fill="#fff"/>
  <path d="M472.19,321.04l1.34-.71c14.11,7.32,30.44,7.26,46,6.95l-1.7,11.22c-15.29-.02-31.81.19-45.64-6.94v-10.52Z" fill="#fff"/>
  <path d="M341.1,230.25c2.78,3.5,5.33,5.58,8.81,8.28l-14.36,5.83c-8.63-13.37-10.44-27.2-7.29-42.8,3.56-6.42,2.63-17.58,5.82-24.54.86-1.87,4.4-4.75,4.21-1.08-.96,18.22-10.97,36.89,2.82,54.3Z" fill="#fff"/>
  <path d="M467.19,608.35c1,2.09,3.9,5.9,2.72,8.77-.36.87-8.75,7.12-9.55,6.6-3.58-9.59-13-15.74-22.97-17.15v-8.08s25.16-3.62,25.16-3.62c1.84.73.82,5.53,1.39,7.83.4,1.59,2.42,3.93,3.24,5.64Z" fill="#fff"/>
  <path d="M261.15,473.53l1.49-.86,16.76,2.66c1.59,1.59.49,11.94.97,15.13,1.04,6.93,11.05,15.04-4.78,15.97-3.06-6.81-8.68-15.14-16.41-16.81.51-.95,1.97-1.48,1.97-2.95v-13.15Z" fill="#fff"/>
  <polygon points="106.65 191.22 104.01 210.28 77.72 206.33 83.01 185.33 106.65 191.22" fill="#fff"/>
  <path d="M538.6,291.8c-1.1,1.89-.89,4.11-1.38,6.04-4.67,18.49-6.45,39.33-11.15,57.21-.05.2-1.67,1.41-1.67,2.5l-6.84.62,12.49-68.36,8.55,1.99Z" fill="#fff"/>
  <path d="M328.51,497.23c2.23,4.68.3,3.36-.26,5.38-.27.99-.05,6.63-2.33,6.08-2.79-10.6-11.27-15.74-22.03-15.12l1.31-18.4,19.74-1.02c.68.46-.39,13.86.03,16.42s2.54,4.56,3.55,6.65Z" fill="#fff"/>
  <path d="M372.91,338.46c-13.17,4.39-23.93,11.38-33.13,21.75-.56.63-5.23,8.48-6.31,7.16.29-18.29,16.52-29.38,24.65-44.03,2.62,6.6,8.4,12.28,14.78,15.12Z" fill="#fff"/>
  <path d="M110.34,176.53c-.04.18-.89.33-1,.76-.43,1.76-1.5,10.37-2.49,10.67l-22.5-5.05c-.88-2.28,5.52-16.28,6.92-19.24l19.99,4.87c.94.66-.61,6.73-.93,7.99Z" fill="#fff"/>
  <path d="M42.54,667.76c-.25,0-1.16,1.69-.98-.31l6.33-7.48,3.19-7.36c9.76,5.27,20.78,7.32,31.88,7.27-1.86,3.77-2.98,6.52-3.28,10.84l-.33,4.91c-5.8-2.32-16.3-7.87-22.36-7.87-4.81,0-9.65.11-14.46,0Z" fill="#fff"/>
  <path d="M307.83,348.31l.66,9.2c-17.65,1.76-35.48,1.11-51.94-5.92,2.09-.83,10.17-6.43,11.48-6.51s7.06,2.07,9.41,2.39c10.19,1.37,20.12,2.16,30.39.84Z" fill="#fff"/>
  <path d="M103.36,212.91l-3.12,17.09c-5.7,3.07-5.9-1.94-10.01-2.98-1.94-.49-4.92.21-5.31.02-.64-.32-1.44-2.84-3.91-3.95-2.18-.97-4.23-1.14-6.58-.98l2.64-13.15,26.3,3.95Z" fill="#fff"/>
  <path d="M394.94,343.05c6.58-.79,14.1-5.21,19.73-8.58,6.36,3.8.24,12.2-3.62,15.49-9.9,8.44-26.94,7.82-26.95-7.56.23-.32.84.66.98.66,3.05,0,6.98.35,9.86,0Z" fill="#fff"/>
  <polygon points="117.17 148.5 112.49 165.51 92.25 160.91 97.47 144.58 117.17 148.5" fill="#fff"/>
  <path d="M130.22,304.16c-1.79,1.1-4.32,3-5.75,4.46-2.01,2.05-9.22,12.54-12.28,8.19-.75-1.07.52-23.44,3.62-25.36,2.45.12,5.88.84,8.24.32,1.96-.43,3.41-3.96,5.65-2.33,1.55,1.13-1.17,12.07.52,14.72Z" fill="#fff"/>
  <path d="M283.22,276.29c-1.72-2.5-2.33-4.18-2.35-7.51,10.41,1.66,17.2.68,26.75-3.17,1.7-.69,5.85-4.71,6.69-.96.26,1.17-1.72,4.69-2.41,5.9-5.56,9.7-20.91,17.04-28.68,5.74Z" fill="#fff"/>
  <polygon points="505.6 484.49 508.73 490.95 486.66 506.72 484.03 488.32 505.6 484.49" fill="#fff"/>
  <path d="M134.92,376.58c-11.1.87-16.25-12.01-11.32-20.85,2.28-4.09,8.78-7.94,12.56-3.68l-1.24,24.53Z" fill="#fff"/>
  <path d="M463.15,465.15c-.33-2.7-2.88-12.26.17-12.98,6.66-1.58,21.44,2.97,24.01,10.24l-.66,1.94c-2.04,2.32-21.32,2.97-23.52.81Z" fill="#fff"/>
  <path d="M418.94,742.7c-1.07,3.49-3.16,6.42-4.12,10-.58,2.18-1.09,9.96-2.17,10.3-4.65-1.15-9.53-2.55-13.13-5.85-.55-4.94,4.95-6.09,6.28-9.85-3.78-.42-9.41,4.42-8.55,8.54-2.71-.26-3.69-1.48-3.16-4.12,1.22-6.12,19.36-9.83,24.86-9.02Z" fill="#fff"/>
  <path d="M467.19,229.78c.16.31,1.68-.06,1.06,1.53-4.97,2.11-2.17.26-5.24-1s-7.79-.87-11.2-.96l2.06-19.63,10.78-2.09c0,8.62-1.61,14.06,2.53,22.16Z" fill="#fff"/>
  <path d="M122.42,131.41l-4.56,13.5c-6.09,1.07-11.97-1.82-17.79-3l6.55-14.17,15.81,3.66Z" fill="#fff"/>
  <path d="M528.73,237.89c-3.27,12.16-22.38,19.41-33.32,13.92-1.14-.57-7.43-5.29-5.1-6.05,13.89,1.7,26.17-1.62,38.42-7.87Z" fill="#fff"/>
  <path d="M532.02,337.13l2.34-10.47c4.48-.83,8.97-1.38,13.44-2.34,1.89-.41,7.35-3,8.23-1.65l-1.94,11.23-22.07,3.23Z" fill="#fff"/>
  <path d="M7.55,331.71c-6.41-7.61,17.58-19.44,20.57-14.29s-14.74,21.21-20.57,14.29Z" fill="#fff"/>
  <path d="M548.03,313.91c.78,1.14,5.56,4.02,4.09,6.18l-17.47,3.91,5.27-26.29c3.37,5.13,4.54,10.97,8.11,16.2Z" fill="#fff"/>
  <path d="M107.96,125.49c4.2-8.81,7.6-17.23,19.42-11.85,1.09,1.67-3.17,12.44-4.29,14.83l-15.12-2.98Z" fill="#fff"/>
  <path d="M446.55,628.31l-10.75,1.24c-2.18-.64,1.11-3.82-1.41-3.87-2.73-.05-2.23,3.32-5.83,3.26-6.02-.1,1.47-6.02.24-7.19-3.66-.46-4.05,3.03-5.71,5.27l-3.39-.12c-3.73-18.44,23.07-8.19,26.86,1.41Z" fill="#fff"/>
  <path d="M456.06,622.1c.71,1.08,1.87,1.76,1.67,3.59l-7.6,1.78c-4.48-8.63-13.99-12.78-23.3-13.93,10.48-9.57,22.84-1.17,29.23,8.56Z" fill="#fff"/>
  <path d="M327.54,234.6l6.3,12.53c-3.55,5.04-8.25,9.37-9.67,15.65l-8.45-1.57c-2.04-1.49,2.15-4.01,2.84-5.1,1.17-1.81,3.26-5.18,4.05-7.05,1.88-4.48,2.01-9.73,3.54-13.55.35-.87-.23-1.13,1.38-.91Z" fill="#fff"/>
  <path d="M345.96,623.06l-13.15.65,1.31-6.57c-4.49,1.36-1.74,8.09-7.81,5.19l1.9-7.47-1.99-.7-1.96,4.95c-4.08-.45,1.92-8.02,3.35-8.83,5.48-3.12,19.6,5.58,18.36,12.77Z" fill="#fff"/>
  <path d="M352.96,609.49c2.6,2.96,3.86,7.1,5.44,10.63l-8.73,2.24c-2.64-8.8-8.07-11.64-15.54-15.72,7.35-4.99,12.96-3.83,18.83,2.85Z" fill="#fff"/>
  <path d="M391.89,234.69l4.69,5.16c-10.05.57-19.05,5.39-27.43,10.43-1.08.35-1.47-.31-2.16-.88-.64-.53-5.73-8.28-3.57-8.84,10.11,2.39,19.43-2.21,28.47-5.87Z" fill="#fff"/>
  <path d="M466.27,300.33c.52.41.42,5.16.7,6.09.88,2.88,3.55,7.67,3.74,11.49.2,4.01-2.18,9.48-1.15,13.98-5.58-2.07-9.92-27.69-8.44-30.14.16-.27,4.78-1.71,5.15-1.41Z" fill="#fff"/>
  <path d="M40.89,359.5c.29,1.06-1.2.32-1.32,1.07-.5,3.06-.38,17.89-.93,18.68l-7.64.33c-1.01-.71-.81-13.88-1.26-16.37-.13-.74-1.61-.02-1.32-1.08,4.72.62,8.22-4.33,12.48-2.63Z" fill="#fff"/>
  <path d="M271.3,505.14c.19.39,1.82.74,1.03,2.89l-6.86,1.25c-2.16-7.29-8.94-10.11-15.49-12.74,8.94-10.47,17.12-.01,21.32,8.61Z" fill="#fff"/>
  <path d="M318.48,511.85l-6.49-7.64-14.02-5.03c3.24-4.65,6.18-3.86,11.19-2.66,6.35,1.52,13.47,6.36,13.47,13.53l-4.15,1.8Z" fill="#fff"/>
  <path d="M433.17,335.39c.77,1.23,2.58,3.53,1.89,5.02-3.6-2.18-18.46-2.36-17.33-8.76.13-.76,8.76-8.33,9.75-10.29.24,3.05,1.12,6.39,2.32,9.19s2.36,3.24,3.36,4.84Z" fill="#fff"/>
  <path d="M331.49,493.57c-7.75-3.41-2.79-12.74-3.85-19.3l8.12-2.38.74,1.35-5.01,20.32Z" fill="#fff"/>
  <path d="M503.75,226.05c-6.92-.85-14.56-1.05-21.39-1.96-.92-.12-1.12.35-.98-.99.02-.8,1.78-3.83,2.46-4.3,6.58-4.52,22.88,4.32,19.9,7.25Z" fill="#fff"/>
  <path d="M314.32,513.22l-5.84.08v-3.29c-3.19-.23-2.17,5.25-7.27,3-.05-6.43-2.9-9.85-3.57-1.03-3.05-1.19-2.66-4.88-1.7-7.44,2.54-3.88,20.74,2.03,18.38,8.69Z" fill="#fff"/>
  <path d="M254.57,506.72c-8.49,5.29-2.86-2.32-4.28-2.64-1.81.27-5.08,5.27-5.43.48-.79-11.08,16.32-1.04,17.6,4.44l-6.81.91-1.08-3.19Z" fill="#fff"/>
  <path d="M590.54,257.61v20.38c-2.79-7.65-6.5-14.41-11.18-21.03l11.18.65Z" fill="#fff"/>
  <path d="M98.53,263.73c3.39,5.98-2.19,12.06-8.26,9.58l1.26-15.71c1.62,1.56,6.01,4.39,7,6.12Z" fill="#fff"/>
  <path d="M432.09,386.43l3.94,13.8c-5.97-3.3-10.19.57-15.77,1.97,4.86-3.76,6.97-10.34,10.35-14.92.4-.54-.08-1.22,1.48-.85Z" fill="#fff"/>
  <path d="M462.99,233.29l-5.57,7.74c-1.55.17-6.26-6.03-5.64-7.99,3.58-1.96,7.53-.25,11.21.25Z" fill="#fff"/>
  <polygon points="350.56 327.94 347.81 333.4 342.02 339.76 343.64 327.26 350.56 327.94" fill="#fff"/>
  <path d="M526.1,262.21c.9,2.99-1.42,2.55-2.27,3.95-2.31,3.78-1.89,5.07.31,8.85-8.43,4.19-4.16-12.88,1.96-12.8Z" fill="#fff"/>
  <path d="M71.77,301.68l.03,6.54c-3.6-1.68-8.65-3.19-5.52-7.86l5.49,1.32Z" fill="#fff"/>
  <path d="M457.07,419.31c-2.63,1.21-6.3,6.24-8.21,7.23-.59.3-.49,1.14-1.31,0l-.99-3.94,10.52-3.28Z" fill="#fff"/>
  <path d="M539.25,232.63l-2.83-.65c-2.03-1.47,2.55-3.57,3.49-4.61l-.66,5.26Z" fill="#fff"/>
  <path d="M324.92,211.6c.37.41.29,3.65-1.3,2.63l-.66-2.62c.53.05,1.86-.13,1.97,0Z" fill="#fff"/>
  <path d="M421.19,165.31c1.72,3.98,4,8.13,3.33,12.77-27.63-14.56-54.53-34.18-86.43-16.76,18.75-30.6,68.13-30.73,83.1,3.99Z" fill="#fff"/>
  <path d="M63.45,806.27c-4.03-4.37,6.71-11.6,10.3-12.65,6.46-1.89,16.84-.63,20.7,5.64,8.87,14.43-26.77,11.59-31,7.01ZM79.57,795.43c-3.9.19-10.93,2.7-12.53,6.6-2.16,5.26,11.98,5.23,14.98,5.1,19.58-.85,8.21-12.22-2.45-11.7Z"/>
  <path d="M305.5,780.51c1.91,2.49,4.55,8,1.94,10.79-3.19-.27-2.47-4.32-3.86-7.23-.93-1.95-8.84-9.59-1.64-6.9,1.66.62,2.56,2.03,3.56,3.34Z"/>
  <path d="M39.86,756.23c.68,1.58,2.87,3.38,1.39,6.21l-1.69.33c-1.54-2.98-2.24-6.22-4.03-9.11-.34-.54-6.84-6.54-4.15-7.01,3.74-.66,7.31,6.86,8.48,9.59Z"/>
  <path d="M167.39,642.53c-.64-.95-4.18-4.62-3.55-5.66,5.91-3.53,12.8,15.13,8.87,15.1-2.24-2.07-2.05-5.28-3.46-7.72-.55-.94-1.54-1.24-1.86-1.73Z"/>
  <path d="M400.53,681.57c-.84,3.82-3.89,5.74-5.57,9.87-.99,2.42-.51,7.16-2.96,7.21-2.84-2.89,2.64-18.14,8.53-17.08Z"/>
  <path d="M137.54,684.2c-2.64,5.81-5.36,10.35-6.9,16.43-4.5-1.15,1.02-17.61,6.9-16.43Z"/>
  <path d="M364.14,644.33c2.16,1.92,8.2,13.96,2.22,12.49-.3-5.69-4.2-9.79-7.89-13.72.27-2.67,4.92.56,5.68,1.23Z"/>
  <path d="M164.49,785.42c-.2.15-1.42-.09-1.96,0,.01-2.89-1.31-5.68-2.77-8.09-1.35-2.23-6.62-6.11-4.07-7,5.28-1.84,11.06,13.35,8.8,15.08Z"/>
  <path d="M126.36,700.62l-1.46-.84c-.87-6.09-6.1-8.93-8.39-14.27,6.93-.03,11.17,9.12,9.85,15.11Z"/>
  <path d="M260.25,745.55c-.64-.85-7.25-5.96-6.33-6.8,6.75-.05,13.6,9.08,10.84,15.1-2.08-2.41-2.62-5.77-4.51-8.3Z"/>
  <path d="M109.55,746.39c.05.15.9.2,1.02.72.38,1.6-.2,3.92.05,5.66-3.13,3.11-3.19-4.29-4.3-6.79-1.39-3.13-4.48-4.6-4.93-7.88,4.36-.13,6.92,4.8,8.16,8.29Z"/>
  <path d="M25.79,530.38c-1.01-2.79-2.57-5.46-4.34-7.83-1.1-1.46-5.87-4.62-4.86-5.94,3.06-4,15.14,12.44,9.2,13.77Z"/>
  <path d="M382.12,641.47c-1.94,3.6-3.98,8.63-5.94,11.99-.32.55-2.37,3.35-3.26,3.12-.98-6.13,3.45-13.29,9.2-15.11Z"/>
  <path d="M328.49,718.08c2.74,3.44,3.53,5.54,3,10.14l-9.06-12.3-.13-2.16,1.52.11c2.22.71,3.34,2.52,4.68,4.2Z"/>
  <path d="M512.96,747.94c-.09-.71-.27-.84.36-1.31,4.29-3.19,12.17,13.69,8.49,14.47-2.1.45-4.85-12.93-8.86-13.16Z"/>
  <path d="M44.84,514.61c1.24,1.23-4.7,6.9-5.44,8.06-.28.44-3,8.82-4.41,7.05-.57-6.44,3.52-13.4,9.85-15.11Z"/>
  <path d="M375.13,804.71c.42-.86,7.57-10.11,8.3-5.81.17,1.01-3.35,3.79-4.08,5.11-1.33,2.39-1.2,7.39-4.12,7.08s-.91-4.72-.1-6.38Z"/>
  <path d="M367.42,798.15c2.77,2.29,5.88,10.35,3.19,13.55l-4.14-9.64-4.05-4.48c1.47-2.01,3.54-.64,5,.57Z"/>
  <path d="M205.92,720.34c-4.25-.93-1.1-11.18.66-13.47,1.43-1.86,5.12-3.78,3.97-.65-1.63,4.42-5.01,8.69-4.63,14.12Z"/>
  <path d="M53.39,745.33l-8.54,16.43c-1.08-5.59,1.94-15.99,8.54-16.43Z"/>
  <path d="M240.11,793.31c1.38,1.28-3.55,5.09-3.91,5.78-.27.52-2.39,9.99-3.97,8.01-.69-5.52.92-13.9,7.88-13.8Z"/>
  <path d="M524.8,759.76c1.54-4.99,2.52-10.23,7.55-13.1,2.61,2.23-1.1,4.52-2.01,6.52-1.36,2.96-1.65,8.7-5.54,6.59Z"/>
  <path d="M558,782.15l.66,1.96c-4.61,4.09-4.01,10.12-6.58,15.1-3.66-3.02,2.5-17.35,5.92-17.06Z"/>
  <path d="M177.66,651.98c-.81-2.85,4.61-14.81,7.55-14.45,1.18.14.7,1.03.46,1.74-.54,1.59-2.68,4.35-3.54,6.34-1.19,2.73.01,7.15-4.46,6.38Z"/>
  <path d="M39.59,580.99c-1.36-2.74,4.4-14.68,6.9-14.44,2.85.27-2.15,6.91-2.63,7.87-1.13,2.28-.9,7.06-4.27,6.57Z"/>
  <path d="M276.92,738.75c.67.58-5.43,8.69-5.86,9.7-.52,1.21.59,5.21-2.02,4.76-1.13-5.74,1.05-14.07,7.88-14.46Z"/>
  <path d="M318.82,776.99c4.02,1.37-2.08,4.02-3.39,5.84-1.84,2.55-1.45,5.48-3.33,7.83-2.71.01-.19-13.65,6.72-13.67Z"/>
  <path d="M44.84,415.36c-.07.07-2.03.32-1.98-.45-.49-4.79-6.65-7.04-6.56-12.04,4.39-1.01,10.04,10.85,8.54,12.49Z"/>
  <path d="M199.99,720.34c-1.37,1.4-2.55-5.7-2.96-6.56-1.33-2.84-3.8-4.26-3.6-7.23,5.62,1.29,8.54,8.67,6.56,13.8Z"/>
  <path d="M176.33,770.96l-6.58,13.15-2.62-.67c2.31-4.73,2.5-11.97,9.2-12.47Z"/>
  <path d="M229.59,807.76l-9.2-11.17c5.75-.5,9.67,5.96,9.2,11.17Z"/>
  <path d="M342.67,714.43l-7.88,13.8c-.43-5.31,1.02-14.37,7.88-13.8Z"/>
  <path d="M390.01,698.66c-2.98.64-1.52-1.25-2.63-2.82-.89-1.26-5.98-6.84-4.6-8.36,5.18.76,7.83,6.47,7.22,11.17Z"/>
  <path d="M84.29,508.04l-7.55,12.48c-2.48-.88,2.91-14.03,7.55-12.48Z"/>
  <path d="M548.06,794.38c.05.17,1.97.84,1.07,3.07l-2.65,1.12c0-4.7-3.43-7.86-5.26-11.83,5.27-.78,5.68,3.84,6.83,7.64Z"/>
  <path d="M36.29,580.99c-1.72.36-1.14-.42-1.65-1.28-1.19-2.02-1.68-4.67-3.06-6.82-.69-1.08-3.92-2.92-3.17-3.72,3.86-4.15,9.67,8.42,7.88,11.82Z"/>
  <path d="M120.45,740.72l-6.24,13.13c-3.1.02,1.03-14.93,6.24-13.13Z"/>
  <path d="M57.99,752.56c-.39,1.12-7.78,11.35-9.2,9.85-1.58-3.1,7.71-12.14,9.2-9.85Z"/>
  <path d="M71.14,521.18c-1.46.97-3.94-6.28-4.71-7.44-1.21-1.84-3.12-1.84-3.17-3.72,5.23-.72,9.26,6.57,7.88,11.16Z"/>
  <path d="M33.02,634.24c-1.76-4.71.51-10.86,4.93-13.13,1.26.97.78.77.44,1.73-1.12,3.19-3.76,8.25-5.37,11.4Z"/>
  <path d="M52.48,413.14c-.33.47-2.4,2.62-3.03,2.22-1.46-4.67,2.48-8.52,6.23-10.51,1.29.98.77.79.46,1.74-.12.36-3.34,6.1-3.66,6.55Z"/>
  <path d="M397.25,698.65c-3.09-3.34,10.59-12.66,8.23-7.22-1.55.69-6.91,8.64-8.23,7.22Z"/>
  <path d="M141.49,691.43l-6.24,10.5c-3.09.1,2.05-12.61,6.24-10.5Z"/>
  <path d="M215.78,711.8c.53,2.87-1.99,3.45-3.19,5.02-1.34,1.75-1.3,4.72-4.03,4.18-1.51-1.62,3.83-10.67,7.22-9.19Z"/>
  <path d="M28.4,632.92c-1.76.38-1.13-.5-1.64-1.29s-4.21-7.58-4.41-8.12c-.26-.74-.69-1.53.47-1.76,3.36-.66,6.54,8.5,5.57,11.17Z"/>
  <path d="M563.58,790.68c1.19,1.17-6.19,8.88-7.88,9.19-.19-4.25,3.7-8.68,7.88-9.19Z"/>
  <path d="M192.11,644.1c.4,1.69-.36,1.68-1.08,2.52-.8.93-5.9,6.26-6.8,5.36-.8-2.43,5.81-9.87,7.88-7.88Z"/>
  <path d="M32.35,519.21c-.13,3.5.58,7.24-.98,10.51-.95-.25-3.75-11.97.98-10.51Z"/>
  <path d="M363.33,52.26c1.46,2.98,2.74,5.75,2.36,9.47,10.65-4.39,23.32-1.1,24.93,11.55,10.32-.28,20.5,2.33,18.3,14.92-1.28,7.31-11.25,8-17.24,8.4-19.54,1.3-39.73-.83-59.2-.75-23.66.1-54.67,3.27-77.62.75-1.34-.15-3.53-.48-4.51-1.41-1.54-1.45-.39-3.42-2.35-3.24,2.05-2.28,1.31-3.79,3.99-6.18,3.53-3.14,7.02-1.11,8.33-2.53.39-.43,1.33-3.52,2.53-5.02,5.26-6.55,11.64-5.95,19.18-4.16,5.48-14.17,17.78-19.73,31.71-12.34,2.48-25.27,37.91-33.4,49.6-9.47ZM362.46,65.61c1.88-26.41-32.94-34.21-43.31-10.64-.38.86-2.02,4.97-2.09,5.26-.64,2.67,1.67,7.29-2.88,6.79-10.6-11.81-28.23-3.33-29.42,11.74-1.88,1.25-12.97-7.69-20.32,1.7-1.03,1.32-2.53,5.5-3.29,5.91-1.82.99-4.41-.36-6.94.95-2.74,1.42-3.78,6.54.66,5.98,45.44-2.8,95.16,3.61,140.1,0,6.61-.53,13.63-2.77,10.97-11.03-2.21-6.86-11.66-5.47-17.23-5.06-1.95-3.34-1.52-7.76-4.71-11.12-2.81-2.96-8.86-3.56-12.66-2.99s-5.41,3.78-8.87,2.5Z"/>
  <path d="M351.21,521.84c2.77,9.28,4.79,18.92,9.76,27.38,1.81,3.07,6.59,9.4,8.98,12.06,2.56,2.85,9.49,7.72,10.86,10.18.46.83.77,1.63-.33,1.63-2.26-1.56-5.15-2.87-7.27-4.55-12.49-9.91-23.29-29.71-23.31-45.73l1.31-.97Z"/>
  <path d="M198.04,573.11c-1.4-1.28,6.21-5.36,6.88-5.93,10.55-8.98,20.61-20.27,27.63-32.19,1.34.92.76,1.33.54,2.46-2.01,10.51-24.23,32.6-35.05,35.66Z"/>
  <path d="M569.49,669.74c.25,1.18-.62,1.62-1.3,2.3-5.6,5.68-30.8,12.77-39.21,14.04-2.82.43-25.77,2.94-25.87-.24.78-1.2,1.76-.91,2.91-1.02,6.69-.63,13.41-.42,20.31-1.39,15.02-2.1,29.56-7.17,43.16-13.7Z"/>
  <path d="M180.94,398.92c.51-6.96,15.66-9.01,21.37-9.18,4.07-.13,19.91,1.1,16.41,7.22-7.38-5.54-20.14-4.94-28.55-2.27-3.49,1.11-5.9,3.24-9.23,4.24Z"/>
  <path d="M395.76,329.75c-1.1,1.1-19.31-.6-20.72-1.97-2.33-2.27,2.28-7.32,4.27-8.24,6.48-2.99,21.22,1.28,16.45,10.2ZM381.93,321.51c-1.89.45-2.87,1.86-3.72,3.48.21,1.86,15.65,3.03,15.72,1.31-2.88-3.7-7.18-5.92-12.01-4.78Z"/>
  <path d="M376.05,289.3c3.55,7.38-8.12,14.33-9.04,5.38-.71-6.92,7.36-8.88,9.04-5.38Z"/>
  <path d="M398.08,291.32c7.39-5.84,10.65,13.64,1.83,10.63-3.87-1.32-4.37-8.62-1.83-10.63Z"/>
  <path d="M396.91,274.72c.54-.07,7.48,4.76,8.87,5.58,1.93,1.13,7.39,1.88,6.58,4.56-1.29,4.3-16.44-6.4-16.45-8.52,0-.59.55-1.56,1-1.62Z"/>
  <path d="M362.4,280.61c-1.35-1.59,6.64-3.13,7.87-3.62,1.93-.77,8.63-5.41,9.17-1.87.48,3.16-14.15,7.73-17.04,5.49Z"/>
  <path d="M382.77,300.99c-.88,4.36-4.83,4.15-.66,8.86-7.51,3.4-6.98-9.89.66-8.86Z"/>
  <path d="M360.27,219c5.7-.86,16.6-.05,13.64,8.37-.53.61-1.25,1.01-2.05,1.11-.99.13-15.93-1.07-16.68-1.44-4.13-2.05.72-7.38,5.1-8.04ZM371.6,225.39c-2.67-4.45-10.99-5.73-14.45-1.64l14.45,1.64Z"/>
  <path d="M380.61,201.53c-6.48,5.17-10.86-11.04-2.65-11.47,4.5-.23,5.55,9.16,2.65,11.47Z"/>
  <path d="M352.93,197.56c-5.01,10.24-14.09-12.32.63-8.35.58,2.89.66,5.69-.63,8.35Z"/>
  <path d="M388.59,184.09l.1,2.53c-1.11,1.14-15.24-5.29-15.65-6.03-4.21-7.74,13.98,4.04,15.55,3.5Z"/>
  <path d="M358.27,201.86c1.01-.29,3.23-.25,3.47.87.3,1.43-3.68,2.56-3.89,4.03-.24,1.71,4.47,2.99,1.55,4.82-5.98.07-5.72-8.4-1.13-9.72Z"/>
  <path d="M355.82,176.76c2.3,2.33-11.03,7.74-13.15,6.57l.45-1.98,12.7-4.59Z"/>
  <path d="M170.57,335.32c1-.76,2.07-.78,3.27-.68,3.45.3,19.11,4.77,22.86,6.12,6.8,2.45,4.76,8.69-2.21,8.18-2.82-.21-21.25-5.13-23.1-6.53-2.78-2.11-2.1-4.23-.82-7.09Z"/>
  <path d="M214.17,345.33c-.89-.97-1.96-1.33-1.61-3.15.41-1.29,19.72-9.45,21.6-8.66,2.1.87,2.71,4.06,1.33,5.92-1.07,1.44-16.32,8.21-18.08,8.15s-2.24-1.16-3.24-2.25Z"/>
  <path d="M178.54,362.55c-5.5-10.54,9.64-18.72,10.32-5.38.21,4.16-1.18,9.08-6.12,8.79-.82-.16-3.93-2.9-4.2-3.41Z"/>
  <path d="M226.12,348.45c9.49-2.05,8.73,19.02-1.78,14.64-4.12-1.71-3.89-13.41,1.78-14.64Z"/>
  <path d="M297.87,256.85c-3.11-.3-16.25.19-17.33-1.87-4.7-8.93,23.8-10.53,17.33,1.87ZM295.99,254.32c2.63-2.44-9.74-6.8-11.82-1.63-.55,1.37.92.9,1.62.98,3.15.36,6.94.13,10.2.65Z"/>
  <path d="M278.07,229.17c-7.96,4.38-10.98-9.05-3.2-10.67,4.63-.96,6.02,7.83,3.2,10.67Z"/>
  <path d="M306.4,219.61c1.68.94,3.02,8.98-1.82,10.12-8.64,2.05-5.53-14.24,1.82-10.12Z"/>
  <path d="M312.34,211.67c.51,6.38-16.63-2.09-15.69-5.65.81-1.09.86-.93,2-.71,3.22.6,9.57,5.96,13.69,6.37Z"/>
  <path d="M278.58,205.7c5.75.72-10.55,11.13-12.17,7.53l12.17-7.53Z"/>
  <path d="M284.84,235.29c-.79,1.22,1.4,3.17,2.28,3.91l-.73,1.27c-9,.89-5.63-10.58.63-8.45,3.91,1.33-2.04,3.03-2.19,3.26Z"/>
  <path d="M500.28,409.93c-2.33,2.7-21.79,1.27-25.52-.75l.22-4.83c.82-.63,1.81-.68,2.79-.81,3.41-.44,16.24.1,19.69.7,1.36.24,2.5.83,3.35,1.94.57,1.17.28,2.81-.53,3.76Z"/>
  <path d="M479.02,416.91c.72-1.12,3.16-3.16,4.65-2.87,4.45,1.85,3.94,5.48,2.8,9.35-3.26,11.03-12.98,2.1-7.45-6.48Z"/>
  <path d="M504.74,182.67c-.77-.13-3.83-2.73-2.83-3.84,1.46-2.24,21.42-2.94,23.76-1.31,1.71,1.19,1.6,3.83.1,5.15-6.32-.77-15.04,1.04-21.04,0Z"/>
  <path d="M473.61,172.91c1.42-.88,15.69,1.56,17.22,2.63,1.73,1.21,1.27,3.38.8,5.2-.93,1.33-15.72-1.71-17.31-2.49-2.31-1.14-1.55-3.4-.71-5.33Z"/>
  <path d="M512.11,188.73c10.02-3,4.08,16.28-2.16,9.76-2.68-2.8-1.31-8.72,2.16-9.76Z"/>
  <path d="M476.61,186.1c8.44-2.57,5.74,11.38-.04,10.88-4.32-.37-4.05-9.63.04-10.88Z"/>
  <path d="M56.78,259.68c3.76-2.29,8.09,1.93,4.86,7.16-5.05,8.18-7.25-5.71-4.86-7.16Z"/>
  <path d="M83.96,259.82c.8,0,1.93.73,2.2,1.52l-1.17,6.49c-6.51,4.44-4.9-7.98-1.03-8.01Z"/>
  <path d="M39.74,337.63c-1.99-2.02-1.06-9.53,3.19-8.74,5.66,1.06,1.48,13.47-3.19,8.74Z"/>
  <path d="M65.72,330.73c2.56,2.65-.81,9.69-4.63,7.13-3.12-2.09,1.29-10.59,4.63-7.13Z"/>
  <path d="M79.57,795.43c10.66-.52,22.03,10.86,2.45,11.7-3,.13-17.14.16-14.98-5.1,1.6-3.91,8.64-6.41,12.53-6.6Z" fill="#fff"/>
  <path d="M362.46,65.61c3.47,1.28,5.15-1.94,8.87-2.5s9.86.03,12.66,2.99c3.19,3.36,2.76,7.78,4.71,11.12,5.57-.41,15.02-1.8,17.23,5.06,2.66,8.26-4.36,10.5-10.97,11.03-44.94,3.61-94.66-2.79-140.1,0-4.44.56-3.39-4.56-.66-5.98,2.52-1.31,5.12.04,6.94-.95.76-.41,2.26-4.6,3.29-5.91,7.34-9.39,18.44-.45,20.32-1.7,1.2-15.07,18.82-23.55,29.42-11.74,4.54.5,2.24-4.12,2.88-6.79.07-.29,1.71-4.4,2.09-5.26,10.37-23.57,45.19-15.77,43.31,10.64Z" fill="#fff"/>
  <path d="M381.93,321.51c4.83-1.14,9.13,1.08,12.01,4.78-.08,1.72-15.51.56-15.72-1.31.85-1.62,1.83-3.03,3.72-3.48Z" fill="#fff"/>
  <path d="M371.6,225.39l-14.45-1.64c3.46-4.1,11.78-2.82,14.45,1.64Z" fill="#fff"/>
  <path d="M295.99,254.32c-3.26-.52-7.05-.29-10.2-.65-.71-.08-2.18.4-1.62-.98,2.08-5.17,14.45-.81,11.82,1.63Z" fill="#fff"/>
</svg>