<?xml version="1.0" encoding="UTF-8"?>
<svg id="Camada_1" xmlns="http://www.w3.org/2000/svg" version="1.1" viewBox="0 0 595.28 841.89">
  <!-- Generator: Adobe Illustrator 29.0.0, SVG Export Plug-In . SVG Version: 2.1.0 Build 186)  -->
  <path d="M.14,841.29V-.06h595v841.34H.14ZM443.92,3.89H4.08v99.25c10.56,1.42,19.77-1.08,25.64-10.36,4.11-6.49,1.92-12.81,2.66-19.85,3.47-.37,4.3,3.4,6.88,5.23,19.16,13.64,40.03,4.8,43.63-18.01,5.33-2.1,4.67,4.32,6.3,7.52,10.41,20.39,40.77,20.18,55.92,5.25,1.6-1.58,6.14-9.85,8.19-8.56,1.15,6.36-.72,11.96.84,18.55,4.25,17.96,29.69,28.5,43.54,14.96,1.53-1.49,2.82-5.6,4.62-5.93,3.26-.59,3.51,3.37,5.24,5.29,8.12,9.01,22.03,5.64,29.72-2.2,2.17-2.21,3.91-9.16,7.03-8.38,1.46,9.22,3.41,16.52,8.81,24.19,11.11,15.78,36.28,19.52,50.11,5.11,1.34-1.4,5.43-8.6,6.34-8.77,20.12,16.56,53.62,10.63,53.42-19.56-.01-2.17-2.29-10.44-1.27-11.13,4.23-1.26,8.12,1.76,12.27,2.25,11.09,1.31,24.86-3.21,30.62-13.28,4.8-8.39,3.68-17.21,1.19-26.09,8.45,1.03,15.41.96,23.23-2.75,11.37-5.39,20.71-20.47,14.91-32.75ZM590.54,3.89h-142.01c7.13,22.58-15.43,41.49-36.82,39.44,6.08,26.27-21.02,47.58-45.35,36.81,7.37,33.51-29.54,50.93-55.51,32.22-7.39,11.25-19.6,17.61-33.26,16.41.54,22.14-24.55,35.35-42.42,21.18-9.46,16-33.95,20.17-46.31,5.4h-1.33c-23.08,21.9-44.47,45.91-50.99,77.9-.95,4.65-1.27,9.49-2.26,14.14l1.34.74c20.66-7.55,44.89-28.32,67.38-27.35,19.51.84,37.14,13.73,52.69,24.23,8.69-4.15,17.68-8.97,27.51-9.74,23.4-1.83,40.01,15.1,60.36,22.92,3.37-6.38,6.21-11.75,11.49-16.8-5.15-8.19-5.35-15.49-3.22-24.9,2.41-10.65,5.91-16.85,7.24-28.89,1.81-16.39,20.51-29.52,36.84-24.95,3.88,1.09,6.36,3.4,9.55,5.56,6.21-19.41,27.68-28.08,45.25-16.3,12.21,8.19,13.63,21.83,17.48,34.59,4.73,15.68,13.93,35.49,3.47,50.3,2.77,3.67,5.98,7.45,6.49,12.24,5.73-1.55,10.31-6.07,17.06-5.9-4.73-3.96-9-5.9-10.87-12.46-2.66-9.3.95-16.65.4-24.66-.16-2.33-2.1-4.35-2.52-6.75-4.88-27.88,42.65-35.76,59.69-18.26,10.89,11.19,7.6,20.48,8.56,33.46.16,2.25,2.37,4.82,3.06,7.51,1.05,4.11.08,6.58.82,10.36l7.56,1.57c.9-.24,2.11-7.21,2.89-8.96,3.89-8.78,16.24-15.13,25.76-14.01v-105.17h-143.65c-2.93,0-6.64-4.68-6.88-7.62-.97-11.62,16.42-20.78,26.28-15.38.42-3.5,4.1-8.78,6.57-11.52,9.29-10.34,27.53-11.16,38.14-2.29,3.67-18.19,16.31-30.34,35.87-28.29,9.47.99,17.75,9.17,21.02,17.77,7.08-5.26,14.13-6.65,22.67-3.94V3.89ZM590.54,102.48v-43.38c-8.08-3.49-14.31-2.6-20.77,3.24-.92.83-.84,3.75-3.13,3.2-2.1-.5-2.3-5.94-3.19-7.95-9.46-21.5-41-15.72-46.74,6.24-.74,2.84-.87,11.26-2.43,12.05-3.03,1.53-4.82-3.45-7.28-5.23-11.04-8-31.04-3.24-35.97,9.96-1.01,2.71-.43,9.79-4.07,8.4-4.75-1.82-3.76-4.85-11.89-3.31-6.76,1.28-16.82,13.69-6.25,16.82l141.71-.03ZM85.6,68.96l-1.31.43c-2.22,6.96-6.61,12.3-13.06,15.65l18.31,40.44c4.75-13.6,12.12-26.05,14.51-40.31-7.84-2.99-14.99-8.45-18.46-16.22ZM155.53,95.02c-4.07-5.4-6.15-14.1-6.16-20.8-6.45,5.48-13.19,10.08-21.59,11.93-.91,5.87-1.2,11.96-2.25,17.8-1.7,9.47-5.03,19.93-6.29,29.21-.5,3.72-1.02,7.54-.67,11.3,8.9,5.05,20.49,2.14,27.52-4.84,2.12-2.11,8.99-13.73,10.7-16.94,1.63-3.04,7.99-15.56,8.27-18.06.22-2.01-7.79-7.29-9.54-9.6ZM4.08,106.43v16.76c6.23,7.46,15.9,14.37,26.18,11.71,4.22-1.09,4.21-3.75,7.02-6.17,7.58,6.55,11.22,14.95,23.04,13.19,1.28.15.9-.02.99-.99.34-3.64-6.89-27.19-8.61-32.02-1.49-4.17-8.29-21.19-10.56-24.42-1.34-1.91-3.31-2.12-4.86-3.69-1.37-.25-.76.23-1.05.88-.82,1.9-.77,5.27-1.56,7.66-4.52,13.64-16.55,19.72-30.58,17.09ZM4.08,158.35v25.31c37.67,30.68,47.48,68.33,44.69,115.67-2.23,37.86-10.35,113.66-37.77,141.03-1.27,1.27-6.93,4.48-6.93,4.91v9.53c13.8-1.28,37.8-2.04,49.23-10.27,2.85-2.05,4.22-5.48,7.31-6.82-2.59,14.3-18.31,22.77-27.61,32.85,16.66.61,31.49-8.57,47.51-11.32l1.45-1.18c8.45-16.11,17.88-31.48,29.85-45.1.18-1.16-2.89-1.69-4.22-2.84-8.28-7.12-10.57-17.88-6.14-27.88,1.11-2.49,4.95-6.43,5.17-8.69s-1.81-6.74-1.99-9.78c-.84-14.65,6.09-17.31,12.79-27.35s3.03-17.94,8.51-27.65c.95-1.69,5.42-6.46,5.5-6.89.37-1.9-1.72-11.86-1.83-15.02-1.39-39.55,1.02-68.89,25.14-101.15s57.7-55.04,91.86-77.07l-4.88-13.39c-7.53,8.57-18.6,10.2-28.53,15.51-11.74,6.28-22.41,15.84-33.66,22.22-1.43.81-2.75,1.88-4.54,1.7l9.86-27.6-15.4-1.86c-.53.78-1.91,1.73-2.3,2.39-3.68,6.32-6.66,16.26-10.56,23.31-6.58,11.91-22.33,36.03-33.22,43.86-8.33,5.99-8.25.59-8.86-6.91-1.78-21.95,3.19-40.91,7.17-61.28,1.24-6.34,1.67-12.91,3.02-19.23l-17.34-.56c-3.33,16.53-11.1,30.64-17.51,45.91l-3.97.03c-3.05-16.37-11.33-30.78-17.47-45.98-7.47,2.37-14.15,2.38-21.62-.05,15.33,33.69,25.76,68.99,23.69,106.83-.15,2.71-1.75,19.5-3.73,20.08L4.08,158.35ZM215.13,105.12c-5.14-.12-8.82-4.01-11.5-7.88-2.45,4.26-11.85,6.81-14.11,8.89-2.03,1.87-4.86,17.46-7.91,20.67l33.53-21.68ZM274.22,128.19c-10-1.78-19.77-7.2-24.91-16.21l-1.48-.2c-11.49,8.08-23.64,15.3-34.98,23.59-4,2.92-18.07,12.72-20.32,15.69-1.56,2.06,2.69,5.79,4.39,6.76,13.24,7.6,31.19,1,36.38-13.23,2.34-.85,9.38,6.32,13.21,7.03,15.29,2.86,28.02-8.42,27.71-23.44ZM4.08,129.43v23.33l61.14,55.54c1.54-1.26,1.56-35.2,1.31-39.75-.46-8.25-2.44-15.63-3.93-23.35-11.03,2.98-17.67-3.33-24.76-10.45-11.43,9.23-23.98,2.54-33.75-5.32ZM132.53,159.91c3.15-3.89,6.99-7.65,8.64-12.71-6.99,5.07-15.7,3.49-23.34,1.3l.66,24.31c2.09,2.37,12.87-11.46,14.04-12.9ZM456.04,162.66c-16.37-23.32-50.22-11.26-47.62,16.72,1.19,1.32,5.82-4.35,6.92-5.23,2.69-2.16,12.24-9.39,15.08-9.27,3.34.14,9.39,7.57,12.62,9.79,4.49,3.11,10.6,5.96,16,6.69.77,2.59-3.71.52-3.95,1.64.87,7.88,8.53,1.95,8.61,11.82.07,8.92-4.92,7.64-6.31,10.17s-2.38,8.09-4.57,11.87c-1.31,2.25-3.2,3.26-4.24,5.47,5.62,4.98,13.74,6.73,20.01,11.37,8.34-7.15,4.2-21.59,1.44-30.8-.66-2.2-2.85-5.49-3.2-6.69-2.95-10.1-5.04-25.36-10.79-33.56ZM361.74,189.24c10.51-2.8,20.02-8.72,29.24-14.5,1.68.18,4.35,6.88,5.91,8.62.88.98,8.44,6.68,9.21,6.55,1.92-1.29-.07-3.17-.26-4.99-.78-7.44,1.25-13.25-6.28-17.39-16.53-9.08-34.25,5.59-37.83,21.71ZM453.22,200.52c2.55-1.72,4.7,1.89,6.52-1.04,3.52-9.84-2.58-7.27-5.3-10.54-1.99-2.38-.7-5.53-1.95-6.6-.69-.59-8.84-3.7-10.76-5.02-3.7-2.56-7.09-7.36-11.38-9.64-1.13-.18-17.6,11.87-18.49,13.51-2.48,4.58-1.7,19.88-.62,25.3,5.62,28.09,44.07,20.46,41.98-5.96ZM539.02,182.91c-6.72-6.41-17.39-8.61-26.43-8.15-13.47.68-31.93,11.07-26.93,26.98,2.89-1.78.62-7.28,2.3-8.88.39-.37,8.17-2.3,10.02-3.13,1.98-.89,7.99-5.25,9.35-5.11,8.77,9.81,20.2,18.62,34.55,17.13l-1.09,2.52-8.77.11,1.4,5.82c8.79-1.09,10.41,2.83,9.07,10.89-1.47,8.8-7.83,5.88-11.76,8.62-1.62,1.13-5.52,8.42-9.28,9.28.84,7.75,3.54,5.17,8.39,7.33,6.93,3.1,11.6,7.52,14.41,14.63,7.74-1.58,9.63-10.75,8.81-17.47-.42-3.42-3.86-7.93-3.91-9.2-.06-1.57,2.12-4.24,1.94-7.87-.26-5.36-4.22-8.27-4.45-12.02-.67-11.2,2-22.3-7.63-31.48ZM391.29,178.76c-.69-.44-12.11,6.75-14.17,7.79-2.67,1.34-10.32,2.53-11.29,5.8-.58,1.95-1.02,16.28-.83,18.95,1.76,24.19,28.72,24.68,38.95,7.33,1.51-2.55.83-7.73,5.12-5.72l-2.29-19.73c-6.08-3.05-13.27-7.76-15.5-14.42ZM507.68,187.93c-5.78,2.68-11.18,6.59-17.67,7.3-1.53,14.41-10.61,33.85,5.25,43.58,9.65,5.92,23.71.08,30.6-7.73,1.11-1.26,2.91-5.72,3.5-6.06,1.23-.69,1.88,1,2.96.98,6.85-.09,8.26-6.08,6.84-11.7-4.66.19-8.32.02-9.62-5.16-.44-1.73.3-3.97-.48-5.44-.64-1.21-22.41-8.27-21.38-15.77ZM4.08,188.59v60.47c12.45-6.04,29.41-1.76,32.23,13.15l8.44-3.66c-3.58-20.09-12.73-39.72-25.85-55.52-2.35-2.83-8.51-9.6-11.18-11.82-.44-.37-3.48-2.82-3.63-2.61ZM362.39,196.47v-1.96h-.64v1.64s.64.33.64.33ZM361.08,213.9c-.39-3.5,0-8.16,0-11.83,0-.65,1.92-4.35,0-4.93-1.93,13.77-11.51,28.78-2.97,42.04,4.21-3.34,9.51-5.21,14.81-6.23-4.98-5.24-11-11.51-11.84-19.05ZM590.54,214.88c-9.67-1.02-19.1,4.14-22.85,12.97-1.8,4.24-1.77,8.66-3.78,12.66-3.14-2.33-4.88-5.14-9.52-4.59,2.93,7.01,2.92,18.94-2.35,24.93-1.39,1.59-5.48,3.12-5.61,4.3l4.02,16.77c7.67-2.76,14.38-6.15,20.69,1.35,6.24-5.4,12.11-5.93,19.41-2.01v-66.39ZM424.86,228.02c-2.04-1.87-4.44-2.17-6.88-3.96-2.24-1.64-7.21-9.26-9.49-7.8-4.27,6.81.05,11.11-.72,18.34,5.63-1.39,10.38-7.27,17.09-6.58ZM437.02,227.37c-2.88.42-6.55-.3-9.53,0-6.7,20.15,30.41,10.74,18.07-3.32-1.77-.2-6.1,2.96-8.54,3.32ZM338.65,297.77c-8.33-1.91-15.92-5.78-23.38-9.82-26.69-14.49-51.16-34.91-77.06-50.48-40.37-24.26-54.45-9.22-91.22,8.87-2.34,1.15-12.74,4.81-13.27,6.46l1.19,46.87c4.88-1.61,5.55-7.08,7.98-10.09,7.13-8.84,18.96-15.98,30.48-16.85,3.82-.29,8.6,1.6,10.48,1.32,1.09-.16,6.58-3.98,9.72-4.8,6.89-1.8,16.1-2.06,23.01-.29,2.09.53,6.57,3.45,7.41,3.5,3.39.2,9.48-3.88,17.59-2.85,24.13,3.06,31.15,31.07,16.28,47.8,4.99-.94,11.43,1.45,16.07.63,2.26-.4,5.17-2.99,7.75-3.48,1.86-.35,3.31.53,4.71.23,3.66-.8,5.02-3.29,9.77-2.48,1.23.21,2.44,1.56,3.54,1.66,1.8.15,4.31-1.62,7.74-1.1s5.07,3.93,6.76,4.42c2.07.6,3.8-.34,6.35.88,2.37,1.13,3.99,4.66,4.37,7.15,6.38-3.05,9.55,3.26,15.11,1.96-3.79-9.54-.64-19.64-1.39-29.5ZM404.47,225.4l-9.25,5.65c-.65,3.44,6.99,3.51,9.25,4.21v-9.86ZM467.97,269.84c1.11-2.93,2.01-6.06,3.24-8.94s4.97-6.96,4.51-9.7c-1.66-9.91-15.29-19.55-24.24-22.52l-.97.99c-1.03,14.47-24.73,17.27-27.93,1.75-14.31,4.67-22.89,19.48-23.36,34.08l8.45-2.07c.23-3.72.21-8.55,1.36-12.09.38-1.18,2.11-3.72,3.33-2.93s-1.57,12.32-1.31,14.46c16.77-.86,32.56,1.5,47.99,7.88l-.65-17.35c-.1-.67,1.42-.5,1.63-.39,3.05,1.62-1.75,21.36,5.93,22.33,1.77-1.08.53-3.44,1.01-4.76.19-.51.94-.56,1.01-.74ZM393.22,232.71c-5.61.83-10.57,1.93-16.29.64-10.32,16.52,22.5,16.67,16.29-.64ZM371.6,237.23c-18.15,3.63-25.85,21.38-28.9,37.87l.35.98,10.8,2.56c.96-6.47.48-15.2,2.68-21.32.34-.96.97-2.58,2.24-2.34l-1.67,35.08c12.63,5.46,11.29-1.3,17.12-7.82s13.07-11.68,20.94-14.89c.2-10.25,4.1-18.7,9.33-27.19-9.23-8.61-7.21,2.49-11.51,5.63-7.11,5.19-23.44,3.08-21.39-8.56ZM341.11,268.54c.56-1.78.91-3.64,1.56-5.4l-.67-1.24c-26.84-14.17-52.5-35.93-82.82-14.8-.41,1.69.44,1.03.94,1.38,17.21,11.83,38.49,25.91,56.57,36.1,3.56,2.01,18.51,10.33,21.61,9.12l.99-1.01c-1.18-3.85,2.68-10.59,2.12-13.06-.45-1.95-2.68-.73-2.71-4.55-.03-2.96,1.93-5.02,2.41-6.53ZM518.87,241.17c-6.31,2.67-12.89,4.11-19.74,2.9-4.28,11.83,4.73,18.36,15.1,11.19,5.82-4.03,7.49-7.51,4.64-14.09ZM495.21,247.09c-15.61-.1-22.92,16.84-25.62,29.97l6.54,6.18c-.07-5.11.71-10.69,2.55-15.5.43-1.12,5.01-9.79,6.66-8.16-2.52,6.3-3.97,11.92-5.31,18.55-.1.51-1.15.54-1.23.98-1.26,7.46,2.66,10.68,5.79,17.04,1.41,2.85,2.12,6.38,3.54,9.28,3.29,2.48,29.13,3.49,31.12,2.17,1.65-1.09,4.75-9.11,4.77-11.08s-1.52-2.14-1.9-4.37c-.44-2.62,1.16-21.32,2.14-23.57.47-1.08,1.36-1.13,2.17-1.76,2.17.3-.76,22.04.4,24.88l19.65.08c1.8-12.98-3.91-35.4-16.41-41.78-8.33-4.25-6.69.97-11.21,5.76-9.35,9.93-25.94,7.33-23.67-8.69ZM4.08,252.68v81.83l38.06-2.05c1.81-8.02,6-66.9,2.74-69.32-2.65-1.69-8.37,5.62-8.91,5.62-3.31-2.91-2.88-8.24-5.27-11.81-5.29-7.91-18.84-9.29-26.62-4.28ZM479.02,294.17c-18.64-28.92-69.38-37.96-95.89-15.51-1.09.92-9.07,8.27-4.77,7.73,3.42-.44,6.88-1.66,10.63-1.87,35.13-1.93,73.85,12.57,96.69,39.46,1.72.27,1-3.35.96-4.25-.44-10.18-2.31-17.31-7.63-25.56ZM259.46,285.6c-5.37-10.22-15.55-13.81-26.85-12.15-2.82.41-6.15,3.09-8.62,2.93-1.62-.11-5.58-2.94-7.91-3.61-6.9-1.98-15.1-1.62-21.99.29-2.94.82-8.93,4.64-9.63,4.74-3.94.59-10.25-1.88-17.35-.17-17.12,4.11-16.54,12.92-25.6,22.39-1.93,2.02-6.99,3.69-9.53,6.24-8.49,8.52-4.69,17.35-8.11,26.72s-15.77,14.93-15.88,28.15c-.04,4.42,3.28,11.62,2.59,14.31-.12.46-4.67,5.77-5.57,7.69-5.05,10.76-1.87,22.74,9.78,26.85,11.74-11.03,26.05-16.21,41.84-18.3l-4.25-15.8c-15.7,1.51-26.1-15.99-20.59-29.77,3.66-9.16,20.56-14.37,22.71-1.92,2.45,14.22-.07,29.27,4.58,44.06,12.33,39.16,91.45,46.42,96.75-.25,1.34-11.81-2.31-16.97-13.55-20.48-7.95-2.49-4.98.65-9.42,3.43-8.68,5.45-15.94-1.68-23.14-1.43-14.93.52-33.35,22.31-39-4.09-1.35-6.31-.59-18.33-2.31-23.2-.23-.64-1.79-1.09-2.21-2.49-1.44-4.86,2.4-7.72,4.03-12.34.63-1.77,1.9-5.43,2.13-7.12.38-2.8-1.81-5.34.7-7.2,12.96,6.03,23.38,5.41,35.44-1.98,5.25-3.22,7.96-6.82,12.33-10.65,9.74,6.22,19.18,4.01,29.15-.13,1.35,3.58-4.48,3.93-4.6,6.21l4.61,11.54c12.54-4.75,15.3-21.42,9.48-32.48ZM352.93,297.45l.63-14.92c-1.89-.13-8.6-3.26-9.48-.84-.95,2.62-1.95,17.86-2.1,21.56-.33,8.67-.6,17.82,2.67,25.98,1.72.23,1.02-.07,1.33-.95,3-8.62,1.68-22.52,6.95-30.84ZM590.54,314.13v-27.94c-3.11-2.8-7.24-4.33-11.47-3.57s-6.32,7.39-9.21,6.55c-3.37-.98.24-6.84-8.6-6.62-2.3.06-8.83,2.06-9.83,3.99s.32,4.64-.65,6.58c-.67,1.34-3.05,1.07-3.54,2.38-.52,1.4-.28,6.76-.95,9.57-.62,2.64-2.27,7.28-3.42,9.72-1.48,3.12-7.27,9.48-7.49,10.89-.37,2.39.24,7.88.54,10.52,1.61,14.1,3.76,29.15,4.02,44.04.01.69-.42,3.34-.71,3.56-1.1.83-3.17-1.96-3.31-2.91-1.17-8.31-.57-18.96-1.28-27.63-.68-8.22-1.92-16.44-2.62-24.66-9.01,5.15-17.8,10.56-25.57,17.48-1.52,1.35-1.85,3.72-3.82,4.73-4.05,2.06-11.96,1.21-15.98-.84,2.06,8.01,3.02,16.21,6.68,23.56,5.64,11.32,15.66,13.96,16.99,29.03.25,2.88-.78,8.74-.47,10.42.47,2.5,10.43,11.08,9.77,16.1,6.45.47,35.84-3.65,36.05-11.97-5.54-26.51-7.3-52.35-10.57-78.9-.94-7.6-8.5-23.94,3.75-26.01,1.55-.26,4.43.54,4.91.29,1.35-.68,1.11-3.68,5.54-4.28,3.23-.44,6.44,1.28,7.13,1.21,2.06-.2,3.86-3.02,9.18-1.72,1.71.42,2.62,2.16,3.56,2.37,3.89.86,7.42-2.41,11.37,4.06ZM368.32,302.3c40.42-13.53,87.2,8.71,115.06,37.81l1.98.02c4.81-9.5-8.57-21.1-15.47-26.66-21.42-17.25-57.3-28.83-84.72-24.89-8.85,1.27-16.92,3.01-16.85,13.71ZM366.84,305.74c-.17-.38-1.8-.46-2.18-2.74-.29-1.69,1.26-6.64.76-7.3l-8.25-1.27c-3.9,14.87-7.8,29.01-9.79,44.44-2.55,19.79-3.09,39.83-4.08,59.74.35,2.03,5.58,1.96,7.27,2.28-.73-7.88-.99-16.12,1.39-23.79.88-2.85,5.19-8.73,5.73-11.55.58-2.99-.34-10.23.2-14.21,1.48-10.98,4.06-23.63,6.43-33.8.53-2.3,3.23-10.3,2.53-11.81ZM544.51,295.73h-17.09c-.13,7.84-6.82,17.36-12.14,23.03-.76.81-7.41,7-7.89,7.25-2.01,1.07-6.26-.4-9.19,0-1.63.23-2.71,1.49-4.06,1.73-1.49.26-4.25-1.5-5.89.18,1.33,6.12,4.1,13.11-2.91,16.78l8.21,4.28.66-3.94c1.97,2.92,1.37,3.92,5.59,3.27,2.07-1.79-8.13-6.77-4.27-9.18,2.33,1.96,4.11,5.4,7.56,5.24,2.61-4.28-10.1-12.11-7.88-14.45,4.63,1.34,11.7,5.39,10.52,11.17,1.44,1.52,6.28-4.88,7.25-5.56,5.06-3.57,11.62-6.04,16.72-10.24,9.32-7.66,13.79-17.55,14.82-29.55ZM361.08,351.93c-.3,3.06.21,6.44,0,9.53,5.07-3.09,9.6-5.99,15.82-6.2.86-5.53,2.8-10,5.6-14.78,1.13-1.92,6.81-10.94,9.48-8.59,2.17,1.91-20.04,24.74-7.36,29.38,7.19,2.63,11.53-2.12,17.71-2.92,9.43-1.23,20.23,5.12,25.23,12.93l1.27-.22c6.61-2.87,9.63-9.18,15.13-13.33-2.58-12.92-4.38-29.02,2.59-40.66l-.66-1.27c-18.24-9.35-38.71-15.76-59.52-14.16-3.22.25-13.69,1.78-15.3,4.42-.47.76-3.11,10.3-2.75,10.72,5.56-3.05,12.98-4.47,19.07-2.31,3.61,3.81-8.77,4.14-11.08,4.71-3.18.79-6.38,3.01-9.3,2.19-1.07,6.79-1.46,13.77-2.69,20.53-.33,1.84-2.87,6.26-3.23,10.04ZM241.91,307.73c-6.58-1.36-13.91.76-20.55-2.61-11.74,13.53-28.43,18.68-45.68,12.95,1.67,5.03-5.12,14.34-5.19,17.41-.04,1.51,1.63,5.1,1.81,7.33.5,6.04.81,26.21,4.65,30.18,6.29,6.5,20.57-5.48,29.31-6.26,8.17-.74,15.14,3.78,21.53,2.46,11.32-2.35,1.59-17.89-2.14-22.99-1.63-2.22-5.75-3.2-4.6-7.75,9.74,3.58,14.62,16.15,16.5,24.91,6.37.87,12.19,3.53,17.68,6.63l-7.24-41.4c-2.41,3.81-4.31.84-7.55.65s-10.28,1.31-12.15-.34c-4.62-9.17,14.73-5.37,19.05-2.95l-5.42-18.23ZM516.24,310.85l-26.53-1.25c-1.9.62.41,11.83-.42,14.4,5.87.5,10.38-2.34,16.41-.97.75-1.67,11.79-11.14,10.55-12.18ZM590.54,318.73c-3.63.23-3.72-5-6.4-5.78-2.91-.86-4.69,1.46-6.28,1.1-1.45-.33-2.78-3.85-6.07-3.77-2.41.06-4.39,2.93-5.35,3.1-2.34.41-8-7.33-11.74,4.05-8.21-5.79-10.58,1.81-9.23,9.24,2.01,11.11,10.72-.6,12.19.62.39,5.65,5.35,5.24,8.86,1.97,2.59,4.57,6.34,5.65,10.88,2.91l2.39,3.72,7.41-1.97,3.34,5.21v-20.38ZM321.08,327.18c-.74-1.32.96-4.77-2.38-6.51-2.52-1.32-3.73.55-5.8-.05s-2.79-6.12-8.53-5.03c-1.36.26-2.61,1.77-4,1.68-2.1-.14-3.48-2.57-7.96-1.78-2.41.43-3.55,2.68-4.9,2.93-2.53.47-3.58-2.36-8.59.67-4.26,2.58-4.49,7.32-6.24,8.88-2.87,2.56-10.48.02-9.55,7.46.66,5.29,7.3,4.86,10.98,3.17,1.88-.86,4.22-4.77,5.77-4.77,1.14,0,2.73,2.62,5.84,2.59,3.74-.04,4.95-3.18,7.23-3.2,4.09-.04.16,4.02,5.99,3.98,3.95-.03,3.27-1.89,6.56-2.74,2.27,1.64,3.35,3.62,6.4,4.23s3.74-1.46,6.42.44l-1.3,2.6c2.88-.04,3.12,2.52,5.44,4.1,10.03,6.82,17.6-2.71,9.24-9.24-1.68-1.31-4.82-1.61-5.52-2.37-.96-1.05-.48-3.27-1.63-4.94-.97-1.41-3.36-1.84-3.5-2.08ZM479,341.51c-7.39-9.77-18.11-17.19-28.88-22.79-2.2-.13-4.08,12.73-4.21,14.82-1.67,25.05,12.9,37.65,5.71,65.52-2.4,9.32-11.82,21.97,7.09,19.58,7.16-.91,13.55-8.63,19.61-11.95,10.96-6.01,19.43-4.82,28.71,3.41.21-4.79-.44-10.65-2.31-15.1-2.66-6.35-12.02-13.89-15.28-20.85-5.12-10.92-2.94-22.72-10.44-32.64ZM272.32,321.37c-3.55-.14-19.79-3.43-21.06.44.99,6.19.61,13.52,1.43,19.51,2.88,21.21,13.37,45.43-.33,65.58-1.49,2.19-6.42,6.51-6.34,8.07.04.82,6.29,10.03,7.36,12.43,4.01,8.93,12.1,31.71,12.97,40.93.7,7.44-3.47,3.89-3.91,5.24-1.35,13.74,11.46,19.3,19.1,28.2,6.47,1.31,30.91.32,28.79,11.03-1.09,5.52-7.97,5.69-12.36,6.41-1.47,1.8,16.4,18.53,10.16,27.57-1.72,2.49-5.15,1.43-6.09,2.13-.28.2-.25,1.83-1.05,2.55-4.76,4.32-9.25,1.55-10.18,1.99-.54.25-3.3,5.06-7.3,3.23,2.42,6.18.37,14.79,1.36,20.66.51,3.04,2.77,5.6,3.22,9.92s-.31,9.56.02,14.11c1.52.34,1.06-.2,1.49-.83,1.52-2.25,2.51-5.89,4.41-8.52.78-1.09,6.6-7.37,7.57-7.07l3.27,15.17,6.27,9.81c-.14-27.67-2.34-56.91,16.48-79.24-18.49-32.27-.71-68.79,18.37-95.93-11.21.4-19.12-6.34-9.23-15.8,1.91-1.83,7.95-4.35,8.25-4.9.67-1.23.64-10.12-.31-10.87l-5.21-1.03-.37-9.16-5.97-1.82c-1.96.32-.8,23.68-2.62,26.82-1.48,2.55-10.62,2.48-12.99,1.18-3.45-1.89-.82-7.66-.49-10.72.35-3.22,1.16-6.53,1.38-8.49.29-2.54-.31-5.63-.05-8.26l-2.9-.04c-1.2.49-1.23,19.84-3.63,23.42-1.49,2.23-11.64,2.27-13.24.65-2.89-2.95,3.72-22.36.86-29.13-1.2-2.56-3.92-2.17-6.11-3.75-2.45-1.78-3.02-5.15-3.4-5.48-.43-.38-6.72-1.11-8.4-1.79-8.16-3.26-11.56-16.56-10.58-24.35.15-1.16,1.25-.9,1.34-1.42.36-2.13-.3-4.44,1.32-6.44-1.37-1.63-3.65.34-5.94.04-5.4-.7-6.1-4.68-8.51-7.95,1.28-2.12,1.26-5.25,2.92-6.91,2.32-2.32,6.04-1.31,7.82-2.53,1.37-.94.36-3.55,2.4-4.65ZM341.17,375.09c1.14-3.58.43-11.25.86-15.26.59-5.51,3.7-22.02,2.48-26.16-1.6-5.44-8.19-1.69-8.69-1.8s-4.48-6.4-8.92-3.93c3.01,5.12,8.37,5.67,10.68,11.99,3.36,9.2-7.19,14.49-14.85,10.25-1.4-.77-4.23-4.76-5.35-4.5-2.83,13.42-9.54,27.16-24.01,30.24-1.11,1.54,3.34,5.79,4.29,5.92.19.03.6-2.55,2.99-1.03,1.06,6.41,4.51,3.45,8.66,4.48,2.76.69,3.76,4.65,8.63,3.01,1.01-.34.64-1.95,2.04-1.94,1.72,0,3.9,2.11,6.54,1.99,2.19-.1,4.53-2.23,5.96-2.3,1.5-.07,2.88,4.85,6.49,3.62,2-.68.73-6.64,1.07-8.48-.42-.47-6.73,2.53-6.57-1.31,1.93.33,7.29-3.51,7.7-4.78ZM548.9,341.27c1.11,6.61,1.35,23.63,3.79,28.12,5.29,9.72,23.14-3.5,26.8-10.09,4.15-7.45.25-8.65-1.3-16.1-.49-2.33,1.5-5.19-1.48-6.37-2.14-.84-4.53,0-6.74-.49-1.54-.34-2.68-2.07-4.06-2.21-1.59-.16-2.96,1.04-5.96.44-1.75-.35-3.01-1.82-4.33-1.73-1.65.11-5.48,2.43-7.73,2.42-.29.46-.21,4.45-.07,5.36.07.43,1.05.51,1.07.65ZM4.08,338.45v101.88c1.55.12,2.56-1.1,3.63-1.95,13.74-10.99,23.41-42.78,27.06-59.71l7.45-41.21-1.1-1.53-37.04,2.53ZM291.85,337.91c-.91.02-3.58,1.73-5.48,1.81-3.79.16-6.82-3.47-9.25,1.22-4.12,7.94-4.08,29.91,7.53,32.2,16.5,3.25,28.34-15.49,29.59-29.79-1.99-.41-7.76-3.81-9-3.93-1.02-.1-3.41,1.89-6.28,1.71s-6.3-3.23-7.11-3.21ZM590.54,356.86v-12.82c0-.4-5.32-5.54-5.71-5.63-4.66-1.12-3.59,5.65-2.18,8.11l7.89,10.33ZM141.96,341.22c-2.29.55-5.74,4.51-6.43,6.72-3.46,11.09,2.95,26.06,16.05,24.59l.81-1.24c-2.26-7.32.59-20.51-1.34-26.95-1.12-3.73-5.94-3.86-9.1-3.11ZM590.39,396.16l.15-34.37-5.59-5.58c-4.84,11.9-18.33,23.47-31.88,18.4l3,21.65c2.74,2.12,6.47-1.29,8.4-1.13,1.75.14,2.84,2.6,4.18,3,5.44,1.63,9.45-2.82,10.98-2.54.6.11.73,1.91,1.69,2.36,2.81,1.32,6.74-.05,9.08-1.79ZM377.39,358.96c-1.78-.96-7.57,1.54-9.38,2.52-22.8,12.3-16.63,63.63,9.51,69.66-.19-1.3-.3-8.42,2.29-7.89,1.27.26,7.51,20.66,15.6,19.61,9.59-1.25,24.32-17.98,29.12-26.18,3.72-.62-1.3,9.11,1.29,9.2,10.49.39,21.36-21.52,23.03-30.23,1.55-8.09,2.01-17.74.13-25.77-.27-1.15-2.97-8.9-3.42-9.08-1.83-.74-3.67,4.18-4.95,5.58-2.29,2.51-8.74,8.19-12.15,8.18-1.19,0-12.46-9.73-16.91-11.31-11.48-4.08-14.63,3.7-25.76,2.09-6.79-.98-6.8-5.51-8.41-6.38ZM310.9,389.93c-1.49-2.16-5.25-2.49-7.68-2.18l-1.31,21.04,8.26-.62c.94-1.26,1.62-16.96.74-18.24ZM320.98,393.34c-.94,5.32.69,13.12,0,18.73l6.94-.62c.95-1.37-.06-12.68.24-15.53.09-.88,2.85-2.15.98-4.31l-6.56-1.05c-.57.14-1.5,2.21-1.6,2.77ZM158.45,395.11c-37.17,1.52-55.86,31.63-70.88,61.17-.22.43-1.1.55-1.49,1.32-1.32,2.64-8.45,17.82-7.59,19.42,15.72,9.99,36.66,12.02,54.66,8.72l12.96-52.63c4.32-.67,2.2,7.59,1.76,10.65-.83,5.89-3.17,9.79-4.34,14.19-1.5,5.67-2.35,12.14-4.01,17.88,29.84-4.17,54.06-26.85,67.71-52.58-19.38-.62-40.2-9.89-48.78-28.14ZM559.05,419.88c.48.35,2.62.16,3.24-.24,1.51-.95,3.08-19.97.92-20.63l-6.86.57c.15,2.54,1.88,19.7,2.7,20.3ZM584.62,401.55l-8.55-1.31v19.39c2.33,2.15,5.67,1.62,8.55,1.64v-19.72ZM566.87,400.9v14.79c0,1.35-2.94,11.61-3.96,12.47-4.4,3.68-11.04-1.09-14.09-1.02-2.35.05-6.15,2.71-8.9,2.7,7.33,13.01.81,19.42-13.14,16.42,4.25,18.86,8.9,39.93,4.26,59.15-.59,2.45-3.59,8.85-3.6,10.12,0,2.88,4.13,12.27,4.57,17.18.65,7.2-.45,13.72-1.93,20.66,16.19,2.68,31.02,7.37,32.22,25.96,1.09,16.96-2.33,36.29,6.01,51.83,2.82,5.26,11.19,14.5,12.54,19.72.35,1.35.75,1.99-.22,3.35-7.94,4.79-17.57.65-26.24,1.71,1.81,4.82,15.86,11.9,7.04,17.22-7.7,4.65-30.43,1.69-39.41-.31-8.76-1.95-17.66-7.35-26.55-8.3-4.66-.49-24.25-.16-28.09,1.34-1.82.71.06,11.61-.74,15.03-2.38,10.1-23.9,19-33.2,20.71s-35.26,2.23-42.13-3.93c-4.82-4.32-2.71-15.61.56-20.54,6.38-9.59,27.07-12.58,25.77-27.81l-39.76-2.6-.75,1.34c.92,4.07,2.3,16.76.13,19.73-5.26,7.21-33.32,12.36-42.31,12.21l-8.05,11.72c9.37,3.34,19.14,6.58,28.27,10.53,4.97,2.15,18.98,7.97,22.4,11.13,9.48,8.73-.58,27.1-11.7,30.46s-28.33-10.8-38.97-14.31c5.44,7.22,13.22,13.5,11.41,23.57-2.57,14.26-25.56,21.99-37.01,14.18-4.78-3.26-15.93-21.28-19.65-26.99-2.72-4.17-5.26-8.86-7.36-13.39-.77-.51-3.25,1.79-3.83,2.4-9.74,10.18-18.98,27.5-29,37.39-14.57,14.38-51.98-1.33-40.15-21.56l13.16-15.6c-10.54,3.82-28.96,18.24-39.81,18.41-11.46.18-22.64-12.75-21.93-23.91.84-13.09,18.42-15.91,28.01-20.02,10.36-4.43,20.49-9.44,31.1-13.28-14.04-18.63-16.26-40.93-6.58-61.77l-9.2-.66c-.9,1.01,4.27,8.12,2.03,10.91-2.64,3.28-24.46-2.03-28.99-3.68.03,1.34-.2,2.81.14,4.13,1.48,5.72,21.86,12.74,25.16,20.86,10.18,25.03-24.61,25.01-40,22.9-10.36-1.42-27.04-7.25-33.88-15.43s.56-21.57,1.9-30.49c-15.43.38-26.87,12.41-41.74,16.44-4.22,1.14-23.27,4.95-21.94-3.46.5-3.14,14.8-14.79,15.68-20.2-18.17,1.67-39.24,7.8-57.44,5.82-8.09-.88-16.17-3.37-7.97-11.08,6.7-6.31,15.78-9.52,22.3-17.8,13.19-16.73,7.8-31.62,11.74-49.39,3.53-15.91,20.93-18.56,34.38-22.16.77-3.56-.05-7.3.3-10.88.49-5,3.31-12.94,3.2-17.05-.07-2.65-1.78-6.67-1.92-9.89-.23-5.1,1.19-9.95,1.22-15l-6.48-6.03,5.93-14.81c-12.86,3.54-25.88,10.15-39.2,11.74-3.31.4-16.12,2.46-13.07-3.86l22.03-19.71c-14.39,5.44-30.13,6.84-45.36,7.88v379.26h586.45v-435.79l-1.97-.66v22.02c0,8.86-15.17,8.6-17.56,3.45-.44-.95,2.45-7.91,1.73-10.01l.05-14.81-5.92-.65ZM348.59,403.86v10.52c0,1.57-4.84,4.05-5.91,4.92,4.53-.48,8.17,2.02,11.62,4.49l3.99-2.83c-2.02-2.02-6.75-17.82-8.06-18.09-.82-.17-1.15.53-1.63.98ZM514.04,424.78c-3.48-5.89-11.3-14.94-17.73-17.43-16.69-6.46-27.14,19.8-45.7,14.8-3.35-.9-4.34-3.85-7.03-5.44-4.23,5-5.08,11.64-8.08,17.51-8.8,17.21-31.13,41.52-47.54,51.73-3.18,1.98-7.47,3.88-11.04,5.07.25,3.81.68,7.15,4.09,9.26,7.92,4.9,47.88,9.26,57.28,7.72,1.8-.29,7.36-3.38,9.37-4.43,9.84-5.16,19.81-12.74,29.44-18.48l-1.97-44.08c3.89,7.88,2.64,16.92,3.57,25.34.13,1.19,1.28.68,1.42,1.89.23,2.02.06,14.94.6,15.49,5.02.16,10.78-.97,15.08,2.34,1.82,1.41,3.22,3.92.02,3.29-2.38-.47-4.73-2.12-8.2-2.33-2.21-.13-4.57-.3-6.7.5l-45.77,26.54-1.09,1.86c18.35,2.53,33.18,20.34,34.85,38.13,16.06-4.9,36.21-14.34,47.32-27.29,21.17-24.69,13.1-76.12-2.19-101.97ZM243.32,416.73c-10.33,5.03-21.12,7.45-32.69,7.28-13.41,27.95-40.94,51.51-72.27,55.91-.94,1.9-1.7,8.16-2.72,9.44-1.21,1.53-6.62-.27-3.67,5.51,1.61,3.15,14.93,5,18.41,5.25,15.75,1.13,47.11.42,60.35-8.65,9.28-6.35,18.14-33.41,21.16-44.58.7-2.59,3.47-18.52,4.28-19.06.25-.16,1.62-.09,2,.29,1.6,1.42-.25,10.01-.76,12.34-.11.51-1.09.51-1.21,1.01-2.83,12.17-5.79,24.06-10.56,35.65,12.4-2.8,24.56-7.33,37.47-7.23l-3.88-12.35c-3.09-14.44-7.78-28.56-15.92-40.83ZM343.33,430.47c3.18.29,6.3-1.41,8.53-3.61-3.43-4.66-9.09-4.9-14.45-3.95l-1.97,4.93c1.84.47,2.33-3.16,3.61-3.27,2.74-.22-2.74,6.14,0,5.9l5.91-4.59.68,1.98-2.31,2.61ZM380.8,431.79c-5.32,7.31-14.9-3.09-19.72-6.94h-1.3c-2.54,3.15-6.74,6.25-9.21,9.24-22.45,27.14-41.06,73.53-12.83,102.87,1.87,1.94,4.1,3.28,5.93,5.25l6.98-13.39c7.03-8.8,17.08-13.15,28.18-14.22-2.26-3.19-20.42-19.23-20.4-21.35.03-3.88,4.18,1.33,5.94.03.51-.3,5.07-9.64,5.22-10.61.65-4.08-2.29-13.88-2.63-18.98-.24-3.72-.32-23.53,2.07-25.28l1.91-.06c-.57,10.17-1.13,20.34.08,30.49.41,3.4,2.63,15.97,3.79,18.57.27.61-.34,1.18.98.83,26.16-13,45.9-36.05,59.57-61.4-4.02.04-7.46,3.98-11.85,1.98-1.32-.6-.66-2.81-2.6-2.3-2.71,6.63-19.44,19.52-26,19.76-5.16.18-13.55-9.38-14.13-14.51ZM537.11,431.97c-1.28-1.09-12.39-.05-14.62.49-.83.2-1.13-.54-.97.94,1.16,4.89,3.33,3.93,5.94,5.9s1.64,5.24,6.05,4.82c8.69-.83,7.25-6.44,3.6-12.15ZM526.1,442.31l-1.95-.34c.46.76,1.96,1.79,1.95.34ZM258.52,473.86l-31.53,6.6c.99,8.48,1.48,22.59,9.24,27.85,5.19,3.52,20.72,9.4,24.24,13.88,2.59,3.29,4.52,13.29,7.89,18.4,1.86,2.81,7.71,8.82,10.6,10.43,1.99,1.11,9.76,3.49,9.14.08-.21-1.17-13.58-13.8-13.14-18.08,1.53-.16,2.64.13,3.9,1.02,3.82,2.73,9.58,13.26,13.88,15.7,1.47.83,1.97,1.35,3.73.55l1.82-2.82c-1.76-2.1-16.59-17.86-14.79-19.71,5.19-.12,16.78,18.7,20.03,17.74,2.99-4.66-.71-11.05-2.93-15.45-1.59-3.14-7.44-9.74-6.6-12.37,3.93-2.61,12.11-.59,12.53-6.54-7.1-7.24-20.67-2.59-28.24-7.42-1.98-1.26-13.67-13.31-15.32-15.58-2.93-4.03-5.12-9.22-4.45-14.29ZM224.58,495.32c-1.16-4.14-.71-9.45-2.87-12.91-.32,3.98-4.87,7.79-6.06,10.71-.82,2.02-.6,6.13-1.21,8.53-.19.75-1.89.05-1.29,1.79l15.77,2.63c-1.77-3.34-2.32-6.51-3.35-10-.15-.5-.96-.58-1-.75ZM128.34,490.29c-15.07,1.86-30.59-.67-44.7-5.91-.32,5.08-1.2,10.33-.65,15.44,1.59,14.85,22.5,26.73,35.05,32.01,4.22,1.78,17.54,5.02,19.75,6.54s4.96,6.8,9.01,9.4c5.11,3.27,9.79,2.89,14,5.07,5.82,3,10.53,14.26,18.82,8.44v-1.29c-2.63-1.54-3.38-5.48-5.9-8.24-2.69-2.96-6.86-3.6-7.24-6.88,5.75-.9,10.72,5.36,13.7,9.6,1.84,2.62,1.24,7.46,6.2,6.05,4.32-1.23,1.15-6.36-.19-8.74-2.63-4.71-6.76-7.42-9.85-11.51,7.02-.52,11.14,7.82,14.89,12.7,1.34,1.75-.39,4.04,4.11,3,1.48-8.44-6.88-14.76-11.77-20.65-.33-1.73,1.88-.94,2.65-.67,6.28,2.21,8.95,9.79,12.46,14.81,2.58-20.05-21.46-22.98-34.97-29.11-6.61-3-16.13-8.57-22.06-12.78-1.48-1.05-11.87-9.38-12.31-10.04-1.5-2.27-.94-4.64-1-7.22ZM373.57,503.44c.84-5.44-1.06-9.99-2.29-15.11-5.15,6.49-4.48,10.48,2.29,15.11ZM211.18,495.55c-21.94,10.33-47.38,9.22-71,6.89,5,2.11,11.85,9,16.65,10.3,8.32,2.25,42.12-2.59,49.78-6.98,4.22-2.42,3.15-6.1,4.57-10.22ZM432.08,511.33c-18.22.1-36.74-2.43-53.9-8.55-1.72,2.04,2.38,10.21,4.25,11.85,2.1,1.85,5.95,1.77,8.7,3.13,1.95.96,9.72,7.88,10.38,7.9,4.64-3.72,9.69-7.01,15.46-8.75,4.8-1.45,10.18-.89,14.26-4.11.48-.38,1.27.1.85-1.47ZM265.09,577.38c.47-4.11-.34-8.94,0-13.15,0-2.5,7.26,1.82,8.11,2.41,2.84,1.97,4.76,5.2,7.66,7.12-.37-4.39.07-14.15-1.43-17.96-.47-1.2-7.82-6.03-9.43-7.66-6.89-6.94-9.31-16.09-12.97-24.84-9.79-4.75-16.98-10.37-27.68-13.4-2.42-.69-15.01-3.73-16.73-3.72-.84,0-6.49,3.67-8.98,4.49-3.96,1.31-9.3,2.17-13.48,2.95-8.65,1.62-17.57,3.09-26.31,2.29-.36,1.72.42,1.14,1.28,1.65,11.05,6.54,34.32,7.67,37.48,24.46,1.48,7.88-.83,7.11-3.78,11.78-.84,1.33-.34,3.52-1.73,4.87s-3.56.6-4.36,1.01c-1.17.59-1.92,2.98-5.2,3.9-1.91.54-3.7.02-5.44.47-1.59.41-2.93,2.11-5.49,2.41-9.02,1.05-10.96-6.57-16.47-9.71-4.92-2.81-11.66-2.96-17.25-7.08-3-2.21-6.54-8.61-7.33-9.11-1.17-.74-13.92-3.77-17.25-5.1-12.25-4.91-25.57-12.96-34.35-22.84-8.53,22.86,2.09,43.94,22.9,54.67,1.86.96,13.32,5.79,14.66,5.79,4.35.02,1.68-9.64,6.82-9.19,1.22,1.29-6.68,28.52-5.24,35.15,1.02,4.67,19.55,8.05,24.08,8.79,27.18,4.41,57.09,3.17,83.77-2.98l10.11-23.25c1.13-5.33,7.54,3.17,8.46,4.82,2.24,4.01,3.22,10.01,3.07,14.6l1.31.32c3.98-7.88,10.15-14.8,11.19-23.99ZM395.92,534.33c5.55-7.57-5.68-14.29-12.19-15.73-8.63-1.91-20.58,1.64-26.58,8.18-1.02,1.12-5.44,8.12-5.33,9.18.03.33,3.26,5.08,3.78,5.5,2.22,1.8,6.74,2.52,9.53,4.27,3.29,2.07,5.14,6.03,8.71,7,7.82-.24-4.22-11.74-5.18-14.49-.46-1.33-.6-1.68.64-2.59.59-.05,6.34,5.6,6.92,6.4,1.67,2.32,3.98,9.88,6.22,9.99,10.98-2.47-6.47-18.8-6.23-20.02.99-4.82,10.6,7.08,11.18,8.05,1.84,3.11,2.19,12.5,6.95,7.09.36-7.71-3.05-13.91-8.27-19.41l3.66.6,6.19,5.96ZM456.84,533.24c-4.68-5.64-16.48-14.31-23.83-15.29-16.02-2.14-36.99,10.5-35.77,28.21l2.53-.11c2.17-7.27,7.56-16.51,15.87-16.98-2.72,4.66-6.82,5.86-9.88,10.82-2.87,4.65-6.25,12.56,1.99,12.84-2.59-5.09,12.94-21.62,15.78-19.06-3.66,5.15-12.41,10.75-11.87,18.06.09,1.16.67,3.03,1.63,3.67,4.59,3.08,4.05-2.61,5.51-5.1,1.35-2.31,9.09-11.21,11.62-10.72l.69,1.98c-2.53,1.88-16.08,16.74-6.63,15.12,2.04-.35,4.73-4.62,6.62-5.92,5.86-4.04,11.11-2.09,17.58-3.46,2.04-.43,10.18-3.75,11.37-5.07,2.05-2.25-1.63-7.08-3.22-9ZM525.09,521.51c-.39-.39-.2-1.18-.63-.98-8.82,14.27-24.03,25.08-39.34,31.66-6.89,2.96-16.09,6.73-23.62,5.64-9.64-1.4-9.18-8.22-22.53-6.42-6.14.83-10.37,9.42-15.71,9.17-1.93-.09-3.22-1.71-4.62-1.84-1.55-.14-3.27.97-5.81.43-.48-.1-7.58-2.91-9.05-3.44-3.07-1.1-3.05-5.39-5.52-5.58-2.57,1.52-6.07,1.36-8.43,2.08-1.37.42-3.23,2.49-5.57,2.97-2.05.43-10.33,1.08-12.29.77-4.4-.69-4.41-3.67-6.91-5.57-3.19-2.43-6.71-3.73-10.23-5.55-9.38,10.85-17.38-5.9-24.64-10.88-10.38,10.74-14.9,29.41-15.78,44.08-.51,8.6-1.11,29.66.68,37.41.87,3.79,7.03,8.95,6.54,14.17,1.05,1.33,3.31-4.75,3.49-5.38.64-2.29.2-4.27.75-6.48l1.85-.53c4.65.47,9.09,15.01,12.12,18.17,42.91,11.33,91.12,17.73,132.58-1.76l3.17-53.52,2.5-1.11v3.94c20-4.29,48.45-17.23,50.54-40.52.4-4.46-.43-17.8-3.55-20.95ZM79.03,538.93c-16.47,2.32-49.63,15.45-18.39,29.24,16.44,7.26,36.22,7.1,53.89,6.91-.29-2.25-4.94-2.47-6.82-3.36-6.04-2.86-12.91-6.76-17.33-11.77l-20.56.37c-1.25-1.06.15-1.42,1.02-1.63,4.77-1.13,12.33-.03,17.4-.69-4.81-4.88-7.85-12.33-9.21-19.06ZM347.94,544.84l3.93-1.64c-2.76-4.48-4.29-3.55-3.93,1.64ZM463.64,544.84c-.37-.39-9.17,4.09-9.68,4.43-.61.42-1.18-.04-.83,1.47,3.92,1.34,7.46,4.28,11.82,3.95l-1.31-9.86ZM483.37,586.25c15.6.77,31.39.61,46.81-2.16,4.45-.8,27.44-5.84,27.36-11.17-.13-9.56-21.96-15.69-29.42-16.87-.53,1.32-1.19,3.71-2,4.75-1.54,1.96-5.59,4.45-6.59,7.06l13.14.67c-2.34,5.35-12.21,1.31-16.57,2.13-2.82.53-8.85,5.69-11.91,7.18-6.72,3.28-14.18,5.03-20.83,8.42ZM122.43,577.71c-22.82,1.2-53.93,2.39-72.94-12.2-1.5-1.15-1.54-3.47-3.98-2.92-.03,18.21-1.31,35.49-13.79,49.64-6.25,7.08-15.19,11.04-21.71,17.72.72,3.43,18.31,3.16,21.39,2.99,14.69-.78,29.81-5.39,44.6-6.02l6.81-21.44,1.81-.84c2.81,1.17-4.27,22.11-5.68,25.22-2.15,4.75-7.05,11.1-10.45,15.19-1.24,1.5-7.51,6-5.9,7.58,8.37,1.04,16.75-.85,24.48-4.12,11.69-4.96,23.62-16.72,37.32-13.62l4.68-27.29-10.33-6.2,3.69-23.7ZM282.45,582.06c-2.81-5.32-8.33-11.48-14.06-13.55,2.18,18.55-9.92,30-18.1,44.67l-3.59,1.33-.02-1.64c5.36-9.82,2.82-18.62-2.94-27.93-4.16,13.35-15.03,24.77-14.14,39.44l-2.15-.15-9.34-9.05c-31.35,40.69-10.78,86.78,38.98,95.11,45.96,7.69,96.49-27.64,77.73-77.05-.67-1.77-4.59-11.2-6.58-9.52-.42,2.6-1.51,5.82-2.72,8.13-.68,1.3-5.27,9.57-6.84,7,1.64-15.21-12.61-25.16-17.25-37.97-1.02-2.82-1.41-5.83-2.13-8.72-3.34,3.89-7.12,8.22-7.88,13.47-.36,2.5.85,14.3-3.54,6.17-5.05-9.37-1.4-22.16-5.41-29.75ZM558.32,578.37c-24.84,12.52-53.7,11.93-80.87,10.51-1.49,12.91-.2,27.06-1.29,39.79-.19,2.26-.74,6.64-2.39,8.12-2.23,1.99-9.61,2.25-10.14,5.03l1.99,20.68c10.47-.03,22.04-1.65,32.46-.57,8.44.87,17.83,6.28,26.7,8.14,11.22,2.36,25.41,4.02,36.18-.36l-13.71-15.5c-3.69-6.23,6.51-1.92,8.85-1.65,2.74.31,7.03.67,9.76.75,2.26.07,11.41.87,11.54-1.64.08-1.64-8.63-12.63-10.21-15.47-3.34-6-5-12.5-7.52-18.23l-1.35-39.62ZM170.42,613.87l-38.79-5.93-3.2,25.87c1.82,4.76,30.51,4.06,35.64,2.29,1.74-1.23,2.1-9.71,2.81-12.33.35-1.29,1.36-1.43,1.49-1.91.74-2.63,1.1-5.42,2.04-8ZM226.96,617.15l1.97-9.2-7.88,1.98c.9,3.04,2.18,6.84,5.92,7.22ZM216.44,611.24l-24.98,1.97,3.39,11.73,12.39-.23,9.2-13.47ZM188.1,613.94h-14.3s-3.74,18.35-3.74,18.35c8.05,2.97,16.7,4.87,25.34,4.57l-7.3-22.93ZM165.09,639.56c-13.24,2.06-26.59,2.33-39.37-2.04.39,4.86-5.13,16.47-3.97,20.56.13.46,6.64,5.25,7.51,5.04,6.76-14.4,22.06-17.86,36.56-20.33l-.73-3.22ZM372.85,646.14l-32.8-7.3c-.33.38,2.03,8.49,2.6,9.38.78,1.21,3.71,3.24,5.15,5.54,2.64,4.2,3.21,8.93,6.46,12.64l18.99-7.84-.4-12.42ZM419.6,659.22h10.85c6.98,0,22.81,13.14,21.38,21.69,4.23-2.3,8.15-5.06,11.03-9.01l-1.84-29.76c-12.96,4.22-26.49,6.37-40.09,7.24l-1.33,9.84ZM190.4,661.59c-3.11-5.07-6.86-7.23-12.08-9.96-13.2.68-28.87,6.72-34.86,19.41,6.67,1.91,13.32,3.97,20.38,3.29.23-.2-1.06-4.13-1.39-4.85-.61-1.36-4.7-5.76-2.22-5.67,3.49.12,6.25,8.21,6.99,11.1l9.11-.57-5.91-10.85c1.14-3.15,4.54,1.24,5.41,2.49,3.46,5.01,1.8,10.66,10.35,6.08l-5.89-12.17c2.88-2.5,9.17,9.15,7.89,11.82,7.83.96,4.74-6,2.22-10.1ZM336.76,676.3c2.08,1.92,25.18-4.03,28.91-5.6,3.81-1.6,9.53-3.79,8.56-8.86-5.5,3.11-11.14,5.65-17.25,7.4-4.23,1.21-16.56,2.5-19.06,3.79-1.14.59-1.13,2.21-1.16,3.27ZM339.39,669.07c.37.38,3.59.06,3.28-1.63-.68-3.75-4.79.09-3.28,1.63ZM422.88,690.77c.91.9,17.94-2.9,19.7-5.58-5.47-9.74-20.38-16.24-31.24-16.13-5.27.05-23.27,11.98-17.75,17.8l4.31,1.28c-1.42-2.93,6.48-14.33,9.2-11.83-.36,2.8-2.93,3.78-4.29,6.55-3.33,6.79-1.66,6.3,4.94,7.26.99-4.43,3.92-9.74,7.57-12.48,3.19.11-5.29,10.8-3.62,13.13l7.12-.11c.32-4.39,2.62-8.13,6.37-10.38l.87,2.16c-2.17,2.33-3.43,5.07-3.18,8.34ZM463.64,676.97c-5.58,4.06-10.81,8.49-17.17,11.42-17,7.82-30.82,7.34-48.71,3.5-2.48-.53-6.34-3.89-5.62.36.71,4.22,9.54,5.75,13.39,6.33,13.45,2.03,28.88.41,41.25-5.28,6.3-2.9,16.74-8.55,16.86-16.33ZM184.88,729.88c.45,3.31-.33,7.43,0,10.85,18.34-8.62,37.89-17.07,50.62-33.51-8.57-2.75-15.29-8.61-21.9-14.38l-44.5,19.62c7.61,1.4,14.74,9.9,15.78,17.43ZM368.31,711.81l-43.17-17.61-18.66,13.35c10.02,15.67,29.34,21.76,45.07,30.53,1.94-8.22,3.62-18.46,11.17-23.66,1.73-1.19,4.23-1.24,5.58-2.62ZM268.28,715.19c-.74-.46-10.84-1.13-13.18-1.62-5.28-1.09-10.46-2.68-15.66-4.04-11.25,8.59-20.14,20-29.58,30.52,13.94-4.33,30.83,2.9,33.86,17.75l26.8-34.37c.35-1.25-1.88-8.02-2.24-8.24ZM328.21,737.43c-7.38-10.25-16.64-19.15-26.12-27.5-9.53,2.54-19.11,5.29-29.1,5.17,4.32,15.06,15.6,27.02,23.02,40.09,1.79-3.33,2.32-6.12,4.92-9.2,6.09-7.25,18.07-10.71,27.29-8.55ZM179.39,724.51c-1.58-2.78-6.05-7.16-9.16-8.24-18.05-6.27-15.58,19.14-4.51,25.53,14.9,8.6,20.81-4.75,13.67-17.29ZM376.01,717.25c-9.3-11.39-27.83,19.08-16.22,23.78,9.09,3.68,22.93-15.56,16.22-23.78ZM319.52,739.59c-9.7.98-25,12.18-17.89,22.77,8.31,12.36,43.1-2.33,31.46-18.31-3.14-4.31-8.57-4.97-13.58-4.46ZM215.63,741.55c-4.15.51-10.5,3.68-11.83,7.89-5.87,18.59,33.76,25.36,36.16,11.83,2.15-12.11-13.62-21.03-24.33-19.72Z"/>
  <rect x=".14" y="841.29" width="595" height=".66" fill="#fff"/>
  <path d="M566.87,400.9l5.92.65-.05,14.81c.72,2.1-2.17,9.06-1.73,10.01,2.39,5.15,17.56,5.41,17.56-3.45v-22.02l1.97.66v435.79H4.08v-379.26c15.23-1.04,30.97-2.44,45.36-7.88l-22.03,19.71c-3.05,6.32,9.76,4.26,13.07,3.86,13.32-1.6,26.34-8.2,39.2-11.74l-5.93,14.81,6.48,6.03c-.03,5.05-1.46,9.91-1.22,15,.15,3.22,1.86,7.24,1.92,9.89.1,4.1-2.71,12.05-3.2,17.05-.35,3.58.47,7.31-.3,10.88-13.45,3.6-30.85,6.25-34.38,22.16-3.94,17.77,1.45,32.66-11.74,49.39-6.52,8.28-15.6,11.49-22.3,17.8-8.19,7.72-.12,10.2,7.97,11.08,18.21,1.98,39.27-4.15,57.44-5.82-.88,5.41-15.18,17.06-15.68,20.2-1.33,8.41,17.71,4.61,21.94,3.46,14.87-4.03,26.31-16.06,41.74-16.44-1.34,8.91-9.05,21.93-1.9,30.49s23.52,14.01,33.88,15.43c15.39,2.1,50.18,2.13,40-22.9-3.3-8.12-23.68-15.14-25.16-20.86-.34-1.32-.11-2.78-.14-4.13,4.53,1.65,26.35,6.96,28.99,3.68,2.24-2.79-2.94-9.9-2.03-10.91l9.2.66c-9.68,20.84-7.46,43.15,6.58,61.77-10.61,3.84-20.75,8.85-31.1,13.28-9.59,4.11-27.17,6.92-28.01,20.02-.72,11.17,10.47,24.1,21.93,23.91,10.85-.17,29.27-14.59,39.81-18.41l-13.16,15.6c-11.83,20.23,25.58,35.95,40.15,21.56,10.02-9.89,19.26-27.21,29-37.39.58-.61,3.06-2.91,3.83-2.4,2.1,4.52,4.65,9.21,7.36,13.39,3.72,5.71,14.87,23.73,19.65,26.99,11.45,7.82,34.44.08,37.01-14.18,1.81-10.07-5.96-16.35-11.41-23.57,10.64,3.51,27.83,17.67,38.97,14.31s21.18-21.73,11.7-30.46c-3.43-3.15-17.43-8.97-22.4-11.13-9.13-3.96-18.9-7.19-28.27-10.53l8.05-11.72c9,.15,37.05-5,42.31-12.21,2.17-2.97.79-15.66-.13-19.73l.75-1.34,39.76,2.6c1.3,15.23-19.39,18.22-25.77,27.81-3.28,4.93-5.38,16.22-.56,20.54,6.87,6.16,33.29,5.55,42.13,3.93,9.3-1.71,30.81-10.61,33.2-20.71.81-3.42-1.08-14.32.74-15.03,3.84-1.5,23.43-1.84,28.09-1.34,8.89.94,17.79,6.35,26.55,8.3,8.98,2,31.71,4.96,39.41.31,8.82-5.32-5.23-12.4-7.04-17.22,8.67-1.06,18.3,3.08,26.24-1.71.97-1.35.57-2,.22-3.35-1.35-5.22-9.71-14.45-12.54-19.72-8.34-15.54-4.92-34.87-6.01-51.83-1.2-18.59-16.03-23.29-32.22-25.96,1.48-6.94,2.58-13.46,1.93-20.66-.44-4.91-4.58-14.3-4.57-17.18,0-1.27,3.01-7.67,3.6-10.12,4.64-19.22-.01-40.29-4.26-59.15,13.95,3,20.47-3.41,13.14-16.42,2.75.01,6.55-2.64,8.9-2.7,3.05-.07,9.7,4.7,14.09,1.02,1.03-.86,3.96-11.12,3.96-12.47v-14.79ZM554.38,462.69c.28,2.97,1.82,5.47,2.45,8.38.34,1.57-.6,7.92,1.8,7.38s1.06-16.77-4.26-15.77ZM568.84,463.34c-4.62-1.35-6.13,12.7-5.25,13.8,1.14.22,1.35-.26,1.8-1.15.53-1.03,3.91-12.19,3.45-12.65ZM576.07,469.26c-4.51.81-8.73,4.31-7.88,9.19,1.37,1.57,8.65-8.43,7.88-9.19ZM32.95,499.54c-.28-.22-1.35.03-1.91-.05l1.31,13.15h1.97c.53-.56-.51-12.44-1.37-13.1ZM40.64,513.06c.38-.65,3.99-8.31,4.07-8.79.21-1.19.1-1.41-.86-2.14-4.38,3.31-6.64,6.65-6.24,12.47,1.14.4,2.55-.72,3.03-1.55ZM28.68,513.06c-1.38-3.58-3.04-8.48-7.16-9.63-.9.18-.93,1.09-.69,1.97.57,2.04,5.43,6.64,5.78,9.7.5.76,2.9.43,3.11.15.97-1.33-1-2.08-1.04-2.2ZM564.24,543.53c1.98,2.05,4.92-14.3,0-11.44v11.44ZM559.93,540.62c-1.16-2.74-2.52-7.63-6.21-6.94l6.26,11.16,1.53-.95c.19-1.46-1.35-2.72-1.58-3.27ZM576.07,533.68c-1.83-1.7-12.18,9.33-6.9,12.47l6.9-12.47ZM41.56,670.39c.37,2.29-.39,16.53,2.94,15.77,2.16-1.37.09-19.03-2.94-15.77ZM37.61,685.5c-.13-5.12-4.67-13.49-10.51-11.82-.76,1.12,3.38,3.57,4.22,4.64.98,1.25,4.68,8.83,6.29,7.18ZM56.68,673.02c-5.73-1.82-10.84,13.71-7.55,14.45,3.56-3.89,5-9.75,7.55-14.45ZM525.05,706.94c2.77,3.83,4.92,7.19,7.3,11.42,4.07-.01-1.93-11.18-3.08-12.68-4.11-5.38-10.16-6.93-4.22,1.27ZM541.22,701.29c-3.19-3.42-4.59,14.59-2.29,15.11,2.84.64,2.28-13.34,2.29-15.11ZM109.49,716.88c-1.37-9.3-11.59-14.64-20.24-14.97-17.77-.68-36.42,20.76-7.95,23.06,6.07.49,22.87.79,26.98-3.98.37-.42,3.1-5.07,1.21-4.11ZM553.71,703.92c-4.83-1.6-13.03,12.86-8.86,13.8,1.76.4,2.24-4.29,2.96-5.43s7.04-7.25,5.9-8.37ZM415,731.52c.65,2.17,2,16.89,4.26,16.42,3.52-1.73-1.8-19.4-4.26-16.42ZM432.08,734.81c-4.81-1.79-11.72,12.92-7.55,13.8,1.93.4,2.41-5.32,3.12-6.73.52-1.02,4.86-6.71,4.43-7.07ZM410.16,742.27c-.32-.4-5.12-4.64-5.47-4.73-5.86-1.47,1.69,5.99,2.04,6.51,1.79,2.67,2.71,7.81,6.95,6.53.68-1.32-2.47-7.01-3.52-8.31ZM502.86,763.3c-5.45-9.14-18.48-14.58-28.85-13.2-12.5,1.66-41.36,23.56-18.39,29.88,11.6,3.19,61.96,8.01,47.24-16.67ZM43.52,758.47c-.19-.15-1.42.08-1.96,0-.46.49.41,12.31.66,13.47.18.84.59,1.88,1.63,1.65,2.16-.49.42-14.51-.33-15.11ZM56.02,760.44c-5.34-1.57-10.51,11.19-6.89,13.14.2.11,1.72.27,1.63-.38-1.43-2.56,6.37-11.71,5.26-12.75ZM28.55,764.93c3.38.04,7.72,10.65,8.73,10.61,3.23-.11-1.83-11.87-6.84-12.79-1.61-.29-2.64.55-1.89,2.18ZM120.28,773.09c-5.88,1-19.9,12.4-12.59,18.18,6.6,5.22,46.29,6.78,38.12-9.19-3.97-7.75-17.71-10.32-25.53-8.99ZM543.86,794.62v-13.47c-1.03-1.34-1.63-1.29-2.63,0v9.86c0,1.89-2.35,3.87,2.63,3.62ZM536.23,793.06c-1.03-3.04-3.26-9.85-6.36-11.09-6.68-2.66.26,5.69,1.17,7.38,1.73,3.18,1.86,8.56,6.23,7.9,1.04-2.39-.91-3.77-1.05-4.19ZM557,783.45c-2.03-2.19-15.32,13.3-6.63,12.42.32-5.39,6.39-7.66,6.63-12.42ZM368.3,803.16c.6-.38,2.46-13.37.99-13.8-4-1.16-5.27,16.5-.99,13.8ZM354.2,791.33l-.9,2.19c2.71.85,5.62,12.03,7.45,11.61,3.54-.8-2.52-13.98-6.55-13.8ZM380.15,791.34c-6.34.66-9.69,6.58-9.2,12.49l2.98-.64c-.35-5.34,4.78-7.15,6.22-11.85ZM232.22,794.95c-.49,2.33,0,7.73,0,10.52,0,.28,2,2.58,2.98,1,.91-1.46,1.55-12.15.22-13.06-1.64-.5-2.83-.17-3.19,1.54ZM229.57,808.39c1.5-2.9-7.11-13.61-11.15-13.11-.35,1.36.42,1.77.96,2.64.88,1.4,6.6,9.32,7.57,10.22,1.21,1.12,1.21.57,2.62.25ZM247.15,796.06c-4,.76-10.59,12.11-6.7,13.02,1.95.46,5.34-11.71,9.51-12.16-.82-1.19-1.51-1.11-2.81-.86Z" fill="#fff"/>
  <path d="M590.54,3.89v50.61c-8.54-2.71-15.58-1.32-22.67,3.94-3.27-8.6-11.56-16.78-21.02-17.77-19.55-2.05-32.19,10.09-35.87,28.29-10.6-8.87-28.85-8.05-38.14,2.29-2.46,2.74-6.15,8.02-6.57,11.52-9.86-5.4-27.24,3.76-26.28,15.38.25,2.94,3.95,7.62,6.88,7.62h143.65v105.17c-9.52-1.12-21.87,5.23-25.76,14.01-.77,1.75-1.98,8.72-2.89,8.96l-7.56-1.57c-.74-3.78.23-6.25-.82-10.36-.69-2.69-2.9-5.26-3.06-7.51-.95-12.98,2.34-22.27-8.56-33.46-17.04-17.5-64.57-9.62-59.69,18.26.42,2.4,2.35,4.41,2.52,6.75.56,8.01-3.06,15.36-.4,24.66,1.87,6.56,6.14,8.49,10.87,12.46-6.76-.17-11.33,4.35-17.06,5.9-.51-4.79-3.72-8.56-6.49-12.24,10.46-14.81,1.25-34.63-3.47-50.3-3.85-12.75-5.27-26.4-17.48-34.59-17.57-11.78-39.04-3.11-45.25,16.3-3.18-2.17-5.66-4.47-9.55-5.56-16.33-4.57-35.03,8.56-36.84,24.95-1.33,12.04-4.83,18.24-7.24,28.89-2.13,9.41-1.93,16.71,3.22,24.9-5.28,5.04-8.12,10.42-11.49,16.8-20.35-7.81-36.96-24.74-60.36-22.92-9.83.77-18.82,5.59-27.51,9.74-15.55-10.5-33.19-23.39-52.69-24.23-22.49-.97-46.73,19.8-67.38,27.35l-1.34-.74c.99-4.65,1.32-9.49,2.26-14.14,6.51-31.99,27.9-56,50.99-77.89h1.33c12.37,14.76,36.85,10.58,46.31-5.42,17.86,14.18,42.96.97,42.42-21.18,13.66,1.2,25.87-5.16,33.26-16.41,25.97,18.71,62.88,1.29,55.51-32.22,24.34,10.76,51.44-10.54,45.35-36.81,21.39,2.05,43.95-16.86,36.82-39.44h142.01ZM329.29,167.97c.49-.35.78-1.5,1.58-2.01,5.48-3.56,8.02-3.55,14.46-3.31,1.98-1.21-1.06-2.89-2.1-3.2-6.77-2.06-12.23,1.74-17.29,5.48-3.49-5.92-12.3-7.98-18.07-4.24-1.03,3.22,7.52,1.08,11.07,2.67,4.59,2.06,4.45,8.83,10.36,4.61ZM272.9,207.56c1.86-6.32,6.64-11.3,13.59-11.73,2.96-.19,8.21,1.77,9.73,1.23,4.78-1.68-5.22-5.21-7.77-5.23-7.24-.07-12.34,4.62-17.11,9.29-2.13-1.76-2.63-3.64-5.37-5.17-5.7-3.19-13.31-3.17-18.59.89-1.45,4.26,8.01.3,10.16.32,2.88.03,6.94,1.35,8.89,3.59,2.07,2.39,2.2,7.77,6.48,6.82Z" fill="#fff"/>
  <path d="M443.92,3.89c5.8,12.28-3.54,27.36-14.91,32.75-7.82,3.7-14.78,3.78-23.23,2.75,2.49,8.87,3.61,17.69-1.19,26.09-5.76,10.07-19.53,14.59-30.62,13.28-4.15-.49-8.04-3.52-12.27-2.25-1.02.69,1.26,8.96,1.27,11.13.2,30.18-33.3,36.12-53.42,19.56-.91.17-5,7.37-6.34,8.77-13.83,14.42-39,10.67-50.11-5.11-5.4-7.67-7.35-14.97-8.81-24.19-3.12-.78-4.86,6.17-7.03,8.38-7.69,7.84-21.6,11.21-29.72,2.2-1.73-1.92-1.98-5.88-5.24-5.29-1.8.33-3.09,4.44-4.62,5.93-13.85,13.55-39.29,3-43.54-14.96-1.56-6.6.3-12.19-.84-18.55-2.06-1.29-6.59,6.98-8.19,8.56-15.15,14.93-45.51,15.14-55.92-5.25-1.63-3.2-.97-9.63-6.3-7.52-3.6,22.81-24.48,31.64-43.63,18.01-2.57-1.83-3.4-5.6-6.88-5.23-.75,7.04,1.45,13.36-2.66,19.85-5.88,9.28-15.09,11.78-25.64,10.36V3.89h439.84Z" fill="#fff"/>
  <path d="M4.08,158.35l62.7,55.27c1.98-.58,3.58-17.37,3.73-20.08,2.07-37.84-8.36-73.14-23.69-106.83,7.47,2.43,14.15,2.42,21.62.05,6.14,15.2,14.41,29.61,17.47,45.98l3.97-.03c6.41-15.28,14.18-29.38,17.51-45.91l17.34.56c-1.34,6.32-1.78,12.89-3.02,19.23-3.98,20.38-8.95,39.33-7.17,61.28.61,7.51.53,12.9,8.86,6.91,10.89-7.83,26.64-31.95,33.22-43.86,3.89-7.04,6.87-16.98,10.56-23.31.38-.66,1.77-1.6,2.3-2.39l15.4,1.86-9.86,27.6c1.79.18,3.11-.89,4.54-1.7,11.25-6.38,21.92-15.94,33.66-22.22,9.92-5.31,21-6.93,28.53-15.51l4.88,13.39c-34.16,22.03-67.24,44.12-91.86,77.07s-26.53,61.6-25.14,101.15c.11,3.16,2.2,13.12,1.83,15.02-.09.43-4.55,5.2-5.5,6.89-5.47,9.7-1.55,17.24-8.51,27.65s-13.63,12.69-12.79,27.35c.17,3.04,2.21,7.55,1.99,9.78s-4.07,6.2-5.17,8.69c-4.44,10-2.15,20.76,6.14,27.88,1.33,1.15,4.4,1.68,4.22,2.84-11.97,13.62-21.4,29-29.85,45.1l-1.45,1.18c-16.03,2.75-30.85,11.92-47.51,11.32,9.3-10.09,25.02-18.56,27.61-32.85-3.09,1.34-4.46,4.77-7.31,6.82-11.43,8.23-35.43,8.99-49.23,10.27v-9.53c0-.42,5.66-3.64,6.93-4.91,27.41-27.37,35.54-103.17,37.77-141.03,2.79-47.34-7.02-84.99-44.69-115.67v-25.31ZM75.66,261.64l-2.54-.09c.02,12.36.09,24.78-.67,37.13-1.25,20.32-3.82,43.48-6.65,63.68-.92,6.59-3.8,14.12-3.86,20.5-.01,1.33-.36,2.65.99,3.57,2.12.44,3.74-9.3,4.08-11.02,4.41-22.33,7.08-49.89,8.79-72.07.37-4.8,1.57-40.49-.13-41.69ZM93.49,335.16c.96-8.29,4.14-18.3,1.64-26.28-1.37-.23-1.4,3.4-1.54,4.36-.42,2.76-2.38,19.57-1.95,20.82.3.87.92,1.29,1.85,1.1Z" fill="#fff"/>
  <path d="M525.09,521.51c3.12,3.14,3.95,16.48,3.55,20.95-2.09,23.29-30.54,36.22-50.53,40.52v-3.94s-2.5,1.11-2.5,1.11l-3.17,53.52c-41.47,19.49-89.68,13.09-132.58,1.76-3.04-3.15-7.47-17.69-12.12-18.17l-1.85.53c-.55,2.21-.1,4.19-.75,6.48-.18.63-2.44,6.71-3.49,5.38.48-5.22-5.67-10.38-6.54-14.17-1.79-7.75-1.2-28.82-.68-37.41.88-14.67,5.4-33.34,15.78-44.08,7.26,4.97,15.25,21.73,24.64,10.88,3.52,1.81,7.04,3.12,10.23,5.55,2.51,1.91,2.51,4.88,6.91,5.57,1.96.31,10.24-.34,12.29-.77,2.34-.49,4.21-2.56,5.57-2.97,2.36-.72,5.87-.56,8.43-2.08,2.46.19,2.45,4.48,5.52,5.58,1.47.53,8.57,3.33,9.05,3.44,2.54.54,4.26-.57,5.81-.43,1.4.13,2.7,1.75,4.62,1.84,5.35.25,9.58-8.34,15.71-9.17,13.34-1.8,12.89,5.03,22.53,6.42,7.53,1.09,16.74-2.68,23.62-5.64,15.3-6.58,30.51-17.39,39.34-31.66.43-.2.24.58.63.98ZM352.13,581.42c-1.87-4.41-2.17-9.41-4.53-13.56-1.65-.35-1.03,2.76-1,3.63.45,11.82,12.72,31.16,21.4,39.08,1.03.94,7.94,6.85,8.86,5.92.4-1.7-.36-1.68-1.08-2.52-9.74-11.33-17.48-17.99-23.65-32.55Z" fill="#fff"/>
  <path d="M514.04,424.78c15.29,25.85,23.37,77.28,2.19,101.97-11.1,12.95-31.25,22.39-47.32,27.29-1.67-17.79-16.5-35.59-34.85-38.13l1.09-1.86,45.77-26.54c2.13-.8,4.49-.63,6.7-.5,3.47.21,5.82,1.86,8.2,2.33,3.21.63,1.81-1.88-.02-3.29-4.3-3.32-10.06-2.18-15.08-2.34-.55-.55-.37-13.47-.6-15.49-.14-1.21-1.29-.7-1.42-1.89-.93-8.42.31-17.47-3.57-25.34l1.97,44.08c-9.63,5.74-19.6,13.32-29.44,18.48-2.02,1.06-7.58,4.14-9.37,4.43-9.4,1.54-49.35-2.82-57.28-7.72-3.42-2.11-3.85-5.45-4.09-9.26,3.57-1.2,7.87-3.1,11.04-5.07,16.41-10.21,38.73-34.52,47.54-51.73,3-5.87,3.86-12.5,8.08-17.51,2.68,1.59,3.67,4.54,7.03,5.44,18.56,5.01,29.01-21.26,45.7-14.8,6.43,2.49,14.24,11.54,17.73,17.43Z" fill="#fff"/>
  <path d="M259.46,285.6c5.82,11.06,3.06,27.73-9.48,32.48l-4.61-11.54c.12-2.28,5.95-2.63,4.6-6.21-9.96,4.15-19.4,6.35-29.15.13-4.37,3.83-7.07,7.44-12.33,10.65-12.06,7.39-22.48,8.01-35.44,1.98-2.51,1.86-.32,4.4-.7,7.2-.23,1.69-1.5,5.34-2.13,7.12-1.63,4.62-5.47,7.48-4.03,12.34.42,1.4,1.98,1.85,2.21,2.49,1.71,4.87.96,16.89,2.31,23.2,5.65,26.4,24.07,4.61,39,4.09,7.2-.25,14.46,6.88,23.14,1.43,4.44-2.79,1.47-5.92,9.42-3.43,11.24,3.52,14.9,8.67,13.55,20.48-5.3,46.67-84.43,39.41-96.75.25-4.65-14.79-2.13-29.83-4.58-44.06-2.15-12.46-19.05-7.25-22.71,1.92-5.5,13.78,4.89,31.28,20.59,29.77l4.25,15.8c-15.79,2.1-30.1,7.28-41.84,18.3-11.65-4.11-14.83-16.09-9.78-26.85.9-1.92,5.45-7.23,5.57-7.69.69-2.69-2.63-9.9-2.59-14.31.12-13.22,12.58-19.1,15.88-28.15s-.38-18.2,8.11-26.72c2.54-2.55,7.6-4.22,9.53-6.24,9.06-9.47,8.49-18.28,25.6-22.39,7.1-1.71,13.41.76,17.35.17.71-.11,6.7-3.93,9.63-4.74,6.89-1.91,15.09-2.27,21.99-.29,2.33.67,6.29,3.5,7.91,3.61,2.47.17,5.8-2.51,8.62-2.93,11.3-1.66,21.48,1.94,26.85,12.15ZM238.79,380.52c-4.67-.27-8.36,3.71-12.98,4.44-4.31.68-10.03.15-14.16-1.3-2.01-.71-8.51-6.17-9.02-3.46-.82,4.38,13.36,8.1,16.73,8.23,5.85.23,17.56-1.66,19.42-7.91Z" fill="#fff"/>
  <path d="M282.45,582.06c4.01,7.59.35,20.38,5.41,29.75,4.39,8.14,3.18-3.67,3.54-6.17.76-5.25,4.53-9.59,7.88-13.47.73,2.89,1.11,5.9,2.13,8.72,4.64,12.8,18.89,22.75,17.25,37.97,1.57,2.57,6.16-5.7,6.84-7,1.21-2.31,2.3-5.53,2.72-8.13,1.99-1.68,5.91,7.75,6.58,9.52,18.76,49.41-31.76,84.74-77.73,77.05-49.76-8.32-70.32-54.41-38.98-95.11l9.34,9.05,2.15.15c-.89-14.66,9.99-26.08,14.14-39.44,5.76,9.3,8.3,18.11,2.94,27.93l.02,1.64,3.59-1.33c8.19-14.67,20.28-26.12,18.1-44.67,5.73,2.07,11.25,8.23,14.06,13.55ZM271.26,639.92c-2.09-4.91-.67-9.19-2.59-13.55-12.03,8.9-18.2,23.51-16.07,38.76-7.19-3.66-11.99-10.3-12.5-18.4-4.11-3.37-10.67,16.44-11,18.91-1.97,14.61,5.87,31.89,21.52,34.33.67-2.71-2.9-2.69-4.81-4.06-14.58-10.54-18.19-28.23-8.01-43.26,3.04,8.26,10.33,16.06,18.74,18.4-2.22-10.32-2.4-19.12,2.46-28.72.63-1.24,5.3-8.29,6.1-9.06.64-.61.84-1.26,1.96-.99-.19,14.38,12.48,20.68,14.42,35.27.24,1.82-1.63,7.87,3.19,5.32,2.48-1.31,12.35-17.48,11.99-21.53,13.54,14.67,10.95,39.17-6.57,49.63l2.22.96c21.82-10.51,20.89-39.17,5.38-55.23l-3.27-.66c-1.83,7.23-3.55,14.64-8.61,20.41-.85-.02-1.76-6.05-2.36-7.35-2.68-5.84-9.73-13.38-12.19-19.17Z" fill="#fff"/>
  <path d="M265.09,577.38c-1.04,9.18-7.21,16.11-11.19,23.99l-1.31-.32c.15-4.59-.84-10.59-3.07-14.6-.92-1.65-7.33-10.15-8.46-4.82l-10.11,23.25c-26.69,6.14-56.59,7.38-83.77,2.98-4.53-.73-23.06-4.11-24.08-8.79-1.45-6.62,6.46-33.86,5.24-35.15-5.14-.45-2.47,9.21-6.82,9.19-1.34,0-12.8-4.83-14.66-5.79-20.81-10.73-31.43-31.8-22.9-54.67,8.78,9.89,22.1,17.93,34.35,22.84,3.33,1.33,16.07,4.37,17.25,5.1.79.5,4.33,6.9,7.33,9.11,5.58,4.11,12.32,4.27,17.25,7.08,5.51,3.14,7.45,10.75,16.47,9.71,2.56-.3,3.9-2,5.49-2.41,1.74-.45,3.53.07,5.44-.47,3.28-.92,4.03-3.31,5.2-3.9.8-.41,2.93.37,4.36-1.01s.89-3.54,1.73-4.87c2.95-4.68,5.26-3.91,3.78-11.78-3.16-16.8-26.42-17.92-37.48-24.46-.85-.51-1.64.07-1.28-1.65,8.74.8,17.66-.67,26.31-2.29,4.18-.78,9.53-1.65,13.48-2.95,2.49-.82,8.14-4.49,8.98-4.49,1.72,0,14.31,3.04,16.73,3.72,10.7,3.03,17.9,8.65,27.68,13.4,3.65,8.74,6.07,17.9,12.97,24.84,1.62,1.63,8.96,6.45,9.43,7.66,1.5,3.81,1.06,13.57,1.43,17.96-2.9-1.91-4.82-5.15-7.66-7.12-.85-.59-8.11-4.91-8.11-2.41-.34,4.21.47,9.04,0,13.15ZM243.39,548.14c-1.39-1.49-4.17,3.87-4.91,4.62-3.76,3.81-8.29,7.1-11.86,11.15l-26.62,16.76c1.65,2.14,4.17.24,6.04-.52,12.93-5.18,32.32-18.92,37.34-32.01Z" fill="#fff"/>
  <path d="M272.32,321.37c-2.05,1.1-1.03,3.71-2.4,4.65-1.78,1.22-5.51.21-7.82,2.53-1.66,1.66-1.64,4.79-2.92,6.91,2.41,3.28,3.11,7.26,8.51,7.95,2.29.3,4.57-1.67,5.94-.04-1.63,2-.96,4.31-1.32,6.44-.09.52-1.19.25-1.34,1.42-.98,7.79,2.42,21.09,10.58,24.35,1.68.67,7.97,1.4,8.4,1.79.38.33.95,3.7,3.4,5.48,2.18,1.59,4.91,1.19,6.11,3.75,2.86,6.76-3.75,26.18-.86,29.13,1.6,1.62,11.75,1.58,13.24-.65,2.39-3.58,2.43-22.93,3.63-23.42l2.9.04c-.26,2.63.34,5.72.05,8.26-.22,1.95-1.04,5.27-1.38,8.49-.33,3.05-2.96,8.83.49,10.72,2.37,1.3,11.51,1.36,12.99-1.18,1.82-3.13.66-26.5,2.62-26.82l5.97,1.82.37,9.16,5.21,1.03c.95.75.98,9.64.31,10.87-.3.55-6.34,3.07-8.25,4.9-9.89,9.46-1.98,16.2,9.23,15.8-19.09,27.14-36.87,63.67-18.37,95.93-18.81,22.34-16.62,51.57-16.48,79.24l-6.27-9.81-3.27-15.17c-.96-.3-6.78,5.99-7.57,7.07-1.9,2.63-2.9,6.27-4.41,8.52-.42.63.03,1.17-1.49.83-.33-4.55.45-9.63-.02-14.11s-2.71-6.88-3.22-9.92c-.99-5.86,1.06-14.48-1.36-20.66,4,1.83,6.77-2.98,7.3-3.23.94-.44,5.42,2.33,10.18-1.99.79-.72.77-2.35,1.05-2.55.95-.7,4.37.37,6.09-2.13,6.24-9.04-11.63-25.77-10.16-27.57,4.4-.71,11.27-.89,12.36-6.41,2.12-10.72-22.32-9.72-28.79-11.03-7.64-8.9-20.45-14.46-19.1-28.2.44-1.35,4.61,2.2,3.91-5.24-.87-9.22-8.96-32-12.97-40.93-1.08-2.4-7.32-11.61-7.36-12.43-.08-1.56,4.86-5.89,6.34-8.07,13.7-20.15,3.22-44.37.33-65.58-.81-5.99-.44-13.33-1.43-19.51,1.27-3.87,17.51-.57,21.06-.44ZM276.27,417.98c.28-2.4-2.08-14.15-5.57-13.14-2.95.86,1.24,6.34,1.58,7.09,1,2.22.37,6.55,4,6.04ZM283.5,405.5c-3.66-3.21-9.87,13.2-3.23,11.44l3.23-11.44ZM295.9,448.98l-2.53-.1.75,11.73c6.69,3.45,2.63-8.34,1.78-11.63ZM307.17,450.2c-4.83-2.39-11.12,14.36-5.08,11l5.08-11ZM289.45,462.66l2.56-1.01c-1.22-4.27-3.41-9.63-8.5-10.14l5.95,11.14Z" fill="#fff"/>
  <path d="M338.65,297.77c.75,9.86-2.4,19.96,1.39,29.5-5.55,1.3-8.73-5.01-15.11-1.96-.39-2.49-2-6.02-4.37-7.15-2.55-1.22-4.28-.28-6.35-.88-1.69-.49-3.17-3.87-6.76-4.42s-5.94,1.25-7.74,1.1c-1.1-.09-2.31-1.45-3.54-1.66-4.76-.81-6.11,1.68-9.77,2.48-1.4.31-2.85-.58-4.71-.23-2.57.49-5.48,3.08-7.75,3.48-4.64.82-11.09-1.57-16.07-.63,14.87-16.73,7.85-44.74-16.28-47.8-8.11-1.03-14.2,3.06-17.59,2.85-.84-.05-5.32-2.96-7.41-3.5-6.9-1.77-16.11-1.51-23.01.29-3.14.82-8.63,4.64-9.72,4.8-1.88.28-6.66-1.61-10.48-1.32-11.52.87-23.35,8.01-30.48,16.85-2.43,3.01-3.1,8.48-7.98,10.09l-1.19-46.87c.52-1.65,10.92-5.3,13.27-6.46,36.78-18.09,50.85-33.14,91.22-8.87,25.9,15.56,50.37,35.99,77.06,50.48,7.46,4.05,15.04,7.91,23.38,9.82Z" fill="#fff"/>
  <path d="M558.32,578.37l1.35,39.62c2.52,5.74,4.18,12.23,7.52,18.23,1.58,2.83,10.29,13.83,10.21,15.47-.13,2.51-9.27,1.71-11.54,1.64-2.73-.08-7.02-.44-9.76-.75-2.34-.27-12.54-4.58-8.85,1.65l13.71,15.5c-10.76,4.38-24.95,2.72-36.18.36-8.87-1.86-18.26-7.27-26.7-8.14-10.42-1.08-21.98.54-32.46.57l-1.99-20.68c.53-2.78,7.91-3.03,10.14-5.03,1.66-1.48,2.2-5.86,2.39-8.12,1.09-12.73-.2-26.88,1.29-39.79,27.17,1.42,56.03,2.01,80.87-10.51ZM544.52,642.78l1.88-1.1-8.61-38.51-2.48-1.13c-1.84,2.01,3.85,23.81,4.92,27.61,1.25,4.41,2.86,8.79,4.29,13.14ZM495.2,648.04l-1.64-43.36c-1.2.95-1.47,2.15-1.65,3.59-.88,6.71-.44,21.18-.01,28.3.18,3.01-.01,10.9,3.31,11.47Z" fill="#fff"/>
  <path d="M158.45,395.11c8.58,18.25,29.4,27.52,48.78,28.14-13.65,25.72-37.87,48.41-67.71,52.58,1.65-5.74,2.5-12.21,4.01-17.88,1.17-4.41,3.51-8.31,4.34-14.19.43-3.06,2.56-11.32-1.76-10.65l-12.96,52.63c-17.99,3.31-38.94,1.28-54.66-8.72-.86-1.6,6.27-16.77,7.59-19.42.38-.77,1.27-.89,1.49-1.32,15.02-29.54,33.71-59.65,70.88-61.17Z" fill="#fff"/>
  <path d="M377.39,358.96c1.62.87,1.62,5.4,8.41,6.38,11.13,1.61,14.29-6.17,25.76-2.09,4.45,1.58,15.72,11.3,16.91,11.31,3.41,0,9.85-5.67,12.15-8.18,1.28-1.4,3.12-6.32,4.95-5.58.45.18,3.15,7.93,3.42,9.08,1.88,8.03,1.42,17.68-.13,25.77-1.67,8.71-12.54,30.62-23.03,30.23-2.6-.1,2.43-9.82-1.29-9.2-4.8,8.2-19.53,24.93-29.12,26.18-8.1,1.05-14.33-19.34-15.6-19.61-2.6-.54-2.49,6.58-2.29,7.89-26.14-6.02-32.31-57.36-9.51-69.66,1.81-.98,7.6-3.47,9.38-2.52ZM411.03,371.33c-3.74.18-6.13,3.06-9.98,4.12-8.32,2.3-17.58.97-25.22-2.82-3.93.87,1.3,4.15,2.99,4.94,9.2,4.26,25.19,3.3,32.58-4.26l-.38-1.98Z" fill="#fff"/>
  <path d="M590.54,102.48l-141.71.03c-10.57-3.13-.51-15.54,6.25-16.82,8.12-1.54,7.14,1.49,11.89,3.31,3.63,1.39,3.05-5.69,4.07-8.4,4.93-13.2,24.93-17.95,35.97-9.96,2.46,1.78,4.25,6.76,7.28,5.23,1.56-.79,1.69-9.21,2.43-12.05,5.74-21.96,37.28-27.74,46.74-6.24.89,2.02,1.09,7.45,3.19,7.95,2.29.55,2.22-2.38,3.13-3.2,6.46-5.84,12.69-6.73,20.77-3.24v43.38Z" fill="#fff"/>
  <path d="M380.8,431.79c.58,5.13,8.97,14.69,14.13,14.51,6.56-.24,23.28-13.13,26-19.76,1.94-.51,1.27,1.69,2.6,2.3,4.39,2,7.83-1.95,11.85-1.98-13.68,25.34-33.41,48.4-59.57,61.4-1.32.35-.71-.22-.98-.83-1.16-2.6-3.38-15.17-3.79-18.57-1.21-10.15-.65-20.32-.08-30.49l-1.91.06c-2.39,1.75-2.31,21.56-2.07,25.28.33,5.09,3.28,14.89,2.63,18.98-.15.96-4.71,10.3-5.22,10.61-1.76,1.3-5.91-3.91-5.94-.03-.02,2.12,18.14,18.16,20.4,21.35-11.11,1.07-21.16,5.42-28.18,14.22l-6.98,13.39c-1.84-1.96-4.06-3.3-5.93-5.25-28.24-29.34-9.62-75.74,12.83-102.87,2.47-2.99,6.68-6.09,9.21-9.24h1.3c4.82,3.85,14.4,14.25,19.72,6.94Z" fill="#fff"/>
  <path d="M122.43,577.71l-3.69,23.7,10.33,6.2-4.68,27.29c-13.7-3.1-25.62,8.66-37.32,13.62-7.73,3.27-16.1,5.16-24.48,4.12-1.62-1.58,4.65-6.08,5.9-7.58,3.39-4.09,8.29-10.44,10.45-15.19,1.41-3.11,8.49-24.05,5.68-25.22l-1.81.84-6.81,21.44c-14.79.64-29.91,5.24-44.6,6.02-3.08.16-20.67.44-21.39-2.99,6.52-6.67,15.47-10.64,21.71-17.72,12.49-14.15,13.76-31.43,13.79-49.64,2.44-.55,2.48,1.77,3.98,2.92,19.01,14.59,50.13,13.4,72.94,12.2ZM64.29,598.48c.93-2.45,4.02-11.21,1.25-12.88-3.27,1.1-2.4,5.51-3.41,8.4-1.89,5.42-5.33,10.53-6.11,15.91,1.38,1.86,7.96-10.62,8.26-11.44Z" fill="#fff"/>
  <path d="M243.32,416.73c8.14,12.27,12.84,26.39,15.92,40.83l3.88,12.35c-12.91-.1-25.08,4.43-37.47,7.23,4.78-11.59,7.74-23.48,10.56-35.65.12-.51,1.1-.5,1.21-1.01.5-2.33,2.36-10.92.76-12.34-.38-.38-1.76-.45-2-.29-.82.54-3.59,16.47-4.28,19.06-3.01,11.16-11.88,38.23-21.16,44.58-13.25,9.07-44.6,9.78-60.35,8.65-3.48-.25-16.81-2.1-18.41-5.25-2.95-5.78,2.46-3.99,3.67-5.51,1.01-1.28,1.78-7.54,2.72-9.44,31.32-4.4,58.86-27.97,72.27-55.91,11.57.17,22.36-2.26,32.69-7.28Z" fill="#fff"/>
  <path d="M590.54,314.13c-3.95-6.47-7.48-3.2-11.37-4.06-.94-.21-1.85-1.96-3.56-2.37-5.32-1.29-7.12,1.52-9.18,1.72-.69.07-3.9-1.65-7.13-1.21-4.43.6-4.19,3.6-5.54,4.28-.49.25-3.37-.55-4.91-.29-12.25,2.08-4.69,18.41-3.75,26.01,3.27,26.55,5.03,52.39,10.57,78.9-.21,8.32-29.6,12.44-36.05,11.97.66-5.02-9.3-13.6-9.77-16.1-.31-1.68.72-7.54.47-10.42-1.33-15.07-11.34-17.71-16.99-29.03-3.66-7.35-4.62-15.55-6.68-23.56,4.01,2.05,11.93,2.9,15.98.84,1.97-1,2.3-3.38,3.82-4.73,7.77-6.92,16.57-12.33,25.57-17.48.7,8.21,1.95,16.44,2.62,24.66.71,8.67.11,19.31,1.28,27.63.13.95,2.21,3.75,3.31,2.91.29-.22.72-2.87.71-3.56-.26-14.89-2.41-29.93-4.02-44.04-.3-2.64-.91-8.13-.54-10.52.21-1.4,6.01-7.77,7.49-10.89,1.16-2.44,2.8-7.09,3.42-9.72.67-2.81.42-8.17.95-9.57.49-1.3,2.87-1.03,3.54-2.38.97-1.94-.35-4.62.65-6.58s7.53-3.93,9.83-3.99c8.84-.21,5.23,5.65,8.6,6.62,2.9.84,4.94-5.79,9.21-6.55s8.35.77,11.47,3.57v27.94Z" fill="#fff"/>
  <path d="M361.08,351.93c.37-3.77,2.9-8.2,3.23-10.04,1.23-6.76,1.62-13.74,2.69-20.53,2.92.82,6.12-1.4,9.3-2.19,2.31-.58,14.69-.9,11.08-4.71-6.09-2.17-13.51-.75-19.07,2.31-.36-.42,2.28-9.96,2.75-10.72,1.62-2.64,12.09-4.17,15.3-4.42,20.81-1.6,41.28,4.81,59.52,14.16l.66,1.27c-6.97,11.64-5.17,27.74-2.59,40.66-5.5,4.16-8.52,10.46-15.13,13.33l-1.27.22c-4.99-7.8-15.79-14.16-25.23-12.93-6.19.81-10.52,5.56-17.71,2.92-12.68-4.64,9.53-27.47,7.36-29.38-2.66-2.34-8.35,6.68-9.48,8.59-2.8,4.78-4.74,9.25-5.6,14.78-6.22.21-10.75,3.11-15.82,6.2.21-3.09-.3-6.47,0-9.53ZM405.79,318.73c4.68.26,9.25,1.68,13.66,3.11,3.29,1.06,7.93,5.28,10.59,2.39,2.06-5.19-11.58-8.5-15.03-9.13-3.97-.72-10.12-2.52-9.22,3.63ZM372.7,330.03c-3.87,1.35-4.56,13.85,3.01,12.25,5.52-1.16,5.8-15.33-3.01-12.25ZM409.25,344.19c6.68,6.35,10.73-9.58,4.45-11.38-6.08-1.75-7.73,8.26-4.45,11.38Z" fill="#fff"/>
  <path d="M128.34,490.29c.06,2.58-.5,4.94,1,7.22.44.66,10.83,8.99,12.31,10.04,5.92,4.22,15.45,9.79,22.06,12.78,13.51,6.13,37.55,9.06,34.97,29.11-3.51-5.02-6.17-12.59-12.46-14.81-.76-.27-2.98-1.06-2.65.67,4.88,5.89,13.24,12.21,11.77,20.65-4.5,1.03-2.77-1.26-4.11-3-3.75-4.88-7.87-13.22-14.89-12.7,3.08,4.09,7.21,6.8,9.85,11.51,1.34,2.39,4.5,7.52.19,8.74-4.96,1.41-4.36-3.43-6.2-6.05-2.98-4.25-7.95-10.5-13.7-9.6.38,3.28,4.55,3.93,7.24,6.88,2.52,2.76,3.26,6.7,5.89,8.24v1.29c-8.28,5.82-12.99-5.44-18.81-8.44-4.21-2.17-8.89-1.79-14-5.07-4.05-2.59-6.72-7.83-9.01-9.4s-15.54-4.77-19.75-6.54c-12.54-5.28-33.46-17.16-35.05-32.01-.55-5.11.34-10.36.65-15.44,14.11,5.25,29.62,7.78,44.7,5.91Z" fill="#fff"/>
  <path d="M241.91,307.73l5.42,18.23c-4.32-2.42-23.67-6.22-19.05,2.95,1.87,1.65,8.94.15,12.15.34s5.14,3.16,7.55-.65l7.24,41.4c-5.49-3.1-11.31-5.76-17.68-6.63-1.88-8.76-6.76-21.33-16.5-24.91-1.15,4.55,2.97,5.53,4.6,7.75,3.74,5.1,13.47,20.64,2.14,22.99-6.38,1.33-13.35-3.19-21.53-2.46-8.73.79-23.02,12.76-29.31,6.26-3.84-3.97-4.15-24.14-4.65-30.18-.18-2.23-1.85-5.82-1.81-7.33.07-3.07,6.86-12.38,5.19-17.41,17.26,5.73,33.94.59,45.68-12.95,6.64,3.36,13.97,1.25,20.55,2.61ZM197.91,324.19c-3.86.24-21.16,2.95-17.3,9.66,1.72,2.98,10.64-2.02,13.98-2.46s13.38,1.33,13.82-3.89c.39-4.65-7.81-3.48-10.5-3.31ZM236.38,348.76c4.38,6.76,12.91-1.25,6.65-8.95-5.37-6.6-10.15,3.54-6.65,8.95ZM203.09,339.32c-7.74-5.68-9.97,11.5-3.25,12.82s6.64-10.33,3.25-12.82Z" fill="#fff"/>
  <path d="M479,341.51c7.51,9.92,5.32,21.73,10.44,32.64,3.26,6.96,12.62,14.5,15.28,20.85,1.87,4.45,2.52,10.31,2.31,15.1-9.28-8.23-17.75-9.41-28.71-3.41-6.05,3.32-12.45,11.04-19.61,11.95-18.91,2.4-9.49-10.25-7.09-19.58,7.19-27.88-7.38-40.48-5.71-65.52.14-2.09,2.02-14.95,4.21-14.82,10.77,5.59,21.49,13.02,28.88,22.79Z" fill="#fff"/>
  <path d="M4.08,252.68c7.78-5.01,21.33-3.62,26.62,4.28,2.39,3.57,1.95,8.89,5.27,11.81.54,0,6.26-7.32,8.91-5.62,3.26,2.41-.94,61.29-2.74,69.32l-38.06,2.05v-81.83Z" fill="#fff"/>
  <path d="M495.21,247.09c-2.27,16.02,14.31,18.62,23.67,8.69,4.51-4.79,2.88-10.01,11.21-5.76,12.5,6.37,18.2,28.8,16.41,41.78l-19.65-.08c-1.16-2.84,1.77-24.58-.4-24.88-.82.62-1.71.68-2.17,1.76-.98,2.25-2.58,20.95-2.14,23.57.38,2.24,1.92,2.43,1.9,4.37s-3.12,9.99-4.77,11.08c-1.98,1.31-27.83.3-31.12-2.17-1.42-2.9-2.13-6.43-3.54-9.28-3.14-6.36-7.05-9.58-5.79-17.04.07-.44,1.12-.47,1.23-.98,1.34-6.63,2.8-12.25,5.31-18.55-1.65-1.63-6.23,7.04-6.66,8.16-1.83,4.81-2.61,10.38-2.55,15.5l-6.54-6.18c2.69-13.13,10.01-30.07,25.62-29.97Z" fill="#fff"/>
  <path d="M258.52,473.86c-.67,5.06,1.52,10.26,4.45,14.29,1.65,2.27,13.34,14.31,15.32,15.58,7.56,4.84,21.14.19,28.24,7.42-.42,5.95-8.6,3.93-12.53,6.54-.84,2.63,5.02,9.23,6.6,12.37,2.22,4.4,5.92,10.79,2.93,15.45-3.24.96-14.83-17.86-20.03-17.74-1.8,1.85,13.04,17.61,14.79,19.71l-1.82,2.82c-1.77.79-2.27.28-3.73-.55-4.3-2.44-10.07-12.97-13.88-15.7-1.25-.9-2.37-1.19-3.9-1.02-.44,4.29,12.93,16.92,13.14,18.08.62,3.42-7.14,1.03-9.14-.08-2.9-1.61-8.75-7.62-10.6-10.43-3.37-5.11-5.3-15.11-7.89-18.4-3.52-4.48-19.05-10.36-24.24-13.88-7.76-5.26-8.25-19.36-9.24-27.85l31.53-6.6Z" fill="#fff"/>
  <path d="M4.08,338.45l37.04-2.53,1.1,1.53-7.45,41.21c-3.65,16.94-13.32,48.72-27.06,59.71-1.07.86-2.09,2.08-3.63,1.95v-101.88ZM8.03,377.89v12.16c0,.25.83,1.01.67,1.64,6.25,1.3,2.26-17.01-.67-13.8ZM17.63,392.12c.53-1.08,3.4-8.17,3.67-9.19.23-.88.89-.76-.47-1.75-5.49,1.26-7.44,7.43-6.89,12.49,1.32.38,3.1-.37,3.68-1.55Z" fill="#fff"/>
  <path d="M4.08,129.43c9.77,7.86,22.33,14.55,33.75,5.32,7.09,7.12,13.73,13.44,24.76,10.45,1.5,7.72,3.48,15.1,3.93,23.35.25,4.55.23,38.49-1.31,39.75L4.08,152.77v-23.33Z" fill="#fff"/>
  <path d="M341.11,268.54c-.48,1.51-2.43,3.57-2.41,6.53.03,3.82,2.26,2.6,2.71,4.55.57,2.47-3.3,9.21-2.12,13.06l-.99,1.01c-3.1,1.21-18.05-7.11-21.61-9.12-18.08-10.18-39.36-24.27-56.57-36.1-.5-.34-1.35.32-.94-1.38,30.32-21.13,55.98.63,82.82,14.8l.67,1.24c-.66,1.76-1,3.62-1.56,5.4Z" fill="#fff"/>
  <path d="M479.02,294.17c5.32,8.25,7.19,15.38,7.63,25.56.04.91.76,4.52-.96,4.25-22.84-26.89-61.56-41.39-96.69-39.46-3.75.21-7.21,1.43-10.63,1.87-4.3.55,3.68-6.8,4.77-7.73,26.51-22.45,77.25-13.41,95.89,15.51Z" fill="#fff"/>
  <path d="M590.54,214.88v66.39c-7.3-3.91-13.16-3.39-19.41,2.01-6.31-7.5-13.03-4.11-20.69-1.35l-4.02-16.77c.13-1.18,4.22-2.72,5.61-4.3,5.26-5.99,5.28-17.92,2.35-24.93,4.64-.55,6.38,2.26,9.52,4.59,2.01-3.99,1.98-8.41,3.78-12.66,3.75-8.84,13.19-14,22.85-12.97Z" fill="#fff"/>
  <path d="M155.53,95.02c1.74,2.31,9.76,7.59,9.54,9.6-.28,2.5-6.64,15.02-8.27,18.06-1.72,3.21-8.58,14.83-10.7,16.94-7.03,6.98-18.62,9.89-27.52,4.84-.35-3.77.16-7.59.67-11.3,1.26-9.28,4.59-19.74,6.29-29.21,1.05-5.84,1.35-11.93,2.25-17.8,8.4-1.85,15.14-6.45,21.59-11.93,0,6.7,2.09,15.41,6.16,20.8Z" fill="#fff"/>
  <path d="M274.22,128.19c.31,15.02-12.42,26.29-27.71,23.44-3.84-.72-10.87-7.88-13.21-7.03-5.19,14.23-23.14,20.83-36.38,13.23-1.7-.97-5.95-4.7-4.39-6.76,2.25-2.97,16.32-12.76,20.32-15.69,11.34-8.29,23.49-15.51,34.98-23.59l1.48.2c5.13,9.01,14.91,14.42,24.91,16.21Z" fill="#fff"/>
  <path d="M467.97,269.84c-.07.17-.82.22-1.01.74-.49,1.32.76,3.68-1.01,4.76-7.68-.97-2.88-20.7-5.93-22.33-.21-.11-1.73-.28-1.63.39l.65,17.35c-15.43-6.38-31.22-8.74-47.99-7.88-.26-2.13,2.48-13.7,1.31-14.46s-2.95,1.75-3.33,2.93c-1.15,3.54-1.13,8.37-1.36,12.09l-8.45,2.07c.47-14.6,9.05-29.41,23.36-34.08,3.2,15.52,26.9,12.72,27.93-1.75l.97-.99c8.96,2.97,22.58,12.61,24.24,22.52.46,2.74-3.35,6.96-4.51,9.7-1.22,2.88-2.12,6.01-3.24,8.94Z" fill="#fff"/>
  <path d="M4.08,106.43c14.02,2.63,26.05-3.44,30.58-17.09.79-2.39.74-5.76,1.56-7.66.28-.65-.32-1.12,1.05-.88,1.55,1.56,3.52,1.78,4.86,3.69,2.27,3.23,9.07,20.25,10.56,24.42,1.73,4.84,8.95,28.38,8.61,32.02-.09.97.29,1.14-.99.99-11.81,1.76-15.46-6.64-23.04-13.19-2.81,2.42-2.8,5.08-7.02,6.17-10.28,2.66-19.95-4.25-26.18-11.71v-16.76Z" fill="#fff"/>
  <path d="M539.02,182.91c9.63,9.18,6.96,20.28,7.63,31.48.22,3.76,4.18,6.66,4.45,12.02.18,3.63-2,6.29-1.94,7.87.05,1.26,3.49,5.77,3.91,9.2.82,6.72-1.06,15.89-8.81,17.47-2.81-7.11-7.48-11.54-14.41-14.63-4.84-2.16-7.54.42-8.39-7.33,3.76-.86,7.66-8.15,9.28-9.28,3.93-2.74,10.3.18,11.76-8.62,1.34-8.06-.27-11.98-9.07-10.89l-1.4-5.82,8.77-.11,1.09-2.52c-14.34,1.5-25.77-7.32-34.55-17.13-1.36-.13-7.37,4.22-9.35,5.11-1.85.83-9.63,2.76-10.02,3.13-1.68,1.59.59,7.1-2.3,8.88-5-15.91,13.46-26.3,26.93-26.98,9.04-.46,19.7,1.74,26.43,8.15Z" fill="#fff"/>
  <path d="M371.6,237.23c-2.05,11.64,14.28,13.75,21.39,8.56,4.3-3.14,2.28-14.23,11.51-5.63-5.23,8.49-9.14,16.94-9.33,27.19-7.87,3.2-15.28,8.56-20.94,14.89s-4.5,13.28-17.12,7.82l1.67-35.08c-1.27-.23-1.9,1.39-2.24,2.34-2.2,6.12-1.72,14.84-2.68,21.32l-10.8-2.56-.35-.98c3.05-16.5,10.75-34.25,28.9-37.87Z" fill="#fff"/>
  <path d="M453.22,200.52c2.09,26.42-36.36,34.05-41.98,5.96-1.08-5.41-1.86-20.71.62-25.3.89-1.64,17.35-13.68,18.49-13.51,4.29,2.28,7.68,7.08,11.38,9.64,1.91,1.32,10.07,4.43,10.76,5.02,1.24,1.07-.04,4.22,1.95,6.6,2.73,3.27,8.82.7,5.3,10.54-1.81,2.94-3.96-.68-6.52,1.04ZM424.2,180.71c-3.54-1.28-10.38.87-10.51,5.25l10.51-5.25ZM448.52,185.3c1.29-4.16-9.46-6.38-9.85-4.26-.28,1.52,8.29,3.93,9.85,4.26ZM441.05,188.04c-2.21.43-3.49,7.58-.12,7.78l2.66-1.31v-5.26c-.3-.56-1.89-1.34-2.54-1.21ZM419.7,195.06c4.72,2.94,8.4-7.73,1.58-6.47-3.2.59-2.69,5.78-1.58,6.47ZM430.11,189.25c-2.31-2.8-10.81,21.06,3.29,15.1.67-2.48-4.09-.62-4.62-2.41l1.33-12.7ZM439.97,208.31c-4.31,1.46-7.05,4.33-12.14,3.26-2.06-.43-3.96-4.25-5.59-2.28,2.62,8.3,16.05,6.89,17.73-.98Z" fill="#fff"/>
  <path d="M507.68,187.93c-1.03,7.5,20.74,14.56,21.38,15.77.78,1.47.04,3.7.48,5.44,1.3,5.18,4.96,5.36,9.62,5.16,1.43,5.63.02,11.61-6.84,11.7-1.08.01-1.73-1.68-2.96-.98-.59.33-2.39,4.8-3.5,6.06-6.89,7.81-20.96,13.65-30.6,7.73-15.86-9.73-6.78-29.17-5.25-43.58,6.49-.71,11.89-4.62,17.67-7.3ZM492.58,203.05c.57.58,8.9-3.03,8.54-4.91-.61-3.14-10.35,3.08-8.54,4.91ZM515.36,199.82l-.77,1.92,7.91,4.6c1.72-4.25-3.59-6.57-7.14-6.52ZM499.08,206.42c-.67-.51-3.4-.14-3.83.95l-.09,5.25c4.08,2.81,5.44-5.05,3.91-6.2ZM513.16,209.16c-2.47,3.19.07,6.71,3.74,5.42l1.02-6.3c-.98-1.39-3.96-.15-4.76.88ZM502.82,215.28c.38-1.09,1.64-2.78,1.57-4.07l-1.64-1.62c-2.08,0-4.9,8.07-4.27,10.2.66,3.15,6.89,3.11,5.93-.31h-2.64c-1.03-2.38.91-3.8,1.04-4.2ZM496.51,224.75l-1.31.33c-.31,8.72,11.66,8.13,16.14,3.64.77-.78,1.97-2.85.06-2.59-5.08,2.43-12.11,5.82-14.89-1.38Z" fill="#fff"/>
  <path d="M456.04,162.66c5.75,8.2,7.84,23.45,10.79,33.56.35,1.2,2.54,4.48,3.2,6.69,2.76,9.21,6.9,23.65-1.44,30.8-6.27-4.63-14.39-6.38-20.01-11.37,1.04-2.21,2.93-3.22,4.24-5.47,2.19-3.77,3.16-9.3,4.57-11.87s6.39-1.26,6.31-10.17c-.08-9.88-7.75-3.94-8.61-11.82.24-1.12,4.72.94,3.95-1.64-5.39-.73-11.5-3.59-16-6.69-3.22-2.23-9.28-9.65-12.62-9.79-2.84-.12-12.39,7.11-15.08,9.27-1.1.88-5.73,6.55-6.92,5.23-2.6-27.98,31.25-40.04,47.62-16.72Z" fill="#fff"/>
  <path d="M4.08,188.59c.15-.2,3.19,2.25,3.63,2.61,2.67,2.23,8.83,8.99,11.18,11.82,13.12,15.8,22.26,35.43,25.85,55.52l-8.44,3.66c-2.81-14.91-19.78-19.19-32.23-13.15v-60.47Z" fill="#fff"/>
  <path d="M391.29,178.76c2.23,6.66,9.42,11.37,15.5,14.42l2.29,19.73c-4.29-2.01-3.62,3.17-5.12,5.72-10.23,17.35-37.19,16.86-38.95-7.33-.19-2.67.25-16.99.83-18.95.97-3.27,8.63-4.46,11.29-5.8,2.06-1.04,13.48-8.23,14.17-7.79ZM380.15,194.5c.09-4.67-10.69-4.03-11.83-1.63-.55,1.17,1.8,1.55,2.38,1.6,2.61.21,6.57-.55,9.45.03ZM400.53,197.13c2.51-2.91-9.88-9.41-9.17-3.32l9.17,3.32ZM374.04,199.9c-3.38,1.08-2.33,8.1,2.82,5.45,2.39-1.23,2.28-7.09-2.82-5.45ZM392.41,199.84c-2.11.84-1.71,7.44,2.38,6.4s1.73-8.03-2.38-6.4ZM382.99,210.11c-.41-2.88.69-4.07,1.08-6.67-1.41-4.46-6.74,5.8-4,9.09l4.02-.61c.66-1.58-1.08-1.69-1.1-1.81ZM391.98,216.2c-6.81,2.73-11.67,3.17-17.42-1.96-3.83,7.88,16.77,10.41,17.42,1.96Z" fill="#fff"/>
  <path d="M456.84,533.24c1.59,1.92,5.27,6.75,3.22,9-1.2,1.31-9.33,4.64-11.37,5.07-6.47,1.36-11.72-.58-17.58,3.46-1.89,1.3-4.58,5.57-6.62,5.92-9.46,1.62,4.1-13.24,6.63-15.12l-.69-1.98c-2.53-.49-10.27,8.41-11.62,10.72-1.46,2.49-.92,8.18-5.51,5.1-.97-.65-1.55-2.52-1.63-3.67-.54-7.31,8.21-12.91,11.87-18.06-2.83-2.56-18.37,13.97-15.78,19.06-8.24-.28-4.86-8.19-1.99-12.84,3.06-4.96,7.16-6.16,9.88-10.82-8.32.48-13.7,9.71-15.87,16.98l-2.53.11c-1.22-17.71,19.75-30.34,35.77-28.21,7.34.98,19.15,9.65,23.83,15.29Z" fill="#fff"/>
  <path d="M341.17,375.09c-.41,1.28-5.77,5.11-7.7,4.78-.16,3.84,6.15.84,6.57,1.31-.33,1.84.93,7.8-1.07,8.48-3.62,1.24-4.99-3.69-6.49-3.62s-3.77,2.2-5.96,2.3c-2.64.12-4.81-1.98-6.54-1.99-1.4,0-1.03,1.6-2.04,1.94-4.87,1.63-5.88-2.32-8.63-3.01-4.15-1.03-7.6,1.93-8.66-4.48-2.4-1.52-2.8,1.06-2.99,1.03-.95-.13-5.4-4.37-4.29-5.92,14.47-3.08,21.18-16.82,24.01-30.24,1.12-.27,3.95,3.72,5.35,4.5,7.66,4.24,18.21-1.05,14.85-10.25-2.31-6.33-7.66-6.87-10.68-11.99,4.44-2.48,8.41,3.82,8.92,3.93s7.08-3.65,8.69,1.8c1.22,4.15-1.89,20.66-2.48,26.16-.43,4.01.28,11.68-.86,15.26ZM325.25,373.31c-.65.03-3.45,7.22-8.72,4.76-1.91-.89-2.6-5.29-4.75-2.44,1.09,9.04,17.49,6.51,13.47-2.32Z" fill="#fff"/>
  <path d="M184.88,729.88c-1.03-7.53-8.16-16.02-15.78-17.43l44.5-19.62c6.61,5.77,13.33,11.62,21.9,14.38-12.73,16.45-32.28,24.89-50.62,33.51-.33-3.41.45-7.54,0-10.85ZM208.55,703.26l-17.08,8.87c1.02,1.5,1.2.58,2.27.33,1.54-.36,12.87-5.76,13.73-6.66s1.41-.92,1.07-2.54ZM209.86,716.4c-.54-.56-10.93,4.99-12.27,5.8-1.55.94-4.61,2.04-4.82,4.05,3.8-1.1,13.15-4.82,16.02-7.31,1.01-.88,1.33-.98,1.07-2.54Z" fill="#fff"/>
  <path d="M368.32,302.3c-.06-10.7,8-12.43,16.85-13.71,27.41-3.95,63.3,7.64,84.72,24.89,6.89,5.55,20.28,17.16,15.47,26.66l-1.98-.02c-27.86-29.1-74.64-51.34-115.06-37.81Z" fill="#fff"/>
  <path d="M268.28,715.19c.36.23,2.59,7,2.24,8.24l-26.8,34.37c-3.03-14.85-19.92-22.08-33.86-17.75,9.44-10.53,18.32-21.94,29.58-30.52,5.19,1.36,10.38,2.95,15.66,4.04,2.34.48,12.44,1.15,13.18,1.62ZM247.34,714.43l-5.91,10.51c3.49-1.65,6.12-6.85,5.91-10.51ZM253.91,722.98l-12.17,16.42c-.84.59.22,1.89.68,1.97,1.53.28,11.78-15.46,11.49-18.4Z" fill="#fff"/>
  <path d="M368.31,711.81c-1.36,1.38-3.85,1.43-5.58,2.62-7.55,5.19-9.24,15.43-11.17,23.66-15.73-8.78-35.05-14.87-45.07-30.53l18.66-13.35,43.17,17.61ZM346.62,711.15l-19.72-7.89c-.2,1.1.52,1.75,1.36,2.25,2.4,1.42,9.07,4.34,11.8,5.29,1.31.46,7.04,3.23,6.56.35ZM348.59,728.22c-.5-2.09-13.87-9.83-14.46-9.19-.28,1.61.1,1.65,1.08,2.53,2.73,2.47,9.75,5.27,13.38,6.66Z" fill="#fff"/>
  <path d="M321.08,327.18c.14.25,2.53.67,3.5,2.08,1.15,1.67.66,3.89,1.63,4.94.7.76,3.84,1.06,5.52,2.37,8.36,6.53.79,16.06-9.24,9.24-2.33-1.58-2.56-4.14-5.44-4.1l1.3-2.6c-2.68-1.89-3.36.17-6.42-.44s-4.13-2.59-6.4-4.23c-3.29.84-2.61,2.71-6.56,2.74-5.84.04-1.9-4.02-5.99-3.98-2.28.02-3.49,3.16-7.23,3.2-3.11.03-4.7-2.59-5.84-2.59-1.55,0-3.89,3.91-5.77,4.77-3.69,1.69-10.32,2.11-10.98-3.17-.93-7.43,6.68-4.9,9.55-7.46,1.75-1.56,1.98-6.29,6.24-8.88,5.01-3.03,6.06-.21,8.59-.67,1.35-.25,2.48-2.5,4.9-2.93,4.48-.79,5.85,1.64,7.96,1.78,1.39.09,2.64-1.43,4-1.68,5.73-1.09,6.36,4.4,8.53,5.03s3.28-1.26,5.8.05c3.34,1.75,1.64,5.19,2.38,6.51Z" fill="#fff"/>
  <path d="M328.21,737.43c-9.22-2.17-21.2,1.3-27.29,8.55-2.59,3.09-3.13,5.87-4.92,9.2-7.42-13.06-18.69-25.03-23.02-40.09,9.99.12,19.57-2.63,29.1-5.17,9.48,8.35,18.74,17.26,26.12,27.5ZM295.08,724.53c-.56-.81-6.13-7.67-6.97-6.81-.61,1.91,9.36,13.81,9.85,13.14.28-2.47-1.56-4.43-2.88-6.33Z" fill="#fff"/>
  <path d="M366.84,305.74c.7,1.51-2,9.51-2.53,11.81-2.36,10.17-4.94,22.82-6.43,33.8-.54,3.98.38,11.22-.2,14.21-.55,2.82-4.85,8.7-5.73,11.55-2.38,7.67-2.12,15.9-1.39,23.79-1.69-.32-6.92-.25-7.27-2.28,1-19.92,1.53-39.96,4.08-59.74,1.99-15.43,5.89-29.57,9.79-44.44l8.25,1.27c.5.66-1.04,5.6-.76,7.3.38,2.27,2.01,2.36,2.18,2.74Z" fill="#fff"/>
  <path d="M79.03,538.93c1.36,6.73,4.4,14.18,9.21,19.06-5.07.66-12.63-.44-17.4.69-.87.21-2.27.57-1.02,1.63l20.56-.37c4.43,5.01,11.29,8.91,17.33,11.77,1.88.89,6.53,1.11,6.82,3.36-17.67.19-37.46.35-53.89-6.91-31.24-13.79,1.92-26.92,18.39-29.24Z" fill="#fff"/>
  <path d="M544.51,295.73c-1.02,12.01-5.5,21.89-14.82,29.55-5.1,4.19-11.65,6.67-16.72,10.24-.97.69-5.82,7.08-7.25,5.56,1.18-5.78-5.89-9.83-10.52-11.17-2.22,2.34,10.49,10.18,7.88,14.45-3.44.16-5.23-3.29-7.56-5.24-3.86,2.41,6.34,7.39,4.27,9.18-4.22.65-3.62-.34-5.59-3.27l-.66,3.94-8.21-4.28c7.01-3.67,4.24-10.66,2.91-16.78,1.63-1.67,4.39.08,5.89-.18,1.35-.23,2.43-1.5,4.06-1.73,2.93-.4,7.18,1.07,9.19,0,.47-.25,7.12-6.44,7.89-7.25,5.32-5.67,12.01-15.19,12.14-23.03h17.09Z" fill="#fff"/>
  <path d="M483.37,586.25c6.65-3.39,14.11-5.14,20.83-8.42,3.06-1.49,9.09-6.65,11.91-7.18,4.35-.82,14.23,3.21,16.57-2.13l-13.14-.67c.99-2.61,5.04-5.1,6.59-7.06.81-1.03,1.48-3.43,2-4.75,7.46,1.18,29.29,7.31,29.42,16.87.07,5.34-22.91,10.37-27.36,11.17-15.42,2.77-31.21,2.93-46.81,2.16Z" fill="#fff"/>
  <path d="M291.85,337.91c.81-.02,4.38,3.04,7.11,3.21,2.86.18,5.26-1.81,6.28-1.71,1.23.13,7.01,3.52,9,3.93-1.26,14.29-13.09,33.04-29.59,29.79-11.61-2.29-11.65-24.25-7.53-32.2,2.43-4.69,5.46-1.06,9.25-1.22,1.91-.08,4.57-1.79,5.48-1.81ZM284.65,349.47c2.1-2.26.6-7.98-3.12-6.1s-.02,9.49,3.12,6.1ZM301.67,346.42c-2.57,1.03-.67,7.47,1.8,7.11s3.15-9.1-1.8-7.11ZM285.48,366.06c-.14-1.39-1.03-3.83-2.96-3.28-2.86,1.77,1.9,6.22,3.42,6.46,4.23.66,7.87-8.84-.46-3.18Z" fill="#fff"/>
  <path d="M170.42,613.87c-.95,2.58-1.31,5.37-2.04,8-.13.48-1.14.62-1.49,1.91-.72,2.62-1.07,11.11-2.81,12.33-5.14,1.77-33.83,2.47-35.64-2.29l3.2-25.87,38.79,5.93Z" fill="#fff"/>
  <path d="M395.92,534.33l-6.19-5.96-3.66-.6c5.21,5.5,8.63,11.7,8.27,19.41-4.76,5.41-5.11-3.98-6.95-7.09-.58-.97-10.19-12.87-11.18-8.05-.25,1.22,17.2,17.55,6.23,20.02-2.23-.11-4.55-7.68-6.22-9.99-.58-.8-6.33-6.45-6.92-6.4-1.24.91-1.1,1.26-.64,2.59.95,2.74,13,14.25,5.18,14.49-3.57-.97-5.42-4.94-8.71-7-2.79-1.75-7.31-2.48-9.53-4.27-.52-.42-3.75-5.17-3.78-5.5-.11-1.06,4.31-8.07,5.33-9.18,6-6.55,17.95-10.09,26.58-8.18,6.52,1.44,17.74,8.16,12.19,15.73Z" fill="#fff"/>
  <path d="M590.39,396.16c-2.34,1.74-6.27,3.11-9.08,1.79-.96-.45-1.09-2.25-1.69-2.36-1.52-.28-5.54,4.17-10.98,2.54-1.34-.4-2.43-2.86-4.18-3-1.93-.16-5.67,3.25-8.4,1.13l-3-21.65c13.55,5.06,27.04-6.5,31.88-18.4l5.59,5.58-.15,34.37ZM586.59,387.1c-.81-.68-6.75,2-7.8-1.79-.42-1.52,1.41-2.95-.42-4.13-1.94-.27-2.5,7.34-8.4,3.97-1.23-.7-2.27-5.22-4.4-2.31,1.72,9.15,6.41,5,11.41,5.76,2.36.36,8.6,5.09,9.62-1.5Z" fill="#fff"/>
  <path d="M548.9,341.27c-.02-.14-1-.22-1.07-.65-.14-.9-.23-4.89.07-5.36,2.25,0,6.08-2.31,7.73-2.42,1.32-.09,2.58,1.38,4.33,1.73,2.99.6,4.36-.6,5.96-.44,1.39.14,2.53,1.87,4.06,2.21,2.21.49,4.6-.36,6.74.49,2.98,1.18,1,4.04,1.48,6.37,1.56,7.45,5.45,8.65,1.3,16.1-3.67,6.59-21.51,19.81-26.8,10.09-2.44-4.49-2.68-21.5-3.79-28.12ZM555.62,341.15c-3.12-1.98-5.67,4.41-2.22,6.5,2.62-.05,3.74-5.54,2.22-6.5ZM571.28,341.86c-6.91,8.08,7.75,10.17,2.4-.05l-2.4.05ZM558.46,367.23c4.12,2.06,7.17-2.03,8.39-5.45-2.06-2.84-3.44,2.31-5.45,2.21-1.8-.09-2.8-2.87-4.06-3.83-2.3.81.41,6.71,1.13,7.07Z" fill="#fff"/>
  <path d="M85.6,68.96c3.47,7.76,10.62,13.23,18.46,16.22-2.4,14.25-9.77,26.71-14.51,40.31l-18.31-40.44c6.44-3.36,10.84-8.69,13.06-15.65l1.31-.43Z" fill="#fff"/>
  <path d="M419.6,659.22l1.33-9.84c13.6-.88,27.13-3.02,40.09-7.24l1.84,29.76c-2.88,3.95-6.8,6.71-11.03,9.01,1.43-8.55-14.39-21.69-21.38-21.69h-10.85Z" fill="#fff"/>
  <path d="M590.54,318.73v20.38l-3.34-5.21-7.41,1.97-2.39-3.72c-4.54,2.74-8.29,1.66-10.88-2.91-3.51,3.27-8.47,3.68-8.86-1.97-1.47-1.22-10.18,10.49-12.19-.62-1.35-7.43,1.02-15.03,9.23-9.24,3.75-11.38,9.4-3.64,11.74-4.05.96-.17,2.94-3.04,5.35-3.1,3.29-.08,4.63,3.45,6.07,3.77,1.59.36,3.37-1.95,6.28-1.1,2.68.79,2.76,6.01,6.4,5.78Z" fill="#fff"/>
  <path d="M190.4,661.59c2.52,4.11,5.61,11.07-2.22,10.1,1.28-2.67-5.01-14.32-7.89-11.82l5.89,12.17c-8.55,4.57-6.89-1.08-10.35-6.08-.86-1.25-4.27-5.64-5.41-2.49l5.91,10.85-9.11.57c-.74-2.89-3.5-10.98-6.99-11.1-2.48-.08,1.61,4.31,2.22,5.67.33.72,1.62,4.65,1.39,4.85-7.06.69-13.71-1.38-20.38-3.29,5.99-12.69,21.66-18.73,34.86-19.41,5.22,2.73,8.96,4.89,12.08,9.96Z" fill="#fff"/>
  <path d="M215.63,741.55c10.71-1.31,26.48,7.61,24.33,19.72-2.4,13.53-42.02,6.76-36.16-11.83,1.33-4.21,7.68-7.38,11.83-7.89ZM216.44,757.81c-5.47-13.98,13.32-4.42,16.77,1.3,3.59-.04-4.52-7.26-5.78-8.01-3.45-2.04-8.88-3.39-12.68-1.88-4.87,1.93-3.5,8.8,1.69,8.59Z" fill="#fff"/>
  <path d="M319.52,739.59c5.01-.51,10.44.15,13.58,4.46,11.64,15.98-23.16,30.67-31.46,18.31-7.12-10.59,8.19-21.78,17.89-22.77ZM322.95,757.15c3.55.45,3.81-3.67,3.26-6.23-1.25-5.8-11.46-1.7-14.66.42l-6.35,6.46c3.86.06,6.01-4.21,9.6-5.84,6.08-2.77,13.38-3.44,8.15,5.19Z" fill="#fff"/>
  <path d="M422.88,690.77c-.25-3.27,1.01-6.01,3.18-8.34l-.87-2.16c-3.75,2.25-6.04,6-6.37,10.38l-7.12.11c-1.67-2.33,6.81-13.02,3.62-13.13-3.65,2.74-6.59,8.05-7.57,12.48-6.6-.95-8.28-.47-4.94-7.26,1.36-2.77,3.93-3.75,4.29-6.55-2.73-2.5-10.62,8.9-9.2,11.83l-4.31-1.28c-5.52-5.82,12.48-17.75,17.75-17.8,10.86-.11,25.77,6.39,31.24,16.13-1.75,2.68-18.79,6.48-19.7,5.58Z" fill="#fff"/>
  <path d="M361.74,189.24c3.58-16.12,21.3-30.78,37.83-21.71,7.52,4.13,5.5,9.94,6.28,17.39.19,1.82,2.18,3.7.26,4.99-.77.13-8.33-5.57-9.21-6.55-1.56-1.74-4.24-8.44-5.91-8.62-9.22,5.78-18.73,11.7-29.24,14.5Z" fill="#fff"/>
  <path d="M372.85,646.14l.4,12.42-18.99,7.84c-3.25-3.71-3.82-8.44-6.46-12.64-1.45-2.3-4.37-4.33-5.15-5.54-.57-.89-2.93-9-2.6-9.38l32.8,7.3Z" fill="#fff"/>
  <path d="M211.18,495.55c-1.42,4.12-.35,7.8-4.57,10.22-7.66,4.39-41.46,9.23-49.78,6.98-4.8-1.3-11.65-8.2-16.65-10.3,23.61,2.33,49.06,3.44,71-6.89Z" fill="#fff"/>
  <path d="M179.39,724.51c7.15,12.54,1.23,25.89-13.67,17.29-11.08-6.4-13.55-31.81,4.51-25.53,3.11,1.08,7.58,5.47,9.16,8.24ZM167.35,728.02c-.39-.48-3.47-7.08-4.81-5.7-.6,2.14,8.84,14.32,9.85,13.14.37-3.44-3.46-5.44-5.04-7.44Z" fill="#fff"/>
  <path d="M432.08,511.33c.41,1.57-.37,1.09-.85,1.47-4.08,3.22-9.46,2.66-14.26,4.11-5.77,1.74-10.82,5.03-15.46,8.75-.65-.02-8.43-6.94-10.38-7.9-2.75-1.36-6.6-1.28-8.7-3.13-1.86-1.64-5.97-9.81-4.25-11.85,17.17,6.11,35.68,8.65,53.9,8.55Z" fill="#fff"/>
  <path d="M165.09,639.56l.73,3.22c-14.5,2.47-29.79,5.94-36.56,20.33-.87.21-7.38-4.57-7.51-5.04-1.16-4.09,4.35-15.7,3.97-20.56,12.78,4.37,26.13,4.09,39.37,2.04Z" fill="#fff"/>
  <path d="M141.96,341.22c3.16-.75,7.98-.62,9.1,3.11,1.93,6.44-.92,19.63,1.34,26.95l-.81,1.24c-13.11,1.47-19.51-13.5-16.05-24.59.69-2.21,4.14-6.17,6.43-6.72Z" fill="#fff"/>
  <path d="M188.1,613.94l7.3,22.93c-8.64.29-17.29-1.61-25.34-4.57l3.74-18.34h14.3Z" fill="#fff"/>
  <path d="M376.01,717.25c6.71,8.22-7.14,27.46-16.22,23.78-11.61-4.7,6.92-35.17,16.22-23.78ZM364.37,734.8c3.58-1.31,6.67-7,6.56-10.51-2.52,2.77-5.89,6.89-6.56,10.51Z" fill="#fff"/>
  <path d="M352.93,297.45c-5.27,8.32-3.95,22.22-6.95,30.84-.3.88.39,1.18-1.33.95-3.26-8.16-3-17.32-2.67-25.98.14-3.7,1.14-18.95,2.1-21.56.88-2.42,7.58.71,9.48.84l-.63,14.92Z" fill="#fff"/>
  <path d="M215.13,105.12l-33.53,21.68c3.05-3.22,5.88-18.81,7.91-20.67,2.26-2.07,11.67-4.62,14.11-8.89,2.69,3.87,6.36,7.76,11.5,7.88Z" fill="#fff"/>
  <path d="M463.64,676.97c-.11,7.79-10.55,13.43-16.86,16.33-12.37,5.69-27.8,7.3-41.25,5.28-3.86-.58-12.68-2.11-13.39-6.33-.72-4.25,3.14-.89,5.62-.36,17.89,3.84,31.71,4.32,48.71-3.5,6.36-2.93,11.59-7.35,17.17-11.42Z" fill="#fff"/>
  <path d="M132.53,159.91c-1.17,1.44-11.96,15.27-14.04,12.9l-.66-24.31c7.64,2.19,16.36,3.77,23.34-1.3-1.65,5.06-5.49,8.82-8.64,12.71Z" fill="#fff"/>
  <path d="M516.24,310.85c1.24,1.04-9.79,10.5-10.55,12.18-6.02-1.37-10.54,1.47-16.41.97.83-2.57-1.48-13.78.42-14.4l26.53,1.25Z" fill="#fff"/>
  <path d="M361.08,213.9c.84,7.54,6.86,13.81,11.84,19.05-5.3,1.02-10.6,2.89-14.81,6.23-8.53-13.26,1.04-28.28,2.97-42.04,1.91.57,0,4.27,0,4.93,0,3.67-.39,8.33,0,11.83Z" fill="#fff"/>
  <path d="M518.87,241.17c2.85,6.58,1.18,10.06-4.64,14.09-10.37,7.18-19.38.64-15.1-11.19,6.86,1.21,13.43-.23,19.74-2.9Z" fill="#fff"/>
  <polygon points="216.44 611.24 207.24 624.71 194.84 624.94 191.46 613.21 216.44 611.24" fill="#fff"/>
  <path d="M437.02,227.37c2.44-.36,6.77-3.52,8.54-3.32,12.34,14.06-24.77,23.47-18.07,3.32,2.99-.3,6.66.42,9.53,0Z" fill="#fff"/>
  <path d="M393.22,232.71c6.21,17.31-26.61,17.16-16.29.64,5.72,1.29,10.68.19,16.29-.64Z" fill="#fff"/>
  <path d="M224.58,495.32c.05.17.86.25,1,.75,1.02,3.49,1.58,6.66,3.35,10l-15.77-2.63c-.6-1.74,1.1-1.04,1.29-1.79.61-2.4.39-6.51,1.21-8.53,1.18-2.92,5.74-6.73,6.06-10.71,2.16,3.46,1.71,8.77,2.87,12.91Z" fill="#fff"/>
  <path d="M584.62,401.55v19.72c-2.88-.03-6.22.5-8.55-1.64v-19.39l8.55,1.31Z" fill="#fff"/>
  <path d="M310.9,389.93c.89,1.28.2,16.98-.74,18.24l-8.26.62,1.31-21.04c2.43-.32,6.19.01,7.68,2.18Z" fill="#fff"/>
  <path d="M537.11,431.97c3.65,5.71,5.09,11.32-3.6,12.15-4.41.42-3.43-2.84-6.05-4.82s-4.78-1.01-5.94-5.9c-.17-1.47.14-.74.97-.94,2.22-.54,13.34-1.59,14.62-.49Z" fill="#fff"/>
  <path d="M424.86,228.02c-6.71-.69-11.46,5.19-17.09,6.58.76-7.23-3.56-11.53.72-18.34,2.28-1.46,7.25,6.16,9.49,7.8,2.44,1.78,4.84,2.08,6.88,3.96Z" fill="#fff"/>
  <path d="M320.98,393.34c.1-.56,1.03-2.63,1.6-2.77l6.56,1.05c1.87,2.17-.89,3.43-.98,4.31-.3,2.85.72,14.16-.24,15.53l-6.94.62c.69-5.62-.94-13.41,0-18.73Z" fill="#fff"/>
  <path d="M336.76,676.3c.03-1.06.02-2.68,1.16-3.27,2.5-1.29,14.82-2.58,19.06-3.79,6.11-1.74,11.74-4.29,17.25-7.4.98,5.06-4.75,7.25-8.56,8.86-3.73,1.57-26.83,7.52-28.91,5.6Z" fill="#fff"/>
  <path d="M559.05,419.88c-.82-.61-2.55-17.77-2.7-20.3l6.86-.57c2.16.66.59,19.68-.92,20.63-.62.39-2.76.59-3.24.24Z" fill="#fff"/>
  <path d="M348.59,403.86c.49-.45.81-1.15,1.63-.98,1.31.27,6.04,16.06,8.06,18.09l-3.99,2.83c-3.45-2.47-7.1-4.97-11.62-4.49,1.07-.87,5.91-3.35,5.91-4.92v-10.52Z" fill="#fff"/>
  <path d="M590.54,356.86l-7.89-10.33c-1.41-2.46-2.48-9.23,2.18-8.11.39.09,5.71,5.23,5.71,5.63v12.82Z" fill="#fff"/>
  <path d="M343.33,430.47l2.31-2.61-.68-1.98-5.91,4.59c-2.74.24,2.75-6.12,0-5.9-1.28.1-1.78,3.74-3.61,3.27l1.97-4.93c5.36-.96,11.02-.72,14.45,3.95-2.23,2.2-5.35,3.9-8.53,3.61Z" fill="#fff"/>
  <path d="M463.64,544.84l1.31,9.86c-4.36.33-7.91-2.62-11.82-3.95-.35-1.51.22-1.06.83-1.47.51-.34,9.31-4.82,9.68-4.43Z" fill="#fff"/>
  <path d="M404.47,225.4v9.86c-2.26-.7-9.9-.77-9.25-4.21l9.25-5.65Z" fill="#fff"/>
  <path d="M373.57,503.44c-6.77-4.63-7.44-8.62-2.29-15.11,1.23,5.12,3.13,9.67,2.29,15.11Z" fill="#fff"/>
  <path d="M226.96,617.15c-3.74-.38-5.02-4.17-5.92-7.22l7.88-1.98-1.97,9.2Z" fill="#fff"/>
  <path d="M347.94,544.84c-.36-5.19,1.17-6.12,3.93-1.64l-3.93,1.64Z" fill="#fff"/>
  <path d="M339.39,669.07c-1.51-1.53,2.6-5.37,3.28-1.63.31,1.69-2.9,2.01-3.28,1.63Z" fill="#fff"/>
  <polygon points="362.39 196.47 361.74 196.14 361.75 194.51 362.39 194.51 362.39 196.47" fill="#fff"/>
  <path d="M526.1,442.31c0,1.44-1.5.42-1.95-.34l1.95.34Z" fill="#fff"/>
  <path d="M502.86,763.3c14.72,24.68-35.64,19.87-47.24,16.67-22.97-6.32,5.89-28.22,18.39-29.88,10.37-1.37,23.39,4.06,28.85,13.2ZM475.32,753.38c-6.93.94-23.23,10.43-24.55,17.57-.57,3.07,3.61,4.62,5.87,5.37,10.57,3.53,56.71,8.87,40.82-13.86-4.46-6.39-14.59-10.1-22.14-9.07Z"/>
  <path d="M109.49,716.88c1.89-.96-.84,3.69-1.21,4.11-4.11,4.76-20.91,4.47-26.98,3.98-28.47-2.3-9.82-23.74,7.95-23.06,8.65.33,18.87,5.67,20.24,14.97ZM86.82,705.39c-11.49.5-26.69,14.6-6.82,16.29,4.85.41,27.52,1.83,26.54-5.43s-13.54-11.13-19.72-10.86Z"/>
  <path d="M120.28,773.09c7.82-1.33,21.57,1.24,25.53,8.99,8.17,15.97-31.52,14.41-38.12,9.19-7.31-5.78,6.71-17.18,12.59-18.18ZM109.53,784.35c-.43.82-1.16,1.45-.84,2.6,5.1,7.75,46.4,7.09,30.48-6.77-7.59-6.61-24.66-5.3-29.64,4.17Z"/>
  <path d="M525.05,706.94c-5.94-8.2.11-6.65,4.22-1.27,1.15,1.5,7.15,12.67,3.08,12.68-2.37-4.23-4.52-7.59-7.3-11.42Z"/>
  <path d="M536.23,793.06c.14.42,2.09,1.8,1.05,4.19-4.37.66-4.51-4.72-6.23-7.9-.91-1.68-7.85-10.04-1.17-7.38,3.1,1.23,5.33,8.04,6.36,11.09Z"/>
  <path d="M410.16,742.27c1.05,1.3,4.21,6.99,3.52,8.31-4.24,1.29-5.16-3.86-6.95-6.53-.35-.52-7.9-7.98-2.04-6.51.35.09,5.15,4.33,5.47,4.73Z"/>
  <path d="M56.68,673.02c-2.55,4.7-3.98,10.57-7.55,14.45-3.3-.74,1.82-16.28,7.55-14.45Z"/>
  <path d="M229.57,808.39c-1.4.32-1.41.87-2.62-.25-.97-.9-6.69-8.82-7.57-10.22-.55-.87-1.32-1.28-.96-2.64,4.04-.5,12.65,10.21,11.15,13.11Z"/>
  <path d="M232.22,794.95c.36-1.71,1.56-2.05,3.19-1.54,1.33.91.69,11.6-.22,13.06-.98,1.58-2.98-.73-2.98-1,0-2.78-.49-8.19,0-10.52Z"/>
  <path d="M415,731.52c2.46-2.97,7.78,14.7,4.26,16.42-2.25.47-3.61-14.25-4.26-16.42Z"/>
  <path d="M553.71,703.92c1.14,1.12-5.18,7.22-5.9,8.37s-1.19,5.82-2.96,5.43c-4.17-.94,4.04-15.4,8.86-13.8Z"/>
  <path d="M56.02,760.44c1.11,1.04-6.69,10.19-5.26,12.75.09.66-1.43.49-1.63.38-3.62-1.95,1.55-14.7,6.89-13.14Z"/>
  <path d="M247.15,796.06c1.3-.25,1.98-.33,2.81.86-4.17.44-7.55,12.61-9.51,12.16-3.89-.91,2.69-12.26,6.7-13.02Z"/>
  <path d="M354.2,791.33c4.03-.18,10.08,13,6.55,13.8-1.83.41-4.74-10.76-7.45-11.61l.9-2.19Z"/>
  <path d="M557,783.45c-.24,4.76-6.31,7.02-6.63,12.42-8.69.88,4.6-14.61,6.63-12.42Z"/>
  <path d="M380.15,791.34c-1.44,4.7-6.57,6.51-6.22,11.85l-2.98.64c-.49-5.9,2.85-11.83,9.2-12.49Z"/>
  <path d="M41.56,670.39c3.03-3.26,5.11,14.4,2.94,15.77-3.33.77-2.57-13.48-2.94-15.77Z"/>
  <path d="M37.61,685.5c-1.61,1.65-5.32-5.93-6.29-7.18-.84-1.07-4.98-3.52-4.22-4.64,5.84-1.66,10.38,6.7,10.51,11.82Z"/>
  <path d="M368.3,803.16c-4.28,2.7-3.01-14.96.99-13.8,1.47.43-.39,13.42-.99,13.8Z"/>
  <path d="M432.08,734.81c.43.36-3.91,6.04-4.43,7.07-.71,1.41-1.18,7.13-3.12,6.73-4.17-.87,2.74-15.59,7.55-13.8Z"/>
  <path d="M28.55,764.93c-.75-1.62.28-2.47,1.89-2.18,5.01.92,10.07,12.68,6.84,12.79-1.01.03-5.35-10.58-8.73-10.61Z"/>
  <path d="M541.22,701.29c0,1.77.56,15.75-2.29,15.11-2.3-.52-.9-18.53,2.29-15.11Z"/>
  <path d="M554.38,462.69c5.32-1,6.55,15.25,4.26,15.77-2.4.54-1.46-5.81-1.8-7.38-.64-2.91-2.17-5.41-2.45-8.38Z"/>
  <path d="M28.68,513.06c.04.11,2.01.87,1.04,2.2-.21.28-2.61.61-3.11-.15-.34-3.05-5.2-7.65-5.78-9.7-.25-.89-.21-1.8.69-1.97,4.12,1.14,5.78,6.05,7.16,9.63Z"/>
  <path d="M576.07,533.68l-6.9,12.47c-5.28-3.14,5.07-14.17,6.9-12.47Z"/>
  <path d="M543.86,794.62c-4.98.26-2.63-1.72-2.63-3.62v-9.86c1-1.29,1.6-1.34,2.63,0v13.47Z"/>
  <path d="M40.64,513.06c-.48.83-1.89,1.95-3.03,1.55-.4-5.83,1.87-9.16,6.24-12.47.95.73,1.06.95.86,2.14-.08.48-3.7,8.14-4.07,8.79Z"/>
  <path d="M43.52,758.47c.75.6,2.5,14.62.33,15.11-1.04.23-1.45-.8-1.63-1.65-.25-1.17-1.12-12.98-.66-13.47.54.09,1.77-.14,1.96,0Z"/>
  <path d="M568.84,463.34c.46.46-2.92,11.62-3.45,12.65-.45.89-.67,1.37-1.8,1.15-.88-1.1.63-15.15,5.25-13.8Z"/>
  <path d="M576.07,469.26c.77.77-6.51,10.76-7.88,9.19-.84-4.88,3.38-8.38,7.88-9.19Z"/>
  <path d="M564.24,543.53v-11.44c4.92-2.87,1.98,13.48,0,11.44Z"/>
  <path d="M559.93,540.62c.23.55,1.78,1.81,1.58,3.27l-1.53.95-6.26-11.16c3.69-.69,5.05,4.2,6.21,6.94Z"/>
  <path d="M32.95,499.54c.86.67,1.9,12.54,1.37,13.1h-1.97s-1.31-13.15-1.31-13.15c.56.08,1.63-.17,1.91.05Z"/>
  <path d="M272.9,207.56c-4.28.95-4.41-4.43-6.48-6.82-1.94-2.24-6-3.56-8.89-3.59-2.15-.02-11.62,3.94-10.16-.32,5.28-4.06,12.89-4.08,18.59-.89,2.74,1.53,3.24,3.41,5.37,5.17,4.77-4.67,9.88-9.35,17.11-9.29,2.55.02,12.55,3.55,7.77,5.23-1.52.54-6.77-1.42-9.73-1.23-6.95.44-11.73,5.42-13.59,11.73Z"/>
  <path d="M329.29,167.97c-5.91,4.21-5.76-2.55-10.36-4.61-3.55-1.59-12.1.55-11.07-2.67,5.77-3.74,14.58-1.67,18.07,4.24,5.06-3.74,10.53-7.55,17.29-5.48,1.04.32,4.08,1.99,2.1,3.2-6.44-.24-8.98-.25-14.46,3.31-.8.52-1.08,1.66-1.58,2.01Z"/>
  <path d="M75.66,261.64c1.71,1.2.51,36.88.13,41.69-1.71,22.17-4.39,49.74-8.79,72.07-.34,1.72-1.96,11.47-4.08,11.02-1.35-.92-1-2.23-.99-3.57.06-6.38,2.93-13.91,3.86-20.5,2.83-20.2,5.4-43.36,6.65-63.68.76-12.34.69-24.76.67-37.13l2.54.09Z"/>
  <path d="M93.49,335.16c-.93.18-1.55-.23-1.85-1.1-.43-1.25,1.53-18.07,1.95-20.82.15-.95.17-4.58,1.54-4.36,2.5,7.98-.68,17.99-1.64,26.28Z"/>
  <path d="M352.13,581.42c6.16,14.55,13.91,21.22,23.65,32.55.72.84,1.49.82,1.08,2.52-.92.93-7.83-4.98-8.86-5.92-8.68-7.91-20.95-27.26-21.4-39.08-.03-.87-.65-3.98,1-3.63,2.36,4.15,2.66,9.14,4.53,13.56Z"/>
  <path d="M238.79,380.52c-1.86,6.25-13.57,8.14-19.42,7.91-3.37-.13-17.55-3.85-16.73-8.23.51-2.71,7.01,2.75,9.02,3.46,4.12,1.45,9.85,1.97,14.16,1.3,4.62-.72,8.3-4.7,12.98-4.44Z"/>
  <path d="M271.26,639.92c2.46,5.79,9.51,13.33,12.19,19.17.6,1.3,1.51,7.32,2.36,7.35,5.06-5.77,6.78-13.17,8.61-20.41l3.27.66c15.52,16.06,16.45,44.72-5.38,55.23l-2.22-.96c17.52-10.45,20.11-34.95,6.57-49.63.36,4.06-9.5,20.22-11.99,21.53-4.82,2.55-2.95-3.5-3.19-5.32-1.94-14.59-14.61-20.89-14.42-35.27-1.12-.27-1.32.38-1.96.99-.8.77-5.47,7.82-6.1,9.06-4.86,9.6-4.68,18.4-2.46,28.72-8.41-2.34-15.7-10.14-18.74-18.4-10.17,15.02-6.56,32.72,8.01,43.26,1.9,1.38,5.47,1.35,4.81,4.06-15.65-2.44-23.49-19.72-21.52-34.33.33-2.47,6.89-22.27,11-18.91.51,8.1,5.31,14.74,12.5,18.4-2.13-15.25,4.04-29.86,16.07-38.76,1.92,4.35.5,8.64,2.59,13.55Z"/>
  <path d="M243.39,548.14c-5.02,13.09-24.41,26.82-37.34,32.01-1.88.75-4.39,2.65-6.04.52l26.62-16.76c3.58-4.04,8.1-7.34,11.86-11.15.74-.75,3.51-6.11,4.91-4.62Z"/>
  <path d="M295.9,448.98c.85,3.29,4.91,15.09-1.78,11.63l-.75-11.73,2.53.1Z"/>
  <path d="M276.27,417.98c-3.63.5-3-3.82-4-6.04-.34-.75-4.52-6.24-1.58-7.09,3.49-1.01,5.85,10.74,5.57,13.14Z"/>
  <path d="M307.17,450.2l-5.08,11c-6.05,3.36.25-13.4,5.08-11Z"/>
  <path d="M283.5,405.5l-3.23,11.44c-6.63,1.76-.42-14.65,3.23-11.44Z"/>
  <path d="M289.45,462.66l-5.95-11.14c5.09.51,7.29,5.86,8.5,10.14l-2.56,1.01Z"/>
  <path d="M544.52,642.78c-1.42-4.35-3.04-8.73-4.29-13.14-1.07-3.79-6.76-25.6-4.92-27.61l2.48,1.13,8.61,38.51-1.88,1.1Z"/>
  <path d="M495.2,648.04c-3.32-.57-3.13-8.47-3.31-11.47-.42-7.12-.87-21.59.01-28.3.19-1.44.45-2.64,1.65-3.59l1.64,43.36Z"/>
  <path d="M411.03,371.33l.38,1.98c-7.4,7.56-23.38,8.52-32.58,4.26-1.69-.78-6.92-4.07-2.99-4.94,7.64,3.79,16.9,5.12,25.22,2.82,3.85-1.06,6.24-3.94,9.98-4.12Z"/>
  <path d="M64.29,598.48c-.31.81-6.89,13.3-8.26,11.44.78-5.38,4.21-10.49,6.11-15.91,1.01-2.9.14-7.31,3.41-8.4,2.77,1.66-.32,10.42-1.25,12.88Z"/>
  <path d="M405.79,318.73c-.89-6.15,5.25-4.35,9.22-3.63,3.45.62,17.08,3.94,15.03,9.13-2.66,2.89-7.3-1.33-10.59-2.39-4.41-1.42-8.98-2.85-13.66-3.11Z"/>
  <path d="M372.7,330.03c8.81-3.07,8.53,11.09,3.01,12.25-7.57,1.59-6.88-10.9-3.01-12.25Z"/>
  <path d="M409.25,344.19c-3.28-3.12-1.63-13.13,4.45-11.38,6.28,1.8,2.23,17.73-4.45,11.38Z"/>
  <path d="M197.91,324.19c2.69-.17,10.88-1.33,10.5,3.31-.43,5.22-10.38,3.43-13.82,3.89s-12.26,5.44-13.98,2.46c-3.87-6.71,13.43-9.42,17.3-9.66Z"/>
  <path d="M203.09,339.32c3.39,2.49,3.48,14.14-3.25,12.82s-4.49-18.5,3.25-12.82Z"/>
  <path d="M236.38,348.76c-3.51-5.41,1.27-15.55,6.65-8.95,6.27,7.7-2.26,15.71-6.65,8.95Z"/>
  <path d="M17.63,392.12c-.58,1.18-2.36,1.93-3.68,1.55-.56-5.06,1.4-11.23,6.89-12.49,1.35.99.7.87.47,1.75-.27,1.02-3.14,8.11-3.67,9.19Z"/>
  <path d="M8.03,377.89c2.93-3.21,6.91,15.09.67,13.8.16-.63-.67-1.39-.67-1.64v-12.16Z"/>
  <path d="M439.97,208.31c-1.68,7.87-15.11,9.28-17.73.98,1.62-1.97,3.53,1.85,5.59,2.28,5.09,1.07,7.83-1.8,12.14-3.26Z"/>
  <path d="M430.11,189.25l-1.33,12.7c.53,1.78,5.29-.07,4.62,2.41-14.1,5.95-5.6-17.9-3.29-15.1Z"/>
  <path d="M419.7,195.06c-1.11-.69-1.62-5.87,1.58-6.47,6.82-1.27,3.14,9.4-1.58,6.47Z"/>
  <path d="M441.05,188.04c.65-.13,2.24.65,2.54,1.21v5.26s-2.66,1.31-2.66,1.31c-3.37-.2-2.09-7.35.12-7.78Z"/>
  <path d="M448.52,185.3c-1.57-.33-10.13-2.74-9.85-4.26.39-2.13,11.14.09,9.85,4.26Z"/>
  <path d="M424.2,180.71l-10.51,5.25c.13-4.38,6.97-6.53,10.51-5.25Z"/>
  <path d="M496.51,224.75c2.78,7.2,9.8,3.81,14.89,1.38,1.91-.26.72,1.81-.06,2.59-4.48,4.5-16.45,5.08-16.14-3.64l1.31-.33Z"/>
  <path d="M502.82,215.28c-.14.4-2.07,1.82-1.04,4.2h2.64c.95,3.42-5.28,3.46-5.93.31-.62-2.13,2.19-10.19,4.27-10.2l1.64,1.62c.07,1.28-1.19,2.97-1.57,4.07Z"/>
  <path d="M513.16,209.16c.8-1.03,3.78-2.27,4.76-.88l-1.02,6.3c-3.67,1.29-6.21-2.23-3.74-5.42Z"/>
  <path d="M515.36,199.82c3.55-.04,8.86,2.27,7.14,6.52l-7.91-4.6.77-1.92Z"/>
  <path d="M499.08,206.42c1.53,1.15.17,9.02-3.91,6.2l.09-5.25c.43-1.09,3.15-1.46,3.83-.95Z"/>
  <path d="M492.58,203.05c-1.81-1.83,7.93-8.05,8.54-4.91.37,1.88-7.97,5.49-8.54,4.91Z"/>
  <path d="M391.98,216.2c-.66,8.45-21.25,5.92-17.42-1.96,5.75,5.13,10.61,4.69,17.42,1.96Z"/>
  <path d="M382.99,210.11c.02.11,1.75.23,1.1,1.81l-4.02.61c-2.74-3.29,2.59-13.54,4-9.09-.39,2.6-1.49,3.79-1.08,6.67Z"/>
  <path d="M380.15,194.5c-2.88-.58-6.84.18-9.45-.03-.57-.05-2.93-.43-2.38-1.6,1.13-2.4,11.91-3.04,11.83,1.63Z"/>
  <path d="M374.04,199.9c5.11-1.63,5.22,4.22,2.82,5.45-5.15,2.65-6.2-4.37-2.82-5.45Z"/>
  <path d="M392.41,199.84c4.11-1.62,6.38,5.39,2.38,6.4s-4.49-5.57-2.38-6.4Z"/>
  <path d="M400.53,197.13l-9.17-3.32c-.71-6.09,11.68.41,9.17,3.32Z"/>
  <path d="M325.25,373.31c4.02,8.83-12.38,11.36-13.47,2.32,2.15-2.85,2.84,1.55,4.75,2.44,5.27,2.46,8.07-4.74,8.72-4.76Z"/>
  <path d="M209.86,716.4c.26,1.56-.06,1.66-1.07,2.54-2.87,2.49-12.21,6.21-16.02,7.31.21-2.01,3.27-3.11,4.82-4.05,1.34-.81,11.73-6.36,12.27-5.8Z"/>
  <path d="M208.55,703.26c.34,1.62-.24,1.66-1.07,2.54s-12.19,6.3-13.73,6.66c-1.08.25-1.25,1.18-2.27-.33l17.08-8.87Z"/>
  <path d="M253.91,722.98c.29,2.94-9.96,18.68-11.49,18.4-.45-.08-1.51-1.38-.68-1.97l12.17-16.42Z"/>
  <path d="M247.34,714.43c.21,3.66-2.42,8.86-5.91,10.51l5.91-10.51Z"/>
  <path d="M346.62,711.15c.48,2.88-5.24.1-6.56-.35-2.73-.95-9.4-3.87-11.8-5.29-.84-.5-1.56-1.15-1.36-2.25l19.72,7.89Z"/>
  <path d="M348.59,728.22c-3.63-1.39-10.65-4.19-13.38-6.66-.98-.88-1.36-.92-1.08-2.53.59-.64,13.96,7.1,14.46,9.19Z"/>
  <path d="M295.08,724.53c1.32,1.9,3.16,3.86,2.88,6.33-.49.67-10.46-11.23-9.85-13.14.84-.85,6.41,6,6.97,6.81Z"/>
  <path d="M285.48,366.06c8.34-5.66,4.7,3.84.46,3.18-1.52-.24-6.29-4.69-3.42-6.46,1.93-.55,2.82,1.88,2.96,3.28Z"/>
  <path d="M284.65,349.47c-3.15,3.39-6.82-4.24-3.12-6.1s5.22,3.84,3.12,6.1Z"/>
  <path d="M301.67,346.42c4.95-1.99,4.27,6.75,1.8,7.11s-4.37-6.08-1.8-7.11Z"/>
  <path d="M586.59,387.1c-1.03,6.59-7.26,1.86-9.62,1.5-5-.76-9.69,3.39-11.41-5.76,2.14-2.9,3.17,1.61,4.4,2.31,5.91,3.37,6.47-4.25,8.4-3.97,1.84,1.18,0,2.61.42,4.13,1.05,3.79,6.99,1.11,7.8,1.79Z"/>
  <path d="M558.46,367.23c-.71-.36-3.43-6.25-1.13-7.07,1.26.96,2.26,3.73,4.06,3.83,2.01.1,3.39-5.05,5.45-2.21-1.21,3.41-4.27,7.5-8.39,5.45Z"/>
  <path d="M571.28,341.86l2.4-.05c5.36,10.22-9.3,8.13-2.4.05Z"/>
  <path d="M555.62,341.15c1.52.96.4,6.45-2.22,6.5-3.45-2.1-.9-8.48,2.22-6.5Z"/>
  <path d="M216.44,757.81c-5.19.21-6.56-6.66-1.69-8.59,3.8-1.51,9.23-.16,12.68,1.88,1.26.75,9.37,7.97,5.78,8.01-3.45-5.72-22.24-15.28-16.77-1.3Z"/>
  <path d="M322.95,757.15c5.23-8.63-2.07-7.96-8.15-5.19-3.59,1.64-5.74,5.91-9.6,5.84l6.35-6.46c3.2-2.12,13.41-6.22,14.66-.42.55,2.55.28,6.67-3.26,6.23Z"/>
  <path d="M167.35,728.02c1.58,1.99,5.41,4,5.04,7.44-1.01,1.18-10.45-11-9.85-13.14,1.35-1.38,4.43,5.22,4.81,5.7Z"/>
  <path d="M364.37,734.8c.67-3.62,4.04-7.74,6.56-10.51.1,3.51-2.99,9.21-6.56,10.51Z"/>
  <path d="M475.32,753.38c7.55-1.02,17.67,2.68,22.14,9.07,15.89,22.73-30.25,17.39-40.82,13.86-2.25-.75-6.43-2.29-5.87-5.37,1.32-7.13,17.62-16.63,24.55-17.57Z" fill="#fff"/>
  <path d="M86.82,705.39c6.17-.27,18.76,3.74,19.72,10.86s-21.7,5.85-26.54,5.43c-19.86-1.69-4.67-15.79,6.82-16.29Z" fill="#fff"/>
  <path d="M109.53,784.35c4.98-9.47,22.05-10.78,29.64-4.17,15.92,13.86-25.38,14.52-30.48,6.77-.32-1.15.41-1.78.84-2.6Z" fill="#fff"/>
</svg>