<?xml version="1.0" encoding="UTF-8"?>
<svg id="Camada_1" xmlns="http://www.w3.org/2000/svg" version="1.1" viewBox="0 0 595.3 841.9">
  <!-- Generator: Adobe Illustrator 29.0.0, SVG Export Plug-In . SVG Version: 2.1.0 Build 186)  -->
  <path d="M141.6,148.9c10.6-12.1,33.3-8.4,40.7,5.3,3.9,7.2,2.8,12.9,2.3,20.7,1.1,1.7,7.4-.7,9.9-.6,23.9.2,31.2,33.3,14.3,49.3-6.1,5.7-13.3,6.8-20.6,9.9-.4,1.6,4.3,4.8,5.4,6.6,9,14.4-5.4,32.2-19.2,36.6s-14.1,1.7-22.2.3c-1.5,16.9-18.2,23.5-33,17.9-1.6-2.3,12-26.7,13.5-31,5.4-2.5,14.5-3.2,16.5-10-3.9-.7-5.4,2.4-8.7,3.8-8.9,3.7-21,2.7-25.7-6.9s-.6-7.5-3.1-10.9c-9.7,17.6-37.1,21.6-51,7-2.3-2.4-2.7-6.9-6.5-7,1.2,16.1-26.6,23.4-36.9,14.4s-9.7-16.3-9.1-7c.6,9.3,14.3,15.2,21.8,14.7l16.2,38.2c-9.8,6.1-27.9.4-28.1-12.3H5v-142.5c.7-3.7,7.4-10.3,10.7-12.3,9.8-6.1,28.4-7.5,37.7,0s2.9,6,7.6,4.8c6.8-43.1,71-41.2,79,1.6" fill="#fff"/>
  <g>
    <path d="M450,313h.2-.2Z" fill="#fff"/>
    <path d="M465.5,353c-4.1.4-6.7-6.6-7.2-9.8s.7-6.1.2-8.2-.9.2-4.7-5.3c-3.8-5.4-4.3-10.1-3.8-16.6-10.6,4.5-18.8-1.6-26.3-8.8-7.9,3.1-16.8,3.9-23.2-2.3-9.2,8.1-20,8.6-31.3,5-1.1,3.3-2.7,6.5-3.6,9.9-4.2,15.4-6.2,54.5.3,68.7,16.5,36.1,94.8,31.3,100.2-10.7,8.9,4.5,6,14.5,22-6.5s-8.8-35.1-22.6-15.4h0Z" fill="#fff"/>
  </g>
  <g>
    <path d="M15.1,595.8h-.7c1.3,5.6,1.3-2.4.7,0Z" fill="#fff"/>
    <path d="M81,431.4h0c-1.4-7.6-12.7,2.5-14.9,4.8-.7.7-5.2,8.1-6,4-.6-2.8,6.9-9.6,8.9-23,2-13.4-5.3-13.5-11.9-4.9-6.6,8.6-6.9,19-10.5,28.5l-8.9-16.1c-3.1-5.8-19.6-19.5-20.7-6.4-1,11.9,15.6,24.2,15,28-.3,1.7,0,1.6-2.7.7-2.6-.9-19.9-14.3-19.3-4.8.4,5.9,17.3,14.8,14,18.6l-10.6-7.3-8.3-10.5v151.8l9.9,1.1c.7-3.8-1.3-4-1.8-7.7-2.4-18,10.1-33.4,27.9-35.5-17.1-21.2-3.8-53,23-56-8.6-13.9-9.9-33.5.6-46.9,3.7-4.7,17.7-10.8,16.3-18.4ZM22,497.9c0-6.4-4.8-10-7.1-14.5-.6-1.2-3.6-1.9.6-2.5,4.2-.6,13.9,16.3,6.5,17ZM27,495.9c-1.1-2.8,1.9-14,4.5-14s-.4,9.4-1,11c-.6,1.6-1.4,3.4-3.5,3ZM38,492.6c-.8,1.3-2.5,7.8-5,5.3s4-12.6,8-11c1,3.5-2.2,4.4-3,5.7Z" fill="#fff"/>
    <polygon points="5 442.9 5.1 443 5.1 442.8 5 442.9" fill="#fff"/>
  </g>
  <path d="M267.6,328.3c1.9,1.9,7.2,7.3,8.1,9.4s3.1,19.7,3.3,23.7c1.2,21.5-.6,42.4-21,54.1-21.3,12.2-44.8,5.1-63.9-7.7,1-6.2,4-11.8,3.9-18.3s-9.4-39.8-3.9-45.3,11.2-4.5,13.6-5.9c13-7,27.5-15.8,34.1-29.4,7.2,3.5,19.2,13.4,25.6,19.4h.2,0ZM274,340.9c-3.5.2-7-.9-10.3-2.2s-9.7-7.1-10.7-3.3c-.4,1.9.3,2.3,1.6,3.3,5.1,4,13,5.8,19.4,5.1v-3h0ZM233,334.9c-1.2-1.2-9.5,5.8-11.6,6.9-3.5,1.8-8,2.4-11.1,3.9s-1.4,4.4,1.8,3.8c6.4-1.2,21.4-6.8,21-14.6h0ZM267.9,351c-13.8-4.3-11.4,18-1.5,14.7M216.7,354.1c-4.5,1.5-4.2,18.4,4.6,15.7M247.9,360.5c-1.9-1.8-2.6-2.9-3.8-1.6h0c-3.1,3.2,14,15.3,6.9,20.4s-7,.7-8.9,4c0,3.3,16.4,1.7,15-8.9M241.8,391.1c-6.5.5-15.1,3.6-14.9,11.3s11.6,2.7,16.7,2.6,5.3,1.7,7.8,1.6c11.5-.6,6.7-16.7-9.6-15.4h0Z" fill="#fff"/>
  <path d="M149,57.5c-4.7-7.4-17.6-5.9-24.5-2.5-2.4-.6,0-5.4-2.4-12.7s-14-8.9-20.5-7.1c-2.8.8-7.1,4.1-9.8,5.7l-1.7-2.7v-1.2c0-.7,0-1.8.2-3.2,0-1.4.2-2.4.4-4.1.3-2.2.2-3.6.2-4.1-.4-5.4-2.5-9.6-5-12.5-7-8.3-20.3-9.5-32.4-8.1-10.6,1.2-16.7,10.5-17.3,20.5,0,2.5,2.6,6.2-.7,8.5-.6,0-2.8-4.4-8.2-5.8-5.4-1.4-14.1.3-18.5,3.7-.4.3-3.7,4.2-3.7,4.5h0v33.6h123.5c7.4,0,28-.7,20.5-12.5h0Z" fill="#fff"/>
  <g>
    <path d="M251,481.9v-.2.2h0Z" fill="#fff"/>
    <path d="M258.3,428c-8.8-7.2-10.7-3.5-20.7-2.1-2.5.4-5.3-.4-7.8.2-2.1.6-5.6,11.2-10.7,9.8l7-11c-12.8-1.8-23.6-7.6-34.5-14l-2.4,8.8c11.4,5.2,16.1,15.7,19.3,27.2,1,1.2,11.4,1.9,14.3,2.7,17,4.7,21.4,17.8,28.1,32.1v-24.1c0-.7-2.2-4.4,2.5-3.5,1.3.3,2.5,14.7,2.6,19.5.1,4.8-1.8,9.1-.5,13.5,1.4,2.9,21.7,15.8,18.5,19-2,.4.2,1.5-4-1.5s-18-13.5-21.5-18.5,2.8-.6-8-18-34.2-21.9-50.4-9.6c-.7,1.6-1.8,2.1,2.5,2,4.3,0,10.8-3.3,16-3.5,3.5,0,10.3,0,9.5,5-9.1-.8-22.4-2.1-28,6.5,4,3.7,10.9-.2,14.5-.5s21.7-1.6,16,4h-18c-4.3,0-11.2,8-7,8h20c1.9.3,5,2,8.3,4.5,1.7,1.7,4.4,3.3,6.1,6.1,4.7,7.7,1.5,13.2,3.6,20.4,2,6.8,16.8,20.3,23.7,22.3,49.7,11.5,21.1-90.7,1-105.3h0Z" fill="#fff"/>
  </g>
  <path d="M508.8,223.1c1,3.9,9.8,27.9,11.7,28.8s2.3.4,2.5-.6l16.9-25,11,2.6c-3.8,12.5-9,23.2-10,36.5-1.6,22.4,1.2,46.4,0,69-.6,2.9-5.6,3.9-8,6-5,4.2-8.6,12.2-6,18.5-14.9-.8-25.2,7.9-30.3,21.2-1.5,4,.3,8-6.7,7.8,1.8-5.6.9-12.8,2.2-18.3s4.1-5.6,4.7-10.3-1.8-9.5-1.6-12.8,3.3-6,3.7-10.2c.7-6.1,0-10-4.8-14,6.4-6.3,2.1-13.4,1.9-20s1-18.5,0-25.9-28.3-33.8-26.9-35.6c2.8.2,8.2-3.4,10.3-2.9s12.1,11.5,14.7,13.4,4.9,2.4,4.8-1.7-2.4-13.5-2.8-19.3,0-6.3,0-9.5l12.8,2.2h-.1ZM508,302.4c1.2-4.2-.9-13.2,0-18-.7-.7-1.3-1.8-2.5-1.5-3.1.7-3.2,18.7-1.5,22,1,.7,3.8-1.8,4-2.5ZM520,305.9c-.8.1-2.7-.2-3,0-1.3,1.1-1.6,19.2,0,21.5s3,1,3,0v-21.5Z" fill="#fff"/>
  <path d="M301,424.9c-.5-4.3-3.9-8.3-4-12.5s2.5-9.1,3-13c2.2-18-7-32-8.9-49.3,6.2-3.7,11.6-1.3,17.5,1.8,9.9-20.5,32.3-24.1,49-8.9.9,22.3-2.8,45.5,18.5,59.5-5.4,3.6-11.4,6.3-16.5,10.5-2.6,2.2-9.4,11-10.5,11.5-3.3,1.5-9.3,0-13,.5-.4-3.8.7-7.2,1.7-10.8s4.5-8.7,5.1-11-.3-3.3-1.3-3.3c-3.8,0-11,19.8-10,24l-3.5,1c.8-4.6-1-9.1-1.1-13.5s2.8-17.8-.4-18.5-1.7.8-2.5,1.5v30.5c-5.5.7-4.5-6.7-5.9-10.6s-5.4-12.6-7-10.4l6,21h-16.2Z" fill="#fff"/>
  <path d="M444,262.9c-8.6-3.2-17.8-4.6-26.5-1s-5.4,4-6.8,3.9-3.4-2.1-5.4-2.6c-12.7-2.8-19,.6-29.7,6.8-25.3-2.3-55.3,2.8-80.1,0-10.9-1.2-6.8-11.6,1.5-14.5,6-2.1,11.9-1.6,18-.5-5.9-16.7,11.5-29.5,25.5-19,5.5-15.6,19.8-24.6,36.3-19.3,10,3.2,13.2,10.1,16.7,19.3,7.8-5.7,18.6-6,23.9,3s.9,6.4,3.6,8.5c11.8-2.2,24.6,1.1,23,15.4h0Z" fill="#fff"/>
  <g>
    <g>
      <path d="M357,49.9h0c-1.2.5-.7.2,0,0Z" fill="#fff"/>
      <path d="M357,49.9l.4.7c1.5-1.1.5-.9-.4-.7Z" fill="#fff"/>
      <g>
        <path d="M165,5.3h0s0,0,0,0h0Z" fill="#fff"/>
        <g>
          <g>
            <path d="M452.4,239.7c.6-.4-.4.2-.8.4.5,0,.8-.1.8-.4Z" fill="#fff"/>
            <g>
              <path d="M557.3,121.8c-1.9.8-5.1,4.8-7.8,4.2s-.8,1.1-.5-7.5c.3-8.6,0-16.5-6.3-23.1h0s0,0,0,0c0,0,0,0,0,0h0c-13.9-14.3-42.9-9.1-51.7,9-1.5,3,1.3,13.6-6.2,7.6s-9.6-8.3-23.3-3.1c-13.7,5.2-20,19.2-16.3,33.2-9.2-1.2-3.6-9.6-23.9,2.6-20.3,12.2-19,41.2,2,51.8,2.5,1.3,9.4,2.5,10.4,4.6-17.5,34.4,41.4,51.1,54.6,22.7,5-10.9-4.9-8.7-4.2-18.7,1.1-.3,1.4-.7,1.4-.9,0,.5.8,2.5,5.2,7.8,8.8,10.8,27.2,9.1,36.4-.4,1.9-2,2.3-6,5-5.5.5,14.7,12.5,21.1,26.4,18.9,4.4-.7,7-5.1,11.6-4.9.3,6.6-7.9,6.4-12.7,8.8-4.8,2.4-8.4,21-11.3,26.2,9.7,3.2,24-1.4,24-13,3.9-.5,18.4,1.2,20.5-2l.2-111.3c-6.5-11.6-22.2-11.6-33.4-6.9Z" fill="#fff"/>
              <path d="M477.4,60c-17-1.5-21.7-15.1-5.8-22.9,6.8-3.3,13-3.5,20.4-3.1-.7-18.5,20-29.1,35-19l2-10h-68.5c-9.1,13.8-25.5,21.3-41.5,15-2.9,17.2-22.6,29.8-39.5,29-7.5-.3-13.4-4.1-20.5-5l30,60-3.8-1.6-28.3-52.3c-5.1,2-4.6,4.2-11.5,7.9-19.9,10.5-49,5.3-62.5-14.2l-1.5-.4c-5.4,5.8-15.3,11.3-23.2,12.5-3.5.5-9.7-.3-11.8,1.2l-31.7,58.3-5.3,4.7c-1.3-.6,0-2.7.3-3.7,6.3-16.3,20.6-35.8,28.7-52.3.8-1.5,4.5-7.9,3.5-9-13-1.8-26.8-11.1-28-25-21.3,6.2-48.6-.8-53-25,0,0-78.2,0-78.2,0,9.5,7,13.1,17.3,12,29,13.9-7.3,34-2.6,32,16,10.5-6.6,33.1,2.4,26.5,17-1.4,3-10.1,6-13,6H4.8v64c13.5-14.1,37.9-19,53-5,12.6-43.9,81.2-36.1,86,9,22.1-10,48.1,4.4,45,30,22.2-3.4,37.8,20,31.7,40.2-3.4,11.5-14,21.4-25.7,23.8-.4.4,4.4,8.6,4.8,10.7,4.1,22-24.7,42.1-44.8,35.3-2.6,17.2-22.5,24.3-37.5,17.2-5.5.8-2.9,34.2-3.5,39.8,10-.9,22.2,1,29.6,8.4,2,1.9,2.7,5.9,4.4,7.6,1.7,1.7,1.7-.3,2-1.5,4.9-20.9,4.8-34,21.4-50.2,44-42.8,115.3-17.9,119.7,43.7,6-1.7,11-.8,16.9,1,6.5-14.5,23.8-20.2,38.6-15,5,1.7,7.9,5,12.5,7,.4-8.6-8.7-8.7-9.9-18.6-1-8.8,4.8-12.1,4.9-14.9,0-1.7-1.7-4.1-1.9-6.2-.7-7.1,7.5-15.3,12.3-17.6s9.5-.6,9.7-7.8h-80.5c-2.3,0-8-4.5-8.5-7.6-1.7-12.2,15.5-17.3,25-16.4-2-14.7,15.3-26,28.3-20.1,12.1-23.6,46.5-26.3,56.7,0,12-5.1,26.5,0,28,14,10.4-3.2,24.4,4.2,25,15.6.2,3.9-2.6,6.7,2.4,9.5,3.1,1.8,10.6.7,15.9,2.1,5.3,1.4,10.4,4.5,14.4,10.6,4,6.1,2.2,12.6,11.2,14.3v-21.5c0-2.3-27.2-32.9-29.6-33.4-.1,0-10.7-1-10.8-1,0,0,0,0,.1,0-1.8,0-6.1-1.5-6.2-1.5-1.5-.4-10.7-4.2-16.5-14.5-3.5-6.3-4.3-13.7,0-20.6-7.7-4.3-13.8-6.3-19.4-13.6-18-23.6,1.6-56.3,30.4-52.9-2.6-23.3,23.9-42.2,44.5-30.1,14.4-35.3,72.4-30.1,68.5,12.1,12.8-5.7,26.8-6.1,38,3v-63c-36.1-.4-77.7,4-113.5,1ZM274.6,65.1h0c0,.1-29.6,95-29.6,95h-3l.5-6.1,28.5-90.3c.7-1.7,4.2-.4,3.6,1.4ZM298,180.1h-3c-.2-19.9,2.6-39.7,4-59.5.9-13.3.2-28,2-41,.4-2.6.5-8.8,4-8.5-1.6,36.3-3.6,72.8-7,109ZM358.5,159.1l-26.3-89.7.8-1.8,3-.5,25.7,88.8c2.2,4.7-.4,9.6-3.2,3.2Z" fill="#fff"/>
            </g>
          </g>
          <path d="M199.5,29.2c8.2-.2,14.6-5.2,21.5-6,.2,2.6-2.4,2.6-3,5.2-1.8,8.2,8.7,17.6,15.3,20.3,16.8,6.9,31.8,3.8,43.9-6.3,2.6-2.2,2.9-5.9,7-5.4.6,0,7.2,11.3,7.5,11.7,10.5,16.5,55.2,16.1,63.7-5.1.8-2,.6-9.2,4.7-5.8,11.4,9.5,30.9,8.8,42.8-.3,3.6-2.7,11.1-11.1,11.9-15.5.5-2.6-1.6-7.5.7-8,.5,0,7,3.5,10.1,3.9,12.6,1.6,22.9-2.2,30.2-12.6H165c1.8,14.2,21.1,24.7,34.5,23.9Z" fill="#fff"/>
        </g>
      </g>
    </g>
    <path d="M582,18.9l-2.7-14-45.7.2c-3.2,1.1-2.6,12.7-2.6,15.9-4.7-.7-7.4-4.9-12.7-5.8-9.6-1.6-20.7,4.2-22.2,14.3-.5,3.2.7,4.9.7,7.2.2,5.8-5.7,1.6-9.3,1.2-7-.7-24.6,4-21.4,13.3.5,1.4,6.9,4.4,8.3,4.7h116.5V13.9c-3.9.2-4.7,5.9-9,5h0Z" fill="#fff"/>
  </g>
  <path d="M543.5,403.9c-8-13.8-22.2-20.5-38-20-1.8,0-6,2.5-5.5-.5,1.5-9.3,10.8-19.8,20.5-20.5,4.1-.3,5.3,1,8.4,1.6s1.6.8,2.6-.6c1.5-2.4-4.2-10.1,1-18s10.6-7,16.9-6,7.1,5.2,11.6,4.9c-3.2-13.1,5.9-27.8,20.3-20.8s5.7,9.6,7,10.6,2.7,0,2.7.2v94h-9l7.8-12.7c2.5-16.8-14-8.3-22.8-5.3,8.8-8.5,16.4-37.8-5-27.5" fill="#fff"/>
  <path d="M364,473.9l-8,5.5c-.4,2.5,1.8,1.5,3.2,1.2,3.8-.6,27.1-11.2,30.5-13.5,6-4.3,8.9-14.3,19.4-19.6s18.9-6.4,21.5-2.7-6.3,4.3-9,5.1-17.7,5.4-12.6,8.5c8.7-3.1,20.7-9.6,29-3-2.6,5.1-28.4,3.5-26,13.5,3.8-1.7,26.1-11.6,25.8-3.7s-14.7,7.4-18.1,10.6-4.9,10.2-10.7,14.6-8.3,2.8-10.6,4.4-6.9,8.3-10.2,11c-13,10.6-42.2,24.2-52.6,4s-4.3-26.5-1.4-31.2,10.9-4.7,12.3-4.7h17.5Z" fill="#fff"/>
  <path d="M5,327.9c5.6,3.8,9.7,10.2,10,17,4.5-.5,7-4.5,11.9-5.6,8.2-1.7,21.2,3,22.1,12,1.7,16.8-1.8,37.2-3.1,54.1s-.3,16.4-1,24.5l-6-9.5c-9.9-12.8-28.4-17.8-26,4.5h-7.9s0-97,0-97Z" fill="#fff"/>
  <g>
    <path d="M400.8,417.6c-.9-1.5-1.8-5.3-2-5.5h0c.3.2,1,1.3-7-1.5-9.8-3.4-9.5-6.8-20.1-1.5-23.2,11.5-31,40.6-36.7,63.8,6.2-.7,13.4-2.9,19.5-3,5.5,0,16,3.3,19.5.5s1.7-12.5,2-16,.5-13.9,5-11c-.4,7-1.9,15-1,22,.2,1.2-6.2,3.8,1.5,1.5s7.2-6.4,11.5-11.5,10.8-9.4,16.8-12.2c7-3.2,9.4-.2,10.2-11.2-8.5-1.7-14.7-7-19.1-14.4h0Z" fill="#fff"/>
    <path d="M398.7,412.1h0s-.1,0,0,0Z" fill="#fff"/>
  </g>
  <path d="M400,518.9c-28.3-.6-41.7,35.1-24.5,56.1l10.5,7.9c-9.3.5-17.6,6.5-22.7,14.1-4.5-1-20.8-4.4-22.1-8.8-2.7-8.8,13.4-54,18.3-64.3,12.7-3,24.2-9.5,34-18l6.5,13h0Z" fill="#fff"/>
  <path d="M591,271.9v54.5c0,.2-1.6,1.8-2,1.5-7.6-18-34.5-7.4-32,11l-12-3c.9-11.4-1.2-24.4,0-35.6,1-10.3,12.6-9,20.1-6.9,2.3-1.7,1.9-4.6,3.2-6.9,4.8-8.5,12.8-14.2,22.8-14.7h0Z" fill="#fff"/>
  <path d="M5,291.9c3.4,2.2,6.3-.3,9.9.1,4.4,14.6,20.2,15.4,33,13,0,1.9,2.1,6.1,2.1,7.4v30.5c-3.9-1.4-6.1-4.7-10.3-6.2-8.1-2.9-13.8-1.6-21.1,2.2-3.3-6.3-6.3-12.5-13.6-15v-32Z" fill="#fff"/>
  <path d="M591,243.9v24c-11.4,1.5-24.7,7.9-27,19.9-6.7,0-13.1-.8-19,3.1v-30.5c0-2.8,6.3-.6,7.5-.7,9.8-.6,17.4-5.4,21.4-14.4,6,1.4,11.3.2,17.1-1.4Z" fill="#fff"/>
  <path d="M126,401.9h-9l-2-60c10.8-.9,21.8.5,28.4,10.1,12.1,17.4-21,22.1-17.4,49.9Z" fill="#fff"/>
  <path d="M128,585.9c-4.2-1.1-8.9-1.9-13,0-.6-12.8-15.3-27.6-9.5-40s16.5,5,18.9,11.1,3.6,11.9,3.6,13.4v15.5Z" fill="#fff"/>
  <path d="M43,4.9c-1.2,1.9-3.3,2.4-5,4.5-4.1,5.1-5.8,10.9-5,17.5-7-4.1-14.8-3.6-22-.5s-3.4,3.4-6,3.5V4.9h38Z" fill="#fff"/>
  <g>
    <path d="M571.9,386s0,0,0,0c0,0,0,0,0,0h0Z" fill="#fff"/>
    <path d="M565.3,416.7c-1.3.7-6.3,6.7-7.3,2.7-.6-2.4,19.3-25.9,13.9-33.3-9.3-4.2-25.9,16.4-25.6,23.1,0,2.6,2.1,5.9,2.5,8.5.9,6.4-.6,11.4-2.8,17.3,7.6-2.2,15.4-.8,23,.5,16.6-11.6,28.5-38.7-3.7-18.8Z" fill="#fff"/>
    <path d="M578.7,432.2c-.3,0-5.4,3.5-5.7,4.3-.2.6-.6.6,1.7,3.6,1.6,1.9,3.2,3.4,3.7,3.9,2.7,3.2,3.5,7.5,3.9,9.8,1.2,7.6-1.3,15.2-6.3,22.1,5.6-.6,10.1.5,15,3v-46.9c-3.6.5-9-.8-12.3.2Z" fill="#fff"/>
  </g>
  <path d="M403,412.9h22.5c3.3,0,15.1-3.9,18.5-5.5s8.7-5.5,12.5-8.5c1,2.2-.2,10.2-2.1,10.9-15-.6-24.9,7.4-33,19-9.1-2.3-15-7.1-18.4-15.9Z" fill="#fff"/>
  <path d="M522,245.9l-8.9-22.4c6.3-2.8,12-4.3,16.9-9.6-.4,4.2,6.7,7,5.9,10.3l-13.9,21.7Z" fill="#fff"/>
  <path d="M488,374.9c-1.5,4.9-.4,11.7-2.3,16.2s-6.2,6.1-7.7,9.3l-18-6c0-.6,7.9-4.8,9.4-6.6s2.2-5.6,3.6-6.4,3.8-.5,5.7-1.3c3.2-1.4,6.3-3.3,9.3-5.2Z" fill="#fff"/>
  <path d="M102,277.9c0,.1-2.1.4-2-.5l-1-20.8,11-8.7,5.7,10.5-13.7,19.5h0Z" fill="#fff"/>
  <path d="M476,403.9l-4.5,12c-3.9-2.5-7.7-4.9-12.5-5l2-12,15,5Z" fill="#fff"/>
  <path d="M361,599.9c-3.3,5.8-4.8,12.4-5.5,19-6.1-5.6-7.1-13.1-6.5-21l12,2Z" fill="#fff"/>
  <path d="M494,245.9c-5.1-2.1-7.7-7.8-12-10l9.5-10,2.5,20Z" fill="#fff"/>
  <path d="M5,439.9v-11c9.7-1.4,11.2,1.2,16,8.5-6.5-2-11.1-3.1-16,2.5Z" fill="#fff"/>
  <polygon points="239 525.9 226 524.9 231 514.9 239 525.9" fill="#fff"/>
  <path d="M591,4.9c1.1,4.6-2.7,5.5-6,7l-1-7s7,0,7,0Z" fill="#fff"/>
  <path d="M66,776.9l-2.8-1.7c.3-11.7-8.1-47.1-20.1-50.9s-5.4,10.1-5,14c1.9,14.9,13.1,28,14.9,42.6-4.5-2.6-5.4-8.8-8.6-12.9s-10.8-9.8-15.8-12.2-16.3-7.6-11.7,2.8,23.3,20.6,23,23.9c-.7.7-1.2,1.8-2.5,1.5s-18.6-16.3-20.5-18.5c-18.5-22.7,13.3-17.7,23-6.5-1.1-7.5-4.9-14.1-5.7-21.8s-.7-18.2,8.1-17.2c9.3,1,19.1,23.4,20.6,32,2.3,1.8,9.1-30.3,22-24.5,8.6,3.9.5,27.4-1,34.5,4.5-5.3,25.9-17.6,25.7-3.7s-12,20.4-17.7,24.1c-1.9,1.2-3.2,2.5-4.9,0,4.8-5.8,12.8-11,16.4-17.6,8.5-15.4-8.4-7.7-14.9-1.9s-7.1,9.7-11,14.9c-1.8-1.2-1.6-2.4-1.5-4.4.7-8.3,7-19.7,7.9-29.1,2.4-23.8-8.9-11.2-13.8,1.2s-4.2,12.6-4.2,14.8v16.5h0Z"/>
  <path d="M532.3,745c-7.7,4.9-3.9,19.8-1.3,27.4s4.8,6.9,4,11.5c-1.2,1.4-9-7.9-10.6-8.8s-8.6-3.2-9.4-2.7c-5.7,7.5,7.8,14.4,9,17.1,2.9,6.5-7.6-1.5-9-3-12.3-13.4-3.7-21.8,12-15-8-17.3,1-45.4,17.5-18.5,3.5-7.7,11-27.9,21.9-26.7s2.1,21.8.6,27.7c1,1.1,12.5-9.2,18-4.5s1,8.6-.5,12.4-13.2,24.9-16,25c-1.3-1.1-1.8-1.5-1.3-3.3,1.2-4.7,10.5-15.6,13-22s2.3-6,1.8-9.7c-9,0-16.7,8.6-20.2,16.3s-2.7,14.3-7.8,15.7c-3.2-3.7,15-40.6,13.6-50.1s-12.2,3.8-14.3,7.8c-2.8,5.4-7.3,20.9-7.3,26.7s.7,12.1,0,15h0c-.2.9-1.6,2.1-2.5.6-4.7-7.6,4.3-22.3-4.5-33.5"/>
  <path d="M231.5,693.9c7-1.5-5,12.6-5.9,14.1-2.6,4.2-5,8.5-7.1,12.9l-9,37c-2,0-1.6-7-1.5-8.5.9-18.8,10.3-42.1,23.5-55.5Z"/>
  <path d="M536,583.9c.6-.4,1.9,1.3,2,2.5s-13.1,21.4-15.2,25.9c-4.6,10-6.5,21-10.5,30.5-.5,1.2-.8,3.6-2.8,3.2-2.1-1.4-1.3-2.2-1.1-4,.6-5.6,5.7-19.3,8.1-25,5-11.9,12.5-22.4,19.5-33h0Z"/>
  <path d="M487,643.9c-4-9.6-7.7-19.6-12.7-28.8-4.4-8.1-10.7-14.8-14.3-23.1,2.9-.5,4.3,1.7,6,3.5,10.8,11.9,17.9,31.4,23.9,46.2l-2.8,2.3h-.1Z"/>
  <path d="M233,757.9l-2.5-1c-1.7-2.5,9.3-16.9,11.5-19.5s17.3-17.4,21.5-16.5,1.7,1.3.5,2.5c-2.8,3-8.7,6-12,9-7.8,6.9-14.6,16-19,25.5Z"/>
  <path d="M541.4,642.3c-2.6,2.7-5,7.3-8.9,8.6-1.6-.3-1.2-1.4-.7-2.7,2-4.5,16.6-18.7,21-22.3s9.2-8.6,8.7-2c-7.2,5.6-13.8,11.8-20.1,18.3h0Z"/>
  <path d="M465.7,648.2c1.4,1.4,8.5,8.7,3,7.5s-11.8-11.4-15.2-13.8-13-6.2-12.5-8.5c1.1-1.4,1.5-1.6,3.3-1.4,3.9.6,18.1,12.8,21.4,16.2h0Z"/>
  <path d="M319,757.9c-.7,5.5-4.4,10.2-5.7,15.8s-1.6,8-1.3,12.2h-3c-1.5-6.5.3-14.4,2.9-20.5s3.3-7.8,7-7.5h.1Z"/>
  <path d="M304,652.9c-2,.4-2.4-.9-3.1-2.4-1.5-3.4-2.2-8.1-3.9-12.1s-5.6-8.9-5-9.5c7.7-2.9,13.8,21.8,12,24Z"/>
  <path d="M304,788.9c-3.8-2.8-3.5-8.8-5.3-13.2s-5.9-7.1-6.7-11.8c9.2,1.8,13.8,16.9,12,25Z"/>
  <path d="M303,552.9h3c-.8,1.9,1,4.6,1,5.5v15c-1.6,2-2.5,2-4,0v-20.5Z"/>
  <path d="M292.4,559.5c4.5,4.2,6.6,9.2,7.6,15.4-5.4.7-4.9-5.4-6.8-8.7s-4.2-5.5-6.2-7.8c3.2-3.6,3.7-.4,5.4,1.1Z"/>
  <path d="M331,767.9l-8.1,16.3-2.8,2.6c-3.4-2.8,4.8-19.9,11-19h-.1Z"/>
  <path d="M313,629.9c-1.7,6.4-2.2,12.9-3,19.5s-.5,2.9-2,1.5c-2.8-2.9-.1-25.5,5-21Z"/>
  <path d="M319,556.9c.6.7-5.9,16.1-6.9,17.4s-1.9.5-3.1.6c-1.5-2.9,7.5-20.7,10-18Z"/>
  <g>
    <g>
      <path d="M544.9,686c-11.5-4.9-19.3,8.5-24.4,16.9-1-7-11.1-19.4-18.8-16.8-1.5.7-2.6,2.8-2.6,4.4,0,3,9.1,18.8,11.9,21.5,1.9-7.8-5-13.2-7.2-19.3-.4-1.1-1.1-2.3.7-2.7,8.1-1.7,14.8,21,17,21,4.8-9.4,7.3-20.1,19-23,1.5,1.2,1.6,1.2,1,3-1.8,5.8-10.3,13.7-11.1,19-.2,1.5.8,2.1,2.1,2.1,2.7-5.2,15.9-20.2,12.4-25.9v-.2Z"/>
      <path d="M487.9,736.5c-11.9-8.4-17.6-13.3-28.4-22.6-11.1-9.4-24.2-16.9-35-26-9.3-7.9-15-19.1-29-20-10.2-.7-19.9,5.9-24.2,14.9-.8,1.7-.6,4.6-1.6,5.9-.7,1-3.2,1.4-4.4,2.6-2.9,3-15.2,18.9-10.4,22.2,6.8,2,11.8-5.2,19.1-2.1,4.9,18.1,14.8,31.2,31.5,39.5-1,15.3-10.1,6.5-18.6,12.5-.4,2.3.8,1.4,2.2,1.2,2.4-.2,5-1.4,7.7-.7-.9,1.9-4.4,1.6-6.3,2.9-.6.4-1.9,2.9-1.7,3,6.7,0,11.8-5.5,19-4v-3l-3-.5,5.4-10.2,13.4,4.3-1,9.3c-4.7,1-14.3,1.9-12.9,8.1l6-2.5-1,4.5c1.1,1.2,6.9-4.7,8.2-5.2,2.9-1.2,9.7.2,7.1-4.8h-3.4l1.2-9.8c9.6-.7,18.2-2.4,27.4-5.1,2.7-.8,6-3.9,8.5-2.6.9.5,5.8,7.2,8,9.1,4.4,3.8,8.9,7,15,6.1,6.2-.9,4.5-3.9,6.2-5.4,1.4-1.2,7.6-1.4,8.6-4.9,1.9-6.4-9.3-13.4-13.9-16.7h.3,0ZM359,708.9c1-6.9,6.6-12.3,11.5-17,2.8,4.6,6.1,9.4,6.5,15-6.6-1.2-11.7.2-18,2ZM488,752.9v6.5c-10.7,2.1-18.2-8.3-22.6-16.6-34.3,17.7-77.5,9.8-87.4-31.5,0-.5,1.8-.4,2.3-1.7,3.6-8.6-9.1-16.4-5.5-25.5,1.6-4.1,8.1-10.5,12.4-11.6,18.7-4.9,25.6,10.7,37.3,20.3,13.9,11.3,32.6,19.7,42.5,35.5-5.9,5.5-11.1-1.1-15.6-4.9-1.5-1.3-2.7-3.7-5-4.5l-2.4,2.4,14,12c-6,4-12.6.7-17.9-3.1-2.8-2-5.7-8-9.1-3.9,4.3,4,7.8,9.4,14,10.5-.2,1.8-5.3,1.1-6.4.9-8.1-1.5-17.3-7.1-22.5-13.5-1-1.2-6.3-11.4-8-9.5,3,20,29,30.8,47,24.5,4.7-1.7,14-9,18-8.1,2.6.6,15.9,10.3,18.5,12.6,7.8,6.9,9.9,11.4-3.5,9v.2h0Z"/>
    </g>
    <path d="M318.2,641.6c-.6,1-5.1,10.4-1.7,10.3,1.5,0,4.6-8.5,5.7-10.3,1.6-2.7,5.4-4,4.8-7.7-1.9-2-8.1,6.4-8.8,7.7Z"/>
  </g>
  <path d="M316,490.9c-1.2,4.2-2.2,8.7-3.8,12.7-1.5,3.7-.8,3.1-2.6,3.3-2,.3.2-8.8.7-10.3.9-2.7,2.2-6.5,5.8-5.7h-.1Z"/>
  <path d="M302.8,494.1c.8.5,4.1,9.1,3.2,10.8l-3.1-.6c-.4-4.3-3.3-6.7-3.8-8.4-.8-2.9,2.9-2.3,3.7-1.8h0Z"/>
  <path d="M305,70.9c-1.6,36.4-3.6,72.8-7,109h-3c-.2-19.9,2.6-39.7,4-59.5.9-13.2.2-28,2-41s.4-8.8,4-8.5Z"/>
  <path d="M494,515.9c1.4.3,1.3.2,2.1-.6,2.9-3,5.7-9.8,10.2-11.6,10.6-4.3,13.9,5.2,9.9,13.9-4,8.7-11.4,16.1-14.2,13.3-.2-4.3,4.6-6.5,7-9.5,10-13,3-21.6-7.8-6.8-10.8,14.8-6.3,13-8.2,11.3-1.3-8.2-4.7-20.7-12.3-25.2s-10.3-4.8-11.3.1c-1.7,8.6,12.9,23.2,12.6,24.6-.8,3.9-7.4-1.4-9-2-3.1-1.1-15.1-3.7-15,1,2.3,6.3,9.2,7.4,13.8,10.3s2.7,1.2,2.3,3.2c-20.2-.5-30.9-26.2-1-18.5-22.5-33.5,16.5-31.2,21-3.5h-.1Z"/>
  <path d="M93,342.4c-6.4,4.4-3.9-5.8-4-9s-1-20,1.5-20.5,1.7.8,2.5,1.5v28Z"/>
  <path d="M73,356.4c1.5-2,2.4-2,4,0v24c0,.3-2,1.8-2.5,2.5-.4-.5-1.5-1.2-1.5-1.5v-25Z"/>
  <path d="M77,308.9h-3c-.8-6.9-.2-14.1,1-21,6.6-1.1.8,17.1,2,21Z"/>
  <path d="M89,408.4c0-.2,2.3-2.5,2.5-2.5.4.5,1.5,1.2,1.5,1.5v16c-1.5,2-2.4,2-4,0,.7-4.1-1-11.5,0-15Z"/>
  <path d="M141,625.9c-3.1.7-5.6,2.8-7,5.5,3.1,2.2,6.4,4,6,8.5-3.2.7-3.9-2.5-6.5-3-5-1-7,1.7-10,2-8.3.6,3-8,7.6-6l-3-10c4.8,1,6.2,3.6,10.5-.8l2.5,3.8h-.1Z"/>
  <path d="M127,610.9c3.8,3.8-13,9-14,4.5s5.8-2.2,7.4-2.5,5.3-3.2,6.5-1.9h0Z"/>
  <path d="M147,617.9c-4.3.5-9.2.2-10-5l9,1.5,1,3.5Z"/>
  <path d="M387.2,390.1c-2.3-7.7,6.5-11.3,12.6-12,6.6-.8,24.9,3.6,20.8,12.7-3.4,7.5-13.7,1.1-19.1,1M416,390.9c1.5-7.7-8.5-9.4-14.5-9s-8.7,1.8-11.5,5.5c0,2.5,13.2,1.3,15.5,1.5,3.6.3,6.7,2.7,10.5,2Z"/>
  <path d="M417.7,320c3-.8,4.1,1.6,6.3,2.4,3.4,1.2,17.3,4.5,16,9s-22.4-1-24.5-4.4-.4-6.2,2.2-6.9h0Z" display="none"/>
  <path d="M387.6,318.3c6-.2,5.5,6.5,0,9.1s-18.8,3.5-19.8.3c-1.5-4.8,7.5-4.4,9.9-5.3s7.5-4.1,10-4.2h-.1Z"/>
  <g>
    <path d="M402.4,365c-25.5,6.3.5-20.2-3.4-24.1h0c-1.7,0-2.4-.3-3.5,1.1-.6.7-7.8,13.9-8.3,17.7s1.5,9.1,5.5,10,15.6.2,9.7-4.7h0Z"/>
    <path d="M422.7,339.1c-6.4,2-4.5,16.3,2.7,15.6,7.2-.7,9.6-19.4-2.7-15.6Z"/>
  </g>
  <path d="M477.9,361.8l-3.9-1.4c2.4-4.3,8-10.5,13-6-2.7,3.5-8.1,2.4-9.1,7.4Z"/>
  <path d="M22,497.9c0-6.4-4.8-9.9-7.1-14.5s-1.3-2.3.6-2.5c4.2-.6,13.8,16.3,6.5,17Z"/>
  <path d="M27,495.9c-1.1-2.8,1.2-13.9,4.5-14s-.4,9.6-1,11-1.4,3.3-3.5,3Z"/>
  <path d="M41,486.9c1,3.6-2.1,4.4-3,5.7s-2.5,7.8-5,5.3,4-12.6,8-11Z"/>
  <path d="M241.8,391.1c16.3-1.3,21,14.8,9.6,15.4-2.5.1-5-1.7-7.8-1.6-5.1.1-16.3,7.8-16.7-2.6s8.4-10.8,14.9-11.3h0ZM230,403.9c7.4-.4,13.8-3.6,21.4-1.1,1.1-.5,1.6-1.2,1.7-2.4.7-8-24.6-7.3-23.1,3.5h0Z"/>
  <g>
    <path d="M374.7,336.1c-5.7,1.7-6.4,16.4,1.6,15.6,7.3-.8,7.9-18.4-1.6-15.6Z"/>
    <path d="M288.2,704.2h0c-15.2-6.8-44,11.9-55.1,22.6,1.1-14.5,24.5-39.5,22-52.4-.4-2.1-1.4-3.1-3.5-3.5-15.2-3-33.8,19.4-40.9,31-3.7,6-6.4,12.5-9.1,18.9-4.2-15-13.1-36.7-27.2-44.8-5.8-3.3-14.2-5.9-15.1,3.6-.9,9.6,21.5,45.3,19.8,47.3-7.6-6.7-23.6-19.9-34.3-16.8-4,1.2-4.3,6.3-3.2,9.8,1.6,5.4,20.5,22.1,25.5,28.5,2.4,3,9.4,15,11,16,.7.5,1,.7,2,.5,2.4-2.6-9.3-18.2-11.5-21-3.2-4.8-29.8-25.8-23.6-29.5,6.2-4.1,22.8,7.2,27.6,11.5,10.6,9.5,13.9,20.3,16.5,34,4.1-1.4,4.5,5.7,1.7-9.2s-10.4-30.6-16.6-44.4c-2.1-4.8-22.7-40.6-1.2-26.8,13.3,8.5,24.8,35.8,26.1,51,.7,8-3.6,18.1-2,26.9.6,3.9,3.5,3.3,4-.9,2.6-23.3,1.1-36.1,15.1-56.9,7.1-10.6,21-26,34.8-24.7,3.1,3.1-6.9,17.3-14.5,33s-15,33.6-16.5,51c2.8,3.3.6,2.3,6-13.5s23.8-29.4,39-35c5.5-2,20.3-7.1,23,0,0,3.8-34.9,37.2-40,44-.6.8-7.3,9.3-2.5,8.5.9,0,.6.4.6.5,0,0,.5-.7,2.3-2.6,4.3-4.5,5.6-7.8,13.1-15.9,7.5-8.1,16.9-15.6,24-24,3.7-4.4,11.2-12.9,2.7-16.7h0Z"/>
    <path d="M216.7,354.1c-4.6,1.6-4.3,18.4,4.6,15.7,5.5-1.7,6.6-19.5-4.6-15.7Z"/>
    <g>
      <path d="M117.1,516.8c.8-4.1-2.7-4.1-5.6-7.3s-15.8-19.4-5-18.6c9,.7,14.1,13.8,18,20.1,2.1,3.4,2.7,6.3,3.6-1.6.9-7.9,1.1-13.6,5.1-20.9,6.7-12.1,19.4-16,13.5,2.5,0,4-9.2,20.7-8.7,22.3s-2.4,3.7,2.5.5,11.8-12.5,18.5-7.5c-1.7,6.2-7,8.9-11,13-1.1,1-2.4,1.7-2,3.5,2.1,1.9,8.9-3.9,12-7.5s5-7.4,3.9-12.3h0v-.2c-5.7-2.6-11.4-.6-16.8,1.4,22.4-42.6-15.6-36.4-20-1.5l-9.5-11c-3.7-4.4-16.1-7.6-17.4-.2s11.2,23.6,18.8,25.3h0Z"/>
      <g>
        <path d="M274.6,65c.6-1.8-2.9-3.1-3.6-1.4l-28.5,90.3-.5,6h3l29.6-94.9Z"/>
        <path d="M284.3,37s0,0,0,0c0,0-.1,0,0,0Z"/>
      </g>
    </g>
    <path d="M247.8,360.5c-.8-.8-2.6-2.9-3.8-1.6h0c-3.2,3.2,13.9,15.3,6.9,20.4-2.4,1.7-7,.7-8.9,4,0,3.3,16.4,1.8,15-8.9-.3-2.3-7.2-12-9.1-13.9h0Z"/>
    <path d="M266.4,365.7c3.7-1.2,3.1-11.6,1.5-14.7-13.8-4.3-11.4,18-1.5,14.7Z"/>
    <path d="M221.3,341.8c-3.5,1.8-8.4,2.6-11.1,3.9s-4.7,5,1.8,3.8,21.4-6.8,21-14.6h0c-1.1-1.2-8.1,5.1-11.6,6.9h0Z"/>
  </g>
  <path d="M274,340.9v3c-6.4.7-14.2-1.2-19.4-5.1s-2-1.4-1.6-3.3c1-3.8,8.7,2.4,10.7,3.3,3.2,1.3,6.7,2.4,10.3,2.2h0Z"/>
  <g>
    <g>
      <path d="M361.7,155.7l-25.7-88.8-3,.5-.8,1.8,26.3,89.7c2.8,6.4,5.4,1.5,3.2-3.2Z"/>
      <path d="M0,0v843h596V0H0ZM591,4.9c1.1,4.5-2.7,5.5-6,7l-1-7h7ZM533.7,5.1l45.7-.2,2.7,14c4.2.9,5-4.8,9-5v42h-116.6c-1.5-.2-7.9-3.3-8.3-4.7-3.3-9.4,14.3-14.1,21.4-13.3,3.6.4,9.5,4.6,9.3-1.2,0-2.3-1.2-4.1-.7-7.2,1.5-10.1,12.6-15.9,22.2-14.3,5.3.9,8,5.1,12.7,5.8,0-3.1-.5-14.8,2.6-15.9ZM540.9,334.4h0c-.6,2.9-5.6,3.9-8,6-5,4.2-8.6,12.2-6,18.5-14.9-.8-25.2,7.9-30.3,21.2-1.5,4,.3,8-6.7,7.8,1.8-5.6.9-12.8,2.2-18.3.7-3.1,4.1-5.6,4.7-10.3.8-5.7-1.8-9.5-1.6-12.8,0-2.7,3.3-6,3.7-10.2.7-6.1,0-10-4.8-14,6.4-6.3,2.1-13.4,1.9-20-.3-8,1-18.5,0-25.9-1.3-8.8-27.6-33.1-26.9-35.5,2.8.1,8.1-3.4,10.2-2.9,1.4.4,12.1,11.5,14.7,13.4,2.8,2.1,4.9,2.4,4.8-1.7,0-5.3-2.4-13.5-2.8-19.3-.2-3.1,0-6.3,0-9.5l12.8,2.2c1,3.9,9.8,27.9,11.7,28.8.6.3,2.3.4,2.5-.6l16.9-25,11,2.6c-3.8,12.5-9,23.2-10,36.5-1.6,22.4,1.2,46.4,0,69ZM581.3,323.9c4.9,2.5,5.7,9.7,7,10.7.7.5,2.7,0,2.7.2v94h-9l7.8-12.7c2.5-16.8-14-8.3-22.8-5.3,8.8-8.5,16.4-37.8-5-27.5-8.8,4.2-13.1,13-18.5,20.5-8-13.8-22.2-20.5-38-20-1.8,0-6,2.5-5.5-.5,1.5-9.3,10.8-19.8,20.5-20.5,4.1-.3,5.3,1,8.4,1.6,1.2.2,1.6.8,2.6-.6,1.5-2.4-4.2-10.1,1-18,3.7-5.6,10.6-7,16.9-6,4.5.7,7.1,5.2,11.6,4.9-3.2-13.1,5.9-27.8,20.3-20.8ZM549.1,417.7h0c-.4-2.7-2.4-6-2.5-8.6-.3-6.7,16.4-27.4,25.7-23.1,5.5,7.3-14.5,31-13.9,33.4,1,4,6-2,7.3-2.7,32.2-19.9,20.3,7.2,3.7,18.8-7.6-1.3-15.4-2.7-23-.5,2.2-5.9,3.7-10.9,2.8-17.3ZM573,436.5c0-.3,5.4-4.2,5.7-4.3,3.3-1,8.7.3,12.3-.2v46.9c-4.9-2.5-9.4-3.6-15-3,7.1-9.9,9.2-21.3,2.4-31.9-1.4-2.2-6-5.6-5.4-7.5ZM460,394.4c0-.6,7.9-4.8,9.4-6.6,1.4-1.7,2.2-5.6,3.6-6.4,1.4-.8,3.8-.5,5.7-1.3,3.2-1.4,6.3-3.3,9.3-5.2-1.5,4.9-.4,11.7-2.3,16.2-1.1,2.8-6.2,6.1-7.7,9.3l-18-6ZM476,403.9l-4.5,12c-3.9-2.5-7.7-4.9-12.5-5l2-12,15,5ZM466.2,375c-5.4,42-83.7,46.8-100.2,10.7-6.5-14.2-4.5-53.3-.3-68.7.9-3.4,2.5-6.6,3.6-9.9,11.3,3.6,22.1,3.1,31.3-5,6.4,6,15.2,5.2,23,2.2,7.5,7.2,15.8,13.4,26.5,8.7-.5,6.6,0,11.3,3.8,16.8,1.2,1.8,4.2,3.2,4.7,5.3.5,2.2-.7,5-.2,8.2.5,3.3,3.1,10.2,7.2,9.8,13.8-19.7,38.6-5.6,22.6,15.4-5.6,7.4-13.1,11-22,6.5ZM409,458.4h0c8.7-3.1,20.7-9.6,29-3,0,2.5-15.4,4.8-18.2,5.8-3.8,1.3-8.9,3-7.8,7.7,3.8-1.7,26.1-11.6,25.8-3.7,0,3.9-14.7,7.4-18.1,10.6-3.7,3.5-4.9,10.2-10.7,14.6-4.2,3.2-8.3,2.8-10.6,4.4-2,1.4-6.9,8.3-10.2,11-13,10.6-42.2,24.2-52.6,4-2.8-5.5-4.3-26.5-1.4-31.2.8-1.4,10.9-4.7,12.3-4.7h17.5l-8,5.5c-.4,2.5,1.8,1.5,3.2,1.2,3.8-.6,27.1-11.2,30.5-13.5,6-4.3,8.9-14.3,19.4-19.6,3.7-1.9,18.9-6.4,21.5-2.7,3.1,4.5-6.3,4.3-9,5.1-1.3.4-17.7,5.4-12.6,8.5ZM341.2,588.2c-2.7-8.8,13.4-54,18.3-64.3,12.7-3,24.2-9.5,34-18l6.5,13c-28.3-.6-41.7,35.1-24.5,56.1l10.5,7.9c-9.3.5-17.6,6.5-22.7,14.1-4.5-1-20.8-4.4-22.1-8.8ZM361,599.9c-3.3,5.8-4.8,12.4-5.5,19-6.1-5.6-7.1-13.1-6.5-21l12,2ZM341.5,399.8h0c-3.8,0-11,19.8-10,24l-3.5,1c.8-4.6-1-9.1-1.1-13.5,0-3.3,2.8-17.8-.4-18.5-1.2-.3-1.7.8-2.5,1.5v30.5c-5.5.7-4.5-6.7-5.9-10.6-.4-1-5.4-12.6-7-10.4l6,21h-16c-.5-4.3-3.9-8.3-4-12.5-.2-4.4,2.5-9.1,3-13,2.2-18-7-32-8.9-49.3,6.2-3.7,11.6-1.3,17.5,1.8,9.9-20.5,32.3-24.1,49-8.9.9,22.3-2.8,45.5,18.5,59.5h-.2c-5.4,3.6-11.4,6.3-16.5,10.5-2.6,2.2-9.4,11-10.5,11.5-3.3,1.5-9.3,0-13,.5-.4-3.8.7-7.2,1.7-10.8,1.1-4,4.5-8.7,5.1-11,.3-1.2-.3-3.3-1.3-3.3ZM371.5,409.1h0c10.6-5.3,10.3-1.9,20.1,1.5,1.6.6,6.6,1.1,7,1.5.4.4,1.1,4,2,5.5,4.4,7.4,10.6,12.7,19.1,14.4-.8,11-3.2,8-10.2,11.2-6,2.8-12.5,7.1-16.8,12.2-4,4.8-3.8,9.2-11.5,11.5-1.9.6-1.3-.3-1.5-1.5-.9-7,.6-15,1-22-4.5-2.9-4.7,7.5-5,11-.3,4.6,1.5,13.2-2,16-3.7,2.9-14-.6-19.5-.5-6.1,0-13.3,2.3-19.5,3,5.7-23.2,13.5-52.3,36.7-63.8ZM403,412.9h22.5c3.3,0,15.1-3.9,18.5-5.5,4.4-2.1,8.7-5.5,12.5-8.5,1,2.2-.2,10.2-2.1,10.9-15-.6-24.9,7.4-33,19-9.1-2.3-15-7.1-18.4-15.9ZM340.5,235.9h0c5.5-15.6,19.8-24.6,36.3-19.3,10,3.2,13.2,10.1,16.7,19.3,7.8-5.7,18.6-6,23.9,3,1.9,3.2.9,6.4,3.6,8.5,11.8-2.2,24.6,1.1,23,15.4-8.6-3.2-17.8-4.6-26.5-1-2,.8-5.4,4-6.8,3.9-1.4-.1-3.4-2.1-5.4-2.6-12.7-2.8-19,.6-29.7,6.8-25.3-2.3-55.3,2.8-80.1,0-10.9-1.2-6.8-11.6,1.5-14.5,6-2.1,11.9-1.6,18-.5-5.9-16.7,11.5-29.5,25.5-19ZM423.3,196.4h0c-21-10.7-22.3-39.7-2-51.9,8.4-5,14.7-3.8,23.9-2.6-3.7-14,2.6-28,16.3-33.2,9.4-3.5,15.8-2.9,23.3,3.1s4.7-4.6,6.2-7.6c8.8-18.1,37.9-23.3,51.8-8.9,6.4,6.6,6.7,14.6,6.4,23.2,0,2-2.2,6.9.5,7.5,1.3.3,5.9-3.4,7.8-4.2,11.2-4.7,26.9-4.7,33.4,6.9l-.2,111.3c-2.1,3.2-16.6,1.5-20.5,2,0,11.6-14.3,16.2-24,13,2.9-5.2,6.5-23.8,11.3-26.2,3.9-2,13-2.2,12.7-8.8-4.6-.2-7.2,4.2-11.6,4.9-13.9,2.2-25.9-4.2-26.4-18.9-2.7-.5-3.1,3.5-5,5.5-9.2,9.5-27.6,11.2-36.4.4-2.3-2.8-2.8-7.8-6.6-6.9-.7,10,9.2,7.8,4.2,18.7-13.2,28.4-72.1,11.7-54.6-22.7-1-2.1-7.9-3.3-10.4-4.6ZM535.9,224.1l-13.9,21.7-8.9-22.4c6.3-2.8,12-4.3,16.9-9.6-.4,4.2,6.7,7,5.9,10.3ZM494,245.9c-5.1-2.1-7.7-7.8-12-10l9.5-10,2.5,20ZM545,260.4c0-2.8,6.3-.6,7.5-.7,9.8-.6,17.4-5.4,21.4-14.4,6,1.4,11.3.2,17.1-1.4v24c-11.4,1.5-24.7,7.9-27,19.9-6.7,0-13.1-.8-19,3.1v-30.5ZM455.8,5.2c-7.3,10.2-17.6,14.2-30.2,12.6-3.1-.4-9.6-4-10.1-3.9-2.3.4-.2,5.7-.7,8.3-.8,4.3-8.3,12.4-11.9,15.2-11.9,9.1-31.5,9.7-42.8.3-4.1-3.4-4,4.1-4.8,6.1-9.1,20.8-54.4,21.7-64.3,3.8-4.3-7.7-6.5-10.3-6.7-10.6-3.9-.8-4.7,3.4-7.3,5.6-12.1,10.1-28.7,12.6-43.3,6.3-6.6-2.9-17.2-12.3-15.7-20.2.5-2.6,3.2-2.9,3-5.5-7,1.1-14.3,5.6-21.5,6-13.3.8-32.8-9.7-34.5-24h290.8ZM5,4.9h38c-1.2,1.9-3.3,2.4-5,4.5-4.1,5.1-5.8,10.9-5,17.5-7-4.1-14.8-3.6-22-.5-2.4,1-3.4,3.4-6,3.5V4.9ZM5,36.5c0-.4,3.3-4.3,3.7-4.6,4.4-3.4,13.1-5.1,18.5-3.7,2.5.6,7.6,5.9,8.2,5.8,3.3-2.3.6-6,.7-8.5.6-10,6.7-19.3,17.3-20.5,16.6-2,35.2.8,37.4,20.6.4,3.3-2.1,14.8.6,15.4.7,0,7.3-5.2,10.2-5.8,6.6-1.3,18.1-.2,20.5,7.1,1.1,3.4,0,12.1,2.4,12.7,6.9-3.4,19.8-4.9,24.5,2.5,7.5,11.8-13.1,12.5-20.5,12.5H5v-33.5ZM4.9,73.1h0s135.5,0,135.5,0c2.9,0,11.6-3,13-6,6.6-14.6-16-23.6-26.5-17,2-18.6-18.1-23.3-32-16,1.1-11.7-2.5-22-12-29h78c4.4,24.2,31.7,31.2,53,25,1.2,13.9,15,23.2,28,25,1,1.1-2.7,7.5-3.5,9-8.1,16.5-22.4,36-28.7,52.3-.4,1-1.6,3.1-.3,3.7l5.3-4.7,31.7-58.3c2.1-1.9,8.3-.7,11.8-1.2,7.9-1.2,17.9-6.9,23.3-12.7l1.5.4c13.4,19.6,43.1,25.3,63.6,13.7,3.9-2.2,6.4-5.6,10.3-7.2l28.2,52.3,3.8,1.6-30-60c7.1.9,13,4.7,20.5,5,16.9.8,36.6-11.8,39.5-29,16,6.3,32.4-1.2,41.5-15h68.5l-2,10c-15-10.1-35.7.5-35,19-7.4-.4-13.6-.2-20.4,3.1-15.9,7.8-11.2,21.4,5.8,22.9,35.8,3,77.5-1.4,113.5-1v62.8c-11.2-8.9-25.1-8.5-37.8-2.9,3.9-42.2-54.1-47.4-68.5-12.1-20.6-12.1-47.1,6.8-44.5,30.1-28.8-3.4-48.4,29.3-30.4,52.9,5.6,7.3,11.7,9.3,19.4,13.6-8.6,13.8,3.7,30.2,16.8,35.3,6.2,2.4,11.1,1.3,16.5,2.5,2.4.5,29.7,31,29.7,33.3v21.5c-9-1.7-7.2-8.2-11.2-14.3-3-4.6-9.1-9.2-14.4-10.6-5-1.3-12.8-.3-15.9-2.1-5-2.8-2.2-5.6-2.4-9.5-.6-11.4-14.6-18.8-25-15.6-1.5-13.9-16-19.1-28-14-10.2-26.3-44.6-23.6-56.7,0-13-5.9-30.3,5.4-28.3,20.1-9.5-.9-26.7,4.2-25,16.4.5,3.1,6.2,7.6,8.5,7.6h80.5c-.2,7.2-4.9,5.5-9.7,7.8-6.1,2.9-13,10.5-12.3,17.6.2,2.1,2,4.5,1.9,6.2,0,2.8-5.9,6.1-4.9,14.9,1.2,9.9,10.3,10,9.9,18.6-4.6-2-7.5-5.3-12.5-7-14.8-5.2-32.1.5-38.6,15-5.9-1.8-10.9-2.7-16.9-1-4.4-61.6-75.7-86.5-119.7-43.7-16.6,16.2-16.5,29.3-21.4,50.2-.3,1.2-.3,3.2-2,1.5s-2.4-5.7-4.4-7.6c-7.4-7.4-19.6-9.3-29.6-8.4.6-5.6-2-39,3.5-39.8,15,7.1,34.9,0,37.5-17.2,20.1,6.8,48.9-13.3,44.8-35.3-.4-2.1-5.2-10.3-4.8-10.7,11.7-2.4,22.3-12.3,25.7-23.8,6.1-20.2-9.5-43.6-31.7-40.2,3.1-25.6-22.9-40-45-30-4.8-45.1-73.4-52.9-86-9-15.1-14-39.5-9.1-53,5v-64ZM233.5,511c-2-6.7,1.2-12.6-3.6-20.4-2-3.2-11-10.6-14.4-10.6h-20c-4.2,0,2.7-8,7-8h18c5.7-5.6-12.4-4.3-16-4-4.6.4-10.5,4.2-14.5.5,5.6-8.6,18.9-7.3,28-6.5.8-5-6-5.1-9.5-5-5.2.2-11.7,3.4-16,3.5-1.1,0-3.2-.4-2.5-2,16.2-12.3,39.6-7.8,50.4,9.6,3.5,5.7,4.5,13,8,18,2.5,3.5,17.3,15.5,21.5,18.5,1.4,1,2,1.9,4,1.5,3.2-3.2-17.1-16.1-18.5-19-1.3-4.5.6-8.7.5-13.5,0-2.9-1.3-19.2-2.6-19.5-4.7-.9-2.5,2.8-2.5,3.5v24.5c-6.7-14.4-11.1-27.6-28.2-32.3-2.9-.8-13.3-1.5-14.3-2.7-3.2-11.5-7.9-22-19.3-27.2l2.4-8.8c10.9,6.4,21.7,12.2,34.5,14l-6.9,10.8c5.1,1.4,8.6-9.2,10.7-9.8,2.5-.6,5.3.2,7.8-.2,10-1.4,11.9-5.1,20.7,2.1,20.1,14.6,48.7,116.8-1,105.3-6.9-2-21.7-15.5-23.7-22.3ZM239,525.9l-13-1,5-10,8,11ZM257.9,415.4c-21.3,12.2-44.8,5.1-63.9-7.7,1-6.2,4-11.8,3.9-18.3,0-8.7-9.4-39.8-3.9-45.3h.2c.9-.9,11.2-4.5,13.6-5.9,13-7,27.5-15.8,34.1-29.4.7-.4,11.2,7.2,12.9,8.6,3.8,3,9.3,7.6,12.7,10.8,1.9,1.9,7.2,7.3,8.1,9.4,4.9,25.8,9.7,62.5-17.7,77.8ZM126,401.9h-9l-2-60c10.8-.9,21.8.5,28.4,10.1,12.1,17.4-21,22-17.4,49.9ZM113.2,403.3h-.2c-8.3,5.4-15.2,13.7-16,24.1-.4,4.4,1,8.3.5,12.5l-14.5-1c-.5-2.8,2.2-4.7,2-7.4-.5-7.7-11.6-6.9-16-2.6,4-10.2,9.8-32.1-9-24.5l-11,14.5c.6-11.1,2.4-22.4,3-33.5,1.1-20.5,4.7-66.4-.5-84.5-1.8-6.1-17.9-36.4-17.4-38.4l9.9-3.1c6.5,6.9,12,18.2,18.6,24.5,1.8,1.7,3.6,2.6,5.5.4l1-27.3c8.3,2.6,17.5,2.8,26,1,.8.9.6,21.3,1,24.5.4,3.8,1.7,4.3,4.8,2.1l17.5-23.5,10.8,1.9c-4.2,10-10.6,19.9-14.5,30-10.8,30.8.5,77.3-1.5,110.3ZM13.2,588.2h0s-.1,0-.1,0c.3,2.5,2.7,4.7,1.9,7.7l-10-1v-152l8.4,10.6,10.6,7.3c3.3-3.8-13.6-12.7-14-18.6-.6-9.5,16.7,3.9,19.3,4.8,1.1.4,2.4,1,2.7-.7.6-3.8-16-16.1-15-28,1.1-13.1,17.6.6,20.7,6.4l8.9,16.1c3.6-9.5,3.9-19.9,10.5-28.5,7.5-9.7,13.9-8.5,11.9,4.9-.8,5.4-9.5,20.2-8.9,23,.8,4.1,5.3-3.3,6-4,2.2-2.3,13.5-12.4,14.9-4.8,1.2,6.3-12.6,13.7-16.3,18.4-10.5,13.4-9.2,33-.6,46.9-26.8,3-40.1,34.8-23,56-17.8,2.1-30.3,17.5-27.9,35.5ZM141.6,148.9c10.6-12.1,33.3-8.4,40.7,5.3,3.9,7.2,2.8,12.9,2.3,20.7,1.1,1.7,7.4-.7,9.9-.6,23.9.2,31.2,33.3,14.3,49.3-6.1,5.7-13.3,6.8-20.6,9.9-.4,1.6,4.3,4.8,5.4,6.6,9,14.4-5.4,32.2-19.2,36.6-8,2.6-14.1,1.7-22.2.3-1.5,16.9-18.2,23.5-33,17.9-1.6-2.3,12-26.7,13.5-31,5.4-2.5,14.5-3.2,16.5-10-3.9-.7-5.4,2.4-8.7,3.8-8.9,3.7-21,2.7-25.7-6.9-2-4.1-.6-7.5-3.1-10.9-9.7,17.6-37.1,21.6-51,7-2.3-2.4-2.7-6.9-6.5-7,1.2,16.1-26.6,23.4-36.9,14.4-1.7-1.5-9.7-16.3-9.1-7,.5,8.2,14.3,15.2,21.8,14.7l16.2,38.2c-9.8,6.1-27.9.4-28.1-12.3H5v-142.5c.7-3.7,7.4-10.3,10.7-12.3,9.8-6.1,28.4-7.5,37.7,0,2.6,2.1,2.9,6,7.6,4.8,6.8-43.1,71-41.2,79,1.6.6,3.2-1.2,7.2,1.6,9.4ZM115.7,258.4l-13.7,19.5s-2.1.4-2-.5l-1-20.8,11-8.7,5.7,10.5ZM65.9,255l-1.9,22.9c-1.9.5-1.9-.7-2.8-1.7-5-5.5-9.1-13.2-14.1-18.8l9.4-9.5h1.5c.8,3.1,5.1,5.6,7.9,7.1ZM14.9,291.9c4.4,14.7,20.2,15.5,33,13.1,0,1.9,2.1,6.1,2.1,7.4v30.5c-3.9-1.4-6.1-4.7-10.3-6.2-8.1-2.9-13.8-1.6-21.1,2.2-3.3-6.3-6.3-12.5-13.6-15v-32c3.4,2.2,6.3-.3,9.9,0ZM15,344.9c4.5-.5,7-4.5,11.9-5.6,8.2-1.7,21.2,3,22.1,12,1.7,16.8-1.8,37.2-3.1,54.1-.6,8-.3,16.4-1,24.5l-6-9.5c-9.9-12.8-28.4-17.8-26,4.5h-7.9v-97c5.6,3.8,9.7,10.2,10,17ZM21,437.4c-6.5-2-11.1-3.1-16,2.5v-11c9.7-1.4,11.2,1.2,16,8.5ZM590.4,836.7h0c0,0-585.4,0-585.4,0v-238c4.2-2.2,16.6,5.1,15.8-1.2-.6-4.7-3.9-9.2-3.9-15.3,0-11.3,10.6-23.6,21.8-25.3,2.9-.4,8.5,1.8,9.2-.7.6-2.2-5.3-7.4-6.8-10.2-11.7-21.5,4.1-48.2,28.8-45.3.3-4.7-3.8-7.3-5.8-11.7-11.5-26.3,9.9-59,38.3-42.3,3.3-.7-.9-9.2-1.2-11.8-4.4-31.8,35.7-42.6,47.2-13.2l2,14c2.4.4,6.8-7.6,8.6-9.4,17.4-16.7,45,.6,44.8,22.4-4.9,0-17.6,4-18,9.6-.2,2.3,2,3.4,2,4.9s-2.2,3.2-1.8,5.8c.6,4.1,4.6,3.4,4.9,4.3,1.3,4.9-2.9,9,6.5,10.3,9.2,1.3,16.1-2.7,24.3,3.7,9.6,7.4,8.9,21.5,3.5,31.4l-7.4,8.5c1.2,2.6,8.9.2,12.4.6,20.6,2.5,27.6,23.5,16,39.9-2.2,3.1-6.8,4.9-6.4,9.1,47-6.1,45.5,54.1,2,55-1.3-1.2,11.7-16.2,4.7-19.4-7.6-1.9-12.2,5.3-17.7,8.9,2-5.7,9.2-32.4-2.5-30.5-4.3.7-9.6,10-11.3,13.8-1,2.1-.6,5.4-2.3,6.2.8-6.9-2.2-30.6-9.7-32.8-5.7-1.7-10.3,5.8-10.3,10.3v16.5c-1.7-.4-1.7-2.9-3-4.5-4-4.9-15.7-13-17.8-2.8-1.7,8.2,13.7,34.2,11.7,37.2-10.4,2-21.3,4.3-31.9,3.1,7.3-18.8-.7-43.3-19.8-51.2,0-13.7-1-30.4-10.2-41.3-8.1-9.6-18.9-10.8-21,3.5-1,1.1-6.4-6.2-8.1-7.4-10.9-7.9-18.2-1-19,10.9-.7,10.6,4.1,21.4,10.2,29.9,1.3,1.8,10,10.4,9.8,11.1-4.7,4.5-9.3,9.8-10,16.5-27.8-6.3-52,11.6-57.9,38.6-7.8-1.2-12.2-2-16.9,5.1-8.3,12.6.7,29.4,15.4,30.4,2.4.2,5.7-1,6.9-.8.8.2,6.8,5.8,8.9,7,9.7,5.5,45.3,9.5,53.2,2.7,5-4.3-.4-11.9,4-12,.6,0,4.2,7.5,6.6,9.5,3.5,3,10,5.5,14.5,3.6,2.3-.9,3.2-3,4.4-3.6,3.3-1.5,9.8,0,10.8-6.2.9-5.8-6.1-8-6.8-11.8-1.4-7.3,2-16.9,2-24.5,4.3.2,8.1,0,12.2-1.3,3.4-1.1,6.2-4.3,8.3-4.7,4.2-.8,10.3.4,15,0,5.8-.5,15-3.3,20-3.1,1.9,0,1.3,3.2,4.5,2.1.7-.6-1.1-8.4-1.5-10-1.5-5.4-14.6-32-10.5-35,10.8,3,16.3,18,18.5,28,.9,4.1-.9,12,4.4,13,.8-18.3-7.7-38.6,0-56,10.8.9,9.2,35.3,9,43.5,0,3.7-2.9,8.4.5,11.4,3.6-2.8,2.5-8,3.6-12.4,1.9-7.5,4.7-16.7,8.7-23.3,1.8-3,3.4-6.4,7.2-5.3,1.8,15.2-5.7,28.7-9,43,1.7.2,2.2.2,3.5-1,1.4-1.3,4.5-7.8,6.7-10.3,1.8-2.1,12.7-12.6,14.8-10.6-.8,3.4-2.5,7.3-4.2,10.3-1.4,2.5-12.1,16.2-10.8,17.7,3.7.3,6.2-6.5,8.2-7.3,4.9-2,13.6-1.1,20.7-4.3,31.3-14,24.2-60.6-11.9-59.4,8.2-9.3,12.1-20.7,7.1-32.5-1-2.3-3.1-3.1-3-5.4,41.2,15.6,42.1-34,33.3-60.6,5.3-4.2,11.7-9.6,15.1-15.5,1-1.6,4.6-10.1,4.6-11.4v-17c0-.3-1.3-.8-1-1.5h43c-12.6,24.4-36.9,93.7,9,95.5-7,16.4-13.1,33.7-16.7,51.3-.5,2.5-2.6,12.1-2.3,13.7.6,3.9,9.8,5.6,9.9,7-4.1,7.1.4,18.9,5.6,24.6,5.2,5.8,4.1,4.5,8.1,10.9,16.3,25.5,50.3,16.1,75.9,17.1,3.8,1.3,17.3,14.5,20.5,12,.7-2.6-1-1.8-1.9-2.6-4.6-4.4-10.4-7.6-15.1-11.9-38-35.4,11.4-29.9,29-9,1.9,2.1,10.4,16,13,13.5,0-2.8-2.1-5.6-3.6-7.9-9.6-15.1-21.9-26.7-28.7-44.3-5.7-14.8-8.7-33.3,13.3-22.3,24.7,12.3,35.7,47.2,36.9,73,2.7,1.7,3.9-.2,4.1-3,.4-4.3-1.4-11.4-1.1-17.1,1.1-19.7,18.3-51.7,36.3-60.7,20.5-10.1,13.4,15.9,9.7,26.7-6.8,20.1-21.9,34.4-29.3,51.7-.5,1.2-1.1,2.3-.8,3.7,1.2,0,2.9.4,3.8-.2.9-.6,8.7-16,10.7-18.8,5.4-7.4,18.2-17.2,26.8-20.3,4.3-1.5,17.8-5.2,18.7,1.7,1,7.7-14,22.2-19.5,27.5-2.1,2-16.5,13.4-16.5,14.5-.2,5.5,9.8-4.3,10.4-4.6,5.2-2.3,8.3,0,13,0,8.5.2,17-.2,25.5,0v186ZM109,643.9l-.3-.2c5,3,10.3,4.7,16.3,4.2l-1.7,27.6c3.5,2.7,7.6,3.8,6.3,9.5-5.3,3.3-6.2-1.2-9-4.1-.9-1-2.7-1.5-3.2-2.2-2.3-3.1-.1-13.1-2.8-13.7-4.2-.9-2.7,12.2-.3,15.4,2,2.7,7.9,4.5,5.3,9.7-7.2,3.7-17.3-4.6-18.4-11.7-.5-3.2,1.6-13.8-1.6-15.4-1.9-.9-1.7,2-1.9,3-.8,3.8,1.1,8.6-2.6,11.5-4.3,3.4-10.2.3-15,.5,16.8-16.6,4.2-41.1-19-38v4c19.1-3,29.2,15.8,16.9,30.4l-7.9,6.1c2,4.2,25.4-2.7,21.9,9.4-12.1,4.8-29.2,4.2-41.6.4-41-12.7-18.5-77.7,21.3-78.4,5.7,0,10.3,3.4,15.6,2.7,1.6-8.7,5.1-17.2,13.9-20.1-4.1-5.8-10.4-9.6-14.4-15.5-5.6-8.1-11.2-21.3-8.1-31,1.6-5,4-6.7,9.1-5,12.6,4.2,21.6,36.2,25.5,48,4,.3,3.8-3.1,8.4-3,21.5.6,35.2,28.7,27.3,47.3-4.4,10.4-22.4,11-31.8,8.3-2.4-.7-10.6-6.5-11.9-3-.6,1.5,2.8,2.7,3.7,3.3ZM30,679.8c-13.6,1.9-21.5-8.2-19-21.4,1-5.3,8.9-9.8,13.5-5.6.9,9.2-.4,19.3,5.5,27ZM105.5,545.9c5.2-11.2,16.5,4.9,18.9,11.1.8,2,3.6,11.9,3.6,13.4v15.5c-4.2-1.1-8.9-1.9-13,0-.6-12.8-15.3-27.6-9.5-40ZM591.1,646.9l-32.1-1c6.3-7.8,26.5-23.8,22.5-34.9-3.6-10-22.1-3.7-29.1-.2-1.5.7-8.6,5.9-9.3,5.2,43-89-33-51.6-44,5l-10.2-22.3c-7.2-12.4-24.4-31.1-40.2-28.6-5.2.8-7,3.5-7.6,8.4-1.6,15.4,9.8,33.7,18,46-9-3.9-28.6-12.5-36.5-3.5-6.1,7,4.8,18.8,9.5,24-.9,1.1-24.8,1.5-28.5,1.5-12.4-.3-26.5-1.3-36-10.4-15.1-14.4-6.1-39.9,11.5-47.5,5.5-2.4,11.3-1.8,16-5-2.1-3.2-6.1-3.2-9-4.9-18.5-10.9-19-39.9-1.2-51.4,8.5-5.5,10.8-4.1,20.3-3.7,1.4,0,1.7.9,3-1-2.7-4.1-12.5-15.9-10.5-20.5,2.1-4.6,12-6.2,16.6-10.5,3.7-3.5,6.4-10.6,9.6-13.4,4.1-3.5,20.3-6.7,18.2-14.4-.4-1.4-2.6-2.3-2.8-3.3-.2-1.2,3.6-4.1,1.4-8.4-1-2-4.3-1.8-5.1-2.9-2.1-3.2,2.3-6.8-6.2-8.8-6.8-1.6-8.8,2-4-8.4,8.9-19.4,32.3-23.8,48.2-9.9,3.3-1.8,2.1-5.1,3-7.9,5.5-17.3,16-27.1,35-25.9,18.2,1.1,35.1,17.6,33.5,36.5-.5,5.6-3.7,10.1-4,15.5,25.5-8.9,46.9,5,33,32.5-1.5,3-5,4.5-4,8.5,7.4-1.6,14.3-1.8,21,2v163.6ZM591.3,326.3h0c0,.3-1.6,1.9-2,1.6-7.6-18-34.5-7.4-32,11l-12-3c.9-11.4-1.2-24.4,0-35.6,1-10.3,12.6-9,20.1-6.9,2.3-1.7,1.9-4.6,3.2-6.9,4.8-8.5,12.8-14.2,22.8-14.7v54.5Z"/>
    </g>
    <path d="M508,284.4c-.8-.7.6-2.2-2.5-1.5-3.1.7-3.2,18.7-1.5,22,1,.7,3.8-1.8,4-2.5,1.2-4.2-.9-13.2,0-18Z"/>
  </g>
  <path d="M520,305.9v21.5c0,1.1-1.8,1.9-3,0s-1.3-20.5,0-21.5,2.2.1,3,0Z"/>
  <path d="M377,706.9c-6.6-1.2-11.7.2-18,2,1-6.9,6.6-12.3,11.5-17,2.8,4.6,6.1,9.4,6.5,15Z" fill="#fff"/>
  <g>
    <g>
      <path d="M64,277.9l1.9-22.9c-2.8-1.5-7.1-4-7.9-7.1h-1.5l-9.4,9.5c5,5.6,9.1,13.3,14.1,18.8.9,1,.9,2.2,2.8,1.7Z" fill="#fff"/>
      <path d="M129.1,262.9l-10.8-1.9-17.5,23.5c-3.1,2.2-4.4,1.1-4.8-2.1-.4-3.1-.2-22.5-.9-24.4-8.5,1.8-17.6,1.6-25.9-1l-1,27.3-5.5-.4c-6.6-6.3-12.1-17.6-18.6-24.5l-9.9,3.1c-.5,2,15.6,32.3,17.4,38.4,5.2,18.1,1.6,64,.5,84.5h0c-.6,11.1-2.4,22.4-3,33.5l11-14.5c18.8-7.6,13,14.3,9,24.5,4.4-4.3,15.5-5.1,16,2.6.2,2.7-2.5,4.6-2,7.4l14.5,1c.5-4.2-1.4-2.1-.5-12.5.9-10.4,7.7-18.7,16-24.2,2-33-9.3-79.4,1.5-110.3,3.9-10.1,10.3-20,14.5-30ZM77,380.4c0,.3-2,1.9-2.5,2.5-.4-.5-1.5-1.2-1.5-1.5v-25c1.5-2,2.4-2,4,0v24ZM77,308.9h-3c-.8-6.9-.2-14.1,1-21,6.7-1.1.9,17.1,2,21ZM93,423.4c-1.5,2-2.4,2-4,0,.7-4.1-1-11.5,0-15,0-.2,2.3-2.5,2.5-2.5.4.5,1.5,1.2,1.5,1.5v16ZM93,342.4c-6.4,4.4-4-5.6-4-9s-1-20,1.5-20.5c1.3-.3,1.8.8,2.5,1.5v28Z" fill="#fff"/>
    </g>
    <path d="M95,257.9h0c0,.1-.2.1-.2.1h.2Z" fill="#fff"/>
    <g>
      <path d="M186.5,629c0,0,0,0,0,0h0Z" fill="#fff"/>
      <g>
        <path d="M591.4,646.9l-.5-164.4c-6.7-3.8-13.5-3.6-21-2-.6-3.6,2.6-5.2,4.1-8.1,13.8-27.6-7.5-41.5-33-32.5.3-5.5,3.5-9.9,4-15.5,1.6-18.8-15.3-35.3-33.5-36.5-19-1.2-29.5,8.7-35,25.9-.9,2.8.4,6.2-3,7.9-15.9-13.9-39.3-9.5-48.2,9.9-4.8,10.4-2.8,6.9,4,8.4,8.5,2,4.1,5.6,6.2,8.8.7,1.1,4,1,5.1,2.9,2.2,4.2-1.6,7.2-1.4,8.4.2,1,2.4,2,2.8,3.3,2,7.8-14.1,10.9-18.2,14.4-3.2,2.8-5.9,9.9-9.6,13.4-4.5,4.3-14.5,5.9-16.6,10.5-2,4.6,7.8,16.4,10.5,20.5-1.2,1.9-1.6,1.1-3,1-9.5-.4-11.8-1.8-20.3,3.7-17.7,11.5-17.4,41.1,1,52,2.9,1.7,6.7,1.1,8.8,4.3-4.7,3.2-10.1,2.6-15.6,5-17.6,7.6-26.9,33.1-11.9,47.5,9.5,9.1,23.5,10.5,35.9,10.8,3.7,0,28.2-.3,29.1-1.5-4.7-5.2-15.7-17-9.5-24,7.9-9,27.8-.2,36.8,3.7-8.1-12.3-19.6-30.9-18.1-46.3.5-5,2.1-7.4,7.3-8.2,15.8-2.5,32.9,15.8,40.1,28.2l10.3,22.7c10.9-56.4,87.1-94.2,44-5,.7.7,3.8-1.2,8.9-4.5,6.6-4.3,26.1-9.5,29.4-.9,4.2,11.1-16.1,27.5-22.4,35.3l32.4,1h.1ZM516.3,517.6h0c-1.1,2.5-11.4,16.1-14.2,13.3-.2-4.3,4.6-6.5,7-9.5,10-13,3-21.6-7.8-6.8l-8.2,11.3c-1.3-8.2-4.7-20.7-12.3-25.2-2.9-1.7-10.8-6.9-11.3.1-.7,8.7,4,11.9,12.6,24.6l-9-2c-3.1-1.1-15.1-3.7-15,1,2.3,6.3,9.2,7.4,13.8,10.3,1.3.9,2.7,1.2,2.3,3.2-20.2-.5-30.9-26.2-1-18.5-22.5-33.5,16.5-31.2,21-3.5,1.4.3,1.3.2,2.1-.6,2.9-3,5.7-9.8,10.2-11.6,10.6-4.3,13.9,5.2,9.9,13.9h-.1Z" fill="#fff"/>
        <g>
          <path d="M11,658.4c-2.5,13.2,5.4,23.3,19,21.5h0c-5.9-7.8-4.6-17.9-5.5-27.1-4.6-4.2-11-7.6-13.5,5.6Z" fill="#fff"/>
          <g>
            <path d="M117,643.4c9.4,2.7,27.4,2.1,31.8-8.3,7.9-18.6-5.8-46.7-27.3-47.3-4.5,0-4.4,3.1-8.2,3-3.9-11.9-12.9-43.6-25.4-47.8-5.1-1.7-6-4.7-9.1,5s2.5,22.9,8.1,31c4,5.9,10.3,9.7,14.4,15.5-8.8,2.9-12.3,11.4-13.9,20.1-5.3.7-9.9-2.7-15.6-2.7-39.8.7-62.3,65.7-21.3,78.4,12.4,3.8,29.5,4.4,41.6-.4,3.5-12.1-19.9-5.2-21.9-9.4l7.9-6.1c12.3-14.6,2.2-33.4-16.9-30.4v-4c23.2-3.1,35.8,21.4,19,38,4.8-.2,11.3,2.4,15-.5s1.8-7.7,2.6-11.5c.2-1-1.3-4.6,1.9-3s.5,8.3,1.6,15.4c1.1,7.1,11.2,15.4,18.4,11.7,2.6-5.2-2.9-6.5-5.3-9.7s-3.9-16.3.3-15.4c2.7.6.5,10.6,2.8,13.7.5.7.4-.7,3.2,2.2s3.7,7.4,9,4.1c1.3-5.7-2.8-6.8-6.3-9.5l1.7-27.6c-6,.5-11.3-1.2-16.3-4.2-.9-.6-5,.2-3.7-3.3s2.5.3,11.9,3ZM146,614.4l1,3.5c-4.3.5-9.2.2-10-5l9,1.5ZM138.5,622.2l2.5,3.7c-3.1.6-5.6,2.7-7,5.5,3.1,2.3,6.4,4,6,8.5-3.1.7-1.5-2-6.5-3s-6.9,1.8-10,2c-8.2.6,3.1-8,7.6-6l-3-10c4.8,1,6.2,3.6,10.4-.7ZM120.4,612.8h0c1.3-.3,5.3-3.1,6.5-1.9,3.8,3.8-13.2,7.8-14,4.4-.8-3.4,6.1-2.2,7.4-2.5h0Z" fill="#fff"/>
            <g>
              <path d="M491.8,743.9h.2c-2.6-2.4-16.3-12.2-18.9-12.8-4-1-13.3,6.8-18.1,8.3-18,5.8-44-4.5-47-24.5,1.7-1.9,7.1,8.3,8,9.5,5.2,6.4,14.4,12,22.5,13.5,1.1.2,6.3.9,6.4-.9-6.3-1.6-9.7-6.5-14-10.5,3.4-4.1,6.3,1.9,9.1,3.9,5.3,3.8,13.4,6.6,17.9,3.1l-13.4-12.3,1.8-2.1c2.3.8,3.5,3.2,5,4.5,4.5,3.8,9.7,10.4,15.6,4.9-9.3-15.7-29.2-23.8-42.5-35.5-11.3-10-19.5-25.8-37.3-20.3-4.2,1.3-10.4,6.4-12.4,11.6-3.6,9.2,9.1,16.9,5.5,25.5-.5,1.3-2.4,1.1-2.3,1.7.7,6,7.8,19.4,12.1,23.9,20,21.3,50.6,19.8,75.3,7.5,4.4,8.3,11.9,18.7,22.6,16.6v-6.5c13.2,2.5,12.3-3,3.9-9.1h0ZM397,699h0c-1.8,1.9-4.2-3-5.2-3.4-2.3-1-6.8.5-6.8-2.1,3.2-7,15,2.2,12,5.5Z" fill="#fff"/>
              <path d="M566,651h0s-.6,0-.6,0c-4.8,0-9.9-2.5-13.3-.2s-11.5,10-10.1,4.8c0-1.1,14.4-12.4,16.5-14.5,5.5-5.2,20.5-19.8,19.5-27.5-.9-7-14.4-3.3-18.7-1.7-8.5,3-20.9,10.9-26.3,18.3-2.1,2.8-11.5,18.9-11.8,20.7-.2,1.1-2.1,0-3.2.3-.3-1.4.3-2.5.8-3.7,7.3-17.4,22.4-31.6,29.3-51.7,3.7-10.9,10.4-37.3-10-27.1-18.1,8.9-35.6,41.3-36.6,61-.2,4,.2,8,1,12,0,.5,0,1.2,0,2,0,1.1.1,1.9,0,2.2-.2,1.6-.4,4-1.7,4.5-.5.2-1.1,0-1.8-.4-1.2-25.8-12.2-60.8-36.9-73-22-10.9-19.4,5.5-15.3,18.7,5.5,18.1,19.7,33.3,30.1,47.8,1.3,1.8,3.2,4.5,3.2,7.3-2.6,2.5-10-10.7-12-12.8-17.2-20.6-67.9-26.8-29.6,8.9,4.7,4.3,11.1,7.6,15.7,12,.9.8,2-.3,1.3,2.2-3,1.9-16.7-10.7-20.5-12-24.1-2-59,8.8-75.3-16.7-4.1-6.4-2.9-5.1-8.1-10.9-5.1-5.7-9.7-17.5-5.6-24.6-.1-1.4-9.3-3.1-9.9-7-.2-1.6,1.8-11.2,2.3-13.7,3.6-17.5,9.7-34.8,16.7-51.3-46-1.8-21.5-71.3-9-95.5h-43.6c-.3.6,1,1.1,1,1.4v17c0,1.3-3.6,9.8-4.6,11.4-3.5,5.9-9.8,11.3-15.1,15.5,8.8,26.6,7.9,76.1-33.3,60.6,0,2.4,2.5,3.6,3.3,5.9,4.2,11,.9,22.7-7.4,32,36.1-1.2,42.9,44.2,12.7,59.1-6.9,3.4-16.6,2.6-21.5,4.6-2,.8-4.4,7.1-7.6,7.3-1.3-1.4,9.4-15,10.8-17.6,1.6-3,3.4-6.9,4.2-10.3-3.3-2.3-14.5,8.5-16,10.9-1.6,2.7-4,7-5.4,9.1,0,0-1.7,1.7-3.6,1.8,3.3-14.3,10.8-27.8,9-43-3.8-1.1-6,2.2-7.8,5.2-4,6.6-6.7,13.8-8.6,22.5-1,4.3,0,10.4-3.7,13.2-3.3-3,0-7.6.1-11.3.2-8.3,1.2-42.7-9.6-43.6-9.5,10.6.8,37.7,0,56-5.3-1-2.9-8.8-3.8-12.9-2.2-10-8.4-25.1-19.1-28.1-3.7,2.7,5.6,24.7,9.7,32.8v.2c0,0,.6,1.6.7,2.5.4,2.6,1.7,8.1,1.4,9.4-1,.4-1.5.3-1.8,0-.9-.5-.7-1.9-2.1-2.1-5.1-.6-14.9,2.5-20.6,3-4.6.4-10.8-.8-15,0-2.1.4-4,3-7.4,4.1-4.1,1.3-8.8,2.1-13.1,1.9,0,7.5-3.4,17.1-2,24.5.7,3.8,7.7,6,6.8,11.8-1,6.3-6.9,4.4-10.2,5.8-1.2.5-2.2,2.5-4.4,3.5-4.5,1.8-11,0-14.5-3-2.4-2-6-9.4-6.6-9.5-5.4-.7.5,7.3-4.4,11.7-7.8,6.8-43.1,3-52.8-2.4-2.1-1.2-8.1-6.8-8.9-7-1.2-.2-4.4.9-6.9.8-11.9-.5-23.7-17.8-15.4-30.4,4.6-7,9.1-6.3,16.9-5.1,5.9-27,30.2-44.9,57.9-38.6.7-6.7,5.3-12.1,10-16.5.2-.7-8.5-9.3-9.8-11.1-6.2-8.4-10.9-19.3-10.2-29.9.8-11.9,7.1-18.1,18.7-10.7,1.2.8,1.7,2.2,3.9,4.2,1.7,1.6,2.8,2.9,3.9,3.6.2-1.2,1.9-8.7,6.6-10.6,4.2-1.7,9.9,1,14.8,6.8,7.6,9,10,27.3,9.9,41,18.6,8.5,26.6,32.4,19.8,51.2,10.6,1.2,22.1-.9,32.5-3,2-3-13.5-29-11.7-37.2,2.2-10.2,13.7-1.2,17.7,3.7,1.3,1.6.2,3.1,3.1,3.6v-16.5c0-4.5,4.8-12.7,10.3-10.3,7,3.1,10,25.8,9.1,32.7,1.7-.8,1.9-4,2.9-6.1,1.7-3.8,7-13.3,11.3-13.8,11.2-1.2,3.9,24.7,1.9,30.4,5.5-3.5,10.4-10.5,18-8.7,6.1,3.6-6.3,18-5,19.2,43.5-.9,45.6-61-1.4-54.9-.4-4.2,4.3-6,6.4-9.1,11.5-16.3,4.5-37.4-16-39.9-3.5-.4-11.2,2-12.4-.6l7.4-8.5c5.4-9.9,6.1-23.9-3.5-31.4-8.2-6.4-15.1-2.4-24.3-3.7-9.4-1.3-5.2-5.4-6.5-10.3-.3-1-4.3-.3-4.9-4.3-.4-2.5,1.9-4,1.8-5.8,0-1.5-2.2-2.6-2-4.9.4-5.7,13.1-9.5,18-9.6,0-21.8-27.5-39.1-44.8-22.4-1.8,1.8-6.2,9.8-8.6,9.4l-2-14c-11.6-29.4-52-19.6-47.8,13.1.3,2.5,4.5,11.1,1.2,11.8-28.4-16.7-50.1,15.6-38.2,42.5,1.9,4.4,6,6.9,5.7,11.5-24.7-2.8-41.6,23.7-28.8,45.3,1.6,2.7,6.5,6.9,5.9,9.1-.7,2.5-4.9,1.5-7.7,1.9-11.2,1.7-22.4,13-22.4,24.4s3.3,11.4,3.9,16.1c.8,6.4-11.7-.9-15.8,1.2v238h586.6v-185.9c-8.5-.2-17,.2-25.5,0ZM98.3,491.4v.2c1.4-8.4,13.6-4.2,17.3.2l9.5,11c4.4-34.9,42.4-41.1,20,1.5,5.4-2,11.1-4,16.8-1.4,1.1,4.9-.8,8.7-3.9,12.3-1.5,1.8-9.9,9.4-12,7.5-.4-1.8.9-2.5,2-3.5,4-4.1,9.3-6.8,11-13-6.7-5-13.6,4.3-18.5,7.5-1.3.8-2,1.1-2.5-.5-.7-2.2,8.6-18.3,8.7-22.3,5.9-18.5-6.8-14.6-13.5-2.5-4,7.3-4.2,13-5.1,20.9-.4,3.5-1.5,5-3.6,1.6-3.9-6.3-9-19.4-18-20.1-10.8-.8,2.1,15.4,5,18.6,1.9,2.1,6.4,3.2,5.6,7.3-7.6-1.7-20.1-17.9-18.8-25.3ZM91.8,782.1h0c0,.1.1.1.1.1-1.9,1.3-3.2,2.6-4.9,0,4.8-5.8,12.8-11,16.4-17.6,8.5-15.4-8.4-7.7-14.9-1.9-5.1,4.5-7.1,9.7-11,14.9-1.8-1.2-1.6-2.4-1.5-4.4.7-8.3,7-19.7,7.9-29.1,2.4-23.8-8.9-11.2-13.8,1.2-1,2.6-4.5,11.4-4.2,14.8v16.5l-2.8-1.7c.3-11.7-8.1-47.2-20.1-50.9-11.7-3.6-5.4,10.1-5,14,1.9,14.9,13.1,28,14.9,42.6-4.5-2.6-5.4-8.8-8.6-12.9-3.3-4.4-10.8-9.8-15.8-12.2-5-2.5-16.3-7.6-11.7,2.8,3.7,10.3,23.3,20.6,23,23.9-.7.7-1.2,1.8-2.5,1.5s-18.7-16.2-20.5-18.5c-17.9-22.5,12.8-17,23-6.5-1.1-7.5-4.9-14.1-5.7-21.8-.6-6-1.1-17.9,7.7-16.9,9.3,1,19.5,23.1,21,31.7,2.3,1.8,9.1-30.3,22-24.5,8.6,3.9.5,27.4-1,34.5,4.5-5.3,25.9-17.6,25.7-3.7,0,7-12,20.4-17.7,24.1ZM327,633.9c.6,3.7-3.2,4.9-4.8,7.7-1.1,1.9-4.2,10.3-5.7,10.3-3.4,0,1.1-9.3,1.7-10.3.7-1.2,6.9-9.7,8.8-7.7ZM319,556.9c.6.7-5.9,16.1-6.9,17.4-.9,1.2-1.9.5-3.1.6-1.5-2.9,7.5-20.7,10-18ZM310.2,496.6c.9-2.7,2.2-6.5,5.8-5.7-1.2,4.2-2.4,8.6-3.8,12.7-.4.5-.6,3.2-2.6,3.3-2.2-.6.4-9,.7-10.3h-.1ZM302.8,494.1h0c.8.5,4.1,9.1,3.2,10.8l-3.3-1.5c-.3-3.2-3-5.2-3.6-8.1-.5-2.2,2.9-1.7,3.7-1.2ZM292.4,559.5c4.5,4.2,6.6,9.2,7.6,15.4-5.4.7-4.9-5.4-6.8-8.7-1.5-2.7-4.2-5.5-6.2-7.8,3.2-3.6,3.7-.4,5.4,1.1ZM304,652.9c-2,.4-2.4-.9-3.1-2.4-1.5-3.4-2.2-8.1-3.9-12.1-.7-1.5-5.6-8.9-5-9.5,7.7-2.9,13.8,21.8,12,24ZM209.5,757.9c-2,0-1.6-7-1.5-8.5.9-18.8,10.3-42.1,23.5-55.5,7-1.5-5,12.6-5.9,14.1-2.6,4.2-5,8.5-7.1,12.9l-9,37ZM230.5,756.9c-1.7-2.5,9.3-16.9,11.5-19.5,3-3.5,17.3-17.4,21.5-16.5,1.2.2,1.7,1.3.5,2.5-2.8,3-8.7,6-12,9-7.8,6.9-14.6,16-19,25.5l-2.5-1ZM261.8,744.9h0c-4.5,4.8-8.8,11.4-13.1,15.9-1,1.1-1,1.8-2.9,2.1-4.8.8,1.9-7.7,2.5-8.5,5.1-6.8,40-40.2,40-44-2.7-7.1-17.5-2-23,0-15.2,5.6-33.6,19.2-39,35-.4,1-3.7,11.1-6,13.5,1.5-17.4,8.9-35.3,16.5-51,2.3-4.7,17.6-29.9,14.5-33-13.8-1.3-27.7,14.1-34.8,24.7-14,20.8-12.5,33.6-15.1,56.9-.5,4.2-3.4,4.8-4,.9-1.6-8.8,2.7-18.9,2-26.9-1.3-15.2-12.8-42.5-26.1-51-21.5-13.8-.9,22,1.2,26.8,6.2,13.8,13.8,29.5,16.6,44.4.6,3.3,2.4,7.8-1.7,9.2-2.6-13.7-5.9-24.5-16.5-34-4.8-4.3-21.4-15.6-27.6-11.5-1.1.8-1,1.6-.8,2.8.8,4.7,20,21.4,24.4,26.7,2.2,2.8,13.9,18.4,11.5,21-1,.2-1.3,0-2-.5-1.6-1-8.6-13-11-16-5-6.4-23.9-23.1-25.5-28.5-1.1-3.5-.8-8.6,3.2-9.8,10.7-3.1,26.7,10.1,34.3,16.8,1.7-2-20.7-37.7-19.8-47.3.9-9.5,9.3-6.9,15.1-3.6,14.1,8.1,23,29.8,27.2,44.8,2.7-6.4,5.4-12.9,9.1-18.9,7.1-11.6,25.7-34,40.9-31,2.1.4,3.1,1.4,3.5,3.5,2.5,12.9-21,38-22,52.5,11-10.7,40-29.5,55.2-22.7,8.5,3.8,1,12.3-2.7,16.7-7.1,8.4-16.5,15.9-24,24ZM304,788.9c-3.8-2.8-3.5-8.8-5.3-13.2-2-4.9-5.9-7.1-6.7-11.8,9.2,1.8,13.8,16.9,12,25ZM303,573.4v-20.5h3c-.8,1.9,1,4.6,1,5.5v15c-1.6,2-2.5,2-4,0ZM313,629.9c-1.7,6.4-2.2,12.9-3,19.5-.2,1.4-.5,2.9-2,1.5-2.8-2.9,0-25.5,5-21ZM313.3,773.7c-1,4-1.6,8-1.3,12.2h-3c-1.5-6.5.3-14.4,2.9-20.5,1.3-3,3.3-7.8,7-7.5-.7,5.5-4.4,10.2-5.7,15.8h0ZM323.1,784.1h-.1l-2.8,2.7c-3.4-2.8,4.8-19.9,11-19l-8.1,16.3ZM531.8,648.1h0c2-4.4,16.6-18.6,21-22.2,2.4-1.9,9.2-8.6,8.7-2-7.2,5.6-13.8,11.8-20.1,18.3-2.6,2.7-5,7.3-8.9,8.6-1.6-.3-1.2-1.4-.7-2.7ZM508.4,642h0c.6-5.7,5.7-19.4,8.1-25.1,5-11.9,12.5-22.4,19.5-33,.6-.4,1.9,1.3,2,2.5,0,1.5-13.1,21.4-15.2,25.9-4.6,10-6.5,21-10.5,30.5-.5,1.2-.8,3.6-2.8,3.2-2.1-1.4-1.3-2.2-1.1-4ZM501.7,685.8v.2c7.7-2.6,17.9,9.8,18.8,16.8,5.1-8.3,12.8-21.7,24.4-16.9,3.5,5.7-9.7,20.7-12.4,25.9-1.3,0-2.3-.6-2.1-2.1.8-5.3,9.3-13.1,11.1-19,.6-1.8.5-1.7-1-3-11.7,2.9-14.2,13.6-19,23-2.1,0-8.9-22.7-17-21-1.8.4-1.1,1.5-.7,2.7,2.2,6.1,9.1,11.6,7.2,19.3-2.8-2.6-11.9-18.5-11.9-21.5s1.1-3.6,2.6-4.4ZM474.6,615.1h0c-4.4-8.2-10.7-14.9-14.3-23.2,2.9-.5,4.3,1.7,6,3.5,7.8,8.7,17.3,30.9,23.3,45.7l-2.2,2.8c-4-9.6-7.7-19.6-12.7-28.8ZM453.5,641.9c-2.3-1.7-13-6.2-12.5-8.5,1.1-1.4,1.5-1.6,3.3-1.4,3.9.6,18.1,12.8,21.4,16.2,1.4,1.4,8.5,8.7,3,7.5-2.6-.6-11.8-11.4-15.2-13.8ZM501.5,753.2c-1,3.5-6.9,3.7-8.3,4.9-1.7,1.4,0,4.4-6.2,5.4-6.1.9-10.6-2.2-15-6.1-2.2-1.9-7.1-8.6-8-9.1-2.4-1.3-5.8,1.8-8.5,2.6-9.2,2.7-17.8,4.4-27.4,5.1l-1.2,9.9h3.4c2.6,5-4.2,3.6-7.1,4.7-1.3.5-7.2,6.4-8.2,5.2l1-4.5-6,2.5c-1.4-6.2,8.2-7.1,12.9-8.1l1-9.3-13.4-4.3-5.4,10.2,3,.5v3c-7.2-1.5-12.3,4.1-19,4-.2,0,1.1-2.6,1.7-3,1.8-1.4,5.4-1.1,6.3-2.9-2.7-.6-5.3.5-7.7.7-1.5,0-2.6,1.1-2.2-1.2,8.4-6,17.5,2.8,18.6-12.5-16.8-8.4-26.7-21.4-31.5-39.5-7.3-3.1-12.3,4.1-19.1,2.1-4.8-3.3,7.5-19.2,10.4-22.2,1.2-1.2,3.7-1.7,4.4-2.6,1-1.3.8-4.2,1.6-5.9,4.4-8.9,14.1-15.9,24.2-14.9,13.7,1.3,19.5,11.9,28.7,20,10.6,9.3,23.7,16.4,34.8,26,10.8,9.3,15.9,13.8,28.3,22.6,4.1,2.9,15.8,10.3,13.9,16.7h0ZM584.5,761.8c-1.4,3.7-13.2,25-16,25.1-1.3-1.1-1.8-1.5-1.3-3.3,1.2-4.7,10.5-15.6,13-22,1.3-3.3,2.3-6,1.8-9.7-9,0-16.7,8.6-20.2,16.3-2.3,5.2-2.7,14.3-7.8,15.7-3.2-3.7,15-40.6,13.6-50.1-1.5-10.2-12.2,3.8-14.3,7.8-2.8,5.4-7.3,20.9-7.3,26.7s.7,12.1,0,15c-.2.8-1.6,2-2.5.5-4.7-7.6,4.3-22.3-4.5-33.5-1.8-2.3-4.3-3.8-6.7-5.4-7.7,4.9-3.9,19.8-1.3,27.4,1.4,4.2,4.8,6.9,4,11.5-1.2,1.4-9-7.9-10.6-8.8-1.4-.8-8.6-3.2-9.4-2.7-5.7,7.5,7.8,14.4,9,17.1,2.9,6.5-7.6-1.5-9-3-12.3-13.4-3.7-21.8,12-15-8-17.3,1-45.4,17.5-18.5,3.5-7.7,11-27.9,21.9-26.7,9.7,1.1,2.1,21.8.6,27.7,1,1.1,12.5-9.2,18-4.5,3.8,3.3,1,8.6-.5,12.4Z" fill="#fff"/>
            </g>
          </g>
        </g>
      </g>
    </g>
  </g>
  <path d="M416,390.9c-3.8.7-6.9-1.7-10.5-2s-15.5,1-15.5-1.5c2.7-3.7,7.1-5.1,11.5-5.5s16,1.3,14.5,9Z" fill="#fff"/>
  <path d="M230,403.9c-1.6-10.8,23.8-11.5,23.1-3.5s-.6,2-1.7,2.4c-7.6-2.6-13.9.6-21.4,1.1h0Z" fill="#fff"/>
  <path d="M397,698.9c-1.8,2-4.2-2.9-5.2-3.3-2.3-1-6.8.5-6.8-2.1,3.2-7,15,2.2,12,5.5h0Z"/>
  <path d="M413.1,325c-4.8-3.2-.5-8.3,5.3-7.4s16.5,7.7,15.4,10.8c-1.7,4.7-8.3-.6-10.7-1.2s-8.1-.8-10.1-2.2h.1Z"/>
</svg>