<?xml version="1.0" encoding="UTF-8"?>
<svg id="Camada_1" xmlns="http://www.w3.org/2000/svg" version="1.1" viewBox="0 0 595.28 841.89">
  <!-- Generator: Adobe Illustrator 29.0.0, SVG Export Plug-In . SVG Version: 2.1.0 Build 186)  -->
  <path d="M.14,841.29V-.06h595v841.34H.14ZM590.54,3.89H4.08v239.91c14.7-13.48,38.74-5.16,41.42,14.46,5.97-2.44,11.29-5.82,18.06-5.96s11.91,2.89,18.09,5.3c-.76-6.46,2.23-15.31,1.65-21.38-.19-2.01-1.82-3.45-1.68-6.52s2.03-5.15,3.31-7.58c-15.67-1.74-12.95-20.28,1.94-20.42,1.77-17.44,7.26-37.34,14.31-53.69.35-.81,1.35-.9,1.69-1.66,2.41-5.38,4.44-10.97,7.68-15.94-2.87-2.46-10.85-5.5-11.47-9.45-.31-3.17,2.24-3.64,4.47-4.78,7.15-3.66,14.46-4.06,22.13-1.87-4.27-8.54-3.84-14.32,5.37-17.96,1.64-.65,3.46-.17,5.12-.8,2.81-1.07,8.11-7.87,10.89-10.14,22.62-18.44,49.6-32.27,78.17-38.72.15-12.02,10.65-14.89,20.1-9.28,2.65-7.15,9.99-11.05,17.33-6.47,1.4.87,2.56,3.21,2.77,3.23,1.04.12,2.97-1.92,4.24-2.34,7.87-2.62,17.78-3.83,25.51-.22l-1.19,5.14,21.04.66c-5.06-13.68,14.21-9.57,21.27-6.51,4.83-10.04,17.37-7.87,21.78,1.2,9.79-6.64,21.17-.17,17.43,11.89,27.91,3.92,54.66,16.3,77.14,32.98,9.33,6.93,17.18,15.11,25.47,23.17,4.41,4.28,7.8,4.2,7.82,12.59,11.91-1.99,40.25,8.09,15.14,16.72l.07.9c11.01,19.26,15.71,38.57,20.86,59.98.21.88,1.21.64,1.46,1.85.79,3.73-1.81,4.29-1.36,7.59,6.14-1.82,13.86,5.87,13.79,11.51s-7.71,8.7-7.89,9.31c-.29.99.68,19.79,1.34,20.58,6.23-3.3,13.55-2.54,19.72.66,1.2-20.25,22.57-34.01,41.42-25.63V3.89ZM354.14,32.54c-2.18-4.3-4.11-5.53-9.1-4.92-11.85,1.44-3.79,15.71-5,17.02-6.03-3.22-16.81.63-14.81,8.56s14.41,2.66,15.83,4.56c1.03,2.12-1.69,3-2.19,5.1-3.89,16.21,19.73,12.52,16.96-1.78,1.2-1.38,7.81,8.02,15.36,4.51,8.78-4.08.38-15.4-6.82-15.04-.22-2.2,2.56-1.92,3.91-2.98,11.32-8.79.6-20.85-8.2-13.45-1.87,1.57-1.93,4.38-4.26,4.6-.19-2.7-.67-4.17-1.69-6.18ZM336.1,40.7c.65-7.68-4.02-9.55-10.83-9.88-1.11-.05-7.21.34-7.54.72-2.18,2.58,4.16,11.04,6.74,11.98,1.11.41,8.87-4.44,11.63-2.82ZM243.4,65.02v9.53c0,1.55,4.7,4.6,6.24,4.99,9.16,2.34,14.71-8.92,9.54-16.15,1.37-2,3.68.27,5.65.25,20.02-.25,11.26-22.24-3.67-13.74-.61-.79,8.26-14.36-1.95-17.45-9.32-2.83-10.49,4.65-12.19,11.52-2.71-1.45-3.27-4.26-6.24-5.57-7.42-3.27-13.89,1.98-11.41,10.09,1.66,5.4,6.97,2,9.43,6.01-6.41-1.15-17.78,2.62-14.51,10.9,3.09,7.82,14.42,3.08,19.11-.38ZM292.05,32.82c-6.78-1.29-15.7-1.29-21.84,2.15-4.93,2.75-2.44,4.32-3.75,9.27l10.31,4.24c7.73-1.54,13.41-8.07,15.28-15.65ZM322.13,49.74c2.92-2.82-4-8.95-6.23-9.56-1.95-.53-22.02-1.83-23.06-1.32-.39.19-3.73,5.85-5.08,7.08-2.77,2.52-6.23,3.67-9.48,5.34,1.11,1.33.88,5.65,1.38,6.39s7.24,3.04,10.29,8.45c3.45,6.13,4.39,9.77-3.79,11.09s-15.13-2.4-22.38-5.62c-1.47,15.01-23.8,15.28-23.36-.67-5.67.48-8.5,5.9-12.87,8.82-10.89,7.27-37.21,8.36-20.65-9.47,2.86-3.08,12.21-7.34,13.31-8.71.61-.76.36-2.65,1.21-3.73,1.17-1.5,4.94-3.88,6.82-4.71l-1.69-3.94c-32.1,7.27-63.69,23.9-86.38,47.69l4.92,3.63c3-4.72,7.41-7.56,13.16-7.24,1.88.1,4,1.75,5.58,1.03.59-.27,3.98-5.52,5.59-6.95,5.02-4.46,12.21-6.01,18.79-4.96,2.63,8.81-5.7,19.86-13.19,23.7-2.92,1.49-8.75,1.31-8.54,5.58,18.69,4.19,10.94,25-6.58,21.04.77,14.74-15.21,19.99-23.66,7.9-3.7,9.26-16.86,16.7-26.35,14.85-2.74-10.02,3.79-16.76,9.26-23.72l-6.48-.88c-10.09,20.81-19.22,42.33-21.8,65.61,3.21-5.73,7.82-8.64,14.45-6.57-.92-6.32,10.14-22.09,16.63-20.29,2.97.82,5.58,12.65,5.12,15.4-.19,1.14-1.17.91-1.31,1.46-1.28,5.3-2.01,9.02-5.97,13.28,6.33,1.08,10.67,4.26,10.19,11.18,1.61-3.3,11.04-8.96,12.21-10.97,2.06-3.56,4.45-20.32,6.85-26.53,19.54-50.67,64.75-81.81,117.79-89.92,56.97-8.71,122.96.07,164.28,43.28,2.1-1.61-.25-4.02-.36-6.25-.26-5.34,3.27-7.54,6.6-10.81-11.36-2.98-21.29-12.41-20.94-24.89,10.61-2.69,23.15,2.09,28.5,11.72,6.14-7.87,19.61-3.86,20.72,5.93l7.23-1.98c.22-1.01-.15-1.52-.63-2.33-1.88-3.15-13.35-12.65-16.82-15.39-18.87-14.95-43.9-28.21-67.37-33.87-2.44-.59-11.9-2.88-13.62-2.82-1.54.06-2.14,2.18-3.71,2.42l-.41,1.36c2.64.24,4.18,3.27,5.95,4.25,1.63.91,4.53,1.2,7.14,2.72,11.26,6.52,23.15,23.95.15,20.22-8.82-1.43-15.97-8.1-24.72-10.11-3.01,9.7-15.61,13.85-21.83,4.73l-1.87-9.29c-7.17,6.5-21.22,11.19-30.6,8.23-8.56-2.7,5.93-15.82,9.7-17.97,1.94-1.11,7.62-2.63,7.92-2.92ZM322.28,52.53c-7.6,1.81-14.63,7.99-17.09,15.12,9.19,1.73,17.99-.34,25.64-5.59l.02-1.32c-3.97-.69-7.95-4.03-8.57-8.21ZM391.09,66.56c-1.52-1.95-9.5-8.45-11.93-8.47l-1.58.42c.39,4.64-1.46,8.48-5.98,10.12,6.26,4.95,14.63,6.1,22.35,4.93.69-.61-2.17-6.11-2.86-7ZM263.78,66.34c5.3,6.8,17.81,9.86,25.61,6.17-1.44-5.61-4.9-9.89-10.27-12.02-4.19,5.01-8.74,6.55-15.34,5.86ZM222.74,68.57c-1.17-1.08-2.3-3.5-3.24-3.48-6.21,4.09-13.56,7.59-14.9,15.7,9.58,2.06,20.49-.08,26.3-8.53-4.37.42-5.55-1.26-8.16-3.69ZM440.6,144.56c-.87-.55-14.03,6.88-19.02,2.94-3.21-2.53.99-11.8,2.99-14.75,1.36-2,4.79-2.3,3.25-5.29-41.4-42.26-107.3-49.91-163.51-40.56-53.69,8.93-97.81,42.07-114.86,94.32-.59,1.81-3.82,14.63-3.34,15.25,20.8-12.93,43.61-17.25,68.02-15.76,3.37.21,9.96,2.5,12.52,2.32s4.23-2.46,9.15-1.63c4.22.71,7.16,5.53,8.04,5.8,1.46.44,4.15-1.6,5.86-1.85,11.12-1.63,15.3,6.11,10.85,15.67,15.73,7.32,21.41,24.14,15.58,40.33-1.33,3.68-7.35,10.94-7.61,12.13-.77,3.5,2.15,13.41,4.79,15.97,2.99,2.9,13.01,4.39,14.13,9.54,2.01,9.23-4.62,11.54-9.84,16.41-.13,5.22-.04,11.21-.74,16.35-.44,3.25-3.92,13.08-3.82,14.57.14,2.14,4.35,3.92,5.55,5.53,14.34-14.75,34.14-15.28,52.92-9.83l.65-30.88c-11.55-1.43-13.34-9.11-8.64-18.85,2.64-5.48,7.1-8.14,9.69-13.32l2.19-32.85c-17.96-3.33-17.63-26.36-5.79-36.48,6.64-5.68,13.32-6.83,21.49-8.75,16.94-3.97,26.59-14.12,45.2-15.29s25.48,5.61,41.04,8.9c6.23,1.32,13.46.88,19.76,2.92l-16.47-32.85ZM185.54,84.73c-13.07.87-22.45,6.73-17.75,21.04,10-1.91,17.73-10.83,17.75-21.04ZM443.92,108.39c-1.08-2.97-.14-6.61-.82-9.36-1.68-6.83-17.26-14.37-24.17-11.66,1.87,12.02,13.39,20.06,24.98,21.02ZM461.96,101.55c-7.33-14.69-23.03-2.19-12.78,10.78-5.51-1.5-14.29-.7-15.07,6.33-1.12,10.1,10.97,6.71,17.04,7.49.26.27-3.32,5.2-3.63,6.54-3.51,15.08,19.23,13.97,18.1-.64,2.42-.65,2.08,1.6,3.57,2.67,14.67,10.53,20.84-12.62,3-13.19-1.2-1.36,6.04-3.36,7.2-4.3,8.76-7.05-.26-19.93-12.14-11.48-1.59,1.14-1.19,3.25-3.61,2.63-.06-2.87-.61-4.68-1.69-6.85ZM162.97,110.16c7.53-9.97-5.54-20.04-13.92-10.3-2.32,2.7-1.69,8.36-4.94,6.78-2.5-11.71-18.44-9.97-18.38,1.29l8.52,9.01c-7.04-1.1-16.55,4.12-13.31,12.33s17.82.13,18.56.83c-4.35,20.65,23.1,17.89,15.79-1.97,5.35,1.18,10.37,3.87,15.45,0,5.79-4.41,2.45-13.19-4.26-14.2-2.94-.44-5.79,2.11-7.9.05-.45-1.03,3.71-2.94,4.38-3.82ZM488.52,115.13c-4.35.34-5.59,2.58-8.42,5.43,3.24.96,4.93,7.14,7.17,7.93,3.72,1.3,19.4-1.91,20.35-6.1,1.13-5-15.79-7.53-19.1-7.26ZM122.42,116.3c-3.04-2.43-20.21,1.14-19.67,4.83,3.39,4.48,9.44,7.01,15.07,7-.56-4.63,1.5-8.59,4.6-11.83ZM445.24,129.44c-6.29.58-8.84-3.21-14.42,1.02-4.25,3.22-7.65,9.3-7.93,14.74,10.45,1.2,21.26-4.67,22.35-15.76ZM498.98,131.58l-8.37-.17c5.87,5.06,12.41,13.8,9.82,21.97-2.01,2.65-12.18-.67-15-2.01-7.48-3.54-8.87-11.09-16.98-13.31-1.14-.09-3.44,4.33-4.78,5.51-5.3,4.67-14.73,4.28-18.14-2.36l-2.88,1.68c6.68,11.64,14.18,22.78,18.07,35.81,8.18,3.17,15.91,10.1,18.73,18.42l1.46-.83,5.05-7.47c-4.58-5.39-5.24-11.81-4.26-18.67,1.22-8.5,3.87-11.02,11.19-5.2,7.82,6.21,9.44,16.22,7.59,25.62,4.26-6.91,9.06-8.6,17.08-6.58-3.03-18.74-10.98-35.23-18.58-52.4ZM497.18,151.13c.68-7.78-3.56-16.4-11.81-17.72-.89,4.18-4.6,5.78-7.9,7.53,4.98,6.11,11.61,10.3,19.71,10.19ZM134.91,135.35c-3.81,2.24-11.96-1.09-14.4.34-4.53,2.66-9.91,12.04-8.6,17.41,9.69-.65,21.99-7.28,23.01-17.75ZM497.18,187.6v-11.17c0-2.8-6.21-10.93-9.7-11.38l-1.42-.07c-4.2,9.52-3.47,23.84,9.63,23.48.8-.02,1.02-.24,1.48-.85ZM401.84,220.14v13.8c0,.07,1.12-.21,1.29.49,1.56,6.5,3.21,9.88,6.57,15.63-5.17,9.97-5.4,36.54-20.66,37.17-8.63.36-18.28-2.74-28.27-2-9.38.7-16.89,5.06-25.98,5.9-1.13,17.08-7.51,51.28,16.83,54.5,18.07,2.39,43.7-5.85,56.49-18.99,20.47-21.03,12.43-48.58,11.5-74.94,3.71,1.1,6.59-2.35,10.66-3.47,33.09-9.09,34.22,37.12,5.09,42.03.13,6.23.76,12.54,2.43,18.54,5.79,20.8,22.29,25.26,38.46,35.8,2.25,1.46,11.27,9.33,12.23,9.51,5.26.98,9.28-10.89,8.36-15.02,15.8-2.72,21.86-10.43,19.34-26.53-.48-3.07-3.82-9.94-3.82-11.24,0-2.64,4.58-8.18,4.58-14.48,0-19.16-16.34-21.99-23.36-36.48-11.57-23.85-7.08-64.3-40.29-71.46-5.47-1.18-11.4-.74-17.03-2.04-19.8-4.58-26.47-12.16-49.66-7.14-11.37,2.47-16.87,8.86-25.98,12.15s-15.72,1.45-24.71,6.84c-9.31,5.57-13.42,13.15-11.34,24.22,2.74,14.6,20.72,10.34,26.94.58,2.28-3.58,1.16-7.24,4.65-9.14,1.56,1.92.84,4.29,1.78,6.75,5.01,13.14,24.02,15.35,36.02,11.97,2.97-.84,4.85-2.96,7.89-2.96ZM111.91,201.08c10.86-3.08,15.42-19.84,8.88-28.9-6.04,2.78-14.62,12.94-12.68,19.88.58,2.07,5.03,5.52,3.8,9.02ZM224.99,193.84l-1.28-8.9c-29.36-6.53-65,2.19-86.83,23.04-5.16,4.93-8.78,9.47-9.85,16.76l7.79-.74c.92-10.19,9.93-11.27,17.81-7.15,1.95-6.48,7.5-8.44,13.86-6.9,3.34.81,3.42,3.98,4.4,4.28,2.72.84,7.08-1.23,10.04-.67-6.91-11.8,3.37-21.99,14.46-13.8,2.72-9.47,15.39-10.83,19.4-1.33,2.72-3.47,5.98-4.24,10.19-4.59ZM258.97,190.76c-5.21-7.55-14.39,1.5-15.81,1.08-5.87-12.88-20.92-9.57-14.23,5.29-4.23-.81-14.27.12-12.37,6.75.24.85,5.58,5.22,6.44,5.47,2.69.78,4.61-1.41,7.25-1.04-2.02,5.86-.77,15.51,7.39,14.33,6.36-.92,4.79-10.02,6.13-10.38,7.03,2.43,10.08,7.65,15.4-1.06-1.43-3.87-3.25-6.82-7.23-8.49-.51-1.93,11.56-5.37,7.02-11.96ZM516.25,204.36c-1.75-1.82,7.88-9.32,1.6-16.39-3.38-3.81-9.44-3.16-12.49.59-2.67,3.28-1.49,6.63-3.27,9.89-1.34.29-3.7-8.15-10.97-7.75-12.2.68-8.87,14.73,1.45,16.64l-7.1,5.3c1.78,2.63,2.74,12.64,3.97,13.92,3.09,3.2,11.07-4.19,13.31-6.41,1.74.41.14,13.55,10.51,13.16,9.21-.35,7.23-11.03,3.64-16.45,1.48-1.24,15.17,5.1,15.17-6.25,0-8.92-9.52-9.41-15.82-6.25ZM109.28,206.33c2.93-19.47-20.29-18.92-15.13,1.32-20.14-9.55-24,14.94-1.31,11.84,1.1.88-5.21,4.26-5.92,5.11-10.36,12.35,13.98,19.88,14.48,2.12l1.99.3c1.45,3.58,3.24,8.14,7.86,8.24-.95-4.57,7.26-6.88,8.26-8.54,1.7-2.81-5.49-6.74-4.31-7.89,8,1.23,17.51-9.29,8.77-14.37-7.31-4.25-13.89,2.68-14.69,1.87ZM210.97,198c-4.01-6.3-13.29-2.3-12.46,4.92-2.71.68-.02.31.17,1.43-3.79,1.03-3.8-1.91-5.68-3.18-7.95-5.37-16.14,3.99-9.47,10.13,1.27,1.17,5.73,2.16,5.29,3.9-6.07,1.09-14.88,7.15-7.92,13.19,6.15,5.33,13.64-4.67,15.15-2.99.21,16.42,20.24,10.84,11.84-4.6,6.31,1.42,17.86-.09,12.75-9.15-3-5.33-7.52-1.75-12.1-2.03-1.33-1.18,6-5.98,2.41-11.62ZM269.96,212c-3.04-3.92-6.29-6.74-10.77-8.95,5.55,11.33-1.09,19.11-12.98,14.23-3.34,9.95-16.2,11.84-19.45.77-.58-1.98.09-4.5-1.1-5.79.99,8.3-4.92,11.62-12.22,12.44-.76,1.84.41,3.38.12,5.32-1.53,10.34-17.6,10.83-19.47.65-2.25,1.87-12.54,1.63-13.07,2.04-.18.14-.62,3.27-1.26,4.33-2.76,4.62-6.4,4.32-11.31,4.14,2.81,14.81-14.78,18.1-19.77,5.29-4.46.74-8.65,2.51-13.05.24-1.38-.71-1.76-2.47-3.69-2.88-3.64-.79-9.61.45-13.78-.72-15.01,33.69-9.85,75.51-41.45,100.59-13.86,16.02-19.1,35.43-4.29,52.93-3.29,7.56-8.68,14.42-8.56,23.02.06,4.35,2.51,11.22,4.77,14.99,5.5,9.2,15.52,14.48,25.43,17.63-1.56,17.24,15.01,26.84,30.37,23.92,3.02-5.11,5.24-10.53,6.63-16.37,4.72-19.74-2.26-25.42-3.36-43.48-2.29-37.49,14.99-38.97,37.48-59.13,7.12-6.38,9.86-18.78,10.49-27.64.3-4.17.68-17.04-3.04-19.27-1.57-.94-4.78-1.23-6.84-2.37-20.72-11.45-9.1-46.82,13.39-35.74,4.32,2.13,6.25,6.92,10.55,9.03,4.85-3.82,7.47-10.15,8.97-15.72-.61-.66-15.73,6.51-11.52.63,17.88-5.65,36.18-14.79,50.32-27.25,2.08-1.83,10.58-11.71,11.63-12.05,4.33-1.4,11.6,6.44,13.58,9.84,2.37,4.05,2.31,7.14,3.74,10.72s5.21-2.77,6.2-4.91c4.71-10.17,4.06-21.76-2.68-30.47ZM484.03,208.97c3.13-.12,2.03-3.08-.66-3.28l.66,3.28ZM164.51,237.89c12.18,6.74,20.25-9.92,6.86-11.2-1.97-.19-4.11,1.76-5.53-.31,11.22-14.43-10.46-21.25-10.6-4.36-2.98,1.38-4.83-3.61-8.29-4.38-11.27-2.5-8.3,9.62-3.48,14.96-17.87,5.29-4.48,20.55,7.57,7.91,1.42.17.36,12.07,7.72,11.69,11.08-.57,5.14-13.66,5.76-14.33ZM399.21,224.74c-15.54,5.12-33.33,4.04-43.13-10.46-4.08,2.75-7.14,6.13-11.47,8.78-1.74,1.07-4.36,1.05-5.6,2.29-4.13,4.16-1.53,28.95-3.74,35.7-2.01,6.16-16.43,14.46-10.36,23.83,5.6,8.64,26.92-2.17,35.85-2.94,3.42-.3,8.34-.22,11.81,0,14.35.89,20.43,8.71,27.32-8.86.95-2.43,6.57-21.85,6.5-23.05-.11-1.83-4.73-7.56-5.67-10.69-1.42-4.72-1.66-9.7-1.51-14.6ZM178.31,216.86l-6.54.68-.69,5.88,3.85-.09,3.38-6.47ZM590.5,305.56l-.1-84.96c-12.31-9.45-33.05.15-37.31,14.36-1.28,4.29-1.06,8.49-2.05,12.75l-1.82-.11c-4.39-6.94-12.35-7.92-19.06-3.69l1.21,69.56c12.73-15.81,35.01-17.04,48.32-1.32,3.07-2.66,6.53-6.49,10.81-6.59ZM122.43,225.4c1.99-.92,2.08-3.38,1.96-5.26l-3.93.66,1.98,4.6ZM495.86,541.23v10.19l31.8-.62c1.79-.61.37-28.92.36-32.59-.25-84.25,2.97-171.06.08-255.05-.49-14.15-2.37-28.27-3.32-42.37h-2.62c5.38,9.1-5.92,19.37-15.34,13.69-3.33-2.01-3.96-5.5-6.03-8.42l-9.56,4.24c-1.76,1.28,2.32,12.85,3.3,15.16,8.3,19.75,29.88,20.44,24.02,48.3-.46,2.18-2.76,6.83-2.81,7.66-.08,1.3,1.82,3.68,2.17,5.45,3.31,16.75,1.56,31.25-18.07,34.23.76,6.18-3.7,12.2-8.63,15.49,10.68,15.16,12.2,28.91,11.22,47.24-1.93,36.05-1.65,67.09,2,103.2.57,5.61,4.9,25.95,2.66,29.63l-11.22,4.56ZM114.89,236.87c3.72,5.19,10.57,4.4,16.32,4.22,1.45-.58,1.02-3.71,1.79-5.44.97-2.16,4.85-4.72,4.47-6.49-1.29-5.94-21.09.54-23.4,4.95-.94,2.19.3,2.03.82,2.75ZM273.64,312.82h-13.48c-2.5,0-12.6-5.64-12.16-8.2.51-2.95,5.86,2.59,6.77,3.08,4.52,2.4,13.83,5.05,18.21,1.51,2.79-2.25,1.12-12.3,2.12-15.63,1.1-3.7,10.86-4.43,9.69-12.57-.73-5.1-12.29-6.77-15.36-10.97-3.48-4.76-4.4-21.59-7.72-29.09-1.36-3.07-8.06-11.33-11.4-11.02-.67.06-7.88,8.2-9.53,9.62-8.3,7.11-17.73,13.35-27.17,18.85-2.38,1.39-9.36,3.86-10.94,5.5-2.17,2.25-3.41,12.35-8.88,17.41-8.8,8.13-10.21-6.33-19.14-7.86-24.16-4.14-21.97,38.89,6.56,34.73,2.11-.31,8.33-4.4,8.93-2.23,1.05,3.77-11.73,4.34-12.39,6,.36,11.01.84,23.65-1.74,34.41-.49,2.03-.74,3.28-2.29,4.6,13.57,4.12,31.05,24.21,45.98,19.36,3-.97,4-1.51,5.58-4.28,5.43-9.54-3.38-9.39-5.69-15.25-1.19-3.02,0-8.45-.82-9.71-.91-1.42-17.98-5.77-15.15-9.84,1.37-1.97,4.16,1.48,5.67,2.23,23.75,11.85,59.95,11.53,64.36-20.63ZM103.86,234.12c-.72-.37-1.63-.34-2.38-.06-2.17,6.38-10.37,7.84-15.87,4.49l-1.97,93.34c5.99-6.05,10.34-13.29,13.16-21.34,5.18-14.77,7.57-31.09,11.49-46.36,1.85-7.23,3.83-15.18,7.29-21.64-.17-2.11-8.02-5.19-10.11-6.45-.91-.55-1.35-1.84-1.61-1.97ZM4.08,248.73v58.17c12.6-6.02,31.08-2.24,32.22,13.81,12.92-6.6,25.6-4.18,30.28,10.45,4.82-.8,9.09-.94,13.76.73l.71-67.42c-1.3-10.35-21.13-10.09-28.57-6.78-4.32,1.92-5.17,5.23-8.95,7.15.62-8.08-5.25-18.94-12.57-22.59-9.91-4.94-20.52-2.47-26.88,6.49ZM450.91,256.52c-4.24-6.8-13.06-8.14-20.3-5.97-1.17.35-6.98,3.64-7.39,4.44-2.23,4.37,2.98,26.6,1.63,32.86,16.53,3.19,35.92-15.5,26.06-31.32ZM432.01,290.55l-7.16-.08c.2,15.25-5.64,29.72-16.75,40.11-6.25,5.85-15.91,8.74-16.12,19.05,13.45-12.72,29.77-22.47,47.71-27.57-1.34-4-3.62-7.69-4.67-11.85-1.6-6.34-1.72-13.25-3.02-19.66ZM590.54,308.22c-3.28-.97-9.22,7.88-10.83,7.93-6.91-7.51-14.71-13.34-25.57-12.44s-16.48,6.96-22.77,14.7v47.65h59.17v-57.84ZM4.08,310.19v56.53l57.13-.73c2.44-12.15,11.15-21.59,19.15-30.48-6.3-4.29-10.89-.73-17.15-.62-.68-10.87-7.44-16.52-18.39-14.54-4.7.85-6.21,4.23-10.49,4.96.69-16.64-17.13-23.35-30.25-15.12ZM331.37,325.44c-17.61-7.12-37.17-5.54-51.14,8.09,9.82,8.92,15.53,21.2,20.81,33.08l58.39-.57c5.17-1.13,1.32-13.77,4.95-17.72-17.15,3-31.63-4.37-33-22.88ZM442.6,324.65c-14.59,2.48-29.47,10.93-40.75,20.37,8.36-2.18,14.82-1.18,16.1,8.55l24.65-28.91ZM448.12,330.31c-.85-.61-1.78-2.49-3.22-2.89-2.52,2.96-6.29,5.35-8.83,8.08-3.99,4.28-9.93,11.52-13.33,16.28-5.93,8.31-8.04,19.64-17.28,23.48-10.57,20.82-20.22,42.33-25.96,65.07l51.6-56.55c.9-2.3-2.45-13.39-3.63-15.89-.5-1.06-2.65-.93-1.95-3.14,4.4-.84,19.15.14,21.61-3.04.83-1.07,1.6-4.35,2.53-5.98.48-.84,1.3-.95,1.88-2.08,2.64-5.16,4.17-11,6.74-16.2-3.21-2.61-6.81-4.74-10.16-7.14ZM294.27,361.22c-5.39-13.41-11.48-22.72-22.92-31.81-13.3,14.08-31.22,16.94-49.64,12.32-2.3,10.94,9.36,14.8,15.45,21.03,2.99,3.05,10.78,17.32,12.17,18.11,1.73.98,5.11-2.12,7.22-1.67-4.67-14.3,16.01-18.79,17.75-4.6.6.65,10.07-8.15,15.77.99,4.32,6.93-2.19,9.54-2.56,11.92-.05.31,2.71,5.44,3.01,5.53,8.44,2.42,7.78-17.12,7.26-21.87s-2.11-6.47-3.51-9.95ZM498.08,380.3c-5.17-23.32-16.82-30.37-36.86-41.11-.91-.24-1.04.47-1.4,1.03-4.3,6.72-6.09,24.96-16.29,26.43-4.22.61-9.05-.52-13.42.72l4.27,16.38-56.67,62.01.22,18.92c8.16-3.61,16.79-6.65,24.72-10.73,2.85-1.47,12.75-6.67,14.32-8.69,2.94-3.79,6.79-17.16,9.02-22.5,5.74-13.74,19.06-52.49,34.49-56.91,10.02-2.87-2.91,4.79-4.41,6.11-13.34,11.68-22.89,41.47-30.08,58.03-2.57,5.92-4.27,12.29-7.23,18.05-20.64,11.71-42.53,21.19-64.9,29.11l15.28,41.9c2.36,2.26,20.89-2.34,24.96-3.32,21.33-5.16,57.21-16.96,72.52-32.66,21.19-21.72,37.8-74.2,31.47-102.77ZM390.01,342.4c-1.21.43-12.14,2.82-9.85,5.25,3.16-1.23,5.12-1.32,8.45-.74l1.4-4.51ZM406.32,347.19c-3.08.18-12.55,2.81-13.06,6.02-1.49,9.28,1.13,18.42,12.21,18.16,5.72-.13,7.82-9.36,8.23-14.16.65-7.45.81-10.5-7.38-10.02ZM377.8,350.02c-8.14-9.11-14.96,4.68-12.17,13.76.23.75,3.68,5.26,4.48,5.46,2.1.54,5.86-1.79,6.47-3.82,1.02-3.42-2.45-11.31,2.26-14.16.34-1.33-.67-.83-1.04-1.25ZM384.59,349.73c-5.89,1-6.29,15.98.39,16.84,5.68-.47,7.77-18.23-.39-16.84ZM229.59,361.46c-2.79,18.81-21.86,12.28-33.32,6.02-4.54-2.48-20.03-14.99-24.38-13.48-.55.19-6.66,6.77-8.39,8.1-15.85,12.25-30.81,19.26-33.11,41.83s11.09,65.92,28.54,79.75,45.65,14.51,65.95,12.42c-.98-11.43-3.24-24.05,2.07-34.73l-36.8-10.86c.97-1.95,3.37-.18,3.95-.61,1.38-1.03-1.05-17.29-1.53-20.22-1.6-9.7-3.8-16.76-7.42-25.42-1.43-3.41-2.93-6.8-4.22-10.26l2.31.32c10.24,16.76,12.31,37.14,14.21,56.46l30.77,8.3,13.15-5.67-1.98-11.04c-15.05,1.47-30.16-6.49-36.59-20.22l.84-2.17c1.95-1.95,8.84-1.7,11.48-.68l2.63-9.85c-14.87-4.87-6.79-24.07,7.23-17.76-.51-16.88,19.82-17.02,20.39-.65,1.31.22,2.81-.44,3.18-1.8.93-3.4-9.94-20.41-12.69-23.22-.51-.52-5.86-5.01-6.27-4.57ZM392.88,369.11c-.75-.56-.94-2.46-2.52-2.4-3.81,4.93-10.41-.08-12.63,2.83s-1.47,28.49-.85,33.64c.81,6.76,4.02,13.09,3.94,20.06l22.34-48.65c-3.8-1.68-6.86-2.95-10.27-5.48ZM365.94,419.72c-5.2-14.91-8.9-35.69-.92-50.08.09-.86-.82-1.78-1.63-1.6-3.62.78-28.6,59.2-31.99,66.65-11.36,9.67-26.04,16.32-39.23,23.53-1.2,3.31,2.29,4.24,3.18,5.63,1.83,2.86,3.14,6.99,5.58,9.35,6.55,6.33,12.15,2.4,19.7,2.66,7.53.25,15.33,2.93,22.39,5.3l6.77-5.42c1.56-21.44,1.01-44.63,4.08-65.82.07-.46,1.19-.46,1.27-.93.32-1.87.23-14.46,2.97-13.99l-5.58,78.87c.83.85,19.96-6.1,21.3-7.3.66-.59.81-.61,1.05-1.58.72-2.98-.12-13.84-.02-17.77.05-2.17,1.34-5.31,1.13-7.13s-8.69-16.47-10.05-20.37ZM60.62,368.69l-56.54.66v468h586.45v-468.65h-59.17v183.06c-1.01,1.19-2.13,1.46-3.6,1.65-9.69,1.3-22-.04-31.9.64-1.95,48.73-2.97,97.47-2.6,146.28-6.22,7.92-1.99,18.29-3.3,27.6-.76,5.37-7.5,7.02-11.99,8.39-18.71,5.72-78.21,13.21-94.09,2.33-4.36-2.99-2.89-4.43-4.8-8.38-13.22,1.67-26.61,2.77-39.93,1.17-7.96-.95-16.31-2.29-21.45-8.91,1.01-2.31,1.19-5.53,2.14-7.58,5.84-12.6,27.21-16.23,38.49-21.92-2.61-15.42-2.24-31.09-3.11-46.65-.07-1.17-1.36-.73-1.42-1.89-1.72-33.34.05-66.91-.6-100.28-13.77,1.72-5.15-13.35-6.59-21.03-.23-.32-.84.66-.98.66h-16.44c-2.36,0-9.03-3.44-12.57-3.87-4.92-.59-10.56.61-15.41-.37-7.17-1.44-17.05-13.72-25.61-9.56.43,2.61,2.14,5.42,1.94,8.13-.23,3.19-2.68,3.96-3.12,5.48-.56,1.91,6.07,33.06,7.04,38.02,6.65,33.99,12.88,69.21,16.48,103.83,1.22,11.76,4.57,36.04,3.33,46.69-.85,7.32-11,10.25-17.24,11.68-5.48,1.26-11.55.95-16.34,2.07s-12.42,8.05-17.95,10.32c-25.37,10.46-73.12,11.88-99.86,6.26-16-3.37-29.25-12.51-44.33-14.84-17.98-2.78-39.43-.33-52.19-16.22-.43-1.91,1.2-1.47,1.31-2.07,9.5-51.54,18.02-102.2,34.92-152.18.17-.5,2.14-1.01,1.26-3.15-3.68-.19-8.99,1.33-9.82-3.66v-101.07c-16.39-7.42-23.61-25.47-17.46-42.49.97-2.68,5.79-8.1,5.61-10.16s-3.32-3.68-3.98-4.81c-1.55-2.65-4.6-10.78-4.6-13.63v-9.53ZM270.8,371.52c-5.83-8.5-15.74,2.05-10.31,10.31-4.63-.58-11.9,1.75-9.22,7.59,4.63.64,10.3,2.6,11.15,7.91.68,4.24-2.62,10.36,4.37,10.74,5.81.32,7.61-4.82,7.51-9.8.6-.62,11.8,7.09,13.11-1.03,1.47-9.1-7.35-7.86-7.18-9.81,5.36-1.3,10.87-5.38,6.8-11.35-4.51-6.62-12.37,4.25-14.04,3.13-.77-1.97-1.11-6.11-2.19-7.68ZM359.11,368.69h-58.51c.41,4.03.98,8.06.64,12.14-.19,2.38-2.93,10.92-2.67,11.79.17.55,2.16.53,3.08,1.63,3.26,3.9-4.64,14.17-6.33,18.12,12.82,6.02,7,20.75-6.56,18.1,2.99,10.88-2.9,18.71-14.19,14.48-1.22-.46-1.66-1.97-2.02-2.02-3.2-.49-4.81,5.03-5.44,7.5,5.39,2.27,7.86,3.98,10.2,9.52,3.83-.93,7.87-1.37,11.58-2.74,5.29-1.95,35.28-18.93,38.67-22.46,4.05-4.23,12.86-26.64,15.96-33.37,5.1-11.08,9.25-22.36,15.6-32.69ZM377.79,424.3c-4.39-17.1-5.64-35.39-4.22-52.98-4.23,1.26-5.49-.51-7.82,3.82-6.61,12.28.5,35.24,5.19,47.79,1.55,4.16,3.42,8.14,5.28,12.15,1.11,1.01,3.15-4.31,3.22-5.01.36-3.97-1.27-4.3-1.64-5.76ZM243.4,396.95c-.02-4.44-.89-11.94-4.94-14.45-6.01-3.73-10.02,1.66-10.23,7.56-.05,1.53,1.69,7.51.38,7.54-15.14-14.21-23.9,9.76-3.62,10.55.95.97-5.96,4.2-6.55,6.91-1.51,6.98,1.77,10.95,8.89,10.2,5.38-.57,5.82-5.13,8.19-9.23,3.17.56,3.55,4.24,5.89,6.26,7.01,6.04,18.89.14,11.19-9.87-1.62-2.11-4.83-2.93-4.59-5.59,12.83,3.4,17.01-14.64,3.6-13.85-4.03.24-4.67,2.98-8.2,3.99ZM294.25,407.03c1.23-1.66,7.61-9.87,3.94-11.29-4.59-1.78-8.98,2.14-9.94,6.32-.75,3.28,1.77,6.62,1.17,10.01,2.75-.22,3.58-3.34,4.83-5.03ZM284.68,404.98l-8.34-1.4c-.69,2.09-1.24,4.45-2.69,6.19-6.61,7.95-14.36-7.13-18.11-.32-2.02,3.67,6.24,11.14,5.64,13.43-18.32,5.51-2.17,23.53,8.17,8.4l1.57.61c-.16,6.91,6.66,15.9,13.62,9.79,5.74-5.04-1.52-14.02-.37-15.16,5.88,2.92,19.25,1.07,14.1-7.86-4.32-7.48-14.62.06-15.41-.69,2.25-4.74,5.31-7.56,1.83-13ZM238.79,439.01c.45-.55-8.5-10.58-9.17-10.81-.89-.31-3.45.94-5.83.56-5.45-.86-6.34-5.64-9.29-6.54-2.6-.79-5.87-.06-8.58-.29,5.55,11.48,19.98,19.79,32.87,17.07ZM238.79,432.44c-.87-1.25.13-12.39-2.62-10.51l-3.25,5.52,5.87,4.99ZM245.59,432.91c-.99-3.15.84-6.08-4.16-7.03-.45,3.24,1.57,25.87,3.02,26.34l4.9-1.12c.54-1.57-2.06-15.09-2.73-17.48-.14-.51-.99-.56-1.03-.71ZM250.63,427.85c-3.99-1.09-.77,7.55,0,9.2v-9.2ZM498.06,471.04c-.8-10.93-.19-22.26-.85-33.03-.1-1.64-.45-4.87-1.33-6.21-7.21,25.66-19.46,51.61-43.37,65.42-22.34,12.9-50.59,18.93-75.56,24.69-2.28,18.38,21.16,22.65,35.08,23.62,30.29,2.1,63.38-2.54,92.66-9.81,1.44-1.3-3.09-29.5-3.54-33.94-1-9.96-2.4-21.49-3.07-30.75ZM269.03,437.05c-5.21,1.08-9.13,6.98-9.41,11.97-.17,3.16,3.12,1.35,4.47-.16.76-.86,5.49-11.21,4.94-11.81ZM252.6,438.36v12.49c6.11.73,3.14-8.19,6.58-10.19l-6.58-2.3ZM91.44,454.21c-.23-.31-6.19-1.89-7.14-2.7l.09,98.83c.61,1.68,7.16,1.4,7.87.67,5.99-18.7,13.19-36.56,21.69-54.27.27-.57,1.1-.7,1.43-1.38,1.58-3.22,6.8-12.47,7.04-15.29.08-.89.21-1.21-.79-.82-11.36.82-24.18-4.04-28.44-15.27-.99-2.61-1.44-9.38-1.73-9.77ZM137.83,456.5c-.7-1.41-1.43-2.73-1.6-4.33-.98-.62-3.88,12.75-4.41,14.32-4.48,13.29-13.15,25.63-18.97,38.21-22.26,48.09-35.53,104.13-46.24,156.2-2.94,14.27-7.31,29.84-9.07,44.85-.82,7.02.04,8.09,6.46,11.58,14.39,7.84,30.85,5.59,46.07,8.49,12.77,2.44,24.94,10.79,38.67,13.92,25.41,5.79,77.13,4.91,100.84-6.32,4.79-2.27,9.34-6.78,14.35-8.66,7.77-2.92,34.17-2.51,34.75-13.95.24-4.84-.94-16.22-1.37-21.67-2.89-36.44-9.15-75.37-15.7-111.29-3.19-17.46-6.05-34.97-10.05-52.27-1.04-1.84-3.38-.74-4.96-1.95-1.22-.94-1.79-4.85-2.81-5.44-1.28-.75-6.38,2.32-8.48-1.34-1.97-3.44-.7-19.86-1.39-20.63-5.45,1.03-11.23,2.28-16.77,2.61-3.47.21-6.83-1.15-9.21-.99-1.99.13-6.12,2.03-9.2,2.3-16.69,1.47-45.82-2.84-59.7-12.58-11.55-8.1-15.23-19.05-21.2-31.05ZM273.64,462.02c1.03-5.37-5.69-8.69-10.18-9.2-7.91-.9-30.61,3.19-34.55,10.81-2.58,4.99-4.08,27.59-.48,31.11,2.65,2.58,18.45.36,22.22-.83,5.81-1.83,10.05-7.54,15.13-9.2,4.27-1.39,10.62.38,11.22-4.61.98-8.15-10.47-5.18-15.05-5.12-1.18.02-1.85.61-2.75-.81,4.98-4.3,11.85-2.19,17.73-1.65-.41-11.16-11.37-8.52-19.06-7.23l.4-2.03c4.89-1.69,10.25-2.76,15.38-1.26ZM288.67,460.12l-11.74,1.91c-3.62,3.54,16.67,10.74,19.07,11.17,1.54-1.56-6.81-10.88-7.32-13.08ZM310.27,481.94c-3.16-3.4-12.2-4.3-16.23-5.8-1.83-.68-13.79-6.9-14.48-6.22-.12,5.56,2.93,13.85-3.97,16.12,2.19,4.32,3.88,8.82,5.76,13.27.38.91,1.65.94,1.9,2.1.44,2.06-.88,3.9-.1,5.3,1.11,1.98,7.98,3.59,9.89,5.25l.91-2.21c-1.99-1.59-4.21-3.27-4.51-6.06-.33-3,1.79-4.8,1.72-5.84-.1-1.5-3.11-3.21-1.39-7.55,2.41-6.07,14.01.96,19.57-.81,3.01-.96,2.77-5.58.93-7.57ZM319.99,494.23c-1.46.49-9.46,0-11.83,0-3.64,0-19.74,5.42-14.77,11.48,2.87,2.4,20.82-4.39,25.85-1.61.71-.13.54,1.41.42,1.63-1.46,2.74-21.4-1.42-22.33,5.99-.99,7.93,14.66,5.09,19.29,5.61,4.48.5,8.48,2.74,12.87,3.56,9.6,1.81,16.5.22,25.68-2.34l-10.24-32.15c-3.1-5.02-26.48-9.22-32.5-7.27.6,7.54,7.19,2.83,11.17,5.59l-.33,1.64c-3.19-.06-9.86-.8-10.16,3.64-.12,1.8,5.99.65,7.19,1.96,1.22.62.49,2.02-.31,2.29ZM354.12,487.4c-1.15-2.84-1.54-5.89-2.87-8.66-2.58-.56-4.6,1.33-4.48,3.82.19,3.99,5.11,18.34,6.73,22.9.43,1.21,1.38,1.18,1.6,1.8,1.73,4.73,2.86,19.62,9.16,8.52-3.44-8.87-5.59-18.34-9.01-27.19-.32-.83-1.07-1.01-1.13-1.18ZM270.72,494.52c1.48,3.81,2.91,7.57,3.9,11.55l3.63.33c3.6-1.63-3.38-16.89-4.67-18.35-1.61-1.81-3.66-.9-5.85-1.05-.79.7,2.61,6.54,2.99,7.51ZM269.95,502.54c-1.06-3.05-2.7-11.33-4.56-13.53-1.73-2.07-2.97,1.27-2.99,2.91-.06,3.69,3.63,25.69,5.32,28.28,2.68,4.11,6.67.98,6.91-2.61.16-2.42-2.62-11.03-3.52-13.89-.25-.8-1.1-.96-1.16-1.15ZM302.57,492.27c-4.03-1.67-15.05-2.43-8.5,3.65l8.5-3.65ZM259.83,492.92c-1.04-.12-2,.05-2.68.93-1.12,1.46-1.01,20.43.32,21.48,1.03.92,4.4.74,5.27.02,1.67-1.4-2.47-19.16-2.91-22.43ZM373.58,522.49c-3.11,1.48-6.1-2.54-7.54-2.61-1.56-.08-4.09,2.46-6.01,2.61-2.3.19-6.48-4.24-10.12.32-.59.73-2.23,16.41-1.64,17.43.43.76,1.83,1.11,2.68,1.26,10.56,1.84,24.64-7.16,22.64-19.01ZM417.78,702.44c23.2,5.91,49.69,6.92,72.5-1.15l2.53-159.67c-24.12,4.11-50.3,8.52-74.85,7.16-14.37-.8-35.58-2.94-42.74-17.07-4.23,7.09-10.28,11.82-18.71,12.52-.17,49.14-.84,98.34,4.2,147.24,1.33,4.07,17.4,5.09,21.71,5.25s30.4-.83,31.28-3.75l-7.88-129.29c-2.79.03-19.1-8.68-19.09-9.94,0-.11,1.23-1.4,1.62-1.44,1.08-.11,16.29,9.53,19.31,10.08l10.11,140.08ZM413.68,696.68c-17.57,3.87-36.48,4.14-53.91-.65,1.66,2.63,5.3,3.4,7.56,5.25,6.51,5.35,11.73,14.98,13.82,23.01,9.67-9.36,21.94-15.15,34.24-20.36l-1.71-7.25ZM365.03,726.26c.2-9.74-12.3-21.8-21.42-22.96-5.98-.76-24.01,8.5-21.38,16.75,4.19,6.86,34.98,6.16,42.8,6.21ZM487.31,705.88c-13.8,3.22-28.16,4.68-42.39,3.93-8.32-.44-18.31-3.66-25.67-3.93-.81-.03-2.11-.35-1.63.97.2.55,8.93,4.64,10.2,5.59,6.62,4.97,12.73,15.26,15.19,23.06,15.03-1.54,30.5-3.63,44.3-9.91v-19.72ZM420.67,722.55c-4.15-3.9-14.56-9.79-20.32-8.63-4.39.88-21.37,12.09-16.09,18.74,14.11,6.39,30.09,5.02,45.19,4.11,1.86-1.81-7.17-12.7-8.79-14.22Z"/>
  <rect x=".14" y="841.29" width="595" height=".66" fill="#fff"/>
  <path d="M60.62,368.69v9.53c0,2.85,3.04,10.98,4.6,13.63.66,1.13,3.81,2.85,3.98,4.81.18,2.06-4.64,7.49-5.61,10.16-6.15,17.03,1.07,35.07,17.44,42.49v101.07c.84,5,6.16,3.47,9.83,3.66.88,2.13-1.09,2.65-1.26,3.15-16.91,49.98-25.42,100.64-34.92,152.18-.11.6-1.73.16-1.31,2.07,12.76,15.89,34.21,13.44,52.19,16.22,15.08,2.33,28.33,11.47,44.33,14.84,26.74,5.62,74.49,4.19,99.86-6.26,5.52-2.28,13.18-9.21,17.95-10.32s10.86-.81,16.34-2.07c6.24-1.44,16.39-4.36,17.24-11.68,1.24-10.65-2.11-34.93-3.33-46.69-3.61-34.62-9.83-69.84-16.48-103.83-.97-4.96-7.6-36.11-7.04-38.02.44-1.52,2.89-2.29,3.12-5.48.2-2.7-1.52-5.52-1.94-8.13,8.55-4.16,18.44,8.12,25.61,9.56,4.85.97,10.49-.23,15.41.37,3.54.43,10.21,3.87,12.57,3.87h16.44c.14,0,.74-.98.98-.66,1.44,7.68-7.18,22.75,6.59,21.03.65,33.37-1.12,66.94.6,100.28.06,1.17,1.35.72,1.42,1.89.87,15.56.51,31.23,3.11,46.65-11.28,5.69-32.65,9.32-38.49,21.92-.95,2.04-1.13,5.27-2.14,7.58,5.14,6.62,13.49,7.96,21.45,8.91,13.31,1.6,26.71.5,39.93-1.17,1.9,3.95.43,5.39,4.8,8.38,15.88,10.88,75.38,3.39,94.09-2.33,4.49-1.37,11.23-3.02,11.99-8.39,1.31-9.31-2.93-19.68,3.3-27.6-.36-48.81.65-97.55,2.6-146.28,9.91-.68,22.21.66,31.9-.64,1.48-.2,2.59-.46,3.6-1.65v-183.06h59.17v468.65H4.08v-468l56.54-.66ZM46.81,394.33c-6.13-3.02-12.56,14.47-8.87,14.44,1.77-6.69,4.89-9.31,8.87-14.44ZM558.73,401.79c.85,1.87,2.53,10.75,4.51,10.27l6.92-16.74c-4.85-3.02-4.67,8.45-7.88,10.17-.69-4.01-2.25-10.33-7.24-10.51-1.38,1.43,3.39,6.13,3.7,6.81ZM30,400.64c2,3.21,2.09,3.83,3.57,7.26s2.85,2.84,2.46-.45c-.46-3.94-4.44-13.14-9.59-12.46-.86.74,3.12,4.96,3.56,5.65ZM571.19,407.84c1.05-.98,7.34-6.37,4.54-6.94-1.61-.33-9.34,6.39-8.2,9.2,1.88.38,2.5-1.17,3.66-2.26ZM557.93,409.87c-.82-1.84-4.16-10.36-7.49-7.65-.76.62,3.29,4.28,3.84,5.03.97,1.34,1.94,7.02,4.71,4.16,1.02-1.05-1.01-1.45-1.05-1.54ZM50.14,460.68c.54-5.58-1.29-10.44-7.61-10.34-5.61.08-6.82,4.75-7.95,5.03-1.37.34-3.99-2.42-8.33-.41-8.37,3.88-1.7,11.51-1.87,12.57-.12.76-2,1.79-2.47,2.81-4.44,9.74,3.21,15.43,12.43,11.7,4.25,5.48,2.26,12.98,3.91,19.43l-5.58-6.58c-9.51-6.2-19.73-4.33-10.74,8.11s33.02,10.44,38.34-4.17c2.98-8.21-6.9-6.96-11.47-4.24-3.07,1.83-5.16,6.77-8.57,8.19l-.67-15.12c10.93,2.78,9.04-8.1,10.58-9.8.59-.64,8.63-.66,9.76-6.34,1.53-7.69-2.65-10.66-9.78-10.84ZM562.26,504.75v-9.86c4.5,2,11.22-.32,11.82-5.66.18-1.62-1-3.95-.37-4.88,1.13-1.69,7.99-1.91,7.66-8.84-.34-7.2-8.38-6.7-9.15-7.66-.29-.36-.16-3.31-.8-4.64-2.19-4.59-9.83-5.69-13.57-2.31-.67.61-.96,2.97-2.14,3.47-.49.21-2.74-1.08-4.29-1.09-8.7-.07-10.32,9.23-3.62,13.55-9.5,9.56.03,18,11.14,13.49l.38,15.76c-2.58,2.27-2.96-2.13-4.92-4.3-2.67-2.96-12.31-7.61-12.55-1.32-.28,7.31,10.52,15.29,17.04,15.77s22.19-7.32,19.18-15.77c-6.17-2.1-11.35-.1-15.8,4.3ZM47.48,561.28c.53-1.92-3.18-12.63-5.92-9.86-1.46,1.47,1.54,3.16,1.82,3.73,2.11,4.39,2.66,9.25,3.44,14.01,1.51,1.3,5.52-10.62,6.53-12.02.93-1.28,4.75-1.52,3.98-5.07-5.14.25-6.17,5.31-8.38,8.35-.4.55.08,1.21-1.48.85ZM41.84,563.62c-1.82-2.74-5.32-7.81-8.82-4.64,1.53,1.76,3.6,2.21,5.27,3.92,1.79,1.82,3.45,7.69,5.89,5.27-.11-2.17-1.41-3.14-2.34-4.55ZM54.48,565.02c-.37.58-2.26.56-1.74,2.5,1.15,4.32,8.17-6.12,7.88-7.21l-1.98-.68c-2.08,1.53-2.88,3.37-4.16,5.39ZM317.9,568.71c-.68,1.97-2.46,13.52,1.42,12.28,1.9-4.82.37-10.57,3.6-15.45l-2.57-.95c.42,1.66-2.37,3.89-2.45,4.12ZM315.71,580.99c1.08-3.01-3.75-13.29-6.89-12.48s1.82,4.98,2.19,5.68c.55,1.05,2.72,8.9,4.7,6.8ZM321.64,580.99l5.91-8.22c1.08-.53.15-1.56-.34-1.64-3.28-.54-6.67,6.91-5.57,9.86ZM551.08,571.14c-6.56-.07-8.44,7.09-10.85,11.82-1.78-4.47-3.85-9.16-8.54-11.2l-1.67,2.28c4.97,3.08,7.67,8.38,8.73,14.03l3.14-.33c.57-3.02,1.5-6,3-8.7.89-1.6,7.29-6.82,6.19-7.9ZM555.69,580.34c-2.76-1.69-12.45,6.12-10.51,7.88l3.14-.15,7.37-7.73ZM30.8,628.55l2.54,4.36c1.38-.01,4.1-10.71,4.47-12.62.23-1.18.93-1.49-.54-2.48-2.15-.33-3.51,7.6-3.61,9.2-.92-1.35-8.57-10.34-9.85-6.89-.4,1.09,6.13,6.84,6.99,8.44ZM42.62,626.76c1.21-1.61,5.11-5.87,5.52-6.65,2.13-4-5.45.77-6.81,2.48-1.83,2.31-3.25,6.05-3.06,9.02l1.98-.45c-.07-2.3,1.35-3.06,2.36-4.41ZM542.38,618.64c-6.72.84-18.87,6.79-14.68,14.99,8.85,2.89,22.62,5.13,31.42,1.74,5.1-1.96,4.73-4.41,2.19-9.05-3.37-6.18-12.43-8.5-18.93-7.68ZM326.23,640.81c.02-4.21,1.63-8.79,2.02-12.8.05-.56,1.11-2.13-.38-2.32-3.44-.43-3.98,11.37-3.28,13.83.34,1.17.17,1.53,1.64,1.29ZM318.79,633.79c1.59,2.04,1.43,5.05,3.17,7,2.78-4.72-1.64-12.89-7.56-12.47-1.05,3.22,2.97,3.65,4.38,5.47ZM335.44,630.3c-2.43-2.25-8.48,9.3-7.22,10.51,2.4,2.32,6.54-8.48,7.22-10.51ZM543.21,688.79c.48-2.1-5.41-15.73-7.89-13.14l7.64,20.4,2.21-.03.73-5.38,9.49-13.01-.69-1.98-2.08.88-9.4,12.27ZM535.1,688.34c-.82-1.05-7.11-6.61-8.33-5.46-.45,2.82,2.54,3.14,3.94,4.93,1.74,2.23,5.4,11.36,7.12,6.03,0-.31-2.33-4.99-2.73-5.5ZM559.64,687.47c-1.75-6.55-12.3,5.24-11.84,7.55,2.1,2.73,4.22-3.17,6.25-4.91,1.48-1.28,3.53-2.61,5.58-2.64ZM543.86,779.5v22.35c-3.82-11.04-16.3-21.98-28.24-16.02,1.3,22.58,37.31,30.19,50.48,13.61,1.41-1.78,6.29-10.3,5.27-11.95-10.24-4.24-17.63,2.98-24.21,9.76.33-1.98-1.3-1.66-1.4-3.59-.14-2.85,1.33-2.07,1.44-3.27.17-1.86-.41-11.03-.04-11.54,10.03,10.8,24.97-.46,16.43-12.48,16.85-5.15,9.62-22.43-5.91-19.73,1.3-14.5-18.82-16.73-19.73-1.97-13.97-6.12-26.76,11.79-9.88,17.77-7.01,13.22,1.68,25.42,15.8,17.06ZM66.32,747.51c-6.69-8.84-23.52-8.96-31.1-1.28-2.71,2.75-6.08,9.42-1.28,11.64,5.14,2.37,31.07,3.09,33.58-2.01.78-2.73.52-6.05-1.21-8.34ZM314.92,763.91c-6.08.6-20.79,9.02-13.04,15.29,3.61,2.92,27.82,3.51,30.33.03,3.54-9.92-8.98-16.14-17.29-15.32ZM117.21,779.45c5.97-13.03-8.96-20.59-16.81-9.81-9.25-11.19-24.35-.72-14.8,11.16-6.98,1.72-8.51,13.28-1.69,15.84,2.77,1.04,7.61.04,8.95.91,1.16.75,1.27,5.7,5.41,7.08,7.71,2.56,11.83-1.29,13.06-8.61,13.35,2.62,18.16-11.38,5.87-16.57ZM215.78,792.65c.88-3.26-3.51-15.72-7.52-14.45-2.75,1.68,1.96,4.14,2.85,5.79,1.27,2.36,1.6,5.74,2.64,8.26l2.03.4ZM228.27,779.51c-.98-.97-6.54,2.9-7.51,3.98-1.09,1.21-4.97,7.44-2.66,8.5s2.12-2.94,3.05-4.2c1.08-1.45,8.51-6.91,7.13-8.28ZM486.28,793.7c-5.6-12.67-19.22-15.63-31.81-12.52-9.12,2.26-25.64,13.75-9.25,19.04,10.83,3.49,33.65,4.58,42.08-4.09.57-2.14-.87-2.09-1.02-2.43ZM209.21,793.96c-.68-5.14-4.99-10.64-10.51-9.85-.06,2.77,3.67,2.91,5.05,4.15.99.89,3.78,7.33,5.46,5.7ZM378.55,802.24c.54-1.33,3.96-5.69.72-5.56-4.46.17-6.99,15.53-5.62,16.27l2.55.08c.09-2.75.24-6.56,1.08-9.14.41-1.28,1.21-1.5,1.28-1.65ZM370.94,814.34c1.86-4.15-7.85-12.47-10.53-10.87l-.64,1.65c3.12,1.01,5.68,3.25,7.77,5.68,1.31,1.53.61,4.24,3.4,3.53ZM386.06,803.17c-3.23-.9-8.72,8.33-7.22,9.85,1.17.13,1.44.15,2.25-.7.6-.63,5.54-8.58,4.97-9.15Z" fill="#fff"/>
  <path d="M590.54,3.89v212.31c-18.85-8.38-40.23,5.38-41.42,25.63-6.16-3.2-13.48-3.96-19.72-.66-.66-.79-1.63-19.6-1.34-20.58.18-.61,7.82-3.94,7.89-9.31.07-5.64-7.65-13.33-13.79-11.51-.46-3.31,2.14-3.86,1.36-7.59-.26-1.21-1.25-.97-1.46-1.85-5.16-21.41-9.85-40.72-20.86-59.98l-.07-.9c25.11-8.63-3.23-18.71-15.14-16.72-.02-8.4-3.41-8.31-7.82-12.59-8.3-8.06-16.14-16.24-25.47-23.17-22.48-16.68-49.23-29.06-77.14-32.98,3.74-12.06-7.64-18.53-17.43-11.89-4.41-9.06-16.95-11.24-21.78-1.2-7.06-3.05-26.34-7.16-21.27,6.51l-21.04-.66,1.19-5.14c-7.73-3.61-17.64-2.4-25.51.22-1.27.42-3.2,2.45-4.24,2.34-.21-.02-1.37-2.36-2.77-3.23-7.33-4.58-14.68-.67-17.33,6.47-9.46-5.6-19.95-2.73-20.1,9.28-28.57,6.45-55.55,20.28-78.17,38.72-2.78,2.27-8.09,9.07-10.89,10.14-1.66.63-3.48.15-5.12.8-9.21,3.64-9.64,9.42-5.37,17.96-7.67-2.19-14.98-1.79-22.13,1.87-2.24,1.14-4.78,1.61-4.47,4.78.62,3.95,8.6,6.99,11.47,9.45-3.24,4.97-5.27,10.56-7.68,15.94-.34.76-1.34.85-1.69,1.66-7.06,16.35-12.54,36.25-14.31,53.69-14.89.14-17.61,18.68-1.94,20.42-1.28,2.43-3.18,4.64-3.31,7.58s1.48,4.51,1.68,6.52c.58,6.07-2.42,14.92-1.65,21.38-6.19-2.4-11.09-5.44-18.09-5.3s-12.08,3.52-18.06,5.96c-2.68-19.62-26.73-27.95-41.42-14.46V3.89h586.45ZM94.82,59.76c-4.17-26.06-47.43-26.85-50.65.64-4.88-.43-7.54-2.53-12.8-1.95-7.8.86-15.36,9.92-15.5,17.42-.15,8.52,5.93,11.53,13.5,12.18,33.01,2.84,70.83-3.22,104.41-.83,19.1-7.9,2.36-28.39-13.32-19.57-.61-9.72-11-14.28-19.72-11.49-2.73.87-3.68,2.62-5.93,3.6Z" fill="#fff"/>
  <path d="M137.83,456.5c5.97,11.99,9.65,22.94,21.2,31.05,13.88,9.74,43.01,14.05,59.7,12.58,3.09-.27,7.22-2.17,9.2-2.3,2.38-.16,5.74,1.19,9.21.99,5.55-.33,11.32-1.59,16.77-2.61.7.76-.57,17.19,1.39,20.63,2.1,3.66,7.2.59,8.48,1.34,1.01.59,1.59,4.51,2.81,5.44,1.58,1.21,3.92.12,4.96,1.95,4,17.3,6.86,34.81,10.05,52.27,6.55,35.92,12.82,74.85,15.7,111.29.43,5.45,1.61,16.83,1.37,21.67-.57,11.45-26.97,11.04-34.75,13.95-5.01,1.88-9.57,6.39-14.35,8.66-23.7,11.23-75.43,12.11-100.84,6.32-13.74-3.13-25.9-11.48-38.67-13.92-15.22-2.91-31.68-.66-46.07-8.49-6.41-3.49-7.28-4.56-6.46-11.58,1.76-15,6.14-30.57,9.07-44.85,10.71-52.07,23.99-108.1,46.24-156.2,5.82-12.58,14.49-24.92,18.97-38.21.53-1.56,3.42-14.93,4.41-14.32.17,1.6.9,2.93,1.6,4.33ZM163.18,505.42c-.09-.1-2.4-.77-2.59-.66-1.58.96-8.81,31.29-9.97,35.6-12.2,45.29-26.23,102.7-29.5,149.43-.1,1.43-.57,9.18.33,9.51,1.45.33,1.21-2.16,1.42-3.16,6.36-29.15,8.57-61.33,14.74-91.62s14.61-68.82,24.3-97.31c.14-.41,2.26-.78,1.27-1.8ZM240.1,528.41c-.19-.15-1.42.08-1.95,0,1.19,15.76,3.9,31.4,5.82,47.09,4.66,38.02,5.75,77.06,9.97,115.58.21,1.88.41,4.77,1.63,6.24,1.47.02,1.04-8.72,1.01-10.2-.79-38.92-6.14-80.55-11.18-118.42-.67-5-3.71-39.02-5.29-40.29Z" fill="#fff"/>
  <path d="M440.6,144.56l16.47,32.85c-6.29-2.04-13.53-1.6-19.76-2.92-15.56-3.29-22.45-10.06-41.04-8.9s-28.26,11.31-45.2,15.29c-8.17,1.92-14.86,3.07-21.49,8.75-11.84,10.13-12.16,33.15,5.79,36.48l-2.19,32.85c-2.59,5.19-7.05,7.84-9.69,13.32-4.69,9.74-2.91,17.43,8.64,18.85l-.65,30.88c-18.78-5.45-38.58-4.91-52.92,9.83-1.2-1.6-5.4-3.39-5.55-5.53-.1-1.5,3.38-11.32,3.82-14.57.7-5.15.61-11.13.74-16.35,5.22-4.87,11.85-7.19,9.84-16.41-1.12-5.14-11.13-6.64-14.13-9.54-2.64-2.56-5.56-12.47-4.79-15.97.26-1.19,6.28-8.44,7.61-12.13,5.83-16.19.15-33.01-15.58-40.33,4.44-9.56.27-17.3-10.85-15.67-1.7.25-4.4,2.29-5.86,1.85-.87-.26-3.82-5.09-8.04-5.8-4.92-.83-6.54,1.46-9.15,1.63s-9.15-2.12-12.52-2.32c-24.41-1.49-47.22,2.82-68.02,15.76-.47-.62,2.75-13.44,3.34-15.25,17.05-52.25,61.17-85.39,114.86-94.32,56.22-9.35,122.11-1.7,163.51,40.56,1.54,3-1.9,3.29-3.25,5.29-2,2.94-6.2,12.21-2.99,14.75,4.99,3.94,18.15-3.5,19.02-2.94ZM319.66,119.57c-.26-6.33-13,.15-15.49,2.6-2.21,2.17-2.86,5.44-4.56,7.91-2.58-1.97-7.26-3.94-10.52-3.98-1.65-.02-11.1,2.28-8.88,4.65,5.88-1.89,12.01-2.2,17.31,1.43,2.18,1.49,2.45,4.17,5.04,3.83-1.29-9.52,8.07-16.96,17.1-16.43ZM362.9,159.14c-5.27-3.49-17.58,3.45-21.83,7.14-3.42-5.99-9.87-7.44-16.37-6.51l-1.09,2.52c5.4-.3,10.11.01,14.15,3.93,1.61,1.56,2,4.75,4.56,4.67,1.74-.19,2.23-3.08,3.6-4.35,4.85-4.52,10.27-5.17,16.71-4.99,1.39-.27.78-2.06.27-2.41Z" fill="#fff"/>
  <path d="M417.78,702.44l-10.11-140.08c-3.02-.55-18.23-10.19-19.31-10.08-.39.04-1.62,1.33-1.62,1.44,0,1.26,16.3,9.97,19.09,9.94l7.88,129.29c-.88,2.92-27.19,3.91-31.28,3.75-4.31-.16-20.38-1.18-21.71-5.25-5.04-48.9-4.38-98.1-4.2-147.24,8.43-.7,14.48-5.42,18.71-12.52,7.17,14.13,28.38,16.28,42.74,17.07,24.55,1.36,50.74-3.05,74.85-7.16l-2.53,159.67c-22.81,8.07-49.3,7.06-72.5,1.15Z" fill="#fff"/>
  <path d="M401.84,220.14c-3.04,0-4.92,2.12-7.89,2.96-12,3.38-31.02,1.17-36.02-11.97-.94-2.46-.22-4.83-1.78-6.75-3.49,1.9-2.37,5.56-4.65,9.14-6.22,9.76-24.2,14.02-26.94-.58-2.08-11.06,2.03-18.64,11.34-24.22,9-5.39,16.07-3.71,24.71-6.84,9.11-3.3,14.61-9.69,25.98-12.15,23.19-5.03,29.86,2.56,49.66,7.14,5.63,1.3,11.56.86,17.03,2.04,33.21,7.16,28.73,47.61,40.29,71.46,7.02,14.48,23.36,17.32,23.36,36.48,0,6.3-4.58,11.84-4.58,14.48,0,1.31,3.34,8.18,3.82,11.24,2.52,16.09-3.55,23.81-19.34,26.53.92,4.13-3.1,16-8.36,15.02-.96-.18-9.99-8.04-12.23-9.51-16.17-10.55-32.67-15.01-38.46-35.8-1.67-6-2.3-12.31-2.43-18.54,29.13-4.92,28-51.12-5.09-42.03-4.07,1.12-6.95,4.56-10.66,3.47.92,26.36,8.97,53.91-11.5,74.94-12.79,13.14-38.42,21.38-56.49,18.99-24.33-3.21-17.95-37.42-16.83-54.5,9.1-.84,16.6-5.2,25.98-5.9,9.99-.75,19.64,2.35,28.27,2,15.26-.63,15.48-27.19,20.66-37.17-3.35-5.74-5.01-9.13-6.57-15.63-.17-.7-1.29-.42-1.29-.49v-13.8ZM367,295.73c-.93-1.07-7.48,5-9.19,5.6-1.33.47-4.72.91-6.24.99-2.03.11-11.45-1.6-10.87.95,4.71,3.09,11.11,2.77,16.3,1.19,2.29-.7,12.49-5.88,9.99-8.74Z" fill="#fff"/>
  <path d="M269.96,212c6.75,8.71,7.39,20.3,2.68,30.47-.99,2.14-4.72,8.6-6.2,4.91s-1.37-6.67-3.74-10.72c-1.98-3.39-9.25-11.24-13.58-9.84-1.05.34-9.55,10.22-11.63,12.05-14.14,12.46-32.45,21.6-50.32,27.25-4.2,5.88,10.91-1.3,11.52-.63-1.49,5.57-4.12,11.9-8.97,15.72-4.3-2.11-6.23-6.9-10.55-9.03-22.49-11.08-34.11,24.29-13.39,35.74,2.07,1.14,5.28,1.43,6.84,2.37,3.73,2.24,3.34,15.1,3.04,19.27-.63,8.85-3.37,21.25-10.49,27.64-22.49,20.16-39.77,21.63-37.48,59.13,1.1,18.06,8.08,23.74,3.36,43.48-1.4,5.84-3.62,11.26-6.63,16.37-15.36,2.92-31.93-6.68-30.37-23.92-9.91-3.15-19.92-8.43-25.43-17.63-2.26-3.78-4.71-10.64-4.77-14.99-.12-8.6,5.28-15.45,8.56-23.02-14.81-17.5-9.57-36.91,4.29-52.93,31.6-25.08,26.43-66.9,41.45-100.59,4.17,1.17,10.15-.07,13.78.72,1.93.42,2.31,2.18,3.69,2.88,4.4,2.26,8.59.5,13.05-.24,4.99,12.81,22.58,9.51,19.77-5.29,4.91.19,8.55.48,11.31-4.14.63-1.06,1.08-4.19,1.26-4.33.53-.41,10.82-.17,13.07-2.04,1.87,10.18,17.95,9.69,19.47-.65.29-1.94-.88-3.48-.12-5.32,7.31-.82,13.21-4.14,12.22-12.44,1.19,1.29.52,3.81,1.1,5.79,3.24,11.07,16.11,9.18,19.45-.77,11.9,4.88,18.54-2.89,12.98-14.23,4.48,2.21,7.73,5.03,10.77,8.95Z" fill="#fff"/>
  <path d="M498.08,380.3c6.33,28.57-10.28,81.05-31.47,102.77-15.32,15.7-51.19,27.5-72.52,32.66-4.07.99-22.6,5.59-24.96,3.32l-15.28-41.9c22.38-7.93,44.26-17.41,64.9-29.11,2.96-5.76,4.66-12.14,7.23-18.05,7.2-16.56,16.74-46.35,30.08-58.03,1.5-1.32,14.43-8.98,4.41-6.11-15.42,4.42-28.75,43.17-34.49,56.91-2.23,5.35-6.08,18.71-9.02,22.5-1.56,2.02-11.47,7.22-14.32,8.69-7.94,4.08-16.56,7.12-24.72,10.73l-.22-18.92,56.67-62.01-4.27-16.38c4.37-1.24,9.19-.11,13.42-.72,10.21-1.47,11.99-19.72,16.29-26.43.36-.56.49-1.27,1.4-1.03,20.04,10.73,31.69,17.79,36.86,41.11Z" fill="#fff"/>
  <path d="M229.59,361.46c.42-.44,5.76,4.04,6.27,4.57,2.75,2.81,13.61,19.82,12.69,23.22-.37,1.36-1.87,2.02-3.18,1.8-.57-16.36-20.91-16.23-20.39.65-14.01-6.31-22.1,12.88-7.23,17.76l-2.63,9.85c-2.65-1.02-9.53-1.27-11.48.68l-.84,2.17c6.42,13.74,21.54,21.7,36.59,20.22l1.98,11.04-13.15,5.67-30.77-8.3c-1.9-19.32-3.96-39.7-14.21-56.46l-2.31-.32c1.3,3.46,2.79,6.86,4.22,10.26,3.63,8.66,5.82,15.72,7.42,25.42.49,2.94,2.91,19.2,1.53,20.22-.59.44-2.98-1.34-3.95.61l36.8,10.86c-5.31,10.69-3.04,23.31-2.07,34.73-20.31,2.09-49.2.86-65.95-12.42s-30.73-58.23-28.54-79.75,17.26-29.58,33.11-41.83c1.73-1.34,7.84-7.91,8.39-8.1,4.35-1.51,19.84,11,24.38,13.48,11.45,6.26,30.53,12.79,33.32-6.02Z" fill="#fff"/>
  <path d="M322.13,49.74c-.3.29-5.98,1.81-7.92,2.92-3.77,2.16-18.26,15.28-9.7,17.97,9.39,2.95,23.43-1.74,30.6-8.23l1.87,9.29c6.23,9.13,18.82,4.98,21.83-4.73,8.75,2.01,15.91,8.68,24.72,10.11,22.99,3.73,11.11-13.7-.15-20.22-2.61-1.51-5.51-1.81-7.14-2.72-1.77-.98-3.31-4.01-5.95-4.25l.41-1.36c1.58-.24,2.17-2.36,3.71-2.42,1.72-.07,11.17,2.23,13.62,2.82,23.47,5.66,48.49,18.92,67.37,33.87,3.47,2.75,14.94,12.24,16.82,15.39.48.8.84,1.31.63,2.33l-7.23,1.98c-1.11-9.79-14.58-13.8-20.72-5.93-5.35-9.63-17.89-14.42-28.5-11.72-.35,12.48,9.59,21.91,20.94,24.89-3.34,3.27-6.86,5.47-6.6,10.81.11,2.23,2.46,4.64.36,6.25-41.32-43.21-107.3-51.99-164.28-43.28-53.03,8.11-98.25,39.25-117.79,89.92-2.39,6.21-4.79,22.97-6.85,26.53-1.17,2.01-10.6,7.67-12.21,10.97.48-6.92-3.86-10.1-10.19-11.18,3.97-4.26,4.69-7.99,5.97-13.28.13-.55,1.12-.32,1.31-1.46.45-2.75-2.15-14.57-5.12-15.4-6.49-1.8-17.54,13.97-16.63,20.29-6.64-2.07-11.24.84-14.45,6.57,2.58-23.28,11.71-44.8,21.8-65.61l6.48.88c-5.47,6.96-12,13.7-9.26,23.72,9.49,1.84,22.65-5.59,26.35-14.85,8.45,12.1,24.43,6.84,23.66-7.9,17.52,3.97,25.27-16.85,6.58-21.04-.21-4.27,5.62-4.09,8.54-5.58,7.49-3.84,15.82-14.89,13.19-23.7-6.58-1.05-13.77.5-18.79,4.96-1.61,1.43-5,6.68-5.59,6.95-1.59.72-3.7-.93-5.58-1.03-5.76-.32-10.16,2.52-13.16,7.24l-4.92-3.63c22.69-23.79,54.28-40.42,86.38-47.69l1.69,3.94c-1.88.82-5.64,3.21-6.82,4.71-.85,1.08-.6,2.96-1.21,3.73-1.1,1.38-10.45,5.64-13.31,8.71-16.56,17.83,9.76,16.74,20.65,9.47,4.38-2.92,7.2-8.34,12.87-8.82-.45,15.95,21.88,15.68,23.36.67,7.25,3.22,14.07,6.96,22.38,5.62s7.24-4.95,3.79-11.09c-3.05-5.42-9.8-7.74-10.29-8.45s-.27-5.06-1.38-6.39c3.25-1.67,6.71-2.81,9.48-5.34,1.35-1.23,4.69-6.88,5.08-7.08,1.03-.51,21.11.78,23.06,1.32,2.23.61,9.15,6.74,6.23,9.56Z" fill="#fff"/>
  <path d="M273.64,312.82c-4.41,32.16-40.6,32.48-64.36,20.63-1.51-.75-4.3-4.2-5.67-2.23-2.83,4.07,14.24,8.42,15.15,9.84.81,1.27-.37,6.69.82,9.71,2.31,5.86,11.12,5.71,5.69,15.25-1.58,2.77-2.58,3.31-5.58,4.28-14.93,4.85-32.41-15.25-45.98-19.36,1.55-1.32,1.8-2.57,2.29-4.6,2.58-10.76,2.1-23.4,1.74-34.41.66-1.66,13.45-2.22,12.39-6-.61-2.17-6.82,1.92-8.93,2.23-28.53,4.17-30.72-38.87-6.56-34.73,8.92,1.53,10.34,15.99,19.14,7.86,5.48-5.06,6.72-15.16,8.88-17.41,1.58-1.63,8.56-4.11,10.94-5.5,9.44-5.5,18.87-11.73,27.17-18.85,1.65-1.41,8.86-9.56,9.53-9.62,3.35-.31,10.05,7.95,11.4,11.02,3.32,7.5,4.24,24.33,7.72,29.09,3.07,4.2,14.62,5.87,15.36,10.97,1.17,8.14-8.59,8.87-9.69,12.57-.99,3.33.68,13.38-2.12,15.63-4.38,3.53-13.69.89-18.21-1.51-.91-.49-6.26-6.03-6.77-3.08-.44,2.56,9.66,8.2,12.16,8.2h13.48ZM252.51,245.87c-5.3-4.55-24.1,9.63-22.9,14,.9,3.3,9.31-4.85,10.71-5.67,2.19-1.29,11.15-4.31,11.64-4.79.93-.89.83-2.38.55-3.53ZM251.77,265.02c-7.43-6.44-11.55,16.75-2.75,17.6,5.13.49,5.39-15.31,2.75-17.6ZM169.11,281.93c.38,3.42,5.06,3.37,7.19,4.96,1.05.79,5.88,9.66,6.61,6.51-.73-5.97-7.53-12.66-13.8-11.48Z" fill="#fff"/>
  <path d="M495.86,541.23l11.22-4.56c2.24-3.68-2.1-24.02-2.66-29.63-3.65-36.11-3.92-67.15-2-103.2.98-18.33-.54-32.08-11.22-47.24,4.94-3.29,9.39-9.32,8.63-15.49,19.63-2.98,21.38-17.48,18.07-34.23-.35-1.78-2.25-4.15-2.17-5.45.05-.84,2.35-5.48,2.81-7.66,5.87-27.87-15.72-28.55-24.02-48.3-.97-2.31-5.05-13.87-3.3-15.16l9.56-4.24c2.07,2.92,2.7,6.41,6.03,8.42,9.42,5.68,20.73-4.59,15.34-13.69h2.62c.94,14.1,2.83,28.22,3.32,42.37,2.89,83.98-.33,170.79-.08,255.05.01,3.67,1.43,31.98-.36,32.59l-31.8.62v-10.19Z" fill="#fff"/>
  <path d="M498.06,471.04c.68,9.26,2.07,20.79,3.07,30.75.45,4.43,4.98,32.64,3.54,33.94-29.28,7.27-62.37,11.9-92.66,9.81-13.92-.96-37.35-5.24-35.08-23.62,24.98-5.77,53.22-11.79,75.56-24.69,23.92-13.81,36.16-39.76,43.37-65.42.88,1.35,1.23,4.57,1.33,6.21.67,10.77.05,22.1.85,33.03Z" fill="#fff"/>
  <path d="M4.08,248.73c6.35-8.96,16.97-11.44,26.88-6.49,7.32,3.65,13.19,14.51,12.57,22.59,3.77-1.92,4.63-5.24,8.95-7.15,7.44-3.3,27.27-3.57,28.57,6.78l-.71,67.42c-4.67-1.67-8.93-1.53-13.76-.73-4.68-14.63-17.36-17.05-30.28-10.45-1.14-16.04-19.62-19.82-32.22-13.81v-58.17Z" fill="#fff"/>
  <path d="M590.5,305.56c-4.29.1-7.75,3.94-10.81,6.59-13.31-15.72-35.59-14.49-48.32,1.32l-1.21-69.56c6.71-4.23,14.67-3.24,19.06,3.69l1.82.11c.99-4.26.77-8.46,2.05-12.75,4.25-14.21,24.99-23.81,37.31-14.36l.1,84.96Z" fill="#fff"/>
  <path d="M365.94,419.72c1.36,3.9,9.83,18.46,10.05,20.37s-1.07,4.96-1.13,7.13c-.1,3.94.74,14.79.02,17.77-.23.97-.39.99-1.05,1.58-1.34,1.2-20.48,8.15-21.3,7.3l5.58-78.87c-2.74-.47-2.65,12.13-2.97,13.99-.08.47-1.2.46-1.27.93-3.07,21.18-2.52,44.38-4.08,65.82l-6.77,5.42c-7.06-2.37-14.86-5.04-22.39-5.3-7.56-.25-13.16,3.68-19.7-2.66-2.44-2.37-3.75-6.49-5.58-9.35-.89-1.39-4.37-2.33-3.18-5.63,13.19-7.21,27.87-13.86,39.23-23.53,3.39-7.44,28.37-65.87,31.99-66.65.81-.18,1.72.74,1.63,1.6-7.98,14.39-4.28,35.17.92,50.08Z" fill="#fff"/>
  <path d="M399.21,224.74c-.15,4.89.09,9.88,1.51,14.6.94,3.13,5.56,8.86,5.67,10.69.07,1.2-5.54,20.62-6.5,23.05-6.9,17.57-12.97,9.75-27.32,8.86-3.47-.21-8.38-.29-11.81,0-8.92.78-30.25,11.58-35.85,2.94-6.07-9.37,8.34-17.66,10.36-23.83,2.2-6.75-.39-31.54,3.74-35.7,1.24-1.24,3.85-1.22,5.6-2.29,4.33-2.65,7.39-6.03,11.47-8.78,9.79,14.5,27.58,15.58,43.13,10.46ZM376.6,235.54c-5.79-4.88-34.73-11.47-31.29,2.51,6.39,1.98,14.34,1.38,21.29,2.54,5.13.85,11.01,6.11,12.23-2.86-.81-.62-1.48-1.56-2.23-2.19ZM354.89,267.75c8.7,9.6,10.2-14.5,3.19-15.42s-7.03,11.18-3.19,15.42Z" fill="#fff"/>
  <path d="M359.11,368.69c-6.35,10.33-10.5,21.61-15.6,32.69-3.1,6.74-11.9,29.14-15.96,33.37-3.39,3.54-33.38,20.52-38.67,22.46-3.72,1.37-7.75,1.82-11.58,2.74-2.33-5.54-4.81-7.25-10.2-9.52.63-2.47,2.24-7.99,5.44-7.5.36.05.8,1.57,2.02,2.02,11.29,4.22,17.19-3.61,14.19-14.48,13.56,2.65,19.38-12.08,6.56-18.1,1.69-3.95,9.59-14.23,6.33-18.12-.92-1.1-2.92-1.09-3.08-1.63-.26-.87,2.48-9.41,2.67-11.79.33-4.09-.23-8.11-.64-12.14h58.51Z" fill="#fff"/>
  <path d="M590.54,308.22v57.84h-59.17v-47.65c6.28-7.74,12.12-13.82,22.77-14.7s18.67,4.93,25.57,12.44c1.62-.05,7.55-8.89,10.83-7.93Z" fill="#fff"/>
  <path d="M4.08,310.19c13.12-8.24,30.93-1.53,30.25,15.12,4.28-.73,5.79-4.11,10.49-4.96,10.96-1.98,17.72,3.67,18.39,14.54,6.26-.12,10.85-3.67,17.15.62-8,8.89-16.71,18.33-19.15,30.48l-57.13.73v-56.53Z" fill="#fff"/>
  <path d="M331.37,325.44c1.37,18.5,15.85,25.88,33,22.88-3.62,3.96.22,16.59-4.95,17.72l-58.39.57c-5.28-11.88-10.98-24.17-20.81-33.08,13.97-13.62,33.53-15.2,51.14-8.09Z" fill="#fff"/>
  <path d="M294.27,361.22c1.4,3.49,2.98,5.18,3.51,9.95s1.19,24.29-7.26,21.87c-.3-.09-3.06-5.22-3.01-5.53.37-2.38,6.88-4.99,2.56-11.92-5.7-9.14-15.17-.34-15.77-.99-1.74-14.19-22.43-9.7-17.75,4.6-2.11-.44-5.49,2.65-7.22,1.67-1.39-.78-9.18-15.05-12.17-18.11-6.09-6.23-17.75-10.09-15.45-21.03,18.42,4.62,36.34,1.75,49.64-12.32,11.44,9.09,17.53,18.39,22.92,31.81Z" fill="#fff"/>
  <path d="M448.12,330.31c3.35,2.4,6.95,4.53,10.16,7.14-2.57,5.2-4.1,11.04-6.74,16.2-.58,1.13-1.41,1.24-1.88,2.08-.93,1.63-1.7,4.91-2.53,5.98-2.46,3.18-17.21,2.2-21.61,3.04-.69,2.22,1.45,2.08,1.95,3.14,1.18,2.5,4.53,13.59,3.63,15.89l-51.6,56.55c5.74-22.75,15.4-44.25,25.96-65.07,9.24-3.84,11.34-15.17,17.28-23.48,3.4-4.76,9.34-12,13.33-16.28,2.54-2.73,6.31-5.12,8.83-8.08,1.44.4,2.37,2.28,3.22,2.89Z" fill="#fff"/>
  <path d="M498.98,131.58c7.6,17.17,15.55,33.66,18.58,52.4-8.03-2.02-12.82-.33-17.08,6.58,1.85-9.39.24-19.4-7.59-25.62-7.32-5.82-9.98-3.3-11.19,5.2-.98,6.87-.32,13.28,4.26,18.67l-5.05,7.47-1.46.83c-2.82-8.32-10.55-15.25-18.73-18.42-3.89-13.03-11.39-24.17-18.07-35.81l2.88-1.68c3.41,6.64,12.84,7.02,18.14,2.36,1.35-1.19,3.64-5.61,4.78-5.51,8.11,2.23,9.5,9.77,16.98,13.31,2.82,1.33,12.98,4.66,15,2.01,2.59-8.17-3.95-16.9-9.82-21.97l8.37.17Z" fill="#fff"/>
  <path d="M91.44,454.21c.3.4.74,7.16,1.73,9.77,4.26,11.22,17.08,16.08,28.44,15.27,1-.39.87-.07.79.82-.24,2.82-5.46,12.07-7.04,15.29-.33.68-1.16.81-1.43,1.38-8.49,17.71-15.7,35.57-21.69,54.27-.71.73-7.26,1.01-7.87-.67l-.09-98.83c.96.81,6.92,2.4,7.14,2.7Z" fill="#fff"/>
  <path d="M103.86,234.12c.26.13.7,1.42,1.61,1.97,2.09,1.26,9.94,4.34,10.11,6.45-3.46,6.47-5.44,14.41-7.29,21.64-3.91,15.27-6.31,31.59-11.49,46.36-2.82,8.05-7.18,15.29-13.16,21.34l1.97-93.34c5.49,3.35,13.7,1.89,15.87-4.49.75-.27,1.66-.3,2.38.06Z" fill="#fff"/>
  <path d="M319.99,494.23c.8-.27,1.54-1.66.31-2.29-1.2-1.3-7.31-.16-7.19-1.96.3-4.44,6.97-3.7,10.16-3.64l.33-1.64c-3.98-2.76-10.58,1.95-11.17-5.59,6.02-1.95,29.39,2.26,32.5,7.27l10.24,32.15c-9.17,2.56-16.07,4.14-25.68,2.34-4.39-.83-8.4-3.07-12.87-3.56-4.63-.51-20.28,2.32-19.29-5.61.93-7.4,20.87-3.25,22.33-5.99.12-.22.29-1.76-.42-1.63-5.03-2.78-22.97,4.01-25.85,1.61-4.97-6.06,11.13-11.48,14.77-11.48,2.37,0,10.37.49,11.83,0Z" fill="#fff"/>
  <path d="M273.64,462.02c-5.12-1.5-10.49-.43-15.38,1.26l-.4,2.03c7.69-1.29,18.65-3.93,19.06,7.23-5.89-.54-12.75-2.66-17.73,1.65.9,1.42,1.56.83,2.75.81,4.58-.06,16.03-3.04,15.05,5.12-.6,4.99-6.95,3.21-11.22,4.61-5.08,1.66-9.32,7.37-15.13,9.2-3.77,1.19-19.57,3.41-22.22.83-3.6-3.51-2.11-26.11.48-31.11,3.94-7.62,26.64-11.7,34.55-10.81,4.5.51,11.22,3.83,10.18,9.2Z" fill="#fff"/>
  <path d="M224.99,193.84c-4.22.36-7.47,1.13-10.19,4.59-4.01-9.51-16.68-8.15-19.4,1.33-11.09-8.19-21.37,2-14.46,13.8-2.96-.57-7.32,1.5-10.04.67-.97-.3-1.06-3.47-4.4-4.28-6.36-1.55-11.91.41-13.86,6.9-7.89-4.13-16.89-3.04-17.81,7.15l-7.79.74c1.07-7.3,4.69-11.84,9.85-16.76,21.83-20.84,57.46-29.56,86.83-23.04l1.28,8.9Z" fill="#fff"/>
  <path d="M162.97,110.16c-.66.88-4.82,2.79-4.38,3.82,2.11,2.06,4.96-.49,7.9-.05,6.71,1.01,10.05,9.79,4.26,14.2-5.08,3.87-10.1,1.18-15.45,0,7.31,19.86-20.13,22.62-15.79,1.97-.74-.7-15.2,7.69-18.56-.83s6.27-13.43,13.31-12.33l-8.52-9.01c-.06-11.26,15.88-13,18.38-1.29,3.24,1.58,2.62-4.08,4.94-6.78,8.37-9.74,21.44.33,13.92,10.3ZM143.93,112.49c-6.56,1.55-7.69,13.88.59,14.92,15.71,1.97,14.27-18.44-.59-14.92Z" fill="#fff"/>
  <path d="M487.31,705.88v19.72c-13.81,6.28-29.28,8.36-44.3,9.91-2.46-7.8-8.57-18.09-15.19-23.06-1.27-.95-10-5.04-10.2-5.59-.48-1.32.83-1,1.63-.97,7.36.26,17.35,3.49,25.67,3.93,14.24.75,28.6-.71,42.39-3.93Z" fill="#fff"/>
  <path d="M243.4,65.02c-4.69,3.46-16.02,8.19-19.11.38-3.27-8.29,8.1-12.05,14.51-10.9-2.46-4.01-7.77-.62-9.43-6.01-2.49-8.1,3.99-13.36,11.41-10.09,2.98,1.31,3.53,4.13,6.24,5.57,1.7-6.86,2.87-14.35,12.19-11.52,10.2,3.09,1.33,16.67,1.95,17.45,14.93-8.5,23.68,13.49,3.67,13.74-1.97.02-4.28-2.25-5.65-.25,5.17,7.24-.38,18.49-9.54,16.15-1.54-.39-6.24-3.44-6.24-4.99v-9.53ZM258.17,52.23c-5.4-9.56-22.17-2.69-15.64,8,4.62,7.56,20.59.77,15.64-8Z" fill="#fff"/>
  <path d="M461.96,101.55c1.08,2.17,1.63,3.98,1.69,6.85,2.41.62,2.01-1.5,3.61-2.63,11.88-8.46,20.89,4.42,12.14,11.48-1.17.94-8.41,2.94-7.2,4.3,17.84.57,11.67,23.72-3,13.19-1.49-1.07-1.15-3.32-3.57-2.67,1.13,14.61-21.61,15.72-18.1.64.31-1.35,3.89-6.28,3.63-6.54-6.08-.78-18.16,2.6-17.04-7.49.78-7.02,9.56-7.82,15.07-6.33-10.24-12.97,5.45-25.48,12.78-10.78ZM458.24,112.47c-8.96,1.07-9.2,14.86-.14,16.26,13.89,2.14,14.73-18,.14-16.26Z" fill="#fff"/>
  <path d="M354.14,32.54c1.02,2.01,1.5,3.49,1.69,6.18,2.33-.23,2.39-3.03,4.26-4.6,8.8-7.39,19.52,4.66,8.2,13.45-1.36,1.05-4.13.78-3.91,2.98,7.19-.36,15.6,10.96,6.82,15.04-7.55,3.51-14.16-5.89-15.36-4.51,2.77,14.3-20.85,17.99-16.96,1.78.5-2.1,3.22-2.97,2.19-5.1-1.42-1.9-13.88,3.17-15.83-4.56s8.78-11.78,14.81-8.56c1.2-1.31-6.85-15.58,5-17.02,4.99-.61,6.93.62,9.1,4.92ZM357.56,55.58c7.91-8.22-7.71-18.5-13.21-9.6-5.13,8.29,6.43,16.65,13.21,9.6Z" fill="#fff"/>
  <path d="M516.25,204.36c6.31-3.16,15.82-2.67,15.82,6.25,0,11.35-13.69,5.01-15.17,6.25,3.59,5.41,5.57,16.1-3.64,16.45-10.37.39-8.77-12.75-10.51-13.16-2.24,2.22-10.22,9.61-13.31,6.41-1.24-1.28-2.2-11.29-3.97-13.92l7.1-5.3c-10.32-1.91-13.65-15.96-1.45-16.64,7.27-.4,9.63,8.04,10.97,7.75,1.78-3.26.6-6.6,3.27-9.89,3.05-3.75,9.11-4.4,12.49-.59,6.28,7.07-3.35,14.58-1.6,16.39ZM498.89,213.82c7.21,9.72,21.12-2.15,13.71-10.08-6.49-6.96-17.45-1.36-15.43,8.21.31,1.48,1.28,1.29,1.72,1.87Z" fill="#fff"/>
  <path d="M243.4,396.95c3.53-1.01,4.17-3.75,8.2-3.99,13.42-.78,9.23,17.26-3.6,13.85-.24,2.66,2.98,3.48,4.59,5.59,7.7,10.02-4.18,15.92-11.19,9.87-2.34-2.02-2.72-5.71-5.89-6.26-2.37,4.09-2.81,8.65-8.19,9.23-7.12.76-10.4-3.22-8.89-10.2.59-2.71,7.5-5.94,6.55-6.91-20.27-.78-11.51-24.76,3.62-10.55,1.31-.04-.43-6.01-.38-7.54.21-5.9,4.22-11.29,10.23-7.56,4.04,2.51,4.92,10.02,4.94,14.45ZM236.01,398.43c-11.68.42-8.86,17.68,3.28,13.15,6.25-2.34,4.04-13.41-3.28-13.15Z" fill="#fff"/>
  <path d="M109.28,206.33c.8.81,7.38-6.11,14.69-1.87,8.74,5.08-.77,15.59-8.77,14.37-1.18,1.14,6.01,5.07,4.31,7.89-1.01,1.66-9.22,3.97-8.26,8.54-4.61-.1-6.4-4.66-7.86-8.24l-1.99-.3c-.5,17.76-24.84,10.24-14.48-2.12.71-.85,7.02-4.23,5.92-5.11-22.68,3.1-18.82-21.38,1.31-11.84-5.16-20.23,18.06-20.79,15.13-1.32ZM101.23,208.43c-11.52,1.54-6.45,21.47,6.3,14.23,8.23-4.67,1.52-15.28-6.3-14.23Z" fill="#fff"/>
  <path d="M450.91,256.52c9.86,15.82-9.53,34.52-26.06,31.32,1.35-6.26-3.86-28.48-1.63-32.86.41-.8,6.23-4.09,7.39-4.44,7.23-2.17,16.06-.83,20.3,5.97Z" fill="#fff"/>
  <path d="M284.68,404.98c3.48,5.44.42,8.26-1.83,13,.79.76,11.09-6.79,15.41.69,5.16,8.93-8.21,10.79-14.1,7.86-1.14,1.14,6.12,10.13.37,15.16-6.97,6.11-13.78-2.88-13.62-9.79l-1.57-.61c-10.34,15.13-26.49-2.89-8.17-8.4.6-2.29-7.66-9.76-5.64-13.43,3.75-6.81,11.5,8.27,18.11.32,1.45-1.75,2-4.1,2.69-6.19l8.34,1.4ZM279.35,425.68c5.99-8.87-8.97-15.74-12.45-6.87-3.28,8.37,8.23,13.11,12.45,6.87Z" fill="#fff"/>
  <path d="M210.97,198c3.58,5.64-3.74,10.44-2.41,11.62,4.58.28,9.1-3.3,12.1,2.03,5.1,9.06-6.45,10.57-12.75,9.15,8.4,15.44-11.63,21.02-11.84,4.6-1.51-1.68-9,8.32-15.15,2.99-6.97-6.04,1.85-12.1,7.92-13.19.43-1.74-4.02-2.73-5.29-3.9-6.66-6.14,1.53-15.5,9.47-10.13,1.88,1.27,1.89,4.22,5.68,3.18-.19-1.12-2.89-.75-.17-1.43-.84-7.22,8.45-11.23,12.46-4.92ZM196.53,209.77c-6.34,1.53-5.43,13.16,1.84,13.7,12.11.9,11.84-17.01-1.84-13.7Z" fill="#fff"/>
  <path d="M164.51,237.89c-.62.67,5.32,13.75-5.76,14.33-7.36.38-6.3-11.51-7.72-11.69-12.04,12.64-25.44-2.63-7.57-7.91-4.82-5.34-7.8-17.46,3.48-14.96,3.46.77,5.32,5.76,8.29,4.38.15-16.9,21.82-10.07,10.6,4.36,1.42,2.07,3.57.12,5.53.31,13.39,1.27,5.31,17.93-6.86,11.2ZM162.98,228.88c-7.13-10.53-22.33,3.32-10.34,8.7,6.02,2.7,13.76-3.65,10.34-8.7Z" fill="#fff"/>
  <path d="M258.97,190.76c4.54,6.59-7.53,10.03-7.02,11.96,3.98,1.67,5.8,4.63,7.23,8.49-5.32,8.71-8.37,3.5-15.4,1.06-1.34.36.23,9.47-6.13,10.38-8.16,1.17-9.41-8.47-7.39-14.33-2.64-.36-4.56,1.83-7.25,1.04-.86-.25-6.2-4.63-6.44-5.47-1.9-6.63,8.14-7.57,12.37-6.75-6.69-14.87,8.36-18.17,14.23-5.29,1.42.42,10.6-8.64,15.81-1.08ZM245.68,198.81c-7.44-11.52-24.28,8.11-8.37,11.35,6.33,1.29,11.86-5.95,8.37-11.35Z" fill="#fff"/>
  <path d="M392.88,369.11c3.41,2.53,6.47,3.8,10.27,5.48l-22.34,48.65c.08-6.96-3.13-13.29-3.94-20.06-.62-5.15-1.45-30.62.85-33.64s8.82,2.09,12.63-2.83c1.58-.06,1.77,1.84,2.52,2.4Z" fill="#fff"/>
  <path d="M420.67,722.55c1.62,1.52,10.64,12.41,8.79,14.22-15.1.91-31.08,2.28-45.19-4.11-5.28-6.65,11.69-17.85,16.09-18.74,5.76-1.16,16.17,4.73,20.32,8.63Z" fill="#fff"/>
  <path d="M270.8,371.52c1.08,1.57,1.42,5.71,2.19,7.68,1.67,1.12,9.54-9.74,14.04-3.13,4.07,5.97-1.44,10.05-6.8,11.35-.17,1.94,8.65.71,7.18,9.81-1.31,8.12-12.51.41-13.11,1.03.1,4.99-1.7,10.13-7.51,9.8-7-.39-3.69-6.5-4.37-10.74-.85-5.31-6.52-7.26-11.15-7.91-2.68-5.84,4.6-8.17,9.22-7.59-5.43-8.26,4.48-18.8,10.31-10.31ZM267.54,382.64c-5.37,1.24-5.93,9.72-.5,11.39,11.68,3.59,12.46-14.14.5-11.39Z" fill="#fff"/>
  <path d="M365.03,726.26c-7.82-.06-38.61.64-42.8-6.21-2.63-8.25,15.4-17.51,21.38-16.75,9.12,1.16,21.63,13.22,21.42,22.96Z" fill="#fff"/>
  <path d="M432.01,290.55c1.3,6.41,1.42,13.31,3.02,19.66,1.05,4.15,3.33,7.85,4.67,11.85-17.93,5.1-34.26,14.85-47.71,27.57.21-10.3,9.86-13.19,16.12-19.05,11.1-10.39,16.94-24.86,16.75-40.11l7.16.08Z" fill="#fff"/>
  <path d="M413.68,696.68l1.71,7.25c-12.3,5.21-24.57,11-34.24,20.36-2.08-8.03-7.3-17.66-13.82-23.01-2.26-1.86-5.9-2.62-7.56-5.25,17.43,4.79,36.34,4.51,53.91.65Z" fill="#fff"/>
  <path d="M310.27,481.94c1.84,1.98,2.09,6.61-.93,7.57-5.56,1.77-17.16-5.26-19.57.81-1.72,4.33,1.29,6.05,1.39,7.55.07,1.05-2.05,2.84-1.72,5.84.3,2.79,2.52,4.48,4.51,6.06l-.91,2.21c-1.9-1.66-8.78-3.27-9.89-5.25-.78-1.39.53-3.24.1-5.3-.25-1.16-1.52-1.19-1.9-2.1-1.88-4.45-3.57-8.96-5.76-13.27,6.9-2.28,3.85-10.57,3.97-16.12.69-.68,12.65,5.54,14.48,6.22,4.02,1.5,13.06,2.4,16.23,5.8Z" fill="#fff"/>
  <path d="M377.79,424.3c.37,1.46,2,1.79,1.64,5.76-.06.7-2.11,6.02-3.22,5.01-1.86-4.01-3.73-7.99-5.28-12.15-4.69-12.55-11.8-35.51-5.19-47.79,2.33-4.33,3.6-2.56,7.82-3.82-1.41,17.59-.16,35.88,4.22,52.98Z" fill="#fff"/>
  <path d="M373.58,522.49c2,11.86-12.08,20.85-22.64,19.01-.85-.15-2.24-.5-2.68-1.26-.59-1.03,1.05-16.7,1.64-17.43,3.64-4.56,7.83-.14,10.12-.32,1.92-.15,4.46-2.69,6.01-2.61,1.44.07,4.44,4.09,7.54,2.61Z" fill="#fff"/>
  <path d="M406.32,347.19c8.19-.48,8.03,2.57,7.38,10.02-.42,4.8-2.51,14.03-8.23,14.16-11.08.25-13.7-8.89-12.21-18.16.51-3.21,9.98-5.84,13.06-6.02Z" fill="#fff"/>
  <path d="M442.6,324.65l-24.65,28.91c-1.28-9.73-7.74-10.73-16.1-8.55,11.29-9.44,26.17-17.89,40.75-20.37Z" fill="#fff"/>
  <path d="M443.92,108.39c-11.6-.96-23.12-9.01-24.98-21.02,6.91-2.71,22.49,4.83,24.17,11.66.67,2.75-.26,6.4.82,9.36Z" fill="#fff"/>
  <path d="M111.91,201.08c1.23-3.51-3.22-6.95-3.8-9.02-1.94-6.93,6.64-17.09,12.68-19.88,6.54,9.07,1.98,25.82-8.88,28.9Z" fill="#fff"/>
  <path d="M292.05,32.82c-1.88,7.58-7.55,14.1-15.28,15.65l-10.31-4.24c1.31-4.95-1.18-6.51,3.75-9.27,6.14-3.43,15.06-3.43,21.84-2.15Z" fill="#fff"/>
  <path d="M488.52,115.13c3.32-.26,20.24,2.27,19.1,7.26-.95,4.19-16.63,7.4-20.35,6.1-2.25-.79-3.94-6.97-7.17-7.93,2.83-2.85,4.07-5.09,8.42-5.43Z" fill="#fff"/>
  <path d="M354.12,487.4c.07.17.82.36,1.13,1.18,3.42,8.85,5.57,18.32,9.01,27.19-6.3,11.1-7.43-3.8-9.16-8.52-.23-.62-1.18-.58-1.6-1.8-1.62-4.56-6.54-18.91-6.73-22.9-.12-2.49,1.9-4.38,4.48-3.82,1.33,2.77,1.72,5.82,2.87,8.66Z" fill="#fff"/>
  <path d="M238.79,439.01c-12.89,2.72-27.32-5.59-32.87-17.07,2.71.23,5.98-.5,8.58.29,2.95.9,3.84,5.68,9.29,6.54,2.38.37,4.94-.87,5.83-.56.67.23,9.62,10.26,9.17,10.81Z" fill="#fff"/>
  <path d="M134.91,135.35c-1.02,10.46-13.32,17.1-23.01,17.75-1.31-5.37,4.07-14.75,8.6-17.41,2.44-1.43,10.59,1.9,14.4-.34Z" fill="#fff"/>
  <path d="M185.54,84.73c-.01,10.21-7.75,19.12-17.75,21.04-4.7-14.31,4.68-20.17,17.75-21.04Z" fill="#fff"/>
  <path d="M445.24,129.44c-1.1,11.1-11.91,16.96-22.35,15.76.29-5.45,3.69-11.52,7.93-14.74,5.58-4.23,8.13-.44,14.42-1.02Z" fill="#fff"/>
  <path d="M222.74,68.57c2.62,2.43,3.79,4.11,8.16,3.69-5.81,8.45-16.72,10.59-26.3,8.53,1.33-8.11,8.69-11.61,14.9-15.7.94-.02,2.07,2.4,3.24,3.48Z" fill="#fff"/>
  <path d="M497.18,187.6c-.46.62-.68.83-1.48.85-13.11.36-13.83-13.96-9.63-23.48l1.42.07c3.49.45,9.7,8.58,9.7,11.38v11.17Z" fill="#fff"/>
  <path d="M114.89,236.87c-.52-.73-1.76-.56-.82-2.75,2.31-4.41,22.11-10.9,23.4-4.95.38,1.77-3.5,4.32-4.47,6.49-.77,1.73-.34,4.86-1.79,5.44-5.75.18-12.6.98-16.32-4.22Z" fill="#fff"/>
  <path d="M322.28,52.53c.62,4.18,4.6,7.52,8.57,8.21l-.02,1.32c-7.65,5.25-16.45,7.32-25.64,5.59,2.46-7.12,9.49-13.3,17.09-15.12Z" fill="#fff"/>
  <path d="M377.8,350.02c.37.41,1.38-.09,1.04,1.25-4.71,2.85-1.24,10.74-2.26,14.16-.61,2.03-4.37,4.36-6.47,3.82-.8-.21-4.25-4.71-4.48-5.46-2.78-9.09,4.03-22.88,12.17-13.76Z" fill="#fff"/>
  <path d="M269.95,502.54c.07.19.91.35,1.16,1.15.9,2.86,3.68,11.48,3.52,13.89-.24,3.59-4.23,6.72-6.91,2.61-1.69-2.59-5.38-24.59-5.32-28.28.03-1.64,1.26-4.98,2.99-2.91,1.85,2.21,3.5,10.48,4.56,13.53Z" fill="#fff"/>
  <path d="M497.18,151.13c-8.1.11-14.74-4.08-19.71-10.19,3.3-1.76,7.02-3.36,7.9-7.53,8.25,1.33,12.49,9.95,11.81,17.72Z" fill="#fff"/>
  <path d="M391.09,66.56c.69.89,3.55,6.39,2.86,7-7.72,1.17-16.09.02-22.35-4.93,4.53-1.64,6.37-5.48,5.98-10.12l1.58-.42c2.42.02,10.41,6.51,11.93,8.47Z" fill="#fff"/>
  <path d="M263.78,66.34c6.59.7,11.15-.84,15.34-5.86,5.37,2.14,8.83,6.41,10.27,12.02-7.8,3.69-20.31.63-25.61-6.17Z" fill="#fff"/>
  <path d="M336.1,40.7c-2.75-1.62-10.52,3.22-11.63,2.82-2.58-.94-8.93-9.4-6.74-11.98.32-.38,6.42-.77,7.54-.72,6.81.33,11.48,2.2,10.83,9.88Z" fill="#fff"/>
  <path d="M122.42,116.3c-3.1,3.23-5.15,7.19-4.6,11.83-5.64.02-11.69-2.52-15.07-7-.54-3.69,16.63-7.26,19.67-4.83Z" fill="#fff"/>
  <path d="M384.59,349.73c8.17-1.39,6.07,16.37.39,16.84-6.68-.86-6.29-15.84-.39-16.84Z" fill="#fff"/>
  <path d="M245.59,432.91c.05.15.89.2,1.03.71.66,2.39,3.27,15.91,2.73,17.48l-4.9,1.12c-1.46-.47-3.47-23.1-3.02-26.34,5.01.96,3.18,3.88,4.16,7.03Z" fill="#fff"/>
  <path d="M288.67,460.12c.51,2.2,8.86,11.52,7.32,13.08-2.4-.43-22.68-7.63-19.07-11.17l11.74-1.91Z" fill="#fff"/>
  <path d="M259.83,492.92c.44,3.27,4.58,21.02,2.91,22.43-.87.73-4.24.91-5.27-.02-1.33-1.06-1.44-20.02-.32-21.48.68-.88,1.64-1.05,2.68-.93Z" fill="#fff"/>
  <path d="M294.25,407.03c-1.25,1.69-2.08,4.82-4.83,5.03.6-3.39-1.92-6.72-1.17-10.01.96-4.18,5.35-8.1,9.94-6.32,3.67,1.42-2.71,9.63-3.94,11.29Z" fill="#fff"/>
  <path d="M270.72,494.52c-.38-.97-3.78-6.81-2.99-7.51,2.19.15,4.24-.76,5.85,1.05,1.29,1.45,8.27,16.72,4.67,18.35l-3.63-.33c-.99-3.98-2.42-7.75-3.9-11.55Z" fill="#fff"/>
  <path d="M269.03,437.05c.55.6-4.18,10.95-4.94,11.81-1.35,1.51-4.64,3.32-4.47.16.28-5,4.2-10.89,9.41-11.97Z" fill="#fff"/>
  <path d="M252.6,438.36l6.58,2.3c-3.44,2-.48,10.92-6.58,10.19v-12.49Z" fill="#fff"/>
  <path d="M238.79,432.44l-5.87-4.99,3.25-5.52c2.74-1.88,1.74,9.26,2.62,10.51Z" fill="#fff"/>
  <path d="M302.57,492.27l-8.5,3.65c-6.56-6.08,4.46-5.32,8.5-3.65Z" fill="#fff"/>
  <polygon points="178.31 216.86 174.93 223.33 171.08 223.42 171.77 217.54 178.31 216.86" fill="#fff"/>
  <path d="M390.01,342.4l-1.4,4.51c-3.33-.59-5.29-.49-8.45.74-2.29-2.43,8.64-4.83,9.85-5.25Z" fill="#fff"/>
  <path d="M250.63,427.85v9.2c-.77-1.65-3.99-10.29,0-9.2Z" fill="#fff"/>
  <path d="M122.43,225.4l-1.98-4.6,3.93-.66c.12,1.87.03,4.33-1.96,5.26Z" fill="#fff"/>
  <path d="M484.03,208.97l-.66-3.28c2.69.2,3.79,3.16.66,3.28Z" fill="#fff"/>
  <path d="M543.86,779.5c-14.12,8.35-22.82-3.84-15.8-17.06-16.88-5.98-4.09-23.89,9.88-17.77.91-14.76,21.03-12.53,19.73,1.97,15.53-2.71,22.77,14.58,5.91,19.73,8.54,12.02-6.4,23.28-16.43,12.48-.37.51.21,9.68.04,11.54-.11,1.2-1.58.42-1.44,3.27.1,1.92,1.72,1.61,1.4,3.59,6.59-6.79,13.98-14,24.21-9.76,1.02,1.65-3.86,10.17-5.27,11.95-13.17,16.59-49.18,8.97-50.48-13.61,11.94-5.96,24.42,4.98,28.24,16.02v-22.35ZM557.66,764.39c19.57.19,12.65-22.4-2.95-12.5-2.08-1.32.16-2.62.28-4.31.89-12.96-12.79-12.6-14.28-4.4-.51,2.81,1.31,5.05-.49,6.74-14.14-12.56-25.8,10.23-6.22,10.52.89,3.23-2.86,3.45-4.25,5.94-3.8,6.85,1.24,15.79,9.34,12.62,3.1-1.22,4.79-7.06,7.06-6.79,1.64.2,2.74,7.66,9.9,7.97,5.73.25,9.38-5.37,6.52-10.51-1.15-2.06-4.43-3.04-4.9-5.28ZM541.23,805.13c-1.41-10.94-11.94-19.55-23.01-18.4,1.82,9.61,12.97,19.21,23.01,18.4ZM568.18,789.37c-10.13-1.2-19.06,7.14-21.03,16.42,10.1-1.01,18.38-6.25,21.03-16.42Z"/>
  <path d="M50.14,460.68c7.13.18,11.32,3.15,9.78,10.84-1.13,5.68-9.17,5.69-9.76,6.34-1.55,1.7.35,12.58-10.58,9.8l.67,15.12c3.41-1.41,5.5-6.36,8.57-8.19,4.57-2.72,14.45-3.97,11.47,4.24-5.31,14.61-29.07,17-38.34,4.17s1.23-14.32,10.74-8.11l5.58,6.58c-1.66-6.45.34-13.96-3.91-19.43-9.22,3.74-16.87-1.96-12.43-11.7.47-1.02,2.35-2.05,2.47-2.81.16-1.06-6.5-8.69,1.87-12.57,4.34-2.01,6.96.76,8.33.41,1.12-.28,2.34-4.94,7.95-5.03,6.32-.1,8.14,4.76,7.61,10.34ZM46.82,464.65c1.06-4.77,2.69-8.64-2.46-11.7-6.14-1.75-6.43,5.29-7.82,5.75-1.78.59-4.73-3.37-9.04-1.19-6.88,3.49,1.74,10.61,1.56,11.4-11.46,5.6-3.16,17.26,6.23,8.23,1.74,11.13,16.22,9.72,10.87-2.27.22-1.01,6.5-.02,9-1.48,2.36-1.37,2.73-5,1.68-7.27-1.92-4.16-9.48-.91-10.03-1.47ZM37.61,508.69c1.01-4.8-12.71-18.54-16.15-13.81,1.04,7.81,8.57,13.16,16.15,13.81ZM42.88,508.69c6.27-1.7,13.1-5.59,15.12-12.14-7.28-2.71-14.51,5.21-15.12,12.14Z"/>
  <path d="M562.26,504.75c4.44-4.4,9.63-6.39,15.8-4.3,3.02,8.46-12.66,16.26-19.18,15.77s-17.31-8.46-17.04-15.77c.24-6.29,9.88-1.64,12.55,1.32,1.96,2.17,2.34,6.57,4.92,4.3l-.38-15.76c-11.11,4.51-20.64-3.93-11.14-13.49-6.7-4.31-5.08-13.61,3.62-13.55,1.55.01,3.8,1.3,4.29,1.09,1.18-.51,1.47-2.87,2.14-3.47,3.75-3.38,11.38-2.28,13.57,2.31.64,1.33.51,4.28.8,4.64.77.96,8.81.47,9.15,7.66.33,6.94-6.53,7.16-7.66,8.84-.62.93.56,3.25.37,4.88-.6,5.34-7.32,7.66-11.82,5.66v9.86ZM567.35,462.86c-4.51-3.78-9.71,2.09-8.38,7.06-1.79,1.84-7.28-8.26-11.1-2.24-3.22,5.07,2.37,6.6,5.18,9.16.31,1.89-7.36,3.22-5.63,8.88,2.21,7.2,11.46-.69,12.86.63,2.26,12.08,13.63,6,8.84-4.61,4.08-1.08,8.3-.24,9.52-5.58-1.36-5.92-5.46-5.05-10.48-4.93-.33-.31,1.79-6.16-.83-8.36ZM552.17,503.02c-2.01-1.76-4.3-2.58-7-2.2-1.9,1.86,7.4,11.27,10.18,11.17,2.52-.37-2.03-7.96-3.18-8.97ZM575.41,502.78c-6.14-1.15-12.48,3.52-12.48,9.85,1.1,1.15,13.08-6.38,12.48-9.85Z"/>
  <path d="M117.21,779.45c12.29,5.2,7.48,19.19-5.87,16.57-1.23,7.32-5.35,11.17-13.06,8.61-4.14-1.38-4.25-6.32-5.41-7.08-1.34-.87-6.18.12-8.95-.91-6.82-2.56-5.29-14.12,1.69-15.84-9.55-11.88,5.55-22.35,14.8-11.16,7.84-10.78,22.77-3.22,16.81,9.81ZM101.67,772.57c-.53.45-.7,1.23-1.26,1.66-8.07-14.4-23.15-1.45-8.89,6.91-15.48,4.61-10.32,18.31,4.61,11.51-.21,3.44-.18,6.58,2.25,9.25,5.37,1.81,8.92.47,9.95-5.27.32-1.77-1.37-3.97.64-5.3,3.74,3.33,12.33,2.86,12.78-2.99.52-6.84-9.43-5.83-9.83-7.21,1.89-3.04,7.18-10.6,1.49-12.78-7.36-2.83-7.61.71-11.73,4.22Z"/>
  <path d="M486.28,793.7c.15.33,1.59.28,1.02,2.43-8.43,8.67-31.25,7.59-42.08,4.09-16.39-5.29.12-16.78,9.25-19.04,12.59-3.11,26.21-.15,31.81,12.52ZM460.89,782.99c-10.97.62-31.15,12.27-10.64,16.15,5.21.99,31.38,1.89,33.48-3.24-1.56-10.4-13.76-13.43-22.84-12.91Z"/>
  <path d="M542.38,618.64c6.49-.82,15.55,1.51,18.93,7.68,2.54,4.64,2.91,7.08-2.19,9.05-8.79,3.39-22.57,1.15-31.42-1.74-4.2-8.2,7.96-14.14,14.68-14.99ZM558.77,626.55c-6.37-8.47-25.6-6.34-29.34,4.01.93,3.82,26.61,3.89,30.58,1.75.81-1.06-.5-4.77-1.25-5.76Z"/>
  <path d="M66.32,747.51c1.73,2.29,1.99,5.61,1.21,8.34-2.51,5.1-28.44,4.38-33.58,2.01-4.81-2.22-1.43-8.89,1.28-11.64,7.58-7.68,24.4-7.56,31.1,1.28ZM64.46,754.42c-.75-15.84-27.48-14.05-30.73-.29.85,3.6,26.82,4.07,30.73.29Z"/>
  <path d="M314.92,763.91c8.31-.82,20.84,5.4,17.29,15.32-2.51,3.48-26.72,2.88-30.33-.03-7.75-6.26,6.96-14.68,13.04-15.29ZM329.81,774.64c-7.39-14.84-28.2-4.6-27.13,1.16.72,3.9,24.15,3.66,28.1,1.68.93-2.08-.79-2.47-.97-2.83Z"/>
  <path d="M543.21,688.79l9.4-12.27,2.08-.88.69,1.98-9.49,13.01-.73,5.38-2.21.03-7.64-20.4c2.48-2.59,8.38,11.05,7.89,13.14Z"/>
  <path d="M551.08,571.14c1.1,1.08-5.3,6.3-6.19,7.9-1.49,2.69-2.42,5.68-3,8.7l-3.14.33c-1.06-5.65-3.76-10.95-8.73-14.03l1.67-2.28c4.7,2.04,6.76,6.72,8.54,11.2,2.41-4.73,4.29-11.9,10.85-11.82Z"/>
  <path d="M558.73,401.79c-.31-.68-5.07-5.37-3.7-6.81,4.99.18,6.54,6.51,7.24,10.51,3.21-1.72,3.03-13.19,7.88-10.17l-6.92,16.74c-1.98.48-3.65-8.41-4.51-10.27Z"/>
  <path d="M47.48,561.28c1.55.36,1.07-.29,1.48-.85,2.21-3.04,3.23-8.1,8.38-8.35.77,3.55-3.05,3.78-3.98,5.07-1.01,1.4-5.02,13.31-6.53,12.02-.78-4.76-1.33-9.62-3.44-14.01-.28-.57-3.27-2.26-1.82-3.73,2.74-2.77,6.44,7.94,5.92,9.86Z"/>
  <path d="M30.8,628.55c-.86-1.59-7.39-7.35-6.99-8.44,1.27-3.45,8.93,5.54,9.85,6.89.1-1.6,1.46-9.53,3.61-9.2,1.46.99.77,1.3.54,2.48-.37,1.91-3.09,12.61-4.47,12.62l-2.54-4.36Z"/>
  <path d="M317.9,568.71c.08-.23,2.87-2.46,2.45-4.12l2.57.95c-3.23,4.88-1.69,10.63-3.6,15.45-3.89,1.24-2.11-10.31-1.42-12.28Z"/>
  <path d="M378.55,802.24c-.06.15-.86.37-1.28,1.65-.84,2.58-.99,6.39-1.08,9.14l-2.55-.08c-1.36-.75,1.16-16.1,5.62-16.27,3.25-.13-.17,4.23-.72,5.56Z"/>
  <path d="M30,400.64c-.43-.7-4.42-4.91-3.56-5.65,5.15-.68,9.13,8.53,9.59,12.46.39,3.29-1.04,3.74-2.46.45s-1.58-4.06-3.57-7.26Z"/>
  <path d="M228.27,779.51c1.38,1.37-6.05,6.83-7.13,8.28-.93,1.25-.84,5.21-3.05,4.2s1.58-7.28,2.66-8.5c.97-1.08,6.54-4.95,7.51-3.98Z"/>
  <path d="M215.78,792.65l-2.03-.4c-1.04-2.53-1.37-5.9-2.64-8.26-.89-1.65-5.6-4.11-2.85-5.79,4.01-1.27,8.4,11.19,7.52,14.45Z"/>
  <path d="M535.1,688.34c.4.51,2.72,5.19,2.73,5.5-1.72,5.32-5.38-3.8-7.12-6.03-1.39-1.79-4.39-2.11-3.94-4.93,1.22-1.15,7.51,4.42,8.33,5.46Z"/>
  <path d="M46.81,394.33c-3.98,5.14-7.1,7.75-8.87,14.44-3.69.02,2.74-17.46,8.87-14.44Z"/>
  <path d="M42.62,626.76c-1.01,1.35-2.44,2.11-2.36,4.41l-1.98.45c-.2-2.97,1.22-6.71,3.06-9.02,1.35-1.7,8.93-6.48,6.81-2.48-.41.78-4.31,5.04-5.52,6.65Z"/>
  <path d="M315.71,580.99c-1.98,2.11-4.15-5.75-4.7-6.8-.37-.71-5.46-4.85-2.19-5.68s7.97,9.47,6.89,12.48Z"/>
  <path d="M318.79,633.79c-1.41-1.81-5.43-2.25-4.38-5.47,5.92-.43,10.33,7.75,7.56,12.47-1.75-1.95-1.58-4.97-3.17-7Z"/>
  <path d="M370.94,814.34c-2.78.7-2.08-2.01-3.4-3.53-2.09-2.43-4.66-4.67-7.77-5.68l.64-1.65c2.68-1.6,12.39,6.71,10.53,10.87Z"/>
  <path d="M326.23,640.81c-1.47.24-1.3-.12-1.64-1.29-.71-2.46-.16-14.26,3.28-13.83,1.48.19.43,1.76.38,2.32-.38,4.01-1.99,8.59-2.02,12.8Z"/>
  <path d="M41.84,563.62c.93,1.4,2.24,2.38,2.34,4.55-2.44,2.41-4.1-3.46-5.89-5.27-1.67-1.7-3.74-2.16-5.27-3.92,3.5-3.17,7,1.9,8.82,4.64Z"/>
  <path d="M559.64,687.47c-2.05.03-4.1,1.36-5.58,2.64-2.03,1.75-4.15,7.64-6.25,4.91-.46-2.31,10.08-14.1,11.84-7.55Z"/>
  <path d="M209.21,793.96c-1.68,1.64-4.48-4.81-5.46-5.7-1.38-1.24-5.1-1.39-5.05-4.15,5.52-.79,9.83,4.72,10.51,9.85Z"/>
  <path d="M555.69,580.34l-7.37,7.73-3.14.15c-1.94-1.76,7.75-9.57,10.51-7.88Z"/>
  <path d="M335.44,630.3c-.68,2.03-4.83,12.83-7.22,10.51-1.25-1.21,4.79-12.76,7.22-10.51Z"/>
  <path d="M54.48,565.02c1.28-2.03,2.08-3.87,4.16-5.39l1.98.68c.29,1.09-6.73,11.53-7.88,7.21-.52-1.94,1.38-1.91,1.74-2.5Z"/>
  <path d="M571.19,407.84c-1.16,1.08-1.78,2.64-3.66,2.26-1.14-2.81,6.59-9.53,8.2-9.2,2.8.57-3.49,5.96-4.54,6.94Z"/>
  <path d="M386.06,803.17c.57.58-4.37,8.52-4.97,9.15-.82.85-1.08.83-2.25.7-1.49-1.52,4-10.75,7.22-9.85Z"/>
  <path d="M557.93,409.87c.04.09,2.06.48,1.05,1.54-2.76,2.86-3.73-2.81-4.71-4.16-.55-.75-4.59-4.42-3.84-5.03,3.34-2.71,6.67,5.81,7.49,7.65Z"/>
  <path d="M321.64,580.99c-1.1-2.94,2.29-10.4,5.57-9.86.49.08,1.42,1.11.34,1.64l-5.91,8.22Z"/>
  <path d="M94.82,59.76c2.25-.98,3.2-2.73,5.93-3.6,8.72-2.79,19.11,1.77,19.72,11.49,15.69-8.82,32.43,11.67,13.32,19.57-33.57-2.39-71.39,3.67-104.41.83-7.57-.65-13.66-3.66-13.5-12.18.13-7.5,7.7-16.56,15.5-17.42,5.26-.58,7.92,1.52,12.8,1.95,3.21-27.49,46.47-26.71,50.65-.64ZM89.81,54.25c-12.35-20.79-44.42-12.61-44.32,12.08-8.45-8.36-22.05-6.29-25.44,5.78-2.5,8.92,1.34,12.54,9.98,13.3,31.93,2.84,67.61-3.11,99.98-.65,9.62-.63,12.47-9.56,4.21-14.78-7.69-4.86-13.36,2.57-14.74,2.27-1.92-6.45-1.81-10.88-9.08-13.28-7.69-2.53-11.72,1.34-16.57,6.69-1.29-5-1.43-7.06-4.02-11.41Z"/>
  <path d="M163.18,505.42c1,1.02-1.13,1.39-1.27,1.8-9.69,28.49-18.31,67.87-24.3,97.31s-8.38,62.47-14.74,91.62c-.22.99.02,3.49-1.42,3.16-.89-.33-.43-8.08-.33-9.51,3.27-46.73,17.3-104.14,29.5-149.43,1.16-4.32,8.39-34.65,9.97-35.6.19-.12,2.5.56,2.59.66Z"/>
  <path d="M240.1,528.41c1.59,1.27,4.63,35.29,5.29,40.29,5.04,37.88,10.39,79.5,11.18,118.42.03,1.48.46,10.22-1.01,10.2-1.22-1.48-1.42-4.36-1.63-6.24-4.22-38.51-5.31-77.56-9.97-115.58-1.92-15.7-4.63-31.33-5.82-47.09.54.09,1.77-.14,1.95,0Z"/>
  <path d="M319.66,119.57c-9.03-.53-18.39,6.91-17.1,16.43-2.59.34-2.85-2.34-5.04-3.83-5.3-3.63-11.43-3.32-17.31-1.43-2.22-2.37,7.23-4.67,8.88-4.65,3.26.04,7.94,2,10.52,3.98,1.7-2.47,2.36-5.74,4.56-7.91,2.48-2.44,15.22-8.92,15.49-2.6Z"/>
  <path d="M362.9,159.14c.52.34,1.12,2.14-.27,2.41-6.44-.18-11.86.47-16.71,4.99-1.37,1.27-1.86,4.16-3.6,4.35-2.56.08-2.96-3.11-4.56-4.67-4.04-3.92-8.75-4.23-14.15-3.93l1.09-2.52c6.5-.93,12.95.52,16.37,6.51,4.25-3.69,16.56-10.63,21.83-7.14Z"/>
  <path d="M367,295.73c2.5,2.85-7.7,8.04-9.99,8.74-5.19,1.57-11.58,1.9-16.3-1.19-.58-2.55,8.84-.84,10.87-.95,1.52-.08,4.91-.52,6.24-.99,1.71-.6,8.25-6.67,9.19-5.6Z"/>
  <path d="M251.77,265.02c2.64,2.29,2.38,18.09-2.75,17.6-8.81-.84-4.68-24.04,2.75-17.6Z"/>
  <path d="M252.51,245.87c.27,1.15.38,2.64-.55,3.53-.5.48-9.45,3.5-11.64,4.79-1.4.82-9.8,8.97-10.71,5.67-1.2-4.37,17.6-18.54,22.9-14Z"/>
  <path d="M169.11,281.93c6.26-1.18,13.07,5.51,13.8,11.48-.73,3.15-5.56-5.73-6.61-6.51-2.13-1.59-6.81-1.54-7.19-4.96Z"/>
  <path d="M376.6,235.54c.75.63,1.42,1.58,2.23,2.19-1.22,8.96-7.1,3.71-12.23,2.86-6.95-1.16-14.91-.56-21.29-2.54-3.44-13.99,25.5-7.39,31.29-2.51Z"/>
  <path d="M354.89,267.75c-3.84-4.24-3.52-16.31,3.19-15.42s5.51,25.02-3.19,15.42Z"/>
  <path d="M143.93,112.49c14.86-3.52,16.3,16.89.59,14.92-8.28-1.04-7.15-13.37-.59-14.92ZM143,115.82c-5.64,5.66,4.01,12.99,8.67,6.37,3.87-5.5-4.95-10.09-8.67-6.37Z"/>
  <path d="M258.17,52.23c4.95,8.76-11.02,15.55-15.64,8-6.53-10.69,10.24-17.56,15.64-8ZM248.49,50.71c-7.79,1.5-4.46,11.87,3.49,9.41,6.03-1.87,4.85-11.01-3.49-9.41Z"/>
  <path d="M458.24,112.47c14.59-1.74,13.76,18.4-.14,16.26-9.06-1.4-8.83-15.19.14-16.26ZM457.54,115.77c-3.67,1.1-4.89,8.65.56,9.67,10.89,2.03,10.42-12.96-.56-9.67Z"/>
  <path d="M357.56,55.58c-6.78,7.05-18.34-1.31-13.21-9.6,5.51-8.9,21.12,1.37,13.21,9.6ZM350.4,45.42c-3.69.26-5.77,4.11-3.71,7.37,1.84,2.92,9.4,1.99,9.79-1.26.33-3-3.3-6.31-6.08-6.11Z"/>
  <path d="M498.89,213.82c-.43-.58-1.4-.4-1.72-1.87-2.02-9.57,8.94-15.17,15.43-8.21,7.4,7.94-6.5,19.8-13.71,10.08ZM510.77,206.55c-3.35-5.01-12.75-2.12-9.81,4.88,2.66,6.33,13.41.51,9.81-4.88Z"/>
  <path d="M236.01,398.43c7.32-.27,9.53,10.81,3.28,13.15-12.13,4.53-14.96-12.72-3.28-13.15ZM239.29,402.37c-1.4-1.44-5.16-.53-6.74.49l-.97,2.35c-.4,6.52,12,3.9,7.71-2.85Z"/>
  <path d="M101.23,208.43c7.81-1.04,14.52,9.57,6.3,14.23-12.75,7.23-17.82-12.7-6.3-14.23ZM103.16,211.13c-8.43-.12-6.68,13.04,2.67,9.17,5.13-2.12,2.24-9.1-2.67-9.17Z"/>
  <path d="M279.35,425.68c-4.21,6.24-15.72,1.5-12.45-6.87,3.47-8.87,18.43-2,12.45,6.87ZM269.89,423.71c1.82,2.66,7.42,2.03,7.68-2.15.41-6.63-11.32-3.17-7.68,2.15Z"/>
  <path d="M196.53,209.77c13.69-3.31,13.95,14.6,1.84,13.7-7.27-.54-8.18-12.17-1.84-13.7ZM195.56,219.33c2.42,2.42,9.79.3,8.78-3.81-1.83-7.43-13.53-.94-8.78,3.81Z"/>
  <path d="M162.98,228.88c3.42,5.04-4.32,11.4-10.34,8.7-11.99-5.38,3.21-19.23,10.34-8.7ZM159.06,234.43c4.32-5.07-6.5-10.12-6.47-2.78.02,4.15,4.16,5.5,6.47,2.78Z"/>
  <path d="M245.68,198.81c3.49,5.4-2.05,12.63-8.37,11.35-15.91-3.23.93-22.87,8.37-11.35ZM233.67,204.26c8.85,9.03,13.5-6.75,5.63-5.71-1.76.23-6.66,4.12-5.63,5.71Z"/>
  <path d="M267.54,382.64c11.95-2.75,11.18,14.98-.5,11.39-5.43-1.67-4.87-10.15.5-11.39ZM269.53,384.56c-4.3.66-4.76,7.68,1.08,7.12,5.15-.5,3.45-7.81-1.08-7.12Z"/>
  <path d="M557.66,764.39c.48,2.24,3.75,3.21,4.9,5.28,2.86,5.15-.78,10.77-6.52,10.51-7.16-.32-8.26-7.78-9.9-7.97-2.27-.27-3.96,5.57-7.06,6.79-8.1,3.18-13.13-5.77-9.34-12.62,1.38-2.49,5.14-2.72,4.25-5.94-19.58-.28-7.91-23.07,6.22-10.52,1.81-1.7-.02-3.93.49-6.74,1.49-8.2,15.17-8.55,14.28,4.4-.12,1.69-2.36,2.99-.28,4.31,15.6-9.91,22.52,12.69,2.95,12.5ZM544.34,752.71c-7.7,1.39-7.41,12.57.3,14.53,11.55,2.94,13.42-17.01-.3-14.53Z" fill="#fff"/>
  <path d="M541.23,805.13c-10.04.81-21.19-8.79-23.01-18.4,11.07-1.15,21.6,7.46,23.01,18.4Z" fill="#fff"/>
  <path d="M568.18,789.37c-2.65,10.17-10.93,15.42-21.03,16.42,1.97-9.28,10.9-17.63,21.03-16.42Z" fill="#fff"/>
  <path d="M46.82,464.65c.55.56,8.11-2.69,10.03,1.47,1.05,2.28.68,5.9-1.68,7.27-2.5,1.45-8.78.47-9,1.48,5.35,11.99-9.13,13.4-10.87,2.27-9.39,9.03-17.7-2.63-6.23-8.23.18-.79-8.44-7.91-1.56-11.4,4.31-2.18,7.26,1.78,9.04,1.19,1.39-.46,1.68-7.5,7.82-5.75,5.14,3.06,3.51,6.93,2.46,11.7ZM37.46,463.46c-8.67,1.37-5.35,15.38,4.5,11.12,5.11-2.21,4.06-12.47-4.5-11.12Z" fill="#fff"/>
  <path d="M37.61,508.69c-7.57-.65-15.11-6-16.15-13.81,3.44-4.73,17.16,9.02,16.15,13.81Z" fill="#fff"/>
  <path d="M42.88,508.69c.61-6.94,7.84-14.86,15.12-12.14-2.02,6.56-8.85,10.45-15.12,12.14Z" fill="#fff"/>
  <path d="M567.35,462.86c2.62,2.2.5,8.05.83,8.36,5.02-.12,9.12-.99,10.48,4.93-1.22,5.34-5.44,4.5-9.52,5.58,4.79,10.61-6.58,16.69-8.84,4.61-1.41-1.31-10.65,6.58-12.86-.63-1.74-5.66,5.93-6.99,5.63-8.88-2.81-2.56-8.4-4.08-5.18-9.16,3.82-6.02,9.31,4.08,11.1,2.24-1.33-4.97,3.87-10.84,8.38-7.06ZM560.79,472.67c-6.1,1.01-7.2,9.4-1.13,11.34,10.15,3.24,10.19-12.85,1.13-11.34Z" fill="#fff"/>
  <path d="M575.41,502.78c.6,3.47-11.38,11.01-12.48,9.85,0-6.33,6.35-11,12.48-9.85Z" fill="#fff"/>
  <path d="M552.17,503.02c1.15,1.01,5.7,8.6,3.18,8.97-2.77.1-12.07-9.31-10.18-11.17,2.69-.37,4.99.44,7,2.2Z" fill="#fff"/>
  <path d="M101.67,772.57c4.12-3.51,4.37-7.05,11.73-4.22,5.69,2.18.4,9.74-1.49,12.78.4,1.38,10.35.37,9.83,7.21-.44,5.85-9.03,6.32-12.78,2.99-2.01,1.33-.32,3.53-.64,5.3-1.02,5.74-4.57,7.07-9.95,5.27-2.43-2.67-2.46-5.81-2.25-9.25-14.93,6.8-20.1-6.9-4.61-11.51-14.25-8.37.82-21.31,8.89-6.91.57-.43.74-1.21,1.26-1.66ZM99.23,777.67c-7.26,1.55-7.15,13.12,1.16,13.31,11.52.27,8.85-15.44-1.16-13.31Z" fill="#fff"/>
  <path d="M460.89,782.99c9.07-.51,21.28,2.52,22.84,12.91-2.1,5.12-28.26,4.22-33.48,3.24-20.51-3.88-.33-15.53,10.64-16.15Z" fill="#fff"/>
  <path d="M558.77,626.55c.75,1,2.05,4.7,1.25,5.76-3.97,2.13-29.66,2.07-30.58-1.75,3.74-10.35,22.97-12.48,29.34-4.01Z" fill="#fff"/>
  <path d="M64.46,754.42c-3.91,3.77-29.88,3.31-30.73-.29,3.25-13.76,29.98-15.55,30.73.29Z" fill="#fff"/>
  <path d="M329.81,774.64c.18.37,1.9.76.97,2.83-3.95,1.99-27.38,2.22-28.1-1.68-1.07-5.76,19.75-16,27.13-1.16Z" fill="#fff"/>
  <path d="M89.81,54.25c2.58,4.35,2.73,6.41,4.02,11.41,4.86-5.35,8.89-9.22,16.57-6.69,7.27,2.4,7.16,6.83,9.08,13.28,1.38.31,7.05-7.13,14.74-2.27,8.26,5.22,5.41,14.15-4.21,14.78-32.37-2.46-68.05,3.49-99.98.65-8.64-.77-12.48-4.39-9.98-13.3,3.39-12.07,16.99-14.14,25.44-5.78-.11-24.69,31.96-32.87,44.32-12.08Z" fill="#fff"/>
  <path d="M143,115.82c3.71-3.73,12.54.87,8.67,6.37-4.66,6.62-14.31-.71-8.67-6.37Z" fill="#fff"/>
  <path d="M248.49,50.71c8.34-1.61,9.52,7.54,3.49,9.41-7.95,2.47-11.28-7.91-3.49-9.41Z" fill="#fff"/>
  <path d="M457.54,115.77c10.98-3.29,11.45,11.69.56,9.67-5.45-1.01-4.23-8.57-.56-9.67Z" fill="#fff"/>
  <path d="M350.4,45.42c2.78-.2,6.41,3.1,6.08,6.11-.39,3.25-7.95,4.18-9.79,1.26-2.06-3.26.03-7.11,3.71-7.37Z" fill="#fff"/>
  <path d="M510.77,206.55c3.6,5.39-7.15,11.2-9.81,4.88-2.94-6.99,6.47-9.89,9.81-4.88Z" fill="#fff"/>
  <path d="M239.29,402.37c4.29,6.75-8.11,9.37-7.71,2.85l.97-2.35c1.58-1.02,5.34-1.93,6.74-.49Z" fill="#fff"/>
  <path d="M103.16,211.13c4.91.07,7.8,7.04,2.67,9.17-9.35,3.87-11.1-9.28-2.67-9.17Z" fill="#fff"/>
  <path d="M269.89,423.71c-3.64-5.32,8.09-8.78,7.68-2.15-.26,4.18-5.86,4.81-7.68,2.15Z" fill="#fff"/>
  <path d="M195.56,219.33c-4.75-4.75,6.95-11.24,8.78-3.81,1.01,4.1-6.36,6.23-8.78,3.81Z" fill="#fff"/>
  <path d="M159.06,234.43c-2.32,2.72-6.46,1.37-6.47-2.78-.03-7.34,10.8-2.29,6.47,2.78Z" fill="#fff"/>
  <path d="M233.67,204.26c-1.03-1.58,3.87-5.47,5.63-5.71,7.87-1.05,3.21,14.74-5.63,5.71Z" fill="#fff"/>
  <path d="M269.53,384.56c4.53-.69,6.23,6.62,1.08,7.12-5.84.56-5.37-6.46-1.08-7.12Z" fill="#fff"/>
  <path d="M544.34,752.71c13.72-2.48,11.85,17.47.3,14.53-7.71-1.96-8-13.14-.3-14.53ZM550.19,756.73c-.8-.79-2.22-1.59-3.37-1.6-4.04.4-6.32,3.89-4.35,7.67l7.67.31,1.6-3.06c.05-1.13-.78-2.55-1.56-3.32Z"/>
  <path d="M37.46,463.46c8.56-1.35,9.61,8.91,4.5,11.12-9.84,4.26-13.17-9.75-4.5-11.12ZM40.74,471.72c3.07-3.12-1.53-8.15-4.74-4.41s2.27,6.91,4.74,4.41Z"/>
  <path d="M560.79,472.67c9.06-1.51,9.02,14.58-1.13,11.34-6.07-1.94-4.98-10.33,1.13-11.34ZM559.74,480.99c3.66,2.22,7.7-3.66,3.16-5.5-3.34-1.35-4.76,4.53-3.16,5.5Z"/>
  <path d="M99.23,777.67c10.01-2.13,12.68,13.58,1.16,13.31-8.31-.19-8.42-11.77-1.16-13.31ZM99.23,780.97c-3.53,1.06-3.05,6.1.67,6.95,7.07,1.6,7.63-9.45-.67-6.95Z"/>
  <path d="M550.19,756.73c.78.77,1.61,2.2,1.56,3.32l-1.6,3.06-7.67-.31c-1.98-3.78.31-7.27,4.35-7.67,1.15.01,2.56.8,3.37,1.6Z" fill="#fff"/>
  <path d="M40.74,471.72c-2.47,2.51-8-.62-4.74-4.41s7.81,1.29,4.74,4.41Z" fill="#fff"/>
  <path d="M559.74,480.99c-1.6-.97-.18-6.86,3.16-5.5,4.54,1.84.5,7.72-3.16,5.5Z" fill="#fff"/>
  <path d="M99.23,780.97c8.29-2.5,7.73,8.55.67,6.95-3.71-.84-4.19-5.88-.67-6.95Z" fill="#fff"/>
</svg>