<?xml version="1.0" encoding="UTF-8"?>
<svg id="Camada_1" xmlns="http://www.w3.org/2000/svg" version="1.1" viewBox="0 0 595.28 841.89">
  <!-- Generator: Adobe Illustrator 29.0.0, SVG Export Plug-In . SVG Version: 2.1.0 Build 186)  -->
  <rect x=".14" y="841.29" width="595" height=".66" fill="#fff"/>
  <path d="M590.54,455.45v68.36c-23.14,3.68-45.32,11.59-67.05,20.07-8.96,3.5-18.29,8.42-27.27,11.51-.77.27-2.41,1.14-3,.29l5.58-29.26c3.72-1.24,6.51-1.62,9.77-4.04,8.62-6.38,7.51-13.44,9.94-22.26,1.69-6.1,4.97-11.71,5.29-18.38,21.72-10,42.56-23.03,66.74-26.29Z" fill="#fff"/>
  <path d="M590.54,361.46v91.36c-23.94,1.57-44.89,15.08-66.4,24.32,1.31-8.04,1.15-15.18-4.33-21.64-1.26-1.48-4.04-2.39-4.22-4.33l9.36-53.4c.46-.79,10.93-4.75,12.92-5.82,15.06-8.1,25.56-22.86,42.28-28.06,3.28-1.02,7.12-1.19,10.39-2.43Z" fill="#fff"/>
  <path d="M590.54,247.09v111.08c-7.63.57-15.62,3.25-22.37,6.89-10.2,5.51-17.26,14.31-26.86,20.48-1.88,1.21-13.34,8-14.54,6.81,3.55-17.02,5.64-34.42,9.25-51.42.11-.52,1.12-.48,1.22-.99.64-2.96,1.6-8.78,1.36-11.68-.63-7.49-8.83-12.05-15.91-9.32-7.98,3.07-6.97,11.68-8.47,18.35-4.3,19.05-7.44,40.61-12.37,59.54l-.37,2.11c-10.94,2.09-21.31,5.55-31.26,10.5,4.94-6.74,6.59-13.64,5.91-22.01-.21-2.62-1.79-4.99-1.19-7.75.64-2.88,5.6-6.78,6.93-10.84,4.37-13.29-1.82-18.78-1.84-29.4-.02-6.13,3.3-14.33,3.39-21.03.03-2.64-1.9-10.81-1.06-12.18,17.33-6.93,32.71-17.66,47.91-28.36,5.5-3.87,10.83-8.82,16.28-12.64,12.91-9.08,27.83-17.45,43.99-18.14Z" fill="#fff"/>
  <path d="M565.55,709.17c2.2,2.2-6.46,6.47-7.83,7.62-1.19.98-2.3,2.09-3.32,3.25-3.14,3.52-4.44,10-9.23,9.5-.16-1.82.43-3.39,1.29-4.95.59-1.06,4.29-5.5,5.27-6.56,3.64-3.95,8.3-8.4,13.82-8.86Z"/>
  <path d="M553.72,813.69c1.55,2.31-4.8,3.63-6.37,4.47-1.43.78-6.13,5.59-6.78,3.07-.27-3.95,11.23-10.39,13.15-7.54Z"/>
  <path d="M551.45,595.45c-2.85-.66,2.46-8.87,3.6-10.16,1.86-2.12,4.24-3.86,7.21-3.63.5,3.69-3.81,4.76-5.91,7.56-1.26,1.68-2.58,6.77-4.9,6.23Z"/>
  <path d="M547.8,802.51c.03,3.67-4.17,4.77-6.47,8.32-1.42,2.2-3.6,9.19-4.21,9.91-1.35,1.61-4.09,1.21-3.66-1.96.78-5.66,7.74-16.29,14.34-16.27Z"/>
  <path d="M544.52,593.49c-.34-3.8.42-16.36,3.32-18.7.8-.65,3.63-1.54,3.91-.02.07.41-2.43,6.54-2.89,7.97-.05.17-.89.21-1.02.72-.76,2.9-.63,7-.7,10.03h-2.62Z"/>
  <path d="M541.3,728.5c-.58.84-1.9.25-2.7.39-.22-8.03,1.94-15.92,5.57-23.02,1.26-2.46,9.06-13.7,11.83-13.13.6.12,1.35,1.44.9,2.19-3.1,2.95-4.96,6.39-7.24,9.89-.45.69-1.44.96-1.63,1.28-1.36,2.24-2.95,5.96-3.7,8.47-.92,3.08-1.84,12.19-3.03,13.93Z"/>
  <path d="M532.35,651.31c-2.67-2.43,1.16-7.97,3.07-10.06.99-1.09,7.34-6.14,8.43-5.04,1.51,1.53-6.63,8.16-7.88,9.71-1.33,1.63-1.82,4.04-3.62,5.39Z"/>
  <path d="M526.55,637.64c.78-2.18,4.25-10.72,7.1-9.97,2.08,2.05-1.87,5.84-2.97,8.84-1.46,4.02-1.86,8.54-2.75,12.69l-3.14.81c.32-2.21-.47-5.41.02-7.43.06-.27,1.36-3.88,1.74-4.94Z"/>
  <path d="M531.37,581c5.57-2.06,14.16,13.07,11.16,15.11-2.35,1.61-3.98-5.57-5.25-7.37-1.05-1.48-7.7-5.93-5.91-7.74Z"/>
  <path d="M521.84,797.25c3.94,1.71,6.06,4.17,7.58,8.18.9,2.35,3.85,14.47,1.98,15.85-.38.38-1.74.45-2,.29-.64-.41-2.2-12.37-3.2-14.86-.57-1.43-7.67-8.77-4.36-9.46Z"/>
  <path d="M525.86,712.04l-10.83-11.85-.1-1.53c2.39-2.34,12.3,8.21,13.69,10.3,2.52,3.82,6.16,13.17,6.09,17.64-.05,2.72-1.83,4.49-3.2,1.82-2.12-4.15-1.96-12.2-5.65-16.38Z"/>
  <path d="M511.34,449.57c-.99,1.57-5.13-.88-6.77-1.18-2.55-.46-5.46-.72-8.05-.83l5.28-29.77c4.51-18.74,8.69-40.53,12.42-59.46,1.59-8.04,2.95-25.78,5.81-32.19,2.77-6.17,12.83-5.86,13.92.85.51,3.08-.84,9.6-1.36,13.02-1.86,12.06-4.41,24.99-6.7,37.05-3.72,19.56-8.25,42.36-12.88,61.81-.46,1.93-1.19,9.94-1.67,10.7Z" fill="#fff"/>
  <path d="M508.52,714.6c-2.03-1.22-.45-2.93,1.42-2.8,1.14.08,6.2,2.42,7.42,3.16,1.6.98,7.47,6.16,8.54,7.56,1.23,1.59,1.75,4.28,2.8,6.05-4.25,3.58-5.38-2.67-7.58-5.54-4.44-5.8-7.31-5.24-12.6-8.43Z"/>
  <path d="M517.86,813.71c-2.21-3.46-5.61-3.88-7.87-5.94-2.96-2.72,3.29-1.8,5.07-1.12,4.91,1.9,9.43,10.28,8.41,15.57-3.94.14-3.84-5.73-5.61-8.51Z"/>
  <path d="M509.56,506.28c1.1-.32,4.09-2.71,4.71-2.18,1.15.98-1.16,1.42-1.29,1.79-1.56,4.39-1.39,8.58-5,12.62-1.51,1.7-8.66,5.88-8.58,2.63l2.51-12.97c2.36-1.7,5.12-1.14,7.65-1.89Z" fill="#fff"/>
  <path d="M509.34,629.63c4.38-.52,7.49,4.43,9.23,7.87.83,1.64,5.62,13.23,2.59,13.82-2.28.45-4.56-10.33-5.85-12.53-.77-1.31-1.72-1.6-2.11-2.16-.57-.83-5.42-6.78-3.86-7Z"/>
  <path d="M507.6,770.86c-3.55,3.29-7.57-3.74-11.05,1.16-.61,3.73,12.79,2.65,11.79,11.03-1.11,9.18-18.4,6.75-17.12.84.13-.57,2.74-1.88,3.52-1.69,1.06.26,1.99,2.39,4.15,2.57,2.08.17,5.75-1.9,4.14-3.9-.38-.47-8.2-1.54-10.37-5.72-5.08-9.82,13.34-13.22,14.94-4.29Z"/>
  <path d="M490.38,447.47c-1.33-.55-8.51-17.87-10.1-20.75-.5-.92-1.49-1.06-2-1.97-1.01-1.79-6.33-10.6-6.03-11.59,2.98-2.45,7.3-4.22,10.95-5.53,1.98-.72,16.04-4.9,16.9-4.73.36.06,1.14.91.89,1.44-2.13,4.93-6.62,41.99-8.47,43.17-.37.24-1.67.15-2.14-.04Z" fill="#fff"/>
  <path d="M482.2,468.41c1.57-6.85,15.36-3.94,20.38-2.91,1.02.2,3.85,2.28,4.46.13.87-3.1-7.66-4.51-9.7-4.75-2.58-.3-12.75.54-13.31.19-2.45-1.52-.6-5.32.95-6.96,5.96-6.32,28.02-2.08,32.86,4.67,4.94,6.88,2.72,22.22.73,30.23-1.73,6.99-6.58,14.32-14.48,14.47-4.94.1-19.24-4.2-23.02-7.3-.29-.23-2.64-2.95-2.7-3.21-2.1-9.1,17.68-2.05,21.21-2.06,1.02,0,1.59.02,2.19-.95.25-1.62.14-1.22-.82-1.82-3.61-2.27-18.78-3.03-19.61-4.19-.92-1.28-.75-3.76.13-5.1,3.51-5.39,20.9,1.4,22.96-.04.87-.62.66-1.39.63-2.31-3.21-.61-7.63-3.3-10.84-3.3h-11.18c-1.35-.42-1.12-3.58-.84-4.79Z" fill="#fff"/>
  <path d="M484.68,757.81c2.55,1.95-3.02,5.69-4.94,5.9-6.76-2.06,4.49-6.24,4.94-5.9Z"/>
  <path d="M475.77,784.15c1.59,2.33,13.38-2.39,11.59,4.17-.36,1.29-14.78,2.02-16.48-.6v-20.38l.98-.98h14.47c1.47,1.13,1.47,3.47,0,4.6h-10.85c-1.36,7.09,5.32,4,9.87,4.59v3.96l-9.77.74.19,3.9Z"/>
  <path d="M476.48,477.53c-3.8-.44-4.08-7.5-3.48-10.42.49-2.36,5.5-8.25,7.01-5.67,1.27,2.18-2.39,4.58-2.51,7.54-.07,1.63,3.07,9.02-1.02,8.55Z" fill="#fff"/>
  <path d="M495.53,103.79c10.44-11.89,32.85-8.58,37.83,6.89,1.39,4.33.99,7.72,1.9,11.9,4.88,1.3,6.26-4.89,11.18-6.01,11.29-2.58,19.09,1.85,24.67,11.26,2.81,4.75,5.11,11.89,2.55,17.4l-135,.63c1.21-12.09,12.85-17.48,23.33-11.82,1.91-3.25.95-7.91,3.07-11.41.78-1.29,5.47-5.05,6.87-5.62,6.95-2.81,10.65,2.2,16.7,3.23.18-2.42.45-5.85,1.35-8.05.46-1.13,4.45-7.15,5.55-8.4Z" fill="#fff"/>
  <path d="M384.1,263.2c21.51-7.36,35.61,1.21,54.11,8.99,17.31,7.29,31.16,9.64,38.24,30.13,1.32,3.82,1.88,13.53,2.53,14.93.08.18.97.16,1.1.6.25.89-3.55,14.33-3.86,17.73-.54,5.95,1.02,11.8,2.6,17.48.14.5,1.13.51,1.24.98.25,1.05.25,7.22,0,8.27-.11.45-2.97,7.15-3.57,8.38-1.3,2.68-5.18,6.47-5.49,9.02-.33,2.64,1.73,7.14,1.87,10.32.17,3.78-2.07,17.32-7.44,16.04-1.09-.26-5.11-5.2-6.82-6.38-12.31-8.5-25.73-5.32-37.68-10.31-10.5-4.38-11.81-17.15-8.45-26.82.8-1.51,4.06-1.31,5.94-1.95,6.71-2.27,11.09-8.48,9.57-15.76-1.31-6.28-12.97-10.08-14.67-20.82-1.37-8.64,2.21-9.82,3.51-16.3.92-4.62-5.3-4.28-8.77-6.05-4.26-2.19-10.7-7.86-12.9-12.08-1.26-2.41-1.57-5.84-3.62-7.61-.97-.3-11.15,4.11-13.38,4.85-4.71,1.57-9.2.49-11.49,6.25-5.44-12.51,5.83-25.92,17.43-29.89Z" fill="#fff"/>
  <path d="M463,587.57l-1.24-14.74,5.17-2.35c.5.56-2.04,12.98-2.6,14.82-.27.88-.05,2.04-1.33,2.27Z" fill="#fff"/>
  <path d="M342.01,236.57c2.15-8.99,9.95-12.61,18.77-11.85,3.34.28,5.27,2.39,8.2,1.33-1.52-10.97,6.85-16.75,17.37-15.07,2.67.43,3.47,2.23,4.99,2.92,3.51,1.59,3.01-4.02,3.78-6.07,6.77-17.85,38.9-19.88,47.1-2.09,1.15,2.5,1.33,7.4,1.85,8.34.2.35,2.61,1.61,3.35,1.4,3.92-5.05,7.78-7.28,14.41-6.34,10.15,1.44,20.04,11.64,20.87,21.85.13,1.5.52,4.97-1.07,5.49l-139.62.09Z" fill="#fff"/>
  <path d="M446.55,496.2c-24.12,6.78-48.62,8-73.63,7.23-.37-1.5.27-1.08.83-1.5,10.49-8.1,18.35-14.77,26.78-25.11,2.11-2.58,4.57-7.9,6.64-9.8,4.4-4.05,10.69-4.67,10.15-13.51,11.75-13.23,21.4-32.64,35.14-43.75,9.12-7.37,8.64-1.21,15.55,4.52,3.8,6.55,8.69,13.46,12.07,19.96,1.2,2.32,6.78,13.49,5.79,15.17-.13.22-3.06,1.56-4.1,2.79-1,1.19-1.36,3.15-1.88,3.72-.62.7-3.45,1.46-4.63,2.27-5.7,3.95-7.97,12.64-4.52,18.76,1.83,3.26,7.68,5.18,7.41,9.02-.02.3-2.94,1.44-3.12,4.74-.09,1.72,1.82,7.13,3.04,8.32.89.86,2.69.38,2.68,2.09.07,2.42.07,4.94-.61,7.28-.31,1.05-1.16.94-1.31,1.46-.59,1.92-.17,4.6-1.34,6.45-1.17.9-4.63-1.36-5.97-2.01-17.3-8.54-26.92-26.97-31.36-44.9-.55-2.19-2.25-14.73-2.82-15.26-.18-.17-2.16-.05-2.66.29-.49.34-.57.82-.65,1.37-.21,1.48,1.7,10.73,2.19,12.95,1.46,6.71,4.39,16.63,7.51,22.69.57,1.1,3.19,2.55,2.82,4.76Z" fill="#fff"/>
  <path d="M384.28,589.03c2.24,15,14.73,45.85,26.69,55.48.85.68,2.98,4.07,4.68,2.87,2.66-1.87-6.32-9.02-7.52-10.53-8.99-11.39-15.43-29.79-18.57-43.9-.51-2.31-1.79-13.04-2.32-13.77-.61-.83-3.18-1.31-3.7.28-.52,1.57.43,7.53.74,9.57ZM361.71,521.56c-1.71,5.42-3.21,11.02-4.37,16.59-.83,4-2.12,15.42-3.27,22.16-.39,2.24-.75,3.97-1.09,4.73-3.32,7.53-5.97,34.82-6.35,44.56-.11,2.73-.79,6.49,1.63,8.19,1.47,0,2.06-5.12,2.22-6.31,2.23-16.58,3.72-33.81,6.48-50.69,1.77-10.76,4.04-21.37,7.36-31.57.35-1.1.98-6.96,1.41-7.33,22.99,3.27,46.52,2.58,69.12-2.87l13.7-4.76c.96.67,4.09,16.68,4.5,19.16,1.81,11.18,2.79,22.71,4.03,33.44,2.41,20.87,5.42,38.76-.03,59.68-.13.5-1.14.45-1.25.96-2.74,13.79-4.89,27.73-8.08,41.43-.48.48-11.63,2.45-13.41,2.69-31.68,4.29-75.56,2.98-106.64-5.62-3.42-.94-18.79-6.27-20.16-8.76-.93-1.68,1.28-19.2,1.72-22.59,4.51-35.44,10.62-73.3,20.35-107.19,1.27-4.42,2.16-9.64,3.24-14.17l28.89,8.27Z" fill="#fff"/>
  <path d="M394.9,426.52c-1.68-.04-2.94-3.55-2.42-5.04.43-1.24,4.31-6.21,5.41-7.58.63-.78,1.7-1.03,2.33-1.79,5.67-6.81,11.27-13.61,17.82-19.63,10.56,3.86,27.55,2.27,36.63,9.18.74.56,1.34.69,1.08,1.85-4.14,1.36-6.99,5.39-9.92,8.17-.53.5-1.75.52-2.58,1.36-7.24,7.26-13.15,18.22-20.04,25.98.3-4.34.39-6.05-3.91-7.92-1.09-.47-2.95-.38-3.5-.77-.42-.29-1.06-2.83-1.82-3.77-1.95-2.43-4.91-2.82-7.85-2.65-3.14.19-9.14,2.66-11.23,2.61Z" fill="#fff"/>
  <path d="M535.26,122.58c-.91-4.18-.51-7.57-1.9-11.9-4.98-15.47-27.39-18.78-37.83-6.89-1.1,1.25-5.09,7.27-5.55,8.4-.9,2.2-1.17,5.63-1.35,8.05-6.05-1.03-9.75-6.04-16.7-3.23-1.4.57-6.09,4.33-6.87,5.62-2.12,3.5-1.16,8.16-3.07,11.41-10.48-5.66-22.12-.27-23.33,11.82l135-.63c2.56-5.51.26-12.65-2.55-17.4-5.58-9.41-13.38-13.84-24.67-11.26-4.92,1.12-6.3,7.31-11.18,6.01ZM485.98,114.29c4.21-24.61,37.95-28.9,50.28-7.49.12.21.7.3,1.11,1.21.96,2.07,1.42,5.33,1.89,7.62,8.81-4.42,19.36-4.85,27.56,1.03,9.41,6.74,15.24,21.51,9.92,32.17-11.94.75-23.92.12-35.87.29-32.11.47-69.35,2.92-101.25.72-2.84-.2-4.94,0-4.84-3.56.37-13.06,11.81-21.24,24.3-17.78,2.43-14.42,13.8-18.15,26.9-14.21Z"/>
  <path d="M451.81,505.08c-.08-.57,1.22-.39,1.3-.32.1.08.12,1.11.7,1.57,4.14,3.26,8.7,7.34,13.2,9.85,2.07,1.16,9.54,3.53,9.82,5.34l-8.07,43.23-7.41,3.77-4.32-38.31c-2.48-3.17-2.63-9.35-3.55-13.65-.4-1.82-2.02-4.38-2.19-5.71-.21-1.61,1.05-3.89.52-5.77Z" fill="#fff"/>
  <path d="M449.14,783.75c3-4.42,5.69,3.37,10.57.69l1.05-1.99c.25-3.62-10.65-1.95-11.46-9.37-.93-8.59,12.07-9.62,16.15-3.78l-2.9,2.86c-1.3.07-3.42-2.97-7.03-1.77-1.18.4-1.48,2.48-1.01,3.14.23.32,6.1,1.99,7.4,2.78,8.45,5.22,1.05,14.94-7.49,12.74-1.81-.47-6.8-3.06-5.28-5.3Z"/>
  <path d="M448.68,736.66c-2.5.37-7.3-1.24-8.63-3.57-2.16-3.78,2-17.1,3.04-21.8,13.41-60.83,25.2-123.58,36.94-184.69,1.56-8.1,2.39-16.38,4-24.48l14.41,5.01c-2.75,13.54-4.79,27.25-7.4,40.81-7.31,38-15.07,76.81-22.84,115.38-3.73,18.51-7.86,39.88-12.4,58.18-1.11,4.48-1.12,14.28-7.12,15.16Z" fill="#fff"/>
  <path d="M335.16,503.41c37.8,3.84,75.75,7.39,112.69-3.92.84,2.88,1.34,7.9-.35,10.48-3.24,4.96-31.51,9.33-38.1,9.89-20.8,1.76-49.25-.06-68.85-7.4-5.29-1.98-7.74-2.79-5.39-9.05Z" fill="#fff"/>
  <path d="M456.11,70.95c-5.23.33-16.13-2.9-18.46-7.92-.92-1.99,2.94-5.4,4.78-5.78,3.69-.78,4,2.24,6.52,3.73,4.83,2.83,14.59,1.45,11.72-5.15-1.89-4.38-19.43-4.67-21.19-14.96-2.75-16.13,17.7-18.67,28.33-11.24,5.7,3.99,1.99,5.93-2.57,8.46-3.13-.99-4.58-3.59-8.13-4.33-2.3-.48-5.73-.83-7.2,1.42-1.29,1.66-.5,4.53.79,5.97,3.47,3.88,16.41,3.78,19.85,11.38,4.5,9.93-5.27,17.85-14.44,18.42Z"/>
  <path d="M403.79,104.1c1.61-18.45,26.09-23.94,39.23-13.2,6.35,5.19,8.3,12.39,7.47,20.45-2.63,25.61-49.69,27.1-46.7-7.25ZM420.13,120.69c7.62,3.4,18.16,1,19.69-8.17,2.14-12.75-3.65-20.72-17.11-18.42-11.31,1.93-12.3,22.25-2.58,26.59Z"/>
  <path d="M443.27,687.48l-.04-13.4,3.98-1.06c-1.1,3.48-1.04,7.96-2.02,11.33-.15.52-.97.42-1.25.98-.36.73.62,2.32-.67,2.15Z" fill="#fff"/>
  <path d="M443.26,788.38c0,1.54-4.17.84-5.25.32v-22.34c1.82.11,4.04-.62,5.25.98v21.04Z"/>
  <path d="M440.63,703.25c-5.28-3.97-12-8.31-18.42-10.16-5.07-1.47-10.33-1.28-15.46-2.3-.77-2.27-1.82-12.51-.34-13.54l32.91-2.92c.35,5.21-.47,10.95.01,16.1.43,4.55,2.91,8.1,1.3,12.82Z" fill="#fff"/>
  <path d="M406.12,53.84h11.18c.46-.48.89-.48.7-1.33-.93-4.04-4.34-10.36-5.96-14.43-.84,0-6.29,12.95-6.62,14.43-.2.85.23.85.7,1.33ZM399.22,69.29c-2.17,1.03-6.69-.06-9.21.33l16.75-42.74c11.1-3.55,10.83,3.21,14.43,10.92,3.47,7.43,6.22,15.33,9.47,23.06,1.36,3.23,4.04,4.76,3.4,8.76l-9.21-.32-4.11-8.02c-1.36-.44-15.71-.51-17.12-.08-2.77.83-1.87,6.89-4.4,8.09Z"/>
  <path d="M439.82,112.52c-1.53,9.17-12.07,11.57-19.69,8.17-9.72-4.34-8.73-24.66,2.58-26.59,13.46-2.3,19.25,5.67,17.11,18.42Z" fill="#fff"/>
  <path d="M418.95,340.43c6.31,1.75,7.63,9.95,3.07,14.25-.93.88-6.78,3.63-7.68,2.83l4.61-17.08Z" fill="#fff"/>
  <path d="M422.56,439.69c.36.24-.44,1.71-.51,1.78-.6.58-1.61.91-2.45.83l2.96-2.61Z" fill="#fff"/>
  <path d="M419.31,784.72c10.4,1.67,11.05-11.44,5.27-13.81-2.23-.92-6.32-.9-8.09.88-3.37,3.4-2.7,12.04,2.82,12.93ZM429.13,786.73c-4.15,3.28-10.12,3.54-14.6.79-3.01-1.84-2.98-3.28-4.2-6.18-.2-.48-1.12-.52-1.23-.99-.22-.97-.22-4.01,0-4.98.11-.47,1.03-.51,1.23-.99,1.35-3.2,2.39-6.17,5.98-7.7,6.52-2.76,12.86-.05,16.05,6,.13.24.94,0,1.09,1.2.17,1.45.22,6.51-.06,7.79-.07.32-3.72,4.63-4.26,5.06Z"/>
  <path d="M416.49,771.79c1.77-1.78,5.86-1.8,8.09-.88,5.78,2.37,5.13,15.48-5.27,13.81-5.52-.89-6.19-9.53-2.82-12.93Z" fill="#fff"/>
  <path d="M405.42,52.51c.33-1.48,5.78-14.42,6.62-14.43,1.62,4.07,5.03,10.39,5.96,14.43.19.85-.24.85-.7,1.33h-11.18c-.47-.48-.9-.48-.7-1.33Z" fill="#fff"/>
  <path d="M405.32,695.23c7.81-2.6,29.18,5.05,33.38,12.26,1.97,3.39-2.35,17.87-4.64,15.48.72-3.43-1.54-4.09-2.52-5.66-4.59-7.41-7.91-9.97-16.4-12.55l-17.23-3.47c3.38-.78,4.2-4.99,7.41-6.06Z" fill="#fff"/>
  <path d="M400.71,404.7c-7.02,2-15.35,2.62-22.01-.71-1.01-.5-6.4-3.06-4.04-4.41,14.34-1.36,25.14-9.46,32.12-21.67,1.27,1.78,1.34,3.65,2.55,5.65.86,1.43,5.23,5.44,4.91,7.06l-13.53,14.08Z" fill="#fff"/>
  <path d="M365.36,86.05h36.48c-.37,2.73.99,6.46-.98,8.55h-11.84l-.98.98v33.85c-3.12-.43-7.39,1.06-9.86-.98v-33.85h-12.17c-1.86,0-2.55-7.36-.65-8.55Z"/>
  <path d="M368.98,226.05c-2.93,1.06-4.86-1.05-8.2-1.33-8.82-.76-16.62,2.86-18.77,11.85l139.62-.09c1.59-.52,1.2-3.99,1.07-5.49-.83-10.21-10.72-20.41-20.87-21.85-6.63-.94-10.49,1.29-14.41,6.34-.74.21-3.15-1.05-3.35-1.4-.52-.94-.7-5.84-1.85-8.34-8.2-17.79-40.33-15.76-47.1,2.09-.77,2.05-.27,7.66-3.78,6.07-1.52-.69-2.32-2.49-4.99-2.92-10.52-1.68-18.89,4.1-17.37,15.07ZM345.09,224.86c5.59-4.28,12.52-4.64,19.29-3.68,4.1-12.97,14.16-16.96,26.91-12.89,5.99-20.3,36.05-24.79,50.35-10.52,1.05,1.03,1.67,2.54,2.53,3.73.44.61,1.38.8,2.11,2.15.86,1.6,1.16,3.57,1.6,5.31,2.29-1.57,5.59-3.34,8.36-3.78,11.72-1.83,24.2,7.57,28.11,18.25,1.37,3.77,3.77,15.27-.94,16.8-40.66.46-81.35.39-122.02.26-2.66-.01-5.17.02-7.84,0-3.87-.04-10.43.66-13.84.03-3.25-.6-1.14-8.23.12-10.34.62-1.03,4.16-4.48,5.26-5.32Z"/>
  <path d="M370.94,303.95c4.22.77,16.15,10.24,19.25,9.42,1.99-.52,3.02-3.18,2.11-5.14-1.74-3.75-15.86-12.95-19.86-9.68-.81.67-3.06,4.48-1.5,5.4ZM392.79,346.82c-7.37,2.1-9.57-2.56-15.06-5.62-6.53-3.65-15-7.35-22.4-8.49-4-.62-11.56,1.46-9.72-5.45,1.48-5.57,10.19-8.25,13.78-12.52,4.17-4.96,6.51-12.79,9.9-18.36.67-1.1,1.43-2.75,2.36-3.56,1.98-1.69,10.32-3.31,13.46-4.29,1.63-.52,4.17-2.77,5.22-1.34,2.81,10.71,12.36,16.17,21.75,20.37.32.63-1.59,6.95-1.94,8.32-.05.18-.97.06-1.11,1.17-.18,1.44-.18,5.21,0,6.65.13,1.08,1.03.76,1.42,1.91,1.54,4.55-.42,3.82-1.92,6.02-4.36,6.41-7.6,12.88-15.74,15.19ZM377.1,319.3c2.39-7.34-5.41-7.55-8.68-2.11-3.21,5.33,1.1,11.04,6.73,4.42.7-.82,1.39-.61,1.95-2.31Z" fill="#fff"/>
  <path d="M389.7,711.77c-.65-.09-2.25.45-1.66-.95.37-.85,5.69-4.81,6.87-4.97,10.26-1.37,28.44,3.41,33.59,13.15,2.43,4.6,3.68,7.62-2.44,9.45-3.43,1.02-2.41.16-4.1-1.27-2.11-1.8-2.62-3.55-4.31-5.21-6.88-6.77-18.73-8.93-27.95-10.2Z" fill="#fff"/>
  <path d="M389.92,425.69c1.23,4.7-7.46,4.12-8.82,6.06-.84,1.2-.1,2.59,1.31,2.66,2.56.12,10.53-3.92,13.64-4.8,2.2-.62,9.51-2.44,11.39-2.42,2.3.02,6.05,1.66,4.26,4.27l-20.99,7.27c-1.56.57-1.88,3.22-.33,3.55,1.29.27,20.1-7.44,23.92-8.22,1.09-.22,3.74-.7,4.54-.2.47.3.86,2.61.66,3.37-.28,1.1-2.49,2.53-3.5,3.12-6.03,3.56-16.27,4.87-22.22,8.03-1.59.84-3.58,2.51-1.41,3.76,2.54.66,18.1-7.14,22.47-7.74,2.95-.4,3.38,1.13,2.28,3.65-2.22,5.12-18.08,7.74-22.86,10.66l-.3,1.66,1.51.9c3.04-.08,15.53-6.2,17.16-5.79,1.97.5.46,2.58-.27,3.58-5.66,7.68-27.94,12.69-37.11,12.85-4.33.08-7.34-1.15-11.18-1.36-2.66-.14-16.67,1.47-17.45.68.15-9.78,2.92-19.71,7.56-28.26,2.92-2.85,7.3-4.34,10.52-6.58,1.08-.76,1.84-2.14,3.01-2.9,3.84-2.49,16.81-11.32,20.98-9.26l1.23,1.46Z" fill="#fff"/>
  <path d="M379.22,719.09c3.46-4.49,4.81-4.33,10.38-3.92,10.06.74,24.39,5.13,29.32,14.71-.11,1.65-11.22,2.54-13.13,2.3l.65-8.55c-4.63-1.05-3.52,7.72-4.69,8.45l-5.53-.52c-2.02-2.9,3.49-9.96.68-10.56-2.81-.59-5.22,8.31-4.26,10.52-12.14.35-3.7-3.79-3.95-10.52-5.8-1.15-4.11,5.51-6.95,8.48-7.05-1.94-6.41-5.35-2.52-10.39Z" fill="#fff"/>
  <path d="M383.54,579.46c.52-1.59,3.09-1.11,3.7-.28.53.73,1.81,11.46,2.32,13.77,3.14,14.11,9.58,32.51,18.57,43.9,1.2,1.51,10.18,8.66,7.52,10.53-1.7,1.2-3.83-2.19-4.68-2.87-11.96-9.63-24.45-40.48-26.69-55.48-.31-2.04-1.26-8-.74-9.57Z"/>
  <path d="M353.18,53.66c3.6,7.12,7.35,9.97,15.96,8.57,5.95-.97,8.91-3.33,7.72-9.7h-11.5c-1.77-1.81-1.53-5.77.65-7.23h17.75c.83.66,1.42,1.21,1.63,2.32.38,1.96.33,11.03-.02,13.09-.87,5.18-10.75,9.56-15.49,10.15-19.23,2.38-33.63-14.03-26.01-32.58,6.23-15.14,30.43-17.38,40.17-4.58l-5.01,4.96c-1.34.34-4.05-2.49-5.67-3.34-5.09-2.67-12.36-2.84-16.81,1.17-3.96,3.57-6.58,10.98-4.63,16.2.25.64,1.07.59,1.26.97Z"/>
  <path d="M382.97,789.24c-2.94.89-3.31-.31-3.51-2.8-.53-6.64,1.39-13.4.69-20.09,8.72-2.05,7.66,8.13,12.48,12.49.52-.38,4.18-10.25,5.45-11.64,1.06-1.17,5.82-1.59,5.74.8-.66,6.15,1.75,13.74.65,19.72-.6,3.26-4.6.95-4.6,0v-12.16c-3.28.43-5.29,10.06-7.62,10.49-3.15-.9-3.55-5.29-4.85-7.39-.12-.2-2.81-3.05-3.3-2.44.4,2.84,2.1,12.05-1.13,13.02Z"/>
  <path d="M392.29,738.77c-3.95-.28-13.73-1.59-14.78-6.26-.39-1.71.52-.63,1.14-.48,12.16,2.93,18.92,4.39,32.06,3.42,9.54-.7,16.75-4.28,25.32-7.87-.04,4.16-2.35,4.89-5.78,6.38-10.83,4.69-26.24,5.65-37.96,4.81Z" fill="#fff"/>
  <path d="M390.19,313.37c-3.1.82-15.03-8.65-19.25-9.42-1.56-.92.69-4.73,1.5-5.4,4-3.27,18.12,5.93,19.86,9.68.91,1.96-.12,4.62-2.11,5.14Z"/>
  <path d="M368.42,317.19c3.27-5.44,11.07-5.23,8.68,2.11-.56,1.7-1.25,1.49-1.95,2.31-5.63,6.62-9.94.91-6.73-4.42Z"/>
  <path d="M364.32,484.53c.52-1.38,1.93-9.44,2.69-10.02,10.94,2.13,22.11-.67,32.54-3.93,1.25,1.15-.98,1.65-1.41,2.19-6.2,7.84-13.05,16.69-21.12,22.75-6.47,4.86-12.92,8.21-21.2,5.94,3.44-4.87,5.16-10.45,7.29-15.92.17-.42.99-.43,1.21-1.01Z" fill="#fff"/>
  <path d="M360.93,698.2c.4-.59-.1-1.22,1.47-.86l-.34,11.17-8.86,4.6c-1.27-1.35,6.43-13.01,7.73-14.91Z" fill="#fff"/>
  <path d="M360.8,675.6l.82,15.32-6.78,9.69c-.68-1.28-1.83-1.95-2.7-2.86-6.94-7.23-12.05-13.18-22.54-15.6l.58-11.76,30.62,5.21Z" fill="#fff"/>
  <path d="M356.15,86.05c.94.58.91,1.31,1.02,2.27,1.05,8.91-.49,18.83-.62,27.71-.03,2,1.84,12.88-.51,13.43-2.99-.45-7.08,1.01-9.42-1.01v-42.4h9.53Z"/>
  <path d="M354.07,560.31l2.89.48c-2.76,16.88-4.25,34.11-6.48,50.69-.16,1.19-.75,6.31-2.22,6.31-2.42-1.7-1.74-5.46-1.63-8.19.38-9.74,3.03-37.03,6.35-44.56.34-.76.7-2.49,1.09-4.73Z"/>
  <path d="M341.56,356.7c1.14-1.72,2.97-6.71,5.27-6.26,2.16,2.73,16.71,8.23,18.19,4.77.13-.29.28-1.74-.42-1.64-4.55-1.42-15.85-3.8-17.17-9.04-.6-2.38.3-7.13,2.94-7.91,5.64-1.65,20.56,5.06,25.76,8.15,7.31,4.35,7.32,8.74,17.7,5.72,10.01-2.9,12.22-11.25,19.43-17.25,1.54,1.12,3.12,2.78,3.03,4.82-2.09,6.84-3.86,13.76-6.16,20.52-5,14.69-10.09,29.87-26.83,35.28-25.48,8.23-62.29-6.14-41.74-37.16Z" fill="#fff"/>
  <path d="M350.95,785.97c-1.29-.31-4.5-8.03-5.49-9.56-.41-.65.08-1.17-1.47-.85v13.14c-1.72.52-3.87,1.19-5.29-.44l.97-21.29,5.53-.5,6.34,12.35,1.65-1.13c.96-1.72,4.35-10.47,5.25-11.01,1.8-1.06,5.93.46,5.93.99v21.03h-5.26v-13.14c-2.81,1.79-4.15,11.35-8.16,10.41Z"/>
  <path d="M350.59,499.48c-.84-2.88-3.97-7.21-3.97-10.18v-14.13l15.79-.97c-1.2,4.05-2.01,8.34-3.46,12.32-.69,1.89-5.81,14.81-8.36,12.96Z" fill="#fff"/>
  <path d="M310.09,435.77c.92,1.26,19.26.46,22.42.59,6.4.28,13.01,1.19,19.37,2.01-9.34,18.92-12.61,42.35-5.26,62.43-12.23-.67-24.68-3.61-35.95-8.42-14.99-6.4-26.49-16.17-25.22-33.99,2.14-29.94,37.51-52.75,62.8-62.68,4.64,1.29,9.23,2.87,14,3.69,2.07.35,4.57-.2,6.27.31,1.64.49,2.43,4,4.42,5.44,6.37,4.61,16.08,5.55,23.64,4.3.38.33-3.19,5.22-3.67,5.85-.71.93-3.6,4.71-4.22,4.98-1.4.62-3.11.17-4.63.63-3.03.91-7.49,2.72-10.27,4.19-3.33,1.76-12.39,9.35-14.49,9.84-4.88,1.12-13.86-2.17-19.26-1.18-.85-2.24,1.06-2.56,1.26-3.14,1.2-3.53,1.84-7.79,2.87-11.46.52-1.83,4.34-8.42.79-8.43-2.63.92-2.7,5.04-3.66,7.39-.19.48-1.04.52-1.36,1.43-1.43,4.16-2,9.21-3.25,13.49-6.48.51-12.86-1.07-19.35-.62-2.26.16-9.17.54-7.25,3.35Z" fill="#fff"/>
  <path d="M323.21,130.02c-11.64,1.32-21.56-2.53-26.67-13.29-1.7-3.57-3.07-8-2.57-11.99.07-.5,3.41-8.2,3.98-9.18,7.14-12.15,30.86-14.22,38.83-1.95l-4.96,4.96c-6.15-4.55-14.25-7.45-21.33-2.96-5.4,3.44-7.61,12.42-5.23,18.18.13.33,4.02,5.02,4.53,5.47,4.14,3.65,11.87,4.03,16.67,1.52.64-.33,3.43-2.44,3.61-2.96,3.05-8.81-7.32-3.97-10.42-5.8-1.83-1.86-.56-4.62-.64-6.91h17.42c.82.67,1.41,1.22,1.62,2.32.36,1.86.25,12.61-.34,14.09-1.67,4.21-10.19,8.01-14.5,8.5Z"/>
  <path d="M210.7,536.11c2.17-1.72,4.9-1.98,7.31-3.18,26.73-13.22,51.98-29.02,77.83-43.86,1.42-.14,5.51,3.3,7.36,4.21,5.91,2.9,12.77,5.32,19.09,7.2,1.61.47,8.05,1.57,8.58,1.94,2.06,1.45-.88,9.63-1.6,11.95-4.68,15.18-9.04,32.38-12.3,47.86-1.99,9.48-3.09,19.17-5.2,28.63-2.32-1.34-5.38-1.97-7.69-3.16-11.32-5.83-21.31-14.48-31.84-21.4-19.24-12.65-40.26-22.27-62.37-28.69-.38-1.51.3-1.08.83-1.5Z" fill="#fff"/>
  <path d="M324.44,770.46c.58.1,2.55.94,2.95,1.32.43.43.45,1.38.82,1.98.28.44,1.19.42,1.3.94.23,1.01.2,5.06-.17,5.95-.14.34-3.89,3.93-4.76,4.1-11.49,2.23-12.31-16.41-.14-14.29Z" fill="#fff"/>
  <path d="M339.47,717.63c-3.36-12.98-11.75-22.58-25.07-25.56-.21-.2.35-.73.66-.97.63-.48,8.27-4.29,9.24-4.61,5.94-1.94,16.8,4.26,21.03,8.52,1.52,1.52,6.71,8.59,6.44,10.39-.08.54-4.1,9.64-4.51,10-.9.8-6.88,2.8-7.79,2.23Z" fill="#fff"/>
  <path d="M323.25,789.39c-15.59.84-17.28-22.45-1.73-23.51,16.7-1.15,17.47,22.66,1.73,23.51ZM329.34,780.65c.37-.89.4-4.94.17-5.95-.11-.52-1.02-.5-1.3-.94-.37-.6-.39-1.55-.82-1.98-.4-.38-2.37-1.22-2.95-1.32-12.17-2.12-11.35,16.52.14,14.29.87-.17,4.62-3.76,4.76-4.1Z"/>
  <path d="M312.08,26.87c1.16-1.07,9.01-1,10.05.19l16.98,41.92c-2.36,1.92-6.36,1.64-9.05.57-2.64-1.04-2.23-7.53-4.93-8.35-1.58-.48-16.83-.41-17.37.28-.61,1.46-2.86,6.96-3.91,7.78-2.47,1.95-7,.6-9.83.35l18.06-42.74ZM316.71,37.41c-1.2,1.9-6.4,15.64-5.59,16.43h11.83c.06-1.86-5.29-16.84-6.24-16.43Z"/>
  <path d="M309.49,825.5c-5.1-1.15,3.57-10.83,7.36-11.68,1.2-.27,4.57-.42,4.13,1.5-2.13,1.66-4.91,2.29-6.9,4.29-1.21,1.22-3.35,6.17-4.59,5.89Z"/>
  <path d="M311.12,53.84c-.81-.79,4.39-14.53,5.59-16.43.95-.41,6.3,14.57,6.24,16.43h-11.83Z" fill="#fff"/>
  <path d="M300.6,698.01c3.74-1,6.61-3.74,10.68-3.15,6.96.99,12.68,5.06,17.16,10.14.42.47,1.31.67,1.72,1.2,1.27,1.7,6.44,11.32,5.22,12.78l-16.55,1.99c-2.59-2.14-2.78-5.95-4.31-8.96-2.29-4.5-4.34-7.05-8.45-9.95-.73-.52-6.62-2.81-5.47-4.05Z" fill="#fff"/>
  <path d="M302.91,825.51c-4.95-3.47,1.55-20.72,7.17-19.03.48.15,1.21.97,1.02,1.59-2.45,2.25-3.65,4.99-4.86,7.99-.08.19-.91.24-1.02.72-.28,1.23.18,9.26-2.31,8.73Z"/>
  <path d="M302.6,789.06c-18.59,3.43-20.74-23.83-3.02-23.38,3.72.09,12.87,3.35,6.46,7.18-1.45.36-3.22-1.85-4.77-2.26-6.17-1.66-11.61,6.82-7.04,11.98,1.73,1.96,5.23,2.65,7.71,1.88,1.84-.57,4.78-4.36,6.92-.37,1.2,2.23-4.54,4.65-6.26,4.97Z"/>
  <path d="M251.69,177.49c-3.08.39-6.54,3.3-8.95.9-.8-3.81,11.76-4.98,14.11-4.93,7.22.17,12.15,3.48,17.44,7.9,2.66-9.17,15.66-14.31,24.37-12.85.77.13,5.04,1.49,5.19,1.72,2.37,3.83-9.48,1.72-11.42,1.98-4.15.56-10.65,3.79-13.16,7.22-1.2,1.64-3.42,8.27-4.7,8.48-4-2.77-6.15-7.54-10.92-9.38-3.27-1.26-8.49-1.48-11.96-1.04Z"/>
  <path d="M297.49,825.33c-1.03-1.01-1.34-3.96-2.16-5.26-.53-.84-3.11-3.89-3.91-4.78-.96-1.07-2.29-1.61-3.31-2.6,1.97-4.62,8.49,2.53,9.98,5.14,1.54,2.69,4.05,12.07-.6,7.5Z"/>
  <path d="M288.1,93.94h-19.39c-.19,0-1.53.67-1.67,1.11.41,2.79-.96,6.6,1.01,8.75h17.42v7.23h-16.76c-2.88,2.29-1.65,7.29-.99,10.52h20.71c1.93,1.91.65,5.35.99,7.88h-30.57l-.99-.98v-41.74h29.92c2.22,1.93.15,4.81.32,7.23Z"/>
  <path d="M285.46,714.43c-2.22.41-2.13-3.2-1.68-4.63.7-2.25,6.17-6.67,8.45-7.34,9.52-2.81,20.4,9.55,21.5,18.52-1.04,1.48-15.67-.52-18.12-1.92-1.38-5.13,8.49-7.6,5.27-11.17-4.53,1.33-9.02,5.52-9.5,10.49l-2.55-.72c-1.3-2.73,4.23-9.4,3.88-10.77-1.21-4.62-7.68,5.41-7.25,7.54Z" fill="#fff"/>
  <path d="M283.18,717.7c1.69.31,6.57,3.61,9.37,4.44,17.89,5.33,42.33,1.89,59.67-4.41,1.31-.47,9.15-4.32,9.52-3.95.01,1.88-1.36,3.15-2.82,4.08-12.33,7.82-42.32,11.47-56.67,9.7-7.06-.86-15.35-2.64-20.07-8.2.01-.99-.45-1.92,1-1.66Z" fill="#fff"/>
  <path d="M253.26,26.24c6.32.57,13.9-.78,20.05,0,4.01.5,10.44,3.53,12.71,7.01,3.28,4.99,2.81,13.04-1.82,17.02-1.21,1.04-6.2,2.58-5.98,3.9.05.33,3.2,4.94,3.68,5.55,1.27,1.57,8.45,7.24,6.81,9.84l-9.8.38-10.15-14.83-6.3-.61v14.13c-.98,1.49-8.38,1.3-9.24.7l-.53-.79.57-42.3ZM276.74,45.11c3.15-3.16,1.27-10.16-3.43-10.99-2.84-.5-6.85.37-9.86,0l-.99.99v11.17c1.97,2.01,12.7.42,14.28-1.17Z"/>
  <path d="M276.24,656.55c-4.94,1.43-8.62,3.94-9.87,9.21l-2.29-.61c-2.36-3.31,7.59-14.01,11.89-10.56l.27,1.96Z"/>
  <path d="M276.74,45.11c-1.58,1.59-12.31,3.18-14.28,1.17v-11.17l.99-.99c3.01.37,7.02-.5,9.86,0,4.7.83,6.58,7.83,3.43,10.99Z" fill="#fff"/>
  <path d="M265.75,780.16h-5.26s1.98-6.57,1.98-6.57c1.52-1.15,3.72,5.34,3.28,6.57Z" fill="#fff"/>
  <path d="M258.18,784.75c-.86,3.79-1.23,4.98-5.58,4.61-.16-1.33.11-2.55.45-3.82.91-3.39,4.43-12.48,6.04-15.63,1.31-2.56,4.17-5.5,7.01-2.91,1.01.92,4.14,11.93,5.13,14.26.1.24,1,.39,1.29,1.04,1.69,3.89,3.93,8.39-2.84,6.74-1.67-6.18-6.11-5.73-11.5-4.29ZM265.75,780.16c.44-1.23-1.76-7.72-3.28-6.57l-1.98,6.56h5.26Z"/>
  <path d="M246.66,648.35c4.66-3.02,9.7,7.6,11.85,10.21-.72-3.02,1.04-4.14,1.92-5.79,1.09-2.06,3.01-7.44,6.31-5.39,1.24,1.77-1.44,3.05-2.2,4.38s-1.94,3.45-2.4,4.83c-.43,1.32-.9,6.19-1.12,6.45-.21.25-1.29.12-1.78.51-.78.62-.83,2.68-2.73,1.29-.91-.66-3.09-9.63-6.5-12.56-.85-.72-5.8-2.34-3.35-3.93Z"/>
  <path d="M239.13,721.66c-3.85-.81,2.56-14.59,6.68-15.67.39-.11.79-.21,1.19-.11l1,1.64c-1.68,1.63-3.36,3.29-4.49,5.38-.81,1.52-2.65,9.12-4.38,8.76Z"/>
  <path d="M202.98,535.02c-33.69-7.84-66.36-19.66-92.38-43.09l56.39-23.14c25.34-8.01,36.31-1.77,57.78,10.21,13.73,7.66,26.81,17,41.64,22.47.52.68-4.75,3.62-5.48,4.05-11.07,6.63-23.37,13.92-34.84,19.72-4.37,2.21-16.19,8.41-20.15,9.43-.98.26-1.92.5-2.96.35Z" fill="#fff"/>
  <path d="M242.8,292.38c.17-1.22.07-2.53-.36-3.91-.7-2.26-2.66-1.82-2.98-3.58.52-1.13,17.46-10.49,19.43-10.81,6.52-1.04,9.46,3.24,3.37,7.32-3.52,2.36-14.56,6.34-16.6,9.04-.78,1.04-1.11,1.74-1.11,2.2l-1.75-.26Z" fill="#fff"/>
  <path d="M224.6,371.28c-5.88.23-8.88-6.4-12.09-10.16,4.62-3.77,7.88-8.88,11.27-13.71.5-.7,1.47-.95,1.88-1.56,2.26-3.4,5.03-11.31,7.2-13.66,2.06-2.21,5.3-1.89,7.58-3.58.65.45.85.86.99,1.63,1.1,6.42-1.51,22.26-4.2,28.35-.11.24-.88.37-1.05.72-2.38,4.82-4.89,11.7-11.58,11.97Z" fill="#fff"/>
  <path d="M239.13,655.27c2.74-.31,5.15.6,7.33,2.2.26.19,3.95,3.87,4.1,4.12.77,1.34.84,2.7.72,4.2-3.53.19-4.87-3.81-7.56-5.92-1.8-1.41-6.02-1.97-4.59-4.6Z"/>
  <path d="M219.03,46.98c6.55,1.04,18.62.87,15.52-8.95-.41-1.31-3.62-3.91-4.63-3.91h-10.52c-1.47,0-1.12,12.34-.37,12.86ZM210.82,26.2c6.52-.76,20.78-.41,26.66,2.34,5.53,2.59,7.53,7.21,7.26,13.17-.38,8.37-7.18,12.57-14.9,13.37-3.74.38-8.42-.88-11.43,1.06v13.48l-9.24.37-1.3-13.82c1.05-4.72-1.4-27.11.99-29.29.7-.64,1.12-.58,1.96-.68Z"/>
  <path d="M233.63,767.43c.6-1.83,4.21-.88,5.82-1.07v18.4h10.52c-.08,1.42.57,3.97-1.08,4.51l-14.41-.52c.03-5.3-2.38-16.66-.85-21.32Z"/>
  <path d="M234.55,38.03c3.1,9.82-8.97,9.99-15.52,8.95-.75-.52-1.1-12.86.37-12.86h10.52c1.01,0,4.22,2.6,4.63,3.91Z" fill="#fff"/>
  <path d="M220.36,288.82c-.02,3.24,6.88-.01,8.97-.25,2.51-.29,9.39-.83,9.98,2.32.84,4.52-11.28,9.29-14.9,10.17,1.22,6.46-3.17,9.76-4.68,15.04,8.27,1.33,7.92-10.76,9.84-12.83.69-.74,7.04-2.86,8.89-4.26,2.33-1.76,3.97-4,4.34-6.63l1.75.26c0,1.61,4.03.11,5.87-.73,3.98-1.83,12.95-7.74,16.47-8.52.93-.2,1.87-.2,2.81-.15.01,1.55.17,3.11-.3,4.64-1.3,4.27-16.78,9.36-20.99,12.53-2.01,1.51-1.15,3.36,1.17,3.21,1.11-.07,13.75-6.64,15.95-7.78,1.7-.87,5.92-5.12,4.69-.58-2.21,8.12-13.4,9.23-17.24,13.66-3.27,3.76-2.94,8.19-8.26,12.78-5.34,4.6-8.54,3.77-13.33,6.39-2.89,1.59-3.8,6.66-5.56,9.53-.49.8-1.26.95-1.7,1.66-3.97,6.25-7.31,13.33-13.6,17.58-1.41-5.2-3.4-10.33-4.41-15.64-4.19-22-5.71-44.55,13.3-59.93,5.59-4.52,19.29-13.1,26.27-13.85,4.8-.51,10.46,2.77,5.04,6.37-3.7,2.47-14.16,8.86-17.91,10.36-2.6,1.04-12.44,1.68-12.46,4.65Z" fill="#fff"/>
  <path d="M232.14,713.52c-.6-4.19-2.1-7.61-3.2-11.58,1.76-.21,2.5.04,3.59,1.34,2.29,2.74,4.97,17.62,1.32,18.38-2.83-.8-1.34-5.57-1.71-8.14Z"/>
  <polygon points="219.08 772.93 221.7 780.16 217.1 780.16 219.08 772.93" fill="#fff"/>
  <path d="M217.09,766.68c4.97-2.99,6.05,3.52,7.5,6.66.07.15.79.25,1.01.76,1.96,4.42,3.13,10.12,5.31,14.6-6.31,3.17-6.34-3.34-7.88-4.28-1.08-.66-6.7-.63-7.6.32-1.12,1.18-.22,3.41-2.96,4.24-2.54.77-4.31.71-3.79-2.41.31-1.9,3.34-9.29,4.29-11.5.29-.69,1.21-.79,1.46-1.33.74-1.61,1.02-6.07,2.66-7.06ZM221.7,780.16l-2.62-7.23-1.98,7.23h4.6Z"/>
  <path d="M217.76,710.49c3.96-.4,12.07,6.41,11.6,10.2-.45,3.7-3.13.17-3.99-.73-1.4-1.47-2.12-2.96-3.35-4.21-1.82-1.84-5.14-2.07-4.26-5.26Z"/>
  <path d="M203.79,94.11c-14.87,2.31-14.26,31.14,6.25,27.93,8.53-1.33,11.31-9.25,10.17-17.09-1.31-9.07-7.82-12.18-16.42-10.84ZM204.47,85.59c14.91-1.17,27.72,8.72,26.43,24.45-2.29,27.85-50.49,27.65-47.25-5.17,1.08-10.96,10.11-18.44,20.82-19.28Z"/>
  <path d="M210.04,122.04c-20.51,3.21-21.12-25.62-6.25-27.93,8.6-1.34,15.11,1.77,16.42,10.84,1.14,7.84-1.64,15.76-10.17,17.09Z" fill="#fff"/>
  <path d="M205.26,775.56c1.28,6.9-4.68,4.1-9.2,4.6l-.1,8.44c-.92.81-4.5,1.13-4.5-.22v-21.04l.98-.98h14.14c.46,1,1.16,4.6-.33,4.6h-10.19v4.6h9.2Z"/>
  <path d="M57.05,227.99c1.23,1.76,4.48,3.67,4.87,5.64.71,3.61-1.27,8.22-.72,12.06-20.34,5.17-40.54,11.03-57.12,24.4,1-9.86-1.33-22.33,0-31.87.73-5.16,8.9-13.4,9.73-19.24.63-4.48-1.84-11.15-1.18-16.92,1.25-10.93,14.56-15.33,14.52-26.95,0-2.24-.78-4.13-.72-6.54.13-6.07,3.08-13.39,6.97-18.05,5.06-6.07,15.04-8.24,22.64-6.9,1.13-5.09,2.34-10.24,4.95-14.8,9.39-16.42,33.29-20.45,49.11-11.06,2.89,1.72,4.69,4.65,7.5,6.28,9.54-6.01,19.49-7.19,30.35-4.02,20.34,5.95,23.47,38.54,49.42,29.13,1.52,6.53-.28,18.04-4.9,23.03-2.63,2.84-5.95,2.89-5.57,8.1.4,5.49,2.46,9.36,1.92,15.86-.37,4.37-2.7,8.35-3.23,11.88-1.03,6.74,3.32,15.59-3.01,21.97-1.05.03-2.15-7.72-2.77-9.03-.62-1.34-1.84-.55-2.16-3.77-.99-9.85-.21-21.54-.63-31.58-.3-7.31-2.01-14.7-.7-21.98-10.29-1.1-20.14-2.99-28.57-9.23-2.13-1.58-7.46-7.91-9.77-7.15-1.19.39-3.07,5.61-4.13,7.11-6.11,8.67-17.7,15.24-28.26,16.41-3.12.35-18.79-.61-19.7.69-.28,7.3-2.19,16.96-6.57,23-4.97,6.85-17.7,6.86-22.54,15.6-3.26,5.88-3.68,12.27.27,17.93Z" fill="#fff"/>
  <path d="M27.41,332.53c9.93-8.58,25.49-10.39,37.09-4.2,4.08,2.18,6.27,6.6,10.28,8.83,1.49.15,7.98-4.32,10.69-5.09,16.12-4.62,34.83,5.02,39.77,20.99.73,2.38.87,8.5,2.9,8.99.87.21,8.79-4.2,11.71-4.54,2.84-.32,8.98-.31,11.84,0,9.76,1.05,21.88,10.98,23.35,21.02,1.16.98,8.75-3.91,10.8-4.61,11.97-4.06,23.22.51,31.03,9.78.6.11,8.65-4.52,9.65-5.26,12.11-8.94,18.08-24.98,18.84-39.67.15-2.75-1.01-11.55-.31-12.8.4-.72,4.06-2.7,5.21-3.99,2.86-3.16,3.48-8.54,5.85-10.91,1.81-1.8,5.07-2.26,7.22-3.62,3.08-1.95,10.29-7.81,11.17-11.18,1.03-3.95-.53-4.66-.7-7.6-.13-2.09,1.03-3.53.2-6.12-.85-2.66-4.36-3.28-4.81-4.06-.71-1.22-.05-3.66-2.12-5.92-3.42-3.75-8.45-1.51-10.53-2.79-1.16-.72-1.26-3.78-4.59-5.28-9.06-4.05-26.85,6.92-33.88,12.81-2.59,2.16-4.7,5.28-7.87,7.23-3.94-8.16-9.41-15.29-16.1-21.35-1.99-1.81-6.38-3.94-7.82-5.99-2.27-3.25-1.12-9.18-1.41-13.06-.17-2.31-1.45-5.05-1.34-7.23.16-3.42,4.97-6.72,4.7-10.79,2.08-.42,3.94.2,5.85.93,2.05.79,7.07,5.73,8.46,3.5.2-.32.84-5.75,1.39-7.47,3.95-12.34,14.53-19.41,27.67-17.1,10.78,1.89,18.12,11.83,20.18,21.89.3,1.47-.31,5.75,1.16,6.07,6.22-5.33,15.17-6.68,22.85-3.79,5.11,1.92,10.4,7.83,10.96,13.4.21,2.11-1.4,6.18.01,7.21,7.43-1.3,13.26-1.45,19.31,3.67,10.1,8.55,10.19,27.21,1.66,36.93-1.69,1.92-7.41,4.44-7.18,6.66.18,1.82,5.17,3.23,6.98,4.91,13.57,12.59,5.49,36.13-9.88,43.43-1.96.93-5.95,1.31-6.62,2.61-.78,1.51,2.58,6.22,2.93,8.93,1.79,13.66-5.25,27.06-18.86,30.98-5.25,1.51-10.62.36-15.97,1.13-1.28,6.59-2.5,13.42-6.91,18.72-9.32,11.2-26.51,16.31-40.37,11.54-2.43-.83-5.54-3.68-8.13-2.85-1.26.41-3.08,4.19-4.02,5.19-11.75,12.44-30.29,15.08-45.5,7.32-2.74-1.39-8.24-6.94-10.38-6.7-5.79,4.15-10.01,8.41-17.09,10.56-17.42,5.29-33.61-1.7-43.56-16.37-5.26,1.22-10.59,3.83-16.29,3.9-6.15.08-15.79-3.35-20.66-7.01-6.06-4.55-11.35-10.41-13.3-17.92-5.81.26-11.37,1.12-17.17-.26-4.56-1.09-7.44-4.27-11.67-5.75v-49.95h16.11c2.27-.49,5.36-6.29,7.22-7.9Z" fill="#fff"/>
  <path d="M140.83,353.57c-1.08-.94,4.21-5.12,4.6-5.59,3.32-3.98,8.51-11.06,11.19-15.29,2.78-4.4,5.96-13.14,8.88-16.57,1.64-1.93,6.3-3.44,8.88-6.24,7.01-7.59,5.18-14.4,5.99-23.6.6-6.83,2.98-15.59,4.49-22.48.21-.91-.54-1.87,1.02-1.6,9.85,5.68,16.48,15.52,21.76,25.3l-7.35,16.07c-7.63,8.98-13.17,20.34-16.25,31.74-.33,1.21-1.88,7.42-1.73,7.99.41,1.54,2.22,1.42,3.17.02,2.45-3.63,2.15-13.19,5.91-16.57l7.29-14.58,2.66,28.46c4.54,10.24,5.54,25.38,16.45,32.3,1.85,1.18,3.22,1.05,4.92,1.66.84.3,1.2-.45.96,1.32l-6.15,3.19c-8.03-8.52-17.94-11.14-29.51-9.58-3.94.53-6.36,2.71-9.93,3.72-3.01-3.82-4.79-8.62-8.65-11.78-2.84-2.31-13-7.89-16.43-7.89h-12.17Z" fill="#fff"/>
  <path d="M172.07,695.38c-.52.52-7.23,11.3-8.23,6.22-.85-4.36,13.49-16.74,19.07-14.12.45,3.52-4.08,3.35-6.28,4.57-1.05.58-3.74,2.51-4.56,3.33Z"/>
  <path d="M152.63,56.73c4.76,3.18,7.15,6.27,13.46,5.6,4.02-.42,7.31-4.08,3.85-7.21-4.9-4.43-19.39-4.48-21.06-13.59-3.31-18.04,21.73-20.55,30.5-9.15.56.72,1.04,1.42.9,2.39-2.83-.19-3.71,3.06-6.25,3.8-2.69-4.09-15.62-8.2-15.46-.83.12,5.66,12.68,7.26,17.33,10.29,7.41,4.84,7.59,13.44.66,18.86-7.28,5.7-19.09,5.01-26.18-.57-6.4-5.05-2.88-5.83,2.25-9.59Z"/>
  <path d="M160.51,783.75c4.09-3.91,4.2,2.67,10.1.87,6.38-1.95-4.46-5.51-5.48-6.07-12.72-6.95,4.29-19.33,11.81-9.14l-2.9,2.87c-2.48-1.4-4.55-2.85-7.6-1.68-1.02.68-.52,2.84.21,3.47,1.97,1.7,8.15,1.48,9.84,5.6,3.81,9.28-11.53,13.37-16.29,5.74l.31-1.66Z"/>
  <path d="M171.45,187.98c-1.33,1.89-18.34-.86-21.65-.14-7.93-12.2,14.97-8.69,21.15-6.34l.5,6.48Z"/>
  <path d="M162.86,118.26c-6.22,4.85-9.18-1.81-15.45-2.63v-20.71c4.72-1.67,12.87-.41,16.43,3.3,4.71,4.91,4.49,15.75-.98,20.04Z" fill="#fff"/>
  <path d="M162.17,210.31c-4.95.5-6.31-12.43-1.15-13.76,4.91-1.27,7.95,13.09,1.15,13.76Z"/>
  <path d="M132.29,250.37c2.91.41,5.02,1.41,8.11,1.25.81-.04,10.74-1.65,8.98-3.87-2.2.21-6.82-3.27-8.22-3.28-.46,0-6.81,3.85-7.93,4.53-.58.35-1.3-.34-.94,1.37ZM152.49,245.63c2.52.91,13.67,2.72,13.95,4.49-1.49,4.27-8.28-.13-12.14.19-2.11.18-2.57,1.71-4.25,2.38-2.85,1.15-9.12,2.34-12.14,2.31-3.1-.04-9.45-2.62-11.11-2.48-2.38.21-9.24,4.95-11.28,3.12-3.5-3.13,6.16-4.95,8.02-5.79,5.87-2.66,12.05-5.94,17.1-9.92h1.04c3.06,2.02,7.33,4.44,10.81,5.7Z"/>
  <path d="M160.72,702.43c-.98,2.13-2.6.61-2.83-1.45-1.13-9.79,9.86-25.4,19.76-27.3.64,3.67-3.68,4.76-5.93,6.88-2.84,2.67-6.38,6.94-7.89,10.52-1.48,3.49-1.82,8.55-3.11,11.35Z"/>
  <path d="M153.99,785.75c-4.11,4.47-12.25,5.28-16.45.66-.35-.38-1.97-3.1-1.97-3.29v-16.76h4.61v15.44c0,3.96,10.52,3.96,10.52,0v-14.46c1.55-1.91,4-.74,5.91-.33v15.78c-1.76-.2-1.59,1.84-2.62,2.96Z"/>
  <path d="M479.74,763.71c1.92-.21,7.49-3.95,4.94-5.9-.45-.34-11.7,3.84-4.94,5.9ZM486.33,766.36h-14.47l-.98.98v20.38c1.7,2.62,16.12,1.89,16.48.6,1.79-6.56-10-1.84-11.59-4.17l-.19-3.9,9.77-.74v-3.96c-4.55-.59-11.23,2.5-9.87-4.59h10.85c1.47-1.13,1.47-3.47,0-4.6ZM459.71,784.44c-4.88,2.68-7.57-5.11-10.57-.69-1.52,2.24,3.47,4.83,5.28,5.3,8.54,2.2,15.94-7.52,7.49-12.74-1.3-.79-7.17-2.46-7.4-2.78-.47-.66-.17-2.74,1.01-3.14,3.61-1.2,5.73,1.84,7.03,1.77l2.9-2.86c-4.08-5.84-17.08-4.81-16.15,3.78.81,7.42,11.71,5.75,11.46,9.37l-1.05,1.99ZM438.01,788.7c1.08.52,5.25,1.22,5.25-.32v-21.04c-1.21-1.6-3.43-.87-5.25-.98v22.34ZM409.1,780.35c.11.47,1.03.51,1.23.99,1.22,2.9,1.19,4.34,4.2,6.18,4.48,2.75,10.45,2.49,14.6-.79.54-.43,4.19-4.74,4.26-5.06.28-1.28.23-6.34.06-7.79-.15-1.2-.96-.96-1.09-1.2-3.19-6.05-9.53-8.76-16.05-6-3.59,1.53-4.63,4.5-5.98,7.7-.2.48-1.12.52-1.23.99-.22.97-.22,4.01,0,4.98ZM379.46,786.44c.2,2.49.57,3.69,3.51,2.8,3.23-.97,1.53-10.18,1.13-13.02.49-.61,3.18,2.24,3.3,2.44,1.3,2.1,1.7,6.49,4.85,7.39,2.33-.43,4.34-10.06,7.62-10.49v12.16c0,.95,4,3.26,4.6,0,1.1-5.98-1.31-13.57-.65-19.72.08-2.39-4.68-1.97-5.74-.8-1.27,1.39-4.93,11.26-5.45,11.64-4.82-4.36-3.76-14.54-12.48-12.49.7,6.69-1.22,13.45-.69,20.09ZM338.7,788.26c1.42,1.63,3.57.96,5.29.44v-13.14c1.55-.32,1.06.2,1.47.85.99,1.53,4.2,9.25,5.49,9.56,4.01.94,5.35-8.62,8.16-10.41v13.14h5.26v-21.03c0-.53-4.13-2.05-5.93-.99-.9.54-4.29,9.29-5.25,11.01l-1.65,1.13-6.34-12.35-5.53.5-.97,21.29ZM310.08,806.48c-5.62-1.69-12.12,15.56-7.17,19.03,2.49.53,2.03-7.5,2.31-8.73.11-.48.94-.53,1.02-.72,1.21-3,2.41-5.74,4.86-7.99.19-.62-.54-1.44-1.02-1.59ZM301.94,784.46c-2.48.77-5.98.08-7.71-1.88-4.57-5.16.87-13.64,7.04-11.98,1.55.41,3.32,2.62,4.77,2.26,6.41-3.83-2.74-7.09-6.46-7.18-17.72-.45-15.57,26.81,3.02,23.38,1.72-.32,7.46-2.74,6.26-4.97-2.14-3.99-5.08-.2-6.92.37ZM291.42,815.29c.8.89,3.38,3.94,3.91,4.78.82,1.3,1.13,4.25,2.16,5.26,4.65,4.57,2.14-4.81.6-7.5-1.49-2.61-8.01-9.76-9.98-5.14,1.02.99,2.35,1.53,3.31,2.6ZM275.97,654.59c-4.3-3.45-14.25,7.25-11.89,10.56l2.29.61c1.25-5.27,4.93-7.78,9.87-9.21l-.27-1.96ZM250.01,652.28c3.41,2.93,5.59,11.9,6.5,12.56,1.9,1.39,1.95-.67,2.73-1.29.49-.39,1.57-.26,1.78-.51.22-.26.69-5.13,1.12-6.45.46-1.38,1.64-3.5,2.4-4.83s3.44-2.61,2.2-4.38c-3.3-2.05-5.22,3.33-6.31,5.39-.88,1.65-2.64,2.77-1.92,5.79-2.15-2.61-7.19-13.23-11.85-10.21-2.45,1.59,2.5,3.21,3.35,3.93ZM253.05,785.54c-.34,1.27-.61,2.49-.45,3.82,4.35.37,4.72-.82,5.58-4.61,5.39-1.44,9.83-1.89,11.5,4.29,6.77,1.65,4.53-2.85,2.84-6.74-.29-.65-1.19-.8-1.29-1.04-.99-2.33-4.12-13.34-5.13-14.26-2.84-2.59-5.7.35-7.01,2.91-1.61,3.15-5.13,12.24-6.04,15.63ZM243.72,659.87c2.69,2.11,4.03,6.11,7.56,5.92.12-1.5.05-2.86-.72-4.2-.15-.25-3.84-3.93-4.1-4.12-2.18-1.6-4.59-2.51-7.33-2.2-1.43,2.63,2.79,3.19,4.59,4.6ZM245.81,705.99c-4.12,1.08-10.53,14.86-6.68,15.67,1.73.36,3.57-7.24,4.38-8.76,1.13-2.09,2.81-3.75,4.49-5.38l-1-1.64c-.4-.1-.8,0-1.19.11ZM239.45,766.36c-1.61.19-5.22-.76-5.82,1.07-1.53,4.66.88,16.02.85,21.32l14.41.52c1.65-.54,1-3.09,1.08-4.51h-10.52v-18.4ZM228.94,701.94c1.1,3.97,2.6,7.39,3.2,11.58.37,2.57-1.12,7.34,1.71,8.14,3.65-.76.97-15.64-1.32-18.38-1.09-1.3-1.83-1.55-3.59-1.34ZM132.29,691.42c6.37,1,9.13,6.7,13.27,10.05.78.63.71,1.58,2.5,1.12.72-.75-1.19-5.9-1.93-6.76-.15-.18-3.08-2.49-3.56-2.85-2.83-2.11-7.38-5.57-10.28-1.56ZM135.73,680.42c4.92,2.43,10.56,8.49,12.91,13.38.93,1.93,2.06,6.95,3.04,8.14.62.74,2.67.94,2.96.66,1.86-1.84-4.98-14.85-6.9-17.1-1.83-2.16-13.07-11.5-15.42-7.83-.72,2.72,1.36,1.73,3.41,2.75ZM229.36,720.69c.47-3.79-7.64-10.6-11.6-10.2-.88,3.19,2.44,3.42,4.26,5.26,1.23,1.25,1.95,2.74,3.35,4.21.86.9,3.54,4.43,3.99.73ZM215.43,784.74c.9-.95,6.52-.98,7.6-.32,1.54.94,1.57,7.45,7.88,4.28-2.18-4.48-3.35-10.18-5.31-14.6-.22-.51-.94-.61-1.01-.76-1.45-3.14-2.53-9.65-7.5-6.66-1.64.99-1.92,5.45-2.66,7.06-.25.54-1.17.64-1.46,1.33-.95,2.21-3.98,9.6-4.29,11.5-.52,3.12,1.25,3.18,3.79,2.41,2.74-.83,1.84-3.06,2.96-4.24ZM191.46,788.38c0,1.35,3.58,1.03,4.5.22l.1-8.44c4.52-.5,10.48,2.3,9.2-4.6h-9.2v-4.6h10.19c1.49,0,.79-3.6.33-4.6h-14.14l-.98.98v21.04ZM135.57,783.12c0,.19,1.62,2.91,1.97,3.29,4.2,4.62,12.34,3.81,16.45-.66,1.03-1.12.86-3.16,2.62-2.96v-15.78c-1.91-.41-4.36-1.58-5.91.33v14.46c0,3.96-10.52,3.96-10.52,0v-15.44h-4.61v16.76ZM119.13,780.16c4.55-.6,11.23,2.49,9.87-4.6h-9.86v-4.6h11.17v-4.6h-15.77v22.02l.98.98h14.47c1.47-1.13,1.47-3.47,0-4.6h-10.85v-4.6ZM182.91,687.48c-5.58-2.62-19.92,9.76-19.07,14.12,1,5.08,7.71-5.7,8.23-6.22.82-.82,3.51-2.75,4.56-3.33,2.2-1.22,6.73-1.05,6.28-4.57ZM170.61,784.62c-5.9,1.8-6.01-4.78-10.1-.87l-.31,1.66c4.76,7.63,20.1,3.54,16.29-5.74-1.69-4.12-7.87-3.9-9.84-5.6-.73-.63-1.23-2.79-.21-3.47,3.05-1.17,5.12.28,7.6,1.68l2.9-2.87c-7.52-10.19-24.53,2.19-11.81,9.14,1.02.56,11.86,4.12,5.48,6.07ZM157.89,700.98c.23,2.06,1.85,3.58,2.83,1.45,1.29-2.8,1.63-7.86,3.11-11.35,1.51-3.58,5.05-7.85,7.89-10.52,2.25-2.12,6.57-3.21,5.93-6.88-9.9,1.9-20.89,17.51-19.76,27.3ZM590.54,527.1v310.24H4.08v-115.35c11.6-8.23,22.42-17.57,33.98-25.84,15.02-10.75,30.87-20.29,47.76-27.85,34.33-15.34,71.49-18.36,107.63-27.79,26.44-6.9,52-16.51,78.07-24.49,12.72-3.89,25.9-6.36,38.28-11.36-1.32,8.35-2.04,16.8-3.32,25.16-.08.5-1.16.45-1.25.95-1.5,8.48-1.69,18.14-2.64,26.79.49,2.55,9.78,6.72,12.48,7.89,2.18.94,9.55,2.63,10.58,3.91l.53,1.31c-1.83,6.83,2.1,10-5.17,13.89-9.78,5.22-20.46,9.04-30.17,14.52-4.74,2.67-9.79,5.47-11.48,10.88-3.4,10.89,1.83,16,11.9,18.73,19.44,5.27,43.81,2.12,62.56-4.76,4.06-1.49,11.28-4.1,12.37-8.67,1.04-4.34.39-14.8.18-19.59-.14-3.16-2.64-18.33-.7-19.73l36.87,1.97c.85,4.27,1.84,13.55-1.66,16.83-2.05,1.92-4.66,3.94-7,6.14-5.16,4.83-15.75,12.75-19.56,17.91-2.62,3.55-2.8,12.89-.11,16.37.35.45,4.12,3.34,4.81,3.73,8.27,4.66,29.32,3.93,38.76,2.32,6.54-1.11,12.53-3.93,18.6-6.39,5.38,4.68,11.55,7.59,18.05,2.92,2.64-1.9,3.51-4.59,4.29-7.53,3.78-14.22,5.38-30.33,8.25-44.88,3.93-19.97,9.24-42.39,13.17-62.56,3.54-18.13,5.53-38.43,11.06-55.43.52-1.58.23-4.7,1.06-6.05.41-.66,7.43-3.66,8.87-4.27,14.89-6.41,31.43-13.01,46.7-18.39,13.93-4.91,28.09-9.09,42.71-11.53ZM551.45,595.45c2.32.54,3.64-4.55,4.9-6.23,2.1-2.8,6.41-3.87,5.91-7.56-2.97-.23-5.35,1.51-7.21,3.63-1.14,1.29-6.45,9.5-3.6,10.16ZM545.17,729.54c4.79.5,6.09-5.98,9.23-9.5,1.02-1.16,2.13-2.27,3.32-3.25,1.37-1.15,10.03-5.42,7.83-7.62-5.52.46-10.18,4.91-13.82,8.86-.98,1.06-4.68,5.5-5.27,6.56-.86,1.56-1.45,3.13-1.29,4.95ZM547.84,574.79c-2.9,2.34-3.66,14.9-3.32,18.7h2.62c.07-3.03-.06-7.13.7-10.03.13-.51.97-.55,1.02-.72.46-1.43,2.96-7.56,2.89-7.97-.28-1.52-3.11-.63-3.91.02ZM540.57,821.23c.65,2.52,5.35-2.29,6.78-3.07,1.57-.84,7.92-2.16,6.37-4.47-1.92-2.85-13.42,3.59-13.15,7.54ZM538.6,728.89c.8-.14,2.12.45,2.7-.39,1.19-1.74,2.11-10.85,3.03-13.93.75-2.51,2.34-6.23,3.7-8.47.19-.32,1.18-.59,1.63-1.28,2.28-3.5,4.14-6.94,7.24-9.89.45-.75-.3-2.07-.9-2.19-2.77-.57-10.57,10.67-11.83,13.13-3.63,7.1-5.79,14.99-5.57,23.02ZM542.53,596.11c3-2.04-5.59-17.17-11.16-15.11-1.79,1.81,4.86,6.26,5.91,7.74,1.27,1.8,2.9,8.98,5.25,7.37ZM533.46,818.78c-.43,3.17,2.31,3.57,3.66,1.96.61-.72,2.79-7.71,4.21-9.91,2.3-3.55,6.5-4.65,6.47-8.32-6.6-.02-13.56,10.61-14.34,16.27ZM526.2,806.71c1,2.49,2.56,14.45,3.2,14.86.26.16,1.62.09,2-.29,1.87-1.38-1.08-13.5-1.98-15.85-1.52-4.01-3.64-6.47-7.58-8.18-3.31.69,3.79,8.03,4.36,9.46ZM525.86,712.04c3.69,4.18,3.53,12.23,5.65,16.38,1.37,2.67,3.15.9,3.2-1.82.07-4.47-3.57-13.82-6.09-17.64-1.39-2.09-11.3-12.64-13.69-10.3l.1,1.53,10.83,11.85ZM524.81,642.58c-.49,2.02.3,5.22-.02,7.43l3.14-.81c.89-4.15,1.29-8.67,2.75-12.69,1.1-3,5.05-6.79,2.97-8.84-2.85-.75-6.32,7.79-7.1,9.97-.38,1.06-1.68,4.67-1.74,4.94ZM508.52,714.6c5.29,3.19,8.16,2.63,12.6,8.43,2.2,2.87,3.33,9.12,7.58,5.54-1.05-1.77-1.57-4.46-2.8-6.05-1.07-1.4-6.94-6.58-8.54-7.56-1.22-.74-6.28-3.08-7.42-3.16-1.87-.13-3.45,1.58-1.42,2.8ZM509.99,807.77c2.26,2.06,5.66,2.48,7.87,5.94,1.77,2.78,1.67,8.65,5.61,8.51,1.02-5.29-3.5-13.67-8.41-15.57-1.78-.68-8.03-1.6-5.07,1.12ZM513.2,636.63c.39.56,1.34.85,2.11,2.16,1.29,2.2,3.57,12.98,5.85,12.53,3.03-.59-1.76-12.18-2.59-13.82-1.74-3.44-4.85-8.39-9.23-7.87-1.56.22,3.29,6.17,3.86,7ZM503.03,780.87c1.61,2-2.06,4.07-4.14,3.9-2.16-.18-3.09-2.31-4.15-2.57-.78-.19-3.39,1.12-3.52,1.69-1.28,5.91,16.01,8.34,17.12-.84,1-8.38-12.4-7.3-11.79-11.03,3.48-4.9,7.5,2.13,11.05-1.16-1.6-8.93-20.02-5.53-14.94,4.29,2.17,4.18,9.99,5.25,10.37,5.72ZM88.89,788.38c4.06,2.2,13.49.91,17.07-2,5.11-4.16,4.59-14.26-1.19-17.82-.69-.42-4.65-2.2-5.03-2.2h-10.85v22.02ZM76.41,753.87c.79-.07,1.77.24,2.48-.15.6-.33,4.91-9.34,7.12-11.61,1.46-1.5,9.96-6.92,10.11-7.64.94-4.44-10.13,2.61-11.4,3.72-2.13,1.86-10.69,13.43-8.31,15.68ZM45.19,813.01c1.57,1.61,6.34,11.75,8.2,9.87-.04-2.15.43-4.48-.87-6.37-1.26-1.81-5.97-7.15-7.72-8.37-2.27-1.59-5.02-2.73-7.84-2.34.37,3.99,5.18,4.08,8.23,7.21ZM60.63,721.66c-.83,3.06,2.6,4.51,3.71,6.13,4.24,6.18,4.62,18.26,4.94,25.64l2.19,1.09c3.13-1.04.21-17.34-.65-20.38-1.48-5.22-4.23-11.45-10.19-12.48ZM58.33,822.22c1.14.49,1.37.16,1.8-.81,1.31-2.92,1.03-6.85,3.14-10.52.23-.4.88-.54,1.03-.76,1.62-2.56,3.44-5.06,5.52-7.29-1.57-2.61-5.64.93-6.85,2.34-1.97,2.31-8.47,15.39-4.64,17.04ZM55.04,745.32c1.44,1.6,5.13,8.61,5.58,8.88.82.49,1.74.34,2.63.32-.65-9.57-11.5-20.03-21.03-20.37.06,3.22,4.05,3.75,6.51,5.64,1.87,1.44,4.79,3.82,6.31,5.53ZM535.97,645.92c1.25-1.55,9.39-8.18,7.88-9.71-1.09-1.1-7.44,3.95-8.43,5.04-1.91,2.09-5.74,7.63-3.07,10.06,1.8-1.35,2.29-3.76,3.62-5.39ZM323.25,789.39c15.74-.85,14.97-24.66-1.73-23.51-15.55,1.06-13.86,24.35,1.73,23.51ZM320.98,815.32c.44-1.92-2.93-1.77-4.13-1.5-3.79.85-12.46,10.53-7.36,11.68,1.24.28,3.38-4.67,4.59-5.89,1.99-2,4.77-2.63,6.9-4.29ZM81,812.03c.92-.83.99-1.14.02-1.98-.68-.55-1.39-.26-2.13-.17-4.73.57-10.83,4.44-12.89,8.84-.78,1.65-1.52,3.76,1.21,3.19,2.19-1.93,3.24-4.4,5.69-6.15,2.31-1.65,6.73-2.5,8.1-3.73Z" fill="#fff"/>
  <path d="M148.21,580.15c-1.7,2.68-2.98,1.39-2.75-1.38.34-4.05,6.12-13.86,11.15-12.89.65,2.93-2.36,3.62-4.21,5.97-2.24,2.84-2.57,5.74-4.19,8.3Z"/>
  <path d="M132.29,691.42c2.9-4.01,7.45-.55,10.28,1.56.48.36,3.41,2.67,3.56,2.85.74.86,2.65,6.01,1.93,6.76-1.79.46-1.72-.49-2.5-1.12-4.14-3.35-6.9-9.05-13.27-10.05Z"/>
  <path d="M439.48,40.87c1.76,10.29,19.3,10.58,21.19,14.96,2.87,6.6-6.89,7.98-11.72,5.15-2.52-1.49-2.83-4.51-6.52-3.73-1.84.38-5.7,3.79-4.78,5.78,2.33,5.02,13.23,8.25,18.46,7.92,9.17-.57,18.94-8.49,14.44-18.42-3.44-7.6-16.38-7.5-19.85-11.38-1.29-1.44-2.08-4.31-.79-5.97,1.47-2.25,4.9-1.9,7.2-1.42,3.55.74,5,3.34,8.13,4.33,4.56-2.53,8.27-4.47,2.57-8.46-10.63-7.43-31.08-4.89-28.33,11.24ZM403.79,104.1c-2.99,34.35,44.07,32.86,46.7,7.25.83-8.06-1.12-15.26-7.47-20.45-13.14-10.74-37.62-5.25-39.23,13.2ZM390.01,69.62c2.52-.39,7.04.7,9.21-.33,2.53-1.2,1.63-7.26,4.4-8.09,1.41-.43,15.76-.36,17.12.08l4.11,8.02,9.21.32c.64-4-2.04-5.53-3.4-8.76-3.25-7.73-6-15.63-9.47-23.06-3.6-7.71-3.33-14.47-14.43-10.92l-16.75,42.74ZM378.18,128.45c2.47,2.04,6.74.55,9.86.98v-33.85l.98-.98h11.84c1.97-2.09.61-5.82.98-8.55h-36.48c-1.9,1.19-1.21,8.55.65,8.55h12.17v33.85ZM353.55,240.49c2.67.02,5.18-.01,7.84,0,40.67.13,81.36.2,122.02-.26,4.71-1.53,2.31-13.03.94-16.8-3.91-10.68-16.39-20.08-28.11-18.25-2.77.44-6.07,2.21-8.36,3.78-.44-1.74-.74-3.71-1.6-5.31-.73-1.35-1.67-1.54-2.11-2.15-.86-1.19-1.48-2.7-2.53-3.73-14.3-14.27-44.36-9.78-50.35,10.52-12.75-4.07-22.81-.08-26.91,12.89-6.77-.96-13.7-.6-19.29,3.68-1.1.84-4.64,4.29-5.26,5.32-1.26,2.11-3.37,9.74-.12,10.34,3.41.63,9.97-.07,13.84-.03ZM369.14,62.23c-8.61,1.4-12.36-1.45-15.96-8.57-.19-.38-1.01-.33-1.26-.97-1.95-5.22.67-12.63,4.63-16.2,4.45-4.01,11.72-3.84,16.81-1.17,1.62.85,4.33,3.68,5.67,3.34l5.01-4.96c-9.74-12.8-33.94-10.56-40.17,4.58-7.62,18.55,6.78,34.96,26.01,32.58,4.74-.59,14.62-4.97,15.49-10.15.35-2.06.4-11.13.02-13.09-.21-1.11-.8-1.66-1.63-2.32h-17.75c-2.18,1.46-2.42,5.42-.65,7.23h11.5c1.19,6.37-1.77,8.73-7.72,9.7ZM346.62,128.45c2.34,2.02,6.43.56,9.42,1.01,2.35-.55.48-11.43.51-13.43.13-8.88,1.67-18.8.62-27.71-.11-.96-.08-1.69-1.02-2.27h-9.53v42.4ZM307.76,61.48c.54-.69,15.79-.76,17.37-.28,2.7.82,2.29,7.31,4.93,8.35,2.69,1.07,6.69,1.35,9.05-.57l-16.98-41.92c-1.04-1.19-8.89-1.26-10.05-.19l-18.06,42.74c2.83.25,7.36,1.6,9.83-.35,1.05-.82,3.3-6.32,3.91-7.78ZM326.46,120.78c-4.8,2.51-12.53,2.13-16.67-1.52-.51-.45-4.4-5.14-4.53-5.47-2.38-5.76-.17-14.74,5.23-18.18,7.08-4.49,15.18-1.59,21.33,2.96l4.96-4.96c-7.97-12.27-31.69-10.2-38.83,1.95-.57.98-3.91,8.68-3.98,9.18-.5,3.99.87,8.42,2.57,11.99,5.11,10.76,15.03,14.61,26.67,13.29,4.31-.49,12.83-4.29,14.5-8.5.59-1.48.7-12.23.34-14.09-.21-1.1-.8-1.65-1.62-2.32h-17.42c.08,2.29-1.19,5.05.64,6.91,3.1,1.83,13.47-3.01,10.42,5.8-.18.52-2.97,2.63-3.61,2.96ZM257.86,128.45l.99.98h30.57c-.34-2.53.94-5.97-.99-7.88h-20.71c-.66-3.23-1.89-8.23.99-10.52h16.76v-7.23h-17.42c-1.97-2.15-.6-5.96-1.01-8.75.14-.44,1.48-1.11,1.67-1.11h19.39c-.17-2.42,1.9-5.3-.32-7.23h-29.92v41.74ZM242.74,178.39c2.41,2.4,5.87-.51,8.95-.9,3.47-.44,8.69-.22,11.96,1.04,4.77,1.84,6.92,6.61,10.92,9.38,1.28-.21,3.5-6.84,4.7-8.48,2.51-3.43,9.01-6.66,13.16-7.22,1.94-.26,13.79,1.85,11.42-1.98-.15-.23-4.42-1.59-5.19-1.72-8.71-1.46-21.71,3.68-24.37,12.85-5.29-4.42-10.22-7.73-17.44-7.9-2.35-.05-14.91,1.12-14.11,4.93ZM183.65,104.87c-3.24,32.82,44.96,33.02,47.25,5.17,1.29-15.73-11.52-25.62-26.43-24.45-10.71.84-19.74,8.32-20.82,19.28ZM218.41,56.14c3.01-1.94,7.69-.68,11.43-1.06,7.72-.8,14.52-5,14.9-13.37.27-5.96-1.73-10.58-7.26-13.17-5.88-2.75-20.14-3.1-26.66-2.34-.84.1-1.26.04-1.96.68-2.39,2.18.06,24.57-.99,29.29l1.3,13.82,9.24-.37v-13.48ZM130.38,61.48c1.94,7.57,4.29,9.5,12.45,7.83.94-.54-.51-3.56-.83-4.47-2.62-7.43-6.35-14.84-9.44-21.77-1.12-2.51-6.05-15.41-7.11-16.24-1.69-1.31-7.16-.39-9.49-.48l-17.19,42.29c.08,1.32,8.19,1.38,9.22.68.76-.51,3.78-8.13,4.36-8.27l18.03.43ZM148.88,41.53c1.67,9.11,16.16,9.16,21.06,13.59,3.46,3.13.17,6.79-3.85,7.21-6.31.67-8.7-2.42-13.46-5.6-5.13,3.76-8.65,4.54-2.25,9.59,7.09,5.58,18.9,6.27,26.18.57,6.93-5.42,6.75-14.02-.66-18.86-4.65-3.03-17.21-4.63-17.33-10.29-.16-7.37,12.77-3.26,15.46.83,2.54-.74,3.42-3.99,6.25-3.8.14-.97-.34-1.67-.9-2.39-8.77-11.4-33.81-8.89-30.5,9.15ZM566.82,116.66c-8.2-5.88-18.75-5.45-27.56-1.03-.47-2.29-.93-5.55-1.89-7.62-.41-.91-.99-1-1.11-1.21-12.33-21.41-46.07-17.12-50.28,7.49-13.1-3.94-24.47-.21-26.9,14.21-12.49-3.46-23.93,4.72-24.3,17.78-.1,3.55,2,3.36,4.84,3.56,31.9,2.2,69.14-.25,101.25-.72,11.95-.17,23.93.46,35.87-.29,5.32-10.66-.51-25.43-9.92-32.17ZM30.39,400.56c8.05,19.49,31.73,29.87,51.5,21.44,13.96,20.81,44.65,22.85,62.56,5.82,18.44,15.86,45.99,12.68,61.27-5.81,4.78,1.75,8.39,3.52,13.66,3.89,20.77,1.45,39.56-11.67,43.71-31.94,9.34-.84,17.37-1.86,24.7-8.16,10.87-9.34,13.51-21.19,8.91-34.81,7.5-3.51,14.3-8.85,18.06-16.45,3.16-6.4,5.63-13.22,3.53-20.55-.15-.54-1.01-.51-1.19-1.04-1.96-5.81-3.95-11.79-9.92-14.6v-.96c3.99-3.65,6.97-8.32,9.05-13.3,1.79-4.29,3.2-11.32,2.09-16.16-.09-.43-2.87-6.66-3.43-7.85-4.51-9.52-13.66-14.59-24.16-13.64.36-12.74-11.24-21.77-23.33-21.74-4.38.01-8,1.88-12.2,2.39-2.54-20.26-25.14-32.29-43.19-21.57-2.91,1.73-9.22,8.85-10.64,11.85-.6,1.26-1.94,7.95-3,8.01l-8.57-3.91c-.39-6.09-1.72-10.09.42-15.91,2.81-7.66,3.54-13.76,1.69-22.37-.29-1.36-.04-3.43-1.76-3.16v-.63c9.62-6.16,12.99-20.69,10.88-31.6-1.36-7.03-4.75-2.13-9.41-1.45-12.76,1.86-16.3-6.91-22.61-15.17-.75-.99-4.12-2.77-2.91-4.41,13-4.97,14.9-27.24,4.34-35.15-1.35-1-9.61-4.91-10.87-4.91h-22.02v27.28c-2.64,1.78-6.3.72-9.77,1.41-3.33.65-6.35,2.63-9.59,3.55-9.91-8.77-24.3-11.91-37.2-8.93-14.78,3.42-24.69,14.45-28.23,28.97-7.52-.13-14.28,2.1-20.08,6.9-11.35,9.4-7.99,18.27-9.59,30.48-1.22,9.38-12.04,12.77-14.11,24.02-1.81,9.91,3.94,15.92-2.26,25.17-.3.45-2.02,2-2.64,2.47V3.89h586.46v239.91c-1.83.07-3.69-.17-5.51.08-29.99,4.24-56.02,32.11-81.35,47.51-2.74,1.66-21.5,11.96-22.91,10.89.23-1.86-1.54-2.35-1.95-3.13-4.97-9.5-6.1-13.91-15.61-20.4-8.18-5.57-20.07-9.56-29.36-13.37-16.91-6.93-32.86-12.13-51.22-5.62-10.77,3.81-22.76,16.36-22.25,28.42.17,4,3.15,6.85,2.65,10.46-.18,1.26-4.85,11.28-5.76,12.66-4.44,6.7-18.51,9.19-15.12,20.77.45,1.54,3.04,2.3,3.12,4.05.05,1.03-1.51,4.98-1.77,6.78-.17,1.15.59,2.27.38,3.6-.42,2.63-6.45,8.78-8.11,12.33-4.26,9.11-5.67,19.87.44,28.49,1.23,1.74,7.24,6.14,7.12,6.67-.23.96-15.4,7.25-17.76,8.54-23.84,12.94-50.1,39.62-43.32,68.83l9.8,15.63-21.54,12.39c-2.04.34-13.02-5.59-15.72-7.01-19.55-10.29-45.35-31.01-67.61-31.06-14.12-.03-32.47,8.34-45.68,13.55-11.69,4.61-22.93,10.53-35.09,14.01l-30.34-26.18c-17.5-12.95-35.47-24.89-57.39-28.74-4.75-.83-9.77-1.32-14.6-1.5v-37.47c6.1,2.57,11.83,5.92,18.75,5.97,2.55.02,5.05-1.42,7.56-.39ZM288.71,69.56c1.64-2.6-5.54-8.27-6.81-9.84-.48-.61-3.63-5.22-3.68-5.55-.22-1.32,4.77-2.86,5.98-3.9,4.63-3.98,5.1-12.03,1.82-17.02-2.27-3.48-8.7-6.51-12.71-7.01-6.15-.78-13.73.57-20.05,0l-.57,42.3.53.79c.86.6,8.26.79,9.24-.7v-14.13l6.3.61,10.15,14.83,9.8-.38Z" fill="#fff"/>
  <path d="M115.96,26.35c2.33.09,7.8-.83,9.49.48,1.06.83,5.99,13.73,7.11,16.24,3.09,6.93,6.82,14.34,9.44,21.77.32.91,1.77,3.93.83,4.47-8.16,1.67-10.51-.26-12.45-7.83l-18.03-.43c-.58.14-3.6,7.76-4.36,8.27-1.03.7-9.14.64-9.22-.68l17.19-42.29ZM127.02,53.84c-.32-2.11-4.47-14.95-5.22-15.48-.46-.32-1.7-.49-1.99-.29-.67.44-4.16,13.25-5.27,15.11l12.48.66Z"/>
  <path d="M140.4,251.62c-3.09.16-5.2-.84-8.11-1.25-.36-1.71.36-1.02.94-1.37,1.12-.68,7.47-4.53,7.93-4.53,1.4.01,6.02,3.49,8.22,3.28,1.76,2.22-8.17,3.83-8.98,3.87Z" fill="#fff"/>
  <path d="M118.94,211.48c7.25,2.18,7.73-9.65,3.95-12.83-5.83-4.91-10.13,10.97-3.95,12.83ZM149.8,187.84c3.31-.72,20.32,2.03,21.65.14l-.5-6.48c-6.18-2.35-29.08-5.86-21.15,6.34ZM143.14,156.38c8.38,5.85,18.37,9.39,28.52,10.59-.36,4.3,1.18,8.56,1.42,12.72.68,11.92.51,24.81.63,36.83.02,1.26.76,2.55.7,3.94-.08,1.86-3.74,9.81-5.27,10.54-4.44-.95-7.54-5.02-12.46-5.01-.47-.55.24-5.22-.09-6.69-.11-.48-1.05-.53-1.23-1-2.2-5.94-6.26-17.48-9.64-22.43-1.86-2.74-4.71-.84-3.98,1.94,2.74,5.9,11.64,20.38,10.11,26.44-2.22,8.79-18.94,4.65-23.33-.72-2.64-.71-16.77,5.81-19.7,7.65-2.85,1.79-4.41,4.38-7.14,6.07-4.4-1.02-9.73-3.45-12.41-7.29-5.45-7.82-6.34-20.62-8.95-29.9,1.86-3.77,4.08-7.21,5.96-10.98.23-.46,1.19-.53,1.5-1.3.83-2,2.32-12.19,3.04-12.71,18.61.61,39.18-3.93,48.05-21.97,1.06-.69,3.25,2.56,4.27,3.28ZM162.17,210.31c6.8-.67,3.76-15.03-1.15-13.76-5.16,1.33-3.8,14.26,1.15,13.76ZM129.2,189.11c2.67-.78,1.72-5.43,1.68-7.66-9.55-2.47-19.94-1.09-28.66,3.37l-.07,6.28,27.05-1.99Z" fill="#fff"/>
  <path d="M133.87,562.64c-.25-.89-.15-1.8.73-2.02,5.04-1.26,8.73,16.74,7.49,20.31h-3.17c-.08-3.9-.53-8.02-1.7-11.76-.8-2.58-2.92-5.03-3.35-6.53Z"/>
  <path d="M132.32,677.67c2.35-3.67,13.59,5.67,15.42,7.83,1.92,2.25,8.76,15.26,6.9,17.1-.29.28-2.34.08-2.96-.66-.98-1.19-2.11-6.21-3.04-8.14-2.35-4.89-7.99-10.95-12.91-13.38-2.05-1.02-4.13-.03-3.41-2.75Z"/>
  <path d="M133.92,582.97c-2.51.71-4.78-5.74-6.24-7.56-2.19-2.73-5.05-3.76-7.22-6.24,6.07-2.42,9.37,3.23,12.08,7.64.14.23.85.3,1.24,1.07.58,1.13,1.92,4.58.14,5.09Z"/>
  <path d="M102.22,184.82c8.72-4.46,19.11-5.84,28.66-3.37.04,2.23.99,6.88-1.68,7.66l-27.05,1.99.07-6.28Z"/>
  <path d="M129,775.56c1.36,7.09-5.32,4-9.87,4.6v4.6h10.86c1.47,1.13,1.47,3.47,0,4.6h-14.47l-.98-.98v-22.02h15.77v4.6h-11.17v4.6h9.86Z"/>
  <path d="M122.89,198.65c3.78,3.18,3.3,15.01-3.95,12.83-6.18-1.86-1.88-17.74,3.95-12.83Z"/>
  <path d="M121.8,38.36c.75.53,4.9,13.37,5.22,15.48l-12.48-.66c1.11-1.86,4.6-14.67,5.27-15.11.29-.2,1.53-.03,1.99.29Z" fill="#fff"/>
  <path d="M4.08,275.68c16.05-14.33,36.82-22.37,57.86-25.96.37,3.88.24,9.69,1.37,13.29,3.16,10.08,6.54,13.5,13.45,20.86,8.89,9.47,4.34,20.59,16.78,29.24,2.65,1.84,14.47,6.66,17.34,6.29.89-.12,1.7-1.17,2.03-1.17.48,0,5.76,5.06,7.61,6.03,12.47,6.51,30.25,5.3,39.37-6.18-.5,1.97-1.66,4.45-2.72,6.17-5.02,8.15-15.29,23.28-22.57,29.34-6.68,5.57-4.58,1.05-6.8-4.41-5.88-14.48-20.53-22.54-35.97-21.92-6.15.24-10.82,2.43-16.39,4.64-3.34-2.07-5.98-5.15-9.53-6.95-1.74-.88-9.32-3.59-10.87-3.59h-12.5c-.2,0-.93.91-1.64.66l1.97-20.38c-1,.06-2.5-.27-3.32.3-1.73,1.19-1.87,18.27-3.6,21.37-6.49,3.47-13.47,6.29-16.09,13.83H4.08v-61.46Z" fill="#fff"/>
  <path d="M99.74,766.36c.38,0,4.34,1.78,5.03,2.2,5.78,3.56,6.3,13.66,1.19,17.82-3.58,2.91-13.01,4.2-17.07,2v-22.02h10.85ZM94.15,784.76c13.83,1.66,13.87-16.08,0-13.8v13.8Z"/>
  <path d="M154.3,250.31c3.86-.32,10.65,4.08,12.14-.19-.28-1.77-11.43-3.58-13.95-4.49-3.48-1.26-7.75-3.68-10.81-5.7h-1.04c-5.05,3.98-11.23,7.26-17.1,9.92-1.86.84-11.52,2.66-8.02,5.79,2.04,1.83,8.9-2.91,11.28-3.12,1.66-.14,8.01,2.44,11.11,2.48,3.02.03,9.29-1.16,12.14-2.31,1.68-.67,2.14-2.2,4.25-2.38ZM69.15,205.46c.12-.5,7.13-3.85,7.91-3.07.94,6.21,2.36,13.2,4.13,19.21,3.3,11.19,7.24,14.98,18.21,19.28-1.77,3.2-4.19,6.18-4.94,10.12-.48,2.49-.54,7.74,2.77,4.09,2.3-2.53,3.24-8.22,5.34-11.74,3.06-5.11,8.46-9.35,13.8-11.84,1.71-.8,8.86-3.48,10.35-3.54,2.97-.12,3,1.76,5.11,2.82,4.66,2.35,9.76,3.26,14.96,2.21,5.96-1.22,4.99-5.31,13.3-2.21,4.56,1.7,9.58,7.22,11.5,11.52.52,1.16,1.43,7.89,4.08,6.09,3.1-2.11-4-13.56-3.81-14.67.1-.53,4.16-7.08,5.13-6.36.69,1.88.78,4.25,1.38,6.05,2.75,8.21,3.84,16.71,3.22,25.82-.61,8.94-4.4,16.12-5.17,24.42-.86,9.3,2.07,18.86-6.63,25.57-1.59,1.23-7.85,5.25-8.32,2.26-3.06-.68-2.7,1.96-3.89,3.3-10.34,11.59-23.76,12.8-37.05,4.86-2.57-1.54-7.84-7.9-8.43-8.05-3.84-.91-2.17,3.88-4.33,3.75-2.89-.17-13.17-5.55-15.19-7.85-3.9-4.44-3.29-8.21-5.06-12.56-4.18-10.25-7.14-11.19-13.36-18.99-9.96-12.48-8.52-37.04-6.96-52.19.64-6.12,2.56-12.08,1.95-18.3Z" fill="#fff"/>
  <path d="M94.15,784.76v-13.8c13.87-2.28,13.83,15.46,0,13.8Z" fill="#fff"/>
  <path d="M76.41,753.87c-2.38-2.25,6.18-13.82,8.31-15.68,1.27-1.11,12.34-8.16,11.4-3.72-.15.72-8.65,6.14-10.11,7.64-2.21,2.27-6.52,11.28-7.12,11.61-.71.39-1.69.08-2.48.15Z"/>
  <path d="M60.63,721.66c5.96,1.03,8.71,7.26,10.19,12.48.86,3.04,3.78,19.34.65,20.38l-2.19-1.09c-.32-7.38-.7-19.46-4.94-25.64-1.11-1.62-4.54-3.07-3.71-6.13Z"/>
  <path d="M67.21,821.91c-2.73.57-1.99-1.54-1.21-3.19,2.06-4.4,8.16-8.27,12.89-8.84.74-.09,1.45-.38,2.13.17.97.84.9,1.15-.02,1.98-1.37,1.23-5.79,2.08-8.1,3.73-2.45,1.75-3.5,4.22-5.69,6.15Z"/>
  <path d="M61.62,227.36c-6.63-5.32-3.38-16.32,3.6-19.71.32,3.31-.26,6.45-.88,9.66-.06.28-2.14,2.57-1.17,5.05l-1.55,5Z" fill="#fff"/>
  <path d="M60.62,754.2c-.45-.27-4.14-7.28-5.58-8.88-1.52-1.71-4.44-4.09-6.31-5.53-2.46-1.89-6.45-2.42-6.51-5.64,9.53.34,20.38,10.8,21.03,20.37-.89.02-1.81.17-2.63-.32Z"/>
  <path d="M60.13,821.41c-.43.97-.66,1.3-1.8.81-3.83-1.65,2.67-14.73,4.64-17.04,1.21-1.41,5.28-4.95,6.85-2.34-2.08,2.23-3.9,4.73-5.52,7.29-.15.22-.8.36-1.03.76-2.11,3.67-1.83,7.6-3.14,10.52Z"/>
  <path d="M58.33,623.06c-2.24-.66,1.02-7.37,1.75-8.75,1.18-2.22,10.2-12.52,12.37-10.3.7,3.12-2,3.33-3.63,5.23-1.36,1.58-4.66,5.05-5.57,6.43-1.21,1.83-2.33,8.15-4.92,7.39Z"/>
  <path d="M48.77,598.42c-.13-2.47,3.3-.39,3.94.82.77,1.47,2.65,8.26,2.65,9.69v12.82h-2.62c-.28-.26.25-4.31-.02-5.46-.5-2.07-.89-3.8-1.38-6.62-.57-3.27-2.42-8.45-2.57-11.25Z"/>
  <path d="M53.39,822.88c-1.86,1.88-6.63-8.26-8.2-9.87-3.05-3.13-7.86-3.22-8.23-7.21,2.82-.39,5.57.75,7.84,2.34,1.75,1.22,6.46,6.56,7.72,8.37,1.3,1.89.83,4.22.87,6.37Z"/>
  <path d="M46.49,546.81c-2.33-2.02,1.24-8.54,2.67-10.47.88-1.17,6.15-5.95,7.52-4.64,1.49,1.44-5.58,7.63-6.21,8.57-.96,1.44-1.35,4.14-2.19,5.71-.46.87-.38,1.42-1.79.83Z"/>
  <path d="M45.18,623.73c-2.85,1.53-2.98-3.35-4.09-5.09-.5-.79-2.86-3.75-3.49-4.44-2.64-2.86-5.76-5.67-9.76-6.34l-.09-2.54c2.05-2.15,11.38,5.08,12.92,6.8,1.77,2,5.87,9.26,4.51,11.61Z"/>
  <path d="M152.4,571.85c1.85-2.35,4.86-3.04,4.21-5.97-5.03-.97-10.81,8.84-11.15,12.89-.23,2.77,1.05,4.06,2.75,1.38,1.62-2.56,1.95-5.46,4.19-8.3ZM133.87,562.64c.43,1.5,2.55,3.95,3.35,6.53,1.17,3.74,1.62,7.86,1.7,11.76h3.17c1.24-3.57-2.45-21.57-7.49-20.31-.88.22-.98,1.13-.73,2.02ZM127.68,575.41c1.46,1.82,3.73,8.27,6.24,7.56,1.78-.51.44-3.96-.14-5.09-.39-.77-1.1-.84-1.24-1.07-2.71-4.41-6.01-10.06-12.08-7.64,2.17,2.48,5.03,3.51,7.22,6.24ZM29.72,542.08c1.76,2.11,2.2,5.77,5.26,5.39.03-6.23-7.15-14.08-12.68-15.91-1.93-.64-4.25-.27-2.4,1.75,1.44,1.57,4.56,3.3,6.55,5.27.91.9,2.46,2.55,3.27,3.5ZM48.77,598.42c.15,2.8,2,7.98,2.57,11.25.49,2.82.88,4.55,1.38,6.62.27,1.15-.26,5.2.02,5.46h2.62v-12.82c0-1.43-1.88-8.22-2.65-9.69-.64-1.21-4.07-3.29-3.94-.82ZM49.16,536.34c-1.43,1.93-5,8.45-2.67,10.47,1.41.59,1.33.04,1.79-.83.84-1.57,1.23-4.27,2.19-5.71.63-.94,7.7-7.13,6.21-8.57-1.37-1.31-6.64,3.47-7.52,4.64ZM41.09,618.64c1.11,1.74,1.24,6.62,4.09,5.09,1.36-2.35-2.74-9.61-4.51-11.61-1.54-1.72-10.87-8.95-12.92-6.8l.09,2.54c4,.67,7.12,3.48,9.76,6.34.63.69,2.99,3.65,3.49,4.44ZM39.56,545.06c1.42,1.36,3.53,1.77,3.96-.55.48-2.54-1.23-17.61-2.77-19.23-.49-.5-2.86-1.09-3.13-.81l1.94,20.59ZM42.87,688.79c-3.3,1.38-4.93-2.5-7.29-4.21-3.41-2.47-7.4-4.5-11.77-4.33-.99,3.54,4.34,3.81,7.31,5.5,1.32.75,6.69,4.46,6.44,5.91l-33.48,25.4v-280.67c9.94-.2,20.42,2.07,29.76,5.42,32.66,11.7,57.18,41.29,84.7,61.24,44.1,31.98,97.41,33.21,143.5,60.96,16.21,9.76,30.34,23.7,48.67,30.07,3.5,7.52-8.77,9.64-14.21,11.41-10.28,3.34-20.91,5.72-31.27,8.84-10.95,3.31-21.8,7.18-32.69,10.7-.98-.51-.07-1.14.33-1.65,2.22-2.87,5.6-3.99,7.64-6.86-1.73-5.1-8.22,2.07-10.28,4.23-2.57,2.68-3.93,6.96-8.21,7.58-1.56.22-1.01-1.14-.96-2.29.19-4.79,2.05-10.04,2.61-14.8-1.06-.04-2.12-.23-2.97.64-2.53,2.58-2.78,13.33-2.95,17.1-1.87-1.15-2.02-3.62-3.28-5.41-.95-1.36-5.42-6.58-6.62-7.36-.7-.46-1.35-.99-2.24-1.03-.95.77-1.08.82-.74,2.02.45,1.57,9.7,12.23,8.29,13.75-10.74,2.88-21.39,6.26-32.2,8.9-44.06,10.78-78.32,13.74-119.25,36.55-2.42,1.35-6.28,5-8.79,5.69-1.08.29-2.29.7-2.12-.8.27-2.33,5.65-12.44,4.56-13.53-1.04-.03-2.17.01-3.13.44-2.11.94-5.18,14.33-5.42,17.31-1.33,1.18-4.61-5.3-5.35-6.15-.91-1.04-6.62-6.5-7.45-6.34-1.05.21-1.12,1.59-.66,2.61.79,1.77,10.62,11.7,9.52,13.16ZM58.33,623.06c2.59.76,3.71-5.56,4.92-7.39.91-1.38,4.21-4.85,5.57-6.43,1.63-1.9,4.33-2.11,3.63-5.23-2.17-2.22-11.19,8.08-12.37,10.3-.73,1.38-3.99,8.09-1.75,8.75Z" fill="#fff"/>
  <path d="M40.75,525.28c1.54,1.62,3.25,16.69,2.77,19.23-.43,2.32-2.54,1.91-3.96.55l-1.94-20.59c.27-.28,2.64.31,3.13.81Z"/>
  <path d="M478.28,424.75c.51.91,1.5,1.05,2,1.97,1.59,2.88,8.77,20.2,10.1,20.75.47.19,1.77.28,2.14.04,1.85-1.18,6.34-38.24,8.47-43.17.25-.53-.53-1.38-.89-1.44-.86-.17-14.92,4.01-16.9,4.73-3.65,1.31-7.97,3.08-10.95,5.53-.3.99,5.02,9.8,6.03,11.59ZM476.48,477.53c4.09.47.95-6.92,1.02-8.55.12-2.96,3.78-5.36,2.51-7.54-1.51-2.58-6.52,3.31-7.01,5.67-.6,2.92-.32,9.98,3.48,10.42ZM451.81,505.08c.53,1.88-.73,4.16-.52,5.77.17,1.33,1.79,3.89,2.19,5.71.92,4.3,1.07,10.48,3.55,13.65l4.32,38.31,7.41-3.77,8.07-43.23c-.28-1.81-7.75-4.18-9.82-5.34-4.5-2.51-9.06-6.59-13.2-9.85-.58-.46-.6-1.49-.7-1.57-.08-.07-1.38-.25-1.3.32ZM440.05,733.09c1.33,2.33,6.13,3.94,8.63,3.57,6-.88,6.01-10.68,7.12-15.16,4.54-18.3,8.67-39.67,12.4-58.18,7.77-38.57,15.53-77.38,22.84-115.38,2.61-13.56,4.65-27.27,7.4-40.81l-14.41-5.01c-1.61,8.1-2.44,16.38-4,24.48-11.74,61.11-23.53,123.86-36.94,184.69-1.04,4.7-5.2,18.02-3.04,21.8ZM443.27,687.48c1.29.17.31-1.42.67-2.15.28-.56,1.1-.46,1.25-.98.98-3.37.92-7.85,2.02-11.33l-3.98,1.06.04,13.4ZM434.68,454.43c.5-.34,2.48-.46,2.66-.29.57.53,2.27,13.07,2.82,15.26,4.44,17.93,14.06,36.36,31.36,44.9,1.34.65,4.8,2.91,5.97,2.01,1.17-1.85.75-4.53,1.34-6.45.15-.52,1-.41,1.31-1.46.68-2.34.68-4.86.61-7.28.01-1.71-1.79-1.23-2.68-2.09-1.22-1.19-3.13-6.6-3.04-8.32.18-3.3,3.1-4.44,3.12-4.74.27-3.84-5.58-5.76-7.41-9.02-3.45-6.12-1.18-14.81,4.52-18.76,1.18-.81,4.01-1.57,4.63-2.27.52-.57.88-2.53,1.88-3.72,1.04-1.23,3.97-2.57,4.1-2.79.99-1.68-4.59-12.85-5.79-15.17-3.38-6.5-8.27-13.41-12.07-19.96-6.91-5.73-6.43-11.89-15.55-4.52-13.74,11.11-23.39,30.52-35.14,43.75.54,8.84-5.75,9.46-10.15,13.51-2.07,1.9-4.53,7.22-6.64,9.8-8.43,10.34-16.29,17.01-26.78,25.11-.56.42-1.2,0-.83,1.5,25.01.77,49.51-.45,73.63-7.23.37-2.21-2.25-3.66-2.82-4.76-3.12-6.06-6.05-15.98-7.51-22.69-.49-2.22-2.4-11.47-2.19-12.95.08-.55.16-1.03.65-1.37ZM422.56,439.69l-2.96,2.61c.84.08,1.85-.25,2.45-.83.07-.07.87-1.54.51-1.78ZM406.41,677.25c-1.48,1.03-.43,11.27.34,13.54,5.13,1.02,10.39.83,15.46,2.3,6.42,1.85,13.14,6.19,18.42,10.16,1.61-4.72-.87-8.27-1.3-12.82-.48-5.15.34-10.89-.01-16.1l-32.91,2.92ZM405.32,695.23c-3.21,1.07-4.03,5.28-7.41,6.06l17.23,3.47c8.49,2.58,11.81,5.14,16.4,12.55.98,1.57,3.24,2.23,2.52,5.66,2.29,2.39,6.61-12.09,4.64-15.48-4.2-7.21-25.57-14.86-33.38-12.26ZM394.9,426.52c2.09.05,8.09-2.42,11.23-2.61,2.94-.17,5.9.22,7.85,2.65.76.94,1.4,3.48,1.82,3.77.55.39,2.41.3,3.5.77,4.3,1.87,4.21,3.58,3.91,7.92,6.89-7.76,12.8-18.72,20.04-25.98.83-.84,2.05-.86,2.58-1.36,2.93-2.78,5.78-6.81,9.92-8.17.26-1.16-.34-1.29-1.08-1.85-9.08-6.91-26.07-5.32-36.63-9.18-6.55,6.02-12.15,12.82-17.82,19.63-.63.76-1.7,1.01-2.33,1.79-1.1,1.37-4.98,6.34-5.41,7.58-.52,1.49.74,5,2.42,5.04ZM378.16,286.84c2.23-.74,12.41-5.15,13.38-4.85,2.05,1.77,2.36,5.2,3.62,7.61,2.2,4.22,8.64,9.89,12.9,12.08,3.47,1.77,9.69,1.43,8.77,6.05-1.3,6.48-4.88,7.66-3.51,16.3,1.7,10.74,13.36,14.54,14.67,20.82,1.52,7.28-2.86,13.49-9.57,15.76-1.88.64-5.14.44-5.94,1.95-3.36,9.67-2.05,22.44,8.45,26.82,11.95,4.99,25.37,1.81,37.68,10.31,1.71,1.18,5.73,6.12,6.82,6.38,5.37,1.28,7.61-12.26,7.44-16.04-.14-3.18-2.2-7.68-1.87-10.32.31-2.55,4.19-6.34,5.49-9.02.6-1.23,3.46-7.93,3.57-8.38.25-1.05.25-7.22,0-8.27-.11-.47-1.1-.48-1.24-.98-1.58-5.68-3.14-11.53-2.6-17.48.31-3.4,4.11-16.84,3.86-17.73-.13-.44-1.02-.42-1.1-.6-.65-1.4-1.21-11.11-2.53-14.93-7.08-20.49-20.93-22.84-38.24-30.13-18.5-7.78-32.6-16.35-54.11-8.99-11.6,3.97-22.87,17.38-17.43,29.89,2.29-5.76,6.78-4.68,11.49-6.25ZM388.04,710.82c-.59,1.4,1.01.86,1.66.95,9.22,1.27,21.07,3.43,27.95,10.2,1.69,1.66,2.2,3.41,4.31,5.21,1.69,1.43.67,2.29,4.1,1.27,6.12-1.83,4.87-4.85,2.44-9.45-5.15-9.74-23.33-14.52-33.59-13.15-1.18.16-6.5,4.12-6.87,4.97ZM378.7,403.99c6.66,3.33,14.99,2.71,22.01.71l13.53-14.08c.32-1.62-4.05-5.63-4.91-7.06-1.21-2-1.28-3.87-2.55-5.65-6.98,12.21-17.78,20.31-32.12,21.67-2.36,1.35,3.03,3.91,4.04,4.41ZM388.69,721c.25,6.73-8.19,10.87,3.95,10.52-.96-2.21,1.45-11.11,4.26-10.52,2.81.6-2.7,7.66-.68,10.56l5.53.52c1.17-.73.06-9.5,4.69-8.45l-.65,8.55c1.91.24,13.02-.65,13.13-2.3-4.93-9.58-19.26-13.97-29.32-14.71-5.57-.41-6.92-.57-10.38,3.92-3.89,5.04-4.53,8.45,2.52,10.39,2.84-2.97,1.15-9.63,6.95-8.48ZM410.71,735.45c-13.14.97-19.9-.49-32.06-3.42-.62-.15-1.53-1.23-1.14.48,1.05,4.67,10.83,5.98,14.78,6.26,11.72.84,27.13-.12,37.96-4.81,3.43-1.49,5.74-2.22,5.78-6.38-8.57,3.59-15.78,7.17-25.32,7.87ZM346.62,471.23c.78.79,14.79-.82,17.45-.68,3.84.21,6.85,1.44,11.18,1.36,9.17-.16,31.45-5.17,37.11-12.85.73-1,2.24-3.08.27-3.58-1.63-.41-14.12,5.71-17.16,5.79l-1.51-.9.3-1.66c4.78-2.92,20.64-5.54,22.86-10.66,1.1-2.52.67-4.05-2.28-3.65-4.37.6-19.93,8.4-22.47,7.74-2.17-1.25-.18-2.92,1.41-3.76,5.95-3.16,16.19-4.47,22.22-8.03,1.01-.59,3.22-2.02,3.5-3.12.2-.76-.19-3.07-.66-3.37-.8-.5-3.45-.02-4.54.2-3.82.78-22.63,8.49-23.92,8.22-1.55-.33-1.23-2.98.33-3.55l20.99-7.27c1.79-2.61-1.96-4.25-4.26-4.27-1.88-.02-9.19,1.8-11.39,2.42-3.11.88-11.08,4.92-13.64,4.8-1.41-.07-2.15-1.46-1.31-2.66,1.36-1.94,10.05-1.36,8.82-6.06l-1.23-1.46c-4.17-2.06-17.14,6.77-20.98,9.26-1.17.76-1.93,2.14-3.01,2.9-3.22,2.24-7.6,3.73-10.52,6.58-4.64,8.55-7.41,18.48-7.56,28.26ZM347.43,344.53c1.32,5.24,12.62,7.62,17.17,9.04.7-.1.55,1.35.42,1.64-1.48,3.46-16.03-2.04-18.19-4.77-2.3-.45-4.13,4.54-5.27,6.26-20.55,31.02,16.26,45.39,41.74,37.16,16.74-5.41,21.83-20.59,26.83-35.28,2.3-6.76,4.07-13.68,6.16-20.52.09-2.04-1.49-3.7-3.03-4.82-7.21,6-9.42,14.35-19.43,17.25-10.38,3.02-10.39-1.37-17.7-5.72-5.2-3.09-20.12-9.8-25.76-8.15-2.64.78-3.54,5.53-2.94,7.91ZM345.61,327.26c-1.84,6.91,5.72,4.83,9.72,5.45,7.4,1.14,15.87,4.84,22.4,8.49,5.49,3.06,7.69,7.72,15.06,5.62,8.14-2.31,11.38-8.78,15.74-15.19,1.5-2.2,3.46-1.47,1.92-6.02-.39-1.15-1.29-.83-1.42-1.91-.18-1.44-.18-5.21,0-6.65.14-1.11,1.06-.99,1.11-1.17.35-1.37,2.26-7.69,1.94-8.32-9.39-4.2-18.94-9.66-21.75-20.37-1.05-1.43-3.59.82-5.22,1.34-3.14.98-11.48,2.6-13.46,4.29-.93.81-1.69,2.46-2.36,3.56-3.39,5.57-5.73,13.4-9.9,18.36-3.59,4.27-12.3,6.95-13.78,12.52ZM329.6,682.15c10.49,2.42,15.6,8.37,22.54,15.6.87.91,2.02,1.58,2.7,2.86l6.78-9.69-.82-15.32-30.62-5.21-.58,11.76ZM346.62,489.3c0,2.97,3.13,7.3,3.97,10.18,2.55,1.85,7.67-11.07,8.36-12.96,1.45-3.98,2.26-8.27,3.46-12.32l-15.79.97v14.13ZM335.16,503.41c-2.35,6.26.1,7.07,5.39,9.05,19.6,7.34,48.05,9.16,68.85,7.4,6.59-.56,34.86-4.93,38.1-9.89,1.69-2.58,1.19-7.6.35-10.48-36.94,11.31-74.89,7.76-112.69,3.92ZM314.4,692.07c13.32,2.98,21.71,12.58,25.07,25.56.91.57,6.89-1.43,7.79-2.23.41-.36,4.43-9.46,4.51-10,.27-1.8-4.92-8.87-6.44-10.39-4.23-4.26-15.09-10.46-21.03-8.52-.97.32-8.61,4.13-9.24,4.61-.31.24-.87.77-.66.97ZM307.51,657.24c1.37,2.49,16.74,7.82,20.16,8.76,31.08,8.6,74.96,9.91,106.64,5.62,1.78-.24,12.93-2.21,13.41-2.69,3.19-13.7,5.34-27.64,8.08-41.43.11-.51,1.12-.46,1.25-.96,5.45-20.92,2.44-38.81.03-59.68-1.24-10.73-2.22-22.26-4.03-33.44-.41-2.48-3.54-18.49-4.5-19.16l-13.7,4.76c-22.6,5.45-46.13,6.14-69.12,2.87-.43.37-1.06,6.23-1.41,7.33-3.32,10.2-5.59,20.81-7.36,31.57l-2.89-.48c1.15-6.74,2.44-18.16,3.27-22.16,1.16-5.57,2.66-11.17,4.37-16.59l-28.89-8.27c-1.08,4.53-1.97,9.75-3.24,14.17-9.73,33.89-15.84,71.75-20.35,107.19-.44,3.39-2.65,20.91-1.72,22.59ZM306.07,702.06c4.11,2.9,6.16,5.45,8.45,9.95,1.53,3.01,1.72,6.82,4.31,8.96l16.55-1.99c1.22-1.46-3.95-11.08-5.22-12.78-.41-.53-1.3-.73-1.72-1.2-4.48-5.08-10.2-9.15-17.16-10.14-4.07-.59-6.94,2.15-10.68,3.15-1.15,1.24,4.74,3.53,5.47,4.05ZM285.45,458.39c-1.27,17.82,10.23,27.59,25.22,33.99,11.27,4.81,23.72,7.75,35.95,8.42-7.35-20.08-4.08-43.51,5.26-62.43-6.36-.82-12.97-1.73-19.37-2.01-3.16-.13-21.5.67-22.42-.59-1.92-2.81,4.99-3.19,7.25-3.35,6.49-.45,12.87,1.13,19.35.62,1.25-4.28,1.82-9.33,3.25-13.49.32-.91,1.17-.95,1.36-1.43.96-2.35,1.03-6.47,3.66-7.39,3.55.01-.27,6.6-.79,8.43-1.03,3.67-1.67,7.93-2.87,11.46-.2.58-2.11.9-1.26,3.14,5.4-.99,14.38,2.3,19.26,1.18,2.1-.49,11.16-8.08,14.49-9.84,2.78-1.47,7.24-3.28,10.27-4.19,1.52-.46,3.23-.01,4.63-.63.62-.27,3.51-4.05,4.22-4.98.48-.63,4.05-5.52,3.67-5.85-7.56,1.25-17.27.31-23.64-4.3-1.99-1.44-2.78-4.95-4.42-5.44-1.7-.51-4.2.04-6.27-.31-4.77-.82-9.36-2.4-14-3.69-25.29,9.93-60.66,32.74-62.8,62.68ZM292.71,706.89c.35,1.37-5.18,8.04-3.88,10.77l2.55.72c.48-4.97,4.97-9.16,9.5-10.49,3.22,3.57-6.65,6.04-5.27,11.17,2.45,1.4,17.08,3.4,18.12,1.92-1.1-8.97-11.98-21.33-21.5-18.52-2.28.67-7.75,5.09-8.45,7.34-.45,1.43-.54,5.04,1.68,4.63-.43-2.13,6.04-12.16,7.25-7.54ZM282.18,719.36c4.72,5.56,13.01,7.34,20.07,8.2,14.35,1.77,44.34-1.88,56.67-9.7,1.46-.93,2.83-2.2,2.82-4.08-.37-.37-8.21,3.48-9.52,3.95-17.34,6.3-41.78,9.74-59.67,4.41-2.8-.83-7.68-4.13-9.37-4.44-1.45-.26-.99.67-1,1.66ZM272.24,566.3c10.53,6.92,20.52,15.57,31.84,21.4,2.31,1.19,5.37,1.82,7.69,3.16,2.11-9.46,3.21-19.15,5.2-28.63,3.26-15.48,7.62-32.68,12.3-47.86.72-2.32,3.66-10.5,1.6-11.95-.53-.37-6.97-1.47-8.58-1.94-6.32-1.88-13.18-4.3-19.09-7.2-1.85-.91-5.94-4.35-7.36-4.21-25.85,14.84-51.1,30.64-77.83,43.86-2.41,1.2-5.14,1.46-7.31,3.18-.53.42-1.21,0-.83,1.5,22.11,6.42,43.13,16.04,62.37,28.69ZM206.12,341.22c1.01,5.31,3,10.44,4.41,15.64,6.29-4.25,9.63-11.33,13.6-17.58.44-.71,1.21-.86,1.7-1.66,1.76-2.87,2.67-7.94,5.56-9.53,4.79-2.62,7.99-1.79,13.33-6.39,5.32-4.59,4.99-9.02,8.26-12.78,3.84-4.43,15.03-5.54,17.24-13.66,1.23-4.54-2.99-.29-4.69.58-2.2,1.14-14.84,7.71-15.95,7.78-2.32.15-3.18-1.7-1.17-3.21,4.21-3.17,19.69-8.26,20.99-12.53.47-1.53.31-3.09.3-4.64-.94-.05-1.88-.05-2.81.15-3.52.78-12.49,6.69-16.47,8.52-1.84.84-5.87,2.34-5.87.73,0-.46.33-1.16,1.11-2.2,2.04-2.7,13.08-6.68,16.6-9.04,6.09-4.08,3.15-8.36-3.37-7.32-1.97.32-18.91,9.68-19.43,10.81.32,1.76,2.28,1.32,2.98,3.58.43,1.38.53,2.69.36,3.91-.37,2.63-2.01,4.87-4.34,6.63-1.85,1.4-8.2,3.52-8.89,4.26-1.92,2.07-1.57,14.16-9.84,12.83,1.51-5.28,5.9-8.58,4.68-15.04,3.62-.88,15.74-5.65,14.9-10.17-.59-3.15-7.47-2.61-9.98-2.32-2.09.24-8.99,3.49-8.97.25.02-2.97,9.86-3.61,12.46-4.65,3.75-1.5,14.21-7.89,17.91-10.36,5.42-3.6-.24-6.88-5.04-6.37-6.98.75-20.68,9.33-26.27,13.85-19.01,15.38-17.49,37.93-13.3,59.93ZM110.6,491.93c26.02,23.43,58.69,35.25,92.38,43.09,1.04.15,1.98-.09,2.96-.35,3.96-1.02,15.78-7.22,20.15-9.43,11.47-5.8,23.77-13.09,34.84-19.72.73-.43,6-3.37,5.48-4.05-14.83-5.47-27.91-14.81-41.64-22.47-21.47-11.98-32.44-18.22-57.78-10.21l-56.39,23.14ZM153,353.57c3.43,0,13.59,5.58,16.43,7.89,3.86,3.16,5.64,7.96,8.65,11.78,3.57-1.01,5.99-3.19,9.93-3.72,11.57-1.56,21.48,1.06,29.51,9.58l6.15-3.19c.24-1.77-.12-1.02-.96-1.32-1.7-.61-3.07-.48-4.92-1.66-10.91-6.92-11.91-22.06-16.45-32.3l-2.66-28.46-7.29,14.58c-3.76,3.38-3.46,12.94-5.91,16.57-.95,1.4-2.76,1.52-3.17-.02-.15-.57,1.4-6.78,1.73-7.99,3.08-11.4,8.62-22.76,16.25-31.74l7.35-16.07c-5.28-9.78-11.91-19.62-21.76-25.3-1.56-.27-.81.69-1.02,1.6-1.51,6.89-3.89,15.65-4.49,22.48-.81,9.2,1.02,16.01-5.99,23.6-2.58,2.8-7.24,4.31-8.88,6.24-2.92,3.43-6.1,12.17-8.88,16.57-2.68,4.23-7.87,11.31-11.19,15.29-.39.47-5.68,4.65-4.6,5.59h12.17ZM147.41,115.63c6.27.82,9.23,7.48,15.45,2.63,5.47-4.29,5.69-15.13.98-20.04-3.56-3.71-11.71-4.97-16.43-3.3v20.71ZM522.69,318.94c7.08-2.73,15.28,1.83,15.91,9.32.24,2.9-.72,8.72-1.36,11.68-.1.51-1.11.47-1.22.99-3.61,17-5.7,34.4-9.25,51.42,1.2,1.19,12.66-5.6,14.54-6.81,9.6-6.17,16.66-14.97,26.86-20.48,6.75-3.64,14.74-6.32,22.37-6.89v-111.08c-16.16.69-31.08,9.06-43.99,18.14-5.45,3.82-10.78,8.77-16.28,12.64-15.2,10.7-30.58,21.43-47.91,28.36-.84,1.37,1.09,9.54,1.06,12.18-.09,6.7-3.41,14.9-3.39,21.03.02,10.62,6.21,16.11,1.84,29.4-1.33,4.06-6.29,7.96-6.93,10.84-.6,2.76.98,5.13,1.19,7.75.68,8.37-.97,15.27-5.91,22.01,9.95-4.95,20.32-8.41,31.26-10.5l.37-2.11c4.93-18.93,8.07-40.49,12.37-59.54,1.5-6.67.49-15.28,8.47-18.35ZM519.81,455.5c5.48,6.46,5.64,13.6,4.33,21.64,21.51-9.24,42.46-22.75,66.4-24.32v-91.36c-3.27,1.24-7.11,1.41-10.39,2.43-16.72,5.2-27.22,19.96-42.28,28.06-1.99,1.07-12.46,5.03-12.92,5.82l-9.36,53.4c.18,1.94,2.96,2.85,4.22,4.33ZM518.51,500.12c-2.43,8.82-1.32,15.88-9.94,22.26-3.26,2.42-6.05,2.8-9.77,4.04l-5.58,29.26c.59.85,2.23-.02,3-.29,8.98-3.09,18.31-8.01,27.27-11.51,21.73-8.48,43.91-16.39,67.05-20.07v-68.36c-24.18,3.26-45.02,16.29-66.74,26.29-.32,6.67-3.6,12.28-5.29,18.38ZM512.98,505.89c.13-.37,2.44-.81,1.29-1.79-.62-.53-3.61,1.86-4.71,2.18-2.53.75-5.29.19-7.65,1.89l-2.51,12.97c-.08,3.25,7.07-.93,8.58-2.63,3.61-4.04,3.44-8.23,5-12.62ZM504.57,448.39c1.64.3,5.78,2.75,6.77,1.18.48-.76,1.21-8.77,1.67-10.7,4.63-19.45,9.16-42.25,12.88-61.81,2.29-12.06,4.84-24.99,6.7-37.05.52-3.42,1.87-9.94,1.36-13.02-1.09-6.71-11.15-7.02-13.92-.85-2.86,6.41-4.22,24.15-5.81,32.19-3.73,18.93-7.91,40.72-12.42,59.46l-5.28,29.77c2.59.11,5.5.37,8.05.83ZM500.95,488.14c.96.6,1.07.2.82,1.82-.6.97-1.17.95-2.19.95-3.53.01-23.31-7.04-21.21,2.06.06.26,2.41,2.98,2.7,3.21,3.78,3.1,18.08,7.4,23.02,7.3,7.9-.15,12.75-7.48,14.48-14.47,1.99-8.01,4.21-23.35-.73-30.23-4.84-6.75-26.9-10.99-32.86-4.67-1.55,1.64-3.4,5.44-.95,6.96.56.35,10.73-.49,13.31-.19,2.04.24,10.57,1.65,9.7,4.75-.61,2.15-3.44.07-4.46-.13-5.02-1.03-18.81-3.94-20.38,2.91-.28,1.21-.51,4.37.84,4.79h11.18c3.21,0,7.63,2.69,10.84,3.3.03.92.24,1.69-.63,2.31-2.06,1.44-19.45-5.35-22.96.04-.88,1.34-1.05,3.82-.13,5.1.83,1.16,16,1.92,19.61,4.19ZM26.43,168.57c-.06,2.41.72,4.3.72,6.54.04,11.62-13.27,16.02-14.52,26.95-.66,5.77,1.81,12.44,1.18,16.92-.83,5.84-9,14.08-9.73,19.24-1.33,9.54,1,22.01,0,31.87,16.58-13.37,36.78-19.23,57.12-24.4-.55-3.84,1.43-8.45.72-12.06-.39-1.97-3.64-3.88-4.87-5.64-3.95-5.66-3.53-12.05-.27-17.93,4.84-8.74,17.57-8.75,22.54-15.6,4.38-6.04,6.29-15.7,6.57-23,.91-1.3,16.58-.34,19.7-.69,10.56-1.17,22.15-7.74,28.26-16.41,1.06-1.5,2.94-6.72,4.13-7.11,2.31-.76,7.64,5.57,9.77,7.15,8.43,6.24,18.28,8.13,28.57,9.23-1.31,7.28.4,14.67.7,21.98.42,10.04-.36,21.73.63,31.58.32,3.22,1.54,2.43,2.16,3.77.62,1.31,1.72,9.06,2.77,9.03,6.33-6.38,1.98-15.23,3.01-21.97.53-3.53,2.86-7.51,3.23-11.88.54-6.5-1.52-10.37-1.92-15.86-.38-5.21,2.94-5.26,5.57-8.1,4.62-4.99,6.42-16.5,4.9-23.03-25.95,9.41-29.08-23.18-49.42-29.13-10.86-3.17-20.81-1.99-30.35,4.02-2.81-1.63-4.61-4.56-7.5-6.28-15.82-9.39-39.72-5.36-49.11,11.06-2.61,4.56-3.82,9.71-4.95,14.8-7.6-1.34-17.58.83-22.64,6.9-3.89,4.66-6.84,11.98-6.97,18.05ZM80.32,200.06c2.61,9.28,3.5,22.08,8.95,29.9,2.68,3.84,8.01,6.27,12.41,7.29,2.73-1.69,4.29-4.28,7.14-6.07,2.93-1.84,17.06-8.36,19.7-7.65,4.39,5.37,21.11,9.51,23.33.72,1.53-6.06-7.37-20.54-10.11-26.44-.73-2.78,2.12-4.68,3.98-1.94,3.38,4.95,7.44,16.49,9.64,22.43.18.47,1.12.52,1.23,1,.33,1.47-.38,6.14.09,6.69,4.92-.01,8.02,4.06,12.46,5.01,1.53-.73,5.19-8.68,5.27-10.54.06-1.39-.68-2.68-.7-3.94-.12-12.02.05-24.91-.63-36.83-.24-4.16-1.78-8.42-1.42-12.72-10.15-1.2-20.14-4.74-28.52-10.59-1.02-.72-3.21-3.97-4.27-3.28-8.87,18.04-29.44,22.58-48.05,21.97-.72.52-2.21,10.71-3.04,12.71-.31.77-1.27.84-1.5,1.3-1.88,3.77-4.1,7.21-5.96,10.98ZM193.45,640.51c-36.14,9.43-73.3,12.45-107.63,27.79-16.89,7.56-32.74,17.1-47.76,27.85-11.56,8.27-22.38,17.61-33.98,25.84v115.35h586.46v-310.24c-14.62,2.44-28.78,6.62-42.71,11.53-15.27,5.38-31.81,11.98-46.7,18.39-1.44.61-8.46,3.61-8.87,4.27-.83,1.35-.54,4.47-1.06,6.05-5.53,17-7.52,37.3-11.06,55.43-3.93,20.17-9.24,42.59-13.17,62.56-2.87,14.55-4.47,30.66-8.25,44.88-.78,2.94-1.65,5.63-4.29,7.53-6.5,4.67-12.67,1.76-18.05-2.92-6.07,2.46-12.06,5.28-18.6,6.39-9.44,1.61-30.49,2.34-38.76-2.32-.69-.39-4.46-3.28-4.81-3.73-2.69-3.48-2.51-12.82.11-16.37,3.81-5.16,14.4-13.08,19.56-17.91,2.34-2.2,4.95-4.22,7-6.14,3.5-3.28,2.51-12.56,1.66-16.83l-36.87-1.97c-1.94,1.4.56,16.57.7,19.73.21,4.79.86,15.25-.18,19.59-1.09,4.57-8.31,7.18-12.37,8.67-18.75,6.88-43.12,10.03-62.56,4.76-10.07-2.73-15.3-7.84-11.9-18.73,1.69-5.41,6.74-8.21,11.48-10.88,9.71-5.48,20.39-9.3,30.17-14.52,7.27-3.89,3.34-7.06,5.17-13.89l-.53-1.31c-1.03-1.28-8.4-2.97-10.58-3.91-2.7-1.17-11.99-5.34-12.48-7.89.95-8.65,1.14-18.31,2.64-26.79.09-.5,1.17-.45,1.25-.95,1.28-8.36,2-16.81,3.32-25.16-12.38,5-25.56,7.47-38.28,11.36-26.07,7.98-51.63,17.59-78.07,24.49ZM67.2,223.76c-1.56,15.15-3,39.71,6.96,52.19,6.22,7.8,9.18,8.74,13.36,18.99,1.77,4.35,1.16,8.12,5.06,12.56,2.02,2.3,12.3,7.68,15.19,7.85,2.16.13.49-4.66,4.33-3.75.59.15,5.86,6.51,8.43,8.05,13.29,7.94,26.71,6.73,37.05-4.86,1.19-1.34.83-3.98,3.89-3.3.47,2.99,6.73-1.03,8.32-2.26,8.7-6.71,5.77-16.27,6.63-25.57.77-8.3,4.56-15.48,5.17-24.42.62-9.11-.47-17.61-3.22-25.82-.6-1.8-.69-4.17-1.38-6.05-.97-.72-5.03,5.83-5.13,6.36-.19,1.11,6.91,12.56,3.81,14.67-2.65,1.8-3.56-4.93-4.08-6.09-1.92-4.3-6.94-9.82-11.5-11.52-8.31-3.1-7.34.99-13.3,2.21-5.2,1.05-10.3.14-14.96-2.21-2.11-1.06-2.14-2.94-5.11-2.82-1.49.06-8.64,2.74-10.35,3.54-5.34,2.49-10.74,6.73-13.8,11.84-2.1,3.52-3.04,9.21-5.34,11.74-3.31,3.65-3.25-1.6-2.77-4.09.75-3.94,3.17-6.92,4.94-10.12-10.97-4.3-14.91-8.09-18.21-19.28-1.77-6.01-3.19-13-4.13-19.21-.78-.78-7.79,2.57-7.91,3.07.61,6.22-1.31,12.18-1.95,18.3ZM18.68,433.95c21.92,3.85,39.89,15.79,57.39,28.74l30.34,26.18c12.16-3.48,23.4-9.4,35.09-14.01,13.21-5.21,31.56-13.58,45.68-13.55,22.26.05,48.06,20.77,67.61,31.06,2.7,1.42,13.68,7.35,15.72,7.01l21.54-12.39-9.8-15.63c-6.78-29.21,19.48-55.89,43.32-68.83,2.36-1.29,17.53-7.58,17.76-8.54.12-.53-5.89-4.93-7.12-6.67-6.11-8.62-4.7-19.38-.44-28.49,1.66-3.55,7.69-9.7,8.11-12.33.21-1.33-.55-2.45-.38-3.6.26-1.8,1.82-5.75,1.77-6.78-.08-1.75-2.67-2.51-3.12-4.05-3.39-11.58,10.68-14.07,15.12-20.77.91-1.38,5.58-11.4,5.76-12.66.5-3.61-2.48-6.46-2.65-10.46-.51-12.06,11.48-24.61,22.25-28.42,18.36-6.51,34.31-1.31,51.22,5.62,9.29,3.81,21.18,7.8,29.36,13.37,9.51,6.49,10.64,10.9,15.61,20.4.41.78,2.18,1.27,1.95,3.13,1.41,1.07,20.17-9.23,22.91-10.89,25.33-15.4,51.36-43.27,81.35-47.51,1.82-.25,3.68,0,5.51-.08V3.89H4.08v224.14c.62-.47,2.34-2.02,2.64-2.47,6.2-9.25.45-15.26,2.26-25.17,2.07-11.25,12.89-14.64,14.11-24.02,1.6-12.21-1.76-21.08,9.59-30.48,5.8-4.8,12.56-7.03,20.08-6.9,3.54-14.52,13.45-25.55,28.23-28.97,12.9-2.98,27.29.16,37.2,8.93,3.24-.92,6.26-2.9,9.59-3.55,3.47-.69,7.13.37,9.77-1.41v-27.28h22.02c1.26,0,9.52,3.91,10.87,4.91,10.56,7.91,8.66,30.18-4.34,35.15-1.21,1.64,2.16,3.42,2.91,4.41,6.31,8.26,9.85,17.03,22.61,15.17,4.66-.68,8.05-5.58,9.41,1.45,2.11,10.91-1.26,25.44-10.88,31.6v.63c1.72-.27,1.47,1.8,1.76,3.16,1.85,8.61,1.12,14.71-1.69,22.37-2.14,5.82-.81,9.82-.42,15.91l8.57,3.91c1.06-.06,2.4-6.75,3-8.01,1.42-3,7.73-10.12,10.64-11.85,18.05-10.72,40.65,1.31,43.19,21.57,4.2-.51,7.82-2.38,12.2-2.39,12.09-.03,23.69,9,23.33,21.74,10.5-.95,19.65,4.12,24.16,13.64.56,1.19,3.34,7.42,3.43,7.85,1.11,4.84-.3,11.87-2.09,16.16-2.08,4.98-5.06,9.65-9.04,13.3v.96c5.96,2.81,7.95,8.79,9.91,14.6.18.53,1.04.5,1.19,1.04,2.1,7.33-.37,14.15-3.53,20.55-3.76,7.6-10.56,12.94-18.06,16.45,4.6,13.62,1.96,25.47-8.91,34.81-7.33,6.3-15.36,7.32-24.7,8.16-4.15,20.27-22.94,33.39-43.71,31.94-5.27-.37-8.88-2.14-13.66-3.89-15.28,18.49-42.83,21.67-61.27,5.81-17.91,17.03-48.6,14.99-62.56-5.82-19.77,8.43-43.45-1.95-51.5-21.44-2.51-1.03-5.01.41-7.56.39-6.92-.05-12.65-3.4-18.75-5.97v37.47c4.83.18,9.85.67,14.6,1.5ZM35.58,684.58c2.36,1.71,3.99,5.59,7.29,4.21,1.1-1.46-8.73-11.39-9.52-13.16-.46-1.02-.39-2.4.66-2.61.83-.16,6.54,5.3,7.45,6.34.74.85,4.02,7.33,5.35,6.15.24-2.98,3.31-16.37,5.42-17.31.96-.43,2.09-.47,3.13-.44,1.09,1.09-4.29,11.2-4.56,13.53-.17,1.5,1.04,1.09,2.12.8,2.51-.69,6.37-4.34,8.79-5.69,40.93-22.81,75.19-25.77,119.25-36.55,10.81-2.64,21.46-6.02,32.2-8.9,1.41-1.52-7.84-12.18-8.29-13.75-.34-1.2-.21-1.25.74-2.02.89.04,1.54.57,2.24,1.03,1.2.78,5.67,6,6.62,7.36,1.26,1.79,1.41,4.26,3.28,5.41.17-3.77.42-14.52,2.95-17.1.85-.87,1.91-.68,2.97-.64-.56,4.76-2.42,10.01-2.61,14.8-.05,1.15-.6,2.51.96,2.29,4.28-.62,5.64-4.9,8.21-7.58,2.06-2.16,8.55-9.33,10.28-4.23-2.04,2.87-5.42,3.99-7.64,6.86-.4.51-1.31,1.14-.33,1.65,10.89-3.52,21.74-7.39,32.69-10.7,10.36-3.12,20.99-5.5,31.27-8.84,5.44-1.77,17.71-3.89,14.21-11.41-18.33-6.37-32.46-20.31-48.67-30.07-46.09-27.75-99.4-28.98-143.5-60.96-27.52-19.95-52.04-49.54-84.7-61.24-9.34-3.35-19.82-5.62-29.76-5.42v280.67l33.48-25.4c.25-1.45-5.12-5.16-6.44-5.91-2.97-1.69-8.3-1.96-7.31-5.5,4.37-.17,8.36,1.86,11.77,4.33ZM46.22,414.31c4.87,3.66,14.51,7.09,20.66,7.01,5.7-.07,11.03-2.68,16.29-3.9,9.95,14.67,26.14,21.66,43.56,16.37,7.08-2.15,11.3-6.41,17.09-10.56,2.14-.24,7.64,5.31,10.38,6.7,15.21,7.76,33.75,5.12,45.5-7.32.94-1,2.76-4.78,4.02-5.19,2.59-.83,5.7,2.02,8.13,2.85,13.86,4.77,31.05-.34,40.37-11.54,4.41-5.3,5.63-12.13,6.91-18.72,5.35-.77,10.72.38,15.97-1.13,13.61-3.92,20.65-17.32,18.86-30.98-.35-2.71-3.71-7.42-2.93-8.93.67-1.3,4.66-1.68,6.62-2.61,15.37-7.3,23.45-30.84,9.88-43.43-1.81-1.68-6.8-3.09-6.98-4.91-.23-2.22,5.49-4.74,7.18-6.66,8.53-9.72,8.44-28.38-1.66-36.93-6.05-5.12-11.88-4.97-19.31-3.67-1.41-1.03.2-5.1-.01-7.21-.56-5.57-5.85-11.48-10.96-13.4-7.68-2.89-16.63-1.54-22.85,3.79-1.47-.32-.86-4.6-1.16-6.07-2.06-10.06-9.4-20-20.18-21.89-13.14-2.31-23.72,4.76-27.67,17.1-.55,1.72-1.19,7.15-1.39,7.47-1.39,2.23-6.41-2.71-8.46-3.5-1.91-.73-3.77-1.35-5.85-.93.27,4.07-4.54,7.37-4.7,10.79-.11,2.18,1.17,4.92,1.34,7.23.29,3.88-.86,9.81,1.41,13.06,1.44,2.05,5.83,4.18,7.82,5.99,6.69,6.06,12.16,13.19,16.1,21.35,3.17-1.95,5.28-5.07,7.87-7.23,7.03-5.89,24.82-16.86,33.88-12.81,3.33,1.5,3.43,4.56,4.59,5.28,2.08,1.28,7.11-.96,10.53,2.79,2.07,2.26,1.41,4.7,2.12,5.92.45.78,3.96,1.4,4.81,4.06.83,2.59-.33,4.03-.2,6.12.17,2.94,1.73,3.65.7,7.6-.88,3.37-8.09,9.23-11.17,11.18-2.15,1.36-5.41,1.82-7.22,3.62-2.37,2.37-2.99,7.75-5.85,10.91-1.15,1.29-4.81,3.27-5.21,3.99-.7,1.25.46,10.05.31,12.8-.76,14.69-6.73,30.73-18.84,39.67-1,.74-9.05,5.37-9.65,5.26-7.81-9.27-19.06-13.84-31.03-9.78-2.05.7-9.64,5.59-10.8,4.61-1.47-10.04-13.59-19.97-23.35-21.02-2.86-.31-9-.32-11.84,0-2.92.34-10.84,4.75-11.71,4.54-2.03-.49-2.17-6.61-2.9-8.99-4.94-15.97-23.65-25.61-39.77-20.99-2.71.77-9.2,5.24-10.69,5.09-4.01-2.23-6.2-6.65-10.28-8.83-11.6-6.19-27.16-4.38-37.09,4.2-1.86,1.61-4.95,7.41-7.22,7.9H4.08v49.95c4.23,1.48,7.11,4.66,11.67,5.75,5.8,1.38,11.36.52,17.17.26,1.95,7.51,7.24,13.37,13.3,17.92ZM55.04,321.36c1.55,0,9.13,2.71,10.87,3.59,3.55,1.8,6.19,4.88,9.53,6.95,5.57-2.21,10.24-4.4,16.39-4.64,15.44-.62,30.09,7.44,35.97,21.92,2.22,5.46.12,9.98,6.8,4.41,7.28-6.06,17.55-21.19,22.57-29.34,1.06-1.72,2.22-4.2,2.72-6.17-9.12,11.48-26.9,12.69-39.37,6.18-1.85-.97-7.13-6.03-7.61-6.03-.33,0-1.14,1.05-2.03,1.17-2.87.37-14.69-4.45-17.34-6.29-12.44-8.65-7.89-19.77-16.78-29.24-6.91-7.36-10.29-10.78-13.45-20.86-1.13-3.6-1-9.41-1.37-13.29-21.04,3.59-41.81,11.63-57.86,25.96v61.46h15.78c2.62-7.54,9.6-10.36,16.09-13.83,1.73-3.1,1.87-20.18,3.6-21.37.82-.57,2.32-.24,3.32-.3l-1.97,20.38c.71.25,1.44-.66,1.64-.66h12.5ZM595.14-.05v841.34H.14V-.05h595ZM464.33,585.3c.56-1.84,3.1-14.26,2.6-14.82l-5.17,2.35,1.24,14.74c1.28-.23,1.06-1.39,1.33-2.27ZM422.02,354.68c4.56-4.3,3.24-12.5-3.07-14.25l-4.61,17.08c.9.8,6.75-1.95,7.68-2.83ZM398.14,472.77c.43-.54,2.66-1.04,1.41-2.19-10.43,3.26-21.6,6.06-32.54,3.93-.76.58-2.17,8.64-2.69,10.02-.22.58-1.04.59-1.21,1.01-2.13,5.47-3.85,11.05-7.29,15.92,8.28,2.27,14.73-1.08,21.2-5.94,8.07-6.06,14.92-14.91,21.12-22.75ZM362.06,708.51l.34-11.17c-1.57-.36-1.07.27-1.47.86-1.3,1.9-9,13.56-7.73,14.91l8.86-4.6ZM237.23,358.59c2.69-6.09,5.3-21.93,4.2-28.35-.14-.77-.34-1.18-.99-1.63-2.28,1.69-5.52,1.37-7.58,3.58-2.17,2.35-4.94,10.26-7.2,13.66-.41.61-1.38.86-1.88,1.56-3.39,4.83-6.65,9.94-11.27,13.71,3.21,3.76,6.21,10.39,12.09,10.16,6.69-.27,9.2-7.15,11.58-11.97.17-.35.94-.48,1.05-.72ZM64.34,217.31c.62-3.21,1.2-6.35.88-9.66-6.98,3.39-10.23,14.39-3.6,19.71l1.55-5c-.97-2.48,1.11-4.77,1.17-5.05Z"/>
  <path d="M34.98,547.47c-3.06.38-3.5-3.28-5.26-5.39-.81-.95-2.36-2.6-3.27-3.5-1.99-1.97-5.11-3.7-6.55-5.27-1.85-2.02.47-2.39,2.4-1.75,5.53,1.83,12.71,9.68,12.68,15.91Z"/>
</svg>