<?xml version="1.0" encoding="UTF-8"?>
<svg id="Camada_1" xmlns="http://www.w3.org/2000/svg" version="1.1" viewBox="0 0 595.28 841.89">
  <!-- Generator: Adobe Illustrator 29.0.0, SVG Export Plug-In . SVG Version: 2.1.0 Build 186)  -->
  <path d="M532.09,221.96c-5.34-11-12.97-23.08-25.18-28.04,1.56-16.55,3.14-33.31,6.88-49.59,1.47-6.37,3.26-12.66,5.52-18.84,14.5,12.86,21.29,30.78,25.31,48.75,3.96.14,6.01-4.75,7.1-7.77,5.98-16.53.23-35.01-11.2-48.11,13.5,2.71,24.37,11.45,33.42,20.82,1.86,1.93,7.92,10.66,9.86,10.46.69-.08,1.17-.27,1.37-.95.57-20.8-11.94-40.09-32.89-47.19-2.83-.96-5.77-1.05-8.27-2.33,15.44-4.89,33.5-3.6,47.54,4.2l.02,91.65c-10.96,1.44-21.15,9.6-23.75,19.81-.01.02-.03.02-.07.02-.56,0-3.97-2.67-4.64-2.97-12.81-5.89-24.37-1.23-31.02,10.08Z" fill="#fff"/>
  <path d="M581.52,338.18c-4.65.02-15.82-6.16-17.76,1.08,9.47-3.04,16.56,5.19,25.46-.64.22-.35.18-2.02.1-2.09-.56-.56-6.11,1.65-7.8,1.65ZM565.22,314.06c9.53-2.62,17.08,4.53,26.43-.01v66.06c0,.41-4.44,1.96-4.94,3-.64-.36.29-.61.29-.81v-9.87c0-.57-2.07-5.11-2.9-5.48-6.79-1.54-13.41,3.68-17.42,8.24-.85.97-3,5.42-3.78,5.18l-13.01-16.83c1.39-2.99,3.71-5.18,4.74-8.5,2.79-9.07.9-22.41-.25-31.87-1.41-11.67-4.31-23.21-5.73-34.88h43v22.2c-6.99,5.05-14.77-.92-21.79-.28-2.02.19-6.26,1.39-4.64,3.85Z" fill="#fff"/>
  <path d="M589.22,338.62c-8.9,5.83-15.99-2.4-25.46.64,1.94-7.24,13.11-1.06,17.76-1.08,1.69,0,7.24-2.21,7.8-1.65.08.07.12,1.74-.1,2.09Z"/>
  <path d="M568.04,654.12c.5-.4,1.86-1.39,2.39-1.3l.79,1.82-6.59,11.33c-3.41-1.76,1.4-10.22,3.41-11.85Z"/>
  <path d="M485.86,489.15c-2.45-7.75,5.4-14.22,12.71-15.96,3.18-.76,7.96-.55,10.59-1.52,1.77-.64,6.14-7.44,9.51-13,1.76-2.92,3.25-5.49,3.93-6.66,2.37-4.03,12.31-21,12.52-24.31.14-2.41-2.97-1.86-2.65-4.15,7.13-13.03,21.6-23.32,36.71-26.67,5.25,8.32,13.47,18.04,13.2,28.2-.48,18.28-29.8,45.88-42.11,59.76-6.84,7.72-4.2,8.95-7.02,17.78-2.5,7.86-11.64,21.02-21.82,16.76-5.61-2.35-2.14-5.56-2.88-6.88-2.35-1-3.39,1.66-6.03,1.61-2.4-.05-5.16-2.46-5.55-4.67-.33-1.89,1.4-5.5.57-6.01-2.24-1.35-3.44,1.23-4.06,2.79-4.91.84-6.43-5.55-6.09-9.17.45-4.71,3.77-8.25,7.12-11.39,1.32-1.23,4.03-1.69,3.59-3.86-4.96-.64-9.25,3.7-11.05,7.66l-1.19-.31Z" fill="#fff"/>
  <path d="M550.19,577.26c7.42-2.88,14.64-1.59,17.64,5.94-5.15,1.81-20.14,3.65-24.59,1-3.16-1.88,4.91-6.15,6.95-6.94Z" fill="#fff"/>
  <path d="M559.11,381.17l8.14,12.91c-15.96,3.95-29.52,14.41-37.48,27.95-6.56-6.29-10.07-4.64-5.04-13.51,6.43-11.34,21.4-23.43,34.38-27.35Z" fill="#fff"/>
  <path d="M530.68,788.19c3.03,1.12,6.3,1.94,9.56,2.21,3.46.29,22.55.44,22.9-4.07-3.55-10.28-15.43-10.63-24.33-6.02-1.6.83-9.21,6.17-8.13,7.88ZM530.82,791.62c-7.82-3.82,1.32-11.4,5.81-13.92,6.34-3.56,14.93-4.53,21.71-1.63,4.83,2.06,11.06,8.7,6.98,13.63-4.22,5.11-28.61,4.81-34.5,1.92Z"/>
  <path d="M563.6,524.64c5.88-1.48.33,3.22-.1,3.78-1.15,1.51-4.33,8.5-5.83,8.19-3.21-.68,3.63-11.39,5.93-11.97Z"/>
  <path d="M553.66,536.58c-3.18-.48-2.57-13.48.52-15.32,2.65-.55,1.72,12.64,1.32,13.86-.22.7-.99,1.49-1.84,1.46Z"/>
  <path d="M569.25,219.76c.36-1.35.79-2.66,1.28-3.94,3.48-8.96,10.37-16.05,21.12-17.43v86.61h-44.16c-2.48-19.64-7.68-38.92-13.34-57.9,2.25-10.23,13.26-16.84,24.36-13.62,4.36,1.26,6.88,4.55,10.74,6.28Z" fill="#fff"/>
  <path d="M552.11,341.49c.28,6.93.71,13.91-4.91,19.15-4.26-4.24-8.64-8.5-14.23-11.23l7.9-2.44.23-2.77c-7.1.37-12.64,3.41-17.58,7.49-1.65,1.36-3.23,2.84-4.78,4.38l-1.7-.23-42.18-5.61,2.41-18.29,1.37-.89,73.47,10.44Z" fill="#fff"/>
  <path d="M553.02,657.21c-1.04-1.99-3.26-2.63-3.2-4.93,6.03-.3,7.15,6.1,8.67,10.31-.41-1.89,2.7-15.11,5.27-12.5-.44,2.28-1.6,16.63-3.78,16.43l-.87-2.18-2.01,1.62c-3.02-1.99-2.59-5.88-4.08-8.75Z"/>
  <path d="M567.83,583.2c-3-7.53-10.22-8.82-17.64-5.94-2.04.79-10.11,5.06-6.95,6.94,4.45,2.65,19.44.81,24.59-1ZM549.54,588.13c-20.56-1.38-5.53-14.07,4.78-15.19,5.94-.65,16.96,3.36,16.47,9.99-.41,5.53-16.93,5.49-21.25,5.2Z"/>
  <path d="M540.24,790.4c-3.26-.27-6.53-1.09-9.56-2.21-1.08-1.71,6.53-7.05,8.13-7.88,8.9-4.61,20.78-4.26,24.33,6.02-.35,4.51-19.44,4.36-22.9,4.07Z" fill="#fff"/>
  <path d="M479.52,320.62c4.95,1.32,10.55-.72,14.52-3.55,1-.72,3.04-3.47,3.33-3.57,4.13-1.36,26.15-.79,31.84-.57,6.6.26,13.34,1.14,19.92,1.77l3.01,23.47-73.8-10.41,1.18-7.14Z" fill="#fff"/>
  <path d="M548.66,536.61c.86-2.27-8.35-11.95-4.93-12.61,2.46-.47,7.74,9.44,7.17,11.75l-2.24.86Z"/>
  <path d="M544.56,285.46l4.09,25.85c-16.08-1.98-32.7-2.23-48.8-1.1.11-1.52.18-3,.25-4.46.38-7.68.64-14.63,5.06-21.77l38.81-2.24.59,3.72Z" fill="#fff"/>
  <polygon points="537.54 252.73 543.42 278.96 505.65 280.61 505.17 254.38 537.54 252.73" fill="#fff"/>
  <path d="M526.77,219.17l10.26,30.19-31.96.83c-.42-2.91.59-7.18,0-9.87-.07-.32-.59-1.28-.98-1.39l-7.15-1.09c5.57-10.79,17.51-16.99,29.83-18.67Z" fill="#fff"/>
  <path d="M457.43,64.09c18.05-6.1,42.34-2.42,51.28,15.21,4.07,1.74,2.89-2.67,3.6-4.83,5.03-15.37,18.38-24.52,35.17-17.24-10.82,4.23-21.33,14.91-23.65,25.91-2.52,11.88,5.03,2.52,9.53.22,18.77-9.57,47.59-4.1,57.14,14.98-14.32-5.29-29.74-7.16-44.76-3.29-1.94.5-15.7,4.76-10.31,6.99,2.07.86,4.68.17,6.96.57,18.45,3.26,32.26,14.26,37.6,31.4.83,2.64,2.18,7.06,1.21,9.55-9.03-12.66-22.7-24.29-38.64-28.51-19.05-5.03-4.9,4.92-.64,11.02,8.61,12.35,11.3,29,4.7,42.71-3.54-14.82-10.62-32.09-22-43.1-10.37-10.05-7.94-2.26-10.84,6.92l-12.19-3.84c6-12.38,4.48-15.01-8.53-8.31-10.01,5.16-18.36,13.14-25.73,21.22l-10.48,13.96c.17-2.61-.25-5.36,0-7.95,1.35-14.28,11.9-31.23,25.76-37.64,2.32-1.07,6.73-.72,5.97-3.78-.59-2.36-9.87-1.8-12.29-1.63-14.01.94-29.81,8.75-39.49,18.1,4.23-21.88,28.63-36.33,51.56-32.73,3.19.5,7.01,2.28,9.51,2.54.85.08,2.23.55,2-.78-3.63-9.84-16.11-17.35-25.97-21.57-3.1-1.32-6.84-2.22-10.21-3.15-2.02-.55-3.91-1.12-5.45-1.8-.67-.3-1.05.24-.81-1.15Z" fill="#fff"/>
  <path d="M339.19,465.34c-3.93-5.87-8.86-12.73-12.65-19.89-3.35-6.31-5.82-12.86-5.93-19.17-.25-13.79,6.35-22.06,13.39-33.24,4.81-7.64,10-15.72,15.93-23.23,7.63-9.65,16.48-18.36,27.31-23.97v11.24c0,3.67,4.29,13.6,6.18,17.2,15.87,30.32,56.96,39.39,87.76,23.73,3.58-1.82,8.65-6.32,11.27-7.45,2.07-.9,5.88-1.06,8.4-1.95,18.44-6.47,19.66-17.94,30.51-30.41.97-1.11,2.53-2.93,4.23-4.4,1.71-1.47,3.56-2.59,5.06-2.24,7.49,1.74,22.3,20.16,26.15,26.89-16.48,6.15-30.07,19.1-37.5,34.27-1.39.32-11.38-9.83-13.66-10.67-.9-.33-2.12-.38-2.31.54-.41,1.95,8.59,7.54,9.65,9.84l-.32,1.43-10.03,45.34c-27.57,7.86-59.41,8.5-87.82,4.42-5.08-.73-10.39-1.61-15.57-2.88-5.17-1.27-10.21-2.94-14.74-5.26-.46-.8-.64-6.94-.82-13.3-.16-6.03-.31-12.25-.68-14.33-.55-3.13-5.02-8.37-6.62-11.85-3.47-7.53-5.47-16.73-4.97-24.95.11-1.75,3.15-11.41-.26-10.67-5.11,10.85-2.26,23.3,1.28,34.2l-11.96,12.18,8.05,19.95c-.96-.04-1.9-.02-2.83.06-11.52.85-21.13,9.37-26.5,18.57Z" fill="#fff"/>
  <path d="M522.51,717.51c4.55,5.17,2.63,10.91-.01,16.44v-16.44Z" fill="#fff"/>
  <path d="M525.41,216.47c-13.07,1.39-25.65,9-31.39,20.29l-11.17-3.42-8.57-2.62c3.93-11.9,12.39-30.89,27.24-33.28,1.59-.27,3.26-.33,5-.18,5.7.5,16.43,14.23,18.89,19.21Z" fill="#fff"/>
  <polygon points="516.69 358.46 506.14 374.29 472.53 371.61 474.28 352.97 516.69 358.46" fill="#fff"/>
  <path d="M515.53,642.96l1.06,47.05c-10,4.38-21.67,5-32.37,2.77l-8.02-41.74-.18-.95c13.29-1.11,26.71-2.91,39.33-7.07l.18-.06Z" fill="#fff"/>
  <path d="M470.21,730.94c5.16-5.14,6.19-7.12,14.23-6.84,10.31.35,20.46,3.33,27.94,10.1.93.85,4.84,4.75,4.88,5.49l-4.92,6.71c-.78.14-7.2-6.97-8.72-8.06-8.89-6.36-22.55-8.36-33.41-7.4Z" fill="#fff"/>
  <path d="M531.73,428.24c-2.19,4.06-3.86,8.38-6.02,12.45-2.19,4.14-5.94,11.1-9.54,17.07-2.17,3.58-4.28,6.81-5.96,8.87-1.96,2.38-2.86,2.96-6.3,2.55l11.05-54.81c.43-.48,3.27,2.01,3.81,2.42,4.51,3.55,8.75,7.58,12.96,11.45Z" fill="#fff"/>
  <polygon points="512.58 136.24 510.93 143.69 509.13 151.79 495.2 147.95 500.43 131.51 500.51 131.54 512.58 136.24" fill="#fff"/>
  <polygon points="508.54 154.55 506.23 170.43 491.39 166.62 494.59 151.48 508.54 154.55" fill="#fff"/>
  <path d="M466.15,525.65c13.5-.85,27.62-1.33,40.29-5.97.8,1.75,5.53,3.32,6.03,3.92.77.92,2.3,13.01,1.55,13.62-.63.25-1.26.5-1.9.74-14.07,5.24-29.62,6.78-44.56,4.17l-1.41-16.48Z" fill="#fff"/>
  <polygon points="505.38 174.24 503.91 191.81 487.72 184.61 489.96 170.12 505.38 174.24" fill="#fff"/>
  <path d="M503.33,377.1c-7.6,8.2-21.14,12.14-31.98,7.85l.61-10.6.33.03,31.04,2.72Z" fill="#fff"/>
  <path d="M533.25,502.62c2.82-8.83.18-10.06,7.02-17.78l2.58.97c-1.55,1.68-2.75,3.12-3.3,4.12-1.93,3.48-2.15,10.28-3.66,14.63-3.25,9.35-9.41,16.69-19.81,19.23l16.57,108.49c-.28,4.36-4.24,6.37-8.33,7.9l-1.04-2.81c3.32-1.34,5.63-2.74,6.07-4.12l-14.4-93.9c-.65.31-1.3.6-1.95.89l-.88-2.28c.64-.24,1.27-.49,1.9-.74.75-.61-.78-12.7-1.55-13.62-.5-.6-5.23-2.17-6.03-3.92l-1.37-2.53c-1.02-.03-1.96-.08-2.83-.19l.28-2.85c2.64.05,3.68-2.61,6.03-1.61.74,1.32-2.73,4.53,2.88,6.88,10.18,4.26,19.32-8.9,21.82-16.76Z"/>
  <path d="M465.27,737.24c4.38-4.57,10.66-3.94,16.78-3.22,10.5,1.24,21.22,5.98,27.08,14.46-4.15,2.83-9.22,4.19-14.18,5.14-1.58-.4-.29-4.16.21-5.17.78-1.58,4.44-3.7,1.98-4.56-4.42-1.55-6.07,7.12-5.43,9.8l-8.14.55c-.23-3.63-.19-5.77,1.74-8.91.12-.2,3.68-2.45.87-3.15-3.84-.96-7.25,9.27-4.93,12.05l-9.3-1.64c.82-2.59.8-5.28,1.87-7.83.51-1.23,3.71-4.03,2.2-4.78-3.99-1.98-6.58,9.81-6.4,12.06-9.16-3.01-11.06-7.8-4.35-14.8Z" fill="#fff"/>
  <path d="M485.32,696.13c10.22,2.08,22.12,1.71,31.37-3.29l.49,12.79c-4.97,4-27.03,6.37-30.25.22-1.3-2.46-.9-6.94-1.61-9.72Z" fill="#fff"/>
  <path d="M472.84,484.18l9.57-1.29c-1.04,2.99-.73,5.53.88,8.22.53.89,1.95,1.04,2.01,1.14.2.34-2.68,6.09-1.72,7.64l-1.42.08-18.34,1.01-1.75-15.35,10.77-1.45Z" fill="#fff"/>
  <path d="M497.5,305.63c-.66,8.83-15.03,15.96-22.08,9.26-6.78-6.45-.7-25.81,10.47-21.94-3.01,2.42-8.54,8.89-6.41,12.63,1.47,2.61,4.96,3.84,7.9,2.47,3.12-1.45,3.47-6.12,4.88-8,.31-.41,1.16-1.01,2.1-1.66,1.21-.83,2.58-1.74,3.16-2.43v9.05c0,.21-.01.42-.02.62Z" fill="#fff"/>
  <path d="M464.4,503.72c2.41.94,13.49-.8,17.91-1.07.92-.05,1.55-.04,1.75.07.25.13,1.61,3.36,3.04,4.53,2.05,1.67,6.43,2.27,6.8,2.62.42.39.37,2.23,1.05,3.13,2.1,2.74,4.34,3.63,7.29,3.96.87.11,1.81.16,2.83.19-12.54,3.55-25.89,4.55-38.93,5.21l-1.74-18.64Z" fill="#fff"/>
  <path d="M485.32,696.13c.71,2.78.31,7.26,1.61,9.72,3.22,6.15,25.28,3.78,30.25-.22l-.49-12.79c-9.25,5-21.15,5.37-31.37,3.29ZM461.25,736.74c4.39-6.5,21.23-20.62,22.28-26.67.64-3.64-1.22-10.65-1.87-14.6-2.42-14.67-6.56-29.1-8.05-43.93l2.59-.5,8.02,41.74c10.7,2.23,22.37,1.61,32.37-2.77l-1.06-47.05-.18.06-.88-2.77c3.26-.9,6.32-1.87,8.81-2.88l1.04,2.81c-1.85.69-3.72,1.29-5.3,1.96l1.22,61.34c6.68,14.74,15.01,25.46,4.97,40.97-11.38,17.57-31.95,22.53-52.58,18.2-17.65-3.71-21.25-11.29-11.38-25.91ZM484.44,724.1c-8.04-.28-9.07,1.7-14.23,6.84,10.86-.96,24.52,1.04,33.41,7.4,1.52,1.09,7.94,8.2,8.72,8.06l4.92-6.71c-.04-.74-3.95-4.64-4.88-5.49-7.48-6.77-17.63-9.75-27.94-10.1ZM482.05,734.02c-6.12-.72-12.4-1.35-16.78,3.22-6.71,7-4.81,11.79,4.35,14.8-.18-2.25,2.41-14.04,6.4-12.06,1.51.75-1.69,3.55-2.2,4.78-1.07,2.55-1.05,5.24-1.87,7.83l9.3,1.64c-2.32-2.78,1.09-13.01,4.93-12.05,2.81.7-.75,2.95-.87,3.15-1.93,3.14-1.97,5.28-1.74,8.91l8.14-.55c-.64-2.68,1.01-11.35,5.43-9.8,2.46.86-1.2,2.98-1.98,4.56-.5,1.01-1.79,4.77-.21,5.17,4.96-.95,10.03-2.31,14.18-5.14-5.86-8.48-16.58-13.22-27.08-14.46ZM522.5,733.95c2.64-5.53,4.56-11.27.01-16.44v16.44Z"/>
  <path d="M464.4,503.72l1.74,18.64c13.04-.66,26.39-1.66,38.93-5.21l1.37,2.53c-12.67,4.64-26.79,5.12-40.29,5.97l1.41,16.48c14.94,2.61,30.49,1.07,44.56-4.17l.88,2.28c-14.05,6.13-29.85,7.3-45.11,5.14-.36,8.98,1.83,19.98.59,28.79h-2.92v-10.15l-.24-2.72.25-.02-6.38-75.41,2.88-.24,1.75,15.35,18.34-1.01.15,2.68c-4.42.27-15.5,2.01-17.91,1.07Z"/>
  <path d="M481.25,285.54c-1.8-1.75,5.18-8.72,6.7-9.85,1.49-1.1,6.82-4.81,8.14-2.22.73,1.45-3.71,3.07-4.97,4.12-1.57,1.32-8.36,9.41-9.87,7.95Z"/>
  <path d="M468.48,574.17c1.24-8.81-.95-19.81-.59-28.79,15.26,2.16,31.06.99,45.11-5.14.65-.29,1.3-.58,1.95-.89l14.4,93.9c-.44,1.38-2.75,2.78-6.07,4.12-2.49,1.01-5.55,1.98-8.81,2.88-9.78,2.71-21.39,4.78-24.98,5.27-31.1,4.26-69.25,3.41-101.63-4.28-6.57-1.56-12.9-3.41-18.89-5.55-3-1.07-15.54-5.76-16.76-7.77l16.32-92.96c2.78.58,5.1,2.03,7.88,2.71,1.06.26,3.39.52,5.71.8,2.98.36,5.94.75,6.11,1.22-.44,7.7-6.86,27.75-2,33.67,8.22,10.02,51.23,10.03,63.92,8.74,5.7-.58,17.42-1.46,18.33-7.93Z" fill="#fff"/>
  <path d="M474.22,187.46c9.86-3.59,16.94,2.77,27.37,6.55.13,1.23.03,1.03-.49,1.03-.11,0-.24,0-.39.04-2.97.66-5.26.76-8.15,2.19-10.2,5.03-18.27,22.25-21.23,32.31l-17.06-2.72-3.24-.52c2.52-12.23,6.69-28.8,18.17-36.3,1.76-1.15,3.43-2,5.02-2.58Z" fill="#fff"/>
  <path d="M477.18,390.25c-2.65,1.17-8.9-3.84-9.57-3.84-.22,0-1.13.4-2.42,1.01l-2.37-1.78c1.67-.73,3.05-1.5,3.89-2.26,1.2-1.08,1.89-5.02,2.36-9.36l2.89.33-.61,10.6c10.84,4.29,24.38.35,31.98-7.85l-31.04-2.72.24-2.77,33.61,2.68,10.55-15.83.35-2.62,1.7.23c1.55-1.54,3.13-3.02,4.78-4.38l2.07,2.11c-1.7,1.47-3.26,3.29-4.23,4.4-10.85,12.47-12.07,23.94-30.51,30.41-2.52.89-6.33,1.05-8.4,1.95-2.62,1.13-7.69,5.63-11.27,7.45-30.8,15.66-71.89,6.59-87.76-23.73-1.89-3.6-6.18-13.53-6.18-17.2v-9.11h2.65c0,1.28.16,2.69.27,4.16,3.23,45.36,60.72,64.83,97.02,38.12Z"/>
  <path d="M465.19,387.42c1.29-.61,2.2-1.01,2.42-1.01.67,0,6.92,5.01,9.57,3.84-36.3,26.71-93.79,7.24-97.02-38.12-.11-1.47-.27-2.88-.27-4.16,0-2.34.54-4.25,2.93-5.34.55-.26,1.2-.46,1.97-.62-.94,36.09,32.33,58.63,68.82,50.39,2.65-.6,8.31-3.43,11.58-4.98Z" fill="#fff"/>
  <path d="M591.65,314.05c-9.35,4.54-16.9-2.61-26.43.01-1.62-2.46,2.62-3.66,4.64-3.85,7.02-.64,14.8,5.33,21.79.28v-22.2h-43c1.42,11.67,4.32,23.21,5.73,34.88,1.15,9.46,3.04,22.8.25,31.87-1.03,3.32-3.35,5.51-4.74,8.5l13.01,16.83c.78.24,2.93-4.21,3.78-5.18,4.01-4.56,10.63-9.78,17.42-8.24.83.37,2.9,4.91,2.9,5.48v9.87c0,.2-.93.45-.29.81.5-1.04,4.94-2.59,4.94-3v-66.06ZM524.73,408.52c-5.03,8.87-1.52,7.22,5.04,13.51,7.96-13.54,21.52-24,37.48-27.95l-8.14-12.91c-12.98,3.92-27.95,16.01-34.38,27.35ZM529.21,312.93c-5.69-.22-27.71-.79-31.84.57-.29.1-2.33,2.85-3.33,3.57-3.97,2.83-9.57,4.87-14.52,3.55l-1.18,7.14,73.8,10.41-3.01-23.47c-6.58-.63-13.32-1.51-19.92-1.77ZM370.85,300.34h2.32l-1.15-5.47-1.17,5.47ZM460.34,363.67c12.55-5.87,11.35-11.53,12.19-23.85-10.13,13.97-34.74,21.31-49.91,10.64-4.99-3.51-6.99-7.85-8.52-13.35l-11.02-2.67c-2.61.66,1.48,12.65,2.35,14.68,9,20.87,35.35,23.71,54.91,14.55ZM455.76,324.27c2.5-1.56,8.07-7.04,9.36-7.62,2.56-1.15,3.35.25,1.92,2.36-7.42,10.95-35.51,20.13-49.12,18.62,4.63,17.8,28.95,17.51,42.6,8.66,10.63-6.9,14.41-13.83,15.45-25.98-1.49-2.28-3.63-2.9-5.07-5.54-4.42-8.06-.97-21.88,8.73-25,4.01-1.29,10.66-.8,8.93,4.57-.49,1.51-6.72,5.83-.32,4.1,1.28-.34,2.51-.91,3.67-1.65l2.45,1.6c-.94.65-1.79,1.25-2.1,1.66-1.41,1.88-1.76,6.55-4.88,8-2.94,1.37-6.43.14-7.9-2.47-2.13-3.74,3.4-10.21,6.41-12.63-11.17-3.87-17.25,15.49-10.47,21.94,7.05,6.7,21.42-.43,22.08-9.26l2.6.12c-.07,1.46-.14,2.94-.25,4.46,16.1-1.13,32.72-.88,48.8,1.1l-4.09-25.85,2.93-.46h44.16v-86.61c-10.75,1.38-17.64,8.47-21.12,17.43l-2.78-.97s.06,0,.07-.02c2.6-10.21,12.79-18.37,23.75-19.81l-.02-91.65c-14.04-7.8-32.1-9.09-47.54-4.2,2.5,1.28,5.44,1.37,8.27,2.33,20.95,7.1,33.46,26.39,32.89,47.19-.2.68-.68.87-1.37.95-1.94.2-8-8.53-9.86-10.46-9.05-9.37-19.92-18.11-33.42-20.82,11.43,13.1,17.18,31.58,11.2,48.11-1.09,3.02-3.14,7.91-7.1,7.77-4.02-17.97-10.81-35.89-25.31-48.75-2.26,6.18-4.05,12.47-5.52,18.84l-2.86-.64,1.65-7.45-12.07-4.7,1.08-2.78,12.19,3.84c2.9-9.18.47-16.97,10.84-6.92,11.38,11.01,18.46,28.28,22,43.1,6.6-13.71,3.91-30.36-4.7-42.71-4.26-6.1-18.41-16.05.64-11.02,15.94,4.22,29.61,15.85,38.64,28.51.97-2.49-.38-6.91-1.21-9.55-5.34-17.14-19.15-28.14-37.6-31.4-2.28-.4-4.89.29-6.96-.57-5.39-2.23,8.37-6.49,10.31-6.99,15.02-3.87,30.44-2,44.76,3.29-9.55-19.08-38.37-24.55-57.14-14.98-4.5,2.3-12.05,11.66-9.53-.22,2.32-11,12.83-21.68,23.65-25.91-16.79-7.28-30.14,1.87-35.17,17.24-.71,2.16.47,6.57-3.6,4.83-8.94-17.63-33.23-21.31-51.28-15.21-.24,1.39.14.85.81,1.15,1.54.68,3.43,1.25,5.45,1.8l-.97,2.63-.33-.12c-7.11-2.61-20.26-4.4-3.08-9.45,17.47-5.13,38.15-1.26,49.54,12.74,4.53-12.22,14.51-21.85,29.05-21.59,3.5.06,16.42,2.74,14.76,7.53-.22.62-8.18,3.61-9.77,4.52-7.5,4.31-12.65,11.55-15.15,19.42,20.07-12.44,50.06-8.77,63.91,10.42V3.23H3.62v281.77h56.95l.03,2.77-56.98.52v186.92c0,.12.53.4,1.27.81l-1.27,2.48v360.16h588.03v-454.99c-2.38.17-8.41,7.36-9.87,6.03,1.87-7.01,3.67-13.67,1.15-20.84-6.05-.52-18.8,10.58-17.57,15.74.8,3.35,10.54,15.71,13.02,20.08,4.16,7.31,7.49,12.75,6.87,21.46-1.03,14.27-17.45,33.27-27,44.15-2.98,3.39-10.76,10.5-15.4,15.52l-2.58-.97c12.31-13.88,41.63-41.48,42.11-59.76.27-10.16-7.95-19.88-13.2-28.2-15.11,3.35-29.58,13.64-36.71,26.67-.32,2.29,2.79,1.74,2.65,4.15-.21,3.31-10.15,20.28-12.52,24.31-.68,1.17-2.17,3.74-3.93,6.66l-2.5-.91c3.6-5.97,7.35-12.93,9.54-17.07,2.16-4.07,3.83-8.39,6.02-12.45-4.21-3.87-8.45-7.9-12.96-11.45-.54-.41-3.38-2.9-3.81-2.42l-2.3-.51.32-1.43c-1.06-2.3-10.06-7.89-9.65-9.84.19-.92,1.41-.87,2.31-.54,2.28.84,12.27,10.99,13.66,10.67,7.43-15.17,21.02-28.12,37.5-34.27-3.85-6.73-18.66-25.15-26.15-26.89-1.5-.35-3.35.77-5.06,2.24l-2.07-2.11c4.94-4.08,10.48-7.12,17.58-7.49l-.23,2.77-7.9,2.44c5.59,2.73,9.97,6.99,14.23,11.23,5.62-5.24,5.19-12.22,4.91-19.15l-73.47-10.44-1.37.89-2.41,18.29,42.18,5.61-.35,2.62-42.41-5.49-1.75,18.64-.24,2.77-.33-.03-2.89-.33c.53-5.05.76-10.64,1.13-12.83-20.45,16.08-58.01,14.79-68.42-11.36-1.71-4.3-1.9-8.94-3.33-13.29l-.64-2.52c.31-.09.62-.17.93-.24.21-.99-.53-1.36-1.2-1.88-5.79-4.48-17.9-5.67-26.01-6.23l.21-2.77,13.64,1.01c-5.67-5.64-9.39-12.72-11.32-20.29l-4.89-.47-2.84-.88,4.52-14.53v-2.98h.02l2-19.78,2.79.28c-2.17,21.63-1.69,45.27,14.94,58.39,18.63,14.69,45.66,12.78,65.16.62ZM595.14-.05v842H.14V-.05h595Z"/>
  <polygon points="459.19 485.87 465.57 561.28 465.32 561.3 440.58 563.47 440.57 486.18 459.17 485.63 459.19 485.87" fill="#fff"/>
  <path d="M465.56,564.02v10.14c0,1.22-4.18,2.8-5.36,3.17-12.7,3.97-58.92,2.81-69.79-4.63-4.71-3.23-2.42-9.6-1.83-14.17,24.48,8.2,51.43,9.77,76.98,5.49Z" fill="#fff"/>
  <path d="M501.52,197.44c-14.85,2.39-23.31,21.38-27.24,33.28l8.57,2.62-.87,2.85c-8.79-2.64-17.78-4.7-26.86-6.3-.3-.05-.74-.12-1.3-.22l.45-2.81,17.06,2.72c2.96-10.06,11.03-27.28,21.23-32.31,2.89-1.43,5.18-1.53,8.15-2.19.15-.03.28-.04.39-.04l.42,2.4Z"/>
  <path d="M436.84,190.2c8.92-12.06,17.4-10.54,31.16-7.54,1.93.42,5.13.62,6.28,2.01-.28.08-.55.17-.83.25-17.18,5.58-22.13,25.85-25.32,40.88l-20.92-2.75c.46-6.04,5.42-11.62,6.24-17.41.82-5.73-.86-7.44.86-11.32.51-1.14,1.3-2.46,2.53-4.12Z" fill="#fff"/>
  <path d="M384.8,471.1v-11.78c4.52,1.5,9.14,2.81,13.83,3.95,33.42,8.12,70.56,7.29,103.54-.66-.89,1.11-.78,6.62-1.22,7.07-.37.38-7.67,1.85-10.2,3.25-2.99,1.66-4.73,4.76-6.63,5.81-2.42,1.34-6.54,2.29-11.62,2.92-17.2,2.16-45.38.8-55.36-.5-.15-.02-.32-.04-.52-.07-5.96-.85-30.65-5.36-32.01-8.78-.38-.46.19-1,.19-1.21Z" fill="#fff"/>
  <path d="M423.94,258.07c-2.02.15-5.72.75-6.76-1.16-.15-.29-1.47-4.91-1.47-5.18.05-3.27,3.93-.72,5.31-.76,7.03-.23,16.41-3.96,23.51-4.22,3.8-.14,12.05,3.14,6.93,6.03-1.94,1.1-24.15,5.02-27.52,5.29Z"/>
  <path d="M444.36,715.86c-3.42-.73,3.45-13.21,7.25-12.6,1.4,2.58-1.08,2.92-2.22,4.75-.87,1.41-4.06,8.06-5.03,7.85Z"/>
  <path d="M440.86,715.86c-.56.13-1.44-.62-1.44-.82,0-2.49-.33-5.89,0-8.22.18-1.33,1.95-7.63,4.07-6.04.44.28.51.58.54,1.05.07,1.12-2.42,13.87-3.17,14.03Z"/>
  <path d="M422.62,350.46c15.17,10.67,39.78,3.33,49.91-10.64-.84,12.32.36,17.98-12.19,23.85-19.56,9.16-45.91,6.32-54.91-14.55-.87-2.03-4.96-14.02-2.35-14.68l11.02,2.67c1.53,5.5,3.53,9.84,8.52,13.35Z" fill="#fff"/>
  <path d="M398.45,336.54l-10.2,4.16c-1.88,31.68,25.44,53.71,58.35,49.47,3.56-.46,11.2-2.34,16.22-4.53l2.37,1.78c-3.27,1.55-8.93,4.38-11.58,4.98-36.49,8.24-69.76-14.3-68.82-50.39-.77.16-1.42.36-1.97.62l-1.21-2.58c5.19-2.47,10.56-4.6,16.2-6.03l.64,2.52Z"/>
  <path d="M401.78,349.83c10.41,26.15,47.97,27.44,68.42,11.36-.37,2.19-.6,7.78-1.13,12.83-.47,4.34-1.16,8.28-2.36,9.36-.84.76-2.22,1.53-3.89,2.26-5.02,2.19-12.66,4.07-16.22,4.53-32.91,4.24-60.23-17.79-58.35-49.47l10.2-4.16c1.43,4.35,1.62,8.99,3.33,13.29Z" fill="#fff"/>
  <polygon points="438.26 486.18 438.25 563.47 411.59 561.22 418.59 485.44 419.94 484.52 438.26 486.18" fill="#fff"/>
  <path d="M493.45,87.65c-7.94-8.93-19.47-13.84-30.73-17.98l.97-2.63c3.37.93,7.11,1.83,10.21,3.15,9.86,4.22,22.34,11.73,25.97,21.57.23,1.33-1.15.86-2,.78-2.5-.26-6.32-2.04-9.51-2.54-22.93-3.6-47.33,10.85-51.56,32.73,9.68-9.35,25.48-17.16,39.49-18.1,2.42-.17,11.7-.73,12.29,1.63.76,3.06-3.65,2.71-5.97,3.78-13.86,6.41-24.41,23.36-25.76,37.64-.25,2.59.17,5.34,0,7.95l10.48-13.96c7.37-8.08,15.72-16.06,25.73-21.22,13.01-6.7,14.53-4.07,8.53,8.31l-1.08,2.78-.08-.03-5.23,16.44-2.7-.75c2.68-9.17,5.72-18.24,9.08-27.2-12.17,5.59-23.18,13.58-31.6,23.63-2.11,2.52-12.1,18.04-13.42,18.04-2.5.02-3.24-8.28-3.25-10.16-.11-16.94,10.89-34.39,25.62-43.57-10.56.5-21.25,4.45-30.17,9.64-3.36,1.95-10.57,8.36-12.86,9.24-6.63,2.53-1.38-10.29-.25-12.84,9.01-20.37,35.21-32.41,57.8-26.33Z"/>
  <path d="M430.99,273.24c-6.83-.09-5.19-13.95.67-14.4,6.52-.5,6.84,14.5-.67,14.4Z"/>
  <path d="M429.54,702.71c2.69-2.52,11.28,10.81,7.26,13.69l-7.26-13.69Z"/>
  <path d="M407.25,225.26l.79-.02c-.87,6.69,6.04,8.38,11.86,7.63,7.34-.95,5.79-5.83,6.81-6.45,1.13-.68,21.07,2.28,27.11,3.25.56.1,1,.17,1.3.22,9.08,1.6,18.07,3.66,26.86,6.3,6.83,2.05,13.54,4.44,20.08,7.24l-.48,10.87c-34.98-14.06-73.79-19.43-111.83-18.52-3.6.09-7.18.23-10.76.43l1.22-10.35,27.04-.6Z" fill="#fff"/>
  <path d="M417.05,219.76c1.22.2,1.34-.09,1.92-.92.85-1.21,2.36-8.62,3.05-10.82.72-2.29,2.54-3.62,2.87-6.62.41-3.83-.89-9.67-5.81-9.59-.11,3.2,3.11,4.48,2.94,7.94-.1,1.93-9.18,18.74-4.97,20.01ZM411.29,198.92c-9.79-1.16-.63-17.15,11.68-9.96,16.34,9.54.46,27.36-.54,40h-10.19c-2.68-2.05,2.42-22.7,1-26.92,1.79-.18,7.41-3.22,5.25-5.3-1-.96-4.38,2.52-7.2,2.18Z" fill="#fff"/>
  <path d="M412.61,184.76c7.05-2.23,15.1,1.28,18.05,8.35l1.19.34,2.46.87c-1.72,3.88-.04,5.59-.86,11.32-.82,5.79-5.78,11.37-6.24,17.41l20.92,2.75c3.19-15.03,8.14-35.3,25.32-40.88l.77,2.54c-1.59.58-3.26,1.43-5.02,2.58-11.48,7.5-15.65,24.07-18.17,36.3l3.24.52-.45,2.81c-6.04-.97-25.98-3.93-27.11-3.25-1.02.62.53,5.5-6.81,6.45-5.82.75-12.73-.94-11.86-7.63l-.79.02-.06-2.9.76-.76,1.85-19.55c-7.33-3-8.28-9.2-2.36-14.37,1.59-1.38,3.35-2.35,5.17-2.92ZM422.97,188.96c-12.31-7.19-21.47,8.8-11.68,9.96,2.82.34,6.2-3.14,7.2-2.18,2.16,2.08-3.46,5.12-5.25,5.3,1.42,4.22-3.68,24.87-1,26.92h10.19c1-12.64,16.88-30.46.54-40Z"/>
  <path d="M417.05,219.76c-4.21-1.27,4.87-18.08,4.97-20.01.17-3.46-3.05-4.74-2.94-7.94,4.92-.08,6.22,5.76,5.81,9.59-.33,3-2.15,4.33-2.87,6.62-.69,2.2-2.2,9.61-3.05,10.82-.58.83-.7,1.12-1.92.92Z"/>
  <path d="M418.59,485.44l-2.54-.27.13-1.18.44-2.9c.2.03.37.05.52.07,9.98,1.3,38.16,2.66,55.36.5l.34,2.52-10.77,1.45-2.88.24-.02-.24-18.6.55h-2.31l-18.32-1.66-1.35.92Z"/>
  <path d="M416.18,795.9c-3.54-4.08,8.36-17.53,11.6-16.2l1.18,1.66c-4.27,2.08-6.61,5.33-8.94,9.12-1.09,1.78-.99,5.2-3.84,5.42Z"/>
  <path d="M416.18,483.99l-.13,1.18-8.01,75.01-18.83-4.32c2.66-24.44,8.49-48.96,13.53-73.2l13.44,1.33Z" fill="#fff"/>
  <path d="M430.66,193.11c-2.95-7.07-11-10.58-18.05-8.35l-.43-1.98c10.45-2.33,23.94-2.92,30.72-3.03-4.06,4.08-9.63,8.04-11.05,13.7l-1.19-.34Z" fill="#fff"/>
  <path d="M401.19,304.57c7.5-2.9,15.11-2.27,22.78-.34,1.66.42,11.99,3.04,9.05,5.98-.59.59-13.23-4.15-16.54-4.4-6.43-.48-13.58.37-18.72,4.32-4.68-1.92,1.03-4.63,3.43-5.56Z"/>
  <path d="M412.99,796.29c-4.94.48-1.18-15.84-.01-18.48.81-1.8,4.36-8.07,6.1-4.14-1.33,2.7-4.65,8.12-4.65,10.99,0,2.42.51,8.61,0,10.42-.05.18-1.14,1.18-1.44,1.21Z"/>
  <path d="M412.18,182.78l.43,1.98c-1.82.57-3.58,1.54-5.17,2.92-5.92,5.17-4.97,11.37,2.36,14.37l-1.85,19.55-.76.76-9.6.14c-1.45-7.68-4.44-22.68-.29-31.16.71-1.45,1.64-2.72,2.81-3.72,1.3-1.11,3.12-2.07,5.3-2.89,2-.76,4.3-1.41,6.77-1.95Z" fill="#fff"/>
  <path d="M395.99,291.15c6.81,2.05,14.06-2.72,20.4-3.92,5.33,1.59-8.4,6.39-9.65,6.68-27.51,6.4-16.92-18.24-7.08-29.7,1.61-1.86,3.92-3.16,4.97-5.44l2.02.44c1.97,1.56-5.68,8.64-6.98,10.49-2.92,4.16-12,18.95-3.68,21.45Z"/>
  <path d="M403.97,647.35l-7.09,37.7c-10.01,2.43-20.63,1.41-30.08-2.38-.4-.16-.79-.33-1.19-.5l1.74-43.34,19.99,4.65,16.63,3.87Z" fill="#fff"/>
  <path d="M502.17,462.61c-32.98,7.95-70.12,8.78-103.54.66l.61-2.53c5.18,1.27,10.49,2.15,15.57,2.88,28.41,4.08,60.25,3.44,87.82-4.42l10.03-45.34,2.3.51-11.05,54.81c3.44.41,4.34-.17,6.3-2.55,1.68-2.06,3.79-5.29,5.96-8.87l2.5.91c-3.37,5.56-7.74,12.36-9.51,13-2.63.97-7.41.76-10.59,1.52-7.31,1.74-15.16,8.21-12.71,15.96l1.19.31c1.8-3.96,6.09-8.3,11.05-7.66.44,2.17-2.27,2.63-3.59,3.86-3.35,3.14-6.67,6.68-7.12,11.39-.34,3.62,1.18,10.01,6.09,9.17.62-1.56,1.82-4.14,4.06-2.79.83.51-.9,4.12-.57,6.01.39,2.21,3.15,4.62,5.55,4.67l-.28,2.85c-2.95-.33-5.19-1.22-7.29-3.96-.68-.9-.63-2.74-1.05-3.13-.37-.35-4.75-.95-6.8-2.62-1.43-1.17-2.79-4.4-3.04-4.53-.2-.11-.83-.12-1.75-.07l-.15-2.68,1.42-.08c-.96-1.55,1.92-7.3,1.72-7.64-.06-.1-1.48-.25-2.01-1.14-1.61-2.69-1.92-5.23-.88-8.22l-9.57,1.29-.34-2.52c5.08-.63,9.2-1.58,11.62-2.92,1.9-1.05,3.64-4.15,6.63-5.81,2.53-1.4,9.83-2.87,10.2-3.25.44-.45.33-5.96,1.22-7.07Z"/>
  <polygon points="399.6 481.75 397 495.5 380.2 491.07 383.64 476.31 399.6 481.75" fill="#fff"/>
  <path d="M394.09,221.95c-1.96-10.07-4.72-21.73.58-31.23l2.63.62c-4.15,8.48-1.16,23.48.29,31.16l9.6-.14.06,2.9-27.04.6-.06-2.81,13.94-1.1Z"/>
  <path d="M396.42,498.25l-4.03,17.3c-1.06.74-4.42-.19-7.95-1.48-3.9-1.43-8.01-3.29-9.48-3.83l4.03-17.48.62.19,16.81,5.3Z" fill="#fff"/>
  <path d="M395.25,702.7l.86,13.15c-3.7,4-9.69,5.75-14.79,7.69l1.73-19.19,12.2-1.65Z" fill="#fff"/>
  <path d="M394.1,777.81c5.99-1.14,14.86,13.18,14.57,17.27-.14,2-1.44,2.76-2.89,1.03-1.53-1.82-3.3-7.4-5.39-10.26-1.58-2.14-4.34-3.98-5.53-5.46-.63-.78-.85-1.62-.76-2.58Z"/>
  <path d="M394.67,190.72c-5.3,9.5-2.54,21.16-.58,31.23l-13.94,1.1c-.68-13.04,1.15-25.77,14.52-32.33Z" fill="#fff"/>
  <path d="M505.07,240.32c.59,2.69-.42,6.96,0,9.87l31.96-.83-10.26-30.19c-12.32,1.68-24.26,7.88-29.83,18.67l7.15,1.09c.39.11.91,1.07.98,1.39ZM543.42,278.96l-5.88-26.23-32.37,1.65.48,26.23,37.77-1.65ZM508.54,154.55l-13.95-3.07-3.2,15.14,14.84,3.81,2.31-15.88ZM487.72,184.61l16.19,7.2,1.47-17.57-15.42-4.12-2.24,14.49ZM478.32,273.19c-4.74.99-9.48-10.46-10.26-13.84-.99-4.25-.75-7.83-.83-12.1-16.15-3.84-32.95-6.63-49.62-7.74-8.29-.55-18.73-1.09-27.8-.89l-.06-2.84c38.04-.91,76.85,4.46,111.83,18.52l.48-10.87c-6.54-2.8-13.25-5.19-20.08-7.24l.87-2.85,11.17,3.42c5.74-11.29,18.32-18.9,31.39-20.29-2.46-4.98-13.19-18.71-18.89-19.21-1.74-.15-3.41-.09-5,.18l-.42-2.4c.52,0,.62.2.49-1.03-10.43-3.78-17.51-10.14-27.37-6.55l-.77-2.54c.28-.08.55-.17.83-.25-1.15-1.39-4.35-1.59-6.28-2.01-13.76-3-22.24-4.52-31.16,7.54-1.23,1.66-2.02,2.98-2.53,4.12l-2.46-.87c1.42-5.66,6.99-9.62,11.05-13.7-6.78.11-20.27.7-30.72,3.03-2.47.54-4.77,1.19-6.77,1.95l-1.05-2.72c3-1.19,5.95-2.12,8.66-2.77,23.18-5.58,48.56-2.67,71.13,3.8,2.09-12.09,4.91-24.05,8.35-35.84l2.7.75,13.93,3.84,1.8-8.1,2.86.64c-3.74,16.28-5.32,33.04-6.88,49.59,12.21,4.96,19.84,17.04,25.18,28.04,6.65-11.31,18.21-15.97,31.02-10.08.67.3,4.08,2.97,4.64,2.97l2.78.97c-.49,1.28-.92,2.59-1.28,3.94-3.86-1.73-6.38-5.02-10.74-6.28-11.1-3.22-22.11,3.39-24.36,13.62,5.66,18.98,10.86,38.26,13.34,57.9l-2.93.46-.59-3.72-38.81,2.24c-4.42,7.14-4.68,14.09-5.06,21.77l-2.6-.12c.01-.2.02-.41.02-.62v-9.05c-.58.69-1.95,1.6-3.16,2.43l-2.45-1.6c11.87-7.57,16.88-33.6-1.5-31.4-6.01.72-10.28,7.43-12.09,7.8Z"/>
  <path d="M431.66,258.84c-5.86.45-7.5,14.31-.67,14.4,7.51.1,7.19-14.9.67-14.4ZM417.18,256.91c1.04,1.91,4.74,1.31,6.76,1.16,3.37-.27,25.58-4.19,27.52-5.29,5.12-2.89-3.13-6.17-6.93-6.03-7.1.26-16.48,3.99-23.51,4.22-1.38.04-5.26-2.51-5.31.76,0,.27,1.32,4.89,1.47,5.18ZM397.76,310.13c5.14-3.95,12.29-4.8,18.72-4.32,3.31.25,15.95,4.99,16.54,4.4,2.94-2.94-7.39-5.56-9.05-5.98-7.67-1.93-15.28-2.56-22.78.34-2.4.93-8.11,3.64-3.43,5.56ZM384.86,250.68c1.61,2.83,17.56,7.2,21.02,6.24,1.81-.5,4.43-3.2,2.13-5.07-2.28-1.84-18.39-8.41-21.04-7.86-3.11.64-3.4,4.42-2.11,6.69ZM399.66,264.21c-9.84,11.46-20.43,36.1,7.08,29.7,1.25-.29,14.98-5.09,9.65-6.68-6.34,1.2-13.59,5.97-20.4,3.92-8.32-2.5.76-17.29,3.68-21.45,1.3-1.85,8.95-8.93,6.98-10.49l-2.02-.44c-1.05,2.28-3.36,3.58-4.97,5.44ZM387.87,270.58c6.51,4.91,11.05-12.88,4.05-14-6.39-1.03-7.71,11.24-4.05,14ZM481.25,285.54c1.51,1.46,8.3-6.63,9.87-7.95,1.26-1.05,5.7-2.67,4.97-4.12-1.32-2.59-6.65,1.12-8.14,2.22-1.52,1.13-8.5,8.1-6.7,9.85ZM467.23,247.25c.08,4.27-.16,7.85.83,12.1.78,3.38,5.52,14.83,10.26,13.84,1.81-.37,6.08-7.08,12.09-7.8,18.38-2.2,13.37,23.83,1.5,31.4-1.16.74-2.39,1.31-3.67,1.65-6.4,1.73-.17-2.59.32-4.1,1.73-5.37-4.92-5.86-8.93-4.57-9.7,3.12-13.15,16.94-8.73,25,1.44,2.64,3.58,3.26,5.07,5.54-1.04,12.15-4.82,19.08-15.45,25.98-13.65,8.85-37.97,9.14-42.6-8.66,13.61,1.51,41.7-7.67,49.12-18.62,1.43-2.11.64-3.51-1.92-2.36-1.29.58-6.86,6.06-9.36,7.62-19.5,12.16-46.53,14.07-65.16-.62-16.63-13.12-17.11-36.76-14.94-58.39.91-9.02,2.28-17.7,3.12-25.11.51-.98,3.44-1.13,4.55-1.22,2.04-.16,4.22-.25,6.48-.31,9.07-.2,19.51.34,27.8.89,16.67,1.11,33.47,3.9,49.62,7.74Z" fill="#fff"/>
  <path d="M391.92,256.58c7,1.12,2.46,18.91-4.05,14-3.66-2.76-2.34-15.03,4.05-14Z"/>
  <path d="M391.69,518.59l-2.86,17.98c-2.12-.02-4.27-.14-6.4-.4-4.47-.54-8.84-1.73-12.62-4.06l4.53-19.62,9.48,3.33,7.87,2.77Z" fill="#fff"/>
  <path d="M384.86,250.68c-1.29-2.27-1-6.05,2.11-6.69,2.65-.55,18.76,6.02,21.04,7.86,2.3,1.87-.32,4.57-2.13,5.07-3.46.96-19.41-3.41-21.02-6.24Z"/>
  <path d="M473.61,651.54l-.87-.83c-21.82.99-43.54.28-65.2-2.19l-9.92,48.69-2.54-.52c.53-2.75.66-6.84,1.34-8.78-10.52,1.97-21.41,1.17-31.09-3.28l1.47-1.96c9.45,3.79,20.07,4.81,30.08,2.38l7.09-37.7-16.63-3.87.52-2.24c32.38,7.69,70.53,8.54,101.63,4.28,3.59-.49,15.2-2.56,24.98-5.27l.88,2.77c-12.62,4.16-26.04,5.96-39.33,7.07l.18.95-2.59.5Z"/>
  <path d="M365.33,684.63c9.68,4.45,20.57,5.25,31.09,3.28-.68,1.94-.81,6.03-1.34,8.78-.18.91-.4,1.68-.71,2.17-2.91,4.65-27.69,2.56-30.85-3.54l1.81-10.69Z" fill="#fff"/>
  <path d="M397.81,334.02c-5.64,1.43-11.01,3.56-16.2,6.03-4.38,2.09-8.62,4.41-12.8,6.78-5.07-5.59-7.86-13.61-6.69-20.89.49-.93,6.65-.45,7.85-.37.5.03,1.02.07,1.56.1,8.11.56,20.22,1.75,26.01,6.23.67.52,1.41.89,1.2,1.88-.31.07-.62.15-.93.24Z" fill="#fff"/>
  <path d="M460.2,577.33c1.18-.37,5.36-1.95,5.36-3.17h2.92c-.91,6.48-12.63,7.36-18.33,7.94-12.69,1.29-55.7,1.28-63.92-8.74-4.86-5.92,1.56-25.97,2-33.67-.17-.47-3.13-.86-6.11-1.22l.31-2.3c2.13.26,4.28.38,6.4.4l2.86-17.98-7.87-2.77.62-1.75c3.53,1.29,6.89,2.22,7.95,1.48l4.03-17.3-16.81-5.3.59-1.88,16.8,4.43,2.6-13.75-15.96-5.44-2.52-.73.19-.64v-10.96c-.69-.62-1.75-.83-2.92-.83l.05-2.78,2.87.05c-.39-5.87-.16-12.16-.35-18.15l2.72-.09c.18,6.36.36,12.5.82,13.3,4.53,2.32,9.57,3.99,14.74,5.26l-.61,2.53c-4.69-1.14-9.31-2.45-13.83-3.95v11.78c0,.21-.57.75-.19,1.21,1.36,3.42,26.05,7.93,32.01,8.78l-.44,2.9-13.44-1.33c-5.04,24.24-10.87,48.76-13.53,73.2l18.83,4.32,8.01-75.01,2.54.27-7,75.78,26.66,2.25v-77.29h2.32v77.29s24.75-2.17,24.75-2.17l.24,2.72c-25.55,4.28-52.5,2.71-76.98-5.49-.59,4.57-2.88,10.94,1.83,14.17,10.87,7.44,57.09,8.6,69.79,4.63Z"/>
  <path d="M373.47,418.22c1.19,2.82,5.21,7.06,6.05,9.62.73,2.24,1.03,7.71,1.23,10.35.1,1.34.17,2.7.21,4.08.19,5.99-.04,12.28.35,18.15l-2.87-.05-1.13-.02-12.84-32.07,9-10.06Z" fill="#fff"/>
  <path d="M368.81,346.83c4.18-2.37,8.42-4.69,12.8-6.78l1.21,2.58c-2.39,1.09-2.93,3-2.93,5.34h-2.65v-2.13c-10.83,5.61-19.68,14.32-27.31,23.97l-2.32-1.88c5.48-6.96,11.41-13.38,18.55-19.15-5.05-6.39-8-13.75-7.5-21.84l7.67-24.67,2.84.88-5.87,19.12,8.44.63-.21,2.77c-.54-.03-1.06-.07-1.56-.1-1.2-.08-7.36-.56-7.85.37-1.17,7.28,1.62,15.3,6.69,20.89Z"/>
  <path d="M369.07,498.58c-1.47-2.33-3.28-.55-6.09-1.41-3.78-1.16-7.18-5.62-8.93-9.99-.81-2.02-1.27-4.01-1.26-5.66.04-7.58,12.29-15.41,19.67-17.39.24-.06.47-.12.7-.17,1.37-.3,3.43-.81,5.23-.81,1.17,0,2.23.21,2.92.83v10.96l-.19.64-10.08,34.76c-3.76-.1-9.12-2.11-8.94-6.33.21-4.91,5.5-1.66,6.97-5.43Z" fill="#fff"/>
  <path d="M374.06,303.62c1.93,7.57,5.65,14.65,11.32,20.29l-13.64-1.01-8.44-.63,5.87-19.12,4.89.47Z" fill="#fff"/>
  <path d="M375.5,220.32c1.83,7.22-.35,13.52,0,20.83l-4.71.82-6.33,1.1-8.12,5.74c-.17-1.62-1.97-2.03-2.33-3.57-.32-1.4-.43-3.05-.43-4.83,0-5.78,1.19-12.99.42-17.91l21.5-2.18Z" fill="#fff"/>
  <polygon points="372.59 197.83 374.34 217.57 354 219.22 353.82 208.48 353.67 199.99 372.59 197.83" fill="#fff"/>
  <polygon points="372.02 294.87 373.17 300.34 370.85 300.34 372.02 294.87" fill="#fff"/>
  <polygon points="369.1 177.55 372.01 195.09 353.42 196.74 352.49 180.26 369.1 177.55" fill="#fff"/>
  <path d="M360.99,695.2l3.39-57.41c-.5-1.6-18.09-5.82-15.64-11.56,5.57-30.66,10.25-61.5,17.04-91.92l2.75.65-16.32,92.96c1.22,2.01,13.76,6.7,16.76,7.77,5.99,2.14,12.32,3.99,18.89,5.55l-.52,2.24-19.99-4.65-1.74,43.34c.4.17.79.34,1.19.5l-1.47,1.96-1.81,10.69-2.53-.12Z"/>
  <path d="M383,427.85c.37,2.08.52,8.3.68,14.33l-2.72.09c-.04-1.38-.11-2.74-.21-4.08-.2-2.64-.5-8.11-1.23-10.35-.84-2.56-4.86-6.8-6.05-9.62l-9,10.06,12.84,32.07,1.13.02-.05,2.78c-1.8,0-3.86.51-5.23.81-.23.05-.46.11-.7.17l-.74-2.46c.88-.27,1.76-.51,2.62-.72-.82-1.63-3.73-10.7-4.63-11.24-1.01-.61-2.34-.82-3.88-.7l-.14-2.24c.93-.08,1.87-.1,2.83-.06l-8.05-19.95,11.96-12.18c-3.54-10.9-6.39-23.35-1.28-34.2,3.41-.74.37,8.92.26,10.67-.5,8.22,1.5,17.42,4.97,24.95,1.6,3.48,6.07,8.72,6.62,11.85Z"/>
  <polygon points="363.91 156.41 367.95 174.81 352.24 176.77 349.99 158.97 363.91 156.41" fill="#fff"/>
  <path d="M349.93,479.05c-.9.6-7.75-8.5-8.02-9.72-1.6-7.32,14.78-19.59,23.92-20.32,1.54-.12,2.87.09,3.88.7.9.54,3.81,9.61,4.63,11.24-.86.21-1.74.45-2.62.72-9.05,2.77-18.91,8.9-21.79,17.38Z" fill="#fff"/>
  <path d="M335.99,707.1c7.93-2.42,10.4-4.11,18.09.2,7.43,4.16,13.17,11.75,13.82,20.03l-12.17,2.54c-.97-.66-.46-5.22-.83-6.9-2.15-9.7-10.63-12.07-18.91-15.87Z" fill="#fff"/>
  <path d="M345.93,138.69c2.28-.11,10.73-3.46,12.16-2.56l4.95,17.31-13.71,2.51-3.4-17.26Z" fill="#fff"/>
  <polygon points="351.09 117.25 356.91 133.15 344.67 135.67 340.33 121.06 351.09 117.25" fill="#fff"/>
  <path d="M351.55,488.17l2.5-.99c1.75,4.37,5.15,8.83,8.93,9.99,2.81.86,4.62-.92,6.09,1.41-1.47,3.77-6.76.52-6.97,5.43-.18,4.22,5.18,6.23,8.94,6.33l10.08-34.76,2.52.73-3.44,14.76-.59,1.88-.62-.19-4.03,17.48c1.47.54,5.58,2.4,9.48,3.83l-.62,1.75-9.48-3.33-4.53,19.62c3.78,2.33,8.15,3.52,12.62,4.06l-.31,2.3c-2.32-.28-4.65-.54-5.71-.8-2.78-.68-5.1-2.13-7.88-2.71l-2.75-.65c1.57-7.02,3.25-14.02,5.08-20.99-7.73-.85-14.82-6.19-10.47-13.97-5.3-2.03-7.04-6.79-8.84-11.18Z"/>
  <path d="M351.09,240.41v-31.88l2.73-.05.18,10.74,20.34-1.65-1.75-19.74,2.89-.43c.62,4.17,1.21,8.33,1.77,12.49.92-1.83.6-4,1.32-6.14,3.26-9.76,14.86-17.43,25.79-21.74l1.05,2.72c-2.18.82-4,1.78-5.3,2.89-1.17,1-2.1,2.27-2.81,3.72l-2.63-.62c-13.37,6.56-15.2,19.29-14.52,32.33l.06,2.81-1.22,10.35c3.58-.2,7.16-.34,10.76-.43l.06,2.84c-2.26.06-4.44.15-6.48.31-1.11.09-4.04.24-4.55,1.22-.84,7.41-2.21,16.09-3.12,25.11l-2.79-.28,1.99-19.64c-.37-.92-1.87-.99-3.61-.7l-.46-2.67,4.71-.82c-.35-7.31,1.83-13.61,0-20.83l-21.5,2.18c.77,4.92-.42,12.13-.42,17.91h-2.49Z"/>
  <path d="M351.09,244.43c-11.29-3.54-20.44,3.77-24.69,13.14-13.32-8.99-29.11,1.57-31.09,15.37-2.16-.47-4.29-.7-6.32-.61-4.26.17-8.13,1.71-11.09,5.28-1.79,2.16-2.88,6.96-5.02,7.22l-50.82-.07c-.84-8.56-5.04-16.67-6.66-24.96-2.49-12.74,2.95-26.95.55-40.05,19.79-6.66,38.61-19.57,58.14-27.53,2.89-1.18,5.79-2.25,8.72-3.17,27.16-8.57,42.87,6.67,65.55,16.76.58.25,1.17.51,1.76.76.3.24.97,1.71.97,1.96v35.9Z" fill="#fff"/>
  <path d="M350.51,203.87l-2.15,1.94c-22.68-10.09-38.39-25.33-65.55-16.76-2.93.92-5.83,1.99-8.72,3.17l-1.11-2.68c6.61-2.71,14.46-5.91,21.48-6.49,20.44-1.7,38.89,12.46,56.05,20.82Z"/>
  <path d="M326.51,711.03c10.94-4.87,28.47,7.78,25.75,19.64-7.25.43-14.43.22-21.5-1.66.27-2.11,1.82-4.92,3.78-6.02,2.44-1.38,6.72-.45,6.59-2.56-.31-5.03-14.43,2.79-13.29,7.5-5-.83-3.95-3.41-1.63-6.76,1.27-1.84,3.63-2.13,3.38-4.21-5.16-.66-6.1,3.77-7.85,7.12-5.67-2.46-.8-7.23,3.2-8.5.61-1.76-1.85-1.77-1.73-2.18.13-.44,2.66-2.08,3.3-2.37Z" fill="#fff"/>
  <path d="M321.33,774.13c3-.3,6.56-.14,9.43.66,5.35,1.48,16.22,9.3,12.81,15.38-2.84,5.06-23.09,5.17-28.78,4.62-23.03-2.23-6.51-19.36,6.54-20.66ZM340.38,788.22c-1.59-7.37-11.28-11.83-19.06-10.81-5.56.72-12.55,5.11-14.84,10.07-.09.96.63,1.8,1.4,2.32,4.04,2.74,30.33,2.62,32.5-1.58Z"/>
  <path d="M324.95,505.37c-1.71-1.83,4.08-10.11,7.55-8.77.69.6-5.14,7.86-5.78,8.4s-.97.39-1.77.37Z"/>
  <path d="M340.38,788.22c-2.17,4.2-28.46,4.32-32.5,1.58-.77-.52-1.49-1.36-1.4-2.32,2.29-4.96,9.28-9.35,14.84-10.07,7.78-1.02,17.47,3.44,19.06,10.81Z" fill="#fff"/>
  <path d="M318.97,363.33c1.27-2.04,2.4-4.33,3.65-6.81.23-.45-.21-.88.5-.88.15,0,.37.02.66.07,1.99,4.76,3.25,8.16.7,12.99-2.82,5.36-15.99,13.48-18.68,4.27,6.93-1.78,10.39-5.13,13.17-9.64Z" fill="#fff"/>
  <path d="M395.25,702.7l-12.2,1.65-1.73,19.19c5.1-1.94,11.09-3.69,14.79-7.69l-.86-13.15ZM335.99,707.1c8.28,3.8,16.76,6.17,18.91,15.87.37,1.68-.14,6.24.83,6.9l12.17-2.54c-.65-8.28-6.39-15.87-13.82-20.03-7.69-4.31-10.16-2.62-18.09-.2ZM322.33,714.22l.29-.27-.29-.28v.55ZM321.74,724.08c1.75-3.35,2.69-7.78,7.85-7.12.25,2.08-2.11,2.37-3.38,4.21-2.32,3.35-3.37,5.93,1.63,6.76-1.14-4.71,12.98-12.53,13.29-7.5.13,2.11-4.15,1.18-6.59,2.56-1.96,1.1-3.51,3.91-3.78,6.02,7.07,1.88,14.25,2.09,21.5,1.66,2.72-11.86-14.81-24.51-25.75-19.64-.64.29-3.17,1.93-3.3,2.37-.12.41,2.34.42,1.73,2.18-4,1.27-8.87,6.04-3.2,8.5ZM314.05,721.2c3.57-15.62,33.99-19.86,46.94-26l2.53.12c3.16,6.1,27.94,8.19,30.85,3.54.31-.49.53-1.26.71-2.17l2.54.52-.32,1.59c1,6.02,4.91,21.5,1.14,26.37-4.75,6.13-42.33,14.32-51.1,14.83-12.4.73-37.14-1.9-33.29-18.8Z"/>
  <path d="M334,393.04c-7.04,11.18-13.64,19.45-13.39,33.24.11,6.31,2.58,12.86,5.93,19.17l-2.19.99c-9.95-14.96-8.33-28.9-.08-43.95,4.72-8.6,12.13-19.36,17.98-27.44,1.75-2.43,3.53-4.81,5.36-7.12l2.32,1.88c-5.93,7.51-11.12,15.59-15.93,23.23Z"/>
  <polygon points="322.62 713.95 322.33 714.22 322.33 713.67 322.62 713.95" fill="#fff"/>
  <path d="M320.59,653.03c.75.01,2.23.86,2.03,1.71-3.02.31-7.94,10.13-9,10.13-3.81-.04,2.71-11.9,6.97-11.84Z"/>
  <path d="M329.59,578.27c-.42.27-8.15-5.05-9.29-3.83-2.29,2.45,5.11,4.76,6.76,6.23,10.39,9.28-6.5,9.59-12.28,14.04.33-5.83-2.11-3.06-6.1-2.19l1.74-2.99-3.47-.56c2.06-2.74,4.03-1.12,5.99-1.42.91-.14,12.62-2.01,6.79-3.55-11.37,1.92-17.65-5.76-11.89-15.56,7.14-12.14,28.39-3.51,21.75,9.83Z" fill="#fff"/>
  <path d="M322.62,492.76c-.77,1.88-1.62,3.4-2.06,5.45-.34,1.6-.47,9.18-2.28,8.8-1.77-.38-1.69-16.39,4.34-14.25Z"/>
  <path d="M370.86,284.76l-92.97-.31c1.2-4.74,5.83-9.09,11.16-9.36.25,0,.49-.02.74,0,2.85.07,5.07,2.06,7.89,1.47,1.12-10.57,8.72-20.64,21.11-18.91,3.73.52,7.64,5.12,9.86,4.28.43-.17,2.51-6.47,3.62-8.12,6.18-9.21,17.82-8.55,24.93-.58,2.97-2,4.17-4.79,7.62-6.53.93-.46,3.93-1.63,6.43-2.05,1.74-.29,3.24-.22,3.61.7l-1.99,19.64-2,19.78h-.01Z" fill="#fff"/>
  <path d="M307.53,347.21c.03-.45,7.31-4.46,8.68-3.29,5.55,5.3,4.43,12.52.23,18.1-3.94,5.25-10.6,9.04-16.97,8.41-1.83-4.84.05-5.21,2.82-5.38,1.21-.07,2.58-.1,3.9-.45,9.07-2.38,6.79-12.55,1.34-17.39Z" fill="#fff"/>
  <path d="M320.78,558.85c.52.78,1.02,1.44,1.56,1.88.99.81,4.43,1.2,6.29,2.28,4.95,2.88,6.45,7.98,5.47,13.21-.3,1.6-2.22,4.14-2.17,5.09.09,1.8,4.08,3.49,1.15,7.66-1.53,2.18-18.82,9.93-21.14,9.46-1.41-.12-1.42-2.49-1.55-2.59-1.07-.77-9.25,4.12-7.53-2.77l-1.75.32c-1.92-1.33,1.06-4.89.59-5.25-.55-.12-1.04-.19-1.49-.23l.18-2.32c1.81.14,3.57-.43,5.39-1.01l-3.51-9.35c-.11-5.35,5.87-14.24,11.64-15.37,1.79-.35,3.78,1.25,4.64-.76l2.23-.25ZM319.73,584c5.83,1.54-5.88,3.41-6.79,3.55-1.96.3-3.93-1.32-5.99,1.42l3.47.56-1.74,2.99c3.99-.87,6.43-3.64,6.1,2.19,5.78-4.45,22.67-4.76,12.28-14.04-1.65-1.47-9.05-3.78-6.76-6.23,1.14-1.22,8.87,4.1,9.29,3.83,6.64-13.34-14.61-21.97-21.75-9.83-5.76,9.8.52,17.48,11.89,15.56Z"/>
  <path d="M307.01,664.81c-2.27-3.18,1.44-21.4,6.01-20.21.53.14,1.18,1.08.65,1.68-4.01,2.3-3.69,17.93-4.41,18.61-.08.07-1.99.09-2.25-.08Z"/>
  <path d="M309.67,494.57c1.41.93,5.76,8.94,5.88,10.67.12,1.67-1.12,2.62-2.38,1.07-1.24-1.53-2.67-5.6-4.01-7.71-1.06-1.67-3.4-2.31-2.8-4.74,1.21-.08,2.28.03,3.31.71Z"/>
  <path d="M273.51,304.2c-4.71-.2-10.02-2.89-15.09-2.8-2.11.04-11.6,2.3-12.92,3.47-.35.31-.47.9-.65,1.32.15,2.72,6.65-.73,8.7-1.11,9.25-1.72,13.91,2.13,21.75,1.87,6.66-.23,11.11-3.5,18.49-2.7,4.24.45,8.19,2.74,12.86,2.72,5.18-.03,10.73-3.02,15.69-3.33,2.46-.15,9.6,2.13,9.59-.28,0-2.26-8.51-2.58-10.2-2.48-5.16.29-10.21,3.43-15.67,3.34-4.84-.08-9.68-3.11-14.52-3.2-6.05-.11-11.64,3.47-18.03,3.18ZM268.59,416.01c.84.72,7.4-1.95,9.05-2.14,8.49-.98,14.11,3.7,22.56,2.64,2.27-.28,7.08-1.49,6.15-4.33-10.35,4.78-18.29-2.06-28.75-1.09-2.61.24-9.19,1.59-9.01,4.92ZM239.54,330.49c9.49-3.22,18.54,1.74,27.61,1.12,1.55-.11,8.96-1.98,9.49-2.83.45-.72.11-2.15-.78-2.65-9.56,5.91-18.65.05-28.5.51-2.58.12-8.87.45-7.82,3.85ZM205.3,411.3c26.81,18.46,50.02.22,70.26-16.94,1.92-1.62,10.29-10.62,11.01-10.96.37-.18,6.41.33,8.29.11,4.52-.52,8.99-3.79,11.32-4.12,1.64-.23,3.97,1,6.11.87,9.17-.53,17.37-9.83,16.74-18.26-.34-4.52-2.05-6.02-3.79-8.19-.58-.72-1.16-1.52-1.7-2.53-1.63-3.07-1.75-7.15-4.98-9.81,6.94-1.34,21.65-7.81,19.73-16.17-1.65-7.2-17.67-1.67-22.36-.3-21.56,6.32-26.41,12.12-43.33,23.81-9.88,6.83-21.89,11.97-33.26,16.17l-4.93-5.67-26.79-30.81c6.03-7.17,14.48-21.42,14.48-30.62v-10.14h148.75l-4.52,14.53-7.67,24.67c-.5,8.09,2.45,15.45,7.5,21.84-7.14,5.77-13.07,12.19-18.55,19.15-1.83,2.31-3.61,4.69-5.36,7.12-5.85,8.08-13.26,18.84-17.98,27.44-8.25,15.05-9.87,28.99.08,43.95l-18.12,3.17-10.91,4.23.13-1.4.46-4.81c-4.91-3.22-9,4.15-12.21,6.75,3.78-16.04-3.12-17.33-7.94-10.81-1.96,2.65-3.58,6.6-3.98,11.37-.88.23-3.6-13.2-12.08-10.85-6.13,1.7.27,12.54.75,16.32-4.63-2.33-12.8-5.06-16.3-.25-.7,3.62,8.01,8.26,9.33,11.76-20.91-1.51-40.92-8.74-62.09-8.3-.31-2.99-3.95-8.17-4.15-10.67-.11-1.37.2-3.2.59-5.28.96-5.04,2.47-11.48-.06-16.03l5.87-29.88c.48-.32,5.65,4.33,8.99,7.28,1.27,1.12,2.28,1.99,2.67,2.26ZM212.81,437.94c4.54-.92,8.26-2.17,13.07-1.65,6.54.71,13.28,6.22,20.45,1.76,7.41-4.6-3.46-1.35-4.22-1.25-6.94.94-12.19-3.67-19.51-3.46-2.78.08-10.7,1.01-9.79,4.6Z" fill="#fff"/>
  <path d="M323.19,100.53c-.22-1.75-7.49-1.46-8.98-1.35-17.53,1.22-36.01,15.74-46.2,28.49.43-24.42,25.89-42.28,50.71-40.13l1.59-1.81c0-2.31-8.48-6.13-10.66-6.95-14.52-5.41-31.61-4.03-45.71,1.75,10.71-17.93,43.13-23.92,60.62-11.97,2.23,1.53,3.8,4.4,6.37,4.78,3.28-.7-.35-8.25-1.24-10.17-4.59-9.92-11.43-14.03-20.43-19.91,15.6-4.83,27.03.17,32.26,14.78.77,2.14.85,10.7,4.64,7.69.4-.32,2.65-4.49,3.79-5.74,10.96-12.06,32.28-18.12,47.05-9.07-13.62,2.25-34.76,11.88-41.14,23.96-4.88,9.24,5.71,2.85,10.1,1.85,21.86-4.98,46.4,6.22,47.88,29.01-11.59-11.18-26.68-16.18-43.27-14.78-1.86.15-10.31,1.29-10.06,3.56.09.8,10.6,4.65,12.47,5.65,18.33,9.76,27.06,29.63,21.11,48.88-5.06-11.73-12.24-22.3-22.35-30.71-4.27-3.55-19.7-13.77-24.96-13.65-.59.02-2.41.28-2.08,1.31l4.65,8.51-10.43,3.28c-.95-1.73-2.86-10.17-5.46-9.81-12.92,9.79-22.16,22.91-28.54,37.25-1.3,2.92-2.02,6.44-3.2,9.04-.28.62.41,1.04-1.17.81-5.84-20.05,3.32-42.62,21.98-53.54l.66-1.01Z" fill="#fff"/>
  <path d="M292.5,649.16c-.35-.73.11-1.56.85-1.79,4.12-1.27,13.92,17.2,9.8,18.06-1.29.27-4.63-8.74-5.73-10.48-1.4-2.21-3.11-3.9-4.92-5.79Z"/>
  <path d="M295.31,272.94c1.98-13.8,17.77-24.36,31.09-15.37,4.25-9.37,13.4-16.68,24.69-13.14v-4.02h2.49c0,1.78.11,3.43.43,4.83.36,1.54,2.16,1.95,2.33,3.57l8.12-5.74,6.33-1.1.46,2.67c-2.5.42-5.5,1.59-6.43,2.05-3.45,1.74-4.65,4.53-7.62,6.53-7.11-7.97-18.75-8.63-24.93.58-1.11,1.65-3.19,7.95-3.62,8.12-2.22.84-6.13-3.76-9.86-4.28-12.39-1.73-19.99,8.34-21.11,18.91-2.82.59-5.04-1.4-7.89-1.47-.25-.01-.49,0-.74,0l-.06-2.76c2.03-.09,4.16.14,6.32.61Z"/>
  <path d="M288.99,272.33l.06,2.76c-5.33.27-9.96,4.62-11.16,9.36l92.97.31v2.98h-97.98v-2.91c2.14-.26,3.23-5.06,5.02-7.22,2.96-3.57,6.83-5.11,11.09-5.28Z"/>
  <path d="M324.35,446.44l2.19-.99c3.79,7.16,8.72,14.02,12.65,19.89,5.37-9.2,14.98-17.72,26.5-18.57l.14,2.24c-9.14.73-25.52,13-23.92,20.32.27,1.22,7.12,10.32,8.02,9.72,2.88-8.48,12.74-14.61,21.79-17.38l.74,2.46c-7.38,1.98-19.63,9.81-19.67,17.39-.01,1.65.45,3.64,1.26,5.66l-2.5.99c-.6-1.46-1.21-2.88-1.96-4.14-1.68-2.83-5.77-6.42-7.92-9.52-5.55-7.99-10.93-16.05-16.14-24.24-4.5-2-25.8,3.74-29.84,6.94-3.38,2.68-4.33,11.27-7.1,14.68-1.33,1.63-3.27,1.66-2.89-.52.92-5.27,6.55-12.63,7.25-19.17l2.5.24-.13,1.4,10.91-4.23,18.12-3.17Z"/>
  <path d="M277.91,541.88c.26-.78,2.53-1.26,3.32-1.29,3.48-.16,4.81,2.12,4.83,5.06.04,7.31-8.34.49-8.15-3.77Z"/>
  <path d="M281.36,442.87c-1.36-.12-2.23.55-2.88,1.5l-2.72-.8c4.82-6.52,11.72-5.23,7.94,10.81,3.21-2.6,7.3-9.97,12.21-6.75l-.46,4.81-2.5-.24c.08-.75.09-1.48.03-2.2-4.22,2.06-7.2,6.74-9.39,10.59-1,1.78-2.62,8.55-4.83,8.04l2.6-25.76Z"/>
  <path d="M317.98,327.48c-18.64,5-30.28,13.99-43.43,22.94l-1.95-1.61c16.92-11.69,21.77-17.49,43.33-23.81,4.69-1.37,20.71-6.9,22.36.3,1.92,8.36-12.79,14.83-19.73,16.17,3.23,2.66,3.35,6.74,4.98,9.81.54,1.01,1.12,1.81,1.7,2.53l-2.12,1.83c-.71,0-.27.43-.5.88-1.25,2.48-2.38,4.77-3.65,6.81l-2.53-1.31c4.2-5.58,5.32-12.8-.23-18.1-1.37-1.17-8.65,2.84-8.68,3.29,5.45,4.84,7.73,15.01-1.34,17.39-1.32.35-2.69.38-3.9.45l-.1-2.22c.12,0,.24-.01.36-.02,1.26-.09,4.8-1.96,5.56-2.98,2.94-3.96-.64-8.56-3.81-11.23-1.88-1.58-9-4.51-9.3-4.93-.45-.65-.25-1.49-.27-2.21,3.36-1.56,8.22,3.31,10.17,3.26,1.45-.04,24.37-10.63,26.13-12.05,2.12-1.7,6.86-7.54,1.73-8.21-1.88-.25-12.24,2.35-14.78,3.02Z"/>
  <path d="M268.59,416.01c-.18-3.33,6.4-4.68,9.01-4.92,10.46-.97,18.4,5.87,28.75,1.09.93,2.84-3.88,4.05-6.15,4.33-8.45,1.06-14.07-3.62-22.56-2.64-1.65.19-8.21,2.86-9.05,2.14Z"/>
  <path d="M270.7,579.08l-3.87,11.24c-2.74-5.88-5.04-3.35-8.12.56l.89-4.96-4.38.02c.16-3.25,6.08-1.3,6.9-3.66l-.5-9.49,9.08,6.29Z" fill="#fff"/>
  <path d="M277.91,541.88c-.19,4.26,8.19,11.08,8.15,3.77-.02-2.94-1.35-5.22-4.83-5.06-.79.03-3.06.51-3.32,1.29ZM270,554.71l.26-2.14c-1.46-.44-10.41-2.58-9.8.21l9.54,1.93ZM261.65,536.92c4.89-3.43,7.36.79,11.24.23,3.66-.53,4.33-4.88,11.98-3.02,4.65,1.13,3.83,4.47,5.55,6.82.58.79,3.71,2.93,4.89,4.16,1.03,1.06,1.33,3.02,2.35,3.82,1.79,1.41,9.36,1.98,12.57,3.48,3.55,1.66,5.23,4.73,8.32,6.69-.86,2.01-2.85.41-4.64.76-5.77,1.13-11.75,10.02-11.64,15.37l3.51,9.35c-1.82.58-3.58,1.15-5.39,1.01-.82-.07-1.66-.28-2.52-.71-.89-1.08,3.09-15.85-2.56-15.38-.27,3.44.37,7.31,0,10.69-.54,4.94-2.88,13.47-6.96,16.72-.16-1.35.76-4.91-1.46-4.96l-7.26,4.41,1.74-6.03-4.36,1.09c.27-3.37,7.26-2.16,9.25-5.52,1.37-2.32,1.59-15.82-1.11-15.84-3.06,2.58.15,7.82-.88,11.5-11.94-3.89-21.95-11.89-29.04-21.66,7.12,2.08,14.8,3.99,22.39,3.6,2.66-.14,8.05-.28,7.23-3.86-10.78,2.45-23.24.42-33.07-4.17-.4-1.53,5.16-6.45,5.9-8.04,1.59-3.41.12-7.81,3.97-10.51Z" fill="#fff"/>
  <path d="M266.83,590.32l3.87-11.24-9.08-6.29.5,9.49c-.82,2.36-6.74.41-6.9,3.66l4.38-.02-.89,4.96c3.08-3.91,5.38-6.44,8.12-.56ZM272.89,537.15c-3.88.56-6.35-3.66-11.24-.23-3.85,2.7-2.38,7.1-3.97,10.51-.74,1.59-6.3,6.51-5.9,8.04,9.83,4.59,22.29,6.62,33.07,4.17.82,3.58-4.57,3.72-7.23,3.86-7.59.39-15.27-1.52-22.39-3.6,7.09,9.77,17.1,17.77,29.04,21.66,1.03-3.68-2.18-8.92.88-11.5,2.7.02,2.48,13.52,1.11,15.84-1.99,3.36-8.98,2.15-9.25,5.52l4.36-1.09-1.74,6.03,7.26-4.41c2.22.05,1.3,3.61,1.46,4.96,4.08-3.25,6.42-11.78,6.96-16.72.37-3.38-.27-7.25,0-10.69,5.65-.47,1.67,14.3,2.56,15.38.86.43,1.7.64,2.52.71l-.18,2.32c-5.35-.33-4.46,5.46-7.32,9.18-2.29,2.98-5.59,5.06-7.18.36-3.02,1.6-8.18,4.83-10.17.26l1.18-3.54c-3.31,1.1-4.9-.67-3.81-3.87,1.22-3.54,7.72-3.8,10.2-5.99l-9.58-3.86c-1.93,4.86-2.37,10.77-7.1,14.2l-3.94-3.23c-3.35,5.06-7.52,4.19-6.69-2.19l-4.56-.08c-2.49-4.43,3.03-8.5,7.47-8.14-2.08-2.93.74-10.21.46-11.71-.15-.74-9.04-10.02-10.03-11.87-2.06-4.68,4.31-8.37,5.64-12.19,1.51-4.35.39-7.85,5.71-11.06,6.14-3.69,9.48.6,12.37.12.63-.11,2.78-2.22,4.05-2.72,5.02-2.01,10.33-.94,13.75,3.12,2.07,2.46,6.68,10.28,9.35,12.01,2.63,1.71,9.83,1.64,14.09,4.25,3.41,2.09,5.13,5.55,6.68,7.89l-2.23.25c-3.09-1.96-4.77-5.03-8.32-6.69-3.21-1.5-10.78-2.07-12.57-3.48-1.02-.8-1.32-2.76-2.35-3.82-1.18-1.23-4.31-3.37-4.89-4.16-1.72-2.35-.9-5.69-5.55-6.82-7.65-1.86-8.32,2.49-11.98,3.02Z"/>
  <path d="M270.26,552.57l-.26,2.14-9.54-1.93c-.61-2.79,8.34-.65,9.8-.21Z"/>
  <path d="M367.95,174.81l-4.04-18.4-13.92,2.56,2.25,17.8,15.71-1.96ZM369.1,177.55l-16.61,2.71.93,16.48,18.59-1.65-2.91-17.54ZM358.09,136.13c-1.43-.9-9.88,2.45-12.16,2.56l3.4,17.26,13.71-2.51-4.95-17.31ZM351.09,117.25l-10.76,3.81,4.34,14.61,12.24-2.52-5.82-15.9ZM267.73,70.68c15.53-13.09,40.98-15.34,58.96-5.51-2.35-4.95-6.32-9.71-10.74-13.16-4.79-3.75-18.72-8.34-5.11-13.02,15.31-5.27,31.91,5.32,34.45,20.16l1.21-.35c9.8-12.73,29.35-18.25,45.27-14.18,4.07,1.04,10.1,2.99,10.4,7.59-.33,1.09-13.95,4.36-16.51,5.29-10.03,3.59-18.47,8.9-25.27,16.73,17.49-4.01,38.39-1.7,49.96,12.62,5,6.19,9.13,17.45,6.62,24.96-1.77.45-9.42-7.16-11.66-8.7-10.4-7.19-23.31-10.55-36.2-8.32,22.71,8.9,34.58,30.32,28.76,53.16-4.16,16.29-5.6,5.21-8.74-1.62-7.45-16.21-21.33-29.82-38.62-36.74,13.89,27.52,20.44,57.67,24.97,87.81l-2.89.43-18.92,2.16.15,8.49-2.73.05c0-.25-.67-1.72-.97-1.96-.59-.25-1.18-.51-1.76-.76l2.15-1.94c-.97-30.86-5.3-62.01-17.41-90.75-1.04-.73-5.2,3.74-6.13,4.68-9.16,9.33-16.15,21.07-20.88,32.92-.89,2.23-2.36,10.17-4.22,10.84l-1.83.02c-10.42-19.74-2.36-45.43,15.03-59.12-15.59,2-29.33,11.37-39.81,21.92-4.56,4.58-12.3,17.23-10.66-.2,2.08-22.17,25.39-39.33,48.14-40.09-10.65-5.84-24.41-6.48-36.23-4.04-3.03.63-16.7,6.39-17.87,5.09-2.66-2.96,6.77-12.5,9.09-14.46ZM322.53,101.54c-18.66,10.92-27.82,33.49-21.98,53.54,1.58.23.89-.19,1.17-.81,1.18-2.6,1.9-6.12,3.2-9.04,6.38-14.34,15.62-27.46,28.54-37.25,2.6-.36,4.51,8.08,5.46,9.81l10.43-3.28-4.65-8.51c-.33-1.03,1.49-1.29,2.08-1.31,5.26-.12,20.69,10.1,24.96,13.65,10.11,8.41,17.29,18.98,22.35,30.71,5.95-19.25-2.78-39.12-21.11-48.88-1.87-1-12.38-4.85-12.47-5.65-.25-2.27,8.2-3.41,10.06-3.56,16.59-1.4,31.68,3.6,43.27,14.78-1.48-22.79-26.02-33.99-47.88-29.01-4.39,1-14.98,7.39-10.1-1.85,6.38-12.08,27.52-21.71,41.14-23.96-14.77-9.05-36.09-2.99-47.05,9.07-1.14,1.25-3.39,5.42-3.79,5.74-3.79,3.01-3.87-5.55-4.64-7.69-5.23-14.61-16.66-19.61-32.26-14.78,9,5.88,15.84,9.99,20.43,19.91.89,1.92,4.52,9.47,1.24,10.17-2.57-.38-4.14-3.25-6.37-4.78-17.49-11.95-49.91-5.96-60.62,11.97,14.1-5.78,31.19-7.16,45.71-1.75,2.18.82,10.66,4.64,10.66,6.95l-1.59,1.81c-24.82-2.15-50.28,15.71-50.71,40.13,10.19-12.75,28.67-27.27,46.2-28.49,1.49-.11,8.76-.4,8.98,1.35l-.66,1.01Z"/>
  <path d="M238.37,629.24c4.98-7.81,20.38-10.82,24.94-.87-.75,2.91-21.72,3.36-24.94.87Z" fill="#fff"/>
  <path d="M251.16,753.69c-2.05-1.88,8.47-16.33,12.2-13.99,2,1.25-3.29,4.06-4.06,4.95-1.56,1.78-4.93,7.95-5.55,8.48-.59.5-2.21.91-2.59.56Z"/>
  <path d="M267.16,470.84c-2.64,1.92-2.94-2.36-4.39-4.12-3.63-4.42-8.63-6.25-14.52-5.75,1.17,1.93,14.78,14.19,12.78,15.89-1.74,1.47-3.81-1.94-4.93-2.2-.69-.16-1.64-.25-2.74-.3l.12-2.44c-1.32-3.5-10.03-8.14-9.33-11.76,3.5-4.81,11.67-2.08,16.3.25-.48-3.78-6.88-14.62-.75-16.32,8.48-2.35,11.2,11.08,12.08,10.85.4-4.77,2.02-8.72,3.98-11.37l2.72.8c-.76,1.13-1.21,2.64-1.77,3.7l-3.77,17.82c-2.37.7-2.5-4.99-3.18-6.85-.97-2.64-4.83-12.74-8.45-12.31-.92.6-.79.84-.74,1.75.22,3.73,7.82,20.72,6.59,22.36Z"/>
  <path d="M253.78,733.95c-4.97,1.89-5.85,19.09-6.78,19.65-.48.29-1.56.05-2.21.07-1.89-1.55,2.18-21.59,8.39-21.36l.6,1.64Z"/>
  <path d="M247.36,326.64c9.85-.46,18.94,5.4,28.5-.51.89.5,1.23,1.93.78,2.65-.53.85-7.94,2.72-9.49,2.83-9.07.62-18.12-4.34-27.61-1.12-1.05-3.4,5.24-3.73,7.82-3.85Z"/>
  <path d="M275.3,306.95c-7.84.26-12.5-3.59-21.75-1.87-2.05.38-8.55,3.83-8.7,1.11.18-.42.3-1.01.65-1.32,1.32-1.17,10.81-3.43,12.92-3.47,5.07-.09,10.38,2.6,15.09,2.8,6.39.29,11.98-3.29,18.03-3.18,4.84.09,9.68,3.12,14.52,3.2,5.46.09,10.51-3.05,15.67-3.34,1.69-.1,10.2.22,10.2,2.48.01,2.41-7.13.13-9.59.28-4.96.31-10.51,3.3-15.69,3.33-4.67.02-8.62-2.27-12.86-2.72-7.38-.8-11.83,2.47-18.49,2.7Z"/>
  <path d="M240.67,510.05c-2.14-1.7,3.46-12.11,7.27-11.81,2.1,1.42-1.13,2.95-2.13,4.55-1.42,2.28-2.95,4.85-3.38,7.51l-1.76-.25Z"/>
  <path d="M238.37,629.24c3.22,2.49,24.19,2.04,24.94-.87-4.56-9.95-19.96-6.94-24.94.87ZM266.6,627.05c1.97,7.18-17.76,6.94-22.05,6.52-17.44-1.72-4.86-12.75,4.14-14.04,5.89-.84,16.16,1.15,17.91,7.52Z"/>
  <path d="M242.43,665.43l-4.43-4.19-.21-.19c1.79.36,4.23,2.66,4.64,4.38Z" fill="#fff"/>
  <path d="M236.92,510.29c-2.55-1.94.42-16.05,2.33-16.44,1.13-.22,1.43.98,1.42,1.84-.01.9-2.01,11.58-2.34,12.65-.29.93-.57,1.37-1.41,1.95Z"/>
  <polygon points="237.21 659.68 236.92 659.95 236.92 659.4 237.21 659.68" fill="#fff"/>
  <path d="M317.98,327.48c2.54-.67,12.9-3.27,14.78-3.02,5.13.67.39,6.51-1.73,8.21-1.76,1.42-24.68,12.01-26.13,12.05-1.95.05-6.81-4.82-10.17-3.26.02.72-.18,1.56.27,2.21.3.42,7.42,3.35,9.3,4.93,3.17,2.67,6.75,7.27,3.81,11.23-.76,1.02-4.3,2.89-5.56,2.98-.12.01-.24.02-.36.02-5.7.06-8.73-7.99-10.09-8.21-3.73-.58.47,6.12,1.46,7.25.85.96,2.83,1.39,2.91,1.53.38.6-3.36,4.02-.48,7.85,1.72,2.3,4.14,2.81,6.86,2.01l.93,3.86c-2.7,1.25-5.91,2.75-8.91,3.12-2.25.27-8.01-.46-8.83-.15-1.11.41-11.46,11.04-13.66,12.91-17.65,14.96-41.23,33.48-64.51,15.88.15-14.83,8.59-32.35,20.93-41.64,3.47-2.61,6.06-5.43,7.78.47-2.15.8-5.69,3.9-3.74,6.09,3.58-2.07,6.45-4.96,10.15-6.87,3.49-1.8,8.25-2.91,11.87-4.71,7.41-3.67,13.71-7.73,19.69-11.8,13.15-8.95,24.79-17.94,43.43-22.94Z" fill="#fff"/>
  <path d="M211.64,677.49c1.95-9.7,11.75-16.73,21.69-18.02.6.15.81,1.01,1.23,1.32.73.54,1.42,1.19,2.08,1.89,1.97,2.13,3.62,4.83,4.97,7.11l-4.41,3.6c-.25-2.64-5.63-11.17-8.94-10.12-3.43,1.08,3.17,4.39,4.11,5.9,1.13,1.82,2.32,3.83,1.86,6.06l-6.32,1.71c.78-5.01-1.84-7.83-6.69-9.3l-.78,1.82c3.25,2.23,5.95,3.51,4.9,8.07l-13.7-.04Z" fill="#fff"/>
  <path d="M228.48,736.39c6.41-1.81,16.25,16.15,13.37,17.84-.52.31-1.51-.05-2.04-.53-.98-.92-3.31-7.61-5.52-10.14-1.7-1.94-3.7-3.52-6.1-4.66l.29-2.51Z"/>
  <path d="M230.16,502.42c-.54-1.15-5.45-6.36-2.53-6.92,3.07-.59,8.75,12.5,7.25,15.35l-1.8-.33c-.67-2.79-1.68-5.5-2.92-8.1Z"/>
  <path d="M208.34,656.01c9.5-5.08,12.3-2.11,21.89.66-2.76,1.69-5.91,2.31-8.88,3.94-6.54,3.58-11.12,9.05-12.09,16.28l-15.01-2.19c-.01-.38-.01-.76.01-1.13.45-7.36,7.67-14.13,14.08-17.56Z" fill="#fff"/>
  <path d="M274.09,192.22c-19.53,7.96-38.35,20.87-58.14,27.53l-.82-2.73c19.45-7.75,37.2-19.05,56.55-26.95.43-.18.86-.35,1.3-.53l1.11,2.68Z"/>
  <path d="M212.66,260.34c-.71-3.67-1.14-7.55-1.01-11.79.31-10.22,2.74-18.24.99-28.91-3.16-19.24-18.3-31.16-39.05-30.56-5.3.15-11.91,2.76-16.28,2.76-3.22,0-7.94-1.9-11.63-2.21-20.84-1.74-41.54,6.52-51.71,24.09-5.33,9.21-7.13,20.43-12.6,29.23-7.64,12.31-23.06,18.35-20.07,35.6.5,2.87,2.97,5.46,4.48,7.89l-2.31,1.3-2.87.03-.03-2.77c-6.43-10.49-1.48-21.34,5.57-30.11,2.77-3.45,6.51-6.18,9.25-9.36,8.4-9.73,9.33-23.29,16.09-34.15,11.8-18.99,33.67-27.41,56.46-24.98,2.93.31,7.59,2.06,10.02,2.07,3.2.03,9.53-2.46,13.85-2.72,21.79-1.32,39.81,10.65,43.32,31.27l.82,2.73c2.4,13.1-3.04,27.31-.55,40.05l-2.74.54Z"/>
  <path d="M212.81,437.94c-.91-3.59,7.01-4.52,9.79-4.6,7.32-.21,12.57,4.4,19.51,3.46.76-.1,11.63-3.35,4.22,1.25-7.17,4.46-13.91-1.05-20.45-1.76-4.81-.52-8.53.73-13.07,1.65Z"/>
  <path d="M202.7,789.93c6.69-2.24,15.74-.97,16.99,6.44-7.96,2.68-17.02,2.97-25.14.69-2.51-1.94,6.47-6.56,8.15-7.13Z" fill="#fff"/>
  <path d="M219.69,796.37c-1.25-7.41-10.3-8.68-16.99-6.44-1.68.57-10.66,5.19-8.15,7.13,8.12,2.28,17.18,1.99,25.14-.69ZM205.56,801.95c-33.27-.45-1.04-24.87,14.01-12.43,11.97,9.89-6.42,12.53-14.01,12.43Z"/>
  <path d="M207.87,408.88c23.28,17.6,46.86-.92,64.51-15.88,2.2-1.87,12.55-12.5,13.66-12.91.82-.31,6.58.42,8.83.15,3-.37,6.21-1.87,8.91-3.12l-.93-3.86c-2.72.8-5.14.29-6.86-2.01-2.88-3.83.86-7.25.48-7.85-.08-.14-2.06-.57-2.91-1.53-.99-1.13-5.19-7.83-1.46-7.25,1.36.22,4.39,8.27,10.09,8.21l.1,2.22c-2.77.17-4.65.54-2.82,5.38,6.37.63,13.03-3.16,16.97-8.41l2.53,1.31c-2.78,4.51-6.24,7.86-13.17,9.64,2.69,9.21,15.86,1.09,18.68-4.27,2.55-4.83,1.29-8.23-.7-12.99-.29-.05-.51-.07-.66-.07l2.12-1.83c1.74,2.17,3.45,3.67,3.79,8.19.63,8.43-7.57,17.73-16.74,18.26-2.14.13-4.47-1.1-6.11-.87-2.33.33-6.8,3.6-11.32,4.12-1.88.22-7.92-.29-8.29-.11-.72.34-9.09,9.34-11.01,10.96-20.24,17.16-43.45,35.4-70.26,16.94-.39-.27-1.4-1.14-2.67-2.26l2-2.11.33.31c.58-13.76,7.47-29.61,17.93-39.27,2.87-2.65,6.59-4.6,9.66-7.05l1.86-1.61,4.93,5.67c11.37-4.2,23.38-9.34,33.26-16.17l1.95,1.61c-5.98,4.07-12.28,8.13-19.69,11.8-3.62,1.8-8.38,2.91-11.87,4.71-3.7,1.91-6.57,4.8-10.15,6.87-1.95-2.19,1.59-5.29,3.74-6.09-1.72-5.9-4.31-3.08-7.78-.47-12.34,9.29-20.78,26.81-20.93,41.64Z"/>
  <path d="M232.55,360.92c-3.07,2.45-6.79,4.4-9.66,7.05-10.46,9.66-17.35,25.51-17.93,39.27l-.33-.31-8.06-7.61c4.34-11.45,9.32-23.05,9.84-35.39-.48.08-1.57-.12-1.73.01-.56.42-2.22,11.48-3.21,13.15l-5.53,14.52c1.44-11.3,4.52-22.61,5.23-33.99.22-3.42-.28-9.93-.39-15.4-.06-3.42.02-6.44.53-8.04.29-.94,3.73-3.84,4.82-2.63l26.42,29.37Z" fill="#fff"/>
  <path d="M163.25,647.35c10.44,2.06,23.13,1.96,32.12-4.12v-2.76h2.92c.31,1.35,2.42,3.01,3.65,3.69,2.33,1.29,5.69,2.5,9.52,3.72l.16,2.76c-3.62.31-11.16-4.75-13.64-4.73-.64.01-7.73,3.61-9.85,4.19-7.54,2.08-18.74,2.97-25.87-.57l.99-2.18Z"/>
  <path d="M180.64,243.96c1.93-1.52,16.89-6.21,18.8-5.3,1.71.83,1.58,6,.43,7.28-.87.96-14.71,6.09-16.5,6.14-5.22.13-6.25-5.34-2.73-8.12Z"/>
  <path d="M198.52,342.24c.27,25.59-6.74,50.35-11.68,75.32-.63,3.21-.97,12.19-2.68,14.19-.87,1.02-2.67,2.03-4.97,2.98-6.89,2.85-18.29,5.21-22.62,5.8-16.15,2.21-33.46,1.66-49.84-.31-2.25-.28-4.48-.58-6.68-.9.13-5.08.95-9.67-2.2-14.28,27.41-16.6,51.97-38.96,67.65-66.11,2.91-5.03,5.51-10.22,7.77-15.57,8.74-1.05,17.52-3.53,25-7.93.14,2.28.23,4.55.25,6.81Z" fill="#fff"/>
  <path d="M211.64,650.64c-9.15,4.63-20.67,11.91-20.34,22.99v.03c-6.04-.2-29.02-8.03-30.4-13.25-.59-2.25,1.76-8.14,1.36-10.88,7.13,3.54,18.33,2.65,25.87.57,2.12-.58,9.21-4.18,9.85-4.19,2.48-.02,10.02,5.04,13.64,4.73h.02Z" fill="#fff"/>
  <path d="M197.69,588.14l-2.26,40.34c-10.27,4.21-23.09,4.55-33.67,1.24l-1.84-35.01c12.94-.2,25.41-3.51,37.77-6.57Z" fill="#fff"/>
  <path d="M195.37,640.47v2.76c-8.99,6.08-21.68,6.18-32.12,4.12l-1.59-13.98c11.14,2.08,23.05,3.2,33.71-1.38v8.48Z" fill="#fff"/>
  <path d="M207.55,539.65c1.19,10.57,2.8,23.45,2.95,33.94.03,2.17-.07,3.83-.35,5.15l-2.73-.61c-2.57-41.9-6.73-84.47-23.1-123.74-2.32,1.44-4.8,2.7-7.4,3.8l-1.13-2.76c3.88-1.46,7.37-3.23,8.55-5.15.49-.8.82-1.84,1.03-3.02l2.46.41c-.39,2.08-.7,3.91-.59,5.28.2,2.5,3.84,7.68,4.15,10.67,21.17-.44,41.18,6.79,62.09,8.3l-.12,2.44c-3.34-.15-8.06.04-11.11-.34-16.39-2.07-32.35-7.98-49.2-7.03,7.19,23.76,11.74,48.05,14.5,72.66Z"/>
  <path d="M209.26,676.89c.97-7.23,5.55-12.7,12.09-16.28,2.97-1.63,6.12-2.25,8.88-3.94-9.59-2.77-12.39-5.74-21.89-.66-6.41,3.43-13.63,10.2-14.08,17.56l-2.96.06c-.33-11.08,11.19-18.36,20.34-22.99h-.02l-.16-2.76c8.67,2.76,19.77,5.61,26.88,9.75l-1.42,1.77v.55l.87,1.1.21.19-1.36,1.44c-.66-.7-1.35-1.35-2.08-1.89-.42-.31-.63-1.17-1.23-1.32-9.94,1.29-19.74,8.32-21.69,18.02l-2.38-.6Z"/>
  <path d="M192.85,254.42c4.33-.34,6.97,11.42,2.85,13.62l-1.78.56c-6.78.64-6.55-13.75-1.07-14.18Z"/>
  <path d="M202.63,409.04c-3.34-2.95-8.51-7.6-8.99-7.28l-5.87,29.88c2.53,4.55,1.02,10.99.06,16.03l-2.46-.41c.66-3.83.03-9.09-.47-12.06-1.54.74-3.11,1.43-4.71,2.07l-1-2.54c2.3-.95,4.1-1.96,4.97-2.98,1.71-2,2.05-10.98,2.68-14.19,4.94-24.97,11.95-49.73,11.68-75.32l2.26-.02c.11,5.47.61,11.98.39,15.4-.71,11.38-3.79,22.69-5.23,33.99l5.53-14.52c.99-1.67,2.65-12.73,3.21-13.15.16-.13,1.25.07,1.73-.01-.52,12.34-5.5,23.94-9.84,35.39l8.06,7.61-2,2.11Z"/>
  <path d="M168.5,713.81c11.7-1.29,21.9,7.88,5.68,9.2-3.16.25-14.94.62-15.29-3.67-.26-3.29,7-5.24,9.61-5.53Z" fill="#fff"/>
  <path d="M215.61,78.7c-4.68-7.18-15-8.73-23.14-6.94-.49-14.56-16.84-15.97-27.31-8.77-2-30.33-41.69-30.1-50.56-3.84l-7.72-4.5c-14.32-4.19-30.89,4.06-32.37,18.75-12.43-4.83-29.9,7.87-23.43,20.33l160.82-.07c6.65-1.92,6.81-10.22,3.71-14.96ZM215.13,217.02c-3.51-20.62-21.53-32.59-43.32-31.27-4.32.26-10.65,2.75-13.85,2.72-2.43,0-7.09-1.76-10.02-2.07-22.79-2.43-44.66,5.99-56.46,24.98-6.76,10.86-7.69,24.42-16.09,34.15-2.74,3.18-6.48,5.91-9.25,9.36-7.05,8.77-12,19.62-5.57,30.11H3.62V3.23h588.03v89.91c-13.85-19.19-43.84-22.86-63.91-10.42,2.5-7.87,7.65-15.11,15.15-19.42,1.59-.91,9.55-3.9,9.77-4.52,1.66-4.79-11.26-7.47-14.76-7.53-14.54-.26-24.52,9.37-29.05,21.59-11.39-14-32.07-17.87-49.54-12.74-17.18,5.05-4.03,6.84,3.08,9.45l.33.12c11.26,4.14,22.79,9.05,30.73,17.98-22.59-6.08-48.79,5.96-57.8,26.33-1.13,2.55-6.38,15.37.25,12.84,2.29-.88,9.5-7.29,12.86-9.24,8.92-5.19,19.61-9.14,30.17-9.64-14.73,9.18-25.73,26.63-25.62,43.57.01,1.88.75,10.18,3.25,10.16,1.32,0,11.31-15.52,13.42-18.04,8.42-10.05,19.43-18.04,31.6-23.63-3.36,8.96-6.4,18.03-9.08,27.2-3.44,11.79-6.26,23.75-8.35,35.84-22.57-6.47-47.95-9.38-71.13-3.8-2.71.65-5.66,1.58-8.66,2.77-10.93,4.31-22.53,11.98-25.79,21.74-.72,2.14-.4,4.31-1.32,6.14-.56-4.16-1.15-8.32-1.77-12.49-4.53-30.14-11.08-60.29-24.97-87.81,17.29,6.92,31.17,20.53,38.62,36.74,3.14,6.83,4.58,17.91,8.74,1.62,5.82-22.84-6.05-44.26-28.76-53.16,12.89-2.23,25.8,1.13,36.2,8.32,2.24,1.54,9.89,9.15,11.66,8.7,2.51-7.51-1.62-18.77-6.62-24.96-11.57-14.32-32.47-16.63-49.96-12.62,6.8-7.83,15.24-13.14,25.27-16.73,2.56-.93,16.18-4.2,16.51-5.29-.3-4.6-6.33-6.55-10.4-7.59-15.92-4.07-35.47,1.45-45.27,14.18l-1.21.35c-2.54-14.84-19.14-25.43-34.45-20.16-13.61,4.68.32,9.27,5.11,13.02,4.42,3.45,8.39,8.21,10.74,13.16-17.98-9.83-43.43-7.58-58.96,5.51-2.32,1.96-11.75,11.5-9.09,14.46,1.17,1.3,14.84-4.46,17.87-5.09,11.82-2.44,25.58-1.8,36.23,4.04-22.75.76-46.06,17.92-48.14,40.09-1.64,17.43,6.1,4.78,10.66.2,10.48-10.55,24.22-19.92,39.81-21.92-17.39,13.69-25.45,39.38-15.03,59.12l1.83-.02c1.86-.67,3.33-8.61,4.22-10.84,4.73-11.85,11.72-23.59,20.88-32.92.93-.94,5.09-5.41,6.13-4.68,12.11,28.74,16.44,59.89,17.41,90.75-17.16-8.36-35.61-22.52-56.05-20.82-7.02.58-14.87,3.78-21.48,6.49-.44.18-.87.35-1.3.53-19.35,7.9-37.1,19.2-56.55,26.95Z" fill="#fff"/>
  <path d="M165.5,358.93c-15.68,27.15-40.24,49.51-67.65,66.11l-1.55-2.56c26.57-16.71,51.45-38.5,66.78-65.27l2.42,1.72Z"/>
  <path d="M150.05,304.73c.31.33,7.17-3.39,8.41-3.85,9.38-3.46,22.05-5.45,30.92-.07l1.87-1.75c-8.09-7.55-26.29-4.8-35.78-.46-1.51.69-7.36,4.08-5.42,6.13ZM211.65,248.55c-.13,4.24.3,8.12,1.01,11.79,2.67,13.97,9.35,25.07,4.98,42.65-8.26,33.23-42.08,43.04-74.28,34.09-44.77-12.43-29.65-52-32.52-85.53-7.16-4.27-15.67.03-19.21,6.57-6.66,12.31-.38,27.85,15.43,27.42l.59,19.48c-16.69,2.52-30.93,9.81-44.43,18.93-4.81-5.57-5.46-12.88-3.5-19.75,1.22-4.31,7.33-10.97,7.26-14.55-.02-1.04-.51-2.11-1.2-3.21-1.51-2.43-3.98-5.02-4.48-7.89-2.99-17.25,12.43-23.29,20.07-35.6,5.47-8.8,7.27-20.02,12.6-29.23,10.17-17.57,30.87-25.83,51.71-24.09,3.69.31,8.41,2.21,11.63,2.21,4.37,0,10.98-2.61,16.28-2.76,20.75-.6,35.89,11.32,39.05,30.56,1.75,10.67-.68,18.69-.99,28.91ZM209.82,251.9c-.76-7.52-4.67-15.32-5.27-22.98l-.82-.92c-11.07.67-27.12-3.61-29.22-15.55h-3c-3.69,12.57-17.64,21.5-31.05,22.66-4.27.37-9.03-.27-13.36,0-1.6,0,.2,8.24.16,9.59-.01.39-.03.78-.06,1.17-.4,6.01-2.24,12.94-2.18,19.12.09,9.69,2.51,20.37,7.01,29.08,1.18.66,7.02-3.87,8.91-4.79,4.41-2.15,21.28-8.91,25.39-6.75.64.34,1.04,2.18,2.02,3.02,5.29,4.52,14.26,3.51,18.3-1.93.92-1.23,1.52-2.44,1.88-3.62l1.14.23c-.08.18-.12.4-.13.65-.04,1.13,9.46,5.44,11.6,7.18,1.78,1.44,1.89,3.74,4.34,4.1,4.68-.84,4.84-35.42,4.34-40.26Z" fill="#fff"/>
  <path d="M244.87,663.96c8.81,20.78-25.84,22.43-39.32,21.2-9.77-.9-42.22-6.8-46.91-14.95-2.95-5.15.64-14.64,1.24-20.94h.01l2.37.26c.4,2.74-1.95,8.63-1.36,10.88,1.38,5.22,24.36,13.05,30.4,13.25v-.03l2.96-.06c-.02.37-.02.75-.01,1.13l15.01,2.19,2.38.6,13.7.04c1.05-4.56-1.65-5.84-4.9-8.07l.78-1.82c4.85,1.47,7.47,4.29,6.69,9.3l6.32-1.71c.46-2.23-.73-4.24-1.86-6.06-.94-1.51-7.54-4.82-4.11-5.9,3.31-1.05,8.69,7.48,8.94,10.12l4.41-3.6c-1.35-2.28-3-4.98-4.97-7.11l1.36-1.44,4.43,4.19c-.41-1.72-2.85-4.02-4.64-4.38l-.87-1.1.29-.27-.29-.28,1.42-1.77c3.14,1.82,5.5,3.9,6.53,6.33Z"/>
  <path d="M197.69,588.14c-12.36,3.06-24.83,6.37-37.77,6.57l1.84,35.01c10.58,3.31,23.4,2.97,33.67-1.24l2.26-40.34ZM159.97,648.16l-2.95-52.9-17.91.23-.03-2.65c11.74-.1,23.37-.99,34.42-2.59,7.67-1.11,28.64-5.06,33.26-10.86l.66-1.26,2.73.61c-.9,4.16-3.6,4.96-9.57,8.13l-2.29,53.6h-2.92v-8.48c-10.66,4.58-22.57,3.46-33.71,1.38l1.59,13.98-.99,2.18-2.37-.26c.04-.38.07-.75.08-1.11Z"/>
  <path d="M168.5,713.81c-2.61.29-9.87,2.24-9.61,5.53.35,4.29,12.13,3.92,15.29,3.67,16.22-1.32,6.02-10.49-5.68-9.2ZM170.67,726.22c-23.08-.03-16.24-15.6.68-15.61,16.38-.02,22.34,15.63-.68,15.61Z"/>
  <path d="M154.54,256.59c5.75-.72,6.09,14.09-.13,14.76-5.33-.01-5.15-14.11.13-14.76Z"/>
  <path d="M180.19,437.27c-16.97,6.83-37.29,8.53-55.44,7.82-2.9-.12-11.63-1.37-18.34-2.14l.32-2.73c16.38,1.97,33.69,2.52,49.84.31,4.33-.59,15.73-2.95,22.62-5.8l1,2.54Z"/>
  <path d="M150.05,304.73c-1.94-2.05,3.91-5.44,5.42-6.13,9.49-4.34,27.69-7.09,35.78.46l-1.87,1.75c-8.87-5.38-21.54-3.39-30.92.07-1.24.46-8.1,4.18-8.41,3.85Z"/>
  <path d="M164.84,253.75c-1.26.23-18.62-3.62-20.97-4.31-1.8-.54-5.11-.93-5.46-3.12-.34-2.17,2.36-5.15,4.5-5.61,3.38-.72,25.91,3.73,26.17,6.18-1.66,1.93-1.33,6.31-4.24,6.86Z"/>
  <path d="M169.08,246.89c-.26-2.45-22.79-6.9-26.17-6.18-2.14.46-4.84,3.44-4.5,5.61.35,2.19,3.66,2.58,5.46,3.12,2.35.69,19.71,4.54,20.97,4.31,2.91-.55,2.58-4.93,4.24-6.86ZM139.88,238.4c13.14,0,26.66-9.43,33.12-19.73,5.58,9.14,17.61,12.66,28.22,12.84,5.66,17.48,7.68,36.81,2.58,54.58-1.48-1.32-12.8-9.06-14.13-5.86l-1.14-.23c1.57-5.23-1.77-10.02-4.89-14.9-.8-1.25-7.35-11.87-7.49-5.6-.04,2.21,6.41,9.51,7.7,12.52,3.38,7.88-.49,14.74-10.13,12.85-4.73-.93-4.25-4.98-5.65-5.64-5.49-2.62-28.97,6.26-34,10.69-7.57-13.9-5.3-28.98-4.2-43.85.2-2.57.36-5.12.42-7.67h9.59ZM199.87,245.94c1.15-1.28,1.28-6.45-.43-7.28-1.91-.91-16.87,3.78-18.8,5.3-3.52,2.78-2.49,8.25,2.73,8.12,1.79-.05,15.63-5.18,16.5-6.14ZM195.7,268.04c4.12-2.2,1.48-13.96-2.85-13.62-5.48.43-5.71,14.82,1.07,14.18l1.78-.56ZM154.41,271.35c6.22-.67,5.88-15.48.13-14.76-5.28.65-5.46,14.75-.13,14.76Z" fill="#fff"/>
  <path d="M141.33,531.4c3.94-3.9,8.42-8.18,11.52-12.7,1.37-2.01,6.59-13.22,7.38-13.33.8-.12,1.35.47,1.34,1.25-.05,4.8-15.04,26.89-19.93,26.15-.44-.06-1.25-.93-.31-1.37Z"/>
  <path d="M214.01,85.74c-.14,2.12-2.19,5.2-4.4,5.2H53.89c-3.69-11.34,12.59-18.87,22.39-13.42,1.92-1.25.77-3.58,1.27-5.36,3.38-11.85,17.26-18.92,29.43-13.77,2.71,1.15,6.4,5.58,8.37,5.07,1.09-.28,5.25-9.03,6.91-11.07,10.68-13.13,32.03-12.51,38.12,3.87.96,2.58,1.5,9.91,3.2,10.73,1.68.81,3.76-1.88,5.62-2.66,6.25-2.61,16.81-4.19,18.92,4.12,1.08,4.27-2.18,5.99-.3,8.52,2.16.89,3.54-1.38,5.91-2.1,7.89-2.39,20.9,1.67,20.28,10.87Z" fill="#fff"/>
  <path d="M138.29,759.99c.03.51-4.01,6.84-4.66,9.18-1.01,3.68-.8,6.64-1.68,10.2h-2.15c-2.73-1.74,2.24-19.51,7.19-20.61.32.02,1.27.92,1.3,1.23Z"/>
  <path d="M135.82,780c-4.05-.82,5.84-14.76,10.12-13.13l.58,2.09c-4.28-.21-9.41,11.3-10.7,11.04Z"/>
  <path d="M209.82,251.9c.5,4.84.34,39.42-4.34,40.26-2.45-.36-2.56-2.66-4.34-4.1-2.14-1.74-11.64-6.05-11.6-7.18.01-.25.05-.47.13-.65,1.33-3.2,12.65,4.54,14.13,5.86,5.1-17.77,3.08-37.1-2.58-54.58-10.61-.18-22.64-3.7-28.22-12.84-6.46,10.3-19.98,19.73-33.12,19.73h-9.59c-.06,2.55-.22,5.1-.42,7.67l-2.67-.2c.03-.39.05-.78.06-1.17.04-1.35-1.76-9.59-.16-9.59,4.33-.27,9.09.37,13.36,0,13.41-1.16,27.36-10.09,31.05-22.65h3c2.1,11.93,18.15,16.21,29.22,15.54l.82.92c.6,7.66,4.51,15.46,5.27,22.98Z"/>
  <path d="M125.02,264.99c-.06-6.18,1.78-13.11,2.18-19.12l2.67.2c-1.1,14.87-3.37,29.95,4.2,43.85,5.03-4.43,28.51-13.31,34-10.69,1.4.66.92,4.71,5.65,5.64,9.64,1.89,13.51-4.97,10.13-12.85-1.29-3.01-7.74-10.31-7.7-12.52.14-6.27,6.69,4.35,7.49,5.6,3.12,4.88,6.46,9.67,4.89,14.9-.36,1.18-.96,2.39-1.88,3.62-4.04,5.44-13.01,6.45-18.3,1.93-.98-.84-1.38-2.68-2.02-3.02-4.11-2.16-20.98,4.6-25.39,6.75-1.89.92-7.73,5.45-8.91,4.79-4.5-8.71-6.92-19.39-7.01-29.08Z"/>
  <path d="M120.66,771.28c-1.3-1.99-3.3-4.29-5.36-5.62l-.11-1.27c1.31-2.72,5.71,1.95,6.63,3.05,1.18,1.42,7.5,11.95,4.68,12.56-2.15.47-4.55-6.76-5.84-8.72Z"/>
  <path d="M104.44,664.85c1.41-.05,10.56.58,11.31.87,1.57.59,4.43,4.72,5.25,6.28-3.87-.47-7.74-.57-11.53-.29-12.62.9-24.35,6.04-32.05,16.2v-12.88c6-6.36,18.08-9.92,27.02-10.18Z" fill="#fff"/>
  <path d="M44.99,347.87c14.42-21.64,37.62-34.34,63.8-39.85,4.52,27.28,35.42,36.25,61.01,35.64-1.96,4.65-4.21,9.16-6.72,13.55-15.33,26.77-40.21,48.56-66.78,65.27-3.35-3.78-7.89-5.27-13.07-4.82-1.24-10.66,4.55-19.9,7.39-30.04.9-3.24,4.1-14.19,3.66-16.8-.15-.85-.85-1.69-1.75-1.95-2.18,9.82-4.43,19.83-8.71,29.05-.1-3.7.35-7.91,1.03-12.38,2.45-16.28,7.9-36.12.92-48.4-4.12-7.26-15.86-10.18-21.71-3.08-2.13,2.58-3.22,5.98-3.69,9.78-1.2,9.59,1.59,21.72,1.96,29.67.45,9.59-.62,19.25-.02,28.79-11-8.47-24.93-11.3-38.81-8.24-.04,0-.08.01-.12.02,5.21-15.63,12.35-32.31,21.61-46.21Z" fill="#fff"/>
  <path d="M143.18,500.8c3.43-7.08,5.17-14.58,8.32-21.74,3.29-.14-.78,11.48-1.29,13.02-4.76,14.43-24.89,45.36-37.64,54.4-1.56,1.1-4.08,2.62-6.1,2.73,5.04-6.1,11.17-11.18,16.25-17.28,7.24-8.67,15.6-21.1,20.46-31.13Z"/>
  <path d="M106.96,282.16c-19.9,1.29-18.97-31.13.67-28.41v26.59c0,.3-.68,1.25-.67,1.82Z" fill="#fff"/>
  <path d="M98.17,442.44c.86-.24,4.18.05,8.24.51,6.71.77,15.44,2.02,18.34,2.14,18.15.71,38.47-.99,55.44-7.82,1.6-.64,3.17-1.33,4.71-2.07.5,2.97,1.13,8.23.47,12.06-.21,1.18-.54,2.22-1.03,3.02-1.18,1.92-4.67,3.69-8.55,5.15-4.4,1.66-9.3,2.92-11.9,3.51-25.02,5.74-51.7,4.08-76.6-1.27l-.15-3.73-.17-4.47c2.19-2.94,5.05-3.41,8.28-4.85,1.18-.52,1.96-1.91,2.92-2.18Z" fill="#fff"/>
  <path d="M80.91,589.78c10.35,3.55,21.56,4.93,32.53,5.49l-7.05,39.93c-8.57,2.49-18.01,2.39-26.68.35l1.2-45.77Z" fill="#fff"/>
  <path d="M78.58,651.73c8.78,1.8,16.56,2.45,25.44.66l8.84,9.75c-12.12-.76-25.29.57-34.85,8.23l.57-18.64Z" fill="#fff"/>
  <path d="M79.16,638.57c8.73,2.51,17.94,1.97,26.74.28-2.33,8.59,1.51,10.93-9.61,11.77-6.04.46-11.31-.53-17.13-1.63v-10.42Z" fill="#fff"/>
  <path d="M91.94,691.19c1.21-2.87-4.45-7.29-1.76-8.47,4.28-.08,4.25,5.54,4.09,8.48h8.13c1.8-2.22-5.22-8.69-2.02-9.32,2.58-.51,5.26,7.31,4.34,9.32l8.73-1.11c-.69-1.94-.68-4.62-1.63-6.41-.84-1.58-5.39-3.61-2.68-4.51,3.64-1.21,7.62,7.43,6.63,10.38,4.26-.97,9.97-3.35,9.61-8.25-.1-1.39-.38-2.52-.82-3.45l2.78-.7c3.01,6.64,3.25,13.04-2.84,17.62-9.65,7.25-36,5.75-46.8.28-.49.74-.71,1.39-.85,2.02l-2.67-.31c.27-7.27.55-14.55.84-21.82l2.4.09v12.88c7.7-10.16,19.43-15.3,32.05-16.2l.15,1.98c-10.73.7-22.67,6.55-28.71,14.48l11.03,3.02Z"/>
  <path d="M90.18,682.72c-2.69,1.18,2.97,5.6,1.76,8.47l-11.03-3.02c6.04-7.93,17.98-13.78,28.71-14.48,1.01-.07,2-.09,2.98-.06,5.39.15,10.09.23,11.96,4.22.44.93.72,2.06.82,3.45.36,4.9-5.35,7.28-9.61,8.25.99-2.95-2.99-11.59-6.63-10.38-2.71.9,1.84,2.93,2.68,4.51.95,1.79.94,4.47,1.63,6.41l-8.73,1.11c.92-2.01-1.76-9.83-4.34-9.32-3.2.63,3.82,7.1,2.02,9.32h-8.13c.16-2.94.19-8.56-4.09-8.48Z" fill="#fff"/>
  <path d="M60.37,343.84c.47-3.8,1.56-7.2,3.69-9.78,5.85-7.1,17.59-4.18,21.71,3.08,6.98,12.28,1.53,32.12-.92,48.4l-2.78-.42c2.39-15.78,6.85-40.27-.6-48.31-3.26-3.51-9.52-5.01-13.65-1.93-2.73,2.04-4.01,5.4-4.49,9.31l-2.96-.35Z"/>
  <path d="M85.23,461.1c-.07-.23-.15-.45-.25-.68,18.18,4.38,37.23,5.89,56.05,4.92,11.71-.61,24.85-2.46,35.89-7.15,2.6-1.1,5.08-2.36,7.4-3.8,16.37,39.27,20.53,81.84,23.1,123.74l-.66,1.26c-4.62,5.8-25.59,9.75-33.26,10.86-11.05,1.6-22.68,2.49-34.42,2.59-19.72.17-39.77-1.85-57.91-6.33.12-12.76-.66-25.53-.85-38.26-.03-2.34-.05-4.68-.03-7.01.06-8.66,1.02-17.59,1.22-26.26.21-9.08-.64-22.79-.26-33.65.12-3.41.36-6.53.79-9.15.5-3.01,4.63-6.53,3.19-11.08ZM161.57,506.62c0-.78-.54-1.37-1.34-1.25-.79.11-6.01,11.32-7.38,13.33-3.1,4.52-7.58,8.8-11.52,12.7-.94.44-.13,1.31.31,1.37,4.89.74,19.88-21.35,19.93-26.15ZM150.21,492.08c.51-1.54,4.58-13.16,1.29-13.02-3.15,7.16-4.89,14.66-8.32,21.74-4.86,10.03-13.22,22.46-20.46,31.13-5.08,6.1-11.21,11.18-16.25,17.28,2.02-.11,4.54-1.63,6.1-2.73,12.75-9.04,32.88-39.97,37.64-54.4Z" fill="#fff"/>
  <path d="M83.22,420.65c13.51-1.23,19.77,17.5,6.99,22.77.81-1.57-.4-3.73-.93-4.99-.14-.32-.23-.59-.23-.77,0-.68,1.86-2.88,2.17-4.51,1.16-6.11-1.73-10.28-8.17-11.06-.13-.02-.27-.04-.4-.05l.57-1.39Z" fill="#fff"/>
  <path d="M67.82,334.88c4.13-3.08,10.39-1.58,13.65,1.93,7.45,8.04,2.99,32.53.6,48.31-.52,3.38-.94,6.35-1.13,8.68-.74,9.17-.29,18.53-1.2,27.7-4.78-.55-9.53-.83-14.26.39l-.86-1.23c0-.18.01-.35.01-.53.08-3.13.17-6.29.28-9.48.45-13.8,1.01-27.99.33-41.53-.3-6.07-2.89-16.72-1.91-24.93.48-3.91,1.76-7.27,4.49-9.31ZM78.58,367.78c.29-3.11,1.85-22-.87-22.48-.27.36-.83,1.62-.87,1.92-.9,6.2.66,14.15,0,20.55h1.74ZM72.77,412.18c.38-4.11,1.45-31.5-.01-32.89-1.31-1.26-1.71,3-1.76,3.54-.85,9.33.6,19.89.03,29.35h1.74Z" fill="#fff"/>
  <path d="M115.75,665.72c-.75-.29-9.9-.92-11.31-.87-8.94.26-21.02,3.82-27.02,10.18l-2.4-.09c1.66-42.17,3.41-84.36,2.75-126.65l2.55-.04c.19,12.73.97,25.5.85,38.26,18.14,4.48,38.19,6.5,57.91,6.33l.03,2.65-22.42.29-9.65,55.09c4.77,5.52,15.74,16.17,20.3,26.28l-2.78.7c-1.87-3.99-6.57-4.07-11.96-4.22-.98-.03-1.97-.01-2.98.06l-.15-1.98c3.79-.28,7.66-.18,11.53.29-.82-1.56-3.68-5.69-5.25-6.28ZM104.02,652.39c-8.88,1.79-16.66,1.14-25.44-.66l-.57,18.64c9.56-7.66,22.73-8.99,34.85-8.23l-8.84-9.75ZM79.16,648.99c5.82,1.1,11.09,2.09,17.13,1.63,11.12-.84,7.28-3.18,9.61-11.77-8.8,1.69-18.01,2.23-26.74-.28v10.42ZM106.39,635.2l7.05-39.93c-10.97-.56-22.18-1.94-32.53-5.49l-1.2,45.77c8.67,2.04,18.11,2.14,26.68-.35Z"/>
  <path d="M77.77,548.29c-.08-5.45-.21-10.91-.38-16.37l1.52-50.66,2.34.07c-.38,10.86.47,24.57.26,33.65-.2,8.67-1.16,17.6-1.22,26.26-.02,2.33,0,4.67.03,7.01l-2.55.04Z"/>
  <path d="M76.84,347.22c.04-.3.6-1.56.87-1.92,2.72.48,1.16,19.37.87,22.48h-1.74c.66-6.41-.9-14.36,0-20.56Z"/>
  <path d="M60.64,437.19c.72-1.42,9.26-.09,11.81-.14,4.69-.1,15.29.71,15.97-4.91.52-4.33-1.98-6.43-5.73-7.37l.36-2.68c6.44.78,9.33,4.95,8.17,11.06-.31,1.63-2.17,3.83-2.17,4.51,0,.18.09.45.23.77l-2.5.92c-6.31.17-12.55,1.21-18.94.77-2.06-.14-8.58-.22-7.2-2.93Z"/>
  <path d="M215.61,78.7c3.1,4.74,2.94,13.04-3.71,14.96l-160.82.07c-6.47-12.46,11-25.16,23.43-20.33,1.48-14.69,18.05-22.94,32.37-18.75l7.72,4.5c8.87-26.26,48.56-26.49,50.56,3.84,10.47-7.2,26.82-5.79,27.31,8.77,8.14-1.79,18.46-.24,23.14,6.94ZM209.61,90.94c2.21,0,4.26-3.08,4.4-5.2.62-9.2-12.39-13.26-20.28-10.87-2.37.72-3.75,2.99-5.91,2.1-1.88-2.53,1.38-4.25.3-8.52-2.11-8.31-12.67-6.73-18.92-4.12-1.86.78-3.94,3.47-5.62,2.66-1.7-.82-2.24-8.15-3.2-10.73-6.09-16.38-27.44-17-38.12-3.87-1.66,2.04-5.82,10.79-6.91,11.07-1.97.51-5.66-3.92-8.37-5.07-12.17-5.15-26.05,1.92-29.43,13.77-.5,1.78.65,4.11-1.27,5.36-9.8-5.45-26.08,2.08-22.39,13.42h155.72Z"/>
  <path d="M77.85,737.09c-3.28,3.25-29.02,3.08-33.83,1.24-7.21-2.76,8.04-10.6,11.19-11.34,5.86-1.39,12.48-.95,17.51,2.35,1.5.99,6.94,5.96,5.13,7.75Z" fill="#fff"/>
  <path d="M72.76,379.29c1.46,1.39.39,28.78.01,32.89h-1.74c.57-9.46-.88-20.02-.03-29.35.05-.54.45-4.8,1.76-3.54Z"/>
  <path d="M72.79,528.09c.08,2.95.53,10.23-.03,12.63-.22.93-.57,1.54-1.73,1.37l-.87-38.38,1.44,1.39c-.41,7.68.99,15.36,1.19,22.99Z"/>
  <path d="M71.03,542.09c1.16.17,1.51-.44,1.73-1.37.56-2.4.11-9.68.03-12.63-.2-7.63-1.6-15.31-1.19-22.99l-1.44-1.39.87,38.38ZM71.02,617.19c.35-.22,1.12-6.78,1.19-7.93.6-9.45.92-25.33.01-34.58-.1-1.05.14-2.34-1.48-2.44l-1.47,43.58,1.75,1.37ZM64.05,475.21c5.21.38,10.23-.59,15.11-2.19l-.25,8.24-1.52,50.66c.17,5.46.3,10.92.38,16.37.66,42.29-1.09,84.48-2.75,126.65-.29,7.27-.57,14.55-.84,21.82-1.38,5.68-14.37,5.11-14.22-1.43,3.06-73.36,7.02-146.75,4.09-220.12ZM68.7,690.65l.29-45.49c-1.07.88-1.3,2.31-1.45,3.56-1.13,9.41.08,22.47.02,32.36-.02,2.75-1.23,5.86-.17,8.86l1.31.71Z" fill="#fff"/>
  <path d="M69.27,615.82l1.47-43.58c1.62.1,1.38,1.39,1.48,2.44.91,9.25.59,25.13-.01,34.58-.07,1.15-.84,7.71-1.19,7.93l-1.75-1.37Z"/>
  <path d="M82.64,462.06c-3,2.24-21.15,4.4-22.02,1.38,1.26-2.99,6.03-1.18,9.37-1.51,5.38-.52,15.02-2.09,15.02-7.91l2.13-.08.15,3.73c24.9,5.35,51.58,7.01,76.6,1.27,2.6-.59,7.5-1.85,11.9-3.51l1.13,2.76c-11.04,4.69-24.18,6.54-35.89,7.15-18.82.97-37.87-.54-56.05-4.92.1.23.18.45.25.68l-2.59.96Z"/>
  <path d="M67.56,681.08c.06-9.89-1.15-22.95-.02-32.36.15-1.25.38-2.68,1.45-3.56l-.29,45.49-1.31-.71c-1.06-3,.15-6.11.17-8.86Z"/>
  <path d="M107.63,253.75c-19.64-2.72-20.57,29.7-.67,28.41-.01-.57.67-1.52.67-1.82v-26.59ZM217.64,302.99c4.37-17.58-2.31-28.68-4.98-42.65l2.74-.54c1.62,8.29,5.82,16.4,6.66,24.96l50.82.07v2.91h-50.78v10.14c0,9.2-8.45,23.45-14.48,30.62l26.79,30.81-1.86,1.61-26.42-29.37c-1.09-1.21-4.53,1.69-4.82,2.63-.51,1.6-.59,4.62-.53,8.04l-2.26.02c-.02-2.26-.11-4.53-.25-6.81-7.48,4.4-16.26,6.88-25,7.93-2.26,5.35-4.86,10.54-7.77,15.57l-2.42-1.72c2.51-4.39,4.76-8.9,6.72-13.55-25.59.61-56.49-8.36-61.01-35.64-26.18,5.51-49.38,18.21-63.8,39.85-9.26,13.9-16.4,30.58-21.61,46.21.04-.01.08-.02.12-.02l.58,2.75c-.43.1-.84.2-1.26.31-2.25,5.43-3.97,11.83-4.7,18.43l-2.8-.34c2.13-19.54,11.04-40.54,17.66-53.46,6.82-13.32,15.5-26.22,27.44-35.91-6.12-7.82-6.25-16.66-2.46-25.48,1.99-4.63,6.45-7.41,5.51-12.62l2.31-1.3c.69,1.1,1.18,2.17,1.2,3.21.07,3.58-6.04,10.24-7.26,14.55-1.96,6.87-1.31,14.18,3.5,19.75,13.5-9.12,27.74-16.41,44.43-18.93l-.59-19.48c-15.81.43-22.09-15.11-15.43-27.42,3.54-6.54,12.05-10.84,19.21-6.57,2.87,33.53-12.25,73.1,32.52,85.53,32.2,8.95,66.02-.86,74.28-34.09Z"/>
  <path d="M60.64,450.91c.55-2.09,9.14-.72,11.83-.92,5.99-.46,18.23-2.56,14.31-10.64l2.5-.92c.53,1.26,1.74,3.42.93,4.99,12.78-5.27,6.52-24-6.99-22.77l-.57,1.39c.13.01.27.03.4.05l-.36,2.68c-6.44-1.63-16.54.17-21.17-.07l-.94-.74c1.32-1.89,1.86-3.13,1.86-3.89l2.19.06c0,.18-.01.35-.01.53l.86,1.23c4.73-1.22,9.48-.94,14.26-.39.91-9.17.46-18.53,1.2-27.7.19-2.33.61-5.3,1.13-8.68l2.78.42c-.68,4.47-1.13,8.68-1.03,12.38,4.28-9.22,6.53-19.23,8.71-29.05.9.26,1.6,1.1,1.75,1.95.44,2.61-2.76,13.56-3.66,16.8-2.84,10.14-8.63,19.38-7.39,30.04,5.18-.45,9.72,1.04,13.07,4.82l1.55,2.56c3.15,4.61,2.33,9.2,2.2,14.28,2.2.32,4.43.62,6.68.9l-.32,2.73c-4.06-.46-7.38-.75-8.24-.51-.96.27-1.74,1.66-2.92,2.18-3.23,1.44-6.09,1.91-8.28,4.85l.17,4.47-2.13.08c0-.86-.21-1.81-.68-2.87-6.01,1.04-12.04,2.66-18.27,2.16-1.68-.13-6.01-.12-5.42-2.4Z"/>
  <path d="M51.25,797.25c4.51-6.1,17.01-6.92,22.48-1.71,14.89,14.13-33.01,15.92-22.48,1.71ZM73.1,801.39c-.29-4.16-6.5-6.67-10.36-6.45-2.64.16-9.1,2.41-9.63,5.2-.25.82-.19,1.44.47,2.08,2.31,2.25,16.63,2.04,19.52-.83Z"/>
  <path d="M62.74,794.94c3.86-.22,10.07,2.29,10.36,6.45-2.89,2.87-17.21,3.08-19.52.83-.66-.64-.72-1.26-.47-2.08.53-2.79,6.99-5.04,9.63-5.2Z" fill="#fff"/>
  <path d="M72.45,437.05c-2.55.05-11.09-1.28-11.81.14-1.38,2.71,5.14,2.79,7.2,2.93,6.39.44,12.63-.6,18.94-.77,3.92,8.08-8.32,10.18-14.31,10.64-2.69.2-11.28-1.17-11.83.92-.59,2.28,3.74,2.27,5.42,2.4,6.23.5,12.26-1.12,18.27-2.16.47,1.06.68,2.01.68,2.87,0,5.82-9.64,7.39-15.02,7.91-3.34.33-8.11-1.48-9.37,1.51.87,3.02,19.02.86,22.02-1.38-.13,12.54-20.1,11.55-28.48,7.41-6.76-3.33-7.74-8.57-11.88-11.81-2.26-1.76-7.76-2.71-11.29-5.24-11.54-8.28-14.4-23-12.87-36.87.73-6.6,2.45-13,4.7-18.43.42-.11.83-.21,1.26-.31,9.64-2.19,21.25-.69,29.9,3.76,5.78,2.97,8.18,5.26,8.18,9.99,0,1.31-.19,2.8-.53,4.54-5.03,4.19-5.46,1.42-9.57-.1-4.24-1.57-8.79-3.2-13.47-2.74l-.12,2.39c5,1.02,10.44,1.75,14.53,4.92-3.91,3.59-8.36,7.16-7.53,12.89,3.33-2.02,4.6-6.6,7.81-9.35,2.81-2.42,9.16-5.61,9.16-3.04,0,.76-.54,2-1.86,3.89l.94.74c4.63.24,14.73-1.56,21.17.07,3.75.94,6.25,3.04,5.73,7.37-.68,5.62-11.28,4.81-15.97,4.91Z" fill="#fff"/>
  <path d="M61.44,500.97l-.3,81.14c-2.37-1.33-11.24-3.48-11.55-6.26l11.85-74.88Z" fill="#fff"/>
  <path d="M61.44,500.97l-11.85,74.88c.31,2.78,9.18,4.93,11.55,6.26l.3-81.14ZM59.96,695.33c-.15,6.54,12.84,7.11,14.22,1.43l2.67.31c-.32,1.36-.28,2.55-2.01,4.03-5.29,4.49-18.58,2.49-18.35-5.82l4.67-109.07c-.7-2.81-15.63-3.95-14.59-9.86l14.57-90.72c-.26-.26-2.72.25-5.89,1.07l-.63-2.45,6.56-1.7-.04-7.33h2.91c2.93,73.36-1.03,146.75-4.09,220.11Z"/>
  <path d="M44.02,738.33c4.81,1.84,30.55,2.01,33.83-1.24,1.81-1.79-3.63-6.76-5.13-7.75-5.03-3.3-11.65-3.74-17.51-2.35-3.15.74-18.4,8.58-11.19,11.34ZM81.51,735.9c.22,8.61-25.32,7.45-31.68,6.81-23.41-2.36-4.99-17.95,6.52-19.59,8.63-1.22,24.91,2.57,25.16,12.78Z"/>
  <path d="M64.91,410.65c-.11,3.19-.2,6.35-.28,9.48l-2.19-.06c0-2.57-6.35.62-9.16,3.04-3.21,2.75-4.48,7.33-7.81,9.35-.83-5.73,3.62-9.3,7.53-12.89-4.09-3.17-9.53-3.9-14.53-4.92l.12-2.39c4.68-.46,9.23,1.17,13.47,2.74,4.11,1.52,4.54,4.29,9.57.1.34-1.74.53-3.23.53-4.54l2.75.09Z"/>
  <path d="M39.44,604.08c4.56-.58-.74,4.49-1.06,5.06-1.08,1.88-2.73,8.6-4.82,8.05-2.58-.69,2.9-12.72,5.88-13.11Z"/>
  <path d="M65.24,369.12c.68,13.54.12,27.73-.33,41.53l-2.75-.09c0-4.73-2.4-7.02-8.18-9.99-8.65-4.45-20.26-5.95-29.9-3.76l-.58-2.75c13.88-3.06,27.81-.23,38.81,8.24-.6-9.54.47-19.2.02-28.79-.37-7.95-3.16-20.08-1.96-29.67l2.96.35c-.98,8.21,1.61,18.86,1.91,24.93Z"/>
  <path d="M29.77,616.64c.23-2.72-.31-5.82,0-8.49.18-1.52,3.05-11.45,4.09-6.02.14.73-1.77,14.02-2.35,14.52-.13.11-1.27-.08-1.74-.01Z"/>
  <path d="M568.04,654.12c-2.01,1.63-6.82,10.09-3.41,11.85l6.59-11.33-.79-1.82c-.53-.09-1.89.9-2.39,1.3ZM553.02,657.21c1.49,2.87,1.06,6.76,4.08,8.75l2.01-1.62.87,2.18c2.18.2,3.34-14.15,3.78-16.43-2.57-2.61-5.68,10.61-5.27,12.5-1.52-4.21-2.64-10.61-8.67-10.31-.06,2.3,2.16,2.94,3.2,4.93ZM554.18,521.26c-3.09,1.84-3.7,14.84-.52,15.32.85.03,1.62-.76,1.84-1.46.4-1.22,1.33-14.41-1.32-13.86ZM563.5,528.42c.43-.56,5.98-5.26.1-3.78-2.3.58-9.14,11.29-5.93,11.97,1.5.31,4.68-6.68,5.83-8.19ZM565.32,789.7c4.08-4.93-2.15-11.57-6.98-13.63-6.78-2.9-15.37-1.93-21.71,1.63-4.49,2.52-13.63,10.1-5.81,13.92,5.89,2.89,30.28,3.19,34.5-1.92ZM303.15,665.43c4.12-.86-5.68-19.33-9.8-18.06-.74.23-1.2,1.06-.85,1.79,1.81,1.89,3.52,3.58,4.92,5.79,1.1,1.74,4.44,10.75,5.73,10.48ZM29.77,608.15c-.31,2.67.23,5.77,0,8.49.47-.07,1.61.12,1.74.01.58-.5,2.49-13.79,2.35-14.52-1.04-5.43-3.91,4.5-4.09,6.02ZM170.67,726.22c23.02.02,17.06-15.63.68-15.61-16.92.01-23.76,15.58-.68,15.61ZM38.38,609.14c.32-.57,5.62-5.64,1.06-5.06-2.98.39-8.46,12.42-5.88,13.11,2.09.55,3.74-6.17,4.82-8.05ZM451.61,703.26c-3.8-.61-10.67,11.87-7.25,12.6.97.21,4.16-6.44,5.03-7.85,1.14-1.83,3.62-2.17,2.22-4.75ZM439.42,715.04c0,.2.88.95,1.44.82.75-.16,3.24-12.91,3.17-14.03-.03-.47-.1-.77-.54-1.05-2.12-1.59-3.89,4.71-4.07,6.04-.33,2.33,0,5.73,0,8.22ZM436.8,716.4c4.02-2.88-4.57-16.21-7.26-13.69l7.26,13.69ZM145.94,766.87c-4.28-1.63-14.17,12.31-10.12,13.13,1.29.26,6.42-11.25,10.7-11.04l-.58-2.09ZM136.99,758.76c-4.95,1.1-9.92,18.87-7.19,20.61h2.15c.88-3.56.67-6.52,1.68-10.2.65-2.34,4.69-8.67,4.66-9.18-.03-.31-.98-1.21-1.3-1.23ZM314.79,794.79c5.69.55,25.94.44,28.78-4.62,3.41-6.08-7.46-13.9-12.81-15.38-2.87-.8-6.43-.96-9.43-.66-13.05,1.3-29.57,18.43-6.54,20.66ZM322.62,492.76c-6.03-2.14-6.11,13.87-4.34,14.25,1.81.38,1.94-7.2,2.28-8.8.44-2.05,1.29-3.57,2.06-5.45ZM320.59,653.03c-4.26-.06-10.78,11.8-6.97,11.84,1.06,0,5.98-9.82,9-10.13.2-.85-1.28-1.7-2.03-1.71ZM309.16,498.6c1.34,2.11,2.77,6.18,4.01,7.71,1.26,1.55,2.5.6,2.38-1.07-.12-1.73-4.47-9.74-5.88-10.67-1.03-.68-2.1-.79-3.31-.71-.6,2.43,1.74,3.07,2.8,4.74ZM309.26,664.89c.72-.68.4-16.31,4.41-18.61.53-.6-.12-1.54-.65-1.68-4.57-1.19-8.28,17.03-6.01,20.21.26.17,2.17.15,2.25.08ZM550.9,535.75c.57-2.31-4.71-12.22-7.17-11.75-3.42.66,5.79,10.34,4.93,12.61l2.24-.86ZM427.78,779.7c-3.24-1.33-15.14,12.12-11.6,16.2,2.85-.22,2.75-3.64,3.84-5.42,2.33-3.79,4.67-7.04,8.94-9.12l-1.18-1.66ZM412.98,777.81c-1.17,2.64-4.93,18.96.01,18.48.3-.03,1.39-1.03,1.44-1.21.51-1.81,0-8,0-10.42,0-2.87,3.32-8.29,4.65-10.99-1.74-3.93-5.29,2.34-6.1,4.14ZM253.18,732.31c-6.21-.23-10.28,19.81-8.39,21.36.65-.02,1.73.22,2.21-.07.93-.56,1.81-17.76,6.78-19.65l-.6-1.64ZM247.94,498.24c-3.81-.3-9.41,10.11-7.27,11.81l1.76.25c.43-2.66,1.96-5.23,3.38-7.51,1-1.6,4.23-3.13,2.13-4.55ZM239.25,493.85c-1.91.39-4.88,14.5-2.33,16.44.84-.58,1.12-1.02,1.41-1.95.33-1.07,2.33-11.75,2.34-12.65.01-.86-.29-2.06-1.42-1.84ZM233.08,510.52l1.8.33c1.5-2.85-4.18-15.94-7.25-15.35-2.92.56,1.99,5.77,2.53,6.92,1.24,2.6,2.25,5.31,2.92,8.1ZM394.86,780.39c1.19,1.48,3.95,3.32,5.53,5.46,2.09,2.86,3.86,8.44,5.39,10.26,1.45,1.73,2.75.97,2.89-1.03.29-4.09-8.58-18.41-14.57-17.27-.09.96.13,1.8.76,2.58ZM51.25,797.25c-10.53,14.21,37.37,12.42,22.48-1.71-5.47-5.21-17.97-4.39-22.48,1.71ZM115.3,765.66c2.06,1.33,4.06,3.63,5.36,5.62,1.29,1.96,3.69,9.19,5.84,8.72,2.82-.61-3.5-11.14-4.68-12.56-.92-1.1-5.32-5.77-6.63-3.05l.11,1.27ZM205.56,801.95c7.59.1,25.98-2.54,14.01-12.43-15.05-12.44-47.28,11.98-14.01,12.43ZM263.36,739.7c-3.73-2.34-14.25,12.11-12.2,13.99.38.35,2-.06,2.59-.56.62-.53,3.99-6.7,5.55-8.48.77-.89,6.06-3.7,4.06-4.95ZM272.86,534.3c-2.89.48-6.23-3.81-12.37-.12-5.32,3.21-4.2,6.71-5.71,11.06-1.33,3.82-7.7,7.51-5.64,12.19.99,1.85,9.88,11.13,10.03,11.87.28,1.5-2.54,8.78-.46,11.71-4.44-.36-9.96,3.71-7.47,8.14l4.56.08c-.83,6.38,3.34,7.25,6.69,2.19l3.94,3.23c4.73-3.43,5.17-9.34,7.1-14.2l9.58,3.86c-2.48,2.19-8.98,2.45-10.2,5.99-1.09,3.2.5,4.97,3.81,3.87l-1.18,3.54c1.99,4.57,7.15,1.34,10.17-.26,1.59,4.7,4.89,2.62,7.18-.36,2.86-3.72,1.97-9.51,7.32-9.18.45.04.94.11,1.49.23.47.36-2.51,3.92-.59,5.25l1.75-.32c-1.72,6.89,6.46,2,7.53,2.77.13.1.14,2.47,1.55,2.59,2.32.47,19.61-7.28,21.14-9.46,2.93-4.17-1.06-5.86-1.15-7.66-.05-.95,1.87-3.49,2.17-5.09.98-5.23-.52-10.33-5.47-13.21-1.86-1.08-5.3-1.47-6.29-2.28-.54-.44-1.04-1.1-1.56-1.88-1.55-2.34-3.27-5.8-6.68-7.89-4.26-2.61-11.46-2.54-14.09-4.25-2.67-1.73-7.28-9.55-9.35-12.01-3.42-4.06-8.73-5.13-13.75-3.12-1.27.5-3.42,2.61-4.05,2.72ZM26.57,616.64c2.9-.88-3.2-13.87-5.8-13.15-2.85.8,2.28,7.62,2.9,8.77.87,1.6.33,4.69,2.9,4.38ZM241.85,754.23c2.88-1.69-6.96-19.65-13.37-17.84l-.29,2.51c2.4,1.14,4.4,2.72,6.1,4.66,2.21,2.53,4.54,9.22,5.52,10.14.53.48,1.52.84,2.04.53ZM205.55,685.16c13.48,1.23,48.13-.42,39.32-21.2-1.03-2.43-3.39-4.51-6.53-6.33-7.11-4.14-18.21-6.99-26.88-9.75-3.83-1.22-7.19-2.43-9.52-3.72-1.23-.68-3.34-2.34-3.65-3.69l2.29-53.6c5.97-3.17,8.67-3.97,9.57-8.13.28-1.32.38-2.98.35-5.15-.15-10.49-1.76-23.37-2.95-33.94-2.76-24.61-7.31-48.9-14.5-72.66,16.85-.95,32.81,4.96,49.2,7.03,3.05.38,7.77.19,11.11.34,1.1.05,2.05.14,2.74.3,1.12.26,3.19,3.67,4.93,2.2,2-1.7-11.61-13.96-12.78-15.89,5.89-.5,10.89,1.33,14.52,5.75,1.45,1.76,1.75,6.04,4.39,4.12,1.23-1.64-6.37-18.63-6.59-22.36-.05-.91-.18-1.15.74-1.75,3.62-.43,7.48,9.67,8.45,12.31.68,1.86.81,7.55,3.18,6.85l3.77-17.82c.56-1.06,1.01-2.57,1.77-3.7.65-.95,1.52-1.62,2.88-1.5l-2.6,25.76c2.21.51,3.83-6.26,4.83-8.04,2.19-3.85,5.17-8.53,9.39-10.59.06.72.05,1.45-.03,2.2-.7,6.54-6.33,13.9-7.25,19.17-.38,2.18,1.56,2.15,2.89.52,2.77-3.41,3.72-12,7.1-14.68,4.04-3.2,25.34-8.94,29.84-6.94,5.21,8.19,10.59,16.25,16.14,24.24,2.15,3.1,6.24,6.69,7.92,9.52.75,1.26,1.36,2.68,1.96,4.14,1.8,4.39,3.54,9.15,8.84,11.18-4.35,7.78,2.74,13.12,10.47,13.97-1.83,6.97-3.51,13.97-5.08,20.99-6.79,30.42-11.47,61.26-17.04,91.92-2.45,5.74,15.14,9.96,15.64,11.56l-3.39,57.41c-12.95,6.14-43.37,10.38-46.94,26-3.85,16.9,20.89,19.53,33.29,18.8,8.77-.51,46.35-8.7,51.1-14.83,3.77-4.87-.14-20.35-1.14-26.37l.32-1.59,9.92-48.69c21.66,2.47,43.38,3.18,65.2,2.19l.87.83c1.49,14.83,5.63,29.26,8.05,43.93.65,3.95,2.51,10.96,1.87,14.6-1.05,6.05-17.89,20.17-22.28,26.67-9.87,14.62-6.27,22.2,11.38,25.91,20.63,4.33,41.2-.63,52.58-18.2,10.04-15.51,1.71-26.23-4.97-40.97l-1.22-61.34c1.58-.67,3.45-1.27,5.3-1.96,4.09-1.53,8.05-3.54,8.33-7.9l-16.57-108.49c10.4-2.54,16.56-9.88,19.81-19.23,1.51-4.35,1.73-11.15,3.66-14.63.55-1,1.75-2.44,3.3-4.12,4.64-5.02,12.42-12.13,15.4-15.52,9.55-10.88,25.97-29.88,27-44.15.62-8.71-2.71-14.15-6.87-21.46-2.48-4.37-12.22-16.73-13.02-20.08-1.23-5.16,11.52-16.26,17.57-15.74,2.52,7.17.72,13.83-1.15,20.84,1.46,1.33,7.49-5.86,9.87-6.03v454.99H3.62v-360.16c3.05,1.44,5.27,5.5,6.43,8.47.84,2.16-.24,5.21,2.57,5.78,1.28-.28,3.16-14.01,7.65-16.38,1.05-.55,1.68-.88,2.57.17,2.12,2.76-2.35,17.07-3.57,20.8.07.41,1.43.83,1.61.81.86-.09,7.47-8.53,9.47-10.06,2.4-1.84,5.04-2.97,7.85-4.1,1.84.2-5.54,13.54-6.67,14.53,3.92,3.33,5.78-5.22,7.95-6.89.72-.56,9.6-3.33,15.77-4.93,3.17-.82,5.63-1.33,5.89-1.07l-14.57,90.72c-1.04,5.91,13.89,7.05,14.59,9.86l-4.67,109.07c-.23,8.31,13.06,10.31,18.35,5.82,1.73-1.48,1.69-2.67,2.01-4.03.14-.63.36-1.28.85-2.02,10.8,5.47,37.15,6.97,46.8-.28,6.09-4.58,5.85-10.98,2.84-17.62-4.56-10.11-15.53-20.76-20.3-26.28l9.65-55.09,22.42-.29,17.91-.23,2.95,52.9c-.01.36-.04.73-.08,1.11h-.01c-.6,6.3-4.19,15.79-1.24,20.94,4.69,8.15,37.14,14.05,46.91,14.95ZM570.79,582.93c.49-6.63-10.53-10.64-16.47-9.99-10.31,1.12-25.34,13.81-4.78,15.19,4.32.29,20.84.33,21.25-5.2ZM326.72,505c.64-.54,6.47-7.8,5.78-8.4-3.47-1.34-9.26,6.94-7.55,8.77.8.02,1.13.17,1.77-.37ZM244.55,633.57c4.29.42,24.02.66,22.05-6.52-1.75-6.37-12.02-8.36-17.91-7.52-9,1.29-21.58,12.32-4.14,14.04ZM49.83,742.71c6.36.64,31.9,1.8,31.68-6.81-.25-10.21-16.53-14-25.16-12.78-11.51,1.64-29.93,17.23-6.52,19.59Z" fill="#fff"/>
  <path d="M23.67,612.26c-.62-1.15-5.75-7.97-2.9-8.77,2.6-.72,8.7,12.27,5.8,13.15-2.57.31-2.03-2.78-2.9-4.38Z"/>
  <path d="M19.18,310.37c9.62-.96,16.65,4.94,25.96.4,1.99,1.17-.17,2.62-1.6,3.39-8.96,4.82-20.87-4.31-30.9.47-4.15-2.35,4.12-4.02,6.54-4.26Z"/>
  <path d="M18.12,415.55c-1.53,13.87,1.33,28.59,12.87,36.87,3.53,2.53,9.03,3.48,11.29,5.24,4.14,3.24,5.12,8.48,11.88,11.81,8.38,4.14,28.35,5.13,28.48-7.41l2.59-.96c1.44,4.55-2.69,8.07-3.19,11.08-.43,2.62-.67,5.74-.79,9.15l-2.34-.07.25-8.24c-4.88,1.6-9.9,2.57-15.11,2.19h-2.91s0-.54,0-.54c-7.24.01-12.1-4.62-16.86-9.03-1.35-1.26-2.49-3.69-3.76-4.68-2.25-1.77-7.23-3.06-10.35-5.03-13.56-8.6-16.65-24.13-14.85-40.72l2.8.34Z"/>
  <path d="M63.47,287.74c.94,5.21-3.52,7.99-5.51,12.62-3.79,8.82-3.66,17.66,2.46,25.48-11.94,9.69-20.62,22.59-27.44,35.91-6.62,12.92-15.53,33.92-17.66,53.46-1.8,16.59,1.29,32.12,14.85,40.72,3.12,1.97,8.1,3.26,10.35,5.03,1.27.99,2.41,3.42,3.76,4.68,4.76,4.41,9.62,9.04,16.86,9.03v.55l.04,7.33-6.56,1.7-13.8,3.57c4.96-13.23-11.81-3.66-15.69,1.1,5.25-19.41-6.41-22.35-13.08-4.39-.78-1.92-1.81-4.14-3.2-5.75-.93-1.08-2.74-2.08-3.96-2.76-.74-.41-1.27-.69-1.27-.81v-186.92l56.98-.52,2.87-.03ZM8.28,354.07c5.62-2.94,10.57,1.03,15.67.86,2.03-.07,7.01-.84,6.4-3.6-6.07,2.16-12.43-1.69-17.73-1.11-2.12.23-5.69,1.58-4.34,3.85ZM12.64,314.63c10.03-4.78,21.94,4.35,30.9-.47,1.43-.77,3.59-2.22,1.6-3.39-9.31,4.54-16.34-1.36-25.96-.4-2.42.24-10.69,1.91-6.54,4.26Z" fill="#fff"/>
  <path d="M30.35,351.33c.61,2.76-4.37,3.53-6.4,3.6-5.1.17-10.05-3.8-15.67-.86-1.35-2.27,2.22-3.62,4.34-3.85,5.3-.58,11.66,3.27,17.73,1.11Z"/>
  <path d="M19.27,497.34c1.22-3.73,5.69-18.04,3.57-20.8-.89-1.05-1.52-.72-2.57-.17-4.49,2.37-6.37,16.1-7.65,16.38-2.81-.57-1.73-3.62-2.57-5.78-1.16-2.97-3.38-7.03-6.43-8.47l1.27-2.48c1.22.68,3.03,1.68,3.96,2.76,1.39,1.61,2.42,3.83,3.2,5.75,6.67-17.96,18.33-15.02,13.08,4.39,3.88-4.76,20.65-14.33,15.69-1.1l13.8-3.57.63,2.45c-6.17,1.6-15.05,4.37-15.77,4.93-2.17,1.67-4.03,10.22-7.95,6.89,1.13-.99,8.51-14.33,6.67-14.53-2.81,1.13-5.45,2.26-7.85,4.1-2,1.53-8.61,9.97-9.47,10.06-.18.02-1.54-.4-1.61-.81Z"/>
</svg>