<?xml version="1.0" encoding="UTF-8"?>
<svg id="Camada_1" xmlns="http://www.w3.org/2000/svg" version="1.1" viewBox="0 0 595.3 841.9">
  <!-- Generator: Adobe Illustrator 29.0.0, SVG Export Plug-In . SVG Version: 2.1.0 Build 186)  -->
  <path d="M.1.9C-1.9-2,595.2,1,595.1,0v842c0-1-597,1.9-595-1h594V1H.1v-.1Z" fill="#fff"/>
  <g>
    <path d="M532.8,796.1c.2.3.2.8,0,1.3,1.1.5-.5-2,0-1.3Z" fill="#fff"/>
    <path d="M43,511.1v-.2h0v.2Z" fill="#fff"/>
  </g>
  <path d="M512.4,382.6c.4,9.4-6.2,25.6,6,28.5-4.8,11.5-16.1,38.3,7.9,27.3-.3,7.2-4.5,14.9-2.5,22,1.9,6.9,5.9,4.9,10.8,6.2s3.8,2.3,5.4,2.5c2.3.2,7.5-3.4,8.3-2.7l10.5,130.6c-.7,1.1-8.3,3.4-10.1,3.9-49.8,12.6-117.8,9.2-168.1,0s-20.6-4.5-22.7-6.2,0-17.7,0-21.9c2.6-64.9,4-130.4,18.9-193.9,7.3,2.3,14.1,5.3,21.7,6.7,37.3,5.9,77,5.4,113.8-2.7v-.2h0l.1-.1ZM399.8,397.5c-2.7-.7-2.3,2-2.7,3.8-1.6,7.1-2.9,16.4-3.3,23.6-.3,6-.7,49.3,1,51.3,2.5.7,2.3-1.7,2.4-3.5.5-12.8-1.3-26-.5-38.9l3-36.3h.1ZM434.7,454.3c-2.4-3-2,5.4-2,6.5,1.1,18.2,7.4,43,13.5,60.3s3.3,11.2,7.4,14c-4.7-17.5-10.9-34.8-14.7-52.6-1.9-9.1-2.7-19-4.3-28.1h.1v-.1ZM519.4,558.9l-16.4-68.7c-1.7,1.1-1.4,2.7-1.5,4.4-.9,12.6,6.4,37.6,11,49.9l7,14.4h-.1Z" fill="#fff"/>
  <path d="M532.7,240.8c-5-3.6-21.9-12.6-27.6-13.3-3.6-.4-5,.6-7.7,6.8s.4,15-.6,22.3c-1.7,12.1-17,21.7-28.7,20.6-4.7,14.9-10.4,13.2-20.1,21.3-1.8,1.9-2.2,4.3-3.2,5.3-3.7,1.6-5.2,3.2-8.4,4-3.1.8-6.3.7-9.8.2-8.8-1.3-14.2-8.7-15.2-10.6-3.8-7.2-4.8-9.2-9.9-16-1.3-1.7-4-7.6-4.4-8s-1.2-1.4-2.5-1.7c-2.7-1.9-3.3-3.6-3.3-3.6,0,.3-4,1.6-5.1.9-7.7-4.5-12-12.3-10.6-22.7-.6-.8-5.5,3.3-6.4,4-10.7,8.8-18.5,22.6-25.3,34.5,3.3,7.1,10.7,12,11.8,20.2-.7.8,4,6.7-4.9-3.8s-15.7-22.8-28.4-30.1c-2.8,6.4-2.5,8.5-7.3,19.6s-19.5,40.7-27,48.7c-1.8,1.9-4.3,2.9-6,4.9,24.9,18.3,66.1,41.9,91.5,11.8-8.7-18.2-1.8-59.5,2.3-79.5.4-1.5,1.2-5.1,2.9-5.6.5,14.9-3.8,29.7-5,44.4-.7,8.9-2.1,25.3.6,33.3,1.1,3.1,3.4,6.1,6.1,7.9,33.8,13.6,95.8,9.1,131.9,3.1-.2-8.4,0-12.2-1-25.4s-4.6-27.8-4-40.9c0-1.6-.9-4,1.5-3.5,2.2,3.7,2.8,9.3,3.4,13.6,2.2,15.9,3.8,34.7,4.2,50.6.5,17.5-1.5,34.8-.9,52.3l-.6.2c15.2,4,32.4,5.4,48.2,4.1,3.5-.3,15.8-2,16.5-5.5,1.1-47.5-6.5-133.2-46.9-164.4h-.1Z" fill="#fff"/>
  <g>
    <path d="M48.3,218.9c-.4-.2-.9-.4-1.3-.6-1.9,2.9.3,1.4,1.3.6Z" fill="#fff"/>
    <path d="M48.3,218.9h0c.6-.6.4-.4,0,0Z" fill="#fff"/>
    <path d="M212.3,241.5c22.7-8.2,15.7-36.3-8.5-35.4-2,0-11.4,3.5-11.4.6,15.4-21.6-9.5-42.6-31.9-36.9-1.7.4-9,5.4-9.9,4.5h-.2c12.6-25.4-21.1-45.5-38.4-23.8-2.6-4.3-2.5-9.3-4.9-14-18.2-31.3-69.9-15.3-67.3,21-.7.8-8.4-4.9-10-5.5-8.5-3.1-19.6-1.9-24.7,6.2l-.2,73c5-2.3,11.1-.2,15.2,2.8.6-12.2,16.4-20.9,28.3-15,.3-.6,1.4-1.2,1.8-2.6.5-1.2.7-1.4,1.1-2l2-4c14.2-16.6,52.2-13.6,51.2,12.9,2.9-.6,4.4-2.4,7.6-2.9,12.9-1.8,24,4.4,25.3,17.9,17.9-7.4,36,9.3,23.9,26.4,3.3,2.5,7.4,2.5,10.9,5,14.5,10.3,4.3,33-11.5,35.2-5.7.8-14.9-2-16.7-1.7s-4.1,3.7-6.9,5c-2.8,1.3-6.1.7-9.2,2.7-3.1,2-12.8,14.1-16.9,18s-20.6,16.4-21.4,20.4c-.5,2.8.3,6.4,0,9.4,12.5,1.7,23.1-3.9,24.9-16.9,5,2.1,7.9,6.7,13.7,7.7,16.7,2.8,26-4.6,24.2-21.7,7,3.1,10.8,6.3,18.8,4.3,11.6-3,16.2-11.8,13.6-23.3,4.5-2,3.5,1.9,14.1-1.9s13.7-17.1,6.4-25.5c-1.8-2.1-5-2.8-5-5.5,12.8,1.4,28.8-12.2,21.7-25.2l-9.7-9.2h0Z" fill="#fff"/>
  </g>
  <path d="M522,151.8c5.5,7.4,7.3,12.5,6.3,22s-1.9,4.5-2,7.1c-.5,14.4,20.1,19.5,18,39.8s-2.9,7.9-1.9,13.9,9.2,11.5,7.9,18.5c-11.2-14.3-27.1-24.5-44.8-28.9,2.7-13.9,0-27-3.9-40.2l-3.1-.6c.7,12.1,7.6,29.1,2.2,40.6s-6.1,6.7-7,11c-1.3,6.2.6,14.4-.2,20.7-1.2,9.7-13.6,18.3-22.9,18.4.2-3.5,0-7.6-1.8-10.7s0-1.7-2.2-1.3c.9,9.4-.9,18.7-7.9,25.4s-8.4,4.8-11.5,7.4c-7.2,6-5.9,11.2-18.8,9.9s-11.2-7.6-15.5-15.4c-4.7-8.4-12-11.1-12.9-23s2.2-7.7-.6-10.3c-2,0-3,11-2.5,12.9-11.5-3.2-19.4-9.1-17.7-22.2.5-3.7,2.8-7.5,2.8-11.2s-2.5-7.2-3-11.1c-1.5-12.1,3.2-26.1,9.4-36.3-.7,4,5.1,10.4,5.3,12.6.3,3.5-7.9,13.2-2.3,18.3,2.9-6,2.7-13.1,7.5-18.4s10.7-7.3,14.7-7.3,5.1,4.1,8.8,4.7c9.4,1.5,11.5-4.9,22.4-1.4s16.8,12.6,20.4,23.4c3.6-1.6.1-10.6-1.5-12.9,8.2-2.4,14.7-10.9,18-18.4s3-12.7,4.5-14.5c2.5-3.1,1.4,4.2,4.5,3-2-13.1-13.3-23.4-10.9-37.8l4.9-1.5c-1.2-2-2.8-1.3-4.5-1.5-8.4-1.3-16-1.5-24.1-4.8-11.3-4.5-21.8-16.2-20.2-29.1-3.4,3.4-5,8.3-8.4,12-5.1,5.4-14.3,10-21.2,12.7-6.9,2.7-14.5,3.8-21.2,6.7l3.1,3.1c-.7,5.7-2,13.1-2.1,18.7-.1,8.5,2.1,17.7,1.1,26-1.3,11-12.2,21.7-12.1,37.8,0,5.8,4,12.9,3.1,17.9s-14,11.6-16.9,15.5c-1.8-5.8-2.7-9.2-.7-15.2,2-6.2,9.6-12.2,10.6-18.3,1.5-9.6-5.9-15.9-4.9-25.9,1.1-11.3,10.3-20.5,11.7-31.1s-1.8-18-.5-27.4c8.1-57,115.3-66.8,135-9.9,4.5,13.1.8,14.3,9.9,26.5h-.4v.1ZM449.6,220.2c2.6-2.9-9-9.6-11-10.5-14.4-6.6-26.5-3.9-36.9,8,1.8,2.3,1.5,1.1,3.1.1,8.9-5.3,11.5-8.9,23.3-7.6s14.6,7,21.4,10h.1ZM435.7,220.2c-3.6,1.3-10-2.6-12,1,4,2.2,7.4,2.3,12,2v-3Z" fill="#fff"/>
  <path d="M5.3,233.2c7.8-1.4,11.8,3.4,16.9,8-.2-12.4,9.4-22.4,22.2-19.7,12.8,2.7,4.7,3.3,7.7,2.8-.7-4.5,1.8-7.8,4.5-11,14.8-17.6,48.3-11.3,45.4,15,3.3.6,5.3-2.5,8-3.5,12.7-4.6,25.5,2.7,24.1,16.8l1.3,1.6c19.7-11.6,36.1,8.3,19.4,24.9,7.2,1,16,1.3,19.4,9,7.3,16.1-10.9,28-25.6,23.6-2-.6-3.5-3.1-6.1-2.8-7.6,13.5-25.2,11.1-32.5-1.4,7.2-3.1,12.9-8.3,13.9-16.4-4.1,1.1-4.8,6.6-8.2,9.3-6.1,4.7-14.5,5.4-20.1-.4s-3.1-6.4-4.8-9.2c-2.7-4.6-5.5,2.8-7.7,4.8-4.8,4.4-10.3,6.1-16.6,7.3h-11.9c-1.5,2.8,7,3.7,7.4,4.2.8,15.5-13,24.7-27.3,18.9s-9-6.5-8.4-11c-7.3,2.6-12.1,9.7-20.9,8v-78.7h0l-.1-.1Z" fill="#fff"/>
  <path d="M181.4,547.1h-.1c-6.4-1.9-15.4-6.7-18.4-9.7-1.5-.3-2.5,5.4-6.7,7.7-8.1,4.4-20.7.4-28-5.1-6.1,5.8-13.3,11.2-22,11.9-3.2.3-10.6-1.4-12.9-.9s-.2,5.5-.5,12.4-4.1,18.6-11.4,20.5c-9.8-18.6-27.8-4.1-20.7,12.6,3.3,7.8,12.7,12.8,20.6,8.3,8.5,32.2,55.1,49.7,82.6,29.7,28.3-20.4,21-57.2,17.5-87.4ZM72,584.5c-1.5-1.3-4.5,0-5.1-2.6,9.7-3.5,10,6.6,13,12.9-6.1.9-5-7.5-7.9-10.3h0ZM105.9,567.5c-.5-4.8,4.3-3,7.2-3.7,2.9-.8,7.5-1.9,10-3s6.6-5.3,9.3-5.6,4,3.2,2,5.5h0c-3.1,3.5-26.8,12.5-28.6,6.8h.1ZM122.9,586.7c-7.3,1.4-13.1-6.4-7.5-7.6,1.7-.4,4.2,1.1,6.7.8s3.7-2.4,5.3-2.8c8-2.1,2.8,8.2-4.5,9.6ZM150.9,621c-8.2-2.3-12.7,1.7-20.2,3.7-.4-2.3,1.1-3.6,2-4.4,5.8-4.7,20.7-5.2,25.9,1-1.3,3.3-1.3,1.4-7.7-.3ZM161.6,604.3c-2.9,2.8-13,5.4-14.9,2.4h0c-.3-.6,0-2,0-2.9,7.2,3,16.1-2,13.7-10.3-1.1-3.7-5.3-8.4-5.3-15.6,3,8.1,15.1,18.1,6.5,26.4h0ZM161.6,575.9c1.5.2,3.6-.5,4.8.2h-.1c.5.3.6,1.8,1.2,2.2,3.8,2.4,8.1-2.2,9-1.5,2.5,12.2-16,10.8-14.9-1v.1ZM160.6,557.5c.9-3.7,4.6.7,9.4,2.5s13,.8,12.5,6.9c-4.8,2.6-23.4-3.4-21.9-9.4Z" fill="#fff"/>
  <path d="M5.1,37.8c15.7-11.3,33.9-6.4,40.4,12,4.2-8.6,6.3-16.6,15.1-21.7,21.1-12.2,48.5,2.1,38.2,27.7,4.3,1.1,6.5-2.3,10-3.5,15-5.2,30.6,5.6,22.9,21.4,6.4,0,12.6-1.7,13.9,6.4-.6,2.9-13.5,4.4-16.3,4.6-33.1,2.3-70.3-.8-103.7-.8s-13.8,1.6-20.4.8v-46.8h0l-.1-.1Z" fill="#fff"/>
  <path d="M314,576.4l-3.4-33.4c-13.5-4.1-23.6-12.7-32.9-22.9-8.1,13.6-22.7,23.8-38.2,27.1-1.8,11.8-9.5,57.2-2.9,65.3h0c2.2,2.7,24,9.6,28.3,10.1,27.9,3.2,51.2-17.8,49.2-46.2h-.1ZM259.3,573c-4.3,3.7-15-1.8-9.5-8,3.6,3.1,7.9,2.5,11-1,1.2,1.6,2.7,5.4-1.5,9ZM244.3,555h0c-.2-5.1,5.8-4.7,10-6.4,2-.8,9.2-6.2,10-3,1,3.8-15.6,11.3-19.9,9.4h-.1ZM288.2,604.8c-3-1.5-6-2.3-9.4-2-5,.3-13.1,7.4-12.5,0,5.2-1.4,9.8-3.4,15.4-3,2.9.2,7.4,1,6.5,5ZM292,583.1c-1.2,5.8-9.2,6.9-14.1,5.6-1.3-.3-1.4-2.6-.7-2.4,4.2,1.1,10.6.2,11.8-4.2,1.2-4.4-3.9-9.4-5.6-12.9s-1.4-7.4,1.8-6.3h0c.6,7.3,8,14.4,6.8,20.2h0ZM295.4,571.7c-1.2-.7-4.4-6.7-2.2-8.3,2.2-1.6,3.7,1.8,6.4,1.6s3.6-4.8,6.1-2.1c2.8,5.6-5.7,11.4-10.3,8.8ZM308.2,549.5c-1.3,4-17.4.5-18-5-.2-1.3.4-3.3,1.5-3.5h0c2-.4,5.8,4.2,8.2,4.8s9.5-.3,8.2,3.7h.1Z" fill="#fff"/>
  <path d="M236.3,455.4c.1-7.8-5.9-20.9-14.4-21.9-4.5-.6-9,.6-13.5.6-4.9-17.6-20.8-21.8-34.3-9.6-2.8-4.9,1.4-4.1-6.1-14.9s-20-10.6-29.3-2.1h-.3c-3.8-22.9-33.7-28-49.3-12.9-1.9,13.7.5,27.3,2.5,40.8,9.1-.8,16.6,1.6,24.4,6,1.3-1.2,2.5.3,1-3-.7-1.6-1.6-3.4-2.5-4.4-.5-.5-.7-.9-1.1-1.5-.8-1.2-2.1-3.4-2.8-4.7-2-3.4-4.6-16.6,1.7-19.9,2.7-1,6.8.9,11.7,7.5,3.7-10.3,14.3-6.4,15.5,3.5.8,6.3-.7,11.8-2.1,17.8,10.2,4.8,15.9,19.7,4.1,26.5h25.9c.2-3.5-2.6-6.6,1.5-8.7l7.5,6.8c-.9-15.4,6.7-16.1,8-1,1.7,1.8,6.7-8.1,9.5-4,1.6,2.3-1,6.6-.5,7l57.4,1.1c1.8-10.1-6.5-11.5-14.5-9h0Z" fill="#fff"/>
  <path d="M122.4,309.8c-10.4-4.2-10.1,2.9-17.6,8.5l-18.8,9.4c0-3.1-.2-6.2,0-9.2,0-6.6,7.3-30.6,2.5-33.4-6.9,5.8-13.1,9.9-22.3,11.1l-6.2,41.7c0-4.3-3.7.5-13.4-3.9-10.3-4.6-15.1-16.7-22.9-24.9l-6.2,5.4c2.5,7.7,7.1,15.1,12.7,21.6,5.6,6.5,21.5,17.3,22.3,20.6,1,4.1,3.4-.7,1.7,18.1-1.9,19.9-7.1,44-10.1,63.8,10.6-3.9,18.2,5.2,19.5,15,5.8,1.2,4.4-2.5,7-6,4.4-5.8,11.1-8.5,17.5-11.6-5.2-26.8-5.5-57.6-2-84.5,1.7-11.5,13.6-16.3,19.8-22s12-12,17.9-18c.3-2.2-.4-1.2-1.4-1.6h0v-.1ZM59.9,429.4c-.4.1-.8-.7-1.3-.6-.2-.6-.7-.7-.7-.9-.2-7.7-.5-13.5,0-17.9,0-.4,1-2.9,2-2.5,1,7.4,1.6,14.4,0,21.9ZM63.9,368.6h0c-2.6,2.7-2.3-4.2-2-6.4.3-2.2,1-7.4,3-8.5l-1,14.9ZM76.8,377.6c-.9,10.1-1.3,20.2-1,30.4,0,1,2.6,13.7-.9,10.4-2.1-11.5-3.6-27.6-.5-38.9.5-1.7.3-2.3,2.5-1.9h-.1ZM81.9,353.2c-.4,1.6,1,2.9-2,2.4.9-4-2.5-13.3,3-13.9.2,3.9,0,7.7-1,11.5Z" fill="#fff"/>
  <path d="M475.1,140.4c-6.9-1.7-14.1-2.5-20.7-5.2-4.6-1.8-12.2-7.3-15.4-11v.2c-2.9-3.2-4.7-7.5-5.9-11.6-10.5,12.5-26.2,20.3-42.3,22.9-1.1,20.7-3.4,43,4,62.7,1,.7,4.9-3.6,8.3-5.2,3.4-1.6,7.2-1.5,10.2-3.8.1-13.1,5.9-25,10.5-36.9,2.7-.7,1.9,3.1,1.6,5-1.5,7.6-18.2,38.8.8,37.8,4.4,1,3-2.1,8.1-2.9,8.7-1.4,21.7,3.4,26.9,11.9,15.3-5,17.9-21.1,22.9-34.4-4.8-9.4-8.4-18.7-9-29.5ZM406.5,175.1c-5.9-.8-5.3-13.4-1-14.6,1.5-.3,4,.1,5,1.1h.1c2.8,2.8,1.7,13.5-4.1,13.5ZM415.8,146c-3.1,1-4.6-.2-9.3.7s-9.8,5.5-14.2,2.8c-2.9-4,8.6-9.3,11.2-9.8,5-1,15.5-.8,12.3,6.3ZM450.9,175.1c-6.2-1.2-7.2-12.9-1.6-14.6,8.1-2.5,9.2,12.7,1.6,14.6ZM469.5,150.3c-1.7,2.3-9-2.3-13.5-2.8s-16.1,2.3-14.2-4.4,22.7-2.8,26.2,1.3c1,1.2,2.3,4.8,1.5,5.9Z" fill="#fff"/>
  <path d="M334.7,399.9c2,2,3,5.3,4.3,7,2.4,3.2,4.6-3.2,6.1-4.8,6.6-7.4,15.1-9.8,24.9-7.5l-8,49.8c-3.1-2.3-1.6-7-6.5-7.9s-9.7-.1-13.4,4c.4-22.9-29.1-20.6-24.9,2-11.2-7.2-22.5-7.9-18.9,9-6.8-1.6-14.14.23-13.94,8.73l-23.46-2.73c-8.03,4.03-7-3.3-11.7-5.2s-9-.1-9.8-1.3c-1.6-2.3-2.46-10.05-5.06-12.75,6.4-11.1,18.86-11.15,29.86-6.75.4-19,15.5-36.6,33.7-22.6,3.8-16.9,25.3-20.4,36.9-8.7v-.3h-.1Z" fill="#fff"/>
  <g>
    <path d="M539.8,674.2c-4.3-14,7.3-11.6,15.6-5.7,1.5,1,8.1,9.4,9,8.3l2-13.9c-3.1,1-11.9,0-13-2.9s-.3-7.6-1.2-10.7c-1-3.4-7.5-5.7-3.4-12.8,3.4-5.8,11-4.2,11.6-4.7.2-.2.7-3.5,2.1-5.4,5.1-6.7,16.2-3.5,17,4.5,3.4-1.9,6.5-.9,10,0l-.5-111s-1.6.5-2.9-1.5-1.5-6.5-3.1-8.9c4.2-2.4,3.6,3.3,6,4.5h0v-50.3c0-.2-1.7-1.8-2-1.5l-1,15h-3c-.2-2.8.9-6.1-1.5-8h-16.4l13.8,116.9c-1.4,4.6-13.2,3.2-15.8,5.1-1.5,1.1.7,1.2-1.5,6.5s-18,7.2-23.4,8c4.2,15.7,5.4,22-10.3,29.1-15.8,7.2-38.9,9.7-55.7,6.6-1.8-.3-.6-1.6-5.4-2.6s-8.4,2.8-10.7-5.4c-2.3-8.2,13-14.1,18.7-20l-34.2-1.7c-1.1,1.1,3.4,11.2-5.7,15.7-9.2,4.5-53,11.9-62.5,10.1-.7,0-13.2-6.3-14-6.9-.3-.3-4.9-5.5-5-5.9-1.6-10.9,18.9-15,24-21.6-5.2-1.5-18.6-3.1-22-7.3-2.4-2.9-1.6-18.6-1.5-23.5.5-16.5,2.5-33.2,3.1-49.7.5-10.8,0-21.6,1-32.4h-15.4c-.5,0-1.8-1.5-3.8-.9s-1.8,4.4-4.7,3.9l3-12c-5,.9-5.2,8.6-10,8l-2-14c-2.6-.2-.9-2.3-2,1.5s-1.7,8.6-2,12.5c-1.4,1.5-8.4-10.5-12-9l6,11.9c-2.6,0,.8-1.9-5.5-3s-11,1-18.4-1.5c-12.6-4.3-17.8-13.7-3-19.9-7.1-8.5-22.6-5.2-32.9-6.5-1.5,7,6.3,4.2,11,5.5,1.7.5,2.3.3,1.9,2.5-7.5-.3-5.5.6-22.5,0s-35.8-4.1-52.8-2.1c-2.4.3-1.5,2.6-3.4,3.1l1-10-6.5,8-3.5-9-2,9c-1.8,1.3-6-6.3-6-8l-2,.5,2,9.5c-1.7,0-1.8-3-2-3h-30.9c3.7,9.3-5.8,6.5-8.8,8.2-.9.5-1.1,4-4.7,4.7-9.8,1.9-14.6-6.1-18.9-6.1s-5,3.4-9.1,4c-5.6.8-19.7.3-24.9-1.8-2.4-.9,0-1.6-5.2-3.8-5.2-2.2-22-1.2-27.4,1-2.9,1.1-2.4,4.7-5.7,4.7l5-16.9c-7.2.3-8.1,6.9-10.7,11.7-.6,1.3,0,1.7-2.2,1.3,0-5.8.6-11.4-1.6-16.9-.6-1.3,0-2.4-2-2-5.8,1-4.8,13.7-5.5,18-3.4-2.6-3.3-7.7-9-7l4,12.9-8-1,.2.2v131.5c5.5-2.4,14.7,2,18.4,5s9.5,12.8,9.5,17.4v15.4c12.5-11,28.7-16.2,44.8-19.9l-15.2-3.9c-2.6-1.6-3.8-7.5-4.9-8.8-.6-.8-2.7-.9-3.7-1.8-4.4-3.9-7.8-9-8-15.1,0-3.1,1.5-5.4.7-8.6-.6-2.3-4.3-6-5.3-8.7-2.6-6.6-1.1-11.6,2.3-17.6,1.3-2.3,6.7-7.9,7-9,.4-1.5-1.1-9-.7-12.7.6-5.6,5.4-13.2,8.9-16s11.1-4.5,12.6-5.8,4.5-7.4,6.7-9.7c19.1-20.3,76.9-24.4,94.9-.9,2.7,1.8,7.8,2.9,11.2,5.5,10.6,8,17,23.9,10.6,36.4-1.2,2.3-3.9,4.6-4.3,6.6-.4,2,0,4.3-.4,6.5-.3,1.4-3.3,6-.4,6.9,3-5.3,2.8-9.9,4.8-14.1,1.9-4,4.5-8.3,5-14.4.5-6.7-3.7-13.1-2-17.8,13.7-38.6,73.2-50.4,103.3-24.1,27,23.5,21.9,49.6,27.2,80.4,2.9,16.6,12.8,27.9,10.6,47-.6,5.6-2.6,3.5-4.6,17.3s7.2,27.2,4.7,43.5c-.5,3-3.9,6.7-3.9,10s6.2,9.8,4.9,14.4c1.8.2,1-2.3,1-3.5.3-7.7-3.4-22.5,7-25,7.3-1.8,12.3,8,12.9,7.5,6.3-31.5,40.2-33.1,32.9,4,27.5-13.7,28.6,10.6,14.9,27.9,23.9-6.6,31.6,16,15.9,31.9,14-.8,30,6.2,23.3,22.8-.9,2.2-6.6,8.7-5.4,10.1,13.2,1.9,16.3,17.3,5.3,24.8-2.7,1.8-7.7,2.1-9.8,5.2-2.1,3.1-2.7,10.3-6.5,13.4,1.4,0,4.9,2.5,5.5,2.5h95.2c-1.3-2.2-3.2-2.4-5.5-5s-7.7-14.2-3.8-15.8c12.5-.7,22.9,5,29.7,15v-17.9c-7,1.9-18.3.9-19.9-7.6,0-1.4.9-6.5,1.1-8-.3,0-.8.5-1.4,0-.7-.5-1.6-1.3-2.4-1.5-1.9-1.1-2.9-1.9-3.1-2.1-1.5-2-3.1-5-3.2-7.2,0-7.4,9.3-13.4,17.9-11.5,0-14.3,23.3-17.4,24-2,16-2.7,25,12.4,10.2,22.4,8.9,12.8-8.8,22.8-19.2,14.5l-1,19.9c2.3-1.9,4.6-5,6.9-6.9,7.9-6.4,12.8-6.9,23-6.1.4,8.9-7,13.8-12,19.9h15.9v-155.2l-5.9,6.4c-14.3,9.1-38.1,5.6-43.5-12h0ZM12.4,569.9c-.8,0-7.8-12.1-4-11.9,2.1.7,7.9,12.1,4,11.9ZM18.9,568.9c-3.1.7-2.3-1.7-1.9-4.4s1-6.5,3.9-7.6l-2,12ZM49.8,519.4c-1.2,1.1-2.4,2.2-2-1s4-6.6,3.5-10.4l-5.5,4.5c-2,.8-1.1,9.1-4.5,7.5s1.1-22.2-6.5-18.5c-4.6,2.2-.5,14.3,0,18.5l-10-9c-.3,2.4,4,7.2,1,9-1.7-4.4-6.3-6.2-5-11.9l9,2c-2.1-17.4,15.4-15.7,13,.8,3.1-3.5,7.5-8,12.5-5,1.3,1.7-4.3,12.4-5.5,13.5ZM336.8,522.1c-1.8,2-7.8-5.4-5-8s6,5.9,5,8ZM338.8,522.1c-1.1-1.4,1.8-8.7,5-8,.7.9-2.1,8.8-5,8ZM434.6,675.5h-.1c-3.3-2-2.6-7.1-3.9-10.5-.6-1.6-4.9-7.5-4-8.4,7.7,2.4,8.6,12.1,8,18.9ZM440.4,673.1c-.4,1.5.6,1.8-2,1.5-1.4-5.6.7-10.9,2-16.3l3-.7c-1,5.1-1.5,10.5-3,15.5ZM445.4,677.5c-.5-5,2.8-11.5,8-12.9.9.9-6.1,11.8-8,12.9ZM484.4,818h-.1c-2.5.6-.9,1.5-2.4-1.9s-3.3-8.3-3.5-12c2.5-2.8,7.3,12,6,13.9ZM490.8,816.2c-.8,1.4.1,2.4-2.5,1.9-1.2-2.3,3-13.9,6-11,.6.7-2.7,7.7-3.5,9.1ZM517.7,716.5h0c-1.3,4-5,2.8-6.4,5s2,8.5-4.2,12.2c-5,3-10.9,1.6-15.9-.4l1,17.9c6.2-6.8,14.6-11.3,24.1-9.9,1.2,31.7-55.5,30.1-51.4-1,2.2-3.2,16.2,2.7,19.3,4.8,2.1,1.4,2.5,4.2,5.2,4.2-1.9-3.4.2-17.2-2.8-17.9-7.2,3.1-16.4-.8-15.2-9.4.2-1.8,3.1-3.7,3.1-4.8s.4,0-4.4-3c-.7-1.1-1.6-1.9-1.9-3.4-.4-1.8-.6-2.5-.7-3.4.1-.8.1-4.2,2.3-6.2,4.1-3.9,15.9-4.6,16.3-4.9.3-.2-.3-.4-.5-1.5,0-.2.3-.5.3-1.2.1-2,1.9-2.9,2-3,7.7-4.4,17-2,19.9,5.8.6,1.6.4,2.4.9,3.2l.2,1.9c.5.8,7.2,1.4,8.8,5,.9,2.3,1.3,5.9,0,10h0ZM562,737.3l-6.6-10.9-1.4-4.1c2.1-.4.2-1.4,3.2,2.3s5.7,7.8,4.8,12.7ZM567.4,733.3c-.6,1.6,0,2.4-2.4,2,0-4-.5-12.1,4.9-12.9.5,1.2-2,9.3-2.5,10.9ZM572,736.4c-.6-2.1,4.3-12.6,7-10,.6.7-5.4,11.8-7,10Z" fill="#fff"/>
    <path d="M440.5,813.7c5.5-1.5,10.3-6.1,10.1-12-.4-11.7-16.1-8.1-16-11.9,7.9-4.1,16.1-19.2,7.9-25.9-.5-.5-6-3.5-6.4-3.5h-18.4c-.7-4.2,4.1-5.4,6-7.7,6.9-8.3,9.5-24-4.8-25.9-6.6-.9-10.1,2.1-16.2,2.7-1.1-1.1,5.1-4.8,9.6-18.8s-2.7-19.3-15.1-12.2c-3.2,1.8-4.9,5.2-8.4,6,1.6-8.7,6.9-34.4-8.2-32.7-11.6,1.3-17.3,19.9-18.7,29.7-2.3.5-.2,1.7-2.2-1.3s-6-15.8-12.1-11.6c-.9.6-3.4,4.5-3.6,5.4h-.2c-1,5,.7,12.8,0,18.3,11.4-8.7,21.7-5.5,22.9,9.5.4,5.3-1.3,9.4-1.5,14.4l6.8-4.2c2.4-10.1,1.9-21.9,3.9-31.9.3-1.6.8-4.2,2.7-4.7.6,12.1-1.9,23.9-3,35.9.3.4,6.3-4.1,7.6-5.3s5.9-9.3,7.8-8.6,1.4.9.6,2.5-8.4,9.8-8,10.4c23.9,4.7,21.6,27.3,13,44.9,21.4-8.7,39.1,9.2,19.9,26.9,4.5,1.3,9.2.8,13.7,3.8s4.8,9.3,10.3,7.8h0Z" fill="#fff"/>
  </g>
  <path d="M249.4,365.7c4.2-12.6,1.8-24.3-13.3-15.8-3,1.7-4.6,5.2-7.7,4.8.5-3.8-.8-9.9-3.3-12.7h.2c-4.5-4.9-15.6-4.4-20.5.4s-3.9,10.1-3.1,16.3c-5.1-1.1-10.6-3.6-15.7-.7-3,4.5-3.2,10.2.3,14.6,1.5,1.9,5.1,3,4.4,5.5-.7,2.5-10.8-.6-10,7.9s13.5,9.5,19.9,8.6c-.2,5.5,1.3,10.6,7.5,11,3.2.3,12.4-1.9,11.3-6.3-1.7-3.2-19.7-17.4-16.8-20.6,3.4,0,3.4,3,6.5,6s7.3,5.9,10.4,9l-5-29.9c7.7,1.7,10.6,11.1,14.5,16.9,2-3.5,1.3-10.4,6.5-11-2.8,9.4-5.4,19-5,28.9,3.3-1.7,9.9-9.9,12.5-11,1.3-.6,2.3-3.4,1.5,1.5s-21.2,15.3-11.7,19.7c5.5,2.6,12.8-.5,11.7-7.2,5.3,1.9,16.2.4,16.4-5.5.2-5.9-6.1-6.6-5.5-9,15.5-8.1,13.1-23.5-6-21.4h0Z" fill="#fff"/>
  <path d="M297.2,274l2-.5c-1.3-5.4-1.7-11.6-.2-17.1s4.7-7.1,4.8-7.8c.2-1.6-2.3-4.9-2.6-7.1-.8-5.7,3.7-17,9.3-11.3s7.8,20.2,8.3,23.6c2.7,18.7-7.2,37.3-16.2,53.1l-7.5-9.5c-.6-1.9,1.6-1.3,1.8-1.6,2.2-3-5.7-2.9-6.9-3.3-14.9-4.9-30.1-17.5-37-31.8s-4.8-10-3.3-14.6l18,18.9c.7.2.6-.8.5-1.5-.5-6.4-18.1-19.3-18-25.9s2.2-4.2,5.1-2c5.7,4.3,11.4,14.6,17.4,18.5s2.4.8,2.5-.5-10.8-13.7-12.4-15.5-8.6-7.3-9-8c-3.2-5.3,2-8.9,7-6s20.5,24.7,23.9,24.9c2.5-1.3-.4-4-1.5-5.4-2.4-3-18.4-19.8-18.7-21.2-1.3-4.4,2.6-5,6.1-4s28.2,26.3,28.4,29.3c-3.7,8.5-5.8,17.5-1.8,26.2h0v.1Z" fill="#fff"/>
  <path d="M572.3,220.2c-7.9-2.8-15-4.9-23.2-1.1-1.6,1.2-3.6,8.1-3.3,13.4s5.3,8.3,7.1,13.6,0,9,.7,12.2c.9,3.5,8,14.6,10.2,19.7,3.4,8.1,6.7,17.4,8.5,25.9,4.5-5.7,9-13.1,16.9-14v-102.6c-13.9,4.3-17.9,19.4-16.9,32.9h0Z" fill="#fff"/>
  <path d="M320.1,433.9c.9-4.1,7.92-7.88,12.02-6.58,8.6,2.7,4.38,19.08,7.48,19.78,4.7-2.3,9.07-12.87,15.57-7.67,4,3.2,1.11,5.88,1.31,9.98l5.94-1.19c-2.3,12.6-3.62,26.17-3.52,39.07l-18.9-1,1.1-7.3c-4.6-4.5-7.2,2.6-12,2.3.6-16.3-9.7-15.1-10,0-.9,1-7-6.6-12.3-4.9-4.6,1.7,2.2,9,1.3,9.8-6.6,1.3-11.7,1.6-17.8-1.6-12.4-6.3-6.7-13.8,4.9-13.4.3-1.4.2-1.3-.6-2.1-3.1-2.9-10.5-7-6.8-12.9,3.8-6.2,13.9,1.6,15.5,0,0-4.6-2.78-7.48-2-12.5,1-6.4,10.5-1.1,13.5,1.5s5.79,6.83,5.5,3.5c-.4-4.48-.7-11.6,0-14.9h-.2v.1Z" fill="#fff"/>
  <path d="M512.4,362.7v15.9c-12,2.4-24.2,4.9-36.4,6-19.9,1.7-79.8,1.1-95.5-9.1-7.3-4.7-3.9-8.6-3.6-15.8,43.2,12.4,91.6,12.7,135.5,3Z" fill="#fff"/>
  <path d="M127,437.3c-1.1-5.7-4.7-26.3-12.7-25.8-5.9.4,0,15.9,1.1,17.9,3.7,6.7,10.7,9.4.9,15.7-39.5-23.9-60.7,24.7-35.9,30.2h.2c5.3.9,12.3-.5,17.9,0,5.2-4-5.5-4.4-5.5-6.5,9.8-9.3.3-13.9-7-19.4,6.4.4,15.4,4.9,14,12.5.9,2.1-3,5.5-1.1,6.9s5.7,1.5,8,1.5c-1.1-2.9-1.1-4.7,2-6,1,7.3,6.1,12.3,13.6,12.9,1.4,0,7.2-.6,5.3-2.9-5.6-1.3-11-4-11-10.5s0-1.5,2-1.5c.7,8.1,6.9,3.9,9-1-2.3-.4-5.1-2.5-5-5,.9-.7,18.6,9.8,21.7-.7,3.1-10.5-8.5-17.4-17.5-18.4h0v.1ZM134.7,452.3c-6.9.8-6.8-5.9,0-5v5Z" fill="#fff"/>
  <path d="M494.9,73.2c9,8.7,12.7,20.9,11.5,33.3-25.6-27.2-64.6-27.8-97.7-15,.6-11.4,10.9-21.8,20.6-26.8,20.9-10.8,48.6-8,65.6,8.4h0v.1Z" fill="#fff"/>
  <path d="M569.2,412.5v20.4c0,2.3-4.7,15.1-6.2,17.8-2.1,3.9-5.4,8.5-9.3,10.6.4-6.5,3.8-12.5,4.5-19.4s.7-10.2-2-7.5c-.5,7.8-5.9,30.1-15.4,30.8-7.6.5,0-8.5,1.2-11.7,1.9-5.2,3.7-11.7,3.3-17.1-3.4,1.9-3.2,6.7-4.5,9.9s-8.3,22.4-13.2,14.3c-3.5-5.7,4.6-23.2,3.8-30.2-1.2-1.4-9.9,10.2-15,6.5-3.5-2.5,3.9-24.7,6.6-25.3,15.4,2.5,30.9,4.2,46.3.8h0l-.1.1Z" fill="#fff"/>
  <path d="M5.1,350.7c11.1,8.2,22.3,3.7,33-2.6,19.7,9.3,11.9,28.3,9.9,45.4-6.8-3-12.2.1-18.3,2.8-6.3-8.6-12.4-16.9-24.6-14.8v-30.9h0v.1Z" fill="#fff"/>
  <path d="M535.2,606.9c2,10.5,5.7,17.7-5.7,23.6-3.4,1.8-23.8,9.3-26.1,7.2,0-3.4,4-4.5,6-6.5,1.5-3.1-5.1-.9-7,1s-4.1,10.6-9,7.1.6-7.5,2.6-9.6,5.5-3.2,1-3-8.9,6.6-8.5,12c-14.5.9-6.7-7.2,0-11.9-6.5-.8-12.4,4.3-11,11l-7.9-1.1c-1.4-6.4,5.3-7.5,7.9-10.4,2.4-2.7-1.7-2.7-4.4-1.4-6.9,3.5-5.4,12.4-11.7,10.4-7.3-2.4,2-10.6,5-13,17-13.9,27.2-10.4,47.3-12.5,20.1-2.1,20.1-4,21.3-2.9h.2Z" fill="#fff"/>
  <path d="M437.7,610.8c1.2,12.2-1.3,12.8-11.8,15.7-7.4,1.8-55.1,13.4-57,4.7-.7-4.4,10.9-8,13.7-9.1s2.7.6,2.2-2.2c-4.8-1-13.3,1.3-16.4,5s0,8.1-7.6,3.5c-1.7-5.4,5.9-8.2,9.9-10.3s2.8.7,2.2-2.2c-3-.2-6,.4-8.7,1.8s-4.6,5.6-8.3,6.2c.4-8.6,12.4-11.1,18.8-14.6s5.3-5,7.6-5.4l55.3,7h0l.1-.1Z" fill="#fff"/>
  <path d="M562.3,587.9c-3.7-38.9-8.1-78-10-117.1-.4-8.4,2.2-4.5,7.5-9.5,1,.7,1.3,1.3,1.5,2.5,3.8,22.4,5.3,45.2,8.1,67.6,2.2,17.7,6.2,35.7,6.4,53.4-1.6,2.7-10.3,1.8-13.5,3h0v.1Z" fill="#fff"/>
  <path d="M55.9,459.8c.9-5.5,6.4-4.6,2.2-13.2-5.1-10.6-16.8-3-18.1-4.3,1.4-7.4-2.6-16.1-10.9-11.4-3,1.7-2.2,5.5-6,4.4h0c-.1-12.5-15.3-10.7-17.5-3.8-2.3,7.3.9,23.8-.5,31.8,4-2.4,6.2-.3,9.9,1,.9-4.7,3.3-13.9,9.4-13,4.6,1.3,4.8,7.1,5.5,11,.4.5,8.2-8.5,12-3.6,2.1,3.3.8,7.1,0,10.5l14.9-1c-.6-2.9-1.8-2.9-.9-8.4Z" fill="#fff"/>
  <path d="M589.2,293.9v133c0,.7-8.4,5.8-7,10.5l-10-1,1-24.9c6.7-.6,10.4,0,11-7.4,2-22.8-2.6-55.7-6.1-78.6-.7-4.3-4-13.3-3.6-16.9s9-15,14.7-14.6h0v-.1Z" fill="#fff"/>
  <path d="M36.7,396.8c-4.5,1.7-5.4,5.5-9.7,6.7-1.7-11.5-9.8-19.5-21.9-18.9v41.8c6.6-5.7,10.8-4.9,17.7-.3,1.3.9,1.3,2.7,2.8,3.3,4.5,1.8,2-1.7,5.2-2.7,5-1.6,7.4,1.1,11.2,3.7l5.6-32.4c-2.5-3.6-7.4-2.5-10.9-1.2Z" fill="#fff"/>
  <path d="M199.4,630.7c1.9,8.8,3.7,17.4,3.1,26.4s-6.3,22.2-6.1,32.8,4,13.7,4,17.8c0,13.3-6.7,31.6-6.2,45.7l-2.7,9.7c-1.3-32.3,4.3-68-7.2-98.9-2-4.4-5.4-7.9-7.7-12.1-.2-5.5,16.1-22,22.9-21.4h-.1Z" fill="#fff"/>
  <path d="M289.9,296.2c1.2,1,11,13.8,10.8,14.7-6.7,9.7-9.5,25.7-21.5,29.9-4.7-14.8.5-31.8,3-46.8.3-.3,6.8,1.6,7.7,2.3h0v-.1Z" fill="#fff"/>
  <path d="M5.1,314.8h8.8c3.9,11.5,11.5,22.8,21.1,29.9-8.1,8.3-21.1,9.6-29.9,1.5,0,0,0-31.4,0-31.4Z" fill="#fff"/>
  <path d="M589.2,458.3c0,.2-3.1.3-4.5,2s-1.2,4.8-2.1,5h-18.3c.7-2.6-.8-5.8-.7-7.8s7.1-11.8,7-16c4.5-2.1,10.4-2,14.7.7,1-.7.5-10.1,4-11-.8,3.9,1,25.4,0,26.9v.2h-.1Z" fill="#fff"/>
  <path d="M89.8,321.8l3.5-27.9c1.4-2.3,4.2,1.1,6.2,1.8,6.8,2.3,8.7.9,12.1,8.9,1.4,5.7-20.8,18.3-21.8,17.2Z" fill="#fff"/>
  <path d="M230.4,433.4c-3.8-1.3-5.2-4.2-10-3,2.5-20.2,3.5-41.1-2-60.8,13,11.7,8.1,30.7,9,46.3s1.2,12.3,3,17.4h0v.1Z" fill="#fff"/>
  <path d="M60.9,312.8l-3,21.9c-9.2-2.7-17.8-7-22.9-15.5h15l10.9-6.5h0v.1Z" fill="#fff"/>
  <path d="M550.3,835c-12,2-22.7-5.4-25.9-16.9,11.9-1.5,22.9,5.1,25.9,16.9Z" fill="#fff"/>
  <path d="M562.2,687.5c-10-.4-20.9-9.2-19.9-19.9,11.3-1.4,19.6,9.7,19.9,19.9Z" fill="#fff"/>
  <path d="M581.2,818c-3.7,10.9-12.8,19.2-24.9,16.9,3.4-10.1,13.8-18.5,24.9-16.9Z" fill="#fff"/>
  <path d="M570.3,659.6l-3,17.9c1.7-.6,4.7-4.9,4.7-4.9,4.6-2.9,11.8-4.5,17.2-4v-10c-6.6,5.7-11.7,4.4-18.9,1Z" fill="#fff"/>
  <path d="M588.2,672.6c-2.9,9.4-11.3,14.6-20.9,14.9,1.8-10.3,10.3-17,20.9-14.9Z" fill="#fff"/>
  <path d="M133.5,412.7h0c-1.1-.7-3.4-.5-4.7-.2-2.2,1.3-.9,17,0,20.2,1,3.2,4.2,4.3,5.9.3s2.8-18-1.3-20.3h.1Z" fill="#fff"/>
  <path d="M66.9,457.3c.2,4.3-1.1,8.5,2,12-11.3.5-14.7-12-2-12Z" fill="#fff"/>
  <path d="M136.7,472.3c-2.1,0-4.2.2-6.2-.2s-5.4-1.7-4.7-3.2c3.3-4.2,11.4-2.2,11,3.5h-.1v-.1Z" fill="#fff"/>
  <path d="M8.1,475.2c-.1.1-3.1.5-3-.6v-6.4c1.5,0,3.3,6.7,3,7Z" fill="#fff"/>
  <path d="M133.7,646.7c.2,3-2.2,4.8-2.8,7.7s-.8,2.7,1.3,2.3c2.9-2.5,4.6-6.1,4.5-9.9,3.9-.3,8.4-.5,12.2-1.3,3.4-.7,5.2-3.7,9.4-2,22.3,9,28.1,33.9,29.3,55.5,1.6,29.9-.4,61.6,1,91.8-.2,4-5.8,6.3-6.8,10.2-3,11.8,6.5,21.4,15.7,26.7-2.8.8-5.5.4-8.3,1.7s-4.3,4.9-6.4,5.5c-6.4,1.9-11.5-1.1-17.2-2.8-1.1-1.2,6.7-6.6,7.8-8.6,6.5-11.8-4.7-22.7-16.8-20.3l11.6-12.8c9.9-14.2,8.4-26.7-8.4-33.5,2.2-11.9,5.1-24.1,6.6-36s4.4-39.5,2.6-42.2-1.4-1.2-2.5-1c-1.9,26-5.4,52-9.4,77.8-6.8,2.3-14.7-.9-21,3.9,3.1-8.6,8.5-17.3,3.7-26.6-6.4-12.4-24.1-8.8-34.1-3.3,3.8-11.8,8.7-25.2,4.3-37.7s-25.9-11.2-36.7-4.2c-1.6,1-8.6,7.8-9.5,7,8.1-23.6-3.6-51.1-31.9-38.9,4.1-10.3,18.9-15.9,28.9-19.4,10.1-3.6,23-2.4,22.9-16.5,12.4,15.9,29.6,25.4,49.8,26.9h.2,0Z" fill="#fff"/>
  <path d="M299.1,679c-.3-2.9-2.6-11.4-3.9-14s-.9-2.8-3-2.4c1.2,9.6,5.7,23.9,3.9,33.3s-6.8,9.4-8.7,13.2c-4.3,8.3-6.3,18.9-6.2,28.2l-7.4-9c-19.7-18.8-38.8-2.6-35.9,20.9-32.8-19.3-50.6,16.9-27.4,41.4-6.5-1.7-12.3-1.6-18.9-.5-1.6-8.4,2.4-15.8,3.7-23.7,3.1-17.6,4.6-35.5,7.7-53.1,1.3-1.7,1.1-.5,2,0,4.4,2.6,9.8,9.2,15.5,4.4-3.2-7.6-7.5-13.4-6-22.4l6.4,10c3.7,3.5,8.5,7.4,14,7,10.5-.7,1.7-9.3.8-15.8-2.7-18.4,12-30.3,11.8-48.6-.1-10.9-5.7-20.4-9-30.4,10.4,4.1,20.4,8.8,31.9,9v9c5,.8,1.4-7.9,4.5-7,15.5,8.3,29.7,12.6,36.1,30.7,1.6,4.6,5.4,23.1,5.1,27.4s-.5,1.8-.9,2.6c-5.9-.4-10.8,2.5-15.8,5.1-.4-5,.5-10.6,0-15.4h-.3v.1Z" fill="#fff"/>
  <path d="M206.4,831c1.7-1.5-9.1-6.9-10.4-8-6.5-5.1-15.4-14.9-9.5-23.4,5.5-7.9,16.4-7,24.7-4.8,1.3.4,9.2,5.1,9.1,1.8s-8.8-10.3-10.3-12.6c-7-10.7-11.7-27.2,2-34.6,7.8-4.2,12.6-3.6,20.3.3s7.9,6.5,8.4,6.5c2.3,0-.4-7-.5-8.5-.7-9.3,4.6-23.8,15.5-24.4,10.9-.6,22,14,26.9,22.9,1.4-.9,1.4-1.9,1.5-3.4.6-5.8,0-11.6,1.2-17.7,2.3-11.5,11.4-29.7,24.3-31.6,22.2-3.1,28.2,14.1,28.3,32.8,4.7-.5,5.4-6.9,7.5-9.9,3.1-4.4,11.5-7.5,15.4-2.6,6.7,8.3,0,21.8-3,30.4,3.8.7,5.9-3.8,8.2-5.3,24-14.4,39.5,2.4,30.4,27.5s-8.9,15.1-7.7,16.7c7.9-4.5,22.3-11.7,29.9-3.3,7.7,8.5-4.5,21.6-12,25.7,2,2.6,5.3.4,8.4.4,12.1,0,23.8,5.9,16.7,19.7-.7,1.3-8,9.3-8.7,9.3h-89.2c2.9-6.5,4.4-16.8,10-21.3,9-7.3,28.5-11.7,39.8-14.5.4-3.6,0-3.2-3.2-2.7-12.4,2-24,7.7-35.6,12.2l29.4-48.3c-1.6.8-4.4,3.4-5.5,4.8-17.2,20.8-29.3,45.1-39.4,70h-28.4l5.7-43.6,26.2-29.7c-1.6-1.5-4.1.5-5.5,1.5-7.3,5.3-13.8,15.6-20.4,21.9-.4-4.4,10.8-61.8,7.5-61.8-8.8,36.5-12.4,74.3-16.4,111.6l-20-.5c-13.2-23.4-29.6-45.7-50.8-62.3l39.8,49.3c.2,2.6-.4,1-1.7.7-4.6-.8-28.5-10.5-30.2-4.2,3.2.6,6.6.9,9.8,1.7,4.7,1.1,22.5,5.4,25.1,7.8s3.2,5.6,4.9,7.5h-87.7c.3-.9,4.2-4,4.5-4h14.7ZM263.1,755.5c-1-.7-3.5-.7-2.8,1.2,3.2,4.9,17.5,43.2,20.4,43.4,2.4.2.5-2.6.3-3.3-1.3-4.7-16.1-40.1-18-41.3h.1Z" fill="#fff"/>
  <g>
    <path d="M60,765.9c0-.2.3-.5.6-.9-.7-2-.8,1.9-.6.9Z" fill="#fff"/>
    <path d="M156,805.9c-1.1,0-10.7,2.7-9.4-.4.7-1.7,15.7-12.4,19.1-17.8,13.2-20.9-4.9-32.8-25.1-27.1-4.6,1.3-8.1,4.8-12.9,4.5-1.1-1,6.7-10.6,7.7-12.7,10.3-21.6-5.1-29.8-24.6-21.6-2.4,1-12,7.5-13,6.5,5.5-13.8,15.3-29.8,8.5-44.8-7.1-15.6-27-5.7-36.4,2.5-5.1,4.5-7,8-10.7,13.2-.6.9-.5,2.2-2.2.8s-.7-1.8-.2-3.2c7.5-19.7,13.5-54.2-19-48.9-3.9.7-6.2,3.5-9.7,4.3l2-22c-.8-14.4-8.8-28.5-25-26.4v43.5l4.5-14.9c1.7-.2,1.5,0,1.5,1.5-.2,11.1-4.4,16.9-6,35.9s1.1,40.1,0,59.3l21.1-40.2,9.3-12.6c.8,0,1.2-2.7.5,1.5s-11.1,19.2-13.7,24.2c-6.1,11.7-11.1,23.9-17.2,35.6v88.2h72.7c4.9-9.3,13.1-18.3,20.9-25.4,5-4.5,29.4-24.1,34.4-24.4,1.5,0,1.7,0,1.5,1.5-14.7,10.2-29.4,20.8-41.8,33.9,9.2-2.7,18.7-5.8,28.4-5.5.9,0,1.2.9,0,2s-4.7.4-14.9,3c-10.2,2.6-20.3,4.9-25.5,14.9h83.7c-.2-2.6-9.6,1.2-8-2.5s12.7-3.6,14-13.9-5.3-12.7-14.5-12.5h0ZM8.6,804.1c-6.3-19.2,16.1-9.8,23.9-3l6.5,8v-27.9c-10.2,7.7-24.6-1-17.9-13.3-12.8-6.6-7.8-25.1,6.9-20.6,0-16.7,24-17.6,23.9,0,5.6-3.2,14.9,4,14.9,8.5s-2.2,6.2-6.2,9.2c0,.2-.4.5-.5.8-.2.6,0,1.1,0,1.2-.2,1.1,1.5,2.5,1.6,3,.3.8.7,8.2-3,11.6-3.8,3.5-10.4,3.6-16.7-.4v25.9c6.4-7.2,13.2-14.3,23.5-14.9,2.7,0,5.4-.5,7,2-2.2,31-54.4,38.6-63.8,9.9h-.1ZM70.1,739c-.9,1.3-1.1,2.7-3.2,2.3h0c-1.1-1.1,11.4-22.5,13.1-25.2.7-1.1,3-5.1,4.3-4.7,2.2,1.6,3-2.5.4,3.3s-10.7,19.3-14.6,24.3h0ZM86.8,778.6c-1.7,2.1-4.3,5.9-6.9,6.5h0c-.3-1.9-.7-1.2,1-4.5s12.7-16.5,15.6-19.3c1-.9,2.2-1.7,3.4-2.1,1.1,1.2-11.3,17.3-13,19.4h-.1Z" fill="#fff"/>
  </g>
  <path d="M281.7,64.7c-2.7-9.7-15-6.4-17.4-8.1-.3-.2-1.8-5.6-3.7-7.7-6.9-7.5-16.4-5.3-24.3-1.1.7-4.7-3-10.6-6.3-13.6h0c-12.7-11.8-36.8-3.9-39.5,13.5-18.5-7.7-34.3,20.6-11.2,25.7,8.5,1.9,7.7.3,23.7.2,16,0,32,.9,47.8,1.1,6.6,0,33.7-.3,31-10h-.1ZM270.7,70.6c-27.2-1.7-57.8,2.5-84.6,0-27.4-2.5-11-28.9,8.4-16.9-2-28.2,40.4-29.1,38.9,0h0c.8.8,6.8-3.6,8.3-4.2,9.9-3.9,20.2.3,18.6,12.2,3.1.8-.9-2.6,8.2-1.8s14.9,9.5,2.1,10.7h.1Z"/>
  <path d="M225.9,144.4c16.8,1.7,51.8,1.5,68.8,0,20.7-1.8,7.6-22.7-7.5-16,0-10.1-10.8-8.2-17.9-7,.7-4.4-4.5-8.7-8.3-10.2-10.7-4.2-27,0-27.6,13.2-19.1-7-30.8,17.5-7.5,19.9h0v.1ZM235.4,129c1.5-4.1.6-5.8,3.5-9.5,6.1-8.2,23-8.6,27.3,1.6,1.1,2.6.6,5.4,2.6,7.4,3.1-4.1,10.3-6.9,14.2-2.7,1.8,2,.3,6.1,2.8,7.7,6-3.2,15.6-3.9,16,5l-6.1,2.9c-21.6-1.8-47.7,2.6-68.7,0-3.1-.4-10.1-2.9-10.5-6.5,1.1-9.8,12-7.7,19-5.9h-.1Z"/>
  <path d="M392.8,65.7c-1.7,0-3.5.3-5.2-.2-9.5-2.8-29.3-12.8-39.3-17.5s-14.4-6.3-12.3-8.1c7.3,1.8,15.1,5.2,22.2,8.2s22.8,9.9,31.7,15.2,2.7,1,3,2.5h-.1v-.1Z"/>
  <path d="M380.9,91.6c0,1.5-4.4,1.4-5.5,1.4-15.8.2-31.6-1-47.3-1.4v-3l52.8,3Z"/>
  <path d="M560.2,46.8c.5,2.1-1.1,2.3-2.3,3.2-5.2,3.8-15.8,9-21.9,12-2.5,1.2-16.2,8-17.6,6.8.3-2.7,5.8-4.8,8.3-6.2,10.8-5.9,22.1-11.3,33.6-15.8h-.1Z"/>
  <path d="M497.1,44.4c-.6.8-2.7,2.5-3.6,3.4-.3-3.4,1.6-6.5,3.2-9.3,5.5-9.8,15.2-21.3,22.7-29.6-.6,3-2.9,6.2-4.6,8.9-5.3,8.4-11.9,18.8-17.7,26.6h0Z"/>
  <path d="M508.6,701.3c.5.7,7.7,1.6,9.3,5.2s.8,7.6,0,10c-1.3,4.1-6,4.4-6.4,5.1-1.4,2.2,2,8.6-4.2,12.2-5,3-10.9,1.6-15.9-.4l1,17.9c6.2-6.8,14.5-11.3,23.9-10,1.2,31.6-55.5,30.1-51.4-1,2.1-3.2,16.2,2.6,19.3,4.8s2.5,4.3,5.2,4.2c-1.9-3.4.4-17.1-2.6-17.8-7.1,3.1-16.6-.9-15.4-9.5s2.1-3.9,2-5-2.4-1.4-3.3-2.8c-3.2-4.6-3.7-8.3-.6-13.1,5-7.8,11.7-3,14.6-4.8s.9-4,3.8-5.7c7.1-4.2,16.8-2.2,19.9,5.8s0,4.1.6,4.9h.2,0ZM481.5,716.4c-14.5,6.3-1.4,19.1,9.4,9,5.9,12.1,22.1,8.1,14.5-5.5.5-2.7,8.2.7,9.8-6.2s-3.7-8.5-9.8-8.7c-2.4-1.6,1.9-11-6.9-13.1-5.8-1.4-12.5,3-11,9.5-4.6-.5-6.7-3.4-11.7-1.2-4.7,2-5.4,10.5-1.2,12.7s9.2.8,7,3.5h-.1ZM489.5,760.2c-2-11-10.9-17.5-21.9-16.9-.1,11.5,11.4,17.9,21.9,16.9ZM513.4,744.3c-11.2.3-17.8,6.6-20.9,16.9,10.6-.6,18.1-6.8,20.9-16.9Z"/>
  <path d="M43,511.1c3.1-3.5,7.5-8,12.5-5,1.3,1.8-3.9,12.1-5.5,13.5s-2.3.8-2-1c.4-3.2,4.1-6.7,3.5-10.4l-5.5,4.5c-1.9.8-2.5,8.4-4.5,7.5-3.4-1.6,1.1-22.1-6.5-18.5-4.6,2.2-.6,14.3,0,18.5l-10-9c-.3,2.4,4,7.2,1,9-1.7-4.5-6.3-6.3-5-11.9l9,2c-2.1-17.5,15.6-15.7,13,1v-.2h0Z"/>
  <path d="M434.7,675.5c-3.4-2-2.6-7.1-3.9-10.5s-5-7.5-4-8.4c7.6,2.4,8.5,12.1,8,18.9h-.1Z"/>
  <path d="M443.6,657.6c-.9,5.1-1.5,10.5-3,15.5s.6,1.7-2,1.5c-1.5-5.6.7-10.9,2-16.3l3-.7Z"/>
  <path d="M484.5,818c-2.6.5-1.8-.5-2.4-2-1.6-3.4-3.3-8.2-3.5-12,2.4-2.8,7.3,12,6,13.9h-.1v.1Z"/>
  <path d="M562.2,737.3l-6.6-10.8-1.4-4.1c2.1-.5,2.3,1.1,3.2,2.3,2.9,3.7,5.6,7.7,4.8,12.7h0v-.1Z"/>
  <path d="M570.2,722.4c.6.7-1.9,9.4-2.5,11s0,2.4-2.4,2c0-4.1-.5-12.3,5-12.9h0l-.1-.1Z"/>
  <path d="M453.6,664.6c.9,1-6.1,11.8-8,12.9-.6-5.1,2.8-11.6,8-12.9Z"/>
  <path d="M8.6,558c2.1.7,7.9,12.1,4,11.9s-7.7-12.1-4-11.9Z"/>
  <path d="M494.5,807.1c.6.6-2.8,7.8-3.5,9s0,2.4-2.5,1.9c-1.3-2.3,3-13.8,6-11h0v.1Z"/>
  <path d="M19.1,568.9c-3,.8-2.1-2.4-1.9-4.4s1-6.5,3.9-7.6l-2,12Z"/>
  <path d="M579.2,726.4c.7.6-5.4,11.7-7,10-.6-2.1,4.2-12.5,7-10Z"/>
  <path d="M344,514.1c.8.8-2.1,8.8-5,8-1.2-1.4,1.8-8.7,5-8Z"/>
  <path d="M337,522.1c-1.7,2-5.5-7.5-5-8,2.8-2.6,5.9,5.8,5,8Z"/>
  <path d="M434.7,454.3c1.6,9.2,2.4,19.1,4.3,28.1,3.7,17.8,10,35,14.7,52.6-4.2-2.8-5.8-9.3-7.4-14-6.1-17.3-12.4-42.1-13.5-60.3,0-1.1-.5-9.5,2-6.5h-.1v.1Z"/>
  <path d="M399.8,397.5l-3,36.3c-.8,12.9,1,26.1.5,38.9,0,1.8.1,4.2-2.4,3.5-1.6-2-1.3-45.3-1-51.3.4-7.3,1.7-16.5,3.3-23.6s0-4.5,2.7-3.8h-.1Z"/>
  <path d="M519.4,558.9l-7-14.4c-4.6-12.3-11.9-37.3-11-49.9.1-1.7-.1-3.3,1.5-4.4l16.4,68.7h.1Z"/>
  <path d="M263.1,755.5c1.9,1.2,16.6,36.7,18,41.3s2.1,3.4-.3,3.3c-2.9-.2-17.2-38.5-20.4-43.4-.7-1.9,1.7-1.9,2.8-1.2h-.1Z"/>
  <path d="M449.6,220.2c-6.9-2.9-13.8-9.1-21.4-10-11.8-1.3-14.5,2.3-23.3,7.6-1.6,1-1.3,2.2-3.1-.1,10.3-11.9,22.5-14.6,36.9-8,1.9.9,13.6,7.6,11,10.5h-.1Z"/>
  <path d="M435.7,220.2v3c-4.5.3-8,.2-12-2,2-3.5,8.4.3,12-1Z"/>
  <path d="M39,781.2c-10.1,7.7-24.6-1-17.9-13.3-12.8-6.5-7.9-25,6.9-20.6.1-16.7,24.1-17.6,23.9,0,5.6-3.2,14.9,2.2,14.9,8.5s-6.4,8.4-6.8,10.1,1.4,2.8,1.6,4.1c1.9,13.4-9.3,17.9-19.7,11.2v25.9c6.4-7.3,13.1-14.4,23.5-14.9,2.7,0,5.4-.5,7,2-2.1,31-54.4,38.6-63.8,9.9-6.3-19.2,16.1-9.7,23.9-3l6.5,8v-27.9ZM49,751.3c-.9-6.6,0-13-8.5-13s-9.2,3.3-9.4,7.6,2.3,4.7-.5,6.4c-13.7-10.2-19.2,13.6-2.5,13,2.2,2-6.3,10.4-2.9,13.4,5.3,4.6,7.6,3,11.3.5s2.3-4.2,4-3.8c9.9,12.9,27.4.2,12.6-9.5,14-5.4,12.6-21.2-4-14.4v-.2h-.1ZM68.9,796.1c-12.5-1-24.9,9.5-25.9,21.9,12.8-.2,22.5-10.3,25.9-21.9ZM38,819c-1.7-13.4-13.4-23.1-26.9-21.9.7,15,13.5,21.1,26.9,21.9Z"/>
  <path d="M66.9,741.3c-1-1.1,11.4-22.5,13.1-25.2s3-5.1,4.3-4.7c2.2,1.6,1.1,1.6.4,3.3-2.5,5.8-10.7,19.3-14.6,24.3s-1.2,2.7-3.2,2.3h0Z"/>
  <path d="M79.9,785.1c-.3-1.9,0-2.9,1-4.5,1.7-3.3,12.6-16.5,15.6-19.3s2.1-1.7,3.4-2.1c1.1,1.2-11.3,17.4-13,19.4s-4.3,5.9-6.9,6.5h-.1Z"/>
  <path d="M134.4,560.7c-3.1,3.5-26.8,12.5-28.6,6.8-.5-4.9,4.3-3,7.2-3.7,2.8-.7,7.4-1.9,10-3s7.8-5.5,9.3-5.6c2.7-.2,4,3.3,2,5.5h.1Z"/>
  <path d="M146.7,606.7c-.3-.6,0-2,0-2.9,7.2,3,16.2-2,13.7-10.3s-10.8-9.8-5.3-15.6c3,8.1,15.2,18.2,6.5,26.4-2.9,2.8-13.1,5.4-14.9,2.4h0Z"/>
  <path d="M182.5,566.9c-4.8,2.5-23.4-3.5-21.9-9.4s7.6,1.8,9.4,2.5c4.8,1.8,13,.9,12.5,6.9Z"/>
  <path d="M127.4,577.1c8.1-2.2,2.9,8.1-4.5,9.6-7.3,1.4-13.1-6.4-7.5-7.6s4.2,1.1,6.7.8,3.7-2.4,5.3-2.8Z"/>
  <path d="M130.7,624.7c-.4-2.3.4-3.1,2-4.4,5.8-4.8,20.7-5.2,25.9,1-1,4.8-4.3.4-7.7-.3-8.3-1.6-12.7,1.7-20.2,3.7Z"/>
  <path d="M166.4,576.1c.5.3.6,1.8,1.2,2.2,3.8,2.5,8.1-2.1,9-1.5,2.4,12.2-16,10.8-14.9-1,1.4.2,3.6-.5,4.8.2h-.1v.1Z"/>
  <path d="M79.9,594.8c-6.1.9-5-7.5-7.9-10.3s-4.4,0-5.1-2.6c9.7-3.4,10,6.6,13,12.9h0Z"/>
  <path d="M285.2,562.9c.6,7.3,8.5,12.3,6.8,20.2s-9.3,6.9-14.1,5.6-2.2-1.5-.7-2.4c2.9-1.6,10.3,1.4,11.8-4.2s-4.7-9.1-5.6-12.9-1.4-7.3,1.8-6.3h0Z"/>
  <path d="M295.4,571.7c-1.2-.7-4.7-6.5-2.2-8.3s4,1.8,6.4,1.6,3.6-4.8,6.1-2.1c2.9,5.6-5.7,11.4-10.3,8.8Z"/>
  <path d="M291.7,541c2-.4,6.1,4.2,8.2,4.8s9.7-1,8.2,3.7-17.4.4-18-5,.4-3.2,1.5-3.5h.1Z"/>
  <path d="M244.3,555c-.5-5.9,5.8-4.7,10-6.5s9.2-6.6,10-3-15.6,11.3-19.9,9.4h0l-.1.1Z"/>
  <path d="M260.8,564c2.8,1.7,1,7.4-1.1,8.9-5.5,3.8-15.4-1.7-9.9-7.9,3.6,3.1,7.9,2.5,11-1Z"/>
  <path d="M288.2,604.8c-3-1.6-6-2.3-9.4-2-5,.4-13.1,7.4-12.5,0,5.2-1.4,9.9-3.4,15.4-3s7.4,1,6.5,5Z"/>
  <path d="M76.9,377.6c-.9,10.1-1.3,20.2-1,30.4s2.5,13.8-.9,10.4c-2.2-11.5-3.6-27.6-.5-38.9s.3-2.3,2.5-1.9h-.1Z"/>
  <path d="M57.9,410c0-.4,1-2.9,2-2.5,1,7.5,1.6,14.4,0,21.9-.3.3-2-1.3-2-1.5,0-5.4-.7-13,0-17.9Z"/>
  <path d="M82.9,341.7c.2,3.9,0,7.7-1,11.5s1,2.9-2,2.4c.9-4-2.5-13.4,3-13.9Z"/>
  <path d="M63.9,368.6c-2.5,2.7-2.1-5.3-2-6.5.2-2.2,1-7.3,3-8.5l-1,14.9h0v.1Z"/>
  <path d="M469.5,150.3c-1.7,2.3-10.1-2.4-13.5-2.8s-16.1,2.2-14.2-4.4,22.8-2.8,26.2,1.3,2.3,4.8,1.5,5.9Z"/>
  <path d="M403.5,139.7c5-1,15.5-.8,12.3,6.3-3,1-6.2.1-9.3.7-4.7.9-9.8,5.5-14.2,2.8-2.8-3.9,8.6-9.2,11.2-9.8Z"/>
  <path d="M449.3,160.5c8.2-2.5,9.2,12.8,1.6,14.6-6.2-1.2-7.2-12.9-1.6-14.6Z"/>
  <path d="M410.5,161.6c2.8,2.8,1.8,13.5-4.1,13.5-5.8-.8-5.2-13.4-1-14.6,1.5-.3,4,0,5,1.1h.1Z"/>
  <path d="M134.7,447.3v5c-6.9.8-6.8-5.9,0-5Z"/>
  <path d="M550,780.4c-14.7,3.4-1.6,25.4,11.8,12.8,7.8-7.4-3.2-14.8-11.8-12.8ZM548.2,785.6c2.9-4.4,8.1-2.1,11.9-.3,2,10.3-17.1,8.2-11.9.3Z"/>
  <g>
    <path d="M0,.9v840h594V.9H0ZM589.2,82.8h0ZM582.2,437.4l-10-1,1-24.9c6.7-.6,10.4,0,11-7.4,2-22.8-2.6-55.7-6.1-78.6-.7-4.3-4-13.3-3.6-16.9.5-4.9,9-15,14.7-14.6v133c0,.7-8.3,5.7-7,10.4h0ZM502.3,632.2h.2c-2.1,2.1-4.1,10.6-9,7.1-3.6-2.6.6-7.5,2.6-9.6.2-.2,5.5-3.2,1-3-6,.3-8.9,6.6-8.5,12-14.5.9-6.7-7.2,0-11.9-6.5-.8-12.4,4.3-11,11l-7.9-1.1c-1.4-6.4,5.3-7.5,7.9-10.4,2.4-2.7-1.7-2.7-4.4-1.4-6.9,3.5-5.4,12.4-11.7,10.4-7.3-2.4,2-10.6,5-13,17-13.9,27.2-10.4,47.3-12.5,3.3-.3,20.1-4,21.3-2.9,2,10.5,5.7,17.7-5.7,23.6-3.4,1.8-23.8,9.3-26.1,7.2,0-3.4,4-4.5,6-6.5,1.5-3.1-5.1-.9-7,1h0ZM380.5,600.9v-.2h0c-3.7-.8-20.6-4.6-22.7-6.3-2.8-2.3,0-17.7,0-21.9,2.6-64.9,4-130.4,18.9-193.9,7.3,2.3,14.1,5.3,21.7,6.7,37.3,5.9,77,5.4,113.8-2.7.4,9.4-6.2,25.6,6,28.5-4.8,11.5-16.1,38.3,7.9,27.3-.3,7.2-4.5,14.9-2.5,22,1.9,6.9,5.9,4.9,10.8,6.2,1.9.5,3.8,2.3,5.4,2.5,2.3.2,7.5-3.4,8.3-2.7l10.5,130.6c-.7,1.1-8.3,3.4-10.1,3.9-49.8,12.6-117.8,9.2-168.1,0h.1ZM384.7,619.8h0c-4.8-1.1-13.3,1.2-16.4,4.9-2.5,3,0,8.1-7.6,3.5-1.7-5.4,5.9-8.2,9.9-10.3,1.2-.7,2.8.7,2.2-2.2-3-.2-6,.4-8.7,1.8-3.2,1.7-4.6,5.6-8.3,6.2.4-8.6,12.4-11.1,18.8-14.6,2.3-1.2,5.3-5,7.6-5.4l55.3,7c1.2,12.2-1.3,12.8-11.8,15.7-7.5,1.9-55.1,13.4-57,4.7-.7-4.4,10.9-8,13.7-9.1,1.5-.6,2.7.6,2.2-2.2h.1ZM329.2,481.1h-.2c.6-16.2-9.7-15-10,0-.9,1-7-6.6-12.3-4.9-4.6,1.7,2.2,9,1.3,9.8-6.6,1.3-11.7,1.6-17.8-1.6-12.4-6.3-6.7-13.8,4.9-13.4.3-1.4.2-1.3-.6-2.1-3.1-2.9-10.5-7-6.8-12.9,3.8-6.2,13.9,1.6,15.5,0,0-4.6-2.9-7.5-2-12.5,1.1-5.8,10.5-1.1,13.5,1.5.4.3,5.5,8,5.5,3.5s-.7-11.6,0-14.9c.9-4.1,7.9-7.3,12-6,8.6,2.7,4.3,18.8,7.4,19.5,4.7-2.3,8.9-12.6,15.4-7.4,4,3.2.8,6.3,1,10.4l6-1.5c-2.3,12.6-3.1,25.5-3,38.4l-18.9-1,1.1-7.3c-4.6-4.5-7.2,2.6-12,2.3v.1ZM193.7,456.3h.3c-2.8-4.1-7.8,5.8-9.5,4-1.3-15.1-8.9-14.4-8,1l-7.5-6.8c-4.1,2.1-1.3,5.2-1.5,8.7h-25.9c11.8-6.8,6.1-21.7-4.1-26.5,1.4-6,2.9-11.5,2.1-17.8-1.2-9.9-11.8-13.8-15.5-3.5-12.7-16.8-19.8-3.1-13.4,12.4,1.4,3.3,4.9,7.3,6.4,10.6.8,1.8.3,1.8-1,3-7.8-4.4-15.3-6.8-24.4-6-2-13.5-4.4-27.1-2.5-40.8,15.6-15.1,45.5-10,49.3,12.9,9.3-8.5,21.8-8.7,29.3,2.1,3.4,4.9,3.3,10,6.1,14.9,13.5-12.2,29.4-8,34.3,9.6,4.5,0,9-1.2,13.5-.6,8.5,1,14.5,14.1,14.4,21.9,8-2.5,16.3-1.1,14.5,9l-57.4-1.1c-.5-.4,2.1-4.7.5-7h0ZM130.5,472.1c-.9-.2-5.4-1.7-4.7-3.2,3.3-4.2,11.4-2.2,11,3.5h0c-2.1,0-4.2.1-6.2-.3h-.1ZM122.9,456.4h-.2c0,2.5,2.7,4.5,5,4.9-2.1,4.9-8.3,9.1-9,1-1.9,0-2-.5-2,1.5,0,6.5,5.4,9.2,11,10.5,1.9,2.3-3.9,3-5.3,2.9-7.5-.6-12.6-5.6-13.6-12.9-3.1,1.3-3.1,3.1-2,6-2.3,0-6.1,0-8-1.5-1.8-1.3,2-4.8,1.1-6.9,1.4-7.6-7.6-12.1-14-12.5,7.3,5.5,16.8,10.1,7,19.4,0,2.1,10.7,2.5,5.5,6.5-5.6-.6-12.6.8-17.9,0-24.8-5.5-3.6-54.1,35.9-30.2,9.8-6.3,2.5-8.8-.9-15.7-1.7-3.3-7-17.4-1.1-17.9,7.8-.6,11.6,20.1,12.7,25.8,9,1,20.6,7.9,17.5,18.4-2.6,8.9-20.8,0-21.7.7h0ZM68.9,469.3c-11.3.5-14.7-12-2-12,.2,4.3-1.1,8.5,2,12ZM63.6,453.6v-.2h0c-1.3-9.8-8.9-18.9-19.5-15,3-19.8,7.8-39.5,9.8-59.4.5-5.3,1.9-14.4.5-19.1-2.3-7.3-18.6-17.4-24.2-23.9-5.3-6.1-10.2-13.9-12.7-21.6l6.2-5.4c7.8,8.2,12.1,19.9,22.9,24.9,1.7.8,12.7,4.4,13.4,3.9l6.2-41.7c9.2-1.2,15.4-5.3,22.3-11.1,4.8,2.9-2.6,26.7-2.5,33.4-.2,3.1,0,6.3,0,9.5l18.9-9.5c7.5-5.6,7.2-12.7,17.6-8.5,1,.4,1.7-.6,1.4,1.6-5.9,6-11.7,12.3-17.9,18-7.8,7.1-18.1,10.5-19.8,22-3.5,26.9-3.2,57.8,2,84.5-6.4,3.1-13.1,5.8-17.5,11.6-2.6,3.5-1.2,7.2-7,6h-.1ZM107.4,136.3c2.4,4.7,2.3,9.7,4.9,14,17.3-21.7,51-1.6,38.4,23.9.9.9,8.2-4.1,9.9-4.5,22.4-5.7,47.3,15.3,31.9,36.9,0,2.9,9.4-.5,11.4-.6,24.2-.9,31.2,27.2,8.5,35.4l9.7,9.2c7.1,13-8.9,26.6-21.7,25.2,0,2.7,3.2,3.4,5,5.5,7.3,8.4,4.2,21.7-6.4,25.5-5.1,1.8-9.6,0-14.1,1.9,2.6,11.5-2,20.3-13.6,23.3-8,2-11.8-1.2-18.8-4.3,1.8,17.1-7.5,24.5-24.2,21.7-5.8-1-8.7-5.6-13.7-7.7-1.8,13-12.4,18.6-24.9,16.9.3-3-.5-6.6,0-9.4.8-4,17.3-16.5,21.4-20.4,4.1-3.8,13.8-16,16.9-18,2.5-1.7,6.4-1.4,9.2-2.7,2.1-1,5.1-4.7,6.9-5,2-.3,11,2.5,16.7,1.7,15.8-2.2,26-24.9,11.5-35.2-3.5-2.5-7.6-2.5-10.9-5,12.1-17-5.9-33.7-23.7-26.5h0c-1.3-13.5-12.4-19.7-25.3-17.9-3.2.5-4.7,2.3-7.6,2.9,1-26.5-37-29.5-51.2-12.9-2.4,2.8-2.6,6.3-5.2,8.8-10.9-5.8-27.7,2.3-28.3,15-4.1-3-9.9-5.3-14.9-3l.2-73c5.1-8.1,16.2-9.3,24.7-6.2,1.6.6,9.3,6.3,10,5.5-2.6-36.3,49.2-52.3,67.3-21h0ZM22,241.1c-.2-12.4,9.4-22.4,22.2-19.7,2.6.6,4.7,3.3,7.7,2.8-.7-4.5,1.8-7.8,4.5-11,14.8-17.6,48.3-11.3,45.4,15,3.3.6,5.3-2.5,8-3.5,12.7-4.6,25.5,2.7,24.1,16.8l1.3,1.6c19.7-11.6,36.1,8.3,19.4,24.9,7.2,1,16,1.3,19.4,9,7.3,16.1-10.9,28-25.6,23.6-2-.6-3.5-3.1-6.1-2.8-7.6,13.5-25.2,11.1-32.5-1.4,7.2-3.1,12.9-8.3,13.9-16.4-4.1,1.1-4.8,6.6-8.2,9.3-6.1,4.7-14.5,5.4-20.1-.4-2.7-2.8-3.1-6.4-4.8-9.2-2.7-4.6-5.5,2.8-7.7,4.8-4.8,4.4-10.3,6.1-16.6,7.3h-11.9c-1.5,2.8,7,3.7,7.4,4.2.8,15.5-13,24.7-27.3,18.9-4-1.6-9-6.5-8.4-11-7.3,2.6-12.1,9.7-20.9,8v-78.7h-.1c7.8-1.5,11.8,3.3,16.9,7.9h0ZM89.8,321.8l3.5-27.9c1.4-2.3,4.2,1.1,6.2,1.8,6.8,2.3,8.7.9,12.1,8.9,1.4,5.7-20.8,18.3-21.8,17.2ZM60.9,312.8l-3,21.9c-9.2-2.7-17.7-7-22.8-15.4h14.9l10.9-6.5ZM13.9,314.8c3.9,11.5,11.5,22.8,21.1,29.9-8.1,8.3-21.1,9.6-29.9,1.5v-31.4s8.8,0,8.8,0ZM38.1,348.1c19.7,9.3,11.9,28.3,9.9,45.4-6.8-3-12.2.1-18.3,2.8-6.3-8.6-12.4-16.9-24.6-14.8v-30.8c11.1,8.2,22.3,3.7,33-2.6ZM27,403.5c4.3-1.2,5.2-5,9.7-6.7,3.5-1.3,8.4-2.4,10.9,1.2l-5.6,32.4c-3.8-2.6-6.1-5.2-11.2-3.7-1.6.4-3.6,3.1-5.2,2.7-.8-.2-1.5-2.4-2.8-3.3-6.9-4.6-11.1-5.4-17.7.3v-41.8c12.1-.6,20.2,7.4,21.9,18.9ZM133.4,412.6c4.1,2.3,3,16.3,1.3,20.3-1.6,3.7-4.9,2.9-5.9-.3-.9-3-2.2-18.8,0-20.1h0c1.3-.2,3.5-.5,4.6.1h0ZM180.6,385.9c-.8-7.7,9.3-5.4,10-7.9.8-2.9-2.9-3.6-4.4-5.5-3.5-4.4-3.3-10.1-.3-14.6,5.1-2.9,10.6-.4,15.7.7-.8-6.2-1.8-11.5,3.1-16.3,4.7-4.7,16-5.3,20.5-.3,2.5,2.8,3.8,8.9,3.3,12.7,3.1.4,4.7-3.1,7.7-4.8,15.1-8.5,17.5,3.2,13.3,15.8,19.1-2.1,21.5,13.3,6,21.4-.6,2.4,5.7,3.1,5.5,9-.3,7.6-11.1,7.4-16.4,5.5,1.1,6.7-6.2,9.8-11.7,7.2-9.5-4.4,10.9-14.8,11.7-19.7.2-1.3-.2-2.1-1.5-1.5-2.6,1.1-9.2,9.3-12.5,11-.4-9.9,2.2-19.5,5-28.9-5.2.6-4.5,7.5-6.5,11-3.9-5.8-6.8-15.2-14.5-16.9l5,29.9c-3.1-3.1-7.3-6-10.4-9-2-1.9-3.1-6-6.5-6-2.9,3.2,15.1,17.4,16.8,20.6h-.2c.9,4.3-8.1,6.5-11.3,6.2-6.2-.4-7.7-5.5-7.5-11-6.4.9-19.1,0-19.9-8.6h0ZM218.4,369.6c13,11.7,8.1,30.7,9,46.3.3,5.5,1.2,12.3,3,17.4-3.8-1.3-5.2-4.2-10-3,2.5-20.2,3.5-41-2-60.7h0ZM249.1,452.4v-.3h-.1c-2.9-1.2-9-.1-9.8-1.3-1.6-2.3-2.1-9.3-4.7-12,6.4-11.1,18.7-11.7,29.7-7.3.4-19,15.7-35.9,33.9-21.9,3.8-16.9,24.9-21.3,36.5-9.6,2,2,3,5.3,4.3,7,2.4,3.2,4.6-3.2,6.1-4.8,6.6-7.4,15.1-9.8,24.9-7.5l-8,49.8c-3.1-2.3-1.6-7-6.5-7.9-5.5-1-9.7,0-13.4,4,.4-22.9-29.1-20.6-24.9,2-11.2-7.2-22.5-7.9-18.9,9-6.8-1.6-14.2-.5-14,8l-23.4-2c-7.9,3.8-7-3.3-11.7-5.2h0ZM376.9,359.7c43.2,12.4,91.6,12.7,135.5,3v15.9c-12,2.4-24.2,4.9-36.4,6-19.9,1.7-79.8,1.1-95.5-9.1-7.3-4.7-3.9-8.6-3.6-15.8h0ZM552.2,470.7h0c-.4-8.3,2.2-4.4,7.5-9.4,1,.7,1.3,1.3,1.5,2.5,3.8,22.4,5.3,45.2,8.1,67.6,2.2,17.7,6.2,35.7,6.4,53.4-1.6,2.7-10.3,1.8-13.5,3-3.7-38.9-8.1-78-10-117.1h0ZM553.9,461.2h0c.4-6.4,3.8-12.4,4.5-19.3,0-1.1.7-10.2-2-7.5-.5,7.8-5.9,30.1-15.4,30.8-7.6.5,0-8.5,1.2-11.7,1.9-5.2,3.7-11.7,3.3-17.1-3.4,1.9-3.2,6.7-4.5,9.9-1.3,3.3-8.3,22.4-13.2,14.3-3.5-5.7,4.6-23.2,3.8-30.2-1.2-1.4-9.9,10.2-15,6.5-3.5-2.5,3.9-24.7,6.6-25.3,15.4,2.5,30.9,4.2,46.3.8v20.4c0,2.3-4.7,15.1-6.2,17.8-2.1,3.9-5.4,8.5-9.3,10.6h-.1ZM563.7,410.5h0c-15.8,1.3-33-.1-48.2-4.1-.6-17.5,1.4-34.8.9-52.3-.4-15.9-2-34.7-4.2-50.6-.6-4.3-1.2-9.9-3.4-13.6-2.4-.5-1.4,1.9-1.5,3.5-.6,13.1,3,27.7,4,40.9.6,8.3.8,17,1,25.4-28.9,5.2-59.8,6.5-89.2,5-9.3-.5-35.4-3.4-42.7-8.2-2.7-1.8-5-4.8-6.1-7.9-2.7-8-1.3-24.4-.6-33.3,1.2-14.7,5.5-29.5,5-44.4-1.7.5-2.5,4.1-2.9,5.6-4.1,20-11,61.3-2.3,79.5-25.4,30.1-66.6,6.5-91.5-11.8,1.7-2,4.2-3,6-4.9,7.5-8,22.2-37.6,27-48.7,2.8-6.4,4.5-13.2,7.3-19.6,12.7,7.3,19.5,19.6,28.4,30.1.6.7,4.2,4.6,4.9,3.8-1.1-8.2-8.5-13.1-11.8-20.2,6.8-11.9,14.6-25.7,25.3-34.5.9-.7,5.8-4.8,6.4-4-1.4,10.4,1.8,17.3,10.6,22.7,2.5,1.5,10.6,4,11,4.4s3.1,6.3,4.4,8c5.1,6.8,6.1,8.8,9.9,16,5.1,9.6,14.6,12.5,25,10.4.9-.2,8-3.6,8.4-4,1-1,1.4-3.4,3.2-5.3,9.7-8.1,15.4-6.4,20.1-21.3,11.7,1.1,27-8.5,28.7-20.6,1-7.3-2.1-16.1.6-22.3,1.3-3.2,4.1-7.2,7.7-6.8,5.7.7,22.6,9.7,27.6,13.3,40.5,31.3,48,116.8,46.9,164.4-.7,3.3-11.8,5-15.9,5.4h0ZM268.3,263.5c-.5-6.4-18.1-19.3-18-25.9,0-4.1,2.2-4.2,5.1-2,5.7,4.3,11.4,14.6,17.4,18.5,1.4.9,2.4.8,2.5-.5,0-1-10.8-13.7-12.4-15.5-1.7-1.9-8.6-7.3-9-8-3.2-5.3,2-8.9,7-6,4.9,2.8,20.5,24.7,23.9,24.9,2.5-1.3-.4-4-1.5-5.4-2.4-3-18.4-19.8-18.7-21.2-1.3-4.4,2.6-5,6.1-4,3.5.9,28.2,26.3,28.4,29.3-3.7,8.5-5.8,17.5-1.8,26.2l2-.5c-1.3-5.4-1.7-11.6-.2-17.1.9-3.1,4.7-7.1,4.8-7.8.2-1.6-2.3-4.9-2.6-7.1-.8-5.7,3.7-17,9.3-11.3,1.8,1.9,7.8,20.2,8.3,23.6,2.7,18.7-7.2,37.3-16.2,53.1l-7.5-9.5c-.6-1.9,1.6-1.3,1.8-1.6,2.2-3-5.7-2.9-6.9-3.3-14.9-4.9-30.1-17.5-37-31.8-2-4.2-4.8-10-3.3-14.6l18,18.9c.7.2.6-.8.5-1.5h0v.1ZM289.9,296.3h0c1.2.9,11,13.7,10.8,14.6-6.7,9.7-9.5,25.7-21.5,29.9-4.7-14.8.5-31.8,3-46.8.3-.3,6.8,1.6,7.7,2.3ZM366.3,193.6h-.4c1.1-11.3,10.3-20.4,11.7-31,1.3-9.1-1.8-18-.5-27.4,8.1-57,115.3-66.8,135-9.9,4.5,13.1.8,14.3,9.9,26.5,5.5,7.4,7.3,12.5,6.3,22-.3,2.4-1.9,4.5-2,7.1-.5,14.4,20.1,19.5,18,39.8-.5,5-2.9,7.9-1.9,13.9.9,5.3,9.2,11.5,7.9,18.5-11.2-14.3-27.1-24.5-44.8-28.9,2.7-13.9,0-27-3.9-40.2l-3.1-.6c.7,12.1,7.6,29.1,2.2,40.6-1.6,3.4-6.1,6.7-7,11-1.3,6.2.6,14.4-.2,20.7-1.2,9.7-13.6,18.3-22.9,18.4.2-3.5,0-7.6-1.8-10.7-.6-1.1,0-1.7-2.2-1.3.9,9.4-.9,18.7-7.9,25.4-3.2,3-8.4,4.8-11.5,7.4-7.2,6-5.9,11.2-18.8,9.9-11.6-1.2-11.2-7.6-15.5-15.4-4.7-8.4-12-11.1-12.9-23-.2-3.1,2.2-7.7-.6-10.3-2,0-3,11-2.5,12.9-11.5-3.2-19.4-9.1-17.7-22.2.5-3.7,2.8-7.5,2.8-11.2s-2.5-7.2-3-11.1c-1.5-12.1,3.2-26.1,9.4-36.3-.7,4,5.1,10.4,5.3,12.6.3,3.5-7.9,13.2-2.3,18.3,2.9-6,2.7-13.1,7.5-18.4,2.7-3,10.7-7.3,14.7-7.3s5.1,4.1,8.8,4.7c9.4,1.5,11.5-4.9,22.4-1.4,11.4,3.6,16.8,12.6,20.4,23.4,3.6-1.6,0-10.6-1.5-12.9,8.2-2.4,14.7-10.9,18-18.4,1.6-3.7,3-12.7,4.5-14.5,2.5-3.1,1.4,4.2,4.5,3-2-13.1-13.3-23.4-10.9-37.8l4.9-1.5c-1.2-2-2.8-1.3-4.5-1.5-8.4-1.3-16-1.5-24.1-4.8-11.3-4.5-21.8-16.2-20.2-29.1-3.4,3.4-5,8.3-8.4,12-5.1,5.4-14.3,10-21.2,12.7-7,2.7-14.5,3.8-21.2,6.7l3.1,3.1c-.7,5.7-2,13.1-2.1,18.7-.1,8.5,2.1,17.7,1.1,26-1.3,11-12.2,21.7-12.1,37.8,0,5.8,4,12.9,3.1,17.9-.7,3.7-14,11.6-16.9,15.5-1.8-5.8-2.7-9.2-.7-15.2,2-6.2,9.6-12.2,10.6-18.3,1.5-9.6-5.9-15.9-4.9-25.9h0ZM408.8,91.5c.7-11.4,10.9-21.7,20.6-26.7,20.9-10.8,48.6-8,65.6,8.4,9,8.7,12.7,20.9,11.5,33.3-25.6-27.2-64.6-27.8-97.7-15ZM589.1,187.3v102.6c-7.9.9-12.4,8.3-16.9,14-1.8-8.5-5.1-17.8-8.5-25.9-2.2-5.1-9.3-16.2-10.2-19.7-.8-3.2,1.1-6.9-.7-12.2-1.7-5-6.8-8.3-7.1-13.6,0-2.2,1.7-12.2,3.3-13.4,8.2-3.8,15.3-1.7,23.2,1.1-1-13.5,3-28.6,16.9-32.9h0ZM423.6,152.6c-4.6,11.8-10.3,23.7-10.4,36.7-3,2.3-6.8,2.2-10.2,3.8-3.4,1.6-7.3,5.9-8.3,5.2-7.4-19.7-5.1-42-4-62.7,16.1-2.6,31.8-10.4,42.3-22.9,1.2,4.1,3,8.4,5.8,11.6,3.2,3.7,10.8,9.2,15.4,11,6.6,2.7,13.8,3.5,20.7,5.2.6,10.8,4.2,20.1,9,29.5-5,13.3-7.6,29.4-22.9,34.4-5.2-8.5-17.3-13.5-26.9-11.9-2.7.4-5.3,2.7-8.1,2.9-18.4.8-1.9-29.9-.7-37.6.3-1.9,1.5-6.1-1.7-5.2h0ZM589.2,124.6h-45.3c-.4,0-4.7-2-5.4-2.5-9.3-6.4-2.7-17.3,6.4-18.4,6.4-.8,10.8.5,16.5,3-4.2-16.8,13-26.2,27.8-23.9v41.8ZM108.8,52.3c15-5.2,30.6,5.6,22.9,21.4,6.4,0,12.6-1.7,13.9,6.4-.6,2.9-13.5,4.4-16.3,4.6-33.1,2.3-70.3-.8-103.7-.8s-20.9.5-20.1.8h-.3v-46.8h-.1c15.7-11.4,33.9-6.5,40.4,11.9,4.2-8.6,6.3-16.6,15.1-21.7,21.1-12.2,48.5,2.1,38.2,27.7,4.3,1.1,6.5-2.3,10-3.5h0ZM4.8,88.1l.3-.5h0c39.7-2,80.6,3.2,120.1,1,5.8-.3,16.3-1.1,21.2-3.7,6.6-3.5-.3-17.6-8.7-15.3,2.2-18.9-17.6-27.7-32.9-19.9,5.1-36.1-49.4-39.5-58.8-9l-8-8.4c-8.5-5.8-24.8-5-32.8,1.4V5.9h380.2c6.3,8.7,12.7,17.3,18.8,26,3.6,5.2,6.2,12.4,12,15.9l-.7-4.3-25.7-37.5h63.8v33.4c0,.2,1.6,1.8,2,1.5-.3-1,1-2.1,1-2.5V5.9h132.6v73.7c-13.9-4-33.3,6.2-31.9,21.9-9.6-4.8-26.5.5-27,12.5-.3,8.8,5.9,12.6,13.7,14.4,13.2,3.2,31.4-2.6,45.2,1v53.8c-14.4,3.7-20.7,18.1-19.5,32.4-6.9-2.9-14.9-3.8-21.3.5.4-12.7-10-18.3-15.4-26.9-5.7-9.1,1.6-18-1.4-28.5-2-7.1-10.8-12.9-12.5-18.4-1.6-5.4-1.2-12.2-3.4-18.6-1.2-3.5-6-10.8-6.3-12.7-1.2-9,2.9-14.1-1.8-26-16.9-43-97.9-40.1-103,9.5-17.3,7-31.1,26.8-31.8,45.5-.2,5.5,1.8,10,2,15,.8,15.7-14.9,27.8-12.5,44.4.7,4.6,3.9,9.6,4.5,13.5,2,13-13.2,17.2-10.8,34.7.4,2.8,3.2,7,2.8,8.8-.2.8-8.2,10.2-9.6,12.4-2.6,3.9-5.5,8.9-7.2,13.3-1.5.4-1.6-.4-2.5-1-4-2.8-8.6-8.2-12.5-11.4-1-.9-3.5-1.3-3.8-1.7-.7-1.2,0-9.5-.2-12.2-.5-4-5.8-21.7-7.7-25.2-4.3-8-14.4-5.6-16.7,1.6-.5,1.6.3,8.2-1.9,7-5.9-5.6-18.3-22.3-25.4-24.4-7-2.1-7.2,2.4-11.1,4-3.2,1.3-6.1-.2-8.9,3-3,3.3-1.3,6.3-2.2,9.8-.5,1.7-2.5,2.9-2.8,5.3-.2,2.1,1.1,4,1,5.9-.1,2.2-2,3.4-1.9,6.9,1.9,15.8,18.8,36.2,33.8,41.6,1.1,1.2-2.3,9.5-2.7,11.7-1.4,8.5-4.3,33.7-.2,40.5,19.5,18,54.1,37.2,81.2,28.5,6.3-2.2,9.8-6.1,15.4-9,0,3.1-.2,6.3,0,9.4,0,1.5,1.5,2.9,1.5,4,0,3.2-4,11.3-3.6,15.4-11.9-2.9-22.6.6-30.4,10-11-16-36.1-16.4-43.4,3-17.3-11.1-34,4.2-35.9,21.9-10.3-2.6-19.9-.8-27.4,7-1-.7-1.3-1.3-1.5-2.5-.4-2.6-1.6-18.5-1-19.4,3.8,1.8,9.8,1.4,13-1.4,1.4-1.2,2-3.9,3.6-4.4,2.2-.7,5.8.2,8.6-.4,4.1-.8,9-5.8,8.7-10.2-.2-3.9-4.8-5.2-5-8.5,14.1-5.6,11-25.3-6-23.9,2.8-12.1-1-19.7-14.4-17.8-4.1.6-5.1,2.8-8.5,3.9-5.4-22.2-35.4-15.8-33.9,6-10.5-3.9-21,3.3-17.2,14.7,1,3,4,4.5,4.2,7.2-17.5,7.1-1.1,24.9,12.9,21-.5,12.6,13.6,13.6,22,7.9l-2.9,24.5-5.9.3c-5-12.3-11.8-17.4-25.5-15.7-4.5.6-6.1,2.4-9.6,3.9-1.7-16.6-20.2-26.5-34.4-17-10.1-20.9-34.5-25.5-52.3-10.9v-27.4c3-2.8,8-1,12.2-1.7,6.5-1.1,14.7-7.7,14.7-14.7,15.2,12,39.3,9.2,40.9-13,15.9,6.6,35.8-2.6,31.9-21.9,19.2,2.2,33-17.1,19-32.4,4-3.1,8.9-3.6,12.8-7.1,9.5-8.4,9.9-23.5-1.9-29.8,20.4-10.6,11.5-39.2-10.6-40.3-2.6,0-6.4,2.1-7.9,0-1.1-1.5,1.2-6.8,1.2-9.3-.3-20.4-27.1-34.1-44.5-24.6,6.2-24-24.2-40.5-42.4-24.9-1.8-2.8-2.3-5.9-4-9-16.9-31.7-72.7-20-73.3,17-10.4-5.8-22.2-6.7-31.9,1v-64.8h0ZM5.7,431.6h0c3.3-8.7,17.6-6.5,17.5,3.8,3.8,1.1,3-2.7,6-4.4,8.3-4.7,12.3,4,10.9,11.4,1.3,1.3,13-6.3,18.1,4.3,4.2,8.6-1.3,7.7-2.2,13.2-.5,3,.3,5.5.9,8.4l-14.9,1c.8-3.4,2.1-7.2,0-10.5-3.8-4.9-11.6,4.1-12,3.6-.7-3.9-.9-9.7-5.5-11-6.1-.9-8.5,8.3-9.4,13-3.7-1.3-5.9-3.4-9.9-1,1.4-8-2.1-25,.5-31.8ZM8.1,475.2c0,.1-3.1.5-3-.6v-6.4c1.5,0,3.3,6.7,3,7ZM81.1,834.7c5.2-9.7,15.2-12,25.3-14.6,3-.8,13.7-1.9,14.9-3,.7-.7.9-1.9,0-2-9.7-.3-19.2,2.8-28.4,5.5,12.4-13.1,27.1-23.7,41.8-33.9.2-1.6,0-1.6-1.5-1.5-5,.3-29.4,19.9-34.4,24.4-7.8,7.1-16,16.1-20.9,25.4H5.1v-88.2c6.1-11.7,11.1-23.9,17.2-35.6,2.6-5,13-20,13.7-24.2,0-.6.3-1.6-.5-1.5l-9.3,12.6-21.1,40.2c1.1-19.2-1.6-40.3,0-59.3.9-11.2,5.8-24.8,6-35.9,0-1.6.2-1.7-1.5-1.5l-4.5,14.9v-43.8c16.2-2.1,24.2,12,25,26.4l-2,22c3.5-.8,5.8-3.6,9.7-4.3,32.5-5.4,26.5,29.3,19,48.9-.5,1.4-1.5,1.8.2,3.2,2,1.7,1.6,0,2.2-.8,3.7-5.2,5.6-8.7,10.7-13.2,9.4-8.2,29.3-18.1,36.4-2.5,6.8,15-3,31-8.5,44.8,1,1,10.6-5.5,13-6.5,19.5-8.2,34.9,0,24.6,21.6-1,2.1-8.8,11.7-7.7,12.7,4.8.3,8.3-3.2,12.9-4.5,20.2-5.7,38.3,6.2,25.1,27.1-3.4,5.4-18.4,16.1-19.1,17.8-1.3,3.1,8.3.5,9.4.4,9.2-.2,15.8,2.2,14.5,12.5-1.1,9.1-12.4,10.2-14,13.9-1.4,3.3,7.8,0,8,2.5h-83.4ZM182.6,834.8h.2c-6.4,1.9-11.5-1.1-17.2-2.8-1.1-1.2,6.7-6.6,7.8-8.6,6.5-11.8-4.7-22.7-16.8-20.3l11.6-12.8c9.9-14.2,8.4-26.7-8.4-33.5,2.2-11.9,5.1-24.1,6.6-36,.8-5.8,4.4-39.5,2.6-42.2-.6-1-1.4-1.2-2.5-1-1.9,26-5.4,52-9.4,77.8-6.8,2.3-14.7-.9-21,3.9,3.1-8.6,8.5-17.3,3.7-26.6-6.4-12.4-24.1-8.8-34.1-3.3,3.8-11.8,8.7-25.2,4.3-37.7-5.4-15.4-25.9-11.2-36.7-4.2-1.6,1-8.6,7.8-9.5,7,8.1-23.6-3.6-51.1-31.9-38.9,4.1-10.3,18.9-15.9,28.9-19.4,10.1-3.6,23-2.4,22.9-16.5,12.4,15.9,29.6,25.4,49.8,26.9.2,3-2.2,4.8-2.8,7.7-.3,1.5-.8,2.7,1.3,2.3,2.9-2.5,4.6-6.1,4.5-9.9,3.9-.3,8.4-.5,12.2-1.3,3.4-.7,5.2-3.7,9.4-2,22.3,9,28.1,33.9,29.3,55.5,1.6,29.9-.4,61.6,1,91.8-.2,4-5.8,6.3-6.8,10.2-3,11.8,6.5,21.4,15.7,26.7-2.8.8-5.5.4-8.3,1.7-2.5,1.2-4.3,4.9-6.4,5.5h0ZM93.3,551h.1c1-.1,9.7,1.3,12.9,1,8.7-.7,15.9-6.1,22-11.9,7.3,5.5,19.4,9.8,28,5.1,2.2-1.2,6.2-7.4,7.6-6.1,4.8,5.1,11.1,6.2,17.5,8,3.5,30.2,10.8,67-17.5,87.4-27.5,20-74.1,2.5-82.6-29.7-7.9,4.5-17.3-.5-20.6-8.3-7.1-16.7,10.9-31.2,20.7-12.6,7.3-1.9,11.1-13.6,11.4-20.5.2-2.9-1.8-11.9.5-12.4ZM214.6,695.9l6.2,9.6c3.7,3.5,8.5,7.4,14,7,10.5-.7,1.7-9.3.8-15.8-2.7-18.4,12-30.3,11.8-48.6-.1-10.9-5.7-20.4-9-30.4,10.4,4.1,20.4,8.8,31.9,9v9c5,.8,1.4-7.9,4.5-7,15.5,8.3,29.7,12.6,36.1,30.7,1.6,4.6,5.4,23.1,5.1,27.4,0,.9-.5,1.8-.9,2.6-5.9-.4-10.8,2.5-15.8,5.1-.4-5,.5-10.6,0-15.4-.3-2.9-2.6-11.4-3.9-14s-.9-2.8-3-2.4c1.2,9.6,5.7,23.9,3.9,33.3-.5,2.9-6.8,9.4-8.7,13.2-4.3,8.3-6.3,18.9-6.2,28.2l-7.4-9c-19.7-18.8-38.8-2.6-35.9,20.9-32.8-19.3-50.6,16.9-27.4,41.4-6.5-1.7-12.3-1.6-18.9-.5-1.6-8.4,2.4-15.8,3.7-23.7,3.1-17.6,4.6-35.5,7.7-53.1,1.3-1.7,1.1-.5,2,0,4.4,2.6,9.8,9.2,15.5,4.4-3.1-7.5-7.3-13.2-6.1-21.9h0ZM239.4,547.2h.1c15.5-3.3,30.1-13.5,38.2-27.1,9.3,10.2,19.4,18.8,32.9,22.9l3.4,33.4c2,28.4-21.3,49.4-49.2,46.2-4.3-.5-26.1-7.4-28.3-10.1-6.6-8.1,1.1-53.5,2.9-65.3h0ZM202.6,657.1h-.1c-.8,10.6-6.3,22.2-6.1,32.8,0,5.6,4,13.7,4,17.8,0,13.3-6.7,31.6-6.2,45.7l-2.7,9.7c-.5-17.4.7-35,0-52.3-.5-13.9-1.5-33.9-7.2-46.6-2-4.4-5.4-7.9-7.7-12.1-.2-5.5,16.1-22,22.9-21.4,1.9,8.8,3.7,17.4,3.1,26.4h0ZM423.1,835h-89.1c2.9-6.5,4.4-16.8,10-21.3,9-7.3,28.5-11.7,39.8-14.5.4-3.6,0-3.2-3.2-2.7-12.4,2-24,7.7-35.6,12.2l29.4-48.3c-1.6.8-4.4,3.4-5.5,4.8-17.2,20.8-29.3,45.1-39.4,70h-28.4l5.7-43.6,26.2-29.7c-5.5-3.7-21.3,19.7-25.9,23.4-.4-4.4,10.8-61.8,7.5-61.8-8.8,36.5-12.4,74.3-16.4,111.6l-20-.5c-13.2-23.4-29.6-45.7-50.8-62.3l39.8,49.3c.2,2.6-.4,1-1.7.7-8.4-2.1-16.6-6-25.7-6.2-1.8,0-3.8,0-4.4,2,3.2.6,6.6.9,9.8,1.7,4.7,1.1,22.5,5.4,25.1,7.8,1.7,1.5,3.2,5.6,4.9,7.5h-87.7c.3-.9,4.2-4,4.5-4h14.5c1.7-1.5-9.1-6.9-10.4-8-6.5-5.1-15.4-14.9-9.5-23.4,5.5-7.9,16.4-7,24.7-4.8,1.3.4,9.2,5.1,9.1,1.8,0-.8-8.8-10.3-10.3-12.6-7-10.7-11.7-27.2,2-34.6,7.8-4.2,12.6-3.6,20.3.3,2.5,1.3,7.9,6.5,8.4,6.5,2.3,0-.4-7-.5-8.5-.7-9.3,4.6-23.8,15.5-24.4,11.4-.7,22,14,26.9,22.9,1.4-.9,1.4-1.9,1.5-3.4.6-5.8,0-11.6,1.2-17.7,2.3-11.5,11.4-29.7,24.3-31.6,22.2-3.1,28.2,14.1,28.3,32.8,4.7-.5,5.4-6.9,7.5-9.9,3.1-4.4,11.5-7.5,15.4-2.6,6.7,8.3,0,21.8-3,30.4,3.8.7,5.9-3.8,8.2-5.3,24-14.4,39.5,2.4,30.4,27.5-1.2,3.3-8.9,15.1-7.7,16.7,7.9-4.5,22.3-11.7,29.9-3.3,7.7,8.5-4.5,21.6-12,25.7,2,2.6,5.3.4,8.4.4,12.1,0,23.8,5.9,16.7,19.7-.7,1.3-8,9.3-8.7,9.3h0ZM397.1,698.3h.2c12.4-7,19.6-1.7,15.1,12.3-1,3-10.7,17.7-9.6,18.8,6.1-.6,9.6-3.6,16.2-2.7,14.3,1.9,11.7,17.6,4.8,25.9-1.9,2.3-6.7,3.5-6,7.7h18.4c.4,0,5.9,3,6.4,3.5,8.2,6.7,0,21.8-7.9,25.9-.1,3.8,15.6.2,16,11.9.2,5.9-4.6,10.5-10.1,12-5.9,1.7-5.8-4.8-10.3-7.8-4-2.6-9.2-2.5-13.7-3.8,19.2-17.7,1.5-35.6-19.9-26.9,8.6-17.6,10.9-40.2-13-44.9-.4-.6,7.2-8.8,8-10.4.6-1.2,1.3-1.8-.6-2.5-1.6-.6-6.5,7.4-7.8,8.6-.8.7-7.3,5.7-7.6,5.3,1.1-12,3.6-23.8,3-35.9-1.9.5-2.4,3.1-2.7,4.7-2,10-1.5,21.8-3.9,31.9l-6.8,4.2c.2-5,1.9-9.1,1.5-14.4-1.2-15-11.5-18.2-22.9-9.5.7-5.5-1-13.3,0-18.4.2-.9,2.7-4.8,3.6-5.4,6.1-4.2,10.1,8.6,12.1,11.6.6,1-.1,1.8,2.2,1.3,1.4-9.8,7.1-28.4,18.7-29.7,15.1-1.7,9.8,24,8.2,32.7,3.5-.8,5.2-4.2,8.4-6h0ZM524.4,818c11.9-1.5,22.9,5.1,25.9,16.9-12,2-22.7-5.4-25.9-16.9ZM532.5,791.6h0c-11-5.4-2.5-17.5,7.2-15.2,2.4.5,3.3,2.9,5.7,2.8-2.9-11.1,3.4-18,14.7-13.7,2.6,2.2-.2,12.1,2.8,12.7,5.1-4.5,14.1-6.2,16,2,2.3,9.9-9,9.2-9.5,11.5.3,2.8,4.1,3.8,4.8,6.2,3.3,10.9-13.2,12.3-18.2,4.5-2.6.2-2.8,2.9-4.5,4.2-9.6,7.2-22.7-3.4-11-11.9-2-2.3-5.3-1.8-7.9-3.1h-.1ZM556.3,835c3.4-10.1,13.8-18.5,24.9-16.9-3.7,10.9-12.8,19.2-24.9,16.9ZM589.5,514.4c-2.4-1.2-1.8-6.9-6-4.5,1.6,2.4,1.8,6.9,3.1,8.9,1,1.5,2.9,1.4,2.9,1.5v110.6c-3.5-.9-6.6-1.9-10,0-.8-8-11.9-11.2-17-4.5-1.4,1.9-1.9,5.2-2.1,5.4-.6.5-8.3-1-11.7,4.8-4.1,7.1,2.6,9.6,3.6,13,.9,3.1-.8,7.4,1.1,10.6,2,3.3,9.5,4.6,13,2.7l-2,13.9c-.9,1.1-7.1-6.8-8.5-7.9-8.2-6.5-21-9.2-15.9,5.9,5.9,17.4,29,20.5,43.3,11.4l6-6.4v155.2h-16c5-6.1,12.4-11,12-19.9-10.2-.8-15.4-.2-23.3,6.2-2.3,1.9-4.3,4.9-6.6,6.8l1-19.9c10.4,8.3,28.1-1.7,19.2-14.5,14.8-10,5.8-25.1-10.2-22.4-.7-15.4-24.1-12.3-24,2-11.3-2.5-24.1,8.8-14.3,18.9,1.5,1.6,5.3,3,5.9,4.1.7,1.1-.8,4.4-.6,6.4.6,9.3,13,10.4,20,8.5v17.9c-6.8-10-16.8-15.5-29.3-14.8-4.9,1.7,1.5,13.2,3.8,15.8,1.8,2,4.2,2.8,5.5,5h-95.2c-.6,0-4.1-2.6-5.5-2.5,3.8-3.1,4.4-10.3,6.5-13.4,1.6-2.3,7.1-3.4,9.8-5.2,11-7.5,7.9-22.9-5.3-24.8-1.2-1.4,4.5-7.9,5.4-10.1,6.7-16.6-9.3-23.6-23.3-22.8,15.7-15.9,8-38.5-15.9-31.9,13.7-17.3,12.6-41.6-14.9-27.9,7.3-37.1-26.6-35.5-32.9-4-.6.5-5.6-9.3-12.9-7.5-10.4,2.5-6.7,17.3-7,25,0,1.2.8,3.7-1,3.5,1.3-4.6-4.9-11.1-4.9-14.4s3.4-7,3.9-10c2.5-16.3-6.7-29.7-4.7-43.5.8-5.2,4-11.7,4.6-17.3,2.2-19.1-7.7-30.4-10.6-47-5.3-30.8-.2-56.9-27.2-80.4-30.1-26.3-90.7-15.1-103.7,23.9-1.5,5.3,2.6,11,2,17.8-.7,7.5-5.4,10.8-6.6,15.3-1.1,3.9-1,9-3.2,13.2-2.9-.9.5-5.3.8-6.7.4-2.2,0-4.5.4-6.5.6-2.4,3.1-4.3,4.3-6.6,6.4-12.5,0-28.4-10.6-36.4-3.4-2.6-8.5-3.7-11.2-5.5-17.8-23.5-75.9-19.4-94.9.9-2.2,2.3-5.2,8.4-6.7,9.7-2,1.7-9.1,3-12.6,5.8-4.4,3.5-8.3,10.4-8.9,16-.4,3.7,1.1,11.2.7,12.7-.3,1.1-5.7,6.7-7,9-3.4,6-4.9,11-2.3,17.6,1,2.7,4.7,6.4,5.2,8.7.8,3.2-.8,5.5-.7,8.6.2,6.1,3.6,11.2,8,15.1,1,.9,3.1,1,3.7,1.8,1.1,1.3,2.3,7.2,4.9,8.8l15.2,3.9c-16.1,3.7-32.3,8.9-44.8,19.9v-15.4c0-4.6-5.8-14.4-9.5-17.4-4.4-3.7-12.9-7.4-18.4-5v-131.5l8,1-4-12.9c5.7-.7,5.6,4.4,9,7,.7-4.3-.3-17,5.5-18,2.1-.4,1.4.7,2,2,2.2,5.5,1.5,11.1,1.6,16.9,2.3.4,1.6,0,2.2-1.3,2.6-4.8,3.5-11.4,10.7-11.7l-5,16.9c3.3,0,2.8-3.6,5.7-4.7,5.4-2.2,22.1-3.2,27.4-1,2,.8,2.8,2.9,5.2,3.8,5.2,2.1,19.3,2.6,24.9,1.8,4.1-.6,6.4-4,9.1-4,4.3,0,9.1,8,18.9,6.1,3.6-.7,3.8-4.2,4.7-4.7,3-1.7,12.5,1.1,8.8-8.2h30.9c.2,0,.3,3.1,2,3l-2-9.5,2-.5c0,1.7,4.2,9.3,6,8l2-9,3.5,9,6.5-8-1,10c1.9-.5,1-2.8,3.4-3.1,17-2,35.8,1.5,52.8,2.1,7.5.3,15-.3,22.5,0,.4-2.2-.2-2-1.9-2.5-4.7-1.3-12.5,1.5-11-5.5,10.3,1.3,25.8-2,32.9,6.5-14.8,6.2-9.6,15.6,3,19.9,7.4,2.5,12.1.4,18.4,1.5,2.6.5,2.9,3.1,5.5,3l-6-11.9c3.6-1.5,10.6,10.5,12,9,.3-3.9.9-8.7,2-12.5.4-1.5-.6-1.7,2-1.5l2,14c4.8.6,5-7.1,10-8l-3,12c2.9.5,2.7-3.3,4.7-3.9,1.9-.6,3.3.9,3.8.9h15.4c-1.1,10.8-.5,21.6-1,32.4-.6,16.5-2.6,33.2-3.1,49.7-.1,4.9-.9,20.6,1.5,23.5,3.4,4.2,16.3,5.4,21.5,6.9-5.1,6.6-27.2,10.8-23.5,22,0,.4,4.7,5.6,5,5.9.8.6,13.3,6.8,14,6.9,9.5,1.8,53.3-5.6,62.5-10.1,9.1-4.5,4.6-14.6,5.7-15.7l32.9,1c-5.7,5.9-19.4,10.3-17.9,20.3,1.1,7.5,6.4,4.8,11.2,5.8,1.9.4,3.6,2.3,5.4,2.6,16.8,3.1,39.9.6,55.7-6.6,15.7-7.1,14.5-13.4,10.3-29.1,5.4-.8,21.2-2.7,23.4-8,.9-2.1,0-5.4,1.5-6.5,2.6-1.9,14.4-.5,15.8-5.1l-13.8-116.9h16.4c2.4,1.9,1.3,5.2,1.5,8h3l1-15c.3-.3,2,1.3,2,1.5v50.3h0ZM551.7,637.6c1.9-3.9,9.1-.7,11.5-2.4l1.5-7.6c3.3-1.2,7-1.5,10.1.3l1.2,6.7c.8.8,10.7-5.1,12.8,1.7,2.2,7.2-5.4,7.2-5.8,8.8h0c-.8,3,1.9,2.5,2.9,4.1,5.3,8.4-9.9,15.1-13.3,4.4-8.3,9.2-22.3,9-15.4-6.4,0-.8-9.1-2.3-5.6-9.6h.1ZM572,672.6c-1.5,1-3,4.3-4.7,4.9l3-17.9c7.2,3.4,12.3,4.7,18.9-1v10c-5.4-.5-12.6,1.1-17.2,4ZM588.1,672.6c-2.9,9.4-11.3,14.6-20.9,14.9,1.8-10.3,10.3-17,20.9-14.9ZM562.2,687.5c-10-.4-20.9-9.2-19.9-19.9,11.3-1.4,19.6,9.7,19.9,19.9ZM589.3,458.1v.2h-.1c0,.2-3.1.3-4.5,2-1.3,1.5-1.2,4.8-2.1,5h-18.3c.7-2.6-.8-5.8-.7-7.8,0-2.6,7.1-11.8,7-16,4.5-2.1,10.4-2,14.7.7,1-.7.5-10.1,4-11-.8,3.9,1,25.4,0,26.9h0Z"/>
    <path d="M122.7,456.4h0Z"/>
    <path d="M423.6,152.4v.2h0v-.2h-.1.1Z"/>
    <path d="M219.3,399.3h0v-.1h0v.1Z"/>
    <path d="M576,649.9c6.5-2.9,3.2-14.6-6-13-11.3,2-7.4,19.1,6,13ZM568.9,640.8c10.6-1.6,9,9.3-.7,6.4-1.6-1.1-1.6-5.7.7-6.4Z"/>
  </g>
  <g>
    <g>
      <path d="M589.7,184h-.1s-.2-55.1-.2-55.1c-13.8-3.6-32,2.2-45.2-1-7.7-1.8-14-5.6-13.7-14.4.4-11.9,17.2-16.8,26.8-12-1.4-15.7,18.2-26.4,32.1-22.4V5.9h-132.8v32.4c0,.3-1.3,1.5-1,2.5-.4.3-2-1.3-2-1.5V5.9h-63.8l25.7,37.5.7,4.3c-5.9-3.4-8.4-10.7-12-15.9-6.1-8.7-12.6-17.3-18.8-26H5.1v27.9c8.1-6.4,24.4-7.2,32.8-1.4l8,8.4c9.5-30.5,63.9-27.2,58.8,9,15.3-7.8,35.2,1,32.9,19.9,8.4-2.3,15.3,11.8,8.7,15.3-4.9,2.6-15.4,3.3-21.2,3.7-39.5,2.2-80.4-3-120.1-1l-.4,65.9c9.7-7.7,21.7-7.4,32.1-1.6.5-37,54.3-47.7,72.9-18,1.8,3,2.5,7.2,4.4,10,18.2-15.5,48.6,1,42.4,24.9,17.4-9.6,41.8,5.4,44.1,24.1.3,2.5-1.9,8.3-.8,9.8,1.5,2.1,4.6,0,7.2,0,22.1,1,31.3,29.3,10.9,39.9,11.8,6.3,12,21.2,2.5,29.6-3.9,3.4-9.1,4.5-13,7.6,14,15.3.4,34.1-18.8,31.9,3.9,19.3-16,28.6-31.9,21.9-1.5,22.1-25.7,24.9-40.9,13,0,7.1-8.2,13.6-14.7,14.7-4.2.7-9.2-1.1-12.2,1.7v27.4c17.8-14,42-9.5,52.1,11.4,14.2-9.5,32.7.3,34.4,17,3.5-1.4,5.6-3.4,10.1-3.7,12.9-1,19.9,4.2,25,16.6l5.7-.7,3.3-25.7c-8.4,5.7-22.4,4.7-22-7.9-14,3.9-29.6-13.9-12-21-.2-2.7-4.1-4.2-5.1-7.2-3.8-11.4,7-17.6,17.5-13.7-1.4-21.7,28-28.7,33.4-6.5,3.4-1,4.9-2.5,8.9-3.1,13.3-1.9,16.3,6.2,13.5,18.3,17-1.4,19.6,17.1,5.5,22.6.2,3.3,5.4,3.9,5.7,7.8.3,4.4-4.1,9.5-8.2,10.3-2.8.6-6.4-.4-8.6.4-1.5.5-2.2,3.2-3.6,4.4-3.2,2.8-9.2,3.3-13,1.4-.6.9.21,16.86.71,19.36-.65.97.43,3.34,1.43,4.04,7.4-7.8,17.27-10.4,27.57-7.8,1.9-17.7,18.6-33,35.9-21.9,7.3-19.4,32.22-18.55,43.32-2.55,7.8-9.4,18.58-13.35,30.48-10.45-.4-4.2,3.9-12.9,3.8-16.1,0-1.2-1.4-2.5-1.5-4-.3-3.1,0-6.3,0-9.4-5.6,2.9-9.1,6.8-15.4,9-27,8.6-61.7-10.5-81.2-28.5-4.2-6.8-1.3-32,.2-40.5.4-2.1,3.8-10.4,2.7-11.7-14.9-5.3-31.8-25.8-33.8-41.6-.1-3.4,1.8-4.7,1.9-6.9.1-1.8-1.2-3.7-1-5.9.2-2.4,2.3-3.6,2.8-5.3.9-3.5-.9-6.5,2.2-9.8,1.9-2.1,5.9-.4,9-1.7,3.9-1.6,4.3-5.7,11.4-3.6,7.1,2.1,18.9,17.7,24.8,23.2,2.2,1.2,1.5-5.9,2.1-7.5,2.6-6.6,10.4-8.3,16.1-1.1,1.3,1.9,2.1,3.9,2.4,5.2,2.2,7.5,4.7,15.9,4.9,17.3.6,3.7.3,8.9.4,14.7.2.4,3.3,1.1,4.4,2,3.9,3.2,8.2,8.3,12.2,11,.8.6,1.5,2.1,3,1.7,1.7-4.4,4.5-10.2,7.2-14.1,1.5-2.2,9.8-11.8,9.9-12.6.5-1.8-2.7-5.9-3.1-8.6-2.4-17.5,12.8-21.7,10.8-34.7-.6-3.9-3.8-8.8-4.5-13.5-2.4-16.5,13.3-28.6,12.5-44.4-.3-5-2.2-9.5-2-15,.7-18.7,14.2-37.7,31.5-44.7,5.1-49.6,84.6-53.1,103.3-10.3,4.7,11.9.6,17,1.8,26,.2,1.9,4.5,9,5.7,12.4,2.2,6.4,2.1,14,3.8,19.4,1.7,5.5,9.5,11.1,11.6,18.2,3,10.5-4,18.5,1.7,27.6,5.4,8.6,16.6,16.1,16.2,28.8,6.4-4.3,14.3-4.1,21.1-1.2-1.1-14.3,5.6-27.9,20-31.6ZM202.9,73.5v.1c-7.9,0-15.2,1.7-23.7-.2-23.1-5.1-7.3-33.4,11.2-25.7,2.7-17.4,26.8-25.3,39.5-13.6,3.3,3,7,8.9,6.3,13.6,7.9-4.2,17.4-6.4,24.3,1.1,1.9,2.1,3.4,7.5,3.7,7.7,2.4,1.7,15.5-1.8,17.4,8.1,2,10.4-24.4,10.1-31,10-15.77-.2-31.73-1.2-47.7-1.1ZM294.7,144.6c-17,1.3-52,1.6-68.8-.1-23.4-2.4-11.6-26.9,7.5-19.9.6-13.3,16.9-17.4,27.6-13.2,3.7,1.5,9,5.7,8.3,10.2,7.2-1.3,17.9-3.2,17.9,7,15.1-6.7,28.2,14.2,7.5,16ZM375.4,93.1c-15.8.2-31.6-1-47.3-1.4v-3l52.8,3c0,1.5-4.4,1.4-5.5,1.4ZM387.7,65.6h0s-.1,0-.1,0c-9.5-2.9-29.3-12.9-39.3-17.6-1.2-.6-14.4-6.3-12.3-8.1,7.3,1.8,15.1,5.2,22.2,8.2,9.7,4.2,22.8,9.9,31.7,15.2,1.1.6,2.7,1,3,2.5-1.7,0-3.5.3-5.2-.2ZM514.8,17.8c-5.3,8.4-11.9,18.8-17.7,26.6-.6.8-2.7,2.5-3.6,3.4-.3-3.4,1.6-6.5,3.2-9.3,5.5-9.8,15.2-21.3,22.7-29.6-.6,3-2.9,6.2-4.6,8.9ZM518.5,68.7h-.1c.3-2.7,5.8-4.8,8.3-6.2,10.8-5.9,22.1-11.3,33.6-15.8.5,2.1-1.1,2.3-2.3,3.2-5.2,3.8-15.8,9-21.9,12-2.5,1.2-16.2,8-17.6,6.8Z" fill="#fff"/>
      <path d="M202.8,73.5s.07,0,.1,0h0s-.1,0-.1,0Z" fill="#fff"/>
    </g>
    <path d="M544.7,103.6c-9.1,1.1-15.7,12-6.4,18.4.7.5,5,2.5,5.4,2.5h45.3v-41.9c-14.8-2.3-32.1,7.1-27.9,23.9h0c-5.6-2.4-10.1-3.7-16.5-2.9h.1Z" fill="#fff"/>
    <path d="M268.5,59.9c-2.9-.2-5.7-.4-8.1,1.8,1.7-11.9-8.7-16.2-18.7-12.2-1.6.6-7.3,4.4-8.3,4.2,1.5-29.1-41-28.2-39,0-19.4-12.1-35.7,14.3-8.4,16.9,26.8,2.6,57.4-1.6,84.6,0,12.9-1.2,7-10.1-2.1-10.7Z" fill="#fff"/>
  </g>
  <path d="M282.9,125.7c1.8,2,.3,6.1,2.8,7.7,6-3.2,15.6-3.9,16,5l-6.1,2.9c-21.6-1.8-47.7,2.6-68.7,0-3.1-.4-10.1-2.9-10.5-6.5,1.1-9.8,12-7.7,19-5.9,1.5-4.1.6-5.8,3.5-9.5,6.1-8.2,23-8.6,27.3,1.6,4.3,10.2.6,5.4,2.6,7.4,3.1-4.1,10.3-6.9,14.2-2.7h-.1Z" fill="#fff"/>
  <path d="M481.5,716.4c2.2-2.6-5.8-2.9-7-3.5-4.1-2.2-3.5-10.6,1.2-12.7,5-2.2,7.1.8,11.7,1.2-1.5-6.5,5.2-10.9,11-9.5,8.8,2.1,4.6,11.5,6.9,13.1,6.1.2,11.5,1.2,9.8,8.7s-9.3,3.6-9.8,6.2c7.6,13.5-8.6,17.5-14.5,5.5-10.8,10.1-23.9-2.7-9.4-9h.1ZM492.3,703.6c-15.8,1.8-8.8,23.6,6.1,15.2,9.4-5.3,2.6-16.2-6.1-15.2Z" fill="#fff"/>
  <path d="M489.5,760.2c-10.5.9-22.1-5.4-21.9-16.9,11-.6,19.9,6,21.9,16.9Z" fill="#fff"/>
  <path d="M513.4,744.3c-2.8,10.2-10.3,16.3-20.9,16.9,3.1-10.3,9.8-16.6,20.9-16.9Z" fill="#fff"/>
  <path d="M38,819c-13.4-.8-26.2-6.9-26.9-21.9,13.5-1.2,25.3,8.5,26.9,21.9Z" fill="#fff"/>
  <path d="M68.9,796.1c-3.5,11.6-13.1,21.7-25.9,21.9,1-12.4,13.4-23,25.9-21.9Z" fill="#fff"/>
  <g>
    <path d="M560,765.5h0Z" fill="#fff"/>
    <path d="M578.8,780.2c-1.9-8.2-10.9-6.5-16-2-3-.6-.3-10.3-2.7-12.6-11-4.2-17.3,2.3-14.9,12.9-.3-.4-1.6-1.1-5.5-2-9.7-2.3-18.2,9.8-7.2,15.1,2.6,1.3,5.9.8,7.9,3.1-11.7,8.5,1.4,19.1,11,11.9,1.7-1.3,1.9-4,4.5-4.2,5,7.8,21.5,6.4,18.2-4.5-.7-2.4-4.5-3.4-4.8-6.2.5-2.3,11.8-1.6,9.5-11.5ZM545.3,778.8c0,.2,0,.3.1.5-1.2,0-.2,0-.1-.5ZM561.8,793.2c-13.3,12.8-26.5-9.4-11.8-12.8,8.6-1.9,19.3,5.6,11.8,12.8Z" fill="#fff"/>
    <path d="M560.1,785.3c-4.1-3.5-9-4.9-11.9.3-4.7,8.3,13.9,10,11.9-.3Z" fill="#fff"/>
  </g>
  <g>
    <path d="M589,636.3c-2.1-6.8-12-.9-12.8-1.7l-1.2-6.7h0c-3.1-1.9-6.8-1.6-10.1-.4l-1.5,7.6c-2.4,1.7-8-4.9-11.5,2.4s5.6,8.8,5.6,9.6c-6.9,15.4,7.1,15.6,15.4,6.4,3.4,10.7,18.6,4,13.3-4.4-1-1.6-3.7-1.1-2.9-4,.4-1.6,8-1.6,5.8-8.8h-.1ZM576,649.9c-13.4,6.1-17.3-11-6-13,9.2-1.6,12.5,10,6,13Z" fill="#fff"/>
    <path d="M568.9,640.8c-2.3.7-2.3,5.3-.7,6.4,9.7,2.9,11.3-8,.7-6.4Z" fill="#fff"/>
  </g>
  <path d="M492.3,703.6c8.7-1,15.6,9.9,6.1,15.2-14.9,8.4-21.9-13.4-6.1-15.2ZM498.2,708.7c-3.4-3.2-12.9-.9-11.3,4.8,2.5,9,16.6.3,11.3-4.8Z"/>
  <path d="M32.3,766.9c-9.2-9,11.4-22.3,16.9-9.4s-9.2,17-16.9,9.4ZM35.3,757.5c-6.9,6.6,8.6,13.3,11.3,4.8,1.9-5.9-8-7.9-11.3-4.8Z"/>
  <path d="M498.2,708.7c5.3,5.1-8.8,13.7-11.3,4.8-1.6-5.7,7.9-8,11.3-4.8Z" fill="#fff"/>
  <g>
    <path d="M49.3,751.2c-.9-6.5-.4-13.1-8.9-13.1s-9.4.6-9.4,7.6c0,2.4,1.1,3.3-.5,6.4-13.7-10.2-19.4,14.1-2.7,13.5,2.2,2.1-10.2,6.6-2.4,13.3,3.4,3,5.6,4.7,11.2.3,1.6-1.1,3.8-1.2,4-3.8,9.9,12.9,28.2,0,13.3-9.6,13.9-5.4,11.8-21.1-4.5-14.6h-.1ZM49,751.1h.1c0,.1-.1.2-.2.2v-.2h.1ZM32.3,766.9c-9.2-9,13-18.5,16.9-9.4,3.9,9.1-9.2,16.9-16.9,9.4Z" fill="#fff"/>
    <path d="M35.3,757.5c-6.9,6.7,8.6,13.3,11.3,4.8,1.9-5.9-8-7.9-11.3-4.8Z" fill="#fff"/>
  </g>
</svg>