<?xml version="1.0" encoding="UTF-8"?>
<svg id="Camada_1" xmlns="http://www.w3.org/2000/svg" version="1.1" viewBox="0 0 595.28 841.89">
  <!-- Generator: Adobe Illustrator 29.0.0, SVG Export Plug-In . SVG Version: 2.1.0 Build 186)  -->
  <path d="M.14,841.29V-.06h595v841.34H.14ZM460.36,3.89H4.08v54.23c7.46,13.16,23.3,16.96,37.1,12.1,6.43,10.88,23.17,8.4,32.27,1.98,1.78,1.78,1.91,2.77,4.49,4.1,5.02,2.59,10.72,3.02,16.1,1.41,2.75-.82,4.66-3.13,7.36-3.16-4.69,6.71-16,7.54-23.01,4.59-1.73-.73-5.34-4.14-5.69-4.19-.48-.07-6.76,3.49-8.93,4.06-8.84,2.31-14.06.93-21.53-3.83-.93-.59-1.15-2.12-1.81-2.3-1.1-.3-10.31,1.58-13.69,1.37-9.47-.58-16.48-5.11-22.66-11.85v79.86c8.91,6.05,18.31,8.1,28.72,4.39,4.36-1.55,7.05-4.82,11-6.74,18.77,23.46,62.9,13.72,71.35-14.78,9.13,2.37,22.36.57,25.09-10.08,18.75,4.44,37.14-9.68,40.71-27.67.88-.85,5.58,3.99,7.3,4.86,13.53,6.86,33.41,4.76,43.05-7.51,26.67,8.73,55.81-13.12,52.78-41.63-.66-6.19-4.07-10.37-5.17-16.19,1.76.04,3.13,3.06,3.82,4.39,3.44,6.62,4.22,13.9,4.39,21.24,10.9,7.79,27.06,5.36,34.95-5.22,12.93,7.16,34.48,7.33,42.7-6.66,18.88,10.37,47.27,2.93,52.25-19.61,16.06,2.76,33-5.11,43.34-17.14ZM590.54,3.89h-127.22c-11.15,13.24-27.33,21.25-44.94,19.81-5.28,21.52-33.75,28.68-52.26,19.74-11.01,11.53-29.42,14.41-43.4,6.55-9.02,10.44-24.49,11.67-36.28,5.28-5.25,17.91-20.31,32.06-39.44,33.4-3.74.26-13.49-1.59-14.95-1.19-.59.16-6.87,5.36-8.82,6.35-13.46,6.8-29.23,4.98-41.63-3.17-3.36,16.56-21.96,29.87-39,26.26-6.44,9.33-15.67,12.37-26.79,10.83-9.85,28.74-52.59,36.81-73.29,14.8-10.54,10.31-26.24,9.66-38.43,2.67v118.31c10.04-1.32,20.45.2,30.55.68,7.6.36,27.04-2.92,28.56,6.94l2.69,44.31,6.54-.7c-.31-21.98-.69-44.07-1.95-66-.87-15.08-.74-25.14-.61-40.08.06-7.3-2.39-19.75-1.31-25.63s11.79-8.24,16.08-4.98c6.32,4.79,3.86,33.49,3.6,41.74-.57,17.84.89,32.91,1.35,50.6.33,12.85-.56,25.65-.69,38.48,21.92-1.65,15.83,22.43,13.21,35.74l3.78.95c3.69-9.87,9.67-18.61,14.48-27.91,6.11-11.8,10.27-24.34,18.87-35.04,7.85-9.76,19.49-15.85,31.19-19.76-2.86-3.77-7.62-3.21-11.82-4.93-10.13-4.15-14.26-14.88-9.1-24.85,1.75-3.37,3.88-3.76,5.79-6.04,5.73-6.81.1-8.63-.65-15.11-1.85-16.1,10.05-19.04,16.3-29.71,4.41-7.53,6.01-17.18,10.64-24.86,12.85-21.34,38.62-28.41,61.96-21.82,2.15.61,4.94,2.95,6.83,3.1,3.25.26,9.81-1.89,15.08-1.34,16.38,1.72,17.76,15.1,26.24,24.38,1.15,1.25,4.72,2.95,5.18,4.07,2.52,6.16-2.7,10.6-2.84,15.94s4.02,10.91,4.58,16.45c.78,7.76-2.9,13.08-2.65,18.37.21,4.46,4.75,9.07,5.53,12.25,2,8.09.07,12.3-4.5,18.36-1.95,2.59-5.31,3-4.33,8.09l22.42,11.92c17.49,15.5,25.02,37.55,33.32,58.69,2.66,6.78,8.92,17.61,9.91,24.99.73,5.48-3.2,8.73-7,11.73,4.49,14.56,8.28,29.58,8.47,44.95l8-106.36c.85-1.45,22.32-5.44,25.18-5.43,2.15,0,23.17,3.95,24.19,4.64.43.36,1.13,1.97,1.13,2.31v21.69c1.92,1.94,5.88-.09,8.59.02,1.24-.72-3.03-10.05,4.68-12.39,9.32-2.83,23.73-3.33,33.41-2.41l5.94-47.64,56.85-9.61,33.86,9.92v26.95l28.93-4.6V3.89ZM293.37,246.43c14.28-10.28-1.93-22.54.15-33.7.58-3.13,3.12-6.5,3.18-10.67.11-6.87-5.21-13.82-5.32-19.75-.09-4.94,5.14-10.82,2.97-15.42-.46-.98-6.25-4.73-7.47-6.34-7.17-9.48-7.81-20.95-24.73-21.31-4.16-.09-10.63,2.8-11.82,2.7-.54-.04-6.93-4.32-9.56-4.97-18.26-4.52-40.5,1.04-52.95,15.43-9.24,10.68-9.76,26.1-18.71,36.51-3.78,4.4-8.43,6.62-10.65,13.01-3.91,11.22,2.72,13.93,1.96,20.31-.7,5.9-9.44,8.68-10.39,16.61-1.15,9.67,3.99,15.32,12.84,18.06,2.1.04-.29-4.62-.36-6.26-.05-1.28,1.49-11.59,3.95-8.84.31.35-1.73,5.68-1.78,7.08-.09,3,1.66,7.45,3.75,9.68.57.61,3.27,2.52,3.95,2.69,3.15.77,16.02-5.38,20.38-5-4.64-8.48-4.09-16.7-.76-25.32-13.31-3.1-22.62-19.88-11.71-30.86,5.5-5.54,14.53-7.33,14.95,2.62.28,6.49.06,18.49-.52,24.96-.94,10.51-7.26,22.53,3.95,30.92,3.97,2.98,11.27,3.31,11.77,3.68.29.22,1.75,5.24,2.8,6.72,2.93,4.12,9.63,8.02,14.71,8.31,2.6.15,6.82-1.35,7.79-1.16.69.14,4.56,4.18,6.1,5,8.36,4.39,17.76,1.93,24.23-4.49l1.34,1.95c4.77-.28,9.81-2.6,11.95-7.06.84-1.75.87-4.74,1.85-6.04.78-1.04,2.94-1.4,4.25-2.98,9.03-10.88,4.05-24.78.64-36.49l-3.48,3.2c-2.62-1.69-11.51-8.23-14.06-8.38-.53-.03-3.5,3.59-9.76,3.24-10.56-.59-8.61-5.52-21.13-.15-3.53,1.51-12.84,8.42-15.48,7.89-.84-.17-8.06-5.78-9.06-6.77-9.09-9.02-12.35-27.36-11.22-39.48.11-1.15,1.28-.93,1.34-1.41.59-4.34-.54-9.11,2.95-12.72,4.64-4.8,16.42-3.39,22.87-4.74,10.02-2.09,17.41-8.07,24.49-14.94,8.22,11.76,22.92,14.87,35.84,18.74l-5.22,1.3c5.61,11.28,1.68,23.64,2.57,35.53.33,4.4,2.62,8.72,2.05,12.51-.19,1.29-1.66.62-1.43,2.59.14,1.16,1.16.95,1.31,1.51,2.04,7.37,3.29,14.96,4.67,22.48ZM261.81,194.83c-.4-3.84.29-8.25,0-12.16,2.43-.56.73,2.09,1.41,3.19,1.69,2.71,18.61-6.65,21.59-.56-.34-3.21-1.72-13.84-4.1-15.28-1.7-1.03-5.63-1.06-7.91-1.95-6.8-2.66-15.14-6.82-19.22-13.01-6.83,6.67-13.75,11.45-23.3,13.52-12.45,2.7-23.78-2.63-25.05,13.74-1.44,18.58.25,37.86,18.27,47.61,1.27.16,8.4-5.32,10.46-6.4,2.44-1.27,10.85-4.05,11.69-4.75.39-.32,3.1-7.22,4.33-4.22,1.09,2.66-2.14.62-1.97,2.61.94,2.73,14.89,7.21,17.48,3.03,1.91-2.44.66-10.19.08-13.36-.76-4.15-3.36-8.16-3.76-12.01ZM85.61,314.79c1.03-14.97,1.8-30,1.34-45.05-.35-11.51-2.6-23.31-2.64-34.81-.04-10.8,5.24-47.14-.76-54.47-2.27-2.78-9.64-2.24-11.55.43-2.62,3.67.4,14.57.49,19.17.26,12.17-2.12,24.74-1.37,36.87.48,7.82,2.31,16.1,2.68,24.27.8,17.61.53,35.33,1.29,52.94l10.52.66ZM284.82,185.96l-20.43,4.35c.99,9.59,4.86,18.64,4.08,28.44,5.04,1.59,10.35,4.11,14.05,7.95,5.56-6.09,1.79-13.44,1.62-20.01-.18-6.95.36-13.81.68-20.73ZM188.16,220.8c-5.83-5.25-4.84-13.94,4.3-13.12,3.47-8.53-2.83-13.24-9.69-7.26-7.59,6.63-4.54,21.11,3.61,25.77,11.56,6.62,3.78-10.51,5.73-16.58-7.74-.75-5.43,6.4-3.95,11.18ZM528.08,253.66v49.3l12.86-1.93c1.27-3.39-2.13-23.97,4.29-22.75.95.18,3.23,2.59,3.23,3.32v17.75c.93,1.79,7.01.78,7.9.01,2.49-2.16-2.34-9.5,3.96-9.98l-.35-25.2-31.89-10.51ZM590.54,440.99v-154.47l-31.48,5.33-.12,9.09-32.83,3.98.66-50.62-55.58,9.84-16.35,172.97,8.15,1.89c-2.14-3.13-2.34-6.39-1.89-10.1s2.57-5.44,3.04-7.47c.57-2.43-.18-5.08.32-7.56.69-3.39,3.63-7.3,3.81-10.7.43-7.98-6.54-11.24-1.71-21.37,7.19-15.04,29.34-10.25,34.58,4.28,2.52,6.99.1,13.07,11.2,11.24,3.01-20.34-5.76-46.02,13.82-59.8,8.39-5.9,16.15-4.11,22.93,3.25,15.06,16.36,7.44,57.56,6.57,78.17-.14,3.41-.5,26.86.31,28,2.31,3.23,6.03-2.24,7.91-3.35,6.32-3.76,9.72-.76,15.07-1.48,3.14-.42,6.4-4.82,11.58-1.13ZM162.53,386.11c-.61,3.63.45,8.67,0,12.49,24.84,11.77,57.02,1.08,78.54-13.5,31.56-21.39,56.83-70.26,58.9-108.07.43-7.82,2.2-19-8.51-19.37.03,4.81-6.19,6.92-7.58,9.2-1.71,2.77-5.03,19.78-7,25.07-13.64,36.65-50.31,94.58-94.26,96.52-6.6.29-13.22-.83-19.11-3.96-.24,0-.94,1.41-.97,1.62ZM261.15,287.85c-20.28,4.16-45.71.31-59.82-16.11-2.71-3.16-5.4-12.93-7.05-13.37-5.67-1.52-36.42,12.03-42.34,15.93-15.21,10-22.83,31.31-30.71,46.86-.77,1.52-9.47,15.29-8.66,15.99,14.54-.41,30.56,10.23,37.39,22.76,1.25,2.3,1.74,5.37,2.77,7.61.17.37,1.81,3.66,2.56,3.15,1.23-4.06,3.81-7.53,5.29-11.48,8.17-21.96,4.83-35.73,6.56-57.86.08-1.02-.64-2.6.97-2.29,1.15.74.93,1.78,1.03,2.91,1.23,12.97.89,30.35-1.65,43.12-.96,4.83-4.16,10.37-4.32,14.73-.09,2.54,1.43,6.58.67,9.57,2.94.35,5.49-.55,8.24-1.3,23.94-6.5,52.55-32.42,68.68-50.97,1.94-2.24,21.83-27.92,20.38-29.24ZM265.09,280.62c-5.79,2.78-8.39,5.65-15.47,5.28-7.64-.4-12.49-6.63-14.41-6.98-2.85-.51-8.21.95-12.24.1-6.34-1.34-12.42-8.29-13.73-14.53l-10.54-2.27c7.84,18.95,34.5,26.85,53.56,24.96,4.41-.44,10.73-2.15,12.83-6.55ZM228.28,395.64h33.2c31.78-19.96,53.8-67.1,55.54-103.54.6-12.59,1.56-24.96-13.46-27.93-.7.16-.21,10.53-.35,12.16-2.76,32.01-23.18,78.31-47.66,100.24-8.49,7.61-17.91,11.46-26.43,17.59-.57.41-1.2-.08-.85,1.48ZM4.08,264.84v69.67c16.82-2.58,38.04-.34,36.45,21.73,1.33,1.89,8.97-1.19,10.1,2.4,2.04,6.5-.41,34.99,1.08,37.05l20.1,2.58v-26.29c-4.98-1.09-9.34-2.63-12.37-7.03-3.85-5.58-2.01-8.44-2.93-14.19-.69-4.27-3.68-5.67-2.3-12.52.37-1.83,1.66-1.42,1.87-2.74.52-3.26-1.25-2.71-1.41-3.91-.51-3.66.55-7.43,2.99-10.25,1.9-2.19,3.93-3.27,6.15-4.96l-2.84-46.94-3.6-2.32-53.27-2.28ZM324.53,281.01c-.5-.65-5.11-7.55-6.18-6.31l-1.31,85.45c11.48-6.1,25.06-9.56,38.13-9.21-5.21-15.09-10.62-31.57-17.16-46.13-3.2-7.13-8.64-17.52-13.48-23.79ZM276.65,284.95c.43-1.19,2.71-7.67,2.24-8.28-2,2.95-9.82,3.61-11.49,5.26-.71.71-2.01,4.6-3,6.06-16.7,24.69-35.19,48.43-59.85,65.86-12.46,8.81-26.55,16.4-41.99,18.16-1.88,10.33,4.29,13.53,13.45,14.41,48.29,4.6,86.76-63.31,100.63-101.47ZM543.2,281.6c-1,5.41.74,13.64,0,19.39h3.94v-18.73c0-1.39-3.36-3.84-3.94-.66ZM392.64,297.7l-22.65,4.64c-4.31,25.83-3.17,52.37-4.98,78.5-1.13,16.4-3.89,30.56-2.57,45.98.33,3.88-.35,8.26-.05,12.2,9.04-1.82,20.82-1.86,29.5-4.36,4.84-1.39,9.43-6.2,15.13-6.23,1.15-14.19-1.33-30.24.16-44.21.94-8.77,8-20.67,18-13.57,11.94,8.48,2.49,43.09,5.59,55.88l23.04-.43,9.73-102.67c-1.17-1.92-28.88,1.39-33.09,1.89-12.82,1.52-25.68,4.15-38.47,5.9l.65-33.52ZM416.24,301.71l-22.28-4.01-.67,30.89,23.39-3.25-.44-23.64ZM453,310.39c-3.56.17-20.33,2.3-22.46,3.84-2.88,2.07-1.72,6.08-1.45,9.15l34.58-1.64.66-9.93c-3.53-2.01-7.46-1.61-11.32-1.42ZM95.47,338.45c8.62-.1,7.68-18.69,5.16-23.24s-13.95-7.67-12.39-.12c.43,2.09,4.01,4.17,4.7,5.86,1.86,4.59.11,7.49.57,11.19.26,2.05,2.45,3.85,1.95,6.31ZM312.84,370.43c4.12-18.1,3.48-37.83,3.53-56.3-4.9,13.46-8.43,27.94-15.18,40.87-5.93,11.37-14.78,21.26-23.26,30.76l-11.52,8.89c7.68-.03,16.25-.99,23.81-2.49,8.52-1.69,15.72-2.25,19.25-10.99.98-2.43,2.9-8.69,3.37-10.74ZM71.8,370v-9.53c0-.19-1.08-.87-1.29-1.31,5.42-4.39,13.54-2.02,19.53-1.4,5.69-4.61,1.1-11.68-5.18-12.97s-13.17.08-19.63.89c-2.31-1.88,8.7-3.78,9.61-3.86,5.79-.5,11.43-.07,16.32,3.24,9.44-15.92-15.12-16.54-25.27-13.84-2.25-1.82,7.49-3.24,8.19-3.3,5.79-.49,10.63.33,16.09,1.97,1.81-9.53-1.26-13.33-10.82-13.76-7.91-.36-21.45,2.18-21.96,12.24-.14,2.66,1.16,4.07,1.18,5.81.01,1.93-1.81,4.55-1.93,7.23-.19,4.38,1.99,6.74,2.47,9.95.27,1.81-.82,4.8-.29,7.65,1.05,5.66,7.84,9.65,12.99,11ZM4.08,336.48v19.72l34.46.08c2.96-20.59-19.38-22.34-34.46-19.8ZM555.03,408.13c.2-11.48,1.67-23.03,1.34-34.53-.35-12.41-1.5-28.87-13.61-35.69-11.29-6.36-23.52,5.83-26.19,16.33-3.29,12.91-1.42,29.54-2.33,42.94,4.35,3.56,8.9-.62,13.83-.22.85-7.4-1.19-28.2,3.92-33.22,3.65-3.59,10.82-4.05,14.29-.09,4.81,5.5.75,32.53,2.32,40.74.51,1.71,4.54,4.25,6.43,3.76ZM89.56,366.72c8.76-5.41,9.56-18.23,11.16-27.61-13.3,2.44,1.29,18.47-11.83,21.04l.67,6.56ZM101.39,347c-.74,6.12-2.65,13.92-6.59,18.72-1.31,1.6-4.66,3.27-5.1,4.76-.56,1.86-.38,9.16.59,10.96s7.74,6.23,9.78,7.31c8.61,4.58,21.09,8.17,30.2,3.22,5.42-2.95,19.99-21.35,19-27.38-1.92-11.67-26.01-27.57-38.25-25.51l-3.05,7.91c2.57-.75,21.99,8.98,19.72,11.18l-26.29-11.17ZM355.82,352.92h-7.22c1.18,2.18,1.85,3.95,1.97,6.57,1.19,1.01,5.71-5.07,5.25-6.57ZM347.28,353.57c-6.41.4-28.96,5.16-31.25,11.16-9.18,24.03,14.12,56.65,16.11,79.9,1.01,11.74-5.27,14.42-7.93,23.62-.75,2.6-3.02,13.41-3.2,15.88-.35,4.69,3.64,7.51,7.58,4.9,2.02-1.33,3.8-13.14,6.72-16.95.89-1.16.83-1.86,2.76-1.5.86,1.97-2.06,1.95-1.33,3.58.23.53,1.57.65,1.91,1.41,2.16,4.88,2.08,14,.01,18.97-1.39,3.33-8.58,10.45-2.36,13.38,5.21.14,15.72-21.82,14.92-27.48h1.97c.45,11.05-7.38,19.29-12.48,28.26,11.81-4.26,14.58-16.88,18.09-27.6,1.59-.31.98,1.29.96,2.27-.14,5.86-3.14,13.03-6.55,17.77,1,1,2.37-1.03,2.96-1.64,15.17-15.94,5.52-33.77,3.63-51.62-3.53-33.29-1.42-50.89-11.13-84.32-.83-2.87-.95-6.96-1.38-9.99ZM4.08,358.17v82.16c12.34-.64,31.37-5.01,39.22,7.45.59.94.26,2.85,1.19,3.75,1.45,1.39,6.12.3,8.24.64-2.32-30.8-2.69-61.79-3.58-92.72l-45.08-1.27ZM75.51,358.92c-1.18.34-.96,1.28-1.11,2.17-1.58,9.4-.58,36.82,0,47.38.47,8.35,2.79,16.66,3.34,24.93,1.85,28.18-3.94,56.61-2.68,84.18.35,7.63,2.21,15.37,2.64,22.99,3.13,54.74-1.93,110.65-.01,165.65-.94,7.34,11.45,8.73,12.55,1.98-2.92-53.52.46-106.93,0-160.44-.25-28.25-.19-53.17.66-81.46.58-19.21-2.37-35.8-3.34-54.56-.89-17.18.46-35.02-1.29-51.96l-10.76-.89ZM547.14,402.87v-33.19c0-.36-3-5.04-3.26-5.28-3.4-3.04-9.61-1.53-11.79,2.06-1.49,2.45-2.65,29.88-1.41,30.85l16.46,5.56ZM91.2,411.41h71.33c-.78-2.97.78-7.69.64-10.11-.02-.36-2.9-1.37-3.29-5.97-.42-5.04,1.99-10.89,1.84-13.06-.07-1.03-1.46-2.3-1.67-3.54-.99-5.8,2.9-9.47,1.81-15.3-2.89,4.31-7.35,9.28-7.97,14.37-.65.84-7.16,1.19-8.45,1.74-.9.39-8.75,10.46-10.86,12.15-13.87,11.09-32.27,1.18-45.03-6.57l1.64,26.29ZM151.35,370.01c-1.7-.41-1.04.45-1.38.94-1.19,1.72-2.08,4.43-3.21,6.28l5.18-.73-.58-6.49ZM428.8,381.83c-4.48-19.98-19.12-11.09-20.41,4.91-1.05,13.06.32,28.44.64,41.47,1.93-.02,10.86,1.31,11.17-.08-.62-11.4-1.33-26.06.91-37.23.76-3.8,2.81-9.55,7.7-9.08ZM496.94,382.07c-7.01-8.91-20-10.88-27.38-1.22-6.37,8.34.7,13.34.57,20.96-.1,6.11-5.44,11.8-4.52,18.14,6.67-1.71,10.28-.68,12.19-8.53,1.19-4.89-5.47-5.71-4.23-14.08s21.43-16.91,26.22-6.97c.26-3.03-1.02-5.98-2.86-8.31ZM421.57,399.91c-.79,9.61.58,20.19,0,29.91l7.27-2.38c-1.69-5.63,2.1-43.61-.05-44.94-1.31.48-2.39,1.22-3.19,2.39-1.7,2.5-3.79,11.96-4.04,15.03ZM312.03,386.85c-.52-.97-.11-2.31-1.24-3.03-3.09,2.57-.77,5.8-.96,8.82-1.04,16-1.79,18.56,2.02,34.68,3.65,15.46,6.94,31.76,7.84,48.17l1.29.99c.26-4.68,1.07-10.2,2.94-14.51,1.88-4.34,7.03-8.3,6.94-14.04-.11-7.1-4.5-14.28-6.51-20.63-3.35-10.57-7.86-32.2-12.31-40.45ZM499.16,404.84c-2.34-3.57-.28-11.76-1.66-14.44-1.99-3.87-10.63-4.47-12.81-.02,7.95,1.26,8.13,7.99,11.19,12.67,1.25,1.92,4.7,3.77,5.26,6.4l1.3-.41,4.61-9.76c-4.07-1.28-6.78-3.65-6.6-8.23-2.62,4.24.71,10.34-1.3,13.79ZM201.32,404.18c28.66,3.17,61.15,4.8,89.43-1.62,7.65-1.73,19.22-2.99,16.41-13.49-26.18,9.77-55.47,8.99-83.12,7.93l-22.72,7.18ZM481.4,391.05c-6.32,2.1-8.73,9.2-4.26,14.45,1.52.28.87-.67.98-1.62.53-4.51-.08-8.98,3.28-12.82ZM496.91,406.41c-.34-.48-1.24-.84-1.86-1.73-2.57-3.67-3.82-12.16-10.72-12.39-8.72-.28,2.09,5.37,3.64,7.28l-7.88-2.62c-5.1,14.76,8.36,11.07,11.5,14.47.42.45,3.1,9.61,4.1,11.65,1.19,2.42,5.12,9.11,6.78,11.02,13.12,15.05,25.94-11.49,6.23-16.11l3.56,6.96-1.29.62c-4.2-6.71-9.46-12.74-14.05-19.15ZM71.72,400.32l-19.64-2.7,2.54,54.17c13.54.93,17.7,2.97,16.81,17.51l3.66.62c2.01-23.31-1.99-46.39-3.37-69.6ZM165.33,409.93c1.01.94,9.69,3.32,11.66,3.79,30.85,7.41,81.5,7.84,112.58,1.45,9.11-1.87,20.42-3.45,16.63-15.59-11.36,5.39-25.02,7.36-37.49,8.53-27.97,2.62-55.73-.73-83.46-1.96-6.97-.31-13.87-2.24-20.73-3.29.12,1.73-.48,5.85.83,7.07ZM511.64,473.53c.37,2.95-.27,6.5,0,9.53,7.96-5.98,16.99-15.04,18.33-25.38.95-7.33-4.72-48.8-8.68-53.94-6.46-8.38-16.76-3.51-17.27,6.34-.27,5.22,9.07,7.12,12.54,9.88,6.07,4.82,6.71,12.23,1.25,17.67-4.53,4.52-10.96,3-15.39-.9-1.26-1.11-5.93-7.51-6.75-9.06-1.37-2.59-4.83-14.39-5.38-14.96-1.17-1.21-8.13-.47-9.88-3.26-1.1.11-3.2,7.86-4.54,9.24-1.78,1.83-4.71,1.21-7.08,2.12-8.07,3.1-9.49,21.62,4.21,17.36,5.93-1.85,7.78-6.64,11.7-10.69-1.7-3.64-4.05-8.01-1.99-12.12-.74,2.79,1.57,4.75,2.07,6.17,2.24,6.3,3.52,18.03,12.4,17.49-.22,2-2.41,1.49-4.23,3.32-1,1-4.29,6.9-3.66,7.84,11.05,1.47,21.01,12.61,22.36,23.34ZM532.35,399.58c-3.71-.5-8.33.36-12.16,0,.27,1.98,2.16,2.05,3.42,4.14,3.34,5.55,5.92,27.43,6.99,35.07.83,5.93,1.57,11.96,1.41,17.98,8.21,2.03,7.45-4.46,12.79-7.27,2-1.05,9.1-1.93,9.52-3.02-2.54-5.97,1.73-32.91-.61-36.05-2.11-2.83-17.6-10.34-21.36-10.85ZM210.52,420.62l-46.65-7.87c-5.57,16.28-7.12,33.28-9.91,50.12-4.89,29.57-9.84,62.38-13.76,92.3-2.66,20.3-4.48,40.71-7.27,60.99.06,1.1,1.03,1.76,1.98,2.03,2.63.74,17.38-2.5,21.07-3.33,79.65-17.95,111.14-69.31,121-145.9,2.12-16.45,2-33.11,1.93-49.67l-19.07,1.31c-3.45,36.14-13.16,73.36-31.67,104.76-.42.71-1.49.95-1.87,1.56-3.72,6.05-6.66,13.6-13.13,17.25,15.64-21.16,26.97-45.12,34.5-70.34,2.93-9.81,5.63-19.95,7.37-30.1,1.27-7.42,2.05-15,2.83-22.48l-21.69.67c-.14,3.68-1.11,7.25-2.03,10.78-9.32,35.67-30.38,74.44-55.58,101.53-.96,1.03-13.45,13.98-14.05,13.22-.37-1.58.32-1.69,1.07-2.54,27.3-30.89,48.68-57.8,62.13-97.64,2.78-8.25,4.49-16.9,6.48-25.37l-21.59-.56c-4.07,16.76-13.08,30.84-21.78,45.41l-11.84,14.3c11.7-19.53,25.88-37.87,31.55-60.47ZM161.21,413.39l-70.27.73c-1.06,11.22,2.62,20.84,3.23,31.78.48,8.57-.13,17.44-.69,25.99,13.28-.91,19.91,1.75,18.41,16.43,4.25.4,9.87.68,13.81,2.29,1.72.7,4.04,3.46,4.43,3.59,1.62.54,15.02,1.11,15.85.59,3.36-15.57,3.82-31.76,6.72-47.39.09-.5,1.11-.51,1.2-1.02,2.15-11.09,3.87-22.21,7.29-33ZM312.02,439.45c-1.72-8.53-3.16-17.1-5.83-25.42l-10.13,2.05c1.19,17.27,6.16,39.04,3.91,56.15-.13.98-.12,2.03-1.33,2.28l-4.61-57.84-13.14,1.98c1.45,29.3-1.63,56.82-8.34,84.67-9.14,37.94-23.23,65.33-56.16,87.8-22.91,15.63-49.72,25.09-77.12,29.24l-1.57,17.68c25.72,10.32,57.95,13.25,85.68,12,10.86-.49,21.13-3.24,31.54-3.96,11.4-.8,22.82,1.16,34.2.67,7.08-.31,37.07-4.85,40.45-10.82l.68-2.66c-5.95-63.53-5.72-131.8-18.23-193.81ZM146.09,496.21h-16.11c-.63,0-3.17-3.11-5.23-3.97-4-1.68-9.86-1.94-14.17-1.94,1.58-13.77-3.5-18.56-17.13-16.01l-2.6,27.84c4.96-.17,10.03-.9,14.08,2.69,2.35,2.08,3.34,6.51,6.07,8.39,4.07,2.81,10.01,1.55,14.58,3.2,1.05.38,1.75-.32,1.43,1.49-4.69-1.38-11.32-.41-15.77-2.3-3.87-1.65-5.75-8.63-10.58-11.11-3.72-1.92-5.98-.3-9.81-.39,1.18,10.81.14,21.75.61,32.58,2.04,47.06-1.11,93.58,0,141.32.03,1.15,1.38.74,1.42,1.89.21,7.49,1.1,23.7,0,30.3-.8,4.75-13.74,7.33-16.41.57-.72-31.99-1.6-64.45-1.41-96.59.11-18.52,2.15-37.05,1.37-55.86-.49-11.84-2.79-23.65-3.34-35.44-.8-16.86.28-33.93,1.85-50.67l-5.05-1.01c.84-15.39-3.11-17.48-17.45-17.72-2.56-.04-6.38-.62-8.24,1.01v36.81l1.04.9c8.91-2.5,17.86,1.43,21.31,9.94-3.23-.28-3.78-4.48-7.01-6.46-7.24-4.43-19.54-2.12-24.22,5.14-2.08-2.41,3.33-4.98,4.27-6.55l-35.5,1.31v341.8h586.45v-70.66c-7.84-6.38-16.62-7.56-26.43-6.04-2.25.35-6.05,2.23-7.55,2.26-1.68.02-6.57-2.59-9.26-2.94-7.65-.99-11.53,2.56-16.28,2.48-2.42-.04-5.71-2.77-8.33-3.52-9.86-2.8-15.85,1.42-24.86,4.16,9.12,12.61-9.17,15.06-18.26,16.25-14.71,1.92-15.11.47-27.78-3.41-6.27-1.92-13.86-1.35-19.97,1-4.58-5.67-11.36-13.46-19.24-13.79-7.01-.29-10.94,4.17-17.28,5.57-6.91,1.52-35.33,1.06-22.99-11.15,5.73-5.68,18.54-10.18,26.47-8.2,4.34-14.64,21.63-23.64,36.29-22.44,2.92.24,9.83,3.36,10.35,3.23,1.67-.39,8.73-6.52,12.52-7.93,3.2-1.19,7.5-1.3,9.63-2.2,2.54-1.07,10.31-11.95,14.92-14.67,4.12-2.43,11.92-3.36,14.5-4.9,1.23-.74,8.46-11.58,10.72-13.93,4.18-4.35,13.95-11.99,19.53-14,2.54-.91,7.11-.97,8.73-1.79.68-.34,5.11-5.52,7.01-6.79,14.78-9.89,20.55-3.93,34.52-.54,4.22,1.02,8.74,1.23,13.04,1.75v-222.82c-3.03-1.25-5.41-1.98-8.56-.34-1.86,1.48,2.75,1.63,2.64,2.96-8.07-2.41-15.87-3.74-22.91,2.07l1.86,3.19c-5.81-1.9-13.45-2.27-18.73,1.32-4.76,3.23-3.79,8.78-12.75,6.64-1.11,7.55-5.84,13.34-10.83,18.75-1.46,1.59-9.48,7.91-9.95,8.79-.42.81-2.07,9.18-2.9,11.7-1.51,4.56-3.83,16.49-9.93,13.93,1.31,2.74.84,7.2,1.89,9.62.28.65-.32,1.12,1.06.88.99-.3,7.44-8.21,8-9.42,1.7-3.68,1.56-7.53,4.3-11.81,12.32-19.18,47.47-10.39,47.13,13.61-.03,2.44-1.85,6.28-1.82,7.97.06,3.36,2.72,6.4,1.84,12.42-.6,4.14-5.59,9.31-5.62,10.57-.03,1.38,6.81,12.43,7.95,15.48,11.38,30.46-14.9,31.31-24.64,8.52-2.75,2.12-5,4.96-8.08,6.7s-10.9,3.13-12.31,4.78c-1.96,2.3-3.18,10.08-1.59,12.81.88,1.51,14.97,11.29,17.7,13.85,4.1,3.85,12.88,13.97,13.43,19.43,1.13,11.12-8.3,17.87-18.66,18.7-3.66.29-10.06-1.09-12.47-.69-4.1.68-7.92,5.01-16.41,5.19-6.12.13-42.04-6.74-46.01-9.86-1.74-1.37-1.22-3.84-4.14-3.67-3.6.22-9,7.25-14.51,8.19-4.13.7-11.97.66-11.34-5.36.44-4.3,9.3-8.39,12.09-11.64,3.56-4.14,4.86-12.45,11.83-12.36,4.31.06,7.81,4.98,10.9,2.9-9.57-13.11-4.08-29.95,9.93-36.87.77-4.57-12.76-8.79-15.82-10.79,4.46,23.37-16.33,24.33-33.43,20.6-10.99-2.4-21.39-6.05-33-8.42-1.37-.28-2.56-1.57-3.64-1.66-3.15-.26-8.52,5.06-15.69,3.89-9.39-1.53-2.63-9.16.61-13.1,1.35-1.65,10.88-11.39,12.2-12.12,3.53-1.96,6.23-.14,9.56-1.65-4.15-14.26.99-29.17,7.35-41.94,11.56-23.22,21.84-33.94,46.01-44.03,4.22-1.76,11.12-2.86,14.84-4.91,2.63-1.45,6.46-7.3,9.35-9.69,5.73-4.74,12.6-7.31,20.07-7.54l4.28-10.21-6.93-9.21c-2.96,4.81-7.51,9-13.25,10.09-11.76,2.22-18.64-6.76-29.81,2.41-2.7,2.22-6.29,8.13-9.5,8.91-8.02,1.94-17.9-1.29-25.32-1.05-5.44.18-11,4.46-16.8,3.29,13.73-7.99,27.62-1.56,42.05-3.65,5.74-5.63,10.79-13.25,19.78-13.09l1.33-9.25c-12.67-1.57-27.85-2.64-35.55,9.55l-1.31-.33,3.94-5.91c-10.47-5.19-19.21,1.84-28.25,4.61-4.22,1.29-28.2,4-29.32,5.54.16,16.22,9.17,38.6.27,53.52-2.89,4.84-12.83,11.71-17.83,14.35-2.44,1.29-8.54,1.19-10.97.19-3.64-1.51-2.37-6.63-1.44-9.31,2.89-8.26,7.09-9.69,5.42-20.29-.14-.89-1.9-1.9-2.01-3.27-5.29,5.7-1.86,19-14.47,14.81.85,12.59,1.47,25.26,2.57,37.83,2.6,29.5,6.53,61.04,7.31,91.3.09,3.5.55,14.03-.65,16.49-1.88,3.85-12.56,5.9-13.1,7.28l-.13,28.1c8.21,1.46,10.47,9.02,16.28,12.77,7.93,5.11,31.48,12.84,35.6,20.27,1.84,3.31.71,5.75,1.37,7.71.34,1.01,3.58-.9,2.51,5.83-.83,5.22-6.1,7.56-10.56,9.16-13.76,4.91-24.89,3.48-38.58-.46-6.43-1.85-49.02-17.11-51.7-19.63-7.43-6.98.89-10,1.1-10.72.69-2.36-.38-7.98.26-11.42.77-4.12,4.25-5.41,4.63-7.1.52-2.38-1.04-18.71-1.65-21.98-.09-.47-1.15-.42-1.26-.94-.26-1.21-.34-6.88-.76-7.35-17.92-2.73-35.55,2.67-53.49,3.24-10.65.34-21.22-.72-31.84-.61-1.06.82-6.69,23.55-6.67,25.93.04,3.55,3.57,7.97,4.33,12.08.51,2.78-.14,5.68.45,8.09.69,2.85,4.64,2.44,3.11,8.56-1.05,4.21-19.78,15.65-24.32,17.88-14.61,7.19-28.57,7.59-44.18,3.44-6.32-1.68-19.63-6.16-15.5-15.15,1.48-3.23.95-2.55,1.99-5.87,2.29-7.37,17.65-13.52,23.86-18.87,4.33-3.73,6.62-8.64,10.68-12.51.91-.87,3.6-1.66,3.94-2.13,1.01-1.42,2.79-26.82,2.04-28.01-2.85-.93-12.23-3.27-13.37-6.02l.32-18.39c-3.35.2-5.17.23-5.33-3.6-.91-20.79,7.92-47.55,8.05-68.93-.36-3.19,2.29-9.1,2.51-10.75,1.83-13.57,2.78-27.37,4.62-40.95ZM42.22,492.26v-41.08c0-1.34-3.35-5.62-4.59-6.59-8.2-6.43-23.85-2.26-33.54-2.94v52.58l38.13-1.97ZM508.63,472.28c-5.12-18.67-20.84-26.48-37.67-15.1-14.15,9.57-22.56,32.18-19.8,48.88,13.68-8.72,7.76-30.78,24.63-36.17,14.23-4.54,35.4,2.68,29.58,21.03-1.57,4.96-11.57,13.26-7.21,18.43,4,4.75,6.6-5.27,7.58-8.21,3.23-9.7,5.6-19.02,2.9-28.87ZM439.32,516.58v-12.82c0-2.08-2.09-10.65-3.1-12.64-.31-.6-8.61-8.23-5.13-7.4,6.74,1.6,9.7,14.87,10.19,20.71.28,3.4-.97,13.72,1.08,15.4,5.3.74,21.09-9.31,22.79-13.97,1-2.73-.84-9.56-2.17-12.28-1.86,2.74-8.57,14.17-11.61,14.35s-2.54-6.87-2.86-8.65c-.09-.52-1.25-.55-1.31-.79-.08-.31,1.15-4.25,1.49-5.74,1.84-8.05,4.58-15.89,7.72-23.5-11.58,4.85-25.1,8.68-35.16,16.44-13.29,10.25-31.23,43.4-31.28,60.14-.04,13.76,5.99,18.19,15.83,25.96-5.81-2.23-11.5-5.67-14.4-11.41l-1.37-.41c-2.33,6.65-6.85,12.25-4.95,19.72.89,1.55,15.31,3.82,18.36,4.65,11.69,3.14,26.87,10.12,38.88,5.9,10.02-3.52,11.14-12.78,8.03-21.91-1.47-4.31-5.57-7.1-6.42-11.65l5.14,5.01c2.26,8.08,9.58,9.84,16.55,12.73-1.54-7.65,4.23-14.63,5.81-21.88-4.93-5.94-10.99-10.85-17.91-14.28-8.79,3.99-20.01,9.11-29.15,3.5-1.21-.74-3.74-4.04-4.79-4.46-2.05-.83-5.09-.13-7.76-.79-3.28-.81-8.6-6.07-4.5-4.7,2.99,1,6.61,5.61,11.62,3.83-2.39-7.36-4.54-18.37-2.61-25.96.27-1.06-.76-1.97,1.29-1.64-.75,11.5-1.11,27.52,10.84,33.52,2.31-5.3,1.9-10.44,6-15.05,1.14-1.28,6.97-4.72,6.87-5.63-3.07-6.56-12.14-2.86-14.83,2.27-2.49.13.56-3.29,1.29-3.97,3.32-3.08,7.25-3.06,11.54-2.6ZM502.43,492.91c9.03-17.86-14.34-26.94-28.05-20.49-6.26,2.94-7.48,9.56-.68,7.2,1.25-.43,1.97-2.13,3.26-2.65,6.6-2.65,14.78,4.23,21.42,4.22-.59,3.17,3.97,5.19,4.09,5.54.45,1.26-2.64,4.05-.05,6.17ZM485.34,530.39v-20.7c-2.43-4.37-12.11,8.71-12.22,9.86-.27,2.82,6.76,13.46,9.25,14.85,2.08,1.16,5.81-4.29,7.62-5.59,2.94-2.11,6.12-3.59,9.19-5.45.12-6.44-4.88-13.61-4.31-19.61.26-2.76,4.52-4.67,4.94-9.84.22-2.67-1.02-8.05-2.84-9.97-1.21-1.27-13.97-5.98-16-6.07-5.12-.22-5.21,3.56-8.51,3.89-3.64.36-4.18-3.09-5.19-2.62-3.29,6.71-5.46,11.81-.68,18.41,4.24,5.87,11.26,9.87,16.12,2.27.3-1.85-6.16-2.41-5.25-5.57l8.54.66-6.58.98,6.53,3.37c-.67,9.24,1.68,18.71.75,28.22-.11,1.14.13,2.54-1.35,2.92ZM487.31,569.82h15.45c.79,0,12.41-1.85,13.01-2.11,1.28-.55,1.55-2.35,2.75-3.16,6.36-4.32,13.93-8.94,22.11-6.18,4.69,1.59-.46,6.43-.73,8.55-.74,5.81,12.06,17.26,17.91,16.58,6.96-.81,7.01-10.48,6.12-15.69-1.21-7.13-9.89-17.12-10.02-22.09-.11-4.18,5.03-7.44,5.55-11.89.28-2.4.53-10.14-3.13-8.27-1.94,7.23-7.71,12.28-13.03,17.07,6.37,10,3.65,22.19,7.12,33.09-3.21,3.62-3.79-16.37-3.96-17.28-.09-.47-1.17-.43-1.26-.94-.83-4.43-.75-9.06-2.7-13.3-7.58.17-16.43,10.78-23.83,8.38-3.21-1.04-3.13-13.82-3.08-16.96l3.9,15.49,10.56-3.99c-9.16-3.94-14.87-10.32-13.73-20.96.2-1.9,3.56-14.55,5.84-12.23.77.63-3.58,6.98-.99,5.9.89-.37,3.4-3.6,4.64-4.57,9.99-7.86,26.47-13.75,31.22,2.6.93.18,1.54-.23,1.84-1.1,1.62-4.73-2.49-12.96-5.45-16.66-9.82-12.27-30.71-10.54-38.6,2.85-4.38,7.44-2.73,11.42-10.07,18.19-6.6,6.09-15.04,8.91-21.36,16.3-4.15,4.86-14.73,24.86-15.62,30.86-.75,5.08,1.02,10.55,3.85,14.74,4.37,6.5,10.87,5.82,17.83,4.96,9.13-1.13,39.99-11.76,45.91-17.86,1.29-1.33,6.23-8.43,5.9-9.88l-1.31-.33c-1.26,3.24-5.3,6.19-8.56,7.22.19-.59,9.49-7.83,5.6-7.21-1.56.25-5.81,3.52-8.23,3.27l3.94-3.62c.19-1.26-4.65,1.07-5.21,1.36-3.49,1.79-8.85,7.18-11.97,8.4-12.29,4.82-28.01-.75-39.35,6.34.36-4.59,7.3-4.42,8.88-5.91.6-.57,2.54-6.06,3.5-7.67,1.09-1.84,6.47-10.87,7.68-11.39,1.09-.46,1.17.56.96,1.3-.44,0-1.08.08-1.3.47-1.03,1.83-9.44,16.49-8.54,17.29ZM468.24,502.77l-1.65-2.61.34,2.62h1.31ZM483.37,502.78c-2.65.55-3.04,3.2-6.26,3.33-2.68.11-6.94-3.05-8.42-2.62-.54.16-5.11,6.93-6.34,8.18-9.22,9.4-24.44,8.65-29.52,21.1-.54,1.32-2.72,8.8-2.06,9.44,10.91.28,21.34-4.63,29.51-11.58s13.14-18.06,22.93-24.06l.15-3.8ZM520.41,537.4c1.26,2.12,7.68,7.36,10.27,7.82,5.41.97,14.92-6.53,18.45-10.56,15.08-17.22,1.06-32.71-18.26-20.88-1.28.78-11.34,9.33-11.67,10.02-1.2,2.55-.35,10.96,1.22,13.59ZM472.7,522.66c-2.05-2.93-5.39,4.32-7.11,6.08-2.97,3.07-6.59,5.19-9.8,7.96l17.36,14.09,8.9-14.79c-3.79-2.56-6.33-6.63-8.69-10.41-.54-.86-.26-2.34-.67-2.92ZM388.03,559.97c-2.75-.33-4.46.11-6.79,1.42-1.13.64-8,7.61-9.34,9.07-.89.97-6.18,7.11-6.23,7.6-.03.27,2.19.3.01,4.25l4.6-1.96-1.97,3.28,14.38-4.02c-.78-7.61,1.89-13.29,5.34-19.63ZM515.58,581.66c-12.57,5.32-36.87,15.84-46.34,1.49-17.61,8.84-16.7,31.64-.53,41.76,5.78,3.62,12.81,4.52,18.6,8.01-5.3-.36-12.65-2.75-17.35-5.33-4.2-2.31-6.55-6.1-10.57-7.84-1.81,3.79-7.99,15.62-4.1,18.89,1.45,1.22,22.74,6.31,26.22,6.99,13.59,2.65,30.17,6.19,38.35-8.12,4.94-.07-2.87,4.89-1.64,5.93,6.9,1.15,17.42.43,23.02-4.25,6.93-5.8,5.44-11.84,1.66-18.77-5.61-10.28-16.14-15.62-24.05-23.27-5.76-5.57-6.21-7.77-3.27-15.48ZM452.47,634.9l3.88-14.02c-13.39-10.08-13.52,3.67-19.29,9.47-.75.75-13.13,7.65-10.89,9.81l5.91-2.62-3.94,4.59,3.94-1.3-1.31,2.61c8.99.82,13.19-9.14,21.7-8.53ZM315.06,644.76l-37.48,4.28c.52,5.29,2.06,10.51,2.63,15.78.77,7.27-.48,15.45,3.17,21.81.75,1.31,3.67,5.78,5.36,4.76,2.51-7.89,9.67-13.79,17.15-16.71,3.22-1.26,6.22-1.3,9.19-2.64v-27.28ZM187.51,650.67l-35.5-4.61-1.98,26.3c7.85-.31,15.69,2.06,22.01,6.59l8.23,7.87c-.03-12.45,3.89-24.35,7.23-36.14ZM590.54,666.45c-11.74,1.11-23.4-7.29-34.52-5.91-3.38.42-18.49,7.42-18.09,10.84,10.76,1.75,15.49,7.06,15.79,18.09,16.13-4.56,18.23,4.05,24.68,15.1.47.8,4.38,4.43,4.84,5.8.54,1.59.6,6.35.8,6.62.22.3,5.69,1.54,6.49,3.36v-53.9ZM546.23,699.06c1.96-3.15,3.53-5.89,6.71-8.02-1.63-9.56-3.85-15.86-14.31-17.72-15-2.67-31.02,16.09-39.48,26.64,4.07-1.9,14,4,16.12,3.92,1.08-.04,2.75-1.8,4.38-2.15,5.06-1.11,13.15-1.18,17.3,2.2,1.28,1.04,2.42,3.99,3.96,3.97,1.2-.01,4.16-6.95,5.32-8.83ZM136.23,686.82h11.51c.45,0,7.59,2.3,8.47,2.7,8.16,3.68,14.74,12.47,14.54,21.63.51.1,7.93-5.88,8.1-6.36.19-.56.87-10.45.83-11.73-.37-11.6-26.28-24.74-35.27-16.12-2.54,2.43-4.69,7.46-8.19,9.89ZM328.21,682.87c-7.05-7.98-11.93-10.35-22.14-6.02-6.72,2.85-11.98,7.99-14.99,14.59-.96,2.1-4.37,11.62-3.53,13.03l12.38,4.04c1.44-3.89,2.37-8.04,4.36-11.75,4.27-7.97,14.92-13.78,23.92-13.89ZM279.55,682.22c-1.01-1.46-2.5,3.07-2.58,3.66-1.25,8.46-1.29,16.27,8.5,18.03-.65-2.37,1.72-8.38,1.24-10.08-.21-.73-8.98-7.34-7.16-11.61ZM183.56,684.2c-.97-1.02-1.17.11-1.31.97-.32,2.06-1.86,16.74-1.31,17.43,7.58-2.54,4.49-12.68,2.62-18.4ZM344.64,692.75c-4.58-.84-10.33-6.03-14.41-6.96-12.46-2.84-28.36,10.81-26.91,23.96l14.37,5.34c1.32-9.4,6.78-15.48,15.14-19.38l11.82-2.96ZM165.42,701.03c-4.55-7.44-11.67-11.33-20.39-12.15-10.53-.99-13.49,2.38-21.93,7.16-.18,1.05.91.69,1.62.64,14.86-1.16,33.45,2.2,35.86,19.72,10.13-2.33,9.44-7.86,4.86-15.36ZM581.33,717.06c1.35-6.03-3.52-9-5.82-12.91-1.43-2.44-1.9-5.45-3.87-7.96-10.44-13.31-23.26-2.18-27.12,9.7,9.94-.74,21.47,3.41,23.02,14.47l13.8-3.29ZM356.47,698.66c-10.33-8.28-33.11-.09-35.86,12.44-1.97,8.95,3.81,6.46,10.22,9.24.38-8.47,5.68-14.68,13.17-18.06,4.05-1.83,8.38-2.09,12.47-3.62ZM145.43,706.55c-2.85,4.51-12.15,6.71-7.9,14.15,1.81,1.16,17.91-1.23,19.94-2.45,2.87-1.72-.88-8.55-2.47-10.42-7.92-9.34-27.55-11.79-38.36-7.4-5.4,2.19-9.67,11.38-2.11,13.34-.69-6.04,5.49-8.79,9.86-11.17,1.28,1.66-4.19,4.29-5.25,5.59-4.65,5.74-.92,7.74,4.59,9.52-.48-6.2,4.49-11.5,10.52-11.83-.84,2.99-5.65,3.92-7.24,6.23-4.83,7.02,3.11,6.88,7.9,8.23-1.32-7.42,3.63-12.36,10.52-13.8ZM369.39,722.74c1.49-1.66,3.42-5.84,1.23-7.64-12.64,10.53-31.34,10.55-46.32,5.54-11.95-4-28.7-10.14-40.31-14.92-4.33-1.78-7.73-5.35-12.32-5.76-.42,2.86.57,5.18,2.45,7.25,22.94,6.09,54.23,25.9,77.91,22.15,3.67-.58,15.04-4.05,17.36-6.64ZM188.17,700.63c-.95-1.05-8.09,6.76-9.53,7.88-18.87,14.7-41.23,18.86-63.43,8.21-2.94-1.41-4.69-4.36-7.25-3.93-3.18,9.97,21.48,15.01,27.92,15.47,16.56,1.17,35.12-7.01,47.63-17.5,3.57-2.99,5.44-5.05,4.66-10.13ZM365.49,704.12c-6.65-4.75-19.04-1.35-25.26,2.89-2.77,1.88-8.94,9.62-8,12.9.86,3.01,26.62,5.1,18.89-5.71-1.8-2.52-5-3.09-7.29-4.53-.66-.41-1.94-1.01-.81-1.82,7.05,2.11,12.33,4.67,10.84,13.15,4.87-.28,6.58-3.13,4.76-7.72-1.26-3.17-6.38-3.65-7.39-6.74l6.59,2.94,5.56,8.22c3.79-2.44,3.84-6.07.03-8.56-1.98-1.29-6.3-.76-5.6-3.92,4.88,1.33,10.19,2.32,10.18,8.54,2.53-2.14-.55-8.26-2.49-9.65ZM520.46,712.84c-13.03-19.92-38.12-9.08-49.94,6.16l-.31,2c7.3.49,12.94,5.84,17.42,11.05,11.49-8.69,23.85-2.76,30.23,8.56,2.43-1.94,6.23-1.2,8.6-2.48,2.23-1.21,3.53-6.1,5.53-8.28,2.51-2.74,7.54-5.28,11.21-5.88,2.06-1.7-1.76-10.03-2.96-12.18-5.51-9.88-12.47-10.6-22.69-7.21-.29,2.77,3.07,3.76,3.95,5.09,2.55,3.83,4.45,10.48,5.15,15.04.23,1.52,1.15,4.38-.23,5.47-2.09-6.62-2.04-11.34-5.97-17.35ZM562.02,712.7c-4.12-4.03-16.14-7.45-20.7-2.56l4,13.34c5.96.91,12.88,2.94,16,8.66.94,1.73,1.88,7.44,3.31,7.8,3.01-.59,6.71-.89,9.74-.48,2.55.35,6.23,2.91,7.28,2.97,2.37.14,5.99-3.83,8.88-1.71-.66-3.89,1.2-16.87-.66-19.38-3.32-4.49-15.65-2.67-19.89-.18-2.91,1.71-1.55,4.21-4.43,3.78,1.69-4-.63-9.39-3.53-12.24ZM590.54,764.38v-23.01c-3.15-1.57-7.42,3.13-8.99,3.19-1.09.04-2.81-2.22-4.23-2.79-4.38-1.76-10.37-1.52-14.7.25-1.46-1.07-.31-2.42-.94-4.27-3.77-10.92-14.86-15.81-24.99-9.15-4.5,2.96-5.37,6.57-8.6,10.47l8.84,5.6,2.32,3.26c-4.51-3.35-13.43-10.38-19.3-6.6-.63.41.09,3.26-3.29,2.04-.32-.12-2.43-4.69-3.43-5.89-12.05-14.4-25.15-6.27-34.45,5.86.04-3.65,3.27-7.35,6.24-9.2,1.46-2.68-5.65-7.82-8.02-9.07-5.86-3.11-11.9-3.75-18.13-1.29l-11.66,7.4c7.4,5.53,14.29,14.75,15.79,24,10.94-5.38,25.13-2.44,33.2,6.65,9.92-3.16,16.05-7.48,27.29-4.36,2.23.62,6.49,3.61,7.55,3.58,1.58-.04,6.7-2.91,9.88-3.23,7.81-.8,11.08,3.23,15.76,3.3,2.41.04,7.43-2.27,10.62-2.57,8.2-.77,16.46,1.26,23.25,5.83ZM449.59,735.08c-13.76-11.36-34.3-7.16-44.73,6.35-6.95,9-3.51,11.16-1.02,20.96,7.27-1.92,12.89-1.2,19.4,2.66,6.29-8.73,17.72-7.78,23.98.36h1.28c2.28-2.77,13-6.85,13.23-9.89.28-3.66-9.07-17.91-12.15-20.44ZM396.97,751.52c-4.38-1.75-9.77-.26-13.98,1.57-2.76,1.2-12.47,7.33-11.32,10.84,1.42,4.34,28.01,5.36,30.83-1.12-1.22-3.54-1.73-9.77-5.53-11.29ZM496.15,765.41c-5.77-8.64-14.65-11.95-24.97-10.91-7.54.76-15.56,10-23.04,12.53-3.96-1.53-6.51-5.32-11.11-5.95-4.86-.67-9.37.04-11.4,5.05l6.88,8.66c6.08-2.33,14.24-2.83,20.4-.67,2.15.75,3.93,2.6,5.98,3.23,6.9,2.12,32.52-.31,38.24-4.79,3.28-2.56.41-5.06-.99-7.15Z"/>
  <rect x=".14" y="841.29" width="595" height=".66" fill="#fff"/>
  <path d="M146.09,496.21c-1.84,13.58-2.8,27.37-4.62,40.95-.22,1.64-2.88,7.55-2.51,10.75-.13,21.38-8.96,48.14-8.05,68.93.17,3.84,1.99,3.8,5.33,3.6l-.32,18.39c1.14,2.75,10.52,5.09,13.37,6.02.75,1.19-1.03,26.59-2.04,28.01-.33.47-3.02,1.25-3.94,2.13-4.06,3.87-6.35,8.79-10.68,12.51-6.21,5.35-21.57,11.5-23.86,18.87-1.04,3.33-.5,2.64-1.99,5.87-4.13,8.99,9.18,13.47,15.5,15.15,15.61,4.15,29.57,3.75,44.18-3.44,4.53-2.23,23.26-13.67,24.32-17.88,1.53-6.11-2.42-5.71-3.11-8.56-.59-2.41.06-5.32-.45-8.09-.76-4.11-4.28-8.53-4.33-12.08-.03-2.39,5.6-25.12,6.67-25.93,10.62-.12,21.19.95,31.84.61,17.94-.58,35.57-5.97,53.49-3.24.42.47.5,6.14.76,7.35.11.51,1.18.47,1.26.94.6,3.27,2.17,19.59,1.65,21.98-.37,1.7-3.85,2.99-4.63,7.1-.65,3.44.43,9.06-.26,11.42-.21.73-8.53,3.75-1.1,10.72,2.68,2.52,45.28,17.78,51.7,19.63,13.69,3.94,24.82,5.37,38.58.46,4.46-1.59,9.73-3.94,10.56-9.16,1.07-6.73-2.17-4.82-2.51-5.83-.66-1.96.47-4.4-1.37-7.71-4.13-7.43-27.68-15.16-35.6-20.27-5.81-3.75-8.07-11.3-16.28-12.77l.13-28.1c.54-1.38,11.22-3.43,13.1-7.28,1.2-2.46.74-12.99.65-16.49-.78-30.26-4.71-61.8-7.31-91.3-1.11-12.57-1.73-25.24-2.57-37.83,12.61,4.19,9.17-9.1,14.47-14.81.11,1.37,1.87,2.38,2.01,3.27,1.67,10.6-2.53,12.03-5.42,20.29-.94,2.68-2.21,7.8,1.44,9.31,2.43,1.01,8.54,1.1,10.97-.19,5-2.64,14.94-9.51,17.83-14.35,8.9-14.92-.11-37.31-.27-53.52,1.12-1.55,25.1-4.25,29.32-5.54,9.04-2.77,17.78-9.8,28.25-4.61l-3.94,5.91,1.31.33c7.7-12.19,22.88-11.12,35.55-9.55l-1.33,9.25c-8.99-.16-14.04,7.45-19.78,13.09-14.43,2.09-28.31-4.35-42.05,3.65,5.8,1.17,11.37-3.12,16.8-3.29,7.42-.24,17.3,2.99,25.32,1.05,3.21-.78,6.8-6.69,9.5-8.91,11.17-9.17,18.05-.19,29.81-2.41,5.75-1.09,10.29-5.28,13.25-10.09l6.93,9.21-4.28,10.21c-7.47.23-14.34,2.8-20.07,7.54-2.89,2.39-6.71,8.24-9.35,9.69-3.72,2.05-10.62,3.14-14.84,4.91-24.17,10.09-34.45,20.82-46.01,44.03-6.36,12.77-11.5,27.68-7.35,41.94-3.33,1.51-6.03-.31-9.56,1.65-1.32.73-10.85,10.48-12.2,12.12-3.24,3.95-10,11.57-.61,13.1,7.17,1.17,12.54-4.15,15.69-3.89,1.08.09,2.27,1.38,3.64,1.66,11.61,2.36,22.01,6.02,33,8.42,17.1,3.73,37.89,2.77,33.43-20.6,3.06,2,16.59,6.23,15.82,10.79-14.01,6.92-19.5,23.75-9.93,36.87-3.09,2.07-6.59-2.85-10.9-2.9-6.97-.09-8.27,8.22-11.83,12.36-2.79,3.25-11.65,7.33-12.09,11.64-.62,6.03,7.22,6.07,11.34,5.36,5.51-.94,10.91-7.98,14.51-8.19,2.92-.17,2.4,2.29,4.14,3.67,3.97,3.13,39.89,10,46.01,9.86,8.49-.18,12.31-4.51,16.41-5.19,2.41-.4,8.81.98,12.47.69,10.36-.82,19.79-7.57,18.66-18.7-.56-5.46-9.34-15.58-13.43-19.43-2.73-2.56-16.82-12.35-17.7-13.85-1.6-2.73-.37-10.51,1.59-12.81,1.41-1.66,9.16-3.01,12.31-4.78s5.33-4.58,8.08-6.7c9.74,22.79,36.03,21.94,24.64-8.52-1.14-3.05-7.98-14.1-7.95-15.48.03-1.26,5.01-6.43,5.62-10.57.88-6.01-1.77-9.06-1.84-12.42-.03-1.69,1.78-5.52,1.82-7.97.34-23.99-34.8-32.78-47.13-13.61-2.75,4.28-2.61,8.13-4.3,11.81-.56,1.21-7,9.12-8,9.42-1.38.23-.77-.23-1.06-.88-1.05-2.42-.58-6.88-1.89-9.62,6.1,2.56,8.42-9.37,9.93-13.93.83-2.52,2.47-10.89,2.9-11.7.46-.88,8.48-7.2,9.95-8.79,4.99-5.42,9.72-11.2,10.83-18.75,8.96,2.14,7.99-3.41,12.75-6.64,5.28-3.59,12.92-3.22,18.73-1.32l-1.86-3.19c7.03-5.82,14.83-4.48,22.91-2.07.1-1.34-4.5-1.48-2.64-2.96,3.15-1.64,5.53-.91,8.56.34v222.82c-4.3-.52-8.82-.72-13.04-1.75-13.97-3.39-19.74-9.36-34.52.54-1.9,1.27-6.33,6.45-7.01,6.79-1.62.82-6.18.88-8.73,1.79-5.58,2-15.35,9.65-19.53,14-2.26,2.35-9.49,13.19-10.72,13.93-2.58,1.54-10.37,2.47-14.5,4.9-4.61,2.71-12.38,13.6-14.92,14.67-2.13.9-6.44,1.01-9.63,2.2-3.79,1.41-10.85,7.54-12.52,7.93-.53.12-7.44-2.99-10.35-3.23-14.66-1.2-31.95,7.81-36.29,22.44-7.93-1.98-20.73,2.52-26.47,8.2-12.34,12.21,16.08,12.67,22.99,11.15,6.34-1.39,10.27-5.86,17.28-5.57,7.88.33,14.66,8.12,19.24,13.79,6.11-2.35,13.7-2.92,19.97-1,12.68,3.88,13.08,5.34,27.78,3.41,9.09-1.19,27.38-3.64,18.26-16.25,9.01-2.74,15-6.96,24.86-4.16,2.61.74,5.9,3.48,8.33,3.52,4.75.08,8.63-3.48,16.28-2.48,2.69.35,7.58,2.96,9.26,2.94,1.5-.02,5.29-1.91,7.55-2.26,9.81-1.51,18.58-.34,26.43,6.04v70.66H4.08v-341.8l35.5-1.31c-.94,1.58-6.36,4.14-4.27,6.55,4.68-7.26,16.98-9.57,24.22-5.14,3.23,1.98,3.78,6.18,7.01,6.46-3.45-8.5-12.41-12.44-21.31-9.94l-1.04-.9v-36.81c1.86-1.63,5.69-1.05,8.24-1.01,14.34.24,18.29,2.32,17.45,17.72l5.05,1.01c-1.56,16.75-2.65,33.81-1.85,50.67.56,11.79,2.86,23.6,3.34,35.44.78,18.81-1.27,37.34-1.37,55.86-.18,32.14.7,64.6,1.41,96.59,2.67,6.76,15.62,4.18,16.41-.57,1.11-6.6.22-22.81,0-30.3-.03-1.15-1.39-.74-1.42-1.89-1.11-47.74,2.04-94.26,0-141.32-.47-10.83.57-21.76-.61-32.58,3.83.09,6.09-1.53,9.81.39,4.83,2.49,6.7,9.46,10.58,11.11,4.45,1.89,11.07.93,15.77,2.3.32-1.82-.38-1.11-1.43-1.49-4.57-1.65-10.51-.39-14.58-3.2-2.73-1.88-3.72-6.32-6.07-8.39-4.06-3.59-9.12-2.86-14.08-2.69l2.6-27.84c13.63-2.55,18.71,2.24,17.13,16.01,4.31,0,10.16.26,14.17,1.94,2.06.86,4.6,3.97,5.23,3.97h16.11ZM578.04,469.91c-4.03-7.92-12.12-2.48-17.71-.94-2.72.75-6.75-.57-8.59,2.25,2.12-.63,7.21.13,8.8-.18s2.94-2.08,4.53-2.58c5.39-1.71,8.09-1.36,12.96,1.45ZM410.39,478.45c-2.37-3.47-6.27-4.24-10.21-3.96-3.47.24-5.01,2.06-7.36,2.51-3.28.63-7.14.11-10.59,1.27-1.09.37-1.73-.27-1.42,1.5,3.4-.28,8.24-.08,11.47-.69,2.61-.49,4.03-2.35,7.9-2.62,4.07-.28,6.55.53,10.21,1.98ZM29.46,517.51c-6.71-5.98-16.48-6.52-22.75.38,2.82.19,5.28-2.64,7.71-3.12,8.77-1.75,15.38,4.29,18.7,11.56,7.74.19,16.73-2.43,23.7,2.13,2.39,1.56,1.82,4.66,4.46,5.21-.65-12.09-18.21-9.22-26.54-8.6-1.78-3.11-2.52-5.11-5.28-7.56ZM114.31,544.41c-3.86-3.82-10.81-3.08-15.55-1.53-2.82,2.12,7.95.19,8.56.25,2.59.28,4.65,1.94,6.88,3.04,1.79.38.4-1.48.11-1.76ZM367,550.76c-.81-5.78-9.98-6.35-14.63-5.75-1.55.2-8,1.81-6.74,3.78,7.22-3.92,14.93-2.76,21.37,1.97ZM45.83,575.08c2.85-.56,7.14.4,10.19,0-3.58-4.92-12.87.19-14.7-.14-.68-.13-2.22-2.02-3.99-2.53-5.9-1.7-20.31-2.92-22.06,4.65,9.28-7.11,22.13-4.49,30.56,2.64l-1.65-3.61c.01-.26,1.41-.95,1.65-.99ZM399.87,614.51c-4.02-4.26-11.13-4.6-16.59-3.76-1.66.25-9.03,2.58-5.45,4.42,6.94-5.75,14.49-2.63,22.04-.66ZM408.42,620.43c-.85-4.82-12.98-3.96-14.45-.97-.1,2.36,3.23-.64,4.42-.84,4.32-.74,6.21.68,10.04,1.81ZM382.12,641.46c-7.23-6.29-26.05-8.66-32.71-.85-.59.69-1.23.42-.81,2.17,7.51-4.78,12.25-6.13,21.16-4.4,4.26.83,8.46,3.76,12.36,3.08ZM50.84,646.65c-.22-.17-.21-2.02-.81-2.79-5.07-6.4-10.95-7.22-18.75-5.77-2.59.48-9.7,2.46-9.12,5.34,8.39-4.88,21.7-6.88,27.27,2.97-.22,1.69-10.52.51-10.5,4.26,7.83-1.86,17.48-3.64,24.97,0,.41-1.6-2.42-2.48-3.42-2.82-2.56-.87-9.26-.91-9.65-1.2ZM386.72,670.4c-3.46-1.55-6.19-3.62-10.19-3.94-3.85-.31-6.15,1.2-8.53,1.21-4.15.01-11.29-5.2-16.11-.89,4.68-.63,7.72-.02,12.2.94,1.25.27,2.64,1.73,3.25,1.77s3.68-1.5,5.33-1.65c5.05-.45,9.16.5,13.09,3.85l.97-1.29ZM125.05,669.07c-1.26-4.18-9.12-4.37-11.83-1.64,4.8-.47,7.42-.44,11.83,1.64ZM437.13,669.3c-5.32-2.97-9.2-4.98-15.51-2.47-1.06.42-7.73,5.49-8.12,6.34-4.42,9.56,13.67,6.23,17.62,7.07,1.53.32,1.49,1.79,2.13,1.97,5.26,1.49,16.02,2.11,21.36,1.17,5.96-1.05,10.21-7.85,18.89-3.13.27-1.65-5.33-3.14-6.32-3.24-2.93-.3-6.76,1.67-8.34,1.31-1.22-.28-3.61-10.37-13.88-9.18-1.82.21-4.77,2-6.03,1.9-1.41-.1-1.34-1.48-1.8-1.74ZM249.31,673.69c-5.38-2.4-13.48-3.37-18.63-.05-.66.43-.12,1.84-.81,2.05-3.38,1.04-10.9-1.7-14.08,3.24,6.98-2.23,13.94-2.97,21.04-.66l-5.91-2.63c4.56-4.35,12.8-2.96,18.06-.64l.34-1.32ZM49.44,678.27c1.55-1.42-5.24-3.5-5.88-3.64-6.18-1.44-14.86-1.3-20.41,2.01,8.97-.87,17.74-2.39,26.29,1.64ZM420.91,707.87c-5.2-3.01-13.51-4.86-17.75.64,5.92-2.15,11.23-3.16,16.83.61l.92-1.25ZM31.7,714.43c6.74-3.71,10.58-1.26,16.89.54.98.28,1.03,1.4,2.15-.21-.25-2.8-17.98-6.58-19.05-.33ZM204.61,719.68c8.44-4.84,19.16-8.28,27.92-1.94l1.65-.36c-7.18-7.71-23.57-6.17-29.57,2.3ZM59.95,763.74c.5,8.18,18.58,6.62,24.59,5.82,8.07-1.08,16.77-1.87,12.13-11.97-3.92-8.55-16.02-7.54-23.83-6.48-11.05-20.28-40.99-21.25-51.98-.63-2.49-1.89-11.38-3.14-12.83-.22-.73,1.47.96.7,1.35.69,2.05-.04,3.73-.58,6.14-.29,7.45.88,5.34,4.64,9.59,8.81,9.05,8.85,23.7,5.88,34.84,4.28ZM261.71,747.85c4.65-7.63-18.73-16.77-29.19-7.17-1.14,1.05-1.42,3.4-2.7,3.87-2.88,1.05-10.48-1.83-14.03,2.42l10.79-.93c5.31,1.74,8.66,4.21,14.5,4.56,2.87.17,19.56-.99,20.63-2.75ZM169.76,756.49c5.82-1.44,10.41-2.68,16.42-.97-3.94-3.9-12.77-3.03-16.42.97ZM337.87,761.95c-4.6-6.59-20.47-6.22-26.03-1.12-1.2,1.1-1.87,3.94-2.14,4.1-1.48.84-9.95-.6-10.41,3.39,7.61-3.13,13.99.8,21.38,1.3,3.76.26,17.81.2,18.11-4.89-.03-1.06-.3-1.92-.9-2.79ZM141.22,768.72c-1.86,1.64-8.86,4.65-2.83,7.65,3.23,1.61,19.8,2.86,23.73,2.39,18.5-2.21,2.28-21.35-12.92-16.21-3.12,1.06-5.6,4.07-7.97,6.17ZM220.38,784.77c-6.38-3.54-13.16-5.77-20.37-3.29l.99,1.33c6.22-1.17,13.02-.09,18.47,3.2l.91-1.24ZM40.57,783.45c2.95-.4,7.35,0,10.52,0,.69,0,6,2.9,6.24,2.63-1.31-5.87-19.36-5.83-21.02-1.63-.95,2.4,3.74-.92,4.27-1ZM310.46,797.24c-5.33-4.91-14.95-6.23-21.03-2.28l8.84-1,12.2,3.28ZM379.49,795.29c-1.24-1.42-8.69-2.77-10.81-2.65s-8.97,1.91-9.56,4.61c6.98-2.96,12.98-4.81,20.06-.66.55.09.38-1.22.31-1.29ZM122.42,813.67c-5.27-5.99-14.28-5.23-21.04-2.61l.87,1.2c7.13-3.6,13.31-1.19,20.17,1.41Z" fill="#fff"/>
  <path d="M590.54,3.89v280.67l-28.93,4.6v-26.95l-33.86-9.92-56.85,9.61-5.94,47.64c-9.69-.92-24.09-.42-33.41,2.41-7.71,2.34-3.44,11.67-4.68,12.39-2.71-.11-6.67,1.92-8.59-.02v-21.69c0-.35-.7-1.95-1.13-2.31-1.02-.69-22.04-4.63-24.19-4.64-2.86,0-24.33,3.98-25.18,5.43l-8,106.36c-.18-15.37-3.97-30.39-8.47-44.95,3.8-2.99,7.73-6.25,7-11.73-.98-7.38-7.24-18.21-9.91-24.99-8.3-21.14-15.82-43.19-33.32-58.69l-22.42-11.92c-.98-5.08,2.37-5.5,4.33-8.09,4.57-6.06,6.5-10.26,4.5-18.36-.78-3.18-5.32-7.79-5.53-12.25-.25-5.29,3.43-10.6,2.65-18.37-.56-5.54-4.71-11.24-4.58-16.45s5.36-9.78,2.84-15.94c-.46-1.12-4.04-2.82-5.18-4.07-8.48-9.27-9.86-22.66-26.24-24.38-5.27-.55-11.83,1.59-15.08,1.34-1.89-.15-4.68-2.49-6.83-3.1-23.34-6.58-49.11.48-61.96,21.82-4.63,7.68-6.23,17.33-10.64,24.86-6.25,10.68-18.15,13.61-16.3,29.71.75,6.48,6.38,8.3.65,15.11-1.92,2.28-4.05,2.67-5.79,6.04-5.16,9.96-1.04,20.7,9.1,24.85,4.2,1.72,8.96,1.16,11.82,4.93-11.7,3.91-23.35,10.01-31.19,19.76-8.6,10.69-12.76,23.23-18.87,35.04-4.81,9.3-10.79,18.04-14.48,27.91l-3.78-.95c2.62-13.31,8.71-37.39-13.21-35.74.13-12.83,1.02-25.63.69-38.48-.46-17.68-1.92-32.75-1.35-50.6.27-8.25,2.72-36.95-3.6-41.74-4.29-3.25-14.96-1.08-16.08,4.98s1.37,18.33,1.31,25.63c-.13,14.95-.26,25,.61,40.08,1.26,21.93,1.63,44.03,1.95,66l-6.54.7-2.69-44.31c-1.52-9.86-20.96-6.58-28.56-6.94-10.1-.48-20.5-2-30.55-.68v-118.31c12.19,6.99,27.89,7.65,38.43-2.67,20.71,22.02,63.44,13.95,73.29-14.8,11.13,1.54,20.35-1.5,26.79-10.83,17.04,3.62,35.63-9.69,39-26.26,12.4,8.15,28.17,9.96,41.63,3.17,1.95-.98,8.23-6.19,8.82-6.35,1.46-.4,11.21,1.45,14.95,1.19,19.13-1.35,34.19-15.5,39.44-33.4,11.79,6.39,27.26,5.16,36.28-5.28,13.97,7.87,32.39,4.98,43.4-6.55,18.51,8.94,46.98,1.78,52.26-19.74,17.62,1.44,33.79-6.57,44.94-19.81h127.22Z" fill="#fff"/>
  <path d="M460.36,3.89c-10.34,12.04-27.28,19.9-43.34,17.14-4.98,22.54-33.37,29.98-52.25,19.61-8.22,14-29.77,13.83-42.7,6.66-7.89,10.59-24.05,13.02-34.95,5.22-.17-7.35-.95-14.63-4.39-21.24-.69-1.33-2.06-4.35-3.82-4.39,1.1,5.82,4.51,9.99,5.17,16.19,3.04,28.52-26.11,50.36-52.78,41.63-9.64,12.27-29.52,14.37-43.05,7.51-1.72-.87-6.41-5.71-7.3-4.86-3.57,17.99-21.96,32.12-40.71,27.67-2.72,10.65-15.96,12.45-25.09,10.08-8.45,28.49-52.58,38.24-71.35,14.78-3.95,1.92-6.64,5.19-11,6.74-10.41,3.7-19.81,1.66-28.72-4.39V62.39c6.18,6.75,13.19,11.27,22.66,11.85,3.37.21,12.58-1.67,13.69-1.37.65.18.88,1.71,1.81,2.3,7.47,4.76,12.69,6.14,21.53,3.83,2.16-.57,8.44-4.13,8.93-4.06.35.05,3.96,3.47,5.69,4.19,7.01,2.95,18.32,2.13,23.01-4.59-2.7.02-4.61,2.33-7.36,3.16-5.38,1.61-11.08,1.18-16.1-1.41-2.57-1.33-2.71-2.32-4.49-4.1-9.1,6.42-25.85,8.9-32.27-1.98-13.79,4.86-29.63,1.06-37.1-12.1V3.89h456.28ZM99.98,47.35c-9.69,1.9-21.44,3.03-26.58-7.3-9.21,5.82-22.34,8.07-32.3,2.75-2.82-1.5-4.03-4.28-6.77-5.38,5.39,13.48,27.24,11.36,37.81,5.4,6.11,8.37,17.19,9.13,26.56,6.45,4.04,9.78,17.03,15.98,27.23,13.14l.43-1.99c-10.22,2.86-22.91-3.06-26.38-13.07ZM177.25,52.27c-1.57-2.39-1.51-6.38-4.2-6.97,2.54,9.5,6.34,11.17-.47,20.19-5.33,7.05-16.27,8.97-24.56,7.68-4.33,15.09-20.72,19.49-34.72,16.24-3.12,9.09-13.17,16.96-22.75,17.69-2.83.22-9.7-1.08-11.05-.7-.3.08-2.6,3.17-4.4,4.31-5.76,3.63-12.96,4.59-19.44,2.3-3.09-1.09-4.29-3.06-7.12-3.92-9.53,12.76-25.81,15.99-38.69,5.88-.33-.26-5.14-6.85-5.11-2.97.01,1.62,8.95,8.01,10.92,8.8,10.99,4.43,26.2,1.37,32.48-9.1,8.8,5.27,16.67,5.92,26.06,1.41,1.83-.88,6.75-5.3,7.19-5.37.85-.14,4.9,1.22,6.51,1.16,11.36-.42,21.72-7.07,26.63-17.29,13.29,3.14,31.37-2.11,34.85-16.74,13.58,3.22,25.79-4.87,29.59-17.74,7.47,7.32,20.78,7.56,28.92,1.64-10.62,2.34-23.58,4.25-30.64-6.5Z" fill="#fff"/>
  <path d="M210.52,420.62c-5.66,22.6-19.85,40.94-31.55,60.47l11.84-14.3c8.7-14.58,17.71-28.65,21.78-45.41l21.59.56c-1.99,8.46-3.7,17.12-6.48,25.37-13.45,39.84-34.83,66.75-62.13,97.64-.75.85-1.44.95-1.07,2.54.6.76,13.09-12.19,14.05-13.22,25.2-27.09,46.26-65.86,55.58-101.53.92-3.53,1.89-7.11,2.03-10.78l21.69-.67c-.78,7.48-1.55,15.07-2.83,22.48-1.74,10.15-4.44,20.29-7.37,30.1-7.54,25.21-18.87,49.18-34.5,70.34,6.47-3.65,9.41-11.2,13.13-17.25.38-.61,1.45-.85,1.87-1.56,18.51-31.41,28.22-68.63,31.67-104.76l19.07-1.31c.07,16.56.19,33.22-1.93,49.67-9.86,76.59-41.35,127.95-121,145.9-3.69.83-18.44,4.07-21.07,3.33-.95-.27-1.91-.94-1.98-2.03,2.79-20.28,4.61-40.7,7.27-60.99,3.92-29.91,8.87-62.73,13.76-92.3,2.79-16.85,4.35-33.85,9.91-50.12l46.65,7.87Z" fill="#fff"/>
  <path d="M312.02,439.45c12.51,62.01,12.28,130.28,18.23,193.81l-.68,2.66c-3.39,5.97-33.37,10.51-40.45,10.82-11.38.49-22.8-1.47-34.2-.67-10.4.73-20.68,3.48-31.54,3.96-27.73,1.25-59.96-1.69-85.68-12l1.57-17.68c27.41-4.15,54.21-13.61,77.12-29.24,32.93-22.47,47.02-49.86,56.16-87.8,6.71-27.85,9.78-55.38,8.34-84.67l13.14-1.98,4.61,57.84c1.21-.25,1.2-1.3,1.33-2.28,2.25-17.11-2.71-38.88-3.91-56.15l10.13-2.05c2.67,8.31,4.11,16.89,5.83,25.42ZM264.19,595.9c1.44-8.84,2.69-17.77,2.87-26.73-.6,0-1.01.59-1.16,1.13-.92,3.34-.76,10.65-1.51,14.81-.09.51-1.13.48-1.22.99-2.68,15.1-4.27,30.47-7.27,45.52,1.63-.76,1.78-3.19,2.18-4.72,2.47-9.5,4.64-21.91,6.12-30.99Z" fill="#fff"/>
  <path d="M590.54,440.99c-5.18-3.69-8.44.71-11.58,1.13-5.36.72-8.75-2.28-15.07,1.48-1.88,1.12-5.6,6.58-7.91,3.35-.81-1.14-.45-24.59-.31-28,.87-20.61,8.48-61.81-6.57-78.17-6.78-7.36-14.54-9.15-22.93-3.25-19.59,13.77-10.81,39.46-13.82,59.8-11.09,1.83-8.68-4.25-11.2-11.24-5.24-14.53-27.39-19.33-34.58-4.28-4.84,10.13,2.14,13.39,1.71,21.37-.18,3.4-3.12,7.31-3.81,10.7-.5,2.48.24,5.14-.32,7.56-.47,2.03-2.62,3.94-3.04,7.47-.44,3.72-.25,6.98,1.89,10.1l-8.15-1.89,16.35-172.97,55.58-9.84-.66,50.62,32.83-3.98.12-9.09,31.48-5.33v154.47ZM486.66,295.73h13.48l1.65-21.04-14.15,1.31-.98,19.73ZM573.44,340.1c1.05-3.93-.78-12.29,0-16.76l13.16-2.96c-18.14-2.11-15.91,6.5-14.46,20.7.41.02,1.25-.76,1.31-.99ZM496.19,331.55c-2.69-3.37-5.89-1.91-9.21-.33-.73,2.59-2.07,10.98-.07,12.55l10.17-.82c-.27-3.49,1.18-8.81-.89-11.41Z" fill="#fff"/>
  <path d="M293.37,246.43c-1.38-7.52-2.63-15.1-4.67-22.48-.15-.56-1.17-.35-1.31-1.51-.23-1.97,1.23-1.3,1.43-2.59.57-3.79-1.72-8.11-2.05-12.51-.89-11.89,3.04-24.25-2.57-35.53l5.22-1.3c-12.92-3.86-27.61-6.97-35.84-18.74-7.08,6.88-14.47,12.85-24.49,14.94-6.45,1.35-18.23-.06-22.87,4.74-3.48,3.6-2.35,8.38-2.95,12.72-.07.48-1.24.26-1.34,1.41-1.13,12.13,2.13,30.46,11.22,39.48,1,.99,8.23,6.6,9.06,6.77,2.64.54,11.94-6.37,15.48-7.89,12.52-5.37,10.57-.44,21.13.15,6.27.35,9.23-3.27,9.76-3.24,2.55.15,11.44,6.69,14.06,8.38l3.48-3.2c3.41,11.71,8.39,25.61-.64,36.49-1.31,1.58-3.47,1.94-4.25,2.98-.98,1.3-1.01,4.29-1.85,6.04-2.15,4.46-7.18,6.78-11.95,7.06l-1.34-1.95c-6.46,6.42-15.87,8.88-24.23,4.49-1.55-.81-5.41-4.86-6.1-5-.97-.19-5.19,1.31-7.79,1.16-5.09-.29-11.79-4.19-14.71-8.31-1.05-1.48-2.51-6.51-2.8-6.72-.5-.37-7.8-.71-11.77-3.68-11.21-8.39-4.89-20.42-3.95-30.92.58-6.47.8-18.47.52-24.96-.42-9.95-9.45-8.16-14.95-2.62-10.9,10.97-1.6,27.75,11.71,30.86-3.33,8.62-3.88,16.84.76,25.32-4.36-.38-17.23,5.77-20.38,5-.67-.16-3.38-2.08-3.95-2.69-2.09-2.23-3.84-6.68-3.75-9.68.04-1.4,2.09-6.74,1.78-7.08-2.46-2.75-4,7.56-3.95,8.84.07,1.64,2.46,6.3.36,6.26-8.85-2.74-14-8.39-12.84-18.06.95-7.93,9.69-10.72,10.39-16.61.76-6.39-5.87-9.09-1.96-20.31,2.22-6.39,6.87-8.61,10.65-13.01,8.94-10.41,9.47-25.83,18.71-36.51,12.45-14.39,34.68-19.95,52.95-15.43,2.63.65,9.03,4.92,9.56,4.97,1.19.1,7.66-2.79,11.82-2.7,16.92.36,17.57,11.83,24.73,21.31,1.22,1.61,7.01,5.36,7.47,6.34,2.17,4.6-3.07,10.48-2.97,15.42.11,5.93,5.43,12.88,5.32,19.75-.07,4.16-2.6,7.53-3.18,10.67-2.07,11.16,14.14,23.42-.15,33.7ZM274.29,242.48c-7.17-13.69-29.94-10.7-38.79,0,9.45-4.79,19.85-9.5,30.6-5.28,3.83,1.5,4.51,4.8,8.18,5.28ZM251.94,245.12h10.52c-1.98-2.15-8.2-1.85-10.52,0Z" fill="#fff"/>
  <path d="M261.15,287.85c1.45,1.32-18.44,27-20.38,29.24-16.13,18.55-44.74,44.47-68.68,50.97-2.75.75-5.3,1.65-8.24,1.3.76-2.99-.77-7.03-.67-9.57.16-4.36,3.36-9.9,4.32-14.73,2.55-12.77,2.88-30.14,1.65-43.12-.11-1.13.12-2.17-1.03-2.91-1.62-.31-.89,1.27-.97,2.29-1.73,22.13,1.61,35.9-6.56,57.86-1.47,3.96-4.05,7.43-5.29,11.48-.75.51-2.39-2.78-2.56-3.15-1.03-2.24-1.52-5.31-2.77-7.61-6.83-12.53-22.85-23.18-37.39-22.76-.81-.7,7.89-14.47,8.66-15.99,7.88-15.55,15.49-36.87,30.71-46.86,5.93-3.9,36.67-17.44,42.34-15.93,1.66.44,4.34,10.22,7.05,13.37,14.11,16.43,39.54,20.28,59.82,16.11Z" fill="#fff"/>
  <path d="M392.64,297.7l-.65,33.52c12.79-1.75,25.65-4.38,38.47-5.9,4.21-.5,31.91-3.81,33.09-1.89l-9.73,102.67-23.04.43c-3.1-12.79,6.35-47.4-5.59-55.88-10-7.1-17.07,4.8-18,13.57-1.49,13.97,1,30.03-.16,44.21-5.7.03-10.29,4.84-15.13,6.23-8.68,2.5-20.46,2.54-29.5,4.36-.3-3.94.38-8.33.05-12.2-1.32-15.43,1.44-29.59,2.57-45.98,1.8-26.14.67-52.67,4.98-78.5l22.65-4.64ZM377.93,313.56c-1.68.66-2.3,7.93-1.44,9.16l5.67.33c1.53-3.34,1.22-11.64-4.23-9.49ZM439.32,353.58l6.95-.62c.44-5.33,2.22-14.12-6.12-10.39l-.83,11.01ZM378.83,364.09h12.16c.12,0,1.64-1.53,1.64-1.64v-17.09c-3.61-2.47-8.85.65-13.15-.33l-.65,19.07ZM422.22,350.28c-.91-2.72-13.18-.34-13.15.34,3.72,1.16,9.17.34,13.15-.34ZM383.35,394.42c-5.11-3.13-4.9,7.95-4.51,10.42l1.31-.97c-1.15-2.12,1.21-12.52,2.61-6.57.37,1.57-.49,7.48,1.99,7.54.24-1.79-.09-9.61-1.4-10.42Z" fill="#fff"/>
  <path d="M439.32,516.58c-4.28-.46-8.21-.48-11.54,2.6-.73.68-3.78,4.1-1.29,3.97,2.69-5.13,11.76-8.83,14.83-2.27.1.91-5.73,4.35-6.87,5.63-4.1,4.61-3.69,9.75-6,15.05-11.95-6-11.59-22.02-10.84-33.52-2.05-.34-1.02.57-1.29,1.64-1.94,7.59.22,18.6,2.61,25.96-5,1.78-8.62-2.82-11.62-3.83-4.09-1.37,1.23,3.89,4.5,4.7,2.67.66,5.71-.04,7.76.79,1.04.42,3.58,3.72,4.79,4.46,9.14,5.61,20.37.49,29.15-3.5,6.92,3.43,12.98,8.34,17.91,14.28-1.58,7.25-7.35,14.23-5.81,21.88-6.97-2.89-14.28-4.65-16.55-12.73l-5.14-5.01c.86,4.55,4.96,7.34,6.42,11.65,3.11,9.13,1.99,18.39-8.03,21.91-12.01,4.22-27.19-2.76-38.88-5.9-3.06-.82-17.47-3.1-18.36-4.65-1.9-7.48,2.62-13.08,4.95-19.72l1.37.41c2.9,5.73,8.59,9.18,14.4,11.41-9.83-7.77-15.87-12.2-15.83-25.96.05-16.73,17.99-49.88,31.28-60.14,10.05-7.75,23.58-11.59,35.16-16.44-3.13,7.61-5.88,15.45-7.72,23.5-.34,1.49-1.57,5.43-1.49,5.74.06.24,1.21.27,1.31.79.32,1.78-.29,8.85,2.86,8.65s9.75-11.62,11.61-14.35c1.32,2.73,3.17,9.56,2.17,12.28-1.7,4.67-17.49,14.71-22.79,13.97-2.05-1.69-.8-12.01-1.08-15.4-.49-5.84-3.44-19.11-10.19-20.71-3.49-.83,4.82,6.8,5.13,7.4,1.02,1.99,3.1,10.56,3.1,12.64v12.82ZM420.91,574.42c-3.36-4.3-8.61-6.65-13.8-7.88-.29,1.42.69,1.51,1.6,2.01,3.57,1.95,8.52,3.66,12.2,5.87Z" fill="#fff"/>
  <path d="M347.28,353.57c.43,3.04.55,7.13,1.38,9.99,9.71,33.42,7.6,51.03,11.13,84.32,1.89,17.85,11.54,35.68-3.63,51.62-.58.61-1.96,2.64-2.96,1.64,3.41-4.74,6.41-11.92,6.55-17.77.02-.98.64-2.58-.96-2.27-3.5,10.71-6.27,23.34-18.09,27.6,5.1-8.97,12.93-17.22,12.48-28.26h-1.97c.8,5.66-9.71,27.62-14.92,27.48-6.23-2.93.97-10.05,2.36-13.38,2.07-4.96,2.14-14.09-.01-18.97-.33-.75-1.67-.88-1.91-1.41-.73-1.63,2.19-1.6,1.33-3.58-1.93-.35-1.87.34-2.76,1.5-2.92,3.8-4.7,15.61-6.72,16.95-3.94,2.61-7.93-.2-7.58-4.9.19-2.47,2.45-13.28,3.2-15.88,2.65-9.2,8.94-11.88,7.93-23.62-2-23.25-25.3-55.87-16.11-79.9,2.29-5.99,24.85-10.75,31.25-11.16Z" fill="#fff"/>
  <path d="M4.08,264.84l53.27,2.28,3.6,2.32,2.84,46.94c-2.22,1.7-4.25,2.77-6.15,4.96-2.44,2.82-3.5,6.59-2.99,10.25.17,1.21,1.94.66,1.41,3.91-.21,1.32-1.5.91-1.87,2.74-1.38,6.85,1.62,8.25,2.3,12.52.92,5.75-.92,8.6,2.93,14.19,3.03,4.4,7.39,5.94,12.37,7.03v26.29l-20.1-2.58c-1.48-2.05.96-30.55-1.08-37.05-1.12-3.58-8.77-.5-10.1-2.4,1.6-22.07-19.63-24.32-36.45-21.73v-69.67ZM46.82,287.18h-11.83v15.45l.99.99h10.85v-16.43Z" fill="#fff"/>
  <path d="M487.31,569.82c-.9-.8,7.51-15.46,8.54-17.29.22-.39.86-.48,1.3-.47.2-.74.13-1.76-.96-1.3-1.21.51-6.59,9.55-7.68,11.39-.96,1.61-2.9,7.11-3.5,7.67-1.58,1.49-8.52,1.31-8.88,5.91,11.34-7.09,27.05-1.53,39.35-6.34,3.12-1.22,8.48-6.61,11.97-8.4.56-.29,5.4-2.62,5.21-1.36l-3.94,3.62c2.42.25,6.67-3.03,8.23-3.27,3.89-.62-5.41,6.63-5.6,7.21,3.26-1.02,7.3-3.98,8.56-7.22l1.31.33c.33,1.45-4.61,8.55-5.9,9.88-5.92,6.1-36.78,16.73-45.91,17.86-6.96.86-13.46,1.54-17.83-4.96-2.82-4.2-4.6-9.66-3.85-14.74.89-6,11.46-26.01,15.62-30.86,6.32-7.39,14.76-10.21,21.36-16.3,7.34-6.77,5.69-10.76,10.07-18.19,7.9-13.39,28.79-15.12,38.6-2.85,2.96,3.7,7.07,11.93,5.45,16.66-.3.87-.91,1.28-1.84,1.1-4.74-16.35-21.23-10.46-31.22-2.6-1.23.97-3.75,4.2-4.64,4.57-2.58,1.07,1.77-5.27.99-5.9-2.28-2.32-5.63,10.33-5.84,12.23-1.14,10.64,4.56,17.02,13.73,20.96l-10.56,3.99-3.9-15.49c-.05,3.13-.13,15.92,3.08,16.96,7.4,2.39,16.25-8.21,23.83-8.38,1.94,4.24,1.86,8.87,2.7,13.3.09.5,1.17.47,1.26.94.17.91.75,20.9,3.96,17.28-3.46-10.9-.74-23.09-7.12-33.09,5.32-4.79,11.1-9.84,13.03-17.07,3.66-1.88,3.41,5.87,3.13,8.27-.53,4.45-5.67,7.71-5.55,11.89.14,4.97,8.81,14.96,10.02,22.09.88,5.2.83,14.88-6.12,15.69-5.85.68-18.65-10.77-17.91-16.58.27-2.12,5.43-6.96.73-8.55-8.18-2.76-15.75,1.86-22.11,6.18-1.2.81-1.48,2.61-2.75,3.16-.6.26-12.22,2.11-13.01,2.11h-15.45ZM507.69,565.22c.64-11.72,2.26-27.66-9.2-34.83,5.72,7.29,7.52,14.15,7.91,23.36.12,2.9-2.81,10.52,1.29,11.46Z" fill="#fff"/>
  <path d="M162.53,386.11c.04-.21.73-1.62.97-1.62,5.89,3.13,12.51,4.25,19.11,3.96,43.95-1.94,80.62-59.87,94.26-96.52,1.97-5.29,5.3-22.29,7-25.07,1.4-2.27,7.61-4.38,7.58-9.2,10.71.37,8.94,11.55,8.51,19.37-2.07,37.81-27.35,86.68-58.9,108.07-21.52,14.58-53.7,25.27-78.54,13.5.45-3.82-.61-8.86,0-12.49Z" fill="#fff"/>
  <path d="M515.58,581.66c-2.94,7.71-2.49,9.91,3.27,15.48,7.91,7.65,18.44,12.99,24.05,23.27,3.78,6.93,5.27,12.98-1.66,18.77-5.61,4.69-16.12,5.41-23.02,4.25-1.23-1.04,6.58-6,1.64-5.93-8.18,14.31-24.75,10.77-38.35,8.12-3.48-.68-24.76-5.77-26.22-6.99-3.88-3.27,2.3-15.1,4.1-18.89,4.01,1.74,6.37,5.54,10.57,7.84,4.7,2.58,12.04,4.97,17.35,5.33-5.79-3.49-12.82-4.4-18.6-8.01-16.16-10.11-17.07-32.91.53-41.76,9.46,14.35,33.76,3.83,46.34-1.49ZM512.96,592.84c-5.42,1.17-10.68,2.7-16.11,3.96-.99.23-1.16-.48-.98,1.29,5.68.05,12.24-2.34,17.09-5.25ZM509.43,615.41c-7.68-7.89-19.44-14.93-30.66-15.35,2.71,2.06,6.4,1.84,9.65,3.16,11.22,4.57,24.93,16.92,29.15,28.38,1.5-.45,1-.81.86-1.8-.62-4.16-6.01-11.33-8.99-14.39Z" fill="#fff"/>
  <path d="M75.51,358.92l10.76.89c1.74,16.93.4,34.78,1.29,51.96.97,18.75,3.91,35.35,3.34,54.56-.85,28.29-.9,53.2-.66,81.46.47,53.51-2.92,106.92,0,160.44-1.1,6.75-13.48,5.36-12.55-1.98-1.92-55,3.14-110.91.01-165.65-.44-7.63-2.29-15.36-2.64-22.99-1.26-27.57,4.53-56,2.68-84.18-.54-8.27-2.87-16.58-3.34-24.93-.59-10.57-1.59-37.98,0-47.38.15-.9-.06-1.83,1.11-2.17ZM81.66,366.72l-1.32.97c-1.52,10.62-2.13,24.78-1.36,36.21.08,1.13,1.3.94,1.34,1.41.49,5.44-.92,12.66,2.65,17.28-2.56-18.45-2.43-37.28-1.31-55.87ZM82.31,484.37c1.81-12.98,3.74-26.31,1.97-39.43l-1.97,39.43ZM85.6,556.67c-.96-8.9-.14-18.51-1.29-27.3-.13-.98-.13-2.03-1.33-2.28l1.31,28.6,1.31.97ZM82.99,627.67l1.77-15.64.19-16.56c-2.32,4.67-1.07,10.44-1.28,15.47-.24,5.53-1.23,11.13-.67,16.74ZM85.6,690.76c-1.24-9.01-.02-18.25-.67-27.26-.08-1.07-.39-4.33-1.29-4.94-.14,10.43-.04,20.83.65,31.23l1.31.97Z" fill="#fff"/>
  <path d="M161.21,413.39c-3.43,10.79-5.15,21.92-7.29,33-.1.5-1.11.52-1.2,1.02-2.91,15.63-3.36,31.82-6.72,47.39-.83.52-14.23-.06-15.85-.59-.39-.13-2.71-2.88-4.43-3.59-3.94-1.61-9.56-1.89-13.81-2.29,1.5-14.68-5.13-17.34-18.41-16.43.55-8.55,1.16-17.42.69-25.99-.61-10.94-4.3-20.56-3.23-31.78l70.27-.73ZM134.26,467.94c-2.42-11.79,11.81-45.36-11.37-39.96-6.72,1.57-7.54,15.74-7.73,21.19-.21,5.81-.02,11.69.7,17.44l18.4,1.32Z" fill="#fff"/>
  <path d="M4.08,358.17l45.08,1.27c.89,30.94,1.26,61.92,3.58,92.72-2.12-.33-6.79.76-8.24-.64-.94-.9-.6-2.81-1.19-3.75-7.85-12.46-26.88-8.1-39.22-7.45v-82.16ZM35.64,410.1v-18.73c0-5.14-8.55-8.55-12.28-4.72-2.62,2.5-2.73,22.34-1.49,23.41l13.77.04Z" fill="#fff"/>
  <path d="M261.81,194.83c.4,3.86,3.01,7.87,3.76,12.01.58,3.17,1.83,10.92-.08,13.36-2.59,4.18-16.54-.3-17.48-3.03-.17-1.99,3.06.05,1.97-2.61-1.23-3-3.94,3.9-4.33,4.22-.83.7-9.25,3.48-11.69,4.75-2.06,1.07-9.19,6.55-10.46,6.4-18.02-9.74-19.7-29.02-18.27-47.61,1.27-16.37,12.6-11.04,25.05-13.74,9.55-2.07,16.47-6.84,23.3-13.52,4.08,6.19,12.42,10.35,19.22,13.01,2.28.89,6.21.93,7.91,1.95,2.38,1.44,3.76,12.07,4.1,15.28-2.98-6.09-19.9,3.27-21.59.56-.68-1.1,1.02-3.74-1.41-3.19.29,3.91-.4,8.32,0,12.16ZM254.34,188.36c1.94-1.98,1.64-4.43,1.54-7-1.82.9-1.32,3.3-2.93,4.62-6.52,5.36-21.54-8.49-33.23-2.33-1.57.83-4.08,2.33-2.96,4.27,9.02-9.24,29.09,9.09,37.58.43ZM237.24,192.77c-.73-.76-2.12-1.61-3.23-1.47-6.96,2-5.6,14.57,2.18,12.1,3.84-1.22,3.37-8.22,1.05-10.63Z" fill="#fff"/>
  <path d="M590.54,764.38c-6.79-4.57-15.05-6.6-23.25-5.83-3.19.3-8.2,2.61-10.62,2.57-4.68-.07-7.95-4.1-15.76-3.3-3.18.32-8.3,3.19-9.88,3.23-1.05.03-5.31-2.97-7.55-3.58-11.24-3.12-17.37,1.2-27.29,4.36-8.07-9.09-22.27-12.03-33.2-6.65-1.5-9.25-8.39-18.47-15.79-24l11.66-7.4c6.23-2.46,12.27-1.82,18.13,1.29,2.37,1.26,9.48,6.39,8.02,9.07-2.98,1.85-6.2,5.55-6.24,9.2,9.3-12.13,22.4-20.25,34.45-5.86,1.01,1.2,3.11,5.78,3.43,5.89,3.38,1.22,2.65-1.63,3.29-2.04,5.87-3.78,14.79,3.25,19.3,6.6l-2.32-3.26-8.84-5.6c3.23-3.9,4.1-7.51,8.6-10.47,10.13-6.66,21.22-1.77,24.99,9.15.64,1.84-.52,3.2.94,4.27,4.34-1.77,10.32-2.01,14.7-.25,1.42.57,3.14,2.83,4.23,2.79,1.57-.06,5.84-4.76,8.99-3.19v23.01Z" fill="#fff"/>
  <path d="M276.65,284.95c-13.87,38.16-52.34,106.07-100.63,101.47-9.16-.87-15.33-4.07-13.45-14.41,15.44-1.76,29.53-9.35,41.99-18.16,24.65-17.44,43.15-41.17,59.85-65.86.99-1.46,2.29-5.35,3-6.06,1.67-1.66,9.49-2.31,11.49-5.26.48.61-1.81,7.09-2.24,8.28Z" fill="#fff"/>
  <path d="M228.28,395.64c-.36-1.56.28-1.07.85-1.48,8.52-6.13,17.94-9.99,26.43-17.59,24.49-21.93,44.9-68.23,47.66-100.24.14-1.63-.34-11.99.35-12.16,15.02,2.98,14.06,15.34,13.46,27.93-1.74,36.44-23.76,83.58-55.54,103.54h-33.2Z" fill="#fff"/>
  <path d="M101.39,347l26.29,11.17c2.27-2.19-17.15-11.92-19.72-11.18l3.05-7.91c12.23-2.06,36.33,13.84,38.25,25.51.99,6.03-13.57,24.43-19,27.38-9.11,4.95-21.59,1.37-30.2-3.22-2.04-1.09-8.86-5.58-9.78-7.31s-1.14-9.1-.59-10.96c.44-1.48,3.79-3.16,5.1-4.76,3.94-4.8,5.85-12.6,6.59-18.72Z" fill="#fff"/>
  <path d="M511.64,473.53c-1.35-10.73-11.31-21.87-22.36-23.34-.63-.94,2.66-6.83,3.66-7.84,1.82-1.83,4.01-1.32,4.23-3.32-8.87.54-10.16-11.19-12.4-17.49-.5-1.42-2.82-3.38-2.07-6.17-2.06,4.11.29,8.48,1.99,12.12-3.92,4.05-5.77,8.85-11.7,10.69-13.7,4.26-12.29-14.25-4.21-17.36,2.37-.91,5.3-.29,7.08-2.12,1.35-1.38,3.44-9.13,4.54-9.24,1.75,2.79,8.71,2.05,9.88,3.26.55.57,4.02,12.37,5.38,14.96.82,1.55,5.49,7.95,6.75,9.06,4.44,3.9,10.86,5.42,15.39.9,5.46-5.44,4.82-12.85-1.25-17.67-3.48-2.76-12.81-4.67-12.54-9.88.51-9.86,10.81-14.72,17.27-6.34,3.96,5.14,9.63,46.61,8.68,53.94-1.34,10.34-10.37,19.4-18.33,25.38-.27-3.03.37-6.58,0-9.53ZM476.78,432.44c2.38-5.57,4.36-11.54,3.95-17.74-2,2.99-1.83,7.61-2.81,11.32-.38,1.43-4.31,6.63-1.14,6.42Z" fill="#fff"/>
  <path d="M42.22,492.26l-38.13,1.97v-52.58c9.69.68,25.35-3.48,33.54,2.94,1.23.97,4.59,5.25,4.59,6.59v41.08ZM20.94,463.43c-2.02.77-.95,10.77-.79,13.09l8.96.33c1.1-8.28,3.23-15.76-8.17-13.42Z" fill="#fff"/>
  <path d="M324.53,281.01c4.85,6.27,10.28,16.67,13.48,23.79,6.54,14.56,11.94,31.04,17.16,46.13-13.07-.35-26.65,3.1-38.13,9.21l1.31-85.45c1.07-1.24,5.67,5.66,6.18,6.31Z" fill="#fff"/>
  <path d="M520.46,712.84c3.93,6.01,3.87,10.73,5.97,17.35,1.38-1.09.46-3.95.23-5.47-.7-4.56-2.6-11.21-5.15-15.04-.89-1.33-4.24-2.32-3.95-5.09,10.22-3.39,17.19-2.67,22.69,7.21,1.2,2.15,5.02,10.48,2.96,12.18-3.67.6-8.7,3.14-11.21,5.88-1.99,2.18-3.3,7.07-5.53,8.28-2.37,1.28-6.17.54-8.6,2.48-6.39-11.32-18.74-17.25-30.23-8.56-4.48-5.21-10.11-10.56-17.42-11.05l.31-2c11.82-15.24,36.91-26.08,49.94-6.16Z" fill="#fff"/>
  <path d="M91.2,411.41l-1.64-26.29c12.76,7.75,31.16,17.66,45.03,6.57,2.11-1.69,9.97-11.76,10.86-12.15,1.29-.56,7.8-.9,8.45-1.74.62-5.09,5.08-10.06,7.97-14.37,1.09,5.82-2.81,9.5-1.81,15.3.21,1.24,1.6,2.51,1.67,3.54.14,2.17-2.26,8.02-1.84,13.06.38,4.6,3.26,5.61,3.29,5.97.15,2.43-1.42,7.15-.64,10.11h-71.33Z" fill="#fff"/>
  <path d="M555.03,408.13c-1.89.49-5.92-2.05-6.43-3.76-1.57-8.21,2.49-35.24-2.32-40.74-3.47-3.96-10.63-3.5-14.29.09-5.11,5.02-3.07,25.81-3.92,33.22-4.93-.39-9.48,3.78-13.83.22.91-13.4-.96-30.03,2.33-42.94,2.67-10.49,14.9-22.68,26.19-16.33,12.11,6.82,13.26,23.29,13.61,35.69.32,11.5-1.14,23.06-1.34,34.53Z" fill="#fff"/>
  <path d="M85.61,314.79l-10.52-.66c-.76-17.61-.49-35.33-1.29-52.94-.37-8.17-2.2-16.45-2.68-24.27-.75-12.13,1.63-24.69,1.37-36.87-.1-4.6-3.11-15.5-.49-19.17,1.9-2.67,9.27-3.2,11.55-.43,6,7.33.72,43.66.76,54.47.04,11.5,2.29,23.31,2.64,34.81.46,15.05-.31,30.08-1.34,45.05ZM80.34,235.92l.99-44.71c-1.31-.25-.88,10.93-1.01,12.03-.06.48-1.23.26-1.34,1.41-.98,10.31-.42,20.91-.6,31.26h1.97ZM79.27,261.34c-.49-1.41.08-3.31-1.54-3.73.34,9.37,3.53,17.23,2.62,26.63l1.31.97c-.27-7.05.32-16.36-1.34-23.18-.12-.47-.98-.5-1.05-.69Z" fill="#fff"/>
  <path d="M449.59,735.08c3.08,2.54,12.43,16.78,12.15,20.44-.23,3.04-10.95,7.12-13.23,9.88h-1.28c-6.26-8.13-17.69-9.08-23.98-.35-6.51-3.86-12.13-4.58-19.4-2.66-2.49-9.8-5.93-11.95,1.02-20.96,10.43-13.52,30.96-17.71,44.73-6.35Z" fill="#fff"/>
  <path d="M590.54,666.45v53.9c-.81-1.83-6.28-3.07-6.49-3.36-.2-.27-.26-5.04-.8-6.62-.46-1.37-4.38-5-4.84-5.8-6.45-11.05-8.56-19.67-24.68-15.1-.3-11.03-5.03-16.33-15.79-18.09-.4-3.41,14.71-10.42,18.09-10.84,11.12-1.37,22.77,7.03,34.52,5.91Z" fill="#fff"/>
  <path d="M165.33,409.93c-1.31-1.22-.71-5.33-.83-7.07,6.86,1.05,13.75,2.97,20.73,3.29,27.73,1.24,55.5,4.58,83.46,1.96,12.47-1.17,26.13-3.14,37.49-8.53,3.79,12.13-7.52,13.71-16.63,15.59-31.08,6.39-81.72,5.96-112.58-1.45-1.97-.47-10.65-2.85-11.66-3.79Z" fill="#fff"/>
  <path d="M71.8,370c-5.16-1.34-11.94-5.34-12.99-11-.53-2.85.56-5.84.29-7.65-.48-3.21-2.66-5.57-2.47-9.95.12-2.68,1.94-5.3,1.93-7.23-.01-1.75-1.31-3.15-1.18-5.81.52-10.06,14.05-12.6,21.96-12.24,9.56.43,12.63,4.23,10.82,13.76-5.45-1.64-10.3-2.45-16.09-1.97-.7.06-10.44,1.49-8.19,3.3,10.15-2.7,34.72-2.08,25.27,13.84-4.89-3.31-10.53-3.73-16.32-3.24-.91.08-11.92,1.97-9.61,3.86,6.46-.81,13.05-2.23,19.63-.89s10.87,8.36,5.18,12.97c-5.99-.62-14.11-2.99-19.53,1.4.21.44,1.29,1.13,1.29,1.31v9.53Z" fill="#fff"/>
  <path d="M532.35,399.58c3.76.51,19.25,8.02,21.36,10.85,2.34,3.14-1.93,30.08.61,36.05-.42,1.09-7.51,1.97-9.52,3.02-5.35,2.81-4.59,9.3-12.79,7.27.16-6.02-.59-12.04-1.41-17.98-1.07-7.65-3.66-29.52-6.99-35.07-1.26-2.09-3.16-2.16-3.42-4.14,3.83.36,8.45-.5,12.16,0Z" fill="#fff"/>
  <path d="M528.08,253.66l31.89,10.51.35,25.2c-6.3.48-1.47,7.82-3.96,9.98-.89.77-6.97,1.78-7.9-.01v-17.75c0-.73-2.27-3.14-3.23-3.32-6.42-1.22-3.02,19.36-4.29,22.75l-12.86,1.93v-49.3Z" fill="#fff"/>
  <path d="M312.84,370.43c-.47,2.05-2.39,8.31-3.37,10.74-3.52,8.75-10.73,9.3-19.25,10.99-7.56,1.5-16.13,2.45-23.81,2.49l11.52-8.89c8.48-9.5,17.33-19.39,23.26-30.76,6.75-12.93,10.28-27.41,15.18-40.87-.05,18.47.59,38.2-3.53,56.3Z" fill="#fff"/>
  <path d="M315.06,644.76v27.28c-2.97,1.34-5.97,1.39-9.19,2.64-7.48,2.92-14.64,8.82-17.15,16.71-1.69,1.02-4.61-3.45-5.36-4.76-3.65-6.36-2.39-14.54-3.17-21.81-.56-5.27-2.11-10.49-2.63-15.78l37.48-4.28Z" fill="#fff"/>
  <path d="M508.63,472.28c2.7,9.85.34,19.17-2.9,28.87-.98,2.93-3.57,12.96-7.58,8.21-4.35-5.16,5.64-13.47,7.21-18.43,5.82-18.35-15.35-25.57-29.58-21.03-16.88,5.39-10.95,27.45-24.63,36.17-2.76-16.71,5.65-39.32,19.8-48.88,16.84-11.38,32.55-3.57,37.67,15.1Z" fill="#fff"/>
  <path d="M485.34,530.39c1.48-.38,1.24-1.78,1.35-2.92.94-9.5-1.42-18.97-.75-28.22l-6.53-3.37,6.58-.98-8.54-.66c-.91,3.16,5.55,3.72,5.25,5.57-4.86,7.59-11.88,3.59-16.12-2.27-4.77-6.6-2.6-11.71.68-18.41,1.01-.48,1.54,2.98,5.19,2.62,3.3-.33,3.39-4.11,8.51-3.89,2.03.09,14.79,4.8,16,6.07,1.83,1.93,3.06,7.31,2.84,9.97-.42,5.17-4.68,7.08-4.94,9.84-.56,6,4.43,13.17,4.31,19.61-3.06,1.86-6.25,3.34-9.19,5.45-1.81,1.3-5.54,6.75-7.62,5.59-2.49-1.39-9.53-12.03-9.25-14.85.11-1.15,9.79-14.23,12.22-9.86v20.7ZM496.97,489.18c-.59-.91-6.18-5.07-7.51-5.32-2.43-.45-7.73.29-10.02,1.51-.29,1.64,1.23.93,2.2.89,2-.09,5.42-1.15,7.35-.9,3.82.48,8.56,7.17,8.2,10.85,1.47-.96.5-5.91-.22-7.02ZM492.57,496.2c.39-10.76-8.14-10.09-16.36-8.48l.26,2.57c1.12,1.69,8.33,1.93,10.19.66l-9.2-1.33c-.96-1.57,10.84-2.7,13.03,1.12.96,1.67.1,4.48,2.09,5.47Z" fill="#fff"/>
  <path d="M546.23,699.06c-1.17,1.88-4.13,8.82-5.32,8.83-1.54.02-2.68-2.93-3.96-3.97-4.15-3.38-12.24-3.31-17.3-2.2-1.62.36-3.3,2.11-4.38,2.15-2.12.08-12.05-5.82-16.12-3.92,8.46-10.56,24.48-29.31,39.48-26.64,10.46,1.86,12.68,8.16,14.31,17.72-3.18,2.13-4.75,4.87-6.71,8.02Z" fill="#fff"/>
  <path d="M71.72,400.32c1.37,23.21,5.38,46.29,3.37,69.6l-3.66-.62c.89-14.54-3.27-16.59-16.81-17.51l-2.54-54.17,19.64,2.7ZM70.44,424.61c-8.73-2.29-7.79,8.54-6.57,14.13l7.28.29-.7-14.42Z" fill="#fff"/>
  <path d="M496.15,765.41c1.4,2.09,4.26,4.59.99,7.15-5.73,4.48-31.34,6.91-38.24,4.79-2.05-.63-3.83-2.47-5.98-3.23-6.16-2.16-14.32-1.66-20.4.67l-6.88-8.66c2.04-5.01,6.54-5.72,11.4-5.05,4.6.63,7.15,4.41,11.11,5.95,7.48-2.53,15.5-11.77,23.04-12.53,10.32-1.04,19.2,2.27,24.97,10.91Z" fill="#fff"/>
  <path d="M187.51,650.67c-3.34,11.79-7.26,23.69-7.23,36.14l-8.23-7.87c-6.32-4.52-14.16-6.9-22.01-6.59l1.98-26.3,35.5,4.61Z" fill="#fff"/>
  <path d="M562.02,712.7c2.9,2.85,5.22,8.24,3.53,12.24,2.88.43,1.52-2.07,4.43-3.78,4.23-2.49,16.57-4.32,19.89.18,1.86,2.51,0,15.5.66,19.38-2.89-2.12-6.51,1.85-8.88,1.71-1.05-.06-4.73-2.62-7.28-2.97-3.03-.42-6.73-.12-9.74.48-1.43-.36-2.37-6.07-3.31-7.8-3.12-5.72-10.04-7.75-16-8.66l-4-13.34c4.56-4.89,16.59-1.47,20.7,2.56Z" fill="#fff"/>
  <path d="M312.03,386.85c4.46,8.25,8.96,29.88,12.31,40.45,2.01,6.35,6.4,13.53,6.51,20.63.09,5.74-5.06,9.71-6.94,14.04-1.87,4.31-2.68,9.82-2.94,14.51l-1.29-.99c-.91-16.41-4.19-32.71-7.84-48.17-3.81-16.12-3.05-18.69-2.02-34.68.2-3.02-2.13-6.25.96-8.82,1.13.72.72,2.06,1.24,3.03Z" fill="#fff"/>
  <path d="M520.41,537.4c-1.57-2.63-2.41-11.04-1.22-13.59.33-.7,10.39-9.24,11.67-10.02,19.32-11.82,33.33,3.66,18.26,20.88-3.53,4.03-13.04,11.52-18.45,10.56-2.59-.46-9-5.7-10.27-7.82ZM543.19,518.56l-10.51-1.31.44,1.98c1.03.7,10.15,2.67,10.08-.67ZM552.86,522.69c-.96-1.14-4.09-2.43-5.72-2.16.65,3.34,10.5,7.87,5.72,2.16ZM537.28,522.5c-3.72-.57-4.12,4.23-.99,3.27,1.09-.33,1.11-2.31.99-3.27ZM544.51,525.79c-2.91-.09-1.63,4.88-2.11,6.76-1.61,6.28-10.71.28-13.67,5.72l8.55,1.31-3.28-2.61c10.73,1.04,9.56-2.37,10.51-11.18ZM549.04,529.65c.83-.61.95-3.59-.9-3.21-1.63.34-1.45,4.93.9,3.21Z" fill="#fff"/>
  <path d="M201.32,404.18l22.72-7.18c27.65,1.06,56.94,1.84,83.12-7.93,2.81,10.51-8.76,11.76-16.41,13.49-28.28,6.41-60.77,4.79-89.43,1.62Z" fill="#fff"/>
  <path d="M483.37,502.78l-.15,3.8c-9.79,6-14.46,16.86-22.93,24.06s-18.6,11.85-29.51,11.58c-.67-.65,1.52-8.12,2.06-9.44,5.08-12.45,20.3-11.7,29.52-21.1,1.23-1.25,5.8-8.02,6.34-8.18,1.48-.43,5.73,2.72,8.42,2.62,3.22-.13,3.62-2.79,6.26-3.33Z" fill="#fff"/>
  <path d="M428.8,381.83c-4.89-.47-6.94,5.28-7.7,9.08-2.24,11.17-1.52,25.83-.91,37.23-.3,1.39-9.24.06-11.17.08-.32-13.04-1.69-28.41-.64-41.47,1.29-16,15.92-24.89,20.41-4.91Z" fill="#fff"/>
  <path d="M145.43,706.55c-6.89,1.44-11.85,6.37-10.52,13.8-4.79-1.34-12.73-1.21-7.9-8.23,1.59-2.31,6.4-3.24,7.24-6.23-6.03.33-11.01,5.62-10.52,11.83-5.51-1.79-9.24-3.78-4.59-9.52,1.06-1.3,6.52-3.94,5.25-5.59-4.36,2.38-10.55,5.13-9.86,11.17-7.56-1.96-3.29-11.15,2.11-13.34,10.82-4.4,30.44-1.94,38.36,7.4,1.58,1.87,5.33,8.7,2.47,10.42-2.03,1.22-18.13,3.61-19.94,2.45-4.24-7.44,5.06-9.64,7.9-14.15Z" fill="#fff"/>
  <path d="M136.23,686.82c3.49-2.43,5.65-7.46,8.19-9.89,8.99-8.62,34.9,4.52,35.27,16.12.04,1.28-.64,11.18-.83,11.73-.17.49-7.59,6.46-8.1,6.36.2-9.15-6.38-17.95-14.54-21.63-.89-.4-8.03-2.7-8.47-2.7h-11.51Z" fill="#fff"/>
  <path d="M4.08,336.48c15.08-2.55,37.42-.79,34.46,19.8l-34.46-.08v-19.72Z" fill="#fff"/>
  <path d="M496.91,406.41c4.6,6.42,9.85,12.44,14.05,19.15l1.29-.62-3.56-6.96c19.71,4.62,6.9,31.17-6.23,16.11-1.66-1.91-5.59-8.6-6.78-11.02-1-2.04-3.68-11.2-4.1-11.65-3.14-3.4-16.59.29-11.5-14.47l7.88,2.62c-1.55-1.91-12.36-7.56-3.64-7.28,6.9.22,8.15,8.71,10.72,12.39.62.89,1.52,1.25,1.86,1.73Z" fill="#fff"/>
  <path d="M416.24,301.71l.44,23.64-23.39,3.25.67-30.89,22.28,4.01ZM408.42,319.39c-1.17-7.19-5.56-4.09-4.59,1.97l2.29-3.93,2.3,1.95Z" fill="#fff"/>
  <path d="M547.14,402.87l-16.46-5.56c-1.24-.97-.08-28.4,1.41-30.85,2.18-3.59,8.39-5.1,11.79-2.06.26.24,3.26,4.91,3.26,5.28v33.19Z" fill="#fff"/>
  <path d="M369.39,722.74c-2.31,2.58-13.69,6.06-17.36,6.64-23.69,3.75-54.97-16.06-77.91-22.15-1.88-2.07-2.86-4.4-2.45-7.25,4.59.41,7.98,3.97,12.32,5.76,11.61,4.78,28.36,10.92,40.31,14.92,14.98,5.01,33.69,4.99,46.32-5.54,2.19,1.8.26,5.97-1.23,7.64Z" fill="#fff"/>
  <path d="M328.21,682.87c-9,.11-19.65,5.92-23.92,13.89-1.99,3.71-2.92,7.86-4.36,11.75l-12.38-4.04c-.84-1.42,2.57-10.94,3.53-13.03,3.01-6.6,8.27-11.74,14.99-14.59,10.21-4.32,15.09-1.96,22.14,6.02Z" fill="#fff"/>
  <path d="M581.33,717.06l-13.8,3.29c-1.55-11.06-13.07-15.21-23.02-14.47,3.87-11.88,16.68-23.01,27.12-9.7,1.97,2.51,2.44,5.52,3.87,7.96,2.3,3.92,7.18,6.88,5.82,12.91Z" fill="#fff"/>
  <path d="M496.94,382.07c1.83,2.33,3.12,5.27,2.86,8.31-4.8-9.94-24.97-1.55-26.22,6.97s5.42,9.2,4.23,14.08c-1.9,7.85-5.51,6.82-12.19,8.53-.92-6.34,4.42-12.03,4.52-18.14.12-7.62-6.94-12.62-.57-20.96,7.38-9.67,20.37-7.7,27.38,1.22Z" fill="#fff"/>
  <path d="M344.64,692.75l-11.82,2.96c-8.36,3.89-13.82,9.98-15.14,19.38l-14.37-5.34c-1.44-13.15,14.46-26.79,26.91-23.96,4.08.93,9.83,6.12,14.41,6.96Z" fill="#fff"/>
  <path d="M284.82,185.96c-.32,6.92-.86,13.78-.68,20.73.17,6.58,3.93,13.92-1.62,20.01-3.7-3.84-9.01-6.36-14.05-7.95.78-9.79-3.09-18.85-4.08-28.44l20.43-4.35ZM275.92,194.21c-4.52-6.76-8.2.97-6.74,7.05,1.62,6.73,10.84-.9,6.74-7.05Z" fill="#fff"/>
  <path d="M188.17,700.63c.79,5.08-1.09,7.14-4.66,10.13-12.52,10.49-31.07,18.67-47.63,17.5-6.44-.46-31.1-5.5-27.92-15.47,2.55-.42,4.3,2.52,7.25,3.93,22.2,10.65,44.56,6.49,63.43-8.21,1.44-1.12,8.58-8.93,9.53-7.88Z" fill="#fff"/>
  <path d="M365.49,704.12c1.94,1.39,5.02,7.51,2.49,9.65,0-6.22-5.31-7.21-10.18-8.54-.7,3.16,3.62,2.63,5.6,3.92,3.81,2.49,3.77,6.12-.03,8.56l-5.56-8.22-6.59-2.94c1,3.09,6.13,3.57,7.39,6.74,1.82,4.58.11,7.43-4.76,7.72,1.49-8.48-3.79-11.04-10.84-13.15-1.13.8.15,1.4.81,1.82,2.3,1.45,5.49,2.02,7.29,4.53,7.73,10.81-18.03,8.72-18.89,5.71-.94-3.28,5.23-11.02,8-12.9,6.22-4.24,18.61-7.64,25.26-2.89Z" fill="#fff"/>
  <path d="M165.42,701.03c4.58,7.5,5.27,13.03-4.86,15.36-2.41-17.52-21-20.88-35.86-19.72-.7.05-1.8.41-1.62-.64,8.45-4.78,11.4-8.15,21.93-7.16,8.73.82,15.85,4.71,20.39,12.15Z" fill="#fff"/>
  <path d="M453,310.39c3.86-.19,7.79-.59,11.32,1.42l-.66,9.93-34.58,1.64c-.27-3.07-1.43-7.07,1.45-9.15,2.13-1.54,18.9-3.66,22.46-3.84Z" fill="#fff"/>
  <path d="M396.97,751.52c3.8,1.52,4.31,7.75,5.53,11.29-2.82,6.48-29.41,5.46-30.83,1.12-1.15-3.51,8.56-9.64,11.32-10.84,4.21-1.83,9.6-3.32,13.98-1.57Z" fill="#fff"/>
  <path d="M452.47,634.9c-8.51-.6-12.7,9.35-21.7,8.53l1.31-2.61-3.94,1.3,3.94-4.59-5.91,2.62c-2.23-2.16,10.14-9.06,10.89-9.81,5.76-5.8,5.9-19.55,19.29-9.47l-3.88,14.02Z" fill="#fff"/>
  <path d="M472.7,522.66c.41.58.13,2.07.67,2.92,2.37,3.78,4.9,7.85,8.69,10.41l-8.9,14.79-17.36-14.09c3.21-2.77,6.82-4.9,9.8-7.96,1.71-1.77,5.05-9.01,7.11-6.08Z" fill="#fff"/>
  <path d="M356.47,698.66c-4.09,1.53-8.42,1.8-12.47,3.62-7.49,3.38-12.79,9.59-13.17,18.06-6.41-2.78-12.19-.29-10.22-9.24,2.76-12.53,25.54-20.72,35.86-12.44Z" fill="#fff"/>
  <path d="M188.16,220.8c-1.48-4.78-3.79-11.93,3.95-11.18-1.94,6.07,5.83,23.19-5.73,16.58-8.15-4.66-11.2-19.15-3.61-25.77,6.86-5.99,13.16-1.27,9.69,7.26-9.14-.82-10.13,7.87-4.3,13.12Z" fill="#fff"/>
  <path d="M421.57,399.91c.25-3.06,2.34-12.53,4.04-15.03.8-1.18,1.88-1.91,3.19-2.39,2.15,1.33-1.64,39.31.05,44.94l-7.27,2.38c.58-9.71-.79-20.3,0-29.91Z" fill="#fff"/>
  <path d="M265.09,280.62c-2.11,4.4-8.42,6.12-12.83,6.55-19.06,1.89-45.73-6.01-53.56-24.96l10.54,2.27c1.31,6.24,7.39,13.19,13.73,14.53,4.03.85,9.39-.61,12.24-.1,1.93.35,6.77,6.58,14.41,6.98,7.08.37,9.67-2.49,15.47-5.28Z" fill="#fff"/>
  <path d="M388.03,559.97c-3.45,6.34-6.12,12.03-5.34,19.63l-14.38,4.02,1.97-3.28-4.6,1.96c2.18-3.96-.04-3.99-.01-4.25.05-.49,5.34-6.63,6.23-7.6,1.34-1.46,8.21-8.43,9.34-9.07,2.33-1.32,4.04-1.75,6.79-1.42Z" fill="#fff"/>
  <path d="M502.43,492.91c-2.6-2.12.5-4.91.05-6.17-.12-.35-4.68-2.37-4.09-5.54-6.65.01-14.82-6.87-21.42-4.22-1.29.52-2.01,2.21-3.26,2.65-6.8,2.35-5.58-4.26.68-7.2,13.71-6.45,37.08,2.63,28.05,20.49Z" fill="#fff"/>
  <path d="M95.47,338.45c.5-2.46-1.7-4.26-1.95-6.31-.47-3.7,1.28-6.6-.57-11.19-.69-1.7-4.26-3.78-4.7-5.86-1.57-7.56,9.99-4.23,12.39.12s3.46,23.15-5.16,23.24Z" fill="#fff"/>
  <path d="M499.16,404.84c2.01-3.46-1.33-9.56,1.3-13.79-.18,4.58,2.53,6.95,6.6,8.23l-4.61,9.76-1.3.41c-.56-2.63-4.01-4.47-5.26-6.4-3.06-4.68-3.23-11.41-11.19-12.67,2.18-4.45,10.82-3.85,12.81.02,1.38,2.69-.67,10.87,1.66,14.44Z" fill="#fff"/>
  <path d="M279.55,682.22c-1.82,4.27,6.95,10.88,7.16,11.61.48,1.7-1.89,7.71-1.24,10.08-9.79-1.75-9.75-9.57-8.5-18.03.09-.59,1.57-5.12,2.58-3.66Z" fill="#fff"/>
  <path d="M89.56,366.72l-.67-6.56c13.12-2.57-1.47-18.6,11.83-21.04-1.6,9.38-2.4,22.2-11.16,27.61Z" fill="#fff"/>
  <path d="M543.2,281.6c.59-3.18,3.94-.73,3.94.66v18.73h-3.94c.74-5.75-1-13.98,0-19.39Z" fill="#fff"/>
  <path d="M183.56,684.2c1.88,5.72,4.97,15.86-2.62,18.4-.55-.68.99-15.36,1.31-17.43.14-.86.34-1.99,1.31-.97Z" fill="#fff"/>
  <path d="M481.4,391.05c-3.36,3.84-2.76,8.32-3.28,12.82-.11.95.54,1.9-.98,1.62-4.47-5.25-2.06-12.35,4.26-14.45Z" fill="#fff"/>
  <path d="M355.82,352.92c.46,1.49-4.07,7.57-5.25,6.57-.13-2.62-.79-4.38-1.97-6.57h7.22Z" fill="#fff"/>
  <path d="M151.35,370.01l.58,6.49-5.18.73c1.14-1.85,2.02-4.56,3.21-6.28.34-.5-.32-1.35,1.38-.94Z" fill="#fff"/>
  <polygon points="468.24 502.77 466.94 502.78 466.6 500.16 468.24 502.77" fill="#fff"/>
  <path d="M59.95,763.74c-11.14,1.61-25.79,4.58-34.84-4.28-4.26-4.17-2.14-7.92-9.59-8.81-2.41-.28-4.09.25-6.14.29-.39,0-2.07.78-1.35-.69,1.45-2.91,10.34-1.66,12.83.22,10.99-20.62,40.93-19.65,51.98.63,7.8-1.06,19.91-2.07,23.83,6.48,4.63,10.1-4.06,10.89-12.13,11.97-6.01.8-24.09,2.36-24.59-5.82ZM67.44,747.71c-5.53-6.96-12.29-11.22-21.58-10.93-9.59.3-32.08,12.19-18.43,22.33,7.61,5.65,25.18,6.14,33.37,1.82.48-.25,7.83-6.13,8.42-6.69,3.5-3.3-.39-4.78-1.78-6.53ZM76.23,752.05c-4.41.78-12.92,7.93-14.86,12.11-.29,4.53,18.1,3.76,21.3,3.53,6.59-.49,16.78-.72,12.27-9.69-2.82-5.6-13.25-6.92-18.71-5.95Z"/>
  <path d="M437.13,669.3c.46.26.39,1.64,1.8,1.74,1.27.09,4.21-1.69,6.03-1.9,10.27-1.19,12.66,8.9,13.88,9.18,1.57.36,5.4-1.61,8.34-1.31.99.1,6.59,1.59,6.32,3.24-8.68-4.72-12.94,2.08-18.89,3.13-5.33.94-16.1.32-21.36-1.17-.64-.18-.6-1.65-2.13-1.97-3.95-.84-22.04,2.49-17.62-7.07.39-.85,7.06-5.92,8.12-6.34,6.31-2.51,10.19-.5,15.51,2.47ZM436.46,674.16c.53-.58.77-1.26.76-2.04-5.49-7.41-16.83-5.2-21.95,1.51-4.34,5.68,14.81,5.93,17.07,4.58,1.29-.78,1.55-2.5,2.35-3.43.49-.57,1.54-.36,1.77-.61ZM456.97,680.14c-3.57-13.55-16.62-11.4-22.94-.88l1.16,1.5c3.25.88,20.27,2.39,21.77-.62Z"/>
  <path d="M141.22,768.72c2.38-2.09,4.85-5.11,7.97-6.17,15.2-5.14,31.42,14,12.92,16.21-3.92.47-20.5-.79-23.73-2.39-6.03-3,.97-6.01,2.83-7.65ZM138.21,774.23c4.46,1.75,30.93,5.48,30.78-1.51-3.93-8.01-13.62-11.74-21.73-7-.91.53-9.49,7.89-9.05,8.51Z"/>
  <path d="M261.71,747.85c-1.07,1.76-17.76,2.92-20.63,2.75-5.84-.35-9.19-2.81-14.5-4.56l-10.79.93c3.55-4.24,11.15-1.37,14.03-2.42,1.28-.47,1.56-2.82,2.7-3.87,10.46-9.61,33.84-.47,29.19,7.17ZM260.49,746.63c-3.53-10.53-25.55-12.27-28.32-.41,2.94,3.98,27.11,2.21,28.32.41Z"/>
  <path d="M337.87,761.95c.6.87.87,1.73.9,2.79-.3,5.09-14.34,5.15-18.11,4.89-7.39-.5-13.77-4.44-21.38-1.3.46-3.99,8.93-2.56,10.41-3.39.28-.16.94-3,2.14-4.1,5.56-5.1,21.43-5.47,26.03,1.12ZM311.99,763.92c-.35.45-.46,1.02-.85,1.45.47,1.99,22.88,4.23,25.59-.65-4.38-8.5-19.58-7.48-24.74-.8Z"/>
  <path d="M29.46,517.51c2.76,2.45,3.5,4.46,5.28,7.56,8.33-.63,25.89-3.49,26.54,8.6-2.63-.55-2.07-3.65-4.46-5.21-6.97-4.56-15.95-1.94-23.7-2.13-3.32-7.27-9.93-13.32-18.7-11.56-2.43.49-4.9,3.31-7.71,3.12,6.27-6.9,16.04-6.36,22.75-.38Z"/>
  <path d="M50.84,646.65c.38.3,7.08.33,9.65,1.2,1,.34,3.83,1.22,3.42,2.82-7.49-3.64-17.14-1.87-24.97,0-.02-3.76,10.27-2.58,10.5-4.26-5.57-9.85-18.88-7.85-27.27-2.97-.58-2.88,6.53-4.86,9.12-5.34,7.79-1.45,13.68-.64,18.75,5.77.6.76.59,2.62.81,2.79Z"/>
  <path d="M45.83,575.08c-.25.05-1.64.73-1.65.99l1.65,3.61c-8.43-7.13-21.27-9.75-30.56-2.64,1.76-7.56,16.16-6.35,22.06-4.65,1.77.51,3.31,2.4,3.99,2.53,1.83.34,11.12-4.77,14.7.14-3.05.4-7.34-.56-10.19,0Z"/>
  <path d="M382.12,641.46c-3.9.68-8.11-2.25-12.36-3.08-8.91-1.73-13.65-.38-21.16,4.4-.41-1.75.23-1.48.81-2.17,6.66-7.81,25.48-5.44,32.71.85Z"/>
  <path d="M204.61,719.68c5.99-8.47,22.38-10,29.57-2.3l-1.65.36c-8.76-6.35-19.48-2.91-27.92,1.94Z"/>
  <path d="M249.31,673.69l-.34,1.32c-5.26-2.33-13.5-3.71-18.06.64l5.91,2.63c-7.1-2.31-14.06-1.57-21.04.66,3.18-4.94,10.7-2.2,14.08-3.24.69-.21.15-1.63.81-2.05,5.15-3.32,13.25-2.35,18.63.05Z"/>
  <path d="M410.39,478.45c-3.66-1.45-6.14-2.26-10.21-1.98s-5.29,2.13-7.9,2.62c-3.23.61-8.07.41-11.47.69-.31-1.77.33-1.14,1.42-1.5,3.45-1.16,7.31-.64,10.59-1.27,2.35-.45,3.89-2.27,7.36-2.51,3.94-.27,7.85.49,10.21,3.96Z"/>
  <path d="M386.72,670.4l-.97,1.29c-3.92-3.35-8.03-4.31-13.09-3.85-1.65.15-4.7,1.69-5.33,1.65s-2-1.51-3.25-1.77c-4.48-.95-7.52-1.56-12.2-.94,4.81-4.3,11.96.9,16.11.89,2.39,0,4.68-1.52,8.53-1.21,4.01.33,6.74,2.39,10.19,3.94Z"/>
  <path d="M578.04,469.91c-4.87-2.81-7.57-3.17-12.96-1.45-1.59.51-2.99,2.28-4.53,2.58s-6.69-.45-8.8.18c1.83-2.82,5.87-1.5,8.59-2.25,5.59-1.54,13.67-6.97,17.71.94Z"/>
  <path d="M49.44,678.27c-8.55-4.03-17.32-2.5-26.29-1.64,5.55-3.31,14.23-3.45,20.41-2.01.64.15,7.43,2.22,5.88,3.64Z"/>
  <path d="M367,550.76c-6.44-4.73-14.15-5.89-21.37-1.97-1.26-1.97,5.19-3.57,6.74-3.78,4.64-.6,13.82-.03,14.63,5.75Z"/>
  <path d="M399.87,614.51c-7.54-1.98-15.09-5.09-22.04.66-3.58-1.83,3.78-4.16,5.45-4.42,5.46-.84,12.57-.5,16.59,3.76Z"/>
  <path d="M40.57,783.45c-.53.07-5.22,3.4-4.27,1,1.67-4.2,19.71-4.24,21.02,1.63-.24.27-5.55-2.63-6.24-2.63-3.17,0-7.57-.4-10.52,0Z"/>
  <path d="M220.38,784.77l-.91,1.24c-5.45-3.29-12.25-4.37-18.47-3.2l-.99-1.33c7.21-2.48,13.99-.25,20.37,3.29Z"/>
  <path d="M31.7,714.43c1.07-6.25,18.8-2.47,19.05.33-1.12,1.61-1.18.49-2.15.21-6.31-1.8-10.16-4.25-16.89-.54Z"/>
  <path d="M379.49,795.29c.06.07.24,1.38-.31,1.29-7.08-4.15-13.07-2.29-20.06.66.59-2.7,7.36-4.49,9.56-4.61s9.57,1.24,10.81,2.65Z"/>
  <path d="M122.42,813.67c-6.86-2.6-13.04-5.01-20.17-1.41l-.87-1.2c6.75-2.61,15.76-3.38,21.04,2.61Z"/>
  <path d="M114.31,544.41c.29.29,1.68,2.14-.11,1.76-2.23-1.09-4.29-2.76-6.88-3.04-.61-.07-11.38,1.87-8.56-.25,4.75-1.55,11.69-2.29,15.55,1.53Z"/>
  <path d="M310.46,797.24l-12.2-3.28-8.84,1c6.09-3.94,15.7-2.62,21.03,2.28Z"/>
  <path d="M420.91,707.87l-.92,1.25c-5.6-3.76-10.91-2.76-16.83-.61,4.24-5.49,12.55-3.65,17.75-.64Z"/>
  <path d="M169.76,756.49c3.65-4,12.48-4.87,16.42-.97-6.01-1.71-10.6-.47-16.42.97Z"/>
  <path d="M408.42,620.43c-3.83-1.13-5.72-2.55-10.04-1.81-1.19.2-4.52,3.2-4.42.84,1.48-2.99,13.6-3.85,14.45.97Z"/>
  <path d="M125.05,669.07c-4.41-2.08-7.03-2.11-11.83-1.64,2.7-2.74,10.57-2.55,11.83,1.64Z"/>
  <path d="M177.25,52.27c7.06,10.75,20.02,8.83,30.64,6.5-8.14,5.92-21.45,5.69-28.92-1.64-3.8,12.87-16.01,20.96-29.59,17.74-3.48,14.63-21.56,19.88-34.85,16.74-4.91,10.22-15.27,16.87-26.63,17.29-1.61.06-5.66-1.3-6.51-1.16-.44.07-5.36,4.49-7.19,5.37-9.39,4.51-17.25,3.85-26.06-1.41-6.28,10.47-21.48,13.54-32.48,9.1-1.97-.79-10.91-7.18-10.92-8.8-.04-3.88,4.77,2.71,5.11,2.97,12.88,10.11,29.16,6.88,38.69-5.88,2.83.87,4.03,2.83,7.12,3.92,6.48,2.29,13.67,1.33,19.44-2.3,1.81-1.14,4.11-4.23,4.4-4.31,1.35-.38,8.22.92,11.05.7,9.57-.73,19.62-8.6,22.75-17.69,14.01,3.25,30.39-1.15,34.72-16.24,8.29,1.29,19.23-.63,24.56-7.68,6.81-9.02,3.01-10.69.47-20.19,2.69.59,2.63,4.58,4.2,6.97Z"/>
  <path d="M99.98,47.35c3.47,10,16.16,15.93,26.38,13.07l-.43,1.99c-10.2,2.84-23.19-3.36-27.23-13.14-9.37,2.68-20.45,1.92-26.56-6.45-10.57,5.96-32.43,8.08-37.81-5.4,2.74,1.1,3.95,3.88,6.77,5.38,9.97,5.32,23.09,3.07,32.3-2.75,5.14,10.34,16.89,9.21,26.58,7.3Z"/>
  <path d="M264.19,595.9c-1.48,9.09-3.65,21.49-6.12,30.99-.4,1.53-.54,3.96-2.18,4.72,3-15.05,4.6-30.42,7.27-45.52.09-.5,1.13-.48,1.22-.99.74-4.16.58-11.46,1.51-14.81.15-.54.56-1.12,1.16-1.13-.18,8.96-1.42,17.89-2.87,26.73Z"/>
  <path d="M486.66,295.73l.98-19.73,14.15-1.31-1.65,21.04h-13.48ZM499.81,276.67l-10.86,1.3c-.6.68-1.69,13.36-1.59,14.87.05.8.33,1.13.95,1.57h9.86c.86-.94,1.64-5.26,1.64-6.24v-11.5Z"/>
  <path d="M496.19,331.55c2.08,2.6.62,7.92.89,11.41l-10.17.82c-2-1.57-.66-9.97.07-12.55,3.32-1.58,6.51-3.03,9.21.33ZM494.55,341.74v-9.53c-1.62-1.94-4.92-.8-6.57.66v9.53l6.57-.66Z"/>
  <path d="M573.44,340.1c-.06.23-.89,1-1.31.99-1.45-14.2-3.68-22.82,14.46-20.7l-13.16,2.96c-.78,4.47,1.05,12.83,0,16.76Z"/>
  <path d="M274.29,242.48c-3.67-.48-4.36-3.78-8.18-5.28-10.75-4.22-21.15.49-30.6,5.28,8.85-10.7,31.62-13.69,38.79,0Z"/>
  <path d="M251.94,245.12c2.31-1.85,8.54-2.15,10.52,0h-10.52Z"/>
  <path d="M378.83,364.09l.65-19.07c4.3.98,9.54-2.14,13.15.33v17.09c0,.12-1.53,1.64-1.64,1.64h-12.16ZM390.67,346.34l-9.78,1.39c.72,2.42-1.69,14.34.22,14.86l9.56-1.46v-14.79Z"/>
  <path d="M439.32,353.58l.83-11.01c8.35-3.73,6.57,5.06,6.12,10.39l-6.95.62ZM444.58,343.71c-1.19-.03-2.71-.31-3.19,1.08l-.1,6.81h3.29s0-7.89,0-7.89Z"/>
  <path d="M377.93,313.56c5.45-2.15,5.76,6.15,4.23,9.49l-5.67-.33c-.86-1.23-.24-8.5,1.44-9.16ZM378.84,314.79c-.67,1.38-1.55,7.79.97,7.22,1.85-.42,1.35-8.77-.97-7.22Z"/>
  <path d="M383.35,394.42c1.31.8,1.64,8.63,1.4,10.42-2.47-.05-1.62-5.96-1.99-7.54-1.4-5.95-3.76,4.45-2.61,6.57l-1.31.97c-.39-2.46-.61-13.55,4.51-10.42Z"/>
  <path d="M422.22,350.28c-3.99.68-9.44,1.5-13.15.34-.02-.68,12.24-3.06,13.15-.34Z"/>
  <path d="M420.91,574.42c-3.68-2.21-8.63-3.92-12.2-5.87-.91-.5-1.89-.59-1.6-2.01,5.19,1.22,10.45,3.57,13.8,7.88Z"/>
  <path d="M46.82,287.18v16.43h-10.85l-.99-.99v-15.45h11.83ZM45.5,289.16h-9.2v11.5c1.94,1.57,7.14,1.62,9.2,0v-11.5Z"/>
  <path d="M507.69,565.22c-4.1-.95-1.17-8.56-1.29-11.46-.39-9.21-2.19-16.07-7.91-23.36,11.46,7.16,9.84,23.1,9.2,34.83Z"/>
  <path d="M509.43,615.41c2.98,3.06,8.37,10.23,8.99,14.39.15.99.65,1.35-.86,1.8-4.22-11.46-17.93-23.81-29.15-28.38-3.24-1.32-6.93-1.1-9.65-3.16,11.22.41,22.98,7.45,30.66,15.35Z"/>
  <path d="M512.96,592.84c-4.85,2.91-11.41,5.3-17.09,5.25-.18-1.78-.01-1.06.98-1.29,5.42-1.26,10.68-2.78,16.11-3.96Z"/>
  <path d="M81.66,366.72c-1.12,18.59-1.25,37.42,1.31,55.87-3.57-4.62-2.16-11.84-2.65-17.28-.04-.47-1.26-.28-1.34-1.41-.77-11.43-.16-25.59,1.36-36.21l1.32-.97Z"/>
  <path d="M82.31,484.37l1.97-39.43c1.76,13.11-.16,26.45-1.97,39.43Z"/>
  <path d="M82.99,627.67c-.56-5.61.44-11.21.67-16.74.22-5.03-1.03-10.8,1.28-15.47l-.19,16.56-1.77,15.64Z"/>
  <path d="M85.6,690.76l-1.31-.97c-.69-10.41-.78-20.8-.65-31.23.91.61,1.22,3.87,1.29,4.94.64,9.01-.58,18.25.67,27.26Z"/>
  <path d="M85.6,556.67l-1.31-.97-1.31-28.6c1.2.25,1.2,1.3,1.33,2.28,1.15,8.79.32,18.4,1.29,27.3Z"/>
  <path d="M134.26,467.94l-18.4-1.32c-.72-5.76-.9-11.64-.7-17.44.2-5.45,1.01-19.62,7.73-21.19,23.18-5.4,8.94,28.17,11.37,39.96ZM117.98,464.5c.48.48,12.22,2.17,13.39,2.09.85-.06,1.18-.22,1.47-1.05-.78-9.59,2.85-22.25,1.45-31.47-1.08-7.09-12.1-6.74-15.02.16-1.38,3.26-3.13,28.45-1.29,30.27Z"/>
  <path d="M35.64,410.1l-13.77-.04c-1.24-1.07-1.12-20.91,1.49-23.41,3.73-3.83,12.28-.42,12.28,4.72v18.73ZM34.33,408.78v-15.45c0-4.56-5.91-9.77-9.52-5.58-2.6,3.01-2.17,17.26-.67,21.02h10.19Z"/>
  <path d="M254.34,188.36c-8.49,8.66-28.55-9.67-37.58-.43-1.12-1.94,1.39-3.44,2.96-4.27,11.69-6.16,26.71,7.69,33.23,2.33,1.61-1.32,1.11-3.72,2.93-4.62.1,2.57.4,5.02-1.54,7Z"/>
  <path d="M237.24,192.77c2.32,2.42,2.79,9.41-1.05,10.63-7.78,2.47-9.14-10.1-2.18-12.1,1.11-.14,2.5.71,3.23,1.47Z"/>
  <path d="M476.78,432.44c-3.17.21.76-4.99,1.14-6.42.98-3.7.81-8.33,2.81-11.32.41,6.2-1.57,12.17-3.95,17.74Z"/>
  <path d="M20.94,463.43c11.4-2.34,9.26,5.14,8.17,13.42l-8.96-.33c-.16-2.33-1.23-12.32.79-13.09ZM21.83,464.66v10.52h6.58c-.22-3.44.63-7.14-.76-10.42l-5.82-.1Z"/>
  <path d="M80.34,235.92h-1.97c.19-10.35-.38-20.95.6-31.26.11-1.15,1.28-.93,1.34-1.41.13-1.1-.3-12.28,1.01-12.03l-.99,44.71Z"/>
  <path d="M79.27,261.34c.06.19.93.22,1.05.69,1.67,6.82,1.08,16.13,1.34,23.18l-1.31-.97c.91-9.4-2.28-17.26-2.62-26.63,1.62.43,1.05,2.32,1.54,3.73Z"/>
  <path d="M492.57,496.2c-1.99-.98-1.13-3.8-2.09-5.47-2.19-3.82-13.98-2.69-13.03-1.12l9.2,1.33c-1.86,1.27-9.06,1.03-10.19-.66l-.26-2.57c8.22-1.61,16.75-2.28,16.36,8.48Z"/>
  <path d="M496.97,489.18c.72,1.11,1.69,6.06.22,7.02.36-3.68-4.38-10.37-8.2-10.85-1.93-.24-5.35.81-7.35.9-.97.04-2.49.76-2.2-.89,2.29-1.22,7.59-1.96,10.02-1.51,1.33.25,6.93,4.41,7.51,5.32Z"/>
  <path d="M70.44,424.61l.7,14.42-7.28-.29c-1.22-5.59-2.16-16.42,6.57-14.13ZM69.17,425.87c-5.6-.75-3.58,8.07-3.95,11.83h3.95v-11.83Z"/>
  <path d="M544.51,525.79c-.95,8.81.22,12.21-10.51,11.18l3.28,2.61-8.55-1.31c2.95-5.44,12.05.56,13.67-5.72.48-1.88-.8-6.85,2.11-6.76Z"/>
  <path d="M543.19,518.56c.07,3.34-9.05,1.37-10.08.67l-.44-1.98,10.51,1.31Z"/>
  <path d="M552.86,522.69c4.78,5.71-5.06,1.19-5.72-2.16,1.63-.27,4.76,1.02,5.72,2.16Z"/>
  <path d="M537.28,522.5c.12.97.1,2.94-.99,3.27-3.13.96-2.73-3.84.99-3.27Z"/>
  <path d="M549.04,529.65c-2.35,1.72-2.53-2.87-.9-3.21,1.85-.38,1.73,2.6.9,3.21Z"/>
  <path d="M408.42,319.39l-2.3-1.95-2.29,3.93c-.97-6.06,3.42-9.16,4.59-1.97Z"/>
  <path d="M275.92,194.21c4.11,6.15-5.12,13.78-6.74,7.05-1.46-6.08,2.22-13.81,6.74-7.05Z"/>
  <path d="M67.44,747.71c1.39,1.75,5.28,3.23,1.78,6.53-.6.56-7.94,6.44-8.42,6.69-8.18,4.32-25.76,3.83-33.37-1.82-13.66-10.14,8.83-22.03,18.43-22.33,9.29-.29,16.05,3.97,21.58,10.93Z" fill="#fff"/>
  <path d="M76.23,752.05c5.46-.97,15.9.34,18.71,5.95,4.51,8.97-5.68,9.2-12.27,9.69-3.19.24-21.59,1-21.3-3.53,1.94-4.19,10.44-11.33,14.86-12.11Z" fill="#fff"/>
  <path d="M456.97,680.14c-1.5,3.01-18.52,1.5-21.77.62l-1.16-1.5c6.32-10.51,19.37-12.67,22.94.88Z" fill="#fff"/>
  <path d="M436.46,674.16c-.23.25-1.28.04-1.77.61-.8.93-1.05,2.66-2.35,3.43-2.25,1.35-21.41,1.11-17.07-4.58,5.12-6.71,16.46-8.92,21.95-1.51.01.78-.24,1.46-.76,2.04Z" fill="#fff"/>
  <path d="M138.21,774.23c-.44-.62,8.14-7.98,9.05-8.51,8.11-4.74,17.8-1.01,21.73,7,.15,6.99-26.32,3.26-30.78,1.51Z" fill="#fff"/>
  <path d="M260.49,746.63c-1.22,1.8-25.38,3.57-28.32-.41,2.77-11.86,24.79-10.12,28.32.41Z" fill="#fff"/>
  <path d="M311.99,763.92c5.16-6.69,20.36-7.7,24.74.8-2.71,4.88-25.12,2.65-25.59.65.39-.43.5-1,.85-1.45Z" fill="#fff"/>
  <path d="M499.81,276.67v11.5c0,.99-.78,5.3-1.64,6.24h-9.86c-.61-.45-.9-.78-.95-1.57-.1-1.51,1-14.2,1.59-14.87l10.86-1.3Z" fill="#fff"/>
  <path d="M494.55,341.74l-6.57.66v-9.53c1.66-1.45,4.95-2.6,6.57-.66v9.53Z" fill="#fff"/>
  <path d="M390.67,346.34v14.79l-9.56,1.46c-1.91-.52.5-12.44-.22-14.86l9.78-1.39Z" fill="#fff"/>
  <path d="M444.58,343.71v7.89s-3.29,0-3.29,0l.1-6.81c.48-1.39,2-1.11,3.19-1.08Z" fill="#fff"/>
  <path d="M378.84,314.79c2.32-1.54,2.82,6.8.97,7.22-2.52.57-1.64-5.85-.97-7.22Z" fill="#fff"/>
  <path d="M45.5,289.16v11.5c-2.07,1.62-7.27,1.57-9.2,0v-11.5h9.2Z" fill="#fff"/>
  <path d="M117.98,464.5c-1.84-1.82-.09-27.02,1.29-30.27,2.91-6.89,13.93-7.25,15.02-.16,1.41,9.22-2.22,21.88-1.45,31.47-.29.83-.62,1-1.47,1.05-1.17.08-12.9-1.61-13.39-2.09ZM127.68,449.54v-9.2c-2.53,1.57-.86,5.78-1.32,8.23l1.32.97Z" fill="#fff"/>
  <path d="M34.33,408.78h-10.19c-1.5-3.76-1.93-18.01.67-21.02,3.61-4.19,9.52,1.01,9.52,5.58v15.45Z" fill="#fff"/>
  <path d="M21.83,464.66l5.82.1c1.39,3.28.54,6.98.76,10.42h-6.58v-10.52Z" fill="#fff"/>
  <path d="M69.17,425.87v11.83h-3.95c.37-3.76-1.65-12.58,3.95-11.83Z" fill="#fff"/>
  <path d="M127.68,449.54l-1.32-.97c.45-2.44-1.21-6.65,1.32-8.23v9.2Z"/>
</svg>