<?xml version="1.0" encoding="UTF-8"?>
<svg id="Camada_1" xmlns="http://www.w3.org/2000/svg" version="1.1" viewBox="0 0 595.28 841.89">
  <!-- Generator: Adobe Illustrator 29.0.0, SVG Export Plug-In . SVG Version: 2.1.0 Build 186)  -->
  <g>
    <path d="M.14,841.29V-.06h595v841.34H.14ZM590.54,3.89H4.74v474.57l34.85-6.57c7.39-27.81,13.42-59.81,34.83-80.53-.46-3.36-17.84,1.01-20.5,1.84-3.84,1.2-17.61,9.13-18.64,9.01-2.99-.35-1.22-6.79-.75-8.68,3.81-15.39,22.8-22.55,37.27-18.94-6.92-7.9-16.62-5.84-24.99-8.87,12.32-12.59,38.64-14.47,45.39,4.92,13.22-11.38,36.13-7.63,42.09,9.51l-1.1,1.61c-7.96-1.54-17.04-3.23-24.56.4,16.62,3.29,22.74,20.66,15.11,35.16-6.97-6.11-11.39-15.07-21.02-18.4,4.59,9.11,1.77,25.22-9.21,27.61,1.46-3-6.19-31.11-9.85-28.92-10.73,23.61-17.15,48.54-20.39,74.27,13.26.92,25.84,4.88,38.49,8.52,12.1,3.48,17.07,4.39,29.4,6.76,17,3.27,38.74,14.11,38.62,34.02,22.34-10.12,45.33-20.41,70.25-21.78l2.06-11.08c-21.89,4.2-45.26,3.71-67.06-.99-3.43-.74-18.65-3.95-19.59-6.71l2.5-12.02c-8.65-1.41-42.02-10.52-43.91-19.55-.58-2.77.02-4.77,3.16-4.79-4.24-5.67-2.84-9.1,4.6-8.54l-1.97-5.42c7.26-6.89,17.06.23,24.98,2.14l.34-5.91c9.15-6.27,12.41,9.69,18.69,12.19,7.6,3.02,31.01,6.43,39.9,7.43,8.12.92,16.37,1.51,24.56,1.4-1.31-6-.91-14.15,2.64-18.73-15.76-23.65,10.43-39.45,12.95-62.6l10.7-17.55-6.92-8.9-44.1-.61c-1.31-4.22-1.81-34.66.39-35.89l42.76-.63c4.27-12.81,15.44-24.61,28.87-27.99.74-.92-.63-19.96,0-23.33.26-1.35.27-2.27,1.81-2.79l42.93.19c2.74,1.54.58,21.91,1.39,25.89,13.37,3.81,24.63,15.36,29.5,28.01l42.76,1.29-.02,35.84h-45.04l-6.79,10.74c5.46,6.64,9.35,14.4,12.47,22.38,1.87,4.78,2.09,10.86,4.58,15.77,8.14,16.07,17.95,21.02,6.06,42.23l1.73,17.02c18.83,1.61,36.54-.56,54.98-3.66,1.43-.24,2.85.63,4.27.38,9.76-1.7,13.76-13.32,19.36-13.55s5.55,4.72,3.6,8.58c7.26-2.45,14.83-6.7,22.85-4.77,3.64,1.69,1.16,5.88,1.74,6.77.17.26,4.42,2.3,4.98,3.74v1.67c-6.68,5.31,3.04,2.44.23,9.53-3.65,9.21-36.16,16.91-45.62,16.89l1.35,12.37c-25.57,10.95-56.99,8.51-84.16,4.43l2.6,17.44c27.58,4.66,54.14,14.78,78.01,29.16.64.09,3.02-4.78,3.46-5.74,2.22-4.81,3.35-10.3,5.81-15.05,17.04-32.84,62.6-36.79,92.22-19.24-.03-24.9-2.15-49.74-9.21-73.61-8.29,7.51-12.84,17.66-15.51,28.31-13.45-5.83-12.96-24.89-3.54-34.88l-31.55,13.13c-2.54-19.94,16.11-35.79,35.49-31.55-6.07-7.51-15.73-10.78-24.99-12.15-4.45-3.11,12.38-8.83,13.9-9.13,12.68-2.48,27.21,2.63,31.15,16.03,12.65-13.92,36.25-13.23,47.53,1.79l-.86,2.14h-13.15c-3.13,0-13.48,4.15-16.1,6.57,18.18.21,31.81,14.2,28.93,32.55-1.26,8.05-8.65-2.43-12.57-5.2-7.49-5.3-15.79-9.76-24.91-11.56,10.16,19.98,15.42,42.05,18.33,64.16.68,5.2.67,10.73.78,15.98l34.14,10.56V3.89ZM392.64,305.59h-71.99c-.38-.5-1.64-1.89-1.64-2.3v-51.93l-.99-.99h-39.45l-.99.99v52.58l-.99.99h-71.33v32.21h64.1c.77,0,10.11-5.52,13.86-6.52,12-3.19,24.08-2.84,35.75,1.62,2.21.84,9.01,5.56,9.56,5.56h63.44l.66-32.21ZM275.61,276.67c-11.75,3.72-22.96,14.4-26.3,26.29h26.3v-26.29ZM321.64,276.67v26.29h26.96c-3.85-12.18-14.81-22.18-26.96-26.29ZM342.02,375.59v15.78l1.33.7c11.79-3.9,13.82,10.51,7.56,18.05-1.98,2.38-8.17,5.82-8.56,6.56-.91,1.75-1.13,7.17-2.36,9.98-2.5,5.71-7.42,10.72-11.12,15.64l35.18,4.61c3.16-5.53-1.61-12.09-.96-17.36.51-4.18,4.39-8.6,4.6-15.15.45-13.75-6.56-16.57-11.32-26.86-6-12.96-5.55-23.22-15.68-35.6-31.37-38.34-79.52-22.19-96.55,19.92-1.53,3.79-1.85,8.82-3.45,12.85-5.38,13.52-16.34,17.98-11.31,35.82.64,2.27,3.49,4.82,3.54,8.33.07,4.8-4.42,8.33-3.28,14.27.05.24,2.53,2.71,1.96,4.42l35.48-4.6-11.31-13.34c-2.57-2.77-2.14-12.94-3.28-14.8-.28-.45-7.08-3.84-8.7-6.09-6.08-8.43-1.46-22.26,10.48-19.63l2.3-16.12c16.78-4.65,32.98-9.45,42.38-25.31,6.92,18.59,27.27,20.48,43.06,27.92ZM264.44,339.77h-13.15l4.96,7.23,8.19-7.23ZM345.3,339.77h-12.49l7.56,8.54,4.94-8.54ZM340.01,375.96c-15.94-4.11-32.62-9.19-42.02-23.7-8.69,14.47-25.18,17.88-40.18,22.77-1.29,9.96-3.8,28.42,4.01,36.05,10.18,9.95,18.6-6.69,29.41-6.4l5.75-13.63c3.26,3.09-4.94,13.1-2.68,15.12s11.38-1.62,16.35-.53c7.1,1.55,17.64,16.47,25.15,1.85.81-1.59,4.11-12.12,4.22-12.99.72-5.72-.44-12.69,0-18.55ZM90.22,374.61c-1.48-19.37-27.91-20.29-39.45-9.21,9.18-.49,21.07,2.58,24.98,11.83-17.11-4.5-38.5,1.7-39.44,21.69,10.77-5.45,24.55-12.09,37.05-10.42,1.21.16,5.33.47,5.02,2.2l-10.52,10.85,10.48,3.93c1.06-2.56,3.83-13.96,7.28-11.49,3.66,2.62,11.08,24.66,9.19,29.92,7.81-4.12,10.58-16.06,6.05-23.46-1.45-2.37-4.96-3.4-4.73-6.76,11.26,3.47,19.81,10.64,26.94,19.71,4.18-9.51,1.1-21.93-8.29-26.87l-12.73-3.68c8.19-6.35,20.51-4.14,30.24-3.63-6.39-11.65-20.98-16.37-33.23-10.54-3.5,1.66-5.36,5.44-8.84,5.95ZM562.59,394.98c3.33-.44,7.42.32,10.85,0-9.15-10.6-26.09-13.38-37.81-5.26-3.82,2.65-4.69,6.27-8.2,7.23-3.64-19.45-26.7-22.84-41.43-13.13,9.85,3.51,22.84,6.85,26.95,17.73-18.42-6.94-37.47,5.77-38.78,24.98,11.38-5.23,22.57-11.9,35.5-12.48-.66,2.96-3.94,4.02-6.04,7.43s-2.46,7.23-4.52,10.6l.08,3.84,7.19,12.96c2.96-11.45,8.42-20.39,16.46-28.91,2.11-1.01,4.52,9.44,4.61,11.14l11.81-1.95-5.91-12.48c14.91,1.32,28.07,9.88,38.78,19.71,3.11-10.85-3.29-23.62-14.11-28.28-5.96-2.57-11.48-1.92-17.42-3.6,5.26-4.98,14.89-8.6,22.01-9.53ZM253.26,412.07c-.76-4.06,3.38-18.66-.14-20.55-13.45-2.24-11.97,19.43.14,20.55ZM342.68,413.39c8.35-.57,13.38-18.79,4.63-20.11-9.34-1.4-2.92,14.87-4.63,20.11ZM76.41,406.82l-9.86-3-5.92,11.54,11.84,3,3.95-11.54ZM340.7,413.71c.32-3.04-.23-6.45,0-9.53-3.22,2.33-3.2,7.09-6.54,9.57-10.57,7.84-17.97-5.49-26.67-6.28-4.81-.44-6.88,1.94-9.84,1.99s-4.86-2.49-7.06-2.53c-6.55-.13-12.42,8.33-19.27,9.07-7.71.83-12.14-2.18-14.79-9.18-10.4,38.12,43.86,54.23,69.37,34.17,7.73-6.08,13.79-17.69,14.79-27.28ZM72.46,420.63l-13.11-3.94-6.61,15.76,15.08,2.62,4.64-14.43ZM163.07,440.46c-5.01-.27-11.18-16.39-15.7-12.99-1.23.92.88,11.13,1.41,13.01.18.63,6.43,9.82,2.27,8.37-4.41-2.24-3.51-11.26-5.41-13.16-1.54-1.54-20.93-9.5-22.92-4.54-2.78,5.71,15.82,6.93,17.73,8.47.74.6.32,1.27.38,2.03-1.82,1.3-20.83-7.84-24.28-2.31-.62,4.26,16.21,7.6,18.55,9.03,1.28.78,1.31.93,1.13,2.48-1.75,1.76-19.78-10.17-20.29-2.45.76,7.32,34.5,16.98,41.58,18.27l5.55-26.21ZM540.52,431.16l-12.44,1.95c2.37,4.08,2.56,9.07,3.29,13.8l13.53-2.61-4.38-13.14ZM447.2,433.12c-7.8,2.57-11.21,12.77-21.02,13.8l5.95,24.26c8.35.94,42.37-7.29,44.4-15.71,1.85-7.67-15.45,2.48-18.8.63-.31-1.71.31-1.17,1.31-1.61,5.49-2.41,15.73-2.14,17.05-9.52-2.53-4.58-22.32,5.9-22.29,2.26,4.16-2.97,9.7-2.68,14.14-4.91,1.83-.92,5.55-2.75,3.42-5.11-2.9-2.49-21.11,3.3-23.49,5.42-1.92,1.7-1.56,14.26-7.23,11.49,4.03-5.61,6.2-14.22,6.56-21.01ZM67.2,437.05l-15.07-2.58-3.73,15.1,16.16,2.6,2.64-15.11ZM272.17,445.76c-3.78-2.36-22.22,1.96-27.8,2.45-26.55,2.33-51.83.04-77.51-7.16-3.16.9-7.93,33.5-8.99,38.4.42,2.53,22.1,6.81,25.56,7.36,19.69,3.13,39.67,3.16,59.28-.51l3.33-19.02,1.88,1.11-28.56,160.6c48.7,13.2,101.29,11.45,150.29.33l-24.27-158.31,2.55-1.1,2.07,17.66c21.1,4.65,44.49,5.34,65.89,1.96,2.41-.38,13.18-2.37,14.64-3.11s1.47-.68,1.63-2.36c.32-3.5-3.43-22.71-4.61-26.99-2.82-2.57-1.1-10.4-5.53-10.78-4.71-.41-20.53,3.45-27.08,3.89-15.48,1.04-29.91-.24-45.26-2.05-6.14-.73-19.11-4.58-24.36-3.83-3.1.45-9.58,12.77-13.62,16-11.17,8.91-25.5,5.19-34.1-5.18-1.24-1.49-4.34-8.69-5.42-9.36ZM545.73,447.01l-13.61,1.97,1.31,14.26,15.41-1.85-3.11-14.39ZM318.34,448.89c-14.11,3.63-27.39,3.61-41.42-.33,1.7,7.66,12.54,14.71,20.05,14.83,10.12.16,16.1-7.14,21.37-14.5ZM42.22,471.23h17.42c.2,0,1.06,1.21,1.56-.41l2.02-16.64c-3.84-.03-11.24-3.03-14.68-2.46-4.18.69-4.65,15.82-6.32,19.51ZM550.66,470.37c-.44-1.57-.11-5.54-1.97-6.27l-15.35,1.22,1.32,15.77,17.13-.95c.8-.58.2-7.52.01-8.62s-1.08-.96-1.14-1.15ZM4.74,481.42v100.24l51.94-10.52c-3.63-6.08-2.18-10.1,1.18-15.98-20.94-35.68,16.9-70.06,52.07-68.81-32.58-14.56-71.65-18.02-105.19-4.92ZM534.65,483.06v15.12l19.42,1.13c2.12-.57-1.06-14.78-1.06-17.51l-18.37,1.27ZM164.12,509.07c-22.37-40.23-127.12-21.11-107.47,38.1.31.94,2.5,6.1,2.98,6.19,3.26-4.51,13.68.16,14.4-.03,3.11-.82,7.12-13.56,7.55-16.78.2-1.5-.9-8.7.41-8.79,3.95,3.17-1.44,7.15,5.17,6.97,4-.1,9.99-3.31,12.53-6.39,1.56-1.89,4.55-11.58,6.96-9.15l.77,10.08c1.37,3.07,12.09-2.8,14.02-4.17,3.48-2.48,6.73-6.86,8.65-10.56,9.31,5.18,16.88,12.33,28.55,8.24l3.9,17.11c.89,3.1,3.97-5.67,4.13-6.39,2.03-8.83,1.94-16.41-2.54-24.45ZM544.28,512.86c-22.67-36.45-84.89-31.35-103.56,8.22-4.75,10.06-20.29,45.14-19.8,54.3.54,10.09,11.81,20.41,21.54,20.59,4.21.08,14.44-4.73,19.87-3.81l-15.8-10.16c-14.13-14.6-7.51-26.49-2.79-42.27.74-2.46,2.38-15.48,3.91-15.97,10.97,3.55,23.04-2.8,32.64-7.96,2.67-1.44,4.1-4.34,7.32-3.85,1.77,8.78,8.27,20.18,18.11,20.75-1.23-1.98-6.21-14.26-5.25-15.45.09-.12,1.43.06,1.96,0,1.3,7.32,6.09,17.33,10.92,22.94,5.45,6.34,13.14,6.35,12.76,17.16,17.38-7.11,22.39,16.95,5.26,22.03-3.69,1.09-8.92-.09-10.53.65-1.98.92-10.22,11.99-15.76,11.84,10,3.34,20.49,6.28,26.05,16.16,6.84-.2,17.9-5.9,20.56-12.41,1.95-4.78,1.59-42.45,1.41-50.42-.23-10.24-3.35-23.49-8.83-32.31ZM590.54,588.88v-75.92c-16.7-8.62-35.64-13.81-54.58-12.49,24.52,20.12,17.59,49.92,19.16,77.8l35.41,10.61ZM240.11,501.47c-24.62,2-48.3,10.8-69.75,22.61-.74,4.05-.91,7.68-2.1,11.7-.94,3.16-4.17,6.99-4.46,8.06-.8,2.96,4.7,14.96,2.69,19.41l63.03-5.33,10.59-56.45ZM427.22,548.53c.76-1.73,3.92-7.61,3.47-9.16-23.44-14.78-49.96-25.06-77.5-29.36l7.23,48.64,60.17,5.26c.96-5.69,4.4-10.32,6.63-15.38ZM486.65,515.27c-11.98,4.77-23.8,13.85-37.41,11.26-2.45,8.94-5.18,17.95-7.35,27-2.17,9.01-2.17,16.51,4.38,24.8,14.6,18.48,61.98,20.85,74.35-1.9,19.35,8.67,29.1-23.66,4.84-16.74-2.76-2.38-1.44-6.89-3.01-9.53-.6-1.01-8.41-6.55-10.17-8.24-1.25-1.2-4.21-6.42-4.56-6.61-1.45-.8-6.16-.64-9.02-2.16-5.45-2.91-11.39-11.67-12.04-17.88ZM157.85,525.86c-10.24,1.03-18.87-1.9-26.55-8.61-5.26,8.34-15.43,16.14-25.52,15.16l-2.09-5.95c-4.78,6.43-11.53,11.22-19.99,10.57-1.46,6.56-3.41,13.5-7.97,18.63-3.36,1.22-9.35-6.17-15.79.66-5.92,6.27-1.43,19.05,6.59,21.08,2.84.72,9.75-.29,11.08.43.28.15,2.05,4.14,3.39,5.48,19.41,19.47,74.52,19.96,81.76-11.62,3.36-14.66-2.61-31.32-4.9-45.83ZM4.74,583.96v253.39h585.8v-185.36c-7.98,14.46-23.89,21.57-38.49,27.6,3.33,15.14.22,30.04-14.1,37.81,9.8,9.55,21.1,19.31,24.35,33.16,17.49-5.35,22.68,19.52,6.26,23.72-4.29,1.1-8.42-.33-10.92.25-1.62.37-3.02,2.97-4.77,3.79-8.09,3.77-31.83,10.23-36.3-.14-5.58,3.32-11.08,5.4-17.76,4.64-4.17-.48-5.4-2.85-7.3-3.15-1.29-.2-6.12.91-9.06.44-10.85-1.74-4.94-5.7-7.08-9.68-.44-.81-6.24-1.65-7.73-3.11-1.38-1.34-1.2-3.47-1.36-3.59-1.57-1.17-27.13,6.4-38.65.86-12.97-6.24,12.54-16.45,16.64-19.92l-.62-36.19c-11.21-3.98-20.01-1.66-17.43-16.58.08-.44,1.12-.48,1.23-.99,2.55-12.75,6.4-24.98,9.26-37.61-15.95,3.63-22.01-7.85-17.8-22.05.54-1.82,6.52-17.52,7.08-18.51,3.16-5.53,9.63-10.37,13.99-14.99-14.94-4.7-24.13-14.96-21.03-31.21l-57.18-5.92,10.42,69.24-29.11,6.92c-2.75,11.3,7.9,11.99,14.53,15.74,21.09,11.92,15.25,26.48-8.63,26.43-7.82-.02-38.41-6.31-42.06-13.22-2.5-4.74.66-5.57.87-8.86.36-5.56-.47-11.19.71-16.71h-30.9c-.81,5.4,3.74,21.66,2.01,25.34-3.08,6.52-32.64,12.57-39.82,12.77-12.77.36-32.19-3.68-20.32-20.31,5.84-8.18,26.25-8.8,23.56-21.16l-25.26-6.16-.67-1.32,11.85-69.34-62.41,5.3c-.8,12.83-9.75,25.34-22.4,28.88l14.13,7.23c12.26,7.58,28.97,43.03,14.1,52.86-5.33,3.52-10.23,2.97-15.73.38.82,5.18,4.32,18.11,2.54,22.6-.51,1.3-2.29.67-2.59,1.47-.22.59-.04,5.85.07,7.01.04.47,1.26.31,1.34,1.42.31,4.79.73,18.22,0,22.41-.37,2.12-4.55,6.13-7.2,5.63l-3.79,28.57c6.92,4.58,19.27,11.17,16.06,21.5-1.83,5.88-24.03,5.25-29.1,5.06-2.34-.09-10.77-2.19-11.73-1.99-.33.07-2.97,3.16-5.26,4.1-8.77,3.61-33.37.12-41.46-4.81s-1.13-17.02-.38-23.88c.91-8.36-.76-18.31,0-26.86l-7.12-1.89c-2.4-8.5,2.31-28.91-.11-36.22-.3-.92-2.19-.74-2.67-1.41-2.39-3.34,1.9-27.42.01-33.22l-5.89,1.96c-5.96-24.1,9.87-48.67,34.82-51.58-4.3-2.43-8.97-4.39-12.81-7.57-1.43-1.19-5.28-6.92-5.68-7.13-1.09-.57-7.55.12-10.31-.55-4.18-1-7.77-6.42-8.29-6.55-1.91-.48-34.23,6.06-38.65,7.19-1.81.46-13.38,3.39-13.66,4.09ZM590.54,590.86l-35.5-9.86c3.31,15.96-7.53,27.28-23.01,28.93,1.19,2.61,3.29,8.17,3.29,10.84v10.85c4.7-5.95,21.94-22.24,28.17-10.74,7.81,14.42-17.32,33.26-25.91,42.3l1.37,2.61c8.01-8.06,16.2-16.88,26.48-22.15,6.94-3.55,18.87-8.99,25.12-2.16v-50.61ZM499.15,593.49c-9.61,1.59-19.31,1.56-28.92,0,2.03,16.35,23.88,12.76,28.92,0ZM468.21,594.18c-19.7-1.89-34.84,7.07-42.7,24.93,5.27-.64,13.7,6.53,18.01,3.87,1.83-1.13,2.85-9.83,4.41-13.18.18-.39,4.54-6.64,4.93-7.06,15.17-16.6,22.62,16.27,30.05,21.76,1.09.81,14.26,7.61,14.91,7.1.69-5.65,2.47-13.55,5.6-18.42.5-.79-.13-1.68,1.64-1.29l-3.94,15.77,30.92,8.92c6.29-21.39-6.98-40.93-29.26-42.47-4.14,2.82-4.92,6.88-9.63,9.49-10.68,5.91-22.69,3.42-24.94-9.41ZM99.2,597.64c-2.91-2.87-13.05.76-16.67,2.3-15.56,6.61-24.48,26.6-21.91,42.84l31.45-9.31-1.86-16.33,2.58.05,2.03,15.06c.53.64,14.08-4.87,15.57-5.79,7.95-4.91,11.31-19.71,22.45-25.54,7.96-4.16,18.08,4.43,19.11,12,.41,3.01-.77,8.86.73,11.1,3.99,5.97,14.42,1.17,19.72.33-4.25-14.42-25.3-34.4-40.96-26.15-1.83.96-4.97,7.67-8.02,9.72-5.78,3.9-12.75,2.31-18.03-1.69-3.71-2.81-4.21-6.67-6.18-8.61ZM127.02,598.75l-25.63-1.97c3.4,11.85,22.13,16.76,25.63,1.97ZM470.49,609c-2.56-3.6-4.96-8.92-10.13-8.94,4.99,3.44,8.07,8.02,9.86,13.79-2.44,2.25-7.83-16.18-14.46-10.5l5.54,5.29c.29,1.96,5.1,6.32,4.33,8.17-1.94,4.66-6.81-11.77-10.17-10.17-4.71,1.67,5.44,23.67,7.54,26.42,10.65,14,35.35,32.98,52.91,20.23,3.21-2.33,11.5-12.99,8.24-16.77-1.37-1.59-20.54-7.05-22.61-6.27-2.43,3,1.73,4.82,4.18,5.98l-.98,1.94c-5.41-5.05-24.68-10.34-27.8-16.21-2.79-5.25-2.13-6.86-6.46-12.95ZM138.86,601.38c-4.66.07-8.97,4.11-12.08,7.3-4.55,4.65-9.17,15.7-12.94,18.61-1.29,1-27.18,11.35-28.72,11.46s-2.1-1.37-4.23-1.11c-4.87.58-9.43,3.84-14.34,4.5,3.02,16.93,11.55,21.36,28.14,16.62,9.38-2.68,36.49-19.78,41.11-27.99.85-1.52,8.37-20.68,8.33-21.84-.03-1.03-.47-1.95-.67-2.94l-1.97.31-8.21,10.86c-1.31.38-1.1-.71-.95-1.6.58-3.31,6.82-8.25,8.51-11.53-5.39-.08-8.23,5.28-10.87,9.18l-1.6-.94c2.31-4.81,5.9-8.3,10.49-10.86ZM149.01,612.94c-.46-1.81-1.47-5.03-2.9-6.3-.28,10.45-7.14,19.19-10.23,28.87,5.68,8.11,21.94,21.63,32.4,18.6,12.96-3.75,6.67-27.49,3.26-27.65l-8.35,1.87,6.57,4.59-18.08-7.22c-1.98,5.82-4.3,4.74-2.88-1.44,1.28-5.59,1.74-5.27.21-11.32ZM455.99,626.12c-1.84-5.63-3.29-11.64-4.19-17.52-3.6,1.98-3.85,13-4.51,14.15-1.05,1.83-15.84,7.05-18.17,10.15-4.05-2.47,8.23-6.75,8.22-7.55-10.67-6.71-13.82-3.12-16.23,8.07-3.84,17.83,7.2,22.76,21.86,14.62,7.05-3.92,10.61-9.97,15.75-15.83,1.14-2.19-2.51-5.46-2.72-6.11ZM557.92,638.43c3.19-4.89,9.77-18.78-.57-19.38-12.35-.72-32.2,28.2-32.51,40.12l9.81,3.69c8.29-7.47,17.1-14.97,23.27-24.43ZM498.49,660.52c-5.15-2.59-10.73-3.91-15.73-6.94-8.59-5.2-14.85-14.25-23.05-20-4.47,8.12-12.02,14.79-20.46,18.83-2.69,16.28-10.47,31.59-10.78,48.21,2.5,5.34,43.32,10.7,50.31,8.23l-5.75-12.01c-1.27-15.4,12.47-29.89,25.46-36.32ZM153.79,653.49c-8.14-3.9-14.02-10.49-20.52-16.48-16.26,12.86-47.76,38.94-66.06,16.95l-.55,21.25c1.33,3.5,27.98,6.77,32.41,7.04,19.54,1.17,40.14-.5,58.87-5.95l-4.14-22.81ZM256.65,666.33c1.92,1.07,17.93-4.65,19.28-6.46l-.28-20.09-29.63-2.26c1,7.49-4.75,10.04-10.51,12.83l12.43,5.96,8.71,10.02ZM340.69,637.54l-29.48,2.71c-1.63,5.95-1.61,12.5-1.48,19.17l20.42,7.68c3.82-7.01,9.95-14.41,18.44-15.11-1.29-2.75-5.4-3.65-6.73-6.74-.88-2.03-.87-5.45-1.17-7.71ZM529.13,641.87c1.54-3.25-1.14-4.11-2.03-3.03-.32,8.89-7.28,11.87-11.19,17.08-.54.71-1.45.83-.33,1.67l7.24.98c.16-6.19,3.79-11.38,6.31-16.69ZM587.73,641.65c-4.74-4.46-18.83,2.39-23.7,5.2-9.43,5.45-16.94,13.72-24.45,21.4-19.19-13.01-39.6-12.45-55.15,5.5-19.53,22.54-6.24,38,18.66,44.29,3.82.97,7.91,1.4,11.84,1.64v1.97s-20.29-3.2-20.29-3.2c-7.5,14.04-5.73,30.65-6.12,46.16-1.86,1.29-3,.23-5.62,1.61-3.59,1.89-9.32,9.58-2.83,10.64.31-.35-.39-6.29,2.63-5.91-2.38,7.44,3.38,11.05,5.59,2.64l1.31,4.57c1.06.03,10.26-10.57,11.06-12,.89-1.61,4.65-13.8,4.41-15.23-.42-2.49-15.64-12.78-8.89-18.76.32,7.19,4.97,11.85,9.86,16.43l5.01-11.42,1.89-.07-10.6,30.14c-1.9,2.62-12.81,12.04-5.19,12.47-.37-2.14,2.61-7.97,4.58-4.54-.13,1.49-3.97,4.28-2.6,5.62.16.16,4.43.15,4.6,0s-.16-4.12.99-4.61l1.65.35-.66,3.6c10.15.09,10.54-12.73,14.44-20.09.64-1.2,5.8-8.93,6.58-9.82,2.42-2.77,13.72-9.9,15.79-4.92-10.8.63-19.92,9.04-16.8,20.42,1.33,4.85,4.81.59,5.63,4.56-5.88-.83-12.77,2.02-12.03,9.02l3.45,1.47,2.99-5.87c2.39,1.83-2,3.82-.99,6.55,51.99,3.21,41.22-44.43,8.96-63.04-2.28-2.22,5.19-3.93,7.15-5.32,6.08-4.32,9.55-13.88,10.91-20.68.44-2.2-4.35-12.44-3.07-14.19,12.14-3.29,41.27-17.77,40.53-32.48-.05-.96-.89-3.5-1.53-4.11ZM251.55,662.9c-6.31-7.14-19-15.07-27.21-5.99,5.02.75,10.54,1.91,14.67,5.05,2.36,1.8,5.08,6.98,5.5,7.13,2.62.9,7.89-1.21,10.73-1.34-.65-2.21-2.35-3.34-3.68-4.85ZM359.76,655.94c-10.01-7.16-23.05,1.53-26.94,11.46.34,1.13,9.27,2.57,10.08,2.28.64-.23,5.53-8.12,9-10.11,1.36-.78,8.9-2.13,7.85-3.63ZM231.56,669.73h9.53l.71-1.34c-1.06-6.21-25.02-16.34-22.65-2.04,5.36,2.88,3.11-2.45,7.14-3.19-5.58,12.01,5.52,1.71,6.57,2.63l-1.31,3.94ZM364.86,660.05c-5.39-4.34-18.01,4.18-18.9,10.34l8.54-.66-2.62-3.27c5.04-.77,3.95,5.28,9.88,2.3l-2.65-5.58c4-.7,3.92,1.4,5.24,4.33,4.62,1.56,1.77-6.43.51-7.45ZM217.76,668.43c6.76,11.8,30.92,7.33,42.08,4.27,2.63-.72,22.18-6.8,18.4-11.51-18.38,9.17-40.48,14.32-60.48,7.24ZM367.65,669.08c-19.91,7.86-40.38-.31-59.16-7.23-.9,3.74,2.71,5.26,5.47,6.68,10.37,5.35,40.97,11.78,50.74,5.15.75-.51,3.93-3.63,2.95-4.6ZM154.64,679.59c-27.14,6.25-57.05,6.77-84.15,0l-.53,32.4c.63,1.81,2.81,1.89,4.32,2.25,6.51,1.57,34.28,3.46,39.78,1.34,4.51-1.73-1.37-22.54,9.34-21.55.52,2.63-3.09,2.21-3.98,4.55-.68,1.77-2.12,15.36-.98,16.2,5.05.87,33.83.22,36.05-3.15l.14-32.06ZM468.91,711.8l-23.01-2.63.08,36.38c7.46,6.3,12.48,8.27,22.2,4.96l.74-38.71ZM486.65,749.27c-.46-10.95,1.82-21.61,5.29-31.89l-10.87-6.89.97,36.48,4.6,2.3ZM477.45,711.14l-5.87.7c1.32,2.84-1.33,6.74-1.41,7.48-1.2,11.6.99,25.34.05,37.17l10.52-5.92-3.29-39.43ZM148.06,715.75l-28.26,1.31c-.51,1.93,1.21.74,1.37,2.25.75,7.09.27,18-1.35,24.67,7.93,3.14,16.82,2.45,24.82-.12l3.42-28.11ZM107.31,718.37l-29.58-1.97-1.28,28.88c8.53,2.65,17.8,2.81,26.49.76l4.37-27.67ZM105.45,747.18l10.07,6.67.88-1.08c2.38-11.96,2.9-24.16,1.41-36.37l-8.46,2.04-3.9,28.74ZM150.03,747.96c-5.09-3.68-8.26-.24-13.45.01-5.48.26-11.08.2-16.42-1.25-6.53,14.46,3.25,15.92,15.09,16.33,8.79.3,17.29-1.91,25.96-2.62-4.64-13.26-13.41-11.05-23.67-5.26-2.89-2.74,11.68-7.07,12.48-7.22ZM107.96,750.59c-9.78-4.37-20.72,1.72-31.17-3.24l-2.95,12c14.2,5.83,30.08,9.18,45.31,5.68-1.61-6.7-3.55-11.58-11.41-11.09-4.46.28-6.75,3.16-10.94,3.2-2.39-2.01,9.51-5.01,10.18-5.27.75-.29,1.25.58.99-1.29ZM468.24,752.56c-3.57.91-7.68,2.33-11.43,1.92-5.19-.57-8.85-6.81-13.04-6.4-2.68.26-16.57,8.95-17.41,11.23l-.23,2.02c2.17,5.01,32.25,2.78,37.64.9,6.23-2.17,4.51-4.01,4.46-9.66ZM486.66,751.89c-5.05-1.84-19.35,7.78-18.28,12.73,7.95,6.2,8.36,2.95,14.15-.75,1.25-.8,4.13-.6,4.13-.81v-11.17ZM559.64,772.92c8.29,1.47,18.82-3.98,16.65-13.68-1.21-5.42-8.04-9.86-13.04-6.04-.18,7.1-.57,13.19-3.61,19.72ZM521.09,762.65c-.78,1.16-4.13,8.45-1.87,8.96,7.1-2.32,3.8-5.24,4.25-11.18-.5.49-2.11,1.81-2.38,2.21ZM119.13,767.02c-15.2,3.43-31.05.19-45.35-5.26-4.68,5.26,25.35,9.74,27.29,9.84,4.77.25,17.12,1.21,18.06-4.58ZM161.21,762.41c-13.19,2.44-26.89,3.35-40.1.66-.48,4.77,11.03,5.04,14.81,5.24,1.8.09,30.51-.37,25.29-5.9ZM517.55,776.21l.66-3.29-1.95,2.97,1.3.32Z"/>
    <rect x=".14" y="841.29" width="595" height=".66" fill="#fff"/>
    <path d="M590.54,3.89v506.12l-34.14-10.56c-.12-5.25-.1-10.78-.78-15.98-2.91-22.11-8.17-44.18-18.33-64.16,9.12,1.81,17.42,6.27,24.91,11.56,3.92,2.77,11.31,13.25,12.57,5.2,2.88-18.35-10.75-32.34-28.93-32.55,2.63-2.41,12.97-6.57,16.1-6.57h13.15l.86-2.14c-11.28-15.03-34.88-15.71-47.53-1.79-3.94-13.39-18.47-18.51-31.15-16.03-1.52.3-18.35,6.02-13.9,9.13,9.26,1.36,18.92,4.63,24.99,12.15-19.38-4.24-38.03,11.61-35.49,31.55l31.55-13.13c-9.42,9.99-9.91,29.05,3.54,34.88,2.67-10.65,7.22-20.8,15.51-28.31,7.06,23.86,9.18,48.71,9.21,73.61-29.62-17.55-75.18-13.6-92.22,19.24-2.46,4.74-3.59,10.24-5.81,15.05-.44.96-2.82,5.83-3.46,5.74-23.87-14.38-50.43-24.49-78.01-29.16l-2.6-17.44c27.16,4.08,58.59,6.53,84.16-4.43l-1.35-12.37c9.46.03,41.97-7.68,45.62-16.89,2.81-7.09-6.92-4.22-.24-9.53v-1.67c-.56-1.44-4.81-3.48-4.98-3.74-.58-.88,1.9-5.08-1.74-6.77-8.03-1.94-15.6,2.32-22.85,4.77,1.95-3.87,1.73-8.8-3.6-8.58-5.6.23-9.61,11.86-19.36,13.55-1.42.25-2.85-.62-4.27-.38-18.43,3.1-36.15,5.27-54.98,3.66l-1.73-17.02c11.89-21.22,2.08-26.17-6.06-42.23-2.49-4.91-2.7-11-4.58-15.77-3.13-7.98-7.02-15.74-12.47-22.38l6.79-10.74h45.04l.02-35.84-42.76-1.29c-4.88-12.65-16.13-24.21-29.5-28.01-.81-3.99,1.35-24.35-1.39-25.89l-42.93-.19c-1.54.52-1.55,1.44-1.81,2.79-.64,3.37.73,22.41,0,23.33-13.43,3.38-24.6,15.18-28.87,27.99l-42.76.63c-2.2,1.24-1.71,31.67-.39,35.89l44.1.61,6.92,8.9-10.7,17.55c-2.53,23.15-28.72,38.95-12.95,62.6-3.56,4.58-3.95,12.73-2.64,18.73-8.19.11-16.44-.49-24.56-1.4-8.89-1-32.3-4.41-39.9-7.43-6.29-2.5-9.54-18.46-18.69-12.19l-.34,5.91c-7.92-1.91-17.72-9.03-24.98-2.14l1.97,5.42c-7.45-.56-8.84,2.87-4.6,8.54-3.14.01-3.74,2.02-3.16,4.79,1.89,9.03,35.27,18.14,43.91,19.55l-2.5,12.02c.94,2.76,16.16,5.97,19.59,6.71,21.8,4.7,45.17,5.19,67.06.99l-2.06,11.08c-24.92,1.37-47.91,11.66-70.25,21.78.12-19.9-21.63-30.75-38.62-34.02-12.33-2.37-17.3-3.28-29.4-6.76-12.65-3.64-25.23-7.6-38.49-8.52,3.24-25.73,9.66-50.66,20.39-74.27,3.67-2.19,11.31,25.92,9.85,28.92,10.98-2.39,13.79-18.5,9.21-27.61,9.63,3.33,14.05,12.29,21.02,18.4,7.63-14.5,1.52-31.86-15.11-35.16,7.53-3.63,16.61-1.94,24.56-.4l1.1-1.61c-5.96-17.14-28.87-20.89-42.09-9.51-6.75-19.39-33.07-17.51-45.39-4.92,8.37,3.02,18.07.97,24.99,8.87-14.47-3.61-33.46,3.55-37.27,18.94-.47,1.89-2.23,8.33.75,8.68,1.03.12,14.8-7.81,18.64-9.01,2.66-.83,20.03-5.2,20.5-1.84-21.4,20.71-27.44,52.71-34.83,80.53l-34.85,6.57V3.89h585.8ZM105.59,46.36c-9.01-15.26-37.77-14.43-52.25-8.67l.88,57.4c15.13,5.43,22.14,1.99,19.55-14.95,19.4.7,38.2-6.42,34.13-29.19-.51-2.87-1.28-2.84-2.31-4.59ZM160.56,92.3c1.35-6.88-1-17.95,0-25.31,4.15,4.66,13.07,25.67,16.92,28.29,6.16,4.19,19.39,2.58,20.54-6.94.82-6.79,1.78-45.38.24-50.17s-18.63-6.84-18.63,2.85v20.7c-5.94-4.82-11.2-22.51-17.95-25.77-4.35-2.1-17.62-2.61-20.43,1.61-3.5,5.25.3,46.18-.88,55.21,1.29,5.19,14.08,4.34,18.19,2.77.81-.55,1.83-2.38,2-3.26ZM302.84,55.55c-1.41-4.03-4.54-17.21-7.27-19.37-3.77-2.98-21.68-3.06-25.38-.1-.37.29-4.24,6.75-4.55,7.5-4.08,9.96-11.89,33.3-14.47,43.38-1.38,5.38-.94,8.53,5.08,9.56,9.7,1.67,16.38-.2,16.75-11.09l17.31-.08c2.44,11,5.32,12.45,16.54,11.23,4.86-.53,7.71-1.36,7.38-6.74-.38-6.27-8.92-27.19-11.4-34.3ZM337.41,92.95c1.4-5.7-1.04-16.99,0-23.33,1.07-.1,1.96.37,2.66,1.14,4.55,5.06,9.99,22.53,16.59,25.3,4.7,1.97,14.14,1.69,17.49-2.53.17-.22,2.05-4.73,2.1-5.1,2-14.92-1.45-34.76-.25-50.19-2.21-4.62-15.57-4.84-17.87-1.48-2.8,4.09.5,20.08-2.31,25.61-4.17-6.45-11.93-25.21-18.94-27.41-4.31-1.35-15.99-1.63-17.83,3.48-1.32,3.67-1.47,47.18-.65,52.46.22,1.45,1,4.14,2.3,4.93,4.04,1.45,15.37,2.55,16.7-2.9ZM506.63,49.01c-23.24-41.53-87.15,7.75-51.55,40.68,25.12,23.24,72.37-3.48,51.55-40.68ZM112.76,93.75c2.85,4.25,18.4,5.26,20.55-1.09l-.06-55.87c-2.11-3.67-19.75-2.55-21.22,1.73,0,7.86-2.17,50.89.74,55.24ZM240.77,51.87h15.45c3.62-2.71,3.11-14.78-.59-16.5-2.18-1.01-43.68-1.22-48.09-.62-9.94,1.35-6.74,17.12-3.26,17.12h14.14c1.42,7.84-2.3,37.33,1.03,42.68,2.47,3.96,21.33,4.08,21.33-2.26v-40.42ZM440.91,56.87c-4.9-16.58-18.57-21.21-34.76-22.12-4.14-.23-20.59-.14-23.36,2.33-2.62,2.34-1.3,49.01-.53,55.74,3.98,7.57,31.17,4.2,38.5,1.95,17.58-5.41,25.34-20.34,20.15-37.89ZM550.69,59.49c-2.17-2.57-2.59-9.03-7.66-8.18-4.12.69-4.41,7.41-6.22,9.14-2.75,2.63-10.3.91-13.01,4.56-3.13,5,7.28,8.92,7.9,10.49.51,1.27-3.81,9.43-.74,11.93,3.64,2.96,10.5-3.32,13.2-3.4,3.18-.09,11.54,8.06,14.84,2.21,2.47-4.38-2.28-9.82-1.89-10.98.69-2.06,13.39-8.21,5.29-12.04-4-1.89-8.21.41-11.72-3.74ZM200.28,116.01c-8.3-14.55-34.79-13.6-48.67-8.99-1.65,7.3-3.14,53.06-.28,56.28,2.37,2.67,11.85,2.92,14.97,1.79,6.52-2.38,1.66-14.53,4.07-16.31,19.13.22,34.88-5.56,32.18-27.49-.37-3.02-1.09-3.21-2.28-5.29ZM244.35,114.69c-.86-1.92-1.91-5.83-3.01-7.18-3.19-3.9-18.3-3.67-22.76-1.89-6.34,2.52-7.92,17.2-10.09,23.3-2.55,7.17-9.8,22.06-10.81,28.76s1.75,7.54,7.9,7.94c10.32.66,12.24-1.34,14.57-11.23l16.67.05c1.41,13.27,13.36,14.18,22.86,7.73,1.53-3.27-.98-4.34-1.26-5.36-3.73-13.52-8.32-29.38-14.06-42.11ZM353.47,112.74c-3.7-7.44-3.03-7.63-12.45-8.27-21.01-1.43-17.18,9.59-22.56,24.71-2.63,7.4-8.49,19.21-10.15,26.69-2.19,9.83,2,10.81,11.73,9.75,7.09-.77,7.9-4.27,9.16-10.56l16.38-.68c1.88,2.15,1.75,5.53,3.01,7.61,3.4,5.59,15.49,4.53,20.19.78,2.54-3.45-.78-5.13-1.21-6.64-3.74-13.17-8.12-31.39-14.09-43.38ZM112.84,123.91c-1.65-4.37-4.05-15.48-7.81-17.51-3.44-1.86-20.22-2.17-23.18.23s-8.65,23.53-10.24,28.21c-1.81,5.29-10.79,24.4-8.41,28.5,1.72,2.97,12.25,2.7,15.22,1.97,4.62-1.13,5.99-6.81,6.52-10.9l16.13-.04c3.02.69.14,9.86,8.58,11.17s15.51.97,14.44-8.53c-.86-7.68-8.28-25.21-11.26-33.09ZM302.24,148.49c-4.97-1.05-13.36.78-18.74,0v-38.45c0-7.31-19.24-5.46-20.75-1.02.75,15.18-2,33.55-.32,48.37.29,2.58.72,5.29,3.12,6.74,3.4,2.04,35.83,2.3,38.8.34s3.53-14.78-2.12-15.98ZM383.08,110.07c-2.51-7.9-24.95-7.47-20.38,3.62l17.82,49.23c7.46,4.89,21.24,4.6,25.98-4.16,4.17-7.7,9.47-27.71,12.35-36.94,1.26-4.04,6.45-10.87,1.58-15.23-3.89-.91-13.5-2.96-16.66.13-1.86,1.83-8.85,31.64-9.83,36.52l-10.87-33.16ZM477.67,123.99c-3.54-23.43-33.47-20.76-51.02-16.28l-.51,54.78c14.15,8.2,22.42,1.64,19.1-14.34l.99-.97c4.21-.94,8.98,16.13,14.15,18.07,3.84,1.44,14.71.83,16.13-4.23,1.45-5.13-7.24-13.12-8.97-18.06,3.43-2.26,7.13-4.43,8.7-8.48,1.38-3.55.5-6.21,2.58-8.65.23-1.81-1.14-1.71-1.16-1.84ZM528.32,121.31c-1.66-4.18-2.83-12.91-7.02-15.01-3.57-1.79-19.66-1.96-22.78.5s-10.76,30.7-12.43,36.18c-1.28,4.19-5.62,11.84-5.87,16.56-.23,4.21,1.54,5.37,5.51,5.99,10.33,1.61,14.3-1.09,16.14-11.02,3.01.3,15.07-1.01,16.68.56,1.31,1.27.55,8.3,5.17,9.93s18.52,1.86,18.04-5.47c-.44-6.77-10.58-31.03-13.44-38.22ZM47.03,217.3c4.64,6.91,15.56,11.93,23.76,12.72h457.63c36.86-3.43,38.24-49.27,2.6-54.57l-460.89-.03c-20.48.98-35.29,23.74-23.1,41.88ZM251.53,259.34c-1.18-1.27-8.98-11.32-10.76-9.61.17,2.38,13.64,15.8,15.11,14.45-.12-2.44-3.09-3.47-4.36-4.84ZM359.11,249.72c-1.26-.24-1.78.23-2.67.93-1.4,1.1-10.43,10.14-11.5,11.5-.7.89-1.17,1.42-.93,2.67,1.52,1.51,16.03-14.26,15.11-15.11ZM426.43,255.38c-8.42-11.81-9.8,4.76-12.21,6.05-1.94,1.05-10.52-.5-12.05,2.75-2.77,5.45,6.36,7.24,7.3,10.49.62,2.15-3.36,11.08.27,12.87,3.01,1.49,10.16-4.06,12.15-4.05,2.23,0,10.98,6.83,13.54,3.26,2.28-3.29-1.34-9.76-.63-12.25.43-1.5,6.69-5.34,7.18-6.19,4.44-7.71-10.31-5.61-12.41-6.89-.29-.18-1.96-4.38-3.15-6.05ZM98.4,267.82c-13.24-20.29-41.9-15.81-45.67,8.19-28.95-6.64-32.46,34.58-2.95,31.55,2.42-.25,8.47-3.28,9.11-3.17.42.07,5.13,3.75,7.21,4.61,9.87,4.04,16.94,3.3,26.54-.65,1.65-.68,3.28-3.18,5.16-3.39,2.14-.23,6.7,1.96,9.84,2.01,30.47.5,21.75-43.96-6.9-32.92-.09-2.52-1-4.17-2.34-6.22ZM193.85,275.78c9.08-14.96-8.95-26.04-19.18-13.57-12.83-12.15-30.18.49-18.72,15.45,1.87,2.45,15.43,12.42,18.27,12.69,4.51.43,17.35-10.82,19.63-14.57ZM238.73,283.97c-4.65-.87-11.17-5.8-15.24-6.79-.75-.18-2.22-.92-2.43.49-.18,1.2,16.96,8.8,17.74,8.2l-.07-1.9ZM361.74,286.52l17.08-8.2c-.12-1.5-3.21-.23-3.92.02-1.19.41-11.53,5.28-12.03,5.72-.96.85-1.49.65-1.14,2.46ZM529.15,286.11c-13.34-15.34-47.02-9.29-47.73,13.95-18.38-3.89-35.58,16.52-18.74,30.49,5.49,4.55,11.99,5.37,18.88,4.45,2.39-.32,8.25-3.1,8.72-3.1,1.16,0,8.83,5.57,12.8,6.25,5.18.89,10.48.59,15.39-1.09,1.93-.66,8.04-5.09,8.6-5.13,2.9-.24,10.49,4.06,18.37,3.17,32.06-3.61,18.01-48.22-10.77-34.11-.18-4.49-2.56-11.49-5.5-14.88ZM141.66,356.03c3.43,3.58,12.44-3.67,14.51-3.64,2.5.04,8.57,6.06,12.27,4.16s-.24-10.08.15-12.34c.43-2.51,4.4-3.53,6.04-5.8,6.51-8.97-8.82-6.68-11.46-8.15-1.82-1.01-2.69-10.95-7.62-10.15-4.41-.64-5.54,8.74-8.13,10.15-2.88,1.56-9.97-.15-13.15,4.27,2.37,4.32,4.76,6.57,9.14,8.96,1.01,2.67-4.82,9.34-1.74,12.55ZM448.98,354.43c-3.84-5.67-14.5-4.78-18.53.45-8.5-8.61-21.92-4.62-19.89,8.72.79,5.21,15.21,19.56,20.38,18.81.69-.1,10.74-6.6,11.7-7.44,5.13-4.55,10.87-13.85,6.34-20.53ZM238.13,352.92c-2.35-.43-20.55,9.91-19.06,11.17l3.1-.51,15.96-10.65ZM379.49,366.06c1.33-1.22-18.47-12.72-19.72-11.82-.41,2.24.18,1.44.92,2.06,1.48,1.23,17.95,10.54,18.8,9.76Z" fill="#fff"/>
    <path d="M4.74,583.96c.29-.7,11.85-3.62,13.66-4.09,4.42-1.12,36.74-7.66,38.65-7.19.52.13,4.11,5.55,8.29,6.55,2.76.66,9.22-.02,10.31.55.4.21,4.25,5.94,5.68,7.13,3.84,3.18,8.52,5.14,12.81,7.57-24.96,2.91-40.78,27.48-34.82,51.58l5.89-1.96c1.89,5.8-2.4,29.88-.01,33.22.48.67,2.37.49,2.67,1.41,2.42,7.31-2.28,27.72.11,36.22l7.12,1.89c-.75,8.55.92,18.5,0,26.86-.75,6.86-7.89,18.85.38,23.88s32.69,8.42,41.46,4.81c2.29-.94,4.93-4.03,5.26-4.1.96-.2,9.39,1.9,11.73,1.99,5.06.19,27.27.82,29.1-5.06,3.21-10.33-9.15-16.92-16.06-21.5l3.79-28.57c2.66.5,6.83-3.51,7.2-5.63.74-4.19.32-17.62,0-22.41-.07-1.12-1.29-.95-1.34-1.42-.11-1.15-.3-6.41-.07-7.01.3-.81,2.08-.18,2.59-1.47,1.78-4.48-1.73-17.42-2.54-22.6,5.5,2.59,10.4,3.14,15.73-.38,14.87-9.82-1.84-45.28-14.1-52.86l-14.13-7.23c12.66-3.54,21.61-16.05,22.4-28.88l62.41-5.3-11.85,69.34.67,1.32,25.26,6.16c2.69,12.36-17.73,12.98-23.56,21.16-11.86,16.63,7.55,20.67,20.32,20.31,7.19-.2,36.75-6.25,39.82-12.77,1.74-3.68-2.81-19.94-2.01-25.34h30.9c-1.18,5.53-.34,11.15-.71,16.71-.21,3.29-3.38,4.12-.87,8.86,3.65,6.91,34.24,13.21,42.06,13.22,23.88.05,29.71-14.52,8.63-26.43-6.63-3.75-17.29-4.43-14.53-15.74l29.11-6.92-10.42-69.24,57.18,5.92c-3.1,16.25,6.09,26.51,21.03,31.21-4.36,4.62-10.83,9.45-13.99,14.99-.57.99-6.54,16.69-7.08,18.51-4.21,14.19,1.85,25.68,17.8,22.05-2.86,12.63-6.71,24.85-9.26,37.61-.1.51-1.15.55-1.23.99-2.59,14.92,6.22,12.6,17.43,16.58l.62,36.19c-4.09,3.47-29.61,13.68-16.64,19.92,11.52,5.54,37.09-2.03,38.65-.86.15.11-.02,2.25,1.36,3.59,1.49,1.45,7.3,2.3,7.73,3.11,2.15,3.98-3.76,7.94,7.08,9.68,2.94.47,7.77-.64,9.06-.44,1.9.3,3.12,2.67,7.3,3.15,6.68.76,12.18-1.32,17.76-4.64,4.47,10.37,28.21,3.92,36.3.14,1.75-.82,3.15-3.42,4.77-3.79,2.5-.57,6.63.85,10.92-.25,16.42-4.2,11.24-29.07-6.26-23.72-3.25-13.85-14.55-23.62-24.35-33.16,14.32-7.77,17.44-22.66,14.1-37.81,14.6-6.04,30.51-13.15,38.49-27.6v185.36H4.74v-253.39ZM46.14,688.14c-3.19-4.49-8.64-6.93-13.74-3.56-5.45,3.6-2.15,9.64-2.73,10.72-.48.89-7.89,1.06-7.84,8.29s7.84,6.71,8.48,7.63c.34.49-.1,3.74.35,5.24,1.75,5.73,10.16,7.17,14.17,2.58l1.32,23c-4.6-8.19-12.21-15.19-22.35-14.46-1.17,16.03,14.21,24.71,28.9,20.68,7.37-2.02,17.81-10.37,14.07-18.61l-6.97.07-11.01,7.06-.66-15.11c5.04,1.37,9.32.22,11.02-5.08.43-1.35-.18-4.14.22-4.71.92-1.3,7.61.57,6.52-8.95-.69-6.01-4.7-4.77-5.66-6.21-.26-.39.66-4.84.24-6.78-1.37-6.42-11.69-7.62-14.33-1.79ZM401.19,729.88c.6,3.78-.44,8.87,0,12.82-5.52-6.56-15.66-12.94-24.02-9.19,2.05,26.2,51.44,24.07,49.01-3.3-10.06-.2-16.84,5.56-22.35,13.14l-1.32-17.08c7.14,2.4,8.65-8.13,9.21-8.55.21-.15,2.83.91,4.19.65,9-1.71,9.64-11.66,1.06-14.46,9.57-8.56-.79-16.41-10.51-11.82-1.86-10.35-16.72-8.89-16.45,1.31-10.3-4.45-17.14,9.77-7.23,14.48-8.46,9.81,1.97,19.15,11.83,11.82.98,5.99,5.59,3.94,6.58,10.19ZM180.94,734.48c.89,2.29-.66,10.44,0,13.47-3.35-1.5-4.91-5.31-7.97-7.48-1.9-1.35-8.55-4.77-10.64-4.24-6.43,9.09,4.52,19.81,13.74,21.51,8.91,1.65,20.55-2.06,25.81-9.57,11.74-16.76-13.38-8.25-18.3-.89.22-3.34-1.96-9.97-.06-12.87.71-1.08,3.56-1.52,5.02-2.86,1.99-1.83,2.06-4.49,2.27-4.65.45-.33,7.15,2.17,10.86-1.29,3.3-3.09,2.03-10.59-2.32-12.18,8.67-8.44,1.12-17.8-9.86-14.12.13-10.23-15.86-10.84-15.13,0-10.39-4.5-20.37,8.2-9.2,13.81-10.16,7.82-2.32,18.4,9.2,13.13-1.76,4.83,6.33,7.58,6.58,8.22ZM280.53,736.47c-3.84-3.84-5.89-8.34-12.8-7.58.5,2.69,4.76,2.32,7.26,4.23,2.87,2.19,4.35,9.84,7.85,7.93.75-1.84,9.33-13.57,11.07-9.09l.11,8.77,2.52-.11c4.03-16.16-9.04-14.23-13.71-2.53-1.36.32-1.46-.78-2.3-1.62Z" fill="#fff"/>
    <path d="M272.17,445.76c1.08.67,4.18,7.87,5.42,9.36,8.6,10.37,22.93,14.09,34.1,5.18,4.04-3.23,10.52-15.55,13.62-16,5.25-.75,18.22,3.1,24.36,3.83,15.35,1.81,29.78,3.1,45.26,2.05,6.55-.44,22.37-4.3,27.08-3.89,4.43.39,2.71,8.21,5.53,10.78,1.18,4.29,4.93,23.49,4.61,26.99-.16,1.68-.21,1.63-1.63,2.36s-12.22,2.73-14.64,3.11c-21.4,3.38-44.79,2.68-65.89-1.96l-2.07-17.66-2.55,1.1,24.27,158.31c-49,11.12-101.59,12.87-150.29-.33l28.56-160.6-1.88-1.11-3.33,19.02c-19.61,3.67-39.59,3.64-59.28.51-3.46-.55-25.14-4.84-25.56-7.36,1.06-4.9,5.84-37.5,8.99-38.4,25.69,7.2,50.96,9.48,77.51,7.16,5.58-.49,24.02-4.81,27.8-2.45Z" fill="#fff"/>
    <path d="M392.64,305.59l-.66,32.21h-63.44c-.55,0-7.36-4.72-9.56-5.56-11.67-4.45-23.75-4.81-35.75-1.62-3.75,1-13.09,6.52-13.86,6.52h-64.1v-32.21h71.33l.99-.99v-52.58l.99-.99h39.45l.99.99v51.93c0,.41,1.26,1.8,1.64,2.3h71.99Z" fill="#fff"/>
    <path d="M587.73,641.65c.65.61,1.48,3.15,1.53,4.11.74,14.71-28.39,29.19-40.53,32.48-1.28,1.75,3.5,11.99,3.07,14.19-1.35,6.8-4.82,16.36-10.91,20.68-1.96,1.39-9.43,3.1-7.15,5.32,32.26,18.61,43.04,66.25-8.96,63.04-1.02-2.73,3.38-4.72.99-6.55l-2.99,5.87-3.45-1.47c-.74-7,6.15-9.85,12.03-9.02-.82-3.97-4.3.29-5.63-4.56-3.12-11.38,6-19.79,16.8-20.42-2.07-4.97-13.36,2.16-15.79,4.92-.78.89-5.95,8.63-6.58,9.82-3.9,7.36-4.3,20.18-14.44,20.09l.66-3.6-1.65-.35c-1.16.48-.82,4.44-.99,4.61s-4.43.17-4.6,0c-1.37-1.35,2.48-4.13,2.6-5.62-1.97-3.43-4.95,2.4-4.58,4.54-7.62-.42,3.29-9.84,5.19-12.47l10.6-30.14-1.89.07-5.01,11.42c-4.89-4.58-9.54-9.23-9.86-16.43-6.75,5.98,8.47,16.27,8.89,18.76.24,1.43-3.52,13.62-4.41,15.23-.8,1.43-10,12.03-11.06,12l-1.31-4.57c-2.21,8.41-7.98,4.8-5.59-2.64-3.02-.38-2.32,5.56-2.63,5.91-6.5-1.06-.76-8.75,2.83-10.64,2.62-1.39,3.77-.32,5.62-1.61.38-15.51-1.39-32.12,6.12-46.16l20.29,3.2v-1.97c-3.93-.24-8.02-.68-11.84-1.64-24.9-6.29-38.19-21.75-18.66-44.29,15.55-17.95,35.97-18.51,55.15-5.5,7.5-7.69,15.02-15.95,24.45-21.4,4.87-2.81,18.96-9.67,23.7-5.2ZM572.12,651.99c-3.83.04-7.53,3.31-10.52,5.58-1.74,1.32-17.1,15.33-15.77,16.76l26.29-22.34ZM491.07,679.04c-2.55.79-3.26,6.13-1.83,8.15,5.15,2.09,7.99-4.47,4.65-7.93-.86-.45-1.9-.49-2.82-.21ZM500.91,695.86c3.75-5.68-4.93-7.78-5.71-3.4-.12.7,3.12,13.28-3.12,7.35-.74-.71-.81-5.78-2.77-2.18.26,1.46,1.18,4.01,2.62,4.62.89.38,9.81,2.44,10.79,2.27,1.48-.25,3.42-1.2,3.66-2.91-1.54-1.92-1.87.98-4.25,1.03-3.6.07-5.2-2.63-3.19-5.82.72-1.14,1.81-.72,1.97-.97Z" fill="#fff"/>
    <path d="M544.28,512.86c5.48,8.82,8.61,22.07,8.83,32.31.18,7.96.54,45.64-1.41,50.42-2.66,6.52-13.72,12.21-20.56,12.41-5.56-9.88-16.06-12.82-26.05-16.16,5.54.15,13.78-10.92,15.76-11.84,1.6-.74,6.84.45,10.53-.65,17.13-5.08,12.12-29.14-5.26-22.03.37-10.81-7.31-10.82-12.76-17.16-4.83-5.61-9.62-15.62-10.92-22.94-.53.07-1.87-.11-1.96,0-.97,1.19,4.01,13.47,5.25,15.45-9.84-.56-16.34-11.97-18.11-20.75-3.22-.48-4.65,2.42-7.32,3.85-9.6,5.16-21.66,11.51-32.64,7.96-1.53.49-3.18,13.51-3.91,15.97-4.72,15.78-11.34,27.67,2.79,42.27l15.8,10.16c-5.43-.92-15.67,3.89-19.87,3.81-9.74-.18-21-10.5-21.54-20.59-.49-9.16,15.05-44.24,19.8-54.3,18.67-39.57,80.89-44.67,103.56-8.22Z" fill="#fff"/>
    <path d="M4.74,481.42c33.54-13.09,72.61-9.64,105.19,4.92-35.17-1.25-73.01,33.13-52.07,68.81-3.37,5.89-4.81,9.9-1.18,15.98l-51.94,10.52v-100.24Z" fill="#fff"/>
    <path d="M157.85,525.86c2.29,14.51,8.26,31.17,4.9,45.83-7.24,31.58-62.35,31.09-81.76,11.62-1.34-1.34-3.1-5.33-3.39-5.48-1.33-.72-8.24.29-11.08-.43-8.02-2.03-12.51-14.81-6.59-21.08,6.44-6.82,12.43.56,15.79-.66,4.57-5.13,6.51-12.08,7.97-18.63,8.46.65,15.2-4.14,19.99-10.57l2.09,5.95c10.1.98,20.26-6.82,25.52-15.16,7.69,6.71,16.31,9.64,26.55,8.61ZM139.53,537.62c1.63-.58,3.78-1.5,5.52-1.3s5.83,4.64,6.3,2.28c.79-3.95-12.39-7.13-11.82-.97ZM112.56,539.58c.45-6.74-14.28.69-11.83,3.29,4.09-1.49,6.99-5.05,11.83-3.29ZM148.46,551.05c-2.71-1.98-4.54-1.82-7.59-.59-2.18,1.45-2.53,6.19-.68,5.24,1.85-4.68,6.83-5.48,8.21.3,2.8-.96,2.09-3.47.06-4.95ZM113.67,554.25c-.13-.19-2.7-2-2.91-2.05-3.11-.65-8.48,2.42-7.35,6.06l1.27.73c3.73-10.51,7.83-.11,8.86-.34,1.62-1.19,1.07-2.99.13-4.4ZM135.36,559.51c-.65-.98-5.83-4.47-7.02-3.48l4.62,5.58-3.96,4.27c3.65.68,8.99-2.36,6.36-6.37ZM115.85,574.43c1.7,7.54,23.71,6.21,23.01-.32-.04-.42-1.14-1.43-1.64-.34-6.47,7.08-14.01,2.95-21.37.66Z" fill="#fff"/>
    <path d="M342.02,375.59c-15.79-7.44-36.15-9.33-43.06-27.92-9.41,15.87-25.6,20.66-42.38,25.31l-2.3,16.12c-11.95-2.64-16.57,11.19-10.48,19.63,1.62,2.25,8.42,5.63,8.7,6.09,1.13,1.86.71,12.03,3.28,14.8l11.31,13.34-35.48,4.6c.57-1.72-1.91-4.18-1.96-4.42-1.13-5.94,3.36-9.47,3.28-14.27-.05-3.51-2.9-6.06-3.54-8.33-5.03-17.84,5.93-22.31,11.31-35.82,1.6-4.02,1.92-9.06,3.45-12.85,17.04-42.11,65.18-58.26,96.55-19.92,10.13,12.38,9.68,22.64,15.68,35.6,4.77,10.3,11.78,13.11,11.32,26.86-.22,6.55-4.09,10.97-4.6,15.15-.65,5.27,4.13,11.82.96,17.36l-35.18-4.61c3.69-4.92,8.62-9.93,11.12-15.64,1.23-2.81,1.45-8.23,2.36-9.98.39-.74,6.58-4.18,8.56-6.56,6.26-7.54,4.23-21.95-7.56-18.05l-1.33-.7v-15.78Z" fill="#fff"/>
    <path d="M486.65,515.27c.65,6.21,6.58,14.97,12.04,17.88,2.86,1.52,7.56,1.36,9.02,2.16.35.19,3.31,5.41,4.56,6.61,1.76,1.69,9.57,7.23,10.17,8.24,1.57,2.64.25,7.15,3.01,9.53,24.27-6.92,14.51,25.41-4.84,16.74-12.37,22.75-59.75,20.38-74.35,1.9-6.55-8.29-6.54-15.78-4.38-24.8,2.17-9.05,4.91-18.06,7.35-27,13.61,2.58,25.43-6.49,37.41-11.26ZM467.59,530.4c-3.04-3.58-16.74,1.67-10.3,3.83,2.99-3.21,5.03-3.71,9.31-2.5l.99-1.33ZM509.01,542.87c2.83-3.28-9.95-9.95-12.48-6.23l12.48,6.23ZM465.61,549.45c1.78-8.74-11.59-7.25-11.07-1.51.5,5.55,3.25-1.59,3.49-1.8,4.46-3.95,3.98,5.01,7.58,3.3ZM503.09,556.68c1.4-1.79-.76-5.43-3.14-6.41-7.34-2.99-10.62,6.81-7.06,5.74,2.39-4.88,8.64-5.78,8.23.67.53-.07,1.89.1,1.97,0ZM475.48,551.42c-9.79-1.62-9.89,14.44-.01,10.84-2.22-2.01-7.17-2.64-5.08-6.75.59-1.17,5.21-1.88,5.09-4.09ZM487.97,571.14c-6.57,2.03-12,4.54-18.64.56-2.14-1.28-2.22-4.13-5.02-3.84,1.64,9.26,19.84,11.06,23.66,3.29Z" fill="#fff"/>
    <path d="M164.12,509.07c4.47,8.04,4.57,15.63,2.54,24.45-.17.72-3.24,9.48-4.13,6.39l-3.9-17.11c-11.67,4.09-19.24-3.06-28.55-8.24-1.92,3.69-5.16,8.08-8.65,10.56-1.92,1.37-12.65,7.24-14.02,4.17l-.77-10.08c-2.41-2.43-5.39,7.25-6.96,9.15-2.54,3.07-8.52,6.28-12.53,6.39-6.61.17-1.22-3.81-5.17-6.97-1.31.09-.21,7.29-.41,8.79-.43,3.21-4.44,15.95-7.55,16.78-.72.19-11.15-4.48-14.4.03-.48-.1-2.67-5.25-2.98-6.19-19.65-59.21,85.1-78.34,107.47-38.1Z" fill="#fff"/>
    <path d="M340.01,375.96c-.43,5.87.73,12.83,0,18.55-.11.87-3.41,11.4-4.22,12.99-7.51,14.61-18.05-.3-25.15-1.85-4.97-1.09-14.11,2.54-16.35.53s5.95-12.03,2.68-15.12l-5.75,13.63c-10.81-.29-19.24,16.35-29.41,6.4-7.81-7.63-5.3-26.1-4.01-36.05,15-4.89,31.49-8.3,40.18-22.77,9.41,14.51,26.09,19.59,42.02,23.7ZM284.81,377.24c-2.76-1.64-13.96-.57-13.14,3.59.45,2.31,4.9-1.99,6.28-2.25,1.98-.37,3.9.12,5.81.5l1.05-1.84ZM325.57,379.88c-3.07-2.65-12.68-6.26-13.14-.67,5.17-3.21,9.67,3.45,13.14.67ZM276.14,396.13c2.27-1.37,3.18-7.02,7.69.15,3.43-7.62-9.98-7.72-9.53.01.61-.03,1.27.18,1.83-.16ZM322.08,392.57c-3.24-3.23-10.57-1.68-9.64,3.73,2.87.85,1.75-1.91,3.06-2.68,5.17-3.03,5.35,3.6,7.11,3.34,1.72-.81.25-3.6-.53-4.38Z" fill="#fff"/>
    <path d="M240.11,501.47l-10.59,56.45-63.03,5.33c2.02-4.45-3.49-16.45-2.69-19.41.29-1.07,3.52-4.9,4.46-8.06,1.19-4.02,1.37-7.65,2.1-11.7,21.45-11.82,45.13-20.61,69.75-22.61Z" fill="#fff"/>
    <path d="M590.54,588.88l-35.41-10.61c-1.57-27.88,5.36-57.68-19.16-77.8,18.93-1.33,37.87,3.87,54.58,12.49v75.92Z" fill="#fff"/>
    <path d="M562.59,394.98c-7.12.93-16.75,4.55-22.01,9.53,5.95,1.68,11.46,1.03,17.42,3.6,10.82,4.66,17.23,17.43,14.11,28.28-10.71-9.83-23.87-18.39-38.78-19.71l5.91,12.48-11.81,1.95c-.1-1.7-2.5-12.15-4.61-11.14-8.04,8.52-13.5,17.46-16.46,28.91l-7.19-12.96-.08-3.84c2.06-3.37,2.33-7.04,4.52-10.6s5.38-4.47,6.04-7.43c-12.93.58-24.12,7.25-35.5,12.48,1.31-19.21,20.36-31.92,38.78-24.98-4.11-10.88-17.1-14.23-26.95-17.73,14.72-9.7,37.79-6.32,41.43,13.13,3.51-.96,4.38-4.59,8.2-7.23,11.72-8.11,28.66-5.34,37.81,5.26-3.43.32-7.51-.44-10.85,0Z" fill="#fff"/>
    <path d="M498.49,660.52c-12.99,6.43-26.74,20.92-25.46,36.32l5.75,12.01c-6.98,2.47-47.8-2.89-50.31-8.23.31-16.62,8.09-31.93,10.78-48.21,8.44-4.04,15.98-10.71,20.46-18.83,8.2,5.75,14.45,14.79,23.05,20,5,3.03,10.58,4.35,15.73,6.94Z" fill="#fff"/>
    <path d="M427.22,548.53c-2.23,5.06-5.68,9.69-6.63,15.38l-60.17-5.26-7.23-48.64c27.54,4.3,54.06,14.58,77.5,29.36.45,1.55-2.71,7.43-3.47,9.16Z" fill="#fff"/>
    <path d="M154.64,679.59l-.14,32.06c-2.22,3.36-31,4.02-36.05,3.15-1.14-.84.3-14.43.98-16.2.89-2.34,4.5-1.93,3.98-4.55-10.71-.98-4.83,19.82-9.34,21.55-5.5,2.11-33.27.23-39.78-1.34-1.51-.36-3.68-.44-4.32-2.25l.53-32.4c27.09,6.77,57,6.25,84.15,0Z" fill="#fff"/>
    <path d="M153.79,653.49l4.14,22.81c-18.73,5.45-39.32,7.12-58.87,5.95-4.43-.27-31.08-3.54-32.41-7.04l.55-21.25c18.3,21.99,49.8-4.1,66.06-16.95,6.51,5.99,12.39,12.58,20.52,16.48Z" fill="#fff"/>
    <path d="M90.22,374.61c3.48-.5,5.34-4.28,8.84-5.95,12.25-5.83,26.84-1.11,33.23,10.54-9.72-.51-22.05-2.72-30.24,3.63l12.73,3.68c9.39,4.93,12.47,17.36,8.29,26.87-7.13-9.07-15.68-16.24-26.94-19.71-.23,3.37,3.28,4.4,4.73,6.76,4.53,7.4,1.77,19.35-6.05,23.46,1.89-5.26-5.53-27.3-9.19-29.92-3.45-2.47-6.22,8.93-7.28,11.49l-10.48-3.93,10.52-10.85c.31-1.73-3.81-2.04-5.02-2.2-12.5-1.66-26.28,4.97-37.05,10.42.94-19.99,22.33-26.19,39.44-21.69-3.91-9.26-15.8-12.32-24.98-11.83,11.54-11.08,37.97-10.16,39.45,9.21Z" fill="#fff"/>
    <path d="M340.7,413.71c-1.01,9.59-7.06,21.2-14.79,27.28-25.51,20.05-79.77,3.95-69.37-34.17,2.65,7,7.07,10.01,14.79,9.18,6.85-.74,12.72-9.19,19.27-9.07,2.2.04,4.16,2.58,7.06,2.53s5.04-2.43,9.84-1.99c8.7.79,16.09,14.12,26.67,6.28,3.34-2.47,3.32-7.24,6.54-9.57-.23,3.08.32,6.49,0,9.53ZM310.04,420.84c.63-.95,4.65-5.21,1.97-6.08-9.77,2.25-18.63,2.35-28.51.59.84,14.39,18.76,17.26,26.54,5.49Z" fill="#fff"/>
    <path d="M590.54,590.86v50.61c-6.25-6.82-18.19-1.39-25.12,2.16-10.28,5.27-18.47,14.09-26.48,22.15l-1.37-2.61c8.59-9.05,33.72-27.88,25.91-42.3-6.23-11.5-23.47,4.79-28.17,10.74v-10.85c0-2.66-2.1-8.23-3.29-10.84,15.48-1.65,26.33-12.96,23.01-28.93l35.5,9.86Z" fill="#fff"/>
    <path d="M468.21,594.18c2.25,12.84,14.26,15.32,24.94,9.41,4.71-2.6,5.48-6.67,9.63-9.49,22.28,1.54,35.55,21.08,29.26,42.47l-30.92-8.92,3.94-15.77c-1.76-.38-1.13.51-1.64,1.29-3.13,4.87-4.9,12.77-5.6,18.42-.65.51-13.82-6.3-14.91-7.1-7.43-5.48-14.88-38.36-30.05-21.76-.38.42-4.74,6.67-4.93,7.06-1.57,3.35-2.58,12.05-4.41,13.18-4.3,2.66-12.74-4.51-18.01-3.87,7.86-17.86,23-26.83,42.7-24.93Z" fill="#fff"/>
    <path d="M99.2,597.64c1.97,1.94,2.47,5.81,6.18,8.61,5.28,4,12.25,5.59,18.03,1.69,3.05-2.06,6.2-8.76,8.02-9.72,15.66-8.25,36.7,11.73,40.96,26.15-5.29.84-15.73,5.64-19.72-.33-1.5-2.24-.32-8.09-.73-11.1-1.03-7.57-11.15-16.16-19.11-12-11.14,5.83-14.5,20.62-22.45,25.54-1.49.92-15.04,6.43-15.57,5.79l-2.03-15.06-2.58-.05,1.86,16.33-31.45,9.31c-2.58-16.25,6.35-36.23,21.91-42.84,3.62-1.54,13.76-5.17,16.67-2.3Z" fill="#fff"/>
    <path d="M138.86,601.38c-4.59,2.56-8.18,6.06-10.49,10.86l1.6.94c2.64-3.9,5.47-9.25,10.87-9.18-1.7,3.28-7.93,8.23-8.51,11.53-.16.89-.37,1.98.95,1.6l8.21-10.86,1.97-.31c.19.99.63,1.91.67,2.94.04,1.17-7.48,20.33-8.33,21.84-4.61,8.21-31.72,25.31-41.11,27.99-16.6,4.74-25.12.31-28.14-16.62,4.91-.66,9.47-3.91,14.34-4.5,2.13-.26,2.63,1.22,4.23,1.11s27.43-10.46,28.72-11.46c3.77-2.92,8.39-13.96,12.94-18.61,3.12-3.19,7.42-7.23,12.08-7.3Z" fill="#fff"/>
    <path d="M470.49,609c4.33,6.1,3.67,7.7,6.46,12.95,3.11,5.86,22.38,11.16,27.8,16.21l.98-1.94c-2.45-1.16-6.61-2.97-4.18-5.98,2.08-.78,21.25,4.69,22.61,6.27,3.25,3.78-5.04,14.44-8.24,16.77-17.56,12.75-42.27-6.23-52.91-20.23-2.09-2.75-12.25-24.75-7.54-26.42,3.37-1.6,8.23,14.84,10.17,10.17.77-1.85-4.04-6.21-4.33-8.17l-5.54-5.29c6.62-5.68,12.02,12.75,14.46,10.5-1.79-5.77-4.87-10.35-9.86-13.79,5.16.02,7.57,5.33,10.13,8.94Z" fill="#fff"/>
    <path d="M447.2,433.12c-.36,6.79-2.53,15.4-6.56,21.01,5.67,2.76,5.31-9.79,7.23-11.49,2.38-2.12,20.6-7.91,23.49-5.42,2.14,2.37-1.59,4.2-3.42,5.11-4.44,2.22-9.98,1.94-14.14,4.91-.03,3.65,19.76-6.84,22.29-2.26-1.32,7.38-11.56,7.11-17.05,9.52-1,.44-1.63-.11-1.31,1.61,3.35,1.85,20.65-8.31,18.8-.63-2.03,8.42-36.06,16.64-44.4,15.71l-5.95-24.26c9.81-1.03,13.22-11.22,21.02-13.8Z" fill="#fff"/>
    <path d="M163.07,440.46l-5.55,26.21c-7.07-1.3-40.82-10.95-41.58-18.27.5-7.72,18.53,4.21,20.29,2.45.17-1.55.15-1.7-1.13-2.48-2.34-1.43-19.17-4.77-18.55-9.03,3.46-5.54,22.47,3.61,24.28,2.31-.06-.76.36-1.43-.38-2.03-1.9-1.53-20.5-2.76-17.73-8.47,1.99-4.96,21.38,3,22.92,4.54,1.9,1.9,1,10.92,5.41,13.16,4.17,1.46-2.09-7.74-2.27-8.37-.53-1.88-2.64-12.09-1.41-13.01,4.53-3.4,10.69,12.72,15.7,12.99Z" fill="#fff"/>
    <path d="M149.01,612.94c1.53,6.05,1.07,5.73-.21,11.32-1.42,6.19.91,7.26,2.88,1.44l18.08,7.22-6.57-4.59,8.35-1.87c3.41.16,9.7,23.91-3.26,27.65-10.46,3.03-26.72-10.49-32.4-18.6,3.09-9.68,9.95-18.42,10.23-28.87,1.43,1.28,2.45,4.49,2.9,6.3Z" fill="#fff"/>
    <path d="M468.91,711.8l-.74,38.71c-9.72,3.31-14.74,1.34-22.2-4.96l-.08-36.38,23.01,2.63Z" fill="#fff"/>
    <path d="M455.99,626.12c.21.64,3.86,3.92,2.72,6.11-5.14,5.87-8.7,11.92-15.75,15.83-14.66,8.14-25.7,3.2-21.86-14.62,2.41-11.19,5.57-14.78,16.23-8.07.02.8-12.27,5.08-8.22,7.55,2.33-3.1,17.13-8.33,18.17-10.15.66-1.16.92-12.17,4.51-14.15.9,5.87,2.35,11.89,4.19,17.52Z" fill="#fff"/>
    <path d="M557.92,638.43c-6.18,9.46-14.98,16.96-23.27,24.43l-9.81-3.69c.31-11.92,20.16-40.83,32.51-40.12,10.34.6,3.76,14.49.57,19.38Z" fill="#fff"/>
    <path d="M107.31,718.37l-4.37,27.67c-8.69,2.06-17.97,1.89-26.49-.76l1.28-28.88,29.58,1.97Z" fill="#fff"/>
    <path d="M256.65,666.33l-8.71-10.02-12.43-5.96c5.76-2.79,11.51-5.34,10.51-12.83l29.63,2.26.28,20.09c-1.35,1.81-17.36,7.53-19.28,6.46Z" fill="#fff"/>
    <path d="M340.69,637.54c.3,2.26.29,5.68,1.17,7.71,1.34,3.09,5.44,3.99,6.73,6.74-8.5.7-14.62,8.1-18.44,15.11l-20.42-7.68c-.13-6.67-.15-13.21,1.48-19.17l29.48-2.71Z" fill="#fff"/>
    <path d="M148.06,715.75l-3.42,28.11c-8.01,2.57-16.9,3.26-24.82.12,1.63-6.66,2.11-17.58,1.35-24.67-.16-1.51-1.88-.32-1.37-2.25l28.26-1.31Z" fill="#fff"/>
    <path d="M107.96,750.59c.27,1.87-.24,1-.99,1.29-.67.26-12.58,3.26-10.18,5.27,4.19-.04,6.48-2.92,10.94-3.2,7.86-.49,9.8,4.39,11.41,11.09-15.23,3.51-31.11.15-45.31-5.68l2.95-12c10.45,4.96,21.39-1.13,31.17,3.24Z" fill="#fff"/>
    <path d="M150.03,747.96c-.8.14-15.37,4.48-12.48,7.22,10.26-5.79,19.03-8,23.67,5.26-8.67.71-17.16,2.92-25.96,2.62-11.85-.41-21.63-1.87-15.09-16.33,5.33,1.45,10.94,1.51,16.42,1.25,5.19-.25,8.37-3.69,13.45-.01Z" fill="#fff"/>
    <path d="M321.64,276.67c12.15,4.11,23.11,14.11,26.96,26.29h-26.96v-26.29Z" fill="#fff"/>
    <path d="M275.61,276.67v26.29h-26.3c3.33-11.89,14.55-22.57,26.3-26.29Z" fill="#fff"/>
    <path d="M468.24,752.56c.05,5.65,1.77,7.5-4.46,9.66-5.4,1.88-35.47,4.11-37.64-.9l.23-2.02c.83-2.29,14.73-10.97,17.41-11.23,4.19-.41,7.85,5.83,13.04,6.4,3.75.41,7.86-1.01,11.43-1.92Z" fill="#fff"/>
    <path d="M477.45,711.14l3.29,39.43-10.52,5.92c.94-11.83-1.26-25.57-.05-37.17.08-.74,2.73-4.64,1.41-7.48l5.87-.7Z" fill="#fff"/>
    <path d="M105.45,747.18l3.9-28.74,8.46-2.04c1.49,12.21.97,24.41-1.41,36.37l-.88,1.08-10.07-6.67Z" fill="#fff"/>
    <path d="M318.34,448.89c-5.27,7.36-11.25,14.66-21.37,14.5-7.51-.12-18.35-7.17-20.05-14.83,14.03,3.94,27.31,3.96,41.42.33Z" fill="#fff"/>
    <path d="M42.22,471.23c1.67-3.69,2.14-18.82,6.32-19.51,3.44-.57,10.83,2.43,14.68,2.46l-2.02,16.64c-.5,1.63-1.36.41-1.56.41h-17.42Z" fill="#fff"/>
    <path d="M534.65,483.06l18.37-1.27c0,2.73,3.17,16.95,1.06,17.51l-19.42-1.13v-15.12Z" fill="#fff"/>
    <path d="M550.66,470.37c.05.18.94.03,1.14,1.15s.79,8.05-.01,8.62l-17.13.95-1.32-15.77,15.35-1.22c1.85.73,1.53,4.7,1.97,6.27Z" fill="#fff"/>
    <path d="M486.65,749.27l-4.6-2.3-.97-36.48,10.87,6.89c-3.48,10.28-5.76,20.93-5.29,31.89Z" fill="#fff"/>
    <path d="M367.65,669.08c.98.98-2.2,4.09-2.95,4.6-9.78,6.63-40.38.2-50.74-5.15-2.75-1.42-6.37-2.95-5.47-6.68,18.78,6.92,39.25,15.09,59.16,7.23Z" fill="#fff"/>
    <path d="M559.64,772.92c3.04-6.52,3.43-12.62,3.61-19.72,5-3.82,11.83.62,13.04,6.04,2.17,9.69-8.36,15.14-16.65,13.68Z" fill="#fff"/>
    <polygon points="67.2 437.05 64.56 452.17 48.4 449.57 52.13 434.47 67.2 437.05" fill="#fff"/>
    <path d="M217.76,668.43c19.99,7.09,42.1,1.93,60.48-7.24,3.78,4.7-15.76,10.78-18.4,11.51-11.16,3.07-35.33,7.53-42.08-4.27Z" fill="#fff"/>
    <polygon points="545.73 447.01 548.84 461.39 533.43 463.24 532.12 448.98 545.73 447.01" fill="#fff"/>
    <polygon points="72.46 420.63 67.82 435.06 52.74 432.44 59.35 416.69 72.46 420.63" fill="#fff"/>
    <path d="M499.15,593.49c-5.04,12.76-26.9,16.34-28.92,0,9.61,1.57,19.31,1.59,28.92,0Z" fill="#fff"/>
    <path d="M359.76,655.94c1.04,1.5-6.5,2.85-7.85,3.63-3.47,1.99-8.36,9.88-9,10.11-.81.29-9.74-1.15-10.08-2.28,3.89-9.93,16.93-18.61,26.94-11.46Z" fill="#fff"/>
    <path d="M251.55,662.9c1.33,1.51,3.03,2.64,3.68,4.85-2.84.14-8.11,2.24-10.73,1.34-.43-.15-3.14-5.33-5.5-7.13-4.12-3.14-9.65-4.3-14.67-5.05,8.21-9.09,20.9-1.15,27.21,5.99Z" fill="#fff"/>
    <path d="M486.66,751.89v11.17c0,.21-2.88.01-4.13.81-5.79,3.7-6.2,6.95-14.15.75-1.07-4.96,13.23-14.57,18.28-12.73Z" fill="#fff"/>
    <path d="M540.52,431.16l4.38,13.14-13.53,2.61c-.73-4.73-.92-9.72-3.29-13.8l12.44-1.95Z" fill="#fff"/>
    <path d="M127.02,598.75c-3.5,14.79-22.23,9.88-25.63-1.97l25.63,1.97Z" fill="#fff"/>
    <path d="M253.26,412.07c-12.11-1.12-13.59-22.79-.14-20.55,3.52,1.9-.62,16.49.14,20.55Z" fill="#fff"/>
    <path d="M231.56,669.73l1.31-3.94c-1.05-.91-12.15,9.38-6.57-2.63-4.04.74-1.78,6.07-7.14,3.19-2.38-14.3,21.58-4.17,22.65,2.04l-.71,1.34h-9.53Z" fill="#fff"/>
    <polygon points="76.41 406.82 72.46 418.36 60.62 415.35 66.54 403.82 76.41 406.82" fill="#fff"/>
    <path d="M342.68,413.39c1.72-5.23-4.71-21.51,4.63-20.11,8.75,1.31,3.72,19.53-4.63,20.11Z" fill="#fff"/>
    <path d="M119.13,767.02c-.94,5.8-13.29,4.83-18.06,4.58-1.95-.1-31.97-4.58-27.29-9.84,14.3,5.45,30.15,8.69,45.35,5.26Z" fill="#fff"/>
    <path d="M364.86,660.05c1.26,1.01,4.11,9.01-.51,7.45-1.32-2.92-1.24-5.03-5.24-4.33l2.65,5.58c-5.93,2.99-4.84-3.07-9.88-2.3l2.62,3.27-8.54.66c.88-6.16,13.51-14.68,18.9-10.34Z" fill="#fff"/>
    <path d="M161.21,762.41c5.21,5.53-23.49,5.99-25.29,5.9-3.78-.19-15.28-.47-14.81-5.24,13.21,2.68,26.91,1.78,40.1-.66Z" fill="#fff"/>
    <path d="M529.13,641.87c-2.52,5.31-6.15,10.5-6.31,16.69l-7.24-.98c-1.13-.84-.21-.96.33-1.67,3.92-5.2,10.87-8.18,11.19-17.08.89-1.08,3.58-.22,2.03,3.03Z" fill="#fff"/>
    <polygon points="345.3 339.77 340.37 348.31 332.81 339.77 345.3 339.77" fill="#fff"/>
    <polygon points="264.44 339.77 256.25 347 251.29 339.77 264.44 339.77" fill="#fff"/>
    <path d="M521.09,762.65c.27-.4,1.88-1.72,2.38-2.21-.45,5.93,2.85,8.86-4.25,11.18-2.26-.51,1.1-7.8,1.87-8.96Z" fill="#fff"/>
    <polygon points="517.55 776.21 516.25 775.9 518.21 772.93 517.55 776.21" fill="#fff"/>
    <path d="M47.03,217.3c-12.19-18.14,2.62-40.9,23.1-41.88l460.89.03c35.64,5.29,34.26,51.13-2.6,54.57H70.79c-8.2-.79-19.12-5.81-23.76-12.72ZM551.52,190.11c-4.06-7.01-13.81-12.01-21.77-12.74l-458.96.02c-33.79,3.18-34.1,45.52-1.32,50h460.26c18.32-1.23,31.72-20.11,21.78-37.28Z"/>
    <path d="M160.56,92.3c-.17.88-1.19,2.71-2,3.26-4.11,1.57-16.91,2.42-18.19-2.77,1.18-9.03-2.62-49.96.88-55.21,2.81-4.21,16.08-3.7,20.43-1.61,6.75,3.26,12.01,20.95,17.95,25.77v-20.7c0-9.7,17.13-7.52,18.63-2.85s.58,43.37-.24,50.17c-1.15,9.52-14.39,11.13-20.54,6.94-3.84-2.62-12.77-23.62-16.92-28.29-1,7.36,1.35,18.43,0,25.31ZM164.13,42.38c-5.55-6.68-13.52-8.48-20.52-2.52,1.73,8.99-3.56,46.59-.07,52.36,1.84,3.04,11.16,2.87,14.29.96l1.74-32.75,18.79,31.81c18.62,7.66,17.13-3.91,17.72-17.67.18-4.29.65-35.43-.6-36.78l-12.55-.36-1.67,32.18c-1.67.46-14.43-23.99-17.12-27.24Z"/>
    <path d="M337.41,92.95c-1.33,5.45-12.66,4.35-16.7,2.9-1.3-.79-2.08-3.48-2.3-4.93-.82-5.28-.67-48.79.65-52.46,1.84-5.11,13.52-4.83,17.83-3.48,7.02,2.19,14.77,20.96,18.94,27.41,2.8-5.53-.49-21.53,2.31-25.61,2.3-3.36,15.67-3.14,17.87,1.48-1.2,15.42,2.25,35.27.25,50.19-.05.36-1.93,4.88-2.1,5.1-3.35,4.21-12.79,4.5-17.49,2.53-6.6-2.77-12.04-20.24-16.59-25.3-.69-.77-1.59-1.24-2.66-1.14-1.04,6.34,1.4,17.63,0,23.33ZM372.26,37.41h-11.51l-2.63,32.85-18.57-30.91c-4.07-3.79-13.63-3.44-18.26-.63l-.97,51.54c-.33,5.7,13.29,5.17,14.36,2.61l1.73-32.43c10.46,11.33,14.58,42.94,35.48,32.17l.35-55.19Z"/>
    <path d="M383.08,110.07l10.87,33.16c.97-4.88,7.97-34.7,9.83-36.52,3.16-3.1,12.76-1.04,16.66-.13,4.87,4.36-.32,11.19-1.58,15.23-2.87,9.23-8.18,29.25-12.35,36.94-4.74,8.76-18.52,9.05-25.98,4.16l-17.82-49.23c-4.57-11.08,17.87-11.52,20.38-3.62ZM383.05,118.66c-.95-2.59-1.94-9.3-4.37-10.43-2.91-.32-13.79-2.12-14.31,1.84l17.02,50.01c4.12,5.06,16.82,4.95,20.74.21,2.3-2.78,15.71-39.93,16.51-44.62.35-2.06.55-4.08.18-6.16-1.09-2.89-8.86-1.41-11.4-1.77-3.84.95-7.45,23.45-8.81,27.98-1.19,3.96-4.3,9.19-4.66,14.1-1.14.73-3.46-5.27-3.87-6.44-2.81-8.04-4.04-16.56-7.03-24.71Z"/>
    <path d="M529.15,286.11c2.95,3.39,5.32,10.39,5.5,14.88,28.78-14.12,42.82,30.5,10.77,34.11-7.88.89-15.47-3.41-18.37-3.17-.56.05-6.66,4.47-8.6,5.13-4.91,1.68-10.21,1.99-15.39,1.09-3.97-.69-11.64-6.26-12.8-6.25-.46,0-6.33,2.78-8.72,3.1-6.88.92-13.39.1-18.88-4.45-16.84-13.97.36-34.38,18.74-30.49.71-23.24,34.4-29.29,47.73-13.95ZM532.68,304.27c1.57-20.96-24.44-31.29-40.3-20.2-5.89,4.12-8.3,12.92-9.36,19.55-32.29-9.26-33.25,37.09,1.95,28.22,1.74-.44,5.62-3.04,5.96-3.04,1.14,0,4.29,3.77,5.78,4.53,5.58,2.82,11.98,4.2,18.23,2.84,2.91-.63,11.41-6.86,12.13-6.89,1.16-.06,6.02,2.62,8.11,3.07,27.95,6.05,36.96-26.47,12.88-31.27-6.98-1.39-9.26.56-15.37,3.2Z"/>
    <path d="M98.4,267.82c1.34,2.05,2.25,3.69,2.34,6.22,28.65-11.03,37.37,33.42,6.9,32.92-3.14-.05-7.69-2.24-9.84-2.01-1.89.21-3.51,2.7-5.16,3.39-9.6,3.95-16.67,4.69-26.54.65-2.08-.85-6.79-4.54-7.21-4.61-.64-.1-6.69,2.93-9.11,3.17-29.51,3.03-26-38.19,2.95-31.55,3.77-24,32.44-28.48,45.67-8.19ZM98.2,277.21c-1.7-27.35-42.86-26.32-42.93,1.33-6.27-.17-10.27-2.32-16.81,1.28-20.69,11.4,4.99,36.16,19.86,21.18,7.55,7.51,18.67,10.34,28.96,7.25,3.07-.92,9.87-6.35,10.48-6.37.92-.02,3.93,2.1,5.98,2.33,29.53,3.21,25.7-32.32,2.63-29.45-3.81.47-5.22,3.99-8.18,2.45Z"/>
    <path d="M302.84,55.55c2.48,7.11,11.02,28.02,11.4,34.3.33,5.38-2.52,6.21-7.38,6.74-11.22,1.22-14.1-.23-16.54-11.23l-17.31.08c-.37,10.89-7.06,12.76-16.75,11.09-6.02-1.04-6.46-4.18-5.08-9.56,2.58-10.07,10.39-33.42,14.47-43.38.31-.75,4.18-7.21,4.55-7.5,3.7-2.96,21.61-2.88,25.38.1,2.73,2.16,5.86,15.34,7.27,19.37ZM293.18,37.59c-1.44-1.11-20.7-2.31-22.17,1.46-3.97,11.58-8.91,23.13-12.58,34.77-.9,2.86-5.88,17.65-4.53,19.14l13.68.5,3.59-9.88,20.9-.52c2.2,12.19,8.25,12.88,19.39,9.57l-18.28-55.05Z"/>
    <path d="M477.67,123.99c.02.13,1.39.03,1.16,1.84-2.08,2.44-1.2,5.11-2.58,8.65-1.58,4.04-5.27,6.22-8.7,8.48,1.72,4.93,10.41,12.93,8.97,18.06-1.43,5.06-12.29,5.67-16.13,4.23-5.18-1.94-9.95-19.01-14.15-18.07l-.99.97c3.33,15.99-4.95,22.54-19.1,14.34l.51-54.78c17.55-4.47,47.49-7.15,51.02,16.28ZM471.28,153.34c-1.18-2.08-6.52-8.06-6.32-10.47,3.69-4.52,8.98-6.4,10.23-12.74,5.08-25.71-30.04-25.52-46.41-20.76l.37,52.25c1.99,2.2,12.08,1.82,13.52-.25l1.03-16.21c8-2.84,8.6,5.64,12.08,10.72,5.25,7.66,8.16,10.46,17.78,5.48,1.61-2.37-1.08-5.9-2.28-8.01Z"/>
    <path d="M440.91,56.87c5.19,17.56-2.57,32.49-20.15,37.89-7.33,2.25-34.52,5.63-38.5-1.95-.77-6.73-2.1-53.4.53-55.74,2.77-2.47,19.22-2.56,23.36-2.33,16.2.91,29.86,5.54,34.76,22.12ZM433.67,48.33c-10.55-13.11-33.53-12.63-48.63-9.64l.32,53.66c10.77,5.1,31.68,3.15,42.05-2.76,14.13-8.05,15.88-29.3,6.26-41.26Z"/>
    <path d="M244.35,114.69c5.74,12.73,10.33,28.58,14.06,42.11.28,1.02,2.79,2.09,1.26,5.36-9.5,6.45-21.45,5.55-22.86-7.73l-16.67-.05c-2.33,9.89-4.24,11.9-14.57,11.23-6.15-.4-8.91-1.3-7.9-7.94s8.26-21.59,10.81-28.76c2.17-6.1,3.75-20.78,10.09-23.3,4.46-1.77,19.57-2.01,22.76,1.89,1.11,1.35,2.15,5.27,3.01,7.18ZM244.29,123.29c-6.32-16.15-3.33-19.38-25.56-14.91l-19.09,52.6c9.74,4.75,17.82,2.81,18.19-9.13l21.05.32,3.66,10.17c2.86.9,14.2,1.72,14.52-2.21-3.69-11.73-6.97-23.85-11.33-35.36-.41-1.08-1.36-1.28-1.44-1.49Z"/>
    <path d="M353.47,112.74c5.97,11.99,10.36,30.21,14.09,43.38.43,1.52,3.75,3.19,1.21,6.64-4.7,3.74-16.79,4.81-20.19-.78-1.26-2.08-1.13-5.46-3.01-7.61l-16.38.68c-1.25,6.29-2.06,9.79-9.16,10.56-9.73,1.06-13.92.09-11.73-9.75,1.66-7.47,7.52-19.28,10.15-26.69,5.38-15.12,1.55-26.14,22.56-24.71,9.42.64,8.75.83,12.45,8.27ZM353.46,119.97c-1.15-2.92-3.04-10.85-5.36-12.07-2.63-1.39-17.31-1.44-19.59.48l-19.1,53.28c10.74,3.63,16.93,1.68,18.58-9.9l20.27.68,4.28,10.18,13.16-.63c1.41-1.55-3.17-15.94-4.04-18.86-2.14-7.19-5.33-15.84-8.2-23.15Z"/>
    <path d="M528.32,121.31c2.86,7.19,13,31.45,13.44,38.22.47,7.33-13.58,7.05-18.04,5.47s-3.86-8.66-5.17-9.93c-1.61-1.56-13.66-.25-16.68-.56-1.83,9.93-5.81,12.63-16.14,11.02-3.96-.62-5.74-1.77-5.51-5.99.26-4.72,4.6-12.36,5.87-16.56,1.67-5.48,9.22-33.64,12.43-36.18s19.21-2.29,22.78-.5c4.19,2.1,5.36,10.84,7.02,15.01ZM521.95,109.91c-3.11-3.84-19.77-4.1-22.82.28-4.66,13.25-8.86,26.59-13.03,40.01-.7,2.25-4.96,9.3-2.74,11.78l12.72.36c2.34-2,1.58-7.49,2.77-9.23,1.7-2.5,17.17-1.11,20.7-1.02l5.71,10.72,13.72-1.15c.97-1.35-7.94-28.04-9.24-31.63-.44-1.2-1.42-1.28-1.61-1.8-1.36-3.73-4.33-16.05-6.18-18.34Z"/>
    <path d="M112.84,123.91c2.98,7.88,10.4,25.41,11.26,33.09,1.07,9.5-6.4,9.78-14.44,8.53-8.44-1.31-5.56-10.49-8.58-11.17l-16.13.04c-.54,4.09-1.9,9.76-6.52,10.9-2.96.73-13.49,1-15.22-1.97-2.38-4.1,6.6-23.21,8.41-28.5,1.6-4.67,7.39-25.89,10.24-28.21s19.74-2.09,23.18-.23c3.76,2.03,6.15,13.14,7.81,17.51ZM105.61,111.41c-4.68-6.96-14.5-4.5-22.03-3.22l-18.28,54.01,13.98.02,4.65-10.49,18.96.03c2.73,10.95,7.8,14.02,18.94,9.61,2.13-2.68-1.66-7-2.14-8.55-3.01-9.82-8.91-33.72-14.09-41.42Z"/>
    <path d="M105.59,46.36c1.03,1.75,1.8,1.71,2.31,4.59,4.07,22.77-14.74,29.89-34.13,29.19,2.59,16.94-4.41,20.38-19.55,14.95l-.88-57.4c14.48-5.76,43.25-6.59,52.25,8.67ZM71.8,77.51c14.65-.04,32.87-.59,33.56-19.36.95-25.99-31.52-22.82-49.03-19.44l-.18,53.46c1.24,3.64,15.65,3.27,15.65-.53v-14.13Z"/>
    <path d="M240.77,51.87v40.42c0,6.34-18.86,6.22-21.33,2.26-3.33-5.35.4-34.84-1.03-42.68h-14.14c-3.48,0-6.69-15.77,3.26-17.12,4.41-.6,45.91-.39,48.09.62,3.7,1.72,4.21,13.79.59,16.5h-15.45ZM238.14,49.9h15.45c3.25,0,3.4-11.39.52-12.35l-48.83.2c-2.84,1.51-2.17,7.95-1.56,10.71.24.73,2.79,1.44,3.19,1.44h13.48l.77,42.28c1.34,3.67,14.31,2.99,16.98.44v-42.72Z"/>
    <path d="M302.24,148.49c5.65,1.2,5.14,13.99,2.12,15.98s-35.4,1.7-38.8-.34c-2.4-1.44-2.83-4.16-3.12-6.74-1.68-14.82,1.07-33.2.32-48.37,1.5-4.43,20.75-6.29,20.75,1.02v38.45c5.38.78,13.77-1.05,18.74,0ZM280.22,151.12v-41.74c0-2.53-13.79-2.45-15.01.77l.54,51c.75,1.21,4.16,1.68,5.57,1.83,5.41.58,23.95.81,28.98,0,1.46-.23,2.25-1.03,3.59-1.34v-9.2c-.93.27-2.17-1.31-2.3-1.31h-21.37Z"/>
    <path d="M506.63,49.01c20.81,37.2-26.43,63.92-51.55,40.68-35.59-32.93,28.32-82.21,51.55-40.68ZM506.66,54.88c-10.25-28.06-54.55-23.46-57.5,7.16-4.9,50.79,74.73,39.99,57.5-7.16Z"/>
    <path d="M200.28,116.01c1.18,2.07,1.9,2.26,2.28,5.29,2.7,21.93-13.05,27.7-32.18,27.49-2.41,1.77,2.45,13.93-4.07,16.31-3.12,1.14-12.6.89-14.97-1.79-2.86-3.23-1.36-48.98.28-56.28,13.87-4.61,40.36-5.57,48.67,8.99ZM152.84,161.47c17.39,5.59,14.48-1.7,15.57-15.32,11.71-.02,27.9,0,31.04-14.32,6.07-27.65-28.2-28.19-46.18-23.17l-.43,52.8Z"/>
    <path d="M112.76,93.75c-2.91-4.34-.74-47.37-.74-55.24,1.47-4.28,19.11-5.4,21.22-1.73l.06,55.87c-2.15,6.36-17.7,5.35-20.55,1.09ZM130.16,93.13l1.33-53.94c-.83-2.43-15.98-3.9-16.99,1.8-.77,4.38-.73,45.4.17,49.19,1.43,5.97,11.16,4.96,15.48,2.95Z"/>
    <path d="M550.69,59.49c3.51,4.14,7.71,1.85,11.72,3.74,8.1,3.83-4.59,9.98-5.29,12.04-.39,1.16,4.36,6.6,1.89,10.98-3.3,5.85-11.66-2.3-14.84-2.21-2.7.07-9.56,6.36-13.2,3.4-3.07-2.49,1.25-10.66.74-11.93-.62-1.56-11.03-5.49-7.9-10.49,2.7-3.65,10.25-1.93,13.01-4.56,1.81-1.73,2.1-8.45,6.22-9.14,5.07-.85,5.49,5.61,7.66,8.18ZM532.03,86.05c1.34,1.42,10.24-4.55,12.16-4.55,2.26,0,9.85,5.61,11.54,4.27,2.35-3.62-1.63-7.94-.42-11.58.81-2.47,7.32-4.11,7.33-7.88-8.97-3.72-13.34.14-16.77-11.52l-3.32-.65c-2.37,1.37-3.21,8.21-4.61,9.22-1.52,1.09-11.79,1.3-12.49,2.31-.35,4.18,7.42,5.92,8.28,9.18.7,2.64-2.81,7.89-1.71,11.19Z"/>
    <path d="M141.66,356.03c-3.08-3.21,2.75-9.88,1.74-12.55-4.38-2.39-6.77-4.64-9.14-8.96,3.18-4.42,10.28-2.71,13.15-4.27,2.59-1.41,3.72-10.79,8.13-10.15,4.93-.8,5.8,9.13,7.62,10.15,2.65,1.47,17.97-.82,11.46,8.15-1.65,2.27-5.61,3.29-6.04,5.8-.39,2.26,3.39,10.52-.15,12.34s-9.77-4.12-12.27-4.16c-2.06-.03-11.08,7.22-14.51,3.64ZM157.72,323.53c-.41-.5-2.31-1.79-3.1-1.23-3.64,11.47-7.07,9.3-17.05,12.58.24,3.75,6.86,5.01,7.73,7.99,1,3.45-1.98,7.7-1.18,11.36,4,.86,8.93-3.98,12.16-3.98,3.64,0,7.14,5.33,11.51,3.98,1.15-2.9-2.3-8.73-1.87-10.71.53-2.42,8.48-6.42,7.76-8.63-2.87-2.8-8.51-1.17-11.53-2.97-2.44-1.44-3.02-6.69-4.43-8.39Z"/>
    <path d="M426.43,255.38c1.19,1.66,2.86,5.87,3.15,6.05,2.1,1.28,16.85-.82,12.41,6.89-.49.85-6.75,4.69-7.18,6.19-.71,2.49,2.91,8.96.63,12.25-2.56,3.57-11.3-3.26-13.54-3.26-1.99,0-9.14,5.54-12.15,4.05-3.63-1.79.36-10.72-.27-12.87-.94-3.25-10.07-5.04-7.3-10.49,1.53-3.25,10.1-1.7,12.05-2.75,2.4-1.3,3.79-17.86,12.21-6.05ZM426.39,261.33c-1.33-1.61-2.01-8.21-5.09-7.62-2.65,1.11-4.44,8.58-5.42,9.21-1.93,1.25-9.21.51-11.78,2.54-1.76,2.29,6.76,5.77,7.49,8.4.86,3.12-2.18,7.82-1.19,11.35,4.2.89,7.67-4.03,11.52-3.97,3.56.06,7.48,4.84,11.49,3.97,1.24-3.09-2.21-9.02-1.7-11.2.55-2.31,7.52-4.77,8.23-8.2-3.52-3.27-10.34-.59-13.55-4.48Z"/>
    <path d="M193.85,275.78c-2.28,3.75-15.12,15-19.63,14.57-2.84-.27-16.4-10.25-18.27-12.69-11.47-14.97,5.88-27.6,18.72-15.45,10.23-12.46,28.26-1.39,19.18,13.57ZM193.06,265.22c-4.14-9.88-13.97-6.78-18.37.92-4.55-6.24-11.67-9.03-18.39-3.91-6.64,12.32,9.88,21.55,19.05,26.03,7.44-3.72,21.37-14.3,17.7-23.04Z"/>
    <path d="M448.98,354.43c4.52,6.68-1.21,15.98-6.34,20.53-.95.85-11.01,7.34-11.7,7.44-5.17.75-19.59-13.6-20.38-18.81-2.03-13.35,11.39-17.33,19.89-8.72,4.04-5.23,14.7-6.11,18.53-.45ZM429.56,358.04c-2.11-5.32-11.94-7.45-15.14-2.73-6.33,9.34,8.11,21.7,15.96,24.56,7.05-3.68,17.7-10.44,17.53-19.39-.19-9.99-12.54-9.79-16.6-2.44h-1.76Z"/>
    <path d="M379.49,366.06c-.84.77-17.32-8.54-18.8-9.76-.74-.62-1.33.18-.92-2.06,1.25-.9,21.05,10.61,19.72,11.82Z"/>
    <path d="M238.13,352.92l-15.96,10.65-3.1.51c-1.49-1.26,16.71-11.6,19.06-11.17Z"/>
    <path d="M359.11,249.72c.92.85-13.59,16.62-15.11,15.11-.24-1.26.23-1.78.93-2.67,1.07-1.37,10.1-10.4,11.5-11.5.89-.7,1.42-1.17,2.67-.93Z"/>
    <path d="M251.53,259.34c1.27,1.37,4.23,2.4,4.36,4.84-1.48,1.35-14.94-12.07-15.11-14.45,1.77-1.7,9.57,8.34,10.76,9.61Z"/>
    <path d="M238.73,283.97l.07,1.9c-.78.6-17.92-7.01-17.74-8.2.21-1.41,1.68-.67,2.43-.49,4.07.99,10.59,5.92,15.24,6.79Z"/>
    <path d="M361.74,286.52c-.34-1.82.19-1.62,1.14-2.46.5-.44,10.83-5.31,12.03-5.72.7-.24,3.79-1.51,3.92-.02l-17.08,8.2Z"/>
    <path d="M401.19,729.88c-1-6.25-5.6-4.2-6.58-10.19-9.86,7.34-20.29-2-11.83-11.82-9.91-4.71-3.07-18.93,7.23-14.48-.27-10.2,14.59-11.66,16.45-1.31,9.72-4.59,20.08,3.25,10.51,11.82,8.57,2.79,7.94,12.75-1.06,14.46-1.36.26-3.98-.8-4.19-.65-.56.42-2.07,10.95-9.21,8.55l1.32,17.08c5.51-7.59,12.29-13.35,22.35-13.14,2.43,27.37-46.96,29.49-49.01,3.3,8.37-3.75,18.5,2.63,24.02,9.19-.44-3.94.6-9.04,0-12.82ZM404.48,696.68c.54-14.16-16-12.17-10.53,1.32-5.64-6.26-18.2-2.06-12.7,6.4,1.49,2.29,8.09,2.34,5.72,4.83-8.64,1.97-5.76,12,1.88,11,3.24-.43,5.32-4.84,6.08-4.47,2.66,11.18,15.59,11.84,14.15-1.32,4.54,1.11,7.11,3,10.97-.86,2.41-6.13-3.42-8.36-8.35-9.67.94-2.54,4.76-1.2,6.08-4.77,1.75-4.71-2.83-7.12-7.03-6.36-2.11.38-5.28,4.45-6.28,3.9ZM424.19,732.18c-10.32,1.64-16.95,8.17-20.38,17.74,9.65-1.44,20.92-6.25,20.38-17.74ZM398.34,742.9c-4.19-5.31-12.04-8.95-18.85-8.75.27,10.24,13.12,16.69,22.35,15.77.31-.24-3-6.37-3.5-7.01Z"/>
    <path d="M180.94,734.48c-.25-.63-8.34-3.39-6.58-8.22-11.53,5.27-19.36-5.31-9.2-13.13-11.17-5.61-1.19-18.31,9.2-13.81-.73-10.84,15.26-10.23,15.13,0,10.98-3.68,18.53,5.68,9.86,14.12,4.34,1.59,5.62,9.09,2.32,12.18-3.71,3.47-10.4.96-10.86,1.29-.21.15-.28,2.81-2.27,4.65-1.46,1.35-4.32,1.78-5.02,2.86-1.9,2.9.28,9.53.06,12.87,4.92-7.36,30.05-15.88,18.3.89-5.26,7.5-16.89,11.21-25.81,9.57-9.22-1.7-20.17-12.43-13.74-21.51,2.09-.53,8.74,2.89,10.64,4.24,3.06,2.17,4.62,5.98,7.97,7.48-.66-3.03.89-11.19,0-13.47ZM186.65,696.22c-3.92-6.15-13.57-.72-9.66,7.03-11.34-7.37-22.67,4.94-7.24,10.19.02.92-10.48,3.29-6.49,9.8s12.2-2.57,13.08-1.58c-3.14,13.07,14.37,13.54,11.84,1.32,10.44,6.9,19.61-3.44,7.22-9.54l5.83-7.48c-3.94-7.32-7.54-6.14-13.71-2.05-.18-2.53.63-5.35-.87-7.69ZM178.61,751.61c-3-6.58-8.4-12.87-16.08-12.86-1.14,9.48,8.21,17.56,17.42,17.1,1.36-.51-1.13-3.76-1.35-4.23ZM201.97,740.07c-8.35,1.39-19.21,6.72-19.05,16.43,8.14-1.74,19.45-6.85,19.05-16.43Z"/>
    <path d="M46.14,688.14c2.64-5.83,12.96-4.64,14.33,1.79.42,1.94-.5,6.4-.24,6.78.96,1.44,4.97.2,5.66,6.21,1.1,9.53-5.6,7.65-6.52,8.95-.41.57.21,3.36-.22,4.71-1.7,5.3-5.98,6.45-11.02,5.08l.66,15.11,11.01-7.06,6.97-.07c3.74,8.24-6.7,16.59-14.07,18.61-14.69,4.02-30.07-4.65-28.9-20.68,10.14-.72,17.75,6.28,22.35,14.46l-1.32-23c-4.01,4.59-12.42,3.15-14.17-2.58-.46-1.5-.01-4.75-.35-5.24-.64-.92-8.43-.17-8.48-7.63s7.36-7.4,7.84-8.29c.59-1.08-2.71-7.12,2.73-10.72,5.1-3.37,10.55-.93,13.74,3.56ZM44.9,691.36c-3.58-12.2-21.24-3.31-9.92,5.97-5.75-.59-12.27,1.81-10.41,8.77,2.53,2.69,6.22,3.45,9.75,3.07-1.22,3.9-3.34,7.95,2.15,10.03s6.74-3.6,8.01-3.49c6.58,7.18,16.99,4.2,10.88-5.88,11.21,1.4,11.84-11.18.66-11.85.69-2.38,2.66-2.18,2.62-5.58-.05-4.9-4.56-7.02-8.77-5.48-1.47.54-2.34,5.42-4.98,4.43ZM38.67,735.73c-3.23-3.13-7.59-5.75-12.23-6.19-.98,10.91,9.23,17.44,19.06,17.74-1.91-4.66-3.18-8.01-6.84-11.55ZM65.88,731.52c-8.79-1.37-18.23,6.83-17.74,15.77,8-1.54,17.12-6.84,17.74-15.77Z"/>
    <path d="M280.53,736.47c.84.84.94,1.93,2.3,1.62,4.67-11.71,17.74-13.63,13.71,2.53l-2.52.11-.11-8.77c-1.74-4.48-10.32,7.25-11.07,9.09-3.5,1.92-4.98-5.73-7.85-7.93-2.5-1.91-6.76-1.55-7.26-4.23,6.92-.76,8.96,3.74,12.8,7.58Z"/>
    <path d="M500.91,695.86c-.16.24-1.25-.18-1.97.97-2,3.19-.4,5.89,3.19,5.82,2.38-.05,2.71-2.94,4.25-1.03-.23,1.71-2.18,2.65-3.66,2.91-.98.17-9.91-1.9-10.79-2.27-1.44-.61-2.36-3.16-2.62-4.62,1.95-3.6,2.02,1.47,2.77,2.18,6.24,5.92,3-6.65,3.12-7.35.78-4.38,9.45-2.27,5.71,3.4Z"/>
    <path d="M572.12,651.99l-26.29,22.34c-1.33-1.44,14.03-15.44,15.77-16.76,2.99-2.27,6.69-5.54,10.52-5.58Z"/>
    <path d="M491.07,679.04c.92-.28,1.96-.24,2.82.21,3.34,3.46.5,10.03-4.65,7.93-1.43-2.01-.72-7.36,1.83-8.15Z"/>
    <path d="M115.85,574.43c7.36,2.29,14.9,6.42,21.37-.66.5-1.09,1.6-.07,1.64.34.7,6.53-21.31,7.86-23.01.32Z"/>
    <path d="M113.67,554.25c.95,1.41,1.49,3.2-.13,4.4-1.03.23-5.13-10.17-8.86.34l-1.27-.73c-1.14-3.64,4.24-6.71,7.35-6.06.21.04,2.79,1.85,2.91,2.05Z"/>
    <path d="M148.46,551.05c2.03,1.48,2.74,3.99-.06,4.95-1.38-5.78-6.37-4.98-8.21-.3-1.85.95-1.49-3.78.68-5.24,3.06-1.23,4.88-1.39,7.59.59Z"/>
    <path d="M135.36,559.51c2.63,4.01-2.71,7.05-6.36,6.37l3.96-4.27-4.62-5.58c1.19-.99,6.37,2.5,7.02,3.48Z"/>
    <path d="M139.53,537.62c-.56-6.16,12.61-2.97,11.82.97-.47,2.36-4.58-2.08-6.3-2.28s-3.89.73-5.52,1.3Z"/>
    <path d="M112.56,539.58c-4.83-1.76-7.73,1.8-11.83,3.29-2.45-2.6,12.28-10.03,11.83-3.29Z"/>
    <path d="M487.97,571.14c-3.82,7.77-22.02,5.97-23.66-3.29,2.81-.29,2.89,2.56,5.02,3.84,6.64,3.98,12.07,1.48,18.64-.56Z"/>
    <path d="M475.48,551.42c.12,2.21-4.5,2.92-5.09,4.09-2.09,4.11,2.86,4.74,5.08,6.75-9.88,3.6-9.78-12.46.01-10.84Z"/>
    <path d="M465.61,549.45c-3.6,1.71-3.12-7.25-7.58-3.3-.24.21-2.99,7.35-3.49,1.8-.52-5.74,12.85-7.24,11.07,1.51Z"/>
    <path d="M503.09,556.68c-.08.1-1.44-.07-1.97,0,.41-6.45-5.84-5.55-8.23-.67-3.56,1.07-.28-8.73,7.06-5.74,2.38.97,4.54,4.61,3.14,6.41Z"/>
    <path d="M509.01,542.87l-12.48-6.23c2.53-3.72,15.31,2.95,12.48,6.23Z"/>
    <path d="M467.59,530.4l-.99,1.33c-4.29-1.21-6.32-.71-9.31,2.5-6.43-2.15,7.26-7.41,10.3-3.83Z"/>
    <path d="M276.14,396.13c-.57.34-1.23.13-1.83.16-.46-7.73,12.96-7.63,9.53-.01-4.51-7.17-5.42-1.52-7.69-.15Z"/>
    <path d="M322.08,392.57c.79.78,2.25,3.57.53,4.38-1.76.26-1.94-6.37-7.11-3.34-1.32.77-.2,3.53-3.06,2.68-.93-5.4,6.4-6.96,9.64-3.73Z"/>
    <path d="M284.81,377.24l-1.05,1.84c-1.91-.38-3.83-.87-5.81-.5-1.38.26-5.83,4.56-6.28,2.25-.82-4.16,10.38-5.23,13.14-3.59Z"/>
    <path d="M325.57,379.88c-3.47,2.78-7.97-3.88-13.14-.67.46-5.59,10.06-1.98,13.14.67Z"/>
    <path d="M310.04,420.84c-7.78,11.78-25.7,8.9-26.54-5.49,9.87,1.76,18.74,1.65,28.51-.59,2.69.87-1.34,5.13-1.97,6.08ZM309.14,417.33c-7.6,2.23-15.89,1.53-23.65.32,3.83,10.81,20.47,11.51,23.65-.32Z"/>
    <path d="M551.52,190.11c9.94,17.17-3.46,36.05-21.78,37.28H69.48c-32.78-4.48-32.47-46.81,1.32-49.99l458.96-.02c7.95.73,17.71,5.73,21.77,12.74ZM379.3,182.12c-1.05.13-5.39,3.32-5.72,4.81.91,3.98,12.27-5.62,5.72-4.81ZM317.28,198.21c-1.2-2.47-1.19-5.54-3.16-7.7-.89-.99-4.94-.22-5.48.21-1.07.85-8.93,22.33-9.73,25.52l4.18.15c2.1-.69,1.98-5.31,2.9-5.97,1.14-.82,11.45-.66,12.3-.05.41.29,1.78,10.95,5.71,5.87,1.49-1.93-5.5-15.53-6.71-18.02ZM383.05,201.48c-2.33-5.18-2.73-14.16-10.37-10.98-.54,3.43-10.74,23.97-9.35,25.73,3.27,4.15,6.13-5.32,7.76-6.13,1.77-.88,8.86-.78,10.35.54,1.92,1.71.63,8.41,6.63,5.92,2.06-1.36-4.07-12.97-5.02-15.07ZM112.8,206.11c-1.76-4.48-4.1-19.7-11.31-15.45l-10.61,24.87,4.12,1.25c3.53-6.24,4.14-8.8,12.67-7.18,4.16.79,2.61,4.22,4.89,6.93,9.6,2.01,1.39-7.49.24-10.42ZM147.08,190.56c-3.69-.69-9.22.51-13.15,0l-.99.99v24.65l5.2-.06.06-8.49c13.12,4.68,22.91-14.44,8.88-17.09ZM172.72,190.56c-3.45-.68-8.79.5-12.49,0l-.99.99v24.65c0,.23,4.6.23,4.6,0v-10.52c8.61-2.53,8.34,14.75,17.08,9.53l-6.57-9.23c-.07-1.53,7.15-2.58,5.24-9.68-.25-.94-5.38-5.44-6.88-5.74ZM191.46,216.2v-24.65h-3.94v24.32l3.94.33ZM207.51,193.58c-2.43-3.3-2.48-3.98-7.59-2.63-.85.93-2.46,24.06-1.79,25.15.41.65,4.15,1.41,4.4-.33l1.74-18.64c.92,1.98,6.51,14.88,7.87,15.17,8.7,1.91,6.95-10.35,12.18-14.51,1.7,4.53-1.79,23.96,6.42,17.6l-3.12-24.83c-1.49.28-4.7-.48-5.8.12-.84.46-5.73,15.34-7.35,17.63-.8.34-5.88-13.28-6.95-14.73ZM236.82,216.85h17.42c.26,0,1.02-.83,1.65-.67l-.66-3.27h-12.82l-.99-7.23h11.83l-.99-3.94h-10.85v-6.57h11.51c2.8,0,3.3-3.56,1.22-4.51-1.38-.63-16.47-.36-17.38,1.01l.06,25.19ZM265.75,190.56h-3.95c-1.08,8.35.59,16.74-.03,25.2l3.98.44v-25.63ZM278.24,215.21v-9.53c7.29-1.82,7.59,12.32,14.8,10.52.88-.22,1.09.49.99-.99l-6.16-10.18c7.48-1.3,7.08-11.81.02-13.92-2.39-.71-12.86-1.11-14.54.16l-.37,24.94,5.26-.99ZM354.84,190.56c-3.46-.68-8.79.5-12.49,0l-.99.99v24.65c6.24,2.38,4.39-4.48,4.6-8.55,6.81,1.78,18.16-2.95,15.59-10.99-.43-1.34-4.9-5.74-6.71-6.09ZM410.2,192.74c-3.16-4.23-17.44-3.25-16.94,5.37s15.5,5.86,15.01,11.74l-1.98,2.58c-5.85,2.64-10.28-3.02-11.91-2.7-6.72,1.32,5.11,11.3,14.65,5.44.4-.25,3.71-3.49,3.8-3.74,3.42-9.82-13.98-10-14.3-13.99-.37-4.51,8.6-3.02,10.82-.97,1.35-1.01,1.93-2.28.85-3.72ZM441.95,193.86c-7.05-6.46-21.96-3.35-24.8,5.75-4.49,14.37,14.2,21.76,24.69,13.85-.21-7.62-6.01-.72-10.17-.6-13.01.38-14.22-19.89,2.08-18.37,3.59.34,4.86,3.89,8.2-.64ZM471.33,194.06c-13.42-13.42-35.94,8.66-19.34,19.74,15.3,10.21,30.5-8.58,19.34-19.74ZM493.8,190.65l-6.43.95c-.71,3.35-10.82,23.61-9.9,24.56.43.44,3.76,1.05,4.6.39,1.44-6.96,5.06-8.38,12.18-6.97,3.66.72,2.28,4.32,4.21,6.96.93.59,3.64.6,4.35-.31,1.55-1.98-9.29-21.79-9.02-25.58Z" fill="#fff"/>
    <path d="M164.13,42.38c2.7,3.25,15.46,27.7,17.12,27.24l1.67-32.18,12.55.36c1.25,1.35.79,32.49.6,36.78-.59,13.76.9,25.33-17.72,17.67l-18.79-31.81-1.74,32.75c-3.12,1.91-12.45,2.08-14.29-.96-3.49-5.77,1.8-43.38.07-52.36,7-5.96,14.97-4.16,20.52,2.52Z" fill="#fff"/>
    <path d="M372.26,37.41l-.35,55.19c-20.91,10.77-25.03-20.84-35.48-32.17l-1.73,32.43c-1.07,2.56-14.7,3.09-14.36-2.61l.97-51.54c4.63-2.8,14.18-3.15,18.26.63l18.57,30.91,2.63-32.85h11.51Z" fill="#fff"/>
    <path d="M383.05,118.66c2.99,8.14,4.22,16.67,7.03,24.71.41,1.17,2.73,7.17,3.87,6.44.36-4.92,3.48-10.15,4.66-14.1,1.36-4.53,4.97-27.03,8.81-27.98,2.55.36,10.31-1.11,11.4,1.77.36,2.08.17,4.1-.18,6.16-.79,4.69-14.2,41.84-16.51,44.62-3.92,4.74-16.62,4.85-20.74-.21l-17.02-50.01c.52-3.96,11.4-2.16,14.31-1.84,2.43,1.13,3.42,7.84,4.37,10.43Z" fill="#fff"/>
    <path d="M532.68,304.27c6.11-2.64,8.39-4.6,15.37-3.2,24.08,4.8,15.08,37.32-12.88,31.27-2.08-.45-6.94-3.13-8.11-3.07-.71.04-9.22,6.26-12.13,6.89-6.25,1.36-12.66-.01-18.23-2.84-1.49-.75-4.64-4.53-5.78-4.53-.33,0-4.21,2.6-5.96,3.04-35.2,8.87-34.24-37.48-1.95-28.22,1.07-6.63,3.47-15.43,9.36-19.55,15.85-11.08,41.87-.76,40.3,20.2Z" fill="#fff"/>
    <path d="M98.2,277.21c2.96,1.54,4.37-1.98,8.18-2.45,23.07-2.86,26.9,32.66-2.63,29.45-2.05-.22-5.06-2.35-5.98-2.33-.61.02-7.42,5.45-10.48,6.37-10.29,3.09-21.42.26-28.96-7.25-14.86,14.98-40.54-9.77-19.86-21.18,6.54-3.6,10.53-1.45,16.81-1.28.07-27.66,41.23-28.68,42.93-1.33Z" fill="#fff"/>
    <path d="M293.18,37.59l18.28,55.05c-11.14,3.3-17.19,2.61-19.39-9.57l-20.9.52-3.59,9.88-13.68-.5c-1.35-1.49,3.63-16.28,4.53-19.14,3.67-11.64,8.61-23.19,12.58-34.77,1.48-3.77,20.74-2.57,22.17-1.46ZM274.96,72.91h15.12l-6.91-23.66c-2.25-.52-8.14,20.91-8.21,23.66Z" fill="#fff"/>
    <path d="M471.28,153.34c1.21,2.12,3.89,5.65,2.28,8.01-9.62,4.98-12.53,2.18-17.78-5.48-3.48-5.08-4.08-13.56-12.08-10.72l-1.03,16.21c-1.43,2.07-11.52,2.45-13.52.25l-.37-52.25c16.36-4.76,51.48-4.95,46.41,20.76-1.25,6.34-6.54,8.22-10.23,12.74-.2,2.41,5.14,8.39,6.32,10.47ZM443.92,135.35c21.47,3.9,20.99-22.15-.01-16.12v16.12Z" fill="#fff"/>
    <path d="M433.67,48.33c9.63,11.96,7.87,33.21-6.26,41.26-10.38,5.91-31.28,7.86-42.05,2.76l-.32-53.66c15.1-2.99,38.08-3.47,48.63,9.64ZM400.53,49.57v33.85c29.78,3.82,30.5-40.24,0-33.85Z" fill="#fff"/>
    <path d="M244.29,123.29c.08.2,1.03.4,1.44,1.49,4.36,11.5,7.64,23.63,11.33,35.36-.33,3.93-11.66,3.11-14.52,2.21l-3.66-10.17-21.05-.32c-.37,11.94-8.45,13.87-18.19,9.13l19.09-52.6c22.23-4.47,19.24-1.24,25.56,14.91ZM229.86,121.95c-.51-.98-.17-2.3-1.27-3.03l-7.58,22.04,14.46-.07c-2.27-5.99-2.65-13.25-5.61-18.94Z" fill="#fff"/>
    <path d="M353.46,119.97c2.87,7.3,6.07,15.96,8.2,23.15.87,2.92,5.45,17.32,4.04,18.86l-13.16.63-4.28-10.18-20.27-.68c-1.66,11.59-7.84,13.53-18.58,9.9l19.1-53.28c2.28-1.92,16.96-1.87,19.59-.48,2.32,1.22,4.21,9.15,5.36,12.07ZM330.84,141.26h14.46c-1.08-2.83-5.14-22.5-6.91-22.36-1.41-.25-1.44,1.83-1.81,2.79-2.35,6.11-3.55,13.31-5.75,19.57Z" fill="#fff"/>
    <path d="M521.95,109.91c1.85,2.28,4.82,14.61,6.18,18.34.19.52,1.17.59,1.61,1.8,1.3,3.59,10.2,30.28,9.24,31.63l-13.72,1.15-5.71-10.72c-3.53-.1-19-1.48-20.7,1.02-1.19,1.75-.43,7.23-2.77,9.23l-12.72-.36c-2.22-2.49,2.04-9.53,2.74-11.78,4.17-13.42,8.37-26.76,13.03-40.01,3.06-4.38,19.72-4.13,22.82-.28ZM503.09,141.92h14.46l-6.25-23.01c-.82-.18-1.56.75-1.92,1.37-.3.52-2.63,6.77-3.1,8.11-.61,1.74-4.01,12.74-3.2,13.54Z" fill="#fff"/>
    <path d="M105.61,111.41c5.18,7.7,11.08,31.59,14.09,41.42.47,1.54,4.26,5.87,2.14,8.55-11.14,4.4-16.21,1.34-18.94-9.61l-18.96-.03-4.65,10.49-13.98-.02,18.28-54.01c7.53-1.28,17.34-3.74,22.03,3.22ZM87.91,141.92h12.49l.71-3.31-6.63-19.68c-1.21,0-7.66,19.02-7.53,20.79.07.99-.05,1.6.96,2.2Z" fill="#fff"/>
    <path d="M71.8,77.51v14.13c0,3.79-14.41,4.17-15.65.53l.18-53.46c17.51-3.38,49.98-6.55,49.03,19.44-.69,18.77-18.91,19.32-33.56,19.36ZM71.8,49.57c-1.03,3.06.77,11.99,0,15.78,0,1.32,18.4,3.87,18.46-7.89.05-10.48-17.33-11.22-18.46-7.89Z" fill="#fff"/>
    <path d="M238.14,49.9v42.72c-2.68,2.54-15.65,3.23-16.98-.44l-.77-42.28h-13.48c-.4,0-2.95-.72-3.19-1.44-.61-2.76-1.28-9.19,1.56-10.71l48.83-.2c2.88.96,2.72,12.35-.52,12.35h-15.45Z" fill="#fff"/>
    <path d="M280.22,151.12h21.37c.13,0,1.37,1.58,2.3,1.31v9.2c-1.33.32-2.12,1.11-3.59,1.34-5.03.8-23.58.58-28.98,0-1.41-.15-4.82-.63-5.57-1.83l-.54-51c1.22-3.22,15.01-3.3,15.01-.77v41.74Z" fill="#fff"/>
    <path d="M506.66,54.88c17.23,47.15-62.4,57.95-57.5,7.16,2.95-30.62,47.25-35.21,57.5-7.16ZM477.31,48.72c-15.7,1.46-15.86,30.41-2.12,34.02,22.2,5.82,22.93-35.94,2.12-34.02Z" fill="#fff"/>
    <path d="M152.84,161.47l.43-52.8c17.99-5.02,52.26-4.48,46.18,23.17-3.15,14.32-19.33,14.3-31.04,14.32-1.09,13.62,1.82,20.91-15.57,15.32ZM167.79,118.59v15.78l.99.99h10.52c5.96,0,9.03-13.24,2.12-16.58-2.15-1.04-12.75-2.19-13.63-.18Z" fill="#fff"/>
    <path d="M130.16,93.13c-4.32,2.01-14.05,3.02-15.48-2.95-.91-3.78-.95-44.81-.17-49.19,1.01-5.7,16.16-4.23,16.99-1.8l-1.33,53.94Z" fill="#fff"/>
    <path d="M532.03,86.05c-1.1-3.3,2.4-8.55,1.71-11.19-.86-3.26-8.63-5-8.28-9.18.69-1.02,10.96-1.22,12.49-2.31,1.4-1,2.24-7.85,4.61-9.22l3.32.65c3.43,11.65,7.8,7.79,16.77,11.52-.01,3.77-6.52,5.41-7.33,7.88-1.2,3.64,2.77,7.97.42,11.58-1.69,1.34-9.29-4.26-11.54-4.27-1.92,0-10.82,5.96-12.16,4.55Z" fill="#fff"/>
    <path d="M157.72,323.53c1.41,1.71,2,6.95,4.43,8.39,3.02,1.79,8.66.16,11.53,2.97.72,2.2-7.23,6.21-7.76,8.63-.43,1.97,3.02,7.81,1.87,10.71-4.37,1.35-7.87-3.98-11.51-3.98-3.23,0-8.16,4.84-12.16,3.98-.81-3.66,2.17-7.91,1.18-11.36-.86-2.98-7.49-4.24-7.73-7.99,9.98-3.28,13.41-1.11,17.05-12.58.79-.55,2.69.74,3.1,1.23Z" fill="#fff"/>
    <path d="M426.39,261.33c3.21,3.9,10.02,1.21,13.55,4.48-.72,3.44-7.69,5.9-8.23,8.2-.52,2.18,2.93,8.11,1.7,11.2-4.01.87-7.93-3.9-11.49-3.97-3.85-.07-7.32,4.86-11.52,3.97-.99-3.53,2.05-8.24,1.19-11.35-.73-2.63-9.25-6.11-7.49-8.4,2.58-2.02,9.85-1.29,11.78-2.54.98-.63,2.77-8.1,5.42-9.21,3.09-.59,3.76,6,5.09,7.62Z" fill="#fff"/>
    <path d="M193.06,265.22c3.67,8.74-10.27,19.32-17.7,23.04-9.17-4.48-25.69-13.71-19.05-26.03,6.71-5.12,13.84-2.33,18.39,3.91,4.4-7.69,14.23-10.79,18.37-.92Z" fill="#fff"/>
    <path d="M429.56,358.04h1.76c4.06-7.35,16.41-7.55,16.6,2.44.17,8.96-10.48,15.71-17.53,19.39-7.85-2.86-22.29-15.22-15.96-24.56,3.2-4.72,13.03-2.59,15.14,2.73Z" fill="#fff"/>
    <path d="M404.48,696.68c1,.55,4.17-3.52,6.28-3.9,4.19-.76,8.77,1.65,7.03,6.36-1.32,3.57-5.14,2.23-6.08,4.77,4.93,1.31,10.76,3.54,8.35,9.67-3.86,3.86-6.44,1.97-10.97.86,1.44,13.16-11.5,12.5-14.15,1.32-.76-.37-2.84,4.04-6.08,4.47-7.64,1-10.52-9.03-1.88-11,2.37-2.49-4.23-2.53-5.72-4.83-5.5-8.45,7.06-12.66,12.7-6.4-5.47-13.49,11.07-15.48,10.53-1.32ZM399.04,698.81c-8.69,1.6-7.95,15.88,3.63,13.49,8.91-1.84,7.12-15.47-3.63-13.49Z" fill="#fff"/>
    <path d="M398.34,742.9c.51.64,3.81,6.77,3.5,7.01-9.23.93-22.08-5.53-22.35-15.77,6.81-.19,14.66,3.44,18.85,8.75Z" fill="#fff"/>
    <path d="M424.19,732.18c.54,11.48-10.72,16.29-20.38,17.74,3.42-9.57,10.06-16.1,20.38-17.74Z" fill="#fff"/>
    <path d="M186.65,696.22c1.49,2.34.68,5.16.87,7.69,6.17-4.09,9.77-5.27,13.71,2.05l-5.83,7.48c12.39,6.1,3.22,16.44-7.22,9.54,2.53,12.22-14.98,11.75-11.84-1.32-.88-.99-9.17,7.96-13.08,1.58s6.51-8.88,6.49-9.8c-15.43-5.26-4.09-17.56,7.24-10.19-3.91-7.76,5.74-13.18,9.66-7.03ZM180.12,706.05c-7.84,1.28-7.14,12.03-1.34,13.49,13.56,3.41,14.78-15.69,1.34-13.49Z" fill="#fff"/>
    <path d="M178.61,751.61c.21.47,2.7,3.72,1.35,4.23-9.21.46-18.57-7.62-17.42-17.1,7.68,0,13.08,6.28,16.08,12.86Z" fill="#fff"/>
    <path d="M201.97,740.07c.4,9.58-10.91,14.69-19.05,16.43-.16-9.71,10.71-15.04,19.05-16.43Z" fill="#fff"/>
    <path d="M44.9,691.36c2.64.99,3.51-3.89,4.98-4.43,4.21-1.55,8.71.58,8.77,5.48.04,3.4-1.94,3.2-2.62,5.58,11.18.67,10.55,13.25-.66,11.85,6.12,10.07-4.3,13.06-10.88,5.88-1.27-.11-2.77,5.48-8.01,3.49s-3.37-6.13-2.15-10.03c-3.53.38-7.22-.39-9.75-3.07-1.87-6.96,4.66-9.36,10.41-8.77-11.32-9.28,6.34-18.17,9.92-5.97ZM39.17,707.62c8.08,6.73,18.79-6.29,9.57-11.21-8.55-4.56-15.78,6.03-9.57,11.21Z" fill="#fff"/>
    <path d="M38.67,735.73c3.66,3.55,4.92,6.9,6.84,11.55-9.83-.3-20.04-6.83-19.06-17.74,4.63.43,8.99,3.05,12.23,6.19Z" fill="#fff"/>
    <path d="M65.88,731.52c-.63,8.93-9.74,14.23-17.74,15.77-.48-8.94,8.96-17.14,17.74-15.77Z" fill="#fff"/>
    <path d="M309.14,417.33c-3.17,11.83-19.82,11.12-23.65.32,7.76,1.21,16.05,1.91,23.65-.32Z" fill="#fff"/>
    <path d="M207.51,193.58c1.07,1.45,6.15,15.07,6.95,14.73,1.62-2.29,6.52-17.17,7.35-17.63,1.1-.6,4.31.16,5.8-.12l3.12,24.83c-8.21,6.36-4.72-13.06-6.42-17.6-5.22,4.16-3.48,16.41-12.18,14.51-1.36-.3-6.95-13.19-7.87-15.17l-1.74,18.64c-.25,1.73-3.99.98-4.4.33-.67-1.09.93-24.22,1.79-25.15,5.11-1.34,5.16-.66,7.59,2.63Z"/>
    <path d="M278.24,215.21l-5.26.99.37-24.94c1.68-1.27,12.15-.88,14.54-.16,7.06,2.11,7.45,12.62-.02,13.92l6.16,10.18c.1,1.48-.11.77-.99.99-7.22,1.8-7.51-12.34-14.8-10.52v9.53ZM287.77,196.82c-2.1-3.44-6.18-2.1-9.53-2.32v7.9c3.27,1.05,13.36-1,9.53-5.58Z"/>
    <path d="M471.33,194.06c11.16,11.16-4.03,29.95-19.34,19.74-16.6-11.08,5.92-33.16,19.34-19.74ZM454.01,210.05c6.86,7.52,19.92-.7,14.5-11.54-5.58-11.19-23.97,1.18-14.5,11.54Z"/>
    <path d="M172.72,190.56c1.49.29,6.62,4.8,6.88,5.74,1.91,7.1-5.31,8.15-5.24,9.68l6.57,9.23c-8.74,5.22-8.47-12.06-17.08-9.53v10.52c0,.23-4.6.23-4.6,0v-24.65l.99-.99c3.7.5,9.04-.68,12.49,0ZM173.53,195.34c-2.1-1.65-7.11-.5-9.69-.84v7.89c4.4,2.11,15.52-2.49,9.69-7.06Z"/>
    <path d="M236.82,216.85l-.06-25.19c.92-1.36,16-1.64,17.38-1.01,2.08.95,1.57,4.51-1.22,4.51h-11.51v6.57h10.85l.99,3.94h-11.83l.99,7.23h12.82l.66,3.27c-.63-.15-1.39.67-1.65.67h-17.42Z"/>
    <path d="M383.05,201.48c.95,2.1,7.08,13.71,5.02,15.07-6,2.5-4.71-4.21-6.63-5.92-1.49-1.32-8.58-1.42-10.35-.54-1.63.81-4.49,10.29-7.76,6.13-1.38-1.76,8.82-22.3,9.35-25.73,7.64-3.18,8.04,5.8,10.37,10.98ZM376.19,195.17l-1.37.92-3.22,10.25h7.89s-3.3-11.17-3.3-11.17Z"/>
    <path d="M317.28,198.21c1.21,2.48,8.21,16.09,6.71,18.02-3.93,5.08-5.3-5.58-5.71-5.87-.85-.61-11.16-.76-12.3.05-.92.66-.8,5.28-2.9,5.97l-4.18-.15c.81-3.19,8.67-24.67,9.73-25.52.54-.43,4.6-1.19,5.48-.21,1.97,2.17,1.96,5.23,3.16,7.7ZM312.42,195.82c-3.81,1.86-2.97,7.33-5.25,10.51h8.54s-3.29-10.51-3.29-10.51Z"/>
    <path d="M147.08,190.56c14.03,2.64,4.24,21.76-8.88,17.09l-.06,8.49-5.2.06v-24.65l.99-.99c3.93.51,9.46-.69,13.15,0ZM138.2,203.71c13.51,2.48,13.48-11.69,0-9.2v9.2Z"/>
    <path d="M493.8,190.65c-.28,3.79,10.57,23.6,9.02,25.58-.71.91-3.42.9-4.35.31-1.94-2.64-.55-6.24-4.21-6.96-7.12-1.41-10.74.01-12.18,6.97-.85.66-4.18.05-4.6-.39-.92-.95,9.19-21.21,9.9-24.56l6.43-.95ZM492.19,200.81c-.6-1.28-.84-4.42-2.25-4.67l-3.28,10.19h7.88c.14-2.17-1.66-4.03-2.35-5.52Z"/>
    <path d="M112.8,206.11c1.15,2.93,9.36,12.43-.24,10.42-2.28-2.72-.73-6.14-4.89-6.93-8.53-1.62-9.13.94-12.67,7.18l-4.12-1.25,10.61-24.87c7.21-4.25,9.55,10.97,11.31,15.45ZM105.61,199.49c-.62-1.18-.9-2.35-.95-3.67l-.97.66-2.96,9.85h7.23c.61-3.04-1.21-4.67-2.35-6.84Z"/>
    <path d="M354.84,190.56c1.81.36,6.28,4.75,6.71,6.09,2.57,8.04-8.78,12.77-15.59,10.99-.21,4.07,1.65,10.93-4.6,8.55v-24.65l.99-.99c3.71.5,9.04-.68,12.49,0ZM345.96,203.71c13.73,2.25,14.35-11.69,0-9.2v9.2Z"/>
    <path d="M410.2,192.74c1.07,1.44.5,2.7-.85,3.72-2.23-2.05-11.19-3.53-10.82.97.32,3.99,17.72,4.17,14.3,13.99-.09.25-3.4,3.5-3.8,3.74-9.53,5.87-21.37-4.12-14.65-5.44,1.63-.32,6.06,5.34,11.91,2.7l1.98-2.58c.49-5.88-14.53-3.44-15.01-11.74s13.78-9.61,16.94-5.37Z"/>
    <path d="M441.95,193.86c-3.34,4.52-4.61.97-8.2.64-16.31-1.53-15.1,18.75-2.08,18.37,4.16-.12,9.96-7.02,10.17.6-10.5,7.91-29.18.52-24.69-13.85,2.84-9.11,17.75-12.21,24.8-5.75Z"/>
    <path d="M265.75,190.56v25.63l-3.98-.44c.62-8.46-1.06-16.85.03-25.2h3.95Z"/>
    <polygon points="191.46 216.2 187.51 215.87 187.51 191.55 191.46 191.55 191.46 216.2"/>
    <path d="M379.3,182.12c6.54-.81-4.81,8.8-5.72,4.81.33-1.49,4.68-4.68,5.72-4.81Z"/>
    <path d="M274.96,72.91c.07-2.75,5.96-24.17,8.21-23.66l6.91,23.66h-15.12ZM286.79,70.28l-4.59-14.46-4.61,14.46h9.2Z"/>
    <path d="M443.92,135.35v-16.12c20.99-6.02,21.47,20.02,0,16.12ZM456.07,123.87c-2.17-3.97-6-4.08-10.07-3.54l-.11,13.05c6.43-.21,14.35-1.87,10.17-9.51Z"/>
    <path d="M400.53,49.57c30.5-6.39,29.78,37.67,0,33.85v-33.85ZM402.5,52.2v28.59c23.51,2.71,24.09-34.18,0-28.59Z"/>
    <path d="M229.86,121.95c2.96,5.69,3.33,12.95,5.61,18.94l-14.46.07,7.58-22.04c1.1.73.76,2.04,1.27,3.03ZM229.85,132.47c-.83-2.44-.62-5.67-2.23-7.63l-3.3,14.45h8.55c.48-.38-2.85-6.29-3.03-6.82Z"/>
    <path d="M330.84,141.26c2.2-6.26,3.4-13.46,5.75-19.57.37-.96.4-3.03,1.81-2.79,1.77-.14,5.82,19.53,6.91,22.36h-14.46ZM338.72,126.81c-1.69-.32-1.02.23-1.38.91-.56,1.07-3.66,11.16-3.22,11.57h7.88s-3.29-12.48-3.29-12.48Z"/>
    <path d="M503.09,141.92c-.81-.8,2.58-11.79,3.2-13.54.47-1.33,2.8-7.59,3.1-8.11.36-.62,1.1-1.55,1.92-1.37l6.25,23.01h-14.46ZM505.72,139.29h9.2l-4.27-14.47-4.93,14.47Z"/>
    <path d="M87.91,141.92c-1-.61-.89-1.22-.96-2.2-.13-1.77,6.32-20.78,7.53-20.79l6.63,19.68-.71,3.31h-12.49ZM98.1,139.29l-3.93-13.79-4.61,13.79h8.54Z"/>
    <path d="M71.8,49.57c1.13-3.33,18.51-2.59,18.46,7.89-.06,11.76-18.46,9.21-18.46,7.89.77-3.79-1.03-12.72,0-15.78ZM73.77,63.7c19.39,3.36,18.35-15.75,0-13.15v13.15Z"/>
    <path d="M477.31,48.72c20.8-1.93,20.07,39.84-2.12,34.02-13.73-3.6-13.58-32.56,2.12-34.02ZM470.44,76.64c10.94,14.65,27.64-8.84,16.23-21.81s-26.04,8.67-16.23,21.81Z"/>
    <path d="M167.79,118.59c.87-2.01,11.47-.86,13.63.18,6.91,3.34,3.84,16.58-2.12,16.58h-10.52l-.99-.99v-15.78ZM179.3,120.23c-2.38-.61-6.86.44-9.53,0v10.85c0,.34.71,1.42,1.17,1.64,2.06,1.27,9.89.1,11.14-1.49,2.04-2.61,1.02-10.02-2.77-10.99Z"/>
    <path d="M399.04,698.81c10.76-1.99,12.55,11.65,3.63,13.49-11.59,2.39-12.32-11.88-3.63-13.49ZM404.79,702.92c-3.46-3.85-9.36-1.71-9.54,2.65-.39,9.08,15.35,3.82,9.54-2.65Z"/>
    <path d="M180.12,706.05c13.44-2.19,12.22,16.91-1.34,13.49-5.8-1.46-6.51-12.22,1.34-13.49ZM186.65,710.02c-3.38-4.83-13.76-.81-9.29,5.69,3.54,5.14,13.25,0,9.29-5.69Z"/>
    <path d="M39.17,707.62c-6.22-5.18,1.02-15.76,9.57-11.21,9.22,4.92-1.49,17.94-9.57,11.21ZM39.79,705.03c4.45,6.05,16.23-2.63,7.06-6.74-4.61-2.07-9.8,3.02-7.06,6.74Z"/>
    <path d="M287.77,196.82c3.83,4.58-6.25,6.62-9.53,5.58v-7.9c3.35.22,7.43-1.12,9.53,2.32Z" fill="#fff"/>
    <path d="M454.01,210.05c-9.46-10.37,8.92-22.73,14.5-11.54,5.41,10.85-7.64,19.06-14.5,11.54Z" fill="#fff"/>
    <path d="M173.53,195.34c5.83,4.57-5.29,9.17-9.69,7.06v-7.89c2.58.34,7.59-.81,9.69.84Z" fill="#fff"/>
    <polygon points="376.19 195.17 379.49 206.33 371.61 206.33 374.82 196.09 376.19 195.17" fill="#fff"/>
    <path d="M312.42,195.82l3.29,10.51h-8.54c2.28-3.18,1.45-8.65,5.25-10.51Z" fill="#fff"/>
    <path d="M138.2,203.71v-9.2c13.48-2.49,13.51,11.68,0,9.2Z" fill="#fff"/>
    <path d="M492.19,200.81c.7,1.49,2.49,3.35,2.35,5.52h-7.88s3.28-10.19,3.28-10.19c1.41.25,1.66,3.4,2.25,4.67Z" fill="#fff"/>
    <path d="M105.61,199.49c1.14,2.17,2.96,3.8,2.35,6.84h-7.23s2.96-9.85,2.96-9.85l.97-.66c.04,1.32.33,2.5.95,3.67Z" fill="#fff"/>
    <path d="M345.96,203.71v-9.2c14.35-2.49,13.73,11.45,0,9.2Z" fill="#fff"/>
    <polygon points="286.79 70.28 277.59 70.28 282.2 55.82 286.79 70.28" fill="#fff"/>
    <path d="M456.07,123.87c4.18,7.64-3.74,9.29-10.17,9.51l.11-13.05c4.06-.54,7.89-.42,10.07,3.54Z" fill="#fff"/>
    <path d="M402.5,52.2c24.09-5.58,23.51,31.3,0,28.59v-28.59Z" fill="#fff"/>
    <path d="M229.85,132.47c.18.53,3.51,6.44,3.03,6.81h-8.55s3.3-14.45,3.3-14.45c1.61,1.96,1.4,5.19,2.23,7.63Z" fill="#fff"/>
    <path d="M338.72,126.81l3.29,12.48h-7.88c-.44-.4,2.65-10.49,3.22-11.57.36-.68-.31-1.23,1.38-.91Z" fill="#fff"/>
    <polygon points="505.72 139.29 510.65 124.82 514.93 139.29 505.72 139.29" fill="#fff"/>
    <polygon points="98.1 139.29 89.56 139.29 94.16 125.49 98.1 139.29" fill="#fff"/>
    <path d="M73.77,63.7v-13.15c18.35-2.61,19.39,16.5,0,13.15Z" fill="#fff"/>
    <path d="M470.44,76.64c-9.81-13.14,4.83-34.76,16.23-21.81s-5.29,36.47-16.23,21.81Z" fill="#fff"/>
    <path d="M179.3,120.23c3.79.96,4.81,8.38,2.77,10.99-1.25,1.6-9.08,2.76-11.14,1.49-.46-.22-1.17-1.29-1.17-1.64v-10.85c2.68.44,7.15-.61,9.53,0Z" fill="#fff"/>
    <path d="M404.79,702.92c5.81,6.46-9.94,11.72-9.54,2.65.19-4.36,6.08-6.5,9.54-2.65Z" fill="#fff"/>
    <path d="M186.65,710.02c3.97,5.68-5.74,10.83-9.29,5.69-4.48-6.5,5.91-10.52,9.29-5.69Z" fill="#fff"/>
    <path d="M39.79,705.03c-2.74-3.72,2.45-8.81,7.06-6.74,9.16,4.11-2.61,12.79-7.06,6.74Z" fill="#fff"/>
  </g>
  <path d="M516.38,682.74c.92-.28,1.96-.24,2.82.21,3.34,3.46.5,10.03-4.65,7.93-1.43-2.01-.72-7.36,1.83-8.15Z"/>
</svg>