<?xml version="1.0" encoding="UTF-8"?>
<svg id="Camada_1" xmlns="http://www.w3.org/2000/svg" version="1.1" viewBox="0 0 595.28 841.89">
  <!-- Generator: Adobe Illustrator 29.0.0, SVG Export Plug-In . SVG Version: 2.1.0 Build 186)  -->
  <path d="M.14,841.29V-.06h595v841.34H.14ZM590.54,3.89H4.08v379.92c4,.6,7.69,1.89,11.17,3.94-.51-5.28,3.24-10.9,7.22-14.15,7.17-5.85,18.06-6.22,26.31-2.29-.33-7.3,7.24-14.27,14.21-15.04,13.25-1.47,23.84,8.12,26.57,20.3,7.52-4.91,19.21-4.48,26.23,1.04,6.31,4.97,8.02,10.84,5.98,18.67,12.57-1.47,30.85,5.83,27.61,21.03,2.23.48,5.17.81,7.23,1.66,2.85,1.17,5.71,5.99,7.18,1.4-4.25-4.18-9.03-10.51-9.19-16.51-.2-7.8,4.69-11.27,7.18-17.85,3.98-10.51-3.45-17.26-2.46-28.1,1.14-12.47,9.66-17.56,13.74-27.67,4.85-12.03,4.25-26.09,8.2-38.47,20.95-65.7,138.97-67.83,155.83,3.28,3.61,15.24.92,30.5,5.41,44.55,2.03,6.34,6.03,14.22,6.11,20.9.09,8.07-5.43,15.91-5.92,23.64-.71,11.11,6.6,18.49-1.32,30.75-.4.61-1.56.11-1.32,1.11,25.94-9.45,51.57-29.97,80.2-15.77.66-3.99,3.34-8.34,6.62-10.9.18-1.93-3.02-3.7-3.67-6.17-3.65-13.98,11.73-22.83,23.93-21.14,1.16-12.7,15.4-20.44,27.07-17.36,2.55.67,4.5,2.62,7.2,2.33,3.07-17.91,32.62-20.2,39.46-3.95,11.13-13.66,35.38-6.35,36.17,11.47l-1.35,6.62c13.15-.2,28.14,8.22,23.03,23.31l11.83-1.31V3.89ZM328.47,281.01c-31.91-56.87-135.51-44.72-146.8,22.36-1.82,10.79-1.71,18.32-6.09,28.75-2.42,5.77-5.58,8.35-8.48,12.74-8.74,13.25-2.44,19.98-.81,32.22,1.46,10.98-7.32,15.57-7.74,24.78-.31,6.68,2.56,11.8,7.58,15.98,3.95-3.4,7.24-6.96,11.73-9.82,7.78-4.96,17.29-8.29,26.06-11.09-1.5-5.17-5.59-10.59-6.41-16.24-.51-3.47,1.3-5,2.81-1.48,10.2,23.66,20.23,40.96,47,48.98,32.96,9.87,57.94-1.5,71.11-32.8,3.53-8.39,4.78-18.43,6.47-27.34l-5.56,7.25-7.26,5.25c-7.28-6.44-14.61-12.83-24.97-13.19-2.98-.11-5.03,1.21-7.3,1.3-2.92.11-7.42-1.48-10.38-1.23-5.67.47-18.38,6.98-23.09,10.49-5.23,3.9-3.59,7.35-11.69,4.45-10.76-3.85-15.17-9.43-20.22-19.08-.23-.44-1.11-.5-1.48-1.31-2.35-5.01-3.18-11.55-4.42-16.92-1.85,1.72-14.32,10.65-15.77,9.2-.07-1.16-.19-2,.65-2.96,1.26-1.42,8.44-4.8,10.55-6.54,7.48-6.15,11.43-18.38,12.45-27.65.33-3-.6-6.17.61-9.1,10.42-4.1,19.83-9.14,28-16.86,6.01-5.68,9.66-10.79,13.41-18.15.98-1.92.83-3.89,3.03-5.5.8-.04,5.85,6.54,6.89,7.56,15.41,15.15,35.34,23.34,55.73,29.73,2.68,1.56,3.49,12.07,4.15,15.46,3.86,13.41,1.86,30.98-.12,44.75-1.73,12.04-4.15,27.47-9.6,38.36-.46.92-2.52,1.87-2.57,3.13-.07,2,2.58,2.25,3.73,3.25,3.83,3.33,6.89,7.66,11.15,10.58,5.17-2.08,7.12-6.36,9.21-11.07.15-.35,1.01-.32,1.26-.97,1.13-3.01.93-10.32-.02-13.43-.15-.49-1.03-.45-1.3-1.48-3.21-12.13,1.6-14.87,4.1-24.91,4.02-16.15-5.33-22.12-6.59-36.34-1.71-19.29.88-33.45-9.03-51.11ZM322.81,307.7c-14.84-4.87-31.07-10.43-43.86-19.59-6.05-4.33-10.94-10.2-16.81-14.73-7.77,14.78-19.63,26.12-34.73,33.65-1.68.84-6.92,1.68-7.58,3.59-.09,7.66-.89,15.94-3.93,23.02-1.68,3.91-3.92,4.18-4.11,9.06-.23,5.98,4.67,18.51,7.8,23.81,2.84,4.79,8.22,9.25,13.26,11.72,1.41.69,4.79,2.41,6.18,2.14.52-.1,6.53-5.95,8.06-6.98,2.71-1.83,8.53-4.79,11.61-6.14,1.74-.76,4.37-.76,5.7-1.54,1.05-.61,1.14-2.2,1.78-2.33,1.6-.32,8.13,1.46,11.08,1.4,16.28-.35,14.3-9.61,11.57-22.14-.53-2.42-5.34-16.71-4.69-17.33l2.2-.02c4.26,11.27,12.07,28.83,3.72,39.45,7.11,1.09,12.66,4.09,18.35,8.28,1.86,1.37,2.76,4.04,5.12,3.08.45-.19,4.07-3.17,4.57-3.7,9.44-10.01,9.31-32.43,8.12-45.44-.6-6.55-1.75-12.91-3.42-19.26ZM512.3,404.51v12.82c1.15.15,2.05-.08,3.1-.51,2.45-1.01,10.95-6.81,13-8.69,2.19-2.01,10.92-14.33,12.59-14.37,3.21-.07-.11,5.1-.36,6.87-2.47,17.42,24.52,17.83,28.91,5.9,1.27-3.46,1.81-9.47-.76-12.47-1.34-1.57-3.24-.24-2.6-3.27,15.14-3.26,13.21-19.91-.28-24.74-5.16-1.85-10.14-1.51-15.46-.64-1.14-2.35,1.16-3.44,2.07-5.46,6.37-14.05-11.89-25.24-23.59-18.98-3.25,1.74-5.39,5.26-8.42,7.25-2.64-3.28-2.79-6.29-6.67-8.98-11.71-8.11-29.71-2.89-30.47,12.38-4.16-.34-7.07-3.46-11.5-3.95-8.03-.88-17.94,2.79-20.53,11.03-.77,2.47-.53,4.82-1.47,7.1-7.72-1.28-17.33-.13-22.01,6.89-3.63,5.43-2.24,13.74,5.16,14.35,1.69,2.42-1.84,2.45-3.52,3.72-9.74,7.4-6.2,19.57,6.13,19.27,2.27-.05,11.05-4.19,9.58.92-.13.45-1.72.81-1.9,3.51-.38,5.65,5.79,9.44,10.87,10.02,6.68.77,10.32-1.83,15.66-5.17,2.42,3.66,6.52,6.55,10.89,7.22.38-1.89-1.5-2.41-2.17-3.45-4.02-6.15-7.2-11.59-11.64-17.42-.92-1.21-2.34-4.6-3.56-5.47-1.4-1-14.69-2.58-13.52-6.84.77-2.81,3.88.72,4.79,1.12,4.59,2,15.87,3.6,19.26-.74,1.31-1.68.45-3.33,1.92-4.66,1.33-.36,5.69,3.63,7.93,3.94,2.82.38,4.67-1.84,7.5-1.3-.3,3.76-3.07,1.42-2.47,6.72.38,3.29,1.9,3.72,2.43,4.96,1.27,3.03,1.89,6.74,4.32,9.34,4.67-10.37,5.98-22.02,6.46-33.33,2.36-3.08,6.42.52,10.14.96,3.09.37,5.51.3,8.29-1.24,1.02-.56,4.12-4.15,5.68-2.53,2.02,2.1-3.49,3.98-4.56,4.97-4.63,4.24-6.28,17.13-9.25,22.96ZM4.08,387.09v68.36l11.18-.66c-6.65-9.62-2.94-23.61,10.69-19.55,2.86.85,5.01,3.37,7.72,4.43-5.06-17.18,5.54-27.9,21.27-16.32,4.59,3.38,8.18,8.79,10.96,13.69l6.21-11.85c9.16-7.53,21.13-.9,21.4,10.54,1.43-.97,1.85-3,3.25-4.3,8.62-8.02,21.59-6.21,22.97,6.67.22,2.05-.28,3.25-.33,4.82-.07,2.74,3.76-.68,5.32-1.28,13.13-5.09,19.63.97,15.46,14.47l9.2-.65c.81-6.71,2.67-15.46,5.72-21.53.38-.75,1.25-.87,1.49-1.31.52-.97,3.31-6.06,3.31-6.42.03-3.37-10.89-5.96-13.74-6.3.74-8.28.01-12.27-7.11-16.89s-14.55-3.59-22.55-2.77c1.3-6.35,4.51-10.25.55-16.65-4.62-7.47-16.31-8.49-23.92-5.72-2.02.73-3.74,3.13-6.04,2.23-1.63-.65-1.56-4.47-2.3-6.33-3.49-8.81-11.8-15.75-21.84-14.23-6.06.92-8.37,5.7-10.28,10.62-.26.68-1.93.35-1.25,3.35.06.28,2.27.9,1.29,2.38-1.55,2.33-6.29-2.03-8.07-2.73-13.05-5.17-28.53,4.23-25.44,19.2-5.64.38-9.02-6.14-15.12-5.26ZM516.24,383.15l-10.52-1.31c.04,3.34-.24,6.8-.75,10.1-1.04,6.76-3.86,17.31-6.63,23.61-1.09,2.49-1.57,4.51-4.43,3.4-5.9-2.3-16.63-15.54-19.81-21.3l-7.18,1.95,11.83,18.56c8.7,7.82,7.58,21.91,10.81,31.45.53,1.56,1.96,1.44,2.24,2.33.44,1.41-.09,3.35.25,5.03.55,2.69,2.51,3.14,1.68,7.22-.77,3.74-4.19,4.43-4.77,5.7-.27.59.68,3.29.03,5.34-.58,1.84-2.81,2.78-3.34,3.93-.49,1.07.21,5.33.71,6.52.76,1.84,4.13,4.49,4.92,5.77,1.44,2.32,2.56,10.9,4.9,11.36,5.46,1.07,6.94-3.93,9.54-7.57-2.79-.81-4.92-1.35-6.35-4.16-3.18-6.26.67-22.13,2.47-29.18.13-.52,1.06-.54,1.2-1.03,2.15-7.83,2.4-15.86,8.99-21.78,2.01-1.81,6.75-3.47,8.54-5.26,1.1-1.1,4.05-5.82,5.55-7.78,4.2-5.47,7.33-11.42,13.72-14.92l-3.53-7.57c-3.9,5.94-17.46,17.4-24.41,17.74-4.18.2-3.1-11.55-2.8-14.7.66-6.9,2.67-11.33,5.36-17.01.45-.96,2.34-5.86,1.79-6.4ZM590.54,386.44c-7.16-.56-12.67,1.2-18.38,5.31,10,20.1-14.86,33.51-30.51,21.68-6.72,4.77-10.23,10.99-14.98,17.31-.42.55-4.2,2.67-.31,2.3,9.03-.87,23.43.18,29.33,8.29,1.31,1.8,2.11,5.39,2.97,6.24.71.7,2.22.68,2.65,1.29.81,1.15.09,6.77.36,8.84.31,2.37,1.8,5.02,2.27,7.59,1,5.52,4.08,19.69,2.64,24.38-.8,2.6-4.79,3.87-4.99,5.54l1.41,12.1,27.54,2.7v-123.57ZM490.19,410.53c-2.3-4.23-3.61-9.54-4.48-14.26-1.33-.05-7.9-2.53-8.27-2.31-2.27,1.32.23,5.02,1.33,6.45,2.02,2.62,8.05,9.34,10.52,11.36.43.35,2.47,1.83,2.64,1.63.6-1.64-1.47-2.4-1.72-2.86ZM420.67,404.46c-12.68-9.29-32.8-6.5-46.23-.39l-40.97,18.87c2.49,3.22,4.29,7,6.56,10.34,9.69,14.24,18.41,29.82,24.44,46.09,2.32,6.24,3.36,12.96,5.79,19.17l15.36,1.63c1.43-.14,7.85-16.95,12.27-17.11-.87-2.39-2.71-4.02-3.59-6.58-3.47-10.1,1.36-28.42,8.83-35.83,8.36-8.3,21.68-4.69,30.22,1.4,1.81,1.29,3.27,3.41,4.99,4.87-.52-7.42,2.62-5.85,6.49-8.62,1.14-.82,1.55-2.31,2.7-3.22,3.39-2.71,5.44-.47,8.55-.6,1.94-.08,3.48-1.65,5.26-1.7,2.91-.09,5.46,2.61,7.33,2.79,2.74.26,3.68-1.83,7.94.05s3.77,6.89,8.73,6.05c-1.06-2.88-.69-9.17-3.03-11.09-1.73-1.42-4.19-1.07-5.99-1.9s-5.61-3.9-7.14-4.11c-2.03-.28-6.65,2.96-9.8,3.3-9.09.99-21.28-4.14-19.4-15.12-5.66.8-11.45.66-15.8-3.59-1.41-1.37-1.9-3.5-3.51-4.68ZM206.54,399.6c-10.13,2.8-21.77,7.02-30.14,13.52-33.12,25.69-31.99,85.7-12,119.03,21.24,35.42,75.1,30.33,107.93,15.66,1.16-.52,6.38-3.08,6.94-3.59,2.07-1.88-.57-3.3-1.35-5.28-6.37-16.27-9.31-33.31-10.18-50.95-.28-5.56.19-11.19-.01-16.75-18.88,9.81-37.75,20.42-58.5,25.97-2.07.55-15.13,3.62-16.04,3.44-.71-.14-1.23-.99-1.71-1.51-.68-3.01,13.89-2.92,15.82-5.32l-4.69-25.4-1.27-.93c.74-3.64-2.22-10.44-1.22-13.57.5-1.56,2.56-1.59,3.03.04l6.72,38.96c2.38.15,4.67-.63,6.93-1.3,6.45-1.91,14.94-5.6,21.15-8.43,4.17-1.91,29.58-16.04,31.3-15.73.81.14,1.74,1.61,3.05,1.12,4.2-11,15.71-21.81,27.95-22.36,9.54-.43,17.32,4.06,25.81,7.44,1.2,5.86,6.7,2.98,8.27,9.14.81,3.19-.34,4.62-.07,6.64.19,1.41,1.35,2.28,1.25,4.76-.08,2.1-1.04,2.5-1.38,4.25,2.9-.59,5.83,1.59,8.22,3.29,4.03,2.87,7.5,7.23,11.88,9.82l.97,1.68-1.02,1.65c-3.09.63-11.34-11.02-15.43-11.17-.23,19.96-.84,44.62-18.4,57.51,17.5,8.05,45.64,2.48,49-19.36,1.74-11.27-3.2-26.49-6.72-36.73-8.99-26.17-21.85-52.3-42.62-71.11l-6.23-3.94c-3.3,6.74-10.47,13.84-16.88,17.64-2.21,1.31-9.98,3.76-11.24,4.86-.65.56-.83,2.95-1.57,4.05-.48.72-1.45.89-1.89,1.54-3.01,4.43-9.38,18.11-16.11,11.34-3.99-4.01-8.27-11.56-11.69-16.24-20.01-3.3-38.43-15.77-47.84-33.7ZM4.08,458.74v26.29c2.84-.48,6.03-1.06,8.88-1.31,36.52-3.2,73.35-4.11,109.78,0,7.8.88,15.48,2.92,23.35,3.28l2.63-28.93c-1.39.03-2.83-.14-4.22.06-2.37.33-8.08,4.32-9.27,2.58s11.05-21.66-6.25-17.44c-2.79.68-11.74,7.19-12.79,6.92-.99-.26-.81-1.21-.74-1.99.19-2.13,1.56-5.29,1.66-7.65.31-7.47-5.29-12.93-12.91-10.23-.99.35-6.29,4.56-7.04,5.45-1.99,2.35-2.45,7.32-6.29,6.53.39-6.81-1.35-16.41-9.7-16.93-9.6-.6-11.82,11.9-11.95,19.16-2.44,3.32-6.8-7.45-7.65-8.76-3.78-5.83-6.8-10.12-13.65-12.64-13.81-5.08-13.46,7.49-11.31,17.22.33,1.52,2.95,6.09,1.68,6.9-2.59,1.65-6-3.71-7.9-5.28-4.62-3.83-8.48-5.77-14.13-2.28-1.55,3.01-1.15,6.24-.16,9.37l7.04,11.98c-2.55,2.79-4.5-1.08-6.96-2.23-4.26-1.99-7.78-1.48-12.09-.07ZM280.87,433.77c-7.77,1.55-15.22,1.24-23.01,0l11.6,14.38c3.16.2,12.31-13.51,11.41-14.39ZM478.93,443.46c-1.5-1.41-.88-4.87-5.26-5.63-2.8-.48-3.95,1.39-5.72,1.21-1.41-.14-2.15-1.84-3.46-2.5-4.99-2.52-5.76,2.08-8.35,1.84-1.66-.15-2.4-2.38-5.15-1.89-2.53.45-2.87,2.98-4.44,4.16-2.13,1.59-4.95.5-5.19,3.99-.06.84.53,1.77.41,2.5-.19,1.2-2.44,2.4-1.73,4.6l1.58,1.1c3.72.44,6.73-4.27,2.3-3.97v-1.97c1.66-.45,3.85.74,5.29.38,1.33-.33,2.33-2.38,3.59-2.38,1.14,0,2.74,2.52,4.73,2.53,1.71,0,2.4-3.02,4.43-2.49,1.24.4.85,4.25,4.63,4.63,5.13.53,1.99-3.25,5.85-2.7,1.92,3.92,2.52,6.15,7.65,5.29,1.34,2.65-2.72,3-1.67,4.62,2.11,2.18,4.34.43,6.92.64.37,2.71-3.1,2.97-3.66,5.23-1.07,4.25,3.55,3.34,6.52,4.58l3.12-4.88c-.06-.68-2.94-3.74-3.24-4.76-.49-1.7.75-3.16.45-4.32-.2-.78-1.41-1.28-1.73-2.25-.34-1.03-.06-2.34-.44-3.5-1.35-4.11-5.86-2.6-7.43-4.07ZM555.69,447.56c-4.64-13.05-28.13-14.71-38.36-8.43-.77.47-7.01,5.53-4.7,5.81l43.06,2.62ZM439.82,454.94c-.19-.32-1.35-.48-1.73-1.19-1.57-2.89-.87-4.05-3.68-6.86-9.88-9.88-27.24-12.05-33.54,2.65-.98,2.28-2.17,4.7-3.06,6.82-2.94,7.01-3.35,18.92,3.05,24.07,8.75,7.04,24.87,6.68,29.06-5.33,2.25-1.45,3.71,1.53,4.45,1.42,2.3-.34,3.28-3.39,2.86-5.46-.86-4.31-5.48-1.33-6.8-3.1l-2.29-11.84c-2.86-.02-6.25.45-8.59-1.6-.83-.73-1.51-2.71-2.31-2.89-.68-.15-2.05.7-3.2.57-1.3-.14-7.33-1.2-7.59-2.34-.71-3.02,5.92-.23,7.54-.29,1.86-.07,3.35-1.32,5.2-1.31,1.8,4.4,5.61,7.91,9.92,3.91,1.13.25,2.37,9.73,3.22,11.61.33.74,5.24,3.37,5.99,3.52,1.33.26.88-.2.99-.99.27-1.93,1.15-10.27.5-11.36ZM509.11,450.1c.63,1.06,21.65,1.84,24.55,2.08,8.05.65,16.13,2.28,24.23,1.87,4.65-5.71-7.54-3.56-11.07-3.85-9.54-.78-19.3-2.31-28.91-2.65-2.96-.1-5.95.12-8.91.03.11.77-.25,1.93.1,2.53ZM476.29,459.25c-.94-.98-.46-3.25-1.16-4.43-.13-.22-3.8-3.14-4.05-3.2-1.27-.3-3.8.99-6.31.41-2.02-.46-3.16-2.8-4.16-2.99-.84-.16-2.93.67-4.53.55-1.37-.1-2.55-1.1-3.28-1.11-4.66-.05-4.59,6.69-9.58,6.69-.87,11.45-3.63,27.98,10.55,32.18,10.15,3,20.72.06,24.32-10.55,1.96-1.22,7.78,2.66,8.54-3.33.85-6.67-5.61-3.1-7.68-6.37-1.15-1.82-.58-5.01-.2-7.02-.73-.24-1.95-.29-2.47-.83ZM312.43,451.5c-2.86-2.53-7.93-2.9-11.53-2.64-15.2,1.08-22.2,14.26-29.7,25.16-.99,11.54.32,21.93,1.9,32.92.24,1.66,1.18,9.34,2.24,9.61,10.99-4.32,23.85-9.74,32.19-18.35,4.63-4.78,5.33-10.38,13.14-11.18,3.8-.39,15.62,1.99,14.8-3.59-2.96-5.76-13.23-3.51-18.44-2.02-3.23.92-6.82,3.47-10.2,3.66-7.47.41-7.39-7.74-2.08-11.33,6.1-4.12,15.31-6.47,22.59-6.86,1.27-.07,3.04.95,4.21.13,2.24-1.58-.56-5.25-2.51-6.12-7.33-3.28-17.7,2.14-24.4,5.5-2.48,1.24-7.05,4.94-9.11,5.36-8.33,1.69-10.75-6.46-5.1-11.68,1.52-1.41,8.05-4.71,10.19-5.58,3.62-1.47,7.92-2.83,11.83-2.97ZM509.66,452.82l-1.98.44c-1.71,7.53-2.97,15.21-4.62,22.75-.11.51-1.14.43-1.25.95-1.49,6.92-2.02,13.22,5.56,15.94l4.05-5.58c-9.32-10.82-2.79-22.36-1.76-34.51ZM513.18,484.15c7.61,8.59,24.55,7.14,30.96-2.45,4.56-6.82-1.2-17.84-.57-25.63l-31.28-3.24c.41,10.2-7.23,22.17.89,31.33ZM324.26,456.76c-4.31-4.75-13.72-2.91-19.21-1.13-3.56,1.16-15.48,6.62-14.22,11.18,1.49,5.41,11.35-3,13.91-4.26,1.53-.75,5.31-2.21,7.04-2.82,4.1-1.44,8.15-2.5,12.48-2.98ZM559.87,464.44c-.58-1.87-.58-6.19-2.23-7.32-1.21-.83-10.31-1.88-10.85-1.04-.6,4.32.23,9.69,1.05,14.02.1.52,1.15.45,1.26.93.27,1.11.24,6.49.07,7.8-.15,1.17-1.19.87-1.32,1.44-.51,2.23-1.72,6.64-1.9,8.56-.23,2.45,2.78,2.56,4.82,2.77,4.1.42,8.8-.05,12.51-1.94,1.79-2.7-1.2-20.13-2.27-24.06-.27-1-1.09-1.01-1.14-1.16ZM304.62,481.67c5.26.01,9.8-3.15,15.02-4.22,3.44-.71,9.03-.4,11.39-1.1.64-.19,1.12-.63,1.47-1.18,1.63-8.18-11.44-4.95-16-3.48-3.38,1.09-14.55,5.56-11.88,9.98ZM439.97,475.83c-1.97-.39-1.69,2.65-3.76,3.13l-6.08,1.14,11.15,11.5c.52-1.48,1.45-3.33,2.36-4.58.6-.83,2.23-.3,1.59-1.98-3.41-.95-4.69-6.1-5.26-9.22ZM483.37,482.4c1.19-1.3-1.6-3.45-3.28-2.62-.65,1.35,2.83,3.11,3.28,2.62ZM431.81,485.96c-1.11-.93-2.32-1.75-3.33-2.8-4.93,4.37-11.1,5.52-17.43,4.5,3.22,6.65,9.4,10.67,15.45,14.45l-.93-6.81,1.59-1.09c.92-.12,1.14.48,1.52,1.12,1.36,2.35,2.1,12.9,1.09,15.31-1.59,3.78-12.17,6.29-12.8,7.58l9,8.1c1.58.37,7.58-2.1,8.02-3.61-1.75-6.99.62-13.82,2.51-20.46.56-1.97,2.34-4.8,2.5-6.65.24-2.76-5.13-7.93-7.19-9.65ZM490.23,497.91c-1.74-4.21-6.58-14-11.91-14.07-.8-.01-5.85,4.97-8.29,5.92-2.76,1.08-6.82,1.81-9.66,1.18,2.26,7.14,10.1,11.12,16.11,15.11,1.78-2.8-2.77-9.07,1.63-9.85.57,1.25.35,2.99.71,4.1.2.61,1.17.28,1.32,1.44.19,1.43.21,7.2-.08,8.45-.11.47-.99.5-1.23.99-.34.71-.35,1.72-.79,2.35-1.86,2.67-6.8,3.84-9.79,5.03-.18.91-.14.84.42,1.36,2.98,2.81,5.17,4.49,7.24,8.42,3.55,1.02,15.66-7.19,16.82-10.62,1.46-4.35.06-14.63-1.53-19.02-.18-.5-.9-.61-.97-.79ZM4.08,488.32v349.03h586.45v-251.75c-5.79-.17-11.65.23-17.45.02-8.85-.31-18.11-.63-26.17-1.57-6.09-.71-12.21-2.39-18.43-2.43-.92,4.04-5.44,4.74-8.95,5.63-4.22,1.08-17.81,3.09-21.01.62-1.1-.85-1.03-2.81-1.78-2.98-2.08-.47-12.23,2.1-15.67,2.07-2.41-.02-9.07-.82-9.36-3.76.31-4.72,4.29-5.56,7.06-8.45l-4.92-1.65c-.16,4.82-.69,5.23-4.95,6.9-5.25,2.07-21.32,4.62-25.82,1.04-1.06-.84-.99-2.57-1.13-2.67-.29-.22-5.7,1.54-7.11,1.76-5.53.89-13.52,2.38-16.27-3.68-5.43,1.57-16.37,3.4-21.48,1.09-1.44-.65-1.84-2.13-3.48-2.45-5.27-1.02-14.96,3.83-18.78-3.64,2.18-6.35,9.4-8.25,15.23-9.92,1.39-7.34-4.86-3.46-6.73-8.32-2.46-6.39-2.51-19.97,1.53-25.69.55-1.79,6.69-4.13,6.5-5.35-.3-1.94-5.19-5.25-6.01-7.15-1.5-3.48-1.4-8.11.07-11.58-1.23.17-3.51-1.32-4.28-1.32h-10.19c2.86,14.59,3.47,29.03-9.92,38.39-13.82,9.66-35.58,9.41-49.24-.27-.47,6.85-3.92,11.47-9.2,15.45l40.05,28.96c10.59,9.77,23,18.29,29.62,31.51,9.7.1,19.54-.9,29.26-.33,27.04,1.59,60.36,13.96,78.83,34.24,5.25,5.76,8.69,14.11,13.52,19.35,2.79,3.03,8.22,4.96,11.52,7.55,9.94,7.8,16.78,20.27,20.84,31.78.63,1.8.48,5.81,1.52,7,.43.49,9.4,2.22,11.33,3.13,5.81,2.75,13.43,13.93,6.34,18.46-6.25,3.99-28.82,3.16-35.9.57-2.44-.89-3.6-3.25-4.92-3.65-2.46-.74-6.88,1.18-9.08,2.5-1.48,2.39,3.03,7.06-2.6,11.19-1.47,1.07-3.35,1.67-5.08,2.15-7.96,2.23-37.16,1.89-45.22-.52-2.81-.84-4.74-3.35-6.87-3.64-5.43-.74-16.93,1.17-23.07,1.31-17.08.38-35.46-.63-52.57-1.94-5.08-.39-16.45-2.86-20.36-2.59-2.53.17-11.35,4.24-15.32,5.06-22.31,4.61-68.12,5.69-88.91-3.45-9.13-4.01-6.35-10.39-4.28-18.07.68-2.5,1.59-5.35,2.95-7.57.12-.36-1.32-.71-1.81-.8-6.9-1.27-18.92-.31-26.77-.84-18.82-1.29-39.15-4.49-57.67-8.07-4.18-.81-28.1-5.61-29.74-7.07-.77-.69-1.61-3.26-2.05-3.29-6.35,3.52-15.34,10.21-22.92,9.85-2.52-.12-4.4-2.36-6.02-2.59-2.11-.3-4.86,1.86-8.52,1.35-2.43-.34-3.16-2.09-4.73-2.5-2.01-.52-4.23.16-6.28-.3s-3.99-3.23-5.77-4.09c-1.61-.78-3.06-.17-4.9-1.68-7.53-6.17,4.17-12.84,7.57-16.95,4.48-5.42,8.15-9.93,12.84-15.24,7.99-9.05,15.53-27.09,24.41-32.78,7.74-4.95,15.3-4.12,23.47-.71l6.91-8.41c-1.4-4.26-4.16-8.02-5.67-12.51-6.69-19.95-.59-38.3,7.26-56.21,1.38-3.14,5.51-10.96,4.95-13.8-.78-3.95-2.22-4.31-1.84-10.01.77-11.65,4.64-26.33,7.82-37,.39-1.32.39-3.31.71-4.75-12.19-1.06-24.3-3.5-36.49-4.6-25.76-2.32-55.07-2.18-80.86,0-7.99.67-15.99,2.15-24,2.62ZM399.83,522.46c.31-3.86,2.97-6.17,5.94-8.18.03-.92-12.73-8.65-7.47-10.15,3.7-.01,4.72,4.7,7.79,6.29,3.67-.43,9.07-2.34,12.55-2.4,2.01-.04,8.59,2.33,8.89-.98.08-.89-.11-1.33-.7-1.97-1.08-1.17-7.77-4.18-10.21-6.22-2-1.67-6.23-5.94-7.83-7.94-.94-1.18-.86-2.85-1.98-3.94-.45-.44-4.91-2.44-5.42-2.49-.71-.06-4.15,2.76-4.83,3.48-5.35,5.63-10.32,18.51-7.54,26,1.29,3.48,6.88,8.8,10.81,8.5ZM543.2,487.67c-.39-.41-6.6,4.28-7.02,4.8-2.61,3.16-4.59,11.25-11.52,8.18-4.88-2.16-4.24-10.91-9.4-10.96-3.55-.03-10.07,12.37-11.96,15.56-.39.66-1.24.86-1.5,1.31-2.04,3.61-5.61,11.54-5.32,15.6.12,1.67,3.23,7.2,3.99,5.26-.18-4.18,5.31-7.69,9.21-7.56l-3.27-2.95c.86-1.16,2.43-.69,3.16-2.09,1.44-2.78,1.8-9.51,3.31-13.1.51-1.22,2.69-4.19,4.04-2.89.16,6.31-3.42,11.75-4.6,17.74,11.26,3.07,24.58,1.75,29.72-10.05.25-.57,2.22-10.09,3.72-5.28,2.45,7.84-11.14,19.91-18.97,19.29.29,1.85,1.74,2.48,2.45,4.44.87,2.37.93,4.9.83,7.39,20.39-1.13,35.04-16.45,28.21-37.4-5.36-.31-17.31,1.22-15.06-7.29ZM455.54,491.19c-2.1-.99-5.21-.99-7.36-2.88-2.74-.04-6.67,9.16-7.57,11.5-2.52,6.58-4.54,13.59-3.92,20.72,2.93-2.7,5.45-4.91,9.8-4.65l2.68-17.69c.7,0,1.36-.18,2.01.29,2.42,1.76-1.48,13.39-1.38,16.45.11,3.27,2.68,5.82,3.32,8.89,2.43-2.44,4.85-4.65,8.09-6.03,2.26-.97,18.25-4.64,15.52-9.02-6.95-2.1-11.86-6.77-16.72-11.88-1.06-1.11-3.48-5.21-4.48-5.68ZM336.1,489.64c-5.33,1.59-14.47-.72-19.01,1.69-2.38,1.27-6.18,8.12-8.58,10.48-2,1.97-5.86,3.12-4.79,5.38,2.32,4.94,23.28,14.39,27.79,11.7,3.4-2.03,4.02-24.92,4.59-29.26ZM532.68,492.92l-9.85-.66c1.04,7.14,7.38,7.22,9.85.66ZM148.72,494.24c-1.98-.32-1.06.48-1.33,1.59-2.45,9.98-6.55,25.67-7.2,35.55-.72,10.89,5.51,14.43,14.24,19.26,33.68,18.64,93.3,20.96,129.59,9.51,13.18-4.16,30.05-11.44,22.46-27.96-2.41-5.24-3.46-9.78-3.85-16.02-.2-3.14,2.2-5.45-2.36-7.99l-10.53,5.75c-.85,7,.12,27.11-5.89,31.57-4.24,3.15-18.42,8.57-23.87,10.31-43.11,13.82-88.36,8.8-106-37.6-2.9-7.62-4.97-15.84-5.25-24ZM498.49,505.41h-2.62s.99,3.94.99,3.94l1.64-3.94ZM590.54,512.64l-26.95-1.97c2.31,10.62,3.19,21.37-1.31,31.54,3.26-.7,12.7-1.91,14.14,1.96,1.33,3.6-3.25.89-4.61.66-8.76-1.47-13.78,2.35-21.23,4.42-5.2,1.44-11.26,1.61-16.61,2.45-2.04,5.69,2.28,16.65-7.2,15.83l1.79,10.85,16.63,2.62-2.51-8.24,1.54-.99c4.03.84,2.01,10.57,5.85,9.86,1.66-.31,1.9-15.6,7.61-13.77-.68,2.15-5.13,12.43-3.91,13.76.11.12,2.76.69,3.25.4,2.11-3.12,4.98-7.43,8.87-8.26,1.07.21.89.8.34,1.64-.51.78-5.28,5.62-4.6,6.25l28.92,1.32v-70.33ZM422.88,511.33c-4.89-.27-9.76.32-14.46,1.64,2.94,5.22,8.87,1.53,13.01-.16.98-.4,1.78.39,1.44-1.48ZM330.18,522.5c-8.59-1.19-16.43-3.75-23.66-8.55-.75,5.43,3.28,24.01,9.12,25.32,6.04-.92,9.89-7.4,12.6-12.32.55-1.01,2.53-2.03,1.94-4.45ZM286.13,515.93l-10.57,3.68c.03,2.98,4.96,20.17,6.96,20.64,1.84.44,2.62-6.25,2.85-7.66.89-5.6.87-10.99.76-16.65ZM560.71,538.7c3.04-5.76,2.29-15.92.89-22.11-3.15,2.78-4,6.52-7.22,9.53-8.5,7.95-19.17,7.95-29.75,9.69-4.65.77-7.47,3.45-12.48,1.62-.86-.31-1.42-1.23-2.33-1.6-5.43-2.2-10.07-3.87-14.64-7.8-6.78,3.04-10.34,5.06-12.5,12.51-1.14,3.94-2.54,19.05.03,21.73.93.97,8.09,1.44,10.2,1.63,11.95,1.11,24.06.57,36.06.57,1.9-.62.89-6.73,1.09-8.77.23-2.3,1.04-4.56,1.37-6.84,7.03-1.12,18.77-1.05,24.58-5.33.58-.43,4.48-4.41,4.7-4.83ZM411.7,517.9c-1.95.23-4.83-.53-6.58.32-2.14,1.04-4.5,7.37-.35,6.93.95-.1,4.92-4.21,5.92-5.3.58-.64,1.29-.79,1-1.95ZM447.21,526.44c1.17-.89,4.12,6.43,4.6,2.94.08-.58-2.01-7.14-2.49-8.01-5.28-9.48-17.55,7.03-6.05,9.66l-.33-3.28c1.59,1.76,2.82,4.55,5.59,3.93l-1.31-5.25ZM516.24,521.18l-1.31-1.31c-.19,1.37-.07,1.5,1.31,1.31ZM420.91,527.1c.95-.91-4.34-6.91-6.16-6.41l-4.35,4.12,5.9-1.32c-.68.42-9.2,5.11-7.88,6.24l12.49-2.63ZM472.19,529.07c-3.79-10.21-12.14-10.97-17.74-1.63l7.55-3.61c.23,2-8.05,5.46-6.25,7.21s5.73-4.71,7.88-2.96l-3.28,3.61,11.83-2.63ZM525.91,524.66c-5.26-6.61-10.46.65-14.26,4.74l6.57-2.3c-.74,3.69-6.66,2.71-5.91,7.22,1.07,1.11,6.44-4.97,8.54-2.96-.13.8-6.66,3.09-5.25,4.27,2.06-1.21,9.26-1.99,10.53-2.94s.88-6.67-.21-8.04ZM493.89,525.78l-.98-3.27-2.95,1.97c-.1,1.24,3.75,1.49,3.94,1.3ZM508.35,532.36c-.49-3.4,1.78-5.95,3.94-8.24.59-2.63-7.53-2.51-8.41,2.82-.56,3.42,1.19,5.19,4.47,5.42ZM405.79,555.36l-.96-27.64c-5.7-.93-9.73-5.72-14.85-.99-7.04,6.51-5.5,16.52-4.14,25.2,1.19,2.73,16.67,3.35,19.95,3.42ZM489.28,527.1c-3.3-.41-5.33,2.07-8.52,2.98s-18.03,4.24-20.74,4.3-5.27-1.49-7.2-1.34c-1.17.09-2.14,1.12-3.35,1.26-3.51.38-6.49.33-9.45-1.65-1.09-.73-4.3-4.95-5.3-4.23,0,2.95-2.61,3.89-3.68,5.86-1.22,2.24-2.28,8.94-2.3,11.56-.01,1.45.79,9.02,1.21,10.02.39.92,1.01,1.6,1.96,1.98,3.56,1.4,17.42,3.31,21.54,3.44,4.39.14,20.29-.78,23.56-2.72,2.04-1.21.87-9.92,1.06-12.74.25-3.65,3.39-11.68,5.95-14.43,1.42-1.53,2.36-1.7,3.96-2.64.84-.5,1.66.12,1.3-1.63ZM431.43,527.76c-3.81,1.7-20.52,2.44-22.67,5.26-2.35,3.09-.64,18.59.39,22.92,5.82.61,11.93,1.5,17.68.07-1.49-7.23-1.76-14.17.8-21.21.99-2.7,2.74-4.53,3.79-7.05ZM368.97,617.14c-4.91-9.06-13.18-17.28-21.03-23.99-15.12-12.93-32.72-23.47-48.43-35.71-30.69,13.68-67.97,15.42-100.96,10.22-20.09-3.17-40.3-9.33-56.74-21.47-.56,0-4.45,8.74-5.04,10.04-6.07,13.39-12,30.95-9.56,45.95,4.53,27.85,35.94,46.24,60.94,53.44,5.01,1.44,11.53,2.01,16.24,3.48.86.27,2.45.45,2.18,1.75-.93,1.44-1.49.76-2.62.7-15-.86-36.74-9.67-49.4-17.69-4.08-2.58-7.47-6.02-11.74-8.3-9.29,17.91-15.28,36.28-13.85,56.89.25,3.58.91,7.26,3.14,10.16,33.66,6.89,67.8,12.36,102.24,12.35,3.7-.67,5.67-6.79,7.85-9.93,3.54-5.09,10.63-12.08,15.68-15.88,1.68-1.26,4.46-1.64,6.17-3.69,2.35-2.82,4.72-9.78,6.94-13.26,17.47-27.31,48.51-44.58,79.67-51.98,5.97-1.42,12.19-2.77,18.3-3.07ZM401.19,557.99l-8.55-.66c.31,4.6.5,7.18-4.61,8.22l4.99,6.27,8.16-3.98v-9.86ZM407.67,558.09l-4.22.52.32,6.33c5.04,1.56,5.55-3.15,3.9-6.85ZM421.12,565.7c-.74-1.61.52-5.17-.83-6.11l-8.59-.29-.35,5.87-4.9,3.33c2.96.71,6.26,2.59,6.65,5.83,3.3.66,5.91-2.06,9.03-2.63.24-.38.25-4.64.07-5.37-.11-.47-1.01-.46-1.09-.63ZM430.62,560.12c-7.33-2.64-7.35.85-5.15,6.79l5.96.29-.81-7.08ZM444.14,569.64c-.8-1.73.57-5.81-.83-6.77l-8.58-1.6c.03,5.57,1.38,8.24-5.26,8.87,3.07,1.89,6.51,1.8,7.31,6.17,3.24.25,9.55-2.06,8.45-6.04-.13-.48-1.01-.46-1.08-.64ZM480.05,561.31l-7.57,1.9.68,6.64c1.75.41,11.03,3.46,11.82,3.26,1.21-.3.59-5.21.27-6.15-.4-1.2-6.08-1.49-5.21-5.64ZM457.07,563.9c-2.08.81-7.61-.85-8.84-.61-1.78.34.31,5.6-.36,7.19l9.11-1.41.1-5.17ZM469.53,563.29l-9.83.61-.32,7.24-5.59,1.96c4.07-.04,5.91,2.93,8.18,5.73,11.13-1.32,8.64-6.63,7.56-15.54ZM497.76,567.26l-9.8-.73c-.78.8,2.15,7.02-1.03,9.15-1.49,1-4.04-.12-3.57,2.01,4.75.21,3.79,5.66,8.69,5.12,10.25-1.14,5.6-8.2,5.7-15.56ZM509.67,575.08l-.62-7.6-8.59-.28.65,8.54,8.55-.66ZM523.48,567.19h-11.18s.04,7.18.04,7.18l2.59,1.37-5.91,3.28c2.59.44,5.34,3.41,5.99,5.84,1.19.79,9.53-1.73,9.82-3.02l-1.34-14.65ZM389.35,572.45c-1.11-4.55-7.95-5.31-10.51-1.63l5.66,1.55,4.85.08ZM425.51,570.48c.47-.92-.42-1.75-.64-1.31-.47.92.42,1.75.64,1.31ZM399.54,575.08c3.23.5,7.48-.36,10.85,0,.4-1.54-.38-1.11-.84-1.51-3.8-3.33-7.66-3.45-11.64-.45-.64.98.87,1.84,1.63,1.96ZM422.88,577.71h11.18c-.64-5.26-11.79-6.92-11.18,0ZM457.73,579.68c.83-2.49-5.16-4.64-6.92-4.62-2.61.02-4.8,1.91-4.26,4.62h11.18ZM503.75,576.4h-2.62v1.31h2.62v-1.31ZM486,583.62c-1.12-4.77-8.68-5.55-11.17-1.62-.63,2.86,9.66,1.43,11.17,1.62ZM511.64,585.6c-1.81-5.59-8.48-6.06-11.83-1.63-.25.56.78,1.63.98,1.63h10.85ZM491.01,670.63c-4.13-4.46-6.53-11.27-10.66-15.96-51.64-58.56-168.19-41.71-209.1,22.52-.45.71-3.18,6.02-2.87,6.33,38.08-15.96,69.6,20.5,72.05,55.95,1.75,1.25,13.92,2.25,17.04,2.55,9.15.88,19.74,1.67,28.9,2,13.79.5,33.18.79,46.72-.68,4.11-.45,3.98-4.22,6.35-7.45,12.3-16.73,39.32-14.1,54-1.88,1.43-1.18,10.52-3.48,10.85-3.95.35-.5.11-2.01.64-2.96,3.91-7.07,10.8-10.02,18.56-10.71-.5-6.37-2.63-12.9-5.36-18.64-2.56-5.38-8.77-13.66-13.38-17.51-4.29-3.57-9.95-5.54-13.73-9.61ZM133.33,649.1c2.22-5.38,4.5-10.77,7.35-15.86l-5.43-6.06c-3.14,1.94-5.74,4.74-7.84,7.77-9.81,14.17-14.7,34.9-12.13,52.11,1.29,8.64,2.37,13.71,12.09,14.87.12-3.65-1.42-7.58-1.68-11.46-.94-13.86,2.56-29.01,7.65-41.36ZM121.51,639.25c.52-.84,1.94-2.79,1.3-3.73-11.18-4.97-20.38-.8-26.96,8.63-3.17,4.53-5.13,10.91-8.26,15.23-3.49,4.84-9.96,10.08-13.82,14.63-3.02,3.56-6.72,10.78-9.41,13.27-1.44,1.33-8.75,4.41-6.43,7.79,4.59,6.71,15.26-4.85,17.47-4.29,2.38.6-1.45,4.16-2.31,4.89-1.9,1.6-4.42,2.74-6.55,3.98,2.52,3.6,6.89,1.81,10.31.46,1.73-.68,7.8-5.01,8.75-4.07.55,4.29-5.33,5.24-7.88,7.56,6.16,2.58,12.77-3.55,18.09-6.26l1.62.99-6.56,6.24c4.32,2.83,23.51-6.57,23.52-10.04.01-2.64-2.26-8.83-2.51-12.6-.85-12.69,2.99-32.04,9.63-42.67ZM328.48,710.22c-23.02-39.13-65.1-34.73-87.59,2.04-3.1,5.08-6.63,11.96-7.84,17.8-2.33,11.28,2.34,11.81,12.41,14.18,23.02,5.41,62.68,5.38,85.38-1.21,1.74-.51,7.05-1.92,7.19-3.89.15-2.12-2.61-13-3.43-15.65-1.47-4.75-3.72-9.2-6.11-13.27ZM522.67,719.22c-5.69.71-15.22,4.71-15.63,11.37-.43,7.19,19.13,7.17,24.01,6.88,6.06-.37,16.89-1,13.05-9.16-3.41-7.26-14.07-10.01-21.44-9.08ZM491.05,736.98c-10.57-13.24-41.22-13.72-50.04,1.81-2.56,4.51-2.46,6.67,2.87,8.2,8.33,2.39,33.67,2,42.38.23,5.82-1.18,9.22-4.69,4.79-10.24Z"/>
  <rect x=".14" y="841.29" width="595" height=".66" fill="#fff"/>
  <path d="M590.54,3.89v379.26l-11.83,1.31c5.11-15.09-9.88-23.52-23.03-23.31l1.35-6.62c-.79-17.82-25.04-25.13-36.17-11.47-6.84-16.25-36.39-13.96-39.46,3.95-2.7.29-4.65-1.66-7.2-2.33-11.67-3.08-25.92,4.66-27.07,17.36-12.2-1.69-27.58,7.16-23.93,21.14.65,2.48,3.85,4.25,3.67,6.17-3.28,2.55-5.96,6.91-6.62,10.9-28.63-14.2-54.26,6.31-80.2,15.77-.24-1,.92-.5,1.32-1.11,7.92-12.26.61-19.64,1.32-30.75.49-7.73,6.02-15.57,5.92-23.64-.08-6.68-4.08-14.56-6.11-20.9-4.49-14.05-1.8-29.31-5.41-44.55-16.86-71.11-134.87-68.98-155.83-3.28-3.95,12.38-3.35,26.44-8.2,38.47-4.08,10.11-12.6,15.2-13.74,27.67-.99,10.83,6.44,17.59,2.46,28.1-2.49,6.58-7.38,10.05-7.18,17.85.16,6,4.94,12.33,9.19,16.51-1.48,4.58-4.33-.23-7.18-1.4-2.06-.85-5-1.17-7.23-1.66,3.25-15.2-15.04-22.5-27.61-21.03,2.04-7.83.33-13.7-5.98-18.67-7.02-5.52-18.71-5.95-26.23-1.04-2.72-12.19-13.32-21.78-26.57-20.3-6.97.78-14.54,7.74-14.21,15.04-8.25-3.93-19.14-3.57-26.31,2.29-3.98,3.25-7.73,8.87-7.22,14.15-3.48-2.05-7.17-3.34-11.17-3.94V3.89h586.45ZM490.24,110.66c-4.59,8.23-11.94,15.32-21.33,17.79-1.88.49-7.58.61-8.58,1.28-3.31,2.2,5.03,7.5,6.67,8.5,33.92,20.67,77.99-7.59,66.94-47.86-5.88-21.4-27.87-31.96-48.96-30.64-2.49.15-12.19.96-12.16,4.3,3.31,5.07,8.93,5.33,13.16,10.53,8.58,10.57,11.05,23.89,4.26,36.1ZM102.03,81.45c-11.34-13.9-29.61-19.54-46.02-10.86-9.19,4.86-15.13,13.27-15.19,23.92-2.95.87-6.15-.22-9.45.1-8.52.81-16.73,9.66-17.45,18.04-.21,2.48-.11,12.55,2.43,13.39l178.34-.93c8.72-21.28-8.63-40.43-30.44-37-3.63.57-6.76,2.31-10.27,3.2-.21-27.6-40.92-33.25-51.95-9.86ZM386.32,136.42c-2.88-4.66-5.24-7.81-10.19-10.53-17.83-9.81-43.96-.28-43.98,21.95-21.42-7.16-42.24,12.05-31.56,33.2h147.28c.78-.38,1.64-1.92,1.83-2.78,2.83-12.85-11.06-23.5-22.86-18.59-1.72-13.83-16.55-24.36-30.25-20.05-1.26.4-6.88,3.93-7.23,3.61-.13-1.79-.77-3.75-1.6-5.33-.55-1.04-1.27-1.2-1.44-1.48ZM491.03,229.58c-2.42-2.11-4-4.48-6.34-6.49-16.93-14.59-53.69-8.49-57.87,16.12-12.55-5.3-31.99.42-35.86,14.43-1.81,6.57-1,18.22,7.89,18.46l160.81-.97c3.2-1.07,2.81-8.32,2.52-11.14-.46-4.51-5.11-11.56-8.92-14.09-5.84-3.88-12.76-4-19.28-2.08.84-21.34-29.23-27.52-41.1-12.49-1.16.28-1.29-1.23-1.87-1.73ZM117.83,245.78c-4.27-26.63-46.3-25.56-49.98.66-5.18-2.03-9.76-3.28-15.45-2.63-8.68.99-16.33,11.4-15.28,19.87.23,1.86,1.42,6.05,3.45,6.42l105.07-.13c11.79-14.11-5.07-30.79-20.74-26.65-2.27.6-4.42,2.66-7.07,2.46Z" fill="#fff"/>
  <path d="M4.08,488.32c8.01-.47,16.02-1.95,24-2.62,25.79-2.18,55.1-2.32,80.86,0,12.19,1.1,24.3,3.54,36.49,4.6-.32,1.44-.32,3.43-.71,4.75-3.18,10.67-7.05,25.35-7.82,37-.38,5.7,1.06,6.06,1.84,10.01.56,2.85-3.57,10.66-4.95,13.8-7.85,17.91-13.96,36.26-7.26,56.21,1.51,4.49,4.27,8.25,5.67,12.51l-6.91,8.41c-8.17-3.41-15.73-4.24-23.47.71-8.89,5.69-16.42,23.73-24.41,32.78-4.69,5.32-8.37,9.82-12.84,15.24-3.4,4.12-15.1,10.78-7.57,16.95,1.84,1.51,3.28.9,4.9,1.68,1.78.86,3.7,3.63,5.77,4.09s4.27-.23,6.28.3c1.57.41,2.3,2.16,4.73,2.5,3.66.51,6.41-1.65,8.52-1.35,1.62.23,3.5,2.47,6.02,2.59,7.59.36,16.57-6.34,22.92-9.85.44.03,1.28,2.61,2.05,3.29,1.64,1.46,25.56,6.26,29.74,7.07,18.52,3.58,38.85,6.78,57.67,8.07,7.85.54,19.87-.42,26.77.84.49.09,1.93.44,1.81.8-1.36,2.22-2.28,5.07-2.95,7.57-2.07,7.68-4.85,14.06,4.28,18.07,20.8,9.14,66.6,8.06,88.91,3.45,3.97-.82,12.79-4.88,15.32-5.06,3.91-.27,15.28,2.2,20.36,2.59,17.11,1.31,35.49,2.32,52.57,1.94,6.14-.14,17.64-2.05,23.07-1.31,2.13.29,4.06,2.8,6.87,3.64,8.06,2.41,37.26,2.75,45.22.52,1.73-.49,3.61-1.08,5.08-2.15,5.64-4.13,1.13-8.8,2.6-11.19,2.21-1.32,6.62-3.23,9.08-2.5,1.32.4,2.48,2.76,4.92,3.65,7.08,2.58,29.65,3.42,35.9-.57,7.08-4.53-.53-15.71-6.34-18.46-1.93-.91-10.89-2.64-11.33-3.13-1.04-1.19-.89-5.2-1.52-7-4.05-11.5-10.89-23.97-20.84-31.78-3.29-2.59-8.73-4.51-11.52-7.55-4.83-5.24-8.27-13.59-13.52-19.35-18.47-20.28-51.8-32.65-78.83-34.24-9.71-.57-19.56.43-29.26.33-6.62-13.22-19.03-21.74-29.62-31.51l-40.05-28.96c5.28-3.98,8.73-8.6,9.2-15.45,13.67,9.68,35.43,9.93,49.24.27,13.39-9.36,12.78-23.81,9.92-38.39h10.19c.77,0,3.05,1.49,4.28,1.32-1.47,3.47-1.57,8.1-.07,11.58.82,1.9,5.71,5.21,6.01,7.15.19,1.22-5.96,3.56-6.5,5.35-4.04,5.73-4,19.31-1.53,25.69,1.87,4.86,8.13.98,6.73,8.32-5.82,1.68-13.04,3.58-15.23,9.92,3.83,7.47,13.52,2.61,18.78,3.64,1.63.32,2.04,1.8,3.48,2.45,5.11,2.31,16.05.49,21.48-1.09,2.75,6.06,10.74,4.56,16.27,3.68,1.41-.23,6.82-1.99,7.11-1.76.14.11.07,1.83,1.13,2.67,4.51,3.58,20.57,1.03,25.82-1.04,4.26-1.68,4.79-2.09,4.95-6.9l4.92,1.65c-2.77,2.89-6.75,3.73-7.06,8.45.29,2.95,6.96,3.75,9.36,3.76,3.44.02,13.6-2.55,15.67-2.07.75.17.68,2.13,1.78,2.98,3.21,2.47,16.79.46,21.01-.62,3.51-.9,8.02-1.59,8.95-5.63,6.22.04,12.34,1.72,18.43,2.43,8.06.95,17.32,1.26,26.17,1.57,5.8.2,11.65-.2,17.45-.02v251.75H4.08v-349.03ZM45.39,518.01c-.62-.38-2.75-.68-2.53.87.2,1.41,1.41,2.68,1.8,4.12s1.67,10.02,2.48,10c3.87-1.05-.8-14.41-1.76-14.99ZM51.51,532.92c.13.2,1.66.61,2.15.71.74-.15,2.43-5.99,3.11-7.43.85-1.78,3.14-4.58,3.53-5.68,1.63-4.57-3.79.13-5.07,2.17-1.62,2.59-1.66,4.64-2.56,7.18-.15.42-2.36,1.17-1.17,3.05ZM39.85,531.46c-1.64-4.1-3.96-10.09-9.47-9.61-.57,2.48,1.84,2.55,2.98,3.91,1.56,1.87,4.59,8.21,5.01,8.46,1.85,1.09,3.29-.08,2.31-2.33-.08-.18-.76-.24-.83-.43ZM101.84,572.9c3.15-2.82,1.24-9.02-1.11-11.95-7.36-9.16-22.81-11.31-31.9-3.63-1.52,1.28-3.64,4.58-4.65,5.21-3.2,1.98-8.64.46-12.71,5.04-6.88,7.76,3.96,10.84,10.14,10.86s11.14-2.97,15.79-3.36c3.05-.25,6.49.73,9.89.69s12.25-.8,14.55-2.87ZM528.08,635.55v-15.45c0-.3-1.06-3.81-1.28-3.98-.98-.74-2.66.07-2.66.69v12.49c0,1.21,1.29,4.24.72,6.18l3.23.07ZM520.84,636.21c1.62-4.35-8.86-15.97-12.14-15.11-4.31,1.13,4.98,6.92,5.85,7.93.79.91,4.48,9.03,6.29,7.18ZM537,632c.55-.96.7-2.03,1.3-2.99,1.46-2.35,3.6-4.32,4.91-6.28s-1.38-1.98-3-1.02c-.25.15-4.08,3.58-4.25,3.81-1.12,1.49-5.48,11.4-.97,10.02.64-1.22,1.34-2.38,2.02-3.55ZM52.5,625.26c-.96-1.29-4.32-4.77-4.93-1.32,1.31,2.46,2.46,4.99,3.67,7.5.34.71,1.2.74,1.44,1.35.72,1.78.28,9.92,3,9.34,2.67-4.09-.47-13.23-3.18-16.87ZM69.17,626.35c-6.56-2.45-13.08,15.39-8.21,16.43,2.14.45,1.93-5.46,2.35-6.71.18-.56.97-.56,1.19-1.04,1.53-3.27,3.37-5.48,4.67-8.67ZM32.76,629.03c-3.62,1.08,3.74,5.13,4.84,6.2,1.3,1.25,6.37,8.18,6.91,8.2,3.28.13-2.12-8.64-2.96-9.51-1.33-1.38-6.99-5.42-8.79-4.88ZM108.48,736.97c-8.19.89-18.81,6.21-18.3,15.88.34,6.48,7.14,7.47,12.27,8.16,7.33.98,26.46,1.65,32.43-2.25,5.26-3.43,3.66-10.99-.33-14.72-6.68-6.24-17.23-8.04-26.07-7.07ZM51.64,763.27c-3.25,5-1.69,9.1,3.26,11.76,6.18,3.32,29.14,2.88,35.55-.22,5.94-2.87,4.19-8.08.75-12.41-8.87-11.16-31.55-11.45-39.56.87ZM191.22,771.41c.48-1.98,2.3-8.23-1.1-7.37-2.73,1.79-3.84,15.26-3.27,18.42.36,1.99,2.53,2.12,2.63,1.31.04-3.69-.16-8.09.69-11.67.12-.49,1-.52,1.04-.69ZM498.33,766.53c-2.56.35-6.77,2.07-8.73,3.76-3.01,2.6-5.55,8.75-1.62,11.5,3.65,2.55,17.96,2.39,22.52,1.5,14.18-2.77,5.42-14.19-3.69-16.37-2.88-.69-5.54-.79-8.47-.39ZM351.87,786.73c1.34-3.06-2.89-19.8-6.24-19.7-.12,0-1.41,1.25-1.45,1.62-.04.42,2.77,6.07,3.26,7.73.31,1.06,1.86,13.04,4.43,10.36ZM179.39,775.78c-.62-.93-4.16-4.97-5.08-5.76-.82-.7-4.62-3.6-5.2-1.36-.37,1.42,4.13,4.65,5.41,6.41,2.71,3.75,2.93,7.88,6.09,10.98,2.23-2.38.33-7.95-1.22-10.28ZM206.15,774.48c.71-.83,2.59-1.27,2.95-2.65,1.49-5.69-7.92,2.58-8.75,3.74-1.01,1.42-4.53,8.1-1.99,9.18,2.17.92,2.32-3.69,3.18-5.03.58-.9,3.56-4.02,4.61-5.25ZM369.63,769.65c-4.42-.19-7.82,4.13-9.67,7.74-1.4,2.73-3.3,7.05-2.15,10,2.34,1.57,4.11-5.98,5.07-7.71,1.2-2.16,4.43-5.21,5.79-7.39.54-.86,1.33-1.25.97-2.64ZM340.33,781.19c-2.35-3.28-4.95-6.86-9.48-6.95-.71,3.4,1.03,2.33,2.59,3.63.99.83,2.16,1.95,3,2.93,1.54,1.81,3.79,7.72,5.87,7.23,3-.7-1.23-5.79-1.98-6.84Z" fill="#fff"/>
  <path d="M368.97,617.14c-6.11.31-12.33,1.66-18.3,3.07-31.16,7.41-62.2,24.67-79.67,51.98-2.23,3.48-4.59,10.44-6.94,13.26-1.71,2.05-4.49,2.43-6.17,3.69-5.05,3.79-12.13,10.79-15.68,15.88-2.18,3.14-4.15,9.25-7.85,9.93-34.44,0-68.59-5.47-102.24-12.35-2.23-2.89-2.89-6.58-3.14-10.16-1.43-20.61,4.56-38.97,13.85-56.89,4.26,2.28,7.66,5.71,11.74,8.3,12.66,8.03,34.4,16.84,49.4,17.69,1.12.06,1.69.74,2.62-.7.27-1.3-1.32-1.48-2.18-1.75-4.71-1.47-11.23-2.04-16.24-3.48-25-7.21-56.41-25.6-60.94-53.44-2.44-15,3.49-32.56,9.56-45.95.59-1.31,4.48-10.04,5.04-10.04,16.44,12.14,36.64,18.31,56.74,21.47,32.99,5.2,70.27,3.46,100.96-10.22,15.71,12.24,33.31,22.78,48.43,35.71,7.84,6.71,16.12,14.93,21.03,23.99ZM294.25,614.95c-6.07-7.68-17.75-20.78-26.28-25.32-2.35-1.25-4.95-1.1-3.38,1.75.37.68,9.12,6.69,10.68,8.05,2.67,2.34,6.89,6.04,9.24,8.51,3.17,3.32,6.88,9.88,9.72,12.29,2.63,2.24,4.02-.52,2.36-3.33-.66-1.12-1.83-1.31-2.33-1.94Z" fill="#fff"/>
  <path d="M491.01,670.63c3.77,4.07,9.44,6.04,13.73,9.61,4.62,3.85,10.82,12.13,13.38,17.51,2.73,5.74,4.85,12.27,5.36,18.64-7.76.69-14.65,3.64-18.56,10.71-.52.94-.29,2.46-.64,2.96s-9.43,2.77-10.85,3.95c-14.68-12.21-41.7-14.85-54,1.88-2.37,3.22-2.24,7-6.35,7.45-13.53,1.47-32.92,1.18-46.72.68-9.15-.33-19.75-1.13-28.9-2-3.11-.3-15.29-1.3-17.04-2.55-2.45-35.44-33.97-71.91-72.05-55.95-.32-.31,2.41-5.62,2.87-6.33,40.91-64.23,157.45-81.09,209.1-22.52,4.13,4.69,6.53,11.5,10.66,15.96Z" fill="#fff"/>
  <path d="M206.54,399.6c9.42,17.93,27.84,30.4,47.84,33.7,3.42,4.68,7.7,12.23,11.69,16.24,6.73,6.76,13.09-6.91,16.11-11.34.44-.65,1.41-.82,1.89-1.54.74-1.1.92-3.49,1.57-4.05,1.26-1.1,9.03-3.55,11.24-4.86,6.41-3.8,13.58-10.9,16.88-17.64l6.23,3.94c20.77,18.8,33.63,44.94,42.62,71.11,3.52,10.24,8.46,25.45,6.72,36.73-3.36,21.84-31.5,27.41-49,19.36,17.56-12.89,18.17-37.55,18.4-57.51,4.09.15,12.34,11.8,15.43,11.17l1.02-1.65-.97-1.68c-4.38-2.59-7.85-6.95-11.88-9.82-2.38-1.7-5.32-3.88-8.22-3.29.34-1.75,1.3-2.15,1.38-4.25.1-2.48-1.07-3.35-1.25-4.76-.27-2.02.89-3.45.07-6.64-1.57-6.16-7.07-3.29-8.27-9.14-8.49-3.37-16.27-7.87-25.81-7.44-12.24.56-23.75,11.37-27.95,22.36-1.31.49-2.25-.98-3.05-1.12-1.73-.31-27.13,13.83-31.3,15.73-6.21,2.83-14.7,6.53-21.15,8.43-2.25.67-4.55,1.45-6.93,1.3l-6.72-38.96c-.47-1.63-2.53-1.6-3.03-.04-1,3.13,1.96,9.93,1.22,13.57l1.27.93,4.69,25.4c-1.93,2.4-16.5,2.31-15.82,5.32.47.51,1,1.36,1.71,1.51.91.18,13.97-2.89,16.04-3.44,20.75-5.55,39.62-16.16,58.5-25.97.21,5.56-.26,11.19.01,16.75.87,17.64,3.82,34.68,10.18,50.95.78,1.98,3.41,3.4,1.35,5.28-.56.51-5.78,3.07-6.94,3.59-32.83,14.67-86.69,19.76-107.93-15.66-19.98-33.32-21.12-93.34,12-119.03,8.38-6.5,20.01-10.72,30.14-13.52Z" fill="#fff"/>
  <path d="M328.47,281.01c9.91,17.66,7.31,31.82,9.03,51.11,1.26,14.22,10.61,20.18,6.59,36.34-2.5,10.04-7.31,12.79-4.1,24.91.27,1.03,1.15.99,1.3,1.48.96,3.11,1.15,10.43.02,13.43-.25.65-1.1.62-1.26.97-2.09,4.71-4.04,8.99-9.21,11.07-4.27-2.92-7.32-7.26-11.15-10.58-1.16-1.01-3.8-1.26-3.73-3.25.04-1.26,2.11-2.22,2.57-3.13,5.44-10.89,7.87-26.32,9.6-38.36,1.97-13.77,3.98-31.35.12-44.75-.65-3.39-1.47-13.9-4.15-15.46-20.39-6.39-40.32-14.58-55.73-29.73-1.04-1.03-6.09-7.6-6.89-7.56-2.2,1.62-2.05,3.58-3.03,5.5-3.75,7.35-7.4,12.46-13.41,18.15-8.16,7.72-17.57,12.75-28,16.86-1.2,2.93-.28,6.1-.61,9.1-1.02,9.27-4.97,21.49-12.45,27.65-2.12,1.74-9.3,5.12-10.55,6.54-.84.96-.72,1.8-.65,2.96,1.45,1.45,13.92-7.48,15.77-9.2,1.24,5.37,2.07,11.92,4.42,16.92.38.81,1.25.87,1.48,1.31,5.05,9.66,9.46,15.23,20.22,19.08,8.1,2.9,6.46-.55,11.69-4.45,4.71-3.51,17.42-10.02,23.09-10.49,2.96-.25,7.46,1.34,10.38,1.23,2.27-.08,4.31-1.41,7.3-1.3,10.36.37,17.69,6.76,24.97,13.19l7.26-5.25,5.56-7.25c-1.69,8.91-2.94,18.96-6.47,27.34-13.17,31.3-38.14,42.67-71.11,32.8-26.77-8.01-36.81-25.31-47-48.98-1.52-3.52-3.32-2-2.81,1.48.83,5.65,4.91,11.07,6.41,16.24-8.77,2.8-18.28,6.13-26.06,11.09-4.49,2.86-7.78,6.42-11.73,9.82-5.02-4.18-7.89-9.3-7.58-15.98.42-9.21,9.2-13.8,7.74-24.78-1.63-12.24-7.94-18.97.81-32.22,2.9-4.39,6.05-6.96,8.48-12.74,4.38-10.43,4.27-17.96,6.09-28.75,11.29-67.07,114.89-79.23,146.8-22.36ZM295.21,385.24c-1.44-2.49-14.76-5.48-17.95-5.42-3.47.07-19.63,3.17-15.1,8.59,1.38.39,5.04-3.38,7.06-4.1,4.28-1.52,12.04-1.56,16.42-.33,3.93,1.1,5.52,4.89,9.7,3.1-.05-.59.19-1.3-.13-1.84Z" fill="#fff"/>
  <path d="M512.3,404.51c2.96-5.83,4.62-18.72,9.25-22.96,1.08-.99,6.58-2.87,4.56-4.97-1.56-1.62-4.67,1.97-5.68,2.53-2.78,1.53-5.2,1.61-8.29,1.24-3.72-.44-7.78-4.05-10.14-.96-.48,11.3-1.79,22.96-6.46,33.33-2.43-2.6-3.05-6.31-4.32-9.34-.52-1.25-2.05-1.67-2.43-4.96-.61-5.3,2.17-2.96,2.47-6.72-2.84-.54-4.68,1.69-7.5,1.3-2.24-.3-6.6-4.3-7.93-3.94-1.48,1.33-.61,2.98-1.92,4.66-3.39,4.34-14.67,2.74-19.26.74-.9-.39-4.02-3.92-4.79-1.12-1.16,4.26,12.12,5.84,13.52,6.84,1.22.87,2.64,4.26,3.56,5.47,4.43,5.83,7.62,11.27,11.64,17.42.68,1.04,2.55,1.56,2.17,3.45-4.37-.66-8.47-3.55-10.89-7.22-5.34,3.34-8.98,5.94-15.66,5.17-5.08-.58-11.26-4.37-10.87-10.02.18-2.7,1.77-3.06,1.9-3.51,1.47-5.11-7.31-.98-9.58-.92-12.33.3-15.88-11.87-6.13-19.27,1.68-1.27,5.21-1.3,3.52-3.72-7.4-.62-8.78-8.92-5.16-14.35,4.68-7.02,14.29-8.18,22.01-6.89.94-2.28.69-4.63,1.47-7.1,2.59-8.25,12.5-11.92,20.53-11.03,4.43.49,7.34,3.61,11.5,3.95.76-15.27,18.75-20.5,30.47-12.38,3.88,2.69,4.03,5.69,6.67,8.98,3.03-1.99,5.17-5.51,8.42-7.25,11.7-6.26,29.96,4.93,23.59,18.98-.92,2.02-3.21,3.12-2.07,5.46,5.32-.87,10.3-1.2,15.46.64,13.49,4.83,15.41,21.48.28,24.74-.64,3.03,1.26,1.7,2.6,3.27,2.56,3,2.03,9.01.76,12.47-4.39,11.93-31.38,11.52-28.91-5.9.25-1.76,3.57-6.93.36-6.87-1.67.03-10.4,12.36-12.59,14.37-2.05,1.88-10.55,7.68-13,8.69-1.05.43-1.95.66-3.1.51v-12.82Z" fill="#fff"/>
  <path d="M4.08,387.09c6.1-.88,9.48,5.64,15.12,5.26-3.08-14.97,12.39-24.37,25.44-19.2,1.78.7,6.52,5.06,8.07,2.73.99-1.49-1.22-2.1-1.29-2.38-.68-3,.99-2.68,1.25-3.35,1.91-4.92,4.22-9.7,10.28-10.62,10.04-1.52,18.35,5.42,21.84,14.23.74,1.86.66,5.69,2.3,6.33,2.3.9,4.02-1.5,6.04-2.23,7.61-2.77,19.3-1.75,23.92,5.72,3.96,6.4.75,10.3-.55,16.65,8-.83,15.48-1.82,22.55,2.77s7.85,8.61,7.11,16.89c2.86.35,13.77,2.93,13.74,6.3,0,.36-2.79,5.45-3.31,6.42-.23.44-1.11.56-1.49,1.31-3.05,6.07-4.92,14.82-5.72,21.53l-9.2.65c4.17-13.49-2.33-19.55-15.46-14.47-1.56.6-5.39,4.02-5.32,1.28.04-1.56.55-2.77.33-4.82-1.38-12.88-14.34-14.7-22.97-6.67-1.4,1.3-1.82,3.33-3.25,4.3-.27-11.44-12.23-18.07-21.4-10.54l-6.21,11.85c-2.78-4.91-6.37-10.31-10.96-13.69-15.73-11.58-26.33-.86-21.27,16.32-2.71-1.06-4.85-3.58-7.72-4.43-13.63-4.06-17.34,9.92-10.69,19.55l-11.18.66v-68.36Z" fill="#fff"/>
  <path d="M322.81,307.7c1.67,6.34,2.81,12.7,3.42,19.26,1.2,13.02,1.32,35.43-8.12,45.44-.49.52-4.11,3.51-4.57,3.7-2.35.96-3.26-1.71-5.12-3.08-5.69-4.19-11.24-7.19-18.35-8.28,8.35-10.62.54-28.18-3.72-39.45l-2.2.02c-.65.62,4.16,14.91,4.69,17.33,2.72,12.53,4.7,21.79-11.57,22.14-2.95.06-9.47-1.72-11.08-1.4-.64.13-.73,1.71-1.78,2.33-1.33.78-3.96.78-5.7,1.54-3.09,1.35-8.9,4.31-11.61,6.14-1.54,1.04-7.54,6.88-8.06,6.98-1.39.27-4.77-1.45-6.18-2.14-5.04-2.46-10.43-6.92-13.26-11.72-3.14-5.3-8.03-17.83-7.8-23.81.19-4.88,2.43-5.15,4.11-9.06,3.04-7.08,3.83-15.36,3.93-23.02.66-1.91,5.91-2.76,7.58-3.59,15.1-7.53,26.95-18.87,34.73-33.65,5.88,4.53,10.77,10.4,16.81,14.73,12.78,9.16,29.01,14.72,43.86,19.59ZM238.22,319.31c1.09.33,2.16.06,3.22-.24,1.8-.51,13.11-6.24,14.9-7.45,8.12-5.43-6.44-4.19-10.76-2.21-2.07.95-10.59,7.85-7.36,9.9ZM297.78,307.7c-.79.23-1.23.96-1.77,1.5,0,1.69,10.09,5.47,12.06,6.34,3.53,1.55,6.38,4.92,10.66,2.58,2.05-2.91-3.67-6.24-5.85-7.39-3.84-2.04-10.85-4.29-15.1-3.03ZM308.95,337.6c-2.22,1.83-6.72.93-8.38-1.43-.4-.57-2.52-7.98-3.83-3.85-.82,2.57,1.14,7.44,3.7,8.59,6.14,2.76,15.48.03,12.69-7.98-3.1-1.85-2.45,3.26-4.18,4.68ZM260.25,338.88c1.33-2.51,1.75-5.98-1.41-6.96-2.96,2.7-.05,7.61-5.29,8.46-9.58,1.55-5.81-4.26-8.52-7.18-3.32-2.03-2.38,4.02-1.78,5.72,2.04,5.74,9.95,6.1,14.3,2.83.2-.15,2.61-2.7,2.7-2.88Z" fill="#fff"/>
  <path d="M4.08,458.74c4.31-1.4,7.83-1.92,12.09.07,2.46,1.15,4.41,5.02,6.96,2.23l-7.04-11.98c-.98-3.13-1.39-6.36.16-9.37,5.65-3.5,9.51-1.55,14.13,2.28,1.9,1.57,5.31,6.93,7.9,5.28,1.27-.81-1.35-5.38-1.68-6.9-2.14-9.74-2.5-22.3,11.31-17.22,6.85,2.52,9.87,6.82,13.65,12.64.85,1.32,5.21,12.09,7.65,8.76.13-7.25,2.35-19.75,11.95-19.16,8.35.52,10.09,10.12,9.7,16.93,3.84.79,4.3-4.17,6.29-6.53.75-.89,6.05-5.1,7.04-5.45,7.62-2.71,13.22,2.75,12.91,10.23-.1,2.36-1.47,5.52-1.66,7.65-.07.78-.25,1.73.74,1.99,1.05.27,10-6.24,12.79-6.92,17.3-4.22,5.06,15.69,6.25,17.44s6.91-2.24,9.27-2.58c1.39-.2,2.83-.03,4.22-.06l-2.63,28.93c-7.87-.36-15.55-2.4-23.35-3.28-36.43-4.11-73.26-3.21-109.78,0-2.85.25-6.04.83-8.88,1.31v-26.29Z" fill="#fff"/>
  <path d="M420.67,404.46c1.61,1.18,2.1,3.31,3.51,4.68,4.36,4.25,10.14,4.39,15.8,3.59-1.88,10.98,10.31,16.11,19.4,15.12,3.15-.34,7.77-3.58,9.8-3.3,1.53.21,5.26,3.24,7.14,4.11s4.27.48,5.99,1.9c2.34,1.93,1.97,8.21,3.03,11.09-4.97.84-4.42-4.15-8.73-6.05s-5.2.21-7.94-.05c-1.87-.17-4.41-2.87-7.33-2.79-1.78.05-3.32,1.62-5.26,1.7-3.12.13-5.17-2.11-8.55.6-1.14.91-1.56,2.4-2.7,3.22-3.87,2.77-7.01,1.2-6.49,8.62-1.72-1.46-3.18-3.58-4.99-4.87-8.53-6.09-21.86-9.7-30.22-1.4-7.47,7.41-12.3,25.74-8.83,35.83.88,2.56,2.72,4.19,3.59,6.58-4.43.16-10.84,16.98-12.27,17.11l-15.36-1.63c-2.42-6.21-3.47-12.92-5.79-19.17-6.04-16.28-14.76-31.85-24.44-46.09-2.27-3.33-4.07-7.12-6.56-10.34l40.97-18.87c13.43-6.11,33.55-8.9,46.23.39Z" fill="#fff"/>
  <path d="M328.48,710.22c2.39,4.07,4.64,8.53,6.11,13.27.82,2.65,3.58,13.53,3.43,15.65-.14,1.96-5.44,3.38-7.19,3.89-22.7,6.59-62.36,6.62-85.38,1.21-10.07-2.37-14.74-2.9-12.41-14.18,1.21-5.85,4.73-12.73,7.84-17.8,22.49-36.78,64.57-41.17,87.59-2.04Z" fill="#fff"/>
  <path d="M590.54,386.44v123.57l-27.54-2.7-1.41-12.1c.19-1.67,4.19-2.94,4.99-5.54,1.44-4.69-1.64-18.86-2.64-24.38-.47-2.57-1.96-5.23-2.27-7.59-.27-2.07.45-7.69-.36-8.84-.43-.61-1.94-.59-2.65-1.29-.86-.85-1.65-4.43-2.97-6.24-5.9-8.1-20.3-9.15-29.33-8.29-3.89.37-.1-1.74.31-2.3,4.75-6.32,8.26-12.54,14.98-17.31,15.65,11.83,40.52-1.58,30.51-21.68,5.71-4.11,11.22-5.87,18.38-5.31Z" fill="#fff"/>
  <path d="M590.54,512.64v70.33l-28.92-1.32c-.69-.63,4.09-5.46,4.6-6.25.55-.84.73-1.43-.34-1.64-3.89.83-6.76,5.14-8.87,8.26-.49.29-3.14-.28-3.25-.4-1.22-1.34,3.23-11.61,3.91-13.76-5.71-1.82-5.95,13.47-7.61,13.77-3.84.71-1.82-9.02-5.85-9.86l-1.54.99,2.51,8.24-16.63-2.62-1.79-10.85c9.47.82,5.16-10.14,7.2-15.83,5.35-.84,11.42-1.01,16.61-2.45,7.44-2.06,12.47-5.89,21.23-4.42,1.36.23,5.95,2.94,4.61-.66-1.44-3.87-10.88-2.67-14.14-1.96,4.5-10.17,3.63-20.92,1.31-31.54l26.95,1.97Z" fill="#fff"/>
  <path d="M148.72,494.24c.28,8.16,2.36,16.38,5.25,24,17.64,46.4,62.89,51.42,106,37.6,5.45-1.75,19.63-7.16,23.87-10.31,6.01-4.46,5.04-24.57,5.89-31.57l10.53-5.75c4.56,2.54,2.16,4.85,2.36,7.99.39,6.23,1.44,10.78,3.85,16.02,7.58,16.52-9.28,23.8-22.46,27.96-36.29,11.45-95.91,9.13-129.59-9.51-8.73-4.84-14.96-8.37-14.24-19.26.65-9.88,4.76-25.57,7.2-35.55.27-1.11-.65-1.91,1.33-1.59Z" fill="#fff"/>
  <path d="M121.51,639.25c-6.65,10.63-10.48,29.98-9.63,42.67.25,3.77,2.52,9.96,2.51,12.6-.02,3.47-19.2,12.87-23.52,10.04l6.56-6.24-1.62-.99c-5.31,2.71-11.93,8.84-18.09,6.26,2.55-2.31,8.44-3.27,7.88-7.56-.95-.94-7.02,3.38-8.75,4.07-3.42,1.35-7.8,3.14-10.31-.46,2.13-1.24,4.65-2.38,6.55-3.98.86-.73,4.69-4.29,2.31-4.89-2.21-.56-12.88,11-17.47,4.29-2.31-3.38,4.99-6.46,6.43-7.79,2.69-2.49,6.39-9.71,9.41-13.27,3.86-4.55,10.33-9.79,13.82-14.63,3.12-4.32,5.09-10.7,8.26-15.23,6.58-9.42,15.78-13.59,26.96-8.63.65.93-.77,2.89-1.3,3.73Z" fill="#fff"/>
  <path d="M516.24,383.15c.55.54-1.34,5.44-1.79,6.4-2.69,5.68-4.7,10.12-5.36,17.01-.3,3.15-1.38,14.9,2.8,14.7,6.95-.33,20.51-11.8,24.41-17.74l3.53,7.57c-6.4,3.5-9.52,9.45-13.72,14.92-1.5,1.96-4.45,6.68-5.55,7.78-1.79,1.79-6.53,3.46-8.54,5.26-6.59,5.92-6.83,13.95-8.99,21.78-.13.49-1.06.51-1.2,1.03-1.8,7.05-5.65,22.92-2.47,29.18,1.43,2.81,3.56,3.35,6.35,4.16-2.6,3.64-4.08,8.64-9.54,7.57-2.34-.46-3.46-9.04-4.9-11.36-.79-1.27-4.16-3.93-4.92-5.77-.49-1.19-1.19-5.45-.71-6.52.52-1.15,2.76-2.09,3.34-3.93.65-2.05-.3-4.74-.03-5.34.58-1.27,4.01-1.96,4.77-5.7.84-4.08-1.13-4.53-1.68-7.22-.34-1.68.19-3.62-.25-5.03-.28-.89-1.71-.77-2.24-2.33-3.23-9.54-2.11-23.63-10.81-31.45l-11.83-18.56,7.18-1.95c3.18,5.76,13.9,19,19.81,21.3,2.85,1.11,3.33-.91,4.43-3.4,2.77-6.3,5.58-16.85,6.63-23.61.51-3.29.79-6.75.75-10.1l10.52,1.31Z" fill="#fff"/>
  <path d="M312.43,451.5c-3.9.14-8.21,1.5-11.83,2.97-2.14.87-8.67,4.18-10.19,5.58-5.65,5.22-3.23,13.37,5.1,11.68,2.06-.42,6.64-4.12,9.11-5.36,6.7-3.36,17.07-8.78,24.4-5.5,1.95.88,4.75,4.54,2.51,6.12-1.16.82-2.94-.2-4.21-.13-7.28.38-16.49,2.74-22.59,6.86-5.32,3.59-5.39,11.74,2.08,11.33,3.38-.19,6.97-2.73,10.2-3.66,5.21-1.49,15.48-3.74,18.44,2.02.82,5.58-11,3.2-14.8,3.59-7.81.8-8.51,6.4-13.14,11.18-8.34,8.62-21.2,14.03-32.19,18.35-1.06-.26-2-7.94-2.24-9.61-1.58-10.99-2.89-21.38-1.9-32.92,7.5-10.9,14.5-24.08,29.7-25.16,3.6-.26,8.67.11,11.53,2.64Z" fill="#fff"/>
  <path d="M560.71,538.7c-.22.41-4.11,4.39-4.7,4.83-5.81,4.28-17.55,4.21-24.58,5.33-.33,2.28-1.14,4.54-1.37,6.84-.2,2.04.81,8.15-1.09,8.77-12,0-24.11.53-36.06-.57-2.11-.2-9.27-.66-10.2-1.63-2.57-2.68-1.17-17.79-.03-21.73,2.16-7.45,5.72-9.47,12.5-12.51,4.56,3.93,9.21,5.6,14.64,7.8.91.37,1.47,1.29,2.33,1.6,5.01,1.83,7.83-.86,12.48-1.62,10.58-1.74,21.26-1.74,29.75-9.69,3.22-3.01,4.07-6.75,7.22-9.53,1.41,6.19,2.16,16.36-.89,22.11Z" fill="#fff"/>
  <path d="M543.2,487.67c-2.25,8.51,9.7,6.98,15.06,7.29,6.84,20.96-7.82,36.27-28.21,37.4.1-2.49.03-5.02-.83-7.39-.72-1.96-2.16-2.59-2.45-4.44,7.83.62,21.42-11.45,18.97-19.29-1.5-4.81-3.47,4.72-3.72,5.28-5.14,11.8-18.46,13.12-29.72,10.05,1.18-5.99,4.77-11.44,4.6-17.74-1.35-1.3-3.52,1.67-4.04,2.89-1.51,3.58-1.87,10.32-3.31,13.1-.72,1.4-2.3.93-3.16,2.09l3.27,2.95c-3.9-.13-9.39,3.37-9.21,7.56-.75,1.94-3.87-3.59-3.99-5.26-.29-4.06,3.28-11.99,5.32-15.6.26-.46,1.11-.65,1.5-1.31,1.88-3.19,8.41-15.6,11.96-15.56,5.16.05,4.52,8.8,9.4,10.96,6.93,3.07,8.9-5.02,11.52-8.18.42-.51,6.63-5.21,7.02-4.8Z" fill="#fff"/>
  <path d="M489.28,527.1c.36,1.75-.45,1.13-1.3,1.63-1.6.95-2.53,1.11-3.96,2.64-2.56,2.75-5.7,10.78-5.95,14.43-.19,2.82.97,11.53-1.06,12.74-3.27,1.94-19.17,2.86-23.56,2.72-4.12-.13-17.98-2.04-21.54-3.44-.95-.38-1.58-1.06-1.96-1.98-.42-1-1.22-8.57-1.21-10.02.02-2.62,1.08-9.32,2.3-11.56,1.07-1.97,3.67-2.91,3.68-5.86.99-.72,4.2,3.5,5.3,4.23,2.97,1.98,5.94,2.03,9.45,1.65,1.21-.13,2.19-1.17,3.35-1.26,1.93-.15,4.59,1.39,7.2,1.34s17.54-3.38,20.74-4.3,5.22-3.39,8.52-2.98Z" fill="#fff"/>
  <path d="M439.82,454.94c.65,1.09-.23,9.43-.5,11.36-.11.8.34,1.25-.99.99-.75-.15-5.66-2.78-5.99-3.52-.84-1.87-2.08-11.35-3.22-11.61-4.32,4-8.13.49-9.92-3.91-1.86-.01-3.35,1.24-5.2,1.31-1.62.06-8.25-2.73-7.54.29.27,1.13,6.29,2.19,7.59,2.34,1.14.12,2.51-.73,3.2-.57.81.18,1.48,2.16,2.31,2.89,2.33,2.05,5.72,1.58,8.59,1.6l2.29,11.84c1.32,1.77,5.94-1.2,6.8,3.1.41,2.07-.57,5.13-2.86,5.46-.74.11-2.2-2.87-4.45-1.42-4.2,12.01-20.31,12.37-29.06,5.33-6.4-5.15-5.99-17.05-3.05-24.07.89-2.12,2.08-4.55,3.06-6.82,6.31-14.7,23.67-12.53,33.54-2.65,2.81,2.81,2.12,3.97,3.68,6.86.38.71,1.55.87,1.73,1.19ZM412.36,456.11c.45-3.24-6.93-1.97-7.24-.98l.35,1.65,6.89-.67ZM426.82,463.34c.71-4.11-2.33-5.61-5.91-5.25l.44,1.98,5.47,3.27ZM411.7,461.37l-5.52,1.28-1.7-2.59v3.94s2.63,0,2.63,0l.28,5.96c1.01.85,5.5,2.01,4.97-.36-.32-1.44-3.7-.63-3.34-3.29.19-1.42,3.52-2.34,2.68-4.93ZM419.6,466.63l-.33-3.94c-4.1,5,4.43,9.09,4.92,2.63l-4.59,1.32ZM415.65,479.77c1.35-1.38-2.36-5.12-3.9-5.62-4.92-1.6-8.04,3.52-6.28,3.66,2.18-.1,3.43-1.89,5.76-1.21,1.45.42,3,4.62,4.42,3.17Z" fill="#fff"/>
  <path d="M476.29,459.25c.52.54,1.73.59,2.47.83-.38,2.01-.95,5.19.2,7.02,2.07,3.27,8.53-.3,7.68,6.37-.76,5.98-6.58,2.1-8.54,3.33-3.6,10.61-14.18,13.55-24.32,10.55-14.18-4.19-11.42-20.73-10.55-32.18,4.99,0,4.92-6.74,9.58-6.69.73,0,1.92,1.01,3.28,1.11,1.6.12,3.69-.71,4.53-.55,1,.19,2.13,2.53,4.16,2.99,2.51.57,5.04-.72,6.31-.41.25.06,3.92,2.98,4.05,3.2.7,1.19.21,3.45,1.16,4.43ZM457.73,456.77c-3.44-.39-7.81-1.15-9.2,2.94,1.34,1.98,1.77-.64,3.62-.96,1.98-.34,5.57,1.07,5.57-1.98ZM464.4,459.97c1.2-.23,7.68,5.02,7.78,2.39.08-2.04-5.86-4.62-7.87-4.27l.09,1.88ZM452.47,464.66l-4.6-1.98c-1.24,4.17,6.58,3.74,4.6,1.98ZM459.04,472.54c.22-1.69-1.83-2-1.99-3.64-.15-1.5,1.11-2.53,1.34-3.9-1.52-1.94-2.77-.88-3.85.74-2.61,3.9-.14,7.6,4.5,6.81ZM465.61,465.32c-3.66.23-1.78,4.86.98,5,1.21.06,3.81-.98,3.98-2.34.37-3.02-3.92,1.02-4.95-.02v-2.63ZM464.3,477.15c-2.44.07-3.27,2.87-5.9,1.65-.49-.23-3.39-4.13-3.96-1.31-.85,4.22,11.23,5.73,9.86-.34Z" fill="#fff"/>
  <path d="M513.18,484.15c-8.12-9.16-.47-21.12-.89-31.33l31.28,3.24c-.63,7.8,5.13,18.81.57,25.63-6.41,9.59-23.34,11.04-30.96,2.45ZM521.5,457.43c-.72-.58-9.98-.11-8.54,3.28.55.55,6.67-1.31,7.72-1.81.86-.41,1.05-.06.83-1.47ZM539.91,462.68c2.42-2.71-10.91-6.84-8.87-1.31l8.87,1.31ZM515.62,467.26c-.33-.28.24-3.45-2.66-2.6-1.38,5.31,7.24,6.8,6.57.66l-2.3,1.98c-.48-.11-1.41.13-1.61-.04ZM532.68,464.65h-1.97c-.71,5.66,1.59,7.41,6.57,4.59l-.33-1.31-3.63.38-.64-3.66ZM523.47,465.31l-2.03.4c-1.33,3.14-2.47,8.76.77,11.05,2.09,1.48,6.22,1.55,6.52-1.58l-5.63-1.27.37-8.59ZM523.48,479.12c-.49,5.58,12.04,3.13,11.17-.98-.27-1.3-.91-.71-1.64-.36-3.47,1.66-5.47,2.89-9.53,1.33Z" fill="#fff"/>
  <path d="M491.05,736.98c4.43,5.55,1.03,9.06-4.79,10.24-8.71,1.77-34.04,2.16-42.38-.23-5.33-1.53-5.43-3.69-2.87-8.2,8.82-15.53,39.47-15.05,50.04-1.81Z" fill="#fff"/>
  <path d="M133.33,649.1c-5.08,12.35-8.58,27.5-7.65,41.36.26,3.88,1.81,7.82,1.68,11.46-9.71-1.16-10.79-6.23-12.09-14.87-2.57-17.21,2.32-37.94,12.13-52.11,2.1-3.03,4.7-5.83,7.84-7.77l5.43,6.06c-2.85,5.09-5.14,10.47-7.35,15.86Z" fill="#fff"/>
  <path d="M490.23,497.91c.07.18.79.28.97.79,1.58,4.38,2.99,14.67,1.53,19.02-1.15,3.43-13.27,11.65-16.82,10.62-2.06-3.93-4.26-5.61-7.24-8.42-.55-.52-.6-.45-.42-1.36,2.98-1.18,7.92-2.35,9.79-5.03.44-.64.45-1.64.79-2.35.24-.49,1.12-.52,1.23-.99.29-1.25.26-7.02.08-8.45-.15-1.16-1.12-.83-1.32-1.44-.37-1.11-.15-2.85-.71-4.1-4.41.79.15,7.05-1.63,9.85-6.01-3.99-13.85-7.98-16.11-15.11,2.84.63,6.9-.11,9.66-1.18,2.44-.95,7.49-5.93,8.29-5.92,5.33.07,10.18,9.86,11.91,14.07Z" fill="#fff"/>
  <path d="M399.83,522.46c-3.93.29-9.52-5.02-10.81-8.5-2.78-7.49,2.18-20.36,7.54-26,.68-.72,4.13-3.54,4.83-3.48.51.05,4.97,2.04,5.42,2.49,1.12,1.09,1.03,2.76,1.98,3.94,1.6,2.01,5.83,6.27,7.83,7.94,2.45,2.04,9.13,5.05,10.21,6.22.59.64.78,1.08.7,1.97-.3,3.31-6.87.94-8.89.98-3.48.06-8.88,1.97-12.55,2.4-3.07-1.58-4.09-6.3-7.79-6.29-5.26,1.5,7.5,9.24,7.47,10.15-2.97,2-5.64,4.32-5.94,8.18Z" fill="#fff"/>
  <path d="M455.54,491.19c1,.48,3.42,4.57,4.48,5.68,4.86,5.11,9.77,9.79,16.72,11.88,2.73,4.39-13.26,8.06-15.52,9.02-3.24,1.39-5.66,3.6-8.09,6.03-.64-3.08-3.21-5.62-3.32-8.89-.1-3.06,3.8-14.69,1.38-16.45-.64-.47-1.3-.28-2.01-.29l-2.68,17.69c-4.35-.26-6.88,1.95-9.8,4.65-.62-7.13,1.41-14.14,3.92-20.72.9-2.34,4.83-11.54,7.57-11.5,2.15,1.9,5.26,1.89,7.36,2.88Z" fill="#fff"/>
  <path d="M336.1,489.64c-.57,4.34-1.18,27.22-4.59,29.26-4.51,2.69-25.47-6.76-27.79-11.7-1.07-2.27,2.79-3.42,4.79-5.38,2.4-2.36,6.2-9.22,8.58-10.48,4.54-2.41,13.68-.1,19.01-1.69Z" fill="#fff"/>
  <path d="M405.79,555.36c-3.28-.07-18.77-.69-19.95-3.42-1.35-8.68-2.9-18.69,4.14-25.2,5.12-4.73,9.15.06,14.85.99l.96,27.64Z" fill="#fff"/>
  <path d="M522.67,719.22c7.37-.92,18.03,1.82,21.44,9.08,3.84,8.16-6.99,8.79-13.05,9.16-4.88.29-24.45.32-24.01-6.88.4-6.65,9.93-10.65,15.63-11.37Z" fill="#fff"/>
  <path d="M478.93,443.46c1.58,1.48,6.09-.03,7.43,4.07.38,1.16.1,2.47.44,3.5.32.97,1.53,1.47,1.73,2.25.3,1.16-.95,2.62-.45,4.32.3,1.02,3.18,4.08,3.24,4.76l-3.12,4.88c-2.98-1.24-7.59-.33-6.52-4.58.57-2.26,4.04-2.52,3.66-5.23-2.57-.21-4.81,1.54-6.92-.64-1.05-1.62,3-1.97,1.67-4.62-5.13.87-5.73-1.37-7.65-5.29-3.86-.55-.72,3.23-5.85,2.7-3.78-.39-3.39-4.23-4.63-4.63-2.03-.53-2.72,2.5-4.43,2.49-1.99-.01-3.59-2.53-4.73-2.53-1.25,0-2.26,2.05-3.59,2.38-1.44.36-3.63-.83-5.29-.38v1.97c4.43-.3,1.41,4.41-2.3,3.97l-1.58-1.1c-.71-2.2,1.54-3.4,1.73-4.6.12-.73-.47-1.65-.41-2.5.23-3.49,3.05-2.4,5.19-3.99,1.57-1.17,1.91-3.71,4.44-4.16,2.75-.49,3.48,1.75,5.15,1.89,2.6.23,3.36-4.37,8.35-1.84,1.31.66,2.05,2.36,3.46,2.5,1.77.18,2.92-1.7,5.72-1.21,4.38.75,3.76,4.22,5.26,5.63Z" fill="#fff"/>
  <path d="M559.87,464.44c.05.15.87.16,1.14,1.16,1.06,3.93,4.06,21.36,2.27,24.06-3.71,1.88-8.41,2.36-12.51,1.94-2.04-.21-5.05-.32-4.82-2.77.18-1.92,1.39-6.33,1.9-8.56.13-.57,1.17-.27,1.32-1.44.17-1.31.2-6.69-.07-7.8-.12-.48-1.16-.41-1.26-.93-.82-4.33-1.65-9.69-1.05-14.02.54-.84,9.64.21,10.85,1.04,1.65,1.13,1.65,5.45,2.23,7.32Z" fill="#fff"/>
  <path d="M431.81,485.96c2.06,1.72,7.43,6.89,7.19,9.65-.16,1.85-1.94,4.68-2.5,6.65-1.9,6.64-4.27,13.47-2.51,20.46-.44,1.51-6.43,3.98-8.02,3.61l-9-8.1c.63-1.29,11.22-3.8,12.8-7.58,1.01-2.41.27-12.96-1.09-15.31-.37-.64-.59-1.25-1.52-1.12l-1.59,1.09.93,6.81c-6.05-3.78-12.23-7.8-15.45-14.45,6.33,1.01,12.5-.14,17.43-4.5,1.02,1.05,2.22,1.87,3.33,2.8Z" fill="#fff"/>
  <path d="M431.43,527.76c-1.05,2.52-2.81,4.34-3.79,7.05-2.57,7.03-2.29,13.98-.8,21.21-5.75,1.43-11.86.54-17.68-.07-1.03-4.33-2.74-19.84-.39-22.92,2.15-2.83,18.86-3.57,22.67-5.26Z" fill="#fff"/>
  <path d="M555.69,447.56l-43.06-2.62c-2.3-.28,3.93-5.34,4.7-5.81,10.22-6.28,33.71-4.61,38.36,8.43Z" fill="#fff"/>
  <path d="M330.18,522.5c.59,2.42-1.39,3.44-1.94,4.45-2.71,4.92-6.56,11.4-12.6,12.32-5.84-1.3-9.88-19.89-9.12-25.32,7.23,4.8,15.07,7.36,23.66,8.55Z" fill="#fff"/>
  <path d="M523.48,567.19l1.34,14.65c-.29,1.28-8.63,3.81-9.82,3.02-.65-2.44-3.4-5.41-5.99-5.84l5.91-3.28-2.59-1.37-.04-7.17h11.18Z" fill="#fff"/>
  <path d="M324.26,456.76c-4.33.48-8.38,1.54-12.48,2.98-1.73.61-5.51,2.06-7.04,2.82-2.56,1.26-12.42,9.67-13.91,4.26-1.26-4.56,10.66-10.02,14.22-11.18,5.49-1.78,14.9-3.62,19.21,1.13Z" fill="#fff"/>
  <path d="M509.11,450.1c-.35-.6,0-1.76-.1-2.53,2.95.09,5.95-.13,8.91-.03,9.62.34,19.37,1.86,28.91,2.65,3.53.29,15.72-1.85,11.07,3.85-8.1.41-16.18-1.22-24.23-1.87-2.9-.23-23.92-1.02-24.55-2.08Z" fill="#fff"/>
  <path d="M280.87,433.77c.91.87-8.25,14.58-11.41,14.39l-11.6-14.38c7.79,1.24,15.23,1.54,23.01,0Z" fill="#fff"/>
  <path d="M304.62,481.67c-2.66-4.43,8.51-8.89,11.88-9.98,4.56-1.47,17.63-4.7,16,3.48-.35.55-.83.99-1.47,1.18-2.36.7-7.95.39-11.39,1.1-5.22,1.07-9.75,4.23-15.02,4.22Z" fill="#fff"/>
  <path d="M286.13,515.93c.11,5.66.13,11.05-.76,16.65-.22,1.41-1.01,8.1-2.85,7.66-2-.47-6.93-17.66-6.96-20.64l10.57-3.68Z" fill="#fff"/>
  <path d="M497.76,567.26c-.1,7.36,4.55,14.42-5.7,15.56-4.91.55-3.95-4.9-8.69-5.12-.47-2.13,2.08-1.01,3.57-2.01,3.18-2.13.25-8.36,1.03-9.15l9.8.73Z" fill="#fff"/>
  <path d="M509.66,452.82c-1.03,12.14-7.56,23.68,1.76,34.51l-4.05,5.58c-7.58-2.72-7.06-9.02-5.56-15.94.11-.52,1.13-.44,1.25-.95,1.66-7.54,2.92-15.22,4.62-22.75l1.98-.44Z" fill="#fff"/>
  <path d="M469.53,563.29c1.08,8.91,3.57,14.22-7.56,15.54-2.26-2.8-4.1-5.76-8.18-5.73l5.59-1.96.32-7.24,9.83-.61Z" fill="#fff"/>
  <path d="M421.12,565.7c.08.17.98.16,1.09.63.17.73.17,4.99-.07,5.37-3.12.57-5.73,3.29-9.03,2.63-.39-3.24-3.69-5.12-6.65-5.83l4.9-3.33.35-5.87,8.59.29c1.35.94.09,4.49.83,6.11Z" fill="#fff"/>
  <path d="M444.14,569.64c.08.17.95.15,1.08.64,1.1,3.98-5.21,6.29-8.45,6.04-.8-4.37-4.24-4.28-7.31-6.17,6.65-.63,5.29-3.3,5.26-8.87l8.58,1.6c1.4.95.03,5.04.83,6.77Z" fill="#fff"/>
  <path d="M525.91,524.66c1.09,1.37,1.44,7.12.21,8.04s-8.47,1.73-10.53,2.94c-1.4-1.19,5.12-3.47,5.25-4.27-2.1-2.02-7.47,4.07-8.54,2.96-.75-4.52,5.17-3.53,5.91-7.22l-6.57,2.3c3.8-4.09,9-11.35,14.26-4.74Z" fill="#fff"/>
  <path d="M401.19,557.99v9.86l-8.16,3.98-4.99-6.27c5.11-1.05,4.92-3.62,4.61-8.22l8.55.66Z" fill="#fff"/>
  <path d="M447.21,526.44l1.31,5.25c-2.77.62-4-2.18-5.59-3.93l.33,3.28c-11.5-2.63.78-19.14,6.05-9.66.49.87,2.57,7.44,2.49,8.01-.48,3.49-3.43-3.83-4.6-2.94Z" fill="#fff"/>
  <path d="M480.05,561.31c-.87,4.15,4.81,4.44,5.21,5.64.31.94.94,5.85-.27,6.15-.79.2-10.07-2.85-11.82-3.26l-.68-6.64,7.57-1.9Z" fill="#fff"/>
  <path d="M490.19,410.53c.25.46,2.32,1.22,1.72,2.86-.17.2-2.21-1.27-2.64-1.63-2.47-2.02-8.5-8.74-10.52-11.36-1.1-1.43-3.6-5.12-1.33-6.45.37-.22,6.94,2.26,8.27,2.31.88,4.72,2.18,10.03,4.48,14.26Z" fill="#fff"/>
  <path d="M439.97,475.83c.57,3.11,1.85,8.27,5.26,9.22.64,1.67-.99,1.14-1.59,1.98-.91,1.26-1.84,3.1-2.36,4.58l-11.15-11.5,6.08-1.14c2.07-.49,1.79-3.52,3.76-3.13Z" fill="#fff"/>
  <polygon points="509.67 575.08 501.12 575.74 500.46 567.2 509.05 567.48 509.67 575.08" fill="#fff"/>
  <path d="M457.07,563.9l-.1,5.17-9.11,1.41c.67-1.59-1.42-6.85.36-7.19,1.23-.24,6.76,1.42,8.84.61Z" fill="#fff"/>
  <path d="M420.91,527.1l-12.49,2.63c-1.32-1.14,7.2-5.83,7.88-6.24l-5.9,1.32,4.35-4.12c1.81-.5,7.11,5.5,6.16,6.41Z" fill="#fff"/>
  <path d="M430.62,560.12l.81,7.08-5.96-.29c-2.2-5.94-2.18-9.43,5.15-6.79Z" fill="#fff"/>
  <path d="M508.35,532.36c-3.28-.23-5.03-2-4.47-5.42.88-5.33,9-5.44,8.41-2.82-2.16,2.29-4.42,4.84-3.94,8.24Z" fill="#fff"/>
  <path d="M511.64,585.6h-10.85c-.2,0-1.23-1.07-.98-1.63,3.35-4.43,10.02-3.96,11.83,1.63Z" fill="#fff"/>
  <path d="M422.88,577.71c-.61-6.92,10.53-5.26,11.18,0h-11.18Z" fill="#fff"/>
  <path d="M457.73,579.68h-11.18c-.53-2.71,1.65-4.6,4.26-4.62,1.76-.01,7.74,2.13,6.92,4.62Z" fill="#fff"/>
  <path d="M411.7,517.9c.29,1.15-.42,1.31-1,1.95-1,1.09-4.97,5.2-5.92,5.3-4.15.44-1.79-5.89.35-6.93,1.74-.85,4.63-.09,6.58-.32Z" fill="#fff"/>
  <path d="M422.88,511.33c.34,1.87-.46,1.08-1.44,1.48-4.14,1.69-10.07,5.38-13.01.16,4.7-1.31,9.57-1.91,14.46-1.64Z" fill="#fff"/>
  <path d="M399.54,575.08c-.76-.12-2.26-.98-1.63-1.96,3.97-3,7.83-2.88,11.64.45.46.4,1.24-.03.84,1.51-3.37-.36-7.62.5-10.85,0Z" fill="#fff"/>
  <path d="M486,583.62c-1.5-.19-11.8,1.24-11.17-1.62,2.49-3.92,10.05-3.14,11.17,1.62Z" fill="#fff"/>
  <path d="M532.68,492.92c-2.47,6.56-8.81,6.48-9.85-.66l9.85.66Z" fill="#fff"/>
  <path d="M407.67,558.09c1.66,3.7,1.14,8.41-3.9,6.85l-.32-6.33,4.22-.52Z" fill="#fff"/>
  <path d="M389.35,572.45l-4.85-.08-5.66-1.55c2.56-3.68,9.4-2.92,10.51,1.63Z" fill="#fff"/>
  <path d="M493.89,525.78c-.19.19-4.03-.06-3.94-1.3l2.95-1.97.98,3.27Z" fill="#fff"/>
  <polygon points="498.49 505.41 496.85 509.35 495.86 505.41 498.49 505.41" fill="#fff"/>
  <path d="M483.37,482.4c-.45.49-3.93-1.27-3.28-2.62,1.68-.83,4.47,1.32,3.28,2.62Z" fill="#fff"/>
  <rect x="501.12" y="576.4" width="2.62" height="1.31" fill="#fff"/>
  <path d="M516.24,521.18c-1.37.19-1.5.07-1.31-1.31l1.31,1.31Z" fill="#fff"/>
  <path d="M425.51,570.48c-.23.45-1.12-.38-.64-1.31.23-.45,1.12.38.64,1.31Z" fill="#fff"/>
  <path d="M472.19,529.07l-11.83,2.63,3.28-3.61c-2.16-1.75-6.11,4.69-7.88,2.96s6.48-5.21,6.25-7.21l-7.55,3.61c5.59-9.33,13.95-8.57,17.74,1.63Z" fill="#fff"/>
  <path d="M102.03,81.45c11.03-23.4,51.74-17.75,51.95,9.86,3.5-.88,6.64-2.63,10.27-3.2,21.81-3.43,39.16,15.72,30.44,37l-178.34.93c-2.54-.84-2.65-10.91-2.43-13.39.72-8.39,8.93-17.23,17.45-18.04,3.3-.31,6.5.78,9.45-.1.06-10.65,6-19.06,15.19-23.92,16.42-8.68,34.68-3.04,46.02,10.86ZM19.53,123.52h168.31c.35,0,4.44-1.02,4.63-1.28,2.52-11.1,1.49-18.87-7.59-26-6.57-5.17-17.37-6.27-25.17-3.46-2.45.88-8.32,6-9.02,2.15-.87-4.75.52-6.99-2.06-12.4-7.94-16.63-34.1-15.5-43.85-.62-1.27,1.94-1.06,5.04-3.74,4.87l-9.87-10.55c-15.5-12.35-45.83-4.81-47.48,16.94-.15,1.94.98,5.62-.14,6.41-4.75-.51-7.42-2.27-12.67-1.51-10.92,1.57-16.19,16.39-11.35,25.46Z"/>
  <path d="M491.03,229.58c.58.5.71,2.02,1.87,1.73,11.88-15.03,41.94-8.86,41.1,12.49,6.52-1.91,13.44-1.8,19.28,2.08,3.8,2.53,8.46,9.58,8.92,14.09.29,2.82.67,10.07-2.52,11.14l-160.81.97c-8.89-.23-9.71-11.89-7.89-18.46,3.87-14.01,23.31-19.73,35.86-14.43,4.18-24.61,40.94-30.7,57.87-16.12,2.33,2.01,3.91,4.38,6.34,6.49ZM558.25,268.05c3.11-12.01-5.84-23.48-18.59-22.2-2.08.21-6.97,2.61-8.33,1.62-1.13-4.54-.03-7.53-2.45-12.02-5.6-10.37-23.61-11.79-32.02-4.13-1.98,1.81-3.62,6.87-6.51,5.87-2.41-5.38-4.03-9.79-9.25-13.12-18.41-11.74-49.96-4.69-51.63,19.74-2.86.39-4.95-1.94-7.52-2.67-14.62-4.12-35.08,9.97-27.17,25.19,2.14,4.12,6.25,1.75,10.01,1.77,24.09.14,48.28.12,72.32,0,27.05-.14,54.12.22,81.16-.04Z"/>
  <path d="M386.32,136.42c.17.28.9.44,1.44,1.48.83,1.58,1.47,3.54,1.6,5.33.35.32,5.97-3.21,7.23-3.61,13.7-4.32,28.52,6.21,30.25,20.05,11.8-4.91,25.7,5.73,22.86,18.59-.19.86-1.05,2.4-1.83,2.77h-147.28c-10.68-21.14,10.14-40.36,31.56-33.19.02-22.23,26.15-31.76,43.98-21.95,4.94,2.72,7.31,5.88,10.19,10.53ZM386.23,147.02c-.41-.74-.19-2.45-.62-3.65-5.45-15.27-19.48-21.27-35.03-16.22-4.15,1.35-11.17,6.78-13.05,10.61-2.72,5.52-1.58,9.45-2.71,15.05-1.18.87-6.93-2.51-9.07-2.85-16.45-2.59-29.16,12.64-23.26,28.38l142.98-.37c3.61-4.97-1.72-12.63-6.65-14.86-3.67-1.65-6.25-1.7-10.02-.5-1.5.48-2.67,2.54-4.65,1.36-.7-6.12-2.14-11.33-6.5-15.85-5.6-5.8-15.88-7.39-23.06-3.94-2.2,1.06-6.55,6.04-8.36,2.82Z"/>
  <path d="M490.24,110.66c6.8-12.2,4.32-25.53-4.26-36.1-4.23-5.21-9.85-5.47-13.16-10.53-.03-3.34,9.67-4.14,12.16-4.3,21.09-1.31,43.08,9.24,48.96,30.64,11.06,40.27-33.02,68.53-66.94,47.86-1.64-1-9.98-6.3-6.67-8.5,1.01-.67,6.7-.78,8.58-1.28,9.39-2.47,16.74-9.56,21.33-17.79ZM525.07,80.51c-11.28-14.83-28.8-20.22-46.96-16.15,1.98,1.81,4.38,2.41,6.58,4.26,16.42,13.76,16.38,37.42,1.98,52.61-5.43,5.73-13.7,10.32-21.71,10.83-1.1.95,6.73,5.1,7.86,5.61,37.72,17.32,77.42-24.05,52.25-57.16Z"/>
  <path d="M117.83,245.78c2.65.2,4.8-1.86,7.07-2.46,15.67-4.15,32.53,12.53,20.74,26.65l-105.07.13c-2.03-.38-3.22-4.56-3.45-6.42-1.05-8.47,6.61-18.88,15.28-19.87,5.69-.65,10.27.6,15.45,2.63,3.68-26.21,45.7-27.29,49.98-.66ZM143.74,253.39c-5.25-7.29-11.03-9.25-19.7-6.32-3.02,1.02-4.97,3.05-7.85,3.97-2.16-4.49-1.61-9.71-5.27-13.8-11.3-12.61-36.35-9.19-39.72,8.27-.32,1.66.69,5.55-1.12,6.14-1.96.64-5-2.86-7.29-3.76-12.53-4.92-25.19,5.4-20.97,18.33l102.98.29c2.33-4.68,1.88-9.04-1.06-13.12Z"/>
  <path d="M101.84,572.9c-2.31,2.07-11.25,2.83-14.55,2.87s-6.84-.95-9.89-.69c-4.65.39-9.78,3.37-15.79,3.36s-17.03-3.1-10.14-10.86c4.07-4.59,9.5-3.06,12.71-5.04,1.02-.63,3.14-3.93,4.65-5.21,9.09-7.68,24.54-5.53,31.9,3.63,2.35,2.93,4.26,9.13,1.11,11.95ZM97.69,563.01c-8.29-9.87-23.72-9.83-30.49,1.55,4.19.22,7.27,3.97,8.97,7.26,3.26,1.07,22.65.73,23.97-1.08,2.1-2.87-.93-5.92-2.45-7.73ZM72.46,573.76c-1.05-7.69-14.98-9.65-18.44-3.65-2.47,4.3,1.56,4.64,4.98,4.95,4.61.42,8.98-.53,13.47-1.31Z"/>
  <path d="M108.48,736.97c8.84-.96,19.38.84,26.07,7.07,4,3.73,5.59,11.29.33,14.72-5.97,3.9-25.1,3.23-32.43,2.25-5.13-.69-11.93-1.68-12.27-8.16-.51-9.67,10.11-14.99,18.3-15.88ZM132.53,747.71c-8.37-10.14-25.66-11.02-35.78-2.75-2.57,2.1-4.65,7.48-2.33,10.28,1.51,1.83,11.09,3.02,13.88,3.22,4.1.28,24.58.22,26.29-3.27,1.33-4.21.07-4.9-2.06-7.48Z"/>
  <path d="M51.64,763.27c8.01-12.32,30.7-12.03,39.56-.87,3.44,4.33,5.19,9.55-.75,12.41-6.42,3.1-29.37,3.54-35.55.22-4.95-2.66-6.52-6.76-3.26-11.76ZM87.38,762.62c-6.84-5.9-21.43-7.34-28.74-1.87-6.18,4.63-7.88,11.58,1.73,12.76,4.85.59,25.99.49,29.46-1.95,2.92-2.05-.52-7.28-2.45-8.94Z"/>
  <path d="M498.33,766.53c2.93-.4,5.59-.3,8.47.39,9.11,2.18,17.87,13.6,3.69,16.37-4.56.89-18.86,1.06-22.52-1.5-3.93-2.75-1.39-8.9,1.62-11.5,1.96-1.69,6.16-3.41,8.73-3.76ZM513.2,775.33c-4.84-6.22-13.94-8.06-20.61-3.36-1.69,1.19-5.87,5.83-2.83,7.4,4.04,2.09,20.94,1.99,24.49-.88l.65-1.92c-.2-.62-1.34-.8-1.69-1.25Z"/>
  <path d="M369.63,769.65c.36,1.39-.43,1.78-.97,2.64-1.36,2.18-4.59,5.24-5.79,7.39-.96,1.72-2.73,9.27-5.07,7.71-1.16-2.94.75-7.26,2.15-10,1.85-3.61,5.25-7.94,9.67-7.74Z"/>
  <path d="M528.08,635.55l-3.23-.07c.57-1.94-.72-4.97-.72-6.18v-12.49c0-.62,1.68-1.43,2.66-.69.22.17,1.28,3.68,1.28,3.98v15.45Z"/>
  <path d="M52.5,625.26c2.71,3.64,5.85,12.78,3.18,16.87-2.72.58-2.28-7.55-3-9.34-.25-.61-1.1-.64-1.44-1.35-1.21-2.51-2.36-5.04-3.67-7.5.62-3.45,3.98.03,4.93,1.32Z"/>
  <path d="M179.39,775.78c1.54,2.34,3.44,7.91,1.22,10.28-3.16-3.11-3.38-7.24-6.09-10.98-1.27-1.76-5.78-4.99-5.41-6.41.58-2.24,4.38.66,5.2,1.36.92.78,4.46,4.82,5.08,5.76Z"/>
  <path d="M69.17,626.35c-1.29,3.19-3.14,5.4-4.67,8.67-.22.48-1.01.48-1.19,1.04-.42,1.26-.21,7.17-2.35,6.71-4.88-1.03,1.65-18.87,8.21-16.43Z"/>
  <path d="M520.84,636.21c-1.81,1.85-5.51-6.26-6.29-7.18-.87-1.01-10.16-6.81-5.85-7.93,3.28-.86,13.76,10.76,12.14,15.11Z"/>
  <path d="M351.87,786.73c-2.57,2.68-4.12-9.29-4.43-10.36-.49-1.65-3.3-7.31-3.26-7.73.04-.37,1.33-1.62,1.45-1.62,3.35-.09,7.58,16.65,6.24,19.7Z"/>
  <path d="M191.22,771.41c-.04.17-.93.2-1.04.69-.85,3.59-.65,7.98-.69,11.67-.1.81-2.27.68-2.63-1.31-.58-3.16.54-16.63,3.27-18.42,3.4-.86,1.58,5.39,1.1,7.37Z"/>
  <path d="M32.76,629.03c1.8-.54,7.45,3.5,8.79,4.88.84.87,6.25,9.64,2.96,9.51-.54-.02-5.6-6.95-6.91-8.2-1.11-1.07-8.46-5.11-4.84-6.2Z"/>
  <path d="M206.15,774.48c-1.05,1.23-4.03,4.35-4.61,5.25-.86,1.34-1.01,5.96-3.18,5.03-2.54-1.08.98-7.76,1.99-9.18.83-1.17,10.24-9.43,8.75-3.74-.36,1.38-2.25,1.82-2.95,2.65Z"/>
  <path d="M537,632c-.68,1.17-1.38,2.33-2.02,3.55-4.5,1.38-.15-8.54.97-10.02.17-.23,4.01-3.66,4.25-3.81,1.62-.96,4.28-.91,3,1.02s-3.44,3.92-4.91,6.28c-.59.96-.75,2.03-1.3,2.99Z"/>
  <path d="M340.33,781.19c.76,1.05,4.98,6.14,1.98,6.84-2.08.49-4.33-5.42-5.87-7.23-.84-.98-2.01-2.1-3-2.93-1.57-1.31-3.3-.23-2.59-3.63,4.53.09,7.13,3.67,9.48,6.95Z"/>
  <path d="M51.51,532.92c-1.19-1.88,1.02-2.63,1.17-3.05.9-2.54.94-4.59,2.56-7.18,1.28-2.04,6.7-6.74,5.07-2.17-.39,1.1-2.69,3.9-3.53,5.68-.68,1.44-2.37,7.27-3.11,7.43-.49-.1-2.02-.5-2.15-.71Z"/>
  <path d="M39.85,531.46c.08.19.75.25.83.43.98,2.25-.46,3.42-2.31,2.33-.43-.25-3.46-6.59-5.01-8.46-1.14-1.37-3.55-1.43-2.98-3.91,5.51-.48,7.83,5.52,9.47,9.61Z"/>
  <path d="M45.39,518.01c.96.58,5.63,13.93,1.76,14.99-.81.02-2.1-8.58-2.48-10s-1.6-2.72-1.8-4.12c-.22-1.54,1.9-1.24,2.53-.87Z"/>
  <path d="M294.25,614.95c.5.63,1.66.82,2.33,1.94,1.66,2.82.28,5.57-2.36,3.33-2.84-2.41-6.55-8.97-9.72-12.29-2.35-2.46-6.57-6.17-9.24-8.51-1.55-1.36-10.3-7.37-10.68-8.05-1.57-2.85,1.03-3,3.38-1.75,8.53,4.54,20.21,17.64,26.28,25.32Z"/>
  <path d="M295.21,385.24c.32.54.08,1.25.13,1.84-4.18,1.79-5.78-1.99-9.7-3.1-4.38-1.23-12.14-1.19-16.42.33-2.02.72-5.67,4.49-7.06,4.1-4.53-5.42,11.62-8.52,15.1-8.59,3.19-.06,16.51,2.93,17.95,5.42Z"/>
  <path d="M297.78,307.7c4.24-1.25,11.26,1,15.1,3.03,2.18,1.15,7.9,4.48,5.85,7.39-4.27,2.34-7.12-1.03-10.66-2.58-1.96-.86-12.06-4.65-12.06-6.34.54-.54.98-1.27,1.77-1.5Z"/>
  <path d="M238.22,319.31c-3.23-2.04,5.29-8.95,7.36-9.9,4.32-1.98,18.88-3.22,10.76,2.21-1.8,1.2-13.11,6.94-14.9,7.45-1.06.3-2.13.57-3.22.24Z"/>
  <path d="M260.25,338.88c-.09.17-2.5,2.72-2.7,2.88-4.35,3.27-12.26,2.91-14.3-2.83-.6-1.7-1.55-7.75,1.78-5.72,2.71,2.91-1.06,8.73,8.52,7.18,5.24-.85,2.33-5.76,5.29-8.46,3.16.97,2.74,4.45,1.41,6.96Z"/>
  <path d="M308.95,337.6c1.73-1.42,1.08-6.53,4.18-4.68,2.79,8.01-6.54,10.74-12.69,7.98-2.56-1.15-4.52-6.02-3.7-8.59,1.31-4.12,3.43,3.28,3.83,3.85,1.65,2.36,6.15,3.26,8.38,1.43Z"/>
  <path d="M411.7,461.37c.84,2.59-2.49,3.51-2.68,4.93-.36,2.66,3.02,1.85,3.34,3.29.53,2.37-3.96,1.21-4.97.36l-.28-5.96h-2.64s.01-3.94.01-3.94l1.7,2.59,5.52-1.28Z"/>
  <path d="M415.65,479.77c-1.42,1.45-2.97-2.75-4.42-3.17-2.33-.68-3.58,1.1-5.76,1.21-1.76-.13,1.36-5.25,6.28-3.66,1.55.5,5.26,4.23,3.9,5.62Z"/>
  <path d="M426.82,463.34l-5.47-3.27-.44-1.98c3.59-.35,6.63,1.14,5.91,5.25Z"/>
  <path d="M419.6,466.63l4.59-1.32c-.49,6.47-9.02,2.38-4.92-2.63l.33,3.94Z"/>
  <path d="M412.36,456.11l-6.89.67-.35-1.65c.31-.99,7.69-2.26,7.24.98Z"/>
  <path d="M459.04,472.54c-4.64.79-7.11-2.91-4.5-6.81,1.08-1.61,2.33-2.68,3.85-.74-.23,1.37-1.49,2.4-1.34,3.9.16,1.64,2.21,1.94,1.99,3.64Z"/>
  <path d="M464.3,477.15c1.37,6.07-10.71,4.56-9.86.34.57-2.82,3.48,1.08,3.96,1.31,2.63,1.22,3.46-1.58,5.9-1.65Z"/>
  <path d="M457.73,456.77c0,3.05-3.6,1.64-5.57,1.98-1.85.32-2.28,2.94-3.62.96,1.39-4.09,5.76-3.33,9.2-2.94Z"/>
  <path d="M464.4,459.97l-.09-1.88c2.01-.35,7.95,2.23,7.87,4.27-.1,2.62-6.58-2.63-7.78-2.39Z"/>
  <path d="M465.61,465.32v2.63c1.04,1.04,5.32-3.01,4.96.02-.17,1.37-2.77,2.4-3.98,2.34-2.76-.13-4.64-4.76-.98-5Z"/>
  <path d="M452.47,464.66c1.98,1.76-5.83,2.19-4.6-1.98l4.6,1.98Z"/>
  <path d="M523.47,465.31l-.37,8.59,5.63,1.27c-.3,3.12-4.42,3.06-6.52,1.58-3.24-2.29-2.1-7.92-.77-11.05l2.03-.4Z"/>
  <path d="M523.48,479.12c4.05,1.56,6.06.32,9.53-1.33.74-.35,1.37-.94,1.64.36.86,4.11-11.66,6.55-11.17.98Z"/>
  <path d="M539.91,462.68l-8.87-1.31c-2.04-5.53,11.29-1.41,8.87,1.31Z"/>
  <path d="M532.68,464.65l.64,3.66,3.63-.38.33,1.31c-4.98,2.82-7.28,1.07-6.57-4.59h1.97Z"/>
  <path d="M515.62,467.26c.2.17,1.13-.07,1.61.04l2.3-1.98c.67,6.14-7.95,4.65-6.57-.66,2.9-.85,2.33,2.32,2.66,2.6Z"/>
  <path d="M521.5,457.43c.23,1.41.04,1.06-.83,1.47-1.04.5-7.17,2.36-7.72,1.81-1.43-3.39,7.82-3.86,8.54-3.28Z"/>
  <path d="M19.53,123.52c-4.84-9.07.43-23.89,11.35-25.46,5.26-.76,7.92,1,12.67,1.51,1.12-.79,0-4.47.14-6.41,1.65-21.76,31.99-29.3,47.48-16.94l9.87,10.55c2.68.17,2.47-2.93,3.74-4.87,9.75-14.88,35.92-16,43.85.62,2.58,5.41,1.19,7.65,2.06,12.4.7,3.85,6.57-1.26,9.02-2.15,7.8-2.81,18.6-1.71,25.17,3.46,9.07,7.13,10.1,14.9,7.59,26-.19.26-4.28,1.28-4.63,1.28H19.53Z" fill="#fff"/>
  <path d="M558.25,268.05c-27.04.27-54.11-.09-81.16.04-24.05.12-48.24.14-72.32,0-3.76-.02-7.87,2.35-10.01-1.77-7.91-15.22,12.54-29.31,27.17-25.19,2.57.72,4.66,3.06,7.52,2.67,1.67-24.43,33.23-31.49,51.63-19.74,5.23,3.33,6.84,7.74,9.25,13.12,2.89,1,4.52-4.06,6.51-5.87,8.41-7.65,26.42-6.23,32.02,4.13,2.43,4.49,1.32,7.48,2.45,12.02,1.36.98,6.25-1.42,8.33-1.62,12.76-1.27,21.71,10.19,18.59,22.2Z" fill="#fff"/>
  <path d="M386.23,147.02c1.81,3.22,6.16-1.76,8.36-2.82,7.19-3.45,17.46-1.86,23.06,3.94,4.36,4.52,5.8,9.73,6.5,15.85,1.99,1.18,3.15-.88,4.65-1.36,3.77-1.2,6.35-1.16,10.02.5,4.94,2.23,10.27,9.88,6.65,14.86l-142.98.37c-5.9-15.74,6.81-30.97,23.26-28.38,2.14.34,7.89,3.72,9.07,2.85,1.13-5.6,0-9.53,2.71-15.05,1.88-3.83,8.9-9.26,13.05-10.61,15.55-5.05,29.58.94,35.03,16.22.43,1.2.21,2.91.62,3.65Z" fill="#fff"/>
  <path d="M525.07,80.51c25.17,33.11-14.53,74.49-52.25,57.16-1.12-.52-8.96-4.66-7.86-5.61,8.01-.51,16.28-5.1,21.71-10.83,14.39-15.19,14.44-38.85-1.98-52.61-2.2-1.84-4.6-2.45-6.58-4.26,18.16-4.07,35.68,1.32,46.96,16.15Z" fill="#fff"/>
  <path d="M143.74,253.39c2.94,4.07,3.39,8.44,1.06,13.12l-102.98-.29c-4.22-12.94,8.44-23.25,20.97-18.33,2.29.9,5.33,4.4,7.29,3.76,1.81-.59.8-4.48,1.12-6.14,3.38-17.46,28.42-20.89,39.72-8.27,3.66,4.09,3.11,9.31,5.27,13.8,2.88-.92,4.83-2.95,7.85-3.97,8.67-2.93,14.45-.97,19.7,6.32Z" fill="#fff"/>
  <path d="M97.69,563.01c1.52,1.81,4.55,4.85,2.45,7.73-1.32,1.81-20.71,2.15-23.97,1.08-1.69-3.29-4.78-7.04-8.97-7.26,6.77-11.38,22.2-11.42,30.49-1.55Z" fill="#fff"/>
  <path d="M72.46,573.76c-4.48.78-8.86,1.73-13.47,1.31-3.42-.31-7.45-.66-4.98-4.95,3.46-6.01,17.39-4.05,18.44,3.65Z" fill="#fff"/>
  <path d="M132.53,747.71c2.13,2.58,3.39,3.27,2.06,7.48-1.72,3.48-22.2,3.55-26.29,3.27-2.79-.19-12.37-1.39-13.88-3.22-2.31-2.8-.24-8.17,2.33-10.28,10.12-8.27,27.41-7.39,35.78,2.75Z" fill="#fff"/>
  <path d="M87.38,762.62c1.93,1.67,5.37,6.89,2.45,8.94-3.48,2.44-24.61,2.54-29.46,1.95-9.62-1.17-7.91-8.13-1.73-12.76,7.3-5.47,21.9-4.03,28.74,1.87Z" fill="#fff"/>
  <path d="M513.2,775.33c.35.45,1.5.63,1.69,1.25l-.65,1.92c-3.56,2.87-20.46,2.97-24.49.88-3.03-1.57,1.14-6.21,2.83-7.4,6.67-4.7,15.77-2.86,20.61,3.36Z" fill="#fff"/>
</svg>