<?xml version="1.0" encoding="UTF-8"?>
<svg id="Camada_1" xmlns="http://www.w3.org/2000/svg" version="1.1" viewBox="0 0 595.28 841.89">
  <!-- Generator: Adobe Illustrator 29.0.0, SVG Export Plug-In . SVG Version: 2.1.0 Build 186)  -->
  <path d="M.14,841.29V-.06h595v841.34H.14ZM590.54,3.89H4.08v677.68h12.16c15.62,0,28.91,12.98,36.27,25.18.8,1.33.4,3.32,1.87,4.4,15.23-13.75,41.24-7.68,50.2,10.27.79,1.58,4.03,9.91,4.03,11.09v9.53c9.37-1.97,17.97-3.17,27.31-.02,12.7,4.27,22.7,17.3,23.31,30.61.11,2.3-.29,4.03-.65,6.23,21.95-8.63,43.32,10.87,38.49,33.56-1.96,9.22-7.85,15.98-14.82,21.99-1.29,1.11-3.11,1.68-3.95,2.95h241.29l-11.53-7.86c-11.56-13.25-16.35-27.13-4.52-42.04,7.85-9.89,19.42-12.15,31.45-10.52,1.6.22,2.76,1.21,4.32,1.26-2.68-11.2,2.21-21.5,9.85-29.26,10.46-10.63,24.57-12.99,38.43-7.58,1.18-.3,1.51-5.43,2.16-7.04,6.27-15.55,18.49-26.63,35.57-29.53,21.89-3.71,39.65,3.81,51.73,22.13,3.64-3.74,8.52-5.8,13.48-7.22v-110.43c-11.78,4.22-23.1,10.04-35.2,13.17-9.07-1.03-17.78-3.52-26.51-6.03l-.12-16.31-21-4.63c-2.08,11.02,6.29,21.72-4.7,29.14-14.99,10.13-41.98,13.76-59.21,8.78-6.6-1.91-15.01-7.1-11.64-15.07.33-.79,2.67-1.63,1.91-3.8-12.52,3.44-25.11,7.5-38.29,5.09-7.28-1.33-15.83-4.44-15.55-13.25.21-6.85,9.03-13.57,14.09-17.46,2.73-2.09,5.73-3.28,8.19-5.61l-6.43-1.13-.8-15.63h-29.91c-.53,0-1.23,1.57-1.02,2.27l2.52,38.02c-1.33,4.53-20.16,7.87-24.54,9.64l.04,20.39c4.3,4.67,10.3,7.17,15.38,10.92,6.04,4.46,11.26,7.93,12.39,15.87,1.52,10.75-13.33,15.38-21.83,15.98-13.65.96-21.49-2.11-32.23-9.9-2-1.45-10.38-8.1-11.43-9.6-.9-1.29-1.32-3.57-1.42-5.15l1.34-35.19h-16.44s.51,37.64.51,37.64c-.66,3.66-8.55,9.67-11.74,11.93-14.67,10.42-34.66,15.77-50.15,3.56-8.13-6.41-3.93-15.23,2.57-20.9,6.25-5.45,14.86-9.5,21.39-14.77,1.08-1.8.81-21.41-.13-21.98-4.3-.29-21.6-3.69-22.79-7.78l1.83-40.94-107.82.65v15.45c4.79,2.43,10.16,3.56,14.9,6.13,8.26,4.48,15.31,12.51,4.39,19.07-8.53,5.12-26.69,3.66-36.71,2.73-4.07-.38-8.14-1.32-12.17-1.96,1.77,8.62-9.56,11.36-16.08,11.86-10.34.79-36.94-3.17-45.04-9.6-.93-.74-1.46-2.06-2.64-2.73.56-4.16-1.46-9.84,1.35-12.96l3.26-64.35-9.57-3.06c-1.05-5.59,1.12-11.16,1.54-16.71-.35-1.6-6.56-2.33-8.38-3.4-7.05-4.16-7.05-18.31-6.61-25.57.12-2,1.49-5.72,1.32-7.25-.21-1.85-2.71-1.77-3.19-3.4-.32-1.08-.71-6.16-.8-7.74-.89-14.48-.49-33.52.69-48,.25-3.06,2.05-8.78,1.9-11.24-.1-1.65-2.29-2.07-2.58-3.93-.43-2.69,2.63-10.44,3.84-13.23,4.82-11.2,15.09-21.8,25.97-27.28,3.15-1.58,7.72-2.96,11.17-3.95,1.28-.05,1.55-3.14.78-3.17-3.69.6-7.36,1.5-11.16,1.31-2.02-.1-12.55-2.15-13.05-3.43l3.51-33.57c3.5-4.77,1.73-12.69,1.93-18.56.26-7.6,3.44-18.52,8.57-24.29,1.09-1.22,4.29-2.76,4.92-4.28.66-1.61.08-3.25.49-4.76,2.67-9.79,11.48-17.44,21.55-18.23l3.29-156.12c-.26-1.38-5.59-4.94-6.42-6.7-1.3-2.75-1.47-8.96-.86-11.97-9.02-2.78-12.69-11.21-13.13-20.08-.14-2.91-.56-6.8,1.67-8.9h95.99c1.54,1.02,1.52,1.92,1.68,3.58.76,7.62-.81,17.04-6.91,22.09-1.77,1.46-3.47,2.07-5.34,3.25.4,3.99.54,7.1-.81,10.98-1.45,4.17-5.06,5.29-7.42,8.39,1.71,55.25,1.72,110.49,3.31,165.69.28,9.55.05,20.1,1.36,29.54.13.94-.6,1.92.96,1.66,6.41-15.46,23.28-19.36,38.46-15.78.19-22.71.18-45.35.63-68.05.45-22.61-1.33-56.65,5.85-77.6,21.34-62.25,85.13-94.34,149.46-80.25,58.64,12.85,93.86,58.52,95.87,117.07.7,20.56.92,41.29,1.34,61.81.33,16.14-.15,32.25.64,48.33l5.88-8.9c9.98-8.37,22.5-5.26,32.24,1.68.8-58.78,3.44-117.44,2.97-176.16-6.36-3.89-7.62-11.48-6.56-18.43-8.86-3.63-11.78-11.56-12.2-20.64-.13-2.77-.5-6.25,1.67-8.24h95.33l.99.99v11.83c0,2.08-3.47,9.61-4.99,11.44-2.63,3.17-4.79,2.93-7.82,5.28.89,4.87.09,9.69-2.69,13.8-1.32,1.95-3.25,2.23-3.61,4.94-1.75,13.08,2.25,29.3.66,42.79,2.05,37.58,1.56,75.4,3.34,113,.17,3.6-.18,7.27-.03,10.88h3.95s-.51-11.04-.51-11.04c11.88-5.99,30.82-.06,33.23,14.15,1.21,7.15-1.2,6.48,3.43,13.48,7.05,10.65,10.9,24.38,4.01,36.27l3.12,39.43c-6.63,5.34-16.91,3.75-24.87,3.01l.03,3.26c12.25,2.22,23.26,8.99,31.51,18.09l5.94,9.54V3.89ZM144.78,45.96l-91.43.29c-2.2,7.91,1.28,22.22,10.88,23.39l68.35-.06c4.94-1.4,8.04-4.46,9.88-9.18.58-1.47.57-3.83,1.03-4.76.37-.76,1.29-.41,1.29-.48v-9.2ZM542.54,45.96l-90.76.29-.64,1.34c1.12,4.96.23,10.89,3.02,15.41.93,1.5,6.76,6.28,8.54,6.58l68.19-.12c5.35-.98,11.66-8.66,11.66-13.98v-9.53ZM398.97,96.81c-64.47-89.37-217.18-52-222.66,61.19-.7,14.49.19,29.23-.63,43.73,4.86-1.39,11.06-1.88,16.11-1.32,16.93,1.88,38.63,25.68,51.95,36.14,1.46,1.15,4.37,3.78,6.04,3.86,1.24.06,6.95-9.77,9.08-11.71,4.09-3.72,10.79-7.38,16.1-8.89,10.49-2.97,34.04-3.28,44.41.29,12.86,4.44,23.29,18.8,26.15,31.7,1,4.53,1.32,9.09,1.77,13.69,21.69-11.42,38.92-39.82,66.91-32.39,2.36.63,4.58,1.67,6.71,2.81l-.65-46.67h-106.17c-6.74-.94-14.7-3.08-12.2-11.53s12.54-8.28,19.73-6.88c1.64-12.75,14.62-14.42,25-11.17.24-14.08,13.09-23.23,26.62-22.33,11.01.73,18.35,12.62,18.09,22.99,9.61-4.85,24.85-2.29,23.66,11.18,6.41,1.76,4.77-6.33,4.64-10.88-.68-23.45-7.01-44.9-20.66-63.81ZM131.63,72.91h-65.75c-.54,6.49.06,13.32,7.19,15.49,15.63-.62,33.7,1.79,49.06.32,8.23-.79,10.57-8.64,9.5-15.81ZM529.39,72.91h-65.75c-1.04,6.66.17,13.93,7.85,15.48,13.58,2.74,34.08-1.48,48.4.33,8.31-1.89,10.62-7.7,9.49-15.82ZM124.4,91.97h-51.94l-3.33,154.72,6.5,2.48.11,11.07c16.37-.51,33.35,10.99,39.3,26.11.47,1.19,3.3,9.94,3.3,10.49,0,.92-1.04,1.53-1.11,2.47-.28,3.99,2.89,15.65,3.21,21.08.53,8.98-.31,18.48-.08,27.51-1.03,3-12.67.94-15.26,1.83-.9.31-5.1,6.12-7.67,6.14l18.08,10.2c2.93-9.69,8.79-17.66,13.45-26.57l-3.86-3.29c3.48-18.15,4.18-36.19,3.94-54.65-.67-50.25-3.11-100.8-4-151.12-.23-12.84.45-25.68-.63-38.48ZM522.82,91.97h-51.94c-.16,9.96.21,19.97.03,29.93-.57,31.03-2,62.24-2.68,93.28-.18,8.22,1.05,19.32.08,27.02-.16,1.25-1.26.64-1.42,1.88-.69,5.43-.66,22.87,0,28.34.05.45,3.05,5.82,3.67,8.18,1.18,4.51,6.2,28.89,4.61,31.57l-4.93,2.29c5.02,6.63,6.42,15.03,8.6,22.81.13.47,1.04.44,1.31,1.47,2.2,8.57,2.18,17.97,3.9,26.65l15.1-8.21c-6.49-5.8-10.35-13.33-11.64-21.87-1.91-12.55.28-24.53,1.71-36.88l-3.77-1.82c-.22-2.12-.49-7.74,1.67-8.66,1.13-.48,2.91.08,4.15-1.11.92-.89,4.38-8.88,6.31-11.44,4.84-6.42,13.64-12.35,21.33-14.83,2.81-.91,5.81-1.06,8.57-2.04l-4.64-166.57ZM349.91,156.05c-.41,2.9.3,6.53,0,9.53-3.29.06-5.09-3.19-8.37-3.79-9.7-1.77-18.06,3.01-16.61,13.65-3.61-.18-6.45-2.53-10.22-2.65-8.88-.27-14.98,10.75-2.95,12.86,8.02,1.41,20.87.22,29.26.27,26.2.15,52.4-.05,78.59.03v-11.83l-7.89,1.97c1.86-11.16-4.22-16.47-15.16-14.17-4.22.89-4.74,4.54-8.51,4.96-.16-3.74.42-8.38-.72-11.97-.45-1.41-3.99-7.9-5.22-9.37-5.01-5.97-14.28-5.72-20.96-2.58-3.27,1.54-10.74,9.53-11.24,13.08ZM225.43,224.31c-11.34-8.04-23.5-20.74-38.28-21.23-1.7-.06-11.31.97-11.51,1.69l-.66,69.51c8.15,2.9,11.62,7.84,14.98,15.36.32.73,1.21.7,1.45,1.33.75,2.01,1.24,10.31,1.35,12.98.3,6.97.2,14.03-1.37,20.83l-7.82,11.69c6.78,3.3,11.7,8.66,15.55,15.02l32.63-.03,10.31-10.73v-.95c-3.9-1.98-8.11-8.26-7.9-12.8.1-1.97,1.37-4.03,1.29-5.9-.1-2.13-2.07-5.17-2.43-7.44-1.88-11.95,7.19-15.05,8.26-23.03.29-2.15-.66-4.03-.54-6.37.13-2.54,1.65-4.6,1.94-6.64.47-3.26-.28-7.17.01-10.5.72-8.14,2.95-15.75,5.22-23.53-7.54-6.45-15.91-11.78-22.5-19.27ZM328.42,266.63c-1.09-2.8-.64-10.99-2.86-13.28-1.81-1.87-7.02-2.59-9.43-3.72-6.78-3.19-13.48-7.57-17.78-13.78-.76-1.09-2.87-6.9-4.32-5.86-3.13,8.74-13.2,15.83-21.26,19.84-2.31,1.15-8.38,2.31-9.53,4.27-.58,2.39-1.5,4.87-1.92,7.28-.54,3.04-.26,7.61-.84,10.23-.12.52-1.19.18-1.35,1.39-.22,1.7-.22,6.93,0,8.63.16,1.21,1.23.86,1.35,1.39,1.28,5.72.29,9.54,4.62,14.99,6.11,7.71,10.31-1.65,15.98-4.4,1.68-.82,4.49-1.38,6.37-1.85-3.66-6.43,1.17-12.26,2.99-18.37.45-1.5-.19-5.5,2.59-4.63,5.31,1.67-6.81,18.11-2.19,21.57,7.1.29,13.92.95,20.22,4.44,7.87,4.35,9.94,11.59,16.16-1.03.35-.7,2.16-4.84,2.24-5.12.95-3.37.85-18.06.04-21.38-.11-.47-1.02-.46-1.09-.63ZM420.8,238.65c-25.66-13.54-44.75,10.79-63.45,24.09-1.6,1.14-9.45,5.54-9.75,6.03-.56.92-.5,5.61-.29,6.88.35,2.07,2.17,3.44,2.54,6.01.76,5.29-1.42,8.59,2.03,13.57,4.52,6.52,6.36,10.42,5.09,19.07-.4,2.76-2.42,5.6-2.49,8.09-.1,3.54,2.77,5.86,1.95,11.75-.58,4.14-2.83,5.9-5.2,8.59,3.05.6,6.73,7.9,7.89,8.55,1.67.93,5.23.05,7.22.33.2-13.41,4.93-25.12,15.74-33.28-2.91-3.53-4.4-6.9-5.71-11.25-.44-1.47-1.4-3.68-1.45-3.9-.26-1.06-.23-5.91-.07-7.15s1.22-.85,1.35-1.4c.1-.45.53-4.31.49-4.53-.14-.82-2.25-.15-1.84-3.24.16-1.18,1.13-.93,1.31-1.49,3.27-10.08,6.18-14.41,17.66-15.73,20.06-2.32,22.86,14.42,25.03,29.82.67,4.73,3.76,16.72-1.87,17.99v.96c5.83,7.38,4.55,3.67,9.18-.65.83-.78,5.21-3.64,5.3-3.96.56-1.93-1.14-1.57-1.99-2.58-4.11-4.9-5.15-12.05-5.3-18.39-.05-2.18.95-8.2.72-9.1-.16-.63-1.44-.57-1.87-1.56-2.39-5.56.12-20.07-.74-26.88-.16-1.25-1.26-.64-1.42-1.88-.34-2.68.68-13.52-.06-14.72ZM560.72,254.55c-4.28-4.61-16.37-9.42-22.09-5.76-2.38,1.52.76,6.64.06,9.39,9.21,1.23,17.34,3.63,25.22,8.65,1.05.21,1.08,0,.96-.95-.45-3.56-1.64-8.63-4.14-11.32ZM71.8,250.38c-8.59-3.04-21.01,5.47-23.81,13.33-.29.82-1.36,3.66.46,3.09s5.46-3.19,7.77-4.06c5.21-1.96,10.08-2.6,15.58-3.16v-9.2ZM571.06,282.35c-4.14-8.19-6.07-11.63-14.7-15.88-21.92-10.81-52.55-3.33-61.15,20.72.76-.3,1.4-.65,2.28-.67,26.28-.85,51.43,3.5,76.23,11.78,1.83-.45.55-8.26.21-9.95-.72-3.58-1.78-3.84-2.87-5.99ZM110.38,283.44c-5.78-9.95-17.56-17.38-28.69-19.62-23.93-4.8-50.14,11.74-48.02,37.82,25.44-8.32,53.66-11.83,80.2-7.23.73-.74-2.69-9.58-3.5-10.97ZM466.27,280.61c-2.39-21.34-35.92-24.07-38.14-.99l38.14.99ZM410.17,278.2c-8.67-9.14-29.19-6.47-30.67,7.67h33.52c.61-.59-1.92-6.69-2.85-7.67ZM187.51,292.44c-7.65-25.66-49.78-22.84-53.25,4.6,16.96-6.62,35.38-5.77,53.25-4.6ZM253.25,276.01c-13.07.85-11.68,20.46.66,20.38l-.66-20.38ZM336.19,295.63c12.22,3.43,15.06-20,1.51-19.39l-1.3,1.71-.2,17.68ZM457,283.31l-28.24-.45c-2.09,6.35-1.61,15.04.37,21.41,3.11,10,18.52,11.47,25.35,4.31,6.12-6.41,3.31-17.19,2.52-25.27ZM466.86,283.35l-6.51-.11c1.57,4.1-.58,24.7,1.74,26.35,1.4.99,8.03,1.7,9.67,1.16.55-.13.84-.47,1.02-.99.37-1.13-3.43-21.06-4.18-23.29-.45-1.33-2.03-1.3-1.74-3.12ZM405.07,289.21c-.93-1-23.48-1.24-24.77.09-2.58,6-1.79,20.18,2.53,25.1,5.2,5.92,22.64,4.43,23.65-3.2.3-2.25-.66-21.19-1.41-21.99ZM414.24,289.91c-9.59-3.23-5.35,3.54-5.14,9.41.12,3.37-.73,11.16-.04,13.69.42,1.53,5.67,3.16,7.52,1.85s-2.04-21.46-2.34-24.95ZM574.01,301.73c-26.27-8.16-55.32-14.48-83.03-11.19-.64.08-2.22.33-2.38,1.03l.02,3.51c21.75.84,44.48,2.35,65.77,6.88,6.58,1.4,13.13,3.93,19.7,4.96l-.09-5.17ZM155.82,295.27c-1.68.15-8.56.89-8.99,2.19-.09,8.25-2.24,17.41-1.43,25.59,1.23,12.43,18.2,16.33,28.45,13.92,17.37-4.09,17.05-26.55,14-40.59-1.39-1.82-28.04-1.47-32.03-1.1ZM109.49,315.93c-.56-3.17-2.28-18.51-4.59-19.43-16.52-2.2-33.24.18-49.57,2.83l-1.28.8-1.32,16.18c-.12.52-1.2.19-1.35,1.39-.99,7.91-.12,14.48,2.83,21.59,6.69,16.12,25.49,21.78,40.85,14.19,8.84-4.37,11.91-11.61,14.07-20.77.35-1.49,1.49-4.77,1.53-5.05.27-2.04.27-8.56,0-10.6-.15-1.15-1.13-.96-1.16-1.12ZM107.3,346.34h9.53c.94-.58.91-1.31,1.02-2.27.91-7.74.17-21.62-.77-29.53-.32-2.72-1.94-13.94-2.66-15.75-.56-1.39-3.39-1.74-4.81-1.77-2.54-.05.91,2.02.98,2.64l-1.31.65c.48-.07,1.08-.06,1.28.49,3.25,8.81,3.81,31.41.12,40.02-.27.62-3.94,5.11-3.38,5.52ZM142.81,298.37c-4.44.05-8.11,1.26-10.49,5.07l-2.93,32.47c4.18,1.4,9.03.22,12.79-1.83-.6-11.91-1.25-23.97.63-35.71ZM548.88,344.8c3.23-5.91,3.95-16.32,4.22-23.08.1-2.57.38-15.43-.67-16.48-18.63-4.37-37.85-5.44-56.89-6.94-3.72.08-3.62,7.65-4.19,10.98-.36,2.09-1.37,5.17-1.45,5.79-.85,6.52.25,14.99,1.54,20.9,2.68,12.25,5.88,19.47,19,22.41,14.06,3.15,31.04-.05,38.44-13.59ZM50.76,300.34c-3.08.88-15.5,2.98-16.62,5.4l-5.67,43.17c2.76,1.14,17.59,2.38,18.71.77.74-16.48.39-33.11,3.57-49.33ZM282.37,306.43c-1.21,1.48-1.6,5.49-.7,7.22,2.96,5.67,21.76,5.81,26.13,2.11,3.59-3.04,2.23-9.76-2.58-11.19-4.49-1.33-19.78-1.92-22.86,1.86ZM571.1,311.23c-.5-.83-.35-1.7-1.38-2.24-1.3-.68-13.47-3.29-14.03-2.75l-.69,43.75c6.41,1.58,12.69.98,19.02-.43.12-9.28-1.21-18.59-1.93-27.84-.22-2.9.46-6.55.07-9.26-.16-1.09-.87-.89-1.07-1.23ZM458.99,310.25c-1.01-.45-5.89,3.58-7.24,4.15-5.73,2.4-11.1,1.19-16.98.72-7.47,4.91-13.87,12.01-17.09,20.4,4.36,4.23,7.17-1.17,10.09-.99,8.01.48,10.21,21.72,11.88,21.67,2-2.28,3.38-3.43,6.58-3.33,4.46.14,4.52,3.12,5.39,3.36,1.97.54,5.82-.41,8.08-.02-.3-3.33-2.45-24.65-.66-25.97.82-.6,1.07-.35,1.67.32l3.92,54.57c5.44-5.25,9.01-12.88,15.81-16.41.62-.89.38-6.06.3-7.58-.29-5.53-3.13-17.49-4.64-23.62s-5.59-19.27-10.42-23.08c-2.04-1.61-4.13-1.74-6.16-2.93-.49-.29-.46-1.22-.52-1.25ZM380.81,351.6h18.08c.25,0,4.01-2.54,4.14-2.76.97-1.71-1.19-5.04,2.43-7.77,2.28-1.72,3.9-1.54,6.54-.73l6.77-14.72c-3.02-4.27-6.49-7.26-11.34-9.36-3.88,3.5-9.27,5.23-14.46,5.14-5.78-.1-5.76-3.3-11.19,1.25-8.36,7.02-11.93,18.22-12.15,28.94l8.26-.64c-.48-4.48-.59-10.35.3-14.79.29-1.45.79-1.88,2.28-1.67.85.12.24,15.3.33,17.09ZM192.12,362.45c.37,3.76-.27,8,0,11.83,2.77,2.56,6.79-.31,10.07-.34,1.94-.88-.8-2.19-.85-2.41-2.06-8.92-2.08-15.89-8.56-23.55-1.49-1.76-9.82-9.03-11.66-9.41-2.81-.58-6.1,2.07-9.11,2.46-9.04,1.18-18.92-1.6-25.59-7.83-.03,6.44-8.06,4.91-12.29,6.63-4,1.62-10.43,16.27-12.38,20.5-.16.35-1,.45-1.24,1-1.11,2.53-2.94,6.58-1.41,9.06.21.34,5.54,5.13,5.92,5.25,1.17.39,12.66.79,13.18.27.18-2.77,1.56-20.29,4.29-20.35,1.42,1.07,1.05,2.73.98,4.25-.49,11.27-4.31,23.1-4.32,34.55.54.7,4.76,1.23,5.94,1.31,9.41.69,24.11.63,33.54-.03,1.98-.14,8.15-.88,9.76-1.42.53-.18.89-.38,1.01-.96l-1.22-37.05,1.94.04c.52,2.05,1.76,3.76,2,6.21ZM280.11,340.51c-.38-.23-4.08.66-5.48.61-2.98-.1-6.8-1.49-8.9-3.63-1.21-1.24-2.14-4.34-3.47-4.22-13.97,5.39-25.06,14.82-31.47,28.4-18.87,40.01-21.4,70.5,16.89,98.37,1.84,1.34,12.06,8.28,13.47,7.23.3-1.7-1.97-4.45-2.02-4.88-.6-4.56.51-9.2,1.98-13.23,2.57-7.04,6.57-13.28,13.18-17.05-12.33-9.18-24.74-18.48-38.77-24.99,1.61-5.27,9.93,2.92,11.17,1.65.1-9.27.09-18.67.67-27.93.22-3.49,1.4-6.87,1.95-9.33.4-1.76-.97-4.87,1.98-4.8.13,1,.68,1.9.67,2.95-.02,5.67-1.22,12.67-1.35,18.39-.19,7.94.07,15.95.16,23.89,3.46,2.43,7.6,4.66,10.98,7.09,4.44,3.2,10.95,9.28,15.48,11.47,1.24.6,11.32,2.55,12.53,2.53,1.48-.02,3.43-1.75,5.33-1.88,2.68-.19,3.88,1.51,5.19,1.64.8.08,14.08-1.5,14.94-1.85,5.35-2.19,17.85-12.11,23.55-15.89,1.15-.76,2.51-.85,3.61-1.65-.15-9.48.08-19.14-.36-28.61-.2-4.14-1.64-8.86-2.02-11.8-.25-1.9.27-4.3.05-6.29l2.21-.02c2.48.58,3.47,39.43,3.05,44.06.9,1.01,7.19-5.46,10.33-4.12.74.32,1.04-.04.84,1.15l-36.15,23.68,9.22,9.34c5.2,9.4,4.74,18.12,3.59,28.44,16.07-9.01,34.29-23.33,39.98-41.54.96-3.07,1.01-7.23,1.81-9.91.16-.55,1.15-.44,1.27-.93.85-3.54-.8-8.8-1.37-12.29-3.79-23.14-11.4-51.6-32.59-64.7-1.76-1.09-10.44-5.42-11.99-5.72-2.03-.39-4.35,4.46-6.83,5.73-3.62,1.86-7.39,1.26-11.19.48-7.39,11.36-20.93,10.52-30.74,2.38-.78-.64-1.19-2.13-1.38-2.24ZM432.35,347.41c-.67-1.62-3.19-10.89-6.21-8.66-2.75,2.03,4.07,16.98,2.54,20.63-4.86,1.04-12.35,4.62-16.96,5.08-3.91.39-6.66-8.35-7.26-11.55-3.22-.49-2.78,2.46-2.61,4.92.55,8.21,8.87,27.52,15.81,32.17.81.54,2.18,1.41,3.08,1.56,2.47.43,11.75-4.17,14.42-5.67,2.42-1.36,9.78-6.03,10.73-8.33.72-1.75,3.16-12.42,3.31-14.44.17-2.41.43-5.95-2.58-6.61-4.79-1.05-5.24,7.74-7.63,10.2-1.6,1.64-5.34,2.86-6.71,4.14-.6.57-3.62,7.11-4.75,3.33-1.24-4.16,5.42-7.95,8.52-9.23.35-5.57-.66-11.16-2.56-16.39-.32-.88-1.08-1-1.14-1.16ZM421.17,342.81c-.4-.63-.46-1.57-.89-2.05-1.38-1.54-4.27-2.73-4.66.02-.59,4.21,3.39,11.75,3.44,16.29,1.15,2.5,5.13.21,7.11.45-1.36-3.88-2.17-9.57-3.59-13.2-.47-1.19-1.14-1.09-1.41-1.51ZM410.39,361.46c.27.32,6.14-1.34,5.8-2.82-1.14-2.64-2.46-13.97-4.93-14.83-2.96-1.03-5.55.09-5.44,3.4.06,1.97,2.45,8.95,3.31,11.1.24.6,2.08.96,1.26,3.15ZM53.39,346.34v12.16c10.46,8.31,30.87,10.9,40.1-.32-11.13,3.31-25.67,2.1-34.53-5.91-2.06-1.87-3.26-4.37-5.57-5.93ZM505.07,360.81c6.16,18.59,35.59,9.18,44.71-2.3l.63-8.56c-3.94,2.08-6.25,5.83-10.3,8.1-10.98,6.16-23.15,5.36-35.05,2.76ZM230.25,354.89h-29.59c3.4,5.9,5.04,12.85,4.9,19.75.75,1.01,15.06,1.03,15.83-.01,1.52-7.3,6.24-12.83,8.86-19.74ZM397.9,354.89h-36.16c1.47,3.1,3.86,5.66,5.37,8.76,1.03,2.11,3.37,10.06,4.16,10.96.28.32,2.97,1.31,3.29,1.31h28.27l.73-1.36c-2.48-4.69-2.93-10.39-4.39-15.23-.14-.48-2.42-1.71-1.27-4.44ZM121.56,376.78c-1.69-2.23-7.3-7.31-9.7-9.03-1.81-1.29-13.49-8.12-14.88-8.13-1.86.31-2.32,2.53-3.82,3.82-11.25,9.64-34.02,5.83-44.04-4.41l-7.57,2.45c1.05,2.68,3.49,4.31,5.13,7.03,4.01,6.68,7.13,19.73,7.39,27.45.08,2.21.38,7.57-.74,9.18l-7.76,3.42c-.97,9.18-1.17,18.31-1.4,27.52-.04,1.71-1.58,5.27.17,6.75.85.73,9.73,2.37,10.39,1.86,1.38-17.34,19.82-15.79,17.71,1.59,9.31.16,18.64-.08,27.86-1.4,2.74-.39,15.04-2.55,16.57-3.81.84-.69.83-1.35.96-2.32.93-6.96-.77-15.87,0-23.06l-2.65-31.86,2.03.39,2.2,18.71c.91,1.35,8.31-.56,9.95-1.31-.32-7.62-3.09-18.56-7.82-24.82ZM459.7,359.48l-6.62.29c-1.16.81-.45,4.2-.62,5.63h7.24s0-5.92,0-5.92ZM582.92,378.93c-5.74-7.8-17.91-17.26-27.74-18.61-5.22-.72-2.9,1.31-5.73,3.78-9.64,8.41-28.65,13.93-40.4,7.5-3.53-1.93-7.42-6.83-7.28-10.81-8.1,2.02-17.16,7.38-23.32,13.17-3.72,3.49-16.33,18.87-16.78,23.38-.35,3.58,6.76,10.56.79,9.32l-15-24.23c-8.14,4.18-15.26,8.84-23.96,12.19-1.79.69-3.84.9-5.62,1.61-.76.3-1.06-.44-.91,1,.22,2.09,2.72,7.91,3.74,10.06,3.98,8.33,15.37,25.82,23.7,30.24,9.05,4.81,21.71,2.59,29.26-3.92,1.79-10.88,2.55-22.13,5.14-32.86.99-4.1,3.85-13.91,5.67-18.12,1.31-3.03,2.86-2.94,2.39.39-1.73,12.16-6.86,26.37-8.68,38.01-1.16,7.43-1.74,15.98-1.95,23.47.74,2.15,15.3,5.68,18.15,6.17,5.08.89,14.65,2.1,19.56,1.51,2.77-.33,5.89-3.17,8.99-4.16,4.2-1.34,9.44-1.02,13.05-2.07,1.96-.57,7.95-5.56,10.7-7.05,4.67-2.53,10.51-4.6,15.48-6.55.19-1.58.19-3.24.08-4.83-.31-4.41-1.9-8.9-2.78-12.99-1.55-7.24-3.97-14.43-4.44-21.85,4.59-1.2,2.42,8.67,5.86,10.7l4.66,27.1,6.15-1.26,1.07,2.23c-8.09,3.68-17.69,6.45-25.42,10.74-1,.56-7.17,4.21-6.13,5.37,10.22,1.83,18.16,13.4,15.12,23.66,11.64.05,24.05-3.41,34.21-8.98v-68.26c-1.58-5.61-4.25-10.45-7.64-15.05ZM16.82,383.39c-2.88,4.91-4.99,10.93-5.91,16.55.41,2.64,14.35,4.72,17.14,4.92,3.54.26,20.11.69,21.73-1.99,1.28-9.62-1.66-33.98-11.55-38.46-1.15-.52-1.45-.4-2.57,0-.82.3-8.33,5.69-9.26,6.54-2.36,2.14-7.94,9.61-9.59,12.43ZM460.36,368.69h-9.2l-1.84,10.67c.64,1.28,9.54,15.62,10.38,14.96,2.74-8.22-.36-17.08.67-25.63ZM201.32,377.89l-8.58,1.03c.91,9.41.57,18.8.71,28.24.02,1.39-.71,2.69-.69,3.92.13,6.04,2.49,13.11,1.97,19.39,3.71.71,5.97-11.82,8.54-9.2.79,5.18-1.29,7.99-4.92,11.18-2.26,1.98-3.92.4-2.96,5.58.74,3.98,6.9-1.35,8.19-2.98,1.47-1.86,3.51-9.07,3.65-11.5.25-4.27-1.87-7.36-2.58-11.22-1.79-9.81-1.15-20.24-3.34-29.64-.33-1.42.17-3.3-.01-4.81ZM188.83,461.7v18.73h48.98l4.19-20.57c-8.43-7.46-17.91-14.79-22.83-25.21-8.52-18.03-4.18-37.65.57-56.1-2.41-.31-13.62-1.85-14.39.42l1.9,26.84c2.68,10.59,5.92,24.36-2.63,33.36-2.52,2.66-5.96,2.52-8.5,4.21l.96,16.05-8.26,2.26ZM404.8,378.55h-31.89c.61,3.16,1.17,6.95,2.04,9.99,8.49,29.74,4.7,47.02-18.13,68.24-3.69,3.43-6.74,2.55-4.89,8.68.16.55,1.11.47,1.22.98.84,3.67.43,9.64,1.45,12.9.43,1.36,1.72,1.02,2.83,1.11,5.17.45,10.26-.61,15.13-.72,7.78-.16,15.59.17,23.37.03,1.42-8.32-1.8-6.07-5.26-9.53-6.2-6.2-1.38-19.38,7.09-21.18l51.42-6.11c-.99-1.56-3.75-1.34-5.42-2.13-10.14-4.81-23.13-24.47-27.11-34.68-1.73-4.44-4.5-9.22-1.06-13.37-4.45-4.43-8.01-8.55-10.78-14.23ZM136.56,379.21h-9.53c1.21,4.24,3.1,8.21,4.28,12.48.74,2.66,1.81,6.37,2.28,8.35.31,1.3-.16,3.04.06,4.45l-1.94.4-.07,3.91h1.97s3.68-28.24,3.68-28.24l-.72-1.35ZM136.9,408.11c17.51,1.65,35.81,2.7,52.95-1.92.2-2.01,1.4-9-1.29-9.2-16.21,3.34-32.88,1.58-49.29,1.36-1.51.52-2.33,7.93-2.37,9.76ZM42.22,408.78c-9.99.48-19.86-1.28-29.58-3.28-1.68,17.59-2.83,35.89-2.01,53.6.09,2,.44,9.12.82,10.36,1.01,3.37,12.99,3.29,16.01,3.11,2.11-.13,12.56-1.84,13.52-3.09l1.25-60.7ZM132.51,459.87c-1.54-4.11-1.09-21.88-1.54-27.74-.26-3.32-2.08-24.85-3.24-25.7l-7.93.38c.75,5.19-.02,11.86.61,16.81.16,1.25,1.26.64,1.42,1.88.73,5.77.71,24.51,0,30.31-.18,1.43-2.08.8-1.73,3.63.23,1.88,1.46,1.82,1.79,2.83,2.5,7.83,3.71,16.69,5.48,24.73l.99.65c1.8-3.38-.03-11.29,5.26-10.52-.3,2.23.46,5.38-.02,7.42-.05.2-1.33,2.5-1.81,3.55-.7,1.57-3.16,4.88-3.31,5.92-.25,1.66,1.17,4.7.55,6.77,13.71-8.68,7.67-27.38,4.55-40.26-.12-.51-.99-.53-1.05-.68ZM190.36,421.09c-.87-1.93.81-10.13-1.94-10.94-17.06,3.75-34.87,3.13-52.14,1.31-3.57,12.86-1.18,26.02-.06,39.06.23,2.64-.6,5.58.6,7.94.75.94,5.97,1.49,7.6,1.61,16.16,1.15,33.68-.29,49.63-2.69.03-10.2-1.35-20.41-2.59-30.53-.4-3.24.24-2.78-1.11-5.76ZM328.49,447.96c-1.64-3.58-6.25-12.01-10.11-13.25-1.05-.34-11.19.2-12.79.43s-3.3.85-4.33,2.25l9.51,5.59c4.01,4.32,11.09,9.5,10.9,16.06-.09,3.03-2.57,5.28-2.65,8.24.46.59,11.37-7.14,12.02-8.74.58-1.43-.89-8.24-1.56-9.8-.25-.58-.91-.64-.98-.78ZM277.59,467.28v-9.53c0-3,3.02-12.15,4.62-14.96l4.55-6.12c.47-1.24-2.19-1.42-3-1.52-6.46-.8-9.92.65-14.09,5.47-2.63,3.03-8.49,13.7-5.93,17.18.19.26,4.32,3.7,4.99,4.21,2.72,2.08,5.86,3.66,8.86,5.27ZM286.79,477.8v-17.42c0-5.13,3.68-15.38,6.69-19.63,1.07-1.51,3.94-3.19,4.49-5.34-3.66-1.3-5.95.38-8.23,2.95-3.96,4.46-8.41,15.52-8.86,21.38s-1.68,17.33,5.91,18.06ZM66.54,460.72c-.8-4.77,7.21-25.54-2.26-24.97-4.79.29-5.44,5.97-6.11,9.7-.35,1.94-1.71,11.03-1.53,12.28.41,2.9,7.45,3.13,9.9,2.98ZM473.5,439.02c-.76-.76-9.32,2.71-7.88,3.94l7.2.65.68-4.58ZM317.31,457.17c-3.56-8.22-9.98-14.44-18.9-16.11-5.23,5.88-7.62,12.85-8.24,20.72-.56,7.12,2.32,5.34,6.18,9.42,2.24,2.36,3.77,8.59,7.49,4.2,1.71-6.81-6.12-10.77-6.53-16.66,1.51-1.67,11.53,10.3,10.56,13.1,9.37-1.19,3.37-10.06-.34-14.45-1.4-1.65-4.48-2.69-4.96-5.55.71-.94.99-1.08,2.17-.9,3.31.51,8.56,9.04,10.66,11.72.46.11,2.89-2.26,2.93-2.44.68-2.7-.83-2.63-1.02-3.07ZM117.82,455.12v-9.86c-.5-.63-.55-.76-1.36-.74-2.69.09-8.94,2.27-12.33,2.83-11.26,1.86-21.4,1.29-32.61,2.1-.51.37-1.97,11.04-1.07,12.27,3.12,2.1,36.18-1.55,41.46-3.32,2.16-.72,4.42-1.46,5.91-3.29ZM412.36,473.2c-4.24-14.87,3.69-17.25,16.12-19.05,14.13-2.05,28.52-3.08,42.72-4.62,2.35-.42,2.54-2.69-.21-3.08-4.1-.58-10.98-1.61-14.89-1.57-9.51.1-25.95,2.82-36.08,4.09-4.76.59-19.85,2.08-23.24,3.72-4.74,2.3-7.29,10.15-4.44,14.57,3,4.64,14.93,4.5,20.02,5.94ZM43.53,446.25v11.5l1.37.73,7.89-.68,1.84-9.19c-.32-1.35-9.19-1.52-11.09-2.35ZM475.48,449.87c-.72,2.42.53,7.99,0,10.85,9.04,3.79,18.54,6.85,28.49,6.6,1.34-4.51,3.78-7.7,6.36-11.52-7.21-1.16-14.58-1.66-21.72-3.27-2.2-.49-10.8-3.67-11.53-3.62-.62.04-1.44.45-1.59.97ZM513.18,472.76c-.49,1.06-1.15,4.21-.81,5.25l3.22,1.49c1.88-3.55,2.43-6.91,4.98-10.18,1.72-2.21,7.69-8.12,8.12-2.44-4.61,2.81-8.61,8.02-8.23,13.6,5.92,2.64,7.07-5.76,11.74-8.06,5.8-2.87,25.63,4.01,21.17-9.72-7.49-23.11-47.09-13.05-46.39,9.54.04,1.4.79,5.57,2.09,2.68,2.68-5.97,2.49-8.39,7.89-13.14,1.98-1.74,3.39-2.57,5.18-.07-3.6,3.04-5.77,6.2-7.91,10.34-.19.36-.94.48-1.05.72ZM469.44,452.34c-12.07.53-30.81,3.04-42.86,5.16-3.56.63-9.71,1.47-11.44,5-1.51,3.09-1.62,9.78,2.44,11.05,5.07,1.59,9.42-2.98,14.05-5.08,9.65-4.36,20.06-5.98,30.47-7.66,2.26-.36,9.75-.46,10.4-2.04-1.07-4.11,2.7-6.69-3.07-6.43ZM120.71,472.97c-.56-2.01-2.98-12.63-3.92-12.87-12.52,4.24-25.9,4.9-39.07,4.56,2.61,6.56,1.44,10.32-5.82,11.46-1.28.2-3.33-1.13-3.94.8l-7.7,52.85c.47.67,1.28.56,1.98.64,6.06.72,17.35.3,23.73,0,13.96-.67,28.24-3.44,41.42-7.89.9-1.35-1.32-22.49-1.76-25.9-1.04-8.22-2.86-16.2-4.92-23.65ZM74.67,469.05c-.92-1.44-.65-2.34-2.47-3.15s-21.89-5.12-23.82-5.14c-4.63-.04-5.97,5.37-.9,7.51,3.08,1.3,16.48,3.86,20.13,4.19,2.01.18,4.07.32,6.02-.37.12-.04,2.03-1.42,2.11-1.53.89-1.34-.94-1.32-1.06-1.5ZM152.01,463.34l-15.12-1.31c3.21,9.46,4.96,19.58,3.28,29.57h11.83v-28.26ZM186.2,462.03l-21.7,1.31v24.65c6.46,2.91,14.65,1.44,21.7.99v-26.95ZM292.05,542.55v-52.26l-4.31,30.86c-1.59,2.78-11.49,1.66-11.94-2.35,1.39-11.09,2.16-22.37,5.4-33.12.44-1.47.62-4,2.25-3.99l.06-1.26c-6.66-1.73-3.38-9.34-10.28-11.77l-6.14,3.62c-8.74.34-15.28-6.2-22.36-10.26-1.62,9.3-3.21,18.67-4.52,28.02-4.97,35.32-8.06,72.18-9.32,108.34-.09,2.66-.17,5.65.34,8.25.56.93,7.63,2.81,9.25,3.24,30.48,8.09,82.59,9.83,112.73.38,2.41-.76,9.89-3.24,9.89-5.89-2.57-35.82-4.23-71.63-9.23-107.19-.44-3.12.33-8.92-1.96-10.64l-3.31-22.54c-7.8,3.07-19.91,16.77-26.61,5.26-1.86,1.7-4.41,1.7-6.5,2.71-2.36,1.14-6.55,3.82-8.25,5.54-.66.67-1.7.9-2.35,1.61-.47,12.14-.51,24.36-.36,36.51.09,7.03,2.01,18.82.55,25.46-1.15,5.22-12.42,3.41-13.01,1.46ZM269.69,467.93c.85-1.14-6.13-6.36-6.57-5.9,1.18,4.88.33,9,6.57,5.9ZM518.79,483.8c-2.17-1.17-4.78-.28-6.99-1.23-1.64-.7-1.82-2.32-2.84-3.08-.88-.65-2.32-.6-3.23-1.37-1.99-1.7-1.64-6.58-2.6-7.26-8.31-.54-16.59-2.23-24.36-5.22-2.29-.88-3.67-2.7-6.25-2.97-5.79-.61-26.52,4.07-32.7,6.12-20.97,6.96-30.63,21.81-33.96,42.95l-2.39,50.84c7.45,7.8,19.2,11.5,29.7,13.07,8.49,1.28,16.65-.11,24.16.83,4.6.58,10.74,3.61,15.51,4.87,11.53,3.03,23.23,4.39,35.21,4.29l20.65-2.03.72-80.38c-9.49-2.69-12.71-9.96-10.63-19.42ZM161.88,463.34h-7.23c.81,5.56.56,11.39.65,17.1h5.92s.66-17.1.66-17.1ZM330.18,465.32c-3.48-.85-7.91,5.75-3.08,5.06,2.49-.35,2.8-3.07,3.08-5.06ZM590.45,473.77l-.24-7.79c-7.24,3.79-18.21,7.63-26.38,8.46-4.13.42-8.09-.53-11.75-.44-2.44.06-5.51,1.22-7.9,1.23-2.86.02-5.28-1.28-8.41-.57-5.01,1.14-5.46,6.94-8.68,9.07-2.96,1.96-5.36.3-5.62,5.61s3.31,8.62,8.2,10.21c2.2.71,19.89,3.84,20.76,3.23-1.47-3.67-3.55-6.5-2.61-10.7.11-.47,1.03-.51,1.23-.99,1.85-4.39,4.28-8.14,9.11-9.82,9.73-3.4,22.3-4.13,32.28-7.49ZM46.81,481.09l1.24-8.78c-7.59-4.97-4.46,3.76-2.61,7.86.35.78-.31,1.19,1.37.92ZM293.36,478.46c1.33-3.32.31-6.68-3.27-7.89.11,3.09-1.09,7.73,3.27,7.89ZM65.23,475.18l-13.81-2.64c.08,4.74-3.06,11.22-3.26,15.54-.12,2.63,1.09,5.24.58,8.41s-3.24,4.46-3.76,6.1c-2,6.32-4.54,29.94-4.08,36.66.34,4.92,2.09,9.91,2.62,14.8.91.05,1.26.19,2-.45,3-2.6,8.59-13.8,9.64-17.82,1.76-6.78,2.9-15.22,4.04-22.25,1.79-11.04,2.89-22.72,5.33-32.9.4-1.68-.17-3.77.68-5.45ZM39.87,476.19c-.38-.36-.63-1.14-.95-1.31-2.07-1.05-8.04.8-10.81.97-4.5.28-9-.23-13.46-.63-1.63,7.02-2.71,20.39,1.12,26.72.66,1.09,4.39,4.45,5.41,3.8-3.11-3.42-2.74-7.5-2.63-11.83,0-.57,1.4-.44,1.64-.33,1.24.56,2.44,17.16,10.85,14.45.39-2.2-2.27-3.68-2.81-4.76-.82-1.64-4.35-13.79-.81-12.98,3.11,3.62,4.22,17.29,9.9,17.72,2.94.22,5.79-2.78,4.86-5.48-.43-1.25-2.51-.92-3.61-1.69-2.99-2.1-4.57-10.93-4.23-14.5l1.92.04c-.69,4.71,8.45,19.93,9.29,8.21.27-3.84-2.87-15.76-5.67-18.39ZM417.62,477.15c-2.82.25-16.52-3.28-17.79-2.36-1.69,1.23.13,5.47.09,7.29-.04,1.56-.7,3-.74,4.57-.67,30.73.32,61.73.31,92.42,3.13,2.01,12.2.26,13.38-3.16.7-4.67-5.43-5.23-8.71-8.07-1.23-1.06-3.15-2.78-3.5-4.4,1.42-24.59-1.59-50.43,8.23-73.64l8.73-12.65ZM590.54,496.21v-19.06l-32.58,7.86c-7.58,2.65-9.92,16.01-1.32,18.34l33.89-7.13ZM295.99,541.56c1.83-.11,4.04.62,5.26-.99v-59.16c0-1.51-5.26-2.21-5.26,0v60.14ZM290.07,481.09c-5.22-.52-5.54,9.18-6.63,13.28-.12.46-1.03.44-1.31,1.47-.7,2.67-3.41,22.54-2.58,23.37h5.27s5.25-38.12,5.25-38.12ZM361.74,538.27h33.53l.66-55.22c-13.43-.47-26.71.9-40.11.66l5.92,54.56ZM161.22,484.37l-5.91-.65c.36,3.4-.48,7.62-.06,10.89.16,1.21,1.23.87,1.35,1.4,1.07,4.53-1.75,6.86,4.62,10.06v-21.69ZM188.83,484.37v9.53c4.23,3.02,9.18,4.42,13.37,7.67,3.56,2.77,8.58,7.37,4.95,11.96-5.6,7.08-31.32,2.35-39.64.5-1.12.29-1.14,2.96-1.77,4.11-4.41,8-27.34,3.57-34.76,1.07,2.08,7.54-5.42,5.93-9.21,9.53v10.19l109.8-.65c.5-.5.5-12.33.66-14.13,1.06-11.5,2.73-24.53,5.23-34.97.4-1.67-.16-3.77.67-5.45l-49.31.65ZM164.5,491.6v17.42c1.35,1.93,13.05,4.45,13.8,3.61.28-2.63,2.34-6.35,4.06-8.75,1.52-2.11,3.59-4.02,5.81-5.38-1.36-2.23-2.58-3.29-1.98-6.24-7.25.66-14.58,1.31-21.7-.65ZM152.67,502.78l-.62-7.6-12.75-.18c-1.83,1.84-2.71,3.98-4.7,5.82-3.92,3.64-6.07,2.43-4.94,9.84.33.38,5.83-3.58,6.78-4.06,4.91-2.41,10.75-3.64,16.23-3.83ZM590.54,605.97v-106.48l-31.93,7.19c-.29,37.33-1.24,74.44-.94,111.78l32.87-12.49ZM199.34,502.79c-8.29-6.7-17.15,1.96-17.75,10.5,2.18-.36,6.15,1.6,7.93.34.25-.18,2.58-4.53,3.24-5.28l6.58-5.57ZM554.38,618.47l1.22-110.67-.98-.99-21.94-2.72-.68,109.34c.27,1.12,21.43,5.99,22.39,5.04ZM159.24,508.05c-.19-.23-3.53-1.93-4.23-2.02-5.45-.75-14.52,1.61-19.23,4.51-9.35,5.76-.31,7.5,5.95,7.92,4.77-4.02,10.57-9.22,17.18-9.1.57.08.4-1.22.33-1.3ZM203.84,506.84c-3.25-2.02-10.29,3.21-10.41,7.11,2.88.21,11.39.17,11.69-3.72.04-.52-1.08-3.27-1.28-3.4ZM40.9,511.33h-13.15c.88,2.74-2.69,13.45-.69,14.82,2.48-.16,8.59,2.53,10.24.97,1.41-1.33,1.56-11.36,2.29-14.03.21-.76,1.9.03,1.31-1.76ZM162.43,512.08c-6.16-.56-12.48,2.43-16.34,7.13,5.49,1.11,20.34,2.22,16.34-7.13ZM117.82,529.07l-31.56,3.94c.49,11.89-.84,23.64-.66,35.5,10.86,1.56,21.49.26,32.22-1.32v-38.12ZM37.61,531.04c-1.52-.08-1.17-.24-1.32.97-.25,2.14-.46,4.45-.65,6.59-.78,8.69-1.71,18.95-2.01,27.57-.08,2.37,0,4.8.12,7.17.37,1.08,2.06,1.34,3.04,1.56,10.04,2.23,20.92,1.09,31.05.16l2.65-41.06-10.9-.42c-2.88,9.97-7.49,18.55-15.19,25.62l-1.49.07c-.22-.15-1.42-4.24-1.83-5.06-1.51-3.08-3.47-6.23-3.47-10.36v-12.82ZM82.98,533.67h-9.2l-3.25,56.15c.36,3.42,8.03,6.08,10.8,8.27l1.65-64.42ZM121.77,542.22v21.03h107.83c-.16-7.27,1.64-14.43,1.31-21.69l-109.14.66ZM395.27,541.56h-32.87c.42,4.55.04,10.44.61,14.83.16,1.21,1.23.87,1.35,1.4.37,1.57-.2,3.77.02,5.46h30.9v-21.69ZM117.82,570.48c-10.66,1.78-21.44,2.88-32.21,1.31-.31,8.01-.49,15.99-.63,24.02-.05,2.88-1.91,3.79.95,6.22,5.03,4.28,12.75,4.42,18.98,5.21,1.81-2.94,2.04-6.1,4.11-9.11.87-1.26,4.56-4.86,5.86-5.95,2.32-1.95,5.16-4.12,8.2-4.63,1.67-1.62-5.23-1.57-5.26-2.95v-14.13ZM445.9,579.68c-10.06.75-19.64-2.09-29.21-4.64-.57,7.13-9.83,6.18-12.21,11.87,10.19,1.9,19.58,10.05,23.32,19.63l17.3-7.27.8-19.59ZM42.87,612.55c1.04-7.35,9.05-11.93,15.34-14.58,3.45-1.45,7.07-2.1,10.31-3.52-3.37-4.8,1.08-10.62-1.28-15.81-11.54,1.22-22.77.91-34.23-.93l-.53,29.78c.73,2.4,7.99,4.67,10.39,5.06ZM466.93,582.98c-6.07-2.09-11.07-4.23-17.75-3.3v3.28c4.75-.25,11.8,2.86,16.18,2.6.57-.03.93-.1,1.27-.6l.3-1.98ZM504.41,588.88c-11.34-.05-22.55-1.98-33.53-4.6l-.75,11.08c-2.03.62-3.97,1.36-5.84,2.38-.72.39-3.73,1.71-3.27,2.63.33.67,8.26,2.99,9.99,3.82,3.53,1.68,9.18,5.71,11.68,8.7,4.22,5.06,2.16,10.19,10.14,6.81,2.22-.94,10.9-6.69,11.75-8.65l-.17-22.18ZM466.08,593.3c1.08-1.3,1.41-3.34-.24-4.31-3.46-2.03-12.58-1.59-16.65-3.39l-.66,17.09c.66.74,16.88-8.58,17.55-9.38ZM528.73,586.91l-19.96,1.41c-1.41.35-1.54,4.01-.69,4.59l19.3,4.27,1.35-.73v-9.53ZM109.6,607.95c1.52.47,8.25,0,10.52,0,.11,0,1.39-.66,1.49-.82.86-7.3,6.91-12.53,13.29-15.29.3-1.34-.53-.91-1.32-1.27-1.43-.65-4.87-2.13-6.25-2.05-3.56.22-12.03,7.33-14.47,10.2-.51.61-3.89,4.9-3.98,5.21-.32,1.12-.67,3.58.71,4.01ZM421.16,601.79c-6.01-7.41-18.62-18.59-27.2-8.62l11.48,6.91c3.31,3.18,6.53,5.57,8.65,9.78l10.45-2.56c-.06-2.58-2.16-4-3.39-5.52ZM123.74,607.94c6.56.81,22.86-1.24,17.66-11.42-2.43-4.75-6.55-2.08-10,.35-3.71,2.61-6.46,6.69-7.67,11.06ZM79.69,602.03c1.07-1.01-5.26-4.83-6.24-4.93-1.29-.13-9.05,1.59-10.72,2.11-6.55,2.05-14.77,7.48-17.87,13.68l10.71,2.22c5.55-7.21,15.12-11.87,24.11-13.07ZM394.61,597.43c-4.04-.67-9.4.99-9.86,5.65-.22,2.23.88,3.81,3.25,3.52.33-1.35.88-2.76,1.72-3.87,1.55-2.05,4.16-2.98,4.88-5.3ZM393.94,609.25c.37-1.44.51-2.97,1.31-4.28.67-1.1,6.85-4.73,3.62-5.57-2.62-.68-13.37,10.43-4.93,9.85ZM409.32,609.03c-1.82-2.17-3.5-4.45-5.82-6.15-3.09,1.55-7.47,3.52-6.92,7.7,1.93.04,14.55,1.82,14.45-.33-.39-.6-1.32-.74-1.72-1.22ZM445.23,603.35c-19.15,7.21-41.44,17.62-60.81,5.26-1.39,4.16,8.09,7.04,11.35,7.72,12.78,2.65,35.52-2.53,46.4-9.81.99-.66,3.33-1.77,3.07-3.17ZM446.55,608.6c11.13.38,21.13,7.51,27.4,16.35l10.63-2.85c-2.84-9.15-20.62-20.46-29.78-18.72-1.69.32-7.16,3.61-8.25,5.22ZM88.05,613.03c2.82-2.56-1.45-6.86-3.92-7.87-5.81-2.36-21.63,5.56-25.47,10.66,7.51,1.24,15.99,2.43,23.37.04.78-.25,5.69-2.54,6.02-2.84ZM447.87,611.24c-7.26-2.14-15.67,4.7-8.55,10.51.93-4.99,5.83-6.85,8.55-10.51ZM455.75,613.87c-2.66-3.59-14.33,5.55-13.8,9.85l7.89,1.32c-.82-5.05,4.27-7.19,5.92-11.17ZM459.67,626.32c-.14-3.42,1.53-5.45,3.96-7.53l-3.61-2.76c-3,1.61-7.11,5.08-7.56,8.69-.18,1.46.2.74.96.99,1.05.34,5.75,1.08,6.24.61ZM436.69,625.04c1.4,2.34,5.18,4.29,7.73,5.08,14.63,4.52,35.87,1.83,49.71-4.51,2.02-.93,12.98-7.01,10.92-9.78-19.49,13.55-45.98,18.35-68.37,9.21ZM284.09,619.85l-30.17-3.36c.02,4.93,0,9.88-.03,14.82,0,1.52.74,2.78.57,4.4-.4,3.75-2.82,4.65-5.5,6.36-.54.34-1.34-.36-.96,1.37,5.77,1.07,12.49,3.25,17.1,6.9,2.66,2.1,6.71,6.49,7.89,9.53,1.81,1.34,9.92-7.72,11.7-8.99l-.61-31.03ZM338.73,617.15l-30.24,2.63-.52,31.09c3.1,3.98,7,7.16,11.38,9.63,5.51-8.88,14.96-14.79,25.3-16.4-.71-2.19-4.3-3.57-5.29-4.89-3.07-4.13.58-16.72-.63-22.05ZM462.33,626.35c1.41-.16,8.54.63,8.53-.98-3.3-5.66-6.61-5.16-8.53.98ZM270.26,663.04c-1.18-7.91-9.76-12.69-16.83-14.84-5.88-1.79-11.34-3.07-15.94,2.15l14.4,7.28c2.47,2.68,6.25,5.59,8.41,8.39.85,1.11-.92,2.7,3.31,1.23,2.36-.82,4.34-3.24,6.65-4.21ZM356.48,651.32c.63-.81-5.68-4.37-6.95-4.56-7.89-1.14-24.62,7.76-27.2,15.97,2.57,2.15,5.25,4.63,8.74,5.07,5.19-9.08,15.6-14.05,25.41-16.49ZM246.02,671.05c1.69.46,11.81-.81,11.82-2.3-4.06-5.43-8.72-9.97-15.12-12.48-7.13-2.79-13.38-4.67-15.75,4.61.03.79,1.02,2.04,1.64,2.28,1.17.44,3.01-5.79,4.91-6.25l1.98.68-3.83,7.34c-.09,1.85,2.44,2.46,3.83,2.18-1.52-2.34,5.89-9.57,6.58-6.24.23,1.1-8.19,9.49.64,8.84-.77-2.46,4.38-9.92,6.59-7.86.98.91-2,3.16-2.49,4.41-.61,1.55-.95,3.11-.8,4.79ZM364.19,656.77c-.14-.15-3.36-1.93-3.6-1.99-7.37-1.88-22.61,7.39-26.45,13.97.03,1.96,11.77,3.12,13.79,1.63.5-.71-6.96-11.49-.29-7.26,1.82,1.15,2.68,4.51,2.97,6.56,10.47.51.21-7.09.61-8.79,2.63-3.02,7.16,3.42,6.57,6.21,6.35.16,1.52-4.93.01-8.22l1.63-1.01,5.25,5.94c1.99-.79.68-5.83-.51-7.05ZM226.31,665.79c-.12,4.32,6.31,7.58,9.87,8.86,7.87,2.82,20.21,2.46,27.85-1.05,4.84-2.22,16.72-10.74,20.14-14.7.89-1.03,1.43-2.23,1.3-3.63-13.61,10.6-25.27,21.84-44.04,17.41-5.3-1.25-11.03-3.25-15.12-6.9ZM367,666.45c-6.8,3.3-12.19,6.7-20.02,7.25-13.27.93-21.34-3.7-31.48-11.3-2.92-2.19-5.52-4.8-8.32-7.13.91,4.42,5.47,7.81,8.87,10.52,8.67,6.9,18.11,11.69,29.58,11.16,6.35-.29,19.25-3.72,21.37-10.5ZM15.59,684.85c-3.69-.33-7.77.24-11.51,0v152.49h166.01c3.09,0,14.06-9.1,16.44-11.82,18.28-20.84,1.83-51.5-25.19-44.24-1.92.52-8.35,4.73-7.9.05.54-5.62,2.39-7.26.89-13.68-5.24-22.34-28.32-29.8-48-20.35-1.83-1.19-.4-2.67-.35-4.28.78-23.69-20.84-44.65-44.07-32.88-2.9,1.47-7.97,7.61-10.09,6.88-.56-.19-3.24-9.32-4.1-11.05-5.87-11.87-19.07-19.96-32.13-21.12ZM428.47,837.34h162.06v-114.37c-5.88,1.34-9.59,5.62-14.06,9.17-5.86-9.11-12.74-17.31-23.18-21.56-25.39-10.33-56.13,2.64-61.19,30.65-.44,2.41.92,7.98-3.05,6.64-.89-.3-1.41-2.06-2.42-2.86-4.75-3.74-15.25-4.12-20.9-2.53-11.32,3.19-22.94,16.61-23.78,28.15-.19,2.61,1.86,11.05.69,11.87-2.17,1.06-3.87-1.02-5.81-1.5-29.46-7.43-48.59,23.29-27.69,44.77,3.45,3.55,14.68,10.61,19.33,11.57Z"/>
  <rect x=".14" y="841.29" width="595" height=".66" fill="#fff"/>
  <path d="M590.54,3.89v380.58l-5.94-9.54c-8.24-9.11-19.26-15.87-31.51-18.09l-.03-3.26c7.96.73,18.24,2.33,24.87-3.01l-3.12-39.43c6.89-11.89,3.04-25.62-4.01-36.27-4.63-7-2.22-6.33-3.43-13.48-2.4-14.21-21.35-20.14-33.23-14.15l.51,11.04h-3.95c-.15-3.6.2-7.27.03-10.87-1.78-37.6-1.29-75.42-3.34-113,1.59-13.48-2.41-29.7-.66-42.79.36-2.71,2.29-2.99,3.61-4.94,2.78-4.11,3.57-8.94,2.69-13.8,3.03-2.34,5.18-2.1,7.82-5.28,1.52-1.83,4.99-9.36,4.99-11.44v-11.83l-.99-.99h-95.33c-2.17,1.99-1.8,5.47-1.67,8.24.42,9.08,3.34,17.01,12.2,20.64-1.05,6.95.2,14.54,6.56,18.43.46,58.73-2.17,117.38-2.97,176.16-9.74-6.94-22.26-10.04-32.24-1.68l-5.88,8.9c-.78-16.08-.31-32.19-.64-48.33-.42-20.52-.63-41.25-1.34-61.81-2-58.55-37.23-104.22-95.87-117.07-64.33-14.1-128.12,18-149.46,80.25-7.18,20.95-5.4,54.99-5.85,77.6-.45,22.7-.45,45.35-.63,68.05-15.18-3.58-32.06.33-38.46,15.78-1.56.26-.83-.72-.96-1.66-1.31-9.44-1.09-20-1.36-29.54-1.59-55.2-1.61-110.44-3.31-165.69,2.35-3.1,5.97-4.23,7.42-8.39,1.35-3.88,1.21-6.99.81-10.98,1.87-1.19,3.57-1.79,5.34-3.25,6.09-5.05,7.67-14.48,6.91-22.09-.16-1.65-.14-2.55-1.68-3.58H50.43c-2.23,2.1-1.81,5.99-1.67,8.9.44,8.87,4.11,17.29,13.13,20.08-.61,3.01-.45,9.22.86,11.97.83,1.76,6.16,5.32,6.42,6.7l-3.29,156.12c-10.07.78-18.88,8.43-21.55,18.23-.41,1.52.17,3.16-.49,4.76-.63,1.52-3.83,3.06-4.92,4.28-5.13,5.77-8.31,16.68-8.57,24.29-.2,5.87,1.56,13.79-1.93,18.56l-3.51,33.57c.49,1.28,11.03,3.33,13.05,3.43,3.79.18,7.46-.71,11.16-1.31.77.03.5,3.12-.78,3.17-3.44.99-8.02,2.37-11.17,3.95-10.88,5.47-21.15,16.08-25.97,27.28-1.2,2.79-4.26,10.54-3.84,13.23.29,1.85,2.49,2.28,2.58,3.93.14,2.45-1.65,8.18-1.9,11.24-1.19,14.48-1.58,33.52-.69,48,.1,1.58.48,6.66.8,7.74.48,1.63,2.98,1.55,3.19,3.4.17,1.53-1.2,5.25-1.32,7.25-.44,7.26-.44,21.42,6.61,25.57,1.82,1.07,8.03,1.8,8.38,3.4-.42,5.55-2.59,11.12-1.54,16.71l9.57,3.06-3.26,64.35c-2.81,3.12-.79,8.8-1.35,12.96,1.18.67,1.71,1.99,2.64,2.73,8.1,6.43,34.7,10.39,45.04,9.6,6.52-.5,17.85-3.24,16.08-11.86,4.02.64,8.1,1.58,12.17,1.96,10.01.93,28.17,2.39,36.71-2.73,10.92-6.55,3.87-14.59-4.39-19.07-4.74-2.57-10.11-3.7-14.9-6.13v-15.45l107.82-.65-1.83,40.94c1.19,4.08,18.49,7.48,22.79,7.78.94.58,1.21,20.18.13,21.98-6.53,5.26-15.14,9.31-21.39,14.77-6.5,5.67-10.7,14.49-2.57,20.9,15.5,12.21,35.48,6.86,50.15-3.56,3.18-2.26,11.07-8.27,11.74-11.93l-.51-37.64h16.44s-1.34,35.2-1.34,35.2c.11,1.58.52,3.86,1.42,5.15,1.05,1.5,9.43,8.15,11.43,9.6,10.74,7.79,18.59,10.86,32.23,9.9,8.5-.6,23.36-5.22,21.83-15.98-1.13-7.95-6.35-11.41-12.39-15.87-5.08-3.75-11.08-6.24-15.38-10.92l-.04-20.39c4.37-1.77,23.21-5.12,24.54-9.64l-2.52-38.02c-.21-.69.49-2.27,1.02-2.27h29.91l.8,15.63,6.43,1.13c-2.47,2.33-5.47,3.52-8.19,5.61-5.06,3.89-13.87,10.61-14.09,17.46-.28,8.8,8.27,11.92,15.55,13.25,13.18,2.41,25.77-1.65,38.29-5.09.76,2.17-1.58,3.01-1.91,3.8-3.36,7.97,5.04,13.16,11.64,15.07,17.24,4.98,44.22,1.35,59.21-8.78,10.99-7.43,2.62-18.13,4.7-29.14l21,4.63.12,16.31c8.73,2.5,17.45,5,26.51,6.03,12.1-3.12,23.43-8.95,35.2-13.17v110.43c-4.96,1.42-9.84,3.47-13.48,7.22-12.08-18.32-29.84-25.84-51.73-22.13-17.08,2.9-29.3,13.98-35.57,29.53-.65,1.61-.97,6.73-2.16,7.04-13.86-5.42-27.97-3.05-38.43,7.58-7.64,7.76-12.53,18.06-9.85,29.26-1.56-.05-2.73-1.04-4.32-1.26-12.03-1.63-23.6.63-31.45,10.52-11.83,14.91-7.04,28.79,4.52,42.04l11.53,7.86h-241.29c.84-1.27,2.66-1.84,3.95-2.95,6.97-6.01,12.86-12.77,14.82-21.99,4.83-22.69-16.54-42.19-38.49-33.56.36-2.19.75-3.92.65-6.23-.61-13.31-10.61-26.34-23.31-30.61-9.34-3.14-17.93-1.95-27.31.02v-9.53c0-1.19-3.24-9.51-4.03-11.09-8.97-17.95-34.98-24.02-50.2-10.27-1.46-1.07-1.07-3.07-1.87-4.4-7.37-12.2-20.65-25.18-36.27-25.18H4.08V3.89h586.45ZM49.93,638.36c-5.08-4.68-8.07,7.44-9.09,9.82-.24.57-2.09.93-1.26,3.15-.86.13-.84.17-1.37-.42-1.47-1.62-2.84-5.28-4.55-7.14-3.46-3.76-12.15-6.63-11.03,1.15.21,1.44,5.74,17.28,8.39,14.29.5-6.1-5.08-9.67-5.25-15.77,6.85-.85,10.43,13.16,13.14,14.79.94.57,2.24.29,3.3.33-.13-3,1.97-17.02,5.58-17.1l3.06,17c3.8,1.31,4.38-2.99,6.49-5.47s4.95-5.64,8.19-6.27c1.46,2.89-5.33,9.61-4.92,11.5,1.34,6.18,11.65-10.42,7.58-14.13-4.28-3.9-12.26,5.62-14.8,8.56-.26-2.45-.12-6.49-.69-8.73-.12-.48-1.03-.44-1.22-.99-.44-1.23-.52-3.61-1.55-4.56ZM539.91,654.29c-.49,2.75.35,6.62,0,9.53-3.81-1.22-7.06-6.27-11-7.08-2.39-.49-7.36-.52-6.47,3.14s7.4,8.88,9.26,12.48c.57.2,1.55-.64,1.64-1,.5-1.97-6.12-8.89-6.57-11.49,1.95-1.7,9.71,6.01,11.07,7.66,1.45,1.75,2.5,6.62,4.7,3.84v-11.83c0-.67.74-6.67,2.28-4.92s2.18,6.28,3.04,8.67c.16.44,1.01.52,1.19,1.04.5,1.43.82,8.53,3.01,8.02.66-.15,4.66-9.75,5.72-11.38.65-1,5.66-7,6.12-7.01,1-.03.7,1.4.68,1.96-.1,2.78-2.37,11.56-3.66,13.99-.26.5-.79.55-1.29.49l2.28,1.95c2.16-.89,5.37-12.18,5.6-14.78,1.37-16.05-13.98-.12-14.46,6.91-1.44.23-1.05,0-1.46-.83-1.1-2.21-1.1-5.76-2.29-8.2-.39-.81-1.18-.83-1.49-1.31-.64-1-.92-2.95-1.77-3.51-2.85-1.86-5.65.96-6.13,3.66ZM130.88,668.51c-2.4-1.5-5.56,1.35-7.16,2.84-3.63,3.39-5,7.01-6.88,11.51-.72,0-2.09-4.78-2.71-5.83-1.3-2.21-7.49-8.95-10.16-7.03-2.53,1.82,1.81,16.45,3.42,19.34l1.88.1-3.28-15.77c1.17,1.21,3.68,2.65,4.61,3.79,1.65,2.04,5.01,13.07,6.88,12.64,2.11-4.79,3.61-9.58,6.37-14.01.38-.62,3.64-5.36,4.48-4.39,1,3.31-3.87,15.66-2.97,17.73,1.6,3.68,4.33-1.94,5.94-3.27.68-.56,7.13-4.39,7.55-3.94l-3.28,8.25c.08,1.16.79,1.92,1.99,1.3,1.12-.58,7.31-11.36,4.13-12.89-2.28-2.45-11.44,5.29-12.04,4.65.16-2.6,3.51-13.59,1.22-15.02ZM465.62,696.68c4.87,1.92,6.2-12.78,4.6-14.13-4.2-3.57-10.87,3.88-12.18,7.57l-6.65-7.15c-1.1-.77-3.74-1.31-4.56-.12-.85,3.02-.45,13.27,3.32,13.85,1.46.23,1-.64,1.01-1.67.03-2.89-1.88-5.79-1.33-8.86,3.41,2.09,4.33,6.37,5.57,9.86l1.95.68c2.79-.26,5.13-12.45,10.87-11.86.7,1.92-1.08,1.8-1.26,2.46-.31,1.07-1.7,9.04-1.36,9.37ZM195.21,719.24c-.62-.51-1.29-.8-2.1-.81-.64.05-2.82,1.17-2.97,1.73-.27.99-.23,9.08-.04,10.41.13.9,1.95,1.86,2,3.27,4.49,2.05-2.27-17.67,3.43-8.69,1.42,2.24,3.3,13.01,6.94,8.82,1.59-1.83,1.99-8.92,6.74-9.68l-1.3,10.51c2.85,2.83,5.61-11.23,4.5-13.04-4.79-2.46-9.1,3.37-12.07,6.46-.6.03-3.42-7.56-5.13-8.98ZM391.33,747.95c-.24-3.76.99-9.3-2.45-11.73-5.28-1.57-9.27,8.97-10.06,13.04-1.78.45-1.6-1.63-2.62-2.78-1.25-1.41-5.41-6.03-6.74-6.58-3.5-1.45-7.5.08-6.38,4.29.14.51,1.06.52,1.24.98.73,1.91,3.65,11.58,4.98,12,.32.1,1.68.22,1.65-.37l-3.95-14.76c4.21.92,8.54,13.78,11.54,14.43,1.01.22,1.37-.82,1.74-1.48,1.51-2.68,3.43-14.35,6.76-14.93,1.5-.25.91.65.99,1.64.22,2.81-1.09,13-.35,14.16.39.61,1.1.99,1.67.32,3.81-5.07,6.96-9.7,13.46-11.52,1.06,2.61-5.46,9.37-5.49,10.29-.02.64.42,1.46.91,1.55,3.47.68,12.83-16.19,3.99-15.09-4.63.57-7.15,4.48-10.9,6.55ZM277.59,786.73c.6-5.9-1.27-14.07-7.92-7.58-2.63,2.57-2.59,5.26-4.25,8.23-1.45-3.54-13.22-15.02-12.84-5.61.07,1.83,2.99,12.53,4.3,12.85,3.8.94-1.37-11.23-1.65-12.48.5-.45,5.07,3.48,5.52,4,2.45,2.86,2.85,8.41,6.97,7.83-.2-2.84,2.49-13.68,5.59-13.79,2.92,2.91,0,12.1,1.95,13.85s5-4.62,6.22-5.69c.61-.54,5.12-3.46,4.61-1.31s-2.34,4.41-1.93,6.94c4.49,1.99,5.53-9.79,3.99-10.88-3.4-2.4-10.01,4.29-10.56,3.65Z" fill="#fff"/>
  <path d="M398.97,96.81c13.65,18.92,19.98,40.37,20.66,63.81.13,4.55,1.77,12.64-4.64,10.88,1.19-13.47-14.05-16.03-23.66-11.18.26-10.36-7.09-22.25-18.09-22.99-13.53-.9-26.38,8.25-26.62,22.33-10.38-3.25-23.36-1.58-25,11.17-7.19-1.4-17.24-1.56-19.73,6.88s5.46,10.59,12.2,11.53h106.17s.65,46.68.65,46.68c-2.13-1.14-4.36-2.19-6.71-2.81-27.99-7.43-45.22,20.97-66.91,32.39-.45-4.6-.76-9.16-1.77-13.69-2.86-12.9-13.28-27.26-26.15-31.7-10.37-3.58-33.92-3.26-44.41-.29-5.3,1.5-12.01,5.16-16.1,8.89-2.13,1.94-7.84,11.77-9.08,11.71-1.66-.07-4.58-2.71-6.04-3.86-13.32-10.45-35.03-34.26-51.95-36.14-5.05-.56-11.25-.08-16.11,1.32.82-14.51-.08-29.24.63-43.73,5.48-113.19,158.18-150.56,222.66-61.19ZM271.01,114.32c1.82-15.22-8.82-23.19-23.3-19.68-4.07.99-9.42,5.06-12.2,8.18-2.41,2.7-3.13,6.38-5.25,9.24-10.46-5.34-23.05.27-23.04,12.77-7.1-3.15-16.57,4.62-14.99,12.01,1.11,5.18,11.64,6.16,15.95,6.42,23.09,1.43,49.73,0,72.96-.71,6.45-.2,26.57,1.79,29.99-4.22,3.65-6.41-3.78-12.93-9.72-14.01-1.97-.36-4.05.21-5.92-.36-1.15-.35-2.94-6.16-4.42-7.71-5.24-5.52-13.7-3.87-20.08-1.94Z" fill="#fff"/>
  <path d="M15.59,684.85c13.06,1.16,26.26,9.25,32.13,21.12.86,1.73,3.54,10.86,4.1,11.05,2.12.73,7.19-5.41,10.09-6.88,23.23-11.77,44.85,9.2,44.07,32.88-.05,1.62-1.49,3.1.35,4.28,19.67-9.45,42.76-1.99,48,20.35,1.51,6.42-.34,8.06-.89,13.68-.45,4.69,5.98.47,7.9-.05,27.02-7.25,43.47,23.41,25.19,44.24-2.39,2.72-13.35,11.82-16.44,11.82H4.08v-152.49c3.74.24,7.81-.33,11.51,0Z" fill="#fff"/>
  <path d="M428.47,837.34c-4.64-.96-15.88-8.03-19.33-11.57-20.89-21.49-1.76-52.2,27.69-44.77,1.94.49,3.64,2.57,5.81,1.5,1.18-.82-.88-9.26-.69-11.87.84-11.55,12.46-24.97,23.78-28.15,5.65-1.59,16.15-1.2,20.9,2.53,1.01.8,1.53,2.56,2.42,2.86,3.97,1.34,2.61-4.23,3.05-6.64,5.06-28.01,35.8-40.99,61.19-30.65,10.44,4.25,17.32,12.45,23.18,21.56,4.47-3.55,8.18-7.83,14.06-9.17v114.37h-162.06Z" fill="#fff"/>
  <path d="M292.05,542.55c.59,1.96,11.86,3.76,13.01-1.46,1.46-6.64-.46-18.43-.55-25.46-.15-12.15-.1-24.37.36-36.51.64-.72,1.68-.94,2.35-1.61,1.71-1.72,5.89-4.4,8.25-5.54,2.09-1,4.64-1,6.5-2.71,6.7,11.51,18.81-2.19,26.61-5.26l3.31,22.54c2.29,1.72,1.52,7.52,1.96,10.64,5.01,35.56,6.66,71.36,9.23,107.19,0,2.65-7.47,5.14-9.89,5.89-30.14,9.45-82.25,7.71-112.73-.38-1.63-.43-8.69-2.31-9.25-3.24-.51-2.6-.44-5.6-.34-8.25,1.26-36.16,4.34-73.02,9.32-108.34,1.32-9.35,2.91-18.72,4.52-28.02,7.08,4.06,13.62,10.59,22.36,10.26l6.14-3.62c6.9,2.44,3.61,10.05,10.28,11.77l-.06,1.26c-1.62-.02-1.8,2.52-2.25,3.99-3.23,10.75-4.01,22.03-5.4,33.12.46,4,10.35,5.13,11.94,2.35l4.31-30.86v52.26Z" fill="#fff"/>
  <path d="M280.11,340.51c.19.11.61,1.6,1.38,2.24,9.8,8.14,23.35,8.98,30.74-2.38,3.8.78,7.57,1.38,11.19-.48,2.48-1.28,4.8-6.13,6.83-5.73,1.55.3,10.23,4.64,11.99,5.72,21.19,13.1,28.79,41.56,32.59,64.7.57,3.48,2.23,8.75,1.37,12.29-.12.49-1.1.38-1.27.93-.8,2.68-.85,6.84-1.81,9.91-5.69,18.21-23.91,32.53-39.98,41.54,1.15-10.32,1.61-19.05-3.59-28.44l-9.22-9.34,36.15-23.68c.2-1.19-.09-.83-.84-1.15-3.13-1.34-9.43,5.12-10.33,4.12.42-4.63-.57-43.48-3.05-44.06l-2.21.02c.21,1.99-.3,4.39-.05,6.29.38,2.93,1.82,7.66,2.02,11.8.45,9.47.22,19.13.36,28.61-1.1.8-2.46.89-3.61,1.65-5.7,3.78-18.2,13.7-23.55,15.89-.86.35-14.14,1.93-14.94,1.85-1.31-.13-2.51-1.83-5.19-1.64-1.9.13-3.85,1.85-5.33,1.88-1.22.02-11.3-1.93-12.53-2.53-4.53-2.2-11.04-8.28-15.48-11.47-3.38-2.43-7.52-4.66-10.98-7.09-.09-7.94-.35-15.94-.16-23.89.13-5.71,1.33-12.72,1.35-18.39,0-1.05-.55-1.94-.67-2.95-2.95-.06-1.58,3.04-1.98,4.8-.55,2.47-1.73,5.84-1.95,9.33-.58,9.25-.57,18.65-.67,27.93-1.24,1.27-9.56-6.92-11.17-1.65,14.03,6.51,26.44,15.81,38.77,24.99-6.61,3.77-10.61,10-13.18,17.05-1.47,4.03-2.58,8.67-1.98,13.23.06.43,2.32,3.18,2.02,4.88-1.4,1.04-11.62-5.89-13.47-7.23-38.29-27.87-35.76-58.36-16.89-98.37,6.4-13.57,17.49-23,31.47-28.4,1.33-.12,2.26,2.98,3.47,4.22,2.09,2.14,5.92,3.54,8.9,3.63,1.4.05,5.1-.84,5.48-.61Z" fill="#fff"/>
  <path d="M518.79,483.8c-2.08,9.45,1.14,16.73,10.63,19.42l-.72,80.38-20.65,2.03c-11.98.1-23.68-1.25-35.21-4.29-4.78-1.26-10.91-4.29-15.51-4.87-7.51-.94-15.67.45-24.16-.83-10.5-1.58-22.24-5.27-29.7-13.07l2.39-50.84c3.33-21.14,12.99-36,33.96-42.95,6.18-2.05,26.91-6.73,32.7-6.12,2.57.27,3.95,2.09,6.25,2.97,7.77,2.99,16.05,4.68,24.36,5.22.95.68.6,5.57,2.6,7.26.91.77,2.35.72,3.23,1.37,1.02.76,1.2,2.38,2.84,3.08,2.21.94,4.82.06,6.99,1.23ZM488.63,492.92c-9.08,3.97-17.47,9.57-26.78,12.99s-18.55,4.5-27.78,7.06c1.49,2.3,6.05,1.17,8.79.91,12.92-1.22,30.12-8.53,41.12-15.42,2.16-1.35,5.32-2.56,4.66-5.53ZM478.11,523.16c-1.6-.27-1.65.07-2.53,1.08-2.28,2.61-4.33,7.02-7.07,10.02-2.62,2.88-8.33,7.98-11.53,10.17-3.49,2.38-9.59,4.55-12.64,6.95-.77.6-.35,1.24-.41,2.02,1.93,1.97,15.56-6.44,17.76-8.2,6.7-5.36,13.97-13.68,16.42-22.02Z" fill="#fff"/>
  <path d="M582.92,378.93c3.38,4.6,6.06,9.45,7.63,15.05v68.26c-10.16,5.57-22.56,9.03-34.2,8.98,3.04-10.26-4.9-21.83-15.12-23.66-1.04-1.16,5.12-4.81,6.13-5.37,7.73-4.29,17.33-7.05,25.42-10.74l-1.07-2.23-6.15,1.26-4.66-27.1c-3.44-2.02-1.27-11.9-5.86-10.7.47,7.42,2.89,14.61,4.44,21.85.88,4.09,2.47,8.58,2.78,12.99.11,1.59.11,3.26-.08,4.83-4.97,1.95-10.81,4.02-15.48,6.55-2.75,1.49-8.74,6.48-10.7,7.05-3.61,1.05-8.85.73-13.05,2.07-3.1.99-6.22,3.83-8.99,4.16-4.91.59-14.48-.62-19.56-1.51-2.85-.5-17.42-4.02-18.15-6.17.21-7.49.79-16.04,1.95-23.47,1.82-11.65,6.96-25.85,8.68-38.01.47-3.34-1.08-3.42-2.39-.39-1.82,4.21-4.68,14.02-5.67,18.12-2.59,10.73-3.35,21.98-5.14,32.86-7.55,6.52-20.21,8.73-29.26,3.92-8.32-4.42-19.71-21.91-23.7-30.24-1.03-2.15-3.52-7.97-3.74-10.06-.15-1.44.15-.7.91-1,1.78-.71,3.83-.92,5.62-1.61,8.69-3.35,15.81-8,23.96-12.19l15,24.23c5.97,1.24-1.15-5.74-.79-9.32.45-4.52,13.06-19.89,16.78-23.38,6.16-5.79,15.22-11.14,23.32-13.17-.14,3.98,3.75,8.88,7.28,10.81,11.75,6.43,30.76.91,40.4-7.5,2.83-2.47.51-4.5,5.73-3.78,9.83,1.35,22,10.81,27.74,18.61Z" fill="#fff"/>
  <path d="M522.82,91.97l4.64,166.57c-2.76.98-5.76,1.13-8.57,2.04-7.68,2.48-16.49,8.41-21.33,14.83-1.93,2.56-5.38,10.55-6.31,11.44-1.24,1.19-3.02.63-4.15,1.11-2.16.92-1.9,6.54-1.67,8.66l3.77,1.82c-1.43,12.35-3.62,24.33-1.71,36.88,1.3,8.54,5.15,16.07,11.64,21.87l-15.1,8.21c-1.72-8.68-1.69-18.08-3.9-26.65-.27-1.03-1.17-1-1.31-1.47-2.17-7.78-3.58-16.18-8.6-22.81l4.93-2.29c1.59-2.68-3.43-27.06-4.61-31.57-.62-2.36-3.61-7.72-3.67-8.18-.66-5.47-.69-22.91,0-28.34.16-1.25,1.26-.64,1.42-1.88.98-7.7-.26-18.8-.08-27.02.68-31.04,2.11-62.25,2.68-93.28.18-9.97-.19-19.97-.03-29.93h51.94ZM487.31,107.08h-1.97s-.69,13.45-.69,13.45l-.63,144.31h1.97l.69-28.57.63-129.19ZM510.97,260.89c-.08-22.9-.25-45.78-.62-68.71-.24-14.53-1.16-29.46-1.37-43.99-.17-11.9,1.37-27.56.06-38.84-.22-1.93-.54-2.52-2.66-2.26l2.57,153.42,2.02.38Z" fill="#fff"/>
  <path d="M124.4,91.97c1.08,12.8.4,25.64.63,38.48.89,50.32,3.33,100.87,4,151.12.25,18.46-.45,36.5-3.94,54.65l3.86,3.29c-4.65,8.9-10.51,16.88-13.45,26.57l-18.08-10.2c2.57-.02,6.78-5.83,7.67-6.14,2.59-.9,14.23,1.16,15.26-1.83-.23-9.04.61-18.53.08-27.51-.32-5.43-3.49-17.09-3.21-21.08.07-.95,1.11-1.55,1.11-2.47,0-.55-2.83-9.3-3.3-10.49-5.95-15.12-22.94-26.62-39.3-26.11l-.11-11.07-6.5-2.48,3.33-154.72h51.94ZM87.58,258.27l.93-151.14-2.14.73c-.66,28.98-.33,57.99-.73,87.01-.2,14.97-1.05,30.31-1.37,45.3-.07,3.2-.56,14.92.12,17.03.17.52.44.85.97,1l2.22.08ZM110.49,107.85l-2.88-.13c-.59.94-.39,4.89-.33,6.3,1.3,31.99,1.51,64.55,2.02,96.57.19,11.69-1.47,27.9-.08,38.85.16,1.25,1.26.64,1.42,1.88.27,2.1-.54,13.06-.05,13.52h1.97s-2.07-156.99-2.07-156.99Z" fill="#fff"/>
  <path d="M225.43,224.31c6.59,7.49,14.96,12.81,22.5,19.27-2.27,7.79-4.5,15.39-5.22,23.53-.29,3.33.46,7.24-.01,10.5-.3,2.04-1.81,4.11-1.94,6.64-.12,2.34.83,4.22.54,6.37-1.07,7.98-10.14,11.08-8.26,23.03.36,2.26,2.33,5.31,2.43,7.44.08,1.87-1.2,3.92-1.29,5.9-.22,4.54,3.99,10.82,7.91,12.8v.95s-10.32,10.73-10.32,10.73l-32.63.03c-3.85-6.37-8.77-11.72-15.55-15.02l7.82-11.69c1.57-6.79,1.67-13.86,1.37-20.83-.11-2.67-.61-10.97-1.35-12.98-.24-.64-1.13-.61-1.45-1.33-3.35-7.52-6.82-12.46-14.98-15.36l.66-69.51c.19-.72,9.81-1.75,11.51-1.69,14.79.49,26.94,13.19,38.28,21.23Z" fill="#fff"/>
  <path d="M121.56,376.78c4.74,6.26,7.5,17.19,7.82,24.82-1.65.76-9.04,2.66-9.95,1.31l-2.2-18.71-2.03-.39,2.65,31.86c-.77,7.19.93,16.11,0,23.06-.13.98-.12,1.63-.96,2.32-1.53,1.26-13.83,3.41-16.57,3.81-9.22,1.32-18.55,1.57-27.86,1.4,2.11-17.37-16.33-18.92-17.71-1.59-.66.51-9.54-1.13-10.39-1.86-1.74-1.49-.21-5.04-.17-6.75.24-9.21.43-18.34,1.4-27.52l7.76-3.42c1.11-1.61.81-6.97.74-9.18-.27-7.72-3.38-20.76-7.39-27.45-1.63-2.72-4.08-4.35-5.13-7.03l7.57-2.45c10.02,10.25,32.78,14.06,44.04,4.41,1.5-1.29,1.96-3.51,3.82-3.82,1.39,0,13.08,6.84,14.88,8.13,2.4,1.72,8.01,6.8,9.7,9.03Z" fill="#fff"/>
  <path d="M404.8,378.55c2.77,5.68,6.34,9.79,10.78,14.23-3.43,4.15-.67,8.94,1.06,13.37,3.99,10.2,16.98,29.87,27.11,34.68,1.67.79,4.43.57,5.42,2.13l-51.42,6.11c-8.47,1.79-13.29,14.98-7.09,21.18,3.47,3.47,6.68,1.21,5.26,9.53-7.78.14-15.59-.19-23.37-.03-4.87.1-9.95,1.16-15.13.72-1.11-.1-2.4.24-2.83-1.11-1.02-3.25-.61-9.23-1.45-12.9-.12-.51-1.06-.44-1.22-.98-1.84-6.14,1.2-5.25,4.89-8.68,22.83-21.22,26.62-38.5,18.13-68.24-.87-3.05-1.43-6.83-2.04-9.99h31.89Z" fill="#fff"/>
  <path d="M420.8,238.65c.74,1.2-.28,12.04.06,14.72.16,1.25,1.26.64,1.42,1.88.86,6.81-1.65,21.31.74,26.88.43.99,1.71.93,1.87,1.56.23.9-.77,6.93-.72,9.1.14,6.34,1.19,13.49,5.3,18.39.85,1.01,2.55.65,1.99,2.58-.09.32-4.47,3.18-5.3,3.96-4.63,4.33-3.35,8.03-9.18.65v-.96c5.63-1.27,2.53-13.26,1.86-17.99-2.18-15.4-4.97-32.13-25.03-29.82-11.48,1.33-14.39,5.66-17.66,15.73-.18.56-1.16.31-1.31,1.49-.41,3.09,1.7,2.42,1.84,3.24.04.22-.39,4.09-.49,4.53-.13.55-1.19.19-1.35,1.4s-.19,6.09.07,7.15c.05.22,1.01,2.43,1.45,3.9,1.31,4.35,2.81,7.72,5.71,11.25-10.8,8.16-15.53,19.87-15.74,33.28-2-.28-5.55.6-7.22-.33-1.16-.64-4.84-7.95-7.89-8.55,2.37-2.7,4.62-4.45,5.2-8.59.82-5.88-2.04-8.2-1.95-11.75.07-2.49,2.09-5.33,2.49-8.09,1.27-8.65-.57-12.55-5.09-19.07-3.45-4.98-1.27-8.27-2.03-13.57-.37-2.57-2.18-3.94-2.54-6.01-.22-1.26-.28-5.96.29-6.88.3-.49,8.15-4.89,9.75-6.03,18.71-13.3,37.79-37.63,63.45-24.09Z" fill="#fff"/>
  <path d="M120.71,472.97c2.06,7.45,3.88,15.43,4.92,23.65.43,3.42,2.65,24.56,1.76,25.9-13.18,4.45-27.46,7.22-41.42,7.89-6.38.31-17.67.72-23.73,0-.7-.08-1.51.02-1.98-.64l7.7-52.85c.62-1.93,2.66-.6,3.94-.8,7.26-1.14,8.43-4.9,5.82-11.46,13.17.34,26.55-.32,39.07-4.56.94.24,3.36,10.86,3.92,12.87Z" fill="#fff"/>
  <path d="M590.54,605.97l-32.87,12.49c-.3-37.34.65-74.46.94-111.78l31.93-7.19v106.48Z" fill="#fff"/>
  <path d="M192.12,362.45c-.24-2.45-1.48-4.16-2-6.21l-1.94-.04,1.22,37.05c-.12.58-.48.79-1.01.96-1.61.54-7.78,1.28-9.76,1.42-9.43.66-24.14.72-33.54.03-1.18-.09-5.4-.62-5.94-1.31,0-11.44,3.83-23.28,4.32-34.55.07-1.51.44-3.18-.98-4.25-2.72.06-4.1,17.58-4.29,20.35-.52.52-12,.12-13.18-.27-.38-.12-5.71-4.91-5.92-5.25-1.52-2.48.31-6.53,1.41-9.06.24-.56,1.08-.65,1.24-1,1.95-4.23,8.38-18.88,12.38-20.5,4.23-1.71,12.26-.19,12.29-6.63,6.67,6.23,16.55,9.01,25.59,7.83,3.01-.39,6.29-3.04,9.11-2.46,1.84.38,10.17,7.65,11.66,9.41,6.49,7.66,6.5,14.63,8.56,23.55.05.22,2.8,1.53.85,2.41-3.28.03-7.3,2.9-10.07.34-.27-3.83.37-8.07,0-11.83Z" fill="#fff"/>
  <path d="M188.83,484.37l49.31-.65c-.83,1.69-.27,3.78-.67,5.45-2.5,10.44-4.17,23.48-5.23,34.97-.17,1.8-.17,13.62-.66,14.13l-109.8.65v-10.19c3.78-3.59,11.29-1.99,9.21-9.53,7.42,2.5,30.35,6.93,34.76-1.07.63-1.15.65-3.82,1.77-4.11,8.32,1.85,34.04,6.59,39.64-.5,3.63-4.59-1.39-9.19-4.95-11.96-4.19-3.25-9.14-4.65-13.37-7.67v-9.53Z" fill="#fff"/>
  <path d="M328.42,266.63c.07.17.98.16,1.09.63.81,3.32.91,18.01-.04,21.38-.08.28-1.9,4.41-2.24,5.12-6.22,12.62-8.3,5.39-16.16,1.03-6.3-3.48-13.11-4.15-20.22-4.44-4.62-3.46,7.5-19.9,2.19-21.57-2.78-.88-2.15,3.13-2.59,4.63-1.82,6.11-6.64,11.93-2.99,18.37-1.89.47-4.69,1.04-6.37,1.85-5.67,2.75-9.87,12.1-15.98,4.4-4.33-5.46-3.33-9.28-4.62-14.99-.12-.53-1.19-.18-1.35-1.39-.22-1.7-.22-6.93,0-8.63.16-1.21,1.24-.87,1.35-1.39.58-2.62.3-7.18.84-10.23.43-2.41,1.35-4.89,1.92-7.28,1.15-1.97,7.22-3.12,9.53-4.27,8.06-4.01,18.12-11.09,21.26-19.84,1.45-1.05,3.56,4.76,4.32,5.86,4.3,6.2,11,10.58,17.78,13.78,2.41,1.13,7.62,1.85,9.43,3.72,2.22,2.29,1.77,10.48,2.86,13.28ZM283.32,256.45c-2.16-1.84-16.31.63-14.91,5.36.88,2.94,6.74-.8,8.47-1.28,1.2-.33,10.66-.47,6.44-4.07ZM309.62,255.76c-1.66.36-4.54,2.8-2.47,4.16,2.59.38,4.84.4,7.41,1.14,1.2.34,6.18,3.79,7.07.79.98-3.33-9.44-6.65-12.01-6.09ZM312.2,268.92c-4.99.46-4.56,9.85-.12,10.1,5.01.28,4.8-10.54.12-10.1ZM276.07,269.52c-3.26.94-3.47,10.04,1.08,9.63s3.77-11.03-1.08-9.63Z" fill="#fff"/>
  <path d="M349.91,156.05c.5-3.55,7.97-11.54,11.24-13.08,6.67-3.14,15.94-3.38,20.96,2.58,1.23,1.46,4.77,7.95,5.22,9.37,1.13,3.59.55,8.24.72,11.97,3.77-.43,4.29-4.08,8.51-4.96,10.95-2.3,17.02,3.01,15.16,14.17l7.89-1.97v11.83c-26.19-.08-52.4.12-78.59-.03-8.4-.05-21.24,1.15-29.26-.27-12.02-2.12-5.92-13.14,2.95-12.86,3.78.12,6.61,2.47,10.22,2.65-1.44-10.64,6.91-15.42,16.61-13.65,3.28.6,5.09,3.85,8.37,3.79.3-3-.41-6.63,0-9.53Z" fill="#fff"/>
  <path d="M548.88,344.8c-7.4,13.54-24.38,16.74-38.44,13.59-13.13-2.94-16.32-10.16-19-22.41-1.29-5.91-2.4-14.38-1.54-20.9.08-.62,1.09-3.7,1.45-5.79.57-3.34.46-10.9,4.19-10.98,19.04,1.5,38.27,2.57,56.89,6.94,1.05,1.05.77,13.92.67,16.48-.27,6.75-.98,17.17-4.22,23.08ZM496.52,304.93c1.82-.44,11.01.06,10.51-2.29-.33-1.57-11.76-2.21-10.51,2.29ZM528.51,303.73c-1.54.48-1.59,2.54.02,3.05,1.41.45,8.55,1.76,10.05,1.84.76.04,1.72.26,1.98-.74.96-3.71-9.64-4.9-12.05-4.15ZM502.93,316.6c1.27-2.81,1.81-6.37-1.46-7.8-5.59-2.44-6.59,12.24,1.46,7.8ZM513.99,313.22c1.21-2.24,1.53-4.21-1.71-3.38-3.6,4.76-7.5,11.25-6.18,17.47-2.96,1.55-6.3,1.04-8.63,3.89l.36,1.99c4.7-1.64,10.45-2.62,15.43-2.65,1.6-.01,6.89,1.85,7.57-.31,1.75-5.5-12.55.64-11.71-7.04.34-3.06,3.48-7.4,4.86-9.97ZM528.89,311.01c-1.36,1.41-2,6.87-.19,8.08,4.28,2.87,7.46-6.16,3.13-8.44-.86-.47-2.27-.34-2.95.36ZM526.68,339.19c-1.5-1.8-21.71-3.75-22.93,2.22.37,1.7,5.31-.24,6.88-.34,5.4-.33,10.77.36,16.13.68l-.08-2.55Z" fill="#fff"/>
  <path d="M109.49,315.93c.03.16,1.01-.03,1.16,1.12.27,2.04.27,8.57,0,10.6-.04.28-1.18,3.56-1.53,5.05-2.16,9.17-5.23,16.4-14.07,20.77-15.36,7.6-34.16,1.93-40.85-14.19-2.95-7.11-3.82-13.68-2.83-21.59.15-1.2,1.24-.87,1.35-1.39l1.32-16.18,1.28-.8c16.33-2.65,33.05-5.03,49.57-2.83,2.31.92,4.04,16.27,4.59,19.43ZM94.59,302.41c-1.56.48-1.56,2.58,0,3.07.94.29,6.36.52,7.99.6.85.04,2.49.37,2.75-.83.59-2.76-8.9-3.41-10.74-2.84ZM75.74,303.63c-.99-.21-1.92-.55-2.95-.67-2.1-.24-13.3.05-12.16,3.61.6,1.88,11.75.24,13.55-.6.29-.14,2.16-1.71,1.56-2.35ZM101.22,310.35c-5.76-4.97-9.96,9.43-2.2,9.02,3.99-.21,4.3-7.21,2.2-9.02ZM68.32,310.95c-3.17.96-3.81,10.22,2.37,8.31,3.58-1.1,2.89-9.92-2.37-8.31ZM90.13,311.59l-1.84-.04c-2.3,6.1,4.78,9.82,2.95,16.45-1.04,3.76-9.71-.03-7.97,4.58l.8.52c17.16,1.7,9.86-12.23,6.06-21.5ZM85.28,338.17c-1.72,0-12.03,1.39-11.5,3.89,2.12,2.37,5-.11,7.55-.32,4.36-.37,8.78.18,13.1.63,1.88-1,.14-2.05-1.13-2.72-2.14-1.13-5.59-1.47-8.02-1.47Z" fill="#fff"/>
  <path d="M190.36,421.09c1.35,2.99.71,2.53,1.11,5.76,1.24,10.12,2.62,20.34,2.59,30.53-15.95,2.4-33.47,3.84-49.63,2.69-1.63-.12-6.85-.67-7.6-1.61-1.2-2.36-.37-5.3-.6-7.94-1.13-13.04-3.51-26.21.06-39.06,17.26,1.82,35.08,2.44,52.14-1.31,2.75.81,1.07,9.01,1.94,10.94Z" fill="#fff"/>
  <path d="M554.38,618.47c-.96.95-22.12-3.92-22.39-5.04l.68-109.34,21.94,2.72.98.99-1.22,110.67Z" fill="#fff"/>
  <path d="M121.77,542.22l109.14-.66c.33,7.27-1.48,14.42-1.31,21.7h-107.83v-21.04Z" fill="#fff"/>
  <path d="M188.83,461.7l8.26-2.26-.96-16.05c2.54-1.69,5.98-1.55,8.5-4.21,8.55-9,5.31-22.77,2.63-33.36l-1.9-26.84c.77-2.27,11.98-.73,14.39-.42-4.74,18.45-9.09,38.07-.57,56.1,4.92,10.41,14.4,17.75,22.83,25.21l-4.19,20.57h-48.98v-18.73Z" fill="#fff"/>
  <path d="M458.99,310.25c.06.03.02.96.52,1.25,2.03,1.19,4.12,1.32,6.16,2.93,4.83,3.82,8.91,16.95,10.42,23.08s4.36,18.09,4.64,23.62c.08,1.51.32,6.68-.3,7.58-6.8,3.53-10.37,11.16-15.81,16.41l-3.92-54.57c-.6-.67-.85-.92-1.67-.32-1.79,1.31.36,22.63.66,25.97-2.26-.39-6.12.55-8.08.02-.87-.24-.93-3.22-5.39-3.36-3.2-.1-4.58,1.05-6.58,3.33-1.67.05-3.87-21.19-11.88-21.67-2.92-.18-5.73,5.22-10.09.99,3.22-8.39,9.62-15.49,17.09-20.4,5.88.47,11.25,1.69,16.98-.72,1.35-.57,6.23-4.6,7.24-4.15Z" fill="#fff"/>
  <path d="M361.74,538.27l-5.92-54.56c13.4.24,26.68-1.13,40.11-.66l-.66,55.22h-33.53Z" fill="#fff"/>
  <path d="M144.78,45.96v9.2c0,.07-.92-.28-1.29.48-.46.94-.45,3.29-1.03,4.76-1.84,4.72-4.94,7.78-9.88,9.18l-68.35.06c-9.59-1.17-13.08-15.48-10.88-23.39l91.43-.29Z" fill="#fff"/>
  <path d="M542.54,45.96v9.53c0,5.32-6.31,13-11.66,13.98l-68.19.12c-1.78-.3-7.61-5.08-8.54-6.58-2.79-4.52-1.9-10.45-3.02-15.41l.64-1.34,90.76-.29Z" fill="#fff"/>
  <path d="M42.22,408.78l-1.25,60.7c-.96,1.25-11.4,2.96-13.52,3.09-3.02.18-14.99.26-16.01-3.11-.37-1.23-.72-8.36-.82-10.36-.82-17.71.33-36.01,2.01-53.6,9.72,2,19.6,3.76,29.58,3.28Z" fill="#fff"/>
  <path d="M110.38,283.44c.81,1.39,4.23,10.23,3.5,10.97-26.55-4.59-54.76-1.09-80.2,7.23-2.12-26.08,24.09-42.63,48.02-37.82,11.13,2.23,22.91,9.67,28.69,19.62Z" fill="#fff"/>
  <path d="M571.06,282.35c1.09,2.16,2.15,2.41,2.87,5.99.34,1.68,1.62,9.5-.21,9.95-24.8-8.28-49.95-12.63-76.23-11.78-.87.03-1.51.38-2.28.67,8.6-24.04,39.24-31.53,61.15-20.72,8.63,4.26,10.55,7.69,14.7,15.88Z" fill="#fff"/>
  <path d="M155.82,295.27c3.99-.36,30.64-.72,32.03,1.1,3.05,14.04,3.37,36.49-14,40.59-10.25,2.42-27.22-1.49-28.45-13.92-.81-8.18,1.35-17.33,1.43-25.59.43-1.29,7.31-2.03,8.99-2.19ZM184.79,301.74c-.28-.47-9.17-2.66-9.75.23,2.33,2.88,6.21,2.29,9.46,2.31.72-.13.49-2.21.29-2.54ZM151.39,301.68c-2.31,5.67,11.51,2.13,11.8.94,0-2.98-11.4-1.42-11.8-.94ZM157.09,306.36c-2.93.43-4,4.55-.98,5.98,5.53,2.62,6.24-6.75.98-5.98ZM182.16,307h-3.75c-.87,1.67-1.14,3.8.34,5.21l3.44.55c.88-1.94.99-3.85-.03-5.76ZM173.61,307.66c-.57-.35-1.77,0-2.53-.1.27,6.59,5.87,10.74-4.61,11.18-.1,1.16-.14,2.13,1.09,2.52,4.4,1.38,9.23-1.81,8.65-6.62-.07-.58-2.29-6.78-2.6-6.98ZM162.53,327.94h11.51c.34,0,1.38,1.04,2.3.65,0-.93.26-2.41-.61-3-1.21-.81-14.53-2.46-13.19,2.34Z" fill="#fff"/>
  <path d="M117.82,529.07v38.12c-10.73,1.58-21.36,2.87-32.22,1.32-.18-11.86,1.15-23.61.66-35.5l31.56-3.94Z" fill="#fff"/>
  <path d="M16.82,383.39c1.65-2.81,7.23-10.29,9.59-12.43.94-.85,8.45-6.24,9.26-6.54,1.12-.41,1.42-.52,2.57,0,9.89,4.48,12.83,28.84,11.55,38.46-1.62,2.68-18.19,2.24-21.73,1.99-2.79-.2-16.73-2.29-17.14-4.92.93-5.62,3.03-11.64,5.91-16.55Z" fill="#fff"/>
  <path d="M432.35,347.41c.07.17.83.29,1.14,1.16,1.9,5.22,2.91,10.82,2.56,16.39-3.11,1.28-9.77,5.08-8.52,9.23,1.13,3.78,4.15-2.77,4.75-3.33,1.37-1.28,5.11-2.5,6.71-4.14,2.39-2.46,2.84-11.24,7.63-10.2,3.01.66,2.75,4.2,2.58,6.61-.14,2.02-2.59,12.69-3.31,14.44-.95,2.3-8.31,6.98-10.73,8.33-2.67,1.5-11.95,6.1-14.42,5.67-.9-.16-2.27-1.02-3.08-1.56-6.94-4.66-15.26-23.96-15.81-32.17-.16-2.46-.61-5.41,2.61-4.92.6,3.19,3.35,11.94,7.26,11.55,4.61-.46,12.09-4.04,16.96-5.08,1.53-3.65-5.29-18.6-2.54-20.63,3.02-2.23,5.54,7.03,6.21,8.66Z" fill="#fff"/>
  <path d="M380.81,351.6c-.09-1.79.51-16.97-.33-17.09-1.49-.21-1.99.21-2.28,1.67-.89,4.44-.78,10.31-.3,14.79l-8.26.64c.22-10.72,3.79-21.92,12.15-28.94,5.43-4.55,5.41-1.35,11.19-1.25,5.19.09,10.58-1.65,14.46-5.14,4.85,2.09,8.32,5.09,11.34,9.36l-6.77,14.72c-2.64-.81-4.26-.99-6.54.73-3.61,2.72-1.45,6.06-2.43,7.77-.12.22-3.89,2.76-4.14,2.76h-18.08Z" fill="#fff"/>
  <path d="M37.61,531.04v12.82c0,4.13,1.96,7.28,3.47,10.36.4.82,1.6,4.91,1.83,5.06l1.49-.07c7.71-7.07,12.32-15.65,15.19-25.62l10.9.42-2.65,41.06c-10.13.93-21.01,2.06-31.05-.16-.98-.22-2.67-.48-3.04-1.56-.12-2.37-.2-4.79-.12-7.17.29-8.62,1.23-18.88,2.01-27.57.19-2.15.4-4.46.65-6.59.14-1.21-.2-1.06,1.32-.97Z" fill="#fff"/>
  <path d="M65.23,475.18c-.85,1.69-.28,3.78-.68,5.45-2.44,10.18-3.54,21.86-5.33,32.9-1.14,7.03-2.28,15.47-4.04,22.25-1.05,4.02-6.64,15.23-9.64,17.82-.74.64-1.09.49-2,.45-.53-4.89-2.29-9.88-2.62-14.8-.46-6.72,2.07-30.33,4.08-36.66.52-1.64,3.24-2.91,3.76-6.1s-.7-5.79-.58-8.41c.2-4.32,3.34-10.8,3.26-15.54l13.81,2.64Z" fill="#fff"/>
  <path d="M284.09,619.85l.61,31.03c-1.78,1.28-9.89,10.34-11.7,8.99-1.18-3.04-5.23-7.43-7.89-9.53-4.62-3.65-11.33-5.83-17.1-6.9-.38-1.73.42-1.02.96-1.37,2.67-1.71,5.1-2.62,5.5-6.36.17-1.62-.58-2.88-.57-4.4.02-4.94.05-9.89.03-14.82l30.17,3.36Z" fill="#fff"/>
  <path d="M338.73,617.15c1.2,5.33-2.44,17.93.63,22.05.99,1.33,4.58,2.71,5.29,4.89-10.35,1.61-19.79,7.52-25.3,16.4-4.38-2.47-8.28-5.65-11.38-9.63l.52-31.09,30.24-2.63Z" fill="#fff"/>
  <path d="M117.82,570.48v14.13c.03,1.38,6.93,1.32,5.26,2.95-3.03.51-5.87,2.68-8.2,4.63-1.3,1.09-4.99,4.69-5.86,5.95-2.07,3-2.3,6.16-4.11,9.11-6.23-.79-13.95-.93-18.98-5.21-2.86-2.43-1-3.34-.95-6.22.14-8.03.32-16.01.63-24.02,10.77,1.56,21.56.47,32.21-1.31Z" fill="#fff"/>
  <path d="M529.39,72.91c1.13,8.12-1.18,13.93-9.49,15.82-14.32-1.82-34.83,2.41-48.4-.33-7.68-1.55-8.89-8.82-7.85-15.48h65.75Z" fill="#fff"/>
  <path d="M131.63,72.91c1.07,7.17-1.27,15.02-9.5,15.81-15.36,1.48-33.43-.94-49.06-.32-7.13-2.17-7.72-9-7.19-15.49h65.75Z" fill="#fff"/>
  <path d="M504.41,588.88l.17,22.18c-.85,1.95-9.53,7.71-11.75,8.65-7.98,3.38-5.92-1.76-10.14-6.81-2.49-2.99-8.15-7.02-11.68-8.7-1.73-.83-9.66-3.14-9.99-3.82-.46-.92,2.55-2.24,3.27-2.63,1.87-1.02,3.81-1.76,5.84-2.38l.75-11.08c10.98,2.62,22.19,4.54,33.53,4.6Z" fill="#fff"/>
  <path d="M590.45,473.77c-9.99,3.37-22.55,4.09-32.28,7.49-4.83,1.69-7.26,5.43-9.11,9.82-.2.48-1.12.52-1.23.99-.94,4.2,1.14,7.03,2.61,10.7-.87.6-18.56-2.52-20.76-3.23-4.88-1.58-8.47-4.68-8.2-10.21s2.66-3.65,5.62-5.61c3.22-2.13,3.67-7.92,8.68-9.07,3.13-.71,5.55.59,8.41.57,2.39-.02,5.45-1.17,7.9-1.23,3.66-.09,7.62.86,11.75.44,8.17-.83,19.15-4.67,26.38-8.46l.24,7.79Z" fill="#fff"/>
  <path d="M42.87,612.55c-2.4-.39-9.66-2.66-10.39-5.06l.53-29.78c11.46,1.85,22.69,2.15,34.23.93,2.36,5.19-2.09,11.01,1.28,15.81-3.24,1.42-6.85,2.07-10.31,3.52-6.29,2.65-14.31,7.23-15.34,14.58Z" fill="#fff"/>
  <path d="M132.51,459.87c.06.15.93.17,1.05.68,3.12,12.88,9.16,31.58-4.55,40.26.62-2.07-.79-5.11-.55-6.77.15-1.03,2.61-4.35,3.31-5.92.47-1.06,1.76-3.35,1.81-3.55.48-2.05-.28-5.2.02-7.42-5.29-.77-3.47,7.14-5.26,10.52l-.99-.65c-1.77-8.05-2.99-16.9-5.48-24.73-.32-1.02-1.55-.96-1.79-2.83-.35-2.83,1.56-2.2,1.73-3.63.71-5.8.74-24.55,0-30.31-.16-1.25-1.26-.64-1.42-1.88-.63-4.95.14-11.61-.61-16.81l7.93-.38c1.16.85,2.98,22.38,3.24,25.7.45,5.86,0,23.63,1.54,27.74Z" fill="#fff"/>
  <path d="M513.18,472.76c.11-.24.86-.36,1.05-.72,2.15-4.14,4.32-7.3,7.91-10.34-1.79-2.5-3.2-1.67-5.18.07-5.41,4.75-5.22,7.17-7.89,13.14-1.3,2.89-2.04-1.29-2.09-2.68-.7-22.59,38.9-32.65,46.39-9.54,4.45,13.73-15.37,6.85-21.17,9.72-4.67,2.31-5.83,10.71-11.74,8.06-.38-5.58,3.62-10.79,8.23-13.6-.43-5.68-6.4.23-8.12,2.44-2.54,3.28-3.1,6.64-4.98,10.18l-3.22-1.49c-.34-1.05.32-4.19.81-5.25Z" fill="#fff"/>
  <path d="M50.76,300.34c-3.19,16.23-2.83,32.85-3.57,49.33-1.12,1.62-15.95.37-18.71-.77l5.67-43.17c1.12-2.42,13.54-4.52,16.62-5.4Z" fill="#fff"/>
  <path d="M39.87,476.19c2.8,2.63,5.94,14.55,5.67,18.39-.83,11.73-9.98-3.5-9.29-8.21l-1.92-.04c-.34,3.58,1.24,12.41,4.23,14.5,1.1.77,3.18.44,3.61,1.69.93,2.7-1.92,5.7-4.86,5.48-5.68-.42-6.79-14.09-9.9-17.72-3.54-.81,0,11.34.81,12.98.54,1.09,3.21,2.57,2.81,4.76-8.41,2.71-9.61-13.9-10.85-14.45-.24-.11-1.65-.24-1.64.33-.11,4.33-.48,8.41,2.63,11.83-1.02.66-4.75-2.7-5.41-3.8-3.82-6.34-2.75-19.7-1.12-26.72,4.45.41,8.96.91,13.46.63,2.77-.17,8.75-2.03,10.81-.97.32.16.57.95.95,1.31Z" fill="#fff"/>
  <path d="M445.9,579.68l-.8,19.59-17.3,7.27c-3.74-9.58-13.13-17.73-23.32-19.63,2.39-5.69,11.65-4.74,12.21-11.87,9.57,2.55,19.15,5.39,29.21,4.64Z" fill="#fff"/>
  <path d="M571.1,311.23c.2.33.92.13,1.07,1.23.39,2.71-.3,6.36-.07,9.26.72,9.25,2.04,18.56,1.93,27.84-6.34,1.42-12.62,2.01-19.02.43l.69-43.75c.56-.55,12.73,2.06,14.03,2.75,1.03.54.88,1.41,1.38,2.24Z" fill="#fff"/>
  <path d="M412.36,473.2c-5.1-1.44-17.03-1.29-20.02-5.94s-.3-12.28,4.44-14.57c3.38-1.64,18.47-3.13,23.24-3.72,10.13-1.26,26.57-3.98,36.08-4.09,3.92-.04,10.79.99,14.89,1.57,2.75.39,2.57,2.66.21,3.08-14.2,1.54-28.59,2.56-42.72,4.62-12.43,1.8-20.36,4.18-16.12,19.05Z" fill="#fff"/>
  <path d="M457,283.31c.79,8.07,3.6,18.85-2.52,25.27-6.83,7.16-22.24,5.69-25.35-4.31-1.98-6.37-2.46-15.06-.37-21.41l28.24.45ZM432.24,290.31c1.91,1.8,5.77.84,4.13-2.47s-6.52.23-4.13,2.47ZM452.96,290.98c1.69-1.79.49-4.7-2.11-4.45l-.94,4.53c.91.42,2.3.72,3.05-.08ZM441.94,288.5c-1.65-1.09-5.02,5.08-5.23,6.28-.37,2.12.59,5.88,3.07,6.08,3.18.26,4.41-3.02,3.15-3.17h-2.96c-1.09-1.95,3.92-7.9,1.97-9.2ZM447.86,303.63c-.48-.72-9.78-1.66-10.5.98-.01.83,8.97,1.71,9.44,1.59.98-.25,1.45-1.99,1.07-2.57Z" fill="#fff"/>
  <path d="M187.51,292.44c-17.87-1.17-36.29-2.02-53.25,4.6,3.48-27.44,45.6-30.26,53.25-4.6Z" fill="#fff"/>
  <path d="M590.54,496.21l-33.89,7.13c-8.6-2.33-6.27-15.69,1.32-18.34l32.58-7.86v19.06Z" fill="#fff"/>
  <path d="M397.9,354.89c-1.15,2.72,1.13,3.96,1.27,4.44,1.46,4.85,1.91,10.54,4.39,15.23l-.73,1.36h-28.27c-.32,0-3.01-.99-3.29-1.31-.79-.91-3.12-8.85-4.16-10.96-1.51-3.1-3.9-5.66-5.37-8.76h36.16Z" fill="#fff"/>
  <path d="M395.27,541.56v21.69h-30.9c-.22-1.69.35-3.89-.02-5.46-.12-.53-1.19-.19-1.35-1.4-.57-4.4-.18-10.28-.61-14.83h32.87Z" fill="#fff"/>
  <path d="M82.98,533.67l-1.65,64.42c-2.77-2.2-10.44-4.86-10.8-8.27l3.25-56.15h9.2Z" fill="#fff"/>
  <path d="M405.07,289.21c.75.81,1.7,19.74,1.41,21.99-1.01,7.63-18.45,9.13-23.65,3.2-4.32-4.92-5.11-19.1-2.53-25.1,1.29-1.33,23.84-1.1,24.77-.09ZM387.22,298.19c3.43-3.46-3.44-7.86-4.33-2.63-.52,3.01,2.46,4.52,4.33,2.63ZM398,298.26c1.74,1.11,5.15-.54,3.54-3.2-1.97-3.26-6.19,1.52-3.54,3.2ZM390.67,303.61c.3-3.1,3.13-6-.33-8.53-.86,0-4.07,9.3-.99,10.84,1.95.97,4.59.1,4.6-2.3h-3.28ZM397.9,310.84c1.42-4.41-9.47-2.63-9.86-.97-.71,2.99,8.24.15,9.86.97Z" fill="#fff"/>
  <path d="M117.82,455.12c-1.5,1.83-3.75,2.57-5.91,3.29-5.27,1.77-38.34,5.42-41.46,3.32-.9-1.23.57-11.9,1.07-12.27,11.21-.81,21.35-.25,32.61-2.1,3.39-.56,9.64-2.73,12.33-2.83.81-.03.86.11,1.36.74v9.86Z" fill="#fff"/>
  <path d="M417.62,477.15l-8.73,12.65c-9.82,23.2-6.81,49.05-8.23,73.64.35,1.61,2.27,3.34,3.5,4.4,3.28,2.84,9.41,3.4,8.71,8.07-1.18,3.43-10.25,5.17-13.38,3.16.01-30.69-.98-61.69-.31-92.42.03-1.57.7-3.01.74-4.57.04-1.82-1.78-6.05-.09-7.29,1.27-.93,14.97,2.61,17.79,2.36Z" fill="#fff"/>
  <path d="M201.32,377.89c.19,1.51-.32,3.39.01,4.81,2.19,9.4,1.55,19.83,3.34,29.64.7,3.85,2.83,6.94,2.58,11.22-.14,2.43-2.18,9.64-3.65,11.5-1.29,1.64-7.45,6.96-8.19,2.98-.96-5.18.7-3.6,2.96-5.58,3.63-3.19,5.71-6,4.92-11.18-2.57-2.62-4.83,9.9-8.54,9.2.51-6.28-1.84-13.34-1.97-19.39-.03-1.23.71-2.53.69-3.92-.14-9.44.2-18.84-.71-28.24l8.58-1.03Z" fill="#fff"/>
  <path d="M186.2,462.03v26.95c-7.05.46-15.24,1.92-21.7-.99v-24.65l21.7-1.31Z" fill="#fff"/>
  <path d="M469.44,452.34c5.77-.26,2,2.33,3.07,6.43-.65,1.59-8.14,1.68-10.4,2.04-10.41,1.68-20.82,3.29-30.47,7.66-4.64,2.1-8.99,6.67-14.05,5.08-4.06-1.27-3.95-7.97-2.44-11.05,1.73-3.53,7.87-4.37,11.44-5,12.05-2.12,30.79-4.63,42.86-5.16Z" fill="#fff"/>
  <path d="M317.31,457.17c.19.44,1.7.37,1.02,3.07-.05.18-2.48,2.55-2.93,2.44-2.11-2.68-7.35-11.22-10.66-11.72-1.18-.18-1.45-.04-2.17.9.48,2.85,3.56,3.89,4.96,5.55,3.71,4.38,9.71,13.26.34,14.45.97-2.8-9.04-14.78-10.56-13.1.41,5.88,8.23,9.85,6.53,16.66-3.72,4.4-5.26-1.83-7.49-4.2-3.87-4.09-6.74-2.31-6.18-9.42.62-7.87,3.01-14.85,8.24-20.72,8.93,1.67,15.34,7.89,18.9,16.11Z" fill="#fff"/>
  <path d="M136.9,408.11c.04-1.83.86-9.24,2.37-9.76,16.41.22,33.09,1.97,49.29-1.36,2.69.2,1.49,7.2,1.29,9.2-17.14,4.62-35.43,3.57-52.95,1.92Z" fill="#fff"/>
  <path d="M574.01,301.73l.09,5.17c-6.57-1.03-13.12-3.55-19.7-4.96-21.29-4.53-44.02-6.04-65.77-6.88l-.02-3.51c.16-.7,1.73-.95,2.38-1.03,27.71-3.29,56.77,3.04,83.03,11.19Z" fill="#fff"/>
  <path d="M466.27,280.61l-38.14-.99c2.22-23.08,35.75-20.35,38.14.99Z" fill="#fff"/>
  <path d="M230.25,354.89c-2.62,6.9-7.34,12.43-8.86,19.74-.77,1.04-15.08,1.02-15.83.01.14-6.89-1.49-13.84-4.9-19.75h29.59Z" fill="#fff"/>
  <path d="M142.81,298.37c-1.88,11.74-1.23,23.8-.63,35.71-3.76,2.05-8.61,3.22-12.79,1.83l2.93-32.47c2.38-3.81,6.06-5.02,10.49-5.07Z" fill="#fff"/>
  <path d="M475.48,449.87c.16-.52.97-.93,1.59-.97.73-.05,9.34,3.13,11.53,3.62,7.15,1.61,14.52,2.11,21.72,3.27-2.57,3.83-5.01,7.02-6.36,11.52-9.95.24-19.46-2.82-28.49-6.6.53-2.86-.72-8.42,0-10.85Z" fill="#fff"/>
  <path d="M277.59,467.28c-3-1.61-6.14-3.2-8.86-5.27-.67-.51-4.8-3.95-4.99-4.21-2.56-3.48,3.3-14.14,5.93-17.18,4.17-4.82,7.62-6.27,14.09-5.47.81.1,3.47.28,3,1.52l-4.55,6.12c-1.6,2.81-4.62,11.96-4.62,14.96v9.53Z" fill="#fff"/>
  <path d="M328.49,447.96c.07.15.73.2.98.78.67,1.57,2.14,8.38,1.56,9.8-.65,1.6-11.56,9.33-12.02,8.74.08-2.96,2.56-5.21,2.65-8.24.2-6.57-6.88-11.74-10.9-16.06l-9.51-5.59c1.03-1.4,2.66-2.02,4.33-2.25s11.74-.77,12.79-.43c3.86,1.23,8.47,9.67,10.11,13.25Z" fill="#fff"/>
  <path d="M164.5,491.6c7.12,1.96,14.45,1.31,21.7.65-.6,2.96.62,4.01,1.98,6.24-2.22,1.36-4.29,3.27-5.81,5.38-1.73,2.4-3.78,6.12-4.06,8.75-.75.84-12.45-1.68-13.8-3.61v-17.42Z" fill="#fff"/>
  <path d="M152.01,463.34v28.26h-11.83c1.67-9.99-.08-20.11-3.28-29.57l15.12,1.31Z" fill="#fff"/>
  <path d="M505.07,360.81c11.9,2.6,24.06,3.39,35.05-2.76,4.05-2.27,6.36-6.01,10.3-8.1l-.63,8.56c-9.12,11.48-38.55,20.89-44.71,2.3Z" fill="#fff"/>
  <path d="M446.55,608.6c1.09-1.61,6.56-4.9,8.25-5.22,9.16-1.74,26.94,9.57,29.78,18.72l-10.63,2.85c-6.27-8.84-16.28-15.97-27.4-16.35Z" fill="#fff"/>
  <path d="M410.17,278.2c.92.98,3.46,7.08,2.85,7.66h-33.52c1.48-14.13,22-16.81,30.67-7.66Z" fill="#fff"/>
  <path d="M295.99,541.56v-60.14c0-2.21,5.26-1.51,5.26,0v59.16c-1.22,1.6-3.43.87-5.26.99Z" fill="#fff"/>
  <path d="M270.26,663.04c-2.32.98-4.3,3.39-6.65,4.21-4.22,1.47-2.45-.13-3.31-1.23-2.16-2.81-5.94-5.71-8.41-8.39l-14.4-7.28c4.61-5.22,10.06-3.94,15.94-2.15,7.07,2.16,15.65,6.94,16.83,14.84Z" fill="#fff"/>
  <path d="M282.37,306.43c3.08-3.78,18.37-3.19,22.86-1.86,4.81,1.43,6.17,8.15,2.58,11.19-4.37,3.7-23.18,3.56-26.13-2.11-.9-1.73-.51-5.74.7-7.22ZM304.54,308.22c-6.33.62-10.48,3.26-16.73,0-2.24,1.46.14,3.25,1.96,3.92,3.46,1.28,14.68,1.39,14.77-3.92Z" fill="#fff"/>
  <path d="M356.48,651.32c-9.81,2.44-20.21,7.41-25.41,16.49-3.49-.44-6.17-2.92-8.74-5.07,2.58-8.21,19.31-17.12,27.2-15.97,1.27.18,7.58,3.75,6.95,4.56Z" fill="#fff"/>
  <path d="M560.72,254.55c2.5,2.69,3.69,7.76,4.14,11.32.12.96.09,1.16-.96.95-7.88-5.02-16-7.42-25.22-8.65.71-2.75-2.44-7.87-.06-9.39,5.72-3.65,17.81,1.15,22.09,5.76Z" fill="#fff"/>
  <path d="M421.16,601.79c1.23,1.51,3.33,2.94,3.39,5.52l-10.45,2.56c-2.12-4.22-5.34-6.61-8.65-9.78l-11.48-6.91c8.58-9.97,21.19,1.21,27.2,8.62Z" fill="#fff"/>
  <path d="M53.39,346.34c2.31,1.56,3.51,4.07,5.57,5.93,8.86,8.01,23.41,9.22,34.53,5.91-9.24,11.22-29.65,8.63-40.1.32v-12.16Z" fill="#fff"/>
  <path d="M79.69,602.03c-8.99,1.2-18.56,5.86-24.11,13.07l-10.71-2.22c3.1-6.19,11.32-11.63,17.87-13.68,1.67-.52,9.43-2.24,10.72-2.11.98.1,7.31,3.92,6.24,4.93Z" fill="#fff"/>
  <path d="M466.86,283.35c-.29,1.83,1.29,1.79,1.74,3.12.75,2.23,4.55,22.16,4.18,23.29-.17.52-.47.86-1.02.99-1.65.54-8.28-.17-9.67-1.16-2.32-1.65-.17-22.25-1.74-26.35l6.51.11Z" fill="#fff"/>
  <path d="M107.3,346.34c-.56-.41,3.11-4.9,3.38-5.52,3.7-8.6,3.14-31.21-.12-40.02-.2-.54-.81-.56-1.28-.49l1.31-.65c-.07-.63-3.52-2.7-.98-2.64,1.42.03,4.25.38,4.81,1.77.72,1.81,2.33,13.03,2.66,15.75.94,7.91,1.68,21.79.77,29.53-.11.96-.08,1.69-1.02,2.27h-9.53Z" fill="#fff"/>
  <path d="M364.19,656.77c1.19,1.21,2.5,6.25.51,7.05l-5.25-5.94-1.63,1.01c1.5,3.29,6.34,8.38-.01,8.22.59-2.79-3.94-9.24-6.57-6.21-.4,1.7,9.86,9.3-.61,8.79-.29-2.05-1.15-5.41-2.97-6.56-6.67-4.22.79,6.55.29,7.26-2.02,1.49-13.77.33-13.79-1.63,3.85-6.58,19.08-15.85,26.45-13.97.23.06,3.45,1.85,3.6,1.99Z" fill="#fff"/>
  <path d="M88.05,613.03c-.33.3-5.25,2.59-6.02,2.84-7.39,2.39-15.86,1.2-23.37-.04,3.85-5.1,19.66-13.02,25.47-10.66,2.47,1,6.74,5.31,3.92,7.87Z" fill="#fff"/>
  <path d="M246.02,671.05c-.15-1.68.18-3.24.8-4.79.49-1.25,3.47-3.5,2.49-4.41-2.22-2.06-7.36,5.4-6.59,7.86-8.83.65-.41-7.74-.64-8.84-.69-3.33-8.09,3.9-6.58,6.24-1.39.28-3.92-.33-3.83-2.18l3.83-7.34-1.98-.68c-1.9.46-3.74,6.7-4.91,6.25-.61-.23-1.61-1.49-1.64-2.28,2.37-9.28,8.63-7.4,15.75-4.61,6.4,2.51,11.05,7.05,15.12,12.48-.02,1.49-10.13,2.76-11.82,2.3Z" fill="#fff"/>
  <path d="M286.79,477.8c-7.59-.74-6.34-12.39-5.91-18.06s4.9-16.92,8.86-21.38c2.28-2.57,4.57-4.25,8.23-2.95-.55,2.15-3.42,3.82-4.49,5.34-3.01,4.25-6.69,14.51-6.69,19.63v17.42Z" fill="#fff"/>
  <path d="M66.54,460.72c-2.45.15-9.49-.09-9.9-2.98-.18-1.25,1.18-10.34,1.53-12.28.68-3.74,1.32-9.41,6.11-9.7,9.46-.57,1.45,20.2,2.26,24.97Z" fill="#fff"/>
  <path d="M109.6,607.95c-1.38-.43-1.03-2.89-.71-4.01.09-.31,3.47-4.61,3.98-5.21,2.43-2.87,10.91-9.98,14.47-10.2,1.38-.09,4.83,1.39,6.25,2.05.79.36,1.62-.07,1.32,1.27-6.39,2.76-12.44,8-13.29,15.29-.1.15-1.39.82-1.49.82-2.27,0-9,.47-10.52,0Z" fill="#fff"/>
  <path d="M74.67,469.05c.12.19,1.95.17,1.06,1.5-.07.11-1.98,1.49-2.11,1.53-1.95.69-4,.55-6.02.37-3.65-.32-17.05-2.89-20.13-4.19-5.07-2.14-3.73-7.55.9-7.51,1.93.02,22.08,4.38,23.82,5.14,1.82.81,1.55,1.71,2.47,3.15Z" fill="#fff"/>
  <path d="M71.8,250.38v9.2c-5.5.55-10.37,1.2-15.58,3.16-2.32.87-5.95,3.5-7.77,4.06s-.75-2.27-.46-3.09c2.8-7.86,15.23-16.37,23.81-13.33Z" fill="#fff"/>
  <path d="M460.36,368.69c-1.02,8.55,2.07,17.41-.67,25.63-.83.66-9.74-13.68-10.38-14.96l1.84-10.67h9.2Z" fill="#fff"/>
  <path d="M466.08,593.3c-.67.8-16.89,10.13-17.55,9.38l.66-17.09c4.06,1.8,13.19,1.36,16.65,3.39,1.66.97,1.33,3.01.24,4.31Z" fill="#fff"/>
  <path d="M152.67,502.78c-5.48.18-11.32,1.41-16.23,3.83-.96.47-6.45,4.43-6.78,4.06-1.13-7.41,1.03-6.2,4.94-9.84,1.99-1.85,2.86-3.98,4.7-5.82l12.75.18.62,7.6Z" fill="#fff"/>
  <path d="M290.07,481.09l-5.25,38.12h-5.27c-.83-.83,1.87-20.71,2.58-23.37.27-1.03,1.18-1.01,1.31-1.47,1.09-4.1,1.42-13.8,6.63-13.28Z" fill="#fff"/>
  <path d="M40.9,511.33c.6,1.78-1.1,1-1.31,1.76-.73,2.67-.88,12.7-2.29,14.03-1.66,1.57-7.76-1.13-10.24-.97-1.99-1.37,1.57-12.09.69-14.83h13.15Z" fill="#fff"/>
  <path d="M436.69,625.04c22.39,9.14,48.88,4.35,68.37-9.21,2.06,2.77-8.9,8.85-10.92,9.78-13.84,6.34-35.09,9.03-49.71,4.51-2.56-.79-6.33-2.74-7.73-5.08Z" fill="#fff"/>
  <path d="M414.24,289.91c.3,3.49,4.25,23.61,2.34,24.95s-7.1-.32-7.52-1.85c-.69-2.53.16-10.32.04-13.69-.21-5.86-4.45-12.64,5.14-9.41Z" fill="#fff"/>
  <path d="M226.31,665.79c4.09,3.65,9.82,5.65,15.12,6.9,18.77,4.43,30.42-6.82,44.04-17.41.13,1.39-.4,2.6-1.3,3.63-3.43,3.96-15.3,12.47-20.14,14.7-7.63,3.51-19.98,3.87-27.85,1.05-3.56-1.27-9.99-4.54-9.87-8.86Z" fill="#fff"/>
  <path d="M367,666.45c-2.12,6.78-15.02,10.21-21.37,10.5-11.47.53-20.91-4.26-29.58-11.16-3.4-2.7-7.96-6.1-8.87-10.52,2.8,2.33,5.39,4.93,8.32,7.13,10.14,7.61,18.2,12.24,31.48,11.3,7.84-.55,13.23-3.95,20.02-7.25Z" fill="#fff"/>
  <path d="M159.24,508.05c.07.08.24,1.38-.33,1.3-6.61-.12-12.42,5.08-17.18,9.1-6.26-.42-15.3-2.16-5.95-7.92,4.7-2.9,13.78-5.26,19.23-4.51.7.1,4.04,1.79,4.23,2.02Z" fill="#fff"/>
  <path d="M336.19,295.63l.2-17.68,1.3-1.71c13.56-.6,10.72,22.83-1.51,19.39Z" fill="#fff"/>
  <path d="M123.74,607.94c1.21-4.37,3.96-8.45,7.67-11.06,3.45-2.43,7.57-5.11,10-.35,5.19,10.18-11.1,12.23-17.66,11.42Z" fill="#fff"/>
  <path d="M445.23,603.35c.25,1.4-2.09,2.51-3.07,3.17-10.87,7.27-33.61,12.46-46.4,9.81-3.25-.68-12.74-3.56-11.35-7.72,19.38,12.36,41.67,1.95,60.81-5.26Z" fill="#fff"/>
  <path d="M253.25,276.01l.66,20.38c-12.35.09-13.73-19.53-.66-20.38Z" fill="#fff"/>
  <path d="M528.73,586.91v9.53l-1.35.73-19.3-4.27c-.85-.58-.71-4.23.69-4.59l19.96-1.41Z" fill="#fff"/>
  <path d="M199.34,502.79l-6.58,5.57c-.66.75-2.99,5.1-3.24,5.28-1.78,1.26-5.75-.71-7.93-.34.6-8.54,9.46-17.21,17.75-10.5Z" fill="#fff"/>
  <path d="M136.56,379.21l.72,1.35-3.68,28.24h-1.97s.07-3.91.07-3.91l1.94-.4c-.22-1.4.25-3.14-.06-4.45-.47-1.97-1.54-5.68-2.28-8.35-1.18-4.27-3.07-8.24-4.28-12.48h9.53Z" fill="#fff"/>
  <path d="M410.39,361.46c.82-2.19-1.02-2.55-1.26-3.15-.85-2.15-3.24-9.12-3.31-11.1-.11-3.3,2.48-4.43,5.44-3.4,2.47.86,3.79,12.19,4.93,14.83.34,1.48-5.53,3.14-5.8,2.82Z" fill="#fff"/>
  <path d="M421.17,342.81c.27.42.95.32,1.41,1.51,1.42,3.63,2.23,9.32,3.59,13.2-1.98-.24-5.96,2.05-7.11-.45-.05-4.54-4.04-12.08-3.44-16.29.39-2.75,3.28-1.56,4.66-.02.43.48.48,1.42.89,2.05Z" fill="#fff"/>
  <path d="M43.53,446.25c1.91.83,10.78,1,11.09,2.35l-1.84,9.19-7.89.68-1.37-.73v-11.5Z" fill="#fff"/>
  <path d="M161.88,463.34l-.66,17.1h-5.92c-.09-5.7.15-11.54-.65-17.09h7.23Z" fill="#fff"/>
  <path d="M161.22,484.37v21.69c-6.37-3.2-3.55-5.53-4.62-10.06-.12-.53-1.19-.19-1.35-1.4-.43-3.27.41-7.49.06-10.89l5.91.65Z" fill="#fff"/>
  <path d="M162.43,512.08c4,9.35-10.85,8.23-16.34,7.13,3.86-4.7,10.18-7.69,16.34-7.13Z" fill="#fff"/>
  <path d="M455.75,613.87c-1.64,3.98-6.74,6.12-5.92,11.17l-7.89-1.32c-.52-4.29,11.15-13.44,13.8-9.85Z" fill="#fff"/>
  <path d="M409.32,609.03c.4.48,1.33.62,1.72,1.22.1,2.14-12.53.36-14.45.33-.55-4.18,3.83-6.15,6.92-7.7,2.32,1.7,4,3.98,5.82,6.15Z" fill="#fff"/>
  <path d="M466.93,582.98l-.3,1.98c-.34.5-.7.57-1.27.6-4.38.26-11.43-2.85-16.17-2.6v-3.28c6.67-.92,11.67,1.21,17.74,3.3Z" fill="#fff"/>
  <path d="M459.67,626.32c-.48.47-5.19-.27-6.24-.61-.76-.25-1.14.48-.96-.99.44-3.61,4.55-7.09,7.56-8.69l3.61,2.76c-2.43,2.08-4.11,4.11-3.96,7.53Z" fill="#fff"/>
  <path d="M203.84,506.84c.21.13,1.33,2.88,1.28,3.4-.3,3.89-8.81,3.92-11.69,3.72.11-3.9,7.15-9.13,10.41-7.11Z" fill="#fff"/>
  <path d="M447.87,611.24c-2.73,3.66-7.62,5.51-8.55,10.51-7.12-5.81,1.29-12.65,8.55-10.51Z" fill="#fff"/>
  <path d="M394.61,597.43c-.72,2.32-3.33,3.25-4.88,5.3-.84,1.11-1.39,2.52-1.72,3.87-2.37.3-3.47-1.28-3.25-3.52.45-4.67,5.81-6.33,9.86-5.65Z" fill="#fff"/>
  <path d="M459.7,359.48v5.92s-7.24,0-7.24,0c.17-1.43-.54-4.83.62-5.63l6.62-.29Z" fill="#fff"/>
  <path d="M46.81,481.09c-1.68.26-1.02-.15-1.37-.92-1.85-4.11-4.98-12.84,2.61-7.86l-1.24,8.78Z" fill="#fff"/>
  <path d="M393.94,609.25c-8.44.57,2.32-10.53,4.93-9.85,3.23.84-2.95,4.47-3.62,5.57-.8,1.31-.95,2.84-1.31,4.28Z" fill="#fff"/>
  <path d="M462.33,626.35c1.92-6.14,5.23-6.64,8.53-.98.01,1.61-7.12.82-8.53.98Z" fill="#fff"/>
  <path d="M269.69,467.93c-6.24,3.1-5.39-1.02-6.57-5.9.44-.46,7.42,4.76,6.57,5.9Z" fill="#fff"/>
  <path d="M473.5,439.02l-.68,4.58-7.2-.65c-1.43-1.22,7.12-4.7,7.88-3.94Z" fill="#fff"/>
  <path d="M293.36,478.46c-4.36-.16-3.16-4.8-3.27-7.89,3.58,1.2,4.6,4.57,3.27,7.89Z" fill="#fff"/>
  <path d="M330.18,465.32c-.28,1.99-.59,4.71-3.08,5.06-4.83.69-.4-5.92,3.08-5.06Z" fill="#fff"/>
  <path d="M49.93,638.36c1.03.95,1.11,3.33,1.55,4.56.2.55,1.1.51,1.22.99.57,2.24.44,6.29.69,8.73,2.54-2.94,10.52-12.46,14.8-8.56s-6.24,20.31-7.58,14.13c-.41-1.89,6.39-8.61,4.92-11.5-3.24.63-6.12,3.83-8.19,6.27s-2.69,6.79-6.49,5.47l-3.06-17c-3.61.09-5.71,14.1-5.58,17.1-1.06-.03-2.35.24-3.3-.33-2.71-1.64-6.29-15.64-13.14-14.79.17,6.09,5.75,9.67,5.25,15.77-2.65,2.99-8.19-12.85-8.39-14.29-1.12-7.78,7.57-4.9,11.03-1.15,1.71,1.86,3.08,5.53,4.55,7.14.53.58.51.55,1.37.42-.83-2.22,1.02-2.57,1.26-3.15,1.01-2.38,4-14.51,9.09-9.82Z"/>
  <path d="M539.91,654.29c.48-2.7,3.28-5.52,6.13-3.66.85.55,1.14,2.51,1.77,3.51.3.47,1.09.5,1.49,1.31,1.18,2.45,1.19,5.99,2.29,8.2.41.83.02,1.06,1.46.83.48-7.03,15.83-22.95,14.46-6.91-.22,2.6-3.43,13.9-5.6,14.78l-2.28-1.95c.5.06,1.02.01,1.29-.49,1.28-2.43,3.55-11.21,3.66-13.99.02-.56.33-1.98-.68-1.96-.47.01-5.47,6.01-6.12,7.01-1.06,1.63-5.06,11.23-5.72,11.38-2.2.51-2.52-6.59-3.01-8.02-.18-.52-1.04-.61-1.19-1.04-.85-2.39-1.48-6.9-3.04-8.67s-2.28,4.25-2.28,4.92v11.83c-2.2,2.77-3.25-2.09-4.7-3.84-1.36-1.64-9.12-9.36-11.07-7.66.45,2.6,7.07,9.52,6.57,11.49-.09.36-1.07,1.19-1.64,1-1.86-3.59-8.4-8.97-9.26-12.48s4.08-3.63,6.47-3.14c3.93.8,7.19,5.86,11,7.08.35-2.91-.49-6.78,0-9.53Z"/>
  <path d="M391.33,747.95c3.74-2.07,6.26-5.97,10.9-6.55,8.84-1.1-.51,15.77-3.99,15.09-.49-.1-.93-.91-.91-1.55.03-.91,6.55-7.67,5.49-10.29-6.5,1.82-9.65,6.45-13.46,11.52-.57.67-1.29.28-1.67-.32-.74-1.16.56-11.36.35-14.16-.08-.99.51-1.89-.99-1.64-3.33.58-5.25,12.25-6.76,14.93-.37.65-.73,1.7-1.74,1.48-3-.65-7.34-13.51-11.54-14.43l3.95,14.76c.02.6-1.33.48-1.65.37-1.33-.42-4.25-10.08-4.98-12-.17-.46-1.1-.47-1.24-.98-1.12-4.21,2.89-5.74,6.38-4.29,1.34.56,5.49,5.17,6.74,6.58,1.02,1.15.84,3.23,2.62,2.78.78-4.07,4.78-14.61,10.06-13.04,3.44,2.42,2.2,7.97,2.45,11.73Z"/>
  <path d="M130.88,668.51c2.29,1.43-1.06,12.42-1.22,15.02.6.64,9.76-7.1,12.04-4.65,3.18,1.53-3.01,12.3-4.13,12.89-1.19.62-1.9-.14-1.99-1.3l3.28-8.25c-.42-.44-6.88,3.38-7.55,3.94-1.61,1.33-4.34,6.95-5.94,3.27-.9-2.06,3.98-14.42,2.97-17.73-.84-.98-4.1,3.77-4.48,4.39-2.76,4.43-4.26,9.22-6.37,14.01-1.87.43-5.23-10.6-6.88-12.64-.92-1.14-3.43-2.58-4.61-3.79l3.28,15.77-1.88-.1c-1.62-2.9-5.95-17.53-3.42-19.34,2.67-1.92,8.86,4.82,10.16,7.03.61,1.05,1.99,5.83,2.71,5.83,1.89-4.5,3.26-8.13,6.88-11.51,1.6-1.49,4.76-4.34,7.16-2.84Z"/>
  <path d="M277.59,786.73c.55.63,7.16-6.06,10.56-3.65,1.55,1.09.51,12.87-3.99,10.88-.41-2.53,1.43-4.8,1.93-6.94s-4,.77-4.61,1.31c-1.22,1.07-4.29,7.43-6.22,5.69s.97-10.94-1.95-13.85c-3.1.11-5.79,10.95-5.59,13.79-4.11.58-4.51-4.97-6.97-7.83-.45-.52-5.03-4.45-5.52-4,.29,1.25,5.45,13.42,1.65,12.48-1.32-.33-4.23-11.02-4.3-12.85-.37-9.41,11.39,2.07,12.84,5.61,1.66-2.97,1.62-5.66,4.25-8.23,6.65-6.49,8.52,1.69,7.92,7.58Z"/>
  <path d="M465.62,696.68c-.34-.33,1.05-8.29,1.36-9.37.19-.66,1.97-.54,1.26-2.46-5.74-.6-8.08,11.59-10.87,11.86l-1.95-.68c-1.25-3.5-2.16-7.77-5.57-9.86-.55,3.07,1.36,5.97,1.33,8.86-.01,1.03.44,1.89-1.01,1.67-3.78-.58-4.17-10.83-3.32-13.85.83-1.18,3.46-.64,4.56.12l6.65,7.15c1.31-3.69,7.98-11.14,12.18-7.57,1.6,1.36.27,16.05-4.6,14.13Z"/>
  <path d="M195.21,719.24c1.71,1.42,4.52,9.01,5.13,8.98,2.96-3.09,7.28-8.92,12.07-6.46,1.1,1.81-1.66,15.87-4.5,13.04l1.3-10.51c-4.75.76-5.15,7.85-6.74,9.68-3.63,4.19-5.52-6.58-6.94-8.82-5.7-8.98,1.06,10.74-3.43,8.69-.05-1.41-1.87-2.37-2-3.27-.19-1.33-.23-9.42.04-10.41.15-.56,2.33-1.68,2.97-1.73.81.02,1.49.3,2.1.81Z"/>
  <path d="M271.01,114.32c6.38-1.93,14.84-3.58,20.08,1.94,1.48,1.55,3.27,7.36,4.42,7.71,1.86.58,3.95,0,5.92.36,5.94,1.08,13.37,7.6,9.72,14.01-3.42,6.01-23.54,4.02-29.99,4.22-23.23.71-49.87,2.13-72.96.71-4.32-.27-14.84-1.24-15.95-6.42-1.59-7.39,7.89-15.15,14.99-12.01-.02-12.5,12.58-18.11,23.04-12.77,2.11-2.86,2.84-6.54,5.25-9.24,2.78-3.12,8.13-7.19,12.2-8.18,14.48-3.51,25.12,4.46,23.3,19.68ZM267.73,119.57c1.65-9.19.26-20.94-10.92-22.27-8.51-1.01-16.11,3.16-20.62,10.28-1.37,2.17-3.51,11.15-4.3,11.33-1.81.42-1.91-3.06-2.47-3.76-.81-1.02-6.52-2.2-8.01-2.17-5.03.11-10.77,5.8-10.91,10.89-.05,1.67.92,3.18.65,4.85-2.55,1.51-4.42-1.09-6.91-1.21-6.14-.3-13.75,8.42-5.04,10.95,14.95,4.34,52.42,1.16,69.49.81,10.86-.23,24.9,1.26,35.24-.92,9.76-2.05,2.14-10.48-4.32-10.93-3.46-.24-5.65,1.89-8.86,2.02.3-5.27.52-9.88-4.8-12.62-7.22-3.72-11.64,1.62-18.21,2.76Z"/>
  <path d="M488.63,492.92c.67,2.97-2.49,4.17-4.66,5.53-11,6.89-28.2,14.21-41.12,15.42-2.74.26-7.3,1.4-8.79-.91,9.23-2.55,18.75-3.74,27.78-7.06s17.7-9.02,26.78-12.99Z"/>
  <path d="M478.11,523.16c-2.46,8.34-9.73,16.66-16.42,22.02-2.2,1.76-15.83,10.18-17.76,8.2.07-.78-.35-1.41.41-2.02,3.05-2.4,9.15-4.57,12.64-6.95,3.2-2.18,8.9-7.29,11.53-10.17,2.74-3,4.79-7.41,7.07-10.02.88-1.01.93-1.35,2.53-1.08Z"/>
  <path d="M510.97,260.89l-2.02-.38-2.57-153.42c2.12-.26,2.44.33,2.66,2.26,1.31,11.28-.23,26.95-.06,38.84.21,14.53,1.13,29.45,1.37,43.99.37,22.93.54,45.81.62,68.71Z"/>
  <polygon points="487.31 107.08 486.68 236.27 486 264.84 484.03 264.84 484.66 120.53 485.35 107.08 487.31 107.08"/>
  <path d="M87.58,258.27l-2.22-.08c-.54-.15-.8-.49-.97-1-.69-2.11-.19-13.83-.12-17.03.33-14.99,1.17-30.32,1.37-45.3.4-29.02.07-58.03.73-87.01l2.14-.73-.93,151.14Z"/>
  <path d="M110.49,107.85l2.07,156.99h-1.97c-.49-.47.31-11.43.05-13.52-.16-1.25-1.26-.64-1.42-1.88-1.39-10.95.27-27.17.08-38.85-.51-32.02-.73-64.58-2.02-96.57-.06-1.41-.26-5.36.33-6.3l2.88.13Z"/>
  <path d="M283.32,256.45c4.22,3.6-5.24,3.74-6.44,4.07-1.73.48-7.59,4.23-8.47,1.28-1.4-4.72,12.75-7.2,14.91-5.36Z"/>
  <path d="M309.62,255.76c2.56-.56,12.99,2.77,12.01,6.09-.88,3-5.87-.45-7.07-.79-2.58-.73-4.82-.76-7.41-1.14-2.07-1.36.81-3.8,2.47-4.16Z"/>
  <path d="M312.2,268.92c4.68-.43,4.89,10.39-.12,10.1-4.45-.25-4.87-9.64.12-10.1Z"/>
  <path d="M276.07,269.52c4.85-1.4,5.84,9.19,1.08,9.63s-4.34-8.69-1.08-9.63Z"/>
  <path d="M513.99,313.22c-1.38,2.56-4.53,6.91-4.86,9.97-.85,7.68,13.46,1.54,11.71,7.04-.69,2.16-5.97.3-7.57.31-4.98.03-10.74,1.01-15.43,2.65l-.36-1.99c2.32-2.85,5.66-2.34,8.63-3.89-1.32-6.22,2.58-12.71,6.18-17.47,3.24-.83,2.92,1.14,1.71,3.38Z"/>
  <path d="M526.68,339.19l.08,2.55c-5.36-.31-10.73-1.01-16.13-.68-1.57.1-6.51,2.04-6.88.34,1.22-5.96,21.43-4.02,22.93-2.22Z"/>
  <path d="M502.93,316.6c-8.05,4.44-7.05-10.23-1.46-7.8,3.27,1.43,2.73,4.99,1.46,7.8Z"/>
  <path d="M528.89,311.01c.67-.7,2.09-.83,2.95-.36,4.32,2.28,1.15,11.31-3.13,8.44-1.82-1.22-1.17-6.67.19-8.08Z"/>
  <path d="M528.51,303.73c2.42-.75,13.02.44,12.05,4.15-.26,1-1.22.78-1.98.74-1.5-.08-8.65-1.39-10.05-1.84-1.61-.51-1.56-2.57-.02-3.05Z"/>
  <path d="M496.52,304.93c-1.25-4.49,10.18-3.86,10.51-2.29.49,2.35-8.69,1.85-10.51,2.29Z"/>
  <path d="M90.13,311.59c3.8,9.27,11.09,23.2-6.06,21.5l-.8-.52c-1.75-4.61,6.93-.82,7.97-4.58,1.83-6.63-5.24-10.35-2.95-16.45l1.84.04Z"/>
  <path d="M85.28,338.17c2.43,0,5.88.33,8.02,1.47,1.27.67,3.01,1.72,1.13,2.72-4.32-.44-8.74-1-13.1-.63-2.55.22-5.43,2.69-7.55.32-.52-2.49,9.78-3.89,11.5-3.89Z"/>
  <path d="M101.22,310.35c2.09,1.81,1.79,8.8-2.2,9.02-7.75.42-3.56-13.99,2.2-9.02Z"/>
  <path d="M75.74,303.63c.59.64-1.27,2.21-1.56,2.35-1.8.83-12.95,2.48-13.55.6-1.13-3.56,10.06-3.85,12.16-3.61,1.03.12,1.96.46,2.95.67Z"/>
  <path d="M68.32,310.95c5.26-1.6,5.95,7.21,2.37,8.31-6.18,1.9-5.54-7.35-2.37-8.31Z"/>
  <path d="M94.59,302.41c1.84-.57,11.32.08,10.74,2.84-.26,1.2-1.9.88-2.75.83-1.63-.08-7.05-.31-7.99-.6-1.56-.49-1.56-2.59,0-3.07Z"/>
  <path d="M173.61,307.66c.32.19,2.53,6.39,2.6,6.98.58,4.81-4.25,8.01-8.65,6.62-1.24-.39-1.19-1.36-1.09-2.52,10.48-.44,4.88-4.59,4.61-11.18.76.11,1.96-.26,2.53.1Z"/>
  <path d="M162.53,327.94c-1.34-4.81,11.98-3.15,13.19-2.34.87.58.61,2.06.61,3-.92.39-1.96-.65-2.3-.65h-11.51Z"/>
  <path d="M151.39,301.68c.4-.48,11.79-2.04,11.8.94-.28,1.19-14.11,4.72-11.8-.94Z"/>
  <path d="M157.09,306.36c5.27-.77,4.55,8.59-.98,5.98-3.02-1.43-1.95-5.55.98-5.98Z"/>
  <path d="M184.79,301.74c.2.33.43,2.42-.29,2.54-3.26-.02-7.14.57-9.46-2.31.58-2.89,9.47-.7,9.75-.23Z"/>
  <path d="M182.16,307c1.02,1.91.91,3.82.03,5.76l-3.44-.55c-1.48-1.42-1.22-3.54-.34-5.21h3.75Z"/>
  <path d="M441.94,288.5c1.95,1.29-3.06,7.24-1.97,9.2h2.96c1.26.15.03,3.42-3.15,3.17-2.48-.2-3.44-3.97-3.07-6.08.21-1.21,3.58-7.38,5.23-6.28Z"/>
  <path d="M447.86,303.63c.39.59-.09,2.32-1.07,2.57-.47.12-9.45-.76-9.44-1.59.72-2.63,10.03-1.7,10.5-.98Z"/>
  <path d="M432.24,290.31c-2.39-2.24,2.57-5.64,4.13-2.47s-2.22,4.26-4.13,2.47Z"/>
  <path d="M452.96,290.98c-.75.8-2.15.5-3.05.08l.94-4.53c2.6-.25,3.8,2.66,2.11,4.45Z"/>
  <path d="M390.67,303.61h3.28c-.01,2.41-2.66,3.28-4.6,2.31-3.08-1.54.13-10.84.99-10.84,3.46,2.53.63,5.43.33,8.53Z"/>
  <path d="M397.9,310.84c-1.62-.83-10.56,2.02-9.86-.97.39-1.66,11.27-3.44,9.86.97Z"/>
  <path d="M387.22,298.19c-1.87,1.89-4.85.39-4.33-2.63.9-5.23,7.76-.84,4.33,2.63Z"/>
  <path d="M398,298.26c-2.65-1.69,1.56-6.47,3.54-3.2,1.62,2.67-1.8,4.31-3.54,3.2Z"/>
  <path d="M304.54,308.22c-.1,5.31-11.31,5.2-14.77,3.92-1.83-.68-4.2-2.47-1.96-3.92,6.25,3.26,10.4.62,16.73,0Z"/>
  <path d="M267.73,119.57c6.57-1.14,10.99-6.48,18.21-2.76,5.32,2.74,5.11,7.35,4.8,12.62,3.21-.13,5.4-2.26,8.86-2.02,6.46.45,14.09,8.88,4.32,10.93-10.35,2.17-24.38.69-35.24.92-17.06.36-54.54,3.53-69.49-.81-8.71-2.53-1.11-11.25,5.04-10.95,2.49.12,4.36,2.72,6.91,1.21.27-1.68-.69-3.18-.65-4.85.14-5.09,5.89-10.77,10.91-10.89,1.49-.03,7.2,1.15,8.01,2.17.56.71.66,4.19,2.47,3.76.8-.19,2.93-9.17,4.3-11.33,4.51-7.12,12.11-11.29,20.62-10.28,11.18,1.33,12.58,13.09,10.92,22.27Z" fill="#fff"/>
</svg>