<?xml version="1.0" encoding="UTF-8"?>
<svg id="Camada_1" xmlns="http://www.w3.org/2000/svg" version="1.1" viewBox="0 0 595.3 841.9">
  <!-- Generator: Adobe Illustrator 29.0.0, SVG Export Plug-In . SVG Version: 2.1.0 Build 186)  -->
  <path d="M.1.9C-1.9-2,595.2,1,595.1,0v842c0-1-597,1.9-595-1h594V1H.1v-.1Z" fill="#fff"/>
  <path d="M217.6,138.3c2,1.2,9.6-2,13.2-1.8,11.4.5,15.9,8.6,16.5,19,11.1-5,28.7,4.1,22.7,17.2s-4.2,3.1-1.8,5.2c16.1-.2,27.3,11.8,17,26.8,2.9,2.4,6.3,1.2,9.9,3.1,11.9,6.3,6,16.3-3.9,20.9l9,8.2c4.9,11.6-4.8,20.4-15.7,22s-6.2-.7-7.5.1-2.6,5.2-4.2,7.1c-6.1,7.5-14.1,5.5-21.9,1.9-2.9,8.5-12,11.6-19.8,7.1s-.6-3.1-4.2-3.1-1.7,2.2-3.5,3.6c-4.1,3.1-11.1,4-14.9,0,4.8-2.5,10.5-11,15-12.9s14.4-2.9,22.1-6.8,11.3-8.5,13.7-9.3,12.9,3.4,10-2.9c-5.5-.3-9.5-1.7-12.2-6.7-4.4-8.2,3.2-5.8,2.2-10.2s-6.3,1.7-7.8,2.2c-3.5,1.1-7.5,1.4-10.7-.7s-4.2-6.4-5.9-6c-5.8,16.4-43,15.6-35.4-6-4.8.4-8,3.7-12.9,4.5-9,1.6-14.2-.6-20.7-6.4-8.1,7.1-21.8,10.5-31.9,6.1s-3.1-3.7-5.7-3.2c-4.8,11.3-19,10.7-28.9,6l-1.5,2.5,5.9,2.6c1,6.6-8.3,10.1-13.7,10.7-7.3.8-11.6-3-18.2-3.8-2.3,2.4,6.1,6.3,7.7,6.7,6.4,1.8,13.1,1.1,19.2-1.3,2.7,4.6,5.6,8.9,9,13,3.4,4.1,16.6,17.8,16.9,19,.7,2.9-8.5,4.4-10.4,4.4-8.1,0-12.7-5.9-16.9-11.8-9,9.3-30.9,11.2-32.4-5.1-2.8-.4-4.2,2-6.7,2.8-6.9,2.1-16.8-.2-20.6-6.8s3.6-15.2,2.4-16.8c-19.3-2.6-15.7-24.5,1-26.9,0-4.2-3.4-6.3-3.9-10.6-1.9-15.1,15.4-24.7,28.8-20.3-1.8-12.9,3.7-20,17-17.4,1.4-8.7,1.1-16.3,10-21,7.6-4,13.4-2.8,20.9.4,0-16.9,22.5-23.3,34.3-13,4.7-4.4,7.1-8.1,14.1-8.9,12.2-1.3,21.8,1.7,25.9,13.9,5-5.3,20.6-7.2,25.9-3s3.1,5.5,3.7,5.8h-.2v-.1Z" fill="#fff"/>
  <g>
    <path d="M493.4,587.8c-.2-.1-.5-.2-.7-.3-.3.9.6.4.7.3Z" fill="#fff"/>
    <path d="M589.1,485.3c-26.3-4.6-51.8-14.2-78.6-16l1.4,11c11.9,4.3,26.9,12.8,23,27.9-3.5,13.6-33.8,28.7-45.3,37.4-92,72.8,58.1,154.8-235.3,289.4h-.1c0,.1,102.7.1,102.7.1,0-8.2,7.5-14,15-15-6.7-19.5,12-36.3,30.9-34.9-3.8-14.6,9.6-26.5,23.9-25.9-5.8-16.6,8.4-31.7,24.9-30.9-3.9-12.5,2.8-24.1,14-29.4,6.7-3.1,14.2.7,20.7-.9.9-5.6-3.8-12.4-2.5-18.8,3.5-16.8,23-28.5,39.6-21.7-8.2-20,8.5-41.3,29.9-38.8-3-21.4,14.5-39.4,35.9-36.9v-96.6h-.1ZM499,602.9c-3.4-.2-17.3-2.4-18.9-5-4.1-6.9,5.6-13.3,12.5-10.4.2-.6.9-1.7,2.7-3.9,4.8-6.1,11.9-7.9,17.8-3.4h.1c1,.8-1.8,2.1,3,3.5s10.5.8,13.1,5.8c7,13.3-23,13.8-30.3,13.4h0ZM565.7,550c-1.3.6-2.6,2.2-2.5-1.5s3.1-4.6,2.5-7.5c-2.2.8-4.7,2.5-6.5,4.4s-2.1,6.8-5.4,4.6c-1.9-3.3,5.1-11.9-.5-15-1.9,4.9-4.5,8.4-4.5,14l-3,1c.2-3.5-9.8-11.2-9.5-12.5s.8-1.8,3.1-1.1,5,4.1,6.9,5.6c2.2-9.8,12.1-17.6,12-2h0c.8.8,8.4-4.9,11.9-2.9,2.2,1.9-3.1,12.3-4.4,12.9h-.1Z" fill="#fff"/>
  </g>
  <path d="M487.5,372.6v10.8c.1,0,4.9,1.1,4.9,1.1-2.6,5.8-7,20.5,4,16.9-.9,5.9-2.8,14.3,6,13l5.9,80.7c-20.9,8.6-67.6,8.6-88.9,1.8-15-5.6-7.6-22-8.9-34-.9-7.9-7.6-16.7-7.9-21-.6-7,2.5-19.4,3.1-26.9s.3-14.7,1-21.9,2.8-15.5,3-23.4c24.4,9,52.4,7,77.7,3h0l.1-.1ZM449.6,466.3c1.4-1.4-8.1-11.3-9.4-13-6.7-9.6-9.6-18.4-12.1-29.7s.1-10.9-3.9-10-.7,10.1-.3,12.2c2.2,11.3,9.4,26.1,17.2,34.6s6.7,7.6,8.5,6h0v-.1Z" fill="#fff"/>
  <path d="M126.5,474.5c5.9,19.5,32,28.9,47.6,13.7,2.5-2.3,4-5.5,6.5-7.4s6.9-2.9,9.7-5.4c4.8-1.2,19.9,16.2,23,20.5,8,11,14,24.5,18.6,37.2-6.5,7.7-16.9,10-26.4,11.9-.5-2.2-1-4.5-1.8-6.7-2-5.1-6.9-17.1-9.7-21.2s-2.5-2-3.9-3c-1,.8-1.37,1.8-1.1,3,1.7,6.7,10.3,17,11.5,24.4s0,25.3-1,26.3c-26.9,7.3-57.4,9.1-84.9,3.8-3.2-.7-13.1-3.1-13.7-6.2-.5-18.6,3.1-37,6-55.3h-3.9l-5.1,34.8c-3.7,1-25.2-1.2-24.4-6,6.2-21.4,11.7-49.2,33.8-59.9s17-7.3,19.4-4.5h-.2Z" fill="#fff"/>
  <path d="M491.6,380.5c-.2-21.8-.1-44.6-4.1-66.1-.3-1.7-1.2-2.5-2.5-3.5-3.9,4.4-.1,10.8.4,15.5,1,9.4,1.5,19.1,1.7,28.4-24.2,6.4-51.7,5.2-76.2-.2-.8-1,.6-17.4.9-20.3.8-7.5,3.5-16.9,3.7-24.2s-3.4-3.8-4.5.5c-3.1,12.3-1.7,29.6-4.6,42.2-2.2,9.5-18.5,23.9-28.5,24.8,2.8-10.7-.5-23.2-7-31.9,3.2.2,8.1-.5,10-3.4s1-4,2.1-5.9c1.6-2.8,6.4-6.7,8.8-10.1,5.3-7.6,18-36.1,24-38.9s6,3.8,9.2,5.7c15.1,9,36.4,5.7,48.6-6.6,2.4-2.4,6.1-9.8,9.2-9.4s8.3,5.4,9.6,6.4c14.3,11.9,22,34.3,25.7,52,1.2,5.6,6.5,41.7,4.8,44.1-3.7,2.9-29.5,2.9-31.3.8h0v.1Z" fill="#fff"/>
  <path d="M381.8,617.7v10.8c.1,0,5,1.8,5,1.8,1.8,14.3,5.4,28.5,4.9,43-40.7,15.2-87,14.3-128.3,1.9-.2-26.2,6.2-90.8,26.4-109.3l17.3,2.9c-3,4-7.1,7.4-9.5,11.9s-9.1,22.2-4.8,23.1l5.4-1.1c-3.1,4.8-3.3,28.6-.5,31.9s9.3-2.3,10.5-1c-.2,2.7,0,5.2.6,7.8,1.2,4.8,9,19.5,14.6,17.9,4.8-1.3,14-14.4,14.7-19.8,1.1-.8,5.2,2.8,8-.5,5.4-6.2,5.5-26.9,1.9-34.4h10c.9-8.9-1.5-16.9-5.8-24.6s-8.9-11.7-8.1-12.3c5.6.9,13.5-3.2,18.5-2.9s13.7,21.1,14.3,25.4c1,7.2-10.7,30.4,5,27.3v.2h-.1Z" fill="#fff"/>
  <path d="M322.8,273.3c2,2.2,3.8,8.7,7.2,12.2s8.7,5.5,13,8.1v39.2c-5.4.7-13.1-2.7-14,4.4-1.2,8.6,4.2,11.3,12,10.5l-1,7c-8.2-3.5-16.5-4.7-25.4-4s-6.7,2.2-9,2-2.9-2.5-4.6-3.4c-6.1-3.2-12.6-3.8-18.8-.6.4-8.1-7.1-10.3-13.9-8-1-7.5-8.4-8.7-15-7.9,2.2-10.4-8.8-17.9-17.9-13,.2-9.8-8.1-12.7-15.9-8,1.2-10.4-8.8-16-17.9-12.4-5.4,2.1-7.8,7.5-13,9.4,1.1-12.9,5.5-22.8,16.7-29.8,1.8-.5,4.1,1.9,6.2,2.5,9.9,2.4,13.2-4.6,16.5-4.5s5.2,3.2,8.2,3.7c11.6,1.9,14.9-7.1,17.7-7.4,2.8-.3,4.7,1.8,7.9,1.7s11.8-3.3,14.5-6.5,2.8-6.1,3.1-6.3c1.2-.7,14.2-.3,17.3-3.1l26.1,14.1h0v.1Z" fill="#fff"/>
  <path d="M398.8,525.1c-8.6-31.6-16.1-49.2-49.8-58.8,2.7-3.9,7.3-7.6,9.8-11.6,1.5-2.4,3.6-9.4,4.6-10.3s4.2-1.4,6.2-2.7c8-5.1,10.9-16.2,6-24.4-3.6-6.1-19.4-9.2-26.4-13.5s-17.1-14.5-19.8-22.1.6-6.8-3-7.1-4.7,4.7-6.9,7.1c-8.4,9.3-26.8,21.3-39.1,23.6s-4.2.2-6.2.2c-1.9,19.1-2.5,42.8,11.4,57.8,1.6,1.8,9.7,6.3,8.5,7.9-9.5,2.2-16.4,9.8-21.9,17.5l-12,28.4c-2.7-7.6,0-16.7-.3-24.1s-3.9-11.3-5.2-16.7c-5.3-21.1,9.8-36.2,12.2-56.6.9-8.1-.3-14.9,1.5-23.4,8.2-37.8,54.9-55.7,84.9-29.7,16.6,14.4,21.9,40.6,32.2,59.4,7,12.7,20,23.1,21.1,37.7s-2.6,16.8.3,25.6,4.7,7.8,5.4,11.5c2.2,11.5-1.7,21.3-13.7,24.2h.2v.1Z" fill="#fff"/>
  <g>
    <path d="M134.1,321.9l-.3.3c-10-2.8-12,6.3-15.1,13.1l-5.9-6c-6.6-2.6-10.3,2.7-14.5,6.5-3.2-2.2,0-4.5-.4-7.5-.7-6.8-8.9-5.7-13.9-5.6-1-1,5.7-10.2-2.4-15-5.2-3-9.3,2.6-14.5,2l.9-6.3c-4-6.3-9.8-.7-14.8.3,1.6-21.1-28.6-16.8-22.5,2-7.8-2.6-12.1-2.7-11,7.4-3.4-.9-13.4-2.8-14.9,2l-.7,81.5,26-1c-1.7-4.7-5.4-9.9-6.7-14.9-3.6-14.2,8.2-9.2,14.8-2.1,1.2,1.3,4.9,9.1,6.4,6.7.5-.8,3.1-13.5,2.7-13.9-5.4.6-11.4-2.5-11.5-8.5,0-2.2,1.9-4.9,1.4-6.8-.4-1.6-3.1-2.5-3.6-4.4-2.5-8.3,4.9-13.8,12.5-11.3-2.2-8.5,7.5-13.8,14.1-9,1.9,1.4,2.4,4.5,3.9,5.2,1.3.7,4,0,5.9.2,9.9.9,12.7,10.7,5.1,17,9.6,5.7,2.8,18.3-7.5,14.6-1.7,9-10.1,9-16.8,4.8l-4.6,19c1.4,0,1.9-2.4,3.2-3.3,5.4-3.9,11.7-6.5,18.6-5.6,7.5,2.3,3.8,6.7.1,11.6l16.8.7c-2-12.1,5.4-25.7,16.9-30.2,2.4-.9,4.3-.3,6.3-1.3,2.4-1.1,4.6-6.1,6.2-7.5,5.6-4.7,12.5-6.5,19.2-9.3-.3-3.9,3-23.7.4-25.5l.2.1Z" fill="#fff"/>
    <path d="M15.9,308.7c.5-.4.6-3.8,3.6-5.8,1.8-1.2,6.1-1.9,6.3-2.2.4-.5.2-3.1.9-4.5,6.7-12.8,26.9-14,29.1,1.7,7.2-2.1,14.2-1.3,16,7,9.8-5.7,19.6,3.7,18,13.9,6.7.6,9.4,3.5,12.4,9,4.7-4.6,10.6-3.4,15,1,4.2-7.6,8.1-11.4,17.4-9.9-.6-14,2.9-30.6-7.6-41.7-11.6,6.2-22.6,4.6-30.7-5.8-12.6,7.2-26.6,7.2-34.9-6.1-14.2,7.2-36.9-6.6-26.5-22.6-17.5-8.2-14.8-25.9,1-33.9-6.5-9.6-20.1-11.7-30.9-9.5v111.6c2.1-3.3,9.8-1.2,10.8-2.1h0l.1-.1Z" fill="#fff"/>
  </g>
  <path d="M127.7,576.9c-7,9.3-14.9,20.1-17.7,31.6-5.5,23.2,8,11.6,9.7,13.2-6.4,17,1.9,35.5,15.7,45.7,7.8,2.1,25.9-15.8,27.2-23.8,14.7,8.1,16.9-17.3,13.9-26.9,4.2-.3,9.3,3.9,10-2.4.9-7.5-1-15.2-3.9-22.1s-6.1-9.9-8.1-15.3l24.4-5.8c12.2,28.7,11.6,61.7,12,92.6-.7,1-13,3.2-15.3,3.6-28.2,4.7-62.1,5.3-90.1-1s-14.2-3.6-15.8-5.1-1.1-4.9-1-7c.9-18.4,2-37.4,5.3-55.5s4.4-17.1,6.2-25.7c2.6-4.1,20.6,6.2,27.4,4h.1v-.1Z" fill="#fff"/>
  <path d="M263.3,406.5l-42.9-4.5-10.9,14.2c.3,19.4,0,41.2-15,55.6v1.4c21.8,12.7,32.3,37.1,41.7,59.5l-2.7,6.5,7.8,22.7c3.9-4.5,7.3-11.2,9.7-16.7,1.6-3.5,8-19.6,8.1-21.9s-3.9-6.1-4.7-12.8,1.3-12.9.9-18.8c-.4-5.9-5.7-15.6-5.7-19.2,0-18.7,9-31.6,12.2-49,1.1-5.7,1.9-11.2,1.5-17h0ZM229.4,443.4c-3,3-6-7.9-6-10,5-.4,6.6,6,6,10ZM238.5,435.1c-1,2.9-3.4,5.3-4.2,8.3h0c-6.8.2.8-11.4,3.5-10.9,1.8.3,1.7-.3.7,2.6Z" fill="#fff"/>
  <path d="M215.4,317.8c1.7,1.7,7.8-6.5,14-3.5s-2.7,9,1.6,9.9,9.2-6.4,15.7-.3c4.7,4.4,1.9,8.2,1,12.8s5.1.7,7.3.3c13.8-2.9,8.2,9.6,9.2,10.7,3.4.7,4.6-3.2,7.7-3.8,10.4-2.1,5.1,8.5,6.3,9.8,8.1-3,15.9-7.4,22.9.5-20.9,7.6-35.8,27.1-37.9,49.3l-11.9-1c-1.2-1.1,7.2-10.3,1.3-11.8-4.5-1.1-9.9,5.3-10.2,4.8.4-20.5-11.6-8.3-11,4l-10-1c2.1-6.4,1.5-14.5-2.2-20.3s-7.1-6-9.3-8.7-1.7-4.7-3.1-6.9c-3.9-5.9-10.6-8-15.9-12,0-9.3-2.2-19.2-2.5-28.4s-.3-4.4.6-6.5c1.6-3.9,10.1-11.6,14.4-12.5,11.3-2.4,13.1,4.8,12,14.5h0v.1Z" fill="#fff"/>
  <g>
    <path d="M505.2,216.4c7-5.5,14.1-8.1,23.1-7.3,2.5-9.8,11.3-16.3,21.6-14.8,2.3.3,3.5,2.4,5.7,1.9s5-6.1,8.2-7.9c7.8-4.5,17.1-2.9,25.4-1V5.9H5.4v49.1c9-6.4,19.4-10.1,29.3-3,9.7-20.9,44.2-20.1,49.4,3,12.8-4.5,26.4-.9,28.9,13.9,9.7-3.4,27.1,2.5,28.8,13.6.5,3.1-.9,8.4-4.4,8.4H5.3v105.6c9.7-4.1,18.6.6,27.9,3,1.5-14.9,14.4-23.7,28.9-22.9-.9-10.8,7.9-16.5,17.5-17.9.8-15.4,16.6-25.5,31.2-21.1,3.9-12.4,17-17.8,29.4-15.8,2.6.4,5.1,3,7.1,2.9,2,0,2.9-2.6,4.5-3.4,11.8-6.1,31.7-5.1,37.4,8.5,10.6-5.3,24.1-6.8,30.9,5,13.1-6.1,28.6,1.6,31.4,15.7,14.7-1.6,28.4,10,21.8,25,14,.2,24.2,12.9,18.1,26.3.4,1.4,5.4,2.6,7.2,3.7,9.5,6.1,9.9,18.9-1.3,22.8,9.3,8.2,11.6,18.8,2,27.9l21.4,12c0-12.1,3.6-23,12-31.8l4.4,3.9c-1.1-11.9,3.1-21.2,9.5-30.8,2.3-3.5,6.7-6.5,7.4-11,3.8-2.6,6.4,10.1,7.7,12.6,6.5,12.8,18.2,22.8,11.2,39.2l5.5-7c9.3,12.1,7.8,32.9-3.5,43.3-5.3,4.8-10.8,3.4-9,13.4,3.7-1.7,10.1,4.2,12.3,3.8.6,0,4.3-3.6,9.4-5.6s14.5-2.6,17.5-4.2c1-.5.8-1.8,1.7-2.5-8.9-.9-11.2-8.1-12-15.9-.2-2.2,1-4.8.6-6.6-.4-1.8-3.3-4.5-4-7.8-3.2-14.7,5-15.3,8.6-25.4,2.4-6.8,1.4-14,3-20.9,6.2-26.9,32.7-37.7,58.1-34.4,23.5,3,35.6,18,39,40.7,19.3-8-1.9.7,5.1-4.8h0ZM350.9,85.6h0c0,.1-1.5.1-1.5.1-5.3-8.7-13.8-9.9-23.4-9-.4-2.8,3.4-3.6,5.6-3.9,6.9-.8,12.4,2,17.7,5.8,5.9-6.9,16.8-14,25.5-7.4,0,2.2-5.7.6-11.2,1.7s-11,7.4-12.7,12.7ZM393.2,97.7c-3.1,1-6.9,1.2-9.4,3.3s-5.6,10.9-4.5,7.5c.8-2.6,0,.2-4.4-3.5s-8.8-2.9-14-2.4c-1.3-5.4,8.1-4.5,11.3-3.8,2,.5,3.5,2.8,5.2,2.8s10.7-10.2,16.4-7l-.6,3.1ZM427.9,125.7c-9.4-5.6-7-18.8-.1-25.5s14.6-7.2,23.7-6.7c3.1-17.5,15.1-27.8,33.4-25.7,12.8,1.5,18.5,9.7,23,20.8,10.8-8.2,28.4-4.1,28.4,11,12.8-3.9,31.4,5.1,28.8,20.4-.8,4.5-4.5,5.6-8.5,6.4l-128.7-.7h0Z" fill="#fff"/>
    <path d="M570.2,189.7c-6.4,1.5-9.3,7.6-12.4,12.6-11.3-8.5-25.3-3.6-26.4,10.9-12.1-1.5-26.1,3-29.9,15.4,4.1,5.6,10.2,10,13.5,16.5,11.7-13.2,29.6-29.9,48.8-26.8,3,.5,7.4,4.5,7.3,5.6-.6,9.2-3,15-7.8,21.7,12.4,8.3,8.1,22.1,0,31.9-1,1.2-1.4-.5-3,.7-10,7.2-.2.6.7,9.3s-5.3,16.7-12.5,20.6c2.4,10.5-.8,19.1-10.5,24-1.8.9-8,2.2-8.5,3s0,2.5-.9,4.5-3.2,2.3-4,5,0,6.4-.2,9.3l12-1c-.8-11.4,9.3-15.4,18.9-12,.3-13.9,13.9-19.8,26.4-17.9,2.9.4,4.6,2.8,7.5,2.9h0v-133c0-4.3-12.6-4.6-19-3.1v-.1Z" fill="#fff"/>
  </g>
  <path d="M326,381.6c2.8,7.9,15,21,25.2,26.6s7.5,1.5,10.7,4.3c-2.5,3-7.8,5.5-3.5,9.9,10.3-19.1,22.3,5.1,11,15s-7.2,1.2-9,2.9-1.1,4.9-2,6.9c-11.3,24.7-45.7,34.6-66.7,16-15-13.3-15.9-34.3-13.5-53.1,12.2-4.7,23.7-11.3,34.7-18.7s11.8-11.1,13.2-9.9h-.1v.1ZM329.7,406.9c-2.3-1.7-4.3-1.1-3.5,1.9,1.3,4.8,13.3,8,17.8,6.6,2.8-2.3-9.5-4.9-10.2-5.3-2.6-1.1-2.7-2.3-4.1-3.3h0v.1ZM295.8,406.6c-1.3,3.3-13.2,4.7-12.6,7.4,1,4.5,14.4-2.2,14.9-6l-2.4-1.4h.1ZM365.6,421.6c-2.8.8-7,9.6-3.1,10.8,4.4,1.4,2.1-7.7,6.4-9.5-1-1.3-1.6-1.8-3.3-1.4h0v.1ZM313.1,443.4c-.3-.5-8.1-.2-9.5-4-1.2-2,9.4-17.5,3-16-3.1,4.6-7.9,12.3-6.1,18s15.4,5.8,12.5,1.9h.1v.1ZM288.4,428.2c-.2-.1-2.3-4.8-4.2-2.8-4.3,4.6,14.1,12.9,13.9,0-.9-1-5.5,5.2-9.8,2.8h.1ZM341,425.4c-4.5-.9-6.6,4.5-10.9,2.5s-6.2-5.3-5-1c2.2,7.8,15.6,7,15.9-1.5ZM311.9,451.5c-2.7.4-14.1,4-9.2,7.8,5.9-2.8,9.9-4.7,16.4-2.5,1.3.4,6.1,4.8,7,1s-11.2-6.7-14.2-6.3h0Z" fill="#fff"/>
  <g>
    <path d="M189.7,393.7c-1.5-.6-2.6-2.9-3.9-3.1-1.3-.2-4.8,3-4.8,3-7.8,3-16.3,2.4-22.1-4-8.3,6.9-19.9,6.2-29.3,1.9.1,6.2-2.8,12.1-6,17.2-.6,1-1.7-1-2.8,2.4-1.1,3.4-1.3,14.8-6.7,15.4-5.4.6-5.3-13.8-14.6-12.8-16.8,1.8-8.9,34.1,9.1,29.8,6.6,37.1,64.4,50.7,87.2,20.7,13.1-17.3,10.2-49.2,8.6-69.7-5.4.9-9.5,1.5-14.7-.8ZM104.8,429.9c-2.9-1.5-2.4-8.1-8-6.5v-3c2,0,2.6-1,6,.5s7,11.6,2,9ZM133.7,412.5c-3.1-2.7,8.3-3.1,12.2-4.3,3.9-1.2,6.7-4.4,10.7-4.7-3.2,9.3-14.7,9.3-22.9,9ZM147.1,430.3c-7.8-3.4-12.6-6.9-8.9-6.9s4.1,4.2,7.7,3.8c2.9-.3,7.2-6.3,8.7-4.8s-6.3,8.5-7.5,7.9ZM176,460.3c-8.1-5.5-16.2-2.5-24.4,1h-.1c-.7-8.9,16.3-8.9,22.2-6.7,2.9,1,7.6,4,2.3,5.7ZM182,434.3c-3,3.3.3,8.7-3.1,10.9-3.4,2.2-10.8,4-11.3-1.9,21.7,1.3,6-11.6,5-18.4-.4-2.3,2.8-1.9,3.8-1.3.8.9,6,10.3,5.6,10.7h0ZM189,431.4c-2.6-.5-9.1-7.2-5-8,1.9-.4,1.7,3.4,6,4s6.5-4,6.9-4c3.9.3,0,9.3-7.9,8ZM200.4,413.5c-6.1.4-16.4-.2-16.9-8,4.3.4,5.5,3.5,10.2,4.4,2.3.5,5.3,0,6.3.6l.5,3h-.1Z" fill="#fff"/>
    <path d="M213.8,377.7c-1.8-2.1-7.9-4.8-8.2-5.2h-.2c.7-.7,1.3-.9,1.6-.9-.2-.9-.3-2.4-.4-4.8-.3-10.7-21.3-14-29.8-14s-8.6,2.1-11.7,1.6c-2-.3,6.6.7-7.5-3.5s-26.7-1.8-38.6,6.7c-2.8,2-5.7,7.4-7.5,8.5s-2.4-1.5-10.9,3-11.4,12.8-12.1,21.9c-.1,2.2,1.3,4.3.7,6.5-.6,2.2-1.1-1.1-5.9,8s-3.1,17.1.6,26.1c.7,1.9.5.5,1.9,6.5s-.5,10.3,7.1,14.3c2.9,1.5,7,1.2,8.7,2.3,1.7,1.1,4,9,10,7.5-2-5.4-6.4-9.6-6-15.9-14.7,1.3-25-16.7-17.7-29.3,3.5-6.1,12.7-10.4,18.8-5.2l7.9,10.5c2.6-4,1.2-9.7,2-13.2.2-.8-.8,3.2,3.5-2.7,4.3-5.9,6.8-13.6,6.5-20.9,5.6,1,9.5,5.6,15.5,6,3.2.2,8.6-1.2,11.2-2.8,2.6-1.6,2.4-4.3,5.8-4.3s-2.2-.6,4.5,4.5,17.6,3.2,21.4-4.4h1.5c3.6,8.9,13,7.1,20.9,6l2.5,19.9c8.8-7.9,12.2-23.2,3.9-32.8v.1Z" fill="#fff"/>
    <path d="M207,371.6c.5,2.7,1.1.1,0,0h0Z" fill="#fff"/>
  </g>
  <path d="M589.2,482.2l-11-3c-.3-.4,6.5-6.2,3-8.5l-10,.5c5.1-18.9-6.9-24.1-12-5l-6-10.5c-12.5-9.3-5.5,8.5-7,10.5-6.1-3.2-16.5-10.6-14.9,2l-20.9-3-2-30.9,7,3c-.2-4.6-2.2-6.4,1-10.5,6.5-8.3,16.8.7,17.9-.5-.7-16.9,10.7-24.8,25.4-14.9,1.3-.3,2.7-9,3.8-11.2,4.2-8.6,17.9-13.3,25.7-7.2v89.2h0Z" fill="#fff"/>
  <path d="M589.2,330.8v56.8c-15.6-3.9-27,2.4-31.9,17.5-13.4-4.5-26.3.9-25.9,16.4-9.6-2.7-17.9-1.4-20.9,9-2.1.6-2.4-.8-2.7-2.7-.6-3.9.1-7.9-1.3-11.8l.3-1.3c8.8-4.7,13.2-10.8,14.7-20.7.4-2.7-.5-6.7.2-8.7s4-1.2,4.7-3.2c3.8-10.7-10.2-31.9,14.1-24.3-2-14.6,5-16.7,17.4-12l1.5-1.5c-2.7-6,3.6-14.8,9.3-16.6s14.3-.5,20.7,3.2h-.2v-.1Z" fill="#fff"/>
  <path d="M555.9,252.7c1.4-.9,2.2-4.4,5.6-3.5s4.1,3.7,4.8,5.3c3.9,9.9-5.1,21-13.3,25.7l-14.7,5.3c1,6.9,16.9-3.4,17.9-2.5,5,17.5-12.4,25.5-26.9,26.9.5,5.8,10.9,1.5,14.5,0,5.1,8.7-1.4,15.8-9.2,19.6s-7.1,1.8-8,2.5c-1.5,1.3-.9,7.9-4.2,8.7-2.5-17.7-7.9-35.5-18-50.3l.2-1.3c10.2-5.8,10.8-16.4,5.4-26,4.2-5.8,5.5-12,10-17.8,8.7-11.2,27.9-25.2,42.7-22.9s-1.9,20.8-6.5,25.2c-4.5,4.3-9.1,6-13.9,9-4.7,3-3.4,5.3,1.5,3.5,3-1.1,9.2-5.4,12.1-7.4h0Z" fill="#fff"/>
  <path d="M81.9,60.3c1.4.7,9-3.5,12.5-3.6,9.6-.2,15.6,7.8,14.4,17,3.2.5,5.4-1.6,8.4-2,9.6-1.2,21.6,3.9,20.4,14.9l-7.4,1.1-125.1-1c1.2-6.9-1.7-20.5,0-26.4h0c5.9-8.1,18.6-9.8,27.3-5.4,1.8.9,2.8,3.6,5.6,2.8.5-20.1,35.3-22.4,41.4-5" fill="#fff"/>
  <path d="M182.5,613.8l-12-2c3.3,10.2,5.2,22.1-2.5,30.8l-7.5-3.5c-3.6,11.2-11.9,21.2-23.4,24.4-8.6-6-16-18.4-16-29.2s3.6-12.1,3.6-18.6l-11.9,4c-.3-15.9,9.2-29.7,18.9-41.3h37.9c7.9,9.9,14.1,22.3,12.9,35.4h0ZM138.7,624.7v22.9h3l3-36.9c6.7,4.3,11.9,10.4,16.4,16.9.9.3,2.3-1,2.5-1.5,1-4-14.6-17.1-17.8-20.1l2.9-16.3c.8-.9,17.2,12.6,19.9,13.5s4.5.2,4-2-4.6-2.3-5.9-3.1c-3.1-2-17.3-14-19.5-13.3-1.9,1.3-1.1,3.9-2.5,5.5s-8.8,4.1-11.3,5.7-13.9,9.4-9.1,9.8l19.4-11c.7.8-2.8,19.2-3.4,21-1.6,4.5-8.5,7-9.5,12.5s-.6,2.9,1.4,2.4l6.5-6h0Z" fill="#fff"/>
  <path d="M321.1,634.2c.1.8,1.4,2.1,1,3.5,1.9.3,2.7-.8,3-2.5.7-3.9-2.6-21.2-1-23.4,2.6-.3,13.3,14.8,14.9,12.9,1.6-7.2-14.2-15.1-14.9-19.5l2-22.4c1.7-1.5,10,10.6,13.9,9,2.3-2.3-11.7-12.8-13.8-14.1l.9-7.7c3.4.2,7-1.7,10.3-1.1,6.3,1.1,19.2,25.6,16.5,32.9l-11-1c2.5,9,6.7,25.6.9,34.3-2.9,4.3-5-2.3-8.5.5s-5.6,18.3-13,19.9c-2.3.2-8.6-11-9.3-13.3-1.5-4.4-.1-12.5-1.4-14.5-1.8-2.9-8.1,3.9-10,5-6.7-11.1-2.1-22.6,1.5-33.9l-8,.5c1-4.5,1.5-8.2,3.5-12.5s10.4-16.4,13-16.9,8.5-.3,9.8.2c2.7.9,1.1,8.1.1,9.8s-11.8,7.1-12.4,10.5,0,1.8,1.5,1.5l11.5-8c-.9,4.3,0,11.4-1.2,15.2s-10,9.1-11.8,12.1-2.2,6.7.5,5.5,7.9-10.9,11.5-11.9c.9,9.2-1.2,20.4,0,29.4Z" fill="#fff"/>
  <path d="M133.7,673.5c-.8,6.8-2.4,13.6-3,20.4-1.1,13.2.6,29.6-1,41.9-.2,1.4-1,3.8-2,4.7-2.9,2.9-28.4,9.3-33.5,9.7-9.9.7-17.4-.6-4.7-6.7,1.4-.7,2.7.6,2.2-2.2-7-1.8-8.9,3.2-14.4,5-4.6-4.9,6.4-4.7,6.4-6.5-3.8-3.9-8,.2-10.9,2.5-1-1,2.2-3.9,3-4.5,5.7-4.9,16.6-6.6,22.3-10.6s2.1-2.1,2.4-3.6l-.4-54.1,33.4,4h.2Z" fill="#fff"/>
  <path d="M203.3,669.7c2.3,6.5,5.4,12.7,8.7,18.7,3.5,6.3,13.9,19.7,15.5,25.3,3.5,11.7-8.8,26-19.2,30.1s-10.2,3.3-5-3c-1.8-2.7-3.5-1.1-5,1s-.5,6.3-5.9,2c-.5-2.4,4.7-4.5,1.5-6.5-2.7-.5-4.4,6.6-7.9,6s5.1-6.4,1-8c-4.2-.9-5,5.7-6,6l-2.5-.5c0-1-.2-2,0-2.9,1.2-5.2,22-15.5,20.8-20.7s-8.3-9.1-10.8-12.2c-7.8-9.7-14.7-20.7-21-31.3l35.8-3.9h0v-.1Z" fill="#fff"/>
  <g>
    <path d="M285.2,545.3h0c-.7-.2-.6-.9-.4-1.6-.4.7-1,1.6-1.8,2.8-5.9,9.1-10.1,19.2-16.9,28.9-2.2,3.1-10.7,9-12.7,13.3s4.5,14.8,0,21.6c-.2.3-4.4,4.8-5.6,5.6s-3.1.7-4.1,1.4.6.4-5.2,2.3-5.3-2.4-8.8-4.3-7.8-.3-11.2-3.7-1.8-10.3-7.5-11.2c1.9,17.6,4,37.8,3.1,55.6,16.9-5.4,34.7-16.4,50.1-26.6,3.5-17.3,6.1-36,14.7-51.6,1.6-3,9.2-12.7,10-16.2s-3.9-12.1-3.5-16.3h-.2Z" fill="#fff"/>
    <path d="M284.7,543.6c1.8-2.9.5-1.4,0,0h0Z" fill="#fff"/>
  </g>
  <path d="M480.5,245.1c4.6,9.4,3.1,15.5-.8,24.6-16.8,40.5-77,28.5-64.9-18.6.5-.5,7.2,7.5,10.5,8s9.2-3.2,13.1-3.7,6-.5,8.8-.3c11.1.8,16.3,9.8,25.9,0,3-3.1,3.2-5.7,5.2-8.7s-.1-1.8,2.2-1.3h0ZM452.6,267c1-4-4.6-5.5-7.6-5.9-4.4-.5-8.1.3-11.4,3.4-.4,2.2.9,1.5,2.4,1.4,6.1-.5,10.3-1.9,16.6,1.1Z" fill="#fff"/>
  <g>
    <path d="M504.5,262.7c.3-1.7,5.8-4.8,6-12.1.2-9-4.4-9.8-8.7-14.8h-.2c-11.8-13.4-3.2-33.1-23-45.2-22.3-13.7-55.9-8.3-68.6,15.7-5.9,11.1-2.9,22.1-7,31.9-2.7,6.5-11.2,12.2-9,20.9.8,3,4.8,4.6,5.3,9.6s-3.2,12.6,2.7,17.4c5.6,4.5,7.8.2,12.5-2.1-5.4-9.4-5.8-18.8-5-29.4.2-3.1,1.8-5.9,2-9,.6-9.2.6-18.5,1.2-27.7,4.6-4.2,10.5-4.8,15.8-9.1,3.8-3.1,7.8-10.3,9.1-13,.9-.5,3.2-.2,8.9,6,8.7,9.4,18.2,13.5,30.5,16.4-1.9,20.5,18.9,34.2,5.7,54.4.2,1.9,5.1,3.1,7.7,5s10.1,9.9,12.3,9.3c4.5-3.1,7.3-9.5,6.3-14.9-.5-2.6-4.8-7.6-4.5-9.3h0ZM437.1,196.4s0-.1.2-.3c0,.1-.1.2-.2.3Z" fill="#fff"/>
    <path d="M473.5,221.1c-13.1-2.3-25.7-9.9-33.3-21-5.1,9.2-13.1,16.3-23.3,19.1,1.1,7.2-2.5,21.7.4,27.7.4,1,5.1,7.1,8.1,7.9s9.3-3.8,13.2-2.9c-.2-1.7-1.3.9-3.3-3.2-2-4.1,2.1-16.9,5.3-13.7l-2,13h6v4c12.8-1.7,22.1,11.5,29.5-4.9,4.5-10.1-.6-15.7-.6-25.9h0v-.1ZM428.1,240.1c-7.4.3-8.9-7-5.9-7,3,3.9,4.1,3.3,7.9,1,3.1,2.2.3,5.9-2,6ZM418.8,227.1c-3.8-3.6,15.7-10.7,15.9-2l-15.9,2ZM453.6,233.2h2.9c0,3.6,2.5,6,4.8,2.2.9-1.5-.7-2.9,3.3-2.2.5,10.7-12,10.6-11,0h0ZM467.5,226.5c-.6,3.1-6.7-.8-8.7-1.2s-4.1-.2-6.2-.2h0c-.2-1.8-.3-3.3,1.6-3.9,3.1-1.7,14.1,1.3,13.3,5.3h0Z" fill="#fff"/>
  </g>
  <path d="M302.1,686.5c-.7,7.7-3.7,14.9-4.8,22.6-1.1,7.8-.2,27.8-4.1,32.8-4.8,6.2-30.1,11-37.9,8-3.6-2.1,6.2-3.8,5-6.5-2,0-4-.2-6,.4-3.7,1.2-2.9,5.4-6.9,4.5,0-1.6-.3-3.2,1-4.5s7-.7,6-3-9,.9-10.5,2.5c1.7-8.5,25.6-9.8,27.3-14.6l3.2-46.2,27.9,4h-.2Z" fill="#fff"/>
  <path d="M371.9,749.3l3-7c-4.7-.8-6.9,2.8-7,7-6.5-.3-.3-7.3-1-8-4.1-.6-5.3,3.6-7.5,6-6.4-1.3,1.8-6.8.5-8-3.9-.3-6.7,2.1-7,6-6.1-5.1,5.9-10.7,9.5-13.9s8.1-7.6,8.1-9.5c-2.7-4-25.4-32.6-22.6-35.4l28.9-3.6,17.5,35.4c2,6.6-2.1,14.6-6.1,19.9s-13.5,13.7-16.4,11h.1v.1Z" fill="#fff"/>
  <g>
    <path d="M106.7,464.2c-3.3-1.4-4.1-5.2-6.5-6.9-2.4-1.7-7.1-1-11-4.4-6.8-5.8-3.3-9.7-4.9-16-.5-1.9-1.8-.5-4.5-7.4s-2.4-15.7,0-22.7c1.2-3.6,4.3-6.4,5.2-9.8-5.5.5-13.1-.5-18.7.4-5.6.9-11.9,6.2-18,6s-9.9-5.4-13-6-28.4,0-29.4,1h-1.3c0-.1.4,327.8.4,327.8,27.1-18,60.6-26.3,91.6-34.8l-.2-24.7c-1.1-3.2-9.9-1.4-10.8-6.1-.9-5.3,2.1-32.1,1-33.4-3.2.3-7.3,5-9.9,5.6-.6.2-5.3-.3-8.4-.5-4-2.5-13-9-10.7-19.4,2-9,4-18.4,6.7-26.5,4.6-13.8,7.1-28.7,10.4-42.7-3.5-1-4.8-1.8-4.4-5.8,7.8-25.8,12-50.6,39-63.1,1.8-.9,12.3-3.9,12.3-4.8-3.4-5.2-11.4-4.5-14.7-5.9l-.2.1ZM39.6,442.2l.5-2c1.5,1.3,2.3,7,2.3,9.1,1.4.3,3.3-.2,5.3-2.3s1-6.9,5.3-6.2c1.5,1.5-4.7,6.9-5.7,8.7-.5,1-1.7,8.6-4.6,4.5-1.1-1.6-1.6-7.2-2.6-9.7-.7-1.7-3.2-3.2-3.4-5.6s1.2,2.2,2.8,3.6l.1-.1ZM40.5,518.6c3.8-.2-.6,6.4-3.3,7.3-3,1,1.7-6.5,3.3-7.3ZM34.6,452.7l1.1,1.1c-1.2-.1-.2,2-1.1.8-.3-.3-3.6-6.5-4.1-7.7,3.8-.8,5.1,2.8,4.1,5.9v-.1ZM30.9,517c.4-1.4,2.4-7.3,4.8-5-1.7,3.3-2,4.8-2.4,6.4-.5,1.9.6,8.6-2,8s-.8-8-.4-9.4ZM25.4,527c-1.8.4-1.7-2.1-1.8-3.4l-3.4-9.7c5.1,1.8,9.2,12.3,5.1,13.1h.1ZM50.1,681.3c-5,5.3,4.3-10.3,3.6-11l-6.9,3.6c-2.1.5-4.3,5.1-7.2,5.5-2.8.4,1.8-9.6,2.1-12.7s0-6.2,0-9.3c-6.6,5.4-6,13.3-8.1,20.6-1.7.3.7,3.8-1.7-.4-2.4-4.2-1.9-13-9.7-13.6-.3.3-1.1,4.7-.5,7.5s5,6,2.5,7.9c-3.2-.7-6.8-14.9-4.1-18.2,4.7,2.6,8.5,5.2,12.1,8.8,5.9-17.5,15.4-17.4,11.4,0l-1.2,4c4.3-1.7,9.1-7.7,14-3.6.5,2.6-2,6.2-6.4,10.9h.1ZM54.6,454.8l-3-1.1c2.5-3.3,2.6-4.8,6.2-4.9l1.1-.7-4.2,6.8-.1-.1Z" fill="#fff"/>
    <path d="M76.7,547.1c-2.4,12.8-5,26.9-9,39.3-2.4,7.7-9.3,20.2-9.4,25.8,0,5.6,3.7,17.9,10.5,18.6l1.1-6.3c-7.6-2.5-9.5-13.8-4.6-19.6,3.2,0,.7,11,2.5,13.9,6.7.2,6.3-8.5,7-13.4,7.6-2.4,1.2,8.7,2.2,12.6.3,1.2,1.5,1.5,2.4,3.7s-.8,5.8,2.4,5c7.8-3.5-1.2-7.1.2-13.1,2.3-9.5,4.1-20.2,7.3-29.7,1.2-3.4,8.5-17.5,8.5-18.5v-15.4h-.2l-20.9-2.9h0Z" fill="#fff"/>
  </g>
  <path d="M378.9,251c-13.6,6-8.7,5.1-8-9.5s-12.2-22.9-15-36.3h0c-1.4-.4,4.9-6.9-2.1.5s-11.6,19.9-12.7,29.9c-.5,4.3,2.1,15-4.4,13.2-2.8-.8-2.3-6.2-5.2-4.8-2.9,1.4-5.4,4.3-6.4,15.6s4.8,28,17.8,27.8c-8.9-8.8-8.2-19-2.7-29.6,2.5-4.9,7.6-9.3,9-14.9,1.4-5.6-.7-11.3,2.2-15.7,1.2,0,8.5,10.6,9.3,12.6,3.1,7.6,1.4,15.5,3.9,23,1.9,5.5,7.4,9.8,6.1,16.4-.5,2.4-2.9,4.2-2.8,6.7,2.7,2.3,8.7-8.1,9.5-10,3.9-8.9,4.4-15.6,1.5-24.9h0Z" fill="#fff"/>
  <path d="M251.3,601.8l-4-1c0,2.4.2,4.8-.2,7.2s-1.2,5.4-2.7,5.7c1.8-8.9-6.4-14.6-14.3-15.8-5.7,2.4-4.3,9.5-8.7,12.8-5.4-7.4,1.5-11.2,2.7-17.7,2.2-12-9.1-32.3-13.7-43.6.1-1.4,11.9-4.7,14.2-5.7,1.7-.8,4.8-4.8,6.2-2.7,4.1,10.4,6.3,22.4,10,32.8,3.5,9.7,10.4,17.3,10.4,27.9h.1v.1Z" fill="#fff"/>
  <path d="M352,332.8c-2.4.2-4.8.3-5-2.5.1-12-.1-23.9,0-35.9,0-2.1,1.2-4.2,1-5.9-.3-3.1-5.2-6.2-6.3-9.7-5.6-17.8,11.7-23.8,12.3-39.2.4-1.5-.7-1.7,2-1.5,4.4,7.7,2.8,16.1,4.4,24,1.6,7.9,6.4,10.4,6.6,13.4.4,6.3-5.9,10.3-6,12.9s1,3.2,1,5c0,12.9-.2,25.7,1,38.4h-7l-1-41.8c-.9-.4-3,.9-3,1.5v41.4h0v-.1Z" fill="#fff"/>
  <path d="M400.8,426.4c-1.5,1.5-11.9-4.4-14-5.7l-16.9-39.2c7.8,3,13.9-1.6,20.6-4.8l16.3-15.1-6,64.8h0Z" fill="#fff"/>
  <path d="M64.9,363.6c1.8,10.5-12.4,13.5-12.5,3.3-3-.8-5.6.9-8.1,1-7.2.2-8.3-8.8-2.4-11.6v-1.9c-13.2-2.4-4.1-16.2,7-9.6,0-4.3-1-11,4.5-12,8.4-1.4,6.7,8.5,8.9,9,3.6-2.3,7.3-2.8,11.4-1.5,7.6,7.3-4.3,10.4-3.7,12.7s8.7,2.3,5.8,9.2c-3,7.1-10.1.4-11.1,1.5h0l.2-.1ZM54.7,344.9c-11.3,2.8-7.8,19.4,5.3,15.3,11.4-3.6,4.3-17.7-5.3-15.3Z" fill="#fff"/>
  <path d="M365.9,305.4c1.3-4.5,9.9,2.7,12.2,2.4s9.4-5.7,13.1-6.9,10.6-2.6,11.5-1.9c-2.8,5.5-17.1,33.8-22.4,33.8s-2.7-1.4-4-1.5c-3.6-.3-6.9.6-10.5.5,1.3-6.7-1.7-20.7,0-26.4h.1Z" fill="#fff"/>
  <path d="M487.5,359.7c-.1,2.8,1,8.1-2,9.5-1.7.8-17.4,2.3-20.5,2.5-17.4,1-38,.3-54.4-5.6v-7.4c25.3,5.6,51.3,4.7,76.8,1h.1Z" fill="#fff"/>
  <path d="M219.4,237.1c-5.2,11.3-17.4,21.3-29.2,25.1-1.4.4-5.3,2.3-6.2.8-.6-13.1,6.3-24.6,9.5-36.9,1.2-1.1,5.9,5.7,7.5,6.9,6,4.8,11,4.2,18.4,4h0v.1Z" fill="#fff"/>
  <path d="M499.5,502.2c1.9,12.9-2.7,15.5-13.3,20.1-2.3,1-12.3,5.7-11.5,1.5,3.6-3.2,1.2-7.6-2.2-3.9-2,2.1-2.9,8.5-6.9,1.8.1-.6,6.2-4.7,2.5-5.5s-6.3,3.6-6.5,7l-4.9-1c.7-7.4,10-9.8,12.1-16.7l30.7-3.2h0v-.1Z" fill="#fff"/>
  <path d="M207.4,549l13.1,37.4c0,4.9-11.6,5.8-9.1,13.4l-8.9-31.4c1.8-6.5,2.4-12.6,2-19.4h3-.1Z" fill="#fff"/>
  <path d="M377.8,334.8c.6,2.4,1.3,4.6-.9,6.4-4.5,3.6-36.5,4.8-41.8,2s-2.1-4.1-2-6.5l44.8-1.9h-.1Z" fill="#fff"/>
  <path d="M178.5,225.2c.7.9-8.4,17.4-9.8,19.6s-1.1,2.7-2.7,2.3-11.2-19.5-9-22.9,8.4-4.7,9-4.6c1.6.1,9.1,6.3,12.5,5.6h0Z" fill="#fff"/>
  <path d="M518.4,385.6l-1,12.9c-2.5,1.5-1.6-3.9-4-1.5s-1,11-6,12.5c-.1-4.8,4.5-10.5-.5-13.9-2.1,0-2,14.3-6.5,14.9-1-2.6,1.3-13.9.5-15-2.7-3.8-4.8,2.9-7.5,3l2-12.9c7.9,1.9,15,.4,22.9,0h.1Z" fill="#fff"/>
  <path d="M443.5,505.3c.6,1,.3,4.7-.3,5.9-2.3,3.9-22.4,5.7-27.4,6,1.8-5.9,2.8-10.8,1-16.9,3.5,1.8,26,4,26.8,5.1h-.1v-.1Z" fill="#fff"/>
  <path d="M130.7,223.2c-1.8,4.7,8.8,26.8,7,28.9-9.6-3.1-16.2-12-20.9-20.4l14-8.5h-.1Z" fill="#fff"/>
  <path d="M172.6,483.2c1.1.8-2.3,3.6-2.8,3.9-14.3,10-28.3,3.7-38.1-8.9,3.1-.4,4.9,2.1,7.5,2.9,10.9,3.5,22.1,3.6,33.3,2h0l.1.1Z" fill="#fff"/>
  <path d="M43,399.5c-6.6,1.6-19-21.9-16.9-23.9,11.5.1,16.9,14,16.9,23.9Z" fill="#fff"/>
  <path d="M373.7,365.5c-5.6,3.6-10.9,3.9-10.7-4.4s6.5-8.4.9-10c-1.7,2.2-1.4,4.6-4.5,5.5-5.5-6.8,4.1-12.4,9.5-7.5s6.2,14,4.8,16.3h0v.1Z" fill="#fff"/>
  <path d="M46,400.5c1.3-4.5,5.8-9.3,10.1-11.4s18.2-5,9.9,3.9-13.1,7.4-19.9,7.5h-.1Z" fill="#fff"/>
  <polygon points="376.9 578.9 367.1 563.2 368.9 547 374.2 564.1 376.9 578.9" fill="#fff"/>
  <path d="M233.4,245.1c-.6-.6,7.3-11.1,8-11.5,3.4-2.1,15.6-.4,9.3,4.4-1.6,1.2-16.6,7.8-17.3,7.1Z" fill="#fff"/>
  <path d="M158.6,674.6c.2,1.5-1.7,1.3-2.8,1.7-6.6,2.2-13.6,3.4-20.1,5.8l2.1-8.4,20.8.9Z" fill="#fff"/>
  <path d="M566.2,476.3l-6-1.6c1.2-5.7,3.1-12.4,7.5-16.3,4.1,0-2.3,15.7-1.5,17.9Z" fill="#fff"/>
  <path d="M355.9,347.7c-4.2,5.8-2.4,10.1,3,13.9-4.5.9-7.1-1.4-11-3,1.4-2.5,6-1.4,5-6-16,5.1-8.4-6,3-5h0v.1Z" fill="#fff"/>
  <path d="M552.5,473.1c-1.1-.9-3-13.3-3.2-15.8,4.7,3.9,6.1,10.9,7.9,16.5-1,0-4.5-.4-4.8-.7h.1Z" fill="#fff"/>
  <path d="M399.8,438.4c-1.5,1.7-8.8-10.1-8-11l7.5,2.9.5,8h0v.1Z" fill="#fff"/>
  <path d="M234.3,601.8c1.3,1.2-6.1,12.9-8,10.9-.3-2.8,4.2-14.5,8-10.9Z" fill="#fff"/>
  <path d="M367.9,371.6l7-3c2.1,16.4-8.2,4.4-7,3Z" fill="#fff"/>
  <path d="M546.3,471.3c-5-.8-11.3.2-12-6,1.4-1.1,11.2,3.5,12,6Z" fill="#fff"/>
  <path d="M238.3,400.5h-3c-.1-3.7-.3-8,2.5-11l.5,11Z" fill="#fff"/>
  <path d="M233.4,614.7c.3-1.9,3.2-9.4,5.5-9s.9,2.2.3,3.3c-.9,1.7-3.5,5.7-5.8,5.7Z" fill="#fff"/>
  <path d="M75.8,621.8c.7,3.4,1.9,7-1.9,8.9l-1-9h2.9v.1Z" fill="#fff"/>
  <path d="M243.3,400.5l6-6c0,4-1.6,6.7-6,6Z" fill="#fff"/>
  <path d="M220.4,593.8c-1.7,1.8-1.9,6.1-5,6-.5-3.6,1.1-6.4,5-6Z" fill="#fff"/>
  <path d="M577.2,474.3c-1.7,3.1-3.5,4.7-7,3,.9-2.2,4.8-3.2,7-3Z" fill="#fff"/>
  <path d="M241.3,614.7c-.3.7-1.7-.6-1-2s1.7.6,1,2Z" fill="#fff"/>
  <path d="M398.8,607.8l-5.5,15.9c-1.3-2.1.5-7.8-1-12.9-.2-.7-1.2,14.4-7.5,13.9l2-17.9h-3c.2,3.4-1.9,8.6-6,8-1.5-8.5,2.5-16.3,3-24.4s-1.9-19.6-3.3-28.6l-17.2-55.6-2.3,2.3,9.3,32.1-4,19.5c-1.4,2.1-23.3,5.7-27,5.9-7,.5-42.8,1.2-45.2-5.6-2-20.4-14.7-39.1-4.1-59.6-5-2.3-7.6,10.2-8,13.9-.9,9.4,2.9,16.9,2.8,23.9s-21,39.3-26.8,45.8-2,2.8-3.9,2.5c-1.5-4.5-8.7-15.8-7.8-20.2s8.2-13.3,10-17c9.1-18.8,14.4-53.5,28.7-67,2.6-2.4,12.5-8.8,15.7-9.3,3.5-.6,6.7,2,9.9,2.6,13.2,2.4,26.1-.8,37.6-7.4,36.4,7.5,47.3,39.5,53,72.2,3,17.4,1.2,34.5,3.4,50.4,0,.3,1.4,1.9,2.2,6.8,0,0,.8,2,1.4,1.9.1,0-.9,1.6-.8,1.7,0,0,.1.2.2.7.4,5.5-.4,12.5-4.5,16.5,0-3.4,4.3-10.4-1.5-10.9h.3l-.1-.1Z" fill="#fff"/>
  <path d="M190.5,223.2c-1.9,7.2-5.2,14-7.2,21.2s-6.4,21.1-2.1,22.5c11.8,1.2,24.9-7.5,32.8-15.8,4-4.2,9-13.6,12.8-16.6s6.1-2.3,8.1-5l3.5,2.2c-1.9,2.6-12.7,14.5-9,17,8.6,1.1,17-4.6,24.5-8.3,4.7,2.9,1.3,4.7-1.8,7-6.5,4.8-14.6,8.2-22.2,10.7-3.3,1.1-6.8.6-9.8,2.2s-27.7,25.2-29.9,28.9c-9.4,16.1-2.5,42.6-3.6,60.6-2.8.5-5.9-.5-8.5-.4s-9.2,1.6-11.9,1.4c-8.3-1.2-18.8-9.8-29-4,.6-16,2.6-32.3,1.6-48.4-1.5-22.8-16.1-31.1-28.3-47.4-1.6-2.1-7.9-10.5-7.5-12.2,4.1-2.4,3.2-10.2,8.2-8.5s5.6,8.8,7.2,10.8c5.7,7.2,13.8,15.3,23.3,16,2.7-5.1-8.8-29.9-7-31.9l17.8,1.1c2.2,6.7,4.1,13.4,7.9,19.5,5.6,8.8,7.3,8.5,12.9-.3,5.2-8.1,6.1-21.3,17.1-22.2h0l.1-.1Z" fill="#fff"/>
  <path d="M239.8,615.8c1,.7-.5,1.3-1,2l-.5-.5,1.5-1.5Z" fill="#fff"/>
  <path d="M359.4,365.6c.6.3.6.7,0,1v-1Z" fill="#fff"/>
  <path d="M88.3,607.8c.6.3.6.7,0,1v-1Z"/>
  <path d="M536.3,99.6c12.9-3.9,31.4,5,28.8,20.4-2.6,15.4-4.5,5.7-8.5,6.4l-128.7-.7c-9.4-5.7-7.2-18.7-.1-25.5s14.6-7.2,23.7-6.7c3.1-17.5,15.1-27.8,33.4-25.7,12.8,1.5,18.5,9.7,23,20.8,10.8-8.2,28.4-4.1,28.4,11ZM508.8,93c-.9.8-1.3,2.4-2.3,3.2l-2.6-.5c-2.5-35-49.4-31.1-48.8,3l-10-2c-12.4,0-24.1,13.4-16.8,24.9l131-.5c6.3-3.1.8-10.9-3.1-14-6.8-5.5-14.8-5.4-22.4-1.5-2.9-2.7-.6-6.8-2.3-10.7-4.3-10.1-15.8-8-22.8-1.9h.1Z"/>
  <path d="M350.9,85.6h-1.5c-5.3-8.7-13.8-9.9-23.4-9-.4-2.8,3.4-3.6,5.6-3.9,6.9-.8,12.4,2,17.7,5.8,5.9-6.9,16.8-14,25.5-7.4,0,2.2-9.1,1.3-11.2,1.7-5.5,1.1-11,7.5-12.7,12.7h0v.1Z"/>
  <path d="M393.8,94.6l-.6,3.1c-3.1,1.1-6.8,1.1-9.4,3.3s-2.9,6.8-4.5,7.5c-2.7,1.2-2.8-2.1-4.4-3.5-4.3-3.7-8.8-3-14-2.4-1.4-5.4,8.1-4.5,11.3-3.8s3.6,2.8,5.2,2.8,10.8-10.2,16.4-7Z"/>
  <path d="M433.7,549c-4.5-.5-10.1,3.2-13.9-.5,0-2.9,15.8-6.8,13.9.5Z"/>
  <path d="M293.1,779.2l-2,12.4c-8.7,3.3-.6-15.4,2-12.4Z"/>
  <path d="M284.2,792.1c-.9,1.2-10.9-11-6.5-12s8.6,8.6,6.5,12Z"/>
  <path d="M42,772.2v3c-3.5-.6-12.5,3.8-9.3-2l9.3-1Z"/>
  <path d="M409.8,655.6c-.6-4.3,10.8-4.3,10.9-1.5-2.7,2.9-7.5,1-10.9,1.5Z"/>
  <path d="M295.2,792.1c-.8-.9,1.7-8.4,4.5-8,4.1.8-3.1,9.5-4.5,8Z"/>
  <path d="M240.3,699.4l.6-3.1c2.4-.8,5.5-2.1,7.4.6-2,2.9-4.8,2.7-8,2.5Z"/>
  <path d="M49,773.2l7,.5c-2.2,2.1-7,4-7-.5Z"/>
  <path d="M438.2,547c3.4-.9,4.6,3.3,2,4s-4.6-3.3-2-4Z"/>
  <path d="M513.1,580.2c1,.7,1,2.9,3,3.5,4.8,1.4,9.5-1.1,13.1,5.8,6.9,13.2-23,13.8-30.3,13.4-3.4-.2-17.3-2.4-18.9-5-4.3-7.2,5.5-16.6,12.4-13,.1,0,.4-2.4,1.1-3.4,4.8-6.1,13.5-5.8,19.5-1.3h.1ZM483.8,590.1c-1.3,1.6-1.8,5.2.3,6.6,5.8,3.8,28.7,3,35.7,1,14.3-3.9,1.9-14.8-5.9-6.9-1.9,0-.3-9.6-10-10-7.3-.3-7.2,2.9-8.5,9-.6.4-8.1-4.1-11.7.3h.1Z"/>
  <path d="M558.3,540c.7.8,8.4-4.9,11.9-2.9,2.2,1.9-3.6,12.5-4.4,12.9-1.3.6-2.6.5-2.5-1.5,0-3.6,3.1-4.5,2.5-7.5-2.2.8-5,2.7-6.5,4.4s-2.1,6.8-5.4,4.6c-1.9-3.3,5.2-11.9-.5-15-1.9,4.9-4.4,8.4-4.5,14l-3,1c.2-3.4-9.7-11.6-9.5-12.5.3-1.3,1.7-1.5,3.1-1.1,2.2.7,5,4.1,6.9,5.6,2.1-9.8,12.1-17.6,12-2h-.1Z"/>
  <path d="M44,671.5c4.3-1.7,8.1-6.4,13-2.4.5,2.5-4.5,12.3-6.6,13.3-6.7,3,3.2-10.3,2.5-10.9l-6.9,3.6c-2.1.5-5.1,7-6.5,6.4-2.7-1.1,1-10.7,1.4-13.6s0-6.2,0-9.3c-6.6,5.4-4.8,14.6-7,21.9-1.7.3-2.1-.4-2.8-1.7-2.4-4.3-1.4-12.7-9.2-13.2-.3.3,1.2,6.7,1.5,8,.6,2.7,4.2,6.5,0,7-3.1-.6-7.2-16.6-4.5-19.9,5.5,0,9.3,4.4,12.9,7.9,4.4-19,17-18.6,12,3h0l.2-.1Z"/>
  <g>
    <g>
      <path d="M496.4,794.6c-6.6,1.4-11.1,7.2-15.9,11.5.6-3.3-1.1-11.4.5-14,.7-1.2,4-1.8,5.5-3.4,1.5-1.7,1.9-5.4,2.9-6.1,1.6-1,6.4,0,9.9-2,5.5-3,8-9.8,3.8-15.1-1.9-2.4-7.8-3.9-8.5-4.5-.8-.7-1.2-7-4.2-10.2-7.6-8-24-4-22.9,8.4-10.4-1.4-17.6,6.7-11.8,16.3,3.4,5.6,11,4.9,11.7,5.8.4.4,0,4,1.2,6.3,1.8,3.3,7.1,4,7.9,5.2,1.4,2,1.1,10,.9,12.8,0,1.1.7,2.7-1,2.5-2.4-14.5-39.4-25-24.9-2.5,8.5,13.2,27.1,16.4,40.9,10,10.5-4.9,24.8-25.4,3.9-21h.1ZM451.6,797.1c10.9-3,21.8,7.8,23.9,17.9-10.5,0-20.5-8.3-23.9-17.9ZM471.1,784.1c-1.4-3.1,1.4-6.2-.5-7.5-3.2-.6-4.2.9-7.7-.2-10.8-3.5-3.5-17.5,6.7-13.6.5-8.6,9.7-17.7,17.3-10.5,4.7,4.4,1.8,11.3,3.5,12.4,2.8-.2,6.6-.5,8.7,1.7,1.7,1.8,1.8,7.2.3,9.3-3.9,5.4-13.4,1.7-14,2.4,2.5,9.2-10.8,14-14.5,6h.2ZM480.5,815c3.1-9.1,11.6-17.8,21.9-16.9-1.1,9.7-12.7,17-21.9,16.9Z"/>
      <path d="M178,791c-2.3,0-5.3,1.3-6.8.9-1.3-.3-2.7-2.8-4.6-3.4-3.7-1.2-11.2-.4-14.7,1.3-4.1,2-11.5,10.5-7,14.9,2.8,2.7,16.1,2.8,20.1,3.3,6,.7,9.9,2.7,17.1,2,19.3-2,7.8-18.9-4-19.1h-.1v.1ZM162.5,804c-5.4,1-9.8-.5-14.8-1.9.8-9.4,12.2-11.8,19.9-8.9l-5.1,10.8h0ZM188.5,805c-1.2-.3-2.9,1.1-3.4,1.1-4.7,0-11.7.7-15.9,0-1-.2-2.7-1-2.6-2.5.6-11.1,23-11.9,22,1.4h-.1Z"/>
    </g>
    <path d="M39.5,445.4c1,2.5,2.3,8.8,3.4,10.4,2.9,4.1,4.3-4.1,4.8-5.1,1-1.8,7.7-8.7,6.2-10.2-4.3-.7-5.9,4.2-7.9,6.3-.8.8-.7.9-2.1.6,0-2.1-2.8-7.4-4.3-8.7-1.6-1.4-3.8-1.4-3.6,1,0,1.2,2.7,3.9,3.4,5.6h0l.1.1Z"/>
  </g>
  <path d="M36,511.1c1.2,1.2-2.3,6.8-2.8,8.7s.7,9-2.7,8.2-1.4-7.8-.8-9.8,3.9-9.6,6.3-7.1Z"/>
  <path d="M18.1,513.1c5.9-2.6,11.8,14,7.5,14.9s-2.5-2-2.6-3.3l-4.8-11.6h-.1Z"/>
  <path d="M37,456.3c-1.2,0-2.2.5-3.1-.6s-3.8-6.9-4.1-7.7c-.5-1.2-1-2.3.7-2.6,3.7-.8,7.4,7.8,6.5,11h0v-.1Z"/>
  <path d="M59.9,447.4l-5.9,8.5-3-1.1c1.7-3.7,4.2-8.3,9-7.4h-.1Z"/>
  <path d="M41.5,517.1c3.9,0-2.5,10.4-5,9.9-3.8-.7,3.4-9.1,5-9.9Z"/>
  <path d="M449.6,466.3c-1.7,1.7-7.4-4.7-8.5-6-7.8-8.6-15-23.3-17.2-34.6s-2.3-11.7.3-12.2c4-.9,3.4,7.9,3.9,10,2.5,11.4,5.4,20.2,12.1,29.7s10.8,11.7,9.4,13h0v.1Z"/>
  <g>
    <path d="M176.4,423.6h0Z"/>
    <path d="M182.1,434.4c-.3-1-4.9-9.9-5.6-10.7-.9-.7-4.7-5.4-3.8,1.3.9,6.8,16.2,18.8-5,18.4.5,6,7.4,4.5,11.3,1.9,3.9-2.6,4.2-6.6,3.1-10.9h0Z"/>
  </g>
  <path d="M151.6,461.3c-.7-8.9,16.2-8.9,22.2-6.7s7.6,4,2.3,5.7c-8.2-5.5-16.2-2.5-24.4,1h-.1Z"/>
  <path d="M156.6,403.5c-3.2,9.3-14.7,9.2-22.9,9-3.1-2.7,10.7-3.8,12.2-4.3,3.9-1.2,6.7-4.4,10.7-4.7Z"/>
  <path d="M196.9,423.4c-.8,0-2.5,4.6-6.9,4-2.7-.4-4.1-4.4-6-4-4.1.9-2.9,6.7,5,8s11.8-8,7.9-8Z"/>
  <path d="M154.6,422.4c-1.4-1.5-5.8,4.5-8.7,4.8-3.5.4-4-3.8-7.7-3.8s.5,8.2,8.9,6.9c2.6-.4,9.5-5.8,7.5-7.9Z"/>
  <path d="M200.5,413.5c-6.1.4-16.4-.1-16.9-8,4.3.4,5.5,3.5,10.2,4.4s5.5-.7,6.3.6l.5,3h-.1Z"/>
  <path d="M96.8,423.4v-3c2,0,4-.3,6,.5,3.4,1.5,7,11.6,2,9-2.8-1.5-2.3-8.1-8-6.5Z"/>
  <path d="M234.3,443.4c-6.8.1.8-11.5,3.5-11s1.1,1.5.7,2.6c-1,2.9-3.4,5.3-4.2,8.3h0v.1Z"/>
  <path d="M229.4,443.4c-2.9,3-6-7.8-6-10,5-.4,6.6,5.9,6,10Z"/>
  <path d="M313.1,443.4c2.9,3.8-10.6,3.9-12.5-1.9s3-13.4,6.1-18c6.4-1.5-4.2,14-3,16,1.4,3.8,9.1,3.5,9.5,4h-.1v-.1Z"/>
  <path d="M311.9,451.5c2.9-.4,14.9,2.9,14.2,6.3s-5.7-.6-7-1c-6.5-2.2-10.5-.3-16.4,2.5-4.9-3.8,6.5-7.4,9.2-7.8h0Z"/>
  <path d="M329.7,406.9c1.4,1.1,1.5,2.2,4.1,3.3s13,3,10.2,5.3c-4.5,1.3-16.5-1.8-17.8-6.6s1.2-3.7,3.5-1.9h0v-.1Z"/>
  <path d="M341,425.4c-.3,8.5-13.8,9.3-15.9,1.5s4.7.9,5,1c4.3,2,6.4-3.4,10.9-2.5Z"/>
  <path d="M288.4,428.2c4.3,2.4,8.8-3.8,9.8-2.8.1,12.9-18.2,4.6-13.9,0s4,2.6,4.2,2.8h-.1Z"/>
  <path d="M295.8,406.6l2.4,1.4c-.5,3.7-13.9,10.4-14.9,6s11.2-4.1,12.6-7.4h-.1Z"/>
  <path d="M365.6,421.6c1.8-.5,2.3,0,3.3,1.4-4.3,1.8-2,10.8-6.4,9.5-3.9-1.2.3-10,3.1-10.8h0v-.1Z"/>
  <path d="M138.7,624.7l-6.5,6c-2.1.4-1.7-1-1.4-2.4,1-5.5,7.9-7.9,9.5-12.5s4.1-20.2,3.4-21l-19.4,11c-4.7-.4,8.2-9.2,9.1-9.8,2.5-1.5,10.1-4.3,11.3-5.7s.6-4.2,2.5-5.5c2.2-.6,16.4,11.3,19.5,13.3s5.5,1.6,5.9,3.1c.5,2.3-2.2,2.6-4,2-2.7-.9-19.1-14.4-19.9-13.5l-2.9,16.3c3.3,3,18.9,16,17.8,20.1s-1.6,1.8-2.5,1.5c-4.5-6.5-9.7-12.6-16.4-16.9l-3,36.9h-3v-22.9h0Z"/>
  <path d="M452.6,267c-6.2-3-10.4-1.6-16.6-1.1s-2.8.8-2.4-1.4c3.3-3.1,6.9-4,11.4-3.4s8.5,1.9,7.6,5.9Z"/>
  <path d="M452.6,225.1c-.2-1.7-.2-3.2,1.6-3.8,3.1-1.7,14.1,1.3,13.3,5.3-.6,3.1-6.7-.8-8.7-1.2s-4.2-.2-6.2-.2h0v-.1Z"/>
  <path d="M434.7,225.1l-15.9,2c-3.8-3.6,15.8-10.7,15.9-2Z"/>
  <path d="M456.5,233.2c0,3.6,2.5,6,4.8,2.1s-.7-2.9,3.3-2.2c.6,10.8-11.9,10.7-11,0h2.9v.1Z"/>
  <g>
    <path d="M0,.9v840h594V.9H0ZM536.3,352.8l-12,1c.3-2.9-.6-6.6.2-9.3.5-1.6,3-3,4-5,.8-1.4.4-3.7.9-4.5.5-.7,6.7-2.1,8.5-3,9.7-4.9,13.2-13.6,10.8-24.1,7.2-3.9,13.2-11.7,12.5-20.4-.2-2.1-2.1-6-1.9-6.9.3-1.2,2.9-1.9,3.9-3.1,8.1-9.8,12.4-23.6,0-31.9,4.8-6.7,9.9-12.7,7.8-21.7-.8-3.2-4.3-5.1-7.3-5.6-19.2-3.1-37.1,13.6-48.8,26.8-3.3-6.5-9.4-10.9-13.5-16.5,3.8-12.4,17.8-16.9,29.9-15.4,1.1-14.5,15.1-19.4,26.4-10.9,3.1-5,6-11.1,12.4-12.6,3-.7,19-1.2,19,3.1v133c-2.9-.1-4.6-2.5-7.5-2.9h0c-12.5-1.9-26.1,4-26.4,17.9-9.6-3.4-19.7.6-18.9,12h0ZM506.8,395.6c-2,.4-2,14.3-6.4,14.9-1-2.6,1.3-13.9.5-15-2.7-3.8-4.8,2.9-7.5,3l2-12.9c7.9,1.9,15,.4,22.9,0l-1,12.9c-2.5,1.5-1.6-3.9-4-1.5-1.9,1.9-1,11-6,12.5,0-4.8,4.5-10.5-.5-13.9ZM472.5,519.9h0c-2,2-2.9,8.4-6.9,1.7,0-.6,6.2-4.7,2.5-5.5-3.9-.8-6.3,3.6-6.5,7l-4.9-1c.7-7.4,10-9.8,12.1-16.7l30.7-3.2c1.9,12.9-2.7,15.5-13.3,20.1-2.3,1-12.3,5.7-11.5,1.5,3.6-3.2,1.2-7.6-2.2-3.9h0ZM419.5,497h0c-15-5.7-7.6-22.1-8.9-34.1-.9-7.9-7.6-16.7-7.9-21-.6-7,2.5-19.4,3.1-26.9.6-7.2.3-14.7,1-21.9.8-7.8,2.8-15.5,3-23.4,24.4,9,52.4,7,77.7,3v10.8c.1,0,5,1.1,5,1.1-2.6,5.8-7,20.5,4,16.9-.9,5.9-2.8,14.3,6,13l5.9,80.7c-21,8.6-67.6,8.6-88.9,1.8ZM416.8,500.3h-.1c3.5,1.7,26,3.9,26.8,5,.6,1,.3,4.7-.3,5.9-2.3,3.9-22.4,5.7-27.4,6,1.8-5.9,2.8-10.8,1-16.9h0ZM398.8,607.8l-5.5,15.9c-1.3-2.1,4.2-14-1-12.9-2,.4-1.8,14.5-7.5,13.9l2-17.9h-3c.2,3.4-1.9,8.6-6,8-1.5-8.5,2.5-16.3,3-24.4.6-9.2-1.9-19.6-3.3-28.6l-17.2-55.6-2.3,2.3,9.3,32.1-4,19.5c-1.4,2.1-23.3,5.7-27,5.9-7,.5-42.8,1.2-45.2-5.6-2-20.4-14.7-39.1-4.1-59.6-5-2.3-7.6,10.2-8,13.9-.9,9.4,2.9,16.9,2.8,23.9,0,7.4-21,39.3-26.8,45.8-1.1,1.2-2,2.8-3.9,2.5-1.5-4.5-8.7-15.8-7.8-20.2.5-2.5,8.2-13.3,10-17,9.1-18.8,14.4-53.5,28.7-67,2.6-2.4,12.5-8.8,15.7-9.3,3.5-.6,6.7,2,9.9,2.6,13.2,2.4,26.1-.8,37.6-7.4,36.4,7.5,47.3,39.5,53,72.2,3,17.4,1.2,34.5,3.4,50.4.5,3.7,2.6,6.7,2.9,11,.4,5.5-.4,12.5-4.5,16.5,0-3.3,4.1-10.2-1.2-10.9h0ZM367.8,749.2h.1c-6.5-.2-.3-7.2-1-7.9-4.1-.6-5.3,3.6-7.5,6-6.4-1.3,1.8-6.8.5-8-3.9-.3-6.7,2.1-7,6-6.1-5.1,5.9-10.7,9.5-13.9,1.8-1.6,8.1-7.6,8.1-9.5-2.7-4-25.4-32.6-22.6-35.4l28.9-3.6,17.5,35.4c2,6.6-2.1,14.6-6.1,19.9-1.9,2.5-13.5,13.7-16.4,11l3-7c-4.7-.8-6.9,2.8-7,7ZM263.5,675.2v.2c-.3-26.3,6.1-90.8,26.3-109.3l17.3,2.9c-3,4-7.1,7.4-9.5,11.9-1.5,2.9-9.1,22.2-4.8,23.1l5.4-1.1c-3.1,4.8-3.3,28.6-.5,31.9,2.8,3.3,9.3-2.3,10.5-1-.2,2.7,0,5.2.6,7.8,1.2,4.8,9,19.5,14.6,17.9,4.8-1.3,14-14.4,14.7-19.8,1.1-.8,5.2,2.8,8-.5,5.4-6.2,5.5-26.9,1.9-34.4h10c.9-8.9-1.5-16.9-5.8-24.6-.9-1.6-8.9-11.7-8.1-12.3,5.6.9,13.5-3.2,18.5-2.9,4.4.2,13.7,21.1,14.3,25.4,1,7.2-10.7,30.4,5,27.3v10.8l5,1.8c1.8,14.3,5.4,28.5,4.9,43-40.7,15.2-87,14.3-128.3,1.9h0ZM260.5,743.3h-.2c-2,0-4-.2-6,.4-3.7,1.2-2.9,5.4-6.9,4.5,0-1.6-.3-3.2,1-4.5,1.7-1.7,7-.7,6-3-1.3-3.1-9,.9-10.5,2.5,1.7-8.5,25.6-9.8,27.3-14.6l3.2-46.2,27.9,4c-.7,7.7-3.7,14.9-4.8,22.6-1.1,7.8-.2,27.8-4.1,32.8-4.8,6.2-30.1,11-37.9,8-3.6-2.1,6.2-3.8,5-6.5ZM211.3,600.7h.1c5,2.2,3.5,8.2,6.9,11.6,3.5,3.5,8.4,3.1,11.9,5,3.2,1.7,4.5,6.1,10.3,4.2,2.1-.6,2-2.8,3-3.5,1-.8,2.9-.6,4.1-1.4.3-.2,5.4-5.3,5.6-5.6,4.6-6.8-.5-16.9,1.5-21.2.8-1.7,9.1-10.6,11.3-13.7,6.8-9.7,11-19.8,16.9-28.9.6-1-.1-1.8,2.2-1.3-.4,4.2,3.6,12.7,2.8,16.2-.3,1.2-8.4,11-10,14-8.6,15.6-10.8,35.2-14.3,52.5-15.4,10.2-32.3,17.7-49.3,24.9.9-17.8-1.1-35.2-3-52.8ZM198.4,741.9h0c-1.7,2.2-.5,6.2-5.9,1.9-.5-2.4,4.7-4.5,1.5-6.5-2.7-.5-4.4,6.6-7.9,6-4.1-.7,5.1-6.4,1-8-4.2-.9-5,5.7-6,6l-2.5-.5c0-1-.2-2,0-2.9,1.2-5.2,22-15.5,20.8-20.7-.8-3.4-8.3-9.1-10.8-12.2-7.8-9.7-14.7-20.7-21-31.3l35.8-3.9c2.3,6.5,5.4,12.7,8.7,18.7,3.5,6.3,13.9,19.7,15.5,25.3,3.5,11.7-8.8,26-19.2,30.1-4.4,1.8-10.2,3.3-5-3-1.8-2.7-3.5-1.1-5,1h0ZM195.6,667.4h.1c-28.2,4.6-62.1,5.2-90.1-1.1-2.9-.6-14.2-3.6-15.8-5.1-1.5-1.5-1.1-4.9-1-7,.9-18.4,2-37.4,5.3-55.5,1.6-8.6,4.4-17.1,6.2-25.7,2.7-4.1,20.5,6.2,27.4,4-7,9.3-14.9,20.1-17.7,31.6-5.5,23.2,8,11.6,9.7,13.2-6.4,17,1.9,35.5,15.7,45.7,7.8,2.1,25.9-15.8,27.2-23.8,14.7,8.1,16.9-17.3,13.9-26.9,4.2-.3,9.3,3.9,10-2.4.9-7.5-1-15.2-3.9-22.1-2.2-5.4-6.1-9.9-8.1-15.3l24.4-5.8c12.2,28.7,11.6,61.7,12,92.6-.7,1-13,3.2-15.3,3.6h0ZM158.6,674.6c.2,1.5-1.7,1.3-2.8,1.7-6.6,2.2-13.6,3.4-20.1,5.8l2.1-8.4,20.8.9ZM129.5,735.9h.2c-.2,1.4-1,3.8-2,4.7-2.9,2.9-28.4,9.3-33.5,9.7-9.9.7-17.4-.6-4.7-6.7,1.4-.7,2.7.6,2.2-2.2-7-1.8-8.9,3.2-14.4,5-4.6-4.9,6.4-4.7,6.4-6.5-3.8-3.9-8,.2-10.9,2.5-1-1,2.2-3.9,3-4.5,5.7-4.9,16.6-6.6,22.3-10.6,1.3-.9,2.1-2.1,2.4-3.6l-.4-54.1,33.4,4c-.8,6.8-2.4,13.6-3,20.4-1.1,13.2.6,29.6-1,41.9h0ZM81.9,626.7c-3.2.8-1.5-2.8-2.4-5-.5-1.4-2.1-2.5-2.4-3.7-1-3.9,5.4-15-2.2-12.6-.7,4.9-.3,13.6-7,13.4-1.8-2.9.7-13.9-2.5-13.9-4.9,5.8-3,17.1,4.6,19.6l-1.1,6.3c-6.8-.7-10.1-12.8-10-18.4.2-7.8,6.5-18.3,8.9-26,4-12.4,6.6-26.5,9-39.3l20.9,3v15.4c0,1-7.3,15.1-8.5,18.5-3.2,9.5-4.7,16.9-7.2,26.3l-.7,3.4c-.8,3.3,3.4,8.8.6,13ZM73.9,630.7l-1-9h2.9c.7,3.4,1.9,7-1.9,9ZM87.4,437.1h.2c-.6-2.5-2.8-3.5-3.5-5.4-3.7-9-5.4-17-.6-26.1,1.3-2.4,5.3-5.8,5.9-8,.5-1.8-.8-4.3-.7-6.5.7-9.1,3.6-17.4,12.1-21.9,3.6-1.9,9.1-1.9,10.9-3,.5-.3,4.7-6.5,7.5-8.5,11.9-8.5,24.5-10.9,38.6-6.7,2.5.8,5.5,3.2,7.5,3.5,3.1.5,8.3-1.6,11.7-1.6,8.5,0,25.6,5.5,28.2,14.5.5,1.6-.2,4.1.4,5.1.3.4,6.4,3.1,8.2,5.2,8.3,9.6,4.9,24.9-3.9,32.8l-2.5-19.9c-7.9,1.1-17.3,2.9-20.9-6h-1.5c-3.8,7.6-14.7,9.5-21.4,4.4-2.1-1.6-2.8-4.5-4.5-4.5-3.4,0-3.2,2.7-5.8,4.3-2.6,1.7-8,3-11.2,2.8-6-.4-9.9-5-15.5-6,.3,7.3-2.2,15-6.5,20.9-1,1.3-3.3,1.9-3.5,2.7-.8,3.5.6,9.2-2,13.2l-7.9-10.5c-6.1-5.2-15.3-.9-18.8,5.2-7.3,12.6,3,30.6,17.7,29.3-.4,6.3,4,10.5,6,15.9-6,1.5-8.3-6.4-10-7.5-1.6-1-5.8-.8-8.7-2.3-7.6-4-4.1-9.4-5.5-15.4ZM71.9,304.8c-1.8-8.3-8.8-9.1-16-7-2.3-15.7-22.5-14.6-29.1-1.7-.8,1.4-.5,4-.9,4.5-.2.3-4.5.9-6.3,2.2-3,2-3.2,5.4-3.6,5.8-1,.9-8.7-1.2-10.8,2.1v-111.6c10.8-2.2,24.4-.1,30.9,9.5-15.8,8-18.5,25.6-1,33.9h-.1c-10.4,16.1,12.3,29.9,26.5,22.7,8.3,13.3,22.2,13.3,34.9,6.1,8.1,10.4,19.2,11.9,30.7,5.8,10.5,11.1,7,27.7,7.6,41.7-9.4-1.5-13.3,2.3-17.4,9.9-4.4-4.4-10.3-5.6-15-1-3-5.5-5.7-8.5-12.4-9,1.6-10.2-8.3-19.6-18-13.9ZM37.3,201.7h-.2c-1.9-15.2,15.4-24.8,28.8-20.4-1.8-12.9,3.7-20,17-17.4,1.4-8.7,1.1-16.3,10-21,7.6-4,13.4-2.8,20.9.4,0-16.9,22.5-23.3,34.3-13,4.7-4.4,7.1-8.1,14.1-8.9,12.2-1.3,21.8,1.7,25.9,13.9,5-5.3,20.6-7.2,25.9-3,1.6,1.3,3.1,5.5,3.7,5.8,2,1.2,9.6-2,13.2-1.8,11.4.5,15.9,8.6,16.5,19,11.1-5,28.7,4.1,22.7,17.2-.9,2-4.2,3.1-1.8,5.2,16.1-.2,27.3,11.8,17,26.8,2.9,2.4,6.3,1.2,9.9,3.1,11.9,6.3,6,16.3-3.9,20.9l9,8.2c4.9,11.6-4.8,20.4-15.7,22-2.3.3-6.2-.7-7.5.1-1,.6-2.6,5.2-4.2,7.1-6.1,7.5-14.1,5.5-21.9,1.9-2.9,8.5-12,11.6-19.8,7.1-1.4-.8-.6-3.1-4.2-3.1s-1.7,2.2-3.5,3.6c-4.1,3.1-11.1,4-14.9,0,4.8-2.5,10.5-11,15-12.9,5.9-2.6,14.4-2.9,22.1-6.8,3.9-2,11.3-8.5,13.7-9.3,3.1-1,12.9,3.4,10-2.9-5.5-.3-9.5-1.7-12.2-6.7-4.4-8.2,3.2-5.8,2.2-10.2-.7-3.2-6.3,1.7-7.8,2.2-3.5,1.1-7.5,1.4-10.7-.7-1.9-1.2-4.2-6.4-5.9-6-5.8,16.4-43,15.6-35.4-6-4.8.4-8,3.7-12.9,4.5-9,1.6-14.2-.6-20.7-6.4-8.1,7.1-21.8,10.5-31.9,6.1-2.1-.9-3.1-3.7-5.7-3.2-4.8,11.3-19,10.7-28.9,6l-1.5,2.5,5.9,2.6c1,6.6-8.3,10.1-13.7,10.7-7.3.8-11.6-3-18.2-3.8-2.3,2.4,6.1,6.3,7.7,6.7,6.4,1.8,13.1,1.1,19.2-1.3,2.7,4.6,5.6,8.9,9,13,2.3,2.8,16.6,17.8,16.9,19,.7,2.9-8.5,4.4-10.4,4.4-8.1,0-12.7-5.9-16.9-11.8-9,9.3-30.9,11.2-32.4-5.1-2.8-.4-4.2,2-6.7,2.8-6.9,2.1-16.8-.2-20.6-6.8-4.3-7.6,3.6-15.2,2.4-16.8-19.3-2.6-15.7-24.5,1-26.9,0-4.2-3.4-6.3-3.9-10.6h0ZM341.1,235.6h0c1.1-9.9,5.7-22.4,12.7-29.8.8-.8.7-.9,2.1-.6,2.8,13.4,15.7,21.7,15,36.3-.4,8.2-6.8,19.8,8,9.5,2.9,9.3,2.4,16-1.5,24.9-.8,1.9-6.8,12.3-9.5,10,0-2.5,2.3-4.3,2.8-6.7,1.3-6.6-4.2-10.9-6.1-16.4-2.5-7.5-.8-15.4-3.9-23-.8-2-8.1-12.6-9.3-12.6-2.9,4.4-.8,10.1-2.2,15.7-1.5,5.9-6.5,10-9,14.9-5.5,10.6-6.2,20.8,2.7,29.6-13,.2-18.8-16.5-17.8-27.8.3-3.3,3.5-14.2,6.4-15.6,1.8-.8,2.4,4,5.2,4.8,6.5,1.8,3.9-8.9,4.4-13.2h0ZM386.8,420.8l-16.9-39.2c7.8,3,13.9-1.6,20.6-4.8l16.3-15.1-6,64.8c-1.5,1.5-11.9-4.4-14-5.7ZM399.8,438.3h0c-1.5,1.8-8.8-10-8-10.9l7.5,2.9.5,8ZM367.9,371.6l7-3c2.1,16.4-8.2,4.4-7,3ZM373.7,365.5c-5.6,3.6-10.9,3.9-10.7-4.4,0-2.7,6.5-8.4.9-10h0c-1.7,2.3-1.4,4.7-4.5,5.6-5.5-6.8,4.1-12.4,9.5-7.5,2.1,1.9,6.2,14,4.8,16.3h0ZM359.4,366.6v-1c.6.3.6.7,0,1ZM352.9,352.6h0c-16,5.2-8.4-5.9,3-4.9-4.2,5.8-2.4,10.1,3,13.9-4.5.9-7.1-1.4-11-3,1.4-2.5,6-1.4,5-6ZM335.1,343.2h-.1c-2.4-1.3-2.1-4.1-2-6.5l44.8-1.9c.6,2.4,1.3,4.6-.9,6.4-4.5,3.6-36.5,4.8-41.8,2ZM376.4,331.2c-3.6-.3-6.9.6-10.5.5,1.3-6.7-1.7-20.7,0-26.4,1.3-4.5,9.9,2.7,12.2,2.4,2-.3,9.4-5.7,13.1-6.9,1.8-.6,10.6-2.6,11.5-1.9-2.8,5.5-17,33.6-22.4,33.8-1.3,0-2.7-1.4-3.9-1.5h0ZM362,293.5c0,12.9-.2,25.6,1,38.3h-7l-1-41.8c-.9-.4-3,.9-3,1.5v41.4c-2.4.2-4.8.3-5-2.5.1-12,0-23.9,0-35.9,0-2.1,1.2-4.2,1-5.9-.3-3.1-5.2-6.2-6.3-9.7-5.6-17.8,11.7-23.8,12.3-39.2.4-1.5-.7-1.7,2-1.5,4.4,7.7,2.8,16.1,4.4,24,1,4.7,6.4,10.4,6.6,13.4.4,6.3-5.9,10.3-6,12.9,0,1.3,1,3.2,1,5ZM330,285.4h0c3.7,3.9,8.7,5.6,13,8.2v39.2c-5.4.7-13.1-2.7-14,4.4-1.2,8.6,4.2,11.3,12,10.5l-1,7c-8.2-3.5-16.5-4.7-25.4-4-2.9.2-6.7,2.2-9,2s-2.9-2.5-4.6-3.4c-6.1-3.2-12.6-3.8-18.8-.6.4-8.1-7.1-10.3-13.9-8-1-7.5-8.4-8.7-15-7.9,2.2-10.4-8.8-17.9-17.9-13,.2-9.8-8.1-12.7-15.9-8,1.2-10.4-8.8-16-17.9-12.4-5.4,2.1-7.8,7.5-13,9.4,1.1-12.9,5.5-22.8,16.7-29.8,1.8-.5,4.1,1.9,6.2,2.5,9.9,2.4,13.2-4.6,16.5-4.5,1.3,0,5.2,3.2,8.2,3.7,11.6,1.9,14.9-7.1,17.7-7.4,1.2,0,4.7,1.8,7.9,1.7,4.2-.2,11.8-3.3,14.5-6.5,1.3-1.5,2.8-6.1,3.1-6.3,1.2-.7,14.2-.3,17.3-3.1l26.1,14.1c2,2.2,3.8,8.7,7.2,12.2h0ZM249.6,472.5h0c.9,6.2,5.3,13.3,5.7,19.2.5,5.9-1.7,12.1-.9,18.8.6,4.6,4.8,10.5,4.7,12.8-.1,2.7-6.5,18.4-8.1,21.9-2.4,5.5-5.8,12.2-9.7,16.7l-7.8-22.7,2.7-6.5c-9.4-22.4-19.9-46.8-41.7-59.5v-1.4c14.9-14.4,15.3-36.2,15-55.6l10.9-14.2,42.9,4.5c.4,5.8-.4,11.3-1.5,17-3.2,17.4-14.8,30.5-12.2,49h0ZM247,607.9h.1c-.2,1.3-1.2,5.5-2.7,5.8,1.8-8.9-6.4-14.6-14.3-15.8-5.7,2.4-4.3,9.5-8.7,12.8-5.4-7.4,1.5-11.2,2.7-17.7,2.2-12-9.1-32.3-13.7-43.6,0-1.4,11.9-4.7,14.2-5.7,1.7-.8,4.8-4.8,6.2-2.7,4.1,10.4,6.3,22.4,10,32.8,3.5,9.7,10.4,17.3,10.4,27.9l-4-1c0,2.4.2,4.8-.2,7.2ZM238.8,605.8c2.2.4.9,2.2.3,3.3-.9,1.7-3.5,5.7-5.8,5.7.3-1.9,3.2-9.4,5.5-9ZM226.4,612.8c-.3-2.8,4.2-14.5,8-10.9,1.3,1.2-6.1,12.9-8,10.9ZM239.8,615.8c1,.7-.5,1.3-1,2l-.5-.5,1.5-1.5ZM240.3,612.8c.3-.7,1.7.6,1,2-.3.7-1.7-.6-1-2ZM215.4,599.8c-.5-3.6,1.1-6.4,5-6-1.7,1.8-1.9,6.1-5,6ZM237.8,389.6l.5,11h-3c0-3.7-.3-8,2.5-11ZM243.3,400.5l6-6c0,4-1.6,6.7-6,6ZM263.2,403.4h0l-11.9-.9c-1.2-1.1,7.2-10.3,1.3-11.8-4.5-1.1-9.9,5.3-10.2,4.8.4-20.5-11.6-8.3-11,4l-10-1c2.1-6.4,1.5-14.5-2.2-20.3-2.4-3.8-7.1-6-9.3-8.7-1.5-1.9-1.7-4.7-3.1-6.9-3.9-5.9-10.6-8-15.9-12,0-9.3-2.2-19.2-2.5-28.4,0-2.2-.3-4.4.6-6.5,1.6-3.9,10.1-11.6,14.4-12.5,11.3-2.4,13.1,4.8,12,14.5,1.7,1.7,7.8-6.5,14-3.5,5.5,2.7-2.8,10.6,1.5,11.5,1.8.4,9.3-8,15.8-1.9,4.7,4.4,1.9,8.2,1,12.8-1.1,5.9,5.1.7,7.3.3,13.8-2.9,8.2,9.6,9.2,10.7,3.4.7,4.6-3.2,7.7-3.8,10.4-2.1,5.1,8.5,6.3,9.8,8.1-3,15.9-7.4,22.9.5-20.9,7.6-35.8,27.1-37.9,49.3h0ZM186.4,349.8c-2.8.5-5.9-.5-8.5-.4-3.5.1-9.2,1.6-11.9,1.4-8.3-1.2-18.8-9.8-29-4,.6-16,2.6-32.3,1.6-48.4h0c-1.5-22.9-16.1-31.2-28.3-47.5-1.6-2.1-7.9-10.5-7.5-12.2,4.1-2.4,3.2-10.2,8.2-8.5,1.2.4,5.6,8.8,7.2,10.8,5.7,7.2,13.8,15.3,23.3,16,2.7-5.1-8.8-29.9-7-31.9l17.8,1.1c2.2,6.7,4.1,13.4,7.9,19.5,5.6,8.8,7.3,8.5,12.9-.3,5.2-8.1,6.1-21.3,17.1-22.2-1.9,7.2-5.2,14-7.2,21.2-1,3.7-6.4,21.1-2.1,22.5,11.8,1.2,24.9-7.5,32.8-15.8,4-4.2,9-13.6,12.8-16.6,2.1-1.7,6.1-2.3,8.1-5l3.5,2.2c-1.9,2.6-12.7,14.5-9,17,8.6,1.1,17-4.6,24.5-8.3,4.7,2.9,1.3,4.7-1.8,7-6.5,4.8-14.6,8.2-22.2,10.7-3.3,1.1-6.8.6-9.8,2.2-3.3,1.7-27.7,25.2-29.9,28.9-9.4,16.1-2.5,42.6-3.6,60.6h.1ZM137.8,252h0c-9.6-3.1-16.2-12-20.9-20.4l14-8.5c-1.8,4.7,8.8,26.8,7,28.9h-.1ZM157.1,224.1c.4-.6,8.4-4.7,9-4.6,1.6.1,9.1,6.3,12.5,5.6.7.9-8.4,17.4-9.8,19.6-.6,1-1.1,2.7-2.7,2.3-1.8-.4-11.2-19.5-9-22.9h0ZM201,233c6,4.8,11,4.2,18.4,4-5.2,11.3-17.4,21.3-29.2,25.1-1.4.4-5.3,2.3-6.2.8-.6-13.1,6.3-24.6,9.5-36.9h0c1.2-1,5.9,5.8,7.5,7ZM241.3,233.6c3.4-2.1,15.6-.4,9.3,4.4-1.6,1.2-16.6,7.8-17.3,7.1-.6-.6,7.3-11.1,8-11.5ZM108.6,443.5c-18,4.3-25.9-28-9.1-29.8,9.3-1,9.2,13.4,14.6,12.8,5.9-.6,5.6-12,6.7-15.4.4-1.3,2.2-1.4,2.8-2.4,3.2-5.1,6.1-11,6-17.2,9.4,4.3,21,5,29.3-1.9,5.8,6.4,14.3,7,22.1,4,1.8-.7,3.5-3.2,4.8-3,.8,0,2.4,2.5,3.9,3.1,5.2,2.3,9.3,1.7,14.7.8,1.6,20.5,4.5,52.4-8.6,69.7-22.8,30-80.6,16.4-87.2-20.7ZM169.8,487.1c-14.3,10-28.3,3.7-38.1-8.9,3.1-.4,4.9,2.1,7.5,2.9,10.9,3.5,22.1,3.6,33.3,2,1.1.8-2.3,3.6-2.8,3.9h0l.1.1ZM126.6,474.5c5.9,19.5,32,28.9,47.6,13.7,2.5-2.3,4-5.5,6.5-7.4,2.7-2.1,6.9-2.9,9.7-5.4,4.8-1.2,19.9,16.2,23,20.5,8,11,14,24.5,18.6,37.2-6.5,7.7-16.9,10-26.4,11.9-.5-2.2-1-4.5-1.8-6.7-2-5.1-6.9-17.1-9.7-21.2-1.1-1.5-2.5-2-3.9-3-1,.8-1.37,1.8-1.1,3h-.2c1.7,6.7,10.3,17,11.5,24.4.5,2.9,0,25.3-1,26.3-26.9,7.3-57.4,9.1-84.9,3.8-3.2-.7-13.1-3.1-13.7-6.2-.5-18.6,3.1-37,6-55.3h-3.9l-5.1,34.8c-3.7,1-25.2-1.2-24.4-6,6.2-21.4,11.7-49.2,33.8-59.9,3.2-1.6,17-7.3,19.4-4.5h0ZM168.1,642.6h0l-7.5-3.5c-3.6,11.2-11.9,21.2-23.4,24.4-8.6-6-16-18.4-16-29.2s3.6-12.1,3.6-18.6l-11.9,4c-.3-15.9,9.2-29.7,18.9-41.3h37.9c7.9,9.9,14.1,22.3,12.9,35.4l-12-2c3.3,10.2,5.2,22.1-2.5,30.8h0ZM88.3,607.8c.6.3.6.7,0,1v-1ZM202.5,568.4c1.8-6.5,2.4-12.6,2-19.4h3l13.1,37.4c0,4.9-11.6,5.8-9.1,13.4h0l-8.9-31.4h-.1ZM310.6,591.8l11.5-8c-.9,4.3,0,11.4-1.2,15.2-.8,2.9-10,9.1-11.8,12.1-.8,1.3-2.2,6.7.5,5.5,1.9-.8,7.9-10.9,11.5-11.9.9,9.2-1.2,20.4,0,29.4,0,.8,1.4,2.1,1,3.5,1.9.3,2.7-.8,3-2.5.7-3.9-2.6-21.2-1-23.4,2.6-.3,13.3,14.8,14.9,12.9,1.6-7.2-14.2-15.1-14.9-19.5l2-22.4c1.7-1.5,10,10.6,13.9,9,2.3-2.3-11.7-12.8-13.8-14.1l.9-7.7c3.4.2,7-1.7,10.3-1.1,6.3,1.1,19.2,25.6,16.5,32.9l-11-1c2.5,9,6.7,25.6.9,34.3-2.9,4.3-5-2.3-8.5.5-2.7,2.2-5.6,18.3-13,19.9-2.3.2-8.6-11-9.3-13.3-1.5-4.4,0-12.5-1.4-14.5-1.8-2.9-8.1,3.9-10,5-6.7-11.1-2.1-22.6,1.5-33.9l-8,.5c1-4.5,1.5-8.2,3.5-12.5,1.4-3.1,10.4-16.4,13-16.9,1.6-.3,8.5-.3,9.8.2,2.7.9,1.1,8.1,0,9.8-1.2,2-11.8,7.1-12.4,10.5-.3,1.5,0,1.8,1.5,1.5h.1ZM367,563.2h.1l1.8-16.2,5.3,17.1,2.6,14.8-9.8-15.7h0ZM358.5,422.3c10.3-18.9,22.2,5.3,10.9,15.1-3.2,2.8-7.2,1.2-9,2.9-1.5,1.5-1.1,4.9-2,6.9-11.3,24.7-45.7,34.6-66.7,16-15-13.3-15.9-34.3-13.5-53.1,12.2-4.7,24.9-9.6,35.3-17.8,1.7-1.3,11.2-12,12.6-10.8,2.9,11.7,15.1,21.5,25.3,27.1,3.3,1.8,6.8,4,10.6,3.8-2.5,3-7.8,5.5-3.5,9.9ZM349,466.3c2.7-3.9,7.3-7.6,9.8-11.6,1.5-2.4,3.6-9.4,4.6-10.3,1.1-1,4.2-1.4,6.2-2.7,8-5.1,10.9-16.2,6-24.4-3.6-6.1-19.4-9.2-26.4-13.5-6.8-4.2-17.1-14.5-19.8-22.1-.9-2.5.6-6.8-3-7.1-3.5-.3-4.7,4.7-6.9,7.1-8.4,9.3-26.9,20.9-39.1,23.6-2.1.5-4.2.2-6.2.2-1.9,19.1-2.5,42.8,11.4,57.8,1.6,1.8,9.7,6.3,8.5,7.9-9.5,2.2-16.4,9.8-21.9,17.5l-12,28.4c-2.7-7.6,0-16.7-.3-24.1-.2-5.6-3.9-11.3-5.2-16.7-5.3-21.1,9.8-36.2,12.2-56.6.9-8.1-.3-14.9,1.5-23.4,8.2-37.8,54.9-55.7,84.9-29.7,16.6,14.4,21.9,40.6,32.2,59.4,7,12.7,20,23.1,21.1,37.7.7,9.1-2.6,16.8.3,25.6,1.2,3.6,4.7,7.8,5.4,11.5,2.2,11.5-1.7,21.3-13.7,24.2-8.6-31.5-16-49-49.6-58.7h0ZM485.4,369.1h0c-1.7.8-17.4,2.3-20.5,2.5-17.4,1-38,.3-54.4-5.6v-7.4c25.3,5.6,51.3,4.7,76.8,1,0,2.8,1,8.1-2,9.5h.1ZM491.6,380.4c-.2-21.8,0-44.6-4.1-66.1-.3-1.7-1.2-2.5-2.5-3.5-3.9,4.4-.1,10.8.4,15.5,1,9.4,1.5,19.1,1.7,28.4-24.2,6.4-51.7,5.2-76.2-.2-.8-1,.6-17.4.9-20.3.8-7.5,3.5-16.9,3.7-24.2,0-4.8-3.4-3.8-4.5.5-3.1,12.3-1.7,29.6-4.6,42.2-2.2,9.5-18.5,23.9-28.5,24.8,2.8-10.7-.5-23.2-7-31.9,3.2.2,8.1-.5,10-3.4,1.2-1.8,1-4,2.1-5.9,1.6-2.8,6.4-6.7,8.8-10.1,5.3-7.6,18-36.1,24-38.9h0c3.4-1.4,6,3.9,9.2,5.8,15.1,9,36.4,5.7,48.6-6.6,2.4-2.4,6.1-9.8,9.2-9.4.9,0,8.3,5.4,9.6,6.4,14.3,11.9,22,34.3,25.7,52,1.2,5.6,6.5,41.7,4.8,44.1-3.7,2.9-29.5,2.9-31.3.8h0ZM399.3,268.7h.2c-.3-2.3-4.5-6.7-5.3-9.7-2.2-8.7,6.3-14.4,9-20.9,4.1-9.8,1.1-20.8,7-31.9,12.7-24,46.3-29.4,68.6-15.7,19.8,12.1,11.2,31.8,23,45.3,4.3,5,8.9,5.8,8.7,14.8-.2,7.3-5.7,10.4-6,12.1-.1.7,4,6.7,4.5,9.3,1,5.4-1.8,11.8-6.3,14.9-2.2.6-9.7-7.4-12.3-9.3-1.6-1.2-7.5-3.1-7.7-5,13.2-20.2-7.6-33.9-5.7-54.4-12.3-2.9-21.8-7-30.5-16.4-3.1-3.3-5.3-11-9.4-5.4-3.3,4.5-3.4,8-8.6,12.4-5.4,4.6-11.2,4.9-15.8,9.1-.6,9.2-.6,18.5-1.2,27.7-.2,3.1-1.8,5.9-2,9-.8,10.6-.4,20,5,29.4-4.7,2.3-6.9,6.6-12.5,2.1-5.9-4.8-2.2-12.4-2.7-17.4h0ZM416.9,219.3c10.2-2.8,18.2-9.9,23.3-19.1,7.6,11.1,20.2,18.7,33.3,21,0,10.2,5.1,15.8.6,25.9-7.4,16.4-16.7,3.2-29.5,4.9v-4h-6l2-13c-3.2-3.2-7.3,9.6-5.3,13.7,1,2,3.1,1.5,3.3,3.2-3.9-.9-10.2,3.7-13.2,2.9-.8-.2-7.7-6.9-8.1-7.9-2.9-6,.7-20.4-.4-27.6h0ZM425.3,259h0c3,.4,9.2-3.2,13.1-3.7,2.8-.4,6-.5,8.8-.3,11.1.8,16.3,9.8,25.9,0,3-3.1,3.2-5.7,5.2-8.7.6-1,0-1.8,2.2-1.3,4.6,9.4,3.1,15.5-.8,24.6-16.8,40.5-77,28.5-64.9-18.6.5-.5,7.2,7.5,10.5,8h0ZM522.4,340.6c-2.5-17.7-7.9-35.5-18-50.3l.2-1.3c10.2-5.8,10.8-16.4,5.4-26,4.2-5.8,5.5-12,10-17.8,8.7-11.2,27.9-25.2,42.7-22.9,12.5,1.9-1.9,20.8-6.5,25.2-4.5,4.3-9.1,6-13.9,9-4.7,3-3.4,5.3,1.5,3.5h0c3-1.1,9.2-5.4,12.1-7.4,1.4-.9,2.2-4.4,5.6-3.5,1.5.4,4.1,3.7,4.8,5.3,3.9,9.9-5.1,21-13.3,25.7l-14.7,5.3c1,6.9,16.9-3.4,17.9-2.5,5,17.5-12.4,25.5-26.9,26.9.5,5.8,10.9,1.5,14.5,0,5.1,8.7-1.4,15.8-9.2,19.6-2,1-7.1,1.8-8,2.5-1.5,1.3-.9,7.9-4.2,8.7h0ZM5.3,5.9h583.8v181.4c-8.3-1.9-17.6-3.5-25.4,1-3.2,1.8-6,7.4-8.2,7.9-1.6.4-3.4-1.6-5.7-1.9-10.3-1.5-19.1,5-21.6,14.8-9-.8-16.1,1.8-23.1,7.3-1.7,1.3-2.8,4.8-5.1,4.8-3.4-22.7-15.5-37.7-39-40.7-25.4-3.3-51.9,7.5-58.1,34.4-1.6,6.9-.6,14.1-3,20.9-3.6,10.1-11.8,10.7-8.6,25.4.7,3.3,3.6,6,4,7.8.3,1.6-.8,4.4-.6,6.6.8,7.8,3.1,15,12,15.9-.9.7-.7,2-1.7,2.5-3,1.6-12.4,2.2-17.5,4.2-2.6,1-8.8,5.5-9.4,5.6-2.2.4-8.6-5.5-12.3-3.8-1.8-10,3.7-8.6,9-13.4,11.3-10.4,12.8-31.2,3.5-43.3l-5.5,7c7-16.4-4.7-26.4-11.2-39.2-1.3-2.5-3.9-15.2-7.7-12.6-.7,4.5-5.1,7.5-7.4,11-6.4,9.6-10.6,18.9-9.5,30.8l-4.4-3.9c-8.4,8.8-12.1,19.7-12,31.8l-21.4-12c9.6-9.1,7.3-19.7-2-27.9,11.2-3.9,10.8-16.7,1.3-22.8-1.8-1.1-6.8-2.3-7.2-3.7,6.1-13.4-4.1-26.1-18.1-26.3,6.6-15-7.1-26.6-21.8-25-2.8-14.1-18.3-21.8-31.4-15.7-6.8-11.8-20.3-10.3-30.9-5-5.7-13.6-25.6-14.6-37.4-8.5-1.6.8-2.5,3.3-4.5,3.4-1.9,0-4.5-2.5-7.1-2.9-12.4-2-25.5,3.4-29.4,15.8-14.6-4.4-30.4,5.7-31.2,21.1-9.6,1.4-18.4,7.1-17.5,17.9-14.5-.8-27.4,8-28.9,22.9-9.3-2.4-18.2-7.1-27.9-3v-105.6h132.1c3.5,0,4.9-5.3,4.4-8.4-1.7-11.1-19.1-17-28.8-13.6-2.5-14.8-16.1-18.4-28.9-13.9-5.2-23.1-39.7-23.9-49.4-3-9.9-7.1-20.3-3.4-29.3,3V5.9h0ZM5.1,60.3h0c5.9-8.1,18.6-9.8,27.3-5.4,1.8.9,2.8,3.6,5.6,2.8.5-20.1,35.3-22.4,41.4-5,.9,2.6-.3,5.8,2.5,7.6,1.4.7,9-3.5,12.5-3.6,9.6-.2,15.6,7.8,14.4,17,3.2.5,5.4-1.6,8.4-2,9.6-1.2,21.6,3.9,20.4,14.9l-7.4,1.1-125.1-1c1.2-6.9-1.7-20.5,0-26.4ZM4.9,315.6c1.5-4.8,11.5-2.4,14.9-1.5l.3-.3c-1.1-10.1,3.2-9.6,11-7-6.1-18.8,23.5-24.1,21.9-3,5-1,10.8-6.6,14.8-.3l-.9,6.3c5.2.6,9.3-5.1,14.5-2,8.2,4.8,1.4,14,2.4,15,5.1,0,13.2-1.3,13.9,5.6.3,3-2.7,6.2.5,8.4,4.2-3.9,7.8-10,14.4-7.4l6.5,6.4c3.1-6.8,4.6-16.3,14.5-13.5,2.6,1.8-.9,20.6-.5,24.5-6.7,2.8-13.6,5.5-19.1,10.3-1.6,1.3-3,5-5.4,6.1-2,.9-4.8.8-7.2,1.8-11.4,4.5-18.6,17.5-16.7,29.7h-15.9c3.7-4.9,9.1-10.7-.6-11.9-7-.8-13.7,2.7-19.1,6.5-1.3.9-.8,2.5-2.2,2.3l4-17.9c6.7,4.2,15.3,4,16.9-5,10.3,3.7,17.6-9.7,8-15.4,7.6-6.3,4.3-16.5-5.6-17.4-1.9-.2-4.1,1.2-5.4.5-1.4-.7-2.6-4.2-4.5-5.6-6.6-4.8-16.7.4-14.5,9-7.7-2.5-15.3,4-12.7,12.3.6,1.8,3.2,2.8,3.6,4.4.5,1.9-1.4,4.6-1.4,6.8,0,5.9,6.1,9,11.5,8.5.5.4-2,11.2-2.5,12-1.4,2.3-4.3-4.3-5.5-5.5-6.6-7.1-19.5-11.3-15.9,2.9,1.2,5,5.2,8.9,6.9,13.6l-24.9,1v-80.2h0ZM66,393h0c-4.8,5.1-13.1,7.4-19.9,7.5,1.3-4.5,5.8-9.3,10.1-11.4,5.8-2.8,18.2-5,9.9,3.9h-.1ZM49,344.7c0-4.3-1-11,4.5-12,8.4-1.4,6.7,8.5,8.9,9,3.6-2.3,7.3-2.8,11.4-1.5,7.6,7.3-5.6,10.6-5,12.9.4,1.6,10,2.1,7.1,9-3,7.1-10.1.4-11.1,1.5,1.8,10.5-11.9,12.2-12,2-3-.8-4.9,2-7.4,2.1-7.2.2-8.4-8.7-2.5-11.5v-2.5h0c-13.2-2.4-5.1-15.6,6-9h.1ZM43,399.5c-6.6,1.6-19-21.9-16.9-23.9,11.5,0,16.9,14,16.9,23.9ZM5,399.3c1-1.1,26.3-1.6,29.4-1v.2c3.4.6,7,5.8,13.1,6,7.8.3,12.4-5.1,18-6,5.3-.8,11.9.5,17.4,0-.9,3.4-3.3,5.3-4.5,8.9-2.3,7-2,16.3.7,23.2,1,2.7,4,5.5,4.5,7.4,1.6,6.3-1.9,10.2,4.9,16,3.9,3.4,8.6,2.7,11,4.4,1.6,1.1,3.2,5.5,6.5,6.9,4.5,1.9,10.3-1,13.7,4.2,0,.9-10.3,3.9-12.1,4.8-27,12.5-30.9,39.3-38.7,65.1-.4,4,1.4,4.5,4.9,5.5-3.3,14-5.8,28.9-10.4,42.7-2.7,8.1-8.4,16.3-8.5,25.5,0,5.7,4.4,18.7,10.3,20.6,1.3.4,9.6.6,10.7.3,2.6-.6,6.7-5.3,9.9-5.6,1.1,1.3-1.9,28.1-1,33.4.9,4.7,9.7,2.9,10.8,6.1v22.2c-31,8.5-63.5,16-90.6,34v-324.8ZM5.1,835v-106.1c26.7-18.1,59.6-26.5,90.7-34.4l.6,28.9c-4.4,3.8-29.3,10.9-27.4,18.3,11.3,17.7,29.1,13.1,46.3,7.7,5.2-1.7,16.2-5.2,18-10.9,2-6.4,0-23.5.4-31.5,0-3,1.5-20.2,2.2-21.2l28.2-8.2,30.2,39.6c.4,4.9-24.1,14.4-19.3,24.2.9,1.9,7.9,4.1,10.3,4.8.8.2,8.3,2.2,8.8,2.2,2.8.3,4.1-1.7,4.9-1.7,11.5,8,33.7-16.4,33.5-27.7.3-8.7-11.6-22.5-16.2-30.7-1.8-3.1-9.5-16.5-8.7-19l6.8-2.7.3-9.7c17.1-5.7,33-14.3,48.7-23.1-.9,6.1-2.3,12.3-3,18.4-.7,6.4-2,16.9-1.9,22.8,0,5.5,8,3.9,11.9,6.1l-2.5,44.3c-.6,5.8-33.8,7.7-27,20.8.7,1.3,11.6,7,13.4,7.5,8.1,2.4,36.6-2.1,41.3-9.6,3.6-5.7,2.6-17.3,3.7-24.2,1.6-10.5,4.1-21.1,6.3-31.5,1.6-2.3,7.3,0,10,0,5.3.2,10.7,0,16,0,3.8,0,9-2.5,11.9,0,1.3,1.1,7.9,13.8,10,16.9,3.7,5.4,8.4,10.4,12.3,15.7-2.8,7.9-22.4,14.9-18.3,24.2.9,2,7.7,4.5,10,5,2.2.5,9.3.2,11.9.5,2.9.4,3.3,2.6,8.4.9,7-2.3,19.8-18.7,20.9-25.9,1.6-10-5.4-16.2-9.4-24.3-3.3-6.7-5.8-13.8-9.5-20.4,0-.9,14.4-3.2,15.8-7.1l-5.6-43.7c15.9-7.2,19.2-14.5,17.7-31.8-1.1-13.4-1.6-27.3-3-40.9-1-9.4-3.2-18.5-5.1-27.8.2-1,4.9-1.9,6.4-2.8,2.2-1.3,4.5-5.1,6.3-5.6,3-.9,9.4-.7,13.4-1.5,8.8-1.7,24.2-2.3,21.7-14.6h16.9c-2.7,6.1-14.2,9.7-10.4,17.9,1.9,4.2,6.2,2.9,8.8,3.4,14.3,2.7,18.5,4,32.2-4.2,10.3-6.2,9.1-10.9,8.4-22,2.3.1,8-1.4,8.8-3.7,1.1-3-2-12,.7-12.3,45.2,21.2-1.7,41.2-21.3,55.4-45.4,32.7-37.8,58.7-44,108.5-12.1,98.1-123,148.8-201.8,186.8H5.1ZM516.4,426.8c6.5-8.3,16.8.7,17.9-.5-.7-16.9,10.7-24.8,25.4-14.9,1.3-.3,2.7-9,3.8-11.2,4.2-8.6,17.9-13.3,25.7-7.2v89.2l-11-3c-.3-.4,6.5-6.2,3-8.5h0l-10,.5c5.1-18.9-6.9-24.1-12-5l-6-10.5c-12.5-9.3-5.5,8.5-7,10.5-6.1-3.2-16.5-10.6-14.9,2l-20.9-3-2-30.9,7,3c-.2-4.6-2.2-6.4,1-10.5h0ZM577.2,474.3c-1.7,3.1-3.5,4.7-7,3,.9-2.2,4.8-3.2,7-3ZM566.2,476.3l-6-1.6c1.2-5.7,3.1-12.4,7.5-16.3,4.1,0-2.3,15.7-1.5,17.9ZM557.1,473.8c-1.1,0-4.4-.4-4.7-.7-1.1-.9-3-13.3-3.2-15.8,4.7,3.9,6.1,10.9,7.9,16.5ZM546.3,471.3c-5-.8-11.3.2-12-6,1.4-1.1,11.2,3.5,12,6ZM254.2,835c293.3-134.5,143.3-216.7,235.3-289.4,11.5-8.7,41.8-23.8,45.3-37.4,3.9-15.1-11.1-23.6-23-27.9l-1.4-11c26.8,1.8,52.3,11.4,78.6,16v96.6c-21.3-2.5-38.7,15.4-35.8,36.8-21.3-2.4-38,18.8-29.8,38.8-16.6-6.8-35.6,5-39.6,21.7-1.4,5.7.2,10.7-.7,16.3-6.5,1.6-10.8.3-17.5,3.4-11.2,5.3-17.9,16.9-14,29.4-16.5-.8-30.7,14.3-24.9,30.9-14.3-.6-27.7,11.3-23.9,25.9-18.9-1.4-37.6,15.4-30.9,34.9-7.5,1-15.1,6.8-15,15h-102.7ZM589.3,834.9h-228.2c-.7-4.9,3.6-9,7.8-10.7,3.4-1.3,6,.3,8.2-1.8-10.1-18.8,10.4-37.8,29.4-31.4l1.1-2.1c-6.8-16.4,8.6-29.4,24.3-24.8-.3-7.2-4-12.8-.7-20.2,2.1-4.7,10.1-10.9,15.3-11.6,2.6-.3,10,1.2,10.4-.6-7.2-19.2,5.7-32.9,25.3-31.3,2.8.2,5.6,3.3,7.5.4-9-20,4.1-43.3,27.3-41.2,3.4.3,12.3,4.9,10.8.2-8.4-22.2,6.6-42.8,30.7-35.2-7.6-21.1,8.9-41.7,30.9-39.9v250.1l-.1.1ZM589.4,387.7c-15.6-3.9-27,2.4-31.9,17.5h-.2c-13.4-4.6-26.3.8-25.9,16.3-9.6-2.7-17.9-1.4-20.9,9-2.1.6-2.4-.8-2.7-2.7-.6-3.9,0-7.9-1.3-11.8l.3-1.3c8.8-4.7,13.2-10.8,14.7-20.7.4-2.7-.5-6.7.2-8.7s4-1.2,4.7-3.2c3.8-10.7-10.2-31.9,14.1-24.3-2-14.6,5-16.7,17.4-12l1.5-1.5c-2.7-6,3.6-14.8,9.3-16.6,7.4-2.4,14.3-.5,20.7,3.2v56.8h0Z"/>
    <path d="M398.5,607.8h.3-.3Z"/>
    <path d="M506.8,395.6h-.1.1Z"/>
    <path d="M358.5,422.3h0v.1h0v-.1Z"/>
    <path d="M428.1,240.1c3-.5,5.1-3.8,2-6-3.8,2.3-4.9,2.9-7.9-1-3,0-1.4,8.2,5.9,7Z"/>
  </g>
  <path d="M54.7,344.9c9.6-2.4,16.7,11.7,5.3,15.3-13.1,4.1-16.6-12.5-5.3-15.3ZM52.1,355.5c.6.9,6.4,1.7,7.8.6l1.9-2.2c1.2-9.4-13.6-4.7-9.7,1.6Z"/>
  <path d="M508.8,93c7-6.1,18.5-8.2,22.8,1.9s-.6,8,2.3,10.7c7.7-3.9,15.6-4.1,22.4,1.5s9.3,10.9,3.1,14l-131,.5c-7.4-11.6,4.4-25,16.8-24.9l10,2c-.7-34.1,46.3-38,48.8-3l2.6.5c1-.8,1.4-2.4,2.3-3.2h-.1Z" fill="#fff"/>
  <g>
    <g>
      <path d="M512.9,484.2c-2.6.2.4,9.2-.7,12.3-.8,2.3-6.4,3.8-8.8,3.7.8,11.2,2,15.9-8.4,22-13.7,8.2-17.9,6.9-32.2,4.2-2.6-.5-6.9.8-8.8-3.4-3.7-8.2,7.7-11.9,10.4-17.9h-16.9c2.5,12.3-13,13-21.7,14.6-4,.8-10.4.6-13.4,1.5-1.9.5-4.1,4.3-6.3,5.6-1.5.9-6.2,1.8-6.4,2.8,1.8,9.2,4.1,18.4,5.1,27.8,1.4,13.5,1.8,27.4,3,40.9,1.5,17.3-1.8,24.6-17.7,31.8l5.6,43.7c-1.4,3.9-15.8,6.3-15.8,7.1,3.6,6.6,6.1,13.7,9.5,20.4,4,8.2,11,14.3,9.4,24.3-1.2,7.2-13.9,23.6-20.9,25.9-5.1,1.7-5.5-.6-8.4-.9-2.6-.3-9.6,0-11.9-.5s-9.1-3-10-5c-4.1-9.3,15.5-16.3,18.3-24.2-3.8-5.3-8.5-10.3-12.3-15.7-2.1-3-8.7-15.8-10-16.9-2.9-2.4-8.1,0-11.9,0-5.3,0-10.7.2-16,0-2.6,0-8.3-2.4-10,0-2.3,10.4-4.7,21-6.3,31.5-1.1,7,0,18.5-3.7,24.2-4.7,7.5-33.2,12-41.3,9.6-1.8-.5-12.7-6.3-13.4-7.5-6.3-11.3,20.7-15.4,25.7-18.9.7-.5,1.1-1.1,1.2-2l2.5-44.3c-3.9-2.2-11.8-.6-11.9-6.1-.1-6,1.2-16.5,1.9-22.8.7-6.1,2.1-12.3,3-18.4-15.7,8.8-31.6,17.4-48.7,23.1l-.3,9.7-6.8,2.7c-.8,2.5,7,15.8,8.7,19,4.6,8.2,16.5,22,16.2,30.7.3,11.3-22,35.7-33.5,27.7-.8,0-2.1,1.9-4.9,1.7-.5,0-8-2-8.8-2.2-2.4-.7-9.3-2.9-10.3-4.8-4.8-9.8,19.7-19.3,19.3-24.2l-30.2-39.6-28.2,8.2c-.7,1-2.1,18.2-2.2,21.2-.3,8,1.6,25.1-.4,31.5-1.8,5.7-12.7,9.3-18,10.9-17.2,5.4-35,10-46.3-7.7-1.9-7.4,22.9-14.4,27.4-18.3l-.6-28.9c-31.1,7.9-64,16.3-90.7,34.4v106.1h240.7c78.8-38,189.7-88.7,201.8-186.8,6.1-49.8-1.4-75.8,44-108.5,19.7-14.2,66.5-34.2,21.3-55.4h0v.1ZM240.9,696.4c2.4-.8,5.5-2.1,7.4.6-2,2.9-4.8,2.7-8,2.5l.6-3.1ZM32.7,773.2l9.3-1v3c-3.5-.6-12.5,3.8-9.3-2ZM49,773.2l7,.5c-2.2,2.1-7,4-7-.5ZM182.1,810.1c-7.2.7-11.1-1.2-17.1-2-4.1-.5-17.3-.6-20.1-3.3-4.5-4.4,2.9-12.9,7-14.9,3.5-1.7,11-2.5,14.7-1.3,2,.6,3.3,3.1,4.6,3.4,1.5.3,4.5-1,6.8-.9,11.8.2,23.4,17.1,4,19.1h.1v-.1ZM284.2,792.1c-.9,1.2-10.9-11-6.5-12,3-.6,8.6,8.6,6.5,12ZM291.2,791.6c-8.7,3.3-.6-15.4,2-12.4l-2,12.4ZM295.2,792.1c-.8-.9,1.7-8.4,4.5-8,4.1.8-3.1,9.5-4.5,8ZM409.8,655.6c-.6-4.3,10.8-4.3,10.9-1.5-2.7,2.9-7.5,1-10.9,1.5ZM433.7,549c-4.5-.5-10.1,3.2-13.9-.5,0-2.9,15.8-6.8,13.9.5ZM440.1,551c-3.4.9-4.6-3.3-2-4,3.4-.9,4.6,3.3,2,4Z" fill="#fff"/>
      <path d="M166.5,803.6c0,1.5,1.6,2.3,2.6,2.5,4.2.7,11.3,0,15.9,0s2.2-1.4,3.4-1.1c1-13.4-21.4-12.5-22-1.4h.1Z" fill="#fff"/>
    </g>
    <path d="M147.6,802.1c5.1,1.4,9.4,2.9,14.8,1.9l5.1-10.8c-7.7-2.9-19.1-.5-19.9,8.9h0Z" fill="#fff"/>
  </g>
  <path d="M569.2,749.3c-1,13.1-11.1,24.3-21.9,30.9-3.9-5.2,11.9-33.6,21.9-30.9Z" fill="#fff"/>
  <path d="M542.3,782.2c-10.8-.5-20.6-10.4-21.9-20.9,11.4-.6,19.7,10.6,21.9,20.9Z" fill="#fff"/>
  <path d="M475.5,815c-10.5,0-20.5-8.3-23.9-17.9,10.9-3,21.8,7.8,23.9,17.9Z" fill="#fff"/>
  <path d="M502.4,798.1c-1.1,9.7-12.7,17-21.9,16.9,3.1-9.1,11.6-17.8,21.9-16.9Z" fill="#fff"/>
  <path d="M514,590.8c-1.9,0-.3-9.6-10-10-7.3-.3-7.2,2.9-8.5,9-.6.4-8.1-4.1-11.7.3h.1c-1.3,1.6-1.8,5.2.3,6.6,5.8,3.8,28.6,2.9,35.7,1,14.3-3.9,1.9-14.8-5.9-6.9h0Z" fill="#fff"/>
  <path d="M479.3,761.4c8-1.2,13.8,12.3,3.5,14.6s-12.5-13.2-3.5-14.6ZM476.6,766.3c-1.5,1.7.9,9.7,5.8,5.3,6-5.3-3.9-7.5-5.8-5.3Z"/>
  <path d="M533.1,719.6l1.1,3.1" fill="#fff"/>
  <path d="M62,352.5c0,2.6-2.1,5-5.3,4.7-5.1-.5-5.3-2.1-5.3-4.7s2.4-4.7,5.3-4.7,5.3,2.1,5.3,4.7Z" fill="#fff"/>
  <g>
    <path d="M558.4,624.7c-24.1-7.7-39.1,13-30.7,35.2,1.5,4.7-7.4,0-10.8-.2-23.2-2.1-36.3,21.2-27.3,41.2,0,.1-.1.3-.2.4-1.6-.3-4-.5-7.3-.8-19.6-1.6-32.5,12.1-25.3,31.3-.4,1.8-5.2,0-10.4.6-5.2.7-12,4.2-15.3,11.6s.4,13,.7,20.2c-15.7-4.6-31.1,8.4-24.3,24.8l-1.1,2.1c-19-6.4-39.5,12.6-29.4,31.4-2.2,2.1-4,0-8.2,1.8-4.2,1.7-8.5,5.8-7.8,10.7h228.2v-250.1h0c-22-1.9-38.5,18.7-30.9,39.8h.1ZM491.4,814.9c-13.8,6.4-31.3,3.9-39.8-9.3-14.5-22.5,21.7-10.7,24.1,3.8,1.7.2,1.6-1,1.8-3.8s.5-10.8-.9-12.8c-.8-1.2-6.1-1.9-7.9-5.2-1.2-2.3-.5-5.4-1.2-6.3s-8.3-.2-11.7-5.8c-5.8-9.6,1.4-17.7,11.8-16.3-1.1-12.4,14.8-15.3,22.4-7.3,3,3.2,2.8,8.3,3.6,9h1.1c.7.7,2.6.2,6.8,5.5s3.4,11.2-2.1,14.2c-3.5,2-8.3,1-9.9,2-1,.7-1.4,4.5-2.9,6.1s-3.9.8-5.5,3.4c-1.6,2.6,0,10.7-.5,14,4.8-4.3,8-7.8,13.5-10,19.8-8,11.2,12.4-2.6,18.8h-.1Z" fill="#fff"/>
    <path d="M485.7,778.2c.7-.7,10.1,3,14-2.4,1.5-2.1,1.4-7.5-.3-9.3-2.1-2.2-4.2-2.3-6.9-2.1l-2.1.3c-1.7-1.1,1.2-7.9-3.4-12.3-7.6-7.3-16.9.9-17.3,9.5-10.2-3.9-18.3,10.6-6.7,14.6,3.5,1.1,4,.2,7.2.7,1.9,1.2-1.3,3.9.6,7.7,2.7,8,17.4,2.5,14.9-6.7h0ZM479.3,761.4c8-1.2,13.8,12.3,3.5,14.6-10.2,1.6-12.5-13.2-3.5-14.6Z" fill="#fff"/>
    <ellipse cx="481" cy="768.7" rx="5" ry="4.8" fill="#fff"/>
  </g>
</svg>