<?xml version="1.0" encoding="UTF-8"?>
<svg id="Camada_1" xmlns="http://www.w3.org/2000/svg" version="1.1" viewBox="0 0 595.28 841.89">
  <!-- Generator: Adobe Illustrator 29.0.0, SVG Export Plug-In . SVG Version: 2.1.0 Build 186)  -->
  <path d="M594.14-.06v840.01s-594,0-594,0V-.06h594ZM590.15,3.94H4.13v34.96c29.16-12.53,59.51-3.67,71.34,27.01,6.25,16.2,3.8,29.25-2.45,44.9,21.16-5.82,47.15-1.1,44.93,25.97,14.74-7.35,33.21-1.29,32.95,16.98,24.17-7.2,41.31,20.62,10.01,27.5-14.38,3.16-34.65,3.92-49.49,3.5-9.62-.27-26.45-3.78-34.8-3.02-2.72.25-10.82,5.66-15.04,7.01-18.73,6.01-38.82,2.35-57.44-2.03v150.82c7.57-1.57,13.04-1.57,19.96,2,.24-12.42,11.6-15.25,21.96-11.99-.34-17.37,21.3-24.8,36-22.52,16.66,2.59,24.21,15.22,21.92,31.51,11.55-4.87,25.38-1.53,24.96,12.98,9.49-2.24,33.53,3.38,24.84,17.38-1.5,2.42-9.82,5.6-12.37,5.6H4.13v37.95c26.7-12.82,42.52-.34,61.91,16.47l45.94,43.97c3.41,1.58,7.94-2.34,11.43-3.53,19.69-6.72,27.59-3.97,45.12,5.85,27.23,15.25,49.23,39.5,76.19,55.1.57-.78-.82-18.36-1.15-19.32-.7-2.03-6.46-2.79-8.34-7.63-2.25-13.86-2.91-29.37-1.35-43.33.61-5.49,4.54-17.57,4.4-21.12-.1-2.44-2.11-3.94-2.48-6.04-.63-3.52,1.61-13.27,3.51-16.34,1.19-1.92,4.36-3.07,4.49-3.76.59-3.02-4.33-27.2-5.05-32.78-.32-2.52.22-5.19-.14-7.85-1.38-10.38-4.85-20.55-4.04-31.43-27.08-12.24-55.56-22.08-81.36-36.95-4.64-2.67-22.29-15.33-25-15.94-6.98-1.56-15.84.74-22.7.84-24.44.35-48.98.07-73.4-.57-4.38-1.82-4.77-10.58-5.06-14.92-.6-9.21.95-18.24,1.08-26.97.14-9.76-1.64-27.48-.02-35.97.29-1.54,4.97-6.52,5.47-6.52h200.16v-57.43c0-.56-5.1-1.18-5.93-7.06-1.5-10.74-1.22-41.75-.12-52.93.76-7.66,4.81-4.33,5.99-5.49,1.39-1.36-3.26-17.68.7-21.01,40.58-3.79,81.68-1.32,122.46-1.67,8.5,1.66,2.81,20.92,3.68,21.73,12.66-1.24,7.12,14.72,6.96,22.43-.28,12.98.32,25.99.02,38.97-.88,4.61-6.7,3.94-7.03,5.13l1.06,57.33,195.01-.62c13.91.53,9.7,6.66,10.03,16.26.64,18.51,2.18,41.63.66,59.8-.8,9.58-4.51,10.75-13.48,11.48-28.17,2.28-66.66-5.15-92.65.19-5.76,1.18-33.95,18.5-42.3,22.6-18.77,9.23-38.15,17.46-57.13,26.24-3.26,24.95-5.53,50.28-11.13,74.77,5.47-.09,8.43,7.1,8.79,11.78.31,4.04-2.11,7.46-1.75,11.58.57,6.42,5.25,18.63,6.63,26.41,1.07,6.05,5.16,30.03,2.02,33.86-1.27,1.55-6.39,2.89-7.21,4.27-1.25,2.11.27,6.01-2.42,8.56-2.13,2.02-5.91,1.01-6.85,4.13l-1.18,35.26c19.25-9.49,37.77-22.43,57.54-30.82,18.73-7.95,23.27-7.83,42.27-.63,5.94,2.25,17.28,9.69,23.01,8.04,20.41-12.09,41.37-32.83,63.19-41.69,25.07-10.18,35.4.47,55.58,13.16v-97.88c-24.41,1.66-48.93.81-73.42.96-19.34.11-28.14-.72-47-2.83-25.06-2.8-51.91,2.32-76.74-.13-5.79-.57-12.15-1.89-12.57-8.44-.78-12.01,12.16-15.51,22.01-14.57-.01-20.61,31.06-24.95,42.49-11.96,1.58,1.8,4.01,7.28,4.44,7.56,1.89,1.28,9.23-1.1,12.01,1.45,1.54-19.59,25.2-25.01,40.94-18.99-3.38-9.36,3.62-23.58,11.07-29.37,11.09-8.62,26.95-9.97,39.52-3.76,4.64,2.29,7.07,6.72,11.28,8.16,3.84-10.46,15.38-15.22,25.97-13.98v-143.83c-16.1,1.19-32.28,1.21-48.47,1.05-31.18-.31-69.49,1.41-99.77-1.06-7.13-.58-18.61-2.25-18.58-11.47.04-12.77,18.42-16.16,28.04-13.49-1.45-16.88,16.29-21.77,29.95-17.98-2.55-22.02,21.35-36.72,40.93-28.96-16.12-36.06,15.38-71.27,52.95-62.46,5.64,1.32,9.88,4.07,14.94,6.53V3.94ZM66.03,116.8c2.55-7.4,8.08-14.06,9.53-21.92,1.77-9.66-.36-19.31-3.76-28.29C61.06,38.24,30.96,28.29,4.62,42.89l.49,140.36c21.83,6.43,49.17,10.15,68.46-4.53,23.17,2.75,47.52,4.14,70.81,2.01,6.71-.62,25.83-2.51,28.71-9.23,6.06-14.16-16.06-18.75-25.19-12.73-1.28-8.29-.42-15.84-9.28-20.19-9.56-4.69-18.43,1.36-25.66,7.2,2.25-12.22,5.07-22.58-7.31-30.16-13.1-8.02-26.36-2.18-39.62,1.19ZM590.15,164.25V46.39c0-2.52-8.92-6.85-11.29-7.68-30.19-10.54-64.96,14.84-56.29,47.33,1.55,5.82,6.01,9.58,5.69,15.77-11.58-4.57-21.57-6.32-32.64.81-11.74,7.56-11.79,17.42-10.3,30.16-12.66-10.99-35.24-3.22-29.94,14.97-7.84-.25-15.69-3.05-22.91,1.56-7.38,4.71-8.66,12.25,1.13,14.75,23.51,6,73.51.56,100.2.64,17.06.05,35.84,3.1,52.91,1.1,1.45-.17,2.57-.13,3.44-1.55ZM337.57,77.85v-17.48l-1.5-1.5h-23.46l1,18.98h23.96ZM245.73,59.87c-14.15-2.14-7.53,10.34-7.99,18.99l8.88-1.11-.89-17.87ZM265.69,59.87h-17.97c.06,5.8-.48,13.05,2.5,17.98h15.47v-17.98ZM283.66,59.87h-15.97v17.98h15.97v-17.98ZM311.61,59.87h-26.95c-.27.73,1,1.19,1,1.5v16.48h24.96l1-17.98ZM357.54,77.85c-.39-6.18,2.95-12.46-1.5-17.98h-17.47c-.57,1.39,1,2.99,1,3.5v14.48h17.97ZM363.53,139.78c-1.18-7.47,3.22-56.29.06-58.49l-131.91.99c-3.7,2.67.03,28.65.14,34.02.16,7.47-3.6,16.6,1.43,23.48h130.28ZM245.73,143.77l-7.99-1v58.93c1.59.28,2.17-.32,2.77-1.73,1.68-3.97,1.4-8.79,4.04-13.94,10.18-19.81,43.66-30.54,64.09-23.81,4.56,1.5,6.38,4.44,9.95,6.02,13.06,5.79,18.99,1.42,27.77,17.16,2.14,3.83,4.77,14.12,5.66,15.31,1.19,1.59,3.86.88,5.52.97v-57.93h-13.98v24.97h-.99c1.06-2.41-1.01-6.15-1.01-7.49v-17.48h-15.97l.99,13.98h-1.99s0-14.98,0-14.98h-61.9v16.98c-.65.08-2-1.32-2-1.5v-15.48c-4.43.62-10.52-1.56-13.98,1.5v19.98c0,.71,1.76,2.85.99,4.49h-1.99s0-24.97,0-24.97ZM324.59,201.71l-10.48-16.96c-6.6,7.81-19.13,17-29.73,12.74-1.46-.59-2.65-2.95-4.08-2.71-.6.1-6.42,5.85-7.62,6.93h51.91ZM239.74,204.7H34.58c-2.81,0-5.1,12.42-2.56,14.55,1.61,1.12,17.19,1.01,20.55,1.43,1.83.23,1.61-.32,1.48,2h-21.96l.13,18.35,7.87,3.13-8,.5v24.97h36.44c.91,0,3.62,1.86,5.49,1.01-1.5,4.1-5.81.99-7.49.99h-34.44c.36,3.77-1.79,11.19,3.56,12l88.29-1.02c-4.45-4.08-17.88-16.96-22.92-18.55-3.9-1.23-10.56,1.7-15.53,1.65s-23.68-2.7-27.01-6c-2.54-2.52-.71-5.39-1.6-6.9-.82-1.39-6.36-.27-6.73-5.71-.23-3.28-1.15-7.49-1.13-9.87.12-12.36,9.29-14.77,20.01-14.54-2.14-12.17,19.5-6.29,25.94-3.48,12.8,5.57,13.22,15.09,20.62,20.32,7.99,5.65,32.71,16.27,42.93,20.98,22.06,10.15,45.15,19.39,69.24,23.1-7.43-8.97,3.02-19.44,2.89-25.48-.07-3.18-6.91-13.26-6.91-17.87,4.37-12.39,12.9-22.73,16-35.54ZM292.55,221.76c3.93,2.49-4.13,25.84-1.47,30.95,12.46,2.59,23.71,1.36,32.01,12.9,15.32-13.22,13.74-37.69,12.27-56.21-1.89-3.52-4.51-4.41-8.23-4.75-13.05-1.2-45.31-1.54-57.97.02-1.47.18-12.61,4.4-12.99,4.98-2.35,20.08-2.73,41.36,12.02,56.96,5.34-5.91,11.25-10.88,19.45-12-2.84-11.2,5.59-21.46,2.01-32.93.88.11,2.34-.28,2.9.08ZM563.19,272.62h-28.95c-.13-2.34-.34-1.77,1.48-2,8.23-1.05,18.97-.23,27.47-1v-14.98l-9.98.99c-.5-4.19,6.6-.73,9.04-2.43l1.79-27.38-9.84-.16c-.34-4.87,7.89-.88,9.08-2.57,1.14-3.62,2.33-16.86-1.77-18.24l-208.02,1.35c-.12,15.39,17.91,24.4,10.74,42.66-1.15,2.93-4.45,4.31-4.8,8.26-.6,6.73,5.48,9.37,5.8,16.25.18,3.98-1.31,7.64-2.71,11.22,11.8-3.23,23.63-6.1,35.18-10.24,24.06-8.63,53.15-22.23,76.3-33.53,2.63-1.28,10.29-4.54,11.85-6.12,2-2.04,2.44-6.14,4.92-9.07,6.25-7.39,25.44-14.45,34.76-11.74,3.45,1,3.26,5.1,3.85,5.63.77.69,13.65-.97,16.32,5.16,1.03,2.36.05,4.43.49,6.29.28,1.21,3.77.64,3.05,5.15-.34,2.16-2.56,2.9-2.87,4.23-.44,1.89,1.61,3.78-.1,6.58-.91,1.5-4.46,2.21-4.85,2.91-.74,1.32.34,3.81-.7,5.79-2.29,4.33-24.83,8.11-29.95,8.09-4.16-.02-9.88-2.44-13.47-1.67-7.54,1.61-23.25,17.46-29.95,22.54,24.33-1.39,49.23,2.13,73.42,1.06,3.66-.16,18.93-1.08,20.76-2.21,3.13-1.93,1.17-7.43,1.66-10.83ZM74.01,253.64h-13.98c-.71,5.52,12.28,7.43,16.59,7.87,7.81.79,14.98-1.06,21.86-.98,5.71.07,35.54,24.83,43.09,29.88,27.85,18.63,61.19,31.61,92.15,44.13.35-.45-1.3-7.51-1.77-8.71-.78-2.01-6.52-8.31-2.74-8.25,9.94,2.86,9.45,33.8,10.52,42.42,2.12,17.1,4.68,34.2,7.18,51.24,1.11,1.49,18.25,3.72,21.39,4.08,25.21,2.86,41.16,2.43,65.82-1.81,4.11-.71,9.02.7,13.27-1.21,1.49-8.25,1.88-16.83,3.39-25.07.71-3.84,2.8-7.74,3.6-12.38,2.39-13.77,1.09-37.26,6.95-48.98.81-1.62,5.38-8.01,6.69-8.3.98-.21,2.46,1.1,2.46,1.49s-3.88,4.45-4.8,6.17c-.64,1.2-4.87,9.24-1.69,8.3,30.85-16.75,65.94-28.03,95.09-47.7,7.96-5.37,29.2-24.67,36.17-26.75,3.74-1.11,15.84.94,21.49.53,3.97-.29,18.99-2.88,21.01-5.95,1.41-3.32-2.72-3.12-5.03-3.1s-9.19,3.13-8.47-.92c1.09-1.13,14.07-1.6,17.24-3.23,1.5-.77,2.28-1.47,1.71-3.26-1.16-3.63-13.7.75-16.97-.51v-2.99c3.05.34,19.95-1.06,19.95-4.5-6.02-5.49-14.09-.6-20.32-.86-1.31-.05-4.04-1.15-2.62-2.62,1.69-1.74,16.59-2.11,19.96-3.02-1.36-9.92-23.34-3.73-27.5-.05-5.83,5.15.11,7.46.89,9.27,2.87,6.62-2.07,13.65-8.29,9.17-.66-.48-.86-2.04-1.23-2.25-.86-.5-7.81,2.39-6.8-1.64.27-1.09,5.4-2.43,7.01-4.27,3.28-3.76,2.19-9.72,3.96-11.74.68-.78,22.79-8.69,11.46-10.51-4.72-.76-20.2,4.65-24.36,7.59-5.7,4.02-7.53,10.98-13.35,14.61-36.1,15.21-71.27,36.65-109.5,46.26-11.49,2.89-23.5,3.99-34.97,6.96-6.56,1.7-12.06,8.17-10.95-3.97-3.65-2.11-4.77,3.19-6.96,5.03-16.38,13.76-42.86,10.65-56.45-5.53l-1.5,6.98c-14.88.46-29.85-4.35-44.13-8.27-21.03-5.77-39.47-12.78-59.36-21.51-8.75-3.84-47.18-20.59-51.64-25.24-3.89-4.07-4.42-9.75-10.09-13.88-5.87-4.27-20.99-9.07-27.43-4.5,2.88,4.51,14.31,5.37,15.74,10.2.87,2.92-.42,4.82,1.75,8.24,2.63,4.14,7.66,3.67,10.44,7.02-2.55.75-6.23-1.47-8.3-1.06-1.09.21-2.09,6.86-8.24,3.13-8.75-5.31,3.55-10.48-.6-17.38-2.7-4.49-25.66-7.95-28.76-.16-.06,3.32,17.49-.67,19.94,4.01,1.01,1.93-1.68,1.47-2.5,1.51-3.03.16-19.86-3.6-18.45,2.46.68,2.92,16,3.34,18.98,3.99,1.85,1.45-.2,2.34-1.52,2.53-5.28.74-11.13-2.88-16.03-.07-2.28,3.1,2.51,4.33,5.28,4.82,4.28.76,11.14-.56,14.24,3.23ZM250.71,252.64c.09-3.05.21-23.96-4.47-22.96-5.84,1.24-4.33,23.38,4.47,22.96ZM341.57,250.64c7.83-1.7,12.35-21.55,2.01-20.33l-2.01,20.33ZM292.39,264.87c-6.49,1.01-18.39,8.11-9.7,14.22,5.52,3.89,8.94-.13,13.42-.31,5.26-.21,17.18,5.73,15.97-5.31-.94-8.5-12.89-9.66-19.68-8.6ZM4.13,341.54v27.97h131.27c33.13-2.14,10.22-23.63-9.46-14.98-1.22-5.6,1.61-9.5-3.49-14-7.5-6.63-16.55-1.58-23.47,3.01,1.52-7.54,3.81-15.48.38-22.87-10.21-22.05-54.01-14.33-51.31,11.88-11.86-6.26-23.1-3.31-20.96,11.99-4.94-.7-7.11-4.44-12.61-4.9-4.13-.34-6.55.85-10.35,1.91ZM590.15,315.57c-12.81-1.61-23.03,6.37-24.97,18.98-7.82-9.03-14.44-16.66-27.41-17.03-19.48-.56-33.73,12.71-32.36,32.41.2,2.89,3.18,6.56.39,8.58-14.82-13.2-42.96-4.47-42.94,17.01-6.49-4.55-9.54-2.67-16.43-1.03.16-16.84-21.33-20.76-33.51-13.99-8.48,4.71-7.89,9.28-6.46,18.01-2.83.18-4.6-1.72-7.46-2.03-14.42-1.56-23.82,14.39-7.92,16.94,30.63,4.91,64.78-6.23,95.72,3.12l103.36-1.04v-79.91ZM4.13,414.45v128.85c12.62-4.84,24.31-11.19,38.31-9.87,4.82.46,9.68,2.84,14.6,2.87v-34.96h-19.97v-7.99h19.97v-20.48c0-.72,2.34-2.09,3.38-1.39.76.23,2.61,2.93,2.61,3.39v18.48h19.47c2.24,1.72,2.24,5.27,0,6.99h-17.97l-1.5,1.5v37.46c9.12,1.43,18.44,6.87,27.56,7.88,9.23,1.03,18.05-2.27,27.35.11l2.05-22.36-13.04-2.62,1.01-3.98h13.98c.78-4.4-1.06-15.95,4.99-14.98v15.48c2.97,3.35,10.33-.75,11.97,4.98-.59,2.76-10.58,1.39-12.97.52l-1.83,25.81c9.76,3.27,17.67,10.08,26.48,14.95,1.93,1.06,8.53,4.83,10.03,5.02,2.86.36,6.56-3.09,10.73-2.89,5.1.24,6.39,4.91,9.39,5.58,2.28.51,6.72-2.77,12.14-1.07,4.13,1.29,5.94,7.09,7.93,8.1,1.63.83,6.22-1.98,11.48,1.44,4.77,3.1,6.1,10.46,6.59,10.88.93.79,6.45-1.24,9.91,2.58,2.16,2.39,2.42,7.53,3.18,8.3.52.52,13.76,4.49,13.76,1.72v-71.91c-29.23-17.51-55.37-45.8-86.17-60.61-17.94-8.63-25.71-5.67-43.61,1.2l26.45,23.97v3.98c-11.33-9.23-22.69-18.54-33.45-28.45-16.22-14.92-30.97-31.76-47.89-45.97-18.64-15.66-32.3-24.78-56.92-12.47ZM332.51,425.35c-.03-10.3-9.74-5.33-16.41-4.92-16.07.98-32.79,1.07-48.78-1.12-8.21-1.12-15.72-4.35-23.98-4.93-2.69,6.75-6.92,19.2,2.1,22.83,15.62,6.28,58.3-1.07,74.7-6.74,4.21-1.46,8.17-3.66,12.37-5.11ZM333.58,416.46c-.42,3.05,2.08,5.08,2.73,7.75,2.18,8.95-1.5,18.06,12.04,12.53,10.21-4.17,10.48-22.01-1.8-21.27,2.14,2.82,6.04,10.51,2.01,12.97-1.49-9.71-4.61-13.48-14.98-11.98ZM258.71,478.39c23.58-3.49,45.4-14.54,62.9-30.47,3.15-2.87,16.26-14.89,12.95-19.49-29.82,10.41-62.28,18.66-93.78,11.02-2.13,10.58-6.24,56.23-.54,62.88,5.3,6.18,31.88-.2,39.41-2.48,19.15-5.8,43.64-23.54,54.32-40.54,3.17-5.04,8.93-18.57.57-20.4-16.94,18.32-44.19,38.3-69.64,41.19-1.96.22-7.11,1.67-6.21-1.71ZM339.57,502.35c8.77-1.68,18.09-3.3,24.93-9.56l-8.98-55.36c-1.82.38-1.85,1.97-2.02,3.46-.92,8.06,1.28,21.63,1.77,30.29.11,1.88.86,2.81-1.23,4.18l-3.48-18.47-.94-16.04-7.09,1.25-2.95,60.25ZM338.56,459.4c-2.3-.57-1.64.43-2.28,1.26-5.06,6.53-9.26,13.82-15.67,19.23l-27.96,19.45c11.27,1.8,22.22,5.4,33.57,6.87,6.56.85,17.6,2.16,23.88,1.99,2.91-.08,4.52-2.35,5.44-4.84-2.22-1.66-16.78,6.05-18.77-.71l1.79-43.24ZM531.3,614.18c17.71-4.38,33.44-13.36,51.48-16.82,2.32-.44,6.37.84,7.22-1.76l-1.02-94.58c-12.43-10.21-26.83-21.11-44.02-18.4-17.34,2.73-52.54,31.75-68.31,42.52-7.76,5.3-22.34,16.48-30.28,19.65-1.97.79-4.36,1.2-6.46,1.52-.98-.06-.64-1.32-.04-2.03,2.32-2.75,25.44-12.29,25.46-16.46-13.03-5.3-27.91-15.13-42.41-13.48-7.79.89-24.8,10.46-32.46,14.46-13.23,6.9-25.66,15.4-39.27,21.63l-2.2,2.8-.45,61.99,62.9,10.99c-3.03-6.48,5.68-16.83,5.98-20.51.38-4.71-.27-4.29.96-10.01.38-1.77-.28-3.85.25-5.74,1.76-6.28,15.18-6.26,17.11-1.46,1.07,2.66.27,5.47.88,8.03.95,3.99,1.44,7.5,2.2,10.75.53,2.26,4.74,6.23,5.8,9.21,1,2.8.61,5.87,1.9,8.58l10.73-.96c-.12-5.33.79-10.72,2.81-15.67.97-2.38,6-9.13,5.99-9.7,0-.67-2.13-2.47-2.51-4.2-.5-2.24.11-4.59-.25-6.73-.42-2.49-2.33-3.75-1.79-6.8,1.29-7.35,18.02-10.21,21.09-3.49,1.34,2.92-.25,4.28.02,6.11.65,4.51,3.28,6.06-.2,11.9,8.74,6.9,13.78,12.99,14.98,24.58l4.88.09c0-6.6,1.88-12.34,5.96-17.48-7.22-3.77-4.54-6.76-4.16-12.97.09-1.4-.97-2.87-.65-4.76,1.15-6.73,9.76-5.89,14.57-3.98,6.75,2.68,9.62,14.18,4.19,19.67,5.04,2.6,7.87,8.07,9.1,13.5ZM290.64,685.14c-3.24,11.31,7.54,18.24,9.75,5.25,2.45-14.42-5.24-37.85-5.79-53.66-.46-13.31,2.38-27.83,2.07-41.04-.22-9.31-3.56-19.57-4.02-28.93-.8-16.24,1.75-34.78,2.97-50.95.24-3.24.96-11.72-1.64-13.3-5.13-3.13-23.55,3.64-30.92,4.7-5.18.75-11.1,1.07-16.35,1.12-1.56,17.35,8.27,33.85,9.87,50.57.83,8.71-.61,18.17.14,26.83,1.92,22.3,19.64,48.8,16.81,68.8-1.34,9.49-6.93,21.82-4.62,31.88.58,2.51,1.92,4.28,4.76,3.71.35-.35-.95-12.85,2-8.98,0,4.79-1.06,10.37,3.99,12.98l.17-9.33c7.22-5.15,1.82,1.8,2.08,3.62s3.88,9.8,6.75,7.7c-1.2-2.99-2.82-10.79,1.99-10.97ZM346.56,511.33l-47.92-6.98c.29,12.13-.4,24.36-.05,36.49.24,8.14,2.15,16.53,2.07,24.97-.26,28-4.42,54.17-2.02,82.85,1.32,15.75,6.48,31.65,3.99,47.45,1.56.04,4.73-.07,5.74-1.25,2.16-2.52-.47-10.8,1.74-10.71,2.96,1.52.73,9.15,1.5,9.96,8.57,1.16,2.78-11.96,5.5-12.97,2.85-1.06,2.61,7.78,2.49,8.98,5.45-2.9,4.35-12.05,3.97-17.46-.61-8.72-5.54-19.91-4.89-27.84.62-7.7,7.72-18.92,10.36-26.65,7.5-22.01,5.29-45.23,10.21-67.69.34-1.55,1.84-2.96,2.21-4.78.92-4.52,6.65-32.79,5.1-34.36ZM245.73,609.22c-28.04-3.87-52.21-16.24-76.54-29.79-15.44-8.6-45.6-30.95-62.68-30.15-3.23.15-6.88,1.96-10.03,1.99-17.73.19-37.6-14.07-54.87-15-13.74-.74-24.8,6.5-37.48,10.02v64.92c11.98-12.67,29.47-5.58,27.96,11.99,4.35-1.75,9.82-2.72,13.54.93,1.38,1.35,2.3,4.72,2.58,4.9,3.36,2.14,18.51-3.23,17.82,11.15,5.38-2.65,10.72-3.46,14.98,1.48,1.13,1.31,2.02,4.51,2.92,5.04s9.91-2.58,12.52,3.48c.47,1.08,1.52,7.33-.97,5.97-2.35-1.29-.04-6.83-7.04-7.06-4.24-.14-3.97,2.43-7.44,3.06-1.17-3.91-.57-9.75-5.74-10.81-5.01-1.03-7.35,3.52-12.15,2.74-.64-10.59-5.77-16.45-15.56-8.92-1.96-.03-.81-8.44-5.18-9.77-7.28-2.22-11.37,4.06-12.77,3.79-2.67-1.67.22-3.18.47-5.58.64-6.04-5.11-16.63-12.39-16.33-3.33.14-13.56,7.39-13.56,9.43v88.4c6.72-2.25,12.86-5.84,19.75-7.71,7.51-2.04,14.83-2.13,22.21-3.75,17.63-3.87,31.5-15.57,48.1-20.79,18.44-5.81,42.3-9.6,62.05-14.83,2.59-.68,16.45-2.9,16.57-4.35-1.61-2.72-2.29-6.99-5.96-7.53,4.16-6.71,6.04,5.01,9.47,5.03,8.39-17.59,7.68-2.39,9.61-1.13l1.36.21,58.42-7.08v-33.96ZM258.7,765.04v-123.85c.65-.08,2,1.32,2,1.5v124.35c3.09-.15,6.11,3.74,8.52,3.98,3.58.36,10.56-2.56,16.93-1.97,9.07.85,17.62,8.89,25.47,4.48v-57.93c0-1.05-3.21-5.12.99-4.49l1.01,61.92,17-4.69,1.98-41.25c4.26,2.86,1.06,9.46.95,13.44-.25,8.82.26,17.7.05,26.51,2.54-.56,10.07-.34,10.84-2.63l1.12-221.1-5.9,20.55c.49,12.98-.54,24.95-3.37,37.58s-13.87,35.01-14.43,44.49c-.36,6.01,4.18,17.36,4.73,24.74.36,4.89.95,17.11-2.44,20.51-8.91,8.93-27.45,10.26-39,6.96-3.15-.9-15.93-5.59-17.49-7.47-6.18-7.48,3.36-33.69,3.06-43.92-.36-12.29-11.7-32.43-14.54-46.47-2.56-12.66-2.58-25.5-2.57-38.38l-3.88-14.58c-.67,58.41.84,116.92.04,175.33-.16,11.92-2.58,24.98-1.1,36.96.14,1.1-.06,2.22,1.04,2.96l9,2.48ZM297.63,565.27v-5.98h-.98v5.98h.98ZM228.75,602.23c-1.3-7.16-5.83-9.78-11.98-5.46-3.63-4.67.06-9.31-6.03-12.95-5.3-3.17-6.43-.28-11.37,1.41-2.46-.54-1.04-12.3-12.94-10.89-2.25.26-4.89,2.26-6.88,1.79-3.34-.8-7.71-11.45-15.67-3.34,21.38,10.28,41.23,24.41,64.88,29.46ZM590.15,599.23c-22.69,2.89-42.96,15.21-64.88,20.49-25.39,6.11-51.61,4.24-77.07,8.79-21.33,3.81-39.99,14.91-60.68,19.2-12.79,2.65-25.98,2.55-38.97,3.46,1.32,7.89-3.76,52.89.65,56.03,1.83,1.3,12.68,3.45,17.01,5.72,6.07,3.17,14.06,12.15,18.05,13.9,10.72,4.72,28.37,2.68,41.85,9.07,13.45,6.38,18.81,22.45,30.74,27.18,8.68,3.44,18.63,3.09,27.19,7.76,9.8,5.34,16.97,18.62,26.57,23.36,2.42,1.2,11.68,4.27,13.93,3.67,1.91-.51,6.39-6.6,8.77-8.28,12.52-8.77,35.25-6.04,39.86,10.42-5.29-.64-5.74-6.49-11.08-9.38-10.15-5.5-29.58-3.08-32.83,9.37l60.89,33.97v-234.72ZM348.55,618.21v29.96c25.62.26,49.61-5.3,72.89-15.48l-72.89-14.48ZM4.13,710.6v107.37c10.05-4.92,18.63-11.95,28.98-16.45,11.38-4.95,21.39-5.8,32.67-9.26,16.86-5.17,25.09-20.01,40.5-26.41,13.16-5.47,23.38-3.14,35.63-13.29,9.2-7.63,14.28-15.69,26.26-20.67s20.79-2.39,31.45-5.49c4.9-1.43,9.28-6.41,13.85-9.11,9.5-5.61,21.1-9.86,32.25-10.19v-59.93c-11.74-.06-23.65.59-35.31,2.13-7.58,1-19.56,4.88-26.08,4.9-3.35,0-.27-5.48-1.99-7.02l-5.44,10.52c-15.43-.82-30.63,6.61-45.56,10.37-15.94,4.01-30.65,5.12-46.02,11.89-9.56,4.21-17.89,10.45-28.04,13.9-17.64,6-38.09,3.62-53.15,16.74ZM245.73,710.1c-10.94,1.34-21.74,4.58-31.25,10.19-3.9,2.3-9.93,8.35-13.64,9.32-10.59,2.78-20.02.46-31.66,5.28s-18.02,14.81-27.8,22.13c-12.22,9.15-23.95,6.87-36.77,13.15-11.69,5.73-21,18.06-32.59,23.33-14.38,6.54-29.08,5.86-45.94,14.97-3.26,1.76-19.78,11.88-21.01,13.93-2.09,3.48-.42,9.49-.93,13.55h582.02c-7.48-7.55-18.53-10.54-27.62-15.81-9.52-5.51-17.56-12.81-28.02-16.91-7.29-2.86-15.64-3.6-22.53-7.43-9.51-5.29-15.68-17.24-25.61-22.32-8.41-4.3-17.33-4.3-25.77-7.17-13.43-4.58-19.43-21.36-32.13-27.78-11.11-5.62-22.81-4.2-34.23-6.71-10.29-2.26-15.85-10.97-25.04-15.89-5.18-2.78-10.46-4.4-16.13-5.84l-2.58,54.29c.41,1.87,20.42,2.18,19.03,9.65-11.07-6.91-22.87-5.81-34.94-2.5-6.76,1.85-17.65,7.75-24.38,7.43-4.97-.24-11.28-5.08-17.15-5.81-6.96-.86-15.87,2.06-19.73,1.62-2.13-.24-5.59-3.83-7.93-4.91-9.6-4.44-17.03-3.25-26.63.17-2.27-2.03,9.33-6.72,10.98-5.99v-53.94Z"/>
  <polygon points="594.14 -.06 595.14 -.06 595.14 841.94 .14 841.94 .14 839.95 594.14 839.95 594.14 -.06" fill="#fff"/>
  <path d="M590.15,3.94v36.96c-5.06-2.46-9.3-5.2-14.94-6.53-37.57-8.81-69.08,26.4-52.95,62.46-19.58-7.76-43.48,6.95-40.93,28.96-13.65-3.8-31.4,1.1-29.95,17.98-9.62-2.68-28,.72-28.04,13.49-.03,9.22,11.45,10.89,18.58,11.47,30.27,2.48,68.59.75,99.77,1.06,16.18.16,32.36.14,48.47-1.05v143.83c-10.6-1.24-22.14,3.51-25.97,13.98-4.21-1.44-6.64-5.87-11.28-8.16-12.57-6.21-28.44-4.86-39.52,3.76-7.45,5.79-14.45,20.01-11.07,29.37-15.74-6.02-39.4-.6-40.94,18.99-2.77-2.55-10.12-.17-12.01-1.45-.42-.29-2.86-5.77-4.44-7.56-11.43-12.99-42.5-8.65-42.49,11.96-9.84-.95-22.78,2.56-22.01,14.57.42,6.55,6.78,7.87,12.57,8.44,24.82,2.45,51.68-2.67,76.74.13,18.86,2.11,27.66,2.95,47,2.83,24.49-.15,49.01.7,73.42-.96v97.88c-20.18-12.69-30.51-23.33-55.58-13.16-21.82,8.86-42.78,29.6-63.19,41.69-5.73,1.66-17.07-5.78-23.01-8.04-19-7.21-23.54-7.33-42.27.63-19.76,8.39-38.29,21.33-57.54,30.82l1.18-35.26c.94-3.12,4.72-2.11,6.85-4.13,2.69-2.56,1.18-6.45,2.42-8.56.81-1.38,5.94-2.72,7.21-4.27,3.14-3.83-.95-27.81-2.02-33.86-1.38-7.78-6.06-19.99-6.63-26.41-.37-4.12,2.06-7.54,1.75-11.58-.36-4.68-3.32-11.88-8.79-11.78,5.6-24.49,7.86-49.82,11.13-74.77,18.98-8.78,38.36-17.02,57.13-26.24,8.35-4.1,36.54-21.42,42.3-22.6,25.99-5.34,64.48,2.08,92.65-.19,8.98-.73,12.68-1.9,13.48-11.48,1.52-18.18-.02-41.3-.66-59.8-.33-9.6,3.88-15.74-10.03-16.26l-195.01.62-1.06-57.33c.32-1.18,6.15-.51,7.03-5.13.3-12.98-.3-26-.02-38.97.17-7.72,5.7-23.67-6.96-22.43-.87-.81,4.82-20.07-3.68-21.73-40.78.34-81.88-2.12-122.46,1.67-3.96,3.34.69,19.66-.7,21.01-1.18,1.15-5.24-2.18-5.99,5.49-1.1,11.18-1.38,42.19.12,52.93.82,5.88,5.93,6.5,5.93,7.06v57.43H33.58c-.5,0-5.17,4.98-5.47,6.52-1.62,8.5.16,26.22.02,35.97-.13,8.73-1.68,17.76-1.08,26.97.28,4.34.68,13.1,5.06,14.92,24.42.64,48.96.93,73.4.57,6.87-.1,15.72-2.4,22.7-.84,2.71.61,20.36,13.27,25,15.94,25.81,14.87,54.28,24.71,81.36,36.95-.81,10.87,2.65,21.04,4.04,31.43.35,2.66-.19,5.34.14,7.85.72,5.59,5.64,29.77,5.05,32.78-.13.69-3.3,1.84-4.49,3.76-1.91,3.07-4.15,12.81-3.51,16.34.38,2.1,2.38,3.61,2.48,6.04.14,3.56-3.78,15.63-4.4,21.12-1.56,13.96-.89,29.47,1.35,43.33,1.88,4.85,7.65,5.6,8.34,7.63.33.96,1.71,18.54,1.15,19.32-26.96-15.6-48.96-39.86-76.19-55.1-17.53-9.81-25.42-12.56-45.12-5.85-3.49,1.19-8.02,5.11-11.43,3.53l-45.94-43.97c-19.39-16.81-35.21-29.29-61.91-16.47v-37.95h137.27c2.55,0,10.87-3.18,12.37-5.6,8.68-13.99-15.36-19.62-24.84-17.38.42-14.51-13.41-17.85-24.96-12.98,2.29-16.29-5.25-28.92-21.92-31.51-14.7-2.28-36.34,5.16-36,22.52-10.36-3.26-21.72-.43-21.96,11.99-6.92-3.57-12.39-3.57-19.96-2v-150.82c18.61,4.38,38.71,8.04,57.44,2.03,4.22-1.35,12.32-6.76,15.04-7.01,8.36-.76,25.18,2.75,34.8,3.02,14.84.42,35.11-.34,49.49-3.5,31.3-6.88,14.16-34.7-10.01-27.5.27-18.28-18.21-24.33-32.95-16.98,2.22-27.08-23.76-31.79-44.93-25.97,6.24-15.65,8.7-28.69,2.45-44.9C63.64,35.23,33.29,26.37,4.13,38.9V3.94h586.02ZM180.83,412.46c-.24-21.4-33.68-24.94-38.07-3.14-24.01-3.77-36.04,21.89-6.23,24.98,12.78,1.33,35.81,1.07,48.83.16,7.88-.55,24.42-2.55,18.3-14.4-4.02-7.78-15.23-8.3-22.83-7.61ZM484.34,440.42c-1.05-21.77-35.16-23.91-44.15-7.7-1.47,2.66-1.33,5.51-3.27,7.66-8.58-4.55-16.97-1.46-21.13,6.93-14.98-4.01-29.27,13.84-8.84,18.09,28.3-2.21,59.8,4.35,87.6-.26,28.42-4.71,10.38-34.68-10.21-24.71Z" fill="#fff"/>
  <path d="M245.73,710.1v53.94c-1.65-.74-13.25,3.96-10.98,5.99,9.6-3.43,17.03-4.61,26.63-.17,2.34,1.08,5.8,4.67,7.93,4.91,3.86.44,12.77-2.48,19.73-1.62,5.87.73,12.19,5.57,17.15,5.81,6.74.32,17.63-5.57,24.38-7.43,12.07-3.31,23.87-4.4,34.94,2.5,1.39-7.46-18.62-7.78-19.03-9.65l2.58-54.29c5.66,1.44,10.95,3.06,16.13,5.84,9.19,4.93,14.76,13.64,25.04,15.89,11.41,2.51,23.12,1.09,34.23,6.71,12.69,6.42,18.69,23.21,32.13,27.78,8.45,2.88,17.37,2.88,25.77,7.17,9.93,5.07,16.1,17.03,25.61,22.32,6.88,3.83,15.24,4.57,22.53,7.43,10.46,4.1,18.5,11.4,28.02,16.91,9.09,5.27,20.14,8.26,27.62,15.81H4.13c.51-4.06-1.16-10.08.93-13.55,1.23-2.06,17.75-12.17,21.01-13.93,16.86-9.1,31.56-8.43,45.94-14.97,11.59-5.27,20.91-17.6,32.59-23.33,12.82-6.28,24.56-4,36.77-13.15,9.77-7.32,15.75-17.14,27.8-22.13s21.07-2.5,31.66-5.28c3.71-.97,9.74-7.02,13.64-9.32,9.51-5.61,20.31-8.84,31.25-10.19ZM221.76,754.04c-1.86-6.07-14.95-5.34-20.18-4.71-7.55.9-18.83,5-21.74,12.7,4.14.13,6.49-3.83,9.97-5.5,10.11-4.86,21.2-3.62,31.95-2.49ZM422.43,782.01c-3.42-4.01-6.18-8.84-10.84-11.62-3.85-2.3-8.59-3.12-12.65-5.33-6.47-3.51-10.65-10.68-18.44-11.01-.88,4.92,4.56,4.28,7.34,6.13,3.13,2.09,4.97,5.21,8.73,7.25,6.55,3.54,11.52,3.21,17.92,9.04,2.65,2.42,2.85,6.62,7.94,5.53ZM177.83,802.99c-5.05-22.41-42.88-20.31-56.9-8.5-1.18.99-6.94,7.3-6.96,8-.13,5.41,7.51-4.51,8.03-4.93,15.41-12.46,43.48-10.76,55.84,5.43ZM366.28,797.26c-15.92,2.31-28.47,19.78-3.15,22.61,8.09.9,37.76.22,29.76-13.8-5.1-8.94-17.44-10.14-26.61-8.81ZM245.84,807.88c-.14-.08-.56-2.08-1.57-2.9-9.63-7.77-26.32-6.94-30.48,5.99,3.94.02,5.69-4.13,8.71-5.75,8.32-4.47,17.94-1.76,21.88,6.83,6.18-1.03,12.08-4.78,18.24-1.49,1.8.96,4.73,5.76,6.55,5.41,2.47-.48.07-4.45-.63-5.34-6.99-8.79-21.64-2.17-22.7-2.75ZM463.35,820.97c1.96-1.93-4.37-20.84-10.97-17.98,2.22,6.08,7.65,9.97,7.97,17.3l3,.68ZM473.34,804c-4.14-4.12-5.51,12.69-7.82,13.68-.38,2.5,4.66,4.44,4.84,2.78-1.77-2.99,4.09-15.36,2.98-16.47ZM484.32,809.99c-1.48-1.57-14.71,7.67-8.48,11.96.32-3.19,10.43-9.89,8.48-11.96Z" fill="#fff"/>
  <path d="M590.15,599.23v234.72l-60.89-33.97c3.26-12.45,22.69-14.86,32.83-9.37,5.34,2.89,5.79,8.74,11.08,9.38-4.62-16.46-27.34-19.18-39.86-10.42-2.39,1.67-6.86,7.76-8.77,8.28-2.25.6-11.51-2.47-13.93-3.67-9.6-4.74-16.78-18.01-26.57-23.36-8.56-4.67-18.51-4.31-27.19-7.76-11.93-4.73-17.29-20.79-30.74-27.18-13.48-6.4-31.12-4.35-41.85-9.07-3.98-1.75-11.98-10.74-18.05-13.9-4.34-2.27-15.19-4.42-17.01-5.72-4.41-3.14.67-48.13-.65-56.03,12.99-.91,26.18-.8,38.97-3.46,20.69-4.29,39.35-15.38,60.68-19.2,25.45-4.55,51.67-2.68,77.07-8.79,21.92-5.28,42.19-17.6,64.88-20.49ZM567.03,642.33c-7.17-4.15-16.97-1.89-23.3,2.85-2.15,1.61-5.74,7.07-6.5,7.48-2.23,1.23-5.76.11-8.37.61-6.52,1.26-12.94,4.02-16.58,9.87,5.1.29,7.89-4.18,12.76-5.7,4.79-1.5,10.5-.51,13.96-1.94,1.8-.74,3.87-5.73,5.72-7.34,2.46-2.14,10.8-5.02,14-4.99,3.66.03,9.78,5.02,8.31-.84ZM439.9,655.19c-1.54.06-5.54,11.3-2,12.94,2.11-.03,5.51-11.09,2-12.94ZM435.41,668.14c-1.63-4.86-3.19-9.87-8.47-11.97-1.86,1.45-1.25,1.14-.71,2.66.85,2.4,5.78,11.8,9.18,9.31ZM450.38,658.17c-1.99-1.92-10.41,6.91-8.97,9.98,3.04,2.83,9.93-9.05,8.97-9.98ZM385.84,696.82c-1.66-3.89-1.67-10.88-7.34-11.68.37,3.5,4.33,18.93,8.98,13.97.91-2.31-1.45-1.85-1.64-2.28ZM394.47,685.14c-2.66-2.09-8.64,12.89-4.47,14.97l4.74-11.29c.6-.69-.12-3.56-.27-3.67ZM518.97,688.45c-1.33-1.18-4.58-1.79-4.67.18-.03.74,2.79,3.51,3.36,4.61,1.53,2.97,1.59,7.91,5.6,6.88,1.52-1.51-2.67-10.23-4.29-11.67ZM531.24,687.13c-3.1-3.05-8.67,11.66-4.49,13.96,1.86-.03,5.02-13.43,4.49-13.96ZM404.45,690.13c-5.16-.69-9.48,4.99-8.97,9.98,2.41.45,2.51-.23,3.85-1.63.6-.63,5.61-7.92,5.12-8.35ZM540.22,690.13c-1.85-1.86-12.55,7.99-7.48,10.96,1.05-1.81,9.17-9.27,7.48-10.96ZM451.39,716.09c6.31-3.84,10.66-5.91,18.37-4.9,3.25.43,8.05,4.73,8.57.42-1.52-6.19-28.97-6.2-26.94,4.48ZM574.88,742.35c-3.57-3.68-15.07-3.33-19.69-1.8-3.27,1.08-7.64,5.56-9.83,5.99-1.52.3-3.53-.72-5.51-.46-2.96.39-15.32,8.22-12.58,10.96,4.53.15,5.9-4.81,10.25-6.22,3.82-1.23,7.02-.11,10.01-.97,1.78-.52,3.01-3.17,4.77-4.22,7.83-4.63,16.03-2.43,23.88.42.49-.48-.65-3.05-1.29-3.7Z" fill="#fff"/>
  <path d="M74.01,253.64c-3.1-3.78-9.96-2.47-14.24-3.23-2.77-.49-7.56-1.72-5.28-4.82,4.89-2.81,10.75.81,16.03.07,1.31-.18,3.37-1.08,1.52-2.53-2.98-.65-18.3-1.07-18.98-3.99-1.41-6.05,15.42-2.3,18.45-2.46.82-.04,3.51.42,2.5-1.51-2.45-4.68-19.99-.69-19.94-4.01,3.1-7.78,26.05-4.33,28.76.16,4.15,6.89-8.15,12.07.6,17.38,6.14,3.73,7.15-2.92,8.24-3.13,2.08-.41,5.75,1.81,8.3,1.06-2.78-3.35-7.81-2.88-10.44-7.02-2.17-3.42-.88-5.32-1.75-8.24-1.43-4.83-12.86-5.69-15.74-10.2,6.44-4.57,21.56.23,27.43,4.5,5.67,4.13,6.19,9.81,10.09,13.88,4.46,4.65,42.89,21.4,51.64,25.24,19.89,8.73,38.33,15.74,59.36,21.51,14.28,3.92,29.25,8.73,44.13,8.27l1.5-6.98c13.59,16.18,40.07,19.28,56.45,5.53,2.19-1.84,3.31-7.14,6.96-5.03-1.11,12.14,4.39,5.67,10.95,3.97,11.47-2.97,23.48-4.08,34.97-6.96,38.23-9.61,73.41-31.05,109.5-46.26,5.82-3.63,7.65-10.59,13.35-14.61,4.16-2.94,19.64-8.35,24.36-7.59,11.33,1.81-10.78,9.73-11.46,10.51-1.77,2.02-.67,7.99-3.96,11.74-1.61,1.84-6.73,3.17-7.01,4.27-1.01,4.04,5.94,1.14,6.8,1.64.37.21.56,1.77,1.23,2.25,6.21,4.47,11.15-2.56,8.29-9.17-.79-1.81-6.72-4.12-.89-9.27,4.17-3.68,26.14-9.87,27.5.05-3.37.91-18.27,1.27-19.96,3.02-1.42,1.47,1.31,2.57,2.62,2.62,6.23.25,14.29-4.63,20.32.86,0,3.44-16.9,4.84-19.95,4.5v2.99c3.27,1.26,15.81-3.12,16.97.51.57,1.79-.21,2.49-1.71,3.26-3.18,1.64-16.16,2.11-17.24,3.23-.72,4.04,6.05.94,8.47.92s6.44-.23,5.03,3.1c-2.02,3.07-17.04,5.66-21.01,5.95-5.64.41-17.75-1.65-21.49-.53-6.97,2.08-28.21,21.37-36.17,26.75-29.15,19.67-64.24,30.95-95.09,47.7-3.18.95,1.05-7.09,1.69-8.3.91-1.72,4.79-5.78,4.8-6.17s-1.48-1.7-2.46-1.49c-1.31.29-5.88,6.68-6.69,8.3-5.86,11.72-4.56,35.22-6.95,48.98-.8,4.63-2.9,8.54-3.6,12.38-1.51,8.24-1.9,16.82-3.39,25.07-4.25,1.91-9.16.5-13.27,1.21-24.66,4.24-40.61,4.67-65.82,1.81-3.14-.36-20.28-2.59-21.39-4.08-2.5-17.04-5.06-34.14-7.18-51.24-1.07-8.63-.58-39.57-10.52-42.42-3.78-.06,1.96,6.24,2.74,8.25.47,1.2,2.11,8.26,1.77,8.71-30.96-12.53-64.3-25.5-92.15-44.13-7.55-5.05-37.39-29.81-43.09-29.88-6.88-.08-14.05,1.77-21.86.98-4.31-.44-17.31-2.35-16.59-7.87h13.98ZM298.64,358.52v-23.97c-.73.02-2.99,2.3-2.99,2.5v21.47h2.99ZM260.47,355.28c3.55-3.4-3.47-8.05-5.6-4.59-2.45,3.97,2.52,7.53,5.6,4.59ZM339.27,349.69c-4.59,1.33-1.98,6.6,1.59,5.72s3.81-7.28-1.59-5.72ZM281.67,369.51c-3.43-.24-7.07.34-10.47-.02-2.24-.24-17.54-4.73-17.47-1.48,2.7,3.39,26.86,5.63,27.94,4.49v-2.99ZM342.56,366.51c-.68-.71-16.1,1.83-19.47,1.99-1.54.07-3.95-.95-3.48,1.48,6.74,4.18,15.63-.74,22.96-.49-.13-.81.19-2.77-.01-2.99Z" fill="#fff"/>
  <path d="M245.73,609.22v33.96l-58.42,7.08-1.36-.21c-1.93-1.26-1.22-16.46-9.61,1.13-3.43-.02-5.32-11.74-9.47-5.03,3.67.54,4.35,4.8,5.96,7.53-.13,1.45-13.99,3.67-16.57,4.35-19.75,5.23-43.61,9.02-62.05,14.83-16.6,5.23-30.47,16.93-48.1,20.79-7.38,1.62-14.7,1.71-22.21,3.75-6.89,1.87-13.04,5.46-19.75,7.71v-88.4c0-2.04,10.23-9.29,13.56-9.43,7.28-.3,13.03,10.29,12.39,16.33-.26,2.4-3.15,3.91-.47,5.58,1.4.27,5.49-6.01,12.77-3.79,4.37,1.33,3.22,9.74,5.18,9.77,9.79-7.53,14.92-1.67,15.56,8.92,4.8.79,7.14-3.76,12.15-2.74,5.17,1.06,4.57,6.9,5.74,10.81,3.47-.64,3.2-3.2,7.44-3.06,7,.22,4.69,5.77,7.04,7.06,2.49,1.37,1.43-4.88.97-5.97-2.61-6.05-11.65-2.97-12.52-3.48s-1.79-3.73-2.92-5.04c-4.26-4.94-9.6-4.13-14.98-1.48.68-14.38-14.46-9-17.82-11.15-.29-.18-1.21-3.55-2.58-4.9-3.71-3.65-9.18-2.68-13.54-.93,1.51-17.57-15.98-24.65-27.96-11.99v-64.92c12.68-3.51,23.74-10.76,37.48-10.02,17.27.93,37.13,15.19,54.87,15,3.15-.03,6.8-1.84,10.03-1.99,17.08-.81,47.24,21.55,62.68,30.15,24.34,13.55,48.51,25.92,76.54,29.79ZM71.01,579.25c.52-10.93-12.55-10.74-19.29-15.15-3.1-2.03-5.31-5.92-8.3-7.67-5.33-3.13-11.43-1.99-17.33-2.14v2.99c7.07-.57,17.09.84,22,6.47,1.22,1.4,1.42,3.7,2.65,4.59,2.33,1.69,8.01,1.73,11.36,3.37,4.43,2.16,4.55,6.43,8.92,7.55ZM177.83,609.22c.41-2.43-.11-2.51-1.64-3.84-1.7-1.49-14.45-8.72-16.6-9.36-5.37-1.6-9.69.66-12.02.08-.59-.15-6.6-6.9-8.73-8.28-5.76-3.74-12.04-5.15-18.9-4.56-.46,2.69.48,1.73,2.17,2.27,6.28,1.98,11.88,1.9,17.29,6.72,1.9,1.7,4.68,7.21,7.21,7.86,1.93.5,3.82-1.53,5.85-1.84,10.02-1.51,15.92,10.8,25.38,10.95ZM106.95,613.21c2.5-2.32-12.9-10.38-14.69-10.75-4.55-.95-7.79,1.03-10.73.75-3.38-.32-9.9-6.8-15.5-2.97-2.29,2.37,6.43,2.29,7.8,2.67,2.64.73,6.86,3.97,7.85,4.11,1.38.2,3.11-1.51,4.89-1.77,7.91-1.14,13.15,6.45,20.39,7.96ZM61.03,681.13c1.75-1.75-4.22-8.84-6.44-10.03-7.44-4.01-11.75.85-14.87-.06-1.67-.49-3.95-7.04-10.58-8.43-4.36-.91-15.16.66-16.84,5.24-.41,1.12-1.01,3.85,1.29,3.3,8.18-9.45,19.57-6.34,24.45,4.56,1.27.61,11.16-6.4,17.02-.08.89.95,3.51,7.97,5.96,5.51Z" fill="#fff"/>
  <path d="M531.3,614.18c-1.23-5.43-4.06-10.9-9.1-13.5,5.43-5.49,2.57-16.99-4.19-19.67-4.82-1.91-13.42-2.75-14.57,3.98-.32,1.88.73,3.35.65,4.76-.38,6.22-3.06,9.21,4.16,12.97-4.08,5.14-5.96,10.87-5.96,17.48l-4.88-.09c-1.2-11.59-6.24-17.68-14.98-24.58,3.48-5.85.85-7.39.2-11.9-.26-1.83,1.32-3.19-.02-6.11-3.08-6.72-19.8-3.86-21.09,3.49-.54,3.05,1.38,4.31,1.79,6.8.36,2.14-.25,4.5.25,6.73.39,1.73,2.51,3.53,2.51,4.2,0,.57-5.02,7.32-5.99,9.7-2.02,4.95-2.93,10.34-2.81,15.67l-10.73.96c-1.3-2.71-.9-5.78-1.9-8.58-1.07-2.99-5.27-6.95-5.8-9.21-.76-3.25-1.25-6.76-2.2-10.75-.61-2.57.19-5.37-.88-8.03-1.92-4.8-15.35-4.81-17.11,1.46-.53,1.89.13,3.97-.25,5.74-1.23,5.72-.58,5.29-.96,10.01-.3,3.68-9.01,14.03-5.98,20.51l-62.9-10.99.45-61.99,2.2-2.8c13.62-6.23,26.04-14.73,39.27-21.63,7.66-4,24.67-13.58,32.46-14.46,14.51-1.65,29.39,8.18,42.41,13.48-.02,4.17-23.13,13.71-25.46,16.46-.6.72-.95,1.98.04,2.03,2.11-.33,4.49-.74,6.46-1.52,7.93-3.17,22.52-14.35,30.28-19.65,15.77-10.78,50.97-39.8,68.31-42.52,17.19-2.7,31.59,8.2,44.02,18.4l1.02,94.58c-.85,2.6-4.91,1.32-7.22,1.76-18.04,3.46-33.77,12.44-51.48,16.82Z" fill="#fff"/>
  <path d="M4.13,414.45c24.62-12.3,38.27-3.19,56.92,12.47,16.92,14.22,31.67,31.05,47.89,45.97,10.76,9.9,22.12,19.22,33.46,28.45v-3.98s-26.46-23.97-26.46-23.97c17.9-6.87,25.67-9.83,43.61-1.2,30.8,14.81,56.94,43.11,86.17,60.61v71.91c0,2.78-13.24-1.2-13.76-1.72-.77-.77-1.02-5.91-3.18-8.3-3.45-3.82-8.98-1.79-9.91-2.58-.5-.42-1.82-7.78-6.59-10.88-5.26-3.42-9.85-.61-11.48-1.44-1.99-1.01-3.8-6.81-7.93-8.1-5.42-1.69-9.86,1.59-12.14,1.07-3-.67-4.3-5.35-9.39-5.58-4.16-.19-7.87,3.26-10.73,2.89-1.5-.19-8.1-3.96-10.03-5.02-8.81-4.87-16.72-11.68-26.48-14.95l1.83-25.81c2.38.87,12.37,2.24,12.97-.52-1.65-5.73-9.01-1.63-11.97-4.98v-15.48c-6.05-.97-4.21,10.58-4.99,14.98h-13.98l-1.01,3.98,13.04,2.62-2.05,22.36c-9.3-2.38-18.12.91-27.35-.11-9.12-1.02-18.45-6.45-27.56-7.88v-37.46l1.5-1.5h17.97c2.24-1.72,2.24-5.27,0-6.99h-19.47v-18.48c0-.46-1.85-3.16-2.61-3.39-1.04-.7-3.38.67-3.38,1.39v20.48h-19.97v7.99h19.97v34.96c-4.92-.03-9.77-2.42-14.6-2.87-14-1.32-25.69,5.03-38.31,9.87v-128.85Z" fill="#fff"/>
  <path d="M4.13,710.6c15.06-13.12,35.52-10.74,53.15-16.74,10.15-3.45,18.48-9.69,28.04-13.9,15.37-6.77,30.08-7.88,46.02-11.89,14.93-3.76,30.14-11.19,45.56-10.37l5.44-10.52c1.73,1.54-1.35,7.03,1.99,7.02,6.52-.02,18.51-3.9,26.08-4.9,11.66-1.53,23.57-2.18,35.31-2.13v59.93c-11.14.33-22.75,4.58-32.25,10.19-4.57,2.7-8.95,7.69-13.85,9.11-10.66,3.1-19.7.61-31.45,5.49s-17.06,13.04-26.26,20.67c-12.25,10.16-22.46,7.83-35.63,13.29-15.4,6.39-23.64,21.23-40.5,26.41-11.28,3.46-21.29,4.32-32.67,9.26-10.35,4.5-18.94,11.52-28.98,16.45v-107.37ZM206.79,686.12c-5.99-6.95-25.18-5.28-26.94,5,8.7-6.13,16.73-6.17,26.94-5ZM110.95,710.11c1.97-3.22-6.83-20.04-9.97-16.98l6.89,16.38,3.08.6ZM118.93,694.13c-.11-.11-2.84-.42-3.08.59-1.43,4.68-3.34,9.38-2.9,14.39h2.98c-.84-2.59,4.16-13.85,3-14.98ZM128.92,699.12c-2.83-2.45-11.87,7.1-9.97,10.98l3.43-1.06,6.55-9.92ZM51.05,759.04c1.88-2.12-7.28-22.38-13.97-19.97-.57,4.23,3.62,4.64,5.84,7.63,2.86,3.87,2.8,11.43,8.13,12.33ZM63.03,739.07c-6.18-.36-8.49,11.11-8.74,15.8-.32,5.97,2.55,5.6,4.06-.02.69-2.57.61-5.19,1.37-7.63.89-2.83,3.76-4.8,3.32-8.15ZM62.04,759.04c5.19,1.08,4.5-2.51,6.54-4.93.76-.9,7.53-6.37,3.92-7.05-4.38-.82-11.75,10.74-10.46,11.98Z" fill="#fff"/>
  <path d="M66.03,116.8c13.26-3.37,26.52-9.21,39.62-1.19,12.38,7.58,9.56,17.94,7.31,30.16,7.22-5.84,16.09-11.9,25.66-7.2,8.86,4.35,8,11.9,9.28,20.19,9.13-6.01,31.25-1.42,25.19,12.73-2.87,6.72-22,8.61-28.71,9.23-23.3,2.14-47.64.74-70.81-2.01-19.29,14.69-46.63,10.96-68.46,4.53l-.49-140.36c26.34-14.59,56.44-4.65,67.17,23.7,3.4,8.98,5.53,18.63,3.76,28.29-1.44,7.86-6.97,14.53-9.53,21.92Z" fill="#fff"/>
  <path d="M590.15,164.25c-.88,1.42-1.99,1.38-3.44,1.55-17.07,2.01-35.86-1.05-52.91-1.1-26.69-.08-76.69,5.37-100.2-.64-9.79-2.5-8.52-10.04-1.13-14.75,7.22-4.61,15.08-1.81,22.91-1.56-5.3-18.19,17.28-25.96,29.94-14.97-1.49-12.74-1.44-22.6,10.3-30.16,11.07-7.13,21.06-5.37,32.64-.81.32-6.19-4.13-9.95-5.69-15.77-8.67-32.49,26.1-57.87,56.29-47.33,2.37.83,11.29,5.16,11.29,7.68v117.86Z" fill="#fff"/>
  <path d="M563.19,272.62c-.49,3.4,1.47,8.9-1.66,10.83-1.83,1.13-17.1,2.04-20.76,2.21-24.19,1.08-49.09-2.45-73.42-1.06,6.71-5.08,22.41-20.93,29.95-22.54,3.59-.77,9.32,1.66,13.47,1.67,5.12.02,27.66-3.76,29.95-8.09,1.05-1.98-.03-4.47.7-5.79.39-.7,3.93-1.41,4.85-2.91,1.71-2.81-.35-4.69.1-6.58.31-1.32,2.53-2.07,2.87-4.23.72-4.51-2.77-3.94-3.05-5.15-.44-1.86.54-3.92-.49-6.29-2.67-6.12-15.55-4.47-16.32-5.16-.59-.53-.4-4.63-3.85-5.63-9.31-2.71-28.51,4.35-34.76,11.74-2.47,2.92-2.91,7.03-4.92,9.07-1.55,1.58-9.22,4.84-11.85,6.12-23.15,11.3-52.24,24.9-76.3,33.53-11.54,4.14-23.38,7.01-35.18,10.24,1.4-3.58,2.9-7.24,2.71-11.22-.32-6.89-6.4-9.53-5.8-16.25.35-3.95,3.65-5.33,4.8-8.26,7.17-18.26-10.86-27.27-10.74-42.66l208.02-1.35c4.1,1.38,2.9,14.62,1.77,18.24-1.19,1.69-9.42-2.3-9.08,2.57l9.84.16-1.79,27.38c-2.44,1.7-9.54-1.76-9.04,2.43l9.98-.99v14.98c-8.5.76-19.24-.06-27.47,1-1.82.23-1.61-.34-1.48,2h28.95ZM447.89,217.69c9.61.31,19.33,0,28.95,0,.69,0,5.56-.78,7.02-.97s3.07-.15,3.46-2.02c-13.94.44-28.16.47-41.93,2,.73,2.78,1.99.97,2.49.99ZM443.39,227.68l-67.44-2.06-3.45,2.54c15.09,2.01,30.27,1.25,45.47,1.47,7.58.11,19.28,4,25.42-1.95ZM383.99,246.65c9.32-.53,19.51,0,28.95,0,.17,0,1.57-1.35,1.5-1.99-11.59-1.53-23.53-1.73-34.94,1-.59,4.15,3.28,1.05,4.49.98ZM395.97,264.63c-5.94-.8-13.34.58-19.47,0v1.99c1.56-.65,3.72,1.01,4.49,1.01h18.47v-1.99c-1.34.43-2.69-.9-3.49-1.01ZM497.3,281.61h40.43c.86,0,3.44-3.37-1-3.48-5.81-.14-34.97-.16-38.19,1.22-1.44.61-1.49.26-1.24,2.26Z" fill="#fff"/>
  <path d="M239.74,204.7c-3.1,12.81-11.63,23.16-16,35.54,0,4.61,6.84,14.69,6.91,17.87.13,6.04-10.32,16.51-2.89,25.48-24.1-3.72-47.18-12.95-69.24-23.1-10.22-4.7-34.93-15.33-42.93-20.98-7.4-5.23-7.83-14.75-20.62-20.32-6.44-2.8-28.08-8.68-25.94,3.48-10.72-.23-19.88,2.19-20.01,14.54-.02,2.38.9,6.59,1.13,9.87.38,5.44,5.91,4.32,6.73,5.71.89,1.5-.94,4.37,1.6,6.9,3.32,3.3,21.94,5.95,27.01,6s11.63-2.88,15.53-1.65c5.04,1.59,18.47,14.47,22.92,18.55l-88.29,1.02c-5.35-.81-3.2-8.23-3.56-12h34.44c1.68,0,5.98,3.11,7.49-.99-1.87.85-4.58-1.01-5.49-1.01h-36.44v-24.97l8-.5-7.87-3.13-.13-18.35h21.96c.13-2.33.35-1.77-1.48-2-3.36-.42-18.94-.31-20.55-1.43-2.54-2.13-.25-14.55,2.56-14.55h205.16ZM219.76,222.69l-97.82-3c-.19,2.5-.24,1.71,1.5,1.97,16.79,2.48,34.05.09,50.95.98,13.17.7,30.28,5.69,43.07,2.18,1.71-.47,2.78.72,2.3-2.13ZM206.29,236.66c-13.01-1.33-30.37,0-43.93,0-.27,0-1,1.15-1.48,1.5.48.35,1.21,1.5,1.48,1.5h50.42v-1.99c-2.39.9-4.9-.84-6.49-1ZM217.77,261.63l-2.5-2.99c-11.65.75-24.49-1.02-35.99-.06-2.26.19-4.66-.13-4.44,3.05h42.93Z" fill="#fff"/>
  <path d="M258.7,765.04l-9-2.48c-1.1-.74-.9-1.86-1.04-2.96-1.48-11.99.94-25.04,1.1-36.96.8-58.42-.71-116.92-.04-175.33l3.88,14.58c-.02,12.88.01,25.73,2.57,38.38,2.84,14.04,14.18,34.18,14.54,46.47.3,10.23-9.24,36.45-3.06,43.92,1.56,1.88,14.34,6.57,17.49,7.47,11.54,3.3,30.09,1.97,39-6.96,3.39-3.39,2.8-15.61,2.44-20.51-.55-7.38-5.09-18.73-4.73-24.74.56-9.48,11.71-32.36,14.43-44.49s3.86-24.6,3.37-37.58l5.9-20.55-1.12,221.1c-.77,2.3-8.3,2.08-10.84,2.63.22-8.81-.29-17.69-.05-26.51.11-3.98,3.31-10.59-.95-13.44l-1.98,41.25-17,4.69-1.01-61.92c-4.2-.63-.99,3.44-.99,4.49v57.93c-7.85,4.41-16.39-3.63-25.47-4.48-6.36-.6-13.35,2.32-16.93,1.97-2.41-.24-5.43-4.13-8.52-3.98v-124.35c0-.17-1.35-1.57-2-1.5v123.85ZM337.57,709.6v-77.91c0-.12-1.45-2-2-1.01-2.87,2.04-.03,25.21.05,29.93.28,17.88-1.06,35.63-1.04,53.48,2.15,1.01,2.89-3.6,2.99-4.49ZM281.66,708.11c-1.23-1.62-1.81.02-1.99,1.47-.62,4.86.29,10.95.04,16.04-.42,8.6-1.71,17.22-1.09,25.98.12,1.71-.1,3.3,1.56,4.44l1.49-47.93Z" fill="#fff"/>
  <path d="M590.15,315.57v79.91l-103.36,1.04c-30.94-9.35-65.09,1.79-95.72-3.12-15.89-2.55-6.49-18.49,7.92-16.94,2.86.31,4.63,2.22,7.46,2.03-1.43-8.73-2.02-13.3,6.46-18.01,12.18-6.76,33.68-2.85,33.51,13.99,6.89-1.64,9.94-3.52,16.43,1.03-.03-21.48,28.11-30.21,42.94-17.01,2.79-2.02-.19-5.68-.39-8.58-1.36-19.7,12.88-32.97,32.36-32.41,12.97.37,19.59,8,27.41,17.03,1.94-12.6,12.16-20.58,24.97-18.98Z" fill="#fff"/>
  <path d="M290.64,685.14c-4.81.18-3.19,7.99-1.99,10.97-2.87,2.1-6.49-5.84-6.75-7.7s5.14-8.77-2.08-3.62l-.17,9.33c-5.05-2.61-4-8.19-3.99-12.98-2.94-3.87-1.65,8.62-2,8.98-2.84.57-4.19-1.2-4.76-3.71-2.3-10.07,3.28-22.4,4.62-31.88,2.83-19.99-14.88-46.49-16.81-68.8-.75-8.66.69-18.12-.14-26.83-1.59-16.72-11.42-33.21-9.87-50.57,5.25-.05,11.16-.38,16.35-1.12,7.37-1.06,25.79-7.84,30.92-4.7,2.6,1.59,1.88,10.07,1.64,13.3-1.22,16.17-3.76,34.71-2.97,50.95.46,9.36,3.8,19.63,4.02,28.93.31,13.2-2.54,27.73-2.07,41.04.55,15.8,8.24,39.23,5.79,53.66-2.21,13-12.99,6.07-9.75-5.25ZM279.83,560.44c-.42.26-.75,3.04-2.18,4.3-5.41,4.75-12.43-2.46-11.97-8.46-5.67,3.77,1.79,12.34,6.59,12.96,6.66.87,7.25-3.81,11.38-7.48.7-2.37-3.23-1.69-3.83-1.32Z" fill="#fff"/>
  <path d="M363.53,139.78h-130.28c-5.02-6.88-1.27-16.01-1.43-23.48-.11-5.37-3.83-31.35-.14-34.02l131.91-.99c3.16,2.2-1.24,51.03-.06,58.49ZM249.33,92.89c-.71.13-2.07,1.82-2.48,2.57-1.84,3.35-1.93,31.6.37,34.33,1.69,2.01,4.97,1.53,5.49-1.5,1-5.77,2.18-28.66-.12-32.83-.57-1.03-1.94-2.81-3.26-2.57ZM292.65,93.83c-1.48-.64-5.99-1.62-5.99.5v21.47c-2.05.17-4.31-3.59-5.41-5.08-4-5.48-9.3-21.18-17.56-15.39v32.96c0,1.98,5.99,1.98,5.99,0v-22.47c7.25,4.16,11.18,18.73,17.41,23.05,2.31,1.6,5.55-.13,5.55-1.57v-33.46ZM322.1,92.83c-4.87-.87-11.81.63-16.97,0l-1.5,1.5v33.96c0,1.27,3.56,2.14,5.07,1.07,1.95-1.38.48-9.89.92-12.56,10.03-3.15,10.65,8.75,15.58,11.88,3.29,2.08,6.97,1.84,5.65-2.58-.88-2.96-7.64-8.94-7.23-10.72,10.56-5,10.79-20.36-1.52-22.55ZM341.56,94.33v34.96c0,.25,1.52,1.87,2.33,1.37,1.86-.71,3.26-1.24,3.66-3.36.56-2.97.48-29.39-.21-31.76-.84-2.87-5.07-3.74-5.78-1.21Z" fill="#fff"/>
  <path d="M346.56,511.33c1.55,1.57-4.18,29.85-5.1,34.36-.37,1.82-1.87,3.23-2.21,4.78-4.92,22.46-2.71,45.68-10.21,67.69-2.63,7.73-9.73,18.95-10.36,26.65-.64,7.94,4.29,19.12,4.89,27.84.38,5.41,1.48,14.56-3.97,17.46.12-1.2.36-10.04-2.49-8.98s3.07,14.13-5.5,12.97c-.77-.81,1.45-8.44-1.5-9.96-2.22-.09.42,8.2-1.74,10.71-1.01,1.18-4.18,1.28-5.74,1.25,2.49-15.8-2.67-31.7-3.99-47.45-2.4-28.67,1.77-54.85,2.02-82.85.08-8.44-1.84-16.84-2.07-24.97-.35-12.14.34-24.36.05-36.49l47.92,6.98ZM330.58,558.29c-4.32.32-4.21,6.15-8.52,6.97-5.23,1-6.39-1.16-8.96-4.97-3.13-1.6-.67,5.08,1.99,7,8.62,6.23,17.24-7.01,15.49-9Z" fill="#fff"/>
  <path d="M4.13,341.54c3.79-1.06,6.22-2.25,10.35-1.91,5.5.46,7.67,4.19,12.61,4.9-2.14-15.29,9.1-18.24,20.96-11.99-2.7-26.21,41.1-33.92,51.31-11.88,3.42,7.39,1.13,15.32-.38,22.87,6.92-4.59,15.96-9.64,23.47-3.01,5.1,4.5,2.27,8.4,3.49,14,19.69-8.65,42.59,12.84,9.46,14.97H4.13s0-27.95,0-27.95Z" fill="#fff"/>
  <path d="M258.71,478.39c-.9,3.38,4.25,1.93,6.21,1.71,25.45-2.89,52.7-22.87,69.64-41.19,8.37,1.83,2.6,15.36-.57,20.4-10.68,17-35.17,34.73-54.32,40.54-7.53,2.28-34.11,8.66-39.41,2.48-5.71-6.65-1.6-52.29.54-62.88,31.49,7.65,63.96-.61,93.78-11.02,3.3,4.6-9.8,16.62-12.95,19.49-17.5,15.93-39.33,26.97-62.9,30.47Z" fill="#fff"/>
  <path d="M292.55,221.76c-.56-.35-2.02.04-2.9-.08,3.58,11.46-4.85,21.72-2.01,32.93-8.2,1.12-14.11,6.09-19.45,12-14.75-15.6-14.37-36.88-12.02-56.96.39-.58,11.53-4.8,12.99-4.98,12.66-1.57,44.92-1.22,57.97-.02,3.72.34,6.34,1.23,8.23,4.75,1.47,18.52,3.05,42.98-12.27,56.21-8.3-11.54-19.56-10.31-32.01-12.9-2.66-5.1,5.4-28.46,1.47-30.95ZM287.65,215.71c-1.45-2.15-20.59.67-23.33,2.9-.95.77-.82,2.87-.62,3.07,1.18,1.2,28.31.5,23.96-5.97ZM306.63,214.7c-.07,1.36-.17,2.73.48,4,1.28,2.51,20.62,6.79,23.45,2.49.38-5.16-20.13-5.92-23.93-6.49ZM267.18,230.7c-3.86,3.13,2.2,7.18,5.25,7.76,3.65.7,8.58-.53,11.13-3.39-.12-6.88-5.12-.57-8.36-.5-2.68.06-5.83-2.45-8.01-3.86ZM324.59,230.68c-2.86-.07-4.79,2.82-7.56,2.98-2.5.14-9.85-5.47-9.41-1.49.87,7.86,18.51,8.21,16.97-1.49Z" fill="#fff"/>
  <path d="M245.73,143.77v24.97h1.99c.76-1.64-.99-3.78-.99-4.49v-19.98c3.46-3.06,9.54-.88,13.98-1.5v15.48c0,.17,1.35,1.57,2,1.5v-16.98h61.9v14.98h1.99s-.99-13.98-.99-13.98h15.97v17.48c0,1.34,2.06,5.09,1.01,7.49h.99s0-24.97,0-24.97h13.98v57.93c-1.66-.1-4.32.62-5.52-.97-.9-1.19-3.53-11.48-5.66-15.31-8.78-15.74-14.71-11.37-27.77-17.16-3.57-1.58-5.39-4.52-9.95-6.02-20.43-6.74-53.9,4-64.09,23.81-2.65,5.14-2.36,9.97-4.04,13.94-.59,1.4-1.17,2-2.77,1.73v-58.93l7.99,1Z" fill="#fff"/>
  <path d="M332.51,425.35c-4.2,1.45-8.16,3.66-12.37,5.11-16.4,5.68-59.08,13.03-74.7,6.74-9.03-3.63-4.8-16.08-2.1-22.83,8.27.58,15.78,3.81,23.98,4.93,15.99,2.19,32.7,2.09,48.78,1.12,6.67-.41,16.38-5.38,16.41,4.92Z" fill="#fff"/>
  <path d="M348.55,618.21l72.89,14.48c-23.28,10.18-47.27,15.74-72.89,15.48v-29.96Z" fill="#fff"/>
  <path d="M339.57,502.35l2.95-60.25,7.09-1.25.94,16.04,3.48,18.47c2.09-1.37,1.34-2.3,1.23-4.18-.49-8.66-2.68-22.23-1.77-30.29.17-1.49.2-3.08,2.02-3.46l8.98,55.36c-6.84,6.26-16.16,7.88-24.93,9.56Z" fill="#fff"/>
  <path d="M338.56,459.4l-1.79,43.24c1.99,6.76,16.54-.95,18.77.71-.93,2.49-2.53,4.76-5.44,4.84-6.27.18-17.32-1.13-23.88-1.99-11.35-1.47-22.3-5.08-33.57-6.87l27.96-19.45c6.41-5.41,10.61-12.7,15.67-19.23.64-.83-.01-1.83,2.28-1.26Z" fill="#fff"/>
  <path d="M228.75,602.23c-23.65-5.04-43.5-19.17-64.88-29.46,7.96-8.11,12.33,2.54,15.67,3.34,1.99.48,4.64-1.52,6.88-1.79,11.9-1.4,10.49,10.36,12.94,10.89,4.93-1.69,6.07-4.58,11.37-1.41,6.09,3.64,2.4,8.29,6.03,12.95,6.16-4.31,10.68-1.7,11.98,5.46Z" fill="#fff"/>
  <polygon points="337.57 77.85 313.61 77.85 312.61 58.87 336.07 58.87 337.57 60.37 337.57 77.85" fill="#fff"/>
  <path d="M311.61,59.87l-1,17.98h-24.96v-16.48c0-.3-1.26-.77-1-1.5h26.95Z" fill="#fff"/>
  <path d="M292.39,264.87c6.79-1.06,18.75.1,19.68,8.6,1.22,11.04-10.71,5.1-15.97,5.31-4.48.18-7.89,4.19-13.42.31-8.69-6.11,3.21-13.21,9.7-14.22ZM303.62,274.61c1.69-6.96-14.33-5.2-14.96-2.48-.94,4.03,12.39,1.17,14.96,2.48Z" fill="#fff"/>
  <path d="M333.58,416.46c10.37-1.5,13.49,2.27,14.98,11.98,4.03-2.46.13-10.15-2.01-12.97,12.28-.75,12.01,17.1,1.8,21.27-13.54,5.53-9.87-3.58-12.04-12.53-.65-2.67-3.15-4.7-2.73-7.75Z" fill="#fff"/>
  <path d="M324.59,201.71h-51.91c1.2-1.07,7.02-6.82,7.62-6.93,1.43-.24,2.62,2.12,4.08,2.71,10.59,4.26,23.13-4.93,29.73-12.74l10.48,16.96Z" fill="#fff"/>
  <path d="M357.54,77.85h-17.97v-14.48c0-.51-1.57-2.1-1-3.5h17.47c4.44,5.52,1.11,11.8,1.5,17.98Z" fill="#fff"/>
  <path d="M265.69,59.87v17.98h-15.47c-2.97-4.93-2.43-12.17-2.5-17.98h17.97Z" fill="#fff"/>
  <rect x="267.69" y="59.87" width="15.97" height="17.98" fill="#fff"/>
  <path d="M245.73,59.87l.89,17.87-8.88,1.11c.47-8.65-6.16-21.13,7.99-18.99Z" fill="#fff"/>
  <path d="M250.71,252.64c-8.8.42-10.31-21.72-4.47-22.96,4.68-1,4.55,19.92,4.47,22.96Z" fill="#fff"/>
  <path d="M341.57,250.64l2.01-20.33c10.34-1.22,5.82,18.63-2.01,20.33Z" fill="#fff"/>
  <rect x="296.65" y="559.29" width=".98" height="5.98" fill="#fff"/>
  <path d="M484.34,440.42c20.59-9.97,38.63,20,10.21,24.71-27.8,4.61-59.3-1.95-87.6.26-20.43-4.24-6.15-22.1,8.84-18.09,4.16-8.39,12.55-11.48,21.13-6.93,1.94-2.15,1.8-5,3.27-7.66,8.98-16.21,43.09-14.06,44.15,7.7ZM481.37,445.39c-.7-10.02-4.12-17.63-14.96-19.5-14.34-2.47-26.27,5.26-26.02,20.52-2.89-.11-3.64-2.98-6.41-4.06-7.05-2.76-14.65,1.14-14.56,9.06-4.43-.78-8.46-1.72-13-.53-4.11,1.08-8.45,6.12-4.52,9.57,2.18,1.91,15.12,2.78,18.98,2.98,13.66.71,68.71.83,78.96-2.98,12.71-4.72,1.89-21.43-9.81-18.84-2.92.65-5.16,4.52-8.67,3.78Z"/>
  <path d="M180.83,412.46c7.6-.69,18.81-.17,22.83,7.61,6.13,11.85-10.41,13.85-18.3,14.4-13.02.9-36.06,1.16-48.83-.16-29.81-3.09-17.78-28.75,6.23-24.98,4.39-21.8,37.83-18.25,38.07,3.14ZM146.89,415.45c-2.77-.25-4.88-2.28-7.72-2.75-12.74-2.12-23.98,11.46-10.24,16.23,10.85,3.76,54.28,3.72,65.7.82,13.35-3.39,2.61-15.93-9.23-14.24-2.27.32-4.89,2.04-7.07,2.9-3.08-3.36-.41-8.19-2.24-12.69-5.39-13.29-34.79-8.65-29.2,9.73Z"/>
  <path d="M366.28,797.26c9.17-1.33,21.5-.13,26.61,8.81,8,14.01-21.66,14.7-29.76,13.8-25.32-2.82-12.77-20.29,3.15-22.61ZM367.26,800.23c-3.72.63-15.73,6.73-14.62,11.06,1.83,7.12,34.92,5.43,37.39,1.73s-1.82-8.4-4.83-10.24c-5.02-3.06-12.22-3.53-17.94-2.55Z"/>
  <path d="M177.83,802.99c-12.36-16.19-40.43-17.89-55.84-5.43-.52.42-8.15,10.34-8.03,4.93.02-.7,5.78-7.01,6.96-8,14.03-11.81,51.85-13.91,56.9,8.5Z"/>
  <path d="M245.84,807.88c1.06.58,15.71-6.04,22.7,2.75.71.89,3.1,4.86.63,5.34-1.82.36-4.75-4.45-6.55-5.41-6.16-3.29-12.06.46-18.24,1.49-3.94-8.59-13.57-11.3-21.88-6.83-3.02,1.62-4.78,5.77-8.71,5.75,4.16-12.93,20.85-13.76,30.48-5.99,1.01.82,1.43,2.82,1.57,2.9Z"/>
  <path d="M221.76,754.04c-10.75-1.13-21.85-2.37-31.95,2.49-3.48,1.67-5.83,5.63-9.97,5.5,2.91-7.7,14.18-11.8,21.74-12.7,5.23-.63,18.32-1.36,20.18,4.71Z"/>
  <path d="M422.43,782.01c-5.09,1.09-5.29-3.11-7.94-5.53-6.4-5.83-11.37-5.5-17.92-9.04-3.76-2.03-5.59-5.16-8.73-7.25-2.78-1.85-8.21-1.21-7.34-6.13,7.79.32,11.97,7.49,18.44,11.01,4.06,2.2,8.8,3.03,12.65,5.33,4.66,2.78,7.41,7.62,10.84,11.62Z"/>
  <path d="M463.35,820.97l-3-.68c-.32-7.33-5.75-11.22-7.97-17.3,6.6-2.87,12.93,16.05,10.97,17.98Z"/>
  <path d="M473.34,804c1.11,1.1-4.75,13.48-2.98,16.47-.17,1.65-5.22-.28-4.84-2.78,2.31-1,3.68-17.8,7.82-13.68Z"/>
  <path d="M484.32,809.99c1.95,2.07-8.16,8.78-8.48,11.96-6.23-4.29,7-13.53,8.48-11.96Z"/>
  <path d="M567.03,642.33c1.47,5.86-4.65.87-8.31.84-3.2-.02-11.54,2.85-14,4.99-1.85,1.61-3.92,6.6-5.72,7.34-3.46,1.43-9.17.45-13.96,1.94-4.87,1.52-7.66,5.99-12.76,5.7,3.64-5.85,10.06-8.61,16.58-9.87,2.61-.5,6.15.62,8.37-.61.75-.42,4.35-5.87,6.5-7.48,6.33-4.75,16.13-7.01,23.3-2.85Z"/>
  <path d="M574.88,742.35c.63.65,1.78,3.22,1.29,3.7-7.85-2.85-16.05-5.05-23.88-.42-1.76,1.04-2.99,3.7-4.77,4.22-3,.86-6.19-.26-10.01.97-4.35,1.41-5.72,6.37-10.25,6.22-2.74-2.74,9.62-10.58,12.58-10.96,1.99-.26,3.99.76,5.51.46,2.19-.43,6.56-4.91,9.83-5.99,4.63-1.53,16.12-1.88,19.69,1.8Z"/>
  <path d="M451.39,716.09c-2.02-10.68,25.42-10.67,26.94-4.48-.52,4.31-5.32,0-8.57-.42-7.71-1.01-12.06,1.06-18.37,4.9Z"/>
  <path d="M385.84,696.82c.18.43,2.55-.03,1.64,2.28-4.64,4.97-8.6-10.46-8.98-13.97,5.67.8,5.68,7.8,7.34,11.68Z"/>
  <path d="M435.41,668.14c-3.39,2.49-8.32-6.91-9.18-9.31-.54-1.52-1.15-1.21.71-2.66,5.28,2.11,6.84,7.11,8.47,11.97Z"/>
  <path d="M518.97,688.45c1.62,1.44,5.81,10.16,4.29,11.67-4,1.03-4.06-3.91-5.6-6.88-.57-1.1-3.39-3.87-3.36-4.61.08-1.97,3.33-1.36,4.67-.18Z"/>
  <path d="M394.47,685.14c.14.11.87,2.99.27,3.67l-4.74,11.29c-4.17-2.07,1.81-17.06,4.47-14.97Z"/>
  <path d="M531.24,687.13c.53.52-2.63,13.93-4.49,13.96-4.18-2.3,1.38-17.01,4.49-13.96Z"/>
  <path d="M404.45,690.13c.49.43-4.52,7.72-5.12,8.35-1.34,1.4-1.44,2.08-3.85,1.63-.51-4.99,3.81-10.66,8.97-9.98Z"/>
  <path d="M450.38,658.17c.96.92-5.93,12.81-8.97,9.98-1.43-3.07,6.99-11.89,8.97-9.98Z"/>
  <path d="M540.22,690.13c1.69,1.69-6.43,9.15-7.48,10.96-5.07-2.97,5.63-12.82,7.48-10.96Z"/>
  <path d="M439.9,655.19c3.51,1.85.11,12.91-2,12.94-3.54-1.64.46-12.88,2-12.94Z"/>
  <path d="M281.67,369.51v2.99c-1.08,1.14-25.24-1.1-27.94-4.49-.08-3.25,15.23,1.24,17.47,1.48,3.41.36,7.04-.22,10.47.02Z"/>
  <path d="M298.64,358.52h-2.99v-21.47c0-.2,2.26-2.48,2.99-2.5v23.97Z"/>
  <path d="M342.56,366.51c.21.21-.11,2.18.01,2.99-7.33-.25-16.22,4.67-22.96.49-.47-2.43,1.94-1.41,3.48-1.48,3.37-.16,18.79-2.7,19.47-1.99Z"/>
  <path d="M260.47,355.28c-3.08,2.95-8.05-.61-5.6-4.59,2.13-3.46,9.16,1.19,5.6,4.59Z"/>
  <path d="M339.27,349.69c5.4-1.56,5.33,4.8,1.59,5.72s-6.18-4.4-1.59-5.72Z"/>
  <path d="M177.83,609.22c-9.46-.15-15.36-12.45-25.38-10.95-2.03.31-3.92,2.34-5.85,1.84-2.52-.65-5.31-6.16-7.21-7.86-5.41-4.83-11-4.74-17.29-6.72-1.69-.53-2.63.42-2.17-2.27,6.86-.59,13.14.82,18.9,4.56,2.13,1.38,8.15,8.14,8.73,8.28,2.33.58,6.66-1.68,12.02-.08,2.15.64,14.9,7.87,16.6,9.36,1.53,1.34,2.05,1.41,1.64,3.84Z"/>
  <path d="M61.03,681.13c-2.45,2.46-5.08-4.56-5.96-5.51-5.86-6.32-15.75.69-17.02.08-4.88-10.91-16.27-14.01-24.45-4.56-2.3.56-1.71-2.18-1.29-3.3,1.68-4.58,12.48-6.15,16.84-5.24,6.63,1.39,8.91,7.94,10.58,8.43,3.12.92,7.43-3.94,14.87.06,2.22,1.19,8.18,8.28,6.44,10.03Z"/>
  <path d="M71.01,579.25c-4.37-1.12-4.49-5.38-8.92-7.55-3.34-1.63-9.03-1.67-11.36-3.37-1.23-.89-1.43-3.19-2.65-4.59-4.91-5.63-14.93-7.04-22-6.47v-2.99c5.9.15,11.99-.99,17.33,2.14,2.99,1.76,5.2,5.64,8.3,7.67,6.74,4.41,19.81,4.21,19.29,15.15Z"/>
  <path d="M106.95,613.21c-7.24-1.51-12.48-9.1-20.39-7.96-1.77.26-3.51,1.97-4.89,1.77-.99-.14-5.21-3.38-7.85-4.11-1.37-.38-10.09-.29-7.8-2.67,5.6-3.83,12.12,2.65,15.5,2.97,2.94.28,6.18-1.7,10.73-.75,1.8.37,17.19,8.43,14.69,10.75Z"/>
  <path d="M206.79,686.12c-10.22-1.17-18.25-1.12-26.94,5,1.76-10.28,20.95-11.96,26.94-5Z"/>
  <path d="M51.05,759.04c-5.33-.91-5.27-8.46-8.13-12.33-2.21-2.99-6.41-3.4-5.84-7.63,6.69-2.41,15.85,17.85,13.97,19.97Z"/>
  <path d="M63.03,739.07c.44,3.35-2.43,5.33-3.32,8.15-.76,2.44-.68,5.05-1.37,7.63-1.5,5.62-4.38,5.99-4.06.02.25-4.69,2.56-16.16,8.74-15.8Z"/>
  <path d="M110.95,710.11l-3.08-.6-6.89-16.38c3.15-3.06,11.94,13.76,9.97,16.98Z"/>
  <path d="M62.04,759.04c-1.3-1.25,6.07-12.81,10.46-11.98,3.62.68-3.16,6.16-3.92,7.05-2.04,2.42-1.35,6.01-6.54,4.93Z"/>
  <path d="M118.93,694.13c1.16,1.13-3.84,12.39-3,14.98h-2.98c-.44-5.01,1.48-9.71,2.9-14.39.24-1.01,2.96-.7,3.08-.59Z"/>
  <path d="M128.92,699.12l-6.55,9.92-3.43,1.06c-1.9-3.87,7.14-13.43,9.97-10.98Z"/>
  <path d="M443.39,227.68c-6.13,5.95-17.84,2.05-25.42,1.95-15.21-.22-30.39.54-45.47-1.47l3.45-2.54,67.44,2.06Z"/>
  <path d="M497.3,281.61c-.25-2-.2-1.65,1.24-2.26,3.22-1.37,32.39-1.36,38.19-1.22,4.44.11,1.86,3.48,1,3.48h-40.43Z"/>
  <path d="M383.99,246.65c-1.21.07-5.08,3.17-4.49-.98,11.4-2.74,23.34-2.53,34.94-1,.07.64-1.33,1.99-1.5,1.99-9.44,0-19.63-.53-28.95,0Z"/>
  <path d="M447.89,217.69c-.5-.02-1.76,1.8-2.49-.99,13.77-1.53,27.99-1.56,41.93-2-.39,1.87-1.97,1.82-3.46,2.02s-6.33.97-7.02.97c-9.62,0-19.34.31-28.95,0Z"/>
  <path d="M395.97,264.63c.81.11,2.15,1.44,3.5,1.01v1.99h-18.47c-.77,0-2.94-1.65-4.5-1.01v-1.99c6.13.58,13.53-.8,19.47,0Z"/>
  <path d="M219.76,222.69c.47,2.85-.6,1.66-2.3,2.13-12.79,3.52-29.9-1.48-43.07-2.18-16.91-.9-34.16,1.5-50.95-.98-1.74-.26-1.68.53-1.5-1.97l97.82,3Z"/>
  <path d="M206.29,236.66c1.59.16,4.1,1.9,6.49,1v1.99s-50.41,0-50.41,0c-.27,0-1-1.15-1.48-1.5.48-.35,1.21-1.5,1.48-1.5,13.56,0,30.91-1.33,43.93,0Z"/>
  <path d="M217.77,261.63h-42.93c-.22-3.18,2.18-2.86,4.44-3.05,11.49-.96,24.33.81,35.99.06l2.5,2.99Z"/>
  <path d="M337.57,709.6c-.1.89-.84,5.5-2.99,4.49-.02-17.85,1.32-35.6,1.04-53.48-.07-4.72-2.92-27.89-.05-29.93.55-.99,2,.89,2,1.01v77.91Z"/>
  <path d="M281.66,708.11l-1.49,47.93c-1.65-1.13-1.44-2.73-1.56-4.44-.61-8.76.67-17.38,1.09-25.98.25-5.09-.66-11.18-.04-16.04.19-1.46.76-3.1,1.99-1.47Z"/>
  <path d="M279.83,560.44c.6-.37,4.53-1.05,3.83,1.32-4.13,3.68-4.72,8.35-11.38,7.48-4.8-.62-12.26-9.19-6.59-12.96-.46,6,6.55,13.21,11.97,8.46,1.43-1.25,1.76-4.04,2.18-4.3Z"/>
  <path d="M292.65,93.83v33.46c0,1.45-3.24,3.18-5.55,1.57-6.23-4.32-10.16-18.88-17.41-23.05v22.47c0,1.98-5.99,1.98-5.99,0v-32.96c8.25-5.79,13.55,9.91,17.56,15.39,1.09,1.5,3.35,5.25,5.41,5.08v-21.47c0-2.11,4.51-1.13,5.99-.5Z"/>
  <path d="M322.1,92.83c12.31,2.19,12.07,17.54,1.52,22.55-.41,1.78,6.35,7.76,7.23,10.72,1.32,4.42-2.36,4.66-5.65,2.58-4.93-3.13-5.56-15.03-15.58-11.88-.44,2.67,1.03,11.18-.92,12.56-1.51,1.07-5.07.2-5.07-1.07v-33.96l1.5-1.5c5.16.63,12.1-.87,16.97,0ZM309.76,98.97l.81,12.43c19.4,1.44,18.75-18.34-.81-12.43Z"/>
  <path d="M249.33,92.89c1.32-.23,2.69,1.55,3.26,2.57,2.3,4.17,1.12,27.06.12,32.83-.52,3.03-3.8,3.51-5.49,1.5-2.3-2.73-2.21-30.98-.37-34.33.42-.75,1.77-2.45,2.48-2.57Z"/>
  <path d="M341.56,94.33c.71-2.53,4.94-1.66,5.78,1.21.69,2.37.77,28.78.21,31.76-.4,2.12-1.8,2.65-3.66,3.36-.81.5-2.33-1.12-2.33-1.37v-34.96Z"/>
  <path d="M330.58,558.29c1.75,1.99-6.87,15.23-15.49,9-2.65-1.92-5.11-8.6-1.99-7,2.57,3.81,3.73,5.97,8.96,4.97,4.31-.82,4.2-6.65,8.52-6.97Z"/>
  <path d="M306.63,214.7c3.8.57,24.31,1.34,23.93,6.49-2.83,4.3-22.17.02-23.45-2.49-.65-1.27-.55-2.65-.48-4Z"/>
  <path d="M287.65,215.71c4.35,6.47-22.78,7.17-23.96,5.97-.19-.2-.32-2.29.62-3.07,2.74-2.23,21.88-5.06,23.33-2.9Z"/>
  <path d="M324.59,230.68c1.54,9.7-16.1,9.35-16.97,1.49-.44-3.99,6.9,1.63,9.41,1.49,2.77-.15,4.7-3.05,7.56-2.98Z"/>
  <path d="M267.18,230.7c2.18,1.41,5.34,3.92,8.01,3.86,3.24-.07,8.25-6.38,8.36.5-2.56,2.87-7.48,4.09-11.13,3.39-3.04-.58-9.1-4.63-5.25-7.76Z"/>
  <path d="M303.62,274.61c-2.58-1.31-15.91,1.55-14.96-2.48.64-2.73,16.65-4.49,14.96,2.48Z"/>
  <path d="M481.37,445.39c3.51.74,5.76-3.13,8.67-3.78,11.7-2.59,22.52,14.12,9.81,18.84-10.25,3.81-65.3,3.69-78.96,2.98-3.85-.2-16.8-1.07-18.98-2.98-3.93-3.45.4-8.49,4.52-9.57,4.54-1.19,8.57-.25,13,.53-.09-7.93,7.51-11.82,14.56-9.06,2.76,1.08,3.52,3.95,6.41,4.06-.25-15.26,11.67-23,26.02-20.52,10.84,1.87,14.26,9.49,14.96,19.5Z" fill="#fff"/>
  <path d="M146.89,415.45c-5.59-18.38,23.81-23.02,29.2-9.73,1.82,4.49-.85,9.33,2.24,12.69,2.18-.86,4.81-2.57,7.07-2.9,11.84-1.68,22.58,10.86,9.23,14.24-11.42,2.89-54.85,2.94-65.7-.82-13.75-4.77-2.5-18.35,10.24-16.23,2.84.47,4.94,2.5,7.72,2.75Z" fill="#fff"/>
  <path d="M367.26,800.23c5.72-.98,12.92-.5,17.94,2.55,3.01,1.83,7.27,6.58,4.83,10.24s-35.55,5.39-37.39-1.73c-1.12-4.33,10.9-10.42,14.62-11.06Z" fill="#fff"/>
  <path d="M309.76,98.97c19.56-5.91,20.21,13.87.81,12.43l-.81-12.43Z" fill="#fff"/>
</svg>