<?xml version="1.0" encoding="UTF-8"?>
<svg id="Camada_1" xmlns="http://www.w3.org/2000/svg" version="1.1" viewBox="0 0 595.28 841.89">
  <!-- Generator: Adobe Illustrator 29.0.0, SVG Export Plug-In . SVG Version: 2.1.0 Build 186)  -->
  <path d="M.14,841.29V-.06h595v841.34H.14ZM590.54,3.89H4.08v177.47c20.75.61,39.7,8.79,56.53,20.38-7.72-33.57,13.48-66.36,45.88-76.07,38.3-11.47,78.81,4.04,89.93,43.83.31,1.09.35,2.19.3,3.32.9,1.06,13.73-9.22,15.16-10.14,27.72-17.96,52.86-25.06,86.11-17.15,10.12,2.41,20.22,7.86,30.62,9.49,24.38,3.81,50.04-3.78,72.61,8.91l24.29,13.5c3.21-35.2,43.28-53.62,74.08-38.23,12.17,6.08,21.6,17.73,22.58,31.65,14.6-1.4,30.74,6.8,30.9,23.01.48.54,4.25-2.01,5.25-2.31,10.88-3.22,23.92,2.15,23.02,14.8,3.27-.06,5.96-1.36,9.2,0V3.89ZM190.41,162.04c-27.72-62.88-130.29-39.88-128.5,27.57.17,6.53,2.88,14.61,5.82,20.47.58,1.17,2.42,4.72,3.11,5.43,1.68,1.73,7.47,2.62,9.5,5.29,1.36-4.84-2.65-7.39-3.22-11.56-.3-2.2-.36-7.62-.02-9.76.4-2.49,2.82-4.84,3.2-7.31.48-3.13-.78-6.44-.64-9.84.36-8.47,7.96-18.8,15.21-22.92,1.62-.92,3.64-.95,5.2-2.05,1.92-1.35,4.25-4.7,6.75-6.38,13.88-9.31,39.45-10.92,53.51-1.6,4.05,2.68,5.47,2.96,9.67,5.12,12.25,6.28,14.67,22.64,6.32,33.11-.82,1.03-3.88,3.18-3.95,3.43-.49,1.83-.08,9.81-.02,12.38.15,5.52,1.34,12.26,1.4,17.72.03,2.59-1.63,5.55-.39,8.21,3.17-3.4,6.96-6.2,9.83-9.9,13.23-17.08,15.91-37.68,7.21-57.4ZM514.04,155.94c-13.38-20.29-42.71-24.26-63.1-12.59-11.89,6.81-22.86,22.06-22.01,36.24,11.46,8.02,17.96,20.08,26.13,31.01,5.48-1.07,10.66-4.53,16.47-2.3-1.88-15.61,15.96-28,29.26-18.41,3.43-5.79,5.93-11.94,12.23-15.37,1.37-.75,4.89-1.29,5.53-2.35,1.85-3.07-2.59-13.31-4.51-16.23ZM173.04,187.27c.26-.22,3.38-5.23,3.62-5.92,3-8.52.26-19.78-8.07-24.12-2.53-1.32-6.33-1.73-8.28-2.89-1.43-.86-1.74-2.46-3.09-3.48-11.18-8.55-37.45-4.8-48.82,2.35-3.21,2.02-5.65,5.56-8.49,7.29-6.35,3.87-9.79,5.06-14.2,12.07s-1.71,13.14-2.71,20.33c-.36,2.6-2.68,5.45-3.14,8.69-.67,4.68.21,13.35,6.4,13.3-1.72-5.86-1.79-11.44,4-14.73,6.15-3.5,9.48,4.54,13.77-.04,4.6-4.91,1.12-9.07,2.06-12.35.5-1.75,3.94-3.39,5.06-4.85,2.47-3.2,2.73-7.93,4.45-11.46,5.82,1.98,10.44,4.41,16.93,3.91,7.52-.58,8.95-3.98,13.87-8.51,6.08,5.31,10.44,8.41,19.02,7.22,2.82-.39,4.31-2.32,6.96-2.57.87,2.2-1.78,3.37-1.81,4.77-.07,3.2,1.72,7.26,1.15,10.68-.08.57,1.23.39,1.31.32ZM445.01,201.3c-13.5-18.19-24.73-24.88-45.22-34.65-28.21-13.46-54.3-3.18-83.27-11.4-20.25-5.74-30.51-10.95-53.1-9.41-24.87,1.69-45.3,15.86-64.78,29.89-1.48,2.49-.27,13.54-.78,17.62-1.88,14.9-11.85,27.86-22.16,37.66-1.21,1.15-3.13,2.09-3.99,3.24-1.68,2.27-2.44,6.41-5.22,8.57,3.94,2.56,7.24,5.89,10.83,8.86.72.6,1.88.72,2.63,1.32,5.23,4.21,6.42,9.02,14.38,8.45,5.65-.4,20.28-2.94,25.54-4.7,2.85-.95,8.46-6.26,11.9-7.82,3.24-1.46,8.22-2.55,10.2,1.2l-2.52,5.49c3.71-1.62,18.5-3.29,21.04-1,.96.86.44,2.48,1.01,3.59,1.21,2.36,3.37,2.55,1.77,6.44-.83,2.03-3.47,2.9-3.92,3.63-.61.98-.12,2.46-1.48,4.11-4.73,5.72-20.7,6.84-27.66,8.5-2.08,7.11-1.53,18.62-9.35,22.2-1.96.9-8.25,1.68-10.65,1.85-16.12,1.1-35.06-2.01-47.69-12.51-.52.65-2.14,15.67-1.86,16.62.69,2.33,8.23,2.2,10.96,2.87,19.77,4.84,29.69,13.4,33.45,33.61.58,3.14.14,8.09,1.57,10.91,1.52,2.99,6.23,5.55,8.46,7.97,8.58,9.33,12.48,22.77,20.04,33.23.54.74,1.76,1,2.33,1.78,2.81,3.79,4.85,8.21,6.66,12.54l6.47-.56c-.47-.99-.67-1.79-.7-2.91-.77-28.49-.98-63.35,4.19-91.2,7.39-39.74,28.71-61.76,61.5-83.12,38.52-25.09,93.68-24.6,129.94,4.36,29.52,23.58,38.28,56.6,39.8,92.98.65,15.67-1.04,31.69.57,47.25,4.71,1.63,8.05,2.69,11.92,6,1.01.86,1.69,2.89,2.6,3.32,1.29.61,2.8.12,4.12.48,11.11,3.03,15.85,10.28,16.93,21.53,7.38-1.44,15.79-.28,23.33-1.33,1.48-.21,4.58-.59,5.27-1.95s-.56-9.99-1.04-12.01c-1.11-4.71-4.32-15.09-6.41-20-3.64-8.54-11.02-14.98-12.97-24.5-.72-3.53-.45-7.85-1.04-11.45-2.57-15.69-8.22-23.83-14.45-38-6.96-15.82-6.88-23.22-20.62-36.05-1.33-1.24-2.84-1.62-3.96-2.61-9.35-8.3-9.57-21.56-16.48-31.5-4.66-6.71-13.55-10.61-19.37-16.79-3.7-3.93-5.71-8.51-8.75-12.61ZM167.13,176.75c-7.48,1.78-14.72-1.6-20.7-5.92-3.98,6.07-12.11,7.88-19.07,7.23-2.66-.25-7.91-2.64-9.24-2.63-1.73.02-3.17,6.67-4.37,8.75-1.49,2.58-4.48,4.06-4.71,4.56-.8,1.76.55,7.29-1.6,11.48-1.14,2.22-4.99,4.37-5.28,5.23-1.32,3.86.54,17.23,1.91,21.54,3.14,9.95,15.37,19.18,25.17,22.16,19.86,6.03,39.69-2.96,41.21-24.72.6-8.58.01-36.99-2.03-44.57-.11-.41-2.17-1-1.28-3.11ZM475.48,230h115.06v-21.03c-2.81-2.03-10.14,2.77-10.83,2.63-1.43-.29-.99-6.12-1.29-7.93-1.77-10.38-14.89-12.27-22.67-7.48-1.6.98-2.3,3.39-4.64,2.92.11-13.11-7.74-24.16-21.44-25.56-8.06-.83-19.91,3.59-23.13,11.57-1.27,3.15-1.1,6.73-2.74,9.76-2.33,1.58-4.61-2.33-6.39-3.54-8.79-6-21.99,2.3-23.16,12.13-.22,1.88.46,7.01-.7,7.87-3.16-.2-12.95-1.35-14.85,1.57-.78,1.2.87,2.23,1.66,2.99,5,4.78,12.44,7.1,15.13,14.12ZM4.08,184.65v209.02c3.17-2.64,5.06-6.5,7.87-9.55,3.58-3.87,8.75-7.12,11.85-11.16,7.04-9.15,9.73-17.39,19.13-25.57,7.9-6.88,16.23-10.4,26.15-13.63-.55-3.84,1.43-8.57,1.31-12.11-.09-2.82-5.71-6.43-7.15-8.67-1.09-1.69-3.78-10.57-4.34-10.71l-2.16.1c-1.06,7.05-5.75,16.92-14.37,12.58-1.47-.74-2.14-3.09-3.77-3.44-1.75.83-3.13,10.74-8.07,12.96-3.94,1.77-7.66.84-10.35-2.44-2.24-2.72-4.02-9.32-4.25-12.84-.71-10.43.95-21.51,2.79-31.38,3.44-18.46,10.29-45.31,26.58-56.24,7.04-4.73,13.34-6.39,21.9-6.36-3.23-6.36-7.78-10.65-13.72-14.55-14.18-9.32-32.19-16.38-49.39-16.02ZM99.41,204.36c-15.46-7.87-12.57,16.99,0,16.43v-16.43ZM88.76,218.31c-.75-.42-5.03-.23-6.45-.46.84,7.87,3.71,13.17,8.55,19.08l1.49.2c3.22-2.12,6.33-4.76,10.35-5.17l-1.98-7.88c-3.49.41-6.79-.44-9.53-2.63-1.07-.85-2.26-3.05-2.44-3.15ZM86.5,237c-6.08-7.54-4.09-14.35-15.5-17.7-29.34-8.62-49.56,35.44-46.55,59.03.81,6.33,6.38,4.84,9.9,1.33,3.9-3.88,6.78-11.02,9.07-15.91.67-1.44,1.27-3,2.41-4.15,2.68-.1-2.3,14.08,2.76,15.64s9.69-4.61,11.5-8.62c.91-2.02,1.79-7.79,3.59-8.25,3.28-.84,1.32,2.98,1.65,4.68.14.74,2.55,4.41,2.86,4.42,5.07-8.48,10.45-16.91,17.07-24.33,1.23-1.38,4.67-2.24,3.35-4.59-.41-.74-1.65-.96-2.1-1.52ZM269.04,410.76h27.28c.19,0,1.53-.67,1.67-1.11.34-32.42,1.3-64.81,3.28-97.14,4.28-43.44,43.52-75.22,87.23-56.99,57.17,23.85,37.4,103.78,40.93,152.32l1.02,2.27h20.71c1.22-14.57,16.08-30.62,31.14-30.98l.98-.99c-.01-8.73.33-17.5.12-26.23-.6-24.3-1.32-48.95-10.23-71.28-36.06-90.41-177.07-78.15-197.78,17.85-4.28,19.86-5.82,41.42-6.38,61.98-.46,16.74.4,33.57.03,50.31ZM590.54,233.29h-112.43c-.51,1.7,1.54,2.38,1.91,3.16,3.37,7.21,3.35,15.64,9.6,21.81,1.3,1.28,3.54,2.29,4.93,3.62,5.54,5.28,12.17,10.58,14.47,18.08,13.15-5.37,24.84-14.39,38.64-18.22,14.74-4.09,29.27-2.27,42.88,4.41v-32.86ZM146.09,253.66h-9.53c-1.16,0-5.57-1.11-7.04-1.5-9.61-2.57-19.58-9.06-24.98-17.42-1.71-1-8.58,2.9-10.33,4.19-13.09,9.62-26.41,32.99-30.92,48.08-3.71,12.41.32,25.53,10.82,33.02,3.29,2.35,23.9,12.86,26.54,11.11,4.04-10.51,11.78-19.93,21.76-25.23-3.18-2.85-29.58-11.64-30.21-13.16-.12-.29-.26-1.63.31-1.63,2.01-.88,7.54,2.96,8.55,1.33l5.63-29.55,1.92-.04c.98.96-3.95,23.25-4.18,27.09-.05.83-.63,1.07.58,1.83,2.88.41,14.79-8.57,17.42-10.84,8.32-7.18,16.57-16.23,22.89-25.07.5-.7.93-1.3.78-2.21ZM218.42,260.23c-4.66-.24-9.06,1.8-13.56,2.55-2.98.5-13.18,2.25-15.39,1.8-1.41-.28-3.07-1.52-4.23-2.39-5.11-3.84-10.41-9.78-15.51-13.41-7.61-5.42-5.57-1.81-11.32,1.08-2.18,1.1-6.08,1.36-8.06,3.12-1.61,1.44-3.89,6.58-5.56,8.72-6.74,8.61-15.04,15.73-22.69,23.51l-16.76,10.51c5.44,2.03,11.09,3.89,16.36,6.33,1.78.82,5.79,3.95,6.99,4.18,3,.58,14.64-.84,18.39-1.31,2.04-.25,9.47-1,10.59-1.9l.79-1.19,4.07-44.51,1.66-.39c1.05.33,1.05,4.59,1.02,5.62-.22,7.28-2.4,16.55-2.06,23.65.04.81.1,1.55.35,2.33.78,2.47,10.93,8.17,13.71,9.29,12.9,5.22,27.62,4.11,41.22,3.16v-40.76ZM238.13,250.38c-2.3-1.96-14.13,6.54-16.09,8.56l-.91,18.95c1.09.49,2.31.83,3.52.81,5.12-.08,26.63-4.32,30.26-7.27.59-.48,2.1-2.82,1.62-3.3l-11.17,1.31c.01-.7-.19-1.38.29-2.01,1.05-1.39,14.89-1.72,15.49-4.24.88-3.7-6.35-.6-7.07-.49-1.24.2-8.31,1.2-8.7.82l.66-2.3c3.78-1.24,8.74-.7,11.83-3.3.55-2.37-7.31-1.74-8.86-1.62-1.74.13-12.38,2.19-13.31,2.79-.59.39-4.74,9.13-6.75,7.05l.61-3,8.59-12.77ZM255.89,323.34h12.49c1.36-6.93,1.21-14.31,2.67-21.21,2.17-10.32,6.74-23.95,12.44-33.18l9.21-15.29c-11.59,11.1-21.92,23.74-28.11,38.61-1.61,3.86-4.27,10.36-5.35,13.84-.67,2.15-3.97,16.6-3.35,17.22ZM590.54,269.44c-13.87-7.35-29.36-8.69-44.39-3.96-12.14,3.83-22.44,11.58-34.11,16.51-1.64.85.2,6.5.81,8.24,4.43,12.63,13.31,24.63,16.63,37.29.6,2.28.76,4.68,1.25,6.97,4.15-1.06,6.87.41,10.5,1.99,1.33-20.11,31.23-19.32,31.57.66,5.4-4.03,12.07-4.41,17.74-.66v-67.04ZM40.9,295.73v10.85c0,1.86,3.73,8.2,6.59,6.65.65-.21,1.1-.66,1.57-1.11.22-.21,3.5-4.77,3.63-5.05,1.2-2.73.93-8.71,2.34-10.67,1.28-1.79,2.92,3.33,4.27,3.29-.18-7.18,1.39-14.5,4.01-21.17.18-.45.98-.57,1.19-1.05,1.85-4.35,4.89-8.79-1.87-9.95-2.95,9.18-14.67,17.19-19.42,4.58-4,4.77-10.01,16.7-17.81,13.19-2.32-1.04-2.53-3.33-4.21-4.65-.81,11.67-3.59,24.64-.35,36.16,1.59,5.66,5.35,8.24,10.13,3.53,4.86-4.8,6.4-17.97,7.33-24.56h2.61ZM226.96,281.27h-6.58s.67,17.09.67,17.09c2.33-1.4,2.58-4.56,3.34-6.71.19-.55,1.1-.5,1.22-.99.66-2.57.19-6.62,1.34-9.38ZM157.93,306.25c-5.4.26-10.74,1.39-16.11,1.96-2.37.25-6.84-1.15-6.89,1.97,2.4.08,4.12,4.42,6.09,4.46.85.02,14.82-3.44,15.46-3.92.28-.21,1.64-4.3,1.45-4.47ZM141.5,330.56c3.8-1.6.38-7.84-1.05-10.46-2.25-4.11-8.81-10.58-13.39-11.61-4.24-.96-9.95,4.02-12.87,6.95-1.57,1.57-2.73,4.73-4.92,5.27-.08,1.18,1.63.47,2.64.97.81.41.96,1.62,1.53,2.08,5.15,4.18,11.22,8.88,17.85,10.09-.21-2.23-6.02-7.82-5.58-9.52.13-.5,1.38-1.5,1.98-.68,1.9,1.67,7.53,10.22,10.17,9.54,1.7-1.08.42-2.98-.21-4.39-1.19-2.69-3.56-6.17-6.02-7.78-.8-1.53,2.96-1.06,3.5-.87,1.24.43,5.85,8.53,6.36,10.41ZM201.54,346.16c-1.32-6.11-1.52-10.85-4.94-16.46-6.07-9.95-22.13-15.36-33.18-16.78-7.14-.92-13.38,2.46-20.34,3.81-1.25,2.22,1.27,3.05,1.68,3.81,1.65,3.06,2.87,6.65,1.85,10.22-.8,2.78-3.66,1.96-5.1,2.79-.6.34-.81,1.48-1.37,1.91-.6.45-6.31,1.52-7.57,1.67-5.42.65-12.64-4.92-17.05-7.74-3.26,3.27-10.38,6.02-14.92,5.65-3.18-.26-14.67-5.31-18.06-6.98-3.01-1.48-5.78-4.21-9.1-5.37-1.56,5.38-3.07,15.17.43,19.95,2.99,4.07,14.75,8.87,19.66,10.58,2.26.78,14.61,4.87,15.75,3.65l.09-3.19,2.89-.13c.43.69.37,1.52.33,2.3-.33,6.39-1.18,14.69-1.94,21.11-.15,1.24-1.28.64-1.42,1.88-.77,6.5-.59,13.75-.5,20.32.97,2.81,16.67,5.31,19.96,5.68,14.07,1.61,35.56-.71,49.88-2.7,4.2-.58,25.33-4.56,27.39-6.8,1.49-1.63.21-15.15-.02-18.42-.75-10.43-2.33-21.29-4.38-30.75ZM109.26,322.69c-.94-.23-1.06.09-1.6.67-.66.73-4.72,8.1-4.3,8.51l9.57-3.92c.2-2.69-3.39-3.14-3.67-5.26ZM590.54,377.89v-37.79c-3.16-3.61-10.19-3.88-14.27-1.78-1.52.78-5.99,6.13-6.77,1.77-.72-4.01.67-6.1-2.08-10.41-5.65-8.84-20.28-5.42-23.24,3.5-.61,1.84-.2,7.58-1.32,7.9-1.78.51-3.09-2.4-4.88-2.99-.83-.27-6.19-.92-6.57-.26.58,6.54,1.02,13.86,4.18,19.76.62,1.16,1.48,1.33,1.9,2.06,3.31,5.79,6.82,11.39,9.33,17.61.62.58,2.4.63,3.28.63h40.43ZM268.38,325.97h-12.16c-.81.66-1.43,1.22-1.63,2.32-.8,4.35-1.16,12.4-1.36,17.05-.27,6.45.25,12.97.02,19.42,3.58-.72,8.9-.05,12.17-.66.75-.14,1.33-.23,1.55-1.08l1.41-37.05ZM123.05,406.84c-3.32-.49-16-2.58-16.92-5.76l2.22-40.32c-9.76-3.12-20.66-5.3-29.51-10.61-5.33-3.2-10.15-6.72-9.67-13.68-12.26,4.41-24.04,10.27-32.2,20.72-3.04,3.89-4.66,8.48-7.26,12.31-7.55,11.13-19.88,17.76-25.47,30.55l-.15,90.22,21.04,3.01c1.5-.92,2.55-7.8,3.34-9.72,7.47-18.34,20.09-35.78,40.57-41.08,37.79-9.79,65.35,18.5,75.86,51.33.78,2.44.94,5.71,1.21,8.3,26.51-.94,54.28-.87,80.34-6.1,5.72-1.15,20.82-4.74,24.38-9.15,2.59-3.2,1.99-12.99,1.81-17.3-.62-15.01-3.74-32.67-7.58-46.98-3.92-14.6-8.4-17.4-15.73-28.97-5.04-7.97-8.13-17.23-14.03-24.76-1.86-2.37-5.1-4.93-7.08-7.39-1.42-.28-1.01.66-1,1.65.03,5.73,1.74,13.04,1.99,19.05.12,2.83.52,11.54-.12,13.67-1.06,3.51-10.87,3.49-11.09,6.05.24,4.31,4.73,5.52,7.28,7.88,2.08,1.92,8.84,8.41,10,10.38,4.21,7.1-2.33,14.31-9.68,14.33-7.81.02-18.53-8.98-25.4-12.79-2.92-1.62-10.21-3.13-10.41-6.69-.12-2.03.89-6.59,1.29-8.83-2.54,0-18.76.25-19.11,1.74-.07,1.8.63,4.13,1.52,5.64,1.08,1.83,2.31,1.89,3.13,2.97,2.84,3.72,10.17,12.79,11.77,16.44,5.12,11.67-14.03,11.56-20.98,9.67-5.21-1.42-11.77-6.86-15.45-10.84-1.12-1.2-8.86-11.04-9.2-11.84-1.44-3.38,1.26-9.24.28-13.1ZM252.6,368.36v32.86c3.72,2.27,9.35-.67,13.81.33v-32.54c0-.26.91-.97.66-1.64-4.22-1.65-8.44.56-12.83,0l-1.64.99ZM590.54,381.18l-42.74-.65c-.77,2.34.99,2.34,1.37,3.58,1.32,4.29,4.62,19.83,3.74,23.56-.93,3.99-11.67,4.82-15.31,5.06-4.16.28-13.14-.86-16.29,0-.34.09-1.77,2.5-2.77,3.29-6.15,4.84-23.67,3.33-31.53,3.26-8.39-.07-25.06,1.2-32.15-2.69-1.53-.84-3.12-3.76-3.51-3.87-5.45-1.47-17.21,1.23-23.4-.12-20.95-19.78-53.7-21.46-81.01-25.49l-44.73-1.81c-.7.12-.86.85-.96,1.47-.62,4.07.88,24.19-.72,25.91l-55.16,2.03c1.23,3.22,1.73,6.71,2.69,10,3.65,12.56,5.95,26.6,6.54,40.26.22,5.04.77,19.14-1.44,22.93s-10.5,7.04-14.66,8.35c-27.55,8.64-57.76,6.5-86.19,8.49-7.39.52-7.76,2.74-13.47,4.94-20.58,7.94-78.18,5.86-99.94.04-6.64-1.78-15.96-4.93-13.78-13.5l-21.04-2.63v343.77h277.45c.78-2.41.19-6.01.67-8.1,1.05-4.61,1.28-7.39,1.96-12.6,6.86-52.61,16.38-109.82,34.12-159.26.82-2.3.65-5.16,2.03-7.36-1.35-1.06-6.65,4.23-8.37,4.5s-2.9-1.63-4.13-.94c-2.06,1.15-8.55,11.99-11.47,14.87-1.73,1.71-7.21,6.08-9.4,6.44s-3.13-1.2-4.33-1.08c-1.33.13-2.2,2.07-4.7,1.92-1.42-.09-2.17-1.13-3.32-1.36-1.59-.31-3.24.36-4.89-.37s-1.62-2.78-2.35-3.57c-1.62-1.76-4.2-.77-4.17-5.55.03-4.34,5.37-11.65,5.24-13.19-.02-.31-3.21-.74-1.88-5.16,1-3.32,14.11-10.21,17.65-11.93,8.29-15.01,20.21-26.86,26.75-42.93,3.95-9.72,7.13-19.16,11.44-28.66,1.38-3.05,2.9-6.17,5.06-8.76v-1.44c-10.3-7.76-10.69-20.02-3.95-30.55-11.13-12.53-2.41-24.65,4.7-36.08,11.06-17.76,11.44-40.93,27.61-55.4,12.44-11.13,25.92-11.65,41.74-11.51,26.8.23,48.37,10.87,56.05,38.01,1.17,4.13,2.61,9.55,3.46,13.09.41,1.72-.25,4.25.02,6.11l4.45-7.7c28.74-39.61,94.71-30.38,105.8,19.41,3.57,16.03.9,34.16,5.1,48.79,2.8,9.74,7.06,17.18,6.3,27.94-.67,9.54-7.2,14.91-15.8,17.72,8.69,14.19,13.56,29.86,14.45,46.68.7,13.27-1.17,29.05-14.01,35.93-4.1,2.2-8.97,2.52-12.84,4.79,2.65,6.98,4.81,14.18,6.81,21.38,8.21,29.55,10.29,60.99,14.84,91l3.89,54.93h14.46v-456.17ZM498.02,390.19c-.96-.62-3.14-4.25-5.22-5.62-9.96-6.54-21.5-1.57-28.83,6.46-3.04,3.33-9.92,13.81-10.15,18.18-.24,4.6,3.37,5.24,7.04,5.98,10.49,2.1,30.39,2.22,41.24,1.48,3.35-.23,14.78-1.36,15.82-4.55,2.46-7.56-4.45-17.51-11.55-20.07-2.25-.81-7.27-1.14-8.35-1.84ZM195.33,402.29l-20.31,2.88c-1.76.84-1.96,7.96-1.88,10.11,3.4.38,11.73,6.91,14.36,5.68.77-.36,1.71-1.91,2.7-2.58,3.7-2.52,7.87-6.17,12.43-6.31l-4.87-4.65-2.43-5.13ZM253.26,411.41h13.15v-7.23c-.46-.47-12.64.57-13.19.95-1.6,1.1.3,4.61.04,6.29ZM148.72,407.47c-7.09,1.21-15.16.92-22.32.02-.58.4-1.48,9.78-.99,11.13.32.89,6,7.63,6.53,7.69,6.75-3.89,13.65-7.2,21.72-6.36-2.09-3.96-5.06-7.69-4.94-12.47ZM209.87,419.29c-5.05-10.38-15.78-.98-21.03,4.28l6.86,3.65c4.4-3.07,8.83-6.77,14.17-7.93ZM211.8,421.95c-2.15-.9-13.11,6.07-13.1,6.88l6.56,2.3-.67-3.6c2.05-1.85,3.66,2.9,4.28,2.93,2.45-1.77-1.01-3.52-.32-5.9l2.53.09,1.41,2.53-.69-5.23ZM160.55,428.5c-.9-6.75-6.56-6.43-12.18-5.94s-10.72,2.73-14.1,6.93l5.57,5.43c6.12-3.75,13.3-7.01,20.72-6.42ZM422,446.47c-15.66-24-45.47-33.36-66.83-10.22-11.22,12.17-13.02,27.37-18.95,42-3.68,9.07-12.86,17.52-14.29,26.47-1.21,7.58.5,11.9,5.53,17.34-4.88,6.79-7.32,13.08-3.97,21.27.85,2.07,5.36,8.82,7.91,7.34,5.6-9.04,15.65-15.9,25.75-18.97,1.02-1.36-6.11-4.72-7.17-5.64-4.81-4.18-10.23-15.54-10.61-21.6-.6-9.49.63-14.9,2.99-23.36,2.7-9.66,6.71-25.75,13.14-32.88,10.37-11.5,24.96-13.04,38.27-5.38,11.39,6.56,22.25,22.29,28.5,33.46,2.24,4,2.49,10.11,7.2,12.67,1.94-13.37.09-30.95-7.45-42.51ZM411.38,422.59c-3.79-.45-8.29.33-12.16,0l15.38,10.59c20.77,20.36,24.57,50.81,12.34,76.62-3,6.34-8.19,9.58-10.89,15.41-9.16,19.79,4.45,30.44,22.97,32.62,1.27-.24.89-3.21,1.25-4.47.42-1.46,2.35-5.44,2.32-6.23-.02-.46-3.16-5.01-3.78-6.7-5.11-13.89,7.56-24.13,10.73-36.96,5.54-22.41,6.72-46.46-9.55-64.79-6.35-7.16-18.96-14.95-28.61-16.09ZM165.15,439.02c1.43-1.08-.58-6.3-1.63-7.23-2.86-2.55-19.3,2.01-20.71,4.95-.58,1.21,3.99,1.71,4.59,2.95.55-.72-2.13-4.37.98-4.6,2.98,2.31,1.31,7.17,6.25,5.91l-1.97-5.25c2.71-1.16,6.38,6.05,7.88,4.59.18-2.51-3.25-5.04.95-5.29.54.1,2.21,5.06,3.65,3.97ZM386.25,452.66c-1.65-6.97,3.14-10.7-6.44-11.66-6.33-.63-12.59.84-17.74,4.6-11.57,8.46-20.53,44.12-19.39,58.15,3.06,37.62,59.27,35.49,72.28,5.88l8.44.23c1.53-2.49,6.2-15.82,5.08-17.59-3.67-3.96-4.47.13-7.74.88-4.66,1.06-.92-7.59-1.89-8.71-1.96-.35-4.19-1.25-5.79-2.41-5.78-4.21-5.31-8.84-8.11-14.24-3.16-6.09-8.16-5.35-12.93-8.76-2.55-1.83-3.59-4.44-5.78-6.36ZM133.38,474.73c-10-16.48-26-29.84-46.13-31.1-32.28-2.01-50.1,21.59-58.78,49.14-1.78,5.66-1.11,8.25,3.79,11.09,16.31,9.46,78.35,9.05,97.42,5.18,4.28-.87,12.65-2.16,12.88-7.35.3-6.51-5.68-21.19-9.19-26.96ZM410.14,462.27c-2.29-3.09-7.35-8.47-10.26-11.1-1.11-1.01-9.66-7.85-10.52-6.89-.08,3.94-.5,7.96,2.34,11.13,3.11,3.48,9.73,3.87,13.05,7.33,3.03,3.16,4.35,9.68,6.94,13.44,2.25,3.26,3.58,4.69,7.68,5.48.89.17,1.19.1.88-.89-1.38-4.37-7.28-14.69-10.1-18.5ZM559.91,476.88c-23.63-45.86-88.63-36.85-104.09,10.65-2.47,7.58-2.63,15.74-5.48,23.31-1.7,4.53-4.57,7.45-6.39,10.88-4.47,8.4-5.14,18.19,3.17,24.26.52,2.07-3.16,5.32-3.56,7.35-1.48,7.41-.42,13.16,4.31,18.8,1.47,1.75,3.17,2.74,5.25,3.62-.49-2.85-2.07-5.5-2.45-8.39-1.27-9.68,5.03-19.52,5.11-28.78.02-2.57-1.16-5.89-1.33-8.52-.84-13.52,5-26.96,8.62-40,2.63-9.49.69-12.75,9.47-19.46,12.17-9.3,35.42-6.77,47.47,1.8,36.02,25.62-5.67,70.59,11.08,97.37,7.03,11.24,25.47,14.76,36.52,7.7,18.86-12.05,1.2-32.15-.07-47.42-1.54-18.47,1.15-36.13-7.62-53.16ZM532.02,498.17c-1.48-14.92-12.29-25.49-26.44-29.1-10.42-2.66-27.91-1.87-35.04,7.4-3.19,4.15-1.46,4.93-2.31,8.76-2.33,10.49-8.06,21.36-9.66,33.18-6.23,45.82,44.01,48.09,67.36,20.35,2.3-12.31,6.74-24.53,6.02-37.22-8.39-.31-9.3-13.61-15.21-16.01-5.01-2.03-13.69,1.53-18.21-2.17-1.87-1.53-4.99-8.12-1.66-8.84,2.05-.45,1.01,5.66,5.2,7.27,5.71,2.2,11.34-2.44,17.42,1.64,2.03,1.37,5.13,5.83,6.6,8,1.57,2.31,2.04,6.95,5.93,6.74ZM423.54,487.01c-1.37-.19-1.5-.07-1.31,1.31l1.31-1.31ZM404.67,525.97c-3.06,3.81,1.11,14.65,6.05,16.23,1.41-.89.55-1.13.53-1.81-.44-11.56,1.6-18.25,9.65-26.77-4.3-3.08-5.91,3.13-8.52,5.93-1.98,2.13-6.2,4.53-7.71,6.41ZM365.12,533.77c-4.85,16.84,15.81,21.17,27.67,14.85,2.01-1.07,9.94-7.36,10.1-9.36l-1.72-10.84c-11.37,6.48-23.35,6.98-36.06,5.35ZM361.08,533.02c-10.43,2.19-19.14,9.16-26.31,16.74-12.91,13.64-15.67,30.81-22.87,47.47-3.27,7.58-9.63,16.15-14.44,23.03-2.86,4.09-6.46,7.7-9.05,12.04-1.26,3,9.53,11.32,11.97,13.01,1.83,1.27,8.23,5.48,9.92,5.91,1.53.39,10.43-4.92,11.35-6.11,1.55-2,5.06-14.23,6.47-17.83,3.67-9.37,1.95-12.85,2.73-22.28.88-10.69,4.04-30.28,9.01-39.61.33-.62,3.11-4.23,4.13-4.11.19,2.85-1.36,5.7-2.44,8.38-.3.74-1.21.71-1.45,1.34-5.64,14.82-6.89,32.98-7.22,48.72,15.77,3.42,31.72,6.73,47.93,7.3l1.29-8.52c-2.32-.37-5.11-1.29-7.2-2.34-5.43-2.74-15.9-13.55-18.34-19.13-1.34-3.05-1.84-4.67-.96-8.02.25-.95,1.26-1.85,1.39-2.58.21-1.18-.58-2.88-.57-4.43.03-4.72,2.29-3.15,3.04-4.24,1.11-1.63-.64-4.54,3.97-5.26,3.52-.55,4.89,1.28,6.51,1.32.37,0,.27-1.35,1.6-1.73,6.93-1.96,7.38,1.92,11.08,2.85,4.27,1.06,5.29-1.09,9.4,3.09,4.39,4.46,5.87,11.68,7.35,16.97.8,2.85,8.7,5.22,11.69,5.74-.07-6.87.2-13.92-.6-20.75-.11-.96-2.32-1.45-1.4-5.11,3.38-3.07,3.76,3.89,3.96,6.48.55,6.99-.06,14.23.81,21.22,1.96,1.52,15.51,5.95,14.98,8.34l-2.24.99-24.05-11.55c-4.43-1.22-9.9,7.56-12.12,10.94-.97,1.48-4.35,6.87-4.92,8.2s-1.44,4.5-1.25,5.75c.25,1.75,7.63,7.59,9.52,8.9,9.86,6.85,22.84,12.38,35,11.22l3.4-13.23c4.37-10.42,8.16-21.45,13.28-31.57.82-1.62,3.93-7.13,4.08-8.27.24-1.84-3.16-11.42-4.08-13.74-.29-.72-1.22-.79-1.44-1.35-1.43-3.51-4.61-13.74-6.59-16.12-.66-.8-7.51-1.89-9.43-2.57-4.37-1.54-9.52-4.31-12.65-7.73-1.22-1.34-2.07-3.62-3.26-4.63-1.69-1.44-4.99-1.89-6.7-3.87l-.89.23c-10.63,17.38-48.55,16.51-43.38-9.49ZM459.69,544.19c-1.13-1.09-1.1.28-1.33.95-.6,1.76-.54,4.22-1.19,6.03-.32.91-1.21.88-1.51,1.82-2.91,9.06-3.37,17.6,3.71,24.7,4.28-4.46,9.48-8.97,14.85-12.09,3.75-2.19,6.93-2.86,10.75-4.37.69-.27,1.58-.25,1.68-1.27-7.93-.2-18.33-4.25-23.68-10.18-1.35-1.5-3.05-5.37-3.28-5.6ZM523.47,560.29c-.44-3.84,0-9.1,0-13.15,0-.37,1.42-1.76.33-2.3-8.66,9.19-21.23,14.2-33.77,15.21-1.93,7.45-2.14,12.14,5.13,16.04,9.35,5.02,23.59-.82,31.3-6.94-.14-2.96-2.62-5.66-2.99-8.87ZM486.65,563.91c-15.01,2.9-28.3,17.04-35.31,30.1-8.14,15.17-14.53,33.4-19.36,49.68-3.17,10.67-5.12,21.74-8.44,32.37-.1,2.16,5.64,5.25,7.65,6.08,1.81.75,9.54,3.05,11.09,2.75.5.02,2.96-3.06,3.15-3.48,2.58-5.83,7.27-22.81,7.72-29.07,1.01-13.85.92-22.59,4.21-35.89,2.16-8.71,4.47-17.66,8.7-25.62l2.85.36c-1.16,2.97-2.88,5.47-3.98,8.51-5.38,14.86-5.95,27.55-7.81,42.79-.15,1.24-1.26.64-1.42,1.88-.1.82-.08,5.2.14,5.54,17.63,6.58,37.66,8.74,56.45,7.31-4.01-4.18-4.91-7.36-3.28-13.14-3.69-.39-7.61-1.66-10.97-3.17-6.58-2.95-22.51-13.55-21.95-21.48.26-3.72.51-2.48.1-6.64-.53-5.42,1.74-4.8,2.45-7.3.8-2.84-.53-3.93,2.78-6.41.74-.56,2.02-.5,2.8-.99,1.24-.78,1.02-2.46,4.14-2.6,6.82-.29,12.35,6.57,15.86,7.05.7.1,1.78-1.11,3.14-1.25,7.21-.77,14.4,12.06,14.93,18.33,3.92.25,7.4,3.25,10.8,4.01,1.26.28.79,0,.9-.9.64-5.15-1.7-11.76-1.32-17.1,3.37-1.5,2.77,3.19,3.34,5.09.16.55,1.14.48,1.25.95.66,2.75-.57,11.66.79,13.89,2.51,1.51,13.83,6.1,14.68,8,.56,1.26.22,2.8-1.24,2.57-.92-.14-10.69-6.38-12.96-7.43-2.7-1.26-7.93-3.39-10.75-4.37-.81-.28-3.89-1.25-4.34-.99-3.93,5.89-6.47,12.43-9.22,18.9-.25.58-1.15.61-1.45,1.34-1.14,2.77-2.58,6.94-.47,9.38.95,1.1,6.84,5.25,8.34,6.11,12.07,6.96,30.45,10.81,42.9,3.03,5.37-3.36,10.06-12.81,10.59-18.99,1.17-13.68-.51-27.53-4.67-40.08-1.36-4.1-5.66-16.07-8.7-18.57-1.63-1.34-5.48-.06-8.01-.22-9.05-.55-18.7-5.26-24.33-12.32-10.14,6.74-23.1,12.46-34.99,6.55-6.75-3.35-7.29-7.29-6.77-14.6ZM387.13,585.19c-3.12-3.1-8.96-12.16-13.79-10.69l-1,1.47c.18,1.92,7.46,7.02,8.81,9.62.6,1.15.1,1.26-.68,1.98-3.64.95-11.7-14.79-17.41-11.83-.19.95,0,1.21.46,1.92,2.35,3.65,7.26,7.52,9.76,11.19.49.72,1.25,1.17.96,2.32l-1.98.68c-2.52-2.25-4.71-6.54-7.19-8.59-1.35-1.12-5.73-3.76-5.93-.67-.3,4.49,10.48,10.61,9.84,16.46-2.49,2.54-3.15-2.51-4.6-4.4-.49-.64-4.62-4.96-4.94-5.1-1.17-.45-1.56,1.56-1.53,2.29.21,5.44,12.02,17.87,16.65,20.73,1.06.66,8.48,4.02,9.18,3.95l2.37-4.8,10.52-13.34c-1.1-7.66-3.15-17.71-11.19-20.67-1.36,1.66,10.14,8.93,3.7,9.77-1.03-.29-1.32-1.63-1.99-2.3ZM457.07,580.35l-9.86-3.95c1.88,3.68,3.59,7.68,3.95,11.82,2.04-2.02,3.63-4.39,5.51-6.57.4-.47.66-.34.4-1.31ZM509.66,609.91c-.92.93-8.56-5.76-10.04-6.72-2.24-1.45-8.93-5.55-11.29-5.07-.48.1-1.15.97-1.01,1.58.44,2.02,13.95,10.03,13.14,13.15l-1.98.68c-1.53-1.76-13.75-12.29-14.7-12.14-5.79.93,3.68,10.42,5.16,11.81s6.74,4.03,6.26,6.22c-.4,1.83-4.55-.87-5.22-1.35-2.38-1.71-7.84-9.09-9.56-9.22-2.15-.17-2.13,2.61-1.47,4.17.19.45,5.07,7.05,5.74,7.71,1.14,1.13,5.54,3.12,5.25,4.6-.82,4.13-8.97-5.22-9.63-5.48-1.62-.63-1.76.14-1.55,1.54,2.12.77,2.38,3.34,3.69,4.87,6.67,7.81,18.31,13.88,28.5,15.15,1.92-6.87,6.62-12.45,9.09-19.26-1.86-7.27-4.86-14.82-12.01-18.19l1.63,5.92ZM393.95,637.53l-10.97-7.76c-16.81-.12-33.73-2.82-49.85-7.35l-2.13,6.25c17.9,8.53,41.48,10.51,61.33,9.51.74-.04,1.81.43,1.63-.65ZM284.82,837.34h134.12c.41-8.85.83-17.88,1.92-26.67,3.22-26,7.3-54.1,12.5-79.65,1.75-8.6,2.94-17.33,5.3-25.79-.92,0-1.34,1.9-1.61,2.65-1.34,3.71-2.67,12.82-6.89,14.17-1.9.61-3.01-.37-4.21-.2-.92.13-1.88,1.46-3.39,1.49-2.96.05-3.43-2.87-4.08-3.01-2.53-.57-4.08,1.04-6.02-2.38-4.12-7.25-.18-23.86,3.61-31.05.8-1.51,4.63-6.53,4.72-7.1.13-.91-.9-1.68-.87-2.9.06-2.76,2.06-4.32,2.27-5.04,2.21-7.5,3.35-15.57,5.31-23.15-4.96-.06-9.99-.68-14.75-2.02-4.15-1.17-10.62-5.31-13.89-5.83-4.89-.79-13.39.73-19.06.65-10.72-.15-23.5-1.61-33.96-4.17-5.12-1.25-10.43-3.23-15.37-5.09-1.58-.17-3.15,4.43-3.58,5.59-3.53,9.48-5.74,20.3-8.59,30.06-13.37,45.72-24.14,90.56-30.17,138.24-1.31,10.36-2.39,20.81-3.29,31.21ZM292.48,668.19c2.11-1.91,12.62-14.4,12.02-16.43-5.77-4.82-12.95-8.01-17.05-14.6l-.86-.2c-2.44.23-16.75,8.88-17.55,10.77-.35.84.07,1.14.94.94,1.26-.29,12.49-6.7,10.88-1.61-.2.62-4.64,1.99-5.83,2.71-2.98,1.8-5.6,5.63-6.98,8.8-.43.99-3.92,9.47-.99,8.23,1.9-1.31,2.67-3.43,3.94-5.09.47-.61,1.36-.85,1.87-1.57,1.06-1.49,3.61-9,6.02-6.82.84.76-5.18,10.62-6.02,12.08-.78,1.36-3.69,2.46-2.24,5.69,3.61,5.12,8.79-12.52,12.54-12.54,1.19,0,1.98,1.07,1.56,2.23-.68,1.36-2.2,1.59-3.1,2.83-.98,1.35-7.05,11.58-1.59,8.94,3.67-1.78,7.89-11.17,9.78-11.92.39-.16,1.54-.35,1.57.26l-5.91,10.51c1.72,2.04,5.65-1.98,6.99-3.19ZM533.99,667.11c-3.1-.84-6.71-1.93-9.66-3.17-2.46-1.04-5.45-3.69-7.81-4.03-4.63-.67-14.58.89-20.36.65-13.56-.55-27.12-3.25-40.03-7.29-.52.05-2.53,8.96-1.03,10.22,1.03.86,9.9,3.48,11.83,3.95,20.53,4.99,45.36,4.75,66.07.96,1.07-.2,1.14.43.99-1.28ZM422.23,837.34h151.87c-.68-6.01-1.33-12.07-1.96-18.08-4.29-40.41-5.9-83.82-15.98-123.37-1.47-5.75-4.71-19.31-7.28-23.95-.08-.15-2.22-2.46-2.37-2.54-3.14-1.55-14.86,2.16-18.93,2.79-24.13,3.68-51.54,2.18-74.43-6.4-3.01,8.92-5.42,18.01-7.97,27.08-8.91,31.77-15.15,65.07-19,98.14-1.79,15.38-3.02,30.88-3.95,46.34ZM442.61,687.48c-6.57-.15-12.89-1.97-18.21-5.83-6.29,3.26-9.37,12.81-10.55,19.48-.99,5.62-1.36,11.24,1.78,16.3,2.27,1.39,4.32-7.67,5.08-9.41.33-.75,1.36-.75,1.49-1.28.86-3.61-1.38-3.21-1.66-5.39-.24-2,4.86-11.6,6.6-11.23,2.67.57-.48,3.69-.81,4.43-.57,1.27-2.09,4.63-2.07,5.77.03,1.75,2.09,2.71,1.93,4.54-.08.96-1.95,3.31-2.5,4.8-.68,1.83-.9,3.77-1.51,5.59-.15.44-1.11.47-1.24.97-.53,2,1.28,5.2,2.91,3.45,2.63-2.85,3.91-15.25,6.57-19.73,1.03-1.74,1.27-2.24,3.65-1.93.21.2-.44,4.06-.71,4.74-.25.62-1.17.57-1.61,1.78-.76,2.07-4.42,14.25-3.59,15.16l1.33-.31,5.98-15.05c.45-2.39,3.56-4.02,4.4-5.46.46-.8,3.18-10.97,2.76-11.38Z"/>
  <rect x=".14" y="841.29" width="595" height=".66" fill="#fff"/>
  <path d="M590.54,381.18v456.17h-14.46l-3.89-54.93c-4.55-30.01-6.63-61.44-14.84-91-2-7.2-4.16-14.39-6.81-21.38,3.87-2.27,8.74-2.59,12.84-4.79,12.84-6.89,14.71-22.67,14.01-35.93-.89-16.82-5.77-32.49-14.45-46.68,8.59-2.81,15.12-8.18,15.8-17.72.76-10.76-3.5-18.19-6.3-27.94-4.2-14.64-1.53-32.76-5.1-48.79-11.09-49.79-77.07-59.02-105.8-19.41l-4.45,7.7c-.28-1.86.39-4.4-.02-6.11-.85-3.53-2.29-8.95-3.46-13.09-7.68-27.14-29.26-37.78-56.05-38.01-15.82-.14-29.29.38-41.74,11.51-16.17,14.47-16.55,37.63-27.61,55.4-7.11,11.42-15.83,23.55-4.7,36.08-6.75,10.53-6.35,22.8,3.96,30.55v1.44c-2.17,2.59-3.69,5.72-5.08,8.76-4.31,9.5-7.48,18.94-11.44,28.66-6.54,16.07-18.46,27.92-26.75,42.93-3.54,1.72-16.65,8.61-17.65,11.93-1.33,4.42,1.86,4.86,1.88,5.16.13,1.54-5.21,8.85-5.24,13.19-.03,4.78,2.55,3.79,4.17,5.55.73.79.7,2.84,2.35,3.57s3.3.06,4.89.37c1.15.22,1.9,1.27,3.32,1.36,2.5.15,3.37-1.79,4.7-1.92,1.21-.12,2.17,1.44,4.33,1.08s7.67-4.73,9.4-6.44c2.92-2.88,9.41-13.72,11.47-14.87,1.23-.69,2.42,1.21,4.13.94s7.02-5.56,8.37-4.5c-1.38,2.2-1.21,5.06-2.03,7.36-17.74,49.44-27.26,106.66-34.12,159.26-.68,5.21-.92,8-1.96,12.6-.48,2.09.11,5.68-.67,8.1H4.08v-343.77l21.04,2.63c-2.18,8.56,7.14,11.72,13.78,13.5,21.76,5.83,79.36,7.91,99.94-.04,5.7-2.2,6.07-4.42,13.47-4.94,28.43-1.98,58.64.16,86.19-8.49,4.17-1.31,12.47-4.58,14.66-8.35s1.66-17.89,1.44-22.93c-.6-13.66-2.89-27.7-6.54-40.26-.96-3.29-1.46-6.77-2.69-10l55.16-2.03c1.59-1.72.09-21.84.72-25.91.1-.62.26-1.35.96-1.47l44.73,1.81c27.31,4.04,60.06,5.71,81.01,25.49,6.18,1.35,17.95-1.34,23.4.12.4.11,1.98,3.03,3.51,3.87,7.09,3.89,23.76,2.62,32.15,2.69,7.85.07,25.38,1.58,31.53-3.26,1-.79,2.44-3.2,2.77-3.29,3.15-.85,12.14.28,16.29,0,3.64-.24,14.38-1.07,15.31-5.06.87-3.73-2.42-19.27-3.74-23.56-.38-1.23-2.14-1.24-1.37-3.58l42.74.65ZM347.92,409.44c.22-1.9.69-3.8,1.3-5.61.68-2.03,3.2-4.57,1.01-6.2-3.71,3.1-4.81,7.08-4.27,11.82h1.96ZM340.29,404.6c-.4-.46-4.92-6.22-5.51-3.36-.36,1.75,2.47,3.65,3.58,4.96,1.38,1.63,1.61,5.28,4.95,2.27-.59-1.94-2-2.69-3.02-3.86ZM335.43,411.41c2.4-1.96-6.19-10.25-9.19-9.2-.57,3.01,2.22,2.75,3.61,3.94,2.06,1.76,3.2,4.28,5.58,5.26ZM548.07,431.53c-.7-1.58-1.07-3.33-2.22-4.7-5.23-.98-.21,4.13.34,6.89.36,1.76-.29,8.53,2.58,7.92,1.86-.39.92-7.68.28-9.34-.16-.42-.89-.56-.99-.78ZM558.32,430.48c-3.13-.28-6.3,10.14-5.25,11.17l1.98-.45,3.27-10.73ZM566.86,434.42c-1.34-1.3-10.53,4.79-9.2,7.88.84.85,7.44-4.39,8.22-5.25s1.22-1.28.97-2.63ZM311.77,439.68c-6.08,2.49-11.82,8.74-11.17,15.77,1.9,1.94,3.84-5.38,4.62-6.74,1.18-2.06,4.28-4.58,5.6-6.38.66-.9,1.24-1.33.95-2.66ZM296.65,453.15c-.13-3.93,0-7.9,0-11.83,0-1.24-3.29-1.24-3.29,0v13.15c0,1.97,2.97,2.43,3.91.56.25-.89-.61-1.59-.62-1.88ZM281.53,444.94c-.78,3.12,1.74,3.03,2.98,4.57s3.78,7.56,5.22,7.25c2.03-.43-1.03-5.9-1.65-6.89-1.42-2.25-3.57-5.16-6.56-4.94ZM274.96,521.18c-4.21-11.84-27.94-11.13-24.62,3.96-4.81,1.35-8.06.72-11.05,5.41-5.53,8.68,1.34,16.48,10.68,15.61-.6,3.51-2.56,3.42-2.01,7.59.04.28,2.91,4.19,3.3,4.59,3.85,3.95,8.71,4.23,13.83,2.93l-.97,19.07-.99.64c-4.2-12.47-16.37-20.3-29.59-19.06,1.13,17.99,22.38,34.08,39.99,29.13,11.69-3.28,16.18-12.31,16.48-23.8-.64-1.09-8.62,1.35-10.05,1.98-2.01.87-8.18,5.82-9.62,7.47-1.22,1.4-1.67,3.97-3.27,4.94.2-4.47-.29-9.03-.03-13.5.31-5.44.48-10.65,5.71-13.31,11.71,7.84,25.07-5.15,14.74-16.15,12.91-11.06,2.13-25.12-12.53-17.51ZM171.08,584.28v-11.83c7.83-2.34,11.07-6.68,9.95-15.03,11.79-3.27,8.85-18.42-3.37-17.84,1.13-9.56-10.6-13.91-17.25-7.89-1.11,1-1.78,3.51-2.92,3.88-1.46.47-3.96-1.08-5.8-1.25-10.23-.94-16.57,11.1-6.25,16.11-2.77.53-3.99,2.75-4.44,5.41-1.91,11.38,9.72,16.36,18.84,11.39-.17,3.39,6.93,4.95,7.21,5.32.32.43-.11,1.57.13,2,.36.65,1.15.57,1.26.99.75,3.02-.33,9.13.67,12.68-2.46-2.15-4.28-5.17-6.91-7.21-5.71-4.44-13.83-5.67-20.68-3.28,1.73,10.48,14.31,19.62,24.61,20.37,7.5.55,15.47-2.96,20.41-8.56s7.51-11.68,6.83-19c-1.24-2.17-13.43,2.95-15.39,4.53-2.81,2.26-4.41,6.71-6.89,9.21ZM51.63,547c-1.16,3.04.67,9.61-.91,13.28l2.34,2.3c.76-.05,1.46-2.84,1.57-3.66.25-1.79.95-14.47.73-15.71-.14-.77-.36-1.18-.99-1.63-2.23,1.25-1.25,3.09-1.67,4.78-.12.51-1.02.48-1.08.64ZM45.51,561.93c3.93-.23.22-7.4-.76-9.44-1.82-3.77-4.4-7.36-8.45-8.96-.68,3.25,3.15,5.06,4.6,7.08,2.32,3.23,3.71,7.46,4.61,11.32ZM69.17,546.16c-1.09-1.13-6.24,3.28-7.13,4.37-1.04,1.27-6.61,10.79-3.71,11.4,2.41-1.77,3.07-5.41,4.95-8.03,1.1-1.53,7.47-6.09,5.88-7.74ZM94.15,641.8v14.79c-2.05.21-2.27-3.37-3.27-4.95-3.72-5.93-11.94-10.5-18.94-11.3-2.02-.23-4.11-.5-6.1.1-1.55,4.65,2.13,11.57,5.28,15.17,3.72,4.25,15.1,10.89,20.72,11.49,12.98,1.39,27.53-7.72,28.57-21.45.27-3.59-1.94-3.04-4.89-2.86-4.99.31-8.1,1.3-11.86,4.58-2.74,2.38-4.26,5.54-6.89,7.9v-14.13c4-2.03,7.61-3.14,8.61-8.17,11.43,4.62,20.79-9.13,10.47-16.81,10.45-10.11-1.71-21.77-12.84-14.8-5.32-12.02-20.8-7.5-20.05,5.27-15.87,1.33-16.87,19.75.66,19.73-.85,1.99-.96,4.71-.61,6.85,1.19,7.32,10.75,7.42,11.13,8.59ZM207.89,650.67c-2.15,5.36-.96,6.7,4.46,8.36,7.16,2.19,34.17,4.18,31.55-8.54-1.59-7.74-17.19-10.38-23.75-8.42-1.94-3.01-2.69-5.82-5.36-8.49-9.95-9.98-23.53-6.06-31.11,4.38-4.67,6.43-4.56,9.82,3.7,11.85,6.85,1.68,13.56,1.67,20.51.86ZM62.6,689.78c-.61,2.13,0,10.79,0,13.8,0,1.45,2.56,2.61,3.94,2.3-.92-3.95.25-12.78-.76-15.99-.15-.49-.48-.81-.89-1.08-.79-.25-2.09.26-2.29.97ZM52.48,700.21c.45.64,6.17,11.62,4.72,3.52-.47-2.62-7.47-12.82-10.05-12.3-.71.14-1.14,1.09-.68,1.98.61,1.19,4.8,5.1,6.01,6.8ZM81.66,692.08c-1.19-1.16-6.4,3.42-7.24,4.44-1.17,1.44-5.49,8.57-2.28,9.35,1.05.26,5.13-7.96,6.24-8.88,1.71-1.58,3.65-2.07,3.28-4.92ZM214.47,722.32c.33-.49,0-10.05,0-11.83,0-.22-.7-.21-1.47-3.45-.69-2.88-3.32-4.7-3.14-2.14s1.07,5.85,1.32,8.56c.19,2.01-.76,9.03,1.07,9.47.12.03,2.17-.51,2.23-.6ZM201.57,708.93c-1.24-1.51-2.31-3.13-3.88-4.35l-1.63,1.63c4.35,4.65,7.6,10.21,9.14,16.38l2.03.39c1.11-1.09-2.9-11.03-4.05-12.74-.45-.66-1.25-.86-1.61-1.31ZM228.93,705.23c-6.72,1.45-11.45,10.36-11.17,17.09l2.03-.39c.99-2.81,2.01-6.88,3.74-9.28,1.82-2.52,6.01-3.61,5.4-7.41ZM106.65,756.5c7.05.17,30.6.16,33.69-7.4,2.62-6.43-5.46-14.42-10.45-17.48-15.44-9.46-38.93-4.78-46.9,12.06-11,.04-23.96,6.1-26.31,17.72.6,5.74,17.62,7.33,22.04,7.57,8.01.42,32.92,1.07,27.94-12.48ZM175.03,783.44c3.11.42,2.71-1.93,2.62-4.25s-1.75-14.81-4.92-14.14c-.92.19-.91,1.13-.7,1.99,1.28,5.27,3.97,10.44,3,16.41ZM192.11,766.36c-3.62-.96-6.37,3.57-7.77,6.36-.79,1.57-3.74,9.76-2.74,10.73l2.03-.39c.78-4.7,2.15-8.73,5.2-12.43,1.29-1.57,3.77-1.78,3.28-4.27ZM168.24,776.42c-.42-.53-1.71-1-2.46-1.8-1.84-1.98-3.11-5.06-6.54-4.97-.48,3.46,3.33,5.14,5.24,7.57.37.47,6.2,10.03,6.6,6.55-.07-1.97-1.64-5.85-2.84-7.35Z" fill="#fff"/>
  <path d="M590.54,3.89v202.45c-3.24-1.35-5.93-.06-9.2,0,.9-12.65-12.14-18.02-23.02-14.8-1,.29-4.77,2.85-5.25,2.31-.16-16.21-16.29-24.41-30.9-23.01-.98-13.92-10.41-25.57-22.58-31.65-30.8-15.39-70.87,3.03-74.08,38.23l-24.29-13.5c-22.57-12.69-48.23-5.11-72.61-8.91-10.4-1.62-20.5-7.08-30.62-9.49-33.25-7.91-58.38-.81-86.11,17.15-1.43.93-14.26,11.2-15.16,10.14.05-1.12,0-2.22-.3-3.32-11.12-39.79-51.63-55.3-89.93-43.83-32.4,9.71-53.6,42.5-45.88,76.07-16.83-11.59-35.78-19.77-56.53-20.38V3.89h586.45ZM398.18,47.66c-2.97-4.83-5.7-9.81-8.83-14.55l-2.9.34-.37,1.33c.48-.02,1.02.05,1.3.47,15.96,23.91,31.19,50.98,46,75.63,3.54,5.9,6.85,12.02,9.96,18.16,3.82,3.4,5.04.38,2.71-3.38-15.99-25.86-31.95-52.11-47.87-78ZM467.14,90.48l-7.61-53.88c-.67-2.37-1.4-2.96-3.68-1.71-.26.41-.25,2.87-.15,3.55.19,1.24,1.24.88,1.35,1.4,5.13,23.25,4.41,50.85,11.16,72.98.84,2.77-.21,10.44,3.97,10.04,0-.55.03-1.1.03-1.66,0-6.33-2.52-23.71-3.99-30.1-.11-.47-1.02-.45-1.09-.62ZM525.84,58.2c2.49-7.5,4.49-15.19,7.4-22.57.11-2.1-2.62-2.05-3.67.31-1.35,3.04-2.28,8.68-3.52,12.12-8.35,23.2-15.83,47.31-24.36,70.45-.98,2.66-3.73,10.2,1.49,7.91,3.49-10.42,6.23-21.14,9.69-31.57,3.93-11.85,9.05-24.79,12.99-36.65ZM132.29,66.99c-1.38-10.11-6.32-19.76-16.27-23.5-18.45-6.94-37.97,2.53-39.62,22.85-14.38-9.02-32.72.56-32.49,17.79-9.08,1.63-18.68,4.55-16.51,15.76,1.06,5.49,8.37,6.52,13.15,7.22,42.61-2.16,87.93,2.79,130.23,0,4.4-.29,12.17-1.49,15.76-3.96.71-.49,4.89-4.97,4.97-5.56.17-1.2.18-5.37-.07-6.46-.11-.47-1.03-.51-1.23-.99-5.35-12.87-13.48-13.44-26.36-10.65,1.54-13.21-10.27-18.61-21.86-16.92-4.08.59-6.15,2.95-9.7,4.43ZM429.45,139.95c2.44-2.44-8.84-9.98-10.19-11.17-26.48-23.41-53.43-45.69-80.57-68-1.9-1.56-7.81-7.93-9.18-8.58-2.34-1.1-3.44,1.42-2.33,2.99.39.55,1.95.68,2.67,1.28,32.58,27.06,65.02,54.31,96.61,82.86l2.99.62ZM571.04,84.97c1.71-1.87,12.03-9.71,5.11-10-.26.67-.51,1.36-1.03,1.89-17.74,18.26-34.58,37.33-51.99,55.85-.86.91-6.76,7.19-3.92,7.9,2.26.56,3.37-2.86,4.56-3.97,16.48-15.26,31.94-34.87,47.27-51.67ZM418.28,152.43c1.72-1.77-5.59-5.38-6.78-6.03-14.57-7.86-30.61-15.58-45.57-22.8-19.92-9.61-40.45-18.37-60.41-27.75l-2.28,1.04,115.05,55.53ZM577.38,137.32c-.68-.71-6.46,1.98-7.67,2.51-9.57,4.16-18.81,9.34-28.23,13.84-2.09,1-10.16,2.9-9.45,5.66.43,1.66,5.25-.37,6.38-.84,11.14-4.69,23.71-11.21,34.84-16.44,1.34-.63,5.85-2.95,4.14-4.73Z" fill="#fff"/>
  <path d="M445.01,201.3c3.05,4.1,5.05,8.68,8.75,12.61,5.81,6.18,14.71,10.08,19.37,16.79,6.91,9.95,7.13,23.2,16.48,31.5,1.12,1,2.63,1.37,3.96,2.61,13.74,12.82,13.66,20.23,20.62,36.05,6.23,14.17,11.88,22.31,14.45,38,.59,3.6.32,7.92,1.04,11.45,1.95,9.51,9.33,15.96,12.97,24.5,2.09,4.91,5.31,15.29,6.41,20,.48,2.03,1.74,10.62,1.04,12.01s-3.8,1.75-5.27,1.95c-7.54,1.05-15.94-.12-23.33,1.33-1.08-11.26-5.82-18.51-16.93-21.53-1.32-.36-2.84.13-4.12-.48-.9-.43-1.59-2.46-2.6-3.32-3.87-3.31-7.2-4.37-11.92-6-1.61-15.56.08-31.57-.57-47.25-1.52-36.39-10.28-69.4-39.8-92.98-36.26-28.97-91.43-29.45-129.94-4.36-32.79,21.36-54.11,43.38-61.5,83.12-5.17,27.84-4.96,62.71-4.19,91.2.03,1.12.22,1.92.7,2.91l-6.47.56c-1.81-4.33-3.86-8.74-6.66-12.54-.57-.77-1.8-1.03-2.33-1.78-7.56-10.46-11.46-23.9-20.04-33.23-2.23-2.43-6.94-4.98-8.46-7.97-1.43-2.83-.99-7.77-1.57-10.91-3.76-20.2-13.68-28.76-33.45-33.61-2.73-.67-10.28-.54-10.96-2.87-.28-.95,1.34-15.97,1.86-16.62,12.62,10.51,31.57,13.61,47.69,12.51,2.39-.16,8.69-.95,10.65-1.85,7.82-3.58,7.27-15.09,9.35-22.2,6.95-1.66,22.92-2.78,27.66-8.5,1.36-1.65.87-3.13,1.48-4.11.46-.73,3.09-1.61,3.92-3.63,1.6-3.89-.56-4.08-1.77-6.44-.57-1.11-.05-2.73-1.01-3.59-2.55-2.29-17.34-.62-21.04,1l2.52-5.49c-1.98-3.75-6.96-2.66-10.2-1.2-3.44,1.55-9.05,6.86-11.9,7.82-5.26,1.76-19.89,4.3-25.54,4.7-7.97.56-9.15-4.24-14.38-8.45-.74-.6-1.91-.72-2.63-1.32-3.59-2.97-6.89-6.31-10.83-8.86,2.78-2.17,3.54-6.3,5.22-8.57.85-1.16,2.78-2.1,3.99-3.24,10.31-9.8,20.28-22.76,22.16-37.66.51-4.09-.7-15.13.78-17.62,19.48-14.03,39.91-28.2,64.78-29.89,22.58-1.53,32.85,3.67,53.1,9.41,28.97,8.21,55.06-2.06,83.27,11.4,20.49,9.78,31.72,16.46,45.22,34.65ZM266.41,218.17c-1.24-.28-1.96.2-2.99.62-7.03,2.86-14.37,9.94-21.56,13.12-.69.34-.52,2.58-.42,2.68,1.23,1.31,14.76-8.59,16.74-9.88.76-.49,10.47-4.43,8.24-6.55ZM231.56,335.17c-1.45-.15-1.74-.15-2.5,1.11-1.8,3.01-2.44,7.61-3.47,10.87-.17.55-1.07.47-1.21,1-.23.86-1.02,6.43-.71,6.73l2.7-.38,5.19-19.33ZM502.9,348.52c-1.2-1.04-2.9-1.28-2.99.66.19,2.23,2.58,3.21,3.2,4.23,3.18,5.17,3.76,12.99,5.19,18.84l2.03.39c-.24-5.93-2.9-20.19-7.43-24.11Z" fill="#fff"/>
  <path d="M284.82,837.34c.91-10.41,1.98-20.85,3.29-31.21,6.03-47.67,16.8-92.51,30.17-138.24,2.85-9.76,5.06-20.58,8.59-30.06.43-1.16,2-5.76,3.58-5.59,4.94,1.86,10.25,3.84,15.37,5.09,10.46,2.56,23.24,4.02,33.96,4.17,5.67.08,14.17-1.43,19.06-.65,3.27.53,9.74,4.67,13.89,5.83,4.76,1.34,9.79,1.95,14.75,2.02-1.96,7.58-3.11,15.66-5.31,23.15-.21.72-2.2,2.29-2.27,5.04-.03,1.22,1,1.99.87,2.9-.08.58-3.92,5.59-4.72,7.1-3.79,7.19-7.72,23.8-3.61,31.05,1.94,3.42,3.49,1.81,6.02,2.38.65.15,1.12,3.07,4.08,3.01,1.51-.03,2.47-1.36,3.39-1.49,1.2-.17,2.3.81,4.21.2,4.22-1.35,5.55-10.47,6.89-14.17.27-.75.69-2.65,1.61-2.65-2.36,8.46-3.55,17.19-5.3,25.79-5.19,25.55-9.27,53.66-12.5,79.65-1.09,8.79-1.51,17.82-1.92,26.67h-134.12ZM352.13,711.56c-.89-3.29-1.62-6.66-2.14-10.04-.4-2.64-1.28-20.59-3.04-20.61-.63.45-.86.86-.99,1.63-1.42,8.23,3.13,29.76,5.83,38.2,1.77,5.53,8,22.02,11.5,26.33,1.94,2.39,6.04,5.14,3.6,0-2.26-4.77-5.21-8.05-7.43-13.61-2.67-6.7-5.56-15.37-7.33-21.9ZM372.25,701.28c-.18-.15-1.42.08-1.96,0-.5,6.75,1.94,13.96,4.41,20.21.29.73,1.22.78,1.46,1.33,1.31,3.02,2.09,7.01,3.81,9.84.51.84.36,1.33,1.81.82,1.36-.47.59-1.13.45-1.73-1.05-4.56-4.41-11.27-6.1-16.13-.15-.44-1.01-.55-1.18-1.06-.67-1.97-2.18-12.85-2.71-13.28Z" fill="#fff"/>
  <path d="M422.23,837.34c.93-15.45,2.16-30.95,3.95-46.34,3.85-33.07,10.09-66.37,19-98.14,2.54-9.07,4.96-18.16,7.97-27.08,22.89,8.58,50.31,10.08,74.43,6.4,4.07-.62,15.79-4.34,18.93-2.79.16.08,2.29,2.38,2.37,2.54,2.56,4.64,5.81,18.2,7.28,23.95,10.08,39.55,11.69,82.97,15.98,123.37.64,6.02,1.28,12.08,1.96,18.08h-151.87ZM490.21,747.7c-3.95-12.67-5.52-26.26-6.18-39.48-.18-3.65.9-8.46-.99-11.53-2.62-.03-1.22,19.56-.98,22,1.76,18.12,7.63,41.09,16.97,56.65,1.2,2,3.97,7.79,6.67,5.15-7.79-9.11-10.9-20.8-14.5-32.02-.13-.42-.94-.58-1-.76Z" fill="#fff"/>
  <path d="M123.05,406.84c.98,3.86-1.72,9.72-.28,13.1.34.8,8.08,10.63,9.2,11.84,3.68,3.98,10.24,9.42,15.45,10.84,6.95,1.89,26.1,2,20.98-9.67-1.6-3.65-8.94-12.73-11.77-16.44-.82-1.08-2.05-1.14-3.13-2.97-.89-1.51-1.6-3.85-1.52-5.64.34-1.49,16.57-1.74,19.11-1.74-.39,2.24-1.4,6.8-1.29,8.83.2,3.56,7.49,5.07,10.41,6.69,6.86,3.8,17.58,12.81,25.4,12.79,7.34-.02,13.89-7.23,9.68-14.33-1.17-1.97-7.93-8.46-10-10.38-2.55-2.36-7.04-3.57-7.28-7.88.22-2.56,10.03-2.53,11.09-6.05.64-2.13.24-10.84.12-13.67-.25-6.01-1.96-13.32-1.99-19.05,0-.99-.42-1.93,1-1.65,1.98,2.46,5.22,5.02,7.08,7.39,5.9,7.53,8.98,16.79,14.03,24.76,7.33,11.57,11.81,14.37,15.73,28.97,3.84,14.3,6.96,31.97,7.58,46.98.18,4.32.77,14.1-1.81,17.3-3.56,4.41-18.66,8-24.38,9.15-26.06,5.24-53.82,5.16-80.34,6.1-.27-2.58-.43-5.86-1.21-8.3-10.51-32.83-38.07-61.12-75.86-51.33-20.47,5.31-33.09,22.74-40.57,41.08-.78,1.93-1.84,8.81-3.34,9.72l-21.04-3.01.15-90.22c5.58-12.8,17.92-19.42,25.47-30.55,2.6-3.83,4.22-8.42,7.26-12.31,8.16-10.45,19.94-16.31,32.2-20.72-.49,6.96,4.34,10.48,9.67,13.68,8.85,5.31,19.75,7.49,29.51,10.61l-2.22,40.32c.92,3.18,13.6,5.27,16.92,5.76ZM52.49,394.09c2.44-3.5,4.62-6.07,7.79-8.98,1.73-1.59,4.17-2.53,5.61-4.25,2.8-3.35-.31-3.37-2.97-1.65-1.55,1-10.88,9.98-12.05,11.59-3.85,5.32-5.88,13-7.34,19.3.73.02,1.33.16,1.99-.3.61-.42,3.79-11.8,5.09-13.99.62-1.06,1.55-1.25,1.88-1.72ZM201.6,468.98c-1.18-1.56-8.09-10.22-10.13-8.27-1.23,1.17,4.04,4.87,4.93,5.91,1.94,2.26,4.58,5.89,6.22,8.38.31.47,4.57,9.46,3.98,3.77-.39-3.79-2.82-6.93-5-9.8Z" fill="#fff"/>
  <path d="M269.04,410.76c.37-16.74-.49-33.57-.03-50.31.57-20.56,2.1-42.12,6.38-61.98,20.71-96,161.71-108.26,197.78-17.85,8.91,22.33,9.63,46.98,10.23,71.28.21,8.72-.13,17.5-.12,26.23l-.98.99c-15.06.37-29.92,16.41-31.14,30.98h-20.71l-1.02-2.27c-3.53-48.54,16.24-128.48-40.93-152.32-43.7-18.23-82.95,13.55-87.23,56.99-1.98,32.34-2.93,64.72-3.28,97.14-.13.44-1.48,1.11-1.67,1.11h-27.28ZM407.77,249.72c-.56,2.89,2.49,2.67,4.39,3.82,1.6.97,10,7.69,10.72,4.39.21-1.14-.89-1.27-1.52-1.75-1.73-1.33-12.1-7.92-13.6-6.45ZM433.21,266.36c-1.57-1.35-2.62-.7-3.74.78,0,.71,4.58,4.4,5.25,5.25,1.28,1.63,4.24,8.43,5.59,8.2,1.01-.73.98-.98.85-2.13-.33-3.01-5.58-10.07-7.96-12.11ZM447.86,320.71c.7-.67-.52-17.75-1.44-19.27-1.37-2.26-3.02-1.19-3.22,1.18-.07.81.54,6.94.73,7.77.11.5,1.16.41,1.29.9.37,1.52-.3,8.6.69,9.4.19.15,1.41-.08,1.95,0ZM446.55,339.11v39.11c0,.7,1.89,1.26,2.62.99,1.66-12.7.2-25.67,0-38.45-.29-1.63-1.05-1.82-2.63-1.64Z" fill="#fff"/>
  <path d="M361.08,533.02c-5.16,26,32.75,26.87,43.38,9.49l.89-.23c1.71,1.98,5,2.42,6.7,3.87,1.19,1.01,2.04,3.29,3.26,4.63,3.13,3.43,8.28,6.19,12.65,7.73,1.92.68,8.77,1.77,9.43,2.57,1.97,2.37,5.16,12.61,6.59,16.12.23.56,1.16.63,1.44,1.35.92,2.31,4.31,11.9,4.08,13.74-.15,1.14-3.26,6.65-4.08,8.27-5.12,10.12-8.91,21.16-13.28,31.57l-3.4,13.23c-12.16,1.16-25.14-4.37-35-11.22-1.89-1.31-9.26-7.15-9.52-8.9-.18-1.25.72-4.48,1.25-5.75s3.94-6.71,4.92-8.2c2.22-3.38,7.69-12.17,12.12-10.94l24.05,11.55,2.24-.99c.53-2.39-13.02-6.82-14.98-8.34-.86-6.99-.26-14.23-.81-21.22-.2-2.59-.59-9.55-3.96-6.48-.92,3.66,1.28,4.15,1.4,5.11.8,6.83.53,13.89.6,20.75-2.99-.52-10.89-2.89-11.69-5.74-1.48-5.29-2.95-12.51-7.35-16.97-4.11-4.18-5.14-2.02-9.4-3.09-3.7-.92-4.15-4.8-11.08-2.85-1.33.38-1.23,1.74-1.6,1.73-1.62-.03-2.98-1.86-6.51-1.32-4.61.72-2.86,3.62-3.97,5.26-.75,1.09-3.01-.48-3.04,4.24,0,1.55.78,3.25.57,4.43-.13.72-1.14,1.63-1.39,2.58-.88,3.35-.37,4.97.96,8.02,2.44,5.58,12.91,16.39,18.34,19.13,2.08,1.05,4.87,1.97,7.2,2.34l-1.29,8.52c-16.21-.57-32.15-3.88-47.93-7.3.33-15.74,1.58-33.9,7.22-48.72.24-.62,1.15-.6,1.45-1.34,1.09-2.68,2.63-5.53,2.44-8.38-1.02-.12-3.8,3.49-4.13,4.11-4.97,9.33-8.12,28.92-9.01,39.61-.78,9.43.94,12.91-2.73,22.28-1.41,3.59-4.92,15.83-6.47,17.83-.92,1.19-9.82,6.5-11.35,6.11-1.69-.43-8.09-4.64-9.92-5.91-2.43-1.69-13.23-10-11.97-13.01,2.59-4.34,6.19-7.96,9.05-12.04,4.81-6.88,11.17-15.44,14.44-23.03,7.19-16.66,9.95-33.83,22.87-47.47,7.17-7.58,15.88-14.55,26.31-16.74Z" fill="#fff"/>
  <path d="M486.65,563.91c-.52,7.31.02,11.24,6.77,14.6,11.89,5.91,24.85.18,34.99-6.55,5.63,7.06,15.28,11.77,24.33,12.32,2.53.15,6.39-1.12,8.01.22,3.04,2.5,7.34,14.47,8.7,18.57,4.16,12.55,5.83,26.39,4.67,40.08-.53,6.19-5.22,15.64-10.59,18.99-12.45,7.78-30.83,3.93-42.9-3.03-1.5-.87-7.39-5.01-8.34-6.11-2.11-2.45-.67-6.61.47-9.38.3-.73,1.21-.76,1.45-1.34,2.75-6.46,5.3-13,9.22-18.9.44-.27,3.53.71,4.34.99,2.82.98,8.05,3.11,10.75,4.37,2.27,1.05,12.04,7.29,12.96,7.43,1.46.23,1.81-1.31,1.24-2.57-.85-1.9-12.17-6.49-14.68-8-1.36-2.23-.13-11.14-.79-13.89-.11-.47-1.09-.4-1.25-.95-.56-1.9.03-6.59-3.34-5.09-.38,5.34,1.96,11.95,1.32,17.1-.11.89.36,1.18-.9.9-3.4-.76-6.88-3.76-10.8-4.01-.53-6.27-7.72-19.1-14.93-18.33-1.36.14-2.45,1.35-3.14,1.25-3.5-.48-9.04-7.34-15.86-7.05-3.12.13-2.9,1.82-4.14,2.6-.78.49-2.06.43-2.8.99-3.31,2.48-1.98,3.57-2.78,6.41-.71,2.51-2.98,1.88-2.45,7.3.41,4.16.16,2.92-.1,6.64-.56,7.92,15.37,18.52,21.95,21.48,3.36,1.51,7.29,2.78,10.97,3.17-1.62,5.77-.73,8.95,3.28,13.14-18.79,1.43-38.83-.73-56.45-7.31-.22-.34-.24-4.72-.14-5.54.16-1.24,1.27-.64,1.42-1.88,1.86-15.24,2.43-27.93,7.81-42.79,1.1-3.04,2.82-5.54,3.98-8.51l-2.85-.36c-4.23,7.96-6.55,16.91-8.7,25.62-3.29,13.3-3.2,22.04-4.21,35.89-.46,6.26-5.14,23.23-7.72,29.07-.19.43-2.65,3.51-3.15,3.48-1.55.3-9.27-2-11.09-2.75-2.01-.83-7.75-3.92-7.65-6.08,3.33-10.63,5.27-21.7,8.44-32.37,4.83-16.27,11.22-34.51,19.36-49.68,7.01-13.06,20.3-27.2,35.31-30.1Z" fill="#fff"/>
  <path d="M201.54,346.16c2.05,9.47,3.63,20.32,4.38,30.75.23,3.27,1.52,16.79.02,18.42-2.05,2.24-23.19,6.22-27.39,6.8-14.32,1.99-35.81,4.31-49.88,2.7-3.29-.38-18.98-2.87-19.96-5.68-.09-6.56-.27-13.82.5-20.32.15-1.24,1.28-.64,1.42-1.88.76-6.42,1.62-14.72,1.94-21.11.04-.77.11-1.61-.33-2.3l-2.89.13-.09,3.19c-1.14,1.21-13.49-2.87-15.75-3.65-4.91-1.7-16.67-6.51-19.66-10.58-3.5-4.77-1.99-14.57-.43-19.95,3.32,1.16,6.09,3.88,9.1,5.37,3.39,1.67,14.88,6.72,18.06,6.98,4.54.37,11.67-2.39,14.92-5.65,4.41,2.83,11.63,8.39,17.05,7.74,1.26-.15,6.98-1.22,7.57-1.67.56-.42.78-1.56,1.37-1.91,1.43-.83,4.3,0,5.1-2.79,1.02-3.56-.2-7.15-1.85-10.22-.41-.77-2.93-1.6-1.68-3.81,6.96-1.35,13.2-4.73,20.34-3.81,11.05,1.42,27.11,6.84,33.18,16.78,3.42,5.6,3.61,10.35,4.94,16.46ZM176.99,358.83c-.9-.05-1.27-.21-2,.44-.91.81-4.48,8.73-6,10.98-1.66,2.44-5.43,7.31-7.44,9.62-1.33,1.53-10.23,8.44-8.88,9.85,1.87.17,3.28-1.23,4.6-2.29,3.06-2.45,8.77-8.84,11.16-12.03,1.5-2,9.87-15.26,8.55-16.56Z" fill="#fff"/>
  <path d="M559.91,476.88c8.78,17.04,6.08,34.69,7.62,53.16,1.28,15.27,18.94,35.37.07,47.42-11.05,7.06-29.49,3.53-36.52-7.7-16.75-26.78,24.94-71.75-11.08-97.37-12.05-8.57-35.3-11.11-47.47-1.8-8.78,6.71-6.83,9.97-9.47,19.46-3.62,13.04-9.46,26.48-8.62,40,.16,2.63,1.35,5.96,1.33,8.52-.08,9.26-6.38,19.1-5.11,28.78.38,2.89,1.96,5.54,2.45,8.39-2.08-.87-3.78-1.87-5.25-3.62-4.73-5.64-5.79-11.39-4.31-18.8.41-2.03,4.09-5.28,3.56-7.35-8.31-6.07-7.64-15.86-3.17-24.26,1.82-3.42,4.68-6.35,6.39-10.88,2.85-7.57,3.01-15.73,5.48-23.31,15.47-47.5,80.46-56.5,104.09-10.65ZM551.74,517.89l-1.98.39c-.86,12.6,2.86,24.41,7.17,36.03l2.69.39c-4.77-11.7-7.95-24.04-7.89-36.81Z" fill="#fff"/>
  <path d="M4.08,184.65c17.2-.36,35.21,6.71,49.39,16.02,5.94,3.9,10.49,8.19,13.72,14.55-8.55-.02-14.86,1.64-21.9,6.36-16.29,10.94-23.14,37.79-26.58,56.24-1.84,9.87-3.5,20.95-2.79,31.38.24,3.51,2.02,10.11,4.25,12.84,2.7,3.28,6.41,4.21,10.35,2.44,4.94-2.22,6.33-12.14,8.07-12.96,1.63.35,2.3,2.7,3.77,3.44,8.61,4.34,13.31-5.52,14.37-12.58l2.16-.1c.56.14,3.25,9.02,4.34,10.71,1.45,2.24,7.06,5.86,7.15,8.67.11,3.53-1.86,8.27-1.31,12.11-9.92,3.23-18.24,6.75-26.15,13.63-9.4,8.18-12.09,16.42-19.13,25.57-3.1,4.03-8.27,7.28-11.85,11.16-2.81,3.04-4.7,6.91-7.87,9.55v-209.02Z" fill="#fff"/>
  <path d="M133.38,474.73c3.51,5.78,9.48,20.45,9.19,26.96-.24,5.2-8.6,6.49-12.88,7.35-19.07,3.86-81.11,4.28-97.42-5.18-4.9-2.84-5.57-5.43-3.79-11.09,8.67-27.56,26.5-51.16,58.78-49.14,20.13,1.26,36.13,14.62,46.13,31.1Z" fill="#fff"/>
  <path d="M475.48,230c-2.69-7.02-10.13-9.35-15.13-14.12-.79-.76-2.45-1.78-1.66-2.99,1.9-2.92,11.69-1.76,14.85-1.57,1.16-.86.48-5.98.7-7.87,1.17-9.83,14.36-18.13,23.16-12.13,1.78,1.22,4.05,5.13,6.39,3.54,1.63-3.02,1.46-6.61,2.74-9.76,3.23-7.98,15.08-12.4,23.13-11.57,13.7,1.41,21.55,12.45,21.44,25.56,2.34.47,3.04-1.93,4.64-2.92,7.79-4.79,20.9-2.9,22.67,7.48.31,1.8-.13,7.63,1.29,7.93.7.14,8.02-4.67,10.83-2.63v21.03h-115.06Z" fill="#fff"/>
  <path d="M386.25,452.66c2.19,1.92,3.22,4.54,5.78,6.36,4.77,3.41,9.78,2.67,12.93,8.76,2.8,5.4,2.33,10.03,8.11,14.24,1.6,1.17,3.83,2.07,5.79,2.41.97,1.12-2.77,9.77,1.89,8.71,3.27-.74,4.07-4.84,7.74-.88,1.11,1.78-3.56,15.1-5.08,17.59l-8.44-.23c-13.01,29.61-69.22,31.74-72.28-5.88-1.14-14.04,7.82-49.69,19.39-58.15,5.15-3.76,11.4-5.23,17.74-4.6,9.58.96,4.79,4.69,6.44,11.66ZM359.77,452.82c3.48.51,5.84-2.63,9.04-3.13s6.24,1.68,8.7-.48c-.04-2.22-9.1-1.85-10.79-1.6-2.36.35-6.61,2.45-6.94,5.21ZM364.13,472.31c1.98-3.72,1.78-8.41-3.39-8.33-8.01.12-8.67,14.76-.78,12.38.5-.15,3.96-3.64,4.17-4.05ZM365.86,489.46c-4.32-4.84,7.65-10.08,8.27-14.11.3-1.92-1.47-3.25-2.69-1.31-3.32,5.26-12.61,9.12-9.86,15.42.9,2.08,9.14,6.59,10.02,3.77s-4.44-2.32-5.74-3.78ZM398.19,476.89c-7.39-12.82-15.69,10.57-5.28,9.45,4.05-.44,3.99-4.1,5.05-6.72.31-.76,1.7-.28,1.26-2.11-.21-.34-.88-.35-1.03-.62ZM367.49,503.56c-11,1.04-4,17.55,3.82,13.06,6.25-3.59,1.25-13.54-3.82-13.06Z" fill="#fff"/>
  <path d="M532.02,498.17c-3.89.22-4.36-4.43-5.93-6.74-1.48-2.17-4.57-6.64-6.6-8-6.08-4.08-11.71.56-17.42-1.64-4.19-1.62-3.15-7.72-5.2-7.27-3.32.73-.21,7.31,1.66,8.84,4.53,3.7,13.21.14,18.21,2.17,5.92,2.4,6.82,15.7,15.21,16.01.72,12.69-3.72,24.91-6.02,37.22-23.35,27.74-73.59,25.46-67.36-20.35,1.61-11.82,7.33-22.69,9.66-33.18.85-3.82-.89-4.6,2.31-8.76,7.13-9.27,24.62-10.06,35.04-7.4,14.15,3.61,24.96,14.18,26.44,29.1ZM489.89,477.85c-4.32-1.49-10.11-2.21-14.41-.38-1.97.84-7.04,5.63-6.58,7.87.71,3.44,4.53-3.25,4.93-3.61,3.53-3.18,11.16-3.27,15.13-.67l.92-3.21ZM473.34,491.06c-5.06,1.02-7.09,12.52-.71,12.83s8.82-14.47.71-12.83ZM488.63,498.84c-2.4-.06-2.72,2.87-3.94,4.27-2.84,3.26-8.82,5.26-8.52,9.82.35,5.31,10.68,7.49,11.15,5.29.43-2-9.22-3.07-8.57-6.53,4.14-3.4,10.44-6.58,9.88-12.85ZM501.96,509.84c5.62,6.27,13.03-7.27,8.38-10.02-5.14-3.04-11.89,6.12-8.38,10.02ZM490.22,532.11c-5.63-13.24-18.55-1.95-11.41,5.79,4.76,5.16,14.05,1.63,12.42-5.08-.12-.47-.93-.53-1.01-.72Z" fill="#fff"/>
  <path d="M590.54,269.44v67.04c-5.67-3.75-12.35-3.37-17.74.66-.33-19.98-30.24-20.77-31.57-.66-3.63-1.57-6.34-3.05-10.5-1.99-.49-2.3-.65-4.69-1.25-6.97-3.32-12.66-12.2-24.66-16.63-37.29-.61-1.73-2.45-7.38-.81-8.24,11.66-4.94,21.97-12.68,34.11-16.51,15.03-4.74,30.52-3.39,44.39,3.96Z" fill="#fff"/>
  <path d="M514.04,155.94c1.92,2.91,6.36,13.15,4.51,16.23-.64,1.06-4.16,1.61-5.53,2.35-6.3,3.43-8.8,9.58-12.23,15.37-13.3-9.59-31.14,2.81-29.26,18.41-5.82-2.23-10.99,1.23-16.47,2.3-8.17-10.93-14.66-22.99-26.13-31.01-.85-14.18,10.12-29.43,22.01-36.24,20.39-11.67,49.72-7.7,63.1,12.59Z" fill="#fff"/>
  <path d="M146.09,253.66c.15.91-.28,1.51-.78,2.21-6.32,8.85-14.56,17.89-22.89,25.07-2.63,2.27-14.54,11.25-17.42,10.84-1.22-.77-.63-1.01-.58-1.83.23-3.84,5.17-26.14,4.18-27.09l-1.92.04-5.63,29.55c-1.01,1.63-6.54-2.21-8.55-1.33-.58,0-.43,1.34-.31,1.63.63,1.52,27.04,10.31,30.21,13.16-9.98,5.3-17.71,14.72-21.76,25.23-2.64,1.75-23.25-8.76-26.54-11.11-10.49-7.5-14.53-20.62-10.82-33.02,4.51-15.09,17.82-38.46,30.92-48.08,1.75-1.28,8.62-5.19,10.33-4.19,5.4,8.36,15.37,14.84,24.98,17.42,1.47.39,5.88,1.5,7.04,1.5h9.53Z" fill="#fff"/>
  <path d="M190.41,162.04c8.69,19.72,6.02,40.32-7.21,57.4-2.86,3.7-6.65,6.5-9.83,9.9-1.24-2.66.41-5.62.39-8.21-.05-5.46-1.25-12.2-1.4-17.72-.07-2.57-.48-10.55.02-12.38.07-.25,3.12-2.39,3.95-3.43,8.35-10.47,5.93-26.82-6.32-33.11-4.2-2.16-5.62-2.43-9.67-5.12-14.07-9.32-39.63-7.71-53.51,1.6-2.51,1.68-4.83,5.03-6.75,6.38-1.56,1.1-3.57,1.13-5.2,2.05-7.25,4.12-14.85,14.45-15.21,22.92-.14,3.4,1.12,6.71.64,9.84-.38,2.47-2.81,4.82-3.2,7.31-.34,2.14-.28,7.56.02,9.76.57,4.17,4.58,6.72,3.22,11.56-2.03-2.67-7.81-3.56-9.5-5.29-.7-.72-2.53-4.27-3.11-5.43-2.94-5.86-5.65-13.93-5.82-20.47-1.79-67.45,100.78-90.45,128.5-27.57Z" fill="#fff"/>
  <path d="M218.42,260.23v40.76c-13.6.95-28.32,2.06-41.22-3.16-2.78-1.13-12.93-6.82-13.71-9.29-.25-.78-.31-1.51-.35-2.33-.34-7.1,1.84-16.38,2.06-23.65.03-1.03.03-5.29-1.02-5.62l-1.66.39-4.07,44.51-.79,1.19c-1.12.9-8.55,1.65-10.59,1.9-3.75.47-15.39,1.89-18.39,1.31-1.2-.23-5.21-3.36-6.99-4.18-5.27-2.44-10.92-4.3-16.36-6.33l16.76-10.51c7.64-7.79,15.95-14.9,22.69-23.51,1.68-2.14,3.95-7.28,5.56-8.72,1.98-1.76,5.87-2.02,8.06-3.12,5.75-2.9,3.71-6.5,11.32-1.08,5.1,3.63,10.4,9.58,15.51,13.41,1.16.87,2.82,2.11,4.23,2.39,2.22.45,12.42-1.3,15.39-1.8,4.5-.75,8.9-2.79,13.56-2.55Z" fill="#fff"/>
  <path d="M167.13,176.75c-.89,2.11,1.17,2.71,1.28,3.11,2.04,7.58,2.64,35.99,2.03,44.57-1.53,21.76-21.35,30.75-41.21,24.72-9.8-2.98-22.03-12.21-25.17-22.16-1.36-4.32-3.23-17.68-1.91-21.54.3-.87,4.15-3.02,5.28-5.23,2.15-4.19.8-9.72,1.6-11.48.23-.5,3.22-1.98,4.71-4.56,1.2-2.09,2.64-8.74,4.37-8.75,1.33-.01,6.58,2.39,9.24,2.63,6.96.64,15.09-1.16,19.07-7.23,5.98,4.32,13.22,7.7,20.7,5.92ZM136.23,185.96c.54-3.45-4.5-3.5-6.84-3.23-1.85.21-9.94,2.67-7.62,5.2.36.39,6.63-2.38,8.39-2.45,1.9-.08,4.01.91,6.07.48ZM165.82,187.93c.08-.06.49-1.68.36-1.99-3.46-2.84-8.52-4.15-12.84-2.6-.02,3,3.47,1.58,5.43,2.12,1.24.34,6.3,3.08,7.06,2.48ZM155.31,213.55c.47-4.77-2.99-8.15-4.75-12.01-.62-1.36-1.4-7.47-3.47-7.03-5.22,1.11,6.8,16.06,4.64,19.1-2.01,2.83-6.17-2.25-7.93-2.07-1.57.16-1.36,1.87-2.1,2.05-3.12.75-5.38-.15-9.39,1.64-2.54,1.13-8.7,6.06-7.89,9.16.92,3.53,4.07-2.71,4.91-3.59,2.79-2.93,9.15-4.75,13.17-4.64,2.87.08,4.48,1.46,7.23,1.42s3.23-1.18,4.65-1.38c2.78-.39,6.67,2.62,8.45,4.65.7.8,1.72,4.57,3.65,3.24,3.59-2.46-7.4-12.3-11.15-10.53ZM130.82,204.21c1.24-1.29,1.46-7.82.2-8.77-8.99-2.17-5.48,14.26-.2,8.77ZM162.37,195.98c-5.48-5.5-9,10.96-1.8,8.78,3.03-.92,3.5-7.07,1.8-8.78ZM153.98,224.09c-.55-.55-6.75,1.15-8.22,1.17-4.57.05-15.92-5.58-10.09,4.32s17.55,3.84,18.31-5.49Z" fill="#fff"/>
  <path d="M590.54,233.29v32.86c-13.61-6.68-28.13-8.51-42.88-4.41-13.8,3.83-25.49,12.85-38.64,18.22-2.3-7.5-8.93-12.8-14.47-18.08-1.39-1.32-3.63-2.33-4.93-3.62-6.25-6.17-6.23-14.59-9.6-21.81-.37-.78-2.42-1.46-1.91-3.16h112.43Z" fill="#fff"/>
  <path d="M422,446.47c7.54,11.56,9.39,29.13,7.45,42.51-4.71-2.57-4.96-8.67-7.2-12.67-6.25-11.18-17.1-26.9-28.5-33.46-13.3-7.66-27.9-6.12-38.27,5.38-6.43,7.13-10.44,23.22-13.14,32.88-2.36,8.46-3.59,13.86-2.99,23.36.38,6.06,5.8,17.42,10.61,21.6,1.06.92,8.19,4.28,7.17,5.64-10.1,3.07-20.15,9.93-25.75,18.97-2.55,1.49-7.06-5.27-7.91-7.34-3.35-8.19-.9-14.48,3.97-21.27-5.03-5.44-6.73-9.76-5.53-17.34,1.42-8.95,10.61-17.4,14.29-26.47,5.93-14.62,7.73-29.83,18.95-42,21.35-23.15,51.16-13.78,66.83,10.22Z" fill="#fff"/>
  <path d="M411.38,422.59c9.66,1.14,22.26,8.93,28.61,16.09,16.27,18.33,15.09,42.38,9.55,64.79-3.17,12.83-15.84,23.06-10.73,36.96.62,1.69,3.77,6.25,3.78,6.7.03.8-1.9,4.78-2.32,6.23-.36,1.26.02,4.23-1.25,4.47-18.51-2.19-32.12-12.84-22.97-32.62,2.7-5.83,7.88-9.07,10.89-15.41,12.23-25.81,8.43-56.26-12.34-76.62l-15.38-10.59c3.88.33,8.38-.45,12.16,0Z" fill="#fff"/>
  <path d="M173.04,187.27c-.08.07-1.38.24-1.31-.32.56-3.42-1.22-7.48-1.15-10.68.03-1.4,2.68-2.56,1.81-4.77-2.65.25-4.14,2.17-6.96,2.57-8.58,1.19-12.94-1.91-19.02-7.22-4.92,4.53-6.35,7.92-13.87,8.51-6.49.5-11.11-1.93-16.93-3.91-1.72,3.53-1.98,8.26-4.45,11.46-1.12,1.46-4.56,3.1-5.06,4.85-.94,3.28,2.53,7.44-2.06,12.35-4.29,4.58-7.62-3.46-13.77.04-5.79,3.29-5.71,8.87-4,14.73-6.19.05-7.07-8.62-6.4-13.3.47-3.24,2.78-6.08,3.14-8.69,1-7.18-1.79-13.18,2.71-20.33s7.85-8.21,14.2-12.07c2.84-1.73,5.28-5.27,8.49-7.29,11.37-7.16,37.64-10.9,48.82-2.35,1.34,1.03,1.65,2.63,3.09,3.48,1.95,1.16,5.75,1.57,8.28,2.89,8.34,4.34,11.07,15.61,8.07,24.12-.24.69-3.36,5.69-3.62,5.92Z" fill="#fff"/>
  <path d="M86.5,237c.46.57,1.69.79,2.1,1.52,1.33,2.36-2.11,3.21-3.35,4.59-6.62,7.42-12,15.85-17.07,24.33-.31,0-2.71-3.68-2.86-4.42-.33-1.7,1.63-5.53-1.65-4.68-1.79.46-2.68,6.23-3.59,8.25-1.81,4.01-6.43,10.18-11.5,8.62s-.07-15.74-2.76-15.64c-1.14,1.15-1.74,2.71-2.41,4.15-2.29,4.9-5.17,12.04-9.07,15.91-3.53,3.51-9.1,5-9.9-1.33-3.01-23.59,17.21-67.65,46.55-59.03,11.4,3.35,9.42,10.16,15.5,17.7Z" fill="#fff"/>
  <path d="M590.54,377.89h-40.43c-.88,0-2.66-.05-3.28-.63-2.51-6.22-6.02-11.82-9.33-17.61-.42-.73-1.28-.9-1.9-2.06-3.16-5.9-3.6-13.21-4.18-19.76.38-.66,5.74-.01,6.57.26,1.79.59,3.1,3.5,4.88,2.99,1.12-.32.71-6.06,1.32-7.9,2.96-8.92,17.59-12.33,23.24-3.5,2.75,4.31,1.36,6.4,2.08,10.41.78,4.36,5.25-.99,6.77-1.77,4.08-2.11,11.11-1.83,14.27,1.78v37.79Z" fill="#fff"/>
  <path d="M498.02,390.19c1.08.7,6.1,1.03,8.35,1.84,7.11,2.57,14.02,12.51,11.55,20.07-1.04,3.19-12.48,4.32-15.82,4.55-10.85.75-30.75.62-41.24-1.48-3.67-.73-7.28-1.38-7.04-5.98s7.11-14.85,10.15-18.18c7.33-8.03,18.87-13,28.83-6.46,2.09,1.37,4.26,5,5.22,5.62Z" fill="#fff"/>
  <path d="M40.9,295.73h-2.61c-.93,6.6-2.47,19.78-7.33,24.57-4.77,4.71-8.53,2.13-10.13-3.53-3.24-11.52-.47-24.49.35-36.16,1.68,1.32,1.89,3.61,4.21,4.65,7.8,3.5,13.81-8.42,17.81-13.19,4.76,12.61,16.47,4.6,19.42-4.58,6.77,1.16,3.73,5.61,1.87,9.95-.21.49-1.01.6-1.19,1.05-2.62,6.67-4.18,13.99-4.01,21.17-1.35.04-2.99-5.08-4.27-3.29-1.41,1.97-1.14,7.94-2.34,10.67-.12.28-3.4,4.84-3.63,5.05-.48.46-.92.91-1.57,1.11-2.86,1.55-6.59-4.79-6.59-6.65v-10.85Z" fill="#fff"/>
  <path d="M509.66,609.91l-1.63-5.92c7.15,3.37,10.14,10.92,12.01,18.19-2.47,6.81-7.18,12.38-9.09,19.26-10.2-1.28-21.83-7.34-28.5-15.15-1.31-1.53-1.57-4.1-3.69-4.87-.2-1.4-.06-2.17,1.55-1.54.66.26,8.82,9.61,9.63,5.48.29-1.48-4.1-3.47-5.25-4.6-.67-.66-5.55-7.27-5.74-7.71-.66-1.57-.68-4.34,1.47-4.17,1.72.13,7.18,7.51,9.56,9.22.66.48,4.82,3.17,5.22,1.35.48-2.18-4.75-4.79-6.26-6.22s-10.95-10.88-5.16-11.81c.95-.15,13.17,10.38,14.7,12.14l1.98-.68c.81-3.12-12.7-11.13-13.14-13.15-.13-.61.53-1.49,1.01-1.58,2.36-.49,9.05,3.62,11.29,5.07,1.48.96,9.12,7.65,10.04,6.72Z" fill="#fff"/>
  <path d="M387.13,585.19c.67.67.96,2.01,1.99,2.3,6.43-.84-5.06-8.11-3.7-9.77,8.04,2.96,10.09,13.01,11.19,20.67l-10.52,13.34-2.37,4.8c-.7.07-8.12-3.3-9.18-3.95-4.62-2.85-16.44-15.28-16.65-20.73-.03-.73.37-2.74,1.53-2.29.33.14,4.45,4.47,4.94,5.1,1.46,1.89,2.12,6.94,4.6,4.4.63-5.85-10.14-11.97-9.84-16.46.21-3.09,4.59-.44,5.93.67,2.48,2.05,4.66,6.34,7.19,8.59l1.98-.68c.3-1.15-.46-1.59-.96-2.32-2.5-3.67-7.41-7.54-9.76-11.19-.46-.72-.65-.97-.46-1.92,5.72-2.96,13.77,12.77,17.41,11.83.79-.72,1.28-.83.68-1.98-1.35-2.6-8.63-7.7-8.81-9.62l1-1.47c4.82-1.47,10.67,7.59,13.79,10.69Z" fill="#fff"/>
  <path d="M533.99,667.11c.15,1.71.08,1.09-.99,1.28-20.72,3.79-45.55,4.03-66.07-.96-1.93-.47-10.8-3.08-11.83-3.95-1.51-1.26.5-10.16,1.03-10.22,12.91,4.04,26.47,6.74,40.03,7.29,5.78.24,15.73-1.32,20.36-.65,2.36.34,5.36,2.99,7.81,4.03,2.94,1.24,6.56,2.33,9.66,3.17Z" fill="#fff"/>
  <path d="M523.47,560.29c.37,3.21,2.86,5.91,2.99,8.87-7.71,6.12-21.95,11.96-31.3,6.94-7.27-3.9-7.06-8.59-5.13-16.04,12.54-1.01,25.1-6.02,33.77-15.21,1.09.53-.33,1.92-.33,2.3,0,4.05-.44,9.3,0,13.15Z" fill="#fff"/>
  <path d="M292.48,668.19c-1.34,1.21-5.27,5.23-6.99,3.19l5.91-10.51c-.03-.61-1.18-.41-1.57-.26-1.89.75-6.11,10.14-9.78,11.92-5.46,2.64.61-7.59,1.59-8.94.9-1.23,2.42-1.46,3.1-2.83.42-1.16-.36-2.23-1.56-2.23-3.74.02-8.92,17.66-12.54,12.54-1.45-3.24,1.46-4.34,2.24-5.69.84-1.46,6.86-11.32,6.02-12.08-2.41-2.18-4.96,5.33-6.02,6.82-.51.72-1.41.96-1.87,1.57-1.27,1.66-2.04,3.78-3.94,5.09-2.94,1.25.55-7.23.99-8.23,1.39-3.17,4-6.99,6.98-8.8,1.2-.73,5.64-2.09,5.83-2.71,1.61-5.08-9.62,1.32-10.88,1.61-.87.2-1.29-.1-.94-.94.8-1.89,15.11-10.55,17.55-10.77l.86.2c4.1,6.59,11.29,9.79,17.05,14.6.6,2.04-9.91,14.53-12.02,16.43Z" fill="#fff"/>
  <path d="M238.13,250.38l-8.59,12.77-.61,3c2.01,2.08,6.15-6.67,6.75-7.05.93-.61,11.57-2.66,13.31-2.79,1.55-.12,9.41-.74,8.86,1.62-3.09,2.59-8.05,2.06-11.83,3.3l-.66,2.3c.39.38,7.47-.62,8.7-.82.72-.12,7.95-3.22,7.07.49-.6,2.52-14.44,2.85-15.49,4.24-.48.63-.27,1.31-.29,2.01l11.17-1.31c.48.49-1.03,2.83-1.62,3.3-3.64,2.94-25.15,7.19-30.26,7.27-1.21.02-2.43-.31-3.52-.81l.91-18.95c1.96-2.02,13.79-10.52,16.09-8.56Z" fill="#fff"/>
  <path d="M442.61,687.48c.42.41-2.3,10.58-2.76,11.38-.83,1.45-3.94,3.08-4.4,5.46l-5.98,15.05-1.33.31c-.83-.91,2.83-13.09,3.59-15.16.44-1.21,1.37-1.16,1.61-1.78.27-.68.92-4.53.71-4.74-2.38-.31-2.62.19-3.65,1.93-2.66,4.48-3.94,16.88-6.57,19.73-1.62,1.76-3.44-1.44-2.91-3.45.13-.5,1.09-.53,1.24-.97.61-1.82.84-3.76,1.51-5.59.55-1.49,2.42-3.84,2.5-4.8.16-1.82-1.9-2.79-1.93-4.54-.02-1.14,1.5-4.5,2.07-5.77.33-.74,3.49-3.86.81-4.43-1.74-.37-6.83,9.23-6.6,11.23.27,2.18,2.51,1.78,1.66,5.39-.13.53-1.16.53-1.49,1.28-.76,1.74-2.81,10.8-5.08,9.41-3.14-5.05-2.77-10.68-1.78-16.3,1.18-6.68,4.25-16.23,10.55-19.48,5.32,3.86,11.64,5.68,18.21,5.83Z" fill="#fff"/>
  <path d="M365.12,533.77c12.71,1.63,24.69,1.13,36.06-5.35l1.72,10.84c-.17,2-8.1,8.29-10.1,9.36-11.87,6.32-32.52,2-27.67-14.85Z" fill="#fff"/>
  <path d="M255.89,323.34c-.62-.62,2.68-15.07,3.35-17.22,1.08-3.48,3.74-9.98,5.35-13.84,6.19-14.87,16.52-27.5,28.11-38.61l-9.21,15.29c-5.7,9.23-10.26,22.86-12.44,33.18-1.45,6.9-1.31,14.28-2.67,21.21h-12.49Z" fill="#fff"/>
  <path d="M268.38,325.97l-1.41,37.05c-.22.85-.8.94-1.55,1.08-3.27.61-8.59-.06-12.17.66.23-6.45-.29-12.97-.02-19.42.19-4.65.55-12.69,1.36-17.05.2-1.1.82-1.65,1.63-2.32h12.16Z" fill="#fff"/>
  <path d="M393.95,637.53c.18,1.08-.89.61-1.63.65-19.85,1-43.43-.98-61.33-9.51l2.13-6.25c16.11,4.53,33.04,7.23,49.85,7.35l10.97,7.76Z" fill="#fff"/>
  <path d="M252.6,368.36l1.64-.99c4.39.57,8.6-1.64,12.83,0,.24.66-.66,1.37-.66,1.64v32.54c-4.46-1-10.08,1.94-13.81-.33v-32.86Z" fill="#fff"/>
  <path d="M141.5,330.56c-.52-1.87-5.12-9.97-6.36-10.41-.54-.19-4.3-.66-3.5.87,2.46,1.61,4.83,5.09,6.02,7.78.62,1.4,1.91,3.31.21,4.39-2.64.68-8.27-7.87-10.17-9.54-.6-.81-1.85.18-1.98.68-.44,1.7,5.38,7.29,5.58,9.52-6.63-1.21-12.7-5.91-17.85-10.09-.56-.46-.72-1.67-1.53-2.08-1.01-.51-2.72.21-2.64-.97,2.19-.55,3.35-3.7,4.92-5.27,2.92-2.93,8.63-7.91,12.87-6.95,4.57,1.03,11.14,7.5,13.39,11.61,1.43,2.62,4.85,8.86,1.05,10.46Z" fill="#fff"/>
  <path d="M459.69,544.19c.23.23,1.93,4.1,3.28,5.6,5.35,5.93,15.76,9.98,23.68,10.18-.1,1.02-1,1-1.68,1.27-3.83,1.51-7,2.18-10.75,4.37-5.36,3.13-10.57,7.64-14.85,12.09-7.08-7.1-6.61-15.64-3.71-24.7.3-.94,1.19-.91,1.51-1.82.64-1.81.58-4.27,1.19-6.03.23-.67.2-2.04,1.33-.95Z" fill="#fff"/>
  <path d="M195.33,402.29l2.43,5.13,4.87,4.65c-4.56.14-8.74,3.78-12.43,6.31-.99.67-1.93,2.22-2.7,2.58-2.62,1.23-10.95-5.3-14.36-5.68-.09-2.15.12-9.27,1.88-10.11l20.31-2.88Z" fill="#fff"/>
  <path d="M410.14,462.27c2.82,3.81,8.72,14.13,10.1,18.5.31.98,0,1.06-.88.89-4.1-.78-5.43-2.22-7.68-5.48-2.59-3.76-3.92-10.27-6.94-13.44-3.31-3.47-9.93-3.86-13.05-7.33-2.84-3.17-2.41-7.19-2.34-11.13.87-.96,9.41,5.88,10.52,6.89,2.91,2.63,7.97,8.01,10.26,11.1Z" fill="#fff"/>
  <path d="M88.76,218.31c.17.1,1.37,2.29,2.44,3.15,2.74,2.19,6.04,3.04,9.53,2.63l1.98,7.88c-4.02.41-7.13,3.05-10.35,5.17l-1.49-.2c-4.85-5.91-7.71-11.21-8.55-19.08,1.42.23,5.7.04,6.45.46Z" fill="#fff"/>
  <path d="M160.55,428.5c-7.41-.6-14.6,2.67-20.72,6.42l-5.57-5.43c3.38-4.19,8.75-6.46,14.1-6.93,5.63-.49,11.29-.81,12.18,5.94Z" fill="#fff"/>
  <path d="M404.67,525.97c1.51-1.88,5.73-4.28,7.71-6.41,2.6-2.81,4.22-9.01,8.52-5.93-8.05,8.52-10.09,15.21-9.65,26.77.03.68.88.92-.53,1.81-4.94-1.58-9.11-12.42-6.05-16.23Z" fill="#fff"/>
  <path d="M99.41,204.36v16.43c-12.57.56-15.46-24.3,0-16.43Z" fill="#fff"/>
  <path d="M209.87,419.29c-5.33,1.16-9.76,4.86-14.17,7.93l-6.86-3.65c5.25-5.26,15.97-14.66,21.03-4.28Z" fill="#fff"/>
  <path d="M165.15,439.02c-1.44,1.09-3.1-3.87-3.65-3.97-4.21.25-.77,2.78-.95,5.29-1.5,1.45-5.17-5.76-7.88-4.59l1.97,5.25c-4.94,1.26-3.27-3.6-6.25-5.91-3.12.23-.43,3.88-.98,4.6-.6-1.24-5.17-1.74-4.59-2.95,1.41-2.94,17.86-7.49,20.71-4.95,1.05.93,3.06,6.15,1.63,7.23Z" fill="#fff"/>
  <path d="M157.93,306.25c.19.17-1.17,4.26-1.45,4.47-.64.47-14.62,3.94-15.46,3.92-1.97-.04-3.69-4.38-6.09-4.46.05-3.12,4.52-1.71,6.89-1.97,5.37-.57,10.71-1.7,16.11-1.96Z" fill="#fff"/>
  <path d="M253.26,411.41c.26-1.67-1.64-5.19-.04-6.29.55-.37,12.72-1.42,13.19-.95v7.23h-13.15Z" fill="#fff"/>
  <path d="M226.96,281.27c-1.15,2.77-.68,6.82-1.34,9.38-.13.49-1.03.44-1.22.99-.77,2.16-1.01,5.31-3.34,6.71l-.67-17.09h6.58Z" fill="#fff"/>
  <path d="M211.8,421.95l.69,5.23-1.41-2.53-2.53-.09c-.68,2.38,2.77,4.12.32,5.9-.63-.03-2.23-4.79-4.28-2.93l.67,3.6-6.56-2.3c-.01-.81,10.94-7.78,13.1-6.88Z" fill="#fff"/>
  <path d="M457.07,580.35c.26.97,0,.84-.4,1.31-1.88,2.18-3.46,4.55-5.51,6.57-.36-4.15-2.07-8.15-3.95-11.82l9.86,3.95Z" fill="#fff"/>
  <path d="M109.26,322.69c.28,2.12,3.87,2.58,3.67,5.26l-9.57,3.92c-.43-.42,3.63-7.79,4.3-8.51.54-.59.66-.9,1.6-.67Z" fill="#fff"/>
  <path d="M423.54,487.01l-1.31,1.31c-.19-1.37-.07-1.5,1.31-1.31Z" fill="#fff"/>
  <path d="M148.72,407.47c-.11,4.78,2.86,8.51,4.94,12.47-8.07-.84-14.97,2.47-21.72,6.36-.53-.07-6.21-6.8-6.53-7.69-.49-1.34.41-10.72.99-11.13,7.15.9,15.23,1.19,22.32-.02Z" fill="#fff"/>
  <path d="M274.96,521.18c14.66-7.61,25.44,6.45,12.53,17.51,10.32,10.99-3.03,23.99-14.74,16.15-5.23,2.66-5.4,7.88-5.71,13.31-.25,4.46.23,9.03.03,13.5,1.6-.97,2.05-3.54,3.27-4.94,1.44-1.65,7.6-6.6,9.62-7.47,1.43-.62,9.4-3.07,10.05-1.98-.3,11.5-4.8,20.52-16.48,23.8-17.61,4.95-38.86-11.14-39.99-29.13,13.23-1.24,25.39,6.59,29.59,19.06l.99-.64.97-19.07c-5.12,1.3-9.98,1.02-13.83-2.93-.39-.4-3.26-4.31-3.3-4.59-.55-4.18,1.41-4.08,2.01-7.59-9.34.87-16.2-6.93-10.68-15.61,2.99-4.69,6.24-4.06,11.05-5.41-3.32-15.09,20.41-15.8,24.62-3.96ZM271.31,520.9c-3.24-4.84-10.18-6.63-15.43-4-6.24,3.13-.83,9.42-2.25,11.54-1.47,1.19-3.3-.15-5.27-.06-7.99.38-12.33,11.45-3.13,14.3,3.29,1.02,5.43.02,8.4.81,1.42,2.65-1,3.7-1.73,5.57-4.06,10.37,11.73,12.73,16.49,5.98,1.09-1.55,1.06-3.92,3.04-4.88,4.96,2.73,7.37,6.82,13.36,2.87,4.38-2.89,4.38-8.33.73-11.83-1.51-1.45-3.81-1.02-3.34-3.26,7.2-1.56,12.5-13.3,3.78-16.26-5.85-1.98-10.94,4.6-12.63,4.1-1.6-.96-.69-2.8-1.02-4.13-.14-.55-.84-.53-.99-.76ZM259.42,580.11c-1.07-1.99-1.82-4.37-3.25-6.29-4.3-5.79-11.85-8.04-18.69-9.24,1.83,12.83,13.24,21.83,25.3,24.33,1.39-.07-1.78-7.06-2.1-7.73s-1.12-.8-1.26-1.06ZM283.27,581.44c2.16-3.03,2.76-7.26,4.15-10.64-.99-1.34-.85-.69-1.73-.44-9,2.58-15.31,9.36-17.96,18.2.5.64.53.76,1.35.73,4.82-.17,11.41-3.97,14.18-7.85Z"/>
  <path d="M94.15,641.8c-.38-1.17-9.94-1.26-11.13-8.59-.35-2.14-.24-4.86.61-6.85-17.54.02-16.53-18.4-.66-19.73-.75-12.77,14.73-17.29,20.05-5.27,11.12-6.96,23.28,4.7,12.84,14.8,10.32,7.67.97,21.42-10.47,16.81-1,5.03-4.61,6.14-8.61,8.17v14.13c2.63-2.36,4.15-5.52,6.89-7.9,3.76-3.27,6.87-4.27,11.86-4.58,2.94-.18,5.16-.73,4.89,2.86-1.04,13.74-15.58,22.85-28.57,21.45-5.62-.6-17-7.24-20.72-11.49-3.15-3.61-6.83-10.52-5.28-15.17,1.99-.6,4.08-.33,6.1-.1,7,.79,15.22,5.37,18.94,11.3.99,1.58,1.21,5.16,3.27,4.95v-14.79ZM100.75,605.3c.43-4.8-4.5-9.76-9.26-8.24-2.59.82-6.22,6.36-5.76,9.11.34,2.05,2.43,1.46,1.85,3.75-1.92.32-3.73-.71-5.59-.71-4.06,0-8.99,5.45-8.23,9.58.58,3.15,10.73,5.91,13.82,4.93,1.06,3.03-1.49,3.16-1.83,5.05-1.06,5.86,4.39,9.84,9.86,9.25,5.38-.58,7.36-4.18,8.41-9.05.83-.61,6.44,4.72,11.52.02,5.49-5.08.5-10.01-4.29-12.84,9.16-4.71,7.34-15.7-3.67-14.16-3.21.45-3.35,3.98-6.84,3.3ZM87.35,651.55c-.51-.61-4.32-3.93-5.07-4.46-4.16-2.9-9.4-4-14.42-3.65,2.79,11.59,13.35,18.29,24.32,21.02-.72-4.17-2.05-9.65-4.83-12.92ZM96.79,664.47c10.14-1.48,18.98-7.55,21.01-18.08-.09-1.2-4.36-.32-5.39-.14-9.29,1.64-9.98,6.06-13.47,13.46-.52,1.1-2.84,2.23-2.15,4.77Z"/>
  <path d="M171.08,584.28c2.48-2.5,4.09-6.95,6.89-9.21,1.96-1.58,14.16-6.7,15.39-4.53.68,7.32-2.11,13.65-6.83,19s-12.91,9.11-20.41,8.56c-10.3-.75-22.88-9.89-24.61-20.37,6.85-2.39,14.97-1.16,20.68,3.28,2.63,2.04,4.45,5.06,6.91,7.21-1-3.55.08-9.67-.67-12.68-.1-.42-.9-.34-1.26-.99-.24-.43.19-1.58-.13-2-.28-.37-7.38-1.93-7.21-5.32-9.12,4.96-20.75-.01-18.84-11.39.45-2.66,1.66-4.88,4.44-5.41-10.32-5.02-3.98-17.06,6.25-16.11,1.84.17,4.34,1.72,5.8,1.25,1.14-.37,1.82-2.88,2.92-3.88,6.65-6.02,18.39-1.67,17.25,7.89,12.22-.58,15.16,14.57,3.37,17.84,1.12,8.35-2.12,12.69-9.95,15.03v11.83ZM175.02,542.88c.66-6.3-.57-12.08-8.15-11.12-6.08.77-5.95,6.87-8.06,7.74-2.32.26-3.66-2.1-6.52-2.5-3.91-.54-9.97,2.45-9.37,6.72.34,2.37,5.07,4.46,6.71,5.68,2.6,1.94-3.46,3.58-4.04,4.16-.66.67-.37,2.39-1.95,2.62-1.5,3.67,3.29,9.52,6.88,10.21,4.36.84,9.23-4.04,10.32-3.79,2.72,5.54,3.81,7.42,10.5,6.5,4.06-.56,6.11-2.7,6.33-6.86.15-2.76-1.48-4.4-1.07-6.91.9-1.22,7.32.63,9.22-4.6,2.44-6.71-5.58-8.93-10.82-7.85ZM190.14,573.11c-11.15,1.67-17.81,10.67-17.74,21.68,9.84-2.29,17.97-11.27,17.74-21.68ZM167.33,593.98c-2.01-4.43-3.59-9.5-8.5-12.24-1.53-.85-13.18-4.31-13.36-1.74,2.15,6.52,7.41,11.42,13.78,13.81,2.82,1.06,6.33,2.21,9.2.98.29-1.04-.93-.42-1.11-.81Z"/>
  <path d="M106.65,756.5c4.99,13.55-19.92,12.9-27.94,12.48-4.42-.23-21.44-1.83-22.04-7.57,2.35-11.63,15.31-17.69,26.31-17.72,7.96-16.85,31.46-21.53,46.9-12.06,4.99,3.06,13.07,11.05,10.45,17.48-3.08,7.56-26.64,7.57-33.69,7.4ZM134.03,738.31c-1.98-2.09-8.05-6.01-10.96-7.11-14.14-5.34-27.58-.7-35.48,11.69-.42.66-1.56.11-1.31,1.1,4.53.64,8.58,1.88,12.51,4.26,1.53.92,5.3,4.73,5.66,4.84,1.88.6,14.89.33,17.65.1,3.79-.32,16.92-2.09,16.01-7.38-.18-1.05-3.25-6.63-4.07-7.51ZM103.86,762.92c3.11-6.23-5.08-12.2-10.17-14.17-7.09-2.75-16.13-3-22.99.4-3.22,1.59-12.57,8.38-10.43,12.61.88,1.73,12.08,3.73,14.5,3.93,9.4.78,20.14.18,29.09-2.77Z"/>
  <path d="M207.89,650.67c-6.95.81-13.66.82-20.51-.86-8.26-2.02-8.37-5.42-3.7-11.85,7.58-10.44,21.16-14.36,31.11-4.38,2.67,2.67,3.42,5.48,5.36,8.49,6.57-1.96,22.16.68,23.75,8.42,2.61,12.71-24.4,10.73-31.55,8.54-5.42-1.66-6.61-2.99-4.46-8.36ZM214.26,637.07c-.71-.88-6.62-5.51-7.65-5.82-8.79-2.6-22.09,4.27-23.08,13.72.33,1.4,8.57,2.87,10.24,3.06,3.1.36,14.47.61,16.95-.13,1.01-.3,4.51-3.81,6.06-4.44.35-.75-1.88-5.61-2.52-6.4ZM209.87,655.26c6.21,2.05,12.8,3.18,19.38,2.63,23.24-1.94,7.93-14.63-4.57-13.79-5.16.35-14.02,5.73-14.8,11.16Z"/>
  <path d="M51.63,547c.06-.16.95-.14,1.08-.64.42-1.69-.56-3.53,1.67-4.78.64.45.86.87.99,1.63.22,1.24-.48,13.92-.73,15.71-.11.82-.81,3.62-1.57,3.66l-2.34-2.3c1.57-3.66-.26-10.23.91-13.28Z"/>
  <path d="M214.47,722.32c-.06.1-2.11.63-2.23.6-1.83-.44-.88-7.46-1.07-9.47-.25-2.71-1.12-5.88-1.32-8.56s2.45-.74,3.14,2.14c.77,3.24,1.47,3.23,1.47,3.45,0,1.78.33,11.34,0,11.83Z"/>
  <path d="M62.6,689.78c.2-.71,1.5-1.22,2.29-.97.41.27.74.6.89,1.08,1.01,3.21-.16,12.04.76,15.99-1.38.31-3.94-.85-3.94-2.3,0-3.01-.61-11.68,0-13.8Z"/>
  <path d="M228.93,705.23c.6,3.8-3.58,4.89-5.4,7.41s-2.75,6.47-3.74,9.28l-2.03.39c-.28-6.73,4.45-15.64,11.17-17.09Z"/>
  <path d="M201.57,708.93c.37.45,1.17.65,1.61,1.31,1.15,1.71,5.16,11.65,4.05,12.74l-2.03-.39c-1.54-6.17-4.8-11.72-9.14-16.38l1.63-1.63c1.57,1.22,2.64,2.85,3.88,4.35Z"/>
  <path d="M69.17,546.16c1.59,1.65-4.79,6.21-5.88,7.74-1.88,2.62-2.54,6.26-4.95,8.03-2.9-.61,2.66-10.13,3.71-11.4.89-1.09,6.04-5.5,7.13-4.37Z"/>
  <path d="M168.24,776.42c1.21,1.5,2.77,5.39,2.84,7.35-.4,3.48-6.23-6.08-6.6-6.55-1.91-2.43-5.71-4.11-5.24-7.57,3.42-.09,4.7,2.99,6.54,4.97.75.8,2.03,1.28,2.46,1.8Z"/>
  <path d="M296.65,453.15c0,.29.88.99.62,1.88-.94,1.87-3.91,1.41-3.91-.56v-13.15c0-1.24,3.29-1.24,3.29,0,0,3.93-.13,7.9,0,11.83Z"/>
  <path d="M45.51,561.93c-.9-3.86-2.28-8.09-4.61-11.32-1.45-2.02-5.28-3.83-4.6-7.08,4.05,1.6,6.63,5.19,8.45,8.96.98,2.03,4.69,9.2.76,9.44Z"/>
  <path d="M311.77,439.68c.28,1.32-.29,1.76-.95,2.66-1.32,1.79-4.42,4.32-5.6,6.38-.78,1.35-2.72,8.67-4.62,6.74-.65-7.03,5.09-13.28,11.17-15.77Z"/>
  <path d="M81.66,692.08c.37,2.85-1.58,3.34-3.28,4.92-1.11.92-5.19,9.13-6.24,8.88-3.21-.78,1.11-7.92,2.28-9.35.84-1.03,6.05-5.6,7.24-4.44Z"/>
  <path d="M192.11,766.36c.49,2.49-1.99,2.7-3.28,4.27-3.05,3.7-4.42,7.74-5.2,12.43l-2.03.39c-1-.98,1.95-9.16,2.74-10.73,1.4-2.79,4.15-7.32,7.77-6.36Z"/>
  <path d="M175.03,783.44c.97-5.97-1.72-11.14-3-16.41-.21-.86-.22-1.8.7-1.99,3.17-.66,4.84,11.9,4.92,14.14s.49,4.68-2.62,4.25Z"/>
  <path d="M52.48,700.21c-1.21-1.71-5.39-5.61-6.01-6.8-.46-.89-.03-1.84.68-1.98,2.58-.51,9.58,9.68,10.05,12.3,1.45,8.1-4.27-2.88-4.72-3.52Z"/>
  <path d="M548.07,431.53c.09.21.82.36.99.78.64,1.65,1.58,8.94-.28,9.34-2.87.6-2.23-6.16-2.58-7.92-.56-2.75-5.58-7.87-.34-6.89,1.15,1.37,1.52,3.12,2.22,4.7Z"/>
  <path d="M281.53,444.94c2.99-.22,5.14,2.69,6.56,4.94.62.98,3.68,6.46,1.65,6.89-1.44.3-3.93-5.66-5.22-7.25s-3.76-1.45-2.98-4.57Z"/>
  <path d="M566.86,434.42c.24,1.35-.16,1.74-.97,2.63s-7.39,6.09-8.22,5.25c-1.34-3.09,7.85-9.18,9.2-7.88Z"/>
  <path d="M347.92,409.44h-1.96c-.54-4.73.56-8.72,4.27-11.82,2.19,1.64-.33,4.18-1.01,6.2-.61,1.81-1.08,3.71-1.3,5.61Z"/>
  <path d="M340.29,404.6c1.02,1.17,2.43,1.92,3.02,3.86-3.35,3.01-3.58-.64-4.95-2.27-1.11-1.31-3.94-3.21-3.58-4.96.59-2.86,5.11,2.9,5.51,3.36Z"/>
  <path d="M335.43,411.41c-2.38-.97-3.52-3.5-5.58-5.26-1.39-1.19-4.19-.93-3.61-3.94,3-1.05,11.6,7.24,9.19,9.2Z"/>
  <path d="M558.32,430.48l-3.27,10.73-1.98.45c-1.05-1.03,2.12-11.46,5.25-11.17Z"/>
  <path d="M132.29,66.99c3.55-1.48,5.62-3.83,9.7-4.43,11.59-1.69,23.39,3.71,21.86,16.92,12.87-2.79,21.01-2.22,26.36,10.65.2.48,1.12.52,1.23.99.25,1.09.24,5.26.07,6.46-.08.59-4.26,5.07-4.97,5.56-3.58,2.48-11.35,3.67-15.76,3.96-42.3,2.79-87.61-2.16-130.23,0-4.79-.7-12.09-1.73-13.15-7.22-2.17-11.21,7.43-14.14,16.51-15.76-.22-17.24,18.11-26.81,32.49-17.79,1.66-20.31,21.17-29.78,39.62-22.85,9.95,3.74,14.89,13.39,16.27,23.5ZM161.22,84.08v-9.53c0-.9-3.23-5.43-4.28-6.24-5.86-4.53-13.98-4.37-20.01-.29-2.01,1.36-3.56,4.18-6.24,4.87-2.06-.45-1.82-9.73-2.69-12.47-6.77-21.39-39.36-22.24-47.03-1.02-.72,2-2.12,10.88-2.57,11.23-1.38,1.05-8.11-4.46-10.92-4.92-7.56-1.23-17.96,4.49-20.16,11.97-1,3.39-.08,6.39-.8,9.72-1.05,1.51-11.36-1.35-15.11,5.27-4.2,7.42,3.04,11.86,9.78,11.8,41.51-1.82,84.97,2.35,126.25-.03,5.56-.32,18.86-1.16,20.55-7.71,2.42-9.38-7.91-16.8-16.53-15.91-3.62.37-6.63,3.34-10.26,3.25Z"/>
  <path d="M429.45,139.95l-2.99-.62c-31.58-28.55-64.03-55.79-96.61-82.86-.72-.6-2.28-.73-2.67-1.28-1.11-1.58,0-4.1,2.33-2.99,1.36.64,7.28,7.02,9.18,8.58,27.13,22.31,54.08,44.59,80.57,68,1.35,1.19,12.63,8.73,10.19,11.17Z"/>
  <path d="M418.28,152.43l-115.05-55.53,2.28-1.04c19.96,9.38,40.48,18.14,60.41,27.75,14.96,7.22,31,14.93,45.57,22.8,1.2.65,8.51,4.26,6.78,6.03Z"/>
  <path d="M398.18,47.66c15.91,25.89,31.88,52.13,47.87,78,2.33,3.76,1.11,6.78-2.71,3.38-3.1-6.15-6.41-12.27-9.96-18.16-14.81-24.65-30.04-51.72-46-75.63-.28-.43-.82-.49-1.3-.47l.37-1.33,2.9-.34c3.13,4.74,5.86,9.72,8.83,14.55Z"/>
  <path d="M525.84,58.2c-3.94,11.86-9.06,24.8-12.99,36.65-3.46,10.43-6.2,21.15-9.69,31.57-5.22,2.29-2.47-5.25-1.49-7.91,8.53-23.14,16.01-47.25,24.36-70.45,1.24-3.45,2.17-9.08,3.52-12.12,1.05-2.36,3.79-2.41,3.67-.31-2.9,7.37-4.9,15.06-7.4,22.57Z"/>
  <path d="M467.14,90.48c.08.17.98.15,1.09.62,1.47,6.38,3.99,23.77,3.99,30.1,0,.55-.03,1.11-.03,1.66-4.18.4-3.13-7.27-3.97-10.04-6.75-22.14-6.02-49.73-11.16-72.98-.11-.52-1.16-.16-1.35-1.4-.1-.68-.11-3.14.15-3.55,2.28-1.25,3-.66,3.68,1.71l7.61,53.88Z"/>
  <path d="M571.04,84.97c-15.33,16.8-30.79,36.41-47.27,51.67-1.2,1.11-2.31,4.53-4.56,3.97-2.84-.71,3.06-6.99,3.92-7.9,17.42-18.51,34.25-37.59,51.99-55.85.52-.53.77-1.22,1.03-1.89,6.92.29-3.4,8.12-5.11,10Z"/>
  <path d="M577.38,137.32c1.71,1.78-2.8,4.1-4.14,4.73-11.12,5.23-23.7,11.75-34.84,16.44-1.13.48-5.95,2.5-6.38.84-.71-2.76,7.36-4.66,9.45-5.66,9.42-4.5,18.66-9.68,28.23-13.84,1.21-.53,7-3.22,7.67-2.51Z"/>
  <path d="M266.41,218.17c2.23,2.11-7.48,6.05-8.24,6.55-1.98,1.29-15.51,11.19-16.74,9.88-.1-.1-.27-2.34.42-2.68,7.19-3.18,14.53-10.27,21.56-13.12,1.03-.42,1.75-.9,2.99-.62Z"/>
  <path d="M502.9,348.52c4.53,3.92,7.18,18.18,7.43,24.11l-2.03-.39c-1.42-5.86-2.01-13.67-5.19-18.84-.62-1.01-3.01-2-3.2-4.23.09-1.94,1.79-1.69,2.99-.66Z"/>
  <path d="M231.56,335.17l-5.19,19.33-2.7.38c-.32-.3.48-5.87.71-6.73.14-.54,1.04-.46,1.21-1,1.03-3.27,1.67-7.86,3.47-10.87.75-1.26,1.04-1.26,2.5-1.11Z"/>
  <path d="M352.13,711.56c1.77,6.53,4.66,15.2,7.33,21.9,2.21,5.56,5.17,8.84,7.43,13.61,2.43,5.14-1.66,2.38-3.6,0-3.51-4.3-9.74-20.8-11.5-26.33-2.7-8.43-7.25-29.97-5.83-38.2.13-.77.36-1.17.99-1.63,1.76.01,2.64,17.97,3.04,20.61.52,3.38,1.25,6.75,2.14,10.04Z"/>
  <path d="M372.25,701.28c.53.43,2.04,11.3,2.71,13.28.17.51,1.03.62,1.18,1.06,1.69,4.85,5.05,11.57,6.1,16.13.14.61.91,1.26-.45,1.73-1.45.51-1.3.02-1.81-.82-1.73-2.83-2.5-6.82-3.81-9.84-.24-.55-1.17-.6-1.46-1.33-2.47-6.25-4.91-13.46-4.41-20.21.54.09,1.77-.14,1.96,0Z"/>
  <path d="M490.21,747.7c.06.18.86.34,1,.76,3.6,11.22,6.71,22.91,14.5,32.02-2.71,2.64-5.47-3.15-6.67-5.15-9.34-15.55-15.21-38.53-16.97-56.65-.24-2.44-1.64-22.03.98-22,1.89,3.07.81,7.88.99,11.53.65,13.21,2.22,26.8,6.18,39.48Z"/>
  <path d="M52.49,394.09c-.32.46-1.25.66-1.88,1.72-1.29,2.19-4.48,13.57-5.09,13.99-.67.46-1.27.32-1.99.3,1.47-6.3,3.49-13.98,7.34-19.3,1.17-1.61,10.5-10.59,12.05-11.59,2.65-1.72,5.77-1.69,2.97,1.65-1.44,1.72-3.88,2.66-5.61,4.25-3.17,2.91-5.35,5.49-7.79,8.98Z"/>
  <path d="M201.6,468.98c2.18,2.87,4.61,6.01,5,9.8.59,5.68-3.67-3.3-3.98-3.77-1.64-2.49-4.28-6.13-6.22-8.38-.89-1.04-6.16-4.73-4.93-5.91,2.04-1.96,8.95,6.71,10.13,8.27Z"/>
  <path d="M446.55,339.11c1.58-.18,2.34.01,2.63,1.64.2,12.78,1.65,25.75,0,38.45-.73.27-2.62-.29-2.62-.99v-39.11Z"/>
  <path d="M447.86,320.71c-.54-.09-1.77.14-1.95,0-.99-.8-.32-7.88-.69-9.4-.12-.5-1.17-.41-1.29-.9-.19-.83-.8-6.96-.73-7.77.2-2.37,1.85-3.45,3.22-1.18.92,1.52,2.14,18.6,1.44,19.27Z"/>
  <path d="M433.21,266.36c2.38,2.04,7.62,9.1,7.96,12.11.13,1.15.15,1.4-.85,2.13-1.36.23-4.31-6.57-5.59-8.2-.67-.85-5.25-4.55-5.25-5.25,1.12-1.47,2.16-2.13,3.74-.78Z"/>
  <path d="M407.77,249.72c1.5-1.47,11.86,5.12,13.6,6.45.63.48,1.72.61,1.52,1.75-.72,3.31-9.12-3.42-10.72-4.39-1.9-1.15-4.95-.92-4.39-3.82Z"/>
  <path d="M176.99,358.83c1.31,1.3-7.05,14.57-8.55,16.56-2.4,3.19-8.11,9.58-11.16,12.03-1.33,1.06-2.74,2.46-4.6,2.29-1.35-1.41,7.55-8.31,8.88-9.85,2-2.32,5.78-7.18,7.44-9.62,1.52-2.24,5.1-10.17,6-10.98.73-.65,1.1-.48,2-.44Z"/>
  <path d="M551.74,517.89c-.06,12.76,3.12,25.1,7.89,36.81l-2.69-.39c-4.31-11.62-8.03-23.42-7.17-36.03l1.98-.39Z"/>
  <path d="M367.49,503.56c5.07-.48,10.07,9.46,3.82,13.06-7.82,4.49-14.82-12.02-3.82-13.06Z"/>
  <path d="M398.19,476.89c.15.27.82.28,1.03.62.44,1.83-.95,1.36-1.26,2.11-1.06,2.61-1,6.28-5.05,6.72-10.41,1.13-2.11-22.27,5.28-9.45Z"/>
  <path d="M364.13,472.31c-.22.41-3.68,3.9-4.17,4.05-7.88,2.38-7.22-12.26.78-12.38,5.17-.08,5.36,4.62,3.39,8.33Z"/>
  <path d="M365.86,489.46c1.3,1.45,6.62.94,5.74,3.78s-9.11-1.7-10.02-3.77c-2.74-6.31,6.55-10.16,9.86-15.42,1.22-1.94,2.99-.61,2.69,1.31-.63,4.03-12.6,9.27-8.27,14.11Z"/>
  <path d="M359.77,452.82c.33-2.76,4.58-4.86,6.94-5.21,1.69-.25,10.75-.62,10.79,1.6-2.46,2.16-5.38-.04-8.7.48s-5.56,3.65-9.04,3.13Z"/>
  <path d="M490.22,532.11c.08.19.9.24,1.01.72,1.63,6.71-7.66,10.23-12.42,5.08-7.15-7.75,5.78-19.04,11.41-5.79Z"/>
  <path d="M473.34,491.06c8.11-1.64,5.85,13.15-.71,12.83s-4.35-11.81.71-12.83Z"/>
  <path d="M501.96,509.84c-3.51-3.91,3.24-13.06,8.38-10.02,4.65,2.75-2.75,16.29-8.38,10.02Z"/>
  <path d="M488.63,498.84c.55,6.27-5.74,9.45-9.88,12.85-.65,3.46,9,4.53,8.57,6.53-.47,2.2-10.8.02-11.15-5.29-.3-4.56,5.68-6.55,8.52-9.82,1.22-1.4,1.54-4.33,3.94-4.27Z"/>
  <path d="M489.89,477.85l-.92,3.21c-3.97-2.6-11.61-2.51-15.13.67-.39.36-4.22,7.05-4.93,3.61-.46-2.25,4.61-7.04,6.58-7.87,4.3-1.83,10.08-1.11,14.41.38Z"/>
  <path d="M155.31,213.55c3.75-1.77,14.74,8.07,11.15,10.53-1.93,1.32-2.95-2.45-3.65-3.24-1.78-2.03-5.67-5.04-8.45-4.65-1.42.2-2.05,1.34-4.65,1.38-2.74.04-4.36-1.34-7.23-1.42-4.02-.11-10.38,1.71-13.17,4.64-.84.88-3.99,7.12-4.91,3.59-.81-3.09,5.35-8.03,7.89-9.16,4.01-1.79,6.27-.89,9.39-1.64.75-.18.53-1.89,2.1-2.05,1.76-.18,5.92,4.91,7.93,2.07,2.16-3.04-9.86-17.99-4.64-19.1,2.08-.44,2.85,5.67,3.47,7.03,1.76,3.86,5.22,7.24,4.75,12.01Z"/>
  <path d="M153.98,224.09c-.75,9.33-12.73,14.96-18.31,5.49s5.53-4.27,10.09-4.32c1.47-.02,7.66-1.72,8.22-1.17Z"/>
  <path d="M162.37,195.98c1.7,1.71,1.23,7.86-1.8,8.78-7.2,2.18-3.68-14.28,1.8-8.78Z"/>
  <path d="M130.82,204.21c-5.28,5.49-8.79-10.94.2-8.77,1.26.95,1.04,7.48-.2,8.77Z"/>
  <path d="M136.23,185.96c-2.05.43-4.17-.57-6.07-.48-1.76.08-8.03,2.84-8.39,2.45-2.32-2.54,5.77-5,7.62-5.2,2.34-.26,7.38-.21,6.84,3.23Z"/>
  <path d="M165.82,187.93c-.76.6-5.82-2.14-7.06-2.48-1.96-.54-5.45.88-5.43-2.12,4.32-1.55,9.38-.23,12.84,2.6.14.31-.28,1.93-.36,1.99Z"/>
  <path d="M271.31,520.9c.15.23.86.21.99.76.33,1.33-.58,3.17,1.02,4.13,1.68.5,6.78-6.08,12.63-4.1,8.72,2.95,3.43,14.7-3.78,16.26-.47,2.23,1.82,1.81,3.34,3.26,3.66,3.5,3.65,8.94-.73,11.83-5.99,3.96-8.4-.13-13.36-2.87-1.98.95-1.95,3.33-3.04,4.88-4.77,6.75-20.55,4.39-16.49-5.98.73-1.87,3.15-2.92,1.73-5.57-2.96-.79-5.1.21-8.4-.81-9.2-2.85-4.86-13.93,3.13-14.3,1.97-.09,3.8,1.25,5.27.06,1.42-2.13-3.98-8.41,2.25-11.54,5.25-2.64,12.19-.84,15.43,4ZM259.37,542.67c4.55,4.17,16.08,2.81,16.27-4.76.25-10.29-18.47-11.19-18.45-.63,0,1.37,1.21,4.49,2.18,5.39Z" fill="#fff"/>
  <path d="M259.42,580.11c.14.26.94.41,1.26,1.06s3.49,7.66,2.1,7.73c-12.06-2.5-23.47-11.49-25.3-24.33,6.84,1.2,14.39,3.45,18.69,9.24,1.43,1.93,2.18,4.3,3.25,6.29Z" fill="#fff"/>
  <path d="M283.27,581.44c-2.77,3.89-9.36,7.69-14.18,7.85-.82.03-.85-.08-1.35-.73,2.65-8.84,8.96-15.62,17.96-18.2.88-.25.74-.9,1.73.44-1.39,3.38-2,7.61-4.15,10.64Z" fill="#fff"/>
  <path d="M100.75,605.3c3.49.68,3.63-2.85,6.84-3.3,11.01-1.53,12.83,9.45,3.67,14.16,4.79,2.84,9.77,7.76,4.29,12.84-5.08,4.7-10.69-.63-11.52-.02-1.06,4.86-3.03,8.46-8.41,9.05-5.47.59-10.92-3.4-9.86-9.25.34-1.89,2.89-2.03,1.83-5.05-3.1.97-13.24-1.78-13.82-4.93-.76-4.13,4.17-9.59,8.23-9.58,1.86,0,3.67,1.03,5.59.71.58-2.29-1.51-1.7-1.85-3.75-.45-2.75,3.17-8.29,5.76-9.11,4.76-1.52,9.69,3.44,9.26,8.24ZM102.47,612.12c-5.68-4.85-15.82-.8-12.94,7.36,4,11.31,23.25,1.44,12.94-7.36Z" fill="#fff"/>
  <path d="M87.35,651.55c2.77,3.26,4.11,8.75,4.83,12.92-10.97-2.73-21.53-9.43-24.32-21.02,5.02-.35,10.26.75,14.42,3.65.75.52,4.56,3.85,5.07,4.46Z" fill="#fff"/>
  <path d="M96.79,664.47c-.68-2.54,1.63-3.66,2.15-4.77,3.49-7.39,4.18-11.81,13.47-13.46,1.03-.18,5.3-1.06,5.39.14-2.03,10.53-10.87,16.6-21.01,18.08Z" fill="#fff"/>
  <path d="M175.02,542.88c5.24-1.08,13.26,1.14,10.82,7.85-1.9,5.23-8.32,3.38-9.22,4.6-.41,2.51,1.21,4.15,1.07,6.91-.22,4.16-2.27,6.3-6.33,6.86-6.69.92-7.77-.96-10.5-6.5-1.1-.25-5.96,4.63-10.32,3.79-3.59-.69-8.38-6.55-6.88-10.21,1.58-.23,1.28-1.96,1.95-2.62.58-.58,6.64-2.22,4.04-4.16-1.64-1.22-6.38-3.31-6.71-5.68-.61-4.27,5.46-7.26,9.37-6.72,2.86.39,4.19,2.76,6.52,2.5,2.11-.87,1.98-6.97,8.06-7.74,7.59-.96,8.81,4.82,8.15,11.12ZM155.51,555.81c6.56,8.19,22.86,1.62,15.85-8.29-6.7-9.47-22.57-.1-15.85,8.29Z" fill="#fff"/>
  <path d="M190.14,573.11c.22,10.42-7.9,19.4-17.74,21.68-.07-11.02,6.6-20.02,17.74-21.68Z" fill="#fff"/>
  <path d="M167.33,593.98c.18.39,1.39-.23,1.11.81-2.86,1.23-6.38.07-9.2-.98-6.37-2.39-11.62-7.29-13.78-13.81.18-2.57,11.83.88,13.36,1.74,4.92,2.75,6.49,7.81,8.5,12.24Z" fill="#fff"/>
  <path d="M134.03,738.31c.82.87,3.89,6.45,4.07,7.51.9,5.29-12.22,7.06-16.01,7.38-2.76.23-15.77.5-17.65-.1-.35-.11-4.13-3.91-5.66-4.84-3.93-2.37-7.98-3.62-12.51-4.26-.24-.99.89-.44,1.31-1.1,7.9-12.4,21.34-17.03,35.48-11.69,2.92,1.1,8.99,5.02,10.96,7.11Z" fill="#fff"/>
  <path d="M103.86,762.92c-8.95,2.95-19.69,3.55-29.09,2.77-2.42-.2-13.63-2.2-14.5-3.93-2.15-4.23,7.2-11.02,10.43-12.61,6.87-3.39,15.91-3.15,22.99-.4,5.09,1.98,13.29,7.95,10.17,14.17Z" fill="#fff"/>
  <path d="M214.26,637.07c.64.79,2.87,5.65,2.52,6.4-1.56.62-5.06,4.14-6.06,4.44-2.48.74-13.85.48-16.95.13-1.67-.19-9.91-1.66-10.24-3.06.98-9.45,14.28-16.33,23.08-13.72,1.03.31,6.94,4.94,7.65,5.82Z" fill="#fff"/>
  <path d="M209.87,655.26c.78-5.43,9.64-10.82,14.8-11.16,12.51-.84,27.82,11.85,4.57,13.79-6.57.55-13.17-.58-19.38-2.63Z" fill="#fff"/>
  <path d="M161.22,84.08c3.63.09,6.64-2.87,10.26-3.25,8.61-.89,18.95,6.52,16.53,15.91-1.69,6.55-14.99,7.39-20.55,7.71-41.28,2.38-84.74-1.79-126.25.03-6.74.06-13.99-4.38-9.78-11.8,3.75-6.62,14.05-3.76,15.11-5.27.72-3.33-.2-6.33.8-9.72,2.2-7.48,12.6-13.2,20.16-11.97,2.81.46,9.54,5.97,10.92,4.92.46-.35,1.85-9.23,2.57-11.23,7.67-21.22,40.26-20.37,47.03,1.02.87,2.74.63,12.02,2.69,12.47,2.68-.69,4.23-3.52,6.24-4.87,6.02-4.07,14.14-4.24,20.01.29,1.05.81,4.28,5.34,4.28,6.24v9.53Z" fill="#fff"/>
  <path d="M259.37,542.67c-.98-.89-2.18-4.01-2.18-5.39-.02-10.56,18.71-9.66,18.45.63-.19,7.57-11.72,8.93-16.27,4.76ZM272.12,535.18c-3.51-4.45-12.92-3.61-11.52,3.27,1.51,7.4,16.47,3,11.52-3.27Z"/>
  <path d="M102.47,612.12c10.3,8.8-8.95,18.67-12.94,7.36-2.88-8.16,7.27-12.2,12.94-7.36ZM95.93,612.67c-4.78.71-6.13,8.31-.07,9.06,9.53,1.19,7.98-10.24.07-9.06Z"/>
  <path d="M155.51,555.81c-6.72-8.39,9.15-17.76,15.85-8.29,7.01,9.91-9.29,16.48-15.85,8.29ZM158.77,555.18c4.18,4.19,16.12-.58,9.65-6.69s-14.48,1.84-9.65,6.69Z"/>
  <path d="M272.12,535.18c4.95,6.27-10.01,10.67-11.52,3.27-1.4-6.87,8-7.72,11.52-3.27Z" fill="#fff"/>
  <path d="M95.93,612.67c7.9-1.18,9.45,10.25-.07,9.06-6.06-.75-4.71-8.35.07-9.06Z" fill="#fff"/>
  <path d="M158.77,555.18c-4.84-4.85,3.03-12.93,9.65-6.69s-5.47,10.88-9.65,6.69Z" fill="#fff"/>
</svg>