<?xml version="1.0" encoding="UTF-8"?>
<svg id="Camada_1" xmlns="http://www.w3.org/2000/svg" version="1.1" viewBox="0 0 595.28 841.89">
  <!-- Generator: Adobe Illustrator 29.0.0, SVG Export Plug-In . SVG Version: 2.1.0 Build 186)  -->
  <path d="M.14,841.29V-.06h595v841.34H.14ZM590.54,3.89H4.08v356.91c9.1-.68,17.77,2.15,25.98,5.68,20.26-12.08,45.66-31.76,70.24-20.7,2.62,1.18,6.47,5.15,8.81,4.33l27.75-28.45c.36-1.27-5.02-3.82-5.84-4.63-5.92-5.83-6.65-14-3.04-21.33,3.03-6.15,8.91-6.07,8.19-14.05-.96-10.64-4.79-16.5,5.29-25.72s19.17-5.82,23.37-21.33c4.74-17.49,6.54-32.48,23.11-43.94,14-9.68,25.28-8.22,40.37-11.56,14.88-3.3,18.32-9.08,36.26-6.1,15.84,2.63,31.85,16.35,17.61,31.35,1.73.11,2.9,3.64,3.58,5.29,5.58,13.39,7.01,27.22,7.54,41.64,5.9,1.37,10.24,11.22,11.06,16.67.62,4.13-.67,8.14-.37,11.49.24,2.69,3.22,4.8,4.32,7.57,2.5,6.33,2.88,14.77.82,21.21,3.29-2.89,7.28-6.63,10.21-9.83,26.17-28.6,50.16-59.35,76.54-87.8,7.9-6.3,17.14.84,19.73-.61,5.39-5.73,38.75-52.82,42.49-52.95,2.45-.08,8.61,9.88,10.11,12.34,5.65,9.23,10.23,19.31,16.12,28.43,1.76,1.39,7.76.38,10.44.74,16.69,2.26,20.45,14.22,29.46,25.79,15.27,19.6,30.95,38.65,46.31,58.18l19.98,21.77V3.89ZM533.01,262.86c5.29.55,11.38-.4,16.77,0l-42.37-54.59c-7.5-6.84-15.97-5.07-25.18-6.71l-24.18-39.3-40.71,51.35c-3.96,2.67-11-5.66-19.38.34l-41.48,47.59,33.1-12.4c6.64,11.98,9.97,25.94,19.83,36.15,2.62.26,11.17-8.58,13.46-10.93,4.14-4.25,27.11-32.9,29.31-33.21,4.58-.64,20.77,20.81,29.06,21.6.93.09,1.74.28,2.49-.48,5.01-5.12,3.24-11.56,4.41-17.33.67-3.29,3.41-1.66,5.54-.61,13.98,6.88,21.04,16.64,39.31,18.54ZM282.47,189.63c-4.11-11.75-19.89-14.42-30.84-13.52-8.61.71-16.35,5.19-24.63,6.92-14.73,3.08-27.06,2.38-39.79,12.8-15.64,12.8-13.1,25.42-18.66,41.79-5.26,15.5-22.69,14.44-28.5,26.09-4.8,9.63,1.63,14.97-.03,22.98s-14.35,9.22-9.75,22.54c1.13,3.26,7.28,9.32,10.73,8.73,2.2-.38,11.01-7.43,13.95-9.12,14.23-8.19,29.59-15.25,46.37-15.75l-.66-15.13c-17.1,2.13-27.71-17.33-17.37-30.83,4.65-6.07,15.36-7.18,19.83-.92,3.2,18.8-3.1,55.34,12.98,68.55,3.85,3.16,7.96,4.24,12.55,5.9-2.25,11.91,13.75,22.47,24.27,22.41,7.03-.04,11.05-3.51,15.82-7.96,9.48,4.25,20.48,5.8,26.56-4.42,3.5-5.88,1.37-9.67,2.78-14.16.19-.61,3.26-3.12,4.34-4.86.73-1.17,4-8.93,4.13-9.69,1.46-8.58-6.17-16.69-6.6-23.12-.23-3.55,1.05-6.94.34-11.46-.62-3.9-3.2-10.1-6.93-11.8-.1,2.42-1.93,6.14-1.94,8.29-.02,5.16,6.27,8.2-.71,15.69-7.87,8.44-17.43-1.06-26.58.38-3.69.58-8.34,4.49-11.86,5.89-3.33,1.32-10.74,3.55-6.23-2.29,9.02-2.12,14.05-8.56,23.89-7.51,5.18.55,12.27,5.67,17.07,1.8,2.23-1.79,3.63-6.08,2.31-8.69-1.01-2-11.21-6.5-12.66-6.2-.9.19-2.25,2.91-3.88,3.96-4.24,2.72-10.55,2.85-15.13,1.04-1.82-.72-5.08-3.75-6.03-3.79-2.69-.12-15.09,6.26-17.14,8.5-2.45,2.68-3.49,7.05-3.91,10.55-6.48,2.51-2.16-7.32-2.38-7.82-.17-.38-5.43-3.23-6.85-4.67-11.77-11.85-12.95-34.68-11.54-50.34,11.33-.3,22.6-2.02,30.62-10.8,2.99-3.28,4.45-7.79,7.37-11.1,2.14-.61,6.11,3.38,8.54,4.38,5.93,2.45,14.38,2.74,20.37.27,4.37-1.8,7.67-7.77,6.82-12.32-.21-1.11-1-1.03-1.07-1.22ZM282.47,213.3c-.64-1.31-2.4-6.63-3.89-6.78-9.58,4.56-19.95,2.25-28.85-2.63l-1.56.66c-6.85,13.75-20.19,19.17-34.94,19.62.18,3.62-.51,7.96-.13,11.47.13,1.16,1.29.92,1.34,1.41,1.54,13.1,1.8,28.41,16.06,34.43,2.66-4.68,17.63-12.12,22.25-11.08,1.44.33,4.05,2.77,5.77,3.46,6.54,2.64,16.47,1.95,14.05-7.5-2.23-8.71-8.6-22.07-11.98-31.35-.56-1.52-3.85-4.47-1.06-6.83,2.21-.65,3.62,3.28,4.38,4.8,3.22,6.49,7.38,17.73,10.04,24.8,1.31,3.47,1.84,7.78,2.93,11.37l10.6,2.8c4.4-2.93.11-33.18-1.25-38.93-.88-3.7-2.21-6.54-3.75-9.71ZM200.01,274.04l-1.41-26.53c-5.15-4.26-11.3-1.19-14.05,4.18-6.05,11.82,2.49,23.51,15.46,22.36ZM590.54,477.8v-167.94l-38.1-43.34c-22.21,2.58-42.34-4.44-59.53-18.12-.27,3.76-4.2,16.48-8.04,17.61-9.86,2.91-24.7-15.45-32.05-20.89-5.06,6.8-36.57,44.07-42.17,44.7-2.41.27-3.69-1.67-5.2-3.29-8.55-9.16-12.04-22.21-17.39-33.24-11.7,4.18-22.78,10.62-35.36,12.04-15.11,16.91-29.19,34.69-45.53,50.45-.98.95-4.61,3.01-4.92,3.62-.84,1.65-.05,4.42-.64,6.59s-4.03,8.36-4.06,8.85c-.07,1.19,6.41,19.3,7.35,22.64,1.21,4.33,3.68,10.46,4.07,14.99.32,3.72-.2,3.63-1.8,6.73l25.16,3.81c5.82-7.7,13.66-14.74,24.14-11.69.6-5.48,2.29-10.77,3.21-16.19,2.53-14.93,3.15-30,6.2-44.41,1.74-8.23,4.32-13.41,14.31-11.41,21.16,4.25,10.57,32.51,7.12,45.84-.12.46-1.11.57-1.47,1.93-2.41,9.19-4.1,18.59-6.38,27.81,8.43,3.55,11.46,8.62,7.93,17.67-.21.54-1.15.18-1.33.78-.37,1.25,1.41.7,1.82,2.75s.34,5.45-.14,7.5c-.57,2.46-2.36,2.36-2.72,3.83-1.18,4.85,2.01,6.86-3.02,13.4-3.89,5.07-9.08,4.71-11.69,7.38-2.03,2.08-4.83,18.59-6.01,22.78-.16.56-1.12.59-1.36,1.43-4.17,15.12-7.05,30.63-11.08,45.76,9.29-.27,18.66.39,27.78,2.14,4.03.77,8.17,2.99,12.74,3.7,7.71,1.19,15.54.34,23.25,1.39-6.48-15.37,3.82-20.57,14.46-9.2,2.9-14.02,17.02-22.03,20.72-2.64,4.95-9.64,18.95-11.18,19.4,1.99,7.24-3.47,13.15,3.14,11.83,10.52l32.22-7.89c-.18-2.53-2.08-2.72-2.26-5.8-.23-4.07,2.56-8.85,6.67-9.83,2.93-.7,6.46.08,9.39.51-2.5-15.27,18.61-19.57,23.02-5.91,2.41-.66,3.29-3.32,5.7-4.48,5.12-2.49,9.78-1.62,13.1,3.12,7.39-5.67,15.34-7.06,20.64,2.02ZM202.58,296.44c-32.62,3.31-62.46,23.12-83.78,47.26-17.41,19.71-30.46,50.03-31.25,76.56-.31,10.43.37,10.12,9.91,13.82,11.83,4.58,25.03,5.58,37.46,3.3,3.77-16.01,6.8-31.84,14.98-46.15,7-12.24,21.28-22.49,30.35-33.38,2.12-2.55,12.77-18.5,14.18-18.73,4.59-.76-1.68,8.34-2.44,9.43-8.46,12.24-19.25,20.85-28.82,31.62-7.01,7.89-12.51,15.78-15.76,25.97,17.2,8.25,40.74-.39,56.75-8.65,20.81-10.73,42.76-30.03,53.04-51.15-13.66,2.39-27.02-6.98-32.8-18.94-.57-1.19-.27-3.68-1.07-4.71-.35-.46-8.04-3.9-10.12-5.66-6.26-5.31-8.68-12.9-10.64-20.6ZM387.14,308.44c-2.83-4.19-8.58-6.76-13.6-5.19-3.87,1.21-4.59,12.78-5.12,16.57-1.76,12.38-3.28,25.22-5.32,36.87-.56,3.21-3.13,14.57-2.33,16.58,2.03,5.07,10.89-.89,15.37.61,2.24-13.72,6.17-27.06,9.83-40.43.23-.84,1.19-.81,1.47-1.87,1.98-7.43,4.37-16.22-.29-23.13ZM295.31,338.48l-8.44,3.34c-1.5,17.09-7.69,35.14-14.36,51.02-.35.83-1.32.83-1.68,1.66-1.08,2.5-6.49,14.27-6.13,15.62,13.91,18.33,39.83,21.99,61.54,22.99-2.4-14.98-2.64-32.39,5.25-45.68l-28.67-6.18c-2.27-.96-11.22,3.71-12.07.92-1.05-3.46,11.73-4.31,13.84-5.98l-9.27-37.69ZM283.51,342.4c-3.65,1.57-12.55-3.33-15.09-2.32-4.97,1.99-14.25,19.74-18.45,24.99-14.68,18.37-41.88,36.83-64.28,44.19-5.69,1.87-11.64,2.77-17.23,4.78,22.62,6.25,47.15,9.99,70.57,6.49,3.22-.48,13.59-2.33,15.78-3.94,1.08-.8,6.61-9.09,7.56-10.85,3.87-7.17,5.73-15.79,9.9-22.45,4.67-13.38,8.43-27.02,11.23-40.89ZM97.68,367.6c.19-.38,1.38-.74,1.88-1.7.94-1.79,6.48-11.39,6.13-12.31-5.48-4.52-13.94-8.02-21.09-7.95-12.25.12-36.61,13.01-47.18,19.89-1.04.68-3.84,2.07-3.76,3.48l51.68,31.25c.57.05,2.02-1.47,2.17-1.88,3.74-10.27,4.85-20.29,10.17-30.79ZM13.62,364.75c-2.95-.38-6.5.27-9.53,0v86.76l22.57-1.29c1.17-.67-.24-6.35,5.25-8.69,5.98-2.55,9.66,1.1,11.23.73,1.44-.34,6.86-11.09,13.22-3.9,4.77-9.88,16.63-9.35,19.4,1.33,5.37-2.45,8.28.82,12.76,2.65l2.22-5.74c-.05-2.6-5.26-3.31-6.44-4.48-3.2-3.16-.28-23.08,1.31-27.92-18.02-7.82-32.86-21.14-50.19-30.36-5.81-3.09-15.43-8.28-21.81-9.09ZM363.27,387.56c-1.24-6.2-1.23-11.49-9.25-12.8-13.75-2.24-21.05,15.27-23.67,25.97-.67,2.75-.42,6.22-.85,8.89-.05.31-2.72,2.88-1.21,5.64l16.34,6.65,4.61-18.4-5.28,1.01c-3.66-2.56,7.36-5.18,7.11-8.02-.98-2.63-4.79-7.91-2.83-10.75,2.28-3.31,3.15,2.7,3.43,3.14,5.76,8.94,10.24,12.48,12.66-.69-.12-.46-1.04-.51-1.07-.66ZM378.51,377.89c-3.24-.66-8.34.48-11.83,0l-.71,1.34,2.3,7.58,15.43,3.61c3.2-4.35-.29-11.54-5.19-12.53ZM382.57,394.53c-1.84-2.11-11.32-5.07-13.83-4.06-1.82,4.32-1.67,7.34-6.34,9.76,7.68-.56,14.38.75,21.03,4.61.66-3.21,1.51-7.58-.86-10.31ZM358.45,400.25l-3.94-.67c-.45,5.12-2.86,8.96-4.17,13.91-13.45,50.56-21.13,105.77-33.24,156.86-.98,4.15-1.62,8.39-3.36,12.33l10.27,5.49c2.07.17,3.59-11.03,4.26-13.22,13.56-44.5,25.12-94.58,36.03-139.74.53-2.18,3.39-14.2,2.63-15.19-10.6-1.46-15.3-10.86-8.48-19.77ZM379.95,407.01c-2.82-2.42-18.68-5.58-20.88-1.89-2.58,6.58,2.98,9.9,8.55,11.26,1.72.42,6.93-.21,7.27,1.29.13,2.07-3.22,2.39-3.79,3.1-.1.12-1.41,3.68.16,3.12,5.61-1.12,14.47-11.93,8.7-16.88ZM255.23,420.62c-35.75,10.52-74.99,3.37-108.79-10.54l-3.59,9.62c.07.82,7.87,4.83,9.48,5.53,30.12,13.13,68.4,16.35,100.31,8.89l2.6-13.49ZM263.11,413.39c-7,4.06-5.58,13.83-6.25,21.01,25.71,16.16,62.62,29.73,64.41,65.13l7.83.02,14.59-73.68-6.23-1.94c-.89,3.25-3.69,11.47-7.09,12.32-8.22,2.04-29.6-1.79-38.17-4.27-10.81-3.12-23.12-8.66-29.09-18.58ZM330.19,431.13l4.54-8.8-6.51-3.02c-.81,4.69,1.41,7.41,1.98,11.83ZM305.43,471.65c-5.32-5.8-11.9-11.01-18.43-15.43-4.47-3.02-28.64-17.69-32.26-18.37-5.23-.99-19.46,3.37-26.11,3.82-23.96,1.64-54.72-3.5-76.96-12.5-1.65-.67-9.12-5.69-10.17-4.62-1.57,5.26.41,15.72-6.58,16.45,8.94,8.82,9.22,24.93-.31,33.54-1.41,1.28-6.95,4.02-7.26,4.57-.83,1.51-.1,5.23-.49,7.4-1.42,8.04-9.5,5.67-10.44,6.79-2.54,16.67-6.87,32.31-12.23,48.11-2.1,6.19-4.35,12.35-7.29,18.16,15.61,9.66,39.06,13.13,57.38,13.57,40.78.98,68.98-11.73,106.85-20.76,17.52-4.18,35.59-6.48,53.09-10.66.71-.23,1.07-.59,1.36-1.28,1.59-3.75,1.02-15.03,1.4-19.63.99-12.22,1.69-17.31-1.47-29.99-2.35-9.4-3.67-12.19-10.08-19.18ZM71.15,444.93c1.99-5.47-.94-12.32-7.48-9.11-4.09,2.01-4.21,8.58-5.4,9.06-3.28,1.33-2.93-5.19-7.18-4.94-5.14.3-3.84,8.63-5.26,8.94-3.19-2.58-8.63-6.9-12.78-3.59-5.69,4.53,1.96,5.87,5.57,6.21,15.21,1.42,30.74.99,45.95,2.68,2.69-4.87.81-12.51-5.79-11.85-2.51.25-4.85,2.98-7.63,2.6ZM126.37,475.17c11.37-3.88,15.5-19.7,7.89-29.25-.36-.45-3.83-3.51-4.27-3.62-4.37-1.03-13.9.14-19.65-.73s-10.68-3.39-16.22-4.24c-4.11,11.44-8.78,25.09-4.03,36.98,1.62,4.06,4.42,8.4,9.32,8.1-2.24-3.23-6.62-16.17-1.62-17.75,4.19-1.33,2.02,4.31,2.27,6.22.88,6.66,3.51,14.78,11.19,15.47-4.43-5.43-3.75-13.6-2.55-20.28.31-.23,2.95-.22,3.16-.04,1.04.87-2.08,25.08,8.62,22.69,4.18-1.31,2.3-11.41,2.69-15.1.31-2.98,2.09-14.31,6.41-9.89l-3.2,11.44ZM4.08,455.45v381.89h586.45v-343.44c-9.43-4.11-21.74-2.85-31.79-1.55-39.58,5.12-79.41,24.58-119.74,21.59-8.99-.67-17.53-4.07-26.39-5.16-13.23-1.63-21.21-2.47-34.4-5.05-9.03-1.77-18.43-2.28-27.64-2.26l-22.44,89.64c6.84-.79,11.91,12.06,14.31,13.45,2.17,1.26,13.01,2.4,16.82,3.57,23.26,7.14,21.82,24.38,24.84,45.17,11.51-1.5,28.66-3.6,38.45,3.94,4.8,3.7,19.38,25.86,23.24,31.95,1.75,2.76,6.65,13.96,7.96,15.08,1.8,1.55,15.68,2.21,13.16,6.83-.59,1.08-11.41-2.99-14.07-2.62-.96.14-4.59,3.08-6.68,3.88-6.26,2.41-13.56,3.88-20.28,4.05-3.08.08-17.91-1.42-18.77-1.05-.68.29-1.74,2.59-3.06,3.55-3.96,2.88-8.58,4.47-12.72,7.01,17.27,20.72-15.05,22.09-28.59,21.34-6.82-.38-27.2-2.85-24.95-12.5-11.25-1.7-22.99,3.08-34.24,3.95-14.87,1.15-26.04-2.24-40.18-3.84-15.15-1.71-30.61-1.84-45.31-6.07l-1.47.21c-4.23,6.46-14.16,8.77-21.52,9.7-13.13,1.66-54.92.14-63.06-11.2-2.89-4.02,5.5-15.08,8.5-18.37,8.03-8.83,21.62-16.47,33.8-16.5l7.96-22.27-18.08.66.3-1.69,19.76-2.59c7.5-11.77,13.15-29.74,23.32-39.13,3.65-3.37,9.1-6.48,13.48-8.87,3.92-2.14,20.32-8.4,22-10.21,5.44-5.84,8.14-21.28,12.4-29.02l5.06-22.87c-18.07,3.72-35.22,10.91-53.25,14.79-15.77,3.4-31.7,4.42-47.71,6.2-11.95,15.65-25.01,30.63-34.87,47.7,3.55,7,4.78,20.01,10.59,25.31,2.89,2.64,9.69,5.63,11.64,9.4.41.8,2.82,8.48,3.02,9.46,1.76,8.43-4.95,10.26-11.53,12.52-41.12,14.13-58.47-5.5-75.32-39.46-2.94-5.92-7.04-15.86-.81-20.87,2.19-1.77,4.75-1.66,6.25-2.95s2.58-4.92,5.26-7.23c2.2-1.9,6.72-3.64,8.9-5.56,3.98-3.51,13.18-16.95,16.34-21.87s5.58-9.72,8.24-14.62c-3.23-2.95-14.37-4.47-14.18-9.75.06-1.69,3.55-10.04,4.45-12.4,5-13.18,9.88-27.11,13.16-40.91,1.21-5.08,1.52-10.47,3.23-15.47-4.51.66-7.63-2.67-11-3.8-1.9-.64-5.05-.29-7.41-1.14-9.21-3.32-13.74-20.12-11.23-28.84l-1.04-.97c-26.44-.95-52.74-4.37-79.12-.76ZM548.09,478.18c-5.55-10.23-17.68-5.51-16.71,5.15.17,1.91,2.85,4.34.29,6.3-7.55-6.6-22.21-2.86-11.78,6.58,21.91-3.87,43.73-11.13,66.29-7.85,3.01-5.5,1.09-13.31-6-13.7-4.69-.26-8.57,7.33-11.01,7.55-3.35.31-.94-6.32-5.98-7.01-8.36-1.14-9.04,8.67-11.78,9.18h-1.65c.35-2.86-.62-4.23-1.68-6.2ZM445.04,487.85c-5.68-8.04-12.33,9.74-11.75,14.13l-1.64.65c-2.15-.09-5.81-6.65-8.83-8-9.82-4.39-5.68,7.36-2.55,11.74,7.61,2.08,15.33,4.09,23.3,4.31,4.19.12,33.15-1.98,34.45-4.07,1.72-2.75-.78-9.41-5.84-8.15-2.11.52-7.05,6.07-8.22,4.31-1.7-2.56,6.95-11.25-2.01-13.15-6.57-.36-11.35,14.05-14.39,13.13-2.53-4.2.49-10.66-2.52-14.92ZM590.53,489.63c.47-.7-.31-1.8-.64-1.31-.47.7.31,1.8.64,1.31ZM320.97,539.58l6.96-35.53c-1.83-.96-5.67-1.51-6.29,1.03-.92,3.76.21,13.71.02,18.43-.16,3.91-1.11,8.5-1.36,12.44-.05.77-.48,3.64.67,3.64ZM318.11,551.87c.62-2.7.75-5.6,1.23-8.32-1.72,3.04-10.91,2.15-12.25,3.68s-4.16,10.98-4.86,13.39c-1.75,5.99-2.64,12.37-4.27,18.4l13.15,3.29c2.59-9.76,3.79-19.89,5.98-29.72.11-.48.99-.57,1.02-.72ZM302.57,548.14l-37.86,7.83-7.58,31.31,12.88,8.84c6.38-7.83,13.11-14.47,23.36-16.75l9.19-31.23ZM132.54,606.22c7.28-9.81,15.28-19.16,22.74-28.84l-43.74-6.95-23.9,37.16,6.17,18.07c8.33-3.98,18.12-3.71,27.13-2.43,1.26-.54,9.76-14.55,11.6-17.03ZM304.54,583.63c-17.91-4.59-32.82,10.95-36.54,26.97l10.88,2.6c1.61-6.39,5.71-13.39,9.92-18.53,4.55-5.56,9.52-7.72,15.74-11.04ZM321.63,590.85c-12.06-8.56-25.17-2.1-32.75,9-3.11,4.55-4.32,9.21-6.7,14l11.75,1.85c4.64-12.58,13.48-23.57,27.7-24.86ZM265.09,609.92c-.13-3.07,3.45-7.8,2.32-10.49-.78-1.85-11.67-9.99-12.82-9.23-5.39,12.87-3.85,17.51,10.51,19.72ZM337.41,606.63c1.91-4.02-4.15-10.05-7.41-11.32-14.27-5.57-30.11,7.88-32.03,21.83h21.7c.09-1.87,0-3.72-.81-5.47-.63-1.36-7.76-6.46-6.43-7.67,6.05-.07,10.64,5.94,10.52,11.83,9.69-1.92-3.85-11.77-1.97-13.8,2.47-.52,7.97,5.43,8.52,7.04.42,1.22-.98,4.28,1,4.12l3.01-2.45c1.31-2.14-1.45-5.23-2.97-6.78-1.77-1.8-7.69-3.89-4.62-6.55l11.48,9.2ZM338.72,611.89c-9.59,7.8-20.29,10.25-32.56,9.88-8.07-.24-46.38-7.7-52.46-11.31-1.98-1.18-4.29-5.86-6.23-2.72-3.8,5.64,7.67,7.58,11.43,8.7,14.62,4.33,41.64,10.49,56.4,9.16,7.35-.66,23.44-4.62,23.42-13.71ZM208.56,630.97c-1.46,2.45,18.63,12.62,20.97,14.18,7.19,4.82,18.39,17.3,24.81,19.89,5.66,2.28,28.08,4.27,34.11,3.39,6.72-.98,20.47-14.64,27.93-17.43,4.62-1.73,10.21-1.42,15.12-2.63,15.09-3.72,30.57-16.14,41.95-26.29-6.55-10.67-20.29-11.74-31.43-14.14,4.1,11.84-11.68,18.94-21.01,20.73-16.62,3.19-47.35-3.42-63.81-8.57-4.69-1.47-12.09-3.11-13.47-8.21l-35.17,19.07ZM84.29,609.92c-6.8,1.67-15.42,10.31-13.66,17.94.51,2.2,4.02,4.61,3.81,7.7,5.1-3.13,9.37-7.92,15.77-8.55l-5.93-17.08ZM74.68,647.15c-1.45-3.37-1.57-6.54-2.74-9.43-1.89-4.66-6.02-8.58-5.4-14-4.48,2.1-4.71,5.75-3.33,10.21,2.04,6.58,17.28,32.51,22.4,37.45,14.96,14.4,34.26,13.69,52.76,6.73,2.97-1.12,10.97-3.47,7.4-7.7-11.1,6.94-31.6,9.59-44.08,5.93-10.82-3.18-22.68-19.14-27.01-29.19ZM122.3,627.79c-.81-.71-12.15-2.18-13.98-2.09-5.27.26-28.76,7.95-30.93,12.48-.48,1.01-.37,1.82-.29,2.88.1,1.3,2.88,8.69,4.23,8.29,10.86-11.27,27.66-15.8,43.07-13.14.36-.38-1.77-8.13-2.1-8.42ZM375.18,627.34c-.41-.39-.14-1.14-.62-.99-11.24,9.42-24.92,20.37-39.28,24.49-5.89,1.69-12.07,1.52-17.39,3.65-8.5,3.39-17.05,12.74-25.79,15.96l11.78,40.03c1.22-1.04,6-22.34,8.47-15.34.4,1.13-5.17,22.68-6.28,23.13-2.99,1.23-3.1-1-4-3.03-2.87-6.48-5.69-17.93-8-25-.74-2.27-4.51-17.25-5.42-17.79-8.95-1.51-19.02-.81-27.83-2.08-13.83-1.99-18.36-11.08-28.67-18.66-8.19-6.03-17.89-9.79-25.27-16.81l-5.59,7.06c-8.99,16.49-17.26,33.08-23.66,50.77,19.53,2.02,34,13.43,39.84,32.15,3.15,2.14,27.94,5.86,28.86,4.68,2.59-9.39,4.36-19.43,7.55-28.63.37-1.07,4.55-14.16,6.77-8.68.93,2.3-1.13,2.86-1.57,4.05-2.52,6.81-8.87,26.51-8.42,32.99.06.85.22,1.18,1.05,1.47,12.19-.67,24.16,3.9,36.07,4.69,17.99,1.19,34.47-4.55,52.31-4.87,6-7.53,13.13-14.28,22.88-16.22l-.64-16.75c5.13-6.84,5.32,15.97,6.07,16.72,7.52,1.19,14.45,4.94,20.6,9.16l13.83-8.44c.58-1.45-2.85-11.02-3.7-13.24-5.25-13.73-15.1-30.08-18.18-44.4-1.23-5.7-2.39-26.84-5.78-30.07ZM129.65,650.01l-4.75-10.03c-15.13-2.26-32.23,1.07-42.47,12.87l8.76,11.61c7.82-11.38,25.36-16,38.46-14.45ZM143.74,662.91c-9.48-16.63-40.27-9.79-49.61,3.86,3.54,5.64,11.35,7.64,17.77,6.9.41-4.43-2.16-6.18-3.95-9.57,3.77-5.2,8.33,5.73,6.85,9.59.85,1.17,7.75.2,8.22-1.08,1.33-5.85-7.24-7.68-4.25-11.94,6.34,1.07,6.78,6.77,7.55,12.08l5.87-1.12c.62-3.79-1.79-6.73-3.83-9.49-1.32-1.79-3.64-1.12-2.66-4.89,5.37,1.36,11.21,7.2,10.52,13.15,4.75.48,5.69-3.26,8.55-5.64.49-1.72-.85-1.51-1.04-1.84ZM421.17,661.58c-8.91-8.61-25.24-7.68-36.37-3.96l21.09,54.09,22.92.74c-2.12-7.79-3.3-16.9-6.23-24.36-.58-1.47-3.28-3.42-3.54-5.71-.32-2.83,2.47-3.14,4.16-1.45,4.26,4.25,7.83,29.98,10.4,30.66,2.48.65,14.82-3.69,15.83-4.99,2.16-2.78-4.8-10.29-6.04-12.31-5.63-9.17-14.9-25.66-22.21-32.72ZM172.26,696.23c-12.09.86-26.74,10.83-33.01,20.89-4.77,7.65-5.59,9.74,3.58,13.4,14.07,5.61,45.36,7.38,59.97,3.46,9.54-2.56,11.74-5.28,8.23-14.46-5.67-14.84-23.1-24.41-38.76-23.29ZM363.55,717.89c-8.12,1.06-19.5,11.44-22.13,19.09,2.38,3.15,6.05,3.96,9.68,4.85,9.68,2.36,56.33,5.63,36.59-14.24-4.96-4.99-17.04-10.63-24.14-9.7Z"/>
  <rect x=".14" y="841.29" width="595" height=".66" fill="#fff"/>
  <path d="M4.08,455.45c26.38-3.61,52.68-.19,79.12.76l1.04.97c-2.51,8.72,2.02,25.51,11.23,28.84,2.35.85,5.51.5,7.41,1.14,3.37,1.13,6.49,4.46,11,3.8-1.71,5-2.03,10.39-3.23,15.47-3.28,13.8-8.16,27.73-13.16,40.91-.9,2.36-4.38,10.71-4.45,12.4-.19,5.27,10.95,6.8,14.18,9.75-2.66,4.9-5.22,9.93-8.24,14.62s-12.36,18.35-16.34,21.87c-2.18,1.93-6.7,3.66-8.9,5.56-2.67,2.31-3.81,5.98-5.26,7.23s-4.06,1.19-6.25,2.95c-6.23,5.02-2.12,14.96.81,20.87,16.85,33.96,34.2,53.59,75.32,39.46,6.58-2.26,13.28-4.1,11.53-12.52-.21-.98-2.61-8.66-3.02-9.46-1.95-3.77-8.75-6.76-11.64-9.4-5.81-5.31-7.04-18.31-10.59-25.31,9.87-17.06,22.92-32.05,34.87-47.7,16.01-1.77,31.95-2.8,47.71-6.2,18.02-3.88,35.18-11.07,53.25-14.79l-5.06,22.87c-4.25,7.74-6.96,23.18-12.4,29.02-1.69,1.81-18.08,8.07-22,10.21-4.38,2.39-9.83,5.51-13.48,8.87-10.17,9.39-15.82,27.36-23.32,39.13l-19.76,2.59-.3,1.69,18.08-.66-7.96,22.27c-12.18.03-25.76,7.67-33.8,16.5-3,3.29-11.39,14.35-8.5,18.37,8.14,11.34,49.93,12.86,63.06,11.2,7.36-.93,17.29-3.24,21.52-9.7l1.47-.21c14.7,4.23,30.16,4.37,45.31,6.07,14.14,1.59,25.31,4.99,40.18,3.84,11.26-.87,23-5.65,34.24-3.95-2.25,9.65,18.13,12.12,24.95,12.5,13.53.76,45.86-.62,28.59-21.34,4.15-2.54,8.76-4.13,12.72-7.01,1.32-.96,2.37-3.26,3.06-3.55.86-.37,15.69,1.13,18.77,1.05,6.72-.17,14.02-1.64,20.28-4.05,2.09-.81,5.72-3.75,6.68-3.88,2.66-.38,13.49,3.69,14.07,2.62,2.52-4.62-11.36-5.29-13.16-6.83-1.3-1.12-6.21-12.32-7.96-15.08-3.86-6.09-18.44-28.26-23.24-31.95-9.79-7.54-26.95-5.44-38.45-3.94-3.02-20.8-1.58-38.03-24.84-45.17-3.81-1.17-14.65-2.31-16.82-3.57-2.4-1.4-7.47-14.24-14.31-13.45l22.44-89.64c9.21-.02,18.61.49,27.64,2.26,13.18,2.58,21.17,3.42,34.4,5.05,8.86,1.09,17.4,4.5,26.39,5.16,40.33,2.99,80.16-16.46,119.74-21.59,10.06-1.3,22.37-2.56,31.79,1.55v343.44H4.08v-381.89ZM52.48,481.49c.93-1.67,6.98-8.97,3.86-9.61-6.04,2.11-6.9,7-9.85,11.82-2.18-4.19-9.18-10.75-13.98-11.05-8.38-.52,4.61,5.8,5.08,6.16,3.22,2.42,7.68,11.19,8.35,11.41,4.04,1.35,4.21-5.65,5.29-7.65.39-.72,1.13-.88,1.24-1.08ZM65.79,477.89c-.81-.48-2.77.02-3.68.41-2.37,1.01-9.26,11.07-6.09,12.35,2.33.94,3.37-3.89,4.61-5.29,1.16-1.31,8.06-5.78,5.16-7.48ZM554.22,513.47c-5.1.64-16.76,5.82-14.84,12.5,3.26,11.29,51.08,5.06,28.1-9.67-4.44-2.85-7.99-3.49-13.26-2.83ZM63.51,533.43c-7.46-20.71-34.14-7.86-33.84,1.24s30.99,9.57,34.89,1.16c.57-2.17-.96-2.16-1.05-2.4ZM432.34,566.78c-5.27,11.57,1.52,12.73,11.14,16.31,19.16,7.11,43.54,8.57,63.72,5.63,4.51-.66,22.14-5.19,25.65-7.22,5.78-3.33,1.66-14.58-.33-19.73-3.13-8.09-10.73-16.84-18.32-21.13-2-1.13-19.26-8.78-20.63-8.95-5.43-.66-33.77,8.95-39.37,11.94-6.84,3.65-18.66,16.09-21.87,23.15ZM379.24,540.3c-1.11.48-1.02,1.04-.95,2.07.14,2.15,1.99,7.13,2.43,10.12.3,2.06-.91,8.08,1.73,8.15,3.85.1,1.83-9.05,1.45-11.33s-1.14-10.28-4.66-9.01ZM395.06,544.29c-2.81.68-9.81,15.15-6.03,16.33,2.79.87,3.24-5.17,4.15-7.02,1.01-2.05,4.8-7.26,3.76-8.78-.57-.75-1.02-.74-1.88-.53ZM375.17,557.07c-1.37-4.11-4.81-11.7-9.84-10.98-2.68,2.21,2.91,5.12,4.59,7.99.88,1.51,3.46,11.6,6.18,7.08,1.33-2.2-.83-3.8-.93-4.1ZM571.92,562.13c-4.43-6.33-22.47-3.02-21.83,3.17.83,8.05,27.51,4.93,21.83-3.17ZM50.04,577.13l-3.25.36.69,21.26,2.67-.29c1.93-1.32-.38-18.13-.11-21.33ZM39.84,590.6c-1.43-2.33-8.02-11.74-11.39-7.58-1.43,1.76,2.04,2.42,2.92,3.22,1.5,1.39,3.3,3.08,4.42,4.78,1.83,2.76,2.9,11.16,6.15,8.44,2.92-2.45-.88-6.89-2.1-8.86ZM60.44,586.36c-2.75.75-10.05,12.1-6.05,13.03,1.55.36,3.34-4.7,4.38-6.13.75-1.03,8.75-8.83,1.67-6.91ZM409.36,593.22c-5.66-10.58-24.48-3.66-24.56,1.25-.11,6.41,17.33,8.64,23.01,4.63,2.88-2.03,2.82-3.51,1.56-5.88ZM189.97,597.59c-5.96,1.02-12.94,7.08-4.69,10.94,5.11,2.39,24.97,2.72,21.46-6.33-2.04-5.26-12.15-5.41-16.77-4.62ZM553.06,607.95c-5.97.28-9.57,7.92-10.52,13.14-1.09.98-3.94-4.87-4.94-5.9-2.4-2.49-14.63-10.13-15.42-3.68,9.92,2.92,17.44,8.18,17.77,19.4l2.8.07c1.9-4.45,2.25-9.6,4.66-13.89.79-1.42,7.29-7.49,5.65-9.13ZM562.13,615.97c-7.56.5-15.07,14-10.7,14.98,1.65.37,4.01-7.03,6.2-8.9.61-.52,13.76-6.69,4.5-6.08ZM462.84,619.31c-8.48.58-22.71,7.3-27.36,14.76-1.53,8.84,23.37,11.73,29.17,11.99,7.77.34,25.43.42,23.17-11.34-1.81-9.41-16.16-16.01-24.98-15.41ZM513.19,675.23c-9.26,10.58,9.49,13.71,16.51,14.25,8.05.62,30.91,2.51,25.58-11.12-6.46-16.55-31.68-15.03-42.09-3.13ZM28.61,683.98c3.22,4.85,20.67,5.96,24.72.46l.63-1.85c.33-5.83-8.53-8.5-13.39-8.28-4.02.18-15.35,4.55-11.95,9.68ZM498.95,688.33c-3.29-4.32-22.89-4.41-22.63,2.66.29,7.95,30.45,7.61,22.63-2.66ZM91.29,712.69c-12.39-9.36-29.74-2.94-40.18,6.35s-7.96,15.31,5.06,18.57c10.11,2.53,37.82,5.53,44.21-4.81,3.93-6.35-4.27-16.48-9.09-20.12ZM525.84,735.87c.65-2.66,1.47-5.26,2.21-7.89-5.37-4-6.29,4.95-7.01,8.67-.25,1.32-.8,12.12-2.16,11.3-2.17-6.43-12.04-16.37-19.07-12.8-.48,2.07,5.48,2.92,7.19,3.97,4.39,2.69,8.44,9.51,10.35,14.14l5.39-.1c.81-.53,1.56-14.13,2.09-16.53.11-.49.95-.59.99-.75ZM536.2,741.61c2.06-2.47,10.07-5.92,10.26-6.5,1.88-5.63-9.76.78-11.51,2.3-4.07,3.55-6.33,9.8-6.23,15.14l3.2-.09c1.19-3.85,1.59-7.63,4.27-10.85ZM479.04,758.87c-7.77-21.98-31.14-18.67-46.86-7.21-14.6,10.64-12.21,14.45,4.75,18.07,12.69,2.71,36.33,5.49,43.13-8.45v-1.69c-.12-.46-.95-.54-1.02-.72ZM202.55,782.04c.49-4.13.73-8.33,1.74-12.39.62-2.47,5.73-11.91,3.27-12.49-6.79,3.82-7.89,13.78-8.87,21.03-2.21-2.9-3.44-6.76-5.91-9.53-1.93-2.17-15.56-12.13-17.09-7.22-.91,2.94,5.66,3.18,7.69,4.14,5.83,2.76,11.14,10.82,12.67,16.95l6.51-.49ZM285.33,759.31c-7.01.81-17.31,5.65-18.91,13.24.36,6.17,17.29,8.11,21.98,8.3,8.1.31,24.22.42,20.45-11.9-.35-1.14-5.83-6.11-6.98-6.82-5.11-3.2-10.67-3.5-16.54-2.82ZM122.21,761.33c-1.33-.77-4.4-1.47-6-1.57-6.03-.36-22.59,3.48-19.33,12.09,6.43,7.08,38.44,8.35,29.01-6.65-.29-.47-3.42-3.72-3.68-3.87ZM226.19,765.15c-9.62-1.32-20.37,6.97-19.29,17,2.39,3.47,4.54-5.92,5.7-7.48,2.7-3.64,9.26-6.42,13.73-6.65l-.14-2.87ZM44.67,770.45c-1.54.32-6.29,3.14-6.38,4.76-.37,6.22,19.86,9.18,22.07,1.68,2.11-7.18-11.43-7.31-15.68-6.44ZM363.56,773.76c-3.91.54-12.73,3.76-9.58,9.21,3.84,6.63,33.73,6.62,28.06-4.37-2.68-5.2-13.49-5.53-18.48-4.84Z" fill="#fff"/>
  <path d="M590.54,3.89v300.39l-19.98-21.77c-15.36-19.54-31.04-38.58-46.31-58.18-9.01-11.57-12.77-23.53-29.46-25.79-2.68-.36-8.68.65-10.44-.74-5.9-9.11-10.48-19.19-16.12-28.43-1.5-2.45-7.65-12.42-10.11-12.34-3.74.13-37.09,47.22-42.49,52.95-2.59,1.44-11.83-5.7-19.73.61-26.38,28.45-50.38,59.2-76.54,87.8-2.93,3.2-6.92,6.95-10.21,9.83,2.06-6.44,1.68-14.88-.82-21.21-1.1-2.77-4.08-4.88-4.32-7.57-.3-3.35.99-7.35.37-11.49-.82-5.45-5.16-15.3-11.06-16.67-.53-14.42-1.96-28.25-7.54-41.64-.69-1.66-1.85-5.18-3.58-5.29,14.24-15.01-1.77-28.73-17.61-31.35-17.95-2.98-21.38,2.8-36.26,6.1-15.09,3.35-26.38,1.89-40.37,11.56-16.57,11.46-18.38,26.44-23.11,43.94-4.2,15.52-13.52,12.32-23.37,21.33s-6.25,15.08-5.29,25.72c.72,7.98-5.16,7.89-8.19,14.05-3.61,7.34-2.89,15.5,3.04,21.33.82.81,6.21,3.36,5.84,4.63l-27.75,28.45c-2.34.82-6.19-3.15-8.81-4.33-24.58-11.06-49.98,8.62-70.24,20.7-8.21-3.52-16.88-6.35-25.98-5.68V3.89h586.45ZM467.99,68.05c2.25-4.82,9.04-17.13,9.81-21.44.48-2.68.48-3.42-2.47-3.16-3.31.29-26.39,7.57-29.62,9.22-2.09,1.08-2.2,1.05-3.47,3.1-2.61,4.23-8.18,19.81-10.25,25.28-1.78,4.7-9.36,23.72-9.56,27.12-.04.73.22,1.46.54,2.1l17-3.19c.56.52-4.12,13-4.75,14.63-3.65,9.35-15.15,25.23,5.41,16.26l-10.4,30.74c-.51,2.89,3.35,2.53,4.96,1.28l38.04-54.35-.8-2.7c-3.86.63-7.46,2.59-11.35,3.08-.94.12-1.58.87-1.36-.71,2.27-5.18,24.18-32.49,23.7-35.48-.09-.54-.18-1.06-.66-1.4-1.65-1.18-17.86,3.96-21.07,4.32-.5-.49,4.19-11.76,4.87-13.22.45-.97,1.36-1.32,1.44-1.49ZM150.7,90.65c.33-13.78-12.74-28.25-26.06-30.8-17.05-3.26-34.57,7.18-37.06,24.89-15.18-9.55-35.63-3.82-39.56,14.35-14.93-1.87-26.09,21.92-6.81,23.8l149.75-.19c17.71-5.31,2.46-21.29-10.06-19.17-2.92-14.55-17.53-18.11-30.2-12.86ZM539.58,114.97h-17.42c3.93-7.51,8.93-14.82,13.58-22.17,1.49-2.36,9.21-10.89,7.37-13.89-.85-.44-1.73-.69-2.71-.61-3.16.28-31.19,10.07-34.2,11.84-5.03,2.98-11.89,21.88-14.77,27.93-.39.82-1.3.88-1.68,1.67-2.74,5.77-5.03,11.76-8.19,17.33l1.47,2.27,13.93-2.59c1.08-.34.89-.04.89.89-.02,7.66-14.64,30.15-16.8,39.08-2.5,10.32,7.38.28,9.97-2.19,7.67-7.33,14.25-15.87,21.29-23.74,5.5-6.16,24.62-25.69,27.39-31.78.7-1.55,1.76-2.63-.11-4.06ZM561.33,153.37c-10.03-7.48-22.8-4.28-30.23,5.04-1.28,1.6-4.91,8.87-5.45,9.22-.9.58-6.68-.41-8.93.07-8.95,1.89-14.95,18.1-1.49,19.61,12.78,1.43,44.97,1.28,57.91-.01,20.02-2,12.57-25.21-4.97-20.67-.77-5.11-2.58-10.08-6.83-13.25ZM121.54,193.42c-16.64-19.91-49.41-7.15-49.08,18.17-8.3-5.25-19.08-4.23-26.22,2.38-.88.81-6.63,8.27-6.86,8.95-3.4,10.1,5.3,11.81,13,12.37,23.48,1.68,62.09,1.75,85.53,0,10.42-.77,16.95-6.07,13.91-17.26-2.92-10.78-14.86-14.15-24.13-9.07-.7-5.55-2.54-11.22-6.16-15.54Z" fill="#fff"/>
  <path d="M590.54,477.8c-5.31-9.08-13.26-7.7-20.64-2.02-3.32-4.74-7.98-5.61-13.1-3.12-2.4,1.17-3.29,3.82-5.7,4.48-4.41-13.66-25.52-9.35-23.02,5.91-2.93-.44-6.45-1.21-9.39-.51-4.11.98-6.9,5.76-6.67,9.83.17,3.08,2.07,3.27,2.26,5.8l-32.22,7.89c1.32-7.38-4.59-13.98-11.83-10.52-.46-13.17-14.45-11.62-19.4-1.99-3.7-19.39-17.82-11.38-20.72,2.64-10.64-11.37-20.94-6.17-14.46,9.2-7.71-1.05-15.55-.21-23.25-1.39-4.57-.7-8.71-2.93-12.74-3.7-9.13-1.74-18.49-2.4-27.78-2.14,4.02-15.13,6.91-30.64,11.08-45.76.23-.84,1.2-.87,1.36-1.43,1.18-4.2,3.98-20.71,6.01-22.78,2.61-2.67,7.8-2.3,11.69-7.38,5.02-6.54,1.83-8.55,3.02-13.4.36-1.48,2.16-1.37,2.72-3.83.47-2.05.55-5.45.14-7.5s-2.19-1.5-1.82-2.75c.18-.6,1.12-.25,1.33-.78,3.52-9.06.5-14.12-7.93-17.67,2.29-9.22,3.97-18.62,6.38-27.81.36-1.36,1.35-1.47,1.47-1.93,3.45-13.33,14.03-41.59-7.12-45.84-9.99-2.01-12.56,3.18-14.31,11.41-3.05,14.41-3.67,29.49-6.2,44.41-.92,5.43-2.61,10.71-3.21,16.19-10.47-3.05-18.32,3.99-24.14,11.69l-25.16-3.81c1.6-3.1,2.12-3.01,1.8-6.73-.39-4.53-2.86-10.66-4.07-14.99-.94-3.35-7.42-21.45-7.35-22.64.03-.49,3.45-6.61,4.06-8.85s-.2-4.94.64-6.59c.31-.61,3.94-2.67,4.92-3.62,16.34-15.76,30.41-33.54,45.53-50.45,12.59-1.42,23.66-7.86,35.36-12.04,5.34,11.03,8.84,24.08,17.39,33.24,1.51,1.62,2.8,3.56,5.2,3.29,5.6-.63,37.11-37.9,42.17-44.7,7.34,5.44,22.18,23.8,32.05,20.89,3.84-1.13,7.77-13.85,8.04-17.61,17.19,13.68,37.32,20.7,59.53,18.12l38.1,43.34v167.94ZM502.06,296.76c-1.01-1.45-3.36-7.01-5.24-4.34s5.24,10.91,6.45,13.35c3.23,6.48,5.75,13.36,8.52,20.04l18.25,3.78c2.61,2.52,3.69,20.41,6.11,24.45,1.5,2.5,20.77,16.68,25.11,21.23,1.66,1.74,8.25,11.14,8.89,11.48,3.58,1.9,4.59-.66,2.5-3.85-1.88-2.87-8.42-9.92-11.07-12.57-4.58-4.58-18.45-13.95-21.05-17.74-.92-1.34-3.79-12.29-4.52-14.67-.82-2.65-1.12-8.52-3.04-10.64-3.2-3.52-15.27-2.15-17.73-4.62-4.47-8.5-7.66-17.99-13.2-25.91ZM549.02,310.94c-.34-.5-3.03-1.15-3.52-.11l-3.99,10.52c.93,2,11.5,5.62,13.89,8.51,1.68,2.03,2.28,5.81,4.03,8.42.91,1.35,8.05,10,8.77,10.37,1.42.72,2.57,0,3.88-.39.21-.92.16-1.25-.4-1.97-1.45-1.89-4.74-4.27-6.68-6.96-2.4-3.33-4.98-9.94-7.33-12.39-1.93-2.02-8.96-4.98-11.79-6.29-1.08-2.84,4.19-8.15,3.13-9.7ZM479.88,372.17l-16.55-8.76c-.87-5.12-2.57-38.64-6.01-40.01-5.52-1.8-2.17,7.07-1.52,10.61.1.54,1.14.27,1.33,1.43,1.54,9.44.77,20.43,2.87,29.98,1.7,4.32,13.07,5.76,16.44,9.2,4.3,8.42,6.16,17.65,9.55,26.6,4.52,11.92,9.04,12.19,17.77,20.36,3.21,3.01,18.85,19.16,21.42,19.39,3.3.3,3.51-1.35,1.58-3.61-8.95-10.56-23.69-20.24-33.84-29.93-6.3-10.89-7.99-23.73-13.05-35.27ZM444.17,427.43c.2-.33,1.18-.52,1.37-.9,1.31-2.66-.84-4.35-3.31-2.67-3,2.04-6.41,11.95-10.66,14.29-3.3,9.53-1.36,17.68-9.39,24.82-3.27,2.91-19.57,12.54-20.23,15.28-.21.89.09,1.97.9,2.18,1.6.42,24.03-16.69,26.52-19.48,3.51-6.23,3.71-15.06,6.41-21.2,1.51-3.44,6.13-8.55,8.4-12.32Z" fill="#fff"/>
  <path d="M305.43,471.65c6.4,6.99,7.73,9.78,10.08,19.18,3.16,12.68,2.47,17.77,1.47,29.99-.37,4.6.19,15.88-1.4,19.63-.29.69-.65,1.05-1.36,1.28-17.5,4.18-35.57,6.48-53.09,10.66-37.87,9.03-66.07,21.73-106.85,20.76-18.32-.44-41.77-3.91-57.38-13.57,2.94-5.82,5.19-11.97,7.29-18.16,5.36-15.8,9.69-31.44,12.23-48.11.93-1.12,9.02,1.25,10.44-6.79.38-2.17-.35-5.89.49-7.4.31-.56,5.85-3.3,7.26-4.57,9.52-8.61,9.25-24.71.31-33.54,6.99-.73,5-11.19,6.58-16.45,1.05-1.07,8.52,3.96,10.17,4.62,22.24,8.99,53.01,14.13,76.96,12.5,6.65-.45,20.88-4.81,26.11-3.82,3.62.69,27.79,15.35,32.26,18.37,6.53,4.41,13.11,9.62,18.43,15.43ZM183.74,493.75c-1.11,1.2-.37,3.02.89,3.71,18.05-10.17,36.37-23.03,48.25-40.36-.89-1.23-2.01-1.32-3.3-.68-.63.31-7.68,9.11-9.18,10.55-10.95,10.51-23.36,19.46-36.67,26.78ZM225.41,502.54c1.5-1.87,4.63-5.07,1.24-6.76-.77.12-1.62.34-2.26.81-1.61,1.18-7.67,10.51-10.16,13.18-5.55,5.94-15.13,13.82-21.8,18.63-3.26,2.35-19.67,11.52-20.68,12.84-1.49,1.94-.92,4,1.77,3.09,14.2-4.77,42.31-29.85,51.89-41.79Z" fill="#fff"/>
  <path d="M375.18,627.34c3.4,3.23,4.56,24.37,5.78,30.07,3.08,14.32,12.93,30.67,18.18,44.4.85,2.23,4.27,11.79,3.7,13.24l-13.83,8.44c-6.16-4.23-13.09-7.98-20.6-9.16-.76-.74-.94-23.55-6.07-16.72l.64,16.75c-9.75,1.94-16.88,8.69-22.88,16.22-17.84.31-34.32,6.05-52.31,4.87-11.91-.79-23.88-5.36-36.07-4.69-.83-.29-.99-.62-1.05-1.47-.45-6.48,5.9-26.18,8.42-32.99.44-1.19,2.51-1.74,1.57-4.05-2.22-5.48-6.4,7.61-6.77,8.68-3.19,9.2-4.96,19.23-7.55,28.63-.92,1.18-25.71-2.54-28.86-4.68-5.84-18.72-20.31-30.13-39.84-32.15,6.4-17.69,14.67-34.28,23.66-50.77l5.59-7.06c7.38,7.02,17.08,10.78,25.27,16.81,10.31,7.59,14.84,16.68,28.67,18.66,8.81,1.27,18.88.57,27.83,2.08.91.54,4.67,15.52,5.42,17.79,2.31,7.08,5.13,18.52,8,25,.9,2.03,1.01,4.25,4,3.03,1.11-.45,6.68-22,6.28-23.13-2.47-7.01-7.25,14.29-8.47,15.34l-11.78-40.03c8.73-3.22,17.29-12.57,25.79-15.96,5.33-2.12,11.5-1.95,17.39-3.65,14.36-4.12,28.04-15.07,39.28-24.49.48-.16.21.6.62.99Z" fill="#fff"/>
  <path d="M282.47,189.63c.07.19.86.11,1.07,1.22.86,4.55-2.45,10.52-6.82,12.32-5.99,2.47-14.44,2.18-20.37-.27-2.43-1-6.4-4.99-8.54-4.38-2.92,3.3-4.38,7.82-7.37,11.1-8.02,8.78-19.29,10.5-30.62,10.8-1.41,15.66-.23,38.49,11.54,50.34,1.42,1.43,6.68,4.29,6.85,4.67.22.5-4.1,10.34,2.38,7.82.41-3.5,1.46-7.87,3.91-10.55,2.05-2.24,14.44-8.62,17.14-8.5.96.04,4.21,3.07,6.03,3.79,4.58,1.81,10.89,1.68,15.13-1.04,1.63-1.04,2.98-3.77,3.88-3.96,1.45-.3,11.64,4.2,12.66,6.2,1.32,2.61-.08,6.9-2.31,8.69-4.8,3.87-11.89-1.25-17.07-1.8-9.84-1.05-14.87,5.39-23.89,7.51-4.51,5.83,2.9,3.61,6.23,2.29,3.52-1.39,8.17-5.3,11.86-5.89,9.15-1.44,18.71,8.05,26.58-.38,6.98-7.48.69-10.53.71-15.69,0-2.15,1.84-5.87,1.94-8.29,3.73,1.7,6.31,7.89,6.93,11.8.71,4.51-.57,7.91-.34,11.46.42,6.43,8.06,14.54,6.6,23.12-.13.76-3.4,8.52-4.13,9.69-1.08,1.74-4.15,4.26-4.34,4.86-1.41,4.49.72,8.28-2.78,14.16-6.09,10.22-17.09,8.67-26.56,4.42-4.77,4.44-8.79,7.92-15.82,7.96-10.52.06-26.51-10.5-24.27-22.41-4.59-1.66-8.7-2.74-12.55-5.9-16.08-13.21-9.78-49.75-12.98-68.55-4.47-6.26-15.19-5.15-19.83.92-10.34,13.5.26,32.96,17.37,30.83l.66,15.13c-16.78.51-32.14,7.56-46.37,15.75-2.94,1.69-11.74,8.74-13.95,9.12-3.45.59-9.6-5.47-10.73-8.73-4.61-13.32,8.16-14.88,9.75-22.54s-4.77-13.36.03-22.98c5.81-11.65,23.24-10.59,28.5-26.09,5.56-16.37,3.02-29,18.66-41.79,12.74-10.42,25.07-9.72,39.79-12.8,8.28-1.73,16.02-6.21,24.63-6.92,10.95-.9,26.73,1.77,30.84,13.52Z" fill="#fff"/>
  <path d="M202.58,296.44c1.96,7.7,4.37,15.28,10.64,20.6,2.08,1.76,9.77,5.2,10.12,5.66.8,1.04.5,3.52,1.07,4.71,5.77,11.97,19.14,21.33,32.8,18.94-10.28,21.11-32.23,40.42-53.04,51.15-16.02,8.26-39.56,16.9-56.75,8.65,3.25-10.19,8.76-18.08,15.76-25.97,9.57-10.77,20.37-19.38,28.82-31.62.76-1.1,7.02-10.19,2.44-9.43-1.41.23-12.06,16.18-14.18,18.73-9.07,10.89-23.35,21.14-30.35,33.38-8.18,14.31-11.22,30.13-14.98,46.15-12.43,2.28-25.63,1.28-37.46-3.3-9.54-3.69-10.22-3.39-9.91-13.82.78-26.53,13.83-56.85,31.25-76.56,21.32-24.13,51.16-43.95,83.78-47.26Z" fill="#fff"/>
  <path d="M533.01,262.86c-18.28-1.89-25.34-11.65-39.31-18.54-2.13-1.05-4.87-2.68-5.54.61-1.17,5.77.6,12.21-4.41,17.33-.75.76-1.56.57-2.49.48-8.29-.79-24.48-22.24-29.06-21.6-2.2.31-25.17,28.96-29.31,33.21-2.3,2.36-10.84,11.19-13.46,10.93-9.86-10.21-13.19-24.18-19.83-36.15l-33.1,12.4,41.48-47.59c8.38-6,15.42,2.32,19.38-.34l40.71-51.35,24.18,39.3c9.21,1.64,17.68-.12,25.18,6.71l42.37,54.59c-5.38-.4-11.48.55-16.77,0Z" fill="#fff"/>
  <path d="M208.56,630.97l35.17-19.07c1.38,5.1,8.78,6.75,13.47,8.21,16.46,5.15,47.19,11.76,63.81,8.57,9.33-1.79,25.11-8.89,21.01-20.73,11.14,2.4,24.88,3.46,31.43,14.14-11.38,10.14-26.86,22.56-41.95,26.29-4.91,1.21-10.51.9-15.12,2.63-7.46,2.79-21.21,16.45-27.93,17.43-6.03.88-28.46-1.11-34.11-3.39-6.42-2.59-17.62-15.07-24.81-19.89-2.33-1.56-22.43-11.73-20.97-14.18Z" fill="#fff"/>
  <path d="M13.62,364.75c6.37.81,16,6,21.81,9.09,17.32,9.22,32.17,22.53,50.19,30.36-1.59,4.83-4.51,24.75-1.31,27.92,1.18,1.17,6.38,1.88,6.44,4.48l-2.22,5.74c-4.48-1.83-7.39-5.1-12.76-2.65-2.77-10.68-14.63-11.21-19.4-1.33-6.36-7.19-11.78,3.56-13.22,3.9-1.57.37-5.25-3.27-11.23-.73-5.49,2.34-4.09,8.02-5.25,8.69l-22.57,1.29v-86.76c3.03.27,6.59-.38,9.53,0Z" fill="#fff"/>
  <path d="M283.51,342.4c-2.8,13.87-6.56,27.51-11.23,40.89-4.18,6.65-6.04,15.27-9.9,22.45-.95,1.76-6.48,10.05-7.56,10.85-2.2,1.62-12.56,3.46-15.78,3.94-23.42,3.51-47.95-.24-70.57-6.49,5.59-2.01,11.55-2.91,17.23-4.78,22.4-7.37,49.6-25.82,64.28-44.19,4.19-5.25,13.47-23,18.45-24.99,2.55-1.02,11.44,3.89,15.09,2.32Z" fill="#fff"/>
  <path d="M295.31,338.48l9.27,37.69c-2.11,1.68-14.9,2.52-13.84,5.98.85,2.79,9.8-1.88,12.07-.92l28.67,6.18c-7.88,13.3-7.64,30.7-5.25,45.68-21.71-1-47.62-4.66-61.54-22.99-.35-1.34,5.06-13.11,6.13-15.62.36-.83,1.33-.83,1.68-1.66,6.67-15.88,12.86-33.93,14.36-51.02l8.44-3.34Z" fill="#fff"/>
  <path d="M282.47,213.3c1.54,3.17,2.87,6.02,3.75,9.71,1.37,5.75,5.66,36,1.25,38.93l-10.6-2.8c-1.09-3.59-1.62-7.89-2.93-11.37-2.66-7.08-6.82-18.31-10.04-24.8-.76-1.53-2.17-5.45-4.38-4.8-2.79,2.36.51,5.3,1.06,6.83,3.38,9.27,9.75,22.63,11.98,31.35,2.42,9.45-7.51,10.14-14.05,7.5-1.71-.69-4.33-3.14-5.77-3.46-4.62-1.05-19.59,6.39-22.25,11.08-14.26-6.02-14.51-21.33-16.06-34.43-.06-.49-1.22-.25-1.34-1.41-.38-3.51.31-7.85.13-11.47,14.75-.45,28.09-5.87,34.94-19.62l1.56-.66c8.9,4.89,19.27,7.2,28.85,2.63,1.49.15,3.25,5.47,3.89,6.78ZM279.44,216.34c-2.93-.12-12.58,2.63-12.89,6.2-.42,5.92,11.33,2.35,13.27.82,1.8-1.42,3.81-6.85-.38-7.02ZM236.01,223.6c-4.43.69-9.62,3.85-5.33,8.32,4-1.96,26.25,2.79,21.6-6.53-1.36-2.73-13.38-2.24-16.27-1.79ZM276.74,231.42c-4.05.88-4.1,13.79,1.78,13.06,4.9-.73,3.39-14.19-1.78-13.06ZM249.14,239.36c-.08-.21-3.01-2.75-3.46-2.84-6.65-1.23-6.41,15.27.55,13.09,3.22-1.01,3.96-7.66,2.91-10.26Z" fill="#fff"/>
  <path d="M263.11,413.39c5.97,9.92,18.28,15.46,29.09,18.58,8.58,2.48,29.96,6.31,38.17,4.27,3.41-.84,6.21-9.06,7.09-12.32l6.23,1.94-14.59,73.68-7.83-.02c-1.8-35.4-38.7-48.97-64.41-65.13.67-7.18-.75-16.95,6.25-21.01Z" fill="#fff"/>
  <path d="M358.45,400.25c-6.82,8.91-2.12,18.31,8.48,19.77.76.99-2.1,13.01-2.63,15.19-10.91,45.15-22.47,95.23-36.03,139.74-.67,2.2-2.2,13.39-4.26,13.22l-10.27-5.49c1.73-3.94,2.38-8.18,3.36-12.33,12.11-51.1,19.79-106.3,33.24-156.86,1.31-4.94,3.72-8.79,4.17-13.91l3.94.67ZM357.79,427.85l-2.7.38-8.47,37.07c2.63,2.72,4.98-11.43,5.33-12.6.14-.48,1.02-.51,1.29-1.5,2.07-7.33,3.34-15.81,4.54-23.36ZM343.98,485.04c-2.89.03-2.12,3.8-2.68,5.4-2.01,5.77-5.75,22.81-6.25,29.43-.09,1.14-.58,1.79.73,2.63,1.22.56,2.22-3.93,2.46-4.75,1.16-3.89,2.41-9.51,3.07-12.82.55-2.74,3.56-18.76,2.67-19.88ZM329.52,546.82l-2.35.6-4.87,26.34c1.54.25,1.77-.99,2.18-2.09,1.88-5.01,2.29-13.54,3.68-19.31.26-1.1,2.57-2.61,1.37-5.55Z" fill="#fff"/>
  <path d="M172.26,696.23c15.66-1.12,33.09,8.45,38.76,23.29,3.51,9.18,1.31,11.9-8.23,14.46-14.6,3.92-45.9,2.14-59.97-3.46-9.17-3.65-8.35-5.75-3.58-13.4,6.28-10.06,20.92-20.02,33.01-20.89Z" fill="#fff"/>
  <path d="M421.17,661.58c7.3,7.06,16.57,23.55,22.21,32.72,1.24,2.02,8.2,9.53,6.04,12.31-1.01,1.29-13.34,5.63-15.83,4.99-2.56-.68-6.14-26.41-10.4-30.66-1.69-1.69-4.48-1.38-4.16,1.45.26,2.29,2.96,4.24,3.54,5.71,2.93,7.46,4.11,16.57,6.23,24.36l-22.92-.74-21.09-54.09c11.13-3.72,27.46-4.65,36.37,3.96Z" fill="#fff"/>
  <path d="M132.54,606.22c-1.84,2.47-10.33,16.48-11.6,17.03-9-1.29-18.79-1.55-27.13,2.43l-6.17-18.07,23.9-37.16,43.74,6.95c-7.46,9.68-15.47,19.03-22.74,28.84Z" fill="#fff"/>
  <path d="M97.68,367.6c-5.32,10.49-6.43,20.52-10.17,30.79-.15.41-1.6,1.93-2.17,1.88l-51.68-31.25c-.08-1.4,2.72-2.8,3.76-3.48,10.57-6.88,34.93-19.77,47.18-19.89,7.16-.07,15.62,3.43,21.09,7.95.35.92-5.19,10.52-6.13,12.31-.51.97-1.69,1.32-1.88,1.7Z" fill="#fff"/>
  <path d="M126.37,475.17l3.2-11.44c-4.32-4.42-6.1,6.91-6.41,9.89-.39,3.69,1.48,13.79-2.69,15.1-10.69,2.39-7.58-21.82-8.62-22.69-.21-.18-2.85-.19-3.16.04-1.2,6.69-1.88,14.86,2.55,20.28-7.68-.69-10.31-8.81-11.19-15.47-.25-1.92,1.92-7.55-2.27-6.22-5,1.59-.62,14.52,1.62,17.75-4.9.31-7.7-4.04-9.32-8.1-4.75-11.89-.08-25.54,4.03-36.98,5.54.86,10.67,3.4,16.22,4.24s15.28-.3,19.65.73c.44.1,3.92,3.17,4.27,3.62,7.6,9.55,3.48,25.38-7.89,29.25Z" fill="#fff"/>
  <path d="M255.23,420.62l-2.6,13.49c-31.91,7.46-70.19,4.25-100.31-8.89-1.61-.7-9.4-4.72-9.48-5.53l3.59-9.62c33.8,13.91,73.04,21.06,108.79,10.54Z" fill="#fff"/>
  <path d="M302.57,548.14l-9.19,31.23c-10.25,2.28-16.98,8.92-23.36,16.75l-12.88-8.84,7.58-31.31,37.86-7.83Z" fill="#fff"/>
  <path d="M387.14,308.44c4.66,6.91,2.27,15.7.29,23.13-.28,1.06-1.24,1.03-1.47,1.87-3.66,13.37-7.59,26.71-9.83,40.43-4.48-1.49-13.34,4.46-15.37-.61-.8-2,1.77-13.37,2.33-16.58,2.04-11.64,3.56-24.48,5.32-36.87.54-3.79,1.26-15.36,5.12-16.57,5.02-1.57,10.77,1,13.6,5.19ZM380.14,325.97c-3.61-.53-3.11,5.39-4.01,8.01-1.71,4.93-5.15,13.23-5.8,18.66-.18,1.48-.43,3.16.94,4.21,3.01-2.64,9.99-29.69,8.87-30.87Z" fill="#fff"/>
  <path d="M363.55,717.89c7.1-.93,19.18,4.7,24.14,9.7,19.74,19.87-26.91,16.59-36.59,14.24-3.63-.88-7.3-1.69-9.68-4.85,2.64-7.65,14.01-18.02,22.13-19.09Z" fill="#fff"/>
  <path d="M363.27,387.56c.03.15.95.2,1.07.66-2.42,13.16-6.9,9.63-12.66.69-.28-.44-1.15-6.45-3.43-3.14-1.96,2.84,1.85,8.12,2.83,10.75.25,2.84-10.77,5.45-7.11,8.02l5.28-1.01-4.61,18.4-16.34-6.65c-1.52-2.76,1.16-5.33,1.21-5.64.43-2.68.18-6.14.85-8.89,2.62-10.7,9.92-28.21,23.67-25.97,8.02,1.31,8.02,6.59,9.25,12.8Z" fill="#fff"/>
  <path d="M445.04,487.85c3.01,4.26,0,10.72,2.52,14.92,3.04.92,7.82-13.49,14.39-13.13,8.96,1.9.31,10.59,2.01,13.15,1.16,1.76,6.11-3.79,8.22-4.31,5.05-1.26,7.55,5.4,5.84,8.15-1.3,2.09-30.26,4.19-34.45,4.07-7.97-.23-15.69-2.23-23.3-4.31-3.14-4.38-7.27-16.14,2.55-11.74,3.02,1.35,6.67,7.91,8.83,8l1.64-.65c-.57-4.4,6.08-22.17,11.75-14.13Z" fill="#fff"/>
  <path d="M548.09,478.18c1.07,1.97,2.04,3.34,1.68,6.2h1.65c2.73-.51,3.41-10.32,11.78-9.17,5.04.69,2.63,7.32,5.98,7.01,2.44-.23,6.32-7.81,11.01-7.55,7.09.39,9.01,8.2,6,13.7-22.56-3.28-44.38,3.98-66.29,7.85-10.42-9.44,4.23-13.18,11.78-6.58,2.56-1.97-.12-4.4-.29-6.3-.97-10.66,11.16-15.38,16.71-5.15Z" fill="#fff"/>
  <path d="M143.74,662.91c.19.33,1.53.12,1.04,1.84-2.86,2.38-3.8,6.12-8.55,5.64.7-5.95-5.15-11.78-10.52-13.15-.98,3.77,1.34,3.1,2.66,4.89,2.04,2.76,4.46,5.7,3.83,9.49l-5.87,1.12c-.77-5.31-1.22-11.01-7.55-12.08-3,4.26,5.58,6.09,4.25,11.94-.47,1.29-7.37,2.25-8.22,1.08,1.48-3.85-3.09-14.78-6.85-9.59,1.78,3.38,4.36,5.13,3.95,9.57-6.42.74-14.23-1.26-17.77-6.9,9.34-13.65,40.13-20.49,49.61-3.86Z" fill="#fff"/>
  <path d="M129.65,650.01c-13.1-1.55-30.64,3.07-38.46,14.45l-8.76-11.61c10.24-11.8,27.34-15.13,42.47-12.87l4.75,10.03Z" fill="#fff"/>
  <path d="M71.15,444.93c2.77.38,5.12-2.35,7.63-2.6,6.6-.66,8.48,6.98,5.79,11.85-15.21-1.69-30.74-1.27-45.95-2.68-3.62-.34-11.26-1.68-5.57-6.21,4.15-3.31,9.59,1.01,12.78,3.59,1.42-.3.12-8.63,5.26-8.94,4.25-.25,3.9,6.27,7.18,4.94,1.2-.49,1.32-7.06,5.4-9.06,6.54-3.21,9.47,3.64,7.48,9.11Z" fill="#fff"/>
  <path d="M337.41,606.63l-11.48-9.2c-3.07,2.66,2.85,4.74,4.62,6.55,1.52,1.55,4.28,4.64,2.97,6.78l-3.01,2.45c-1.97.16-.57-2.91-1-4.12-.56-1.61-6.05-7.57-8.52-7.04-1.88,2.03,11.67,11.88,1.97,13.8.12-5.89-4.47-11.89-10.52-11.83-1.33,1.21,5.79,6.31,6.43,7.67.81,1.74.89,3.6.81,5.47h-21.7c1.91-13.96,17.76-27.41,32.03-21.84,3.26,1.27,9.32,7.3,7.41,11.32Z" fill="#fff"/>
  <path d="M74.68,647.15c4.33,10.05,16.19,26.01,27.01,29.19,12.48,3.67,32.98,1.01,44.08-5.93,3.57,4.23-4.43,6.58-7.4,7.7-18.5,6.96-37.8,7.67-52.76-6.73-5.13-4.93-20.37-30.86-22.4-37.45-1.38-4.47-1.15-8.11,3.33-10.21-.62,5.41,3.52,9.34,5.4,14,1.17,2.89,1.29,6.06,2.74,9.43Z" fill="#fff"/>
  <path d="M122.3,627.79c.33.29,2.45,8.04,2.1,8.42-15.41-2.65-32.21,1.87-43.07,13.14-1.35.4-4.13-6.99-4.23-8.29-.08-1.06-.19-1.87.29-2.88,2.17-4.53,25.66-12.22,30.93-12.48,1.83-.09,13.17,1.38,13.98,2.09Z" fill="#fff"/>
  <path d="M318.11,551.87c-.04.15-.91.24-1.02.72-2.19,9.83-3.4,19.96-5.98,29.72l-13.15-3.29c1.64-6.03,2.52-12.41,4.27-18.4.71-2.41,3.57-11.92,4.86-13.39s10.52-.64,12.25-3.68c-.48,2.72-.61,5.62-1.23,8.32Z" fill="#fff"/>
  <path d="M321.63,590.85c-14.22,1.29-23.06,12.28-27.7,24.86l-11.75-1.85c2.38-4.79,3.59-9.45,6.7-14,7.58-11.11,20.69-17.57,32.75-9Z" fill="#fff"/>
  <path d="M200.01,274.04c-12.97,1.15-21.5-10.53-15.46-22.36,2.75-5.37,8.89-8.43,14.05-4.18l1.41,26.53Z" fill="#fff"/>
  <path d="M338.72,611.89c.02,9.09-16.07,13.05-23.42,13.71-14.76,1.33-41.79-4.83-56.4-9.16-3.76-1.11-15.23-3.06-11.43-8.7,1.94-3.14,4.25,1.55,6.23,2.72,6.08,3.61,44.39,11.07,52.46,11.31,12.27.37,22.97-2.08,32.56-9.88Z" fill="#fff"/>
  <path d="M304.54,583.63c-6.22,3.32-11.18,5.48-15.74,11.04-4.21,5.14-8.31,12.14-9.92,18.53l-10.88-2.6c3.72-16.01,18.63-31.56,36.54-26.97Z" fill="#fff"/>
  <path d="M84.29,609.92l5.93,17.08c-6.4.63-10.68,5.42-15.77,8.55.21-3.08-3.3-5.49-3.81-7.7-1.76-7.62,6.86-16.27,13.66-17.94Z" fill="#fff"/>
  <path d="M379.95,407.01c5.77,4.95-3.09,15.75-8.7,16.88-1.57.56-.26-3-.16-3.12.56-.72,3.91-1.04,3.79-3.1-.34-1.49-5.55-.87-7.27-1.29-5.56-1.36-11.13-4.68-8.55-11.26,2.2-3.69,18.06-.53,20.88,1.89Z" fill="#fff"/>
  <path d="M265.09,609.92c-14.35-2.21-15.9-6.85-10.51-19.72,1.15-.77,12.04,7.38,12.82,9.23,1.13,2.7-2.44,7.42-2.32,10.49Z" fill="#fff"/>
  <path d="M382.57,394.53c2.37,2.73,1.52,7.1.86,10.31-6.65-3.86-13.35-5.17-21.03-4.61,4.67-2.43,4.52-5.45,6.34-9.76,2.51-1.01,11.99,1.95,13.83,4.06Z" fill="#fff"/>
  <path d="M378.51,377.89c4.9,1,8.39,8.19,5.19,12.53l-15.43-3.61-2.3-7.58.71-1.34c3.49.48,8.6-.66,11.83,0Z" fill="#fff"/>
  <path d="M320.97,539.58c-1.16,0-.72-2.87-.67-3.64.25-3.94,1.21-8.53,1.36-12.44.19-4.72-.95-14.66-.02-18.43.62-2.54,4.46-1.99,6.29-1.03l-6.96,35.53Z" fill="#fff"/>
  <path d="M330.19,431.13c-.56-4.41-2.79-7.13-1.98-11.83l6.51,3.02-4.54,8.8Z" fill="#fff"/>
  <path d="M590.53,489.63c-.33.49-1.11-.6-.64-1.31.33-.49,1.11.6.64,1.31Z" fill="#fff"/>
  <path d="M432.34,566.78c3.22-7.06,15.03-19.5,21.87-23.15,5.59-2.98,33.94-12.6,39.37-11.94,1.37.17,18.63,7.82,20.63,8.95,7.59,4.29,15.18,13.04,18.32,21.13,1.99,5.15,6.11,16.41.33,19.73-3.51,2.02-21.14,6.56-25.65,7.22-20.18,2.93-44.56,1.48-63.72-5.63-9.62-3.57-16.42-4.74-11.14-16.31ZM525.04,557.08c-8.97-13.91-18.57-14.91-32.21-22.56-17.06,5.22-36.31,9.08-48.92,22.49,4.12,1.4,8.45,1.92,12.64,3.14,2.84.83,7.23,3.83,10.06,3.78,4.38-.07,12.45-6.99,18.31-6.56,6.89.5,17.56,8.96,24.43,9.2,5.21.18,12.35-3.61,17.39-4.96,2.18-1.68-1.12-3.6-1.71-4.52ZM508.34,569.84c-8.07-.03-18.27-9.51-25.79-8.4-4.7.69-12.51,6.62-16.59,6.46-4.63-.18-19.2-8.61-24.87-7.32l-6.4,13.52c.59,4.04,26.72,10.93,31.58,11.5,1.4-3.15-3.38-18.11,2.24-16.47l2.98,16.85,33.53-.42,3.31-15.71ZM529.38,564.57l-16.93,5.41-3.44,14.3,22.93-5.98c.78-4.83-1.31-9.23-2.56-13.73Z"/>
  <path d="M91.29,712.69c4.82,3.64,13.02,13.77,9.09,20.12-6.4,10.34-34.11,7.34-44.21,4.81-13.02-3.27-15.97-8.86-5.06-18.57s27.79-15.71,40.18-6.35ZM71.64,711.97c-8.49,1.29-19.61,10.04-23.94,17.25-.16,3.63,13.05,6.15,16.08,6.7,11.28,2.02,45.19,3.41,29.33-16.18-5.52-6.81-12.78-9.09-21.47-7.77Z"/>
  <path d="M479.04,758.87c.06.18.89.26,1.02.72v1.69c-6.8,13.94-30.44,11.15-43.13,8.45-16.96-3.62-19.35-7.42-4.75-18.07,15.72-11.46,39.09-14.77,46.86,7.21ZM451.66,746.15c-4.4.65-10.49,3.74-14.26,6.12-1.72,1.09-11.75,8.5-10.94,10.16,2.98,1.77,7.4,3.02,10.77,3.73,8.99,1.9,49.36,6.5,35.9-12.23-4.8-6.69-13.54-8.93-21.47-7.77Z"/>
  <path d="M462.84,619.31c8.82-.6,23.17,6,24.98,15.41,2.26,11.75-15.4,11.68-23.17,11.34-5.8-.25-30.69-3.15-29.17-11.99,4.65-7.46,18.89-14.19,27.36-14.76ZM461.52,623.24c-7.35.86-16.51,6.81-22.14,11.43-.14.96.73,1.34,1.31,1.84,5.83,5.07,40.48,9.29,43.69,1.66,2.46-5.86-10.86-14.39-15.85-15.03-2.16-.28-4.83-.14-7,.11Z"/>
  <path d="M513.19,675.23c10.41-11.9,35.63-13.42,42.09,3.13,5.32,13.63-17.53,11.74-25.58,11.12-7.02-.54-25.77-3.67-16.51-14.25ZM552.24,684.03c4.12-4.29-8.7-13.39-12.71-14.23-7.67-1.61-23.46,2.67-23.63,11.77,4.44,4.67,33.43,5.5,36.34,2.47Z"/>
  <path d="M285.33,759.31c5.87-.68,11.43-.38,16.54,2.82,1.15.72,6.63,5.68,6.98,6.82,3.77,12.31-12.35,12.21-20.45,11.9-4.69-.18-21.63-2.12-21.98-8.3,1.61-7.59,11.9-12.43,18.91-13.24ZM304.37,774.72c.39-.43.57-.95.61-1.53-4.05-15.58-26.78-12.19-34.66-1.26-.02,2.27,10.7,4.71,12.87,4.92,3.85.38,18.75.56,21.18-2.13Z"/>
  <path d="M63.51,533.43c.09.24,1.62.23,1.05,2.4-3.89,8.41-34.6,7.72-34.89-1.16s26.39-21.95,33.84-1.24ZM59.88,536.21c.29-15.59-21.45-12.04-26.72-1.55,2.19,5.07,25.6,3.31,26.72,1.55Z"/>
  <path d="M554.22,513.47c5.27-.66,8.82-.02,13.26,2.83,22.98,14.73-24.83,20.96-28.1,9.67-1.93-6.67,9.73-11.85,14.84-12.5ZM569.41,525.7c-1.09-12.89-23.63-11.02-26.92-.32,8.47,5.73,17.91,3.47,26.92.32Z"/>
  <path d="M122.21,761.33c.26.15,3.38,3.41,3.68,3.87,9.43,15.01-22.58,13.73-29.01,6.65-3.26-8.61,13.3-12.45,19.33-12.09,1.6.09,4.66.8,6,1.57ZM112.42,763.25c-6.48.56-18.64,6.12-5.8,9.37,3.82.97,19.55,2.35,17.44-4.26-1.39-4.35-7.73-5.45-11.64-5.11Z"/>
  <path d="M363.56,773.76c4.99-.69,15.8-.36,18.48,4.84,5.67,10.99-24.22,11-28.06,4.37-3.15-5.44,5.67-8.67,9.58-9.21ZM357.14,780.17c-2.35,3.91,21.63,5.06,21.73.98.13-5.01-18.67-4.66-21.73-.98Z"/>
  <path d="M202.55,782.04l-6.51.49c-1.53-6.13-6.84-14.19-12.67-16.95-2.03-.96-8.6-1.2-7.69-4.14,1.52-4.91,15.15,5.06,17.09,7.22,2.47,2.77,3.7,6.62,5.91,9.53.97-7.25,2.08-17.21,8.87-21.03,2.47.58-2.65,10.03-3.27,12.49-1.01,4.05-1.25,8.26-1.74,12.39Z"/>
  <path d="M525.84,735.87c-.04.16-.88.26-.99.75-.53,2.4-1.29,16.01-2.09,16.53l-5.39.1c-1.91-4.63-5.96-11.46-10.35-14.14-1.71-1.05-7.68-1.89-7.19-3.97,7.03-3.56,16.9,6.37,19.07,12.8,1.36.82,1.9-9.98,2.16-11.3.72-3.71,1.64-12.67,7.01-8.67-.74,2.64-1.55,5.23-2.21,7.89Z"/>
  <path d="M28.61,683.98c-3.4-5.12,7.93-9.49,11.95-9.68,4.86-.22,13.72,2.45,13.39,8.28l-.63,1.85c-4.05,5.5-21.5,4.4-24.72-.46ZM49.44,682.87c-1.3-7.43-12.67-5.54-17.09-1.63,1.06,4.25,16.13,3.06,17.09,1.63Z"/>
  <path d="M553.06,607.95c1.64,1.64-4.85,7.71-5.65,9.13-2.4,4.3-2.76,9.44-4.66,13.89l-2.8-.07c-.33-11.22-7.85-16.48-17.77-19.4.79-6.44,13.02,1.2,15.42,3.68,1,1.03,3.84,6.88,4.94,5.9.95-5.22,4.55-12.86,10.52-13.14Z"/>
  <path d="M409.36,593.22c1.27,2.37,1.32,3.85-1.56,5.88-5.68,4.01-23.12,1.79-23.01-4.63.09-4.91,18.91-11.83,24.56-1.25ZM389.36,595.45c2.68,2.28,17.68,3.67,17.03-.88-.74-5.15-15.84-4.66-17.03.88Z"/>
  <path d="M189.97,597.59c4.62-.79,14.73-.65,16.77,4.62,3.51,9.04-16.36,8.72-21.46,6.33-8.25-3.87-1.27-9.92,4.69-10.94ZM195.85,600.31c-1.8-.03-11.11,1.71-10.95,4.02,5.5,2.64,13.23,3.45,18.38-.03.82-2.56-5.55-3.97-7.43-4Z"/>
  <path d="M498.95,688.33c7.82,10.27-22.35,10.61-22.63,2.66-.25-7.06,19.34-6.98,22.63-2.66ZM485.01,692.74c2.8.37,6.86,0,9.86,0,.27,0,1-.84,1.64-.67,2.08-3.43-14.18-4.56-15.76-.98.03.55,3.56,1.55,4.26,1.64Z"/>
  <path d="M44.67,770.45c4.25-.88,17.8-.74,15.68,6.44-2.21,7.5-22.44,4.53-22.07-1.68.1-1.62,4.84-4.44,6.38-4.76ZM42.22,774.91c1.02,3.86,13.95,3.11,14.46.97.69-2.93-12.56-2.18-14.46-.97Z"/>
  <path d="M571.92,562.13c5.67,8.1-21,11.22-21.83,3.17-.64-6.19,17.4-9.5,21.83-3.17ZM568.14,563.3c-.76-.94-8.49-.86-10.09-.65-.61.08-5.66,1.23-4.33,2.56,4.61,1.75,9.46,1.99,14.07.07l.35-1.98Z"/>
  <path d="M52.48,481.49c-.11.2-.85.37-1.24,1.08-1.09,2-1.25,9-5.29,7.65-.68-.23-5.13-9-8.35-11.41-.47-.35-13.46-6.67-5.08-6.16,4.8.3,11.8,6.86,13.98,11.05,2.94-4.82,3.8-9.71,9.85-11.82,3.12.64-2.93,7.95-3.86,9.61Z"/>
  <path d="M226.19,765.15l.14,2.87c-4.47.23-11.03,3.01-13.73,6.65-1.16,1.56-3.3,10.95-5.7,7.48-1.08-10.03,9.67-18.32,19.29-17Z"/>
  <path d="M536.2,741.61c-2.69,3.22-3.08,7-4.27,10.85l-3.2.09c-.11-5.34,2.16-11.59,6.23-15.14,1.74-1.52,13.39-7.93,11.51-2.3-.19.58-8.21,4.03-10.26,6.5Z"/>
  <path d="M39.84,590.6c1.21,1.98,5.02,6.41,2.1,8.86-3.25,2.72-4.32-5.67-6.15-8.44-1.13-1.7-2.92-3.39-4.42-4.78-.87-.81-4.34-1.46-2.92-3.22,3.37-4.15,9.96,5.25,11.39,7.58Z"/>
  <path d="M379.24,540.3c3.52-1.27,4.28,6.71,4.66,9.01s2.4,11.44-1.45,11.33c-2.64-.07-1.43-6.09-1.73-8.15-.44-3-2.28-7.97-2.43-10.12-.07-1.03-.16-1.59.95-2.07Z"/>
  <path d="M50.04,577.13c-.27,3.2,2.04,20,.11,21.33l-2.67.29-.69-21.26,3.25-.36Z"/>
  <path d="M562.13,615.97c9.26-.61-3.89,5.56-4.5,6.08-2.19,1.87-4.56,9.27-6.2,8.9-4.37-.98,3.15-14.48,10.7-14.98Z"/>
  <path d="M375.17,557.07c.1.29,2.25,1.89.93,4.1-2.72,4.52-5.3-5.57-6.18-7.08-1.68-2.88-7.28-5.78-4.59-7.99,5.03-.72,8.47,6.87,9.84,10.98Z"/>
  <path d="M395.06,544.29c.86-.21,1.31-.22,1.88.53,1.05,1.52-2.75,6.73-3.76,8.78-.91,1.85-1.35,7.89-4.15,7.02-3.79-1.18,3.21-15.65,6.03-16.33Z"/>
  <path d="M65.79,477.89c2.9,1.7-4,6.17-5.16,7.48-1.24,1.39-2.28,6.23-4.61,5.29-3.17-1.28,3.72-11.33,6.09-12.35.92-.39,2.87-.89,3.68-.41Z"/>
  <path d="M60.44,586.36c7.08-1.92-.92,5.87-1.67,6.91-1.04,1.43-2.83,6.49-4.38,6.13-4-.94,3.29-12.29,6.05-13.03Z"/>
  <path d="M150.7,90.65c12.67-5.25,27.28-1.69,30.2,12.86,12.52-2.12,27.77,13.87,10.06,19.17l-149.75.19c-19.29-1.87-8.12-25.67,6.81-23.8,3.93-18.17,24.37-23.9,39.56-14.35,2.49-17.7,20.02-28.15,37.06-24.89,13.32,2.55,26.39,17.02,26.06,30.8ZM143.72,80.54c-9.73-18.85-33.6-24.55-47.5-7.21-4.74,5.91-3.97,11.19-6,17.69-1.95,1.16-7.39-4.14-9.43-5.08-14.12-6.55-28.68,3.3-29.37,17.86-5.97-1.38-12.8-.37-15.7,5.67-2.58,5.37-1.59,9.13,4.83,9.47l151.6-.32c8.02-3.91-1.54-10.6-6.44-11.38-3.38-.54-6.07.78-9.38.5.78-13.82-11.54-18.8-23.27-13.74-1.85.8-4.08,4.12-5.69,2.92-1.08-4.16-.41-7.97-1.48-12.32-.66-2.69-1.47-2.71-2.17-4.07Z"/>
  <path d="M467.99,68.05c-.08.17-.99.52-1.44,1.49-.68,1.46-5.37,12.73-4.87,13.22,3.21-.36,19.42-5.5,21.07-4.32.48.34.57.86.66,1.4.49,2.99-21.43,30.3-23.7,35.48-.22,1.58.43.83,1.36.71,3.89-.49,7.49-2.45,11.35-3.08l.8,2.7-38.04,54.35c-1.61,1.25-5.47,1.61-4.96-1.28l10.4-30.74c-20.56,8.97-9.06-6.91-5.41-16.26.64-1.63,5.32-14.11,4.75-14.63l-17,3.19c-.32-.64-.59-1.37-.54-2.1.2-3.41,7.78-22.42,9.56-27.12,2.07-5.47,7.64-21.05,10.25-25.28,1.27-2.06,1.38-2.03,3.47-3.1,3.22-1.66,26.31-8.93,29.62-9.22,2.96-.26,2.96.48,2.47,3.16-.78,4.31-7.56,16.62-9.81,21.44ZM467.99,58.85c.74-1.47,4.93-9.34,4.2-10.26l-25.29,8.56-19.39,47.67c-.14,1.23-.06.9.97.98,3.47.25,16.97-6.57,17.92-2.24l-12.34,31.47c2.47,1.22,11.23-4,12.44-.58.45,1.27-8.05,19.93-7.84,23.25l26.94-38.46c.15-1.8-.36-.57-1.12-.46-1.89.28-12.71,4.9-12.6,1.23l24.89-35.61c.33-1.45-.57-.95-1.49-.83-5.13.63-13.18,4.53-18,4.43-1.37-.03-2.19-.4-2.75-1.7,4.27-9.25,8.9-18.38,13.44-27.44Z"/>
  <path d="M539.58,114.97c1.87,1.42.81,2.5.11,4.06-2.77,6.09-21.89,25.62-27.39,31.78-7.04,7.88-13.61,16.42-21.29,23.74-2.59,2.47-12.47,12.52-9.97,2.19,2.16-8.93,16.78-31.42,16.8-39.08,0-.93.19-1.23-.89-.89l-13.93,2.59-1.47-2.27c3.16-5.57,5.45-11.56,8.19-17.33.38-.79,1.29-.85,1.68-1.67,2.87-6.05,9.74-24.95,14.77-27.93,3-1.78,31.03-11.56,34.2-11.84.97-.09,1.86.17,2.71.61,1.84,2.99-5.88,11.53-7.37,13.89-4.65,7.35-9.65,14.66-13.58,22.17h17.42ZM533.99,118.92h-16.77c-.26,0-1.01-.84-1.65-.66l21.69-34.17c-6.3,2.22-27.18,7.04-30.8,11.6l-19.16,38.03c5.33.94,10.85-2.47,16.12-1.66.89.14,1.12-.38.99.99l-16.45,37.79c16.77-15.76,31.97-33.6,46.01-51.93Z"/>
  <path d="M121.54,193.42c3.62,4.33,5.45,10,6.16,15.54,9.26-5.09,21.2-1.72,24.13,9.07,3.03,11.19-3.49,16.49-13.91,17.26-23.44,1.74-62.05,1.68-85.53,0-7.7-.55-16.4-2.27-13-12.37.23-.68,5.98-8.13,6.86-8.95,7.14-6.6,17.91-7.63,26.22-2.38-.32-25.33,32.44-38.09,49.08-18.17ZM121.53,199.99c-11.43-20.45-42.4-14.98-44.38,8.08-.16,1.86.59,9.38-.05,9.8-3.59,1.56-5.56-2.45-8.12-3.79-7.61-3.96-16.61-1.83-22.14,4.43-6.8,7.69-5.71,12.57,4.89,13.47,21.88,1.87,61.53,1.68,83.55.01,7.45-.57,14.68-2.12,13.29-11.38-1.2-8.01-9.89-11.24-17.12-9.55-2.88.67-3.71,4.61-6.98,3.74-1.26-5.11-.22-9.98-2.93-14.83Z"/>
  <path d="M561.33,153.37c4.25,3.17,6.06,8.15,6.83,13.25,17.54-4.54,24.99,18.67,4.97,20.67-12.94,1.29-45.13,1.44-57.91.01-13.46-1.51-7.47-17.72,1.49-19.61,2.26-.48,8.03.51,8.93-.07.54-.35,4.17-7.62,5.45-9.22,7.43-9.33,20.21-12.52,30.23-5.04ZM511.8,182.52c.75.74,4.79,1.4,6.06,1.49,14.85.97,32.42-.04,47.33-.69,5.32-.23,15.95,2.61,15.51-6.85-.39-8.3-9.42-8.15-14.8-4.3-1.93-4.42-.83-9.25-4.28-13.48-11.17-13.67-30.76-.98-33.5,13.19-3.4,1.11-5.25-1.37-8.84-.97-4.61.51-10.83,8.33-7.48,11.63Z"/>
  <path d="M479.88,372.17c5.06,11.54,6.75,24.38,13.05,35.27,10.14,9.69,24.88,19.37,33.84,29.93,1.92,2.26,1.72,3.91-1.58,3.61-2.57-.23-18.21-16.38-21.42-19.39-8.72-8.17-13.25-8.44-17.77-20.36-3.39-8.95-5.25-18.19-9.55-26.6-3.37-3.43-14.74-4.87-16.44-9.2-2.1-9.55-1.33-20.54-2.87-29.98-.19-1.16-1.23-.89-1.33-1.43-.65-3.55-4-12.41,1.52-10.61,3.44,1.37,5.14,34.89,6.01,40.01l16.55,8.76Z"/>
  <path d="M502.06,296.76c5.54,7.93,8.73,17.41,13.2,25.91,2.46,2.47,14.53,1.1,17.73,4.62,1.92,2.11,2.22,7.99,3.04,10.64.74,2.38,3.6,13.32,4.52,14.67,2.6,3.79,16.47,13.16,21.05,17.74,2.65,2.65,9.19,9.69,11.07,12.57,2.09,3.19,1.08,5.75-2.5,3.85-.64-.34-7.23-9.74-8.89-11.48-4.35-4.56-23.61-18.73-25.11-21.23-2.42-4.04-3.51-21.93-6.11-24.45l-18.25-3.78c-2.77-6.68-5.29-13.56-8.52-20.04-1.21-2.44-8.32-10.69-6.45-13.35s4.22,2.89,5.24,4.34Z"/>
  <path d="M444.17,427.43c-2.28,3.76-6.89,8.88-8.4,12.32-2.7,6.14-2.9,14.97-6.41,21.2-2.49,2.79-24.92,19.9-26.52,19.48-.8-.21-1.11-1.29-.9-2.18.66-2.74,16.96-12.37,20.23-15.28,8.03-7.14,6.09-15.29,9.39-24.82,4.25-2.33,7.66-12.24,10.66-14.29,2.47-1.68,4.62.01,3.31,2.67-.19.38-1.17.57-1.37.9Z"/>
  <path d="M549.02,310.94c1.06,1.55-4.21,6.86-3.13,9.7,2.83,1.31,9.86,4.28,11.79,6.29,2.35,2.45,4.93,9.06,7.33,12.39,1.94,2.69,5.22,5.08,6.68,6.96.56.73.61,1.06.4,1.97-1.31.38-2.46,1.11-3.88.39-.73-.37-7.87-9.02-8.77-10.37-1.75-2.61-2.35-6.38-4.03-8.42-2.39-2.89-12.96-6.51-13.89-8.51l3.99-10.52c.48-1.04,3.17-.39,3.52.11Z"/>
  <path d="M225.41,502.54c-9.58,11.94-37.7,37.02-51.89,41.79-2.69.9-3.26-1.15-1.77-3.09,1.01-1.32,17.42-10.49,20.68-12.84,6.67-4.81,16.25-12.68,21.8-18.63,2.49-2.67,8.55-12,10.16-13.18.64-.47,1.48-.69,2.26-.81,3.39,1.7.26,4.9-1.24,6.76Z"/>
  <path d="M183.74,493.75c13.31-7.32,25.72-16.27,36.67-26.78,1.5-1.44,8.55-10.24,9.18-10.55,1.29-.63,2.41-.55,3.3.68-11.88,17.32-30.2,30.19-48.25,40.36-1.26-.69-2-2.51-.89-3.71Z"/>
  <path d="M236.01,223.6c2.89-.45,14.91-.94,16.27,1.79,4.64,9.32-17.6,4.57-21.6,6.53-4.28-4.47.91-7.63,5.33-8.32Z"/>
  <path d="M279.44,216.34c4.2.18,2.18,5.6.38,7.02-1.94,1.53-13.69,5.1-13.27-.82.3-3.57,9.96-6.33,12.89-6.2Z"/>
  <path d="M249.14,239.36c1.05,2.6.31,9.25-2.91,10.26-6.96,2.18-7.2-14.32-.55-13.09.45.08,3.37,2.63,3.46,2.84Z"/>
  <path d="M276.74,231.42c5.17-1.13,6.68,12.34,1.78,13.06-5.89.72-5.83-12.18-1.78-13.06Z"/>
  <path d="M357.79,427.85c-1.21,7.55-2.47,16.03-4.54,23.36-.28.99-1.15,1.01-1.29,1.5-.35,1.17-2.7,15.32-5.33,12.6l8.47-37.07,2.7-.38Z"/>
  <path d="M343.98,485.04c.89,1.12-2.12,17.14-2.67,19.88-.66,3.31-1.92,8.93-3.07,12.82-.24.82-1.24,5.31-2.46,4.75-1.32-.84-.82-1.49-.73-2.63.5-6.62,4.24-23.65,6.25-29.43.56-1.61-.2-5.37,2.68-5.4Z"/>
  <path d="M329.52,546.82c1.21,2.94-1.1,4.46-1.37,5.55-1.39,5.76-1.8,14.3-3.68,19.31-.41,1.1-.64,2.34-2.18,2.09l4.87-26.34,2.35-.6Z"/>
  <path d="M380.14,325.97c1.12,1.19-5.86,28.23-8.87,30.87-1.38-1.04-1.12-2.72-.94-4.21.66-5.44,4.09-13.73,5.8-18.66.91-2.61.4-8.54,4.01-8.01Z"/>
  <path d="M525.04,557.08c.59.92,3.89,2.84,1.71,4.52-5.04,1.35-12.18,5.14-17.39,4.96-6.87-.24-17.54-8.7-24.43-9.2-5.86-.43-13.94,6.49-18.31,6.56-2.83.05-7.22-2.95-10.06-3.78-4.19-1.22-8.52-1.74-12.64-3.14,12.61-13.4,31.86-17.27,48.92-22.49,13.64,7.65,23.24,8.65,32.21,22.56Z" fill="#fff"/>
  <path d="M508.34,569.84l-3.31,15.71-33.53.42-2.98-16.85c-5.62-1.64-.85,13.33-2.24,16.47-4.86-.56-30.99-7.46-31.58-11.5l6.4-13.52c5.67-1.29,20.24,7.14,24.87,7.32,4.08.16,11.88-5.77,16.59-6.46,7.52-1.1,17.72,8.37,25.79,8.4Z" fill="#fff"/>
  <path d="M529.38,564.57c1.25,4.5,3.34,8.9,2.56,13.73l-22.93,5.98,3.44-14.3,16.93-5.41Z" fill="#fff"/>
  <path d="M71.64,711.97c8.69-1.32,15.95.96,21.47,7.77,15.86,19.58-18.05,18.2-29.33,16.18-3.03-.54-16.24-3.07-16.08-6.7,4.33-7.22,15.46-15.96,23.94-17.25Z" fill="#fff"/>
  <path d="M451.66,746.15c7.92-1.16,16.66,1.09,21.47,7.77,13.45,18.73-26.91,14.13-35.9,12.23-3.37-.71-7.79-1.96-10.77-3.73-.81-1.65,9.22-9.07,10.94-10.16,3.77-2.38,9.86-5.47,14.26-6.12Z" fill="#fff"/>
  <path d="M461.52,623.24c2.17-.25,4.85-.39,7-.11,4.99.64,18.31,9.17,15.85,15.03-3.21,7.63-37.86,3.41-43.69-1.66-.58-.5-1.45-.87-1.31-1.84,5.64-4.62,14.8-10.57,22.14-11.43Z" fill="#fff"/>
  <path d="M552.24,684.03c-2.92,3.03-31.91,2.2-36.34-2.47.17-9.09,15.96-13.37,23.63-11.77,4.01.84,16.84,9.95,12.71,14.23Z" fill="#fff"/>
  <path d="M304.37,774.72c-2.43,2.7-17.33,2.52-21.18,2.13-2.17-.21-12.89-2.65-12.87-4.92,7.88-10.93,30.61-14.32,34.66,1.26-.05.58-.22,1.09-.61,1.53Z" fill="#fff"/>
  <path d="M59.88,536.21c-1.12,1.76-24.53,3.52-26.72-1.55,5.27-10.49,27.01-14.04,26.72,1.55Z" fill="#fff"/>
  <path d="M569.41,525.7c-9.02,3.15-18.45,5.41-26.92-.32,3.29-10.71,25.84-12.58,26.92.32Z" fill="#fff"/>
  <path d="M112.42,763.25c3.9-.34,10.25.76,11.64,5.11,2.11,6.61-13.62,5.23-17.44,4.26-12.84-3.25-.67-8.82,5.8-9.37Z" fill="#fff"/>
  <path d="M357.14,780.17c3.06-3.68,21.86-4.03,21.73.98-.1,4.08-24.08,2.93-21.73-.98Z" fill="#fff"/>
  <path d="M49.44,682.87c-.96,1.43-16.03,2.62-17.09-1.63,4.42-3.92,15.79-5.81,17.09,1.63Z" fill="#fff"/>
  <path d="M389.36,595.45c1.19-5.54,16.3-6.02,17.03-.88.65,4.55-14.35,3.16-17.03.88Z" fill="#fff"/>
  <path d="M195.85,600.31c1.88.03,8.25,1.44,7.43,4-5.15,3.48-12.87,2.67-18.38.03-.16-2.31,9.15-4.05,10.95-4.02Z" fill="#fff"/>
  <path d="M485.01,692.74c-.7-.09-4.23-1.09-4.26-1.64,1.58-3.58,17.84-2.45,15.76.98-.64-.18-1.37.67-1.64.67-3,0-7.06.37-9.86,0Z" fill="#fff"/>
  <path d="M42.22,774.91c1.9-1.21,15.15-1.96,14.46.97-.51,2.14-13.44,2.9-14.46-.97Z" fill="#fff"/>
  <path d="M568.14,563.3l-.35,1.98c-4.61,1.92-9.45,1.68-14.07-.07-1.33-1.33,3.72-2.48,4.33-2.56,1.6-.21,9.33-.29,10.09.65Z" fill="#fff"/>
  <path d="M143.72,80.54c.7,1.36,1.51,1.38,2.17,4.07,1.08,4.35.4,8.16,1.48,12.32,1.61,1.2,3.84-2.12,5.69-2.92,11.72-5.06,24.04-.08,23.27,13.74,3.31.28,6-1.04,9.38-.5,4.9.78,14.46,7.47,6.44,11.38l-151.6.32c-6.41-.34-7.4-4.11-4.83-9.47,2.9-6.04,9.72-7.04,15.7-5.67.69-14.56,15.26-24.42,29.37-17.86,2.04.95,7.48,6.24,9.43,5.08,2.04-6.5,1.27-11.78,6-17.69,13.9-17.34,37.77-11.64,47.5,7.21Z" fill="#fff"/>
  <path d="M467.99,58.85c-4.53,9.06-9.17,18.19-13.44,27.44.56,1.3,1.38,1.67,2.75,1.7,4.82.1,12.87-3.8,18-4.43.92-.11,1.81-.61,1.49.83l-24.89,35.61c-.11,3.67,10.71-.95,12.6-1.23.76-.11,1.26-1.34,1.12.46l-26.94,38.46c-.21-3.32,8.29-21.97,7.84-23.25-1.21-3.41-9.96,1.81-12.44.58l12.34-31.47c-.96-4.33-14.46,2.49-17.92,2.24-1.03-.07-1.11.26-.97-.98l19.39-47.67,25.29-8.56c.73.93-3.46,8.8-4.2,10.26Z" fill="#fff"/>
  <path d="M533.99,118.92c-14.04,18.32-29.24,36.17-46.01,51.93l16.45-37.79c.13-1.37-.1-.86-.99-.99-5.27-.81-10.79,2.6-16.12,1.66l19.16-38.03c3.62-4.56,24.5-9.38,30.8-11.6l-21.69,34.17c.64-.18,1.39.66,1.65.66h16.77Z" fill="#fff"/>
  <path d="M121.53,199.99c2.71,4.85,1.66,9.72,2.93,14.83,3.28.87,4.1-3.07,6.98-3.74,7.23-1.69,15.92,1.54,17.12,9.55,1.39,9.25-5.83,10.81-13.29,11.38-22.02,1.67-61.67,1.86-83.55-.01-10.6-.91-11.69-5.78-4.89-13.47,5.53-6.26,14.53-8.4,22.14-4.43,2.56,1.33,4.53,5.34,8.12,3.79.64-.42-.11-7.94.05-9.8,1.98-23.06,32.95-28.53,44.38-8.08Z" fill="#fff"/>
  <path d="M511.8,182.52c-3.35-3.3,2.87-11.12,7.48-11.63,3.59-.4,5.44,2.08,8.84.97,2.73-14.17,22.33-26.86,33.5-13.19,3.46,4.23,2.36,9.07,4.28,13.48,5.38-3.85,14.41-4,14.8,4.3.44,9.46-10.19,6.62-15.51,6.85-14.91.66-32.47,1.66-47.33.69-1.27-.08-5.31-.75-6.06-1.49Z" fill="#fff"/>
</svg>