<?xml version="1.0" encoding="UTF-8"?>
<svg id="Camada_1" xmlns="http://www.w3.org/2000/svg" version="1.1" viewBox="0 0 595.28 841.89">
  <!-- Generator: Adobe Illustrator 29.0.0, SVG Export Plug-In . SVG Version: 2.1.0 Build 186)  -->
  <path d="M.14,841.29V-.06h595v841.34H.14ZM590.54,3.89H4.74v223.81c11.07,3.37,16.21,9.5,18.73,20.69,7.6-4.83,20.13-3.78,26.67,2.28,2.29,2.12,3.21,5.45,4.71,7.78.49.76.81,1.71,1.84.81,5.64-28.2,12.11-60.62,34.51-80.53,1.2-1.06,8.06-4.97,8.09-6.24-4.12-6.36-5.58-13.17-3.35-20.56,4.61-15.31,22.62-11.67,20.61-30.75-.5-4.71-1.45-2.38-.09-8.67,6.03-27.93,23.17-18.86,37.31-35.87,2.1-2.52,3.91-6.71,6.15-9.33,17.62-20.53,45.4-22.38,69.45-12.93,1.8.71,4.71,3.09,5.96,3.3,2.05.34,5.72-1.18,8.36-1.24,16.6-.39,30,8.83,35.52,24.36,3.85,10.82,1.29,20.08,2.33,31.19,1.19,12.81,9.63,22.99.21,35.66-1.78,2.4-5.17,3.32-5.99,7.23-1.03,4.91,1.15,11.45.5,16.94-1.11,9.38-9.51,14.41-16.28,19.71,13.58,24.05,19.33,51.1,48.36,60.62,3.33,1.09,23.39,6.28,24.96,4.64,4.72-11.94,8.99-23.71,14.01-35.48,4.66-10.91,14.3-36.11,21.63-44.25,20.27-22.53,62.06-10.82,69.06,17.44,21.97-30.96,83.36-11.22,74.88,28.4-1.23,5.76-6.1,15.03-8.4,20.79-9.59,24-20.23,47.85-30.5,71.27-3.5,7.99-6.14,16.41-10.15,24.18l-3.64,1.15-90.92-25.52c-11.19,5.24-22.76,3.61-34.12.09-2.99,4.59-4.52,17-9.87,19.04-5.75,2.19-18.45-4.78-23.98-7.26-.08,3.8-6.36,3.99-7.16,4.7-.46.4-.07,2.09-1.25,3.2-7.47,7.05-35.59-2.52-44.03-6.49-5.1-2.4-9.55-6.07-14.68-8.37-2.79,7.21-7.06,14.41-11.54,20.71-1.24,1.74-8.46,9.02-8.7,10.3,4.29,16.66,8.98,32.69,9.76,49.83,1.14,25.14-2.9,68.74-12.86,91.72-3.8,8.77-16.31,11.9-23.95,16.1-.39,3.16,17.9,8.74,21.24,10.29,15.63,7.26,15.2,8.91,23.79,22.23,2.05,3.18,6.49,3.52,8.96,8.79,1.65,3.52,1.07,6.29,1.89,9.17,3.16,11.1,8.03,25.33,7.11,37.53-.59,7.78-3.78,16.36-5.17,24.08,12.75-3.68,25.77-5.66,38.83-2.25,6.45-14.96,24.99-23.76,39.61-29.42,5.41-2.09,17.64-4.64,21.49-6.78.24-.13.83-.71.66-.98-9.84-2.45-19.6-5.56-28.93-9.54-7.09-3.03-23.25-13.58-28.59-14.86-2.95-.7-8.86-.1-12.96-.79-7.52-1.26-31.06-10.42-33.04-18.23-.6-2.37.46-3.51.2-4.77-.23-1.08-4.4-4.61-5-7.51-.98-4.73,1.51-5.29,1.62-6.41.14-1.3-2.87-4-1.44-7.55,1.52-3.77,6.2-2.93,6.82-3.38.32-.24.35-4.44,3.71-5.16,4.62-.99,12.2,3,15.76,5.89-2.67-15.42-19.72-20.45-28.62-32.05-2.54-3.32-10.05-15.26-10.45-18.95-.78-7.2,2.91-7.25,3.26-8.63.44-1.71-1.17-3.61-.24-6.6.45-1.44,5-4.34,6.78-3.45-2.24-3.08,1.46-7.3,4.3-7.87,3.19-.63,5.04,1.21,6.58,1.27.21,0,1.03-2.24,3.32-2.57,8.67-1.25,17.76,15.65,23.59,20.85,2.1.43,2.94-7.37,6-8.98,1.74-.91,5.8-1.2,7.49-.4,3.92,1.86,3.65,11.4,3.34,15.16-.09,1.14-1.29.94-1.34,1.41-.6,6.05.16,11.9-2.34,17.9,8.55,10.72,17.35,21.24,27.97,29.99h1.3s41.42-33.9,41.42-33.9c-2.16-1.32-5.41-.41-8.03-.83-5.13-.83-8.42-2.02-12.34-5.41-1.04-.9-1.43-2.92-2.46-3.64-2.01-1.41-6.51-2-9.41-4.22-11.52-8.8-5.24-24.18,1.14-34.36,1.61-2.57,5.66-6.32,7.1-8.72.6-1,1.21-4.82,2.67-7.19.9-1.45,4.48-4.95,4.59-5.28.29-.89-1.56-3.14-1.7-4.95-.82-10.79,16.46-12.38,22.54-17.39.56-.46,7.21-8.68,7.42-9.23.52-1.39-1.5-6.2-1.58-8.27-.83-21.91,27.04-31.55,43.25-20.9,1.46.96,4.16,4.78,4.48,4.87,3.43.99,12.02-.23,17.31.94,18.39,4.08,39.24,23.33,40.75,42.73.81,10.44-4.36,20.12-1.01,29.93s9.49,11.56,8.13,23.93c-.69,6.3-3,7.99-5.5,12.23-5.85,9.94,7.45,26.99-9.22,38.12-1.95,1.3-8.67,3.2-8.9,4.93-.1.79,3.91,13.11,4.54,15.19,2.76,9.1,6.44,19.55,8.69,28.83,1.25,5.16,1.34,12.89,2.85,17.51.8,2.43,5.64,2.5,5.64,8.81v10.19c14.47-4.95,36.28-20.26,51.57-19.73,11.34.4,25.32,11.98,34.99,17.65,8.95,5.24,18.09,10.23,27.18,15.22v-82.82c-28.38.05-56.78-.05-85.17-.03-6.56,0-14.61.99-21.01.74-2.28-.09-4.64-.9-6.94-.99-2.28-15.86,16.05-23.97,29.62-19.43-.05-16.32,21.66-23.04,34.18-15.12,4.79-20.78,30.03-30.8,49.32-24.98v-111.08l-110.81-.63c-4.82-.4-2.42-5.85-1.45-8.74,3.67-10.98,14.82-14.21,25.47-11.66.84-11.42,13.6-18.31,24.37-16.15,2.95.59,5.23,3.31,8.51,3,.65-26.54,33.03-38.28,53.91-24.98V107.74l-186.27-.63c-4.63-15.65,16.32-30.89,30.79-23.71,3.82-13.96,14.05-21.37,28.91-19.69,5.49.62,8.69,3.8,13.48,5.9,8.33-33.17,67.71-36.21,69.7,2.63,13.08-7.88,31.59-2.79,35.5,12.49l7.88-1.97V3.89ZM590.54,105.77v-20.38l-9.4,3.3c-2.4-1.67-1.59-4.14-2.77-6.58-6.52-13.49-21.97-12.31-33.45-5.95-1.49-.45-1.06-8.65-1.79-11.26-4.83-17.38-27.02-21.31-42-15.98-11.99,4.26-20.12,13.62-22.69,25.96-1.13.37-6.87-5.74-9.06-6.71-8.7-3.85-23.35-.97-27.97,7.8-2.06,3.91-1.67,7.71-2.71,11.76-1.43,1.07-5.1-2.45-7.09-2.84-12.92-2.57-25.87,7.4-25.43,20.24l184.36.64ZM273.4,75.1c-5.08-8.21-16.02-14.85-25.71-15.36-4.06-.21-10.32,1.74-13.01,1.23-1.04-.2-8.21-4.7-10.83-5.66-19.1-7.01-43.06-4.53-58.06,10.03-4.5,4.37-7.59,11.03-11.55,15.4-10.76,11.84-31.37,10.56-35.02,30.06-2.04,10.88,4.1,17.99-5.44,26.77-9.64,8.88-19.99,10.63-15,27.66,3,10.24,8.63,2.56,15.76.05,12.01-4.23,24.77-6.34,37.51-6.55l5.87-16.8c-29.75-4.67-20-46.43,9.19-32.87-.71-1.68,4.11-5.21,4.61-4.6-.92,6.66-4.46,12.37-6.26,19.04-1.48,5.48-2.04,11.83-3.55,17.45-3.07,11.39-8.89,18.17-6.2,31.76,1.09,5.52,6.15,9.75,7.05,12.67,1.9,6.17-.07,13.86,3.45,20.22,3.12,5.66,10.19,6.72,13.76,10.57,8.04,8.66,5.77,18.16,22.97,19.1,13.13.72,12.73-5.84,20.49-9.14,5.82-2.47,10.46-1.18,15.37-6.99,5.26-6.22,5.46-14.52,9.07-20.51,7.74-12.81,12.29-13.07,13.27-30.77.07-1.19.56-13.26-1.29-12.15-.24,1.86-5,8.55-6.2,9.25-5.15,3.01-5.17-3.57-8.58-6.64-6.93-6.23-12.17-2.67-19.59-4.08-7.56-1.43-8.25-6.59-19.7-4.94-4.63.67-14.77,6.83-17.96,5.12-.37-.2-5.33-5.52-5.69-6.12-7.38-12.13-1.4-32.55.71-45.6.51-3.14-1.09-6.1,1.87-8.12,13.67,3.34,34.01-.46,44.92-9.52,2.77-2.3,4.01-6.68,7.87-6.26,2.23,14.14,18.35,22.77,31.47,24.42l-8.78,84.69c5.89-3.66,11.3-8.03,12.17-15.44.59-5.02-.75-10.53-.64-15.11.17-7.04,10.16-11.82,11.1-19.13,1.36-10.61-4.82-18.19-5.2-28.88-.41-11.71,2.75-23.07-4.18-34.26ZM236.16,84.08c-1.48-1.19-5.03,3.74-6.25,4.59-7.61,5.36-19.67,9.18-28.94,9.85-2.45.18-14.06-.67-14.48-.02-1.18,12.39-5.88,23.15-5.57,35.88-.6,3.32,4.76,15.74,7.26,17.06,2.66,1.41,6.02-1.73,8.56-2.6,7.29-2.5,11.9-4.19,19.85-2.14,5.49,1.41,13.85,9.93,17.25,1.11,2.54-6.58-1.56-23.38.01-25.62.46-.67,1.26-.88,1.98-.64,2.25.76,3.27,26.68.99,30.23,6.92-.71,11.08,5.58,15.46,9.86,12.68-12.69,10.22-33.66,12.76-50.32.15-.99,2.43-1.7,1.39-5.11-11.99-3.72-26.6-8.64-30.27-22.13ZM161.64,128.57c.59-2.13,4.14-16.54,3.6-17.25-24.67-11.17-31.71,24.28-6.73,27.25,1.49-2.86,1.3-6.42,2.11-9.28.14-.5.98-.56,1.02-.72ZM151.36,161.64c-23.65-.09-51.54,8.81-66.29,28.03-10,13.02-18.09,36.19-21.87,51.81-2.03,8.39-2.64,17.25-5.05,25.58,14.66,15.64,35.06,25.1,55.73,29.98-14.65-17.57-28.88-37.57-32.23-60.74,1.46-4.39,3.61,7.25,3.86,7.91,15.08,39.58,43.19,68.75,80.51,89.12,4.04,2.2,37.52,18.76,39.24,16.97.23-1.93-.34-4.27.03-6.1,3.69-18.48,10.54-36.98,21.51-52.91,2.12-3.07,5.81-6.49,8.04-9.67-.06-1.49-13.72-4.88-15.95-5.74-34.24-13.11-52.6-28.28-73.68-57.87-6.46-9.06-11.78-19.36-18.18-28.4l1.64-1,36.52,49,1.45.2,15.65-12.04c-3.47-12.37-14.71-9.57-19.9-21.56-2.6-6-1.46-11.9-2.92-17.46-.88-3.37-5.95-9.12-7.02-12.67-1.22-4.03-1.17-8.26-1.08-12.42ZM422.51,181.07c-7.13-10.55-16.29-13.64-28.92-12.89-24.96,1.5-29.43,24.77-37.59,43.24-7.9,17.88-16.39,36.29-24.03,54.25-1.13,2.66-10.48,23.73-9.66,24.77l63.74,17.78c11.29-30.97,26.4-60.16,36.07-91.76,3.76-12.3,8.78-22.96.38-35.39ZM429.72,183.74c-1.08-1.3-1.89-2.94-3.54-3.69,4.51,9.43,4.27,20.4,1.31,30.23,7.9-8.94,10.37-16.69,2.23-26.54ZM491.03,187.51c-3.83-3.13-15.52-6.17-20.44-6.17-27.3.03-37.57,26.62-48.31,46.55l-33.31,81.01,63.99,16.9c4.2-11.69,9-22.82,14.03-34.14,8.09-18.19,32.94-65.91,32.87-83.69-.03-6.2-3.93-16.46-8.84-20.47ZM505.49,198.67c-1.22-1.78-4.6-4.58-6.33-6.14,8.7,17.66-1.62,37.77-8.47,54.28-9.57,23.11-22.17,46.22-31.17,68.8-2.95,7.4-6.68,14.37,1.94,19.47l13.97-28.71c8.24-26.33,24.49-52.18,32.44-78.51,2.98-9.88,3.77-20.23-2.38-29.2ZM258.34,194.03l-2.13-.25c-1.21,2.29-5.79,5.91-6.79,7.69-4.2,7.44-2.23,14.24-10.6,21.64-5.3,4.69-9.11,3.15-13.81,5.26-2.27,1.02-6.37,6.19-10.09,7.66-7.17,2.83-19.73,2.24-26.05-2.47-1.83-1.36-3.79-5.2-5.51-4.81l-15.11,11.09c-.72-.06-.61,1.3-.48,1.65.28.77,10.72,9.67,12.2,10.83,12.69,9.84,28.85,15.88,43.69,21.71l20.73-44.02c2.97.71-1.38,7.17-1.59,7.74-2.69,7.34-4.85,14.86-8.98,21.5,2.92,4.52,13.46,22.86,18.48,23.29,7.11-1.27,14.33-1.73,21.47-2.79,6.12-.91,17.29-5.9,22.19-.75,4.54,4.76-3.24,10.97-7.21,13.1-3.11,1.66-7.39,2.24-10.25,3.56-.77.35-1.18-.28-.9,1.37,6.05,2.78,11.41,6.81,17.16,10.13,6.99,4.03,17.36,5.4,9.14,16.51,1.52,2.33,13.61,7.64,15.11,6.24-1.32-7.82-2.69-15.06-2.02-23.41.28-3.49,1.44-11.71,2.1-15.62,1.77-10.5,9.1-20.34,11.76-30.63-12.25-2.3-26.19-4.9-36.92-11.41-9.72-5.9-16.13-16.22-21.59-25.88-5.05-8.96-9.3-19.68-13.99-28.92ZM427.16,210.94v.66l.33-.33-.33-.33ZM4.74,231.31v55.21l42.74-.65c-.83-8.45,5.17-15.62,7.88-23-3.51-.28-3.45-5.07-5.99-8.15-4.09-4.96-11.41-7.85-17.85-6.82-2.35.38-9.38,4.61-10.34,4.16-2.24-2.06-1.08-6.17-2.03-9.06-.13-.39-4.13-6.31-4.55-6.76-2.32-2.45-6.6-4.09-9.86-4.94ZM235.11,267.21c-.48-.66-2.32-4.41-2.56-4.34l-6.25,12.48,20.72,7.88c-4.33-5.12-8.01-10.61-11.91-16.02ZM56.67,269.44c-2.97-1.75-6.88,14.48-5.06,18.55,1.45,3.26,14.73,13.09,18.3,15.22,20.07,11.96,46.93,18.64,70.27,18.15.27-1.13-.4-1.32-1-1.95-1.77-1.87-19.36-17.29-20.75-18.04-3.76-2.03-12.43-2.91-17.18-4.52-16-5.42-34-13.95-44.59-27.41ZM590.54,336.48v-52.91c-12.06-8.98-32.14-8.32-42.76,2.61-1.15,1.18-5.33,6.83-5.88,8.07-2.36,5.32-1.66,10.71-3.65,15.95-6.99-4.11-12.74-7.43-21.17-4.75-8.18,2.61-9.39,8.63-10,16.3-1.94,1.37-6.66-2.28-9.56-2.34-8.3-.17-18.37,7.69-17.44,16.43h108.81c.22,0,.95.89,1.64.66ZM273.73,294.5c3.8-1.77,21.84-6.58,19.3-12.55-1.92-4.53-12.86-.11-16.62.45-7.59,1.13-27.23,4.85-33.37,2.83-1.41-.46-3.3-2.53-4.29-2.37-7.47,6.21-12.34,14.75-16.87,23.2-.71,1.32-2.96,1.93-2.16,4.78,11.32,1.12,18.38,8.68,27.6,13.49,7.95,4.15,21.7,8.9,30.6,9.5,1.68.11,11.54.02,12.15-.65.13-.15-.08-1.43,0-1.96-9.33-.45-19.14-4.68-26.95-9.54-.35-1.69,1.97-.99,2.79-.81,3.46.76,8.71,3.97,12.64,5.11,4.97,1.44,18.73,5.41,20.08-1.33-9.35-1.81-18.83-5.82-26.64-11.17-.61-.36.51-1.29.68-1.32,1.33-.25,19.55,9.39,25.16,9.72,3.41.2,7.11-1.33,6.03-5.3s-20.31-12.09-24.91-15.31c-1.61-1.13-6.59-4.43-5.21-6.77ZM47.47,289.16H4.74v109.77c7.66-20,13.36-40.82,20.95-60.86,4.83-12.77,10.87-25.68,16.71-37.91,1.73-3.62,2.96-7.55,5.08-11ZM155.29,329.92c-4.02-.81-6.3-5.02-10.34-5.78-4.81-.9-11.2.28-16.27-.17-27.74-2.47-58.7-12.44-78.25-32.84-4.11,4.56-5.72,10.96-8.28,16.54-14.91,32.59-26.05,66.92-37.37,101.48l.61,101.84c37.25,14.31,77.55,10.82,115.59,1.85,28.87-6.8,56.63-19.22,86.6-20.56,11.8-37.38,16.47-78.62,9.2-117.7-1.34-7.23-3.9-13.94-5.61-21.02-12.23,1.12-22.89-7.11-33.92-11.19-1.61-.15-6.4,9.11-7.62,10.78-24.21,33.09-54.88,60.05-90.7,80.19-4.37,2.46-41.55,21.18-43.3,19.47l.41-2.02c38.45-15.35,73.9-37.78,103.82-66.31,12.37-13.69,23.94-27.94,34.48-43.08l-17.07-9.53c-.41,1.4-1.68,3.22-2.66,4.26-15.56,16.46-45.22,37.18-65.94,46.47-2.05.92-17.51,7.13-18.2,6.44-.12-.12.04-1.42.01-1.94,16.36-5.9,32.02-13.84,46.31-23.71,9.43-6.52,30.68-22.53,37.44-30.93.6-.75,1.11-1.55,1.04-2.56ZM457.06,336.48c-2.07-3.86-3.98-7.41-8.67-8.08l-124.11-34.32,7.71,7.41,125.08,35ZM326,299.25c-1.35-1.21-2.98-2.31-4.36-3.52l-.27,11.91c13.93,4.73,27.3,9.26,42.34,6.49.28-1.67-.15-1.03-.92-1.38-8.75-4.06-22.84-5.13-31.77-8.98-3.16-1.36-3.14-2.81-5.02-4.51ZM326,329.68c3-2.96,3.56-11.21,5.4-15.15l-11.08-4.34,1.98,21.03c1.34.13,2.79-.65,3.7-1.55ZM228.67,325.05c.81-1.53,3.6-6.19,2.61-7.65l-11.54-4.34c-.82-.37-1.06-.11-1.65.39-2.31,1.95-8.32,24.7-8.81,28.7-.26,2.12-1.01,6.6.25,8.12,2.39-.02,17.36-21.86,19.14-25.22ZM460.78,370.89c-7.46-10.06-23.26-19.56-35.67-21.19-2.74-.36-9.74.36-11.6-.17-1.65-.47-6.2-6.48-10.71-7.75-17.54-4.96-37.3,5.12-33.16,24.95,4.1-1.5,6.88-4.15,11.32-5.44,3.86-1.13,7.91-1.57,11.92-1.71,1.61.64.85,6.66,2.27,9.58,3.19,6.53,16.05,11.94,23.14,10.72-4.85,19-19.54,42.28-41.1,44.02-10.32.84-7.1-3.67-12.79-9.54-4.39-4.53-17.78-12.3-23.94-9.42-5.43,2.53-3.48,7.66-4.67,10.4-.67,1.55-3.8,2.84-4.96,4.3-7.51,9.44-17.99,30.06-2.83,37.7,2.16,1.09,5.11,1.11,6.5,2.04,1.01.68,1.85,3.29,2.93,4.31,6.07,5.73,19.74,6.26,26.95,2.64,2.47-1.24,4.94-5.16,7.03-5.46,4.85-.7,8.8,1.54,15.11-1.32,15.59-7.06,24.29-41.92,34.49-54.91.91-1.16,1.78-1.91,3.18-2.4l-.65,4.6c31.81,4.35,9.8,43.1-14.1,27.62-6.79,4.62.07,19.34,4.24,23.97,6.09,6.75,18.03,10.39,25,16.41,6.43,5.56,10.73,13.49,15.1,20.42,10.16-1.58,16.6-10.36,16.48-20.39-.05-4.03-2.1-8.94-1.85-12.97.56-8.97,11.25-15.18,7-26.93-5.47-15.14-12-11.27-8.43-31.55,2.21-12.56,2.24-21.09-6.22-32.5ZM390.01,362.77c-8.79.22-16.31,4.77-22.04,11.16-1.86,2.07-2.72,5.23-4.31,6.86-6.18,6.37-19.07,6.07-23.59,14.66.71,6.76,7.52,5.94,12.79,8.07,8.87,3.58,15.82,9.46,20.5,17.79,21.04-1.62,36.26-19.02,40.32-38.82-10.1-1.11-23.45-8.52-23.68-19.72ZM414.58,422.16l-3.91,9.64c13.82,12.45,36.23-9.76,19.66-20.28-10.83-6.87-10.93,4.18-15.75,10.64ZM258.29,438.59c-1.89-2.06-6.05-6.5-9.06-5.8l-1.92,1.97,11.75,16.51.11,2.2c-1.81,1.87-8.02-6.85-9.19-8.41-1.71-2.29-4.75-8.51-5.97-9.62-1.31-1.19-5.55-2.88-6.45-.6-2.23,5.66,14.57,22.43,11.74,25.86-4.66-.33-13.68-25.56-18.41-17.89-3.36,5.45,10.52,17.17,10.52,23.15-2.26,2.26-10.41-15.06-13.79-13.79-3.19,2.02,4.91,15.92,6.42,18.23,8.1,12.4,16.45,13.78,24.26,22.06,2.03,2.15,4.6,8.54,6.58,11.46,4.73,6.95,8.05,10.93,16.63,13.31.34-2.7-1.54-2.82-1.88-5.65-.73-6.02,2.67-13.35,9.81-11.14,5.25,1.62,10.17,18.26,12.92,23.2.85,1.54,2.89,3.54,3.51,5.73,10.25,4.72,21.23,7.63,32.18,10.22-3.08-12.28-11.66-22.02-17.85-32.77-3.3-.84-4.63,4.53-7.77,2.87l-32.22-33.87c-.27-.63,1.69-.99,2.31-2.6,1.54-3.99,4.53-27.67,1.53-29.49-5.61-3.41-8.82,9.14-9.03,12.66-4.3,1.84-2.89-.97-4.37-2.88-3.24-4.19-8.88-11.1-12.37-14.91ZM404.47,444.28c-1.55-.36-1.07.28-1.48.85-4.44,6.21-6.06,11.91-13.72,15.83-6.94,3.56-10.98,1.82-17.03,3.35-3.03.77-6.01,5.41-9.84,5.62,2.28,2.91.48,7.07,2.59,10.87,5.1,3.56,20.25-10.72,24.81-13.39,6.12-3.58,13.52-6.32,20.61-7l.09-1.43c-3.61-4.15-6-8.97-6.03-14.69ZM590.54,452.82c-19.48-5.42-45.38,4.46-46.7,26.93-3.18-.07-4.97-2.92-8.08-4.05-13.16-4.78-27.14,4.42-26.81,18.46-7.22-1.62-13.45-3.55-20.56.14-3.39,1.76-10.88,9.31-7.97,13.07h110.12v-54.56ZM353.19,531.37c-.31,3.02.23,6.45,0,9.53,4.24-1.55,8.28-7.77,11.06-11.59,8.57-11.79,21.04-38.78,32.89-45.37.91-.5,1.54-1.14,2.73-.88.4,1.69-.36,1.68-1.08,2.52-9.18,10.62-14.97,17.47-22.47,29.43-3.6,5.75-7.16,11.85-10.55,17.53,7.38,5.56,41.07,28.24,48.65,27.06,1.72-.27,8.22-8.01,9.68-9.93,5.46-7.14,10.42-17.04,13.85-25.08.31-.73,2.98-12.11,4.66-9.98-1.23,12.8-8.93,27.24-16.82,37.4-1.1,1.42-8.47,10.2-9.1,10.63-3.68,2.53-11.33-4.28-15.52-3.06-2.63.77-4.55,4.97-6.51,6.65-2.69,2.31-7.57,5.18-10.22,7.52-.68.6-1.21.93-.98,1.97,28.33,3.38,59.94-.92,85.37-14.17-5.04-19.27-8.3-39.62-15.33-58.18-3.98-10.53-11.21-21.87-20.43-28.85-1.87-1.41-18.1-11.49-19.21-11.7-8.4-1.58-23.57,7.22-29.76,12.66-11.61,10.2-29.36,41.02-30.89,55.88ZM360.42,472.55c-2.76-3.44-8.13,17.06-8.34,18.27-2.01,11.35-1.69,22.86-.85,34.31,4.89-12.4,9.82-25.52,17.44-36.8.92-1.35,4.1-3.44,4.89-5.6-10.39,4.47-14.05.46-13.14-10.18ZM348.37,499.3c.24-1.97.06-3.93.4-5.87.98-5.53,2.63-10.91,4.09-16.28-2.94,4.17-31.31,24.71-31.11,27.17.13,1.54,10.09,14.49,11.67,16.75l8.94,18.49,8.18,2c-.89-6.89-1.27-13.83-1.92-20.74-.87-9.19-1.43-11.92-.27-21.51ZM203.95,495.55c-7.17,1.92-19.08-2.21-16.43,9.2,3.71-1.98,8.42-3.36,12.04-5.37,1.16-.65,4.43-2.25,4.39-3.82ZM185.54,498.18l-48.49,13.29c-2.44,8.18-4.44,16.77-4.01,25.4l19.63,2.72c1.07-7.37,6.64-15.2,12.84-19.7s12.71-6.01,19.76-7.87l.27-13.84ZM294.92,515.03c-2.23-4.46-3.28-13.59-9.95-11.17-3.12,1.43-1.01,12.79.52,15.62-.55,3.12-12.82-3.06-14.5-3.87-4.71-2.26-18.36-11.9-22.82-9.73-4.93,2.39,5.61,9.54,7.77,10.97,2.31,1.53,12.84,6.31,13.45,7.59.56,1.18.1,1.28-.7,1.99-6.95-2.65-13.6-6.31-19.7-10.53-1.6-1.11-5.71-6.88-8.26-4.98-4.44,3.3,6.2,11.19,8.37,12.76s13.2,6.93,13.37,7.68.01,1.51-.66,2c-2.38,1.73-18.23-11.04-21.71-12.19-1.1,10.05,12.21,14.07,19.06,18.73l-.33,1.65c-3.15,1.02-9.85-4.75-13.04-6.03s1.81,4.76,2.51,5.38c7.26,6.45,20.85,11.17,30.34,12.39,3.31.42,8.09-.55,10.94.24,2.05.57,9.83,6.36,12.61,7.77,14.25,7.21,48.9,22.25,64.17,19.4,9.87-1.84,25.38-16.11,32.82-23.04l-34.6-22.57c-2.41-.45-6.09,6.96-8.45,8.43-3.42,2.12-13.89,0-18.22-.84-5.78-1.1-32.92-9.08-36.05-12.6-1.41-5.48-4.59-10.36-6.95-15.06ZM131.36,522.24c.64-2.74,1.12-5.55,2-8.23l-.73-1.35c-22.81,6.34-46.46,10.7-70.27,10.59-4.99,8.34,4.81,14.85,10.6,19.48,6.12-1.22,12.72-.45,18.81-1.24,6.95-.91,15.42-6.59,21.93-7.65,4.61-.75,10.02.01,14.66.23,1.07-.84,1.5-8.98,2.01-11.04.13-.5.94-.63.97-.78ZM4.74,513.95v21.69c1.87-3.04,8.23-15.2,7.9-18.09-.24-2.11-6.02-2.86-7.9-3.6ZM57.95,523.85l-42.07-6.34c-1.07,11.29-18.43,27.29-1.09,33.18,10.53-12.58,26.96-18.87,43.21-18.99l-.05-7.85ZM218.19,527.33c-2.86-2.23-19.42-10.46-22.34-10.1-1.45,2.58-5.25,1.96-7.67,2.97-9.35,3.91-16.67,11.36-21.7,20.03l23.01,1.31-1.65-1.96.68-1.31c5.43,1.74,10.26,3.32,16.1,2.63.48-4.98-.88-7.34-4.91-9.88-2.5-1.58-5.13-.22-4.29-3.92,6.96,1.4,14.3,5.64,13.15,13.8l7.82-1.37c.48-5.91-2.99-8.95-7.47-11.8-1.73-1.1-4.88-.66-4.62-3.27,8.24-.86,14.96,6.72,15.76,14.45,1.72-1.07,5.4-1,4.96-3.55-.24-1.37-5.6-7.1-6.82-8.04ZM129,536.3h-15.45c-1.5,0-15.43,7.11-19.22,7.73-5.75.93-12.65-.47-18.58,1.48,6.86,5.7,12.09,13.07,13.79,21.95-.67,5.26-15.66,9.14-20.24,10.05-27.02,5.37-43.74-4.95-64.56-20.18v40.1c12.91.23,24.66,3.32,37.79,2.62,4.52-.24,10.21-1.98,14.48-2.02,12.59-.1,24.86,5.06,38.25-.48,6.26-2.59,11.97-10.01,18.13-12.11,6.13-2.08,13.83-1.34,20.4-3.93,5.7-2.24,10.26-7.19,16.89-9.41,14.62-4.89,19.5-2.15,33.18-1.61,5.22.21,10.62-1.21,15.76-1.91,3.18,2.79-1.15,3.15-3.42,3.68-2.43.56-12.43.69-13.15,1.65-.99,6.61-4.19,13.58-5.23,20.07-1.22,7.61.56,16.4-3.8,22.5-1.65.35-1.03-2.76-1-3.63.27-7.91,1.59-15.34,3.25-22.52,1.31-5.69,2.76-11.38,4.65-16.9l-1.09-.86c-11.18-1.97-23.69-.33-33.87,4.67-1,.49-7.56,4.58-7.94,5.03-1.61,1.9-4.7,15.53-6.03,19.15-.8,2.19-2.93,7.9-3.98,9.8-1.32,2.38-2.93,4.16-2.51.14.66-6.26,4.3-12.66,6.22-18.14.39-1.12,2.21-7.97,1.88-8.28-6.41.94-14.43,1-20.39,3.6-5.59,2.44-9.82,9.01-16.13,10.82-6.27,11.97-6.26,29.1-15.08,39.48-6.99,8.21-13.24,11.63-18.73,22.17-7.72,14.81-14.56,29.91-22.55,44.4-1.14,2.07-7.89,16.58-8.78,16.94-.25.1-2.13.21-2.23-.37-.11-.45,2.83-7.26,3.36-8.33,4.9-9.96,11.49-19.92,16.56-29.64,6.43-12.32,10.97-27.2,20.21-37.6,3.85-4.34,10.48-8.48,13.06-13.9l9.94-31.13-38.8-.34c-5.7,15.25-7.8,35.26-18.37,48.02-2.62,3.17-11.51,11.6-14.83,14.1-.68.51-4.1,2.68-4.58,2.63-1.23-.95-.82-.76-.47-1.76.58-1.67,9.56-8.72,11.56-10.81,14.66-15.34,15.54-25.27,20.73-44.98.36-1.37,3.06-4.09,2.02-6.87-15.18,2.36-30.27-.11-45.36-1.97v155.78c9.32-23.88,47.31-26.1,60.91-5.37,2.73,4.16,5.17,8.66-.77,11.27-13.98,6.12-47.57,5.18-60.14-4.58v80.85h585.8v-164.98h-116.04l-7.56,18.4c15.64-3.32,34.8-3.15,49.98-7.53,9.21-2.66,11.88-8.1,23.91-6.2,7.43,1.17,11.97,19.1,13.23,25.55,1.48,7.59,4.53,25.81,3.65,32.6-.07.5-2.67,8.05-3.21,9.29-3.22,7.38-12.61,11.7-20.25,12.62-6.57.79-33.25-.57-37.24-5.81-2.56-3.37-.24-10.87,2.78-13.53,2.09-1.84,4.44-2.38,6.51-4.01l-.92-11.43c-24.26,8.02-49.06,18.52-73.8,24.81-27.05,6.87-38.07-.93-45.52-27.08l-48.3-22.04c1.81,11.64,5.22,22.76,9.43,33.93.65,1.72,3.58,5.93,3.9,7.3,1.95,8.19-8.68,10.51-14.83,11.85-17.71,3.87-59.44,8.36-75.93,2.64-7.45-2.58-10.24-5.24-6.94-13.19,6.39-15.41,31.99-20.36,45.91-26.41l.63-1.89-7.99-31.85c-4.85-1.63-10,.11-9.81-6.62-5.13,1.16-12.72-.34-17.34.58-.97.19-1.54.32-1.55,1.5,0,1,6.19,17.84,6.83,18.84,2.04,3.2,20.46,14.37,20.02,16.78-.15.8-1.81,1.41-2.62.67l-18.69-14.84c-8.22-10-11.42-39.13-17.54-52-.67-1.4-9.32-12.88-10.13-13.02l-10.21,36.45c.11,4.07,4.29,9.36,5.47,12.36,3.01,7.61,5.26,15.57,8.17,23.2l-2.03.89c-1.81-.59-11.53-31.42-14.83-34.59-.93-3.85.96-4.34,1.22-5.31,4.9-18.77,20.06-60.93,18.29-77.84-.95-9.1-5.52-17.67-6.39-26.81-5.85,2.63-22.23,6.56-25.11,12.03-2.11,4-3.62,11.04-5.48,15.55s-6.3,10.35-6.83,14.2c-.8,5.82,1.18,23.46,1.88,30.23.12,1.19,1.26.68,1.42,1.89.29,2.31-.3,5.19-.05,7.6-1.53.16-1.71.15-2.48-1.13-1.07-1.8-3.37-26.96-3.46-30.72-.31-13.39,2.28-12.26,6.53-22.41,3.1-7.39,2.93-17.52,10.55-21.7,3.14-1.72,20.77-7.33,21.59-8.97,2.21-4.47-4.46-11.6-8.63-12.92-13.61,7.44-33.29,6.96-48.77,6.52-11.15-.32-25.05-1.32-36.12-2.67-7.74-.94-21.17-.51-16.78-11.82ZM75.75,567.85l8.23-4.62c-.97-10.47-11.52-15.28-18.45-21.65-15.55-1.33-31.92,4.48-41.76,16.77-.1.9,7.75,5.34,9.1,6.03,4.79,2.45,9.61,4.44,14.92,5.46,1.92-.39-3.6-8.5-3.61-9.55-.04-3.5,5.42,2.93,5.75,3.44,3.65,5.66.37,7.82,10.7,6.76.16-2.53-.46-5.63-1.72-7.82s-6.8-4.56-4.22-6.34c4.4-3.06,10.16,9.73,8.57,13.5,6.9.17,11.6-.42,9.09-8.78-.26-.86-11.27-9.78-6.23-9.55,3.88.18,12.23,11.62,9.64,16.35ZM590.54,637.52v-41.08c-15.49-7.83-29.56-18.78-44.9-26.76-15.93-8.29-19.33-8.05-36.15-1.68-10.62,4.02-21.11,9.73-31.31,14.74,1.64,5.76,2.79,11.58,3.93,17.46.1.53,1.1.29,1.3,1.46,1.35,7.87.23,16.7.62,24.68,17.2-7.15,29.73-6.64,46.66.34,5.21,2.15,26.05,14.57,28.66,14.77s11.31-4.59,14.41-4.59h15.78c.14,0,.75.99.99.66ZM369.63,583.62c24.93,14.9,59.42,14,86.14,4.3,3.39-1.23,16.68-6.89,17.59-10.02.66-2.27.08-13.19-2.78-13.34-1.07-.06-13.53,5.84-16.29,6.76-19.08,6.35-42.54,9.18-62.63,8.35-3.47-.14-9.4-2.08-12.36-1.8s-6.15,3.79-9.27,4.4l-.4,1.35ZM474.03,582.48c-1.28-.32-9.61,4.93-11.91,5.87-24.22,9.93-61.01,13.26-85.25,2.17-4.17-1.91-9.68-7.14-13.46-7.58-17.92-2.06-56.08,12.96-69.4,25.33-9.1,8.45-9.89,18.2-10.54,30.21-.27,5.07.05,34.97,2.14,37.67,16.15,4.43,32.44,9.68,47.84,16.26,29.98,12.82,93.65,54.07,119.93,17.34,15.72-21.96,29.02-66.39,28.03-93.63-.17-4.6-3.77-32.76-7.39-33.66ZM282.83,621.12c-10.8-3.33-23.28-2.04-34.03,1.1-3.79,1.11-7.88,2.68-6.11,7.6,9.24,7.44,10.75,15.56,14.41,25.85.31.87,1.16.88,1.35,1.44,1.06,3.1,2.21,13.85,5.28,14.96,3.54,1.28,13.4-1.53,17.8-.36-.18-2.19.27-4.63-.03-6.77-1.64-11.54-1.34-21.01,0-32.48.44-3.76.31-7.62,1.32-11.34ZM590.54,640.15c-4.09-.29-8-.89-12.15-.64-5.72.35-15.21,4.78-19,4.56-4.01-.23-19.59-10.04-24.59-12.28-17.71-7.94-32.27-11.01-50.66-2.04l-8,39.99h114.4v-29.58ZM340.3,722.07c-1.21-3.98-5-24.87-6.46-26.09l-37.85-13.75,7.77,32.76-5.14,2.72c11.75,4.35,16.41,15.01,20.32,26.02,5.61-.41,23.06-1.45,26.15-5.84,1.63-2.32-2.66-11.53-3.65-14.64-.25-.78-1.09-1.01-1.14-1.17ZM537.75,686.35c-4.99-5.02-22.75.89-29.39,1.14,5.12,8.12,9.19,19.62,4.96,28.96-1.4,3.09-11.68,10.88,1.28,11.18,15.36.35,16.52-20.23,27.32-27.48.34-1.25-3.28-12.91-4.17-13.8ZM504.69,693.12c-.7-1.21-1.29-2.44-1.92-3.69l-25.31,2.65c2.99,6.72,6.22,13.47,6.6,20.67.25,4.75-.3,9.46-.69,14.16.8.89,21.68-7.38,22.39-8.34,3.78-5.09,1.98-20.19-1.08-25.45ZM475.27,694.27c-1.57-1.68-7.7-1.39-9.37-.27-1.41.95-3.67,8.15-4.87,10.07-4.8,7.68-13.21,17.25-21.91,20.34-16.07,5.7-33.14.31-49.1-2.75-.69.65,6.47,16.09,7.34,17.3,7.63,10.61,23.3,8.01,34.07,5.37,15.71-3.85,31.63-10.59,47.16-15.29l1.36-1.27c2.56-6.09.09-28.41-4.68-33.51ZM532.68,742.7c-6.35,7.87-2.98,9.51,5.64,6.61,11.09-3.72,9.39-17.78,8.86-27.35-.07-1.18-.73-10.13-1.99-9.5-5.71,8.81-10.27,19.74-21.55,22.17-7.11,1.54-15.88-.8-21.52,4.78-3.52,3.48-2.51,7.22,2.29,7.88,1.27-4.08,3.5-8.67,8.55-7.88-.05,2.1-3.49,2.74-4.25,4.61-2.28,5.63,1.86,5.69,6.22,5.24-.65-3.65,3.56-10.2,7.51-9.15l.72,1.27c-3.41,2.19-6.1,3.86-5.6,8.54l7.53.64c1.55-1.74-.38-2.72,1.4-5.2.83-1.17,4.95-3.68,6.19-2.67ZM302.85,739.14c-2.59-5.85-11.17-17.11-18.3-16.81-1.68.07-18.64,8.2-20.6,9.64-1.86,1.36-6.6,7.37-5.12,9.42,3.38,2.39,2.94-3.6,5.34-5.88,1-.95,11.41-7.21,9.39-1.45-3.25-.61-12.46,7.66-9.11,10.27,4.83,2.21,3.4-1.05,5.37-3.83,1.32-1.86,13.66-7.91,13.04-4.06-.3,1.84-14.17,3.94-12.49,10.19l24.02.69c8.53-2.27,12.95,1.91,8.47-8.18ZM63.53,752.93c-7.64-13.33-18.87-15.59-33.5-14.21-10.15.96-17.25,8.37-21.83,16.79,10.15,5.74,24.55,6.95,36.34,6.26,2.8-.16,18.62-2.43,20.04-3.63,2.33-1.96-.47-4.21-1.05-5.22Z"/>
  <rect x=".14" y="841.29" width="595" height=".66" fill="#fff"/>
  <path d="M590.54,3.89v78.88l-7.88,1.97c-3.92-15.27-22.43-20.37-35.5-12.49-1.99-38.84-61.37-35.8-69.7-2.63-4.79-2.1-7.99-5.28-13.48-5.9-14.85-1.68-25.09,5.73-28.91,19.69-14.47-7.19-35.42,8.06-30.79,23.71l186.27.63v172.21c-20.88-13.3-53.26-1.56-53.91,24.98-3.28.32-5.55-2.41-8.51-3-10.78-2.16-23.53,4.73-24.37,16.15-10.65-2.55-21.8.68-25.47,11.66-.96,2.89-3.37,8.34,1.45,8.74l110.81.63v111.08c-19.29-5.82-44.53,4.2-49.32,24.98-12.52-7.92-34.24-1.2-34.18,15.12-13.57-4.53-31.91,3.57-29.62,19.43,2.31.09,4.67.91,6.94.99,6.4.25,14.45-.74,21.01-.74,28.39-.02,56.79.08,85.17.03v82.82c-9.08-5-18.23-9.98-27.18-15.22-9.67-5.67-23.65-17.25-34.99-17.65-15.3-.53-37.11,14.78-51.57,19.73v-10.19c0-6.32-4.84-6.38-5.64-8.81-1.51-4.62-1.6-12.35-2.85-17.51-2.25-9.28-5.93-19.73-8.69-28.83-.63-2.08-4.64-14.4-4.54-15.19.23-1.73,6.95-3.63,8.9-4.93,16.68-11.13,3.37-28.18,9.22-38.12,2.5-4.24,4.8-5.93,5.5-12.23,1.36-12.36-4.94-14.57-8.13-23.93s1.82-19.49,1.01-29.93c-1.51-19.4-22.37-38.65-40.75-42.73-5.29-1.17-13.89.05-17.31-.94-.32-.09-3.02-3.92-4.48-4.87-16.22-10.65-44.09-1.01-43.25,20.9.08,2.06,2.1,6.88,1.58,8.27-.21.55-6.86,8.77-7.42,9.23-6.09,5.01-23.36,6.6-22.54,17.39.14,1.82,1.99,4.07,1.7,4.95-.11.33-3.69,3.83-4.59,5.28-1.46,2.37-2.07,6.18-2.67,7.19-1.44,2.4-5.49,6.15-7.1,8.72-6.38,10.18-12.66,25.56-1.14,34.36,2.91,2.22,7.4,2.81,9.41,4.22,1.03.72,1.42,2.74,2.46,3.64,3.92,3.39,7.21,4.58,12.34,5.41,2.62.42,5.87-.49,8.03.83l-41.42,33.9h-1.3c-10.62-8.75-19.42-19.26-27.97-29.99,2.5-6,1.74-11.84,2.34-17.9.05-.48,1.25-.27,1.34-1.41.31-3.76.58-13.3-3.34-15.16-1.69-.8-5.75-.51-7.49.4-3.07,1.61-3.9,9.41-6,8.98-5.83-5.2-14.93-22.1-23.59-20.85-2.29.33-3.11,2.58-3.32,2.57-1.54-.06-3.39-1.9-6.58-1.27-2.84.56-6.54,4.79-4.3,7.87-1.77-.88-6.33,2.01-6.78,3.45-.93,2.99.68,4.89.24,6.6-.36,1.37-4.04,1.43-3.26,8.63.4,3.68,7.9,15.63,10.45,18.95,8.89,11.6,25.95,16.63,28.62,32.05-3.57-2.89-11.14-6.88-15.76-5.89-3.36.72-3.39,4.92-3.71,5.16-.62.45-5.29-.39-6.82,3.38-1.43,3.55,1.57,6.25,1.44,7.55-.12,1.12-2.6,1.68-1.62,6.41.6,2.89,4.77,6.43,5,7.51.27,1.26-.8,2.41-.2,4.77,1.98,7.82,25.52,16.97,33.04,18.23,4.1.69,10.01.09,12.96.79,5.34,1.27,21.5,11.83,28.59,14.86,9.33,3.98,19.09,7.09,28.93,9.54.17.27-.41.84-.66.98-3.85,2.13-16.09,4.69-21.49,6.78-14.62,5.66-33.16,14.46-39.61,29.42-13.06-3.41-26.07-1.43-38.83,2.25,1.39-7.72,4.58-16.3,5.17-24.08.92-12.2-3.95-26.42-7.11-37.53-.82-2.87-.24-5.65-1.89-9.17-2.47-5.27-6.91-5.61-8.96-8.79-8.59-13.32-8.17-14.97-23.79-22.23-3.34-1.55-21.62-7.13-21.24-10.29,7.65-4.2,20.15-7.33,23.95-16.1,9.96-22.98,14-66.58,12.86-91.72-.77-17.15-5.47-33.18-9.76-49.83.24-1.28,7.46-8.56,8.7-10.3,4.48-6.3,8.75-13.49,11.54-20.71,5.13,2.29,9.58,5.96,14.68,8.37,8.45,3.97,36.56,13.54,44.03,6.49,1.18-1.12.8-2.8,1.25-3.2.8-.7,7.09-.9,7.16-4.7,5.53,2.48,18.23,9.45,23.98,7.26,5.35-2.04,6.88-14.45,9.87-19.04,11.36,3.53,22.93,5.16,34.12-.09l90.92,25.52,3.64-1.15c4.01-7.76,6.65-16.19,10.15-24.18,10.27-23.42,20.91-47.28,30.5-71.27,2.3-5.76,7.17-15.03,8.4-20.79,8.48-39.62-52.91-59.36-74.88-28.4-7.01-28.26-48.79-39.97-69.06-17.44-7.33,8.14-16.97,33.34-21.63,44.25-5.02,11.77-9.29,23.54-14.01,35.48-1.57,1.64-21.63-3.55-24.96-4.64-29.03-9.51-34.78-36.56-48.36-60.62,6.76-5.3,15.17-10.33,16.28-19.71.65-5.49-1.53-12.02-.5-16.94.82-3.91,4.21-4.84,5.99-7.23,9.42-12.67.98-22.85-.21-35.66-1.04-11.11,1.52-20.37-2.33-31.19-5.53-15.53-18.92-24.75-35.52-24.36-2.64.06-6.31,1.58-8.36,1.24-1.25-.21-4.16-2.59-5.96-3.3-24.05-9.45-51.83-7.6-69.45,12.93-2.25,2.62-4.06,6.81-6.15,9.33-14.14,17-31.28,7.94-37.31,35.87-1.36,6.29-.4,3.96.09,8.67,2.01,19.08-16.01,15.44-20.61,30.75-2.23,7.4-.78,14.21,3.35,20.56-.03,1.27-6.9,5.18-8.09,6.24-22.39,19.9-28.87,52.33-34.51,80.53-1.02.9-1.35-.06-1.84-.81-1.5-2.33-2.42-5.67-4.71-7.78-6.54-6.06-19.07-7.11-26.67-2.28-2.52-11.19-7.66-17.32-18.73-20.69V3.89h585.8ZM213.51,37.05c1.15,1.99,2.35,4.25,2.96.07.55-3.8-.2-18.77-.65-23.07-.12-1.12.12-2.19-1.03-2.91l-2.34,3.57c.96,5.92-1.56,17.79,1.06,22.35ZM152.93,16.12c-1.51-2.14-1.26-5.03-4.86-4.34,5.95,11.52,11,24.12,19.06,34.17.12-1.14-.01-2.2-.3-3.3-1.39-5.27-10.54-21.79-13.89-26.53ZM273.36,27.92c1.74-2.54,3.84-4.94,4.89-7.91-.34-2.52-5.35,2.72-5.71,3.15-3.98,4.76-12.21,16.62-15.3,21.99-.4.69-1.88,3.59-1.34,4.09,2.28,2.12,7.85-8.82,9.2-10.65,2.61-3.54,5.78-7.03,8.26-10.66ZM134.91,68.96c.38-1.67-.32-1.67-1.08-2.53-4.15-4.67-17.86-14.24-23.58-18.49-2-1.48-21.73-16.12-22.66-15.13-.3,1.54.44,2.01,1.29,2.98,3.71,4.25,16.74,12.05,22.05,16.08,2.72,2.06,21.95,19.07,23.99,17.09ZM338.07,44.65c-2.55-.17-5.12,1.61-7.32,2.86-11.11,6.33-26.04,15.43-36.37,22.79-7.68,5.48-5.36,6.71,1.96,2.62,11.6-6.48,27.25-16.6,38.09-24.36,1.3-.93,3.62-2.09,3.64-3.91ZM107.96,94.59c1.46-1.24-4.23-3.27-4.74-3.47-12.85-4.93-31.62-9.77-45.22-13.29-2.27-.59-12.67-4.28-10.08-.32l60.04,17.07ZM359.11,101.16c2.26-2.62-6.66-1.24-7.39-1.14-15.88,2.25-32.3,7.02-48.2,9.66-1.08-.36-1.33.92-.95,1.33,1.94,2.11,49.95-9.12,56.54-9.85ZM91.2,126.15h-54.9c-.74,2.28,1.57,2.49,3.65,2.65,13.4,1.06,29.58-.16,43.38-.05,3.48.03,7.02,1.56,10.82.02.69-1.21-2.7-2.58-2.96-2.62ZM358.45,149.82l-53.25-8.55c-.07,2.38,2.94,2.48,4.59,2.96,9.8,2.84,33.52,6.73,43.82,7.46,1.62.12,3.23.15,4.85.09-.09-.54.14-1.77,0-1.95ZM80.34,168.22c-1.58-.14-3.05-.03-4.61.32-7.02,1.58-20.66,7.43-27.58,10.55-1.39.62-9.11,3.09-7.25,4.9l39.44-15.77ZM339.89,194.63l-43.23-23.13c-1.38,1.5,3.76,4.32,4.64,4.89,3.97,2.55,35.63,20.11,37.77,20.09,1.5-.01,1.34-1.15.82-1.85ZM302.8,225.16c-6.74-7.82-13.98-15.18-20.58-23.14l-2.67-.62v2s26.1,27.79,26.1,27.79l2.16-.87c0-.83-4.33-4.38-5.01-5.17ZM298.63,348.97c-.19,1.42,1.13,2.12,2.03,2.89,3.44,2.96,11.52,8.1,15.64,10.66.82.51,11.26,7.57,11.24,4.52-3.52-2.36-26.37-20.32-28.91-18.07ZM273.41,362.35c-1.12-1.38-6.31-7.25-7.35-7.44-.94-.18-1.9-.38-1.62.96.28.57,1.5.79,1.98,1.5,8.03,11.69,18.38,25.9,27.7,36.53,1.7,1.94,4.61,5.62,7.13,5.68,1.3-1.21-19.89-25.89-21.59-28.03-2.21-2.78-4.07-6.52-6.25-9.2ZM243.02,377.62c-.89-2.03-4.55-12.3-5.2-12.89-.81-.74-1.62-.73-2.64-.65l-.34,1.65,24.01,56.18c3.11-2.84-1.02-6.84-1.6-8.39-4.66-12.51-8.84-23.64-14.23-35.91Z" fill="#fff"/>
  <path d="M129,536.3c-4.39,11.31,9.04,10.88,16.78,11.82,11.07,1.35,24.98,2.35,36.12,2.67,15.48.44,35.17.92,48.77-6.52,4.17,1.32,10.84,8.46,8.63,12.92-.81,1.64-18.45,7.25-21.59,8.97-7.61,4.18-7.45,14.31-10.55,21.7-4.25,10.14-6.84,9.02-6.53,22.41.09,3.75,2.39,28.92,3.46,30.72.77,1.29.95,1.3,2.48,1.13-.25-2.4.34-5.28.05-7.6-.15-1.21-1.29-.7-1.42-1.89-.69-6.77-2.68-24.41-1.88-30.23.53-3.86,5.04-9.86,6.83-14.2s3.37-11.55,5.48-15.55c2.88-5.47,19.26-9.4,25.11-12.03.88,9.14,5.44,17.7,6.39,26.81,1.77,16.91-13.39,59.07-18.29,77.84-.25.96-2.14,1.46-1.22,5.31,3.31,3.17,13.02,34,14.83,34.59l2.03-.89c-2.91-7.62-5.16-15.59-8.17-23.2-1.19-3-5.37-8.29-5.47-12.36l10.21-36.45c.81.14,9.46,11.62,10.13,13.02,6.12,12.87,9.31,42,17.54,52l18.69,14.84c.81.75,2.47.14,2.62-.67.44-2.41-17.98-13.58-20.02-16.78-.64-1-6.83-17.84-6.83-18.84,0-1.18.58-1.31,1.55-1.5,4.62-.92,12.21.58,17.34-.58-.19,6.73,4.96,4.99,9.81,6.62l7.99,31.85-.63,1.89c-13.91,6.05-39.51,11-45.91,26.41-3.3,7.95-.52,10.61,6.94,13.19,16.49,5.72,58.22,1.22,75.93-2.64,6.15-1.34,16.77-3.66,14.83-11.85-.33-1.37-3.25-5.58-3.9-7.3-4.21-11.18-7.62-22.29-9.43-33.93l48.3,22.04c7.45,26.15,18.47,33.95,45.52,27.08,24.74-6.29,49.54-16.78,73.8-24.81l.92,11.43c-2.07,1.62-4.42,2.17-6.51,4.01-3.02,2.66-5.34,10.16-2.78,13.53,3.99,5.24,30.67,6.6,37.24,5.81,7.64-.92,17.03-5.24,20.25-12.62.54-1.24,3.15-8.79,3.21-9.29.88-6.79-2.16-25-3.65-32.6-1.26-6.46-5.81-24.38-13.23-25.55-12.03-1.89-14.7,3.54-23.91,6.2-15.18,4.38-34.34,4.21-49.98,7.53l7.56-18.4h116.04v164.98H4.74v-80.85c12.57,9.76,46.16,10.7,60.14,4.58,5.94-2.6,3.5-7.11.77-11.27-13.61-20.74-51.59-18.51-60.91,5.37v-155.78c15.09,1.86,30.18,4.33,45.36,1.97,1.04,2.78-1.66,5.49-2.02,6.87-5.19,19.71-6.07,29.64-20.73,44.98-2,2.09-10.98,9.14-11.56,10.81-.35,1-.76.8.47,1.76.48.04,3.9-2.12,4.58-2.63,3.32-2.49,12.2-10.93,14.83-14.1,10.57-12.77,12.67-32.78,18.37-48.02l38.8.34-9.94,31.13c-2.58,5.41-9.21,9.56-13.06,13.9-9.24,10.4-13.78,25.28-20.21,37.6-5.07,9.72-11.66,19.69-16.56,29.64-.53,1.07-3.47,7.88-3.36,8.33.1.58,1.98.47,2.23.37.88-.36,7.64-14.87,8.78-16.94,7.98-14.49,14.82-29.58,22.55-44.4,5.49-10.53,11.74-13.95,18.73-22.17,8.83-10.37,8.81-27.51,15.08-39.48,6.31-1.81,10.54-8.38,16.13-10.82,5.96-2.6,13.98-2.66,20.39-3.6.33.31-1.48,7.16-1.88,8.28-1.93,5.48-5.57,11.88-6.22,18.14-.42,4.03,1.19,2.25,2.51-.14,1.05-1.9,3.18-7.61,3.98-9.8,1.33-3.62,4.42-17.25,6.03-19.15.38-.45,6.94-4.54,7.94-5.03,10.18-5,22.69-6.64,33.87-4.67l1.09.86c-1.89,5.53-3.34,11.21-4.65,16.9-1.65,7.18-2.98,14.6-3.25,22.52-.03.88-.65,3.98,1,3.63,4.36-6.1,2.58-14.88,3.8-22.5,1.04-6.49,4.24-13.47,5.23-20.07.72-.96,10.72-1.08,13.15-1.65,2.27-.53,6.6-.89,3.42-3.68-5.14.7-10.54,2.12-15.76,1.91-13.68-.55-18.56-3.28-33.18,1.61-6.63,2.22-11.19,7.16-16.89,9.41-6.56,2.58-14.27,1.84-20.4,3.93-6.16,2.09-11.88,9.52-18.13,12.11-13.39,5.54-25.66.38-38.25.48-4.27.03-9.96,1.77-14.48,2.02-13.13.7-24.88-2.38-37.79-2.62v-40.1c20.82,15.22,37.54,25.54,64.56,20.18,4.58-.91,19.57-4.79,20.24-10.05-1.71-8.88-6.93-16.25-13.79-21.95,5.93-1.95,12.83-.55,18.58-1.48,3.8-.62,17.72-7.73,19.22-7.73h15.45ZM137.77,666.26c-1.58-7.24-2.45-21.56-5.42-27.81-.5-1.05-.88-1.55-2.02-1.94l-1.27.78c2.43,12.01,6.09,23.94,7.05,36.54-1.65,6.11-6.12,10.5-9.19,15.85-1.07,1.86-1.48,4.75-2.53,6.53-3.64,6.2-9.53,10.46-11.64,17.43-1.86,6.14-2.71,12.92-4.56,18.72-.51,1.6.46,2.79,2,2.4,1.78-.45,4.04-17.51,5.07-20.44,1.8-5.14,6.57-8.47,9.37-12.54,1.73-2.52,10.37-21.85,11.97-22.21,3.61,1.44,5.46,6.57,8.19,9.55,2.17,2.37,7.41,6.1,9.21,8.72,2.74,3.99,4.06,10.29,6.58,14.78,2,3.57,9.4,13.68,12.18,16.89.64.74,1.03,1.61,2.25,1.36-.81-7.59-7.38-12.78-11.29-19.27-3.05-5.07-5.36-13.28-8.79-17.51s-11.09-8.91-13.59-14.02c-1.72-3.53-2.86-10.48-3.59-13.8ZM183.17,687.23c-1.69-3.85-3.17-10.36-6.83-12.24-.64.8,5.65,16.84,6.63,19.19.18.43.98.55,1.35,1.45,1.13,2.72,1.57,7.26,2.92,9.54,2.18,3.68,9.35,4.57,12.47,7.91,2.67,2.86,3.6,8.14,5.54,11.37.35.58,4.58,6.2,4.9,6.45,1.52,1.2,15.14,2.18,16.15,1.61,1.12-.63.37-1.16-.49-1.5-3.5-1.38-11.5-.57-14.04-2.4-2.29-1.65-6.94-13.18-10.13-16.82-3.46-3.94-9.79-5.03-11.81-7.25-1.39-1.53-4.07-12.93-5.44-16.23-.28-.68-1.13-.85-1.24-1.08ZM583.3,693.4c-5.74.32-6.17,7.47-5.91,11.83h1.97c-.89-1.91,4.69-11.06,3.94-11.83ZM572.57,695.58c-.67-.74-4.01-2.73-3.72-.55.27,2.03,4.55,7.62,4.52,10.48l2.03.38c.9-.99-1.74-9.1-2.84-10.31ZM152.95,749.64c-3.83-5.95-10.71-12.59-18.31-11.5-6.33.91-17.93,10.62-20.03,16.6,1.58,5.04,37.85,4.85,40.41-.22,1.09-2.15-1.3-3.68-2.07-4.88ZM160.66,759.68c.66,1.1,17.9,2.33,16.37-3.5-5.47-8.94-16.17-6.3-16.37,3.5ZM218.41,760.44c-1.23-.17-1.82.05-2.65.95-2.21,2.4-6.94,18.36-3.58,19.41,3.19,1,3.41-10.21,3.9-12.52.62-2.87,2.41-4.93,2.33-7.85ZM205.54,767.39c-.94-1.44-2.83-4.56-4.23-5.3-5.11-2.72,1.91,6.69,2.3,7.56,1.39,3.04,2.17,7.29,3.44,10.36.3.72.73,1.56,1.48.81,1.31-5.15-.22-9.15-3-13.42ZM230.9,764.39c-5.18-1.07-15.72,12.86-12.48,16.43.95.1,1.16.18,1.95-.51s2.47-5.94,3.81-7.86c2.3-3.29,6.26-4.41,6.72-8.06ZM474.41,777.29c-5.32-6.15-10.86-10.16-19.57-8.9-4.56.66-8.57,5.27-10.82,5.53-2.07.24-5.27-2.29-8.31-2.35-5.21-.12-16.41,6.63-15.45,12.17.56,3.24,6.93,4.06,9.74,4.77,13.37,3.35,26.05,4.05,39.47.43,8.94-2.41,11.81-3.71,4.95-11.64ZM109.06,790.23c-7.54-10.22-23.18-10.02-33.15-3.66-16.87,10.76-.71,15.09,10.7,15.92,6.58.48,31.29-.28,22.45-12.26ZM325.15,788.27c-11.64,12.05,17.96,10.36,23.59,9.45,6.68-1.08,14.85-3.02,7.03-10.61s-23.41-6.31-30.62,1.16ZM543.2,784.77c-6.74-2.56-9.44,19.77-6.89,21.02,1.31.32,1.17-.96,1.42-1.83,1.15-3.89,1.03-8.65,2.38-12.76.93-2.84,2.57-3.9,3.09-6.43ZM23.8,787.39c-4.55-.02-3.96,6.16-4.62,8.73-.13.51-1.19.46-1.27.93-.37,2.09-1.75,11.44,1.94,8.97l3.95-18.63ZM527.84,790.91c-.54-.59-6.54-5.03-5.67-1.89,4.6,5.43,7.14,10.54,8.86,17.42l1.67-1.09c.98-3.16-2.58-11.97-4.86-14.44ZM554.37,788.71c-7.26,1.27-13.5,10.06-13.14,17.09l2.55-.09c.51-3.93,2.49-8.05,5.08-11.02.84-.96,6.97-4.5,5.52-5.98ZM11.76,792.2c-.16-.2-3.3-2.65-3.51-2.74-4.22-1.75,2.78,8.38,3.66,8.97l2.35,8.01c2.49-3.19-.32-11.6-2.5-14.25ZM32.35,794.62c-5.02.43-10.23,6.64-8.53,11.82l8.53-11.82ZM163.08,798.74c-5.16.32-20.57,8.28-15.37,14.32,3.84,4.46,29.61,4.29,32.61-.98,4.63-8.14-10.97-13.73-17.25-13.34ZM387.38,815.66c4.36.47,2.3-5.14,1.5-7.74-1.29-4.2-3.11-6-6.43-8.68-3.3-.06,3.39,7.93,3.57,8.39.89,2.29,1.19,5.55,1.36,8.03ZM399.87,799.22c-5.1-1.99-9.57,15.44-8.55,16.43h3.28c.17-6.12,2.16-11.33,5.26-16.43ZM400.93,812.78c2.11-2.64,3.27-6.33,7.47-6.67l.02-1.97c-3.35-2.25-15.47,9.17-9.22,11.51-.19-1.83,1.09-2.08,1.73-2.88Z" fill="#fff"/>
  <path d="M155.29,329.92c.07,1.01-.44,1.81-1.04,2.56-6.76,8.4-28,24.41-37.44,30.93-14.29,9.87-29.96,17.81-46.31,23.71.03.52-.14,1.82-.01,1.94.69.68,16.15-5.52,18.2-6.44,20.72-9.29,50.38-30.02,65.94-46.47.98-1.04,2.24-2.86,2.66-4.26l17.07,9.53c-10.54,15.14-22.11,29.39-34.48,43.08-29.92,28.53-65.37,50.97-103.82,66.31l-.41,2.02c1.75,1.71,38.93-17.02,43.3-19.47,35.82-20.14,66.48-47.11,90.7-80.19,1.22-1.67,6.01-10.93,7.62-10.78,11.03,4.09,21.69,12.31,33.92,11.19,1.7,7.08,4.26,13.79,5.61,21.02,7.27,39.08,2.6,80.31-9.2,117.7-29.97,1.34-57.73,13.76-86.6,20.56-38.04,8.97-78.34,12.46-115.59-1.85l-.61-101.84c11.32-34.55,22.45-68.88,37.37-101.48,2.56-5.59,4.17-11.99,8.28-16.54,19.56,20.4,50.52,30.37,78.25,32.84,5.07.45,11.46-.73,16.27.17,4.04.76,6.32,4.97,10.34,5.78ZM183.97,380.28c2.2-6.25,4.78-12.79,4.85-19.48-1.03-1.42-11.74,29.81-12.55,31.67-12.25,28.2-35.97,62.99-59.1,83.69-1.57,1.4-21.1,15.51-19.73,16.75,4.57-.93,9.31-4.78,13.1-7.6,31.11-23.15,60.67-68.84,73.42-105.04Z" fill="#fff"/>
  <path d="M474.03,582.48c3.62.9,7.22,29.06,7.39,33.66.99,27.23-12.31,71.66-28.03,93.63-26.29,36.72-89.95-4.53-119.93-17.34-15.41-6.58-31.69-11.83-47.84-16.26-2.08-2.7-2.41-32.6-2.14-37.67.65-12.01,1.44-21.76,10.54-30.21,13.32-12.37,51.48-27.39,69.4-25.33,3.78.43,9.29,5.67,13.46,7.58,24.24,11.1,61.02,7.76,85.25-2.17,2.3-.94,10.63-6.19,11.91-5.87ZM360.36,600.77c-.31-.23-1.34.02-1.91-.06,5.28,22.45,28.5,42.56,49.07,51.83,5.25,2.37,10.69,5.38,16.67,4.69-25.76-9.58-48.42-26.18-61.73-50.49-.55-1-1.84-5.79-2.1-5.98ZM340.3,634.64c-1.01-1.84-3.83-10.02-4.85-10.61-.37-.61-1.29.51-1.32.68-.69,3.57,10.49,22.34,13.15,26.1,13.04,18.43,32.02,35.53,53.91,41.91.42-1.8-.62-1.13-1.3-1.63-4.36-3.2-10.84-5.53-15.69-8.65-17.35-11.14-33.96-29.78-43.89-47.81Z" fill="#fff"/>
  <path d="M151.36,161.64c-.09,4.16-.14,8.39,1.08,12.42,1.08,3.55,6.14,9.3,7.02,12.67,1.46,5.56.32,11.46,2.92,17.46,5.19,11.99,16.43,9.19,19.9,21.56l-15.65,12.04-1.45-.2-36.52-49-1.64,1c6.4,9.04,11.73,19.33,18.18,28.4,21.08,29.59,39.44,44.77,73.68,57.87,2.23.85,15.89,4.25,15.95,5.74-2.23,3.18-5.93,6.6-8.04,9.67-10.96,15.93-17.81,34.44-21.51,52.91-.37,1.84.2,4.18-.03,6.1-1.72,1.79-35.2-14.76-39.24-16.97-37.33-20.36-65.43-49.53-80.51-89.12-.25-.66-2.4-12.3-3.86-7.91,3.35,23.18,17.58,43.18,32.23,60.74-20.66-4.88-41.07-14.34-55.73-29.98,2.4-8.34,3.02-17.19,5.05-25.58,3.78-15.61,11.87-38.78,21.87-51.81,14.75-19.22,42.64-28.12,66.29-28.03Z" fill="#fff"/>
  <path d="M273.4,75.1c6.93,11.19,3.77,22.55,4.18,34.26.38,10.7,6.56,18.28,5.2,28.88-.94,7.3-10.94,12.09-11.1,19.13-.11,4.58,1.23,10.1.64,15.11-.87,7.41-6.28,11.78-12.17,15.44l8.78-84.69c-13.11-1.65-29.24-10.28-31.47-24.42-3.86-.42-5.1,3.96-7.87,6.26-10.91,9.06-31.25,12.86-44.92,9.52-2.95,2.02-1.36,4.98-1.87,8.12-2.1,13.06-8.09,33.47-.71,45.6.36.6,5.33,5.92,5.69,6.12,3.19,1.71,13.33-4.45,17.96-5.12,11.45-1.66,12.14,3.51,19.7,4.94,7.42,1.4,12.66-2.16,19.59,4.08,3.41,3.07,3.42,9.65,8.58,6.64,1.2-.7,5.96-7.39,6.2-9.25,1.85-1.12,1.36,10.95,1.29,12.15-.99,17.7-5.54,17.96-13.27,30.77-3.62,5.99-3.82,14.29-9.07,20.51-4.91,5.8-9.55,4.51-15.37,6.99-7.75,3.3-7.36,9.86-20.49,9.14-17.19-.94-14.93-10.44-22.97-19.1-3.57-3.84-10.63-4.91-13.76-10.57-3.51-6.36-1.55-14.05-3.45-20.22-.9-2.91-5.96-7.15-7.05-12.67-2.69-13.6,3.13-20.37,6.2-31.76,1.51-5.62,2.08-11.97,3.55-17.45,1.8-6.68,5.34-12.39,6.26-19.04-.5-.61-5.32,2.91-4.61,4.6-29.2-13.56-38.94,28.2-9.19,32.87l-5.87,16.8c-12.74.21-25.49,2.32-37.51,6.55-7.13,2.51-12.77,10.19-15.76-.05-4.99-17.04,5.36-18.78,15-27.66,9.53-8.78,3.4-15.89,5.44-26.77,3.65-19.51,24.26-18.22,35.02-30.06,3.97-4.37,7.05-11.03,11.55-15.4,15-14.56,38.96-17.03,58.06-10.03,2.62.96,9.79,5.47,10.83,5.66,2.7.51,8.95-1.44,13.01-1.23,9.69.51,20.63,7.15,25.71,15.36ZM209.17,159.71c-5.35,2.41,3.98,7.45,7.24,8.21,3.63.85,14.77,1.58,14.17-3.65-7.21.66-16.62,2.32-21.4-4.56Z" fill="#fff"/>
  <path d="M460.78,370.89c8.46,11.41,8.43,19.94,6.22,32.5-3.57,20.28,2.96,16.41,8.43,31.55,4.25,11.75-6.44,17.96-7,26.93-.25,4.03,1.8,8.94,1.85,12.97.12,10.03-6.32,18.82-16.48,20.39-4.37-6.92-8.67-14.85-15.1-20.42-6.97-6.03-18.92-9.66-25-16.41-4.18-4.63-11.04-19.35-4.24-23.97,23.9,15.48,45.91-23.28,14.1-27.62l.65-4.6c-1.41.48-2.27,1.24-3.18,2.4-10.2,12.99-18.9,47.85-34.49,54.91-6.31,2.86-10.26.62-15.11,1.32-2.1.3-4.56,4.22-7.03,5.46-7.21,3.62-20.88,3.09-26.95-2.64-1.08-1.02-1.91-3.63-2.93-4.31-1.4-.93-4.34-.95-6.5-2.04-15.15-7.64-4.68-28.26,2.83-37.7,1.16-1.46,4.29-2.75,4.96-4.3,1.19-2.74-.76-7.86,4.67-10.4,6.16-2.87,19.55,4.89,23.94,9.42,5.69,5.87,2.46,10.38,12.79,9.54,21.56-1.75,36.25-25.02,41.1-44.02-7.09,1.22-19.95-4.19-23.14-10.72-1.42-2.92-.66-8.95-2.27-9.58-4.01.14-8.06.58-11.92,1.71-4.43,1.29-7.22,3.94-11.32,5.44-4.13-19.82,15.62-29.9,33.16-24.95,4.51,1.27,9.06,7.28,10.71,7.75,1.87.54,8.86-.19,11.6.17,12.41,1.63,28.21,11.13,35.67,21.19ZM353.68,425.72c4.68-4.92-10.92-14.59-13.48-9.56s11.16,12,13.48,9.56Z" fill="#fff"/>
  <path d="M491.03,187.51c4.9,4.01,8.81,14.27,8.84,20.47.07,17.78-24.78,65.5-32.87,83.69-5.04,11.32-9.83,22.45-14.03,34.14l-63.99-16.9,33.31-81.01c10.74-19.93,21.01-46.52,48.31-46.55,4.93,0,16.61,3.03,20.44,6.17ZM441.99,220.75l36.77,7.6c.1-1.31-1.16-1.51-2.08-1.85-3.38-1.24-33.42-8.88-34.73-7.67.08.56-.17,1.65.04,1.92ZM432.83,242.41c10.42,1.81,21.11,5.99,31.45,7.66,1.76.29,5.18,1.39,6.58-.02l-37.78-10.2-.25,2.56ZM422.29,265.43c1.06,1.41,30.58,8.77,33.97,9.11,4.25.42,4.29-1.23.68-2.67-10-4-24.18-5.61-34.72-8.34.08.57-.18,1.58.06,1.9ZM449.18,299.01l-1.59-2.68c-4.75-.59-33.03-10.23-35.22-8.49.08,2.44,4.02,3,5.92,3.61,9.78,3.1,20.86,5.53,30.89,7.56Z" fill="#fff"/>
  <path d="M422.51,181.07c8.4,12.43,3.38,23.09-.38,35.39-9.67,31.61-24.78,60.8-36.07,91.76l-63.74-17.78c-.83-1.05,8.53-22.11,9.66-24.77,7.64-17.96,16.13-36.37,24.03-54.25,8.16-18.47,12.64-41.74,37.59-43.24,12.63-.76,21.78,2.33,28.92,12.89ZM371.61,203.05c-1.73,1.39,5.12,3.07,5.64,3.23,9.55,2.97,20.15,4.07,29.71,7.17,2.13.49,3.18-2.14.99-3.03l-36.34-7.37ZM399.21,232.64l-36.81-7.89c-1.21,1.31,2.66,2.08,3.29,2.29,10.02,3.3,21.68,4.78,31.94,7.52l1.58-1.92ZM353.23,249.01c10.43.78,24.84,8.08,34.67,8.43,1.22.04,1.87.56,2.76-.82-.07-1.94-33.29-9.72-37.46-9.53l.04,1.92ZM381.46,279.95c.25-1.26-.59-1.63-1.5-2.11-2.2-1.15-31.35-8.88-33.34-8.8s-3.07,1.14-1.15,2.55c1.3.95,23.31,6.58,26.79,7.38,1.5.35,8.49,2.05,9.21.97Z" fill="#fff"/>
  <path d="M353.19,531.37c1.53-14.86,19.29-45.67,30.89-55.88,6.19-5.44,21.36-14.24,29.76-12.66,1.11.21,17.34,10.29,19.21,11.7,9.22,6.98,16.44,18.32,20.43,28.85,7.03,18.56,10.28,38.91,15.33,58.18-25.43,13.24-57.04,17.55-85.37,14.17-.22-1.04.3-1.37.98-1.97,2.65-2.34,7.53-5.21,10.22-7.52,1.96-1.69,3.88-5.89,6.51-6.65,4.19-1.22,11.83,5.59,15.52,3.06.64-.44,8-9.22,9.1-10.63,7.89-10.16,15.59-24.6,16.82-37.4-1.68-2.13-4.35,9.25-4.66,9.98-3.43,8.03-8.39,17.94-13.85,25.08-1.47,1.92-7.96,9.66-9.68,9.93-7.59,1.18-41.27-21.5-48.65-27.06,3.39-5.68,6.95-11.78,10.55-17.53,7.5-11.96,13.29-18.81,22.47-29.43.73-.84,1.48-.83,1.08-2.52-1.19-.26-1.82.37-2.73.88-11.85,6.59-24.32,33.58-32.89,45.37-2.78,3.82-6.81,10.04-11.06,11.59.23-3.08-.31-6.51,0-9.53Z" fill="#fff"/>
  <path d="M258.34,194.03c4.69,9.24,8.94,19.96,13.99,28.92,5.45,9.66,11.87,19.98,21.59,25.88,10.73,6.52,24.67,9.11,36.92,11.41-2.66,10.29-9.98,20.13-11.76,30.63-.66,3.91-1.82,12.13-2.1,15.62-.67,8.35.71,15.59,2.02,23.41-1.49,1.4-13.59-3.91-15.11-6.24,8.22-11.11-2.16-12.48-9.14-16.51-5.75-3.31-11.11-7.35-17.16-10.13-.28-1.65.13-1.02.9-1.37,2.86-1.31,7.15-1.9,10.25-3.56,3.97-2.12,11.75-8.33,7.21-13.1-4.9-5.14-16.07-.16-22.19.75-7.14,1.06-14.36,1.52-21.47,2.79-5.01-.43-15.56-18.77-18.48-23.29,4.13-6.64,6.28-14.16,8.98-21.5.21-.57,4.56-7.03,1.59-7.74l-20.73,44.02c-14.83-5.83-31-11.87-43.69-21.71-1.48-1.15-11.93-10.06-12.2-10.83-.13-.35-.24-1.7.48-1.65l15.11-11.09c1.72-.39,3.68,3.45,5.51,4.81,6.32,4.71,18.88,5.31,26.05,2.47,3.72-1.47,7.82-6.64,10.09-7.66,4.69-2.11,8.51-.57,13.81-5.26,8.37-7.4,6.4-14.2,10.6-21.64,1-1.78,5.58-5.41,6.79-7.69l2.13.25Z" fill="#fff"/>
  <path d="M590.54,105.77l-184.36-.64c-.44-12.84,12.51-22.81,25.43-20.24,1.99.4,5.66,3.91,7.09,2.84,1.03-4.05.65-7.85,2.71-11.76,4.62-8.77,19.27-11.65,27.97-7.8,2.19.97,7.93,7.08,9.06,6.71,2.58-12.33,10.7-21.69,22.69-25.96,14.98-5.33,37.17-1.4,42,15.98.72,2.61.29,10.82,1.79,11.26,11.48-6.36,26.93-7.54,33.45,5.95,1.18,2.44.37,4.91,2.77,6.58l9.4-3.3v20.38Z" fill="#fff"/>
  <path d="M590.54,637.52c-.24.33-.85-.66-.99-.66h-15.78c-3.1,0-11.74,4.8-14.41,4.59s-23.45-12.62-28.66-14.77c-16.94-6.98-29.47-7.49-46.66-.34-.39-7.98.73-16.8-.62-24.68-.2-1.18-1.2-.93-1.3-1.46-1.14-5.88-2.3-11.7-3.93-17.46,10.2-5.01,20.69-10.72,31.31-14.74,16.81-6.37,20.21-6.61,36.15,1.68,15.33,7.98,29.41,18.93,44.9,26.76v41.08Z" fill="#fff"/>
  <path d="M294.92,515.03c2.36,4.7,5.54,9.58,6.95,15.06,3.14,3.51,30.28,11.49,36.05,12.6,4.33.83,14.81,2.96,18.22.84,2.36-1.47,6.04-8.88,8.45-8.43l34.6,22.57c-7.44,6.93-22.95,21.21-32.82,23.04-15.27,2.85-49.92-12.19-64.17-19.4-2.78-1.41-10.56-7.2-12.61-7.77-2.85-.79-7.63.19-10.94-.24-9.5-1.22-23.09-5.94-30.34-12.39-.7-.62-5.61-6.62-2.51-5.38s9.88,7.05,13.04,6.03l.33-1.65c-6.85-4.66-20.16-8.68-19.06-18.73,3.47,1.15,19.33,13.91,21.71,12.19.67-.48.83-1.25.66-2s-11.2-6.11-13.37-7.68-12.81-9.45-8.37-12.76c2.55-1.9,6.66,3.87,8.26,4.98,6.1,4.22,12.75,7.88,19.7,10.53.79-.72,1.26-.81.7-1.99-.61-1.28-11.14-6.06-13.45-7.59-2.16-1.43-12.7-8.59-7.77-10.97,4.46-2.16,18.11,7.47,22.82,9.73,1.68.81,13.95,6.98,14.5,3.87-1.53-2.82-3.64-14.18-.52-15.62,6.67-2.42,7.72,6.71,9.95,11.17Z" fill="#fff"/>
  <path d="M590.54,336.48c-.69.24-1.42-.66-1.64-.66h-108.81c-.93-8.74,9.14-16.6,17.44-16.43,2.91.06,7.63,3.72,9.56,2.34.61-7.67,1.81-13.69,10-16.3,8.43-2.69,14.18.64,21.17,4.75,1.99-5.24,1.28-10.63,3.65-15.95.55-1.24,4.73-6.89,5.88-8.07,10.62-10.92,30.7-11.58,42.76-2.61v52.91Z" fill="#fff"/>
  <path d="M590.54,640.15v29.58h-114.4l8-39.99c18.39-8.96,32.95-5.9,50.66,2.04,5,2.24,20.57,12.05,24.59,12.28,3.79.22,13.28-4.21,19-4.56,4.15-.25,8.06.35,12.15.64Z" fill="#fff"/>
  <path d="M236.16,84.08c3.68,13.49,18.29,18.41,30.27,22.13,1.04,3.41-1.24,4.11-1.39,5.11-2.54,16.67-.08,37.63-12.76,50.32-4.38-4.28-8.54-10.58-15.46-9.86,2.28-3.54,1.26-29.47-.99-30.23-.71-.24-1.51-.03-1.98.64-1.57,2.25,2.53,19.04-.01,25.62-3.41,8.82-11.77.31-17.25-1.11-7.95-2.05-12.55-.36-19.85,2.14-2.53.87-5.9,4.01-8.56,2.6-2.5-1.32-7.87-13.74-7.26-17.06-.31-12.73,4.39-23.49,5.57-35.88.42-.65,12.03.2,14.48.02,9.26-.67,21.33-4.49,28.94-9.85,1.21-.85,4.77-5.79,6.25-4.59ZM200.66,112.34c6.89-3.28,19.83,4.54,22.86-2.86-.48-5.73-25.94-7.82-22.86,2.86ZM241.42,116.94c5.48-.98,13.53,4.75,18.23,4.44,4.95-.33,1.29-6.01-1.62-7.57-3.6-1.92-18.08-4.38-16.61,3.13ZM205.49,128.57c-.6-1.02-3.19-10.26-4.21-2.11-1.45,11.54,19.9,10.75,17.82.69-1.38-6.66-4.02,1.9-4.6,2.64-2.73,3.45-7.02,2.12-9-1.22ZM252.45,136.51c-9.14,5.14-5.75-8.22-10.91-4.66-1.35,5.34,3.65,9.92,8.76,9.45,7.28-.67,6.74-10.53,3.96-9.88l-1.81,5.1Z" fill="#fff"/>
  <path d="M590.54,452.82v54.56h-110.12c-2.91-3.75,4.58-11.31,7.97-13.07,7.11-3.69,13.34-1.75,20.56-.14-.33-14.04,13.65-23.25,26.81-18.46,3.1,1.13,4.89,3.98,8.08,4.05,1.33-22.48,27.22-32.35,46.7-26.93Z" fill="#fff"/>
  <path d="M258.29,438.59c3.49,3.81,9.13,10.73,12.37,14.91,1.48,1.91.08,4.72,4.37,2.88.21-3.52,3.42-16.07,9.03-12.66,3,1.82.01,25.5-1.53,29.49-.62,1.61-2.58,1.97-2.31,2.6l32.22,33.87c3.14,1.66,4.47-3.71,7.77-2.87,6.19,10.75,14.77,20.49,17.85,32.77-10.95-2.59-21.93-5.49-32.18-10.22-.62-2.18-2.66-4.19-3.51-5.73-2.75-4.93-7.67-21.58-12.92-23.2-7.15-2.21-10.54,5.12-9.81,11.14.34,2.83,2.23,2.95,1.88,5.65-8.58-2.38-11.9-6.36-16.63-13.31-1.98-2.91-4.55-9.31-6.58-11.46-7.81-8.28-16.17-9.66-24.26-22.06-1.51-2.31-9.61-16.21-6.42-18.23,3.38-1.26,11.53,16.05,13.79,13.79,0-5.97-13.89-17.7-10.52-23.15,4.73-7.67,13.76,17.55,18.41,17.89,2.83-3.42-13.97-20.2-11.74-25.86.9-2.28,5.14-.6,6.45.6,1.21,1.11,4.25,7.33,5.97,9.62,1.17,1.56,7.38,10.28,9.19,8.41l-.11-2.2-11.75-16.51,1.92-1.97c3-.7,7.17,3.74,9.06,5.8ZM246.02,465.31c4.23-.34,9.59,2.03,12.82,4.61.76.61,5.76,7.7,6.25,4.91.97-5.5-13.52-13.69-18.67-11.5l-.4,1.98Z" fill="#fff"/>
  <path d="M273.73,294.5c-1.38,2.34,3.6,5.64,5.21,6.77,4.6,3.22,23.81,11.26,24.91,15.31s-2.62,5.5-6.03,5.3c-5.61-.33-23.83-9.97-25.16-9.72-.17.03-1.3.96-.68,1.32,7.81,5.36,17.29,9.36,26.64,11.17-1.34,6.74-15.1,2.77-20.08,1.33-3.93-1.14-9.18-4.36-12.64-5.11-.81-.18-3.13-.88-2.79.81,7.81,4.87,17.62,9.09,26.95,9.54-.09.53.13,1.82,0,1.96-.61.66-10.47.76-12.15.65-8.9-.6-22.65-5.35-30.6-9.5-9.22-4.81-16.28-12.37-27.6-13.49-.81-2.85,1.45-3.46,2.16-4.78,4.53-8.45,9.4-16.99,16.87-23.2.99-.16,2.89,1.91,4.29,2.37,6.15,2.02,25.78-1.7,33.37-2.83,3.76-.56,14.7-4.98,16.62-.45,2.53,5.97-15.5,10.79-19.3,12.55Z" fill="#fff"/>
  <path d="M47.47,289.16c-2.11,3.45-3.35,7.38-5.08,11-5.84,12.23-11.88,25.13-16.71,37.91-7.58,20.04-13.29,40.86-20.95,60.86v-109.77h42.73Z" fill="#fff"/>
  <path d="M390.01,362.77c.23,11.21,13.57,18.62,23.68,19.72-4.06,19.81-19.28,37.2-40.32,38.82-4.69-8.33-11.63-14.21-20.5-17.79-5.27-2.13-12.08-1.31-12.79-8.07,4.52-8.6,17.42-8.3,23.59-14.66,1.59-1.64,2.46-4.79,4.31-6.86,5.73-6.39,13.25-10.94,22.04-11.16ZM393.06,380.09c-2.78-4.61-11.05-11.96-16.81-8.4-7.51,4.64,7.11,8.39,9.4,10.24,1.89,1.54,2.24,4.49,4.85,5.04,4.83,1.02,4.49-3.69,2.57-6.88ZM374.04,385.26c-7.07,1.66-9.23,13.62.88,10.73,6.88-1.97,8.16-12.85-.88-10.73Z" fill="#fff"/>
  <path d="M475.27,694.27c4.77,5.1,7.24,27.42,4.68,33.51l-1.36,1.27c-15.53,4.7-31.45,11.44-47.16,15.29-10.77,2.64-26.44,5.24-34.07-5.37-.87-1.21-8.03-16.65-7.34-17.3,15.96,3.06,33.03,8.45,49.1,2.75,8.7-3.09,17.12-12.66,21.91-20.34,1.2-1.92,3.45-9.12,4.87-10.07,1.67-1.13,7.8-1.41,9.37.27Z" fill="#fff"/>
  <path d="M4.74,231.31c3.25.85,7.54,2.48,9.86,4.94.42.45,4.42,6.37,4.55,6.76.95,2.89-.2,6.99,2.03,9.06.96.45,7.99-3.78,10.34-4.16,6.44-1.03,13.76,1.86,17.85,6.82,2.54,3.08,2.48,7.87,5.99,8.15-2.72,7.38-8.71,14.55-7.88,23l-42.74.65v-55.21Z" fill="#fff"/>
  <path d="M340.3,722.07c.05.17.9.4,1.14,1.17.99,3.12,5.28,12.32,3.65,14.64-3.08,4.38-20.54,5.43-26.15,5.84-3.91-11.01-8.57-21.67-20.32-26.02l5.14-2.72-7.77-32.76,37.85,13.75c1.46,1.22,5.25,22.11,6.46,26.09Z" fill="#fff"/>
  <path d="M56.67,269.44c10.58,13.45,28.58,21.98,44.59,27.41,4.75,1.61,13.41,2.49,17.18,4.52,1.39.75,18.98,16.17,20.75,18.04.6.64,1.27.82,1,1.95-23.34.49-50.2-6.19-70.27-18.15-3.57-2.13-16.85-11.96-18.3-15.22-1.82-4.07,2.09-20.3,5.06-18.55Z" fill="#fff"/>
  <path d="M369.63,583.62l.4-1.35c3.12-.6,6.23-4.11,9.27-4.4s8.89,1.66,12.36,1.8c20.09.84,43.55-2,62.63-8.35,2.76-.92,15.22-6.82,16.29-6.76,2.86.15,3.44,11.07,2.78,13.34-.91,3.13-14.2,8.79-17.59,10.02-26.72,9.7-61.21,10.6-86.14-4.3Z" fill="#fff"/>
  <path d="M282.83,621.12c-1.01,3.72-.88,7.58-1.32,11.34-1.34,11.47-1.64,20.94,0,32.48.3,2.14-.15,4.58.03,6.77-4.4-1.17-14.26,1.64-17.8.36-3.07-1.11-4.22-11.86-5.28-14.96-.19-.56-1.04-.57-1.35-1.44-3.66-10.29-5.17-18.41-14.41-25.85-1.77-4.92,2.32-6.49,6.11-7.6,10.75-3.15,23.23-4.43,34.03-1.1Z" fill="#fff"/>
  <path d="M505.49,198.67c6.16,8.97,5.36,19.32,2.38,29.2-7.95,26.33-24.2,52.18-32.44,78.51l-13.97,28.71c-8.62-5.1-4.9-12.07-1.94-19.47,9.01-22.58,21.6-45.7,31.17-68.8,6.84-16.52,17.16-36.63,8.47-54.28,1.73,1.56,5.11,4.36,6.33,6.14Z" fill="#fff"/>
  <path d="M131.36,522.24c-.04.16-.85.29-.97.78-.52,2.05-.94,10.2-2.01,11.04-4.64-.22-10.06-.99-14.66-.23-6.51,1.06-14.98,6.75-21.93,7.65-6.09.8-12.69.02-18.81,1.24-5.79-4.63-15.6-11.14-10.6-19.48,23.81.11,47.45-4.24,70.27-10.59l.73,1.35c-.87,2.68-1.36,5.49-2,8.23Z" fill="#fff"/>
  <path d="M185.54,498.18l-.27,13.84c-7.05,1.85-13.73,3.49-19.76,7.87s-11.77,12.34-12.84,19.7l-19.63-2.72c-.43-8.63,1.58-17.22,4.01-25.4l48.49-13.29Z" fill="#fff"/>
  <path d="M75.75,567.85c2.59-4.73-5.76-16.17-9.64-16.35-5.05-.23,5.97,8.69,6.23,9.55,2.51,8.36-2.19,8.95-9.09,8.78,1.59-3.77-4.17-16.56-8.57-13.5-2.57,1.79,2.92,4.08,4.22,6.34s1.88,5.29,1.72,7.82c-10.33,1.06-7.05-1.09-10.7-6.76-.33-.51-5.79-6.94-5.75-3.44.01,1.04,5.53,9.16,3.61,9.55-5.31-1.02-10.13-3.01-14.92-5.46-1.35-.69-9.2-5.13-9.1-6.03,9.84-12.29,26.21-18.09,41.76-16.77,6.93,6.37,17.48,11.18,18.45,21.65l-8.23,4.62Z" fill="#fff"/>
  <path d="M63.53,752.93c.58,1.01,3.38,3.26,1.05,5.22-1.42,1.19-17.24,3.46-20.04,3.63-11.79.69-26.2-.52-36.34-6.26,4.59-8.43,11.68-15.84,21.83-16.79,14.63-1.38,25.86.88,33.5,14.21Z" fill="#fff"/>
  <path d="M537.75,686.35c.89.89,4.51,12.55,4.17,13.8-10.8,7.25-11.96,27.83-27.32,27.48-12.96-.3-2.68-8.08-1.28-11.18,4.23-9.34.17-20.85-4.96-28.96,6.64-.25,24.4-6.16,29.39-1.14Z" fill="#fff"/>
  <path d="M348.37,499.3c-1.16,9.59-.59,12.32.27,21.51.65,6.91,1.03,13.85,1.92,20.74l-8.18-2-8.94-18.49c-1.59-2.26-11.55-15.21-11.67-16.75-.2-2.46,28.17-23.01,31.11-27.17-1.46,5.38-3.11,10.75-4.09,16.28-.34,1.94-.17,3.9-.4,5.87Z" fill="#fff"/>
  <path d="M57.95,523.85l.05,7.85c-16.24.12-32.68,6.41-43.21,18.99-17.34-5.88.02-21.89,1.09-33.18l42.07,6.34Z" fill="#fff"/>
  <path d="M504.69,693.12c3.06,5.26,4.85,20.36,1.08,25.45-.71.96-21.59,9.23-22.39,8.34.38-4.7.94-9.41.69-14.16-.38-7.2-3.61-13.95-6.6-20.67l25.31-2.65c.63,1.25,1.22,2.47,1.92,3.69Z" fill="#fff"/>
  <path d="M218.19,527.33c1.22.95,6.58,6.68,6.82,8.04.45,2.55-3.24,2.47-4.96,3.55-.81-7.73-7.52-15.31-15.76-14.45-.25,2.61,2.89,2.17,4.62,3.27,4.48,2.85,7.95,5.89,7.47,11.8l-7.82,1.37c1.15-8.16-6.18-12.4-13.15-13.8-.84,3.71,1.79,2.35,4.29,3.92,4.03,2.54,5.4,4.9,4.91,9.88-5.84.69-10.67-.89-16.1-2.63l-.68,1.31,1.65,1.96-23.01-1.31c5.04-8.67,12.35-16.13,21.7-20.03,2.42-1.01,6.22-.39,7.67-2.97,2.92-.37,19.48,7.87,22.34,10.1Z" fill="#fff"/>
  <path d="M532.68,742.7c-1.24-1.01-5.36,1.5-6.19,2.67-1.78,2.49.16,3.46-1.4,5.2l-7.53-.64c-.5-4.68,2.18-6.35,5.6-8.54l-.72-1.27c-3.95-1.05-8.16,5.5-7.51,9.15-4.36.45-8.51.39-6.22-5.24.76-1.88,4.2-2.52,4.25-4.61-5.05-.79-7.28,3.79-8.55,7.88-4.81-.66-5.81-4.4-2.29-7.88,5.64-5.58,14.41-3.24,21.52-4.78,11.28-2.43,15.84-13.36,21.55-22.17,1.26-.62,1.92,8.33,1.99,9.5.53,9.57,2.23,23.62-8.86,27.35-8.61,2.89-11.98,1.26-5.64-6.61Z" fill="#fff"/>
  <path d="M302.85,739.14c4.47,10.09.05,5.91-8.47,8.18l-24.02-.69c-1.68-6.25,12.19-8.35,12.49-10.19.62-3.85-11.72,2.21-13.04,4.06-1.97,2.78-.54,6.04-5.37,3.83-3.35-2.61,5.86-10.88,9.11-10.27,2.02-5.76-8.39.51-9.39,1.45-2.4,2.27-1.95,8.27-5.34,5.88-1.47-2.05,3.27-8.05,5.12-9.42,1.96-1.44,18.92-9.57,20.6-9.64,7.13-.3,15.71,10.96,18.3,16.81Z" fill="#fff"/>
  <path d="M457.06,336.48l-125.08-35-7.71-7.41,124.11,34.32c4.69.67,6.6,4.22,8.67,8.08Z" fill="#fff"/>
  <path d="M404.47,444.28c.04,5.72,2.42,10.54,6.03,14.69l-.09,1.43c-7.09.68-14.49,3.42-20.61,7-4.56,2.67-19.71,16.95-24.81,13.39-2.11-3.8-.31-7.96-2.59-10.87,3.83-.21,6.81-4.85,9.84-5.62,6.05-1.53,10.09.21,17.03-3.35,7.66-3.93,9.28-9.63,13.72-15.83.41-.57-.07-1.21,1.48-.85Z" fill="#fff"/>
  <path d="M161.64,128.57c-.04.16-.88.22-1.02.72-.81,2.86-.62,6.42-2.11,9.28-24.99-2.97-17.94-38.42,6.73-27.25.54.71-3.01,15.12-3.6,17.25Z" fill="#fff"/>
  <path d="M414.58,422.16c4.82-6.46,4.92-17.51,15.75-10.64,16.57,10.52-5.84,32.72-19.66,20.28l3.91-9.64Z" fill="#fff"/>
  <path d="M360.42,472.55c-.91,10.64,2.74,14.65,13.14,10.18-.79,2.16-3.97,4.25-4.89,5.6-7.62,11.27-12.55,24.39-17.44,36.8-.84-11.45-1.16-22.96.85-34.31.21-1.21,5.59-21.72,8.34-18.27Z" fill="#fff"/>
  <path d="M228.67,325.05c-1.78,3.36-16.75,25.2-19.14,25.22-1.26-1.52-.5-6-.25-8.12.48-4,6.49-26.75,8.81-28.7.59-.5.83-.76,1.65-.39l11.54,4.34c.99,1.47-1.81,6.13-2.61,7.65Z" fill="#fff"/>
  <path d="M326,299.25c1.89,1.7,1.87,3.15,5.02,4.51,8.93,3.85,23.02,4.93,31.77,8.98.77.36,1.19-.28.92,1.38-15.04,2.76-28.41-1.76-42.34-6.49l.27-11.91c1.37,1.22,3.01,2.31,4.36,3.52Z" fill="#fff"/>
  <path d="M326,329.68c-.91.9-2.36,1.68-3.7,1.55l-1.98-21.03,11.08,4.34c-1.84,3.94-2.4,12.18-5.4,15.15Z" fill="#fff"/>
  <path d="M429.72,183.74c8.14,9.85,5.68,17.61-2.23,26.54,2.96-9.84,3.2-20.8-1.31-30.23,1.65.75,2.46,2.39,3.54,3.69Z" fill="#fff"/>
  <path d="M4.74,513.95c1.89.74,7.67,1.49,7.9,3.6.33,2.9-6.03,15.05-7.9,18.09v-21.69Z" fill="#fff"/>
  <path d="M203.95,495.55c.05,1.58-3.22,3.18-4.39,3.82-3.62,2.01-8.33,3.39-12.04,5.37-2.65-11.4,9.25-7.28,16.43-9.2Z" fill="#fff"/>
  <path d="M235.11,267.21c3.9,5.41,7.58,10.9,11.91,16.02l-20.72-7.88,6.25-12.48c.24-.07,2.08,3.68,2.56,4.34Z" fill="#fff"/>
  <polygon points="427.16 210.94 427.49 211.27 427.16 211.6 427.16 210.94" fill="#fff"/>
  <path d="M107.96,94.59l-60.04-17.07c-2.6-3.96,7.81-.27,10.08.32,13.6,3.52,32.38,8.36,45.22,13.29.51.2,6.21,2.23,4.74,3.47Z"/>
  <path d="M243.02,377.62c5.39,12.26,9.57,23.4,14.23,35.91.58,1.55,4.71,5.55,1.6,8.39l-24.01-56.18.34-1.65c1.02-.09,1.83-.1,2.64.65.64.59,4.3,10.86,5.2,12.89Z"/>
  <path d="M134.91,68.96c-2.04,1.99-21.28-15.03-23.99-17.09-5.31-4.03-18.34-11.83-22.05-16.08-.85-.97-1.59-1.44-1.29-2.98.94-.99,20.67,13.65,22.66,15.13,5.73,4.25,19.43,13.82,23.58,18.49.76.85,1.46.86,1.08,2.53Z"/>
  <path d="M338.07,44.65c-.02,1.83-2.34,2.98-3.64,3.91-10.83,7.77-26.49,17.89-38.09,24.36-7.33,4.09-9.64,2.86-1.96-2.62,10.33-7.37,25.26-16.47,36.37-22.79,2.2-1.25,4.77-3.03,7.32-2.86Z"/>
  <path d="M91.2,126.15c.26.04,3.64,1.41,2.96,2.62-3.8,1.54-7.34.01-10.82-.02-13.8-.11-29.98,1.11-43.38.05-2.08-.17-4.39-.37-3.65-2.65h54.9Z"/>
  <path d="M273.41,362.35c2.18,2.68,4.04,6.42,6.25,9.2,1.71,2.14,22.89,26.83,21.59,28.03-2.52-.07-5.43-3.74-7.13-5.68-9.32-10.63-19.67-24.85-27.7-36.53-.48-.7-1.69-.93-1.98-1.5-.29-1.34.68-1.14,1.62-.96,1.04.2,6.23,6.06,7.35,7.44Z"/>
  <path d="M358.45,149.82c.15.19-.08,1.41,0,1.95-1.62.06-3.23.03-4.85-.09-10.29-.73-34.01-4.62-43.82-7.46-1.65-.48-4.66-.58-4.59-2.96l53.25,8.55Z"/>
  <path d="M359.11,101.16c-6.59.74-54.59,11.96-56.54,9.85-.38-.41-.12-1.69.95-1.33,15.9-2.65,32.32-7.41,48.2-9.66.72-.1,9.65-1.49,7.39,1.14Z"/>
  <path d="M339.89,194.63c.52.7.67,1.83-.82,1.85-2.14.02-33.81-17.54-37.77-20.09-.88-.57-6.02-3.39-4.64-4.89l43.23,23.13Z"/>
  <path d="M302.8,225.16c.68.78,5.02,4.34,5.01,5.17l-2.16.87-26.1-27.79v-2s2.67.62,2.67.62c6.6,7.95,13.83,15.31,20.58,23.14Z"/>
  <path d="M152.93,16.12c3.35,4.74,12.5,21.26,13.89,26.53.29,1.11.43,2.17.3,3.3-8.06-10.05-13.11-22.65-19.06-34.17,3.6-.69,3.35,2.2,4.86,4.34Z"/>
  <path d="M273.36,27.92c-2.48,3.64-5.65,7.12-8.26,10.66-1.35,1.83-6.92,12.78-9.2,10.65-.54-.5.94-3.4,1.34-4.09,3.09-5.37,11.32-17.23,15.3-21.99.36-.43,5.37-5.66,5.71-3.15-1.05,2.98-3.15,5.37-4.89,7.91Z"/>
  <path d="M80.34,168.22l-39.44,15.77c-1.86-1.81,5.87-4.28,7.25-4.9,6.93-3.12,20.56-8.96,27.58-10.55,1.56-.35,3.03-.45,4.61-.32Z"/>
  <path d="M213.51,37.05c-2.63-4.57-.11-16.43-1.06-22.35l2.34-3.57c1.15.73.92,1.8,1.03,2.91.45,4.3,1.2,19.27.65,23.07-.61,4.19-1.82,1.92-2.96-.07Z"/>
  <path d="M298.63,348.97c2.54-2.25,25.39,15.71,28.91,18.07.02,3.05-10.43-4.01-11.24-4.52-4.11-2.56-12.2-7.7-15.64-10.66-.9-.77-2.22-1.48-2.03-2.89Z"/>
  <path d="M137.77,666.26c.72,3.32,1.87,10.27,3.59,13.8,2.49,5.11,10.2,9.84,13.59,14.02s5.73,12.44,8.79,17.51c3.91,6.49,10.48,11.67,11.29,19.27-1.22.26-1.61-.62-2.25-1.36-2.78-3.21-10.18-13.32-12.18-16.89-2.52-4.49-3.84-10.79-6.58-14.78-1.8-2.62-7.04-6.35-9.21-8.72-2.72-2.98-4.57-8.11-8.19-9.55-1.6.36-10.25,19.69-11.97,22.21-2.79,4.07-7.57,7.41-9.37,12.54-1.02,2.93-3.29,19.99-5.07,20.44-1.54.39-2.51-.8-2-2.4,1.85-5.8,2.7-12.59,4.56-18.72,2.11-6.96,8-11.23,11.64-17.43,1.05-1.78,1.46-4.67,2.53-6.53,3.07-5.35,7.54-9.73,9.19-15.85-.96-12.6-4.62-24.53-7.05-36.54l1.27-.78c1.14.39,1.52.9,2.02,1.94,2.97,6.24,3.84,20.56,5.42,27.81Z"/>
  <path d="M474.41,777.29c6.86,7.93,3.99,9.23-4.95,11.64-13.42,3.62-26.1,2.92-39.47-.43-2.81-.7-9.18-1.52-9.74-4.77-.96-5.54,10.24-12.29,15.45-12.17,3.04.07,6.24,2.59,8.31,2.35,2.25-.26,6.26-4.87,10.82-5.53,8.72-1.26,14.25,2.75,19.57,8.9ZM474.47,781.85c-3.24-4.65-10.43-10.96-16.41-10.95-7.83,0-10.07,6.2-12.53,6.64-3.34.6-6.25-2.81-9.35-3.17-5.38-.63-9.96,3.89-12.68,8.1-.07.89.56,1.1,1.1,1.56,2.73,2.29,24.58,5.62,28.87,5.35,2.73-.17,20.98-4.09,21.94-5.34.7-1.87-.58-1.66-.95-2.19Z"/>
  <path d="M152.95,749.64c.77,1.2,3.15,2.73,2.07,4.88-2.56,5.07-38.83,5.27-40.41.22,2.1-5.98,13.7-15.7,20.03-16.6,7.6-1.09,14.48,5.55,18.31,11.5ZM151.36,753.86c-.79-5.48-9.9-13.4-15.41-13.08-5.1.29-14.92,8.76-18.11,12.76.2,2.97,30.01,1.45,33.52.33Z"/>
  <path d="M109.06,790.23c8.84,11.98-15.87,12.74-22.45,12.26-11.41-.83-27.57-5.16-10.7-15.92,9.97-6.36,25.61-6.56,33.15,3.66ZM71.83,796.56c4.97,3.58,35.22,5.59,35.94-1.6-5.27-14.87-31.95-12.71-35.94,1.6Z"/>
  <path d="M183.17,687.23c.1.24.95.4,1.24,1.08,1.37,3.3,4.05,14.7,5.44,16.23,2.03,2.23,8.36,3.32,11.81,7.25,3.19,3.63,7.85,15.17,10.13,16.82,2.54,1.83,10.54,1.02,14.04,2.4.85.34,1.61.87.49,1.5-1.02.57-14.64-.41-16.15-1.61-.32-.25-4.55-5.87-4.9-6.45-1.94-3.23-2.88-8.51-5.54-11.37-3.12-3.34-10.29-4.23-12.47-7.91-1.35-2.28-1.79-6.82-2.92-9.54-.37-.9-1.17-1.02-1.35-1.45-.97-2.35-7.27-18.4-6.63-19.19,3.66,1.88,5.14,8.39,6.83,12.24Z"/>
  <path d="M325.15,788.27c7.21-7.46,23.01-8.54,30.62-1.16s-.35,9.53-7.03,10.61c-5.64.91-35.24,2.6-23.59-9.45ZM354.81,791.06c-6.59-9.79-23.42-7.78-28.57,1.94.18,3.64,15.14,3.17,18.06,2.91,3.96-.35,7.72-1.65,11.52-2.62.56-1.96-.65-1.69-1.01-2.23Z"/>
  <path d="M163.08,798.74c6.27-.39,21.88,5.21,17.25,13.34-3,5.27-28.77,5.44-32.61.98-5.2-6.04,10.21-14,15.37-14.32ZM161.04,801.35c-2.63.52-14.53,7.85-11,10.69,3.02,2.43,26.1,2.12,27.98-1.65-.4-6.88-11.06-10.22-16.98-9.04Z"/>
  <path d="M160.66,759.68c.2-9.8,10.9-12.44,16.37-3.5,1.53,5.82-15.71,4.6-16.37,3.5ZM173.7,757.15c-1.87-5.31-8.29-4.71-9.85.66l9.85-.66Z"/>
  <path d="M218.41,760.44c.07,2.92-1.71,4.98-2.33,7.85-.5,2.31-.71,13.51-3.9,12.52-3.36-1.05,1.37-17.01,3.58-19.41.83-.9,1.43-1.12,2.65-.95Z"/>
  <path d="M543.2,784.77c-.52,2.53-2.16,3.59-3.09,6.43-1.34,4.11-1.23,8.87-2.38,12.76-.26.87-.11,2.15-1.42,1.83-2.55-1.25.15-23.58,6.89-21.02Z"/>
  <path d="M230.9,764.39c-.46,3.65-4.43,4.77-6.72,8.06-1.34,1.92-3,7.15-3.81,7.86s-1,.61-1.95.51c-3.23-3.58,7.3-17.5,12.48-16.43Z"/>
  <path d="M527.84,790.91c2.28,2.47,5.84,11.28,4.86,14.44l-1.67,1.09c-1.73-6.88-4.27-11.99-8.86-17.42-.87-3.14,5.13,1.3,5.67,1.89Z"/>
  <path d="M205.54,767.39c2.78,4.27,4.31,8.27,3,13.42-.76.76-1.18-.08-1.48-.81-1.27-3.07-2.05-7.32-3.44-10.36-.4-.87-7.42-10.27-2.3-7.56,1.4.75,3.29,3.86,4.23,5.3Z"/>
  <path d="M554.37,788.71c1.45,1.48-4.68,5.02-5.52,5.98-2.59,2.97-4.57,7.1-5.08,11.02l-2.55.09c-.36-7.03,5.88-15.81,13.14-17.09Z"/>
  <path d="M399.87,799.22c-3.11,5.1-5.1,10.31-5.26,16.42h-3.28c-1.03-.98,3.45-18.41,8.55-16.42Z"/>
  <path d="M23.8,787.39l-3.95,18.63c-3.7,2.47-2.31-6.88-1.94-8.97.08-.47,1.14-.42,1.27-.93.66-2.57.07-8.75,4.62-8.73Z"/>
  <path d="M11.76,792.2c2.18,2.65,4.99,11.05,2.5,14.25l-2.35-8.01c-.88-.59-7.88-10.72-3.66-8.97.21.09,3.35,2.54,3.51,2.74Z"/>
  <path d="M387.38,815.66c-.17-2.48-.47-5.74-1.36-8.03-.18-.46-6.87-8.45-3.57-8.39,3.32,2.68,5.14,4.48,6.43,8.68.8,2.6,2.86,8.22-1.5,7.74Z"/>
  <path d="M400.93,812.78c-.64.79-1.92,1.04-1.73,2.88-6.25-2.34,5.87-13.76,9.22-11.51l-.02,1.97c-4.2.35-5.36,4.03-7.47,6.67Z"/>
  <path d="M583.3,693.4c.74.77-4.83,9.92-3.94,11.83h-1.97c-.26-4.36.17-11.51,5.91-11.83Z"/>
  <path d="M572.57,695.58c1.1,1.21,3.75,9.32,2.84,10.31l-2.03-.38c.02-2.86-4.25-8.45-4.52-10.48-.29-2.18,3.05-.18,3.72.55Z"/>
  <path d="M32.35,794.62l-8.53,11.82c-1.7-5.19,3.51-11.39,8.53-11.82Z"/>
  <path d="M183.97,380.28c-12.76,36.2-42.31,81.89-73.42,105.04-3.79,2.82-8.53,6.67-13.1,7.6-1.37-1.24,18.16-15.35,19.73-16.75,23.13-20.71,46.85-55.5,59.1-83.69.81-1.86,11.52-33.09,12.55-31.67-.07,6.69-2.65,13.23-4.85,19.48Z"/>
  <path d="M340.3,634.64c9.93,18.03,26.53,36.67,43.89,47.81,4.86,3.12,11.33,5.45,15.69,8.65.68.5,1.73-.17,1.3,1.63-21.89-6.38-40.87-23.48-53.91-41.91-2.66-3.76-13.84-22.53-13.15-26.1.03-.17.96-1.3,1.32-.68,1.02.59,3.84,8.76,4.85,10.61Z"/>
  <path d="M360.36,600.77c.25.19,1.55,4.98,2.1,5.98,13.32,24.31,35.97,40.9,61.73,50.49-5.98.69-11.41-2.32-16.67-4.69-20.57-9.28-43.79-29.39-49.07-51.83.57.08,1.6-.18,1.91.06Z"/>
  <path d="M209.17,159.71c4.78,6.88,14.19,5.22,21.4,4.56.61,5.23-10.54,4.5-14.17,3.65-3.26-.76-12.59-5.8-7.24-8.21Z"/>
  <path d="M353.68,425.72c-2.32,2.44-15.93-4.72-13.48-9.56s18.16,4.64,13.48,9.56Z"/>
  <path d="M422.29,265.43c-.24-.32.02-1.33-.06-1.9,10.53,2.73,24.72,4.34,34.72,8.34,3.61,1.44,3.56,3.1-.68,2.67-3.39-.34-32.91-7.71-33.97-9.11Z"/>
  <path d="M449.18,299.01c-10.03-2.03-21.11-4.46-30.89-7.56-1.9-.6-5.84-1.16-5.92-3.61,2.19-1.74,30.47,7.9,35.22,8.49l1.59,2.68Z"/>
  <path d="M441.99,220.75c-.21-.27.04-1.36-.04-1.92,1.31-1.21,31.35,6.43,34.73,7.67.92.34,2.19.54,2.08,1.85l-36.77-7.6Z"/>
  <path d="M432.83,242.41l.25-2.56,37.78,10.2c-1.41,1.41-4.82.31-6.58.02-10.34-1.68-21.03-5.86-31.45-7.66Z"/>
  <path d="M381.46,279.95c-.71,1.08-7.7-.63-9.21-.97-3.48-.8-25.48-6.43-26.79-7.38-1.92-1.41-.87-2.47,1.15-2.55s31.14,7.65,33.34,8.8c.9.47,1.75.85,1.5,2.11Z"/>
  <path d="M371.61,203.05l36.34,7.37c2.18.88,1.14,3.51-.99,3.03-9.56-3.1-20.15-4.21-29.71-7.17-.52-.16-7.37-1.84-5.64-3.23Z"/>
  <path d="M399.21,232.64l-1.58,1.92c-10.26-2.73-21.93-4.22-31.94-7.52-.63-.21-4.49-.97-3.29-2.29l36.81,7.89Z"/>
  <path d="M353.23,249.01l-.04-1.92c4.18-.19,37.4,7.58,37.46,9.53-.89,1.38-1.54.87-2.76.82-9.82-.35-24.24-7.65-34.67-8.43Z"/>
  <path d="M200.66,112.34c-3.08-10.68,22.38-8.59,22.86-2.86-3.03,7.4-15.97-.42-22.86,2.86Z"/>
  <path d="M241.42,116.94c-1.47-7.5,13.01-5.04,16.61-3.13,2.92,1.55,6.57,7.24,1.62,7.57s-12.75-5.42-18.23-4.44Z"/>
  <path d="M205.49,128.57c1.98,3.34,6.27,4.66,9,1.22.58-.73,3.23-9.29,4.6-2.64,2.08,10.06-19.27,10.85-17.82-.69,1.02-8.15,3.61,1.09,4.21,2.11Z"/>
  <path d="M252.45,136.51l1.81-5.1c2.78-.65,3.32,9.21-3.96,9.88-5.11.47-10.11-4.11-8.76-9.45,5.16-3.56,1.77,9.8,10.91,4.66Z"/>
  <path d="M246.02,465.31l.4-1.98c5.15-2.19,19.64,6,18.67,11.5-.49,2.79-5.49-4.3-6.25-4.91-3.23-2.57-8.6-4.95-12.82-4.61Z"/>
  <path d="M393.06,380.09c1.92,3.19,2.26,7.9-2.57,6.88-2.61-.55-2.96-3.5-4.85-5.04-2.28-1.85-16.91-5.61-9.4-10.24,5.77-3.56,14.03,3.79,16.81,8.4Z"/>
  <path d="M374.04,385.26c9.04-2.12,7.75,8.76.88,10.73-10.11,2.89-7.95-9.07-.88-10.73Z"/>
  <path d="M474.47,781.85c.36.52,1.64.32.95,2.19-.96,1.25-19.2,5.17-21.94,5.34-4.29.27-26.14-3.06-28.87-5.35-.54-.45-1.18-.66-1.1-1.56,2.71-4.21,7.29-8.73,12.68-8.1,3.1.36,6.01,3.77,9.35,3.17,2.46-.44,4.7-6.64,12.53-6.64,5.99,0,13.17,6.3,16.41,10.95Z" fill="#fff"/>
  <path d="M151.36,753.86c-3.51,1.13-33.32,2.64-33.52-.33,3.19-4,13.01-12.47,18.11-12.76,5.51-.32,14.62,7.61,15.41,13.08Z" fill="#fff"/>
  <path d="M71.83,796.56c3.98-14.31,30.67-16.47,35.94-1.6-.72,7.19-30.97,5.18-35.94,1.6Z" fill="#fff"/>
  <path d="M354.81,791.06c.37.54,1.57.27,1.01,2.23-3.8.97-7.57,2.28-11.52,2.62-2.92.26-17.88.73-18.06-2.91,5.15-9.73,21.98-11.74,28.57-1.94Z" fill="#fff"/>
  <path d="M161.04,801.35c5.92-1.18,16.59,2.17,16.98,9.04-1.88,3.77-24.97,4.07-27.98,1.65-3.53-2.84,8.37-10.17,11-10.69Z" fill="#fff"/>
  <path d="M173.7,757.15l-9.85.66c1.56-5.38,7.98-5.97,9.85-.66Z" fill="#fff"/>
</svg>