<?xml version="1.0" encoding="UTF-8"?>
<svg id="Camada_1" xmlns="http://www.w3.org/2000/svg" version="1.1" viewBox="0 0 595.28 841.89">
  <!-- Generator: Adobe Illustrator 29.0.0, SVG Export Plug-In . SVG Version: 2.1.0 Build 186)  -->
  <path d="M.14,841.29V-.06h595v841.34H.14ZM590.54,3.89H4.08v189.96c5.06-5.49,7.99-11.08,16.27-12.33s13.34,1.36,20.54,5.1c3.32-33.33,56.7-37.71,61.81-2.63,11.24-7.78,30.5-2.58,29.57,13.15,16.16-3.34,30.87,11.33,18.74,25.63H4.08v153.81c10.56-6.25,23.41-10.88,35.86-10.55,23.56.62,50.4,25.77,67.99,39.83,10.49,8.39,20.91,16.83,31.41,25.19,17.4-6.54,35.92-8.41,53.71-1.96l2.36-26.22c-20.28,1.65-52.28,10.87-70.29-1.7-11.12-7.76-22.55-29.91-27.62-42.2-4.12-9.97-7.38-21.09-10.03-31.57-14.72-3.84-27.55-13.49-36.6-25.53-3.88-5.17-13.41-21.68-13.53-27.72-.05-2.56,1.44-4.75,1.42-6.24-.03-2.95-2.6-5.58-1.76-10.6.77-4.64,4.57-4.26,5.53-6.3,1.3-2.76-.13-5.61,3.3-8.53,4.01-3.41,8-.99,8.78-1.38.29-.14,1.39-3.19,4.54-3.74,10.08-1.76,20.27,16.29,26.43,22.57,2.31,2.36,10.68,9.54,13.52,10.15.87.19,1.23.09.86-.85-1.52-6.29-.36-17.95,7.66-18.87,13.36-1.53,9.21,12.86,11.87,21.04,1.26,3.86,5.03,7.7,6.06,12.99,1.22,6.24-.14,13.38,0,19.69l35.35,42.25,7.54-.66c-.94-2.01-1.84-3.23-1.91-5.69-.2-6.31,5.24-10.51,6.66-15.52,2.64-9.31-6.85-13.2-8.26-22.27-2.59-16.66,8.03-21.31,15.25-32.53,4.85-7.54,1.49-16.41,2.05-24.9,2.21-33.78,37.33-58.58,70.03-53.54,3.49.54,9.33,3.34,11.85,3.3,2.71-.04,8.19-3.07,12.49-3.29,19.68-1.02,37.31,15.66,38.43,35.16.27,4.73-1.98,8.82-1.69,11.49.55,5.09,10.63,27.22,13.23,33.51,5.61,13.61,17.1,34.21,14.83,49.01-.07.43-4.29,7.76-2.34,8.19,8.95-3.1,18.31-5.18,27.25-8.25,5.59-1.92,23.51-8.1,27.42-11.04,4.22-3.17,13.27-14.01,17.3-18.53,7.96-8.92,16.48-18.88,23.67-28.25,5.79-7.55,2.42-4.71,1.48-11.34-1.24-8.71.01-15.61.52-24.13.36-6.03-1.99-21.21,6.92-22.67,9.46-1.54,11.8,9.6,13.76,16.39,1.58-.01,8.25-14.34,9.59-16.52,1.77-2.89,8.81-14.17,10.78-15.7,5.68-4.39,8.21-.92,11.71-1.41,2.95-.41,2.77-4.22,9.36-3.86s4.61,3.3,6.67,4.69c1.48,1,3.45.39,5.84,2.53,2.84,2.54,2.44,5.97,3.51,7.51.76,1.1,5.08.66,5.94,5.39,3.79,20.63-16.56,64.16-38.8,70.4-14.06,31.52-32.02,67.09-59.84,88.57-19.29,14.89-42.58,23.51-65.68,30.63v28.92c14.62-6.61,28.25-7.3,43.18-1.43,2.01.79,9.41,5.7,10.7,4.69,2.49-12.97,5.37-26.41,14.82-36.13,17.78-18.29,46.87-16.33,64.43,1.15,21.18-19.52,60.07-14.01,75.6,9.81,8.29-3.63,16.37-6.02,25.33-3.07v-97.28h-97.63c-8.68-10.5,4.9-23.34,16.76-21.04-.01-13.38,15.3-19.49,26.3-13.8,1.09-4.38,2.52-9.37,4.92-13.82,8.76-16.19,32.56-23.27,49.65-17.74v-99.91h-152.53l15.12,57.84c-1.64.24-2.03-.12-2.78-1.48-2.48-4.52-2.6-15.78-6.35-20.09-2.37-4.61-7.3-34.56-8.94-36.28-1.52-1.59-5.98.09-8.23-.98-1.66-.78-2.76-5.54-3.97-6.55-1.46-1.22-11.05-3.22-14.23-4.84-7.72-3.93-13.09-11.89-14.02-20.49-4.24,2.68-7.84,6.08-12.46,8.24-13.95,6.55-28.35,5.88-42.7,1.02-6.52,14.43-13.48,28.52-20.92,42.48-3.73,6.99-7.6,15.56-11.83,22.35-.61.98-6.27,7.93-4.91,3.03.35-1.25,2.52-5.86,3.23-7.27,3.81-7.59,9.4-15.59,13.29-23.07,6.6-12.66,12.69-25.72,18.9-38.58-3.98-4.01-8.81-6.75-11.74-11.72-3.67-6.21-2.73-9.49-3.36-16.04-.06-.66.77-.95-.82-.86-2.06.12-6.69,3.03-9.49,3.67-8.59,1.95-16.52.46-24.89-1.57-12.97,13.86-26.87,26.84-40.26,40.29-3.16,3.18-20.45,23-23.32,22.69l-.34-2.31,61.83-62.41c-7.2-2.77-11.02-9.31-14.87-15.51-4.77,1.66-8.88,4.87-14.03,5.67-16.25,2.54-42.96-7.14-37.43-27.57.91-3.36,5.16-8.1,4.24-3.66-.5,2.43-2.46,4.6-2.36,8.16.38,14.33,20.26,21.91,32.49,20.66,8.21-.84,13.02-5.43,20.12-7.82,2.28,20.84,33.59,26.51,48.48,16.01,1.61-1.13,2.31-4.08,4.78-4.17-8.4,25.37,15.9,40.85,38.94,38.59,12.48-1.22,22.87-7.49,31.4-16.25.76,8.55,4.15,18.58,12.05,23.13,1.63.94,11.23,4.66,12.62,4.5,2.59-.3,1.28-3.92,1.93-5.98,4.46-14.19,19.02-19.26,32.58-15.08,1.02-8.29,6.24-17.26,14.03-21.8,9.63-5.61,20.98-4.91,30.68.11-.47-19.61,16.68-40.02,36.51-42.05,19.47-1.99,36.16,7.6,41.08,26.93,3.49-3.33,7.7-6.01,12.48-7.23V3.89ZM590.54,130.75V60.42c-2.49.88-6.56,2.6-8.47,4.35-1.61,1.48-3.7,6.8-5.66,6.16-.7-.23-2.76-11.07-4.09-13.62-15.12-28.95-57.7-18.57-66.41,10.2-1.87,6.17-1.64,12.12-3.15,17.88-.96.3-5.02-3.71-6.64-4.52-17.33-8.66-38.26,4-37.07,23.59-8.44-1.28-13.7-3.7-22.14-.12s-13.97,13.74-10.41,22.47c2.27,5.57,7.92,2.16,12.51,3.93h151.53ZM4.08,199.44c-1.31,3.58.98,16.09,0,20.7h145.96c6.21-9.44-.09-19.96-11.01-20.2-2.91-.06-5.78,1.85-8.75.85.08-9.44-5.36-17.83-15.44-18.13-6.3-.19-8.95,4.1-14.1,5.27-.46-8.06-5.93-18.09-13-22.17-18.72-10.79-46.2,3.64-44.86,26.12-6.72-2.4-8.35-7.5-16.79-7.88-13.17-.6-13.65,5.67-19.33,14-.48.7-2.36.6-2.67,1.44ZM491,211.35c3.37-7.34,4.89-15.89,10.67-21.87-.47-3.41-3.47-4.38-6.45-3.17-6.77,2.75-12.77,24.81-17.1,30.88l8.16,3.58c.98-.24,2.79-6.91,3.48-8.34.33-.68,1.13-.85,1.24-1.08ZM463.65,253.01v-11.5c0-1.61-3.12-7.38-4.33-8.81-1.51-1.78-5.53-3.97-5.86-4.66-1.53-3.26.89-18.55-6.72-20.25-9.38-2.1-6.46,16.31-6.73,21.92-.45,9.48-2.88,18.09,1.8,27.48-.11,1.39-6.99,9.93-8.4,11.74-6.53,8.36-15.2,18.65-22.36,26.48-10.7,11.7-15.07,16.41-30.06,22.53-12.66,5.17-26.09,8.52-38.98,12.99,5.87,10.26,7.47,20.92,9.82,32.22.2.97,1.21.99,1.3,1.48,1.59,8.31,1.55,17.16,3.34,25.48,18.8-5.68,38.23-12.84,54.67-23.62,24.08-15.8,44.36-44.48,57.32-69.62,3.49-6.78,6.66-17.77,10.34-23.63,1.48-2.35,10.52-6.01,13.44-8.39,12.27-10.01,26.18-41.22,25.99-56.89-.06-4.89-3.53-9.42-7.81-4.47-2.49,2.88-5.56,15.29-7.23,19.69-.32.85-1.11.87-1.34,1.45-.34.83-.8,5.66-1.39,6.05-4.01-2.7-27.66-11.76-28.91-14.8-.87-2.11,4.07-.3,4.59.34l10.93-24.31c-.72-5.67-7.07-1.03-9.24,1.34-7.38,8.08-11.68,24.69-20.73,32.52v.95c6.91,3.39,10.86,14.49,9.67,21.86-.29,1.82-.79,4.53-3.11,4.44ZM508.58,200.65c.47-.73,2.13-.62,2.43-2.56.74-4.9-4.91-8.88-9.05-4.71-4.71,4.75-7.77,22.92-13.02,28.75l9.54,4.6c2.44-8.38,5.36-18.66,10.1-26.07ZM306.26,210.53c-6.49-9.97-17.53-16.64-29.64-16.01-4.3.22-9.89,3.42-12.49,3.32-3.35-.13-9.72-3.43-14.57-3.9-30.31-2.99-62.54,20.28-64.65,51.52-.41,6.04,1.19,11.98.66,17.75-1.03,11.28-15.36,17.22-16.94,31.7-1.38,12.61,8,17.28,8.4,25.49.37,7.48-9.7,15.2-5.93,23.95l55.21-9.85c-6.53-7.32-8.88-16.9-11.8-26-2.37-.71-4.39.57-6.91.38-14.46-1.07-20.76-19.05-12.48-30.2,2.67-3.59,12.25-8.86,15.95-4.86.82,11.3,3.23,22.29,6.36,33.08,5.09,17.56,11.51,33.67,31.08,37.94,1.68.37,4.13-.2,5.27.33.31.14,3.09,4.67,4.04,5.48,4.33,3.68,11.03,7.22,16.79,7.53,3.95.22,8.57-1.83,11.17-1.33,1.2.23,4.26,2.82,6.29,3.6,11.85,4.56,19,1.92,26.27-8.03.74-1.01.75-3.25,1.48-3.97,1.17-1.14,7.69-2.01,11.06-5.71,6.17-6.78,2.96-10.39,4.08-16.39.15-.79,2.3-2.81,2.83-5.63,2.49-13.38-6.54-32.49-11.55-44.73l-2.37,13.1c-7.63-2.68-16.39-8.33-24.89-6.52-2.04.44-3.41,2.79-7.25,3.27-4.84.6-10.37-.98-14.82-.37-4.97.68-15.22,6.96-18.83,10.45s-5.59,8.61-9.08,12.32c-12.36-5.24-19.93-17.62-23.05-30.24-3.55-14.4,1.07-24.23-.24-37.87-.06-.6-2.81-2.79-1.27-5.44,2.82-1.55,5.83.63,8.78.6,14.11-.13,31.31-8.75,35.55-23.1,4.95.95,7.79,5.46,12.79,7.59,7.6,3.24,16.04,3.38,24.15,4.12l6.07,8.7c.56-7.4-1.48-15.91-5.51-22.09ZM241.75,237.23c-3.4.42-8.22,0-11.83,0-.25,0-1.02.82-1.64.68,1.21,24.42-4.98,50.7,19.4,66.12,1.92.15,2.93-3.66,3.99-4.96,7.57-9.3,15.62-13.59,26.35-18.35,29.56,7.76,18.12-13.52,7.57-26.85l.89-2.18c2.29-.61,10.07,10.76,11.19,13.12,1.96,4.1,3.42,9.22,3.67,13.75,6.86,1.05,13.85,2.5,19.97,5.98.67-.44.82-.88.98-1.63,1.56-7.58-10.76-45.26-15.54-52.08-4.31-6.15-9.41-3.67-15.52-4.94-7.78-1.62-13.94-4.7-20.58-8.87-5.14,9.79-17.9,18.85-28.9,20.21ZM590.54,235.92c-23-6.11-51.96,6.65-51.27,33.22-6.96-1.65-11.3-6.24-19.19-2.1-1.34.7-6.82,6.47-7.1,7.48-.41,1.42.31,7.16-.64,7.79-3.72.36-6.68-.93-10.6-.08-5.76,1.25-11.13,9.39-7.52,14.83h96.32v-61.13ZM98.47,279.03c.53-1.7,1.34-3.33,1.95-5-5.53-2.37-10.83-5.63-15.17-9.82-4.77-4.6-17.18-22.61-22.48-23.54-2.46-.43-6.45-.13-5.12,3.11l20.72,25.35c.97,1.37,4.61-4.54,5.28-1.32.37,1.79-17.19,20.18-18.73,23.84-6.09-2.28-14.45-21.73-19.73-22.27-8.3-.85-2.61,11.47-.9,15.41,6,13.84,21.41,30.98,35.43,36.88,3.53,1.49,6.64,2.33,10.38,3.1.31,2.84.91,5.7,1.76,8.42,5.73,18.32,21.24,60.08,39.56,68.25,14.2,6.33,48.37,1.08,64-2.17l24.65-6.26c1.74,3.01-19.06,7.53-20.22,8.06-.87.4-1.36.61-1.68,1.61.49,12.31-3.53,27.32-2.14,39.33,1.28,11.09,24.17,4.71,31.29,2.3,27.63-9.37,55.9-35.6,71.98-59.5,2.07-3.08,10.76-17,11.15-19.75.16-1.11.05-1.04-.98-.98-2.37.13-5.29,2.18-9.17,1.99-6.02-.29-12.03-5.33-15.23-5.72-5.04-.61-9.47,2.16-16.68.11-8.21-2.32-12.12-9.94-15.79-11.82-1.61-.83-8.25-.96-11.63-2.18-4.62-1.68-10.87-8.32-13.66-8.69-4.55-.62-9.75.58-14.31.85l-52.47,11.98-38.26-45.87c.32-5.9,1.36-11.74.64-17.71-.66-5.56-4.84-9.65-6.37-15.32s-.11-21.22-9.27-18.41c-7.27,2.23-3.53,16.22-3.87,21.06-.15,2.11-1.89,4.39-2.37,6.89-1.9,9.86-.76,15.16,4.29,23.68-6.31-.45-9.28-10.64-9.22-16.06.04-3.49,1.48-7.03,2.36-9.84ZM55.78,246.02c-6.44-5.47-11.9,1.05-9.31,5.04.32.5,5.55,2.36,6.93,3.58l18.39,23.34,5.25-6.24c-2.45-1.9-4.64-4.16-6.54-6.59-3.83-4.89-10.39-15.45-14.72-19.13ZM51.66,258.68c-1.6-1.6-4.53-5.47-7.49-4.76-.71.17-4.48,3.86-4.56,4.15-.49,1.93.71,6.85,2.58,7.76,1.42.69,3.32-.02,4.79.47,5.12,1.7,16.63,22.6,18.23,21.53l3.89-8.08c-6.74-6.13-11.15-14.81-17.44-21.08ZM207.82,276.09c-20.92.65-15.19,34.3,4.39,28.86l-4.39-28.86ZM339.38,333.85l-1.35.39c-1.2,3.89-2.87,8.89-5.84,11.8s-7.9,3.57-9.85,5.27c-5.54,4.83-10.57,18.81-14.4,25.71-14.28,25.74-43.47,54.08-70.47,66.26-11.91,5.37-25.59,9.26-38.76,6.93,1.54,6.61,7.97,9.41,13.83,11.47,12.79,4.5,54.04,9.32,66.67,6.9,6.07-1.16,23.06-16.98,27.31-22.18,3.3-4.04,6.86-11.91,9.51-14.63.76-.78,1.45-1.44,2.66-1.28-2.01,6.38-6.36,13.48-10.81,18.78-6.56,7.82-15.09,14-23.7,19.34,13.69-1.02,47.51-1.54,57.54-11.15,10.18-9.76,12.45-40.88,12.17-54.27s-5.4-57.03-13.87-67.17c-.42-.5-.47-1.49-.63-2.14ZM4.08,379.21v65.73c21.3-5.63,48.69,1.84,53.92,25.64,4.23-1.44,8.22-3.79,12.85-3.95,10.79-.38,23.86,8.28,24.62,19.72,12.01-7.04,26.22-1.77,29.59,11.83,9.38-6.26,21.95-3.6,27.26,6.48,4.23-2.33,11.48-1.51,15.62.92,5.35,3.14,5.87,11.62,14.21,6.64.3-11.21,2.59-22.95,7.8-32.92s8.59-8.75,8.07-22.21c-.12-3.06-3.26-7.21-3.78-10.67-.48-3.19.79-12.4-1.19-13.93-.87-.67-8.97-2.99-10.55-3.26-12.9-2.19-27.51-.56-39.7,3.88l28.77,18.53-.79,1.81c-39.94-16.91-68.25-55.67-105.33-76.11-21.91-12.08-39.83-9.43-61.37,1.87ZM393.96,525.13c.75.37,14.39,0,16.77,0,13.96,0,25.32,10.73,38.4,13.08,2.06-10.56,4.18-21.17,6.69-31.63,7.78-32.39,16.62-65.33,23.01-98.6.1-.53,1.13-.32,1.31-1.46.64-4.21-1.33-10.71-3.22-14.61-10.49-21.64-40.15-13.58-52.32,2.48-9.32,12.29-10.75,28.76-14.26,43.46-3.96,16.61-8.75,35.63-12.37,52.31-1.44,6.66-6.08,24.53-6.01,30.1.01,1.09,1.72,4.74,2,4.88ZM548.06,396.05c-15.21-25.17-54.49-16.84-64.35,8.81-7.46,19.41-10.65,45.59-15.52,66.52-3.7,15.87-8.54,33.78-12.36,49.69-1.38,5.73-2.16,11.61-4.02,17.2,18.48-1.43,34.6-1.97,50.82,8.02,4.74,2.92,12.5,10.48,16.89,12.05.91.33.94.56,1.63-.36s3.01-15.13,3.69-17.88c8.24-33.1,15.62-66.88,22.9-100.78,3.44-16.04,10.06-27.14.32-43.27ZM479.84,389.96c1.72,3.25,1.5,6.54,3.2,9.61l4.2-6.79c-3.21-4.26-7.62-6.91-12.09-9.62-.16,2.38,3.82,5.15,4.69,6.8ZM559.9,398.67c-4.35-6.12-8.76-10.33-16.04-12.88,3.14,4.76,7.37,7.81,9.33,13.35,6.22,17.61-1.91,35.96-5.44,52.68-7.22,34.21-13.92,69.41-22.88,102.78-.51,1.89-.72,3.9-1.36,5.77l.63,1.25c3.29.72,7.59,4.32,10.9,4.25,1.97-.05.45-2.56.97-4.09,10.66-31.6,16.88-73.39,23.69-107.12,3.73-18.47,12.77-38.3.21-55.97ZM590.54,400.24c-7.85-3.54-17.33-1.69-24.28,3.02,7.12,20.02-2.18,40.74-4.65,60.73h13.48c3.65,0,12.02,4.75,15.45,6.57v-70.33ZM398.97,475.61c3.55-15.48,6.81-31.56,9.12-47.09-15.51-11.11-34.31-11.97-51.33-3.35-1.74,1.66-2.45,14.19-3.46,17.55-1.1,3.65-8.25,13.67-8.52,15.84-.18,1.44.71,3.29.57,5.12-.16,2.21-1.57,6.28-.78,7.89.68,1.36,16.9,15.01,19.71,17.81,3.05,3.04,12.48,15.69,15.5,16.09l12.49-2.71c1.66-1.9,4.68-22.24,5.66-26.43.11-.48.98-.56,1.02-.72ZM4.08,448.55v65.4l166.34-.99c-3.09-7.19-13.34-9.06-19.32-4.32-2.49-2.22-2.26-5.16-4.98-7.54-6.76-5.88-15.95-4.24-22.04,1.67-3.53-10.45-8.12-18.36-20.89-16.27-4.42.72-6.06,4.07-9.69,4.45-.11-15.43-17.53-26.63-31.37-19.21-2.35,1.26-3.3,4.31-6.1,4.09-2.28-23.96-30.86-35.95-51.94-27.28ZM341.98,461.39c-6.53,2.42-11.98,4.9-18.9,6.35-21.02,4.42-49.32,5.03-70.8,3.47-16.95-1.23-36.43-3.53-51.3-11.81-3.45,8.81,1.54,10.8,8.44,13.91,27.69,12.47,94.63,13.16,122.91,2.37,7.06-2.7,11.85-5.89,9.65-14.29ZM590.54,506.72v-31.88c-3.68-3.44-8.26-5.93-13.15-7.23-4.59-1.23-15.61-3.5-17.8,1.95l-7.2,34.86,1.66,1.63,36.48.66ZM375.96,506.96c-6.38-7.31-14.67-15.98-21.77-22.61-3.51-3.27-7.31-6.3-10.69-9.74-2.26-.59-10.58,4.13-13.7,5.11-27.98,8.86-79.85,8.8-108.13,1.05-7.77-2.13-15.61-5.54-22.59-9.52-11.04,13.25-15.74,31.05-14.12,48.2,2.86,30.15,33.35,56.41,59.3,68.23,1.97.9,13.96,4.68,14.25,5.49.62,1.7-3.39.94-4.12.82-12.48-2.11-28.07-12.69-38.28-19.97-14.17,7.57-23.41,36.29-7.12,45.65,29.05,16.69,80.4,19.51,111.34,7.04l29.25-15.45.98.98-1.35,1.94-18.04,10.23c17.38-3.47,36.21-1.4,52.88-7.61,21.8-8.12,35.36-27.97,30.76-51.72-2.75-14.22-28.46-46.2-38.86-58.1ZM391.98,506.73l-11.17.65c-.77.62,6.68,10.09,8.21,10.5l2.96-11.15ZM590.54,509.35l-39.45-.66-12.43,58.12c13.45,4.56,14.81,17.71,21.01,28.14,5.78,9.72,19.94,18.73,22.67,28.75.3,1.1.42,2.17.31,3.3-3.73-3.24-5.61-8.07-8.85-11.84-4.4-5.12-10.92-9.86-14.97-15.91-6.16-9.19-7.62-23.04-18.45-28.25-5.23-2.51-11.56-3.67-17.1-6.57-19.22-10.04-24.22-22.66-49.44-24.19-8.28-.5-20,2.22-26.9,1.25-5.35-.75-18.23-9.3-24.71-11.45-8.41-2.79-17.46-3.1-26.29-2.96-.35,2.89,2.92,4.27,4.21,5.95,3.66,4.73,7.24,10.23,10.45,15.25,1.46,2.27,3.93,9.04,5.22,10.18,1.12.99,7.98,3.06,10.36,4.43,10.64,6.11,17.93,15.09,27.38,21.27,5.82,3.81,15.39,6.28,20.3,11.26,7.38,7.49,15.01,34.67,17.46,45.02,1.52,6.44,1.53,13.77,3.38,20.26,7.04,5.3,14.64,10.29,20.13,17.35,2.79,3.58,12.84,20.58,13.11,24.41.59,8.35-17.13,13.94-23.86,13.94h-9.53c4.05,3.68,7.97,7.73,12.54,10.8s21.87,9.24,12.55,16.6c-16.25,12.84-80.49,12.8-99.9,6.31-5.31-1.78-6.82-2.5-6.1-8.69-12.96-4.63-23.47,4.8-34.65,6.36-5.81.81-12.73-.92-17.55-.46-1.68.16-4.82,2.72-6.58,3.28-7.04,2.26-14.59,4.1-22.05,3.93,11.93,11.94-11.55,14.52-19.41,15.1-5.53.41-34.08.25-37.32-2.57-1.17-1.02-.87-3.48-2.07-3.79-.97-.25-6.17,1.1-7.91,1.14-10.46.27-18.94-1.07-28.91-4.01-4.96-1.46-11.78-5.36-16.48-5.87-8.52-.93-18.75,3.62-27.63,4.59-5.74.63-12.43,1.04-18.07,0-.36-1.53.65-1.54,1.8-1.78,5.06-1.05,10.54-.27,15.53-.93,9.64-1.27,18.96-4.68,28.7-5.49,5.8-5.68,8.88-14.22,14.11-20.08,4.57-5.12,12.9-8.95,16.77-13.47s4.23-10.55,7.28-15.58c2.58-4.25,8.45-8.59,11.81-12.33-15.33-2.95-32.97-3.04-47.9-7-11.7-3.11-17.58-10.4-30.65-11.43-20.08-1.59-30.04,1.8-49.44-8.41-2.21-1.16-12.24-8.6-13.02-8.64-5.59-.27-17.11,23.82-19.23,28.73-2.59,5.97-4.16,13.22-7.17,19.15-3.89,7.66-13.22,15.59-17.57,23.26-1.76,3.11-5.06,9.57-1.02,11.94,6.52,3.83,19.62,3.54,27.14,4.23,5.61-9.24,12.05-19.93,23.41-22.6,8.49-1.99,18.22.65,24.22-7.33.69-.92,4.86-10.84,6.03-9.41-1.08,23.62-23.72,14.27-35.72,21.79-3.42,2.15-14.73,15.06-15.3,18.94-.81,5.52,13.05,9.31,17.37,10.33,3.04.72,18.54,2.12,19.2,2.83.13.15-.08,1.43,0,1.96-9.9.49-29.54-2.43-37.05-9.3-1.57-1.43-2.44-4.43-2.83-4.54-3.1-.87-10.83-.72-14.9-1.4-3.47-.58-14.87-2.5-16.09-6.26-3.28-10.06,14.86-25.98,19.69-33.94,4.49-7.4,5.17-16.34,8.72-24.18l16.12-28.12c-14.65-9.15-46.43-2-55.1-19.54-1.31-.82-.8-6.63-2.37-6.15-15.94,4.82-20.26,31.29-26.46,43.85-3.96,8.02-10.15,14.98-15.56,21.95-2.35,3.02-4.26,6.26-6.31,9.47-2.08,1.04-.53-3.7-.32-4.27,3.41-9.19,17.16-21.79,22.2-33.7,7.03-16.63,8.3-33.53,27.96-41.69,1.87-7.26,3.06-15.17,5.29-22.29,8.22-26.3,17.96-27.21,39.74-39.83,9.98-5.79,14.88-10.8,26.77-14.69,2.21-.72,5.62-.42,7.21-1.3,1.13-.63,4.81-6.36,6.93-8.19,2.87-2.47,12.12-7.89,15.77-7.89h11.18c.17,0,.51.79.99.35.9-.53-.06-10.02-2.3-10.21l-176.53.66v320.76h586.45v-327.99ZM184.88,532.35c-1.31-6.73-15.14-3.69-19.76-1.67-9.01,3.93-13.63,12.91-19.7,19.74-9.65,10.85-38.52,40.12-39.43,53.27-.3,4.27.25,9.92,5.24,10.83-.13-3.99-.17-7.27,1.02-11.15,3.12-10.22,32.92-44.36,41.69-53.63,9.26-9.78,17.02-15.46,30.93-17.39ZM190.43,544.56c-6.65-8.51-17.77-5.53-25.28.6-1.45,1.18-13.76,15.13-14.09,16.15-1.65,5.02,7.27,16.32,10.8,20.03,2.1,2.2,4.27,4.05,6.92,5.57-1.69-17.69,9.01-30.57,24.37-37.44.56-1.02-2.02-4.01-2.72-4.91ZM144.77,545.51c-10.9,1.02-18.54,8.65-27.4,13.68-13.82,7.85-29.29,12.72-36.03,28.39-2.45,5.7-10.1,31.21-10.12,36.54-.07,16.31,29.03,16.13,39.53,18.18,18.36,3.59,27.31,16.76,44.41,22.65,16.78,5.78,28.66,2.12,44.35,4.3,6.77.94,14.75,7.51,21.83,9.72,12.4,3.86,49.67,8.65,61.76,5.81,19.91-4.67,27.92-18.05,43.83-26.51,27.17-14.45,60.95,3.73,88.66-16.53,5.9-4.31,9.59-10.62,15.64-14.6,10.48-6.9,23.4-7.95,34.29-13.7,2.36-1.25,9.98-6.15,10.52-8.59,1.62-7.26-19.78-15.66-24.45-18.7-11.36-7.4-20.21-20.64-34.62-23.55,4.88,22.25-3.66,42.11-23.47,53.11-20.9,11.6-44.87,7.48-67.53,12.02-12.29,2.46-23.92,8.12-36.97,9.71-19.94,2.43-39.69-1.22-58.76-6.81-11.16-3.27-27.35-7.14-31.96-18.66l-17.68-11.23c-5.08,12.11-10.37,26.1-25.61,27.61-26.46,2.61-66.48-3.93-46.25-39.7l36.03-43.14ZM181.6,597.43v-9.53c0-8.38,12.01-23.4,19.77-26.99l-6.82-8.73c-10.74,4.43-21.62,14.4-22.72,26.6-.71,7.88,1.87,15.79,9.77,18.65ZM202.36,584.66c2.87-5.08,5.82-8.64,10.09-12.63-5.68-5.54-5.57-12.15-13.76-5.83-7.56,5.84-14.55,16.47-14.51,26.31.04,10.34,5.89,10.12,12.88,15.42,1.3-.08.15-5.93.31-7.57.62-6.68,1.84-10.12,5-15.7ZM143.75,572.15c-.51-.5-.73-1.19-1.27-1.66l-19.4,24.3c16.52,6.65,34.36,9.31,51.91,11.81,4.23-12.74-.29-8.88-8.76-12.55-14.53-6.29-13.83-13.43-22.49-21.9ZM171.08,613.87c-15.48-1.32-30.73-4.76-45.51-9.39-1.96-.62-5.85-3.05-7.48-3.11-4.34-.16-7.07,15.93.08,15.82,5.17-.07,6.7-9.62,8.52-9.24,3.4.7-2.63,10.41-4.92,11.16,6.45,2.9,8.74.84,12.79-3.94,1.37-1.62,1.26-5.17,4.3-4.59,1.87,1.06-3.82,10.63-6.56,10.52,5.55,3.68,8.91.09,12.76-4.01.95-1.02,2.35-5.97,4.32-4.54,2.51,1.82-4.53,10.01-6.56,11.16l8.53.67c-.22-1.5,7.56-10.65,8.22-10.51,2.55.54-1.07,7.54-1.98,8.52-1.78,1.93-3.47,1.16-4.91,2.64,7.31.61,14.97-5.09,18.4-11.16ZM478.1,608.6c-4.5,2.98-7.9,6.04-12.91,8.45-14.18,6.82-32.4,7.29-41.6,22.02,6.64,8.46,6.19,19.78,11.22,28.92,16.97,10.69,17.76,31.7,31.65,44.32,11.62-6.05,21.97,1.96,33.7,1.49,5.59-.22,25.74-3.53,24.2-11.71s-14.19-25.61-20.27-31.06c-2.7-2.42-10.36-6.55-11.67-9.37-3.64-12.35-4.95-25.81-8.72-38.61-1.48-5.01-3.28-9.87-5.6-14.45ZM422.19,640.84c-4.07,1.48-6.95,5.13-11.35,7.32-24.64,12.26-50.57,1.75-74.44,9.06-12.5,3.83-21.15,14.46-32.12,21-1.73,1.61,4.71,5.91,6.15,7.64,4.02,4.82,8.8,13.85,13.24,17.66s13.01,6.3,17.45,11.15c5.74,6.19,12.4,26.17,20.12,29.51,16.72,7.23,36.85-11.55,54.44-5.14,5.62-7.85,14.75-8.23,22.47-11.64s15.65-11.18,24.83-12.97c-2.54-4.81-6.75-8.57-9.32-13.36-4.86-9.07-6.05-16.97-13.66-25.12-2.31-2.47-6.89-4.74-8.73-7.71-2.69-4.36-6.31-25.62-9.09-27.39ZM301.25,681.56c.06-.05.25-1.36-.32-1.31-1.25.11-1.08,2.49.32,1.31ZM318.14,700.83c-3.23-3.84-7.41-11.19-10.62-14.03-6.31-5.6-24.66-.51-31.72,3.17-15.5,8.07-13.67,20.52-22.26,29.67-4.42,4.71-13.4,8.53-17.62,14.59l-12.24,18.32c14.51,5.54,27.83,9.8,43.75,8.58,10.95-.84,6.65-2.31,13.13-7.25,5.94-4.53,31.03-11.5,38.34-9.41,4.97,1.42,9.72,7.74,12.81,7.91,1.1.06,12.58-1.71,14.3-2.07,3.59-.76,7.46-2.03,10.72-3.75l1.05-.88c-10.59-9.27-11.52-24.04-22.75-32.42-7.47-5.57-9.92-4.13-16.88-12.41ZM518.67,741.18c3.88-4.73-13.52-11.45-16.85-13.98-3.88-2.94-6.58-7.19-11.02-10.02-18.81-11.99-36.44,6.07-53.02,13.14-8.4,3.58-18.17,4.11-22.13,14.63,24.6,8.64,55.41,8.34,80.87,3.34,4.18-.82,19.88-4.37,22.13-7.12ZM277.67,764.95c17.91,2.34,38.24,4.41,55.19-2.82,2.43-3.47-8.09-11.83-11.02-13.4-10.24-5.52-15.98-.51-25.41,2.62-7.57,2.52-18.83,2.41-18.76,13.61Z"/>
  <rect x=".14" y="841.29" width="595" height=".66" fill="#fff"/>
  <path d="M590.54,3.89v53.24c-4.79,1.22-9,3.89-12.48,7.23-4.93-19.33-21.62-28.92-41.08-26.93-19.83,2.03-36.98,22.43-36.51,42.05-9.69-5.01-21.05-5.71-30.68-.11-7.79,4.54-13.01,13.51-14.03,21.8-13.56-4.18-28.12.89-32.58,15.08-.65,2.06.66,5.68-1.93,5.98-1.39.16-10.99-3.56-12.62-4.5-7.89-4.55-11.28-14.58-12.05-23.13-8.53,8.76-18.92,15.03-31.4,16.25-23.04,2.26-47.34-13.22-38.94-38.59-2.46.09-3.17,3.04-4.78,4.17-14.89,10.51-46.2,4.83-48.48-16.01-7.1,2.38-11.91,6.98-20.12,7.82-12.23,1.25-32.1-6.33-32.49-20.66-.09-3.56,1.86-5.73,2.36-8.16.92-4.44-3.33.3-4.24,3.66-5.52,20.43,21.18,30.11,37.43,27.57,5.15-.81,9.27-4.02,14.03-5.67,3.85,6.2,7.67,12.73,14.87,15.51l-61.83,62.41.34,2.31c2.87.31,20.16-19.51,23.32-22.69,13.38-13.46,27.28-26.43,40.26-40.29,8.37,2.03,16.31,3.52,24.89,1.57,2.8-.64,7.43-3.55,9.49-3.67,1.59-.09.76.2.82.86.63,6.54-.31,9.83,3.36,16.04,2.93,4.96,7.76,7.71,11.74,11.72-6.21,12.86-12.3,25.92-18.9,38.58-3.9,7.48-9.49,15.48-13.29,23.07-.71,1.42-2.89,6.03-3.23,7.27-1.36,4.9,4.3-2.05,4.91-3.03,4.23-6.79,8.11-15.36,11.83-22.35,7.44-13.96,14.4-28.05,20.92-42.48,14.35,4.87,28.75,5.53,42.7-1.02,4.61-2.16,8.22-5.57,12.46-8.24.93,8.6,6.3,16.57,14.02,20.49,3.18,1.62,12.76,3.62,14.23,4.84,1.21,1.01,2.31,5.76,3.97,6.55,2.25,1.06,6.71-.61,8.23.98,1.64,1.72,6.57,31.67,8.94,36.28,3.75,4.3,3.86,15.56,6.35,20.09.75,1.36,1.14,1.72,2.78,1.48l-15.12-57.84h152.53v99.91c-17.08-5.53-40.89,1.54-49.65,17.74-2.4,4.44-3.84,9.44-4.92,13.82-11-5.69-26.31.42-26.3,13.8-11.86-2.31-25.44,10.54-16.76,21.04h97.63v97.28c-8.96-2.95-17.04-.56-25.33,3.07-15.53-23.82-54.42-29.33-75.6-9.81-17.56-17.48-46.65-19.44-64.43-1.15-9.44,9.72-12.33,23.16-14.82,36.13-1.29,1.01-8.69-3.9-10.7-4.69-14.93-5.87-28.56-5.18-43.18,1.43v-28.92c23.11-7.11,46.39-15.73,65.68-30.63,27.82-21.47,45.77-57.05,59.84-88.57,22.24-6.23,42.59-49.77,38.8-70.4-.87-4.72-5.18-4.29-5.94-5.39-1.07-1.54-.67-4.97-3.51-7.51-2.39-2.14-4.37-1.54-5.84-2.53-2.06-1.39-.3-4.33-6.67-4.69s-6.41,3.44-9.36,3.86c-3.5.49-6.03-2.97-11.71,1.41-1.97,1.53-9.01,12.8-10.78,15.7-1.34,2.18-8,16.51-9.59,16.52-1.96-6.79-4.3-17.94-13.76-16.39-8.92,1.46-6.56,16.64-6.92,22.67-.51,8.53-1.76,15.42-.52,24.13.94,6.64,4.32,3.79-1.48,11.34-7.19,9.37-15.72,19.33-23.67,28.25-4.02,4.51-13.07,15.36-17.3,18.53-3.91,2.94-21.84,9.12-27.42,11.04-8.95,3.07-18.31,5.14-27.25,8.25-1.95-.44,2.27-7.76,2.34-8.19,2.27-14.8-9.22-35.4-14.83-49.01-2.59-6.29-12.67-28.42-13.23-33.51-.29-2.67,1.96-6.76,1.69-11.49-1.12-19.5-18.75-36.18-38.43-35.16-4.3.22-9.78,3.25-12.49,3.29-2.53.04-8.37-2.77-11.85-3.3-32.71-5.04-67.82,19.76-70.03,53.54-.56,8.49,2.8,17.37-2.05,24.9-7.23,11.23-17.84,15.88-15.25,32.53,1.41,9.07,10.9,12.95,8.26,22.27-1.42,5.01-6.86,9.21-6.66,15.52.08,2.46.98,3.68,1.91,5.69l-7.54.66-35.35-42.25c-.14-6.31,1.21-13.45,0-19.69-1.03-5.28-4.8-9.12-6.06-12.99-2.66-8.18,1.49-22.57-11.87-21.04-8.02.92-9.18,12.58-7.66,18.87.37.94,0,1.04-.86.85-2.84-.61-11.2-7.8-13.52-10.15-6.16-6.28-16.36-24.32-26.43-22.57-3.15.55-4.26,3.6-4.54,3.74-.78.39-4.77-2.03-8.78,1.38-3.43,2.92-2,5.76-3.3,8.53-.96,2.04-4.76,1.66-5.53,6.3-.83,5.02,1.73,7.65,1.76,10.6.02,1.49-1.47,3.67-1.42,6.24.12,6.05,9.65,22.56,13.53,27.72,9.05,12.04,21.88,21.69,36.6,25.53,2.65,10.48,5.91,21.6,10.03,31.57,5.08,12.29,16.5,34.44,27.62,42.2,18.02,12.57,50.01,3.35,70.29,1.7l-2.36,26.22c-17.79-6.45-36.3-4.58-53.71,1.96-10.5-8.37-20.93-16.81-31.41-25.19-17.58-14.06-44.43-39.21-67.99-39.83-12.45-.33-25.3,4.3-35.86,10.55v-153.81h146.94c12.13-14.3-2.59-28.97-18.74-25.63.93-15.73-18.33-20.93-29.57-13.15-5.11-35.08-58.49-30.7-61.81,2.63-7.21-3.74-11.94-6.4-20.54-5.1s-11.21,6.84-16.27,12.33V3.89h586.45ZM316.99,36.14c-1.11-.27-1.84.46-1.89,1.54,11.18,31.7,56.56,34.77,80.45,15.51,9,21.14,36.48,25.72,55.38,15.22,2.48-1.38,11.24-7.1,8.44-9.95-3.25,2.28-7.14,6.07-10.5,7.89-13.64,7.42-41.78,5.84-48.45-10.75-1.36-3.39-.47-6.17-2.92-8.35-3.54,2.13-6.11,5.1-9.77,7.27-19.3,11.44-50,10.18-64.75-8.26-1.57-1.96-5.41-9.98-5.98-10.12ZM132.52,52.31c-18.43-28.44-64.7-15.39-65.98,17.96-12.85-5.12-25.42-.3-27.73,13.68-12.14,1.35-23.49,8.42-19.78,22.32l179.5.97c8.96-8.56,2.95-25.08-7.54-29.59-6.08-2.61-13.17-2.89-19.24-.15.83-19.7-20.11-26.88-34.85-15.78.06-4.33-2.54-6.58-4.38-9.42ZM306.51,100.52l-35.49,46.66c1.25.23,1.78-.22,2.67-.94,1.8-1.44,8.4-10.13,10.37-12.64,7.67-9.75,14.42-20.37,22.26-29.98l.19-3.11ZM364.14,162.1c1.1-5.55,6.79-31.59,6.16-34.95-.14-.76-.36-1.19-1-1.64-1.9-.03-4.3,16.9-4.87,19.41-4.29,18.78-8.64,39.86-12.49,58.65-.57,2.77-4.23,18.39-1.7,19.2l3.01-6.86c2.58-18.02,7.49-36.6,10.89-53.8ZM401.83,128.12c-1.6-.23-1.04.03-1.38.91-1.12,2.81-.64,9.87-.6,13.27.28,20.86.79,43.58,1.96,64.4.15,2.7.47,7.12,1.67,9.49l-1.65-88.06Z" fill="#fff"/>
  <path d="M590.54,509.35v327.99H4.08v-320.76l176.53-.66c2.24.19,3.2,9.69,2.3,10.21-.48.43-.82-.35-.99-.35h-11.18c-3.65,0-12.91,5.42-15.77,7.89-2.12,1.83-5.79,7.56-6.93,8.19-1.58.88-5,.58-7.21,1.3-11.89,3.89-16.79,8.91-26.77,14.69-21.78,12.62-31.52,13.54-39.74,39.83-2.23,7.12-3.42,15.03-5.29,22.29-19.66,8.16-20.93,25.06-27.96,41.69-5.04,11.92-18.78,24.52-22.2,33.7-.21.57-1.76,5.31.32,4.27,2.05-3.21,3.97-6.45,6.31-9.47,5.41-6.96,11.6-13.93,15.56-21.95,6.2-12.56,10.52-39.02,26.46-43.85,1.58-.48,1.06,5.33,2.37,6.15,8.67,17.54,40.45,10.38,55.1,19.54l-16.12,28.12c-3.55,7.84-4.23,16.78-8.72,24.18-4.83,7.97-22.97,23.88-19.69,33.94,1.22,3.75,12.62,5.67,16.09,6.26,4.07.68,11.8.53,14.9,1.4.39.11,1.26,3.1,2.83,4.54,7.52,6.87,27.16,9.78,37.05,9.3-.08-.53.13-1.82,0-1.96-.65-.72-16.16-2.11-19.2-2.83-4.32-1.02-18.17-4.81-17.37-10.33.57-3.89,11.88-16.8,15.3-18.94,12-7.52,34.64,1.82,35.72-21.79-1.17-1.43-5.34,8.49-6.03,9.41-6.01,7.99-15.74,5.34-24.22,7.33-11.36,2.67-17.8,13.36-23.41,22.6-7.52-.7-20.62-.41-27.14-4.23-4.04-2.37-.74-8.83,1.02-11.94,4.35-7.68,13.68-15.6,17.57-23.26,3.01-5.93,4.58-13.17,7.17-19.15,2.13-4.91,13.64-29,19.23-28.73.78.04,10.81,7.48,13.02,8.64,19.4,10.21,29.37,6.82,49.44,8.41,13.06,1.03,18.95,8.32,30.65,11.43,14.93,3.97,32.57,4.06,47.9,7-3.36,3.74-9.23,8.08-11.81,12.33-3.05,5.03-3.26,10.88-7.28,15.58s-12.2,8.35-16.77,13.47c-5.23,5.85-8.3,14.39-14.11,20.08-9.74.82-19.06,4.22-28.7,5.49-4.99.66-10.47-.12-15.53.93-1.15.24-2.16.25-1.8,1.78,5.64,1.03,12.33.62,18.07,0,8.88-.97,19.11-5.51,27.63-4.59,4.69.51,11.52,4.41,16.48,5.87,9.97,2.94,18.45,4.28,28.91,4.01,1.74-.04,6.93-1.39,7.91-1.14,1.2.31.9,2.77,2.07,3.79,3.24,2.82,31.79,2.98,37.32,2.57,7.86-.58,31.34-3.16,19.41-15.1,7.46.18,15.02-1.67,22.05-3.93,1.76-.56,4.9-3.12,6.58-3.28,4.81-.46,11.74,1.27,17.55.46,11.18-1.56,21.69-10.99,34.65-6.36-.72,6.19.79,6.91,6.1,8.69,19.41,6.49,83.65,6.53,99.9-6.31,9.31-7.36-8.15-13.64-12.55-16.6s-8.5-7.12-12.54-10.8h9.53c6.72,0,24.45-5.59,23.86-13.94-.27-3.83-10.33-20.83-13.11-24.41-5.49-7.05-13.08-12.05-20.13-17.35-1.85-6.48-1.86-13.81-3.38-20.26-2.44-10.34-10.08-37.53-17.46-45.02-4.91-4.98-14.48-7.45-20.3-11.26-9.44-6.18-16.73-15.16-27.38-21.27-2.38-1.37-9.24-3.44-10.36-4.43-1.29-1.14-3.77-7.91-5.22-10.18-3.21-5.02-6.79-10.52-10.45-15.25-1.29-1.67-4.57-3.05-4.21-5.95,8.82-.14,17.88.17,26.29,2.96,6.48,2.15,19.36,10.7,24.71,11.45,6.89.97,18.61-1.75,26.9-1.25,25.22,1.52,30.23,14.15,49.44,24.19,5.54,2.89,11.87,4.06,17.1,6.57,10.83,5.2,12.29,19.06,18.45,28.25,4.05,6.05,10.57,10.78,14.97,15.91,3.25,3.77,5.13,8.6,8.85,11.84.11-1.13,0-2.2-.31-3.3-2.73-10.02-16.9-19.03-22.67-28.75-6.2-10.43-7.56-23.58-21.01-28.14l12.43-58.12,39.45.66ZM65.22,542.22c-5.77.35-7.41,8.15-9.21,12.48-1.34-2.76-7.23-10.67-10.19-11.16-1.06-.17-1.08-.03-.98.98.06.63,6.78,8.35,7.88,10.02s1.04,4.16,2.97,5.26c2.18.46,3.99-8.53,5.02-10.6,1.43-2.87,3.83-4.08,4.52-6.98ZM570.16,555.36c-.83-4.06-3.69-8.74-7.89-9.85-.86.9,3.82,6.31,4.52,7.63,1.12,2.12,1.32,7.27,3.71,7.53,2.8.3,6.27-10.66,7.54-13.19-1.91-1.85-6.1,7.52-7.88,7.88ZM62.6,559.31c4.01.75,2.98-2.42,4.33-4.54.55-.86,5.98-7.05,3.23-7.28-2.41.76-9.66,9.69-7.56,11.81ZM512.04,581.27c-11.08-10.58-18.29-5.08-30.91-6.9-6.71-.97-12.46-9.81-19.45-6.17l17.08,8.54c11.35,3.19,20.67-3.83,31.26,6.21,8.57,8.13,6.1,18.25,12.48,26.97,1.42.27,1.02-.6.93-1.58-.75-7.88-5.59-21.53-11.39-27.07ZM57.12,603.55c-3.92-5.54-28-3.03-24.66,5.92,1.66,4.47,31.27,3.41,24.66-5.92ZM536.24,639.23c-7.04-10.49-.8,6.06-.45,8,.44,2.42-.02,4.9.23,7.32,2.46.95,3-1.62,4.87,1.37,1.91-2.02,1.94-4.79,3.33-7.18,2.25-3.87,6.19-4.69,6.86-8.58-7,.43-9.43,8.42-11.82,13.8.17-5.13-.07-10.34-3.02-14.72ZM519.53,640.16c.42,3.91,5.45,4.31,8.23,7.21,1.56,1.64,4.77,9.41,5.89,9.21,3.37-.6-3.24-10.42-4.28-11.49-1.21-1.24-8.46-6.25-9.85-4.94ZM67.19,671.05c-12.05,7.15-11.8,24.87-14.53,36.94-.08.35-3.94,5.94-1.56,6.44s3.36-3.61,3.91-5.27c3.45-10.27,2.26-19.79,8.04-30.68,1.03-1.94,5.09-3.87,4.14-7.42ZM573.23,698.21c-5.26-5.36-20.09-5.48-25.4.14-2.45,2.59-3.13,6.3.99,7.5,4.57,1.33,33.28,1.39,24.41-7.64ZM159.9,764.38c-.58-.83-8.05-18.86-11.17-15.77l8.87,18.41,2.3.65c.05-1.09-.05-2.19,0-3.28.35.5,1.89,2.46,2.62,1.97l1.32-21.03c-5.28,2.65-3.69,13.64-3.94,19.06ZM175.68,753.21c-1.9-1.88-12.82,10.06-10.51,13.8l3.24-1.83,7.27-11.97ZM71.14,762.42c-6.51,1.75-12.01,9-11.83,15.77-1.7.31-1.02-.23-1.38-.92-2.73-5.32-3.61-10.55-9.97-13.69-.7-.34-2.76-1.34-2.47.49.23,1.41,6.01,5.55,7.25,7.4,1.76,2.64,3.53,10.89,4.01,11.25,5,3.78,5.54-7.91,6.53-9.92.68-1.38,9.11-9.12,7.86-10.38ZM554.2,779.99c7.32-8.71-17.91-14.88-26.8-5.44-1.31,1.39-.65,3.36-2.62,3.96,3.18,3.48,6.08,4.64,10.83,4.95,3.49.22,16.44-.92,18.59-3.47ZM50.76,782.78c.47-5.92-6.25-10.54-11.83-9.85.86,2.7,5.45,3.32,7.57,5.24,1.76,1.61,1.92,4.24,4.26,4.61ZM347.94,794.62c-.77-5.6-4.63-11.44-10.18-13.15-3.42.68,3.6,5.45,4.25,6.26,3.05,3.79,4.32,12.63,4.99,12.83.41.13,3.26.07,3.5-.1.68-6.73,4.72-12.23,7.3-18.33-5.44,1.27-7.17,6.77-8.55,11.5-.26.9.51,1.19-1.3.98ZM442.46,782.31c-5.12.52-21.4,6.15-18.44,13.43,2.8,6.89,27.58,4.42,33.72,2.5,5.02-1.57,9.07-3.33,5.8-9.11-3.63-6.43-14.52-7.48-21.08-6.82ZM213.35,795.74c5.33,6.63,41.55,4.53,29.42-7.39-4.91-4.83-16.83-4.29-22.74-1.64-2.37,1.06-9.02,6.11-6.68,9.03ZM367.65,786.74c-6.09.69-11.77,6.1-11.17,12.48,3.03-1,3.4-5.33,5.88-7.58,1.93-1.76,5.7-1.79,5.29-4.9ZM97.61,803c6.86,4.88,35.6,5.01,39.2-2.23,4.01-8.07-14.72-13.4-20.45-13.19-7.85.28-21.15,6.24-18.75,15.43Z" fill="#fff"/>
  <path d="M375.96,506.96c10.4,11.91,36.1,43.89,38.86,58.1,4.6,23.75-8.97,43.59-30.76,51.72-16.67,6.21-35.5,4.14-52.88,7.61l18.04-10.23,1.35-1.94-.98-.98-29.25,15.45c-30.94,12.47-82.29,9.65-111.34-7.04-16.29-9.36-7.05-38.08,7.12-45.65,10.22,7.28,25.81,17.86,38.28,19.97.73.12,4.73.88,4.12-.82-.29-.8-12.28-4.59-14.25-5.49-25.95-11.82-56.44-38.08-59.3-68.23-1.63-17.15,3.08-34.95,14.12-48.2,6.98,3.98,14.82,7.4,22.59,9.52,28.28,7.75,80.15,7.82,108.13-1.05,3.12-.99,11.44-5.7,13.7-5.11,3.37,3.44,7.18,6.47,10.69,9.74,7.1,6.62,15.38,15.3,21.77,22.61ZM329.29,503.21c.71-2.03.99-4.2.88-6.35-1.26-1.73-8.33,14.92-9.08,16.22-1.88,3.24-4.5,5.47-6.03,8.76,1.1.17,1.94-.23,2.86-.75,3.05-1.69,10.15-14.43,11.36-17.88ZM276.28,520.53c-.72.75,3.94,5.06,4.62,5.56,14.23,10.36,46.69,28.41,64.11,28.64,3.02.04,4.28-1.83,1.24-2.62-6.21-1.61-12.88-2.32-19.22-4.44-18.38-6.16-33.49-18.71-50.76-27.13Z" fill="#fff"/>
  <path d="M98.47,279.03c-.88,2.81-2.33,6.35-2.36,9.84-.06,5.41,2.9,15.6,9.22,16.06-5.05-8.52-6.19-13.82-4.29-23.68.48-2.5,2.22-4.78,2.37-6.89.34-4.84-3.4-18.83,3.87-21.06,9.15-2.81,7.81,12.98,9.27,18.41s5.7,9.77,6.37,15.32c.71,5.97-.32,11.82-.64,17.71l38.26,45.87,52.47-11.98c4.56-.27,9.76-1.47,14.31-.85,2.79.38,9.04,7.02,13.66,8.69,3.37,1.22,10.01,1.36,11.63,2.18,3.67,1.88,7.59,9.49,15.79,11.82,7.21,2.04,11.64-.72,16.68-.11,3.2.39,9.21,5.43,15.23,5.72,3.88.18,6.8-1.86,9.17-1.99,1.03-.06,1.14-.13.98.98-.4,2.75-9.08,16.67-11.15,19.75-16.08,23.9-44.34,50.13-71.98,59.5-7.12,2.41-30.01,8.79-31.29-2.3-1.39-12.01,2.63-27.03,2.14-39.33.32-.99.81-1.21,1.68-1.61,1.16-.53,21.96-5.05,20.22-8.06l-24.65,6.26c-15.63,3.25-49.81,8.5-64,2.17-18.32-8.16-33.83-49.92-39.56-68.25-.85-2.73-1.45-5.58-1.76-8.42-3.74-.77-6.85-1.62-10.38-3.1-14.02-5.9-29.43-23.04-35.43-36.88-1.71-3.94-7.4-16.26.9-15.41,5.27.54,13.63,20,19.73,22.27,1.54-3.66,19.1-22.05,18.73-23.84-.66-3.21-4.31,2.69-5.28,1.32l-20.72-25.35c-1.33-3.25,2.67-3.54,5.12-3.11,5.3.93,17.71,18.94,22.48,23.54,4.35,4.19,9.65,7.45,15.17,9.82-.61,1.66-1.42,3.3-1.95,5Z" fill="#fff"/>
  <path d="M144.77,545.51l-36.03,43.14c-20.23,35.76,19.79,42.3,46.25,39.7,15.24-1.5,20.53-15.5,25.61-27.61l17.68,11.23c4.61,11.52,20.8,15.39,31.96,18.66,19.07,5.59,38.82,9.24,58.76,6.81,13.04-1.59,24.68-7.25,36.97-9.71,22.66-4.54,46.63-.42,67.53-12.02,19.81-11,28.35-30.85,23.47-53.11,14.41,2.9,23.27,16.15,34.62,23.55,4.67,3.04,26.07,11.45,24.45,18.7-.54,2.44-8.16,7.34-10.52,8.59-10.89,5.75-23.81,6.8-34.29,13.7-6.05,3.98-9.74,10.29-15.64,14.6-27.7,20.26-61.49,2.08-88.66,16.53-15.91,8.46-23.92,21.84-43.83,26.51-12.09,2.84-49.36-1.94-61.76-5.81-7.08-2.21-15.07-8.78-21.83-9.72-15.69-2.18-27.57,1.48-44.35-4.3-17.09-5.89-26.05-19.06-44.41-22.65-10.5-2.05-39.6-1.87-39.53-18.18.02-5.33,7.67-30.84,10.12-36.54,6.75-15.67,22.22-20.54,36.03-28.39,8.85-5.03,16.5-12.66,27.4-13.68ZM176.34,646.07c6.31-.66,12.25-3.14,18.73-2.61,6.26.51,11.28,5.08,16.51,5.84,4.38.64,9.71-.27,14.31.15,6.61.6,15.23,4.36,20.5,4.52,1.34.04,2.65.32,3.58-.99,0-1.16-19.22-5.94-21.44-6.16-5.36-.54-11.72.63-16.85-.24-5.91-1.01-10.19-5.99-18.09-6.22-1.52-.05-20.48,3.04-17.24,5.72Z" fill="#fff"/>
  <path d="M4.08,379.21c21.53-11.3,39.46-13.94,61.37-1.87,37.08,20.44,65.39,59.2,105.33,76.11l.79-1.81-28.77-18.53c12.19-4.43,26.8-6.06,39.7-3.88,1.58.27,9.68,2.59,10.55,3.26,1.98,1.53.71,10.74,1.19,13.93.52,3.46,3.66,7.61,3.78,10.67.52,13.46-3.06,12.62-8.07,22.21s-7.5,21.71-7.8,32.92c-8.34,4.98-8.86-3.5-14.21-6.64-4.15-2.43-11.4-3.25-15.62-.92-5.31-10.08-17.88-12.74-27.26-6.48-3.37-13.61-17.59-18.87-29.59-11.83-.76-11.44-13.83-20.1-24.62-19.72-4.63.16-8.62,2.51-12.85,3.95-5.23-23.8-32.62-31.27-53.92-25.64v-65.73Z" fill="#fff"/>
  <path d="M306.26,210.53c4.03,6.18,6.07,14.7,5.51,22.09l-6.07-8.7c-8.1-.74-16.54-.88-24.15-4.12-5-2.13-7.84-6.64-12.79-7.59-4.23,14.35-21.43,22.97-35.55,23.1-2.95.03-5.96-2.15-8.78-.6-1.55,2.65,1.21,4.85,1.27,5.44,1.31,13.64-3.31,23.47.24,37.87,3.11,12.62,10.68,25,23.05,30.24,3.5-3.71,5.37-8.73,9.08-12.32s13.86-9.77,18.83-10.45c4.45-.61,9.98.98,14.82.37,3.84-.48,5.21-2.83,7.25-3.27,8.5-1.82,17.26,3.83,24.89,6.52l2.37-13.1c5.01,12.24,14.04,31.35,11.55,44.73-.52,2.82-2.68,4.84-2.83,5.63-1.12,5.99,2.09,9.6-4.08,16.39-3.37,3.7-9.89,4.57-11.06,5.71-.74.72-.74,2.95-1.48,3.97-7.27,9.95-14.42,12.59-26.27,8.03-2.03-.78-5.09-3.37-6.29-3.6-2.6-.5-7.22,1.55-11.17,1.33-5.76-.31-12.46-3.86-16.79-7.53-.95-.81-3.73-5.34-4.04-5.48-1.14-.53-3.59.03-5.27-.33-19.57-4.28-25.99-20.38-31.08-37.94-3.13-10.79-5.54-21.78-6.36-33.08-3.7-4-13.29,1.27-15.95,4.86-8.29,11.16-1.99,29.14,12.48,30.2,2.52.19,4.54-1.1,6.91-.38,2.92,9.1,5.27,18.68,11.8,26l-55.21,9.85c-3.78-8.75,6.29-16.47,5.93-23.95-.4-8.21-9.78-12.89-8.4-25.49,1.58-14.48,15.91-20.42,16.94-31.7.53-5.77-1.07-11.71-.66-17.75,2.11-31.24,34.34-54.51,64.65-51.52,4.84.48,11.22,3.77,14.57,3.9,2.6.1,8.19-3.09,12.49-3.32,12.11-.63,23.15,6.04,29.64,16.01ZM308.81,294.41h-13.15c-3.3,0-25.53,6.91-25.97,9.54-.53,3.17,4.74.56,5.59.59,1.1.04,2.91,1.62,4.4,1.9,6.1,1.15,11.58,2.03,17.62-.53,1.39-.59,6.65-3.54,4.26-5.59-6.2,4.63-14.99,5.87-22.37,3.32-.88-.31-1.17.39-.95-1.33,4.59-.97,9.01-3.01,13.66-3.77s13.1-.08,16.11-.98c1.59-.48,2.51-2.12.8-3.14Z" fill="#fff"/>
  <path d="M463.65,253.01c2.32.08,2.81-2.62,3.11-4.44,1.19-7.37-2.76-18.47-9.68-21.86v-.95c9.07-7.83,13.36-24.43,20.74-32.52,2.17-2.37,8.52-7.02,9.24-1.34l-10.93,24.31c-.52-.63-5.46-2.45-4.59-.34,1.25,3.04,24.91,12.1,28.91,14.8.59-.39,1.05-5.21,1.39-6.05.24-.58,1.02-.6,1.34-1.45,1.67-4.41,4.74-16.81,7.23-19.69,4.28-4.95,7.76-.41,7.81,4.47.19,15.67-13.72,46.88-25.99,56.89-2.92,2.38-11.97,6.04-13.44,8.39-3.68,5.86-6.85,16.86-10.34,23.63-12.96,25.14-33.24,53.82-57.32,69.62-16.44,10.78-35.86,17.94-54.67,23.62-1.8-8.31-1.76-17.16-3.34-25.48-.09-.49-1.1-.51-1.3-1.48-2.35-11.3-3.95-21.96-9.82-32.22,12.89-4.48,26.32-7.82,38.98-12.99,14.99-6.12,19.36-10.83,30.06-22.53,7.16-7.82,15.83-18.12,22.36-26.48,1.42-1.81,8.29-10.35,8.4-11.74-4.69-9.39-2.25-18-1.8-27.48.26-5.62-2.65-24.02,6.73-21.92,7.61,1.7,5.19,17,6.72,20.25.32.69,4.35,2.88,5.86,4.66,1.21,1.43,4.33,7.2,4.33,8.81v11.5Z" fill="#fff"/>
  <path d="M548.06,396.05c9.75,16.14,3.13,27.23-.32,43.27-7.27,33.9-14.66,67.68-22.9,100.78-.68,2.74-3,16.95-3.69,17.88s-.72.68-1.63.36c-4.39-1.57-12.15-9.13-16.89-12.05-16.23-9.99-32.34-9.45-50.82-8.02,1.86-5.59,2.64-11.48,4.02-17.2,3.82-15.9,8.66-33.82,12.36-49.69,4.88-20.93,8.06-47.11,15.52-66.52,9.86-25.65,49.14-33.98,64.35-8.81ZM532.66,429.18l-31.21-3.35-3.61,1.04c-.25,1.09,1.36,2.08,2.32,2.27,5.9,1.19,19.35,2.33,25.63,2.64,2.29.11,4.61-.04,6.89,0l-.02-2.6ZM488.63,453.48l35.84,4c6.37-1.18,1.35-2.85-2.07-3.25-11.07-1.31-22.79-2.21-33.76-2.7v1.94ZM485.12,475.28c-3.28,1.2.8,2.75,2.59,3.11,7.29,1.47,21.56,3.35,28.85,3.39,7.45.04,4.4-2.24-.75-3.22-3.38-.64-29.24-3.81-30.69-3.28ZM514.92,506.06c.21-1.94-2.25-2.3-3.68-2.56-7.02-1.29-24.4-4.01-30.95-3.95-3.35.03-4.09,1.44-.76,2.79,2.6,1.05,27.67,4.42,31.15,4.41,1.48,0,2.79-.58,4.23-.68Z" fill="#fff"/>
  <path d="M422.19,640.84c2.78,1.77,6.4,23.03,9.09,27.39,1.83,2.97,6.42,5.24,8.73,7.71,7.61,8.15,8.8,16.05,13.66,25.12,2.57,4.79,6.78,8.55,9.32,13.36-9.18,1.8-16.84,9.44-24.83,12.97s-16.85,3.79-22.47,11.64c-17.59-6.41-37.72,12.37-54.44,5.14-7.72-3.34-14.38-23.32-20.12-29.51-4.44-4.84-13.08-7.39-17.45-11.15s-9.23-12.84-13.24-17.66c-1.44-1.73-7.88-6.03-6.15-7.64,10.97-6.54,19.62-17.17,32.12-21,23.87-7.31,49.8,3.2,74.44-9.06,4.4-2.19,7.28-5.83,11.35-7.32Z" fill="#fff"/>
  <path d="M590.54,130.75h-151.53c-4.59-1.78-10.24,1.63-12.51-3.94-3.57-8.73,2.23-19.01,10.41-22.47s13.71-1.16,22.14.12c-1.19-19.59,19.74-32.25,37.07-23.59,1.62.81,5.68,4.82,6.64,4.52,1.51-5.76,1.29-11.72,3.15-17.88,8.7-28.77,51.29-39.15,66.41-10.2,1.33,2.55,3.39,13.39,4.09,13.62,1.96.64,4.05-4.68,5.66-6.16,1.91-1.76,5.97-3.47,8.47-4.35v70.33Z" fill="#fff"/>
  <path d="M339.38,333.85c.16.66.21,1.64.63,2.14,8.47,10.14,13.59,53.35,13.87,67.17s-1.99,44.51-12.17,54.27c-10.03,9.61-43.85,10.14-57.54,11.15,8.61-5.34,17.14-11.52,23.7-19.34,4.45-5.3,8.81-12.4,10.81-18.78-1.21-.16-1.9.5-2.66,1.28-2.64,2.71-6.21,10.59-9.51,14.63-4.25,5.2-21.24,21.02-27.31,22.18-12.62,2.42-53.87-2.4-66.67-6.9-5.86-2.06-12.3-4.85-13.83-11.47,13.17,2.33,26.85-1.56,38.76-6.93,27.01-12.18,56.19-40.52,70.47-66.26,3.82-6.89,8.86-20.88,14.4-25.71,1.95-1.7,6.9-2.37,9.85-5.27s4.65-7.91,5.84-11.8l1.35-.39Z" fill="#fff"/>
  <path d="M393.96,525.13c-.29-.14-1.99-3.79-2-4.88-.08-5.58,4.56-23.44,6.01-30.1,3.61-16.68,8.4-35.7,12.37-52.31,3.51-14.7,4.94-31.17,14.26-43.46,12.17-16.06,41.83-24.12,52.32-2.48,1.89,3.9,3.87,10.4,3.22,14.61-.17,1.13-1.21.93-1.31,1.46-6.38,33.27-15.23,66.21-23.01,98.6-2.51,10.46-4.63,21.08-6.69,31.63-13.08-2.36-24.44-13.08-38.4-13.08-2.37,0-16.01.37-16.77,0ZM431.87,422.04c-.32.12-.6.22-.77.54-.77.73-.27,1.1.36,1.62,1.14.95,21.27,3.11,23.96,3.04s5.76-1.3,1.94-2.64c-2.01-.7-24.13-3.05-25.49-2.56ZM425.28,447.01l-.44,1.55c2.7.75,5.55,1.17,8.32,1.54,4.01.53,12.72,1.69,16.35,1.47,3.04-.19,4.4-1.95,1.3-2.68-7.47-1.74-17.73-.96-25.53-1.89ZM419.59,471.88c7.17.46,15.6,2.56,22.66,2.66,1.66.02,3.75.47,4.95-1.02.25-1.17-1.59-1.92-2.45-2.14-3.23-.85-18.74-2.16-22.29-2.05-1.97.06-3.39.29-2.87,2.56ZM441.29,498.83c.06-1.07.23-1.53-.68-2.28s-21.29-3.1-23.36-3.01c-.96.04-2.9.93-2.91,1.67-.01,2.95,23.7,3.15,26.94,3.61Z" fill="#fff"/>
  <path d="M4.08,448.55c21.09-8.67,49.67,3.32,51.94,27.28,2.8.23,3.75-2.83,6.1-4.09,13.85-7.42,31.26,3.78,31.37,19.21,3.62-.38,5.27-3.73,9.69-4.45,12.77-2.09,17.36,5.83,20.89,16.27,6.09-5.91,15.28-7.55,22.04-1.67,2.73,2.37,2.5,5.32,4.98,7.54,5.97-4.74,16.23-2.87,19.32,4.32l-166.34.99v-65.4Z" fill="#fff"/>
  <path d="M318.14,700.83c6.97,8.28,9.42,6.83,16.88,12.41,11.23,8.39,12.16,23.15,22.75,32.42l-1.05.88c-3.26,1.72-7.13,2.99-10.72,3.75-1.72.36-13.2,2.13-14.3,2.07-3.09-.17-7.84-6.49-12.81-7.91-7.31-2.08-32.39,4.88-38.34,9.41-6.47,4.94-2.18,6.41-13.13,7.25-15.92,1.23-29.23-3.03-43.75-8.58l12.24-18.32c4.22-6.06,13.2-9.88,17.62-14.59,8.59-9.15,6.77-21.59,22.26-29.67,7.06-3.68,25.4-8.77,31.72-3.17,3.21,2.84,7.39,10.19,10.62,14.03Z" fill="#fff"/>
  <path d="M478.1,608.6c2.33,4.58,4.13,9.44,5.6,14.45,3.78,12.79,5.08,26.25,8.72,38.61,1.31,2.82,8.97,6.95,11.67,9.37,6.09,5.45,18.8,23.29,20.27,31.06,1.55,8.18-18.61,11.48-24.2,11.71-11.73.47-22.08-7.54-33.7-1.49-13.89-12.62-14.67-33.63-31.65-44.32-5.03-9.14-4.58-20.46-11.22-28.92,9.19-14.73,27.41-15.2,41.6-22.02,5.01-2.41,8.4-5.47,12.91-8.45Z" fill="#fff"/>
  <path d="M4.08,199.44c.31-.85,2.19-.74,2.67-1.44,5.67-8.33,6.16-14.59,19.33-14,8.44.38,10.07,5.48,16.79,7.88-1.33-22.48,26.14-36.91,44.86-26.12,7.08,4.08,12.54,14.11,13,22.17,5.15-1.18,7.8-5.46,14.1-5.27,10.08.3,15.52,8.7,15.44,18.13,2.97,1,5.84-.91,8.75-.85,10.93.24,17.23,10.76,11.01,20.2H4.08c.98-4.61-1.31-17.12,0-20.7Z" fill="#fff"/>
  <path d="M241.75,237.23c11-1.36,23.76-10.43,28.9-20.21,6.64,4.16,12.8,7.25,20.58,8.87,6.11,1.27,11.21-1.21,15.52,4.94,4.78,6.82,17.1,44.5,15.54,52.08-.15.75-.31,1.19-.98,1.63-6.12-3.48-13.11-4.93-19.97-5.98-.25-4.53-1.71-9.65-3.67-13.75-1.13-2.36-8.9-13.72-11.19-13.12l-.89,2.18c10.55,13.34,21.99,34.62-7.57,26.85-10.72,4.75-18.78,9.04-26.35,18.35-1.06,1.3-2.07,5.11-3.99,4.96-24.38-15.42-18.19-41.7-19.4-66.12.63.14,1.39-.68,1.64-.68,3.61,0,8.43.42,11.83,0ZM288.54,236.02c-3.51,1.35,1.57,7,4.65,7.63,2.66.55,14.46.77,15.21-2.28,1.67-5.83-18-6.07-19.86-5.35ZM262.95,239.37c-2.61.39-20.94,10.37-21.44,12.13-1.12,3.95,4.82,5.06,7.84,4.51,1.86-.34,14.31-7.58,15.96-9.03,4.51-3.94,5.22-8.75-2.36-7.61ZM309.19,255.02c-.03,4.32-4.31,5.94-8.11,5.08-.69-.16-6.41-4.81-5.73-.86.62,3.61,8.68,4.96,11.87,3.99s8.61-9.02,1.98-8.21ZM272.33,259.58c-.12-.11-2.72-.14-3.18.12-1.51,5.49-5.33,9.52-11.47,8.27-1.69-.34-7.47-5.51-7.62-1.58-.16,4.43,11.85,6.1,16.31,3.35,1.88-1.16,7.22-8.97,5.95-10.15Z" fill="#fff"/>
  <path d="M590.54,235.92v61.13h-96.32c-3.61-5.44,1.76-13.57,7.52-14.83,3.92-.85,6.88.44,10.6.08.94-.63.23-6.36.64-7.79.29-1.01,5.76-6.77,7.1-7.48,7.89-4.14,12.23.45,19.19,2.1-.7-26.57,28.26-39.33,51.27-33.22Z" fill="#fff"/>
  <path d="M398.97,475.61c-.04.16-.91.24-1.02.72-.97,4.2-3.99,24.53-5.66,26.43l-12.49,2.71c-3.02-.4-12.46-13.05-15.5-16.09-2.81-2.81-19.03-16.45-19.71-17.81-.8-1.6.62-5.68.78-7.89.13-1.84-.75-3.68-.57-5.12.26-2.17,7.42-12.19,8.52-15.84,1.01-3.36,1.72-15.89,3.46-17.55,17.03-8.62,35.82-7.76,51.33,3.35-2.32,15.53-5.58,31.61-9.12,47.09Z" fill="#fff"/>
  <path d="M518.67,741.18c-2.26,2.75-17.96,6.3-22.13,7.12-25.46,5-56.28,5.29-80.87-3.34,3.96-10.52,13.73-11.05,22.13-14.63,16.58-7.07,34.21-25.13,53.02-13.14,4.43,2.83,7.14,7.07,11.02,10.02,3.33,2.53,20.73,9.26,16.85,13.98Z" fill="#fff"/>
  <path d="M559.9,398.67c12.56,17.67,3.51,37.5-.21,55.97-6.81,33.72-13.02,75.52-23.69,107.12-.52,1.53,1,4.04-.97,4.09-3.31.08-7.61-3.53-10.9-4.25l-.63-1.25c.64-1.87.85-3.88,1.36-5.77,8.96-33.36,15.67-68.57,22.88-102.78,3.53-16.72,11.66-35.06,5.44-52.68-1.95-5.53-6.19-8.58-9.33-13.35,7.28,2.56,11.69,6.76,16.04,12.88Z" fill="#fff"/>
  <path d="M590.54,400.24v70.33c-3.44-1.83-11.8-6.57-15.45-6.57h-13.48c2.47-20,11.77-40.71,4.65-60.73,6.94-4.71,16.43-6.56,24.28-3.02Z" fill="#fff"/>
  <path d="M341.98,461.39c2.2,8.4-2.59,11.59-9.65,14.29-28.28,10.79-95.22,10.1-122.91-2.37-6.9-3.11-11.9-5.1-8.44-13.91,14.87,8.29,34.35,10.58,51.3,11.81,21.48,1.56,49.78.95,70.8-3.47,6.92-1.46,12.37-3.94,18.9-6.35Z" fill="#fff"/>
  <path d="M590.54,506.72l-36.48-.66-1.66-1.63,7.2-34.86c2.19-5.46,13.21-3.18,17.8-1.95,4.89,1.3,9.47,3.79,13.15,7.23v31.88Z" fill="#fff"/>
  <path d="M190.43,544.56c.7.9,3.29,3.89,2.72,4.91-15.36,6.88-26.06,19.76-24.37,37.44-2.65-1.52-4.83-3.36-6.92-5.57-3.53-3.71-12.45-15.01-10.8-20.03.33-1.02,12.64-14.97,14.09-16.15,7.51-6.13,18.63-9.11,25.28-.6Z" fill="#fff"/>
  <path d="M143.75,572.15c8.65,8.47,7.95,15.61,22.49,21.9,8.47,3.67,12.99-.19,8.76,12.55-17.55-2.51-35.39-5.17-51.91-11.81l19.4-24.3c.54.47.76,1.17,1.27,1.66Z" fill="#fff"/>
  <path d="M277.67,764.95c-.07-11.2,11.19-11.09,18.76-13.61,9.43-3.13,15.17-8.15,25.41-2.62,2.92,1.58,13.45,9.94,11.02,13.4-16.95,7.23-37.28,5.16-55.19,2.82Z" fill="#fff"/>
  <path d="M184.88,532.35c-13.91,1.92-21.68,7.61-30.93,17.39-8.78,9.27-38.57,43.42-41.69,53.63-1.18,3.88-1.14,7.17-1.02,11.15-4.99-.91-5.54-6.56-5.24-10.83.91-13.15,29.78-42.41,39.43-53.27,6.07-6.83,10.69-15.81,19.7-19.74,4.62-2.02,18.45-5.06,19.76,1.67Z" fill="#fff"/>
  <path d="M202.36,584.66c-3.16,5.59-4.38,9.02-5,15.7-.15,1.64,1,7.49-.31,7.57-6.99-5.3-12.84-5.07-12.88-15.42-.04-9.84,6.96-20.47,14.51-26.31,8.19-6.33,8.08.29,13.76,5.83-4.27,3.99-7.21,7.55-10.09,12.63Z" fill="#fff"/>
  <path d="M171.08,613.87c-3.43,6.07-11.1,11.77-18.4,11.16,1.44-1.48,3.13-.71,4.91-2.64.91-.99,4.53-7.99,1.98-8.52-.66-.14-8.44,9.02-8.22,10.51l-8.53-.67c2.03-1.16,9.08-9.35,6.56-11.16-1.97-1.42-3.37,3.53-4.32,4.54-3.84,4.1-7.21,7.69-12.76,4.01,2.74.1,8.43-9.47,6.56-10.52-3.04-.59-2.92,2.97-4.3,4.59-4.05,4.78-6.34,6.84-12.79,3.94,2.29-.75,8.32-10.46,4.92-11.16-1.82-.38-3.35,9.17-8.52,9.24-7.15.1-4.42-15.98-.08-15.82,1.64.06,5.52,2.49,7.48,3.11,14.78,4.63,30.03,8.07,45.51,9.39Z" fill="#fff"/>
  <path d="M181.6,597.43c-7.91-2.86-10.48-10.77-9.77-18.65,1.09-12.2,11.97-22.17,22.72-26.6l6.82,8.73c-7.76,3.59-19.77,18.6-19.77,26.99v9.53Z" fill="#fff"/>
  <path d="M207.82,276.09l4.39,28.86c-19.59,5.44-25.31-28.21-4.39-28.86Z" fill="#fff"/>
  <path d="M51.66,258.68c6.29,6.27,10.71,14.95,17.44,21.08l-3.89,8.08c-1.6,1.07-13.11-19.83-18.23-21.53-1.47-.49-3.37.22-4.79-.47-1.87-.91-3.08-5.84-2.58-7.76.08-.3,3.85-3.98,4.56-4.15,2.95-.71,5.88,3.16,7.49,4.76Z" fill="#fff"/>
  <path d="M508.58,200.65c-4.73,7.41-7.65,17.68-10.1,26.07l-9.54-4.6c5.24-5.82,8.31-24,13.02-28.75,4.14-4.17,9.79-.19,9.05,4.71-.29,1.94-1.96,1.83-2.43,2.56Z" fill="#fff"/>
  <path d="M491,211.35c-.11.23-.91.4-1.24,1.08-.69,1.44-2.5,8.1-3.48,8.34l-8.16-3.58c4.33-6.07,10.33-28.13,17.1-30.88,2.98-1.21,5.98-.24,6.45,3.17-5.78,5.98-7.3,14.53-10.67,21.87Z" fill="#fff"/>
  <path d="M55.78,246.02c4.34,3.68,10.89,14.24,14.72,19.13,1.9,2.43,4.1,4.69,6.54,6.59l-5.25,6.24-18.39-23.34c-1.38-1.22-6.61-3.09-6.93-3.58-2.59-4,2.87-10.51,9.31-5.04Z" fill="#fff"/>
  <path d="M391.98,506.73l-2.96,11.15c-1.53-.41-8.98-9.88-8.21-10.5l11.17-.65Z" fill="#fff"/>
  <path d="M479.84,389.96c-.88-1.65-4.85-4.42-4.69-6.8,4.47,2.71,8.89,5.36,12.09,9.62l-4.2,6.79c-1.7-3.07-1.48-6.36-3.2-9.61Z" fill="#fff"/>
  <path d="M301.25,681.56c-1.4,1.18-1.57-1.2-.32-1.31.57-.05.38,1.26.32,1.31Z" fill="#fff"/>
  <path d="M132.52,52.31c1.84,2.84,4.43,5.09,4.38,9.42,14.74-11.1,35.68-3.92,34.85,15.78,6.07-2.74,13.16-2.46,19.24.15,10.5,4.51,16.5,21.03,7.54,29.59l-179.5-.97c-3.71-13.9,7.64-20.97,19.78-22.32,2.3-13.98,14.88-18.81,27.73-13.68,1.28-33.35,47.55-46.4,65.98-17.96ZM22.16,105.11h174.88c7.7-15.45-3.58-28.68-20.21-26.12-1.6.25-8.39,3.74-8.39,1.47v-9.53c0-.34-2.79-4.62-3.4-5.47-6.53-9.1-24.12-7.42-28.1,3.1-3.71,1.83-2.53-5.25-3.42-8.26-2.88-9.86-13.15-17.89-22.93-19.94-22.07-4.62-41.42,12.14-42.03,34.24-1.64,1.2-4.71-1.8-6.83-2.48-11.96-3.82-19.61,3.33-20.21,15.21-10.27-.74-24.1,5.77-19.36,17.78Z"/>
  <path d="M316.99,36.14c.57.14,4.42,8.16,5.98,10.12,14.75,18.44,45.45,19.69,64.75,8.26,3.67-2.17,6.24-5.14,9.77-7.27,2.44,2.18,1.55,4.96,2.92,8.35,6.67,16.59,34.81,18.17,48.45,10.75,3.36-1.83,7.25-5.61,10.5-7.89,2.8,2.85-5.96,8.57-8.44,9.95-18.9,10.51-46.39,5.92-55.38-15.22-23.89,19.26-69.28,16.19-80.45-15.51.05-1.09.78-1.82,1.89-1.54Z"/>
  <path d="M364.14,162.1c-3.4,17.2-8.32,35.79-10.89,53.8l-3.01,6.86c-2.53-.82,1.13-16.43,1.7-19.2,3.85-18.78,8.2-39.87,12.49-58.65.57-2.51,2.97-19.44,4.87-19.41.64.45.86.88,1,1.64.63,3.36-5.06,29.41-6.16,34.95Z"/>
  <path d="M401.83,128.12l1.65,88.06c-1.2-2.38-1.52-6.79-1.67-9.49-1.18-20.82-1.68-43.54-1.96-64.4-.05-3.39-.52-10.46.6-13.27.35-.87-.21-1.14,1.38-.91Z"/>
  <path d="M306.51,100.52l-.19,3.11c-7.84,9.61-14.59,20.24-22.26,29.98-1.98,2.51-8.57,11.2-10.37,12.64-.89.71-1.42,1.17-2.67.94l35.49-46.66Z"/>
  <path d="M442.46,782.31c6.56-.67,17.45.38,21.08,6.82,3.27,5.78-.78,7.54-5.8,9.11-6.14,1.92-30.92,4.39-33.72-2.5-2.96-7.28,13.33-12.91,18.44-13.43ZM461.53,793.83c.98-7.05-10.73-9.22-15.99-9.1-5.8.13-17.33,3.51-19.37,9.6.17,2.7,11.87,3.17,14.14,3.2,3.27.05,19.78-.98,21.22-3.7Z"/>
  <path d="M97.61,803c-2.4-9.19,10.9-15.15,18.75-15.43,5.73-.2,24.46,5.12,20.45,13.19-3.6,7.24-32.34,7.11-39.2,2.23ZM112.41,790.85c-5.67.79-9.91,4.18-12.16,9.37.52,5.06,25.4,3.53,29.94,1.84,10.63-3.98-2.7-10.73-8.09-11.38-2.52-.3-7.14-.18-9.69.17Z"/>
  <path d="M512.04,581.27c5.8,5.54,10.64,19.18,11.39,27.07.09.98.49,1.85-.93,1.58-6.38-8.72-3.91-18.84-12.48-26.97-10.59-10.05-19.91-3.03-31.26-6.21l-17.08-8.54c6.99-3.63,12.74,5.2,19.45,6.17,12.61,1.82,19.83-3.68,30.91,6.9Z"/>
  <path d="M213.35,795.74c-2.35-2.92,4.3-7.97,6.68-9.03,5.92-2.65,17.83-3.19,22.74,1.64,12.13,11.92-24.08,14.02-29.42,7.39ZM226.82,787.58c-6.53.86-17.52,7.6-4.78,9,2.88.32,19.03.33,19.99-2.39,2.29-6.52-11.52-7.1-15.21-6.62Z"/>
  <path d="M554.2,779.99c-2.15,2.56-15.1,3.7-18.59,3.47-4.76-.3-7.66-1.47-10.83-4.95,1.97-.6,1.31-2.57,2.62-3.96,8.89-9.45,34.12-3.27,26.8,5.44ZM540.44,772.46c-4.3.27-9.68,1.84-12.36,5.4-.03,3.08,14.31,2.53,16.74,2.29,15.76-1.58,4.85-8.26-4.38-7.68Z"/>
  <path d="M573.23,698.21c8.87,9.03-19.84,8.97-24.41,7.64-4.12-1.2-3.44-4.91-.99-7.5,5.31-5.63,20.14-5.5,25.4-.14ZM570.8,701.92c-.22-7.93-22.07-5.7-21.69.34,6.64,3.17,14.86,1.66,21.69-.34Z"/>
  <path d="M57.12,603.55c6.6,9.33-23,10.39-24.66,5.92-3.33-8.95,20.74-11.47,24.66-5.92ZM55.36,607.28c1.87-2.79-7.19-4.64-8.87-4.64-1.89,0-12.13,2.32-11.5,4.96,1.93,3.4,19.59.84,20.38-.33Z"/>
  <path d="M67.19,671.05c.95,3.55-3.11,5.48-4.14,7.42-5.78,10.88-4.59,20.41-8.04,30.68-.56,1.66-1.6,5.76-3.91,5.27s1.49-6.09,1.56-6.44c2.73-12.07,2.48-29.78,14.53-36.94Z"/>
  <path d="M71.14,762.42c1.24,1.26-7.18,8.99-7.86,10.38-.99,2.01-1.53,13.7-6.53,9.92-.48-.36-2.25-8.61-4.01-11.25-1.24-1.85-7.02-5.98-7.25-7.4-.29-1.83,1.77-.84,2.47-.49,6.36,3.14,7.24,8.37,9.97,13.69.36.69-.32,1.23,1.38.92-.18-6.77,5.33-14.02,11.83-15.77Z"/>
  <path d="M347.94,794.62c1.81.2,1.03-.08,1.3-.98,1.38-4.73,3.12-10.23,8.55-11.5-2.58,6.1-6.62,11.6-7.3,18.33-.24.18-3.09.23-3.5.1-.66-.2-1.94-9.04-4.99-12.83-.65-.81-7.67-5.57-4.25-6.26,5.55,1.71,9.41,7.55,10.18,13.15Z"/>
  <path d="M65.22,542.22c-.69,2.9-3.08,4.11-4.52,6.98-1.04,2.07-2.84,11.06-5.02,10.6-1.93-1.1-1.88-3.6-2.97-5.26s-7.82-9.39-7.88-10.02c-.1-1.01-.07-1.16.98-.98,2.96.49,8.85,8.4,10.19,11.16,1.8-4.33,3.44-12.13,9.21-12.48Z"/>
  <path d="M570.16,555.36c1.78-.36,5.97-9.73,7.88-7.88-1.26,2.53-4.74,13.49-7.54,13.19-2.39-.26-2.59-5.41-3.71-7.53-.7-1.32-5.38-6.73-4.52-7.63,4.21,1.11,7.06,5.79,7.89,9.85Z"/>
  <path d="M159.9,764.38c.25-5.42-1.33-16.41,3.94-19.06l-1.32,21.03c-.73.49-2.27-1.47-2.62-1.97-.05,1.09.04,2.2,0,3.28l-2.3-.65-8.87-18.41c3.13-3.09,10.6,14.94,11.17,15.77Z"/>
  <path d="M536.24,639.23c2.94,4.39,3.19,9.59,3.02,14.72,2.4-5.37,4.83-13.37,11.82-13.8-.67,3.89-4.61,4.71-6.86,8.58-1.39,2.38-1.42,5.15-3.33,7.18-1.87-2.98-2.41-.42-4.87-1.37-.25-2.43.21-4.9-.23-7.32-.35-1.94-6.59-18.49.45-8Z"/>
  <path d="M519.53,640.16c1.38-1.31,8.64,3.7,9.85,4.94,1.04,1.06,7.65,10.89,4.28,11.49-1.12.2-4.33-7.57-5.89-9.21-2.78-2.91-7.8-3.31-8.23-7.21Z"/>
  <path d="M175.68,753.21l-7.27,11.97-3.24,1.83c-2.31-3.74,8.61-15.67,10.51-13.8Z"/>
  <path d="M367.65,786.74c.41,3.11-3.35,3.14-5.29,4.9-2.48,2.26-2.86,6.58-5.88,7.58-.6-6.38,5.08-11.79,11.17-12.48Z"/>
  <path d="M62.6,559.31c-2.1-2.12,5.16-11.05,7.56-11.81,2.75.23-2.68,6.41-3.23,7.28-1.36,2.12-.32,5.29-4.33,4.54Z"/>
  <path d="M50.76,782.78c-2.34-.37-2.5-3-4.26-4.61-2.12-1.93-6.7-2.54-7.57-5.24,5.57-.69,12.3,3.93,11.83,9.85Z"/>
  <path d="M276.28,520.53c17.27,8.42,32.38,20.97,50.76,27.13,6.35,2.13,13.02,2.83,19.22,4.44,3.04.79,1.78,2.66-1.24,2.62-17.42-.24-49.88-18.28-64.11-28.64-.69-.5-5.34-4.81-4.62-5.56Z"/>
  <path d="M329.29,503.21c-1.21,3.45-8.31,16.19-11.36,17.88-.93.51-1.76.92-2.86.75,1.52-3.29,4.15-5.52,6.03-8.76.75-1.29,7.82-17.95,9.08-16.22.1,2.15-.17,4.32-.88,6.35Z"/>
  <path d="M176.34,646.07c-3.25-2.69,15.72-5.77,17.24-5.72,7.91.24,12.18,5.22,18.09,6.22,5.14.88,11.49-.3,16.85.24,2.21.22,21.43,5,21.44,6.16-.93,1.31-2.23,1.03-3.58.99-5.27-.15-13.89-3.92-20.5-4.52-4.6-.42-9.93.48-14.31-.15-5.23-.76-10.25-5.33-16.51-5.84-6.47-.53-12.41,1.95-18.73,2.61Z"/>
  <path d="M308.81,294.41c1.71,1.02.79,2.66-.8,3.14-3.01.91-11.54.24-16.11.98s-9.07,2.8-13.66,3.77c-.22,1.72.07,1.03.95,1.33,7.38,2.55,16.17,1.31,22.37-3.32,2.39,2.05-2.87,5-4.26,5.59-6.04,2.56-11.52,1.68-17.62.53-1.49-.28-3.3-1.86-4.4-1.9-.85-.03-6.12,2.58-5.59-.59.44-2.63,22.66-9.54,25.97-9.54h13.15Z"/>
  <path d="M485.12,475.28c1.45-.53,27.31,2.64,30.69,3.28,5.15.98,8.2,3.26.75,3.22-7.28-.04-21.56-1.92-28.85-3.39-1.79-.36-5.87-1.92-2.59-3.11Z"/>
  <path d="M514.92,506.06c-1.45.1-2.75.67-4.23.68-3.48.02-28.55-3.35-31.15-4.41-3.33-1.35-2.59-2.76.76-2.79,6.55-.06,23.93,2.67,30.95,3.95,1.43.26,3.89.62,3.68,2.56Z"/>
  <path d="M532.66,429.18l.02,2.6c-2.29-.05-4.6.1-6.89,0-6.28-.3-19.73-1.45-25.63-2.64-.95-.19-2.56-1.18-2.32-2.27l3.61-1.04,31.21,3.35Z"/>
  <path d="M488.63,453.48v-1.94c10.98.48,22.7,1.39,33.77,2.7,3.42.4,8.44,2.07,2.07,3.25l-35.84-4Z"/>
  <path d="M431.87,422.04c1.36-.49,23.48,1.85,25.49,2.56,3.82,1.34.85,2.57-1.94,2.64s-22.82-2.09-23.96-3.04c-.63-.52-1.13-.89-.36-1.62.17-.32.46-.42.77-.54Z"/>
  <path d="M419.59,471.88c-.51-2.27.9-2.5,2.87-2.56,3.55-.1,19.07,1.2,22.29,2.05.85.23,2.69.97,2.45,2.14-1.2,1.49-3.29,1.05-4.95,1.02-7.06-.1-15.49-2.2-22.66-2.66Z"/>
  <path d="M441.29,498.83c-3.24-.46-26.95-.66-26.94-3.61,0-.74,1.95-1.63,2.91-1.67,2.06-.09,22.45,2.26,23.36,3.01s.74,1.21.68,2.28Z"/>
  <path d="M425.28,447.01c7.8.92,18.06.15,25.53,1.89,3.1.72,1.74,2.49-1.3,2.68-3.63.22-12.33-.94-16.35-1.47-2.78-.37-5.62-.79-8.32-1.54l.44-1.55Z"/>
  <path d="M262.95,239.37c7.58-1.14,6.86,3.67,2.36,7.61-1.66,1.45-14.1,8.69-15.96,9.03-3.02.55-8.96-.56-7.84-4.51.5-1.76,18.84-11.74,21.44-12.13Z"/>
  <path d="M288.54,236.02c1.86-.72,21.53-.48,19.86,5.35-.75,3.05-12.55,2.82-15.21,2.28-3.08-.63-8.16-6.28-4.65-7.63Z"/>
  <path d="M272.33,259.58c1.26,1.18-4.07,8.99-5.95,10.15-4.45,2.75-16.47,1.08-16.31-3.35.14-3.92,5.93,1.24,7.62,1.58,6.14,1.25,9.96-2.78,11.47-8.27.46-.26,3.06-.22,3.18-.12Z"/>
  <path d="M309.19,255.02c6.63-.81,1.27,7.22-1.98,8.21s-11.25-.38-11.87-3.99c-.68-3.94,5.04.71,5.73.86,3.8.86,8.08-.76,8.11-5.08Z"/>
  <path d="M22.16,105.11c-4.74-12.01,9.1-18.53,19.36-17.78.6-11.88,8.25-19.03,20.21-15.21,2.11.68,5.19,3.68,6.83,2.48.61-22.09,19.96-38.86,42.03-34.24,9.78,2.05,20.05,10.08,22.93,19.94.88,3.02-.3,10.09,3.42,8.26,3.98-10.52,21.57-12.2,28.1-3.1.61.86,3.4,5.13,3.4,5.47v9.53c0,2.27,6.79-1.22,8.39-1.47,16.63-2.56,27.9,10.67,20.21,26.12H22.16Z" fill="#fff"/>
  <path d="M461.53,793.83c-1.45,2.72-17.95,3.75-21.22,3.7-2.27-.04-13.97-.5-14.14-3.2,2.04-6.09,13.58-9.46,19.37-9.6,5.26-.12,16.97,2.04,15.99,9.1Z" fill="#fff"/>
  <path d="M112.41,790.85c2.55-.36,7.17-.47,9.69-.17,5.39.64,18.72,7.4,8.09,11.38-4.54,1.7-29.42,3.22-29.94-1.84,2.25-5.19,6.49-8.58,12.16-9.37Z" fill="#fff"/>
  <path d="M226.82,787.58c3.69-.49,17.5.1,15.21,6.62-.95,2.71-17.11,2.7-19.99,2.39-12.74-1.41-1.75-8.14,4.78-9Z" fill="#fff"/>
  <path d="M540.44,772.46c9.24-.58,20.14,6.1,4.38,7.68-2.43.24-16.77.79-16.74-2.29,2.67-3.55,8.06-5.13,12.36-5.4Z" fill="#fff"/>
  <path d="M570.8,701.92c-6.83,2-15.06,3.51-21.69.34-.37-6.04,21.47-8.27,21.69-.34Z" fill="#fff"/>
  <path d="M55.36,607.28c-.79,1.17-18.45,3.73-20.38.33-.63-2.65,9.62-4.96,11.5-4.96,1.68,0,10.75,1.84,8.87,4.64Z" fill="#fff"/>
</svg>