<?xml version="1.0" encoding="UTF-8"?>
<svg id="Camada_1" xmlns="http://www.w3.org/2000/svg" version="1.1" viewBox="0 0 595.28 841.89">
  <!-- Generator: Adobe Illustrator 29.0.0, SVG Export Plug-In . SVG Version: 2.1.0 Build 186)  -->
  <path d="M.14,841.29V-.06h595v841.34H.14ZM590.54,3.89H4.08v324.05c22.7-16.34,40.94-38.19,61.5-57.16,17.48-15.58,35.03-43.04,52.88-56.9,10.92-8.47,15.1-4.88,26.62-5.57,17.29-1.04,20.15-8.76,36.86,5.9l39.09,41.43,1.76-8.23c-7.2-5.97-8.25-14.41-4.02-22.63,2.59-5.04,10.7-10.9,11.82-15.8.72-3.15-.63-9.5-.37-13.51,1.54-24.16,18.05-21.04,30.94-34.14,3.66-3.72,5.84-8.58,9.2-12.49,12.82-14.9,28.42-23.6,48.78-21.19,5.08.6,10.94,4.25,14.63,4.47,5.65.33,13.9-4.11,21.01-4.01,16.09.2,30.62,9.71,36.85,24.35,5.63,13.24,3.03,18.12,2.33,31.23-.72,13.37,6.23,19.52,1.5,35.02-1.11,3.65-4.04,7.27-4.64,11.14-1.34,8.68-.17,19.05-2.31,27.93-.77,3.18-2.7,4.02-3.12,7.07,5.96,1.82,12.4,6.93,15.75,12.16,32.53-3.74,60.39,21.24,51.97,54.88,17.23-6.96,34.13-22.79,54.06-20.2,15.11,1.96,37.55,24.19,51.18,32.97,10.15,6.54,21.13,11.9,32.16,16.81V3.89ZM386.33,150.21c-8.79-14.99-21.61-20.95-39.18-17.95-4.22.72-9.31,3.36-13.36,3.14-4.96-.26-12.12-4.71-18.48-5.22-33.29-2.7-40.95,27.3-63.56,42.1-6.41,4.19-12.1,5.26-16.28,13.29-4.42,8.51-.08,17.88-2.54,25.74-2.95,9.41-17.3,12.91-12.69,27.72,1.18,3.79,5.97,5.44,6.11,5.85,1.23,3.61-1.76,6.78-2.06,8.42-.83,4.53,2.23,7.72,2.68,12.19,13.66-7.07,28.02-12.62,43.12-15.74l-.39-19.1c-13.88.05-22.76-17.93-16.92-29.73,4.52-9.14,16.49-12.24,23.34-3.98.08,19.4-5.58,41.49-.71,60.53,9.6,37.5,93.52,44.73,107.84,4.22,4.43-12.53,2.52-20.68,4.3-32.51.96-6.37,5.73-11.14,6.39-19.25.75-9.28-2.59-12.26-3.3-19.68-1.65-17.22,6.98-20.77-4.31-40.05ZM272.1,215.35c.75-5.6.63-11.93,1.21-17.59-24.22-11.7-25.07,29.22-2.96,29.61.2-3.34.12-7.64.6-10.89.17-1.13,1.13-.99,1.14-1.14ZM190.38,228.45c-10.4-10.61-15.98-22.04-33.44-20.14-3.98.43-8.48,2.98-12.56,3.21-3.31.19-7.85-.97-11.78-.6-13.04,1.22-24.53,19.53-33.19,28.6-7.9,8.29-20.2,18.62-26.9,27.17-7.87,10.04.81,14.22,10.65,13.1s17.92-8.18,26.11-12.68c15.47-8.49,12.44,1.28,16.8,11.51,6.03,14.16,25.24,15.13,32.66,1.78,2.88-5.19,2.42-14.47,11.08-11.98,6.05,1.74,19.04,15.93,26.16,5.17,5.18-7.82-.08-17.2-3.18-24.54,2.22-1.96,13.97,7.7,17.1,8.86,1.05.39,10.19,2.45,9.85.67-9.76-10.07-19.53-20.14-29.34-30.15ZM270.93,253.8c-52.98,7.19-92.74,49.9-105.1,100.43,21.22-8.76,46.52-3.33,63.76,11.17-.13-15.7-6.01-32.51-2.97-48,5.26-26.81,27.28-38.14,53.26-36.12,23.53,1.83,38.41,16.12,45.69,37.81.97.57,6-3.45,6.94-4.29,2.38-2.13,19.57-22.56,18.06-24.33-21.69,6.46-65.55-3.1-75.71-25.2-1.72-3.74-2.06-7.83-3.92-11.48ZM4.08,377.23h10.85c8.27,0,24.43,11.54,24.66,21.03,3.28-.84,5.61-3.61,9.21-4.92,16.15-5.88,32.97,3.74,35.5,20.7,13.19-11.96,37.07-7.06,39.45,11.83,10.47-4.47,22.64.81,23.67,12.49,10.42-3.29,21.17-1.43,26.06,9.12l25.91-2.84,7.79-17.67c-11.64-7.69-24.87-16.01-32.69-27.83-2.02-3.05-6.4-11.63-7.45-14.93-1.66-5.22-.67-11.26-2.04-15.68-.89-2.86-3.86-4.22-3.83-8.71.08-15.73,18.32-49.33,28.17-61.96s21.89-21.77,34.25-30.84l-1.87-5.18c-8.71,1.91-15.72-2.43-22.68-6.86,6.27,19.45-2.55,31.6-22.72,21.4-2.32-1.17-8-6.22-10.05-5.55-4.38,7.26-4.74,14.18-12.73,18.88-12.29,7.22-27.42,1.33-31.32-12.48-.51-3.4-1.79-7.6-4.18-10.34-2.74-.89-14.46,7.98-17.76,9.67-10.21,5.24-28.76,12.72-34.06-2.5-20.02,19.66-38.68,41.02-61.82,57.16l-.31,46.03ZM396.58,277.98c-1.81-5.31-7.65-8.39-12.47-10.51-5.57,11.48-17.44,17.41-28.65,22.31-7.57,12.88-16.75,24.69-28.88,33.57-.78,1.84,1.21,12.99,1.68,15.93,1.64,10.23,3.87,21.97,5.2,33.04,1.4,11.63,2.38,23.47,3.31,35.15,1.83-4.18,2.15-8.87,3.35-13.26,4.14-15.1,9.06-31.98,13.03-47.05,6.02-22.86,7.67-53.14,31.15-65.36,3.14-1.64,8.68-3.38,12.28-3.82ZM401.18,279.96c-14.72,2.77-27.26,10.14-33.18,24.33-6.85,16.41-10.2,36.65-14.75,54.24-4.12,15.92-9.55,33.53-13.13,49.47-1.92,8.55-1.09,15.85-.06,24.45l1.38-.92c6.68-28.75,15.17-57.71,22.87-85.72,5.92-21.55,7.98-46.36,27.47-60.48,2.99-2.17,6.23-3.61,9.41-5.37ZM444.18,297.46c-14.56-20.36-42.22-21.91-58.37-2.32-14.01,16.99-26.25,81.14-32.56,105.46-2.36,9.07-7.62,20.13-8.44,29.74-.09,1.1-.59,2.22.5,3.11l74.89,15.36,7.99-32.44c-.44-2.52-6.48-3.41-8.61-4.58-4.08-2.23-9.14-7.44-8.48-12.46.33-2.53,2.91-4.42,3.09-5.4.31-1.71-1.2-3.57.01-6.66.76-1.93,4.63-4.11,4.77-4.58.52-1.84-.86-4.55.64-6.43,3.59-4.51,14.21-3.51,19.29-3.72,1.19-.43,1.37-1.83,1.78-2.83,2.78-6.8,6.72-23.64,8.22-31.22,3.1-15.76,5.06-27.37-4.7-41.02ZM269.69,284.56c-25.8,1.05-41.48,20.47-40.78,45.7.43,15.51,4.66,31.99,5.29,47.63l9.19-2.63c-1.86-27.27-14.09-60.17,9.86-81.17,4.77-4.18,10.58-7.19,16.44-9.52ZM317.29,309.28c-22.07-39.52-68.03-25.29-75.78,14.47l6.49,65.97c5.88-1.19,22.92-3.53,25.8,3.45,1.18,2.87-.2,5.19.23,7.1.33,1.43,3.29,3.73,3.53,6.28.31,3.28-2,5.56-2.41,7.9-.25,1.4.72,3.54.16,6.21-1.53,7.35-13.53,12.59-20,14.52l1.97,15.6,80.05-11.83c-4.16-41.28-9.02-81.52-16.03-122.16-.81-2.82-2.71-5.16-4.01-7.49ZM530.42,327.56c-7.18-5.13-15.26-11.86-24.38-12.75-19.09-1.87-36.93,13.67-53.4,21.18-.69,1.79-1.88,4.71-1.38,6.58.28,1.03,8.18,10.34,9.63,12.76,15.8,26.18,9.71,56.4-20.93,66.92-3.42,1.17-6.81,1.82-10.45,1.72l-7.29,28.54-42.74-8.88,9.33,24.84,37.7,10.62c4.28-3.47,8.17-6.33,14.1-5.88-6.31-15.81,9.88-28.9,24.98-24.32-.84-12.02,12.52-23.51,24.32-18.4,4.5-16.66,21.95-21.73,36.77-14.51,7.87-22.5,40.3-22.7,49.69-1.28,3.53-3.81,9.22-4.58,14.14-4.58l-.31-45.38c-10.22-4.87-20.84-9.61-30.5-15.52-10.42-6.37-19.44-14.59-29.31-21.64ZM451.14,346.35c-1.79-.29-1,.22-1.32.95-1.78,4.14-2.15,10.35-3.27,14.81,7.06-1.05,7.23,4.04,7.23,9.54,0,1.43-1.18,3.26-1.09,3.96.13,1.02,4.54,4.5,5.18,5.74,2.82,5.49,1.34,17.5-.7,23.24-.39,1.1-3.46,2.94-2.41,4.86,13.04-10.38,13.76-30.05,7.82-44.62-2.8-6.85-8.57-11.7-11.44-18.47ZM225.41,379.44c-1.85-2.16-6.15-4.84-6.75-8.11s3.11-5.38,2.08-7.88c-10.5-8.49-26.24-10.88-39.46-9.87-10.57.8-11.29,1.36-12.16,12.16-1.55,19.14,6.58,32.54,20.36,44.68,6.66,5.88,14.32,10.45,22.03,14.78-5.55-17.46,2.11-32.64,16.06-43.05-.91-.76-1.42-1.85-2.17-2.72ZM449.73,373.84c5.33-11.44-7.63-12.22-6.47-.55l6.47.55ZM231.56,379.2c.12-6.58-1.73-10.98-7.87-13.8-.09,1.62-1.75,3.39-1.71,4.93.06,2,8.02,10.44,9.58,8.87ZM430.12,421.27c17.75-.47,27.97-18.01,25.58-34.44-2.2-15.1-33.12-13.18-33.45-7.31s20.55,6.6,24.96,8.57c.72.38.88,1.28.66,1.96-1.49,4.62-34.86-11.85-31.29,1.66,1.66,6.29,21.89,7.4,26.68,10.83-.06,3.26-18.22-2.36-20.06-2.94-2.2-.69-4.7-1.78-6.56-3.17-7.07,6.35,3.83,12.71,9.37,14.83s23.05,4.71,4.81,5.46l-.69,4.55ZM269.52,393.18c-3.12-3.72-25.76.18-30.99,1.78l-1.04-1.61c8.32-5.76,11.78-20.19-3.25-11.8s-28.76,28.7-17.42,44.28c10.17,13.97,39.6,9.43,51.23-.62,1.32-1.14,6.53-6.82,4.93-8.53-9.23,3.61-18.46,6.76-28.51,7.17l-1.07-2.57c6.62-.42,26.77-4.63,29.93-10.5,1.06-1.96,1.33-5.88-.61-7.31-2.9-2.13-8.49,1.64-11.55,2.37-6.69,1.59-13.6,2.76-20.39,3.6l.07-2.22c.73-1.56,10.92-2.17,13.63-2.81,4.09-.97,20.55-4.65,15.05-11.23ZM16.25,380.52c-3.65-.54-8.37.39-12.16,0v132.12c17.99.97,34.29-7.61,51.14-12.3,16.82-4.69,34.13-6.7,50.9-10.9,6.45-1.62,15.5-3.36,20.15-8.16,1.31-5.86-18.01-11.63-22.26-12.03l.29-2c20.68-9.69,43.17-14.5,65.46-19.03-4.15-10.44-15.06-10.06-24.32-5.91-1.66-9.21-5.8-16.63-16.71-15.06-2.59.37-6.05,3.36-7.88,1.87-1.98-1.6-.58-3.93-1.2-6.06-4.81-16.6-26.63-15.95-36.34-3.78-1.35.01-2.96-9.62-3.95-11.81-5.35-11.86-22.18-16.38-33.03-9.37-3.49,2.25-4.26,6.64-8.64,5.34.04-10.38-11.74-21.5-21.44-22.93ZM590.54,570.48v-157.75c-6.4-.39-10.84,2.78-15.44,6.57-2.62-5.99-7.4-13.26-13.85-15.74-14.13-5.43-29.29,1.68-32.91,16.44-4.21.24-6.02-3.08-10.51-3.92-12.55-2.35-23.94,5.18-25.2,18.06-2.28,1.11-3.49-1.26-5.67-1.66-13.16-2.41-18.4,9.79-18.67,20.72-6.95-1.5-12.32-3.68-18.76.95-5.97,4.3-8.13,8.17-6.62,15.79.49,2.45,3.75,4.91,3.35,5.89-1.14,2.78-3.6.08-4.67.03-4.27-.22-9.03.68-11.46,4.56,17.12,7.03,36.36,12.3,52.93,20.38,8.07,3.93,27.48,13.49,11.09,21.62-3.29,1.63-12.99,3.05-12.55,8.2.34.98.81,2.27,1.49,3.02,6.75,7.37,58.75,18.46,71.97,22.7,12.14,3.89,24.12,8.38,35.49,14.15ZM239.33,438.48c-4.47-.86-10.86-1.37-15.01-3.07s-8.39-7.07-13.8-6.61c-2.13.92-12.34,27.47-13.82,31.57-6.85,18.93-11.44,38.78-18.37,57.4-.65,1.76-4.49,11.8-4.52,12.46-.18,3.6,8.98,9.48,12.04,11.35,32.8,20.05,98.14,22.49,135.38,16.34,27.61-4.56,54.64-16.46,83.24-12.41-.23-3.33-.36-6.79-.75-10.1-2.59-22.09-10.45-44.49-17.85-65-1.26-3.5-8.67-26.41-9.83-27.29-.3-.23-6.84-1.5-7.39-1.44-1.3.14-7.13,3.17-9.42,3.73-24.98,6.13-40.16,2.15-63.57,3.49-11.25.65-30.18,7.01-40.08,6.5-.92-.05-12.07-2.78-12.59-3.18l-3.68-13.74ZM251.91,436.42l-8.91,1.9,1.43,11.29,8.83,1.23-1.35-14.43ZM4.08,515.92v321.42h586.45v-263.58c-26.58-14.35-56.55-19.08-85.1-27.64-5.66-1.7-14.34-4.17-19.36-6.94-3.09-1.71-9.34-6.39-8.51-10.28,4.16-7.4,13.3-7.49,19.56-12.09.81-1.19.36-1.36-.03-2.39-1.95-5.06-17.93-12.1-23.15-14.38-26.61-11.62-55.27-20.51-83.27-28.15,4.86,17.91,11.86,35.38,14.93,53.75,5.37,32.05-2.49,62.29-8.81,92.7-1.83,8.8-3.18,17.76-4.73,26.62,13.88,9.03,30.86,15.31,42.15,27.56,3.1,7.78,6.39,11.96.14,19.52-19.2,23.23-63.09,9.3-86.4-.3-8.15-3.36-21.89-8.97-19.7-19.55.19-.93,3.97-6.31,4.39-7.56,8.91-26.18,11.83-52.53,11.39-80.67-.1-6.31-.47-16.18-1.43-22.28-.13-.85-.95-4.86-1.66-5.06-22.5,5.69-45.72,8.04-68.97,7.31-10.62-.33-21.23-2.33-31.86-2.32-9.12,12.67-20.67,22.59-32.56,32.51-6,5-13.24,8.32-17.81,15.1-.34,1.36,4.66,12.88,5.76,14.74,3.14,5.27,11.69,11.22,12.9,17.34.22,1.11.25,9.66.04,10.85-2.25,12.83-35.34,13.25-44.86,11.62-21.62-3.71-41.35-31.96-36.24-53.2,1.75-7.25,4.33-6.33,6.85-10.24,1.43-2.22,1.85-6.1,4.02-9.13s6.43-5.37,8.88-8.22c4.93-5.74,8.92-12.58,13.8-18.42,5.94-7.11,12.44-13.96,18.97-20.53l.36-3.06c-3.35-1.09-10.13-6.15-9.78-10.19,9.56-20.1,12.6-42,19.79-62.96.18-.52,1.04-.63,1.33-1.47,2.19-6.25,4.58-12.45,6.48-18.79-29.61,2.81-58.83,9.81-86.78,19.72,9.11,3.51,29.06,12.41,11.03,20.56-16.51,7.46-43.3,9.07-61.68,13.92-18.71,4.94-36.65,14.68-56.52,14.15ZM236.17,559.97c-18.5-1.76-36.27-7.55-52.8-15.72-4.84,4.55-8.8,9.87-13.17,14.83-2.45,2.77-7.91,6.42-9.53,10.52-5.91,14.93,19.66,33.82,33.59,30.3.69-.18,8.04-5.45,9.37-6.41,5.92-4.32,13.79-11.27,19.06-16.44,1.51-1.48,15.23-15.56,13.49-17.08ZM403.82,548.79c-20.08-2.59-39.95,2.03-59.13,7.29,3.15,22.22,2.44,45.09,0,67.38l.6,1.24c14.98,6.05,31.9,6.26,47.24,1.53,4.16-25.78,12.32-50.99,11.29-77.44ZM190.14,603.35c-15.5-1.2-30.94-12.16-32.88-28.27-.55-.78-7.09,7.95-7.39,8.71-2.91,7.39,11.21,19.38,17.27,21.84s20.17,5.26,23-2.29ZM160.56,605.97c-6.52-5.06-11.56-10.27-14.13-18.39-11.66,7.42-10.7,20.65-9.53,32.86l5.89-6.27c5.67-3.82,10.78-7.28,17.78-8.2ZM132.51,614.98c-.5-2.77-.1-5.57-.23-8.34-6.58,10.15-.35,25.16,5.25,34.52,10.2,17.03,25.69,21.44,45.04,20.01,7.11-.52,18.53-2.8,22.69-8.86-13.58,2.95-32.98,6.53-46.2,1.5-16.84-6.4-23.65-22.82-26.55-38.83ZM186.18,610.57c-9.98,3.17-17.82-3.87-27.46-1.51-9.88,2.42-25.66,13.16-16.9,24.5,11.62-14.77,30.91-16.64,48.32-13.14l-3.96-9.86ZM201.56,636.63c-5.7-7.98-8.32-13.81-18.99-14.86-11.78-1.16-26.77,1.18-35.15,10.19-1.54,1.66-1.83,4.15-3.96,5.24,1.6,2.53,11.77,12.97,14.15,12.8,3.18-.23-1.55-9.97-.98-10.5,7.72-.5,1.67,11.71,7.05,12.99,8.31,1.98,8.81-5.87,5.59-11.5-.52-.9-5.64-4.55-2.44-5.44,4.23-1.17,10.66,14.14,5.58,17.74,10.63,2.45,11.62-6.19,8.55-14.13-.83-2.15-2.23-2.43-2.63-4.26,8.26-1.13,8.19,12.09,5.92,17.73l7.74-.8c2.52-5.48,4.03-13.39-1.82-17.44-1.44-2.23.98-2.65,2.99-1.51,4.11,2.34,3.87,9.47,3.6,13.53-.14,2.02-2.28,3.64-.38,4.79,8.07-.27,11.94-5.31,7.51-12.62-.68-1.13-1.89-1.37-2.31-1.96ZM391.32,629.64c-15.28,3.53-31.58,2.85-46.67-1.32l-1.2,12.76c11.18,6.32,31.58,7.2,43.42,2.83,4.27-1.58,3.68-10.24,4.45-14.28ZM352.94,673.43c2.87-5.26,4.73-9.76,9.1-14.24,4.18-4.29,10.29-7.7,15.16-11.13-11.45,3.37-24.05-.07-35.16-3.29-6.94,13.74-10.7,29.68,7.54,35.47.22-2.99,2.31-4.89,3.36-6.81ZM400.53,652.65c-4.43-.88-8.21-5.43-12.79-5.3-7.01.2-21.79,11.8-26.27,17.17-3.78,4.52-6.52,11.45-8.27,17.02l12.5,3.67c6.05-14.5,19.54-25.71,34-31.1l.84-1.46ZM430.12,681.56c4.7-4.5-.22-9.75-3.95-12.82-2.91-2.39-20.54-13.01-23.28-12.8-10.35.78-32.06,19.99-34.59,30.87,9.22,1.77,34.95,12.78,42.02,4.89.87-.97,1.47-1.8,1.35-3.19-.24-3.72-8.89-7.78-12.48-6.95-.33-5.9,10.89-.53,12.92,1.55,2.24,2.29,2.99,6.01,1.54,8.97,12.31-2.24,5.69-15.99-3.77-16.92l-.83-1.46c7.37-2.62,16.19,6.16,14.47,13.79,8.45-3.67,1.66-14.65-5.18-15.2l-.09-2.55c6.23-.55,11.59,5.86,11.85,11.83ZM432.35,683.79c-22.6,21.94-58.46,11.3-84.21-.79-6.89-3.24-12.12-5.81-15-13.26-1.99,5.44-2.54,7.32,1.64,11.5,7.32,7.31,48.63,19.76,59.52,20.69,15.39,1.3,38.58-3.07,41.07-21.02-1.02.93-2.03,1.92-3.02,2.88Z"/>
  <rect x=".14" y="841.29" width="595" height=".66" fill="#fff"/>
  <path d="M4.08,515.92c19.88.53,37.81-9.21,56.52-14.15,18.39-4.85,45.17-6.46,61.68-13.92,18.03-8.14-1.92-17.04-11.03-20.56,27.94-9.91,57.17-16.92,86.78-19.72-1.91,6.34-4.3,12.54-6.48,18.79-.29.83-1.15.95-1.33,1.47-7.19,20.96-10.23,42.85-19.79,62.96-.35,4.04,6.43,9.1,9.78,10.19l-.36,3.06c-6.53,6.57-13.03,13.41-18.97,20.53-4.88,5.84-8.87,12.68-13.8,18.42-2.44,2.85-6.6,5.05-8.88,8.22s-2.59,6.91-4.02,9.13c-2.52,3.92-5.1,2.99-6.85,10.24-5.11,21.24,14.61,49.49,36.24,53.2,9.52,1.63,42.61,1.21,44.86-11.62.21-1.18.18-9.74-.04-10.85-1.21-6.12-9.76-12.06-12.9-17.34-1.1-1.85-6.1-13.37-5.76-14.74,4.57-6.77,11.81-10.09,17.81-15.1,11.9-9.93,23.44-19.85,32.56-32.51,10.64-.01,21.24,1.99,31.86,2.32,23.25.73,46.47-1.62,68.97-7.31.72.19,1.53,4.21,1.66,5.06.95,6.11,1.33,15.97,1.43,22.28.44,28.14-2.48,54.49-11.39,80.67-.43,1.25-4.2,6.63-4.39,7.56-2.19,10.58,11.55,16.19,19.7,19.55,23.31,9.61,67.2,23.53,86.4.3,6.25-7.56,2.96-11.74-.14-19.52-11.29-12.25-28.27-18.53-42.15-27.56,1.54-8.86,2.89-17.82,4.73-26.62,6.33-30.41,14.18-60.65,8.81-92.7-3.08-18.37-10.07-35.84-14.93-53.75,28.01,7.64,56.67,16.53,83.27,28.15,5.22,2.28,21.19,9.33,23.15,14.38.4,1.03.85,1.2.03,2.39-6.26,4.6-15.4,4.69-19.56,12.09-.83,3.89,5.42,8.57,8.51,10.28,5.02,2.77,13.7,5.24,19.36,6.94,28.55,8.57,58.53,13.3,85.1,27.64v263.58H4.08v-321.42ZM157.27,469.92c-1.5-.67-18.57.13-15.11,3.28,3.57-.64,10.95-.38,14.01-1.43.88-.3,1.28-.92,1.1-1.85ZM142.54,510.29c-8.02-7.54-26.49-5.3-29.23,6.48,1.73,7.82,43.91,7.33,29.23-6.48ZM425.29,522.61c-5.5,2.01,8.05,5.19,8.76,2.84.91-2.99-7.07-3.45-8.76-2.84ZM58.5,526.61c-14.33,1.87-25.15,16.68-2.79,18.22,6.76.46,30.72.54,21.63-11.11-4.36-5.58-12.01-8-18.85-7.11ZM104.71,569.19c-2.18,1.35-6.09,20.96-2.98,21.66,2.45.55,1.5-6.94,1.8-8.7.41-2.38,1.28-5.54,1.97-7.89.12-.39,3.69-7.84-.79-5.07ZM97.74,582.67c-1.89-3.64-5.57-8.77-10.16-8.9.48,3.19,4.1,4.39,6.04,7.43,1.54,2.41,2.85,6.09,3.21,8.95,4.96,1.01,2.27-4.85.91-7.48ZM120.45,573.77c-6.03-.63-13.96,8.17-14.34,13.64-.57,8.23,6.71-6.21,7.11-6.74,2.14-2.86,5.61-4,7.23-6.9ZM525.06,584.02c-9.38-12.75-33.13-9.57-37.76,5.8,1.26,8.57,34.28,6.81,39.11,1,2.54-3.06.16-4.76-1.35-6.81ZM456.03,591.24c-3.73-6.38-8.34-8.27-15.72-7.6-5.43.49-14.65,3.75-14.86,10.18.52,7.37,21.89,6.13,27.15,4.74s6.04-2.84,3.43-7.32ZM39.91,590.86c2.63.75,14.01,0,17.75,0,.46,0,2.97,1.72,3.61-.34,1.23-3.96-12.86-2.27-15.47-2.27-1.57,0-3.16-.84-4.58-.74-3.03.21-3.49,2.72-1.31,3.34ZM254.4,607.45c-10.35,1.71-15.8,11.69-.73,12.9,2.55.2,13.79-.38,15.04-2.53,2.13-8.13-7.94-11.42-14.31-10.37ZM322.29,610.57l-.29-2.01c-18.14-3.96-17.33,3.05.29,2.01ZM502.85,648.48c2.17-6.55,2.9-12.3,9.13-16.86.25-4.49-4.63.38-5.95,1.95-3.5,4.16-6.01,10.47-6.9,15.79-.9-.97-4.39-19.34-7.88-15.77,2.4,7.18,4.45,14.06,4.89,21.72l4.3,1.28c.52-2.14.62-4.92,1.26-6.94.3-.95,1.08-1.03,1.13-1.17ZM556.02,637.52c5.36-.1,10.75.07,16.11,0v-1.97c-7.03-.63-14.81-1.91-21.38,1.31l.76,1.22c1.55.88,3.62-.54,4.51-.56ZM517.39,638.98c-8.14.6-15.87,16.8-12,16.93,3.61-7.25,7.09-11.89,14.12-16.09-.74-1.06-.99-.93-2.13-.85ZM491.02,649.59c-1.71-2.82-9.99-10.33-13.55-7.13,5.48,3.22,10.57,6.99,12.59,13.35,4.36,1.35,2.48-3.72.96-6.22ZM46.33,655.1c4.24,4.01,34.37,3.52,24.43-7.67-5.77-6.5-24.86-4.87-25.33,4.21-.05.88.26,2.86.9,3.46ZM287.78,663.82c-1.31-.47-10.15,0-12.49,0-.2,0-1.22,1.33-1.63,1.64.41.31,1.43,1.64,1.63,1.64h11.83c1.87,0,2.36-2.67.66-3.29ZM156.38,712.02c-2.05-3.81-4.56-8.49-6.89-12.49-7.82-13.44-13.7-9.01-26.75-12.7-15.09-4.27-21.47-13.59-39.04-4.22-9.31,4.96-41.56,41.31-42.74,51.26-1.69,14.33,21.2,20.13,32.02,22.42,20.23,4.28,40.28,4.46,60.62.85-.5,4.39,1.36,6.22,5.08,7.74,12.86,5.25,43.83.24,25.21-17.36,2.8-4.34,5.88-4.9,4.52-10.93-1.08-4.81-9.12-19.14-12.04-24.58ZM226.85,694.23c-12.69.56-27.05,15.41-4.81,17.55,4.82.47,21.1.68,23.92-3.68,1.37-9.27-11.22-14.22-19.11-13.88ZM472.73,719.18c-10.99.65-32.14,17.13-14.01,22.48,8.49,2.5,48.08,5.34,36.49-12.44-4-6.14-15.3-10.46-22.47-10.04ZM297.96,738.1c-3.92.22-5.13,5.34-5.72,8.4-1.36,6.99-1.27,14.3.48,21.18l2.65-1.11c1.32-4.49-2.03-8.45-1.38-11.75.24-1.2,1.27-.93,1.34-1.41.78-5.17.88-10.26,2.65-15.31ZM319.01,740.72c-9.24-1.03-18.96,16.44-19.01,24.09,0,1.23-.37,1.99.92,2.84,4.4-8.77,7.17-21.07,17.63-24.95l.45-1.98ZM283.3,756.03c.74,1.02,4.58,14.58,6.06,9.9-.5-8.46-7.43-18.64-16.38-19.29,0,.83-.28,1.32.42,2.01,1.73,1.72,7.94,4.67,9.9,7.38ZM409.36,757.53c-11.86-17.57-44.85,8.99-11.06,8.75,5.63-.04,15.89-1.6,11.06-8.75ZM322.29,753.87c-6.78-.5-14.16,6.6-14.46,13.14.9.04,1.28.21,2-.44,1.9-1.7,3.93-5.73,6.88-8.09,1.91-1.53,6.1-1.51,5.57-4.61ZM520.03,773.1c-13.53,2.05-19.93,14.88-1.4,16.83,4.4.46,25.46,1.14,24.46-5.99-1.28-9.11-15.51-11.99-23.06-10.85ZM217.65,785.58c-17.58-.03-29.93,16.38-5.51,18.28,7.25.56,32.47-.29,20.11-12.87-3.7-3.76-9.42-5.4-14.59-5.41ZM66.44,793.4c-.93-1.42-17.33-2.8-18.95.89,0,2.13,9.1.18,11.52.3,2.69.14,4.79,1.67,7.53,1.33l-.1-2.53Z" fill="#fff"/>
  <path d="M590.54,3.89v357.57c-11.03-4.91-22.01-10.27-32.16-16.81-13.63-8.78-36.07-31.01-51.18-32.97-19.94-2.59-36.83,13.24-54.06,20.2,8.42-33.65-19.44-58.62-51.97-54.88-3.35-5.24-9.79-10.34-15.75-12.16.42-3.05,2.35-3.89,3.12-7.07,2.14-8.87.97-19.25,2.31-27.93.6-3.87,3.52-7.49,4.64-11.14,4.73-15.5-2.21-21.65-1.5-35.02.7-13.1,3.3-17.99-2.33-31.23-6.23-14.64-20.76-24.15-36.85-24.35-7.11-.09-15.36,4.35-21.01,4.01-3.69-.22-9.55-3.87-14.63-4.47-20.36-2.4-35.96,6.29-48.78,21.19-3.36,3.91-5.54,8.77-9.2,12.49-12.89,13.1-29.4,9.98-30.94,34.14-.26,4.01,1.09,10.35.37,13.51-1.12,4.9-9.23,10.76-11.82,15.8-4.23,8.22-3.18,16.67,4.02,22.63l-1.76,8.23-39.09-41.43c-16.71-14.66-19.57-6.93-36.86-5.9-11.52.69-15.71-2.9-26.62,5.57-17.86,13.85-35.4,41.32-52.88,56.9-20.55,18.97-38.8,40.82-61.5,57.16V3.89h586.45ZM502.86,52.76c-1.16-1.52-7.34-7.27-9.01-8.41-21.06-14.28-52.85-.97-57.16,23.95-11.91-7.4-27.95-4.28-35.74,7.31-1.3,1.94-1.28,4.85-3.44,6.51-9.57-5.11-25.76-.28-30.18,9.83-2.1,4.78-2.26,11.37,2.78,14.33l197.45-.17c2.48-1.37,5.25-2.21,5.85-5.32,2.32-12.12-12.02-16.8-21.68-15.05-2.04-20.64-26.76-25.13-42.04-14.81-.75-5.86-3.21-13.43-6.82-18.17ZM183.15,56.05c-.89.69-1.07,2.88-3.04,2.31-19.64-18.25-53.35-8.26-55.05,19.8-10.95-5.55-27.95-1.99-33.54,9.51-2.75,5.65-3.54,14.29,2.84,17.57,58.06,1.07,116.42.77,174.53-.63,11.35-6.16,3.8-20.33-6.26-22.99-2.74-.72-9.48-.02-9.91-.28-.24-.14-1.33-3.6-2.69-4.87-4.47-4.19-14.07-4.12-19.76-2.91-3.33-23.31-28.69-31.84-47.11-17.51ZM186.86,160.33c1.54-15.06-15.5-21.33-27.22-15.17-12.08-19.21-47.42-14.6-49.05,9.91-10.51-2.36-21.97-.5-24.32,11.18-7.55-1.33-20.62,3.07-19.03,12.77.91,5.58,8.17,5.37,12.76,5.66,40.17,2.56,83.09-1.9,123.55-.1,10.01-1.17,9.92-11.43,5.29-18.28-4.88-7.22-14.11-7.39-21.98-5.96ZM537.06,204.58c-8.53-16.68-33.38-20.88-47.99-9.97-6.09,4.55-7.33,10.45-10.44,16.84-10.87-4.79-25.73-.54-26.82,12.63-6.37-3.74-21.35,2.01-22.72,9.17-1.01,5.29,1.84,9.08,7.25,9.26,39.73-2.38,83.03,3.09,122.34,0,6.74-.53,11.65-2.62,12.16-10.19,1.15-16.94-17.41-25.67-31.58-19.41-.28-2.48-1.1-6.16-2.21-8.33Z" fill="#fff"/>
  <path d="M239.33,438.48l3.68,13.74c.52.39,11.67,3.13,12.59,3.18,9.89.51,28.83-5.86,40.08-6.5,23.4-1.35,38.58,2.64,63.57-3.49,2.29-.56,8.11-3.59,9.42-3.73.55-.06,7.09,1.21,7.39,1.44,1.15.88,8.56,23.79,9.83,27.29,7.4,20.51,15.26,42.92,17.85,65,.39,3.31.52,6.77.75,10.1-28.6-4.05-55.63,7.85-83.24,12.41-37.24,6.15-102.58,3.71-135.38-16.34-3.05-1.87-12.21-7.75-12.04-11.35.03-.66,3.87-10.71,4.52-12.46,6.92-18.61,11.52-38.47,18.37-57.4,1.48-4.09,11.69-30.65,13.82-31.57,5.41-.47,9.47,4.83,13.8,6.61s10.54,2.2,15.01,3.07ZM329.29,478.88c1.08-1.22,6.72-6.81,3.84-7.65-1.58-.46-11.89,12.04-14.11,14.14-14.49,13.73-37.35,29.47-55.91,36.79-2.14.84-11.48,2.74-12.18,4.27l.36,1.99c12.01-2.41,23.21-7.79,33.61-14.05,14.16-8.53,33.53-23.19,44.39-35.48Z" fill="#fff"/>
  <path d="M4.08,377.23l.31-46.03c23.14-16.14,41.8-37.5,61.82-57.16,5.3,15.22,23.86,7.75,34.06,2.5,3.29-1.69,15.02-10.56,17.76-9.67,2.39,2.74,3.66,6.94,4.18,10.34,3.9,13.81,19.04,19.7,31.32,12.48,7.99-4.69,8.35-11.62,12.73-18.88,2.05-.67,7.73,4.38,10.05,5.55,20.17,10.2,28.99-1.94,22.72-21.4,6.96,4.44,13.97,8.77,22.68,6.86l1.87,5.18c-12.36,9.07-24.76,18.66-34.25,30.84s-28.09,46.23-28.17,61.96c-.02,4.49,2.94,5.85,3.83,8.71,1.37,4.42.38,10.46,2.04,15.68,1.05,3.3,5.43,11.88,7.45,14.93,7.82,11.82,21.05,20.14,32.69,27.83l-7.79,17.67-25.91,2.84c-4.89-10.55-15.64-12.41-26.06-9.12-1.03-11.69-13.2-16.96-23.67-12.49-2.38-18.9-26.26-23.79-39.45-11.83-2.53-16.96-19.36-26.57-35.5-20.7-3.59,1.31-5.92,4.08-9.21,4.92-.23-9.5-16.39-21.03-24.66-21.03H4.08ZM102.04,298.36c-1.09-1.12-3.89,2.83-4.57,3.79-3.01,4.28-5.07,9.76-8.04,14.16-13.01,19.26-29.27,35.96-46.9,51.06,1.04,5.88,8.05-6.04,11.55-6.21,13.36-11.54,40.23-43.05,47.01-58.82.57-1.32,1.23-2.44.95-3.97ZM110.32,329.66c.86-2.09,6.12-12.98,1.27-10.9l-16.78,33.5c1.58.1,2.74-.03,3.97-1.14,2.52-2.27,9.95-17.62,11.53-21.46Z" fill="#fff"/>
  <path d="M590.54,570.48c-11.36-5.76-23.34-10.26-35.49-14.15-13.22-4.23-65.21-15.33-71.97-22.7-.69-.75-1.15-2.04-1.49-3.02-.44-5.15,9.26-6.58,12.55-8.2,16.4-8.12-3.02-17.69-11.09-21.62-16.57-8.07-35.81-13.34-52.93-20.38,2.44-3.88,7.2-4.78,11.46-4.56,1.07.06,3.53,2.76,4.67-.03.4-.98-2.86-3.44-3.35-5.89-1.51-7.62.65-11.49,6.62-15.79,6.44-4.64,11.8-2.46,18.76-.95.26-10.93,5.5-23.13,18.67-20.72,2.19.4,3.39,2.77,5.67,1.66,1.26-12.88,12.65-20.41,25.2-18.06,4.48.84,6.29,4.16,10.51,3.92,3.62-14.76,18.78-21.87,32.91-16.44,6.45,2.48,11.24,9.75,13.85,15.74,4.6-3.8,9.04-6.96,15.44-6.57v157.75ZM565.56,466.63c-7.82-1.06-12.49,5.17-16.78,10.51l-3.62-6.22c-7.49-4.78-13.93,4.49-13.14,11.49-3.13-4.29-8.09-7.2-13.47-7.23-1.26,3.15,5.17,3.24,7.88,5.27,1.65,1.23,5.23,7.52,6.57,7.22,1.63-6.13,1.93-12.73,8.46-15.69,4.98,3.05,3.31,8.5,5.33,12.96,3.36-.38,3.34-4.25,5.07-6.67,2.39-3.33,4.59-6.15,8.28-8.16,2.34-1.27,6.22-.6,5.41-3.46Z" fill="#fff"/>
  <path d="M386.33,150.21c11.3,19.28,2.66,22.83,4.31,40.05.71,7.42,4.05,10.39,3.3,19.68-.66,8.11-5.43,12.88-6.39,19.25-1.78,11.83.13,19.98-4.3,32.51-14.31,40.5-98.23,33.27-107.84-4.22-4.87-19.03.78-41.12.71-60.53-6.85-8.26-18.82-5.15-23.34,3.98-5.84,11.8,3.04,29.77,16.92,29.73l.39,19.1c-15.09,3.13-29.45,8.67-43.12,15.74-.46-4.47-3.51-7.67-2.68-12.19.3-1.64,3.29-4.81,2.06-8.42-.14-.41-4.93-2.05-6.11-5.85-4.61-14.81,9.74-18.31,12.69-27.72,2.46-7.86-1.88-17.23,2.54-25.74,4.17-8.03,9.87-9.1,16.28-13.29,22.61-14.8,30.27-44.8,63.56-42.1,6.36.52,13.53,4.96,18.48,5.22,4.06.22,9.14-2.42,13.36-3.14,17.57-3,30.39,2.96,39.18,17.95ZM381.9,173.32c.24-1.11.62-2.56-.85-3.08-13.29,3.7-28-1.59-36.73-11.93-8.24,9.04-15.14,13.27-27.58,13.88-16.47.81-25.71-8.57-29.22,14.17-1.81,11.76-1.21,30.46,1.96,41.94.89,3.23,5.73,16.23,10.03,14.77,5.24-6.68,23.11-18.06,31.53-15.56,1.52.45,3.67,3.96,5.51,5,5.73,3.26,16.54,1.95,19.71-4.54,8.77,2.37,14.13,8.12,18.28,15.9,3.04,2.18,6.26-6.25,6.96-8.26,3.9-11.25,4.27-42.14,2.04-54.01-.35-1.87-2.71-7.04-2.71-7.83,0-.26,1.05-.31,1.08-.45ZM360.42,249.71c-.16-6.63-11.98-8.9-17.39-9.23-5.01-.3-12.17.57-16.94,2.18-1.69.57-14.42,6.53-9.3,8.32,2.35.41,2.8-1.79,4.47-2.6,9.44-4.57,20.78-6.34,30.91-2.57,3.1,1.15,5.08,4.02,8.26,3.89ZM337.91,254.49c-1.2.16-6.77,1.34-4.03,3.04l14.7-.27c.49-3.35-8.99-3-10.67-2.77Z" fill="#fff"/>
  <path d="M530.42,327.56c9.87,7.05,18.89,15.27,29.31,21.64,9.66,5.91,20.28,10.65,30.5,15.52l.31,45.38c-4.92,0-10.61.78-14.14,4.58-9.39-21.42-41.83-21.22-49.69,1.28-14.82-7.22-32.27-2.15-36.77,14.51-11.8-5.11-25.16,6.38-24.32,18.4-15.1-4.58-31.29,8.51-24.98,24.32-5.93-.44-9.83,2.42-14.1,5.88l-37.7-10.62-9.33-24.84,42.74,8.88,7.29-28.54c3.63.1,7.03-.55,10.45-1.72,30.63-10.51,36.73-40.74,20.93-66.92-1.46-2.42-9.36-11.73-9.63-12.76-.5-1.87.68-4.8,1.38-6.58,16.46-7.51,34.3-23.05,53.4-21.18,9.13.89,17.2,7.63,24.38,12.75Z" fill="#fff"/>
  <path d="M16.25,380.52c9.7,1.43,21.48,12.54,21.44,22.93,4.38,1.3,5.15-3.09,8.64-5.34,10.85-7.01,27.69-2.49,33.03,9.37.99,2.19,2.6,11.83,3.95,11.81,9.71-12.18,31.53-12.83,36.34,3.78.62,2.13-.77,4.45,1.2,6.06,1.84,1.49,5.3-1.5,7.88-1.87,10.91-1.58,15.05,5.85,16.71,15.06,9.26-4.15,20.17-4.53,24.32,5.91-22.29,4.53-44.78,9.34-65.46,19.03l-.29,2c4.24.39,23.56,6.17,22.26,12.03-4.66,4.8-13.71,6.55-20.15,8.16-16.76,4.2-34.08,6.22-50.9,10.9-16.85,4.69-33.16,13.27-51.14,12.3v-132.12c3.79.39,8.51-.54,12.16,0ZM59.97,448.23c-.76-7.81-7.65-9.12-13.4-4.66-3.93-6.13-9.34-11.51-16.39-13.88-2.33-.78-14.99-3.43-15.58-.84-.47,2.1,8.63,2.14,10.55,2.59,9.55,2.22,16.65,7.86,19.39,17.44,1.94.62,4.02-3.62,6.18-4.3,6.38-2.01,6.13,2.69,6.02,7.51,2.55.93,4.42-1.06,7.47-1.26,7.42-.5,9.76,2.31,12.52,8.56,6.08-9.46-9.69-13.82-16.76-11.16Z" fill="#fff"/>
  <path d="M317.29,309.28c1.3,2.33,3.19,4.67,4.01,7.49,7.01,40.65,11.87,80.89,16.03,122.16l-80.05,11.83-1.97-15.6c6.47-1.92,18.47-7.16,20-14.52.55-2.67-.41-4.81-.16-6.21.41-2.34,2.72-4.62,2.41-7.9-.24-2.54-3.2-4.85-3.53-6.28-.44-1.91.95-4.23-.23-7.1-2.88-6.98-19.92-4.64-25.8-3.45l-6.49-65.97c7.75-39.76,53.71-54,75.78-14.47Z" fill="#fff"/>
  <path d="M444.18,297.46c9.76,13.65,7.8,25.25,4.7,41.02-1.49,7.59-5.43,24.42-8.22,31.22-.41.99-.59,2.4-1.78,2.83-5.08.21-15.7-.79-19.29,3.72-1.5,1.88-.13,4.59-.64,6.43-.13.47-4.01,2.65-4.77,4.58-1.21,3.08.3,4.95-.01,6.66-.18.98-2.76,2.87-3.09,5.4-.66,5.03,4.4,10.23,8.48,12.46,2.13,1.17,8.18,2.06,8.61,4.58l-7.99,32.44-74.89-15.36c-1.09-.89-.59-2.01-.5-3.11.82-9.61,6.09-20.67,8.44-29.74,6.31-24.32,18.55-88.47,32.56-105.46,16.16-19.59,43.82-18.04,58.37,2.32Z" fill="#fff"/>
  <path d="M190.38,228.45c9.81,10.01,19.58,20.08,29.34,30.15.34,1.78-8.8-.28-9.85-.67-3.13-1.16-14.88-10.82-17.1-8.86,3.1,7.34,8.35,16.72,3.18,24.54-7.12,10.76-20.11-3.43-26.16-5.17-8.66-2.49-8.19,6.8-11.08,11.98-7.42,13.35-26.63,12.38-32.66-1.78-4.36-10.24-1.33-20.01-16.8-11.51-8.18,4.49-16.11,11.54-26.11,12.68s-18.52-3.06-10.65-13.1c6.7-8.55,19-18.88,26.9-27.17,8.66-9.08,20.15-27.39,33.19-28.6,3.93-.37,8.47.79,11.78.6,4.08-.23,8.58-2.78,12.56-3.21,17.46-1.9,23.04,9.53,33.44,20.14Z" fill="#fff"/>
  <path d="M270.93,253.8c1.86,3.65,2.2,7.74,3.92,11.48,10.16,22.09,54.02,31.66,75.71,25.2,1.51,1.78-15.68,22.2-18.06,24.33-.93.84-5.96,4.85-6.94,4.29-7.28-21.68-22.16-35.97-45.69-37.81-25.98-2.02-48,9.31-53.26,36.12-3.04,15.5,2.84,32.3,2.97,48-17.24-14.51-42.54-19.94-63.76-11.17,12.36-50.54,52.12-93.25,105.1-100.43Z" fill="#fff"/>
  <path d="M403.82,548.79c1.03,26.45-7.14,51.67-11.29,77.44-15.34,4.73-32.26,4.52-47.24-1.53l-.6-1.24c2.45-22.29,3.16-45.16,0-67.38,19.18-5.26,39.05-9.88,59.13-7.29Z" fill="#fff"/>
  <path d="M225.41,379.44c.75.87,1.26,1.96,2.17,2.72-13.95,10.41-21.61,25.59-16.06,43.05-7.72-4.33-15.37-8.9-22.03-14.78-13.78-12.15-21.91-25.55-20.36-44.68.87-10.81,1.59-11.36,12.16-12.16,13.22-1.01,28.96,1.39,39.46,9.87,1.03,2.5-2.67,4.68-2.08,7.88s4.89,5.95,6.75,8.11Z" fill="#fff"/>
  <path d="M236.17,559.97c1.74,1.52-11.98,15.59-13.49,17.08-5.27,5.16-13.14,12.12-19.06,16.44-1.32.97-8.67,6.24-9.37,6.41-13.93,3.53-39.5-15.37-33.59-30.3,1.63-4.1,7.09-7.75,9.53-10.52,4.37-4.95,8.33-10.28,13.17-14.83,16.53,8.17,34.3,13.96,52.8,15.72Z" fill="#fff"/>
  <path d="M396.58,277.98c-3.6.44-9.14,2.19-12.28,3.82-23.48,12.22-25.14,42.49-31.15,65.36-3.97,15.06-8.89,31.95-13.03,47.05-1.2,4.39-1.52,9.08-3.35,13.26-.93-11.68-1.91-23.52-3.31-35.15s-3.56-22.81-5.2-33.04c-.47-2.93-2.46-14.08-1.68-15.93,12.13-8.88,21.31-20.69,28.88-33.57,11.22-4.9,23.08-10.83,28.65-22.31,4.82,2.12,10.66,5.2,12.47,10.51Z" fill="#fff"/>
  <path d="M269.52,393.18c5.5,6.58-10.96,10.26-15.05,11.23-2.71.64-12.9,1.25-13.63,2.81l-.07,2.22c6.79-.84,13.7-2.01,20.39-3.6,3.06-.73,8.66-4.5,11.55-2.37,1.94,1.43,1.67,5.34.61,7.31-3.16,5.87-23.32,10.08-29.93,10.5l1.07,2.57c10.05-.41,19.28-3.56,28.51-7.17,1.6,1.71-3.61,7.39-4.93,8.53-11.63,10.05-41.06,14.59-51.23.62-11.34-15.58,3.01-36.25,17.42-44.28s11.58,6.04,3.25,11.8l1.04,1.61c5.23-1.59,27.88-5.5,30.99-1.78Z" fill="#fff"/>
  <path d="M430.12,681.56c-.25-5.97-5.61-12.37-11.85-11.83l.09,2.55c6.84.55,13.63,11.53,5.18,15.2,1.72-7.63-7.1-16.42-14.47-13.79l.83,1.46c9.47.94,16.09,14.68,3.77,16.92,1.45-2.95.69-6.67-1.54-8.97-2.03-2.08-13.25-7.45-12.92-1.55,3.59-.83,12.24,3.24,12.48,6.95.12,1.39-.48,2.21-1.35,3.19-7.07,7.89-32.8-3.12-42.02-4.89,2.53-10.88,24.24-30.09,34.59-30.87,2.74-.21,20.37,10.41,23.28,12.8,3.73,3.07,8.65,8.33,3.95,12.82Z" fill="#fff"/>
  <path d="M201.56,636.63c.42.58,1.63.83,2.31,1.96,4.43,7.32.56,12.36-7.51,12.62-1.91-1.15.24-2.77.38-4.79.27-4.05.51-11.19-3.6-13.53-2-1.14-4.43-.72-2.99,1.51,5.84,4.05,4.34,11.96,1.82,17.44l-7.74.8c2.28-5.64,2.34-18.86-5.92-17.73.39,1.83,1.79,2.1,2.63,4.26,3.07,7.94,2.08,16.58-8.55,14.13,5.08-3.6-1.35-18.91-5.58-17.74-3.2.89,1.92,4.54,2.44,5.44,3.23,5.63,2.72,13.48-5.59,11.5-5.38-1.28.68-13.49-7.05-12.99-.57.53,4.17,10.27.98,10.5-2.37.17-12.54-10.27-14.15-12.8,2.13-1.09,2.42-3.59,3.96-5.24,8.38-9.01,23.37-11.35,35.15-10.19,10.67,1.05,13.29,6.88,18.99,14.86Z" fill="#fff"/>
  <path d="M430.12,421.27l.69-4.55c18.24-.75.5-3.43-4.81-5.46s-16.44-8.48-9.37-14.83c1.86,1.4,4.36,2.48,6.56,3.17,1.84.57,20,6.2,20.06,2.94-4.79-3.43-25.01-4.54-26.68-10.83-3.57-13.52,29.8,2.96,31.29-1.66.22-.68.06-1.58-.66-1.96-4.42-1.96-25.3-2.59-24.96-8.57s31.25-7.79,33.45,7.31c2.39,16.43-7.83,33.97-25.58,34.44Z" fill="#fff"/>
  <path d="M401.18,279.96c-3.19,1.75-6.42,3.2-9.41,5.37-19.49,14.12-21.55,38.93-27.47,60.48-7.7,28.01-16.19,56.97-22.87,85.72l-1.38.92c-1.03-8.6-1.86-15.9.06-24.45,3.58-15.94,9.01-33.55,13.13-49.47,4.55-17.59,7.91-37.83,14.75-54.24,5.92-14.19,18.46-21.56,33.18-24.33Z" fill="#fff"/>
  <path d="M269.69,284.56c-5.86,2.33-11.67,5.34-16.44,9.52-23.95,21.01-11.72,53.91-9.86,81.17l-9.19,2.63c-.64-15.64-4.86-32.12-5.29-47.63-.7-25.23,14.98-44.65,40.78-45.7Z" fill="#fff"/>
  <path d="M352.94,673.43c-1.05,1.92-3.14,3.82-3.36,6.81-18.24-5.8-14.48-21.74-7.54-35.47,11.1,3.22,23.7,6.66,35.16,3.29-4.86,3.44-10.97,6.85-15.16,11.13-4.37,4.48-6.24,8.98-9.1,14.24Z" fill="#fff"/>
  <path d="M400.53,652.65l-.84,1.46c-14.46,5.39-27.95,16.6-34,31.1l-12.5-3.67c1.75-5.57,4.49-12.5,8.27-17.02,4.49-5.37,19.26-16.96,26.27-17.17,4.58-.13,8.36,4.42,12.79,5.3Z" fill="#fff"/>
  <path d="M391.32,629.64c-.77,4.03-.18,12.7-4.45,14.28-11.84,4.37-32.24,3.48-43.42-2.83l1.2-12.76c15.09,4.17,31.39,4.85,46.67,1.32Z" fill="#fff"/>
  <path d="M432.35,683.79c.99-.96,2-1.96,3.02-2.88-2.49,17.94-25.68,22.32-41.07,21.02-10.89-.92-52.2-13.38-59.52-20.69-4.19-4.18-3.64-6.06-1.64-11.5,2.88,7.46,8.12,10.03,15,13.26,25.75,12.09,61.6,22.73,84.21.79Z" fill="#fff"/>
  <path d="M186.18,610.57l3.96,9.86c-17.41-3.5-36.7-1.64-48.32,13.14-8.76-11.34,7.02-22.08,16.9-24.5,9.65-2.36,17.48,4.68,27.46,1.51Z" fill="#fff"/>
  <path d="M272.1,215.35c-.02.14-.98.01-1.14,1.14-.48,3.25-.4,7.54-.6,10.89-22.11-.39-21.26-41.32,2.96-29.61-.58,5.66-.46,11.99-1.21,17.59Z" fill="#fff"/>
  <path d="M451.14,346.35c2.87,6.77,8.65,11.63,11.44,18.47,5.95,14.57,5.22,34.24-7.82,44.62-1.06-1.92,2.01-3.76,2.41-4.86,2.05-5.73,3.52-17.75.7-23.24-.64-1.25-5.05-4.72-5.18-5.74-.09-.69,1.09-2.52,1.09-3.96,0-5.49-.17-10.59-7.23-9.54,1.12-4.46,1.49-10.67,3.27-14.81.32-.73-.47-1.24,1.32-.95Z" fill="#fff"/>
  <path d="M132.51,614.98c2.9,16.01,9.71,32.43,26.55,38.83,13.22,5.03,32.62,1.44,46.2-1.5-4.16,6.06-15.58,8.34-22.69,8.86-19.34,1.42-34.84-2.98-45.04-20.01-5.6-9.36-11.83-24.37-5.25-34.52.13,2.78-.27,5.58.23,8.34Z" fill="#fff"/>
  <path d="M190.14,603.35c-2.82,7.54-17.09,4.69-23,2.29s-20.17-14.45-17.27-21.84c.3-.76,6.84-9.49,7.39-8.71,1.94,16.11,17.38,27.07,32.88,28.27Z" fill="#fff"/>
  <path d="M160.56,605.97c-6.99.92-12.11,4.38-17.78,8.2l-5.89,6.27c-1.17-12.21-2.13-25.44,9.53-32.86,2.57,8.12,7.61,13.33,14.13,18.39Z" fill="#fff"/>
  <polygon points="251.91 436.42 253.26 450.86 244.44 449.62 243.01 438.33 251.91 436.42" fill="#fff"/>
  <path d="M231.56,379.2c-1.56,1.58-9.52-6.87-9.58-8.87-.05-1.54,1.61-3.31,1.71-4.93,6.15,2.82,7.99,7.22,7.87,13.8Z" fill="#fff"/>
  <path d="M449.73,373.84l-6.47-.55c-1.16-11.67,11.8-10.89,6.47.55Z" fill="#fff"/>
  <path d="M156.38,712.02c2.92,5.44,10.95,19.77,12.04,24.58,1.36,6.03-1.72,6.59-4.52,10.93,18.62,17.6-12.35,22.61-25.21,17.36-3.73-1.52-5.58-3.35-5.08-7.74-20.33,3.61-40.38,3.43-60.62-.85-10.82-2.29-33.71-8.1-32.02-22.42,1.17-9.95,33.43-46.3,42.74-51.26,17.57-9.37,23.95-.05,39.04,4.22,13.05,3.69,18.93-.74,26.75,12.7,2.33,4,4.84,8.68,6.89,12.49ZM71.15,714.43c10.14-2.1,16.94,8.91,24.85,10.97,15.39,4.01,34.8-1.96,42.33-16.44,1.08-2.07,4.84-11.3,4.38-13.11-1.09-4.27-18.46-5.36-22.91-6.73-14.21-4.38-20.23-12.87-36.37-2.84-7.89,4.91-37.68,38.71-39.08,47.03-.28,1.66-.4,4-.02,5.62,2.11,8.84,32.57,15.9,40.86,16.19l10.25-25.83c-5.05-2.07-8.7-6.51-13.32-9.08-1.29-.72-12.52-4.54-10.97-5.79ZM155.55,718.12c-3.26-6.3-5.97-13.1-10.11-18.81-3.92,10.36-7.94,19.47-18.47,25.25-9.17,5.04-17.3,5.1-27.54,5.37-2.45.85-8.72,22.17-10.54,25.9,11.14.96,23.28,1.32,34.33-.18,1.94-.26,10.04-1.48,11.25-1.9.71-.25,4.02-4.96,5.75-6.09,8.37-5.43,17.21-.66,22.12-3.52,7.81-4.56-4.02-20.68-6.79-26.02ZM137.01,760.99c1.65,2.84,31.72,6.94,28.67-5.99-2.36-9.99-25.84-9.99-28.64,1.31-.24.95-.43,3.98-.03,4.68Z"/>
  <path d="M472.73,719.18c7.17-.42,18.47,3.9,22.47,10.04,11.59,17.78-27.99,14.95-36.49,12.44-18.13-5.35,3.02-21.83,14.01-22.48ZM456.02,732.43c-1.09,1.73-2.46,3.23-.22,4.63,6.96,4.37,29.44,4.71,36.57.5s-6.48-12.76-10.51-14.07c-9.4-3.05-20.51.42-25.84,8.94Z"/>
  <path d="M525.06,584.02c1.51,2.05,3.89,3.74,1.35,6.81-4.82,5.81-37.85,7.57-39.11-1,4.63-15.38,28.38-18.55,37.76-5.8ZM504.92,579.21c-7.88.96-21.76,11.37-6.75,12.95,5.11.54,31.5,1.65,23.32-8.2-3.9-4.69-10.9-5.45-16.57-4.75Z"/>
  <path d="M217.65,785.58c5.17,0,10.9,1.65,14.59,5.41,12.37,12.58-12.85,13.43-20.11,12.87-24.42-1.89-12.07-18.3,5.51-18.28ZM201.33,797.23c3.58,4.16,22.43,3.87,27.48,2.19,10-3.32-5.18-11.41-11.38-11.43s-13.4,3.56-16.11,9.24Z"/>
  <path d="M58.5,526.61c6.83-.89,14.49,1.52,18.85,7.11,9.09,11.65-14.87,11.57-21.63,11.11-22.36-1.53-11.55-16.34,2.79-18.22ZM74.69,536.05c-4.27-5.56-8.7-7.03-15.69-6.31-7.54.77-20.07,9.93-7.84,11.76,3.39.51,23.34.39,24.97-1.86,1.54-2.13-.83-2.79-1.43-3.58Z"/>
  <path d="M520.03,773.1c7.55-1.14,21.79,1.74,23.06,10.85,1,7.12-20.07,6.45-24.46,5.99-18.52-1.96-12.12-14.79,1.4-16.83ZM510.51,784.58c3.36,3.66,22.84,3.06,27.43,1.17,6.82-2.8-6.12-9.62-9.6-10.13-6.18-.9-14.82,1.26-18.4,6.49-.26.86-.04,1.81.56,2.47Z"/>
  <path d="M226.85,694.23c7.89-.34,20.48,4.61,19.11,13.88-2.82,4.36-19.1,4.14-23.92,3.68-22.24-2.15-7.88-17,4.81-17.55ZM213.28,706.43c3.86,3.63,29.13,3.57,30.07-.29-6.57-12.21-21.18-12.11-30.04-2.09l-.03,2.38Z"/>
  <path d="M456.03,591.24c2.61,4.47,1.96,5.89-3.43,7.32s-26.63,2.63-27.15-4.74c.22-6.43,9.44-9.69,14.86-10.18,7.38-.67,11.99,1.22,15.72,7.6ZM450.92,589.12c-7.87-7.19-24.65,1.86-22.76,4.99,6.88,2.43,15.9,3.84,23.02,1.71,1.11-.33,2.54-.45,2.61-1.97.06-.89-2.15-4.07-2.87-4.73Z"/>
  <path d="M142.54,510.29c14.68,13.81-27.5,14.29-29.23,6.48,2.74-11.78,21.21-14.02,29.23-6.48ZM118.85,513.01c-.75.7-1.72,1.16-2.09,2.22l.71,1.36c3.56,2.68,23.79,3.08,24.59-1.08-4.01-9.01-16.82-8.49-23.2-2.5Z"/>
  <path d="M46.33,655.1c-.64-.6-.94-2.58-.9-3.46.47-9.08,19.56-10.7,25.33-4.21,9.94,11.19-20.19,11.68-24.43,7.67ZM69.83,652.64c-1.69-8.61-19.17-8.69-21.68-.36.75,2.97,18.6,1.67,21.68.36Z"/>
  <path d="M409.36,757.53c4.83,7.15-5.43,8.71-11.06,8.75-33.79.23-.8-26.32,11.06-8.75ZM407.01,761.66c-.63-10.64-15.8-8.16-20.93-1.86l.42,1.3c6.22,2.48,14.29,3.13,20.51.56Z"/>
  <path d="M254.4,607.45c6.37-1.05,16.45,2.23,14.31,10.37-1.25,2.15-12.49,2.74-15.04,2.53-15.07-1.2-9.62-11.19.73-12.9ZM253.74,610.73c-1.52.3-6.98,2.81-6.39,4.77.78,2.41,18.51,2.29,19.06,0-2.12-4.98-7.91-5.72-12.66-4.77Z"/>
  <path d="M502.85,648.48c-.05.15-.83.22-1.13,1.17-.64,2.02-.74,4.8-1.26,6.94l-4.3-1.28c-.44-7.67-2.49-14.55-4.89-21.72,3.49-3.58,6.98,14.79,7.88,15.77.88-5.32,3.4-11.62,6.9-15.79,1.31-1.56,6.19-6.44,5.95-1.95-6.23,4.56-6.97,10.31-9.13,16.86Z"/>
  <path d="M297.96,738.1c-1.77,5.05-1.86,10.14-2.65,15.31-.07.48-1.1.2-1.34,1.41-.65,3.3,2.7,7.26,1.38,11.75l-2.65,1.11c-1.74-6.87-1.84-14.18-.48-21.18.6-3.06,1.8-8.18,5.72-8.4Z"/>
  <path d="M319.01,740.72l-.45,1.98c-10.46,3.88-13.23,16.18-17.63,24.95-1.29-.85-.93-1.61-.92-2.84.04-7.65,9.76-25.12,19.01-24.09Z"/>
  <path d="M283.3,756.03c-1.97-2.7-8.17-5.65-9.9-7.38-.7-.7-.41-1.19-.42-2.01,8.95.65,15.88,10.83,16.38,19.29-1.48,4.68-5.31-8.88-6.06-9.9Z"/>
  <path d="M39.91,590.86c-2.19-.62-1.72-3.13,1.31-3.34,1.43-.1,3.02.74,4.58.74,2.61,0,16.69-1.69,15.47,2.27-.64,2.06-3.15.34-3.61.34-3.74,0-15.12.75-17.75,0Z"/>
  <path d="M120.45,573.77c-1.62,2.91-5.08,4.04-7.23,6.9-.4.54-7.68,14.98-7.11,6.74.38-5.48,8.31-14.27,14.34-13.64Z"/>
  <path d="M517.39,638.98c1.13-.08,1.38-.22,2.13.85-7.03,4.2-10.51,8.84-14.12,16.09-3.87-.14,3.86-16.33,12-16.93Z"/>
  <path d="M491.02,649.59c1.52,2.5,3.4,7.57-.96,6.22-2.02-6.37-7.12-10.13-12.59-13.35,3.56-3.2,11.84,4.32,13.55,7.13Z"/>
  <path d="M104.71,569.19c4.48-2.78.91,4.67.79,5.07-.69,2.36-1.56,5.52-1.97,7.89-.3,1.76.65,9.25-1.8,8.7-3.11-.7.8-20.31,2.98-21.66Z"/>
  <path d="M97.74,582.67c1.36,2.62,4.05,8.49-.91,7.48-.36-2.87-1.67-6.55-3.21-8.95-1.94-3.04-5.56-4.24-6.04-7.43,4.59.13,8.26,5.26,10.16,8.9Z"/>
  <path d="M322.29,753.87c.52,3.09-3.66,3.08-5.57,4.61-2.95,2.37-4.98,6.39-6.88,8.09-.73.65-1.1.48-2,.44.3-6.54,7.68-13.64,14.46-13.14Z"/>
  <path d="M556.02,637.52c-.89.02-2.96,1.44-4.51.56l-.76-1.22c6.56-3.22,14.35-1.94,21.38-1.31v1.97c-5.36.07-10.75-.1-16.11,0Z"/>
  <path d="M66.44,793.4l.1,2.53c-2.74.33-4.84-1.19-7.53-1.33-2.42-.13-11.52,1.82-11.52-.3,1.63-3.69,18.03-2.31,18.95-.89Z"/>
  <path d="M287.78,663.82c1.7.61,1.21,3.29-.66,3.29h-11.83c-.2,0-1.22-1.33-1.63-1.64.41-.31,1.43-1.64,1.63-1.64,2.34,0,11.18-.47,12.49,0Z"/>
  <path d="M322.29,610.57c-17.62,1.04-18.42-5.96-.29-2.01l.29,2.01Z"/>
  <path d="M157.27,469.92c.18.93-.22,1.55-1.1,1.85-3.07,1.05-10.44.79-14.01,1.43-3.46-3.15,13.62-3.95,15.11-3.28Z"/>
  <path d="M425.29,522.61c1.69-.62,9.67-.16,8.76,2.84-.71,2.35-14.27-.83-8.76-2.84Z"/>
  <path d="M502.86,52.76c3.6,4.74,6.07,12.31,6.82,18.17,15.28-10.31,40-5.83,42.04,14.81,9.66-1.75,24.01,2.94,21.68,15.05-.6,3.11-3.37,3.95-5.85,5.32l-197.45.17c-5.04-2.96-4.88-9.55-2.78-14.33,4.43-10.1,20.62-14.94,30.18-9.83,2.16-1.66,2.14-4.57,3.44-6.51,7.79-11.6,23.83-14.71,35.74-7.31,4.31-24.92,36.11-38.23,57.16-23.95,1.67,1.14,7.86,6.88,9.01,8.41ZM502.86,58.67c-3.81-6.7-11.25-13-18.65-15.19-21.82-6.47-42.59,7.38-45.6,29.37-2.86.91-3.73-2.17-5.63-3.13-9.66-4.89-25.81-1.43-29.95,9.31-.66,1.72-1.13,7.32-2.24,7.66-6.92-3.37-14.06-4.83-21.45-1.77-5.97,2.47-14.34,11.3-8.77,17.62l195.81.45,2.93-1.34c3.37-7.74-4.55-13.05-11.53-13.47-3.03-.18-8.66,2.51-9.99.85-.88-7.69-1.29-14.22-8.95-18.01-8.62-4.27-16.76-3.12-25.03,1.1-1.55.79-4.3,4.57-6.15,3.14-1.49-5.53-1.9-11.49-4.8-16.59Z"/>
  <path d="M183.15,56.05c18.41-14.33,43.78-5.8,47.11,17.51,5.69-1.21,15.29-1.27,19.76,2.91,1.36,1.27,2.45,4.73,2.69,4.87.43.26,7.18-.44,9.91.28,10.06,2.66,17.6,16.82,6.26,22.99-58.11,1.4-116.46,1.7-174.53.63-6.37-3.28-5.58-11.92-2.84-17.57,5.59-11.5,22.59-15.06,33.54-9.51,1.71-28.06,35.41-38.05,55.05-19.8,1.98.58,2.16-1.62,3.04-2.31ZM178.45,62.9c-13.67-19.31-45.4-11.39-49.81,11.29-.4,2.03.26,8.12-1.32,8.57-8.29-4.19-14.82-6.41-23.75-2.08-7.16,3.48-16.73,14.72-8.13,21.53,43.49-.73,87.05-.34,130.57-.42,10.84-.02,30.79,1.82,40.69-.01,4.98-.92,4.44-7.11,2.87-10.67-3.23-7.3-11.72-8.4-18.52-5.76-1.73-7.47-8.32-10.67-15.8-9.76-1.6.2-6.44,2.5-6.98,2.27-1.51-.65-1.52-7.85-2.53-10.61-5.33-14.6-23.93-19.19-36.87-11.74-3.04,1.75-7.47,8.84-10.42,7.37Z"/>
  <path d="M186.86,160.33c7.86-1.43,17.1-1.26,21.98,5.96s4.72,17.11-5.29,18.28c-40.46-1.8-83.38,2.66-123.55.1-4.59-.29-11.85-.08-12.76-5.66-1.59-9.7,11.48-14.09,19.03-12.77,2.35-11.68,13.82-13.54,24.32-11.18,1.63-24.51,36.97-29.13,49.05-9.91,11.72-6.16,28.77.11,27.22,15.17ZM156.39,145.41c-14.01-17.3-43.36-9.43-43.79,13.98-3,.34-4.33-1.99-7.6-2.34-9.02-.99-15.4,3.92-16.07,12.87-6.87-1.49-19.61-.89-18.32,9.01l135.5,1.65c9.31-12.53-10.53-23.46-20.91-15.71-2.88-2.39-1.16-6.59-2.09-10.33-2.46-9.96-17.65-10.78-24.8-5.39-1.16-.36-1.11-2.72-1.93-3.72Z"/>
  <path d="M537.06,204.58c1.11,2.17,1.93,5.85,2.21,8.33,14.17-6.26,32.72,2.48,31.58,19.41-.51,7.57-5.42,9.67-12.16,10.19-39.31,3.08-82.61-2.39-122.34,0-5.41-.17-8.26-3.96-7.25-9.26,1.37-7.16,16.35-12.91,22.72-9.17,1.1-13.17,15.95-17.42,26.82-12.63,3.11-6.4,4.34-12.29,10.44-16.84,14.61-10.91,39.46-6.71,47.99,9.97ZM536.06,216.75c.6-25.1-34.09-33.57-48.72-15.98-4.26,5.13-3.82,9.94-5.93,15.81-3.7-.59-5.46-3.74-9.6-4.26-10.21-1.29-17.53,5.95-18.03,15.71-8.02-4.34-21.16-1.12-21.69,8.72l4.24,2.49,125.56-.09c7.02-1.06,6.35-9.77,4.46-14.89-3.17-8.6-15.53-12.14-23.7-9.61-2.54.79-3.96,3.78-6.59,2.09Z"/>
  <path d="M329.29,478.88c-10.86,12.3-30.23,26.95-44.39,35.48-10.4,6.27-21.59,11.64-33.61,14.05l-.36-1.99c.7-1.52,10.04-3.43,12.18-4.27,18.55-7.31,41.42-23.05,55.91-36.79,2.22-2.1,12.53-14.6,14.11-14.14,2.88.84-2.76,6.43-3.84,7.65Z"/>
  <path d="M102.04,298.36c.28,1.54-.38,2.65-.95,3.97-6.78,15.78-33.65,47.28-47.01,58.82-3.49.17-10.51,12.09-11.55,6.21,17.62-15.1,33.89-31.79,46.9-51.06,2.97-4.4,5.03-9.87,8.04-14.16.68-.96,3.48-4.91,4.57-3.79Z"/>
  <path d="M110.32,329.66c-1.58,3.84-9.01,19.19-11.53,21.46-1.23,1.11-2.4,1.23-3.97,1.14l16.78-33.5c4.85-2.08-.41,8.81-1.27,10.9Z"/>
  <path d="M565.56,466.63c.81,2.86-3.07,2.19-5.41,3.46-3.69,2-5.89,4.82-8.28,8.16-1.74,2.42-1.72,6.29-5.07,6.67-2.02-4.45-.36-9.9-5.33-12.96-6.53,2.96-6.83,9.56-8.46,15.69-1.34.3-4.92-5.98-6.57-7.22-2.71-2.03-9.13-2.13-7.88-5.27,5.38.03,10.34,2.95,13.47,7.23-.78-6.99,5.66-16.27,13.14-11.49l3.62,6.22c4.29-5.34,8.96-11.57,16.78-10.51Z"/>
  <path d="M381.9,173.32c-.03.14-1.08.19-1.08.45,0,.79,2.36,5.95,2.71,7.83,2.24,11.88,1.86,42.76-2.04,54.01-.7,2.01-3.92,10.44-6.96,8.26-4.15-7.78-9.51-13.52-18.28-15.9-3.17,6.49-13.98,7.81-19.71,4.54-1.84-1.05-3.99-4.55-5.51-5-8.42-2.5-26.28,8.88-31.53,15.56-4.3,1.46-9.14-11.54-10.03-14.77-3.16-11.48-3.77-30.18-1.96-41.94,3.51-22.75,12.75-13.37,29.22-14.17,12.45-.61,19.35-4.84,27.58-13.88,8.73,10.35,23.44,15.64,36.73,11.93,1.47.52,1.09,1.97.85,3.08ZM376.85,238.54c4.83-9.84,3.52-19.5,3.93-29.93.46-11.41,2.83-22.85-3.25-33.51-12.43.11-24.7-3.02-33.53-12.15-6.87,9.34-19.75,13.26-31.24,13.2-13.78-.08-18.55-7.43-21.83,10.33-2.98,16.11-2.52,39.55,8.02,52.7,5.25-6.88,25.99-17.52,34.04-15.11.39.12,2.73,4.37,4.47,5.54,6.26,4.24,16.14,1.26,16.98-6.59,1.39-13.01-10.99-16.08-11.79-28.18-.06-.97-.65-4.57,1.01-4.31,3.28.51,1.96,6.86,3.58,10.23,1.34,2.78,5.01,5.11,6.51,7.3,3.09,4.55,4.78,11.29,3.72,16.71,2.73,2.12,6.24,2.71,9.09,4.66,2.19,1.5,8.79,10.09,10.28,9.09Z"/>
  <path d="M360.42,249.71c-3.18.12-5.16-2.74-8.26-3.89-10.13-3.77-21.47-2-30.91,2.57-1.67.81-2.12,3.01-4.47,2.6-5.12-1.78,7.61-7.75,9.3-8.32,4.77-1.61,11.93-2.49,16.94-2.18,5.41.33,17.23,2.6,17.39,9.23Z"/>
  <path d="M337.91,254.49c1.68-.22,11.16-.58,10.67,2.77l-14.7.27c-2.74-1.7,2.83-2.88,4.03-3.04Z"/>
  <path d="M59.97,448.23c7.07-2.67,22.84,1.7,16.76,11.16-2.76-6.24-5.1-9.05-12.52-8.56-3.05.2-4.92,2.19-7.47,1.26.11-4.83.36-9.52-6.02-7.51-2.16.68-4.23,4.91-6.18,4.3-2.74-9.58-9.85-15.22-19.39-17.44-1.91-.44-11.02-.49-10.55-2.59.58-2.58,13.25.06,15.58.84,7.06,2.36,12.46,7.75,16.39,13.88,5.75-4.46,12.63-3.15,13.4,4.66Z"/>
  <path d="M71.15,714.43c-1.56,1.25,9.68,5.07,10.97,5.79,4.62,2.57,8.27,7.01,13.32,9.08l-10.25,25.83c-8.29-.29-38.75-7.35-40.86-16.19-.39-1.62-.26-3.96.02-5.62,1.39-8.32,31.18-42.13,39.08-47.03,16.14-10.03,22.16-1.54,36.37,2.84,4.45,1.37,21.82,2.46,22.91,6.73.46,1.81-3.3,11.04-4.38,13.11-7.53,14.48-26.94,20.45-42.33,16.44-7.91-2.06-14.71-13.07-24.85-10.97Z" fill="#fff"/>
  <path d="M155.55,718.12c2.76,5.34,14.6,21.46,6.79,26.02-4.91,2.87-13.75-1.9-22.12,3.52-1.73,1.12-5.04,5.84-5.75,6.09-1.21.42-9.31,1.63-11.25,1.9-11.06,1.5-23.2,1.14-34.33.18,1.82-3.73,8.09-25.05,10.54-25.9,10.24-.26,18.36-.33,27.54-5.37,10.53-5.78,14.55-14.89,18.47-25.25,4.14,5.71,6.86,12.51,10.11,18.81Z" fill="#fff"/>
  <path d="M137.01,760.99c-.4-.7-.21-3.73.03-4.68,2.8-11.3,26.28-11.3,28.64-1.31,3.06,12.93-27.02,8.84-28.67,5.99Z" fill="#fff"/>
  <path d="M456.02,732.43c5.34-8.52,16.44-11.99,25.84-8.94,4.03,1.31,17.48,9.96,10.51,14.07s-29.61,3.86-36.57-.5c-2.24-1.41-.87-2.9.22-4.63Z" fill="#fff"/>
  <path d="M504.92,579.21c5.67-.69,12.67.07,16.57,4.75,8.18,9.84-18.21,8.74-23.32,8.2-15.01-1.59-1.13-11.99,6.75-12.95Z" fill="#fff"/>
  <path d="M201.33,797.23c2.71-5.67,9.76-9.26,16.11-9.24s21.38,8.11,11.38,11.43c-5.05,1.68-23.9,1.97-27.48-2.19Z" fill="#fff"/>
  <path d="M74.69,536.05c.61.79,2.97,1.45,1.43,3.58-1.63,2.25-21.58,2.37-24.97,1.86-12.23-1.83.3-10.98,7.84-11.76,6.99-.72,11.42.75,15.69,6.31Z" fill="#fff"/>
  <path d="M510.51,784.58c-.6-.66-.82-1.6-.56-2.47,3.58-5.23,12.22-7.4,18.4-6.49,3.48.51,16.42,7.33,9.6,10.13-4.6,1.89-24.07,2.49-27.43-1.17Z" fill="#fff"/>
  <path d="M213.28,706.43l.03-2.38c8.85-10.02,23.47-10.11,30.04,2.09-.94,3.86-26.21,3.92-30.07.29Z" fill="#fff"/>
  <path d="M450.92,589.12c.72.66,2.93,3.83,2.87,4.73-.07,1.52-1.5,1.63-2.61,1.97-7.12,2.14-16.14.73-23.02-1.71-1.89-3.12,14.89-12.18,22.76-4.99Z" fill="#fff"/>
  <path d="M118.85,513.01c6.38-5.99,19.19-6.52,23.2,2.5-.79,4.16-21.02,3.76-24.59,1.08l-.71-1.36c.38-1.06,1.35-1.52,2.09-2.22Z" fill="#fff"/>
  <path d="M69.83,652.64c-3.07,1.31-20.93,2.6-21.68-.36,2.5-8.32,19.99-8.25,21.68.36Z" fill="#fff"/>
  <path d="M407.01,761.66c-6.23,2.57-14.3,1.91-20.51-.56l-.42-1.3c5.13-6.29,20.3-8.78,20.93,1.86Z" fill="#fff"/>
  <path d="M253.74,610.73c4.76-.95,10.55-.21,12.66,4.77-.55,2.3-18.27,2.41-19.06,0-.59-1.96,4.87-4.46,6.39-4.77Z" fill="#fff"/>
  <path d="M502.86,58.67c2.9,5.1,3.31,11.06,4.8,16.59,1.86,1.43,4.6-2.35,6.15-3.14,8.28-4.23,16.42-5.37,25.03-1.1,7.66,3.79,8.06,10.32,8.95,18.01,1.33,1.66,6.96-1.03,9.99-.85,6.98.42,14.9,5.73,11.53,13.47l-2.93,1.34-195.81-.45c-5.57-6.31,2.8-15.14,8.77-17.62,7.39-3.06,14.53-1.61,21.45,1.77,1.11-.34,1.58-5.94,2.24-7.66,4.14-10.73,20.29-14.2,29.95-9.31,1.9.96,2.76,4.04,5.63,3.13,3.02-21.99,23.78-35.84,45.6-29.37,7.4,2.19,14.84,8.5,18.65,15.19Z" fill="#fff"/>
  <path d="M178.45,62.9c2.94,1.47,7.38-5.63,10.42-7.37,12.94-7.45,31.54-2.86,36.87,11.74,1.01,2.76,1.02,9.96,2.53,10.61.53.23,5.38-2.08,6.98-2.27,7.48-.92,14.07,2.28,15.8,9.76,6.8-2.64,15.29-1.54,18.52,5.76,1.57,3.56,2.12,9.75-2.87,10.67-9.89,1.83-29.85,0-40.69.01-43.52.08-87.07-.31-130.57.42-8.59-6.82.97-18.06,8.13-21.53,8.92-4.33,15.46-2.11,23.75,2.08,1.58-.46.92-6.54,1.32-8.57,4.41-22.68,36.14-30.6,49.81-11.29Z" fill="#fff"/>
  <path d="M156.39,145.41c.81,1,.77,3.36,1.93,3.72,7.15-5.38,22.34-4.57,24.8,5.39.93,3.75-.8,7.94,2.09,10.33,10.38-7.75,30.22,3.18,20.91,15.71l-135.5-1.65c-1.3-9.9,11.45-10.5,18.32-9.01.67-8.95,7.05-13.86,16.07-12.87,3.27.36,4.6,2.69,7.6,2.34.43-23.41,29.78-31.28,43.79-13.98Z" fill="#fff"/>
  <path d="M536.06,216.75c2.63,1.69,4.05-1.3,6.59-2.09,8.17-2.53,20.54,1.01,23.7,9.61,1.89,5.12,2.56,13.83-4.46,14.89l-125.56.09-4.24-2.49c.53-9.84,13.67-13.06,21.69-8.72.5-9.76,7.82-17,18.03-15.71,4.14.52,5.9,3.67,9.6,4.26,2.1-5.86,1.66-10.68,5.93-15.81,14.63-17.59,49.32-9.12,48.72,15.98Z" fill="#fff"/>
  <path d="M376.85,238.54c-1.5,1-8.1-7.59-10.28-9.09-2.85-1.95-6.35-2.54-9.09-4.66,1.06-5.42-.63-12.17-3.72-16.71-1.49-2.19-5.16-4.52-6.51-7.3-1.63-3.37-.31-9.71-3.58-10.23-1.66-.26-1.08,3.34-1.01,4.31.8,12.1,13.18,15.17,11.79,28.18-.84,7.84-10.73,10.83-16.98,6.59-1.74-1.18-4.07-5.43-4.47-5.54-8.05-2.41-28.8,8.23-34.04,15.11-10.54-13.16-11-36.59-8.02-52.7,3.28-17.76,8.05-10.41,21.83-10.33,11.49.06,24.37-3.86,31.24-13.2,8.83,9.13,21.09,12.26,33.53,12.15,6.09,10.66,3.71,22.1,3.25,33.51-.42,10.43.9,20.08-3.93,29.93ZM305.38,191.7c1.65,1.87,26.7,7.52,29.6,6.61,3.52-1.11,1.51-5.66-1.36-6.91s-19.84-5.2-22.91-5.41c-3.75-.26-7.73,1.75-5.33,5.72ZM377.33,187.46c-2.96-3.55-24.27,3.27-26.16,6.01-5.94,8.63,17.21,1.83,19.49,1.07,2.47-.82,9.76-3.38,6.67-7.08ZM318.83,200.55c-6.25,1.36-5.52,13.58-.17,13.72s7.2-9.62,4.02-13.25c-1.15-.86-2.54-.75-3.86-.47ZM363.53,200.56c-4.09,1.23-5.21,10.9-1.51,13.06,7.11,4.14,9.7-8.68,5.36-12.58-1.1-.81-2.59-.86-3.85-.47Z" fill="#fff"/>
  <path d="M305.38,191.7c-2.4-3.97,1.58-5.98,5.33-5.72,3.07.21,20.16,4.21,22.91,5.41s4.88,5.8,1.36,6.91c-2.9.92-27.95-4.74-29.6-6.61Z"/>
  <path d="M377.33,187.46c3.09,3.7-4.21,6.26-6.67,7.08-2.28.76-25.44,7.55-19.49-1.07,1.89-2.74,23.2-9.56,26.16-6.01Z"/>
  <path d="M318.83,200.55c1.32-.29,2.71-.39,3.86.47,3.18,3.63,1.58,13.4-4.02,13.25s-6.08-12.36.17-13.72Z"/>
  <path d="M363.53,200.56c1.26-.38,2.75-.34,3.85.47,4.33,3.9,1.74,16.72-5.36,12.58-3.7-2.15-2.58-11.82,1.51-13.06Z"/>
</svg>