<?xml version="1.0" encoding="UTF-8"?>
<svg id="Camada_1" xmlns="http://www.w3.org/2000/svg" version="1.1" viewBox="0 0 595.28 841.89">
  <!-- Generator: Adobe Illustrator 29.0.0, SVG Export Plug-In . SVG Version: 2.1.0 Build 186)  -->
  <g>
    <path d="M.14,841.29V-.06h595v841.34H.14ZM590.54,3.89H4.08v310.25c18.81-13,36.15-5.18,50.95,9.04l8.22-4.45-7.51-10.55c-18.87-4.12-27.16-24.16-12.38-38.41-7.25-5.36-8.78-12.07-6.76-20.73,2.8-11.98,15.57-16.19,22.98-25.01,7.06-8.4,9.38-18.71,14.87-27.7,18.24-29.85,55.74-41.57,88.72-31.05,2.88.92,8.41,4.41,10.9,4.88,3.52.66,8.68-.32,12.48,0,22.95,1.99,35.1,18.45,39.07,39.27l.07,4.51c-2.85,9.21-4.03,19.45-10,28.12-1.45,2.11-4.51,2.84-5.13,6.05-2.28,11.84.54,26.85,2.64,38.58,2.34,13.07,2.06,15.43-1.39,28.39-.6,2.25-2.22,4.16-2.5,6.54,7.32,4.82,15.26,9.05,21.27,15.5,12.45-12.87,33.5-19.41,51.27-18.38,35.79,2.09,56.38,30.86,84.19,49.11,20.18-19.43,47.67-22.98,71.61-7.73,8.37-23.48,26.87-39.43,53.22-32.78,6.05,1.53,11.57,6.22,17.07,9.02,23.07-22.28,47.04-48.96,82.61-33.41V118.26h-152.86c-.19,0-2.52-1.38-3.01-1.76-2.17-3.52,1.14-8.91,3.36-11.7,8.28-10.38,25.1-11.1,36.39-5.64,5.26-16.01,23.09-23.87,37.88-14.42,7.18-23.11,34.35-33.2,55.45-20.92,6.52,3.8,10.74,9.32,11.63,16.97l11.17-3.29V3.89ZM438.99,115.63h151.54v-34.84c-3.15.36-6.65,1.82-9.26,3.57-1.1.74-1.04,3.44-3.47,2.27-.85-.41-2.34-10.39-4.46-13.3-13.87-19.03-48.31-12.97-56.27,8.62-1.13,3.07-.3,6.39-2.56,8.66-4.59-.99-6.23-5.47-11.25-6.37-13.22-2.36-23.9,6.5-26.25,18.96-1.85,1.49-5.43-2.01-7.75-2.72-13.01-4-29.5-.73-31.82,14.39.52.13,1.14.68,1.54.76ZM214.25,238.34c15.11-22.15,5.96-56.86-21.34-64.01-7.78-2.04-14.01-.4-20.69-1.66-3.72-.7-10.44-4.87-14.95-6.09-24.71-6.68-54.33,1.49-71.65,20.38-11.78,12.85-14.53,31.48-27.04,43.3-7.06,6.66-19.35,12.32-19.68,23.71-.26,8.79,3.36,9.76,9.27,15.13-10.21,10.33-14.2,22.43-.63,32.16,3.31,2.37,8.61,3.04,10.18,4.29,2.18,1.74,3.7,9.55,9.33,10.44,3.22.51,17.88-7.69,23.17-5.8-2.09-5.27-1.83-10.77-2.65-15.97-.08-.49-1.18-.23-1.35-1.41-.59-4.08-.42-9.34-.6-13.52-7.51.79-14.82-1.89-18.66-8.62-.59-1.04-3.64-8.17-3.74-8.75-.42-2.35,2.42-10.98,3.66-13.53,4.09-8.41,13.9-11.5,22.5-8.02,4.93,2,1.9,2.85,1.55,5.76-2.33,19.07-2.97,52.33,4.92,69.93,13.4,29.91,58.01,39.88,86.02,26.9,27.09-12.56,34.16-39.42,26.04-66.96-1.45,2.53-2.01,5.31-3.68,7.82-5.32,8.01-6.23,2.16-10.97-.72-2.1-1.28-10.37-5.34-12.3-4.18-4.59,9.8-20.32,8.05-28.07,3.13-1.87-1.19-3.95-4.59-5.12-4.76-2.02-.29-14.02,4.01-16.57,5.15-4.34,1.94-10.82,7.9-15.16,6.2-2.68-1.05-9.51-10.05-10.81-12.86-8.02-17.39-1.8-40.73-1.28-59.22,1.27-1.51,11.74,1.92,14.3,2.16,13.14,1.22,30.2-3.96,39.03-14.05,1.35-1.54,2.89-5.61,3.62-6.24,2.49-2.16,3.79,2.13,5.58,3.63,12.93,10.81,29.22,13.7,45.38,8.86.9,2.5-2.79,3.11-3.05,4.22-.3,1.22,1.58,10.17,1.73,12.55.3,4.67-.2,9.44.02,14.12.79-.84,3.24-2.8,3.71-3.49ZM166.73,206.74c-.64-.45-3.36-3.68-3.87-3.68-13.14,17.92-36.11,21.74-56.87,17.08.51,21.94-9.05,49.65,11.2,65.44,5.48-2.34,28.93-14.59,33.51-11.88.66.39,1.8,3.6,3.61,4.95,4.26,3.16,17.18,5.6,21.34,1.61,6.64-6.38-3.73-27.12-4.31-34.46-.19-2.35,1.55-2.85,2.91-.87,1.97,2.87,3.12,11.79,4.14,15.45.15.56,1.13.59,1.35,1.43,1.12,4.27,1.42,8.59,2.17,12.93,6.45,2.08,12.41,4.09,17.12,9.14,7.34-6.44,7.76-20.42,8.24-29.86.65-12.56.08-25.45-1.65-37.86-13.74,1.62-27.52-1.43-38.89-9.42ZM87.57,242.5c-25.06-5.9-28.02,35.75-1.96,33.52l1.96-33.52ZM590.54,379.86v-72.63c-18.26-11.14-41.5-4.4-56.67,8.88l-25.91,24.93c-1.98.57-2.22-1.9-3.57-2.89-27.72-20.22-54.81-5.08-63.71,24.9.41,1.7,5.13.84,6.78,1.12,20.99,3.6,41.1,14.06,41.85,38.03l2.6.02c1.45-15.84,3.22-32.6,17.96-41.54,25.5-15.45,66.07-7.82,80.66,19.19ZM4.08,319.06v110.1c1.33-1.79.87-5.3,1.36-7.39,6.55-27.86,10.3-61.18,30.88-83.62,4.43-4.83,10.3-8.7,15.09-13.17-12.68-14.48-32.1-21.1-47.32-5.92ZM98.49,326.22c-3.36-4.56-5.22-8.32-8.07-13.29-20.99,2.37-43.65,16.38-56.25,32.94-17.46,22.93-25.08,70.14-27.45,98.76-.3,3.58.45,7.81.05,11.21-.17,1.41-1.28.63-1.38,1.27-.26,1.53,1.2.71,1.33,1.42.32,1.74-.24,3.92.01,5.8,2.33,17.62,6.88,30.47,18.41,44.03,13.51,15.89,32.94,29.59,52.92,35.83,1.24-13.74,3.7-27.39,8.11-40.48.29-.86,1.15-.92,1.34-1.45,3.12-8.8,5.33-18.52,11.95-25.42-4.84-6.12-17.31-11.34-22.06-16.77-.81-.92-1.53-1.67-1.61-2.99l6.19-75.89,2.31-.64-5.24,75.89c.07,2.49,12.61,10.19,13.13,9.55-.19-22.61-4.9-49.27,2.3-70.99,5.1-15.41,18.78-29.27,33.89-35.13,18.64-7.23,43.54-7.1,60.13,4.89l4.95-22.04-1-2.25c-27.8,19.64-73.67,13.33-93.95-14.22ZM392.52,393.14c-27.96-20.41-53.55-44.05-82.28-63.34-24.73-13.54-57.01-9.96-77.31,9.74l10.91,13.96c21.16-7.65,45.98-7.49,63.34,8.28s19.9,38.54,19.35,60.86l8.82,5.11c7.83-14.78,25.96-22.18,42.21-18.02,3.46.89,6.2,3.8,9.82,3.65l5.14-20.25ZM214.22,375.03c1.35-6.58,2.95-15.18,3.52-21.8.45-5.19,1.02-16.9,0-21.66-.63-2.93-7.33-4.55-9.52-6.75l-11.07,11.82-5.04,29.72c6.42,8.14,15.27,15.28,17.11,26,1.73.21,1.03-.08,1.34-.96,1.31-3.74,1.72-11.17,2.67-15.61.1-.47.97-.58,1-.75ZM236.41,350.05c-4.62-6.04-8.76-13.22-16-16.53,2,15.06-.52,30.44-3.96,45.03,5.72-10,13.87-18.24,24.29-23.32-.64-2.32-3.27-3.79-4.33-5.18ZM317.31,382.22c-26.11-56.63-92-26.14-91.03,28.84l1.34,137.73,97.02-7.19.2-40.38c-.49-1.25-10.02-3.15-12.19-4.24-3.88-1.95-8.4-7.89-7.42-12.15.13-.57,1.88-.34,1.31-2.06-.13-.39-2.77-1.5-3.26-4.68-.58-3.8,1.35-5.32,1.28-7.13-.09-2.56-3.75-3.6-1.25-8.52.87-1.72,3.89-2.85,4.24-3.68s-1.09-1.85-.92-3.47c.74-7.01,11.74-5.3,16.6-4.52.8-.25.88-.86,1.03-1.56,1.48-7.01.09-33.71-.67-42.05-.83-9.23-2.54-16.83-6.28-24.94ZM436.03,364.08c-19.67-16.1-50.31-12.32-67.01,6.16l25.26,20.79c8.39-16.69,22.79-26.29,41.75-26.94ZM252.6,354.24c-16.18,4.34-28.28,15.03-35.32,30.08-3.17,6.77-6,13.44-4.05,20.64,1.41,5.22,3.45,10.54,3.24,16.62l1.92,124.13c.09.3,5.84,3.76,5.28,1.45,4.99-47.44-11.5-119.16,5.24-162.38,4.73-12.21,12.67-23.37,23.68-30.54ZM583.73,374.84c-8.64-11.02-25.08-17.87-38.86-18.66-14.07-.8-32.57,2.56-41.11,14.82,27.82-.05,55.7,3.42,80.79,15.84,1.06.53,6.03,5.2,5.98,2.58-.04-2.43-5.07-12.36-6.8-14.58ZM201.57,383.56c-27.82-45.84-85.84-23.55-89.69,27.5l1.34,73.97c4.44-.52,8.89-.98,13.39-.58,10.64.97,23.01,6.02,34.19,6.57,3.16,1.91,3.6,4.6,2.99,8.09-1.09,6.21-15.42,6.24-14.41,8.24,5.02,3.44,25.78,13.51,26.84,18.9,1.07,5.42-4.43,8-4.54,8.52-.23,1.1.83,3.01.58,4.95-.91,7.14-8.42,5.78-9.06,6.44-.81.83,1.09,5.9-5.6,6.56-5.1.51-7.37-2.63-10.2,3.27l67.63-5.67c-.88-26.24.14-52.59-.52-78.83s1.45-64.23-12.95-87.96ZM138.2,361.45c.06-.07.24-1.38-.31-1.29-14.65,3.95-27.46,12.09-35.2,25.28-14.35,24.44-7.12,56.26-7.2,83.48,3.59,4.46,9.85,5.07,5.52,12.19l8.59,4.6c1.38.09.86-.02.99-.99.46-3.22.26-10.41.05-13.86-2.18-35.05-10.53-80.12,20.96-105.81,1.27-1.04,6.03-2.97,6.59-3.6ZM479.01,383.57c-17.23-20.99-57.65-22.99-75.18-1.4,28.68-.94,56.99,3.19,81.84,18.08.29-4.9-1.86-11.14-4.63-15.11-.55-.8-1.58-1.02-2.03-1.56ZM590.54,405.5v-10.85c0-2.52-23.49-11.85-27.11-13-13.74-4.34-31.76-7.28-46.18-7.73-10.25-.32-19.03-2.27-19.44,10.86-.08,1.28-.04.94.95.95,2.65.03,6.86-1.02,9.81-1.02,28.4.07,57.3,6.84,81.96,20.77ZM487.97,418.64c.17-4.99,3.55-9.69-.97-13.81-13.6-12.39-58.27-21.99-76.26-20.35-7.25.66-11.4,2.72-14.12,9.55-.15,1.19-.09.93.95.95,2.15.05,5.4-1.22,7.88-1.34,21.17-1.06,45.42,4.63,64.36,13.92,6.41,3.14,12.08,7.45,18.17,11.08ZM560.69,448.63c10.62-15.71,1.51-33.99,3.25-51.71-7.85-2.4-15.78-4.86-23.87-6.37-6.38-1.19-39.33-5.68-42.55-1.47-1.71,6.45-3.53,13-4.76,19.56-2.51,13.39-4.25,24.27.56,37.2,9.89,26.57,52.73,24.46,67.38,2.79ZM457.66,405.56c-12.96-4.77-48.62-14.07-60.36-6.91-8.88,5.42-10.62,36.03-7.94,45.62,2.24-4.33,13.37-5.41,14.95-6.74.63-.53,3.1-7.47,4.22-9.28.47-.76,1.55-1.05,2.09-1.9,1.08-1.72,5.57-10.65,7.32-10.34,1.55,1.08.9,1.73.49,3.1-1.59,5.36-15.46,19.29-10.99,25.15,5.54,5.92,14.36-1.4,18.86-1.18,5.45.27,12.81,5.01,14.34,10.39,7.02-.55,18.36-15.53,18.94-21.55.23-2.36-2.17-6.56-2.5-9.69-.58-5.38.24-11.31.58-16.69ZM590.54,409.44l-23-11.17c-.64,17.69.04,35.07,7.96,50.86,3.85,7.68,8.52,12.09,15.04,17.5v-57.19ZM460.36,408.46v14.46c0,2.82,4.8,10.22,3.87,11.44-.11.14-1.74.11-2.6,1-1.22,1.27-2.97,6.85-4.55,9.08s-8.22,8.58-10.75,9.82c-9.84,4.83-6.82-1.45-12.61-5.37-7.47-5.07-9.15-.77-15.79-.01s-14.09,1-14.53-7.26c-3.83-1.34-12.34,3.89-14,7.5l-1.6.42c-3.59-.54-3.15-21.37-3.07-24.96-9.95,23.37-10.92,60.6,19.44,68.32,36.69,9.33,54.5-14.01,64.17-44.91,2.96-9.46,1.61-25.49,17.62-18.43l1.24-.81c1.11-5.96-.61-6.52-4.57-9.68-5.93-4.73-13.89-8.25-20.65-11.59l-1.63,1ZM384.01,416.1c-19.68-10.62-43.22.53-50.06,20.75,3.52,5.66,9.02,10.01,11.21,16.45,4.75,13.94,2.48,35.53-10.43,44.49-2.66,1.85-4.45,2.02-7.08,3.43l-.4,42.98-87.69,7.97,4.51,55.44,5.46,1.69c4.92-9.96,18.03-12.35,27.09-6.63,6.94-25.01,44.93-30.56,56.22-6.56,10.9-8.25,25.08-11.04,37.46-3.94l-.61-4.97c-17.67.96-31.75-10.64-30.27-28.86,1.05-12.92,11.66-38.53,18.03-50.33,5.71-10.58,12.77-21.77,22.76-28.67-.06-2.43-1.95-4.51-2.49-6.65-3.83-15.3-3.3-26.02.8-41.56.69-2.63,6.04-14.12,5.51-15.03ZM326.9,434.42c6.33-1.15,6.89-5.01.33-6.58l-.33,6.58ZM477.92,431.28c-4.35,1.03-8.01,16.88-7.44,19.92.52,2.73,7.57,1.6,9.54.57,5.33-2.79,10.99-23.59-2.1-20.5ZM340.3,451.25c-1.78-3.25-6.71-11.13-9.17-13.51-.54-.52-.6-.95-1.59-.68-3.82,3.94-2.6,8.25-2.56,13.37.85,2.14,8.69.34,7.8,5.01-1.09,1.03-29.46-8.02-24.66,1.98,1.45,3.01,23.21,6.68,24,7.9.52.81-.29,2.76-1.57,2.58-8.77-.43-20.28-10.63-27.34-3.23,4.18,9.09,18.47,9.19,27.09,11.83,1.63,1.48,1.67,3.18-1.03,3.24-4.12.09-22.39-6.86-23.44-6.26-.98.56-1.41,2.68-1.21,3.83,1.34,7.81,24.86,9.42,25.51,11.36.25.74.06,1.49-.62,1.96-2.87,1.97-18.44-4.81-22.37-5.6-2.41,9.95,17.46,14.11,23.61,10.79,4.84-2.61,10.17-13.86,11.06-19.18,1.56-9.29.91-17.3-3.52-25.39ZM571.07,447.97c-1.24-2.42-1.45-5.82-3.54-7.64-1.36,5.66-8.17,16.64-3.33,22.05,2.13,2.38,22.59,6.56,26.32,11.47,1.84-2.51-9.29-10.7-11.15-12.84-2.7-3.12-6.42-9.35-8.31-13.05ZM490.22,446.64c-.7-1.26-.67-3.11-2.24-3.67-1.44,11.44-8.51,13.54-19,12.56l-4.07,11.35c8.44,3.15,15.93,7.83,22.77,13.58,6.14.55,8.17-13.36,8.19-17.48.04-7.1-2.42-10.56-5.65-16.34ZM534.98,467.94c-4.98.6-11-.44-16.11,0,6.21,15.16,27.34,15.91,37.15,3.95,1-1.22,5.17-8.08,4.93-8.86-.09-.29-1.24-.31-1.3-.8-.28-2.19.15-4.56-.02-6.77-6.86,5.18-15.83,11.42-24.65,12.48ZM510.32,466.62c-1.18-1.14-11.07-7.43-11.83-6.56l-.66,11.82,12.49-5.26ZM574.76,533.01v-28.59c0-.63-.94-1.75.1-2.86l2.53-.1.76,32.11c.46.75,15.51,1.06,11.1,3.73-13.88.48-28.84-3.12-41.13-9.54l-13.96,16.09c11.78,9.8,18.14,23.98,19.91,39.08l9.76,2.48c7.19-9.32,15.33-15.53,26.61-19.31l-.24-88.3c-7.8-6.21-17.56-9.73-27.26-11.84-5.49,16.32-29.43,23.65-42.12,10.87-1.55-1.56-4.85-7.73-6.36-8.16-27.87,7.26-38.36,37.15-48.85,60.7l23.07-1.92c1.31-3.21,4.9-25.75,6.21-26.01,1.02-.2,1.76.09,2.23,1.04l-4.47,24.82,7.16,1.74c-.42-9.41,1.97-17.47,6.24-25.64,1.48-2.83,8.66-14.96,10.41-16.87,4.21-4.6,11.32-2.3,15.51.84,11.35,8.49,14.27,23.7,16.01,36.91,8.29,4.35,17.27,8.13,26.78,8.71ZM380.15,550.43c-.6-4.51.44-10.14,0-14.79-7.28.43-13.83,7.16-20.22,9.04-.92.27-2.39.75-2.15-.83.5-3.2,12.57-7.02,15.13-9.36,1.51-11.56,4.45-22.44,7.9-33.68l1.92,1.58-5.54,30.63c4.74.95,5.79-12.16,7.31-15.7,8.71-20.31,34.71-21.8,44.88-1.66.51,1.01,3.83,8.81,3.96,9.31.97,3.51,1.21,13.55,2.68,16.09.55.94,4.81,2.56,5.9,2.16,3.14-1.18,10.24-9.53,15-10.35l2.18-26.1,1.91-.05-.66,23.35,1.31.97c6.52-16.63,14.22-32.79,24.25-47.57-6.35-6.11-14.12-10.87-22.53-13.6-13.33,30.59-58.86,38.17-80.6,12.81-9.03,3.34-13.64,13.71-18.4,21.56-10.7,17.65-39.06,69.87-5.12,78.9,16.12,4.29,30.06-6.43,37.98-19.58-9.13,1.96-15.91-4.25-17.09-13.14ZM4.08,475.17v68.36c11.99-5.19,23.72-1.16,34.18,5.25-.34-7.04,2.07-13.09,3.8-19.52-11.13-10.18-23.47-20.82-30.21-34.59-3.09-6.32-4.74-13.21-7.78-19.5ZM168.24,541.37c.77-.99,1.18-2.79.78-3.96-1.52-4.45-26.97-12.99-26.86-15.24.07-1.42,3.02-.9,3.95-.68,4.5,1.11,21.05,11.82,24.27,10.55,3.89-3.08,3.64-5.47-.02-8.5-3.39-2.81-27.02-15.65-27.51-17.2-.33-1.04.03-1.78,1.09-2.1,4.72-1.55,20.76-1.64,15.94-9.66l-33.85-6.91c-4.96-1.35-12.05,1.76-16.35,1.29-3.32-.37-9.07-6.26-12.12-4.47-2.14,1.26-10.61,29.78-11.98,34.38,12.91,14.35,33.92,33.72,54.25,34.54,2.55.1,7.28.52,6.92-3.3-2.03-.28-4.19-.72-6.1-1.47-1.36-.53-21.61-8.48-18.22-11.68,6.29,1.96,11.76,5.96,18.22,8.4,3.94,1.49,14.1,5.44,17.78,3.6,3.04-1.51,1.03-4.43-1.35-5.57l-24.7-11.12-.1-2.54c1.15-.03,2.32-.14,3.45.16,7.03,1.91,19.6,11.53,26.62,12.83,1.84.34,4.66.22,5.89-1.36ZM525.87,491.83c-1.94-2.34-4.92-6.06-7.64-2.53,3.27,2.43,14.57,24.8,11.82,26.62-5.42-3.91-6.64-13.29-10.18-19.06-.68-1.11-1.53-3.98-3.22-3.21-.53.24-3.36,4.08-3.7,5.19,6.57-2.43,11.25,18.64,9.86,20.38-4.97-.43-4.05-18.43-9.51-17.09-.98.58-.89,1.32-1.04,2.27-.94,6.26.9,15.71,1.98,21.2.3,1.54-.24,3.32.16,4.98.79,3.25,14.05,8.09,17.21,10.93l13.45-17.32c-1.61-13.45-5.27-28.57-17.65-35.86,2.33,3.83,11.61,20.3,10.44,23.88-1.93,5.94-5.94-8.86-6.39-9.87-1.52-3.4-3.24-7.65-5.6-10.5ZM510.98,531.04l-1.96-27.6c-3.47,7.93-5.49,16.51-5.96,25.19l7.92,2.41ZM421.21,522.21c-3.94-7.5-6.26-21.62-18.05-17.13,6.06,4.04,12.48,13.51,13.53,20.69.12.83.52,2.41-.72,2.64-1.68.32-4.51-8.76-5.6-10.67-1.83-3.21-8.05-11.25-12.09-11.01-7.8.46-13.98,21.01-14.75,27.35-1.44,11.81-1.23,32.28,16.35,24.55-4.38-9.08-4.45-19.26-6.11-29.05-.48-2.8-2.33-5.15-2.5-8.06-.27-4.64,1.69-11.13,7.47-9.4,2.73.82,12.24,16.87,8.69,20.22-1.82.09-6.11-18.13-11.52-17.46-3.88,5.54.04,11.41,1.15,17.33.91,4.86,1.23,9.57,2.33,14.11,2.43,10.01,5.25,19.21,17.59,18.57,2.42-5.93,14.63-18.12,15.15-23.67.3-3.21-2.41-15.39-3.51-18.87-1.83-5.8-5.09-12.53-10.99-14.97,2.58,6.03,7.24,11.21,7.24,18.07-1.87,1.43-2.76-1.55-3.65-3.24ZM86.53,537.87c1.21-1.49,5.21-5.76,5.03-7.78l-7.25-6.94-2.63,19.71c2.12-.5,3.55-3.39,4.86-5ZM550.43,590.2v-12.16c0-11.58-13.65-28.81-23.07-35.44-22-15.49-63.29-18.58-82.13,3.22,27.58,1.22,57.27,12.8,80.8,27.03,8.61,5.21,16.24,11.86,24.4,17.34ZM93.54,533.05c-1.62,4.01-6.79,12.36-10.72,13.92-9.55,3.79-30.04-12.16-38.62-15.93-1.44,7.88-2.11,15.93-3.33,23.85-6.65,43.5-13.31,94-15.74,138.19-.13,2.36-.81,14.16-.07,15.17,35.79,12.56,76.24,15.98,114.15,14.75,35.47-1.15,72.72-7.11,106-19.24.97-1.01.29-17.68.18-20.57-1.47-38.4-3.96-79.82-9.21-117.11-.31-2.22-.12-13.42-1.72-13.91-5.93,1.49-11.1.71-16.05-2.72.33,2.44-.42,4.57-2.98,5.24l-40.44,2.95c-10.34,26.02-23.56,51.71-41.41,73.44-6.1,7.42-14.48,16.9-21.33,23.56-7.08,6.89-14.86,13.35-23.36,18.38-1.95-2.62,9.46-9.89,11.2-11.48,23.14-21.15,43.84-46.66,58.29-74.5,1.69-3.25,13.12-27.19,12.7-28.71l-57.89,2.64-14.27-5.16c-4.31-2.91,2.52-21.96-5.39-22.75ZM112.56,556.68v-9.53c0-.68-9.78-6.63-10.85-8.2-1.81.14-.12,12.45.28,14.17l10.57,3.56ZM439.26,546.25l-3.56-1.91c-3.67,3.44-17.43,22.29-17.41,25.88.02,3.29,7.76,5.59,10.5,6.82l10.47-30.8ZM4.08,546.82v93.34h23.01l10.42-86.28c-7.6-9.55-22.29-10.96-33.43-7.06ZM115.19,548.79v9.2l21.7-1.64c-7.76-.98-14.47-4.9-21.7-7.56ZM548.86,601.79c.71-1.84,1.46-4.65.79-6.54-.19-.53-7.07-6.76-8.12-7.65-18.96-16.03-63.38-36.43-88.05-38.17-1.77-.12-11.59-.25-12.26.43l-2.55,8.13c12.5-1.94,25.89,3.13,37.46,7.57,18.07,6.94,39.93,18.61,55.85,29.62,2.3,1.59,12.18,10.45,12.99,10.69.49.15.99.21,1.49.07-.35-1.69,2.26-3.74,2.42-4.16ZM486.02,621.76c.9-.57,3.14,1.16,4.29,1.26,10.38.9,22.95-4.11,20.51-16.57-3.61-18.45-24.1,4.39-34.03-1.47-3.09-1.65.15-10.37-.01-13.77-.32-6.93-5.71-14.5-2.91-22.7-5.83-3.17-30.69-10.62-35.59-7.29-5.8,7.69-6.9,27.09-14.14,32.53-2.97,2.23-9.78,3.06-10.16,7.54-.45,5.35,10.88,6.01,11.48,7.74-3.31,15.11-4.11,32.76,11.97,40.58,11.06,5.38,22.71,3,34.11.41,1.13,5.07-10.62,3.6-11.22,5.69l4.32,15.98c3.67-2.14,7.82-4.49,11.81-5.93,7.93-2.86,20.49-4.2,27.31-7.53s1.14-14.16,2.52-20.26c-2.16-2.12-4.9-2.49-7.43-4.4-2.1-1.58-4.65-5.84-5.89-6.6-1.74-1.06-5.55-.8-6.98-2.26-.81-.83-.19-2.79.05-2.94ZM404.84,564.19c-.78-.51-2.87-2.76-3.64-2.26-3.48,8.12-11.11,16.49-18.87,20.91-3.11,1.77-5.79,2.1-8.5,3.33-.78.35-1.18-.28-.91,1.38,11.53,2.97,24.54,6.1,36.5,6.57,10.99.44,16.39-3.13,18.04-14.41-2.97-.73-9.98-3.7-11.61-6.15-1.23-1.85-.55-4.48-.94-4.99-.33-.44-7.24-2.53-10.08-4.39ZM536.2,623.3c.53-.64,1.53-.84,2.3-1.97,1.76-2.57,5.51-10.47,4.36-13.36-1.25-3.17-23.7-17.44-28.03-19.99-4.03-2.37-36.28-19.55-38.04-18.16-1.74,6.47.65,12.89,2.02,19.21.12.54,1.1.31,1.3,1.45.88,4.86-3.58,7.21-1.4,11.92,10.54,3.09,19.93-11.21,29.95-4.31.99.68,5.41,5.89,5.7,6.82,1.67,5.18-1.51,11.67-5.03,15.54-3.24,3.56-8.06,5.48-12.83,5.91,11.46,14.57,29.08,9.85,39.69-3.06ZM590.54,570.48c-12.29,2.45-23.14,12.5-26.31,24.64.39,2,13.23-9.04,15.33-6.96l3.14,11.38,7.84,12.36v-41.41ZM329.3,595.67c-10.62-16.99-39.27-15.16-47.37,3.12-.81,1.82-1.41,8.74-2.73,9.15-2.64-.52-4.1-2.73-6.69-3.79-10.15-4.14-17.89.61-21.85,10.08l-6.6-2.99,1.6,25.67,115.42.61,7.6-42.71c-7.63-5.07-20.9-4.3-28.55.41-3.14,1.93-3.94,4.24-5.94,5.89-4.66,3.84-2.88-3.33-4.88-5.43ZM560.68,599.15c.94-3.38,1.13-6.9,1.94-10.3l-8.9-2.6c-.31,6.46-.62,15.5-4.33,20.98s-3.51,6.2-6.29,12.12c-4.13,8.79-14.33,17.12-24.07,18.66-2.21.35-9.39-.55-9.93,1.21,1.69,4.29-.76,11.79,1.36,15.59.35.62,9.04,6.31,10.97,8.09,10.69,9.86,17.8,26.91,20.46,41.01,4.2-3.24,6.02-.02,9.03,1.15,1.09.43,2.57.05,3.95.66,3.17,1.41,7.11,7.15,9.04,10.01,5.79-7.43,14.81-8.93,12.17-20.37-27.34-1.65-36.64-23.81-28.88-48.24-2.8-1.1-7.56-3.15-7.99-6.62-1.11-8.84,7.71-7.22,11.36-12.37,1.93-2.72,8.96-24.8,10.12-28.98ZM418.94,610.57c-4.16-3.21-10.5-6.01-6.86-12.46l-.81-1.23-36.75-5.87c-1.41,2.24-4.17,7.87-3.12,10.19,2.91,6.44,39.93,8.75,47.53,9.37ZM582.88,607.07c-2.58-4.67-4.76-10.27-5.5-15.55-7.24,3.78-10.52,6.13-14.74,13.19-4.74,7.93-5.31,18.13-9.55,25.29-3.33,5.62-10.45,3.91-10.59,9.2s8.14,3.89,8.63,5.31c.38,7.32-4.1,14.17-4.04,20.95.03,3.05,2.57,10.24,4.11,13.03,5.59,10.08,16.49,12.84,27.24,14.18,2.41,1.21-1.09,13,2.23,9.93.31-.29,1.26-6.59,1.89-8.28,1.82-4.91,7.33-14.8,7.99-19.64,1.02-7.38,1.25-49.21-.05-55.85-.61-3.09-6.21-9.21-7.62-11.76ZM420.91,613.87c-16.88-1.44-34.15-1.91-49.96-8.55-3.07,12.37-4.26,25.16-6.61,37.65-6.79,36.11-13.39,76.04-14.47,113.17-.1,3.54-.58,12.24.04,15.15.26,1.24.55,1.23,1.48,1.81,3.43,2.13,15.29,5.05,19.68,5.96,11,2.31,25.77,4.11,37,4.42,1.84.05,11.41.48,11.52-1.01-6.05-9.31-12.04-20.97-14.14-31.86-1.29-6.69-3.69-14.11,2.26-18.65-10.34-12.49-17.24-36.42-10.94-51.86,1.67-4.1,3.81-3.72,5.36-6.46.9-1.58.52-3.27,1.99-5.24.77-1.02,8.78-7.08,9.95-7.2.95-.09,7.92-.07,9.06.02,6.07.48,7.81,7.1,10.21,11.68,3.77,7.18,2.86,3.39,7.28,8.36,2.11,2.38,4.3,7.23,5.28,10.17l1.37-.41c3.1-7.35,9.2-11.64,13.74-17.67l-4.36-17.47c-3.78-1.3-7.82-.18-11.67-.67-19.8-2.52-29.44-23.31-24.07-41.33ZM359.77,640.81h-113.74l3.29,63.94c-3.73,4.86-27.66,8.54-29.61,10.64-1.43,1.54.44,20.14,1.99,21.05,12.74,2.26,54.15,17.43,39.05,36.41-13.7,17.22-60.26,9.34-78.63,3.16-6.99-2.36-18.43-6.03-14.93-15.7.22-.61,1.28-.73,1.64-1.77,2.26-6.43,3.21-24.79,2.93-31.99-.04-1.13-.29-2-1.34-2.59l-69.36,1.64c-.81.04-1.26.29-1.55,1.08-.67,1.8-1.21,17.27-.64,18.86,10.91,5.46,29.92,22.98,23.15,36.54s-49.51,7.92-61.53,5.11c-8.47-1.98-22.95-5.74-22.8-16.5.11-7.53,6.75-21.08,7.73-29.06.9-7.28-.43-15.98.77-23.51-3.54-1.73-23.21-5.14-24.26-8.08l4.49-65.95H4.08v193.25h431.29l6.58-40.09c-6.38,1.09-16.31-10.28-19.54-11.04-5.52-1.29-16.45.27-22.86-.15-7.69-.5-50.41-5.98-52.82-12.92l3.18-62.32,9.85-70.01ZM525.87,672.59c-2.1-2.93-13.03-14.29-16.48-14.05-11.02,6.34-24.42,6.25-35.88,11.52-28.79,13.23-34.75,51.55-41.38,78.38-.4,1.6-.61,8.95-2.36,9.37-2.81.66-1-8.42-.79-10,.8-5.96,2.88-12.23,4.35-17.47.34-1.23,2.44-8.14,2.03-8.67-5.28,1.34-11.03,3.53-15.8,6.22-3.28,1.85-12.94,8.11-13.06,11.76-.39,11.78,11.21,38.12,20.29,46.12,27.25,24.04,45.57-.78,53.4-26.23,3.74-12.14,4.09-31.07,8-41.3.67-1.74.51-2.69,3.08-1.44,1.11,3.39-1.17,5.43-1.28,6.02-4,21.66-5.44,39.02-16.14,58.68-1.5,2.75-3.55,5.1-4.94,7.87,17.13,1.58,34.41.72,51.24-2.66,1.06-7.02.4-14.82,6.57-19.29-1.09-4.07-3.3-7.39-4.13-11.67-1.35-6.91-2.41-26.11,1.64-31.69,1.72-2.37,7.42-6.96,9.13-9.28,1.12-1.52,1.05-3.86,2.03-5.2,1.43-1.95,3.63-.95,3.93-4,.23-2.32-5.63-17.7-6.97-20.71-1.65-3.7-4.16-9.05-6.47-12.27ZM421.18,676.05c-.85-2.29-3.55-10.55-5.18-11.65-1.78-1.21-4.12,1.1-4.26,3.07-.29,3.96,6.2,20.31,7.02,26.43.1.73.93,6.9-.8,6.07-2.55-1.22-6.36-28.96-9.88-30.23-4.7-1.69-2.41,12.29-2.12,14.61l5.08,20.87c-.69-.06-1.64.19-2.22-.08-2.16-.98-5.3-22.59-6.33-26.21-3.69.61-2.77,5.07-3.31,7.42-2.58,11.21-.36,25.46,5.83,36.4,6.31,11.15,6.35,5.42,14.33,1.62,5.35-2.55,11.11-4.33,16.68-6.33,3.99-12.34,10.93-23.74,1.96-35.81l-1.31.33c-.83,2.99,3.65,11.92,3.31,15.12-.11,1-.59,1.65-1.67,1.66-2.43.03-4.1-13.12-4.99-15.92-.15-.49-1-.57-1.17-1.07-1.43-4.39-3.63-17.36-9.01-17.85s-1.29,2.38-.98,3.14c3.47,8.53,5.02,17.75,7.22,26.66-.42,1.26-2.16,1.6-2.88.41-1.71-5.51-2.36-12.09-4.19-17.47-.28-.83-1.08-1-1.14-1.17ZM590.54,770.3v-86.76c-7.72,17.76-10.38,36.09-9.24,55.57.44,7.48,3.69,21,6.96,27.88.55,1.15.92,2.83,2.28,3.31ZM548.93,707.39c-.79-.79-5.56-2.8-5.73-.52-.1,1.33,3.78,14.61,4.5,17.18.35,1.25,3.78,4.48,1.44,7.19-.78.56-2.21-.11-2.65-.86-1.22-2.1-2.77-11.94-3.76-15.13-.68-2.22-1.61-7.39-4.44-3.42-2.86,4.01,3.54,25.07,2.28,26.28-.09.09-2.25.12-2.54-.09.56-2.03-1.95-5.35-2.02-5.65-.43-1.79-.66-17.71-4.58-12.28-2.16,6.72.87,13.84.96,20.66-3.63,5.13-5-12.06-4.31-13.81-1.36-.2-1.07-.08-1.48.82-4.13,9.15-2.31,20.64.48,30.08.38,1.3,2.57,8.46,3.3,8.51l8.56-3.92c2.52-7.46,5.16-15.81,8.65-22.83.48-.96,1.7-1.15,2.09-1.89.88-1.7,5.52-9.93,5.65-10.69.45-2.72-4.43-17.66-6.4-19.62ZM590.54,815v-38.45c0-.19-2.07-1.87-2.52-2.74-7.6-14.81-10.41-28.44-10.66-45.27l1.69-21.98c-13.45,9.76-24.6,25.3-31.43,40.26-6.05,13.25-8.57,28.38-13.95,41.89l-2.29.66,5.57-23.01c-12.09,3.36-13.52,12.25-14.16,23.31-.66,11.54-.15,30.8,13.03,35.68,27.69,10.25,43.34-21.49,46.74-43.6l3.71-7.48c.73.67,1.39,1.02,1.48,2.14.11,1.39-3,13.88-3.68,15.99-.28.88-1.19,1-1.35,1.45-2.21,6.4-4.59,12.58-7.27,18.79.65,2.08,12.93,2.7,15.09,2.37ZM559.89,716.15c-.68-1.2-5.02-8.65-6.83-6.97l4.26,13.15c.47,1.23,3.77-2.59,3.86-2.83,1.01-2.47-.86-2.59-1.3-3.35ZM207.57,735.46c3.1-.44,6.99.32,10.19,0l-1.97-19.07-41.38,6.62c-.32,6.43.27,12.95-.02,19.38-.17,3.91-3.94,20.33,1.61,20.7l10.17-18.12c4.17-4.06,15.64-8.7,21.39-9.51ZM94.81,744l.69-18.76-45.98-6.14c-.9.68-1,19.24-1.47,22.52-.53,3.76-7.05,23.92-5.17,25.39,2.23,1.74,2.71-3.64,3.35-4.86,8.86-16.91,30.84-22.26,48.58-18.15ZM228.93,741.39c-18.44-8.07-46.99.02-48.36,22.99.85,1.71,11.07,4.05,12.14,3.22.7-10.82,10.59-19.62,20.31-22.75,5.26-1.69,11.15-1.25,15.91-3.47ZM257.21,765.69c5.99-2.98-1.86-11.54-5.32-14.07-9.78-7.16-20.07-7.93-31.63-5.44-11.33,2.44-24.17,9.47-24.9,22.37.57,1.98,32.77,4.94,36.87,3.4,2.95-3.42,1.76-7.76-.97-10.87-.51-.58-8.7-5.65-4.61-5.92,5.82-.39,14.49,11.98,9.53,16.45,10.45.48,12.61-2.94,6.25-11.17-.62-.8-6.84-5.02-3.28-5.27l6.52,4.67,4.58,9.76,4.22-2.04c.61-1.15-.96-5.63-1.72-6.91-1.24-2.1-7.25-4.86-5.39-6.76,2.45-2.51,11.73,8.39,9.86,11.82ZM100.73,749.93c-12.94-7-30.53-5.12-42.56,3.12-7.46,5.12-18.82,19.1-2.82,21.19,2.93-15.93,22.11-22.88,36.48-23.7,3.06-.17,7.1,1.98,8.89-.61ZM82.32,778.84h9.86c1.12-5.72-2.11-9.01-3.94-13.8,5.93-.14,7.99,9.2,6.57,13.79l11.84-.65c.89-6.25-2.94-10.07-5.26-15.12,6.69.25,7.79,9.11,7.89,14.46,2.34-.25,8.24-1.18,9.07-3.75,1.98-5.97-6.6-17.33-11.66-18.97-4.39-1.42-16.44-.85-21.22-.1-10.29,1.6-26.33,8.88-26.76,20.79l20.33,2.68c.1-2.02.13-3.77-.51-5.74-1.13-3.54-6.77-4.7-3.68-7.35,5.9.53,8.13,8.55,7.47,13.75ZM259.18,768.99c-27.04,12.06-62.52,6.57-88.75-5.26-.21,1.84.8,3.06,1.94,4.3,4.87,5.3,36.38,11.61,44.38,12.16,12.64.86,34.74.28,42.43-11.19ZM119.13,778.19c-18.5,5.8-46.73,5.61-65.05-1.02-5.33-1.93-8.71-4.18-13.18-7.52-.71,8.13,9.5,11.58,15.76,13.49,11.6,3.53,51.21,7.59,60.18-.34,1.36-1.2,2.48-2.68,2.29-4.6ZM519.53,790.02c-17.9,3.15-36.09,3.17-54.22,1.99-2.83,1.39-5.14,3.97-8.23,4.91-5.31,1.62-11.89-1.17-13.16,5.25,3.22,1,5.97,2.93,9.21,3.95,13.3,4.2,43.69,4.37,57.34,1.45,2.84-.61,6.52-1.4,9.06-2.77v-14.79ZM438.66,837.34h110.12l1.98-7.23c-4.28-.16-8.74.17-12.98-.83-9.07-2.12-16.97-11.33-16.94-20.87-21.46,4.47-44.89,6.36-66.42,1.01-2.72-.68-9.75-4.94-11.02-2.5-.46.88-2.21,10-2.57,11.89-.43,2.24-2.83,17.87-2.17,18.53ZM590.54,818.28l-18.27-2.5c-2.85,3.3-5.6,6.99-9.39,9.36-6.08,3.79-10.5,2.12-10.47,12.21h38.13v-19.06Z"/>
    <rect x=".14" y="841.29" width="595" height=".66" fill="#fff"/>
    <path d="M590.54,3.89v73.62l-11.17,3.29c-.89-7.65-5.11-13.17-11.63-16.97-21.09-12.29-48.27-2.19-55.45,20.92-14.79-9.45-32.62-1.59-37.88,14.42-11.29-5.45-28.11-4.73-36.39,5.64-2.22,2.79-5.53,8.18-3.36,11.7.49.37,2.82,1.76,3.01,1.76h152.86v184.7c-35.57-15.55-59.54,11.14-82.61,33.41-5.5-2.8-11.02-7.49-17.07-9.02-26.35-6.65-44.84,9.3-53.22,32.78-23.94-15.25-51.42-11.7-71.61,7.73-27.81-18.25-48.4-47.03-84.19-49.11-17.77-1.04-38.82,5.51-51.27,18.38-6.01-6.45-13.95-10.68-21.27-15.5.28-2.38,1.9-4.28,2.5-6.54,3.45-12.96,3.73-15.32,1.39-28.39-2.1-11.73-4.91-26.74-2.64-38.58.62-3.2,3.67-3.93,5.13-6.05,5.97-8.68,7.15-18.92,10-28.12l-.07-4.51c-3.97-20.83-16.12-37.28-39.07-39.27-3.81-.33-8.96.65-12.48,0-2.49-.47-8.02-3.96-10.9-4.88-32.98-10.52-70.47,1.2-88.72,31.05-5.5,9-7.81,19.3-14.87,27.7-7.42,8.82-20.18,13.03-22.98,25.01-2.02,8.66-.49,15.36,6.76,20.73-14.78,14.26-6.48,34.29,12.38,38.41l7.51,10.55-8.22,4.45c-14.8-14.23-32.14-22.05-50.95-9.04V3.89h586.45ZM155.58,67.38c-3.95-8.96-9.55-15.9-18.82-19.65-22.41-9.08-53.77.3-55.76,27.15-11.59-4.68-25.49-5.74-35.5,2.95-5.75,4.99-8.48,11.46-10.2,18.74-5.72-3.2-15.81-2.45-21.3,1.03-7.56,4.8-9.67,19.77,1.56,20.69,70.22-1.1,140.68,2.46,210.74-.37,9.14-3.67,6.42-13.44-.33-18.05-7.96-5.43-18.64-4.86-27.26-1.33-1.9-19.25-25.49-23.81-39.45-13.8.25-6.24-1.31-12.01-3.67-17.36ZM446.36,171.7c-1.07-1.19-7.89-6.41-9.47-7.3-19.49-10.86-50.45-.55-53.45,22.87-12.96-6.64-31.2-.74-33.53,14.46-9.37-3.33-23.29-3.07-29.2,5.97-1.4,2.15-4.32,7.75-3.66,9.97.13.43,2.32,1.95,2.78,2.69l203,.11c15.03-5.01,9.49-21.48-2.64-26.29-8.45-3.35-15.75-1.36-23.66,2.3-3.16-20.79-30.19-21.95-44.05-10.52-.73-4.5-3.08-10.87-6.12-14.26Z" fill="#fff"/>
    <path d="M359.77,640.81l-9.85,70.01-3.18,62.32c2.41,6.94,45.13,12.42,52.82,12.92,6.41.42,17.34-1.14,22.86.15,3.23.75,13.16,12.13,19.54,11.04l-6.58,40.09H4.08v-193.25h22.35l-4.49,65.95c1.05,2.93,20.72,6.34,24.26,8.08-1.2,7.53.12,16.23-.77,23.51-.98,7.98-7.63,21.53-7.73,29.06-.15,10.76,14.33,14.52,22.8,16.5,12.02,2.81,55.07,7.82,61.53-5.11s-12.24-31.07-23.15-36.54c-.57-1.59-.03-17.06.64-18.86.29-.79.74-1.04,1.55-1.08l69.36-1.64c1.05.59,1.3,1.46,1.34,2.59.28,7.21-.67,25.57-2.93,31.99-.36,1.03-1.42,1.16-1.64,1.77-3.5,9.67,7.94,13.35,14.93,15.7,18.36,6.19,64.92,14.06,78.63-3.16,15.11-18.98-26.31-34.16-39.05-36.41-1.55-.91-3.43-19.51-1.99-21.05,1.95-2.1,25.89-5.78,29.61-10.64l-3.29-63.94h113.74ZM295.22,679.46c.31-.48.48-3.8,1.32-5.57s6.86-7.28,3.71-8.1-12.67,12.82-7.12,14.32c.39.11,1.91-.37,2.09-.65ZM288.1,680.25c.85-5.82-1.9-13.03-8.54-13.15-.55,2.97,3.16,3.67,4.14,5.44,1.25,2.26.82,5.27,1.87,7.6l2.53.1ZM318.35,729.55c-6.96-3.98-15.03,16.13-10.84,17.08,3.73-1.6,2.31-8.11,5.15-11.26l5.68-5.82ZM291.4,730.21c.8,3.01,4.09,3.2,6.2,5.96,1.09,1.43,2.14,4.08,2.72,5.83.47,1.41-.4,6.24,2.58,5.29,4.16-1.32-4.26-20.8-11.5-17.08ZM327.55,792.65c-1.83-1.95-16.8,15.9-7.95,15.04-.84-3.72,9.33-13.57,7.95-15.04ZM311.78,807.76c1.35.89,2.63-.66,2.67-2.28.1-4.45-6.89-12.45-11.88-12.18l-.36,1.99c4.05,2.23,5.89,3.49,8.13,7.65.62,1.14,1.22,4.68,1.43,4.82ZM166.3,800.65c-4.38.76-9.5,14.78-6.72,15.66.96.3,1.86-.08,2.15-1.13.74-2.97,1.17-6.33,2.89-8.94,1.5-2.29,6.15-3.93,3.41-5.64-.57-.2-1.16-.04-1.73.06ZM152.01,816.32c9.54-.51-5.37-17.98-9.85-12.17,4.92,2.86,10.14,5.51,9.85,12.17Z" fill="#fff"/>
    <path d="M93.54,533.05c7.91.79,1.08,19.85,5.39,22.75l14.27,5.16,57.89-2.64c.42,1.52-11.01,25.47-12.7,28.71-14.45,27.84-35.15,53.35-58.29,74.5-1.73,1.58-13.15,8.85-11.2,11.48,8.5-5.03,16.28-11.49,23.36-18.38,6.85-6.67,15.23-16.14,21.33-23.56,17.85-21.72,31.07-47.42,41.41-73.44l40.44-2.95c2.56-.67,3.31-2.8,2.98-5.24,4.95,3.43,10.12,4.21,16.05,2.72,1.6.49,1.4,11.69,1.72,13.91,5.25,37.29,7.73,78.71,9.21,117.11.11,2.89.79,19.56-.18,20.57-33.28,12.14-70.52,18.09-106,19.24-37.91,1.23-78.36-2.19-114.15-14.75-.74-1-.06-12.81.07-15.17,2.43-44.19,9.08-94.69,15.74-138.19,1.21-7.92,1.88-15.96,3.33-23.85,8.57,3.78,29.07,19.73,38.62,15.93,3.93-1.56,9.1-9.91,10.72-13.92ZM205.92,621.75c-1.54.06-3.83,3.28-4.58,4.44-15.97,24.87-23.66,40.5-51.52,55.48-7.85,4.22-17.91,6.34-24.76,10.11-.86.47-1.68-.18-1.32,1.6,7.6.44,14.86-2.6,21.61-5.66,18.42-8.36,36.69-24.67,48.22-41.18,4.77-6.83,10.88-16.76,12.34-24.79Z" fill="#fff"/>
    <path d="M317.31,382.22c3.74,8.11,5.45,15.7,6.28,24.94.75,8.34,2.15,35.03.67,42.05-.15.7-.23,1.32-1.03,1.56-4.86-.78-15.86-2.49-16.6,4.52-.17,1.62,1.25,2.69.92,3.47-.35.83-3.36,1.95-4.24,3.68-2.5,4.93,1.15,5.96,1.25,8.52.07,1.81-1.86,3.33-1.28,7.13.49,3.18,3.13,4.28,3.26,4.68.57,1.73-1.18,1.5-1.31,2.06-.98,4.26,3.55,10.21,7.42,12.15,2.18,1.09,11.7,2.99,12.19,4.24l-.2,40.38-97.02,7.19-1.34-137.73c-.96-54.98,64.93-85.47,91.03-28.84Z" fill="#fff"/>
    <path d="M98.49,326.22c20.28,27.55,66.15,33.86,93.95,14.22l1,2.25-4.95,22.04c-16.59-11.99-41.49-12.12-60.13-4.89-15.11,5.87-28.79,19.73-33.89,35.13-7.2,21.73-2.49,48.38-2.3,70.99-.52.63-13.06-7.06-13.13-9.55l5.24-75.89-2.31.64-6.19,75.89c.08,1.32.8,2.07,1.61,2.99,4.75,5.44,17.22,10.66,22.06,16.77-6.62,6.91-8.83,16.62-11.95,25.42-.19.53-1.05.6-1.34,1.45-4.41,13.09-6.87,26.74-8.11,40.48-19.98-6.24-39.4-19.94-52.92-35.83-11.54-13.56-16.09-26.42-18.41-44.03-.25-1.88.31-4.05-.01-5.8-.13-.71-1.59.11-1.33-1.42.11-.64,1.22.14,1.38-1.27.4-3.4-.34-7.63-.05-11.21,2.37-28.62,9.99-75.82,27.45-98.76,12.6-16.56,35.27-30.57,56.25-32.94,2.84,4.97,4.71,8.74,8.07,13.29Z" fill="#fff"/>
    <path d="M214.25,238.34c-.47.7-2.92,2.65-3.71,3.49-.22-4.68.28-9.45-.02-14.12-.15-2.37-2.03-11.32-1.73-12.55.27-1.11,3.95-1.72,3.05-4.22-16.16,4.84-32.45,1.95-45.38-8.86-1.79-1.5-3.09-5.79-5.58-3.63-.73.63-2.27,4.7-3.62,6.24-8.83,10.09-25.88,15.28-39.03,14.05-2.56-.24-13.03-3.67-14.3-2.16-.52,18.49-6.74,41.83,1.28,59.22,1.3,2.82,8.12,11.81,10.81,12.86,4.33,1.7,10.82-4.26,15.16-6.2,2.55-1.14,14.55-5.44,16.57-5.15,1.17.17,3.24,3.57,5.12,4.76,7.75,4.92,23.48,6.67,28.07-3.13,1.93-1.17,10.2,2.9,12.3,4.18,4.74,2.89,5.65,8.73,10.97.72,1.67-2.51,2.24-5.29,3.68-7.82,8.12,27.53,1.04,54.4-26.04,66.96-28.01,12.98-72.62,3.01-86.02-26.9-7.89-17.61-7.25-50.86-4.92-69.93.36-2.91,3.38-3.77-1.55-5.76-8.6-3.48-18.41-.39-22.5,8.02-1.24,2.55-4.08,11.18-3.66,13.53.1.58,3.15,7.71,3.74,8.75,3.84,6.73,11.15,9.41,18.66,8.62.19,4.18,0,9.44.6,13.52.17,1.18,1.27.92,1.35,1.41.82,5.19.56,10.69,2.65,15.97-5.29-1.89-19.95,6.31-23.17,5.8-5.63-.89-7.15-8.71-9.33-10.44-1.57-1.25-6.87-1.92-10.18-4.29-13.57-9.72-9.58-21.83.63-32.16-5.91-5.38-9.53-6.34-9.27-15.13.34-11.39,12.63-17.05,19.68-23.71,12.51-11.81,15.26-30.45,27.04-43.3,17.32-18.9,46.94-27.07,71.65-20.38,4.51,1.22,11.23,5.39,14.95,6.09,6.68,1.26,12.91-.38,20.69,1.66,27.3,7.16,36.46,41.86,21.34,64.01ZM174.36,294.42c-8.19,1.65-15.19,3.23-23.36.02-3.42-1.35-5.54-4.82-9.51-3.96.61,5.8,12.34,8.84,17.43,9.18,4.06.28,16.05.49,15.43-5.24Z" fill="#fff"/>
    <path d="M201.57,383.56c14.4,23.73,12.27,61.21,12.95,87.96s-.36,52.59.52,78.83l-67.63,5.67c2.83-5.89,5.1-2.76,10.2-3.27,6.69-.66,4.79-5.73,5.6-6.56.64-.66,8.15.69,9.06-6.44.25-1.94-.82-3.85-.58-4.95.11-.51,5.61-3.1,4.54-8.52-1.07-5.39-21.82-15.46-26.84-18.9-1.01-2.01,13.32-2.03,14.41-8.24.61-3.49.17-6.19-2.99-8.09-11.18-.55-23.55-5.61-34.19-6.57-4.5-.41-8.95.06-13.39.58l-1.34-73.97c3.85-51.05,61.87-73.34,89.69-27.5Z" fill="#fff"/>
    <path d="M525.87,672.59c2.31,3.23,4.82,8.57,6.47,12.27,1.34,3.01,7.2,18.39,6.97,20.71-.3,3.05-2.5,2.05-3.93,4-.98,1.34-.91,3.68-2.03,5.2-1.71,2.32-7.41,6.9-9.13,9.28-4.05,5.58-2.99,24.78-1.64,31.69.84,4.28,3.04,7.6,4.13,11.67-6.16,4.47-5.51,12.27-6.57,19.29-16.84,3.38-34.11,4.24-51.24,2.66,1.39-2.77,3.44-5.12,4.94-7.87,10.7-19.66,12.14-37.02,16.14-58.68.11-.59,2.4-2.63,1.28-6.02-2.57-1.25-2.41-.3-3.08,1.44-3.91,10.23-4.27,29.16-8,41.3-7.83,25.45-26.14,50.27-53.4,26.23-9.08-8.01-20.67-34.35-20.29-46.12.12-3.65,9.79-9.92,13.06-11.76,4.77-2.68,10.52-4.87,15.8-6.22.4.53-1.69,7.44-2.03,8.67-1.47,5.24-3.54,11.52-4.35,17.47-.21,1.58-2.02,10.66.79,10,1.75-.41,1.96-7.76,2.36-9.37,6.62-26.83,12.59-65.15,41.38-78.38,11.47-5.27,24.86-5.18,35.88-11.52,3.44-.25,14.38,11.12,16.48,14.05Z" fill="#fff"/>
    <path d="M420.91,613.87c-5.37,18.02,4.27,38.81,24.07,41.33,3.84.49,7.89-.63,11.67.67l4.36,17.47c-4.54,6.03-10.63,10.32-13.74,17.67l-1.37.41c-.98-2.94-3.17-7.8-5.28-10.17-4.42-4.97-3.51-1.18-7.28-8.36-2.41-4.58-4.15-11.2-10.21-11.68-1.13-.09-8.11-.12-9.06-.02-1.18.12-9.18,6.17-9.95,7.2-1.47,1.96-1.1,3.65-1.99,5.24-1.55,2.74-3.69,2.36-5.36,6.46-6.3,15.44.6,39.37,10.94,51.86-5.95,4.55-3.55,11.96-2.26,18.65,2.1,10.89,8.1,22.54,14.14,31.86-.11,1.49-9.67,1.06-11.52,1.01-11.23-.31-26-2.11-37-4.42-4.38-.92-16.24-3.84-19.68-5.96-.93-.58-1.22-.57-1.48-1.81-.62-2.91-.14-11.61-.04-15.15,1.08-37.13,7.68-77.06,14.47-113.17,2.35-12.49,3.54-25.28,6.61-37.65,15.81,6.64,33.08,7.11,49.96,8.55Z" fill="#fff"/>
    <path d="M384.01,416.1c.54.91-4.81,12.4-5.51,15.03-4.1,15.54-4.62,26.26-.8,41.56.54,2.14,2.43,4.22,2.49,6.65-9.99,6.91-17.05,18.09-22.76,28.67-6.37,11.8-16.98,37.42-18.03,50.33-1.48,18.22,12.6,29.82,30.27,28.86l.61,4.97c-12.38-7.1-26.55-4.31-37.46,3.94-11.28-24-49.28-18.45-56.22,6.56-9.06-5.72-22.17-3.33-27.09,6.63l-5.46-1.69-4.51-55.44,87.69-7.97.4-42.98c2.64-1.42,4.42-1.59,7.08-3.43,12.91-8.96,15.18-30.55,10.43-44.49-2.19-6.44-7.69-10.79-11.21-16.45,6.84-20.22,30.38-31.37,50.06-20.75Z" fill="#fff"/>
    <path d="M590.54,379.86c-14.6-27.01-55.16-34.64-80.66-19.19-14.74,8.93-16.52,25.69-17.96,41.54l-2.6-.02c-.75-23.97-20.86-34.43-41.85-38.03-1.64-.28-6.37.58-6.78-1.12,8.9-29.99,35.99-45.13,63.71-24.9,1.35.99,1.59,3.46,3.57,2.89l25.91-24.93c15.17-13.28,38.41-20.02,56.67-8.88v72.63Z" fill="#fff"/>
    <path d="M574.76,533.01c-9.52-.58-18.49-4.36-26.78-8.71-1.74-13.21-4.66-28.42-16.01-36.91-4.19-3.13-11.3-5.44-15.51-.84-1.75,1.91-8.93,14.05-10.41,16.87-4.27,8.18-6.66,16.23-6.24,25.64l-7.16-1.74,4.47-24.82c-.47-.95-1.21-1.25-2.23-1.04-1.31.26-4.9,22.81-6.21,26.01l-23.07,1.92c10.49-23.56,20.98-53.44,48.85-60.7,1.5.43,4.8,6.6,6.36,8.16,12.69,12.78,36.63,5.45,42.12-10.87,9.7,2.11,19.47,5.63,27.26,11.84l.24,88.3c-11.28,3.79-19.42,9.99-26.61,19.31l-9.76-2.48c-1.77-15.1-8.13-29.28-19.91-39.08l13.96-16.09c12.29,6.42,27.24,10.01,41.13,9.54,4.41-2.67-10.64-2.99-11.1-3.73l-.76-32.11-2.53.1c-1.04,1.11-.1,2.23-.1,2.86v28.59Z" fill="#fff"/>
    <path d="M486.02,621.76c-.25.15-.87,2.12-.05,2.94,1.43,1.46,5.24,1.19,6.98,2.26,1.25.76,3.8,5.01,5.89,6.6,2.53,1.91,5.27,2.28,7.43,4.4-1.38,6.11,4.06,17.05-2.52,20.26s-19.39,4.67-27.31,7.53c-3.99,1.44-8.14,3.79-11.81,5.93l-4.32-15.98c.6-2.09,12.36-.62,11.22-5.69-11.4,2.59-23.05,4.97-34.11-.41-16.07-7.81-15.28-25.47-11.97-40.58-.6-1.73-11.93-2.38-11.48-7.74.38-4.48,7.19-5.31,10.16-7.54,7.24-5.44,8.34-24.84,14.14-32.53,4.9-3.33,29.76,4.12,35.59,7.29-2.8,8.19,2.59,15.77,2.91,22.7.16,3.4-3.08,12.12.01,13.77,9.93,5.86,30.41-16.98,34.03,1.47,2.44,12.46-10.13,17.47-20.51,16.57-1.15-.1-3.4-1.83-4.29-1.26ZM440.04,569.1c4.4.69,7.86,1.17,12.12,2.67,2.69.95,13.32,8.49,11.21,1.3-.83-2.83-8.67-7.03-11.51-7.57-3.37-.64-13.18-1.81-11.81,3.59ZM446.41,578.48c-5.69.61-5.81,12.46-2.13,13.07,5.87.97,8.98-13.81,2.13-13.07ZM452.47,622.41c-5.05.31-8.76,1.58-14.16,1.34-3.03-.14-5.83-1.22-8.84-1.34-3.79,3.83,10.66,5.01,12.05,4.99,1.95-.02,12.96-1.51,10.95-4.99Z" fill="#fff"/>
    <path d="M392.52,393.14l-5.14,20.25c-3.62.15-6.37-2.77-9.82-3.65-16.25-4.16-34.38,3.23-42.21,18.02l-8.82-5.11c.55-22.32-2-45.11-19.35-60.86s-42.18-15.93-63.34-8.28l-10.91-13.96c20.3-19.7,52.58-23.27,77.31-9.74,28.73,19.29,54.32,42.93,82.28,63.34Z" fill="#fff"/>
    <path d="M166.73,206.74c11.37,7.99,25.15,11.03,38.89,9.42,1.73,12.41,2.29,25.3,1.65,37.86-.48,9.43-.91,23.42-8.24,29.86-4.72-5.05-10.67-7.06-17.12-9.14-.75-4.33-1.05-8.65-2.17-12.93-.22-.84-1.2-.87-1.35-1.43-1.01-3.67-2.17-12.59-4.14-15.45-1.35-1.97-3.09-1.48-2.91.87.58,7.34,10.96,28.08,4.31,34.46-4.15,3.99-17.08,1.56-21.34-1.61-1.81-1.34-2.95-4.56-3.61-4.95-4.58-2.71-28.03,9.54-33.51,11.88-20.25-15.79-10.69-43.49-11.2-65.44,20.76,4.67,43.73.85,56.87-17.08.51,0,3.23,3.23,3.87,3.68ZM156.41,237.04c.64-.81.87-1.74.89-2.76-.37-2.61-11.57-4.05-14.18-4.26-3.35-.26-21.53-1.25-20.68,4.28.65,4.21,12.95,2.67,16.11,2.91,3.92.29,15.37,2.98,17.85-.17ZM187.37,230.19c-1.43.16-9.84,2.15-10.4,2.75-1.02,1.4-1.23,5.52.44,6.17,3.25-.3,25.23-2.25,25.79-3.61,2.87-7.06-12.23-5.72-15.83-5.31ZM191.98,247.24c-7.51-3.79-11.26,12.68-3.44,14.97,7.45,1.34,6.24-13.55,3.44-14.97Z" fill="#fff"/>
    <path d="M380.15,550.43c1.18,8.89,7.96,15.1,17.09,13.14-7.93,13.15-21.87,23.87-37.98,19.58-33.94-9.03-5.57-61.24,5.12-78.9,4.76-7.85,9.36-18.22,18.4-21.56,21.74,25.36,67.27,17.78,80.6-12.81,8.42,2.72,16.19,7.49,22.53,13.6-10.02,14.78-17.73,30.94-24.25,47.57l-1.31-.97.66-23.35-1.91.05-2.18,26.1c-4.75.82-11.85,9.17-15,10.35-1.09.41-5.35-1.21-5.9-2.16-1.47-2.54-1.71-12.58-2.68-16.09-.14-.5-3.45-8.3-3.96-9.31-10.17-20.14-36.17-18.65-44.88,1.66-1.52,3.54-2.57,16.65-7.31,15.7l5.54-30.63-1.92-1.58c-3.45,11.24-6.39,22.13-7.9,33.68-2.57,2.35-14.63,6.16-15.13,9.36-.25,1.58,1.22,1.1,2.15.83,6.39-1.88,12.94-8.6,20.22-9.04.44,4.65-.6,10.28,0,14.79Z" fill="#fff"/>
    <path d="M329.3,595.67c2,2.1.23,9.26,4.88,5.43,2.01-1.65,2.81-3.96,5.94-5.89,7.65-4.71,20.93-5.48,28.55-.41l-7.6,42.71-115.42-.61-1.6-25.67,6.6,2.99c3.96-9.47,11.69-14.22,21.85-10.08,2.59,1.06,4.05,3.27,6.69,3.79,1.32-.41,1.93-7.33,2.73-9.15,8.1-18.28,36.75-20.11,47.37-3.12Z" fill="#fff"/>
    <path d="M438.99,115.63c-.4-.08-1.03-.63-1.54-.76,2.32-15.12,18.81-18.39,31.82-14.39,2.32.71,5.89,4.21,7.75,2.72,2.35-12.46,13.03-21.32,26.25-18.96,5.02.9,6.66,5.38,11.25,6.37,2.26-2.27,1.43-5.59,2.56-8.66,7.96-21.59,42.4-27.65,56.27-8.62,2.12,2.91,3.61,12.89,4.46,13.3,2.43,1.17,2.37-1.53,3.47-2.27,2.61-1.75,6.12-3.22,9.26-3.57v34.84h-151.54Z" fill="#fff"/>
    <path d="M590.54,815c-2.16.32-14.44-.29-15.09-2.37,2.67-6.21,5.05-12.39,7.27-18.79.15-.45,1.07-.57,1.35-1.45.68-2.11,3.79-14.61,3.68-15.99-.09-1.11-.75-1.47-1.48-2.14l-3.71,7.48c-3.4,22.11-19.05,53.85-46.74,43.6-13.18-4.88-13.69-24.14-13.03-35.68.64-11.07,2.06-19.96,14.16-23.31l-5.57,23.01,2.29-.66c5.39-13.51,7.9-28.65,13.95-41.89,6.83-14.96,17.98-30.49,31.43-40.26l-1.69,21.98c.26,16.84,3.07,30.46,10.66,45.27.44.87,2.52,2.55,2.52,2.74v38.45Z" fill="#fff"/>
    <path d="M560.69,448.63c-14.65,21.67-57.48,23.78-67.38-2.79-4.82-12.93-3.07-23.81-.56-37.2,1.23-6.56,3.05-13.11,4.76-19.56,3.22-4.21,36.17.28,42.55,1.47,8.09,1.51,16.02,3.96,23.87,6.37-1.74,17.72,7.37,36-3.25,51.71ZM519.37,393.17c-3.09-1.55-20.23-1.92-18.81,3.98.93,3.86,15.32-1.01,18.54.36,1.82-.69,1.06-3.14.27-4.34ZM556.9,405.39c.83-9.03-13.1-10.25-19.62-9.75-3.36,3.31,10.82,6.91,12.48,7.57,2.6,1.03,4.12,4.15,7.14,2.18ZM525.88,409.24c1.17-1.99,1.64-4.6-1.31-4.31-3.56,5.02-13.87,20.15-11.81,26.05,1.77,5.1,12.31,5.54,16.57,3.7,1.95-.84,4.27-2.65,1.05-3.58-23.2,6.33-12.32-10.04-6.14-20.6.4-.68,1.45-.96,1.64-1.27ZM508.17,406.27c-2.95.89-3.95,8.53-1.19,10.79,6.34,5.2,8.65-13.05,1.19-10.79ZM542.97,408.84c-3.88.54-4.67,12.96.53,12.47,4.8-.46,3.6-13.04-.53-12.47ZM512.3,448.23c.72,4.25,5.35.74,7.56.61s11.04,3.21,11.5,1.02c.72-3.43-16.5-4.24-19.06-1.63Z" fill="#fff"/>
    <path d="M460.36,408.46l1.63-1c6.76,3.35,14.73,6.87,20.65,11.59,3.96,3.16,5.69,3.73,4.57,9.68l-1.24.81c-16.01-7.06-14.65,8.97-17.62,18.43-9.68,30.9-27.48,54.23-64.17,44.91-30.36-7.72-29.39-44.94-19.44-68.32-.09,3.59-.52,24.42,3.07,24.96l1.6-.42c1.66-3.61,10.17-8.83,14-7.5.44,8.26,8,8.01,14.53,7.26s8.32-5.06,15.79.01c5.79,3.93,2.77,10.2,12.61,5.37,2.53-1.24,9.12-7.51,10.75-9.82s3.33-7.82,4.55-9.08c.85-.89,2.49-.86,2.6-1,.93-1.21-3.87-8.62-3.87-11.44v-14.46ZM404.31,457.59c-1.1.23-2.41.53-3.09,1.51-1.2,3.74,6.98.81,9.48.95,4.99.28,9.19,3.7,12.83,4.3,3.01.5,2.23-2.36.26-3.56-4.53-2.75-14.32-4.27-19.48-3.21Z" fill="#fff"/>
    <path d="M168.24,541.37c-1.23,1.58-4.04,1.7-5.89,1.36-7.02-1.3-19.59-10.92-26.62-12.83-1.14-.31-2.3-.2-3.45-.16l.1,2.54,24.7,11.12c2.38,1.14,4.39,4.05,1.35,5.57-3.68,1.83-13.84-2.12-17.78-3.6-6.46-2.43-11.93-6.44-18.22-8.4-3.39,3.21,16.87,11.15,18.22,11.68,1.91.75,4.06,1.19,6.1,1.47.35,3.82-4.37,3.4-6.92,3.3-20.33-.82-41.35-20.19-54.25-34.54,1.36-4.6,9.83-33.12,11.98-34.38,3.05-1.79,8.81,4.1,12.12,4.47,4.3.48,11.39-2.64,16.35-1.29l33.85,6.91c4.82,8.02-11.21,8.11-15.94,9.66-1.06.32-1.42,1.06-1.09,2.1.49,1.55,24.12,14.39,27.51,17.2,3.67,3.04,3.91,5.42.02,8.5-3.22,1.26-19.77-9.45-24.27-10.55-.93-.23-3.88-.74-3.95.68-.12,2.24,25.33,10.79,26.86,15.24.4,1.17,0,2.97-.78,3.96Z" fill="#fff"/>
    <path d="M582.88,607.07c1.41,2.55,7.01,8.67,7.62,11.76,1.3,6.64,1.07,48.47.05,55.85-.67,4.84-6.17,14.73-7.99,19.64-.63,1.7-1.57,7.99-1.89,8.28-3.32,3.07.19-8.72-2.23-9.93-10.74-1.34-21.65-4.1-27.24-14.18-1.55-2.79-4.08-9.98-4.11-13.03-.06-6.78,4.42-13.64,4.04-20.95-.5-1.43-8.77,0-8.63-5.31s7.25-3.58,10.59-9.2c4.24-7.15,4.81-17.36,9.55-25.29,4.22-7.06,7.5-9.4,14.74-13.19.74,5.28,2.93,10.88,5.5,15.55ZM582.91,612.29c-3.24-4.22-8.55-10.14-14.45-7.68-2.35,3.22,5.76,5.6,7.92,7.3,2.77,2.18,5.29,8.37,8.47,7.13,3.49-1.35-1.04-5.58-1.94-6.74ZM571.86,625.44c.87-1.97,2.77-7.1-.18-8.18-5.27-1.93-9.35,8.91-7.81,13.08,3.3,2.5,6.81-2.23,7.99-4.9ZM573.44,662.49c.16-.24.09-1.62-.29-1.99-1.08-1.27-6.79.69-9.23.72-3.78.05-6.56-1.27-10.2-1.34-1.24,6.44,19.03,3.65,19.72,2.62Z" fill="#fff"/>
    <path d="M4.08,546.82c11.13-3.9,25.82-2.49,33.43,7.06l-10.42,86.28H4.08v-93.34Z" fill="#fff"/>
    <path d="M457.66,405.56c-.33,5.38-1.16,11.31-.58,16.69.34,3.13,2.73,7.32,2.5,9.69-.58,6.01-11.92,21-18.94,21.55-1.53-5.38-8.89-10.12-14.34-10.39-4.51-.22-13.33,7.1-18.86,1.18-4.47-5.86,9.41-19.8,10.99-25.15.41-1.37,1.06-2.02-.49-3.1-1.75-.31-6.24,8.61-7.32,10.34-.54.86-1.62,1.15-2.09,1.9-1.12,1.81-3.59,8.74-4.22,9.28-1.58,1.33-12.71,2.41-14.95,6.74-2.68-9.59-.95-40.2,7.94-45.62,11.74-7.16,47.4,2.14,60.36,6.91ZM414.93,406.09c.59-8.18-18.42-3.98-17.7,1.7.41,3.23,7.34-.31,9.72-.81,2.61-.55,5.45.36,7.98-.89ZM430.31,408.6c1.01,1.26,15.52,7.56,16.91,7.15,8.07-5.35-16.06-13.49-17.7-10.83-.24,1.2.02,2.73.79,3.69ZM432.26,431.61c.88.74,2.92,1.12,3.98.75,3.43-2.21,3.39-11.11-.84-12.12-6.11-1.47-5.55,9.34-3.14,11.37Z" fill="#fff"/>
    <path d="M438.66,837.34c-.66-.66,1.75-16.3,2.17-18.53.36-1.89,2.11-11,2.57-11.89,1.27-2.44,8.3,1.83,11.02,2.5,21.53,5.35,44.96,3.46,66.42-1.01-.03,9.53,7.87,18.74,16.94,20.87,4.24.99,8.7.67,12.98.83l-1.98,7.23h-110.12Z" fill="#fff"/>
    <path d="M550.43,590.2c-8.16-5.48-15.8-12.13-24.4-17.34-23.53-14.24-53.22-25.81-80.8-27.03,18.84-21.81,60.13-18.71,82.13-3.22,9.42,6.63,23.07,23.86,23.07,35.44v12.16Z" fill="#fff"/>
    <path d="M560.68,599.15c-1.16,4.18-8.19,26.26-10.12,28.98-3.65,5.16-12.47,3.54-11.36,12.37.44,3.47,5.19,5.53,7.99,6.62-7.77,24.44,1.53,46.6,28.88,48.24,2.65,11.43-6.38,12.94-12.17,20.37-1.93-2.86-5.87-8.61-9.04-10.01-1.37-.61-2.85-.23-3.95-.66-3.01-1.17-4.84-4.39-9.03-1.15-2.67-14.1-9.77-31.14-20.46-41.01-1.93-1.78-10.62-7.47-10.97-8.09-2.12-3.8.33-11.3-1.36-15.59.54-1.76,7.73-.86,9.93-1.21,9.75-1.53,19.94-9.86,24.07-18.66,2.78-5.91,2.6-6.68,6.29-12.12s4.02-14.52,4.33-20.98l8.9,2.6c-.81,3.4-1,6.91-1.94,10.3Z" fill="#fff"/>
    <path d="M4.08,319.06c15.22-15.18,34.65-8.56,47.32,5.92-4.79,4.47-10.65,8.34-15.09,13.17-20.58,22.44-24.32,55.76-30.88,83.62-.49,2.09-.03,5.6-1.36,7.39v-110.1Z" fill="#fff"/>
    <path d="M421.21,522.21c.89,1.7,1.78,4.67,3.65,3.24,0-6.85-4.65-12.04-7.24-18.07,5.9,2.44,9.16,9.17,10.99,14.97,1.1,3.48,3.81,15.66,3.51,18.87-.53,5.55-12.73,17.74-15.15,23.67-12.34.63-15.16-8.56-17.59-18.57-1.1-4.53-1.42-9.25-2.33-14.11-1.11-5.92-5.02-11.79-1.15-17.33,5.41-.68,9.7,17.54,11.52,17.46,3.55-3.35-5.96-19.4-8.69-20.22-5.78-1.73-7.74,4.76-7.47,9.4.17,2.91,2.02,5.26,2.5,8.06,1.66,9.8,1.73,19.97,6.11,29.05-17.58,7.73-17.79-12.74-16.35-24.55.77-6.34,6.95-26.89,14.75-27.35,4.04-.24,10.26,7.8,12.09,11.01,1.09,1.91,3.92,10.99,5.6,10.67,1.24-.23.84-1.81.72-2.64-1.05-7.18-7.46-16.65-13.53-20.69,11.78-4.48,14.11,9.64,18.05,17.13Z" fill="#fff"/>
    <path d="M536.2,623.3c-10.61,12.9-28.22,17.63-39.69,3.06,4.77-.43,9.6-2.35,12.83-5.91,3.52-3.87,6.69-10.36,5.03-15.54-.3-.92-4.71-6.13-5.7-6.82-10.02-6.9-19.4,7.4-29.95,4.31-2.18-4.7,2.28-7.05,1.4-11.92-.21-1.14-1.19-.92-1.3-1.45-1.38-6.32-3.76-12.74-2.02-19.21,1.76-1.39,34.01,15.79,38.04,18.16,4.32,2.54,26.77,16.82,28.03,19.99,1.15,2.9-2.61,10.8-4.36,13.36-.77,1.13-1.77,1.33-2.3,1.97Z" fill="#fff"/>
    <path d="M421.18,676.05c.06.17.86.34,1.14,1.17,1.83,5.39,2.48,11.96,4.19,17.47.72,1.19,2.46.86,2.88-.41-2.2-8.92-3.75-18.13-7.22-26.66-.31-.76-4.43-3.64.98-3.14s7.57,13.46,9.01,17.85c.16.5,1.01.59,1.17,1.07.89,2.8,2.56,15.95,4.99,15.92,1.08-.01,1.56-.67,1.67-1.66.34-3.2-4.14-12.13-3.31-15.12l1.31-.33c8.96,12.08,2.03,23.48-1.96,35.81-5.57,2-11.34,3.78-16.68,6.33-7.98,3.81-8.02,9.53-14.33-1.62-6.19-10.94-8.42-25.19-5.83-36.4.54-2.35-.38-6.8,3.31-7.42,1.03,3.62,4.17,25.23,6.33,26.21.57.26,1.53.02,2.22.08l-5.08-20.87c-.29-2.32-2.58-16.31,2.12-14.61,3.52,1.27,7.33,29,9.88,30.23,1.73.83.9-5.34.8-6.07-.82-6.12-7.31-22.47-7.02-26.43.14-1.97,2.48-4.28,4.26-3.07,1.62,1.1,4.33,9.36,5.18,11.65Z" fill="#fff"/>
    <path d="M138.2,361.45c-.56.63-5.32,2.56-6.59,3.6-31.49,25.69-23.15,70.76-20.96,105.81.21,3.45.41,10.64-.05,13.86-.14.97.38,1.07-.99.99l-8.59-4.6c4.33-7.12-1.93-7.74-5.52-12.19.08-27.21-7.15-59.03,7.2-83.48,7.74-13.19,20.55-21.33,35.2-25.28.55-.09.37,1.22.31,1.29Z" fill="#fff"/>
    <path d="M252.6,354.24c-11.01,7.17-18.95,18.33-23.68,30.54-16.74,43.22-.26,114.94-5.24,162.38.55,2.31-5.2-1.15-5.28-1.45l-1.92-124.13c.21-6.08-1.82-11.4-3.24-16.62-1.95-7.21.88-13.87,4.05-20.64,7.04-15.05,19.14-25.74,35.32-30.08Z" fill="#fff"/>
    <path d="M548.86,601.79c-.16.41-2.77,2.47-2.42,4.16-.5.14-.99.07-1.49-.07-.81-.24-10.69-9.1-12.99-10.69-15.92-11.01-37.78-22.68-55.85-29.62-11.57-4.44-24.95-9.51-37.46-7.57l2.55-8.13c.67-.68,10.49-.56,12.26-.43,24.67,1.74,69.1,22.14,88.05,38.17,1.06.89,7.94,7.12,8.12,7.65.67,1.89-.08,4.7-.79,6.54Z" fill="#fff"/>
    <path d="M4.08,475.17c3.04,6.3,4.69,13.18,7.78,19.5,6.74,13.76,19.08,24.41,30.21,34.59-1.74,6.44-4.14,12.48-3.8,19.52-10.46-6.42-22.19-10.44-34.18-5.25v-68.36Z" fill="#fff"/>
    <path d="M340.3,451.25c4.42,8.09,5.07,16.1,3.52,25.39-.89,5.32-6.22,16.57-11.06,19.18-6.15,3.32-26.02-.84-23.61-10.79,3.92.79,19.5,7.57,22.37,5.6.68-.47.86-1.22.62-1.96-.65-1.94-24.17-3.55-25.51-11.36-.2-1.15.23-3.27,1.21-3.83,1.05-.6,19.33,6.34,23.44,6.26,2.7-.06,2.66-1.76,1.03-3.24-8.62-2.64-22.91-2.74-27.09-11.83,7.06-7.4,18.57,2.81,27.34,3.23,1.28.18,2.09-1.77,1.57-2.58-.79-1.23-22.55-4.89-24-7.9-4.8-9.99,23.56-.95,24.66-1.98.9-4.67-6.95-2.87-7.8-5.01-.04-5.12-1.26-9.43,2.56-13.37.99-.27,1.05.16,1.59.68,2.47,2.39,7.39,10.26,9.17,13.51Z" fill="#fff"/>
    <path d="M583.73,374.84c1.74,2.21,6.76,12.14,6.8,14.58.05,2.62-4.92-2.05-5.98-2.58-25.09-12.42-52.97-15.89-80.79-15.84,8.54-12.26,27.05-15.62,41.11-14.82,13.79.79,30.22,7.64,38.86,18.66Z" fill="#fff"/>
    <path d="M94.81,744c-17.74-4.11-39.71,1.24-48.58,18.15-.64,1.22-1.12,6.6-3.35,4.86-1.88-1.47,4.63-21.63,5.17-25.39.46-3.27.57-21.84,1.47-22.52l45.98,6.14-.69,18.76Z" fill="#fff"/>
    <path d="M257.21,765.69c1.87-3.44-7.41-14.34-9.86-11.82-1.86,1.9,4.15,4.66,5.39,6.76.76,1.28,2.33,5.77,1.72,6.91l-4.22,2.04-4.58-9.76-6.52-4.67c-3.56.25,2.67,4.47,3.28,5.27,6.37,8.23,4.2,11.65-6.25,11.17,4.96-4.47-3.71-16.83-9.53-16.45-4.09.27,4.11,5.34,4.61,5.92,2.73,3.11,3.92,7.45.97,10.87-4.1,1.54-36.31-1.42-36.87-3.4.73-12.9,13.57-19.93,24.9-22.37,11.57-2.49,21.85-1.72,31.63,5.44,3.46,2.53,11.31,11.09,5.32,14.07Z" fill="#fff"/>
    <path d="M479.01,383.57c.45.55,1.48.77,2.03,1.56,2.77,3.97,4.92,10.22,4.63,15.11-24.86-14.89-53.16-19.02-81.84-18.08,17.53-21.59,57.95-19.58,75.18,1.4Z" fill="#fff"/>
    <path d="M436.03,364.08c-18.96.65-33.35,10.25-41.75,26.94l-25.26-20.79c16.7-18.48,47.33-22.25,67.01-6.16Z" fill="#fff"/>
    <path d="M590.54,409.44v57.19c-6.52-5.41-11.19-9.82-15.04-17.5-7.92-15.79-8.61-33.17-7.96-50.86l23,11.17Z" fill="#fff"/>
    <path d="M214.22,375.03c-.03.16-.9.28-1,.75-.95,4.44-1.36,11.88-2.67,15.61-.31.88.4,1.18-1.34.96-1.84-10.72-10.69-17.87-17.11-26l5.04-29.72,11.07-11.82c2.2,2.2,8.9,3.82,9.52,6.75,1.02,4.76.45,16.47,0,21.66-.58,6.62-2.18,15.22-3.52,21.8Z" fill="#fff"/>
    <path d="M519.53,790.02v14.79c-2.54,1.37-6.22,2.16-9.06,2.77-13.65,2.92-44.04,2.75-57.34-1.45-3.24-1.02-5.98-2.95-9.21-3.95,1.27-6.42,7.85-3.63,13.16-5.25,3.09-.94,5.4-3.52,8.23-4.91,18.14,1.18,36.32,1.15,54.22-1.99Z" fill="#fff"/>
    <path d="M590.54,405.5c-24.66-13.94-53.57-20.71-81.96-20.77-2.94,0-7.15,1.04-9.81,1.02-.99-.01-1.04.32-.95-.95.41-13.14,9.19-11.19,19.44-10.86,14.41.46,32.44,3.39,46.18,7.73,3.62,1.14,27.11,10.48,27.11,13v10.85Z" fill="#fff"/>
    <path d="M525.87,491.83c2.36,2.86,4.08,7.1,5.6,10.5.45,1,4.46,15.81,6.39,9.87,1.16-3.59-8.11-20.05-10.44-23.88,12.38,7.29,16.04,22.41,17.65,35.86l-13.45,17.32c-3.16-2.84-16.43-7.68-17.21-10.93-.4-1.67.14-3.44-.16-4.98-1.08-5.49-2.93-14.94-1.98-21.2.14-.95.05-1.69,1.04-2.27,5.46-1.34,4.54,16.66,9.51,17.09,1.39-1.73-3.29-22.8-9.86-20.38.34-1.11,3.16-4.95,3.7-5.19,1.69-.76,2.54,2.1,3.22,3.21,3.54,5.78,4.75,15.16,10.18,19.06,2.75-1.82-8.55-24.18-11.82-26.62,2.72-3.53,5.71.19,7.64,2.53Z" fill="#fff"/>
    <path d="M82.32,778.84c.66-5.19-1.58-13.22-7.47-13.75-3.09,2.65,2.55,3.81,3.68,7.35.63,1.97.61,3.72.51,5.74l-20.33-2.68c.42-11.92,16.46-19.19,26.76-20.79,4.78-.74,16.83-1.32,21.22.1,5.06,1.64,13.65,13,11.66,18.97-.83,2.57-6.73,3.5-9.07,3.75-.1-5.35-1.2-14.2-7.89-14.46,2.32,5.05,6.15,8.87,5.26,15.12l-11.84.65c1.42-4.6-.65-13.93-6.57-13.79,1.83,4.79,5.06,8.08,3.94,13.8h-9.86Z" fill="#fff"/>
    <path d="M207.57,735.46c-5.76.81-17.22,5.44-21.39,9.51l-10.17,18.12c-5.55-.37-1.78-16.79-1.61-20.7.28-6.43-.3-12.95.02-19.38l41.38-6.62,1.97,19.07c-3.2.32-7.09-.44-10.19,0Z" fill="#fff"/>
    <path d="M487.97,418.64c-6.09-3.63-11.76-7.94-18.17-11.08-18.94-9.29-43.19-14.98-64.36-13.92-2.47.12-5.73,1.39-7.88,1.34-1.04-.03-1.1.24-.95-.95,2.72-6.83,6.87-8.89,14.12-9.55,17.99-1.64,62.66,7.96,76.26,20.35,4.52,4.12,1.14,8.83.97,13.81Z" fill="#fff"/>
    <path d="M404.84,564.19c2.83,1.86,9.74,3.95,10.08,4.39.38.51-.29,3.14.94,4.99,1.62,2.45,8.64,5.42,11.61,6.15-1.65,11.28-7.05,14.85-18.04,14.41-11.96-.48-24.97-3.61-36.5-6.57-.27-1.66.13-1.02.91-1.38,2.71-1.24,5.39-1.56,8.5-3.33,7.76-4.43,15.38-12.79,18.87-20.91.77-.51,2.87,1.75,3.64,2.26Z" fill="#fff"/>
    <path d="M548.93,707.39c1.97,1.95,6.85,16.9,6.4,19.62-.13.76-4.77,8.99-5.65,10.69-.39.74-1.61.93-2.09,1.89-3.5,7.02-6.14,15.37-8.65,22.83l-8.56,3.92c-.73-.06-2.92-7.22-3.3-8.51-2.79-9.44-4.61-20.93-.48-30.08.41-.91.12-1.03,1.48-.82-.7,1.75.68,18.94,4.31,13.81-.09-6.81-3.12-13.94-.96-20.66,3.92-5.43,4.15,10.49,4.58,12.28.07.31,2.57,3.62,2.02,5.65.29.21,2.45.18,2.54.09,1.26-1.21-5.14-22.28-2.28-26.28,2.83-3.97,3.76,1.2,4.44,3.42.98,3.19,2.53,13.03,3.76,15.13.44.75,1.87,1.42,2.65.86,2.35-2.7-1.09-5.94-1.44-7.19-.72-2.57-4.6-15.85-4.5-17.18.17-2.28,4.94-.26,5.73.52Z" fill="#fff"/>
    <path d="M490.22,446.64c3.23,5.78,5.69,9.24,5.65,16.34-.03,4.12-2.05,18.03-8.19,17.48-6.84-5.75-14.33-10.43-22.77-13.58l4.07-11.35c10.49.98,17.56-1.12,19-12.56,1.58.56,1.54,2.41,2.24,3.67Z" fill="#fff"/>
    <path d="M590.54,818.28v19.06h-38.13c-.03-10.09,4.4-8.41,10.47-12.21,3.79-2.37,6.54-6.06,9.39-9.36l18.27,2.5Z" fill="#fff"/>
    <path d="M590.54,770.3c-1.35-.48-1.73-2.16-2.28-3.31-3.27-6.88-6.52-20.4-6.96-27.88-1.14-19.48,1.52-37.82,9.24-55.57v86.76Z" fill="#fff"/>
    <path d="M87.57,242.5l-1.96,33.52c-26.06,2.23-23.1-39.42,1.96-33.52Z" fill="#fff"/>
    <path d="M418.94,610.57c-7.6-.62-44.62-2.93-47.53-9.37-1.05-2.32,1.71-7.95,3.12-10.19l36.75,5.87.81,1.23c-3.64,6.45,2.7,9.25,6.86,12.46Z" fill="#fff"/>
    <path d="M228.93,741.39c-4.76,2.22-10.65,1.78-15.91,3.47-9.72,3.13-19.61,11.93-20.31,22.75-1.07.82-11.29-1.51-12.14-3.22,1.36-22.97,29.92-31.06,48.36-22.99Z" fill="#fff"/>
    <path d="M534.98,467.94c8.82-1.07,17.79-7.3,24.65-12.48.17,2.21-.25,4.58.02,6.77.06.5,1.22.52,1.3.8.24.78-3.93,7.64-4.93,8.86-9.81,11.96-30.94,11.21-37.15-3.95,5.11-.44,11.12.6,16.11,0Z" fill="#fff"/>
    <path d="M590.54,570.48v41.41l-7.84-12.36-3.14-11.38c-2.1-2.08-14.94,8.97-15.33,6.96,3.17-12.14,14.02-22.19,26.31-24.64Z" fill="#fff"/>
    <path d="M100.73,749.93c-1.79,2.59-5.83.44-8.89.61-14.37.81-33.55,7.77-36.48,23.7-16-2.09-4.65-16.07,2.82-21.19,12.03-8.25,29.61-10.12,42.56-3.12Z" fill="#fff"/>
    <path d="M236.41,350.05c1.06,1.39,3.69,2.86,4.33,5.18-10.42,5.09-18.57,13.32-24.29,23.32,3.44-14.58,5.95-29.97,3.96-45.03,7.24,3.31,11.38,10.49,16,16.53Z" fill="#fff"/>
    <path d="M119.13,778.19c.19,1.92-.93,3.4-2.29,4.6-8.97,7.93-48.58,3.87-60.18.34-6.26-1.91-16.47-5.36-15.76-13.49,4.46,3.34,7.84,5.59,13.18,7.52,18.33,6.63,46.55,6.82,65.05,1.02Z" fill="#fff"/>
    <path d="M259.18,768.99c-7.69,11.47-29.79,12.05-42.43,11.19-8-.54-39.51-6.86-44.38-12.16-1.14-1.24-2.15-2.46-1.94-4.3,26.23,11.83,61.72,17.32,88.75,5.26Z" fill="#fff"/>
    <path d="M571.07,447.97c1.89,3.69,5.62,9.93,8.31,13.05,1.86,2.14,12.99,10.33,11.15,12.84-3.73-4.91-24.19-9.09-26.32-11.47-4.85-5.41,1.97-16.39,3.33-22.05,2.09,1.81,2.3,5.22,3.54,7.64Z" fill="#fff"/>
    <path d="M439.26,546.25l-10.47,30.8c-2.74-1.23-10.48-3.54-10.5-6.82-.02-3.59,13.74-22.44,17.41-25.88l3.56,1.91Z" fill="#fff"/>
    <path d="M477.92,431.28c13.09-3.09,7.44,17.71,2.1,20.5-1.96,1.03-9.02,2.15-9.54-.57-.58-3.04,3.08-18.9,7.44-19.92Z" fill="#fff"/>
    <path d="M112.56,556.68l-10.57-3.56c-.4-1.72-2.09-14.03-.28-14.17,1.07,1.57,10.85,7.52,10.85,8.2v9.53Z" fill="#fff"/>
    <path d="M510.98,531.04l-7.92-2.41c.47-8.68,2.49-17.25,5.96-25.19l1.96,27.6Z" fill="#fff"/>
    <path d="M86.53,537.87c-1.31,1.61-2.74,4.5-4.86,5l2.63-19.71,7.25,6.94c.18,2.01-3.81,6.29-5.03,7.78Z" fill="#fff"/>
    <path d="M115.19,548.79c7.24,2.66,13.94,6.58,21.7,7.56l-21.7,1.64v-9.2Z" fill="#fff"/>
    <path d="M510.32,466.62l-12.49,5.26.66-11.82c.76-.87,10.65,5.42,11.83,6.56Z" fill="#fff"/>
    <path d="M559.89,716.15c.43.77,2.3.89,1.3,3.35-.1.23-3.4,4.06-3.86,2.83l-4.26-13.15c1.81-1.67,6.15,5.78,6.83,6.97Z" fill="#fff"/>
    <path d="M326.9,434.42l.33-6.58c6.55,1.57,6,5.43-.33,6.58Z" fill="#fff"/>
    <path d="M155.58,67.38c2.36,5.35,3.92,11.12,3.67,17.36,13.96-10.01,37.55-5.44,39.45,13.8,8.62-3.53,19.3-4.1,27.26,1.33,6.75,4.61,9.48,14.38.33,18.05-70.05,2.83-140.52-.72-210.74.37-11.24-.92-9.13-15.89-1.56-20.69,5.49-3.48,15.58-4.23,21.3-1.03,1.72-7.28,4.45-13.75,10.2-18.74,10.01-8.69,23.92-7.63,35.5-2.95,1.99-26.85,33.35-36.23,55.76-27.15,9.26,3.75,14.86,10.69,18.82,19.65ZM155.3,90.65v-9.53c0-33-44.88-45.26-64.41-21.67-5.43,6.56-6.75,12.9-7.31,21.28-2.78.61-4.33-2.25-6.74-3.33-9.75-4.39-24.14-3.59-31.31,5.06-4.2,5.07-7.17,12.11-6.6,18.71-3.47.66-5.68-2.7-8.92-3.25-10.23-1.72-22.86,4.08-17.39,16.07l4.26,1.66,207.74-.08c10.77-6.54-.89-15.64-9.8-16.41-8.08-.7-12.15,1.69-19.41,3.97,2.94-17.66-19.82-25.12-32.44-16.98-2.74,1.77-4.24,6.13-7.67,4.49Z"/>
    <path d="M446.36,171.7c3.04,3.38,5.39,9.75,6.12,14.26,13.86-11.43,40.89-10.27,44.05,10.52,7.91-3.66,15.21-5.65,23.66-2.3,12.13,4.81,17.67,21.28,2.64,26.29l-203-.11c-.46-.73-2.65-2.26-2.78-2.69-.66-2.23,2.26-7.83,3.66-9.97,5.91-9.04,19.83-9.3,29.2-5.97,2.33-15.2,20.57-21.1,33.53-14.46,3-23.42,33.96-33.73,53.45-22.87,1.58.88,8.4,6.11,9.47,7.3ZM450.6,191.12c-.72-.46-.77-4.93-1.21-6.34-6.99-21.95-34.68-27.9-52.35-14.47-7.93,6.03-8.85,14.14-11.95,22.87-8.45-9.16-28.22-6.26-31.08,6.42-.53,2.33.33,5.02-.88,7.34-4.12-.3-6.58-3.1-10.95-3.71-6.5-.9-14.08.39-18.25,5.73-1.67,2.14-5.42,8.26-.67,8.59l197.1-.2c17.13-4.22,4.62-20.88-7.69-21.55-7.65-.42-11.28,3.08-17.69,5.23-1.02-.4-1.99-8.25-3.69-10.63-7-9.8-22.06-11.25-31.79-4.98-2.39,1.54-6.52,7.22-8.89,5.7Z"/>
    <path d="M291.4,730.21c7.24-3.72,15.65,15.76,11.5,17.08-2.98.94-2.11-3.88-2.58-5.29-.58-1.75-1.63-4.4-2.72-5.83-2.1-2.75-5.39-2.95-6.2-5.96Z"/>
    <path d="M318.35,729.55l-5.68,5.82c-2.84,3.15-1.43,9.66-5.15,11.26-4.19-.95,3.88-21.06,10.84-17.08Z"/>
    <path d="M295.22,679.46c-.18.28-1.69.76-2.09.65-5.55-1.5,4.1-15.12,7.12-14.32s-2.9,6.4-3.71,8.1-1.01,5.08-1.32,5.57Z"/>
    <path d="M166.3,800.65c.57-.1,1.16-.25,1.73-.06,2.73,1.71-1.91,3.35-3.41,5.64-1.72,2.62-2.15,5.97-2.89,8.94-.28,1.05-1.18,1.43-2.15,1.13-2.78-.88,2.34-14.89,6.72-15.66Z"/>
    <path d="M152.01,816.32c.29-6.66-4.93-9.3-9.85-12.17,4.48-5.81,19.39,11.66,9.85,12.17Z"/>
    <path d="M311.78,807.76c-.21-.14-.82-3.68-1.43-4.82-2.24-4.16-4.08-5.42-8.13-7.65l.36-1.99c4.99-.27,11.98,7.73,11.88,12.18-.04,1.62-1.32,3.17-2.67,2.28Z"/>
    <path d="M327.55,792.65c1.38,1.48-8.79,11.32-7.95,15.04-8.85.86,6.12-16.99,7.95-15.04Z"/>
    <path d="M288.1,680.25l-2.53-.1c-1.05-2.33-.62-5.34-1.87-7.6-.99-1.77-4.7-2.47-4.14-5.44,6.64.11,9.39,7.32,8.54,13.15Z"/>
    <path d="M205.92,621.75c-1.46,8.03-7.57,17.96-12.34,24.79-11.53,16.51-29.8,32.83-48.22,41.18-6.76,3.07-14.02,6.1-21.61,5.66-.36-1.79.46-1.13,1.32-1.6,6.84-3.77,16.9-5.89,24.76-10.11,27.87-14.98,35.56-30.61,51.52-55.48.74-1.16,3.03-4.38,4.58-4.44Z"/>
    <path d="M174.36,294.42c.62,5.73-11.37,5.52-15.43,5.24-5.09-.35-16.82-3.38-17.43-9.18,3.97-.86,6.08,2.61,9.51,3.96,8.17,3.22,15.17,1.63,23.36-.02Z"/>
    <path d="M440.04,569.1c-1.37-5.41,8.44-4.23,11.81-3.59,2.84.54,10.68,4.74,11.51,7.57,2.12,7.18-8.52-.35-11.21-1.3-4.26-1.51-7.71-1.99-12.12-2.67Z"/>
    <path d="M446.41,578.48c6.85-.74,3.74,14.03-2.13,13.07-3.68-.61-3.56-12.45,2.13-13.07Z"/>
    <path d="M452.47,622.41c2.01,3.48-9.01,4.96-10.95,4.99-1.39.02-15.84-1.16-12.05-4.99,3.02.12,5.81,1.2,8.84,1.34,5.41.24,9.11-1.03,14.16-1.34Z"/>
    <path d="M156.41,237.04c-2.48,3.15-13.93.46-17.85.17-3.16-.24-15.47,1.3-16.11-2.91-.85-5.53,17.33-4.55,20.68-4.28,2.61.21,13.8,1.65,14.18,4.26-.02,1.02-.25,1.95-.89,2.76Z"/>
    <path d="M187.37,230.19c3.61-.41,18.7-1.75,15.83,5.31-.55,1.37-22.54,3.31-25.79,3.61-1.67-.65-1.46-4.77-.44-6.17.56-.6,8.97-2.59,10.4-2.75Z"/>
    <path d="M191.98,247.24c2.81,1.42,4.01,16.31-3.44,14.97-7.82-2.29-4.07-18.76,3.44-14.97Z"/>
    <path d="M525.88,409.24c-.19.31-1.24.59-1.64,1.27-6.18,10.56-17.06,26.94,6.14,20.6,3.22.93.9,2.73-1.05,3.58-4.27,1.84-14.8,1.39-16.57-3.7-2.06-5.91,8.25-21.03,11.81-26.05,2.96-.29,2.48,2.31,1.31,4.31Z"/>
    <path d="M556.9,405.39c-3.02,1.97-4.55-1.15-7.14-2.18-1.66-.66-15.84-4.27-12.48-7.57,6.52-.5,20.45.72,19.62,9.75Z"/>
    <path d="M519.37,393.17c.79,1.2,1.55,3.65-.27,4.34-3.22-1.37-17.61,3.5-18.54-.36-1.42-5.9,15.72-5.52,18.81-3.98Z"/>
    <path d="M508.17,406.27c7.46-2.25,5.15,16-1.19,10.79-2.76-2.27-1.76-9.9,1.19-10.79Z"/>
    <path d="M542.97,408.84c4.13-.57,5.32,12.01.53,12.47-5.2.5-4.4-11.93-.53-12.47Z"/>
    <path d="M512.3,448.23c2.57-2.61,19.78-1.8,19.06,1.63-.46,2.2-9.32-1.15-11.5-1.02s-6.85,3.64-7.56-.61Z"/>
    <path d="M404.31,457.59c5.16-1.06,14.95.46,19.48,3.21,1.98,1.2,2.75,4.06-.26,3.56-3.64-.6-7.84-4.02-12.83-4.3-2.51-.14-10.68,2.79-9.48-.95.68-.99,1.99-1.29,3.09-1.51Z"/>
    <path d="M582.91,612.29c.9,1.17,5.43,5.39,1.94,6.74-3.18,1.24-5.7-4.95-8.47-7.13-2.16-1.7-10.27-4.08-7.92-7.3,5.9-2.46,11.21,3.46,14.45,7.68Z"/>
    <path d="M571.86,625.44c-1.18,2.67-4.69,7.4-7.99,4.9-1.54-4.16,2.54-15.01,7.81-13.08,2.95,1.08,1.05,6.21.18,8.18Z"/>
    <path d="M573.44,662.49c-.68,1.04-20.96,3.83-19.72-2.62,3.64.07,6.42,1.4,10.2,1.34,2.44-.04,8.14-2,9.23-.72.39.37.45,1.75.29,1.99Z"/>
    <path d="M430.31,408.6c-.77-.96-1.02-2.48-.79-3.69,1.64-2.66,25.76,5.49,17.7,10.83-1.39.41-15.9-5.89-16.91-7.15Z"/>
    <path d="M414.93,406.09c-2.53,1.26-5.37.34-7.98.89-2.38.5-9.32,4.04-9.72.81-.72-5.68,18.3-9.88,17.7-1.7Z"/>
    <path d="M432.26,431.61c-2.41-2.03-2.97-12.84,3.14-11.37,4.24,1.02,4.27,9.91.84,12.12-1.06.37-3.11-.01-3.98-.75Z"/>
    <path d="M155.3,90.65c3.44,1.64,4.93-2.72,7.67-4.49,12.62-8.15,35.38-.69,32.44,16.98,7.27-2.27,11.33-4.67,19.41-3.97,8.9.77,20.57,9.87,9.8,16.41l-207.74.08-4.26-1.66c-5.47-12,7.17-17.8,17.39-16.07,3.24.55,5.44,3.9,8.92,3.25-.57-6.6,2.4-13.64,6.6-18.71,7.18-8.65,21.56-9.45,31.31-5.06,2.41,1.08,3.96,3.94,6.74,3.33.56-8.38,1.88-14.72,7.31-21.28,19.53-23.59,64.41-11.33,64.41,21.67v9.53Z" fill="#fff"/>
    <path d="M450.6,191.12c2.37,1.52,6.5-4.16,8.89-5.7,9.73-6.27,24.79-4.82,31.79,4.98,1.7,2.38,2.67,10.23,3.69,10.63,6.42-2.15,10.05-5.65,17.69-5.23,12.3.67,24.81,17.33,7.69,21.55l-197.1.2c-4.75-.33-1-6.46.67-8.59,4.17-5.34,11.76-6.62,18.25-5.73,4.37.6,6.83,3.41,10.95,3.71,1.21-2.32.36-5.01.88-7.34,2.86-12.67,22.63-15.58,31.08-6.42,3.1-8.73,4.02-16.84,11.95-22.87,17.67-13.43,45.36-7.48,52.35,14.47.45,1.41.49,5.88,1.21,6.34Z" fill="#fff"/>
  </g>
  <path d="M142.66,246.55c2.81,1.42,4.01,16.31-3.44,14.97-7.82-2.29-4.07-18.76,3.44-14.97Z"/>
  <path d="M399.7,428.72c-2.41-2.03-2.97-12.84,3.14-11.37,4.24,1.02,4.27,9.91.84,12.12-1.06.37-3.11-.01-3.98-.75Z"/>
</svg>