<?xml version="1.0" encoding="UTF-8"?>
<svg id="Camada_1" xmlns="http://www.w3.org/2000/svg" version="1.1" viewBox="0 0 595.28 841.89">
  <!-- Generator: Adobe Illustrator 29.0.0, SVG Export Plug-In . SVG Version: 2.1.0 Build 186)  -->
  <path d="M.14,841.29V-.06h595v841.34H.14ZM590.54,3.89H4.74v712.51l20.38.65c-1.58-2.48-10.54-11-9.83-13.4l1.06-.95c5.91-.66,12.05,1.57,16.65,5.15l-10.49-16.24.36-4.86c3.43-2.98,15.83,7.08,19.01,9.27l.63-3.97c1.73-2.61,9.15,4.24,10.21,5.94-.33-21.72-1.48-43.69-.67-65.43.74-19.93,4.01-35.91,2.71-56.55-1.46-23.07,3.05-41.09,3.92-64.35.86-23.18-1.71-45.17-.08-69.08,1.92-28.1,3.54-57.91,4.68-86.7.7-17.74-4.42-33.21-3.34-50,.99-15.3,5.11-25.43,3.92-40.69-2.14-27.3,10.67-76.22,21.93-101.11,5.86-12.95,32.7-47.63,44.6-54.64,24.12-14.2,93.84-33.39,121.9-35.88,57.51-5.11,135.38-2.17,188.8,20.9,10.63,4.59,37.85,16.99,45.98,23.39,2.58,2.03,5.63,6.35,8.19,8.56,3.55,3.06,9.06,5.45,12.37,9.33,5.64,6.61,7.73,16.61,10.53,24.45,7.54,21.1,11.77,41.31,15.13,63.08,4.59,29.71,3,63.48,2.71,93.79-.45,46.58-3.48,93.34,2.56,138.88,2.2,16.57.44,28.95.02,45.16-1.12,43.94-1.67,88.81.07,131.44.5,12.07.81,27.24-1.31,38.34-.56,2.96-3.34,11.99-3.34,13.62v15.45c1.16-2.25,1.83-4.81,3.1-7.05,1.39-2.45,12-17.65,15.03-13.36l-4.66,21.05c5.04-5.74,10.26-13,18.74-13.13l-1.78,7.06-9.39,13.31c11.5-3.35,23.38-7.12,35.5-5.25V3.89ZM486.24,123.94c-22.78-18.52-62.05-32.6-90.94-39.56-50.14-12.08-122.96-11.53-173.61-1.95-3.54.67-7.06,1.68-10.52,2.64,18.19.71,36.04-4.92,54.27-4.96,14.88-.03,29.86,2.98,44.66,3.34,7.92.19,15.76-1.21,23.68-.67,31.04,2.11,56.96,14.03,85.97,20.53,14.44,3.24,24.36,4.47,37.26,12.71,9.99,6.39,22.97,22.21,30.85,31.6,7.98,9.5,10.82,24.14,14.67,35.97,3.3,10.14,2.7,33.66,3.87,45.95,2.1,21.96,3.03,46.14,5.27,69.01,1.98,20.16-4,38.1-3.31,59.29.6,18.42,2.59,35.69,1.98,54.59-1.19,37.36-.82,75.01-2.6,112.41-.63,13.13-.47,27.12-1.42,40.02-2.02,27.48-1.31,55.33-2.6,82.83-.58,12.32,2.64,24.28,2.71,36.17.03,4.33-2.74,31.83-1.37,33.21l25.95-8.5c.21-7.59-1.6-15.87-.95-23.36.56-6.41,4.13-9.75,4.61-15.77,3.23-40.62-2.96-85.84-.71-126.91,6.88-66.28-7.15-130.53-1.99-196.54.95-12.2-.48-21.38-.63-34.12-.38-31.5,1.98-59.65-2.63-91.25-3.08-21.13-8-40.67-15.4-60.99-2.71-7.46-4.18-16.77-10.2-22.65-4.36-4.25-11.77-8.88-16.88-13.03ZM462.78,124.39c-11.33-9.88-20.24-11.81-34.14-14.84-32.34-7.07-60.55-21.42-94.82-23.52-7.36-.45-14.61.89-21.74.7-20.87-.54-41.02-4.79-62.42-2.64-23.53,2.36-50.28,4.99-72.95,11.2-13.01,3.56-35.19,11.47-46.31,18.77-7.56,4.96-30.41,33.54-36.12,42.08-10.11,15.11-25.31,70.53-26.44,88.62-.66,10.51,1.24,21.03.67,31.56-1.12,20.7-6.49,26.52-3.31,48.8s.79,31.84,0,52.41c-.57,14.97-.45,30.34-1.34,44.68-2.48,39.8-.09,79.88-3.84,119.05-1.88,19.57-1.28,32.2-1.34,51.91-.05,15.03-2.28,30.28-2.68,45.3-.69,25.9.36,51.81,1.96,77.63,11.2-.12,22.06,4.06,33.28,3.6,7.25-.29,14.71-3.33,21.75-3.88,15.59-1.23,32.81,4.35,48.53,5.2,21.73,1.18,41.11-5.36,61.2-4.66,11.94.42,23.47,5.19,35.55,5.2,13.62.02,25.69-6.22,38.09-6.51,8.66-.2,17.91,2.74,26.28,3.29,12.24.8,24.57-1.45,36.83-.67,11.39.72,25.17,4.68,36.74,2.61,4.14-.74,13.6-11.36,15.22-2.54,9.87.37,20.52-3.55,30.2-3.37,9.75.17,20.1,5.23,30.22,5.99,3.61.27,27.23-.03,28.53-2.09-.1-7.52.28-14.95.77-22.45.59-8.87.74-11.6,0-20.65-1.31-15.96-1.24-27.84,0-43.77s.3-33.9,1.34-50.71c3.62-58.27-1.7-117.5,3.84-175.58,1.38-14.5-1.34-28.54-1.95-43.97-1.01-25.79,6.14-44.76,3.29-71.54-3.16-29.71-5.33-61.42-7.19-91.52-.5-8.21-2.3-9.98-4.07-16.34-1.76-6.3-2.14-13.85-3.91-19.59-2.09-6.77-23.7-32.52-29.73-37.78ZM4.74,718.37v118.97h585.8v-131.46c-13.06-2.63-25.68,2-38.06,5.2-3.11-5.1,10.44-16.36,10.44-19.99.1-.49-.64-.43-.97-.32-3.37,1.15-12.41,10.8-14.36,13.98-1.39,2.27-.88,7.69-4.65,5.79-2.06-2.49.77-5.42.86-5.82.81-3.57,1.19-7.27,2.22-10.81,1.08-3.74,2.93-6.92,3.77-10.7l-1.61-.3c-4.66,4.95-6.76,9.49-9.39,15.56-.3.7-1.22.83-1.43,1.37-1.04,2.64-1.84,9.06-2.36,9.99-1.52,2.72-28.48,10.65-33.08,11.63-8.96,1.89-18.9,2.74-28.06,2.16-10.79-.69-21.38-5.48-31.55-5.92-10.59-.47-22.02,3.03-32.75,2.64l-6.07,9.85,13.81-7.89c4.44.59-1.69,8.57-.98,9.22,5.17-1,9.74-3.25,15.12-1.96l-1.1,2.52c-2.31.37-4.66-.18-6.96.27-2.96.58-12.39,5.19-13.29,5.13-3.46-.24.74-3.52.86-3.72.5-.86,5.02-7.78,4.71-8.14-2.4.81-4.47,2.22-6.51,3.67-1.64,1.16-10.01,10.69-11.16,7.09.4-2.66,1.91-6.2,3.1-8.58.89-1.78,5.9-8.44,6.02-9.1.18-1.01.03-1.12-.96-.96l-12.76,8.94-9.28,11.42c-.07-6.63,5.66-10.41,9.2-15.11-13.61,2.65-27.24-2.42-40.44-2.69-9.09-.19-18.73,1.99-28.29,1.39-8.8-.55-18.51-3.52-27.59-3.36-10.91.18-21.21,5.27-32.19,6-19.63,1.32-36.01-6.91-55.85-4.56-16.9,2-29.52,5.5-47.39,4.52-16.01-.88-31.85-6.38-47.99-5.23-7.74.55-15.18,3.68-23.04,3.91-8.34.25-15.17-1.84-23.1-3.17-2.78-.47-12.35-.51-13.62-2-1.01-9.69,2.1-18.44-8.96-23.07.8,2.16,1.29,4.45,2.4,6.5,1.41,2.61,8.37,8.9.97,7.87-3.54-8.98-13.45-15.74-22.09-19.65-.71,1.42.89,4.25,1.63,5.43,2.59,4.14,10,11.8,11.64,15.79.32.79.38,1.56.11,2.37-2.1,3.22-15.22-9.57-19.64-7.14,0,3.57,14.37,12,11.84,14.45l-26.96-1.97Z"/>
  <rect x=".14" y="841.29" width="595" height=".66" fill="#fff"/>
  <path d="M462.78,124.39c6.02,5.26,27.64,31.02,29.73,37.78,1.77,5.74,2.16,13.29,3.91,19.59,1.77,6.35,3.56,8.13,4.07,16.34,1.85,30.1,4.03,61.81,7.19,91.52,2.85,26.78-4.3,45.75-3.29,71.54.6,15.44,3.33,29.47,1.95,43.97-5.54,58.08-.23,117.31-3.84,175.58-1.04,16.81-.05,34.1-1.34,50.71s-1.31,27.81,0,43.77c.74,9.04.58,11.78,0,20.65-.5,7.49-.87,14.92-.77,22.45-1.3,2.06-24.92,2.36-28.53,2.09-10.12-.75-20.46-5.81-30.22-5.99-9.68-.17-20.33,3.74-30.2,3.37-1.62-8.82-11.08,1.8-15.22,2.54-11.57,2.08-25.35-1.88-36.74-2.61-12.26-.78-24.59,1.47-36.83.67-8.37-.55-17.61-3.49-26.28-3.29-12.41.29-24.48,6.53-38.09,6.51-12.08-.01-23.61-4.79-35.55-5.2-20.09-.7-39.47,5.83-61.2,4.66-15.72-.85-32.94-6.43-48.53-5.2-7.04.55-14.5,3.59-21.75,3.88-11.21.45-22.07-3.73-33.28-3.6-1.59-25.81-2.64-51.72-1.96-77.63.4-15.02,2.63-30.28,2.68-45.3.06-19.71-.53-32.35,1.34-51.91,3.75-39.17,1.36-79.25,3.84-119.05.89-14.34.77-29.71,1.34-44.68.79-20.57,3.04-31.1,0-52.41s2.19-28.09,3.31-48.8c.57-10.53-1.33-21.05-.67-31.56,1.13-18.09,16.34-73.51,26.44-88.62,5.71-8.54,28.56-37.12,36.12-42.08,11.12-7.3,33.31-15.21,46.31-18.77,22.67-6.21,49.42-8.84,72.95-11.2,21.39-2.15,41.55,2.1,62.42,2.64,7.14.18,14.39-1.15,21.74-.7,34.27,2.09,62.48,16.45,94.82,23.52,13.89,3.04,22.81,4.96,34.14,14.84ZM455.34,130.51c-5.61-5.58-11.07-8.82-18.4-12.17-8.11-3.7-26.1-10.76-34.43-12.91-6.49-1.68-14.52-1.75-21.33-3.65-5.97-1.67-10.76-5.01-16.67-6.34-13.93-3.12-33.39-4.68-47.78-5.47-19.01-1.04-43.71-2.57-62.3.21-17.05,2.55-34.29,3.27-51.39,5.81-.82.12-4.26.71-4.34,1.56,1.32,1.96,2.83,1.68,4.89,1.64,25.89-.43,56.37-9.79,81.54-7.87,4.33.33,9.85,2.46,13.15,2.62,21.56,1.02,43.53-.58,64.93,4.11,4.65,1.02,9.33,4.34,13.88,5.85,9.39,3.12,19.42,2.97,28.86,5.99,11.65,3.73,30.26,10.29,40.54,16.65,3.03,1.87,28.86,28.3,30.28,31,3.03,5.76,7.2,20.34,9.3,27.23,2.84,9.31,7.28,35.41,6.55,44.95-.49,6.36-.63,5.8,0,12.41.87,9.15.92,18.45,1.27,27.64l1.04,1.56,2.94-.98c-.44-4.86.44-10.3.01-15.07-3-33.13-3.66-60.22-15.74-92.04-4.06-10.69-5.75-9.78-12.57-17.04-4.83-5.13-9.24-10.72-14.23-15.68ZM188.79,98.59c-1.53-2.03-20.69,3.51-23.91,4.6-17.08,5.8-27.91,16.97-40.47,29.2,2.63,2.91,4.05-1.77,5.89-3.3,4.79-4.01,10.65-9.11,15.49-12.78,12.19-9.24,27.95-13.98,43.05-15.8-.09-.56.16-1.65-.04-1.92ZM296.65,140.62c-.1-.13-2.53-1.31-3.07-.87l-3.49,4.14c1.06.76,7.6-1.89,6.56-3.27ZM161.87,139.95c-1.33-.68-10.17,2.88-6.84,3.96l2.9-.02c-.99,3.73,2.31,13.14-2.23,13.73l-.4,2.04c.66.23,12.44.3,9.22-1.65l-2.64-.32v-17.75ZM189.49,157.7c-.36-.42.27-8.97,0-10.52,4.09,3.84,6.91,10.09,12.15,12.48,2.37-.72.13-14.25.96-16.68.28-.8,2.27-.33,2.66-1.39l-7.88-.98.04,1.92c4.39,0,2.33,6.4,2.27,9.25-4.81-4.06-7.8-13.51-15.47-10.85-1.25,1.54,1.53,1.31,1.99,3.29.72,3.14.82,13.28-2.63,14.78.28.47,8.56,1.98,7.89-1.3-.49-.12-1.86.13-1.97,0ZM218.41,141.27c-3.88-.05-9.59-2.85-9.19,3.28,3.21-3.27,8.61,2.81,9.19-3.28ZM111.01,152.2c1.71-2.01,6.82-7.47,7.49-9.29.28-.77,1.13-.51-.35-1.63-10.92,10.62-21.21,21.77-27.1,35.97-4.59,11.06-6.13,23.95-9.58,35.8-1.72,5.93-4.18,11.38-5.8,17.74-3.6,14.2-1.04,36.74.12,51.43,1.03,13.08-5.77,27.59-4.68,41.48l4.65,20.66,2.57-.91c.14-6.79-5.17-14.26-5.27-20.43-.17-10.35,4.13-21.33,4.68-32.19,1.12-21.98-3.65-44.24,2.53-65.31,9.28-31.6,8.42-47.11,30.74-73.32ZM251.94,145.87c1.17-3.41-2.37-5.42-4.44-3.12-.19.21-2.21,4.47-2.14,4.74.08.29,1.23.31,1.3.81.32,2.3-.86,10.32,1.76,11.28,3.29,1.21,9.58-1.72,7.12-2.53-5.73,1.02-3.04-5.55-3.6-9.2h3.95s0-1.97,0-1.97h-3.95ZM362.39,141.92c-4.58-.39-2.2,3.82-6.56,4.94l2.63.97c.31,2.47-.94,10.23,1.3,11.51,1.49.85,9.15.78,6.81-2.31-5.48.63-4.11-4.58-4.18-8.54l3.51-.1,1.1-2.19-4.61-.33v-3.94ZM218.51,156.94c-.64-1.06.29-6.19-.12-8.09-1.09-5.09-10.19-4.61-11.84-.02,3.05,5.05,4.66-.94,5.04-1.03,2.5-.61,3.53,1.99,2.88,4-3.49-.34-8.88.41-8.62,4.92.32,5.51,6.73,2,8.92,1.92.86-.03,5.87,3.3,6.26-.91-.61-.15-2.31-.39-2.53-.77ZM228.78,145.33c-11.18,1.04-9.38,18.18,4.65,13.91,6.99-2.13,5.02-14.81-4.65-13.91ZM279.72,149.6c5.23,1.13,4.48-3.6,1.99-4.3-.68-.19-8.48,1.3-10.03,1.25,1.81,4.23,2.08,8.89-.01,13.11h7.89c.78-2.23-1.53-1.94-1.87-3.04-.38-1.23-.19-7.35.56-8.13,1.47-.63,1.3,1.07,1.46,1.1ZM298.12,156.9c-.7-1.46.18-5.33-.2-7.38-1.3-7.03-14.04-4.13-13.02-.78,4.66,5.18,3.07-4.56,7.87-.64l.59,3.68c-10.04-2.73-12.47,9.97-2.33,7.88,1.44-.3,2.47-1.95,2.65-1.95.36,0,3.46,4.24,6.23.32-.02-.48-1.63-.75-1.81-1.12ZM380.09,149.75c1.13-6.59-3.36-3.3-5.56-3.25s-7.52-2.01-6.88,1.99h2.64c-.4,2.16.68,7.71-.3,9.25-.61.96-2.91-.18-2.33,1.92h8.54c-1.43-1.77-2.38-11.29-.03-10.83l3.92.92ZM270.02,148.18c-3.38-4.75-12.27-2.55-12.84,3.94-.78,8.93,7.9,10.15,13.83,5.57-2.62-2.74-9.01,2.29-8.54-4.59h8.55c.2-2.68.31-3.08-1-4.92ZM312.35,146.6c-3.11-.85-9.69-2.09-10.44,2.27-1.03,5.98,7.78,5.33,7.23,7.83-1,4.61-7.41-3.57-8.47-1.54-3.11,5.94,9.28,5.55,12.09,2.54,2.49-7.05-4.82-5.37-8.2-8.88,3.79-4.13,8.56,5.83,7.79-2.22ZM321.98,156.68c3.98,6.22,16.18,3.09,14.63-5.72-1.72-9.78-21.15-4.48-14.63,5.72ZM353.19,156.05c-.69-2.23.5-7.53,0-10.19l-7.23.66c4.28,2.26,3.51,4.19,3.17,8.75-7.99,6.65-3.3-7.88-5.23-9.34l-7.16.9c5.35,1.39.31,10.49,4.61,12.48.64.3,11.65.55,12.66.16.61-.23,2.04-1.33,1.81-1.79-.82,0-2.43-1.02-2.63-1.66ZM386.53,146.01c-8.09,1.82-6.97,13.55,1.26,14.28,13.03,1.17,11.69-17.2-1.26-14.28ZM408.98,146.62c-4.59-1.75-8.9-1.23-10.37,3.8,1.78.17,1.24,1.98,2.58,2.99,1.52,1.15,6,1.56,5.25,3.94-1.38,4.39-6.84-3.46-7.88-2.29l.09,3.84c3.67,3.05,14.34.59,11.58-5.02-.54-1.09-7.77-4-7.72-5.07,1.94-1.83,4.44-1.61,4.51,1.24l2.04.4-.09-3.85ZM176.33,150.47h-7.23s0,2.62,0,2.62l6.12.02,1.11-2.65ZM198.69,172.81l-7.23.66c-.51,2,2.28,1.71,2.51,2.07,2.5,3.88-2.33,2.88-4.01,3.34-8.43,2.29-9.17,14.96,1.12,14.27.86-.06,1.66-1.12,2.14-1.15.83-.06,4.33,2.04,6.77.52.64-1.27-1.32-2.79-1.32-2.95v-16.76ZM215.79,185.96c.49-12.46-17.91-8.01-13.7,4.16,1.33,3.84,13.18,4.57,13.03-.87-.49-.5-10.46,3.61-8.26-2.68l8.93-.61ZM223.02,178.73l-6.58.66c-.7,2.39,1.61,1.73,1.99,3.59.65,3.22-1.6,8.88,3.75,10.08,2.95.66,4.05-1.09,5.65-1.05,1.73.04,4.99,2.57,7.67-.49.71-1.44-2.62-.94-2.62-1.96v-9.86c-1.63-2.11-4.28.1-6.58-.33-.69,2.39,1.6,1.72,1.99,3.59.23,1.12.05,5.79-.59,6.54l-4.68-.6v-10.19ZM236.17,187.94l.63,4.29c3.66,1.06,9.7,1.72,11.2-2.7,1.02-5.89-7.67-5.13-7.23-7.83s4.29,1.91,5.57,1.63c4.38-7.47-13.65-5.67-9.19,1.98,2.27,1.71,6.42,1.67,6.9,5.24-4.01,1.64-4.65-2.22-7.88-2.62ZM262.98,185.82c2.22-6.47-6.25-9.23-10.99-5.4-3.67,2.96-3.61,10.37.78,12.28,2.23.97,10.63.41,10.35-2.45l-8.13-.93-.42-2.69,8.41-.8ZM274.86,179.49c-5.01-2.1-8.71-.45-10.41,4.49,1.35,1.99,12.07,5.75,6.74,7.14-3.86,1.01-3.23-5.13-6.67-3.1-2.56,8.68,16.96,5.51,11.56-1.87-1.1-1.51-5.56-2.39-7.03-3.81.73-3.36,5.43,1.62,5.91.99l-.09-3.84ZM283.4,192.44c2.05-3.28-3.41-5.62-4.88-2.53-1.35,2.87,3.77,4.29,4.88,2.53ZM259.16,233.93l-.58-3.01c-2.02-2.38-7.93-.19-9.26,2.18-1.03,1.84.1,4.67-2.64,4.8,2.77,1.38,2.45,8,1.98,10.73-.12.66-1.97.01-1.32,1.74h8.54c-4.12-2.38-2.26-6.05-2.67-10.13.3-1,5.24.18,3.99-3.01-7.12,1.32-3.27-8.85.31-2.64l1.64-.66ZM295.76,230.71c-.52.07-5.42,4.24-2.71,5.2l4.92-2.97c.21-.83-1.35-2.36-2.21-2.24ZM328.03,231.49c-2.67-2.22-6.1.38-4.13,3.15,1.62,2.29,6.91-.85,4.13-3.15ZM153.98,250.38h13.81l-.34-5.25c-2.35,2.45-3.45,2.18-6.89,1.96,3.92-4.13,10.43-7.58,7.05-14.28-2.74-2.36-11.84-2.17-12.86,1.61-1.75,6.53,5.35-2.16,8.45,1.16,3.92,4.19-12.04,12.07-9.22,14.8ZM220.38,232.63c-3.88-.26-9.32-3.4-9.85,2.62,3.77-2.02,8.11,2.91,9.85-2.62ZM187.51,233.94c.45.57,0,12.43,0,14.46,0,.14-2.56.24-1.97,1.97h8.54c.42-2.27-2.5-1.14-3.17-3.07-.84-2.41.11-6.24.22-8.76,2.97,1.33,10.41,13.8,13.53,11.55,1.63-4.69-.07-10.5.56-15.21.16-1.2,2.51-1.32,1-2.93h-6.86c-.34,1.88,2.06,1.75,2.51,3.08.65,1.88-.21,5.32.1,7.45-5.63-4.13-8.47-14.3-17.07-9.53.39,1.09,2.53.88,2.61.99ZM387.38,239.21c.09-.11,2.25.06,2.63-1l-.64-1.99c-4.05,1.51-10.63-1.45-13.34,2.48-3.11,4.51.51,5.41.65,6.74.34,3.3-7.94,12.68,5.77,11.52,11.72-1,7.73-11.75-2.94-9.21-.53-2.29,3.06-1.02,4.78-1.46,5.29-1.34,2.83-6.73,3.1-7.07ZM221.26,248.24c-.82-5.32,1.71-11.48-6.46-11.73-4.78-.14-7.62,4.36-4.6,5.31,2.61.82,1.82-3.25,3.93-3.32,1.77-.06,2.66,2.46,2.31,3.98-3.5-.64-10.64,2.05-8.4,6.44,1.74,3.41,9.9.17,13.2,1.35l1.13-1.54c0-.44-1.08-.29-1.12-.5ZM239.1,241.54c-7.77-15.62-25.24,6.63-9.53,9.23,5.15.85,11.81-3.53,10.5-8.44-.13-.47-.85-.56-.97-.79ZM270,239.56c-2.81-4.25-7.16-3.29-11.32-1.51l-.1,3.06c3.39,1.84,5.85-6.55,7.85.38.14,1.43-.15.84-1,.99-5.28.92-10.27.35-6.79,7.78l23.55.12c.21-2.06-1.79-1.96-3.25-2-.17-1.67-.4-8.11,1.65-8.5.89-.17,2.65,2.55,3.92.67l-.31-3.69c-2,.66-10.7-.67-11.21,1.38,2.74,1.21,2.66,10.31.95,10.83-4,1.21-2.27-6.96-3.94-9.49ZM299.5,248.23c-.5-3.22.77-9.25-2.47-11.05-3.06-1.7-10.56-.91-9.53,3.94,4.95,2.43,3.26-3.75,6.56-2.29l.2,3.69-7.13,2.6c-1.39,9.39,5.31,4.43,8.5,4.6,1.18.06,2.7,1.96,4.98.65.76-1.7-1.08-2.01-1.1-2.13ZM313.74,241.17c.19-.2-.02-2.22-.09-2.87-.9-2.25-10.19-2.8-10.75,2.12-.61,5.39,6.9,3.68,7.55,7.98-3.58,1.48-4.56-.86-6.89-2.62-5.04,7.8,14.07,6.94,10.49-1.31-.48-2.03-8.31-3-6.88-5.27s5,3.58,6.57,1.97ZM328.21,236.57l-5.53.6c-1.74,1.81,1.03,2.21,1.23,2.68.48,1.1.68,6.97.36,8.08-.28.97-2.48.74-1.98,2.44h7.22c.49-1.17-1.31-2.01-1.31-2.3v-11.5ZM355.82,248.4c-.25-.44,0-8.62,0-10.19,0-3.68-8.93-.34-9.53-.36-2.54-.09-7.89-1.26-10.98-1.13-.74.03-4.46.74-4.46,1.49,3.21.86,3.32,7.28,2.52,9.79-.39,1.22-2.44.48-1.87,2.37l8.53-.98c-3.58-1.2-2.92-11.46,2-9.16l-1.32,10.14,8.53-.98c-3.63-1.42-1.38-6.23-1.96-9.53h3.95s-1.31,10.52-1.31,10.52h8.54c.8-1.97-2.43-1.62-2.63-1.97ZM371.82,247.57c-.47-3.35.29-6.89-1.53-10.02-3.4-3.48-14.95.88-9.85,3.27,4.41,2.06,2.87-2.54,4.91-2.28,4.53,5.44-.07,3.24-2.98,4.24-4.66,1.59-4.32,7.96.4,8.23,1.55.09,2.7-.98,3.99-1.08,1.69-.13,4.98,1.57,6.16-.55.66-1.56-1.07-1.7-1.09-1.81ZM395.27,243.81l7.93-.29c2.93-8.03-10.66-10.06-12.24-2.39-3.29,15.89,15.1,8.43,12.2,5.97-3.51.48-8.34,1.93-7.89-3.29ZM429.61,248.27c-1.88-3.92,3.14-12.63-6.35-11.66-4.18.43-3.96-.14-6.61-.09-1.82.03-11.13.13-11.51,1.71,3.37,3.02,2.3,8.4.66,12.15h7.22c-6.14-12.73,6.97-14.35,3.17-2.42-.53,1.66-2.28,1.15-2.5,2.42h17.74c.51-1.62-1.57-1.58-1.82-2.1ZM170.5,244.39c5.34,2.93,11.36-5.32.38-2.42l-1.1.85c.58.28.54,1.48.72,1.58ZM437.91,246.53c-2.63-1.53-6.61,1.47-3.58,3.91,3.32,2.67,5.25-2.93,3.58-3.91ZM497.61,432.26c2.43-28.31,0-56.55.86-84.95.41-13.5,3.19-27.8,2.68-41.42-.24-6.45-2.24-13.12-2.78-19.57-1.21-1.62-3.21-2.19-3.16.52.15,7.55,3.44,14.4,3.31,22.4-.06,3.43-1.94,8.29-2.06,9.79-2.49,32.43.01,64.84-1.24,97.34-.28,7.23-2.14,15.08-2.03,22.35.14,8.88,2.29,18.45,2.04,27.61-.14,5.15-1.78,10.78-2.03,15.72-.4,7.85.34,15.82.02,23.68.22.77,1.31.32,1.65-.33,1.59-3.08.56-19.31,1-23.97.37-3.92,2.29-6.37,2.64-10.52,1.15-13.74-2-25.81-.9-38.66ZM167.59,291.32c-2.33-3.22-12.34-2.81-12.94.81-.73,4.42,6.73-2.23,8.43.42,2.48,3.87-6.74,5.59-5.15,7.12,2.46.16,6.52.3,6.51,3.62-2.48,7.41-6.05.86-10.46,1.64.77,9.65,23.36,1.25,11.84-6.26-.21-.87,4.86-3.1,1.77-7.36ZM343.99,289.16c-3.52-.69-4.55.59-5.91,3.6.4,2.72,7.55-2.15,5.91-3.6ZM191.46,306.25c-.51-.8.38-8.15,0-9.86,3.29,1.64,13.3,18.36,14.46,8.88.49-4.01-.62-9.19.03-13.02.06-.36,2.49-1.02.96-2.43l-6.24.67c.05,2.05,1.51.95,1.91,3.65.32,2.13.19,4.75-.26,6.86-4.15-4.25-10.04-15.57-16.76-9.52,3.69,2.07,4.04,10,3.33,13.84-.34,1.83-2.65.53-2.68,2.58.39,1.89,10.5,1.33,8.54-.97-.57-.06-3.2-.52-3.29-.66ZM221.7,290.48c-4.1.12-10.03-2.91-10.51,3.28,3.81-1.83,8.89,1.81,10.51-3.28ZM254.57,295.07c-.04-1.13.41-3.38-1.04-3.86-3.17-1.06-2.75,2.7-3,3.08-.38.6-2.22.31-2.55,1.1-.98,2.36,2.33,1.59,2.67,2.75.66,2.23-.86,7.13.3,9.42,1.51,3,10.36.76,7.12-1.33l-3.42-.72-.08-7.81h3.95s0-2.62,0-2.62h-3.95ZM220.88,295.89c-4.94-5.2-15.88,2.68-9.28,3.7,2.67.42,2.82-4.67,4.81-3.19.35.26.94,4.33.69,4.59-3.56-.39-7.11.27-7.84,4.27,1.28,6.27,5.71,2.6,8.16,2.56.9-.01,3.83,2.23,6.24.39.3-1.53-1.54-1.9-1.83-3.09-.59-2.39.63-7.57-.95-9.24ZM299.79,295.22c-2.59-2.61-6.55,1.09-7.96,1.03-1.17-.05-2.68-1.89-4.71-1.88-1.47,0-2.46,1.1-3.37,1.16-2.38.15-5.32-1.64-7.46,1.19,3.59,1.2,4.04,9.71.66,11.17,0,1.26,6.66,1.57,7.55.33-2.79-3.39-2.91-12.7,3.32-9.9.49.72.48,6.88.27,8.12-.08.49-2.08.62-1.3,2.42h7.89c.5-1.71-1.7-1.47-1.98-2.44-.52-1.81.38-5.5-.01-7.62.31-1.06,4.18-1.81,4.53-.02-.36,2.48,1.74,9.06-1.87,8.12v1.97s7.24-.31,7.24-.31l-.7-9.72c-1.77-.71-1.35-2.87-2.09-3.62ZM316.68,297.4c-2.71-4.23-6.98-3.45-11.19-1.71-.26,9.38,4.05.81,5.31.66,2.84-.34,2.92,3.5,1.67,4.35-2.27,1.55-10.77-1.23-7.34,7.26,2.36,2.5,5.99-.06,7.9-.09,1.51-.02,3.99,2.15,6.62.35.46-1.7-1.71-1.51-1.98-2.44-.83-2.87,1.18-4.98-1-8.37ZM332.74,295.79c-.88-1.19-11.45-.89-12.13-.1l-.29,2.01c3.07-1.69,3.07,10.89,0,9.21v1.97s8.22-.65,8.22-.65c-3.21-2.81-3.26-7.06-.98-10.51l3.45,1.31c.67-.81,2.6-2.04,1.72-3.22ZM347.27,308.21c-2.12-2.65-1.15-10.7-2.95-12.48-2.72-2.68-15.04-.59-9.12,3.86l4.83-3.2.67,4.59c-2.55-.11-5.2-.29-6.9,1.97-1.19,4.55-.05,6.22,4.62,5.96,1.21-.07,2.15-1.09,2.61-1.1.89-.01,3.83,2.23,6.24.39ZM356.26,297.29c.54.34,1.25,2.13,2.52,2.37,4.76-6.56-10.08-6.82-9.54-.38.44,5.25,8.75,2.63,6.88,7.65-2.1.91-10.08-6.38-7.42.2,1.11,2.75,9.51,2.34,11.39-.2,3.69-7.48-8.99-5.58-5.9-10.53.85,0,1.4.48,2.06.9ZM407.86,306.8c-1.69-2.78,3.29-12.47-5.04-12.27-1.96.05-3.83,1.76-4.6,1.86-.35.04-.03-1.28-1.26-1.39-1.67-.15-3.36.26-4.93.78-1.06,2.82,2.25,1.77,2.62,3.03.15.51.14,6.41-.02,6.97-.26.91-3.55,1.36-1.99,2.79.98.55,16.36.84,17.76-.99-.59-.14-2.32-.43-2.53-.77ZM424.49,297.4c-4.53-4.92-14.11-3-14.11,4.57,0,13.26,23.48,5.62,14.11-4.57ZM451,295.89c-3.02-3.14-7.24.25-8.72.23-.68,0-2.16-1.54-3.93-1.6-2.19-.07-7.32,1.27-10.04,1.05l-1.47,1.14c3.28,1.21,2.52,8.97.66,11.18l7.21.98c-.04-4.04-3.76-12.07,2.88-10.55,1.01.36,2.45,9.42-.89,9.57l7.87.98c-2.02-3.22-3.16-7.09-1.05-10.58,3.55-2.87,4.5,3.13,4.41,5.66-.13,3.46-2.27,2.05-2.04,4.92h7.23c-2.15-2.93-.4-11.18-2.13-12.98ZM459.05,302.31l9.23-.3c2.21-4.36-3.06-7.67-6.95-7.62-8.82.11-11.17,17.8,3.67,14.2,1.91-.46,5.06-2.54,1.87-3.42-3.17,1.41-8.18,1.92-7.83-2.87ZM239.91,297.89c-4.47-6.7-19.37-1.74-13.87,8.29,3.84,7.01,19.98.87,13.87-8.29ZM260.27,302.48c.4,1.09.29,2.37.95,3.36,4.5,6.73,16.09,3.33,13.58-7.01-1.28-5.3-10.59-5.2-13.58-.72-.94,1.41-.06,3.79-2.04,3.55-.31,1.01.95.45,1.09.82ZM383.06,298.08c-6.48-8.37-19.14.06-12.41,9.45,6.57,4.71,18.5-1.57,12.41-9.45ZM178.31,299.68l-7.88,1.64c-.03,1.4,9.31,2.05,7.88-1.64ZM169.1,337.47c-1.02-3.92.76-12,0-16.43l-1.63-1-4.29.68,1.32,5.91c-11.52-2.29-14.91,15.59-2.34,14.44,1.01-.09,1.71-1.29,2.65-1.32.35-.01.29,1.26.78,1.34,1.92.33,4.17-.12,5.46-1.64-.34-.6-1.85-1.55-1.96-1.97ZM398.56,322.02l-6.77-.55-2.44,3.83,7.41-.12c1.41-.55,2-1.67,1.8-3.16ZM247.67,341.08c2.04.52,8.5,0,11.18,0,5.09,0,9.12-5.73,8.83-10.74-.69-11.98-20.96-7.95-20.98-6.67.83.86,1.73.5,2.01,1.96.26,1.36.25,11.09,0,12.52-.21,1.21-.74,1.17-1.71,1.62-.61.36.48,1.28.67,1.32ZM201.32,323.33c-4.51-.65-4.35,3.09-6.57,5.9,3.09.42.93,8.08,2.29,10.54,1.03,1.85,9.18,2.43,8.88-1.32l-4.31-.62c-.28-3.9-2.04-9.71,3.66-8.59v-1.97s-3.95,0-3.95,0v-3.95ZM172.74,338.1c4.36,6.84,18.41,2.63,13.96-7.05s-19.58-1.75-13.96,7.05ZM211.84,334.51l8.58-.27c2.34-10.31-14.18-10.08-13.77.53.29,7.52,11.93,9.57,13.73,2.37-3.61,1.09-8.08,2.69-8.54-2.63ZM228.28,337.8v-10.19l-6.58-.33c-.7,2.38,1.61,1.73,1.99,3.59.58,2.84-1.55,9.29,2.93,10.21,3.21.66,5.29-1.02,6.61-1.05s4.64,2.5,6.89.06c.86-2.38-2.64-1.57-2.64-2.63v-10.19l-6.56.99c4.58,2.03,3.8,12.56-2.64,9.53ZM282.84,334.51c1.05-13.91-18.6-7.21-13.13,4.08,1.75,3.28,13.5,4.41,12.47-1.45-3.19,1.95-8.1,1.84-8.54-2.63h9.2ZM289.42,326.62l-5.91,1.65c5.38,6.69-3.2,12.72,9.5,12.75.73,0,1.53-.99,2.01-1,1.53-.03,7.47,3.01,6.88-1.57-.13-.15-1.97.1-1.97,0v-10.85c-1.37-1.64-4.54-.04-6.59-.01-.68,1.77,1.53,1.28,1.92,3.99.26,1.8.16,3.65-.37,5.4-1.13,2.55-5.49.78-5.49-.18v-10.19ZM313.74,331.22c1.62-5.96-9.84-6.07-10.49-.91-.83,6.54,7.25,3.03,6.55,8.8-3.56,1.18-8.43-6.47-6.63,1.06,9.4,3.98,17.23-4.49,4.81-8.72l-.79-1.85c2.25-2.73,3.43,2.85,6.56,1.63ZM336.04,333.79c-.14-10.5-14.4-9.15-13.71,1.63.57,8.94,13.43,5.94,13.11,2.72-.15-1.54-3.88.78-5.95.04-1.75-.62-1.92-2.64-3.25-3.66l9.8-.73ZM361.08,339.11v-9.53c0-4.99-8.89-1.19-9.53-1.23-.79-.05-1.87-1.78-3.95-1.77-1.6,0-2.66,1.24-3.97,1.33-2.29.16-5.27-1.99-7.52,1.01l3.31,1.36c-.69,4.14,1.94,8.38-2.67,10.13l17.74.66c-1.37-2.96-3.08-9.73.99-11.2,2.39.07,2.82,9.61-.32,10.22l8.54.98c.39-2.57-.4-2-2.63-1.97ZM398.88,328.92c-4.81-5.27-15.78.36-8.63,2.87l3.96-3.15c4.7,6.54-.2,3.76-3.7,4.73-5.21,1.44-5.02,8.5,2.48,7.77,1.52-.15,2.36-1.34,3.25-1.39.32-.02,2.08,3.44,5.6,1.33.79-1.79-1.22-1.94-1.29-2.41-.58-3.52,1.15-6.65-1.67-9.74ZM416.12,339.57c8.94-7.63-7.29-18.78-12.59-9.63-4.99,8.61,6.62,14.73,12.59,9.63ZM378.18,327.29h-7.56s-.32,1.29-.32,1.29c3.07.09,6.04,12.03,6.66,12.41.37.22,3.02.28,3.44.13.72-.25,4.72-12.32,6.33-13.84h-5.25c1.07,3.23-.73,6.17-1.65,9.21-.66.26-4.53-7.79-1.64-9.2ZM425.37,337.91c-.74-1.17-3.79-2.06-4.8-.1-2.68,5.18,6.67,3.07,4.8.1ZM76.4,356.2c-.54.09-1.76-.15-1.95,0-2.41,1.9-3.56,45.21-3.3,51.26l5.25-51.27ZM166.47,391.04v-11.5l-1.52-.89c-2.29.05-13.11,13.59-11.64,15.01h8.55c.9,4.26-2.66,1.16-1.98,4.6h9.2l-2.63-4.6c4.51.28,4.29-2.98,0-2.63ZM343.32,379.23c-1.66-2.16-5.63,1.78-6.56,3.25,1.55,1.68,7.9-1.51,6.56-3.25ZM189.49,381.84c.43.58,0,12.44,0,14.46,0,.18-3.22-.16-2.63,1.97h8.54c.54-1.97-3.28-2.13-3.28-2.95v-9.53c2.7.42,11.89,13.01,12.81,13.12,4.23.51,1.48-14.21,2.27-16.65.25-.76,3.01-.37,2.67-2.04-2.25-2.38-5.69.25-8.54-.34-.42,2.27,2.5,1.14,3.17,3.07s-.25,5.84.1,8.1c-6.17-3.74-8.65-14.8-17.74-11.17-.58,2.07,2.52,1.82,2.63,1.97ZM222.36,379.87c-3.71-.43-10.37-2.45-9.85,3.28,3.79-1.61,8.7,2.15,9.85-3.28ZM298.62,380.52c-3.91-.14-3.61,3.38-6.57,4.93-.45,1.77,1.71.4,2.02,1.34.84,2.62-1.91,10.45,2.25,11.47,1.69.41,6.14.3,6.9-1.65s-3.65.16-4.5-2.05l.19-7.51,4.32-.95c.49-2.31-4.42-1.45-4.61-1.63v-3.94ZM224.98,396.31c-3.28-.4-1.62-4.85-2.03-7.51-1.43-9.2-15.76-3.28-11.15-.03,2.76,1.86,3.44-2.55,4.96-2.34,5.42,6.07-3.13,2.07-5.59,5.56-2.35,3.41-.65,6.62,3.62,6.31,1.58-.11,2.97-1.37,3.95-1.33,1.45.06,3.5,2.51,6.24.62v-1.29ZM239.87,396.72c8.37-7.52-6.61-18.43-12.57-9.61-5.91,8.75,6.48,15.09,12.57,9.61ZM274.96,398.27c-2.14-3.42.21-11.69-3.57-13.85-3.38-1.92-5.09,1.26-7.4,1.21-1.35-.03-2.16-1.71-3.81-1.76-1.26-.04-2.63,1.15-4,1.21-2.08.09-4.4-1.43-6.83.09-.77,2.36,1.57,1.68,1.95,3.55.34,1.64.83,9.06-1.98,7.58v1.97s8.54,0,8.54,0c.5-1.71-1.69-1.47-1.98-2.44-.34-1.18-.15-7.74,1.11-8.1l3.5.02c-.4,2.23.56,6.16,0,8.08-.28.96-2.43.71-1.98,2.44h16.44ZM289.5,395.6c-.1-5.5.92-12.23-6.79-11.65-4.75.36-7.63,5.34-3.1,5.47,2.79.08,1.69-3.22,3.55-2.97,1.07.14,2.04,2.84,1.66,3.94-4.11-.52-8.78.31-7.89,5.55.79,4.68,6.67,1.34,8.24,1.29,1.46-.04,6.73,3.17,6.23-1.57l-1.89-.04ZM316.64,388.82c-2.31-5.85-5.96-5.44-11.45-3.38-2.03,1.89.08,6.27,2.68,3.32.89-1.01-.12-2.25,1.57-2.36,3.16-.21,2.94,1.61,3.64,3.97-8.35-2.41-14.25,8.47-3.6,7.92,3.07-.16,3.3-.02,5.87.01,4.28.04,8.58-.1,12.85-.04.48-2.09-2.41-1.56-2.67-2.38-.54-1.72.47-6.01.04-8.13,2.63.19,4.02,2.9,5.28-1.03-.63-5.1-4.37-1.21-5.61-1.2-1.42,0-7.28-3.19-6.15,2.15,3.6-.58,1.22,6.03,1.87,8.62l-2.99-.62c-.82-1.89.13-4.31-.32-6.13-.11-.43-.93-.51-1.02-.73ZM345.43,396.17c-1.76-3.69,3.37-12.97-7.02-12.4-6.51.36-6.89,6.94-2.7,5.25.87-.35,2.49-7.04,5,1.02-5.14.13-6.31.63-9.22,4.62,2.39,5.72,4.96,3.02,9.39,3.1,2.48.04,4.71-.09,6.7-.06,2.82.05,13.63,3.46,12.2-4.32-.62-3.37-7.08-3.68-7.89-6.93,3.23-1.17,8.56,6.97,6.4-1.16-4.91-2.85-7.39-.65-10.99,2.48-.35,3.23,9.99,6.6,7.87,8.53-2.99.32-4.36.08-5.65-2.67-2.26.46-2.56,1.02-2.24,3.33-.39-.24-1.8-.69-1.84-.78ZM178.97,391.69l-1.09-2.51c-10.87-1.35-7.76,5.47,1.09,2.51ZM362.51,394.43c-1.53.93-.81,4.48,2.2,4.21,4.65-.41,1.65-6.55-2.2-4.21ZM70.25,438.16c.78-5.36,2.08-11.87,2.23-17.19.06-2.18.73-6.41-1.33-7.58-1.01,15.82-6.75,31.88-5.91,48.29.23,4.43,1.75,9.79,1.98,14.45.42,8.62-.37,17.36-.02,25.98l1.31-.97c-.39-6.64.83-13.14.69-19.76-.2-9.17-2.47-18.39-2.03-27.6.26-5.33,2.45-11.27,3.08-15.63ZM278.24,435.07l-5.92.67,1.31,5.9c-8.8-2.79-13.95,10.49-5.74,13.99.66.28,11.91-.4,12.29-.88.77-2.36-1.56-1.68-1.95-3.55-.46-2.23.7-15.43.02-16.13ZM305.86,435.08l-6.57.66c-.48,2.09,2.41,1.56,2.67,2.38.23.72.24,13.97-.14,14.6-.33.55-2.49.4-2.54,1.09-.19,2.74,6.81,1.32,8.56,1.63v-1.97c-.14-.16-1.98.1-1.98,0v-18.4ZM168.45,439.02l-1.08-3.19-10.61.71-2.07,7.99c.77,2.14,10.48-.23,9.17,5.98-1.08,5.15-8.47-.13-9.21.34-1.4,3.45-.29,3.99,3.01,4.53,13.59,2.25,16.25-14.44,1.29-12.41-2.73-5.7,8.78-3.24,9.49-3.96ZM389.35,436.4c-4.2-3.16-10.25,5.43-4.4,3.81.28-.08,4.72-2.73,4.4-3.81ZM207.89,438.35c-.33-3.77-5.26-.52-7.88-1.96-.85,2.94,1.91,1.4,2.54,3.03.75,1.95-.1,5.41-.24,7.48-4.43-5.27-7.41-11.76-15.45-9.85-.29,2.36,2.35,1.07,2.68,2.91.19,1.07.2,12.49-.01,13.11-.28.8-2.27.33-2.66,1.39-.09,1.45,8.57,1.48,8.52,0-5.06-1.56-3.18-6.53-2.95-10.84,2.18-.17,9.14,11.72,12.48,11.83,3-.72-1.55-16.31,2.97-17.1ZM221.7,437.05c-4.23.2-9.55-3.04-10.51,3.28,4.05-2.55,9.13,2.59,10.51-3.28ZM315.06,438.36l-3.88.08-2.71,4.85c4.25.19.64,7.92,2.31,10.86,4.32,3.92,13.8-1.28,4.27-1.98v-7.89c2.91-.13,4.57,1.16,3.95-2.62h-3.95s0-3.29,0-3.29ZM223.51,452.94c-.14-.24-1.42-.31-1.7-1.18-1.49-4.66,3.18-11.17-6.36-10.82-7.4.27-5.25,7.63-1.42,4.71.73-.56.53-3.01,2.07-2.67,6.01,7.82-10.91,1.43-5.32,11.89,2.87,2.26,5.92-.71,7.29-.75.32-.01,1.99,2.96,5.57.65.03-.6.2-1.25-.13-1.82ZM249.49,449.05c-2.07,2.47-.82,6.24,2.45,6.78,2.01.33,3.45-1.56,5.05-1.54,1.44.02,4.14,2.86,6.14.16-2.48-3.06-.53-6.94-1.61-10.21-1.85-5.58-14.72-2.76-12.11,1.26,2.48,1.41,3.63.14,3.92-2.45,3.6-.77,3.41,1.65,3.22,4.52-1.78-.19-5.89.09-7.06,1.48ZM324.93,448.88l8.58-.29c3.36-10.09-13.02-10.13-13.1.03-.06,7.94,9.93,9.93,13.72,3.55-3.69-.17-8.58,2.03-9.2-3.29ZM347.18,441.75l-11.74.91c1.65,2.61,1.8,7.41,1.3,10.37-.08.49-2.08.62-1.3,2.42h8.55s-.04-1.92-.04-1.92c-4.34.14-2.47-6.42-1.93-9.25,1.21-.79,6.11,4.54,5.16-2.54ZM361.2,452.7c-.49-2.92.76-8.23-1.73-10.43s-10.66-1.22-10.27,2.32c3.36,5.83,6.19-8.08,7.28,2.97-7.9-2.47-11.37,8.59-2.96,7.95,3.77-.28,3.18-.08,6.58-.01,3.69.08,7.97-.46,11.78-.04,1.6-2.03-1.23-1.81-1.61-3.6-.23-1.1.08-7.21.68-7.58,5.12,5.67,7.46-3.58,2.35-3.3-1.23.07-2.29,1.36-3.34,1.36-.31,0-.33-1.29-.61-1.27-.98.05-6.04.92-5.32,2.57,4.17,1.83,3.2,13.74-2.83,9.07ZM390.09,452.78c1.4-9.48-2.53-14.77-11.98-10.03-.37,8.9,3.96.27,4.42.16,2.6-.61,4.02,2.35,2.26,4.37-7.75-1.2-11,8.81-2.33,8.24,1.38-.09,2.32-1.32,3.14-1.25,1.29.11,3.64,2.44,6.36.49v-1.94s-1.88-.04-1.88-.04ZM401.27,445.49c1.85,1.01,3.38-1.51,2.25-3.22-3.28-2.18-7.07-1.33-10.28.46-2.53,6.54,2.77,5.93,6.35,8.06,2.55,1.51-.13,3.36-2.55,2.58-1.84-.59-1.73-3.91-4.4-3.17l.08,4.52c4.82,1.51,13.18,1.61,12.25-5.04l-7.69-4.46c1.08-5.72,3.67.1,3.99.27ZM239.91,444.47c-3.12-4.61-14.46-4.33-14.96,3.44-.87,13.63,21.86,6.77,14.96-3.44ZM291.88,452l-4.14.2-.91-10.27-6.62.38c-.6,2.2,2.31,1.16,2.66,2.42.95,3.42-2.16,10.2,3.58,11.26,2.31.42,5.08-1.41,6.5-1.22.42.06.39,1.3.83,1.37.82.13,4.39-.83,4.83-1.67.57-2.21-1.7-1.42-2.01-3.28-.26-1.61,1.58-8.66.7-9.53-1.63-.2-9.25.16-7.22,2.6,4.21-.2,2.58,5.09,1.79,7.75ZM175.56,446.42c-11.58.75,3.6,7.08,3.11.46-.92-1.05-2-.54-3.11-.46ZM408.9,450.95c-2.07.53-3.53,3.52-.66,4.38,5.13,1.55,5.26-5.57.66-4.38ZM299.28,495.22c1.17,3.68-.87,13.64,0,18.08,14.83,4.41,22.16-16.71,4.61-13.81v-7.23s-6.58.67-6.58.67c-.63,1.81,1.7,1.45,1.97,2.3ZM168.39,493.63c-10.1-3.98-20.14,12.09-11.35,18.25,11.45,8.01,20.34-14.79,2.85-12.07-.17-1.31,2.03-3.65,3.28-4,2.98-.85,6.16,2.57,5.22-2.18ZM355.16,493.59c-1.25-1.74-5.1,1.7-5.9,2.95,0,2.44,7.43-.81,5.9-2.95ZM207.24,511.65c1.03-3.58-.77-11.94,0-16.1,2.23.03,3.03.6,2.63-1.97l-8.54.98c5.06,1.56,3.18,6.53,2.95,10.84-2.02.41-12.02-18.76-17.44-10.19.08.62,2.92.04,3.31,2.68.09.61-.52,11.79-.75,12.37-.45,1.11-1.58,1.04-2.55,1.07,1.47,2.48,5.88.88,8.54,1.3.31-2.22-2.66-1.59-3.2-3.04-.72-1.96.33-6.45-.08-8.78,1.94-2.12,10.79,12.81,13.38,12.4.36-.06,1.66-1.3,1.74-1.56ZM222.36,494.24c-3.84-.65-9.18-1.9-9.86,3.28,3.69-1.6,9.93,2.23,9.86-3.28ZM221.53,499.67c-4.11-3.45-17.64,1.53-7.14,3.68l1.71-3.16c2.05.64,2.35,2.18,2.32,4.22-.22.78-8.87-.19-8.54,5.22.42,7.02,8.59,1.54,9.48,1.65.37.05,2.51,4.35,6.28.37l-2.63-.97c-.14-2.68.7-9.17-1.48-11ZM231.39,498.99c-6.69,1.33-7.93,11.08-1.41,13.59,13.25,5.09,16.68-16.62,1.41-13.59ZM256.55,502.12c4,3.55,7.23-2.06,4.16-3.21-.63-.24-11.02.16-11.4.58-1.58,1.73,1.78,2.02,2.04,2.35,1.07,1.4.43,6.69-.19,8.38-.48,1.31-2.35.52-1.84,2.4h8.54c.7-2.38-1.6-1.73-1.99-3.59-.46-2.22.42-4.73.67-6.92ZM276.06,501.02c-5.27-6.12-19.26.24-12.95,9.33,5.65,8.14,19.83-1.35,12.95-9.33ZM290,501.51c.05,2.85,1.35,9.31-3.52,8.54-3.32-.52-.74-8.15-1.95-10.59l-6.28.04c-.46,1.71,1.7,1.49,1.98,2.44.88,3.03-1.84,9.05,2.76,10.87,3.87,1.53,4.82-.86,7.45-.9.58,0,2.87,2.87,6.15,0,.78-2.84-1.07-1.44-1.72-2.03-1.85-1.69-.39-8.58-.19-11.04l-6.58.66v1.97s1.9.04,1.9.04ZM332.81,501.46c.4.54-.29,7.69,0,9.2l-3.85-.1-.86-9.98c-1.8-3.26-14.36-1.94-11.62,2.09,2.44,3.59,3.78-3.91,7.17-1.58l.62,3.65c-4.05-.43-11.02,1.14-8.2,6.56,2.25,4.34,7.12.03,8.52-.01.32,0,.43,2.02,2.64,1.94,1.08-.04,2.02-1.06,2.71-1.05,1.51,0,9.34,1.49,9.43-.53-4.57-3.11-1.43-1.76-1.29-2.73.33-2.29-.26-5.09,0-7.46,4.07,4.77,9.27-3,1.04-2.62-1.28.06-2.33,1.26-2.71,1.31s0-1.32-1.27-1.4c-1.53-.1-3.32.94-4.96.74-.58,2.07,2.52,1.82,2.63,1.97ZM358.28,510.8c-.13-.22-1.42-.33-1.69-1.2-1.74-5.53,3.22-12.95-8.94-10.72-6.99,1.28-1.85,8.86,1.94,1.92,6.76,5.6-2.63,2.92-4.98,6.2-2.81,10.45,7.36,4.25,8.17,4.39.72.12,1.17,1.64,2.68,1.85s3.84-.65,2.83-2.45ZM370.19,499.59c-4.15-1.98-13.24-.9-9.79,5.52,1.47,2.74,6.65,2.17,6.63,4.56-.04,5.05-7.12-2.52-7.91-1.63-1.58,8.2,14.98,6.81,11.48-1.31-1.08-2.51-6.43-2.23-6.89-4.94-.66-3.87,5.33,2.95,6.58,1.64l-.09-3.85ZM178.97,503.44l-7.22.68-.02,2.6,6.62-.29.62-2.99ZM378.09,512.55c1.93-3.31-2.59-5.33-5.16-2.53.56,1.45,3.88,4.73,5.16,2.53ZM70.48,514.61h-2.62c.34,7.67-1.75,15.79-2,23.31-.39,11.91,1.78,23.28,1.32,35.5-.54,14.56-.93,29.24-1.98,43.92-.51,7.17-1.82,16.35-1.98,24.43-.06,3.28-.83,11.88,3.81,6.53-.32-10.21-.19-20.62.14-30.84.47-14.56.39-30.96,2.03-45.18,1.42-12.31-.98-15.31-1.38-27.06-.24-7.11.37-17.33,1.29-24.4.1-.73,2.71-3.43,1.36-6.2ZM492.33,576.84c1.64-14.21.23-22.07.21-35.64,0-3.61,2.13-21.72,1.03-23.31-.62-.9-1.37-.67-2.31-.65-1.2,10.61-1.42,21.22-1.35,31.91.03,4.72,1.55,11.17,1.4,15.74-.3,9.19-3.12,19.89-3.37,30.22-.37,15.21,2.87,30.94,1.98,45.36-.41,6.73-2.4,12.76-1.98,19.76.12,2,.48,10.07,3.32,7.8-.69-7.34-.88-14.15.02-21.49,1.92-15.73.15-18.86-.71-33.64-.69-12.04.46-24.8,1.76-36.06ZM265.75,567.86c-.96-.04-2.04.04-2.49-1.06-.97-2.33,1.3-15.2.23-16.74l-5.61.38.65,5.57c-7.54-1.88-13.06,9.9-6.55,13.43,3.55,1.93,3.93-.02,6.3-.07,2.22-.05,4.68,1.21,7.1-.18l.38-1.34ZM335.92,550.27c-2.58-2.37-7.93-.15-9.73,2.26-.15.2-1.97,4.23-1.99,4.47-.2,2.03,1.31,1.33,1.43,2.59.31,3.48.2,7.12-1.36,10.22h8.54c.54-2.21-1.95-.73-2.54-2.38-.71-1.98.33-6.44-.09-8.79l3.3-.31.64-2.31h-3.94s1.66-4.6,1.66-4.6c2.23,3.6,6.88,1.42,4.09-1.15ZM355.82,549.45l-5.53.65c-1.39,1.72.79,1.44.97,3.54.27,3.12.41,10.98,0,13.93-.21,1.54-1.86.3-1.37,2.25h8.54c.87-1.85-2.63-1.79-2.63-1.97v-18.4ZM272.88,550.87c-.85-1.35-5.79-.96-5.08,2.06.79,3.34,7.38,1.57,5.08-2.06ZM294.03,554.7c1.55.63,6.18-2.08,5.91-3.6-.51-2.88-6.85,1.55-5.91,3.6ZM167.58,552.28c-.26-.25-2.98-1.4-3.45-1.47-13.85-2.06-13.41,15.34-.27,12.11-1.17,3.78-5.33,5.69-9.21,4.93-.05,6.27,11.46.03,13.16-2.47,2.12-3.12,2.58-10.38-.23-13.1ZM203.95,553.39c.54.95-.4,7.45,0,9.2l-9.87-10.83c-1.2-.84-8.85-.47-7.88.97l3.33,1.62c.19.96.19,12.47,0,13.09-.26.82-3.14.3-2.67,2.38l7.9-.31c2.05-1.13-2.64-1.94-2.64-2.64v-9.53c3.08,1.01,10.45,13.49,13.4,12.45,2.81-3.65-.21-12.22,1.15-15.99.59-1.65,3.08-.17,2.54-2.38h-7.88c-.8,1.96,2.43,1.62,2.63,1.97ZM222.36,551.42c-3.84-.65-9.18-1.9-9.86,3.28,3.16-2.24,10.07,1.61,9.86-3.28ZM221.55,556.83c-4.27-4.01-15.3,1.52-9.23,3.66,3.21,1.13,2.27-2.14,2.82-2.49,1.95-1.27,3.24,2.2,2.62,3.94-8.08-1.27-12.12,9.15-1.68,7.85.99-.12,1.77-1.16,2.71-1.3.33-.05,3.48,2.84,6.2.67.63-2.17-1.74-.73-2.02-1.66-.74-2.48,1.02-7.75-1.42-10.66ZM227.83,557.55c-5.77,4.55-1.54,13.94,7.97,12.24,12.77-2.29,2.22-20.27-7.97-12.24ZM272.98,556.02c-1.26-.24-6.88.2-6.58,2.29,2.83-.66,2.39,6.65,1.99,8.57-.42,2.04-2.4.88-1.98,2.93h7.88c.49-1.17-1.31-2.01-1.31-2.3v-11.5ZM281.36,556.23c-2.03-.22-3.18.11-5.09.45-.66,2.07,1.23,1.62,1.36,2.91.19,1.74.23,6.3,0,7.98-.21,1.54-1.86.3-1.37,2.25h8.54c.48-2.09-2.41-1.56-2.67-2.38-.31-.98-.54-8.29,1.57-8.04,3.37,2.73,6.09.07,3.29-3.41-2.5-.77-3.99,1.33-5.14,1.37-.33.01-.36-1.11-.5-1.13ZM300.9,559.01c-3.08-5.56-12.81-3.03-11.42.55,1.62,4.19,4.01-1.49,4.3-1.61,2.87-1.15,3.79,1.49,3.54,3.98-4.4-.36-10.45,1.51-7.96,6.97,2.95,2.68,6.3.05,8.29-.39.54-.12.12,1.23.76,1.31,1.89.24,5.69.58,5.48-1.97-3.8.26-.84-4.97-2.98-8.85ZM314.96,556.78c-13.74-3.03-13.39,6.02-1.89,10.09-3.8,4.44-11.19-7.14-7.91,2.67,3.26.47,10.98,1.5,11.13-3.31.17-5.37-7.77-5.27-7.82-6.6-.17-4.32,6.21,1.47,6.58.99l-.09-3.84ZM347.36,567.81c-.49-6.7,2.2-12.34-7-11.82-7.94.45-4.99,6.19-1.62,4.31.72-.4.84-2.43,2.31-2.35,1.69.62,2.72,2.19,2.29,3.99-4.71-.55-12.25,1.74-7.61,7.28,3.22,2.15,6.22-.66,7.97-.69.26,0,.27,1.23.74,1.29,1.68.2,4.96.57,4.82-1.95l-1.89-.04ZM370.19,556.77c-1-1.61-13.41-1.77-10.09,5.17.91,1.91,8.55,3.22,6.9,5.9-3.59,1.51-4.45-.93-6.89-2.62-4.69,7.24,15.82,6.72,10.23-2.19-1.78-1.8-7.84-1.94-6.29-5.05l5.26,2.62c.95-.12,1.37-3.05.89-3.83ZM373.92,566.84c4.02,6.33,17.98,3.8,13.62-7.36-3.18-8.12-19.24-1.49-13.62,7.36ZM178.96,561.28c-.6-.12-8.79-.23-7.88,1.63,1.65,1.76,4.64.93,6.79.89l1.09-2.52ZM287.45,585.93c.52,1.39,0,12.18,0,14.79,0,.15-2.58-.16-2.63,1.31h8.54c.63-2.18-1.74-.74-2.01-1.67-1.08-3.63.27-11.11,5.33-7.08.12.41.14,6.7.02,7.08-.28.93-2.65-.51-2.02,1.67.5.09,8.96,1.27,7.89-.97-4.27-.55-1.76-4.3-2.02-7.13-.58-6.31-4.34-6.48-9.15-3.72v-7.89s-6.29.62-6.29.62c-1.62,2.85,1.82,1.61,2.34,3ZM160.56,588.89c.93-8.93-7.01-.21-6.58,1.63.14.59,1.75.66,1.99,1.46.66,2.21-.85,7.34.31,9.39,2.58,2.13,8.61,2.35,8.22-1.97l-4.02-.39-.58-7.51c2.35.08,5.08.58,4.6-2.62h-3.94ZM200,584.94l-3.31.31c-1.26,2.2-.71,4.22-3.92,4.31l.39,1.36c4.62.32.76,7.52,2.84,10.67,1.25,1.9,6.99,1.07,8.6-.55l-.33-1.64h-4.27s0-7.89,0-7.89l3.96-.38-.02-2.9-3.94.66v-3.94ZM178.12,590.39c-4.51-4.71-12.87-1.2-12.99,5.42-.14,8.05,8.19,8.88,13.53,4.93l-.7-2-7.42.54-.79-2.83,9.25-.63c1.38-.97.05-4.47-.88-5.44ZM191.37,589.63c-11.74-3.99-15.81,6.01-2.54,9.12-1.31,5-6.37-1.42-6.9-1.31l-.69,3.96c4.72,2.38,13.47,1.5,10.16-5.57-8.09-3.13-9.51-7.98.06-2.37l-.09-3.85ZM218.42,596.12c2.14-11.03-12.86-9.93-13.08-.27-.25,11.02,15.83,6.94,12.41,2.9-3.2.74-7.97,2.17-7.23-2.63h7.89ZM220.39,602.03h17.09c-2.13-3.16-2.86-13.13,3.33-9.45-.36,2.07.46,5.22-.13,7.07-.39,1.22-2.44.48-1.87,2.37h8.54c-4.62-3.04.89-10.06-4.99-13.07-3.68-1.89-4.77.59-7.25.59-1.5,0-2.19-1.2-3.24-1.29-1.74-.15-4.06,1.42-5.18,1.32-.37-.03-.37-1.35-.75-1.35-.43,0-4.69.84-4.89.99-2.39,1.71,1.15,2.83,1.33,3.44.6,2,.56,8.37-1.98,9.39ZM263.12,600.06c-.29-.46,0-9.19,0-10.85l-1.34-.71-5.22,1.37c2.98,1.38,2.8,9.85-.36,10.22-4.38.52-.96-8.27-2.9-10.95-.79-1.42-6.57-.13-6.61.73,3.9,2.47.45,8.37,3.09,11.53,2.39,2.88,5.14.78,7.82.7s5,1.37,8.14-.74c.13-1.22-2.47-1.06-2.62-1.31ZM272.22,588.3c-.27-.13-5.25.62-5.81,1.58-.54,2.21,1.61,1.39,1.98,3.26.23,1.15.2,5.95,0,7.15-.12.66-1.97.01-1.32,1.74h7.89c-3.29-3.32-3.46-11.15,2.92-9.87.36,3.37,1.69,7.87-1.6,9.86l7.24.36.53-1.56c-2.85-1.49.14-7.41-2.22-10.57-3.14-4.19-8,0-8.51-.05-.55-.06-.8-1.75-1.08-1.89ZM310.96,588.35c-9.29.86-9.5,13.87-.75,14.79,12.8,1.34,12.04-15.84.75-14.79ZM322.48,602.47c6.57,1.57,3.8-7.82-1.48-2.38-.53.67,1.34,2.35,1.48,2.38ZM297.31,648.04l.03-6.92-5.94,1.34c.41.68,1.73.66,1.97,1.46.9,3-1.04,14.77.28,16.66,4.62,1.61,13.44.75,14.17-4.96.99-7.74-3.46-10.79-10.51-7.58ZM312.92,640.91c-4.88.58-1.82,6.95,2.17,4.21,1.61-1.11.38-4.51-2.17-4.21ZM161.22,658.56v-15.45c0-.17.75-.53.37-.99-1.6-2.52-12.87,3.36-4.97,3.28-.51,3.63.65,8.81.05,12.2-.33,1.85-2.97.55-2.68,2.92h10.52l-.68-1.64-2.61-.33ZM178.76,642.99c-1.22-1-4.92-1.66-6.62-1.48-11.2,1.22-8.8,22.57,3.56,19.36,6.74-1.75,6.85-14.75,3.06-17.88ZM233.53,642.13c-3.56.94-6.52-1.64-9.73.77-2.27,3.87,5.41,1.55,7.97,2.41l1.76-3.19ZM371.6,641.47c-3.05-.33-5.43,1.39-5.25,4.59.49.51,6.43-2.33,5.25-4.59ZM201.32,645.08c.53,1.57,0,10.87,0,13.47,0,.18-3.5.12-2.63,1.97l7.49.02.39-1.98c-.14-.16-1.97.1-1.97,0v-9.86c3.91,3.35,7.66,12.51,13.15,11.83v-16.43c0-.18,3.22.16,2.63-1.97h-7.55c-1.42,1.98,2.3,1.79,2.3,1.97v9.2c-5.54-3.15-7.46-13.8-15.79-10.86-1.46,1.34,1.72,1.86,1.98,2.64ZM233.84,649.72c-1.9-3.43-3.67-3.58-7.71-2.83-6.62,1.24-2.77,6.45-.45,4.81,1.03-4.74,4.92-3.07,4.56.93-4.59.32-10.62.76-7.95,6.97,3.14,3.48,6.26-.31,8.31-.36.32,0,2.35,4.1,5.56.96,1.52-1.24-1.06-1.18-1.33-2.12-.83-2.91,1.04-4.7-1-8.37ZM242.55,646.87c-8.45,1.89-6.67,16.39,4.17,14.04,9.62-2.08,7.57-16.67-4.17-14.04ZM273.64,657.25c-7.74,1.93-11.27-3.5-5.59-8.55,2.19,7.06,8.43,2.24,4.27-.98-12.09-6.18-17.24,14.26-3.8,13.33,2.16-.15,5.42-1.09,5.12-3.8ZM275.17,657.69c3.02,4.68,13.37,5.06,14.75-1.59,3.32-15.96-21.32-8.61-14.75,1.59ZM315.06,646.73c-1.41.31-5.22.37-5.91,1.65-1.2,2.2,1.79,1.28,2.01,2,.68,2.23.32,8.29-2.03,9.82.15.76,10.48.62,9.21-.97-.91.23-3.29-.95-3.29-1.65v-10.85ZM327.45,649.46l2.37,3.16c3.39-1.9.58-5.21-2.1-5.78-11.22-2.36-13.14,16.36-.55,14.3,1.15-.19,4.32-2.14,4.31-2.92-.03-1.88-4.78-.06-6.08-.43-3.71-1.06-3.26-10.3,2.05-8.34ZM347.28,648.69c3.72-.55,3.06,9.47,2,10.25h-2.03c-5.31-1.63,3.33-13-8.86-12.26-5.96.36-5.85,5.27-2.75,5.19,2.47-.06,2.17-4.22,4.08-3.16,1.24.68,1.18,2.66.92,3.87-3.79.19-10.3,1.75-6.81,6.62,2.84,3.97,5.55.81,7.32.82,1.18,0,1.98,1.09,3.14,1.08,3.94-.01,8.69-1.16,12.85-.57.48-2.09-2.41-1.56-2.67-2.38s-.5-8.12,1.32-7.8l4.02.7c2.43-7.67-3.79-3.03-5.63-2.97-.35.01-.28-1.24-.78-1.35-1.27-.29-5.3.58-6.13,1.97ZM373.22,649.72c-4.09-6.36-13.64-1.24-11.46,1.58s7.58-8.11,7.86,2.01c-4.64-.5-10.62.25-7.94,6.29,3.1,3.63,6.09.07,8.27-.37.31-.06,2.1,3.24,5.58,1.3.64-2.08-1.2-1.6-1.37-2.91-.42-3.37,1.01-4.83-.96-7.9ZM387.38,651.33c1.74-6.76-9.79-5.34-10.34-.9-.64,5.19,8.71,4.51,7.7,7.79-1.15,3.75-6.51-2.35-6.9-2.27-4.87,7.34,10.33,6.2,11.5,1.48,1.08-4.38-10.58-6.17-7.87-8.72,1.97-1.86,4.59,4.13,5.91,2.62ZM190.15,651.99l-5.48.1-1.09,2.52h6.57s0-2.62,0-2.62ZM392.41,656.67c-2.2.85-1.09,4.75,1.71,4.43,4.39-.5,2.05-5.88-1.71-4.43ZM323.61,665.79c2.25.05,5.34.61,5.91-2.28-2.77-2.93-6.41-1.89-5.91,2.28ZM490.6,675.65c-5.33,2.27-1.47,11.93-1.28,16.73.25,6.21-1.96,10.9-2.02,15.85-.03,3.02,1.82,4.29,2.62,1.24.48-1.84,2.85-14.2,2.64-14.95-.15-.53-1.2-.26-1.34-1.41-.69-5.5-.46-11.89-.61-17.46Z" fill="#fff"/>
  <path d="M4.74,718.37l26.96,1.97c2.54-2.45-11.84-10.88-11.84-14.45,4.42-2.44,17.54,10.36,19.64,7.14.26-.81.21-1.58-.11-2.37-1.64-3.99-9.05-11.65-11.64-15.79-.73-1.18-2.34-4.01-1.63-5.43,8.65,3.91,18.55,10.66,22.09,19.65,7.41,1.03.44-5.26-.97-7.87-1.11-2.05-1.6-4.34-2.4-6.5,11.06,4.63,7.95,13.38,8.96,23.07,1.28,1.48,10.85,1.53,13.62,2,7.93,1.33,14.76,3.42,23.1,3.17,7.86-.23,15.29-3.36,23.04-3.91,16.14-1.15,31.98,4.35,47.99,5.23,17.88.98,30.5-2.52,47.39-4.52,19.84-2.35,36.22,5.88,55.85,4.56,10.97-.74,21.28-5.82,32.19-6,9.07-.15,18.78,2.81,27.59,3.36,9.55.6,19.19-1.58,28.29-1.39,13.2.27,26.83,5.34,40.44,2.69-3.54,4.69-9.27,8.48-9.2,15.11l9.28-11.42,12.76-8.94c.99-.16,1.15-.04.96.96-.12.66-5.13,7.32-6.02,9.1-1.19,2.38-2.7,5.92-3.1,8.58,1.15,3.6,9.52-5.93,11.16-7.09,2.04-1.44,4.12-2.86,6.51-3.67.31.36-4.21,7.27-4.71,8.14-.12.21-4.32,3.49-.86,3.72.9.06,10.33-4.55,13.29-5.13,2.3-.45,4.66.1,6.96-.27l1.1-2.52c-5.38-1.29-9.95.97-15.12,1.96-.71-.65,5.42-8.62.98-9.22l-13.81,7.89,6.07-9.85c10.73.39,22.16-3.11,32.75-2.64,10.17.45,20.76,5.23,31.55,5.92,9.16.59,19.1-.26,28.06-2.16,4.6-.97,31.56-8.9,33.08-11.63.52-.93,1.32-7.35,2.36-9.99.21-.54,1.13-.67,1.43-1.37,2.63-6.07,4.73-10.61,9.39-15.56l1.61.3c-.84,3.78-2.68,6.95-3.77,10.7-1.02,3.53-1.41,7.24-2.22,10.81-.09.41-2.92,3.33-.86,5.82,3.77,1.9,3.26-3.52,4.65-5.79,1.95-3.17,10.99-12.83,14.36-13.98.33-.11,1.07-.18.97.32,0,3.63-13.56,14.89-10.44,19.99,12.39-3.2,25-7.83,38.06-5.2v131.46H4.74v-118.97ZM200.66,730.21c-6.11.12-12.78-1.77-18.72-2-9.37-.37-18.63,2.19-27.64,1.34-4.32-.41-10.76-3.02-15.23-3.68-9.07-1.34-34.97-1.05-44.6-.25-4.23.35-8.97,2.31-13.17,2.6-2.92.2-18.25-1.77-18.72.36.02,1.53,1.99,1.91,3.12,2.13,11.84,2.27,21.08-1.45,32.06-1.79,10.15-.32,25.19-1.11,34.86-.7,8.26.36,16.07,4.34,24.27,4.65,5.09.19,9.67-1.27,14.47-1.38,9.88-.23,19.48.95,29.29,1.34v-2.62ZM363.68,731.57c-.52-.67-14.94-3.18-16.73-3.34-6.6-.57-12.41,1.66-19.09,1.34-15.71-.76-30.94-3.76-47.15-1.82-1.72.2-10.76,1.35-7.99,3.81,1.18,1.04,15.45-1.29,18.32-1.38,12.03-.39,22.07,1.55,33.53,2.02,7.55.31,15.07-1.02,22.37-.67,5.61.27,11.1,2.55,16.78,1.96-.09-.55.16-1.66-.04-1.92ZM531.92,728.33c-6.27-3.31-12.91-.05-19.29-.05-10.41,0-14.53-1.75-26.11.14-11.32,1.84-17.51.1-27.83,1.1-1.31.13-4.09.04-3.58,1.99,6.9-.07,16.13,2.2,22.64,2,5.56-.17,11.32-3.4,16.47-3.96,5.8-.63,9.91,1.1,15.1,1.35,8,.38,14.77-2.24,22.71-.03l-.11-2.52ZM91.44,739.48c-6.8.09-13.8,1.23-20.62.58-12.66-1.22-23.23-3.98-36.86-2.65-1.15.11-2.13-.18-2.91,1.02-.24,3.69,21.45,1.56,23.32,1.65,7.17.34,15.73,3.27,22.36,3.33,4.51.04,9.6-2.04,14.36-1.46l.34-2.47ZM525.32,737.63c-3.1.29-6.09,1.34-9.08,2.09v1.34c5.29.24,10.72-.46,16.14-.36,7.56.14,17.68,1.74,24.96,1.4,1.19-.06,2.18.09,2.94-1.05-5.98-4.67-13.71-2-20.05-2.25-5.38-.21-8.94-1.74-14.92-1.17Z" fill="#fff"/>
  <path d="M486.24,123.94c5.1,4.15,12.52,8.78,16.88,13.03,6.02,5.87,7.48,15.19,10.2,22.65,7.4,20.32,12.32,39.86,15.4,60.99,4.61,31.61,2.24,59.75,2.63,91.25.16,12.74,1.59,21.92.63,34.12-5.16,66.01,8.87,130.26,1.99,196.54-2.25,41.07,3.94,86.29.71,126.91-.48,6.02-4.05,9.36-4.61,15.77-.65,7.49,1.16,15.77.95,23.36l-25.95,8.5c-1.37-1.37,1.39-28.87,1.37-33.21-.07-11.89-3.29-23.85-2.71-36.17,1.29-27.51.59-55.36,2.6-82.83.95-12.9.79-26.88,1.42-40.02,1.78-37.4,1.42-75.05,2.6-112.41.6-18.9-1.38-36.17-1.98-54.59-.69-21.19,5.28-39.13,3.31-59.29-2.24-22.86-3.17-47.05-5.27-69.01-1.17-12.28-.57-35.81-3.87-45.95-3.85-11.83-6.69-26.47-14.67-35.97-7.89-9.39-20.86-25.21-30.85-31.6-12.9-8.24-22.82-9.47-37.26-12.71-29.01-6.5-54.93-18.42-85.97-20.53-7.92-.54-15.76.86-23.68.67-14.8-.36-29.78-3.36-44.66-3.34-18.23.03-36.08,5.66-54.27,4.96,3.45-.96,6.98-1.97,10.52-2.64,50.65-9.58,123.47-10.12,173.61,1.95,28.88,6.96,68.16,21.04,90.94,39.56ZM384.75,86.06c-6.55-1.51-14.71-3.15-21.39-3.29-1.52-.03-3.16-.47-4.24.98.77.98,1.8,1.37,2.99,1.6,3.94.75,15.12,1.98,19.06,2.03,1.31.02,3.05.32,3.58-1.32ZM491.5,142.35c-1.54-1.88-1.84-5.67-5.17-5.03l-.35,1.65,16.4,23.2c2.7,4.35-.05,14.67,5.97,15.25.32-.36-.49-6.99-.7-8.05-2.26-11.45-8.91-18.21-16.15-27.01ZM516.9,220.14h-1.97c.68,12.42,1.28,24.77-1.37,37.02l1.7,1.09c.78-.25,1.32-2.28,1.48-3.11,1.85-10.13,1.78-18.24.19-28.24-.34-2.11.18-4.6-.03-6.77ZM523.47,256.29l.6-7.45c-2-5.58-7.34,9.31-.6,7.45ZM518.21,357.52l-2.52,1.09c-.53,1.39.07,15.85.66,17.53.35,1,1.49,1.13,2.2,1.73,2.55-.34-1.5-17.71-.34-20.35ZM517.15,504.32c-.45,3.05-1.41,6.2-1.59,9.28-.21,3.76-.07,13.66.69,17.11.52,2.4,2.86,2.3,3.27,0l1.97-84.46c-1.57.95-1.81,5.09-1.95,6.91-1.4,17.65.23,33.41-2.39,51.15ZM523.23,578.15c1.87-12.03.44-16.49.19-27.71-.06-2.86,1.69-18.07.7-19.39l-1.99,1.11c.46,6.13-1.42,12.94-1.34,18.94.08,5.5,1.74,10.66,1.38,16.45-.28,4.55-2.28,9.14-2.67,13.76-.88,10.41.69,22.02.02,32.56h1.97c2.07-11.33-1.21-24.12.7-35.02.08-.45,1.01-.54,1.03-.7ZM519.53,640.15h-2.62c-1.65,11.4,3.46,20.07,2.61,31.87-.25,3.45-2.24,7.49-2.59,9.36-.31,1.68.13,3.7-.02,5.45l3.17-1.1c3.9-15.67-.44-29.97-.54-45.57Z" fill="#fff"/>
  <path d="M590.54,3.89v698.71c-12.12-1.86-24,1.9-35.5,5.25l9.39-13.31,1.78-7.06c-8.48.13-13.7,7.39-18.74,13.13l4.66-21.05c-3.02-4.29-13.63,10.91-15.03,13.36-1.27,2.24-1.94,4.79-3.1,7.05v-15.45c0-1.64,2.78-10.66,3.34-13.62,2.12-11.1,1.8-26.28,1.31-38.34-1.75-42.63-1.2-87.5-.07-131.44.41-16.21,2.18-28.59-.02-45.16-6.04-45.54-3-92.3-2.56-138.88.29-30.3,1.87-64.07-2.71-93.79-3.36-21.77-7.59-41.99-15.13-63.08-2.8-7.84-4.89-17.83-10.53-24.45-3.31-3.88-8.82-6.27-12.37-9.33-2.56-2.21-5.62-6.53-8.19-8.56-8.13-6.41-35.35-18.8-45.98-23.39-53.41-23.07-131.28-26.01-188.8-20.9-28.06,2.5-97.78,21.68-121.9,35.88-11.9,7.01-38.74,41.69-44.6,54.64-11.26,24.89-24.07,73.81-21.93,101.11,1.19,15.26-2.93,25.38-3.92,40.69-1.09,16.79,4.04,32.26,3.34,50-1.14,28.78-2.76,58.6-4.68,86.7-1.63,23.91.94,45.9.08,69.08-.87,23.25-5.37,41.28-3.92,64.35,1.3,20.64-1.97,36.61-2.71,56.55-.81,21.74.35,43.7.67,65.43-1.06-1.7-8.48-8.55-10.21-5.94l-.63,3.97c-3.18-2.2-15.58-12.26-19.01-9.27l-.36,4.86,10.49,16.24c-4.61-3.58-10.74-5.81-16.65-5.15l-1.06.95c-.71,2.4,8.25,10.91,9.83,13.4l-20.38-.65V3.89h585.8Z" fill="#fff"/>
  <path d="M455.34,130.51c4.99,4.96,9.41,10.54,14.23,15.68,6.82,7.26,8.52,6.34,12.57,17.04,12.08,31.82,12.74,58.91,15.74,92.04.43,4.77-.45,10.21-.01,15.07l-2.94.98-1.04-1.56c-.35-9.19-.4-18.49-1.27-27.64-.63-6.61-.49-6.05,0-12.41.73-9.54-3.71-35.64-6.55-44.95-2.1-6.88-6.27-21.46-9.3-27.23-1.42-2.7-27.26-29.13-30.28-31-10.29-6.36-28.9-12.93-40.54-16.65-9.43-3.02-19.47-2.87-28.86-5.99-4.55-1.51-9.22-4.82-13.88-5.85-21.4-4.69-43.37-3.09-64.93-4.11-3.3-.16-8.82-2.29-13.15-2.62-25.17-1.92-55.65,7.44-81.54,7.87-2.06.03-3.57.31-4.89-1.64.07-.86,3.51-1.44,4.34-1.56,17.1-2.54,34.34-3.26,51.39-5.81,18.59-2.78,43.29-1.25,62.3-.21,14.39.79,33.85,2.35,47.78,5.47,5.91,1.32,10.71,4.67,16.67,6.34,6.81,1.9,14.84,1.98,21.33,3.65,8.33,2.15,26.32,9.2,34.43,12.91,7.33,3.35,12.79,6.59,18.4,12.17Z"/>
  <path d="M497.61,432.26c-1.1,12.86,2.05,24.93.9,38.66-.35,4.15-2.26,6.6-2.64,10.52-.44,4.66.59,20.89-1,23.97-.34.65-1.42,1.1-1.65.33.32-7.86-.42-15.83-.02-23.68.25-4.94,1.89-10.57,2.03-15.72.25-9.16-1.9-18.73-2.04-27.61-.11-7.27,1.75-15.12,2.03-22.35,1.25-32.5-1.25-64.92,1.24-97.34.12-1.5,2-6.36,2.06-9.79.13-8-3.16-14.86-3.31-22.4-.05-2.71,1.95-2.14,3.16-.52.54,6.45,2.54,13.13,2.78,19.57.51,13.62-2.28,27.92-2.68,41.42-.86,28.4,1.57,56.64-.86,84.95Z"/>
  <path d="M111.01,152.2c-22.32,26.2-21.46,41.71-30.74,73.32-6.18,21.07-1.41,43.33-2.53,65.31-.55,10.85-4.84,21.83-4.68,32.19.1,6.16,5.41,13.63,5.27,20.43l-2.57.91-4.65-20.66c-1.09-13.89,5.72-28.4,4.68-41.48-1.16-14.69-3.72-37.23-.12-51.43,1.61-6.36,4.07-11.81,5.8-17.74,3.44-11.86,4.99-24.75,9.58-35.8,5.89-14.19,16.19-25.34,27.1-35.97,1.48,1.12.63.86.35,1.63-.67,1.81-5.77,7.28-7.49,9.29Z"/>
  <path d="M492.33,576.84c-1.3,11.26-2.45,24.03-1.76,36.06.85,14.78,2.62,17.91.71,33.64-.89,7.34-.71,14.15-.02,21.49-2.84,2.27-3.2-5.8-3.32-7.8-.41-7,1.57-13.03,1.98-19.76.89-14.43-2.35-30.15-1.98-45.36.25-10.33,3.07-21.03,3.37-30.22.15-4.56-1.37-11.02-1.4-15.74-.07-10.7.15-21.3,1.35-31.91.94-.02,1.69-.25,2.31.65,1.1,1.59-1.03,19.7-1.03,23.31.02,13.57,1.43,21.43-.21,35.64Z"/>
  <path d="M70.48,514.61c1.34,2.78-1.27,5.48-1.36,6.2-.92,7.06-1.53,17.28-1.29,24.4.39,11.75,2.79,14.75,1.38,27.06-1.64,14.23-1.56,30.63-2.03,45.18-.33,10.23-.46,20.63-.14,30.84-4.64,5.35-3.88-3.25-3.81-6.53.16-8.07,1.47-17.26,1.98-24.43,1.05-14.68,1.44-29.36,1.98-43.92.45-12.22-1.71-23.59-1.32-35.5.25-7.52,2.34-15.64,2-23.31h2.62Z"/>
  <path d="M345.43,396.17c.04.09,1.46.54,1.84.78-.32-2.3-.02-2.87,2.24-3.33,1.3,2.74,2.66,2.98,5.65,2.67,2.12-1.92-8.22-5.29-7.87-8.53,3.6-3.13,6.08-5.33,10.99-2.48,2.16,8.12-3.17-.02-6.4,1.16.81,3.25,7.27,3.56,7.89,6.93,1.44,7.78-9.38,4.36-12.2,4.32-1.98-.03-4.22.1-6.7.06-4.44-.07-7,2.63-9.39-3.1,2.92-3.98,4.08-4.48,9.22-4.62-2.51-8.06-4.13-1.37-5-1.02-4.2,1.7-3.82-4.89,2.7-5.25,10.39-.57,5.26,8.71,7.02,12.4ZM340.7,392.36l-3.84.76-.11,2.52,3.2-.09.75-3.19Z"/>
  <path d="M361.08,339.11c2.23-.03,3.03-.6,2.63,1.97l-8.54-.98c3.14-.6,2.71-10.15.32-10.22-4.07,1.47-2.36,8.24-.99,11.2l-17.74-.66c4.6-1.75,1.98-5.99,2.67-10.13l-3.31-1.36c2.25-3,5.23-.85,7.52-1.01,1.3-.09,2.36-1.32,3.97-1.33,2.08,0,3.16,1.72,3.95,1.77.64.04,9.53-3.76,9.53,1.23v9.53ZM345.64,329.91c-1.75.28-2.61,7.77-1.67,8.86,4.22,4.91,4.52-9.32,1.67-8.86Z"/>
  <path d="M355.82,248.4c.2.35,3.42,0,2.63,1.97h-8.54s1.31-10.52,1.31-10.52h-3.95c.59,3.3-1.67,8.11,1.96,9.53l-8.53.98,1.32-10.14c-4.91-2.3-5.58,7.96-2,9.16l-8.53.98c-.56-1.89,1.49-1.15,1.87-2.37.8-2.51.69-8.92-2.52-9.79,0-.75,3.71-1.46,4.46-1.49,3.09-.13,8.44,1.04,10.98,1.13.6.02,9.53-3.32,9.53.36,0,1.57-.25,9.74,0,10.19Z"/>
  <path d="M274.96,398.27h-16.44c-.45-1.73,1.71-1.49,1.98-2.44.55-1.91-.41-5.84,0-8.08l-3.5-.02c-1.26.36-1.46,6.92-1.11,8.1.28.97,2.47.73,1.98,2.44h-8.55s0-1.97,0-1.97c2.81,1.48,2.33-5.94,1.98-7.58-.39-1.87-2.73-1.19-1.95-3.55,2.42-1.52,4.75,0,6.83-.09,1.38-.06,2.74-1.25,4-1.21,1.65.05,2.46,1.73,3.81,1.76,2.31.05,4.01-3.13,7.4-1.21,3.78,2.15,1.43,10.43,3.57,13.85ZM264.52,396.21c6.67,4.17,6.53-12.04.02-7.7l-.02,7.7Z"/>
  <path d="M316.64,388.82c.08.21.91.29,1.02.73.46,1.82-.5,4.24.32,6.13l2.99.62c-.65-2.59,1.73-9.2-1.87-8.62-1.13-5.34,4.72-2.15,6.15-2.15,1.25,0,4.99-3.9,5.61,1.2-1.27,3.93-2.66,1.22-5.28,1.03.42,2.12-.58,6.4-.04,8.13.26.82,3.14.3,2.67,2.38-4.27-.06-8.57.08-12.85.04-2.56-.03-2.8-.17-5.87-.01-10.65.55-4.75-10.32,3.6-7.92-.71-2.36-.48-4.18-3.64-3.97-1.69.11-.67,1.34-1.57,2.36-2.6,2.95-4.71-1.43-2.68-3.32,5.49-2.06,9.14-2.47,11.45,3.38ZM313.09,392.36c-4.24-1.52-6.69,3.39-2.45,3.16,1.95-.21,1.83-1.64,2.45-3.16Z"/>
  <path d="M332.81,501.46c-.11-.14-3.21.1-2.63-1.97,1.63.2,3.43-.84,4.96-.74,1.26.08.88,1.45,1.27,1.4s1.43-1.25,2.71-1.31c8.23-.38,3.03,7.4-1.04,2.62-.25,2.37.33,5.17,0,7.46-.14.97-3.28-.38,1.29,2.73-.1,2.02-7.92.54-9.43.53-.7,0-1.63,1.01-2.71,1.05-2.21.08-2.32-1.94-2.64-1.94-1.39.04-6.27,4.36-8.52.01-2.81-5.42,4.15-6.99,8.2-6.56l-.62-3.65c-3.39-2.33-4.73,5.17-7.17,1.58-2.74-4.03,9.82-5.35,11.62-2.09l.86,9.98,3.85.1c-.29-1.52.4-8.66,0-9.2ZM324.26,506.73l-3.67.62c-2.27,4.16,3.84,3.37,3.67-.62Z"/>
  <path d="M451,295.89c1.73,1.8-.02,10.05,2.13,12.98h-7.23c-.22-2.87,1.91-1.46,2.04-4.92.1-2.53-.86-8.53-4.41-5.66-2.11,3.49-.97,7.36,1.05,10.58l-7.87-.98c3.34-.15,1.9-9.21.89-9.57-6.64-1.52-2.91,6.51-2.88,10.55l-7.21-.98c1.86-2.21,2.62-9.96-.66-11.18l1.47-1.14c2.72.22,7.85-1.12,10.04-1.05,1.77.06,3.25,1.59,3.93,1.6,1.48.02,5.71-3.38,8.72-.23Z"/>
  <path d="M347.28,648.69c.83-1.39,4.85-2.26,6.13-1.97.49.11.42,1.36.78,1.35,1.83-.06,8.05-4.7,5.63,2.97l-4.02-.7c-1.82-.32-1.58,6.96-1.32,7.8s3.14.3,2.67,2.38c-4.17-.59-8.91.56-12.85.57-1.16,0-1.96-1.07-3.14-1.08-1.78-.01-4.49,3.15-7.32-.82-3.49-4.87,3.01-6.43,6.81-6.62.26-1.21.32-3.19-.92-3.87-1.91-1.06-1.61,3.1-4.08,3.16-3.1.08-3.21-4.83,2.75-5.19,12.19-.74,3.55,10.64,8.86,12.27h2.03c1.05-.78,1.72-10.8-2-10.25ZM340.7,654.62c-.18-.19-2.03-.12-2.31.64l-.31,2.64h2.62c-.11-.74.2-3.06,0-3.28Z"/>
  <path d="M429.61,248.27c.25.52,2.33.48,1.82,2.1h-17.74c.22-1.27,1.97-.76,2.5-2.42,3.81-11.92-9.31-10.31-3.17,2.42h-7.22c1.64-3.75,2.72-9.12-.66-12.15.39-1.58,9.69-1.68,11.51-1.71,2.65-.05,2.42.52,6.61.09,9.49-.97,4.47,7.74,6.35,11.66ZM425.41,240.62c-1.08-.55-3.38-1.36-4.21-.14l.1,8,4.13-.15-.02-7.71Z"/>
  <path d="M220.39,602.03c2.54-1.02,2.58-7.39,1.98-9.39-.18-.61-3.72-1.73-1.33-3.44.2-.15,4.47-.99,4.89-.99.38,0,.38,1.32.75,1.35,1.13.1,3.45-1.47,5.18-1.32,1.05.09,1.74,1.29,3.24,1.29,2.48,0,3.57-2.47,7.25-.59,5.88,3.01.37,10.04,4.99,13.07h-8.54c-.56-1.89,1.49-1.14,1.87-2.36.59-1.85-.22-5,.13-7.07-6.19-3.68-5.46,6.28-3.33,9.45h-17.09ZM231.57,592.17l-4.32.62.11,8.01,4.13-.15.08-8.47Z"/>
  <path d="M299.79,295.22c.74.75.32,2.91,2.09,3.62l.7,9.72-7.25.31v-1.97c3.61.95,1.51-5.63,1.88-8.12-.34-1.79-4.21-1.04-4.53.02.4,2.13-.51,5.82.01,7.62.28.97,2.48.74,1.98,2.44h-7.89c-.78-1.8,1.21-1.93,1.3-2.42.21-1.24.22-7.4-.27-8.12-6.22-2.81-6.11,6.5-3.32,9.9-.9,1.24-7.55.93-7.55-.33,3.39-1.46,2.93-9.97-.66-11.17,2.14-2.83,5.09-1.04,7.46-1.19.91-.06,1.9-1.15,3.37-1.16,2.03,0,3.54,1.83,4.71,1.88,1.41.06,5.37-3.64,7.96-1.03Z"/>
  <path d="M247.67,341.08c-.18-.05-1.28-.97-.67-1.32.96-.45,1.49-.4,1.71-1.62.25-1.43.26-11.16,0-12.52-.28-1.46-1.18-1.1-2.01-1.96.01-1.27,20.29-5.3,20.98,6.67.29,5.02-3.74,10.74-8.83,10.74-2.68,0-9.13.52-11.18,0ZM253.92,338.45c11.57,2.03,11.1-15.08,0-13.8v13.8Z"/>
  <path d="M361.2,452.7c6.03,4.67,7-7.24,2.83-9.07-.72-1.65,4.34-2.52,5.32-2.57.29-.01.3,1.27.61,1.27,1.05,0,2.11-1.29,3.34-1.36,5.11-.28,2.77,8.97-2.35,3.3-.6.36-.91,6.48-.68,7.58.38,1.79,3.21,1.57,1.61,3.6-3.81-.42-8.09.12-11.78.04-3.39-.07-2.81-.27-6.58.01-8.41.64-4.95-10.42,2.96-7.95-1.09-11.04-3.92,2.86-7.28-2.97-.4-3.54,7.69-4.59,10.27-2.32s1.24,7.51,1.73,10.43ZM356.48,448.88l-2.97,1.3.68,2.64c1.59.29,2.71-2.58,2.29-3.94Z"/>
  <path d="M270,239.56c1.67,2.53-.06,10.7,3.94,9.49,1.71-.52,1.78-9.62-.95-10.83.51-2.05,9.21-.72,11.21-1.38l.31,3.69c-1.27,1.88-3.03-.84-3.92-.67-2.05.39-1.82,6.83-1.65,8.5,1.45.04,3.46-.06,3.25,2l-23.55-.12c-3.48-7.42,1.51-6.86,6.79-7.78.86-.15,1.15.44,1-.99-2-6.93-4.46,1.46-7.85-.38l.1-3.06c4.16-1.79,8.5-2.74,11.32,1.51ZM266.41,244.47l-3.32.29-.62,2.99,3.2-.09.75-3.19Z"/>
  <path d="M187.51,233.94c-.09-.11-2.22.11-2.61-.99,8.6-4.77,11.44,5.4,17.07,9.53-.32-2.13.54-5.56-.1-7.45-.46-1.33-2.85-1.2-2.51-3.07h6.86c1.51,1.59-.84,1.72-1,2.92-.63,4.7,1.07,10.51-.56,15.21-3.12,2.25-10.56-10.22-13.53-11.55-.11,2.51-1.06,6.35-.22,8.76.67,1.93,3.59.8,3.17,3.07h-8.54c-.59-1.73,1.97-1.83,1.97-1.97,0-2.03.45-13.89,0-14.46Z"/>
  <path d="M191.46,306.25c.09.14,2.72.61,3.29.66,1.96,2.3-8.15,2.86-8.54.97.03-2.05,2.34-.75,2.68-2.58.71-3.84.36-11.77-3.33-13.84,6.72-6.05,12.6,5.27,16.76,9.52.45-2.11.58-4.73.26-6.86-.4-2.7-1.86-1.6-1.91-3.65l6.24-.67c1.53,1.41-.9,2.07-.96,2.43-.65,3.84.46,9.02-.03,13.02-1.16,9.48-11.17-7.24-14.46-8.88.38,1.71-.51,9.06,0,9.86Z"/>
  <path d="M189.49,381.84c-.11-.14-3.21.11-2.63-1.97,9.1-3.63,11.57,7.43,17.74,11.17-.36-2.26.59-6.13-.1-8.1s-3.59-.8-3.17-3.07c2.85.59,6.29-2.05,8.54.34.35,1.67-2.42,1.28-2.67,2.04-.8,2.45,1.96,17.17-2.27,16.65-.92-.11-10.1-12.7-12.81-13.12v9.53c0,.82,3.82.98,3.28,2.95h-8.54c-.59-2.13,2.63-1.79,2.63-1.97,0-2.02.43-13.88,0-14.46Z"/>
  <path d="M207.24,511.65c-.08.26-1.38,1.5-1.74,1.56-2.59.41-11.43-14.51-13.38-12.4.41,2.33-.64,6.83.08,8.78.53,1.45,3.51.82,3.2,3.04-2.66-.42-7.07,1.18-8.54-1.3.97-.04,2.1.03,2.55-1.07.23-.57.84-11.76.75-12.37-.39-2.64-3.23-2.06-3.31-2.68,5.41-8.57,15.42,10.6,17.44,10.19.23-4.31,2.11-9.28-2.95-10.84l8.54-.98c.39,2.57-.4,2-2.63,1.97-.77,4.16,1.03,12.53,0,16.1Z"/>
  <path d="M207.89,438.35c-4.52.79.03,16.38-2.97,17.1-3.35-.11-10.31-12-12.48-11.83-.23,4.31-2.11,9.28,2.95,10.84.05,1.48-8.61,1.45-8.52,0,.38-1.06,2.38-.59,2.66-1.39.21-.62.2-12.03.01-13.11-.33-1.85-2.97-.55-2.68-2.91,8.04-1.91,11.02,4.58,15.45,9.85.15-2.07,1-5.52.24-7.48-.63-1.64-3.39-.1-2.54-3.03,2.62,1.43,7.55-1.81,7.88,1.96Z"/>
  <path d="M189.49,157.7c.12.14,1.48-.12,1.97,0,.67,3.29-7.61,1.77-7.89,1.3,3.45-1.51,3.35-11.64,2.63-14.78-.45-1.98-3.24-1.75-1.99-3.29,7.67-2.66,10.65,6.79,15.47,10.85.07-2.84,2.12-9.24-2.27-9.25l-.04-1.92,7.88.98c-.38,1.06-2.38.59-2.66,1.39-.83,2.42,1.41,15.95-.96,16.68-5.24-2.4-8.06-8.65-12.15-12.48.27,1.55-.36,10.1,0,10.52Z"/>
  <path d="M201.32,645.08c-.26-.78-3.45-1.3-1.98-2.64,8.33-2.95,10.26,7.71,15.79,10.86v-9.2c0-.18-3.72.01-2.3-1.98h7.55c.59,2.14-2.63,1.8-2.63,1.98v16.43c-5.49.68-9.24-8.48-13.15-11.83v9.86c0,.1,1.83-.15,1.97,0l-.39,1.98-7.49-.02c-.87-1.85,2.63-1.79,2.63-1.97,0-2.61.53-11.9,0-13.47Z"/>
  <path d="M203.95,553.39c-.2-.35-3.42,0-2.63-1.97h7.88c.54,2.21-1.95.73-2.54,2.38-1.36,3.77,1.67,12.34-1.15,15.99-2.95,1.04-10.32-11.44-13.4-12.45v9.53c0,.7,4.69,1.52,2.64,2.64l-7.9.31c-.48-2.09,2.41-1.56,2.67-2.38.2-.62.2-12.13,0-13.09l-3.33-1.62c-.97-1.43,6.68-1.8,7.88-.97l9.87,10.83c-.4-1.75.54-8.25,0-9.2Z"/>
  <path d="M387.38,239.21c-.27.34,2.2,5.73-3.1,7.07-1.73.44-5.31-.84-4.78,1.46,10.67-2.53,14.67,8.22,2.94,9.21-13.71,1.16-5.43-8.22-5.77-11.52-.14-1.33-3.76-2.23-.65-6.74,2.71-3.93,9.29-.96,13.34-2.48l.64,1.99c-.38,1.06-2.54.89-2.63,1ZM383.93,240.01c-1.25-2.33-4.8-1.33-4.45,2.12.43,4.15,6.33,1.39,4.45-2.12ZM377.52,251.04c-.6,5.06,5.38,4.73,7.89,1.63.45-2.59-6.39-1.41-7.89-1.63Z"/>
  <path d="M198.69,172.81v16.76c0,.16,1.95,1.69,1.32,2.95-2.44,1.52-5.94-.58-6.77-.52-.48.03-1.28,1.1-2.14,1.15-10.3.69-9.55-11.98-1.12-14.27,1.67-.46,6.51.54,4.01-3.34-.23-.36-3.02-.07-2.51-2.07l7.23-.66ZM193.99,182.12c-2.64-4.26-7.78,3.86-4.55,7.5l4.55-.48c.25-.41.25-6.62,0-7.02Z"/>
  <path d="M188.79,98.59c.21.27-.05,1.36.04,1.92-15.1,1.82-30.86,6.56-43.05,15.8-4.84,3.67-10.69,8.77-15.49,12.78-1.84,1.54-3.26,6.21-5.89,3.3,12.56-12.23,23.39-23.4,40.47-29.2,3.22-1.09,22.38-6.63,23.91-4.6Z"/>
  <path d="M178.76,642.99c3.79,3.13,3.68,16.12-3.06,17.88-12.35,3.22-14.76-18.14-3.56-19.36,1.69-.18,5.4.47,6.62,1.48ZM171.17,644.19c-2.19,2.92-2.18,16.52,3.44,14.29,1.87-.74,3.27-17.22-3.44-14.29Z"/>
  <path d="M169.1,337.47c.11.42,1.62,1.37,1.96,1.97-1.29,1.52-3.54,1.97-5.46,1.64-.49-.08-.43-1.35-.78-1.34-.94.03-1.64,1.23-2.65,1.32-12.58,1.14-9.18-16.73,2.34-14.44l-1.32-5.91,4.29-.68,1.63,1c.76,4.44-1.02,12.51,0,16.43ZM160.06,329.42c-.99,1.02-1.25,6.73-.53,7.76,8.33,4.55,5.44-12.85.53-7.76Z"/>
  <path d="M278.24,435.07c.68.7-.48,13.9-.02,16.13.39,1.87,2.73,1.19,1.95,3.55-.38.48-11.63,1.16-12.29.88-8.21-3.49-3.06-16.77,5.74-13.99l-1.31-5.9,5.92-.67ZM270.12,443.7c-1.63.61-2.08,5.2-1.6,6.68l1.65,1.66c4.79,1.53,3.46-4.29,3.38-7.34-.39-1.26-2.33-1.41-3.43-1Z"/>
  <path d="M168.39,493.63c.94,4.75-2.24,1.34-5.22,2.18-1.25.36-3.45,2.69-3.28,4,17.49-2.73,8.6,20.08-2.85,12.07-8.8-6.16,1.25-22.23,11.35-18.25ZM164.4,502.88l-5.16-.1c-1.69,11.17,8.41,10.94,5.16.1Z"/>
  <path d="M299.28,495.22c-.27-.85-2.6-.48-1.97-2.3l6.58-.67v7.23c17.56-2.9,10.23,18.21-4.6,13.81-.87-4.43,1.17-14.39,0-18.08ZM304.96,501.52c-1.7.64-1.44,8.17-.47,8.87,7.01,2.34,6.06-10.97.47-8.87Z"/>
  <path d="M265.75,567.86l-.38,1.34c-2.42,1.39-4.88.12-7.1.18-2.37.06-2.75,2-6.3.07-6.51-3.53-.99-15.32,6.55-13.43l-.65-5.57,5.61-.38c1.08,1.53-1.19,14.4-.23,16.74.45,1.1,1.54,1.01,2.49,1.06ZM254.75,558.82c-1.85,1.73-1.29,8.33,2.13,8.92,4.26-1.75,2.29-13.05-2.13-8.92Z"/>
  <path d="M167.58,552.28c2.81,2.72,2.35,9.98.23,13.1-1.7,2.5-13.21,8.74-13.16,2.47,3.87.77,8.04-1.15,9.21-4.93-13.13,3.23-13.58-14.18.27-12.11.47.07,3.19,1.22,3.45,1.47ZM163.67,560.45c1.88-3.21.78-7.66-3.37-7.68-2.68,3.13-1.75,10.38,3.37,7.68Z"/>
  <path d="M70.25,438.16c-.63,4.35-2.83,10.3-3.08,15.63-.44,9.2,1.83,18.42,2.03,27.6.14,6.63-1.08,13.13-.69,19.76l-1.31.97c-.35-8.62.44-17.37.02-25.98-.23-4.67-1.75-10.02-1.98-14.45-.84-16.42,4.89-32.48,5.91-48.29,2.06,1.17,1.39,5.41,1.33,7.58-.15,5.32-1.45,11.83-2.23,17.19Z"/>
  <path d="M297.31,648.04c7.05-3.21,11.5-.17,10.51,7.58-.73,5.71-9.55,6.57-14.17,4.96-1.32-1.89.62-13.66-.28-16.66-.24-.8-1.55-.77-1.97-1.46l5.94-1.34-.03,6.92ZM299.07,650.12c-2.72.99-3.21,10.88,2.4,8.32,2.4-.87,3.66-10.53-2.4-8.32Z"/>
  <path d="M287.45,585.93c-.52-1.39-3.96-.14-2.34-3l6.29-.62v7.89c4.81-2.76,8.58-2.59,9.16,3.72.26,2.83-2.25,6.58,2.02,7.13,1.07,2.25-7.39,1.07-7.89.97-.63-2.18,1.74-.74,2.02-1.67.11-.38.1-6.67-.02-7.08-5.06-4.04-6.41,3.45-5.33,7.08.28.93,2.65-.51,2.01,1.67h-8.54c.05-1.47,2.63-1.16,2.63-1.31,0-2.61.52-13.4,0-14.79Z"/>
  <path d="M153.98,250.38c-2.82-2.74,13.14-10.62,9.22-14.8-3.1-3.32-10.2,5.37-8.45-1.16,1.01-3.78,10.12-3.97,12.86-1.61,3.37,6.7-3.13,10.15-7.05,14.28,3.44.22,4.54.49,6.89-1.96l.34,5.25h-13.81Z"/>
  <path d="M168.45,439.02c-.71.72-12.22-1.74-9.49,3.96,14.96-2.03,12.3,14.66-1.29,12.41-3.3-.55-4.41-1.08-3.01-4.53.74-.47,8.13,4.8,9.21-.34,1.31-6.21-8.4-3.84-9.17-5.98l2.07-7.99,10.61-.71,1.08,3.19Z"/>
  <path d="M263.12,600.06c.16.25,2.76.09,2.62,1.31-3.14,2.11-5.39.65-8.14.74s-5.42,2.18-7.82-.7c-2.63-3.17.81-9.06-3.09-11.53.04-.86,5.82-2.15,6.61-.73,1.94,2.69-1.48,11.47,2.9,10.95,3.15-.37,3.33-8.84.36-10.22l5.22-1.37,1.34.71c0,1.65-.29,10.39,0,10.85Z"/>
  <path d="M223.02,178.73v10.19l4.68.6c.64-.75.82-5.42.59-6.54-.39-1.87-2.68-1.2-1.99-3.59,2.3.43,4.95-1.79,6.58.33v9.86c0,1.02,3.34.52,2.62,1.96-2.68,3.05-5.94.53-7.67.49-1.61-.04-2.71,1.71-5.65,1.05-5.35-1.21-3.1-6.87-3.75-10.08-.38-1.86-2.69-1.21-1.99-3.59l6.58-.66Z"/>
  <path d="M291.88,452c.79-2.66,2.41-7.95-1.79-7.75-2.03-2.45,5.59-2.81,7.22-2.6.88.88-.97,7.92-.7,9.53.31,1.86,2.58,1.07,2.01,3.28-.44.84-4.01,1.8-4.83,1.67-.44-.07-.42-1.32-.83-1.37-1.42-.19-4.19,1.65-6.5,1.22-5.75-1.06-2.63-7.84-3.58-11.26-.35-1.26-3.25-.21-2.66-2.42l6.62-.38.91,10.27,4.14-.2Z"/>
  <path d="M166.47,391.04c4.28-.35,4.5,2.91,0,2.63l2.63,4.6h-9.2c-.68-3.45,2.88-.34,1.98-4.6h-8.55c-1.47-1.43,9.35-14.97,11.64-15.02l1.52.89v11.5ZM163.18,385.12c-1.46-1.65-4.48,4.99-5.26,5.91l5.16-.75.09-5.16Z"/>
  <path d="M272.22,588.3c.28.14.53,1.83,1.08,1.89.51.06,5.37-4.14,8.51.05,2.36,3.16-.63,9.08,2.22,10.57l-.53,1.56-7.24-.36c3.29-2,1.96-6.5,1.6-9.86-6.37-1.28-6.21,6.54-2.92,9.86h-7.89c-.65-1.73,1.2-1.08,1.32-1.74.21-1.2.24-6,0-7.15-.37-1.87-2.53-1.05-1.98-3.26.56-.96,5.54-1.71,5.81-1.58Z"/>
  <path d="M407.86,306.8c.21.34,1.93.63,2.53.77-1.4,1.83-16.78,1.54-17.76.99-1.56-1.43,1.73-1.88,1.99-2.79.16-.55.17-6.45.02-6.97-.37-1.25-3.68-.21-2.62-3.03,1.56-.52,3.25-.93,4.93-.78,1.23.11.91,1.44,1.26,1.39.77-.1,2.64-1.81,4.6-1.86,8.34-.2,3.35,9.49,5.04,12.27ZM403.06,306.8c-.15-1.95,1.25-9.03-1.52-9.11-5.02-.14-5.7,12.82,1.52,9.11Z"/>
  <path d="M167.59,291.32c3.09,4.26-1.98,6.49-1.77,7.36,11.52,7.51-11.07,15.9-11.84,6.26,4.41-.79,7.98,5.77,10.46-1.64.02-3.32-4.05-3.46-6.51-3.62-1.59-1.53,7.63-3.25,5.15-7.12-1.7-2.65-9.17,4-8.43-.42.6-3.62,10.61-4.03,12.94-.81Z"/>
  <path d="M290,501.51l-1.89-.04v-1.97s6.57-.66,6.57-.66c-.2,2.46-1.67,9.35.19,11.04.65.59,2.5-.81,1.72,2.03-3.28,2.87-5.57,0-6.15,0-2.63.03-3.59,2.43-7.45.9-4.6-1.82-1.88-7.84-2.76-10.87-.27-.95-2.44-.73-1.98-2.44l6.28-.04c1.21,2.44-1.37,10.07,1.95,10.59,4.87.77,3.57-5.69,3.52-8.54Z"/>
  <path d="M353.19,156.05c.2.64,1.81,1.65,2.63,1.66.23.46-1.2,1.55-1.81,1.79-1,.38-12.01.13-12.66-.16-4.3-1.99.73-11.09-4.61-12.48l7.16-.9c1.93,1.46-2.77,15.99,5.23,9.34.34-4.56,1.1-6.49-3.17-8.75l7.23-.66c.5,2.66-.69,7.96,0,10.19Z"/>
  <path d="M289.42,326.62v10.19c0,.96,4.35,2.73,5.49.18.54-1.75.63-3.6.37-5.4-.39-2.71-2.6-2.22-1.92-3.99,2.05-.03,5.22-1.63,6.59.01v10.85c0,.1,1.84-.15,1.97,0,.58,4.59-5.36,1.54-6.88,1.57-.49,0-1.29,1-2.01,1-12.7-.03-4.12-6.06-9.5-12.75l5.91-1.65Z"/>
  <path d="M228.28,337.8c6.45,3.03,7.23-7.5,2.64-9.53l6.56-.99v10.19c0,1.06,3.5.25,2.64,2.63-2.26,2.43-5.54-.1-6.89-.06s-3.41,1.71-6.61,1.05c-4.48-.92-2.35-7.37-2.93-10.21-.38-1.86-2.69-1.21-1.99-3.59l6.58.33v10.19Z"/>
  <path d="M358.28,510.8c1.01,1.79-1.34,2.66-2.83,2.45s-1.96-1.73-2.68-1.85c-.8-.14-10.98,6.07-8.17-4.39,2.35-3.28,11.74-.6,4.98-6.2-3.79,6.94-8.93-.64-1.94-1.92,12.16-2.23,7.2,5.18,8.94,10.72.27.87,1.57.97,1.69,1.2ZM351.87,506.73h-2.62c-.86,4.94,2.68,4.44,2.62,0Z"/>
  <path d="M221.53,499.67c2.18,1.83,1.34,8.32,1.48,11l2.63.97c-3.77,3.99-5.91-.32-6.28-.37-.89-.11-9.06,5.37-9.48-1.65-.32-5.41,8.32-4.44,8.54-5.22.03-2.04-.27-3.57-2.32-4.22l-1.71,3.16c-10.5-2.15,3.03-7.14,7.14-3.68ZM218.41,506.73c-1.3-1.27-5.34,1.97-3.21,3.22,2.61,1.53,3.79-2.64,3.21-3.22Z"/>
  <path d="M316.68,297.4c2.18,3.39.16,5.5,1,8.37.27.93,2.44.73,1.98,2.44-2.63,1.8-5.11-.37-6.62-.35-1.9.03-5.54,2.59-7.9.09-3.44-8.49,5.07-5.71,7.34-7.26,1.25-.85,1.17-4.69-1.67-4.35-1.26.15-5.57,8.72-5.31-.66,4.21-1.74,8.48-2.51,11.19,1.71ZM313.08,302.31c-.33-.34-2.86.08-3.35.92l-.59,3.02c2.06.82,5.3-2.55,3.94-3.94Z"/>
  <path d="M249.49,449.05c1.17-1.4,5.28-1.67,7.06-1.48.19-2.87.38-5.29-3.22-4.52-.29,2.59-1.44,3.86-3.92,2.45-2.61-4.01,10.26-6.84,12.11-1.26,1.08,3.27-.87,7.15,1.61,10.21-2,2.7-4.7-.14-6.14-.16-1.6-.02-3.04,1.87-5.05,1.54-3.28-.54-4.52-4.31-2.45-6.78ZM256.36,451.98c2.4-2.2-1.18-4.21-2.79-1.81-1.82,2.71,1.09,3.37,2.79,1.81Z"/>
  <path d="M289.5,395.6l1.89.04c.51,4.75-4.77,1.53-6.23,1.57-1.57.05-7.44,3.38-8.24-1.29-.89-5.24,3.79-6.07,7.89-5.55.39-1.1-.59-3.79-1.66-3.94-1.87-.25-.76,3.05-3.55,2.97-4.53-.12-1.65-5.11,3.1-5.47,7.7-.58,6.69,6.16,6.79,11.65ZM284.81,392.36l-2.67.29-.61,2.99c2.07.47,3.23-1.47,3.28-3.28Z"/>
  <path d="M233.84,649.72c2.03,3.68.17,5.46,1,8.37.27.94,2.85.87,1.33,2.12-3.21,3.14-5.24-.97-5.56-.96-2.05.06-5.16,3.84-8.31.36-2.67-6.21,3.36-6.65,7.95-6.97.36-4.01-3.54-5.68-4.56-.93-2.32,1.64-6.17-3.57.45-4.81,4.04-.76,5.81-.6,7.71,2.83ZM230.24,654.62l-3.32.29-.61,2.99c2.02.09,4.43-.85,3.94-3.28Z"/>
  <path d="M224.98,396.31v1.29c-2.74,1.89-4.79-.55-6.24-.62-.98-.04-2.37,1.22-3.95,1.33-4.27.31-5.97-2.9-3.62-6.31,2.46-3.49,11.01.51,5.59-5.56-1.52-.22-2.2,4.2-4.96,2.34-4.61-3.26,9.72-9.17,11.15.03.41,2.65-1.25,7.11,2.03,7.51ZM215.13,395.64c2.28,1.25,4.38-3.83,2.3-3.92-1.2-.05-3.89,3.05-2.3,3.92Z"/>
  <path d="M239.87,396.72c-6.09,5.47-18.49-.87-12.57-9.61,5.96-8.82,20.94,2.1,12.57,9.61ZM236.07,396.2c1.1-.66,1.56-8.78-1.24-9.43-4.94-2.13-4.62,6.7-2.5,9.4.54.3,3.24.32,3.73.02Z"/>
  <path d="M416.12,339.57c-5.98,5.1-17.58-1.02-12.59-9.63,5.3-9.15,21.53,2,12.59,9.63ZM409.5,328.7c-2.49.46-2.3,8.17-.82,9.82,4.86,3.97,6.65-9.69.82-9.82Z"/>
  <path d="M228.78,145.33c9.67-.9,11.63,11.77,4.65,13.91-14.03,4.28-15.83-12.86-4.65-13.91ZM231.48,157.61c1.46-.95,2.27-11.71-3.42-9.68-3.97,1.42-1.18,12.66,3.42,9.68Z"/>
  <path d="M221.55,556.83c2.45,2.91.68,8.18,1.42,10.66.28.93,2.64-.51,2.02,1.66-2.71,2.17-5.86-.72-6.2-.67-.94.14-1.72,1.17-2.71,1.3-10.44,1.3-6.4-9.12,1.68-7.85.62-1.74-.67-5.21-2.62-3.94-.55.36.39,3.62-2.82,2.49-6.08-2.14,4.96-7.66,9.23-3.66ZM215.13,567.85c1.42.94,4.39-4.13,2.28-4.6-2.52-.56-3.44,3.83-2.28,4.6Z"/>
  <path d="M371.82,247.57c.02.11,1.75.25,1.09,1.81-1.18,2.12-4.47.42-6.16.55-1.29.1-2.43,1.17-3.99,1.08-4.73-.27-5.07-6.64-.4-8.23,2.92-1,7.52,1.21,2.98-4.24-2.03-.27-.5,4.34-4.91,2.28-5.1-2.38,6.45-6.75,9.85-3.27,1.83,3.12,1.07,6.67,1.53,10.02ZM367,244.46l-2.67.29-.61,2.99,2.52-.1.76-3.17Z"/>
  <path d="M276.06,501.02c6.88,7.99-7.3,17.47-12.95,9.33-6.31-9.09,7.68-15.45,12.95-9.33ZM267.81,500.9c-1.37.85-1.54,11.22,2.75,10.36,3.7-.91,3.14-12.64-2.75-10.36Z"/>
  <path d="M386.53,146.01c12.95-2.92,14.29,15.45,1.26,14.28-8.23-.74-9.35-12.46-1.26-14.28ZM387.86,147.93c-.78.22-1.41.92-1.65,1.69-.32,3.13-.97,8.58,3.43,8.09,4.14-.59,3.1-11.16-1.78-9.78Z"/>
  <path d="M347.27,308.21c-2.41,1.84-5.35-.4-6.24-.39-.46,0-1.4,1.03-2.61,1.1-4.67.26-5.8-1.42-4.62-5.96,1.7-2.26,4.35-2.08,6.9-1.97l-.67-4.59-4.83,3.2c-5.93-4.46,6.4-6.54,9.12-3.86,1.8,1.78.83,9.83,2.95,12.48ZM338.08,306.24c2.83.51,2.82-1.81,2.62-3.94l-2.52.76-.1,3.18Z"/>
  <path d="M424.49,297.4c9.37,10.19-14.11,17.83-14.11,4.57,0-7.58,9.58-9.5,14.11-4.57ZM420.17,297.14c-7.29-2.29-5.23,12.9.11,9.46,2.12-3.06,1.23-6.31-.11-9.46Z"/>
  <path d="M398.88,328.92c2.82,3.09,1.08,6.22,1.67,9.74.08.48,2.08.62,1.29,2.41-3.52,2.12-5.28-1.35-5.6-1.33-.89.05-1.73,1.24-3.25,1.39-7.5.73-7.7-6.33-2.48-7.77,3.5-.96,8.4,1.81,3.7-4.73l-3.96,3.15c-7.15-2.51,3.82-8.14,8.63-2.87ZM393.07,334.59c-1.73.59-2.75,4.18.52,3.88s3.02-5.08-.52-3.88Z"/>
  <path d="M298.12,156.9c.18.37,1.79.64,1.81,1.12-2.77,3.92-5.87-.32-6.23-.32-.19,0-1.21,1.65-2.65,1.95-10.15,2.09-7.71-10.6,2.33-7.88l-.59-3.68c-4.8-3.92-3.21,5.82-7.87.64-1.02-3.35,11.73-6.24,13.02.78.38,2.05-.5,5.92.2,7.38ZM293.36,153.1l-3.32.28-.61,3.65,3.35-.92.59-3.02Z"/>
  <path d="M172.74,338.1c-5.62-8.8,9.73-16.26,13.96-7.05,4.45,9.68-9.6,13.89-13.96,7.05ZM181.5,339.01c1.23-2.19,1.63-10.42-2.07-10.3-4.75.15-3.9,12.42,2.07,10.3Z"/>
  <path d="M275.17,657.69c-6.58-10.2,18.07-17.55,14.75-1.59-1.38,6.64-11.73,6.27-14.75,1.59ZM284.73,658.47c2.05-3.72.09-13.47-5.06-8.02-.44,4.49-.85,9.02,5.06,8.02Z"/>
  <path d="M321.98,156.68c-6.52-10.2,12.92-15.49,14.63-5.72,1.54,8.8-10.66,11.94-14.63,5.72ZM326.4,156.87l3.35.78c2.57-1.62,2.15-8.87-.69-9.71-4.75-.28-3.78,5.73-2.66,8.93Z"/>
  <path d="M223.51,452.94c.33.57.17,1.21.13,1.82-3.58,2.32-5.25-.66-5.57-.65-1.38.04-4.42,3.01-7.29.75-5.6-10.46,11.32-4.07,5.32-11.89-1.54-.34-1.33,2.11-2.07,2.67-3.83,2.92-5.98-4.43,1.42-4.71,9.54-.35,4.86,6.16,6.36,10.82.28.87,1.56.95,1.7,1.18ZM216.78,448.9c-1.77-.08-3.41,3.55-1.31,3.92,1.6.29,2.86-3.85,1.31-3.92Z"/>
  <path d="M310.96,588.35c11.29-1.05,12.04,16.13-.75,14.79-8.74-.92-8.53-13.92.75-14.79ZM310.25,590.95c-3.44,1.23-1.72,11.63,3.08,9.7,2.23-.9,1.8-8.38-.24-9.47-.87-.4-1.94-.55-2.85-.23Z"/>
  <path d="M299.5,248.23c.02.12,1.86.43,1.1,2.13-2.28,1.32-3.8-.58-4.98-.65-3.19-.17-9.89,4.79-8.5-4.6l7.13-2.6-.2-3.69c-3.3-1.46-1.61,4.72-6.56,2.29-1.04-4.85,6.47-5.63,9.53-3.94,3.25,1.8,1.97,7.83,2.47,11.05ZM294.68,244.46c-2.09-.3-3.58,1.22-3.28,3.28l2.99-.61.29-2.66Z"/>
  <path d="M239.1,241.54c.11.23.84.31.97.79,1.31,4.91-5.35,9.29-10.5,8.44-15.7-2.59,1.76-24.85,9.53-9.23ZM234.63,240.73c-4.39-6.78-10.27,5.14-3.55,7.88,3.88,1.58,5.49-4.89,3.55-7.88Z"/>
  <path d="M262.98,185.82l-8.41.8.42,2.69,8.13.93c.28,2.86-8.12,3.42-10.35,2.45-4.39-1.91-4.45-9.31-.78-12.28,4.73-3.83,13.21-1.06,10.99,5.4ZM258.52,183.98c.51-2.82-1.81-2.82-3.94-2.62v2.62s3.94,0,3.94,0Z"/>
  <path d="M178.12,590.39c.93.97,2.25,4.47.88,5.44l-9.25.63.79,2.83,7.42-.54.7,2c-5.34,3.95-13.68,3.12-13.53-4.93.12-6.62,8.48-10.13,12.99-5.42ZM174.36,593.48c.86-3.41-4.59-3.58-4.58-.97,0,2.01,3.34.57,4.58.97Z"/>
  <path d="M390.09,452.78l1.89.04v1.94c-2.74,1.95-5.09-.38-6.38-.49-.82-.07-1.76,1.15-3.14,1.25-8.67.57-5.41-9.44,2.33-8.24,1.76-2.02.34-4.98-2.26-4.37-.45.11-4.79,8.73-4.42-.16,9.44-4.74,13.37.55,11.98,10.03ZM385.4,448.88c-2.37-.4-3.54.66-3.94,2.94l2.64.69,1.3-3.63Z"/>
  <path d="M211.84,334.51c.46,5.32,4.93,3.72,8.54,2.63-1.8,7.2-13.44,5.15-13.73-2.37-.41-10.61,16.11-10.84,13.77-.53l-8.58.27ZM216.44,331.88c-.55-6.93-6.53-.69-4.27,0h4.27Z"/>
  <path d="M218.51,156.94c.22.37,1.93.62,2.53.77-.39,4.21-5.4.88-6.26.91-2.2.08-8.61,3.59-8.92-1.92-.26-4.51,5.13-5.26,8.62-4.92.65-2-.38-4.61-2.88-4-.38.09-2,6.08-5.04,1.03,1.65-4.58,10.75-5.07,11.84.02.41,1.91-.52,7.03.12,8.09ZM214.47,153.1l-3.65,1.3,1.02,3.01c2.61-.48,3.03-1.8,2.63-4.31Z"/>
  <path d="M220.88,295.89c1.58,1.67.36,6.85.95,9.24.29,1.19,2.13,1.56,1.83,3.09-2.42,1.84-5.34-.4-6.24-.39-2.46.04-6.88,3.71-8.16-2.56.73-4,4.28-4.66,7.84-4.27.26-.25-.33-4.32-.69-4.59-2-1.48-2.14,3.61-4.81,3.19-6.6-1.03,4.34-8.9,9.28-3.7ZM217.1,302.31l-3.53,1.25c-1.47.72,1.59,3.21,2.54,2.68l.99-3.93Z"/>
  <path d="M231.39,498.99c15.27-3.04,11.84,18.67-1.41,13.59-6.52-2.5-5.28-12.26,1.41-13.59ZM231.65,500.9c-1.42,2.69-2.03,7.28.51,9.5,5.26,4.59,7.26-11.68-.51-9.5Z"/>
  <path d="M227.83,557.55c10.19-8.04,20.74,9.95,7.97,12.24-9.52,1.71-13.74-7.69-7.97-12.24ZM231.07,558.82c-1.26,2.25-1.14,8.01,1.61,8.92l2.41.05c3.12-3.48,1.82-11.76-4.02-8.97Z"/>
  <path d="M242.55,646.87c11.75-2.63,13.79,11.96,4.17,14.04-10.85,2.35-12.63-12.15-4.17-14.04ZM242.9,649.52c-1.89,1.96-1,10.44,2.65,9.61,5.13-1.17,1.77-14.2-2.65-9.61Z"/>
  <path d="M300.9,559.01c2.14,3.87-.82,9.11,2.98,8.85.21,2.55-3.59,2.2-5.48,1.97-.63-.08-.21-1.43-.76-1.31-1.99.44-5.33,3.07-8.29.39-2.49-5.46,3.55-7.33,7.96-6.97.26-2.49-.66-5.13-3.54-3.98-.28.11-2.68,5.8-4.3,1.61-1.38-3.58,8.35-6.11,11.42-.55ZM293.37,567.85c3.18.08,4.46-1.51,3.93-4.6l-3.65,1.28-.29,3.32Z"/>
  <path d="M324.93,448.88c.62,5.32,5.51,3.12,9.2,3.29-3.79,6.38-13.78,4.39-13.72-3.55.08-10.17,16.46-10.13,13.1-.03l-8.58.29ZM329.52,446.25c.41-3.45-2.95-3.39-4.59-.97-.69,1.8,3.88.7,4.59.97Z"/>
  <path d="M373.22,649.72c1.97,3.06.53,4.52.96,7.9.16,1.31,2,.83,1.37,2.91-3.48,1.93-5.27-1.37-5.58-1.3-2.18.44-5.16,4.01-8.27.37-2.68-6.04,3.3-6.8,7.94-6.29-.29-10.12-5.66.83-7.86-2.01s7.37-7.94,11.46-1.58ZM369.63,654.62c-.72-.67-5.01.44-4.59,2.29l3.84.9c.38-.23.97-2.98.75-3.18Z"/>
  <path d="M221.26,248.24c.03.2,1.12.06,1.12.5l-1.13,1.54c-3.3-1.18-11.46,2.06-13.2-1.35-2.24-4.39,4.9-7.08,8.4-6.44.35-1.51-.55-4.04-2.31-3.98-2.11.07-1.32,4.14-3.93,3.32-3.02-.95-.18-5.45,4.6-5.31,8.17.24,5.63,6.41,6.46,11.73ZM216.44,244.46c-.24-.22-2.65-.06-3.28.32-4.01,5.8,5.63,1.77,3.28-.32Z"/>
  <path d="M347.36,567.81l1.89.04c.14,2.52-3.13,2.16-4.82,1.95-.47-.06-.48-1.29-.74-1.29-1.74.03-4.75,2.84-7.97.69-4.64-5.54,2.9-7.83,7.61-7.28.43-1.8-.6-3.37-2.29-3.99-1.47-.08-1.6,1.95-2.31,2.35-3.36,1.89-6.32-3.86,1.62-4.31,9.2-.52,6.51,5.12,7,11.82ZM343.32,563.93c-2.2-2.88-5.99,3.4-2.93,3.91.75.13,3.73-2.87,2.93-3.91Z"/>
  <path d="M239.91,297.89c6.11,9.16-10.03,15.31-13.87,8.29-5.49-10.03,9.41-15,13.87-8.29ZM231.33,297.14c-2.79,1.05-2.29,11.5,3.07,9.68,2.66-.91,2.16-8.88.02-9.68-.95-.15-2.21-.33-3.1,0Z"/>
  <path d="M459.05,302.31c-.35,4.79,4.66,4.28,7.83,2.87,3.19.87.04,2.95-1.87,3.42-14.84,3.6-12.49-14.09-3.67-14.2,3.88-.05,9.16,3.26,6.95,7.62l-9.23.3ZM463.65,300.33l-.62-2.99c-3.08-1.1-3.99-.08-3.98,2.99h4.6Z"/>
  <path d="M282.84,334.51h-9.2c.44,4.47,5.35,4.58,8.54,2.63,1.03,5.87-10.72,4.74-12.47,1.45-5.46-11.29,14.18-17.99,13.13-4.08ZM278.07,329.43l-2.26-.36-2.16,2.8h5.26s-.83-2.44-.83-2.44Z"/>
  <path d="M383.06,298.08c6.1,7.87-5.83,14.15-12.41,9.45-6.74-9.39,5.92-17.82,12.41-9.45ZM379.29,298.55c-.59-.77-2.99-1.84-4-1.48-3.42,3.8-2.86,5.79.25,9.54l4.01-.81c.8-2.02,1.12-5.46-.26-7.25Z"/>
  <path d="M270.02,148.18c1.31,1.84,1.2,2.24,1,4.92h-8.55c-.46,6.88,5.92,1.85,8.54,4.59-5.93,4.58-14.62,3.36-13.83-5.57.57-6.49,9.46-8.69,12.84-3.94ZM265.68,147.92l-2.6.21-.62,3h3.94s-.73-3.21-.73-3.21Z"/>
  <path d="M215.79,185.96l-8.93.61c-2.2,6.3,7.77,2.18,8.26,2.68.15,5.44-11.7,4.71-13.03.87-4.22-12.16,14.18-16.61,13.7-4.16ZM211.18,183.98c.75-3.93-5.9-3.47-4.27,0h4.27Z"/>
  <path d="M239.91,444.47c6.91,10.21-15.83,17.06-14.96,3.44.5-7.76,11.84-8.05,14.96-3.44ZM231.32,443.71c-2.78,1.11-1.72,11.8,3.09,9.68,2.95-1.07,2.79-12.02-3.09-9.68Z"/>
  <path d="M336.04,333.79l-9.8.73c1.33,1.02,1.5,3.04,3.25,3.66,2.06.73,5.8-1.58,5.95-.04.32,3.22-12.54,6.22-13.11-2.72-.69-10.78,13.57-12.13,13.71-1.63ZM330.84,331.88l-1.65-3.28-2.94,2.64,4.59.64Z"/>
  <path d="M218.42,596.12h-7.89c-.74,4.8,4.02,3.37,7.23,2.63,3.42,4.04-12.67,8.12-12.41-2.9.22-9.66,15.22-10.76,13.08.27ZM214.36,590.96c-1.86-1.05-4.13.55-4.5,2.51h5.26c.24-.2-.52-2.38-.76-2.51Z"/>
  <path d="M260.27,302.48c-.14-.37-1.39.19-1.09-.82,1.98.24,1.1-2.14,2.04-3.55,2.99-4.48,12.3-4.58,13.58.72,2.5,10.34-9.09,13.74-13.58,7.01-.66-.99-.55-2.27-.95-3.36ZM269.99,299.38c-.57-.96-.48-2.34-1.95-2.4l-3.61,1.85c-.56,3.91.09,5.63,3.05,8.01,4.2-1.18,4.4-4.26,2.51-7.46Z"/>
  <path d="M335.92,550.27c2.79,2.57-1.86,4.75-4.09,1.15l-1.66,4.6h3.94s-.64,2.32-.64,2.32l-3.3.31c.42,2.35-.63,6.81.09,8.79.59,1.65,3.08.17,2.54,2.38h-8.54c1.56-3.1,1.67-6.74,1.36-10.22-.11-1.26-1.62-.56-1.43-2.59.02-.24,1.84-4.28,1.99-4.47,1.8-2.4,7.16-4.62,9.73-2.26Z"/>
  <path d="M373.92,566.84c-5.63-8.85,10.44-15.48,13.62-7.36,4.36,11.16-9.59,13.69-13.62,7.36ZM383.94,560.11c-1.33-2.86-6.55-3.43-6.47,2.8.13,9.48,9.81,4.37,6.47-2.8Z"/>
  <path d="M395.27,243.81c-.46,5.22,4.38,3.76,7.89,3.29,2.89,2.47-15.49,9.92-12.2-5.97,1.59-7.67,15.17-5.64,12.24,2.39l-7.93.29ZM399.71,239.99c-1.23-2.08-5.03-1.47-4.44,1.84h4.6c-.04-.61.17-1.27-.17-1.84Z"/>
  <path d="M259.16,233.93l-1.64.66c-3.59-6.21-7.44,3.96-.31,2.64,1.25,3.19-3.69,2.01-3.99,3.01.41,4.07-1.45,7.75,2.67,10.13h-8.54c-.65-1.73,1.2-1.08,1.32-1.74.48-2.72.79-9.35-1.98-10.73,2.74-.13,1.61-2.96,2.64-4.8,1.33-2.37,7.23-4.56,9.26-2.18l.58,3.01Z"/>
  <path d="M401.27,445.49c-.32-.18-2.91-5.99-3.99-.27l7.69,4.46c.93,6.64-7.44,6.55-12.25,5.04l-.08-4.52c2.67-.74,2.56,2.59,4.4,3.17,2.42.77,5.1-1.07,2.55-2.58-3.59-2.13-8.88-1.51-6.35-8.06,3.21-1.79,7-2.63,10.28-.46,1.14,1.71-.4,4.23-2.25,3.22Z"/>
  <path d="M370.19,499.59l.09,3.85c-1.25,1.3-7.24-5.51-6.58-1.64.46,2.7,5.81,2.42,6.89,4.94,3.49,8.11-13.07,9.5-11.48,1.31.79-.89,7.87,6.68,7.91,1.63.02-2.38-5.16-1.82-6.63-4.56-3.44-6.42,5.64-7.51,9.79-5.52Z"/>
  <path d="M274.86,179.49l.09,3.84c-.48.62-5.18-4.35-5.91-.99,1.47,1.43,5.92,2.31,7.03,3.81,5.4,7.38-14.12,10.56-11.56,1.87,3.45-2.03,2.81,4.11,6.67,3.1,5.34-1.39-5.38-5.15-6.74-7.14,1.7-4.93,5.39-6.59,10.41-4.49Z"/>
  <path d="M313.74,241.17c-1.57,1.61-5.09-4.31-6.57-1.97s6.41,3.24,6.88,5.27c3.58,8.25-15.53,9.11-10.49,1.31,2.33,1.76,3.31,4.09,6.89,2.62-.65-4.29-8.16-2.58-7.55-7.98.56-4.92,9.85-4.37,10.75-2.12.07.65.28,2.67.09,2.87Z"/>
  <path d="M236.17,187.94c3.23.4,3.87,4.26,7.88,2.62-.48-3.57-4.64-3.53-6.9-5.24-4.45-7.65,13.57-9.45,9.19-1.98-1.28.27-5.11-4.45-5.57-1.63s8.25,1.94,7.23,7.83c-1.51,4.42-7.55,3.75-11.2,2.7l-.63-4.29Z"/>
  <path d="M273.64,657.25c.29,2.71-2.96,3.65-5.12,3.8-13.44.93-8.29-19.5,3.8-13.33,4.16,3.22-2.08,8.04-4.27.98-5.67,5.04-2.15,10.48,5.59,8.55Z"/>
  <path d="M191.37,589.63l.09,3.85c-9.57-5.61-8.15-.77-.06,2.37,3.31,7.06-5.44,7.95-10.16,5.57l.69-3.96c.53-.11,5.6,6.31,6.9,1.31-13.27-3.11-9.2-13.11,2.54-9.12Z"/>
  <path d="M356.26,297.29c-.66-.42-1.22-.89-2.06-.9-3.09,4.95,9.6,3.04,5.9,10.53-1.89,2.54-10.28,2.95-11.39.2-2.66-6.58,5.32.71,7.42-.2,1.87-5.02-6.44-2.39-6.88-7.65-.54-6.43,14.3-6.18,9.54.38-1.27-.24-1.99-2.03-2.52-2.37Z"/>
  <path d="M312.35,146.6c.77,8.05-4-1.91-7.79,2.22,3.39,3.51,10.69,1.82,8.2,8.88-2.81,3-15.2,3.39-12.09-2.54,1.06-2.02,7.46,6.16,8.47,1.54.55-2.51-8.26-1.85-7.23-7.83.75-4.36,7.33-3.11,10.44-2.27Z"/>
  <path d="M313.74,331.22c-3.13,1.22-4.32-4.36-6.56-1.63l.79,1.85c12.42,4.23,4.59,12.7-4.81,8.72-1.79-7.52,3.08.12,6.63-1.06.7-5.77-7.38-2.26-6.55-8.8.66-5.16,12.11-5.05,10.49.91Z"/>
  <path d="M314.96,556.78l.09,3.84c-.37.48-6.74-5.31-6.58-.99.05,1.32,7.99,1.23,7.82,6.6-.15,4.81-7.87,3.78-11.13,3.31-3.28-9.81,4.11,1.77,7.91-2.67-11.5-4.07-11.85-13.12,1.89-10.09Z"/>
  <path d="M251.94,145.87h3.95s0,1.97,0,1.97h-3.95c.57,3.66-2.12,10.22,3.6,9.2,2.45.81-3.83,3.75-7.12,2.53-2.61-.96-1.44-8.98-1.76-11.28-.07-.5-1.22-.52-1.3-.81-.08-.27,1.95-4.53,2.14-4.74,2.07-2.3,5.61-.29,4.44,3.12Z"/>
  <path d="M200,584.94v3.94s3.94-.66,3.94-.66l.02,2.9-3.96.38v7.89s4.27,0,4.27,0l.33,1.64c-1.61,1.62-7.35,2.45-8.6.55-2.08-3.16,1.79-10.35-2.84-10.67l-.39-1.36c3.21-.08,2.66-2.1,3.92-4.31l3.31-.31Z"/>
  <path d="M387.38,651.33c-1.32,1.51-3.94-4.48-5.91-2.62-2.71,2.56,8.95,4.35,7.87,8.72-1.16,4.72-16.37,5.86-11.5-1.48.4-.08,5.75,6.02,6.9,2.27,1.01-3.28-8.34-2.61-7.7-7.79.55-4.44,12.07-5.87,10.34.9Z"/>
  <path d="M370.19,556.77c.49.78.07,3.72-.89,3.83l-5.26-2.62c-1.55,3.11,4.51,3.25,6.29,5.05,5.59,8.91-14.92,9.43-10.23,2.19,2.44,1.69,3.3,4.13,6.89,2.62,1.65-2.68-5.99-3.99-6.9-5.9-3.32-6.94,9.09-6.78,10.09-5.17Z"/>
  <path d="M161.22,658.56l2.61.33.68,1.64h-10.52c-.29-2.37,2.35-1.07,2.68-2.92.6-3.39-.56-8.57-.05-12.2-7.91.08,3.37-5.8,4.97-3.28.38.46-.37.82-.37.99v15.45Z"/>
  <path d="M201.32,323.33v3.95s3.95,0,3.95,0v1.97c-5.7-1.12-3.95,4.69-3.66,8.59l4.31.62c.3,3.75-7.85,3.17-8.88,1.32-1.36-2.45.8-10.12-2.29-10.54,2.21-2.81,2.05-6.55,6.57-5.9Z"/>
  <path d="M327.45,649.46c-5.31-1.96-5.76,7.28-2.05,8.34,1.3.37,6.05-1.45,6.08.43.01.78-3.15,2.74-4.31,2.92-12.59,2.06-10.67-16.66.55-14.3,2.68.56,5.49,3.87,2.1,5.78l-2.37-3.16Z"/>
  <path d="M408.98,146.62l.09,3.85-2.04-.4c-.08-2.85-2.58-3.07-4.51-1.24-.06,1.07,7.18,3.98,7.72,5.07,2.76,5.61-7.9,8.07-11.58,5.02l-.09-3.84c1.04-1.17,6.5,6.68,7.88,2.29.75-2.39-3.72-2.79-5.25-3.94-1.34-1.01-.81-2.83-2.58-2.99,1.47-5.03,5.78-5.55,10.37-3.8Z"/>
  <path d="M76.4,356.2l-5.25,51.27c-.26-6.05.89-49.36,3.3-51.26.19-.15,1.41.08,1.95,0Z"/>
  <path d="M315.06,438.36v3.29s3.94,0,3.94,0c.62,3.78-1.04,2.49-3.95,2.62v7.89c9.53.7.05,5.9-4.27,1.98-1.67-2.94,1.94-10.66-2.31-10.86l2.71-4.85,3.88-.08Z"/>
  <path d="M355.82,549.45v18.4c0,.18,3.5.12,2.63,1.97h-8.54c-.49-1.94,1.16-.71,1.37-2.25.4-2.94.27-10.81,0-13.93-.18-2.1-2.36-1.83-.97-3.54l5.53-.65Z"/>
  <path d="M160.56,588.89h3.94c.48,3.2-2.25,2.7-4.6,2.62l.58,7.51,4.02.39c.39,4.32-5.64,4.11-8.22,1.97-1.16-2.05.35-7.19-.31-9.39-.24-.8-1.85-.87-1.99-1.46-.43-1.85,7.5-10.57,6.58-1.63Z"/>
  <path d="M378.18,327.29c-2.89,1.41.99,9.46,1.64,9.2.91-3.03,2.72-5.98,1.65-9.21h5.25c-1.61,1.52-5.61,13.59-6.33,13.84-.42.15-3.07.09-3.44-.13-.62-.38-3.6-12.32-6.66-12.41l.32-1.3h7.56Z"/>
  <path d="M298.62,380.52v3.94c.19.18,5.1-.68,4.61,1.63l-4.32.95-.19,7.51c.85,2.21,5.29.03,4.5,2.05s-5.21,2.06-6.9,1.65c-4.16-1.02-1.41-8.85-2.25-11.47-.3-.94-2.46.43-2.02-1.34,2.96-1.55,2.66-5.07,6.57-4.93Z"/>
  <path d="M161.87,139.95v17.75l2.64.32c3.23,1.95-8.56,1.88-9.22,1.65l.4-2.04c4.55-.6,1.25-10,2.23-13.73l-2.9.02c-3.33-1.07,5.51-4.63,6.84-3.96Z"/>
  <path d="M347.18,441.75c.96,7.07-3.94,1.75-5.16,2.54-.55,2.83-2.42,9.39,1.93,9.25l.04,1.92h-8.55c-.78-1.8,1.21-1.94,1.3-2.42.5-2.97.35-7.76-1.3-10.37l11.74-.91Z"/>
  <path d="M254.57,295.07h3.95s0,2.62,0,2.62h-3.95s.08,7.81.08,7.81l3.42.72c3.24,2.09-5.61,4.33-7.12,1.33-1.16-2.29.36-7.18-.3-9.42-.34-1.15-3.65-.38-2.67-2.75.33-.8,2.16-.51,2.55-1.1.25-.38-.17-4.14,3-3.08,1.45.48,1,2.73,1.04,3.86Z"/>
  <path d="M362.39,141.92v3.94s4.61.33,4.61.33l-1.1,2.19-3.51.1c.07,3.96-1.3,9.18,4.18,8.54,2.34,3.09-5.32,3.16-6.81,2.31-2.25-1.28-1-9.03-1.3-11.51l-2.63-.97c4.36-1.11,1.98-5.33,6.56-4.94Z"/>
  <path d="M256.55,502.12c-.25,2.19-1.13,4.7-.67,6.92.38,1.86,2.68,1.21,1.99,3.59h-8.54c-.52-1.88,1.35-1.1,1.84-2.41.62-1.69,1.27-6.98.19-8.38-.26-.33-3.62-.62-2.04-2.35.39-.42,10.77-.82,11.4-.58,3.07,1.15-.16,6.76-4.16,3.21Z"/>
  <path d="M305.86,435.08v18.4c0,.1,1.83-.15,1.97,0v1.97c-1.74-.31-8.74,1.1-8.55-1.63.05-.7,2.21-.54,2.54-1.09.37-.63.36-13.88.14-14.6-.26-.82-3.14-.3-2.67-2.38l6.57-.66Z"/>
  <path d="M279.72,149.6c-.16-.03,0-1.74-1.46-1.1-.75.78-.94,6.9-.56,8.13.34,1.09,2.65.8,1.87,3.04h-7.89c2.09-4.22,1.82-8.88.01-13.11,1.55.05,9.35-1.44,10.03-1.25,2.48.7,3.24,5.42-1.99,4.3Z"/>
  <path d="M380.09,149.75l-3.92-.92c-2.35-.46-1.4,9.07.03,10.83h-8.54c-.57-2.1,1.72-.96,2.33-1.92.98-1.54-.1-7.1.3-9.26h-2.64c-.64-4,4.6-1.94,6.88-1.99s6.69-3.34,5.56,3.25Z"/>
  <path d="M281.36,556.23c.15.02.17,1.14.5,1.13,1.14-.04,2.64-2.14,5.14-1.37,2.81,3.47.08,6.14-3.29,3.41-2.11-.25-1.88,7.05-1.57,8.04.26.82,3.14.3,2.67,2.38h-8.54c-.49-1.94,1.17-.71,1.37-2.25.22-1.68.18-6.23,0-7.98-.14-1.29-2.02-.83-1.36-2.91,1.91-.34,3.07-.67,5.09-.45Z"/>
  <path d="M332.74,295.79c.88,1.18-1.05,2.42-1.72,3.22l-3.45-1.31c-2.28,3.45-2.23,7.7.98,10.51l-8.23.65v-1.97c3.08,1.69,3.08-10.89,0-9.21l.29-2.01c.68-.78,11.25-1.09,12.13.1Z"/>
  <path d="M490.6,675.65c.15,5.57-.09,11.96.61,17.46.15,1.16,1.19.88,1.34,1.41.22.75-2.15,13.1-2.64,14.95-.8,3.04-2.65,1.78-2.62-1.24.06-4.95,2.27-9.64,2.02-15.85-.19-4.8-4.05-14.45,1.28-16.73Z"/>
  <path d="M272.98,556.02v11.5c0,.29,1.8,1.13,1.31,2.3h-7.88c-.42-2.05,1.56-.89,1.98-2.93.4-1.92.83-9.23-1.99-8.57-.3-2.1,5.32-2.54,6.58-2.29Z"/>
  <path d="M315.06,646.73v10.85c0,.7,2.37,1.88,3.29,1.65,1.27,1.59-9.06,1.73-9.21.97,2.34-1.53,2.71-7.59,2.03-9.82-.22-.72-3.21.2-2.01-2,.69-1.27,4.5-1.34,5.91-1.65Z"/>
  <path d="M328.21,236.57v11.5c0,.29,1.8,1.13,1.31,2.3h-7.22c-.5-1.7,1.7-1.47,1.98-2.44.32-1.11.11-6.98-.36-8.08-.2-.47-2.97-.87-1.23-2.68l5.53-.6Z"/>
  <path d="M222.36,379.87c-1.15,5.43-6.07,1.67-9.85,3.28-.52-5.73,6.14-3.7,9.85-3.28Z"/>
  <path d="M222.36,494.24c.07,5.51-6.17,1.68-9.86,3.28.68-5.18,6.02-3.93,9.86-3.28Z"/>
  <path d="M221.7,437.05c-1.38,5.87-6.46.73-10.51,3.28.96-6.32,6.28-3.08,10.51-3.28Z"/>
  <path d="M221.7,290.48c-1.62,5.09-6.71,1.45-10.51,3.28.48-6.19,6.41-3.15,10.51-3.28Z"/>
  <path d="M233.53,642.13l-1.76,3.19c-2.56-.86-10.25,1.46-7.97-2.41,3.21-2.42,6.17.17,9.73-.77Z"/>
  <path d="M398.56,322.02c.2,1.49-.39,2.62-1.8,3.16l-7.41.12,2.44-3.83,6.77.55Z"/>
  <path d="M220.38,232.63c-1.74,5.53-6.08.61-9.85,2.62.54-6.03,5.97-2.88,9.85-2.62Z"/>
  <path d="M222.36,551.42c.21,4.88-6.7,1.03-9.86,3.28.68-5.18,6.02-3.93,9.86-3.28Z"/>
  <path d="M218.41,141.27c-.59,6.09-5.98.02-9.19,3.28-.39-6.13,5.31-3.33,9.19-3.28Z"/>
  <path d="M178.97,391.69c-8.85,2.95-11.97-3.86-1.09-2.51l1.09,2.51Z"/>
  <path d="M175.56,446.42c1.11-.07,2.19-.59,3.11.46.49,6.62-14.68.29-3.11-.46Z"/>
  <polygon points="178.97 503.44 178.35 506.43 171.73 506.72 171.75 504.12 178.97 503.44"/>
  <path d="M408.9,450.95c4.6-1.19,4.47,5.93-.66,4.38-2.87-.87-1.41-3.85.66-4.38Z"/>
  <path d="M312.92,640.91c2.55-.3,3.79,3.1,2.17,4.21-3.99,2.75-7.06-3.63-2.17-4.21Z"/>
  <path d="M437.91,246.53c1.67.97-.26,6.57-3.58,3.91-3.04-2.44.95-5.44,3.58-3.91Z"/>
  <path d="M283.4,192.44c-1.1,1.77-6.23.34-4.88-2.53,1.46-3.1,6.93-.76,4.88,2.53Z"/>
  <path d="M272.88,550.87c2.3,3.63-4.29,5.4-5.08,2.06-.71-3.02,4.23-3.41,5.08-2.06Z"/>
  <path d="M392.41,656.67c3.76-1.45,6.1,3.92,1.71,4.43-2.8.32-3.91-3.58-1.71-4.43Z"/>
  <path d="M328.03,231.49c2.78,2.3-2.51,5.44-4.13,3.15-1.96-2.78,1.46-5.37,4.13-3.15Z"/>
  <path d="M362.51,394.43c3.85-2.33,6.85,3.81,2.2,4.21-3.01.26-3.73-3.29-2.2-4.21Z"/>
  <path d="M170.5,244.39c-.18-.1-.14-1.3-.72-1.58l1.1-.85c10.98-2.9,4.96,5.36-.38,2.42Z"/>
  <path d="M323.61,665.79c-.5-4.17,3.15-5.21,5.91-2.28-.57,2.89-3.66,2.33-5.91,2.28Z"/>
  <path d="M178.96,561.28l-1.09,2.52c-2.14.04-5.13.87-6.79-.89-.91-1.85,7.28-1.74,7.88-1.63Z"/>
  <path d="M389.35,436.4c.32,1.08-4.12,3.73-4.4,3.81-5.85,1.61.2-6.97,4.4-3.81Z"/>
  <path d="M425.37,337.91c1.87,2.96-7.48,5.08-4.8-.1,1.01-1.96,4.06-1.07,4.8.1Z"/>
  <polygon points="176.33 150.47 175.22 153.12 169.1 153.09 169.1 150.47 176.33 150.47"/>
  <path d="M322.48,602.47c-.14-.03-2.01-1.72-1.48-2.38,5.27-5.44,8.05,3.95,1.48,2.38Z"/>
  <path d="M378.09,512.55c-1.28,2.2-4.61-1.08-5.16-2.53,2.57-2.81,7.09-.78,5.16,2.53Z"/>
  <path d="M343.99,289.16c1.63,1.45-5.51,6.31-5.91,3.6,1.36-3.01,2.4-4.29,5.91-3.6Z"/>
  <polygon points="190.15 651.99 190.15 654.61 183.57 654.61 184.66 652.09 190.15 651.99"/>
  <path d="M178.31,299.68c1.43,3.69-7.91,3.04-7.88,1.64l7.88-1.64Z"/>
  <path d="M343.32,379.23c1.34,1.75-5.01,4.93-6.56,3.25.93-1.47,4.9-5.41,6.56-3.25Z"/>
  <path d="M294.03,554.7c-.94-2.05,5.4-6.48,5.91-3.6.27,1.52-4.36,4.23-5.91,3.6Z"/>
  <path d="M295.76,230.71c.86-.12,2.42,1.41,2.21,2.24l-4.92,2.97c-2.71-.96,2.19-5.13,2.71-5.2Z"/>
  <path d="M296.65,140.62c1.04,1.38-5.5,4.03-6.56,3.27l3.49-4.14c.55-.44,2.98.74,3.07.87Z"/>
  <path d="M371.6,641.47c1.18,2.27-4.76,5.11-5.25,4.59-.17-3.21,2.2-4.93,5.25-4.59Z"/>
  <path d="M355.16,493.59c1.53,2.14-5.91,5.38-5.9,2.95.8-1.25,4.65-4.69,5.9-2.95Z"/>
  <path d="M200.66,730.21v2.62c-9.81-.4-19.41-1.57-29.29-1.34-4.8.11-9.38,1.57-14.47,1.38-8.2-.31-16-4.3-24.27-4.65-9.67-.42-24.71.38-34.86.7-10.99.34-20.22,4.06-32.06,1.79-1.13-.22-3.1-.59-3.12-2.13.47-2.13,15.8-.15,18.72-.36,4.2-.29,8.93-2.25,13.17-2.6,9.62-.8,35.53-1.09,44.6.25,4.46.66,10.91,3.27,15.23,3.68,9.01.85,18.27-1.71,27.64-1.34,5.94.24,12.61,2.13,18.72,2Z"/>
  <path d="M363.68,731.57c.2.26-.05,1.37.04,1.92-5.68.59-11.18-1.69-16.78-1.96-7.29-.35-14.82.98-22.37.67-11.46-.47-21.5-2.41-33.53-2.02-2.87.09-17.14,2.42-18.32,1.38-2.77-2.46,6.27-3.61,7.99-3.81,16.21-1.93,31.45,1.06,47.15,1.82,6.68.32,12.49-1.91,19.09-1.34,1.79.15,16.2,2.66,16.73,3.34Z"/>
  <path d="M531.92,728.33l.11,2.52c-7.94-2.21-14.71.41-22.71.03-5.18-.24-9.29-1.97-15.1-1.35-5.16.56-10.91,3.79-16.47,3.96-6.51.2-15.74-2.07-22.64-2-.51-1.95,2.27-1.86,3.58-1.99,10.31-1,16.5.74,27.83-1.1,11.58-1.89,15.7-.14,26.11-.14,6.38,0,13.02-3.26,19.29.05Z"/>
  <path d="M91.44,739.48l-.34,2.47c-4.76-.58-9.85,1.5-14.36,1.46-6.63-.06-15.19-2.99-22.36-3.33-1.88-.09-23.57,2.04-23.32-1.65.78-1.2,1.76-.91,2.91-1.02,13.63-1.33,24.2,1.43,36.86,2.65,6.82.66,13.82-.48,20.62-.58Z"/>
  <path d="M525.32,737.63c5.97-.57,9.54.96,14.92,1.17,6.34.25,14.07-2.43,20.05,2.25-.77,1.14-1.76.99-2.94,1.05-7.28.34-17.4-1.27-24.96-1.4-5.43-.1-10.85.61-16.14.36v-1.34c3-.75,5.98-1.8,9.08-2.09Z"/>
  <path d="M517.15,504.32c2.63-17.74.99-33.5,2.39-51.15.15-1.83.38-5.96,1.95-6.91l-1.97,84.46c-.41,2.3-2.75,2.41-3.27,0-.75-3.45-.9-13.35-.69-17.11.18-3.09,1.13-6.23,1.59-9.28Z"/>
  <path d="M523.23,578.15c-.03.16-.96.26-1.03.7-1.91,10.9,1.37,23.69-.7,35.02h-1.97c.67-10.54-.9-22.15-.02-32.56.39-4.62,2.39-9.21,2.67-13.76.36-5.8-1.31-10.96-1.38-16.45-.08-6,1.8-12.81,1.34-18.94l1.99-1.11c.99,1.32-.76,16.53-.7,19.39.24,11.23,1.68,15.68-.19,27.71Z"/>
  <path d="M491.5,142.35c7.25,8.81,13.89,15.56,16.15,27.01.21,1.05,1.02,7.69.7,8.05-6.02-.58-3.27-10.9-5.97-15.25l-16.4-23.2.35-1.65c3.33-.63,3.62,3.16,5.17,5.03Z"/>
  <path d="M519.53,640.15c.1,15.6,4.44,29.9.54,45.57l-3.17,1.1c.16-1.75-.29-3.77.02-5.45.35-1.87,2.34-5.91,2.59-9.36.85-11.8-4.26-20.46-2.61-31.87h2.62Z"/>
  <path d="M516.9,220.14c.21,2.17-.31,4.66.03,6.77,1.59,10,1.66,18.11-.19,28.24-.15.83-.7,2.86-1.48,3.11l-1.7-1.09c2.65-12.26,2.05-24.6,1.37-37.02h1.97Z"/>
  <path d="M518.21,357.52c-1.16,2.64,2.89,20.01.34,20.35-.71-.6-1.85-.73-2.2-1.73-.59-1.68-1.19-16.14-.66-17.53l2.52-1.09Z"/>
  <path d="M384.75,86.06c-.53,1.64-2.27,1.33-3.58,1.32-3.94-.05-15.12-1.28-19.06-2.03-1.19-.23-2.21-.62-2.99-1.6,1.08-1.45,2.72-1.01,4.24-.98,6.68.14,14.83,1.78,21.39,3.29Z"/>
  <path d="M523.47,256.29c-6.74,1.86-1.41-13.03.6-7.45l-.6,7.45Z"/>
  <polygon points="340.7 392.36 339.95 395.55 336.75 395.64 336.86 393.11 340.7 392.36" fill="#fff"/>
  <path d="M345.64,329.91c2.84-.46,2.55,13.77-1.67,8.86-.94-1.09-.08-8.58,1.67-8.86Z" fill="#fff"/>
  <path d="M264.52,396.21l.02-7.7c6.52-4.34,6.66,11.87-.02,7.7Z" fill="#fff"/>
  <path d="M313.09,392.36c-.62,1.52-.5,2.96-2.45,3.16-4.24.23-1.79-4.68,2.45-3.16Z" fill="#fff"/>
  <path d="M324.26,506.73c.16,3.99-5.94,4.78-3.67.62l3.67-.62Z" fill="#fff"/>
  <path d="M340.7,654.62c.2.22-.11,2.54,0,3.29h-2.62s.31-2.65.31-2.65c.28-.76,2.13-.83,2.31-.64Z" fill="#fff"/>
  <path d="M425.41,240.62l.02,7.71-4.13.15-.1-8c.83-1.22,3.13-.41,4.21.14Z" fill="#fff"/>
  <polygon points="231.57 592.17 231.49 600.64 227.36 600.79 227.25 592.79 231.57 592.17" fill="#fff"/>
  <path d="M253.92,338.45v-13.8c11.1-1.28,11.57,15.83,0,13.8Z" fill="#fff"/>
  <path d="M356.48,448.88c.42,1.36-.69,4.23-2.29,3.94l-.68-2.64,2.97-1.3Z" fill="#fff"/>
  <polygon points="266.41 244.47 265.66 247.65 262.46 247.74 263.08 244.75 266.41 244.47" fill="#fff"/>
  <path d="M377.52,251.04c1.5.22,8.34-.96,7.89,1.63-2.51,3.1-8.49,3.43-7.89-1.63Z" fill="#fff"/>
  <path d="M383.93,240.01c1.88,3.51-4.02,6.27-4.45,2.12-.35-3.45,3.2-4.45,4.45-2.12Z" fill="#fff"/>
  <path d="M193.99,182.12c.25.4.25,6.62,0,7.02l-4.55.48c-3.23-3.65,1.91-11.76,4.55-7.5Z" fill="#fff"/>
  <path d="M171.17,644.19c6.7-2.93,5.3,13.55,3.44,14.29-5.61,2.23-5.63-11.37-3.44-14.29Z" fill="#fff"/>
  <path d="M160.06,329.42c4.9-5.09,7.8,12.31-.53,7.76-.72-1.03-.45-6.74.53-7.76Z" fill="#fff"/>
  <path d="M270.12,443.7c1.09-.41,3.04-.26,3.43,1,.08,3.05,1.41,8.88-3.38,7.34l-1.65-1.66c-.47-1.48-.03-6.07,1.6-6.68Z" fill="#fff"/>
  <path d="M164.4,502.88c3.25,10.84-6.86,11.07-5.16-.1l5.16.1Z" fill="#fff"/>
  <path d="M304.96,501.52c5.6-2.09,6.55,11.21-.47,8.87-.97-.71-1.24-8.24.47-8.87Z" fill="#fff"/>
  <path d="M254.75,558.82c4.42-4.12,6.39,7.17,2.13,8.92-3.42-.6-3.99-7.2-2.13-8.92Z" fill="#fff"/>
  <path d="M163.67,560.45c-5.12,2.69-6.05-4.56-3.37-7.68,4.16.02,5.25,4.47,3.37,7.68Z" fill="#fff"/>
  <path d="M299.07,650.12c6.06-2.2,4.79,7.45,2.4,8.32-5.61,2.55-5.12-7.34-2.4-8.32Z" fill="#fff"/>
  <path d="M163.18,385.12l-.09,5.16-5.16.75c.78-.92,3.79-7.56,5.26-5.91Z" fill="#fff"/>
  <path d="M403.06,306.8c-7.21,3.71-6.54-9.25-1.52-9.11,2.76.08,1.36,7.15,1.52,9.11Z" fill="#fff"/>
  <path d="M351.87,506.73c.06,4.44-3.48,4.94-2.62,0h2.62Z" fill="#fff"/>
  <path d="M218.41,506.73c.58.57-.6,4.74-3.21,3.22-2.13-1.25,1.91-4.49,3.21-3.22Z" fill="#fff"/>
  <path d="M313.08,302.31c1.36,1.38-1.88,4.76-3.94,3.94l.59-3.02c.48-.84,3.01-1.26,3.35-.92Z" fill="#fff"/>
  <path d="M256.36,451.98c-1.71,1.56-4.61.9-2.79-1.81,1.61-2.4,5.2-.38,2.79,1.81Z" fill="#fff"/>
  <path d="M284.81,392.36c-.05,1.81-1.21,3.75-3.28,3.28l.61-2.99,2.67-.29Z" fill="#fff"/>
  <path d="M230.24,654.62c.49,2.43-1.91,3.37-3.94,3.28l.61-2.99,3.32-.29Z" fill="#fff"/>
  <path d="M215.13,395.64c-1.59-.87,1.1-3.98,2.3-3.92,2.08.09-.02,5.17-2.3,3.92Z" fill="#fff"/>
  <path d="M236.07,396.2c-.49.29-3.19.28-3.73-.02-2.13-2.7-2.45-11.53,2.5-9.4,2.8.65,2.34,8.76,1.24,9.43Z" fill="#fff"/>
  <path d="M409.5,328.7c5.83.13,4.04,13.79-.82,9.82-1.49-1.65-1.68-9.36.82-9.82Z" fill="#fff"/>
  <path d="M231.48,157.61c-4.6,2.97-7.39-8.27-3.42-9.68,5.69-2.03,4.88,8.74,3.42,9.68Z" fill="#fff"/>
  <path d="M215.13,567.85c-1.16-.77-.24-5.16,2.28-4.6,2.11.47-.86,5.54-2.28,4.6Z" fill="#fff"/>
  <polygon points="367 244.46 366.23 247.64 363.72 247.74 364.33 244.75 367 244.46" fill="#fff"/>
  <path d="M267.81,500.9c5.89-2.28,6.44,9.45,2.75,10.36-4.29.86-4.12-9.51-2.75-10.36Z" fill="#fff"/>
  <path d="M387.86,147.93c4.88-1.38,5.92,9.19,1.78,9.78-4.41.48-3.75-4.96-3.43-8.09.24-.76.87-1.47,1.65-1.69Z" fill="#fff"/>
  <path d="M338.08,306.24l.1-3.18,2.52-.76c.2,2.13.21,4.45-2.62,3.94Z" fill="#fff"/>
  <path d="M420.17,297.14c1.35,3.15,2.23,6.4.11,9.46-5.34,3.44-7.4-11.75-.11-9.46Z" fill="#fff"/>
  <path d="M393.07,334.59c3.54-1.2,3.76,3.58.52,3.88s-2.25-3.29-.52-3.88Z" fill="#fff"/>
  <polygon points="293.36 153.1 292.77 156.12 289.42 157.04 290.04 153.38 293.36 153.1" fill="#fff"/>
  <path d="M181.5,339.01c-5.97,2.12-6.83-10.15-2.07-10.3,3.7-.12,3.31,8.11,2.07,10.3Z" fill="#fff"/>
  <path d="M284.73,658.47c-5.91,1-5.5-3.53-5.06-8.02,5.15-5.45,7.11,4.3,5.06,8.02Z" fill="#fff"/>
  <path d="M326.4,156.87c-1.12-3.2-2.09-9.21,2.66-8.93,2.84.84,3.26,8.09.69,9.71l-3.35-.78Z" fill="#fff"/>
  <path d="M216.78,448.9c1.55.07.29,4.21-1.31,3.92-2.1-.38-.46-4,1.31-3.92Z" fill="#fff"/>
  <path d="M310.25,590.95c.9-.32,1.98-.17,2.85.23,2.03,1.09,2.47,8.57.24,9.47-4.81,1.93-6.53-8.47-3.08-9.7Z" fill="#fff"/>
  <path d="M294.68,244.46l-.29,2.66-2.99.61c-.3-2.05,1.19-3.57,3.28-3.28Z" fill="#fff"/>
  <path d="M234.63,240.73c1.93,2.99.32,9.45-3.55,7.88-6.72-2.73-.84-14.66,3.55-7.88Z" fill="#fff"/>
  <path d="M258.52,183.98h-3.95s0-2.62,0-2.62c2.13-.2,4.45-.2,3.94,2.62Z" fill="#fff"/>
  <path d="M174.36,593.48c-1.24-.4-4.58,1.04-4.58-.97,0-2.61,5.44-2.45,4.58.97Z" fill="#fff"/>
  <path d="M385.4,448.88l-1.3,3.63-2.64-.69c.41-2.28,1.58-3.34,3.94-2.94Z" fill="#fff"/>
  <path d="M216.44,331.88h-4.27c-2.26-.69,3.72-6.93,4.27,0Z" fill="#fff"/>
  <path d="M214.47,153.1c.4,2.51-.02,3.83-2.63,4.31l-1.02-3.01,3.65-1.3Z" fill="#fff"/>
  <path d="M217.1,302.31l-.99,3.93c-.95.52-4.01-1.96-2.54-2.68l3.53-1.25Z" fill="#fff"/>
  <path d="M231.65,500.9c7.77-2.19,5.77,14.09.51,9.5-2.54-2.22-1.93-6.81-.51-9.5Z" fill="#fff"/>
  <path d="M231.07,558.82c5.84-2.79,7.14,5.49,4.02,8.97l-2.41-.05c-2.75-.91-2.87-6.67-1.61-8.92Z" fill="#fff"/>
  <path d="M242.9,649.52c4.43-4.59,7.78,8.45,2.65,9.61-3.65.83-4.54-7.66-2.65-9.61Z" fill="#fff"/>
  <path d="M293.37,567.85l.29-3.32,3.65-1.28c.52,3.09-.76,4.68-3.93,4.6Z" fill="#fff"/>
  <path d="M329.52,446.25c-.71-.27-5.28.83-4.59-.97,1.64-2.42,5-2.48,4.59.97Z" fill="#fff"/>
  <path d="M369.63,654.62c.22.2-.38,2.95-.75,3.18l-3.84-.9c-.42-1.84,3.87-2.96,4.59-2.29Z" fill="#fff"/>
  <path d="M216.44,244.46c2.35,2.1-7.29,6.12-3.28.32.64-.39,3.04-.54,3.28-.32Z" fill="#fff"/>
  <path d="M343.32,563.93c.79,1.04-2.18,4.04-2.93,3.91-3.06-.52.74-6.79,2.93-3.91Z" fill="#fff"/>
  <path d="M231.33,297.14c.89-.33,2.15-.15,3.1,0,2.14.79,2.64,8.77-.02,9.68-5.37,1.83-5.87-8.63-3.07-9.68Z" fill="#fff"/>
  <path d="M463.65,300.33h-4.6c-.01-3.07.9-4.09,3.98-2.99l.62,2.99Z" fill="#fff"/>
  <polygon points="278.07 329.43 278.9 331.87 273.64 331.88 275.8 329.07 278.07 329.43" fill="#fff"/>
  <path d="M379.29,298.55c1.38,1.79,1.06,5.23.26,7.25l-4.01.81c-3.11-3.75-3.66-5.74-.25-9.54,1.01-.36,3.41.71,4,1.48Z" fill="#fff"/>
  <polygon points="265.68 147.92 266.41 151.12 262.46 151.12 263.08 148.12 265.68 147.92" fill="#fff"/>
  <path d="M211.18,183.98h-4.27c-1.64-3.47,5.02-3.93,4.27,0Z" fill="#fff"/>
  <path d="M231.32,443.71c5.88-2.34,6.03,8.61,3.09,9.68-4.81,2.12-5.86-8.57-3.09-9.68Z" fill="#fff"/>
  <polygon points="330.84 331.88 326.25 331.24 329.18 328.6 330.84 331.88" fill="#fff"/>
  <path d="M214.36,590.96c.24.13,1,2.32.76,2.52h-5.26c.37-1.97,2.64-3.57,4.5-2.52Z" fill="#fff"/>
  <path d="M269.99,299.38c1.9,3.21,1.69,6.28-2.51,7.46-2.97-2.38-3.62-4.1-3.05-8.01l3.61-1.85c1.47.06,1.38,1.44,1.95,2.4Z" fill="#fff"/>
  <path d="M383.94,560.11c3.35,7.18-6.34,12.28-6.47,2.8-.08-6.23,5.14-5.66,6.47-2.8Z" fill="#fff"/>
  <path d="M399.71,239.99c.34.57.12,1.23.17,1.84h-4.6c-.6-3.31,3.21-3.91,4.44-1.84Z" fill="#fff"/>
</svg>