<?xml version="1.0" encoding="UTF-8"?>
<svg id="Camada_1" xmlns="http://www.w3.org/2000/svg" version="1.1" viewBox="0 0 595.3 841.9">
  <!-- Generator: Adobe Illustrator 29.0.0, SVG Export Plug-In . SVG Version: 2.1.0 Build 186)  -->
  <path d="M595-1.1v844H0V-1.1h595ZM11.2,9.1c-.8.8-2.1,4.8-2.2,6.2v809.1c.4,5.6,5.2,8.5,10.5,8.5h557.1c2.9,0,5.2-2,7-4V10.9l-3.8-3.2L17.5,6.8c-1.4.2-5.4,1.4-6.2,2.3h-.1Z"/>
  <path d="M11.2,9.1c.8-.8,4.8-2.1,6.2-2.2l562.3.8,3.8,3.2v818c-1.8,2.1-4,4-7,4H19.5c-5.3,0-10.1-2.9-10.5-8.5V15.4c.1-1.4,1.4-5.4,2.2-6.2h0ZM581,551.9V13.4c-1.7-2-3.8-3.5-6.5-3.5l-557.8.2c-2.2.7-4,1.6-3.7,4.3v529.1c4.2,14,14.1,28.4,27.1,35.5-.8-5.1,3.4-7.3,8-7-.7-6.1,4.3-13.4,10.6-14,2.6-.2,4.8,1.4,7.4,1,1.7-8.1,11.4-12.5,19.3-10.8,3.9.8,6.6,5.1,8.3,5.7,2.6.8,4.4-1,6.6-.7,2.3.3,7.9,3.1,8.6,5.5.8,2.9-.4,7.2.3,10.2,1.7.7,4.6,1.4,5.9,2.6.8.8.8,2.4,1.6,2.5,3.4.5,9.9-4.1,13.4-5.6,8.6-3.4,19.3-6.3,28.5-7.5,2.7-.4,5.6.4,8.5-1-12.3-23.9-14.1-51.8-4.5-77,10.4-25.8,31.3-48.9,56.3-61.2l3.2-12.3-2-1c-4.4,2-9.3,3.8-14,5.1-9.7,2.7-22.7,5.9-32.5,6.5-8.8.6-14.4.8-13.5-10-9.4.6-18.7,3.9-28,.5l-.9-1.2c1-6-2.1-3.7-4.6-6.4-2.1-2.3.2-4.4-.9-6-.8-1.1-4-1.7-4.5-3.6-.8-2,2-3.2,2-4.9s-2.9-2.6-1.9-5.9c1.5-5,17.3-4.7,21.9-4.6-.8-19.1,13.3-2.3,19.5-3,1.5-.2,2.3-1.8,4-2.1,8.3-1.3,18.3-.8,26.9-2.1,6.4-.9,13.1-3.2,19.6-3.9l-6.9-4.6c-5.4-4.3-7.9-8.8-7-15.9s8-8.5,8.8-11.2c-.7-5.9-2.7-10.6-1.9-16.8,1.3-10,13.1-14.5,18.4-21.6,3.6-4.8,5.3-11.1,8.1-15.9,9.4-16.2,32.5-25.4,50.9-23,2.6.3,5.6,2.6,7.2,2.8,1.8.2,6.4-2.4,8.9-2.8,15.4-2,34,5.4,44,16.9,6.4,7.4,9.3,16.8,15,24,6.1,7.6,14.6,8.1,17,20,1.1,5.5-.2,7.9-.6,12.5-.4,5.6,1.6,4.7,4,8,4.4,6,6.2,11.8,1.5,18.5-2.4,3.3-6.9,4.2-7.5,8,4.8,0,9.8,1.5,14.5,2,9.5,1,21.7-.4,30,1,1.6.2,2.2,1.6,3.2,1.9,4.1,1.2,11.5-5.7,15-6.7,2.1-.6,4.3.4,6.3-.7,2.3-1.1,7.7-8.2,10.5-10.5,18.9-15.5,44.4-18.7,66.5-8.5,16.1,7.4,32.3,23.6,34,42,.5,4.9-1.1,13.8,0,17.9.6,2.1,4.4,3.3,4.8,6.1,1.6,11-5.1,19-16.5,17.5-2.3-.3-4.9-2.2-7-2-1.5.1-2.9,1.9-4.5,2.6-4.3,1.9-8.5,1.8-12.7-.3-1.5-.7-3-3-3.9-3.1-1.1-.2-3.1,1.6-4.9,1.9-12,1.9-21.7-7.9-15.4-19.4,3-5.4,9.5-5.7,14.9-6.1,1.6-1.5,1.5-3.9,2.5-5.5,2.1-3.6,6.7-3.4,3.3-9.4-5.8-10.4-14.9-12.9-26.3-11.6-6.6.8-14,6.1-17,12-1.4,2.7-1.5,6-3.6,8.5l-6-1.5-.5,7c-.9,1.4-4.1,1.6-4.4,2.1-.9,1.3,1,4.1-3.4,6.1-6.6,2.9-20.5-.4-27.7-1.2.2,2.3-1.4,9.2-3.6,9.9-10.7.4-22.1-.9-32.6-3.1-8.6-1.8-16.9-5.1-25.2-7.8-1.7-.2-1.6,0-1.5,1.5.1,1.9,3.1,14,4,15,25.4,15,45.8,39.4,53.2,68.3l20.8,4.2,3-17c-9.6.4-12.1-5-11-14-11.5-.6-14.5-16.6-3.1-20.2-1-11.1,6.9-15.3,17.1-13.9,3.3-15.7,26.3-14.4,28.2,1.9,5.6-.3,14,5,14.9,10.6,1.2,8.3-1.9,12.2-7.9,17.1.5,3.2,1.6,6.3.7,9.6-1.2,4.3-5.4,4.1-6.3,5.7-.7,1.2-.3,2.9-1.4,4.6-3.1,4.8-8.2,3.8-13,2.5l-3,18,46,13,2.9-12.4c-.4-1.4-4.5-2.6-5.5-4.6s0-5.1-.6-5.9c-13.1-3.4-11.7-22,2-23.1-1.3-10,9-16.6,17.6-11.1,11.9-12.9,27.5-5.2,25.6,12,2.3,1.3,6.2,2.8,7.9,4.6.9,1,3.9,6.7,3.8,7.9-.3,3.6-4.7,10.4-8.1,11.9-1.6.7-3.8.6-4.8,1.2-.5.4-2.2,4.9-3.5,6.5-5.1,6.3-9.9,5.2-17.4,5.1l-2.8,13.5c.2,2.5,13.8,7,16.5,8.3,15,7.1,29.5,15,43.3,24.2h0ZM367.7,309.2c-1.5-1.6-5.4-3.6-7.2-5.3-9-8-12.4-20.7-21-30-8.6-9.4-26.4-15.6-39-13.9-3.2.4-8,3.6-10.8,2.8-.8-.2-1.5-1.3-2.5-1.6-16.2-4.7-38.6,3.2-49.2,16.2-5.1,6.3-6.4,13.3-10.5,19.5-4.9,7.3-13.9,10.3-17.7,18.3-4.5,9.6,1.8,15.4,0,21-.8,2.6-5.8,4.8-6.9,6.3-2.6,3.6-2.7,10.9.3,14.1.4.5,1.6.6,2.2,1.2,7.8,7.4,11.8,8.3,22.5,5v-23.4c-4.3-2.2-10.1-5.9-10.9-11.1-.9-6,.6-12.2,6.9-14,3.2-.9,10.6-.5,9.9,3.8-2.6,17.2-9,43.3,2.2,58.2,3.8,4.4,8.5,5.9,14.1,7,1.7,4.7,2.5,9.2,5.9,13.1,16.6,18.5,64.1,14.7,71.2-12.3,10.3-1.7,17.3-6.5,21-16.5,5.3-17.1,1.8-34.3-.1-51.6,15.5-6.7,23.6,13.1,10.9,21.4-1.8,1.2-5.4,1.5-5.9,3.1l-1.1,20.4c.6.6,14.3,3.7,15.5,3.6,3.4-.2,12.5-8.7,13.3-12.3.9-3.8-.5-6.2-2.4-9.3-1-1.7-4.9-5.4-5.3-6.7-1.4-4.7,1.4-10.2.8-14.8-.4-3.4-3.9-9.9-6.2-12.3h0ZM229,335.9l2.7-17.5c-1.9-3.6-5.6-3-8.6-.9-8.3,5.6-3.2,18,5.9,18.5h0ZM353,336.9c9.4-.2,14.2-14,5.4-18.9-2.5-1.4-6.5-2.3-8.3.5l3,18.4h-.1ZM551,402.9v-17.5c0-.2-1.3-1.5-1.5-2.5-12.2-44.9-69.6-55.2-101.5-23.6-3.2,3.1-3.9,6.1-5.4,9.6-.8,1.7-2.3,2.7-2.5,4.5l9,1.1c25.6-43.3,98.4-26.3,92,27.5l10,1h0ZM539,398.9c3.9-38.5-41-57.9-71.7-40.2-6.6,3.7-11.2,9.5-15.3,15.7l9.3,1.3c20.4-24.4,62.3-18.3,67.8,15,2.1.7,5.2,2.2,6.8,3.7,1.7,1.6,1.2,4,3,4.5h.1ZM517.7,372.2c-12-10.7-29.3-12-43.4-4.5-2.8,1.5-10.8,6.9-11.1,9.8-.2,1.6,1.6,4.6.9,6.8l-1.9.7v1.3c1.5.7,1.3,6.6,3.4,5.6,1.5-.8,4.6-9.4,6.8-11.7,4-4.2,15.5-8.7,21.2-8.3,12.1.8,20.2,7.5,24.5,18.6l8-.6c.8-.8-1.6-7.8-2.2-9.3-1.1-2.6-4.1-6.7-6.1-8.4h0ZM418,371.9c-8.4-1.9-17-.4-25.4-1.1-6.4-.5-14.5-1.9-21-3-3-.5-19.8-4.9-20.6-3.9-.1,6.5-5.8,14.9-11.3,18.2-3.1,1.8-8,2.2-9.7,3.3s-6.2,13.6-11,15l-8.9,5.6c14.8,1.6,29.1,6.3,43,11.5,3.3,1.2,6.1,4.1,10,3.5l-7-25.5c-.3-2.2-.4-2.8,2-2.5.6,2.8,1.2,9.6,3.7,10.8,4.8,2.5,14.6,5.5,20.1,6.9,4.4,1.2,32.5,6.8,34.2,5.2-3.9-14.4-1.7-29.7,2-44h-.1ZM229,364.9c-20.3,5.1-40.9,10.4-62,10,4.4,14,3.2,28.7,2,43,4.5-1.4,9-.6,13.4-1.1,13.1-1.9,26.5-6.6,39-11,2.7-1.7,3.6-16.7,6.1-16.9,2-.1.7,2.8.5,3.5-.8,4-7.3,26-6,27.5,13.9-5.3,28.2-10.9,43-13,.3-2.2,0-1.6-1.3-2.2-8.6-3.6-12.5-11.1-15.7-19.3-10.7-2.6-18-9.1-19-20.5h0ZM440,365.9l-4,.5-16.5,8.5c-2.4,9.5-3.8,19.2-3.5,29,10.9.7,22.5,5.3,33.5,4,.6,0,3.4-.9,3.5-1,.3-.4.3-3.4,0-3.8-.4-.6-10.4-1.9-12.4-2.1-1.4-.1-3.2-.6-1.5-2,5.6-.8,11,1.5,16.5,1,5.7-.5,3.2-3.7-.2-5.9l-14.3-1.2c-1.3-1.1-.1-1.9,1.5-2,6.5-.3,12.1,1.3,18.5,1,.7-10.2-13.7-3.9-20-7,1.7-3.9,5.8-1.1,8.5-1,3.1.2,13.9,1.4,12.5-3.5-.9-3-7.1-2.3-9.4-2.6-3.2-.4-14.4-2.4-16.1,0-2,2.8-1.9,10.6-8.5,10,.2-1.7,2.2-1.5,3-2.7,1.6-2.1,1.7-5.8,2.7-8.1,1.6-3.5,7.4-6.3,6.2-11.3h0v.2ZM165.9,378c-7.7,0-12.6-7-19.9-6.1-.2,3.3.4,5.8,3.4,7l7.6,12c-2.6.3-2.1.3-3.2-1.3-5.8-7.5-3.7-10.6-15.3-9.8-1.5.1-2.7.8-4,1-4.1.5-10.9-1.2-10.4,5.1,4.4.6,7.9,1.2,12.4.9,2-.1,4.3-2.5,5.6,1.1-4.3,1.6-9.3.3-13.3,1.2-2.2.5-5.8,2-4.7,4.8,5.8,2.5,13.4-2.6,19,1.5-3.5,2.8-13.6-.3-15,4-.5,1.5,2.5,3.2,3.7,3.4,1.6.3,6.1-1.1,8.3-1.4,1.8-.2,2.5-1.2,4,1l-9.9,2.6c-.5,1.5-1.8,3.2.4,3.8,2.4.6,12.9.4,15.9.1,5.6-.4,11.7-2.8,17.5-3,.4-9.6.1-18.6-2.1-27.9h0ZM496.3,421.6c4.4,4.3,12.5,4.2,17.2.5,4.2,4.8,10.4,7.5,16.5,4.3,1.6-.8,2.4-3.5,4.5-3.5,2.2-.2,4.5,2.4,7.2,2.9,7.5,1.3,15.1-4.4,14.2-12.2s-10.8-10.7-17.5-7.7c-2.2-1.4-1.1-4.1-2.2-6.6-1.2-2.7-6.1-6.5-8.9-7.1-7.6-1.6-17.5,3.3-16.3,11.8-9.3-1.1-18.3,1.6-17,12.5.2,1.6,1.2,4.1,2.3,5.2h0ZM423,406.9l-7-1,2,10,3.9-1.1,1.1-7.9h0ZM352,418.9c-8.2-2.2-16.5-5.7-24.7-7.8-5.5-1.4-16.6-4.1-21.8-4.2-2.8,0-8.6,2.5-12.1,2.9-8.1.8-15.7-2.5-22,4s-1.1,14.3-5.4,19.6c-3.6,4.4-10.6,3-14.1,6-1.8,1.5-1.9,4.8-3.1,6.9-4.2,7.1-14.6,5.5-21.2,8.8-4.4,2.2-4,4.2-6.7,7.3-6,7-9.4,7.7-18.5,7.5-1.4,0-2.8-.9-4-1-4.3,0-11.2,5.1-11.5,9.5-.4,6.3,4.6,4.7,8.3,5.6,9.6,2.4,8.9,14.4,18.2,15.8,6.5.9,15.3-.4,21.5,2.5,5.3,2.5,9,9.4,13.7,10.3,9.4,0,21.2,2.7,19.3,14.7-.9,5.9-6.4,8-8.8,12.2-2,3.4-1.9,8.2-3.7,11.3-3,5-10.1,6.6-11.2,12.8-.4,2.2,0,4.2-.7,6.3-1.6,4.9-8.4,5.5-7.5,13.4.5,4,4.4,7.8-.6,11.4-8.5,1.2-14.7-5.4-18.6-12.2-5.6-10-3.5-20-7.9-30.1-1.2-2.8-4.8-7.8-6.9-10.1-5.8-6.6-12.8-8.3-13.1-19-.2-8.3,7.1-12.2,1.9-20.9-4.3-7.1-13.1-5.8-18.8-9.2-2.5-1.5-3.9-4.6-5.6-6.4-.8-.9-1-1.4-2.4-1-7.8,23-6.8,48.8,3.8,70.7,25.2,52.1,99.8,69.8,152.6,62.2,56.6-8.1,111.6-54.9,99.3-117.2-.3-1.6-1.8-7.6-2.7-8.3-8.3-.9-14.9-7.1-23-7.5-.5,6.3,4.1,9.7,9.1,12.4,6,3.3,15.6,4.2,12.5,13.6-2,6.1-10.7,9.5-12.3,14.7-1.8,5.6-.6,10-4.4,15.6-2.8,4.2-7.9,6.6-10.3,9.7-1.9,2.5-2.6,6.2-4.1,8.9-3.8,7-8.6,12.5-15.7,16.3s-16.6,5.4-15.7-5.7c.7-8.8.5-6.5-2.7-14.2-3-7.2,1.9-10.2.8-16.8-.5-2.9-4.2-4.1-4.9-6.1-1.6-5.4,1.9-13.3-3.1-18.9-6.5-7.2-15.4-1.4-22.6-.5-5.3.6-12,.7-16.4-2.5-8.4-6-8.2-14.9-4.8-23.7,6.7-17.4,29.5-28.1,47-20.5,3,1.3,7.3,4.9,10.4,5.6,7.2,1.5,16.6-1,22.7-5,3.7-2.5,3.4-6.2-.9-6.9-5.7-.9-11,5.6-18,5.1s-11-8.7-18.1-9c-4.8-.2-12.5,4.6-18.9,5-5.5.3-11.6-1.3-12.5-7.6-1.6-11.1,12-10.6,18.3-14.4,1.4-.8,2.9-4.6,6.6-6.6,4-2.2,8.8-1.9,12-4,4.1-2.7,3-7.1,4-11.4h0ZM166,416.9c.3-.4,1.5-5.9,1.6-7,.3-3.1-4-1.4-5.6-.5l1.1,7.5c.8-.1,2.8.2,3,0h-.1ZM273,407.9c-1.4-1.2-23.4,4.4-27,5.5-26.8,7.9-50.9,23-67.4,45.6-2.7,3.8-13.1,19.6-12.4,23.2,1.3,3,3.6,6.9,6.3,8.7,3.6,2.5,8.6,2.2,12.3,3.7,4.5,1.9,9.2,7,10.1,11.9,1.4,8.1-6.6,13-2.3,22.3,3.2,6.8,12,11.5,16.4,18.6,7.6,12.5,3.5,26,13.1,38.9,2.9,3.8,8.1,7.3,12.9,6.4,2.6-4.9-3-9.4-1.5-14,1.1-3.5,6.3-5.9,7.8-9.2,1.1-2.5.5-4.6,1-7,1.3-7,8.3-7.8,11.2-12.8,1.9-3.2,1.2-7.7,3.1-10.9,3.1-5.2,11.8-8.8,9.3-17.4-5-7.8-15.7-4.9-22.2-8.8-2.6-1.5-3-3.7-4.7-5.3-8.6-8.2-21.6-1.7-30.9-7.1-4.3-2.5-5.5-9.3-9.1-11.9s-10.1-1.8-12.5-4.5c-4.3-5,.5-12.9,5.5-15.5,5.5-2.8,10.6.2,16.4-.6,11.2-1.5,11-12.6,20.3-15.7,4.8-1.6,13.1-1.6,16.8-5.2,2.3-2.3,2.1-7.1,5.5-9.5s11.3-2.5,13.5-5.5c3.1-4.3-.2-12.2,3.5-17.5.7-1,6.4-5.2,5-6.5h0ZM417,490.9c-6.7-20.1-18.5-39-34.5-53-4.2-3.7-22.2-16.5-27-16.1-4.4.4-1.1,6.1-3.5,8.6-4,4-12.9,3.3-18,8-1.4,1.3-1.6,3-3.7,4.3-4.5,2.8-23.5,5-15.9,15.1,6.6,8.6,21.5-3.2,30-2,6.3.9,11.4,9,17,9s7.9-4.1,12.2-4.9c4-.7,10.2-.5,11.2,4.5.6,3.1-5.5,7.3-8.2,8.5-7,3.1-17.5,3.9-24.7,1.4-2.4-.8-4.9-3.6-7.2-4.8-10.2-4.8-24-.8-32.6,5.8-16.1,12.4-19.6,40.5,7.4,37.4,3.4-.4,7-2.5,10.1-2.9,7.9-1.1,16,1.2,18.3,9.7,1.2,4.6-.1,12.2,1.7,15.3.8,1.2,2.5,2,3,3,3.2,6.5-3,12.3-.3,18.3,1.1,2.5,3.2,3.3,3.7,7.3.4,3.2-1.2,13.5,1.6,14.4,6.1,1.8,19.1-8.5,22.4-13.4,2.5-3.6,3.4-9.5,6.5-13.5,3.4-4.4,8.7-5.9,11.7-12.3,2.2-4.8,1.8-11.1,3.9-15.1,3.1-5.7,18.6-12.8,8.4-19.7-2.4-1.6-6.3-2.2-9.2-3.8-6.4-3.4-10.9-8.5-9.2-16.1,5.7-2.6,11.3,2.6,16.6,4.7,1.3.5,7.6,2.8,8.3,2.2h0ZM468.7,425.2c-5.6-5.5-17.2-3.6-20.3,3.7-.7,1.7,0,4-2,5-8.6-3.6-17.8,2-14.5,11.5-.4,2.1-6.6,1.1-7.8,6.3-1.5,6.8,3.2,11.4,9.8,11.3.3,5.2-1.7,9.9,3.6,12.8,8.7,4.8,6.3-6.1,8.3-7.4,2.7.5,7.7-2.9,9.4-2.4,1.6.5,3.1,4.2,6.6,2.9v11.9c3.4,1.1,7.1,2.4,9.5-.9,1.2-1.6,1.2-3.8,2-5,1-1.4,3.9-2,5.4-4.6,3.1-5.7-.9-7.2-.8-12.3,7-1,10.3-7.5,8.8-14.4-1-4.6-10.2-11.3-14.3-6.7-3.1-3.3,0-7.9-3.8-11.7h0ZM542,491.9c9.5,2.3,17.6-10.7,10-17.5-1.7-1.5-9.9-3.9-10-5,4.9-3.8-.2-15-4.7-16.4-1.9-.6-7.4-.4-9.4.3-3.6,1.2-5.3,6.2-6.5,6.5-3,1-1.8-2.1-5.2-2.7-8.6-1.7-11.8,5.1-11.3,12.8-8.8-.7-14.3,9.3-9,16.4,1,1.3,6.2,3.1,8.1,3.7,0,1.8-1.5,3.3-.9,5.3.5,1.7,4,4,4.9,2.1,1.5-3.4,1.3-7.5,2-10.9,1.3-6.2,4.9,1,6.6,1.4,1.5.3,4.1-2.9,6.3-1.8.4,3.5,3.1,3.5,5.7,4.9l-2.6,13c8.8,1.2,15.9-2.6,16-12h0ZM460,470.9c-2.3.6-3.7-1.8-5.5-2.1-2.4-.3-4.9,1.4-7.4,1.1l-5,26.9,14,3,4-29h-.1ZM525.9,492c-2.1,0-3.3-2.6-4.6-3-1.5-.4-3.2,1.1-4.8,1-2-.1-2.5-2.6-4.5-2.1,1.1,5.4-6.9,23.1-5.9,26.4.5,1.8,11.7,6.2,13.4,3.6l6.4-25.9h0ZM314,829.9h262.5c1.1,0,5.4-3.5,4.5-5.5l-.2-268.9c-29.8-23.4-72.4-38.4-108.8-49.2-13.3-3.7-36.5-10.4-49.5-11.5-.9,0-2.5-.3-2.5.5,0,1.6,1.5,2.6,1.8,4.2,14.2,85.3-73.4,132.7-148.3,122.3-3.9-.5-26.5-5.8-27.6-4.9,4.8,11.2,12.4,20,23.7,24.8,8.5,3.6,19.2,4,27.3,7.7,27.8,12.8,22.9,43.6,41.5,59.5,13.9,11.9,24,15.4,30,35,9.6,31.2-12.2,51.1-34,69-6.8,5.6-15.2,9.8-20.5,17h.1ZM68,561.9c-5.2.2-7.7-3.6-12.9-.4-2.9,1.8-4.4,5.9-4.8,9.1,0,1.1,1.5,3.9-.8,4.3-1.1.2-4.8-2.3-7,1-3.2,4.6,5.2,6.8,8.5,7.6,14.6,3.8,33.3,2.6,47.8-1.3,2.3-.6,16.2-5.1,16.2-6.8l-10-7c2.7-1.6,2.9-8.1,1-10-3.7-3.7-8.7-2.6-13.3-1.6-2.4-.6-2.5-5.6-8.4-6.7-7.8-1.4-16.1,3.3-16.3,11.8h0ZM13,550.9v36c27.6,11,58.4,13.3,87.2,5.7,11.4-3,21.8-7.9,34.2-6.7,5.3.5,12.1,4,17.1,4s12.5-3.3,21-3.1c1.6,0,4-.9,3.5,1.5l-10.4.6c-13.3,7.2-25.6-2-38-1-9.2.7-17.5,4.5-26.3,6.7-24,6-48.4,6-72.5,0-5.2-1.3-10.3-4.3-15.7-4.8v181.5c8.9,6.8,21.6,8.3,32.2,5.2,3.3-1,6.7-3.2,9.7-4.3,19.9-6.7,31.1,8.9,48.5,9.6,10.6.4,21.3-8.1,32-8.2,9.4,0,19.9,7.2,30,8.1,15.6,1.3,25.3-8.2,40.1-7.1,8.8.6,16.9,6.9,25,8,17.5,2.3,23.8-2.3,38.5-8.5,21.3-9,25.5,1.3,43.5,2.5,5.6.4,11.5-2.5,17.1-3,3.9-.3,10.8.2,14.5,1.4,1.2.4,3.1,1.5,3,3l-15.5-2.5c-7.2.8-13.6,3.8-21,3.1-6.9-.6-13.8-4.8-20.2-5.8-17.1-2.8-29.7,11.3-46.9,12.7-17.4,1.5-30.6-10.8-45.7-8.7-12.8,1.8-16.9,8-33.3,6.8-13.6-1-23-11.4-37.5-6.6-9.2,3.1-13.5,7.2-24.5,6.6-13.1-.8-22.1-9.6-34-11-14.4-1.7-28.3,12.5-43.5,6.5l-12-4.5v52.5l5.5,2.5,290.8-.2c26.2-22.2,70.5-44.8,57-86.6-5.6-17.2-17.5-22.5-29.8-33.2-11.6-10.1-12-21.8-18.3-34.7-1.5-3.1-4.4-7.7-6.4-10.6-12.9-19.1-33.9-14.3-50.8-25.2-8.5-5.5-14.3-14.8-18-24-27.2-8-51.2-20.5-68.4-43.5-2-2.7-3.6-5.7-5.5-8.5-29.9-3.2-53,19.5-81.6,23.5-10.5,1.4-26.4,1.2-36.7-1.2-11.8-2.7-24-13.6-30.6-23.4-2.4-3.6-3.9-8.6-7.1-11.3h0l-.2.2Z"/>
  <path d="M581,551.9c-13.8-9.2-28.3-17.1-43.3-24.2-2.7-1.3-16.3-5.8-16.5-8.3l2.8-13.5c7.5.1,12.4,1.3,17.4-5.1,1.3-1.6,3-6.1,3.5-6.5,1-.7,3.2-.5,4.8-1.2,3.4-1.5,7.8-8.4,8.1-11.9,0-1.2-2.8-6.8-3.8-7.9-1.7-1.8-5.6-3.3-7.9-4.6,1.9-17.2-13.7-24.9-25.6-12-8.6-5.5-18.8,1.1-17.6,11.1-13.9,1.1-15.1,19.8-2,23.1.5.8-.4,3.9.6,5.9s5,3.2,5.5,4.6l-2.9,12.4-46-13,3-18c4.8,1.4,10,2.4,13-2.5,1.1-1.7.7-3.4,1.4-4.6.9-1.5,5.2-1.3,6.3-5.7.9-3.3-.3-6.4-.7-9.6,6-4.9,9.1-8.8,7.9-17.1-.8-5.7-9.2-10.9-14.9-10.6-1.8-16.4-24.9-17.6-28.2-1.9-10.2-1.4-18.1,2.8-17.1,13.9-11.4,3.6-8.5,19.6,3.1,20.2-1.1,8.9,1.5,14.4,11,14l-3,17-20.8-4.2c-7.4-28.9-27.8-53.3-53.2-68.3-.9-1.1-3.9-13.1-4-15,0-1.6-.1-1.7,1.5-1.5,8.4,2.7,16.6,5.9,25.2,7.8,10.5,2.2,21.9,3.5,32.6,3.1,2.2-.7,3.9-7.6,3.6-9.9,7.3.8,21.1,4.2,27.7,1.2,4.4-2,2.5-4.8,3.4-6.1.3-.4,3.5-.7,4.4-2.1l.5-7,6,1.5c2.1-2.4,2.2-5.7,3.6-8.5,3-5.9,10.4-11.3,17-12,11.4-1.3,20.5,1.2,26.3,11.6,3.3,6-1.2,5.8-3.3,9.4-1,1.7-.9,4-2.5,5.5-5.4.4-11.9.7-14.9,6.1-6.4,11.4,3.4,21.2,15.4,19.4,1.8-.3,3.8-2.1,4.9-1.9.9.2,2.3,2.4,3.9,3.1,4.3,2,8.4,2.2,12.7.3,1.6-.7,3-2.4,4.5-2.6,2.2-.2,4.7,1.7,7,2,11.4,1.5,18.1-6.4,16.5-17.5-.4-2.8-4.2-4.1-4.8-6.1-1.2-4,.3-12.9,0-17.9-1.7-18.4-18-34.6-34-42-22.1-10.2-47.6-7-66.5,8.5-2.8,2.3-8.2,9.4-10.5,10.5-2,1-4.3,0-6.3.7-3.5,1-10.9,7.9-15,6.7-1-.3-1.6-1.6-3.2-1.9-8.4-1.3-20.6,0-30-1-4.7-.5-9.7-2.1-14.5-2,.6-3.8,5.1-4.8,7.5-8,4.7-6.6,3-12.5-1.5-18.5-2.5-3.3-4.5-2.5-4-8,.4-4.7,1.7-7,.6-12.5-2.4-11.9-10.9-12.4-17-20-5.7-7.1-8.6-16.5-15-24-10-11.6-28.6-18.9-44-16.9-2.5.3-7.1,3-8.9,2.8-1.6-.2-4.5-2.4-7.2-2.8-18.4-2.4-41.5,6.8-50.9,23-2.8,4.8-4.5,11.1-8.1,15.9-5.4,7.1-17.1,11.6-18.4,21.6-.8,6.1,1.2,10.9,1.9,16.8-.8,2.8-7.9,3.8-8.8,11.2-.9,7.1,1.6,11.6,7,15.9l6.9,4.6c-6.5.7-13.1,3-19.6,3.9-8.6,1.2-18.7.7-26.9,2.1-1.7.3-2.5,1.9-4,2.1-6.2.6-20.2-16.1-19.5,3-4.5-.1-20.4-.4-21.9,4.6-.9,3.2,1.9,4.1,1.9,5.9s-2.8,2.8-2,4.9c.5,1.9,3.7,2.5,4.5,3.6,1.1,1.6-1.2,3.7.9,6,2.5,2.7,5.6.4,4.6,6.4l.9,1.2c9.3,3.4,18.6,0,28-.5-.9,10.8,4.7,10.6,13.5,10,9.8-.6,22.8-3.8,32.5-6.5,4.6-1.3,9.6-3.1,14-5.1l2,1-3.2,12.3c-46.2,23.3-75.7,77-56.6,127.5,1.3,3.7,3,7.3,4.8,10.7-2.9,1.4-5.8.6-8.5,1-9.2,1.2-19.9,4.1-28.5,7.5-3.6,1.4-10,6.1-13.4,5.6-.8,0-.8-1.8-1.6-2.5-1.3-1.2-4.2-2-5.9-2.6-.6-3.1.6-7.4-.3-10.2-.7-2.4-6.2-5.2-8.6-5.5-2.2-.2-4,1.5-6.6.7-1.8-.5-4.5-4.8-8.3-5.7-8-1.7-17.7,2.7-19.3,10.8-2.6.5-4.8-1.2-7.4-1-6.3.5-11.3,7.9-10.6,14-4.5-.3-8.8,2-8,7-12.9-7.1-22.8-21.5-27-35.5V14.3c-.3-2.7,1.5-3.6,3.7-4.3l557.8-.2c2.7,0,4.8,1.6,6.5,3.5v538.5h0ZM448.8,35.1c-38.3,4.5-39.8,63.4,1.7,66.8,24.1,2,40.7-19.3,35.3-42.3-4.1-17.3-19.7-26.5-37-24.5ZM71,82.9c12.9.3,23.1-4.3,27.5-17,4.1-11.8-2.1-25.3-14.5-28.6-6.1-1.6-23.2-2.5-29.1-1-2.6.7-2.6,2.6-3,5l.2,56.9c1,3.6,11.1,3.2,14.4,2.7,6.1-1,4.3-13.4,4.5-18h0ZM148,96.4c1.3-6-.9-16,0-22.5,1.2,0,2.2,2.6,2.8,3.7,4.4,7.6,7.8,15.8,13.2,22.8,4,.4,15.6,2.2,16.9-2.2v-57.7c-1.4-6.2-13.8-5.9-17.8-2.2v26.5l-16.2-27.8c-5.6-2-11-1.2-16.7,0l-1.2,4.3.3,55.8c-.1,5.2,14.4,4.4,16.4,2.8.5-.4,2.3-3.1,2.4-3.6h0ZM186,52.9h14v41.5c0,.2,1.3,4,1.5,4.5,1.5,3,11.6,2.4,14.8,1.8,1.5-.3,3.7-1.7,3.7-3.3v-44.5c5.3-.3,10.9.9,15.9-1.1-.8-6.6,3.5-15-5.4-16-10-1-28.8-.7-39.1,0-3.2.2-5.6.2-6.2,3.7-.7,4.2-.4,9.2.8,13.3h0ZM289.9,99.8c1-6.7-2.7-12.7-4.4-18.9s-3.1-12.8-5-19c-1.2-4.1-6.3-22-8-24-.6-.7-1.6-1.3-2.4-1.6-2.8-.9-16.2-.9-19.5-.4-4.4.6-4.8,3.4-6.1,7-5.8,16.8-9.3,34.9-15.3,51.7-1.1,3.7.7,5.8,4.3,6.3,2.2.3,10,.4,11.8,0,3.9-1.2,4.1-7.4,5.6-10.4,1.1-.8,12.3-.7,14.6-.5,5.7.4,2.5,5.9,4.7,8.8,2.6,3.4,15.5,2.6,19.7,1.1h0ZM330,62.9l-16-25.5c-2.9-2.6-16.1-2.6-18.2,1.8l-.6,58.1c1.3,4.5,11.6,4.6,15.2,3.5.7-.2,3.7-3.1,3.7-3.3v-24.5l4.9,6.7c3.3,5.5,6.7,12.5,10.3,17.7s15.5,5.3,19.7,1v-58.7c-1.4-4.7-16.3-5.4-18.9-.2v23.5h-.1ZM360.7,36c-1.4.4-3.5,2.9-3.7,4.3l.5,57.5c1.3,1.5,3.1,2.7,5,2.9,6.9,1,22.7.3,29.5-1.4,23.6-5.9,31.3-33.5,17.4-52.5-5-6.8-16.9-10.5-24.9-11.1s-21-.7-23.9.2h.1ZM104.2,99.7c2.1,2.1,10.9,1,14.2,1,6.1-4.2,2.8-11.6,2.6-17.3-.5-14.8.9-29.9-.4-44.6-1.3-2.7-11.1-2.5-14-2-1.6.3-2.7,1.2-3.3,2.7l-.2,55.9c0,1.1.5,3.6,1.2,4.3h0ZM523.8,55.1c-.6-.6-3.2-1.4-4.2-1.2l-6.6,9.5c-3.1,1.6-10.6-1.4-11.9,3.1-1.1,4,6,7.5,6.8,10,1,3.5-4.2,12.1-.3,13.3,4.7.3,8.3-2.7,12.1-4.8,4.2,1.8,8,5.6,12.8,4.9,5.6-.8-.2-9.4.6-12.4,1.4-2.4,8.4-7.3,7.8-10-1.1-4.9-10.1-3.1-13.7-4.8-1-1.6-2.3-6.6-3.4-7.6h0ZM102.8,111.1c-1.8-1.9-23.2-1.8-24.6,0l-17,59.2c1.2,4.4,13.9,2.5,18,2.2,2.2-2.7,1.8-10.1,5.4-10.6,1.9-.3,12.6-.2,13.6.5,1.5,2.2,1.8,9.6,4.6,10.4,3.9-.4,15,1.8,16.9-1.9,1.1-2.2-.4-5.6-1-8-3.1-12.3-7.3-25.8-11-38-.7-2.2-4-13.1-4.7-13.8h-.2ZM140.2,111.1c-.7.7-1.1,3.1-1.2,4.3-1.5,17,1.1,36.5.2,53.8,1.4,6.3,11,3,16.1,3.5,6.1-2.2,2-16.7,4.6-18.4,11.2-.2,22.5-2.8,26.6-14.4,4.2-12.2-.6-24.6-13.3-28.8-5.9-2-22.2-1.9-28.8-1.3-1.1,0-3.6.5-4.3,1.2h0ZM186,172.9h16.5c3.2-1,3.6-10.8,5.1-11.1l15.5.5c1.7,1.2.2,9.4,5.6,10.3s15.1,1.4,16.2-2.4l-16.1-55.6c-1.2-2.9-1.8-4.5-5.2-4.8-3.1-.2-17.8-.4-19.6.5l-1.4,1.6-17.4,56.7.8,4.2h0ZM268,155.9v-41.5c0-.2-2-3.2-2.4-3.6-1.9-1.6-15.5-2.2-16.1,2l-.3,57.4,1.8,2.2,33.4.3c4.4-1.3,5-14.3.2-16.8h-16.6ZM291,172.9h16.5c3.1,0,3.7-10.9,5.1-11.1h15.4c.1,2.9,1.1,11.1,4.5,11.1h16l1.6-2.5-17-58.9c-1.7-2.9-20.1-1.6-24.1-1.2-2,2.3-3.2,6.6-4.3,9.7-5.2,16.1-8.9,32.6-14.6,48.5l.9,4.3h0ZM360.5,109.9h-16l-1.4,1.6v4.7c.1,0,17.9,56.3,17.9,56.3,1.3.8,20.3.8,22,0,1.2-.6,2.6-2.6,3-3.9,4.4-15.3,8.8-30.5,13.2-45.8,1.1-4,5.2-9.1,1.3-12.7h-15c-.1,0-2.3,1.1-2.5,1.7l-10,37.3c-1.5-.1-1.6-1.5-2-2.5-3.4-9.8-4.4-20.8-7.5-30.5-.7-2.1-1.2-4.5-3-6h0v-.2ZM445,147.9c6.3-2.3,10.6-9.9,11-16.5.6-8.9-7.1-17.3-15.2-19.8-7.4-2.3-22.5-2.4-30.3-1.7-4.1.4-5.1,1.4-5.5,5.5-1.2,13.6-1,37.3,0,51.1.3,4.6.6,6.1,5.5,6.5,2.1.2,11.5.3,12.6-.5,1-1.4,1.4-3.6,1.6-5.3.3-2.1-.5-5.7-.4-7.6,0-1.5.6-3.2.7-5.2s-.3-1.6,2-1.5c2.8,6.9,5.8,14.1,11,19.5h16l1.5-3.6-10.6-20.9h0ZM504.5,172.9h16l1.6-2.5-16.3-56.8c-.4-1-1.9-2.8-2.8-3.2-1.8-.9-20.3-.9-22,0l-1.5,1.6-17.5,57.5c0,5.7,13.4,2.8,17.4,3.5l4.6-10.6c1-.7,12.6-.7,14.6-.5,3.8.5,2.4,8.8,6,11h-.1ZM66.7,187.1c-21.9,3.7-31.9,27.7-18.2,45.7,5.5,7.2,15.4,9.9,23.9,11.1h449.1c36.9-3.1,38-52.4,2-57.1l-456.8.3h0ZM416,293.9c-11-.8-17.3-9.8-16-20.5.8-6,6.8-9.2,10.5-13.5,1-.6-.6-1.8-1.1-1.9-3.5-.9-12.1-.1-15.7,1.2-8.8,3.1-16.8,11.1-15.5,21,1.2,9.2,6.9,15.7,15.7,18.3,8.4,2.4,13,.5,20.8-2.3,1.1-.4,2.7-1.2,1.3-2.2h0ZM93,259.9c-1.3-.3-2.5.4-2.9,1.6-.6,2.1-.3,15.9.9,17.4.6,0,2-1.3,2-1.5v-17.5h0ZM170.7,263.1c-5.2,1.2-9,6-8.8,11.3.3,8.4,13.5,21.1,21.6,23.1,10-2.7,24.6-16.8,21.3-28-.9-3.2-8-6.9-11.3-6.7-4.1.2-8.6,4.1-10,4.1-3.5,0-6.6-5.2-12.8-3.8h0ZM434.8,271.7c-.7.5-4.1.7-5.8,1.7-6.3,3.8,3.7,5,6,7,1.7,1.5,3,7,4.5,7.5,2.3.7,2.6-3.5,3.3-4.7,2.4-4.4,7.2-4,10.2-7.8-1.6-2.2-4.5-2-6.5-3.5-2.3-1.7-4.4-7.3-6-8-1.7-.8-2.4,3.5-4,4-1,.8-1.1,3.3-1.7,3.8h0ZM534.7,279.2c-4.4-4.4-11.6-3.7-17.1-2.3-1.2-.3-3-6.9-6.2-8.8-2.1-1.3-8.6-3.5-11.1-3.9-9-1.3-23.7,2.7-23.3,13.8-21.9-4.2-22.8,26.8-2.5,26.1,2.2,0,5.1-2,6.6-1.6,1.8.5,3.4,2.8,5.2,3.8,5.8,3,13.6,3.6,19.7,1.3,2.4-.9,6.4-4.5,7.5-4.5s2.8,1.5,4.2,1.9c7,1.6,17.5-2.8,19.9-9.8,1.5-4.5.6-12.4-2.8-15.8h0v-.2ZM72,280.9l-5.5-12-3.5-2c-.7.8,4.7,10.3,5.8,11.7.9,1.2,1.1,2.7,3.2,2.3h0ZM122,266.9c-1.7-.3-2.6.9-3.5,2s-7,11.5-6.5,12l3.2-1.3,6.8-12.7h0ZM121.7,343.6c26.7-31.8-13.2-74.3-49.3-53.9-29.3,16.5-22.7,57.7,9.6,65.7,13.8,3.4,30.4-.7,39.7-11.9h0ZM54,296.9c.5-2.1-1.1-2.3-2.3-3.2-3.8-3-9-7.3-13.7-7.8,2.3,3.1,6.7,6.3,10,8.5,1,.6,5.3,3.1,6,2.5ZM143.6,285.9l-13.6,9.5c1.5,2.2,2.3.9,4,0,3.9-1.9,6.8-5.4,11-7,1.9-1.2-.4-2.9-1.4-2.5h0ZM449,341.9l-.9-10.4c.7-2.1,7.6-3,5.8-9-1.6-2.9-7.8-1.7-10-3-1.8-1.1-2.7-8.1-7.4-7.6-.8.1-3.4,6.9-4.5,7.6-1.6,1.1-8,.1-9.6,2.4-2.6,3.6,3.9,7,5.5,9.7.9,3.2-6.4,12,3.6,10.3,2.4-.4,3.6-3.1,7-3.1s6.1,4.6,10.5,3.1h0ZM46,317.9h-17v2h17v-2ZM155,317.9h-18c0,.6,1.3,2,1.5,2h15c.2,0,1.8-1.7,1.5-2ZM535,324.9c-5.7-.7-5.1,4.8-6.5,7-.9,1.4-6.1,2.7-5.5,6l7.5-4c0-4.6,1.8-5.9,4.5-9ZM52,341.9c-5.6,1-12.3,4.8-16,9,2,.4,2.9-.2,4.5-1,2.1-1,6.7-3.8,8.8-5.2,1-.7,2.4-1.6,2.7-2.9h0ZM146,348.9c-3.1.2-13-8.7-15-7-.5,2.6.6,1.7,2,2.5,2.6,1.4,9.6,6.2,11.5,6.6s1.6-.5,1.5-2h0ZM115.9,358c-5.3-.5-2.3,1.3-1.1,3.6,1.3,2.4,2.3,4.9,3.8,7.3.9,1.5,1.2,3.7,3.4,3.1l-6.1-13.9h0ZM68,358.9l-3.2,1.3-5.8,11.7,3.2-1.3s5.8-11.7,5.8-11.7ZM93,362.9c-5.7-.4-2.3,12.1-2,15.5.2,1.8-.5,1.6,2,1.5v-17ZM93,398.9c-2-19.8-33.2-23.8-41.2-6.7-.8,1.6-.6,4.5-1.7,5.3-11,.2-20.4,6.7-17.9,18.7,1.5,7.2,12.5,11.5,19.3,10.6,2.8-.4,4.9-2.3,8-2,2.4.3,5.2,2.8,7.5,3.5,5.9,2,10.6,1.5,16.3-.8,2.1-.8,6.1-3.7,7.2-3.8,2.3-.2,6.5,2,9,2s9-2.2,11.4-4.5c7.1-6.6,6.2-15.7-1.4-21.5-5.1-3.8-10.7-1.4-16.5-1h0v.2ZM142,453.9c1.9.5,7.1-3.1,3.5-4-2.5-.7-5.5,1.6-7.9,2-3.3-5.7-8.9-13-16.1-13.9s-13,.2-18.8,4.1c-3.1,2.1-6.8,5.9-6.7,9.9-.9,1.2-8.6-3.5-10.3-4.2-7.2-2.9-18.2-3.7-25.7-1.4-6.1,1.9-1.9,9,3.1,8.5v2c-7.6,2.4,0,8.3,4.9,9.1-.5,4,1.1,6.4,2.1,9.9-4.6-1.1-13.9-2.5-17.5,1s.5,4.8,2.4,7.7c.6,2.3-3.1,4.5,1.7,7.2,1.3.7,4,1,4.2,1.3.3.3.3,2.1,1.1,3.4,4.7,7.2,12.7-3.1,16.6-3.6,2.1-.3,3.9,1,5.9,1.1,10.2.5,25.2-1.5,31.6-10.5.9-1.3,1-3.5,1.9-4.1,1.2-.8,7-1.6,9.3-2.7,5.2-2.4,9-8.1,9.8-13.7,5.9.6,15.3-4,5.5-7l-.6-2h0ZM125.1,510.7c-.2-.1-1.1-2.6-2.6-3.9-3.9-3.3-11.8-4.1-16.6-2.5-3.6,1.2-4,5-5.9,6.1-.7.4-2.6-.8-4.3-.4-11.9,2.4-12.1,21.5,2.8,21.9,2.2,0,4.1-1.2,5.8-1,2.2.4,4.2,3.4,7.2,3.8,6.5,1,7.7-2.3,12-3,6.2-.9,11.6,1.4,14.7-6.3s-1.8-12.6-8.9-14.5c-1.3-.4-3.4.1-4.1-.4v.2ZM66,538.9l-.9-8.4c.4-1.9,5.8-3,5.9-7.1,0-3.4-6.1-2.7-8-4-1.7-1.1-2.8-6.6-5.5-6.6s-3.8,5.5-5.5,6.6-6.6,0-9,1.5c-1.4,5.4,2.2,5.3,4.8,8.6l-.9,9.3,9.5-3.7c2.8,2,5.8,4.2,9.5,3.8h.1Z" fill="#fff" stroke="#000" stroke-linecap="round" stroke-linejoin="round" stroke-width=".2"/>
  <path d="M13,550.9c3.2,2.7,4.8,7.8,7.1,11.3,6.6,9.9,18.8,20.7,30.6,23.4,10.3,2.4,26.3,2.6,36.7,1.2,28.6-3.9,51.6-26.7,81.6-23.5,2,2.7,3.5,5.8,5.5,8.5,17.2,23,41.2,35.5,68.4,43.5,3.7,9.2,9.5,18.5,18,24,16.9,10.9,37.9,6.1,50.8,25.2,2,3,4.9,7.5,6.4,10.6,6.3,12.9,6.6,24.6,18.3,34.7,12.3,10.7,24.2,16,29.8,33.2,13.6,41.8-30.8,64.3-57,86.6l-290.9.2-5.5-2.5v-52.5l12,4.5c15.2,6,29.1-8.1,43.5-6.5,11.9,1.4,21,10.2,34,11,11,.7,15.3-3.4,24.5-6.6,14.5-4.9,23.8,5.5,37.5,6.6,16.3,1.2,20.4-5,33.3-6.8,15.1-2.1,28.2,10.2,45.7,8.7,17.2-1.4,29.8-15.5,46.8-12.7,6.4,1.1,13.3,5.2,20.2,5.8,7.4.7,13.8-2.3,21-3.1l15.5,2.5c.2-1.6-1.7-2.7-3-3-3.7-1.2-10.6-1.7-14.5-1.4-5.6.5-11.5,3.4-17.1,3-18-1.3-22.2-11.5-43.5-2.5-14.6,6.2-20.9,10.7-38.5,8.5-8.1-1.1-16.2-7.4-25-8-14.8-1.1-24.4,8.4-40.1,7.1-10.1-.9-20.6-8.1-30-8.1s-21.4,8.6-32,8.2c-17.5-.7-28.6-16.3-48.5-9.6-3,1-6.5,3.3-9.7,4.3-10.6,3.1-23.4,1.5-32.2-5.2v-181.5c5.4.5,10.5,3.5,15.7,4.8,24.1,5.9,48.5,5.9,72.5,0,8.8-2.2,17.2-5.9,26.3-6.7,12.4-1,24.7,8.2,38,1l10.4-.6c.5-2.4-1.9-1.5-3.5-1.5-8.5-.2-15.1,3.1-21,3.1s-11.8-3.5-17.1-4c-12.4-1.3-22.8,3.7-34.2,6.7-28.8,7.6-59.7,5.2-87.2-5.7v-36h0l.4-.2ZM118.8,609.1c-9.8,1.2-17.4,7-24.2,13.7-3.6-4.2-9-6.2-14.5-4.5-4.1,5.4-1.9,11.3,3,15-4.3,3.6-8,9.5-5.1,15.1,3.8,4.8,13.4-2.2,17.4-4.4,33,23.1,84.3-3.2,60.2-25.1-10.2-8.7-23.6-11.3-36.8-9.8h0ZM63,619.9c-4,.2-7.4,2.3-11.5,2-7.8-.5-11.1-6.7-20.5-2.5-1.6.7-2.5,0-2,2.5.8.7,6.6-1.8,8.3-1.7,6.1.3,10.2,4.4,18.2,3.8,2.2-.2,7.9-.8,7.5-4h0ZM219,621.9c-4.7,1-7.4,2.5-12.5,2-6.4-.6-11.9-5.6-17.9-5-2.4.2-5.1,1.7-7.6,2,0,1.6-.5,2.2,1.5,2,2.5-.3,6.4-2.1,8.8-1.8,8.4,1,11.2,6.7,23,4.6,1.9-.3,5.1-1.2,4.7-3.8h0ZM281,655.9c-3.4.9-6.9,1.4-10.5,1-4.7-.6-11.3-3.7-16.1-3.9-2.4,0-5.5,1.6-8,1.9-8.8,1-14.1-5.6-22-5-1.9,0-3.6,1.2-5.5,1-.6,3.9,2.7,1.2,4.6,1,8.2-.7,14.1,5.9,22.9,4.9,2.6-.3,5.6-2,8.1-2,4.9,0,10.6,3.4,15,4,2.8.4,11.8,1.4,11.5-3h0ZM219.1,668.8c-3.2-14.6-20.5-19.7-29.6-6.9-1.6,2.3-2.8,8-3.5,8.5-.9.7-3,.8-4.4,1.6-5.6,3-6,5.4-5.7,11.8-15.5,6.3-9.2,22.6,4.1,27.6,3.8,1.4,9,1.5,12.4,2.6.8.3,1.2.7,1.6,1.4-.7,2.5-.7,5.2-1.2,7.7s-3.4,9.2-2.3,10.8c1.9,2.7,15.5,2.4,19.1,2,2.7-.3,5.5-.9,5-4-1-6.9-3.9-13.5-2.6-21,6.5.7,11.7,1.2,18-1.5,10.4-4.5,15.7-15.8,4.9-23,6.9-12.5-4.1-19.1-15.9-17.6h0ZM39,666.9c10.3-6.2,22.3,2.5,32.3.8,7.7-1.3,11.9-4.1,21.2-2.8,2.6.4,4.4,3.5,6.5.5,0-2-12.2-3.7-14.5-3.5-5.4.2-11.6,4.1-17,4.1s-14.1-4.3-20-4.1c-2.1,0-5.5,1.5-7.9,2.1-1.4.3-.5,2-.6,3h0ZM112,699.9c-.4-17.8-16.1-12.7-14,3-1.6,0-1.5-2.6-2.5-4-8.8-12.1-23.2-4.5-12.9,9.9,11.2,15.6,33.9,16.4,44.3-.6,2.6-4.2,4.1-7.5,1.6-12.3-4-7.8-12.7,0-16.5,4h0ZM305,697.9c-4.8,0-8.6,2.3-13.5,2-5.5-.2-10.3-3.4-15-4s-9.1,0-13.5,1c-.7,4,4.3,1.1,6.5,1,12.6-.8,18.3,7.8,33.3,2.2,1.6-.6,2.7.6,2.2-2.2h0ZM65,700.9c-3.4-.2-7,.3-10.4,0-6.4-.7-9-3.7-17.1-3-2.2.2-6.8.9-6.5,4,2.3,0,4.2-1.6,6.6-2,9.7-1.3,15.3,5.7,25.2,3.2,1.8-.5,2.6.4,2.2-2.2h0ZM279,730.9c-3.1-.6-5.7,1.6-8.5,2-9.6,1.3-15.4-4.6-24-4-1.8,0-9.3,1.9-9.5,3.5,2.2,3,5.8-.8,8.7-1.3,6-1,10.5,3,15.8,3.7,4.6.6,11.2.4,15.5-1.5,1.6-.7,2.5,0,2-2.5h0ZM336,734.9c-3.9.7-7.5,1.4-11.5,1s-7.6-2.5-11-3c-3.9-.5-11.1-.7-13.5,3,4,0,7.3-1.3,11.5-1,3.8.3,7.1,2.6,10,3,2.5.4,9.5.4,12,0,1.7-.2,2.8-1.2,2.5-3h0ZM109,739.9c-4.8-.8-9.8-4.4-14.5-5-10.9-1.4-20.2,4-31,3s-11.5-3.9-17-4.1c-3.6-.2-10.2,1.5-12.5,4.6,2.3,1.3,5.1-1.1,7.5-1.5,8.4-1.1,12.9,2.1,20,2.9,14.6,1.7,24.2-5.8,38.7-.7,2.5.9,5.3,3.2,7.2,3.8,2.2.7,1.5-1.5,1.4-2.9h.2ZM165,741.9c-.3-1.2-1.6-2.2-2.7-2.8-7.4-3.7-19.2-5.8-26.3-.7,2,2.9,4.9,0,7.5-.5,2.2-.3,5.7-.3,7.9,0,4.6.6,8.7,4.2,13.6,4h0Z" fill="#fff"/>
  <path d="M314,829.9c5.3-7.2,13.7-11.4,20.5-17,21.9-17.9,43.6-37.8,34-69-6-19.6-16.1-23.1-30-35-18.5-15.9-13.7-46.7-41.5-59.5-8.1-3.7-18.8-4.1-27.3-7.7-11.3-4.8-18.9-13.6-23.7-24.8,1.1-.9,23.7,4.5,27.6,4.9,74.9,10.5,162.5-37,148.3-122.3-.3-1.5-1.9-2.5-1.8-4.2,0-.9,1.6-.6,2.5-.5,45.6,7,122.8,31.8,158.4,60.6l.2,268.9c.8,2-3.4,5.5-4.5,5.5h-262.7ZM481.7,519.2c-6.6-6.7-24.1-3-24.8,7.6-8,0-13.5,4.9-12.9,13.1-5.8,0-11.6,2.5-12.8,8.7.3,3.4,3,5.2,6.3,5.3,19.9-1.2,41.4,1.5,61.1,0,2.3-.2,8.1-1.2,9.8-2.2,6.4-3.7.5-9.8-4.9-10.8-.9-1.3-.2-4.4-.6-6.4-1.3-5.9-11.3-8.1-16.2-5.7-1.3-.2-2.6-7.5-4.9-9.7h-.1ZM390,641.8c1.8-10-5-13.9-13.6-10.1-1.8-1.3-1.6-3.8-3-5.8-5.2-7.8-18.8-4.4-20.6,4.9-9.9-.6-17.4.2-15.9,12.1-7.1-1.2-16,8.2-8.4,12.9,5.7,3.5,14.4,1.8,20.9,2.1,12.2.6,23.5,1.7,35.9,0,4.8-.7,14.4-2.1,15.5-7.6.7-3.8-7.3-8.5-10.8-8.4h0ZM435,686.9c4.6-13.3-10.1-18.9-18.5-9.2-10.8-6.9-22-.3-17.4,12.6-7,3.5-8.8,14-1.4,18.5,1.9,1.1,7,1.9,7.3,2.2s-.1,2.7,1,4.5c2.2,3.6,5.7,3.4,8.1,4.9s.2,4.2,0,6.1c-.2,2.7,1.2,7.3-2,6.4-2.4-7.1-10-14-17.6-15-1.5-.2-4.1-.4-5,.9-2,8.8,4.7,19.7,12.2,23.9,14.3,8.2,33.2,4.3,43.3-8.5,1.6-2.2,2.1-6.1,2.8-8.7-1-4.8-12.1-2.1-15.6-.8-4.5,1.7-7.2,4.2-10.1,7.9-.6.8.2,1.9-2.2,1.3l2.5-16,1-1c4.3,4.5,12.8.5,14.3-4.7.6-2.1-.4-6.2.3-7.2,9.6-3.4,7.1-17.8-3.1-18.1h.1ZM513.8,696.1c-11.1-7.2-22-2-24.8,10.7-5.5-.6-7.9-1.9-12.9,1.6-8.3,5.9-8,15.3,2,19,8.8,4,67.4,8.6,63.9-8.9-.7-2.5-5.5-3.6-7.9-3.7,3.9-12.2-6.7-17-17-12-.2-1.6-2.2-5.8-3.2-6.8h0Z" fill="#fff"/>
  <path d="M352,418.9c-1.1,4.4,0,8.7-4,11.4-3.2,2.1-8,1.8-12,4-3.8,2-5.2,5.8-6.6,6.6-6.3,3.8-20,3.4-18.3,14.4.9,6.3,7,7.9,12.5,7.6,6.4-.4,14.1-5.2,18.9-5,7,.3,11,8.5,18.1,9s12.3-5.9,18-5.1c4.2.6,4.6,4.4.9,6.9-6.1,4-15.5,6.5-22.7,5-3.1-.7-7.4-4.3-10.4-5.6-17.6-7.6-40.3,3.1-47,20.5-3.4,8.9-3.6,17.8,4.8,23.7,4.4,3.2,11.1,3.1,16.4,2.5,7.2-.8,16.1-6.7,22.6.5,5,5.5,1.5,13.5,3.1,18.9.6,2.1,4.4,3.3,4.9,6.1,1.2,6.6-3.8,9.5-.8,16.8,3.2,7.7,3.4,5.5,2.7,14.2-.9,11.1,8.5,9.5,15.7,5.7s11.9-9.3,15.7-16.3c1.5-2.7,2.2-6.4,4.1-8.9,2.4-3.1,7.5-5.5,10.3-9.7,3.8-5.6,2.6-10.1,4.4-15.6,1.6-5.2,10.3-8.6,12.3-14.7,3.2-9.4-6.5-10.4-12.5-13.6-5-2.7-9.6-6.1-9.1-12.4,8.2.4,14.7,6.6,23,7.5,1,.6,2.4,6.7,2.7,8.3,12.3,62.3-42.7,109.1-99.3,117.2-52.8,7.6-127.4-10.1-152.6-62.2-10.6-21.9-11.6-47.7-3.8-70.7,1.5-.3,1.6.1,2.4,1,1.7,1.9,3.1,5,5.6,6.4,5.7,3.4,14.5,2,18.8,9.2,5.2,8.6-2.1,12.6-1.9,20.9.3,10.7,7.3,12.4,13.1,19,2,2.3,5.6,7.3,6.9,10.1,4.4,10,2.3,20.1,7.9,30.1,3.8,6.8,10.1,13.4,18.6,12.2,5.1-3.6,1.1-7.4.6-11.4-.9-7.9,6-8.5,7.5-13.4.7-2.2.3-4.2.7-6.3,1.1-6.1,8.3-7.7,11.2-12.8,1.8-3.1,1.6-7.9,3.7-11.3,2.5-4.1,8-6.2,8.8-12.2,1.9-11.9-9.9-14.7-19.3-14.7-4.6-1-8.4-7.9-13.7-10.3-6.2-2.9-15-1.6-21.5-2.5-9.3-1.4-8.7-13.4-18.2-15.8-3.8-.9-8.7.6-8.3-5.6.3-4.4,7.2-9.5,11.5-9.5s2.5.9,4,1c9.1.1,12.5-.5,18.5-7.5,2.7-3.1,2.3-5.1,6.7-7.3,6.6-3.3,17-1.7,21.2-8.8,1.2-2.1,1.3-5.3,3.1-6.9,3.5-3,10.5-1.6,14.1-6,4.3-5.3-1-12.9,5.4-19.6s13.9-3.2,22-4c3.5-.4,9.2-2.9,12.1-2.9,5.2,0,16.3,2.8,21.8,4.2,8.2,2.1,16.5,5.6,24.7,7.8h0Z" fill="#fff"/>
  <path d="M367.7,309.2c2.3,2.4,5.8,8.9,6.2,12.3.6,4.6-2.2,10.1-.8,14.8.4,1.4,4.3,5,5.3,6.7,1.9,3,3.2,5.5,2.4,9.3-.8,3.6-9.9,12.1-13.3,12.3-1.3,0-15-3-15.5-3.6l1.1-20.4c.5-1.6,4-2,5.9-3.1,12.7-8.3,4.6-28.1-10.9-21.4,1.9,17.3,5.4,34.5.1,51.6-3.7,10-10.7,14.8-21,16.5-7.1,27-54.6,30.8-71.2,12.3-3.5-3.9-4.3-8.4-5.9-13.1-5.5-1.1-10.3-2.5-14.1-7-11.2-15-4.7-41-2.2-58.2.7-4.3-6.7-4.7-9.9-3.8-6.4,1.8-7.9,8-6.9,14,.8,5.3,6.6,8.9,11,11.1v23.4c-10.8,3.4-14.7,2.5-22.6-5-.6-.6-1.8-.7-2.2-1.2-3-3.2-2.9-10.5-.3-14.1,1.1-1.5,6.1-3.8,6.9-6.3,1.7-5.7-4.6-11.4,0-21,3.8-8.1,12.8-11.1,17.7-18.3,4.1-6.2,5.4-13.2,10.5-19.5,10.6-13,33-21,49.2-16.2,1,.3,1.6,1.4,2.5,1.6,2.9.8,7.6-2.4,10.8-2.8,12.6-1.6,30.4,4.6,39,13.9,8.6,9.4,12,22,21,30,1.8,1.6,5.7,3.7,7.2,5.3h0ZM292,271.9c-3.2-.4-2.7,2.9-3.8,4.7-8.9,15.6-26,20.9-42.2,25.8-2.3.7-6,.3-7.5,2.5-1.8,2.5-2.8,14.2-2.5,17.5,1.2,13,10.5,23.9,23.6,25.4,3.3.4,2-1,2.7-1.6,4.6-4,9.3-6.5,15.2-8.1,4.8,5.5,11.9,8.4,19,5.8,3-1.1,4.9-3.8,7.8-4.9,5.3,1.4,9.9,4.3,14,7.9.8.7.6,1.9,1.3,2,12.1,2.1,23.4-12,25.2-22.8.8-4.4.5-18.9-2.8-21.8-2.3-2-5.4-1.2-8-2-16.2-5-37.7-12-42-30.6h0v.2ZM304,350.9c-1,4.4-5.2,6.6-9.5,7-7.5.7-14.2,0-18-7-1.5-.2-1.8,0-1.5,1.5.9,5.3,11.7,8.8,16.5,8.5,4.1-.2,12.8-3.6,14.4-7.6.7-1.8.2-2.9-1.9-2.4h0Z" fill="#fff"/>
  <path d="M417,490.9c-.6.6-7-1.7-8.3-2.2-5.3-2.1-10.9-7.3-16.6-4.7-1.6,7.6,2.9,12.8,9.2,16.1,3,1.6,6.8,2.1,9.2,3.8,10.2,6.9-5.3,13.9-8.4,19.7-2.2,4-1.7,10.3-3.9,15.1-3,6.4-8.2,7.9-11.7,12.3-3.1,4-4,9.9-6.5,13.5-3.3,4.9-16.4,15.2-22.4,13.4-2.9-.8-1.2-11.1-1.6-14.4-.5-4-2.6-4.7-3.7-7.3-2.7-6,3.5-11.8.3-18.3-.5-1-2.2-1.8-3-3-1.9-3-.5-10.6-1.7-15.3-2.3-8.4-10.3-10.7-18.3-9.6-3.1.4-6.8,2.5-10.1,2.9-26.9,3.1-23.5-25-7.4-37.4,8.6-6.6,22.5-10.6,32.6-5.8,2.4,1.1,4.9,3.9,7.2,4.8,7.2,2.5,17.8,1.7,24.7-1.4,2.7-1.2,8.8-5.3,8.2-8.5-.9-5-7.2-5.2-11.2-4.5-4.3.8-7.9,4.9-12.2,4.9s-10.7-8.1-17-9c-8.5-1.2-23.4,10.6-30,2-7.7-10.1,11.3-12.3,15.9-15.1,2.1-1.3,2.2-3,3.7-4.3,5-4.7,13.9-4,18-8,2.4-2.4-.9-8.2,3.5-8.6,4.8-.4,22.8,12.4,27,16.1,16,14,27.8,32.9,34.5,53h0v-.2Z" fill="#fff"/>
  <path d="M273,407.9c1.3,1.2-4.3,5.4-5,6.5-3.7,5.3-.4,13.2-3.5,17.5-2.2,3-10.2,3.1-13.5,5.5s-3.1,7.3-5.5,9.5c-3.7,3.6-11.9,3.6-16.8,5.2-9.3,3.1-9.1,14.2-20.3,15.7-5.8.8-10.9-2.2-16.4.6-5,2.5-9.9,10.5-5.5,15.5,2.4,2.7,8.8,1.8,12.5,4.5s4.8,9.4,9.1,11.9c9.3,5.4,22.3-1.1,30.9,7.1,1.7,1.6,2.1,3.8,4.7,5.3,6.5,3.9,17.3,1,22.2,8.8,2.5,8.6-6.2,12.2-9.3,17.4-1.9,3.2-1.2,7.7-3.1,10.9-2.9,5-9.9,5.7-11.2,12.8-.5,2.5.1,4.5-1,7-1.5,3.3-6.7,5.8-7.8,9.2-1.5,4.6,4.1,9.1,1.5,14-4.9.8-10.1-2.6-12.9-6.4-9.7-12.8-5.5-26.3-13.1-38.9-4.4-7.2-13.2-11.9-16.4-18.6-4.3-9.3,3.7-14.2,2.3-22.3-.8-4.9-5.5-10-10.1-11.9-3.7-1.5-8.6-1.2-12.3-3.7-2.8-1.9-5-5.7-6.3-8.7-.7-3.6,9.7-19.5,12.4-23.2,16.5-22.6,40.6-37.7,67.4-45.6,3.6-1,25.6-6.7,27-5.5h0Z" fill="#fff"/>
  <path d="M418,371.9c-3.7,14.2-5.9,29.6-2,44-1.8,1.5-29.9-4.1-34.2-5.2-5.4-1.4-15.3-4.5-20.1-6.9-2.5-1.3-3.1-8-3.7-10.8-2.4-.4-2.2.3-2,2.5l7,25.5c-3.9.6-6.7-2.2-10-3.5-13.9-5.2-28.2-9.9-43-11.5l8.9-5.6c4.8-1.4,9.4-13.9,11-15s6.6-1.5,9.7-3.3c5.5-3.3,11.2-11.7,11.3-18.2.8-1,17.6,3.4,20.6,3.9,6.4,1.1,14.6,2.6,21,3,8.5.6,17.1-.8,25.4,1.1h.1Z" fill="#fff"/>
  <path d="M229,364.9c1,11.4,8.4,17.9,19,20.5,3.1,8.2,7.1,15.7,15.7,19.3,1.4.6,1.6,0,1.3,2.2-14.8,2.1-29.1,7.7-43,13-1.2-1.5,5.2-23.5,6-27.5.2-.8,1.4-3.7-.5-3.5-2.5.2-3.4,15.2-6.1,16.9-12.5,4.4-25.9,9.1-39,11-4.4.5-8.9-.4-13.4,1.1,1.2-14.3,2.4-29-2-43,21.1.4,41.7-4.9,62-10h0Z" fill="#fff"/>
  <path d="M468.7,425.2c3.9,3.8.7,8.4,3.8,11.7,4.1-4.6,13.3,2.1,14.3,6.7,1.5,6.8-1.8,13.4-8.8,14.4-.1,5.1,4,6.6.8,12.3-1.5,2.6-4.3,3.2-5.4,4.6-.9,1.2-.9,3.3-2,5-2.4,3.4-6.1,2.1-9.4.9v-11.9c-3.6,1.3-5.1-2.5-6.7-2.9-1.7-.5-6.7,2.8-9.4,2.4-2,1.3.4,12.2-8.3,7.4-5.3-3-3.4-7.7-3.6-12.8-6.5,0-11.3-4.5-9.8-11.3,1.1-5.1,7.3-4.2,7.8-6.3-3.3-9.5,5.9-15.1,14.5-11.5,2-1,1.3-3.3,2-5,3-7.3,14.7-9.2,20.3-3.7h0Z" fill="#fff"/>
  <path d="M542,491.9c0,9.4-7.2,13.2-16,12l2.6-13c-2.6-1.4-5.2-1.4-5.7-4.9-2.2-1-4.8,2.2-6.3,1.8-1.7-.4-5.3-7.6-6.6-1.4-.7,3.4-.5,7.5-2,10.9-.9,1.9-4.4-.4-4.9-2.1-.6-2,.8-3.5.9-5.3-1.9-.5-7.1-2.4-8.1-3.7-5.2-7,.3-17.1,9-16.4-.5-7.7,2.7-14.4,11.3-12.8,3.4.6,2.1,3.7,5.2,2.7,1.2-.4,2.9-5.4,6.5-6.5,2-.7,7.5-.9,9.4-.3,4.5,1.3,9.5,12.5,4.7,16.4,0,1.1,8.3,3.5,10,5,7.6,6.8-.5,19.8-10,17.5h0Z" fill="#fff"/>
  <path d="M68,561.9c.2-8.4,8.5-13.2,16.3-11.8,5.9,1,6,6,8.4,6.7,4.7-1,9.6-2.1,13.3,1.6,1.9,1.9,1.7,8.4-1,10l10,7c0,1.7-13.9,6.1-16.2,6.8-14.5,3.9-33.2,5-47.8,1.3-3.2-.8-11.7-3-8.5-7.6,2.2-3.3,5.9-.8,7-1,2.3-.4.7-3.2.8-4.3.3-3.2,1.8-7.4,4.8-9.1,5.2-3.2,7.7.7,12.9.4h0Z" fill="#fff"/>
  <path d="M496.3,421.6c-1.1-1.1-2.1-3.6-2.3-5.2-1.3-10.9,7.8-13.7,17-12.5-1.2-8.5,8.7-13.4,16.3-11.8,2.8.6,7.8,4.4,8.9,7.1,1.1,2.5,0,5.2,2.2,6.6,6.7-3,16.6-.4,17.5,7.7s-6.7,13.5-14.2,12.2c-2.7-.5-5-3-7.2-2.9-2.2,0-3,2.7-4.5,3.5-6,3.2-12.3.5-16.5-4.3-4.7,3.8-12.9,3.8-17.2-.5h0Z" fill="#fff"/>
  <path d="M551,402.9l-10-1c6.4-53.8-66.4-70.7-92-27.5l-9-1.1c.2-1.8,1.8-2.7,2.5-4.5,1.6-3.5,2.3-6.4,5.4-9.6,31.9-31.7,89.3-21.4,101.5,23.6.3,1,1.5,2.2,1.5,2.5v17.5h0Z" fill="#fff"/>
  <path d="M440,365.9c1.1,5-4.6,7.8-6.2,11.3-1,2.3-1.1,6-2.7,8.1-.8,1.1-2.8,1-3,2.7,6.6.5,6.5-7.2,8.5-10,1.7-2.5,12.9-.4,16.1,0,2.3.3,8.5-.4,9.4,2.6,1.5,4.9-9.4,3.6-12.5,3.5-2.7-.1-6.8-3-8.5,1,6.3,3.1,20.7-3.2,20,7-6.4.3-12-1.3-18.5-1-1.6,0-2.8.9-1.5,2l14.3,1.2c3.4,2.1,5.9,5.4.2,5.9-5.6.5-10.9-1.8-16.5-1-1.7,1.4.1,1.8,1.5,2,2,.2,12,1.5,12.4,2.1.3.4.3,3.4,0,3.8-.1.1-2.8,1-3.5,1-11,1.4-22.6-3.3-33.5-4-.3-9.8,1-19.5,3.5-29l16.5-8.5,4-.5h0v-.2Z" fill="#fff"/>
  <path d="M165.9,378c2.2,9.3,2.4,18.3,2.1,27.9-5.7.3-11.8,2.6-17.5,3-3.1.2-13.5.5-15.9-.1-2.2-.6-.9-2.3-.4-3.8l9.9-2.6c-1.5-2.2-2.2-1.2-4-1-2.2.2-6.7,1.6-8.3,1.4-1.2-.2-4.2-1.9-3.7-3.4,1.4-4.3,11.5-1.2,15-4-5.6-4.2-13.2.9-19-1.5-1.2-2.8,2.5-4.3,4.7-4.8,4-.9,9,.4,13.3-1.2-1.3-3.5-3.6-1.2-5.6-1.1-4.5.3-8.1-.4-12.4-.9-.4-6.3,6.4-4.6,10.4-5.1,1.3-.1,2.5-.9,4-1,11.6-.8,9.6,2.3,15.3,9.8,1.2,1.5.6,1.6,3.2,1.3l-7.6-12c-3.1-1.3-3.7-3.8-3.4-7,7.3-.9,12.3,6.1,19.9,6.1h0Z" fill="#fff"/>
  <path d="M539,398.9c-1.8-.4-1.3-2.9-3-4.5-1.6-1.5-4.7-3-6.8-3.7-5.5-33.3-47.4-39.4-67.8-15l-9.3-1.3c4.1-6.2,8.7-12,15.3-15.7,30.6-17.7,75.6,1.6,71.7,40.2h-.1Z" fill="#fff"/>
  <path d="M517.7,372.2c2,1.8,5,5.9,6.1,8.4.6,1.5,3,8.5,2.2,9.3l-8,.6c-4.2-11.1-12.4-17.9-24.5-18.6-5.8-.4-17.2,4.1-21.2,8.3-2.2,2.3-5.3,11-6.8,11.7-2.1,1.1-1.9-4.9-3.4-5.6v-1.3l2-.7c.7-2.2-1-5.2-.9-6.8.3-2.9,8.4-8.4,11.1-9.8,14.1-7.5,31.4-6.3,43.4,4.5h0Z" fill="#fff"/>
  <path d="M525.9,492l-6.4,25.9c-1.8,2.5-12.9-1.8-13.4-3.6-1-3.3,7-21,5.9-26.4,2-.5,2.5,1.9,4.5,2.1,1.7.1,3.3-1.4,4.8-1,1.3.4,2.5,3.1,4.6,3h0Z" fill="#fff"/>
  <path d="M460,470.9l-4,29-14-3,5-26.9c2.5.3,5-1.4,7.4-1.1,1.8.2,3.2,2.6,5.5,2.1h.1Z" fill="#fff"/>
  <path d="M353,336.9l-3-18.4c1.9-2.7,5.8-1.8,8.3-.5,8.9,4.9,4,18.6-5.4,18.9h.1Z" fill="#fff"/>
  <path d="M229,335.9c-9.2-.5-14.2-12.8-5.9-18.5,3-2.1,6.7-2.7,8.6.9l-2.7,17.5h0Z" fill="#fff"/>
  <polygon points="423 406.9 421.9 414.8 418 415.9 416 405.9 423 406.9" fill="#fff"/>
  <path d="M166,416.9c-.2.2-2.1,0-3,0l-1.1-7.5c1.6-.9,5.9-2.6,5.6.5-.1,1-1.2,6.6-1.6,7h.1Z" fill="#fff"/>
  <path d="M66.7,187.1l456.8-.3c36,4.6,34.9,53.9-2,57.1H72.5c-8.6-1.1-18.5-3.9-23.9-11.1-13.7-18-3.7-42.1,18.2-45.7h-.1ZM543.7,230.6c10.4-17.8,1.9-37.2-18.2-41.8H68.5c-34,5-31.5,50.2,3,53.1h451c8.6-1.4,14.5-3.9,19.8-10.7.2-.3,1.1-.2,1.3-.6h.1Z"/>
  <path d="M330,62.9v-23.5c2.6-5.2,17.5-4.5,18.8.2v58.7c-4.2,4.3-16.2,4.1-19.7-1s-7-12.2-10.3-17.7l-4.9-6.7v24.5c0,.2-2.9,3.1-3.7,3.3-3.6,1.1-13.9.9-15.2-3.5l.6-58.1c2.1-4.4,15.3-4.3,18.2-1.8l16,25.5h.2ZM333,71.9c-4.5.5-6.1-9.2-8.1-12.3-1.6-2.8-4.2-7-6-10-1.1-1.8-5.3-9-6.3-9.7-2.7-2.2-10.8-.3-14.6-.9v59h13v-32c1,.2,2.5-.7,3,.6,2,4.8,5.4,10.2,8.1,14.7,1.7,2.8,8.6,14.7,10.3,15.7,3.3,2.1,9.5.4,13.5.9v-59h-13v33h.1Z"/>
  <path d="M142,453.9l.6,2c9.7,3,.3,7.6-5.5,7-.8,5.6-4.6,11.3-9.8,13.7-2.4,1.1-8.2,1.9-9.3,2.7-.9.6-1,2.8-1.9,4.1-6.4,9-21.3,11-31.6,10.5-2-.1-3.8-1.4-5.9-1.1-3.9.5-11.9,10.8-16.6,3.6-.8-1.2-.8-3.1-1.1-3.4-.2-.2-2.9-.5-4.2-1.3-4.8-2.7-1.1-4.9-1.7-7.2-2-2.9-6.1-4.2-2.4-7.7s12.9-2.1,17.5-1c-1-3.5-2.6-5.9-2.1-9.9-4.9-.8-12.5-6.7-4.9-9.1v-2c-5,.4-9.1-6.7-3-8.5,7.5-2.3,18.5-1.5,25.7,1.4,1.7.7,9.4,5.4,10.3,4.2-.2-4,3.6-7.8,6.7-9.9,5.8-3.9,11.9-5,18.8-4.1,6.9.9,12.8,8.3,16.1,13.9,2.4-.4,5.4-2.6,7.9-2,3.6.9-1.6,4.5-3.5,4h-.1ZM116.1,477c7.3-1.1,13.8-2,17.1-9.4,6.5-14.7-4.1-30.3-20.5-27.5-5.5.9-15.4,6.9-14.8,13.3.2,2.5,7.5,7,6.1,8.5l-15.1-10.4c-6.9-3.5-24.3-8.1-29.9-1.1,4,3.2,9,5,14,5.5,0,2.1.4,1.9-1.5,2s-10.5-.9-8,3c2.2,3.6,12.4,4.4,16.5,5,.7,4.3-5.7,1.1-7.6,1-1.3,0-1.6.6-2.4,1.5l2.6,5.6c2.2,1.3,8.2,1.2,10.8.9,4.2-.5,7.3-3.9,11.6-4,.4,2.1-.9,2.4-2.4,3.1-11.8,4.8-17,3.6-29,2.9-3.3-.2-6.4,0-9.5,1-.4,5.1,3.8,5.4,8,5-1.6,2.7-4.9,1.8-6,5.5,2.1,2.7,6,1.1,9,1.5-2.3,6.6-.4,8.5,5.7,5.2,2.1-1.1,3.5-3.5,6-4,4.1-.9,6.6.5,9.9.8,11,.8,26.1-2.9,29.6-14.8h-.2ZM140.1,458.8l-2.1-4.9v7l5-1-2.9-1.1h0Z"/>
  <path d="M148,96.4c-.1.4-1.9,3.2-2.4,3.6-2,1.6-16.5,2.4-16.4-2.8l-.3-55.8,1.2-4.3c5.6-1.2,11.1-1.9,16.7,0l16.2,27.8v-26.5c4.1-3.7,16.5-4,17.8,2.2v57.7c-1.2,4.4-12.9,2.6-16.8,2.2-5.4-7-8.8-15.3-13.2-22.8-.6-1.1-1.6-3.6-2.8-3.7-.9,6.5,1.3,16.5,0,22.5h0ZM166,38.9v31.5c0,.3-1.6,1.9-2.5,1.5l-18.5-32.5c-2.6-.5-12.4-1.3-13.6.5l-.3,56.4.8,1.2,13.1.4v-32c1.9-.4,1.9.6,2.8,1.7,6.3,7.8,9.7,19.4,15.3,27.7,3.6,5.4,6,3.6,11.4,2.8.6,0,1.4.5,2,.5,1.4,0,2.8-2.7,2.5-4.1-1.3-16.3,1.6-35-.1-51-.2-1.4-1.1-2.9-1-4.5h-11.9Z"/>
  <path d="M360.5,109.9c1.8,1.5,2.3,3.8,3,6,3.2,9.7,4.1,20.7,7.5,30.5.4,1.1.5,2.4,2,2.5l10-37.3c.2-.6,2.4-1.7,2.5-1.7h15c3.9,3.7-.1,8.8-1.3,12.7-4.4,15.3-8.8,30.5-13.2,45.8-.5,1.3-1.9,3.4-3,3.9-1.7.9-20.8.9-22,0l-17.7-56.3v-4.7c-.1,0,1.3-1.6,1.3-1.6h16v.2ZM371,155.9l-11.1-42.4-.9-1.1-13-.4c-1.7,3.6.9,6.5,1.7,9.7,3.6,13.7,7.6,30.5,12.5,43.5.7,1.9,1.5,3.7,2.7,5.3,1.2.8,14,.7,16.6.5,3.7-.3,3.6-2.2,4.7-5.3,4.8-13.8,9.5-30.6,13.2-44.8.8-3,1.8-5.9,1.5-9-2.9.5-12.1-1.1-13.5,1s-3.1,9.1-4,12c-2.9,9.6-5.3,19.5-7.7,29.3l-2.8,1.7h0Z"/>
  <path d="M445,147.9l10.6,20.9-1.5,3.6h-16c-5.2-5.4-8.2-12.7-11-19.5-2.3-.1-1.8-.4-2,1.5s-.6,3.7-.7,5.2c-.1,1.9.6,5.5.4,7.6-.2,1.7-.6,3.9-1.6,5.3-1.1.8-10.5.6-12.6.5-4.9-.4-5.2-1.9-5.5-6.5-1-13.8-1.2-37.5,0-51.1.4-4.1,1.4-5.1,5.5-5.5,7.9-.7,23-.6,30.3,1.7,8.1,2.5,15.8,10.9,15.2,19.8-.4,6.6-4.8,14.2-11,16.5h0ZM408,112.9v56.5c1.5,2.4,12.6,2,13.5.6,1.7-5.2-.8-13.7.6-18.4.6-2.2,3.7-2.1,5.5-.7,4.5,3.7,7,15,11.4,19.6l14,.5c1.5-1.5-9.2-18.8-10.9-21.6l-.2-1.8c15-6.4,15.1-27.8-.7-33.3-3.1-1.1-8.5-2-11.7-2.3s-20.4-.3-21.5,1h0Z"/>
  <path d="M186,52.9c-1.2-4.1-1.5-9.1-.8-13.3.6-3.5,3-3.5,6.2-3.7,10.3-.7,29.1-1,39.1,0,8.9.9,4.6,9.4,5.4,16-5,2-10.6.8-15.9,1.1v44.5c0,1.5-2.2,3-3.7,3.3-3.2.6-13.3,1.2-14.8-1.8-.2-.5-1.5-4.2-1.5-4.5v-41.5h-14ZM232.5,38.9h-44.5l.9,11.5,14.1.5v47c4.5,0,10.3,3,14-.5v-46.5h14.5c.1,0,2.5-1.2,2.6-1.6-.4-2.2,1-9.7-1.6-10.4Z"/>
  <path d="M289.9,99.8c-4.2,1.5-17.1,2.3-19.7-1.1-2.2-2.9,1-8.4-4.7-8.8-2.3-.2-13.5-.3-14.6.5-1.5,3-1.7,9.2-5.6,10.4-1.8.5-9.6.4-11.8,0-3.6-.5-5.4-2.6-4.3-6.3,6-16.8,9.5-34.9,15.3-51.7,1.2-3.6,1.7-6.3,6.1-7,3.3-.5,16.8-.5,19.5.4.9.3,1.9.9,2.4,1.6,1.7,2,6.8,19.9,8,24,1.9,6.3,3.2,12.7,5,19s5.4,12.2,4.4,18.9h0ZM288,97.9l-15.9-55.6c-.4-1.1-1-2.5-2-3-1.6-.8-16.9-.9-19.5-.5-.8,0-1.5.2-2,1l-17.5,56.5c.7.9,1.2,1.3,2.5,1.5,1.1.2,9.1.6,9.6.5,4.9-1.2,3.3-9.4,6.6-10.4,4.7-1.4,14.4.8,19.8-.2l3.6,10.1h15-.2Z"/>
  <path d="M121.7,343.6c-9.3,11.1-25.9,15.3-39.7,11.9-32.3-8-39-49.2-9.6-65.7,36.1-20.4,76.1,22.1,49.3,53.9h0ZM85.7,287.1c-24,3.3-38.3,30.8-24.2,51.7,16.6,24.5,58.3,18.7,65.2-10.6,5.9-24.9-17-44.4-41-41h0Z"/>
  <path d="M504.5,172.9c-3.5-2.3-2.2-10.5-6-11-2-.3-13.6-.2-14.6.5l-4.6,10.6c-4-.7-17.4,2.2-17.4-3.5l17.5-57.5,1.5-1.6c1.7-.9,20.2-.9,22,0,.9.4,2.4,2.2,2.8,3.2l16.3,56.8-1.6,2.5h-16,0ZM519,170.9c.8-.8-3.7-17.4-4.5-20-2.8-9.8-5.8-20.3-9-30-.9-2.6-2.4-8.7-5-9s-16-.3-17.5.5c-2.4,2.6-3.4,7-4.5,10.5-3.8,12.3-7.2,24.9-10.7,37.3-1,3.4-3.7,6.6-2.8,10.7l13-.5,3-10.5c6,.4,12.6-.5,18.5,0,4.4.3,2.8,1.9,3.9,5.1.4,1.1,2,5.2,2.5,5.6l13.1.4h0Z"/>
  <path d="M93,398.9c5.8-.4,11.4-2.8,16.5,1,7.7,5.7,8.6,14.8,1.4,21.5-2.4,2.3-8.2,4.5-11.4,4.5s-6.7-2.1-9-2c-1.2.1-5.1,3-7.2,3.8-5.7,2.2-10.4,2.8-16.3.8-2.3-.8-5.1-3.3-7.5-3.5-3.1-.3-5.2,1.6-8,2-6.7.9-17.7-3.4-19.3-10.6-2.6-12.1,6.9-18.6,17.9-18.7,1.1-.8,1-3.7,1.7-5.3,8.1-17.1,39.2-13.1,41.2,6.7h0v-.2ZM92,403.9c-1-24.8-36.5-28.1-40.1-3.1-6.9-.8-16,.9-17.7,8.8-2.6,11.9,10.7,15.8,20.3,14.3,1.9-.3,3.5-2,5-2s6.9,4.2,10.2,4.8c5,.9,10.1.4,14.7-1.9,1.9-.9,4.6-3.6,5.3-3.8,1.9-.6,3.7,1.5,5.9,1.9,6.4,1,14.1-.9,16.7-7.3,3.7-9.2-3.7-17.6-13.3-15.3-3.3.8-4,3.1-6.9,3.5h0Z"/>
  <path d="M291,172.9l-.9-4.3c5.7-15.9,9.4-32.5,14.6-48.5,1-3.1,2.3-7.4,4.3-9.7,4-.4,22.4-1.7,24.1,1.2l17,58.9-1.6,2.5h-16c-3.4,0-4.4-8.2-4.5-11h-15.4c-1.4.1-2,11-5.1,11h-16.5ZM293,170.9h14l3.6-11.1c4.9.9,13.5-1.1,17.8.2,2.6.8,2.6,10,5.2,10.8,1.6.5,10,.4,11.9.1,1.2-.2,1.8-.6,2.5-1.6l-17.5-56.5c-.5-.7-1.2-.9-2-1-2.5-.4-14.8-.4-16.9.2-.7.2-1.2.8-1.7,1.3l-16.9,57.6h0Z"/>
  <path d="M186,172.9l-.8-4.2,17.4-56.7,1.4-1.6c1.8-.9,16.5-.8,19.6-.5,3.5.3,4,1.9,5.2,4.8l16.1,55.6c-1.1,3.8-12.6,3.1-16.2,2.4-5.4-.9-3.9-9.1-5.6-10.3l-15.5-.5c-1.5.2-1.9,10.1-5.1,11.1h-16.5,0ZM242,170.9c.9-3.2-1.1-5.2-1.8-7.7-3.6-14.2-7.8-30.8-12.5-44.5-.8-2.3-1.8-6.4-4.2-6.8-5.5-.8-12.7.5-18.4,0l-17.1,58.9c3.8-.6,12.6,1.7,14.5-2,.8-1.5,1.8-8.9,3.1-9h19.3c0,.1,4,10.6,4,10.6l13.1.5h0Z"/>
  <path d="M102.8,111.1c.7.7,4.1,11.6,4.7,13.8,3.7,12.2,7.9,25.7,11,38,.6,2.4,2.1,5.9,1,8-1.9,3.6-13,1.5-16.9,1.9-2.8-.8-3-8.2-4.6-10.4-1-.7-11.7-.7-13.6-.5-3.7.5-3.2,7.9-5.4,10.6-4,.3-16.7,2.2-18-2.2l17-59.2c1.4-1.8,22.8-1.9,24.6,0h.2ZM117,170.9c.5-6.3-2.9-12-4.5-18-3.6-13-6.9-26.1-11-39-.7-1.2-1.6-1.8-3-2-2.1-.3-16.5-.2-17.6.5l-16.8,53.2-.2,5.3,13.1-.4,2.9-10.6c5.7.3,11.9-.5,17.5,0,5,.4,3.2,4.6,4.7,8.3,1.9,4.8,10.4,2,14.8,2.7h0Z"/>
  <path d="M360.7,36c2.9-.9,19.9-.5,23.9-.2,8,.6,20,4.3,24.9,11.1,13.9,19,6.2,46.7-17.4,52.5-6.8,1.7-22.6,2.4-29.5,1.4-2-.3-3.8-1.5-5-2.9l-.5-57.5c.2-1.5,2.3-3.9,3.7-4.3h-.1ZM360,38.9l-1,4.5.2,51.9c1.4,4.8,13.2,3.9,17.4,3.7s12.9-1.1,16.7-2.3c23.2-7.1,27.4-41.1,8.1-53.6-1.5-1-9.6-4.2-10.9-4.2h-30.5Z"/>
  <path d="M448.8,35.1c17.3-2.1,33,7.2,37,24.5,5.4,23-11.2,44.3-35.3,42.3-41.5-3.4-40-62.2-1.7-66.8ZM445.7,38.1c-5.7,1-14.4,6.6-17.6,11.4-6.5,9.7-7.5,23-2.9,33.6,7.7,17.6,33.3,21.4,47.7,10.2,15.4-12,15-40.6-1.6-51.3-6.5-4.2-18.1-5.2-25.6-3.9h0Z"/>
  <path d="M140.2,111.1c.7-.7,3.1-1.1,4.3-1.2,6.6-.6,22.9-.7,28.8,1.3,12.6,4.2,17.5,16.5,13.3,28.8-4.2,12.3-15.4,14.2-26.6,14.4-2.6,1.7,1.4,16.2-4.6,18.4-5.1-.5-14.8,2.8-16.1-3.5.8-17.3-1.8-36.8-.2-53.8.1-1.1.5-3.6,1.2-4.3h0ZM165.5,111.9c-6.6-.7-15.1,0-22,0s-1.5,1.4-1.5,1.5v56c3,2.8,9.1,1.5,13.1,1.1,2.1-1.4.4-15.3.9-18.6,9.7.8,23.1-1.1,27.8-10.7,2.6-5.4,2.2-15.5-.9-20.7-1.2-2.1-5-4.8-7.2-5.8-2.3-1.1-7.8-2.6-10.2-2.8h0Z"/>
  <path d="M534.7,279.2c3.4,3.4,4.3,11.3,2.8,15.8-2.3,6.9-12.9,11.4-19.9,9.8-1.4-.3-2.7-1.9-4.2-1.9s-5.1,3.6-7.5,4.5c-6.1,2.3-13.9,1.7-19.7-1.3-1.9-1-3.4-3.3-5.2-3.8-1.5-.4-4.3,1.5-6.6,1.6-20.3.7-19.4-30.3,2.5-26.1-.4-11,14.3-15,23.3-13.8,2.5.4,9,2.6,11.1,3.9,3.2,1.9,5,8.5,6.2,8.8,5.6-1.4,12.7-2.1,17.1,2.3h0v.2ZM515,280.9c0-6.1-5.3-13.4-11.5-14-8.3-.9-21.9-1-24.4,8.7-.6,2.3.7,4.8-1.7,6.3-12.8-7.2-22.5,12.1-9.2,18.2,5.8,2.7,7.5,1.2,13.1-1.1,5.8,6.6,13.4,8.2,21.9,6.7,4.2-.7,6.6-4,10.2-5.8,10,7.1,24.6-.4,22.3-13.2-.5-2.9-2.4-5.6-4.8-7.2-5.6-3.8-10.5-.2-16,1.5h.1Z"/>
  <path d="M71,82.9c-.2,4.6,1.6,17-4.5,18-3.3.5-13.3.9-14.3-2.7l-.2-56.9c.3-2.4.4-4.3,3-5,5.9-1.6,23-.6,29.1,1,12.3,3.3,18.6,16.8,14.5,28.6-4.4,12.7-14.6,17.3-27.5,17h0ZM55,38.9c-.2,1.6-.9,2.8-1,4.5-1.4,16.6,1.1,35.2,0,52,.4,5,12,4.6,13.5,1.5,1.7-3.4-1-14,1.4-15.6,11.6-.8,22.1-2.6,26.5-14.4,2.7-7.1,2.3-16.9-3.5-22.5-1.2-1.2-9.3-5.5-10.4-5.5h-26.5Z"/>
  <path d="M268,155.9h16.5c4.8,2.5,4.2,15.6-.2,16.8l-33.4-.3-1.8-2.2.3-57.4c.6-4.2,14.2-3.6,16.1-2,.5.4,2.4,3.3,2.4,3.6v41.5h.1ZM265,112.9c-4.4.6-10.6-1.6-14,1.5v55c0,.1,1.4,1.5,1.5,1.5h31c3-2.8,1-8.2,1.5-12h-17.5c-.2,0-1.5-1.4-2.5-1,0,0,0-45,0-45Z"/>
  <path d="M104.2,99.7c-.7-.7-1.1-3.1-1.2-4.3l.2-55.9c.7-1.5,1.8-2.4,3.3-2.7,3-.5,12.7-.7,14,2,1.3,14.7,0,29.8.4,44.6.2,5.7,3.5,13.1-2.6,17.3-3.2,0-12,1.1-14.1-1ZM119,97.9v-56.5c0-2.8-11.2-3.9-13-1v57.5c4.6,2,8.4.4,13,0Z"/>
  <path d="M523.8,55.1c1,1.1,2.3,6,3.4,7.6,3.6,1.7,12.7,0,13.7,4.8.6,2.8-6.4,7.6-7.8,10-.8,3,5,11.6-.6,12.4-4.9.7-8.7-3.1-12.8-4.9-3.8,2.1-7.4,5.2-12.1,4.8-4-1.2,1.3-9.8.3-13.3-.8-2.5-7.9-6-6.8-10,1.3-4.6,8.8-1.5,11.9-3.1l6.6-9.5c.9-.3,3.6.5,4.2,1.2h0ZM522,56.9c-4.1,0-4,7-7,8.5l-11,.5c-.7,5.4,4.7,5.7,6.9,9.7l-1.9,12.3,11.4-5c4.1,1.1,7,5.3,11.5,5l-.8-12.3c2.3-3.2,6.8-3.9,6.8-8.7l-12-1.5-4-8.5h0Z"/>
  <path d="M416,293.9c1.4,1-.2,1.8-1.3,2.2-7.8,2.9-12.4,4.7-20.8,2.3-8.9-2.5-14.5-9.1-15.7-18.3-1.3-9.9,6.7-17.9,15.5-21,3.5-1.3,12.2-2.1,15.7-1.2.5.1,2,1.3,1.1,1.9-3.7,4.3-9.7,7.5-10.5,13.5-1.4,10.7,5,19.7,16,20.5h0ZM406,259.9c-5.3-.4-10,0-14.7,2.8-1.5.9-6.8,4.9-7.9,6.1-3.7,4.3-3.1,13-.6,17.7,5.5,10.7,16.3,12.1,27.2,9.3-.1-1.6-2.6-1.5-4-2.5-3.4-2.5-7.4-7.8-8-12-.4-2.7-.4-9,.4-11.5,1.2-3.5,6.6-5.9,7.6-9.9h0Z"/>
  <path d="M125.1,510.7c.7.5,2.8,0,4.1.4,7.2,1.9,12.1,6.7,8.9,14.5s-8.5,5.4-14.7,6.3c-4.3.6-5.5,3.9-12,3-3-.5-5-3.5-7.2-3.8-1.7-.3-3.6,1-5.8,1-14.9-.4-14.7-19.5-2.8-22,1.8-.4,3.6.8,4.3.4,1.9-1,2.3-4.9,5.9-6.1,4.7-1.5,12.7-.7,16.6,2.5,1.5,1.3,2.4,3.7,2.6,3.9h.1ZM104.2,508.1c-1,1.2-.9,4-2.9,4.7-9.6-4.2-17.1,10.6-8.1,15.3,4.9,2.5,5.9,1.3,10.3.8,5.1-.6,5.6,5.8,13.5,3.5,2-.6,4.5-3.2,5.6-3.4.9-.2,2.5.8,3.8.9,7.6.2,14.2-7.4,8.5-13.6-3.7-4.1-9-1.4-11.1-2.9-1.2-.9-1.1-4.9-5.2-6.8-3.3-1.5-11.9-1.4-14.5,1.5h0Z"/>
  <path d="M170.7,263.1c6.2-1.4,9.4,3.9,12.8,3.8,1.4,0,5.9-3.9,10-4.1,3.4-.1,10.4,3.5,11.3,6.7,3.3,11.1-11.3,25.3-21.3,28-8.1-2-21.2-14.7-21.6-23.1-.2-5.3,3.6-10.1,8.8-11.3h0ZM185,270.9h-1.5c-8.7-11.1-24.2-4.7-16.7,9.7,2.3,4.4,11.9,14,16.8,14.3,4.4.3,15.8-11.1,17.7-15.3,2.9-6.6,1.1-13.8-6.9-14.5-2.2-.2-9.9,2.5-9.3,5.8h-.1Z"/>
  <path d="M449,341.9c-4.4,1.5-7.2-3.1-10.5-3.1s-4.6,2.7-7,3.1c-10,1.7-2.7-7.1-3.6-10.3-1.6-2.7-8.1-6.1-5.5-9.7,1.6-2.2,8-1.3,9.6-2.4,1.1-.7,3.7-7.5,4.5-7.6,4.8-.6,5.6,6.5,7.4,7.6,2.1,1.4,8.3.2,10,3,1.8,6.1-5.2,6.9-5.8,9l.9,10.4h0ZM452,322.9l-10.1-1.4c-5.1-14.1-5.8-1.6-8.9,0-2,1-6.6.6-9,1.5-.4,3.7,6.2,5.2,6.9,7.6l-2.9,9.3c4.1.7,6.3-2.3,9.7-3.9l9.3,3.9c.3-3.2-1.8-6.1-.9-9.4.8-2.8,7.1-3.3,5.9-7.6h0Z"/>
  <path d="M66,538.9c-3.7.5-6.7-1.7-9.5-3.8l-9.5,3.7.9-9.3c-2.7-3.3-6.3-3.2-4.8-8.6,2.4-1.6,7.2-.4,9-1.5,1.6-1.1,2.1-6.5,5.5-6.6,2.7,0,3.8,5.5,5.5,6.6,1.9,1.2,8.1.5,8.1,4s-5.5,5.2-5.9,7.1l.9,8.4h-.2ZM68,522.9c-2,0-5.4-.4-7-1.5-1.9-1.4-1.6-6-5-5.5l-2.1,5.9-7.9,1.2c-.5,2.6,3.2,3.6,3.8,5.7.8,2.7-.5,4.8-.8,7.3l7.5-3.1,7.5,4.1-.9-8.4c.6-1.9,5.5-2.5,4.9-5.6h0Z"/>
  <path d="M434.8,271.7c.6-.5.7-3,1.7-3.8,1.5-.5,2.2-4.9,4-4,1.5.7,3.6,6.4,6,8,2,1.5,4.9,1.3,6.5,3.5-3,3.7-7.8,3.4-10.2,7.8-.7,1.3-1,5.4-3.3,4.7-1.5-.5-2.8-6-4.5-7.5-2.2-2-12.3-3.2-6-7,1.7-1,5.1-1.2,5.8-1.7h0ZM447,274.9c-4.3,0-4.4-6.1-8-6-.4,3.6-4.1,5.1-7,6.5,2.2,2.4,6.8,2.5,7,6.5h2c.2-2.9,2.8-4.3,5.4-5l.6-2h0Z"/>
  <path d="M93,259.9v17.5c0,.2-1.3,1.6-2,1.5-1.2-1.5-1.5-15.3-.9-17.4.4-1.2,1.6-1.9,2.9-1.6h0Z"/>
  <path d="M93,362.9v17c-2.4.1-1.8.3-2-1.5-.3-2.4-.9-4.6-1.1-6.9-.2-3-1-8.8,3-8.5h0Z"/>
  <path d="M54,296.9c-.7.6-5-1.9-6-2.5-3.3-2.1-7.8-5.4-10-8.5,4.7.5,10,4.8,13.7,7.8,1.2.9,2.8,1.1,2.3,3.2Z"/>
  <path d="M143.6,285.9c1-.4,3.4,1.2,1.4,2.5-4.1,1.6-7,5.1-11,7-1.8.9-2.5,2.2-4,0l13.6-9.5h0Z"/>
  <path d="M535,324.9c-2.6,3.2-4.4,4.5-4.5,9l-7.5,4c-.5-3.3,4.6-4.5,5.5-6,1.4-2.2.8-7.7,6.5-7Z"/>
  <path d="M122,266.9l-6.8,12.7-3.2,1.3c-.5-.5,5.7-10.8,6.5-12s1.8-2.4,3.5-2h0Z"/>
  <path d="M72,280.9c-2.1.5-2.3-1.1-3.2-2.3-1.1-1.4-6.5-11-5.8-11.7l3.5,2,5.5,12h0Z"/>
  <path d="M52,341.9c-.3,1.2-1.6,2.2-2.7,2.9-2.1,1.4-6.7,4.2-8.8,5.2-1.6.8-2.6,1.3-4.5,1,3.7-4.2,10.4-8,16-9h0Z"/>
  <polygon points="68 358.9 62.2 370.6 59 371.9 64.8 360.2 68 358.9"/>
  <path d="M115.9,358l6.1,13.9c-2.2.6-2.5-1.5-3.4-3.1-1.4-2.4-2.5-4.8-3.8-7.3-1.2-2.3-4.2-4.1,1.1-3.6h0Z"/>
  <path d="M146,348.9c.1,1.5.4,2.4-1.5,2s-8.9-5.1-11.5-6.6c-1.4-.8-2.5.2-2-2.5,2-1.7,11.9,7.2,15,7h0Z"/>
  <path d="M155,317.9c.3.3-1.3,2-1.5,2h-15c-.2,0-1.6-1.4-1.5-2h18Z"/>
  <rect x="29" y="317.9" width="17" height="2"/>
  <path d="M219.1,668.8c11.7-1.5,22.7,5,15.9,17.6,10.8,7.2,5.4,18.6-4.9,23-6.3,2.7-11.5,2.2-18,1.5-1.3,7.5,1.6,14.1,2.6,21,.5,3.2-2.3,3.8-5,4-3.6.4-17.2.7-19.1-2-1.1-1.5,1.8-8.3,2.3-10.8s.5-5.2,1.2-7.7c-.4-.7-.9-1.2-1.6-1.4-3.4-1.2-8.5-1.2-12.4-2.6-13.3-5-19.6-21.3-4.1-27.6-.2-6.4,0-8.7,5.7-11.8,1.4-.8,3.5-.9,4.4-1.6.8-.5,1.9-6.2,3.5-8.5,9-12.8,26.3-7.7,29.6,6.9h0ZM217,671.9c-.4-11.6-11.6-19.8-22-12.5-4.9,3.5-4.7,7-6.2,12.3-7.3,1.3-11.4,5.6-11.3,13.2-20.2,10.2-.1,28.7,15.4,26,1.4-6.3-9.3-13.8-7.9-18.4,2.6-5.2,12.6,2.8,13.9,1.4.4-3.3.2-13.1,3-14.5,7.6-3.8,6.5,7.6,7,12.5,2.8,1,9.6-5.8,10.9-1.4,1.7,5.7-8.2,11.9-6.9,18.4,7.9.2,14.5.8,20.9-4.6,6.5-5.5,5.9-15.2-2.9-16.4.7-3.7,4.5-4.6,4-9.5-.8-7.7-12.1-8.7-18-6.6h.1ZM194.5,733.9h16c.6,0,1.5-1.6,1.6-2.5.2-2.7-2.7-9.5-3-13.1-.9-10,4.5-18,8.9-26.4-3.5-.6-6.6,4.9-10.1,2.5-1.9-1.3-.4-11.4-3.4-13.5-4.5,2.6-1.7,13.6-5.5,15.5s-7.6-5-12-3.5c-1,.9,4.5,7,5.2,8.3,3.2,5.7,4.6,11.7,3.8,18.2-.3,2.6-5.5,13.5-1.4,14.5h-.1Z"/>
  <path d="M118.8,609.1c13.2-1.6,26.5,1.1,36.8,9.8,24.1,21.9-27.2,48.2-60.2,25.1-3.9,2.2-13.6,9.3-17.4,4.4-3-5.6.8-11.4,5.1-15.1-5-3.8-7.1-9.7-3-15,5.6-1.7,10.9.3,14.5,4.5,6.9-6.7,14.4-12.5,24.2-13.7h0ZM131,610.9c-13.9-1.4-27.2,4.2-35.5,15h-1c-3.7-3.6-7.9-7.1-13.4-5.9-3,6.1.6,9.5,4.9,13.4-2.8,2.2-8.8,10.1-6.5,13.5,4.3,4.2,12.9-6.1,15-6.1,3.4.8,5.8,3.7,8.8,5.2,8.5,4.4,18.2,5.3,27.7,4.8-2.1-6.8-4.6-13.3-4-20.5.4-6.3,3.4-13.1,4-19.5h0ZM156.9,637.7c6.4-9.6-1.8-17.7-10.1-22.1-2-1-12.4-5.4-13.7-3.8-.3,4.8-2.5,9.7-2.9,14.5-.7,8.1,0,15.8,3,23.4,7.9.2,14.1-4.9,20.9-8,.7-3.2-1.9-1.6-4.3-2.2-1.9-.5-5-2.5-4.7-4.8,4.4.3,6.8,4.6,11.9,2.8h0v.2Z"/>
  <path d="M112,699.9c3.8-3.9,12.5-11.7,16.5-4,2.4,4.8,1,8.1-1.6,12.3-10.4,17-33.2,16.2-44.3.6-10.3-14.4,4.2-22.1,12.9-9.9,1,1.4.9,3.9,2.5,4-2.1-15.7,13.6-20.8,14-3h0ZM110,709.9c.7-3.7.6-23.8-7.1-18.5-3.7,2.5-1.5,17.1-.9,21.5-2.1,2.5-6.1-9.1-6.6-9.9-1.6-2.9-5.5-7.9-9-8.1-6.5-.4-5.7,5.4-3.7,9.7,5,10.5,20.1,17.1,30.9,12.5,5.7-2.4,16.1-13.6,12.8-20.2l-2.2-1.9c-11.6-.9-11,18.7-14.3,14.9h0Z"/>
  <path d="M109,739.9c0,1.4.7,3.6-1.4,2.9-1.9-.6-4.8-2.9-7.2-3.8-14.5-5.1-24.1,2.4-38.7.7-7.2-.8-11.6-4-20-2.9-2.4.3-5.2,2.7-7.5,1.5,2.3-3.1,8.8-4.7,12.5-4.6,5.4.2,11.6,3.6,17,4.1,10.8,1,20.1-4.4,31-3,4.7.6,9.7,4.2,14.5,5h-.2Z"/>
  <path d="M39,666.9c.2-1-.7-2.6.6-3,2.4-.6,5.8-2,7.9-2.1,5.9-.2,14.3,4.1,20,4.1s11.6-3.9,17-4.1c2.4,0,14.4,1.5,14.5,3.5-2.1,3.1-3.9,0-6.5-.5-9.3-1.3-13.4,1.4-21.2,2.8-10,1.8-22-7-32.3-.8h0Z"/>
  <path d="M281,655.9c.3,4.3-8.6,3.3-11.5,3-4.4-.6-10.1-4-15-4s-5.5,1.7-8.1,2c-8.8,1-14.7-5.6-22.9-4.9-1.8.2-5.2,2.8-4.6-1,1.9,0,3.6-.9,5.5-1,7.9-.6,13.2,6,22,5,2.5-.3,5.6-2,8-1.9,4.8.2,11.5,3.3,16.1,3.9,3.5.5,7.1,0,10.5-1h0Z"/>
  <path d="M279,730.9c.5,2.6-.4,1.8-2,2.5-4.2,1.9-10.9,2.1-15.5,1.5-5.4-.7-9.8-4.8-15.8-3.7-2.9.5-6.5,4.3-8.7,1.3.1-1.6,7.7-3.4,9.5-3.5,8.6-.6,14.4,5.3,24,4,2.8-.4,5.4-2.5,8.5-2h0Z"/>
  <path d="M305,697.9c.5,2.8-.6,1.6-2.2,2.2-15,5.6-20.7-3.1-33.3-2.2-2.2,0-7.2,3-6.5-1,4.4-.8,9-1.5,13.5-1,4.7.6,9.5,3.8,15,4,5,.2,8.7-1.9,13.5-2h0Z"/>
  <path d="M219,621.9c.4,2.6-2.8,3.5-4.7,3.8-11.8,2-14.6-3.7-23-4.6-2.4-.3-6.3,1.5-8.8,1.8-2,.3-1.6-.3-1.5-2,2.5-.3,5.2-1.7,7.6-2,6-.6,11.4,4.4,17.9,5,5.2.5,7.8-1,12.5-2h0Z"/>
  <path d="M65,700.9c.4,2.6-.4,1.8-2.2,2.2-9.9,2.5-15.5-4.5-25.2-3.2-2.3.3-4.2,1.9-6.5,2-.3-3.1,4.2-3.8,6.5-4,8.1-.8,10.7,2.2,17.1,3,3.4.4,7,0,10.4,0h0Z"/>
  <path d="M63,619.9c.5,3.2-5.3,3.8-7.5,4-8,.7-12.1-3.5-18.2-3.8-1.8,0-7.5,2.4-8.3,1.7-.5-2.5.4-1.8,2-2.5,9.4-4.2,12.6,2,20.5,2.5,4.1.2,7.5-1.9,11.5-2h0Z"/>
  <path d="M336,734.9c.3,1.8-.8,2.8-2.5,3-2.5.4-9.5.3-12,0-2.9-.4-6.2-2.7-10-3-4.2-.3-7.5,1.1-11.5,1,2.4-3.6,9.6-3.5,13.5-3,3.4.5,7.2,2.6,11,3,4,.4,7.6-.3,11.5-1h0Z"/>
  <path d="M165,741.9c-4.8.3-8.9-3.3-13.6-4-2.2-.3-5.7-.3-7.9,0-2.6.3-5.6,3.3-7.5.5,7.1-5.2,18.9-3,26.3.7,1.1.5,2.4,1.5,2.7,2.8h0Z"/>
  <path d="M435,686.9c10.2.3,12.7,14.7,3.1,18.1-.7.9.3,5.1-.3,7.2-1.5,5.1-10,9.2-14.3,4.7l-1,1-2.5,16c2.4.6,1.6-.5,2.2-1.3,2.9-3.7,5.6-6.2,10.1-7.9,3.4-1.3,14.6-3.9,15.6.8-.8,2.6-1.3,6.5-2.8,8.7-10.1,12.8-29.1,16.7-43.3,8.5-7.5-4.2-14.2-15.1-12.2-23.9.9-1.3,3.5-1.1,5-.9,7.5.9,15.1,7.9,17.6,15,3.2.9,1.8-3.8,2-6.4.2-1.9,2.2-4.5,0-6.1s-5.8-1.3-8.1-4.9c-1.1-1.8-.8-4.2-1-4.5-.3-.3-5.4-1.1-7.3-2.2-7.4-4.4-5.6-15,1.4-18.5-4.5-12.9,6.6-19.5,17.4-12.6,8.4-9.7,23.1-4.1,18.5,9.2h-.1ZM434,703.9c9.2,0,11.2-12,2.3-14.8-1.8-.6-4,.4-5.3-1.7,7.5-8.3-3.1-17-11-10-1.3,1.1-1.8,3.4-3.5,4.5-8.4-10.4-20.4-2.4-13.5,9.5-2.3,2-4.5,1.8-6.5,4.6-5.3,7.8,3.7,14.7,11.5,11,.5.6-2.9,9.1,4.7,10.8,6.4,1.5,6.5-3.2,10-3.7,1.2-.2,2.2,1.6,3.8,1.9,2.8.5,5.9,0,8-2l-.5-10h0ZM420,719.9c-1,.2-2.9-.6-3,.6-.9,7.4-1.6,14.9-2,22.4,2-.4,1.7-2.1,2-3.5,1.7-6.4,1.5-13.1,3-19.5h0ZM413,743.9c-.2-8.4-8.5-22.5-17.5-23-6.2-.4-3.7,2.8-3.1,7.1,3.4,8.8,10.8,15.9,20.5,16h.1ZM445,724.9c-13-1.2-23.6,8.1-27,20,11.2.3,27.2-7.4,27-20Z"/>
  <path d="M481.7,519.2c2.2,2.2,3.6,9.4,4.9,9.7,5-2.4,15-.2,16.2,5.7.4,2-.3,5.1.6,6.4,5.4,1,11.3,7.1,4.9,10.8-1.8,1-7.5,2-9.8,2.2-19.7,1.5-41.2-1.2-61.1,0-3.2,0-6-2-6.3-5.3,1.2-6.2,7-8.6,12.8-8.7-.6-8.2,5-13,12.9-13.1.7-10.6,18.2-14.3,24.8-7.6h.1ZM479.8,520.1c-2.9-2.7-10.4-2.4-14-1-5.1,2-6.3,5.4-7.7,10.3-1.9,1.3-6.7-.8-9.5,2.5-3.2,3.6-2,6.7-1.5,11-5.4,0-11.1-1-13.6,5l.8,2.9c1.3.7,2.8,1.1,4.3,1.2,14.4,1.3,29.8-.6,44-1.1,6.8-.2,15.6.9,22,0,3.1-.4,6.3-2.8,3.3-5.8-1.6-1.6-7.5-.6-7.7-2.7,3.3-7.3-1.8-13.3-9.6-12.5-2.8.3-3.9,3-6.5,3,.5-3.4-1.8-10.5-4.2-12.8h0Z"/>
  <path d="M513.8,696.1c1.1,1,3,5.1,3.2,6.8,10.3-5,20.9-.2,17,12,2.4,0,7.1,1.1,7.9,3.7,3.5,17.5-55,12.9-63.9,8.9-10-3.7-10.3-13-2-19,5-3.5,7.4-2.2,12.9-1.6,2.8-12.7,13.7-17.9,24.8-10.7h0ZM515,707.9c1.5-19.1-26.2-16.5-23,3-3,.4-4.9-2.5-7.7-2.8-5.1-.6-13.6,6.1-12.2,11.2.3,1,4.4,4.9,5.6,5.5,10,5.1,38.4,5.2,49.6,3,2.7-.5,9.6-2.9,11.2-4.8,6.2-6.8-7-4.5-7.5-5-.4-2.3.9-4.3,1-6.5.5-7.1-4.1-10.2-10.6-7.6-2.9,1.2-3.6,3.9-6.4,4h0Z"/>
  <path d="M390,641.8c3.5-.2,11.5,4.6,10.8,8.4-3,11.7-41.5,8.1-51.4,7.7-6.5-.3-15.2,1.4-20.9-2.1-7.6-4.7,1.3-14.1,8.4-12.9-1.5-11.9,6-12.7,15.9-12.1,1.8-9.2,15.4-12.7,20.6-4.9,1.4,2,1.2,4.5,3,5.8,8.6-3.8,15.4,0,13.6,10.1h0ZM387,643.9c-.9-.8,6-13.1-7.5-11-2.3.3-5.4,3.7-6.4.4-.9-3.1,1.1-4.4-2.6-7.4-7.1-5.7-15.1-.3-15.5,8-8.1-2.5-18.8-1.1-15,9.4l-.4.6c-1.7,2.3-12.2,0-11.6,7.5.3,3.4,5.8,4.3,8.5,4.5,11.2,1,23,.5,34,0,7.1-.3,17.4.7,24.1-1.9,9-3.6-1.2-11.7-7.5-10h-.1Z"/>
  <path d="M292,271.9c4.2,18.6,25.8,25.5,42,30.6,2.7.8,5.8,0,8,2,3.3,2.9,3.6,17.4,2.8,21.8-1.8,10.8-13.1,24.8-25.2,22.8-.7-.1-.5-1.3-1.3-2-4.1-3.6-8.7-6.4-14-7.9-2.9,1.1-4.7,3.8-7.8,4.9-7.1,2.6-14.3-.2-19-5.8-5.9,1.6-10.7,4-15.2,8.1-.7.7.6,2-2.7,1.6-13.1-1.6-22.4-12.5-23.6-25.4-.3-3.3.7-15,2.5-17.5,1.6-2.2,5.2-1.8,7.5-2.5,16.2-4.9,33.2-10.2,42.2-25.8,1-1.8.6-5.1,3.8-4.7h0v-.2ZM292,277.9c-1.5-.3-1.6.1-2.5,1-2.4,2.6-4.4,6.5-7,9-10.6,10.1-28.4,14.7-42.4,18.1-4.6,14.9-1.1,33.7,15.6,38.7,6.2,1.4,7.6-3.2,11.9-5.7,1.9-1.1,8.7-2.7,9.2-3.3.9-1.1,1.2-6.5,3.7-7.8,3.5-.2-.4,3.7-.5,5.5-.3,3.9,3,7.5,6.7,8.3,5.5,1.1,15.1,0,14.3-7.3-.2-2.2-2.2-3.4-2-5.5,3.9.2,5.1,4.7,5.1,7.9,7.1.7,12.5,5.5,17.6,10,19.6-2.9,24.1-24.2,19.2-40.8-16.8-3.4-37.7-10-47.7-24.8-.6-1-1.1-2.2-1.1-3.4h-.1Z"/>
  <path d="M304,350.9c2.1-.5,2.6.6,1.9,2.4-1.6,4-10.3,7.4-14.4,7.6-4.8.3-15.6-3.2-16.5-8.5-.3-1.5,0-1.7,1.5-1.5,3.8,7.1,10.5,7.8,18,7,4.2-.4,8.5-2.7,9.5-7h0Z"/>
  <path d="M543.7,230.6c-.2.3-1.1.3-1.3.6-5.3,6.8-11.2,9.3-19.8,10.7H71.5c-34.5-2.9-37-48.1-3-53.1h457.1c20,4.5,28.6,23.9,18.2,41.8h0ZM254,192.9l-3.5,3c-3.2-3.7-11.7-2.8-11.5,3,2.7.4,3.5-.4,4.1-2.9,4.4-1.4,5.4,4.1,9.8,2.8l1.1-5.9h0ZM94.2,229.7c2.3,2.4,6,.7,4.7-3.1l-9.3-23.7c-5.3-3.6-7.2,1.6-9,6-1.7,4-5.4,12.9-6.3,16.7-.3,1.4-.3,2.9,0,4.2,5.2,2.7,5.2-1.6,6-5.8,3.9-.5,7.6-1.8,11.4-.2,1.8,1.2,1.6,4.9,2.7,5.9h0ZM138,204.9c-2.3,0-3.6-2.4-5.7-2.8-12.9-2.9-23.3,8.2-17.5,20.5,4.2,8.8,16.5,11.2,23.2,3.8-1.2-5.5-6.1,0-9.5,0-13,.2-13.6-21.5,0-20.6,3.6.2,9,4.8,9.5-.9h0ZM157.5,201.9c-3.9-.8-10.2.6-14.5,0-1.4,0-1.5,25.1,0,27.9,8.2,2.5,2.1-10.6,7.4-11,5-.4,8.5,10.9,10.1,11.1,1,.1,2.3-.2,3.4,0,1.6-2.8-6.1-11.1-5-12,6.2-.6,6.5-10.4,2.8-13.8-.2-.2-4-2.2-4.3-2.2h.1ZM175,201.9c-1.7,0-4.3-.4-4.9,1.6-.8,2.8-.4,19.1-.2,22.9s1.5,3.7,5,3.5v-28h0ZM186.2,224.1c2.2-1.7,8.1.1,10.9-.7,2.3,1.5,2.5,12.2,7.9,4.9-3.9-7.6-5.6-16.1-8.9-23.9-1.1-2.6-2.6-3.2-5.4-2.3-1.3.4-3.4,5.2-4.1,6.9-1.7,4-5.4,12.9-6.3,16.7-.5,2-.7,5.1,2.3,5.3,2.6-.8,2.9-6.3,3.7-6.8h0ZM229.8,204.1c-2.4-2.3-9.9-2.7-13.1-2-11.5,2.4-12.8,21.4-3.1,26.7,3.1,1.7,5.9.4,7.4,4.6l-5,1.5,1.6,2.9,6.4-.3c3-2.2-1.4-4.6-1-6,2.5-3.1,8.8-2.5,8-7.5-6.1.4-12.6,5.6-16.9-1.6-2.4-4.1-2.1-8-.7-12.4,1.1-3.4,5.7-4.3,9-3.9,2.1.2,5.2,2.4,7.1,2s1.2-3,.3-3.8h0v-.2ZM235,229.9c5.6,2.8,4.2-4.4,5.9-5.5l10.5-1.3c2.4.4,2.2,7.9,6.1,7.9.9.2,2.3-.9,2.5-1.6.5-2-9-23.1-9.9-27-2.8-1.2-5.5-.5-6.9,2.2-1.1,3.6-9.9,23.4-8.1,25.3h-.1ZM270.7,202.1c-2.5.5-7.4,5.4-8.2,7.8-3.1,8.8,1,19.9,11.1,21,6.7.7,14.5-4.7,15.4-11.5,1.6-12.2-5.9-20-18.3-17.3h0ZM304,201.9v28c9,.2,19.6,1.5,22.8-8.8,5.3-17-8.7-20.9-22.8-19.2ZM340.7,202.1c-10.7,2.2-12.1,21.6-3.1,26.7,9.1,5.1,20-.1,21.3-10.4,1.5-11.5-7-18.6-18.3-16.3h.1ZM398,209.9v18.5c0,1.3,3.7,1.8,5,1.5v-17.5c-1.2-2.2-.4-9-2-10-1.3-.9-4.7-.9-5.6.5-2.8,4.2-2.7,12.7-7.5,16l-5.5-16.1c-9-3.3-6.8.8-7.5,6.6-.3,2.1-1,3.7-1.1,5.9-.1,2.8-.5,10.8.2,12.9s3.2,1.7,4.9,1.6l1-19c1.4,0,2,2.8,2.5,4,2.1,4.9,2.6,13.4,9.4,9.8.9-4,2.4-7.9,3.9-11.6.5-1.2.5-2.9,2.3-3.2h0ZM413,201.9h-4c-1,6.6-2.1,20.8,2.5,26,3.9,4.3,13.5,3.7,16.9-1,.4-.6,2.5-4.2,2.5-4.5v-20.5h-5v20.5c0,2.1-7.3,5.9-10.5,2.5-.3-.4-2.5-5.2-2.5-5.5v-17.5h.1ZM441,229.9v-19c2.4-.6,1.6.4,2.2,1.3,2.3,3.2,10.1,16.8,12.4,17.6,1,.3,2.2.2,3.3.1,1.4-1.4,1.6-25.4.6-27-.9-1.4-3-.9-4.5-.9v18c-2.4.6-1.6-.4-2.2-1.3-3.8-5.2-7.1-10.9-10.7-16.2-3.6-1.1-5.8-1.1-6.1,3-.4,5.4-.6,15.8,0,21,.5,3.7,1.4,4,5,3.5h0ZM466,229.9h14.5c.2,0,3.5-1.6,4-2,5.9-4.1,6.9-13.6,3.7-19.8-4-7.6-15-6.8-22.3-5.8-.7.5-.9,1.2-1,2-.6,4.7-.4,16.1,0,21.1.1,1.7.9,2.9,1,4.5h0ZM502.7,202.1c-6.9,1.6-10.4,9.7-9.6,16.3,1.5,11.9,17.4,17.2,24.4,7.5,8.8-12.1.5-27.2-14.8-23.8h0Z" fill="#fff"/>
  <path d="M333,71.9v-33h13v59c-4-.5-10.3,1.2-13.5-.9-1.6-1.1-8.5-12.9-10.3-15.7-2.8-4.5-6.1-9.9-8.1-14.7-.5-1.2-2.1-.4-3-.6v32h-13v-59c3.7.6,11.9-1.2,14.6.9,1,.8,5.1,7.9,6.3,9.7,1.8,2.9,4.5,7.1,6,10,2,3.1,3.7,12.9,8.1,12.3h-.1Z" fill="#fff"/>
  <path d="M116.1,477c-3.5,11.9-18.6,15.6-29.6,14.8-3.3-.2-5.8-1.6-9.9-.8-2.5.5-3.9,2.9-6,4-6.2,3.3-8.1,1.4-5.7-5.2-3-.4-6.8,1.2-9-1.5,1.1-3.7,4.3-2.8,6-5.5-4.2.4-8.4,0-8-5,3.1-1,6.2-1.2,9.5-1,12.1.7,17.2,1.9,29-2.9,1.6-.6,2.8-1,2.4-3.1-4.2,0-7.4,3.4-11.6,4-2.6.3-8.7.4-10.8-.9l-2.6-5.6c.8-.9,1.1-1.5,2.4-1.5s8.2,3.3,7.6-1c-4.1-.6-14.3-1.4-16.5-5-2.4-3.9,6-2.9,8-3s1.6.1,1.5-2c-5-.5-10-2.3-14-5.5,5.6-7,23-2.4,29.9,1.1l15.1,10.4c1.5-1.5-5.8-6-6.1-8.5-.6-6.4,9.3-12.3,14.8-13.3,16.4-2.8,27,12.8,20.5,27.5-3.3,7.4-9.7,8.3-17.1,9.4h.2ZM125.8,451.1c-4-4-11.1,4.1-3.8,6.4,4.5,1.4,6-4.2,3.8-6.4Z" fill="#fff"/>
  <polygon points="140.1 458.8 143 459.9 138 460.9 138 453.9 140.1 458.8"/>
  <path d="M166,38.9h11.9c-.1,1.6.8,3.1,1,4.6,1.8,16-1.2,34.7.1,51,.3,1.4-1.1,4-2.5,4.1-.6,0-1.4-.6-2-.5-5.4.8-7.8,2.6-11.4-2.8-5.6-8.3-9-19.9-15.3-27.7-.9-1.1-1-2.1-2.8-1.7v32l-13.1-.4-.8-1.2.3-56.4c1.2-1.8,11-1,13.6-.5l18.5,32.5c.9.4,2.5-1.2,2.5-1.5v-31.5h0Z" fill="#fff"/>
  <path d="M371,155.9l2.8-1.7c2.4-9.8,4.8-19.7,7.7-29.3.9-3,2.5-9.8,4-12s10.6-.5,13.5-1c.3,3.1-.7,6.1-1.5,9-3.8,14.2-8.4,31-13.2,44.8-1.1,3.1-1,5-4.7,5.3-2.5.2-15.4.3-16.6-.5-1.2-1.6-2-3.4-2.7-5.3-4.9-13-8.8-29.8-12.5-43.5-.8-3.2-3.4-6.1-1.7-9.7l13,.4.9,1.1,11.1,42.4h0Z" fill="#fff"/>
  <path d="M408,112.9c1.2-1.4,18.4-1.2,21.5-1s8.7,1.2,11.7,2.3c15.8,5.5,15.6,26.9.7,33.3l.2,1.8c1.7,2.8,12.4,20.2,10.9,21.6l-14-.5c-4.4-4.6-6.9-15.9-11.4-19.6-1.7-1.4-4.8-1.6-5.5.7-1.4,4.7,1.1,13.3-.6,18.4-1,1.4-12,1.8-13.5-.6v-56.5h0ZM422,140.9c6,.3,12,.8,15.5-5,6.1-10.2-7-14.9-15.5-13v18h0Z" fill="#fff"/>
  <path d="M232.5,38.9c2.5.7,1.2,8.2,1.6,10.4,0,.4-2.4,1.6-2.6,1.6h-14.5v46.5c-3.7,3.5-9.5.5-14,.5v-47l-14.1-.5-.9-11.5h44.5Z" fill="#fff"/>
  <path d="M288,97.9h-15l-3.6-10.1c-5.4,1-15.1-1.2-19.8.2-3.3,1-1.6,9.2-6.6,10.4-.5,0-8.5-.3-9.6-.5-1.2-.2-1.7-.6-2.5-1.5l17.5-56.5c.5-.7,1.2-.9,2-1,2.6-.4,18-.3,19.5.5,1,.5,1.7,1.9,2,3l15.9,55.6h.2ZM267,76.9c-.6-7.6-3.5-15.6-5.7-22.8-.4-1.2-.5-2.4-1.8-3.2-4.4,7.6-6.4,17.4-7.5,26h15Z" fill="#fff"/>
  <path d="M85.7,287.1c24-3.3,46.9,16.2,41,41-6.9,29.3-48.6,35.2-65.2,10.6-14.1-20.9.2-48.4,24.2-51.7h0ZM78.8,314.1c-5.7-2.5-10.9.2-9.8,6.8l2.4-4c2.1-2,3.9-2,6.1,0l1.9,4c3.1-2.1-.2-4.4-.7-6.8h0ZM114.8,315.1c-4.4-4.9-12.4-.9-10.8,5.8l2.4-4c1.7-1.6,3.8-2.2,5.6-.5,1.4,1.4.8,5,4,4.5,0-1.7,0-4.4-1.2-5.8h0ZM85,330.9c-1.5-1.9-4.3,2.5.7,5.9,4.5,3,9.5,2.6,13.7-.8,1.5-1.2,3.3-5.9-.3-5-1.2,6.2-8,6-12.8,3.8l-1.2-3.8h0Z" fill="#fff"/>
  <path d="M519,170.9l-13.1-.4c-.5-.3-2-4.4-2.5-5.6-1.1-3.1.4-4.7-3.9-5.1-6-.5-12.5.4-18.5,0l-3,10.5-13,.5c-.9-4.1,1.8-7.3,2.8-10.7,3.5-12.4,6.9-24.9,10.7-37.3,1.1-3.5,2-7.9,4.5-10.5,1.6-.8,15-.8,17.5-.5s4.1,6.4,5,9c3.2,9.7,6.2,20.2,9,30,.8,2.7,5.3,19.3,4.5,20h0ZM493,124.9c-2.4-.5-1.6.3-2.2,1.3s-1.2,2.3-1.6,3.5c-.9,2.8-5.4,19.2-4.2,20.3,2.8-.5,14.2,1.4,15-1.6l-7-23.4h0Z" fill="#fff"/>
  <path d="M92,403.9c2.9-.5,3.7-2.8,6.9-3.5,9.6-2.3,17,6.1,13.3,15.3-2.6,6.4-10.3,8.2-16.7,7.3-2.2-.3-3.9-2.5-5.9-1.9-.7.2-3.4,2.8-5.3,3.8-4.5,2.3-9.6,2.8-14.7,1.9-3.3-.6-9-4.8-10.2-4.8s-3.1,1.7-5,2c-9.6,1.5-22.9-2.4-20.3-14.3,1.7-7.9,10.9-9.6,17.7-8.8,3.5-25,39.1-21.8,40.1,3.1h.1Z" fill="#fff"/>
  <path d="M293,170.9l16.9-57.6c.5-.5,1-1.1,1.7-1.3,2-.6,14.3-.5,16.9-.2.8,0,1.5.2,2,1l17.5,56.5c-.6,1-1.3,1.4-2.5,1.6-1.9.3-10.4.3-11.9-.1-2.6-.8-2.6-10-5.2-10.8-4.3-1.3-12.9.7-17.8-.2l-3.6,11.1h-14ZM312,148.9c2.6.8,15.9,2.3,16-.5-2.8-6.4-3.9-13.4-5.9-20.1-.4-1.2-.3-2.7-1.6-3.4-1.8-.8-2.1,2.4-2.5,3.5-2.5,6.6-3.6,13.8-6,20.5h0Z" fill="#fff"/>
  <path d="M242,170.9l-13.1-.5-4-10.5h-19.3c-1.3,0-2.3,7.4-3.1,8.9-1.9,3.7-10.7,1.4-14.5,2l17.1-58.9c5.7.4,12.9-.9,18.4,0,2.4.3,3.4,4.4,4.2,6.8,4.7,13.7,8.8,30.3,12.5,44.5.6,2.5,2.7,4.5,1.8,7.7h0ZM216,124.9c-1-1.3-1.8,0-2.2,1.3-2.1,5.9-3.5,12.5-5.6,18.5-2.4,8.2,9.8,5.2,14.8,4.3l-7-24h0Z" fill="#fff"/>
  <path d="M117,170.9c-4.3-.7-12.8,2.1-14.8-2.7-1.5-3.7.3-7.9-4.7-8.3-5.6-.4-11.8.4-17.5,0l-2.9,10.6-13.1.4.2-5.3,16.8-53.2c1.1-.7,15.4-.8,17.5-.5,1.4.2,2.2.9,3,2,4.1,12.9,7.4,26,11,39,1.7,5.9,5,11.6,4.5,18h0ZM89.5,124.9c-1.5.5-1.3,2.4-1.5,3.5-.7,3-5.2,18.8-4.9,19.9.6,2.2,11.4,2.1,13.4,1.5.9-.3,1.6-1.1,1.5-2.2-.4-2.6-2.6-7.6-3.4-10.6-.5-1.9-1.9-13-5-12h0Z" fill="#fff"/>
  <path d="M360,38.9h30.5c1.3,0,9.3,3.2,10.9,4.2,19.3,12.5,15.1,46.5-8.1,53.6-3.8,1.2-12.5,2.1-16.7,2.3s-16,1.1-17.4-3.7l-.2-51.9,1-4.5h0ZM374,86.9c13,.7,24.1-1.4,25-16.4,1-17.2-9.5-21.9-25-20.5v37h0Z" fill="#fff"/>
  <path d="M445.7,38.1c7.5-1.3,19.1-.3,25.6,3.9,16.5,10.7,17,39.3,1.6,51.3-14.4,11.2-40,7.4-47.7-10.2-4.6-10.6-3.6-23.9,2.9-33.6,3.2-4.8,11.9-10.5,17.6-11.4h0ZM463.8,52.1c-.9-.8-6.9-3.1-8.3-3.2-7.4-.8-14.1,3.6-16.6,10.3-5,13,.3,30.5,16.8,28.7,13.1-1.4,17.4-20,12.3-30.3-.2-.5-3.7-5.2-4-5.5h-.2Z" fill="#fff"/>
  <path d="M165.5,111.9c2.4.2,7.9,1.7,10.2,2.8s5.9,3.8,7.2,5.8c3.1,5.2,3.6,15.3.9,20.7-4.7,9.6-18.1,11.5-27.8,10.7-.6,3.3,1.2,17.1-.9,18.6-3.9.4-10.1,1.7-13.1-1.1v-56c-5-1.6,1.4-1.5,1.5-1.5,6.9,0,15.4-.7,22,0h0ZM156,141.9c9.6,1.1,16-2.1,15.1-12.6-.6-6.5-9.9-7.8-15.1-6.4v19Z" fill="#fff"/>
  <path d="M515,280.9c5.5-1.7,10.4-5.2,16-1.5,2.4,1.6,4.3,4.3,4.8,7.2,2.3,12.8-12.3,20.4-22.3,13.2-3.6,1.8-6,5.1-10.2,5.8-8.6,1.5-16.1,0-21.9-6.7-5.6,2.4-7.2,3.8-13.1,1.1-13.3-6.1-3.6-25.4,9.2-18.2,2.4-1.5,1.1-4,1.7-6.3,2.4-9.7,16.1-9.6,24.4-8.7,6.2.6,11.3,8,11.5,14h0Z" fill="#fff"/>
  <path d="M55,38.9h26.5c1.2,0,9.2,4.4,10.4,5.5,5.8,5.5,6.2,15.3,3.5,22.5-4.5,11.9-15,13.7-26.5,14.4-2.4,1.6.3,12.2-1.4,15.6-1.5,3.1-13.1,3.5-13.5-1.5,1.1-16.8-1.4-35.4,0-52,0-1.7.9-2.9,1-4.5h0ZM68,51.4v17.5c5.4,2.3,14.5-1.3,15.1-7.5,0-1.5,0-3.5,0-5-.9-6.9-14.1-8.3-14.9-5h-.2Z" fill="#fff"/>
  <path d="M265,112.9v45c1-.4,2.3,1,2.5,1h17.5c-.5,3.8,1.5,9.2-1.5,12h-31c-.1,0-1.5-1.4-1.5-1.5v-55c3.4-3.1,9.6-.9,14-1.5Z" fill="#fff"/>
  <path d="M119,97.9c-4.6.4-8.4,2-13,0v-57.5c1.8-2.9,13-1.8,13,1v56.5Z" fill="#fff"/>
  <path d="M522,56.9l4,8.5,12,1.5c0,4.7-4.6,5.5-6.8,8.7l.8,12.3c-4.6.3-7.4-3.9-11.5-5l-11.5,5,1.9-12.3c-2.2-3.9-7.6-4.3-6.9-9.7l11-.5c3-1.5,2.8-8.5,7-8.5h0Z" fill="#fff"/>
  <path d="M406,259.9c-.9,4-6.4,6.4-7.6,9.9-.8,2.5-.7,8.8-.4,11.5.5,4.2,4.6,9.5,8,12,1.4,1,3.9.9,4,2.5-10.9,2.8-21.6,1.4-27.2-9.3-2.5-4.8-3.1-13.5.6-17.7,1.1-1.2,6.3-5.2,7.9-6.1,4.7-2.8,9.4-3.2,14.7-2.8h0Z" fill="#fff"/>
  <path d="M104.2,508.1c2.6-2.9,11.2-3,14.5-1.5,4.1,1.9,4,5.9,5.2,6.8,2.1,1.5,7.4-1.2,11.1,2.9,5.6,6.2-.9,13.8-8.6,13.6-1.3,0-2.9-1.1-3.8-.9-1.1.2-3.6,2.8-5.6,3.4-7.8,2.3-8.4-4.1-13.5-3.5-4.4.5-5.4,1.7-10.3-.8-9-4.7-1.5-19.5,8.1-15.3,2-.7,1.8-3.5,2.9-4.7h0Z" fill="#fff"/>
  <path d="M185,270.9c-.5-3.2,7.1-6,9.3-5.8,8,.7,9.8,7.9,6.9,14.5-1.9,4.2-13.3,15.6-17.7,15.3-4.9-.4-14.5-10-16.8-14.3-7.5-14.4,8-20.9,16.7-9.7h1.6Z" fill="#fff"/>
  <path d="M452,322.9c1.2,4.4-5,4.9-5.9,7.6-1,3.2,1.2,6.1.9,9.4l-9.3-3.9c-3.3,1.5-5.6,4.6-9.7,3.9l2.9-9.3c-.7-2.4-7.3-3.9-6.9-7.6,2.5-.8,7.1-.5,9-1.5,3.1-1.5,3.8-14.1,8.9,0l10.1,1.4h0Z" fill="#fff"/>
  <path d="M68,522.9c.7,3.1-4.3,3.8-4.9,5.6l.9,8.4-7.5-4.1-7.5,3.1c.4-2.5,1.7-4.6.8-7.3-.6-2-4.3-3-3.8-5.7l7.9-1.2,2.1-5.9c3.4-.5,3.1,4.1,5,5.5,1.6,1.1,5,1.5,7,1.5h0Z" fill="#fff"/>
  <path d="M447,274.9l-.6,2c-2.6.7-5.2,2.1-5.4,5h-2c-.2-4-4.8-4.1-7-6.5,2.9-1.4,6.6-2.8,7-6.5,3.6,0,3.7,5.9,8,6h0Z" fill="#fff"/>
  <path d="M217,671.9c5.9-2.2,17.2-1.1,18,6.6.5,4.9-3.3,5.8-4,9.5,8.8,1.3,9.4,11,2.9,16.4-6.4,5.4-13,4.8-20.9,4.6-1.3-6.5,8.6-12.7,6.9-18.4-1.4-4.4-8.1,2.4-10.9,1.4-.5-4.9.6-16.3-7-12.5-2.8,1.4-2.6,11.2-3,14.5-1.4,1.4-11.4-6.6-13.9-1.4-1.3,4.6,9.3,12.1,7.9,18.4-15.6,2.7-35.6-15.8-15.4-26,0-7.6,3.9-11.9,11.3-13.2,1.5-5.3,1.3-8.8,6.2-12.3,10.3-7.4,21.6.9,22,12.5h-.1Z" fill="#fff"/>
  <path d="M194.5,733.9c-4-1,1.1-12,1.4-14.5.9-6.5-.6-12.5-3.8-18.2-.7-1.3-6.2-7.4-5.2-8.3,4.4-1.5,8.3,5.4,12,3.5s1-13,5.5-15.5c3,2.2,1.6,12.3,3.4,13.5,3.5,2.4,6.6-3.1,10.1-2.5-4.4,8.4-9.9,16.5-8.9,26.4.3,3.5,3.2,10.4,3,13.1,0,.9-1,2.5-1.6,2.5h-16,.1Z" fill="#fff"/>
  <path d="M131,610.9c-.7,6.4-3.6,13.1-4,19.5-.5,7.2,1.9,13.8,4,20.5-9.5.5-19.2-.4-27.7-4.8-3-1.5-5.4-4.4-8.8-5.2-2.1,0-10.7,10.3-15,6.1-2.3-3.4,3.7-11.3,6.5-13.5-4.3-3.9-7.9-7.3-4.9-13.4,5.5-1.2,9.7,2.3,13.4,5.9h1c8.3-10.8,21.6-16.4,35.5-15h0Z" fill="#fff"/>
  <path d="M156.9,637.7c-5,1.7-7.4-2.5-11.9-2.8-.3,2.4,2.8,4.4,4.7,4.8,2.4.6,5-1,4.3,2.2-6.8,3-13,8.1-20.9,8-2.9-7.6-3.7-15.3-3-23.4.4-4.8,2.7-9.7,2.9-14.5,1.3-1.6,11.7,2.7,13.7,3.8,8.3,4.4,16.5,12.5,10.1,22.1h0v-.2ZM146.9,628.8c2.7-4.9-1.9-6.7-5.8-4.8v4.9h5.8Z" fill="#fff"/>
  <path d="M110,709.9c3.4,3.8,2.7-15.8,14.3-14.9l2.2,1.9c3.3,6.6-7.1,17.8-12.8,20.2-10.8,4.5-26-2-30.9-12.5-2-4.3-2.9-10.2,3.7-9.7,3.5.2,7.4,5.2,9,8.1.5.8,4.5,12.4,6.6,9.9-.5-4.5-2.8-19,.9-21.5,7.7-5.2,7.7,14.8,7.1,18.5h0Z" fill="#fff"/>
  <path d="M434,703.9l.5,10c-2.1,1.9-5.3,2.4-8,2-1.7-.3-2.6-2.1-3.8-1.9-3.4.5-3.5,5.2-10,3.7-7.6-1.7-4.1-10.2-4.7-10.8-7.8,3.8-16.8-3.1-11.5-11,1.9-2.8,4.1-2.6,6.5-4.6-6.9-11.8,5.1-19.9,13.5-9.5,1.7-1,2.2-3.3,3.5-4.5,7.9-7,18.4,1.7,11,10,1.3,2.1,3.5,1.1,5.3,1.7,8.9,2.8,6.9,14.7-2.3,14.8h0ZM425.8,690.1c-10-8.3-22.3,7-11.1,13.6,8.8,4.8,17.3-6.8,11.1-13.6Z" fill="#fff"/>
  <path d="M445,724.9c.2,12.6-15.8,20.3-27,20,3.4-11.9,14-21.2,27-20Z" fill="#fff"/>
  <path d="M413,743.9c-9.7,0-17.2-7.2-20.5-16-.6-4.3-3.1-7.5,3.1-7.1,9,.6,17.3,14.6,17.5,23h-.1Z" fill="#fff"/>
  <path d="M420,719.9c-1.4,6.4-1.3,13.1-3,19.5-.4,1.4,0,3.1-2,3.5.4-7.5,1.1-15,2-22.4.1-1.2,2-.4,3-.6h0Z" fill="#fff"/>
  <path d="M479.8,520.1c2.4,2.2,4.7,9.4,4.2,12.8,2.6,0,3.8-2.7,6.5-3,7.8-.8,12.9,5.2,9.6,12.5.1,2.1,6.1,1.1,7.7,2.7,2.9,2.9-.3,5.3-3.3,5.8-6.4.9-15.2-.2-22,0-14.2.5-29.6,2.4-44,1.1-1.5,0-2.9-.5-4.3-1.2l-.8-2.9c2.5-5.9,8.1-5.1,13.6-5-.5-4.2-1.7-7.3,1.5-11,2.9-3.3,7.6-1.1,9.5-2.5,1.4-4.9,2.5-8.3,7.7-10.3,3.6-1.4,11.1-1.8,14,1h0Z" fill="#fff"/>
  <path d="M515,707.9c2.9,0,3.6-2.9,6.4-4,6.5-2.7,11.1.5,10.6,7.6-.2,2.2-1.5,4.2-1,6.5.6.5,13.7-1.8,7.5,5-1.7,1.8-8.6,4.2-11.2,4.8-11.2,2.2-39.6,2.1-49.6-3-1.2-.6-5.3-4.5-5.6-5.5-1.4-5,7-11.7,12.2-11.2,2.8.3,4.8,3.3,7.7,2.8-3.2-19.5,24.5-22.1,23-3h0Z" fill="#fff"/>
  <path d="M387,643.9c6.4-1.7,16.6,6.5,7.5,10-6.6,2.7-17,1.6-24.1,1.9-11,.5-22.8,1-34,0-2.8-.2-8.3-1.2-8.5-4.5-.6-7.5,9.9-5.2,11.6-7.5l.4-.6c-3.8-10.6,6.9-12,15-9.4.4-8.4,8.4-13.7,15.5-8,3.8,3,1.7,4.3,2.6,7.4,1,3.3,4.1,0,6.4-.4,13.5-2.1,6.6,10.2,7.5,11h.1Z" fill="#fff"/>
  <path d="M292,277.9c0,1.2.5,2.4,1.1,3.4,10,14.8,30.9,21.3,47.7,24.8,4.9,16.5.5,37.9-19.2,40.8-5.1-4.5-10.5-9.3-17.6-10,0-3.2-1.2-7.7-5.1-7.9-.2,2.2,1.8,3.4,2,5.5.8,7.2-8.8,8.4-14.3,7.3-3.7-.8-7-4.4-6.7-8.3.1-1.9,4.1-5.8.5-5.5-2.5,1.3-2.8,6.7-3.7,7.8-.5.6-7.3,2.2-9.2,3.3-4.4,2.5-5.8,7.1-11.9,5.7-16.6-4.9-20.1-23.8-15.6-38.7,13.9-3.4,31.7-8.1,42.4-18.1,2.7-2.5,4.6-6.4,7-9,.8-.9,1-1.4,2.5-1h.1ZM270,303.9c-5.1,0-10.1-.6-14.7,1.8-2.2,1.2-4.8,3.3-4.3,6.2,2.8.4,2.1-2.3,4.6-3.9,4.7-2.9,9.3-2.3,14.4-1.1v-3h0ZM329,311.9c.5-4.3-4.5-6.8-8-7.5-2-.4-12-1.4-12,1,2.3,3.2,5.8.7,8.3.8,4.2.2,8.5,3.1,11.7,5.7h0ZM256,321.9c-1.8,0-2.1-.5-2,1.5.3,6.8,9.9,9.4,14.6,5.5,1.8-1.5,6.4-8.5.5-7.1l-1.2,4.8c-5,2.5-11.6,1.8-11.8-4.8h-.1ZM312,322.9c-5.4-1.7-1.6,5,0,6.5,3.2,2.9,10.8,2.1,13.5-1.5,1.2-1.6,3.2-5.7-.5-5-1.9,7.2-12.3,8.8-13,0h0Z" fill="#fff"/>
  <path d="M398,209.9c-1.7.3-1.8,2-2.3,3.2-1.5,3.8-3,7.6-3.9,11.6-6.7,3.6-7.2-5-9.4-9.8-.5-1.2-1.1-4-2.5-4l-1,19c-1.7,0-4.3.4-4.9-1.6s-.3-10.1-.2-12.9c.1-2.2.8-3.9,1.1-5.9.7-5.8-1.5-9.9,7.5-6.6l5.5,16.1c4.8-3.3,4.6-11.8,7.5-16,.9-1.4,4.3-1.4,5.6-.5,1.6,1.1.7,7.8,2,10v17.5c-1.4.3-5-.2-5-1.5v-18.5h0Z"/>
  <path d="M441,229.9c-3.6.4-4.5.1-5-3.5-.6-5.2-.5-15.6,0-21,.3-4.1,2.5-4.1,6.1-3,3.7,5.3,7,11,10.7,16.2.6.9-.2,1.8,2.2,1.3v-18c1.5,0,3.6-.4,4.5.9,1,1.6.8,25.6-.6,27-1.1.1-2.3.2-3.3-.1-2.4-.7-10.1-14.4-12.4-17.6-.6-.9.2-1.8-2.2-1.3v19h0Z"/>
  <path d="M466,229.9c-.2-1.6-.9-2.8-1-4.5-.4-5-.6-16.3,0-21.1.1-.8.2-1.6,1-2,7.3-.9,18.2-1.8,22.3,5.8,3.2,6.1,2.2,15.6-3.7,19.8-.6.4-3.8,2-4,2h-14.6ZM471,225.9c7.3,1.2,13.8-1.3,14.1-9.5.2-8.7-6.2-11.6-14.1-10.5v20Z"/>
  <path d="M157.5,201.9c.2,0,4.1,2.1,4.3,2.2,3.7,3.4,3.5,13.2-2.8,13.8-1.1.8,6.6,9.2,5,12-1.1-.1-2.4.2-3.4,0-1.6-.2-5.1-11.5-10.1-11.1-5.3.5.8,13.5-7.4,11-1.6-2.8-1.5-27.9,0-27.9,4.3.6,10.6-.8,14.5,0h-.1ZM148,214.9c15.2,2.5,15-11.2,0-9v9Z"/>
  <path d="M502.7,202.1c15.3-3.4,23.5,11.7,14.8,23.8-7,9.7-23,4.4-24.4-7.5-.8-6.6,2.7-14.7,9.6-16.3h0ZM504.7,206.1c-7.3,1.6-7.9,15-2.2,18.9,13.9,8.8,20.7-22.2,2.2-18.9Z"/>
  <path d="M340.7,202.1c11.2-2.4,19.7,4.7,18.3,16.3-1.3,10.3-12.3,15.5-21.3,10.4-9-5-7.6-24.4,3.1-26.7h-.1ZM339.2,207.1c-3.8,2.9-3.3,16.9,2.4,18.6,10.6,3.1,15.3-9.4,10.2-17.2-1.9-2.9-10.1-3.3-12.7-1.4h.1Z"/>
  <path d="M270.7,202.1c12.4-2.7,19.9,5.1,18.3,17.3-.9,6.8-8.7,12.2-15.4,11.5-10.1-1.1-14.2-12.2-11.1-21,.9-2.4,5.8-7.2,8.2-7.8h0ZM272.7,206.1c-8.2,1.9-7.2,17.8-1,19.6,16.3,4.8,17.3-23.3,1-19.6Z"/>
  <path d="M304,201.9c14-1.6,28,2.3,22.8,19.2-3.2,10.3-13.8,8.9-22.8,8.8v-28ZM308,207.4v17c3.6,3.2,11.2,1.8,13.2-2.8,1.5-3.4,1.5-11.3-1.7-13.8-2.2-1.8-10.8-3.3-11.5-.4h0Z"/>
  <path d="M94.2,229.7c-1-1.1-.8-4.7-2.7-5.9-3.9-1.6-7.5-.3-11.4.2-.8,4.3-.8,8.5-6,5.8-.2-1.4-.2-2.9,0-4.2.9-3.7,4.6-12.7,6.3-16.7,1.8-4.4,3.7-9.6,9-6l9.3,23.7c1.3,3.9-2.3,5.5-4.7,3.1h0ZM86,206.9c-.2,3.2-3.8,8.4-2.9,11.4.7,2.5,7.2,2.3,6.8-.7l-3.9-10.7Z"/>
  <path d="M235,229.9c-1.8-1.9,7-21.8,8.1-25.3,1.4-2.7,4.1-3.4,6.9-2.2.9,4,10.5,25.1,9.9,27-.2.7-1.6,1.8-2.5,1.6-3.9,0-3.7-7.5-6.1-7.9l-10.5,1.3c-1.7,1.1-.3,8.3-5.9,5.5h.1ZM246,207.9c.6,2.6-3.3,8.9-3,10.4.4,2.1,8.9,2.5,7.6-1.5-.7-1.9-1.4-4.2-2-6-.5-1.2-1.1-2.7-2.5-3h-.1Z"/>
  <path d="M186.2,224.1c-.8.6-1.1,6-3.7,6.8-3-.2-2.8-3.3-2.3-5.3.9-3.8,4.6-12.7,6.3-16.7.7-1.6,2.8-6.5,4.1-6.9,2.9-.9,4.4-.3,5.4,2.3,3.2,7.9,5,16.4,8.9,23.9-5.4,7.3-5.6-3.5-7.9-4.9-2.8.9-8.6-1-10.9.7h0ZM193,208.9c-2.4-.2-1.6-.2-2.1,1.4-.7,2.6-1.7,5-2.5,7.6-.9,3.1,7.3,2,7.6.5l-3-9.5h0Z"/>
  <path d="M413,201.9v17.5c0,.3,2.1,5.2,2.5,5.5,3.2,3.4,10.5-.4,10.5-2.5v-20.5h5v20.5c0,.3-2.1,3.9-2.5,4.5-3.5,4.7-13.1,5.3-16.9,1-4.6-5.2-3.5-19.4-2.5-26h4-.1Z"/>
  <path d="M229.8,204.1c.9.8,1.4,3.4-.3,3.8s-4.9-1.7-7.1-2c-3.3-.4-7.8.5-9,3.9-1.5,4.4-1.7,8.3.7,12.4,4.3,7.2,10.8,2,16.9,1.6.8,5-5.5,4.5-8,7.5-.4,1.4,4,3.8,1,6l-6.4.3-1.6-2.9,5-1.5c-1.4-4.2-4.3-3-7.4-4.6-9.7-5.3-8.5-24.3,3.1-26.7,3.2-.7,10.7-.3,13.1,2h0v.2Z"/>
  <path d="M138,204.9c-.5,5.7-5.9,1.2-9.5.9-13.6-.9-13,20.8,0,20.6,3.4,0,8.2-5.6,9.5,0-6.7,7.4-19.1,5.1-23.2-3.8-5.8-12.3,4.6-23.4,17.5-20.5,2.1.5,3.4,2.8,5.7,2.8h0Z"/>
  <path d="M175,201.9v28c-3.5.2-4.8.2-5-3.5s-.6-20.2.2-22.9c.6-2.1,3.2-1.7,4.9-1.6h0Z"/>
  <path d="M254,192.9l-1.1,5.9c-4.5,1.3-5.4-4.2-9.8-2.8-.6,2.5-1.4,3.3-4.1,2.9-.2-5.8,8.3-6.7,11.5-3l3.5-3h0Z"/>
  <path d="M125.8,451.1c2.2,2.2.6,7.8-3.8,6.4-7.2-2.3,0-10.3,3.8-6.4Z"/>
  <path d="M422,140.9v-18c8.5-2,21.6,2.7,15.5,13-3.5,5.8-9.5,5.3-15.5,5ZM425,138.9c15.5.8,15.1-16.8-1-14l1,14Z"/>
  <path d="M267,76.9h-15c1.1-8.6,3.1-18.4,7.5-26,1.3.8,1.4,2,1.8,3.2,2.2,7.2,5.1,15.2,5.7,22.8ZM264,74.9l-1.5-7-3.5-10c-1.4,5.6-4.3,11.1-4,17h9Z"/>
  <path d="M85,330.9l1.2,3.8c4.8,2.2,11.6,2.4,12.8-3.8,3.6-.9,1.8,3.8.3,5-4.1,3.5-9.2,3.8-13.7.8-4.9-3.3-2.1-7.8-.7-5.9h0Z"/>
  <path d="M114.8,315.1c1.2,1.3,1.3,4,1.2,5.8-3.2.5-2.6-3.1-4-4.5-1.8-1.8-3.9-1.1-5.6.5l-2.4,4c-1.7-6.7,6.4-10.7,10.8-5.8h0Z"/>
  <path d="M78.8,314.1c.5,2.4,3.7,4.8.7,6.8l-1.9-4c-2.1-2-4-2-6.1,0l-2.4,4c-1.1-6.6,4.1-9.3,9.8-6.8h0Z"/>
  <path d="M493,124.9l7,23.4c-.8,3-12.2,1-15,1.6-1.1-1.1,3.4-17.5,4.2-20.3.4-1.1,1-2.5,1.6-3.4s-.2-1.8,2.2-1.3h0ZM493,130.9c-2.3,1.2-3,5.3-3.7,7.8-.6,2-1.6,5.3-1.8,7.2-.4,3.4,9.5,2.4,9.5.5l-4-15.5h0Z"/>
  <path d="M312,148.9c2.4-6.7,3.5-13.9,6-20.5.4-1.1.7-4.3,2.5-3.5,1.4.7,1.3,2.2,1.6,3.4,2,6.7,3.1,13.8,5.9,20.1,0,2.8-13.4,1.3-16,.5h0ZM321,131.9c-1.3-1.8-1.8.2-2.1,1.4-1,3.8-3.1,9.1-3.5,12.6s7.4,1.6,9.6,2l-4-16h0Z"/>
  <path d="M216,124.9l7,24c-5,1-17.2,3.9-14.8-4.3,2.1-5.9,3.5-12.6,5.6-18.5.4-1.3,1.2-2.6,2.2-1.3h0ZM216,131.9c-1.4-1.8-1.8.2-2,1.5-.7,4.1-2.3,8.5-3.6,12.5-.9.7.6,1.8,1.1,1.9,1.6.4,8.3.5,8.4-1.4-1.9-4.6-4.2-9.5-4-14.5h.1Z"/>
  <path d="M89.5,124.9c3-.9,4.4,10.1,4.9,12,.8,3,3.1,8,3.4,10.6.2,1.1-.6,1.9-1.5,2.2-2,.6-12.8.7-13.4-1.5-.3-1.2,4.2-16.9,4.9-19.9.3-1.1,0-3,1.5-3.5h.2ZM86,147.9c2-.2,8.5.9,9-1.6l-4-15.4c-1.9.3-1.7,2.1-2.1,3.4-.6,1.9-3.5,13.1-2.9,13.6Z"/>
  <path d="M374,86.9v-37c15.5-1.3,26.1,3.4,25,20.6-.9,15-12,17.2-25,16.4ZM376,83.9c5.8-.2,11,1.1,16-2.6,6.4-4.8,6.3-21,0-25.9-4.7-3.7-10.4-2.3-16-2.5v31h0Z"/>
  <path d="M463.8,52.1c.3.3,3.8,5,4,5.5,5.1,10.3.9,28.9-12.3,30.3-16.4,1.8-21.7-15.7-16.8-28.7,2.6-6.7,9.3-11,16.6-10.3,1.4.2,7.4,2.4,8.3,3.2h.2ZM448.7,52.1c-4.3,1.2-8.1,7-8.6,11.4-1,7.4-.2,18.1,7.7,21.2,16.8,6.7,24.4-16,16.1-28.1-3.1-4.5-10-6-15.2-4.5h0Z"/>
  <path d="M156,141.9v-19c5.1-1.3,14.5,0,15.1,6.4.9,10.5-5.4,13.7-15.1,12.6ZM158,124.9c.6,3.2-1,11.8.5,14.1,2,3.1,9.9-.7,10.5-5.6,1-7.5-4.5-9.2-11-8.5Z"/>
  <path d="M68,51.4c.9-3.3,14.1-1.9,14.9,5,.2,1.5.2,3.5,0,5-.6,6.2-9.6,9.7-15.1,7.5v-17.5h.2ZM71,52.9v14c8.3.8,11.9-5.4,8.8-12.8-3.2-1.2-5.5-2.6-8.8-1.2Z"/>
  <path d="M146.9,628.8h-5.9v-4.8c3.9-1.8,8.5,0,5.8,4.8h0Z"/>
  <path d="M425.8,690.1c6.2,6.8-2.4,18.4-11.1,13.6-11.2-6.7,1.1-22,11.1-13.6ZM423.8,700.7c7.5-11.1-11.5-14.5-10.9-3.3.3,5.3,7,5.4,10.9,3.3Z"/>
  <path d="M256,321.9c.2,6.6,6.8,7.4,11.8,4.8l1.2-4.8c6-1.4,1.3,5.6-.5,7.1-4.7,3.9-14.3,1.3-14.6-5.5,0-2,.2-1.6,2-1.5h.1Z"/>
  <path d="M312,322.9c.7,8.8,11.1,7.2,13,0,3.7-.7,1.6,3.4.5,5-2.7,3.6-10.2,4.4-13.5,1.5-1.7-1.5-5.4-8.2,0-6.5h0Z"/>
  <path d="M329,311.9c-3.1-2.6-7.5-5.6-11.7-5.7-2.5-.1-6,2.5-8.3-.8,0-2.4,10.1-1.5,12-1,3.4.7,8.4,3.3,8,7.5h0Z"/>
  <path d="M270,303.9v3c-5-1.1-9.7-1.7-14.4,1.1-2.6,1.6-1.8,4.2-4.6,3.9-.6-2.9,2.1-5,4.3-6.2,4.7-2.4,9.6-1.8,14.7-1.8h0Z"/>
  <path d="M471,225.9v-20c7.9-1,14.3,1.8,14.1,10.5-.2,8.2-6.7,10.7-14.1,9.5Z" fill="#fff"/>
  <path d="M148,214.9v-9c15-2.2,15.2,11.5,0,9Z" fill="#fff"/>
  <path d="M504.7,206.1c18.5-3.3,11.7,27.6-2.2,18.9-5.7-3.9-5-17.2,2.2-18.9Z" fill="#fff"/>
  <path d="M339.2,207.1c2.5-1.9,10.8-1.6,12.7,1.4,5.1,7.9.4,20.4-10.2,17.2-5.7-1.7-6.3-15.7-2.4-18.6h-.1Z" fill="#fff"/>
  <path d="M272.7,206.1c16.2-3.7,15.3,24.4-1,19.6-6.2-1.8-7.2-17.8,1-19.6Z" fill="#fff"/>
  <path d="M308,207.4c.8-2.9,9.3-1.4,11.5.4,3.1,2.5,3.2,10.4,1.7,13.8-2.1,4.6-9.7,6-13.2,2.8v-17h0Z" fill="#fff"/>
  <path d="M86,206.9l3.9,10.7c.4,3.1-6.1,3.3-6.8.7-.8-3,2.7-8.2,2.9-11.4Z" fill="#fff"/>
  <path d="M246,207.9c1.4.2,2.1,1.8,2.5,3,.7,1.7,1.4,4.1,2,6,1.4,4-7.1,3.6-7.6,1.5-.3-1.6,3.6-7.9,3-10.4h.1Z" fill="#fff"/>
  <path d="M193,208.9l3,9.5c-.3,1.5-8.5,2.6-7.6-.5.8-2.5,1.8-5,2.5-7.6.4-1.6-.4-1.6,2.1-1.4h0Z" fill="#fff"/>
  <path d="M425,138.9l-1-14c16.1-2.8,16.5,14.8,1,14Z" fill="#fff"/>
  <path d="M264,74.9h-9c-.3-5.9,2.7-11.4,4-17l3.5,9.9,1.5,7h0Z" fill="#fff"/>
  <path d="M493,130.9l4,15.5c0,1.9-10,2.8-9.5-.5.2-1.9,1.2-5.2,1.8-7.2.7-2.5,1.4-6.6,3.7-7.8h0Z" fill="#fff"/>
  <path d="M321,131.9l4,16c-2.2-.4-10,1.4-9.6-2s2.5-8.8,3.5-12.6c.3-1.2.8-3.2,2.1-1.4h0Z" fill="#fff"/>
  <path d="M216,131.9c-.2,5,2.1,10,4,14.5,0,1.9-6.8,1.8-8.4,1.4-.5-.1-2-1.3-1.1-1.9,1.2-4,2.9-8.4,3.6-12.5.2-1.3.6-3.3,2-1.5h-.1Z" fill="#fff"/>
  <path d="M86,147.9c-.6-.6,2.3-11.7,2.9-13.6.4-1.3.2-3.1,2.1-3.4l4,15.4c-.5,2.4-7,1.4-9,1.6Z" fill="#fff"/>
  <path d="M376,83.9v-31c5.5.2,11.3-1.2,16,2.5,6.3,5,6.4,21.2,0,25.9-5,3.7-10.2,2.4-16,2.6h0Z" fill="#fff"/>
  <path d="M448.7,52.1c5.1-1.5,12.1,0,15.2,4.5,8.3,12.1.7,34.8-16.1,28.1-7.9-3.1-8.6-13.8-7.7-21.2.5-4.3,4.4-10.1,8.6-11.4h0Z" fill="#fff"/>
  <path d="M158,124.9c6.5-.8,12,.9,11,8.5-.6,4.8-8.5,8.7-10.5,5.6-1.5-2.3.1-10.9-.5-14.1Z" fill="#fff"/>
  <path d="M71,52.9c3.3-1.5,5.6,0,8.8,1.2,3.1,7.4-.6,13.7-8.8,12.8v-14Z" fill="#fff"/>
  <path d="M423.8,700.7c-3.8,2.1-10.6,2-10.9-3.3-.6-11.3,18.4-7.8,10.9,3.3Z" fill="#fff"/>
</svg>