<?xml version="1.0" encoding="UTF-8"?>
<svg id="Camada_1" xmlns="http://www.w3.org/2000/svg" version="1.1" viewBox="0 0 595.28 841.89">
  <!-- Generator: Adobe Illustrator 29.0.0, SVG Export Plug-In . SVG Version: 2.1.0 Build 186)  -->
  <path d="M.14,841.29V-.06h595v841.34H.14ZM590.54,3.89H4.08v221.51c16.5-7.43,36.95-11.18,53.09-.76l1.45-.2c11.23-8.76,9.3-21.57,15.13-32.94,12.52-24.4,40.38-33.8,66.66-31.08,5.24.54,10.56,4.26,13.27,4.47s7.71-1.97,10.67-2.41c17.71-2.6,37.1,3.72,46.84,19.19s8.34,31.58,5.91,48.32c14.68-5.11,26.24-7.6,41.56-3.1,17.16,5.04,31.68,19.34,48.15,26.12,21.84-14.79,39.69-34.38,57.81-53.33,28.21-29.5,70.96-87.49,118.23-74.02,30.51,8.7,65.37,60.95,86.94,84.63l20.73,20.35V95.25h-154.17c-3.27,0-6.97-3.72-7.42-7.08-1.31-9.8,11.48-15.58,19.58-13.3.4-11.63,12.83-17.25,23.28-15.72,3.32.49,5.64,2.99,8.93,3.22.63-32.81,50.24-35.43,57.87-4.6,11.92-10.45,31.4-5.62,34.2,10.51,5.55-1.62,12.32-2.32,17.73.01V3.89ZM436.36,91.97h154.17v-19.39c-6.6-5.15-14.03-.87-21.02.31.1-13.56-12.73-21.94-24.92-15.34-4.49,2.43-4.05,6.86-8.57,6.76-1.29-23.46-30.3-33.24-46.34-16.96-6.22,6.32-5.07,13.38-7.34,20.95-1.36.39-7.82-5.2-10.63-5.76-10.69-2.12-20.68,5.25-20.6,16.25-1.36.87-8.62-3.64-14.65,1.45-3.33,2.81-4.94,10.58-.1,11.73ZM516.52,153.47c-13.9-13.92-30.03-28.18-51.25-26.69-36.29,2.56-76.19,49.8-98.59,75.62-1.35,1.55-6.83,5.27-6.21,7.46,14.05,7.29,29.21-8.56,42.51-12.58,22.19-6.7,24.27,12.99,41.35,14.89,13.79,1.53,23.05-10.77,33.4-10.37s21.34,17.16,33.67,18.24c14.48,1.27,13.86-13.3,21.6-14.38,12.26-1.72,23.23,14.11,36.5,9.87.45-.43-5.25-7.37-5.93-8.19-14.61-17.52-31.07-37.88-47.04-53.88ZM213.42,197.54c-6.35-24.18-23.66-34.48-48.58-31.95-3.43.35-8.83,2.88-11.78,2.61-1.92-.18-6.58-3.12-9.34-3.86-20.45-5.46-50.5,4.3-62.47,22.19-8.05,12.02-8.43,27.36-16.42,36.83-9.81,11.64-21.04,15.1-17.85,33.76.63,3.67,5.31,10.29,5.74,12.13,1.82,7.84-5.59,12.94-8.55,18.9-3.61,7.28-2.49,20.68,4.78,25.51,6.14,4.07,9.15-2.46,14.39-5.69,8.87-5.46,19.23-8.58,29.51-10.27-3.43-9.21-4.27-19.17-4.61-28.91-15.16-.83-22.97-13.92-18.73-28.27,2.43-8.22,14.84-15.95,22.5-10.73,3.21,2.19-.32,19.08-.5,23.52-1.81,44,10.69,76.89,60.16,78.6,38.32,1.32,62.89-21.08,54.26-60.49l-5.27,7.51-2.18.41c-3.43-7.05-9.71-11.29-16.83-14.25-7.75,8.48-16.25,8.85-26.27,3.96-1.23-.6-2.54-2.7-4.04-3.19-4.65-1.52-14.89,2.63-19.17,5.08-9.26,5.3-8.85,12.95-18.25,2.09-4.36-5.04-6.69-10.34-7.27-17.05-1.44-16.53,2.05-33.25,1.62-49.66.96-1.35,11.57,1.91,14.47,2.01,9.41.35,19.62-2.12,27.99-6.26,2.95-1.46,13.31-9.5,14.16-9.57,2.81-.25,5.14,4.3,7.22,5.92,4.17,3.24,10.54,6.5,15.81,7.2,3.36.45,13.78-1.01,15.29,1.15,2.41,3.47,4.56,27.45,4.74,32.73.26,7.76-1.24,17.27-.69,24.36.39,5.08,2.93,11.3,3.31,17.06.61,9.08-.42,18.25-3.19,26.89,4.26,4.19,7.76,6.8,10.72-.25,3.33-7.94-.78-15.72.32-24,.48-3.61,3.23-7.33,3.79-11.33,1.66-11.92-5.27-24.41-7.71-36.53-.13-.64-1.22-.17-1.33-.77-.29-1.51,1.2-.71,1.33-1.42,1.13-6.1,1.27-29.3-.06-35.21-.11-.49-.95-.58-1-.75ZM167.37,198.87c-.74-.55-1.03-2.54-2.45-2.35-14.14,12.46-33.8,17.66-52.35,13.76-1.16,9.49-1.16,19.12-1.93,28.64-.09,1.18-1.32.71-1.42,1.89-.68,8.73.74,18.95,4.97,26.67,1.35,2.47,5.01,8.27,8.21,6.89,2.35-1.01,6.73-5.71,10.76-7.67,4.29-2.09,14.56-5.69,19.04-4.35,1.19.36,2.39,2.46,3.96,3.27,8.88,4.62,23.97,6.42,20.51-8.02-2.05-8.52-9.28-13.43-11.46-21.31l2.27-1.09,12.07,19.01c1.06,9.12,5.69,8.05,11.85,12.33,2.8,1.95,6.57,4.68,7.31,8.15,5.07-6.29,5.6-15.28,5.94-23.3.51-12.03-.49-22.73-3.25-33.75-.72-2.87-.85-6.37-1.39-9.34-13.03,2.93-22.67-2.03-32.63-9.44ZM590.54,287.84v-52.91c-3.71-2.32-14.34-15.32-17.12-16.43-1.81-.73-11.1.72-15.53-.23-6.75-1.44-20.7-13.31-26.22-8.66-2.94,2.48-3.68,7.46-8.9,10.82-16.91,10.88-27.7-7.97-40.09-13.72-10.16-4.72-16.21,3.9-25.32,6.83-19.33,6.21-22.45-2.12-35.57-11.02-8.8-5.97-13.88-4.06-22.91-.12-12.13,5.3-28.28,19.19-41.41,9.22-35.15,40.11-82.61,71.27-135.11,82.8.96,7.2.85,14.95-5.24,20.05,6.3,4.78,11,11,15.44,17.42h24.98l.99-.99v-10.52c0-2.72,5.39-2.74,5.82-3.06.65-.49-.09-3.9,3.85-5.68,5.31-2.41,7.05-1.47,11.75-.83,1.34.18,2.59-.77,4.54.03,4.2,1.73,3.53,11.23,3.64,15.13,5.17-3.21,8.96-.66,8.54,5.26l2.67-.29c2.13-18.06,2.53-43.96,17.77-56.51,11.29-9.3,28.32-10.66,41.61-4.91,23.11,10.02,21.66,36.86,26.06,57.76,2.41-.26,8.72-1.03,10.8-.68,1.47.25,2.2,1.83,3.63,2.35.93.34,1.9-.47,3.53.36,3.54,1.8,3.74,7.63,3.73,11.12h11.18c-6.85-10.48-4.14-21.93-5.32-33.13-.63-6.02-4.23-10.62-3.2-17.01,6.78-42.26,76.09-36.94,77.58,3.78.1,2.71-1.57,10.67-1.26,11.75s3.51,1.98,4.23,4.34c2.73,9.03-3.69,20.89-14.14,19.12l-4.63,11.14h25.97c1.91-3.66-1.84-7.99-2.32-12.8-.33-3.35-.33-16.19,1.05-18.71,1.56-2.85,4.36-1.64,4.84-2.07.19-.17-.32-1.96,1.38-3.55.35-.33,8.51-3.45,8.99-3.52,2.44-.37,6.76,3.24,10.02,1.82.83-9.53,6.09-20.86,14.17-26.26,18.05-12.06,45.92-8.06,55.56,12.5ZM4.08,229.67v81.83h37.15c2.38-1.6-1.51-3.88-1.84-4.76-1.34-3.52-1.52-10.73-.95-14.47.78-5.2,7.12-9.75,9.15-14.51,3.5-8.19-1.72-12.19-3.48-19.74-3.11-13.33,1.66-21.59,11.25-30.32-14.8-10.88-36.23-6.27-51.27,1.97ZM221.7,291.13c2.37,2.39,36.78-11.41,41.87-13.69,13.69-6.12,27.25-13.7,39.64-22.14-21.87-11.34-41.91-31.52-68.5-27.09-5.68.94-11.88,3.45-17.2,5.66-1.24,1.19,1.17,8.24,1.76,10.06,3.74,11.59,8.76,15.32,6.95,29.05-.66,4.98-7.27,11.53-4.52,18.15ZM74.64,258.71c1.51,2.02,11.46,8.91,13.29,6.16.4-6.68.51-13.39.97-20.07s5.26-16.61-6.77-12.68c-10.45,3.41-13.77,18.18-7.5,26.59ZM479.05,280.99c-9.82-16.31-31.88-21.43-49.08-14-11.95,5.16-20.42,19.49-15.63,32.03l2.35-9.82c9.92-1.32,18.78-6,26.8-11.73,2.84.37,3.62,3.13,5.47,4.37,6.91,4.62,14.35,6.29,22.63,6.3,1.07.76,1.44,17.84,4.88,20.06,5.33-2.59,6.21-1.86,6.89-8.2.83-7.72-.49-12.66-4.31-19ZM375.16,294.81c-4.66-13.81-12.61-23.74-28.22-25.37-34.8-3.62-42.08,28.32-44.36,55.54-.81,9.7-.47,20.14-.66,29.89,5.75-3.31,10.5-8.91,17.09-10.53-13.87-13.18-11.26-37.95-6.28-54.58,9.21-2.25,18.3-4.13,25.7-10.5,4.89,1.21,8.16,4.98,12.82,6.89,4.58,1.87,12.3,1.54,13.49,6.2,4.02,15.63,1.4,34.25,1.76,50.23.6,2.78,6.45,3.84,8.71,5.73,1.88.12.78-5.23,1.01-6.9.55-3.96.7-8.76,5.87-8.26l.07-.95c-2.65-11.46-2.58-25.09-5.85-36.24-.23-.79-1.09-.99-1.15-1.17ZM590.54,359.49v-62.11c0-.61-3.43-9.33-4.06-10.4-11.3-18.94-44.26-20.73-56.31-1.98-1.5,2.33-6.68,14.5-6.68,16.98v10.52c0,.12.91,1.05,1.31.99l5.86-20.77c8.66-2.38,17.63-3.66,24.99-9.15,2.32-.3,5.18,4.81,6.95,6.26,5.42,4.43,11.96,5.94,18.78,6.86,1.33,8.96,3.79,17.59,2.56,26.85-.06.45-1.16.45-1.24.96-1.66,9.79-3.52,18.08-11.87,24.48,7.49,1.44,14.08,5.6,19.72,10.53ZM469.57,291.13c-4.46.06-10.23-.8-14.45-2.32-4.72-1.7-7.61-5.33-12.2-6.82-7.44,4.44-15.29,8.16-23.82,9.96-6.41,19.56-7.62,55.3,19.88,57.7,16.16,1.41,30.99-7.57,35.17-23.42,7.88,2.42,15.63-7.47,12.67-14.57s-10.37,2.52-12.33.52c-3.42-6.65-5.37-13.45-4.92-21.06ZM337.9,283.35c-.63.15-5.98,4.06-8.21,4.99-4.44,1.85-9.92,2.91-14.66,3.74-2.95,2.08-2.98,27.75-2.51,32.15,3.48,32.85,47.99,26.31,50.57,1.43.55-5.33.01-28.47-2.34-32.55-3.68-2.38-8.37-2.9-12.4-4.7-2.94-1.31-7.19-5.85-10.44-5.07ZM555.48,287.25c-6.78,4.97-15.32,5.97-23.12,8.48-.63.69-4.38,16.67-4.31,18.12.11,2.24,2.24,2.84,2.63,5.26,1.14,7.17-4.32,9.69.57,20.44,5.27,11.6,19.89,14.29,31,10.38,19.78-6.96,20.26-32.74,16.53-50.01-9.25-2.11-17.06-5.33-23.3-12.68ZM97.68,308.65c-1.47-2.27-3.05-5.63-3.53-8.33-36.48,4.95-61.52,37.72-71.32,71-2.32,7.86-3.32,16.29-6.24,23.66,21.24-7.63,48.6-7.42,67.05,6.58l6.6-45.35h1.95s-3.28,35.49-3.28,35.49c17.45-6.53,34.01-18.98,46.7-32.51,6.42-6.85,12.89-15.26,16.42-24-14.36-.74-30.71-4.44-42.29-13.27-3.9-2.98-9.39-9.15-12.04-13.26ZM503.75,306.57c-.8,2.92.59,9.13,0,12.49l-2.97.34c-.51-2.53-.23-5.11-.95-7.63-.3-1.06.67-1.92-1.33-1.59-.35,5.66-1.27,11.73-.65,17.41.39,3.62,3.27,8.29,3.3,10.52.04,2.7-3.38,8.92-1.69,11.55l18.76.62c1.01-2.36-1.56-7.77-1.21-9.39.26-1.19,3.62-4.11,4.4-5.49.88-1.58,8.69-16.16,5.03-16.65-2.47.85-2.56,3.43-4.24,4.95-1.42,1.29-3.21,1.32-4.31,2.26-2.79,2.37-3.59,5.89-6.9,7.23-1.17-8.17,5.33-8.43,9.71-12.96l-1.18-15.3-1.96.98v11.17c0,.24-.99,1.13-1.63.98-1.94-.44-.12-14.26-3.96-15.11s-.34,14.3-2.3,16.43c-3.9-.6-.18-16.15-4.6-14.14-.16.07-1.28,1.23-1.31,1.33ZM203.8,423.09c7.07-27.39,9-56.66,6.72-84.95-.26-3.26-2.64-23.34-3.42-24.84-1.84-3.53-3.08.92-4.2,2.07-13.81,14.24-27.59,19.4-47.61,20.1-9.12,21.62-31.19,41.63-51.48,53.05-2.78,1.57-13.76,5.72-14.95,7.4-1.33,1.89-.7,5.3-1.32,7.11-.37,1.09-2.09,5.4-2.76,6.57-1.13,1.98-4,3.32-4.31,4.23-.94,2.72.77,7.89-.68,11.01.75,2.58,27.07,5.32,31.15,5.62,30.25,2.22,63.68.59,92.86-7.37ZM276.92,312.82l-2.52,1.09c-1.21,3.16,2.5,18.62-3.38,14.17l-.68-13.29c-6.73-.02-.44,15.83-3.29,17.74-3.73,1.38-1.73-14.61-4.58-11.82-1.26,7.46-1.06,16.26,1.12,23.51.75,2.51,3.18,5.62,3.45,7.77,1.91,15.23-5.29,37.35,9.57,49.55,8.1,6.64,21.05,1.8,25.95-6.54l-9.53-8.56-.63,5.93h-2.01s-6.85-40.55-6.85-40.55c2.16-4,11.2-19.51,8.86-23.24-3.23-1.71-3.42,4.15-5.26,5.95s-5.77,2.05-7.93,4.56-1.19,5.74-4.23,6.6c-1.34-4.48,1.55-8.46,5.03-11.07,1.8-1.35,4.83-.97,5.17-3.7.21-1.7-.56-15.22-1.31-16.15s-1.96-.66-2.96-.62c-1.32,2.52,2.47,14.46-1.65,13.13-1.44-.46-2.22-12.31-2.31-14.45ZM45.17,314.79H4.08v522.55h586.45v-146.58c0-.2-2.79-.82-3.92-.34-2.3.97-10.23,9.16-13.62,11.4-29.14,19.21-48.99,12.4-80.11,9.34-15.49-1.52-31.02.25-45.67-6.59-2.56,10.58-11.5,19.7-23.02,19.73,4.98,11.35,7.95,23.66,7.23,36.15,2.64.08,5.28-.29,7.91.31,1.95.44,34.38,15.87,36.1,17.15.81.61,4.48,4.83,4.61,5.37.53,2.18-1.01,6.84-2.21,8.77-5.82,9.34-22.39,7.01-32.11,8.53-5.12,7.06-13.79,10.36-21.84,13.12-36.22,12.43-86.14,11.51-123.31,2.96-59.1-13.6-22.29-57.99,3.96-83.5,4.83-4.69,10.02-6.34,12.72-13.28.13-.32,1.1-.13,1.1-.19v-13.15c-9.84,2.49-18.84,7.59-29.29,3.98-28.96-10.02-5.03-57.77,4.78-74.78,3.59-6.23,8.23-12.6,12.73-18.26-4.69-19.77-8.55-40.11-9.91-60.48-.23-3.49.87-15-.96-16.78-1.55-1.5-4.4-.96-4.82-5.04l1.74-47.43c-11.86-4.77-26.58-13.44-35.1-23.07-1.84-2.07-5.59-9.22-6.53-9.91-2.75-2.04-17.17-6.89-22.07-9.48-7.29-3.86-14.17-8.46-20.7-13.48.62,4.76-.63,10.98-.33,15.41.89,13.37,4.99,28.42,6.55,40.93,3.58,28.52,5.91,59.18,7.29,87.91.22,4.7,1.47,27.25.02,29.65-7.9,4.97-17.96,6.26-26.71,9.45l.34,24.05c9.97,1.05,34.61,13.61,37.06,23.42,1.35,5.42.85,12.61-3.83,16.31-15.58,12.32-69.31,2.75-86-6.69-8.01-4.53-5.3-16.51-3.54-24.33.53-2.33,2.73-5.43,2.94-7.58.54-5.55-1.81-13.41-1.17-19.24h-29.26c-1.9,1.82-.65,4.96-1.01,7.42-.05.36-2.03.44-1.3,3.32.18.73,1.34.16,1.33.76s-1.19.03-1.33.76c-.36,1.82-1.06,9.63-.56,10.98.24.66,4.77,2.61,6.13,3.72,9.18,7.53,20.69,22.98,15.6,35.27-3.79,9.16-27.26,10.53-35.98,10.08-13.94-.72-45.73-12.29-45.67-29.24.03-9.24,4.94-15.28,5.88-21.76,1.27-8.81.16-19.8.74-28.8l-22.94-8.08c1.82-28.09,4.5-56.95,9.13-83.94-13.54-8.84-16.3-31.26-13.24-46.13.21-1.02,1.2-.96,1.34-1.44.79-2.85-1.15-2.82-1.24-3.29-3.71-20.77-4.78-41.76-5.26-62.86-5.58-2.22-9.34-3.82-9.64-10.49-.51-11.38,6.23-24.04,8.93-34.96,5.96-16.53,15.66-31.24,27.62-44.04.21-.71-4.59-3.52-4.92-3.6ZM220.8,322.26c-1.08-1.1-9.1-8.73-10.27-7.47,1.81,8.12,1.76,16.46,2.57,24.69,1.72,17.4,1.97,27.39.07,44.79-.55,5.04-.23,10.32-1.33,15.31l40.8-12.2c-5.43-15.28-10.42-31.1-18.09-45.01-3.65-6.61-8.51-14.75-13.75-20.11ZM400.53,332.54l.52,12.97c.05,1.9-3.01,2.19-3.71.39-.86-2.21,1.06-16.16-3.07-16.03-3.75.12.58,14.06-1.29,17.14-.56.62-.88.96-1.67.32-3.52-2.87,2.55-21.05-5.74-16.6l.18,16.94-1.68.33-1.96-11.52c-1.13-.2-2.18.81-2.49,1.78-1.25,3.98-1.36,24.15-.74,28.72s5.07,9.71,5.26,11.88-1.3,5.38-1.39,7.88c-.47,12.69-1.94,30.27,11.55,36.35,2.29-6.03,5.5-3.81,9.03-5.25,1.52-.62,2.93-3,5.44-3.1-.41-3.74,2.86-7.87,1.65-11.46-.23-.68-1.73-.42-2.33-1.05-.91-.96-5.21-24.2-4.95-25.94,4.54-4.77,12.63-17.68,10.42-24.25-1.75-5.21-6.23,4.98-6.63,5.32-.89.77-4.2,1.35-6.45,3.11-2.89,2.26-3.66,6.49-6.54,8.23-1.07-7.72,3.94-11.88,10.54-14.24.69-2.32-.73-18.85-2.09-20.83-.54-.78-.79-1.3-1.88-1.07ZM299.28,334.51c-1.48-.07-2.31-.29-3.6.71-2.99,2.32-5.19,13.59-8.69,16.81l2.44,15.35c1.35-1.55,8.7-7.05,9.08-8.31,1.63-5.39-.98-18.13.78-24.56ZM533.34,348.97l-6.95-13.75-1.58-.7c-3.88,6.1-5.13,8.84-3.88,16.36,5.54,2.94,7.13-1.42,12.42-1.91ZM257.53,335.17h-23.34c6.87,8.96,9.87,19.95,13.86,30.37.2.52,1.2.63,1.62,1.78,1.02,2.76,6.71,18.79,6.77,20.27.14,3.6-5.58,3.18-8.03,4.1l-.4,1.3c7.59,5.73,14.03,13.1,21.73,18.71,1.44,1.05,11.39,7.83,12.1,7.94,1.85.29,5.15-1.05,7.22-1.02,4.55.08,8.96.84,13.51.68l.65-19.06c-21.3,16.74-37.58,3.43-39.46-20.68-.64-8.19,1.25-19.28-.02-26.93-.46-2.76-3.72-6.98-4.49-9.45-.57-1.82-.34-7.49-1.71-8.02ZM363.05,337.14l-5.24,4.27,5.24,2.3v-6.57ZM497.17,343.06c-8.56,2.08-21.39-.99-29.23.68-1.77.38-2.54,1.49-2.33,3.26,5.08-1.1,16.27,6.65,19.89,6.45,2.53-.14,7.89-3.03,10.93-3.25l.74-7.13ZM356.48,343.72c-4.01,1.52-7.63,3.83-11.84,4.92-4.48,1.16-8.78.79-12.82,1.66-.84.18-1.16-.46-.97.97,6.15,10.96,25.42,4.01,25.63-7.54ZM419.93,343.71c-3.46-.72-9.08.53-12.82,0l.67,5.26c5.7-2.86,9.22-1.38,9.2,5.26l9.84-4.93c-1.26-.59-6.19-5.44-6.89-5.59ZM302.57,391.04v-9.53c0-.97,2.19-10.5,2.68-11.64.38-.88,3.83-5.61,4.51-2.75-1.82,9.01-5.66,17.76-4.61,26.92.13,1.16,1.29.93,1.34,1.41.88,8.28.48,14.87.03,23.19,7.44-.78,19.02-3.59,17.17,7.82,19.03,2.82,38.71,2.28,57.35-2.52l.03-6.69c-6.56-1.79-12.34-5.39-18.35-8.46-2.58-1.32-5.47-4.36-7.74-5.41-5.28-2.46-10.64-2.83-16.35-6.66-2.44-1.63-12.09-10.82-12.31-13.41-.13-1.52,1.16-2.11,1.2-3.12.05-1.28-1.57-2.26-1.2-4.44.19-1.08,1.37-1.9,1.72-2.96s-.11-2.26.35-3.26c.34-.74,7.81-5.05,8.82-5.3,6.34-1.52,11.71,3.94,17.28,5.77-.53-6.47,6.94-6.71,10.07-2.43s3.46,15.36,5.89,18.04c1.3,1.43,7.18,2.53,9.02,4.11-.15-2.82,1.68-8.41,1.34-10.81-.18-1.26-5.59-10.3-5.98-13.15-.33-2.36-.64-10.43,1.37-11.21l-1.32-.98,1.31-.65c-5.3-3.72-10.42-6.6-17.06-7.21-1.84,13.87-23.01,19.16-30.91,7.37-1.85-2.75.14-5.39-5.12-5.94-9.76-1.01-26.19,17.7-32.77,24.48.31,8.74,6.26,13.91,12.24,19.41ZM462.98,347.66c-8.1,3.44-17.16,6.55-26.09,4.71l-.82.82c4.35,13.48,27.21,8.08,26.91-5.53ZM481.4,354.9l-15.34-4.66c-.7.2-1.66,4.43-2.39,5.66-6.49,10.94-29.9,11.77-30.36-3.54-2.29-2.56-15.86,4.65-16.8,6.01-1.05,1.52-2.51,8.46-3.79,11.01-1.58,3.16-5.59,6.33-5.96,7.24-1.12,2.73,3.11,17.59,3.64,21.66,1.45.39,2.73-21.68,5.91-17.74l-3.94,34.83c10.7-3.38,12.52,11.76,10.52,19.06l5.43-1.86c3.23.55,3.42,4.2,4.57,4.73.9.41,6.56.96,8.09,1.07,2.78.2,22.07.31,22.67-.66-1.7-8.06-1.78-16.14-1.66-24.3-2.87-3.14-7.15-2.57-10.54-3.92-5.52-2.19-23.64-12.25-24.53-18.28-.32-2.13,1.31-2.77,1.25-4.37-.05-1.14-1.32-2.15-1.2-3.23.11-.93,1.84-2.15,2.16-3.11.53-1.58-1.31-3.07,1.61-4.95,1.98-1.27,3.31-.59,4.21-1.07,1.27-.68,1.62-2.7,4.23-3.02,4.8-.6,11.45,3.67,15.6,5.79h.99c-.23-5.04,5-4.99,8.54-2.64.39-4.77,4.65-7.42,6.91-11.18l10.19-8.53ZM590.54,398.93v-34.51c-1.72-3.12-17.13-14.25-19.56-11.34-2.83,12.39-21.83,16.69-28.6,5.59-1.38-2.26-1.55-5.59-3.28-6.58-2.98-1.71-6.23-.24-9.05.84,6.38,4.74,14.62,8.39,19.62,14.88,1.33,1.72,3.86,7.9,4.72,8.43.42.26,9.01,3.06,9.51,2.99.64-.1-.02-2.82,2.68-3.31,9.91-1.78,10.48,13.61,13.65,17.54,1.36,1.69,8.37,3.12,10.31,5.47ZM568.18,350.95c-7.29,3.29-15.37,4.87-23.33,3.26-3.08.34,1.67,5.47,3,6.22,7.55,4.27,19.74-.27,20.33-9.47ZM542.3,364.99c-17.6-16.62-57.28-17.16-71.44,4.02-4.32,6.46-7.61,16.29-5.89,24l5.42-13.63,19.06-7.97c8.92,8.92,20.1,15.61,32.55,18.14,2.72.55,9.71.13,11.72,1.43,2.56,1.67,1.74,11.62,2.27,14.7.08.46,1.16.43,1.26.94.51,2.38.34,5.53,1.35,8.07,3.54-3.63,8.66-6.58,13.47-3.31,6.38-15.55,2.51-34.81-9.78-46.41ZM357.8,368.04c-.77,1.72,1.74,8.05-.35,8.54-1.06.25-14.98-11.79-19.38-9.2,1.15,2.3,11.85,9.04,9.86,11.16-3.87.45-11.79-10.45-15.13-8.23-1.19.99-.59,1.12-.01,2.01,1.35,2.05,7.59,5.81,9.47,7.62.73.7,1.38.83,1.07,2.2-1.39,4.67-10.22-7.07-13.14-5.57.03,3.66,7.36,6.68,7.87,9.54.78,4.39-5.95-1.47-6.89-2.31-2.43-.15,7.88,9.33,8.98,10.08,5.47,3.75,10.5,4.15,15.84,6.52,2.5,1.1,4.54,3.66,6.48,4.7,6.2,3.3,12.3,6.79,19,8.93l-2.3-21.03c-.9-1.64-9.39-3.07-11.31-5.45-.73-.9-6.47-23.48-10.05-19.53ZM459.05,376.58c-.52,2.61,2.94,5.63-.87,6.44-4.43-1.66-7.95-5.01-12.38-6.68-.93-.35-8.9-3.13-6.49-.08,1.34,1.7,9.83,6.6,9.86,7.88-.91,1.68-3.49.18-4.75-.5-3.71-1.99-8.2-9.22-12.33-4.44l11.83,9.53c-4.62,3.05-7.38-6.68-13.14-4.91-1.59,1.32,12.01,8.06,10.51,11.17-2.08,1.97-8.58-7.06-11.16-4.27,8.72,9.86,20.03,15.96,32.85,18.73,1.87-10.32-3.72-20.31-.25-30.58l-3.68-2.28ZM536.17,417.79c-3.44-4.22-3.75-23.15-4.76-23.84-16.36-1.05-31.02-7.63-43.1-18.49l-15.49,6.85c-6.71,19.28-13.16,44.84-1.41,63.74,14.53,23.37,56.56,14.32,63.89-11.36,3.72.21,5.51.9,9.15-.67,11.69-5.04,12.32-24.32.22-20.18-2.31.79-4.94,8.3-8.5,3.95ZM590.54,424.56v-22.02c-2.54-2.71-10.16-4.51-12.22-6.85-3.28-3.73-3.58-15.46-10.79-16.48l.32,5.26-12.16-4.6c-1.21.92,17.06,13.4,1.98,7.23-.93,4.29,1.71,5.14,3.29,7.55-3.1.38-4.32,9.84-3.36,11.22,3.45,2.98,9.33,3.08,12.93,4.85,2.62,1.28,5.99,5.33,8.61,7.16,3.61,2.53,7.56,4.53,11.39,6.68ZM301.33,435.81c4.75,1.8,25.22-9.19,18.05-13.93-5.77-1.99-12.09.53-17.77.73-4.7.16-17.75.76-21.56-.19-2.42-.6-14.53-10.12-17.24-12.35-2.9-2.39-17.29-16.6-18.59-16.96-5.4-1.48-26.35,8.19-32.47,10.14l-4.91,20.31c-.13,5.59,20.35,17.14,25.35,19.73,5.8,3,15.39,5.64,20,8.27,1.77,1.01,4.18,6.47,5.96,8.5,7.92,9.04,24.71,21.47,36.18,24.96,2.5.76,4.51,2.02,7.19.73,4.89-4.06-17.55-12.47-18.03-17.51-.11-1.16.06-1.59.99-2.27,2.45,2.85,5.16,4.79,8.27,6.83,2.85,1.87,19.24,12.55,21.54,8.83,2.94-4.75-8.5-9.03-11.04-10.79-1.59-1.1-14.38-9.58-12.53-11.46,1.68.05,3.76,1.48,5.17,2.38,5.91,3.79,15.6,11.2,21.53,13.96,2.31,1.08,4.2,1.84,6.65.57.91-1.17.89-2.25.36-3.58-1.04-2.61-16.48-10.83-19.93-13.64-.58-.47-7.94-7.24-4.89-7.58,6.62,4.65,14.08,10.66,21.35,14.14,2.98,1.43,5.06,3.28,8.53,1.6-2.12-8.13-11.4-11.28-17.38-16.42-2.14-1.84-10.18-10.02-10.94-12.13-.38-1.04-.36-1.9.15-2.89ZM76.97,400.34c-15.14-7.27-32.35-8.37-48.75-5.37-.99.64-1.7,7.83-1.81,9.52-1.08,15.95,1.41,34.88,3.41,49.9,1.75,13.11,2.54,14.39,1.3,27.77-1.08,11.59,1.68,34.27,15.05,37.71-3.31-5.52-3.72-11.86-5.32-17.89-.18-.68-4-3.47,1.4-3.53,2.89,8.2,4.89,21.77,13.15,26.33,2.4,1.33,6.87,2.18,7.8-1.19-6.54-6.22-7.76-15.68-9.8-24.08,2.67-2.73,6.3,12.41,6.91,13.79,1.64,3.7,7.65,13.22,12.53,9.92,3.35-2.27-1.35-17.21-1.68-21.42-.16-1.98-.32-13.43.71-14.06,5.94-3.63,4.94,15.71,13.09,14.77.34-.04,2.24-.94,2.44-1.21,3.36-4.36-2.09-19.73-4.5-24.39-2.25-4.35-6.06-7.57-8.98-11.37.97-3.11-.56-6.78,1.88-9.05l1.17-56.14ZM24.46,396.3c-3.5.33-8.37.86-5.55,5.23,4.42,6.84,5.35-1.27,5.55-5.23ZM80.36,409.44c3-1.9,3.31-3.85.32-5.91l-.32,5.91ZM569.31,413.58c-3.48-1.91-9.42-2.03-12.96-4.8-2.69,4.75.48,7.14.46,11.32-.02,4.81-3.68,12.54-7.76,15.24l-11.11,3.67c16.92,3.57,35.38,2.77,51.94-2.28.87-.83,1.03-7.92.53-8.77-.27-.47-8.25-4.11-9.7-5.09-3.37-2.27-8.73-7.82-11.41-9.29ZM413.02,420.94c-.83,4.53.61,11.3,0,16.1-4.28-.96-2.13-7.2-2.58-10.23-.18-1.21-1.21-.67-1.42-1.89s.37-5.93.05-6.28c-7.55-.82-.28,20.67-4.93,20.36l-2.31-17.73c-5.47.39-4.44,8.33-3.99,12.2.13,1.09,2.07.88,1.41,4.58-.13.74-2.75,4.6-3.98,3.59l-1.64-14.47h-1.34c-1.43,11.16-2.61,25.99,3.5,35.95,1.35,2.19,4.82,4.84,5.24,6.6.81,3.4-.63,6.41-.5,9.06.64,12.91,2.35,41.94,13.16,49.93s24.08,1.14,33.41-5.32l-10.41-15.36-.99,2.61c-3.33-2.98-4.94-9.42-6.42-13.94-2.87-8.73-5.63-18.23-8.3-26.67-.62-1.94-.69-4.03-1.95-5.88l.2-1.45c7.85-5.65,8.24-17.48,9.56-26.32-5.39-1.27-5.29,7.7-6.74,9.04-1.09,1.01-6.56,2.39-8.74,4.73-1.16,1.24-4.6,11.98-6.09,7.48-1.74-5.28,2.63-9.15,6.24-11.93,2.33-1.8,4.83-.86,5.41-4.42s1.68-23.43-3.56-23.36c-.91-.27-2.25,2.78-2.29,3.02ZM388.03,446.25c-.43-4.89-.43-9.84.02-14.77.61-6.63,4.19-5.95-3.29-11.51-1.27,8.78.07,18.59,3.27,26.28ZM203.94,426.53c-7.55,2.61-15.5,4.07-23.44,5.16-24.15,3.31-51.85,3.46-76.15,1.41-8.32-.7-16.53-2.04-24.66-3.93l-.69,19.27c.6,2,22.07,4.13,25.35,4.38,25.61,1.96,56.24,2.03,81.33-2.15,2.79-.46,17.58-3.3,18.6-5.07l-.34-19.07ZM381.46,427.19c-18.98,4.09-38.97,6.2-58.11,2.14l-8.29,7.06c21.58,5.05,44.74,5.37,65.75-2.29l.65-6.91ZM382.78,437.05c-16.93,5.73-36.42,7.42-54.22,5.24-7.63-.93-14.73-4.84-22.04-3.92-.83,1.04,5.3,7.74,6.54,8.88,4.76,4.4,19.97,12.22,19.72,18.99-.17,4.58-4.16,4.64-4.45,5.08-.87,1.33.94,6.08-3.81,8.36-2.37,1.14-5.1.32-6.09.86-.31.17-.88,3.91-4.63,4.85-3.29.83-5.59.14-8.58-1.03-.68,5.71-4.33,5.3-8.91,5.22l-.96,46.7c1.77.31,1.14-.33,1.5-1.42,4.87-14.49,2.85-22.21,15.56-34.42,19.49-18.73,56.88-19.76,77.6-2.28l-7.23-61.13ZM590.54,439.68c-17.66,5.41-36.04,5.63-54.21,2.63l-6.76,8.23c.11,1.47,18.24,8.49,21.49,10.55,17.2,10.89,26.68,32.67,29.98,52.19,1.2,7.08-.1,8.43-.38,14.15-.21,4.26.19,8.58.02,12.84l9.86-1.32v-99.25ZM467.18,446.01c-.64-1.32-1.44-4.56-2.67-4.95l-31.45-.75-1.53,1.12-1.43,5.81c.36,2.6,8.71,3.32,10.95,3.52,9.34.82,18.69-.39,27.85-1.88.6-1.57-1.52-2.44-1.72-2.86ZM213.37,517.05c-1.19-11.82-2.1-23.76-3.6-35.54-.48-3.75-3.97-31.5-5.55-31.91-28.51,7.67-59.86,8.48-89.39,7.19-11.95-.52-24.21-1.99-35.8-4.63l-1.21,12.69c8.49,8.46,16.08,23.2,13.54,35.47-1.19,5.75-8.24,6.33-12.36,2.81-2.25-1.93-2.18-4.88-4.58-5.6-1.66,7.74,6.46,19.11,2.56,26.55-2.49,4.74-7.15,2.13-10.09,2.4-1.74.16-4.27,2.52-7.18,2.54-6.62.03-9.24-6.37-15.23-5.23l-8.73,80.11c27.62,10.52,57.49,14.17,86.98,14.4,25.44.2,55.95-1.82,80.42-8.82,3.22-.92,16.17-4.48,16.56-7.77-2.39-27.71-2.48-55.81-5.2-83.5-.11-1.09-1.13-1-1.15-1.13ZM388.69,451.51c.47-.7-.31-1.8-.64-1.31-.47.7.31,1.8.64,1.31ZM476.79,457.42c-4.86-9.1-9.3-4.5-16.78-3.95-10.27.75-20.3.16-30.45-1.18-.01,3.34-5.94,10.01-6.09,12.04-.38,5.33,6.87,18.9,6.64,25.31,15.16-11.05,27.08-28.11,46.67-32.21ZM526.76,453.49c-6.3,2.96-11.28,6.85-18.37,8.25s-12.83.18-19.76.29c5.02,23.68,37.28,10.92,38.13-8.54ZM398.13,497.32c-1.18-8.06.48-19.88-.9-26.4-.32-1.49-4.06-5.87-5.15-8-1.45-2.86-2.1-5.9-3.37-8.78l4.64,46.29,6.86,8.25c1.38-.89.6-1.06.54-1.81-.23-2.91-2.37-7.89-2.61-9.54ZM557.33,520.53c6.71-.71,14.53.53,21.37,0-1.24-11.34-4.54-22.46-9.29-32.45-8.32-17.51-20.66-27.78-39.66-32.64-1.28,17.16-28.11,30.85-40.49,16.8-3.1-3.52-2.78-10.97-4.35-12.08-2.93-2.07-8.52.31-11.58,1.37-16.72,5.82-27.86,20.65-41.12,31.5l19.58,30.79c-1.06-5.26,6.32-40.22,9.55-40.75.73-.12,1.36.46,1.58,1.08.34,1-4.32,17.6-4.9,20.58s-2.09,7.86-2.33,9.51c-1.87,12.92-1.03,26.4-1.83,39.39,28.24,9.81,59.47,9.41,88.67,4.35-5.64-4.6-12.38-7.96-18.07-12.49-4.41-3.51-10.43-11.04-14.46-13.8-7.26-4.97-13.26-5.23-21.07-13.12-3.5-3.54-11.51-13.21-10.89-18.12.32-2.54,1.85-2.03,2.06-2.62.6-1.71-1.17-1.51-1.32-2.09-.75-2.84,1.6-3.29,2.86-5.53s.9-5.2,3.66-6.21c1.45-.53,8.25-1.57,9.92-1.32,7.55,1.11,14.69,8.29,21.34,11.56-1.32-4.41.02-12.68,6.23-10.18.26.11,3.3,2.71,3.51,3.12,2.66,5.03,3.64,21.65,5.66,24.52.46.66,5.31,3.41,5.96,2.9-1.68-6.16-3.14-12.15-2.63-19.06l3.17,1.11c1.68,4.18,1.08,17.42,2.7,20.31.46.82,7.41,5.21,8.42,5.41,3.47.71,5.16-1.57,7.74-1.84ZM519.53,499.49c-9.88-2.34-16.07-13.88-26.95-12.82l11.71,10.3c.62,2.68.05,3.11-2.54,2.22s-13.9-15.57-16.35-11.48c-2.02,3.37,13.56,12.77,13.09,15.38-.2,1.1-1.6,1.05-2.61.65-1.83-.71-12.13-11.33-13.17-10.17-1.74,4.55,12.47,13.25,12.47,14.79,0,.18-1.52,1.78-2.19,1.58-1.92-.72-13.79-13.74-10.65-5.16,2.65,7.25,18.31,19.06,25.09,22.9,11.56,6.55,17.46,14.49,28.23,21.74,9.22,6.21,22.04,13.65,33.34,8.4,3.61-1.67,8.38-8.04,8.38-11.99v-21.03c-3.22-2.34-8.93-1.88-12.85-1.68-1.13.06-11.85,1.11-10.46,2.65,1.85,1.88,9.17,5.17,10.05,7.03,2.31,4.87-5.34.08-6.15-.42-9.68-5.94-18.65-13.17-28.61-18.73-1.79-2.55-2.34-11.6-3.31-14.98-.15-.54-1.07-.44-1.23-.98-.67-2.22-1.37-12.54-5.3-9.7v11.5ZM409.34,531.45c-14.68-31.55-39.86-51.67-76.51-39.5-44.62,14.82-34.78,72.66-26.37,107.31,1.16,4.8,2.02,9.77,3,14.62.89,1.19.96.11,1.66-.34,1.62-1.04,3.55-3.52,5.6-4.92,2.44-1.65,6.16-2.25,8.19-4.95-7.76-7.16-12.53-14.82-15.95-24.79-7.97-23.21-12.61-66.53,22.3-69.44,30.53-2.55,48.11,27.16,56.64,51.61,4.01,11.49,6.08,23.67,10.07,35.18,1.19,2.24,13.05,6.88,16.31,8.81,7.45,4.41,16.93,12.41,22.03,19.39,3.96,5.42,6.03,12.1,9.57,17.69,5.59-19.8-8.54-37.91-16.07-55.23-7.88-18.12-12.22-37.69-20.47-55.44ZM374.89,540.9c-7.9-20.6-39.24-38.11-58.53-22.03-5.29,4.41-9.07,13.51-9.21,20.38-.02,1.16-.68,2.95.93,2.91,5.62-.16,23.56-17.19,26.45-22.9,10.89,11.74,24.02,20.2,40.35,21.65ZM386.35,569.56c-1.08-3.47-7.69-24.72-9.48-25.7-15.96.41-31.07-8.25-41.78-19.37l-.94-.02c-5.52,10.43-16.9,16.25-26.99,21.48.95,14.6,2.25,29.84,9.7,42.75,13.17,22.81,34.67,29.1,55.99,11.62,4.73-3.88,16.11-18.24,15.89-24.22-.1-2.6-1.9-4.99-2.38-6.54ZM451.15,554.7c-1.33-7.29,1.22-16.75.04-24.02-.26-1.6-.7-2.36-2.03-3.28-1.72-.69-11.64,5.32-14.75,6.29-6.82,2.12-13.47,2.52-20.07-.68l6.94,19.67c9.68,3,19.89,1.8,29.86,2.02ZM590.54,541.56l-10.47,2.02c1.71,5-5,12.51-5.3,15.46-.4,3.97,1.84,12.87.68,16.91-.26.91-3.1.87-3.31,2.41,6.28,2.68,9.4,8.99,13.14,14.2l5.27-1.7v-49.3ZM434.06,557.33l-11.19-.32,11.52,30.56-.33-30.25ZM451.15,557.99h-13.81v36.48c0,.57,4.4,8.93,5.25,10.18.49-2.72.7-6.07,1.39-8.68,1.3-4.97,7.17-21.35,7.17-25.83v-12.16ZM453.79,557.99c0,8.44-1.34,10.29,6.94,13.11,19.33,6.59,56.69,6.62,76.7,2.48,4.69-.97,18.23-4.18,14-11.65-.87-.99-2.06-1.19-3.29-1.33-6.13-.7-23.07,3.53-30.91,3.95-21.37,1.15-42.77-1.53-63.43-6.56ZM572.13,559.96c-2.06-.46-5.45,2.63-6.9,2.63h-10.19c-1.06,7.22,1.24,13.38,2.64,20.37l14.46-8.54v-14.46ZM566.21,664.8v14.13l-2.31-.64-2.9-52.96c-2.42-5.26-1.91-13.23-2.78-19.58-1.54-11.16-3.86-22.22-5.82-33.3-31.43,9.92-67.14,9.47-98.61,0l-8.56,37.14c2.8,9.1,6.13,17.06,5.19,26.87-.37,3.85-2.68,8.33-2.6,11.92.12,5.59,3.95,15.67,4.57,22.44s1.41,8.9-3.85,13.73l.4,16.82c7.52,2.94,16.25,5.72,24.34,6.41,6.43.55,13.22-.38,19.62.11,22.78,1.73,36.02,8,60.03.17,4.92-1.6,24.74-11.33,26.15-15.92,1.83-5.95-3.1-19.05-6.92-23.85-.7-.88-5.31-5.84-5.93-3.46ZM574.8,596.73c.72.56,5.75-1.05,6.25-1.93,1.57-2.73-8.85-16.11-13.71-15.03l-6.39,6.48c5.5.97,13.15,4.05,13.85,10.48ZM394.61,596.77l-4.59-13.8c-3.44,6.17-4.01,12.8,4.59,13.8ZM561.6,589.54h-2.62s.66,6.57.66,6.57c1.48,1.9,2.07-6.06,1.96-6.57ZM571.07,596.56c-1.79-3.05-2.36-5.64-6.83-5.7l-.04,6.93,7.92-.37c.28-.99-.83-.49-1.05-.86ZM387.13,603.76c3.47-7.15-1.41-4.38-2.71-10.93-9.19,12.34-21.73,19.47-37.12,21.34,2.94,7.81,13.19,9.41,20.49,7.39,7.8-2.17,15.89-10.69,19.34-17.79ZM590.54,594.8c-4.39,1.47-13.03,5.92-17.42,5.92h-10.52l3.54,59.43c9.12.21,17.78-2.51,24.41,5.64v-70.99ZM285.8,663.16c4.16,0,8.33,0,12.49,0,1.58,0,10.31,5.28,11.19,3.96l8.92-35.41c1.21-.32,3.16-.29,3.13,1.41l-8.12,32.67c2.17-2.39,16.83-6.06,17.76-7.22.19-.23,2.05-5.29,2.05-5.59,0-1.37-1.82-2.84-.93-5.78.4-1.33,2.2-1.97,2.73-3.08.64-1.36-.61-3.64,2.13-5.2,2.52-1.44,3.86-.08,5.22-.35,1.13-.23,1.83-2.18,4.58-2.39,2.53-.19,4.68,1.49,6.42,1.24.9-.13,5.43-3.49,7.53-4.33,3.54-1.41,9.25-3.35,12.67-1.14.82.53,1.09,1.92,1.47,2.13,1.7.93,3.23-.68,5.24,2.32s.34,4.22.67,5.99c.12.62,2.57,2.8,3.27,4.53.87,2.15,2.75,8.67,3.39,11.05.84,3.1.88,6.68,1.35,9.86l13.53,7.16-3.29-29.26c-.14-1.3,1.79-2.17,2.63-1.63,1.66,1.08,4.13,29.4,4.58,33.25,14.37-4.33,29.03-5.32,43.43-.39-1.58-14.4-5-29.28-11.27-42.29-8.46-17.55-27.94-29.99-46.21-35.3-2.9,10.73-14.83,24.4-26.36,25.67-8.41.92-21.22-1-21.38-11.8-6.9.16-11.97-4.06-17.72-6.93-22.43,11.12-32.34,35.26-42.74,56.55-.42,2.04,1.42.31,1.63.31ZM57.99,614.52v28.59c0,5.72-11.29,19,1.31,23.99,4.69-19.09,28.24-23.36,45.39-23.31l2.61-22.7-49.31-6.57ZM191.46,615.83l-47.98,5.94c-.71,2.02,1.21,1.61,1.35,2.89.34,2.99.85,17.03.15,19.28-.2.64-1.32.68-1.62,1.72-1.06,3.57-4.01,12.81-1.92,15.9.83,1.22,20.94,8.36,21.74,7.51.44-15.4,14.27-26.55,28.18-30.33l.1-22.91ZM371.6,634.24c-2.19-1.12-16.14,3.36-14.46,5.9,1.21-.04,2.37,1.32,3.5,1.18.66-.08,12.02-6.25,10.96-7.08ZM363.06,644.09l5.49,3.19c1.59-2.32,9.86-6.09,8.91-8.69-1.12-3.07-12.72,3.92-14.4,5.5ZM376.1,657.13c-.34.56-2.31.81-3.15.46-1.37-.56-10.11-10.15-12.87-12.17-3.21-2.35-8.44-5.76-12.48-5.93-.98-.04-1.91-.44-1.63.98.89,2.22,12.45,8.82,14.5,11.8.68.99.73,1.85.61,3-1.8,1.97-17.97-16.28-22.37-13.49-1.43,2.27,2.07,2.72,3.33,3.94,1.47,1.43,11.29,11.32,11.55,12.11.21.67.34,1.33.26,2.03-3.41,3.19-12.25-12.74-16.79-12.49-7.19.39,7.18,11.6,7.93,12.49.89,1.06,4.91,5.5,1.95,5.95-3.09.13-7.61-9.26-12.14-8.57,2.19,11.44,15.77,21.72,25.43,27.49,2.43,1.45,5.86,1.93,8.32,3.51,14.3,9.16,21.07,21.07,39.9,29.13,30.6,13.11,40.43-12.48,36.65-38.28-11.03-3.22-23.1-3.03-34.03.51,2.52,3.42,16.76,8.09,18.26,10.65.4.69.08,1.71.15,2.48l-2.14-.15-41.25-21.87c-1.86-3.89-3.29-23.35-6.56-25s-5.19,2.84-4.59,5.8c.06.3,2.82,2.86,1.18,5.61ZM210.52,648.69c-3.3-2.9-10.72-5.81-14.95-6.4-12.24-1.71-30.49,15.13-29.02,28.03l14.97,2.65c3.25-13.78,15.03-23.25,29-24.28ZM119.13,658.55c-6.21-12.8-17.87-12.28-30.25-10.2-12.18,2.05-24.09,8.33-26.96,21.01.29,1.93,9.75,8.39,10.53,7.59,4.18-19.13,31.19-18.04,46.68-18.41ZM372.25,651.98l-.32-3.28c-1.11.06-1.15,3.21.32,3.28ZM226.31,669.73c9.61-3.42-4.33-16.1-8.94-17.68-11.69-4.01-31.36,8.9-32.48,21.62,3.34.85,24.4,2.42,25.55.58l-2.24-7.12-6.87-4.62c7.24-1.14,12.71,4.66,11.84,11.82,1.9-.52,10.28-1.71,10.26-3.98-1.76-7-6.37-9.12-12.23-12.12,5.49-2.66,15.74,5.82,15.12,11.5ZM94.15,683.54h10.52c1.33-6.49-3.52-10.29-4.6-15.77,6.04,1.36,7.86,10.45,7.89,15.77,12.29.57,10.43-7.17,5.53-15.08.25-4.9,4.16.84,5,2.9,1.32,3.24,1.54,6.05,1.31,9.54,6.41-1.09,10.12-2.78,8.38-10.02-.2-.83-4.72-7.87-5.41-8.4-5.14-3.92-34.62,1.26-40.4,4.99-2.11,1.36-7.88,9.07-6.53,11.37l15,4.02c.85-1.94.44-4.06-.16-6.04-.2-.65-5.15-8.34-2.11-7.09,3.58,1.47,7.43,10.11,5.6,13.8ZM303.88,669.09c-4.78-2.91-20.08-5.16-22.7.63-5.15,11.38-4.64,33.79,10.04,37.98,17.49,4.98,43.74-16.02,56.65-26.55-5.77-6.18-11.95-11.67-16.11-19.19-13.18,4.16-25.75,10.36-37.41,17.65-1.21.12-.98.02-1.01-1.01-.11-3.74,11.77-7.63,10.53-9.51ZM581.99,688.13c1.57,1.77,7.84-7.46,8.18-8.57,3.34-10.77-8.06-19.3-18.05-16.39,5.62,7.04,10.6,15.61,9.87,24.97ZM228.93,673.02c-28.15,11.1-60.97,2.66-88.09-7.89,0,1.02-.3,1.78.42,2.69,1.2,1.5,15.94,6.49,18.79,7.34,17.23,5.17,39.36,8.87,57.07,4.78,3.93-.91,10.49-2.58,11.81-6.92ZM127.68,682.23c-20.94,7.61-46.32,6.77-64.75-6.59-1.14-.83-9.55-9.16-10.2-8.53,9.12,17.91,34.67,24.47,53.49,22.91,6.4-.53,17.44-2.42,21.46-7.79ZM377.3,700.86c-3.81-3.17-8.24-5.89-11-10.37l-15.91-6.85-28.79,20.56-.52,7.84c23.58,9.27,51.26,6.64,76.17,4.36.42-1.52-.37-1.11-.83-1.51-5.12-4.52-12.98-8.93-19.12-14.03ZM590.53,686.82c.06-.08.27-1.95-.32-1.96-2.06,1.22-.38,2.95.32,1.96ZM416.97,724.28l-14.13-5.25c-27.13,3.09-54.95,4.97-81.52-2.64l-.84,6.84c.99,4.38,31.12,8.06,36.3,8.32,19.89.98,41.36-.95,60.19-7.27ZM422.1,726.4c-.57-.43-1.2-.55-1.9-.44-3.43.52-10.29,4.15-15.05,5.26-27.8,6.43-61.56,5.08-88.33-4.88-20.46,17.75-73.05,68.59-23.61,85.2,34.55,11.61,108.19,11.52,141.1-5.15,15.77-7.98,8.15-27.96-5.2-34.1-4.31,11.39-13.86,24.44-25.96,27.6-1.91-1.81,7.09-6.78,7.91-7.53,20.94-19.05,20.35-40.62,11.02-65.95ZM456.85,773.8c-.91-1.05-15.76-9-17.66-9.61-5.19-1.67-10.04-1.59-8.93,5.32,10.3,4.69,18.92,16.12,16.29,27.74,7.7,2.26,13.86-10.5,13.09-16.7-.18-1.46-1.87-5.7-2.79-6.75ZM467.21,781.87c-1.21-3.22-2.09-6.34-6.19-6.97,3.66,8.04.41,14.51-3.29,21.68,8.32.65,9.51-8.28,10.48-13.98-.13-.49-.94-.57-1-.74ZM471.54,788.7c2.22-.09,5.38-.82,5.26-3.55-.13-2.88-4.33-5.14-6.57-6.3l1.31,9.86ZM474.82,790.68c-3.61-.75-5.71,1.21-6.57,4.59,2.43-1.05,5.71-1.73,6.57-4.59Z"/>
  <rect x=".14" y="841.29" width="595" height=".66" fill="#fff"/>
  <path d="M45.17,314.79c.33.07,5.13,2.89,4.92,3.6-11.95,12.8-21.66,27.51-27.62,44.04-2.7,10.92-9.43,23.58-8.93,34.96.3,6.67,4.07,8.27,9.64,10.49.49,21.1,1.56,42.08,5.26,62.86.09.48,2.03.45,1.24,3.29-.13.48-1.13.42-1.34,1.44-3.06,14.87-.3,37.29,13.24,46.13-4.63,26.99-7.3,55.85-9.13,83.94l22.94,8.08c-.58,9,.53,19.99-.74,28.8-.94,6.48-5.85,12.53-5.88,21.76-.05,16.95,31.73,28.52,45.67,29.24,8.73.45,32.2-.93,35.98-10.08,5.09-12.3-6.42-27.75-15.6-35.27-1.36-1.12-5.89-3.07-6.13-3.72-.5-1.35.2-9.15.56-10.98.14-.74,1.32-.16,1.33-.76s-1.15-.03-1.33-.76c-.73-2.89,1.24-2.96,1.3-3.32.37-2.46-.89-5.6,1.01-7.42h29.26c-.65,5.83,1.71,13.69,1.17,19.24-.21,2.14-2.41,5.25-2.94,7.58-1.77,7.82-4.47,19.8,3.54,24.33,16.69,9.44,70.43,19.01,86,6.69,4.68-3.7,5.18-10.89,3.83-16.31-2.45-9.82-27.09-22.37-37.06-23.42l-.34-24.05c8.75-3.19,18.81-4.49,26.71-9.45,1.45-2.4.21-24.95-.02-29.65-1.37-28.73-3.71-59.38-7.29-87.91-1.57-12.51-5.67-27.56-6.55-40.93-.29-4.43.95-10.64.33-15.41,6.54,5.02,13.41,9.62,20.7,13.48,4.9,2.6,19.32,7.44,22.07,9.48.93.69,4.69,7.83,6.53,9.91,8.52,9.63,23.25,18.3,35.1,23.07l-1.74,47.43c.42,4.08,3.27,3.54,4.82,5.04,1.84,1.78.73,13.3.96,16.78,1.36,20.37,5.22,40.71,9.91,60.48-4.5,5.66-9.14,12.03-12.73,18.26-9.81,17.02-33.74,64.76-4.78,74.78,10.45,3.62,19.45-1.49,29.29-3.98v13.15c0,.06-.97-.13-1.1.19-2.7,6.94-7.89,8.59-12.72,13.28-26.25,25.51-63.06,69.91-3.96,83.5,37.16,8.55,87.09,9.46,123.31-2.96,8.05-2.76,16.72-6.06,21.84-13.12,9.72-1.52,26.29.81,32.11-8.53,1.2-1.93,2.75-6.58,2.21-8.77-.13-.54-3.79-4.76-4.61-5.37-1.71-1.29-34.15-16.71-36.1-17.15-2.63-.6-5.27-.23-7.91-.31.72-12.49-2.25-24.79-7.23-36.15,11.51-.03,20.46-9.15,23.02-19.73,14.65,6.84,30.18,5.07,45.67,6.59,31.11,3.06,50.97,9.87,80.11-9.34,3.39-2.24,11.32-10.43,13.62-11.4,1.13-.47,3.92.15,3.92.34v146.58H4.08V314.79h41.09ZM261.15,502.78c-6.4-2.04-10.09,16.18-6.89,17.74,1.31.32,1.17-.96,1.42-1.83.88-3.04.72-6.71,2.05-9.79,1.18-2.72,3.72-3.05,3.41-6.11ZM249.09,512.85c-.43-.83-5.2-6.88-6.03-7.43-.4-.26-.76-.59-1.19-.8l-1.76.47c2.71,2.05,7.77,17.09,9.54,16.72l.99-1.63c.3-2.68-.32-5-1.54-7.35ZM268.38,508.7c-2.07-1.99-10.25,8.4-10.4,11.02-.14,2.41,1.81,3,3.09,1.06l7.31-12.08ZM267.06,596.12c-5.37-.9-7.95,14.85-5.87,16.39l1.92.04,3.94-16.43ZM250.31,598.09c-.89.15-.93,1.16-.73,2.01.44,1.91,6.96,10.85,7.95,13.74,3.81-2.72-5.16-16.11-7.22-15.76ZM274.95,602.03c-5.03.49-11.41,6.88-8.21,11.81.14-2.22,9.23-10.77,8.21-11.81ZM56.02,722.98c-5.08.17-7.19,8.04-7.28,12.15-.05,2.25-.01,6.55,2.68,5.6-1.04-2.44,1.16-3.38,1.27-3.78,1.18-4.34,1.11-9.52,3.33-13.97ZM46.16,742.69c.7-7.43-4.11-17.7-11.83-19.05-.83.69,6.35,8.58,6.78,9.38s3.37,11.76,5.04,9.67ZM222.36,725.61c-7.01-.39-13.09,21.51-8.78,23.58.48.23,1.96.37,2.29-.3.08-9.1,1.91-15.53,6.49-23.28ZM65.88,727.58c-3.51-2.84-13.16,10.66-11.17,14.45,1.73,1.81,5.17-6.81,6.03-8.09,1.66-2.45,4.04-3.85,5.14-6.36ZM209.86,749.92c-.14-8.87-3.76-19.24-12.8-22.35-1.19.12-.78.84-.35,1.65.87,1.61,4.96,5.11,6.1,7.09,1.67,2.88,4.05,12.11,4.77,12.94.77.89,1.19.76,2.28.68ZM225.41,741.8c1.46-1.81,9.63-9.34,3.16-7.03-5.53,1.97-11.09,9.04-10.15,15.15,1.19,1.5,4.64-6.16,4.96-6.56.61-.78,1.61-1.04,2.03-1.56ZM548.83,758.85c1.17-2.31,5.57-7.18,5.88-8.27.26-.89.13-1.9-.67-1.95-8.01,4.28-13.73,14.98-9.2,23.64,1.16.28,1.05-.44,1.31-1.28,1.37-4.47.05-6.96,2.67-12.13ZM536.23,761.5c-2.44-4.31-5.77-9.64-11.43-9.6-.66,2.69,1.83,1.98,3.32,3.58,1.11,1.19,2.51,3.12,3.38,4.51,1.63,2.61,5.1,14.01,5.85,14.19,3.95.95,1.06-9.54.13-11.59-.33-.73-1.11-.85-1.24-1.08ZM562.92,757.81c-5.33.16-12.04,8.81-12.37,13.64-.07,1.11-.13,1.42.88,2.13,1.59.32,4.81-7.74,6.24-9.53,1.8-2.26,5.44-3.03,5.26-6.24ZM109.56,780.55c-1.74-5.65-5.95-16.27-12.77-16.17-.29,2.46,2.16,2.81,3.28,4.26,4.01,5.17,6.41,11.73,7.9,18.09l2.64-1.11c.92-2.77-.78-4.17-1.06-5.07ZM114.54,785.41c2.14,1.41,2.53-8.51,3.08-10.38,1.27-4.29,2.96-4.66,4.94-7.55,3.13-4.56-1.5-2.91-4.1-.16-4.48,4.73-5.65,11.89-3.92,18.09ZM131.62,770.96c-4.16-.94-16.5,14.2-11.49,15.77,2.03.64,4.39-6.27,5.7-8.09.98-1.36,7-6.41,5.79-7.68Z" fill="#fff"/>
  <path d="M590.54,3.89v64.42c-5.42-2.33-12.18-1.63-17.73-.01-2.8-16.13-22.28-20.96-34.2-10.51-7.63-30.83-57.24-28.21-57.87,4.6-3.29-.23-5.61-2.74-8.93-3.22-10.46-1.53-22.88,4.09-23.28,15.72-8.1-2.29-20.89,3.5-19.58,13.3.45,3.36,4.15,7.08,7.42,7.08h154.17v135.4l-20.73-20.35c-21.57-23.68-56.43-75.94-86.94-84.63-47.27-13.47-90.03,44.52-118.23,74.02-18.12,18.95-35.97,38.54-57.81,53.33-16.47-6.79-30.99-21.08-48.15-26.12-15.33-4.5-26.88-2.01-41.56,3.1,2.43-16.74,3.4-33.53-5.91-48.32s-29.13-21.79-46.84-19.19c-2.96.44-8.01,2.61-10.67,2.41s-8.03-3.93-13.27-4.47c-26.28-2.72-54.14,6.68-66.66,31.08-5.84,11.37-3.9,24.18-15.13,32.94l-1.45.2c-16.14-10.42-36.6-6.67-53.09.76V3.89h586.45ZM143.75,60.8c-3.56-7.88-5.89-12.6-14.29-16.29-19.62-8.61-47.48,2.59-48.46,25.76-10.11-5.95-28-1.29-28.26,11.84-7.58-.96-18.41.24-24.25,5.67s-5.03,15.49,4.17,16.05l159.61-.86c4.04-1.49,6.13-4.34,6.45-8.68,1-13.61-13.17-18.27-24.35-15.47-1.18-13.84-17.8-14.03-27.61-8.55.6-3.72-1.67-6.5-3.01-9.47ZM361.73,69.63c-9.87-3.15-22.57-2.14-28.59,7.2-4.91-5.17-14.77-7.03-21.65-5.86-1.77.3-8.98,3.77-6.95,5.87,1.13,1.17,5.3-2.29,6.94-2.59,6.33-1.15,13.35.8,18.63,4.31,1.86,1.24,2.39,4.3,4.94,3.59.47-.13,1.47-3.77,2.36-4.98,4.59-6.18,16.55-7.12,23.37-5.1l.95-2.44ZM289.42,118.92c-1.96-30.04-49.06-29.31-49.98.66-7.95-1.96-13.88-1.98-20.86,2.48-9.12,5.82-13.1,19.63.81,21.84,34.14-2.04,71.45,2.71,105.22.03,6.79-.54,11.54-2.25,8.88-10.25-2.21-6.64-11.88-7.19-17.7-6.95-3.03-12.61-16.63-12.75-26.37-7.8Z" fill="#fff"/>
  <path d="M213.37,517.05c.01.13,1.04.04,1.15,1.13,2.73,27.69,2.82,55.79,5.2,83.5-.39,3.29-13.34,6.85-16.56,7.77-24.47,7-54.99,9.02-80.42,8.82-29.48-.23-59.36-3.88-86.98-14.4l8.73-80.11c5.99-1.14,8.61,5.26,15.23,5.23,2.91-.01,5.44-2.38,7.18-2.54,2.94-.27,7.6,2.34,10.09-2.4,3.9-7.44-4.22-18.8-2.56-26.55,2.4.73,2.33,3.68,4.58,5.6,4.11,3.53,11.17,2.94,12.36-2.81,2.54-12.27-5.05-27.01-13.54-35.47l1.21-12.69c11.59,2.64,23.86,4.11,35.8,4.63,29.53,1.29,60.88.48,89.39-7.19,1.58.4,5.07,28.16,5.55,31.91,1.5,11.79,2.41,23.72,3.6,35.54ZM168.17,501.2c.94-2.74,6.15-17.12,4.23-18.47-2.35-1.66-3.29,7.14-3.85,8.62-9.96,26.54-23.51,53.32-43.81,73.88-4.68,4.74-11.11,9.74-16.65,13.25-1.25,6.31,7.13-1.05,9.4-2.76,21.04-15.91,42.18-49.79,50.69-74.52Z" fill="#fff"/>
  <path d="M590.54,287.84c-9.64-20.55-37.51-24.56-55.56-12.5-8.08,5.4-13.33,16.72-14.17,26.26-3.26,1.43-7.58-2.19-10.02-1.82-.48.07-8.64,3.19-8.99,3.52-1.71,1.59-1.19,3.38-1.38,3.55-.48.42-3.28-.78-4.84,2.07-1.38,2.52-1.39,15.36-1.05,18.71.48,4.8,4.23,9.14,2.32,12.8h-25.97l4.63-11.14c10.45,1.77,16.87-10.09,14.14-19.12-.72-2.37-3.94-3.32-4.23-4.34-.31-1.08,1.36-9.04,1.26-11.75-1.49-40.72-70.79-46.04-77.58-3.78-1.03,6.39,2.57,10.99,3.2,17.01,1.18,11.2-1.53,22.65,5.32,33.13h-11.18c.01-3.49-.19-9.32-3.73-11.12-1.63-.83-2.6-.02-3.53-.36-1.43-.52-2.16-2.1-3.63-2.35-2.08-.35-8.39.41-10.8.68-4.4-20.91-2.95-47.75-26.06-57.76-13.29-5.76-30.32-4.39-41.61,4.91-15.24,12.55-15.64,38.45-17.77,56.51l-2.67.29c.41-5.92-3.37-8.48-8.54-5.26-.11-3.9.56-13.4-3.64-15.13-1.95-.8-3.2.15-4.54-.03-4.7-.63-6.44-1.57-11.75.83-3.94,1.79-3.2,5.2-3.85,5.68-.43.32-5.82.34-5.82,3.06v10.52l-.99.99h-24.98c-4.43-6.42-9.14-12.64-15.44-17.42,6.09-5.11,6.2-12.85,5.24-20.05,52.5-11.54,99.96-42.69,135.11-82.8,13.13,9.97,29.29-3.93,41.41-9.22,9.03-3.94,14.11-5.85,22.91.12,13.12,8.91,16.25,17.23,35.57,11.02,9.11-2.93,15.15-11.55,25.32-6.83,12.39,5.75,23.18,24.6,40.09,13.72,5.22-3.36,5.96-8.34,8.9-10.82,5.52-4.64,19.46,7.22,26.22,8.66,4.42.95,13.71-.5,15.53.23,2.78,1.11,13.41,14.11,17.12,16.43v52.91Z" fill="#fff"/>
  <path d="M213.42,197.54c.04.17.88.26,1,.75,1.33,5.91,1.19,29.12.06,35.21-.13.71-1.62-.09-1.33,1.42.11.59,1.2.13,1.33.77,2.44,12.12,9.37,24.62,7.71,36.53-.56,4-3.31,7.72-3.79,11.33-1.11,8.28,3.01,16.05-.32,24-2.96,7.06-6.45,4.45-10.72.25,2.77-8.64,3.79-17.81,3.19-26.89-.38-5.76-2.92-11.98-3.31-17.06-.55-7.08.95-16.6.69-24.36-.18-5.28-2.33-29.26-4.74-32.73-1.5-2.16-11.93-.7-15.29-1.15-5.27-.7-11.64-3.96-15.81-7.2-2.08-1.61-4.41-6.17-7.22-5.92-.85.08-11.21,8.11-14.16,9.57-8.37,4.14-18.58,6.61-27.99,6.26-2.9-.11-13.51-3.36-14.47-2.01.42,16.41-3.06,33.13-1.62,49.66.58,6.71,2.91,12.01,7.27,17.05,9.41,10.86,9,3.21,18.25-2.09,4.28-2.45,14.52-6.6,19.17-5.08,1.5.49,2.82,2.59,4.04,3.19,10.02,4.88,18.52,4.52,26.27-3.96,7.12,2.95,13.41,7.2,16.83,14.25l2.18-.41,5.27-7.51c8.62,39.41-15.94,61.81-54.26,60.49-49.46-1.7-61.97-34.6-60.16-78.6.18-4.44,3.71-21.33.5-23.52-7.66-5.22-20.07,2.51-22.5,10.73-4.24,14.35,3.57,27.44,18.73,28.27.33,9.74,1.17,19.7,4.61,28.91-10.27,1.69-20.64,4.81-29.51,10.27-5.24,3.23-8.25,9.76-14.39,5.69-7.27-4.82-8.39-18.23-4.78-25.51,2.96-5.96,10.38-11.05,8.55-18.9-.43-1.84-5.11-8.46-5.74-12.13-3.18-18.65,8.05-22.12,17.85-33.76,7.98-9.47,8.37-24.81,16.42-36.83,11.97-17.89,42.02-27.65,62.47-22.19,2.76.74,7.42,3.68,9.34,3.86,2.95.28,8.35-2.26,11.78-2.61,24.92-2.52,42.23,7.77,48.58,31.95ZM184.05,284.07c-1.09-1.17-11.36-4.25-13.47-4.6-8.95-1.5-21.67-.4-30.09,3.1-1.38.58-8.28,3.82-6.23,5.93.71.73,15.47-5.51,19.41-5.9,5.73-.57,15-.28,20.57,1.09,2.49.61,7.22,3.61,9.64,3.52,1.9-.07.84-2.41.16-3.14Z" fill="#fff"/>
  <path d="M566.21,664.8c.62-2.38,5.23,2.59,5.93,3.46,3.82,4.8,8.75,17.9,6.92,23.85-1.41,4.59-21.23,14.32-26.15,15.92-24.01,7.84-37.25,1.57-60.03-.17-6.4-.49-13.19.44-19.62-.11-8.09-.69-16.82-3.47-24.34-6.41l-.4-16.82c5.26-4.83,4.48-6.78,3.85-13.73s-4.44-16.85-4.57-22.44c-.08-3.58,2.23-8.06,2.6-11.92.94-9.81-2.38-17.77-5.19-26.87l8.56-37.14c31.48,9.48,67.18,9.92,98.61,0,1.96,11.08,4.27,22.14,5.82,33.3.88,6.35.36,14.32,2.78,19.58l2.9,52.96,2.31.64v-14.13ZM487.31,614.52c-4.03-2.85.38,14.85.71,16.05,3.65,13.16,16.12,40.87,24.92,51.14,1.13,1.32,3.86,4.27,5.59,3.79,1.3-.98.75-.8.46-1.74-.87-2.74-4.63-5.85-6.03-7.97-10.24-15.4-17.59-33.13-23.1-50.37-1.14-3.58-1.49-7.31-2.55-10.91Z" fill="#fff"/>
  <path d="M422.1,726.4c9.32,25.33,9.92,46.9-11.02,65.95-.82.75-9.82,5.72-7.91,7.53,12.1-3.15,21.65-16.21,25.96-27.6,13.35,6.14,20.96,26.12,5.2,34.1-32.91,16.67-106.55,16.75-141.1,5.15-49.43-16.61,3.15-67.45,23.61-85.2,26.76,9.96,60.52,11.31,88.33,4.88,4.76-1.1,11.61-4.74,15.05-5.26.7-.11,1.33.01,1.9.44ZM367.65,758.47l-58.5,25.96c.02,3.5,19.17-3.5,20.82-4.15,7.49-2.96,17.91-8.43,24.98-12.49,1.11-.64,14.11-8.01,12.69-9.32Z" fill="#fff"/>
  <path d="M516.52,153.47c15.97,15.99,32.43,36.35,47.04,53.88.68.82,6.38,7.76,5.93,8.19-13.27,4.24-24.24-11.58-36.5-9.87-7.74,1.08-7.12,15.65-21.6,14.38-12.33-1.08-23.06-17.83-33.67-18.24s-19.61,11.9-33.4,10.37c-17.08-1.9-19.16-21.59-41.35-14.89-13.3,4.02-28.46,19.87-42.51,12.58-.62-2.19,4.87-5.91,6.21-7.46,22.4-25.82,62.3-73.06,98.59-75.62,21.22-1.5,37.35,12.77,51.25,26.69Z" fill="#fff"/>
  <path d="M203.8,423.09c-29.18,7.96-62.61,9.59-92.86,7.37-4.08-.3-30.4-3.04-31.15-5.62,1.44-3.13-.27-8.29.68-11.01.32-.91,3.19-2.25,4.31-4.23.67-1.17,2.38-5.48,2.76-6.57.62-1.81-.01-5.21,1.32-7.11,1.18-1.68,12.17-5.84,14.95-7.4,20.29-11.42,42.36-31.43,51.48-53.05,20.02-.7,33.8-5.86,47.61-20.1,1.12-1.15,2.36-5.6,4.2-2.07.78,1.5,3.16,21.59,3.42,24.84,2.29,28.3.35,57.56-6.72,84.95Z" fill="#fff"/>
  <path d="M97.68,308.65c2.65,4.11,8.14,10.28,12.04,13.26,11.58,8.83,27.94,12.53,42.29,13.27-3.53,8.74-9.99,17.15-16.42,24-12.68,13.53-29.25,25.98-46.7,32.51l3.28-35.49h-1.95s-6.6,45.36-6.6,45.36c-18.45-14-45.81-14.21-67.05-6.58,2.92-7.37,3.93-15.8,6.24-23.66,9.8-33.28,34.84-66.04,71.32-71,.49,2.7,2.06,6.05,3.53,8.33Z" fill="#fff"/>
  <path d="M557.33,520.53c-2.58.28-4.27,2.55-7.74,1.84-1.01-.21-7.95-4.59-8.42-5.41-1.62-2.89-1.02-16.13-2.7-20.31l-3.17-1.11c-.52,6.91.94,12.89,2.63,19.06-.66.51-5.5-2.24-5.96-2.9-2.02-2.87-3-19.49-5.66-24.52-.21-.4-3.25-3.01-3.51-3.12-6.22-2.5-7.56,5.77-6.23,10.18-6.65-3.27-13.79-10.44-21.34-11.56-1.66-.25-8.46.79-9.92,1.32-2.76,1.01-2.42,4.02-3.66,6.21s-3.61,2.69-2.86,5.53c.15.58,1.92.38,1.32,2.09-.21.59-1.74.07-2.06,2.62-.61,4.92,7.4,14.59,10.89,18.12,7.8,7.89,13.81,8.15,21.07,13.12,4.03,2.76,10.05,10.3,14.46,13.8,5.69,4.53,12.43,7.88,18.07,12.49-29.2,5.05-60.43,5.46-88.67-4.35.8-13-.04-26.48,1.83-39.39.24-1.65,1.77-6.66,2.33-9.51s5.24-19.58,4.9-20.58c-.21-.62-.84-1.2-1.58-1.08-3.23.53-10.61,35.49-9.55,40.75l-19.58-30.79c13.26-10.84,24.39-25.67,41.12-31.5,3.05-1.06,8.64-3.44,11.58-1.37,1.57,1.11,1.25,8.56,4.35,12.08,12.38,14.05,39.2.35,40.49-16.8,19,4.86,31.34,15.13,39.66,32.64,4.75,9.99,8.05,21.11,9.29,32.45-6.83.53-14.66-.71-21.37,0Z" fill="#fff"/>
  <path d="M285.8,663.16c-.22,0-2.06,1.72-1.63-.31,10.4-21.28,20.3-45.43,42.74-56.55,5.75,2.87,10.81,7.09,17.72,6.93.16,10.8,12.97,12.72,21.38,11.8,11.53-1.27,23.45-14.94,26.36-25.67,18.27,5.32,37.75,17.75,46.21,35.3,6.27,13.01,9.69,27.9,11.27,42.29-14.4-4.93-29.06-3.94-43.43.39-.45-3.84-2.92-32.17-4.58-33.25-.84-.55-2.77.33-2.63,1.63l3.29,29.26-13.53-7.16c-.46-3.18-.51-6.76-1.35-9.86-.64-2.37-2.52-8.9-3.39-11.05-.7-1.73-3.15-3.91-3.27-4.53-.33-1.77,1.38-2.94-.67-5.99s-3.55-1.39-5.24-2.32c-.38-.21-.64-1.6-1.47-2.13-3.42-2.21-9.13-.27-12.67,1.14-2.1.84-6.63,4.2-7.53,4.33-1.74.25-3.89-1.43-6.42-1.24-2.76.21-3.46,2.16-4.58,2.39-1.36.27-2.7-1.09-5.22.35-2.74,1.56-1.49,3.84-2.13,5.2-.53,1.12-2.33,1.76-2.73,3.08-.89,2.94.94,4.4.93,5.78,0,.3-1.86,5.35-2.05,5.59-.93,1.16-15.59,4.83-17.76,7.22l8.12-32.67c.03-1.7-1.92-1.74-3.13-1.41l-8.92,35.41c-.88,1.32-9.61-3.96-11.19-3.96-4.16,0-8.33,0-12.49,0Z" fill="#fff"/>
  <path d="M409.34,531.45c8.26,17.75,12.6,37.32,20.47,55.44,7.53,17.32,21.66,35.43,16.07,55.23-3.55-5.59-5.62-12.27-9.57-17.69-5.09-6.98-14.58-14.98-22.03-19.39-3.26-1.93-15.12-6.57-16.31-8.81-3.99-11.51-6.06-23.69-10.07-35.18-8.53-24.45-26.11-54.16-56.64-51.61-34.91,2.92-30.27,46.23-22.3,69.44,3.42,9.97,8.19,17.63,15.95,24.79-2.03,2.7-5.75,3.29-8.19,4.95-2.06,1.39-3.98,3.87-5.6,4.92-.7.45-.77,1.53-1.66.34-.98-4.85-1.84-9.82-3-14.62-8.4-34.64-18.24-92.49,26.37-107.31,36.65-12.17,61.83,7.94,76.51,39.5Z" fill="#fff"/>
  <path d="M76.97,400.34l-1.17,56.14c-2.44,2.27-.91,5.94-1.88,9.05,2.92,3.8,6.73,7.02,8.98,11.37,2.41,4.66,7.86,20.03,4.5,24.39-.2.26-2.1,1.17-2.44,1.21-8.15.94-7.15-18.39-13.09-14.77-1.02.62-.86,12.08-.71,14.06.33,4.21,5.03,19.16,1.68,21.42-4.88,3.3-10.89-6.22-12.53-9.92-.61-1.38-4.24-16.52-6.91-13.79,2.04,8.4,3.26,17.87,9.8,24.08-.93,3.37-5.4,2.52-7.8,1.19-8.26-4.55-10.26-18.13-13.15-26.33-5.4.06-1.58,2.85-1.4,3.53,1.6,6.02,2.01,12.37,5.32,17.89-13.36-3.44-16.12-26.12-15.05-37.71,1.24-13.38.45-14.66-1.3-27.77-2-15.02-4.49-33.94-3.41-49.9.11-1.68.82-8.88,1.81-9.52,16.4-3,33.61-1.9,48.75,5.37Z" fill="#fff"/>
  <path d="M301.33,435.81c-.51.98-.53,1.85-.15,2.89.77,2.12,8.8,10.29,10.94,12.13,5.98,5.14,15.26,8.29,17.38,16.42-3.48,1.68-5.55-.18-8.53-1.6-7.27-3.48-14.73-9.49-21.35-14.14-3.04.34,4.31,7.11,4.89,7.58,3.45,2.81,18.89,11.03,19.93,13.64.53,1.33.56,2.41-.36,3.58-2.45,1.27-4.33.51-6.65-.57-5.93-2.76-15.62-10.17-21.53-13.96-1.41-.91-3.49-2.34-5.17-2.38-1.85,1.88,10.94,10.36,12.53,11.46,2.54,1.76,13.98,6.04,11.04,10.79-2.31,3.72-18.69-6.96-21.54-8.83-3.11-2.04-5.82-3.98-8.27-6.83-.93.68-1.1,1.11-.99,2.27.49,5.03,22.92,13.44,18.03,17.51-2.68,1.3-4.69.03-7.19-.73-11.47-3.49-28.26-15.92-36.18-24.96-1.78-2.03-4.19-7.49-5.96-8.5-4.61-2.64-14.2-5.27-20-8.27-5.01-2.59-25.48-14.14-25.35-19.73l4.91-20.31c6.12-1.96,27.07-11.63,32.47-10.14,1.3.36,15.68,14.57,18.59,16.96,2.71,2.23,14.82,11.74,17.24,12.35,3.81.95,16.86.35,21.56.19,5.68-.2,12-2.73,17.77-.73,7.17,4.74-13.29,15.73-18.05,13.93ZM282.47,446c-2.83-6.82-7.89-13.57-16.06-10.59,4.85,4.5,12.54,5.22,13.83,13.45l3.24-.68c.75-1.64-.9-1.92-1.01-2.19Z" fill="#fff"/>
  <path d="M436.36,91.97c-4.84-1.15-3.23-8.92.1-11.73,6.03-5.09,13.28-.58,14.65-1.45-.09-11,9.91-18.36,20.6-16.25,2.81.56,9.28,6.15,10.63,5.76,2.27-7.57,1.12-14.63,7.34-20.95,16.04-16.29,45.04-6.5,46.34,16.96,4.51.1,4.08-4.33,8.57-6.76,12.19-6.6,25.03,1.78,24.92,15.34,6.99-1.17,14.42-5.45,21.02-.31v19.39h-154.17Z" fill="#fff"/>
  <path d="M167.37,198.87c9.95,7.41,19.6,12.37,32.63,9.44.54,2.96.67,6.47,1.39,9.34,2.76,11.01,3.76,21.72,3.25,33.75-.34,8.02-.87,17.01-5.94,23.3-.73-3.47-4.51-6.2-7.31-8.15-6.16-4.28-10.79-3.21-11.85-12.33l-12.07-19.01-2.27,1.09c2.18,7.89,9.42,12.79,11.46,21.31,3.47,14.44-11.62,12.64-20.51,8.02-1.56-.81-2.76-2.91-3.96-3.27-4.48-1.34-14.74,2.26-19.04,4.35-4.03,1.96-8.41,6.66-10.76,7.67-3.2,1.38-6.86-4.42-8.21-6.89-4.23-7.72-5.65-17.94-4.97-26.67.09-1.18,1.32-.71,1.42-1.89.76-9.52.76-19.15,1.93-28.64,18.55,3.9,38.21-1.3,52.35-13.76,1.42-.2,1.72,1.8,2.45,2.35ZM199.14,227.83c1.72-2.45.09-7.71-2.76-8.33-7.35-1.59-17.85,5.45-25.86,4.02l-.14,8.16c1.93,2.36,4.11,2.35,6.96,2.28,3.27-.08,20.23-3.9,21.8-6.14ZM157.83,223.52c-8.5,2.19-22.48-4.3-29.75-3.37-3.05.39-8.38,6.96-2.65,9.14,3.47,1.32,21.93,4.29,25.59,3.99,5.94-.48,9.35-3.75,6.8-9.76ZM191.26,237.42c-.24-.41-3.77-3.02-4.73-2.89-5.13-.02-5.77,15.68-1.16,17.03,7.5,2.19,8.23-10.21,5.9-14.14ZM143.75,238.92c-9.27-9.78-11.82,18.05-.98,14.37,4.87-1.65,4.23-10.94.98-14.37Z" fill="#fff"/>
  <path d="M536.17,417.79c3.55,4.35,6.18-3.16,8.5-3.95,12.1-4.14,11.47,15.14-.22,20.18-3.64,1.57-5.43.88-9.15.67-7.32,25.68-49.36,34.73-63.89,11.36-11.75-18.9-5.3-44.46,1.41-63.74l15.49-6.85c12.08,10.86,26.74,17.44,43.1,18.49,1.01.69,1.32,19.62,4.76,23.84ZM472.2,393.66c.57.52,14.32-1.05,15.34-1.42s1.4-1.21,1.09-2.18c-.6-1.9-17.45-1.75-16.43,3.6ZM523.47,401.55c.2-1.62.11-2.08-1.05-3.21-1.4-1.37-14.21-6.45-15.38-5.32-.12,1.48-.2,2.2,1.04,3.23,1.07.88,14.65,6.03,15.39,5.31ZM473.85,402.22c-6.19,11.55,16.59,11.48,11.81.66-1.76-.4-4.93,7.05-8.61,4.01-1.26-1.04-.66-4.56-3.2-4.67ZM493.89,406.82c-1.8-1.99-11.57,12.09-12.06,13.92-2.36,8.93,13.36,8.14,13.36,5.46-2.4-3.55-12.54.81-9.09-6.48,1.96-4.15,8.72-6.93,7.79-12.91ZM507.65,406.86c-4.2-.83-3.79,2.96-1.94,5.55,4.36,6.12,17.28-.51,14.17-4.96-1.77-2.53-3.53,2.05-5.01,2.93-3.85,2.29-6.93.94-7.23-3.52ZM503.72,438.99l-1.05-3.2c-7.82,3.12-13.65,2.21-21.27-.71,1.59,9.06,15.95,6.15,22.32,3.91Z" fill="#fff"/>
  <path d="M386.35,569.56c.48,1.55,2.28,3.94,2.38,6.54.23,5.98-11.15,20.34-15.89,24.22-21.32,17.48-42.82,11.19-55.99-11.62-7.46-12.91-8.75-28.15-9.7-42.75,10.09-5.23,21.47-11.04,26.99-21.48l.94.02c10.71,11.12,25.82,19.77,41.78,19.37,1.79.98,8.4,22.23,9.48,25.7ZM367.5,550.25c-.7-1.37-16.6-4.82-19.15-3.99-4.49,4.57,5.6,4.07,8.8,4.81,2.36.55,13.61,5.53,10.35-.82ZM329.52,548.15c-3.11-3.88-18.89,2.45-18.38,4.92.24,1.15,1.87.97,2.78.84,4.17-.57,9.86-4.54,14.8-4.29l.81-1.47ZM348.59,563.91c-.49,10.28,14.19,8.38,17.65,1.51-2.04-5.2-4.6.55-7.16,1.41-5.53,1.85-5.68-3.08-10.49-2.92ZM317.51,564.01c-.81.11-2.04.84-2.35,1.66-1.87,11.35,17.56,5.6,16.97.54-.56-4.8-12.86,8.57-13.09-2.03-.49-.42-.98-.24-1.53-.17ZM337.41,566.54c-2.29-2.44-6.05,10.26-6.27,11.79-.25,1.7-.55,3.07-.16,4.82,1.7,7.49,16.76,4.01,13.66,1.13-17.7,1.86-7.39-7.82-7.23-17.75ZM353.2,592.17c-6.42.62-11.23,2.71-17.97.72-4.46,3.53,6.77,4.42,8.92,4.35,1.7-.06,12.03-2.14,9.06-5.07Z" fill="#fff"/>
  <path d="M376.1,657.13c1.64-2.75-1.12-5.31-1.18-5.61-.6-2.95,1.37-7.42,4.59-5.8s4.69,21.11,6.56,25l41.25,21.87,2.14.15c-.07-.78.26-1.79-.15-2.48-1.5-2.56-15.74-7.23-18.26-10.65,10.94-3.54,23-3.73,34.03-.51,3.78,25.81-6.05,51.39-36.65,38.28-18.83-8.06-25.6-19.97-39.9-29.13-2.46-1.58-5.89-2.06-8.32-3.51-9.66-5.77-23.24-16.04-25.43-27.49,4.53-.69,9.05,8.7,12.14,8.57,2.96-.45-1.06-4.89-1.95-5.95-.75-.89-15.12-12.1-7.93-12.49,4.54-.25,13.38,15.69,16.79,12.49.08-.7-.05-1.36-.26-2.03-.25-.8-10.07-10.69-11.55-12.11-1.26-1.22-4.77-1.67-3.33-3.94,4.4-2.79,20.57,15.46,22.37,13.49.12-1.15.07-2.01-.61-3-2.05-2.97-13.61-9.57-14.5-11.8-.28-1.41.65-1.02,1.63-.98,4.04.17,9.27,3.58,12.48,5.93,2.76,2.02,11.5,11.61,12.87,12.17.85.34,2.82.1,3.15-.46Z" fill="#fff"/>
  <path d="M302.57,391.04c-5.97-5.49-11.93-10.66-12.24-19.41,6.58-6.78,23.02-25.5,32.77-24.48,5.26.55,3.28,3.19,5.12,5.94,7.91,11.79,29.08,6.5,30.91-7.37,6.64.62,11.76,3.49,17.06,7.21l-1.31.65,1.32.98c-2.01.78-1.7,8.85-1.37,11.21.4,2.85,5.8,11.88,5.98,13.15.34,2.4-1.49,7.99-1.34,10.81-1.84-1.58-7.73-2.68-9.02-4.11-2.43-2.68-2.76-13.76-5.89-18.04s-10.59-4.03-10.07,2.43c-5.57-1.84-10.95-7.29-17.28-5.77-1.01.24-8.48,4.56-8.82,5.3-.46,1-.02,2.22-.35,3.26s-1.53,1.88-1.72,2.96c-.38,2.18,1.24,3.17,1.2,4.44-.04,1-1.33,1.59-1.2,3.12.22,2.59,9.87,11.78,12.31,13.41,5.71,3.82,11.07,4.2,16.35,6.66,2.26,1.05,5.15,4.09,7.74,5.41,6.01,3.07,11.79,6.67,18.35,8.46l-.03,6.69c-18.64,4.8-38.32,5.34-57.35,2.52,1.86-11.4-9.73-8.6-17.17-7.82.46-8.32.85-14.91-.03-23.19-.05-.48-1.21-.25-1.34-1.41-1.05-9.16,2.79-17.91,4.61-26.92-.68-2.86-4.14,1.87-4.51,2.75-.49,1.14-2.68,10.68-2.68,11.64v9.53Z" fill="#fff"/>
  <path d="M382.78,437.05l7.23,61.13c-20.72-17.48-58.11-16.45-77.6,2.28-12.71,12.22-10.69,19.94-15.56,34.42-.37,1.09.27,1.73-1.5,1.42l.96-46.7c4.58.08,8.23.49,8.91-5.22,2.99,1.17,5.29,1.86,8.58,1.03,3.75-.95,4.33-4.69,4.63-4.85.99-.54,3.71.28,6.09-.86,4.75-2.28,2.94-7.03,3.81-8.36.29-.44,4.28-.51,4.45-5.08.26-6.76-14.95-14.59-19.72-18.99-1.23-1.14-7.36-7.85-6.54-8.88,7.31-.92,14.41,2.99,22.04,3.92,17.8,2.18,37.29.49,54.22-5.24Z" fill="#fff"/>
  <path d="M4.08,229.67c15.04-8.25,36.47-12.86,51.27-1.97-9.59,8.73-14.36,16.99-11.25,30.32,1.76,7.55,6.98,11.55,3.48,19.74-2.03,4.77-8.37,9.32-9.15,14.51-.56,3.74-.38,10.95.95,14.47.33.87,4.23,3.16,1.84,4.76H4.08v-81.83Z" fill="#fff"/>
  <path d="M221.7,291.13c-2.74-6.62,3.87-13.16,4.52-18.15,1.81-13.73-3.21-17.46-6.95-29.05-.59-1.82-3-8.88-1.76-10.06,5.31-2.21,11.52-4.72,17.2-5.66,26.6-4.43,46.63,15.75,68.5,27.09-12.39,8.43-25.95,16.01-39.64,22.14-5.09,2.28-39.5,16.07-41.87,13.69Z" fill="#fff"/>
  <path d="M469.57,291.13c-.44,7.6,1.51,14.41,4.92,21.06,1.95,2,9.27-7.87,12.33-.52s-4.8,16.99-12.67,14.57c-4.18,15.85-19.01,24.83-35.17,23.42-27.49-2.4-26.29-38.15-19.88-57.7,8.53-1.8,16.38-5.53,23.82-9.96,4.6,1.5,7.48,5.13,12.2,6.82,4.21,1.51,9.99,2.37,14.45,2.32ZM421.12,297.23c-.18.16-.86,1.38-.84,1.47,1.01,3.77,10.03-2.22,12.65-1.8,4.73-6.18-10.27-1.05-11.81.33ZM450.61,294.52c-.18.1-.8,1.84-.71,2.13.19.56,10.08,4.14,10.94,4.23s1.89,0,2.14-.89c.94-3.29-10.67-6.49-12.38-5.47ZM433.2,309.34c.84-1.23,1.54-4.67-.13-5.06-1.94-.45-2.89,5.08-5.26,5.08-2.27-1.37-2.27-4.53-5.57-3.77-1.26,7.59,7.27,9.16,10.97,3.75ZM449.52,304.94c-.84.27-.97,1.52-1.05,2.29-.75,7.59,11.26,7.29,13.12.51-1.39-6.93-3.98,3.59-8.7,1.75-1.79-.9-.35-5.51-3.37-4.54ZM439.97,307.56c-1.38-.3-1.5.71-2.09,1.51-.7.95-5.63,8.3-5.77,8.81-2.12,8.07,9.36,6.61,9.83,5.11,1.17-3.69-6.31-1.33-6.55-3.27,1.59-4.18,5.56-7.3,4.58-12.16ZM447.86,329.91c-5.8,1.86-10.3,1.32-16.09-.01-2.46,6.15,14.83,5.25,15.98,3.18l.12-3.16Z" fill="#fff"/>
  <path d="M519.53,499.49v-11.5c3.94-2.84,4.63,7.48,5.3,9.7.16.54,1.07.44,1.23.98.97,3.38,1.51,12.43,3.31,14.98,9.95,5.56,18.93,12.79,28.61,18.73.81.5,8.47,5.29,6.15.42-.88-1.86-8.2-5.15-10.05-7.03-1.39-1.54,9.33-2.59,10.46-2.65,3.93-.2,9.63-.66,12.85,1.68v21.03c0,3.95-4.77,10.32-8.38,11.99-11.3,5.24-24.12-2.2-33.34-8.4-10.77-7.25-16.66-15.19-28.23-21.74-6.78-3.84-22.44-15.65-25.09-22.9-3.14-8.58,8.73,4.44,10.65,5.16.67.2,2.19-1.4,2.19-1.58,0-1.54-14.21-10.23-12.47-14.79,1.03-1.16,11.34,9.46,13.17,10.17,1.01.39,2.41.44,2.61-.65.46-2.61-15.11-12-13.09-15.38,2.45-4.09,13.77,10.6,16.35,11.48s3.17.46,2.54-2.22l-11.71-10.3c10.88-1.06,17.08,10.48,26.95,12.82Z" fill="#fff"/>
  <path d="M413.02,420.94c.04-.24,1.38-3.29,2.29-3.02,5.24-.07,4.17,19.63,3.56,23.36s-3.09,2.63-5.41,4.42c-3.61,2.78-7.98,6.65-6.24,11.93,1.49,4.5,4.93-6.23,6.09-7.48,2.19-2.34,7.66-3.71,8.74-4.73,1.44-1.34,1.35-10.31,6.74-9.04-1.32,8.84-1.71,20.66-9.56,26.32l-.2,1.45c1.25,1.85,1.33,3.93,1.95,5.88,2.67,8.44,5.43,17.94,8.3,26.67,1.48,4.52,3.09,10.96,6.42,13.94l.99-2.61,10.41,15.36c-9.33,6.46-22.91,13.09-33.41,5.32s-12.53-37.02-13.16-49.93c-.13-2.64,1.31-5.66.5-9.06-.42-1.76-3.89-4.4-5.24-6.6-6.12-9.97-4.93-24.79-3.5-35.96h1.34s1.64,14.47,1.64,14.47c1.23,1.01,3.85-2.85,3.98-3.59.66-3.7-1.28-3.49-1.41-4.58-.45-3.87-1.48-11.81,3.99-12.2l2.31,17.73c4.65.31-2.62-21.17,4.93-20.36.32.35-.25,5.07-.05,6.28s1.23.68,1.42,1.89c.45,3.03-1.7,9.27,2.58,10.23.61-4.8-.83-11.58,0-16.1Z" fill="#fff"/>
  <path d="M481.4,354.9l-10.19,8.53c-2.26,3.75-6.52,6.4-6.91,11.18-3.55-2.35-8.78-2.4-8.54,2.63h-.99c-4.14-2.11-10.79-6.39-15.6-5.79-2.6.32-2.96,2.35-4.23,3.02-.9.48-2.23-.2-4.21,1.07-2.91,1.88-1.07,3.36-1.61,4.95-.32.96-2.05,2.18-2.16,3.11-.13,1.07,1.15,2.09,1.2,3.23.07,1.6-1.56,2.24-1.25,4.37.89,6.03,19.01,16.09,24.53,18.28,3.39,1.34,7.67.78,10.54,3.92-.12,8.16-.04,16.24,1.66,24.3-.6.96-19.89.86-22.67.66-1.53-.11-7.19-.66-8.09-1.07-1.15-.53-1.34-4.18-4.57-4.73l-5.43,1.86c2.01-7.3.18-22.44-10.52-19.06l3.94-34.83c-3.17-3.94-4.45,18.13-5.91,17.74-.53-4.07-4.76-18.93-3.64-21.66.37-.91,4.38-4.08,5.96-7.24,1.27-2.55,2.73-9.49,3.79-11.01.95-1.37,14.51-8.57,16.8-6.01.45,15.31,23.87,14.48,30.36,3.54.73-1.23,1.69-5.46,2.39-5.66l15.34,4.66Z" fill="#fff"/>
  <path d="M203.94,426.53l.34,19.07c-1.02,1.77-15.81,4.6-18.6,5.07-25.09,4.18-55.72,4.11-81.33,2.15-3.27-.25-24.75-2.38-25.35-4.38l.69-19.27c8.13,1.89,16.34,3.23,24.66,3.93,24.3,2.05,52,1.91,76.15-1.41,7.93-1.09,15.88-2.55,23.44-5.16Z" fill="#fff"/>
  <path d="M542.3,364.99c12.28,11.59,16.16,30.86,9.78,46.41-4.81-3.27-9.93-.32-13.47,3.31-1.01-2.54-.84-5.69-1.35-8.07-.11-.5-1.18-.47-1.26-.94-.53-3.08.29-13.04-2.27-14.7-2.01-1.31-8.99-.88-11.72-1.43-12.45-2.53-23.63-9.22-32.55-18.14l-19.06,7.97-5.42,13.63c-1.72-7.72,1.57-17.54,5.89-24,14.16-21.18,53.84-20.63,71.44-4.02ZM533.34,386.43c.02-.91.26-1.71-.64-2.31-.51-.34-9.27-1.34-12.03-2.43-2.22-.88-6.72-3.58-8.86-4.95-1.94-1.25-4.3-5.52-6.08-3.11-1.3,5.01,22.19,16.15,27.61,12.8Z" fill="#fff"/>
  <path d="M337.9,283.35c3.25-.78,7.5,3.76,10.44,5.07,4.03,1.79,8.72,2.31,12.4,4.7,2.36,4.08,2.89,27.22,2.34,32.55-2.58,24.89-47.08,31.43-50.57-1.43-.47-4.4-.43-30.08,2.51-32.15,4.75-.84,10.23-1.89,14.66-3.74,2.22-.93,7.58-4.84,8.21-4.99ZM358.45,298.35c3.29-3.38-13.83-8.27-14.46-5.57-.54,2.35,13.9,6.14,14.46,5.57ZM317.1,298.29c.14.23,1.49.47,1.97.39.51-.09,9.41-2.89,9.95-3.13,2.97-1.27,2.2-3.17-1.1-3.13-2.33.03-12.76,2.63-10.82,5.87ZM353.04,304.42c-7.24-6.25-9.25,8.42-3.98,9.63,3.24.75,5.22-7.43,3.98-9.63ZM321.73,303.72c-.96.59-2.04,9.93,2.06,9.02s3.43-12.37-2.06-9.02ZM335.44,306.91c-1.69-.4-1.16.51-1.71,1.23-4.76,6.19-10.42,16.13,3.01,12.24-9.42-3.71-.51-6.87-1.3-13.47ZM333.99,326.8c-3.71.37-7.4,1.67-6.45,6.06.81,3.7,15.61,3.02,16.79,1,2.93-5.01-6.43-7.44-10.35-7.05Z" fill="#fff"/>
  <path d="M555.48,287.25c6.24,7.35,14.05,10.57,23.3,12.68,3.73,17.27,3.26,43.05-16.53,50.01-11.11,3.91-25.73,1.21-31-10.38-4.89-10.76.56-13.27-.57-20.44-.38-2.42-2.52-3.02-2.63-5.26-.07-1.45,3.68-17.43,4.31-18.12,7.8-2.51,16.34-3.52,23.12-8.48ZM547.14,298.37c-2.49-.77-15.54-.33-14.45,3.59.46,1.67,11.16-1.33,13.38-.41l1.08-3.18ZM573.44,305.58c2.92-2.92-13.71-9.67-14.46-6.23-.37,1.69,13.84,6.84,14.46,6.23ZM541.72,306.41c-3.47-3.58-8.55,4.4-5.35,7.79l3.19.62c2.61-.48,4.01-6.51,2.16-8.41ZM561.77,308.39c-1.9,1.96-1.12,11,2.71,10.25,4.46-.87,2.05-15.18-2.71-10.25ZM551.08,310.85c-2.97-2.98-17.82,18.99-.66,15.77.76-4.36-4.9-1.1-5.29-4.28-.5-3.99,6.26-7.4,5.95-11.49ZM557.54,339c4.28-7.52-19.18-12.63-15.97-1.21,1.56,3.68,14.83,3.21,15.97,1.21Z" fill="#fff"/>
  <path d="M590.54,439.68v99.25l-9.86,1.32c.17-4.26-.23-8.58-.02-12.84.28-5.72,1.58-7.07.38-14.15-3.31-19.52-12.78-41.29-29.98-52.19-3.25-2.06-21.38-9.08-21.49-10.55l6.76-8.23c18.16,3.01,36.55,2.78,54.21-2.63Z" fill="#fff"/>
  <path d="M303.88,669.09c1.24,1.88-10.65,5.77-10.53,9.51.03,1.02-.2,1.12,1.01,1.01,11.66-7.29,24.23-13.49,37.41-17.65,4.17,7.52,10.35,13,16.11,19.19-12.91,10.54-39.16,31.54-56.65,26.55-14.68-4.18-15.19-26.59-10.04-37.98,2.62-5.79,17.92-3.54,22.7-.63Z" fill="#fff"/>
  <path d="M400.53,332.54c1.09-.23,1.35.29,1.88,1.07,1.36,1.98,2.78,18.51,2.09,20.83-6.61,2.36-11.62,6.52-10.54,14.24,2.88-1.74,3.64-5.97,6.54-8.23,2.25-1.76,5.56-2.34,6.45-3.11.39-.34,4.88-10.52,6.63-5.32,2.2,6.57-5.88,19.48-10.42,24.25-.26,1.74,4.04,24.98,4.95,25.94.6.64,2.11.38,2.33,1.05,1.21,3.59-2.05,7.73-1.65,11.46-2.51.1-3.93,2.49-5.44,3.1-3.53,1.43-6.75-.78-9.03,5.25-13.49-6.08-12.03-23.65-11.55-36.35.09-2.5,1.57-5.76,1.39-7.88s-4.66-7.52-5.26-11.88c-.62-4.58-.51-24.74.74-28.72.3-.96,1.36-1.98,2.49-1.78l1.96,11.52,1.68-.33-.18-16.94c8.29-4.44,2.22,13.74,5.74,16.6.79.65,1.12.3,1.67-.32,1.87-3.07-2.46-17.02,1.29-17.14,4.12-.13,2.21,13.82,3.07,16.03.7,1.8,3.76,1.5,3.71-.39l-.52-12.97Z" fill="#fff"/>
  <path d="M220.8,322.26c5.23,5.36,10.1,13.5,13.75,20.11,7.68,13.91,12.66,29.73,18.09,45.01l-40.8,12.2c1.1-4.99.78-10.27,1.33-15.31,1.9-17.4,1.65-27.39-.07-44.79-.81-8.23-.77-16.57-2.57-24.69,1.17-1.27,9.2,6.37,10.27,7.47Z" fill="#fff"/>
  <path d="M375.16,294.81c.06.18.92.37,1.15,1.17,3.28,11.16,3.21,24.78,5.85,36.24l-.07.95c-5.18-.51-5.32,4.29-5.87,8.26-.23,1.67.87,7.02-1.01,6.9-2.26-1.88-8.11-2.95-8.71-5.73-.36-15.99,2.26-34.61-1.76-50.23-1.2-4.66-8.91-4.33-13.49-6.2-4.67-1.9-7.94-5.68-12.82-6.89-7.4,6.38-16.48,8.25-25.7,10.5-4.98,16.63-7.59,41.4,6.28,54.58-6.59,1.61-11.34,7.22-17.09,10.53.19-9.76-.15-20.19.66-29.89,2.27-27.22,9.55-59.16,44.36-55.54,15.61,1.62,23.56,11.56,28.22,25.37Z" fill="#fff"/>
  <path d="M276.92,312.82c.09,2.15.87,13.99,2.31,14.45,4.12,1.33.33-10.61,1.65-13.13,1-.04,2.21-.31,2.96.62s1.52,14.45,1.31,16.15c-.34,2.72-3.37,2.34-5.17,3.7-3.48,2.61-6.37,6.58-5.03,11.07,3.04-.87,2.04-4.06,4.23-6.6s6.06-2.73,7.93-4.56,2.03-7.66,5.26-5.95c2.34,3.73-6.7,19.24-8.86,23.24l6.85,40.55h2.01s.63-5.93.63-5.93l9.53,8.56c-4.9,8.34-17.85,13.18-25.95,6.54-14.87-12.2-7.66-34.32-9.57-49.55-.27-2.15-2.69-5.26-3.45-7.77-2.18-7.25-2.38-16.05-1.12-23.51,2.86-2.78.86,13.2,4.58,11.82,2.85-1.91-3.44-17.76,3.29-17.74l.68,13.29c5.89,4.45,2.17-11.01,3.38-14.17l2.52-1.09Z" fill="#fff"/>
  <path d="M191.46,615.83l-.1,22.91c-13.91,3.78-27.74,14.94-28.18,30.33-.8.84-20.92-6.29-21.74-7.51-2.09-3.09.86-12.33,1.92-15.9.31-1.03,1.42-1.07,1.62-1.72.7-2.25.19-16.29-.15-19.28-.15-1.28-2.06-.87-1.35-2.89l47.98-5.94Z" fill="#fff"/>
  <path d="M590.54,594.8v70.99c-6.62-8.15-15.28-5.43-24.41-5.64l-3.54-59.43h10.52c4.4,0,13.03-4.45,17.42-5.92Z" fill="#fff"/>
  <path d="M57.99,614.52l49.31,6.57-2.61,22.7c-17.15-.05-40.7,4.22-45.39,23.31-12.6-4.99-1.31-18.26-1.31-23.99v-28.59Z" fill="#fff"/>
  <path d="M377.3,700.86c6.14,5.1,13.99,9.51,19.12,14.03.45.4,1.25,0,.83,1.51-24.91,2.28-52.58,4.91-76.17-4.36l.52-7.84,28.79-20.56,15.91,6.85c2.76,4.48,7.19,7.2,11,10.37Z" fill="#fff"/>
  <path d="M257.53,335.17c1.37.52,1.15,6.2,1.71,8.02.77,2.47,4.03,6.69,4.49,9.45,1.27,7.65-.62,18.73.02,26.93,1.88,24.11,18.16,37.42,39.46,20.68l-.65,19.06c-4.55.16-8.96-.61-13.51-.68-2.07-.03-5.38,1.3-7.22,1.02-.72-.11-10.66-6.89-12.1-7.94-7.7-5.6-14.14-12.98-21.73-18.71l.4-1.3c2.45-.92,8.18-.5,8.03-4.1-.06-1.49-5.75-17.51-6.77-20.27-.42-1.15-1.42-1.26-1.62-1.78-3.99-10.42-6.99-21.41-13.86-30.37h23.34Z" fill="#fff"/>
  <path d="M590.54,359.49c-5.64-4.92-12.23-9.09-19.72-10.53,8.35-6.4,10.21-14.69,11.87-24.48.09-.51,1.19-.52,1.24-.96,1.23-9.26-1.24-17.89-2.56-26.85-6.82-.93-13.37-2.44-18.78-6.86-1.77-1.45-4.63-6.55-6.95-6.26-7.36,5.49-16.34,6.78-24.99,9.15l-5.86,20.77c-.4.06-1.31-.86-1.31-.99v-10.52c0-2.48,5.18-14.65,6.68-16.98,12.05-18.74,45.01-16.96,56.31,1.98.64,1.07,4.06,9.79,4.06,10.4v62.11Z" fill="#fff"/>
  <path d="M479.05,280.99c3.81,6.34,5.13,11.28,4.31,19-.68,6.34-1.56,5.61-6.89,8.2-3.45-2.21-3.81-19.3-4.88-20.06-8.28,0-15.72-1.68-22.63-6.3-1.85-1.24-2.64-4-5.47-4.37-8.02,5.73-16.88,10.41-26.8,11.73l-2.35,9.82c-4.78-12.54,3.68-26.87,15.63-32.03,17.2-7.43,39.27-2.3,49.08,14Z" fill="#fff"/>
  <path d="M453.79,557.99c20.66,5.03,42.06,7.71,63.43,6.56,7.84-.42,24.79-4.65,30.91-3.95,1.23.14,2.42.34,3.29,1.33,4.24,7.46-9.31,10.68-14,11.65-20.01,4.14-57.36,4.11-76.7-2.48-8.28-2.82-6.94-4.67-6.94-13.11Z" fill="#fff"/>
  <path d="M357.8,368.04c3.58-3.95,9.33,18.63,10.05,19.53,1.92,2.38,10.42,3.8,11.31,5.45l2.3,21.03c-6.7-2.14-12.8-5.63-19-8.93-1.94-1.03-3.98-3.59-6.48-4.7-5.34-2.36-10.37-2.77-15.84-6.52-1.1-.75-11.41-10.23-8.98-10.08.94.85,7.68,6.71,6.89,2.31-.51-2.86-7.84-5.88-7.87-9.54,2.92-1.5,11.75,10.25,13.14,5.57.31-1.37-.34-1.5-1.07-2.2-1.88-1.81-8.12-5.57-9.47-7.62-.58-.89-1.18-1.02.01-2.01,3.34-2.22,11.26,8.67,15.13,8.23,1.99-2.13-8.71-8.87-9.86-11.16,4.39-2.6,18.32,9.45,19.38,9.2,2.09-.5-.42-6.82.35-8.54Z" fill="#fff"/>
  <path d="M590.54,398.93c-1.94-2.35-8.94-3.78-10.31-5.47-3.17-3.93-3.74-19.32-13.65-17.54-2.7.48-2.04,3.21-2.68,3.31-.49.08-9.08-2.72-9.51-2.99-.86-.53-3.39-6.71-4.72-8.43-5-6.49-13.24-10.14-19.62-14.88,2.82-1.07,6.07-2.55,9.05-.84,1.72.99,1.9,4.32,3.28,6.58,6.77,11.1,25.76,6.8,28.6-5.59,2.43-2.91,17.84,8.23,19.56,11.34v34.51Z" fill="#fff"/>
  <path d="M476.79,457.42c-19.59,4.1-31.51,21.16-46.67,32.21.23-6.41-7.02-19.99-6.64-25.31.15-2.03,6.08-8.69,6.09-12.04,10.15,1.35,20.18,1.94,30.45,1.18,7.48-.55,11.92-5.15,16.78,3.95Z" fill="#fff"/>
  <path d="M374.89,540.9c-16.33-1.45-29.47-9.91-40.35-21.65-2.9,5.71-20.83,22.74-26.45,22.9-1.6.05-.95-1.75-.93-2.91.14-6.86,3.92-15.97,9.21-20.38,19.29-16.08,50.62,1.44,58.53,22.03Z" fill="#fff"/>
  <path d="M569.31,413.58c2.67,1.47,8.04,7.02,11.41,9.29,1.45.98,9.43,4.61,9.7,5.09.49.85.33,7.94-.53,8.77-16.56,5.05-35.02,5.85-51.94,2.28l11.11-3.67c4.08-2.7,7.75-10.42,7.76-15.24.02-4.18-3.16-6.58-.46-11.32,3.54,2.77,9.48,2.88,12.96,4.8Z" fill="#fff"/>
  <path d="M416.97,724.28c-18.83,6.32-40.3,8.25-60.19,7.27-5.18-.25-35.31-3.94-36.3-8.32l.84-6.84c26.57,7.61,54.38,5.74,81.52,2.64l14.13,5.25Z" fill="#fff"/>
  <path d="M503.75,306.57c.03-.09,1.14-1.25,1.31-1.33,4.42-2.01.7,13.54,4.6,14.14,1.96-2.13-1.6-17.31,2.3-16.43s2.02,14.67,3.96,15.11c.64.15,1.63-.74,1.63-.98v-11.17l1.96-.98,1.18,15.3c-4.38,4.53-10.89,4.79-9.71,12.96,3.31-1.34,4.1-4.86,6.9-7.23,1.11-.94,2.89-.97,4.31-2.26,1.68-1.52,1.77-4.1,4.24-4.95,3.66.49-4.15,15.07-5.03,16.65-.78,1.39-4.14,4.31-4.4,5.49-.35,1.62,2.22,7.03,1.21,9.39l-18.76-.62c-1.69-2.63,1.73-8.85,1.69-11.55-.03-2.23-2.91-6.9-3.3-10.52-.62-5.68.31-11.75.65-17.41,2-.33,1.03.53,1.33,1.59.72,2.52.43,5.1.95,7.63l2.97-.34c.59-3.35-.8-9.57,0-12.49Z" fill="#fff"/>
  <path d="M590.54,424.56c-3.83-2.15-7.78-4.16-11.39-6.68-2.62-1.84-6-5.88-8.61-7.16-3.61-1.77-9.48-1.87-12.93-4.85-.96-1.38.26-10.84,3.36-11.22-1.58-2.4-4.22-3.26-3.29-7.55,15.09,6.17-3.19-6.31-1.98-7.23l12.16,4.6-.32-5.26c7.21,1.02,7.51,12.76,10.79,16.48,2.05,2.34,9.68,4.14,12.22,6.85v22.02Z" fill="#fff"/>
  <path d="M94.15,683.54c1.83-3.68-2.02-12.32-5.6-13.8-3.03-1.25,1.92,6.44,2.11,7.09.61,1.98,1.01,4.09.16,6.04l-15-4.02c-1.35-2.3,4.42-10.01,6.53-11.37,5.78-3.73,35.26-8.91,40.4-4.99.69.52,5.21,7.57,5.41,8.4,1.74,7.24-1.96,8.93-8.38,10.02.24-3.5.01-6.3-1.31-9.54-.84-2.06-4.75-7.8-5-2.9,4.9,7.91,6.77,15.64-5.53,15.08-.02-5.32-1.85-14.42-7.89-15.77,1.08,5.48,5.92,9.28,4.6,15.77h-10.52Z" fill="#fff"/>
  <path d="M451.15,554.7c-9.98-.22-20.18.98-29.86-2.02l-6.94-19.67c6.59,3.2,13.24,2.8,20.07.68,3.11-.97,13.03-6.98,14.75-6.29,1.34.92,1.77,1.68,2.03,3.28,1.19,7.27-1.36,16.73-.04,24.02Z" fill="#fff"/>
  <path d="M119.13,658.55c-15.49.37-42.5-.72-46.68,18.41-.78.8-10.24-5.66-10.53-7.59,2.87-12.68,14.78-18.97,26.96-21.01,12.39-2.08,24.04-2.6,30.25,10.2Z" fill="#fff"/>
  <path d="M226.31,669.73c.61-5.68-9.63-14.17-15.12-11.5,5.86,3,10.48,5.12,12.23,12.12.02,2.27-8.36,3.46-10.26,3.98.88-7.16-4.59-12.97-11.84-11.82l6.87,4.62,2.24,7.12c-1.15,1.85-22.21.27-25.55-.58,1.11-12.72,20.79-25.63,32.48-21.62,4.61,1.58,18.55,14.26,8.94,17.68Z" fill="#fff"/>
  <path d="M459.05,376.58l3.68,2.28c-3.47,10.27,2.13,20.25.25,30.58-12.82-2.77-24.13-8.87-32.85-18.73,2.58-2.79,9.08,6.23,11.16,4.27,1.5-3.1-12.11-9.84-10.51-11.17,5.77-1.77,8.52,7.97,13.14,4.91l-11.83-9.53c4.12-4.78,8.62,2.45,12.33,4.44,1.26.68,3.83,2.18,4.75.5-.02-1.27-8.52-6.18-9.86-7.88-2.4-3.05,5.56-.27,6.49.08,4.43,1.67,7.95,5.02,12.38,6.68,3.8-.81.34-3.83.87-6.44Z" fill="#fff"/>
  <path d="M590.54,541.56v49.3l-5.27,1.7c-3.74-5.2-6.86-11.51-13.14-14.2.21-1.53,3.05-1.49,3.31-2.41,1.16-4.04-1.08-12.94-.68-16.91.3-2.95,7.01-10.46,5.3-15.46l10.47-2.02Z" fill="#fff"/>
  <path d="M210.52,648.69c-13.97,1.03-25.75,10.49-29,24.28l-14.97-2.65c-1.48-12.9,16.78-29.73,29.02-28.03,4.24.59,11.65,3.51,14.95,6.4Z" fill="#fff"/>
  <path d="M381.46,427.19l-.65,6.91c-21.01,7.66-44.17,7.33-65.75,2.29l8.29-7.06c19.14,4.06,39.13,1.96,58.11-2.14Z" fill="#fff"/>
  <path d="M74.64,258.71c-6.27-8.41-2.96-23.18,7.5-26.59,12.03-3.93,7.23,5.91,6.77,12.68s-.57,13.39-.97,20.07c-1.84,2.75-11.78-4.13-13.29-6.16Z" fill="#fff"/>
  <path d="M387.13,603.76c-3.45,7.1-11.54,15.63-19.34,17.79-7.3,2.03-17.55.42-20.49-7.39,15.4-1.87,27.94-9,37.12-21.34,1.3,6.55,6.18,3.78,2.71,10.93Z" fill="#fff"/>
  <path d="M456.85,773.8c.92,1.05,2.61,5.29,2.79,6.75.77,6.19-5.39,18.96-13.09,16.7,2.63-11.62-5.99-23.05-16.29-27.74-1.1-6.9,3.74-6.98,8.93-5.32,1.91.61,16.75,8.57,17.66,9.61Z" fill="#fff"/>
  <path d="M451.15,557.99v12.16c0,4.47-5.87,20.86-7.17,25.83-.68,2.61-.89,5.96-1.39,8.68-.85-1.25-5.25-9.61-5.25-10.18v-36.48h13.81Z" fill="#fff"/>
  <path d="M526.76,453.49c-.85,19.46-33.11,32.23-38.13,8.54,6.93-.11,12.86,1.07,19.76-.29s12.07-5.29,18.37-8.25Z" fill="#fff"/>
  <path d="M467.18,446.01c.21.42,2.32,1.29,1.72,2.86-9.16,1.49-18.51,2.7-27.85,1.88-2.24-.2-10.59-.93-10.95-3.52l1.43-5.81,1.53-1.12,31.45.75c1.23.39,2.03,3.64,2.67,4.95Z" fill="#fff"/>
  <path d="M228.93,673.02c-1.32,4.34-7.88,6.01-11.81,6.92-17.71,4.09-39.83.39-57.07-4.78-2.85-.86-17.59-5.84-18.79-7.34-.73-.91-.43-1.67-.42-2.69,27.13,10.55,59.94,18.99,88.09,7.89Z" fill="#fff"/>
  <path d="M572.13,559.96v14.46l-14.46,8.54c-1.4-7-3.69-13.15-2.64-20.37h10.19c1.45,0,4.84-3.09,6.9-2.63Z" fill="#fff"/>
  <path d="M299.28,334.51c-1.76,6.43.85,19.17-.78,24.56-.38,1.26-7.73,6.76-9.08,8.31l-2.44-15.35c3.5-3.22,5.7-14.49,8.69-16.81,1.29-1,2.12-.78,3.6-.71Z" fill="#fff"/>
  <path d="M398.13,497.32c.24,1.65,2.38,6.63,2.61,9.54.06.75.84.93-.54,1.81l-6.86-8.25-4.64-46.29c1.28,2.88,1.92,5.92,3.37,8.78,1.08,2.13,4.83,6.51,5.15,8,1.38,6.53-.28,18.34.9,26.4Z" fill="#fff"/>
  <path d="M581.99,688.13c.73-9.35-4.25-17.93-9.87-24.97,9.99-2.91,21.39,5.62,18.05,16.39-.34,1.11-6.61,10.35-8.18,8.57Z" fill="#fff"/>
  <path d="M127.68,682.23c-4.02,5.37-15.05,7.26-21.46,7.79-18.82,1.56-44.37-4.99-53.49-22.91.65-.63,9.06,7.7,10.2,8.53,18.44,13.36,43.81,14.2,64.75,6.59Z" fill="#fff"/>
  <path d="M497.17,343.06l-.74,7.13c-3.04.22-8.39,3.11-10.93,3.25-3.62.2-14.8-7.55-19.89-6.45-.21-1.77.56-2.88,2.33-3.26,7.84-1.67,20.67,1.4,29.23-.68Z" fill="#fff"/>
  <path d="M462.98,347.66c.31,13.61-22.56,19.01-26.91,5.53l.82-.82c8.94,1.84,17.99-1.27,26.09-4.71Z" fill="#fff"/>
  <polygon points="434.06 557.33 434.39 587.58 422.87 557.02 434.06 557.33" fill="#fff"/>
  <path d="M356.48,343.72c-.2,11.56-19.47,18.5-25.63,7.54-.19-1.43.13-.78.97-.97,4.04-.87,8.34-.5,12.82-1.66,4.21-1.09,7.83-3.4,11.84-4.92Z" fill="#fff"/>
  <path d="M574.8,596.73c-.69-6.43-8.34-9.51-13.85-10.48l6.39-6.48c4.86-1.08,15.29,12.31,13.71,15.03-.5.87-5.53,2.48-6.25,1.93Z" fill="#fff"/>
  <path d="M568.18,350.95c-.58,9.2-12.78,13.75-20.33,9.47-1.33-.75-6.08-5.88-3-6.22,7.95,1.61,16.04.03,23.33-3.26Z" fill="#fff"/>
  <path d="M533.34,348.97c-5.29.48-6.88,4.85-12.42,1.91-1.25-7.51,0-10.26,3.88-16.36l1.58.7,6.95,13.75Z" fill="#fff"/>
  <path d="M419.93,343.71c.7.15,5.63,5,6.89,5.59l-9.84,4.93c.02-6.64-3.5-8.12-9.2-5.26l-.67-5.26c3.74.53,9.36-.72,12.82,0Z" fill="#fff"/>
  <path d="M467.21,781.87c.07.17.87.25,1,.74-.97,5.7-2.16,14.63-10.48,13.98,3.69-7.17,6.95-13.64,3.29-21.68,4.1.63,4.98,3.74,6.19,6.97Z" fill="#fff"/>
  <path d="M388.03,446.25c-3.21-7.69-4.55-17.5-3.27-26.28,7.48,5.56,3.9,4.88,3.29,11.51-.45,4.94-.45,9.89-.02,14.77Z" fill="#fff"/>
  <path d="M363.06,644.09c1.68-1.59,13.29-8.58,14.4-5.5.95,2.6-7.33,6.38-8.91,8.69l-5.49-3.19Z" fill="#fff"/>
  <path d="M394.61,596.77c-8.6-1-8.03-7.63-4.59-13.8l4.59,13.8Z" fill="#fff"/>
  <path d="M371.6,634.24c1.05.84-10.3,7-10.96,7.08-1.13.14-2.28-1.22-3.5-1.18-1.68-2.54,12.27-7.02,14.46-5.9Z" fill="#fff"/>
  <path d="M571.07,596.56c.22.37,1.33-.13,1.05.86l-7.92.37.04-6.93c4.47.06,5.04,2.65,6.83,5.7Z" fill="#fff"/>
  <path d="M471.54,788.7l-1.31-9.86c2.24,1.17,6.44,3.43,6.57,6.3.12,2.74-3.04,3.46-5.26,3.55Z" fill="#fff"/>
  <path d="M24.46,396.3c-.2,3.96-1.13,12.06-5.55,5.23-2.82-4.36,2.05-4.9,5.55-5.23Z" fill="#fff"/>
  <polygon points="363.05 337.14 363.05 343.71 357.81 341.41 363.05 337.14" fill="#fff"/>
  <path d="M474.82,790.68c-.86,2.86-4.14,3.54-6.57,4.59.86-3.38,2.96-5.34,6.57-4.59Z" fill="#fff"/>
  <path d="M561.6,589.54c.11.51-.48,8.47-1.96,6.57l-.66-6.58h2.62Z" fill="#fff"/>
  <path d="M80.36,409.44l.32-5.91c2.99,2.07,2.69,4.01-.32,5.91Z" fill="#fff"/>
  <path d="M372.25,651.98c-1.47-.07-1.43-3.22-.32-3.28l.32,3.28Z" fill="#fff"/>
  <path d="M590.53,686.82c-.7.99-2.38-.75-.32-1.96.59.02.38,1.88.32,1.96Z" fill="#fff"/>
  <path d="M388.69,451.51c-.33.49-1.11-.6-.64-1.31.33-.49,1.11.6.64,1.31Z" fill="#fff"/>
  <path d="M536.23,761.5c.13.24.91.35,1.24,1.08.94,2.05,3.82,12.54-.13,11.59-.75-.18-4.22-11.58-5.85-14.19-.87-1.39-2.27-3.32-3.38-4.51-1.49-1.6-3.98-.88-3.32-3.58,5.67-.04,8.99,5.29,11.43,9.6Z"/>
  <path d="M222.36,725.61c-4.59,7.75-6.42,14.18-6.49,23.28-.33.68-1.81.53-2.29.3-4.3-2.07,1.78-23.97,8.78-23.58Z"/>
  <path d="M548.83,758.85c-2.62,5.17-1.31,7.66-2.67,12.13-.26.85-.15,1.57-1.31,1.28-4.53-8.66,1.19-19.36,9.2-23.64.8.05.92,1.07.67,1.95-.32,1.09-4.71,5.97-5.88,8.27Z"/>
  <path d="M109.56,780.55c.28.9,1.97,2.3,1.06,5.07l-2.64,1.11c-1.48-6.36-3.89-12.92-7.9-18.09-1.12-1.45-3.57-1.8-3.28-4.26,6.82-.1,11.03,10.52,12.77,16.17Z"/>
  <path d="M209.86,749.92c-1.08.08-1.51.21-2.28-.68-.72-.83-3.1-10.06-4.77-12.94-1.14-1.97-5.23-5.48-6.1-7.09-.43-.8-.84-1.53.35-1.65,9.04,3.11,12.66,13.48,12.8,22.35Z"/>
  <path d="M114.54,785.41c-1.73-6.19-.56-13.36,3.92-18.09,2.6-2.75,7.24-4.4,4.1.16-1.98,2.89-3.67,3.26-4.94,7.55-.55,1.87-.95,11.79-3.08,10.38Z"/>
  <path d="M46.16,742.69c-1.68,2.08-4.59-8.84-5.04-9.67s-7.61-8.69-6.78-9.38c7.72,1.36,12.53,11.62,11.83,19.05Z"/>
  <path d="M56.02,722.98c-2.21,4.44-2.15,9.63-3.33,13.97-.11.4-2.31,1.34-1.27,3.78-2.69.95-2.73-3.35-2.68-5.6.09-4.11,2.2-11.98,7.28-12.15Z"/>
  <path d="M225.41,741.8c-.42.52-1.42.78-2.03,1.56-.32.4-3.76,8.06-4.96,6.56-.94-6.11,4.63-13.17,10.15-15.15,6.46-2.31-1.7,5.22-3.16,7.03Z"/>
  <path d="M249.09,512.85c1.23,2.34,1.85,4.67,1.54,7.35l-.99,1.63c-1.77.37-6.83-14.67-9.54-16.72l1.76-.47c.43.21.8.53,1.19.8.83.55,5.6,6.6,6.03,7.43Z"/>
  <path d="M131.62,770.96c1.2,1.27-4.81,6.31-5.79,7.68-1.31,1.82-3.67,8.73-5.7,8.09-5.01-1.57,7.33-16.71,11.49-15.77Z"/>
  <path d="M562.92,757.81c.19,3.22-3.46,3.98-5.26,6.24-1.42,1.79-4.65,9.85-6.24,9.53-1-.71-.95-1.02-.88-2.13.32-4.83,7.03-13.49,12.37-13.64Z"/>
  <path d="M261.15,502.78c.31,3.07-2.23,3.39-3.41,6.11-1.33,3.09-1.17,6.76-2.05,9.79-.25.87-.12,2.15-1.42,1.83-3.2-1.55.48-19.78,6.89-17.74Z"/>
  <path d="M65.88,727.58c-1.09,2.51-3.48,3.91-5.14,6.36-.87,1.29-4.31,9.9-6.03,8.09-1.99-3.8,7.66-17.3,11.17-14.45Z"/>
  <path d="M267.06,596.12l-3.94,16.43-1.92-.04c-2.08-1.54.5-17.29,5.87-16.39Z"/>
  <path d="M250.31,598.09c2.06-.36,11.03,13.03,7.22,15.76-.99-2.9-7.51-11.83-7.95-13.74-.2-.86-.16-1.86.73-2.01Z"/>
  <path d="M268.38,508.7l-7.31,12.08c-1.28,1.94-3.24,1.35-3.09-1.06.15-2.62,8.33-13.01,10.4-11.02Z"/>
  <path d="M274.95,602.03c1.02,1.04-8.08,9.59-8.21,11.81-3.2-4.93,3.18-11.32,8.21-11.81Z"/>
  <path d="M143.75,60.8c1.34,2.97,3.61,5.75,3.01,9.47,9.82-5.48,26.43-5.29,27.61,8.55,11.17-2.8,25.34,1.86,24.35,15.47-.32,4.34-2.41,7.18-6.45,8.68l-159.61.86c-9.2-.55-10.13-10.51-4.17-16.05s16.67-6.63,24.25-5.67c.26-13.13,18.16-17.79,28.26-11.84.97-23.17,28.83-34.37,48.46-25.76,8.4,3.68,10.73,8.4,14.29,16.29ZM143.56,76.09c-.81-21.55-13.8-34.04-35.77-30.63-9.9,1.54-21.78,11.96-23.42,21.93-.47,2.85,1,6.49-1.39,8.5-2.05,1.03-4.69-3.33-7.63-4.24-9.47-2.95-19.33,2.54-19.97,12.77-.95,1.17-18.76-1.3-25.03,7.19-.62.84-2.24,4.74-1.92,5.78,1.53,1.02,1.69,2.49,3.63,3.08,5.63,1.71,16.73-1.47,22.97.74l133.96-.87c12.24-2.16,6.05-19.77-8.28-19.29-3.36.11-5.98,2.15-9.03,1.42.56-12.05-13.25-15.47-21.87-9.47-2.8,1.95-2.71,5.23-6.26,3.07Z"/>
  <path d="M289.42,118.92c9.74-4.95,23.34-4.81,26.37,7.8,5.82-.24,15.49.31,17.7,6.95,2.66,8-2.09,9.71-8.88,10.25-33.77,2.68-71.08-2.07-105.22-.03-13.91-2.22-9.93-16.02-.81-21.84,6.98-4.46,12.91-4.44,20.86-2.48.91-29.97,48.02-30.7,49.98-.66ZM243.4,113.33c-.63,3.2.46,8.08,0,11.5-7.65-2.13-13.43-5.31-21.28-1.23-5.78,3-12.13,14.61-2.67,16.96,33.55-2.62,72.95,3.65,105.83.07,1.47-.16,2.91-.22,4.21-1.05,4.74-9.5-9.23-10.31-15.77-9.11-2.85-14.05-16.17-12.94-25.9-6.31-2.48-8.19-3.12-14.98-10.56-20.37-5.71-4.13-14.86-4.7-21.35-2.29-3.85,1.43-11.71,7.78-12.5,11.82Z"/>
  <path d="M361.73,69.63l-.95,2.44c-6.82-2.02-18.78-1.07-23.37,5.1-.89,1.2-1.89,4.84-2.36,4.98-2.56.71-3.08-2.35-4.94-3.59-5.28-3.51-12.29-5.45-18.63-4.31-1.64.3-5.8,3.75-6.94,2.59-2.04-2.09,5.18-5.56,6.95-5.87,6.88-1.17,16.74.68,21.65,5.86,6.03-9.34,18.72-10.36,28.59-7.2Z"/>
  <path d="M168.17,501.2c-8.52,24.72-29.66,58.6-50.69,74.52-2.26,1.71-10.65,9.07-9.4,2.76,5.54-3.51,11.98-8.52,16.65-13.25,20.31-20.56,33.85-47.35,43.81-73.88.56-1.48,1.5-10.28,3.85-8.62,1.92,1.36-3.28,15.74-4.23,18.47Z"/>
  <path d="M184.05,284.07c.68.73,1.74,3.07-.16,3.14-2.42.09-7.15-2.91-9.64-3.52-5.57-1.37-14.84-1.66-20.57-1.09-3.93.39-18.7,6.62-19.41,5.9-2.05-2.1,4.84-5.35,6.23-5.93,8.41-3.5,21.14-4.6,30.09-3.1,2.11.35,12.38,3.43,13.47,4.6Z"/>
  <path d="M487.31,614.52c1.06,3.59,1.4,7.33,2.55,10.91,5.51,17.24,12.86,34.97,23.1,50.37,1.41,2.12,5.16,5.23,6.03,7.97.3.94.85.76-.46,1.74-1.74.49-4.46-2.46-5.59-3.79-8.8-10.27-21.27-37.98-24.92-51.14-.33-1.2-4.75-18.9-.71-16.05Z"/>
  <path d="M367.65,758.47c1.42,1.31-11.58,8.68-12.69,9.32-7.07,4.06-17.49,9.53-24.98,12.49-1.65.65-20.79,7.65-20.82,4.15l58.5-25.96Z"/>
  <path d="M282.47,446c.11.27,1.76.55,1.01,2.19l-3.24.68c-1.29-8.23-8.98-8.95-13.83-13.45,8.17-2.99,13.23,3.77,16.06,10.59Z"/>
  <path d="M157.83,223.52c2.54,6.01-.86,9.28-6.8,9.76-3.67.3-22.12-2.67-25.59-3.99-5.72-2.18-.4-8.75,2.65-9.14,7.26-.93,21.24,5.56,29.75,3.37Z"/>
  <path d="M199.14,227.83c-1.57,2.23-18.53,6.06-21.8,6.14-2.85.07-5.03.07-6.96-2.28l.14-8.16c8,1.43,18.5-5.61,25.86-4.02,2.85.62,4.48,5.87,2.76,8.33Z"/>
  <path d="M143.75,238.92c3.25,3.43,3.89,12.72-.98,14.37-10.84,3.68-8.29-24.15.98-14.37Z"/>
  <path d="M191.26,237.42c2.33,3.92,1.6,16.32-5.9,14.14-4.6-1.34-3.97-17.05,1.16-17.03.97-.13,4.49,2.48,4.73,2.89Z"/>
  <path d="M493.89,406.82c.93,5.97-5.83,8.76-7.79,12.91-3.45,7.29,6.69,2.93,9.09,6.48,0,2.67-15.72,3.46-13.36-5.46.49-1.84,10.26-15.92,12.06-13.92Z"/>
  <path d="M503.72,438.99c-6.37,2.24-20.72,5.15-22.32-3.91,7.62,2.92,13.46,3.83,21.27.71l1.05,3.2Z"/>
  <path d="M507.65,406.86c.3,4.46,3.38,5.81,7.23,3.52,1.47-.88,3.23-5.46,5.01-2.93,3.11,4.45-9.81,11.07-14.17,4.96-1.85-2.59-2.26-6.38,1.94-5.55Z"/>
  <path d="M473.85,402.22c2.54.11,1.95,3.63,3.2,4.67,3.68,3.04,6.85-4.41,8.61-4.01,4.78,10.82-18,10.89-11.81-.66Z"/>
  <path d="M523.47,401.55c-.74.72-14.32-4.43-15.39-5.31-1.24-1.03-1.16-1.74-1.04-3.23,1.17-1.13,13.98,3.96,15.38,5.32,1.16,1.13,1.25,1.6,1.05,3.21Z"/>
  <path d="M472.2,393.66c-1.03-5.36,15.83-5.5,16.43-3.6.31.97-.1,1.82-1.09,2.18s-14.77,1.94-15.34,1.42Z"/>
  <path d="M337.41,566.54c-.15,9.92-10.47,19.61,7.23,17.75,3.1,2.88-11.96,6.36-13.66-1.13-.4-1.75-.09-3.13.16-4.82.22-1.53,3.98-14.24,6.27-11.79Z"/>
  <path d="M367.5,550.25c3.26,6.35-7.99,1.37-10.35.82-3.2-.75-13.28-.24-8.8-4.81,2.54-.83,18.45,2.63,19.15,3.99Z"/>
  <path d="M317.51,564.01c.55-.07,1.05-.25,1.53.17.23,10.6,12.53-2.77,13.09,2.03.59,5.07-18.84,10.81-16.97-.54.3-.82,1.54-1.55,2.35-1.66Z"/>
  <path d="M348.59,563.91c4.8-.17,4.95,4.77,10.49,2.92,2.56-.86,5.12-6.61,7.16-1.41-3.45,6.87-18.14,8.77-17.65-1.51Z"/>
  <path d="M353.2,592.17c2.97,2.93-7.35,5.01-9.06,5.07-2.14.08-13.37-.82-8.92-4.35,6.74,1.99,11.55-.1,17.97-.72Z"/>
  <path d="M329.52,548.15l-.81,1.47c-4.94-.25-10.63,3.72-14.8,4.29-.9.12-2.54.31-2.78-.84-.51-2.47,15.27-8.79,18.38-4.92Z"/>
  <path d="M439.97,307.56c.98,4.86-2.99,7.98-4.58,12.16.24,1.94,7.72-.42,6.55,3.27-.48,1.5-11.96,2.96-9.83-5.11.13-.51,5.07-7.86,5.77-8.81.6-.81.71-1.81,2.09-1.51Z"/>
  <path d="M449.52,304.94c3.02-.96,1.58,3.65,3.37,4.54,4.72,1.85,7.31-8.67,8.7-1.75-1.86,6.78-13.87,7.08-13.12-.51.08-.77.21-2.02,1.05-2.29Z"/>
  <path d="M447.86,329.91l-.12,3.16c-1.14,2.08-18.44,2.97-15.98-3.18,5.79,1.33,10.29,1.87,16.09.01Z"/>
  <path d="M433.2,309.34c-3.69,5.41-12.23,3.84-10.97-3.75,3.3-.76,3.3,2.4,5.57,3.77,2.37,0,3.32-5.53,5.26-5.08,1.68.39.98,3.83.13,5.06Z"/>
  <path d="M450.61,294.52c1.71-1.02,13.32,2.18,12.38,5.47-.25.89-1.3.99-2.14.89s-10.76-3.67-10.94-4.23c-.1-.29.53-2.03.71-2.13Z"/>
  <path d="M421.12,297.23c1.54-1.38,16.54-6.51,11.81-.33-2.62-.42-11.64,5.57-12.65,1.8-.02-.08.66-1.31.84-1.47Z"/>
  <path d="M533.34,386.43c-5.42,3.35-28.91-7.79-27.61-12.8,1.78-2.41,4.14,1.86,6.08,3.11,2.14,1.37,6.63,4.07,8.86,4.95,2.76,1.09,11.52,2.09,12.03,2.43.9.6.66,1.4.64,2.31Z"/>
  <path d="M333.99,326.8c3.92-.39,13.27,2.05,10.35,7.05-1.18,2.03-15.99,2.71-16.79-1-.95-4.39,2.74-5.69,6.45-6.06ZM341.35,331.23c-3.9-1.34-6.95-3.68-10.5.32.06,1.36,9.61,1.77,10.5-.32Z"/>
  <path d="M353.04,304.42c1.24,2.21-.74,10.38-3.98,9.63-5.27-1.21-3.26-15.88,3.98-9.63Z"/>
  <path d="M335.44,306.91c.79,6.6-8.12,9.76,1.3,13.47-13.43,3.88-7.77-6.05-3.01-12.24.55-.71.02-1.63,1.71-1.23Z"/>
  <path d="M358.45,298.35c-.55.57-15-3.22-14.46-5.57.62-2.7,17.75,2.19,14.46,5.57Z"/>
  <path d="M317.1,298.29c-1.94-3.24,8.49-5.84,10.82-5.87,3.29-.04,4.07,1.86,1.1,3.13-.54.23-9.44,3.03-9.95,3.13-.48.09-1.83-.16-1.97-.39Z"/>
  <path d="M321.73,303.72c5.49-3.35,6.18,8.1,2.06,9.02s-3.02-8.43-2.06-9.02Z"/>
  <path d="M557.54,339c-1.14,2-14.4,2.46-15.97-1.21-3.22-11.42,20.25-6.31,15.97,1.21ZM554.37,335.84c-1.17-1.46-9.79-3.43-9.85.64l9.53.67c.57.08.4-1.21.32-1.3Z"/>
  <path d="M551.08,310.85c.31,4.09-6.44,7.5-5.95,11.49.39,3.18,6.05-.08,5.29,4.28-17.17,3.23-2.32-18.75.66-15.77Z"/>
  <path d="M561.77,308.39c4.76-4.93,7.17,9.38,2.71,10.25-3.83.75-4.61-8.29-2.71-10.25Z"/>
  <path d="M541.72,306.41c1.85,1.91.45,7.93-2.16,8.41l-3.19-.62c-3.19-3.4,1.88-11.37,5.35-7.79Z"/>
  <path d="M573.44,305.58c-.61.61-14.83-4.54-14.46-6.23.75-3.44,17.38,3.31,14.46,6.23Z"/>
  <path d="M547.14,298.37l-1.08,3.18c-2.22-.91-12.91,2.09-13.38.41-1.08-3.92,11.97-4.36,14.45-3.59Z"/>
  <path d="M143.56,76.09c3.55,2.16,3.45-1.12,6.26-3.07,8.61-6,22.42-2.58,21.87,9.47,3.05.73,5.67-1.31,9.03-1.42,14.33-.48,20.52,17.13,8.28,19.29l-133.96.87c-6.25-2.22-17.34.96-22.97-.74-1.95-.59-2.11-2.05-3.63-3.08-.33-1.05,1.29-4.94,1.92-5.78,6.27-8.48,24.08-6.02,25.03-7.19.64-10.23,10.5-15.72,19.97-12.77,2.94.91,5.58,5.27,7.63,4.24,2.39-2.01.92-5.65,1.39-8.5,1.65-9.98,13.52-20.4,23.42-21.93,21.96-3.41,34.96,9.07,35.77,30.63Z" fill="#fff"/>
  <path d="M243.4,113.33c.79-4.04,8.66-10.39,12.5-11.82,6.49-2.41,15.64-1.84,21.35,2.29,7.44,5.38,8.07,12.18,10.56,20.37,9.73-6.63,23.04-7.74,25.9,6.31,6.54-1.21,20.52-.4,15.77,9.11-1.29.82-2.74.89-4.21,1.05-32.87,3.58-72.27-2.69-105.83-.07-9.46-2.35-3.12-13.95,2.67-16.96,7.85-4.08,13.63-.9,21.28,1.23.46-3.42-.63-8.3,0-11.5Z" fill="#fff"/>
  <path d="M341.35,331.23c-.89,2.09-10.43,1.68-10.5.32,3.55-4,6.59-1.66,10.5-.32Z" fill="#fff"/>
  <path d="M554.37,335.84c.08.1.24,1.38-.32,1.3l-9.53-.67c.06-4.07,8.68-2.1,9.85-.64Z" fill="#fff"/>
</svg>