<?xml version="1.0" encoding="UTF-8"?>
<svg id="Camada_1" xmlns="http://www.w3.org/2000/svg" version="1.1" viewBox="0 0 595.28 841.89">
  <!-- Generator: Adobe Illustrator 29.0.0, SVG Export Plug-In . SVG Version: 2.1.0 Build 186)  -->
  <g>
    <polygon points="594 838.89 594 842.89 2 842.89 2 192.89 3.47 642.9 3.68 706.9 3.7 712.6 4.12 839.77 594 838.89" fill="#fff"/>
    <polygon points="594 -1.11 594 5.89 2 6.89 2 -1.11 594 -1.11" fill="#fff"/>
    <path d="M231,835.89c3.16-34.88,37.39-69.65,73.48-67.97,12.2.57,22.68,6.08,33.59,10.58,22.07-29.94,57.53-41.84,93.89-34.65,6.66-35.88,38.05-60.82,74.99-49.41,6.9,2.13,11.95,6.9,18.34,8.33,14.5-23.22,37.42-38.71,64.71-42.88v176H231Z" fill="#fff"/>
    <path d="M425,120.89c-.2-23.67,21.4-42.44,44.03-29.45,3.36-19.53,12.13-39.43,34.48-41.53,27.33-2.58,37.1,15.81,43.01,38.97,11.26-12.89,29.54-16.77,43.48-5.49v59.5h-201c2.28-17.33,19.42-26.46,36-22Z" fill="#fff"/>
    <path d="M453.05,580.4c3.69-13.96,15.02-19.88,29.02-18.94,3.72-25.25,26.13-40.4,50.28-28.63,5.16-10.67,7.28-20.4,15.63-29.46,9.67-10.5,28.3-19.35,42.02-14.98v92.5l-136.95-.49Z" fill="#fff"/>
    <path d="M548.01,81.89c-8.01-50.69-76.36-47.35-81.01,3-22.58-7.37-44.33,7.32-45,31-19.06-3.09-38.38,10.97-37,31h205v170.79h-.69c0-.9-.15-1.93-.52-3.09-.95-3-4.83-2.91-5.56-3.93-1.01-1.42-.22-5.9-3.66-7.83-8.15-4.57-28.03,8.58-29.56,7.05,2.73-28.41-25.85,6.89-33.11,11.41-4.45,2.78-17.14,5.99-22.7,7.3-24.9,5.87-51.56,6.48-76.2-.71,5.38-7.38,6.39-14.82,4.32-23.81-1.12-4.85-5.45-9.31-6.22-14.77-1.22-8.61,3.19-15.52,1.83-23.85-1.09-6.69-8.69-14.98-10.25-21.74-1.78-7.7-.29-16.22-2.16-24.84-5.59-25.69-31.16-43.12-57.06-42.02-11.42.48-10.92.41-22.07-.85-16.88-1.9-30.11,5.53-40.9,17.88-12.57,14.39-11.39,26.08-18.01,41.99-3.07,7.39-11.96,17.92-13.25,24.75-1.46,7.73.87,17.62-.47,25.53-1.15,6.75-7.65,13.18-8.64,21.36-.8,6.61.94,10.99,1.76,17.25l-38.88,23.12L331.5,10.89h258.5v67c-13.75-9.04-30.07-6.96-41.99,4Z" fill="#fff"/>
    <path d="M520,371.9c-1.69-15.29-4.65-30.71-1.56-46.07.67-2.04,23.59-22.38,25.25-22.77,1.33-.32,1.97-.37,2.85.8,2.43,6.85-6.63,10.69-8.08,15.99-1.05,3.85.15,7.7-.68,11.32-.87,3.86-5.91,5.08-4.77,9.71,10.93-1.85,7.44-14.08,9.21-20.27,1.26-4.43,28.44-15.12,33.3-14.8,1.47.1,2.65.19,3.47,1.62,1.43,4.65-19.21,11.63-22.77,15.13-2.16,2.12-1.76,4.37,1.44,3.52,3.61-.96,26.97-17.29,28.28-8.56.81,5.45-27.94,14.34-28.96,16.87-.16.38-.33,2.54.55,2.51,5.21,1.7,19.85-10.55,26.46-10,2.48,10.59-23.17,15.23-24.95,18.04-.68,1.07.21,3.25,1.48,3.95l14.47-6c4.17,4.77-11.87,13.77-14.97,15.52-11.85,6.66-26.47,11.75-40.02,13.49Z" fill="#fff"/>
    <path d="M524.9,393.47c-1.14-1.98-4.55-16.85-3.9-17.58l9.52-1.96c1.91.22.43,6.47.18,8.16-.67,4.53-2.14,8.57-3.72,12.79-2.58.54-1.55-.48-2.08-1.41Z" fill="#fff"/>
    <path d="M375.52,606.87c.81,1.81,3.94,10.46,6.47,8.01-4.7-15.68-10.88-30.92-14.52-46.96-2.97-13.03-5.55-28.39-7.35-41.65-.92-6.84-.25-22.4-2.29-27.71-.78-2-2.01-1.81-3.82-1.66,3.69,35.12,6.94,77.45,21.51,109.97ZM249.01,463.89c47.49,14.15,99.67,13.73,146.98-1,10.22,45.98,16.55,92.73,24.31,139.2,1.12,6.75,5.55,21.08,5.5,26.6-.06,5.71-12.17,12.16-16.78,14.72-4.78,2.66-9.81,5.05-15.03,7.18-46.36,18.93-108.34,17.47-152.96-.23-7-2.77-24.14-9.6-23.94-17.8l31.92-168.67ZM272.99,494.89c-4.5-.95-4.31,4.26-4.86,7.63-4.92,28.61-6.86,58.47-6.34,87.85.06,3.07.14,6.13.25,9.19v.03c.21,6.14.54,12.24.96,18.31h.01l3.98-.02c-4.11-41.17.95-82.17,6-122.99Z" fill="#fff"/>
    <path d="M375.48,722.88c-4.34,4.59-3.5-12.68-3.35-14.36,1.4-15.77,10.1-31.07,3.87-47.59l19.05-7.74,17.94-7.3c.31,5.49,4.88,10.66,5.77,15.74,2.56,14.74-6.75,25.18-11.05,38.47-1.95,6.01-.56,14.93-6.7,18.79.63-2.31-.57-13.24-4.01-10.01-.92.88,2.47,16.56-6,14.01-.37-2.13.5-13.51,0-14-4.67-4.51-1.49,13.17-5.97,15.54-.95.5-1.69.68-2.27.6-4.31-.59.83-15.54.23-16.13-3.94-3.94-5.81,12.18-7.51,13.98Z" fill="#fff"/>
    <path d="M326.25,180.14c3.13.49,7.93,3.6,10.24,3.64,3.45.06,10.81-2.97,15.95-2.92,21.47.21,43.36,16.39,48.82,37.27,2.55,9.78.79,18.5,3.2,27.8,1.93,7.46,9.85,15.6,10.28,22.7.4,6.65-4.02,12.81-2.67,21.69,1.65,10.82,13.07,17.9,5.14,31.28-5.85,9.87-22.52-2.8-29.76-6.71.54-6.44.88-13.03.55-19.5-.13-2.68-2.3-5.76-1.84-7.79.38-1.68,4.11-3.89,5.27-5.78,5.02-8.18,7.08-15.59,1.4-24.26-4.79-7.32-7.26-3.94-10.66-5.84-3.14-1.77-5.51-23.48-6.7-27.8-13.1-6.1-25.48-5.02-34.89-18.11-2.1-2.91-6.34-15.2-8.06-14.91-1.25.2-7.12,9.01-8.89,10.62-2.2,2.02-7.87,5.69-10.59,6.91-5.88,2.64-23.75,4.93-26.1,8.16-4.26,5.83-5.27,30.76-7.62,39.12-4.94,17.57-23.79,35.18-17.57,56.56l-11.74,8.62c-5.86-15.95,7.47-25.56,8.03-40.45.18-4.71-1.21-8.93-1.06-12.98.4-11.15,10.47-20.83,14.52-30.57,2.69-6.44,3.23-14.23,5.45-20.55,6.95-19.82,26.5-39.83,49.3-36.2Z" fill="#fff"/>
    <path d="M300.52,460.87c29.04,2.15,63.78.5,90.99-9.95.78.1,3.41,6.98,3.33,7.5-.29,1.78-22.44,6.58-25.62,7.19-39.08,7.51-81.16,5.96-119.17-5.8l1.96-9.92c14.86,7.21,32.11,9.77,48.51,10.98Z" fill="#fff"/>
    <path d="M393.03,727.44c-3.77.83-7.19.49-10.58.05l.31-2.46c.58.08,1.32-.1,2.27-.6,4.48-2.37,1.3-20.05,5.97-15.54.5.49-.37,11.87,0,14,8.47,2.55,5.08-13.13,6-14.01,3.44-3.23,4.64,7.7,4.01,10.01,6.14-3.86,4.75-12.78,6.7-18.79,4.3-13.29,13.61-23.73,11.05-38.47-.89-5.08-5.46-10.25-5.77-15.74l-17.94,7.3-1.06-2.6c5.22-2.13,10.25-4.52,15.03-7.18,4.61-2.56,16.72-9.01,16.78-14.72.05-5.52-4.38-19.85-5.5-26.6-7.76-46.47-14.09-93.22-24.31-139.2l2.63-.7c1.78,6.37,4.01,13.13,5.08,18.5,9.88,49.71,15.71,100.16,26.18,149.76-2.32,6.65-8.89,9.72-13.79,14.04-.22.94,6.15,14.7,6.67,18.14,2.18,14.48-5.35,21.37-9.81,33.71-2.49,6.9-2.84,20.47-8.88,25.12-.66.51-10.43,5.84-11.04,5.98Z"/>
    <path d="M158.99,807.88l-.14-3.85c-25.23-7.91-46.83-24.25-64.49-43.5-2.36-2.57-8.13-12.23-10.85-12.66-5.76-.89,4.86,11.34,5.56,12.2,17.31,21.25,43.43,40.48,69.92,47.81ZM209.66,694.81c7.46-2.83,14.37-3.44,22.34-2.91-2.55,6.29-9.98,19.1-5.07,25.3,1.42,1.79,4.51,1.49,6.34,2.71,1.79,1.19,2.56,3.15,5.72,4.5.74.32,14.58,3.54,15.51,3.54,8.77.04,18.31-21.51,23.08-27.98,7.38-10.03,20.49-18.43,20.43-32.07,24.7-.21,49.68,1.9,73.52-5.84,9.73,14.94-10.32,50.79-1.39,63.19,3.6,4.99,5.11,1.41,8.42,1.75,1.3.13,2.59.32,3.89.49,3.39.44,6.81.78,10.58-.05.61-.14,10.38-5.47,11.04-5.98,6.04-4.65,6.39-18.22,8.88-25.12,4.46-12.34,11.99-19.23,9.81-33.71-.52-3.44-6.89-17.2-6.67-18.14,4.9-4.32,11.47-7.39,13.79-14.04-10.47-49.6-16.3-100.05-26.18-149.76-1.07-5.37-3.3-12.13-5.08-18.5-1.23-4.36-2.24-8.53-2.52-11.93-.53-6.4,2.36-10.73,2.93-16.84,1.17-12.53-.94-26.8-.02-39.52,33,15.08,75.1,22.39,110.79,13.29,20.54-5.25,23.66-13.63,26.19-33.81,8.81-3.48,41.74-16.41,43.01-26.09.29-2.24-1.25-5.07-.55-6.39.85-1.6,7.89-4.87,9.12-8.97,1.34-4.45-1.41-6.23-1.3-7.55.09-1.04,3.04-2.7,3.04-6.7h.69v166.21c-27.27-4.5-53.66,17.87-59.02,44-22.76-11.13-47.43,4.95-51.93,28.55-15.47.51-32.6,12.68-29.05,29.45h140v70c-26.69,3.51-51.47,19.27-65.6,42.08-40.85-26.24-84.36-2.23-96.34,41.44-33.19-6.66-70.92,6.16-90.18,34.4-28.7-15.48-57.2-12.62-81.89,8.57-16.87,14.47-24.69,32.45-30.49,53.51H30l70.65-190.88c18.72,1.22,32.78,15.43,42.95,29.8,23.81-17.97,55.21-6.56,66.06,20ZM220.46,758.93c3.78.13,13.61,1.42,11.03-4.05-45.79.16-86.13-13.98-120.13-44.35-.47-.42-6.23-8.73-6.4-3.11-.12,4.09,16.14,17.02,20.13,19.88,25.87,18.55,63.55,30.48,95.37,31.63Z" fill="#fff"/>
    <path d="M362.99,244.88c-5.39-.65-8.3-6.77-13.96-7.59-4.33-.63-8.03,3.26-11.01.1,6.3-9.35,24.22-1.93,24.97,7.49Z"/>
    <path d="M375.52,606.87c-14.57-32.52-17.82-74.85-21.51-109.97,1.81-.15,3.04-.34,3.82,1.66,2.04,5.31,1.37,20.87,2.29,27.71,1.8,13.26,4.38,28.62,7.35,41.65,3.64,16.04,9.82,31.28,14.52,46.96-2.53,2.45-5.66-6.2-6.47-8.01Z"/>
    <path d="M338.76,254.16c1.35,1.65.42,6.03,4.8,6.74,8.21,1.35,7.81-5.92,13.45-5.5,1.98,6.59-13.18,14.12-19.44,6.42-4.26-5.26-2-11.59,1.19-7.66Z"/>
    <path d="M292.01,237.88c8.14-3.87,11.66-6.43,20.98-3l-.15-3.84c-6.94-3.88-20.71-2.85-20.83,6.84ZM338.02,237.39c2.98,3.16,6.68-.73,11.01-.1,5.66.82,8.57,6.94,13.96,7.59-.75-9.42-18.67-16.84-24.97-7.49ZM337.57,261.82c6.26,7.7,21.42.17,19.44-6.42-5.64-.42-5.24,6.85-13.45,5.5-4.38-.71-3.45-5.09-4.8-6.74-3.19-3.93-5.45,2.4-1.19,7.66ZM306.04,273.43c-7.94-1.08-26.88,9.02-25.97-5.89l10.44-48.64c15.79-3.68,31.59-6.11,40.98-21.01,7.98,17.92,22.15,24.74,40.54,28.47l5.94,26.06c-6.44,7.69-5.86,18.43-12.42,26.05-9.92,11.51-22.67-3.83-34.55-2.59,6.32-13.04-8.4,1.81-11.3,3.21-21.08,10.2-2.79-16.12-1.49-21.51.27-1.13,1.43-3.36-.73-3.68-2.39-.36-9.56,16.77-11.44,19.53ZM302.84,255.24c-11.37,3.54-8.89-7.39-9.84-8.36-3.31-3.34-4.82,6.81-.68,10.68,4.48,4.18,15.31,2.29,17.52-3.34,2.19-5.59-6.04.72-7,1.02Z" fill="#fff"/>
    <path d="M291.01,286.9c1.18.1,2.73-.4,3.77.22.6.35,1.55,3.54,2.83,4.67,9.31,8.24,21.97,9.96,33.68,5.89,3.73-1.3,8.37-5.44,10.24-5.77,4.39-.78,2.48,2.67.42,4.43-14.12,12.12-45.01,9.97-50.94-9.44Z"/>
    <path d="M292.01,237.88c.12-9.69,13.89-10.72,20.83-6.84l.15,3.84c-9.32-3.43-12.84-.87-20.98,3Z"/>
    <path d="M292.32,257.56c-4.14-3.87-2.63-14.02.68-10.68.95.97-1.53,11.9,9.84,8.36.96-.3,9.19-6.61,7-1.02-2.21,5.63-13.04,7.52-17.52,3.34Z"/>
    <path d="M291.01,286.9c5.93,19.41,36.82,21.56,50.94,9.44,2.06-1.76,3.97-5.21-.42-4.43-1.87.33-6.51,4.47-10.24,5.77-11.71,4.07-24.37,2.35-33.68-5.89-1.28-1.13-2.23-4.32-2.83-4.67-1.04-.62-2.59-.12-3.77-.22ZM315.47,367.85c-4.47-.77-5.09,9.55-18.46,4.53-9.72-3.65-6.88-13.51-8.96-15.08-10.36,2.17-18.47-4.82-19.96-15-1.04-7.15,1.3-14.87.98-20.9-.18-3.3-2.46-4.53-2.97-7.11-3.13-15.61,1.21-28.33,9.41-41.39,1.83-.84,2.2,3.63,3.96,5.02,7.24,5.74,19.11-1.91,24.86.13,3.67,1.3,1.14,9.77,14.12,5.78,2.62-.8,4.59-3.14,7.28-3.7,17.54-3.69,31.09,19.15,45.27-1.74,3.95-5.8,5.8-28.77,16.7-21.18,8.44,5.87,3.68,29.16-8.69,26.69,8.76,12.65,6.9,39.76-7.28,48.24-1.36.81-4.48.58-4.68.8-1.06,1.17,2.62,18.81-8.56,26.94-6.07,4.41-12.64,2.03-14.35,3.15-.69.44-1.07,5.09-1.93,6.57-5.97,10.31-22.69,10.13-26.74-1.75Z" fill="#fff"/>
    <path d="M268.13,502.52c.55-3.37.36-8.58,4.86-7.63-5.05,40.82-10.11,81.82-6,122.99l-3.98.02c-.42-6.07-.75-12.18-.97-18.31v-.03c-.11-3.06-.19-6.12-.25-9.19-.52-29.38,1.42-59.24,6.34-87.85Z"/>
    <path d="M284.78,362.1c2.39,1.8,1.9,12.01,12.5,15.01,9.68,2.74,16.27-3.42,17.15-3.21.82.2,1.8,2.87,3.23,3.83,7.36,4.97,18.37,4.66,24.88-1.8,2.61-2.6,4.17-8.62,4.57-8.92,1.1-.81,9.68.47,15.92-5.59,8.94-8.68,6.42-23,8.13-25.38.25-.34,5.1-1.84,7.37-4.12,3.63-3.64,4.7-9.13,7.97-13.01,38.76,23.48,86.71,22.49,128.5,7.99-2.94,23.12.68,47.96,6.89,70.33-25.53,13.53-62.55,11.47-90.1,4.37-12.7-3.27-24.73-9.69-36.78-13.71-.91,12.91,5.29,51.79-5.66,59.85-6.13,4.52-38.17,8.6-46.87,9.13-15.95.96-79.19.08-89.51-11.45-5.14-5.74-2.62-29.66-1.95-38.01,1.13-14.27,4.03-28.85,6-43.04-.02-1.27-1.16-2.79-2.5-2.47-2.75.64-5.76,35.26-6.56,40.2-30.91,25.87-68.5,39.51-108.96,40.78,3.41-22.18,4.63-47.92-7-67.98,32.11-3.42,63.45-14.02,91.3-30.21,14.1-8.21,26.2-19.27,40.69-26.8,1.82,12.48-3.09,25.75,5.47,37.06,4.87,6.43,12.74,5.2,15.32,7.15Z" fill="#fff"/>
    <path d="M263.01,617.9h-.01c-.42-6.07-.75-12.17-.96-18.31.22,6.13.55,12.24.97,18.31Z"/>
    <path d="M261.79,590.37c.06,3.07.14,6.13.25,9.19-.11-3.06-.19-6.12-.25-9.19Z"/>
    <path d="M213.05,636.34c.66,7.94,25.62,17.45,32.82,19.68.4,4.62.41,8.88-.82,13.42-.47,1.77-9.63,16.95-10.47,17.52-2.5,1.71-18-.69-22.92,2.83-10.08-20.04-32.16-32.5-54.62-26.36-3.29.89-11.25,6-13.35,5.53-6.18-9.6-14.79-17.05-24.67-22.59l-17.05-6.99,71.11-195.91c11.14-3.42,22.55-6.04,33.28-10.72,14.33-6.26,27.9-15.92,40.63-24.86.99,8.54-1.41,17.08-1.02,25.54.38,8.09,2.8,10.53,1.75,19.69-2.51,21.8-10.28,47.41-14.44,69.55-7.11,37.82-13.63,75.76-20.23,113.67Z" fill="#fff"/>
    <path d="M241,719.89c-3.3.86-4.82-2.52-4.69-5.35.09-2.12,5.13-9.28,2.17-9.65-3.48-.43-6.37,8.23-6.49,11-5.93-7.26,2.61-20.46,6.49-28.02,5.1-9.94,13.23-17.1,11.53-29.98l44.99,9.01c-.75,12.36-11.88,18.98-18.41,28.08-2.08,2.88-18.95,33.64-23.58,28.9-1.06-.8,4.26-13.51.51-11.98-3.5,1.42-4.45,13.02-7.51,10.98-2.96-2.58,2.66-14.54-.53-14.98-3.39-.47-4.73,9.74-4.48,11.99Z" fill="#fff"/>
    <path d="M231.49,754.88c2.58,5.47-7.25,4.18-11.03,4.05-31.82-1.15-69.5-13.08-95.37-31.63-3.99-2.86-20.25-15.79-20.13-19.88.17-5.62,5.93,2.69,6.4,3.11,34,30.37,74.34,44.51,120.13,44.35Z"/>
    <path d="M161.73,62.12c-6.21,1.86-11.91,6.93-11.73,13.76l64.05.57c4.72-14.18-13.05-12.19-17.1-15.01-3.35-2.33.09-16.55-15.47-15.63-12.25.73-9.96,13.98-12.42,15.64-1.6,1.07-5.16,0-7.33.67ZM208.7,59.69c8.53,3.93,11.28,11.09,10.3,20.2h-72c-3.3-7.81,2.73-17.53,9.99-20.51,2.65-1.09,8.54-1.33,8.9-1.6.5-.39,1.94-8.05,5.12-11.38,7.12-7.44,19.83-6.25,25.44,2.54,1.5,2.36,2.2,7.38,3.57,8.43,1.34,1.04,6.29,1.23,8.68,2.32Z"/>
    <path d="M240.95,107.34c1.9-4.99,5.1-3.69,3.61,1.6l-45.58,136.95c-4.7,2.99-1.01-9.01-.7-10.22,10.88-42.36,31.31-85.67,42.67-128.33Z"/>
    <path d="M196.95,61.44c4.05,2.82,21.82.83,17.1,15.01l-64.05-.57c-.18-6.83,5.52-11.9,11.73-13.76,2.17-.66,5.73.4,7.33-.67,2.46-1.66.17-14.91,12.42-15.64,15.56-.92,12.12,13.3,15.47,15.63Z" fill="#fff"/>
    <path d="M165.99,226.89c-4.36,1.11-3.14-2.72-2.86-6.37.61-8.07,6.35-37.63,8.95-45.05,1.62-4.65,4.05-4.56,3.83.77-.62,15.22-8.79,34.93-9.92,50.65Z"/>
    <path d="M126.04,428.45l11.95-5.55c-.68,16.56-3.54,27.39-11.95,5.55Z" fill="#fff"/>
    <path d="M134.52,128.87c2.69,3.92-.13,83.61,1.48,95.03-1.17-.12-2.17.53-3.1-.6-3.02-3.69-.32-83.95-1.89-95.41,1.41-.04,2.57-.38,3.51.98Z"/>
    <path d="M111.51,461.9c1.77-.56,3.39.55,3.51,2.48-3.56,12.84-.87,30.73-4.07,42.96-1.2,4.63-4.06,2.7-3.98-1.89.14-8.76,2.18-19.2,3.01-28.08.29-3.03-1.11-14.64,1.53-15.47Z"/>
    <path d="M144.37,242.02c32.65,5.13,64.52,36.92,69.18,69.81,1.57,11.09-8.12,28.89-11.83,39.78-12.8,4.76-25.39,10.48-38.72,13.78-8.51,2.1-31.45,6.81-39.03,5.02s-27.4-15.88-34.03-14.13c-10.33,2.73,1.99,19.21,7.06,21.6-12.63,1.46-22.89,9.32-34.33,13.92-49.05-62.85-2.41-163,81.7-149.78Z" fill="#fff"/>
    <path d="M93,396.39c.05-.2.08-.38.11-.56-.02.27-.07.48-.11.56Z" fill="#fff"/>
    <path d="M92.49,393.88c.41,0,.58.49.63,1.04-.1-.69-.52-1.04-1.17-1.14.2.02.38.05.54.1Z" fill="#fff"/>
    <path d="M121.87,373.52c16.26,9.25,13.67,25.5,16.13,41.86-.71,6.32-32.94,16.81-39.63,17.38-2.63.23-12.47,1.68-11.24-3.21.01-2.6,24.84-10.41,16.32-12.65-4.41-1.15-25.11,15.09-28.31,9.85-5.1-8.36,23.89-15.48,23.84-18.36-.04-2-3.77-1.3-5.04-1.07-6.09,1.07-23.91,14.51-28.35,10.68-8.97-7.71,26.36-19.59,27.41-21.61.04-.08.09-.29.11-.56,0-.07.02-.14.02-.22.02-.2.02-.39,0-.56,0-.05,0-.09-.01-.13-.05-.55-.22-1.04-.63-1.04-.16-.05-.34-.08-.54-.1-.8-.12-1.95.14-3.35.64-.25.09-.51.19-.78.29-2.75,1.07-6.16,2.88-9.56,4.63-.31.16-.63.32-.95.48-4.37,2.18-8.66,4.12-11.42,4.15-2.1-.04-3.28-1.28-2.91-4.52.92-6.22,34.46-20.67,40.4-18.63,2.79,7.38,6.05,16.74,15.62,16.06.11-4.19-5.43-4.77-8.43-9.06-2.22-3.17-2.48-7.16-5.01-9.99-4.67-5.2-16.9-7.32-15.55-16.93,1.82-1.79,28.29,10.59,31.86,12.62Z" fill="#fff"/>
    <polygon points="64.94 178.94 85.81 232.63 84.48 235.88 61.14 181.21 64.94 178.94"/>
    <path d="M158.85,804.03l.14,3.85c-26.49-7.33-52.61-26.56-69.92-47.81-.7-.86-11.32-13.09-5.56-12.2,2.72.43,8.49,10.09,10.85,12.66,17.66,19.25,39.26,35.59,64.49,43.5Z"/>
    <path d="M106.97,505.45c-.08,4.59,2.78,6.52,3.98,1.89,3.2-12.23.51-30.12,4.07-42.96-.12-1.93-1.74-3.04-3.51-2.48-2.64.83-1.24,12.44-1.53,15.47-.83,8.88-2.87,19.32-3.01,28.08ZM136,223.9c-1.61-11.42,1.21-91.11-1.48-95.03-.94-1.36-2.1-1.02-3.51-.98,1.57,11.46-1.13,91.72,1.89,95.41.93,1.13,1.93.48,3.1.6ZM217.99,307.89c-2.56.41-1.56-.24-2.09-1.4-9.66-21.04-10.37-32.59-29.89-49.11-34.26-28.2-71.08-26.77-99.35-9.4-1.29.79-2.56,1.62-3.81,2.48-3.76,2.56-7.35,5.42-10.74,8.53-1.13,1.04-2.23,2.1-3.32,3.19-6.51,6.54-12.19,14.04-16.82,22.23-.77,1.36-1.51,2.74-2.22,4.14-.36.7-.71,1.41-1.05,2.12-1.02,2.12-1.97,4.28-2.85,6.48-.59,1.47-1.14,2.95-1.66,4.44-1.3,3.74-2.4,7.56-3.26,11.45-5.87,26.36-1.37,55.72,18.64,81.8.04.17.07.34.09.52t0,.01c.07.73-.02,1.5-.16,2.32-.04.29-.09.58-.14.88-.07.42-.14.85-.19,1.29-.15,1.25-.18,2.62.26,4.12.69,2.41,4.47,3.29,4.51,4.41,0,.35-2.86,2.75-3.01,6.02-.46,10.05,9.53,7.95,10.07,8.48.18.18-.16,3.61.44,5.05,2.89,6.96,10.57,2.22,11.51,2.99.18.14-.07,2.37,1.03,3.45,6.67,6.56,30.94-1.5,39.01-4.49,5.36,26.01,27.49,14.46,46,14.49L25,835.89H7l-.8-123.3c25.71-16.75,45.28-40.27,59.77-67.21-.85-1.28-2.46-2.12-3.85-1.36-1.2.65-11.72,19.61-14.31,23.18-11.11,15.34-24.89,30.7-41.81,39.69v-56.5c11.4-12.09,25.67-23.3,32.03-38.99-.52-6.44-9.07,8.75-10.06,9.96-6.22,7.56-13.49,16.75-21.97,21.53v-154.5l47-70.98-2.69-.73L6,480.89v-62c4.05-3.32,33.73-27.23,34.06-29.46.1-.69.3-2.5-.57-2.55l-33.49,27.01v-43c3.66-1.2,22.48-4.37,22.99-7.52.23-1.38-.87-2.28-2.26-2.3-4.61-.06-15.34,5.4-20.73,5.82v-33c5.2-.38,19.21,4.78,19-3H6v-37c5.81,2.18,13.92,7.56,19.74,8.76,1.21.25,3.69,1.25,3.27-1.26-.56-3.4-19.29-9.32-23.01-11.5v-42l31.01,27.5c1.24,1.13,3.76.21,3.98-1.02.43-2.33-31.33-28.21-34.99-31.98v-65.5l52.49,75.01,1.53-1.51L6,169.39v-33.5h89.5c1.06-3.47,1.34-6.95.98-10.3l2.09-.23,10.93,99.55,2.52-.61L90,10.89h236l-108.01,297ZM244.56,108.94c1.49-5.29-1.71-6.59-3.61-1.6-11.36,42.66-31.79,85.97-42.67,128.33-.31,1.21-4,13.21.7,10.22l45.58-136.95ZM219,79.89c.98-9.11-1.77-16.27-10.3-20.2-2.39-1.09-7.34-1.28-8.68-2.32-1.37-1.05-2.07-6.07-3.57-8.43-5.61-8.79-18.32-9.98-25.44-2.54-3.18,3.33-4.62,10.99-5.12,11.38-.36.27-6.25.51-8.9,1.6-7.26,2.98-13.29,12.7-9.99,20.51h72ZM175.91,176.24c.22-5.33-2.21-5.42-3.83-.77-2.6,7.42-8.34,36.98-8.95,45.05-.28,3.65-1.5,7.48,2.86,6.37,1.13-15.72,9.3-35.43,9.92-50.65ZM85.81,232.63l-20.87-53.69-3.8,2.27,23.34,54.67,1.33-3.25ZM38.52,553.88l34.47-97.98c-2.43-.31-3.16,1.71-4.04,3.44-12.89,25.4-18.7,64.08-31.24,90.78l.81,3.76Z" fill="#fff"/>
    <path d="M87.82,394.71c-2.69,1.08-6.12,2.89-9.56,4.63,3.4-1.75,6.81-3.56,9.56-4.63Z" fill="#fff"/>
    <path d="M72.99,455.9l-34.47,97.98-.81-3.76c12.54-26.7,18.35-65.38,31.24-90.78.88-1.73,1.61-3.75,4.04-3.44Z"/>
    <path d="M16.96,83.44c21.09-9.85,39.36-.73,40.09,23.4,18.51-6.64,35.89,4.27,35.95,24.05H6V55.89c7.37,7.2,8.49,18.05,10.96,27.55Z" fill="#fff"/>
    <path d="M65.89,403.97c-2.22.02-3.45-1.19-2.91-4.52-.37,3.24.81,4.48,2.91,4.52Z" fill="#fff"/>
    <path d="M62.12,644.02c1.39-.76,3,.08,3.85,1.36-14.49,26.94-34.06,50.46-59.77,67.21h-2.5s-.02-5.69-.02-5.69h2.32c16.92-9,30.7-24.36,41.81-39.7,2.59-3.57,13.11-22.53,14.31-23.18Z"/>
    <path d="M96.48,125.59c-1.71-15.97-18.08-29.03-35.54-24.12-3.45-21.19-21.64-32.23-41.93-23.58,4.37-7.6-13.01-26.9-13.01-28.5V10.89h80l12.57,114.47-2.09.23Z" fill="#fff"/>
    <path d="M59.66,395.37c.08.73-.02,1.5-.16,2.32.14-.82.23-1.59.16-2.32Z" fill="#fff"/>
    <path d="M59.36,398.57c-.07.41-.14.84-.19,1.29.05-.44.12-.87.19-1.29Z" fill="#fff"/>
    <path d="M51.97,284.41c-.77,1.36-1.51,2.74-2.22,4.14.71-1.4,1.45-2.78,2.22-4.14Z" fill="#fff"/>
    <path d="M48.7,290.67c-1.02,2.12-1.97,4.29-2.85,6.48.88-2.2,1.83-4.36,2.85-6.48Z" fill="#fff"/>
    <path d="M44.19,301.59c-1.3,3.74-2.39,7.56-3.26,11.45.86-3.89,1.96-7.71,3.26-11.45Z" fill="#fff"/>
    <path d="M40.93,313.04c-5.87,26.35-1.36,55.72,18.65,81.8.04.17.07.34.08.52-.02-.18-.05-.35-.09-.52-20.01-26.08-24.51-55.44-18.64-81.8Z" fill="#fff"/>
    <path d="M27.97,621.36c.99-1.21,9.54-16.4,10.06-9.96-6.36,15.69-20.63,26.9-32.03,38.99v56.5h-2.32s-.21-63.99-.21-63.99h2.53c8.48-4.79,15.75-13.98,21.97-21.54Z"/>
    <path d="M542.22,320.61c-1.77,6.19,1.72,18.42-9.21,20.27-1.14-4.63,3.9-5.85,4.77-9.71.83-3.62-.37-7.47.68-11.32,1.45-5.3,10.51-9.14,8.08-15.99-.88-1.17-1.52-1.12-2.85-.8-1.66.39-24.58,20.73-25.25,22.77-3.09,15.36-.13,30.78,1.56,46.07,13.55-1.74,28.17-6.83,40.02-13.49,3.1-1.75,19.14-10.75,14.97-15.52l-14.47,6c-1.27-.7-2.16-2.88-1.48-3.95,1.78-2.81,27.43-7.45,24.95-18.04-6.61-.55-21.25,11.7-26.46,10-.88.03-.71-2.13-.55-2.51,1.02-2.53,29.77-11.42,28.96-16.87-1.31-8.73-24.67,7.6-28.28,8.56-3.2.85-3.6-1.4-1.44-3.52,3.56-3.5,24.2-10.48,22.77-15.13-.82-1.43-2-1.52-3.47-1.62-4.86-.32-32.04,10.37-33.3,14.8ZM524.9,393.47c.53.93-.5,1.95,2.08,1.41,1.58-4.22,3.05-8.26,3.72-12.79.25-1.69,1.73-7.94-.18-8.16l-9.52,1.96c-.65.73,2.76,15.6,3.9,17.58ZM546.52,88.88c-5.91-23.16-15.68-41.55-43.01-38.97-22.35,2.1-31.12,22-34.48,41.53-22.63-12.99-44.23,5.78-44.03,29.45-16.58-4.46-33.72,4.67-36,22h201v-59.5c-13.94-11.28-32.22-7.4-43.48,5.49ZM57.05,106.84c-.73-24.13-19-33.25-40.09-23.4-2.47-9.5-3.59-20.35-10.96-27.55v75h87c-.06-19.78-17.44-30.69-35.95-24.05ZM93.94,407.32c1.27-.23,5-.93,5.04,1.07.05,2.88-28.94,10-23.84,18.36,3.2,5.24,23.9-11,28.31-9.85,8.52,2.24-16.31,10.05-16.32,12.65-1.23,4.89,8.61,3.44,11.24,3.21,6.69-.57,38.92-11.06,39.63-17.38-2.46-16.36.13-32.61-16.13-41.86-3.57-2.03-30.04-14.41-31.86-12.62-1.35,9.61,10.88,11.73,15.55,16.93,2.53,2.83,2.79,6.82,5.01,9.99,3,4.29,8.54,4.87,8.43,9.06-9.57.68-12.83-8.68-15.62-16.06-5.94-2.04-39.48,12.41-40.4,18.63-.54,3.33.69,4.54,2.91,4.52,2.73.06,7.02-1.92,11.42-4.15.32-.16.64-.32.95-.48,3.44-1.74,6.87-3.55,9.56-4.63.27-.1.53-.2.78-.29,1.34-.47,2.48-.72,3.35-.64.65.1,1.07.45,1.17,1.14.01.04.01.08.01.13.01.19.01.38,0,.56,0,.08-.01.15-.02.22-.03.18-.06.36-.11.56-1.05,2.02-36.38,13.9-27.41,21.61,4.44,3.83,22.26-9.61,28.35-10.68ZM213.55,311.83c-4.66-32.89-36.53-64.68-69.18-69.81-84.11-13.22-130.75,86.93-81.7,149.78,11.44-4.6,21.7-12.46,34.33-13.92-5.07-2.39-17.39-18.87-7.06-21.6,6.63-1.75,26.45,12.34,34.03,14.13s30.52-2.92,39.03-5.02c13.33-3.3,25.92-9.02,38.72-13.78,3.71-10.89,13.4-28.69,11.83-39.78ZM250.05,459.81c38.01,11.76,80.09,13.31,119.17,5.8,3.18-.61,25.33-5.41,25.62-7.19.08-.52-2.55-7.4-3.33-7.5-27.21,10.45-61.95,12.1-90.99,9.95-16.4-1.21-33.65-3.77-48.51-10.98l-1.96,9.92ZM233.28,522.67c4.16-22.14,11.93-47.75,14.44-69.55,1.05-9.16-1.37-11.6-1.75-19.69-.39-8.46,2.01-17,1.02-25.54-12.73,8.94-26.3,18.6-40.63,24.86-10.73,4.68-22.14,7.3-33.28,10.72l-71.11,195.91,17.05,6.99c9.88,5.54,18.49,12.99,24.67,22.59,2.1.47,10.06-4.64,13.35-5.53,22.46-6.14,44.54,6.32,54.62,26.36,4.92-3.52,20.42-1.12,22.92-2.83.84-.57,10-15.75,10.47-17.52,1.23-4.54,1.22-8.8.82-13.42-7.2-2.23-32.16-11.74-32.82-19.68,6.6-37.91,13.12-75.85,20.23-113.67ZM238.48,704.89c2.96.37-2.08,7.53-2.17,9.65-.13,2.83,1.39,6.21,4.69,5.35-.25-2.25,1.09-12.46,4.48-11.99,3.19.44-2.43,12.4.53,14.98,3.06,2.04,4.01-9.56,7.51-10.98,3.75-1.53-1.57,11.18-.51,11.98,4.63,4.74,21.5-26.02,23.58-28.9,6.53-9.1,17.66-15.72,18.41-28.08l-44.99-9.01c1.7,12.88-6.43,20.04-11.53,29.98-3.88,7.56-12.42,20.76-6.49,28.02.12-2.77,3.01-11.43,6.49-11ZM215.9,306.49c.53,1.16-.47,1.81,2.09,1.4L326,10.89H90l22.02,213.41-2.52.61-10.93-99.55-12.57-114.47H6v38.5c0,1.6,17.38,20.9,13.01,28.5,20.29-8.65,38.48,2.39,41.93,23.58,17.46-4.91,33.83,8.15,35.54,24.12.36,3.35.08,6.83-.98,10.3H6v33.5l54.02,81-1.53,1.51L6,176.89v65.5c3.66,3.77,35.42,29.65,34.99,31.98-.22,1.23-2.74,2.15-3.98,1.02l-31.01-27.5v42c3.72,2.18,22.45,8.1,23.01,11.5.42,2.51-2.06,1.51-3.27,1.26-5.82-1.2-13.93-6.58-19.74-8.76v37h19c.21,7.78-13.8,2.62-19,3v33c5.39-.42,16.12-5.88,20.73-5.82,1.39.02,2.49.92,2.26,2.3-.51,3.15-19.33,6.32-22.99,7.52v43l33.49-27.01c.87.05.67,1.86.57,2.55-.33,2.23-30.01,26.14-34.06,29.46v62l44.31-64.21,2.69.73L6,488.39v154.5h-2.53s-1.47-450-1.47-450V6.89l592-1v833l-589.88.88-.42-127.17h2.5s.8,123.29.8,123.29h18l143.99-391.51c-18.51-.03-40.64,11.52-46-14.49-8.07,2.99-32.34,11.05-39.01,4.49-1.1-1.08-.85-3.31-1.03-3.45-.94-.77-8.62,3.97-11.51-2.99-.6-1.44-.26-4.87-.44-5.05-.54-.53-10.53,1.57-10.07-8.48.15-3.27,3.01-5.67,3.01-6.02-.04-1.12-3.82-2-4.51-4.41-.44-1.5-.41-2.87-.26-4.12.05-.45.12-.88.19-1.29.05-.3.1-.59.14-.88.14-.82.24-1.59.16-2.32t0-.01c0-.18-.04-.35-.08-.52-20.01-26.08-24.52-55.45-18.65-81.8.87-3.89,1.96-7.71,3.26-11.45.52-1.49,1.07-2.97,1.66-4.44.88-2.19,1.83-4.36,2.85-6.48.34-.71.69-1.42,1.05-2.12.71-1.4,1.45-2.78,2.22-4.14,4.63-8.19,10.31-15.69,16.82-22.23,1.08-1.09,2.19-2.15,3.32-3.19,3.39-3.11,6.98-5.97,10.74-8.53,1.25-.86,2.52-1.69,3.81-2.48,28.27-17.37,65.09-18.8,99.35,9.4,19.52,16.52,20.23,28.07,29.89,49.11ZM332.52,190.9c1.72-.29,5.96,12,8.06,14.91,9.41,13.09,21.79,12.01,34.89,18.11,1.19,4.32,3.56,26.03,6.7,27.8,3.4,1.9,5.87-1.48,10.66,5.84,5.68,8.67,3.62,16.08-1.4,24.26-1.16,1.89-4.89,4.1-5.27,5.78-.46,2.03,1.71,5.11,1.84,7.79.33,6.47-.01,13.06-.55,19.5,7.24,3.91,23.91,16.58,29.76,6.71,7.93-13.38-3.49-20.46-5.14-31.28-1.35-8.88,3.07-15.04,2.67-21.69-.43-7.1-8.35-15.24-10.28-22.7-2.41-9.3-.65-18.02-3.2-27.8-5.46-20.88-27.35-37.06-48.82-37.27-5.14-.05-12.5,2.98-15.95,2.92-2.31-.04-7.11-3.15-10.24-3.64-22.8-3.63-42.35,16.38-49.3,36.2-2.22,6.32-2.76,14.11-5.45,20.55-4.05,9.74-14.12,19.42-14.52,30.57-.15,4.05,1.24,8.27,1.06,12.98-.56,14.89-13.89,24.5-8.03,40.45l11.74-8.62c-6.22-21.38,12.63-38.99,17.57-56.56,2.35-8.36,3.36-33.29,7.62-39.12,2.35-3.23,20.22-5.52,26.1-8.16,2.72-1.22,8.39-4.89,10.59-6.91,1.77-1.61,7.64-10.42,8.89-10.62ZM280.07,267.54c-.91,14.91,18.03,4.81,25.97,5.89,1.88-2.76,9.05-19.89,11.44-19.53,2.16.32,1,2.55.73,3.68-1.3,5.39-19.59,31.71,1.49,21.51,2.9-1.4,17.62-16.25,11.3-3.21,11.88-1.24,24.63,14.1,34.55,2.59,6.56-7.62,5.98-18.36,12.42-26.05l-5.94-26.06c-18.39-3.73-32.56-10.55-40.54-28.47-9.39,14.9-25.19,17.33-40.98,21.01l-10.44,48.64ZM255.99,782.38c24.69-21.19,53.19-24.05,81.89-8.57,19.26-28.24,56.99-41.06,90.18-34.4,11.98-43.67,55.49-67.68,96.34-41.44,14.13-22.81,38.91-38.57,65.6-42.08v-70h-140c-3.55-16.77,13.58-28.94,29.05-29.45,4.5-23.6,29.17-39.68,51.93-28.55,5.36-26.13,31.75-48.5,59.02-44V146.89h-205c-1.38-20.03,17.94-34.09,37-31,.67-23.68,22.42-38.37,45-31,4.65-50.35,73-53.69,81.01-3,11.92-10.96,28.24-13.04,41.99-4V10.89h-258.5l-123.5,336.99,38.88-23.12c-.82-6.26-2.56-10.64-1.76-17.25.99-8.18,7.49-14.61,8.64-21.36,1.34-7.91-.99-17.8.47-25.53,1.29-6.83,10.18-17.36,13.25-24.75,6.62-15.91,5.44-27.6,18.01-41.99,10.79-12.35,24.02-19.78,40.9-17.88,11.15,1.26,10.65,1.33,22.07.85,25.9-1.1,51.47,16.33,57.06,42.02,1.87,8.62.38,17.14,2.16,24.84,1.56,6.76,9.16,15.05,10.25,21.74,1.36,8.33-3.05,15.24-1.83,23.85.77,5.46,5.1,9.92,6.22,14.77,2.07,8.99,1.06,16.43-4.32,23.81,24.64,7.19,51.3,6.58,76.2.71,5.56-1.31,18.25-4.52,22.7-7.3,7.26-4.52,35.84-39.82,33.11-11.41,1.53,1.53,21.41-11.62,29.56-7.05,3.44,1.93,2.65,6.41,3.66,7.83.73,1.02,4.61.93,5.56,3.93.37,1.16.52,2.19.52,3.09,0,4-2.95,5.66-3.04,6.7-.11,1.32,2.64,3.1,1.3,7.55-1.23,4.1-8.27,7.37-9.12,8.97-.7,1.32.84,4.15.55,6.39-1.27,9.68-34.2,22.61-43.01,26.09-2.53,20.18-5.65,28.56-26.19,33.81-35.69,9.1-77.79,1.79-110.79-13.29-.92,12.72,1.19,26.99.02,39.52-.57,6.11-3.46,10.44-2.93,16.84.28,3.4,1.29,7.57,2.52,11.93l-2.63.7c-47.31,14.73-99.49,15.15-146.98,1l-31.92,168.67c-.2,8.2,16.94,15.03,23.94,17.8,44.62,17.7,106.6,19.16,152.96.23l1.06,2.6-19.05,7.74c6.23,16.52-2.47,31.82-3.87,47.59-.15,1.68-.99,18.95,3.35,14.36,1.7-1.8,3.57-17.92,7.51-13.98.6.59-4.54,15.54-.23,16.13l-.31,2.46c-1.3-.17-2.59-.36-3.89-.49-3.31-.34-4.82,3.24-8.42-1.75-8.93-12.4,11.12-48.25,1.39-63.19-23.84,7.74-48.82,5.63-73.52,5.84.06,13.64-13.05,22.04-20.43,32.07-4.77,6.47-14.31,28.02-23.08,27.98-.93,0-14.77-3.22-15.51-3.54-3.16-1.35-3.93-3.31-5.72-4.5-1.83-1.22-4.92-.92-6.34-2.71-4.91-6.2,2.52-19.01,5.07-25.3-7.97-.53-14.88.08-22.34,2.91-10.85-26.56-42.25-37.97-66.06-20-10.17-14.37-24.23-28.58-42.95-29.8l-70.65,190.88h195.5c5.8-21.06,13.62-39.04,30.49-53.51ZM314.43,373.9c-.88-.21-7.47,5.95-17.15,3.21-10.6-3-10.11-13.21-12.5-15.01-2.58-1.95-10.45-.72-15.32-7.15-8.56-11.31-3.65-24.58-5.47-37.06-14.49,7.53-26.59,18.59-40.69,26.8-27.85,16.19-59.19,26.79-91.3,30.21,11.63,20.06,10.41,45.8,7,67.98,40.46-1.27,78.05-14.91,108.96-40.78.8-4.94,3.81-39.56,6.56-40.2,1.34-.32,2.48,1.2,2.5,2.47-1.97,14.19-4.87,28.77-6,43.04-.67,8.35-3.19,32.27,1.95,38.01,10.32,11.53,73.56,12.41,89.51,11.45,8.7-.53,40.74-4.61,46.87-9.13,10.95-8.06,4.75-46.94,5.66-59.85,12.05,4.02,24.08,10.44,36.78,13.71,27.55,7.1,64.57,9.16,90.1-4.37-6.21-22.37-9.83-47.21-6.89-70.33-41.79,14.5-89.74,15.49-128.5-7.99-3.27,3.88-4.34,9.37-7.97,13.01-2.27,2.28-7.12,3.78-7.37,4.12-1.71,2.38.81,16.7-8.13,25.38-6.24,6.06-14.82,4.78-15.92,5.59-.4.3-1.96,6.32-4.57,8.92-6.51,6.46-17.52,6.77-24.88,1.8-1.43-.96-2.41-3.63-3.23-3.83ZM288.05,357.3c2.08,1.57-.76,11.43,8.96,15.08,13.37,5.02,13.99-5.3,18.46-4.53,4.05,11.88,20.77,12.06,26.74,1.75.86-1.48,1.24-6.13,1.93-6.57,1.71-1.12,8.28,1.26,14.35-3.15,11.18-8.13,7.5-25.77,8.56-26.94.2-.22,3.32.01,4.68-.8,14.18-8.48,16.04-35.59,7.28-48.24,12.37,2.47,17.13-20.82,8.69-26.69-10.9-7.59-12.75,15.38-16.7,21.18-14.18,20.89-27.73-1.95-45.27,1.74-2.69.56-4.66,2.9-7.28,3.7-12.98,3.99-10.45-4.48-14.12-5.78-5.75-2.04-17.62,5.61-24.86-.13-1.76-1.39-2.13-5.86-3.96-5.02-8.2,13.06-12.54,25.78-9.41,41.39.51,2.58,2.79,3.81,2.97,7.11.32,6.03-2.02,13.75-.98,20.9,1.49,10.18,9.6,17.17,19.96,15ZM590,835.89v-176c-27.29,4.17-50.21,19.66-64.71,42.88-6.39-1.43-11.44-6.2-18.34-8.33-36.94-11.41-68.33,13.53-74.99,49.41-36.36-7.19-71.82,4.71-93.89,34.65-10.91-4.5-21.39-10.01-33.59-10.58-36.09-1.68-70.32,33.09-73.48,67.97h359ZM590,580.89v-92.5c-13.72-4.37-32.35,4.48-42.02,14.98-8.35,9.06-10.47,18.79-15.63,29.46-24.15-11.77-46.56,3.38-50.28,28.63-14-.94-25.33,4.98-29.02,18.94l136.95.49ZM137.99,422.9l-11.95,5.55c8.41,21.84,11.27,11.01,11.95-5.55Z"/>
  </g>
  <g>
    <line x1="2" y1="192.89" x2="2" y2="6.89" fill="none" stroke="#000" stroke-linecap="round" stroke-linejoin="round" stroke-width="2"/>
    <line x1="594" y1="5.89" x2="594" y2="838.89" fill="none" stroke="#000" stroke-linecap="round" stroke-linejoin="round" stroke-width="2"/>
    <path d="M82.85,250.46c1.25-.86,2.52-1.69,3.81-2.48" fill="none" stroke="#000" stroke-linecap="round" stroke-linejoin="round" stroke-width="2"/>
    <path d="M68.79,262.18c1.08-1.09,2.19-2.15,3.32-3.19" fill="none" stroke="#000" stroke-linecap="round" stroke-linejoin="round" stroke-width="2"/>
    <path d="M93.13,395.05c.01.19.01.38,0,.56" fill="none" stroke="#000" stroke-linecap="round" stroke-linejoin="round" stroke-width="2"/>
    <path d="M88.6,394.42c1.34-.47,2.48-.72,3.35-.64" fill="none" stroke="#000" stroke-linecap="round" stroke-linejoin="round" stroke-width="2"/>
    <path d="M65.89,403.97c2.73.06,7.02-1.92,11.42-4.15" fill="none" stroke="#000" stroke-linecap="round" stroke-linejoin="round" stroke-width="2"/>
    <polygon points="2 6.89 2 -1.11 594 -1.11 594 5.89 2 6.89" fill="none" stroke="#000" stroke-linecap="round" stroke-linejoin="round" stroke-width="2"/>
    <polygon points="2 192.89 3.47 642.9 3.68 706.9 3.7 712.6 4.12 839.77 594 838.89 594 842.89 2 842.89 2 192.89" fill="none" stroke="#000" stroke-linecap="round" stroke-linejoin="round" stroke-width="2"/>
    <path d="M589.31,317.68c0-.9-.15-1.93-.52-3.09-.95-3-4.83-2.91-5.56-3.93-1.01-1.42-.22-5.9-3.66-7.83-8.15-4.57-28.03,8.58-29.56,7.05,2.73-28.41-25.85,6.89-33.11,11.41-4.45,2.78-17.14,5.99-22.7,7.3-24.9,5.87-51.56,6.48-76.2-.71,5.38-7.38,6.39-14.82,4.32-23.81-1.12-4.85-5.45-9.31-6.22-14.77-1.22-8.61,3.19-15.52,1.83-23.85-1.09-6.69-8.69-14.98-10.25-21.74-1.78-7.7-.29-16.22-2.16-24.84-5.59-25.69-31.16-43.12-57.06-42.02-11.42.48-10.92.41-22.07-.85-16.88-1.9-30.11,5.53-40.9,17.88-12.57,14.39-11.39,26.08-18.01,41.99-3.07,7.39-11.96,17.92-13.25,24.75-1.46,7.73.87,17.62-.47,25.53-1.15,6.75-7.65,13.18-8.64,21.36-.8,6.61.94,10.99,1.76,17.25l-38.88,23.12L331.5,10.89h258.5v67c-13.75-9.04-30.07-6.96-41.99,4-8.01-50.69-76.36-47.35-81.01,3-22.58-7.37-44.33,7.32-45,31-19.06-3.09-38.38,10.97-37,31h205v337c-27.27-4.5-53.66,17.87-59.02,44-22.76-11.13-47.43,4.95-51.93,28.55-15.47.51-32.6,12.68-29.05,29.45h140v70c-26.69,3.51-51.47,19.27-65.6,42.08-40.85-26.24-84.36-2.23-96.34,41.44-33.19-6.66-70.92,6.16-90.18,34.4-28.7-15.48-57.2-12.62-81.89,8.57-16.87,14.47-24.69,32.45-30.49,53.51H30l70.65-190.88c18.72,1.22,32.78,15.43,42.95,29.8,23.81-17.97,55.21-6.56,66.06,20,7.46-2.83,14.37-3.44,22.34-2.91-2.55,6.29-9.98,19.1-5.07,25.3,1.42,1.79,4.51,1.49,6.34,2.71,1.79,1.19,2.56,3.15,5.72,4.5.74.32,14.58,3.54,15.51,3.54,8.77.04,18.31-21.51,23.08-27.98,7.38-10.03,20.49-18.43,20.43-32.07,24.7-.21,49.68,1.9,73.52-5.84,9.73,14.94-10.32,50.79-1.39,63.19,3.6,4.99,5.11,1.41,8.42,1.75,1.3.13,2.59.32,3.89.49,3.39.44,6.81.78,10.58-.05.61-.14,10.38-5.47,11.04-5.98,6.04-4.65,6.39-18.22,8.88-25.12,4.46-12.34,11.99-19.23,9.81-33.71-.52-3.44-6.89-17.2-6.67-18.14,4.9-4.32,11.47-7.39,13.79-14.04-10.47-49.6-16.3-100.05-26.18-149.76-1.07-5.37-3.3-12.13-5.08-18.5-1.23-4.36-2.24-8.53-2.52-11.93-.53-6.4,2.36-10.73,2.93-16.84,1.17-12.53-.94-26.8-.02-39.52,33,15.08,75.1,22.39,110.79,13.29,20.54-5.25,23.66-13.63,26.19-33.81,8.81-3.48,41.74-16.41,43.01-26.09.29-2.24-1.25-5.07-.55-6.39.85-1.6,7.89-4.87,9.12-8.97,1.34-4.45-1.41-6.23-1.3-7.55.09-1.04,3.04-2.7,3.04-6.7Z" fill="none" stroke="#000" stroke-linecap="round" stroke-linejoin="round" stroke-width="2"/>
    <path d="M96.48,125.59c-1.71-15.97-18.08-29.03-35.54-24.12-3.45-21.19-21.64-32.23-41.93-23.58,4.37-7.6-13.01-26.9-13.01-28.5V10.89h80l12.57,114.47,10.93,99.55,2.52-.61L90,10.89h236l-108.01,297c-2.56.41-1.56-.24-2.09-1.4-9.66-21.04-10.37-32.59-29.89-49.11-34.26-28.2-71.08-26.77-99.35-9.4-1.29.79-2.56,1.62-3.81,2.48-3.76,2.56-7.35,5.42-10.74,8.53-1.13,1.04-2.23,2.1-3.32,3.19-6.51,6.54-12.19,14.04-16.82,22.23-.77,1.36-1.51,2.74-2.22,4.14-.36.7-.71,1.41-1.05,2.12-1.02,2.12-1.97,4.29-2.85,6.48-.59,1.47-1.14,2.95-1.66,4.44-1.3,3.74-2.39,7.56-3.26,11.45-5.87,26.35-1.36,55.72,18.65,81.8.04.17.07.34.08.52t0,.01c.08.73-.02,1.5-.16,2.32-.04.29-.09.58-.14.88-.07.41-.14.84-.19,1.29-.15,1.25-.18,2.62.26,4.12.69,2.41,4.47,3.29,4.51,4.41,0,.35-2.86,2.75-3.01,6.02-.46,10.05,9.53,7.95,10.07,8.48.18.18-.16,3.61.44,5.05,2.89,6.96,10.57,2.22,11.51,2.99.18.14-.07,2.37,1.03,3.45,6.67,6.56,30.94-1.5,39.01-4.49,5.36,26.01,27.49,14.46,46,14.49L25,835.89H7l-.8-123.3c25.71-16.75,45.28-40.27,59.77-67.21-.85-1.28-2.46-2.12-3.85-1.36-1.2.65-11.72,19.61-14.31,23.18-11.11,15.34-24.89,30.7-41.81,39.69v-56.5c11.4-12.09,25.67-23.3,32.03-38.99-.52-6.44-9.07,8.75-10.06,9.96-6.22,7.56-13.49,16.75-21.97,21.53v-154.5l47-70.98-2.69-.73L6,480.89v-62c4.05-3.32,33.73-27.23,34.06-29.46.1-.69.3-2.5-.57-2.55l-33.49,27.01v-43c3.66-1.2,22.48-4.37,22.99-7.52.23-1.38-.87-2.28-2.26-2.3-4.61-.06-15.34,5.4-20.73,5.82v-33c5.2-.38,19.21,4.78,19-3H6v-37c5.81,2.18,13.92,7.56,19.74,8.76,1.21.25,3.69,1.25,3.27-1.26-.56-3.4-19.29-9.32-23.01-11.5v-42l31.01,27.5c1.24,1.13,3.76.21,3.98-1.02.43-2.33-31.33-28.21-34.99-31.98v-65.5l52.49,75.01,1.53-1.51L6,169.39v-33.5h89.5c1.06-3.47,1.34-6.95.98-10.3Z" fill="none" stroke="#000" stroke-linecap="round" stroke-linejoin="round" stroke-width="2"/>
    <path d="M590,659.89v176H231c3.16-34.88,37.39-69.65,73.48-67.97,12.2.57,22.68,6.08,33.59,10.58,22.07-29.94,57.53-41.84,93.89-34.65,6.66-35.88,38.05-60.82,74.99-49.41,6.9,2.13,11.95,6.9,18.34,8.33,14.5-23.22,37.42-38.71,64.71-42.88Z" fill="none" stroke="#000" stroke-linecap="round" stroke-linejoin="round" stroke-width="2"/>
    <path d="M395.99,462.89c10.22,45.98,16.55,92.73,24.31,139.2,1.12,6.75,5.55,21.08,5.5,26.6-.06,5.71-12.17,12.16-16.78,14.72-4.78,2.66-9.81,5.05-15.03,7.18-46.36,18.93-108.34,17.47-152.96-.23-7-2.77-24.14-9.6-23.94-17.8l31.92-168.67c47.49,14.15,99.67,13.73,146.98-1Z" fill="none" stroke="#000" stroke-linecap="round" stroke-linejoin="round" stroke-width="2"/>
    <path d="M263.99,317.89c1.82,12.48-3.09,25.75,5.47,37.06,4.87,6.43,12.74,5.2,15.32,7.15,2.39,1.8,1.9,12.01,12.5,15.01,9.68,2.74,16.27-3.42,17.15-3.21.82.2,1.8,2.87,3.23,3.83,7.36,4.97,18.37,4.66,24.88-1.8,2.61-2.6,4.17-8.62,4.57-8.92,1.1-.81,9.68.47,15.92-5.59,8.94-8.68,6.42-23,8.13-25.38.25-.34,5.1-1.84,7.37-4.12,3.63-3.64,4.7-9.13,7.97-13.01,38.76,23.48,86.71,22.49,128.5,7.99-2.94,23.12.68,47.96,6.89,70.33-25.53,13.53-62.55,11.47-90.1,4.37-12.7-3.27-24.73-9.69-36.78-13.71-.91,12.91,5.29,51.79-5.66,59.85-6.13,4.52-38.17,8.6-46.87,9.13-15.95.96-79.19.08-89.51-11.45-5.14-5.74-2.62-29.66-1.95-38.01,1.13-14.27,4.03-28.85,6-43.04-.02-1.27-1.16-2.79-2.5-2.47-2.75.64-5.76,35.26-6.56,40.2-30.91,25.87-68.5,39.51-108.96,40.78,3.41-22.18,4.63-47.92-7-67.98,32.11-3.42,63.45-14.02,91.3-30.21,14.1-8.21,26.2-19.27,40.69-26.8Z" fill="none" stroke="#000" stroke-linecap="round" stroke-linejoin="round" stroke-width="2"/>
    <path d="M245.87,656.02c.4,4.62.41,8.88-.82,13.42-.47,1.77-9.63,16.95-10.47,17.52-2.5,1.71-18-.69-22.92,2.83-10.08-20.04-32.16-32.5-54.62-26.36-3.29.89-11.25,6-13.35,5.53-6.18-9.6-14.79-17.05-24.67-22.59l-17.05-6.99,71.11-195.91c11.14-3.42,22.55-6.04,33.28-10.72,14.33-6.26,27.9-15.92,40.63-24.86.99,8.54-1.41,17.08-1.02,25.54.38,8.09,2.8,10.53,1.75,19.69-2.51,21.8-10.28,47.41-14.44,69.55-7.11,37.82-13.63,75.76-20.23,113.67.66,7.94,25.62,17.45,32.82,19.68Z" fill="none" stroke="#000" stroke-linecap="round" stroke-linejoin="round" stroke-width="2"/>
    <path d="M201.72,351.61c-12.8,4.76-25.39,10.48-38.72,13.78-8.51,2.1-31.45,6.81-39.03,5.02s-27.4-15.88-34.03-14.13c-10.33,2.73,1.99,19.21,7.06,21.6-12.63,1.46-22.89,9.32-34.33,13.92-49.05-62.85-2.41-163,81.7-149.78,32.65,5.13,64.52,36.92,69.18,69.81,1.57,11.09-8.12,28.89-11.83,39.78Z" fill="none" stroke="#000" stroke-linecap="round" stroke-linejoin="round" stroke-width="2"/>
    <path d="M590,142.89h-201c2.28-17.33,19.42-26.46,36-22-.2-23.67,21.4-42.44,44.03-29.45,3.36-19.53,12.13-39.43,34.48-41.53,27.33-2.58,37.1,15.81,43.01,38.97,11.26-12.89,29.54-16.77,43.48-5.49v59.5Z" fill="none" stroke="#000" stroke-linecap="round" stroke-linejoin="round" stroke-width="2"/>
    <path d="M387.7,257.21c8.44,5.87,3.68,29.16-8.69,26.69,8.76,12.65,6.9,39.76-7.28,48.24-1.36.81-4.48.58-4.68.8-1.06,1.17,2.62,18.81-8.56,26.94-6.07,4.41-12.64,2.03-14.35,3.15-.69.44-1.07,5.09-1.93,6.57-5.97,10.31-22.69,10.13-26.74-1.75-4.47-.77-5.09,9.55-18.46,4.53-9.72-3.65-6.88-13.51-8.96-15.08-10.36,2.17-18.47-4.82-19.96-15-1.04-7.15,1.3-14.87.98-20.9-.18-3.3-2.46-4.53-2.97-7.11-3.13-15.61,1.21-28.33,9.41-41.39,1.83-.84,2.2,3.63,3.96,5.02,7.24,5.74,19.11-1.91,24.86.13,3.67,1.3,1.14,9.77,14.12,5.78,2.62-.8,4.59-3.14,7.28-3.7,17.54-3.69,31.09,19.15,45.27-1.74,3.95-5.8,5.8-28.77,16.7-21.18Z" fill="none" stroke="#000" stroke-linecap="round" stroke-linejoin="round" stroke-width="2"/>
    <path d="M590,580.89l-136.95-.49c3.69-13.96,15.02-19.88,29.02-18.94,3.72-25.25,26.13-40.4,50.28-28.63,5.16-10.67,7.28-20.4,15.63-29.46,9.67-10.5,28.3-19.35,42.02-14.98v92.5Z" fill="none" stroke="#000" stroke-linecap="round" stroke-linejoin="round" stroke-width="2"/>
    <path d="M382.17,251.72c-3.14-1.77-5.51-23.48-6.7-27.8-13.1-6.1-25.48-5.02-34.89-18.11-2.1-2.91-6.34-15.2-8.06-14.91-1.25.2-7.12,9.01-8.89,10.62-2.2,2.02-7.87,5.69-10.59,6.91-5.88,2.64-23.75,4.93-26.1,8.16-4.26,5.83-5.27,30.76-7.62,39.12-4.94,17.57-23.79,35.18-17.57,56.56l-11.74,8.62c-5.86-15.95,7.47-25.56,8.03-40.45.18-4.71-1.21-8.93-1.06-12.98.4-11.15,10.47-20.83,14.52-30.57,2.69-6.44,3.23-14.23,5.45-20.55,6.95-19.82,26.5-39.83,49.3-36.2,3.13.49,7.93,3.6,10.24,3.64,3.45.06,10.81-2.97,15.95-2.92,21.47.21,43.36,16.39,48.82,37.27,2.55,9.78.79,18.5,3.2,27.8,1.93,7.46,9.85,15.6,10.28,22.7.4,6.65-4.02,12.81-2.67,21.69,1.65,10.82,13.07,17.9,5.14,31.28-5.85,9.87-22.52-2.8-29.76-6.71.54-6.44.88-13.03.55-19.5-.13-2.68-2.3-5.76-1.84-7.79.38-1.68,4.11-3.89,5.27-5.78,5.02-8.18,7.08-15.59,1.4-24.26-4.79-7.32-7.26-3.94-10.66-5.84Z" fill="none" stroke="#000" stroke-linecap="round" stroke-linejoin="round" stroke-width="2"/>
    <path d="M365.55,278.47c-9.92,11.51-22.67-3.83-34.55-2.59,6.32-13.04-8.4,1.81-11.3,3.21-21.08,10.2-2.79-16.12-1.49-21.51.27-1.13,1.43-3.36-.73-3.68-2.39-.36-9.56,16.77-11.44,19.53-7.94-1.08-26.88,9.02-25.97-5.89l10.44-48.64c15.79-3.68,31.59-6.11,40.98-21.01,7.98,17.92,22.15,24.74,40.54,28.47l5.94,26.06c-6.44,7.69-5.86,18.43-12.42,26.05Z" fill="none" stroke="#000" stroke-linecap="round" stroke-linejoin="round" stroke-width="2"/>
    <path d="M6,55.89c7.37,7.2,8.49,18.05,10.96,27.55,21.09-9.85,39.36-.73,40.09,23.4,18.51-6.64,35.89,4.27,35.95,24.05H6V55.89Z" fill="none" stroke="#000" stroke-linecap="round" stroke-linejoin="round" stroke-width="2"/>
    <path d="M62.98,399.45c.92-6.22,34.46-20.67,40.4-18.63,2.79,7.38,6.05,16.74,15.62,16.06.11-4.19-5.43-4.77-8.43-9.06-2.22-3.17-2.48-7.16-5.01-9.99-4.67-5.2-16.9-7.32-15.55-16.93,1.82-1.79,28.29,10.59,31.86,12.62,16.26,9.25,13.67,25.5,16.13,41.86-.71,6.32-32.94,16.81-39.63,17.38-2.63.23-12.47,1.68-11.24-3.21.01-2.6,24.84-10.41,16.32-12.65-4.41-1.15-25.11,15.09-28.31,9.85-5.1-8.36,23.89-15.48,23.84-18.36-.04-2-3.77-1.3-5.04-1.07-6.09,1.07-23.91,14.51-28.35,10.68-8.97-7.71,26.36-19.59,27.41-21.61.05-.2.08-.38.11-.56,0-.07.02-.14.02-.22.02-.2.02-.39,0-.56,0-.05,0-.09-.01-.13-.1-.69-.52-1.04-1.17-1.14-.8-.12-1.95.14-3.35.64-.25.09-.51.19-.78.29-2.69,1.08-6.12,2.89-9.56,4.63-.31.16-.63.32-.95.48-4.37,2.18-8.66,4.12-11.42,4.15-2.22.02-3.45-1.19-2.91-4.52Z" fill="none" stroke="#000" stroke-linecap="round" stroke-linejoin="round" stroke-width="2"/>
    <path d="M533.01,340.88c10.93-1.85,7.44-14.08,9.21-20.27,1.26-4.43,28.44-15.12,33.3-14.8,1.47.1,2.65.19,3.47,1.62,1.43,4.65-19.21,11.63-22.77,15.13-2.16,2.12-1.76,4.37,1.44,3.52,3.61-.96,26.97-17.29,28.28-8.56.81,5.45-27.94,14.34-28.96,16.87-.16.38-.33,2.54.55,2.51,5.21,1.7,19.85-10.55,26.46-10,2.48,10.59-23.17,15.23-24.95,18.04-.68,1.07.21,3.25,1.48,3.95l14.47-6c4.17,4.77-11.87,13.77-14.97,15.52-11.85,6.66-26.47,11.75-40.02,13.49-1.69-15.29-4.65-30.71-1.56-46.07.67-2.04,23.59-22.38,25.25-22.77,1.33-.32,1.97-.37,2.85.8,2.43,6.85-6.63,10.69-8.08,15.99-1.05,3.85.15,7.7-.68,11.32-.87,3.86-5.91,5.08-4.77,9.71Z" fill="none" stroke="#000" stroke-linecap="round" stroke-linejoin="round" stroke-width="2"/>
    <path d="M395.05,653.19l17.94-7.3c.31,5.49,4.88,10.66,5.77,15.74,2.56,14.74-6.75,25.18-11.05,38.47-1.95,6.01-.56,14.93-6.7,18.79.63-2.31-.57-13.24-4.01-10.01-.92.88,2.47,16.56-6,14.01-.37-2.13.5-13.51,0-14-4.67-4.51-1.49,13.17-5.97,15.54-.95.5-1.69.68-2.27.6-4.31-.59.83-15.54.23-16.13-3.94-3.94-5.81,12.18-7.51,13.98-4.34,4.59-3.5-12.68-3.35-14.36,1.4-15.77,10.1-31.07,3.87-47.59l19.05-7.74Z" fill="none" stroke="#000" stroke-linecap="round" stroke-linejoin="round" stroke-width="2"/>
    <path d="M295,666.9c-.75,12.36-11.88,18.98-18.41,28.08-2.08,2.88-18.95,33.64-23.58,28.9-1.06-.8,4.26-13.51.51-11.98-3.5,1.42-4.45,13.02-7.51,10.98-2.96-2.58,2.66-14.54-.53-14.98-3.39-.47-4.73,9.74-4.48,11.99-3.3.86-4.82-2.52-4.69-5.35.09-2.12,5.13-9.28,2.17-9.65-3.48-.43-6.37,8.23-6.49,11-5.93-7.26,2.61-20.46,6.49-28.02,5.1-9.94,13.23-17.1,11.53-29.98l44.99,9.01Z" fill="none" stroke="#000" stroke-linecap="round" stroke-linejoin="round" stroke-width="2"/>
    <path d="M250.05,459.81l1.96-9.92c14.86,7.21,32.11,9.77,48.51,10.98,29.04,2.15,63.78.5,90.99-9.95.78.1,3.41,6.98,3.33,7.5-.29,1.78-22.44,6.58-25.62,7.19-39.08,7.51-81.16,5.96-119.17-5.8Z" fill="none" stroke="#000" stroke-linecap="round" stroke-linejoin="round" stroke-width="2"/>
    <path d="M526.98,394.88c-2.58.54-1.55-.48-2.08-1.41-1.14-1.98-4.55-16.85-3.9-17.58l9.52-1.96c1.91.22.43,6.47.18,8.16-.67,4.53-2.14,8.57-3.72,12.79Z" fill="none" stroke="#000" stroke-linecap="round" stroke-linejoin="round" stroke-width="2"/>
    <path d="M137.99,422.9c-.68,16.56-3.54,27.39-11.95,5.55l11.95-5.55Z" fill="none" stroke="#000" stroke-linecap="round" stroke-linejoin="round" stroke-width="2"/>
    <path d="M111.36,710.53c34,30.37,74.34,44.51,120.13,44.35,2.58,5.47-7.25,4.18-11.03,4.05-31.82-1.15-69.5-13.08-95.37-31.63-3.99-2.86-20.25-15.79-20.13-19.88.17-5.62,5.93,2.69,6.4,3.11Z" fill="none" stroke="#000" stroke-linecap="round" stroke-linejoin="round" stroke-width="2"/>
    <path d="M94.36,760.53c17.66,19.25,39.26,35.59,64.49,43.5l.14,3.85c-26.49-7.33-52.61-26.56-69.92-47.81-.7-.86-11.32-13.09-5.56-12.2,2.72.43,8.49,10.09,10.85,12.66Z" fill="none" stroke="#000" stroke-linecap="round" stroke-linejoin="round" stroke-width="2"/>
    <path d="M219,79.89h-72c-3.3-7.81,2.73-17.53,9.99-20.51,2.65-1.09,8.54-1.33,8.9-1.6.5-.39,1.94-8.05,5.12-11.38,7.12-7.44,19.83-6.25,25.44,2.54,1.5,2.36,2.2,7.38,3.57,8.43,1.34,1.04,6.29,1.23,8.68,2.32,8.53,3.93,11.28,11.09,10.3,20.2Z" fill="none" stroke="#000" stroke-linecap="round" stroke-linejoin="round" stroke-width="2"/>
    <path d="M198.98,245.89c-4.7,2.99-1.01-9.01-.7-10.22,10.88-42.36,31.31-85.67,42.67-128.33,1.9-4.99,5.1-3.69,3.61,1.6l-45.58,136.95Z" fill="none" stroke="#000" stroke-linecap="round" stroke-linejoin="round" stroke-width="2"/>
    <path d="M72.99,455.9l-34.47,97.98-.81-3.76c12.54-26.7,18.35-65.38,31.24-90.78.88-1.73,1.61-3.75,4.04-3.44Z" fill="none" stroke="#000" stroke-linecap="round" stroke-linejoin="round" stroke-width="2"/>
    <path d="M136,223.9c-1.17-.12-2.17.53-3.1-.6-3.02-3.69-.32-83.95-1.89-95.41,1.41-.04,2.57-.38,3.51.98,2.69,3.92-.13,83.61,1.48,95.03Z" fill="none" stroke="#000" stroke-linecap="round" stroke-linejoin="round" stroke-width="2"/>
    <polygon points="64.94 178.94 85.81 232.63 84.48 235.88 61.14 181.21 64.94 178.94" fill="none" stroke="#000" stroke-linecap="round" stroke-linejoin="round" stroke-width="2"/>
    <path d="M165.99,226.89c-4.36,1.11-3.14-2.72-2.86-6.37.61-8.07,6.35-37.63,8.95-45.05,1.62-4.65,4.05-4.56,3.83.77-.62,15.22-8.79,34.93-9.92,50.65Z" fill="none" stroke="#000" stroke-linecap="round" stroke-linejoin="round" stroke-width="2"/>
    <path d="M111.51,461.9c1.77-.56,3.39.55,3.51,2.48-3.56,12.84-.87,30.73-4.07,42.96-1.2,4.63-4.06,2.7-3.98-1.89.14-8.76,2.18-19.2,3.01-28.08.29-3.03-1.11-14.64,1.53-15.47Z" fill="none" stroke="#000" stroke-linecap="round" stroke-linejoin="round" stroke-width="2"/>
    <path d="M261.79,590.37c-.52-29.38,1.42-59.24,6.34-87.85.55-3.37.36-8.58,4.86-7.63-5.05,40.82-10.11,81.82-6,122.99l-3.98.02h-.01c-.42-6.07-.75-12.17-.96-18.31v-.03c-.11-3.06-.19-6.12-.25-9.19Z" fill="none" stroke="#000" stroke-linecap="round" stroke-linejoin="round" stroke-width="2"/>
    <path d="M381.99,614.88c-2.53,2.45-5.66-6.2-6.47-8.01-14.57-32.52-17.82-74.85-21.51-109.97,1.81-.15,3.04-.34,3.82,1.66,2.04,5.31,1.37,20.87,2.29,27.71,1.8,13.26,4.38,28.62,7.35,41.65,3.64,16.04,9.82,31.28,14.52,46.96Z" fill="none" stroke="#000" stroke-linecap="round" stroke-linejoin="round" stroke-width="2"/>
    <path d="M294.78,287.12c.6.35,1.55,3.54,2.83,4.67,9.31,8.24,21.97,9.96,33.68,5.89,3.73-1.3,8.37-5.44,10.24-5.77,4.39-.78,2.48,2.67.42,4.43-14.12,12.12-45.01,9.97-50.94-9.44,1.18.1,2.73-.4,3.77.22Z" fill="none" stroke="#000" stroke-linecap="round" stroke-linejoin="round" stroke-width="2"/>
    <path d="M338.76,254.16c1.35,1.65.42,6.03,4.8,6.74,8.21,1.35,7.81-5.92,13.45-5.5,1.98,6.59-13.18,14.12-19.44,6.42-4.26-5.26-2-11.59,1.19-7.66Z" fill="none" stroke="#000" stroke-linecap="round" stroke-linejoin="round" stroke-width="2"/>
    <path d="M362.99,244.88c-5.39-.65-8.3-6.77-13.96-7.59-4.33-.63-8.03,3.26-11.01.1,6.3-9.35,24.22-1.93,24.97,7.49Z" fill="none" stroke="#000" stroke-linecap="round" stroke-linejoin="round" stroke-width="2"/>
    <path d="M293,246.88c.95.97-1.53,11.9,9.84,8.36.96-.3,9.19-6.61,7-1.02-2.21,5.63-13.04,7.52-17.52,3.34-4.14-3.87-2.63-14.02.68-10.68Z" fill="none" stroke="#000" stroke-linecap="round" stroke-linejoin="round" stroke-width="2"/>
    <path d="M312.84,231.04l.15,3.84c-9.32-3.43-12.84-.87-20.98,3,.12-9.69,13.89-10.72,20.83-6.84Z" fill="none" stroke="#000" stroke-linecap="round" stroke-linejoin="round" stroke-width="2"/>
    <path d="M150,75.88c-.18-6.83,5.52-11.9,11.73-13.76,2.17-.66,5.73.4,7.33-.67,2.46-1.66.17-14.91,12.42-15.64,15.56-.92,12.12,13.3,15.47,15.63,4.05,2.82,21.82.83,17.1,15.01l-64.05-.57Z" fill="none" stroke="#000" stroke-linecap="round" stroke-linejoin="round" stroke-width="2"/>
  </g>
</svg>